<?xml version="1.0" encoding="utf-8" standalone="no"?>
<!DOCTYPE svg PUBLIC "-//W3C//DTD SVG 1.1//EN"
  "http://www.w3.org/Graphics/SVG/1.1/DTD/svg11.dtd">
<!-- Created with matplotlib (http://matplotlib.org/) -->
<svg height="432pt" version="1.1" viewBox="0 0 576 432" width="576pt" xmlns="http://www.w3.org/2000/svg" xmlns:xlink="http://www.w3.org/1999/xlink">
 <defs>
  <style type="text/css">
*{stroke-linecap:butt;stroke-linejoin:round;}
  </style>
 </defs>
 <g id="figure_1">
  <g id="patch_1">
   <path d="
M0 432
L576 432
L576 0
L0 0
z
" style="fill:#ffffff;"/>
  </g>
  <g id="axes_1">
   <g id="line2d_1">
    <path clip-path="url(#p7ff5b81e1d)" d="
M72 221.991
L72.2232 217.464
L72.4464 227.124
L72.5208 226.294
L72.6696 215.287
L72.9672 192.247
L73.0416 193.416
L73.4136 210.471
L73.488 211.174
L73.7112 207.113
L73.7856 208.012
L74.0088 216.41
L74.3064 246.166
L74.3808 243.338
L74.7528 209.711
L74.976 206.906
L75.1248 220.534
L75.348 238.574
L75.4224 236.685
L75.5712 218.437
L75.72 200.674
L75.7944 201.538
L76.0176 213.547
L76.3896 204.544
L76.464 205.172
L76.6872 209.193
L77.208 237.336
L77.7288 202.862
L77.8776 199.815
L78.0264 203.508
L78.2496 214.44
L78.324 214.394
L78.4728 223.604
L78.6216 232.371
L78.7704 224.589
L78.9192 217.291
L78.9936 217.481
L79.068 218.91
L79.1424 218.558
L79.2912 215.004
L79.3656 212.637
L79.44 213.138
L79.5888 217.516
L79.812 223.691
L79.8864 224.468
L80.0352 221.755
L80.2584 215.465
L80.4072 219.238
L80.928 202.114
L81.0768 200.697
L81.3744 215.477
L81.5976 212.142
L82.1928 232.59
L82.2672 232.578
L82.9368 210.057
L83.16 219.025
L83.3088 218.685
L83.3832 219.088
L83.6064 213.49
L83.6808 214.129
L83.904 225.177
L83.9784 224.434
L84.4248 205.178
L84.4992 206.128
L84.7224 210.575
L84.8712 207.338
L85.02 212.424
L85.2432 218.011
L85.3176 217.061
L85.5408 221.98
L85.6896 220.58
L85.764 221.064
L85.9872 227.648
L86.2848 213.472
L86.4336 214.78
L86.5824 211.929
L86.7312 214.544
L86.8056 216.041
L86.88 214.878
L86.9544 214.993
L87.1776 221.847
L87.3264 218.864
L87.4008 219.958
L87.624 229.347
L87.8472 218.904
L88.1448 195.593
L88.2192 193.52
L88.2936 194.395
L88.368 194.666
L88.4424 194.297
L88.6656 204.009
L88.9632 227.36
L89.112 229.272
L89.1864 229.232
L89.4096 232.29
L89.484 230.764
L90.0048 204.919
L90.228 209.458
L90.3024 209.147
L90.3768 209.941
L90.6 219.993
L90.7488 225.868
L90.972 223.719
L91.0464 224.532
L91.2696 229.86
L91.344 229.692
L91.4184 228.189
L91.8648 204.354
L91.9392 205.166
L92.2368 216.226
L92.3856 214.941
L92.46 215.604
L92.6088 218.334
L92.6832 217.504
L93.0552 204.838
L93.204 200.754
L93.576 212.032
L93.6504 210.944
L93.7248 211.036
L94.2456 227.717
L94.3944 227.705
L94.4688 227.89
L94.692 230.649
L94.8408 225.966
L95.2872 196.935
L95.3616 196.993
L95.5104 205.512
L95.808 223.155
L96.0312 232.411
L96.1056 230.654
L96.3288 213.052
L96.4032 213.662
L96.552 214.786
L96.6264 214.071
L96.7752 216.358
L96.8496 215.903
L96.9984 212.724
L97.2216 222.688
L97.296 222.118
L97.5192 209.7
L97.668 202.972
L97.8168 204.464
L97.8912 202.805
L97.9656 203.444
L98.1144 209.026
L98.1888 208.98
L98.2632 208.64
L98.5608 213.288
L98.784 212.493
L98.8584 215.206
L99.156 238.885
L99.3048 240.567
L99.4536 235.078
L99.7512 215.292
L99.9 216.79
L100.049 215.241
L100.123 214.93
L100.198 215.396
L100.272 215.074
L100.346 213.893
L100.57 204.573
L100.644 205.714
L100.793 208.715
L101.09 201.106
L101.165 202.027
L101.388 208.375
L101.462 210.166
L101.686 223.155
L101.76 222.78
L101.909 225.839
L101.983 229.013
L102.058 228.852
L102.281 212.793
L102.43 205.149
L102.504 205.621
L102.727 215.955
L102.876 224.341
L102.95 224.042
L103.025 222.06
L103.099 222.285
L103.322 235.522
L103.397 233.765
L103.769 203.721
L103.918 207.499
L104.141 217.942
L104.215 217.838
L104.438 210.898
L104.662 212.891
L104.736 213.023
L104.885 208.058
L104.959 209.579
L105.331 230.816
L105.48 222.769
L105.703 208.035
L105.926 215.897
L106.001 215.592
L106.224 207.361
L106.298 208.288
L106.67 221.208
L106.819 217.153
L106.968 221.732
L107.042 221.317
L107.191 218.875
L107.414 209.602
L107.712 227.682
L107.786 225.632
L108.158 204.308
L108.233 204.527
L109.126 225.885
L109.349 221.139
L109.795 208.553
L109.87 207.845
L110.316 220.442
L110.539 231.57
L110.614 230.764
L110.837 218.604
L110.911 219.14
L110.986 219.63
L111.358 202.442
L111.506 206.94
L111.878 221.772
L111.953 221.214
L112.027 220.148
L112.176 215.69
L112.25 215.886
L112.399 213.04
L112.474 213.922
L112.697 220.989
L113.143 214.636
L113.366 206.871
L113.441 207.033
L113.59 206.186
L113.962 217.683
L114.11 219.394
L114.334 217.153
L114.482 225.01
L114.631 231.933
L114.78 225.655
L115.003 214.452
L115.301 208.836
L115.375 208.536
L115.524 205.103
L115.822 209.884
L115.896 210.638
L116.268 223.097
L116.491 237.008
L116.566 235.666
L117.086 211.733
L117.161 210.247
L117.533 215.46
L117.607 215.396
L117.756 213.996
L117.83 214.515
L117.905 214.037
L118.202 205.921
L118.277 206.18
L118.5 203.208
L118.574 204.59
L119.021 222.348
L119.17 224.768
L119.244 223.817
L119.318 223.881
L119.393 224.491
L119.542 222.579
L119.69 226.513
L119.765 226.317
L120.211 210.149
L120.434 203.323
L120.509 203.893
L120.732 212.205
L120.806 212.021
L120.881 210.16
L120.955 210.178
L121.104 216.83
L121.253 223.339
L121.327 223.166
L121.476 217.067
L121.55 217.199
L121.774 227.371
L121.848 228.172
L122.071 225.966
L122.146 228.909
L122.22 227.556
L122.592 203.617
L122.741 205.23
L122.964 196.993
L123.41 211.128
L123.708 219.947
L123.931 215.229
L124.229 220.597
L124.303 220.736
L124.526 233.419
L124.601 231.599
L124.898 215.436
L124.973 215.65
L125.122 219.336
L125.27 223.788
L125.494 234.283
L125.866 221.611
L126.014 216.612
L126.089 212.816
L126.163 212.96
L126.238 211.721
L126.535 191.014
L126.684 185.191
L126.833 189.378
L126.907 189.269
L127.056 194.297
L127.726 234.923
L127.8 234.283
L128.172 221.392
L128.246 222.452
L128.321 224.036
L128.395 223.668
L128.47 221.749
L128.544 222.02
L128.767 229.802
L129.214 211.439
L129.362 213.968
L129.586 212.32
L129.66 212.793
L129.809 214.786
L129.883 214.452
L130.106 210.938
L130.255 212.77
L130.404 219.405
L130.553 218.685
L130.702 220.315
L131.371 207.177
L131.52 210.823
L131.743 217.095
L131.818 217.055
L131.966 220.269
L132.041 219.019
L132.19 212.839
L132.264 212.96
L132.487 220.044
L132.636 218.616
L132.859 211.134
L132.934 212.292
L133.157 219.048
L133.38 206.912
L133.529 214.221
L133.678 223.932
L133.901 213.438
L133.975 214.82
L134.198 226.985
L134.422 230.977
L134.57 226.006
L134.645 226.254
L134.719 226.703
L135.017 215.143
L135.314 203.951
L135.463 200.633
L135.612 195.15
L135.91 205.178
L136.282 224.457
L136.356 224.935
L136.802 217.625
L136.877 218.109
L137.026 219.388
L137.1 219.307
L137.323 224.376
L137.472 231.357
L137.546 229.923
L137.844 212.533
L137.993 215.557
L138.216 207.649
L138.365 211.71
L138.588 222.072
L138.662 221.865
L138.886 214.544
L139.034 207.522
L139.258 209.849
L139.332 209.786
L139.555 205.011
L139.63 205.967
L140.002 216.243
L140.225 209.521
L140.299 212.038
L140.597 233.724
L140.746 231.248
L140.82 232.348
L140.894 231.91
L141.043 224.307
L141.415 202.741
L141.49 202.119
L141.638 206.589
L142.234 229.307
L142.531 222.792
L142.829 210.846
L142.978 207.908
L143.126 211.629
L143.35 208.703
L143.498 214.135
L143.647 218.789
L144.019 206.981
L144.168 209.296
L144.317 206.002
L144.689 220.183
L144.763 220.258
L145.061 214.302
L145.135 214.653
L145.284 220.62
L145.507 231.605
L145.582 233.218
L145.656 232.434
L146.251 216.784
L146.326 218.541
L146.4 217.954
L146.549 211.831
L146.772 202.862
L146.846 202.569
L146.995 204.953
L147.293 217.81
L147.442 218.178
L147.59 214.866
L147.814 220.027
L147.962 217.015
L148.111 212.77
L148.186 213.916
L148.26 215.707
L148.483 206.076
L148.558 208.421
L148.706 210.074
L148.781 209.976
L148.855 209.037
L148.93 209.458
L149.078 208.91
L149.45 224.278
L149.599 237.18
L149.674 234.871
L149.822 227.515
L149.897 229.491
L149.971 229.474
L150.418 210.287
L150.715 215.598
L150.79 216.352
L151.013 221.842
L151.162 218.443
L151.31 214.503
L151.534 215.269
L151.608 214.296
L151.831 205.218
L151.906 205.8
L151.98 206.295
L152.203 198.473
L152.278 198.588
L152.426 202.436
L152.65 211.531
L152.798 222.423
L152.873 222.383
L153.096 215.949
L153.394 224.261
L153.542 229.076
L153.691 225.102
L153.84 230.349
L153.914 230.268
L154.138 224.169
L154.435 217.844
L154.51 218.144
L154.584 217.931
L154.733 217.291
L154.882 222.412
L154.956 221.369
L155.402 193.929
L155.477 196.123
L155.7 212.81
L155.923 223.426
L155.998 224.128
L156.072 222.757
L156.146 222.988
L156.295 227.544
L156.37 226.801
L156.667 208.519
L156.742 208.098
L156.89 210.068
L156.965 209.907
L157.039 208.772
L157.114 208.841
L157.486 216.387
L157.858 207.557
L158.006 212.194
L158.304 223.812
L158.378 224.197
L158.527 226.812
L158.825 222.971
L159.048 217.136
L159.122 218.743
L159.197 218.581
L159.42 210.402
L159.792 220.96
L159.866 219.434
L160.015 210.713
L160.09 211.174
L160.238 221.842
L160.759 205.138
L160.834 206.906
L160.908 208.116
L160.982 207.776
L161.057 207.459
L161.131 208.277
L161.429 216.237
L161.503 215.241
L161.578 216.335
L161.875 230.81
L161.95 230.562
L162.098 224.197
L162.322 211.226
L162.545 214.008
L162.694 211.934
L162.917 215.218
L162.991 214.693
L163.066 214.284
L163.214 209.216
L163.289 210.028
L163.586 222.504
L163.661 222.383
L163.81 213.749
L163.884 215.362
L164.033 219.273
L164.182 216.542
L164.256 217.994
L164.33 222.953
L164.405 221.784
L164.554 213.092
L164.628 213.23
L164.777 214.475
L164.851 214.261
L165 211.589
L165.074 212.77
L165.149 213.461
L165.223 212.591
L165.298 212.654
L165.446 211.813
L165.521 212.257
L165.818 229.001
L166.19 208.68
L166.339 208.887
L166.414 208.709
L166.562 205.564
L166.786 214.659
L166.86 214.619
L166.934 217.032
L167.009 216.807
L167.158 213.881
L167.455 223.627
L167.53 223.564
L167.827 217.141
L167.976 215.252
L168.05 215.546
L168.125 215.84
L168.199 214.78
L168.348 209.642
L168.497 216.928
L168.794 228.011
L168.869 227.227
L169.39 210.529
L169.613 213.755
L169.687 213.265
L169.91 218.662
L170.134 204.913
L170.282 205.351
L170.431 210.437
L170.506 209.198
L170.654 199.625
L170.729 201.25
L170.952 211.819
L171.026 211.566
L171.25 229.451
L171.473 246.517
L171.547 246.206
L171.77 233.304
L172.291 203.997
L172.514 198.842
L172.589 198.957
L172.738 197.897
L172.886 202.718
L173.184 221.024
L173.258 221.271
L173.333 221.018
L173.556 224.353
L173.63 224.226
L173.779 221.721
L174.077 209.78
L174.151 209.861
L174.226 212.021
L174.449 207.655
L174.672 218.075
L175.118 242.722
L175.193 243.177
L175.342 233.713
L175.862 181.925
L176.011 184.281
L176.16 190.144
L176.234 191.452
L176.458 214.855
L176.83 244.617
L176.978 246.811
L177.276 224.053
L177.35 224.894
L177.946 204.85
L178.02 206.606
L178.392 230.568
L178.987 192.252
L179.136 194.332
L179.21 194.332
L179.434 204.078
L179.508 203.974
L179.88 217.602
L180.029 224.508
L180.103 224.935
L180.178 223.339
L180.326 235.153
L180.475 242.998
L181.07 218.075
L181.219 221.974
L181.294 221.415
L181.368 221.646
L181.517 215.2
L181.74 203.375
L181.963 208.697
L182.038 206.013
L182.112 207.038
L182.186 206.491
L182.335 202.517
L182.41 203.542
L182.782 216.9
L183.005 213.444
L183.526 222.596
L183.749 228.921
L183.823 226.404
L184.195 198.421
L184.27 198.266
L184.344 199.262
L184.418 198.646
L184.493 198.974
L184.79 214.308
L185.014 231.737
L185.162 237.376
L185.237 240.763
L185.311 238.88
L185.534 245.285
L185.609 242.935
L185.758 233.684
L185.832 233.805
L185.906 233.074
L186.278 209.688
L186.427 197.091
L186.502 197.275
L186.65 195.876
L186.874 186.734
L187.171 194.66
L187.32 201.647
L187.469 199.378
L188.064 226.83
L188.287 238.05
L188.734 224.14
L188.808 223.852
L189.106 227.63
L189.403 224.359
L189.701 214.809
L189.85 219.065
L189.998 226.133
L190.073 224.382
L190.296 205.097
L190.519 208.686
L190.817 199.199
L190.891 199.994
L191.04 203.876
L191.189 202.949
L191.338 208.617
L191.635 220.678
L191.71 220.995
L191.858 219.705
L191.933 219.906
L192.156 224.704
L192.23 223.541
L192.602 208.277
L193.198 225.252
L193.272 224.013
L193.421 217.458
L193.57 211.393
L193.793 222.959
L193.867 226.219
L193.942 225.649
L194.239 217.188
L194.537 226.461
L194.686 216.128
L194.909 206.923
L195.058 211.393
L195.355 218.311
L195.727 210.16
L195.802 209.308
L196.025 219.048
L196.099 218.374
L196.248 210.684
L196.471 200.783
L196.546 201.071
L197.141 213.645
L197.364 218.881
L197.81 241.38
L197.885 243.148
L197.959 242.71
L198.48 211.37
L198.703 205.737
L198.778 207.286
L199.001 211.243
L199.075 210.074
L199.298 196.981
L199.522 202.004
L199.819 219.774
L199.894 217.452
L200.042 213.518
L200.117 215.39
L200.414 235.516
L200.712 227.164
L201.084 203.824
L201.158 202.788
L201.605 216.658
L201.679 216.969
L201.828 215.863
L202.051 220.914
L202.2 216.779
L202.498 205.679
L202.87 216.531
L202.944 216.237
L203.018 216.41
L203.093 216.905
L203.39 225.534
L203.911 212.885
L204.134 218.109
L204.209 217.631
L204.358 215.943
L204.432 216.364
L204.655 213.524
L204.878 202.263
L204.953 204.66
L205.102 215.31
L205.176 214.872
L205.474 209.607
L205.548 209.296
L206.069 222.406
L206.292 230.366
L206.738 220.546
L206.813 219.117
L206.962 219.993
L207.408 209.302
L207.706 208.075
L208.003 215.748
L208.152 221.761
L208.226 221.277
L208.598 212.948
L208.673 213.202
L208.896 220.332
L209.045 213.288
L209.119 213.444
L209.268 216.732
L209.417 212.677
L209.566 215.108
L209.714 212.683
L209.789 213.023
L209.863 212.856
L209.938 210.742
L210.012 211.387
L210.31 220.834
L210.533 222.4
L210.607 224.324
L210.682 224.232
L211.202 213.841
L211.277 213.927
L211.426 216.675
L211.723 208.945
L211.798 209.642
L212.021 223.247
L212.095 221.577
L212.318 217.326
L212.467 216.295
L212.542 216.537
L212.69 216.133
L212.765 216.168
L212.914 214.509
L213.137 216.83
L213.211 216.312
L213.286 216.076
L213.434 217.481
L213.658 209.901
L213.732 209.498
L213.806 209.723
L213.955 214.797
L214.03 217.971
L214.104 217.481
L214.402 208.404
L214.625 209.815
L214.848 218.495
L214.922 215.65
L214.997 211.963
L215.071 212.28
L215.592 236.599
L215.815 231.029
L216.038 235.781
L216.187 228.673
L216.41 206.791
L216.559 208.225
L216.634 208.075
L216.931 193.554
L217.154 188.854
L217.378 192.84
L217.973 233.442
L218.345 228.12
L218.419 228.667
L218.642 237.336
L218.94 224.814
L219.238 212.747
L219.61 220.148
L219.833 213.253
L219.907 212.649
L220.056 207.851
L220.13 208.836
L220.205 210.408
L220.279 210.276
L220.502 201.762
L220.726 219.232
L220.8 216.491
L220.949 213.086
L221.098 215.978
L221.544 208.369
L221.842 222.527
L221.916 221.698
L222.139 219.261
L222.214 219.048
L222.288 219.198
L222.511 224.146
L222.958 216.646
L223.032 217.856
L223.106 216.364
L223.255 209.924
L223.33 210.097
L223.702 218.103
L223.925 218.668
L223.999 219.877
L224.148 215.304
L224.446 197.92
L224.594 200.846
L225.115 232.273
L225.338 243.799
L225.562 238.609
L225.71 229.675
L226.306 196.377
L226.454 195.438
L226.752 200.126
L226.826 199.591
L226.901 199.694
L226.975 199.579
L227.124 198.306
L227.273 201.659
L228.017 245.21
L228.091 247.191
L228.166 246.811
L228.314 238.206
L228.686 220.131
L228.761 220.286
L228.835 219.186
L229.133 202.263
L229.356 197.373
L229.43 197.932
L229.728 202.972
L230.026 220.586
L230.249 218.386
L230.472 222.141
L230.546 224.843
L230.77 219.29
L231.067 210.708
L231.142 210.708
L231.216 211.381
L231.365 215.339
L231.811 210.322
L231.886 211.007
L231.96 210.454
L232.109 212.09
L232.258 215.834
L232.332 215.333
L232.481 212.729
L232.555 214.596
L232.853 229.595
L233.002 231.386
L233.15 226.899
L233.225 227.63
L233.299 228.817
L233.374 228.615
L233.746 215.356
L234.192 205.282
L234.936 226.069
L235.085 217.17
L235.382 185.94
L235.457 186.654
L235.978 205.679
L236.424 237.618
L236.498 236.962
L236.573 237.042
L236.722 239.761
L236.945 235.631
L237.242 225.505
L237.391 227.769
L237.466 227.446
L238.21 193.151
L238.284 195.184
L238.582 209.803
L238.954 231.328
L239.028 231.161
L239.102 231.484
L239.177 232.705
L239.326 220.638
L239.698 178.521
L239.772 178.394
L239.921 190.213
L240.516 239.991
L240.665 245.751
L240.888 240.694
L241.483 209.636
L241.632 207.902
L241.706 207.983
L241.781 207.303
L242.227 197.724
L242.45 212.626
L242.748 232.803
L242.897 234.75
L242.971 234.698
L243.12 233.436
L243.269 223.777
L243.641 200.501
L243.79 199.406
L243.938 191.02
L244.013 192.684
L244.31 211.934
L244.459 221.225
L244.534 221.294
L244.831 233.339
L245.129 256.436
L245.203 257.45
L245.352 245.509
L246.022 160.169
L246.17 169.817
L246.989 253.107
L247.063 254.875
L247.138 254.869
L247.286 249.253
L247.584 219.515
L248.03 180.732
L248.105 180.64
L248.477 201.301
L248.998 246.103
L249.146 238.125
L249.221 232.515
L249.295 232.521
L249.37 232.308
L249.742 224.589
L250.188 183.561
L250.337 178.693
L250.486 187.293
L250.783 225.897
L251.081 248.176
L251.155 249.743
L251.23 246.592
L251.602 206.215
L251.825 198.352
L251.899 198.865
L252.048 204.228
L252.346 223.178
L252.569 225.591
L252.866 216.917
L252.941 219.129
L253.164 227.233
L253.313 229.122
L253.536 223.547
L253.61 221.646
L253.759 205.454
L254.057 166.678
L254.131 169.276
L254.503 225.58
L254.801 262.225
L254.95 250.371
L255.396 205.99
L255.47 205.23
L255.619 208.697
L255.694 212.176
L255.991 269.189
L256.066 264.097
L256.512 122.142
L256.586 122.735
L256.81 163.366
L257.405 315.925
L257.479 306.116
L257.777 211.543
L258 161.143
L258.67 224.197
L259.042 291.987
L259.116 280.657
L259.488 120.155
L259.562 120.921
L259.711 145.902
L260.158 244.15
L260.455 266.689
L260.678 269.817
L260.827 256.534
L260.976 248.729
L261.199 235.084
L261.72 155.596
L261.869 151.944
L261.943 153.695
L262.315 180.94
L263.059 270.698
L263.134 268.97
L263.58 244.795
L264.026 209.279
L264.324 167.531
L264.473 142.037
L264.547 146.651
L264.994 227.026
L265.142 244.104
L265.366 274.615
L265.44 272.852
L265.663 253.355
L265.886 259.149
L266.184 216.629
L266.928 99.1248
L267.002 103.646
L267.151 135.707
L267.821 332.681
L267.895 333.038
L267.97 332.411
L268.118 317.924
L268.416 242.002
L268.862 125.356
L268.937 122.067
L269.011 122.251
L269.234 132.003
L269.681 174.178
L270.35 314.036
L270.499 318.264
L270.574 317.907
L270.722 306.738
L270.946 249.052
L271.318 146.184
L271.392 141.351
L271.466 141.449
L271.764 180.139
L271.838 173.394
L271.987 146.887
L272.062 154.306
L272.359 291.06
L272.508 237.474
L272.806 142.256
L272.88 140.649
L273.029 158.459
L273.624 279.447
L273.773 290.19
L273.847 289.332
L274.145 276.199
L274.368 249.611
L274.889 178.158
L275.038 167.104
L275.261 145.792
L275.335 144.588
L275.41 147.561
L275.558 167.162
L275.93 229.14
L276.228 245.757
L276.451 262.945
L276.526 261.678
L276.674 251.367
L277.344 182.846
L277.418 183.013
L277.716 189.177
L278.014 209.463
L278.534 286.59
L278.758 225.269
L279.055 175.629
L279.204 192.512
L279.427 209.988
L279.65 213.461
L279.799 211.698
L280.022 207.188
L280.097 207.24
L280.246 214.67
L280.394 220.747
L280.543 217.775
L280.692 218.979
L280.841 214.008
L280.99 217.487
L281.436 205.12
L281.51 206.14
L281.808 214.354
L281.882 214.296
L282.18 223.212
L282.254 224.808
L282.403 232.515
L282.478 232.238
L282.775 236.806
L282.85 234.381
L282.924 235.337
L282.998 234.18
L283.147 222.596
L283.445 182.887
L283.519 179.834
L283.594 180.6
L283.742 189.315
L283.891 201.008
L283.966 199.188
L284.04 196.521
L284.114 196.619
L284.338 200.99
L284.858 254.138
L284.933 252.842
L285.156 241.944
L285.23 242.457
L285.305 242.295
L285.454 242.445
L285.751 255.716
L285.826 253.948
L285.974 236.126
L286.421 122.58
L286.57 134.313
L286.942 182.495
L287.239 241.045
L287.462 279.764
L287.686 273.146
L288.132 239.479
L288.355 233.425
L289.025 184.983
L289.397 169.823
L289.471 170.405
L289.769 196.215
L290.066 240.337
L290.215 256.58
L290.29 256.5
L290.587 236.507
L290.885 216.116
L291.034 209.181
L291.257 221.68
L291.331 220.407
L291.778 204.539
L291.852 205.063
L292.224 245.008
L292.298 241.979
L292.819 194.251
L293.042 188.267
L293.117 190.288
L293.266 186.815
L293.414 187.656
L293.563 196.596
L294.084 235.533
L294.307 243.655
L294.382 243.568
L294.679 235.124
L294.977 217.637
L295.349 210.402
L295.423 211.548
L295.572 217.003
L295.87 210.782
L296.018 217.147
L296.093 216.934
L296.316 204.158
L296.614 180.312
L296.688 179.241
L296.837 187.316
L297.506 248.983
L297.581 250.682
L297.73 247.508
L297.878 240.089
L298.176 220.488
L298.325 217.366
L298.399 215.189
L298.474 215.724
L298.697 229.531
L298.846 224.37
L298.994 217.683
L299.143 219.952
L299.218 218.512
L299.366 212.931
L299.441 213.426
L299.515 212.551
L299.738 200.057
L299.887 201.958
L300.036 198.732
L300.185 199.948
L300.482 192.206
L300.557 193.157
L301.375 227.867
L301.524 233.488
L301.747 240.187
L301.822 240.233
L302.045 245.291
L302.119 244.668
L302.417 223.166
L302.789 194.234
L302.863 196.02
L302.938 195.749
L303.161 188.065
L303.235 190.853
L303.83 222.971
L303.979 224.076
L304.054 224.238
L304.351 229.301
L304.426 228.949
L304.946 219.935
L305.021 220.004
L305.095 219.722
L305.17 220.194
L305.393 214.78
L305.467 215.316
L305.765 230.649
L306.137 203.133
L306.509 179.292
L306.658 184.845
L306.806 200.403
L307.03 235.09
L307.178 234.462
L307.402 237.134
L307.699 234.427
L307.848 226.15
L308.22 199.648
L308.369 203.824
L308.443 203.283
L308.592 201.854
L308.666 201.998
L308.815 204.372
L308.89 204.009
L309.038 213.167
L309.485 255.227
L309.559 255.359
L310.006 225.344
L310.303 195.276
L310.601 183.336
L310.675 182.581
L310.75 183.134
L310.973 192.61
L311.122 197.465
L311.196 197.292
L311.27 195.973
L311.419 203.686
L311.94 253.314
L312.238 236.478
L312.312 237.319
L312.461 233.586
L312.758 225.257
L312.907 221.133
L313.428 197.01
L313.577 206.376
L313.651 206.261
L313.8 200.403
L313.874 200.518
L314.098 216.237
L314.172 213.611
L314.321 209.072
L314.395 208.617
L314.544 201.607
L314.618 201.739
L314.693 201.152
L314.916 205.627
L315.288 222.026
L315.362 221.369
L315.66 227.262
L315.958 250.388
L316.032 250.342
L316.404 227.924
L316.776 208.951
L316.85 207.234
L316.925 208.478
L316.999 207.136
L317.222 201.077
L317.297 201.791
L317.446 207.851
L317.52 207.073
L317.743 209.584
L317.966 201.284
L318.115 208.991
L318.19 207.695
L318.338 202.54
L318.413 202.799
L318.71 195.772
L318.934 199.378
L319.38 225.459
L319.603 238.805
L319.975 261.407
L320.124 259.668
L320.273 250.86
L320.794 198.41
L321.166 177.386
L321.24 175.024
L321.389 186.285
L321.761 229.52
L321.835 229.992
L321.984 221.052
L322.282 204.389
L322.356 204.585
L322.505 212.649
L322.654 210.379
L322.802 217.666
L323.1 237.083
L323.249 244.64
L323.398 242.088
L323.546 225.488
L323.844 182.472
L324.067 173.907
L324.142 175.001
L324.29 187.04
L325.109 248.643
L325.183 248.09
L325.63 218.322
L325.704 217.66
L325.778 218.766
L326.002 234.421
L326.299 255.134
L326.374 253.729
L326.522 237.97
L326.894 174.489
L327.118 137.918
L327.192 133.765
L327.341 144.56
L327.862 245.481
L327.936 245.054
L328.01 244.847
L328.085 244.306
L328.159 246.201
L328.308 236.351
L328.457 231.622
L328.754 251.742
L329.052 209.469
L329.35 165.359
L329.424 163.049
L329.573 175.105
L330.094 227.74
L330.317 243.067
L330.763 271.044
L330.912 252.848
L331.284 190.346
L331.507 183.935
L331.582 184.2
L331.656 187.138
L332.028 228.293
L332.102 225.344
L332.4 188.094
L332.474 188.82
L333.516 236.818
L333.739 247.399
L333.888 249.063
L334.037 247.272
L334.186 231.467
L334.558 181.418
L334.632 180.974
L334.93 174.892
L335.078 185.721
L335.822 269.028
L335.971 272.633
L336.12 253.579
L336.715 142.21
L336.79 150.026
L337.31 259.881
L337.385 259.996
L337.608 242.174
L338.203 185.853
L338.278 186.994
L338.352 188.543
L338.501 202.142
L338.798 242.474
L338.873 246.564
L338.947 243.442
L339.096 227.354
L339.17 234.122
L339.319 271.545
L339.394 271.441
L339.989 108.894
L340.063 117.966
L340.658 317.072
L340.807 293.963
L341.179 194.355
L341.477 120.633
L341.923 179.753
L342.37 303.38
L342.444 306.531
L342.518 305.373
L342.667 287.35
L343.262 169.236
L343.337 165.768
L343.411 167.024
L344.006 214.924
L344.304 235.205
L344.378 234.83
L344.602 222.533
L344.825 209.717
L344.974 213.939
L345.122 201.854
L345.271 184.603
L345.346 189.459
L345.569 244.133
L345.792 285.662
L345.866 288.836
L345.941 278.146
L346.238 201.561
L346.462 209.895
L346.61 179.892
L346.908 122.078
L347.057 110.668
L347.131 115.184
L347.28 153.626
L347.726 342.773
L347.875 356.931
L347.95 355.808
L348.098 342.502
L348.322 290.167
L348.991 78.1699
L349.14 70.561
L349.214 74.4202
L349.363 100.945
L349.661 222.037
L349.958 328.108
L350.107 341.269
L350.256 325.262
L350.851 178.572
L351.074 161.287
L351.149 159.703
L351.298 168.187
L351.967 226.501
L352.042 226
L352.116 227.216
L352.19 226.196
L352.414 217.366
L352.711 228.293
L352.786 228.54
L352.934 226.478
L353.232 221.173
L353.306 220.885
L353.455 222.93
L353.53 222.043
L353.678 224.03
L353.753 224.059
L353.827 226.173
L353.902 225.545
L354.05 216.709
L354.199 204.435
L354.274 205.794
L354.646 227.049
L354.72 226.202
L354.943 223.368
L355.166 206.036
L355.687 161.028
L355.91 189.349
L356.282 228.644
L356.357 229.249
L356.506 236.46
L356.803 251.92
L356.878 251.915
L356.952 250.187
L357.175 237.278
L357.25 235.764
L357.473 217.608
L357.622 209.504
L357.696 209.285
L357.845 205.863
L357.994 200.829
L358.142 208.49
L358.217 212.66
L358.291 211.289
L358.366 207.689
L358.44 209.204
L358.663 218.599
L358.812 215.54
L359.035 197.989
L359.184 185.565
L359.258 186.706
L359.482 232.014
L359.779 280.651
L359.854 280.991
L360.077 252.681
L360.523 154.173
L360.746 86.8675
L360.895 112.505
L361.416 241.189
L361.565 234.64
L361.639 242.733
L361.937 320.522
L362.011 315.666
L362.16 293.824
L362.309 312.7
L362.383 311.122
L363.276 129.601
L363.425 128.172
L363.574 139.353
L363.797 159.19
L363.871 162.934
L364.02 194.136
L364.243 249.887
L364.318 250.02
L364.392 249.778
L364.541 267.939
L364.764 291.693
L364.838 288.663
L365.062 251.92
L365.508 188.566
L365.806 160.302
L365.88 157.376
L365.954 160.561
L366.178 200.633
L366.475 255.618
L366.698 262.496
L366.773 262.899
L366.847 262.548
L366.922 264.252
L366.996 264.039
L367.07 262.064
L367.219 248.211
L367.74 175.37
L368.112 156.909
L368.335 171.148
L368.41 169.984
L368.633 153.223
L368.707 154.605
L368.856 175.629
L369.526 342.439
L369.6 340.02
L369.749 320.286
L370.344 192.195
L370.716 153.459
L370.939 141.156
L371.088 151.253
L371.832 226.375
L372.055 227.97
L372.576 250.596
L372.65 251.523
L372.725 251.218
L372.799 250.872
L372.948 243.493
L373.543 185.294
L373.618 187.823
L373.766 185.905
L374.362 234.594
L374.436 235.205
L374.51 234.347
L374.585 235.176
L375.403 207.902
L375.701 217.89
L375.924 212.85
L375.998 214.227
L376.073 214.342
L376.222 213.847
L376.668 202.402
L376.742 203.41
L377.04 210.575
L377.189 213.052
L377.338 216.352
L377.784 206.768
L378.156 191.774
L378.305 205.794
L378.602 238.459
L378.677 235.343
L378.751 235.464
L378.974 247.445
L379.049 247.088
L379.198 238.102
L379.495 222.222
L379.57 221.145
L379.644 221.824
L379.793 225.378
L379.867 225.833
L380.09 221.824
L380.239 212.217
L380.611 170.094
L380.686 174.984
L381.132 267.023
L381.206 267.801
L381.355 242.958
L381.802 143.35
L382.025 129.739
L382.174 154.836
L382.694 282.69
L382.843 288.226
L382.918 286.117
L383.141 260.134
L383.513 212.741
L383.885 178.947
L383.959 178.457
L384.257 189.925
L385.224 234.957
L385.298 234.041
L385.596 220.92
L385.819 224.514
L385.894 224.33
L386.34 213.242
L386.414 213.593
L386.489 213.68
L386.786 206.474
L387.01 205.627
L387.53 214.601
L387.754 213.743
L387.828 213.68
L388.2 202.2
L388.274 202.592
L388.423 209.417
L388.646 226.594
L388.721 229.451
L388.795 229.428
L389.018 226.058
L389.242 229.79
L389.316 230.148
L389.465 229.036
L389.539 226.956
L389.688 230.453
L389.762 230.217
L390.209 215.84
L390.506 194.32
L390.655 197.367
L390.878 203.542
L391.027 198.894
L391.176 204.533
L391.474 223.247
L391.548 224.128
L391.697 218.795
L391.846 213.242
L391.92 214.377
L392.143 227.665
L392.218 226.755
L392.441 216.393
L392.515 216.784
L392.59 219.083
L392.664 218.685
L392.738 219.555
L392.962 225.516
L393.185 219.077
L393.408 227.878
L393.557 225.781
L393.631 226.329
L393.706 223.938
L394.003 203.041
L394.078 203.018
L394.301 201.025
L394.375 200.224
L394.524 193.641
L394.598 194.868
L394.896 213.132
L394.97 213.052
L395.566 240.325
L395.714 235.285
L396.161 215.638
L396.31 214.394
L396.682 194.626
L396.756 195.253
L397.202 209.849
L397.426 225.159
L397.872 213.156
L397.946 211.468
L398.021 212.061
L398.318 228.011
L398.765 223.149
L399.211 213.743
L399.286 213.668
L399.434 211.727
L399.583 216.537
L399.881 211.318
L400.03 211.641
L400.178 209.936
L400.253 207.545
L400.402 212.338
L400.625 219.025
L400.699 217.499
L400.774 217.556
L400.848 217.441
L401.146 223.817
L401.294 220.298
L401.518 209.031
L401.592 209.723
L401.89 218.334
L401.964 219.342
L402.187 217.452
L402.336 211.831
L402.41 212.096
L402.559 214.336
L402.708 211.796
L402.782 212.032
L403.006 219.422
L403.154 218.547
L403.378 221.594
L403.526 217.337
L403.601 218.011
L403.75 219.589
L403.824 218.61
L403.973 220.35
L404.196 213.979
L404.419 220.926
L404.494 219.952
L404.642 220.995
L405.238 205.172
L405.312 205.414
L405.461 202.943
L405.535 201.371
L405.61 201.474
L405.684 201.601
L405.758 201.094
L405.982 203.876
L406.205 213.144
L406.502 235.712
L406.577 235.556
L406.726 234.813
L406.8 235.752
L406.874 235.211
L406.949 233.465
L407.246 219.083
L407.395 220.436
L407.47 222.55
L407.544 222.533
L407.767 214.428
L407.842 215.275
L408.065 220.603
L408.139 221.145
L408.511 211.03
L408.66 212.695
L408.958 204.02
L409.255 196.106
L409.33 197.223
L409.925 210.46
L410.148 208.265
L410.297 212.47
L410.743 250.187
L410.818 247.779
L411.264 230.896
L411.71 206.232
L412.082 199.81
L412.157 200.587
L412.231 200.8
L412.454 202.96
L412.678 209.458
L413.05 220.114
L413.124 220.937
L413.198 220.114
L413.347 216.491
L413.496 220.171
L413.719 225.966
L413.794 226.72
L414.091 215.5
L414.166 215.344
L414.463 222.268
L414.538 218.08
L414.612 218.357
L414.761 217.101
L414.835 214.382
L415.058 200.558
L415.133 201.503
L415.282 205.477
L415.43 204.654
L415.505 205.702
L415.728 217.689
L415.951 232.187
L416.026 231.588
L416.546 206.601
L416.695 201.808
L416.993 205.673
L417.142 213.916
L417.365 225.66
L417.439 226.732
L417.588 239.968
L417.811 253.47
L417.886 254.011
L417.96 252.226
L418.853 181.533
L419.076 184.402
L419.299 172.478
L419.374 175.347
L419.746 202.926
L419.82 202.88
L419.969 212.407
L420.266 239.444
L420.564 251.604
L420.787 256.782
L420.862 255.929
L420.936 253.838
L421.754 197.759
L421.829 198.237
L422.424 215.056
L422.722 206.347
L422.796 208.173
L422.945 203.502
L423.168 194.902
L423.763 215.615
L423.838 215.166
L423.912 215.35
L424.061 216.364
L424.284 222.585
L424.582 230.666
L424.73 230.004
L424.805 230.274
L424.879 231.766
L424.954 231.611
L425.102 229.024
L425.4 208.11
L425.698 218.501
L425.772 218.196
L425.995 211.474
L426.07 213.04
L426.293 228.327
L426.367 228.155
L426.516 225.943
L426.665 225.171
L426.814 228.811
L427.037 220.402
L427.334 193.525
L427.632 178.175
L427.855 184.822
L428.376 218.524
L428.674 243.39
L429.046 251.949
L429.194 250.302
L429.343 246.396
L429.566 228.771
L429.938 199.107
L430.013 198.485
L430.162 190.697
L430.236 186.089
L430.31 187.518
L430.757 208.029
L430.831 207.741
L430.906 208.663
L431.352 225.851
L431.501 226.092
L431.575 225.672
L431.724 226.951
L431.873 222.7
L431.947 219.71
L432.022 219.935
L432.17 225.943
L432.245 225.828
L432.394 220.033
L432.691 202.407
L432.766 205.207
L432.84 204.539
L433.063 193.975
L433.435 211.26
L433.733 221.502
L433.807 221.945
L434.179 228.183
L434.254 227.244
L434.402 229.001
L434.477 228.27
L434.626 220.528
L434.7 222.055
L434.849 230.77
L434.923 230.182
L435.444 210.091
L435.518 210.932
L435.593 210.638
L435.965 198.819
L436.039 200.478
L436.709 225.58
L436.783 224.526
L436.858 223.737
L436.932 224.065
L437.081 228.477
L437.155 228.316
L437.304 221.709
L437.602 201.492
L437.75 206.451
L437.899 209.613
L437.974 209.832
L438.122 206.785
L438.197 207.735
L438.346 210.132
L438.494 207.92
L438.569 208.363
L438.792 218.512
L439.09 235.562
L439.238 240.619
L439.387 234.421
L439.834 203.3
L440.057 210.69
L440.28 222.976
L440.354 224.255
L440.578 219.762
L440.726 221.796
L441.322 204.285
L441.396 206.762
L441.47 206.307
L441.619 205.598
L441.768 211.848
L441.991 217.009
L442.066 217.02
L442.214 216.329
L442.438 220.079
L442.586 216.105
L442.884 199.758
L442.958 200.052
L443.033 200.023
L443.107 200.121
L443.256 203.191
L443.33 202.989
L443.479 207.493
L443.628 223.143
L443.851 241.495
L443.926 242.053
L444.074 245.417
L444.223 243.799
L444.595 227.049
L444.744 234.456
L444.818 233.552
L445.116 215.586
L445.488 181.355
L445.562 180.18
L445.637 180.761
L445.786 183.924
L445.86 183.618
L446.009 181.101
L446.158 192.258
L446.753 248.13
L446.902 250.452
L446.976 250.308
L447.199 235.85
L447.794 198.836
L448.092 209.244
L448.315 205.218
L448.91 223.765
L449.059 223.011
L449.134 223.621
L449.431 216.329
L449.506 216.381
L449.58 216.594
L449.729 221.79
L449.878 233.321
L449.878 233.321" style="fill:none;stroke:#808080;stroke-linecap:square;"/>
   </g>
  </g>
 </g>
 <defs>
  <clipPath id="p7ff5b81e1d">
   <rect height="345.6" width="446.4" x="72.0" y="43.2"/>
  </clipPath>
 </defs>
</svg>
