<?xml version="1.0" encoding="utf-8" standalone="no"?>
<!DOCTYPE svg PUBLIC "-//W3C//DTD SVG 1.1//EN"
  "http://www.w3.org/Graphics/SVG/1.1/DTD/svg11.dtd">
<!-- Created with matplotlib (http://matplotlib.org/) -->
<svg height="432pt" version="1.1" viewBox="0 0 576 432" width="576pt" xmlns="http://www.w3.org/2000/svg" xmlns:xlink="http://www.w3.org/1999/xlink">
 <defs>
  <style type="text/css">
*{stroke-linecap:butt;stroke-linejoin:round;}
  </style>
 </defs>
 <g id="figure_1">
  <g id="patch_1">
   <path d="
M0 432
L576 432
L576 0
L0 0
z
" style="fill:#ffffff;"/>
  </g>
  <g id="axes_1">
   <g id="line2d_1">
    <path clip-path="url(#p7ff5b81e1d)" d="
M72 269.119
L72.2976 250.913
L72.4464 244.775
L72.5952 252.641
L72.744 244.941
L72.9672 231.725
L73.0416 233.591
L73.116 233.218
L73.2648 222.546
L73.3392 223.541
L73.4136 222.781
L73.488 217.86
L73.5624 219.767
L73.7112 230.052
L73.9344 222.173
L74.0088 225.256
L74.232 240.061
L74.3064 242.052
L74.4552 266.534
L74.7528 314.738
L74.9016 308.974
L75.1248 292.108
L75.1992 292.191
L75.4968 258.613
L75.72 235.693
L75.7944 235.941
L76.0176 231.49
L76.2408 202.252
L76.3152 204.907
L76.464 196.889
L76.7616 231.822
L76.836 231.863
L76.9104 232.306
L77.208 267.833
L77.2824 265.649
L77.4312 256.401
L77.5056 257.756
L77.6544 270.087
L77.8032 262.096
L78.0264 274.358
L78.1008 272.409
L78.2496 270.28
L78.3984 275.644
L78.4728 273.391
L78.7704 239.55
L78.9192 245.134
L78.9936 241.222
L79.1424 225.546
L79.5888 265.124
L79.6632 264.308
L79.812 251.604
L80.0352 236.536
L80.2584 227.785
L80.3328 223.5
L80.4072 227.647
L80.7048 261.115
L81.0024 241.748
L81.0768 240.725
L81.2256 234.02
L81.5232 251.646
L81.672 257.521
L81.8952 274.234
L82.3416 250.222
L82.4904 255.862
L82.6392 243.78
L82.7136 247.927
L83.0112 271.635
L83.2344 282.653
L83.3088 280.109
L83.7552 217.763
L84.1272 250.705
L84.2016 252.475
L84.3504 248.162
L84.5736 224.91
L84.648 229.693
L84.9456 247.761
L85.0944 245.19
L85.2432 249.295
L85.392 253.014
L85.4664 253.263
L85.5408 251.023
L85.8384 229.748
L85.9128 228.836
L86.508 288.431
L86.5824 288.03
L86.9544 240.559
L87.0288 245.01
L87.1776 257.355
L87.252 257.286
L87.4008 263.852
L87.4752 263.41
L87.5496 262.663
L87.6984 249.765
L87.8472 238.969
L87.9216 239.01
L88.0704 231.532
L88.368 250.664
L88.4424 249.835
L88.8144 225.256
L88.8888 229.278
L89.2608 274.441
L89.7072 245.826
L89.7816 246.185
L89.9304 243.586
L90.0792 256.097
L90.228 275.45
L90.3024 274.897
L90.6744 235.057
L90.7488 232.817
L90.972 239.411
L91.1208 252.06
L91.1952 249.005
L91.4928 275.589
L91.5672 270.515
L91.9392 221.495
L92.0136 222.629
L92.7576 285.666
L93.5016 224.689
L93.576 223.196
L93.7992 252.489
L93.8736 250.083
L94.0968 229.071
L94.1712 230.73
L94.3944 255.572
L94.6176 284.367
L94.692 287.781
L94.9896 278.036
L95.5104 210.339
L95.5848 211.611
L96.18 261.046
L96.2544 262.414
L96.3288 261.129
L96.552 243.061
L96.7008 235.195
L96.924 251.397
L97.4448 287.146
L97.668 265.152
L97.9656 234.476
L98.1144 222.975
L98.1888 225.518
L98.3376 217.196
L98.412 220.528
L98.6352 235.872
L98.7096 238.692
L98.784 237.186
L98.8584 238.665
L99.0816 255.378
L99.2304 272.686
L99.3792 269.755
L99.4536 271.594
L99.6024 268.552
L99.7512 279.833
L99.8256 279.75
L100.346 240.586
L100.421 240.711
L100.644 259.622
L100.718 257.756
L100.793 259.581
L100.867 258.931
L101.462 208.39
L101.537 209.04
L101.834 240.296
L102.206 273.474
L102.281 273.391
L102.43 268.525
L102.578 259.774
L102.653 260.838
L102.802 257.313
L102.876 257.839
L102.95 260.769
L103.099 253.069
L103.174 253.111
L103.546 270.128
L103.62 266.064
L103.843 242.024
L104.141 254.549
L104.364 251.01
L104.438 251.784
L104.587 246.268
L104.959 213.256
L105.108 215.012
L105.182 213.865
L105.257 214.487
L106.001 285.611
L106.224 281.588
L106.298 283.206
L106.373 287.699
L106.447 286.427
L106.67 266.119
L106.894 280.109
L107.191 248.452
L107.34 234.877
L107.414 236.674
L107.638 253.097
L107.712 249.973
L108.01 221.247
L108.158 206.234
L108.233 208.75
L108.382 203.248
L108.828 247.54
L108.902 249.862
L109.2 277.773
L109.274 281.339
L109.423 276.1
L109.572 284.574
L109.646 284.491
L109.795 276.1
L109.944 253.622
L110.316 272.285
L110.465 279.625
L110.539 278.105
L110.688 258.668
L111.134 202.28
L111.209 203.69
L111.581 222.933
L111.655 222.117
L111.73 221.177
L111.878 217.638
L112.102 228.698
L112.25 240.144
L112.697 311.393
L112.771 308.752
L112.92 295.094
L112.994 297.237
L113.366 261.875
L113.441 261.198
L113.59 266.022
L114.036 238.181
L114.11 238.444
L114.185 236.785
L114.408 214.086
L114.482 216.698
L114.557 219.837
L114.706 206.51
L115.152 248.867
L115.226 252.102
L115.301 251.618
L115.45 249.005
L115.524 249.558
L115.673 256.622
L116.045 279.874
L116.119 281.436
L116.194 281.367
L116.342 264.142
L116.566 244.111
L116.64 242.342
L116.863 226.251
L117.384 255.226
L117.533 281.049
L117.607 279.999
L118.054 232.333
L118.128 235.568
L118.351 252.06
L118.5 248.093
L118.574 249.005
L118.872 275.478
L118.946 275.036
L119.244 244.982
L119.542 222.505
L119.616 218.772
L119.69 220.265
L119.839 228.324
L119.988 222.753
L120.062 225.518
L120.36 252.834
L120.434 253.636
L120.881 296.864
L120.955 294.03
L121.253 271.829
L121.327 274.234
L121.402 272.755
L121.997 209.869
L122.071 210.395
L122.369 221.938
L122.666 260.963
L122.815 258.212
L122.89 259.193
L123.038 262.843
L123.113 262.027
L123.336 269.755
L123.41 268.29
L123.559 264.156
L123.634 264.557
L123.708 265.235
L124.08 247.111
L124.452 220.472
L124.898 261.391
L124.973 259.788
L125.345 240.835
L125.419 245.107
L125.494 244.872
L125.642 232.085
L125.717 233.094
L125.866 258.793
L126.089 284.616
L126.833 233.743
L126.907 234.2
L127.13 264.599
L127.279 253.622
L127.354 255.419
L127.428 254.88
L127.502 252.765
L127.651 259.193
L127.726 256.719
L127.874 240.531
L128.023 213.298
L128.098 214.169
L128.47 244.969
L128.842 213.961
L129.586 299.2
L129.66 297.597
L130.255 239.854
L130.33 237.974
L130.478 242.259
L130.776 253.65
L130.999 230.509
L131.148 220.846
L131.222 223.32
L131.52 260.106
L131.743 285.501
L132.041 262.414
L132.115 263.023
L132.19 262.235
L132.71 225.062
L132.859 227.661
L132.934 230.274
L133.008 228.559
L133.157 235.831
L133.306 240.725
L133.38 242.19
L133.454 241.25
L133.603 231.366
L133.826 213.312
L133.901 216.159
L134.496 347.985
L134.57 347.57
L134.794 321.318
L135.017 234.421
L135.24 174.356
L135.314 167.941
L135.389 171.162
L136.058 265.967
L136.133 263.05
L136.356 253.733
L136.505 239.895
L136.951 199.944
L137.1 190.17
L137.174 191.096
L137.323 217.113
L137.918 374.804
L138.067 377.72
L138.216 362.542
L138.439 277.994
L138.737 189.617
L138.96 170.568
L139.258 155.873
L139.481 189.797
L139.853 245.3
L140.002 242.729
L140.076 243.42
L140.225 256.277
L140.522 312.596
L140.671 344.405
L140.746 342.289
L140.894 328.673
L141.564 200.358
L141.862 179.097
L141.936 182.249
L142.531 277.718
L142.606 275.768
L142.68 277.165
L142.903 293.394
L142.978 292.869
L143.126 276.487
L143.275 262.801
L143.35 261.903
L143.722 237.02
L143.796 238.07
L144.168 265.608
L144.317 254.355
L144.614 232.61
L144.763 228.933
L144.912 234.642
L145.061 226.348
L145.135 232.085
L145.21 231.048
L145.284 229.085
L145.358 229.582
L145.582 245.162
L145.879 267.474
L145.954 266.658
L146.028 268.815
L146.549 303.776
L146.698 294.5
L146.921 262.401
L147.293 199.018
L147.442 187.654
L147.516 190.543
L147.814 204.713
L148.037 223.265
L148.632 288.279
L148.706 287.533
L148.855 278.782
L148.93 278.976
L149.227 297.403
L149.376 304.633
L149.674 284.146
L149.971 234.988
L150.269 185.152
L150.343 186.769
L150.566 200.386
L150.715 191.829
L150.79 193.322
L151.013 211.597
L151.459 273.875
L152.203 347.073
L152.278 346.755
L152.426 320.586
L153.17 89.7527
L153.245 95.9182
L153.468 167.07
L154.063 376.172
L154.138 384.176
L154.212 382.766
L154.361 362.099
L155.105 187.06
L155.402 138.358
L155.477 138.068
L155.626 162.398
L156.221 326.06
L156.37 324.692
L156.518 330.041
L156.667 322.245
L156.816 295.91
L157.188 193.018
L157.262 193.211
L157.411 205.819
L157.783 244.858
L157.858 245.162
L157.932 246.171
L158.081 242.425
L158.304 225.878
L158.378 227.91
L158.899 272.202
L159.122 293.449
L159.271 275.782
L159.569 237.96
L159.643 236.356
L159.718 240.102
L160.015 283.855
L160.09 278.893
L160.313 231.062
L160.536 186.327
L160.61 187.157
L160.759 203.497
L161.206 258.696
L161.354 268.124
L161.429 266.935
L161.503 267.93
L161.726 281.339
L161.801 281.16
L162.024 257.175
L162.173 267.861
L162.396 284.823
L162.47 283.067
L162.619 287.616
L162.694 286.924
L162.917 282.114
L163.066 272.188
L163.289 246.89
L163.438 239.923
L163.586 215.192
L163.884 161.969
L163.958 161.278
L164.107 181.323
L164.33 218.786
L164.554 249.295
L164.926 303.057
L165 304.674
L165.074 303.499
L165.298 291.597
L165.595 256.429
L165.744 260.396
L165.893 262.94
L165.967 263.216
L166.042 259.968
L166.339 234.905
L166.414 236.799
L166.711 266.368
L166.786 262.553
L167.232 227.301
L167.306 224.855
L167.381 224.896
L167.53 221.8
L167.678 219.477
L167.827 222.242
L168.199 236.273
L168.422 260.479
L168.646 292.551
L168.72 292.73
L168.943 303.859
L169.092 292.578
L169.315 273.529
L169.613 248.134
L169.91 202.46
L169.985 204.837
L170.282 263.258
L170.357 260.59
L170.58 235.568
L170.729 233.633
L170.878 236.799
L171.25 276.335
L171.324 269.727
L171.622 197.165
L171.696 197.884
L172.142 258.903
L172.589 280.344
L172.812 296.021
L172.886 297.126
L172.961 295.827
L173.11 281.326
L173.482 206.483
L173.556 201.603
L173.63 202.142
L173.779 220.569
L174.226 319.286
L174.3 315.277
L174.523 255.696
L174.821 173.913
L175.044 167.623
L175.193 183.673
L175.416 234.131
L175.714 304.011
L175.788 305.061
L175.862 301.84
L175.937 302.504
L176.086 305.49
L176.234 312.72
L176.383 294.652
L176.83 219.104
L176.978 206.745
L177.127 217.03
L177.425 267.087
L177.499 266.866
L177.946 239.923
L178.169 252.005
L178.541 290.477
L178.615 290.021
L178.764 269.935
L179.21 184.281
L179.285 185.124
L179.508 213.45
L179.88 267.778
L180.252 296.048
L180.326 293.684
L180.698 248.839
L180.773 235.513
L180.847 235.734
L180.922 239.038
L180.996 238.402
L181.219 228.725
L181.294 231.656
L181.963 306.955
L182.038 305.753
L182.41 210.699
L182.633 171.135
L182.856 198.105
L183.526 298.965
L183.674 290.643
L183.823 292.648
L184.865 222.643
L185.014 239.453
L185.162 248.784
L185.311 241.969
L185.534 252.986
L185.683 264.806
L185.758 261.391
L186.055 213.381
L186.13 213.975
L186.502 239.508
L186.799 251.535
L186.948 257.479
L187.394 305.559
L187.692 318.042
L187.766 312.651
L188.436 177.134
L188.585 187.032
L188.659 185.166
L188.734 178.959
L188.808 181.046
L189.18 228.145
L189.552 294.79
L189.626 295.385
L189.701 294.168
L189.775 290.864
L189.924 301.73
L189.998 306.181
L190.073 305.462
L190.222 293.38
L190.891 222.159
L191.189 246.558
L191.263 244.706
L191.71 222.933
L191.784 223.763
L191.933 230.329
L192.156 239.356
L192.305 239.55
L192.454 247.001
L192.677 259.456
L193.346 275.285
L193.57 257.327
L193.718 250.194
L193.793 250.07
L193.867 250.139
L193.942 247.927
L194.09 239.384
L194.165 239.881
L194.314 247.802
L194.388 243.835
L194.462 244.651
L194.611 254.549
L194.686 254.507
L194.76 254.949
L194.834 254.244
L194.983 237.379
L195.058 238.817
L195.132 240.808
L195.281 237.697
L195.355 238.305
L195.504 249.724
L196.025 224.302
L196.099 222.532
L196.174 227.053
L196.546 279.155
L196.694 286.053
L196.769 285.901
L196.843 287.298
L196.918 287.035
L197.066 278.298
L197.587 238.222
L197.662 235.969
L197.81 248.977
L197.885 247.982
L198.034 236.481
L198.182 227.578
L198.48 244.111
L198.703 242.84
L198.778 245.107
L198.926 261.129
L199.001 261.032
L199.224 245.715
L199.373 246.005
L199.522 250.498
L199.67 246.572
L199.745 247.498
L199.819 247.858
L199.894 247.07
L200.042 252.392
L200.191 265.746
L200.34 276.39
L200.712 255.157
L201.01 213.768
L201.158 221.827
L201.53 248.742
L201.679 252.71
L201.902 261.903
L202.126 252.503
L202.423 266.755
L202.795 292.177
L202.87 290.09
L203.465 207.091
L203.539 204.533
L203.614 204.685
L203.837 223.265
L204.209 262.511
L204.358 267.806
L204.581 258.82
L204.953 288.957
L205.027 284.436
L205.25 257.161
L205.399 250.125
L205.474 252.254
L205.622 262.456
L205.994 211.929
L206.069 210.243
L206.218 218.081
L206.366 224.468
L206.441 225.366
L206.59 235.997
L206.813 255.53
L206.962 253.899
L207.11 260.991
L207.482 283.897
L207.631 274.994
L207.78 268.787
L207.929 276.708
L208.375 262.221
L208.747 238.209
L208.822 240.517
L208.896 242.771
L209.64 203.925
L210.012 223.624
L210.086 224.744
L210.235 241.955
L210.607 292.896
L211.054 283.925
L211.351 274.939
L211.723 247.084
L211.798 244.084
L211.872 245.107
L212.021 248.037
L212.393 233.384
L212.467 233.661
L212.542 234.393
L212.69 226.762
L212.839 228.781
L212.988 223.099
L213.36 243.683
L213.509 250.415
L213.881 275.616
L213.955 272.824
L214.178 253.014
L214.253 249.862
L214.327 250.636
L214.476 254.88
L214.55 252.268
L214.848 228.214
L214.922 230.619
L215.294 265.248
L215.369 266.465
L215.518 263.161
L215.592 265.235
L215.815 278.589
L215.89 280.704
L215.964 280.192
L216.113 270.322
L216.857 196.585
L216.931 196.253
L217.303 247.761
L217.675 301.218
L217.75 302.615
L217.898 296.117
L218.047 283.123
L218.568 217.141
L218.791 232.057
L218.94 229.002
L219.014 229.016
L219.535 260.23
L219.833 266.437
L220.279 223.362
L220.354 227.606
L220.577 243.531
L220.726 241.181
L220.8 244.803
L220.874 243.31
L220.949 246.171
L221.246 272.824
L221.47 282.902
L221.544 284.077
L221.618 287.464
L221.693 287.132
L222.66 209.883
L222.734 208.266
L222.883 215.053
L223.032 232.181
L223.255 268.787
L223.33 272.299
L223.702 249.724
L223.85 236.107
L224.074 240.697
L224.371 251.549
L224.669 241.07
L225.115 271.801
L225.19 271.193
L225.487 259.857
L225.785 268.165
L225.859 271.013
L225.934 270.349
L226.157 251.411
L226.603 206.593
L226.678 206.109
L226.975 225.781
L227.05 227.827
L227.496 269.631
L227.719 290.325
L227.794 289.357
L228.091 263.686
L228.166 263.147
L228.314 255.088
L228.389 257.452
L228.612 271.939
L228.761 277.22
L228.835 276.183
L228.984 262.014
L229.207 228.449
L229.356 241.208
L229.43 241.125
L229.654 230.412
L229.728 231.767
L230.026 208.736
L230.695 255.102
L231.216 289.689
L231.29 290.505
L231.439 286.192
L231.886 245.204
L232.034 242.577
L232.183 246.351
L232.258 244.899
L232.332 243.088
L232.406 243.697
L232.63 272.492
L232.704 269.617
L233.225 228.739
L233.299 228.767
L233.374 231.711
L233.448 230.951
L233.671 217.265
L233.969 246.088
L234.043 244.568
L234.192 252.904
L234.341 258.405
L234.49 254.023
L234.713 271.87
L234.936 253.235
L235.01 255.35
L235.234 269.561
L235.606 245.3
L235.68 245.107
L235.829 251.77
L235.903 256.429
L235.978 256.042
L236.275 240.379
L236.647 260.7
L236.722 261.156
L236.945 241.25
L237.019 242.522
L237.094 243.144
L237.168 244.72
L237.317 260.783
L237.466 245.853
L237.763 222.104
L237.912 244.844
L238.061 265.898
L238.135 265.027
L238.21 261.571
L238.284 262.511
L238.358 263.078
L238.433 262.511
L238.954 233.702
L239.028 237.31
L239.102 240.586
L239.177 240.296
L239.251 241.471
L239.4 247.941
L239.549 241.582
L239.623 243.351
L239.846 255.143
L240.07 237.089
L240.144 241.513
L240.442 288.611
L240.739 277.801
L241.037 256.18
L241.334 213.325
L241.632 238.043
L241.706 241.996
L241.781 241.36
L241.855 241.872
L242.302 269.147
L242.525 289.91
L242.599 288.583
L242.822 261.516
L243.194 203.87
L243.269 203.137
L243.343 205.916
L243.418 205.46
L243.566 209.648
L243.864 232.306
L244.013 235.223
L244.162 247.872
L244.459 300.873
L244.534 303.444
L244.608 300.582
L244.682 300.873
L244.831 307.011
L244.906 306.72
L245.129 294.624
L245.501 214.57
L245.575 216.132
L245.65 217.003
L245.873 212.634
L246.319 261.834
L246.766 241.54
L246.989 227.979
L247.138 222.629
L247.212 224.191
L247.882 276.142
L248.254 283.938
L248.328 283.33
L248.402 280.538
L248.7 246.406
L248.774 247.153
L248.923 249.102
L248.998 249.489
L249.221 232.79
L249.444 209.316
L249.593 209.69
L249.742 207.049
L249.89 221.329
L250.56 305.338
L250.634 303.61
L251.304 228.546
L251.453 212.413
L251.676 230.619
L251.974 265.276
L252.197 281.492
L252.643 237.393
L252.792 239.494
L253.015 233.826
L253.09 229.458
L253.164 230.218
L253.462 250.761
L253.536 247.485
L253.759 257.12
L253.834 255.157
L254.057 234.006
L254.131 234.034
L254.354 246.185
L254.429 245.978
L254.503 247.609
L254.652 244.208
L254.801 247.111
L254.875 246.71
L254.95 246.005
L255.098 241.153
L255.173 242.508
L255.619 260.41
L255.694 263.811
L255.991 296.518
L256.066 295.633
L256.214 288.058
L256.289 289.344
L256.363 288.887
L256.735 247.706
L256.81 249.89
L256.884 251.756
L257.107 221.647
L257.182 223.265
L257.256 226.417
L257.405 220.445
L257.554 205.888
L257.702 187.447
L257.777 192.299
L258 222.712
L258.074 219.546
L258.149 220.555
L258.298 239.881
L258.521 266.423
L258.595 267.571
L258.744 263.396
L258.893 280.524
L259.042 297.749
L259.116 297.209
L259.265 292.938
L259.488 310.135
L259.562 304.481
L260.009 235.084
L260.306 201.893
L260.604 230.177
L260.753 220.127
L260.902 230.329
L261.199 246.945
L261.348 256.677
L261.646 300.486
L262.241 219.878
L262.39 206.289
L262.613 225.103
L263.059 280.524
L263.134 278.63
L263.357 259.705
L263.431 261.35
L263.58 272.16
L263.654 276.404
L264.324 211.058
L264.398 217.625
L264.622 264.447
L264.696 265.677
L264.994 227.315
L265.068 231.656
L265.366 246.904
L265.44 249.254
L265.663 277.026
L265.886 266.396
L265.961 267.363
L266.035 267.101
L266.258 260.216
L266.482 239.467
L266.779 263.465
L266.854 258.378
L266.928 256.387
L267.151 294.514
L267.226 287.795
L267.523 241.872
L267.746 237.517
L267.97 221.44
L268.118 230.039
L268.193 235.706
L268.342 224.592
L268.49 207.547
L268.565 208.985
L268.788 231.78
L268.862 228.947
L269.16 245.535
L269.383 269.52
L269.532 261.073
L269.606 266.271
L269.83 291.168
L269.978 281.533
L270.127 294.514
L270.202 292.772
L270.499 259.221
L270.574 260.921
L270.648 259
L270.946 244.25
L271.094 235.098
L271.169 236.439
L271.318 247.388
L271.466 228.988
L271.615 212.551
L271.764 210.16
L271.913 204.99
L272.21 237.835
L272.359 250.982
L272.582 271.317
L272.731 291.721
L272.88 310.315
L273.178 275.243
L273.326 261.516
L273.401 254.936
L273.475 256.138
L273.55 259.774
L273.624 256.622
L274.145 202.709
L274.219 206.095
L274.368 228.96
L274.442 225.048
L274.591 213.63
L274.963 259.097
L275.038 258.889
L275.335 276.39
L275.41 275.174
L275.633 259.885
L275.707 260.631
L275.856 268.165
L275.93 273.902
L276.005 272.022
L276.154 262.995
L276.228 265.442
L276.377 279.501
L276.451 278.824
L276.6 281.492
L276.749 264.723
L276.972 242.688
L277.27 208.556
L277.344 211.667
L277.418 212.772
L277.567 204.644
L277.716 215.634
L277.865 230.675
L278.014 227.288
L278.311 264.543
L278.386 265.221
L278.758 245.867
L278.832 250.47
L279.204 293.767
L279.278 293.836
L279.427 279.902
L279.725 244.001
L279.799 241.996
L279.948 245.715
L280.097 261.447
L280.246 250.581
L280.394 268.317
L280.543 282.929
L280.618 278.561
L281.362 181.489
L281.436 181.461
L281.957 269.617
L282.031 266.064
L282.403 198.921
L282.552 218.62
L283.073 348.994
L283.147 345.123
L284.263 169.393
L284.338 175.461
L284.784 259.221
L284.933 249.655
L285.156 242.425
L285.305 244.443
L285.454 242.715
L285.826 273.391
L285.9 274.04
L285.974 271.732
L286.272 246.945
L286.718 265.207
L286.867 254.438
L287.09 233.909
L287.165 239.287
L287.388 272.603
L287.462 273.169
L287.909 250.401
L288.281 208.128
L288.355 209.759
L288.653 236.881
L288.727 234.366
L288.876 224.412
L289.025 238.858
L289.397 294.5
L289.471 293.283
L289.62 281.934
L289.843 248.881
L289.918 250.222
L289.992 253.318
L290.215 279.708
L290.29 276.639
L290.364 278.105
L290.513 288.113
L290.662 271.552
L291.108 199.308
L291.406 185.843
L291.852 232.776
L292.224 271.994
L292.298 273.557
L292.819 317.738
L292.968 297.749
L293.638 204.506
L293.786 210.989
L293.861 217.666
L293.935 215.758
L294.084 210.021
L294.53 256.788
L294.605 255.82
L294.754 252.088
L294.828 254.079
L295.051 268.11
L295.2 261.723
L295.349 273.501
L295.423 269.672
L295.646 243.683
L295.721 244.25
L295.87 239.674
L296.018 232.168
L296.242 251.715
L296.316 247.761
L296.39 249.696
L296.614 282.459
L296.688 282.293
L296.911 276.363
L297.283 255.309
L297.358 256.788
L297.432 259.581
L297.506 256.277
L297.953 207.063
L298.102 199.087
L298.325 209.648
L298.548 250.318
L298.846 283.455
L299.069 294.818
L299.366 285.183
L299.738 229.928
L299.813 230.979
L300.036 221.316
L300.11 218.565
L300.259 225.67
L300.557 249.793
L300.706 263.617
L300.929 284.795
L301.003 283.496
L301.152 284.948
L301.301 277.566
L301.747 215.966
L301.896 200.206
L302.119 217.376
L302.417 253.097
L302.491 251.687
L302.566 249.848
L302.938 262.829
L303.161 279.971
L303.458 260.908
L303.533 260.769
L303.83 256.954
L303.905 254.742
L304.128 238.347
L304.351 260.756
L304.5 263.382
L304.574 269.852
L304.649 263.396
L305.021 198.575
L305.095 196.598
L305.244 206.8
L305.318 207.464
L305.765 271.746
L305.914 263.465
L305.988 267.557
L306.062 267.433
L306.211 263.493
L306.286 267.267
L306.583 297.804
L306.658 294.624
L306.732 294.901
L306.806 293.629
L307.253 256.36
L307.699 191.912
L307.774 196.197
L308.22 245.743
L308.294 246.296
L308.592 232.665
L308.815 201.243
L308.964 222.74
L309.262 264.557
L309.41 278.326
L309.485 277.096
L309.559 275.146
L309.634 278.658
L309.857 314.144
L309.931 309.637
L310.154 285.583
L310.452 272.188
L310.526 274.082
L310.675 279.432
L310.824 263.424
L311.419 181.226
L312.089 246.019
L312.163 246.752
L312.461 237.199
L312.535 234.725
L312.833 245.508
L313.056 279.072
L313.205 301.785
L313.502 290.242
L313.651 272.312
L313.726 275.368
L313.949 302.933
L314.098 286.731
L314.767 191.691
L314.99 176.747
L315.065 181.613
L315.437 264.695
L315.734 285.196
L315.809 283.524
L315.958 266.479
L316.33 225.325
L316.627 244.692
L316.776 255.157
L316.85 256.525
L317.371 306.389
L317.446 307.246
L317.594 292.316
L318.264 192.354
L318.338 191.401
L318.562 202.474
L318.859 249.406
L318.934 249.171
L319.008 252.572
L319.231 268.552
L319.38 281.657
L319.454 281.339
L319.529 280.427
L319.678 289.675
L319.752 288.887
L319.975 277.925
L320.273 273.391
L321.166 197.87
L321.24 197.483
L321.314 198.783
L321.538 220.389
L321.835 249.448
L321.91 250.36
L322.058 270.031
L322.207 256.622
L322.282 261.931
L322.43 277.953
L322.505 276.529
L322.654 285.583
L322.802 273.681
L323.026 305.379
L323.1 301.066
L323.174 295.122
L323.249 296.491
L323.323 297.223
L323.472 287.104
L323.695 251.646
L323.993 208.363
L324.216 193.861
L324.29 195.368
L324.737 229.79
L324.886 226.914
L325.034 224.703
L325.258 257.645
L325.332 256.373
L325.481 258.958
L325.555 260.092
L325.63 257.313
L325.853 265.967
L326.002 272.782
L326.076 271.621
L326.299 252.516
L326.671 294.569
L326.746 295.564
L326.894 290.574
L327.043 293.435
L327.118 290.339
L327.266 263.023
L327.564 207.284
L327.787 220.707
L328.085 199.045
L328.159 199.958
L328.457 222.836
L328.606 235.928
L328.754 232.776
L328.829 230.675
L328.903 232.942
L329.424 307.785
L329.498 304.633
L329.796 264.612
L329.87 269.575
L329.945 269.202
L330.019 268.898
L330.094 270.598
L330.242 269.216
L330.391 272.119
L330.54 281.187
L330.614 280.593
L330.689 275.934
L331.21 205.169
L331.284 204.105
L331.433 213.754
L331.879 270.045
L331.954 266.423
L332.251 224.44
L332.326 225.573
L332.698 242.757
L332.995 272.561
L333.07 276.805
L333.144 276.791
L333.293 253.166
L333.442 225.67
L333.516 225.808
L333.962 265.317
L334.037 268.055
L334.26 297.126
L334.334 299.822
L334.409 298.606
L334.781 269.603
L334.855 269.713
L334.93 267.419
L335.078 248.936
L335.376 204.837
L335.599 194.884
L336.418 250.526
L336.715 287.298
L337.013 275.229
L337.162 280.579
L337.236 279.681
L337.757 262.58
L337.831 266.396
L337.906 262.456
L338.203 229.569
L338.352 241.43
L338.575 256.249
L338.724 243.144
L339.022 225.518
L339.096 226.679
L339.245 232.472
L339.319 231.048
L339.394 232.61
L339.691 262.594
L339.766 259.304
L339.914 243.282
L339.989 245.687
L340.212 266.575
L340.361 259.981
L340.51 265.027
L340.584 262.096
L340.658 262.636
L340.733 263.175
L340.807 262.788
L340.956 258.903
L341.03 256.484
L341.477 213.021
L341.551 214.5
L341.923 250.346
L341.998 249.254
L342.072 246.406
L342.146 247.402
L342.221 249.24
L342.667 294.085
L342.742 291.998
L342.89 276.543
L342.965 278.436
L343.039 277.04
L343.188 265.013
L343.486 228.988
L343.56 229.569
L343.783 254.203
L343.932 268.718
L344.081 250.277
L344.378 221.62
L344.527 224.067
L344.676 219.325
L344.899 237.199
L345.122 258.834
L345.197 257.452
L345.42 268.124
L345.494 265.774
L345.718 247.429
L345.792 248.411
L345.941 257.424
L346.015 263.313
L346.09 261.806
L346.313 247.775
L346.61 259.885
L346.834 264.792
L346.982 259.719
L347.057 255.516
L347.131 256.014
L347.28 264.377
L347.354 263.479
L347.652 230.744
L347.95 248.286
L348.024 245.978
L348.173 235.941
L348.247 236.564
L348.47 245.411
L348.619 246.434
L348.768 239.937
L348.842 240.434
L349.438 270.087
L349.586 261.474
L349.735 248.425
L349.884 253.069
L350.107 249.765
L350.182 249.973
L350.256 249.71
L350.33 252.254
L350.554 267.211
L350.702 254.369
L351.074 212.192
L351.372 231.49
L351.595 274.455
L351.818 285.058
L352.042 254.867
L352.116 255.807
L352.265 262.47
L352.637 242.618
L352.711 241.844
L352.86 249.641
L352.934 248.964
L353.009 247.07
L353.158 251.203
L353.306 250.747
L353.455 246.296
L353.753 229.016
L353.902 235.236
L354.422 267.668
L354.497 266.755
L354.869 247.872
L355.018 251.189
L355.315 233.73
L355.39 236.273
L355.613 247.623
L355.836 276.681
L355.91 270.861
L356.059 245.922
L356.208 253.083
L356.431 278.575
L356.803 228.089
L357.101 267.073
L357.175 265
L357.473 242.328
L357.547 235.859
L357.622 237.241
L357.919 253.609
L358.217 230.813
L358.291 231.85
L358.663 261.115
L358.812 238.264
L358.961 216.74
L359.63 286.579
L359.705 284.063
L359.928 270.833
L360.077 266.423
L360.374 242.107
L360.523 231.31
L360.672 235.969
L360.746 234.006
L360.821 234.186
L361.044 249.392
L361.416 225.117
L361.565 241.665
L361.788 260.783
L361.937 264.723
L362.086 261.309
L362.16 261.903
L362.383 268.801
L362.458 269.949
L362.681 275.022
L362.755 273.087
L363.425 220.749
L363.574 212.786
L363.648 214.749
L364.02 260.852
L364.094 265.248
L364.169 264.142
L364.541 233.301
L364.615 235.306
L364.913 253.374
L365.136 246.448
L365.21 251.037
L365.434 280.69
L365.508 279.459
L365.954 237.835
L366.103 263.368
L366.252 283.69
L366.624 244.222
L366.698 247.623
L366.773 247.429
L366.847 245.757
L366.996 248.494
L367.07 247.139
L367.368 210.229
L367.442 213.229
L367.74 239.121
L367.814 239.688
L368.038 232.071
L368.112 236.356
L368.41 267.723
L368.484 266.893
L368.707 260.465
L368.782 261.06
L369.079 289.136
L369.154 283.855
L369.6 254.576
L369.674 255.088
L369.749 253.456
L370.046 223.03
L370.121 226.583
L370.27 238.236
L370.344 236.923
L370.418 234.034
L370.493 236.646
L370.642 249.185
L370.716 247.65
L370.865 242.978
L371.014 253.208
L371.088 252.876
L371.237 243.489
L371.46 225.56
L371.609 224.177
L372.13 259.511
L372.204 260.534
L372.576 289.316
L373.171 250.664
L373.246 253.221
L373.32 252.959
L373.469 241.43
L373.618 231.241
L373.692 232.347
L373.766 230.716
L373.841 232.596
L374.064 246.365
L374.138 246.185
L374.287 254.286
L374.362 252.53
L374.585 229.071
L374.882 250.913
L375.106 243.6
L375.18 247.872
L375.403 293.435
L375.478 291.915
L375.85 232.873
L375.998 249.724
L376.073 249.323
L376.445 237.808
L376.519 240.158
L376.742 264.93
L377.04 226.113
L377.114 228.407
L377.338 265.608
L377.486 280.123
L377.635 268.11
L378.007 238.706
L378.23 259.249
L378.305 257.23
L378.602 223.873
L378.9 261.336
L378.974 256.429
L379.198 235.485
L379.272 238.637
L379.644 284.547
L379.793 262.221
L379.942 229.859
L380.016 231.877
L380.165 256.014
L380.239 255.71
L380.314 255.931
L380.388 254.231
L380.611 237.352
L380.686 238.153
L380.76 236.909
L380.909 246.061
L381.132 257.272
L381.281 247.664
L381.355 247.83
L381.802 263.742
L381.95 254.369
L382.174 237.642
L382.471 253.636
L382.62 263.603
L382.694 262
L382.769 262.179
L382.843 261.709
L383.141 244.637
L383.215 246.282
L383.513 242.356
L383.587 242.549
L383.736 247.595
L383.885 238.402
L383.959 241.181
L384.257 261.613
L384.331 262.691
L384.48 260.991
L384.554 264.046
L384.629 260.756
L384.852 237.697
L385.075 245.826
L385.298 250.733
L385.447 242.19
L385.596 233.329
L385.67 237.393
L385.968 268.428
L386.117 259.719
L386.191 259.746
L386.563 281.547
L386.638 280.745
L386.786 261.115
L387.084 212.689
L387.158 211.832
L387.977 270.488
L388.349 235.582
L388.423 238.333
L388.87 267.502
L388.944 266.423
L389.242 247.996
L389.39 234.794
L389.465 235.25
L389.837 255.337
L390.06 270.377
L390.134 273.792
L390.432 257.521
L390.506 257.355
L390.655 254.12
L390.878 231.532
L391.25 250.761
L391.474 271.649
L391.548 269.686
L391.994 238.236
L392.069 239.743
L392.143 238.195
L392.292 244.623
L392.59 234.241
L392.664 236.107
L392.738 237.752
L392.813 236.868
L392.887 237.711
L393.11 252.544
L393.334 279.128
L393.408 275.575
L393.706 248.729
L393.78 247.996
L393.854 248.065
L393.929 249.268
L394.152 234.186
L394.226 237.849
L394.598 268.179
L394.673 263.313
L394.896 252.433
L394.97 255.226
L395.194 268.912
L395.268 266.009
L395.566 240.946
L395.64 241.706
L395.714 241.554
L395.938 238.609
L396.086 232.181
L396.235 243.019
L396.533 271.538
L396.979 240.02
L397.054 241.748
L397.202 248.037
L397.351 243.78
L397.5 255.406
L397.574 254.687
L397.723 248.162
L397.872 236.315
L397.946 236.951
L398.393 248.452
L398.467 248.466
L398.542 249.461
L398.988 273.584
L399.211 265.207
L399.286 267.059
L399.732 250.056
L399.881 263.714
L399.955 262.995
L400.476 235.748
L400.55 236.674
L400.625 233.647
L400.997 201.534
L401.369 251.59
L401.815 277.662
L402.038 303.679
L402.113 297.956
L402.485 243.807
L402.559 239.577
L402.857 257.078
L402.931 255.516
L403.229 225.864
L403.378 245.369
L403.452 242.95
L403.526 238.762
L403.601 239.867
L403.675 239.052
L403.75 239.812
L403.898 243.863
L403.973 243.503
L404.047 245.01
L404.27 268.538
L404.345 268.193
L404.419 265.511
L404.494 266.783
L404.642 272.658
L404.717 268.373
L405.014 225.878
L405.089 226.32
L405.163 226.735
L405.461 245.812
L405.535 243.503
L405.61 242.826
L405.833 255.157
L406.056 264.225
L406.279 257.935
L406.577 261.336
L406.651 259.207
L406.949 231.836
L407.098 232.112
L407.172 231.559
L407.395 244.512
L407.618 275.99
L407.693 275.34
L407.842 268.428
L408.065 280.026
L408.214 272.036
L408.66 231.836
L408.883 247.623
L409.404 208.75
L409.478 210.063
L409.776 227.467
L409.85 223.403
L409.925 227.011
L410.52 294.832
L410.818 302.96
L410.892 299.67
L411.785 204.962
L411.859 206.275
L412.082 218.855
L412.157 216.657
L412.231 219.546
L412.901 274.414
L412.975 276.584
L413.05 275.727
L413.198 277.718
L413.273 275.285
L413.496 254.383
L413.57 255.903
L413.645 259.733
L413.719 259.193
L414.091 243.254
L414.166 242.978
L414.24 244.996
L414.314 242.867
L414.538 222.615
L414.91 240.503
L414.984 238.997
L415.207 227.937
L415.282 229.734
L415.654 275.948
L415.802 288.293
L415.877 286.551
L415.951 287.671
L416.1 293.297
L416.174 291.804
L416.472 251.065
L416.546 240.075
L416.621 240.42
L416.695 242.135
L416.844 239.218
L416.993 243.531
L417.067 243.323
L417.439 215.399
L418.034 249.752
L418.332 275.658
L418.406 274.51
L418.63 260.009
L418.853 244.844
L418.927 245.204
L419.15 262.926
L419.225 259.124
L419.448 244.291
L419.522 243.973
L419.82 234.379
L419.969 241.36
L420.415 276.39
L420.49 275.326
L420.787 267.557
L421.159 235.43
L421.234 232.195
L421.457 247.222
L421.606 254.853
L421.68 253.719
L421.903 245.992
L422.052 251.176
L422.201 246.24
L422.35 242.038
L422.498 247.457
L422.573 246.683
L422.722 235.665
L422.87 221.938
L422.945 223.528
L423.242 245.204
L423.317 245.314
L423.838 264.986
L423.986 269.064
L424.21 263.05
L424.284 263.092
L424.358 262.387
L424.582 255.558
L424.73 266.81
L424.879 284.27
L424.954 283.828
L425.251 255.558
L425.4 231.393
L425.623 194.456
L426.516 279.003
L426.665 277.87
L426.814 281.257
L427.037 272.022
L427.186 257.161
L427.409 242.757
L427.483 241.333
L427.93 214.818
L428.004 215.579
L428.078 216.367
L428.302 237.932
L428.599 290.408
L428.674 285.639
L428.897 267.82
L429.046 266.23
L429.194 276.708
L429.269 274.248
L429.715 238.803
L429.79 237.849
L430.013 238.914
L430.459 259.774
L430.608 250.788
L430.757 245.051
L430.906 248.964
L430.98 248.286
L431.501 222.38
L431.575 222.477
L431.798 239.785
L431.873 237.766
L431.947 236.978
L432.319 265.801
L432.691 254.203
L432.989 265.359
L433.361 292.8
L433.51 272.008
L433.658 244.416
L433.733 244.554
L433.882 250.954
L433.956 250.07
L434.179 217.721
L434.254 218.385
L434.551 262.179
L434.7 247.733
L434.849 233.412
L434.923 233.37
L434.998 231.905
L435.593 268.87
L436.114 244.125
L436.188 244.858
L436.262 245.411
L436.411 239.384
L436.56 242.605
L436.709 238.043
L436.783 238.609
L437.527 280.289
L437.602 280.911
L437.75 271.511
L438.122 244.001
L438.42 226.237
L438.494 226.666
L438.643 238.167
L438.792 249.143
L439.015 239.646
L439.09 241.347
L439.313 261.903
L439.462 270.474
L439.536 271.206
L439.61 271.179
L439.759 264.364
L440.354 223.859
L440.429 222.491
L440.652 239.605
L440.95 255.102
L441.098 263.894
L441.322 282.114
L441.396 280.068
L441.768 258.281
L441.842 257.355
L441.991 251.217
L442.066 251.715
L442.14 257.659
L442.214 255.834
L442.438 239.536
L442.512 238.236
L442.661 243.697
L442.735 243.116
L443.107 225.739
L443.182 217.155
L443.256 220.68
L443.479 239.798
L443.628 262.636
L443.702 261.004
L443.926 243.766
L444.074 247.236
L444.446 271.428
L444.67 284.533
L444.818 272.63
L445.19 238.181
L445.265 238.444
L445.414 259.456
L445.562 274.483
L445.637 270.557
L445.86 249.862
L445.934 246.683
L446.381 209.883
L446.455 212.233
L446.753 257.493
L446.902 281.519
L447.05 260.756
L447.274 241.388
L447.422 248.452
L447.72 259.525
L447.869 257.452
L447.943 257.562
L448.092 265.193
L448.166 269.299
L448.241 268.649
L448.39 258.793
L448.613 242.605
L448.91 266.921
L449.059 260.645
L449.357 218.219
L449.431 219.242
L449.729 249.406
L449.878 240.559
L449.878 240.559" style="fill:none;stroke:#808080;stroke-linecap:square;"/>
   </g>
  </g>
 </g>
 <defs>
  <clipPath id="p7ff5b81e1d">
   <rect height="345.6" width="446.4" x="72.0" y="43.2"/>
  </clipPath>
 </defs>
</svg>
