<?xml version="1.0" encoding="utf-8" standalone="no"?>
<!DOCTYPE svg PUBLIC "-//W3C//DTD SVG 1.1//EN"
  "http://www.w3.org/Graphics/SVG/1.1/DTD/svg11.dtd">
<!-- Created with matplotlib (http://matplotlib.org/) -->
<svg height="432pt" version="1.1" viewBox="0 0 576 432" width="576pt" xmlns="http://www.w3.org/2000/svg" xmlns:xlink="http://www.w3.org/1999/xlink">
 <defs>
  <style type="text/css">
*{stroke-linecap:butt;stroke-linejoin:round;}
  </style>
 </defs>
 <g id="figure_1">
  <g id="patch_1">
   <path d="
M0 432
L576 432
L576 0
L0 0
z
" style="fill:#ffffff;"/>
  </g>
  <g id="axes_1">
   <g id="line2d_1">
    <path clip-path="url(#p7ff5b81e1d)" d="
M72 285.775
L72.0744 247.458
L72.2232 212.503
L72.8184 100.03
L72.8928 100.647
L72.9672 104.29
L73.1904 171.584
L73.4136 227.59
L73.5624 244.234
L73.6368 241.207
L73.86 220.165
L73.9344 221.088
L74.1576 251.022
L74.232 246.608
L74.5296 163.264
L74.7528 112.042
L74.976 156.629
L75.0504 151.939
L75.2736 108.961
L75.348 106.27
L75.4968 135.972
L75.9432 315.862
L76.0176 314.514
L76.3896 236.379
L76.464 239.331
L76.5384 235.297
L76.6872 207.714
L76.9104 173.474
L77.0592 174.25
L77.208 153.489
L77.4312 105.915
L77.58 124.76
L78.1752 228.148
L78.3984 204.88
L78.4728 205.161
L78.5472 208.35
L78.6216 207.343
L78.696 200.668
L79.068 126.28
L79.1424 130.245
L79.44 182.425
L79.8864 258.996
L79.9608 259.356
L80.0352 257.905
L80.4816 224.559
L80.7792 194.739
L81.1512 149.727
L81.2256 150.68
L81.3744 161.507
L81.672 190.873
L81.9696 195.776
L82.1928 202.742
L82.2672 202.895
L82.788 179.093
L83.16 111.316
L83.2344 113.903
L83.3832 136.397
L83.9784 264.505
L84.1272 252.044
L84.276 238.428
L84.3504 239.247
L84.648 257.026
L84.7968 235.761
L85.392 107.198
L85.4664 107.534
L85.6152 117.606
L85.8384 155.424
L86.2104 224.164
L86.5824 237.954
L86.6568 236.097
L86.88 205.112
L87.1776 160.974
L87.252 163.738
L87.996 225.216
L88.0704 223.814
L88.2192 209.076
L88.6656 159.009
L88.74 159.063
L88.8144 158.347
L88.8888 158.796
L88.9632 158.431
L89.0376 158.554
L89.2608 165.155
L89.6328 175
L89.7816 185.487
L90.0792 207.753
L90.228 219.104
L90.7488 292.756
L90.8232 282.768
L91.0464 208.444
L91.344 99.5901
L91.4184 92.1252
L91.4928 93.2064
L91.6416 115.117
L92.0136 184.109
L92.3856 203.517
L92.5344 205.709
L92.6832 198.738
L92.9064 184.262
L92.9808 184.894
L93.204 200.757
L93.4272 210.656
L93.5016 209.481
L93.7992 182.554
L93.8736 182.816
L94.0224 207.817
L94.32 262.165
L94.4688 245.572
L94.692 184.223
L94.9896 73.2455
L95.064 77.5705
L95.2128 118.687
L95.5104 200.945
L95.6592 207.793
L95.7336 207.669
L95.808 207.328
L95.9568 204.845
L96.0312 205.689
L96.18 223.345
L96.4776 272.109
L96.6264 237.657
L96.9984 151.277
L97.2216 138.993
L97.4448 163.748
L97.8168 254.503
L97.8912 254.256
L98.1144 212.611
L98.5608 79.254
L98.784 137.695
L99.0816 212.182
L99.156 213.574
L99.2304 212.67
L99.3792 221.389
L99.8256 280.275
L99.9744 261.894
L100.867 113.251
L100.942 106.497
L101.016 106.838
L101.165 123.338
L101.388 175.632
L101.686 250.104
L101.76 254.389
L101.834 250.543
L101.983 217.326
L102.355 127.48
L102.43 133.666
L102.578 176.338
L102.95 296.735
L103.025 295.047
L103.174 271.516
L103.769 115.922
L103.843 114.105
L104.215 117.556
L104.364 129.707
L104.587 184.494
L104.885 277.89
L104.959 277.628
L105.406 197.227
L105.48 204.188
L105.703 223.098
L105.778 222.426
L106.447 169.707
L106.522 172.22
L106.745 185.077
L106.819 183.438
L106.968 166.444
L107.191 137.019
L107.266 139.403
L107.489 190.848
L107.712 225.403
L107.786 224.036
L108.01 199.572
L108.382 161.976
L108.53 159.409
L108.679 167.812
L108.977 208.163
L109.274 247.097
L109.349 251.313
L109.423 250.015
L109.572 237.87
L110.167 158.391
L110.242 158.999
L110.39 168.335
L110.762 214.354
L110.837 210.607
L111.06 165.654
L111.283 132.338
L111.358 130.536
L111.506 143.871
L112.176 227.21
L112.474 237.944
L112.548 234.814
L112.771 202.09
L113.069 164.128
L113.143 164.119
L113.292 176.886
L113.59 203.971
L113.664 202.53
L113.813 197.094
L113.962 203.245
L114.185 217.672
L114.259 216.408
L114.482 185.363
L114.706 158.377
L114.78 159.33
L115.003 184.509
L115.226 202.623
L115.301 202.485
L115.45 193.085
L115.822 151.86
L115.896 152.023
L116.045 165.081
L116.64 243.503
L116.714 243.602
L116.863 235.707
L117.086 193.297
L117.458 117.398
L117.533 118.978
L117.682 141.817
L118.277 262.076
L118.351 260.368
L118.574 240.728
L119.244 134.669
L119.318 135.286
L119.542 152.916
L119.765 161.956
L119.914 167.871
L120.137 188.143
L120.583 235.248
L120.658 238.255
L120.732 238.191
L120.881 231.308
L121.327 199.859
L121.55 183.457
L121.997 118.919
L122.071 121.926
L122.22 152.684
L122.666 257.095
L122.741 259.86
L122.815 257.5
L122.964 235.51
L123.336 165.876
L123.41 164.069
L123.559 178.007
L123.857 205.526
L123.931 205.926
L124.08 198.55
L124.526 158.52
L124.75 151.563
L124.824 151.613
L124.973 166.36
L125.494 225.398
L125.568 226.815
L125.642 225.872
L125.791 214.838
L126.312 152.936
L126.461 166.686
L127.056 258.339
L127.13 256.063
L127.279 237.248
L127.949 99.6642
L128.023 101.876
L128.172 121.832
L128.842 272.064
L128.99 259.993
L129.362 197.76
L129.734 137.784
L129.809 135.221
L129.883 136.446
L130.181 169.135
L130.627 221.157
L130.702 223.122
L130.776 220.634
L131.297 166.059
L131.371 166.997
L131.52 179.522
L131.743 208.76
L132.041 242.881
L132.115 243.147
L132.264 227.507
L132.71 166.064
L132.785 166.187
L132.934 169.954
L133.231 186.375
L133.306 184.045
L133.603 153.538
L133.752 139.033
L133.826 139.383
L133.901 143.343
L134.124 195.119
L134.496 283.202
L134.645 261.622
L135.166 129.188
L135.24 130.324
L135.389 153.474
L135.835 234.443
L135.91 233.476
L136.058 213.727
L136.356 159.557
L136.505 152.116
L136.579 153.183
L136.802 171.317
L137.249 218.101
L137.323 217.193
L137.695 205.413
L137.918 202.826
L138.067 197.415
L138.514 172.255
L138.662 172.852
L138.886 176.886
L139.109 190.039
L139.481 211.9
L139.555 212.083
L139.704 207.689
L140.002 196.748
L140.076 196.398
L140.225 197.464
L140.374 193.677
L140.894 166.459
L140.969 167.031
L141.49 187.767
L141.713 199.103
L141.936 203.26
L142.01 202.475
L142.234 196.748
L142.903 207.279
L143.052 202.564
L143.722 172.576
L143.796 172.828
L143.87 173.993
L144.168 190.848
L144.614 216.423
L144.763 208.316
L145.284 162.4
L145.358 163.482
L145.582 177.222
L145.879 193.5
L146.028 194.852
L146.177 201.355
L146.4 214.191
L146.474 213.678
L146.772 205.956
L146.921 202.085
L146.995 202.781
L147.07 202.13
L147.218 197.025
L147.59 166.079
L147.739 154.965
L147.814 155.113
L148.186 174.511
L148.855 230.533
L148.93 230.148
L149.376 205.383
L149.599 194.778
L149.748 192.097
L149.897 181.561
L150.343 145.041
L150.418 144.177
L150.641 161.117
L151.087 207.6
L151.31 226.001
L151.459 227.26
L151.534 227.008
L151.608 225.828
L151.831 210.217
L152.054 202.046
L152.203 196.57
L152.724 173.237
L152.798 172.843
L153.096 182.89
L153.17 183.457
L153.245 183.161
L153.394 182.075
L153.542 183.714
L153.617 183.502
L153.766 181.749
L153.84 181.502
L154.138 186.049
L154.212 186.726
L154.361 192.695
L154.733 217.998
L154.956 230.898
L155.03 230.385
L155.179 221.873
L155.774 165.713
L156.072 147.258
L156.146 146.478
L156.221 147.011
L156.444 152.418
L156.667 170.201
L157.262 235.011
L157.337 234.705
L157.709 224.396
L158.23 196.595
L158.602 184.055
L158.899 157.824
L159.197 136.959
L159.271 135.952
L159.42 150.635
L159.941 258.615
L160.015 255.935
L160.238 201.927
L160.536 140.529
L160.61 142.973
L160.834 188.676
L161.131 240.081
L161.206 244.204
L161.28 243.508
L161.429 217.218
L161.801 143.254
L162.098 122.908
L162.173 124.71
L162.322 142.44
L163.214 294.958
L163.289 296.898
L163.438 283.627
L163.735 225.828
L164.33 78.474
L164.405 78.1925
L164.628 100.291
L165.372 231.091
L165.446 229.457
L165.67 222.821
L165.744 223.078
L165.893 229.397
L166.19 251.462
L166.265 250.696
L166.414 231.269
L166.637 194.763
L166.711 193.835
L166.86 197.76
L167.009 190.888
L167.306 161.097
L167.604 136.811
L167.753 133.084
L167.827 135.379
L167.976 150.472
L168.571 235.643
L168.646 235.87
L168.794 228.469
L169.241 183.601
L169.315 182.583
L169.39 184.109
L169.538 197.903
L169.836 222.165
L169.91 219.262
L170.059 198.086
L170.506 109.563
L170.654 128.7
L171.324 264.022
L171.473 256.813
L171.77 226.559
L172.44 132.886
L172.663 125.935
L172.812 140.114
L173.333 221.705
L173.407 220.52
L173.556 207.383
L174.002 152.339
L174.077 156.17
L174.3 200.53
L174.672 271.882
L174.746 273.422
L174.821 271.724
L175.044 249.546
L176.086 96.6871
L176.16 97.2647
L176.458 133.938
L177.276 274.118
L177.35 274.014
L177.499 265.794
L177.722 234.754
L178.094 181.176
L178.466 152.018
L178.69 148.542
L178.764 148.754
L178.913 152.042
L179.285 177.118
L179.954 224.169
L180.029 224.416
L180.103 224.283
L180.475 216.452
L180.624 207.121
L181.442 142.943
L181.591 149.243
L181.814 173.988
L182.261 225.137
L182.335 227.299
L182.558 237.712
L182.633 238.704
L182.707 237.707
L183.451 151.307
L183.674 120.968
L183.749 123.876
L184.046 183.739
L184.344 237.396
L184.493 247.912
L184.642 240.531
L185.088 185.822
L185.386 154.042
L185.46 153.677
L185.609 161.359
L185.832 182.411
L186.204 212.122
L186.278 211.12
L186.427 205.181
L186.725 186.736
L187.097 174.176
L187.171 175.405
L187.32 180.446
L187.99 222.959
L188.064 221.849
L188.362 204.06
L188.808 164.094
L188.882 165.289
L188.957 164.839
L189.106 161.369
L189.18 161.897
L189.478 185.378
L189.775 209.052
L189.998 216.921
L190.147 207.57
L190.594 175.953
L190.742 181.478
L191.263 205.097
L191.412 205.487
L191.784 200.797
L191.858 199.088
L192.156 176.175
L192.23 176.842
L192.305 177.434
L192.454 174.146
L192.528 174.837
L192.826 187.748
L192.974 186.138
L193.123 181.552
L193.272 184.109
L193.346 184.435
L193.495 181.167
L193.644 177.908
L193.718 178.673
L193.867 190.75
L194.239 225.576
L194.388 230.459
L194.462 230.548
L194.611 224.371
L195.281 166.696
L195.355 164.904
L195.578 170.122
L196.025 181.774
L196.248 184.302
L196.471 193.06
L196.62 190.908
L196.694 190.922
L196.769 190.883
L196.843 190.369
L196.992 191.184
L197.141 189.096
L197.29 186.143
L197.438 193.465
L197.885 216.299
L197.959 216.171
L198.108 213.031
L198.257 202.515
L198.629 172.122
L198.703 169.806
L198.852 173.203
L199.001 167.945
L199.522 182.228
L200.117 227.413
L200.266 230.642
L200.34 228.627
L200.712 193.07
L201.233 146.236
L201.382 149.105
L201.53 157.014
L202.126 205.072
L202.572 244.204
L202.646 244.382
L202.795 229.284
L203.242 171.727
L203.39 167.703
L203.465 168.157
L203.614 172.102
L203.688 171.426
L203.837 173.81
L204.432 191.391
L204.73 207.166
L204.804 206.869
L204.953 203.374
L205.325 189.318
L205.399 189.639
L205.846 209.846
L205.994 202.421
L206.515 167.56
L206.59 167.165
L206.664 167.831
L206.813 177.029
L207.11 194.477
L207.259 197.879
L207.334 197.696
L207.408 197.128
L207.929 174.289
L208.003 174.763
L208.078 176.437
L208.226 190.103
L208.598 237.568
L208.673 235.238
L209.045 189.13
L209.342 160.213
L209.417 160.623
L210.086 200.056
L210.161 200.713
L210.235 200.229
L210.458 194.689
L210.682 188.33
L210.83 184.208
L211.054 187.175
L211.128 186.903
L211.277 189.268
L211.574 198.753
L211.946 210.636
L212.244 203.423
L212.467 187.205
L212.914 150.379
L212.988 149.786
L213.137 160.263
L213.955 240.077
L214.104 243.908
L214.178 242.239
L214.327 227.719
L214.997 137.858
L215.146 133.449
L215.22 136.15
L215.443 171.49
L215.815 234.394
L216.038 246.712
L216.187 232.607
L216.634 141.314
L216.931 95.1171
L217.006 99.8567
L217.229 160.653
L217.526 220.481
L217.675 232.31
L218.047 282.793
L218.122 283.41
L218.27 289.478
L218.345 284.753
L219.461 98.4052
L219.684 78.2715
L219.833 88.1162
L220.205 163.793
L220.874 289.408
L220.949 288.683
L221.098 274.795
L221.842 152.99
L221.916 153.899
L222.511 180.5
L222.66 182.391
L222.734 182.381
L222.809 182.924
L223.181 189.649
L223.255 189.105
L223.404 186.696
L223.478 187.555
L224.074 219.262
L224.148 217.301
L224.297 203.789
L224.743 157.977
L224.818 158.722
L224.966 174.516
L225.19 199.715
L225.264 199.957
L225.338 196.669
L225.562 175.217
L225.636 175.272
L226.231 207.388
L226.752 231.451
L226.826 229.333
L226.975 208.913
L227.273 166.138
L227.868 128.788
L227.942 131.449
L228.091 158.535
L228.538 251.585
L228.612 253.318
L228.761 240.23
L228.91 222.742
L228.984 224.47
L229.207 248.963
L229.356 213.164
L229.802 72.5642
L229.877 77.373
L230.026 110.151
L230.472 232.918
L230.844 267.127
L230.918 268.885
L230.993 268.48
L231.067 267.68
L231.29 255.831
L231.588 184.835
L231.886 130.877
L231.96 129.391
L232.109 138.989
L232.63 186.864
L232.704 186.884
L233.15 176.822
L233.299 178.204
L233.448 179.982
L233.746 185.21
L234.564 210.152
L234.787 212.113
L235.085 220.2
L235.234 212.695
L235.68 175.943
L235.829 170.961
L235.903 171.006
L236.498 194.043
L236.573 193.5
L237.019 187.037
L237.168 190.187
L237.391 194.531
L237.54 192.65
L237.689 196.748
L237.763 195.632
L237.986 187.2
L238.061 187.407
L238.135 187.99
L238.284 186.528
L238.358 186.711
L238.507 187.096
L238.73 189.841
L238.879 193.485
L239.028 191.421
L239.177 194.388
L239.326 196.279
L239.698 190.162
L239.772 190.192
L239.846 190.355
L240.516 194.823
L240.739 192.354
L240.962 195.292
L241.26 189.431
L241.409 191.569
L241.483 190.527
L241.632 186.444
L241.706 186.968
L241.855 190.532
L242.078 187.057
L242.153 187.881
L242.376 185.329
L242.45 185.452
L242.599 190.641
L242.897 205.275
L243.12 209.856
L243.194 209.57
L243.269 207.373
L243.492 184.099
L243.715 171.11
L243.79 170.754
L243.864 171.134
L244.013 179.058
L244.31 198.308
L244.385 199.009
L244.682 184.075
L244.906 177.73
L245.054 178.895
L245.203 177.034
L245.278 178.298
L245.501 197.01
L245.798 217.548
L246.17 206.613
L246.245 207.126
L246.319 207.664
L246.691 193.894
L246.766 194.591
L246.989 197.874
L247.138 199.528
L247.212 199.469
L247.286 198.93
L247.435 187.219
L247.658 161.319
L247.733 160.174
L248.03 163.887
L248.328 177.212
L248.7 201.389
L248.774 200.407
L248.849 198.772
L248.923 198.99
L249.146 203.038
L249.295 205.887
L249.37 203.966
L249.667 177.197
L249.742 177.553
L250.039 185.482
L250.411 224.233
L250.486 222.569
L250.858 202.737
L251.006 199.898
L251.081 200.826
L251.155 199.429
L251.378 190.266
L251.453 190.325
L251.527 189.56
L251.899 168.656
L251.974 168.735
L252.048 168.903
L252.197 163.136
L252.346 156.861
L252.42 157.977
L252.643 170.527
L253.238 222.021
L253.387 224.924
L253.462 223.858
L254.057 183.053
L254.206 180.061
L254.429 181.013
L254.503 181.917
L254.801 198.175
L254.875 196.353
L255.247 182.075
L255.322 182.47
L255.396 183.902
L255.694 206.04
L255.768 204.416
L256.066 177.977
L256.14 179.32
L256.512 193.075
L256.661 185.077
L256.958 172.768
L257.107 178.352
L257.851 230.656
L258 221.266
L258.893 151.687
L258.967 151.188
L259.116 164.795
L259.488 204.248
L259.562 203.976
L260.009 194.057
L260.455 172.689
L260.53 172.892
L260.753 182.593
L261.274 217.647
L261.348 219.316
L261.422 218.807
L261.497 217.262
L261.571 217.336
L261.72 219.839
L261.794 219.405
L261.869 217.06
L262.241 171.702
L262.464 153.331
L262.538 153.03
L262.687 161.146
L263.059 183.887
L263.431 198.496
L263.58 196.58
L263.729 194.171
L263.803 195.884
L264.101 212.093
L264.25 206.963
L264.696 175.553
L264.919 182.376
L265.142 192.117
L265.589 211.708
L265.663 211.974
L265.812 210.681
L265.961 200.155
L266.184 173.188
L266.407 145.757
L266.482 144.513
L266.705 166.518
L267.151 230.449
L267.226 229.674
L267.374 211.11
L267.598 182.509
L267.746 180.233
L267.821 181.961
L268.118 194.304
L268.193 194.413
L268.342 192.843
L268.565 196.432
L268.788 200.486
L269.011 214.028
L269.086 212.532
L269.904 158.016
L269.978 156.081
L270.053 156.915
L270.202 164.474
L270.574 196.64
L270.797 192.877
L270.871 193.174
L271.094 200.184
L271.466 219.701
L271.541 219.795
L271.764 214.863
L272.136 194.605
L272.434 181.838
L272.508 181.897
L272.731 183.354
L272.88 185.447
L273.029 179.809
L273.326 165.466
L273.401 164.563
L273.475 165.308
L273.624 172.462
L274.145 211.727
L274.368 220.891
L274.517 221.898
L274.666 217.958
L275.335 163.936
L275.41 163.98
L275.782 172.586
L275.856 172.487
L276.079 168.473
L276.228 176.995
L276.823 237.371
L276.898 235.534
L277.121 205.309
L277.493 156.056
L277.642 152.413
L277.716 153.884
L277.865 168.295
L278.237 219.963
L278.386 224.781
L278.46 223.962
L278.609 216.521
L278.981 182.347
L279.055 182.129
L279.204 183.551
L279.353 181.882
L279.576 179.725
L279.65 179.972
L279.725 180.633
L279.874 185.97
L280.022 192.231
L280.097 190.922
L280.32 182.021
L280.469 183.813
L280.543 183.759
L280.692 180.406
L280.766 180.757
L280.915 188.158
L281.213 209.851
L281.287 208.143
L281.585 195.361
L281.734 193.924
L282.031 187.679
L282.106 187.876
L282.478 195.341
L282.552 195.504
L282.998 208.523
L283.147 199.167
L283.445 178.165
L283.519 176.234
L283.594 176.768
L283.817 184.311
L284.114 208.484
L284.189 207.921
L284.338 192.226
L284.635 162.598
L284.71 160.682
L284.784 161.008
L284.933 168.987
L285.751 229.763
L285.9 218.857
L286.346 172.166
L286.421 173.662
L286.793 203.349
L286.942 193.154
L287.388 155.493
L287.611 168.103
L287.76 184.544
L287.983 211.708
L288.058 210.306
L288.43 191.011
L288.504 191.811
L288.653 198.851
L288.95 218.279
L289.025 218.501
L289.099 218.126
L289.248 212.28
L289.471 199.217
L289.546 198.837
L289.694 195.509
L289.843 185.482
L290.066 164.662
L290.215 170.532
L290.364 174.072
L290.662 166.192
L290.885 176.141
L291.108 191.08
L291.182 190.226
L291.331 185.412
L291.406 186.612
L291.852 210.982
L292.224 240.664
L292.298 241.049
L292.447 226.519
L293.042 147.94
L293.117 148.853
L293.563 176.698
L294.01 222.056
L294.158 214.468
L294.53 177.612
L294.754 162.484
L294.902 174.506
L295.274 223.266
L295.349 224.436
L295.423 222.718
L296.093 176.669
L296.167 177.241
L296.688 185.121
L297.134 174.022
L297.209 174.442
L297.358 184.035
L297.655 210.987
L297.73 210.439
L297.953 202.979
L298.176 195.297
L298.25 195.81
L298.622 212.572
L298.697 210.404
L299.069 182.88
L299.143 183.057
L299.664 158.594
L299.738 159.009
L300.11 177.928
L300.408 212.325
L300.78 256.887
L300.854 254.626
L301.003 233.905
L301.524 134.585
L301.598 131.272
L301.673 132.807
L302.268 195.208
L302.566 206.692
L302.863 215.598
L302.938 214.127
L303.086 211.727
L303.235 215.49
L303.31 214.507
L304.277 162.287
L304.351 162.529
L304.426 164.543
L305.095 209.891
L305.17 210.656
L305.318 202.786
L305.839 165.575
L305.988 171.297
L306.286 195.771
L306.509 216.196
L306.583 216.941
L306.881 222.49
L307.03 220.762
L307.104 220.708
L307.178 219.77
L307.402 198.229
L307.848 169.796
L308.071 159.201
L308.146 160.164
L308.666 183.566
L308.741 183.334
L308.815 183.082
L309.038 192.858
L309.262 198.782
L309.634 210.197
L309.782 209.274
L309.857 209.639
L310.303 199.636
L310.526 181.433
L310.973 156.688
L311.047 152.847
L311.122 154.397
L311.494 179.557
L311.94 233.051
L312.163 242.456
L312.312 231.446
L312.535 216.521
L312.684 208.805
L313.056 163.62
L313.279 137.809
L313.502 145.145
L313.577 144.409
L313.651 144.197
L313.726 145.56
L313.874 163.343
L314.395 232.459
L314.47 233.954
L314.544 233.683
L314.618 231.94
L314.767 235.268
L314.842 234.557
L314.99 226.169
L315.586 175.064
L315.958 148.665
L316.032 149.036
L316.181 155.859
L316.404 175.351
L316.627 191.535
L316.999 202.781
L317.222 207.615
L317.297 207.995
L317.371 209.679
L317.446 209.437
L317.669 202.154
L317.966 213.683
L318.041 212.325
L318.264 203.719
L318.487 186.711
L318.71 173.05
L319.008 166.029
L319.306 181.028
L319.38 181.132
L319.529 184.499
L319.678 191.021
L319.752 191.036
L319.901 188.859
L320.124 195.756
L320.273 191.846
L320.422 197.997
L320.57 205.28
L320.794 202.14
L320.942 204.09
L321.24 190.819
L321.389 195.815
L321.686 188.592
L321.761 188.622
L322.058 177.859
L322.133 179.266
L322.43 187.871
L322.505 187.392
L322.654 193.712
L322.877 200.189
L323.1 192.833
L323.249 188.429
L323.472 193.865
L323.621 198.644
L323.695 197.395
L323.993 184.642
L324.29 190.616
L324.365 190.547
L324.439 191.48
L324.514 190.987
L324.588 191.406
L324.811 200.678
L324.886 199.533
L325.183 190.917
L325.332 184.544
L325.63 168.987
L325.704 167.318
L325.853 171.697
L326.076 186.578
L326.448 220.634
L326.671 227.013
L327.043 200.979
L327.266 180.604
L327.415 167.244
L327.713 171.208
L327.862 179.611
L327.936 178.974
L328.01 178.565
L328.085 179.118
L328.234 176.516
L328.308 177.123
L328.754 197.726
L328.978 200.333
L329.052 199.824
L329.126 200.066
L329.201 200.782
L329.424 211.397
L329.796 197.464
L330.094 171.791
L330.168 172.62
L330.614 194.122
L330.689 192.527
L331.061 182.791
L331.135 183.299
L331.358 188.982
L331.507 193.855
L332.028 213.554
L332.177 212.359
L332.326 203.27
L332.772 162.919
L332.846 161.719
L332.921 163.24
L333.442 196.022
L333.665 203.236
L333.739 202.618
L333.962 193.035
L334.037 193.43
L334.334 191.307
L334.558 196.496
L334.781 187.318
L334.855 187.624
L335.376 201.093
L335.525 204.741
L335.748 190.468
L335.971 176.57
L336.194 181.7
L336.418 194.472
L336.492 193.727
L336.641 191.268
L336.79 194.551
L336.864 194.758
L337.087 196.225
L337.236 193.253
L337.31 193.781
L337.385 193.875
L337.757 180.525
L337.831 181.404
L337.98 182.949
L338.426 196.773
L338.501 196.363
L338.575 197.222
L338.798 202.776
L338.947 197.938
L339.17 187.535
L339.394 185.378
L339.542 187.713
L339.766 205.072
L339.84 203.877
L340.286 178.199
L340.361 177.948
L340.956 197.271
L341.03 197.197
L341.179 183.956
L341.328 175.795
L341.477 186.494
L341.7 200.589
L341.849 198.644
L342.072 190.147
L342.295 177.72
L342.37 178.476
L342.89 208.745
L342.965 209.288
L343.56 188.977
L343.783 192.769
L343.858 191.47
L344.081 180.599
L344.155 181.364
L344.304 184.277
L344.527 176.234
L344.75 188.202
L344.825 189.204
L344.899 188.73
L344.974 187.032
L345.048 187.343
L345.197 197.543
L345.346 203.3
L345.643 186.726
L345.718 186.973
L346.09 199.281
L346.164 197.948
L346.462 189.101
L346.61 195.395
L346.834 206.968
L346.908 205.837
L347.28 191.362
L347.503 187.595
L347.726 194.428
L347.801 192.29
L348.098 176.689
L348.173 176.985
L348.396 183.309
L348.619 204.366
L348.768 190.167
L348.917 171.238
L348.991 172.882
L349.289 187.693
L349.363 188.543
L349.512 195.929
L349.586 195.4
L349.735 189.224
L349.81 190.429
L350.33 214.161
L350.405 213.816
L350.554 205.072
L350.926 177.78
L351 176.318
L351.372 196.551
L351.446 195.07
L352.116 161.931
L352.711 205.561
L352.786 205.319
L353.009 198.432
L353.083 198.481
L353.53 207.126
L353.604 207.541
L353.678 206.929
L353.827 199.177
L354.199 178.244
L354.348 183.028
L354.72 194.734
L354.794 194.675
L354.943 192.69
L355.315 181.927
L355.39 182.322
L355.613 189.298
L355.762 183.951
L355.91 179.498
L356.282 191.851
L356.506 185.279
L356.654 191.441
L356.878 208.987
L356.952 209.614
L357.25 197.647
L357.324 198.21
L357.398 198.323
L357.473 197.005
L357.77 179.285
L357.845 180.895
L358.068 189.471
L358.142 187.955
L358.366 172.275
L358.44 172.438
L358.663 192.428
L358.738 198.106
L358.812 196.98
L358.961 191.949
L359.035 192.522
L359.407 203.369
L359.556 205.744
L359.705 200.999
L360.077 189.056
L360.3 191.53
L360.374 191.327
L360.598 192.754
L360.895 186.232
L361.044 187.032
L361.193 194.561
L361.416 187.95
L361.49 188.552
L361.565 189.145
L361.862 179.784
L362.011 183.423
L362.383 199.883
L362.532 191.702
L362.755 180.011
L362.978 191.372
L363.053 192.27
L363.276 200.288
L363.499 193.83
L363.648 187.891
L363.871 207.23
L363.946 203.428
L364.541 182.662
L364.615 183.112
L364.838 191.381
L364.987 184.919
L365.136 174.975
L365.21 175.237
L365.434 188.227
L365.731 205.783
L365.806 206.302
L365.954 201.192
L366.178 191.056
L366.252 189.92
L366.326 190.547
L366.55 197.296
L366.698 199.508
L366.996 179.695
L367.07 181.157
L367.294 189.476
L367.442 187.955
L367.591 189.663
L367.963 196.027
L368.112 199.696
L368.335 197.109
L368.633 190.463
L368.856 178.061
L369.079 187.531
L369.154 187.363
L369.377 181.863
L369.451 183.048
L369.898 203.339
L369.972 202.07
L370.344 178.629
L370.418 178.925
L370.642 190.201
L370.939 213.964
L371.014 213.416
L371.237 192.892
L371.46 174.329
L371.534 174.417
L371.683 180.317
L372.278 214.655
L372.353 212.542
L372.799 178.861
L372.948 185.457
L373.171 191.697
L373.246 191.806
L373.394 191.539
L373.469 192.329
L373.543 190.463
L373.915 164.153
L373.99 165.402
L374.138 179.285
L374.436 207.595
L374.808 192.547
L374.882 192.502
L375.106 206.425
L375.18 206.41
L375.254 205.428
L375.329 205.526
L375.403 205.526
L375.478 206.099
L375.701 203.734
L375.775 203.912
L375.85 203.789
L375.924 203.221
L376.073 205.028
L376.296 198.614
L376.742 168.834
L377.263 149.737
L377.338 152.25
L378.305 227.635
L378.454 235.475
L378.528 233.717
L378.826 207.126
L379.123 181.774
L379.346 185.309
L379.495 190.527
L379.57 190.33
L379.942 157.291
L380.016 157.448
L380.165 159.078
L380.239 158.046
L380.314 160.149
L380.537 187.59
L380.834 219.242
L381.058 225.591
L381.132 225.976
L381.355 218.378
L381.876 183.872
L382.025 185.274
L382.099 185.171
L382.546 168.513
L382.992 181.043
L383.215 184.726
L383.513 189.732
L383.662 196.101
L383.885 191.436
L383.959 192.245
L384.108 199.024
L384.406 194.798
L384.554 196.57
L384.703 201.754
L385.001 219.884
L385.075 220.303
L385.224 214.843
L385.447 196.151
L385.67 181.389
L385.745 181.092
L385.819 182.845
L385.894 182.169
L386.042 179.157
L386.489 146.295
L386.563 146.034
L386.638 148.799
L386.786 169.93
L387.084 221.355
L387.158 226.702
L387.233 225.492
L387.53 204.786
L387.828 210.444
L387.977 205.536
L388.2 190.735
L388.349 185.309
L388.423 187.871
L388.646 208.242
L389.018 128.843
L389.093 131.667
L389.242 171.588
L389.539 285.474
L389.614 288.91
L389.762 257.006
L390.134 127.125
L390.283 117.077
L390.506 133.138
L390.953 186.069
L391.102 195.42
L391.25 207.951
L391.325 207.906
L391.474 222.145
L391.771 314.775
L391.846 314.563
L391.994 261.035
L392.292 129.341
L392.441 118.865
L393.259 185.778
L393.557 195
L393.854 201.009
L393.929 201.014
L394.226 182.223
L394.45 244.194
L394.524 243.463
L394.822 159.586
L394.97 130.625
L395.045 132.279
L395.417 177.296
L395.566 251.23
L395.789 353.068
L395.938 264.866
L396.235 83.0803
L396.384 120.114
L396.607 197.247
L396.682 196.452
L396.979 178.5
L397.128 198.634
L397.202 191.49
L397.426 145.599
L397.5 142.988
L397.574 148.655
L397.723 203.547
L397.872 281.474
L398.021 226.529
L398.244 163.99
L398.318 165.427
L398.765 252.192
L398.839 243.409
L399.286 121.358
L399.36 121.501
L399.509 140.47
L399.806 193.667
L399.881 193.193
L399.955 191.036
L400.104 208.948
L400.327 236.448
L400.402 235.974
L400.476 236.216
L400.55 236.013
L400.774 253.673
L400.922 227.625
L401.443 76.1239
L401.592 100.76
L401.89 210.794
L402.187 299.658
L402.336 304.521
L402.485 284.718
L402.708 208.444
L403.006 131.252
L403.08 132.062
L403.303 140.563
L403.526 128.542
L403.601 132.708
L403.973 171.929
L404.345 224.683
L404.494 232.246
L404.568 231.866
L404.642 233.979
L404.94 264.639
L405.089 246.036
L405.535 168.641
L406.13 115.053
L406.205 116.697
L406.354 129.302
L406.502 159.004
L407.023 303.331
L407.098 311.996
L407.246 294.044
L407.693 215.287
L407.842 189.377
L408.288 54.7164
L408.437 93.1175
L408.66 156.476
L409.106 198.19
L409.627 289.053
L409.702 288.406
L409.85 261.607
L410.222 179.206
L410.52 160.628
L410.892 148.167
L410.966 148.952
L411.19 175.81
L411.562 232.147
L411.636 234.083
L411.71 233.061
L411.859 220.698
L412.38 168.646
L412.529 168.365
L412.603 165.837
L412.901 134.056
L412.975 135.789
L413.124 155.607
L413.645 266.224
L413.719 259.805
L414.538 150.813
L414.686 143.531
L414.761 143.555
L414.91 155.913
L415.505 225.176
L415.654 233.619
L415.728 231.708
L415.951 217.143
L416.026 215.322
L416.249 177.785
L416.472 149.88
L416.546 149.036
L416.695 150.996
L416.844 159.646
L417.365 217.879
L417.514 224.979
L417.588 224.436
L417.811 203.463
L418.258 161.68
L418.332 162.084
L418.481 172.902
L419.002 230.079
L419.076 230.212
L419.299 211.846
L419.522 176.066
L419.82 111.75
L419.894 115.976
L420.118 178.451
L420.415 255.737
L420.49 261.212
L420.564 258.275
L421.457 165.363
L421.68 159.606
L421.754 160.431
L422.052 177.622
L422.35 189.688
L422.498 191.08
L422.722 198.456
L422.87 201.488
L423.094 200.209
L423.466 212.034
L423.763 207.541
L423.912 203.956
L424.135 190.646
L424.582 160.618
L424.656 160.169
L424.805 163.225
L424.954 174.526
L425.251 221.32
L425.326 221.088
L425.549 204.188
L425.921 178.831
L426.07 174.472
L426.144 176.427
L426.516 202.48
L426.59 200.658
L426.962 177.775
L427.111 180.016
L427.558 192.621
L427.855 223.177
L427.93 223.157
L428.153 211.041
L428.748 177.553
L428.897 175.04
L428.971 175.75
L429.12 183.057
L429.269 188.266
L429.343 186.642
L429.566 174.121
L429.715 181.206
L430.087 201.745
L430.31 214.551
L430.385 215.07
L430.459 213.139
L430.682 190.345
L431.054 148.389
L431.129 149.791
L431.278 170.996
L431.65 247.966
L431.724 250.978
L431.798 249.023
L431.947 233.954
L432.468 145.264
L432.542 145.861
L432.989 173.672
L433.51 213.52
L433.584 214.344
L433.658 212.478
L433.956 198.456
L434.03 198.496
L434.105 198.249
L434.179 197.385
L434.328 188.473
L434.626 161.996
L434.7 161.003
L434.849 169.821
L435.37 229.003
L435.593 276.216
L435.667 277.382
L435.816 244.456
L436.188 158.066
L436.486 123.451
L436.56 121.862
L436.634 123.545
L436.783 136.935
L437.527 220.841
L437.75 235.204
L437.974 231.678
L438.122 225.695
L438.494 194.28
L438.792 169.752
L438.866 168.286
L438.941 169.11
L439.387 185.526
L439.462 185.215
L439.536 186.736
L439.61 186.193
L439.685 186.568
L439.759 186.425
L439.908 180.757
L440.206 158.461
L440.28 160.1
L440.429 178.723
L440.95 275.668
L441.173 235.07
L441.47 179.073
L441.917 107.964
L441.991 109.153
L442.14 120.538
L443.33 279.919
L443.405 276.523
L443.628 246.969
L444.298 132.486
L444.446 128.665
L444.595 137.379
L445.265 218.215
L445.339 215.806
L445.711 180.12
L445.934 184.948
L446.158 188.755
L446.232 188.533
L446.306 188.538
L446.381 191.248
L446.753 248.519
L446.827 243.547
L446.976 213.189
L447.422 108.512
L447.497 108.99
L447.72 129.707
L447.943 234.675
L448.166 353.068
L448.241 353.068
L448.39 284.486
L448.613 191.298
L449.059 123.807
L449.134 121.97
L449.282 110.862
L449.357 112.101
L449.506 143.318
L449.803 202.964
L449.878 221.992
L449.878 221.992" style="fill:none;stroke:#808080;stroke-linecap:square;"/>
   </g>
  </g>
 </g>
 <defs>
  <clipPath id="p7ff5b81e1d">
   <rect height="345.6" width="446.4" x="72.0" y="43.2"/>
  </clipPath>
 </defs>
</svg>
