<?xml version="1.0" encoding="utf-8" standalone="no"?>
<!DOCTYPE svg PUBLIC "-//W3C//DTD SVG 1.1//EN"
  "http://www.w3.org/Graphics/SVG/1.1/DTD/svg11.dtd">
<!-- Created with matplotlib (http://matplotlib.org/) -->
<svg height="432pt" version="1.1" viewBox="0 0 576 432" width="576pt" xmlns="http://www.w3.org/2000/svg" xmlns:xlink="http://www.w3.org/1999/xlink">
 <defs>
  <style type="text/css">
*{stroke-linecap:butt;stroke-linejoin:round;}
  </style>
 </defs>
 <g id="figure_1">
  <g id="patch_1">
   <path d="
M0 432
L576 432
L576 0
L0 0
z
" style="fill:#ffffff;"/>
  </g>
  <g id="axes_1">
   <g id="line2d_1">
    <path clip-path="url(#p7ff5b81e1d)" d="
M72 193.146
L72.5208 260.43
L72.5952 257.783
L72.9672 207.178
L73.3392 159.277
L73.4136 159.06
L73.6368 167.345
L73.7856 173.289
L74.0088 183.381
L74.604 269.405
L74.6784 274.145
L74.7528 271.746
L75.0504 235.981
L75.4968 119.612
L75.7944 100.427
L75.8688 101.167
L76.0176 98.0371
L76.092 98.5012
L76.1664 100.683
L76.3896 129.694
L76.5384 162.151
L76.836 221.377
L77.0592 232.337
L77.208 242.765
L77.952 295.444
L78.0264 291.771
L78.2496 243.199
L78.8448 100.94
L78.9936 91.6386
L79.068 91.609
L79.2912 96.0425
L79.44 111.318
L79.7376 165.123
L80.1096 220.883
L80.4072 242.923
L80.4816 245.618
L80.7792 271.163
L80.8536 269.998
L80.928 264.616
L81.5976 130.524
L81.672 130.721
L81.8208 147.172
L82.3416 225.899
L82.416 227.232
L82.4904 225.327
L82.5648 226.62
L82.788 218.375
L83.904 130.721
L83.9784 132.222
L84.1272 150.065
L84.5736 222.601
L84.8712 244.522
L84.9456 243.949
L85.764 209.676
L86.0616 189.404
L86.2104 175.096
L86.508 138.69
L86.5824 139.598
L86.88 151.023
L86.9544 150.055
L87.1032 157.628
L87.5496 198.607
L87.624 198.38
L87.7728 196.059
L87.996 199.061
L88.2192 209.755
L88.5912 255.966
L88.6656 255.957
L88.8144 230.856
L89.1864 118.961
L89.2608 126.189
L89.6328 297.231
L89.7072 291.079
L89.856 213.586
L90.1536 54.4619
L90.228 45.19
L90.3024 50.058
L90.5256 144.417
L90.8976 291.01
L90.972 295.029
L91.1208 274.639
L91.5672 164.777
L91.6416 167.829
L92.0136 204.413
L92.088 204.008
L92.3112 182.383
L92.5344 169.636
L92.6088 168.046
L92.832 158.932
L92.9808 163.04
L93.2784 183.272
L93.6504 211.572
L93.7248 216.864
L93.7992 216.509
L94.2456 197.234
L94.7664 183.43
L94.8408 183.815
L94.9896 195.427
L95.064 195.022
L95.2872 180.329
L95.3616 182.354
L95.7336 196.968
L95.808 195.22
L96.1056 176.32
L96.18 176.666
L96.3288 185.592
L96.6264 195.684
L96.7008 195.832
L96.8496 201.283
L97.1472 227.035
L97.296 217.072
L97.5192 198.587
L97.5936 197.758
L97.9656 168.559
L98.1888 156.404
L98.3376 163.444
L99.156 223.065
L99.3792 205.884
L99.4536 206.101
L99.528 207.138
L99.6768 198.547
L99.9 171.531
L100.198 138.966
L100.272 137.139
L100.346 137.297
L100.495 153.392
L101.016 234.905
L101.165 226.304
L101.239 227.015
L101.314 228.18
L101.537 221.634
L101.76 224.744
L101.909 215.531
L101.983 216.973
L102.206 236.909
L102.43 216.617
L102.727 172.351
L103.248 65.2743
L103.322 68.1576
L103.471 91.9151
L103.769 218.484
L103.992 276.87
L104.215 288.502
L104.29 280.129
L104.885 124.688
L105.182 198.972
L105.703 311.924
L105.778 313.297
L105.852 310.226
L106.001 285.204
L106.819 65.1261
L106.968 53.7608
L107.042 54.5903
L107.191 61.8874
L107.414 106.253
L108.158 293.509
L108.233 293.953
L108.382 282.676
L109.126 198.38
L109.423 172.993
L109.87 157.342
L109.944 156.256
L110.018 157.342
L110.316 177.239
L110.539 186.461
L110.614 187.064
L110.688 186.975
L110.837 186.106
L110.986 189.73
L111.432 225.712
L111.581 210.959
L112.102 146.164
L112.176 145.177
L112.399 170.08
L112.771 212.214
L112.994 216.529
L113.218 202.349
L113.292 204.749
L113.366 207.661
L113.441 207.602
L113.664 203.544
L113.887 190.569
L114.11 173.901
L114.408 184.388
L114.557 193.492
L114.631 193.018
L114.706 193.324
L114.929 187.775
L115.152 200.108
L115.226 196.879
L115.45 183.934
L115.524 184.98
L115.673 195.24
L115.747 194.529
L115.896 189.345
L116.045 194.855
L116.119 194.45
L116.566 184.427
L116.64 184.654
L116.863 188.663
L117.012 203.258
L117.235 221.268
L117.458 213.24
L117.682 183.321
L118.128 120.106
L118.202 115.446
L118.277 119.583
L118.5 162.358
L119.021 271.005
L119.17 275.31
L119.318 264.044
L119.839 172.302
L120.211 158.952
L120.36 171.472
L120.658 194.351
L120.806 199.357
L120.881 198.044
L121.03 183.993
L121.178 166.268
L121.253 167.838
L121.476 180.537
L121.699 169.774
L121.848 184.022
L121.997 196.997
L122.071 196.375
L122.146 195.131
L122.443 207.869
L122.89 189.276
L123.113 174.405
L123.262 181.89
L123.41 188.614
L123.634 185.118
L123.857 200.977
L123.931 197.669
L124.08 187.982
L124.824 220.962
L124.898 222.266
L125.494 187.449
L125.642 176.706
L125.866 184.417
L126.163 170.475
L126.238 171.531
L126.386 169.142
L126.461 169.734
L126.61 182.294
L126.758 193.946
L126.833 191.241
L127.056 171.847
L127.13 173.566
L127.354 183.746
L127.502 180.152
L127.577 183.213
L127.874 206.22
L127.949 207.099
L128.172 222.266
L128.246 221.436
L128.618 201.737
L128.767 188.634
L128.99 168.026
L129.065 166.407
L129.586 194.104
L129.734 204.62
L129.809 204.561
L129.883 205.084
L130.032 209.844
L130.255 197.126
L130.404 205.331
L130.478 204.966
L130.627 202.418
L130.702 198.794
L130.999 173.378
L131.074 174.257
L131.297 185.069
L131.446 189.443
L131.52 188.663
L131.892 162.052
L131.966 166.367
L132.562 234.371
L132.636 232.288
L132.785 223.292
L132.934 205.311
L133.306 147.912
L133.454 149.334
L133.603 155.584
L133.826 172.47
L134.57 251.75
L134.645 256.747
L134.719 256.154
L134.942 218.602
L135.463 125.685
L135.984 183.124
L136.133 195.062
L136.282 188.999
L136.43 201.046
L136.505 206.348
L136.579 205.775
L136.728 200.325
L136.951 212.312
L137.1 198.024
L137.174 191.349
L137.249 192.159
L137.472 210.772
L137.695 193.541
L137.844 196.375
L137.918 194.637
L138.514 153.679
L138.662 175.758
L138.811 193.699
L138.96 178.315
L139.034 178.848
L139.258 201.302
L139.406 188.308
L139.481 193.255
L139.704 232.535
L139.778 232.199
L140.002 229.237
L140.15 219.185
L140.522 179.865
L140.671 167.414
L140.82 157.184
L140.969 165.212
L141.118 172.331
L141.192 171.383
L141.266 172.489
L141.415 180.715
L141.564 188.397
L141.638 187.587
L141.713 187.883
L142.085 213.813
L142.234 213.398
L142.308 212.638
L142.382 210.713
L142.978 170.001
L143.052 171.107
L143.275 187.093
L143.35 186.57
L143.498 182.926
L143.722 191.112
L143.796 190.49
L143.945 184.378
L144.019 186.54
L144.54 219.886
L144.689 209.32
L144.912 186.066
L145.061 187.271
L145.21 178.631
L145.433 167.759
L145.507 168.974
L145.73 183.934
L146.102 205.331
L146.177 204.117
L146.4 195.526
L146.549 200.147
L146.623 199.012
L146.846 192.811
L146.921 192.791
L146.995 193.541
L147.07 192.672
L147.218 189.957
L147.293 189.759
L147.367 188.091
L147.59 172.015
L147.888 198.123
L147.962 195.743
L148.111 180.626
L148.186 182.699
L148.409 222.759
L148.483 218.306
L148.855 176.34
L148.93 174.859
L149.302 183.173
L149.525 198.735
L149.674 209.962
L150.418 165.725
L150.492 168.125
L150.938 228.457
L151.013 225.198
L151.236 197.817
L151.459 173.131
L151.534 171.067
L151.608 172.015
L151.906 187.172
L152.054 181.603
L152.129 182.048
L152.724 196.79
L152.947 209.152
L153.022 208.056
L153.468 188.328
L153.617 176.35
L153.766 163.03
L153.914 178.927
L154.063 193.798
L154.286 188.387
L154.361 185.662
L154.658 209.103
L154.882 198.587
L155.105 204.591
L155.254 196.415
L155.477 175.116
L155.551 175.629
L155.7 181.929
L155.923 172.302
L156.072 185.138
L156.37 205.381
L156.444 207
L156.667 219.382
L156.742 219.017
L157.337 183.025
L157.411 183.163
L157.486 185.79
L157.56 182.571
L157.783 162.269
L158.081 180.28
L158.155 178.661
L158.304 170.742
L158.453 196.652
L158.602 214.099
L158.75 211.335
L159.048 196.642
L159.346 174.395
L160.015 203.593
L160.238 199.031
L160.387 202.171
L160.685 213.448
L160.834 216.716
L160.908 215.294
L161.131 193.986
L161.503 154.706
L161.652 142.343
L161.726 143.074
L161.875 150.707
L162.545 212.184
L162.768 219.55
L162.917 215.433
L163.066 222.029
L163.14 219.511
L163.363 205.153
L163.438 205.529
L163.512 204.028
L163.884 179.628
L163.958 181.455
L164.256 188.89
L164.33 188.337
L164.479 184.338
L164.926 164.995
L165 165.607
L165.149 171.788
L165.595 199.11
L165.67 200.888
L165.744 200.769
L165.893 199.298
L166.19 218.178
L166.265 215.729
L166.786 182.551
L167.083 189.888
L167.381 195.052
L167.455 194.726
L167.604 192.435
L167.753 184.151
L167.902 179.747
L168.125 181.771
L168.199 181.84
L168.274 182.67
L168.794 195.319
L168.869 195.901
L168.943 198.488
L169.166 213.892
L169.315 205.864
L169.613 186.382
L169.836 191.369
L169.91 191.329
L170.059 183.993
L170.282 167.838
L170.431 168.52
L170.506 168.638
L170.58 168.154
L170.654 170.1
L170.803 186.916
L171.026 210.565
L171.175 214.712
L171.25 215.067
L171.473 220.854
L171.622 212.954
L172.068 178.74
L172.217 185.484
L172.291 183.756
L172.514 172.687
L172.738 169.359
L172.812 170.643
L173.333 209.775
L173.705 191.724
L173.779 192.317
L174.151 199.209
L174.226 199.318
L174.374 188.14
L174.598 171.808
L174.672 169.952
L174.746 170.189
L175.118 187.449
L175.342 206.911
L175.416 207.652
L175.639 215.67
L175.788 206.773
L176.16 164.965
L176.234 166.654
L176.755 198.024
L176.978 219.106
L177.127 216.687
L177.202 218.266
L177.276 215.117
L177.722 164.224
L177.946 177.782
L178.243 199.268
L178.318 199.002
L178.541 191.774
L178.69 185.583
L179.136 193.778
L179.21 192.919
L179.508 184.506
L179.582 183.539
L179.806 174.109
L179.954 186.353
L180.326 220.33
L180.55 215.995
L180.922 179.52
L180.996 179.885
L181.145 185.602
L181.294 176.933
L181.442 170.455
L181.517 170.978
L181.963 185.207
L182.335 205.153
L182.782 185.839
L182.856 186.916
L183.526 212.332
L183.6 209.854
L183.823 190.727
L183.898 190.451
L183.972 188.9
L184.046 189.256
L184.195 193.65
L184.27 192.653
L184.642 170.564
L184.716 171.413
L184.865 177.417
L185.014 178.72
L185.46 192.356
L185.906 218.8
L185.981 220.389
L186.055 219.629
L186.13 219.116
L186.204 215.867
L186.502 184.21
L186.725 171.245
L186.874 172.706
L187.097 157.016
L187.171 157.322
L187.394 168.589
L187.618 192.188
L187.99 235.724
L188.064 240.572
L188.138 239.99
L189.031 165.488
L189.106 165.103
L189.254 172.598
L189.403 177.259
L189.626 165.321
L189.775 180.774
L189.998 205.983
L190.073 206.388
L190.37 190.253
L190.445 190.5
L190.594 192.682
L190.817 182.561
L190.891 183.943
L191.04 193.255
L191.263 207.533
L191.412 202.714
L191.486 200.661
L191.71 206.249
L191.858 200.364
L192.305 177.96
L192.379 177.663
L192.454 177.811
L192.602 178.295
L192.751 174.82
L192.9 179.441
L193.049 187.093
L193.198 185.968
L193.346 200.197
L193.57 212.648
L193.644 213.468
L193.793 221.337
L193.942 235.072
L194.016 233.167
L194.462 160.986
L194.686 146.638
L194.76 144.96
L195.058 158.478
L195.281 180.201
L195.653 230.856
L195.802 236.504
L196.025 231.992
L196.322 207.326
L196.769 159.119
L196.843 155.14
L196.992 162.319
L197.513 182.966
L198.108 198.34
L198.406 192.08
L198.48 192.366
L198.629 200.878
L198.926 221.693
L199.001 222.424
L199.15 224.853
L199.298 216.252
L199.819 164.086
L199.894 165.696
L200.191 177.614
L200.266 178.493
L200.414 172.874
L200.638 162.714
L200.712 162.289
L200.861 175.165
L201.382 235.793
L201.53 215.166
L201.902 174.326
L202.051 178.779
L202.2 181.978
L202.274 182.314
L202.646 189.019
L202.795 196.721
L203.167 182.206
L203.316 188.693
L203.762 223.796
L203.837 222.177
L204.134 196.286
L204.432 174.928
L204.655 167.917
L204.953 157.303
L205.102 161.094
L205.325 187.311
L205.846 237.739
L205.92 234.233
L206.441 184.032
L206.738 171.294
L207.185 180.971
L207.482 191.616
L207.631 192.544
L207.78 186.935
L208.003 176.972
L208.078 177.249
L208.152 178.503
L208.301 187.567
L208.673 228.812
L208.747 227.459
L208.97 195.802
L209.194 169.468
L209.268 169.468
L209.417 176.824
L209.863 217.22
L209.938 215.561
L210.31 186.126
L210.533 165.518
L210.682 162.408
L210.756 164.807
L211.128 190.52
L211.202 190.836
L211.5 199.249
L211.649 205.272
L211.723 204.956
L211.946 194.46
L212.17 184.23
L212.318 172.943
L212.393 167.592
L212.467 168.391
L212.765 197.047
L213.137 233.453
L213.211 231.784
L213.36 218.247
L213.658 176.804
L213.955 155.881
L214.03 155.841
L214.253 175.728
L214.55 205.163
L214.625 205.134
L214.699 201.164
L214.774 201.964
L214.848 202.31
L215.071 189.197
L215.146 190.46
L215.22 190.095
L215.294 190.49
L215.518 203.475
L215.815 223.213
L215.964 214.672
L216.559 139.687
L216.634 139.529
L216.782 151.447
L217.303 235.892
L217.526 213.379
L217.973 176.636
L218.196 178.917
L218.345 186.432
L218.791 217.891
L218.94 220.064
L219.014 219.274
L219.163 213.586
L219.758 147.132
L219.833 147.646
L219.982 155.496
L220.279 197.195
L220.577 226.699
L220.651 227.667
L220.726 225.109
L220.874 207.592
L221.246 160.048
L221.395 167.75
L221.618 201.5
L221.842 228.753
L221.916 231.755
L221.99 231.32
L222.139 224.201
L222.288 206.319
L222.586 158.971
L222.66 158.744
L222.809 164.926
L223.181 180.843
L223.404 178.167
L223.478 179.273
L223.627 191.231
L223.85 208.471
L224.222 185.03
L224.297 187.459
L224.446 190.767
L224.818 213.033
L225.041 215.344
L225.19 208.145
L225.487 188.574
L225.934 166.93
L226.231 182.452
L226.529 176.399
L226.678 182.838
L227.05 210.051
L227.124 210.476
L227.273 204.008
L227.57 179.589
L227.645 181.376
L228.091 200.759
L228.166 200.868
L228.24 200.651
L228.314 201.421
L228.389 200.819
L228.538 196.158
L228.835 177.091
L228.91 179.875
L229.058 184.2
L229.207 189.572
L229.505 184.457
L229.654 186.471
L229.951 193.897
L230.174 202.221
L230.249 201.342
L230.546 180.26
L230.695 188.969
L231.29 219.244
L231.365 219.748
L231.514 206.328
L231.886 171.768
L231.96 172.252
L232.034 171.373
L232.183 172.973
L232.555 158.389
L232.63 159.287
L232.778 171.571
L233.076 198.301
L233.374 213.231
L233.448 213.24
L233.746 224.467
L233.894 228.111
L234.043 217.822
L234.341 190.016
L234.638 175.521
L235.01 166.575
L235.085 166.713
L235.159 168.974
L235.531 207.109
L235.606 205.223
L236.126 183.687
L236.498 176.706
L236.573 177.278
L236.722 182.324
L237.168 216.667
L237.242 213.932
L237.614 170.465
L237.689 173.19
L237.986 188.16
L238.21 167.621
L238.284 168.767
L238.507 193.521
L238.805 234.638
L238.879 235.892
L238.954 234.993
L239.177 227.608
L239.549 212.638
L239.698 193.857
L240.07 115.979
L240.144 116.917
L240.665 170.811
L241.26 247.475
L241.334 250.634
L241.409 250.121
L241.558 227.923
L242.004 135.451
L242.153 155.555
L242.45 207.78
L242.525 210.476
L242.599 209.301
L242.822 198.972
L242.897 199.189
L243.12 216.38
L243.194 214.04
L243.566 176.755
L243.715 193.067
L244.013 249.321
L244.087 246.951
L244.385 177.594
L244.682 119.573
L244.906 111.13
L244.98 111.812
L245.129 123.602
L245.278 171.196
L245.575 266.384
L245.724 272.97
L245.873 262.878
L246.394 184.151
L246.542 186.047
L246.617 184.536
L246.84 169.369
L247.063 149.285
L247.138 150.134
L247.286 174.78
L247.51 214.317
L247.584 212.678
L247.956 174.207
L248.03 175.037
L248.105 177.861
L248.402 221.989
L248.477 219.511
L248.998 163.78
L249.593 204.433
L249.667 204.294
L249.742 204.067
L249.816 206.032
L250.039 220.251
L250.114 220.567
L250.188 217.862
L250.56 174.198
L250.634 176.212
L251.006 216.627
L251.155 213.971
L251.304 213.26
L251.453 201.559
L252.122 121.893
L252.271 110.933
L252.346 112.74
L252.494 136.883
L253.238 311.272
L253.387 299.394
L253.536 255.038
L253.908 116.196
L253.982 111.575
L254.057 116.66
L254.503 204.057
L254.578 201.707
L254.95 196.306
L255.247 184.23
L255.545 164.392
L255.694 159.514
L255.768 160.028
L256.438 216.153
L256.512 217.259
L256.735 228.18
L256.81 227.341
L256.958 217.96
L257.182 207.879
L257.33 205.074
L257.405 204.966
L257.554 194.618
L257.926 155.861
L258 152.849
L258.074 154.567
L258.595 187.241
L258.67 187.972
L258.893 177.012
L258.967 177.89
L259.116 188.466
L259.265 204.571
L259.488 230.461
L259.637 223.51
L260.009 178.74
L260.381 143.508
L260.53 157.224
L261.125 263.53
L261.274 245.48
L261.794 145.611
L261.943 137.9
L262.018 138.245
L262.166 148.031
L262.762 207.02
L262.91 203.593
L263.059 194.598
L263.357 171.117
L263.431 170.771
L263.58 177.14
L263.952 211.74
L264.026 211.72
L264.101 210.634
L264.25 201.618
L264.398 189.72
L264.547 204.442
L264.77 231.399
L264.845 231.755
L264.994 224.941
L265.663 162.684
L265.738 162.121
L265.812 164.452
L265.886 163.701
L266.11 158.399
L266.258 166.792
L266.556 194.114
L266.779 183.055
L266.854 185.069
L267.226 214.257
L267.374 221.673
L267.449 220.844
L267.598 208.915
L267.895 186.955
L267.97 187.755
L268.118 190.944
L268.267 176.399
L268.49 152.81
L268.639 172.963
L268.937 217.398
L269.086 204.235
L269.309 178.404
L269.383 178.048
L269.755 209.162
L269.83 208.6
L269.978 206.032
L270.053 205.953
L270.202 213.152
L270.35 225.919
L270.425 224.092
L270.574 201.846
L270.946 123.078
L271.094 146.925
L271.392 211.335
L271.466 211.522
L271.615 208.807
L271.764 221.574
L271.913 232.495
L272.062 217.694
L272.508 122.407
L272.582 125.369
L272.806 183.41
L273.029 219.52
L273.252 229.326
L273.401 235.309
L273.475 235.3
L273.624 221.91
L274.219 142.165
L274.294 146.214
L274.74 198.004
L275.112 219.234
L275.484 189.848
L275.558 194.578
L275.856 232.999
L276.005 212.283
L276.302 169.004
L276.377 171.018
L276.6 195.388
L276.749 204.798
L276.823 204.383
L276.898 199.347
L277.418 116.245
L277.567 132.587
L278.237 232.851
L278.683 258.544
L278.758 255.571
L279.055 208.797
L279.278 183.667
L279.427 180.29
L279.502 180.774
L279.874 192.248
L280.022 176.854
L280.469 91.7275
L280.543 89.8415
L280.618 90.5327
L280.766 125.498
L281.287 321.117
L281.362 319.043
L281.51 284.148
L281.882 191.507
L282.106 181.031
L282.254 171.857
L282.478 156.394
L282.626 168.253
L282.775 175.876
L282.998 153.471
L283.222 130.968
L283.296 135.925
L284.114 268.398
L284.189 268.615
L284.338 254.949
L284.561 206.733
L284.933 122.525
L285.007 122.673
L285.379 136.863
L285.454 138.206
L285.677 170.248
L286.049 240.691
L286.272 248.423
L286.346 248.136
L286.421 248.304
L286.718 242.626
L286.867 231.903
L287.314 162.319
L287.537 133.209
L287.611 132.143
L287.686 129.062
L287.834 132.044
L288.504 194.223
L288.876 265.841
L288.95 264.231
L289.099 238.42
L289.397 180.26
L289.471 177.338
L289.546 178.819
L289.694 190.174
L289.843 200.542
L289.992 198.291
L290.141 199.456
L290.29 183.845
L290.736 116.522
L290.81 116.295
L291.406 202.191
L291.778 267.598
L292.373 232.713
L292.596 189.592
L292.894 119.494
L292.968 122.249
L293.489 181.386
L293.712 206.565
L294.01 246.349
L294.233 215.057
L294.53 169.102
L294.679 152.385
L294.977 89.7822
L295.126 134.246
L295.423 221.248
L295.721 182.956
L295.944 220.32
L296.316 278.075
L296.39 278.114
L296.539 270.037
L296.911 229.898
L297.432 73.1144
L297.581 86.3855
L297.878 135.066
L298.399 239.131
L298.548 224.853
L298.846 182.462
L298.92 181.119
L298.994 185.099
L299.292 228.141
L299.366 223.737
L299.59 208.165
L299.962 248.679
L300.11 231.389
L300.557 146.105
L300.631 145.345
L301.226 171.413
L301.301 172.331
L301.375 175.916
L301.598 203.218
L301.673 202.389
L301.896 183.884
L301.97 184.595
L302.119 200.404
L302.342 225.593
L302.417 229.029
L302.491 228.447
L302.714 195.062
L303.012 159.603
L303.235 142.857
L303.458 154.972
L303.682 197.274
L303.905 226.62
L303.979 229.444
L304.054 228.496
L304.426 209.577
L304.649 204.857
L304.946 177.288
L305.021 177.377
L305.17 180.29
L305.244 180.043
L305.542 161.608
L305.616 163.859
L305.765 175.303
L306.137 241.185
L306.211 238.904
L306.583 188.426
L306.658 189.048
L306.955 212.154
L307.178 200.177
L307.253 196.425
L307.327 197.965
L307.625 205.894
L307.774 193.136
L308.443 97.5237
L308.518 98.7975
L308.592 96.6844
L308.815 122.683
L309.038 183.884
L309.559 349.762
L309.634 346.761
L309.782 310.71
L310.303 156.878
L310.378 155.051
L310.452 157.224
L310.898 185.059
L311.047 174.237
L311.419 133.229
L311.494 132.202
L311.568 132.755
L311.717 137.021
L312.014 164.234
L312.535 246.862
L312.61 246.724
L313.13 208.175
L313.577 158.586
L313.651 159.554
L313.8 166.456
L314.246 217.348
L314.395 232.09
L314.47 230.866
L314.618 212.233
L314.99 89.7427
L315.065 91.8361
L315.288 156.157
L315.734 312.783
L315.809 316.022
L316.032 292.501
L316.33 213.675
L316.702 101.947
L316.85 88.2912
L316.925 89.4169
L317.148 96.0722
L317.371 137.929
L317.966 236.702
L318.264 260.321
L318.487 269.395
L318.636 262.375
L318.785 237.699
L319.231 121.963
L319.306 125.004
L319.826 204.926
L319.901 203.889
L320.273 177.249
L320.347 180.843
L320.794 221.89
L320.868 218.375
L321.091 177.782
L321.314 155.13
L321.389 157.994
L321.835 192.495
L322.058 206.921
L322.133 204.344
L322.43 187.745
L322.505 186.402
L322.802 170.198
L322.877 171.591
L323.546 234.194
L323.695 224.497
L324.142 191.626
L324.29 186.846
L324.662 165.202
L324.737 166.742
L324.886 175.106
L325.183 152.504
L325.332 141.602
L325.481 144.239
L325.555 148.682
L325.853 217.881
L326.15 266.048
L326.225 270.699
L326.299 268.378
L326.894 176.794
L327.192 107.704
L327.266 109.788
L327.713 206.358
L327.862 201.599
L328.01 194.173
L328.382 144.446
L328.457 151.329
L328.68 230.333
L328.978 299.176
L329.126 269.099
L329.424 214.188
L329.573 198.903
L329.796 149.571
L330.094 85.5758
L330.168 78.6144
L330.242 79.6907
L330.466 124.925
L330.912 235.981
L331.135 290.26
L331.284 260.44
L331.507 215.551
L331.582 212.411
L331.656 214.248
L331.954 251.316
L332.549 161.489
L332.623 157.757
L333.07 94.6206
L333.144 97.6817
L333.739 291.326
L333.814 326.943
L333.888 325.857
L334.26 183.213
L334.409 204.916
L334.558 221.239
L334.706 188.278
L334.93 133.555
L335.004 130.622
L335.227 138.502
L335.376 149.137
L335.674 234.638
L335.748 233.967
L335.897 205.134
L336.12 166.792
L336.566 213.803
L336.641 213.013
L336.715 210.367
L336.938 183.035
L337.013 183.637
L337.087 188.022
L337.31 230.017
L337.385 228.516
L337.608 200.275
L338.129 111.92
L338.203 116.818
L338.352 150.973
L338.65 243.89
L338.798 257.961
L339.096 232.15
L339.468 191.734
L339.617 185.82
L339.84 164.422
L339.989 146.322
L340.063 146.688
L340.51 175.224
L340.807 224.882
L340.882 225.81
L340.956 222.325
L341.179 193.255
L341.254 193.324
L341.626 210.683
L341.849 234.934
L341.923 229.918
L342.295 160.502
L342.37 160.62
L342.593 177.851
L342.667 174.612
L342.816 159.692
L342.965 172.608
L343.039 171.818
L343.188 153.343
L343.262 153.847
L343.486 174.089
L343.858 224.379
L343.932 225.238
L344.155 223.204
L344.304 218.148
L344.602 226.245
L344.75 218.661
L344.974 190.688
L345.197 157.026
L345.42 166.762
L345.494 167.68
L345.569 165.676
L345.792 150.015
L345.866 151.684
L346.015 161.766
L346.685 226.511
L346.834 219.412
L347.354 179.342
L347.503 187.192
L347.578 186.343
L347.652 182.68
L347.875 159.307
L347.95 161.055
L348.173 203.87
L348.396 231.577
L348.991 201.016
L349.438 151.516
L349.586 158.892
L349.884 190.747
L350.182 169.636
L350.33 188.94
L350.479 205.785
L350.777 187.439
L350.926 205.489
L351.149 230.293
L351.298 234.391
L351.446 208.777
L351.67 170.198
L351.744 172.045
L352.116 198.676
L352.19 197.698
L352.562 180.774
L352.711 172.845
L352.86 174.217
L352.934 173.901
L353.009 174.138
L353.381 196.948
L353.455 192.83
L353.678 160.719
L353.753 161.213
L354.05 206.753
L354.125 205.351
L354.348 195.664
L354.497 204.956
L354.72 217.18
L355.092 190.411
L355.166 191.399
L355.464 215.314
L355.613 195.615
L355.836 172.489
L355.91 172.598
L355.985 172.391
L356.059 173.279
L356.431 188.258
L356.58 183.825
L356.654 184.013
L356.729 186.333
L356.803 185.622
L357.101 171.729
L357.175 176.014
L357.473 234.223
L357.547 228.259
L357.845 185.049
L358.068 202.645
L358.142 202.033
L358.44 189.986
L358.663 195.704
L358.812 188.693
L359.11 176.488
L359.184 176.024
L359.407 163.425
L359.482 164.55
L359.705 176.567
L359.779 175.323
L359.854 174.277
L359.928 178.542
L360.226 231.992
L360.3 229.721
L360.598 201.204
L360.672 203.346
L360.746 202.27
L360.821 203.534
L360.97 191.487
L361.118 182.482
L361.416 209.844
L361.49 208.382
L361.937 168.312
L362.011 169.853
L362.086 169.971
L362.309 181.583
L362.606 201.362
L362.681 199.229
L362.978 177.446
L363.35 203.129
L363.425 201.638
L363.648 187.251
L363.797 188.663
L363.871 191.863
L363.946 191.784
L364.02 188.979
L364.169 192.09
L364.243 192.149
L364.318 193.235
L364.466 204.492
L364.764 225.988
L364.913 205.815
L365.21 159.603
L365.434 180.527
L365.508 181.08
L365.657 175.234
L365.731 175.807
L365.954 188.446
L366.103 174.316
L366.252 154.123
L366.326 154.903
L366.475 179.105
L366.773 233.591
L366.847 232.703
L367.07 224.389
L367.145 224.882
L367.219 224.033
L367.368 214.949
L367.591 200.147
L367.74 205.479
L367.814 204.047
L368.038 168.431
L368.335 116.077
L368.41 114.399
L368.484 114.478
L368.633 127.66
L368.93 206.723
L369.228 262.997
L369.302 264.873
L369.526 258.544
L369.674 245.194
L370.418 127.235
L370.493 130.83
L370.939 172.657
L371.162 201.717
L371.237 201.885
L371.386 209.824
L371.758 250.674
L371.981 211.424
L372.278 172.104
L372.502 161.381
L372.576 162.358
L372.874 177.239
L373.171 195.072
L373.246 195.032
L373.32 195.97
L373.394 198.686
L373.692 225.899
L373.766 227.864
L373.915 209.202
L374.287 155.525
L374.362 154.35
L374.808 180.418
L374.957 176.222
L375.106 188.071
L375.403 211.295
L375.552 208.461
L375.626 209.419
L375.775 220.34
L375.85 218.928
L376.222 166.249
L376.296 168.935
L376.668 214.05
L376.817 201.658
L376.966 192.07
L377.263 196.78
L377.338 196.434
L377.412 194.894
L377.933 162.131
L378.007 163.662
L378.082 164.501
L378.23 170.978
L378.528 214.445
L378.602 223.302
L378.677 223.213
L378.974 183.825
L379.049 184.98
L379.421 212.599
L379.495 211.631
L379.942 173.773
L380.016 175.402
L380.09 173.733
L380.314 178.147
L380.537 183.726
L380.611 184.615
L380.686 181.702
L380.76 183.144
L381.281 229.049
L381.43 213.27
L381.653 186.718
L381.727 188.693
L381.802 187.083
L381.95 189.69
L382.099 197.471
L382.248 189.473
L382.546 162.338
L382.62 163.523
L383.215 202.823
L383.29 200.463
L383.587 173.566
L383.736 188.209
L384.034 225.643
L384.108 226.6
L384.331 208.017
L384.554 180.981
L384.629 177.683
L384.703 178.996
L385.001 202.537
L385.075 200.246
L385.447 170.998
L385.522 171.749
L385.894 201.362
L385.968 199.713
L386.117 191.843
L386.34 179.293
L386.489 190.046
L386.712 215.077
L386.861 195.338
L387.084 169.033
L387.158 171.097
L387.679 207.266
L387.828 201.332
L388.126 181.495
L388.274 180.221
L388.572 194.627
L388.721 188.614
L389.018 173.131
L389.39 215.176
L389.465 216.252
L389.762 207.968
L389.986 193.837
L390.134 199.061
L390.283 185.997
L390.506 150.588
L390.655 146.105
L390.73 147.537
L391.399 223.776
L391.622 242.261
L391.771 239.259
L391.846 240.622
L391.994 232.002
L392.515 155.417
L392.59 156.74
L392.813 162.289
L393.036 155.328
L393.334 159.85
L393.631 171.857
L393.706 173.694
L393.929 204.423
L394.375 290.082
L394.45 287.367
L394.747 210.772
L395.119 122.762
L395.194 114.646
L395.268 115.07
L395.417 138.502
L395.789 213.369
L395.938 226.492
L396.012 226.018
L396.161 216.084
L396.905 136.172
L396.979 136.033
L397.054 139.667
L397.872 228.22
L398.17 243.969
L398.467 233.226
L398.914 199.821
L399.062 184.299
L399.36 128.934
L399.658 153.452
L399.806 168.204
L399.955 158.369
L400.03 160.107
L400.476 230.313
L400.55 229.632
L400.774 215.442
L401.071 181.06
L401.146 181.741
L401.518 196.375
L401.592 194.43
L401.741 192.86
L401.964 196.296
L402.113 202.211
L402.336 212.095
L402.41 209.676
L402.857 166.328
L403.006 181.267
L403.229 205.519
L403.378 201.5
L403.601 205.558
L404.345 175.639
L404.419 177.476
L404.494 176.814
L404.791 146.658
L404.94 163.721
L405.238 199.663
L405.61 228.555
L406.056 192.86
L406.13 195.753
L406.354 207.701
L406.726 183.321
L406.949 161.677
L407.023 162.536
L407.172 178.7
L407.47 207.75
L407.618 211.117
L407.693 211.127
L407.767 209.488
L407.916 194.578
L408.214 151.269
L408.362 149.571
L408.437 149.62
L408.586 164.461
L409.106 260.765
L409.181 259.383
L409.33 252.589
L409.404 255.522
L409.478 254.88
L409.702 205.894
L410.297 89.3083
L410.371 91.2831
L410.52 107.832
L411.115 254.861
L411.19 255.443
L411.413 231.755
L411.785 189.374
L411.859 189.266
L412.008 185.197
L412.157 187.459
L412.231 186.491
L412.454 185.405
L412.529 185.75
L412.901 199.367
L412.975 199.584
L413.124 205.223
L413.422 216.232
L413.645 205.41
L413.868 179.046
L414.166 155.525
L414.463 139.835
L414.538 138.749
L414.612 141.741
L414.761 166.229
L415.207 243.416
L415.282 247.238
L415.505 227.963
L415.654 197.353
L415.877 162.724
L416.026 178.799
L416.323 218.099
L416.398 217.022
L416.844 198.577
L417.142 174.741
L417.216 174
L417.439 160.038
L417.662 141.03
L417.811 145.394
L418.034 181.189
L418.406 248.65
L418.63 257.665
L418.853 248.699
L419.002 227.331
L419.374 151.141
L419.671 136.043
L419.746 135.559
L419.82 137.366
L419.969 158.507
L420.192 194.341
L420.266 195.793
L420.341 194.361
L420.49 187.498
L420.564 188.979
L420.787 202.319
L421.085 187.162
L421.159 187.962
L421.382 204.778
L421.457 203.988
L421.531 201.401
L421.606 202.517
L421.829 211.621
L421.978 206.812
L422.201 193.986
L422.275 194.558
L422.35 198.617
L422.424 198.567
L422.573 196.237
L422.796 187.992
L422.87 189.532
L423.168 205.598
L423.391 179.855
L423.614 164.926
L423.689 165.498
L424.061 189.631
L424.284 183.815
L424.507 190.786
L424.656 200.611
L424.73 200.108
L424.879 196.168
L425.028 206.072
L425.102 211.838
L425.177 209.735
L425.623 177.752
L425.846 182.64
L425.921 182.255
L425.995 183.262
L426.144 181.84
L426.293 184.812
L426.442 197.293
L426.59 205.983
L426.888 182.571
L427.111 191.28
L427.186 189.384
L427.26 189.493
L427.632 208.501
L427.706 206.97
L427.93 194.45
L428.004 194.39
L428.376 213.043
L428.525 203.781
L428.822 176.854
L429.194 157.5
L429.269 157.688
L430.162 206.753
L430.236 204.413
L430.385 193.413
L430.459 195.565
L430.757 215.946
L430.98 203.238
L431.054 204.018
L431.278 199.742
L431.352 200.601
L431.426 201.036
L431.501 200.69
L431.575 199.298
L431.65 200.957
L431.724 200.759
L431.947 189.325
L432.394 157.085
L432.468 155.387
L432.691 160.265
L433.286 215.67
L433.361 217.704
L433.807 189.473
L433.882 194.272
L434.03 199.268
L434.179 201.085
L434.402 188.446
L434.626 175.363
L434.849 169.211
L434.923 171.117
L435.146 188.831
L435.221 189.088
L435.37 193.344
L435.593 199.367
L435.667 200.335
L435.742 199.515
L435.816 200.068
L435.965 208.748
L436.114 206.852
L436.262 212.559
L436.337 212.233
L436.634 200.572
L436.932 176.636
L437.155 169.932
L437.304 170.396
L437.453 174.987
L438.048 197.017
L438.271 209.33
L438.494 199.031
L438.569 199.604
L438.718 202.784
L438.792 200.532
L439.09 179.628
L439.313 176.577
L439.462 180.004
L439.685 186.896
L440.206 210.308
L440.28 210.634
L440.578 201.836
L440.801 190.431
L440.95 183.114
L441.247 168.332
L441.396 179.599
L441.768 204.541
L441.917 206.2
L441.991 205.519
L442.214 201.549
L442.289 199.239
L442.512 178.285
L442.586 181.307
L442.735 191.083
L442.81 189.72
L443.033 181.1
L443.33 172.084
L443.554 181.771
L444 204.679
L444.223 210.693
L444.818 195.24
L444.893 195.526
L445.19 200.453
L445.265 199.624
L445.934 166.871
L446.083 172.045
L446.158 171.759
L446.232 171.818
L446.976 209.202
L447.05 209.439
L447.125 209.133
L447.422 203.188
L447.72 179.125
L447.943 187.893
L448.018 189.927
L448.092 189.473
L448.166 189.078
L448.241 189.799
L448.464 183.163
L448.836 196.79
L448.91 197.451
L449.059 200.809
L449.134 199.969
L449.431 189.878
L449.58 192.287
L449.878 168.628
L449.878 168.628" style="fill:none;stroke:#808080;stroke-linecap:square;"/>
   </g>
  </g>
 </g>
 <defs>
  <clipPath id="p7ff5b81e1d">
   <rect height="345.6" width="446.4" x="72.0" y="43.2"/>
  </clipPath>
 </defs>
</svg>
