<?xml version="1.0" encoding="utf-8" standalone="no"?>
<!DOCTYPE svg PUBLIC "-//W3C//DTD SVG 1.1//EN"
  "http://www.w3.org/Graphics/SVG/1.1/DTD/svg11.dtd">
<!-- Created with matplotlib (http://matplotlib.org/) -->
<svg height="432pt" version="1.1" viewBox="0 0 576 432" width="576pt" xmlns="http://www.w3.org/2000/svg" xmlns:xlink="http://www.w3.org/1999/xlink">
 <defs>
  <style type="text/css">
*{stroke-linecap:butt;stroke-linejoin:round;}
  </style>
 </defs>
 <g id="figure_1">
  <g id="patch_1">
   <path d="
M0 432
L576 432
L576 0
L0 0
z
" style="fill:#ffffff;"/>
  </g>
  <g id="axes_1">
   <g id="line2d_1">
    <path clip-path="url(#p7ff5b81e1d)" d="
M72 181.095
L72.0744 171.786
L72.1488 177.247
L72.2976 217.256
L72.372 216.807
L72.6696 179.539
L72.9672 242.623
L73.0416 234.974
L73.2648 210.286
L73.488 248.475
L73.6368 224.329
L73.86 198.305
L73.9344 203.513
L74.0832 231.437
L74.1576 230.884
L74.3808 196.601
L74.4552 199.388
L74.7528 248.199
L75.0504 205.667
L75.1248 207.833
L75.348 235.492
L75.6456 188.917
L75.9432 232.739
L76.0176 229.202
L76.2408 199.745
L76.3152 201.462
L76.5384 247.346
L76.6128 241.091
L76.9104 185.184
L77.1336 231.76
L77.208 230.665
L77.5056 187.868
L77.7288 245.238
L77.8032 241.275
L78.1008 183.986
L78.324 228.88
L78.3984 224.963
L78.6216 178.871
L78.696 180.081
L78.9936 268.831
L79.068 253.555
L79.2912 203.985
L79.5888 253.878
L79.7376 220.251
L79.8864 194.677
L80.184 258.774
L80.4816 170.577
L80.6304 199.181
L80.7792 213.143
L81.0024 162.329
L81.0768 164.137
L81.3744 277.402
L81.4488 272.702
L81.672 204.284
L81.7464 206.496
L81.9696 233.603
L82.2672 161.776
L82.5648 262.184
L82.6392 257.38
L82.8624 188.525
L82.9368 192.476
L83.16 238.775
L83.4576 178.549
L83.6064 218.051
L83.7552 269.879
L83.8296 268.865
L84.1272 202.81
L84.3504 269.971
L84.4248 261.758
L84.7224 171.752
L84.8712 192.649
L85.02 215.747
L85.2432 175.035
L85.3176 177.788
L85.5408 241.252
L85.6152 233.326
L85.8384 179.528
L85.9872 205.402
L86.2104 257.23
L86.2848 250.169
L86.508 203.248
L86.5824 212.798
L86.8056 261.988
L87.1032 177.281
L87.1776 186.567
L87.4752 237.139
L87.6984 196.612
L87.7728 203.904
L87.996 260.801
L88.2936 184.954
L88.368 191.14
L88.5912 206.865
L88.74 212.187
L88.9632 182.201
L89.112 223.868
L89.2608 247.957
L89.484 199.331
L89.5584 203.225
L89.7816 225.758
L89.856 228.903
L89.9304 228.833
L90.1536 203.95
L90.228 209.238
L90.4512 251.989
L90.6744 187.891
L90.7488 192.281
L91.1952 240.768
L91.4184 198.317
L91.4928 210.344
L91.6416 258.659
L91.8648 183.813
L91.9392 186.129
L92.1624 212.867
L92.2368 216.899
L92.3856 239.201
L92.46 236.633
L92.6088 206.704
L92.6832 210.252
L92.832 261.677
L92.9064 250.134
L93.1296 169.194
L93.2784 197.545
L93.3528 192.2
L93.4272 174.908
L93.5016 177.8
L93.6504 204.837
L93.7992 184.816
L93.8736 188.732
L94.0968 287.816
L94.1712 259.949
L94.32 206.254
L94.4688 226.138
L94.5432 225.884
L94.692 213.558
L94.8408 228.983
L94.9152 220.677
L95.064 184.021
L95.1384 201.024
L95.2872 272.563
L95.5104 213.788
L95.5848 217.475
L95.7336 232.508
L95.8824 207.003
L96.0312 238.13
L96.1056 231.402
L96.2544 196.52
L96.3288 198.974
L96.4776 252.346
L96.552 243.303
L96.7008 167.086
L96.7752 169.598
L96.924 219.318
L97.0728 191.635
L97.1472 201.162
L97.2216 218.558
L97.296 213.328
L97.4448 185.772
L97.5192 188.122
L97.7424 236.897
L97.8912 178.145
L97.9656 180.438
L98.1144 217.705
L98.2632 201.785
L98.4864 252.737
L98.6352 219.433
L98.7096 205.529
L98.9328 273.623
L99.156 187.546
L99.3048 221.104
L99.3792 216.092
L99.4536 201.22
L99.528 203.144
L99.6768 230.688
L99.9 196.819
L100.123 256.585
L100.346 192.845
L100.421 206.761
L100.57 242.992
L100.718 220.159
L100.867 252.323
L101.09 193.824
L101.165 202.844
L101.314 249.823
L101.388 242.197
L101.611 164.218
L101.76 200.068
L101.909 186.382
L102.058 211.6
L102.132 205.171
L102.281 178.768
L102.43 214.629
L102.578 243.314
L102.727 192.016
L102.802 192.407
L102.95 227.762
L103.099 205.736
L103.248 229.433
L103.322 237.669
L103.546 215.09
L103.769 265.352
L103.992 198.444
L104.141 223.615
L104.215 221.461
L104.29 216.127
L104.438 227.025
L104.513 221.069
L104.662 177.65
L104.736 181.164
L104.959 253.29
L105.182 202.706
L105.257 212.199
L105.48 231.068
L105.629 249.063
L105.778 220.954
L105.926 189.02
L106.15 229.098
L106.224 220.101
L106.447 178.065
L106.819 232.036
L107.042 181.348
L107.117 182.765
L107.34 249.086
L107.414 242.047
L107.638 180.127
L107.861 212.97
L108.01 246.816
L108.084 242.001
L108.233 207.429
L108.307 208.754
L108.605 262.714
L108.902 195.23
L108.977 197.476
L109.2 255.525
L109.274 248.786
L109.498 182.489
L109.646 220.804
L109.795 255.825
L110.167 164.31
L110.39 253.072
L110.465 252.185
L110.688 176.222
L110.762 184.7
L110.986 253.509
L111.06 245.595
L111.358 152.548
L111.506 214.019
L111.655 270.455
L111.804 209.054
L111.953 159.679
L112.25 288.761
L112.325 275.593
L112.548 170.128
L112.622 175.795
L112.846 278.611
L112.92 266.504
L113.143 159.886
L113.218 167.409
L113.515 281.273
L113.664 223.926
L113.813 164.206
L113.887 174.148
L114.11 258.924
L114.259 205.863
L114.408 151.004
L114.482 157.087
L114.78 266.204
L114.929 207.498
L115.078 159.356
L115.375 248.21
L115.45 236.333
L115.673 194.009
L115.747 194.746
L116.045 229.582
L116.268 183.364
L116.566 225.665
L116.789 261.193
L116.863 253.671
L117.086 214.733
L117.31 256.931
L117.384 251.966
L117.682 212.302
L117.756 212.337
L117.979 254.304
L118.054 246.92
L118.351 173.468
L118.574 193.363
L118.649 192.695
L118.798 180.208
L118.946 166.165
L119.021 167.708
L119.244 229.098
L119.318 224.583
L119.542 169.217
L119.616 170.565
L119.988 259.35
L120.062 255.929
L120.286 231.172
L120.36 231.518
L120.509 234.467
L120.806 217.187
L121.03 238.798
L121.253 263.831
L121.476 240.284
L121.55 241.171
L121.625 242.128
L121.699 237.485
L122.071 184.332
L122.146 182.627
L122.443 224.352
L122.518 220.654
L122.89 161.269
L123.038 172.42
L123.262 193.294
L123.336 191.843
L123.41 193.075
L123.559 223.661
L123.782 267.114
L123.857 261.274
L124.229 201.335
L124.303 199.987
L124.378 201.45
L124.526 198.663
L124.601 194.158
L124.675 197.349
L124.973 245.526
L125.047 243.556
L125.196 230.135
L125.419 258.555
L125.494 256.654
L125.94 200.137
L126.386 225.089
L126.61 231.587
L126.684 230.308
L126.907 213.927
L127.279 170.992
L127.577 183.168
L127.949 233.488
L128.023 230.7
L128.246 217.555
L128.395 226.046
L128.544 209.987
L128.767 193.686
L128.916 204.492
L129.288 256.85
L129.437 244.754
L129.734 219.548
L129.958 200.402
L130.032 200.84
L130.181 220.067
L130.404 238.28
L130.478 241.713
L130.553 241.448
L130.85 226.207
L131.148 189.354
L131.222 188.848
L131.52 205.851
L131.669 204.123
L131.743 203.835
L131.818 204.377
L131.966 214.203
L132.041 212.682
L132.338 193.006
L132.413 194.7
L132.487 199.861
L132.562 199.342
L132.636 198.651
L132.785 201.623
L133.306 240.734
L133.38 238.625
L133.529 228.511
L133.603 228.822
L133.826 238.798
L133.901 236.045
L134.124 218.074
L134.198 218.627
L134.422 237.785
L134.57 224.79
L134.645 225.827
L134.719 225.47
L135.017 229.502
L135.166 209.941
L135.389 180.311
L135.538 174.609
L135.761 190.783
L135.835 190.253
L135.91 190.967
L136.058 209.169
L136.282 233.568
L136.579 208.547
L136.728 214.526
L136.951 205.517
L137.026 208.593
L137.323 240.377
L137.472 237.877
L137.695 222.958
L137.77 225.654
L137.918 230.17
L138.29 208.512
L138.365 209.48
L138.588 231.045
L138.662 229.939
L138.886 222.129
L139.481 192.211
L139.555 194.297
L139.778 206.047
L139.927 216.15
L140.15 198.098
L140.225 201.439
L140.522 224.064
L140.746 225.815
L140.969 236.022
L141.043 233.384
L141.341 207.475
L141.415 207.521
L141.638 215.804
L141.862 206.634
L141.936 207.28
L142.159 215.943
L142.234 220.608
L142.308 219.03
L142.457 211.058
L142.531 213.051
L142.903 235.745
L142.978 237.289
L143.126 231.495
L143.201 231.771
L143.35 234.72
L143.945 196.773
L144.019 196.992
L144.168 198.547
L144.391 204.918
L144.689 212.763
L145.061 200.206
L145.21 207.314
L145.358 206.427
L145.433 207.429
L145.582 219.675
L145.805 239.939
L145.879 240.826
L145.954 239.559
L146.028 239.731
L146.102 240.929
L146.326 247.634
L146.4 246.321
L146.846 216.876
L146.921 213.662
L146.995 214.86
L147.07 215.966
L147.516 182.35
L147.665 183.249
L148.186 208.201
L148.26 207.614
L148.409 203.708
L148.483 204.964
L148.781 221.875
L149.004 236.345
L149.227 234.962
L149.376 240.238
L149.45 239.075
L149.897 199.469
L149.971 201.738
L150.046 201.692
L150.269 197.925
L150.418 212.602
L150.715 240.434
L150.79 241.828
L150.938 240.273
L151.013 242.3
L151.087 242.174
L151.534 218.581
L151.608 216.058
L151.682 216.553
L151.757 216.691
L151.98 205.425
L152.203 186.993
L152.278 187.35
L152.352 189.424
L152.65 209.123
L152.873 196.612
L153.022 200.644
L153.245 205.436
L153.394 210.321
L153.84 237.704
L154.063 222.935
L154.138 223.097
L154.212 223.534
L154.361 221.449
L154.584 216.081
L154.658 217.083
L154.882 230.608
L155.254 208.57
L155.328 207.821
L155.551 226.829
L155.7 221.104
L155.923 234.064
L155.998 231.46
L156.146 225.251
L156.295 227.393
L156.593 212.129
L156.89 180.323
L156.965 180.599
L157.039 181.601
L157.411 207.187
L157.56 210.355
L157.783 226.184
L157.932 224.997
L158.006 228.557
L158.23 202.683
L158.304 204.089
L158.527 218.154
L158.825 238.476
L158.899 237.105
L158.974 237.612
L159.048 238.361
L159.197 230.331
L159.42 219.767
L159.792 207.326
L159.866 206.45
L159.941 207.084
L160.09 214.883
L160.238 224.698
L160.313 224.318
L160.462 212.394
L160.61 202.775
L160.908 209.353
L160.982 208.8
L161.131 212.867
L161.429 219.617
L161.503 220.366
L161.652 212.947
L161.875 193.087
L161.95 194.285
L162.322 217.625
L162.545 236.978
L162.619 236.736
L162.768 231.633
L162.917 221.184
L163.066 225.124
L163.438 234.939
L163.512 235.907
L164.033 211.3
L164.182 208.351
L164.628 184.009
L164.702 184.769
L165 198.824
L165.223 220.862
L165.298 224.133
L165.521 246.816
L165.818 237.185
L166.339 201.162
L166.414 201.37
L166.637 213.881
L166.786 210.275
L167.009 214.883
L167.083 214.56
L167.306 210.759
L167.381 210.966
L167.53 217.118
L167.976 249.454
L168.05 248.59
L168.422 219.859
L168.646 193.985
L168.72 191.774
L169.166 210.874
L169.241 209.273
L169.762 178.376
L169.836 179.321
L170.059 205.068
L170.357 244.074
L170.431 244.109
L170.506 243.406
L170.729 239.628
L170.878 220.343
L171.101 196.278
L171.175 197.914
L171.324 211.035
L171.622 241.655
L171.696 241.31
L171.919 237.888
L172.068 220.746
L172.291 197.776
L172.589 221.461
L172.812 242.945
L172.886 239.029
L173.407 176.844
L173.63 166.349
L173.779 181.959
L174.151 241.632
L174.226 244.397
L174.374 236.206
L174.746 195.46
L174.821 199.757
L175.193 239.536
L175.416 249.04
L175.565 226.115
L175.788 201.139
L176.011 184.769
L176.16 199.354
L176.606 248.245
L176.681 246.217
L176.83 226.069
L177.053 199.285
L177.127 200.794
L177.276 196.889
L177.35 199.331
L177.797 241.505
L177.871 237.842
L178.094 210.367
L178.318 185.173
L178.466 187.143
L178.541 186.359
L178.69 199.193
L178.987 247.312
L179.062 245.468
L179.285 226.08
L179.582 190.288
L179.731 186.348
L179.88 201.093
L180.178 235.492
L180.252 241.379
L180.326 241.171
L180.55 220.424
L180.773 192.96
L180.847 195.011
L181.219 225.47
L181.517 248.037
L181.591 249.224
L181.74 236.252
L182.112 196.001
L182.335 204.377
L182.782 238.787
L183.377 180.023
L183.451 182.846
L183.526 182.742
L183.6 180.565
L183.674 182.592
L183.898 223.385
L183.972 221.772
L184.046 217.694
L184.121 218.753
L184.195 220.885
L184.27 219.479
L184.493 196.865
L184.567 197.741
L184.716 207.671
L184.939 226.99
L185.014 223.12
L185.162 241.667
L185.386 265.813
L185.46 262.23
L185.981 202.867
L186.055 201.854
L186.13 198.352
L186.204 199.815
L186.576 252.576
L186.65 247.922
L187.32 153.665
L187.394 158.999
L187.841 239.754
L187.915 244.432
L188.064 236.241
L188.213 221.207
L188.51 181.705
L188.734 208.593
L189.254 255.145
L189.403 235.308
L189.701 199.296
L189.775 197.914
L189.85 198.329
L190.073 222.912
L190.296 252.876
L190.37 253.636
L190.445 255.664
L190.519 255.641
L190.668 238.856
L191.114 164.356
L191.189 164.391
L191.263 167.374
L191.635 220.286
L191.71 224.007
L191.858 203.432
L192.23 241.436
L192.305 242.519
L192.454 197.349
L192.528 200.022
L192.677 192.476
L192.9 224.629
L192.974 235.285
L193.049 230.815
L193.123 232.773
L193.198 242.657
L193.272 240.929
L193.495 225.239
L193.793 194.55
L193.867 197.706
L193.942 194.826
L194.09 207.637
L194.239 224.859
L194.388 237.646
L194.462 237.508
L194.611 243.049
L194.909 204.089
L194.983 218.903
L195.058 216.231
L195.132 215.079
L195.206 215.171
L195.281 202.775
L195.355 202.925
L195.504 209.825
L195.578 206.346
L195.653 206.992
L195.727 208.812
L195.802 215.355
L195.95 203.616
L196.025 204.676
L196.099 207.971
L196.174 219.122
L196.248 215.574
L196.322 218.535
L196.397 211.934
L196.471 194.849
L196.546 208.247
L196.62 207.809
L196.694 198.006
L196.769 206.462
L196.843 202.245
L196.918 205.575
L196.992 223.35
L197.066 222.947
L197.141 226.794
L197.29 244.535
L197.364 243.268
L197.513 251.689
L197.81 222.359
L197.885 219.272
L198.034 195.034
L198.108 201.715
L198.182 201.162
L198.257 188.041
L198.703 234.628
L198.778 253.682
L198.852 246.448
L198.926 223.304
L199.001 228.073
L199.075 226.138
L199.298 180.945
L199.522 202.418
L199.596 197.246
L199.67 219.479
L199.745 216.3
L199.819 196.439
L199.894 205.966
L199.968 223.477
L200.042 220.631
L200.117 219.502
L200.191 231.898
L200.489 185.104
L200.563 186.958
L200.712 189.078
L201.233 249.005
L201.307 235.653
L201.382 236.563
L201.53 247.45
L201.605 247.542
L202.126 192.407
L202.2 197.534
L202.274 196.52
L202.349 198.513
L202.572 216.83
L202.721 208.789
L202.795 218.316
L202.87 216.956
L202.944 215.931
L203.167 256.182
L203.688 181.532
L203.911 209.664
L203.986 212.314
L204.06 228.177
L204.134 217.636
L204.283 180.104
L204.432 208.524
L204.581 195.356
L205.027 226.99
L205.176 218.604
L205.399 260.652
L205.474 254.258
L205.771 197.119
L205.846 195.437
L205.994 216.15
L206.069 217.843
L206.143 213.8
L206.218 213.834
L206.515 220.931
L206.664 243.763
L206.738 242.83
L206.813 243.107
L207.334 189.919
L207.482 222.175
L207.557 218.085
L207.631 213.973
L207.706 216.012
L207.854 193.951
L208.003 179.228
L208.078 200.586
L208.152 193.663
L208.226 187.914
L208.375 196.497
L208.45 199.642
L208.673 217.82
L208.747 221.196
L208.822 218.465
L209.045 251.274
L209.119 258.233
L209.268 240.895
L209.342 241.229
L209.491 224.986
L209.566 242.588
L209.64 240.538
L210.086 182.88
L210.161 183.203
L210.235 186.613
L210.384 177.351
L210.458 176.786
L210.905 245.445
L211.277 217.371
L211.574 243.095
L211.723 225.182
L211.798 224.306
L211.946 240.123
L212.095 227.048
L212.17 240.008
L212.393 214.56
L212.467 212.129
L212.616 174.759
L212.765 177.973
L212.988 201.255
L213.137 248.337
L213.286 231.057
L213.36 234.478
L213.509 218.995
L213.658 203.524
L213.732 212.59
L213.806 209.998
L213.881 210.079
L213.955 215.021
L214.03 207.395
L214.178 217.866
L214.476 204.135
L214.55 237.543
L214.625 235.123
L214.699 220.228
L214.774 224.951
L214.922 204.526
L215.071 179.539
L215.146 190.553
L215.22 189.493
L215.369 182.281
L215.518 224.295
L215.592 222.302
L215.666 218.051
L215.815 235.964
L215.89 228.257
L216.187 263.9
L216.41 222.832
L216.559 216.737
L216.634 220.758
L216.708 217.924
L216.857 231.541
L216.931 227.14
L217.006 231.391
L217.08 243.694
L217.154 238.153
L217.229 227.186
L217.378 191.025
L217.452 188.836
L217.526 176.844
L217.675 196.727
L217.75 195.057
L217.824 199.262
L217.898 184.32
L217.973 195.287
L218.047 195.172
L218.122 189.02
L218.494 234.686
L218.866 205.482
L218.94 209.733
L219.163 225.331
L219.312 222.855
L219.386 230.965
L219.461 212.06
L219.535 216.864
L219.61 223.822
L219.684 219.537
L219.758 225.297
L219.907 216.83
L219.982 222.567
L220.056 217.97
L220.13 199.342
L220.502 236.149
L220.651 226.576
L220.874 250.618
L220.949 253.037
L221.321 198.282
L221.395 208.581
L221.47 208.028
L221.618 213.961
L221.767 182.823
L221.916 165.162
L222.214 222.405
L222.362 235.78
L222.511 224.652
L222.586 214.099
L222.66 223.799
L222.809 217.152
L222.883 218.834
L222.958 215.85
L223.106 196.981
L223.181 203.374
L223.255 199.342
L223.33 201.162
L223.627 235.319
L223.776 237.761
L223.85 246.943
L223.999 237.036
L224.297 195.103
L224.371 196.739
L224.594 221.392
L224.669 222.901
L225.041 190.587
L225.264 227.059
L225.338 224.963
L225.636 204.423
L225.71 205.114
L226.231 240.204
L226.454 231.564
L226.529 224.421
L226.678 232.785
L226.752 230.435
L226.826 232.255
L226.901 226.737
L227.198 175.208
L227.273 176.648
L227.719 239.973
L227.794 237.727
L228.017 208.247
L228.091 191.025
L228.463 228.891
L228.761 197.891
L229.133 244.881
L229.282 234.064
L229.579 195.149
L229.728 193.594
L229.877 204.883
L230.1 220.193
L230.174 220.09
L230.323 217.498
L230.546 214.145
L230.621 214.226
L230.695 215.021
L230.77 223.523
L230.844 255.306
L230.918 249.857
L231.067 173.63
L231.142 177.063
L231.216 131.052
L231.514 319.461
L231.588 261.861
L231.811 142.007
L231.96 311.455
L232.034 297.735
L232.183 209.687
L232.258 161.902
L232.332 168.999
L232.481 237.404
L232.704 338.585
L232.778 318.425
L233.002 86.9532
L233.076 99.0492
L233.15 129.946
L233.225 107.102
L233.671 271.031
L233.82 352.581
L233.894 328.021
L234.118 186.832
L234.192 179.332
L234.341 217.267
L234.49 138.747
L234.564 149.392
L234.713 192.234
L234.936 283.15
L235.01 301.663
L235.085 299.336
L235.234 257.818
L235.308 273.692
L235.457 251.85
L235.531 263.589
L235.829 140.348
L235.978 154.011
L236.275 221.115
L236.35 195.253
L236.424 204.549
L236.498 232.186
L236.573 222.256
L236.647 218.684
L236.796 171.763
L236.87 186.993
L236.945 183.998
L237.094 154.126
L237.168 172.455
L237.242 167.144
L237.317 149.265
L237.391 163.204
L237.689 327.479
L237.763 317.779
L237.912 334.403
L238.135 283.289
L238.284 212.014
L238.507 139.254
L238.582 150.497
L238.73 109.613
L238.954 235.63
L239.028 229.548
L239.102 216.334
L239.251 248.037
L239.326 245.756
L239.474 236.218
L239.549 216.161
L239.698 102.885
L239.772 102.989
L239.995 125.706
L240.218 293.115
L240.293 298.771
L240.367 293.057
L240.516 350.346
L240.814 282.183
L241.111 105.8
L241.26 182.938
L241.409 300.96
L241.483 300.799
L241.558 284.164
L241.632 285.04
L241.706 282.044
L241.855 248.717
L242.153 133.229
L242.45 55.9644
L242.748 224.64
L242.822 221.633
L242.897 204.791
L243.046 216.415
L243.12 210.54
L243.343 236.195
L243.492 209.883
L243.715 261.447
L243.864 298.357
L243.938 299.728
L244.013 288.553
L244.162 242.807
L244.236 246.966
L244.534 323.528
L244.608 317.86
L244.906 110.742
L244.98 116.698
L245.278 178.48
L245.501 106.825
L245.575 117.596
L245.947 273.785
L246.022 265.329
L246.319 188.525
L246.468 217.06
L246.542 214.019
L246.766 154.149
L246.84 168.665
L247.212 335.071
L247.584 200.713
L247.658 216.415
L247.882 273.427
L248.179 210.01
L248.328 239.351
L248.402 237.497
L248.626 152.594
L248.774 119.831
L249.146 213.143
L249.221 208.455
L249.444 167.801
L249.742 257.691
L249.816 244.397
L250.039 173.249
L250.114 181.118
L250.411 296.974
L250.56 246.079
L250.709 182.419
L250.783 183.79
L251.006 239.651
L251.081 231.898
L251.304 155.635
L251.378 164.817
L251.676 272.609
L251.899 181.406
L251.974 183.986
L252.271 308.402
L252.346 296.963
L252.643 151.016
L252.866 203.386
L252.941 200.46
L253.164 132.365
L253.238 147.479
L253.536 351.948
L253.61 341.672
L253.908 186.233
L254.057 228.592
L254.206 259.753
L254.503 143.125
L254.578 160.255
L254.801 237.808
L254.875 221.795
L255.173 86.0776
L255.545 232.336
L255.694 211.715
L255.768 216.542
L256.066 338.769
L256.14 325.648
L256.512 166.395
L256.81 233.787
L257.033 193.513
L257.107 194.343
L257.33 253.878
L257.405 268.232
L257.479 261.043
L257.702 183.122
L257.777 185.587
L258.149 265.26
L258.298 249.397
L258.372 250.03
L258.521 257.484
L258.67 233.119
L258.967 101.526
L259.116 134.542
L259.265 166.775
L259.414 151.315
L259.488 152.905
L259.711 232.324
L259.86 269.188
L260.083 224.306
L260.158 230.907
L260.53 303.472
L260.827 197.177
L260.902 199.158
L261.125 232.935
L261.199 223.062
L261.497 173.699
L261.646 165.278
L261.794 183.583
L262.315 284.521
L262.538 256.263
L262.91 182.984
L262.985 182.834
L263.282 194.078
L263.357 192.2
L263.506 185.875
L263.729 208.362
L263.952 193.191
L264.026 195.529
L264.324 234.248
L264.547 221.069
L264.77 234.075
L264.994 254.684
L265.44 213.5
L265.663 200.713
L265.738 201.508
L265.886 210.482
L266.11 229.294
L266.333 180.473
L266.407 181.256
L266.854 240.48
L266.928 239.582
L267.002 238.407
L267.077 241.229
L267.151 248.556
L267.226 248.256
L267.374 225.136
L267.598 191.163
L267.672 188.41
L267.895 209.802
L268.416 237.808
L268.788 197.764
L269.16 183.571
L269.234 181.889
L269.458 216.161
L269.606 236.275
L269.681 234.663
L269.83 226.898
L269.904 229.168
L270.053 225.896
L270.202 228.903
L270.276 228.027
L270.35 228.857
L270.425 228.787
L270.574 224.018
L270.648 224.479
L270.722 224.525
L270.871 221.057
L270.946 220.551
L271.02 220.712
L271.094 220.873
L271.169 219.053
L271.243 219.698
L271.466 237.934
L271.541 237.151
L272.21 171.049
L272.285 171.717
L272.434 188.444
L272.731 231.011
L273.029 216.853
L273.103 217.59
L273.401 233.28
L273.475 234.789
L273.698 243.74
L274.145 222.636
L274.517 186.44
L274.591 189.942
L274.889 216.092
L275.038 220.067
L275.261 234.605
L275.335 230.412
L275.484 205.609
L275.558 206.565
L275.707 217.371
L275.782 225.216
L275.856 224.801
L276.154 192.165
L276.451 212.153
L276.674 204.595
L277.046 236.437
L277.121 234.34
L277.27 218.857
L277.418 199.227
L277.493 200.437
L277.716 217.613
L277.79 219.813
L278.162 248.729
L278.237 248.083
L278.46 221.253
L278.683 196.151
L278.758 196.174
L278.832 195.771
L278.981 190.23
L279.13 207.199
L279.278 218.972
L279.353 221.081
L279.576 233.753
L279.874 213.339
L280.022 191.059
L280.171 194.297
L280.246 192.499
L280.469 201.162
L280.841 224.755
L281.064 205.92
L281.362 233.257
L281.51 227.29
L281.734 212.141
L281.882 219.986
L282.18 208.305
L282.626 235.515
L282.701 235.008
L282.775 231.69
L282.85 232.819
L282.924 234.743
L282.998 234.259
L283.073 234.513
L283.147 236.022
L283.817 183.617
L283.891 186.451
L284.114 222.59
L284.189 220.286
L284.338 214.295
L284.412 214.687
L284.561 223.684
L284.635 229.179
L284.71 225.953
L285.007 188.801
L285.082 195.794
L285.23 203.893
L285.379 196.647
L285.454 197.119
L285.602 216.426
L285.751 242.105
L285.826 241.171
L286.049 210.609
L286.123 198.628
L286.198 202.268
L286.421 235.227
L286.57 230.561
L286.867 217.924
L286.942 218.477
L287.09 225.331
L287.239 219.18
L287.462 230.803
L287.611 221.587
L287.76 223.719
L287.909 214.48
L287.983 216.473
L288.132 223.004
L288.504 202.291
L288.727 220.09
L288.95 197.476
L289.025 200.621
L289.099 200.679
L289.174 198.271
L289.248 199.538
L289.397 209.319
L289.546 199.146
L289.843 234.34
L289.918 229.847
L290.066 225.631
L290.141 226.518
L290.29 215.079
L290.513 196.635
L290.587 192.845
L290.662 196.819
L290.885 229.363
L290.959 227.532
L291.034 227.543
L291.182 228.281
L291.331 224.318
L291.48 226.299
L291.629 219.641
L291.778 225.193
L291.926 209.802
L292.001 210.471
L292.15 216.542
L292.224 215.643
L292.298 220.528
L292.522 243.326
L292.968 205.079
L293.117 200.621
L293.191 200.828
L293.34 187.212
L293.414 187.949
L293.489 196.958
L293.563 196.889
L293.638 194.93
L293.786 204.031
L293.861 203.109
L293.935 197.107
L294.01 198.87
L294.53 242.047
L294.605 240.515
L294.679 235.976
L294.828 216.219
L294.902 217.82
L295.274 232.52
L295.423 230.273
L295.721 199.193
L295.795 202.176
L295.87 207.176
L296.018 200.84
L296.093 203.121
L296.316 221.426
L296.465 224.318
L296.614 239.19
L296.688 238.948
L296.986 209.895
L297.06 206.969
L297.134 207.303
L297.432 214.33
L297.581 212.118
L297.804 222.233
L297.878 221.945
L298.325 193.283
L298.399 193.928
L298.474 194.158
L298.622 191.589
L298.697 193.928
L299.143 239.236
L299.292 236.725
L299.441 234.928
L299.59 241.621
L299.887 220.562
L299.962 221.392
L300.259 209.883
L300.334 211.98
L300.482 218.846
L300.706 213.235
L300.854 220.032
L301.003 219.076
L301.375 193.721
L301.45 190.771
L301.524 192.649
L301.747 205.148
L301.896 205.759
L302.417 219.848
L302.491 219.399
L302.566 220.528
L302.938 236.54
L303.086 237.554
L303.161 237.6
L303.235 236.229
L303.533 205.736
L303.607 205.621
L303.756 206.531
L303.905 205.31
L304.128 210.332
L304.574 236.748
L304.649 235.504
L304.946 217.118
L305.021 216.53
L305.244 206.554
L305.318 207.948
L305.467 205.678
L305.542 207.187
L305.69 214.169
L305.765 211.035
L305.914 217.578
L305.988 216.68
L306.211 207.015
L306.36 205.609
L306.583 207.833
L306.658 206.519
L306.806 198.098
L306.955 211.726
L307.178 223.742
L307.327 228.35
L307.476 230.585
L307.55 229.248
L307.699 224.467
L307.848 233.165
L307.922 231.333
L308.071 220.885
L308.294 222.186
L308.443 219.191
L308.964 200.874
L309.113 211.669
L309.41 231.944
L309.782 218.88
L309.931 209.733
L310.08 202.729
L310.229 201.162
L310.303 200.656
L310.452 195.909
L310.526 197.706
L310.601 196.889
L310.675 195.333
L310.824 205.747
L311.122 226.334
L311.27 229.582
L311.345 229.34
L311.419 227.221
L311.642 211.853
L311.717 211.934
L312.238 243.015
L312.312 241.171
L312.684 199.792
L312.758 201.416
L312.907 209.941
L312.982 209.008
L313.205 202.602
L313.279 201.427
L313.354 201.589
L313.577 212.636
L313.8 220.309
L313.949 228.88
L314.023 228.776
L314.246 231.702
L314.395 229.444
L314.618 218.949
L314.916 194.849
L314.99 195.287
L315.139 203.201
L315.362 195.137
L315.511 200.69
L315.586 200.552
L315.734 195.852
L316.255 239.904
L316.33 236.598
L316.627 223.914
L316.776 219.871
L317.222 240.722
L318.264 194.32
L318.487 197.626
L318.859 211.381
L319.082 214.491
L319.157 213.662
L319.306 208.708
L319.529 213.892
L319.826 207.545
L319.901 208.65
L320.05 214.606
L320.124 216.185
L320.347 238.188
L320.496 246.16
L320.645 232.704
L320.868 220.435
L320.942 220.931
L321.091 224.168
L321.314 216.772
L321.612 192.822
L321.686 185.898
L321.761 187.304
L322.207 236.345
L322.356 232.336
L322.505 234.593
L322.654 216.277
L322.802 192.2
L322.951 198.329
L323.323 235.342
L323.398 235.158
L323.695 203.063
L323.77 202.706
L323.844 204.192
L323.993 213.397
L324.142 205.264
L324.29 198.835
L324.514 209.607
L324.811 240.319
L324.96 231.794
L325.109 210.931
L325.258 189.573
L325.406 202.764
L325.63 233.522
L325.778 247.3
L325.853 251.793
L325.927 248.763
L326.374 198.974
L326.448 198.34
L326.671 185.288
L326.746 188.03
L327.192 240.883
L327.266 234.686
L327.564 195.921
L327.638 196.082
L327.787 202.119
L327.862 200.944
L327.936 199.216
L328.01 202.038
L328.457 243.153
L328.531 242.162
L328.754 225.239
L328.829 227.198
L328.978 232.543
L329.126 225.712
L329.424 218.062
L329.722 241.517
L329.796 240.1
L329.945 220.723
L330.317 146.097
L330.391 148.562
L330.689 211.945
L330.912 236.828
L330.986 235.4
L331.21 219.111
L331.358 200.08
L331.433 201.589
L332.251 241.932
L332.326 240.791
L332.698 223.5
L332.995 183.422
L333.07 186.509
L333.516 234.294
L333.59 234.824
L333.665 233.591
L334.483 198.179
L334.558 198.697
L334.781 216.53
L335.004 232.301
L335.078 229.697
L335.376 198.421
L335.599 205.955
L335.674 205.091
L335.822 206.197
L336.194 194.654
L336.343 190.276
L336.492 205.598
L336.79 251.378
L336.864 250.745
L337.013 243.141
L337.162 232.889
L337.31 235.907
L337.385 230.665
L337.608 241.575
L337.682 241.425
L337.98 210.425
L338.278 184.597
L338.352 182.431
L338.426 182.753
L338.724 209.077
L338.873 221.783
L338.947 221.345
L339.022 219.376
L339.245 209.353
L339.319 210.229
L339.394 209.756
L339.468 210.332
L339.766 238.522
L339.84 236.736
L340.138 224.663
L340.212 225.93
L340.286 227.993
L340.361 227.013
L340.658 208.535
L340.807 201.923
L341.03 210.494
L341.105 209.491
L341.402 200.702
L341.477 200.483
L341.626 201.738
L341.7 200.863
L341.774 200.99
L341.849 202.268
L341.998 211.795
L342.221 230.389
L342.444 237.116
L342.593 233.349
L342.89 208.224
L343.039 202.579
L343.114 202.971
L343.337 213.569
L343.709 239.72
L343.783 239.536
L344.006 221.657
L344.23 202.683
L344.378 204.826
L344.527 212.06
L344.899 237.934
L345.048 233.96
L345.569 178.652
L345.718 187.673
L346.238 224.156
L346.759 233.753
L346.908 228.741
L347.131 222.716
L347.28 218.719
L347.875 194.262
L348.098 186.82
L348.173 187.845
L348.322 200.033
L348.619 224.951
L348.842 239.996
L348.917 238.798
L348.991 238.165
L349.066 239.455
L349.363 232.739
L349.438 234.34
L349.512 233.672
L349.586 233.994
L349.661 233.361
L349.81 223.131
L350.107 196.485
L350.256 207.936
L350.33 207.395
L350.405 208.42
L350.479 206.634
L350.851 179.459
L350.926 181.889
L351.595 241.54
L351.67 239.697
L352.042 221.657
L352.116 221.875
L352.19 222.463
L352.339 228.315
L352.414 227.52
L352.488 227.417
L352.562 228.016
L352.637 225.32
L352.934 203.259
L353.083 206.83
L353.232 206.83
L353.306 206.058
L353.381 208.19
L353.678 231.402
L353.753 229.686
L354.125 208.339
L354.199 209.215
L354.422 218.581
L354.571 218.051
L354.72 214.145
L354.943 215.643
L355.092 219.065
L355.836 202.464
L355.91 204.4
L356.208 225.677
L356.431 210.01
L356.506 210.102
L356.58 210.643
L357.026 223.292
L357.324 211.761
L357.398 211.15
L357.994 234.363
L358.068 232.439
L358.217 217.751
L358.366 204.906
L358.44 205.206
L358.589 215.62
L358.886 236.114
L359.258 212.567
L359.556 192.845
L359.63 193.525
L359.779 199.745
L360.077 213.5
L360.3 221.691
L360.449 222.797
L360.746 212.337
L361.044 206.715
L361.118 207.66
L361.714 231.644
L361.788 229.801
L362.309 199.607
L362.681 216.611
L362.83 219.353
L363.053 224.479
L363.276 219.41
L363.35 220.458
L363.425 220.873
L363.499 219.514
L363.722 225.907
L363.797 225.896
L364.02 221.714
L364.318 230.654
L364.466 225.815
L364.987 194.7
L365.062 196.243
L365.508 214.779
L365.657 217.866
L365.806 208.95
L366.029 191.843
L366.103 191.877
L366.326 210.666
L366.624 242.807
L366.698 245.261
L366.773 244.005
L366.996 227.405
L367.219 201.427
L367.294 202.038
L367.442 209.146
L367.74 238.165
L368.038 229.582
L368.112 228.177
L368.484 200.298
L368.633 193.755
L368.856 196.831
L369.005 209.63
L369.079 209.215
L369.154 208.247
L369.302 213.65
L369.6 230.02
L369.749 220.712
L370.046 199.446
L370.121 199.089
L370.27 205.69
L370.716 240.987
L370.79 243.66
L370.865 242.911
L371.014 232.001
L371.311 208.57
L371.46 205.69
L371.609 208.282
L371.832 217.878
L371.981 221.991
L372.055 221.968
L372.65 203.42
L373.022 220.47
L373.32 213.293
L373.394 213.247
L373.543 214.929
L373.766 207.89
L373.99 196.439
L374.138 202.326
L374.734 245.584
L374.882 239.616
L375.254 211.07
L375.403 210.079
L375.626 217.313
L375.701 219.721
L375.775 219.03
L375.85 217.394
L375.924 218.915
L375.998 218.846
L376.147 214.468
L376.594 201.427
L376.668 202.003
L377.04 224.732
L377.263 215.609
L377.412 207.372
L377.486 209.031
L377.561 207.809
L377.71 203.685
L377.784 202.66
L377.933 198.133
L378.305 224.444
L378.528 236.483
L378.602 238.015
L379.346 215.747
L379.421 212.21
L379.495 212.694
L379.718 231.644
L379.793 230.677
L379.942 220.481
L380.165 202.695
L380.388 198.409
L380.611 202.925
L380.686 201.98
L380.909 209.561
L381.132 215.862
L381.281 214.848
L381.355 213.535
L381.504 208.639
L381.727 222.244
L381.95 215.159
L382.099 209.975
L382.174 211.438
L382.397 223.765
L382.62 216.956
L382.769 208.293
L382.843 209.342
L383.29 236.586
L383.438 232.819
L383.587 237.497
L383.662 235.676
L384.182 197.58
L384.331 210.102
L384.48 216.208
L384.554 217.164
L384.629 216.691
L384.778 214.94
L384.926 215.804
L385.373 201.174
L385.447 201.232
L385.745 214.41
L386.117 199.469
L386.191 202.314
L386.638 237.324
L386.712 237.969
L387.084 218.892
L387.307 206.266
L387.679 224.122
L387.902 234.847
L387.977 232.635
L388.2 218.166
L388.349 215.09
L388.646 204.549
L388.87 217.06
L388.944 216.968
L389.167 209.964
L389.316 209.756
L389.39 208.904
L389.539 210.689
L389.688 209.607
L389.837 212.222
L389.986 219.664
L390.209 232.082
L390.283 231.276
L390.506 225.043
L390.655 221.518
L390.953 202.349
L391.027 203.19
L391.176 206.888
L391.399 202.096
L391.622 208.385
L391.697 208.443
L391.771 207.833
L392.069 199.665
L392.218 205.079
L392.441 214.053
L392.962 256.251
L393.036 255.099
L393.334 236.16
L393.631 216.726
L393.854 210.54
L394.078 194.7
L394.152 194.803
L394.301 203.121
L394.375 203.19
L394.524 200.483
L394.747 208.455
L395.045 204.526
L395.194 200.264
L395.268 200.345
L395.417 202.326
L395.566 200.068
L395.863 219.237
L395.938 217.855
L396.012 218.408
L396.161 225.988
L396.31 233.096
L396.458 225.619
L396.607 228.177
L396.756 225.32
L396.83 226.207
L397.054 234.409
L397.202 235.653
L397.5 215.401
L397.649 220.931
L397.872 214.687
L397.946 215.816
L398.021 217.59
L398.17 210.229
L398.393 200.333
L398.616 203.178
L398.765 200.874
L398.839 202.199
L399.211 221.76
L399.286 220.804
L399.509 218.408
L399.806 224.214
L400.402 212.003
L400.476 211.369
L400.625 212.129
L400.774 209.918
L400.922 205.356
L401.071 200.264
L401.146 201.093
L401.518 218.235
L401.815 240.688
L401.89 239.513
L402.262 220.366
L402.634 227.566
L402.782 236.068
L402.857 234.386
L403.229 205.356
L403.526 194.642
L403.601 193.502
L404.122 210.148
L404.196 209.146
L404.419 203.075
L404.494 203.04
L404.642 204.86
L404.791 203.04
L404.866 205.045
L405.312 243.798
L405.386 243.925
L405.61 230.573
L405.833 214.076
L406.056 223.027
L406.354 236.967
L406.502 230.389
L407.098 189.251
L407.172 190.184
L407.395 200.656
L407.693 220.113
L407.916 227.44
L408.065 225.343
L408.734 207.28
L408.809 208.201
L409.106 228.534
L409.181 228.327
L409.33 216.668
L409.478 201.934
L409.553 202.211
L409.702 206.369
L409.776 204.169
L409.85 204.284
L410.222 219.376
L410.297 219.065
L410.371 219.848
L410.594 223.914
L410.892 228.753
L411.041 230.677
L411.19 235.699
L411.338 232.739
L412.082 193.145
L412.157 191.739
L412.231 192.062
L412.529 202.683
L412.603 204.423
L412.975 233.326
L413.124 226.829
L413.273 222.302
L413.347 222.244
L413.422 222.382
L413.57 226.265
L413.645 225.884
L414.017 203.524
L414.314 224.606
L414.389 223.673
L414.612 217.578
L414.835 208.409
L414.91 207.763
L414.984 207.867
L415.058 208.685
L415.207 216.737
L415.505 229.409
L415.579 230.446
L415.951 225.55
L416.472 204.549
L416.546 203.628
L416.621 204.042
L416.695 203.962
L416.77 203.547
L416.918 205.264
L417.365 217.889
L417.439 218.995
L417.588 215.781
L417.811 211.438
L417.96 216.185
L418.183 225.02
L418.258 222.682
L418.704 194.273
L418.778 195.103
L418.927 206.243
L419.15 221.023
L419.969 246.056
L420.118 240.48
L420.564 218.661
L420.638 216.542
L420.713 217.832
L420.787 216.703
L421.457 175.024
L421.531 175.657
L421.829 192.638
L422.201 217.509
L422.498 225.136
L422.647 231.253
L422.945 241.69
L423.019 241.31
L423.242 225.608
L423.317 227.958
L423.466 231.702
L423.614 224.629
L423.689 219.975
L423.763 221.691
L423.912 225.654
L424.21 197.269
L424.284 200.298
L424.507 217.625
L424.656 205.022
L424.73 205.413
L424.954 223.511
L425.028 221.115
L425.251 199.089
L425.326 201.566
L425.549 219.756
L425.698 215.067
L425.921 233.246
L425.995 229.513
L426.218 198.881
L426.293 201.174
L426.516 214.986
L426.665 200.137
L426.888 233.58
L426.962 232.14
L427.186 193.674
L427.26 195.391
L427.483 219.226
L427.632 206.22
L427.781 225.228
L427.93 234.801
L428.153 208.938
L428.227 209.964
L428.45 228.926
L428.599 221.057
L428.822 243.303
L428.897 240.906
L429.12 210.033
L429.194 210.62
L429.418 222.855
L429.566 212.302
L429.79 236.552
L429.938 209.319
L430.087 179.47
L430.31 196.716
L430.459 191.347
L430.534 192.442
L430.757 217.256
L430.98 203.754
L431.054 204.929
L431.278 223.027
L431.352 220.539
L431.501 212.233
L431.724 227.866
L431.947 217.037
L432.245 223.062
L432.394 223.073
L432.468 224.329
L432.766 237.715
L432.989 215.804
L433.063 215.943
L433.212 224.997
L433.435 203.248
L433.658 216.83
L433.733 213.927
L433.882 206.888
L434.03 218.811
L434.179 224.583
L434.328 217.475
L434.551 232.785
L434.849 207.579
L434.998 214.169
L435.146 202.867
L435.221 197.015
L435.295 197.211
L435.444 207.775
L435.518 204.722
L435.667 190.748
L435.742 192.949
L435.965 221.334
L436.039 220.251
L436.188 209.86
L436.337 214.595
L436.486 217.509
L436.56 216.772
L436.634 217.313
L436.858 225.55
L437.006 217.567
L437.155 210.194
L437.676 240.365
L437.75 240.607
L437.825 238.199
L438.048 210.62
L438.122 210.736
L438.42 225.308
L438.569 235.872
L438.643 233.177
L438.941 202.084
L439.09 205.379
L439.238 197.476
L439.313 193.283
L439.387 194.573
L439.536 200.494
L439.685 182.35
L439.759 183.376
L440.057 227.474
L440.206 219.56
L440.354 224.156
L440.429 221.91
L440.578 211.173
L440.652 211.553
L440.95 230.585
L441.173 213.996
L441.322 228.983
L441.47 246.033
L441.545 245.561
L441.917 206.231
L442.066 170.669
L442.14 171.89
L442.438 231.541
L442.586 221.196
L442.735 212.901
L443.107 229.778
L443.256 237.358
L443.479 214.03
L443.554 214.883
L443.702 222.924
L443.851 217.555
L444.744 187.58
L444.893 196.059
L445.339 238.349
L445.414 235.895
L445.637 212.291
L445.711 213.189
L446.083 226.967
L446.232 222.428
L446.306 222.797
L446.604 243.533
L446.678 240.503
L446.902 217.06
L447.125 191.555
L447.497 222.659
L447.571 221.875
L447.869 198.547
L447.943 203.801
L448.092 212.176
L448.464 203.178
L448.538 203.72
L448.613 205.897
L448.91 231.529
L448.985 228.43
L449.208 203.167
L449.282 204.768
L449.58 222.163
L449.803 232.301
L449.878 231.299
L449.878 231.299" style="fill:none;stroke:#808080;stroke-linecap:square;"/>
   </g>
  </g>
 </g>
 <defs>
  <clipPath id="p7ff5b81e1d">
   <rect height="345.6" width="446.4" x="72.0" y="43.2"/>
  </clipPath>
 </defs>
</svg>
