<?xml version="1.0" encoding="utf-8" standalone="no"?>
<!DOCTYPE svg PUBLIC "-//W3C//DTD SVG 1.1//EN"
  "http://www.w3.org/Graphics/SVG/1.1/DTD/svg11.dtd">
<!-- Created with matplotlib (http://matplotlib.org/) -->
<svg height="432pt" version="1.1" viewBox="0 0 576 432" width="576pt" xmlns="http://www.w3.org/2000/svg" xmlns:xlink="http://www.w3.org/1999/xlink">
 <defs>
  <style type="text/css">
*{stroke-linecap:butt;stroke-linejoin:round;}
  </style>
 </defs>
 <g id="figure_1">
  <g id="patch_1">
   <path d="
M0 432
L576 432
L576 0
L0 0
z
" style="fill:#ffffff;"/>
  </g>
  <g id="axes_1">
   <g id="line2d_1">
    <path clip-path="url(#p7ff5b81e1d)" d="
M72 227.919
L72.5208 207.377
L72.8184 203.455
L73.0416 198.452
L73.1904 195.052
L73.2648 195.182
L73.5624 208.66
L74.1576 249.083
L74.3064 252.841
L74.4552 247.376
L74.6784 227.383
L75.1992 180.779
L75.2736 179.215
L75.348 180.144
L76.2408 230.956
L76.3152 230.887
L76.5384 232.693
L76.6128 232.187
L76.836 226.83
L77.1336 215.559
L77.4312 203.295
L77.5056 202.742
L77.7288 204.798
L77.8776 206.859
L78.4728 224.765
L78.5472 224.925
L78.6216 224.178
L79.3656 203.908
L79.44 203.926
L79.5888 208.656
L80.184 231.902
L80.3328 229.271
L80.8536 216.873
L81.0768 217.789
L81.2256 219.02
L81.3 218.043
L82.044 193.813
L82.1184 194.599
L83.0856 237.013
L83.16 237.38
L83.2344 236.347
L83.532 222.204
L83.7552 212.609
L84.0528 215.413
L84.1272 214.782
L84.648 201.316
L84.7224 200.647
L84.9456 210.855
L85.2432 227.012
L85.4664 235.012
L85.5408 235.946
L85.6896 230.697
L85.9872 219.266
L86.0616 218.264
L86.2104 220.985
L86.2848 220.64
L86.4336 216.812
L87.0288 192.305
L87.1032 191.19
L87.4752 199.118
L88.2936 245.946
L88.4424 242.028
L88.8888 215.827
L89.1864 202.107
L89.4096 198.612
L89.484 198.893
L89.6328 204.358
L90.1536 228.973
L90.3768 220.838
L90.6744 210.786
L90.7488 209.995
L90.8976 212.713
L91.1952 205.922
L91.344 200.673
L91.4184 201.126
L92.6088 237.496
L92.6832 237.181
L92.832 232.602
L93.2784 205.2
L93.4272 202.91
L93.576 205.723
L93.7248 207.529
L93.7992 207.3
L94.0224 208.591
L94.1712 207.425
L94.6176 216.985
L94.9896 232.515
L95.1384 230.416
L95.8824 209.477
L96.0312 208.79
L96.18 209.403
L96.4776 212.099
L96.552 212.073
L96.7752 207.511
L97.0728 214.151
L97.5936 232.805
L97.7424 234.343
L97.8912 230.632
L98.5608 196.711
L98.6352 196.988
L99.3048 218.346
L99.4536 220.022
L99.528 219.642
L99.6024 219.836
L100.123 234.351
L100.198 233.755
L100.346 231.98
L100.495 229.055
L100.644 221.063
L101.239 180.477
L101.314 180.347
L101.611 196.858
L102.206 247.838
L102.281 248.18
L102.355 247.778
L102.504 244.339
L103.248 204.094
L103.62 184.741
L103.694 182.965
L103.769 183.76
L103.992 193.234
L104.587 231.314
L104.736 234.088
L105.034 241.393
L105.182 237.345
L106.15 198.482
L106.298 197.247
L106.596 201.42
L107.34 233.44
L107.414 233.017
L107.638 225.176
L108.084 210.008
L108.158 210.181
L108.456 218.113
L108.679 223.871
L108.754 223.72
L109.051 218.385
L109.2 215.3
L109.795 193.277
L109.87 192.905
L109.944 194.219
L111.06 248.344
L111.134 248.322
L111.432 246.577
L111.581 234.939
L111.953 186.002
L112.027 186.689
L112.176 194.491
L112.474 208.963
L112.548 208.967
L112.622 208.803
L112.846 199.493
L113.143 190.594
L113.218 189.86
L113.292 190.128
L113.366 190.542
L113.515 196.418
L113.813 221.577
L114.185 245.57
L114.334 247.372
L114.631 237.514
L115.226 208.656
L115.301 209.879
L115.747 229.79
L115.822 229.392
L115.97 224.446
L116.566 190.128
L116.64 191.212
L116.863 198.729
L117.235 210.198
L117.384 211.49
L117.533 215.607
L117.83 224.394
L118.202 231.794
L118.277 233.608
L118.351 233.457
L118.5 225.474
L118.946 198.521
L119.095 195.8
L119.17 196.789
L119.393 210.591
L119.69 232.446
L119.765 233.263
L119.839 233.129
L120.36 220.748
L120.658 214.294
L120.806 216.095
L121.03 213.101
L121.104 213.382
L121.327 217.719
L121.625 212.371
L121.997 194.378
L122.071 194.448
L122.294 196.487
L122.592 213.602
L122.89 232.252
L123.038 234.287
L123.187 233.142
L123.336 234.891
L123.41 234.503
L123.559 233.302
L123.634 233.544
L123.782 232.455
L123.857 232.585
L124.006 226.035
L124.303 211.922
L124.526 204.638
L124.898 199.506
L125.122 194.612
L125.419 199.718
L125.494 200.254
L125.642 204.111
L125.866 218.912
L126.089 232.645
L126.163 232.874
L126.238 232.61
L126.386 228.705
L126.61 222.718
L126.684 223.189
L126.833 225.789
L126.907 225.461
L127.056 223.202
L127.279 217.607
L127.354 217.94
L127.502 219.18
L127.651 221.582
L127.726 221.283
L127.874 218.713
L128.544 203.317
L128.767 199.359
L128.842 199.295
L128.99 201.325
L129.139 204.418
L130.032 234.727
L130.106 234.226
L130.255 231.012
L130.776 213.952
L131.222 194.681
L131.297 194.482
L131.446 195.545
L131.669 204.638
L132.115 231.811
L132.487 242.49
L132.71 237.077
L133.082 212.311
L133.529 179.228
L133.603 179.889
L133.826 189.912
L134.496 237.108
L134.57 237.946
L134.645 237.514
L134.868 229.237
L135.24 211.101
L135.463 205.775
L135.612 213.386
L135.91 225.871
L135.984 227.889
L136.058 227.604
L136.133 227.003
L136.356 229.176
L136.802 221.547
L137.398 193.873
L137.77 179.678
L137.844 181.544
L138.588 243.981
L138.662 245.221
L138.737 244.413
L139.109 226.476
L139.481 217.689
L139.63 213.261
L139.778 213.568
L139.853 213.075
L140.002 215.624
L140.076 216.752
L140.225 214.536
L140.299 214.665
L140.522 217.257
L140.746 222.484
L140.894 223.387
L140.969 221.975
L141.415 200.798
L141.564 200.56
L141.638 200.867
L142.234 211.46
L142.829 232.144
L143.126 221.728
L143.35 215.024
L143.424 215.339
L143.87 206.414
L143.945 207.187
L144.168 211.157
L144.838 226.994
L144.986 226.757
L145.061 226.321
L145.433 219.244
L145.656 213.304
L145.73 212.242
L145.805 212.717
L145.879 213.939
L146.251 208.695
L146.549 204.349
L146.772 206.634
L147.367 220.428
L147.516 219.707
L147.665 218.151
L147.962 223.284
L148.186 220.813
L148.26 221.914
L148.334 221.849
L148.409 220.916
L148.483 221.029
L148.558 220.674
L148.93 213.093
L149.004 213.119
L149.153 213.473
L149.376 214.825
L149.525 217.287
L149.599 217.24
L149.897 213.607
L150.12 221.305
L150.269 224.325
L150.343 223.392
L150.715 212.419
L150.938 210.151
L151.013 209.766
L151.682 219.771
L151.757 219.149
L152.054 213.183
L152.203 210.514
L152.352 212.004
L152.426 212.052
L152.873 223.625
L152.947 222.938
L153.245 211.87
L153.394 204.889
L153.468 204.984
L153.617 201.71
L153.691 202.401
L154.286 222.657
L154.51 224.411
L154.658 223.629
L155.03 232.662
L155.254 231.44
L155.402 228.584
L155.998 200.785
L156.295 187.151
L156.37 187.22
L156.667 201.269
L156.89 213.473
L157.411 219.996
L158.006 239.354
L158.081 239.929
L158.23 238.395
L158.378 233.189
L158.899 213.075
L159.346 203.066
L159.494 199.904
L159.643 196.906
L159.866 200.491
L160.015 207.766
L160.238 214.92
L160.759 222.433
L160.834 222.839
L161.354 216.337
L161.652 219.223
L161.726 219.089
L161.875 218.402
L162.098 223.271
L162.173 222.765
L162.322 221.638
L162.396 221.426
L162.768 212.665
L162.917 214.363
L162.991 213.741
L163.214 206.544
L163.438 204.068
L163.586 209.382
L163.884 223.202
L164.033 227.344
L164.107 227.254
L164.554 219.206
L164.628 219.085
L164.777 220.294
L165.372 212.173
L165.446 212.557
L165.521 212.056
L165.67 209.464
L165.893 214.108
L165.967 213.693
L166.265 207.533
L166.339 207.874
L166.414 207.287
L166.488 207.537
L166.562 207.598
L166.711 205.394
L166.86 206.518
L167.009 207.187
L167.158 213.814
L167.53 234.196
L167.753 238.637
L167.976 235.038
L168.571 212.414
L168.794 210.475
L169.018 207.589
L169.39 204.893
L169.464 204.945
L169.613 206.332
L169.762 211.205
L170.059 219.365
L170.134 219.037
L170.282 215.581
L170.357 215.836
L170.431 215.676
L170.506 214.963
L170.58 215.369
L170.729 217.495
L170.803 216.631
L170.952 212.665
L171.101 213.745
L171.25 218.354
L171.473 223.906
L171.622 224.649
L171.845 216.665
L171.919 217.253
L172.217 220.696
L172.44 221.4
L172.738 215.149
L172.812 215.637
L172.886 216.259
L173.11 213.68
L173.184 214.142
L173.407 217.279
L174.002 205.615
L174.077 205.671
L174.151 203.654
L174.226 204.306
L174.97 228.373
L175.044 228.118
L175.267 217.46
L175.342 217.478
L175.416 217.508
L175.714 209.68
L175.788 209.797
L175.937 208.946
L176.16 210.842
L176.309 207.11
L176.532 210.19
L176.755 216.415
L177.202 234.887
L177.276 235.539
L177.35 235.341
L177.648 228.99
L178.094 205.541
L178.318 203.053
L178.392 203.818
L178.541 206.099
L178.838 198.595
L178.913 197.908
L178.987 198.025
L179.136 205.554
L179.582 226.774
L179.657 225.599
L179.806 227.461
L179.88 226.632
L180.178 216.475
L180.401 212.147
L180.475 213.123
L180.698 220.601
L180.922 230.468
L181.07 232.446
L181.145 232.347
L181.368 226.454
L181.666 214.497
L182.186 203.58
L182.261 203.066
L182.41 204.263
L182.633 202.483
L182.782 204.41
L183.079 216.557
L183.302 222.662
L183.451 226.109
L183.526 226.079
L183.674 225.107
L183.749 224.191
L183.823 224.48
L183.898 224.225
L184.121 221.331
L184.493 206.146
L184.567 206.189
L185.014 210.686
L185.386 219.24
L185.609 221.698
L185.683 222.264
L185.758 222.238
L185.906 221.81
L186.13 219.417
L186.278 222.713
L186.427 218.877
L186.502 219.607
L186.576 219.326
L186.799 215.568
L187.022 219.53
L187.171 217.529
L187.246 218.359
L187.543 209.887
L187.618 210.185
L187.766 212.583
L187.915 219.283
L188.138 213.002
L188.213 213.957
L188.287 213.101
L188.585 202.146
L188.734 200.634
L188.882 203.122
L189.031 208.488
L189.106 208.384
L189.18 207.641
L190.073 235.056
L190.147 235.812
L190.222 235.695
L190.296 235.371
L190.742 224.973
L190.966 219.793
L191.635 188.814
L191.71 189.333
L191.858 196.452
L192.305 225.15
L192.602 222.852
L192.751 224.917
L193.049 230.373
L193.123 229.928
L193.272 223.625
L193.718 195.981
L193.793 196.046
L193.942 199.027
L194.016 200.547
L194.462 219.931
L195.132 240.417
L195.206 240.693
L195.504 230.139
L196.397 186.529
L196.471 185.618
L196.546 185.825
L196.694 188.529
L196.843 195.221
L197.364 234.529
L197.587 236.179
L197.736 230.684
L198.108 211.525
L198.182 210.855
L198.257 210.954
L198.406 211.671
L198.48 211.771
L198.629 212.324
L198.703 211.481
L198.778 211.874
L199.075 217.11
L199.373 227.733
L199.745 238.274
L199.819 237.868
L200.34 215.629
L200.786 184.209
L200.935 181.691
L201.01 182.036
L201.233 190.927
L201.53 215.922
L201.902 239.44
L201.977 240.503
L202.051 240.196
L202.274 234.218
L202.721 214.769
L203.316 198.854
L203.39 199.545
L204.134 238.015
L204.209 237.82
L204.358 233.729
L204.655 212.751
L204.878 198.387
L205.102 193.795
L205.176 193.389
L205.25 193.826
L205.399 198.984
L206.143 239.786
L206.292 242.771
L206.366 241.674
L207.185 190.832
L207.259 189.722
L207.334 190.071
L207.557 194.823
L207.929 215.598
L208.375 234.986
L208.524 237.125
L208.598 237.436
L208.673 236.965
L208.822 228.347
L209.268 204.863
L209.342 204.237
L209.64 211.084
L210.086 224.113
L210.235 227.137
L210.384 230.174
L210.458 229.824
L210.607 218.104
L210.979 176.723
L211.054 177.742
L211.277 201.312
L211.872 253.532
L211.946 253.562
L212.17 252.197
L212.318 231.47
L212.616 179.591
L212.765 181.686
L213.062 192.715
L213.137 191.143
L213.211 190.763
L213.286 192.339
L213.658 227.53
L213.881 244.37
L213.955 245
L214.03 244.05
L214.253 231.824
L214.699 206.5
L214.848 215.028
L215.22 238.978
L215.294 236.827
L215.964 182.468
L216.038 180.602
L216.113 181.647
L216.262 193.946
L216.634 231.794
L216.857 234.459
L217.154 242.469
L217.303 244.231
L217.452 243.052
L217.601 237.229
L218.27 161.853
L218.345 164.294
L218.568 198.513
L218.866 256.535
L218.94 260.332
L219.014 259.943
L219.163 246.784
L219.461 224.77
L219.758 206.099
L220.13 182.516
L220.354 185.125
L220.428 184.058
L220.577 186.987
L220.726 194.836
L221.023 234.935
L221.321 278.955
L221.395 279.884
L221.544 285.06
L221.618 278.649
L221.842 204.435
L222.065 160.052
L222.139 160.013
L222.362 186.749
L222.586 208.855
L222.66 209.084
L222.734 208.643
L222.809 210.004
L222.958 224.999
L223.255 264.285
L223.404 224.217
L223.627 159.24
L223.702 157.991
L224.074 201.139
L224.371 247.86
L224.669 327.43
L224.743 320.151
L225.115 180.265
L225.19 188.222
L225.264 189.302
L225.562 109.007
L225.636 112.402
L225.785 156.164
L226.082 263.771
L226.306 257.062
L226.38 258.25
L226.454 258.081
L226.678 232.299
L226.752 232.101
L226.975 214.346
L227.198 182.861
L227.496 290.68
L227.57 289.328
L228.166 123.073
L228.761 240.037
L228.91 243.065
L229.058 240.87
L229.207 230.165
L229.579 188.896
L229.951 234.023
L230.174 262.717
L230.249 266.643
L230.323 265.239
L230.621 226.118
L230.918 157.62
L230.993 159.386
L231.588 254.02
L231.662 250.227
L232.183 178.792
L232.258 179.678
L232.406 197.26
L232.704 236.006
L232.778 233.954
L233.15 187.151
L233.299 202.34
L233.597 243.177
L233.671 243.752
L233.82 222.916
L234.043 180.965
L234.118 185.834
L234.415 239.92
L234.564 231.302
L234.638 231.483
L234.713 234.265
L234.862 264.509
L235.01 293.008
L235.159 213.818
L235.382 95.0617
L235.457 101.382
L235.606 186.317
L235.829 302.594
L236.052 265.637
L236.275 226.161
L236.424 248.772
L236.498 233.69
L236.796 99.7446
L236.87 105.676
L237.019 155.797
L237.317 266.047
L237.466 289.678
L237.54 286.356
L237.986 218.894
L238.656 191.812
L238.73 191.955
L239.177 210.242
L239.251 207.481
L239.4 193.648
L239.474 194.983
L239.698 215.192
L239.772 216.626
L239.995 274.152
L240.07 271.249
L240.293 242.447
L240.665 187.691
L240.814 181.25
L240.888 181.375
L241.037 197.519
L241.334 255.658
L241.409 254.798
L241.781 223.24
L241.93 226.804
L242.078 219.473
L242.674 183.496
L242.748 183.095
L242.971 192.015
L243.194 205.671
L243.269 205.567
L243.343 207.827
L243.79 246.577
L244.013 233.388
L244.459 195.804
L244.682 191.285
L244.831 202.319
L245.054 225.089
L245.501 320.19
L245.65 274.078
L246.096 74.4467
L246.17 78.5723
L246.468 195.458
L246.766 286.779
L246.914 296.961
L247.138 270.017
L247.435 219.227
L247.658 177.734
L247.733 178.079
L248.105 214.894
L248.179 214.034
L248.402 202.552
L248.7 209.606
L248.923 193.981
L249.146 186.266
L249.221 186.019
L249.295 186.594
L249.444 195.7
L249.742 237.505
L250.039 273.292
L250.188 278.912
L250.337 275.175
L250.486 263.218
L251.378 142.249
L251.453 142.538
L251.602 159.754
L251.974 224.091
L252.048 226.334
L252.197 220.514
L252.271 224.368
L252.643 284.714
L252.718 284.571
L252.866 268.518
L253.536 140.996
L253.61 138.141
L253.685 142.789
L253.834 182.585
L254.206 300.741
L254.28 300.063
L254.429 282.381
L254.95 202.375
L255.396 167.521
L255.545 163.737
L255.694 165.378
L255.842 173.405
L256.214 203.908
L256.289 205.196
L256.363 204.98
L256.438 204.833
L256.586 224.999
L256.958 312.535
L257.033 310.807
L258 166.316
L258.074 161.162
L258.149 161.356
L258.298 163.309
L258.446 159.477
L258.521 159.857
L258.67 175.306
L259.265 274.527
L259.339 273.802
L259.488 262.03
L259.86 211.175
L260.009 207.796
L260.158 209.079
L260.232 207.77
L260.455 192.383
L260.604 184.028
L260.678 184.153
L260.827 195.325
L261.199 240.382
L261.274 239.479
L261.794 211.084
L261.943 212.859
L262.018 212.471
L262.39 205.641
L262.464 206.401
L262.687 213.127
L262.836 205.304
L263.059 193.946
L263.134 196.214
L263.357 221.664
L263.729 266.812
L263.803 267.883
L263.878 267.192
L264.026 258.297
L264.547 203.096
L264.622 205.256
L264.77 209.399
L264.845 209.153
L265.068 195.938
L265.663 163.702
L265.738 164.475
L265.812 163.62
L265.886 166.048
L266.035 184.373
L266.407 260.587
L266.482 260.112
L266.779 227.141
L266.854 228.951
L267.151 250.249
L267.3 250.936
L267.374 252.366
L267.449 252.353
L268.044 225.729
L268.714 167.789
L268.862 174.001
L269.234 202.759
L269.383 208.492
L269.755 225.487
L270.127 208.859
L270.202 209.313
L270.499 239.19
L270.574 240.736
L270.797 238.918
L271.02 226.031
L271.243 248.076
L271.318 239.38
L271.615 156.89
L271.69 157.339
L271.913 188.931
L272.285 239.57
L272.508 247.165
L272.657 242.957
L272.88 237.332
L272.954 237.92
L273.029 236.969
L273.922 175.837
L273.996 176.753
L274.145 189.281
L274.889 280.126
L274.963 278.476
L275.186 229.599
L275.484 175.967
L275.558 175.677
L275.856 186.283
L276.005 181.159
L276.079 181.803
L276.228 194.245
L276.674 248.69
L276.749 251.843
L276.823 250.88
L277.195 237.479
L277.27 237.509
L277.344 238.442
L277.493 228.826
L278.162 163.486
L278.237 166.713
L278.46 200.245
L278.683 231.358
L278.832 234.537
L278.906 232.891
L279.13 222.204
L279.278 228.666
L279.725 272.916
L279.874 263.546
L280.171 196.97
L280.394 157.252
L280.469 161.775
L280.841 210.03
L281.138 195.99
L281.213 198.167
L281.51 210.941
L281.808 244.547
L281.957 234.736
L282.106 224.377
L282.18 225.418
L282.254 228.502
L282.329 228.364
L282.478 212.54
L282.775 177.781
L282.998 174.252
L283.073 172.334
L283.147 172.424
L283.296 185.302
L283.742 313.718
L283.817 306.871
L284.412 218.316
L285.305 139.458
L285.379 139.614
L285.528 153.887
L285.826 186.365
L285.974 200.47
L286.495 290.965
L286.644 282.265
L287.983 151.127
L288.058 153.105
L288.281 181.319
L288.727 255.299
L288.802 253.969
L289.025 246.901
L289.174 249.109
L289.248 247.977
L289.397 238.049
L289.992 177.889
L290.066 178.684
L290.364 192.689
L290.587 218.83
L290.81 234.93
L290.959 224.074
L291.034 227.889
L291.331 277.137
L291.48 246.715
L291.703 199.334
L291.926 192.089
L292.15 159.434
L292.224 159.581
L292.596 208.401
L292.894 254.69
L292.968 255.735
L293.563 225.711
L294.158 213.309
L294.307 215.616
L294.456 209.74
L294.828 174.589
L295.051 187.682
L295.349 213.78
L295.721 243.963
L295.87 246.167
L295.944 246.599
L296.167 244.3
L296.242 244.538
L296.39 245.687
L296.465 245.752
L296.539 246.979
L296.614 246.542
L296.688 246.525
L296.911 221.145
L297.506 149.641
L297.581 148.863
L297.655 150.271
L297.878 175.046
L298.399 248.88
L298.474 251.074
L298.548 250.262
L298.697 248.02
L298.846 251.303
L299.143 263.287
L299.218 261.723
L299.515 239.181
L300.185 176.468
L300.334 180.481
L301.598 232.373
L301.673 231.401
L301.822 223.469
L302.194 187.194
L302.268 188.724
L302.417 203.165
L302.714 236.857
L303.012 250.24
L303.161 261.49
L303.235 260.328
L303.384 238.529
L303.682 188.231
L303.756 187.704
L303.905 201.796
L304.202 235.613
L304.277 238.957
L304.351 236.879
L304.946 184.015
L305.021 183.151
L305.095 184.188
L305.69 210.449
L306.062 224.947
L306.211 226.64
L306.583 223.18
L306.658 224.238
L307.104 240.248
L307.178 239.691
L307.253 240.27
L307.402 244.058
L307.476 243.328
L307.699 232.567
L308.518 175.941
L308.592 174.865
L308.741 176.282
L308.964 186.343
L309.187 208.345
L309.634 255.606
L309.782 260.682
L310.898 185.674
L310.973 186.374
L311.122 195.934
L311.717 245.907
L311.791 243.968
L312.163 214.652
L312.238 215.711
L312.312 216.242
L312.461 201.532
L312.833 146.102
L312.982 172.653
L313.577 292.283
L313.726 282.9
L314.098 222.921
L314.544 161.68
L314.693 158.285
L314.842 164.221
L315.288 197.545
L315.883 268.527
L315.958 265.775
L316.702 199.701
L316.85 198.448
L317.148 201.913
L317.297 199.226
L317.371 197.212
L317.446 197.338
L317.743 205.04
L318.041 229.496
L318.338 256.785
L318.413 256.245
L318.562 242.292
L318.934 189.16
L319.008 189.199
L319.38 217.503
L319.603 220.895
L319.678 220.346
L320.05 204.388
L320.124 205.153
L320.198 206.457
L320.273 206.194
L320.496 204.816
L320.57 204.638
L320.645 204.893
L320.719 205.831
L320.868 213.326
L321.166 235.28
L321.24 235.751
L321.389 231.267
L321.463 231.556
L321.538 233.462
L321.612 233.194
L321.984 213.499
L322.058 215.672
L322.356 250.379
L322.43 249.368
L322.579 222.83
L322.877 166.346
L323.026 160.099
L323.1 160.255
L323.174 161.996
L323.398 179.306
L323.918 255.325
L323.993 257.476
L324.142 244.97
L324.365 218.903
L324.439 219.987
L324.588 236.002
L324.886 265.347
L324.96 263.624
L325.927 154.915
L326.002 155.002
L326.076 155.848
L326.225 168.588
L326.82 246.214
L327.118 257.049
L327.49 262.95
L327.638 258.081
L327.862 230.8
L328.159 192.659
L328.382 186.486
L328.531 189.091
L328.606 188.81
L328.829 184.378
L328.903 184.71
L329.052 185.553
L329.126 184.503
L329.275 178.982
L329.35 179.816
L329.498 189.493
L330.168 263.46
L330.317 266.056
L330.391 265.084
L330.54 255.71
L330.912 201.908
L331.135 182.382
L331.21 181.483
L331.358 188.024
L331.954 233.462
L332.177 242.654
L332.251 241.631
L332.474 228.744
L332.698 196.361
L332.921 163.028
L332.995 162.626
L333.144 177.181
L333.516 216.821
L333.59 216.674
L333.739 212.285
L333.888 208.401
L334.037 221.685
L334.409 265.667
L334.483 264.674
L334.706 253.07
L334.93 214.907
L335.153 187.911
L335.302 201.286
L335.599 239.95
L335.674 240.274
L335.822 230.312
L336.343 185.63
L336.566 179.017
L336.641 179.535
L337.385 208.401
L337.831 244.495
L338.054 224.899
L338.278 215.957
L338.352 216.307
L338.575 227.655
L338.947 266.138
L339.245 269.248
L339.319 267.356
L339.468 247.994
L339.989 161.292
L340.063 160.302
L340.138 160.337
L340.361 162.674
L340.733 173.301
L341.105 189.592
L341.328 226.515
L341.626 268.76
L341.7 269.499
L341.849 262.125
L342.37 229.807
L342.593 232.697
L342.742 226.753
L343.114 205.684
L343.188 205.511
L343.337 212.406
L343.56 221.603
L343.634 221.15
L343.783 215.754
L344.081 204.759
L344.155 204.578
L344.304 200.388
L344.676 186.166
L344.825 190.002
L345.048 212.181
L345.271 227.655
L345.494 235.099
L345.792 266.371
L345.866 264.397
L346.09 229.509
L346.387 190.348
L346.462 191.488
L346.685 199.61
L346.759 198.565
L346.982 180.991
L347.057 183.082
L347.503 243.7
L347.578 242.944
L348.098 199.018
L348.322 163.257
L348.47 176.813
L348.694 234.317
L348.842 263.455
L348.917 261.758
L349.14 248.124
L349.289 243.199
L349.512 221.551
L349.735 184.309
L349.81 190.387
L350.182 261.999
L350.256 261.667
L350.628 210.488
L350.926 171.573
L351.074 164.678
L351.149 166.173
L351.372 176.083
L351.446 177.12
L351.67 195.134
L352.265 242.292
L352.414 239.734
L352.488 240.974
L352.711 255.878
L353.009 245.13
L353.083 247.527
L353.232 252.288
L353.306 249.45
L353.53 213.866
L353.902 158.613
L354.125 151.451
L354.274 166.618
L354.646 206.544
L354.794 214.812
L355.166 260.755
L355.39 275.15
L355.538 268.376
L355.985 222.51
L356.431 174.645
L356.506 173.353
L356.654 180.753
L357.026 210.358
L357.398 238.093
L357.547 229.98
L357.845 207.999
L358.142 192.028
L358.291 198.824
L358.663 221.785
L359.035 235.755
L359.11 236.486
L359.333 245.972
L359.482 250.603
L359.556 248.672
L359.779 220.242
L360.077 175.941
L360.151 174.515
L360.3 188.119
L360.598 222.532
L360.672 225.029
L360.746 224.873
L360.97 214.834
L361.118 209.55
L361.193 209.926
L361.342 214.315
L361.565 219.646
L362.011 206.44
L362.086 207.542
L362.309 222.713
L362.532 234.853
L362.606 235.509
L362.755 228.36
L363.053 208.622
L363.127 209.257
L363.499 218.268
L363.574 216.769
L363.797 210.056
L364.02 213.266
L364.169 214.782
L364.243 214.674
L364.318 214.488
L364.392 215.706
L364.615 221.664
L364.69 221.603
L364.764 221.854
L364.987 214.259
L365.21 205.68
L365.508 216.004
L365.582 215.991
L365.806 211.628
L365.88 211.538
L366.029 210.47
L366.252 219.093
L366.624 235.237
L366.847 231.574
L367.07 215.266
L367.368 192.612
L367.442 192.262
L367.517 192.625
L367.666 198.733
L367.963 222.091
L368.261 245.38
L368.335 246.301
L368.484 238.706
L369.005 196.837
L369.302 208.734
L369.6 194.543
L369.749 203.027
L370.046 228.217
L370.121 228.977
L370.195 228.77
L370.344 228.278
L370.493 224.899
L370.642 220.074
L370.716 220.134
L370.939 224.018
L371.014 224.243
L371.311 222.208
L371.46 216.138
L371.832 196.072
L371.981 193.83
L372.055 194.111
L372.204 200.007
L372.502 217.776
L372.576 217.663
L372.65 218.588
L372.799 228.062
L373.022 241.518
L373.097 239.695
L373.246 222.333
L373.469 195.299
L373.618 213.901
L373.99 275.849
L374.064 277.115
L374.213 252.275
L374.659 146.215
L374.808 140.62
L374.957 149.075
L375.626 234.442
L375.924 290.066
L376.073 296.875
L376.147 295.281
L376.519 269.114
L376.742 221.27
L377.04 164.294
L377.263 153.999
L377.561 157.792
L377.71 165.236
L378.007 201.269
L378.454 256.833
L378.602 263.045
L378.677 261.974
L378.9 241.285
L379.198 216.51
L379.495 211.473
L379.644 217.672
L379.793 223.543
L379.867 222.627
L380.165 214.924
L380.239 215.218
L380.314 215.145
L380.462 204.885
L380.611 196.634
L380.686 198.197
L381.058 227.802
L381.132 226.251
L381.206 225.12
L381.43 234.218
L381.504 233.993
L381.653 229.751
L381.802 207.874
L382.099 150.055
L382.174 149.878
L382.918 244.884
L383.066 254.608
L383.29 248.439
L383.438 250.776
L383.513 249.29
L383.662 236.045
L384.034 181.103
L384.108 183.406
L384.257 203.079
L384.554 249.325
L384.629 244.482
L385.075 187.963
L385.224 180.775
L385.298 181.142
L385.447 193.437
L385.745 217.992
L385.819 219.262
L386.042 213.343
L386.191 220.735
L386.712 258.898
L386.786 257.312
L387.01 231.068
L387.382 179.055
L387.53 173.789
L387.605 175.241
L387.754 185.622
L388.2 237.743
L388.274 238.412
L388.423 234.17
L388.721 213.745
L388.87 209.991
L388.944 210.859
L389.242 220.985
L389.316 218.303
L389.688 175.306
L389.837 171.189
L389.986 196.564
L390.581 331.167
L390.73 307.601
L391.027 210.082
L391.399 107.888
L391.548 98.1332
L391.622 99.1571
L391.92 131.855
L392.143 208.025
L392.515 324.013
L392.59 324.886
L392.738 306.871
L393.334 184.386
L393.408 181.678
L393.482 182.097
L393.631 188.145
L394.375 236.498
L394.45 235.617
L394.598 228.139
L395.342 176.913
L395.417 177.159
L395.566 185.652
L396.161 239
L396.31 234.459
L396.458 230.9
L396.607 245.545
L396.83 269.577
L396.905 270.022
L397.054 255.822
L397.649 178.036
L397.798 171.15
L397.872 172.027
L398.021 186.05
L398.244 207.157
L398.318 208.172
L398.393 207.494
L398.542 203.805
L398.616 205.554
L398.765 224.195
L398.988 250.78
L399.36 238.831
L399.583 206.505
L399.806 180.624
L399.881 178.865
L400.03 184.741
L400.55 221.819
L400.625 220.86
L400.774 218.329
L400.922 229.643
L401.146 247.605
L401.369 252.966
L401.666 248.832
L401.89 251.834
L401.964 249.873
L402.113 229.405
L402.559 122.282
L402.634 123.751
L402.857 175.548
L403.154 230.956
L403.378 215.564
L403.675 192.668
L403.75 196.448
L404.122 251.856
L404.419 232.658
L404.568 235.842
L404.791 245.834
L404.866 244.616
L405.238 211.736
L405.312 211.978
L405.461 223.927
L405.684 244.218
L405.758 241.16
L405.982 201.705
L406.279 157.611
L406.354 155.913
L406.502 168.281
L406.8 231.211
L407.098 287.366
L407.172 283.863
L407.395 230.714
L407.767 132.719
L407.916 126.122
L407.99 128.123
L408.139 147.653
L408.437 249.916
L408.734 345.695
L408.809 348.59
L408.958 324.881
L409.33 190.413
L409.553 129.652
L409.627 129.086
L409.776 157.736
L410.148 242.568
L410.222 243.644
L410.371 231.336
L410.669 202.885
L410.743 202.016
L411.041 209.222
L411.19 188.214
L411.413 154.293
L411.562 175.28
L411.859 248.849
L411.934 245.972
L412.231 208.393
L412.306 210.462
L412.603 238.447
L412.826 278.294
L413.05 309.813
L413.124 305.545
L413.347 252.582
L413.719 156.254
L413.868 150.293
L413.942 150.764
L414.091 155.974
L415.43 252.318
L415.505 253.346
L415.579 252.582
L416.026 225.513
L416.323 213.412
L416.398 212.92
L416.621 214.393
L416.695 214.333
L416.844 212.993
L416.918 213.14
L417.067 214.017
L417.142 213.896
L417.365 209.805
L417.588 206.09
L417.662 206.008
L417.886 207.537
L418.109 205.511
L418.183 206.172
L418.332 212.734
L418.704 234.218
L418.853 234.801
L418.927 234.032
L419.076 225.228
L419.522 166.955
L419.597 169.953
L419.82 206.686
L420.192 266.268
L420.266 267.486
L420.415 260.116
L421.01 205.226
L421.234 191.648
L421.606 204.206
L421.68 203.546
L421.978 195.856
L422.201 199.325
L422.424 193.126
L422.573 190.041
L422.647 191.445
L423.54 254.811
L423.614 255.489
L423.689 255.381
L423.763 254.919
L423.912 249.662
L424.284 216.907
L424.656 190.128
L424.879 186.183
L424.954 186.322
L425.102 191.259
L425.474 224.057
L425.698 241.514
L425.772 239.531
L426.144 211.127
L426.218 212.989
L426.516 235.548
L426.665 213.378
L426.962 159.158
L427.037 159.257
L427.186 177.189
L427.632 243.644
L428.078 281.102
L428.153 278.286
L428.302 258.721
L428.897 159.179
L429.046 152.932
L429.194 161.374
L429.492 211.568
L429.79 250.837
L429.938 257.8
L430.013 257.779
L430.162 245.138
L430.608 182.857
L430.757 193.424
L431.278 253.891
L431.352 252.971
L431.873 227.595
L432.468 178.991
L432.617 177.168
L432.691 177.816
L432.766 177.716
L432.84 178.131
L432.989 174.334
L433.063 175.738
L433.212 191.821
L433.51 231.993
L433.658 237.043
L434.105 253.74
L434.179 253.359
L434.626 239.285
L435.072 203.684
L435.146 205.312
L435.444 217.179
L435.518 217.201
L435.742 202.772
L436.188 177.181
L436.337 174.934
L436.486 184.516
L436.783 217.37
L437.378 268.536
L437.453 268.289
L437.602 258.258
L437.825 240.058
L438.048 224.588
L438.271 195.912
L438.643 127.431
L438.792 142.016
L439.09 195.212
L439.462 262.915
L439.834 279.681
L439.908 277.564
L440.206 261.14
L440.28 260.479
L440.503 254.448
L440.652 237.704
L441.173 155.416
L441.619 120.031
L441.768 142.767
L442.14 233.112
L442.661 261.446
L442.81 264.25
L442.884 264.578
L442.958 264.069
L443.182 259.986
L443.405 260.755
L443.479 260.41
L443.628 253.23
L443.926 220.661
L444.446 164.514
L444.67 160.428
L444.818 158.894
L444.893 159.443
L444.967 160.268
L445.116 167.525
L445.414 206.716
L445.711 244.789
L445.786 245.743
L446.083 237.92
L446.306 251.312
L446.753 276.584
L446.902 262.505
L447.571 139.342
L447.646 141.35
L447.794 167.469
L448.241 257.93
L448.315 256.189
L448.687 236.244
L448.985 226.48
L449.431 191.16
L449.506 192.491
L449.878 212.838
L449.878 212.838" style="fill:none;stroke:#808080;stroke-linecap:square;"/>
   </g>
  </g>
 </g>
 <defs>
  <clipPath id="p7ff5b81e1d">
   <rect height="345.6" width="446.4" x="72.0" y="43.2"/>
  </clipPath>
 </defs>
</svg>
