<?xml version="1.0" encoding="utf-8" standalone="no"?>
<!DOCTYPE svg PUBLIC "-//W3C//DTD SVG 1.1//EN"
  "http://www.w3.org/Graphics/SVG/1.1/DTD/svg11.dtd">
<!-- Created with matplotlib (http://matplotlib.org/) -->
<svg height="432pt" version="1.1" viewBox="0 0 576 432" width="576pt" xmlns="http://www.w3.org/2000/svg" xmlns:xlink="http://www.w3.org/1999/xlink">
 <defs>
  <style type="text/css">
*{stroke-linecap:butt;stroke-linejoin:round;}
  </style>
 </defs>
 <g id="figure_1">
  <g id="patch_1">
   <path d="
M0 432
L576 432
L576 0
L0 0
z
" style="fill:#ffffff;"/>
  </g>
  <g id="axes_1">
   <g id="line2d_1">
    <path clip-path="url(#p7ff5b81e1d)" d="
M72 249.158
L72.2976 298.752
L72.4464 307.318
L72.5208 306.059
L72.744 264.686
L73.116 181.495
L73.3392 171.053
L73.488 183.198
L74.0832 259.452
L74.3808 264.463
L74.4552 263.871
L74.5296 265.5
L74.7528 294.062
L74.8272 289.149
L75.1248 247.875
L75.4224 236.667
L75.72 193.517
L75.8688 207.81
L76.092 221.14
L76.1664 222.745
L76.3152 239.086
L76.5384 260.069
L76.6128 260.761
L76.836 248.418
L76.9848 230.644
L77.208 208.279
L77.3568 228.644
L77.7288 291.494
L77.8032 292.827
L77.952 274.017
L78.2496 215.931
L78.3984 223.041
L78.4728 219.437
L78.696 210.698
L78.7704 212.969
L79.068 243.727
L79.2168 246.616
L79.3656 250.541
L79.5144 249.01
L79.5888 249.924
L79.9608 276.436
L80.1096 261.205
L80.3328 233.705
L80.4072 233.828
L80.7048 245.06
L80.928 212.204
L81.2256 182.877
L81.3744 196.183
L81.8952 305.911
L81.9696 305.713
L82.1928 251.948
L82.4904 203.045
L82.6392 189.863
L82.7136 190.925
L82.8624 218.03
L83.0856 275.473
L83.16 279.694
L83.3088 271.4
L83.6808 206.057
L83.7552 213.71
L84.0528 254.836
L84.1272 256.194
L84.276 251.182
L84.3504 252.269
L84.4248 253.849
L84.5736 260.933
L84.7224 255.651
L85.02 267.302
L85.1688 253.355
L85.4664 214.796
L85.5408 211.142
L85.6896 218.005
L85.9872 241.802
L86.136 235.334
L86.508 175.595
L86.6568 203.317
L87.1032 321.734
L87.1776 330.522
L87.252 329.979
L87.4008 298.382
L87.8472 170.312
L87.9216 169.572
L87.996 166.856
L88.1448 193.27
L88.5168 307.096
L88.5912 311.095
L88.74 291.346
L89.1864 201.54
L89.2608 202.527
L89.7816 265.92
L89.9304 277.547
L90.228 246.788
L90.6 181.273
L90.7488 153.402
L90.8232 158.191
L90.972 216.598
L91.1952 311.045
L91.344 320.574
L91.4184 316.476
L91.6416 262.217
L91.9392 190.9
L92.0136 192.702
L92.3856 276.238
L92.6088 320.697
L92.6832 316.698
L92.832 285.446
L93.204 144.935
L93.3528 135.801
L93.5016 154.563
L93.7992 247.702
L94.0968 326.128
L94.1712 332.423
L94.2456 329.189
L94.3944 301.64
L94.7664 191.073
L94.8408 191.912
L95.2872 227.534
L95.436 230.2
L95.5104 229.533
L95.5848 230.274
L95.7336 238.247
L95.9568 253.231
L96.0312 250.738
L96.2544 236.05
L96.552 276.856
L96.6264 271.203
L96.9984 221.782
L97.0728 221.881
L97.296 236.001
L97.7424 272.782
L98.1888 242.32
L98.6352 158.389
L98.7096 158.685
L98.784 166.856
L99.3792 317.562
L99.4536 317.044
L99.6768 289.075
L100.123 227.657
L100.272 230.792
L100.421 233.952
L100.495 233.902
L100.644 210.723
L100.867 178.681
L100.942 181.05
L101.314 251.479
L101.537 289.026
L101.611 287.174
L101.834 246.714
L102.058 215.215
L102.206 218.844
L102.578 259.131
L102.653 255.108
L102.727 252.713
L102.802 254.342
L103.099 277.102
L103.174 274.066
L103.62 234.075
L103.918 200.182
L103.992 198.676
L104.066 200.947
L104.215 217.486
L104.587 274.412
L104.662 274.535
L104.736 269.549
L105.108 202.058
L105.182 204.206
L105.629 251.874
L105.703 249.306
L106.001 221.387
L106.15 223.979
L106.298 239.235
L106.67 280.015
L106.745 283.545
L106.819 281.497
L107.489 229.755
L107.638 225.485
L107.786 216.943
L108.01 191.739
L108.084 195.689
L108.233 223.633
L108.679 319.463
L108.828 284.311
L109.274 163.869
L109.349 165.597
L109.572 204.675
L110.167 301.072
L110.316 282.138
L110.911 190.826
L111.134 223.115
L111.432 266.907
L111.655 276.633
L111.878 256.49
L112.325 210.525
L112.399 212.179
L112.548 234.692
L112.771 264.068
L112.846 268.068
L112.92 264.068
L113.218 232.964
L113.366 227.435
L113.515 228.249
L113.59 225.262
L113.664 226.176
L114.11 267.771
L114.185 266.981
L114.259 264.71
L114.408 246.961
L114.78 181.742
L114.854 182.754
L115.226 263.328
L115.45 316.698
L115.673 294.432
L116.342 169.325
L116.491 190.209
L116.938 283.644
L117.086 271.326
L117.31 256.786
L117.458 272.832
L117.533 271.178
L117.756 237.877
L118.054 250.615
L118.128 256.638
L118.202 253.454
L118.574 163.548
L118.723 184.951
L119.244 301.714
L119.318 307.022
L119.393 304.602
L119.467 304.75
L119.542 307.318
L119.616 306.849
L119.765 279.201
L120.211 178.113
L120.286 174.607
L120.36 178.162
L120.658 266.414
L120.806 258.267
L121.104 227.188
L121.178 228.373
L121.476 182.383
L121.625 200.848
L122.071 283.57
L122.294 299.813
L122.369 297.147
L122.443 298.283
L122.666 309.12
L122.741 316.822
L122.815 315.341
L122.964 275.769
L123.41 104.105
L123.485 111.313
L124.154 273.548
L124.675 309.07
L124.75 307.417
L125.047 275.572
L125.494 203.613
L125.568 200.231
L125.642 200.281
L125.717 202.675
L125.94 227.484
L126.014 227.361
L126.089 229.015
L126.163 227.78
L126.386 213.438
L126.461 213.734
L126.535 216.943
L126.907 264.389
L126.982 259.946
L127.205 230.175
L127.279 230.348
L127.8 259.526
L127.874 264.982
L127.949 264.142
L128.321 235.482
L128.544 217.042
L128.618 218.202
L128.767 228.225
L128.99 251.306
L129.214 248.146
L129.288 249.257
L129.511 254.638
L129.586 255.848
L129.734 266.216
L129.883 274.98
L129.958 273.079
L130.255 245.653
L130.627 181.075
L130.85 174.089
L130.925 174.435
L130.999 179.915
L131.594 279.324
L131.669 280.213
L131.743 279.497
L131.892 275.819
L131.966 275.202
L132.041 275.424
L132.115 275.819
L132.19 274.116
L132.338 262.612
L132.487 250.911
L132.562 252.293
L132.859 276.436
L132.934 271.375
L133.529 149.823
L133.603 152.983
L133.901 200.725
L134.347 318.747
L134.719 290.926
L134.794 292.087
L134.868 291.815
L135.389 213.561
L135.761 155.748
L135.835 158.093
L136.058 181.865
L136.579 319.784
L136.654 315.859
L136.951 288.804
L137.174 255.947
L137.472 192.924
L137.546 191.32
L137.621 193.838
L137.844 205.465
L137.918 204.971
L138.067 213.142
L138.216 223.115
L138.29 219.56
L138.365 222.3
L138.811 280.978
L138.886 275.671
L138.96 272.881
L139.109 278.337
L139.258 266.142
L139.555 236.025
L139.63 235.803
L139.778 236.1
L140.002 220.251
L140.225 207.933
L140.299 206.946
L140.448 220.227
L140.82 260.81
L140.894 261.625
L141.043 260.119
L141.118 260.736
L141.341 266.142
L141.415 264.587
L141.638 242.271
L141.787 229.36
L141.936 237.482
L142.085 246.492
L142.159 243.727
L142.754 181.001
L142.829 185.716
L142.978 218.252
L143.275 302.553
L143.35 302.973
L143.424 300.9
L143.647 279.028
L143.945 250.294
L144.168 263.106
L144.242 259.329
L144.466 209.093
L144.689 167.103
L144.763 165.572
L144.838 167.103
L145.507 257.823
L145.954 363.182
L146.028 359.158
L146.177 321.315
L146.698 152.217
L146.846 143.849
L146.995 169.102
L147.442 275.572
L147.516 278.115
L147.59 271.326
L147.888 204.132
L147.962 204.946
L148.483 288.31
L148.706 271.425
L149.153 209.809
L149.302 221.56
L149.525 244.814
L149.599 243.777
L149.897 216.721
L149.971 217.561
L150.343 262.958
L150.418 258.366
L150.864 222.226
L151.013 234.248
L151.162 261.427
L151.385 304.676
L151.459 299.937
L151.608 263.13
L151.98 166.98
L152.054 165.622
L152.203 186.062
L152.501 227.41
L152.575 229.731
L152.798 254.466
L153.096 298.011
L153.319 274.609
L153.468 261.452
L153.617 263.673
L153.766 255.675
L154.286 210.574
L154.361 211.34
L154.733 234.199
L154.882 222.695
L155.03 209.143
L155.105 209.908
L155.254 224.028
L155.551 254.12
L155.774 259.279
L155.923 266.685
L155.998 266.389
L156.221 273.079
L156.295 272.659
L156.667 264.241
L156.89 251.972
L157.039 212.697
L157.337 142.985
L157.411 135.505
L157.486 136.591
L157.709 170.534
L158.006 294.259
L158.23 359.726
L158.378 369.23
L158.527 340.594
L159.197 156.389
L159.271 145.75
L159.346 147.108
L159.494 170.065
L159.866 231.656
L160.387 275.572
L160.462 273.671
L160.536 273.449
L160.61 271.647
L160.834 281.324
L160.908 278.756
L161.354 222.473
L161.429 221.288
L161.578 226.694
L161.652 226.028
L161.875 235.853
L162.024 231.31
L162.247 214.351
L162.322 217.783
L162.47 230.891
L162.694 227.41
L162.768 227.904
L162.917 226.201
L162.991 228.299
L163.214 270.906
L163.438 296.283
L163.512 295.864
L163.586 292.013
L163.81 254.293
L164.107 198.75
L164.554 232.841
L164.628 233.952
L164.777 226.546
L165 201.416
L165.074 203.218
L165.223 241.703
L165.521 321.241
L165.67 329.658
L165.744 325.486
L165.893 269.351
L166.19 161.277
L166.265 159.08
L166.488 177.101
L166.562 175.545
L166.637 175.768
L166.786 198.059
L167.381 334.497
L167.53 321.66
L167.753 269.154
L168.05 182.211
L168.125 181.05
L168.348 198.355
L168.72 266.438
L168.794 269.993
L168.869 265.821
L169.315 201.934
L169.464 219.116
L169.762 266.685
L169.985 253.182
L170.208 224.571
L170.357 237.038
L170.506 234.396
L170.58 235.063
L170.654 234.841
L170.803 234.125
L171.175 273.696
L171.398 261.526
L171.547 270.462
L171.622 268.66
L171.845 252.17
L172.142 179.569
L172.217 179.989
L172.366 204.921
L172.738 318.599
L172.812 317.192
L172.961 291.741
L173.482 123.582
L173.556 125.902
L173.63 134.987
L173.854 222.498
L174.226 380.758
L174.3 384.559
L174.449 355.578
L174.672 253.725
L174.97 144.219
L175.044 143.38
L175.193 169.251
L175.714 300.43
L175.788 305.812
L175.862 302.455
L176.086 253.577
L176.383 182.729
L176.458 179.594
L176.606 193.097
L177.053 257.551
L177.127 252.985
L177.35 243.653
L177.574 257.7
L177.648 255.033
L177.871 234.643
L177.946 236.544
L178.243 273.77
L178.69 210.105
L178.764 210.007
L179.136 245.06
L179.508 306.898
L179.657 304.356
L179.806 291.494
L179.954 251.133
L180.326 137.307
L180.401 138.443
L180.55 157.673
L181.219 291.272
L181.368 297.888
L181.442 297.419
L181.517 297.789
L181.591 296.135
L181.74 279.769
L181.963 253.305
L182.038 256.021
L182.112 255.527
L182.41 230.767
L182.558 226.596
L182.782 238.815
L182.856 238.519
L183.079 197.59
L183.228 184.26
L183.302 187.691
L183.526 220.646
L183.749 258.144
L183.898 263.402
L184.195 250.096
L184.27 251.108
L184.418 257.625
L184.567 256.021
L184.79 271.153
L185.534 203.268
L185.758 214.796
L185.832 213.858
L185.906 214.129
L186.13 233.532
L186.725 312.057
L186.799 321.018
L186.874 317.686
L187.171 226.793
L187.469 157.796
L187.543 156.76
L187.618 158.34
L187.766 172.435
L188.064 219.19
L188.436 300.628
L188.51 303.812
L188.585 303.615
L188.808 281.842
L189.031 260.711
L189.18 259.353
L189.329 264.315
L189.403 263.155
L189.552 253.849
L189.85 204.872
L190.147 160.857
L190.222 158.438
L190.37 169.349
L190.594 220.473
L191.04 336.027
L191.114 334.25
L191.263 309.145
L191.635 223.189
L191.784 216.104
L191.933 219.338
L192.007 219.289
L192.082 217.067
L192.23 208.452
L192.379 212.154
L192.602 221.115
L192.751 219.412
L192.9 208.106
L193.198 235.853
L193.793 321.932
L193.867 320.475
L194.09 297.271
L194.462 202.157
L194.686 155.032
L194.76 154.34
L195.206 169.818
L195.802 311.44
L195.876 308.972
L196.174 283.2
L196.471 226.744
L196.694 234.865
L196.992 247.973
L197.141 241.333
L197.587 185.124
L197.662 189.345
L198.182 296.876
L198.257 292.951
L198.703 213.463
L198.778 216.647
L199.298 254.021
L199.596 242.542
L199.745 227.114
L199.968 203.737
L200.117 195.097
L200.191 196.726
L200.489 229.262
L200.861 332.448
L201.084 308.898
L201.382 233.779
L201.754 164.733
L201.977 180.779
L202.2 203.44
L202.572 284.656
L202.646 283.126
L202.944 275.671
L203.018 277.004
L203.093 276.337
L203.242 263.303
L203.539 233.335
L203.614 234.199
L203.911 229.064
L204.06 229.78
L204.506 173.472
L204.581 173.867
L204.73 214.969
L205.102 324.919
L205.176 320.056
L205.771 198.701
L205.846 200.527
L205.994 212.006
L206.292 258.712
L206.441 245.134
L206.515 246.591
L206.887 268.092
L206.962 265.698
L207.482 206.254
L207.557 207.958
L207.706 222.424
L208.152 303.368
L208.226 294.901
L208.747 184.111
L208.822 184.951
L209.194 210.673
L209.268 208.501
L209.417 207.094
L209.566 213.66
L209.714 248.072
L210.012 349.432
L210.086 353.48
L210.235 331.14
L210.533 263.624
L210.905 181.692
L210.979 180.507
L211.128 188.802
L211.426 224.695
L211.5 223.979
L211.723 209.76
L211.798 209.217
L211.872 214.993
L212.244 275.794
L212.393 279.744
L212.542 272.782
L212.914 238.543
L212.988 237.235
L213.434 201.416
L213.509 204.526
L214.03 248.418
L214.327 261.674
L214.55 246.122
L214.774 255.527
L215.146 292.926
L215.22 291.47
L215.369 299.591
L215.443 294.185
L215.815 173.274
L216.113 114.201
L216.187 118.299
L216.336 152.242
L216.782 316.6
L216.931 327.93
L217.006 327.659
L217.154 314.082
L217.601 235.384
L217.824 181.297
L217.898 180.729
L218.047 199.441
L218.494 266.043
L218.568 267.327
L218.642 264.463
L219.163 197.837
L219.238 201.293
L219.758 270.116
L219.833 266.216
L220.13 235.236
L220.205 235.408
L220.354 231.928
L220.577 260.242
L220.874 310.947
L221.023 277.349
L221.47 144.91
L221.544 143.133
L221.618 150.415
L221.842 227.583
L222.214 340.767
L222.288 343.26
L222.437 321.142
L223.106 157.303
L223.181 160.462
L223.404 193.22
L223.925 307.639
L223.999 306.108
L224.818 231.212
L224.966 230.372
L225.115 224.843
L225.338 210.303
L225.413 210.476
L225.487 209.192
L225.562 209.834
L225.71 217.289
L225.785 221.658
L225.859 220.548
L225.934 221.288
L226.008 225.262
L226.306 264.118
L226.454 252.096
L226.678 225.287
L226.752 227.583
L226.975 248.442
L227.05 246.64
L227.198 240.987
L227.496 261.896
L227.645 246.912
L227.794 225.435
L227.868 225.583
L228.017 253.626
L228.166 284.385
L228.314 268.808
L228.761 206.625
L228.91 195.763
L228.984 201.54
L229.207 279.423
L229.43 333.485
L229.579 294.654
L230.026 129.556
L230.1 135.653
L230.695 274.782
L230.918 345.087
L230.993 340.718
L231.514 250.417
L231.737 219.832
L231.886 224.892
L232.034 223.732
L232.183 223.411
L232.258 223.584
L232.406 214.771
L232.704 187.79
L232.853 198.306
L233.15 242.765
L233.374 284.014
L233.448 287.619
L233.522 286.606
L233.82 259.921
L234.043 234.248
L234.118 232.495
L234.266 240.42
L234.564 266.191
L234.713 257.625
L235.01 223.831
L235.234 190.801
L235.308 192.653
L235.457 199.886
L235.606 196.8
L235.754 220.967
L236.275 325.215
L236.35 330.522
L236.424 328.424
L236.498 324.697
L236.647 295.123
L236.945 167.671
L237.168 89.3676
L237.242 85.7388
L237.391 111.708
L238.061 359.849
L238.21 330.325
L238.582 234.841
L238.73 222.893
L238.879 230.15
L239.102 248.245
L239.177 246.591
L239.326 239.185
L239.474 246.813
L239.921 185.049
L239.995 187.345
L240.293 227.756
L240.367 231.434
L240.739 284.36
L241.26 260.094
L241.706 225.88
L241.781 225.213
L242.004 217.289
L242.078 221.56
L242.153 218.35
L242.376 195.788
L242.599 185.124
L242.674 187.666
L242.897 233.014
L243.343 353.727
L243.418 352.147
L243.641 290.26
L244.087 171.324
L244.162 172.583
L244.31 176.854
L244.385 175.249
L244.459 179.989
L244.757 246.961
L244.98 288.952
L245.054 287.619
L245.203 279.966
L245.278 281.645
L245.352 279.472
L245.501 259.156
L245.798 203.292
L245.873 205.168
L246.245 252.466
L246.468 260.958
L246.766 246.616
L247.063 214.302
L247.361 202.28
L247.733 244.69
L247.882 254.342
L248.105 238.815
L248.179 239.136
L248.328 250.047
L248.626 270.857
L248.774 267.623
L248.849 268.068
L248.998 241.259
L249.221 207.193
L249.295 207.143
L249.444 217.338
L249.742 246.542
L249.965 228.62
L250.039 231.804
L250.411 281.645
L250.486 280.855
L250.56 277.72
L250.709 287.791
L250.783 284.78
L251.23 177.175
L251.304 179.396
L251.453 176.311
L251.602 193.171
L251.974 262.464
L252.048 260.094
L252.122 259.847
L252.42 295.913
L252.494 294.679
L252.941 236.741
L253.164 194.331
L253.238 192.9
L253.387 225.633
L253.685 281.521
L253.908 260.563
L254.057 228.151
L254.28 187.123
L254.354 186.58
L254.578 216.993
L254.652 216.376
L254.726 213.66
L254.801 215.808
L254.95 234.47
L255.247 297.271
L255.322 291.544
L255.842 235.26
L255.991 232.298
L256.066 231.212
L256.289 241.654
L256.438 228.348
L256.512 228.669
L256.81 213.907
L256.958 224.991
L257.628 299.542
L257.702 299.196
L258 252.738
L258.446 152.464
L258.67 183.025
L258.893 223.164
L259.265 306.923
L259.488 313.119
L259.562 310.305
L259.786 263.896
L260.083 179.47
L260.158 179.569
L260.232 186.876
L260.753 317.019
L260.827 310.033
L261.422 122.224
L261.497 131.111
L261.646 182.161
L262.018 343.581
L262.092 341.779
L262.241 312.156
L262.613 232.767
L262.836 206.427
L262.985 215.438
L263.208 260.292
L263.282 274.338
L263.357 272.659
L263.729 170.238
L263.878 142.763
L263.952 147.231
L264.175 208.674
L264.622 355.973
L264.696 353.949
L264.845 334.447
L265.217 234.297
L265.589 144.17
L265.663 144.738
L265.812 167.498
L266.258 261.699
L266.482 287.174
L266.556 285.051
L266.779 259.724
L266.928 234.297
L267.151 261.427
L267.374 243.209
L267.449 243.505
L267.672 231.829
L267.821 243.332
L267.895 240.444
L268.267 196.035
L268.342 192.529
L268.49 206.674
L268.788 262.637
L268.937 270.19
L269.011 269.82
L269.086 270.265
L269.383 286.582
L269.606 267.623
L270.053 204.576
L270.202 180.038
L270.648 252.195
L270.946 216.993
L271.169 169.275
L271.243 173.571
L271.838 318.994
L271.913 320.13
L271.987 318.698
L272.136 293.765
L272.582 181.001
L272.731 167.967
L272.806 168.016
L272.88 171.275
L273.029 205.637
L273.326 302.208
L273.401 310.749
L273.475 308.009
L273.996 239.21
L274.219 184.26
L274.294 186.506
L274.517 200.651
L274.666 214.45
L274.963 255.7
L275.112 253.207
L275.261 243.925
L275.558 215.783
L275.633 215.66
L275.782 234.569
L276.154 314.551
L276.228 311.983
L276.377 272.931
L276.6 222.596
L276.823 182.606
L276.898 183.568
L277.79 283.027
L277.865 281.151
L278.088 254.638
L278.386 208.846
L278.46 210.723
L278.609 228.768
L278.832 252.022
L279.13 297.666
L279.204 291.321
L279.725 152.464
L279.799 144.96
L279.874 145.281
L280.022 173.274
L280.618 327.955
L280.766 321.315
L281.213 261.378
L281.51 221.337
L281.659 224.571
L281.808 222.276
L281.882 225.188
L282.031 215.018
L282.18 195.146
L282.403 150.761
L282.478 151.699
L282.626 183.519
L283.073 318.352
L283.147 316.032
L283.37 292.729
L283.594 249.751
L283.817 196.479
L283.891 195.245
L284.189 242.32
L284.412 279.867
L284.486 282.953
L284.561 281.052
L284.71 259.65
L285.007 213.339
L285.082 206.526
L285.305 156.118
L285.454 192.134
L285.9 325.141
L286.049 329.56
L286.198 303.047
L286.942 131.062
L287.016 128.667
L287.165 150.292
L287.909 332.695
L288.132 289.223
L288.355 249.01
L288.802 227.435
L289.025 240.963
L289.099 239.383
L289.248 223.929
L289.546 177.175
L289.62 176.755
L289.769 195.541
L290.215 293.79
L290.29 296.135
L290.662 272.906
L291.182 208.279
L291.257 208.698
L291.48 242.222
L291.703 263.032
L291.778 259.551
L292.224 202.206
L292.373 182.556
L292.447 182.581
L292.596 198.355
L292.745 245.159
L293.042 353.184
L293.117 358.368
L293.266 333.83
L293.861 167.646
L293.935 165.301
L294.084 181.297
L294.754 282.336
L294.828 281.793
L295.051 265.056
L295.126 265.87
L295.274 258.02
L295.646 216.548
L295.721 216.178
L295.795 220.646
L295.944 248.714
L296.093 240.222
L296.242 244.591
L296.539 205.242
L296.688 196.701
L296.762 199.268
L296.986 234.347
L297.432 308.478
L297.506 304.504
L297.73 246.393
L297.953 213.413
L298.399 243.777
L298.474 242.419
L298.697 250.047
L298.771 252.639
L299.441 192.184
L299.515 191.961
L299.664 211.982
L300.259 337.138
L300.334 336.348
L300.408 331.683
L300.557 280.904
L300.854 160.685
L301.003 148.268
L301.152 163.499
L301.524 260.341
L301.822 315.193
L301.896 314.946
L302.491 198.207
L302.566 198.528
L302.64 198.256
L302.789 217.042
L303.161 306.182
L303.235 304.997
L303.384 274.066
L303.682 194.628
L303.756 187.765
L303.83 189.394
L304.128 234.223
L304.5 282.188
L304.574 279.867
L304.798 240.222
L305.095 184.185
L305.17 180.754
L305.244 182.087
L305.393 208.476
L305.765 311.712
L305.839 313.785
L305.988 301.887
L306.211 242.567
L306.509 184.334
L306.732 212.278
L306.881 253.256
L307.03 300.381
L307.104 296.308
L307.476 251.503
L307.625 239.21
L308.071 163.4
L308.294 170.658
L308.369 180.878
L308.89 334.842
L309.113 324.03
L309.262 271.844
L309.485 205.563
L309.559 199.096
L309.634 201.046
L310.08 276.189
L310.154 273.869
L310.675 190.382
L310.75 187.172
L310.824 190.53
L311.047 230.595
L311.27 286.36
L311.568 258.934
L311.791 244.542
L311.94 239.63
L312.014 241.333
L312.163 247.726
L312.238 247.233
L312.386 248.245
L312.535 241.654
L312.61 242.765
L312.758 257.181
L312.907 245.283
L313.354 215.215
L313.577 172.238
L313.726 194.06
L314.321 356.171
L314.395 352.517
L314.618 285.125
L314.99 148.786
L315.139 135.579
L315.288 152.316
L315.586 218.128
L315.958 295.641
L316.181 310.033
L316.33 305.96
L316.478 287.076
L316.627 259.008
L316.702 259.033
L316.776 261.452
L316.85 259.526
L317.222 208.772
L317.297 209.735
L317.371 209.661
L317.446 210.204
L317.818 178.36
L317.892 177.742
L318.041 194.01
L318.71 318.698
L318.785 315.341
L318.934 284.854
L319.231 217.017
L319.38 228.718
L319.603 241.777
L319.826 257.181
L319.975 239.531
L320.198 212.525
L320.422 225.954
L320.57 233.483
L320.719 229.113
L320.942 234.939
L321.166 266.093
L321.389 295.567
L321.686 270.906
L322.282 128.964
L322.43 157.476
L322.951 308.725
L323.174 328.671
L323.323 311.169
L323.621 250.565
L323.695 250.318
L323.77 249.43
L323.918 225.361
L324.067 202.009
L324.142 205.934
L324.365 248.121
L324.439 247.85
L324.588 229.657
L324.662 229.484
L324.886 225.262
L324.96 219.313
L325.183 180.507
L325.406 213.216
L325.853 289.593
L325.927 292.161
L326.002 286.952
L326.225 256.786
L326.374 264.908
L326.597 250.022
L326.671 253.281
L326.894 263.673
L327.043 232.644
L327.266 204.082
L327.341 202.971
L327.415 204.033
L327.638 190.53
L327.713 190.851
L327.787 192.184
L327.936 230.175
L328.234 290.26
L328.531 332.448
L328.68 299.789
L329.126 174.41
L329.275 161.104
L329.573 187.888
L329.945 270.265
L330.019 267.08
L330.466 224.028
L330.54 223.806
L330.614 223.855
L330.689 227.41
L330.838 259.131
L331.061 308.626
L331.135 311.218
L331.21 308.873
L331.358 275.177
L331.582 240
L331.73 216.968
L331.954 174.978
L332.102 167.819
L332.177 167.868
L332.326 194.455
L332.549 239.457
L332.698 243.406
L333.07 311.514
L333.144 305.269
L333.293 289.421
L333.516 300.258
L333.739 269.944
L333.888 240.074
L334.186 165.054
L334.334 145.454
L334.409 150.489
L334.632 197.343
L334.706 196.281
L334.781 199.491
L335.004 250.294
L335.227 286.384
L335.45 302.257
L335.599 315.217
L335.674 314.082
L336.046 259.082
L336.492 177.199
L336.641 163.351
L336.79 173.176
L336.938 198.034
L337.385 281.472
L337.459 289.026
L337.98 258.366
L338.129 275.054
L338.203 274.362
L338.352 262.143
L338.575 275.35
L338.65 278.164
L338.724 272.338
L339.245 153.353
L339.319 153.279
L339.468 181.396
L339.84 281.595
L340.063 307.861
L340.138 305.664
L340.286 283.397
L340.733 191.616
L340.807 185.346
L340.882 189.32
L341.105 236.001
L341.328 265.229
L341.402 263.92
L341.477 260.267
L341.551 261.847
L341.7 269.203
L341.774 264.957
L342.221 212.722
L342.295 217.092
L342.593 257.107
L342.667 258.514
L342.89 246.27
L343.114 263.204
L343.262 247.134
L343.56 212.105
L343.709 203.613
L343.858 192.06
L344.006 202.354
L344.304 239.161
L344.676 287.051
L344.825 278.386
L344.899 278.658
L345.048 267.747
L345.271 233.211
L345.346 235.137
L345.494 250.862
L345.569 249.849
L345.718 261.945
L345.792 261.896
L345.866 260.069
L346.164 229.237
L346.462 189.493
L346.61 178.483
L346.759 170.238
L346.834 173.941
L347.057 212.772
L347.429 309.836
L347.503 313.983
L347.578 312.65
L347.95 260.464
L348.247 229.977
L348.322 230.817
L348.47 231.78
L348.619 267.623
L348.768 284.434
L348.991 255.28
L349.438 161.796
L349.512 165.548
L349.735 231.854
L349.884 259.181
L349.958 259.428
L350.033 258.489
L350.107 258.564
L350.256 263.772
L350.33 260.119
L350.702 215.018
L350.777 211.192
L350.851 213.956
L351.149 243.801
L351.446 263.328
L351.595 260.168
L351.818 250.788
L351.967 246.69
L352.116 251.034
L352.19 248.492
L352.265 251.948
L352.637 289.273
L353.009 212.697
L353.083 214.253
L353.232 203.934
L353.53 172.929
L353.678 200.453
L353.976 272.042
L354.05 269.697
L354.274 254.194
L354.348 254.416
L354.497 257.305
L354.646 251.948
L354.869 239.383
L355.166 258.292
L355.464 237.902
L355.613 216.203
L355.762 230.175
L355.985 251.849
L356.059 252.318
L356.431 239.63
L356.654 224.744
L356.803 221.263
L357.101 228.151
L357.324 261.995
L357.473 282.361
L357.547 279.546
L357.845 242.814
L357.919 242.888
L357.994 241.037
L358.291 211.389
L358.514 197.071
L358.589 197.244
L358.738 211.833
L358.961 230.323
L359.184 261.995
L359.556 316.328
L359.928 262.489
L360.002 261.773
L360.077 255.972
L360.523 154.538
L360.598 159.895
L360.97 226.571
L361.342 309.095
L361.416 309.268
L361.639 274.091
L361.937 229.089
L362.086 229.953
L362.16 228.595
L362.458 190.036
L362.532 192.356
L363.202 283.694
L363.276 287.94
L363.35 287.396
L363.499 272.239
L364.169 186.062
L364.243 190.308
L364.541 230.397
L364.615 231.236
L364.764 248.813
L365.062 307.787
L365.136 303.936
L365.285 271.993
L365.582 200.058
L365.954 227.854
L366.103 257.502
L366.326 300.85
L366.401 296.283
L366.55 255.206
L366.773 194.776
L366.847 195.294
L366.996 184.309
L367.145 197.071
L367.368 237.013
L367.591 283.496
L367.666 285.101
L367.74 278.756
L368.112 196.923
L368.186 200.527
L368.558 260.045
L368.633 256.515
L368.707 255.033
L368.856 277.053
L369.079 306.355
L369.154 301.739
L369.749 158.981
L369.823 162.24
L370.27 225.04
L370.642 350.691
L370.716 340.569
L371.237 227.854
L371.311 226.694
L371.534 232.718
L371.683 237.531
L371.906 212.969
L372.353 152.292
L372.502 184.951
L372.725 235.038
L372.874 248.59
L373.246 336.422
L373.394 316.674
L373.841 237.556
L374.064 226.275
L374.213 213.512
L374.287 216.326
L374.585 262.217
L374.659 257.872
L374.808 226.546
L375.031 165.326
L375.106 165.819
L375.552 219.461
L375.701 241.481
L375.998 313.81
L376.073 311.835
L376.966 203.44
L377.04 209.513
L377.189 238.371
L377.412 271.03
L377.635 226.275
L377.858 183.544
L377.933 185.642
L378.082 194.381
L378.23 185.889
L378.305 179.94
L378.379 184.531
L378.751 270.462
L378.826 269.351
L379.049 255.256
L379.198 273.671
L379.495 354.838
L379.57 352.468
L379.942 239.531
L380.462 115.855
L380.537 122.446
L380.76 191.048
L381.132 291.692
L381.504 369.55
L381.578 365.107
L381.727 322.055
L382.099 189.147
L382.397 116.892
L382.546 137.431
L383.066 251.923
L383.141 248.146
L383.215 248.171
L383.438 309.391
L383.587 330.177
L383.736 315.736
L383.959 280.361
L384.182 248.146
L384.257 250.738
L384.331 248.961
L384.629 221.337
L384.778 215.117
L385.15 181.544
L385.224 180.804
L385.596 231.607
L385.819 262.168
L385.968 276.387
L386.117 292.062
L386.266 277.744
L386.563 238.692
L386.638 237.26
L386.712 238.05
L386.786 240.148
L386.935 251.232
L387.01 248.961
L387.307 216.153
L387.456 220.646
L387.754 208.97
L387.828 207.884
L388.051 241.135
L388.423 290.803
L388.498 287.989
L388.572 288.211
L388.721 297.123
L388.795 296.851
L388.944 265.13
L389.316 137.036
L389.39 137.998
L389.614 214.327
L389.837 270.734
L389.911 270.758
L390.06 260.909
L390.134 261.007
L390.283 271.277
L390.358 268.857
L390.655 239.95
L390.804 257.379
L391.102 284.039
L391.25 248.813
L391.548 181.1
L391.622 181.347
L391.771 177.915
L391.846 178.286
L392.069 206.082
L392.441 361.799
L392.515 359.997
L393.408 137.702
L393.482 140.615
L393.854 255.379
L393.929 250.615
L394.152 231.878
L394.226 234.223
L394.524 255.552
L394.673 245.998
L394.747 241.555
L394.822 244.493
L395.045 288.952
L395.194 322.796
L395.342 286.187
L395.64 216.302
L395.714 219.609
L396.012 245.949
L396.086 243.258
L396.235 233.853
L396.533 253.552
L396.607 250.146
L396.979 179.865
L397.128 202.502
L397.351 237.803
L397.574 225.583
L397.649 229.632
L397.946 277.991
L398.021 271.918
L398.318 212.228
L398.69 275.029
L398.765 274.782
L398.988 246.912
L399.062 250.146
L399.286 285.076
L399.434 255.453
L399.658 180.458
L399.732 182.778
L400.178 275.671
L400.476 242.172
L400.699 248.097
L400.774 245.085
L400.922 213.339
L401.146 169.004
L401.518 259.304
L401.666 251.059
L401.815 242.987
L401.964 286.779
L402.187 334.398
L402.41 280.089
L402.708 210.5
L403.08 163.499
L403.154 163.746
L403.452 247.554
L403.601 273.745
L403.973 246.492
L404.047 249.331
L404.196 267.944
L404.27 267.5
L404.494 240.592
L404.642 221.782
L404.717 224.547
L404.791 232.199
L404.866 231.582
L405.089 212.031
L405.163 212.13
L405.238 215.709
L405.386 242.617
L405.61 294.679
L405.758 264.908
L405.982 218.918
L406.056 220.794
L406.354 265.525
L406.428 262.612
L406.651 232.076
L406.726 232.273
L406.949 246.961
L407.023 240.025
L407.321 172.41
L407.47 205.094
L407.767 269.08
L407.916 256.712
L408.139 269.87
L408.288 284.385
L408.362 277.522
L408.734 202.626
L408.883 217.166
L409.181 269.401
L409.33 263.18
L409.404 263.204
L409.627 268.512
L409.702 267.105
L409.776 261.279
L410.148 176.089
L410.222 180.507
L411.041 291.716
L411.115 290.606
L411.264 270.511
L411.562 205.39
L411.785 239.136
L411.934 256.539
L412.082 247.455
L412.157 243.727
L412.38 252.565
L412.454 255.058
L412.529 254.392
L412.678 230.767
L412.901 193.146
L413.05 217.437
L413.198 238.519
L413.347 234.816
L413.868 269.746
L413.942 270.857
L414.091 257.601
L414.24 247.825
L414.314 246.986
L414.389 243.209
L414.761 202.774
L414.91 192.702
L414.984 195.22
L415.207 251.281
L415.356 277.818
L415.505 271.894
L415.579 273.177
L415.728 285.002
L415.802 281.842
L415.951 271.375
L416.026 270.684
L416.621 212.549
L416.77 192.011
L416.918 195.615
L417.067 184.185
L417.142 186.901
L418.034 299.369
L418.109 296.678
L418.778 193.418
L418.927 219.98
L419.299 289.988
L419.374 291.988
L419.597 259.304
L419.746 269.721
L420.118 195.171
L420.638 266.734
L420.713 257.996
L420.936 228.373
L421.159 216.425
L421.234 216.943
L421.457 223.781
L421.606 214.82
L421.68 218.573
L421.903 264.735
L421.978 260.489
L422.275 236.223
L422.424 227.558
L422.498 230.101
L422.722 253.7
L422.945 230.521
L423.391 298.925
L423.466 293.444
L423.763 222.35
L423.986 233.038
L424.061 229.36
L424.358 191.27
L424.582 221.461
L424.805 254.589
L425.028 244.468
L425.474 291.05
L425.623 268.216
L425.846 220.153
L425.921 218.992
L426.07 203.366
L426.293 186.136
L426.367 184.21
L426.442 179.15
L426.516 182.507
L427.26 318.377
L427.483 308.429
L427.632 281.274
L427.93 198.725
L428.227 184.531
L428.525 204.156
L429.046 283.323
L429.12 284.558
L429.194 281.077
L429.492 218.894
L429.566 219.313
L429.641 219.017
L429.79 212.278
L429.938 227.558
L430.31 293.963
L430.459 280.904
L430.98 185.37
L431.426 231.236
L431.724 309.959
L431.798 305.269
L432.542 194.948
L432.691 201.712
L432.766 201.515
L432.84 197.837
L432.914 199.096
L433.138 218.844
L433.51 267.747
L433.658 278.658
L433.807 267.944
L434.105 234.421
L434.254 239.926
L434.402 215.289
L434.477 215.61
L434.774 262.118
L434.849 262.069
L434.923 263.303
L435.072 271.77
L435.221 281.941
L435.295 278.559
L435.667 218.844
L435.742 221.51
L435.816 218.795
L436.039 204.601
L436.188 199.639
L436.262 200.774
L436.486 212.87
L436.634 243.406
L436.858 277.621
L436.932 277.201
L437.006 278.51
L437.081 276.757
L437.23 266.438
L437.378 225.46
L437.527 195.714
L437.825 234.618
L438.048 260.637
L438.122 259.378
L438.271 267.673
L438.42 232.989
L438.569 213.241
L438.866 252.935
L439.015 239.556
L439.238 265.303
L439.387 261.625
L439.61 273.177
L439.834 259.353
L440.131 237.852
L440.206 236.889
L440.28 229.188
L440.578 173.2
L440.652 173.373
L440.726 172.657
L440.801 173.99
L440.95 196.232
L441.396 310.971
L441.47 321.561
L441.545 320.599
L441.768 288.976
L442.066 197.22
L442.14 197.442
L442.214 199.466
L442.363 171.793
L442.438 173.595
L442.661 225.732
L442.735 224.942
L442.81 226.126
L443.107 286.705
L443.182 279.917
L443.256 274.93
L443.405 303.047
L443.479 300.9
L443.777 250.368
L443.926 236.248
L444.149 214.08
L444.298 202.206
L444.372 203.193
L444.595 261.081
L444.67 257.453
L444.744 244.789
L444.818 245.678
L444.967 263.624
L445.116 240.025
L445.265 224.744
L445.339 224.028
L445.562 184.679
L445.637 193.541
L445.786 208.328
L445.86 205.934
L446.009 233.73
L446.381 294.432
L446.455 302.998
L446.678 272.116
L446.753 274.634
L446.827 272.239
L447.05 214.944
L447.125 215.364
L447.199 221.362
L447.274 216.919
L447.422 189.394
L447.571 243.876
L447.72 274.733
L447.794 268.216
L447.869 268.24
L447.943 271.696
L448.018 270.783
L448.315 225.016
L448.464 204.329
L448.687 222.621
L448.91 196.652
L449.208 243.431
L449.357 263.92
L449.506 282.632
L449.803 249.035
L449.878 259.847
L449.878 259.847" style="fill:none;stroke:#808080;stroke-linecap:square;"/>
   </g>
  </g>
 </g>
 <defs>
  <clipPath id="p7ff5b81e1d">
   <rect height="345.6" width="446.4" x="72.0" y="43.2"/>
  </clipPath>
 </defs>
</svg>
