<?xml version="1.0" encoding="utf-8" standalone="no"?>
<!DOCTYPE svg PUBLIC "-//W3C//DTD SVG 1.1//EN"
  "http://www.w3.org/Graphics/SVG/1.1/DTD/svg11.dtd">
<!-- Created with matplotlib (http://matplotlib.org/) -->
<svg height="432pt" version="1.1" viewBox="0 0 576 432" width="576pt" xmlns="http://www.w3.org/2000/svg" xmlns:xlink="http://www.w3.org/1999/xlink">
 <defs>
  <style type="text/css">
*{stroke-linecap:butt;stroke-linejoin:round;}
  </style>
 </defs>
 <g id="figure_1">
  <g id="patch_1">
   <path d="
M0 432
L576 432
L576 0
L0 0
z
" style="fill:#ffffff;"/>
  </g>
  <g id="axes_1">
   <g id="line2d_1">
    <path clip-path="url(#p7ff5b81e1d)" d="
M72 148.22
L72.0744 156.752
L72.1488 163.254
L72.2976 159.366
L72.5952 215.44
L72.8928 260.346
L72.9672 280.088
L73.0416 279.894
L73.488 180.685
L73.6368 259.158
L73.7112 248.876
L73.7856 239.567
L73.86 248.855
L73.9344 247.04
L74.3064 187.64
L74.3808 188.245
L74.4552 180.923
L74.604 141.784
L75.0504 273.436
L75.1248 269.44
L75.7944 165.889
L75.9432 248.228
L76.0176 233.648
L76.092 201.378
L76.1664 211.357
L76.2408 219.889
L76.3152 217.211
L76.5384 197.404
L76.6128 195.265
L76.836 170.36
L76.9848 191.01
L77.2824 224.965
L77.4312 245.356
L77.58 219.457
L77.7288 243.498
L77.8032 241.273
L77.8776 242.872
L77.952 271.405
L78.0264 260.519
L78.2496 185.437
L78.324 184.789
L78.4728 200.795
L78.5472 219.716
L78.7704 158.437
L79.068 234.664
L79.1424 234.534
L79.2168 232.633
L79.3656 242.72
L79.44 238.4
L79.5144 239.804
L79.7376 293.74
L79.812 289.052
L79.8864 291.774
L79.9608 289.744
L80.3328 183.968
L80.4072 160.381
L80.556 187.014
L80.7048 137.723
L80.8536 164.096
L80.928 159.712
L81.0024 161.116
L81.0768 168.114
L81.3 218.593
L81.3744 212.027
L81.4488 183.256
L81.5232 184.984
L81.672 198.268
L81.8208 186.604
L81.9696 216.887
L82.044 200.298
L82.1184 210.709
L82.2672 274.019
L82.3416 266.934
L82.416 265.897
L82.4904 272.874
L82.788 253.715
L83.0856 194.185
L83.16 198.7
L83.3832 291.817
L83.6064 262.182
L83.6808 247.127
L83.7552 259.46
L83.8296 258.532
L83.9784 225.959
L84.3504 126.707
L84.4248 121.156
L84.5736 134.051
L84.648 115.82
L84.7224 129.904
L84.8712 181.528
L84.9456 187.208
L85.0944 227.06
L85.2432 194.66
L85.392 213.517
L85.4664 194.898
L85.5408 195.784
L85.764 283.998
L85.8384 276.762
L85.9128 279.786
L86.0616 256.782
L86.136 263.996
L86.2104 271.967
L86.3592 239.545
L86.4336 242.98
L86.5824 212.826
L86.6568 219.025
L86.7312 221.747
L86.8056 219.436
L86.9544 199.564
L87.0288 212.848
L87.1032 206.476
L87.252 153.037
L87.4008 171.592
L87.5496 200.73
L87.6984 182.456
L87.9216 225.073
L87.996 222.373
L88.2192 256.242
L88.2936 252.937
L88.368 245.766
L88.5912 271.189
L88.6656 262.722
L88.8888 217.34
L88.9632 224.857
L89.0376 176.387
L89.112 180.685
L89.1864 270.217
L89.3352 203.473
L89.4096 295.489
L89.6328 139.062
L89.7072 173.471
L89.7816 171.786
L89.856 171.203
L90.1536 237.752
L90.3024 146.212
L90.4512 107.656
L90.8976 328.105
L90.972 305.771
L91.2696 135.649
L91.344 137.312
L91.4928 240.474
L91.5672 211.789
L91.6416 168.892
L91.7904 342.383
L91.9392 246.284
L92.0136 264.947
L92.088 254.989
L92.1624 301.105
L92.2368 275.142
L92.3112 206.735
L92.3856 240.301
L92.5344 184.746
L92.6088 208.657
L92.6832 207.08
L92.832 157.984
L92.9808 245.939
L93.0552 230.948
L93.204 128.046
L93.3528 265.724
L93.4272 242.591
L93.5016 194.79
L93.576 210.104
L93.7248 129.104
L93.8736 224.771
L93.948 153.232
L94.0224 179.843
L94.1712 260.216
L94.4688 190.146
L94.692 232.784
L94.7664 238.098
L94.8408 231.316
L94.9896 180.037
L95.064 269.224
L95.1384 254.579
L95.2872 150.964
L95.3616 172.952
L95.436 242.504
L95.5104 211.336
L95.6592 167.488
L95.808 249.654
L95.8824 224.036
L95.9568 198.937
L96.0312 231.942
L96.2544 181.722
L96.4032 236.694
L96.4776 211.271
L96.9984 352.124
L97.0728 360.527
L97.296 208.614
L97.3704 229.912
L97.5936 135.736
L97.668 140.142
L98.04 220.667
L98.1144 218.701
L98.1888 202.696
L98.412 93.2052
L98.4864 90.0516
L98.6352 103.314
L98.9328 262.074
L99.0816 248.941
L99.3048 314.044
L99.3792 302.92
L99.4536 304.712
L99.528 323.288
L99.8256 267.215
L100.049 196.54
L100.123 201.227
L100.272 228.918
L100.421 216.088
L100.495 218.096
L100.644 195.935
L100.718 221.466
L100.793 216.628
L100.942 161.764
L101.09 192.436
L101.165 161.094
L101.239 171.052
L101.314 172.477
L101.388 153.318
L101.611 242.224
L101.686 219.954
L101.834 170.252
L101.909 175.112
L102.206 303.352
L102.281 290.802
L102.653 199.196
L102.802 242.396
L102.876 240.085
L102.95 224.641
L103.099 251.188
L103.174 295.165
L103.248 291.126
L103.546 115.561
L103.62 126.988
L103.694 149.106
L103.769 128.521
L103.843 140.099
L103.992 178.05
L104.066 177.402
L104.141 183.126
L104.29 210.536
L104.364 201.011
L104.587 263.975
L104.662 257.56
L104.736 220.753
L104.81 223.734
L105.182 295.9
L105.257 286.223
L105.48 238.422
L105.554 227.255
L105.703 238.638
L106.001 161.008
L106.075 173.449
L106.224 216.001
L106.298 191.723
L106.447 253.931
L106.67 172.564
L106.819 228.032
L107.266 151.115
L107.34 165.522
L107.414 164.334
L107.489 168.978
L107.861 254.838
L107.935 253.585
L108.01 249.913
L108.084 266.329
L108.158 318.364
L108.233 311.797
L108.382 272.917
L108.456 289.722
L108.679 197.49
L108.754 227.276
L108.828 216.736
L108.902 201.724
L108.977 219.457
L109.051 214.511
L109.2 182.91
L109.349 152.821
L109.498 104.048
L109.646 156.04
L109.795 240.884
L109.944 298.492
L110.018 270.196
L110.093 273.284
L110.242 318.774
L110.39 288.448
L110.465 289.225
L110.688 180.534
L110.762 204.402
L110.911 164.442
L110.986 175.717
L111.134 219.241
L111.209 218.42
L111.283 207.296
L111.432 171.138
L111.506 196.583
L111.655 97.0932
L111.878 192.09
L111.953 166.645
L112.027 181.268
L112.176 255.313
L112.25 251.555
L112.399 265.033
L112.474 259.028
L112.548 261.707
L112.622 264.32
L112.846 241.338
L112.994 262.031
L113.069 260.238
L113.143 255.054
L113.366 198.656
L113.59 162.714
L113.738 168.438
L113.813 155.608
L113.887 163.729
L114.259 271.513
L114.408 247.127
L114.482 251.965
L114.557 258.337
L114.706 202.285
L114.78 224.274
L114.854 263.305
L114.929 250.777
L115.078 216.239
L115.152 224.9
L115.226 220.3
L115.301 221.488
L115.45 230.905
L115.598 203.43
L115.673 207.901
L115.896 199.196
L116.045 142.172
L116.119 153.08
L116.268 195.827
L116.342 163.924
L116.417 164.615
L116.491 195.74
L116.566 192.22
L116.714 179.108
L116.863 216.152
L117.012 222.546
L117.161 260.843
L117.235 266.545
L117.31 286.158
L117.384 284.084
L117.458 277.583
L117.533 283.026
L117.607 277.777
L117.979 180.21
L118.054 183.558
L118.202 286.05
L118.277 285.618
L118.5 190.492
L118.574 175.652
L118.723 189.671
L118.872 165.047
L119.021 173.32
L119.17 139.861
L119.318 200.946
L119.393 197.382
L119.616 278.749
L119.765 200.363
L119.988 295.921
L120.062 294.128
L120.137 298.168
L120.211 288.275
L120.806 108.368
L120.955 184.076
L121.03 173.147
L121.104 153.707
L121.327 266.869
L121.476 231.078
L121.55 232.136
L121.625 247.645
L121.699 246.608
L121.848 226.002
L121.997 235.052
L122.071 231.661
L122.146 217.168
L122.22 234.836
L122.369 293.632
L122.518 247.624
L122.592 249.611
L123.038 162.822
L123.113 166.386
L123.262 182.737
L123.336 164.809
L123.41 170.296
L123.634 241.036
L123.708 230.84
L123.782 205.028
L123.857 205.957
L124.006 232.05
L124.154 222.524
L124.229 246.371
L124.303 243.973
L124.452 182.716
L124.601 236.111
L124.75 205.698
L124.824 225.268
L124.898 221.876
L124.973 200.687
L125.047 207.318
L125.122 210.083
L125.196 199.153
L125.27 208.398
L125.419 274.17
L125.717 198.635
L125.791 159.107
L125.866 165.544
L126.014 188.418
L126.089 178.763
L126.238 197.857
L126.386 230.452
L126.535 305.728
L127.13 185.135
L127.205 188.072
L127.354 221.876
L127.502 188.591
L127.577 209.845
L127.651 207.145
L127.8 174.896
L127.949 191.572
L128.023 157.638
L128.098 162.692
L128.246 211.595
L128.395 198.246
L128.47 200.341
L128.693 270.714
L128.767 253.65
L128.916 229.285
L129.065 244.513
L129.139 217.729
L129.214 217.88
L129.66 312.661
L130.032 167.92
L130.255 117.095
L130.404 119.6
L130.478 117.44
L130.553 129.104
L130.702 189.196
L130.776 185.848
L130.85 192.392
L130.999 271.513
L131.074 270.304
L131.148 269.202
L131.297 297.26
L131.52 263.305
L131.743 292.789
L131.892 220.516
L131.966 235.679
L132.041 231.1
L132.19 180.815
L132.264 191.356
L132.487 133.036
L132.636 138.652
L133.157 272.464
L133.231 262.765
L133.306 251.512
L133.38 252.181
L133.454 254.968
L133.603 224.252
L133.678 224.987
L133.752 221.855
L133.901 187.295
L134.05 221.142
L134.198 200.168
L134.347 215.656
L134.496 204.316
L134.719 239.2
L134.794 237.342
L134.942 182.478
L135.017 188.461
L135.166 237.623
L135.314 186.452
L135.463 205.892
L135.612 181.139
L135.835 215.548
L135.984 196.172
L136.133 219.328
L136.207 239.005
L136.282 237.428
L136.43 213.452
L136.579 230.106
L136.654 224.728
L136.802 259.979
L136.951 202.004
L137.174 288.124
L137.249 279.332
L137.546 184.184
L137.77 228.076
L137.918 214.403
L137.993 214.77
L138.067 231.359
L138.142 219.997
L138.29 144.462
L138.365 150.812
L138.514 194.099
L138.588 194.056
L138.811 225.246
L138.96 199.456
L139.183 261.62
L139.258 257.063
L139.63 168.827
L139.704 170.015
L139.853 204.683
L139.927 195.028
L140.076 244.211
L140.15 227.795
L140.225 204.856
L140.299 207.793
L140.374 211.357
L140.448 179.454
L140.671 231.877
L140.746 217.837
L140.82 222.092
L140.894 240.712
L140.969 232.288
L141.043 216.8
L141.192 241.079
L141.266 229.76
L141.415 202.328
L141.564 224.576
L141.638 213.128
L141.713 220.71
L141.862 284.927
L142.308 241.727
L142.382 240.409
L142.606 227.298
L142.829 182.975
L142.978 209.5
L143.275 95.5812
L143.424 138.608
L143.498 105.215
L143.573 107.008
L143.722 178.115
L143.796 170.36
L143.87 170.598
L144.094 338.754
L144.168 333.311
L144.242 339.38
L144.614 265.724
L144.838 213.344
L144.986 197.922
L145.061 203.948
L145.21 185.308
L145.284 190.038
L145.358 217.146
L145.433 215.245
L145.507 201.788
L145.582 214.381
L145.805 154.549
L145.954 155.932
L146.028 155.348
L146.474 314.8
L146.698 235.528
L146.772 251.252
L146.846 253.067
L147.144 171.98
L147.293 177.121
L147.367 180.88
L147.59 218.874
L147.739 182.046
L147.962 198.397
L148.111 112.278
L148.26 197.036
L148.409 260.238
L148.483 256.242
L148.781 293.178
L148.855 302.401
L149.004 265.141
L149.078 265.616
L149.153 290.435
L149.227 288.793
L149.525 198.376
L149.599 196.95
L149.971 111.306
L150.046 113.876
L150.269 210.407
L150.343 213.452
L150.492 277.777
L150.641 220.904
L150.715 223
L150.938 261.21
L151.013 248.38
L151.162 210.666
L151.236 226.477
L151.31 226.218
L151.459 171.786
L151.608 212.027
L151.682 210.234
L151.757 195.179
L151.831 196.172
L151.98 230.192
L152.129 194.207
L152.203 199.153
L152.352 214.64
L152.426 212.027
L152.501 215.634
L152.65 298.643
L152.724 271.34
L152.873 201.27
L153.022 238.768
L153.245 160.316
L153.542 239.632
L153.766 198.721
L153.84 195.2
L153.914 185.502
L154.286 222.308
L154.435 215.612
L154.51 223
L154.658 250.669
L154.733 247.991
L154.882 299.636
L154.956 280.196
L155.03 237.666
L155.105 249.46
L155.179 279.548
L155.254 276.784
L155.477 229.35
L155.626 264.45
L155.7 259.914
L156.146 128.327
L156.221 126.102
L156.295 129.277
L156.444 93.918
L156.518 99.318
L156.816 176.106
L156.89 169.583
L157.039 192.349
L157.114 191.96
L157.262 178.914
L157.56 322.468
L157.709 378.455
L158.006 295.986
L158.081 288.404
L158.304 180.491
L158.453 225.635
L158.676 181.938
L158.825 188.85
L158.899 188.742
L159.048 129.45
L159.122 134.936
L159.569 312.985
L159.718 270.995
L159.866 311.56
L160.536 121.415
L160.61 139.969
L160.759 99.6204
L160.908 155.672
L161.131 127.463
L161.206 134.656
L161.354 99.5772
L161.801 360.959
L161.875 344.824
L162.024 268.187
L162.173 322.381
L162.545 268.77
L162.694 201.076
L162.768 200.903
L162.917 206.627
L163.066 171.808
L163.14 171.98
L163.214 198.268
L163.363 141.157
L163.438 163.708
L163.586 235.549
L163.661 233.735
L163.81 202.544
L164.033 250.972
L164.182 227.708
L164.33 262.225
L164.702 156.32
L164.851 170.792
L165.074 116.944
L165.446 197.576
L165.521 193.732
L165.595 179.605
L165.67 190.319
L165.893 252.052
L165.967 262.268
L166.042 257.387
L166.116 255.097
L166.19 277.194
L166.265 272.42
L166.339 281.773
L166.414 315.923
L166.711 220.3
L166.786 219.241
L166.934 239.632
L167.158 198.786
L167.232 201.637
L167.381 219.306
L167.455 214.187
L167.678 141.956
L167.753 147.637
L167.902 214.122
L167.976 214.057
L168.125 259.158
L168.274 308.125
L168.422 242.548
L168.497 255.875
L168.571 263.176
L168.646 260.8
L168.72 262.808
L168.943 216.217
L169.018 228.335
L169.464 103.681
L169.538 105.15
L169.613 112.084
L169.762 87.2652
L169.836 93.9828
L170.059 179.692
L170.58 288.728
L170.729 321.344
L170.952 349.684
L171.026 344.824
L171.25 272.788
L171.324 280.823
L171.547 200.536
L171.622 208.83
L171.696 208.29
L171.919 139.364
L171.994 142.453
L172.217 175.458
L172.291 175.933
L172.366 171.246
L172.44 151.331
L172.514 156.277
L172.886 219.565
L172.961 218.939
L173.035 203.516
L173.11 206.324
L173.258 268.921
L173.333 255.443
L173.407 256.998
L173.556 278.317
L173.63 269.418
L173.854 203.603
L173.928 208.398
L174.002 205.244
L174.226 233.8
L174.449 164.744
L174.598 195.028
L174.746 154.376
L174.895 242.029
L174.97 240.452
L175.118 230.02
L175.267 190.859
L175.342 194.358
L175.565 239.545
L175.714 301.429
L175.862 279.592
L176.011 288.512
L176.16 235.312
L176.234 253.888
L176.309 252.613
L176.532 143.576
L176.606 149.128
L176.755 140.963
L176.83 146.968
L177.053 225.246
L177.202 235.7
L177.35 274.559
L177.499 209.629
L177.648 266.286
L177.871 178.828
L177.946 193.624
L178.02 182.305
L178.169 127.722
L178.318 162.52
L178.466 149.279
L178.541 150.791
L178.69 196.799
L179.062 315.469
L179.136 308.881
L179.285 281.924
L179.359 281.276
L179.508 240.971
L179.657 277.669
L179.806 249.028
L179.954 259.072
L180.103 229.544
L180.326 176.927
L180.475 203.56
L180.624 166.818
L180.698 171.138
L180.773 173.19
L180.922 150.056
L181.07 168.308
L181.145 165.76
L181.591 240.15
L181.74 221.488
L181.963 185.027
L182.335 293.977
L182.633 233.951
L182.707 239.524
L183.005 193.904
L183.228 161.785
L183.6 230.624
L183.674 231.553
L183.823 242.677
L183.898 243.455
L184.121 179.908
L184.195 189.692
L184.344 235.96
L184.493 223.302
L184.567 225.354
L184.716 213.301
L184.865 215.18
L185.014 174.421
L185.386 274.775
L185.46 266.977
L185.683 200.32
L185.758 189.39
L185.832 192.263
L185.981 218.442
L186.13 219.414
L186.278 242.936
L186.427 213.042
L186.576 245.507
L186.725 190.945
L186.874 217.384
L186.948 203.171
L187.097 224.382
L187.171 212.848
L187.32 174.162
L187.394 179.54
L187.469 174.184
L187.543 180.512
L187.618 205.568
L187.692 198.613
L187.841 159.56
L188.138 247.624
L188.213 277.907
L188.287 277.864
L188.436 246.414
L188.51 251.08
L188.734 212.912
L188.882 238.422
L189.031 221.012
L189.106 228.68
L189.18 223.324
L189.329 198.224
L189.403 201.745
L189.626 229.436
L189.775 180.469
L189.85 185.243
L189.924 189.174
L189.998 174.616
L190.073 187.856
L190.222 246.133
L190.37 203.668
L190.519 231.316
L190.594 222.654
L190.668 230.214
L190.891 208.895
L191.04 240.798
L191.189 229.782
L191.338 249.719
L191.412 241.1
L191.486 245.593
L191.561 262.83
L191.635 257.992
L192.082 162.347
L192.156 161.224
L192.305 143.101
L192.602 178.763
L192.677 190.319
L192.751 186.323
L192.826 173.6
L193.346 283.998
L193.421 298.34
L193.495 293.567
L193.57 294.172
L193.718 292.768
L194.165 151.46
L194.239 156.536
L194.388 181.376
L194.462 170.382
L194.611 185.178
L194.76 161.634
L194.983 209.37
L195.058 211.012
L195.355 281.212
L195.43 294.841
L195.504 294.582
L195.802 225.527
L195.95 168.913
L196.025 179.994
L196.174 136.664
L196.248 146.6
L196.322 170.36
L196.397 170.08
L196.471 165.328
L196.62 191.204
L196.694 183.86
L196.769 191.68
L196.918 221.358
L196.992 221.66
L197.141 262.268
L197.215 250.086
L197.29 236.089
L197.364 241.208
L197.438 241.165
L197.587 221.963
L197.662 240.431
L197.736 239.999
L197.81 235.657
L197.885 244.47
L198.034 228.076
L198.182 208.96
L198.406 254.039
L198.554 270.152
L198.852 199.283
L198.926 155.089
L199.001 160.079
L199.075 174.875
L199.15 170.814
L199.224 153.426
L199.298 153.836
L199.373 158.005
L199.522 146.168
L199.819 231.186
L199.968 269.267
L200.638 217.038
L200.786 233.756
L201.01 164.701
L201.307 226.996
L201.456 199.153
L201.828 275.228
L201.902 267.28
L202.051 198.03
L202.126 200.384
L202.274 165.868
L202.498 258.985
L202.572 247.969
L202.721 228.68
L202.795 231.208
L202.87 237.126
L203.018 199.823
L203.167 144.181
L203.39 175.976
L203.837 275.38
L203.986 230.192
L204.06 230.344
L204.134 227.082
L204.283 199.348
L204.432 224.62
L204.581 208.096
L204.73 240.949
L204.804 238.552
L204.953 219.976
L205.176 182.953
L205.325 206.864
L205.399 201.464
L205.474 197.62
L205.771 247.559
L205.846 263.672
L205.92 254.838
L206.069 219.5
L206.218 230.257
L206.515 161.677
L206.59 166.883
L206.962 211.206
L207.036 209.068
L207.185 226.52
L207.334 213.755
L207.482 256.825
L207.557 245.766
L207.631 237.774
L207.78 251.944
L208.003 205.266
L208.078 205.482
L208.152 202.976
L208.301 189.714
L208.45 210.126
L208.598 239.718
L208.673 237.256
L208.822 228.961
L208.97 244.427
L209.045 241.273
L209.64 170.468
L209.789 211.012
L209.863 208.614
L210.161 157.768
L210.235 165.176
L210.31 172.24
L210.458 207.577
L210.533 202.825
L210.607 213.107
L210.905 293.761
L210.979 292.163
L211.277 234.383
L211.426 218.399
L211.5 224.512
L211.574 217.924
L211.649 222.416
L211.723 217.967
L211.872 231.985
L211.946 226.909
L212.021 193.71
L212.095 193.861
L212.244 220.537
L212.467 169.302
L212.542 182.759
L212.616 177.834
L212.69 166.883
L212.765 169.172
L212.988 231.769
L213.062 230.322
L213.137 235.225
L213.211 231.164
L213.286 217.816
L213.583 259.115
L214.03 188.591
L214.104 190.232
L214.253 209.564
L214.327 201.745
L214.402 205.806
L214.476 218.226
L214.55 217.34
L214.625 212.718
L214.774 248.876
L214.997 214.036
L215.146 194.531
L215.369 204.791
L215.443 209.068
L215.518 201.724
L215.666 219.803
L215.741 192.716
L215.815 193.429
L215.89 207.361
L216.038 181.895
L216.187 222.654
L216.336 198.656
L216.485 259.244
L216.559 249.546
L216.708 268.964
L216.782 266.545
L216.857 262.29
L217.006 276.611
L217.154 228.227
L217.229 237.04
L217.303 246.997
L217.452 207.728
L217.526 211.984
L217.675 183.839
L217.75 185.632
L217.898 209.629
L218.047 183.32
L218.122 185.588
L218.196 176.192
L218.27 176.603
L218.345 186.301
L218.419 182.975
L218.568 156.752
L218.717 209.262
L218.791 186.02
L218.866 188.051
L218.94 198.224
L219.089 170.188
L219.238 226.996
L219.312 214.684
L219.386 203.819
L219.61 267.409
L219.684 263.888
L219.907 305.857
L219.982 295.964
L220.13 268.036
L220.279 279.592
L220.577 211.638
L221.098 108.498
L221.246 181.139
L221.321 175.091
L221.395 168.697
L221.544 236.24
L221.618 222.46
L221.767 194.056
L221.842 205.309
L222.065 317.456
L222.139 312.488
L222.214 318.644
L222.288 311.171
L222.586 239.264
L222.734 207.34
L222.809 209.046
L223.032 228.184
L223.255 191.01
L223.478 118.088
L223.627 157.422
L223.776 130.336
L224.297 230.257
L224.446 220.386
L224.52 229.264
L224.669 274.451
L224.743 268.252
L224.818 248.423
L224.892 251.166
L225.264 283.782
L225.338 284.603
L225.487 224.814
L225.71 156.644
L225.859 134.18
L226.231 226.844
L226.306 237.904
L226.38 236.888
L226.454 233.519
L226.529 238.271
L226.603 251.728
L226.826 231.1
L226.901 233.432
L226.975 229.328
L227.124 218.269
L227.273 229.631
L227.347 222.784
L227.422 226.369
L227.57 209.888
L227.645 211.66
L227.719 215.742
L228.166 169.972
L228.314 201.896
L228.389 196.194
L228.463 206.065
L228.538 202.976
L228.612 182.586
L228.686 186.863
L228.835 230.084
L228.91 222.049
L228.984 225.721
L229.058 238.703
L229.133 235.765
L229.282 207.21
L229.356 214.187
L229.43 212.826
L229.505 203.516
L229.654 219.889
L229.802 190.772
L229.951 230.149
L230.1 205.72
L230.249 245.939
L230.323 243.109
L230.472 208.765
L230.695 292.746
L230.77 284.905
L231.067 259.136
L231.216 186.366
L231.29 199.715
L231.365 236.154
L231.439 227.406
L231.588 203.581
L231.811 174.68
L232.034 117.311
L232.109 137.161
L232.183 145.996
L232.332 122.322
L232.481 171.916
L232.63 218.723
L232.704 209.5
L233.225 297.908
L233.299 304.172
L233.448 250.475
L233.746 176.624
L233.82 176.02
L234.043 268.36
L234.118 268.036
L234.415 212.783
L234.638 135.001
L234.713 159.215
L234.787 150.64
L234.862 130.314
L235.234 241.727
L235.308 238.724
L235.457 202.264
L235.606 264.234
L235.68 255.983
L235.754 267.712
L235.829 297.93
L235.903 292.076
L236.052 249.503
L236.126 271.816
L236.201 268.835
L236.275 237.882
L236.35 238.271
L236.498 259.482
L236.796 173.816
L237.094 117.224
L237.168 116.944
L237.763 218.55
L237.838 214.921
L237.912 201.724
L237.986 208.96
L238.135 256.091
L238.21 247.602
L238.284 251.468
L238.433 271.643
L238.656 215.699
L238.805 243.455
L238.879 225.376
L238.954 233.173
L239.102 247.321
L239.177 237.601
L239.4 267.949
L239.474 281.665
L240.07 148.868
L240.144 149.365
L240.218 153.556
L240.293 153.08
L240.516 221.963
L240.59 217.621
L240.665 220.062
L240.888 266.956
L241.037 207.188
L241.186 156.212
L241.334 170.792
L241.483 151.352
L242.078 292.314
L242.153 281.06
L242.302 223.712
L242.45 264.688
L242.599 236.413
L242.748 246.176
L243.046 183.191
L243.194 185.977
L243.418 172.283
L243.566 199.542
L243.641 189.995
L243.715 193.278
L243.79 198.592
L243.938 240.56
L244.013 238.984
L244.162 207.728
L244.31 253.823
L244.459 196.54
L244.534 204.553
L244.608 230.668
L244.682 224.706
L244.757 220.192
L244.906 233.864
L244.98 225.181
L245.129 244.232
L245.352 192.284
L245.426 218.809
L245.501 217.448
L245.575 184.141
L245.65 184.336
L245.798 218.982
L245.873 202.501
L246.022 215.288
L246.096 215.418
L246.17 216.865
L246.319 251.922
L246.542 208.852
L246.691 238.141
L246.84 211.508
L246.989 232.59
L247.063 224.512
L247.286 178.05
L247.435 196.54
L247.584 181.376
L247.733 213.28
L247.956 171.052
L248.179 199.866
L248.626 302.034
L249.072 241.964
L249.146 230.905
L249.221 237.515
L249.37 276.395
L249.518 233.584
L249.89 110.528
L249.965 110.852
L250.411 171.98
L250.486 149.192
L250.56 155.521
L250.858 216.39
L250.932 217.016
L251.081 250.475
L251.23 306.721
L251.378 267.539
L251.527 284.192
L251.75 221.812
L251.899 244.232
L252.048 284.97
L252.197 256.48
L252.271 272.269
L252.346 268.316
L252.643 190.103
L252.718 190.945
L252.792 198.289
L252.866 196.237
L252.941 185.869
L253.09 198.203
L253.313 142.604
L253.462 189.822
L253.536 188.569
L253.61 184.919
L254.28 272.485
L254.503 174.637
L254.578 184.055
L254.652 187.489
L254.801 200.644
L254.95 181.031
L255.098 218.42
L255.247 174.421
L255.322 189.131
L255.396 203.106
L255.47 200.752
L255.545 187.489
L255.991 296.634
L256.14 279.527
L256.214 283.89
L256.289 268.727
L256.438 206.864
L256.512 214.684
L256.661 176.041
L256.735 183.58
L256.81 182.716
L256.884 174.788
L256.958 178.676
L257.107 216.692
L257.256 182.003
L257.405 248.034
L257.554 219.652
L257.702 271.362
L257.851 224.166
L257.926 225.116
L258 225.764
L258.149 241.036
L258.223 232.331
L258.372 188.98
L258.446 192.047
L258.595 176.3
L258.67 179.108
L258.744 177.229
L258.893 185.761
L259.116 165.911
L259.19 169.82
L259.414 212.264
L259.488 221.617
L259.562 220.148
L259.711 226.196
L259.786 225.354
L259.86 229.177
L260.009 208.052
L260.158 267.323
L260.306 228.875
L260.455 296.245
L260.53 287.065
L260.604 275.444
L260.753 303.222
L260.827 317.305
L260.902 312.726
L261.199 220.688
L261.422 120.637
L261.72 79.8348
L261.869 121.35
L261.943 115.885
L262.018 117.7
L262.166 189.39
L262.315 253.952
L262.39 251.209
L262.613 224.706
L262.836 284.905
L263.134 321.668
L263.431 276.416
L263.952 108.628
L264.026 94.2852
L264.25 156.104
L264.324 151.396
L264.398 148.631
L264.77 248.056
L265.068 272.075
L265.217 256.22
L265.366 254.752
L265.44 253.585
L265.514 269.548
L265.738 232.547
L265.812 238.832
L265.961 274.105
L266.258 220.04
L266.63 129.234
L266.854 150.618
L267.226 199.672
L267.746 272.248
L267.895 241.208
L268.044 273.371
L268.714 178.871
L268.788 185.761
L268.862 209.78
L269.011 169.691
L269.086 169.799
L269.309 237.644
L269.383 241.424
L269.532 279.7
L269.681 228.81
L269.755 236.305
L269.904 261.944
L270.276 149.84
L270.35 148.48
L270.425 141.136
L270.722 192.932
L270.871 200.881
L271.094 234.059
L271.169 231.985
L271.243 236.672
L271.466 286.158
L271.541 285.121
L271.615 284.84
L271.69 283.912
L271.838 293.394
L272.136 192.155
L272.285 185.264
L272.508 143.49
L272.582 148.22
L272.657 145.996
L272.806 130.141
L272.954 174.983
L273.029 167.207
L273.103 169.496
L273.252 247.796
L273.401 311.819
L273.55 269.699
L273.624 272.723
L273.698 281.838
L273.773 273.198
L273.996 221.401
L274.145 233.108
L274.219 228.313
L274.294 211.055
L274.368 214.1
L274.442 218.507
L274.591 181.571
L274.666 188.785
L274.814 220.343
L274.889 211.379
L275.112 166.84
L275.261 189.908
L275.335 182.564
L275.41 183.752
L275.558 236.564
L275.707 270.26
L275.856 245.528
L276.005 259.612
L276.228 203.473
L276.302 206.929
L276.451 225.354
L276.6 211.94
L276.823 261.037
L277.195 186.755
L277.418 123.748
L277.716 201.788
L277.939 228.875
L278.088 211.4
L278.162 216.671
L278.386 194.898
L278.46 199.931
L278.534 193.429
L278.758 256.458
L278.832 232.763
L278.906 242.029
L279.055 311.344
L279.353 262.506
L279.576 176.452
L279.725 159.755
L279.874 204.424
L279.948 191.809
L280.022 179.108
L280.171 228.659
L280.246 217.837
L280.394 193.084
L280.543 221.704
L280.766 191.658
L280.915 225.289
L281.064 263.867
L281.138 259.979
L281.213 261.556
L281.287 270.044
L281.362 267.884
L281.585 192.868
L281.659 195.179
L281.734 188.267
L281.957 143.857
L282.031 146.946
L282.18 179.778
L282.254 168.352
L282.478 210.191
L282.552 201.443
L282.626 207.836
L282.85 263.305
L282.924 260.713
L283.147 227.298
L283.37 280.823
L283.445 267.582
L283.519 259.396
L283.594 261.901
L283.668 265.271
L283.891 185.632
L283.966 193.796
L284.04 198.203
L284.263 152.389
L284.486 223.41
L284.71 233.605
L284.858 255.464
L285.23 214.792
L285.379 181.808
L285.528 246.522
L285.602 244.902
L285.751 224.9
L285.826 226.909
L285.9 223.626
L286.198 158.718
L286.272 148.069
L286.346 154.852
L286.495 137.399
L286.718 240.172
L286.867 223.972
L287.016 251.62
L287.239 211.012
L287.314 204.056
L287.537 278.447
L287.686 250.324
L287.76 251.317
L287.983 214.748
L288.058 227.622
L288.132 227.147
L288.206 225.246
L288.355 245.658
L288.43 239.005
L288.578 206.994
L288.653 207.901
L288.802 174.119
L288.95 200.104
L289.099 173.622
L289.174 173.687
L289.248 170.339
L289.322 172.672
L289.471 200.255
L289.546 198.16
L289.62 191.96
L289.918 223.475
L290.066 266.351
L290.215 253.434
L290.364 274.235
L290.513 218.269
L290.662 257.97
L290.736 248.704
L291.034 212.524
L291.257 140.531
L291.331 139.926
L291.48 160.77
L291.554 150.834
L291.629 156.126
L291.778 209.759
L291.852 209.154
L292.075 260.972
L292.15 277.712
L292.224 275.25
L292.447 174.767
L292.522 175.112
L292.968 301.256
L293.042 304.108
L293.191 267.863
L293.489 177.337
L293.563 173.838
L293.712 133.748
L293.935 177.964
L294.158 209.694
L294.382 187.208
L294.605 207.685
L294.754 225.7
L294.902 268.23
L295.051 237.752
L295.2 212.027
L295.274 218.485
L295.423 253.002
L295.572 224.749
L295.721 236.91
L295.87 217.384
L296.018 259.612
L296.242 219.716
L296.316 224.857
L296.39 229.933
L296.539 204.899
L296.762 137.636
L296.911 175.76
L296.986 145.261
L297.06 149.603
L297.209 239.005
L297.358 203.473
L297.432 207.145
L297.506 217.967
L297.804 190.232
L297.878 197.944
L298.102 254.622
L298.25 274.019
L298.399 303.287
L298.474 300.5
L298.697 208.808
L298.771 218.831
L298.846 220.796
L298.92 206.238
L298.994 211.184
L299.143 245.615
L299.366 148.674
L299.515 187.316
L299.59 184.94
L299.738 142.021
L299.813 129.493
L300.334 269.785
L300.482 261.361
L300.557 262.139
L300.631 272.464
L300.706 271.859
L300.78 276.892
L301.152 224.641
L301.375 156.083
L301.45 159.409
L301.524 158.804
L301.598 158.869
L301.747 201.076
L301.896 189.757
L301.97 201.529
L302.119 173.795
L302.194 175.717
L302.268 194.574
L302.342 193.3
L302.491 184.962
L302.789 242.764
L302.938 260.648
L303.086 240.625
L303.458 316.808
L303.533 325.405
L303.682 267.02
L303.979 181.528
L304.054 199.024
L304.128 195.524
L304.426 125.584
L304.5 128.629
L304.574 129.104
L304.723 114.848
L304.946 191.161
L305.021 183.904
L305.244 232.828
L305.318 225.851
L305.393 217.254
L305.467 220.991
L305.616 243.887
L305.69 237.796
L305.839 217.319
L305.988 240.366
L306.137 208.7
L306.211 226.52
L306.36 283.372
L306.509 252.246
L306.583 257.387
L306.732 298.189
L306.806 295.878
L307.03 242.677
L307.104 248.941
L307.327 203.128
L307.402 214.597
L307.476 219.414
L307.774 174.572
L307.848 175.372
L307.922 184.94
L308.071 172.931
L308.146 175.415
L308.294 217.297
L308.369 216.736
L308.443 216.563
L308.592 249.697
L308.964 174.292
L309.038 168.265
L309.113 175.328
L309.187 172.132
L309.262 171.548
L309.41 178.914
L309.485 174.443
L309.559 177.424
L309.931 227.752
L310.006 221.034
L310.08 229.026
L310.154 226.715
L310.303 212.524
L310.526 264.169
L310.601 273.328
L310.75 255.227
L310.824 260.972
L310.898 255.162
L311.047 225.332
L311.122 226.434
L311.196 225.203
L311.345 216.001
L311.494 224.144
L311.568 217.6
L311.866 260.497
L311.94 286.028
L312.014 277.496
L312.312 210.882
L312.386 205.396
L312.461 211.055
L312.535 229.264
L312.61 228.508
L312.982 145.326
L313.056 161.332
L313.428 109.297
L313.502 122.495
L313.874 216.908
L314.023 268.813
L314.172 243.152
L314.246 246.09
L314.321 256.566
L314.47 235.42
L314.544 238.4
L314.767 273.565
L314.842 269.224
L314.916 278.49
L315.065 323.224
L315.214 288.124
L315.586 199.499
L315.809 175.976
L315.958 149.279
L316.181 163.362
L316.255 160.079
L316.33 162.196
L316.553 133.705
L316.999 243.455
L317.222 331.972
L317.371 322.36
L317.52 244.664
L317.594 245.42
L317.669 257.689
L317.818 209.737
L317.966 173.082
L318.115 159.107
L318.264 177.056
L318.487 147.421
L318.636 163.924
L318.859 222.719
L319.008 254.752
L319.157 227.449
L319.306 266.696
L319.38 245.852
L319.454 225.268
L319.603 267.517
L319.678 250.28
L319.752 256.631
L319.901 285.683
L320.124 250.043
L320.198 237.536
L320.347 194.963
L320.496 224.922
L320.645 199.067
L320.868 212.891
L320.942 209.219
L321.091 230.495
L321.463 196.28
L321.538 199.175
L321.761 116.814
L322.207 235.7
L322.282 221.531
L322.356 212.61
L322.43 220.451
L322.505 217.816
L322.654 164.766
L322.728 169.604
L322.802 164.572
L322.877 167.855
L323.323 283.112
L323.398 282.119
L323.546 293.696
L323.695 274.062
L323.918 290.694
L323.993 287.411
L324.29 218.658
L324.365 228.853
L324.439 222.978
L324.811 121.696
L324.886 128.672
L324.96 141.46
L325.034 138.846
L325.109 125.519
L325.63 274.969
L325.704 274.494
L326.002 249.697
L326.076 244.924
L326.299 177.316
L326.374 186.258
L326.522 169.475
L326.597 172.78
L326.746 209.219
L326.82 203.84
L326.894 193.364
L327.043 212.956
L327.118 205.979
L327.266 235.333
L327.341 230.106
L327.415 197.08
L327.49 200.6
L327.564 215.31
L327.713 164.334
L327.787 177.229
L328.01 241.446
L328.159 260.044
L328.234 252.44
L328.457 272.464
L328.606 257.344
L328.754 265.552
L328.903 258.035
L328.978 259.849
L329.126 236.845
L329.201 237.817
L329.87 114.438
L329.945 111.414
L330.019 113.228
L330.391 183.796
L330.614 254.125
L330.986 301.71
L331.061 300.371
L331.358 266.2
L331.805 214.511
L332.102 184.249
L332.177 187.792
L332.326 211.249
L332.4 209.694
L332.772 157.206
L332.846 160.23
L333.144 210.731
L333.516 266.934
L333.59 263.132
L333.888 231.359
L333.962 232.59
L334.111 251.015
L334.186 253.672
L334.706 133.964
L334.781 142.82
L335.004 177.553
L335.153 160.856
L335.45 248.38
L335.599 257.797
L335.748 303.092
L336.046 262.96
L336.12 260.54
L336.269 230.084
L336.343 215.634
L336.492 253.283
L336.641 215.742
L336.938 146.039
L337.013 152.324
L337.162 131.286
L337.534 227.276
L337.682 260.195
L337.757 262.916
L337.831 271.643
L337.906 265.098
L338.278 188.828
L338.426 206.929
L338.575 141.784
L339.022 282.572
L339.096 260.497
L339.17 260.54
L339.245 260.713
L339.319 250.496
L339.468 211.228
L339.542 230.084
L339.617 224.036
L339.691 206.368
L339.766 209.996
L339.914 229.285
L339.989 229.868
L340.212 211.098
L340.286 215.008
L340.361 227.406
L340.435 227.341
L340.584 175.112
L340.658 177.38
L340.733 178.612
L340.807 176.948
L341.03 261.253
L341.179 248.574
L341.254 251.965
L341.774 180.059
L341.923 206.627
L341.998 207.664
L342.146 214.705
L342.295 192.803
L342.444 210.688
L342.593 190.427
L342.742 222.848
L342.816 221.164
L342.89 221.876
L343.039 254.298
L343.188 219.414
L343.262 221.034
L343.411 200.536
L343.486 204.035
L343.634 219.5
L343.709 223.345
L343.858 240.625
L344.006 207.016
L344.081 211.854
L344.155 213.172
L344.23 208.009
L344.304 209.824
L344.527 258.92
L344.602 246.09
L344.676 257.322
L344.75 252.44
L344.974 215.008
L345.048 222.74
L345.122 216.844
L345.271 177.272
L345.569 209.435
L345.643 201.724
L345.718 176.473
L345.792 178.957
L345.941 192.738
L346.015 193.408
L346.164 191.096
L346.313 180.664
L346.387 187.576
L346.462 185.718
L346.536 186.344
L346.759 235.895
L346.834 235.657
L347.354 286.374
L347.503 300.284
L347.801 221.38
L347.875 218.766
L348.098 157.768
L348.173 167.66
L348.322 158.178
L348.47 171.829
L348.545 162.023
L348.619 163.513
L348.768 190.146
L348.842 182.586
L348.991 212.092
L349.066 227.492
L349.14 224.404
L349.214 233.476
L349.363 297.066
L349.586 237.212
L349.735 199.391
L349.81 201.335
L349.958 214.057
L350.107 196.734
L350.182 182.348
L350.33 207.685
L350.479 227.298
L350.554 227.6
L350.777 252.484
L350.926 222.265
L351.074 182.068
L351.149 184.076
L351.298 212.113
L351.372 207.491
L351.446 205.288
L351.521 211.422
L351.744 241.122
L351.818 243.196
L351.893 250.345
L352.116 201.594
L352.265 162.066
L352.339 170.965
L352.414 193.472
L352.488 186.647
L352.562 173.017
L352.711 227.125
L352.786 211.444
L352.86 200.6
L353.158 236.78
L353.232 243.023
L353.381 199.715
L353.455 209.024
L353.604 238.573
L353.678 224.404
L353.753 224.447
L353.902 253.888
L353.976 249.805
L354.199 284.992
L354.571 156.083
L354.646 159.215
L354.72 167.099
L354.794 160.9
L354.943 193.645
L355.092 237.061
L355.166 236.176
L355.241 230.084
L355.39 200.536
L355.464 203.473
L355.613 190.924
L355.687 194.056
L355.762 205.655
L355.836 203.084
L355.91 210.515
L356.059 233.627
L356.208 203.668
L356.431 228.054
L356.506 230.3
L356.58 241.036
L356.654 236.867
L356.878 196.993
L357.25 253.067
L357.473 186.733
L357.547 195.373
L357.696 232.201
L357.77 227.514
L357.845 225.008
L357.994 233.432
L358.142 215.764
L358.217 219.176
L358.366 233.065
L358.514 259.201
L358.589 256.177
L358.738 215.116
L358.812 222.568
L358.886 226.564
L359.035 191.183
L359.11 191.593
L359.333 166.559
L359.407 167.898
L359.63 216.628
L359.705 221.466
L359.928 183.493
L360.077 190.103
L360.226 205.655
L360.374 226.24
L360.449 224.252
L360.598 235.916
L360.672 227.341
L360.746 227.881
L360.895 257.862
L361.044 224.62
L361.118 228.896
L361.193 238.789
L361.342 221.725
L361.49 253.931
L361.639 211.724
L361.714 225.397
L361.788 222.2
L361.862 212.653
L361.937 216.671
L362.011 217.297
L362.234 162.498
L362.309 158.264
L362.383 147.616
L362.458 155.586
L362.606 206.67
L362.681 186.172
L362.904 256.847
L362.978 243.649
L363.127 282.853
L363.276 249.2
L363.425 281.19
L363.648 222.654
L363.871 164.917
L364.02 180.426
L364.094 176.149
L364.318 140.898
L364.541 179.044
L364.838 252.332
L364.913 255.983
L365.062 227.968
L365.21 246.846
L365.285 238.184
L365.434 286.244
L365.508 281.125
L365.731 206.152
L365.88 149.97
L365.954 157.595
L366.029 194.531
L366.103 192.198
L366.178 193.04
L366.326 259.763
L366.401 253.996
L366.475 250.864
L366.624 279.224
L366.773 259.439
L366.847 261.534
L366.996 181.031
L367.07 182.305
L367.145 198.116
L367.294 175.847
L367.442 197.706
L367.517 192.176
L367.591 193.213
L367.666 211.098
L367.74 209.089
L367.814 191.593
L367.889 197.144
L367.963 208.29
L368.038 206.346
L368.112 198.332
L368.186 198.743
L368.261 200.989
L368.335 195.935
L368.484 170.9
L368.633 202.76
L368.707 186.344
L368.93 268.856
L369.005 256.177
L369.079 256.825
L369.154 269.656
L369.228 263.564
L369.302 254.298
L369.377 256.22
L369.451 256.026
L369.674 201.443
L369.823 202.026
L370.046 222.481
L370.121 217.664
L370.27 200.903
L370.418 189.196
L370.642 209.154
L371.088 179
L371.311 239.61
L371.46 233.929
L371.609 222.287
L371.683 226.304
L371.832 210.083
L371.906 213.517
L371.981 218.032
L372.204 261.988
L372.427 247.148
L372.576 238.184
L372.65 242.936
L372.948 213.863
L373.246 137.075
L373.32 139.105
L373.618 230.171
L373.692 223.972
L373.841 179.886
L373.915 191.464
L373.99 182.953
L374.064 184.703
L374.734 296.526
L374.808 290.953
L374.957 273.047
L375.254 205.482
L375.403 198.073
L375.478 198.829
L375.552 204.553
L375.775 247.213
L376.073 195.913
L376.222 157.724
L376.296 154.852
L376.37 144.246
L376.445 145.823
L376.891 244.081
L377.04 241.165
L377.114 234.62
L377.189 235.376
L377.412 264.277
L377.635 240.517
L377.71 245.507
L377.858 203.905
L378.007 219.868
L378.082 219.673
L378.156 216.973
L378.379 230.149
L378.677 198.116
L378.9 174.205
L378.974 168.913
L379.049 174.335
L379.198 208.312
L379.272 206.627
L379.346 206.67
L379.495 216.476
L379.57 207.685
L379.793 222.589
L380.016 204.877
L380.09 209.478
L380.314 241.921
L380.388 240.625
L380.611 223.54
L380.834 255.162
L380.909 253.002
L380.983 248.596
L381.058 256.631
L381.281 205.612
L381.355 213.82
L381.43 212.783
L381.504 208.117
L381.578 213.56
L381.653 211.228
L381.802 176.322
L381.876 178.115
L381.95 177.704
L382.174 219.047
L382.322 216.628
L382.397 215.353
L382.471 210.385
L382.546 197.9
L382.62 199.801
L382.694 201.313
L382.843 178.072
L382.992 193.386
L383.066 190.297
L383.141 199.175
L383.513 289.16
L383.81 266.178
L383.959 203.128
L384.108 216.368
L384.182 201.335
L384.257 205.007
L384.331 212.092
L384.554 186.15
L384.629 186.474
L384.778 174.119
L384.926 212.113
L385.001 202.933
L385.075 204.078
L385.15 215.504
L385.224 213.215
L385.298 205.072
L385.373 211.897
L385.522 248.768
L385.596 249.006
L385.745 262.204
L385.894 239.718
L386.042 274.861
L386.117 270.714
L386.191 260.951
L386.266 264.342
L386.34 266.502
L386.861 84.7812
L387.158 142
L387.307 182.672
L387.53 269.202
L387.754 294.906
L387.977 248.336
L388.051 251.296
L388.126 250.345
L388.349 273.284
L388.498 246.673
L388.646 252.116
L388.721 238.66
L388.795 242.051
L388.944 225.98
L389.167 163.276
L389.242 174.076
L389.316 185.113
L389.688 152.368
L389.762 153.923
L389.911 164.744
L389.986 159.388
L390.06 166.472
L390.209 209.478
L390.283 205.828
L390.73 282.227
L390.804 285.035
L390.953 328.429
L391.027 325.038
L391.25 296.094
L391.771 116.987
L391.994 105.107
L392.143 128.413
L392.292 180.059
L392.441 211.055
L392.515 214.165
L392.59 205.936
L392.813 236.003
L392.887 234.966
L393.11 263.219
L393.185 260.519
L393.259 261.167
L393.408 247.926
L393.706 199.153
L393.78 200.212
L393.854 198.073
L393.929 199.24
L394.152 225.203
L394.375 234.34
L394.747 212.221
L394.822 201.205
L394.896 204.467
L394.97 225.419
L395.045 221.617
L395.194 212.113
L395.491 220.796
L395.64 236.586
L396.086 185.005
L396.235 231.424
L396.384 213.236
L396.458 228.335
L396.682 162.606
L396.756 163.319
L396.905 170.425
L397.054 209.154
L397.128 206.713
L397.277 197.62
L397.574 231.942
L397.872 271.276
L397.946 264.385
L398.095 281.276
L398.17 277.129
L398.244 282.27
L398.393 243.93
L398.616 155.456
L398.69 157.768
L398.765 181.268
L398.839 176.041
L398.914 162.908
L399.137 224.382
L399.211 216.908
L399.36 205.201
L399.509 215.915
L399.583 213.647
L399.658 237.99
L399.732 237.688
L399.881 218.14
L399.955 220.71
L400.104 251.792
L400.178 247.364
L400.327 268.208
L400.699 205.115
L400.774 197.274
L400.848 203.171
L400.997 190.686
L401.146 215.137
L401.294 185.372
L401.369 200.752
L401.518 174.616
L401.592 181.506
L401.666 182.651
L401.741 181.204
L401.89 162.93
L402.336 229.912
L402.41 233.389
L402.634 260.303
L402.708 266.912
L402.857 293.912
L403.08 239.372
L403.303 207.469
L403.378 210.385
L403.526 235.765
L403.601 235.312
L403.824 224.144
L403.898 209.111
L404.047 226.024
L404.27 176.171
L404.494 119.881
L404.568 125.821
L404.791 191.161
L405.089 258.078
L405.238 262.571
L405.312 260.713
L405.461 266.912
L405.535 266.372
L405.684 249.006
L405.907 187.014
L406.056 195.913
L406.205 177.121
L406.428 221.466
L406.502 223.021
L406.577 235.787
L406.651 235.117
L406.8 205.439
L406.949 220.386
L407.172 187.338
L407.246 194.142
L407.321 190.081
L407.395 197.231
L407.618 227.536
L407.693 230.689
L407.99 203.516
L408.214 213.539
L408.362 228.702
L408.437 224.576
L408.511 219.349
L408.66 266.524
L409.032 178.05
L409.106 179.108
L409.255 245.55
L409.33 238.746
L409.404 236.694
L409.553 269.85
L409.85 212.545
L409.999 182.651
L410.148 196.626
L410.222 194.941
L410.371 215.72
L410.446 213.992
L410.52 212.912
L410.594 219.976
L410.669 208.938
L410.818 169.993
L410.892 176.128
L410.966 171.635
L411.115 196.561
L411.264 211.508
L411.338 204.575
L411.413 206.108
L411.487 217.47
L411.562 213.215
L411.636 204.488
L411.785 227.622
L411.859 223.237
L411.934 216.498
L412.082 247.04
L412.157 245.744
L412.454 213.971
L412.529 216.606
L412.752 245.291
L412.975 203.063
L413.273 285.985
L413.422 264.515
L413.496 272.572
L413.57 267.323
L414.091 167.855
L414.24 181.225
L414.389 163.88
L414.463 167.185
L414.538 174.162
L414.686 163.081
L414.761 168.136
L414.835 165.673
L414.91 169.626
L415.207 258.251
L415.505 326.118
L415.654 254.428
L415.877 170.447
L415.951 158.027
L416.174 173.989
L416.472 148.955
L416.546 153.426
L416.993 280.952
L417.067 269.504
L417.142 274.04
L417.216 289.312
L417.29 287.821
L417.588 257.408
L417.737 213.258
L417.886 228.745
L418.034 207.923
L418.109 214.23
L418.258 220.256
L418.406 191.982
L418.481 192.587
L418.704 195.438
L418.778 205.849
L418.853 205.46
L418.927 205.612
L419.225 180.318
L419.448 138.76
L419.522 144.203
L419.671 187.316
L419.746 168.784
L419.82 170.144
L420.192 288.296
L420.564 240.409
L420.638 241.381
L420.713 236.651
L420.936 246.587
L421.085 232.568
L421.159 232.979
L421.234 245.226
L421.308 239.588
L421.531 210.256
L421.606 210.904
L422.052 174.205
L422.201 158.675
L422.275 160.576
L422.573 226.78
L422.722 191.939
L422.796 192.198
L423.168 268.144
L423.391 248.725
L423.466 273.932
L423.54 263.932
L423.614 260.432
L423.912 191.874
L423.986 193.624
L424.061 203.603
L424.284 175.501
L424.358 178.05
L424.433 179.022
L424.507 192.932
L424.582 192.544
L424.656 199.801
L424.73 192.025
L425.028 206.022
L425.177 197.965
L425.549 242.288
L425.698 261.383
L425.846 251.015
L425.921 274.537
L425.995 263.543
L426.144 244.384
L426.218 251.922
L426.442 225.246
L426.516 217.751
L426.665 148.35
L426.739 155.608
L426.814 174.162
L426.888 174.032
L426.962 177.143
L427.111 208.333
L427.26 246.457
L427.483 210.882
L427.558 212.912
L427.632 211.919
L427.93 173.104
L428.153 204.553
L428.376 242.591
L428.45 244.254
L428.525 240.841
L428.599 245.01
L428.748 272.356
L428.897 239.416
L428.971 251.166
L429.046 247.3
L429.194 218.269
L429.269 215.094
L429.418 194.596
L429.566 205.741
L429.715 186.452
L429.864 241.468
L430.31 181.29
L430.385 180.858
L430.534 188.699
L430.608 199.175
L430.682 194.38
L430.831 157.552
L431.203 273.738
L431.278 281.708
L431.426 255.464
L431.501 277
L431.575 269.785
L431.798 226.996
L431.947 202.48
L432.096 228.983
L432.468 197.728
L432.617 250.907
L432.691 245.291
L432.914 153.685
L432.989 155.5
L433.138 172.391
L433.361 237.86
L433.435 226.024
L433.584 218.744
L433.658 225.181
L433.733 222.395
L433.807 222.654
L433.882 223.453
L434.03 237.558
L434.105 248.747
L434.179 246.371
L434.254 247.148
L434.402 275.142
L434.626 191.291
L434.7 193.818
L434.923 206.929
L435.072 196.086
L435.518 134.094
L435.816 223.496
L435.89 227.406
L436.039 210.58
L436.411 282.011
L436.486 269.288
L436.56 260.346
L436.634 273.263
L436.709 267.625
L436.932 230.236
L437.155 200.298
L437.453 248.79
L437.602 218.356
L437.676 240.064
L437.75 237.817
L437.899 185.2
L438.048 190.902
L438.271 178.028
L438.346 184.076
L438.494 206.303
L438.569 193.537
L438.643 196.302
L438.792 210.126
L438.866 208.938
L438.941 209.154
L439.015 208.722
L439.164 185.891
L439.238 190.427
L439.313 192.803
L439.536 235.074
L439.685 194.272
L440.28 242.396
L440.429 268.273
L440.652 231.64
L440.875 214.295
L440.95 215.807
L441.024 208.981
L441.098 218.593
L441.247 273.479
L441.322 270.26
L441.694 193.602
L441.768 194.185
L441.842 195.352
L442.066 174.875
L442.214 196.734
L442.438 248.099
L442.512 245.852
L442.661 254.233
L442.884 223.496
L443.33 132.258
L443.479 136.556
L444.446 289.117
L444.595 300.004
L444.818 262.722
L445.116 174.011
L445.19 166.624
L445.265 167.898
L445.339 171.224
L445.488 160.856
L445.562 165.025
L445.786 198.829
L445.86 196.54
L445.934 199.715
L446.083 229.415
L446.158 245.744
L446.232 244.578
L446.306 251.101
L446.455 274.429
L446.53 267.193
L446.604 271.427
L446.753 291.709
L446.827 287.648
L447.125 219.673
L447.348 133.64
L447.497 96.9204
L448.166 246.565
L448.241 236.37
L448.39 244.427
L448.538 212.567
L448.613 216.757
L448.836 251.296
L449.208 174.594
L449.431 231.272
L449.58 210.623
L449.654 215.764
L449.803 246.112
L449.878 240.798
L449.878 240.798" style="fill:none;stroke:#808080;stroke-linecap:square;"/>
   </g>
  </g>
 </g>
 <defs>
  <clipPath id="p7ff5b81e1d">
   <rect height="345.6" width="446.4" x="72.0" y="43.2"/>
  </clipPath>
 </defs>
</svg>
