<?xml version="1.0" encoding="utf-8" standalone="no"?>
<!DOCTYPE svg PUBLIC "-//W3C//DTD SVG 1.1//EN"
  "http://www.w3.org/Graphics/SVG/1.1/DTD/svg11.dtd">
<!-- Created with matplotlib (http://matplotlib.org/) -->
<svg height="432pt" version="1.1" viewBox="0 0 576 432" width="576pt" xmlns="http://www.w3.org/2000/svg" xmlns:xlink="http://www.w3.org/1999/xlink">
 <defs>
  <style type="text/css">
*{stroke-linecap:butt;stroke-linejoin:round;}
  </style>
 </defs>
 <g id="figure_1">
  <g id="patch_1">
   <path d="
M0 432
L576 432
L576 0
L0 0
z
" style="fill:#ffffff;"/>
  </g>
  <g id="axes_1">
   <g id="line2d_1">
    <path clip-path="url(#p7ff5b81e1d)" d="
M72 189.572
L72.2976 215.028
L72.372 217.481
L72.5208 207.01
L72.6696 214.494
L73.116 185.272
L73.3392 169.932
L73.488 167.695
L73.6368 159.949
L73.7112 160.502
L73.7856 161.973
L74.4552 235.956
L74.604 226.521
L74.7528 214.09
L75.1248 167.547
L75.2736 158.611
L75.6456 176.35
L75.9432 202.176
L76.0176 200.784
L76.1664 188.831
L76.464 154.977
L76.6128 148.821
L76.6872 151.753
L76.836 181.085
L77.208 254.48
L77.3568 260.83
L77.5056 240.745
L77.8776 146.619
L77.952 147.986
L78.324 209.938
L78.3984 212.559
L78.696 181.643
L78.7704 183.894
L78.9936 202.803
L79.2168 189.552
L79.6632 149.65
L79.8864 139.401
L80.0352 153.086
L80.3328 209.942
L80.7048 286.834
L80.8536 271.133
L81.0024 229.879
L81.3744 98.8715
L81.4488 94.1467
L81.5976 117.341
L82.3416 257.714
L82.4904 254.831
L82.6392 246.072
L83.0856 182.536
L83.3832 143.558
L83.532 135.949
L83.6808 141.38
L83.9784 157.806
L84.4248 192.43
L84.648 206.689
L85.1688 227.227
L85.392 217.481
L85.9128 180.818
L86.0616 179.382
L86.136 179.895
L86.2848 185.479
L86.7312 205.183
L86.88 207.025
L86.9544 207.089
L87.1032 204.087
L87.4008 187.093
L87.7728 165.829
L87.8472 164.18
L87.9216 164.639
L88.2192 172.331
L88.368 181.801
L88.5912 197.372
L88.74 199.535
L89.112 186.279
L89.1864 186.595
L89.7816 222.014
L90.0792 197.521
L90.3024 181.327
L90.5256 172.312
L90.6 171.003
L90.8232 184.58
L90.972 196.676
L91.2696 222.577
L91.4184 228.713
L91.5672 221.885
L91.716 205.277
L92.1624 142.19
L92.3112 133.604
L92.46 144.501
L92.7576 169.196
L93.2784 216.336
L93.576 236.845
L93.7248 247.845
L93.7992 246.635
L93.948 246.754
L94.0968 235.463
L94.32 209.212
L94.8408 119.208
L94.9896 125.976
L95.1384 139.978
L95.3616 161.287
L95.436 163.479
L96.0312 219.219
L96.4776 232.836
L96.552 236.751
L96.6264 235.808
L96.7008 232.871
L96.7752 233.478
L96.8496 232.89
L97.2216 208.205
L97.8912 125.073
L97.9656 121.819
L98.04 124.456
L99.6024 265.579
L99.8256 249.277
L100.644 125.058
L100.793 120.215
L101.09 132.987
L101.686 209.562
L101.983 274.16
L102.132 280.47
L102.355 270.25
L103.322 109.921
L103.471 150.198
L103.62 189.745
L103.769 177.974
L104.066 140.847
L104.141 139.573
L104.29 152.282
L104.81 255.196
L104.885 254.451
L105.034 239.822
L105.331 195.802
L105.406 196.637
L105.703 229.676
L105.778 228.348
L105.926 230.595
L106.001 229.429
L106.15 211.048
L106.298 168.071
L106.596 76.5606
L106.67 74.7783
L106.819 96.561
L107.489 267.282
L107.563 266.581
L108.01 214.504
L108.307 176.286
L108.382 174.987
L108.679 181.05
L108.754 180.354
L108.902 178.073
L109.126 180.512
L109.795 149.393
L109.87 148.223
L109.944 149.304
L110.018 148.505
L110.167 161.578
L110.762 299.803
L110.837 298.895
L111.134 241.234
L111.655 131.585
L111.804 123.039
L111.878 123.325
L112.027 132.711
L112.548 180.473
L113.069 199.658
L113.143 199.535
L113.218 198.33
L113.292 198.696
L113.515 202.892
L113.59 202.438
L113.664 202.784
L113.813 211.453
L114.036 229.824
L114.11 230.2
L114.259 224.161
L114.854 171.018
L115.003 166.782
L115.152 169.858
L115.375 181.317
L115.45 180.956
L115.747 174.316
L115.822 173.758
L115.896 174.721
L116.417 192.282
L116.938 228.175
L117.012 229.711
L117.235 215.605
L117.533 183.257
L118.054 137.075
L118.128 138.744
L118.5 175.032
L119.095 264.952
L119.17 267.45
L119.318 255.808
L119.542 215.635
L119.839 156.231
L120.211 134.305
L120.36 143.054
L121.178 215.921
L121.253 215.803
L121.327 215.018
L121.402 216.267
L121.476 215.605
L121.997 196.326
L122.443 172.968
L122.741 167.606
L122.815 168.9
L122.89 172.307
L122.964 171.902
L123.038 171.541
L123.187 180.418
L123.485 206.867
L123.782 237.941
L123.857 240.089
L124.08 219.427
L124.378 165.474
L124.526 145.212
L124.601 147.344
L125.345 241.397
L125.791 141.262
L125.94 145.044
L126.089 141.232
L126.238 148.796
L126.386 175.323
L126.833 294.921
L126.907 287.855
L127.354 156.478
L127.502 164.975
L127.577 162.887
L127.874 141.795
L128.023 181.238
L128.246 243.16
L128.321 248.082
L128.47 227.864
L128.544 216.02
L128.618 216.687
L128.693 217.876
L128.916 147.72
L128.99 155.106
L129.139 194.326
L129.288 168.406
L129.66 101.444
L129.734 96.8325
L129.809 97.0794
L129.958 125.749
L130.181 203.657
L130.478 313.909
L130.553 318.574
L130.627 315.4
L130.776 290.65
L131.297 190.14
L131.818 157.189
L131.966 154.824
L132.041 155.209
L132.264 147.028
L132.338 148.376
L132.562 171.951
L132.859 201.441
L133.008 205.543
L133.231 183.731
L133.306 183.785
L133.454 194.613
L133.678 213.729
L133.752 217.59
L133.826 216.593
L133.975 197.269
L134.198 162.195
L134.273 164.333
L134.645 261.738
L134.719 261.254
L134.942 224.379
L135.463 118.773
L135.686 88.1283
L135.761 90.3056
L135.91 114.972
L136.505 265.145
L136.654 271.997
L136.802 257.675
L137.323 208.906
L137.398 204.566
L137.77 141.691
L137.844 144.293
L138.067 155.471
L138.439 169.384
L138.811 199.594
L138.886 201.1
L138.96 200.685
L139.332 187.123
L139.481 195.348
L139.853 249.627
L139.927 249.395
L140.076 234.421
L140.671 145.024
L141.118 116.843
L141.192 117.83
L141.341 137.485
L141.564 196.355
L141.936 281.368
L142.085 291.993
L142.382 268.151
L142.606 235.176
L143.275 101.552
L143.35 99.1184
L143.424 101.701
L143.87 154.019
L144.614 256.929
L144.689 258.514
L144.838 253.419
L145.135 230.155
L146.028 122.046
L146.102 124.772
L146.549 186.674
L146.995 242.305
L147.07 242.375
L147.218 232.747
L147.814 169.191
L148.037 202.522
L148.186 216.405
L148.26 215.265
L148.483 187.419
L148.781 150.633
L148.855 147.917
L148.93 148.213
L149.45 178.779
L149.897 223.613
L149.971 223.367
L150.046 221.105
L150.418 195.062
L150.641 200.295
L150.864 206.847
L151.087 222.127
L151.236 213.705
L151.831 146.051
L152.203 157.742
L152.352 168.564
L152.724 201.144
L152.798 203.49
L152.947 218.454
L153.245 252.427
L153.319 255.483
L153.468 250.047
L154.361 126.455
L154.435 127.29
L154.882 174.237
L155.254 214.509
L155.477 224.542
L155.551 225.327
L155.7 219.486
L155.923 209.375
L155.998 209.414
L156.146 212.525
L156.221 210.436
L156.742 173.852
L156.89 176.38
L157.188 188.412
L157.262 188.18
L157.486 194.079
L157.634 183.203
L158.006 163.291
L158.304 172.85
L158.378 175.091
L158.453 173.98
L158.527 169.734
L158.602 171.843
L159.122 235.621
L159.346 256.919
L159.42 258.736
L159.718 247.544
L160.462 119.568
L160.536 119.785
L160.685 128.035
L162.024 258.035
L162.098 258.425
L162.322 248.729
L162.47 228.694
L162.991 130.489
L163.289 137.682
L163.661 173.728
L164.107 234.495
L164.256 236.697
L164.405 225.425
L165 161.499
L165.446 188.505
L165.67 201.342
L165.744 202.522
L165.893 199.041
L166.042 202.068
L166.116 200.587
L166.19 203.119
L166.265 203.06
L166.414 198.799
L166.711 175.743
L166.934 173.975
L167.009 170.208
L167.083 170.929
L167.232 188.407
L167.306 188.081
L167.381 188.234
L167.753 206.951
L167.827 207.207
L168.125 215.038
L168.199 218.034
L168.274 216.859
L168.571 191.902
L168.794 177.713
L169.092 159.658
L169.166 158.023
L169.538 171.27
L170.059 223.001
L170.357 231.305
L170.431 229.943
L170.729 203.396
L171.101 150.741
L171.324 129.21
L171.547 147.127
L171.919 198.325
L172.142 216.168
L172.366 222.532
L172.44 224.003
L172.738 236.889
L172.812 236.233
L173.11 211.359
L173.333 172.608
L173.556 147.414
L173.779 141.538
L173.854 142.328
L174.746 237.808
L174.821 236.154
L175.044 217.072
L175.342 186.723
L175.49 174.543
L175.714 153.141
L175.788 152.78
L175.937 161.978
L176.234 206.166
L176.309 206.304
L176.383 207.469
L176.458 206.21
L176.606 199.525
L176.83 203.702
L177.202 218.232
L177.276 219.002
L177.425 199.189
L177.797 127.023
L177.871 122.486
L177.946 123.695
L178.243 174.558
L178.541 230.649
L178.764 245.929
L178.838 242.483
L179.285 201.831
L179.359 202.152
L179.434 201.011
L179.657 184.901
L179.806 178.513
L179.88 178.162
L180.029 176.222
L180.326 181.959
L180.401 181.751
L180.55 185.622
L180.624 184.521
L180.773 176.133
L180.847 176.444
L180.996 182.462
L181.442 214.687
L181.517 212.436
L181.666 186.219
L181.889 153.911
L182.038 146.505
L182.112 148.194
L182.633 235.769
L182.707 234.678
L183.228 202.24
L183.377 198.365
L184.121 149.013
L184.195 145.809
L184.27 147.853
L184.493 187.088
L184.939 252.975
L185.014 256.174
L185.088 254.683
L185.758 168.544
L185.832 170.524
L185.906 168.999
L186.204 129.087
L186.427 111.037
L186.576 136.646
L187.171 265.727
L187.246 265.954
L187.394 260.672
L187.915 191.112
L188.213 140.852
L188.362 132.785
L188.436 134.345
L188.659 150.667
L189.031 201.13
L189.403 242.305
L189.478 243.762
L189.552 242.784
L189.701 222.211
L190.147 155.096
L190.222 152.346
L190.296 155.412
L190.445 170.89
L190.594 165.533
L191.412 226.462
L191.486 225.223
L191.784 210.584
L192.602 140.092
L192.677 141.711
L192.826 158.497
L193.198 230.693
L193.272 229.755
L193.346 229.336
L193.495 232.436
L193.644 217.738
L193.718 218.834
L193.793 222.359
L193.867 221.984
L194.165 204.754
L194.537 152.237
L194.76 127.872
L194.834 125.976
L194.909 126.603
L195.132 154.76
L196.025 258.86
L196.099 256.386
L196.843 162.724
L196.992 155.51
L197.513 177.352
L197.587 176.345
L197.662 177.239
L197.885 187.108
L197.959 188.821
L198.331 217.679
L198.406 221.53
L198.554 239.832
L198.629 239.481
L198.778 224.621
L199.224 123.547
L199.298 119.301
L199.447 132.735
L199.745 190.431
L200.191 264.374
L200.266 264.572
L200.34 259.595
L201.084 145.291
L201.233 153.975
L201.307 153.402
L201.382 151.684
L202.2 241.209
L202.646 191.324
L202.795 189.424
L202.87 186.155
L203.093 163.78
L203.39 153.555
L203.465 152.795
L203.539 153.116
L203.688 170.337
L204.209 227.608
L204.506 245.292
L204.581 242.217
L205.027 176.854
L205.25 152.277
L205.474 166.989
L205.548 166.377
L205.771 156.705
L205.846 157.312
L205.92 156.829
L206.069 159.697
L206.218 178.804
L206.664 257.388
L206.738 256.786
L207.036 220.459
L207.631 126.115
L207.706 125.374
L207.854 135.401
L208.003 154.113
L208.524 274.935
L208.598 275.049
L208.822 258.805
L209.491 112.789
L209.566 114.74
L210.161 147.399
L210.31 185.81
L210.607 277.379
L210.905 247.099
L211.426 196.242
L211.946 151.689
L212.17 135.806
L212.393 156.212
L212.914 204.487
L212.988 204.857
L213.062 204.768
L213.137 203.993
L213.434 227.134
L213.509 225.183
L213.658 208.219
L213.955 154.548
L214.104 151.437
L214.178 152.059
L214.476 172.272
L215.146 252.125
L215.22 249.662
L215.369 239.343
L215.964 164.422
L216.41 141.973
L216.485 143.582
L216.708 165.523
L217.154 214.929
L217.229 216.005
L217.378 207.731
L217.898 175.802
L218.122 141.464
L218.27 188.649
L218.494 250.694
L218.568 259.541
L218.642 258.662
L219.014 191.818
L219.163 191.152
L219.238 191.448
L219.312 186.58
L219.386 186.906
L219.684 211.038
L219.758 208.397
L220.205 153.121
L220.279 154.044
L220.949 194.484
L221.098 207.291
L221.172 206.847
L221.693 181.529
L221.767 179.915
L221.842 180.196
L222.065 191.196
L222.139 190.786
L222.214 190.855
L222.362 177.13
L222.586 157.001
L222.66 159.623
L223.106 259.852
L223.181 258.845
L223.478 200.043
L223.702 219.022
L223.776 214.485
L223.925 200.517
L224.148 169.181
L224.222 168.041
L224.371 161.687
L225.264 185.938
L225.487 210.071
L225.785 187.661
L225.859 185.059
L225.934 176.256
L226.008 177.051
L226.082 181.327
L226.231 174.321
L226.38 182.526
L226.454 179.87
L226.752 156.518
L226.901 175.847
L227.198 213.685
L227.942 264.997
L228.24 206.319
L228.612 133.565
L228.686 132.869
L228.761 134.098
L228.835 132.795
L228.91 133.175
L229.802 187.434
L229.951 198.044
L230.398 251.182
L230.546 258.652
L230.844 231.972
L231.067 173.447
L231.29 129.818
L231.439 124.466
L231.96 149.951
L232.258 207.666
L232.63 282.573
L232.704 278.618
L232.853 262.864
L233.522 137.199
L233.597 135.782
L233.746 138.166
L233.894 148.594
L234.564 253.305
L234.638 252.283
L234.862 225.667
L235.606 122.121
L235.68 120.284
L235.754 123.251
L236.126 171.141
L236.498 256.139
L236.647 263.871
L236.722 261.866
L237.168 212.707
L237.54 160.778
L237.763 155.747
L237.838 156.073
L238.135 144.822
L238.21 146.851
L238.507 180.27
L239.028 264.839
L239.102 265.574
L239.251 252.086
L239.921 130.129
L240.07 123.587
L240.293 139.741
L240.516 164.955
L240.888 224.872
L241.186 258.865
L241.26 260.119
L241.558 217.536
L242.004 133.501
L242.078 132.869
L242.227 150.252
L242.525 204.63
L242.599 203.885
L242.971 237.334
L243.12 216.869
L243.418 177.846
L243.566 167.108
L243.641 167.231
L243.864 180.379
L243.938 183.203
L244.162 209.029
L244.385 207.627
L244.459 207.257
L244.608 187.972
L244.831 151.447
L244.906 152.736
L245.054 175.644
L245.278 217.491
L245.426 223.406
L245.501 220.942
L245.798 178.858
L246.022 158.917
L246.096 155.096
L246.17 155.199
L246.542 179.979
L246.617 178.755
L246.84 159.312
L247.138 208.284
L247.435 261.338
L247.51 263.382
L247.658 256.934
L247.882 237.966
L248.551 135.683
L248.7 139.331
L248.774 139.494
L248.923 142.743
L248.998 141.494
L249.146 150.746
L249.37 188.362
L249.742 238.326
L249.89 242.478
L249.965 241.822
L250.114 230.061
L250.709 166.821
L250.783 165.177
L251.006 154.696
L251.081 154.074
L251.23 163.128
L252.048 243.337
L252.122 243.515
L252.197 237.704
L252.271 238.968
L252.346 236.287
L252.718 170.949
L253.09 112.755
L253.164 113.036
L253.238 116.719
L253.462 171.862
L253.834 251.429
L253.982 256.357
L254.057 256.07
L254.131 254.214
L254.28 232.964
L255.024 132.01
L255.098 132.819
L255.247 141.025
L255.917 205.8
L256.512 231.034
L256.661 221.214
L256.735 224.013
L256.81 224.591
L256.958 204.966
L257.479 117.411
L257.702 135.836
L257.926 183.455
L258.298 271.316
L258.446 279.912
L258.521 278.036
L258.67 251.41
L259.116 134.809
L259.19 134.71
L259.265 133.743
L259.414 130.055
L259.562 135.342
L260.604 243.263
L260.678 241.249
L260.827 237.23
L260.902 238.134
L260.976 236.796
L261.274 192.815
L261.794 142.012
L261.869 144.377
L262.092 164.392
L262.166 167.132
L262.836 240.795
L262.91 244.947
L262.985 241.032
L263.58 139.341
L263.729 146.708
L264.547 227.859
L264.622 227.173
L265.068 198.962
L265.142 200.285
L265.366 217.116
L265.738 182.151
L266.035 146.1
L266.184 130.874
L266.258 131.304
L266.407 138.29
L266.63 171.107
L267.3 247.015
L267.449 238.919
L267.672 222.522
L267.746 220.192
L268.118 176.75
L268.342 167.685
L268.565 163.114
L268.639 160.477
L268.714 161.514
L268.862 172.252
L269.16 204.428
L269.383 217.516
L269.532 212.51
L269.606 214.983
L269.681 212.821
L269.904 178.369
L269.978 180.117
L270.053 180.216
L270.202 176.572
L270.276 177.55
L270.35 177.273
L270.574 149.951
L270.648 152.795
L270.722 158.7
L271.243 243.53
L271.541 210.471
L271.987 157.984
L272.136 149.324
L272.21 150.598
L272.88 199.94
L273.029 205.469
L273.103 204.734
L273.178 200.364
L273.326 209.631
L273.698 236.173
L273.773 237.783
L273.922 232.974
L274.145 197.017
L274.517 129.112
L274.666 114.187
L274.814 128.564
L275.112 177.535
L275.782 265.135
L275.856 266.176
L276.005 249.054
L276.6 154.908
L276.749 147.093
L276.898 151.857
L276.972 155.012
L277.046 154.75
L277.121 155.846
L277.642 190.307
L277.865 214.07
L278.237 235.033
L278.311 234.233
L278.683 208.126
L279.278 152.291
L279.427 143.997
L279.725 153.753
L280.246 224.102
L280.32 224.018
L280.469 215.072
L280.543 215.734
L280.618 214.934
L280.766 206.432
L280.841 207.869
L281.064 204.354
L281.138 205.998
L281.213 205.232
L281.287 205.173
L281.436 201.51
L281.957 163.968
L282.031 164.807
L282.626 210.55
L283.37 166.728
L283.668 147.532
L283.742 147.838
L283.966 169.463
L284.561 270.403
L284.635 269.79
L284.858 240.089
L285.379 147.522
L285.602 134.681
L285.677 133.111
L285.751 135.387
L286.867 223.683
L287.016 219.935
L287.239 226.136
L287.314 225.904
L287.611 204.201
L287.76 188.189
L287.909 193.462
L287.983 193.077
L288.058 189.685
L288.355 162.052
L288.43 158.527
L288.504 159.273
L288.95 190.791
L289.025 189.414
L289.099 189.671
L289.322 200.024
L289.397 198.696
L289.843 171.976
L290.066 181.139
L290.215 180.107
L290.29 180.492
L290.513 195.259
L291.034 256.184
L291.257 231.064
L292.075 112.32
L292.15 113.999
L292.298 124.466
L292.596 184.496
L292.968 246.428
L293.117 251.044
L293.266 243.974
L294.01 168.604
L294.158 172.015
L294.307 178.458
L294.382 178.118
L294.456 176.854
L294.679 166.357
L294.977 171.334
L295.2 185.992
L295.572 216.978
L295.646 215.971
L296.018 190.1
L296.167 210.851
L296.316 220.888
L296.539 188.629
L296.762 137.44
L297.581 213.408
L297.655 212.041
L297.804 201.243
L298.176 164.985
L298.25 159.04
L298.325 160.295
L298.474 193.936
L298.697 255.246
L298.771 258.05
L298.92 239.294
L299.218 188.935
L299.366 175.61
L299.515 172.41
L299.813 157.47
L300.036 199.377
L300.334 257.823
L300.482 220.454
L300.854 117.336
L301.003 106.929
L301.078 107.64
L301.152 111.95
L301.45 190.811
L301.747 279.823
L301.822 280.598
L302.119 235.295
L302.417 181.218
L302.714 167.424
L302.789 167.804
L303.012 174.879
L303.161 172.81
L303.384 178.044
L303.458 177.999
L303.83 187.552
L304.128 216.543
L304.202 215.112
L304.426 206.008
L304.5 207.054
L304.574 205.889
L304.798 191.912
L305.17 162.575
L305.244 163.38
L305.69 194.119
L305.839 197.851
L306.062 178.058
L306.658 225.223
L306.732 223.179
L307.253 148.055
L307.402 153.136
L307.55 167.676
L307.922 217.057
L307.997 217.249
L308.071 214.327
L308.146 215.847
L308.294 230.881
L308.443 247.692
L308.518 246.927
L308.741 213.25
L309.113 141.351
L309.187 139.346
L309.262 139.672
L309.336 140.669
L309.708 120.555
L309.857 139.188
L310.006 161.228
L310.675 305.402
L310.75 306.775
L310.898 281.136
L311.047 225.411
L311.27 127.586
L311.345 124.456
L311.642 188.486
L311.791 207.242
L312.238 153.866
L312.535 110.089
L312.684 139.544
L313.13 256.811
L313.354 276.5
L313.428 271.844
L314.098 181.327
L314.246 168.742
L314.618 80.2141
L314.693 82.3667
L314.842 113.811
L315.362 246.971
L315.586 258.583
L315.66 258.874
L315.809 252.545
L316.032 234.09
L316.627 169.162
L316.925 158.537
L316.999 159.49
L317.222 172.099
L317.52 198.538
L317.669 184.783
L317.966 148.672
L318.115 164.353
L318.338 185.583
L318.487 190.826
L318.934 259.309
L319.008 258.317
L319.306 223.569
L319.603 181.574
L319.901 115.436
L319.975 116.181
L320.124 145.379
L320.422 210.9
L320.57 214.746
L320.719 204.591
L321.091 164.842
L321.166 166.644
L321.24 166.412
L321.314 170.218
L321.612 197.985
L321.761 212.218
L321.984 237.186
L322.058 237.98
L322.207 217.086
L322.505 178.399
L322.579 178.429
L322.728 186.743
L322.951 175.545
L323.1 168.994
L323.174 169.389
L323.323 174.637
L323.546 191.942
L323.621 191.581
L323.77 199.624
L323.918 205.02
L324.29 192.416
L324.365 192.672
L324.662 205.44
L324.737 204.359
L324.886 191.408
L325.258 154.834
L325.406 148.268
L325.555 165.874
L326.002 249.262
L326.15 236.435
L326.746 150.623
L326.82 153.289
L327.118 177.93
L327.192 177.017
L327.341 168.722
L327.415 170.588
L327.936 217.165
L328.085 220.483
L328.234 215.739
L328.382 212.105
L328.531 214.909
L328.606 214.332
L328.68 211.838
L328.829 190.357
L329.126 148.529
L329.498 125.986
L329.647 146.002
L329.945 177.787
L330.168 208.955
L330.689 315.928
L330.763 312.082
L330.912 272.871
L331.358 149.852
L331.73 83.0036
L331.805 80.456
L331.879 83.0529
L332.326 160.64
L332.4 163.099
L332.772 204.803
L333.293 273.409
L333.367 272.901
L333.516 258.815
L334.186 161.726
L334.26 158.991
L334.334 159.273
L334.558 173.131
L335.227 240.819
L335.302 237.121
L335.822 138.606
L335.897 142.081
L335.971 139.159
L336.269 90.8437
L336.343 96.951
L336.566 178.197
L337.013 351.732
L337.162 312.057
L337.608 137.989
L337.682 137.954
L337.906 142.62
L338.278 172.983
L338.575 191.976
L338.65 189.192
L338.947 165.587
L339.022 165.222
L339.096 165.646
L339.245 173.837
L339.84 229.41
L339.914 230.15
L340.212 240.958
L340.286 240.963
L340.361 238.756
L340.658 187.612
L340.956 155.214
L341.03 155.185
L341.179 158.028
L341.328 166.915
L341.551 181.351
L341.7 171.265
L341.923 146.392
L341.998 147.004
L342.295 168.964
L343.262 258.721
L343.337 258.475
L343.709 247.667
L343.932 211.972
L344.676 54.4669
L344.75 54.615
L344.899 83.7935
L345.569 270.102
L345.792 278.623
L345.866 279.354
L346.015 271.593
L346.238 246.625
L346.536 182.299
L346.908 111.466
L346.982 109.763
L347.131 115.865
L347.354 147.414
L347.801 235.625
L348.098 288.502
L348.247 275.685
L348.47 234.07
L348.917 140.126
L349.14 129.645
L349.438 101.784
L349.512 105.394
L349.735 155.905
L350.107 240.637
L350.182 240.78
L350.256 238.514
L350.33 239.462
L350.405 240.898
L350.554 246.492
L350.628 246.295
L350.702 246.448
L350.777 247.114
L350.926 239.012
L351.074 222.947
L351.595 135.446
L351.67 133.155
L351.744 134.468
L352.637 213.665
L352.711 213.226
L352.786 210.88
L352.86 213.152
L352.934 213.078
L353.455 171.699
L353.53 172.193
L353.976 195.146
L354.05 195.822
L354.497 209.32
L354.72 222.873
L354.869 224.813
L355.092 213.966
L355.538 165.637
L356.059 131.16
L356.357 160.843
L356.729 213.216
L357.026 232.54
L357.101 231.839
L357.175 232.016
L357.324 218.691
L357.473 221.135
L357.696 213.571
L357.77 214.692
L357.845 211.828
L358.068 194.622
L358.142 194.978
L358.217 194.642
L358.366 189.927
L358.514 196.222
L358.738 185.227
L358.812 186.649
L358.886 190.51
L358.961 188.811
L359.184 164.101
L359.482 126.026
L359.556 123.35
L359.705 135.485
L360.374 224.087
L360.523 232.495
L360.746 222.004
L360.821 223.564
L360.97 220.325
L361.118 228.264
L361.267 235.591
L361.342 234.07
L361.49 235.867
L361.788 208.224
L362.309 132.967
L362.606 87.8815
L362.681 88.4591
L362.83 116.754
L363.425 277.384
L363.499 283.526
L363.574 281.965
L363.797 248.102
L364.392 131.565
L364.541 126.362
L364.764 164.363
L365.21 218.089
L365.285 218.612
L365.508 225.756
L365.582 223.994
L365.954 197.575
L366.029 197.451
L366.178 200.132
L366.252 198.863
L366.326 199.357
L366.401 198.962
L366.624 186.373
L366.996 152.4
L367.07 152.331
L367.145 152.973
L367.294 149.833
L368.112 216.548
L368.186 213.359
L368.261 209.789
L368.335 211.73
L368.558 229.963
L368.633 229.568
L368.782 220.631
L369.302 158.088
L369.674 180.833
L369.898 164.165
L370.046 183.203
L370.418 255.226
L370.493 250.644
L371.014 131.072
L371.088 129.082
L371.162 131.422
L371.46 173.284
L371.534 169.942
L371.609 166.11
L371.683 169.601
L372.13 239.689
L372.353 247.741
L372.427 247.346
L372.725 234.549
L373.543 124.016
L373.766 149.823
L374.213 208.891
L374.287 206.378
L374.436 196.039
L374.734 239.906
L374.808 234.006
L375.254 162.324
L375.329 167.458
L375.403 170.707
L375.552 165.39
L376.445 212.416
L376.519 211.567
L376.891 190.347
L377.114 206.482
L377.263 215.047
L377.338 214.643
L377.486 201.11
L377.784 155.007
L377.858 157.569
L378.082 163.385
L378.602 234.603
L378.677 232.569
L379.049 201.342
L379.272 191.399
L379.57 155.18
L379.867 114.221
L380.09 126.199
L380.239 160.541
L380.686 286.582
L380.834 291.134
L380.983 278.026
L381.355 192.48
L381.802 107.526
L381.95 94.5762
L382.025 94.5269
L382.174 115.12
L382.992 272.758
L383.141 276.362
L383.29 261.723
L384.108 127.226
L384.257 123.942
L384.406 135.125
L384.778 176.133
L384.852 175.945
L384.926 174.657
L385.001 174.943
L385.15 190.11
L385.67 264.913
L385.745 266.409
L385.819 265.155
L386.117 234.727
L386.34 170.969
L386.563 107.793
L386.638 106.267
L386.861 141.494
L387.382 222.335
L387.605 228.551
L387.754 216.41
L388.423 133.515
L388.572 142.333
L389.316 257.828
L389.465 237.684
L389.837 180.058
L389.986 162.526
L390.358 209.167
L390.506 197.925
L390.581 200.828
L390.73 212.164
L390.878 186.264
L391.102 142.565
L391.176 142.373
L391.399 173.496
L391.622 198.607
L391.771 183.07
L391.994 160.996
L392.143 179.48
L392.515 244.572
L392.738 202.097
L392.887 188.757
L393.11 222.749
L393.482 126.771
L393.631 158.616
L393.929 222.433
L394.152 230.086
L394.375 215.566
L395.045 162.916
L395.119 164.565
L395.194 169.176
L395.268 168.796
L395.491 108.222
L395.64 163.212
L395.789 231.261
L395.938 218.484
L396.161 279.482
L396.384 259.032
L396.533 212.752
L396.756 127.922
L396.83 135.643
L397.054 174.247
L397.277 95.4896
L397.351 110.499
L397.723 259.422
L397.872 272.842
L398.17 205.173
L398.393 132.676
L398.467 132.242
L398.616 143.444
L399.137 222.779
L399.211 228.575
L399.286 227.168
L399.732 181.11
L399.806 182.314
L400.03 226.571
L400.104 224.428
L400.253 197.925
L400.625 105.25
L400.699 110.42
L401.369 245.026
L401.443 241.16
L401.592 228.664
L401.666 229
L401.89 212.86
L402.113 260.109
L402.187 253.172
L402.634 108.889
L402.708 113.93
L403.08 198.054
L403.154 191.216
L403.378 165.745
L403.526 157.11
L403.601 158.354
L404.047 246.907
L404.196 212.771
L404.494 131.476
L404.568 129.615
L404.642 134.157
L405.386 307.653
L405.461 304.612
L405.61 267.875
L406.056 118.166
L406.13 120.269
L406.428 140.763
L406.577 138.433
L406.8 129.966
L406.949 156.621
L407.395 275.108
L407.544 263.298
L407.693 228.871
L407.99 135.466
L408.139 144.94
L408.586 195.59
L408.809 216.232
L408.958 250.072
L409.255 179.391
L409.33 183.144
L409.404 183.277
L409.776 161.919
L409.85 163.291
L410.148 197.145
L410.446 219.076
L410.743 210.056
L411.041 188.451
L411.264 201.302
L411.338 199.145
L411.413 201.204
L411.487 193.763
L411.71 127.783
L411.785 129.679
L412.082 183.168
L412.306 164.832
L412.38 167.261
L412.529 188.53
L412.752 213.64
L413.05 231.286
L413.198 226.141
L413.347 229.652
L413.422 228.916
L413.496 226.976
L413.645 206.057
L413.794 171.013
L414.017 115.446
L414.091 122.007
L414.538 222.665
L414.612 221.619
L414.686 219.205
L414.91 180.275
L415.058 182.665
L415.207 198.76
L415.505 244.349
L415.877 164.264
L415.951 165.523
L416.174 198.839
L416.323 189.527
L416.398 191.226
L416.546 194.79
L416.695 173.176
L416.77 159.248
L416.844 160.675
L417.142 184.807
L417.365 203.677
L417.514 214.188
L417.588 212.683
L417.886 145.503
L417.96 146.174
L418.555 225.253
L418.63 224.428
L418.778 212.381
L419.002 190.327
L419.076 190.223
L419.299 172.879
L419.374 174.444
L419.522 186.175
L420.043 230.674
L420.118 230.777
L420.266 195.358
L420.341 177.199
L420.415 177.308
L420.638 201.189
L420.713 200.621
L421.308 142.027
L421.457 170.584
L421.68 202.379
L421.903 228.397
L421.978 224.137
L422.35 156.088
L422.498 197.58
L422.722 240.874
L423.242 165.809
L423.317 167.098
L423.466 175.052
L423.54 175.481
L423.614 176.962
L423.689 174.805
L423.763 174.884
L423.912 176.444
L424.061 192.376
L424.21 211.424
L424.284 212.164
L424.433 206.639
L424.73 179.688
L424.879 192.569
L425.177 169.191
L425.251 170.06
L425.4 183.228
L425.772 244.932
L425.846 245.1
L425.921 245.712
L425.995 236.139
L426.293 168.91
L426.367 170.356
L426.442 169.724
L426.59 163.38
L426.665 164.708
L427.037 190.144
L427.409 181.732
L427.483 180.606
L427.558 181.228
L427.632 183.307
L427.706 189.379
L427.781 189.157
L427.93 180.27
L428.004 183.469
L428.153 197.412
L428.302 171.936
L428.45 151.097
L428.599 188.728
L428.822 249.054
L429.046 263.081
L429.194 259.24
L429.343 221.13
L429.715 121.36
L429.79 112.281
L429.864 112.306
L430.013 131.496
L430.385 206.279
L430.534 193.245
L430.608 194.272
L431.129 257.778
L431.203 254.762
L431.352 215.526
L431.798 89.8958
L431.873 84.1589
L431.947 90.6858
L432.17 159.445
L432.468 251.207
L432.617 257.754
L432.691 257.704
L432.766 258.065
L432.989 237.511
L433.212 201.959
L433.51 156.345
L433.584 156.621
L433.658 154.582
L433.807 141.43
L433.882 144.52
L434.402 239.812
L434.477 239.699
L434.774 198.696
L434.998 172.805
L435.072 170.006
L435.37 116.818
L435.593 188.036
L435.89 267.031
L436.039 229.79
L436.262 175.817
L436.411 165.952
L436.56 171.285
L436.709 171.625
L436.858 182.763
L436.932 178.982
L437.006 177.184
L437.081 187.567
L437.304 249.291
L437.527 199.12
L437.825 132.958
L437.899 133.511
L437.974 131.896
L438.122 159.45
L438.42 250.086
L438.569 254.915
L438.792 234.722
L439.685 125.315
L440.057 152.148
L440.429 241.97
L440.578 249.277
L440.652 248.892
L440.801 239.911
L441.396 179.643
L441.47 178.611
L441.619 181.421
L441.842 161.114
L442.066 145.725
L442.14 149.067
L442.735 235.127
L443.107 214.835
L443.256 195.447
L443.405 174.227
L443.479 178.424
L443.702 206.881
L443.851 203.406
L444 214.228
L444.074 213.754
L444.223 190.056
L444.446 119.761
L444.521 122.362
L445.042 248.334
L445.116 247.445
L445.265 216.064
L445.488 146.406
L445.562 146.688
L446.083 227.914
L446.306 187.641
L446.53 165
L446.753 151.837
L446.827 153.886
L447.274 211.947
L447.348 210.342
L447.422 210.402
L447.794 224.181
L447.869 224.828
L447.943 221.51
L448.613 146.411
L448.687 148.677
L448.762 154.484
L448.836 153.97
L448.91 152.212
L449.059 169.453
L449.282 191.389
L449.431 169.275
L449.506 170.08
L449.654 183.568
L449.803 221.91
L449.878 245.406
L449.878 245.406" style="fill:none;stroke:#808080;stroke-linecap:square;"/>
   </g>
  </g>
 </g>
 <defs>
  <clipPath id="p7ff5b81e1d">
   <rect height="345.6" width="446.4" x="72.0" y="43.2"/>
  </clipPath>
 </defs>
</svg>
