<?xml version="1.0" encoding="utf-8" standalone="no"?>
<!DOCTYPE svg PUBLIC "-//W3C//DTD SVG 1.1//EN"
  "http://www.w3.org/Graphics/SVG/1.1/DTD/svg11.dtd">
<!-- Created with matplotlib (http://matplotlib.org/) -->
<svg height="432pt" version="1.1" viewBox="0 0 576 432" width="576pt" xmlns="http://www.w3.org/2000/svg" xmlns:xlink="http://www.w3.org/1999/xlink">
 <defs>
  <style type="text/css">
*{stroke-linecap:butt;stroke-linejoin:round;}
  </style>
 </defs>
 <g id="figure_1">
  <g id="patch_1">
   <path d="
M0 432
L576 432
L576 0
L0 0
z
" style="fill:#ffffff;"/>
  </g>
  <g id="axes_1">
   <g id="line2d_1">
    <path clip-path="url(#p7ff5b81e1d)" d="
M72 175.383
L72.2232 193.626
L72.2976 194.021
L72.372 193.216
L72.5952 184.127
L72.6696 186.344
L72.9672 197.729
L73.0416 197.023
L73.116 194.727
L73.4136 168.758
L73.488 168.98
L73.5624 169.306
L73.6368 168.931
L73.7856 163.845
L73.86 164.354
L74.0088 171.686
L74.6784 231.385
L75.0504 222.02
L75.5712 153.788
L75.6456 158.775
L76.0176 204.34
L76.2408 193.251
L76.3152 194.92
L76.464 199.886
L76.5384 199.097
L76.9104 160.858
L76.9848 161.747
L78.0264 205.382
L78.1752 209.81
L78.4728 224.933
L78.5472 222.711
L78.8448 192.041
L79.1424 166.516
L79.2168 164.813
L79.2912 165.593
L79.44 163.969
L79.7376 185.49
L80.1096 210.699
L80.2584 212.121
L80.3328 211.548
L80.4816 204.977
L80.8536 183.13
L80.928 183.071
L81.0024 183.594
L81.1512 177.042
L81.5232 150.411
L81.5976 153.897
L82.416 244.933
L82.5648 231.859
L83.0856 163.964
L83.3088 147.622
L83.3832 146.476
L83.532 155.309
L83.904 188.408
L84.0528 193.147
L84.1272 192.362
L84.276 197.685
L84.7224 223.303
L84.8712 222.025
L85.0944 214.515
L85.3176 205.312
L85.4664 201.165
L85.6152 184.744
L85.9128 139.387
L85.9872 136.266
L86.0616 136.499
L86.4336 155.166
L86.7312 189.049
L87.1776 278.352
L87.252 277.721
L87.4008 258.564
L87.996 151.142
L88.0704 149.997
L88.2192 155.911
L88.2936 154.899
L88.5912 138.508
L88.6656 137.723
L88.74 138.449
L88.8144 140.902
L88.9632 159.367
L89.484 284.909
L89.5584 279.32
L89.856 222.158
L90.1536 179.328
L90.3024 174.86
L90.5256 186.206
L90.6 186.048
L90.7488 173.083
L91.0464 147.187
L91.4928 132.346
L91.6416 140.399
L91.9392 190.891
L92.46 280.787
L92.5344 280.806
L92.6832 266.74
L93.7248 133.279
L93.7992 133.299
L94.3944 164.512
L95.2128 246.459
L95.5104 250.324
L95.5848 247.239
L95.8824 205.693
L96.3288 136.74
L96.4776 125.661
L96.552 126.195
L96.7752 147.829
L97.5192 229.386
L97.5936 227.075
L97.7424 197.714
L97.9656 140.705
L98.04 146.037
L98.5608 255.943
L98.784 268.375
L98.9328 252.941
L99.6024 137.032
L99.8256 128.54
L99.9 130.539
L100.198 160.834
L100.644 205.372
L101.09 212.787
L101.314 220.716
L101.388 221.333
L101.537 218.139
L101.686 204.69
L102.132 151.512
L102.206 148.713
L102.281 149.997
L102.355 153.137
L102.653 192.14
L102.95 231.366
L103.025 235.123
L103.099 234.97
L103.248 224.76
L103.62 196.06
L103.694 195.927
L103.918 198.218
L103.992 197.502
L104.141 185.055
L104.513 149.261
L104.662 145.267
L104.885 155.294
L105.778 234.496
L105.852 233.8
L106.075 225.609
L106.298 205.061
L106.819 149.686
L106.894 152.989
L107.191 198.746
L107.414 217.482
L107.489 215.463
L107.638 203.017
L108.158 115.486
L108.233 116.612
L108.382 135.95
L108.977 267.55
L109.126 281.127
L109.274 303.32
L109.349 302.317
L109.572 220.998
L109.944 99.2626
L110.093 78.8574
L110.242 107.162
L110.688 229.746
L110.762 234.382
L110.837 233.237
L111.06 213.878
L111.506 159.846
L111.581 162.675
L111.804 181.298
L112.027 176.08
L112.176 184.206
L112.474 205.949
L112.771 211.992
L112.846 212.14
L112.994 214.431
L113.069 212.274
L113.366 186.902
L113.59 198.04
L113.664 194.826
L113.962 166.64
L114.036 167.627
L114.259 192.397
L114.482 205.47
L114.557 207.001
L114.706 214.13
L114.78 211.36
L114.929 182.231
L115.152 117.367
L115.226 119.87
L115.598 213.34
L116.119 286.282
L116.342 231.933
L116.714 106.846
L117.235 179.842
L117.384 173.502
L117.607 100.344
L117.682 107.399
L117.905 191.167
L118.128 251.959
L118.277 304.554
L118.351 303.67
L118.426 310.009
L118.5 328.237
L118.649 201.017
L118.798 124.936
L118.946 142.981
L119.095 116.39
L119.17 91.1805
L119.244 94.2662
L119.616 254.827
L119.69 265.565
L119.765 261.714
L120.211 147.992
L120.286 156.528
L120.509 222.415
L120.583 219.181
L120.732 186.403
L120.881 159.935
L120.955 161.273
L121.178 200.311
L121.402 279.478
L121.55 228.853
L121.848 139.821
L121.922 133.028
L121.997 138.957
L122.146 185.826
L122.22 181.757
L122.369 152.608
L122.443 154.776
L122.592 182.429
L122.741 158.785
L122.815 163.445
L122.89 172.791
L122.964 165.761
L123.113 131.705
L123.634 318.052
L123.857 265.911
L124.303 193.34
L124.973 120.448
L125.047 115.042
L125.345 176.771
L125.419 171.844
L125.568 164.068
L125.642 167.38
L125.866 181.807
L126.238 227.436
L126.461 270.922
L126.758 205.831
L127.279 97.1939
L127.651 264.578
L127.726 241.186
L127.949 188.225
L128.172 241.161
L128.246 241.694
L128.321 234.95
L128.544 162.942
L128.618 163.979
L128.916 131.097
L129.065 139.362
L129.214 125.642
L129.288 133.146
L129.586 260.366
L129.809 194.268
L129.883 200.148
L130.032 264.405
L130.181 232.432
L130.404 164.586
L130.478 165.593
L130.627 181.979
L130.702 180.093
L130.85 183.253
L131.074 174.164
L131.297 231.548
L131.371 229.677
L131.669 156.815
L131.743 159.14
L131.818 158.247
L132.115 139.461
L132.413 234.293
L132.487 233.889
L132.785 209.889
L132.934 229.776
L133.082 205.495
L133.231 185.49
L133.454 222.908
L133.826 137.387
L133.901 135.447
L134.05 146.101
L134.496 191.819
L134.794 232.042
L134.942 250.858
L135.017 247.643
L135.389 189.894
L135.612 250.576
L135.835 111.902
L135.91 119.352
L136.282 180.957
L136.43 199.669
L136.579 195.162
L136.654 195.769
L136.728 195.823
L136.951 217.621
L137.026 210.916
L137.249 169.78
L137.323 176.396
L137.398 174.88
L137.546 157.871
L137.621 162.601
L137.918 239.818
L137.993 229.811
L138.216 155.645
L138.29 157.689
L138.439 186.309
L138.737 275.03
L138.811 273.628
L138.96 221.259
L139.258 85.0288
L139.332 87.0036
L139.406 92.6764
L139.63 162.251
L139.927 312.508
L140.076 282.554
L140.671 113.013
L140.746 116.345
L141.043 176.741
L141.341 241.368
L141.415 235.454
L141.564 238.668
L141.862 131.102
L141.936 132.366
L142.234 190.303
L142.531 281.216
L142.68 275.667
L142.829 256.071
L143.35 76.3394
L143.424 78.0427
L143.647 133.023
L143.945 236.076
L144.019 238.332
L144.242 286.02
L144.317 280.55
L144.54 223.585
L144.689 205.831
L144.763 205.421
L144.912 187.573
L145.507 101.405
L145.656 156.756
L145.879 216.52
L146.102 192.422
L146.177 195.423
L146.623 261.349
L146.772 244.874
L147.367 146.254
L147.442 146.486
L147.59 150.095
L148.186 189.558
L148.334 196.287
L148.409 196.445
L148.632 189.864
L148.855 181.185
L149.004 178.41
L149.078 181.096
L149.45 230.319
L149.599 225.263
L150.046 194.391
L150.12 197.339
L150.418 232.338
L150.566 208.744
L151.087 99.6625
L151.162 97.3075
L151.31 106.974
L151.608 174.154
L152.054 294.532
L152.129 293.988
L152.203 290.794
L152.426 254.141
L153.022 147.913
L153.245 130.273
L153.319 129.932
L153.542 148.046
L153.989 185.031
L154.51 203.189
L154.956 222.346
L155.03 222.168
L155.105 221.235
L155.254 213.76
L155.551 186.843
L155.626 188.136
L155.923 200.277
L155.998 199.477
L156.221 190.185
L156.593 170.886
L156.667 170.925
L156.816 172.668
L157.114 182.261
L157.411 189.8
L157.486 189.109
L157.56 189.252
L157.858 195.887
L157.932 195.206
L158.081 190.758
L158.378 168.274
L158.453 171.365
L159.048 225.081
L159.346 209.835
L159.42 211.968
L159.643 227.302
L159.718 225.328
L159.941 197.132
L160.238 160.636
L160.387 157.284
L160.536 163.243
L161.28 196.119
L161.503 206.932
L161.652 213.241
L161.801 206.275
L162.173 172.159
L162.396 153.665
L162.545 155.388
L162.619 157.531
L162.842 185.292
L163.289 237.675
L163.363 239.25
L163.512 230.482
L164.182 166.324
L164.256 166.595
L164.554 195.389
L164.628 193.394
L164.702 192.219
L164.777 192.93
L165 198.707
L165.074 198.094
L165.223 190.694
L165.595 170.97
L165.67 173.507
L165.893 188.645
L166.042 173.537
L166.265 139.653
L166.339 140.779
L166.488 167.464
L166.86 285.699
L166.934 279.498
L167.455 165.381
L167.604 162.493
L167.678 165.598
L168.05 201.748
L168.125 199.467
L168.571 151.498
L168.646 153.369
L169.241 215.414
L169.315 213.661
L169.762 193.404
L170.282 214.012
L170.357 210.516
L170.58 193.276
L170.878 200.237
L171.026 191.261
L171.324 167.642
L171.845 209.213
L171.919 205.406
L172.366 140.226
L172.44 140.952
L172.738 180.913
L172.812 182.883
L173.035 218.988
L173.184 194.574
L173.482 159.451
L173.556 168.763
L173.779 235.888
L173.854 238.031
L174.002 232.575
L174.151 253.731
L174.226 253.143
L174.374 263.857
L174.449 261.571
L174.672 194.214
L174.97 125.173
L175.118 114.686
L175.342 129.182
L175.565 159.787
L175.937 209.948
L176.234 225.184
L176.309 224.992
L176.458 220.109
L176.681 198.558
L176.978 170.343
L177.127 168.852
L177.202 170.323
L177.648 226.814
L177.722 222.81
L178.243 195.991
L178.764 140.823
L178.838 140.735
L178.913 141.613
L179.062 148.096
L179.285 175.551
L179.582 207.129
L179.657 208.225
L179.731 207.84
L179.806 205.737
L179.88 206.167
L180.326 229.88
L180.55 232.269
L180.773 234.318
L180.847 234.402
L180.996 224.701
L181.294 177.645
L181.591 135.99
L181.74 132.954
L182.112 141.055
L182.484 175.699
L182.782 211.82
L183.005 228.813
L183.377 244.094
L183.451 242.815
L183.6 237.621
L183.972 189.316
L184.27 155.818
L184.493 148.733
L184.642 157.175
L184.79 164.778
L184.865 164.438
L185.014 161.352
L185.162 173.389
L185.46 198.331
L185.609 202.385
L185.906 185.539
L185.981 186.838
L186.13 197.176
L186.65 255.35
L186.725 254.289
L186.874 238.692
L187.32 179.136
L187.692 147.005
L187.99 131.808
L188.064 131.907
L188.213 144.235
L188.882 221.585
L189.031 228.576
L189.106 228.581
L189.18 228.285
L189.329 222.602
L190.222 175.225
L190.37 171.488
L190.594 159.955
L190.668 160.375
L190.817 164.216
L191.933 227.144
L192.007 227.544
L192.082 226.863
L192.23 221.319
L192.751 184.68
L193.049 175.285
L193.346 164.063
L193.421 163.613
L193.57 164.867
L193.793 164.438
L193.867 164.418
L193.942 164.833
L194.016 167.069
L194.314 212.955
L194.611 254.842
L194.686 252.655
L194.834 224.557
L195.206 140.789
L195.281 137.841
L195.43 145.504
L196.025 209.869
L196.099 209.894
L196.322 206.843
L196.546 210.348
L196.694 197.926
L196.918 175.354
L196.992 175.927
L197.141 183.93
L197.29 191.78
L197.364 191.952
L197.438 191.691
L197.513 192.18
L197.885 214.797
L197.959 213.854
L198.257 206.512
L198.48 203.994
L198.629 205.964
L198.778 200.839
L199.001 175.912
L199.298 137.98
L199.596 127.049
L199.67 129.35
L199.819 148.506
L200.34 244.439
L200.563 253.524
L200.712 244.607
L201.382 174.149
L201.53 170.427
L201.679 173.488
L201.902 184.586
L202.126 182.073
L202.349 175.467
L202.498 180.918
L202.87 199.447
L203.167 208.048
L203.242 206.749
L203.762 183.786
L204.06 163.564
L204.134 163.337
L204.283 167.277
L204.655 192.856
L204.953 211.662
L205.027 212.348
L205.325 203.698
L205.548 192.308
L205.771 184.937
L205.92 195.418
L205.994 201.456
L206.069 201.165
L206.366 182.69
L206.515 167.05
L206.887 265.62
L207.036 233.316
L207.482 118.014
L207.557 118.211
L207.78 158.493
L208.003 190.067
L208.226 198.914
L208.301 198.973
L208.45 197.24
L208.524 197.255
L208.673 201.042
L208.97 222.676
L209.417 185.198
L209.64 167.311
L209.789 177.793
L210.012 190.713
L210.161 188.274
L210.682 163.46
L210.756 165.164
L210.979 198.356
L211.426 246.898
L211.5 246.562
L211.723 212.802
L212.095 151.379
L212.17 148.121
L212.244 148.767
L212.393 169.153
L212.616 209.297
L212.765 186.472
L212.988 150.984
L213.137 169.953
L213.434 221.951
L213.509 222.504
L213.583 222.01
L213.732 216.164
L213.955 205.125
L214.03 206.463
L214.104 205.826
L214.178 202.414
L214.476 172.1
L214.922 195.364
L215.146 182.34
L215.22 183.071
L215.518 199.768
L215.592 200.77
L215.666 200.01
L215.964 164.245
L216.038 166.724
L216.262 178.489
L216.336 178.721
L216.559 169.716
L216.634 173.117
L217.08 231.914
L217.303 236.594
L217.378 233.242
L217.675 173.379
L217.973 134.045
L218.047 136.612
L218.196 163.929
L218.494 245.644
L218.568 243.402
L218.717 231.46
L219.089 146.881
L219.163 148.772
L219.386 175.778
L219.61 196.939
L219.833 201.101
L219.907 205.495
L219.982 201.916
L220.205 162.883
L220.428 214.604
L220.651 256.387
L220.726 257.72
L221.172 188.674
L221.618 141.668
L221.767 129.157
L221.842 133.171
L222.214 172.016
L222.437 199.018
L222.734 250.472
L222.809 253.845
L222.883 252.492
L223.106 220.889
L223.33 182.651
L223.702 169.809
L223.776 166.452
L223.85 168.047
L224.148 192.293
L224.222 191.503
L224.594 176.08
L224.669 177.028
L224.818 195.053
L225.041 220.795
L225.115 216.332
L225.413 160.3
L225.487 159.97
L225.71 172.643
L226.008 202.335
L226.231 222.247
L226.306 219.403
L226.454 207.618
L226.603 215.172
L226.678 213.054
L227.347 162.231
L227.422 163.179
L227.719 191.493
L227.794 190.496
L228.166 164.951
L228.24 166.59
L228.538 185.134
L228.91 227.411
L229.207 255.661
L229.282 251.583
L229.579 213.789
L229.951 123.514
L230.026 123.361
L230.174 127.562
L230.472 161.436
L230.918 218.287
L231.142 230.823
L231.29 219.077
L231.514 199.462
L231.588 199.19
L231.737 191.78
L231.886 185.5
L232.109 196.1
L232.258 187.025
L232.481 169.661
L232.63 183.08
L232.853 196.934
L232.927 197.734
L233.15 209.326
L233.225 205.693
L233.522 176.771
L233.82 166.126
L233.969 160.236
L234.043 160.844
L234.564 213.059
L234.713 221.995
L234.862 235.246
L235.01 230.418
L235.234 211.064
L235.531 158.503
L235.606 160.177
L235.829 171.281
L235.903 170.57
L236.052 181.56
L236.275 201.116
L236.35 199.951
L236.498 188.911
L236.722 161.031
L236.87 183.836
L237.094 214.125
L237.168 209.731
L237.317 177.852
L237.466 142.601
L237.614 169.869
L237.912 240.193
L237.986 240.03
L238.135 218.662
L238.284 186.546
L238.433 198.213
L238.507 196.475
L238.656 180.953
L238.805 170.338
L238.879 175.857
L239.102 212.392
L239.4 174.312
L239.474 175.235
L239.549 174.865
L239.623 175.186
L240.07 195.67
L240.218 206.137
L240.293 204.957
L240.442 184.952
L240.516 185.149
L240.665 202.103
L240.888 190.131
L240.962 192.565
L241.186 218.356
L241.334 185.544
L241.483 148.575
L241.632 171.997
L241.855 234.901
L241.93 233.755
L242.078 195.305
L242.227 151.458
L242.302 152.692
L242.525 168.18
L242.599 166.882
L242.748 180.409
L243.194 239.621
L243.269 246.676
L243.343 246.503
L243.566 173.542
L243.79 134.795
L244.013 125.617
L244.087 136.355
L244.459 256.328
L244.608 259.522
L244.757 214.51
L244.98 136.034
L245.054 131.774
L245.129 142.147
L245.426 257.656
L245.501 257.123
L245.947 150.194
L246.022 157.842
L246.319 207.203
L246.394 205.535
L246.617 170.955
L246.766 152.826
L246.84 153.211
L246.989 149.676
L247.063 150.061
L247.212 169.869
L247.51 263.511
L247.584 263.358
L248.105 173.27
L248.328 193.384
L248.7 141.87
L248.774 146.402
L248.998 209.45
L249.221 170.673
L249.593 247.179
L249.667 237.256
L249.965 199.097
L250.114 191.538
L250.188 191.261
L250.337 188.763
L250.56 167.953
L250.709 183.426
L250.858 195.744
L251.23 189.02
L251.676 146.679
L251.75 150.021
L251.974 177.58
L252.048 175.68
L252.122 176.939
L252.792 241.052
L252.941 239.714
L253.09 230.047
L253.759 166.269
L254.28 181.663
L254.354 182.611
L254.578 162.182
L254.652 165.623
L254.875 208.339
L255.024 184.088
L255.247 218.633
L255.322 212.921
L255.694 161.638
L255.768 168.012
L256.066 199.2
L256.214 181.18
L256.363 163.668
L256.586 263.492
L256.661 256.323
L256.958 165.771
L257.033 166.793
L257.33 195.507
L257.479 210.654
L257.554 210.378
L257.628 210.793
L257.702 209.8
L258.074 180.943
L258.149 181.259
L258.298 194.549
L258.446 136.217
L258.521 103.657
L258.595 119.065
L258.893 281.32
L259.562 122.052
L259.637 128.11
L260.009 209.968
L260.158 201.368
L260.455 140.823
L260.753 217.863
L260.827 214.816
L261.05 195.147
L261.125 193.636
L261.199 194.377
L261.348 207.732
L261.794 255.982
L261.869 264.04
L261.943 257.419
L262.39 153.798
L262.464 150.668
L262.762 124.763
L263.208 150.155
L263.506 224.597
L263.58 220.489
L263.729 206.132
L263.803 206.423
L263.952 228.27
L264.175 266.385
L264.324 237.28
L264.622 183.703
L264.696 185.593
L264.919 208.892
L265.068 174.307
L265.291 134.958
L265.44 155.941
L265.663 186.151
L265.738 184.976
L265.812 190.062
L266.035 219.981
L266.407 162.182
L266.705 174.287
L267.002 186.304
L267.598 242.647
L267.97 218.416
L268.862 137.195
L269.309 156.642
L269.532 161.224
L269.755 172.732
L269.904 170.664
L269.978 175.043
L270.202 219.991
L270.499 280.1
L270.574 277.148
L271.094 212.452
L271.243 218.559
L271.318 218.524
L271.466 209.805
L271.69 186.966
L272.285 129.468
L272.582 110.065
L272.657 110.707
L272.806 123.489
L273.103 177.042
L273.55 273.603
L273.698 264.134
L273.996 234.703
L274.591 144.131
L274.666 145.504
L274.889 190.047
L275.335 271.628
L275.41 269.604
L275.558 232.669
L275.856 137.55
L276.079 154.267
L276.154 153.24
L276.451 134.938
L276.526 134.978
L276.674 142.665
L276.823 164.976
L277.27 249.179
L277.344 251.914
L277.418 250.369
L277.79 217.117
L278.162 128.54
L278.386 170.249
L278.683 209.479
L278.758 208.255
L279.13 191.587
L279.204 192.807
L279.502 216.085
L279.576 212.239
L279.874 174.505
L280.097 171.493
L280.246 184.3
L280.618 234.595
L280.841 186.561
L280.915 187.317
L281.064 202.933
L281.138 200.089
L281.287 177.403
L281.51 141.001
L281.882 155.126
L282.329 221.254
L282.403 221.506
L282.85 199.319
L282.924 200.217
L283.073 203.53
L283.37 218.198
L283.519 219.117
L283.594 220.228
L283.668 219.709
L283.817 210.037
L284.412 138.987
L284.561 161.031
L284.858 218.593
L284.933 216.875
L285.379 166.309
L285.454 166.625
L285.751 160.266
L285.9 170.116
L286.346 203.204
L286.644 214.026
L287.016 265.358
L287.165 244.76
L287.537 174.199
L287.611 173.853
L287.76 166.729
L287.834 168.511
L287.983 178.82
L288.132 189.138
L288.281 179.99
L288.504 163.88
L288.727 176.312
L288.876 163.584
L289.099 147.76
L289.471 178.494
L289.546 178.326
L289.769 161.767
L289.843 169.533
L289.992 229.593
L290.215 317.435
L290.29 307.645
L290.736 141.06
L290.81 143.085
L291.331 215.384
L291.406 212.585
L291.703 173.246
L291.778 175.388
L291.926 192.397
L292.224 222.025
L292.373 213.77
L293.042 143.726
L293.191 147.212
L293.414 166.906
L294.233 237.715
L294.307 237.345
L294.53 216.668
L294.754 202.543
L294.902 201.22
L295.051 194.574
L295.498 159.096
L295.944 198.331
L296.39 171.858
L296.539 158.103
L296.614 158.587
L296.688 158.148
L296.762 161.555
L296.986 203.135
L297.209 237.034
L297.283 237.67
L297.432 226.355
L297.878 177.931
L297.953 174.031
L298.102 178.563
L298.176 177.116
L298.25 178.602
L298.697 204.162
L298.846 196.396
L299.069 187.805
L299.143 185.707
L299.218 186.675
L299.59 207.648
L299.664 207.386
L300.036 166.808
L300.185 152.5
L300.259 153.161
L300.482 162.295
L301.003 224.888
L301.078 225.648
L301.45 207.297
L301.598 196.302
L301.747 200.405
L301.896 189.844
L302.268 154.47
L302.342 152.199
L302.417 152.292
L302.714 165.845
L303.235 228.438
L303.31 228.147
L305.021 162.705
L305.095 163.248
L305.244 169.691
L305.616 199.492
L305.69 196.761
L306.137 168.738
L306.211 171.676
L306.434 204.216
L306.732 237.902
L306.806 239.576
L306.881 237.211
L307.625 166.151
L307.774 167.736
L307.922 169.543
L307.997 168.141
L308.146 163.816
L308.369 169.123
L308.592 193.518
L308.964 227.495
L309.113 225.308
L309.187 222.36
L309.262 222.523
L309.336 221.605
L309.559 207.134
L310.154 129.034
L310.229 130.959
L310.824 211.726
L310.898 210.679
L311.047 205.623
L311.196 195.868
L311.27 196.238
L311.717 225.648
L311.866 214.471
L312.163 188.358
L312.238 189.607
L312.386 195.759
L312.833 178.114
L312.907 178.143
L312.982 179.432
L313.056 178.346
L313.205 171.044
L313.279 173.892
L313.651 218.766
L313.726 217.413
L313.874 201.975
L314.172 156.208
L314.321 150.397
L314.47 167.899
L314.693 184.399
L314.842 175.379
L315.288 222.528
L315.511 289.254
L315.66 238.455
L315.958 155.472
L316.032 152.929
L316.106 153.69
L316.33 163.233
L316.404 162.226
L316.553 156.514
L316.702 164.665
L316.776 162.937
L316.85 159.293
L316.925 167.504
L317.222 264.484
L317.297 255.972
L317.669 183.604
L317.966 155.344
L318.636 204.285
L318.934 265.057
L319.008 255.81
L319.306 194.011
L319.454 201.066
L319.603 188.679
L319.826 171.389
L319.975 159.683
L320.198 131.018
L320.273 131.714
L320.422 149.863
L320.57 166.827
L320.645 166.309
L320.719 166.585
L320.868 169.681
L321.017 189.198
L321.389 236.831
L321.612 250.66
L321.761 260.302
L321.835 255.34
L322.356 161.194
L322.43 158.553
L322.505 159.111
L322.579 160.853
L322.802 154.391
L322.877 155.383
L323.026 161.283
L323.249 188.64
L323.695 276.728
L323.77 271.697
L324.142 153.546
L324.216 154.736
L324.514 166.265
L324.886 156.612
L324.96 157.664
L325.481 203.97
L325.555 201.461
L325.63 201.318
L325.927 243.264
L326.225 212.684
L326.448 168.057
L326.522 169.138
L326.746 195.902
L327.043 156.435
L327.192 175.813
L327.49 227.752
L327.564 229.919
L327.638 229.272
L327.787 219.191
L328.531 141.209
L328.606 140.458
L328.829 132.81
L328.978 153.7
L329.498 240.144
L329.722 233.582
L329.796 234.965
L329.87 233.385
L330.019 225.328
L330.242 238.075
L330.317 237.754
L330.466 220.716
L330.838 134.336
L330.912 140.448
L331.135 151.907
L331.358 195.26
L331.73 134.958
L331.805 138.538
L332.028 185.243
L332.549 286.212
L332.623 287.328
L332.772 272.23
L332.995 212.61
L333.367 104.911
L333.442 98.0678
L333.516 98.3443
L333.665 105.434
L333.888 141.001
L334.334 216.851
L334.632 235.942
L334.781 242.38
L335.004 253.326
L335.748 173.137
L336.12 156.4
L336.194 157.047
L336.566 186.457
L336.715 172.688
L336.79 165.129
L336.864 166.023
L337.162 203.456
L337.385 216.46
L337.682 209.697
L337.831 204.893
L337.98 218.983
L338.129 227.821
L338.278 210.18
L338.65 159.728
L338.873 153.655
L338.947 155.837
L339.319 199.496
L339.468 187.223
L339.691 167.39
L339.84 179.368
L339.989 186.161
L340.063 185.534
L340.138 185.974
L340.51 207.485
L340.584 205.826
L340.658 203.51
L340.733 206.315
L341.03 265.081
L341.105 260.342
L341.626 144.087
L341.7 144.6
L341.849 170.041
L342.072 196.396
L342.146 194.707
L342.295 179.363
L342.593 145.405
L342.742 141.949
L342.816 144.571
L342.965 168.768
L343.337 259.502
L343.486 267.708
L343.634 259.162
L343.783 224.74
L344.155 107.226
L344.23 108.214
L344.378 152.919
L344.676 253.247
L344.75 257.305
L344.899 234.772
L345.346 131.729
L345.569 94.7402
L345.718 129.073
L346.09 244.77
L346.313 283.709
L346.387 289.412
L346.462 289.185
L346.61 286.751
L346.759 263.349
L347.206 107.103
L347.28 112.539
L347.429 125.03
L347.652 88.4058
L347.726 97.4457
L347.95 187.529
L348.024 187.119
L348.322 155.729
L348.47 196.944
L348.768 292.068
L348.917 311.728
L348.991 308.889
L349.214 242.055
L349.735 109.127
L349.884 96.8681
L350.182 138.952
L350.777 240.45
L350.851 241.571
L351.074 233.336
L351.149 235.113
L351.223 234.333
L351.521 215.251
L351.744 124.778
L351.893 195.3
L351.967 178.449
L352.19 80.0373
L352.265 85.641
L353.158 317.089
L353.455 281.581
L354.125 103.696
L354.199 95.0413
L354.274 97.1692
L355.018 193.527
L355.092 192.96
L355.241 196.08
L355.39 199.64
L355.464 198.366
L355.613 205.352
L355.836 220.751
L355.985 211.632
L356.282 186.991
L356.431 182.799
L356.506 183.683
L356.654 187.173
L356.729 187.06
L357.026 211.212
L357.398 193.848
L357.473 194.248
L357.622 191.883
L357.696 189.444
L357.994 171.878
L358.142 168.782
L358.291 176.647
L358.886 229.588
L359.11 223.328
L359.258 203.436
L359.556 150.446
L359.63 149.133
L360.002 175.843
L360.151 161.081
L360.3 141.539
L360.374 141.949
L360.598 159.056
L361.342 255.405
L361.49 267.565
L361.565 266.424
L361.788 243.738
L362.011 184.231
L362.309 123.692
L362.383 121.894
L362.458 125.736
L362.681 149.671
L362.978 106.629
L363.053 114.775
L363.276 211.829
L363.499 276.368
L363.797 305.655
L363.871 295.795
L364.392 117.782
L364.466 122.739
L364.69 162.917
L364.913 191.725
L365.062 189.203
L365.21 187.909
L365.434 189.484
L365.508 190.521
L365.657 196.766
L365.731 195.838
L365.806 193.414
L366.029 176.07
L366.103 176.346
L366.475 201.891
L366.773 264.706
L366.922 235.493
L367.294 119.51
L367.368 120.201
L367.517 146.605
L367.814 216.061
L367.889 216.579
L368.038 210.447
L368.261 191.098
L368.335 192.639
L368.558 202.123
L368.633 202.079
L369.005 196.277
L369.154 202.301
L369.526 160.073
L369.6 163.228
L369.823 220.647
L370.046 166.25
L370.121 172.831
L370.195 173.157
L370.344 159.106
L371.014 252.077
L371.758 116.098
L371.981 192.752
L372.13 140.147
L372.353 251.119
L372.502 330.094
L372.65 263.818
L372.874 188.363
L373.097 141.446
L373.171 143.011
L373.469 169.222
L373.766 152.949
L373.841 155.808
L374.138 205.154
L374.213 200.474
L374.362 190.091
L374.51 192.787
L374.659 196.83
L374.808 191.641
L374.957 200.602
L375.18 224.863
L375.254 216.451
L375.403 197.744
L375.478 199.62
L375.701 224.873
L375.775 223.402
L376.147 180.785
L376.296 177.042
L376.37 177.921
L376.594 194.614
L376.817 185.574
L377.114 169.967
L377.189 173.093
L377.263 172.624
L377.412 168.541
L377.635 180.666
L377.784 189.538
L377.858 187.445
L377.933 188.106
L378.23 207.312
L378.677 173.177
L378.751 181.111
L379.049 274.995
L379.421 186.467
L379.495 185.895
L379.57 181.076
L379.644 182.004
L379.793 192.293
L380.016 172.268
L380.165 175.882
L380.314 61.7946
L380.388 69.4175
L380.76 348.707
L380.834 322.821
L381.206 124.427
L381.355 91.5508
L381.43 93.18
L381.727 166.916
L382.025 248.438
L382.099 253.045
L382.174 250.201
L382.397 226.098
L382.471 226.434
L382.546 221.635
L383.141 141.337
L383.29 135.817
L383.587 187.465
L384.034 253.874
L384.108 255.271
L384.257 233.429
L384.554 176.736
L384.703 170.767
L384.926 174.875
L385.075 153.922
L385.224 133.941
L385.298 134.534
L385.447 150.09
L386.042 246.567
L386.117 246.992
L386.266 233.459
L386.861 159.629
L386.935 160.503
L387.233 189.148
L387.456 213.498
L387.53 206.868
L387.902 144.63
L388.051 164.907
L388.423 224.76
L388.572 233.849
L388.795 226.888
L388.87 229.327
L388.944 221.383
L389.167 157.012
L389.39 188.571
L389.465 185.001
L389.614 174.49
L389.688 175.897
L389.986 191.834
L390.06 190.244
L390.209 178.198
L390.283 179.042
L390.655 199.684
L390.73 198.815
L390.804 182.054
L390.878 185.342
L391.102 211.933
L391.25 221.072
L391.325 215.048
L391.548 176.252
L391.622 178.78
L391.994 142.423
L392.069 145.938
L392.218 185.031
L392.441 240.623
L392.515 238.376
L392.813 164.932
L393.11 254.669
L393.185 253.069
L393.408 225.802
L393.557 216.663
L393.78 169.202
L394.078 115.244
L394.226 121.934
L394.598 177.659
L395.045 252.536
L395.119 253.933
L395.194 251.174
L395.714 150.91
L395.789 133.911
L395.863 134.415
L396.384 209.065
L396.458 210.901
L396.682 196.509
L396.756 199.975
L397.277 230.976
L397.426 205.589
L397.649 163.811
L397.798 161.915
L397.872 158.963
L398.095 141.919
L398.244 144.531
L398.467 159.061
L398.616 175.462
L399.137 280.194
L399.211 280.727
L399.955 146.768
L400.104 140.196
L400.253 143.628
L400.476 175.191
L400.55 192.639
L400.625 191.849
L400.848 162.725
L400.922 161.737
L401.071 167.568
L401.369 193.498
L401.666 239.364
L401.741 240.095
L401.89 245.985
L401.964 243.546
L402.559 172.875
L402.634 173.107
L402.782 163.406
L402.931 158.612
L403.006 163.115
L403.08 161.925
L403.229 150.298
L403.303 150.555
L403.378 160.142
L403.601 214.204
L403.675 214.614
L403.75 216.337
L403.973 235.735
L404.047 232.003
L404.27 199.575
L404.568 143.317
L404.642 145.533
L404.866 201.437
L404.94 200.222
L405.014 198.578
L405.089 200.341
L405.386 224.217
L405.461 221.131
L405.982 163.919
L406.13 157.59
L406.205 158.335
L406.428 172.826
L406.726 235.735
L406.8 227.717
L407.246 137.93
L407.321 136.242
L407.47 165.351
L407.693 207.465
L408.065 243.274
L408.214 234.318
L408.288 226.345
L408.586 163.401
L408.883 203.184
L409.032 180.948
L409.181 164.201
L409.33 172.051
L409.478 180.172
L409.553 178.553
L409.627 178.997
L409.776 189.119
L409.85 182.7
L409.999 154.554
L410.074 160.31
L410.371 226.157
L410.52 219.067
L410.892 248.996
L410.966 242.188
L411.264 149.74
L411.562 205.52
L411.859 87.759
L412.231 164.986
L412.752 291.303
L412.826 292.606
L412.975 240.253
L413.198 140.819
L413.273 145.815
L413.57 205.673
L413.794 140.685
L414.166 247.792
L414.24 241.576
L414.463 143.909
L414.612 173.177
L414.761 213.676
L414.835 211.484
L415.058 136.889
L415.133 150.086
L415.43 254.965
L415.579 191.444
L415.654 161.92
L415.728 163.618
L415.951 187.963
L416.026 190.348
L416.1 186.522
L416.249 163.095
L416.546 204.285
L416.621 196.332
L416.77 166.975
L416.844 169.582
L417.365 238.984
L417.439 235.622
L418.109 152.697
L418.258 136.217
L418.332 137.496
L418.704 203.994
L418.927 224.246
L419.002 220.973
L419.15 213.977
L419.374 171.537
L419.597 136.262
L420.043 219.196
L420.266 241.205
L420.341 239.986
L420.49 229.445
L420.638 198.647
L420.862 152.362
L420.936 154.944
L421.531 217.557
L421.68 204.73
L421.829 186.018
L422.201 108.762
L422.35 101.929
L422.424 106.175
L423.094 297.385
L423.242 282.026
L423.466 250.882
L423.763 182.345
L423.912 191.059
L424.582 130.584
L424.656 125.908
L424.73 129.35
L425.102 207.717
L425.177 204.769
L425.474 179.531
L425.549 178.425
L425.623 183.155
L425.921 248.369
L425.995 247.688
L426.144 244.039
L426.367 203.377
L426.442 206.369
L426.516 209.158
L426.59 208.211
L426.962 161.525
L427.037 162.73
L427.26 180.054
L427.334 174.312
L427.483 148.259
L427.558 155.901
L427.781 190.126
L427.93 183.653
L428.004 183.949
L428.227 190.916
L428.376 184.576
L428.45 189.291
L428.674 213.706
L428.897 227.14
L429.046 214.214
L429.418 165.707
L429.492 170.402
L429.79 194.406
L429.938 222.928
L430.013 236.244
L430.087 232.289
L430.385 158.735
L430.608 184.784
L430.757 202.676
L431.054 170.703
L431.129 172.367
L431.278 185.49
L431.426 218.1
L431.575 248.438
L431.724 206.527
L431.947 133.413
L432.022 126.624
L432.096 129.582
L432.245 122.052
L432.319 124.699
L432.542 178.425
L432.84 257.419
L432.914 262.776
L432.989 262.04
L433.361 251.988
L433.51 257.883
L433.658 229.341
L434.105 82.6047
L434.179 79.6621
L434.254 86.8802
L434.402 136.469
L434.626 228.542
L434.7 234.901
L434.774 234.16
L434.923 227.609
L435.072 210.872
L435.37 174.594
L435.518 178.859
L435.816 157.392
L435.89 160.325
L436.039 180.434
L436.337 232.827
L436.56 236.11
L436.783 249.248
L436.932 215.498
L437.23 139.253
L437.304 137.856
L437.75 186.887
L438.048 222.271
L438.197 228.389
L438.346 242.924
L438.494 206.591
L438.718 156.593
L438.941 175.127
L439.015 168.501
L439.313 94.8833
L439.387 106.945
L439.759 265.407
L439.982 179.861
L440.057 193.868
L440.28 276.654
L440.354 274.689
L440.578 213.301
L440.875 135.511
L440.95 129.275
L441.247 152.386
L441.619 220.257
L441.768 205.461
L441.917 183.51
L442.066 208.635
L442.363 275.894
L442.438 271.179
L442.661 208.117
L442.958 137.639
L443.182 121.648
L443.33 117.17
L443.479 124.353
L443.851 168.146
L444.446 269.456
L444.521 266.256
L444.967 215.527
L445.116 212.081
L445.339 199.101
L445.637 181.797
L445.786 175.482
L446.083 159.841
L446.232 165.815
L446.306 165.415
L446.678 123.618
L446.753 124.99
L446.827 129.843
L447.72 270.127
L447.869 261.941
L448.166 216.377
L448.613 160.72
L448.762 154.741
L448.836 155.413
L449.878 191.745
L449.878 191.745" style="fill:none;stroke:#808080;stroke-linecap:square;"/>
   </g>
  </g>
 </g>
 <defs>
  <clipPath id="p7ff5b81e1d">
   <rect height="345.6" width="446.4" x="72.0" y="43.2"/>
  </clipPath>
 </defs>
</svg>
