<?xml version="1.0" encoding="utf-8" standalone="no"?>
<!DOCTYPE svg PUBLIC "-//W3C//DTD SVG 1.1//EN"
  "http://www.w3.org/Graphics/SVG/1.1/DTD/svg11.dtd">
<!-- Created with matplotlib (http://matplotlib.org/) -->
<svg height="432pt" version="1.1" viewBox="0 0 576 432" width="576pt" xmlns="http://www.w3.org/2000/svg" xmlns:xlink="http://www.w3.org/1999/xlink">
 <defs>
  <style type="text/css">
*{stroke-linecap:butt;stroke-linejoin:round;}
  </style>
 </defs>
 <g id="figure_1">
  <g id="patch_1">
   <path d="
M0 432
L576 432
L576 0
L0 0
z
" style="fill:#ffffff;"/>
  </g>
  <g id="axes_1">
   <g id="line2d_1">
    <path clip-path="url(#p7ff5b81e1d)" d="
M72 218.386
L72.372 192.846
L73.1904 234.724
L73.2648 232.408
L74.0832 196.518
L74.4552 167.557
L74.5296 168.576
L74.604 172.352
L75.4968 287.523
L75.5712 286.115
L75.72 274.433
L76.464 164.55
L76.5384 161.353
L76.7616 171.445
L76.9848 183.186
L77.7288 247.554
L78.1752 230.801
L78.324 226.395
L78.3984 226.222
L78.5472 221.868
L78.9192 197.442
L78.9936 199.905
L79.2912 214.308
L79.3656 215.759
L79.44 215.5
L79.6632 217.142
L79.9608 229.609
L80.1096 231.346
L80.184 230.732
L80.3328 225.021
L80.7048 196.164
L80.7792 196.76
L80.928 200.052
L81.0024 200.216
L81.1512 196.285
L81.4488 203.43
L81.5976 202.324
L81.672 200.682
L81.7464 201.944
L82.3416 249.153
L82.4904 252.125
L82.5648 251.944
L82.7136 245.8
L82.9368 229.747
L83.0112 230.007
L83.16 225.73
L83.3088 216.779
L83.6808 185.156
L83.7552 185.839
L83.8296 185.355
L84.1272 192.016
L84.4248 213.513
L84.7224 242.535
L84.8712 247.425
L85.0944 235.182
L85.4664 195.982
L85.6152 179.454
L85.764 186.582
L86.3592 236.815
L86.4336 236.556
L87.1776 208.968
L87.252 210.791
L87.4008 221.349
L87.5496 229.177
L87.8472 224.131
L88.0704 215.12
L88.368 195.023
L88.5168 185.346
L88.5912 188.111
L88.9632 227.812
L89.0376 227.034
L89.4096 202.056
L89.484 203.75
L89.7816 226.257
L89.856 225.738
L89.9304 225.972
L90.0048 226.775
L90.228 240.133
L90.3768 245.956
L90.6 238.906
L90.6744 238.785
L90.8232 237.558
L91.0464 211.387
L91.4184 156.48
L91.4928 158.277
L91.716 180.499
L92.2368 248.246
L92.3856 253.196
L92.46 252.401
L92.832 216.615
L93.1296 199.965
L93.2784 196.656
L93.5016 198.272
L94.32 243.761
L94.5432 249.714
L94.692 254.32
L94.8408 246.353
L95.436 164.066
L95.6592 158.277
L95.7336 160.662
L96.0312 201.261
L96.4032 261.715
L96.552 256.886
L96.924 227.812
L97.0728 223.777
L97.296 222.533
L97.5192 227.76
L97.7424 233.851
L97.9656 213.928
L98.412 169.302
L98.6352 166.148
L98.784 172.101
L99.0816 214.334
L99.3792 257.318
L99.528 260.316
L99.6768 255.071
L100.272 223.406
L100.421 215.949
L100.718 186.038
L100.942 173.872
L101.09 181.597
L101.388 224.347
L101.686 265.586
L101.909 275.695
L102.132 253.784
L102.504 207.568
L103.025 139.148
L103.322 157.681
L103.992 268.489
L104.066 267.85
L104.513 231.354
L104.662 235.718
L104.885 232.659
L105.034 236.046
L105.182 231.242
L105.406 220.528
L105.703 204.959
L106.075 177.328
L106.15 177.087
L106.224 178.979
L106.373 191.878
L106.745 231.251
L106.819 229.894
L107.191 196.535
L107.266 199.127
L107.489 225.626
L107.712 252.384
L107.935 265.776
L108.01 263.063
L108.456 219.06
L108.605 209.469
L108.679 210.152
L108.828 212.096
L108.902 210.67
L109.051 199.628
L109.274 177.285
L109.349 177.303
L109.423 176.439
L109.572 183.679
L109.721 188.405
L109.87 185.338
L110.018 182.227
L110.093 180.05
L110.167 180.698
L110.242 180.543
L110.39 187.411
L110.614 224.209
L111.134 313.46
L111.432 267.988
L111.953 146.259
L112.027 143.71
L112.474 183.048
L113.069 285.009
L113.143 280.818
L113.441 243.891
L113.738 186.323
L113.962 173.207
L114.036 173.743
L114.259 183.636
L114.482 196.803
L114.557 196.725
L114.631 197.442
L114.78 190.936
L114.854 184.828
L114.929 185.96
L115.747 260.368
L115.822 261.517
L115.896 260.756
L116.045 263.046
L116.194 261.361
L116.342 249.179
L117.235 147.46
L117.31 148.912
L117.607 184.543
L118.202 280.68
L118.277 277.864
L118.574 244.211
L118.872 196.293
L118.946 193.261
L119.17 197.961
L119.393 188.12
L119.467 188.656
L119.542 191.36
L119.69 210.757
L119.914 241.895
L119.988 242.465
L120.286 231.717
L120.955 200.907
L121.03 201.313
L121.253 209.59
L121.327 207.975
L121.848 181.571
L121.922 183.748
L122.146 216.183
L122.443 265.664
L122.592 270.381
L122.741 257.525
L123.485 177.925
L123.559 177.7
L123.634 175.41
L123.782 192.215
L124.526 269.379
L124.75 243.917
L125.27 159.444
L125.419 160.506
L125.494 159.219
L125.791 185.079
L125.866 187.014
L126.386 244.211
L126.535 249.153
L126.61 248.755
L126.684 247.598
L126.758 248.608
L127.056 263.227
L127.13 260.92
L127.502 220.399
L127.8 180.992
L128.023 170.563
L128.246 189.424
L128.618 217.444
L128.767 221.289
L128.916 232.668
L128.99 231.933
L129.288 194.643
L129.511 177.432
L129.586 175.255
L129.66 176.508
L129.734 179.687
L130.404 266.899
L130.627 270.476
L130.85 261.88
L131.148 221.531
L131.52 174.339
L131.743 160.489
L131.966 181.536
L132.338 225.609
L132.413 226.957
L132.562 220.58
L132.785 229.937
L133.008 239.035
L133.157 236.115
L133.306 225.859
L133.603 211.456
L133.678 211.526
L133.826 213.66
L133.901 213.513
L134.05 207.016
L134.124 204.657
L134.57 216.295
L134.645 215.915
L135.017 218.965
L135.091 216.2
L135.314 229.981
L135.389 229.825
L135.538 226.594
L135.835 205.218
L135.91 205.27
L135.984 206.091
L136.133 209.314
L136.43 198.177
L136.579 204.976
L136.877 220.909
L137.1 218.222
L137.323 228.546
L137.398 225.35
L137.472 224.676
L137.546 227.527
L137.993 216.416
L138.067 217.003
L138.142 221.937
L138.216 219.76
L138.514 205.253
L138.588 207.499
L138.96 232.408
L139.109 232.521
L139.258 235.597
L139.332 234.568
L140.374 189.295
L140.597 194.444
L140.746 199.041
L141.043 188.992
L141.638 216.926
L142.01 260.074
L142.234 280.585
L142.457 261.715
L143.275 166.226
L143.35 165.742
L143.796 217.392
L144.019 240.547
L144.094 240.064
L144.614 214.316
L145.135 201.624
L145.656 228.667
L145.805 230.853
L146.028 239.243
L146.102 237.42
L146.4 219.388
L146.474 219.137
L146.772 225.367
L146.921 214.368
L147.516 154.121
L147.665 167.997
L148.334 272.438
L148.409 274.373
L148.558 269.802
L148.706 257.672
L149.227 190.669
L149.302 189.45
L149.376 190.15
L149.45 189.571
L149.599 198.013
L149.822 211.5
L150.046 216.191
L150.12 216.761
L150.194 216.079
L150.418 201.443
L150.715 183.402
L150.79 183.8
L150.938 197.546
L151.385 243.39
L151.459 242.941
L151.534 241.213
L151.98 249.982
L152.054 249.032
L152.426 225.125
L152.873 176.974
L152.947 174.65
L153.319 185.277
L153.394 184.629
L153.468 184.318
L153.766 200.916
L154.435 259.141
L154.51 258.199
L154.807 242.673
L155.179 222.576
L155.328 224.304
L155.402 223.708
L155.551 217.176
L156.221 176.966
L156.295 175.151
L156.444 182.176
L157.337 254.173
L157.486 259.996
L157.56 265.353
L157.634 264.23
L157.858 242.82
L158.304 176.983
L158.378 174.59
L158.453 176.248
L158.676 185.709
L158.75 184.612
L158.825 185.925
L158.899 189.468
L159.197 218.014
L159.346 218.187
L159.42 219.232
L159.792 245.049
L159.866 243.502
L160.387 214.956
L160.462 216.338
L160.908 240.599
L160.982 238.517
L161.206 228.667
L161.28 225.557
L161.801 173.294
L161.95 167.159
L162.098 161.224
L162.173 164.464
L163.14 271.435
L163.214 273.656
L163.289 271.461
L163.586 245.083
L163.735 236.884
L163.884 240.003
L164.033 234.724
L164.405 209.029
L164.479 207.646
L164.777 179.186
L165.298 119.665
L165.372 125.272
L165.595 178.737
L166.116 312.087
L166.19 311.827
L166.265 310.937
L166.339 307.525
L167.306 188.854
L167.604 168.386
L167.753 162.407
L167.976 168.481
L169.092 267.91
L169.166 266.58
L169.39 238.206
L169.613 209.504
L169.762 204.208
L169.91 205.676
L169.985 205.737
L170.431 221.211
L170.506 220.598
L170.58 218.412
L171.101 183.126
L171.175 183.04
L171.324 190.496
L171.547 200.121
L171.696 204.588
L171.845 217.193
L172.291 268.437
L172.366 269.742
L172.514 258.061
L173.11 201.693
L173.258 203.179
L173.556 211.612
L173.63 210.688
L173.779 196.466
L174.077 166.667
L174.226 171.289
L174.3 169.509
L174.374 172.965
L174.895 253.827
L175.118 278.175
L175.193 278.848
L175.416 274.071
L175.49 272.654
L175.714 252.479
L176.309 170.503
L176.606 149.274
L176.681 149.309
L176.978 170.408
L177.648 261.136
L177.797 267.599
L177.946 265.845
L178.243 245.593
L178.764 192.353
L178.838 192.146
L178.987 199.188
L179.136 209.694
L179.21 209.132
L179.285 209.374
L179.508 217.427
L179.582 217.271
L179.731 223.233
L180.103 203.827
L180.252 210.083
L180.326 207.257
L180.624 187.239
L180.698 186.53
L180.922 201.564
L181.442 243.934
L181.74 265.413
L181.814 262.761
L182.186 240.893
L183.005 135.364
L183.079 136.513
L183.302 164.386
L183.972 288.482
L184.121 289.579
L184.195 287.618
L184.79 208.545
L185.088 179.558
L185.237 187.394
L185.46 202.203
L185.683 199.222
L185.832 192.016
L185.906 193.658
L185.981 193.269
L186.204 185.994
L186.278 184.517
L186.427 173.518
L186.502 177.493
L187.171 280.957
L187.32 294.72
L187.394 293.519
L187.692 254.112
L188.51 146.415
L188.585 143.753
L188.734 150.432
L188.882 172.784
L189.254 234.568
L189.626 260.687
L189.701 262.078
L189.775 261.603
L190.222 225.436
L190.296 226.231
L190.37 226.412
L190.668 208.277
L190.966 189.692
L191.04 192.232
L191.412 228.901
L191.486 229.419
L191.561 227.449
L191.933 182.409
L192.007 184.007
L192.156 190.072
L192.23 190.651
L192.305 190.384
L192.379 190.323
L192.677 221.341
L192.9 238.629
L193.049 243.597
L193.198 242.189
L193.421 252.185
L193.57 258.173
L194.016 222.663
L194.388 163.029
L194.462 164.006
L194.686 178.815
L194.76 179.108
L194.909 177.648
L194.983 179.152
L195.132 193.805
L195.504 236.003
L195.727 253.905
L195.95 280.378
L196.025 275.107
L196.174 279.272
L196.248 278.935
L196.471 251.287
L197.141 146.268
L197.438 139.01
L197.513 142.077
L198.48 270.113
L198.629 275.894
L198.703 275.47
L199.224 237.437
L199.373 234.802
L199.522 240.677
L199.67 245.628
L199.819 241.74
L199.968 228.175
L200.638 133.567
L200.861 122.689
L200.935 121.402
L201.01 125.445
L201.233 170.114
L201.754 301.468
L201.902 320.433
L202.051 316.709
L202.572 251.512
L202.944 202.739
L203.614 136.936
L203.688 137.939
L203.986 165.207
L204.432 244.625
L204.655 250.76
L204.73 252.272
L204.804 251.667
L204.953 252.548
L205.027 251.728
L205.176 254.112
L205.846 214.826
L206.515 161.768
L206.59 163.202
L206.813 182.443
L207.185 245.662
L207.408 278.408
L207.482 277.872
L207.631 267.772
L208.301 193.079
L208.45 198.341
L208.524 197.382
L208.598 195.732
L208.822 202.013
L209.119 178.434
L209.714 195.576
L210.607 276.706
L210.682 278.14
L210.83 270.882
L211.5 208.07
L211.946 155.97
L212.318 129.515
L212.393 130.681
L212.467 135.113
L213.434 308.553
L213.509 306.617
L213.658 294.133
L214.476 183.083
L214.774 185.614
L214.848 185.467
L215.071 189.105
L215.146 191.498
L215.22 191.187
L215.369 189.174
L215.592 209.59
L215.666 208.908
L215.815 204.804
L215.89 205.383
L215.964 207.309
L216.336 232.694
L216.559 227.259
L216.634 227.596
L216.782 229.125
L217.08 238.456
L217.229 237.022
L217.378 229.903
L217.452 231.596
L217.601 218.291
L218.047 172.62
L218.122 173.89
L218.568 204.899
L218.94 255.762
L219.014 254.19
L219.312 239.355
L219.535 225.298
L219.758 212.778
L219.982 208.968
L220.354 226.24
L220.577 228.918
L220.651 228.434
L221.544 157.171
L221.618 157.154
L221.693 158.441
L221.842 174.685
L222.586 311.119
L222.66 314.454
L222.734 312.907
L222.883 301.433
L223.999 109.902
L224.074 111.578
L224.222 128.849
L224.52 202.229
L224.818 282.832
L225.041 295.878
L225.115 296.846
L225.413 283.834
L225.71 235.657
L226.008 197.321
L226.082 198.064
L226.454 181.683
L226.603 185.459
L227.05 211.517
L227.496 191.584
L227.794 212.528
L227.868 213.642
L228.091 223.475
L228.24 225.488
L228.314 228.572
L228.612 251.157
L228.686 250.95
L228.835 243.286
L229.207 213.012
L229.282 209.573
L229.356 210.644
L229.43 209.4
L229.728 191.515
L229.951 169.984
L230.026 170.529
L230.1 169.509
L230.174 170.84
L230.546 222.965
L230.918 277.682
L230.993 281.734
L231.142 271.876
L231.811 204.259
L232.034 197.555
L232.555 152.376
L232.63 150.709
L232.778 161.923
L233.522 278.468
L233.597 283.609
L233.894 261.888
L234.415 218.023
L234.564 218.386
L234.936 203.145
L235.308 166.719
L235.68 123.562
L235.829 144.963
L236.424 286.08
L236.647 290.426
L236.796 283.652
L237.019 258.622
L237.466 200.415
L237.54 200.829
L237.689 203.871
L237.763 201.356
L238.135 174.832
L238.21 176.594
L238.433 193.364
L239.251 231.147
L239.326 230.197
L239.474 220.77
L239.772 200.864
L239.995 205.892
L240.144 222.576
L240.516 272.248
L240.59 276.688
L240.665 274.762
L240.739 273.837
L240.814 269.872
L240.962 237.402
L241.409 127.674
L241.558 135.926
L241.781 170.477
L242.302 275.246
L242.376 279.687
L242.45 277.613
L242.748 255.158
L243.492 181.692
L243.715 188.837
L243.938 182.478
L244.087 178.858
L244.162 180.949
L245.129 277.933
L245.203 273.051
L245.65 206.903
L245.798 213.089
L245.873 210.843
L246.096 206.687
L246.394 195.766
L246.468 196.311
L246.542 197.33
L247.138 178.495
L247.212 180.318
L247.361 193.347
L247.807 250.336
L247.956 254.242
L248.03 254.129
L248.7 224.183
L248.774 227.181
L248.923 221.021
L248.998 222.101
L249.072 224.944
L249.146 224.313
L249.742 204.907
L250.114 183.1
L250.262 178.547
L250.411 179.272
L250.56 187.446
L250.783 208.199
L251.23 251.287
L251.378 261.007
L251.453 259.244
L251.75 251.788
L251.974 239.545
L252.792 137.222
L252.866 139.537
L253.015 162.381
L253.685 302.151
L253.834 298.885
L253.982 287.091
L254.28 211.154
L254.578 141.835
L254.726 131.355
L254.801 132.582
L254.95 144.6
L255.173 182.34
L255.619 257.499
L255.694 261.551
L255.768 260.316
L256.066 231.138
L256.363 205.322
L256.512 203.292
L256.661 208.07
L257.256 268.696
L257.479 250.017
L257.702 217.09
L258.074 157.811
L258.223 152.126
L258.298 151.953
L258.595 157.232
L258.744 170.684
L258.967 207.128
L259.339 272.68
L259.488 275.945
L259.562 275.634
L259.711 267.383
L260.232 211.793
L260.306 210.394
L260.455 212.96
L260.753 221.583
L260.827 221.479
L261.422 200.968
L261.571 189.252
L261.794 169.976
L261.869 169.872
L261.943 172.844
L262.762 271.504
L262.836 273.993
L262.91 272.351
L262.985 275.194
L263.059 271.729
L263.654 168.153
L263.952 128.366
L264.175 149.732
L264.547 221.539
L264.919 283.946
L265.068 292.923
L265.217 291.921
L265.291 296.388
L265.44 283.108
L266.407 125.644
L266.482 125.687
L266.63 139.796
L267.598 280.499
L267.672 279.142
L267.895 264.8
L268.416 214.774
L268.49 216.476
L268.714 233.298
L269.011 241.99
L269.086 241.29
L269.904 139.96
L269.978 140.678
L270.127 136.384
L270.202 140.211
L270.499 202.194
L270.946 306.937
L271.094 315.214
L271.243 310.402
L271.318 306.116
L271.69 232.512
L271.987 180.776
L272.285 157.094
L272.434 151.737
L272.88 190.168
L273.326 222.593
L273.401 223.872
L273.773 251.494
L273.922 256.082
L273.996 255.097
L274.442 217.392
L274.591 220.088
L274.666 217.807
L274.74 218.541
L274.814 217.98
L275.038 209.443
L275.112 208.372
L275.633 175.661
L275.782 187.074
L276.154 223.259
L276.377 235.83
L276.6 246.734
L276.674 247.399
L276.823 244.314
L277.195 224.745
L277.493 200.881
L277.79 214.074
L277.865 214.671
L277.939 214.204
L278.014 214.826
L278.311 201.296
L278.534 188.975
L278.683 184.871
L278.832 190.539
L279.055 200.155
L279.725 254.795
L279.948 265.24
L280.097 265.232
L280.171 266.372
L280.469 216.468
L280.841 154.052
L280.99 144.782
L281.064 146.449
L281.213 162.96
L281.957 267.202
L282.106 271.349
L282.329 240.115
L282.775 194.315
L282.85 190.971
L282.924 192.993
L283.519 245.256
L283.594 244.954
L283.742 235.908
L284.338 185.251
L284.412 184.37
L284.486 184.595
L284.561 184.024
L284.71 185.407
L284.784 184.405
L284.858 185.079
L285.156 204.052
L285.602 258.328
L285.677 256.549
L285.826 242.707
L285.9 244.444
L285.974 242.509
L286.495 184.145
L286.644 181.139
L286.718 181.761
L286.867 195.887
L287.239 243.623
L287.537 296.249
L287.611 292.802
L287.834 265.906
L288.355 144.298
L288.43 138.889
L288.504 141.248
L288.727 153.387
L289.471 257.49
L289.546 256.6
L289.62 256.721
L289.694 255.633
L289.843 244.401
L290.364 192.932
L290.736 224.278
L291.108 271.954
L291.257 256.073
L291.554 198.306
L291.852 135.831
L291.926 130.897
L292.075 141.256
L292.224 154.916
L293.042 301.183
L293.117 299.014
L293.266 283.065
L294.084 154.605
L294.158 154.476
L294.307 160.36
L295.2 253.291
L295.274 253.672
L295.423 241.999
L295.721 216.2
L296.242 187.567
L296.316 188.872
L296.539 200.847
L296.986 247.857
L297.06 248.539
L297.358 198.047
L297.581 190.971
L297.655 190.833
L297.73 192.466
L297.878 205.158
L298.474 317.392
L298.622 257.153
L298.697 296.267
L298.994 208.683
L299.515 94.4536
L299.59 92.1554
L299.738 106.921
L299.813 108.908
L300.259 249.87
L300.631 338.041
L300.706 347.545
L300.78 346.595
L301.003 293.536
L301.524 152.774
L301.673 157.163
L301.896 191.731
L302.119 238.292
L302.194 238.456
L302.268 240.746
L302.342 247.744
L302.417 244.738
L302.491 242.362
L302.64 218.766
L302.789 194.462
L302.938 126.56
L303.012 141.991
L303.086 137.956
L303.161 111.88
L303.235 115.025
L303.533 204.398
L303.979 350.915
L304.054 349.394
L304.128 357.118
L304.351 289.908
L304.872 125.074
L305.021 113.712
L305.244 147.054
L305.988 291.022
L306.062 290.478
L306.286 269.474
L306.509 213.081
L306.806 135.036
L306.955 125.506
L307.104 131.277
L307.327 165.172
L307.774 311.007
L307.848 309.676
L307.997 313.244
L308.22 264.074
L308.666 168.196
L308.741 166.978
L308.89 173.993
L309.559 244.755
L309.634 245.101
L309.708 239.001
L309.782 244.764
L309.857 244.608
L309.931 240.444
L310.675 125.929
L310.75 128.003
L310.824 135.165
L311.196 248.185
L311.494 341.445
L311.642 352.263
L311.866 312.475
L312.238 153.94
L312.535 71.3416
L312.684 85.6149
L312.907 156.42
L313.428 355.442
L313.502 356.28
L313.651 330.706
L313.949 208.545
L314.321 97.6763
L314.395 94.3845
L314.544 104.787
L315.437 322.766
L315.511 324.459
L315.586 319.292
L315.809 264.808
L316.255 134.44
L316.404 124.91
L316.553 141.101
L317.148 272.394
L317.222 271.038
L317.297 267.902
L317.371 272.965
L317.52 243.822
L317.669 213.107
L318.041 144.289
L318.115 142.224
L318.19 146.527
L318.636 259.236
L318.934 306.479
L319.008 304.829
L319.231 263.858
L319.752 158.528
L319.975 150.717
L320.05 151.175
L320.273 173.328
L320.794 249.472
L320.868 259.573
L320.942 257.205
L321.017 254.613
L321.091 255.019
L321.24 262.415
L321.389 257.084
L321.761 193.451
L321.835 193.658
L321.984 199.551
L322.207 188.785
L322.282 190.444
L322.505 209.53
L322.579 208.847
L322.877 224.244
L323.174 213.452
L323.249 211.284
L323.472 218.896
L323.546 215.457
L323.918 226.119
L324.067 238.284
L324.216 228.192
L324.662 183.437
L325.109 247.744
L325.183 245.74
L325.332 232.996
L325.63 198.453
L325.778 191.334
L326.15 172.214
L326.522 196.872
L326.746 215.595
L327.118 273.155
L327.192 278.097
L327.266 277.889
L327.49 261.931
L327.862 222.092
L328.159 215.327
L328.234 216.183
L328.531 245.265
L328.606 243.77
L328.754 223.743
L329.275 140.237
L329.35 139.883
L329.647 157.5
L329.722 155.582
L330.019 200.95
L330.391 290.668
L330.466 294.254
L330.54 292.474
L330.912 260.082
L331.358 203.784
L331.582 178.789
L331.656 179.29
L331.73 180.525
L331.805 179.869
L332.028 189.157
L332.102 188.431
L332.177 186.012
L332.251 186.902
L332.326 189.606
L332.474 204.959
L332.772 252.116
L332.995 256.523
L333.07 255.633
L333.218 261.309
L333.293 260.238
L333.516 245.904
L334.037 185.761
L334.334 165.155
L334.409 166.088
L334.855 208.346
L334.93 205.028
L335.004 199.741
L335.078 201.849
L335.45 256.816
L335.525 257.171
L335.674 247.615
L335.971 215.872
L336.194 193.183
L336.269 191.87
L336.343 193.615
L337.087 248.704
L337.31 246.224
L337.459 234.957
L337.757 212.476
L337.831 211.068
L337.98 200.069
L338.203 183.783
L338.352 176.724
L338.426 178.728
L338.798 198.972
L338.873 198.177
L339.022 193.209
L339.17 206.497
L339.468 229.868
L339.691 243.312
L339.766 242.327
L339.84 241.904
L339.914 243.01
L340.063 253.62
L340.212 265.361
L340.361 261.646
L340.584 265.068
L340.658 261.594
L341.477 115.984
L341.551 114.939
L341.7 135.589
L342.444 297.831
L342.518 294.936
L342.593 294.15
L342.742 284.983
L343.337 175.998
L343.411 177.078
L343.709 212.562
L344.006 245.541
L344.155 234.966
L344.825 165.535
L344.899 164.947
L344.974 165.414
L345.122 176.827
L345.792 258.873
L345.866 260.696
L346.015 257.084
L346.09 253.602
L346.238 240.876
L346.313 241.342
L346.61 250.82
L346.685 250.63
L346.759 249.153
L346.908 235.821
L347.652 176.767
L347.726 178.547
L347.801 178.504
L347.875 178.046
L348.098 181.502
L348.619 215.794
L348.694 217.012
L348.768 216.226
L349.14 185.26
L349.438 227.406
L349.958 310.747
L350.033 309.002
L350.256 280.715
L350.479 225.609
L350.926 107.63
L351.074 96.5359
L351.149 98.765
L351.372 152.938
L351.893 294.124
L352.116 312.994
L352.19 310.246
L352.414 262.398
L352.86 126.422
L352.934 128.59
L353.083 150.156
L353.678 287.393
L353.753 287.013
L353.976 254.363
L354.497 131.562
L354.571 126.905
L354.646 128.927
L354.794 153.681
L355.464 317.495
L355.538 317.944
L355.687 301.433
L356.208 169.501
L356.282 170.321
L356.506 177.786
L356.58 176.361
L356.654 177.665
L356.952 198.652
L357.026 198.125
L357.25 184.733
L357.398 172.853
L357.473 173.363
L357.622 183.653
L358.514 276.887
L358.738 288.257
L358.812 288.033
L358.961 271.081
L359.482 181.605
L359.556 182.279
L359.63 181.381
L359.705 181.553
L360.077 157.318
L360.151 159.72
L360.598 191.377
L360.746 210.117
L361.267 286.892
L361.416 293.165
L361.565 287.074
L361.862 251.762
L362.383 144.203
L362.532 140.306
L362.606 141.205
L362.83 167.755
L363.202 213.47
L363.574 239.511
L364.02 207.845
L364.094 208.934
L364.392 237.8
L364.764 298.781
L364.913 302.738
L365.062 292.379
L365.359 223.829
L365.88 90.8939
L365.954 89.4251
L366.103 102.765
L366.252 134.5
L366.773 255.84
L366.922 271.962
L366.996 271.876
L367.368 251.52
L367.442 248.418
L367.517 251.192
L367.814 283.497
L367.889 284.136
L368.112 279.643
L368.261 267.884
L368.484 214.247
L368.93 104.701
L369.079 91.4642
L369.302 117.479
L369.451 149.922
L369.972 323.491
L370.046 325.902
L370.195 308.492
L370.716 212.787
L370.939 183.705
L371.014 185.623
L371.237 208.666
L371.534 232.581
L371.609 232.167
L371.758 212.796
L372.13 155.711
L372.204 156.005
L372.278 158.433
L372.502 192.803
L372.874 232.78
L373.246 259.504
L373.32 256.246
L373.543 237.627
L373.618 235.389
L373.692 235.528
L373.841 243.718
L373.915 247.528
L373.99 245.757
L374.138 238.327
L374.213 240.331
L374.287 246.224
L374.362 245.04
L374.659 213.616
L375.254 123.268
L375.329 126.413
L375.478 141.939
L376.147 274.088
L376.222 277.984
L376.445 259.936
L376.817 228.279
L376.891 226.533
L376.966 226.983
L377.114 230.361
L377.263 227.138
L377.412 231.985
L377.561 236.97
L377.784 228.184
L378.082 191.524
L378.454 142.794
L378.528 141.965
L378.677 155.409
L378.974 214.472
L379.272 271.833
L379.421 280.17
L380.09 231.078
L380.388 199.17
L380.834 227.631
L380.983 208.13
L381.281 150.017
L381.504 118.844
L381.578 118.576
L381.727 140.004
L382.174 278.088
L382.471 353.991
L382.546 355.926
L382.694 331.224
L383.438 134.008
L383.513 135.269
L383.81 159.228
L384.406 222.956
L384.554 231.899
L384.629 230.758
L384.926 206.082
L385.001 207.845
L385.522 255.564
L385.745 281.112
L385.819 280.153
L385.894 276.542
L386.638 165.388
L386.712 161.491
L386.861 172.888
L387.158 198.099
L387.233 199.127
L387.679 222.274
L387.902 218.913
L388.126 226.853
L388.274 223.172
L388.498 237.532
L388.795 264.515
L388.87 263.02
L389.093 243.286
L389.614 165.829
L389.688 166.433
L389.762 168.084
L389.911 161.535
L389.986 163.237
L390.06 163.634
L390.134 161.388
L390.283 175.661
L391.027 250.639
L391.176 264.947
L391.399 280.352
L391.622 293.597
L391.697 292.258
L391.846 271.133
L392.292 164.265
L392.664 117.808
L392.813 126.871
L393.259 215.103
L393.482 260.056
L393.706 265.655
L393.78 264.065
L394.152 242.414
L394.301 241.964
L394.673 251.702
L394.747 250.95
L395.119 208.458
L395.566 152.437
L395.714 147.788
L395.789 147.901
L396.012 155.59
L396.161 181.286
L396.756 300.915
L396.83 300.95
L396.979 289.424
L397.798 166.114
L397.946 174.114
L398.467 223.639
L398.616 205.521
L398.839 183.428
L398.914 184.137
L399.36 222.481
L399.806 258.985
L399.881 260.376
L399.955 259.486
L400.104 252.868
L400.402 234.387
L400.625 224.14
L400.699 224.2
L400.922 218.861
L401.071 220.9
L401.22 206.031
L401.518 171.514
L401.666 159.807
L401.815 147.581
L401.89 150.199
L402.113 175.773
L402.559 246.621
L402.931 287.627
L403.006 284.836
L403.229 252.384
L403.601 198.609
L403.898 191.006
L403.973 190.634
L404.047 191.222
L404.196 203.352
L404.419 223.527
L405.014 190.686
L405.386 201.209
L405.61 239.977
L405.833 280.248
L405.907 281.561
L406.056 271.997
L406.502 204.864
L406.8 165.397
L406.949 162.01
L407.098 175.134
L407.395 203.015
L407.618 211.543
L407.693 211.465
L408.214 188.051
L408.511 216.079
L409.032 296.733
L409.106 296.362
L409.255 300.319
L409.404 281.302
L409.925 184.353
L410.297 143.01
L410.371 139.373
L410.52 144.643
L410.892 167.634
L411.041 180.067
L411.413 239.009
L411.785 289.173
L411.934 294.608
L412.082 274.036
L412.306 253.611
L412.529 233.523
L413.198 151.892
L413.273 153.162
L413.496 176.663
L414.017 245.507
L414.091 245.472
L414.612 225.54
L414.761 211.94
L414.835 212.26
L415.058 225.842
L415.356 270.088
L415.43 268.135
L416.323 131.148
L416.398 132.953
L416.546 141.343
L416.695 165.932
L417.216 280.663
L417.365 291.014
L417.514 281.717
L418.481 193.027
L418.555 192.267
L418.853 183.195
L418.927 183.748
L419.076 188.785
L419.671 220.58
L419.82 214.653
L419.894 214.576
L419.969 214.964
L420.043 216.278
L420.192 223.864
L420.266 222.913
L420.415 212.528
L420.49 212.83
L420.564 213.426
L420.713 217.168
L420.936 237.973
L421.159 275.064
L421.308 271.185
L421.382 268.938
L421.531 247.658
L421.978 166.624
L422.126 161.846
L422.35 149.361
L422.498 145.913
L422.573 150.812
L422.945 225.514
L423.242 291.567
L423.391 300.708
L423.689 277.95
L424.21 182.115
L424.358 181.286
L424.582 173
L424.73 178.408
L424.805 178.175
L425.102 183.515
L425.623 216.416
L426.07 272.023
L426.218 269.941
L426.442 242.785
L426.665 207.206
L426.888 181.441
L426.962 177.691
L427.037 179.592
L427.632 265.154
L427.706 263.417
L427.855 243.761
L428.302 152.782
L428.45 135.813
L428.525 136.055
L428.599 137.144
L428.748 156.878
L429.418 269.388
L429.641 282.4
L429.715 282.175
L429.79 280.602
L429.938 269.336
L430.906 169.181
L431.129 161.077
L431.203 161.742
L431.426 175.324
L431.65 204.354
L432.022 259.547
L432.17 273.319
L432.245 278.823
L432.319 277.025
L432.542 261.534
L433.361 152.739
L433.435 150.709
L433.658 169.095
L434.179 247.295
L434.254 248.85
L434.328 248.064
L434.477 242.932
L434.551 241.325
L435.221 199.326
L435.295 199.041
L435.37 199.87
L435.965 240.936
L436.114 243.528
L436.262 260.264
L436.337 258.743
L436.634 233.86
L436.932 194.824
L437.23 166.166
L437.527 139.554
L437.75 164.559
L438.643 314.791
L438.718 320.182
L438.792 319.966
L438.941 307.032
L439.238 233.514
L439.759 105.953
L439.982 110.852
L440.28 171.738
L440.726 279.972
L441.024 317.392
L441.173 308.691
L441.322 281.44
L441.768 176.646
L441.917 170.123
L442.214 182.97
L442.289 181.009
L442.363 180.18
L442.512 175.54
L442.661 178.434
L443.033 198.98
L443.256 233.445
L443.479 255.667
L443.554 255.261
L443.628 255.771
L443.702 253.421
L444.223 216.45
L444.298 213.098
L444.372 213.28
L444.446 214.653
L444.521 214.325
L444.595 213.686
L444.818 199.81
L445.265 225.868
L445.562 248.081
L445.637 250.751
L445.711 249.058
L445.934 233.584
L446.381 129.057
L446.455 126.992
L446.53 127.89
L446.678 147.106
L447.422 301.719
L447.571 309.425
L447.646 308.259
L447.794 297.07
L448.241 209.547
L448.687 136.021
L448.762 132.616
L448.836 134.362
L449.059 156.316
L449.506 239.493
L449.878 253.309
L449.878 253.309" style="fill:none;stroke:#808080;stroke-linecap:square;"/>
   </g>
  </g>
 </g>
 <defs>
  <clipPath id="p7ff5b81e1d">
   <rect height="345.6" width="446.4" x="72.0" y="43.2"/>
  </clipPath>
 </defs>
</svg>
