<?xml version="1.0" encoding="utf-8" standalone="no"?>
<!DOCTYPE svg PUBLIC "-//W3C//DTD SVG 1.1//EN"
  "http://www.w3.org/Graphics/SVG/1.1/DTD/svg11.dtd">
<!-- Created with matplotlib (http://matplotlib.org/) -->
<svg height="432pt" version="1.1" viewBox="0 0 576 432" width="576pt" xmlns="http://www.w3.org/2000/svg" xmlns:xlink="http://www.w3.org/1999/xlink">
 <defs>
  <style type="text/css">
*{stroke-linecap:butt;stroke-linejoin:round;}
  </style>
 </defs>
 <g id="figure_1">
  <g id="patch_1">
   <path d="
M0 432
L576 432
L576 0
L0 0
z
" style="fill:#ffffff;"/>
  </g>
  <g id="axes_1">
   <g id="line2d_1">
    <path clip-path="url(#p7ff5b81e1d)" d="
M72 226.067
L72.0744 229.085
L72.1488 229.339
L72.2232 229.638
L72.2976 229.6
L72.5208 218.141
L72.5952 218.364
L72.8184 221.974
L73.3392 262.747
L73.4136 261.672
L73.9344 235.168
L74.0088 236.435
L74.0832 237.672
L74.1576 237.241
L74.5296 228.348
L74.604 227.895
L75.1248 216.144
L75.2736 221.259
L75.6456 241.65
L75.72 239.522
L76.0176 230.775
L76.1664 237.241
L76.3896 246.888
L76.464 247.993
L76.7616 264.006
L76.9104 257.494
L77.208 225.245
L77.3568 215.776
L77.5056 226.873
L77.8032 257.478
L77.952 232.127
L78.2496 177.153
L78.324 177.483
L78.4728 191.592
L79.1424 296.308
L79.2912 282.6
L79.6632 233.371
L79.8864 225.145
L80.2584 211.283
L80.4816 200.201
L80.556 201.291
L80.7792 222.849
L81.0768 253.362
L81.1512 253.638
L81.2256 252.886
L81.3744 247.901
L81.4488 247.947
L81.7464 258.792
L82.1928 243.009
L82.2672 243.531
L82.4904 249.261
L82.6392 239.438
L83.0856 176.07
L83.16 177.86
L83.3832 203.48
L83.904 277.423
L83.9784 279.266
L84.0528 278.552
L84.2016 269.083
L84.7968 226.512
L84.8712 225.337
L85.02 238.324
L85.2432 251.042
L85.392 248.224
L85.9128 220.852
L86.0616 210.6
L86.2848 189.848
L86.3592 190.163
L86.508 199.087
L87.3264 275.073
L87.4008 274.92
L87.5496 265.696
L87.9216 240.882
L88.368 221.897
L88.4424 222.288
L88.5168 222.473
L88.6656 223.924
L88.8888 222.903
L88.9632 222.78
L89.0376 221.636
L89.112 222.081
L89.2608 226.082
L89.3352 225.691
L89.4096 226.059
L89.5584 234.492
L89.856 247.295
L90.1536 257.202
L90.6744 241.25
L90.7488 242.195
L90.8232 242.879
L90.972 239.261
L91.344 217.926
L91.4184 215.707
L91.4928 215.945
L91.716 223.932
L91.8648 219.938
L91.9392 220.092
L92.088 221.275
L92.1624 221.136
L92.3112 232.249
L92.5344 254.153
L92.6088 255.743
L92.6832 254.153
L92.9808 241.803
L93.0552 241.266
L93.1296 242.571
L93.2784 249.66
L93.5016 230.414
L93.7248 213.864
L93.7992 213.303
L94.0968 231.136
L94.2456 236.312
L94.3944 234.576
L94.6176 243.324
L94.8408 249.145
L94.9896 251.219
L95.064 250.213
L95.436 239.484
L95.5104 239.008
L95.6592 233.97
L96.0312 219.439
L96.1056 220.353
L96.4776 233.808
L96.6264 229.177
L96.7752 226.175
L96.8496 226.896
L96.9984 229.869
L97.1472 228.271
L97.5936 253.815
L97.668 253.116
L97.9656 240.521
L98.1888 243.37
L98.3376 244.484
L98.4864 238.992
L98.9328 219.885
L99.3792 225.368
L99.4536 225.153
L99.6768 222.173
L99.7512 223.656
L100.198 252.125
L100.718 230.998
L100.942 240.436
L101.239 254.967
L101.314 254.66
L101.537 248.639
L101.983 228.041
L102.43 204.041
L102.504 203.864
L102.653 213.226
L102.95 238.931
L103.471 245.497
L103.694 253.024
L103.769 253.677
L103.918 248.6
L104.141 241.519
L104.215 241.558
L104.662 229.961
L104.959 222.273
L105.108 227.088
L105.182 226.512
L105.257 225.499
L105.926 233.348
L106.075 239.323
L106.373 257.263
L106.522 255.497
L106.596 253.231
L106.968 228.763
L107.042 228.809
L107.191 220.115
L107.266 220.868
L107.34 222.864
L107.414 222.734
L107.489 221.144
L107.563 221.536
L107.638 222.703
L107.712 221.736
L107.786 219.301
L107.861 219.923
L108.307 240.682
L108.605 250.966
L108.754 250.39
L108.902 253.254
L109.051 246.964
L109.274 236.88
L109.423 234.354
L109.646 238.647
L110.093 229.039
L110.242 229.73
L110.539 234.077
L110.688 233.755
L110.837 225.437
L110.911 222.342
L110.986 222.519
L111.358 233.785
L111.506 230.959
L111.878 238.048
L112.027 246.603
L112.474 235.452
L112.548 236.566
L112.622 237.986
L112.771 231.251
L112.846 232.004
L113.218 246.765
L113.292 246.918
L113.441 239.522
L113.738 224.654
L113.813 223.233
L113.962 225.944
L114.036 225.407
L114.259 217.688
L114.482 225
L114.706 250.021
L114.929 270.427
L115.078 268.683
L115.301 256.073
L115.673 229.331
L115.97 219.915
L116.194 211.444
L116.268 212.212
L116.342 213.395
L116.417 213.119
L116.566 211.959
L116.938 227.004
L117.161 251.204
L117.607 243.923
L117.756 250.006
L117.83 249.207
L118.128 238.201
L118.202 236.811
L118.277 237.134
L118.649 246.519
L118.798 242.064
L119.318 223.402
L119.393 223.264
L119.542 221.613
L119.69 230.913
L119.839 241.826
L119.914 241.819
L120.137 236.543
L120.36 223.287
L120.434 224.984
L120.732 243.324
L120.955 235.728
L121.104 227.304
L121.178 227.78
L121.476 243.693
L121.699 233.232
L121.922 215.607
L121.997 216.997
L122.22 238.447
L122.369 245.951
L122.443 247.387
L122.592 242.556
L122.666 243.685
L122.89 253.915
L122.964 253.546
L123.485 220.599
L123.559 220.729
L123.634 222.242
L123.857 232.933
L124.229 224.692
L124.378 237.18
L124.526 249.606
L124.601 249.422
L125.047 227.818
L125.345 238.708
L125.419 237.902
L125.568 239.2
L125.642 238.847
L125.866 236.166
L126.014 238.539
L126.089 238.401
L126.238 236.266
L126.461 230.552
L126.535 229.024
L126.758 231.197
L126.982 226.244
L127.205 229.032
L127.428 235.828
L127.577 241.45
L127.726 239.891
L127.949 245.382
L128.544 225.752
L128.618 225.936
L128.767 229.316
L128.916 233.34
L129.065 230.583
L129.362 234.461
L129.586 250.282
L129.734 244.591
L129.883 247.986
L130.106 240.206
L130.255 245.367
L130.702 222.143
L130.999 236.412
L131.074 234.745
L131.446 217.089
L131.52 219.677
L131.818 244.607
L131.892 243.378
L132.19 236.604
L132.264 238.04
L132.413 242.448
L132.562 239.868
L132.636 240.29
L132.71 239.622
L132.934 234.062
L133.157 233.709
L133.231 233.624
L133.454 227.227
L133.678 232.718
L133.752 232.219
L134.124 226.704
L134.347 234.3
L134.794 261.395
L134.868 260.796
L135.24 230.053
L135.314 230.391
L135.463 232.741
L135.538 232.779
L135.612 231.789
L135.761 222.48
L135.984 211.122
L136.058 210.999
L136.133 212.036
L136.654 237.848
L136.802 244.553
L137.026 237.149
L137.174 252.417
L137.398 269.083
L137.621 260.281
L137.844 249.683
L137.993 247.348
L138.067 247.924
L138.142 247.402
L138.29 235.014
L138.514 212.635
L138.811 222.258
L138.886 221.398
L139.406 187.375
L139.481 189.357
L140.522 294.68
L140.597 295.026
L140.746 286.294
L141.118 244.76
L141.192 243.954
L141.341 229.968
L141.564 214.954
L141.638 214.278
L141.862 210.285
L142.159 212.719
L142.531 227.48
L142.754 243.915
L142.978 231.65
L143.126 234.884
L143.201 234.799
L143.424 241.058
L143.498 239.906
L143.573 239.868
L143.722 244.138
L143.945 235.429
L144.019 236.727
L144.094 238.209
L144.168 237.648
L144.391 220.599
L144.466 220.614
L144.763 235.959
L144.986 246.196
L145.135 242.84
L145.433 244.415
L145.507 244.86
L145.73 254.061
L145.805 253.239
L145.954 250.136
L146.549 211.844
L146.698 209.186
L146.772 209.747
L146.921 217.112
L147.442 252.095
L147.516 252.233
L147.814 236.55
L147.962 230.813
L148.26 245.858
L148.409 242.141
L148.558 247.018
L148.855 223.94
L148.93 223.625
L149.004 224.431
L149.227 239.369
L149.45 224.961
L149.525 225.138
L149.674 227.342
L149.748 227.058
L150.046 220.545
L150.194 222.373
L150.343 228.947
L150.715 266.387
L150.79 265.304
L151.236 241.811
L151.31 241.65
L151.534 245.82
L151.608 245.244
L152.054 223.302
L152.203 231.097
L152.352 238.962
L152.501 231.466
L152.873 208.925
L153.319 234.024
L153.468 239.83
L153.542 239.353
L153.766 243.155
L153.84 241.619
L153.989 246.711
L154.212 259.467
L154.361 254.084
L154.956 224.784
L155.03 224.132
L155.179 231.935
L155.254 231.213
L155.328 229.224
L155.402 229.615
L155.626 233.133
L155.7 232.057
L155.923 222.373
L156.072 229.162
L156.146 228.893
L156.221 228.494
L156.444 239.123
L156.742 230.445
L156.816 229.577
L156.89 229.654
L157.188 238.916
L157.411 247.494
L157.634 249.222
L157.709 249.706
L157.932 240.091
L158.006 240.605
L158.081 242.418
L158.155 240.936
L158.304 234.868
L158.378 235.544
L158.453 234.077
L158.676 222.396
L158.899 228.816
L158.974 229.8
L159.197 239.292
L159.643 222.795
L159.718 223.725
L160.164 244.299
L160.238 243.577
L160.313 240.644
L160.387 240.905
L160.536 250.182
L160.61 248.278
L160.759 242.871
L160.834 243.009
L161.057 231.996
L161.131 233.785
L161.28 237.403
L161.354 237.119
L161.503 229.231
L161.801 212.904
L161.875 212.089
L162.173 225.168
L162.545 248.124
L162.768 250.497
L162.917 255.005
L162.991 252.363
L163.214 240.628
L163.363 229.354
L163.512 218.925
L163.884 238.547
L164.107 247.97
L164.33 236.374
L164.479 230.859
L164.554 230.69
L164.628 233.202
L164.702 233.179
L164.777 233.179
L165 244.898
L165.372 233.371
L165.744 224.784
L165.967 213.288
L166.042 213.963
L166.19 223.725
L166.414 237.633
L166.488 237.019
L166.637 238.025
L166.86 235.598
L167.306 252.686
L167.381 251.211
L167.678 235.36
L167.827 233.363
L167.902 235.321
L168.125 244.23
L168.422 235.16
L168.497 235.045
L168.646 230.967
L168.869 225.145
L169.166 221.835
L169.241 221.904
L169.315 220.691
L169.464 231.274
L169.687 244.86
L169.762 245.175
L169.836 244.868
L169.91 245.221
L169.985 244.745
L170.134 242.28
L170.208 241.842
L170.357 232.027
L170.431 232.472
L170.58 236.097
L171.026 216.083
L171.175 218.594
L171.696 249.245
L171.77 249.222
L171.845 248.086
L171.919 248.946
L172.217 259.045
L172.291 260.658
L172.366 258.392
L172.812 216.498
L172.886 216.828
L173.11 223.848
L173.258 224.162
L173.482 228.333
L173.63 225.76
L173.779 228.217
L173.928 225.222
L174.151 231.09
L174.374 240.152
L174.449 240.037
L174.523 240.144
L174.821 242.879
L174.895 243.631
L174.97 243.255
L175.267 236.45
L175.342 238.363
L175.639 247.156
L175.714 247.801
L175.862 239.561
L176.16 219.854
L176.234 220.176
L176.458 224.055
L176.606 236.581
L176.83 249.207
L176.904 249.552
L177.127 232.296
L177.202 233.716
L177.276 236.397
L177.35 235.076
L177.499 229.707
L177.574 230.475
L177.648 230.429
L177.797 221.858
L177.871 222.127
L178.169 237.625
L178.392 256.964
L178.541 253.331
L178.615 253.262
L178.913 230.568
L178.987 231.604
L179.062 230.982
L179.136 228.34
L179.21 229.439
L179.285 231.405
L179.359 230.568
L179.582 224.654
L179.806 226.305
L179.88 226.067
L180.029 231.489
L180.252 226.712
L180.326 224.9
L180.55 227.979
L180.698 237.364
L180.847 244.468
L180.922 244.921
L181.07 252.394
L181.145 250.666
L181.368 242.556
L181.591 238.608
L181.666 239.653
L181.889 250.082
L181.963 249.637
L182.633 227.012
L182.707 227.104
L182.782 226.658
L183.079 220.1
L183.228 214.37
L183.302 215.822
L183.674 239.691
L183.972 258.661
L184.195 264.329
L184.344 256.319
L184.865 216.728
L185.014 211.398
L185.162 211.705
L185.386 207.312
L185.534 210.822
L185.906 240.628
L186.13 251.818
L186.278 253.73
L186.576 242.487
L186.65 243.531
L186.948 253.907
L187.246 266.61
L187.394 257.801
L187.915 210.96
L188.064 202.735
L188.138 202.927
L188.287 205.753
L188.659 217.734
L189.031 236.604
L189.552 281.401
L189.701 274.651
L189.924 251.88
L190.445 193.972
L190.594 188.059
L190.742 193.558
L191.114 227.472
L191.635 278.406
L191.71 277.761
L192.007 253.684
L192.082 254.276
L192.156 254.222
L192.751 221.167
L192.974 211.652
L193.049 215.653
L193.123 215.607
L193.272 209.801
L193.495 215.115
L194.239 258.308
L194.462 269.375
L194.537 269.167
L194.686 263.845
L195.43 196.584
L195.653 205.753
L196.248 255.988
L196.62 261.871
L196.769 254.575
L197.141 224.147
L197.215 223.993
L197.364 225.522
L197.885 250.766
L197.959 250.505
L198.331 228.179
L199.075 207.52
L199.15 209.017
L199.373 223.656
L199.745 252.148
L200.042 267.892
L200.117 267.478
L200.414 258.853
L200.563 246.926
L200.861 221.428
L201.01 216.152
L201.084 216.659
L201.456 226.39
L201.902 250.658
L201.977 250.182
L202.423 225.307
L202.572 224.385
L202.795 231.182
L202.87 230.875
L203.093 227.672
L203.167 228.271
L203.316 229.876
L203.762 241.711
L203.911 243.731
L203.986 243.155
L204.358 235.03
L204.432 238.294
L204.506 237.771
L204.655 232.618
L204.73 232.856
L205.176 246.096
L205.25 246.081
L205.92 221.175
L205.994 221.766
L206.143 226.297
L206.218 224.923
L206.292 221.459
L206.366 221.497
L206.59 225.184
L206.887 242.694
L207.185 254.783
L207.408 249.084
L207.482 249.552
L207.557 251.856
L207.631 249.89
L207.854 238.178
L207.929 237.165
L208.301 221.175
L208.375 221.359
L208.524 225.483
L208.673 222.327
L208.822 228.256
L208.97 233.524
L209.119 230.529
L209.342 234.269
L209.491 237.902
L209.64 236.066
L209.938 243.593
L210.086 243.462
L210.161 244.361
L210.235 243.631
L210.384 239.906
L210.607 250.751
L211.128 226.128
L211.5 201.522
L211.574 201.107
L211.723 211.728
L212.095 251.05
L212.17 252.594
L212.318 249.176
L212.393 249.89
L212.467 250.259
L212.542 249.906
L212.69 246.565
L212.765 247.164
L212.839 247.886
L212.914 247.156
L213.062 242.518
L213.137 242.579
L213.286 234.515
L213.509 224.178
L213.583 224.331
L213.955 231.243
L214.03 229.193
L214.104 229.423
L214.55 243.577
L214.625 244.614
L214.699 244.284
L214.922 238.255
L214.997 238.847
L215.071 239.599
L215.22 234.116
L215.294 231.22
L215.369 231.643
L215.518 225.768
L215.666 223.11
L215.815 222.665
L215.89 223.778
L216.187 233.171
L216.559 223.963
L216.634 224.324
L217.303 258.438
L217.526 255.289
L217.675 258.062
L217.824 251.787
L218.568 208.464
L218.642 209.801
L219.61 255.666
L219.684 255.297
L219.758 254.153
L220.205 228.494
L220.279 228.287
L220.354 228.363
L220.428 228.64
L220.502 228.502
L220.651 227.396
L220.8 224.631
L220.874 225.046
L221.023 229.853
L221.395 238.701
L221.544 242.157
L221.618 241.773
L221.842 231.305
L221.916 231.32
L222.065 237.441
L222.511 263.039
L222.586 262.37
L222.734 255.32
L223.404 212.166
L223.627 210.047
L223.702 210.569
L224.148 223.563
L224.52 239.492
L224.594 239.753
L224.818 250.006
L225.115 258.254
L225.19 259.36
L225.338 254.299
L225.413 254.944
L225.487 255.858
L225.636 249.107
L226.008 227.703
L226.231 223.679
L226.454 221.275
L226.529 219.839
L226.603 220.069
L226.752 221.774
L226.826 220.699
L226.901 220.791
L227.05 230.575
L227.273 241.005
L227.347 242.264
L227.422 240.744
L227.645 225.153
L227.719 226.574
L228.017 237.679
L228.091 237.564
L228.389 245.282
L228.463 246.611
L228.538 246.027
L228.612 245.636
L228.761 247.133
L228.835 247.072
L228.91 246.173
L229.058 250.889
L229.207 244.729
L230.026 199.479
L230.1 202.175
L230.695 263.407
L230.844 265.65
L231.067 263.215
L231.216 265.857
L231.29 264.912
L231.439 252.763
L232.034 181.531
L232.183 192.912
L232.704 260.596
L233.002 283.03
L233.15 271.702
L233.746 204.171
L233.969 171.731
L234.043 177.706
L234.192 218.84
L234.564 325.769
L234.638 337.596
L234.713 328.326
L235.085 95.3688
L235.159 103.648
L235.308 163.936
L235.68 316.2
L235.754 326.529
L235.829 325.523
L235.978 298.551
L236.424 192.989
L236.573 186.346
L236.722 194.74
L237.317 266.664
L237.391 267.232
L237.912 251.549
L238.061 232.895
L238.358 187.844
L238.433 188.235
L238.582 201.89
L238.954 249.929
L239.102 253.339
L239.177 251.764
L239.772 220.752
L239.846 219.777
L239.921 221.113
L240.144 240.682
L240.442 266.579
L240.516 266.479
L240.665 252.502
L241.037 218.433
L241.186 215.407
L241.26 216.805
L241.93 244.253
L242.078 244.991
L242.227 246.227
L242.302 245.828
L242.45 242.425
L242.748 226.774
L243.046 213.549
L243.12 214.539
L244.013 265.197
L244.087 261.195
L244.31 242.61
L244.682 205.769
L244.757 205.615
L244.906 206.921
L245.129 214.071
L245.352 228.079
L245.947 267.478
L246.022 269.428
L246.319 263.461
L246.394 263.899
L246.468 265.273
L246.691 253.001
L246.914 213.925
L247.138 183.405
L247.212 181.654
L247.286 182.176
L247.435 186.024
L247.882 230.176
L248.179 256.749
L248.328 261.71
L248.477 252.302
L248.7 238.071
L248.774 238.447
L248.923 241.657
L249.295 265.25
L249.37 266.779
L249.742 250.367
L250.114 223.955
L250.188 223.126
L250.486 210.907
L250.783 193.811
L250.932 204.21
L251.602 260.043
L251.75 264.252
L251.899 258.991
L252.42 223.341
L252.494 221.743
L252.718 229.761
L253.238 261.318
L253.313 262.516
L253.462 255.942
L253.685 228.648
L253.908 208.741
L254.057 205.254
L254.354 213.149
L254.652 235.168
L255.098 253.308
L255.173 253.439
L255.322 247.149
L255.694 214.578
L255.768 217.896
L256.14 229.638
L256.214 229.147
L256.289 230.214
L256.661 240.29
L256.735 240.498
L257.033 231.266
L257.107 233.993
L257.33 258.039
L257.554 278.46
L257.628 279.627
L257.702 279.151
L257.851 269.52
L258.149 234.745
L258.446 173.559
L258.521 172.031
L258.595 176.086
L258.967 215.714
L259.562 261.894
L259.711 267.639
L259.786 267.071
L260.306 218.164
L260.381 219.124
L260.604 223.295
L260.753 226.013
L260.827 223.901
L260.902 226.236
L261.125 243.339
L261.348 250.674
L261.422 250.574
L261.571 245.928
L261.869 231.789
L262.166 246.55
L262.315 257.325
L262.762 237.771
L263.208 202.213
L263.282 202.32
L264.473 257.025
L264.547 258.192
L264.622 258
L264.696 256.741
L264.845 246.212
L265.068 225
L265.142 225.099
L265.217 225.468
L265.366 235.498
L265.589 248.877
L265.663 248.9
L265.738 247.11
L265.812 248.116
L265.886 246.273
L266.035 235.475
L266.11 236.596
L266.258 239.922
L266.482 222.688
L266.779 180.202
L266.928 189.456
L267.226 238.87
L267.449 265.197
L267.523 267.954
L267.598 267.877
L267.97 253.738
L268.044 254.268
L268.118 253.915
L268.565 232.549
L268.862 220.223
L269.011 219.554
L269.16 226.605
L269.383 241.896
L269.681 239.4
L269.83 236.059
L269.904 236.619
L269.978 235.92
L270.276 223.087
L270.574 217.734
L270.722 221.413
L270.871 229.838
L271.243 254.337
L271.466 258.507
L271.541 258.062
L271.838 248.408
L272.434 206.184
L272.582 215.599
L273.029 248.477
L273.103 249.115
L273.55 259.007
L273.922 239.883
L274.442 199.586
L274.517 200.04
L274.666 208.372
L275.335 253.431
L275.41 254.998
L275.484 254.352
L275.633 250.075
L276.005 238.071
L276.079 236.95
L276.228 240.544
L276.302 243.209
L276.377 242.564
L276.898 219.662
L276.972 219.908
L277.344 246.834
L277.493 256.549
L277.642 254.26
L277.716 255.005
L277.79 253.001
L278.237 224.285
L278.386 218.679
L278.534 222.911
L278.683 229.062
L278.981 248.493
L279.13 241.972
L279.576 217.965
L279.65 217.627
L279.874 222.335
L279.948 221.313
L280.022 220.499
L280.097 222.757
L280.618 266.003
L280.766 258.423
L281.213 218.556
L281.287 219.447
L281.659 224.032
L281.808 222.457
L281.882 222.911
L282.031 228.148
L282.478 255.236
L282.626 250.704
L282.701 252.079
L282.85 257.394
L283.073 245.382
L283.594 214.716
L283.668 214.355
L283.817 219.693
L284.263 249.614
L284.71 237.672
L284.784 238.032
L284.858 238.017
L284.933 237.733
L285.156 239.676
L285.23 238.693
L285.454 228.686
L285.602 231.19
L285.751 228.601
L285.974 220.368
L286.272 190.839
L286.346 191.737
L286.495 204.302
L287.09 281.916
L287.165 280.15
L287.686 235.959
L287.76 236.527
L288.058 245.728
L288.132 244.737
L288.281 246.972
L288.355 245.497
L288.727 219.892
L289.025 197.336
L289.099 198.358
L289.248 206.744
L289.769 256.848
L290.29 232.603
L290.81 199.494
L290.885 201.729
L291.852 272.4
L291.926 272.831
L292.001 274.128
L292.075 273.245
L292.447 250.367
L292.819 202.896
L292.894 200.047
L292.968 200.592
L293.117 207.566
L293.712 245.436
L293.861 237.856
L294.158 220.776
L294.382 226.843
L294.456 225.645
L294.53 226.367
L294.679 228.893
L294.754 227.327
L294.828 228.102
L295.274 257.14
L295.498 266.771
L295.646 261.019
L296.093 234.669
L296.539 220.883
L296.688 214.524
L296.986 192.398
L297.06 189.357
L297.134 189.779
L297.283 201.775
L298.027 282.139
L298.176 278.921
L298.325 280.68
L298.474 279.881
L298.622 272.754
L298.846 245.352
L299.366 151.878
L299.441 151.886
L299.59 167.876
L300.185 287.238
L300.259 286.747
L300.482 280.257
L300.706 262.793
L300.929 233.056
L301.226 185.64
L301.375 179.219
L301.598 198.48
L302.268 304.226
L302.417 291.193
L303.161 192.774
L303.235 189.979
L303.458 200.185
L304.128 249.936
L304.202 251.265
L304.277 250.712
L304.574 228.609
L304.798 217.765
L305.318 242.679
L305.467 251.142
L305.765 245.528
L305.988 242.986
L306.211 237.771
L306.434 230.637
L306.658 228.517
L306.732 228.755
L306.881 223.694
L306.955 224.116
L307.476 240.943
L307.55 239.177
L307.625 239.561
L307.774 241.773
L308.294 232.134
L308.443 230.383
L308.592 220.791
L308.741 213.134
L308.89 218.433
L309.559 268.107
L309.634 267.447
L309.931 248.631
L310.303 224.016
L310.452 222.235
L310.675 227.995
L310.824 222.972
L310.898 223.202
L310.973 224.086
L311.122 226.758
L311.642 211.206
L311.717 212.258
L311.866 220.077
L312.089 230.468
L312.982 273.023
L313.056 272.162
L313.354 253.408
L313.651 228.471
L314.172 204.901
L314.321 197.259
L314.544 203.588
L315.139 258.039
L315.66 235.867
L315.734 235.728
L315.809 235.828
L315.883 237.787
L316.181 252.21
L316.404 258.815
L316.553 250.029
L316.776 237.756
L316.85 238.201
L316.925 237.149
L317.148 243.263
L317.222 242.71
L317.52 214.547
L318.115 154.589
L318.19 158.568
L318.338 188.788
L318.859 330.937
L319.008 333.887
L319.082 333.38
L319.306 282.377
L319.529 238.002
L319.678 226.474
L319.901 187.329
L320.198 121.335
L320.347 148.253
L320.794 263.638
L321.166 309.295
L321.314 318.058
L321.463 304.372
L321.686 262.44
L322.207 149.121
L322.282 150.227
L322.43 180.248
L322.877 307.775
L323.026 293.259
L323.621 157.684
L323.695 159.259
L323.844 177.883
L324.588 312.336
L324.662 311.952
L324.811 294.972
L325.183 234.492
L325.258 232.418
L325.332 233.332
L325.481 241.181
L325.704 255.835
L325.853 246.818
L326.299 166.685
L326.374 167.622
L326.969 205.093
L327.49 298.052
L327.564 297.576
L327.713 286.555
L328.085 255.266
L328.234 243.316
L328.457 219.531
L328.531 220.676
L328.903 253.078
L329.052 241.719
L329.498 182.959
L329.573 184.127
L329.945 241.166
L330.019 239.246
L330.242 233.279
L330.317 234.507
L330.763 253.369
L330.912 250.582
L331.284 263.269
L331.358 262.025
L331.507 257.601
L331.582 263.315
L331.73 285.848
L331.879 243.677
L332.177 176.608
L332.4 152.454
L333.144 257.524
L333.367 262.524
L333.516 258.031
L333.814 238.67
L333.962 246.112
L334.186 255.504
L334.409 252.671
L334.781 238.885
L335.227 207.128
L335.376 205.776
L335.525 210.984
L336.046 239.645
L336.343 268.269
L336.418 267.831
L336.492 266.541
L336.641 255.912
L336.864 241.634
L336.938 242.863
L337.087 252.947
L337.162 249.268
L337.31 226.751
L337.682 145.565
L337.831 165.794
L338.426 294.312
L338.724 322.505
L338.798 327.128
L338.873 323.204
L339.17 255.144
L339.617 168.536
L339.691 167.469
L339.989 181.608
L340.658 254.399
L340.807 252.878
L340.882 253.554
L340.956 253.646
L341.179 245.021
L341.254 246.864
L341.328 250.873
L341.402 250.774
L341.551 246.957
L341.626 247.394
L341.774 250.182
L342.072 266.817
L342.146 265.051
L342.37 236.42
L342.742 168.237
L342.816 169.588
L342.965 192.144
L343.411 273.207
L343.56 282.292
L343.634 282.039
L343.858 266.733
L344.304 230.806
L344.378 228.448
L344.602 218.871
L344.676 217.266
L344.75 217.865
L344.899 224.101
L345.048 212.85
L345.271 194.149
L345.346 196.123
L345.494 217.527
L345.643 238.931
L345.718 236.205
L346.015 214.893
L346.164 230.122
L346.685 302.606
L346.834 293.651
L347.95 163.928
L348.396 186.507
L348.619 247.103
L349.066 363.816
L349.14 359.745
L349.363 309.234
L349.958 141.779
L350.182 122.487
L350.256 123.378
L350.405 113.256
L350.479 119.407
L350.628 194.356
L350.926 303.781
L351.149 344.078
L351.223 346.774
L351.298 343.379
L351.521 304.772
L352.116 162.807
L352.19 167.161
L352.562 218.702
L352.711 206.483
L352.934 193.22
L353.083 198.857
L353.232 215.983
L353.381 243.27
L353.678 362.088
L353.753 347.027
L354.125 247.533
L354.199 246.173
L354.348 248.861
L354.422 244.153
L354.869 185.701
L355.166 150.319
L355.315 168.006
L355.91 286.777
L356.208 299.234
L356.506 285.364
L356.729 243.915
L357.324 120.536
L357.398 124.153
L357.696 200.04
L358.142 346.912
L358.217 344.155
L358.44 287.937
L358.663 241.22
L358.812 251.933
L359.11 273.422
L359.407 244.898
L359.928 188.888
L360.523 146.733
L360.598 148.484
L360.746 168.452
L361.044 198.48
L361.193 219.078
L361.714 365.382
L361.862 371.411
L362.011 351.912
L362.383 264.897
L362.681 168.851
L362.904 149.183
L363.35 195.286
L363.425 193.88
L363.574 184.833
L363.722 175.087
L363.871 200.7
L364.318 322.843
L364.392 320.178
L364.615 271.279
L364.913 206.107
L365.062 196.069
L365.136 198.381
L365.21 205.392
L365.582 288.621
L365.657 283.69
L366.103 175.824
L366.178 176.961
L366.326 193.596
L366.624 251.849
L366.847 300.548
L366.996 288.352
L367.294 223.195
L367.517 181.462
L367.591 181.408
L367.814 253.224
L368.038 316.176
L368.186 262.685
L368.335 216.897
L368.484 215.499
L368.782 202.566
L368.856 203.856
L368.93 202.843
L369.154 176.838
L369.228 181.485
L369.451 251.058
L369.526 248.953
L369.674 231.297
L369.749 235.26
L369.972 265.258
L370.195 253.177
L370.27 259.037
L370.567 313.097
L370.716 277.147
L371.014 165.748
L371.162 159.881
L371.311 194.134
L371.534 242.817
L371.683 248.109
L371.906 208.403
L372.055 189.264
L372.502 255.097
L372.725 333.034
L372.799 326.061
L373.022 244.814
L373.171 257.34
L373.246 256.795
L373.618 169.412
L373.692 173.382
L373.841 206.299
L374.213 303.789
L374.436 248.155
L374.659 211.375
L374.808 203.288
L374.957 213.779
L375.254 262.278
L375.329 260.105
L375.775 178.758
L375.998 188.412
L376.073 193.151
L376.742 286.094
L376.891 289.965
L376.966 288.659
L377.04 290.364
L377.263 323.265
L377.412 288.813
L377.858 139.506
L378.007 136.511
L378.082 139.506
L378.23 165.226
L378.826 283.375
L379.049 302.145
L379.123 301.392
L379.272 286.501
L379.644 242.203
L379.718 238.493
L379.793 239.062
L379.942 243.17
L380.09 233.463
L380.462 187.199
L380.537 188.558
L380.686 204.586
L380.983 234.377
L381.281 272.869
L381.355 269.421
L381.578 249.837
L381.876 242.203
L382.174 261.011
L382.248 254.813
L382.694 147.309
L382.769 150.127
L383.81 321.821
L383.959 302.621
L384.331 201.898
L384.703 257.371
L384.778 253.608
L385.075 231.796
L385.224 235.767
L385.298 233.555
L385.745 166.009
L385.819 166.493
L386.266 230.813
L386.489 258.484
L386.638 262.286
L386.712 262.079
L386.786 261.564
L386.935 262.977
L387.01 262.647
L387.084 262.455
L387.307 272.001
L387.382 271.241
L388.2 201.645
L388.274 205.684
L388.572 236.412
L388.721 244.438
L388.795 243.247
L389.242 204.87
L389.316 206.283
L389.539 234.868
L389.837 290.748
L389.986 268.008
L390.283 224.447
L390.506 216.552
L390.655 219.731
L390.878 215.077
L391.027 226.589
L391.325 263.046
L391.399 263.023
L391.548 258.822
L391.697 237.119
L392.069 165.656
L392.143 166.493
L392.292 204.279
L392.59 277.193
L392.664 281.117
L392.813 262.785
L393.259 193.872
L393.334 193.727
L393.557 261.764
L393.854 326.399
L393.929 328.226
L394.003 324.394
L394.226 278.13
L394.822 127.978
L394.896 132.409
L395.64 262.071
L395.714 260.619
L395.938 253.776
L396.086 270.565
L396.235 293.052
L396.458 232.802
L396.533 239.522
L396.607 246.711
L396.756 204.632
L396.979 158.952
L397.128 183.005
L397.574 268.929
L397.798 284.212
L398.021 272.362
L398.095 271.272
L398.17 268.453
L398.393 237.203
L398.616 198.742
L398.69 199.855
L398.914 212.857
L398.988 213.456
L399.062 213.272
L399.137 211.859
L399.36 184.119
L399.509 247.379
L399.806 351.912
L399.881 356.796
L399.955 351.597
L400.178 263.906
L400.625 78.2654
L400.848 159.074
L401.294 293.252
L401.369 296.255
L401.518 288.897
L401.815 262.025
L401.89 265.389
L402.038 276.279
L402.113 273.814
L402.262 253.515
L402.559 215.592
L402.782 191.853
L402.931 180.202
L403.006 182.844
L403.08 189.441
L403.378 243.263
L403.601 194.095
L403.675 201.552
L403.973 362.671
L404.047 352.372
L404.94 129.66
L405.014 120.751
L405.089 125.39
L405.684 231.919
L405.907 273.875
L406.205 337.696
L406.279 341.282
L406.354 337.005
L406.577 284.635
L407.023 175.709
L407.321 158.16
L407.47 182.875
L407.767 237.387
L407.99 256.365
L408.065 254.637
L408.288 245.689
L408.362 245.198
L408.511 239.231
L408.734 227.764
L408.883 232.472
L409.106 249.783
L409.404 283.775
L409.478 285.449
L409.553 281.977
L409.702 251.649
L409.999 179.81
L410.074 179.595
L410.148 183.666
L410.371 226.766
L410.669 276.993
L410.743 278.56
L410.892 261.134
L411.264 177.43
L411.338 178.904
L412.082 261.072
L412.231 249.929
L412.454 226.812
L412.603 234.047
L413.05 285.741
L413.124 285.096
L413.273 272.001
L413.422 239.392
L413.719 166.309
L413.794 166.509
L414.389 237.61
L414.761 320.539
L414.835 317.236
L415.058 260.612
L415.43 155.664
L415.802 196.906
L416.174 295.947
L416.249 298.735
L416.398 271.786
L416.621 222.15
L416.77 236.112
L416.844 235.383
L417.067 203.342
L417.142 211.544
L417.439 333.648
L417.514 331.475
L417.662 265.596
L417.96 122.909
L418.034 122.548
L418.258 137.532
L418.406 187.636
L418.778 359.016
L418.853 356.85
L419.002 308.604
L419.299 205.4
L419.374 203.565
L419.671 226.62
L419.746 224.715
L419.894 220.76
L420.118 225.299
L420.192 222.135
L420.266 224.001
L420.49 265.542
L420.638 282.776
L420.713 271.978
L421.01 165.887
L421.085 169.896
L421.308 223.617
L421.606 277.561
L421.68 276.909
L421.829 271.648
L422.052 291.547
L422.126 290.978
L422.275 252.916
L422.573 125.559
L422.722 145.22
L423.242 255.09
L423.689 307.429
L423.763 307.053
L423.912 292.238
L424.284 235.874
L424.507 202.344
L424.73 159.251
L424.805 160.211
L425.102 176.892
L425.251 188.197
L425.623 255.074
L425.698 252.287
L425.846 238.194
L425.921 239.96
L426.144 289.166
L426.367 339.232
L426.442 340.084
L426.59 314.372
L427.111 179.449
L427.186 178.735
L428.227 255.051
L428.376 250.674
L428.525 244.768
L428.748 247.871
L428.822 246.427
L428.897 237.718
L429.269 81.2529
L429.343 83.3035
L429.492 121.627
L430.162 358.117
L430.236 364.668
L430.31 363.839
L430.459 354.192
L430.98 302.276
L431.054 295.686
L431.278 221.858
L431.65 82.4433
L431.724 82.0363
L431.873 111.95
L432.245 241.565
L432.319 241.481
L432.542 200.761
L432.617 202.605
L432.989 272.424
L433.063 272.07
L433.212 268.376
L433.286 269.352
L433.435 276.371
L433.658 299.557
L433.807 316.599
L433.882 311.438
L434.328 191.415
L434.402 196.1
L434.551 219.232
L434.923 343.471
L435.072 265.512
L435.37 63.2049
L435.444 49.5115
L435.518 54.8798
L435.667 113.171
L436.188 350.544
L436.337 363.216
L436.486 332.65
L436.858 227.787
L436.932 224.846
L437.081 235.644
L437.155 239.33
L437.304 228.993
L437.75 169.473
L437.825 166.578
L437.899 167.714
L438.271 211.567
L438.941 305.985
L439.015 301.085
L439.238 267.539
L439.61 216.022
L439.834 233.217
L439.982 226.167
L440.131 214.969
L440.206 217.934
L440.429 261.587
L440.652 286.224
L440.726 285.887
L440.875 269.805
L441.098 222.02
L441.47 148.86
L441.545 146.725
L441.619 149.751
L441.917 193.542
L442.438 290.379
L442.512 289.043
L442.884 255.312
L442.958 255.051
L443.107 252.632
L443.182 252.724
L443.33 255.497
L443.405 254.798
L443.479 253.4
L443.926 231.059
L444 231.266
L444.372 241.058
L444.595 247.056
L444.67 246.527
L444.818 236.719
L445.414 166.57
L445.488 169.373
L445.711 188.957
L445.934 224.508
L446.381 299.088
L446.604 309.672
L446.678 308.297
L446.902 296.093
L447.125 264.521
L447.646 180.517
L447.794 182.744
L448.241 214.501
L448.538 231.881
L448.687 230.729
L449.134 237.664
L449.208 236.404
L449.282 235.176
L449.357 235.529
L449.431 236.005
L449.654 243.57
L449.803 247.08
L449.878 247.256
L449.878 247.256" style="fill:none;stroke:#808080;stroke-linecap:square;"/>
   </g>
  </g>
 </g>
 <defs>
  <clipPath id="p7ff5b81e1d">
   <rect height="345.6" width="446.4" x="72.0" y="43.2"/>
  </clipPath>
 </defs>
</svg>
