<?xml version="1.0" encoding="utf-8" standalone="no"?>
<!DOCTYPE svg PUBLIC "-//W3C//DTD SVG 1.1//EN"
  "http://www.w3.org/Graphics/SVG/1.1/DTD/svg11.dtd">
<!-- Created with matplotlib (http://matplotlib.org/) -->
<svg height="432pt" version="1.1" viewBox="0 0 576 432" width="576pt" xmlns="http://www.w3.org/2000/svg" xmlns:xlink="http://www.w3.org/1999/xlink">
 <defs>
  <style type="text/css">
*{stroke-linecap:butt;stroke-linejoin:round;}
  </style>
 </defs>
 <g id="figure_1">
  <g id="patch_1">
   <path d="
M0 432
L576 432
L576 0
L0 0
z
" style="fill:#ffffff;"/>
  </g>
  <g id="axes_1">
   <g id="line2d_1">
    <path clip-path="url(#p7ff5b81e1d)" d="
M72 219.585
L72.2232 240.056
L72.2976 238.939
L72.5952 210.611
L72.8184 194.414
L72.9672 191.073
L73.116 199.252
L73.2648 207.27
L73.4136 205.289
L73.6368 207.305
L73.9344 219.435
L74.3064 236.6
L74.3808 235.644
L74.5296 229.147
L74.604 230.471
L74.6784 229.93
L74.9016 225.714
L75.0504 226.463
L75.1248 225.506
L75.5712 206.095
L75.72 208.48
L75.7944 208.169
L76.092 200.393
L76.1664 200.589
L76.3896 209.897
L76.5384 204.505
L76.6128 205.093
L76.7616 209.805
L77.2824 219.263
L77.3568 219.539
L77.6544 232.384
L77.7288 232.211
L78.324 214.885
L78.5472 207.881
L79.1424 216.394
L79.2168 215.15
L79.5144 205.945
L79.5888 204.874
L79.6632 206.107
L79.812 217.143
L80.0352 233.282
L80.4072 219.758
L80.6304 202.478
L80.928 194.287
L81.0024 195.497
L81.0768 196.453
L81.672 226.935
L81.8208 230.909
L81.8952 230.31
L82.044 235.333
L82.3416 243.213
L82.4904 237.902
L82.788 218.779
L83.2344 191.488
L83.3088 191.442
L83.532 194.045
L83.6064 193.815
L83.6808 195.071
L84.1272 228.467
L84.2016 227.591
L84.648 207.155
L84.7224 207.616
L84.8712 211.694
L85.02 215.68
L85.0944 215.979
L85.5408 232.269
L85.764 235.552
L85.8384 233.167
L86.2848 196.626
L86.3592 197.755
L86.5824 210.242
L86.6568 210.795
L86.7312 209.609
L86.88 212.639
L87.1776 233.398
L87.5496 224.389
L87.6984 225.668
L88.0704 206.164
L88.4424 184.783
L88.5168 186.223
L88.8888 211.97
L89.3352 243.57
L89.4096 246.749
L89.484 246.68
L89.7816 231.727
L90.1536 211.544
L90.3024 210.369
L90.4512 207.167
L90.5256 207.777
L90.6744 210.208
L91.1208 198.642
L91.1952 199.874
L91.6416 217.189
L91.716 219.562
L92.0136 238.962
L92.1624 234.734
L92.46 214.666
L92.5344 214.597
L92.7576 204.494
L92.832 204.505
L92.9808 205.323
L93.0552 206.798
L93.1296 206.498
L93.204 206.049
L93.3528 209.125
L93.7992 228.26
L93.948 223.064
L94.0968 215.899
L94.1712 216.014
L94.32 220.726
L94.3944 220.15
L94.4688 218.663
L94.6176 224.827
L94.8408 234.757
L95.064 224.976
L95.5104 199.344
L95.7336 186.304
L95.808 187.099
L96.3288 214.539
L96.4032 214.551
L97.0728 222.592
L97.5192 236.22
L97.5936 234.941
L97.668 232.833
L97.8912 210.968
L98.1144 189.737
L98.8584 224.619
L99.0072 227.442
L99.0816 227.419
L99.156 229.066
L99.2304 228.087
L99.528 218.226
L99.8256 212.27
L100.049 219.815
L100.123 219.366
L100.495 200.255
L100.57 203.1
L100.867 222.454
L100.942 222.776
L101.016 222.016
L101.314 215.991
L101.462 218.652
L101.537 220.484
L101.686 212.063
L101.834 207.408
L101.983 209.77
L102.132 215.323
L102.43 229.112
L102.504 228.248
L102.95 213.583
L103.099 214.919
L103.174 213.41
L103.471 192.697
L103.694 184.587
L103.843 189.126
L104.513 255.32
L104.587 255.263
L105.108 222.177
L105.331 211.014
L105.48 213.572
L105.554 213.549
L106.075 188.331
L106.224 194.852
L106.596 217.108
L106.819 219.597
L107.117 212.973
L107.191 213.445
L107.266 214.413
L107.34 213.537
L107.563 207.397
L107.638 206.89
L107.712 205.462
L107.935 211.959
L108.01 211.728
L108.158 206.948
L108.233 207.27
L108.382 213.802
L108.605 238.167
L108.977 280.791
L109.051 277.727
L109.721 193.193
L110.018 152.539
L110.167 148.668
L110.316 160.061
L111.358 242.959
L111.73 257.371
L111.878 258.96
L111.953 258.258
L112.102 246.3
L112.474 205.611
L112.622 209.24
L112.697 208.929
L112.994 191.015
L113.218 183.481
L113.441 192.26
L113.59 203.895
L113.813 219.09
L113.887 218.249
L113.962 218.329
L114.036 218.882
L114.185 223.94
L114.408 236.635
L114.482 236.335
L115.152 202.559
L115.375 212.857
L115.524 209.482
L115.747 222.085
L115.97 239.549
L116.045 239.25
L116.491 200.508
L116.64 204.413
L116.938 223.329
L117.682 202.132
L117.756 202.939
L117.905 209.793
L118.277 231.67
L118.351 231.059
L118.5 222.799
L118.723 206.279
L118.798 208.249
L119.095 227.407
L119.244 224.999
L119.542 199.471
L119.616 203.319
L120.062 230.207
L120.211 219.908
L120.434 206.383
L120.509 205.335
L120.583 206.406
L120.806 215.277
L120.881 214.447
L120.955 215.035
L121.104 222.189
L121.253 217.108
L121.402 218.571
L121.625 211.867
L121.848 209.355
L122.22 226.497
L122.294 226.002
L122.741 202.397
L122.815 204.033
L123.262 221.463
L123.41 220.461
L123.559 223.03
L123.634 222.2
L123.782 224.147
L123.857 224.055
L124.154 216.267
L124.229 216.578
L124.378 216.106
L124.452 215.311
L124.75 228.029
L125.047 199.344
L125.122 191.879
L125.196 192.237
L125.27 193.135
L125.642 210.772
L125.94 231.001
L126.014 230.955
L126.163 228.582
L126.312 231.14
L126.461 224.308
L126.833 196.257
L127.13 216.267
L127.279 222.926
L127.428 221.382
L127.726 232.856
L127.8 233.179
L127.874 232.591
L128.172 206.717
L128.321 196.119
L128.395 197.017
L128.842 217.811
L128.916 214.597
L128.99 210.565
L129.065 212.304
L129.288 220.864
L129.511 228.697
L129.586 227.442
L129.809 215.403
L130.032 201.648
L130.106 202.386
L130.553 222.361
L130.627 222.258
L130.776 216.982
L131.074 226.232
L131.148 227.039
L131.222 226.923
L131.371 222.258
L131.446 222.384
L131.669 221.751
L131.818 224.953
L132.19 194.713
L132.264 195.681
L132.636 210.853
L132.785 214.747
L132.859 214.009
L133.082 209.678
L133.157 209.505
L133.231 210.242
L133.306 209.816
L133.38 208.48
L133.752 228.893
L133.975 211.821
L134.347 246.98
L134.496 242.591
L134.942 195.865
L135.091 193.631
L135.24 199.874
L135.463 210.081
L135.612 213.675
L135.835 224.47
L135.984 220.944
L136.356 211.567
L136.43 212.258
L136.802 221.774
L137.1 214.896
L137.249 221.451
L137.398 228.824
L137.472 228.179
L137.993 199.805
L138.067 200.301
L138.514 225.046
L138.588 224.239
L138.811 221.866
L138.96 229.112
L139.034 227.373
L139.258 207.155
L139.332 207.236
L139.481 210.83
L139.555 210.058
L139.63 210.335
L139.927 218.053
L140.002 217.776
L140.299 210.104
L140.448 205.657
L140.671 216.29
L140.82 212.696
L140.894 213.549
L140.969 213.906
L141.043 216.256
L141.415 240.747
L141.49 240.551
L141.638 230.955
L142.01 198.077
L142.085 200.831
L142.234 204.851
L142.457 197.259
L142.606 204.909
L142.829 223.767
L143.052 225.345
L143.126 224.976
L143.498 207.443
L143.87 220.069
L144.019 219.643
L144.094 219.804
L144.242 223.513
L144.54 233.398
L144.689 228.755
L145.21 196.534
L145.507 207.858
L145.582 207.063
L145.656 206.498
L146.251 237.072
L146.4 231.047
L146.623 210
L146.772 213.549
L146.995 218.825
L147.07 218.157
L147.442 205.289
L147.59 210.231
L147.665 208.284
L147.814 199.874
L147.888 199.967
L148.037 204.551
L148.409 226.912
L148.706 210.035
L148.781 210.519
L149.153 235.056
L149.525 224.942
L149.599 226.739
L149.674 226.439
L150.194 194.114
L150.641 216.083
L150.715 213.848
L150.864 219.608
L151.236 232.142
L151.31 229.481
L151.534 208.918
L151.608 210.461
L151.906 226.578
L152.054 220.334
L152.352 199.817
L152.426 201.522
L152.65 215.576
L152.873 205.427
L153.022 207.708
L153.319 225.702
L153.394 222.131
L153.691 207.835
L153.989 229.078
L154.286 225.679
L154.361 225.829
L154.51 223.974
L154.658 221.935
L154.882 213.537
L154.956 215.15
L155.03 215.691
L155.477 189.184
L155.626 201.591
L155.923 234.665
L156.072 228.755
L156.221 223.836
L156.295 224.228
L156.444 227.085
L156.518 226.578
L156.89 201.614
L156.965 202.973
L157.114 208.837
L157.188 208.111
L157.262 207.535
L157.634 225.748
L157.709 224.47
L158.006 212.166
L158.155 219.228
L158.304 229.366
L158.453 215.15
L158.602 207.385
L158.676 208.514
L159.048 236.761
L159.122 235.967
L159.941 189.921
L160.164 197.248
L160.61 221.221
L160.759 215.876
L160.834 215.991
L161.131 222.569
L161.354 233.985
L161.429 234.135
L161.726 227.58
L161.801 228.191
L161.875 228.985
L161.95 228.939
L162.173 227.499
L162.396 213.537
L162.768 198.492
L162.842 197.686
L162.917 198.999
L162.991 198.561
L163.289 191.039
L163.363 193.239
L163.81 221.808
L164.033 217.316
L164.107 219.412
L164.405 237.418
L164.554 246.208
L164.702 239.492
L164.926 225.506
L165.223 202.201
L165.298 202.708
L165.446 208.007
L165.521 207.904
L165.818 202.328
L165.967 212.535
L166.116 220.23
L166.19 220.587
L166.414 212.155
L166.711 199.367
L166.86 200.669
L167.009 209.908
L167.381 235.978
L167.455 234.688
L167.678 241.611
L167.753 240.114
L168.422 196.58
L168.571 205.588
L168.794 221.232
L169.315 209.574
L169.39 209.217
L169.538 211.694
L169.687 209.01
L169.762 209.943
L170.208 235.598
L170.654 205.991
L170.729 207.743
L170.878 215.668
L171.026 214.09
L171.25 206.118
L171.398 220.864
L171.622 237.026
L171.696 236.957
L172.068 213.261
L172.291 208.56
L172.514 189.264
L172.589 191.039
L172.961 210.53
L173.333 223.813
L173.63 245.286
L173.779 238.144
L174.002 218.859
L174.077 219.32
L174.151 221.716
L174.226 221.129
L174.672 195.497
L174.746 197.467
L174.895 202.029
L174.97 200.761
L175.193 181.719
L175.267 183.343
L175.565 212.155
L175.788 230.656
L175.937 237.983
L176.234 260.769
L176.309 260.435
L176.904 220.092
L177.276 192.167
L177.722 158.08
L177.871 168.24
L178.392 247.325
L178.466 250.309
L178.615 240.886
L178.913 221.843
L178.987 220.703
L179.062 221.186
L179.21 228.375
L179.508 248.88
L179.582 248.189
L179.806 235.287
L180.178 198.953
L180.252 195.22
L180.401 199.056
L180.55 188.827
L180.773 165.879
L180.847 166.432
L180.996 177.606
L181.591 242.222
L181.889 249.526
L181.963 248.938
L182.112 242.579
L182.335 231.047
L182.484 231.67
L182.558 229.481
L182.93 205.277
L183.079 197.167
L183.302 179.219
L183.377 184.299
L183.749 230.299
L183.823 230.057
L184.121 196.683
L184.195 196.799
L184.344 201.637
L184.493 197.271
L184.567 199.437
L184.939 228.214
L185.014 228.767
L185.237 241.83
L185.311 239.975
L185.683 220.898
L185.758 220.219
L185.832 220.553
L186.13 225.103
L186.204 222.546
L186.502 198.688
L186.576 198.815
L186.725 208.664
L186.948 228.432
L187.022 227.384
L187.394 209.171
L187.469 207.984
L187.618 210.023
L187.841 205.439
L187.915 206.268
L188.138 210.139
L188.362 224.873
L188.436 224.274
L188.585 219.193
L188.734 221.785
L188.808 220.898
L189.031 217.258
L189.254 212.12
L189.403 214.32
L189.552 211.314
L189.626 211.337
L189.775 216.463
L190.073 226.198
L190.147 227.58
L190.222 225.126
L190.519 199.713
L191.114 227.234
L191.189 227.096
L191.338 221.728
L191.486 228.306
L191.635 234.884
L191.933 223.594
L192.082 216.498
L192.454 195.589
L192.677 185.002
L192.751 185.014
L192.974 209.113
L193.272 241.323
L193.346 242.591
L193.495 232.971
L193.718 213.053
L193.793 211.844
L193.867 212.166
L194.165 215.841
L194.239 215.553
L194.462 209.517
L194.537 209.344
L194.611 209.62
L194.909 228.674
L194.983 227.223
L195.058 226.451
L195.132 227.108
L195.206 225.702
L195.727 195.865
L195.876 204.943
L196.397 245.148
L196.471 243.812
L196.992 202.167
L197.066 201.625
L197.141 202.259
L197.364 197.605
L197.513 203.929
L198.034 228.202
L198.108 230.276
L198.182 229.446
L198.703 204.54
L199.075 212.247
L199.298 229.688
L199.373 229.319
L199.596 226.52
L199.67 225.956
L200.042 213.583
L200.117 212.961
L200.191 214.113
L200.34 211.417
L200.489 206.706
L200.712 212.063
L200.935 230.391
L201.01 234.688
L201.084 234.446
L201.233 232.13
L201.382 220.91
L201.679 195.888
L201.754 195.14
L201.977 198.826
L202.349 216.279
L202.423 215.853
L202.572 213.802
L202.646 214.182
L202.87 220.507
L203.018 217.765
L203.093 218.249
L203.39 228.352
L203.465 228.041
L203.614 226.082
L203.837 216.993
L203.986 221.405
L204.06 221.048
L204.209 218.871
L204.283 220.253
L204.358 220.15
L204.506 213.848
L204.804 186.465
L204.878 187.283
L205.548 233.951
L205.697 236.6
L205.846 243.051
L205.994 236.45
L206.441 194.31
L206.515 194.852
L206.738 208.468
L206.887 213.376
L207.036 210.427
L207.11 211.533
L207.482 232.015
L207.557 230.011
L207.929 213.526
L208.003 213.906
L208.152 220.034
L208.226 222.695
L208.375 211.993
L208.598 199.425
L208.673 197.536
L208.822 209.54
L209.045 231.716
L209.119 231.439
L209.566 194.921
L209.64 197.075
L210.086 228.836
L210.682 214.585
L210.756 215.3
L210.83 214.896
L210.979 211.844
L211.128 219.977
L211.351 232.902
L211.426 233.375
L211.574 223.686
L211.798 213.111
L212.021 203.664
L212.095 204.632
L212.17 205.991
L212.244 205.6
L212.542 200.151
L212.616 200.784
L212.839 215.242
L213.137 232.764
L213.211 232.822
L213.36 230.84
L213.732 210.726
L213.806 211.798
L213.955 213.318
L214.03 213.249
L214.178 210.012
L214.253 210.196
L214.402 217.961
L214.55 224.089
L214.774 204.966
L214.848 205.035
L215.071 202.017
L215.369 221.186
L215.592 229.677
L215.815 235.563
L215.89 235.172
L216.038 232.856
L216.559 208.215
L216.931 194.944
L217.006 195.958
L217.08 196.81
L217.452 213.249
L217.75 227.154
L218.122 215.657
L218.345 203.526
L218.419 203.031
L218.568 208.733
L218.866 234.918
L219.014 246.427
L219.089 246.265
L219.461 216.647
L219.833 190.474
L219.907 190.393
L220.056 194.045
L220.205 211.844
L220.428 237.695
L220.726 240.793
L220.8 239.019
L220.949 220.633
L221.246 187.064
L221.321 184.852
L221.395 185.751
L221.544 190.497
L222.139 231.485
L222.288 232.775
L222.362 232.038
L222.809 210.323
L222.883 211.245
L223.181 233.179
L223.255 232.407
L223.478 221.486
L223.702 209.286
L223.776 211.613
L223.925 221.497
L223.999 218.26
L224.222 201.533
L224.371 199.218
L224.594 201.188
L224.966 220.391
L225.041 219.193
L225.115 219.677
L225.264 222.119
L225.338 221.958
L225.562 218.26
L225.71 222.5
L225.934 216.809
L226.008 217.535
L226.157 220.806
L226.306 218.445
L226.752 204.782
L226.826 204.793
L226.975 203.169
L227.496 224.262
L227.57 224.251
L227.645 222.983
L227.719 223.871
L227.942 232.994
L228.017 233.628
L228.166 236.543
L228.389 231.485
L229.133 182.537
L229.207 183.942
L229.356 187.606
L229.43 187.007
L229.579 196.43
L229.951 224.504
L230.026 227.626
L230.1 227.557
L230.174 226.635
L230.695 237.119
L230.918 231.635
L231.067 235.771
L231.216 228.778
L231.588 206.383
L231.662 206.533
L232.034 199.425
L232.258 191.603
L232.406 200.957
L232.63 213.088
L232.704 212.604
L232.853 213.687
L233.002 208.215
L233.15 212.846
L233.374 224.251
L233.746 246.162
L233.82 244.929
L234.192 216.002
L234.266 216.118
L234.415 217.753
L234.49 216.601
L234.713 205.692
L234.862 209.943
L235.01 212.996
L235.159 209.735
L235.457 197.34
L235.606 209.632
L235.754 220.08
L235.903 220.668
L236.052 217.373
L236.126 216.002
L236.275 221.716
L236.498 227.327
L236.647 223.629
L237.019 209.079
L237.317 189.748
L237.391 189.126
L237.614 211.371
L238.135 252.924
L238.21 252.371
L238.805 199.851
L239.028 178.712
L239.102 175.913
L239.177 176.973
L239.549 216.417
L239.772 233.144
L240.07 243.754
L240.218 237.499
L240.59 212.063
L240.739 205.485
L240.888 201.81
L241.26 213.618
L241.409 217.546
L241.558 214.816
L241.632 214.839
L241.781 216.452
L241.93 214.217
L242.004 214.678
L242.227 218.733
L242.376 212.592
L242.599 192.64
L242.674 194.299
L243.566 248.339
L243.715 237.591
L244.087 203.399
L244.534 220.921
L244.608 219.332
L244.98 184.679
L245.054 185.083
L246.022 241.6
L246.245 239.031
L246.84 208.365
L247.138 191.718
L247.212 191.58
L247.361 198.515
L247.658 218.076
L247.733 219.136
L247.807 218.56
L247.956 215.657
L248.105 218.122
L248.179 217.419
L248.254 216.256
L248.328 217.408
L248.402 220.484
L248.477 220.299
L248.551 218.894
L248.626 218.928
L248.849 227.741
L248.923 227.534
L249.072 230.621
L249.146 228.363
L249.444 206.855
L249.518 207.097
L249.593 209.286
L249.667 208.215
L249.816 204.667
L250.039 212.224
L250.188 223.237
L250.337 214.966
L250.411 216.175
L250.486 217.857
L250.56 217.65
L250.634 218.525
L250.858 226.843
L250.932 228.006
L251.006 227.684
L251.155 223.318
L251.453 209.563
L251.527 207.236
L251.75 194.379
L251.974 191.833
L252.197 207.881
L252.569 228.49
L252.718 234.93
L252.866 226.013
L252.941 226.025
L253.09 229.723
L253.164 230.16
L253.387 237.718
L253.685 230.978
L254.131 203.146
L254.578 189.334
L255.173 204.621
L255.322 207.443
L255.619 224.907
L255.917 248.569
L255.991 249.053
L256.958 204.644
L257.107 202.95
L257.182 202.95
L257.628 216.475
L257.702 216.037
L257.851 216.498
L258 216.083
L258.074 216.509
L258.372 224.527
L258.595 213.537
L258.67 214.678
L258.818 214.758
L258.967 218.56
L259.042 216.982
L259.339 196.499
L259.414 197.04
L259.488 196.845
L259.637 193.7
L259.86 202.167
L260.158 237.211
L260.381 269.628
L260.455 268.568
L260.604 254.318
L261.199 186.914
L261.348 179.83
L261.571 178.24
L261.646 176.973
L261.72 178.735
L262.762 253.362
L262.836 253.753
L262.985 247.694
L263.282 221.785
L263.506 225.783
L263.729 219.078
L263.803 215.657
L263.952 221.025
L264.026 219.412
L264.473 192.778
L264.547 194.091
L264.622 193.538
L264.696 193.193
L264.845 197.57
L265.142 220.703
L265.217 219.263
L265.44 205.853
L265.514 205.081
L265.738 212.869
L266.035 225.529
L266.407 232.649
L266.482 231.935
L266.779 222.868
L266.928 224.481
L267.077 221.97
L267.3 213.053
L267.672 198.227
L267.895 199.92
L268.118 196.119
L268.267 209.747
L268.639 244.699
L268.788 239.918
L269.458 197.063
L269.532 193.619
L269.606 193.654
L269.83 212.281
L270.202 242.602
L270.276 243.247
L270.499 240.033
L270.722 226.555
L270.871 216.29
L271.02 217.73
L271.169 210.035
L271.466 187.986
L271.541 188.758
L271.69 187.444
L271.838 183.666
L271.913 183.481
L272.136 189.84
L272.88 245.517
L273.252 262.67
L273.624 249.111
L273.773 216.336
L274.07 152.308
L274.145 157.262
L274.74 259.824
L274.814 256.103
L275.633 155.615
L275.707 155.741
L276.005 195.52
L276.377 238.052
L276.6 246.53
L276.749 248.846
L276.823 248.65
L276.972 245.862
L277.046 245.828
L277.121 246.795
L277.195 246.45
L277.865 217.535
L278.311 165.119
L278.46 175.648
L279.13 250.747
L279.278 243.547
L279.65 218.122
L280.022 185.866
L280.171 182.364
L280.543 192.375
L280.841 225.967
L281.138 259.94
L281.287 263.177
L281.436 251.012
L282.106 183.689
L282.18 184.253
L282.478 194.391
L282.552 197.04
L282.626 196.752
L282.775 199.621
L282.998 208.998
L283.37 258.995
L283.445 258.822
L283.668 236.854
L283.891 219.389
L283.966 218.963
L284.04 219.136
L284.189 224.884
L284.263 224.539
L285.082 167.135
L285.156 167.561
L285.305 179.519
L285.602 251.841
L285.826 287
L285.9 289.535
L285.974 285.652
L286.421 228.11
L286.644 214.943
L286.718 215.818
L287.016 224.93
L287.09 223.686
L287.239 209.908
L287.537 150.626
L287.76 117.149
L287.834 118.601
L287.983 132.206
L289.025 289.972
L289.099 289.097
L289.248 282.473
L289.918 233.029
L289.992 232.176
L290.066 229.953
L290.513 195.67
L290.587 194.725
L290.736 187.352
L290.885 178.643
L291.182 191.188
L291.331 190.37
L291.554 200.496
L291.629 198.607
L291.852 186.949
L291.926 185.567
L292.001 186.258
L292.447 217.293
L292.67 233.72
L292.745 233.639
L292.968 223.963
L293.042 224.135
L293.34 234.031
L293.712 218.859
L293.935 203.999
L294.01 206.556
L294.53 248.708
L294.605 251.161
L294.679 250.781
L294.902 245.067
L295.423 208.18
L295.646 194.08
L295.795 206.429
L295.87 211.636
L295.944 211.106
L296.093 202.605
L296.167 205.588
L296.316 217.972
L296.39 215.956
L296.911 159.128
L297.06 135.051
L297.134 136.031
L297.358 181.27
L298.027 305.213
L298.176 302.748
L298.25 305.098
L298.325 304.914
L298.399 304.084
L298.548 282.818
L299.292 130.708
L299.664 115.986
L299.738 118.175
L299.962 161.697
L300.631 292.668
L301.078 335.327
L301.152 330.384
L301.45 231.416
L301.822 79.4788
L301.896 77.8315
L302.045 111.977
L302.491 266.425
L302.64 276.448
L302.789 267.6
L303.012 241.773
L303.83 129.983
L303.905 131.964
L304.054 172.491
L304.5 326.502
L304.574 327.988
L304.723 304.511
L305.021 173.39
L305.244 103.533
L305.318 105.595
L305.542 170.567
L305.988 328.956
L306.062 329.186
L306.137 324.601
L306.434 252.325
L306.806 162.043
L307.104 130.282
L307.178 129.211
L307.327 147.009
L307.922 252.763
L308.071 236.381
L308.518 177.18
L308.592 174.265
L308.741 186.281
L309.262 269.628
L309.559 313.277
L309.634 313.462
L309.782 301.147
L310.08 239.918
L310.526 124.326
L310.601 123.036
L310.675 125.478
L310.973 164.865
L311.27 197.755
L311.568 213.295
L311.642 213.134
L311.717 210.496
L311.791 213.272
L312.312 281.805
L312.535 301.826
L312.684 300.26
L312.833 285.399
L313.205 197.536
L313.577 105.71
L313.726 93.7636
L313.874 97.9454
L314.023 124.338
L314.842 319.222
L314.916 317.943
L315.065 303.462
L315.734 207.005
L316.181 192.11
L316.255 193.423
L316.404 200.047
L316.478 199.713
L316.553 199.356
L316.627 201.049
L316.702 200.001
L317.074 174.611
L317.222 181.707
L317.297 179
L317.371 179.012
L317.446 180.682
L317.669 189.933
L317.743 189.264
L317.966 177.122
L318.115 183.32
L318.338 220.806
L318.859 326.663
L318.934 325.166
L319.157 302.783
L319.603 218.963
L320.05 125.121
L320.124 121.515
L320.347 134.233
L320.57 155.649
L321.166 244.111
L321.389 241.83
L321.686 224.965
L321.761 225.633
L321.91 230.759
L322.133 244.284
L322.43 269.271
L322.505 266.909
L323.472 170.821
L323.546 170.717
L323.993 188.642
L324.365 218.433
L324.514 220.484
L324.662 223.421
L324.737 222.88
L325.109 215.472
L325.183 216.037
L325.332 218.79
L325.555 223.168
L325.63 222.143
L325.778 214.862
L325.853 215.576
L326.002 209.447
L326.076 205.197
L326.15 205.542
L326.374 230.529
L326.746 263.43
L326.82 265.02
L326.894 264.985
L327.118 251.956
L327.564 204.747
L328.01 156.905
L328.085 155.868
L328.159 156.225
L328.234 158.794
L328.754 199.46
L328.829 202.04
L328.978 198.619
L329.126 216.129
L329.722 283.59
L329.796 284.224
L329.87 281.966
L330.168 246.484
L331.21 100.687
L331.358 123.128
L332.102 360.878
L332.177 357.203
L332.326 325.788
L333.144 115.237
L333.293 105.065
L333.367 106.136
L333.59 132.39
L334.186 233.997
L334.409 255.17
L334.483 254.767
L334.632 249.088
L334.781 243.051
L335.004 247.717
L335.599 234.388
L335.674 232.891
L335.822 235.056
L335.897 234.768
L336.12 230.84
L336.418 195.013
L336.492 196.004
L336.641 204.874
L336.79 203.561
L336.864 204.828
L337.162 217.097
L337.31 210.876
L337.757 190.439
L337.98 185.209
L338.054 186.454
L338.278 214.125
L338.426 227.534
L338.724 213.41
L338.798 213.802
L338.947 221.567
L339.022 221.509
L339.096 220.161
L339.319 229.343
L339.394 231.981
L339.468 231.911
L339.617 221.532
L339.691 223.11
L339.989 248.016
L340.063 246.565
L340.361 225.656
L340.658 210.3
L340.733 208.687
L341.03 185.578
L341.105 190.117
L341.402 204.816
L341.477 206.291
L341.774 234.941
L341.849 230.207
L342.072 215.68
L342.221 225.748
L342.295 225.138
L342.593 193.527
L342.89 210.692
L342.965 208.964
L343.039 207.063
L343.114 207.604
L343.411 215.979
L343.486 215.472
L343.56 214.009
L343.634 214.228
L343.783 221.67
L344.006 229.193
L344.081 227.361
L344.155 228.075
L344.23 229.227
L344.453 235.448
L344.527 234.227
L344.676 224.85
L344.899 213.284
L345.048 215.392
L345.122 214.055
L345.346 207.236
L345.494 212.374
L345.718 224.182
L345.866 222.649
L346.015 214.608
L346.238 207.017
L346.387 202.72
L346.685 187.237
L346.834 191.914
L346.982 212.166
L347.206 238.247
L347.726 213.042
L347.801 214.966
L348.173 242.372
L348.247 241.761
L348.842 202.547
L349.066 188.066
L349.214 184.564
L349.363 198.02
L349.586 215.484
L350.182 230.379
L350.256 229.504
L350.479 209.805
L350.702 197.87
L350.777 197.167
L350.926 205.727
L351.149 223.156
L351.223 222.949
L351.372 220.034
L351.446 221.394
L351.67 235.367
L351.893 251.853
L352.116 232.119
L352.265 223.744
L352.339 225.645
L352.414 224.17
L352.934 176.846
L353.009 177.629
L353.53 199.736
L353.827 207.996
L354.422 248.097
L354.794 238.098
L355.166 213.387
L355.613 197.236
L355.762 192.121
L356.134 213.629
L356.208 213.802
L356.506 219.769
L356.729 216.924
L356.878 218.387
L356.952 218.145
L357.175 219.263
L357.324 217.984
L357.398 219.7
L357.622 229.435
L357.994 217.972
L358.291 200.335
L358.514 192.686
L358.589 190.578
L358.663 192.294
L359.258 241.012
L359.333 240.747
L359.63 220.288
L359.779 211.613
L360.374 218.848
L360.598 209.62
L360.821 199.483
L360.895 201.038
L361.267 221.866
L361.342 221.67
L361.416 221.958
L361.565 226.9
L361.639 229.826
L361.714 229.734
L362.086 216.59
L362.383 214.194
L362.532 215.634
L362.978 196.891
L363.499 214.793
L363.871 226.405
L364.02 231.439
L364.466 222.304
L364.541 222.811
L364.69 226.209
L365.062 207.489
L365.136 207.766
L365.21 207.051
L365.359 209.01
L365.657 219.113
L365.954 221.808
L366.029 223.03
L366.103 221.371
L366.401 198.354
L366.55 189.898
L367.07 226.751
L367.145 227.615
L367.368 220.173
L367.517 212.581
L367.666 204.344
L367.74 204.505
L368.038 216.809
L368.186 222.327
L368.41 243.65
L368.484 243.604
L368.93 215.449
L369.079 219.631
L369.154 216.29
L369.377 192.594
L369.451 193.239
L369.6 196.914
L369.674 195.888
L369.823 205.058
L370.046 226.221
L370.121 226.094
L370.418 206.648
L370.493 208.687
L370.716 224.043
L370.79 223.237
L370.939 210.381
L371.014 211.867
L371.311 243.708
L371.386 243.696
L371.46 241.531
L371.906 214.274
L372.13 208.019
L372.353 212.719
L372.502 204.609
L372.65 198.745
L372.874 204.54
L373.171 194.886
L373.246 195.508
L373.394 202.835
L373.543 212.823
L373.618 212.212
L373.692 214.125
L373.99 235.483
L374.287 242.786
L375.106 210.265
L375.329 193.965
L375.478 196.453
L375.552 195.935
L375.626 194.898
L375.924 206.061
L376.519 242.867
L376.594 242.003
L376.966 214.539
L377.189 211.141
L377.338 204.886
L377.486 197.513
L377.561 197.651
L377.933 208.215
L378.156 227.81
L378.23 225.887
L378.379 217.799
L378.826 222.661
L379.049 212.569
L379.346 226.336
L379.421 225.702
L379.57 231.647
L379.644 235.817
L379.718 235.805
L379.942 221.878
L380.314 197.156
L380.388 198.331
L380.537 200.139
L380.834 193.101
L380.909 194.448
L381.281 219.654
L381.43 228.179
L381.504 232.822
L381.578 230.852
L381.802 219.147
L381.95 221.567
L382.174 231.923
L382.248 230.264
L382.471 215.668
L382.62 220.345
L382.918 214.735
L383.141 219.839
L383.215 219.447
L383.438 213.526
L383.662 209.171
L383.885 219.147
L384.331 199.794
L384.629 213.099
L384.703 214.067
L384.926 207.132
L385.075 205.035
L385.15 205.773
L385.298 214.585
L385.522 223.663
L385.596 223.905
L385.894 238.224
L385.968 235.218
L386.191 218.422
L386.34 224.723
L386.414 224.135
L386.712 201.948
L387.01 217.995
L387.084 216.279
L387.233 207.339
L387.456 215.104
L387.53 214.689
L387.754 212.5
L387.902 217.65
L388.126 225.679
L388.423 213.422
L388.498 213.698
L388.646 219.631
L388.721 218.502
L388.944 208.134
L389.018 207.501
L389.093 207.892
L389.242 212.673
L389.39 209.01
L389.539 216.889
L389.688 223.951
L389.762 224.101
L390.06 212.063
L390.432 226.532
L390.506 225.184
L390.73 214.701
L390.878 206.625
L391.102 197.19
L391.25 206.855
L391.474 216.371
L391.771 224.32
L391.92 233.939
L392.069 243.109
L392.218 230.149
L392.441 211.475
L392.515 212.604
L392.59 212.039
L392.738 203.503
L392.887 206.694
L392.962 206.107
L393.036 205.646
L393.334 211.913
L393.482 217.431
L393.557 215.415
L393.631 216.694
L393.854 227.983
L394.003 229.043
L394.152 222.937
L394.45 204.644
L394.598 205.496
L394.673 205.934
L394.896 210.841
L395.119 198.607
L395.194 198.584
L395.566 218.687
L395.64 219.435
L396.086 235.506
L396.235 238.996
L396.384 243.109
L396.979 203.008
L397.202 185.486
L397.351 189.725
L397.426 193.366
L397.5 192.029
L397.574 191.764
L397.649 193.93
L398.244 234.446
L398.393 231.347
L398.616 219.47
L398.765 225.322
L398.839 224.135
L398.988 217.569
L399.062 218.26
L399.211 221.325
L399.286 221.255
L399.434 222.177
L399.583 225.345
L399.658 223.755
L399.881 210.957
L399.955 211.579
L400.03 211.314
L400.178 202.132
L400.327 190.635
L400.402 191.085
L400.55 198.815
L400.699 208.054
L400.848 207.259
L401.071 231.393
L401.22 246.369
L401.294 244.537
L401.964 204.091
L402.038 204.471
L402.187 208.71
L402.41 219.343
L402.782 214.113
L403.154 195.416
L403.229 196.326
L403.378 210.392
L403.601 234.423
L403.75 236.888
L403.824 237.453
L403.898 236.842
L404.494 211.671
L404.717 199.586
L404.791 199.943
L404.866 201.833
L405.163 218.502
L405.238 217.627
L405.61 205.197
L405.684 206.026
L405.907 215.242
L406.056 218.41
L406.279 215.184
L406.354 215.691
L406.502 220.438
L406.8 237.303
L406.874 235.805
L407.172 219.401
L407.246 220.484
L407.321 221.866
L407.395 220.15
L407.767 196.211
L407.842 196.246
L407.916 196.799
L408.139 189.334
L408.809 225.91
L408.958 225.345
L409.032 225.587
L409.255 221.106
L409.404 229.469
L409.627 240.678
L409.776 238.985
L409.85 240.056
L409.925 239.526
L410.148 226.416
L410.669 187.905
L410.818 183.412
L410.892 184.368
L411.785 230.575
L411.859 230.736
L412.082 228.997
L412.157 228.951
L412.231 228.11
L412.454 222.269
L412.529 222.431
L412.603 222.811
L412.678 222.361
L412.752 221.083
L412.826 221.843
L412.975 228.594
L413.05 227.903
L413.496 204.079
L413.719 211.602
L413.794 210.127
L413.942 212.351
L414.017 212.12
L414.24 205.577
L414.314 205.703
L414.389 207.524
L414.612 216.59
L414.835 212.639
L415.058 199.252
L415.207 207.051
L415.43 228.928
L415.505 227.442
L415.802 210.196
L415.877 212.258
L416.174 226.739
L416.621 224.112
L416.695 224.539
L416.918 232.004
L416.993 231.439
L417.216 212.765
L417.439 196.66
L417.588 199.425
L417.662 198.884
L417.96 206.429
L418.63 228.87
L418.704 227.856
L419.002 208.929
L419.15 203.25
L419.448 212.938
L419.746 228.248
L419.894 224.089
L420.192 212.523
L420.266 214.608
L420.341 215.668
L420.564 211.59
L420.638 212.258
L420.787 209.632
L420.936 217.661
L421.159 230.886
L421.234 231.543
L421.382 225.91
L421.68 209.793
L421.829 209.793
L421.978 209.39
L422.052 209.355
L422.275 205.669
L422.722 221.682
L422.87 217.627
L423.094 211.867
L423.242 212.846
L423.317 212.627
L423.466 210.369
L423.54 211.533
L423.838 221.255
L424.135 230.944
L424.21 230.69
L424.284 230.356
L424.433 226.958
L425.177 190.555
L425.326 202.006
L425.698 229.204
L425.921 233.835
L426.07 227.073
L426.442 202.247
L426.516 199.713
L426.665 208.215
L426.814 215.737
L426.888 216.002
L427.037 220.898
L427.111 219.574
L427.409 207.904
L427.558 207.155
L427.781 203.077
L427.855 204.909
L428.227 223.778
L428.748 250.148
L428.897 245.344
L429.343 214.032
L429.715 182.733
L429.79 182.963
L429.938 188.665
L430.013 187.767
L430.087 185.336
L430.162 185.474
L430.236 187.214
L430.31 186.719
L430.385 186.315
L430.459 187.375
L430.682 206.015
L431.054 235.045
L431.278 240.932
L431.352 241.888
L431.501 246.599
L431.575 245.966
L431.724 236.854
L432.17 206.003
L432.319 201.43
L432.468 205.277
L432.989 226.52
L433.138 225.046
L433.51 217.235
L433.733 206.164
L433.807 207.385
L434.03 200.738
L434.105 200.796
L434.328 206.625
L434.477 202.236
L434.551 202.939
L434.7 206.717
L434.774 206.303
L434.849 209.344
L435.072 223.053
L435.221 220.103
L435.295 220.645
L435.444 224.493
L435.667 240.816
L435.742 239.296
L435.89 221.601
L435.965 221.797
L436.188 234.872
L436.262 234.446
L436.411 220.887
L436.783 184.334
L436.858 185.567
L437.453 217.431
L437.676 222.108
L437.75 219.355
L437.825 219.804
L437.974 224.642
L438.048 224.274
L438.197 230.541
L438.271 229.953
L438.643 212.431
L438.718 213.007
L438.941 220.484
L439.015 221.094
L439.238 228.144
L439.685 214.954
L440.131 177.733
L440.206 181.016
L440.429 202.305
L440.503 203.595
L440.875 225.046
L441.173 245.263
L441.247 242.418
L441.47 225.852
L441.545 225.357
L441.694 221.682
L441.768 219.205
L441.842 220.967
L442.066 234.815
L442.214 229.055
L442.661 194.379
L442.81 196.061
L443.033 189.299
L443.182 195.992
L443.628 228.294
L443.777 233.939
L444 225.38
L444.223 232.706
L444.298 230.379
L444.446 217.385
L444.521 217.719
L444.595 218.064
L444.818 202.651
L444.893 205.45
L445.116 217.051
L445.265 219.47
L445.339 217.5
L445.637 202.466
L445.711 200.646
L445.786 202.178
L446.232 224.112
L446.381 224.815
L446.53 212.351
L446.604 212.466
L446.678 214.436
L446.753 212.304
L447.05 194.909
L447.199 200.139
L447.646 244.526
L447.72 243.305
L447.794 242.291
L447.943 244.918
L448.538 209.263
L448.613 209.655
L448.762 212.466
L448.91 210.047
L449.134 215.403
L449.282 207.789
L449.654 183.965
L449.803 186.649
L449.878 190.866
L449.878 190.866" style="fill:none;stroke:#808080;stroke-linecap:square;"/>
   </g>
  </g>
 </g>
 <defs>
  <clipPath id="p7ff5b81e1d">
   <rect height="345.6" width="446.4" x="72.0" y="43.2"/>
  </clipPath>
 </defs>
</svg>
