<?xml version="1.0" encoding="utf-8" standalone="no"?>
<!DOCTYPE svg PUBLIC "-//W3C//DTD SVG 1.1//EN"
  "http://www.w3.org/Graphics/SVG/1.1/DTD/svg11.dtd">
<!-- Created with matplotlib (http://matplotlib.org/) -->
<svg height="432pt" version="1.1" viewBox="0 0 576 432" width="576pt" xmlns="http://www.w3.org/2000/svg" xmlns:xlink="http://www.w3.org/1999/xlink">
 <defs>
  <style type="text/css">
*{stroke-linecap:butt;stroke-linejoin:round;}
  </style>
 </defs>
 <g id="figure_1">
  <g id="patch_1">
   <path d="
M0 432
L576 432
L576 0
L0 0
z
" style="fill:#ffffff;"/>
  </g>
  <g id="axes_1">
   <g id="line2d_1">
    <path clip-path="url(#p7ff5b81e1d)" d="
M72 191.109
L72.0744 188.79
L72.1488 188.506
L72.5208 207.713
L72.5952 209.111
L72.8184 204.349
L72.9672 207.506
L73.1904 217.851
L73.2648 216.745
L73.488 204.81
L73.9344 174.758
L74.0088 175.142
L74.7528 199.104
L75.0504 203.512
L75.1248 202.376
L75.4968 193.536
L75.6456 197.691
L75.72 196.831
L75.9432 193.544
L76.0176 193.229
L76.092 193.336
L76.1664 193.943
L76.3152 192.668
L76.464 200.84
L76.7616 211.223
L76.836 210.348
L77.0592 204.119
L77.1336 204.403
L77.208 203.743
L77.3568 201.869
L77.4312 203.197
L77.5056 202.591
L77.8776 189.55
L77.952 189.181
L78.3984 198.252
L78.5472 192.73
L78.8448 178.668
L78.9192 178.222
L78.9936 178.476
L79.2168 184.758
L79.6632 221.115
L79.7376 219.878
L80.1096 194.627
L80.2584 188.083
L80.3328 188.383
L81.1512 215.155
L81.2256 215.117
L81.3 213.112
L82.1184 159.959
L82.1928 160.735
L82.416 171.694
L82.8624 226.383
L83.0856 236.467
L83.16 235.507
L83.3832 223.342
L83.9784 173.468
L84.2016 165.066
L84.276 166.034
L84.4248 177.301
L84.7224 204.042
L84.9456 218.888
L85.02 218.826
L85.0944 218.112
L85.2432 211.599
L85.6152 188.36
L85.9872 176.287
L86.2104 182.738
L86.2848 183.529
L86.4336 186.501
L86.508 185.403
L86.6568 190.971
L86.9544 201.109
L87.0288 201.508
L87.4752 208.151
L87.7728 214.94
L87.8472 214.556
L87.996 216.553
L88.0704 215.739
L88.2192 208.297
L88.5168 188.682
L88.74 197.43
L88.8144 197.023
L89.0376 180.088
L89.2608 168.407
L89.3352 169.152
L89.484 179.259
L89.7816 211.592
L89.856 213.043
L90.0048 200.087
L90.228 177.938
L90.3768 174.182
L90.6 168.806
L90.7488 180.841
L91.2696 244.316
L91.4184 249.976
L91.4928 248.609
L91.716 224.179
L92.0136 196.332
L92.46 156.035
L92.5344 157.371
L93.1296 179.535
L93.576 218.465
L93.8736 246.152
L93.948 243.955
L94.0968 224.218
L94.4688 161.695
L94.5432 157.21
L94.6176 157.816
L94.7664 170.074
L95.3616 241.651
L95.436 241.782
L95.5848 226.522
L96.0312 166.71
L96.3288 146.765
L96.4032 148.393
L96.552 160.366
L96.924 205.202
L97.2216 202.806
L97.296 203.866
L97.5936 222.397
L97.8912 239.985
L97.9656 239.823
L98.1144 229.571
L98.7096 161.656
L98.784 160.512
L98.9328 167.432
L99.3792 210.47
L99.4536 209.349
L99.7512 193.352
L99.8256 193.874
L99.9744 196.501
L100.123 200.471
L100.272 190.986
L100.57 174.321
L100.644 175.895
L100.942 195.74
L101.016 195.149
L101.09 194.089
L101.165 194.627
L101.239 193.889
L101.388 190.909
L101.537 196.623
L101.983 225.024
L102.132 217.252
L102.43 191.378
L102.504 191.793
L102.727 205.54
L102.876 215.839
L102.95 215.186
L103.471 193.313
L103.546 192.307
L103.694 195.241
L103.843 182.047
L104.141 158.876
L104.215 159.767
L104.364 167.117
L104.662 186.693
L105.108 203.067
L105.554 238.472
L105.629 238.226
L105.778 234.156
L105.852 234.647
L106.001 240.722
L106.15 227.305
L106.373 173.545
L106.67 119.509
L106.745 117.719
L106.819 120.315
L107.117 163.354
L107.712 265.751
L107.861 279.322
L107.935 277.962
L108.158 248.794
L108.456 185.027
L108.754 125.599
L108.902 116.644
L108.977 117.727
L109.2 138.24
L109.572 187.5
L110.018 243.195
L110.316 259.845
L110.39 258.163
L110.614 240.269
L111.432 159.406
L111.581 156.434
L111.73 159.529
L112.027 175.419
L112.399 186.67
L113.143 239.808
L113.218 238.456
L113.962 185.664
L114.185 183.406
L114.259 183.982
L114.334 185.779
L114.408 185.695
L114.631 182.769
L114.706 182.239
L115.003 187.162
L115.152 190.234
L115.45 194.98
L115.673 199.288
L116.045 214.234
L116.194 208.543
L116.417 189.343
L116.566 176.986
L116.789 176.241
L117.235 197.345
L117.83 236.183
L117.905 236.544
L118.128 225.907
L118.277 215.992
L118.946 145.459
L119.021 144.008
L119.095 146.273
L119.542 193.705
L119.765 214.886
L120.137 223.15
L120.211 222.981
L120.36 218.68
L120.583 201.554
L120.732 203.197
L120.806 203.459
L120.881 204.557
L121.03 208.12
L121.55 182.139
L121.625 182.193
L122.071 202.752
L122.146 204.465
L122.22 203.581
L122.592 177.078
L122.666 177.193
L122.89 186.947
L123.187 206.377
L123.336 209.902
L123.485 213.381
L123.708 204.204
L124.08 186.063
L124.675 207.045
L124.75 206.154
L125.047 191.317
L125.345 179.658
L125.94 201.385
L126.312 232.55
L126.386 234.048
L126.461 232.589
L126.61 222.213
L126.907 171.648
L127.13 140.298
L127.205 137.772
L127.279 139.338
L127.428 156.334
L127.8 207.26
L128.246 233.756
L128.321 233.979
L128.618 227.32
L129.065 202.414
L129.66 155.827
L129.883 163.192
L130.106 180.695
L130.478 205.578
L131.222 219.955
L131.52 215.816
L131.743 202.591
L132.115 177.754
L132.264 175.066
L132.71 186.063
L133.529 223.918
L133.603 224.325
L133.826 202.23
L134.198 175.964
L134.347 172.869
L134.422 173.069
L134.57 174.766
L134.868 191.347
L135.166 203.413
L135.314 207.606
L135.686 228.127
L135.761 227.989
L135.835 227.259
L135.984 217.928
L136.728 156.25
L136.802 154.691
L136.951 158.961
L137.1 168.937
L137.621 225.101
L137.695 227.305
L137.844 219.848
L138.067 210.916
L138.142 209.756
L138.29 212.014
L138.365 211.968
L138.439 212.375
L138.514 211.799
L139.555 164.49
L139.63 165.112
L139.778 174.636
L140.299 218.634
L140.374 217.644
L140.746 207.145
L140.894 204.588
L141.118 198.421
L141.192 199.98
L141.49 213.112
L141.564 214.303
L141.638 213.665
L142.234 166.126
L142.308 166.226
L142.457 172.493
L143.052 216.86
L143.201 221.591
L143.275 220.347
L143.796 187.891
L143.87 187.945
L144.168 197.66
L144.317 195.349
L144.391 195.932
L144.466 195.556
L144.912 175.419
L144.986 177.738
L145.582 218.642
L145.879 229.763
L146.028 225.554
L146.326 193.989
L146.698 170.258
L146.772 167.747
L146.846 168.361
L147.59 196.877
L147.739 199.043
L148.037 205.363
L148.26 208.804
L148.409 212.498
L148.558 210.662
L149.302 188.221
L149.525 190.003
L149.674 194.12
L149.748 193.644
L150.046 188.183
L150.12 188.375
L150.269 196.163
L150.566 209.818
L150.641 209.487
L150.864 202.675
L150.938 203.305
L151.087 207.437
L151.162 207.398
L151.236 206.139
L151.31 206.193
L151.459 204.603
L151.534 202.36
L151.906 179.697
L151.98 179.85
L152.129 183.107
L152.426 191.616
L152.501 191.432
L152.65 189.796
L152.724 190.479
L152.798 190.456
L152.947 187.085
L153.022 189.02
L153.394 222.459
L153.468 221.783
L153.914 201.093
L154.063 202.076
L154.138 200.955
L154.212 201.331
L154.361 202.906
L154.435 202.176
L154.956 170.872
L155.03 172.547
L155.626 205.962
L155.774 207.79
L155.849 207.598
L155.923 206.062
L156.295 191.962
L156.37 190.134
L156.444 190.441
L156.667 198.182
L156.89 206.062
L157.039 197.967
L157.262 188.575
L157.411 185.741
L157.486 187.215
L157.932 215.893
L158.006 215.877
L158.155 210.916
L158.602 191.893
L158.75 189.942
L158.974 193.774
L159.048 193.874
L159.122 193.674
L159.271 194.934
L159.346 193.859
L159.569 186.071
L159.718 187.046
L160.015 193.382
L160.387 185.011
L160.462 184.527
L160.61 194.396
L160.982 227.95
L161.057 227.182
L161.28 209.203
L161.578 192.76
L161.726 187.1
L162.024 191.747
L162.098 191.946
L162.173 191.77
L162.396 189.243
L162.47 189.458
L162.619 190.541
L162.768 190.011
L162.842 190.694
L163.363 205.317
L163.512 211.715
L163.586 211.231
L164.033 196.324
L164.107 197.714
L164.182 197.322
L164.33 194.918
L164.405 195.548
L164.554 189.85
L164.777 180.803
L164.926 184.643
L165.372 198.113
L165.521 199.549
L165.67 206.661
L165.893 216.207
L166.042 214.764
L166.562 191.347
L166.637 191.601
L167.158 181.909
L167.306 183.337
L167.827 204.588
L167.976 210.862
L168.125 210.493
L168.422 204.05
L168.497 204.265
L168.646 205.962
L168.72 205.286
L169.166 180.495
L169.241 181.801
L169.39 185.641
L169.762 204.634
L169.836 205.44
L170.208 194.895
L170.282 194.872
L170.431 197.338
L170.654 196.961
L170.803 198.728
L171.101 203.121
L171.175 203.144
L171.324 204.949
L171.473 198.229
L171.77 186.002
L172.068 182.054
L172.142 183.145
L172.589 212.367
L172.663 211.423
L173.035 187.707
L173.11 187.753
L173.482 197.76
L173.779 213.604
L173.854 213.097
L174.077 197.123
L174.226 190.072
L174.374 194.918
L174.523 199.91
L174.598 199.388
L174.672 197.645
L174.746 197.745
L174.821 197.33
L174.97 195.095
L175.044 195.264
L175.118 195.026
L175.193 195.709
L175.342 198.428
L175.639 186.931
L175.714 187.937
L175.862 193.29
L175.937 192.73
L176.011 192.192
L176.234 202.253
L176.309 203.09
L176.532 207.475
L176.606 207.721
L176.681 205.501
L177.053 184.059
L177.202 181.532
L177.276 181.64
L177.35 181.248
L177.499 187.469
L177.871 208.481
L177.946 208.658
L178.318 198.95
L178.392 199.066
L178.541 203.313
L178.615 202.299
L178.838 203.789
L179.062 214.656
L179.359 187.907
L179.582 175.972
L179.731 174.728
L180.55 207.967
L180.698 202.33
L180.847 198.152
L180.922 198.551
L180.996 198.92
L181.294 208.604
L181.442 210.117
L181.591 209.626
L181.666 211.254
L181.74 208.143
L182.038 185.695
L182.261 173.798
L182.335 175.941
L182.856 192.591
L183.972 214.287
L184.046 212.083
L184.418 188.529
L184.642 180.319
L184.79 179.697
L184.939 182.4
L185.088 186.079
L185.683 213.45
L185.832 216.238
L185.906 216.115
L186.055 212.844
L186.576 187.492
L186.65 189.013
L186.725 191.877
L186.799 190.825
L187.022 184.374
L187.394 179.766
L187.543 182.108
L187.618 184.005
L188.138 221.484
L188.213 219.917
L188.51 202.13
L188.808 187.753
L189.106 197.276
L189.329 201.615
L189.403 201.615
L189.552 204.442
L189.626 202.069
L190.073 172.209
L190.147 171.963
L190.296 184.274
L190.668 222.098
L190.742 221.614
L190.966 214.241
L191.486 180.073
L191.635 185.357
L191.933 198.574
L192.007 198.136
L192.082 196.639
L192.156 196.969
L192.305 203.182
L192.454 201.331
L192.528 201.454
L192.602 202.875
L192.751 198.136
L192.974 192.645
L193.049 193.167
L193.198 196.954
L193.57 211.63
L194.165 184.013
L194.239 182.3
L194.462 187.354
L194.983 212.268
L195.206 210.232
L195.43 202.145
L195.504 199.15
L195.727 158.346
L195.95 127.396
L196.025 126.359
L196.174 141.834
L196.471 232.105
L196.769 294.897
L196.843 296.709
L197.066 275.059
L197.29 243.848
L197.959 111.544
L198.034 111.844
L198.257 133.156
L199.373 249.807
L199.522 251.697
L199.596 250.476
L199.745 241.275
L200.042 191.854
L200.191 171.855
L200.266 172.408
L200.712 210.739
L200.786 210.394
L201.01 206.031
L201.233 210.294
L201.53 199.181
L202.051 157.356
L202.126 156.396
L202.423 163.407
L202.87 196.662
L203.093 203.09
L203.167 202.245
L203.242 203.589
L203.688 233.226
L203.837 225.516
L204.209 198.981
L204.283 197.437
L204.358 198.075
L204.506 202.721
L204.804 200.609
L205.176 190.218
L205.25 190.71
L205.399 192.553
L205.474 192.253
L205.622 192.714
L205.846 188.821
L205.92 189.158
L206.143 192.085
L206.292 189.581
L206.366 189.996
L206.59 194.527
L206.664 192.914
L206.887 180.872
L207.036 183.859
L207.408 200.31
L207.482 199.91
L207.557 198.735
L207.631 199.949
L208.003 224.463
L208.078 228.526
L208.152 227.343
L208.598 192.791
L209.119 171.11
L209.194 173.253
L209.714 194.857
L210.012 211.669
L210.086 211.876
L210.161 211.676
L210.384 207.114
L210.458 207.391
L210.533 207.099
L210.682 208.62
L210.756 208.028
L211.128 196.524
L211.277 188.728
L211.649 193.743
L211.723 193.336
L212.021 179.105
L212.095 179.497
L212.244 181.67
L212.69 198.92
L212.765 198.006
L212.839 198.95
L213.211 224.97
L213.286 228.027
L213.36 225.976
L213.881 181.263
L214.03 177.677
L214.104 178.737
L214.699 204.887
L214.774 204.672
L214.848 203.221
L215.146 180.949
L215.369 165.819
L215.443 164.705
L215.592 174.029
L216.113 230.692
L216.187 230.423
L216.931 185.341
L217.006 183.698
L217.08 184.174
L217.452 193.828
L217.675 198.712
L217.824 199.45
L217.973 197.146
L218.122 193.091
L218.196 193.805
L218.568 209.879
L218.866 214.042
L218.94 215.524
L219.014 213.804
L219.61 167.616
L219.684 166.856
L219.758 167.8
L219.907 175.165
L220.205 194.665
L220.428 198.528
L220.502 198.205
L220.874 184.458
L220.949 185.088
L221.098 191.877
L221.321 213.45
L221.618 237.719
L221.693 237.85
L222.362 201.469
L222.66 179.873
L222.958 171.21
L223.032 170.627
L223.181 172.339
L223.478 174.92
L223.553 175.027
L223.627 175.473
L223.776 179.574
L223.999 187.077
L224.222 185.288
L224.297 184.804
L224.371 185.649
L224.52 192.323
L225.115 243.909
L225.19 243.103
L225.338 239.754
L226.231 178.261
L226.678 169.352
L226.752 170.204
L226.901 177.139
L227.124 188.506
L227.273 189.266
L227.347 188.951
L227.422 190.195
L227.719 200.225
L227.868 203.366
L228.091 212.552
L228.166 212.705
L228.24 212.437
L228.389 208.251
L228.538 202.598
L228.761 206.738
L228.835 206.7
L228.91 206.239
L228.984 205.025
L229.058 205.563
L229.133 205.24
L229.207 202.668
L229.505 181.54
L229.728 175.68
L229.951 179.942
L230.026 179.551
L230.174 185.971
L230.621 226.092
L230.695 226.798
L231.216 202.706
L231.588 181.801
L232.034 166.364
L232.109 166.533
L232.778 198.912
L233.225 241.283
L233.299 240.876
L233.894 186.962
L233.969 187.884
L234.415 209.925
L234.49 210.125
L234.638 202.422
L234.936 187.507
L235.234 177.062
L235.531 167.063
L235.68 169.951
L236.126 204.949
L236.35 214.764
L236.424 214.833
L236.647 208.712
L236.722 209.557
L236.87 213.589
L237.094 208.159
L237.838 183.829
L237.912 184.335
L237.986 184.013
L238.135 181.394
L238.21 182.715
L238.358 188.252
L238.433 188.444
L238.582 194.811
L238.73 199.311
L238.805 198.973
L238.879 200.141
L239.102 211
L239.177 209.795
L239.251 209.902
L239.4 212.352
L239.846 193.098
L239.921 194.25
L240.218 204.265
L240.442 202.099
L241.186 175.665
L241.26 174.39
L241.409 183.137
L241.483 182.124
L241.558 181.079
L241.781 197.046
L242.078 210.033
L242.302 215.309
L242.376 215.163
L242.45 215.631
L242.599 206.976
L242.971 177.761
L243.046 176.486
L243.269 181.847
L243.418 195.564
L243.864 258.862
L243.938 257.411
L244.236 218.573
L244.682 147.832
L244.831 140.521
L245.129 158.477
L245.203 157.171
L245.278 157.962
L245.501 167.002
L245.65 161.487
L245.798 173.245
L246.022 220.416
L246.245 269.414
L246.394 277.064
L246.468 274.975
L246.617 255.974
L247.063 190.794
L247.286 178.898
L247.51 163.899
L247.733 160.804
L247.956 170.542
L248.551 194.903
L248.998 227.773
L249.072 228.918
L249.146 228.134
L249.295 221.745
L249.518 211.177
L249.593 209.434
L249.89 190.495
L250.039 186.901
L250.114 187.599
L250.337 198.259
L250.56 201.631
L250.709 195.295
L251.081 172.239
L251.304 150.459
L251.378 151.158
L251.974 185.802
L252.271 229.033
L252.569 265.452
L252.643 265.121
L252.792 254.976
L253.238 209.349
L253.536 178.468
L253.834 139.899
L253.982 156.288
L254.28 187.308
L254.652 175.311
L254.875 199.35
L255.173 227.635
L255.247 228.803
L255.322 228.588
L255.619 216.207
L256.289 166.011
L256.363 165.673
L256.438 167.992
L256.586 184.758
L256.81 219.648
L256.884 219.226
L257.033 190.226
L257.33 113.073
L257.405 119.478
L257.554 186.056
L257.851 337.859
L258 345.039
L258.149 313.997
L258.893 85.4324
L259.042 76.5312
L259.19 88.9114
L259.339 104.763
L259.934 237.704
L260.009 234.908
L260.306 214.019
L260.455 228.38
L260.753 263.754
L260.902 266.25
L261.05 258.094
L262.241 147.272
L262.315 145.705
L262.39 146.488
L262.613 163.546
L263.059 195.994
L263.282 202.168
L263.357 201.877
L263.729 190.917
L263.803 191.232
L263.952 194.005
L264.101 191.969
L264.25 193.966
L264.398 198.229
L264.994 228.872
L265.142 230.139
L265.366 225.231
L265.514 219.279
L266.333 157.847
L266.482 155.389
L266.556 156.457
L266.705 167.386
L267.002 193.728
L267.672 215.378
L267.821 215.516
L267.895 215.355
L268.193 211.392
L268.416 201.585
L268.49 200.686
L268.714 196.201
L268.862 194.327
L269.011 195.118
L269.16 187.63
L269.532 171.702
L269.606 172.316
L269.681 175.48
L270.053 208.719
L270.127 209.487
L270.425 199.442
L270.648 191.685
L270.946 187.63
L271.02 188.291
L271.392 206.899
L271.69 217.298
L271.838 214.126
L271.987 215.701
L272.062 215.509
L272.508 195.241
L272.806 182.039
L272.954 178.499
L273.029 178.598
L273.103 178.253
L273.178 176.855
L273.326 183.168
L273.475 188.605
L273.55 188.498
L273.624 188.475
L273.698 188.682
L273.773 188.398
L274.07 180.449
L274.145 181.701
L274.368 199.811
L274.666 225.185
L274.814 227.059
L275.186 218.719
L275.633 168.123
L275.707 168.323
L275.856 178.36
L276.228 208.305
L276.377 210.547
L276.526 205.018
L276.972 177.608
L277.046 178.161
L277.195 183.237
L277.344 192.2
L277.642 214.771
L277.79 221.176
L277.865 219.794
L278.014 209.372
L278.386 170.35
L278.46 166.994
L278.534 168.906
L278.758 192.115
L279.055 225.485
L279.204 229.386
L279.278 227.896
L279.502 210.171
L279.948 175.457
L280.171 167.47
L280.246 167.624
L280.543 187.215
L280.841 200.494
L280.99 209.042
L281.138 215.132
L281.436 208.988
L281.585 201.085
L281.734 200.302
L281.808 200.517
L281.957 199.304
L282.106 197.069
L282.552 179.558
L282.701 184.727
L282.924 199.212
L283.37 220.485
L283.445 223.242
L283.519 222.367
L284.114 184.881
L284.189 184.643
L284.338 179.159
L284.71 162.432
L284.858 159.598
L285.082 153.201
L285.23 165.243
L285.528 221.384
L285.9 291.364
L286.049 295.688
L286.198 279.675
L286.644 190.533
L287.165 76.7386
L287.239 76.1242
L287.314 83.9885
L287.983 245.883
L288.132 250.053
L288.281 250.168
L288.355 248.893
L288.727 226.045
L289.248 181.993
L289.769 158.047
L290.141 138.563
L290.215 140.951
L290.364 160.274
L290.885 260.536
L291.034 267.21
L291.108 266.35
L291.406 249.631
L292.001 174.82
L292.298 135.913
L292.373 134.538
L292.522 148.193
L293.042 237.074
L293.117 236.582
L293.266 224.87
L293.638 164.598
L294.158 88.873
L294.233 90.3015
L294.382 129.677
L294.902 328.435
L295.051 330.325
L295.2 320.517
L295.349 288.023
L295.944 121.052
L296.018 116.575
L296.093 118.287
L296.39 152.225
L296.911 203.075
L296.986 204.15
L297.432 195.026
L297.506 195.356
L297.581 195.272
L297.73 188.621
L297.878 182.554
L297.953 183.368
L298.176 199.388
L298.622 238.203
L298.697 237.473
L298.846 226.115
L299.218 185.702
L299.292 183.798
L299.366 184.489
L299.515 192.576
L299.738 199.703
L299.813 199.227
L299.962 194.534
L300.334 173.814
L300.408 174.305
L301.152 199.089
L301.226 200.018
L301.301 199.043
L301.375 199.373
L301.524 203.558
L302.119 234.893
L302.194 232.166
L302.566 182.454
L302.938 135.867
L303.012 134.845
L303.161 148.931
L303.83 241.329
L303.905 241.198
L304.054 234.647
L304.798 180.157
L304.872 182.277
L305.095 201.769
L305.467 233.495
L305.542 229.663
L306.211 147.149
L306.286 146.673
L306.36 147.364
L306.434 146.135
L306.583 131.766
L306.658 131.797
L306.806 147.287
L306.955 180.733
L307.327 296.717
L307.402 301.632
L307.476 299.297
L307.625 291.663
L307.848 247.588
L308.369 99.072
L308.518 114.086
L308.815 177.7
L309.113 224.694
L309.41 243.464
L309.485 243.51
L309.634 238.011
L309.857 209.833
L310.154 172.247
L310.229 171.11
L310.303 172.547
L310.526 189.082
L310.75 201.155
L310.824 202.261
L310.898 202.015
L311.047 198.098
L311.196 199.396
L311.642 161.111
L311.791 164.137
L311.94 174.428
L312.461 231.014
L312.684 236.836
L312.758 236.214
L312.982 227.405
L313.056 223.665
L313.577 160.289
L313.651 160.858
L314.246 208.742
L314.321 208.712
L314.47 203.251
L314.618 192.883
L314.916 172.869
L315.065 169.882
L315.437 186.609
L315.809 211.039
L315.883 208.727
L316.106 194.35
L316.255 207.022
L316.627 280.351
L316.702 280.282
L316.85 259.208
L317.669 107.835
L317.743 102.613
L317.818 103.258
L317.892 102.559
L317.966 104.356
L318.115 121.574
L319.008 363.855
L319.082 359.916
L319.306 245.883
L319.603 112.013
L319.752 98.0199
L319.826 99.1028
L319.975 116.221
L320.57 244.309
L320.719 225.531
L321.166 165.973
L321.24 162.033
L321.314 163.976
L321.612 189.727
L321.761 183.183
L321.835 184.366
L322.207 201.469
L322.282 202.959
L322.356 202.314
L322.43 201.155
L322.505 201.6
L322.579 204.488
L322.654 203.551
L322.728 203.574
L322.877 223.565
L323.174 295.189
L323.323 264.184
L323.844 116.46
L323.918 113.08
L323.993 114.747
L324.142 134.339
L324.662 268.024
L324.737 262.979
L324.96 214.94
L325.258 133.617
L325.332 134.031
L325.555 171.325
L325.778 201.685
L325.927 198.013
L326.15 188.099
L326.448 172.385
L326.522 173.998
L326.671 188.797
L327.192 260.475
L327.266 257.188
L327.787 205.54
L328.159 180.895
L328.382 154.383
L328.457 154.084
L328.606 166.333
L328.903 197.952
L329.052 185.388
L329.35 155.259
L329.424 157.325
L329.647 189.466
L330.094 258.409
L330.168 263.962
L330.242 261.596
L330.466 235.453
L330.689 220.777
L330.838 209.518
L330.986 187.945
L331.582 65.7792
L331.73 95.8311
L332.4 328.082
L332.549 315.041
L332.846 249.784
L333.293 141.381
L333.516 126.129
L333.59 122.135
L333.665 123.725
L333.814 145.981
L334.111 188.175
L334.26 197.806
L334.409 196.408
L334.483 196.892
L334.706 189.75
L334.781 191.232
L335.004 207.898
L335.302 233.549
L335.376 233.979
L335.599 228.25
L336.12 193.789
L336.269 191.34
L336.492 185.28
L337.162 201.592
L337.236 200.97
L337.459 193.659
L337.831 164.567
L337.98 161.011
L338.054 163.077
L338.65 213.85
L338.724 213.512
L338.873 207.69
L339.468 224.579
L339.617 224.271
L339.691 224.847
L339.766 223.012
L339.989 208.835
L340.138 206.116
L340.286 200.241
L340.51 181.394
L340.733 152.955
L340.956 149.43
L341.105 157.885
L341.402 192.215
L341.7 221.115
L341.849 229.44
L341.923 228.242
L342.37 196.347
L342.518 200.118
L342.593 199.811
L342.667 199.841
L342.816 203.105
L343.039 209.572
L343.188 202.184
L343.634 181.647
L343.709 181.286
L343.932 195.564
L344.23 210.255
L344.304 210.501
L344.378 208.996
L344.602 192.814
L344.974 168.591
L345.048 170.089
L345.271 199.503
L345.569 242.749
L345.643 242.657
L345.792 227.305
L346.313 150.62
L346.387 150.812
L346.536 162.278
L346.759 197.883
L346.982 232.051
L347.057 234.877
L347.131 232.466
L347.652 176.671
L347.726 177.354
L348.173 199.181
L348.247 199.05
L348.322 199.749
L348.619 211.146
L348.768 216.73
L349.066 209.518
L349.81 174.497
L349.958 178.414
L350.256 190.71
L350.33 190.157
L350.479 186.094
L350.777 210.632
L351.074 230.584
L351.149 231.322
L351.223 230.154
L351.744 194.895
L352.116 147.832
L352.19 146.988
L352.339 156.603
L352.637 181.501
L353.009 223.25
L353.232 230.577
L353.381 225.792
L353.976 184.988
L354.125 186.701
L354.348 188.567
L354.646 194.511
L354.72 194.135
L354.943 195.341
L355.241 207.852
L355.464 218.266
L355.538 217.129
L355.91 188.897
L356.208 168.883
L356.282 166.487
L356.357 168.146
L356.729 194.55
L356.952 219.894
L357.026 222.505
L357.101 222.067
L357.25 216.591
L357.622 187.2
L357.845 172.378
L357.919 171.157
L358.068 174.728
L358.366 198.459
L358.589 227.981
L358.663 229.548
L358.886 222.589
L359.11 214.856
L359.333 188.675
L359.482 171.802
L359.556 172.6
L360.002 189.811
L360.3 212.014
L360.374 212.751
L360.598 207.621
L361.044 188.744
L361.118 188.797
L361.342 195.671
L361.416 194.627
L361.788 173.967
L361.937 176.072
L362.086 172.938
L362.16 174.152
L362.755 206.362
L363.053 242.742
L363.35 254.769
L363.425 252.71
L363.574 236.506
L364.094 151.273
L364.169 149.422
L364.243 149.914
L364.392 156.319
L364.987 199.135
L365.136 193.582
L365.359 180.196
L365.434 180.956
L365.582 188.882
L366.029 240.177
L366.103 242.435
L366.178 241.644
L366.401 220.355
L366.698 189.589
L366.847 184.512
L366.922 185.004
L366.996 184.527
L367.219 181.087
L367.294 181.164
L367.368 180.549
L367.517 172.885
L367.814 158.3
L367.889 159.222
L368.112 168.76
L368.261 187.553
L368.707 257.725
L368.93 267.709
L369.005 265.498
L369.154 244.439
L369.749 130.837
L369.972 157.048
L370.493 241.636
L370.567 242.373
L370.716 230.231
L370.939 190.211
L371.237 125.046
L371.311 121.636
L371.386 123.679
L371.534 145.505
L372.13 277.909
L372.204 274.975
L372.502 223.073
L372.799 173.13
L372.874 169.229
L373.171 186.785
L373.394 192.676
L373.469 192.499
L373.841 159.944
L373.915 160.389
L374.064 170.542
L374.362 193.813
L374.808 234.171
L374.882 233.756
L375.18 204.918
L375.478 172.731
L375.552 173.676
L375.775 195.679
L376.073 227.09
L376.147 228.503
L376.222 227.082
L376.37 213.028
L376.817 157.978
L376.891 155.843
L376.966 157.862
L377.114 173.322
L377.486 216.776
L377.71 233.395
L377.784 232.435
L377.933 224.663
L378.528 170.043
L378.751 174.474
L379.049 194.435
L379.272 206.646
L379.346 205.747
L379.57 187.008
L379.793 176.433
L379.942 172.877
L380.09 183.683
L380.537 231.921
L380.611 235.069
L380.686 232.481
L381.281 182.83
L381.355 181.832
L381.578 190.341
L381.802 207.928
L381.876 207.245
L382.025 209.157
L382.099 207.69
L382.248 192.975
L382.546 165.42
L382.769 153.961
L382.918 170.12
L383.438 235.692
L383.587 231.613
L383.81 213.942
L384.034 197.169
L384.108 196.785
L384.331 180.28
L384.406 181.171
L384.703 188.498
L384.778 188.152
L384.926 191.217
L385.075 197.107
L385.298 210.033
L385.596 188.897
L385.819 185.027
L385.894 185.388
L386.34 213.804
L386.489 209.702
L386.786 195.917
L386.861 198.697
L386.935 198.067
L387.084 187.592
L387.158 188.283
L387.456 199.718
L387.605 200.986
L387.679 200.594
L387.977 187.592
L388.349 159.398
L388.572 164.513
L388.795 200.824
L389.242 260.245
L389.316 261.013
L389.465 243.625
L390.06 147.126
L390.134 147.18
L390.209 151.027
L390.73 218.488
L390.804 218.995
L390.878 217.091
L391.027 208.643
L391.102 208.988
L391.176 207.813
L391.474 181.279
L391.548 178.86
L391.622 180.833
L391.994 210.232
L392.069 209.71
L392.292 192.806
L392.59 168.653
L392.738 168.499
L392.813 170.266
L392.962 187.269
L393.334 234.924
L393.408 235.907
L393.854 188.905
L394.078 166.986
L394.152 166.518
L394.226 168.73
L394.45 193.413
L394.822 237.297
L394.896 239.762
L394.97 239.754
L395.119 231.153
L395.789 156.902
L395.863 157.094
L396.012 166.157
L396.384 206.346
L396.458 204.027
L396.905 193.882
L396.979 194.081
L397.054 194.588
L397.277 190.249
L397.351 190.203
L397.5 198.628
L397.798 220.063
L397.872 222.006
L398.542 184.781
L398.616 184.451
L398.765 190.149
L398.988 206.423
L399.062 205.148
L399.211 196.332
L399.658 204.219
L399.881 201.032
L400.03 197.276
L400.104 197.606
L400.178 199.235
L400.253 198.39
L400.402 194.926
L400.55 202.568
L400.774 217.029
L400.922 204.611
L401.443 154.483
L401.518 151.68
L401.666 157.801
L401.89 196.693
L402.187 231.329
L402.262 232.044
L402.41 229.148
L402.559 217.559
L402.931 166.495
L403.006 166.587
L403.154 177.9
L403.601 235.899
L403.675 234.578
L404.122 195.256
L404.419 174.152
L404.494 172.554
L404.568 172.746
L404.717 181.294
L405.014 213.181
L405.089 211.853
L405.535 177.715
L405.61 178.084
L406.205 210.632
L406.279 211.607
L406.428 202.806
L406.651 180.58
L406.726 179.328
L406.874 182.692
L407.023 191.816
L407.321 208.896
L407.47 214.487
L407.693 222.927
L407.767 222.49
L407.916 216.399
L408.214 189.911
L408.437 179.42
L408.511 177.999
L408.586 178.491
L408.809 186.67
L409.181 198.574
L409.255 198.935
L409.33 197.407
L409.553 185.096
L409.627 185.725
L409.85 191.823
L409.925 189.919
L409.999 191.109
L410.148 197.368
L410.222 196.047
L410.297 196.155
L410.52 208.765
L410.818 196.562
L410.966 202.568
L411.041 202.261
L411.115 201.815
L411.264 206.63
L411.338 204.795
L411.413 201.347
L411.487 202.391
L411.71 207.583
L411.785 208.466
L411.934 205.048
L412.157 193.229
L412.38 184.635
L412.454 183.89
L412.603 181.141
L412.678 182.062
L412.901 191.562
L413.347 211.93
L413.422 211.146
L413.868 178.944
L413.942 179.505
L414.166 189.673
L414.314 198.766
L414.389 196.14
L414.612 185.864
L414.686 187.254
L415.356 226.767
L415.505 229.586
L415.579 225.37
L416.026 167.647
L416.1 167.378
L416.174 168.576
L416.844 196.04
L416.918 194.688
L417.067 198.374
L417.216 200.671
L417.29 199.381
L417.365 199.872
L417.514 204.749
L417.737 195.932
L417.811 197.422
L417.886 197.568
L418.034 187.753
L418.109 189.397
L418.778 235.384
L418.853 232.981
L419.15 202.959
L419.522 166.487
L419.597 166.257
L419.894 169.997
L420.043 173.629
L420.787 206.423
L420.862 206.185
L421.01 200.072
L421.085 201.784
L421.457 224.448
L421.531 224.502
L421.754 205.801
L421.978 188.091
L422.126 190.303
L422.275 187.83
L422.35 187.837
L422.796 205.978
L422.87 207.552
L422.945 206.792
L423.689 155.42
L423.763 156.48
L423.986 185.126
L424.433 238.095
L424.507 241.398
L424.582 239.885
L424.73 223.35
L425.177 166.464
L425.474 181.824
L425.623 201.784
L425.921 234.655
L425.995 235.861
L426.218 217.267
L426.665 175.204
L426.814 175.373
L426.962 177.761
L427.111 176.271
L427.186 176.648
L427.334 177.508
L427.483 182.63
L427.781 199.012
L427.855 198.72
L428.004 194.104
L428.376 206.461
L428.45 211.592
L428.525 210.125
L429.046 178.399
L429.194 187.592
L429.715 249.761
L429.79 249.393
L430.013 225.692
L430.459 149.184
L430.682 145.298
L430.757 144.323
L430.98 161.096
L431.501 233.61
L431.575 233.05
L431.65 229.839
L431.947 195.901
L432.245 187.238
L432.319 187.354
L432.468 190.664
L432.542 189.458
L432.617 190.057
L432.914 201.477
L433.138 215.532
L433.286 227.497
L433.361 225.823
L433.882 186.908
L434.105 175.381
L434.179 174.728
L434.477 160.566
L434.551 162.778
L434.7 179.32
L435.146 241.413
L435.221 243.011
L435.295 241.782
L435.444 227.29
L436.039 146.857
L436.114 147.802
L436.262 161.357
L436.783 233.633
L436.858 237.896
L436.932 236.398
L437.378 216.837
L437.453 216.422
L437.527 214.395
L437.75 190.464
L438.197 140.582
L438.271 143.854
L438.494 183.068
L438.866 246.912
L438.941 250.975
L439.015 247.665
L439.462 177.638
L439.685 151.895
L439.834 148.6
L439.982 162.555
L440.28 234.747
L440.503 258.662
L440.652 240.538
L441.024 166.303
L441.247 151.004
L441.396 156.495
L441.768 192.737
L442.066 224.932
L442.14 225.347
L442.363 233.165
L442.512 227.535
L442.735 213.88
L443.107 180.434
L443.256 176.195
L443.33 178.46
L443.405 177.331
L443.554 167.194
L443.702 170.02
L443.851 184.412
L444.298 244.885
L444.372 243.602
L444.521 233.011
L444.67 208.082
L445.042 132.956
L445.116 127.012
L445.19 127.304
L445.339 145.567
L445.86 234.901
L445.934 234.217
L446.158 222.643
L446.604 190.203
L446.678 191.232
L446.827 199.204
L447.199 234.97
L447.274 234.271
L447.571 223.465
L448.092 175.135
L448.538 146.396
L448.613 145.052
L448.687 145.167
L448.762 147.003
L449.059 172.401
L449.506 246.789
L449.58 249.9
L449.654 248.932
L449.878 224.909
L449.878 224.909" style="fill:none;stroke:#808080;stroke-linecap:square;"/>
   </g>
  </g>
 </g>
 <defs>
  <clipPath id="p7ff5b81e1d">
   <rect height="345.6" width="446.4" x="72.0" y="43.2"/>
  </clipPath>
 </defs>
</svg>
