<?xml version="1.0" encoding="utf-8" standalone="no"?>
<!DOCTYPE svg PUBLIC "-//W3C//DTD SVG 1.1//EN"
  "http://www.w3.org/Graphics/SVG/1.1/DTD/svg11.dtd">
<!-- Created with matplotlib (http://matplotlib.org/) -->
<svg height="432pt" version="1.1" viewBox="0 0 576 432" width="576pt" xmlns="http://www.w3.org/2000/svg" xmlns:xlink="http://www.w3.org/1999/xlink">
 <defs>
  <style type="text/css">
*{stroke-linecap:butt;stroke-linejoin:round;}
  </style>
 </defs>
 <g id="figure_1">
  <g id="patch_1">
   <path d="
M0 432
L576 432
L576 0
L0 0
z
" style="fill:#ffffff;"/>
  </g>
  <g id="axes_1">
   <g id="line2d_1">
    <path clip-path="url(#p7ff5b81e1d)" d="
M72 133.805
L72.5208 252.662
L72.6696 261.948
L72.744 262.156
L72.8184 259.806
L72.9672 239.726
L73.5624 85.0357
L73.6368 93.5522
L74.0832 215.974
L74.1576 217.865
L74.232 217.445
L74.3064 215.371
L74.3808 215.421
L74.7528 239.618
L74.9016 246.964
L74.976 245.399
L75.1248 228.252
L75.6456 132.491
L75.8688 66.9855
L76.0176 99.3534
L76.6128 258.833
L76.6872 257.865
L77.1336 240.106
L77.952 151.48
L78.2496 112.54
L78.324 113.651
L78.4728 133.099
L79.068 235.1
L79.1424 236.527
L79.9608 189.17
L80.184 186.351
L80.2584 186.82
L80.3328 189.175
L80.6304 219.706
L80.8536 248.109
L80.928 247.487
L81.3 201.681
L81.672 113.967
L81.8208 107.855
L81.8952 111.405
L82.044 137.32
L82.2672 184.677
L82.5648 198.787
L82.788 193.386
L82.8624 193.993
L83.0112 204.278
L83.3832 260.359
L83.4576 259.583
L83.6064 240.837
L84.0528 169.5
L84.1272 166.232
L84.276 169.609
L84.3504 168.069
L84.8712 146.227
L84.9456 145.022
L85.02 147.678
L85.1688 189.58
L85.392 264.609
L85.4664 260.408
L85.8384 206.465
L86.136 173.376
L86.2848 138.337
L86.3592 139.231
L86.4336 144.805
L86.508 144.681
L86.5824 141.689
L86.6568 142.766
L86.88 172.364
L87.1776 264.422
L87.252 262.911
L87.4752 243.873
L87.5496 244.288
L87.624 242.664
L87.7728 223.878
L88.0704 158.787
L88.1448 158.851
L88.2936 172.369
L88.368 170.754
L88.6656 119.946
L88.74 120.865
L88.8888 139.532
L89.4096 237.011
L89.5584 250.499
L89.6328 250.232
L89.9304 218.61
L90.0048 221.533
L90.0792 222.821
L90.228 205.033
L90.6 121.817
L90.7488 117.873
L90.8232 117.952
L90.972 137.967
L91.4928 276.414
L91.7904 249.225
L92.0136 193.208
L92.3856 113.232
L92.46 105.732
L92.5344 106.68
L92.6832 154.141
L92.9064 226.983
L93.1296 248.983
L93.204 248.514
L93.3528 227.788
L93.7248 160.302
L93.7992 165.304
L94.0968 207.98
L94.32 194.068
L94.5432 168.493
L94.7664 143.403
L94.8408 145.007
L95.1384 165.472
L95.5104 210.498
L95.6592 203.177
L95.8824 242.738
L96.1056 283.568
L96.18 275.323
L96.7752 91.2416
L96.8496 76.1587
L96.924 81.5648
L97.296 219.79
L97.3704 218.872
L97.5192 215.89
L97.668 230.074
L97.9656 295.037
L98.04 292.188
L98.784 117.226
L98.9328 110.304
L99.0816 104.093
L99.2304 130.882
L99.8256 282.62
L100.198 231.58
L100.57 165.857
L100.718 157.74
L100.793 158.91
L100.942 163.635
L101.016 163.235
L101.239 117.009
L101.462 206.662
L101.686 155.765
L102.132 248.574
L102.206 249.995
L102.281 249.383
L102.43 229.956
L102.727 186.553
L103.025 158.639
L103.546 241.143
L103.62 238.082
L103.843 173.697
L104.066 122.997
L104.81 161.566
L105.034 196.092
L105.331 235.905
L105.778 262.654
L105.852 260.941
L106.001 243.967
L106.373 188.01
L106.596 169.026
L106.819 153.899
L107.042 142.81
L107.117 145.54
L107.191 144.207
L107.34 138.273
L107.414 141.112
L107.712 182.964
L108.233 271.571
L108.382 257.347
L109.051 120.825
L109.126 122.706
L109.274 140.509
L109.721 219.83
L109.87 227.665
L109.944 227.625
L110.167 217.85
L110.688 166.291
L110.762 165.748
L110.837 167.634
L110.986 188.721
L111.134 206.963
L111.432 166.642
L111.506 170.952
L112.027 252.973
L112.102 250.4
L112.25 218.131
L112.622 115.577
L112.697 113.567
L112.92 167.051
L113.292 244.495
L113.366 243.804
L113.515 224.688
L113.962 158.066
L114.259 138.925
L114.408 153.899
L114.929 262.126
L115.003 260.349
L115.152 233.678
L115.45 159.986
L115.598 149.623
L115.673 151.559
L116.342 191.357
L116.417 193.144
L116.491 192.996
L116.714 186.993
L116.789 187.773
L116.938 191.367
L117.086 189.397
L117.384 192.947
L117.533 199.37
L117.83 225.695
L117.905 223.636
L118.277 192.547
L118.351 191.875
L118.426 193.668
L118.649 212.69
L118.723 207.245
L118.946 145.298
L119.095 117.068
L119.244 136.668
L119.765 262.758
L119.839 261.257
L119.988 230.509
L120.36 122.074
L120.509 144.943
L120.658 169.515
L120.732 168.789
L120.881 162.697
L121.03 173.119
L121.625 243.449
L121.699 242.684
L121.848 232.794
L122.592 162.104
L122.666 162.85
L123.038 180.313
L123.187 178.812
L123.262 179.473
L123.485 189.871
L123.634 179.681
L123.857 164.104
L124.154 196.033
L124.229 189.866
L124.452 150.961
L124.601 191.925
L124.824 262.556
L124.898 268.011
L124.973 267.675
L125.27 254.868
L125.419 235.001
L125.94 136.283
L126.238 128.132
L126.386 139.966
L126.61 163.122
L126.684 164.139
L126.907 147.782
L126.982 152.378
L127.428 261.316
L127.502 257.86
L128.023 200.683
L128.172 220.703
L128.395 248.1
L128.767 214.636
L129.362 113.306
L129.437 112.718
L129.511 113.928
L129.586 113.449
L129.66 110.699
L129.734 111.889
L129.809 113.572
L130.032 155.617
L130.33 212.7
L130.553 227.117
L130.999 288.678
L131.074 287.849
L131.446 241.341
L131.818 167.382
L132.041 152.99
L132.338 120.015
L132.562 91.5527
L132.636 94.9593
L132.859 147.426
L133.306 253.99
L133.38 245.745
L133.678 171.727
L133.752 177.642
L134.198 256.745
L134.347 268.51
L134.422 269.157
L134.496 261.173
L135.017 124.464
L135.166 113.795
L135.314 128.838
L135.984 218.704
L136.058 218.867
L136.133 216.433
L136.43 171.041
L136.505 175.948
L136.802 217.124
L136.877 218.151
L137.174 239
L137.249 236.705
L137.398 215.258
L137.918 133.597
L137.993 131.618
L138.142 147.352
L138.514 218.264
L138.588 214.907
L138.737 199.237
L139.034 158.89
L139.332 177.765
L139.481 196.837
L139.853 248.425
L139.927 247.823
L140.076 235.614
L140.671 154.496
L140.969 143.778
L141.043 144.543
L141.192 166
L141.415 198.249
L141.564 184.81
L141.638 187.546
L142.085 248.949
L142.159 248.722
L142.308 233.387
L142.754 159.29
L142.829 161.917
L143.052 170.996
L143.126 168.528
L143.35 146.592
L143.424 147.767
L144.317 230.252
L144.466 212.611
L144.614 194.245
L144.689 195.973
L144.838 209.837
L144.912 209.713
L145.061 199.084
L145.284 164.785
L145.358 165.659
L145.582 196.837
L145.656 196.729
L146.028 177.573
L146.177 161.971
L146.326 190.947
L146.549 220.368
L146.921 183.882
L146.995 187.348
L147.144 194.275
L147.218 192.818
L147.367 181.374
L147.59 163.956
L147.739 168.533
L147.962 198.155
L148.26 236.329
L148.334 239.702
L148.409 236.329
L148.855 177.375
L149.004 181.305
L149.227 172.087
L149.376 164.973
L149.525 164.356
L149.599 164.553
L149.822 163.882
L149.897 162.781
L150.046 173.87
L150.269 222.57
L150.566 275.116
L150.79 205.482
L151.087 139.784
L151.162 141.378
L151.534 184.406
L151.608 183.946
L151.682 182.998
L151.757 183.946
L152.054 214.137
L152.129 213.347
L152.426 188.938
L152.501 189.392
L152.724 201.389
L152.947 235.1
L153.022 246.693
L153.096 244.925
L153.245 203.665
L153.468 148.211
L153.617 140.801
L153.766 132.659
L153.84 133.257
L153.989 148.231
L154.361 192.641
L155.03 223.384
L155.254 228.731
L155.328 227.946
L155.626 202.782
L155.7 204.11
L155.774 207.358
L155.849 206.558
L155.998 193.11
L156.37 139.586
L156.518 153.652
L157.039 226.366
L157.114 227.013
L157.188 222.668
L157.56 168.77
L157.634 170.379
L158.006 180.495
L158.155 175.736
L158.304 170.182
L158.378 171.954
L158.527 185.413
L158.899 225.547
L158.974 225.734
L159.122 208.558
L159.494 156.738
L159.569 156.21
L159.718 162.988
L159.866 175.864
L160.015 197.667
L160.387 261.706
L160.61 248.109
L160.759 221.019
L161.057 149.184
L161.131 144.879
L161.206 145.224
L161.28 147.53
L161.652 179.784
L161.726 180.416
L162.024 157.454
L162.619 213.071
L162.694 211.56
L163.066 190.695
L163.363 162.455
L163.512 172.053
L163.884 200.204
L164.033 205.596
L164.256 186.222
L164.479 230.686
L164.628 246.811
L165 228.855
L165.446 166.79
L165.521 170.058
L165.67 185.911
L165.967 168.478
L166.116 162.356
L166.339 142.005
L166.488 160.964
L166.637 179.35
L166.786 173.83
L167.009 167.15
L167.083 165.235
L167.158 166.528
L167.306 172.709
L167.381 172.606
L167.455 172.941
L167.604 189.269
L167.827 221.77
L168.274 304.571
L168.348 302.882
L168.497 284.565
L168.72 212.503
L169.018 115.439
L169.166 111.459
L169.241 111.504
L169.464 122.992
L169.613 125.031
L169.762 123.19
L169.836 125.609
L170.059 168.231
L170.357 206.455
L170.729 236.932
L170.878 241.973
L170.952 240.99
L171.175 203.423
L171.25 203.843
L171.547 228.277
L171.622 228.958
L171.77 223.611
L171.845 224.224
L171.919 222.604
L172.068 204.376
L172.44 148.596
L172.663 140.692
L172.738 139.522
L172.812 143.111
L173.11 174.191
L173.333 184.524
L173.407 184.09
L173.63 212.858
L173.705 204.1
L173.854 184.544
L174.077 217.247
L174.374 241.41
L174.449 240.264
L174.895 184.341
L174.97 185.279
L175.118 191.169
L175.193 187.442
L175.565 128.769
L175.639 131.065
L175.788 158.007
L176.16 241.38
L176.234 242.807
L176.383 237.337
L176.532 222.802
L176.83 148.039
L176.978 113.311
L177.127 141.971
L177.499 240.264
L177.648 245.893
L177.797 224.199
L178.094 159.572
L178.169 162.174
L178.69 227.181
L178.764 226.5
L178.913 206.41
L179.285 122.543
L179.434 150.162
L179.806 246.969
L179.88 247.922
L180.029 230.642
L180.475 141.724
L180.55 143.58
L181.368 249.23
L181.666 203.907
L182.112 120.939
L182.261 111.104
L182.335 112.876
L182.484 143.319
L182.93 248.519
L183.079 251.269
L183.154 249.961
L183.302 232.464
L183.6 191.026
L183.823 206.845
L184.121 194.438
L184.27 198.383
L184.344 195.726
L184.79 158.446
L184.865 156.348
L185.014 160.164
L185.162 168.281
L185.311 162.973
L185.386 163.635
L185.758 180.209
L186.278 239.386
L186.353 239.608
L186.576 219.444
L186.725 178.831
L186.948 131.751
L187.097 160.135
L187.469 276.636
L187.543 270.164
L188.138 110.166
L188.213 118.124
L188.51 158.569
L188.659 176.694
L189.031 250.805
L189.478 169.17
L189.552 175.297
L189.85 186.43
L190.147 216.665
L190.222 215.332
L190.668 182.811
L190.742 184.657
L190.891 187.002
L190.966 186.059
L191.04 186.301
L191.189 189.506
L191.338 193.159
L191.486 186.879
L191.635 178.392
L191.71 178.52
L191.933 185.279
L192.082 184.381
L192.305 188.967
L192.528 181.093
L192.677 191.387
L192.9 224.466
L193.049 248.771
L193.123 244.629
L193.57 161.64
L193.867 164.346
L194.016 159.74
L194.165 186.346
L194.388 223.917
L194.537 211.175
L194.983 167.16
L195.132 157.854
L195.43 183.23
L195.727 212.3
L195.802 211.318
L196.025 203.473
L196.174 211.486
L196.248 215.717
L196.322 215.445
L196.397 212.641
L196.769 248.193
L196.843 242.402
L197.364 103.762
L197.438 105.599
L197.736 143.728
L198.257 225.71
L198.48 235.574
L198.554 235.219
L198.703 220.353
L199.15 165.891
L199.224 163.749
L199.298 165.723
L199.894 225.72
L200.042 236.063
L200.191 220.471
L200.563 162.929
L200.638 163.497
L200.786 177.908
L201.158 224.796
L201.307 206.302
L201.605 165.319
L201.754 161.956
L201.828 161.448
L202.051 142.662
L202.126 143.225
L202.274 174.897
L202.498 207.595
L202.572 208.563
L202.646 212.404
L202.944 244.772
L203.093 222.861
L203.39 180.002
L203.539 176.57
L203.614 176.496
L203.688 177.395
L203.837 187.249
L203.986 194.927
L204.06 192.991
L204.432 159.991
L204.506 160.924
L204.655 186.499
L204.878 220.215
L205.102 211.106
L205.325 219.41
L205.474 210.454
L205.994 149.826
L206.069 152.354
L206.292 187.965
L206.515 205.043
L206.664 196.911
L206.887 181.66
L206.962 182.194
L207.185 189.422
L207.557 220.634
L207.631 217.697
L207.78 199.153
L207.929 181.28
L208.003 181.335
L208.152 194.966
L208.375 213.52
L208.524 189.95
L208.822 133.355
L208.896 138.939
L209.342 218.027
L209.491 208.746
L209.714 199.335
L209.863 201.611
L210.012 197.943
L210.384 185.561
L210.458 185.566
L210.83 200.244
L211.054 209.462
L211.128 207.487
L211.351 198.837
L211.426 198.787
L211.574 191.085
L211.798 177.879
L211.872 177.207
L212.17 168.009
L212.467 185.822
L212.542 183.902
L212.914 176.022
L213.062 187.111
L213.434 221.079
L213.509 220.644
L213.732 206.741
L214.104 184.845
L214.699 204.396
L214.774 204.337
L214.922 198.861
L215.369 175.099
L215.443 175.079
L215.666 182.84
L215.815 183.344
L216.038 178.555
L216.113 179.143
L216.262 179.592
L216.782 199.691
L217.006 215.87
L217.154 212.142
L217.675 190.409
L217.824 187.857
L217.973 188.439
L218.047 188.271
L218.419 178.975
L218.494 179.375
L218.568 180.727
L218.642 180.461
L218.791 174.077
L218.94 179.088
L219.535 211.501
L219.833 222.891
L220.13 211.856
L220.8 151.771
L221.098 160.026
L221.916 219.874
L222.065 221.869
L222.288 215.954
L222.66 169.698
L222.734 170.69
L222.958 177.884
L223.478 223.187
L223.776 215.747
L223.925 204.717
L224.371 146.172
L224.446 147.14
L225.041 182.455
L225.19 190.202
L225.264 190.715
L225.338 190.35
L225.413 191.87
L225.636 208.257
L226.008 236.181
L226.231 230.281
L226.454 201.878
L226.826 162.09
L226.975 158.545
L227.273 173.213
L227.347 173.05
L227.422 173.445
L227.645 185.166
L227.719 185.092
L227.868 183.23
L228.017 187.235
L228.612 223.597
L228.686 222.619
L229.282 179.774
L229.43 186.168
L229.654 193.307
L230.026 198.995
L230.77 164.706
L230.918 167.757
L230.993 167.985
L231.29 193.174
L231.588 211.994
L231.96 183.818
L232.109 187.911
L232.481 205.517
L232.704 223.157
L233.002 226.87
L233.076 222.649
L233.522 158.999
L233.597 159.063
L233.746 171.228
L233.969 198.037
L234.043 197.805
L234.341 181.739
L234.638 179.123
L234.713 179.286
L234.862 184.647
L235.01 190.281
L235.085 189.106
L235.159 189.718
L235.531 200.461
L235.606 201.197
L235.68 200.649
L236.275 184.568
L236.424 180.55
L236.573 187.847
L236.722 197.148
L236.945 191.026
L237.168 199.247
L237.242 198.234
L237.466 193.969
L237.689 192.542
L237.763 192.048
L237.986 198.432
L238.135 191.826
L238.21 187.911
L238.284 188.805
L238.582 206.904
L238.73 208.41
L238.805 206.633
L238.954 190.379
L239.251 153.573
L239.326 152.541
L239.4 152.655
L239.474 154.205
L239.623 166.992
L239.995 204.673
L240.07 205.359
L240.367 215.273
L240.516 217.973
L240.665 214.023
L240.962 197.494
L241.111 197.573
L241.26 191.006
L241.558 180.461
L241.632 180.638
L241.781 181.779
L241.93 187.195
L242.004 187.091
L242.45 166.824
L242.525 166.35
L242.674 171.125
L243.343 213.461
L243.492 216.694
L243.566 216.433
L243.938 202.88
L244.087 198.555
L244.162 198.076
L244.459 183.779
L244.682 173.628
L244.906 169.456
L245.054 174.536
L245.278 195.889
L245.426 209.861
L245.501 208.598
L245.575 208.889
L245.65 208.805
L245.873 188.676
L246.096 174.902
L246.617 193.021
L246.691 193.12
L246.989 186.701
L247.138 180.426
L247.212 181.799
L247.361 192.349
L247.584 209.713
L247.733 211.471
L247.882 205.344
L248.179 179.207
L248.328 188.548
L248.551 200.15
L248.626 200.372
L248.849 189.545
L249.146 170.616
L249.221 170.981
L249.518 184.035
L249.89 207.363
L249.965 206.86
L250.188 198.713
L250.709 157.572
L250.783 155
L250.858 157.138
L251.006 178.338
L251.378 242.111
L251.453 244.263
L251.602 237.84
L252.346 187.773
L252.569 174.734
L252.792 162.322
L252.941 159.167
L253.313 140.218
L253.536 152.936
L254.131 219.444
L254.354 229.22
L254.503 234.355
L254.726 250.578
L255.842 148.093
L255.991 143.793
L256.214 155.711
L256.438 188.079
L256.884 234.083
L257.033 237.593
L257.182 229.289
L257.702 171.401
L257.926 155.326
L258.521 168.942
L259.116 218.827
L259.265 221.286
L259.414 217.899
L259.562 213.712
L259.637 214.3
L259.711 213.085
L260.083 200.555
L260.232 194.892
L260.455 169.076
L260.827 125.219
L260.902 125.081
L261.05 142.889
L261.646 260.383
L261.72 260.141
L261.869 246.51
L262.464 166.227
L262.538 163.196
L262.613 163.803
L262.985 180.214
L263.134 179.577
L263.208 179.202
L263.729 186.963
L263.803 187.812
L264.175 206.292
L264.25 205.699
L264.398 197.543
L264.77 171.426
L264.919 175.573
L265.217 197.583
L265.44 211.288
L265.663 214.789
L265.738 214.344
L265.886 210.33
L266.184 200.817
L266.258 200.293
L266.407 202.974
L266.63 183.571
L267.002 153.687
L267.3 160.026
L267.449 170.814
L267.672 188.227
L267.821 201.562
L268.193 237.337
L268.416 241.849
L268.565 224.939
L269.011 142.237
L269.086 140.944
L269.16 143.106
L269.606 181.498
L269.978 213.194
L270.202 224.895
L270.276 223.853
L270.425 210.054
L270.722 176.753
L270.946 168.7
L271.392 183.779
L271.615 198.284
L271.69 198.536
L271.838 205.739
L272.136 218.99
L272.359 223.078
L272.434 222.94
L272.508 219.647
L272.731 182.263
L273.103 117.69
L273.178 120.943
L273.773 210.123
L273.996 224.08
L274.219 236.739
L274.442 245.725
L274.591 239.03
L274.74 246.125
L274.814 241.148
L274.963 191.915
L275.186 104.182
L275.261 101.61
L275.558 119.517
L275.707 113.859
L275.782 114.97
L275.93 149.668
L276.228 279.243
L276.302 270.46
L276.6 181.611
L276.674 183.892
L277.046 265.271
L277.121 263.291
L277.344 223.74
L277.642 180.337
L277.716 175.953
L277.79 177.331
L278.162 203.878
L278.237 203.483
L278.386 176.595
L278.758 87.44
L278.832 94.199
L279.502 239.445
L279.799 263.064
L279.948 247.527
L280.32 187.516
L280.543 171.683
L280.618 171.702
L280.99 190.577
L281.138 183.759
L281.362 141.156
L281.51 113.375
L281.585 118.006
L282.626 282.373
L282.701 279.144
L282.998 224.811
L283.445 123.777
L283.519 122.765
L283.668 138.317
L283.966 194.67
L284.114 181.142
L284.338 161.349
L284.561 170.103
L285.305 231.634
L285.379 230.306
L285.751 195.277
L286.049 173.341
L286.123 173.603
L286.272 176.136
L286.495 186.84
L286.793 204.248
L286.942 192.379
L287.239 153.825
L287.314 159.201
L287.686 219.356
L287.834 194.704
L287.983 173.865
L288.132 187.763
L288.355 207.561
L288.504 209.397
L288.653 202.949
L288.876 195.924
L288.95 194.467
L289.099 178.861
L289.248 160.125
L289.322 163.21
L289.918 218.778
L289.992 220.694
L290.066 219.849
L290.29 202.11
L290.587 162.47
L290.736 167.328
L290.885 180.737
L291.182 245.118
L291.257 239.252
L291.703 155.015
L291.926 167.718
L292.373 217.781
L292.447 215.909
L292.522 214.191
L292.596 214.813
L292.67 213.875
L292.819 201.804
L293.266 118.993
L293.34 120.405
L293.786 225.705
L294.01 255.515
L294.158 245.517
L294.828 167.19
L294.902 167.669
L295.051 179.562
L295.423 210.755
L295.572 194.305
L295.795 171.934
L296.093 160.712
L296.465 183.517
L296.688 200.861
L296.837 203.478
L296.986 200.17
L297.06 201.172
L297.283 215.643
L297.358 214.878
L297.506 211.639
L297.655 213.737
L297.73 213.446
L297.878 205.221
L298.399 167.224
L298.474 167.634
L298.697 181.438
L298.771 178.54
L299.143 112.728
L299.292 137.562
L299.813 258.685
L300.036 277.52
L300.259 254.32
L300.631 191.722
L300.854 117.581
L301.078 56.6619
L301.152 59.5748
L301.375 157.962
L301.673 275.555
L301.747 271.936
L302.194 160.446
L302.268 164.775
L302.938 266.56
L303.012 265.676
L303.161 247.631
L303.83 114.609
L303.979 105.772
L304.128 115.439
L304.426 161.971
L304.723 193.732
L304.946 213.001
L305.244 247.468
L305.318 246.47
L305.542 222.12
L305.839 197.025
L305.914 199.34
L306.062 216.102
L306.36 252.563
L306.509 233.254
L307.104 91.0985
L307.178 93.4387
L307.327 120.598
L307.774 242.718
L307.848 244.461
L307.997 241.755
L308.146 244.056
L308.294 229.714
L308.518 174.674
L308.815 103.071
L308.89 103.585
L309.038 131.751
L309.634 279.204
L309.708 278.848
L309.857 258.354
L310.303 137.982
L310.378 144.35
L310.75 243.069
L310.898 203.33
L311.27 66.0326
L311.345 71.6165
L311.568 135.291
L312.014 292.815
L312.089 296.933
L312.163 291.892
L312.61 226.095
L312.758 214.512
L313.279 132.008
L313.354 133.351
L313.502 151.045
L313.8 187.817
L313.874 186.751
L314.172 171.663
L314.544 184.307
L314.693 187.61
L314.842 197.138
L315.214 221.864
L315.288 223.128
L315.362 223.014
L315.437 221.977
L315.586 208.844
L316.106 143.131
L316.181 141.946
L316.255 143.872
L316.478 179.039
L316.85 229.062
L317.148 244.254
L317.297 248.485
L317.446 242.111
L318.19 147.806
L318.636 108.457
L318.785 125.417
L319.529 261.884
L319.678 266.505
L319.826 262.358
L320.57 205.773
L320.794 145.555
L321.091 57.2099
L321.166 55.0721
L321.314 84.3938
L321.984 279.406
L322.133 290.436
L322.579 266.481
L322.728 237.277
L323.174 95.2309
L323.249 97.0971
L323.472 115.824
L323.546 113.434
L323.695 97.5168
L323.77 100.672
L323.993 158.92
L324.439 288.411
L324.514 290.534
L324.737 271.753
L325.034 234.014
L325.555 156.323
L325.63 158.165
L326.002 233.698
L326.076 227.161
L326.671 109.272
L326.746 109.677
L326.969 94.5298
L327.118 119.764
L327.936 343.752
L328.01 341.115
L328.159 303.282
L328.754 75.7538
L328.829 81.5303
L329.201 151.213
L329.275 149.702
L329.35 154.146
L329.573 201.72
L329.796 170.651
L329.87 172.635
L330.54 270.021
L330.614 267.853
L330.763 255.387
L331.061 173.682
L331.433 95.7394
L331.507 93.2017
L331.656 114.974
L332.251 249.837
L332.4 222.214
L332.623 179.745
L332.698 180.752
L332.921 207.62
L333.144 228.948
L333.293 219.365
L333.59 199.671
L333.665 198.906
L333.814 190.997
L333.962 179.172
L334.111 185.674
L334.186 184.144
L334.26 177.943
L334.632 118.317
L334.781 138.86
L335.376 280.561
L335.525 260.018
L336.12 105.841
L336.194 109.736
L336.343 140.899
L336.715 235.91
L336.864 245.261
L336.938 245.305
L337.087 243.38
L337.162 243.789
L337.236 243.32
L337.385 235.52
L337.608 199.582
L338.278 72.9841
L338.352 79.6591
L338.65 175.173
L339.022 297.91
L339.17 314.178
L339.245 311.409
L339.394 288.505
L340.063 136.94
L340.138 137.123
L340.286 148.794
L340.435 160.337
L340.51 160.036
L340.658 157.424
L341.03 141.122
L341.179 160.228
L341.626 260.265
L341.7 260.334
L341.849 247.176
L342.518 149.46
L342.667 138.688
L342.742 141.531
L342.89 181.656
L343.039 218.521
L343.188 196.097
L343.337 182.865
L343.411 186.805
L343.56 227.186
L343.783 274.652
L343.932 254.478
L344.602 122.913
L344.676 122.198
L344.825 133.76
L345.494 190.523
L345.718 207.028
L346.015 230.4
L346.387 241.721
L346.462 240.195
L346.759 217.884
L347.057 187.704
L347.131 187.763
L347.206 187.516
L347.503 165.832
L347.578 165.886
L347.801 169.323
L347.875 169.327
L347.95 168.696
L348.024 171.297
L348.322 194.374
L348.396 192.423
L348.842 137.157
L348.991 156.743
L349.438 242.2
L349.512 242.175
L349.735 223.927
L350.033 206.504
L350.405 196.531
L350.479 196.773
L350.628 191.337
L351 170.463
L351.223 163.284
L351.298 163.403
L351.446 162.978
L351.595 168.824
L352.116 204.036
L352.339 208.736
L352.414 208.291
L352.711 200.496
L352.934 203.646
L353.083 200.51
L353.232 194.774
L353.306 194.981
L353.381 194.517
L353.604 185.368
L353.753 189.511
L353.827 188.656
L353.976 183.063
L354.125 177.192
L354.274 182.939
L354.348 183.053
L354.869 205.971
L355.018 195.119
L355.39 175.282
L355.613 172.576
L355.762 176.007
L355.91 189.111
L356.208 217.183
L356.282 218.492
L356.431 211.846
L356.803 185.526
L357.026 175.43
L357.175 180.184
L357.324 187.689
L357.547 203.458
L357.622 200.757
L357.919 155.099
L357.994 159.162
L358.217 193.396
L358.44 218.269
L358.514 218.062
L358.812 211.861
L359.11 210.163
L359.258 205.497
L359.482 173.949
L359.705 154.363
L359.779 153.153
L359.854 155.42
L360.226 191.293
L360.3 188.651
L360.523 152.551
L360.598 153.553
L360.746 176.921
L361.118 249.897
L361.342 259.939
L361.49 244.53
L362.234 137.952
L362.309 136.481
L362.383 137.147
L362.532 147.204
L363.127 208.435
L363.35 221.548
L363.425 221.113
L363.648 216.314
L363.797 221.217
L363.871 218.738
L364.094 182.569
L364.318 159.187
L364.392 158.698
L364.541 171.1
L364.913 202.816
L365.136 210.474
L365.285 197.524
L365.508 177.81
L365.582 175.894
L365.806 178.412
L366.401 205.551
L366.475 206.307
L366.55 205.245
L366.624 205.314
L366.847 208.509
L366.922 208.449
L367.07 200.096
L367.74 159.157
L367.889 168.493
L368.261 195.929
L368.41 194.798
L368.558 196.571
L368.93 212.241
L369.079 204.964
L369.451 181.626
L369.6 176.797
L370.046 193.969
L370.121 193.426
L370.195 194.541
L370.493 206.425
L370.567 204.816
L370.642 206.094
L370.79 213.342
L370.865 209.995
L371.014 185.847
L371.237 147.856
L371.311 147.895
L371.46 159.774
L371.906 207.304
L371.981 209.165
L372.055 207.398
L372.13 208.923
L372.278 222.466
L372.427 209.536
L372.725 185.052
L373.022 180.846
L373.097 182.174
L373.32 197.82
L373.543 188.064
L373.841 170.996
L373.99 165.886
L374.064 167.18
L374.213 176.086
L374.659 225.162
L374.734 228.287
L374.808 226.317
L375.254 192.048
L375.329 189.121
L375.403 190.093
L375.478 190.73
L375.924 168.172
L375.998 168.414
L376.222 204.993
L376.296 204.86
L376.594 161.295
L376.668 166.711
L376.742 169.762
L376.817 169.535
L376.891 170.769
L377.114 187.244
L377.412 207.931
L377.635 211.965
L377.858 192.631
L377.933 194.685
L378.156 240.941
L378.23 232.217
L378.528 174.23
L378.602 173.81
L378.751 185.576
L378.974 197.173
L379.123 190.952
L379.198 186.445
L379.272 187.116
L379.495 214.705
L379.57 213.91
L379.718 178.896
L379.942 123.911
L380.016 125.426
L380.239 189.382
L380.388 211.565
L380.611 183.764
L380.686 184.04
L381.206 217.484
L381.43 235.421
L382.546 137.814
L382.62 138.959
L382.843 170.182
L383.066 201.848
L383.513 223.266
L383.587 222.678
L384.034 176.941
L384.182 172.551
L384.257 173.662
L384.703 206.667
L385.15 192.907
L385.373 181.725
L385.522 184.03
L385.596 184.159
L386.191 213.204
L386.563 197.533
L386.935 168.365
L387.084 162.396
L387.158 163.146
L387.977 209.694
L388.051 208.558
L388.2 205.428
L388.349 209.022
L388.87 190.202
L389.018 196.852
L389.167 203.665
L389.242 203.379
L389.837 178.476
L389.986 175.519
L390.655 186.637
L390.73 186.622
L390.878 178.392
L391.027 171.332
L391.102 170.399
L391.176 167.693
L391.25 171.9
L391.399 216.043
L391.622 261.953
L391.771 253.111
L391.994 215.771
L392.441 151.49
L392.59 160.806
L392.813 178.723
L392.887 177.647
L392.962 175.297
L393.036 175.375
L393.482 189.896
L393.854 167.466
L393.929 169.846
L394.524 220.175
L394.598 219.751
L395.194 193.381
L395.417 183.26
L395.566 174.62
L395.714 166.336
L395.863 177.874
L396.086 195.139
L396.31 196.531
L396.458 194.625
L396.533 195.006
L396.682 204.811
L396.979 222.441
L397.128 213.925
L397.723 140.86
L397.798 146.582
L398.095 207.388
L398.17 207.131
L398.839 164.864
L398.914 165.052
L399.062 168.923
L399.211 176.289
L399.36 194.517
L399.732 264.298
L399.806 261.134
L400.625 166.35
L401.146 124.365
L401.294 130.369
L401.443 145.437
L401.666 195.509
L401.964 274.795
L402.038 269.749
L402.559 194.67
L402.782 167.437
L402.857 164.978
L403.154 182.297
L403.229 178.896
L403.378 167.827
L403.452 169.826
L403.75 202.298
L403.824 201.217
L403.973 189.866
L404.27 147.426
L404.419 186.247
L404.642 236.265
L404.791 226.223
L405.758 140.06
L405.907 163.186
L406.205 213.658
L406.354 229.171
L406.577 281.736
L406.726 248.717
L407.098 141.763
L407.321 119.788
L407.47 142.247
L407.693 201.858
L407.842 200.239
L408.065 232.972
L408.139 232.39
L408.362 199.987
L408.437 203.27
L408.586 209.787
L409.255 168.621
L409.553 159.404
L409.776 149.707
L409.925 158.515
L410.594 240.487
L410.669 239.593
L411.041 200.545
L411.115 200.609
L411.19 202.475
L411.413 228.015
L411.487 224.184
L411.71 175.637
L411.934 140.386
L412.157 147.249
L412.306 170.744
L412.603 221.982
L412.678 224.214
L412.752 220.343
L413.05 172.714
L413.124 173.475
L413.347 188.642
L413.57 172.403
L413.645 174.931
L414.091 225.586
L414.24 211.935
L414.612 162.85
L414.984 173.657
L415.058 173.02
L415.133 173.924
L415.207 178.797
L415.654 247.359
L415.728 244.491
L416.398 133.247
L416.472 134.452
L416.621 160.169
L416.918 248.055
L417.067 258.527
L417.216 238.393
L417.514 171.584
L417.737 126.162
L417.886 147.787
L418.183 197.163
L418.481 205.462
L418.555 206.736
L418.778 185.684
L418.853 189.076
L419.002 200.762
L419.15 195.499
L419.299 189.313
L419.374 191.006
L419.671 230.741
L419.82 245.606
L419.969 220.817
L420.341 131.993
L420.415 132.615
L421.159 186.198
L421.382 230.711
L421.606 266.92
L421.903 274.938
L421.978 267.083
L422.424 128.976
L422.498 129.5
L422.647 148.073
L422.87 179.903
L423.019 167.57
L423.242 149.964
L423.317 151.188
L423.466 162.86
L423.689 186.627
L423.763 186.785
L423.838 186.089
L423.912 187.792
L424.061 200.046
L424.433 248.04
L424.507 246.732
L424.805 225.018
L425.326 160.979
L425.4 158.308
L425.474 159.35
L425.846 172.176
L426.293 197.879
L426.665 238.778
L426.739 239.736
L426.814 238.265
L426.962 227.413
L427.334 151.085
L427.558 118.06
L427.632 117.611
L427.93 146.093
L428.227 206.44
L428.45 230.928
L428.525 228.613
L428.897 198.062
L429.046 215.273
L429.343 267.083
L429.418 261.025
L430.162 110.684
L430.236 113.948
L430.757 184.879
L431.129 269.991
L431.203 272.143
L431.352 258.754
L431.947 162.559
L432.096 156.111
L432.17 156.55
L432.319 162.045
L432.617 143.872
L432.691 145.022
L432.84 155.35
L433.361 246.322
L433.51 240.788
L433.807 207.452
L434.105 153.825
L434.328 179.809
L434.551 152.847
L434.626 153.213
L435.295 216.329
L435.518 207.018
L435.816 230.908
L435.89 230.138
L436.114 198.151
L436.337 172.186
L436.486 168.157
L436.634 160.554
L436.858 181.261
L437.006 136.105
L437.155 91.449
L437.304 152.754
L437.527 255.683
L437.602 260.146
L437.676 258.611
L437.75 259.322
L437.825 254.093
L438.122 188.197
L438.197 184.169
L438.346 196.837
L438.42 195.8
L438.643 171.594
L438.718 172.156
L439.164 192.971
L439.238 192.448
L439.387 178.298
L439.462 183.729
L439.685 225.152
L439.759 224.969
L439.982 199.498
L440.28 162.035
L440.503 170.31
L440.578 169.831
L440.652 172.828
L440.875 204.475
L440.95 204.233
L441.173 190.631
L441.322 185.63
L441.396 185.827
L441.545 189.989
L441.694 184.529
L441.768 185.22
L442.14 212.128
L442.214 211.372
L442.512 205.606
L442.661 211.594
L442.735 210.128
L442.958 189.18
L443.182 158.708
L443.256 159.058
L443.554 182.179
L443.702 176.027
L443.777 176.18
L443.926 180.974
L444.149 203.68
L444.298 213.155
L444.521 190.394
L444.67 179.967
L444.818 194.961
L445.116 217.228
L445.19 221.903
L445.265 221.775
L445.488 194.112
L445.86 111.662
L445.934 114.58
L446.083 141.739
L446.53 245.187
L446.678 250.474
L446.753 250.588
L446.827 250.993
L446.976 242.718
L447.571 191.406
L448.092 108.324
L448.166 111.01
L448.39 153.178
L448.762 222.53
L448.91 209.007
L449.134 192.838
L449.282 202.91
L449.58 233.036
L449.654 232.148
L449.803 222.999
L449.878 213.224
L449.878 213.224" style="fill:none;stroke:#808080;stroke-linecap:square;"/>
   </g>
  </g>
 </g>
 <defs>
  <clipPath id="p7ff5b81e1d">
   <rect height="345.6" width="446.4" x="72.0" y="43.2"/>
  </clipPath>
 </defs>
</svg>
