<?xml version="1.0" encoding="utf-8" standalone="no"?>
<!DOCTYPE svg PUBLIC "-//W3C//DTD SVG 1.1//EN"
  "http://www.w3.org/Graphics/SVG/1.1/DTD/svg11.dtd">
<!-- Created with matplotlib (http://matplotlib.org/) -->
<svg height="432pt" version="1.1" viewBox="0 0 576 432" width="576pt" xmlns="http://www.w3.org/2000/svg" xmlns:xlink="http://www.w3.org/1999/xlink">
 <defs>
  <style type="text/css">
*{stroke-linecap:butt;stroke-linejoin:round;}
  </style>
 </defs>
 <g id="figure_1">
  <g id="patch_1">
   <path d="
M0 432
L576 432
L576 0
L0 0
z
" style="fill:#ffffff;"/>
  </g>
  <g id="axes_1">
   <g id="line2d_1">
    <path clip-path="url(#p7ff5b81e1d)" d="
M72 201.655
L72.0744 191.033
L72.1488 188.176
L72.2232 187.566
L72.4464 192.278
L72.744 240.224
L72.9672 249.878
L73.0416 246.64
L73.3392 173.143
L73.4136 176.011
L73.9344 281.984
L74.0088 284.541
L74.1576 266.351
L74.604 159.33
L74.6784 165.885
L74.976 231.077
L75.2736 165.275
L75.348 166.692
L75.7944 253.725
L75.8688 249.497
L76.1664 232.206
L76.3152 219.545
L76.5384 173.546
L76.6128 174.721
L76.7616 227.056
L76.836 223.37
L77.0592 194.835
L77.1336 194.697
L77.208 197.024
L77.5056 256.536
L77.58 255.269
L77.7288 254.428
L77.8032 256.306
L77.8776 255.177
L78.0264 256.72
L78.324 204.109
L78.3984 205.456
L78.5472 220.882
L78.6216 219.868
L78.9192 116.176
L78.9936 118.388
L79.2168 191.563
L79.2912 195.987
L79.44 220.905
L79.5144 220.594
L79.6632 249.82
L79.8864 218.612
L80.1096 197.554
L80.7048 279.945
L80.7792 301.211
L80.8536 295.888
L81.2256 219.304
L81.4488 216.447
L81.5232 211.378
L81.7464 183.384
L81.8208 181.195
L81.9696 186.978
L82.044 184.294
L82.2672 149.066
L82.3416 150.299
L82.788 243.472
L82.8624 237.459
L83.16 189.928
L83.3088 185.677
L83.3832 186.483
L83.9784 273.413
L84.2016 253.138
L84.276 259.508
L84.4992 293.953
L84.648 255.914
L84.8712 170.816
L84.9456 172.705
L85.02 170.182
L85.0944 171.254
L85.2432 176.668
L85.392 167.498
L85.4664 165.885
L85.9872 187.6
L86.2104 220.617
L86.4336 259.589
L86.8056 231.307
L86.88 231.008
L86.9544 229.648
L87.1032 213.912
L87.4008 242.551
L87.4752 239.106
L87.6984 221.181
L87.7728 220.605
L87.9216 206.562
L88.0704 209.604
L88.1448 205.537
L88.2936 181.103
L88.368 185.423
L88.5912 240.731
L89.112 169.318
L89.1864 170.309
L89.6328 231.929
L89.7816 270.141
L89.856 268.264
L90.0792 237.378
L90.3024 225.478
L90.4512 230.628
L90.5256 230.363
L90.6 227.575
L90.7488 194.178
L90.8232 195.757
L91.1208 253.587
L91.344 227.126
L91.4184 234.544
L91.5672 252.815
L91.6416 245.65
L92.0136 132.408
L92.088 140.127
L92.2368 168.823
L92.3856 150.806
L92.46 152.845
L92.6832 206.056
L92.832 240.823
L92.9808 252.493
L93.204 225.052
L93.3528 241.307
L93.5016 258.448
L93.576 255.119
L93.7248 193.764
L93.7992 208.936
L93.948 232.598
L94.0224 225.732
L94.1712 262.411
L94.2456 283.055
L94.32 280.475
L94.6176 198.625
L94.8408 191.218
L94.9896 207.933
L95.2872 171.081
L95.3616 175.193
L95.5104 208.982
L95.7336 181.737
L95.808 186.022
L95.9568 236.399
L96.0312 231.411
L96.2544 163.777
L96.7008 278.436
L96.7752 264.969
L96.924 243.104
L97.1472 287.594
L97.2216 287.295
L97.5192 190.216
L97.5936 198.786
L97.668 203.809
L97.7424 203.752
L97.8168 205.042
L98.04 232.494
L98.1144 233.07
L98.4864 197.392
L98.7096 156.024
L98.8584 190.446
L98.9328 182.474
L99.0816 145.241
L99.2304 216.493
L99.3792 153.421
L99.4536 161.945
L99.6024 253.115
L99.6768 252.619
L99.7512 238.45
L100.123 291.626
L100.346 198.406
L100.421 201.424
L100.57 241.387
L100.644 214.408
L100.718 220.813
L100.793 271.351
L100.867 270.164
L101.09 193.648
L101.239 228.531
L101.388 172.164
L101.686 213.094
L101.76 210.675
L101.983 190.527
L102.058 198.671
L102.132 227.702
L102.206 213.924
L102.355 144.377
L102.504 208.751
L102.578 201.954
L102.653 193.833
L102.802 267.987
L102.95 233.266
L103.099 257.308
L103.248 208.866
L103.397 263.206
L103.546 215.041
L103.694 272.998
L103.918 190.976
L104.066 219.718
L104.215 179.79
L104.364 198.902
L104.438 198.095
L104.587 246.03
L104.81 199.858
L104.959 255.592
L105.034 250.984
L105.182 218.37
L105.257 220.179
L105.331 215.744
L105.48 159.515
L105.554 169.779
L105.629 189.559
L105.703 182.704
L105.778 184.525
L105.926 216.228
L106.075 154.907
L106.224 192.543
L106.298 192.139
L106.373 174.41
L106.596 282.433
L106.67 262.077
L106.745 246.134
L106.894 275.095
L106.968 278.079
L107.042 276.777
L107.266 190.354
L107.34 197.773
L107.414 199.524
L107.489 193.349
L107.563 195.515
L107.712 224.372
L107.786 241.111
L107.861 240.719
L108.307 225.144
L108.456 182.405
L108.53 185.573
L108.605 186.506
L108.679 178.096
L108.754 181.656
L108.977 211.839
L109.126 227.621
L109.2 223.393
L109.349 205.618
L109.423 213.394
L109.498 210.617
L109.646 178.189
L109.795 195.33
L109.87 198.118
L110.018 233.807
L110.242 212.276
L110.39 218.255
L110.465 209.442
L110.539 212.979
L110.688 257.216
L110.762 257.907
L110.837 268.183
L111.06 231.169
L111.134 232.816
L111.209 232.782
L111.283 230.282
L111.506 254.036
L111.878 185.492
L112.027 196.482
L112.102 192.98
L112.325 147.396
L112.622 238.588
L112.771 245.915
L112.846 243.68
L112.994 222.184
L113.069 229.648
L113.218 197.427
L113.366 140.034
L113.441 148.64
L113.664 223.382
L113.962 240.005
L114.185 210.502
L114.334 189.974
L114.557 214.085
L114.929 303.791
L115.301 243.208
L115.45 230.651
L115.524 233.416
L115.673 202.461
L115.896 142.511
L115.97 144.032
L116.119 171.461
L116.194 169.445
L116.342 148.732
L116.64 191.863
L116.714 191.944
L117.086 259.301
L117.161 266.282
L117.31 310.461
L117.384 306.026
L117.607 276.719
L117.905 196.16
L117.979 187.946
L118.202 221.02
L118.277 214.05
L118.351 195.987
L118.426 204.927
L118.5 195.883
L118.649 166.312
L118.723 168.569
L118.872 161.197
L119.17 187.658
L119.244 190.55
L119.467 237.24
L119.542 248.956
L119.988 191.506
L120.062 197.957
L120.211 220.87
L120.36 225.064
L120.434 209.857
L120.509 210.479
L120.658 238.288
L120.806 248.472
L120.881 243.553
L121.03 269.3
L121.178 249.878
L121.327 262.895
L121.402 254.647
L121.625 206.943
L121.699 202.127
L121.848 207.876
L121.922 208.636
L122.071 181.288
L122.22 210.675
L122.294 206.77
L122.369 199.938
L122.518 205.698
L122.89 144.308
L123.038 205.272
L123.113 197.588
L123.336 166.196
L123.41 174.272
L123.634 252.85
L123.708 256.836
L123.782 252.354
L123.857 255.177
L123.931 269.266
L124.006 267.941
L124.08 264.692
L124.303 218.405
L124.378 219.914
L124.601 253.748
L124.675 250.35
L124.824 210.756
L125.122 231.895
L125.196 230.731
L125.345 212.057
L125.494 225.225
L125.717 165.839
L125.791 171.208
L125.866 189.605
L125.94 189.363
L126.089 181.794
L126.238 199.892
L126.535 169.445
L126.61 161.519
L126.684 172.36
L126.982 253.449
L127.205 301.372
L127.354 278.009
L127.428 279.161
L127.577 243.668
L127.651 245.995
L127.8 221.204
L127.949 258.011
L128.172 202.934
L128.47 146.359
L128.544 132.155
L128.618 132.235
L129.065 219.016
L129.214 276.028
L129.288 272.56
L129.437 222.068
L129.511 224.2
L129.586 224.038
L129.734 207.438
L129.809 208.452
L130.032 245.339
L130.255 202.818
L130.33 210.122
L130.553 221.93
L130.627 242.459
L130.85 158.305
L130.925 175.044
L131.148 218.013
L131.297 224.372
L131.446 238.853
L131.52 227.863
L131.594 234.084
L131.743 280.348
L131.818 267.572
L131.966 291.592
L132.041 276.719
L132.264 191.114
L132.413 179.329
L132.636 205.583
L132.71 206.493
L132.859 223.854
L132.934 221.942
L133.603 133.848
L134.124 264.98
L134.198 258.091
L134.347 227.874
L134.422 227.402
L134.57 253.299
L134.645 271.593
L134.794 254.889
L134.942 264.658
L135.091 274.53
L135.166 286.984
L135.463 217.702
L135.612 150.598
L135.761 161.588
L135.91 154.872
L136.282 239.809
L136.356 233.416
L136.654 183.626
L136.802 211.101
L136.951 240.477
L137.174 198.994
L137.249 209.028
L137.398 232.598
L137.472 211.159
L137.546 211.977
L137.621 215.387
L137.77 185.492
L137.993 200.088
L138.142 204.155
L138.216 204.005
L138.365 166.196
L138.737 255.476
L138.96 235.489
L139.109 251.997
L139.183 257.389
L139.258 257.343
L139.406 233.957
L139.63 252.608
L139.778 242.413
L140.002 197.922
L140.076 207.288
L140.15 205.468
L140.374 162.452
L140.448 160.321
L140.82 230.328
L140.894 230.19
L141.043 247.631
L141.118 242.39
L141.266 178.384
L141.341 181.829
L141.564 236.964
L141.638 233.738
L141.787 209.097
L142.01 257.527
L142.085 255.407
L142.457 178.35
L142.531 183.914
L142.754 168.132
L143.35 229.303
L143.424 226.273
L143.647 260.119
L143.945 204.581
L144.094 227.702
L144.168 227.08
L144.317 217.817
L144.466 226.838
L144.614 218.336
L144.689 218.497
L144.838 237.689
L145.061 205.837
L145.21 192.9
L145.284 201.724
L145.358 194.766
L145.656 242.274
L145.805 240.12
L145.954 209.339
L146.102 220.271
L146.251 208.774
L146.4 190.411
L146.623 207.023
L146.698 205.675
L146.995 133.572
L147.144 177.44
L147.218 174.675
L147.367 232.482
L147.59 336.508
L147.814 340.494
L148.186 234.913
L148.558 136.383
L148.632 131.106
L148.781 110.843
L148.855 112.651
L149.376 231.803
L149.45 228.543
L149.674 192.024
L149.822 190.688
L149.897 190.216
L150.046 198.625
L150.492 264.635
L150.79 284.011
L150.864 285.186
L150.938 294.437
L151.013 290.278
L151.31 224.891
L151.385 227.103
L151.534 195.768
L151.831 147.972
L151.98 138.376
L152.129 162.521
L152.426 200.422
L152.501 210.088
L152.724 278.171
L152.798 283.977
L153.096 236.169
L153.17 235.535
L153.245 230.559
L153.319 234.763
L153.394 245.776
L153.468 243.553
L153.84 145.357
L154.138 188.891
L154.361 172.498
L154.435 169.226
L154.584 194.466
L155.03 272.837
L155.328 244.809
L155.402 249.302
L155.626 279.472
L155.849 273.459
L156.146 190.308
L156.221 192.808
L156.295 194.674
L156.593 153.663
L156.742 137.811
L157.039 216.642
L157.114 213.175
L157.262 202.841
L157.337 210.064
L157.634 280.682
L157.709 273.689
L158.081 188.073
L158.155 184.375
L158.304 202.104
L158.378 199.259
L158.602 207.3
L158.676 210.617
L158.899 189.778
L159.048 179.571
L159.122 182.117
L159.346 239.302
L159.42 238.507
L159.643 256.72
L159.718 254.405
L159.941 228.623
L160.09 216.262
L160.238 225.582
L160.313 222.207
L160.387 222.932
L160.462 225.778
L160.61 217.46
L160.685 220.951
L160.759 234.959
L160.834 233.012
L161.057 246.341
L161.131 246.975
L161.652 165.378
L161.726 168.558
L161.95 193.119
L162.024 182.624
L162.098 185.608
L162.173 189.409
L162.247 187.554
L162.322 180.735
L162.396 184.617
L162.619 228.566
L162.694 226.169
L162.768 232.413
L162.842 232.114
L162.991 213.682
L163.066 215.606
L163.14 220.686
L163.214 218.117
L163.363 228.646
L163.512 210.986
L163.586 211.62
L163.661 218.359
L163.81 247.885
L163.958 240.293
L164.107 231.538
L164.182 230.559
L164.33 244.486
L164.405 242.666
L164.479 234.061
L164.554 239.59
L164.702 203.959
L164.851 173.477
L165.074 207.035
L165.149 204.523
L165.223 207.196
L165.372 190.711
L165.446 191.344
L165.744 202.934
L165.818 213.947
L165.967 195.791
L166.042 198.913
L166.265 277.168
L166.562 244.486
L166.711 226.411
L167.083 250.926
L167.158 247.493
L167.678 112.34
L167.753 122.662
L168.05 195.227
L168.125 197.842
L168.422 247.458
L168.646 220.214
L169.092 283.124
L169.538 212.656
L169.687 232.586
L169.836 220.651
L169.91 222.287
L170.059 245.972
L170.208 225.928
L170.357 195.054
L170.654 121.983
L170.729 123.837
L171.25 223.67
L171.324 217.172
L171.398 219.304
L171.696 281.581
L171.845 315.161
L171.994 291.741
L172.366 199.328
L172.44 205.295
L172.514 201.229
L172.663 177.935
L172.738 179.11
L173.035 228.531
L173.407 138.928
L173.482 143.225
L173.705 178.143
L174.002 257.504
L174.077 261.213
L174.523 218.393
L174.598 220.767
L174.821 245.949
L175.044 285.509
L175.565 195.296
L175.639 203.602
L175.714 208.417
L175.788 208.383
L175.862 203.521
L176.234 128.18
L176.383 160.114
L176.606 227.321
L176.681 228.381
L176.755 226.999
L176.83 230.19
L176.978 249.474
L177.127 233.208
L177.276 237.217
L177.425 218.693
L177.648 243.899
L177.797 216.205
L177.871 220.306
L177.946 231.826
L178.02 227.206
L178.169 209.869
L178.243 216.089
L178.318 214.546
L178.466 184.916
L178.541 186.23
L178.615 188.372
L178.69 185.619
L178.913 202.553
L179.136 176.046
L179.21 180.735
L179.434 237.482
L179.582 277.03
L179.731 260.914
L179.806 262.538
L179.88 269.715
L180.178 236.054
L180.401 198.959
L180.624 223.036
L180.698 225.536
L180.773 223.036
L180.996 191.897
L181.145 200.641
L181.368 162.832
L181.591 183.223
L181.814 204.961
L181.963 194.409
L182.335 260.292
L182.484 302.766
L182.558 292.133
L182.782 218.774
L183.079 198.418
L183.228 184.34
L183.451 221.642
L183.526 217.541
L183.674 197.819
L183.898 210.399
L183.972 210.71
L184.046 212.299
L184.121 209.166
L184.493 229.648
L184.642 219.522
L184.865 177.935
L185.014 193.314
L185.088 187.301
L185.162 188.729
L185.46 273.62
L185.534 272.722
L185.758 259.324
L186.055 203.993
L186.204 221.55
L186.353 203.717
L186.576 234.072
L186.65 230.063
L186.874 191.425
L187.022 187.508
L187.097 185.377
L187.246 201.885
L187.469 179.041
L187.543 185.965
L187.618 187.382
L187.692 184.87
L187.915 200.238
L188.064 228.9
L188.138 223.877
L188.213 229.89
L188.362 256.502
L188.51 234.13
L188.659 212.668
L188.808 226.169
L188.957 218.981
L189.403 273.056
L189.478 273.931
L189.552 269.853
L189.701 230.248
L189.924 168.788
L190.147 147.35
L190.37 205.33
L190.519 201.286
L190.742 238.323
L190.817 234.452
L190.891 236.756
L191.263 195.872
L191.486 231.158
L191.784 171.496
L192.007 212.887
L192.156 195.999
L192.23 197.289
L192.528 210.318
L192.826 268.148
L192.9 268.333
L192.974 272.825
L193.123 267.296
L193.272 240.028
L193.495 188.637
L193.644 185.4
L193.718 184.513
L193.867 199.593
L194.165 251.03
L194.314 216.308
L194.462 178.177
L195.132 241.065
L195.206 241.203
L195.504 214.88
L195.653 180.493
L195.802 201.044
L195.876 197.323
L195.95 188.799
L196.099 203.475
L196.322 253.506
L196.397 247.839
L196.843 191.632
L196.992 199.662
L197.141 186.011
L197.736 231.204
L197.885 207.438
L197.959 208.187
L198.034 207.346
L198.182 181.783
L198.48 233.058
L198.778 282.399
L198.852 290.059
L198.926 287.133
L199.075 250.442
L199.298 181.161
L199.373 179.744
L199.522 201.977
L199.67 220.605
L199.819 217.691
L199.894 223.739
L200.042 195.457
L200.34 149.792
L200.414 141.29
L200.489 141.774
L201.158 283.182
L201.233 285.578
L201.307 280.832
L201.605 205.86
L201.754 207.357
L201.828 208.095
L201.977 202.07
L202.051 202.565
L202.2 199.224
L202.274 194.95
L202.423 171.68
L202.572 193.533
L202.87 246.848
L202.944 245.488
L203.018 236.272
L203.167 248.691
L203.39 202.911
L203.539 221.608
L203.688 207.634
L203.762 207.115
L203.837 209.454
L203.911 207.956
L203.986 208.336
L204.06 213.014
L204.209 243.138
L204.358 272.895
L204.655 240.708
L205.25 141.117
L205.325 138.859
L205.399 143.237
L205.771 249.843
L205.846 241.503
L205.994 209.488
L206.218 237.689
L206.292 236.1
L206.441 244.832
L206.515 253.403
L206.59 252.562
L206.664 244.636
L206.738 247.17
L206.813 250.488
L206.887 242.079
L207.036 209.465
L207.11 214.431
L207.259 205.514
L207.482 235.339
L207.557 226.688
L207.631 229.165
L207.706 231.791
L207.854 206.079
L208.226 163.144
L208.301 165.678
L208.45 184.386
L208.524 184.041
L208.673 172.74
L208.747 172.141
L208.822 164.883
L208.896 169.56
L209.342 300.37
L209.566 280.982
L209.64 287.629
L209.714 278.885
L209.938 218.29
L210.086 222.287
L210.161 218.9
L210.235 219.304
L210.31 218.313
L210.458 197.22
L210.533 200.895
L210.607 196.736
L210.905 133.779
L210.979 136.475
L211.128 153.017
L211.798 268.598
L211.872 268.045
L212.095 254.67
L212.17 254.9
L212.69 229.821
L212.765 229.43
L212.839 225.501
L212.988 212.127
L213.062 221.907
L213.36 176.057
L213.434 182.532
L213.509 179.041
L213.583 182.347
L213.658 175.458
L213.732 183.545
L213.955 235.743
L214.03 237.044
L214.104 236.215
L214.253 227.782
L214.476 202.335
L214.625 171.092
L214.699 170.067
L215.146 263.16
L215.22 266.87
L215.592 228.335
L215.815 145.691
L215.964 166.381
L216.262 243.795
L216.336 246.041
L216.485 258.218
L216.559 252.815
L216.782 193.303
L216.857 174.191
L216.931 174.283
L217.006 174.018
L217.154 213.751
L217.378 285.071
L217.452 283.355
L217.601 260.223
L218.047 160.759
L218.27 151.923
L218.419 184.939
L218.642 236.825
L218.717 239.775
L218.791 238.853
L218.866 239.222
L219.014 231.803
L219.089 233.727
L219.312 214.73
L219.386 219.039
L219.758 242.021
L219.833 236.549
L219.982 202.991
L220.13 211.839
L220.279 190.216
L220.354 193.464
L220.577 212
L220.726 219.868
L221.023 210.629
L221.321 235.478
L221.395 249.797
L221.47 248.622
L221.693 197.623
L221.842 222.817
L221.916 216.262
L222.065 185.4
L222.139 185.769
L222.288 179.594
L222.883 246.203
L223.032 250.626
L223.106 250.327
L223.255 246.318
L223.404 219.73
L223.553 196.229
L223.702 215.283
L223.776 213.14
L224.074 139.85
L224.148 140.887
L224.743 267.181
L224.818 265.936
L225.041 234.913
L225.19 256.26
L225.264 250.88
L225.413 233.358
L225.562 242.758
L225.636 254.704
L225.71 253.449
L226.306 156.612
L226.529 184.49
L226.678 180.665
L226.826 186.264
L226.901 185.953
L226.975 185.757
L227.273 220.72
L227.347 225.524
L227.645 271.27
L227.794 223.278
L227.942 188.937
L228.24 237.689
L228.538 290.221
L228.686 266.098
L229.133 164.722
L229.207 157.211
L229.356 176.173
L229.505 189.985
L229.579 188.695
L229.802 161.335
L229.877 161.715
L229.951 164.192
L230.1 141.555
L230.174 153.017
L230.472 256.029
L230.621 249.371
L230.993 309.16
L231.067 304.863
L231.216 278.171
L231.514 179.548
L231.662 179.053
L231.737 183.891
L231.96 206.793
L232.109 203.037
L232.258 208.659
L232.406 197.75
L232.555 182.543
L232.63 183.085
L232.927 255.304
L233.002 247.942
L233.374 189.824
L233.448 196.747
L233.597 175.055
L233.671 152.902
L233.746 160.252
L233.969 262.077
L234.043 262.077
L234.266 245.131
L234.341 248.495
L234.49 214.419
L234.638 185.7
L234.787 194.662
L234.862 193.049
L234.936 197.75
L235.159 254.013
L235.234 251.525
L235.457 222.011
L235.531 226.008
L235.68 257.124
L236.052 191.851
L236.126 184.168
L236.35 217.264
L236.573 204.662
L236.722 216.527
L236.796 212.127
L237.019 181.737
L237.168 205.929
L237.242 198.694
L237.317 189.363
L237.466 195.906
L237.614 166.219
L237.763 219.707
L237.838 213.232
L237.912 191.494
L238.358 273.24
L238.433 267.135
L238.582 237.931
L238.656 247.539
L238.73 243.576
L238.805 229.13
L238.879 236.641
L239.177 303.653
L239.251 287.087
L239.474 206.827
L239.623 153.559
L239.698 157.983
L239.772 184.985
L239.846 179.617
L239.921 167.705
L240.07 216.009
L240.144 206.447
L240.442 146.416
L240.59 186.068
L240.665 179.352
L240.739 181.518
L240.814 200.365
L240.888 198.625
L240.962 179.283
L241.037 188.418
L241.186 226.976
L241.26 214.914
L241.409 260.107
L241.483 251.064
L241.558 239.752
L241.632 255.154
L241.781 226.699
L241.93 252.677
L242.004 240.811
L242.078 248.069
L242.227 273.401
L242.302 272.895
L242.376 283.769
L242.45 276.662
L242.599 227.471
L242.674 233.554
L242.748 227.252
L242.822 209.235
L242.971 257.999
L243.046 245.719
L243.343 94.5534
L243.492 141.071
L243.641 119.563
L243.79 167.464
L243.864 168.616
L244.087 228.128
L244.31 289.702
L244.459 271.224
L244.534 282.744
L244.682 262.953
L244.757 244.544
L244.831 245.961
L244.98 283.839
L245.129 257.792
L245.203 242.505
L245.352 263.321
L245.426 239.429
L245.575 125.819
L245.798 183.016
L245.873 181.552
L246.022 224.165
L246.096 216.942
L246.245 122.662
L246.319 134.816
L246.468 210.848
L246.617 161.139
L246.84 221.527
L246.989 182.128
L247.212 261.317
L247.286 260.591
L247.361 266.766
L247.435 299.932
L247.51 297.156
L247.658 209.892
L247.733 216.7
L247.807 231.688
L248.03 184.951
L248.254 254.324
L248.328 240.788
L248.402 221.458
L248.551 253.357
L248.7 168.351
L248.774 174.617
L248.923 214.684
L249.072 134.954
L249.295 244.244
L249.37 211.09
L249.444 203.176
L249.593 273.517
L249.816 162.21
L249.965 241.549
L250.114 166.047
L250.188 186.806
L250.337 262.008
L250.486 212.564
L250.634 268.92
L250.783 211.562
L250.858 212.898
L251.006 247.666
L251.155 189.04
L251.304 251.767
L251.378 242.447
L251.527 178.235
L251.602 212.207
L251.676 204.569
L251.825 134.678
L252.048 221.101
L252.122 203.129
L252.197 218.774
L252.346 284.449
L252.494 208.578
L252.643 260.084
L252.718 251.179
L252.866 209.535
L252.941 241.549
L253.015 237.471
L253.164 183.096
L253.313 243.657
L253.462 169.122
L253.536 172.832
L253.61 193.568
L253.759 131.913
L253.834 133.456
L254.057 207.841
L254.131 207.357
L254.28 257.216
L254.429 186.368
L254.503 192.059
L254.652 214.684
L254.726 204.984
L254.95 254.716
L255.024 233.761
L255.098 243.76
L255.247 334.089
L255.322 327.062
L255.396 323.525
L255.47 329.285
L255.545 324.066
L255.991 126.867
L256.289 102.848
L256.363 114.863
L256.586 187.981
L256.735 169.814
L256.884 200.572
L256.958 188.13
L257.033 190.941
L257.256 271.19
L257.33 262.446
L257.479 259.036
L257.554 258.391
L257.628 251.709
L257.777 281.235
L257.851 279.092
L258.223 210.226
L258.298 201.482
L258.372 210.802
L258.521 248.15
L258.744 222.529
L258.818 230.893
L258.967 218.059
L259.116 243.68
L259.19 234.66
L259.339 167.533
L259.488 202.254
L259.711 163.132
L259.786 169.422
L259.86 167.36
L260.009 135.945
L260.083 150.575
L260.158 145.46
L260.232 117.524
L260.306 121.798
L261.05 287.306
L261.125 287.26
L261.199 275.533
L261.274 281.212
L261.422 346.392
L261.869 210.249
L261.943 213.428
L262.092 274.726
L262.166 261.19
L262.39 191.69
L262.538 207.714
L262.91 148.156
L263.208 105.532
L263.357 151.439
L263.506 222.276
L263.58 217.725
L263.654 217.449
L263.729 216.481
L263.878 201.666
L263.952 211.919
L264.175 282.111
L264.324 274.646
L264.398 275.394
L264.622 224.073
L264.77 271.662
L264.919 229.718
L265.217 141.06
L265.291 147.165
L265.589 250.35
L265.738 249.555
L265.812 253.437
L266.035 292.939
L266.184 254.704
L266.482 195.734
L266.854 146.209
L266.928 146.451
L267.002 151.842
L267.077 147.511
L267.449 195.008
L267.523 189.732
L267.672 177.106
L268.044 283.597
L268.118 283.032
L268.267 269.243
L268.416 286.73
L268.49 293.158
L268.565 292.479
L268.639 286.96
L268.937 204.546
L269.16 167.924
L269.383 199.662
L269.458 198.084
L269.904 151.912
L270.053 124.978
L270.499 243.991
L270.722 202.265
L270.797 205.595
L270.946 236.192
L271.169 291.568
L271.243 291.753
L271.69 237.966
L271.764 223.174
L271.838 227.091
L271.913 229.96
L272.136 213.567
L272.21 218.486
L272.285 215.513
L272.582 180.458
L272.657 179.813
L272.806 143.041
L272.954 118.596
L273.326 218.601
L273.401 213.209
L273.55 188.165
L273.922 224.107
L274.368 319.09
L274.442 316.417
L274.666 284.703
L275.186 181.437
L275.261 172.417
L275.335 176.196
L275.41 176.023
L275.707 141.371
L275.782 129.736
L275.856 133.48
L276.451 231.618
L276.674 290.44
L276.749 291.684
L276.823 290.82
L277.046 248.173
L277.121 251.387
L277.195 253.23
L277.418 263.725
L277.642 228.784
L277.79 209.016
L278.162 101.811
L278.311 145.806
L278.46 137.938
L278.758 192.243
L279.13 302.628
L279.204 302.662
L279.353 284.207
L279.502 304.217
L279.725 255.073
L279.948 199.57
L280.022 194.835
L280.097 199.247
L280.171 196.621
L280.469 161.611
L280.543 160.102
L280.766 177.624
L280.915 172.486
L281.213 212.115
L281.436 280.256
L281.51 275.533
L281.585 276.927
L281.659 274.646
L281.808 256.72
L282.106 210.064
L282.18 209.419
L282.329 202.934
L282.403 204.8
L282.626 224.879
L282.85 205.71
L283.147 174.825
L283.445 202.876
L283.594 223.877
L283.817 207.104
L283.891 217.864
L283.966 217.126
L284.114 211.309
L284.338 176.08
L284.71 272.929
L284.784 278.92
L284.858 276.627
L285.677 200.077
L285.826 236.491
L285.9 235.339
L286.123 173.293
L286.198 175.113
L286.272 173.926
L286.495 192.969
L286.57 190.469
L286.718 181.069
L286.793 183.856
L286.867 181.506
L286.942 184.755
L287.016 183.211
L287.09 178.649
L287.165 180.735
L287.388 262.388
L287.462 248.069
L287.537 235.604
L287.611 236.802
L287.834 290.209
L288.132 259.958
L288.355 216.228
L288.802 140.011
L288.876 151.981
L289.099 232.39
L289.174 228.335
L289.397 191.437
L289.62 266.294
L289.918 230.962
L289.992 233.093
L290.066 243.173
L290.215 222.529
L290.438 165.943
L290.587 181.334
L290.81 231.4
L290.885 225.421
L291.034 198.015
L291.108 202.415
L291.257 225.225
L291.331 223.393
L291.554 170.493
L291.629 179.375
L291.852 259.255
L291.926 246.767
L292.075 198.568
L292.15 197.392
L292.373 244.682
L292.596 199.247
L292.819 280.29
L292.894 276.351
L293.117 210.64
L293.266 246.652
L293.34 237.021
L293.638 163.846
L293.712 164.537
L293.935 197.577
L294.084 181.875
L294.307 210.813
L294.382 205.065
L294.456 203.901
L294.53 207.058
L294.605 219.718
L294.754 199.881
L294.828 201.77
L295.2 250.442
L295.423 224.752
L295.498 225.179
L295.646 279.012
L295.721 271.627
L295.944 220.421
L296.167 284.38
L296.242 281.131
L296.465 212.91
L296.614 201.482
L296.688 211.193
L296.762 209.765
L296.986 139.044
L297.06 128.722
L297.283 171.346
L297.358 168.109
L297.506 178.085
L297.655 170.747
L298.25 272.768
L298.399 341.669
L298.771 201.309
L298.846 207.242
L298.92 189.098
L298.994 192.715
L299.218 254.693
L299.292 267.768
L299.441 202.058
L299.59 229.683
L300.036 145.702
L300.11 158.605
L300.259 203.763
L300.482 170.85
L300.557 153.582
L300.631 162.245
L300.929 240.915
L301.003 240.834
L301.152 277.71
L301.226 261.202
L301.301 267.296
L301.375 268.287
L301.673 213.878
L301.822 241.295
L301.97 207.945
L302.045 209.35
L302.194 173.592
L302.268 182.37
L302.342 167.083
L302.491 193.741
L302.566 177.474
L302.714 193.902
L302.789 196.782
L302.863 210.364
L302.938 206.827
L303.012 207.979
L303.161 248.449
L303.235 246.134
L303.384 285.855
L303.458 261.593
L303.533 276.592
L303.682 230.697
L303.756 252.308
L303.83 252.009
L304.054 188.246
L304.128 147.926
L304.202 167.233
L304.426 235.846
L304.723 149.573
L304.872 247.136
L304.946 233.462
L305.17 164.088
L305.467 212.633
L305.542 215.871
L305.69 201.448
L305.914 233.98
L306.137 308.399
L306.286 253.852
L306.36 255.35
L306.434 266.95
L306.658 214.431
L306.732 185.792
L306.806 189.029
L306.955 209.65
L307.03 207.369
L307.253 166.507
L307.402 121.395
L307.476 131.233
L307.699 258.518
L307.848 173.961
L307.922 140.68
L307.997 144.712
L308.146 202.277
L308.294 280.429
L308.369 276.639
L308.592 189.432
L308.666 209.684
L309.038 309.378
L309.187 290.843
L309.262 295.266
L309.634 195.33
L309.708 199.259
L309.931 231.227
L310.006 217.172
L310.229 121.856
L310.303 123.112
L310.526 193.049
L310.675 114.207
L310.824 65.2581
L310.973 139.769
L311.196 269.796
L311.345 255.522
L311.419 262.331
L311.494 267.964
L311.717 321.889
L312.014 246.514
L312.238 291.568
L312.312 274.934
L312.461 213.359
L312.684 262.181
L312.758 257.481
L312.833 258.863
L312.907 238.784
L313.13 116.971
L313.279 165.171
L313.428 196.978
L313.651 113.573
L313.726 116.338
L314.098 230.374
L314.395 165.033
L314.544 208.198
L314.842 306.487
L314.916 320.253
L314.99 308.238
L315.214 230.916
L315.288 227.218
L315.437 257.665
L315.586 219.499
L315.734 180.17
L315.958 223.117
L316.032 218.37
L316.106 205.48
L316.181 210.03
L316.255 214.557
L316.33 213.463
L316.404 204.466
L316.702 113.089
L316.85 175.32
L317.074 273.782
L317.222 267.169
L317.297 265.13
L317.446 240.823
L317.52 241.364
L317.594 227.886
L317.669 235.247
L317.743 234.187
L317.818 227.483
L317.966 200.18
L318.338 305.796
L318.785 140.518
L318.859 142.235
L318.934 148.421
L319.082 187.186
L319.157 180.389
L319.231 171.91
L319.306 172.843
L319.454 165.033
L319.529 169.445
L319.752 280.187
L319.826 279.023
L319.975 242.148
L320.124 171.622
L320.198 181.979
L320.496 267.572
L320.57 270.072
L320.645 267.918
L321.091 176.956
L321.166 179.202
L321.463 212.864
L321.538 224.292
L321.761 173.776
L322.058 276.132
L322.207 225.87
L322.43 134.781
L322.654 221.481
L322.802 260.453
L323.026 232.448
L323.1 238.749
L323.323 264.6
L323.398 260.05
L323.546 215.444
L323.695 162.925
L323.844 192.957
L323.993 175.62
L324.142 195.342
L324.216 191.679
L324.29 182.969
L324.588 228.877
L324.662 230.743
L324.811 244.993
L324.886 243.634
L324.96 232.793
L325.034 234.763
L325.109 237.01
L325.332 204.374
L325.555 232.92
L325.704 277.088
L325.778 268.24
L326.002 201.367
L326.15 211.263
L326.225 208.912
L326.374 220.824
L326.522 207.069
L326.597 205.986
L326.746 167.199
L326.82 172.175
L326.894 184.64
L326.969 180.665
L327.341 143.318
L327.49 182.336
L327.713 289.599
L327.787 296.05
L327.862 294.16
L327.936 281.005
L328.085 223.543
L328.159 229.176
L328.457 311.763
L328.531 304.321
L328.903 171.853
L329.275 145.299
L329.35 155.69
L329.573 135.507
L329.647 152.488
L329.87 290.451
L329.945 287.26
L330.094 251.122
L330.317 293.412
L330.391 292.156
L330.614 264.658
L330.912 134.655
L330.986 143.283
L331.061 155.494
L331.135 153.835
L331.284 137.592
L331.507 204.258
L331.582 200.342
L331.805 157.476
L331.954 225.881
L332.102 283.723
L332.177 276.754
L332.251 277.088
L332.326 273.747
L332.474 227.287
L332.549 243.887
L332.698 310.346
L332.921 237.436
L333.144 191.54
L333.442 249.44
L333.59 225.006
L333.888 151.289
L333.962 151.831
L334.111 137.949
L334.26 158.259
L334.558 139.159
L334.632 144.377
L334.781 216.343
L335.004 324.043
L335.078 331.773
L335.153 331.071
L335.45 248.196
L335.599 265.165
L335.674 258.598
L335.897 201.09
L336.194 266.662
L336.418 200.48
L336.641 152.845
L336.79 176.426
L336.864 173.88
L337.013 159.734
L337.087 161.139
L337.236 179.848
L337.459 155.748
L337.98 244.152
L338.054 260.453
L338.278 230.708
L338.426 275.152
L338.65 334.884
L338.724 322.707
L338.947 235.662
L339.096 254.324
L339.394 147.476
L339.542 109.057
L339.617 109.345
L339.989 206.966
L340.212 178.292
L340.361 191.149
L340.733 274.185
L340.807 274.68
L341.105 227.759
L341.179 229.568
L341.402 253.495
L341.551 216.262
L341.7 193.487
L342.146 213.175
L342.221 223.439
L342.295 220.605
L342.518 148.179
L342.593 151.693
L342.89 219.557
L343.114 177.486
L343.188 192.877
L343.411 284.472
L343.709 255.81
L343.783 258.932
L343.858 259.001
L344.081 253.933
L344.155 262.849
L344.23 256.156
L344.527 182.163
L344.75 211.677
L344.899 175.493
L345.048 146.532
L345.271 174.721
L345.42 158.167
L345.569 175.136
L345.792 212.104
L345.941 184.34
L346.015 192.001
L346.387 281.419
L346.462 282.203
L346.61 265.291
L346.685 275.014
L346.834 309.689
L346.982 315.933
L347.057 299.391
L347.354 136.187
L347.652 179.675
L347.801 173.523
L347.95 184.087
L348.024 182.889
L348.173 152.591
L348.247 152.626
L348.619 185.032
L348.768 171.807
L349.289 303.964
L349.363 306.199
L349.512 296.879
L349.586 288.447
L349.661 290.416
L349.81 282.099
L349.884 283.654
L350.033 222.241
L350.256 131.118
L350.33 138.422
L350.554 204.754
L350.777 182.267
L351 156.128
L351.223 166.991
L351.446 213.981
L351.521 202.6
L351.595 203.337
L352.042 300.151
L352.116 285.463
L352.339 193.464
L352.414 199.673
L352.637 247.113
L352.711 243.069
L352.934 196.494
L353.009 196.932
L353.158 225.455
L353.381 209.869
L353.604 181.264
L353.678 187.785
L354.05 265.602
L354.125 264.934
L354.274 218.831
L354.422 167.371
L354.497 174.387
L354.794 231.469
L354.869 234.475
L354.943 230.363
L355.166 176.818
L355.315 202.404
L355.464 230.628
L355.762 158.455
L355.836 162.521
L355.985 174.882
L356.282 274.795
L356.357 268.505
L356.654 213.601
L356.729 215.018
L357.026 258.518
L357.101 256.179
L357.398 241.456
L357.547 255.142
L357.696 237.505
L357.845 176.576
L357.994 129.782
L358.217 226.112
L358.291 210.963
L358.514 112.168
L358.589 110.958
L358.961 239.199
L359.11 268.148
L359.184 264.784
L359.407 228.139
L359.482 229.257
L359.779 285.636
L359.928 275.832
L360.151 244.59
L360.226 243.242
L360.449 213.855
L360.746 145.599
L361.044 214.384
L361.193 240.258
L361.267 243.357
L361.342 237.136
L361.714 155.84
L361.937 215.364
L362.011 214.788
L362.086 195.734
L362.16 197.588
L362.681 263.99
L362.978 231.008
L363.127 236.388
L363.276 228.877
L363.35 231.169
L363.425 229.049
L363.648 151.048
L363.946 216.919
L364.094 185.216
L364.169 187.405
L364.541 255.534
L364.615 259.128
L364.987 168.247
L365.062 168.477
L365.21 202.173
L365.359 233.945
L365.434 225.812
L365.582 195.376
L365.657 199.812
L366.029 277.814
L366.103 281.247
L366.475 197.358
L366.698 190.181
L366.773 191.321
L366.922 204.063
L367.07 229.43
L367.294 214.189
L367.368 211.758
L367.442 212.714
L367.666 239.993
L367.814 190.964
L367.889 166.715
L367.963 176.092
L368.186 306.245
L368.261 304.678
L368.707 131.049
L368.782 135.254
L369.005 231.826
L369.228 159.065
L369.302 164.756
L369.526 284.288
L369.6 275.913
L369.898 151.958
L369.972 157.948
L370.344 280.521
L370.418 276.005
L370.716 185.25
L371.014 291.787
L371.088 269.761
L371.311 160.125
L371.683 276.892
L371.758 262.757
L372.055 94.277
L372.204 182.831
L372.353 255.327
L372.427 238.784
L372.65 127.224
L372.725 137.316
L373.022 308.86
L373.097 297.732
L373.394 181.794
L373.469 197.128
L373.766 338.351
L373.841 326.198
L374.064 190.792
L374.138 205.629
L374.287 278.827
L374.436 269.231
L374.51 252.262
L374.808 45.6626
L374.882 54.3602
L375.18 194.178
L375.403 143.099
L375.478 145.99
L375.998 288.873
L376.073 290.382
L376.222 264.877
L376.37 301.948
L376.519 368.534
L376.594 359.375
L376.891 185.573
L376.966 197.3
L377.04 218.44
L377.412 138.998
L377.635 112.548
L377.71 110.923
L377.784 125.07
L378.082 229.349
L378.156 226.469
L378.305 232.033
L378.528 223.624
L378.826 233.047
L378.974 245.247
L379.198 216.827
L379.346 259.6
L379.421 278.263
L379.495 273.597
L379.718 200.411
L380.09 230.363
L380.239 245.788
L380.537 168.95
L380.76 220.144
L380.909 178.05
L381.281 217.253
L381.355 217.322
L381.653 265.821
L381.727 256.041
L381.95 154.734
L382.025 161.024
L382.248 266.881
L382.694 128.422
L382.769 131.636
L383.141 229.384
L383.29 209.546
L383.364 213.175
L383.513 266.363
L383.736 356.633
L384.034 238.162
L384.182 219.695
L384.257 219.926
L384.406 254.578
L384.554 185.573
L384.778 91.8808
L384.852 93.4936
L385.075 215.778
L385.15 210.779
L385.373 132.892
L385.447 128.296
L385.522 133.226
L385.67 200.192
L385.894 296.649
L385.968 288.089
L386.117 245.373
L386.191 247.504
L386.414 270.798
L386.489 273.171
L386.563 279.818
L386.786 245.719
L386.861 249.129
L387.01 269.346
L387.158 296.464
L387.233 288.435
L387.605 68.357
L387.679 102.352
L387.902 210.053
L388.274 150.253
L388.349 147.407
L388.721 248.507
L388.795 236.249
L388.87 220.697
L388.944 222.091
L389.242 277.698
L389.316 277.076
L389.465 252.758
L389.614 229.234
L389.911 288.366
L390.06 254.497
L390.358 169.122
L390.432 170.194
L390.581 207
L390.655 203.21
L391.027 142.465
L391.102 132.028
L391.176 139.021
L391.474 260.787
L391.697 153.755
L391.771 158.42
L391.994 281.373
L392.069 281.35
L392.366 232.01
L392.441 230.098
L392.738 271.224
L392.813 263.978
L393.11 184.513
L393.185 193.775
L393.408 254.923
L393.482 249.601
L393.631 212.864
L393.706 214.477
L393.929 196.275
L394.003 200.284
L394.152 231.273
L394.301 260.153
L394.45 213.866
L394.598 155.494
L394.673 162.36
L394.896 219.787
L395.045 177.832
L395.194 132.12
L395.268 142.914
L395.566 242.977
L395.64 238.611
L395.789 200.952
L395.938 168.42
L396.012 174.502
L396.31 276.408
L396.458 289.38
L396.607 245.546
L396.756 204.523
L396.905 254.774
L397.054 313.053
L397.128 296.971
L397.351 146.509
L397.426 158.87
L397.649 278.781
L397.723 269.381
L398.021 105.878
L398.095 115.796
L398.393 225.098
L398.69 132.823
L398.765 143.479
L399.286 293.481
L399.509 229.36
L399.583 230.04
L399.732 275.279
L399.806 298.964
L399.881 294.011
L400.104 158.731
L400.178 173.869
L400.476 295.036
L400.55 275.59
L400.848 105.06
L401.146 221.446
L401.443 96.0971
L401.518 105.762
L401.815 239.763
L401.964 215.41
L402.187 255.407
L402.336 236.1
L402.634 339.952
L402.931 174.963
L403.229 320.046
L403.303 314.39
L403.601 173.488
L403.675 176.334
L403.898 189.19
L404.047 132.443
L404.196 69.5896
L404.27 78.8286
L404.642 266.95
L404.866 210.099
L405.089 175.862
L405.163 188.2
L405.461 344.906
L405.535 321.048
L405.758 219.833
L405.982 272.641
L406.13 232.621
L406.354 174.329
L406.428 169.641
L406.651 209.419
L406.726 207.081
L406.874 188.914
L407.098 88.0792
L407.172 90.2565
L407.544 330.425
L407.618 314.136
L407.842 207.438
L407.99 246.917
L408.139 305.473
L408.214 300.681
L408.511 130.312
L408.586 154.146
L408.809 260.384
L409.106 106.004
L409.181 117.997
L409.627 295.9
L409.776 269.68
L409.925 229.384
L409.999 230.524
L410.148 235.178
L410.222 239.625
L410.594 159.711
L410.669 167.682
L410.966 267.4
L411.264 153.11
L411.338 157.395
L411.562 280.095
L411.636 270.337
L411.934 133.952
L412.008 140.841
L412.306 286.131
L412.38 285.532
L412.678 209.523
L412.826 270.786
L412.975 308.964
L413.496 132.95
L413.57 146.44
L413.794 204.558
L414.091 158.616
L414.166 176.806
L414.389 269.657
L414.612 127.063
L414.761 79.1858
L414.91 143.997
L415.207 309.586
L415.43 234.902
L415.579 283.712
L415.728 331.22
L415.802 318.064
L416.174 134.804
L416.323 217.115
L416.546 327.972
L416.918 127.835
L416.993 147.419
L417.216 202.127
L417.29 205.721
L417.439 158.708
L417.662 108.481
L417.96 277.376
L418.034 272.238
L418.258 212.08
L418.555 318.802
L418.63 309.551
L418.778 233.058
L419.002 116.695
L419.076 127.846
L419.374 295.762
L419.82 179.583
L419.894 181.817
L420.043 203.717
L420.266 155.598
L420.341 167.337
L420.713 309.136
L420.862 214.96
L421.01 122.075
L421.085 131.095
L421.457 331.6
L421.531 310.369
L421.829 145.84
L421.903 148.813
L422.126 231.86
L422.201 214.626
L422.424 137.247
L422.498 146.232
L422.796 308.952
L422.945 238.185
L423.094 165.528
L423.168 168.685
L423.317 258.932
L423.466 323.49
L423.614 251.456
L423.838 146.486
L423.912 158.409
L424.135 277.387
L424.433 101.051
L424.507 106.039
L424.73 229.13
L424.879 291.096
L424.954 279.83
L425.251 155.771
L425.549 277.433
L425.846 206.32
L425.921 214.304
L426.144 336.543
L426.218 329.446
L426.367 253.149
L426.59 68.357
L426.665 83.7246
L427.037 287.894
L427.111 269.807
L427.409 171.784
L427.632 256.409
L427.706 237.332
L427.93 126.913
L428.004 130.392
L428.302 297.686
L428.376 293.078
L428.674 142.834
L428.748 145.817
L428.897 241.526
L429.046 326.198
L429.12 315.991
L429.343 222.748
L429.418 227.725
L429.492 234.971
L429.715 294.748
L430.087 123.607
L430.162 130.542
L430.385 232.69
L430.608 137.304
L430.757 75.6952
L430.831 92.3646
L431.203 278.125
L431.426 241.007
L431.501 248.115
L431.65 308.86
L431.798 362.704
L431.873 351.899
L432.17 154.964
L432.245 163.812
L432.394 228.404
L432.468 272.169
L432.542 267.146
L432.914 87.9179
L433.063 142.235
L433.212 184.052
L433.361 190.757
L433.51 212.806
L433.807 289.322
L433.956 268.667
L434.179 230.006
L434.328 241.56
L434.551 268.805
L434.626 265.66
L434.7 251.145
L434.923 145.138
L435.072 199.351
L435.221 260.315
L435.37 188.994
L435.518 115.531
L435.593 127.927
L435.965 259.877
L436.114 220.386
L436.262 179.963
L436.337 180.308
L436.486 211.297
L436.634 248.092
L436.709 247.712
L436.858 223.865
L437.081 264.047
L437.23 243.703
L437.602 160.148
L437.676 173.062
L437.974 282.468
L438.346 174.318
L438.494 168.097
L438.643 206.274
L438.792 242.493
L438.866 240.869
L439.015 215.813
L439.238 280.383
L439.313 273.678
L439.536 197.646
L439.685 154.043
L439.982 218.278
L440.131 183.856
L440.206 185.538
L440.354 198.429
L440.503 178.546
L440.801 242.436
L440.875 240.339
L441.024 226.285
L441.247 262.757
L441.396 235.812
L441.545 251.49
L441.842 182.313
L442.066 232.77
L442.14 244.889
L442.363 191.437
L442.438 200.998
L442.586 239.417
L442.661 238.715
L442.958 143.617
L443.033 145.806
L443.107 153.49
L443.256 148.939
L443.479 231.572
L443.554 228.992
L443.628 218.428
L443.702 223.151
L444.223 308.883
L444.595 207.83
L444.893 232.275
L445.116 145.345
L445.19 165.54
L445.414 286.534
L445.786 141.117
L445.934 128.376
L446.083 170.85
L446.232 223.877
L446.306 222.103
L446.455 207.046
L446.827 291.407
L446.902 338.87
L446.976 338.144
L447.274 174.779
L447.497 253.564
L447.571 248.069
L447.943 162.763
L448.166 255.868
L448.538 140.564
L448.613 135.818
L448.687 146.543
L449.059 270.164
L449.282 176.818
L449.357 187.543
L449.58 257.723
L449.729 317.753
L449.878 217.092
L449.878 217.092" style="fill:none;stroke:#808080;stroke-linecap:square;"/>
   </g>
  </g>
 </g>
 <defs>
  <clipPath id="p7ff5b81e1d">
   <rect height="345.6" width="446.4" x="72.0" y="43.2"/>
  </clipPath>
 </defs>
</svg>
