<?xml version="1.0" encoding="utf-8" standalone="no"?>
<!DOCTYPE svg PUBLIC "-//W3C//DTD SVG 1.1//EN"
  "http://www.w3.org/Graphics/SVG/1.1/DTD/svg11.dtd">
<!-- Created with matplotlib (http://matplotlib.org/) -->
<svg height="432pt" version="1.1" viewBox="0 0 576 432" width="576pt" xmlns="http://www.w3.org/2000/svg" xmlns:xlink="http://www.w3.org/1999/xlink">
 <defs>
  <style type="text/css">
*{stroke-linecap:butt;stroke-linejoin:round;}
  </style>
 </defs>
 <g id="figure_1">
  <g id="patch_1">
   <path d="
M0 432
L576 432
L576 0
L0 0
z
" style="fill:#ffffff;"/>
  </g>
  <g id="axes_1">
   <g id="line2d_1">
    <path clip-path="url(#p7ff5b81e1d)" d="
M72 229.819
L72.0744 217.101
L72.2232 205.316
L72.5208 227.25
L72.6696 230.591
L72.744 227.112
L73.0416 190.041
L73.3392 175.952
L73.488 182.368
L73.6368 196.423
L73.9344 223.541
L74.1576 214.993
L74.3808 224.877
L74.6784 250.832
L74.7528 251.419
L74.976 246.247
L75.348 199.326
L75.8688 245.429
L75.9432 239.922
L76.092 226.893
L76.1664 226.34
L76.836 159.294
L76.9104 163.948
L77.3568 227.861
L77.7288 254.484
L77.952 226.72
L78.1752 206.261
L78.324 217.654
L78.3984 215.557
L78.7704 174.109
L78.8448 180.733
L79.2912 242.33
L79.5888 260.059
L79.6632 259.76
L79.812 263.181
L80.4072 203.611
L80.556 197.321
L80.7048 186.999
L80.7792 187.057
L81.0768 201.492
L81.1512 211.422
L81.2256 209.521
L81.3 208.104
L81.4488 223.783
L81.5232 223.092
L81.5976 219.866
L81.7464 225.177
L81.9696 205.166
L82.1928 189.833
L82.2672 188.255
L82.3416 189.119
L82.5648 224.797
L82.788 252.825
L82.8624 254.749
L82.9368 254.414
L83.0856 235.245
L83.4576 185.836
L83.532 183.394
L83.6808 187.115
L83.904 178.429
L83.9784 183.06
L84.4992 253.539
L84.7968 249.277
L84.8712 250.117
L84.9456 254.057
L85.02 253.193
L85.4664 205.397
L85.5408 205.512
L85.6152 207.09
L85.764 201.515
L85.8384 198.635
L85.9128 200.651
L85.9872 198.174
L86.0616 198.531
L86.508 219.543
L86.5824 217.942
L86.9544 196.964
L87.0288 197.172
L87.252 191.423
L87.4752 198.865
L87.7728 234.807
L87.8472 233.137
L87.996 222.631
L88.0704 226.34
L88.1448 224.82
L88.2192 224.866
L88.368 234.231
L88.4424 237.826
L88.5168 237.238
L88.74 217.942
L88.9632 209.97
L89.112 217.17
L89.3352 210.189
L89.4096 210.869
L89.484 213.979
L89.6328 228.287
L89.7072 226.444
L89.9304 214.866
L90.0048 214.878
L90.1536 207.77
L90.228 208.277
L90.4512 220.684
L90.6 218.288
L90.6744 218.633
L90.8232 210.834
L91.0464 196.941
L91.1952 212.908
L91.344 232.169
L91.4184 232.066
L91.4928 229.232
L91.6416 234.992
L91.716 233.068
L91.7904 226.87
L91.8648 227.377
L92.0136 241.028
L92.088 241.005
L92.2368 229.577
L92.5344 189.718
L92.7576 148.799
L92.9064 165.353
L93.204 198.761
L93.3528 212.205
L93.6504 260.981
L93.7992 248.873
L94.0224 232.895
L94.0968 234.151
L94.2456 248.09
L94.32 245.936
L94.3944 240.118
L94.6176 196.066
L94.9896 219.739
L95.064 220.615
L95.1384 219.094
L95.5104 204.994
L95.6592 196.573
L95.8824 181.758
L95.9568 181.055
L96.1056 197.598
L96.4032 238.448
L96.7752 253.758
L96.8496 251.892
L97.9656 171.263
L98.1144 181.136
L98.2632 198.059
L98.4864 235.383
L98.6352 224.37
L98.8584 239.346
L99.0816 251.719
L99.3048 230.096
L99.528 211.721
L99.6768 218.023
L99.7512 222.746
L99.8256 219.808
L100.049 190.087
L100.272 205.305
L100.495 211.756
L100.718 224.048
L100.793 222.377
L100.867 216.11
L101.09 162.473
L101.165 166.045
L101.388 218.645
L101.611 270.37
L101.76 277.351
L101.834 278.457
L101.909 276.752
L101.983 272.432
L102.653 184.799
L102.802 180.986
L102.876 184.154
L102.95 183.613
L103.025 179.028
L103.099 180.502
L103.248 193.393
L103.397 185.387
L103.769 232.561
L103.992 252.318
L104.066 254.345
L104.141 253.205
L104.438 223.322
L104.662 175.364
L104.736 177.518
L104.959 194.683
L105.257 175.307
L105.406 159.052
L105.778 234.992
L106.224 339.985
L106.298 332.727
L107.266 135.182
L107.414 130.655
L107.489 129.768
L107.563 126.462
L107.638 131.07
L107.861 180.721
L108.158 264.46
L108.233 265.163
L108.977 197.264
L109.051 201.63
L109.2 209.21
L109.274 205.57
L109.498 178.452
L109.572 173.118
L109.721 194.05
L110.316 321.092
L110.465 298.363
L111.209 144.087
L111.581 189.027
L111.655 188.497
L111.878 157.209
L111.953 161.137
L112.25 184.246
L112.399 177.599
L112.622 208.438
L113.218 290.956
L113.366 284.228
L113.515 266.153
L113.813 196.999
L113.887 193.693
L114.334 235.234
L114.482 210.535
L114.854 150.504
L115.078 140.689
L115.301 196.077
L115.97 335.492
L116.045 334.167
L116.194 307.856
L117.012 93.2612
L117.086 84.4714
L117.384 126.22
L117.83 214.717
L118.054 262.478
L118.277 281.509
L118.574 320.885
L118.649 319.33
L118.798 291.117
L119.17 211.41
L119.393 221.283
L119.616 226.064
L119.69 227.204
L119.765 225.753
L119.914 209.936
L120.211 180.03
L120.434 171.286
L120.509 168.279
L120.806 183.325
L120.955 189.419
L121.03 189.096
L121.178 178.164
L121.327 188.267
L122.071 258.907
L122.146 257.963
L122.294 236.247
L122.443 228.114
L122.592 232.066
L122.815 214.797
L123.038 180.226
L123.336 206.088
L123.708 226.686
L123.931 257.214
L124.006 254.564
L124.229 227.25
L124.303 223.069
L124.378 226.029
L124.526 236.708
L124.973 194.649
L125.047 195.259
L125.196 200.489
L125.27 200.19
L125.494 196.1
L125.568 192.84
L125.642 193.934
L125.717 193.693
L125.791 194.061
L126.163 234.577
L126.238 231.835
L126.461 201.238
L126.535 200.052
L126.61 191.7
L126.684 193.289
L126.758 206.941
L126.833 204.13
L126.907 190.375
L126.982 196.331
L127.354 251.892
L127.502 260.382
L127.874 234.462
L127.949 235.948
L128.023 234.577
L128.246 211.883
L128.47 229.865
L128.693 222.838
L128.916 191.642
L128.99 192.08
L129.139 193.474
L129.362 202.102
L129.437 201.837
L129.511 199.222
L129.66 213.092
L129.734 218.806
L129.809 217.262
L130.032 202.252
L130.106 196.503
L130.255 206.699
L130.404 229.577
L130.478 227.469
L130.702 210.765
L130.776 207.609
L130.999 228.794
L131.371 192.103
L131.594 209.026
L131.743 207.079
L131.892 210.224
L132.041 195.962
L132.19 218.864
L132.487 261.868
L132.636 269.068
L132.71 266.706
L133.306 200.754
L133.529 184.442
L133.975 210.12
L134.198 224.647
L134.273 225.637
L134.347 223.956
L134.719 189.833
L134.794 189.96
L134.868 190.582
L134.942 187.967
L135.017 188.866
L135.314 211.525
L135.389 212.459
L135.463 217.401
L135.538 217.032
L135.612 219.774
L135.91 243.54
L135.984 240.291
L136.133 247.445
L136.282 234.485
L136.654 203.738
L136.802 206.756
L136.877 203.024
L136.951 204.337
L137.026 208.657
L137.1 207.678
L137.174 208.864
L137.398 233.632
L137.844 209.855
L137.993 217.297
L138.29 185.421
L138.439 189.949
L138.514 192.195
L138.588 191.458
L139.109 247.871
L139.183 244.438
L139.406 224.336
L139.555 234.093
L139.63 232.722
L139.778 241.558
L139.853 240.441
L140.076 223.794
L140.448 186.228
L140.597 193.531
L140.671 192.437
L140.746 192.368
L140.82 193.796
L141.043 215.788
L141.118 212.677
L141.341 198.715
L141.49 204.878
L141.787 221.306
L141.936 208.461
L142.085 214.889
L142.382 255.808
L142.457 252.133
L142.68 224.555
L142.829 235.464
L142.978 218.126
L143.201 190.847
L143.498 210.489
L143.722 232.538
L143.796 234.577
L144.242 207.666
L144.614 217.804
L144.689 216.617
L144.838 215.166
L144.986 207.252
L145.061 201.319
L145.21 206.226
L145.358 194.626
L145.507 203.254
L145.656 219.244
L145.73 218.322
L145.954 203.842
L146.102 225.292
L146.251 246.731
L146.4 228.759
L146.623 209.198
L146.772 220.453
L146.846 228.725
L146.921 226.513
L147.07 215.062
L147.293 231.052
L147.442 234.001
L147.665 226.34
L147.962 192.794
L148.111 191.653
L148.706 225.154
L148.781 222.17
L148.93 211.721
L149.004 212.977
L149.153 203.369
L149.227 206.077
L149.822 241.754
L149.897 240.487
L150.046 222.631
L150.194 195.858
L150.566 222.665
L150.641 222.953
L151.013 202.333
L151.162 188.566
L151.236 192.759
L151.534 224.543
L151.757 234.761
L151.98 237.86
L152.129 249.495
L152.352 230.441
L152.501 217.746
L152.65 222.158
L152.798 227.734
L153.17 176.493
L153.245 174.189
L153.394 191.469
L153.468 191.101
L153.542 188.209
L154.063 228.748
L154.138 224.532
L154.286 209.602
L154.361 209.302
L154.51 204.683
L154.584 207.125
L154.733 219.613
L154.807 218.818
L155.254 247.111
L155.328 245.751
L155.402 242.733
L155.626 229.773
L156.072 201.687
L156.146 202.333
L156.295 207.079
L156.444 200.409
L156.593 211.318
L156.667 208.046
L156.89 249.138
L156.965 246.27
L157.114 238.597
L157.337 219.486
L157.709 205.109
L158.006 184.949
L158.081 184.35
L158.155 185.317
L158.304 194.706
L158.676 220.926
L158.825 212.551
L159.048 230.603
L159.122 230.269
L159.346 223.645
L159.42 217.447
L159.494 217.55
L159.643 224.416
L159.792 221.824
L160.09 237.78
L160.238 218.691
L160.387 206.019
L160.61 220.304
L161.057 184.776
L161.28 201.065
L161.652 228.011
L161.726 227.02
L161.95 251.235
L162.024 250.463
L162.322 236.72
L162.396 240.199
L162.545 245.844
L162.619 243.943
L162.768 220.799
L162.991 192.137
L163.066 192.391
L163.289 195.271
L163.438 186.631
L163.512 180.733
L163.586 181.124
L163.735 186.55
L163.958 212.459
L164.033 213.565
L164.182 219.129
L164.33 217.55
L164.628 225.096
L164.702 224.578
L165 199.89
L165.074 199.787
L165.521 217.412
L165.744 261.292
L165.818 258.896
L165.967 247.802
L166.116 251.776
L166.488 243.758
L167.083 160.791
L167.158 168.809
L167.455 195.87
L167.827 220.453
L167.902 222.573
L167.976 222.02
L168.199 207.666
L168.348 222.999
L168.571 263.515
L168.794 253.09
L169.166 215.097
L169.241 211.514
L169.538 179.293
L169.687 167.773
L169.836 180.398
L169.91 178.532
L169.985 173.371
L170.059 174.512
L170.58 229.566
L170.952 253.723
L171.324 272.005
L171.473 260.785
L171.845 196.296
L171.919 194.269
L172.217 164.593
L172.366 186.158
L172.514 211.583
L172.589 211.295
L172.663 206.146
L172.738 207.897
L172.961 212.942
L173.184 231.766
L173.258 233.817
L173.407 222.896
L173.482 223.967
L173.705 234.946
L173.779 233.218
L174.077 200.052
L174.151 200.72
L174.449 218.898
L174.523 217.435
L174.821 197.897
L174.895 204.037
L174.97 201.71
L175.118 182.622
L175.565 222.043
L175.639 217.954
L175.788 232.953
L176.011 258.124
L176.234 247.952
L176.383 251.88
L176.458 250.141
L176.606 258.469
L176.681 251.765
L176.904 204.878
L177.053 184.822
L177.127 186.009
L177.202 185.675
L177.276 182.069
L177.425 169.961
L177.499 170.457
L177.574 172.645
L178.318 246.085
L178.466 251.834
L178.69 230.706
L178.764 232.895
L178.838 231.628
L179.21 191.734
L179.285 194.395
L179.359 197.725
L179.508 194.119
L179.954 216.848
L180.103 206.906
L180.178 208.818
L180.252 207.367
L180.401 199.141
L180.55 208.196
L180.847 241.328
L180.996 266.614
L181.07 265.623
L181.219 250.037
L181.442 213.277
L181.591 204.337
L181.666 206.065
L181.889 229.923
L182.038 220.926
L182.261 202.713
L182.41 225.476
L182.484 223.022
L182.782 198.692
L182.856 198.519
L183.154 226.605
L183.302 210.754
L183.377 213.242
L183.6 220.707
L183.972 198.877
L184.046 197.045
L184.27 172.622
L184.344 175.422
L184.642 191.077
L185.014 245.613
L185.237 272.766
L185.311 271.833
L185.386 274.402
L185.609 261.914
L185.832 238.402
L185.906 237.998
L185.981 232.031
L186.278 185.41
L186.427 172
L186.65 167.427
L186.799 159.87
L186.948 171.194
L187.618 256.177
L187.692 257.225
L187.99 249.703
L188.213 239.68
L188.287 240.579
L188.51 225.879
L188.659 215.454
L188.882 229.727
L189.031 217.873
L189.329 157.704
L189.626 191.953
L189.701 189.303
L189.924 193.623
L189.998 193.646
L190.073 191.342
L190.147 195.282
L190.594 291.555
L190.668 285.219
L190.891 254.253
L191.263 182.829
L191.338 183.785
L191.412 183.67
L191.486 177.714
L191.561 180.076
L191.858 221.986
L191.933 215.857
L192.082 197.16
L192.156 197.955
L192.23 196.285
L192.305 196.849
L192.454 211.122
L192.677 232.941
L192.826 250.256
L192.9 249.703
L192.974 247.284
L193.049 248.044
L193.272 256.189
L193.346 255.785
L193.421 256.776
L193.942 171.828
L194.016 174.42
L194.09 174.385
L194.165 177.092
L194.314 168.049
L194.388 169.8
L194.462 170.825
L194.611 156.368
L194.909 193.347
L195.355 276.475
L195.504 287.811
L195.95 254.196
L196.546 169.017
L196.694 170.987
L196.769 173.152
L196.918 179.062
L196.992 176.516
L197.141 188.244
L197.364 199.257
L197.438 201.319
L197.736 215.604
L197.81 214.521
L197.885 215.327
L198.108 232.63
L198.331 257.122
L198.48 264.575
L198.629 256.661
L199.224 179.869
L199.298 179.166
L199.67 202.701
L200.042 239.335
L200.191 255.808
L200.489 217.781
L200.638 194.004
L200.935 209.521
L201.233 249.541
L201.307 248.608
L201.605 209.924
L201.828 161.379
L202.126 198.715
L202.349 243.712
L202.572 221.744
L202.646 220.707
L202.795 213.668
L203.018 195.248
L203.093 194.361
L203.316 217.689
L203.39 215.039
L203.465 216.698
L203.688 252.606
L203.762 252.249
L203.911 241.051
L203.986 241.604
L204.134 250.106
L204.209 246.339
L204.581 179.442
L204.655 172.853
L204.804 189.396
L205.027 223.184
L205.176 224.727
L205.25 223.933
L205.474 217.942
L205.622 223.149
L205.771 207.632
L206.143 240.729
L206.218 239.208
L206.59 187.218
L206.664 191.446
L206.738 193.128
L206.887 175.318
L207.11 207.493
L207.408 240.855
L207.557 233.022
L207.706 214.693
L207.78 216.836
L208.003 248.516
L208.078 243.275
L208.301 210.708
L208.375 208.3
L208.598 213.599
L208.673 212.701
L208.896 218.288
L209.119 200.674
L209.268 218.299
L209.342 214.521
L209.417 208.323
L209.491 210.051
L209.64 218.91
L209.714 214.889
L209.863 236.213
L209.938 233.851
L210.012 227.665
L210.086 230.165
L210.161 231.651
L210.533 190.582
L210.607 183.82
L210.83 200.144
L211.351 233.575
L211.5 226.916
L211.574 231.72
L211.649 230.787
L211.798 224.82
L211.946 229.093
L212.021 227.861
L212.095 226.789
L212.17 230.038
L212.318 218.08
L212.467 204.118
L212.616 175.687
L212.69 177.622
L212.914 202.759
L212.988 203.911
L213.137 217.988
L213.211 214.164
L213.286 216.468
L213.434 227.746
L213.583 216.836
L213.732 222.688
L213.881 208.415
L214.104 227.112
L214.178 224.52
L214.253 222.412
L214.402 251.604
L214.476 247.364
L214.625 237.042
L214.699 238.759
L214.848 212.585
L214.922 213.484
L214.997 217.746
L215.146 188.025
L215.22 190.317
L215.294 199.095
L215.369 196.457
L215.443 189.614
L215.666 209.878
L215.741 203.865
L215.89 208.173
L215.964 207.447
L216.038 208.645
L216.187 214.924
L216.262 215.419
L216.485 235.706
L216.634 227.999
L216.782 245.164
L216.857 242.687
L217.154 192.172
L217.452 221.329
L217.526 218.864
L217.601 217.044
L217.675 222.516
L217.824 210.016
L217.898 210.477
L217.973 210.385
L218.047 211.341
L218.27 222.539
L218.345 224.221
L218.568 206.249
L218.642 209.959
L218.791 201.595
L218.94 206.871
L219.014 205.835
L219.089 206.537
L219.238 212.666
L219.312 213.069
L219.535 217.7
L219.758 228.08
L219.907 228.863
L219.982 227.941
L220.056 222.85
L220.13 224.174
L220.205 226.34
L220.279 225.983
L220.428 218.057
L220.502 213.945
L220.651 217.527
L220.726 212.677
L220.8 214.498
L220.874 220.868
L221.023 211.353
L221.098 212.919
L221.246 218.944
L221.321 219.163
L221.395 221.064
L221.47 218.91
L221.544 219.451
L221.693 223.817
L221.916 204.014
L221.99 208.473
L222.065 209.072
L222.214 196.642
L222.288 198.807
L222.362 193.232
L222.437 196.469
L222.66 217.781
L222.734 221.179
L222.809 219.463
L222.883 209.901
L222.958 212.205
L223.106 220.73
L223.181 212.804
L223.255 213.645
L223.33 220.258
L223.478 206.053
L223.627 219.232
L223.702 205.754
L223.776 207.205
L223.925 224.221
L223.999 224.773
L224.222 244.876
L224.446 238.091
L224.743 198.635
L224.892 217.746
L224.966 212.297
L225.115 219.371
L225.413 202.955
L225.562 219.716
L225.636 218.38
L225.71 210.857
L225.785 215.523
L225.934 234.047
L226.157 214.567
L226.306 219.336
L226.529 199.326
L226.752 211.261
L226.901 225.58
L227.198 205.12
L227.273 200.201
L227.347 201.123
L227.496 211.422
L227.719 228.69
L227.794 230.603
L227.868 229.704
L228.017 210.696
L228.091 212.113
L228.166 213.518
L228.389 208.611
L228.463 209.682
L228.612 196.63
L228.686 198.934
L228.761 208.588
L228.835 204.176
L228.91 194.868
L229.356 251.719
L229.877 213.668
L230.026 224.969
L230.1 220.361
L230.249 212.597
L230.323 211.802
L230.546 200.167
L230.77 225.637
L231.067 246.408
L231.142 244.91
L231.662 180.491
L231.737 186.539
L232.034 193.888
L232.332 213.369
L232.63 204.59
L232.927 245.164
L233.076 248.424
L233.448 203.531
L233.522 202.92
L233.671 207.229
L233.82 197.39
L233.969 211.664
L234.043 210.512
L234.118 209.625
L234.49 229.623
L234.713 221.64
L234.787 222.078
L234.936 227.389
L235.085 220.834
L235.159 225.257
L235.234 224.094
L235.382 228.414
L235.531 222.493
L235.606 222.919
L235.68 223.31
L235.754 225.096
L235.829 223.852
L236.201 198.439
L236.275 198.6
L236.35 202.505
L236.498 196.837
L236.573 199.015
L236.722 215.246
L236.796 215.016
L236.87 207.182
L236.945 207.482
L237.094 218.426
L237.242 213.334
L237.466 238.137
L237.54 236.293
L237.614 234.565
L237.912 199.176
L237.986 203.093
L238.135 216.18
L238.284 213.23
L238.358 214.981
L238.582 197.667
L238.656 197.943
L238.805 204.602
L238.954 222.147
L239.028 221.548
L239.177 212.228
L239.251 213.104
L239.474 241.915
L239.698 228.448
L239.846 218.334
L239.995 216.606
L240.144 242.514
L240.218 259.241
L240.293 256.465
L240.739 183.578
L240.888 179.085
L241.186 225.937
L241.26 219.67
L241.409 210.224
L241.483 214.359
L241.558 213.991
L241.632 214.509
L241.93 195.939
L242.004 197.125
L242.078 198.992
L242.376 223.956
L242.45 223.391
L242.599 222.389
L242.674 222.757
L242.822 228.805
L242.897 227.941
L243.12 215.097
L243.194 215.212
L243.269 214.371
L243.418 220.788
L243.566 214.267
L243.79 222.942
L243.864 222.55
L244.087 216.03
L244.162 219.129
L244.31 206.894
L244.459 225.211
L244.608 205.996
L244.757 223.264
L244.906 201.008
L245.054 226.686
L245.129 219.843
L245.203 207.263
L245.278 212.401
L245.352 220.315
L245.501 206.514
L245.65 220.189
L245.798 208.461
L245.947 220.811
L246.096 207.862
L246.245 226.133
L246.319 222.919
L246.394 213.76
L246.468 215.903
L246.542 213.622
L246.691 200.455
L246.84 226.571
L246.914 223.909
L246.989 218.092
L247.51 243.954
L247.956 189.879
L248.105 198.853
L248.179 213.484
L248.254 206.307
L248.477 194.038
L248.7 172.761
L248.849 190.467
L249.146 246.051
L249.295 255.198
L249.444 251.2
L249.518 253.527
L249.742 238.286
L249.816 242.756
L249.965 217.32
L250.039 206.215
L250.114 206.733
L250.188 204.809
L250.337 213.334
L250.411 215.984
L250.709 199.153
L250.783 200.939
L250.858 200.293
L251.006 223.979
L251.081 222.688
L251.527 199.257
L251.75 193.612
L251.825 194.13
L251.899 194.522
L252.048 179.604
L252.42 244.196
L252.494 246.834
L252.569 242.802
L252.718 251.269
L252.866 228.379
L252.941 230.983
L253.015 228.552
L253.313 188.267
L253.387 189.983
L253.61 207.505
L253.759 209.095
L253.834 210.454
L254.057 230.706
L254.131 240.429
L254.206 239.231
L254.28 231.939
L254.354 232.043
L254.429 234.059
L254.578 223.322
L254.726 230.914
L254.875 208.427
L254.95 210.258
L255.024 212.539
L255.098 207.205
L255.247 219.313
L255.396 204.683
L255.47 212.148
L255.545 211.595
L255.619 210.258
L255.768 223.31
L255.991 190.778
L256.066 190.582
L256.14 192.782
L256.289 217.009
L256.363 216.721
L256.438 215.293
L256.586 219.025
L256.661 228.656
L256.884 211.364
L257.033 221.778
L257.182 217.113
L257.256 223.61
L257.405 213.76
L257.479 217.712
L257.554 219.566
L257.777 211.134
L257.851 213.806
L257.926 212.366
L258 214.187
L258.223 196.757
L258.446 215.246
L258.67 236.823
L258.893 229.278
L259.042 213.253
L259.116 213.15
L259.265 231.593
L259.414 224.75
L259.562 238.782
L259.786 226.87
L260.158 179.212
L260.306 187.956
L260.381 189.707
L260.976 250.279
L261.05 259.437
L261.125 254.645
L261.348 222.654
L261.422 225.407
L261.571 203.807
L261.646 205.408
L261.72 206.987
L261.943 193.036
L262.092 193.981
L262.464 220.649
L262.687 189.856
L262.762 191.504
L262.91 209.947
L263.059 226.018
L263.134 226.294
L263.208 228.506
L263.357 218.414
L263.58 234.243
L263.803 226.49
L263.952 204.164
L264.547 235.89
L264.622 233.851
L264.845 218.53
L264.994 215.005
L265.068 224.059
L265.142 223.034
L265.44 192.172
L265.663 208.83
L265.738 205.846
L265.812 209.21
L265.961 221.836
L266.035 222.331
L266.11 224.497
L266.184 221.974
L266.258 215.477
L266.407 228.011
L266.63 207.689
L266.779 209.821
L266.854 207.47
L266.928 207.954
L267.002 213.726
L267.077 211.86
L267.151 206.687
L267.3 218.242
L267.374 223.38
L267.449 221.893
L267.523 216.237
L267.672 220.477
L267.97 183.624
L268.044 188.209
L268.267 223.714
L268.342 222.919
L268.714 245.279
L268.862 224.912
L268.937 226.651
L269.086 217.527
L269.309 193.024
L269.681 244.392
L269.755 241.696
L270.053 227.077
L270.127 225.879
L270.35 206.745
L270.499 197.851
L270.648 190.133
L270.722 192.702
L270.797 190.444
L271.169 224.128
L271.318 205.132
L271.392 209.671
L271.466 212.447
L271.541 201.906
L271.987 240.349
L272.136 230.683
L272.21 234.819
L272.359 223.092
L272.582 194.914
L272.954 210.903
L273.103 206.987
L273.252 214.233
L273.401 212.101
L273.624 226.26
L273.773 217.712
L273.996 232.342
L274.145 217.977
L274.294 224.958
L274.368 222.631
L274.591 194.43
L274.814 221.306
L275.038 226.651
L275.112 224.048
L275.335 205.547
L275.41 206.56
L275.707 224.439
L275.93 207.102
L276.005 191.907
L276.079 195.997
L276.377 223.806
L276.526 207.712
L276.6 213.242
L276.823 239.139
L276.972 258.654
L277.121 245.141
L277.418 185.421
L277.567 205.789
L277.642 203.208
L277.79 172.542
L277.865 174.926
L277.939 187.057
L278.014 185.847
L278.088 185.133
L278.386 223.103
L278.758 252.928
L279.13 212.712
L279.204 216.986
L279.353 247.168
L279.427 244.081
L279.502 237.411
L279.576 240.867
L279.725 260.163
L279.874 234.888
L280.171 189.833
L280.394 171.413
L280.543 156.552
L281.064 203.312
L281.213 230.13
L281.362 222.066
L281.585 244.669
L281.882 270.692
L281.957 265.865
L282.106 241.316
L282.18 239.081
L282.403 199.959
L282.478 204.936
L282.552 206.722
L282.626 201.181
L282.701 202.021
L282.775 206.019
L282.85 216.836
L283.073 185.721
L283.147 188.647
L283.296 190.732
L283.519 243.966
L283.594 235.51
L283.668 220.972
L283.742 221.271
L283.817 223.195
L283.966 213.991
L284.114 237.307
L284.189 234.197
L284.412 221.951
L284.486 220.972
L284.635 231.259
L284.858 209.97
L284.933 213.426
L285.007 212.539
L285.379 173.44
L285.454 176.447
L285.751 214.521
L285.826 216.986
L285.974 234.301
L286.123 220.453
L286.272 234.162
L286.346 233.437
L286.495 235.787
L286.718 217.919
L286.793 218.541
L286.942 228.068
L287.165 213.392
L287.239 217.424
L287.314 215.961
L287.462 200.121
L287.611 207.229
L287.76 202.897
L287.834 209.509
L287.983 196.999
L288.132 216.237
L288.206 211.237
L288.281 202.356
L288.727 235.948
L288.876 228.345
L289.099 250.901
L289.248 234.335
L289.397 249.346
L289.918 183.037
L290.066 191.02
L290.215 176.643
L290.364 189.983
L290.438 190.133
L290.81 232.549
L290.885 229.877
L290.959 222.976
L291.034 227.711
L291.108 221.145
L291.182 222.228
L291.331 241.132
L291.48 211.479
L291.554 217.942
L291.629 216.122
L291.703 211.721
L291.778 214.935
L292.001 196.734
L292.224 212.125
L292.373 184.995
L292.447 189.545
L292.745 227.884
L292.968 253.516
L293.042 250.382
L293.266 225.753
L293.34 229.312
L293.489 218.852
L293.563 221.502
L293.638 221.006
L293.861 212.251
L294.307 239.197
L294.456 212.701
L294.53 215.892
L294.605 215.581
L294.754 200.651
L294.828 203.957
L294.902 213.818
L294.977 212.125
L295.2 199.913
L295.349 180.871
L295.423 190.455
L295.572 162.6
L296.093 237.86
L296.242 225.787
L296.316 235.545
L296.39 234.612
L296.465 232.066
L296.539 232.089
L296.688 241.005
L296.837 220.58
L296.911 225.28
L296.986 228.817
L297.134 205.892
L297.209 206.987
L297.506 222.389
L297.581 220.695
L297.655 213.622
L297.73 216.041
L297.804 220.707
L297.878 212.942
L297.953 214.394
L298.027 218.495
L298.102 231.167
L298.176 229.727
L298.399 215.557
L298.474 203.922
L298.622 218.253
L298.771 210.35
L298.92 225.061
L299.069 195.49
L299.143 200.455
L299.218 205.627
L299.292 198.934
L299.366 203.139
L299.59 243.643
L299.664 232.78
L299.738 235.061
L299.813 237.86
L299.887 233.909
L300.036 205.639
L300.11 209.452
L300.185 205.097
L300.334 182.829
L300.482 173.613
L300.631 201.261
L300.854 240.959
L300.929 237.376
L301.078 241.477
L301.45 198.796
L301.598 170.975
L301.673 174.224
L302.268 242.802
L302.417 236.293
L302.566 266.188
L302.64 259.23
L302.863 219.06
L303.012 212.516
L303.161 229.036
L303.235 228.183
L303.458 217.09
L303.607 224.186
L303.83 209.175
L303.905 211.779
L304.128 183.762
L304.202 192.414
L304.277 192.022
L304.426 180.848
L304.649 206.053
L304.946 240.026
L305.095 272.708
L305.393 213.207
L305.467 216.56
L305.616 229.278
L305.839 201.238
L305.988 185.076
L306.211 199.118
L306.286 194.487
L306.36 186.873
L306.434 190.052
L306.583 205.074
L306.658 202.413
L306.732 202.586
L306.955 224.958
L307.104 219.613
L307.178 223.276
L307.402 247.929
L307.55 243.252
L307.625 246.673
L307.848 211.019
L307.922 220.062
L307.997 223.794
L308.071 222.446
L308.22 220.857
L308.294 227.653
L308.443 209.187
L308.741 225.96
L308.815 229.22
L308.964 213.887
L309.038 216.11
L309.113 212.896
L309.187 203.911
L309.262 208.703
L309.336 221.133
L309.41 216.733
L309.559 198.036
L309.634 201.906
L309.708 200.501
L309.857 186.331
L310.303 224.52
L310.378 227.999
L310.526 222.078
L310.75 209.291
L310.973 188.117
L311.345 229.646
L311.419 228.529
L311.568 225.995
L311.642 234.036
L311.791 220.419
L311.866 221.214
L312.014 229.739
L312.089 228.667
L312.238 224.704
L312.461 203.634
L312.535 204.994
L312.684 190.628
L312.758 185.755
L313.056 229.543
L313.279 249.3
L313.354 257.122
L313.874 227.077
L314.023 240.291
L314.098 230.683
L314.246 193.416
L314.321 193.554
L314.693 166.609
L314.767 167.98
L315.065 204.256
L315.288 235.671
L315.437 260.854
L315.511 259.587
L315.586 260.278
L315.734 251.269
L315.809 256.615
L316.106 222.354
L316.33 183.451
L316.553 132.948
L316.702 154.455
L317.148 237.365
L317.297 243.39
L317.371 243.309
L317.52 223.103
L317.669 236.593
L317.743 234.289
L317.892 234.888
L318.041 232.089
L318.115 229.485
L318.19 230.084
L318.338 227.515
L318.71 235.706
L318.785 233.897
L319.008 211.261
L319.157 213.714
L319.306 197.817
L319.38 201.273
L319.454 197.725
L319.603 184.269
L319.678 182.507
L319.826 171.182
L320.124 199.464
L320.422 235.591
L320.496 238.263
L320.719 261.845
L320.794 261.142
L320.942 237.964
L321.166 205.996
L321.314 208.185
L321.538 188.543
L321.686 198.877
L321.761 187.057
L321.91 206.042
L322.058 201.872
L322.133 202.805
L322.654 250.244
L322.802 233.241
L322.951 215.316
L323.026 219.175
L323.174 205.823
L323.323 192.356
L323.546 203.773
L323.621 204.429
L323.77 210.097
L323.918 206.641
L324.365 240.337
L324.514 218.599
L324.662 234.093
L324.737 233.989
L325.109 184.972
L325.183 192.287
L325.332 217.124
L325.406 231.455
L325.481 229.531
L325.704 206.261
L325.778 204.014
L326.002 219.958
L326.15 229.6
L326.299 209.913
L326.522 232.158
L326.746 221.744
L326.82 213.023
L326.894 213.829
L326.969 216.859
L327.118 202.978
L327.266 222.827
L327.415 206.894
L327.564 190.075
L327.713 205.109
L327.787 199.038
L327.862 202.125
L328.01 213.438
L328.159 203.738
L328.606 246.247
L328.68 246.535
L328.754 241.685
L328.903 219.417
L329.201 242.33
L329.498 194.787
L329.796 180.329
L329.945 199.314
L330.094 178.175
L330.317 206.964
L330.614 246.085
L330.689 239.588
L330.912 214.705
L331.284 231.766
L331.507 223.011
L331.582 221.306
L331.656 223.31
L331.805 207.39
L331.879 211.825
L332.177 226.398
L332.251 224.29
L332.326 225.28
L332.4 228.621
L332.623 212.343
L332.698 218.23
L332.921 195.778
L333.07 204.464
L333.218 225.361
L333.59 196.054
L333.665 197.437
L333.739 201.25
L333.888 224.462
L333.962 223.921
L334.037 221.905
L334.186 225.799
L334.334 199.959
L334.483 223.725
L334.558 221.145
L334.706 241.789
L334.781 239.024
L334.93 227.135
L335.004 227.365
L335.078 231.57
L335.153 231.017
L335.227 231.029
L335.525 155.054
L335.599 161.471
L335.748 180.79
L335.971 232.619
L336.046 232.054
L336.194 213.622
L336.343 217.262
L336.418 216.905
L336.566 240.164
L336.641 236.708
L336.79 229.911
L336.938 233.218
L337.013 222.205
L337.087 224.37
L337.236 237.826
L337.31 234.635
L337.459 248.401
L337.608 223.126
L337.757 247.33
L337.831 240.959
L338.054 209.36
L338.278 172.185
L338.352 173.809
L338.724 203.623
L338.798 197.828
L338.873 200.466
L339.096 221.375
L339.245 202.252
L339.319 204.59
L339.394 212.574
L339.468 211.848
L339.542 208.277
L339.691 238.736
L339.766 235.729
L339.84 224.797
L339.914 227.907
L339.989 234.093
L340.212 195.478
L340.286 204.671
L340.435 186.504
L340.956 238.033
L341.03 235.372
L341.105 238.079
L341.254 234.036
L341.402 242.007
L341.626 261.534
L341.849 240.21
L342.072 204.498
L342.221 183.278
L342.295 186.089
L342.518 206.134
L342.593 207.332
L342.816 213.565
L343.337 179.822
L343.411 184.926
L343.634 205.512
L344.155 244.404
L344.23 248.482
L344.304 246.166
L344.676 209.095
L344.75 209.026
L344.899 212.286
L344.974 212.32
L345.271 223.414
L345.42 213.576
L345.569 204.418
L345.643 203.07
L345.792 194.395
L345.941 208.669
L346.015 204.51
L346.09 203.381
L346.164 205.143
L346.238 212.148
L346.313 209.337
L346.387 210.903
L346.759 252.905
L346.834 253.309
L346.908 249.495
L347.131 227.734
L347.206 228.552
L347.354 235.844
L347.429 232.549
L347.801 197.725
L347.95 196.285
L348.024 188.992
L348.47 216.537
L348.545 215.88
L348.694 220.914
L348.842 212.424
L348.917 210.731
L349.066 185.271
L349.14 188.244
L349.214 187.322
L349.289 180.525
L349.512 199.994
L349.735 221.629
L349.81 218.253
L350.033 246.765
L350.107 246.708
L350.33 244.3
L350.926 197.851
L351.074 194.937
L351.521 230.845
L351.744 243.931
L351.818 242.583
L351.893 243.574
L351.967 242.676
L352.042 248.873
L352.116 246.938
L352.339 222.285
L352.414 224.866
L352.488 220.269
L352.86 174.178
L352.934 172.922
L353.232 200.305
L353.381 183.428
L353.455 185.617
L353.678 204.798
L353.753 206.215
L353.827 204.567
L354.05 234.07
L354.125 232.607
L354.199 231.49
L354.348 248.919
L354.72 233.782
L354.869 206.825
L354.943 206.848
L355.092 214.21
L355.241 237.803
L355.315 235.291
L355.464 239.957
L355.687 209.221
L355.762 212.585
L355.985 191.469
L356.059 191.389
L356.134 189.407
L356.282 173.36
L356.58 195.766
L357.101 262.248
L357.324 249.403
L357.547 255.958
L357.622 254.126
L358.142 179.154
L358.291 168.959
L358.366 168.349
L358.44 170.365
L358.589 184.868
L358.738 226.375
L358.812 225.972
L358.886 226.72
L359.11 211.86
L359.258 212.044
L359.482 222.124
L359.556 218.461
L359.63 226.697
L359.705 224.923
L359.854 200.247
L360.002 213.357
L360.077 212.493
L360.151 210.132
L360.226 215.915
L360.3 215.385
L360.374 210.155
L360.821 236.846
L360.895 232.699
L361.118 250.117
L361.565 187.264
L362.086 244.035
L362.16 238.724
L362.234 247.963
L362.309 247.491
L362.458 237.042
L362.83 202.183
L362.904 204.648
L363.202 172.772
L363.35 200.247
L363.425 200.052
L363.574 177.253
L363.871 211.376
L363.946 214.21
L364.169 245.417
L364.392 251.569
L364.466 247.41
L364.838 209.371
L364.913 210.339
L364.987 208.116
L365.136 217.873
L365.285 202.978
L365.508 227.988
L365.582 227.792
L365.731 211.019
L365.88 213.323
L365.954 210.685
L366.103 216.099
L366.252 200.962
L366.326 202.402
L366.55 224.209
L366.624 222.861
L366.698 229.174
L366.773 227.043
L366.996 200.593
L367.145 206.906
L367.219 205.408
L367.368 194.165
L367.442 196.642
L367.591 201.975
L367.963 247.825
L368.186 253.458
L368.633 225.211
L368.707 223.103
L369.005 195.57
L369.154 182.069
L369.302 191.688
L369.377 186.458
L369.451 189.799
L369.6 179.12
L369.674 184.603
L369.749 201.929
L369.823 201.48
L369.898 194.683
L370.195 245.509
L370.493 274.782
L370.865 210.535
L370.939 212.977
L371.014 219.613
L371.088 218.011
L371.237 209.844
L371.311 215.845
L371.46 208.346
L371.534 214.359
L371.609 214.025
L372.204 183.071
L372.576 208.957
L372.874 222.873
L372.948 222.792
L373.171 261.511
L373.246 259.956
L373.32 267.605
L373.394 263.538
L373.618 227.734
L373.692 224.036
L373.841 214.521
L373.99 208.669
L374.213 189.499
L374.362 168.464
L374.51 181.689
L374.585 181.62
L375.031 228.322
L375.106 226.478
L375.18 227.101
L375.254 226.663
L375.329 228.863
L375.552 248.493
L375.701 221.271
L375.775 227.124
L375.85 226.26
L375.998 211.79
L376.073 225.557
L376.147 225.2
L376.222 226.11
L376.296 228.506
L376.37 237.169
L376.519 222.631
L376.891 185.997
L376.966 187.414
L377.114 192.517
L377.561 223.668
L377.71 231.098
L377.784 230.741
L377.858 234.554
L378.23 215.281
L378.379 222.308
L378.528 217.735
L378.677 225.465
L378.751 223.23
L378.974 197.39
L379.049 196.331
L379.123 191.7
L379.198 193.393
L379.57 235.66
L379.644 232.503
L379.867 215.488
L380.016 207.758
L380.239 224.036
L380.314 225.211
L380.388 229.439
L380.611 213.092
L380.909 227.723
L380.983 228.31
L381.206 211.099
L381.43 187.057
L381.578 183.474
L381.876 202.482
L382.174 252.514
L382.248 251.696
L382.397 247.618
L382.769 222.32
L383.141 205.339
L383.215 212.597
L383.29 211.986
L383.438 196.1
L383.513 196.423
L383.587 192.368
L383.662 194.821
L384.034 231.962
L384.108 232.492
L384.182 236.616
L384.257 236.443
L384.406 225.949
L384.48 226.11
L384.554 226.709
L384.778 205.512
L384.852 202.528
L384.926 204.579
L385.075 213.876
L385.373 200.72
L385.447 206.987
L385.522 205.408
L385.596 197.713
L385.67 199.141
L385.894 218.576
L386.042 232.515
L386.117 239.45
L386.191 237.941
L386.414 218.979
L386.489 210.443
L386.563 212.712
L386.638 213.726
L386.786 225.799
L386.861 224.509
L387.01 211.664
L387.084 209.533
L387.233 188.509
L387.307 191.147
L387.605 242.203
L387.828 244.669
L388.646 172.231
L388.721 175.122
L388.87 181.896
L388.944 181.631
L389.39 256.05
L389.539 239.761
L389.762 266.107
L390.581 189.626
L390.655 189.856
L390.73 191.239
L390.878 175.733
L391.399 222.308
L391.474 220.857
L391.548 217.09
L391.622 219.301
L391.846 232.48
L391.994 234.116
L392.59 201.837
L392.664 195.709
L392.738 197.264
L392.962 213.092
L393.185 192.31
L393.408 207.517
L393.482 209.498
L393.557 206.261
L393.631 207.321
L393.929 230.672
L394.003 230.798
L394.152 233.195
L394.226 232.987
L394.301 231.743
L394.375 231.916
L394.524 234.83
L394.598 234.842
L394.747 232.607
L394.97 208.507
L395.119 213.15
L395.268 212.493
L395.417 229.911
L395.491 229.796
L395.566 230.176
L395.64 235.683
L395.714 229.842
L395.938 198.773
L396.086 209.256
L396.161 210.224
L396.31 220.88
L396.533 191.941
L396.607 194.764
L396.905 232.688
L396.979 228.206
L397.128 216.986
L397.277 194.868
L397.426 198.393
L397.574 191.803
L397.649 185.294
L397.723 185.709
L398.021 227.008
L398.318 191.953
L398.393 197.483
L398.69 229.854
L398.765 231.927
L398.914 241.765
L399.732 210.178
L399.806 211.595
L399.881 215.431
L400.104 252.629
L400.178 250.025
L400.55 216.744
L400.699 203.934
L400.848 222.228
L401.22 183.82
L401.294 183.451
L401.592 221.536
L401.666 222.965
L401.89 214.094
L401.964 215.523
L402.113 221.168
L402.262 229.335
L402.485 214.809
L402.634 195.248
L402.782 173.463
L402.857 173.579
L402.931 175.433
L403.303 229.197
L403.452 212.413
L403.526 212.608
L403.675 227.365
L403.75 227.538
L403.973 249.599
L404.047 245.763
L404.122 244.726
L404.27 233.068
L404.568 191.066
L404.717 197.736
L405.014 222.124
L405.163 208.542
L405.238 213.323
L405.535 263.988
L405.61 262.893
L405.833 245.59
L406.056 221.053
L406.13 222.562
L406.428 168.337
L406.577 172.576
L406.8 195.973
L406.949 182.023
L407.023 185.629
L407.321 232.457
L407.618 222.965
L407.693 224.497
L407.842 238.678
L408.214 205.42
L408.288 200.904
L408.362 201.895
L408.437 205.869
L408.586 192.402
L408.66 193.957
L408.809 190.237
L408.958 218.691
L409.181 260.727
L409.33 238.482
L409.404 227.688
L409.478 229.969
L409.627 239.3
L409.702 238.77
L409.776 239.081
L409.925 232.331
L409.999 234.312
L410.074 233.966
L410.148 231.444
L410.222 232.238
L410.297 230.833
L410.52 198.646
L410.669 179.65
L410.818 170.215
L410.892 173.59
L411.115 205.524
L411.413 201.618
L411.71 223.817
L411.859 237.745
L412.008 239.392
L412.082 238.39
L412.306 216.352
L412.454 195.34
L412.603 206.307
L412.678 207.286
L412.826 221.467
L412.901 221.099
L412.975 222.884
L413.05 227.953
L413.124 226.974
L413.273 225.419
L413.422 211.975
L413.496 212.228
L413.719 218.806
L413.794 217.781
L413.868 209.394
L413.942 212.274
L414.017 215.673
L414.166 201.837
L414.24 206.998
L414.463 221.859
L414.612 236.063
L414.686 232.261
L414.91 199.821
L414.984 202.943
L415.133 196.066
L415.356 215.892
L415.43 214.774
L415.505 207.862
L415.579 210.719
L415.728 223.345
L415.877 221.168
L416.026 233.886
L416.1 231.467
L416.174 231.778
L416.249 231.259
L416.398 210.673
L416.472 212.228
L416.621 228.114
L416.695 226.87
L416.77 222.423
L416.844 222.596
L416.918 228.172
L417.29 215.488
L417.365 217.769
L417.439 214.751
L417.662 191.319
L417.886 187.31
L418.183 202.033
L418.332 218.518
L418.481 202.471
L418.927 244.83
L419.299 209.198
L419.522 244.991
L419.597 237.215
L419.746 250.659
L420.266 189.061
L420.341 189.972
L420.415 194.338
L420.49 205.431
L420.564 204.855
L420.638 197.068
L420.713 199.199
L420.787 201.157
L420.936 190.167
L421.382 239.012
L421.68 222.469
L421.754 223.241
L421.903 231.328
L422.424 197.125
L422.573 193.888
L422.647 195.397
L422.87 215.65
L422.945 210.869
L423.019 211.595
L423.317 231.351
L423.614 261.315
L423.763 242.353
L423.986 212.562
L424.135 216.64
L424.21 215.638
L424.284 216.974
L424.358 221.133
L424.433 220.212
L425.028 180.295
L425.177 175.41
L425.251 181.09
L425.4 197.333
L425.474 197.701
L425.698 221.582
L425.772 217.585
L425.995 234.6
L426.218 277.42
L426.293 278.503
L426.442 248.539
L426.59 212.113
L426.665 214.175
L426.739 211.226
L426.888 224.393
L427.037 204.095
L427.26 174.569
L427.334 173.751
L427.409 176.47
L427.781 225.038
L427.855 229.059
L428.078 219.428
L428.153 224.946
L428.227 221.94
L428.302 223.195
L428.45 250.371
L428.525 267.017
L428.599 260.151
L428.897 205.915
L428.971 209.06
L429.269 232.319
L429.641 184.5
L429.79 181.954
L429.938 199.026
L430.162 235.003
L430.236 231.881
L430.608 183.958
L430.906 247.307
L430.98 246.327
L431.129 232.791
L431.203 236.547
L431.352 221.341
L431.426 209.095
L431.501 209.256
L431.575 210.051
L431.798 214.59
L432.17 164.593
L432.319 200.869
L432.542 248.343
L432.691 232.538
L432.914 203.611
L432.989 206.941
L433.361 289.262
L433.435 275.531
L433.807 200.628
L433.882 202.148
L434.179 219.82
L434.254 215.2
L434.551 161.01
L434.626 164.8
L434.998 228.149
L435.221 196.308
L435.295 196.999
L435.444 217.067
L435.667 279.424
L435.742 275.669
L436.114 159.628
L436.188 161.022
L436.56 219.543
L436.634 215.926
L436.858 188.601
L437.081 229.381
L437.304 261.154
L437.602 181.044
L437.676 183.543
L437.825 226.617
L438.048 292.868
L438.42 217.746
L438.718 244.519
L438.792 240.786
L439.015 194.257
L439.238 162.047
L439.61 207.194
L439.685 204.798
L439.908 194.718
L439.982 182.299
L440.057 183.555
L440.429 247.848
L440.503 247.549
L441.098 209.774
L441.247 205.927
L441.396 221.663
L441.619 181.078
L441.694 186.884
L442.066 254.772
L442.14 249.161
L442.363 210.339
L442.438 209.21
L442.512 210.143
L442.958 226.432
L443.182 202.286
L443.256 203.438
L443.405 216.744
L443.628 241.489
L443.702 243.309
L444 218.368
L444.223 227.734
L444.521 182.288
L444.595 181.666
L444.67 177.219
L444.744 177.899
L444.818 178.797
L445.042 218.115
L445.265 255.221
L445.339 252.663
L445.637 211.18
L445.711 214.912
L445.86 212.724
L445.934 212.839
L446.158 197.736
L446.232 199.049
L446.455 204.59
L446.53 204.74
L446.678 211.652
L446.902 229.681
L446.976 227.043
L447.199 201.584
L447.274 207.424
L447.497 242.134
L447.646 233.748
L447.869 206.629
L447.943 207.413
L448.166 202.344
L448.613 232.768
L448.687 230.199
L448.762 228.794
L448.985 251.016
L449.282 217.343
L449.431 203.842
L449.58 196.25
L449.654 190.778
L449.878 211.088
L449.878 211.088" style="fill:none;stroke:#808080;stroke-linecap:square;"/>
   </g>
  </g>
 </g>
 <defs>
  <clipPath id="p7ff5b81e1d">
   <rect height="345.6" width="446.4" x="72.0" y="43.2"/>
  </clipPath>
 </defs>
</svg>
