<?xml version="1.0" encoding="utf-8" standalone="no"?>
<!DOCTYPE svg PUBLIC "-//W3C//DTD SVG 1.1//EN"
  "http://www.w3.org/Graphics/SVG/1.1/DTD/svg11.dtd">
<!-- Created with matplotlib (http://matplotlib.org/) -->
<svg height="432pt" version="1.1" viewBox="0 0 576 432" width="576pt" xmlns="http://www.w3.org/2000/svg" xmlns:xlink="http://www.w3.org/1999/xlink">
 <defs>
  <style type="text/css">
*{stroke-linecap:butt;stroke-linejoin:round;}
  </style>
 </defs>
 <g id="figure_1">
  <g id="patch_1">
   <path d="
M0 432
L576 432
L576 0
L0 0
z
" style="fill:#ffffff;"/>
  </g>
  <g id="axes_1">
   <g id="line2d_1">
    <path clip-path="url(#p7ff5b81e1d)" d="
M72 209.629
L72.0744 212.619
L72.2232 214.779
L72.372 213.88
L72.5208 207.423
L72.8184 188.588
L72.8928 188.703
L73.116 203.743
L73.488 225.999
L73.6368 224.133
L73.7856 222.071
L73.86 222.572
L74.232 233.003
L74.4552 228.298
L74.5296 230.1
L74.6784 239.334
L74.7528 237.813
L74.976 209.134
L75.348 151.453
L75.4968 164.292
L76.1664 274.072
L76.2408 273.951
L76.3896 264.136
L77.5056 146.494
L77.58 150.595
L77.7288 174.096
L78.2496 268.416
L78.324 268.301
L78.5472 257.028
L79.2168 198.075
L79.5144 189.147
L79.5888 188.911
L79.6632 190.379
L79.8864 207.896
L80.2584 241.373
L80.3328 241.96
L80.6304 233.268
L80.8536 214.762
L81.2256 184.038
L81.3 182.477
L81.3744 183.888
L81.5976 203.754
L81.9696 236.845
L82.044 238.55
L82.1184 236.915
L82.3416 213.356
L82.4904 197.274
L82.5648 200.575
L82.788 261.873
L82.9368 292.47
L83.0112 287.62
L83.2344 202.349
L83.4576 131.432
L83.532 125.251
L83.6064 128.73
L83.8296 179.291
L84.1272 243.107
L84.276 249.391
L84.3504 249.448
L84.4248 248.584
L84.5736 269.896
L84.7968 324.098
L84.8712 323.954
L85.02 278.254
L85.4664 69.3504
L85.5408 77.0976
L86.2848 248.037
L86.6568 269.268
L86.88 271.78
L86.9544 271.578
L87.1032 267.846
L87.252 256.343
L87.996 148.7
L88.0704 152.755
L88.2192 181.434
L88.5168 246.488
L88.5912 250.335
L88.6656 248.498
L88.8144 216.374
L89.0376 162.559
L89.1864 185.754
L89.5584 283.801
L89.6328 285.373
L89.7072 282.349
L89.856 258.083
L90.228 181.319
L90.6744 151.563
L90.8232 169.655
L91.4184 283.905
L91.5672 276.808
L91.9392 249.425
L92.1624 202.746
L92.5344 80.4556
L92.6088 81.9302
L92.7576 131.812
L93.204 316.138
L93.2784 317.278
L93.4272 294.63
L94.0224 144.305
L94.0968 146.65
L94.32 175.213
L94.8408 293.639
L94.9152 292.337
L95.064 273.364
L95.436 177.345
L95.6592 135.239
L95.7336 137.416
L95.9568 203.144
L96.2544 292.919
L96.3288 289.601
L96.552 244.719
L96.7752 218.84
L96.9984 212.659
L97.4448 135.164
L97.5192 138.355
L97.7424 174.856
L98.04 236.459
L98.1144 237.26
L98.1888 237.145
L98.2632 236.667
L98.4864 261.481
L98.784 310.948
L98.8584 308.701
L99.0816 262.299
L99.6768 128.673
L99.7512 125.447
L99.8256 126.68
L100.123 150.267
L101.016 278.26
L101.09 277.741
L101.165 278.208
L101.462 258.722
L101.983 224.162
L102.132 216.852
L102.355 192.223
L102.802 162.299
L102.876 161.453
L103.025 171.481
L103.471 217.976
L103.843 256.735
L103.918 257.933
L104.066 255.56
L104.141 256.061
L104.215 255.767
L104.29 253.273
L104.438 232.353
L104.81 159.69
L105.034 165.94
L105.182 176.694
L105.331 200.212
L105.778 288.599
L105.852 286.854
L106.075 261.51
L106.373 201.45
L106.447 183.911
L106.522 189.389
L106.67 222.388
L106.745 220.804
L107.117 158.072
L107.191 154.506
L107.34 169.684
L107.712 214.358
L108.01 221.103
L108.084 221.483
L108.158 220.763
L108.233 221.72
L108.828 241.39
L108.902 243.412
L108.977 243.135
L109.126 234.507
L109.349 217.365
L109.498 222.854
L109.572 221.121
L109.87 198.023
L109.944 200.258
L110.093 223.983
L110.316 255.75
L110.539 234.109
L111.134 176.193
L111.283 180.795
L111.73 212.527
L111.804 212.509
L111.953 209.889
L112.25 199.987
L112.325 198.847
L112.548 208.27
L113.218 251.297
L113.366 256.913
L113.441 256.009
L113.738 242.663
L114.259 214.531
L114.557 193.841
L114.706 188.444
L115.003 171.141
L115.078 170.479
L115.226 172.097
L115.524 199.705
L115.97 259.062
L116.045 259.822
L116.194 252.029
L116.714 219.997
L116.863 213.091
L117.086 195.264
L117.161 195.005
L117.31 199.918
L117.607 216.219
L117.682 217.256
L117.83 215.291
L117.905 215.556
L117.979 215.332
L118.128 213.898
L118.202 214.249
L118.426 222.48
L118.649 229.398
L118.798 224.34
L119.095 208.178
L119.467 196.756
L119.616 193.461
L119.765 204.157
L120.211 248.913
L120.509 286.762
L120.658 268.186
L121.327 97.39
L121.476 127.307
L121.922 308.425
L122.146 355.571
L122.22 350.525
L122.443 287.873
L122.964 123.091
L123.038 121.415
L123.187 136.414
L123.857 236.949
L124.154 263.053
L124.303 253.67
L124.601 232.957
L124.675 232.497
L124.75 231.287
L124.973 216.622
L125.345 195.051
L125.494 192.563
L125.642 195.707
L125.866 209.117
L126.238 230.037
L126.312 230.031
L126.535 226.909
L126.61 227.428
L126.684 228.263
L126.758 227.929
L126.907 221.178
L127.205 203.19
L127.354 201.237
L127.428 201.364
L127.577 203.259
L127.874 209.474
L128.023 213.506
L128.321 222.659
L128.618 217.97
L128.842 215.626
L128.916 216.023
L129.214 220.994
L129.288 220.873
L129.437 218.724
L129.734 213.149
L130.181 224.997
L130.478 219.6
L130.85 240.117
L131.074 221.178
L131.594 165.738
L131.818 182.742
L132.264 225.325
L132.413 229.53
L132.785 250.744
L133.082 240.958
L133.38 223.235
L133.454 223.43
L133.603 224.582
L133.752 228.067
L133.901 220.671
L134.124 194.918
L134.422 156.741
L134.496 156.447
L134.645 169.811
L135.314 264.764
L135.463 259.839
L136.133 213.886
L136.579 154.207
L136.654 152.83
L136.802 162.023
L137.026 214.986
L137.323 274.89
L137.398 273.312
L137.546 248.878
L137.918 154.955
L137.993 158.947
L138.142 194.619
L138.588 365.518
L138.662 360.645
L138.811 304.883
L139.258 69.9552
L139.332 71.6544
L140.002 192.321
L140.299 301.899
L140.374 301.139
L141.192 220.7
L141.415 229.208
L141.564 233.839
L141.638 229.605
L142.085 158.763
L142.159 161.124
L142.382 197.579
L142.754 248.746
L142.903 252.973
L142.978 251.729
L143.126 242.162
L143.722 191.099
L143.87 188.243
L143.945 188.133
L144.019 188.807
L144.168 194.325
L144.614 218.713
L145.135 241.632
L145.21 241.286
L145.507 229.317
L146.028 191.411
L146.102 191.359
L146.251 200.356
L146.623 221.748
L147.07 239.23
L147.144 237.473
L147.814 198.645
L147.888 198.605
L148.334 218.085
L148.409 215.937
L148.706 181.688
L148.781 184.274
L149.674 262.662
L149.822 253.083
L150.641 192.107
L150.715 190.673
L150.938 193.524
L151.013 194.659
L151.087 194.417
L151.236 191.739
L151.31 192.2
L151.459 196.773
L151.98 223.24
L152.054 223.557
L152.129 222.716
L152.278 215.614
L152.426 210.361
L152.724 221.121
L152.947 216.236
L153.245 222.849
L153.319 223.327
L153.691 229.668
L153.766 229.651
L153.84 229.939
L153.989 228.666
L154.063 229.524
L154.286 226.702
L154.435 224.744
L154.51 225.36
L154.807 212.152
L154.956 205.154
L155.03 204.889
L155.551 206.853
L155.626 206.669
L155.774 204.762
L155.849 206.225
L155.923 205.805
L156.072 200.903
L156.221 196.681
L156.444 206.749
L156.742 222.059
L156.816 221.887
L156.965 224.081
L157.039 223.759
L157.188 220.458
L157.337 223.142
L157.56 220.032
L157.858 217.538
L157.932 217.878
L158.155 219.951
L158.453 229.939
L158.676 236.621
L159.048 227.485
L159.197 218.218
L159.494 197.528
L159.643 197.084
L159.718 197.833
L159.941 203.61
L160.015 203.403
L160.09 202.401
L160.238 207.85
L160.462 214.894
L160.536 214.479
L160.908 208.339
L161.28 227.635
L161.429 227.912
L161.503 227.652
L161.95 212.486
L162.098 207.176
L162.247 212.625
L162.396 216.553
L162.694 208.564
L162.768 208.909
L163.066 221.576
L163.14 221.535
L163.438 214.295
L163.512 214.641
L164.033 236.091
L164.107 236.586
L164.777 200.903
L164.851 201.375
L165 203.063
L165.074 202.239
L165.372 194.458
L165.446 194.711
L165.595 203.835
L165.893 221.224
L166.265 237.519
L166.488 250.635
L166.562 251.556
L166.86 245.209
L167.53 190.472
L167.753 182.765
L167.827 183.537
L168.348 198.674
L168.497 196.502
L168.646 194.4
L168.869 212.147
L169.241 252.731
L169.464 277.96
L169.538 278.145
L169.836 249.915
L170.282 212.319
L170.58 201.433
L171.25 162.962
L171.473 166.009
L171.547 166.187
L171.696 179.712
L172.366 292.608
L172.44 291.341
L172.589 281.531
L172.812 248.129
L173.184 186.388
L173.407 179.793
L173.556 181.567
L174.151 192.793
L174.3 212.233
L174.523 226.748
L174.672 228.539
L174.97 235.693
L175.193 247.519
L175.267 247.375
L175.342 247.035
L175.49 243.158
L175.788 218.684
L176.011 205.286
L176.234 207.89
L176.309 206.991
L176.532 194.193
L176.904 172.512
L176.978 171.913
L177.127 184.694
L177.946 282.257
L178.02 281.675
L178.169 259.88
L178.541 171.821
L178.615 172.852
L178.764 191.462
L179.062 253.071
L179.136 255.917
L179.21 251.902
L179.434 204.918
L179.657 177.062
L179.88 198.68
L180.252 225.297
L180.401 223.643
L180.475 225.832
L180.55 224.375
L180.922 200.281
L180.996 200.834
L181.219 206.876
L181.294 206.277
L181.442 203.253
L181.517 204.532
L181.74 220.919
L181.963 232.715
L182.038 232.957
L182.186 231.679
L182.335 229.784
L182.558 231.12
L182.707 228.384
L182.782 228.298
L183.079 226.391
L183.154 226.794
L183.228 228.551
L183.377 223.563
L183.6 203.651
L183.898 171.74
L184.046 178.56
L184.493 207.227
L185.014 231.581
L185.088 231.949
L185.46 245.543
L185.534 246.056
L185.683 243.976
L186.055 233.13
L186.204 230.607
L186.502 222.031
L186.874 197.516
L187.394 155.111
L187.469 155.324
L187.618 164.557
L187.841 191.33
L188.585 281.099
L188.659 278.093
L188.882 244.696
L189.18 207.395
L189.254 207.556
L189.478 211.363
L189.775 219.658
L189.85 219.082
L190.073 212.198
L190.519 192.851
L190.668 194.302
L190.742 193.173
L190.817 195.477
L191.189 221.092
L191.486 232.859
L191.561 232.998
L191.71 228.62
L191.858 217.498
L192.156 181.826
L192.305 180.587
L192.454 196.808
L193.049 309.347
L193.123 306.899
L193.346 258.728
L193.718 137.831
L194.016 46.4659
L194.09 51.287
L194.239 98.1043
L194.76 337.185
L194.834 342.334
L194.909 337.766
L195.132 278.911
L195.43 202.643
L195.578 194.1
L195.727 201.761
L196.099 233.182
L196.174 232.191
L196.397 219.174
L196.694 199.67
L196.769 199.572
L196.843 200.788
L197.141 212.567
L197.29 211.052
L197.438 203.956
L197.662 173.635
L197.885 147.83
L197.959 149.409
L198.108 168.255
L198.703 309.254
L198.852 291.894
L199.447 185.483
L199.67 178.266
L199.745 179.424
L199.894 190.328
L200.266 222.791
L200.414 225.55
L200.712 213.811
L200.935 199.722
L201.01 200.356
L201.605 221.921
L201.754 218.868
L201.977 215.453
L202.051 215.13
L202.2 212.296
L202.349 216.38
L202.423 215.66
L202.572 206.029
L202.795 181.284
L202.87 179.937
L202.944 181.93
L203.093 200.195
L203.614 307.567
L203.688 307.117
L203.837 282.902
L204.506 139.645
L204.581 138.943
L204.73 150.941
L205.325 231.016
L205.622 237.859
L205.771 240.123
L205.846 239.921
L205.92 241.062
L206.366 221.046
L206.738 230.164
L207.259 210.275
L207.408 203.915
L207.482 203.564
L207.631 182.782
L207.854 153.659
L207.929 154.293
L208.152 177.633
L208.747 313.764
L208.822 311.236
L209.119 264.188
L209.566 167.512
L209.789 151.511
L209.938 149.103
L210.012 151.62
L210.31 188.243
L210.682 225.464
L210.756 225.671
L211.128 253.999
L211.574 207.654
L211.649 213.817
L211.872 234.847
L212.095 242.312
L212.244 236.373
L212.318 236.845
L212.393 238.706
L212.467 238.009
L212.988 197.856
L213.434 152.243
L213.658 170.692
L213.806 192.28
L214.178 281.359
L214.253 288.795
L214.327 288.53
L215.071 199.112
L215.369 183.381
L215.443 184.395
L215.518 182.909
L215.592 183.318
L215.741 193.288
L215.89 200.292
L215.964 200.897
L216.038 203.495
L216.485 234.138
L216.559 234.121
L216.782 215.407
L217.229 230.901
L217.303 229.738
L217.526 224.675
L217.675 234.42
L217.898 227.537
L218.047 233.839
L218.27 225.988
L218.345 226.264
L218.494 209.445
L218.791 170.173
L218.866 168.52
L219.089 203.011
L219.386 243.187
L219.461 242.657
L219.61 236.125
L219.758 240.63
L219.833 239.126
L220.949 165.888
L221.023 167.702
L221.246 206.698
L221.544 244.264
L221.767 239.783
L221.916 242.024
L222.065 233.977
L222.139 234.029
L222.214 234.478
L222.362 239.771
L222.586 259.972
L222.734 256.752
L222.883 238.424
L223.255 186.958
L223.702 134.548
L223.925 164.212
L224.222 229.582
L224.52 286.22
L224.669 300.01
L224.743 298.166
L224.966 273.969
L225.487 181.653
L225.636 185.697
L225.859 190.667
L226.008 193.594
L226.157 197.349
L226.454 189.798
L226.603 181.451
L226.678 182.264
L226.901 201.012
L227.124 221.455
L227.273 226.955
L227.496 234.438
L227.645 236.569
L227.719 236.298
L227.942 233.297
L228.166 236.73
L228.389 247.156
L228.463 245.336
L228.761 230.924
L228.835 228.073
L228.91 228.367
L228.984 229.444
L229.133 210.885
L229.505 153.994
L229.579 154.748
L229.877 195.915
L230.323 274.74
L230.472 264.292
L231.142 173.128
L231.365 154.063
L231.439 155.082
L231.514 158.106
L232.183 243.083
L232.406 285.16
L232.481 287.176
L232.555 285.489
L232.704 270.15
L233.15 199.843
L233.225 199.526
L233.597 223.551
L233.671 223.165
L233.746 220.873
L234.341 169.649
L234.415 169.246
L234.564 179.988
L234.936 228.136
L235.01 226.967
L235.382 211.922
L235.457 213.258
L235.829 238.792
L236.126 269.349
L236.201 265.807
L236.424 214.583
L236.722 147.669
L236.87 184.965
L237.242 302.417
L237.317 296.081
L238.061 115.77
L238.135 117.083
L238.656 241.258
L238.805 252.841
L238.954 212.181
L239.177 143.268
L239.4 214.341
L239.772 307.256
L240.144 277.119
L241.037 139.507
L241.111 139.271
L241.186 140.112
L241.334 147.473
L241.558 190.881
L241.855 233.775
L242.227 271.244
L242.302 270.536
L242.525 254.108
L242.748 240.664
L242.822 241.459
L242.897 241.039
L243.343 213.679
L243.641 187.868
L243.715 188.415
L244.013 211.087
L244.31 233.902
L244.459 219.41
L244.906 161.603
L245.054 155.393
L245.129 156.355
L245.278 170.456
L245.501 215.096
L245.873 294.33
L246.022 303.483
L246.096 302.982
L246.245 282.597
L246.914 151.908
L246.989 152.317
L247.435 190.639
L247.733 228.62
L247.956 227.877
L248.105 219.456
L248.179 220.141
L248.477 238.245
L248.626 246.326
L248.923 233.862
L249.221 208.512
L249.295 207.527
L249.37 208.143
L249.593 213.385
L249.816 210.603
L249.89 211.749
L250.114 223.937
L250.411 207.873
L250.486 210.349
L250.56 209.699
L250.783 198.236
L251.006 208.408
L251.304 224.156
L251.527 219.312
L251.676 222.186
L251.75 220.631
L251.825 224.133
L251.899 223.321
L252.197 213.235
L252.346 201.404
L252.494 208.305
L252.569 208.149
L252.643 206.502
L252.792 209.307
L252.941 220.925
L253.164 255.231
L253.238 250.802
L253.685 160.785
L253.759 162.559
L254.578 282.344
L254.652 280.788
L255.545 154.04
L255.619 150.376
L255.694 151.678
L255.768 151.2
L255.842 152.893
L256.438 229.582
L256.735 278.525
L256.81 279.913
L256.884 278.548
L257.33 243.965
L258.074 170.79
L258.149 170.744
L258.223 172.691
L258.67 214.56
L258.893 246.574
L258.967 246.182
L259.116 241.511
L259.414 220.32
L259.488 218.5
L259.637 209.226
L259.711 209.889
L259.786 209.209
L259.934 193.398
L260.158 168.175
L260.232 173.347
L260.827 284.987
L260.902 289.1
L260.976 285.782
L261.125 262.662
L261.571 167.178
L261.72 161.055
L261.794 161.119
L262.018 168.382
L262.464 209.992
L262.836 241.108
L263.134 225.026
L263.357 226.76
L263.431 226.057
L263.654 209.866
L263.952 223.436
L264.026 221.731
L264.25 213.696
L264.547 222.906
L264.77 220.02
L265.068 233.326
L265.217 228.349
L265.366 221.806
L265.44 222.572
L265.514 225.083
L265.589 224.859
L265.663 225.988
L265.738 220.954
L265.961 196.076
L266.184 193.547
L266.407 179.735
L266.482 180.017
L266.63 187.563
L267.151 243.93
L267.226 244.881
L267.3 242.916
L267.523 222.624
L267.598 223.482
L267.672 223.154
L267.895 218.298
L267.97 218.494
L268.342 226.022
L268.565 222.659
L268.714 227.457
L268.788 226.869
L268.862 226.466
L269.458 180.536
L269.532 180.904
L269.606 180.415
L269.755 191.808
L270.202 242.675
L270.35 249.293
L270.425 248.394
L270.499 246.056
L270.797 217.832
L270.871 218.108
L271.02 219.784
L271.169 216.363
L271.318 211.081
L271.466 214.957
L271.69 228.897
L271.838 226.679
L271.913 228.862
L272.062 238.746
L272.136 237.859
L272.21 231.719
L272.582 153.429
L272.731 157.703
L273.103 192.378
L273.475 238.182
L273.847 265.668
L273.922 264.131
L274.442 235.106
L274.74 197.142
L275.186 177.448
L275.335 190.691
L275.782 230.175
L275.93 236.603
L276.005 235.463
L276.451 213.535
L276.526 213.229
L276.674 210.874
L276.749 211.006
L276.823 211.45
L276.972 216.587
L277.046 216.426
L277.27 205.811
L277.344 206.922
L277.567 216.467
L277.79 207.13
L277.939 215.919
L278.162 230.625
L278.386 219.542
L278.46 221.973
L278.609 229.162
L278.981 213.621
L279.204 220.458
L279.502 203.057
L279.65 207.268
L279.725 206.219
L279.874 198.363
L279.948 198.518
L280.022 199.244
L280.246 220.735
L280.32 220.694
L280.469 214.226
L280.543 215.775
L280.766 243.107
L281.064 224.024
L281.213 239.823
L281.287 248.227
L281.362 246.407
L281.659 194.907
L281.882 207.348
L282.106 184.234
L282.18 185.616
L282.478 220.988
L282.701 191.514
L282.775 195.587
L282.998 244.022
L283.073 240.676
L283.296 216.933
L283.519 254.298
L283.594 249.489
L283.891 187.217
L284.114 237.853
L284.189 234.593
L284.412 197.631
L284.561 219.502
L284.71 231.615
L285.007 191.745
L285.305 230.907
L285.379 226.512
L285.528 217.619
L285.751 222.371
L285.9 213.575
L286.049 207.13
L286.123 208.045
L286.346 214.145
L286.495 211.156
L286.57 211.962
L286.793 223.908
L286.942 213.575
L287.09 207.464
L287.239 229.236
L287.388 250.462
L287.537 229.905
L287.76 204.618
L287.909 213.178
L287.983 212.849
L288.206 187.897
L288.281 188.387
L288.578 215.626
L288.653 211.317
L288.802 200.379
L288.876 203.789
L289.099 226.725
L289.322 220.873
L289.546 227.007
L289.62 226.932
L289.843 219.335
L289.918 221.08
L290.141 229.139
L290.438 219.064
L290.662 237.732
L290.736 236.828
L291.108 201.876
L291.257 203.27
L291.703 191.007
L292.001 207.003
L292.298 240.641
L292.373 240.515
L292.596 235.083
L292.67 236.834
L292.819 243.636
L292.894 242.98
L293.042 229.674
L293.638 172.95
L293.712 172.835
L294.01 194.659
L294.53 235.768
L294.605 235.895
L294.754 232.566
L295.051 242.628
L295.126 241.782
L295.2 239
L295.498 206.813
L295.572 207.343
L295.646 208.374
L295.87 199.475
L295.944 201.249
L296.242 226.431
L296.316 226.293
L296.688 214.998
L296.986 205.874
L297.283 212.342
L297.358 212.314
L297.506 211.334
L297.655 208.575
L298.027 216.334
L298.25 225.901
L298.325 225.118
L298.622 215.182
L298.697 215.395
L298.994 218.258
L299.515 212.648
L299.664 216.23
L299.962 227.324
L300.11 224.778
L300.259 217.187
L300.482 201.606
L300.706 204.031
L300.854 211.668
L301.152 227.007
L301.226 227.082
L301.524 219.709
L301.747 208.581
L301.822 209.825
L301.97 216.731
L302.268 203.927
L302.342 204.641
L302.863 221.391
L302.938 220.297
L303.012 220.516
L303.086 220.147
L303.235 215.211
L303.31 216.092
L303.458 222.382
L303.533 222.278
L303.607 220.89
L303.756 223.027
L303.83 222.906
L304.128 209.209
L304.202 209.307
L304.351 211.668
L304.5 214.813
L304.574 214.163
L304.649 214.514
L304.723 215.545
L304.872 210.66
L304.946 210.718
L305.021 212.118
L305.17 211.139
L305.467 218.062
L305.765 227.03
L305.914 230.158
L305.988 229.041
L306.211 221.426
L306.509 214.243
L306.583 214.554
L306.732 217.469
L306.806 216.213
L307.178 189.13
L307.253 190.126
L307.699 212.365
L307.997 232.404
L308.369 249.034
L308.518 246.119
L308.741 230.734
L309.113 188.715
L309.187 185.766
L309.634 203.432
L309.708 202.608
L309.782 202.994
L309.931 210.816
L310.229 226.489
L310.378 222.313
L310.452 223.379
L310.675 231.356
L310.898 232.571
L311.047 230.711
L311.196 223.425
L311.494 200.264
L311.568 200.166
L311.642 200.886
L311.791 199.25
L312.089 212.659
L312.312 218.114
L312.386 218.206
L312.61 219.214
L312.684 218.707
L312.833 214.669
L312.907 215.844
L313.279 227.647
L313.502 227.146
L313.577 225.158
L313.874 209.618
L313.949 209.52
L314.098 205.741
L314.246 201.318
L314.618 212.492
L314.842 216.875
L314.916 216.553
L314.99 216.467
L315.214 212.435
L315.362 221.771
L315.511 234.299
L315.586 232.727
L316.032 216.933
L316.106 217.302
L316.255 213.212
L316.33 213.938
L316.404 214.618
L316.478 216.438
L316.553 215.073
L316.85 202.02
L316.999 207.481
L317.074 207.377
L317.297 213.201
L317.446 217.014
L317.52 216.53
L317.594 216.852
L317.743 221.869
L317.966 228.47
L318.115 223.96
L318.264 221.783
L318.338 221.253
L318.487 222.342
L318.785 215.291
L319.082 203.627
L319.157 205.603
L319.231 207.078
L319.306 206.795
L319.454 205.402
L319.529 205.845
L319.678 209.364
L320.05 231.638
L320.198 231.362
L320.273 229.991
L320.496 220.504
L320.57 219.6
L321.091 197.954
L321.166 198.893
L321.314 206.79
L321.389 206.651
L321.463 205.741
L321.538 206.052
L321.835 216.703
L322.058 233.395
L322.282 235.538
L322.356 234.714
L322.654 220.873
L322.877 216.184
L323.174 199.187
L323.249 200.166
L323.546 210.966
L323.621 210.165
L323.844 205.425
L323.918 205.05
L323.993 205.574
L324.142 211.075
L324.514 236.218
L324.588 238.216
L324.96 230.602
L325.109 224.738
L325.555 196.756
L325.704 199.313
L325.778 199.175
L326.002 201.876
L326.15 198.524
L326.225 199.63
L326.597 222.509
L326.746 229.029
L326.82 228.015
L327.043 215.078
L327.118 215.942
L327.341 224.127
L327.713 244.869
L327.787 243.734
L328.01 232.646
L328.382 198.927
L328.606 181.428
L328.68 180.046
L328.829 194.55
L329.126 223.05
L329.201 223.021
L329.498 207.896
L329.573 210.447
L329.722 216.899
L329.87 222.434
L329.945 221.616
L330.094 213.995
L330.242 202.907
L330.317 203.731
L330.838 236.367
L331.21 223.741
L331.433 219.203
L331.805 202.982
L331.879 201.45
L332.474 224.519
L332.772 210.39
L333.144 220.159
L333.293 213.252
L333.516 201.917
L333.739 220.164
L333.888 228.027
L333.962 228.551
L334.037 227.866
L334.186 221.823
L334.409 208.754
L334.706 224.369
L334.781 224.456
L334.93 216.518
L335.227 195.35
L336.046 234
L336.343 216.922
L336.418 217.872
L336.566 216.824
L336.715 215.211
L336.79 215.499
L337.013 220.107
L337.534 191.641
L337.831 221.501
L338.054 235.751
L338.203 231.569
L338.352 224.68
L338.575 234.392
L338.65 235.889
L339.022 202.585
L339.17 194.532
L339.542 205.211
L339.691 209.71
L339.914 203.524
L340.063 213.224
L340.212 222.791
L340.361 221.368
L340.51 223.707
L340.733 211.778
L341.03 227.353
L341.179 221.23
L341.402 206.329
L341.477 206.507
L341.774 228.92
L341.998 222.561
L342.072 224.709
L342.146 224.289
L342.444 210.303
L342.518 211.778
L342.667 215.424
L342.816 213.212
L342.89 214.393
L343.039 207.942
L343.188 198.046
L343.337 203.455
L343.783 223.874
L343.858 222.486
L344.006 213.183
L344.453 231.696
L344.527 230.959
L344.825 218.563
L344.899 218.431
L344.974 217.302
L345.494 195.431
L345.569 196.767
L345.941 220.827
L346.164 228.505
L346.313 222.756
L346.387 223.148
L346.536 234.426
L347.131 205.263
L347.206 205.747
L347.429 217.492
L347.578 215.551
L347.726 217.889
L347.95 209.555
L348.173 219.986
L348.247 220.47
L348.322 217.457
L348.396 218.12
L348.47 217.843
L348.768 197.862
L348.991 208.904
L349.14 206.45
L349.363 212.302
L349.438 213.466
L349.735 234.899
L350.107 225.573
L350.256 217.405
L350.33 220.424
L350.479 232.502
L350.628 223.505
L350.851 202.015
L351 183.122
L351.074 183.635
L351.521 223.62
L351.595 231.794
L351.67 230.757
L351.818 222.319
L351.967 226.443
L352.19 213.805
L352.339 221.616
L352.414 217.382
L352.637 193.547
L353.158 232.393
L353.232 228.217
L353.306 221.46
L353.381 221.708
L353.604 235.486
L353.827 224.214
L353.902 222.883
L354.274 200.442
L354.422 193.248
L354.497 193.427
L354.646 205.868
L354.72 205.304
L354.869 193.599
L354.943 195.212
L355.464 231.834
L355.613 223.286
L355.687 225.947
L355.91 239.524
L356.059 244.587
L356.134 244.374
L356.357 221.656
L356.431 224.548
L356.506 230.383
L356.58 229.738
L356.803 216.582
L356.878 215.689
L357.101 191.163
L357.175 191.825
L357.25 193.179
L357.398 184.948
L357.622 204.555
L357.696 200.344
L357.77 195.149
L357.845 198.236
L358.068 226.201
L358.142 223.643
L358.291 241.125
L358.366 250.422
L358.44 247.668
L358.589 241.206
L358.738 246.493
L359.333 177.235
L359.482 188.865
L359.556 188.254
L359.63 185.334
L359.854 212.717
L359.928 209.526
L360.002 204.981
L360.077 208.811
L360.3 232.491
L360.374 232.514
L360.598 261.717
L360.672 260.024
L361.565 193.847
L361.639 195.419
L361.937 230.532
L362.011 225.193
L362.458 176.008
L362.606 181.227
L362.755 176.596
L363.202 218.425
L363.425 251.395
L363.574 246.488
L363.648 248.279
L363.722 246.165
L363.871 236.442
L363.946 239.61
L364.02 247.91
L364.094 246.038
L364.318 221.846
L364.392 221.558
L364.615 204.555
L364.764 217.319
L364.913 203.915
L364.987 204.693
L365.062 208.454
L365.21 202.625
L365.285 204.065
L365.434 216.403
L365.508 216.282
L365.657 211.415
L365.731 213.005
L365.806 212.682
L365.954 208.051
L366.103 209.675
L366.326 201.508
L366.401 202.13
L366.475 203.898
L366.55 203.034
L366.624 200.511
L366.698 202.614
L367.07 229.323
L367.219 235.751
L367.591 220.81
L367.74 212.406
L367.814 212.1
L367.889 210.62
L368.038 202.844
L368.112 203.219
L368.186 207.291
L368.261 206.41
L368.335 205.327
L368.93 227.877
L369.005 228.332
L369.079 227.883
L369.154 230.314
L369.377 241.436
L369.749 216.668
L369.823 217.244
L369.898 217.204
L370.046 214.082
L370.27 206.761
L370.567 197.228
L370.642 194.532
L370.716 194.907
L370.79 197.441
L370.865 197.412
L370.939 198.155
L371.014 197.965
L371.088 195.408
L371.46 218.483
L371.683 225.348
L371.832 229.605
L371.906 229.352
L372.353 210.793
L372.427 215.384
L372.65 238.32
L372.799 239.962
L372.948 232.733
L373.171 221.697
L373.246 222.221
L373.692 195.281
L373.766 194.901
L373.99 211.553
L374.138 203.835
L374.287 212.06
L374.436 200.747
L374.51 202.746
L374.957 234.311
L375.106 229.231
L375.329 239.011
L375.403 236.995
L375.552 232.237
L375.701 212.348
L375.85 197.027
L375.998 205.736
L376.073 205.298
L376.147 204.589
L376.296 209.9
L376.445 204.578
L376.594 221.858
L376.742 230.746
L376.817 231.183
L376.891 232.94
L376.966 229.789
L377.189 194.648
L377.263 196.802
L377.486 209.802
L377.635 215.614
L377.71 215.338
L377.784 214.56
L378.007 221.109
L378.082 220.447
L378.23 216.092
L378.454 202.516
L378.9 239.311
L378.974 235.123
L379.123 217.037
L379.346 232.825
L379.421 231.875
L379.495 234.962
L379.57 232.491
L379.867 186.538
L379.942 183.709
L380.09 173.906
L380.462 206.847
L380.834 271.976
L380.909 270.334
L381.058 253.987
L381.43 198.818
L381.653 188.565
L381.727 191.652
L382.025 210.995
L382.099 213.057
L382.397 189.717
L382.471 189.953
L382.62 199.227
L382.843 214.894
L382.992 232.019
L383.29 259.995
L383.364 260.052
L383.513 243.884
L383.587 245.675
L383.662 248.054
L384.778 171.585
L384.852 176.026
L385.075 194.072
L385.298 215.718
L385.373 214.445
L385.447 214.427
L385.596 223.586
L385.745 215.366
L385.819 216.795
L385.894 219.145
L386.042 215.257
L386.266 241.978
L386.34 241.246
L386.414 240.106
L386.489 240.768
L386.638 229.231
L386.712 221.743
L386.786 222.14
L386.861 224.116
L387.01 214.854
L387.084 216.265
L387.158 217.463
L387.307 204.399
L387.382 205.125
L387.53 211.467
L387.679 207.89
L387.754 211.622
L387.902 200.333
L387.977 201.082
L388.2 227.508
L388.274 227.318
L388.423 230.815
L388.572 220.913
L388.721 237.082
L388.795 237.024
L388.944 226.547
L389.018 227.094
L389.167 214.07
L389.242 216.19
L389.316 219.946
L389.39 214.871
L389.837 152.3
L390.283 209.716
L390.432 200.264
L390.581 231.091
L390.878 290.281
L390.953 297.118
L391.399 243.896
L391.771 190.788
L391.92 199.619
L392.366 159.627
L392.441 160.076
L392.664 171.441
L393.11 215.217
L393.408 244.345
L393.482 248.815
L393.706 236.252
L393.78 238.867
L393.854 238.199
L393.929 237.45
L394.003 237.698
L394.078 238.614
L394.226 233.775
L394.301 237.675
L394.45 251.464
L394.598 245.825
L394.673 246.591
L395.045 224.507
L395.491 115.275
L395.566 115.01
L395.789 151.955
L396.31 301.668
L396.533 280.904
L397.054 203.432
L397.202 201.681
L397.351 194.918
L397.5 200.909
L397.946 182.563
L398.17 226.65
L398.393 285.252
L398.467 284.59
L398.988 146.805
L399.062 152.087
L399.211 167.42
L399.583 234.288
L399.658 238.948
L399.806 232.479
L399.881 233.672
L400.253 265.087
L400.327 264.839
L400.922 188.243
L401.146 156.413
L401.369 171.222
L402.113 268.191
L402.187 266.481
L402.931 163.976
L403.006 165.001
L403.229 196.767
L403.452 247.375
L403.75 308.189
L403.824 307.382
L404.047 263.503
L404.568 133.868
L404.642 133.425
L404.717 134.433
L404.866 144.265
L405.461 236.396
L405.684 265.473
L405.758 264.574
L406.13 238.752
L406.354 221.714
L406.577 210.845
L406.651 211.789
L406.8 219.64
L407.023 241.171
L407.098 239.697
L407.395 215.551
L407.47 217.21
L407.618 223.724
L407.693 222.468
L407.916 226.207
L407.99 224.755
L408.214 234.392
L408.437 193.421
L408.66 164.984
L408.883 180.968
L408.958 178.376
L409.181 145.688
L409.255 147.082
L409.404 167.27
L410.148 296.461
L410.222 302.481
L410.297 301.478
L410.446 276.008
L410.818 198.605
L410.892 200.65
L411.041 214.658
L411.115 213.379
L411.338 177.183
L411.487 156.528
L411.636 158.302
L411.71 155.445
L411.785 157.19
L412.008 213.183
L412.306 273.168
L412.454 278.738
L412.752 262.091
L413.05 219.773
L413.347 162.173
L413.422 164.627
L413.57 173.923
L413.719 171.78
L413.794 173.935
L414.017 189.999
L414.166 183.923
L414.24 185.04
L414.389 213.886
L414.686 300.545
L414.761 290.58
L415.058 233.891
L415.43 198.23
L415.654 172.714
L415.728 175.553
L416.026 230.049
L416.1 230.014
L416.398 205.805
L416.472 207.562
L416.695 222.762
L416.77 222.728
L417.142 207.85
L417.216 208.408
L417.514 214.255
L417.588 216.42
L418.034 244.045
L418.109 243.06
L418.258 232.681
L418.63 188.254
L418.704 189.014
L418.853 209.992
L419.076 257.322
L419.15 257.051
L419.374 221.437
L419.746 167.748
L419.969 155.019
L420.118 169.453
L420.638 247.542
L421.01 283.594
L421.085 281.537
L421.308 243.256
L421.978 119.243
L422.052 115.453
L422.201 142.658
L422.796 321.16
L422.87 323.81
L422.945 320.584
L423.094 294.791
L423.763 134.939
L423.912 124.174
L423.986 124.479
L424.21 155.958
L425.028 284.492
L425.102 285.569
L425.251 277.741
L425.623 234.685
L425.995 202.291
L426.07 200.171
L426.144 200.759
L426.367 197.234
L426.516 199.705
L426.59 199.532
L426.739 194.06
L426.962 184.441
L427.111 190.829
L427.334 211.91
L427.558 229.939
L427.706 231.068
L428.153 215.43
L428.376 217.907
L428.674 208.863
L428.748 209.462
L428.971 218.557
L429.269 228.995
L429.566 239.368
L429.641 242.726
L429.864 223.949
L430.162 197.09
L430.236 196.237
L430.31 197.499
L430.608 213.483
L430.757 212.849
L430.98 222.221
L431.054 222.981
L431.129 226.017
L431.203 225.032
L431.278 225.642
L431.352 225.222
L431.426 223.741
L431.575 215.147
L431.724 215.407
L431.873 207.809
L431.947 207.873
L432.022 206.963
L432.096 207.786
L432.245 201.151
L432.468 194.705
L432.542 195.108
L432.691 202.395
L433.286 239.115
L433.435 244.166
L433.51 244.817
L433.658 240.359
L433.882 226.598
L434.179 199.117
L434.254 201.099
L434.402 193.899
L434.551 186.198
L434.626 185.846
L434.849 199.244
L435.295 235.388
L435.37 233.614
L435.444 234.386
L435.518 234.651
L435.667 233.677
L435.89 243.078
L435.965 242.3
L436.039 238.412
L436.337 203.253
L436.709 184.689
L436.783 184.643
L437.081 196.445
L437.304 194.129
L437.453 201.277
L438.346 278.801
L438.494 264.897
L439.015 179.608
L439.238 189.78
L439.313 192.931
L439.387 192.678
L439.536 188.749
L439.61 188.905
L439.759 196.093
L439.834 195.644
L439.908 196.007
L440.131 215.539
L440.206 215.332
L440.28 214.623
L440.578 220.735
L440.726 224.577
L440.875 223.102
L441.098 229.634
L441.322 224.628
L441.545 214.923
L441.768 222.111
L441.991 236.091
L442.066 235.457
L442.214 229.859
L442.512 215.038
L442.586 217.031
L442.661 216.916
L442.735 217.377
L443.107 231.471
L443.182 229.133
L443.628 176.4
L443.702 177.569
L444.149 195.12
L444.372 208.667
L444.521 219.819
L444.595 218.88
L444.67 217.019
L444.744 218.027
L444.967 229.628
L445.265 221.109
L445.339 222.111
L445.86 236.891
L446.009 235.417
L446.083 235.751
L446.158 235.809
L446.232 235.578
L446.53 225.458
L446.753 215.159
L446.827 215.81
L446.976 208.915
L447.125 204.198
L447.199 205.523
L447.274 205.16
L447.422 199.567
L447.497 200.171
L447.571 200.027
L447.646 198.691
L447.72 198.795
L447.794 199.763
L448.018 204.301
L448.166 206.559
L448.241 206.162
L448.39 203.57
L448.538 206.605
L448.613 207.723
L448.836 218.488
L448.91 218.621
L449.134 214.393
L449.357 223.246
L449.506 222.123
L449.654 224.145
L449.878 228.079
L449.878 228.079" style="fill:none;stroke:#808080;stroke-linecap:square;"/>
   </g>
  </g>
 </g>
 <defs>
  <clipPath id="p7ff5b81e1d">
   <rect height="345.6" width="446.4" x="72.0" y="43.2"/>
  </clipPath>
 </defs>
</svg>
