<?xml version="1.0" encoding="utf-8" standalone="no"?>
<!DOCTYPE svg PUBLIC "-//W3C//DTD SVG 1.1//EN"
  "http://www.w3.org/Graphics/SVG/1.1/DTD/svg11.dtd">
<!-- Created with matplotlib (http://matplotlib.org/) -->
<svg height="432pt" version="1.1" viewBox="0 0 576 432" width="576pt" xmlns="http://www.w3.org/2000/svg" xmlns:xlink="http://www.w3.org/1999/xlink">
 <defs>
  <style type="text/css">
*{stroke-linecap:butt;stroke-linejoin:round;}
  </style>
 </defs>
 <g id="figure_1">
  <g id="patch_1">
   <path d="
M0 432
L576 432
L576 0
L0 0
z
" style="fill:#ffffff;"/>
  </g>
  <g id="axes_1">
   <g id="line2d_1">
    <path clip-path="url(#p7ff5b81e1d)" d="
M72 232.197
L72.2232 227.22
L72.2976 228.736
L72.744 251.15
L72.9672 247.334
L73.1904 253.086
L73.3392 243.932
L73.6368 229.131
L73.7856 233.574
L74.1576 253.372
L74.5296 231.214
L74.604 231.619
L74.6784 231.955
L74.7528 231.58
L74.8272 231.792
L75.1248 240.116
L75.348 246.07
L75.4224 247.063
L75.8688 238.971
L76.0176 243.764
L76.092 246.396
L76.1664 245.878
L76.3152 243.108
L76.5384 245.833
L76.7616 243.37
L76.9848 235.031
L77.0592 234.843
L77.208 231.091
L77.3568 226.845
L77.4312 227.24
L77.5056 226.805
L77.58 227.107
L78.3984 259.761
L78.4728 259.672
L78.6216 252.148
L78.696 252.543
L78.7704 253.16
L78.8448 251.086
L79.1424 234.31
L79.2912 230.898
L79.3656 231.145
L79.5144 236.67
L79.812 223.596
L79.9608 220.975
L80.1096 224.88
L80.3328 237.563
L80.556 257.075
L80.7048 259.233
L80.928 251.619
L81.0024 251.2
L81.2256 247.482
L81.7464 233.9
L82.044 231.501
L82.4904 236.142
L82.5648 236.191
L82.9368 240.417
L83.532 255.209
L83.6064 253.659
L83.904 241.864
L84.1272 246.623
L84.2016 246.401
L84.3504 239.193
L84.4992 232.656
L84.648 230.967
L84.7968 233.54
L84.9456 231.708
L85.0944 230.192
L85.6152 246.445
L85.6896 246.376
L85.9872 235.865
L86.0616 236.857
L86.136 237.272
L86.4336 230.019
L86.6568 235.934
L86.7312 236.176
L86.9544 246.51
L87.1032 254.458
L87.252 255.135
L87.4008 258.472
L87.4752 257.707
L87.8472 246.707
L87.996 245.591
L88.5912 227.102
L88.6656 228.05
L88.8888 232.532
L89.0376 227.195
L89.112 227.551
L89.4096 235.845
L89.484 235.371
L89.6328 232.271
L90.0048 249.042
L90.3024 251.777
L90.4512 254.256
L90.5256 253.94
L90.6744 249.97
L90.8232 251.901
L91.0464 241.365
L91.1208 241.419
L91.2696 239.617
L91.344 237.791
L91.4184 238.116
L91.4928 238.427
L91.5672 237.909
L91.8648 227.758
L91.9392 228.168
L92.0136 227.112
L92.088 227.225
L92.3112 235.366
L92.3856 233.643
L92.5344 239.242
L92.6088 241.79
L92.6832 240.896
L92.7576 240.61
L92.9064 242.955
L93.3528 251.733
L93.4272 251.802
L93.576 257.287
L93.6504 256.488
L93.8736 245.537
L93.948 245.804
L94.0224 245.048
L94.5432 226.667
L94.8408 228.657
L95.064 231.683
L95.5848 248.479
L95.9568 240.501
L96.0312 242.728
L96.2544 257.347
L96.4776 249.269
L96.8496 238.131
L97.0728 242.071
L97.3704 237.134
L97.4448 237.82
L97.668 243.083
L97.7424 242.757
L98.04 238.413
L98.2632 232.355
L98.3376 232.71
L98.4864 230.953
L98.5608 231.446
L98.784 235.88
L98.9328 238.023
L99.0072 237.445
L99.156 233.525
L99.3792 246.139
L99.4536 245.335
L99.6024 249.299
L99.8256 245.191
L99.9744 250.662
L100.272 242.209
L100.495 236.769
L100.718 239.316
L100.793 238.541
L100.867 238.98
L101.016 242.17
L101.09 241.479
L101.165 239.459
L101.239 240.062
L101.388 247.29
L101.462 246.954
L101.686 242.288
L101.834 240.758
L101.983 241.553
L102.058 240.185
L102.206 232.765
L102.355 238.018
L102.578 242.994
L102.653 243.325
L102.727 243.197
L102.802 242.639
L102.95 243.646
L103.025 242.891
L103.174 234.878
L103.248 235.115
L103.397 240.462
L103.62 236.27
L103.769 234.601
L103.843 235.223
L103.992 238.798
L104.066 238.047
L104.29 227.191
L104.364 229.052
L104.736 246.993
L104.959 251.229
L105.257 260.847
L105.331 259.692
L105.703 245.591
L105.852 247.334
L105.926 246.589
L106.596 215.682
L106.819 228.257
L107.042 222.011
L107.266 226.805
L107.563 250.538
L107.861 266.204
L108.158 261
L108.605 245.26
L108.754 239.543
L108.902 234.26
L108.977 234.616
L109.274 241.923
L109.349 241.015
L109.87 222.239
L110.018 216.931
L110.167 216.27
L110.242 217.844
L110.911 263.785
L111.283 253.782
L111.432 249.862
L111.581 253.639
L111.73 251.792
L111.953 241.089
L112.102 245.917
L112.548 223.058
L112.622 223.888
L112.92 237.386
L112.994 237.45
L113.069 238.235
L113.59 228.578
L113.664 228.919
L113.962 236.413
L114.482 263.029
L114.557 262.382
L114.706 254.488
L115.45 193.964
L115.524 197.108
L115.822 246.534
L116.268 339.209
L116.417 327.543
L116.566 292.129
L117.012 154.264
L117.086 153.711
L117.235 161.759
L117.607 227.887
L118.054 285.276
L118.128 288.663
L118.202 288.189
L118.351 280.847
L118.649 243.35
L118.946 218.472
L119.021 217.39
L119.095 218.817
L119.318 226.712
L119.616 218.077
L119.69 218.664
L119.839 229.358
L120.286 272.41
L120.36 271.447
L120.583 258.492
L120.955 225.117
L121.253 236.63
L121.327 236.497
L121.476 232.226
L121.699 247.586
L121.922 259.973
L121.997 258.373
L122.666 219.024
L122.89 211.925
L123.187 225.927
L123.931 272.622
L124.154 279.737
L124.303 284.392
L124.378 283.543
L124.601 275.145
L124.898 235.761
L125.122 214.67
L125.345 202.944
L125.568 188.241
L125.642 189.175
L126.014 201.28
L126.238 228.617
L126.61 286.431
L126.684 286.747
L127.056 281.578
L127.279 262.674
L127.726 219.572
L127.874 214.073
L128.172 220.18
L128.618 231.826
L128.693 230.73
L128.767 230.217
L128.916 238.269
L129.362 265.809
L129.66 275.57
L129.734 278.774
L129.809 276.917
L130.702 195.114
L130.776 194.393
L130.85 195.144
L130.925 197.513
L131.669 256.389
L131.743 255.821
L131.892 253.017
L132.115 256.744
L132.264 254.483
L132.338 255.53
L132.487 260.812
L132.934 247.857
L133.008 248.386
L133.082 246.317
L133.38 223.848
L133.529 228.089
L133.603 226.465
L133.678 226.529
L133.975 239.583
L134.198 242.436
L134.273 242.387
L134.422 241.548
L134.645 238.423
L134.719 238.497
L134.868 241.306
L134.942 239.652
L135.091 231.155
L135.166 232.31
L135.463 250.825
L135.761 242.372
L135.91 244.461
L135.984 243.997
L136.207 239.114
L136.505 227.768
L137.1 251.106
L137.249 252.37
L137.323 251.926
L137.472 244.964
L137.546 241.316
L137.621 242.856
L137.77 245.68
L138.142 225.161
L138.29 232.31
L138.514 247.685
L138.588 247.472
L138.96 225.063
L139.704 264.456
L139.778 264.693
L140.15 244.599
L140.448 218.343
L140.522 216.037
L140.597 216.299
L140.969 229.575
L141.043 228.538
L141.266 224.905
L141.415 231.733
L141.787 259.667
L141.862 259.163
L142.085 245.878
L142.159 245.966
L142.829 264.821
L142.903 265.197
L143.275 236.033
L143.498 216.21
L143.647 211.337
L143.722 212.162
L143.87 215.751
L143.945 215.09
L144.019 217
L144.54 252.898
L144.614 251.787
L145.061 238.111
L145.21 235.376
L145.358 241.138
L145.507 248.682
L145.656 247.611
L145.879 254.374
L145.954 253.896
L146.251 249.857
L146.698 231.274
L146.772 234.769
L146.921 240.042
L147.07 240.817
L147.293 234.226
L147.367 234.971
L147.516 237.539
L147.665 233.239
L147.739 233.989
L148.409 248.84
L148.632 244.915
L148.855 239.005
L149.078 241.938
L149.227 238.719
L149.376 230.647
L149.748 206.321
L149.822 207.886
L150.046 234.26
L150.343 266.925
L150.566 278.487
L150.641 277.233
L151.162 223.458
L151.236 226.144
L151.98 279.011
L152.054 277.762
L152.203 262.921
L152.501 209.861
L152.724 179.912
L152.873 177.607
L152.947 179.039
L153.245 209.535
L153.617 260.916
L153.914 271.245
L153.989 270.766
L154.138 272.543
L154.286 271.635
L154.51 281.149
L154.584 281.134
L154.658 279.648
L154.956 249.274
L155.328 214.754
L155.774 186.716
L155.923 194.847
L156.667 272.839
L156.742 270.726
L156.965 263.992
L157.188 257.361
L157.337 256.285
L157.486 262.945
L157.634 270.934
L157.709 270.208
L158.006 243.932
L158.378 212.754
L158.527 205.314
L158.602 205.892
L159.048 222.732
L159.197 224.322
L159.42 236.527
L159.718 262.427
L159.941 274.676
L160.238 254.379
L160.61 230.597
L160.759 235.875
L161.057 245.878
L161.131 246.426
L161.206 245.576
L161.28 242.298
L161.652 185.911
L161.726 190.735
L162.024 268.184
L162.322 316.8
L162.396 318.231
L162.545 295.096
L163.14 175.469
L163.214 171.45
L163.289 173.208
L163.512 202.865
L163.884 253.436
L164.182 266.559
L164.33 267.986
L164.479 265.394
L165 250.42
L165.074 249.26
L165.298 229.225
L165.372 230.326
L165.67 238.442
L165.744 238.679
L165.967 234.774
L166.116 237.376
L166.265 233.362
L166.339 233.821
L166.414 234.537
L166.562 239.361
L166.637 238.99
L166.786 235.505
L167.158 217.657
L167.306 220.288
L167.678 228.558
L168.497 289.887
L168.571 290.564
L168.72 295.762
L168.869 281.726
L169.092 233.599
L169.315 205.556
L169.464 199.982
L169.613 208.745
L169.687 208.587
L169.762 206.919
L169.91 211.895
L170.059 218.042
L170.208 213.263
L170.431 217.129
L170.506 216.121
L170.58 218.002
L170.878 253.268
L171.101 279.524
L171.324 281.687
L171.473 276.063
L171.994 251.718
L172.738 189.569
L172.886 181.611
L172.961 182.045
L173.11 197.499
L173.779 297.308
L173.854 298.221
L174.002 290.08
L174.151 274.345
L174.598 206.163
L174.672 206.41
L174.746 212.191
L175.118 271.329
L175.267 282.087
L175.416 276.996
L175.565 262.017
L176.16 167.461
L176.309 181.576
L176.978 283.104
L177.053 283.044
L177.202 285.493
L177.276 285.473
L177.722 259.346
L178.392 183.803
L178.541 175.662
L178.615 179.246
L178.913 227.832
L179.285 290.544
L179.508 299.826
L179.731 285.103
L180.252 242.91
L180.475 236.295
L180.996 198.032
L181.07 196.62
L181.294 210.987
L181.591 236.739
L181.666 236.719
L181.74 237.247
L182.038 245.729
L182.261 250.291
L182.335 248.869
L182.41 249.334
L182.782 261.553
L182.856 265.029
L182.93 264.589
L183.228 235.89
L183.451 220.59
L183.526 221.957
L183.823 241.172
L184.121 267.107
L184.195 269.146
L184.27 268.663
L184.865 241.696
L185.237 208.632
L185.534 203.69
L185.609 203.818
L185.758 208.227
L185.981 226.376
L186.278 249.452
L186.576 260.413
L186.725 263.103
L186.799 262.945
L186.874 262.777
L187.022 269.087
L187.097 273.619
L187.171 273.486
L187.394 261.059
L187.915 223.991
L188.287 206.77
L188.362 207.649
L188.734 231.609
L189.254 266.939
L189.403 267.433
L189.478 267.216
L189.626 261.178
L190.147 230.074
L190.742 225.374
L190.817 223.542
L191.04 227.595
L191.561 247.122
L191.933 263.508
L192.156 271.299
L192.23 271.284
L192.305 269.571
L192.528 247.235
L192.974 212.814
L193.198 210.36
L193.272 210.868
L193.495 226.657
L193.942 253.308
L194.016 254.315
L194.09 254.128
L194.165 254.567
L194.239 254.128
L194.686 240.595
L194.983 251.812
L195.132 244.145
L195.355 214.413
L195.578 186.666
L195.653 187.698
L195.802 211.816
L196.322 327.148
L196.397 331.147
L196.471 330.189
L196.62 304.704
L197.141 147.075
L197.215 148.823
L197.364 177.735
L197.81 283.824
L197.885 284.249
L198.034 271.733
L198.331 246.46
L198.406 245.058
L198.629 219.809
L198.852 203.991
L198.926 205.27
L199.15 222.792
L199.67 268.144
L199.745 267.26
L200.191 248.958
L200.34 254.74
L200.414 257.638
L200.489 254.883
L200.712 219.237
L201.01 176.945
L201.158 199.977
L201.605 315.052
L201.679 319.337
L201.754 318.755
L201.902 302.828
L202.126 249.877
L202.498 146.498
L202.646 184.894
L202.944 275.515
L203.018 276.656
L203.465 250.593
L203.539 250.533
L203.614 250.992
L203.688 250.711
L203.986 244.717
L204.134 237.312
L204.506 191.663
L204.581 195.188
L204.878 241.192
L205.176 274.622
L205.325 279.835
L205.474 265.419
L205.846 223.379
L206.069 229.847
L206.218 216.832
L206.441 200.811
L206.59 220.353
L207.185 340.31
L207.334 291.67
L207.706 120.04
L207.854 159.201
L208.226 282.477
L208.301 285.765
L208.524 270.489
L208.747 259.089
L208.896 265.281
L209.045 277.337
L209.119 277.154
L209.268 263.77
L209.863 153.425
L209.938 151.514
L210.086 169.465
L210.756 315.585
L210.83 320.976
L210.905 320.019
L211.426 257.011
L211.649 238.279
L211.798 235.964
L211.946 208.202
L212.244 106.912
L212.318 108.442
L212.542 161.082
L213.211 372.974
L213.286 371.952
L213.434 349.755
L213.955 241.642
L214.178 230.019
L214.327 194.62
L214.625 111.266
L214.699 109.114
L214.774 112.165
L214.997 158.391
L215.592 335.689
L215.666 340.745
L215.741 340.607
L215.89 329.903
L216.038 298.177
L216.559 161.26
L216.708 185.427
L217.006 247.773
L217.378 272.573
L217.601 300.374
L217.675 299.668
L217.973 254.527
L218.345 212.503
L218.419 212.853
L218.568 214.038
L218.642 213.653
L218.791 199.661
L219.014 173.721
L219.089 179.33
L219.535 284.713
L219.61 273.925
L219.982 204.786
L220.056 206.371
L220.205 221.059
L220.502 294.844
L220.726 339.501
L220.8 339.965
L220.949 316.829
L221.693 154.437
L221.767 153.489
L221.916 173.682
L222.288 252.785
L222.362 254.192
L222.511 242.772
L222.66 225.704
L222.734 226.07
L223.032 286.204
L223.106 283.647
L223.478 223.369
L223.627 236.033
L223.85 257.297
L223.999 234.063
L224.222 195.331
L224.371 219.676
L224.594 280.64
L224.669 278.211
L224.966 222.273
L225.041 226.815
L225.338 285.118
L225.413 283.365
L225.859 216.669
L226.008 229.57
L226.529 275.757
L226.603 273.368
L226.975 218.383
L227.198 231.195
L227.273 229.17
L227.645 192.937
L227.719 195.81
L228.017 240.348
L228.24 257.549
L228.314 257.119
L228.538 263.365
L228.612 260.753
L228.91 206.82
L228.984 216.22
L229.356 350.041
L229.43 347.01
L229.654 221.172
L229.877 160.88
L230.026 190.661
L230.398 275.026
L230.546 277.934
L230.621 277.194
L230.77 263.503
L230.993 220.698
L231.216 176.022
L231.29 174.709
L231.439 189.678
L231.96 275.9
L232.034 276.246
L232.183 264.471
L232.555 221.809
L232.63 223.088
L232.853 248.297
L233.076 271.99
L233.15 272.341
L233.374 248.83
L233.597 232.745
L233.746 224.085
L234.043 173.879
L234.118 176.037
L234.341 236.487
L234.638 318.488
L234.713 324.215
L234.787 322.561
L235.01 285.577
L235.382 228.558
L235.68 213.742
L235.754 213.1
L235.829 213.48
L236.052 215.223
L236.424 220.466
L236.722 228.203
L236.796 228.504
L236.87 227.487
L237.019 220.866
L237.242 208.306
L237.317 210.493
L237.466 227.072
L238.061 308.456
L238.135 308.752
L238.358 299.396
L238.582 285.587
L238.879 236.393
L239.326 159.167
L239.4 156.051
L239.474 156.491
L239.623 169.688
L239.995 230.572
L240.293 278.009
L240.367 277.767
L240.665 256.191
L240.739 259.084
L241.111 304.467
L241.186 301.944
L241.409 258.586
L241.632 223.053
L241.706 220.244
L241.855 225.769
L242.078 233.199
L242.153 230.997
L242.674 190.572
L242.748 192.359
L243.046 231.145
L243.492 282.946
L243.566 283.617
L243.715 275.209
L244.162 236.971
L244.236 237.401
L244.385 242.431
L244.682 257.593
L244.757 258.137
L244.831 255.619
L245.278 205.354
L245.352 207.763
L245.798 240.936
L245.873 240.442
L245.947 239.983
L246.022 240.076
L246.096 240.308
L246.17 241.814
L246.245 239.914
L246.617 215.396
L246.691 217.904
L246.989 241.513
L247.286 269.887
L247.658 321.386
L247.733 322.625
L247.882 301.741
L248.551 91.5771
L248.626 100.869
L248.849 234.083
L249.072 328.338
L249.146 328.209
L249.518 299.327
L249.965 209.298
L250.114 229.817
L250.337 252.079
L250.486 240.037
L250.709 219.765
L251.006 209.037
L251.23 185.659
L251.304 187.629
L251.527 222.52
L251.825 250.83
L251.974 269.665
L252.346 336.124
L252.42 330.564
L252.569 295.259
L253.015 144.725
L253.164 161.171
L253.908 304.699
L253.982 303.311
L254.206 273.669
L254.726 205.279
L255.024 196.477
L255.173 203.161
L255.917 266.154
L256.066 262.718
L256.438 249.457
L256.884 233.372
L256.958 233.94
L257.182 238.659
L257.405 244.638
L257.702 240.629
L258 242.348
L258.074 242.155
L258.446 238.462
L258.521 239.198
L258.744 241.706
L258.818 241.582
L259.042 239.474
L259.116 238.536
L259.19 238.803
L259.265 239.983
L259.339 239.731
L259.637 232.251
L259.711 233.831
L260.232 247.532
L260.381 247.645
L260.455 247.176
L260.604 242.797
L260.827 247.615
L260.902 247.077
L261.125 238.699
L261.348 231.204
L261.422 230.967
L261.497 231.269
L261.72 235.677
L261.794 235.702
L261.869 236.107
L262.166 242.767
L262.39 250.449
L262.538 243.498
L262.836 227.689
L262.91 227.936
L263.059 233.683
L263.134 233.293
L263.208 231.624
L263.282 232.172
L263.878 249.62
L264.026 252.681
L264.324 261.612
L264.473 264.338
L264.622 255.431
L264.845 243.705
L265.068 232.607
L265.217 222.411
L265.663 232.3
L265.738 231.905
L265.886 229.817
L265.961 230.133
L266.11 228.217
L266.184 228.366
L266.407 232.523
L266.854 252.523
L266.928 251.392
L267.077 250.163
L267.449 237.065
L267.672 232.315
L267.746 232.36
L268.193 247.299
L268.267 245.794
L268.342 245.858
L268.416 247.606
L268.788 243.404
L268.862 243.695
L269.086 249.635
L269.16 250.291
L269.309 258.319
L269.532 248.667
L269.978 231.673
L270.053 231.451
L270.202 232.947
L270.276 232.271
L270.499 238.423
L270.574 238.003
L270.797 230.296
L270.871 228.469
L271.392 239.178
L271.615 249.605
L271.69 249.418
L271.838 248.554
L271.987 250.563
L272.136 242.12
L272.359 233.026
L272.434 232.73
L272.508 233.579
L272.731 240.002
L272.806 240.116
L272.88 240.017
L272.954 240.205
L273.103 238.141
L273.178 238.373
L273.624 245.073
L273.698 244.707
L274.145 238.704
L274.219 239.385
L274.442 245.043
L274.517 244.525
L274.74 250.282
L274.814 249.037
L275.038 244.051
L275.112 243.819
L275.261 236.823
L275.484 227.694
L275.633 232.661
L275.856 242.664
L276.005 242.407
L276.154 238.659
L276.302 236.349
L276.451 239.82
L276.674 249.432
L276.972 241.523
L277.046 243.058
L277.121 242.866
L277.418 229.758
L277.493 230.005
L277.79 242.896
L278.014 246.668
L278.311 239.484
L278.386 239.889
L278.46 240.22
L278.683 243.513
L279.055 235.129
L279.13 235.46
L279.427 244.14
L279.502 243.873
L279.576 242.762
L279.799 236.729
L279.874 237.178
L280.022 240.916
L280.097 243.009
L280.171 242.185
L280.246 241.335
L280.32 242.002
L280.543 245.769
L280.618 245.413
L280.841 241.533
L280.99 244.199
L281.213 253.412
L281.287 252.883
L281.436 248.198
L281.808 229.383
L282.106 218.116
L282.329 224.213
L282.85 250.652
L283.222 255.11
L283.296 254.7
L283.445 253.219
L283.519 253.397
L283.668 251.457
L283.817 247.591
L284.338 224.643
L284.486 222.199
L284.561 223.3
L285.007 244.001
L285.082 245.073
L285.156 245.043
L285.305 241.893
L285.454 239.094
L285.677 244.925
L285.751 244.278
L285.826 244.515
L286.123 247.778
L286.198 247.448
L286.272 246.258
L286.57 231.051
L286.718 236.783
L286.867 242.12
L286.942 242.175
L287.016 241.957
L287.165 242.752
L287.314 238.951
L287.462 236.675
L287.611 240.501
L287.834 235.697
L288.504 249.477
L288.578 248.692
L288.802 242.792
L288.95 244.915
L289.174 242.659
L289.694 226.83
L289.843 228.568
L289.918 228.188
L289.992 228.909
L290.662 254.616
L290.736 254.202
L291.034 235.282
L291.108 235.742
L291.48 247.769
L291.629 249.576
L291.778 247.931
L291.852 248.465
L292.001 246.115
L292.447 233.648
L292.522 233.263
L292.745 236.206
L293.117 225.793
L293.191 226.173
L293.638 244.925
L293.712 245.078
L294.084 254.379
L294.307 247.625
L294.382 247.467
L294.456 247.778
L294.605 244.234
L294.902 236.586
L295.051 233.974
L295.2 237.405
L295.274 236.324
L295.498 231.254
L295.646 234.078
L296.018 245.256
L296.093 245.823
L296.242 243.271
L296.316 243.651
L296.465 245.749
L296.688 241.656
L296.837 238.714
L296.911 238.59
L297.134 235.959
L297.358 238.714
L297.506 241.395
L297.655 239.839
L297.804 240.773
L298.027 243.577
L298.176 246.954
L298.25 246.727
L298.325 246.786
L298.548 250.222
L298.771 235.727
L298.846 236.008
L298.92 237.677
L298.994 237.366
L299.069 237.371
L299.292 239.119
L299.366 239.464
L299.441 239.425
L299.738 232.399
L299.887 236.092
L299.962 234.078
L300.036 234.221
L300.631 252.612
L300.78 250.997
L300.929 252.029
L301.003 250.128
L301.301 232.834
L301.45 230.992
L301.673 226.944
L301.747 227.116
L301.822 225.675
L301.896 225.774
L301.97 227.551
L302.342 248.539
L302.491 247.946
L302.64 248.312
L302.863 244.999
L303.012 247.482
L303.384 262.126
L303.458 261.968
L303.756 251.264
L304.202 211.234
L304.277 210.345
L304.946 230.617
L305.095 235.213
L305.318 243.537
L305.542 249.699
L305.765 259.489
L305.988 265.671
L306.062 265.646
L306.137 264.56
L306.658 232.656
L306.732 234.7
L307.03 247.546
L307.178 251.116
L307.253 249.546
L307.922 218.417
L308.146 213.766
L308.22 213.786
L308.592 223.828
L308.815 235.964
L308.964 240.304
L309.485 281.168
L309.559 279.865
L309.708 273.95
L310.303 231.905
L310.378 231.555
L310.601 233.263
L310.75 225.571
L310.898 219.948
L311.122 227.571
L311.419 235.44
L311.642 239.731
L311.94 248.687
L312.163 244.382
L312.386 245.098
L312.61 243.058
L312.684 243.918
L312.907 249.521
L313.13 236.635
L313.354 231.461
L313.651 244.485
L313.8 249.393
L313.874 247.862
L314.172 237.257
L314.321 241.405
L314.395 241.128
L314.544 238.99
L314.693 234.409
L314.767 235.752
L314.99 243.809
L315.139 246.682
L315.437 242.501
L315.734 237.721
L315.883 238.615
L316.181 229.299
L316.255 230.503
L316.33 232.439
L316.404 232.429
L316.478 232.745
L316.776 242.352
L317.074 259.479
L317.222 257.786
L317.446 245.399
L317.594 237.771
L317.743 238.847
L317.818 238.571
L318.041 243.611
L318.19 239.726
L318.264 239.746
L318.338 240.299
L318.487 233.002
L318.636 224.233
L318.71 224.48
L318.859 229.985
L319.082 239.993
L319.231 236.68
L319.306 237.593
L319.678 247.28
L319.752 246.505
L319.901 240.101
L319.975 240.955
L320.124 244.372
L320.198 244.505
L320.422 249.408
L320.57 246.44
L320.719 248.845
L321.166 240.244
L321.24 240.032
L321.314 240.491
L321.538 235.648
L321.612 237.356
L321.761 241.192
L321.835 241.261
L321.91 241.103
L321.984 239.607
L322.207 229.343
L322.356 227.842
L322.505 233.145
L322.802 239.341
L323.174 248.233
L323.398 236.398
L323.472 237.085
L323.695 254.478
L323.77 253.343
L323.844 252.597
L323.918 252.711
L323.993 252.908
L324.142 247.132
L324.29 243.641
L324.365 243.834
L324.588 243.177
L324.811 237.055
L324.886 236.64
L325.109 226.055
L325.183 227.403
L325.406 233.964
L325.481 233.115
L325.555 232.449
L325.704 235.194
L325.853 243.681
L325.927 248.598
L326.002 246.672
L326.374 238.097
L326.746 247.675
L326.894 245.344
L327.118 249.882
L327.564 236.077
L327.787 223.897
L327.936 231.851
L328.159 243.913
L328.382 240.244
L328.754 243.592
L328.978 236.64
L329.498 256.492
L329.573 254.913
L329.945 238.176
L330.094 245.196
L330.168 244.263
L330.391 240.481
L330.763 231.056
L330.986 221.429
L331.061 221.725
L331.433 236.265
L331.507 236.369
L331.582 237.075
L331.954 251.417
L332.028 250.617
L332.251 238.679
L332.326 239.242
L332.698 252.232
L332.921 266.796
L332.995 267.186
L333.218 249.862
L333.516 232.705
L333.814 218.116
L333.888 219.034
L334.186 231.111
L334.26 231.328
L334.409 234.897
L334.483 234.374
L334.558 233.762
L334.706 239.642
L334.781 239.543
L334.855 239.662
L335.078 251.407
L335.302 248.465
L335.376 248.81
L335.45 249.832
L335.599 254.039
L335.748 247.877
L335.971 239.691
L336.12 243.498
L336.194 243.241
L336.566 231.624
L336.79 237.529
L336.864 239.894
L337.087 234.26
L337.236 237.326
L337.31 237.04
L337.385 235.934
L337.459 236.828
L337.682 248.01
L338.054 239.38
L338.426 251.644
L338.501 252.039
L338.724 236.744
L338.798 238.403
L338.873 239.331
L339.096 230.745
L339.17 231.624
L339.394 237.494
L339.468 237.919
L339.691 243.453
L340.138 237.208
L340.212 237.188
L340.435 241.582
L340.584 239.499
L340.658 240.081
L340.956 249.531
L341.03 249.664
L341.179 239.933
L341.328 232.429
L341.402 232.804
L341.477 232.602
L341.7 236.941
L341.849 241.429
L342.146 252.424
L342.221 253.051
L342.295 252.755
L342.37 250.459
L342.667 232.532
L342.816 231.718
L343.188 243.207
L343.262 243.542
L343.486 240.264
L343.858 231.762
L343.932 232.335
L344.081 237.534
L344.304 249.008
L344.378 248.346
L344.676 240.397
L344.75 240.412
L344.974 232.261
L345.048 232.908
L345.197 240.728
L345.42 250.642
L345.643 242.738
L345.718 243.587
L345.866 244.421
L346.015 238.393
L346.09 239.035
L346.536 248.144
L346.61 247.843
L347.206 224.431
L347.429 236.606
L347.726 247.038
L347.801 246.85
L347.875 247.26
L348.024 243.76
L348.098 244.263
L348.247 248.993
L348.322 248.558
L348.545 236.823
L348.619 237.944
L348.768 240.234
L348.842 240.106
L349.363 227.432
L349.438 228.326
L349.586 233.471
L349.884 257.238
L349.958 256.744
L350.554 240.437
L350.628 241.982
L350.851 247.043
L351.074 246.194
L351.149 245.315
L351.595 219.459
L351.744 217.751
L351.967 226.707
L352.339 250.232
L352.414 249.699
L352.488 249.896
L352.637 251.165
L352.711 250.612
L352.86 247.413
L352.934 247.694
L353.009 247.23
L353.158 242.422
L353.604 255.229
L353.678 254.108
L353.976 237.909
L354.199 221.651
L354.348 225.897
L354.422 225.546
L354.497 225.625
L354.646 228.647
L355.018 237.608
L355.092 237.805
L355.464 256.897
L355.538 255.668
L355.762 252.903
L355.91 253.733
L355.985 253.688
L356.134 247.038
L356.282 239.81
L356.357 240.017
L356.729 229.526
L356.878 221.424
L357.026 228.42
L357.25 235.391
L357.398 237.761
L357.473 236.877
L358.068 253.496
L358.142 253.97
L358.217 253.18
L358.366 242.58
L358.589 230.854
L358.738 238.625
L358.961 251.713
L359.184 236.561
L359.258 238.951
L359.333 243.542
L359.407 243.236
L359.556 238.457
L359.63 239.158
L359.705 237.588
L359.928 225.393
L360.077 226.243
L360.151 227.013
L360.226 229.23
L360.523 245.226
L360.895 256.986
L361.49 239.82
L361.639 239.069
L361.714 239.494
L361.937 248.272
L362.011 247.867
L362.086 246.702
L362.16 246.771
L362.234 247.517
L362.532 234.764
L362.83 217.509
L362.904 218.639
L363.053 226.475
L363.276 242.733
L363.425 239.025
L363.574 236.3
L363.871 249.561
L364.02 261.099
L364.094 260.531
L364.541 241.582
L364.69 237.322
L364.764 238.413
L364.913 244.703
L364.987 244.317
L365.21 236.546
L365.285 237.361
L365.508 244.327
L365.806 230.005
L366.178 220.101
L366.326 232.33
L366.55 246.49
L366.624 247.29
L366.847 253.347
L367.07 249.358
L367.145 249.556
L367.219 249.215
L367.368 243.463
L367.666 232.453
L367.74 233.643
L367.963 242.002
L368.186 240.106
L368.335 235.998
L368.484 240.2
L368.558 239.563
L368.633 238.077
L368.707 240.308
L368.856 249.872
L368.93 248.045
L369.079 241.419
L369.154 241.982
L369.228 240.353
L369.377 232.844
L369.972 250.553
L370.046 250.049
L370.195 246.356
L370.418 237.055
L370.567 234.892
L370.642 235.431
L370.865 240.506
L371.088 244.362
L371.162 245.947
L371.237 245.033
L371.683 225.295
L371.832 220.17
L371.981 228.163
L372.353 245.191
L372.576 250.721
L372.65 250.578
L372.799 248.124
L373.022 255.214
L373.246 266.016
L373.394 260.965
L373.692 244.135
L373.99 222.619
L374.138 219.059
L374.51 224.747
L374.734 237.87
L374.882 235.692
L375.031 240.58
L375.254 249.274
L375.478 244.095
L375.626 244.579
L375.775 243.315
L375.85 243.878
L376.073 247.275
L376.296 240.466
L376.37 240.728
L376.519 238.289
L376.594 238.6
L376.891 249.906
L377.338 234.191
L377.412 233.653
L377.486 234.818
L377.71 250.667
L377.784 250.385
L378.156 228.41
L378.23 230.725
L378.602 243.399
L378.677 244.431
L378.751 244.382
L378.974 237.781
L379.346 246.835
L379.421 245.463
L379.495 244.727
L379.644 247.843
L379.718 247.611
L379.867 242.15
L379.942 242.209
L380.016 242.698
L380.239 239.642
L380.388 237.85
L380.686 234.769
L380.909 239.089
L381.132 235.544
L381.355 241.345
L381.578 234.127
L381.653 235.307
L381.876 242.032
L382.099 236.675
L382.174 238.521
L382.397 254.453
L382.471 252.74
L382.62 244.688
L382.843 251.318
L382.918 251.511
L383.066 250.306
L383.364 239.662
L383.587 225.591
L383.662 226.633
L383.959 235.939
L384.108 232.927
L384.182 234.527
L384.331 242.708
L384.554 233.658
L384.629 233.298
L384.703 232.004
L384.778 232.908
L385.224 265.779
L386.117 222.12
L386.638 240.155
L386.786 236.033
L386.861 237.396
L387.01 227.664
L387.084 221.863
L387.158 223.957
L387.605 276.547
L387.679 275.486
L387.902 271.931
L388.126 250.454
L388.498 219.805
L388.721 214.867
L388.795 215.46
L389.018 222.545
L389.093 220.698
L389.242 212.586
L389.316 212.685
L389.39 213.757
L389.539 224.041
L389.986 269.107
L390.283 274.819
L390.432 278.122
L390.506 276.735
L391.102 235.821
L391.399 214.64
L391.548 205.181
L391.697 197.153
L391.771 197.617
L391.92 204.233
L392.143 227.215
L392.441 257.277
L392.515 258.369
L392.738 267.547
L392.813 267.542
L392.887 268.771
L393.036 276.532
L393.185 269.136
L393.78 227.709
L393.929 232.429
L394.152 230.385
L394.375 223.976
L394.45 224.49
L394.598 226.894
L394.673 225.245
L394.747 225.374
L395.194 260.393
L395.268 256.483
L395.566 231.422
L395.789 209.402
L395.863 208.642
L395.938 210.325
L396.086 221.463
L396.533 273.442
L396.756 255.48
L396.979 240.861
L397.054 240.545
L397.351 253.357
L397.426 252.671
L397.723 245.201
L397.798 245.912
L397.872 245.552
L398.17 234.246
L398.467 232.651
L398.765 228.366
L398.914 226.563
L398.988 227.047
L399.137 232.562
L399.36 242.456
L399.583 239.983
L399.658 240.624
L399.732 240.521
L399.955 235.663
L400.03 236.477
L400.178 239.045
L400.327 238.171
L400.476 246.603
L400.625 256.952
L400.699 256.497
L401.22 227.511
L401.294 229.694
L401.815 257.297
L401.89 257.909
L402.038 256.29
L402.634 234.557
L402.857 225.867
L403.08 228.361
L403.229 227.146
L403.452 228.81
L403.526 228.311
L403.601 228.449
L403.75 238.906
L403.898 250.128
L404.27 235.352
L404.345 232.478
L404.419 233.92
L404.791 259.119
L404.94 265.305
L405.089 262.254
L405.238 251.131
L405.461 239.425
L405.535 240.595
L405.61 240.279
L405.684 236.892
L405.758 237.035
L405.982 245.265
L406.354 225.354
L406.577 215.771
L406.8 222.397
L407.023 237.499
L407.246 248.613
L407.47 240.911
L407.544 241.883
L407.618 241.701
L407.693 240.165
L407.767 240.383
L407.916 250.198
L408.139 264.737
L408.362 268.663
L408.437 268.855
L408.511 268.218
L408.66 256.655
L409.032 219.577
L409.181 209.358
L409.255 209.743
L409.33 212.053
L409.404 211.658
L409.478 209.95
L409.553 210.518
L410.297 262.066
L410.446 266.693
L410.594 260.269
L410.966 236.398
L411.19 224.549
L411.338 228.361
L411.562 241.128
L411.71 238.516
L411.859 241.182
L411.934 240.57
L412.082 236.586
L412.157 237.963
L412.529 251.985
L412.603 251.19
L412.752 245.586
L412.975 229.536
L413.05 231.269
L413.198 235.46
L413.422 231.254
L413.645 235.909
L413.719 235.169
L413.794 232.488
L413.868 233.767
L414.24 253.441
L414.463 260.427
L414.761 247.729
L414.835 247.541
L415.058 244.288
L415.505 230.202
L415.654 232.197
L415.877 218.141
L415.951 218.249
L416.249 229.644
L416.621 249.561
L416.77 255.031
L416.844 254.893
L416.993 252.33
L417.142 253.9
L417.216 253.214
L417.29 252.804
L417.439 256.088
L417.514 255.574
L417.662 251.57
L417.737 251.911
L417.886 243.804
L418.183 227.018
L418.332 224.233
L418.555 228.104
L418.63 227.141
L418.778 217.331
L418.927 211.555
L419.076 222.767
L419.299 245.201
L419.522 254.967
L419.671 266.643
L419.746 265.587
L419.894 261.247
L419.969 261.602
L420.192 257.663
L420.713 234.483
L420.862 234.29
L420.936 234.651
L421.085 231.659
L421.308 218.985
L421.382 219.637
L422.201 253.708
L422.275 252.439
L422.87 227.541
L422.945 228.059
L423.466 256.186
L423.912 233.194
L423.986 233.253
L424.135 237.544
L424.21 236.773
L424.507 227.141
L424.582 227.215
L425.102 251.017
L425.326 258.897
L425.4 259.874
L425.623 257.672
L425.772 252.622
L426.218 223.493
L426.442 217.074
L426.739 227.477
L427.186 253.846
L427.334 252.034
L427.483 245.152
L427.632 238.294
L427.781 239.326
L428.004 245.043
L428.078 244.811
L428.45 232.024
L428.525 232.33
L428.748 238.615
L429.12 249.852
L429.194 250.306
L429.269 249.98
L429.418 251.294
L429.492 251.047
L429.641 245.971
L429.864 241.286
L430.087 233.801
L430.162 234.557
L430.385 236.783
L430.459 236.472
L430.682 227.131
L430.757 227.408
L431.203 246.811
L431.278 246.672
L431.501 243.429
L431.65 239.756
L431.724 240.452
L431.798 239.217
L432.022 231.999
L432.096 231.866
L432.17 231.999
L432.468 239.435
L432.617 247.615
L432.84 261.454
L432.914 261.973
L432.989 261.815
L433.138 255.021
L433.361 241.054
L433.51 240.624
L433.584 239.217
L433.733 240.95
L433.956 236.778
L434.03 237.499
L434.105 237.06
L434.402 226.544
L434.477 227.595
L434.626 233.732
L434.774 231.965
L435.295 244.238
L435.37 242.772
L435.444 242.476
L435.518 243.039
L435.667 239.479
L435.965 232.518
L436.039 231.945
L436.114 231.989
L436.262 237.884
L436.56 255.312
L436.634 254.789
L436.932 246.302
L437.006 246.327
L437.23 251.269
L437.453 238.605
L437.527 239.617
L437.676 246.396
L437.75 245.981
L437.899 242.664
L437.974 242.831
L438.048 242.871
L438.271 244.856
L438.346 242.945
L438.42 243.453
L438.494 243.024
L438.643 240.955
L438.792 242.382
L438.866 241.75
L439.015 233.179
L439.238 216.526
L439.387 218.022
L439.462 217.761
L439.61 220.827
L439.834 236.008
L440.131 259.707
L440.206 260.768
L440.28 260.398
L440.95 231.456
L441.024 232.626
L441.322 247.922
L441.47 242.145
L441.694 233.629
L441.842 233.52
L442.214 249.032
L442.438 263.409
L442.512 265.611
L442.586 264.397
L443.182 228.099
L443.554 210.947
L443.628 211.362
L443.851 227.679
L444.074 239.04
L444.223 246.816
L444.521 261.133
L444.595 261.365
L444.744 259.119
L445.042 252.059
L445.116 251.225
L445.265 243.922
L445.414 238.028
L445.562 239.543
L445.711 237.563
L445.786 237.899
L445.934 240.106
L446.232 236.744
L446.455 230.059
L446.604 233.234
L446.827 239.578
L446.976 234.364
L447.274 221.666
L447.348 222.1
L447.646 230.79
L448.241 261.286
L448.315 262.476
L448.613 275.16
L448.687 274.083
L448.91 262.881
L449.506 208.513
L449.58 209.229
L449.878 224.248
L449.878 224.248" style="fill:none;stroke:#808080;stroke-linecap:square;"/>
   </g>
  </g>
 </g>
 <defs>
  <clipPath id="p7ff5b81e1d">
   <rect height="345.6" width="446.4" x="72.0" y="43.2"/>
  </clipPath>
 </defs>
</svg>
