<?xml version="1.0" encoding="utf-8" standalone="no"?>
<!DOCTYPE svg PUBLIC "-//W3C//DTD SVG 1.1//EN"
  "http://www.w3.org/Graphics/SVG/1.1/DTD/svg11.dtd">
<!-- Created with matplotlib (http://matplotlib.org/) -->
<svg height="432pt" version="1.1" viewBox="0 0 576 432" width="576pt" xmlns="http://www.w3.org/2000/svg" xmlns:xlink="http://www.w3.org/1999/xlink">
 <defs>
  <style type="text/css">
*{stroke-linecap:butt;stroke-linejoin:round;}
  </style>
 </defs>
 <g id="figure_1">
  <g id="patch_1">
   <path d="
M0 432
L576 432
L576 0
L0 0
z
" style="fill:#ffffff;"/>
  </g>
  <g id="axes_1">
   <g id="line2d_1">
    <path clip-path="url(#p7ff5b81e1d)" d="
M72 300.721
L72.0744 299.362
L72.2976 257.648
L72.372 254.342
L72.6696 166.536
L72.8184 205.059
L73.0416 262.648
L73.116 262.728
L73.7856 110.434
L73.86 108.084
L74.0832 171.64
L74.3064 271.564
L74.4552 252.015
L74.7528 280.423
L74.8272 269.491
L74.9016 274.237
L74.976 284.409
L75.1992 263.662
L75.4968 199.703
L75.6456 209.356
L75.8688 201.2
L76.0176 182.618
L76.1664 214.471
L76.2408 209.103
L76.3152 206.108
L76.464 225.104
L76.6872 191.351
L76.7616 193.597
L76.9104 156.33
L77.0592 127.749
L77.208 139.13
L77.7288 287.255
L77.8032 274.94
L77.8776 275.735
L77.952 279.859
L78.0264 278.188
L78.1752 253.236
L78.324 269.422
L78.4728 244.262
L78.5472 257.913
L78.6216 256.945
L78.696 261.507
L78.7704 275.377
L78.8448 269.145
L79.2912 127.783
L79.44 56.6241
L79.6632 103.315
L79.8864 168.126
L80.3328 271.76
L80.4072 277.751
L80.4816 266.277
L80.6304 288.337
L80.7048 306.643
L81.2256 205.025
L81.3 206.35
L81.3744 206.684
L81.5976 230.864
L81.672 229.516
L81.8208 208.769
L81.9696 217.432
L82.044 215.865
L82.1928 234.931
L82.4904 158.737
L82.5648 157.332
L82.6392 153.058
L82.788 169.359
L82.9368 196.592
L83.0112 185.51
L83.2344 210.647
L83.532 294.881
L83.7552 261.957
L83.8296 258.109
L84.0528 212.236
L84.276 147.367
L84.3504 150.005
L84.648 208.942
L84.7968 261.392
L84.8712 258.328
L85.1688 208.769
L85.2432 205.52
L85.3176 207.916
L85.392 228.41
L85.6152 202.594
L85.8384 209.506
L85.9128 205.071
L86.0616 178.183
L86.4336 239.02
L86.6568 253.973
L86.7312 252.453
L86.8056 279.651
L86.88 269.859
L87.0288 223.422
L87.1776 244.746
L87.252 242.073
L87.3264 233.871
L87.4752 251.934
L87.7728 170.661
L87.9216 129.937
L87.996 130.744
L88.2192 154.556
L88.2936 139.833
L88.368 141.584
L88.4424 143.22
L88.6656 204.195
L88.74 198.769
L88.8144 192.491
L88.8888 200.67
L89.1864 315.778
L89.2608 316.343
L89.7072 248.029
L89.7816 250.483
L89.856 244.515
L90.0792 194.115
L90.1536 188.39
L90.3024 224.482
L90.3768 248.34
L90.8976 146.181
L90.972 142.575
L91.1208 145.812
L91.4928 196.984
L91.5672 198.113
L92.088 254.837
L92.1624 261.542
L92.2368 258.524
L92.46 234.101
L92.9064 269.698
L93.204 227.143
L93.2784 236.025
L93.4272 219.701
L93.576 252.936
L93.7248 221.717
L93.7992 221.775
L93.8736 230.346
L93.948 217.455
L94.32 98.3611
L94.4688 73.3166
L94.7664 165.891
L95.064 283.038
L95.2128 297.53
L95.2872 296.24
L95.7336 257.867
L95.9568 281.345
L96.4776 163.656
L96.552 164.336
L96.7008 139.902
L96.8496 107.07
L97.0728 190.417
L97.296 261.208
L97.3704 257.544
L97.4448 261.265
L97.7424 250.967
L97.8912 275.205
L97.9656 275.124
L98.04 278.188
L98.1888 274.225
L98.2632 266.415
L98.6352 190.314
L98.784 170.995
L98.8584 169.555
L99.0816 128.428
L99.156 128.774
L99.2304 140.916
L99.4536 213.665
L99.528 217.144
L99.6024 209.518
L99.7512 174.382
L99.9744 204.933
L100.123 235.576
L100.272 221.487
L100.346 224.782
L100.421 229.804
L100.495 225.818
L100.57 236.129
L100.793 310.237
L100.942 295.895
L101.016 261.576
L101.09 268.477
L101.165 284.766
L101.462 188.367
L101.611 150.051
L101.76 179.496
L101.983 241.578
L102.058 242.73
L102.132 247.292
L102.281 237.085
L102.43 248.179
L102.802 83.4772
L102.95 131.458
L103.174 185.107
L103.248 173.564
L103.322 176.294
L103.546 217.455
L104.215 327.77
L104.587 272.417
L104.662 275.919
L105.331 51.3019
L105.554 143.577
L105.926 292.381
L106.001 294.984
L106.15 257.786
L106.224 262.636
L106.298 264.065
L106.373 261.507
L106.522 233.064
L106.745 243.202
L106.894 237.788
L106.968 242.903
L107.042 242.81
L107.191 209.356
L107.414 133.9
L107.489 139.084
L107.638 181.294
L107.935 327.586
L108.902 74.3188
L109.126 156.353
L109.274 178.632
L109.721 291.033
L109.795 291.229
L109.944 266.945
L110.316 321.1
L110.39 315.962
L110.465 297.461
L110.688 165.557
L110.762 168.495
L110.837 172.573
L111.209 95.9995
L111.283 106.667
L112.027 305.076
L112.176 266.818
L112.25 276.656
L112.622 235.967
L112.846 185.902
L112.92 186.835
L113.069 240.253
L113.143 232.719
L113.515 119.88
L113.59 126.735
L113.887 245.241
L114.036 208.965
L114.259 259.226
L114.631 197.894
L114.706 205.255
L114.78 196.788
L114.929 163
L115.078 184.888
L115.152 194.979
L115.524 317.69
L115.673 324.545
L115.896 227.892
L116.045 191.581
L116.194 157.182
L116.566 285.734
L116.64 267.014
L116.938 172.354
L117.235 74.2382
L117.31 91.9559
L118.128 308.67
L118.202 310.997
L118.277 309.384
L118.426 291.448
L118.574 308.336
L118.649 303.325
L118.872 215.059
L119.021 235.207
L119.393 133.267
L119.467 132.126
L119.69 167.032
L119.765 166.467
L120.062 237.511
L120.211 205.509
L120.286 185.164
L120.36 186.028
L120.509 232.569
L120.658 179.946
L120.732 181.271
L120.881 240.449
L121.03 228.145
L121.104 231.774
L121.253 213.388
L121.402 239.827
L121.476 239.7
L121.55 247.948
L121.699 204.287
L121.774 212.052
L122.071 307.449
L122.22 269.352
L122.369 241.221
L122.443 244.711
L122.518 242.303
L123.038 73.9271
L123.113 77.4407
L123.336 139.372
L123.485 157.079
L123.931 340.857
L124.08 312.334
L124.229 282.324
L124.303 282.22
L124.898 152.782
L125.047 168.99
L125.196 141.515
L125.568 248.351
L125.642 247.649
L125.791 215.289
L125.94 240.115
L126.014 236.428
L126.238 207.502
L126.386 237.914
L126.61 156.364
L127.13 235.334
L127.577 321.181
L127.651 319.487
L128.023 221.879
L128.246 147.091
L128.321 134.096
L128.47 73.0631
L128.916 132.852
L129.362 355.948
L129.437 353.921
L129.586 297.219
L129.66 298.694
L129.734 296.494
L129.958 261.692
L130.032 253.34
L130.478 138.888
L130.553 123.175
L130.627 124.604
L131.074 254.319
L131.297 331.238
L131.371 323.301
L132.041 84.3758
L132.115 87.1867
L132.413 152.275
L133.082 363.344
L133.306 316.515
L133.38 322.828
L133.603 262.348
L133.901 176.398
L134.05 156.261
L134.124 162.366
L134.198 152.989
L134.422 67.4875
L135.166 266.622
L135.24 276.046
L135.314 273.857
L135.538 223.272
L135.612 229.585
L135.761 255.229
L135.835 253.409
L136.058 202.122
L136.133 205.532
L136.356 227.5
L136.579 245.944
L136.654 242.845
L136.728 232.569
L136.951 269.859
L137.026 268.12
L137.472 194.15
L137.695 162.136
L138.067 104.732
L138.142 112.692
L138.96 324.533
L139.183 274.882
L139.258 278.753
L139.332 273.431
L139.853 127.196
L139.927 114.12
L140.002 120.848
L140.225 182.572
L140.374 163.322
L140.597 247.015
L140.671 237.949
L140.82 262.314
L141.043 214.517
L141.266 279.075
L141.564 258.282
L141.638 257.982
L142.01 138.462
L142.085 141.25
L142.308 166.894
L142.606 283.153
L142.68 291.125
L142.754 289.916
L142.829 286.598
L143.052 232.972
L143.126 239.239
L143.201 230.772
L143.573 134.154
L143.722 128.82
L144.019 174.036
L144.094 170.015
L144.168 152.724
L144.242 153.496
L144.763 375.383
L144.838 374.864
L144.986 331.18
L145.284 221.855
L145.433 176.006
L145.656 84.6638
L145.73 85.1937
L145.879 99.0983
L146.251 244.469
L146.326 241.774
L146.4 240.115
L146.549 261.646
L146.623 256.853
L146.698 249.676
L146.921 269.998
L147.144 232.373
L147.293 256.957
L147.367 249.722
L147.516 203.331
L147.59 205.221
L147.665 208.792
L147.739 204.564
L147.888 158.714
L147.962 169.013
L148.186 222.259
L148.409 248.985
L148.558 269.825
L149.004 206.937
L149.302 140.951
L149.376 133.117
L149.525 101.218
L149.674 139.925
L149.897 204.034
L149.971 209.886
L150.269 277.912
L150.492 301.747
L150.566 299.961
L150.715 293.533
L150.79 300.503
L151.013 279.317
L151.31 170.073
L151.385 172.642
L151.534 154.671
L151.608 161.71
L151.682 172.942
L151.906 152.655
L152.352 252.948
L152.501 236.163
L153.245 161.41
L153.319 170.35
L153.542 242.015
L153.691 211.372
L153.84 243.167
L153.989 283.937
L154.138 260.39
L154.286 262.175
L154.361 259.468
L154.51 234.769
L154.584 234.332
L154.807 214.333
L154.882 217.697
L155.03 212.328
L155.254 164.624
L155.402 189.83
L155.477 188.643
L155.626 158.196
L155.774 180.556
L155.923 220.727
L155.998 219.701
L156.146 195.786
L156.667 269.318
L156.742 269.525
L156.816 264.744
L157.039 237.027
L157.262 269.053
L157.411 204.426
L157.486 180.51
L157.56 183.655
L157.709 214.897
L157.858 192.606
L157.932 197.571
L158.304 138.232
L158.453 151.18
L158.825 251.773
L158.899 253.916
L158.974 252.107
L159.048 254.918
L159.494 207.813
L159.718 286.068
L160.164 191.88
L160.238 187.825
L160.462 131.043
L160.61 158.991
L160.834 219.874
L160.982 312.207
L161.057 310.433
L161.131 305.168
L161.354 233.099
L161.503 193.401
L161.652 219.01
L161.875 180.061
L161.95 165.338
L162.098 188.171
L162.173 179.162
L162.247 167.827
L162.322 174.566
L162.545 227.673
L162.768 253.512
L162.842 259.376
L162.917 248.11
L163.14 173.679
L163.438 220.3
L163.586 246.911
L163.735 210.577
L163.81 211.257
L164.033 239.988
L164.33 190.049
L164.405 179.128
L164.554 208.216
L164.777 180.441
L165.149 262.832
L165.298 325.328
L165.744 215.404
L165.893 169.877
L166.042 187.71
L166.19 171.375
L166.265 168.76
L166.414 136.584
L166.562 157.516
L166.786 221.038
L167.009 252.003
L167.158 220.68
L167.232 228.848
L167.381 267.29
L167.604 174.117
L167.678 181.282
L167.753 192.157
L167.976 168.506
L168.274 206.764
L168.794 321.354
L168.943 303.578
L169.166 247.545
L169.39 163.276
L169.464 163.749
L169.613 176.225
L169.687 177.1
L169.762 176.432
L169.91 157.39
L169.985 164.601
L170.208 221.879
L170.357 186.858
L170.506 206.926
L170.58 201.004
L170.654 203.827
L170.878 266.668
L170.952 253.409
L171.175 177.987
L171.25 183.609
L171.547 279.052
L171.696 262.556
L172.068 179.139
L172.44 220.243
L172.514 223.399
L172.589 222.351
L172.663 216.81
L172.886 187.779
L173.035 205.693
L173.11 201.891
L173.333 183.298
L173.482 187.537
L173.556 185.245
L173.705 224.332
L173.854 251.531
L174.002 237.742
L174.077 223.825
L174.151 224.275
L174.374 238.329
L174.598 213.699
L174.895 234.182
L174.97 232.995
L175.118 210.612
L175.342 281.23
L175.416 264.825
L175.639 179.37
L175.714 187.618
L175.862 221.326
L175.937 218.549
L176.234 226.21
L176.606 154.533
L176.755 114.846
L176.83 127.726
L177.127 252.049
L177.202 239.112
L177.276 244.458
L177.425 272.094
L177.499 268.316
L177.946 174.266
L178.02 174.405
L178.094 183.482
L178.243 206.707
L178.318 191.086
L178.392 200.463
L178.615 281.08
L178.69 271.507
L178.913 223.1
L179.136 283.626
L179.657 189.807
L179.806 202.214
L179.954 175.223
L180.103 135.605
L180.252 183.482
L180.326 218.261
L180.401 217.535
L180.475 204.276
L180.624 232.373
L180.698 224.77
L180.847 216.637
L180.922 217.535
L181.145 250.655
L181.294 239.907
L181.368 245.61
L181.442 242.004
L181.666 179.831
L181.963 227.846
L182.038 226.106
L182.186 211.545
L182.261 214.091
L182.41 229.839
L182.558 206.234
L182.707 233.456
L182.93 181.086
L183.005 191.685
L183.079 196.765
L183.228 190.394
L183.526 250.575
L183.749 228.376
L183.823 224.551
L183.972 234.735
L184.121 224.666
L184.27 175.476
L184.493 230.357
L184.567 213.296
L184.642 211.799
L184.79 231.889
L184.939 221.809
L185.088 208.055
L185.311 216.994
L185.534 206.534
L185.758 183.966
L185.832 180.418
L185.981 226.164
L186.13 267.993
L186.427 179.013
L186.65 157.39
L186.874 215.75
L186.948 202.836
L187.022 204.91
L187.32 297.415
L187.469 272.808
L187.766 197.825
L187.915 251.393
L187.99 249.377
L188.138 221.521
L188.287 231.912
L188.362 238.905
L188.436 230.818
L188.734 129.753
L188.808 147.206
L189.031 187.883
L189.18 210.508
L189.254 205.774
L189.329 210.716
L189.403 224.067
L189.552 290.768
L189.626 289.616
L189.924 231.982
L190.147 196.016
L190.222 205.612
L190.445 170.845
L190.966 233.445
L191.04 233.894
L191.189 210.508
L191.263 192.975
L191.338 194.161
L191.561 264.341
L191.784 208.953
L191.858 210.128
L191.933 208.147
L192.082 163.08
L192.156 173.794
L192.305 248.421
L192.379 244.481
L192.454 242.81
L192.602 269.468
L192.826 235.864
L192.9 238.583
L192.974 239.93
L193.346 170.615
L193.495 186.385
L193.57 194.795
L193.718 188.332
L193.867 229.551
L193.942 211.856
L194.09 240.034
L194.165 236.509
L194.462 185.349
L194.686 240.264
L194.909 197.502
L195.058 201.845
L195.281 114.662
L195.504 233.859
L195.578 226.821
L195.653 208.124
L195.727 214.126
L195.95 265.585
L196.248 324.153
L196.322 329.694
L196.397 317.149
L196.694 180.476
L196.769 176.098
L196.918 137.69
L197.141 234.309
L197.215 218.181
L197.364 184.865
L197.513 208.089
L197.662 182.411
L197.885 245.276
L198.108 181.651
L198.182 185.326
L198.257 196.627
L198.331 195.705
L198.406 191.569
L198.554 235.276
L198.629 234.527
L198.778 226.959
L198.926 241.658
L199.075 256.369
L199.15 250.679
L199.298 177.619
L199.373 187.929
L199.522 212.812
L199.67 196.062
L199.819 232.984
L199.894 232.097
L200.042 200.474
L200.117 203.458
L200.191 208.377
L200.34 194.081
L200.414 185.913
L200.563 215.036
L200.712 245.368
L200.786 241.105
L201.084 196.385
L201.53 253.167
L201.605 270.7
L201.679 264.065
L201.754 254.342
L202.051 162.032
L202.126 162.827
L202.2 165.016
L202.349 201.983
L202.423 200.394
L202.572 248.755
L202.721 282.232
L202.795 275.02
L202.944 221.464
L203.018 221.925
L203.093 232.258
L203.242 208.354
L203.316 213.976
L203.539 189.657
L203.614 189.738
L203.762 252.533
L203.911 221.994
L204.06 157.424
L204.283 172.354
L204.432 177.953
L204.953 262.809
L205.102 246.001
L205.325 198.562
L205.474 200.117
L205.622 182.319
L205.697 186.904
L206.069 254.469
L206.218 227.696
L206.366 271.76
L206.813 215.416
L206.887 211.476
L207.036 242.327
L207.259 205.981
L207.408 186.823
L207.557 155.374
L207.706 173.31
L207.929 200.14
L208.003 197.825
L208.152 209.091
L208.301 270.055
L208.45 227.477
L208.598 240.575
L208.97 183.69
L209.194 161.802
L209.566 267.832
L209.863 191.708
L209.938 185.303
L210.086 205.278
L210.161 200.958
L210.533 286.529
L210.607 286.563
L210.905 237.039
L211.128 192.399
L211.202 187.883
L211.351 166.364
L211.426 168.426
L211.574 189.887
L211.723 162.17
L211.946 214.863
L212.095 193.148
L212.244 207.836
L212.318 199.956
L212.393 196.108
L212.69 287.013
L212.765 311.631
L212.839 302.138
L213.286 187.134
L213.36 199.587
L213.806 152.113
L214.402 252.798
L214.476 252.176
L214.625 230.611
L214.699 243.363
L214.774 240.898
L214.922 221.855
L215.071 270.516
L215.146 263.258
L215.294 224.159
L215.443 206.062
L215.592 188.586
L215.741 198.366
L215.815 199.806
L216.113 293.406
L216.187 288.072
L216.336 227.293
L216.485 142.725
L217.006 207.939
L217.154 199.956
L217.229 200.405
L217.378 240.518
L217.601 198.159
L217.675 202.559
L217.824 230.519
L218.047 156.537
L218.27 198.055
L218.345 187.745
L218.791 246.819
L219.014 262.371
L219.386 298.717
L219.684 243.455
L219.982 108.061
L220.056 108.337
L220.279 164.451
L220.354 156.526
L220.577 226.798
L220.726 216.28
L220.8 216.591
L220.874 220.035
L221.023 240.276
L221.098 237.361
L221.246 212.386
L221.395 230.737
L221.47 227.535
L221.618 208.631
L221.842 261.139
L221.916 248.501
L222.065 226.498
L222.139 231.152
L222.214 224.136
L222.362 190.152
L222.66 247.58
L222.734 265.182
L222.809 259.445
L223.181 143.543
L223.255 149.084
L223.404 173.414
L223.478 170.661
L223.553 163.668
L223.776 249.377
L223.85 217.87
L223.925 201.5
L224.222 288.51
L224.297 287.577
L224.446 231.233
L224.594 209.921
L225.041 241.497
L225.19 208.25
L225.338 158.15
L225.487 166.329
L225.562 164.532
L225.71 202.145
L226.008 308.924
L226.082 314.407
L226.306 163.921
L226.38 170.073
L226.454 191.569
L226.529 186.466
L226.603 173.287
L226.752 200.843
L226.826 197.571
L226.975 180.844
L227.05 187.664
L227.124 185.061
L227.273 138.543
L227.347 147.39
L227.794 292.266
L228.017 254.365
L228.314 314.073
L228.389 315.882
L228.463 311.274
L228.612 251.681
L228.761 167.654
L228.984 197.998
L229.058 191.362
L229.282 218.987
L229.43 204.426
L229.654 162.942
L229.802 152.424
L230.026 184.404
L230.174 152.24
L230.323 208.953
L230.398 197.617
L230.472 187.169
L230.695 289.847
L230.77 286.932
L230.844 292.07
L230.918 288.706
L231.29 177.918
L231.365 159.083
L231.662 222.754
L231.811 273.649
L232.034 214.967
L232.109 219.183
L232.406 234.493
L232.481 229.367
L232.555 214.022
L232.63 220.358
L232.704 219.183
L232.778 208.769
L232.927 156.652
L233.15 228.549
L233.225 231.302
L233.374 210.52
L233.671 156.238
L234.043 241.774
L234.192 231.175
L234.266 231.394
L234.341 229.931
L234.49 210.059
L234.638 257.084
L234.787 239.493
L234.862 245.414
L234.936 243.605
L235.01 231.705
L235.159 244.423
L235.234 235.576
L235.308 205.67
L235.457 235.887
L236.201 166.824
L236.647 208.642
L236.722 210.693
L236.796 200.532
L236.87 172.723
L236.945 183.528
L237.317 294.95
L237.54 243.548
L237.614 250.575
L237.689 237.407
L237.763 242.315
L237.912 275.228
L237.986 266.899
L238.284 199.288
L238.433 164.325
L238.582 127.91
L238.73 180.119
L238.954 241.67
L239.028 253.512
L239.102 243.663
L239.251 174.969
L239.326 181.409
L239.4 192.606
L239.549 263.719
L239.846 202.813
L239.921 200.14
L240.07 210.232
L240.144 205.658
L240.293 168.979
L240.442 208.723
L240.59 244.584
L240.665 240.057
L240.739 256.07
L240.814 238.951
L240.962 129.695
L241.26 291.955
L241.334 278.257
L241.483 210.382
L241.632 250.022
L241.706 247.142
L241.781 215.543
L241.855 219.125
L242.004 278.269
L242.153 239.308
L242.302 248.939
L242.599 169.451
L242.674 189.68
L242.748 187.111
L242.822 180.383
L242.971 199.806
L243.046 200.785
L243.194 181.19
L243.343 205.151
L243.566 169.981
L243.641 172.435
L244.087 281.218
L244.162 279.674
L244.31 237.258
L244.459 251.324
L245.054 183.137
L245.129 188.517
L245.278 222.673
L245.352 218.906
L245.426 222.385
L245.65 271.944
L245.947 188.367
L246.022 190.44
L246.096 190.993
L246.245 168.956
L246.691 292.116
L246.766 279.479
L247.138 165.615
L247.361 123.463
L247.435 118.671
L248.03 252.66
L248.179 228.606
L248.402 271.011
L248.477 261.369
L248.7 222.996
L248.774 225.507
L248.998 256.657
L249.072 257.567
L249.444 198.677
L249.742 159.463
L249.89 172.792
L250.411 278.603
L250.783 201.442
L250.858 200.555
L251.006 191.719
L251.155 213.192
L251.23 205.808
L251.304 206.511
L251.453 230.772
L251.527 228.963
L251.602 218.215
L251.75 232.005
L251.974 140.616
L252.048 149.487
L252.271 192.906
L252.494 299.235
L252.643 273.177
L252.941 198.159
L253.09 166.824
L253.387 196.362
L253.536 254.192
L253.685 230
L253.834 239.216
L253.908 234.493
L253.982 239.781
L254.057 233.698
L254.354 166.329
L254.503 215.704
L254.652 188.09
L254.875 263.719
L255.024 224.367
L255.322 245.022
L255.917 181.847
L256.066 199.737
L256.214 183.287
L256.438 245.898
L256.661 211.626
L256.81 204.84
L256.958 238.755
L257.033 231.164
L257.182 242.983
L257.256 237.235
L257.479 168.84
L257.554 170.638
L257.702 166.606
L258.149 223.319
L258.298 262.705
L258.372 253.639
L258.446 255.863
L258.595 267.544
L258.67 269.756
L258.744 277.267
L258.818 272.417
L259.562 161.099
L259.711 181.87
L259.786 181.374
L260.232 275.216
L260.455 171.882
L260.53 179.301
L260.678 141.365
L260.753 154.014
L260.976 235.127
L261.05 234.758
L261.125 231.048
L261.199 235.368
L261.348 278.234
L261.422 277.762
L261.72 171.467
L261.869 224.735
L261.943 231.832
L262.018 221.36
L262.092 227.708
L262.166 221.36
L262.315 194.461
L262.39 206.626
L262.464 195.359
L262.613 226.256
L262.91 211.534
L263.282 269.076
L263.357 263.788
L263.506 216.464
L263.58 225.623
L263.654 270.792
L263.729 268.511
L263.803 240.668
L263.878 252.879
L263.952 232.638
L264.175 93.7876
L264.398 156.295
L264.622 244.7
L264.77 236.428
L264.845 243.317
L264.919 272.186
L264.994 267.233
L265.217 216.671
L265.291 214.955
L265.366 183.39
L265.44 187.952
L265.589 212.904
L265.812 175.441
L265.886 179.059
L266.11 223.157
L266.407 313.739
L266.482 309.05
L266.705 165.765
L266.854 206.315
L267.077 180.43
L267.226 175.199
L267.3 165.5
L267.523 245.99
L267.598 236.394
L267.746 253.95
L267.895 251.462
L267.97 249.953
L268.118 264.376
L268.267 244.942
L268.49 168.195
L268.565 171.778
L268.714 203.562
L268.937 168.207
L269.011 172.849
L269.086 166.49
L269.234 133.186
L269.383 180.13
L269.458 166.007
L269.532 166.214
L269.755 283.649
L269.83 290.065
L269.978 355.971
L270.053 351.121
L270.425 185.89
L270.499 178.079
L270.574 182.757
L270.648 180.245
L270.797 119.074
L271.318 321.169
L271.392 306.297
L271.615 201.707
L271.913 153.899
L271.987 157.977
L272.434 219.966
L272.508 218.549
L272.731 200.924
L273.029 249.838
L273.103 252.591
L273.401 215.151
L273.475 216.395
L273.55 220.312
L273.624 215.255
L273.847 165.454
L273.922 168.691
L274.07 193.678
L274.219 171.214
L274.442 216.579
L274.517 213.734
L274.74 257.279
L274.814 255.206
L274.889 256.439
L275.038 284.974
L275.261 208.135
L275.335 211.073
L275.484 231.786
L275.558 230.323
L275.633 236.336
L275.707 231.797
L275.856 205.693
L276.005 243.248
L276.154 186.489
L276.526 259.146
L276.749 131.147
L276.823 134.108
L277.195 203.205
L277.344 170.223
L277.567 269.318
L277.939 206.004
L278.014 211.937
L278.162 215.335
L278.237 209.126
L278.46 223.272
L278.609 179.692
L278.683 182.538
L278.981 307.656
L279.055 320.824
L279.353 234.401
L279.576 169.923
L279.65 171.582
L279.725 165.857
L279.799 150.074
L280.022 220.899
L280.097 203.608
L280.246 166.179
L280.543 272.336
L280.618 319.822
L280.99 193.367
L281.064 171.605
L281.213 198.551
L281.436 170.856
L281.585 215.439
L281.659 210.589
L281.734 193.332
L281.808 194.173
L281.882 220.911
L282.031 146.054
L282.106 156.364
L282.329 321.123
L282.403 316.849
L282.552 254.975
L282.626 256.197
L282.924 177.757
L282.998 184.807
L283.147 158.254
L283.519 284.547
L283.594 291.333
L283.817 175.626
L283.891 183.367
L283.966 207.997
L284.04 206.039
L284.114 203.17
L284.189 206.764
L284.338 237.58
L284.412 231.44
L284.635 182.618
L284.71 181.029
L284.858 152.505
L284.933 167.02
L285.082 214.84
L285.23 193.908
L285.454 262.118
L285.528 250.425
L285.602 257.625
L285.751 311.239
L286.123 209.99
L286.346 159.302
L286.495 98.4071
L286.57 106.943
L286.867 260.908
L287.016 286.056
L287.239 176.974
L287.314 186.247
L287.462 239.366
L287.611 235.979
L287.76 264.134
L287.983 212.444
L288.132 179.519
L288.206 175.591
L288.355 151.088
L288.504 212.328
L288.727 275.711
L288.802 278.419
L288.876 275.838
L288.95 280.803
L289.025 272.002
L289.248 207.536
L289.322 225.404
L289.397 213.976
L289.62 139.626
L289.694 138.612
L289.769 144.13
L289.843 142.229
L289.918 134.833
L289.992 141.999
L290.29 262.751
L290.364 266.876
L290.513 246.658
L290.587 248.536
L290.662 251.024
L290.959 198.631
L291.108 224.551
L291.182 220.208
L291.406 150.408
L291.48 157.528
L291.554 162.574
L291.778 277.889
L291.852 265.274
L291.926 255.978
L292.001 258.328
L292.075 264.629
L292.15 253.271
L292.298 297.772
L292.67 199.322
L292.819 180.51
L292.968 209.771
L293.191 170.119
L293.414 244.089
L293.489 228.664
L293.638 241.866
L293.712 228.422
L293.786 230.231
L293.861 241.059
L294.084 179.082
L294.158 188.782
L294.233 192.088
L294.307 184.922
L294.53 120.364
L295.051 242.868
L295.126 246.9
L295.349 308.831
L295.721 202.986
L295.795 208.792
L296.018 235.703
L296.167 210.727
L296.242 216.556
L296.39 240.172
L296.539 217.305
L296.614 217.236
L296.762 194.668
L296.837 208.584
L296.986 260.471
L297.06 255.874
L297.283 200.359
L297.358 204.875
L297.506 228.076
L297.73 163.403
L297.953 201.776
L298.25 137.183
L298.399 224.044
L298.548 313.451
L298.771 191.258
L298.846 203.665
L298.994 268.915
L299.218 146.883
L299.441 255.805
L299.59 212.997
L299.738 148.968
L300.036 292.266
L300.334 231.843
L300.408 213.446
L300.482 214.679
L300.557 210.197
L300.706 163.553
L300.78 175.948
L300.929 287.266
L301.003 279.559
L301.226 140.398
L301.45 273.419
L301.524 262.717
L301.673 193.148
L301.747 199.311
L301.896 189.346
L302.045 233.767
L302.194 152.735
L302.417 272.255
L302.491 244.193
L302.64 147.805
L302.714 151.618
L302.938 295.572
L303.012 282.335
L303.161 137.783
L303.458 255.69
L303.533 232.799
L303.682 155.351
L303.905 283.706
L304.128 151.065
L304.202 164.543
L304.426 335.247
L304.5 302.15
L304.649 193.182
L304.723 210.013
L304.872 312.506
L304.946 306.562
L305.17 107.047
L305.393 234.792
L305.467 253.616
L305.616 153.242
L305.69 157.77
L305.839 270.643
L305.914 264.111
L306.062 131.873
L306.137 142.367
L306.36 271.219
L306.434 288.718
L306.509 261.934
L306.658 137.379
L306.881 221.844
L306.955 196.846
L307.104 132.829
L307.402 292.531
L307.476 270.378
L307.625 193.47
L307.774 285.815
L308.071 165.315
L308.146 169.981
L308.22 186.708
L308.369 295.814
L308.443 270.239
L308.592 176.778
L308.815 306.551
L308.89 306.274
L309.113 175.96
L309.262 233.272
L309.485 197.698
L309.559 178.84
L309.634 187.756
L309.857 255.275
L310.08 139.292
L310.154 154.705
L310.378 233.203
L310.452 211.384
L310.526 156.721
L310.601 160.604
L310.824 275.781
L311.047 225.553
L311.196 242.257
L311.27 242.188
L311.345 226.717
L311.568 137.598
L311.642 148.577
L311.791 221.637
L311.866 217.616
L312.014 158.783
L312.163 252.234
L312.312 227.281
L312.461 244.296
L312.535 232.627
L312.758 303.82
L312.907 233.548
L313.056 167.262
L313.205 320.006
L313.279 306.078
L313.428 188.782
L313.502 200.831
L313.577 196.166
L313.726 176.34
L313.8 186.639
L313.949 158.254
L314.023 171.778
L314.172 276.057
L314.246 275.228
L314.395 199.242
L314.47 207.594
L314.544 221.487
L314.618 210.094
L314.767 174.428
L314.842 175.706
L314.99 223.526
L315.288 179.761
L315.362 176.075
L315.437 191.097
L315.511 249.342
L315.586 235.587
L315.734 167.458
L315.958 242.35
L316.106 192.157
L316.404 286.033
L316.627 216.026
L316.702 220.68
L316.85 266.91
L317.148 130.168
L317.371 228.456
L317.446 232.316
L317.52 206.903
L317.594 208.861
L317.743 276.794
L317.966 197.825
L318.041 230.968
L318.115 243.018
L318.264 180.902
L318.338 191.846
L318.413 233.744
L318.487 233.41
L318.562 204.552
L318.71 252.637
L318.785 244.769
L318.859 242.718
L319.231 150.143
L319.454 178.483
L319.529 173.46
L319.678 213.884
L319.752 181.144
L319.826 184.611
L320.05 300.837
L320.273 151.526
L320.347 153.922
L320.57 251.059
L320.719 197.375
L320.868 235.08
L321.017 181.812
L321.24 274.352
L321.538 191.408
L321.835 242.384
L321.91 215.888
L321.984 221.763
L322.058 289.132
L322.133 277.681
L322.282 156.042
L322.43 268.108
L322.505 246.174
L322.654 175.188
L322.877 212.282
L322.951 210.439
L323.1 218.515
L323.174 210.347
L323.249 213.895
L323.323 216.107
L323.398 223.86
L323.77 182.849
L323.844 186.282
L323.918 190.083
L324.067 209.16
L324.365 191.374
L324.737 246.566
L324.811 230.737
L324.96 143.07
L325.183 254.872
L325.332 224.874
L325.406 231.152
L325.555 256.047
L325.63 258.812
L325.778 268.857
L326.076 174.428
L326.299 264.272
L326.448 229.482
L326.522 241.428
L326.597 237.189
L327.118 166.64
L327.415 245.483
L327.49 272.037
L327.564 264.376
L327.787 166.318
L327.862 166.479
L328.01 198.815
L328.159 150.8
L328.234 151.422
L328.531 242.649
L328.606 230.449
L328.68 230.991
L328.754 233.733
L328.903 162.274
L329.126 261.703
L329.201 244.734
L329.275 235.415
L329.424 286.114
L329.498 267.233
L329.573 237.799
L329.647 242.891
L329.722 250.863
L329.796 243.018
L330.019 195.82
L330.094 217.455
L330.242 289.582
L330.54 195.279
L330.763 168.103
L330.912 202.099
L330.986 242.73
L331.061 237.776
L331.21 197.537
L331.358 235.196
L331.433 229.021
L331.656 206.085
L331.73 193.102
L331.879 149.475
L332.102 203.285
L332.177 193.297
L332.251 175.729
L332.4 195.048
L332.549 255.425
L332.623 259.722
L332.995 231.348
L333.07 226.659
L333.144 236.636
L333.367 191.466
L333.59 200.693
L333.739 211.027
L333.814 196.488
L333.888 199.034
L333.962 212.063
L334.037 205.555
L334.186 213.434
L334.483 307.034
L334.558 292.174
L334.93 187.249
L335.004 202.191
L335.078 191.996
L335.153 193.516
L335.302 230.853
L335.748 176.927
L335.822 179.324
L335.971 169.071
L336.046 173.137
L336.492 252.13
L336.641 231.244
L336.715 236.486
L336.79 234.712
L336.864 233.94
L337.013 193.793
L337.087 202.847
L337.236 223.215
L337.459 189.058
L337.608 232.776
L337.98 187.342
L338.203 236.682
L338.278 240.161
L338.426 262.798
L338.65 215.877
L338.798 238.421
L338.873 230.991
L339.022 198.147
L339.096 201.327
L339.245 197.399
L339.468 183.206
L339.617 220.266
L339.691 213.089
L339.766 210.324
L339.914 250.99
L340.138 217.639
L340.212 222.57
L340.361 250.736
L340.435 244.469
L340.882 141.515
L340.956 150.524
L341.402 245.644
L341.477 240.702
L341.7 220.439
L341.849 273.983
L341.923 272.451
L342.072 246.946
L342.146 264.468
L342.221 252.268
L342.37 152.033
L342.444 167.02
L342.593 206.303
L342.816 192.295
L342.965 230.622
L343.114 199.553
L343.188 200.797
L343.262 232.604
L343.337 231.993
L343.486 188.678
L343.709 231.959
L343.783 239.124
L343.858 227.88
L344.081 283.672
L344.155 269.364
L344.527 169.624
L344.676 148.462
L344.75 156.099
L344.974 210.704
L345.122 200.981
L345.271 235.449
L345.346 230.3
L345.42 213.78
L345.569 254.676
L345.643 254.158
L345.866 181.8
L345.941 192.595
L346.09 165.373
L346.536 240.967
L346.61 239.976
L346.685 274.11
L346.759 247.499
L346.834 275.447
L346.982 196.984
L347.057 195.544
L347.429 251.462
L347.503 253.501
L347.801 188.033
L347.875 207.674
L347.95 202.007
L348.098 186.063
L348.247 209.587
L348.322 189.093
L348.396 190.06
L348.47 194.68
L348.619 244.815
L348.694 239.493
L348.768 250.206
L348.917 193.401
L348.991 212.927
L349.066 234.401
L349.14 229.989
L349.289 175.683
L349.363 179.347
L349.438 179.831
L349.512 190.014
L349.735 298.521
L349.81 293.199
L350.033 219.022
L350.107 206.108
L350.256 160.108
L350.405 167.55
L350.554 234.62
L350.628 228.007
L350.777 172.93
L350.926 204.138
L351.074 193.355
L351.446 311.527
L351.595 257.487
L351.744 286.609
L352.042 167.135
L352.265 189.127
L352.339 203.17
L352.414 197.491
L352.488 191.961
L352.562 192.906
L352.637 193.862
L352.786 169.589
L352.86 170.914
L353.009 180.867
L353.083 186.973
L353.306 171.225
L353.53 243.847
L353.902 309.719
L353.976 304.834
L354.125 250.817
L354.199 257.268
L354.274 253.294
L354.497 161.56
L354.571 186.593
L354.794 210.082
L354.943 175.303
L355.092 128.302
L355.241 185.061
L355.39 207.006
L355.464 192.191
L355.91 288.072
L355.985 268.753
L356.059 263.615
L356.134 271.207
L356.282 226.936
L356.357 211.061
L356.431 217.271
L356.506 229.747
L356.654 208.734
L356.729 191.846
L356.878 226.579
L357.175 122.069
L357.25 126.873
L357.547 225.047
L357.696 253.247
L357.845 233.26
L357.919 229.24
L357.994 230.242
L358.217 238.467
L358.366 230.979
L358.44 215.681
L358.589 245.068
L358.886 199.749
L358.961 193.401
L359.035 205.347
L359.184 272.843
L359.258 265.24
L359.333 270.804
L359.63 139.234
L359.705 159.244
L359.854 219.102
L359.928 222.408
L360.077 214.448
L360.151 196.73
L360.3 242.511
L360.374 233.652
L360.449 192.111
L360.598 230.449
L360.672 225.588
L360.746 213.388
L360.821 217.904
L360.97 242.73
L361.044 243.525
L361.118 255.194
L361.416 219.667
L361.565 186.892
L361.639 186.224
L361.714 182.872
L361.862 158.588
L362.011 174.209
L362.086 165.454
L362.16 174.739
L362.383 249.515
L362.532 213.884
L362.606 222.501
L362.755 255.505
L362.904 206.545
L363.202 278.96
L363.35 223.192
L363.425 224.113
L363.574 258.236
L363.648 253.524
L363.946 171.317
L364.02 171.72
L364.094 166.168
L364.169 142.967
L364.318 202.847
L364.392 225.404
L364.466 222.961
L364.541 178.46
L364.615 181.363
L364.764 221.521
L364.913 175.695
L365.062 262.59
L365.21 237.511
L365.508 268.454
L366.326 153.772
L366.401 155.523
L366.475 160.304
L366.698 237.649
L366.773 230.565
L366.847 222.593
L366.922 223.802
L367.07 242.35
L367.219 224.471
L367.591 256.473
L367.666 243.479
L367.814 191.155
L367.963 205.532
L368.112 197.548
L368.41 237.304
L368.707 213.826
L369.005 230.565
L369.154 198.988
L369.302 230.622
L369.377 229.689
L369.526 187.86
L369.823 211.683
L369.972 193.585
L370.046 196.028
L370.195 206.43
L370.344 210.186
L371.014 272.359
L371.311 213.826
L371.683 133.175
L371.758 136.584
L372.055 186.489
L372.13 187.676
L372.353 219.909
L372.427 219.448
L372.576 287.957
L372.65 283.257
L373.022 236.06
L373.097 241.359
L373.246 290.215
L373.394 264.917
L373.469 246.036
L373.543 255.54
L373.618 239.896
L373.766 178.552
L373.915 203.631
L374.064 127.703
L374.138 143.335
L374.287 117.542
L374.808 237.753
L374.882 233.122
L375.106 250.69
L375.254 239.596
L375.329 241.589
L375.478 253.328
L375.552 244.919
L375.626 218.227
L375.701 219.575
L375.85 239.711
L375.924 232.857
L375.998 212.651
L376.073 224.217
L376.147 215.957
L376.296 139.522
L376.742 250.632
L376.891 225.058
L376.966 215.773
L377.114 231.82
L377.189 209.679
L377.263 216.038
L377.412 266.634
L377.561 216.257
L377.71 247.545
L377.933 196.627
L378.082 209.114
L378.23 182.664
L378.454 236.636
L378.528 251.957
L378.9 196.569
L379.049 208.55
L379.198 190.798
L379.272 199.311
L379.421 175.073
L379.718 221.521
L379.867 231.048
L379.942 224.079
L380.165 250.229
L380.314 260.597
L380.537 178.045
L380.76 200.14
L380.834 200.728
L381.281 268.293
L381.355 260.079
L381.578 210.474
L381.727 225.173
L381.802 223.664
L381.95 206.119
L382.025 207.951
L382.099 203.17
L382.248 157.597
L382.322 158.76
L382.471 179.231
L382.546 173.356
L382.62 180.522
L382.694 203.735
L382.769 201.2
L382.843 184.945
L382.992 230.288
L383.215 275.677
L383.364 291.989
L383.587 239.216
L383.81 182.146
L383.885 181.835
L383.959 182.111
L384.108 163.944
L384.257 209.829
L384.406 190.129
L384.554 251.37
L384.629 239.354
L384.703 225.484
L384.778 236.82
L384.852 235.23
L385.075 211.487
L385.15 218.388
L385.298 241.543
L385.447 222.074
L385.596 246.969
L385.819 199.403
L385.894 203.205
L385.968 202.951
L386.117 177.135
L386.266 198.931
L386.414 166.871
L386.638 273.235
L386.786 258.685
L386.935 285.089
L387.084 226.728
L387.158 189.887
L387.233 192.503
L387.307 205.405
L387.456 169.244
L387.605 207.709
L387.754 157.781
L387.977 198.182
L388.051 197.79
L388.126 196.454
L388.2 191.846
L388.349 229.493
L388.423 225.473
L388.572 186.282
L388.721 212.927
L389.018 305.998
L389.167 233.053
L389.242 234.343
L389.465 277.232
L389.539 275.504
L389.837 156.18
L390.134 237.027
L390.358 153.576
L390.432 156.433
L390.506 145.236
L390.73 207.467
L390.878 198.297
L391.027 212.017
L391.325 267.21
L391.548 203.228
L391.622 206.384
L391.846 278.603
L392.218 173.448
L392.441 237.834
L392.59 212.593
L392.738 165.465
L392.962 280.147
L393.185 203.953
L393.334 141.838
L393.482 183.298
L393.631 239.251
L393.929 167.976
L394.003 179.635
L394.226 316.273
L394.301 292.3
L394.524 141.63
L394.673 254.376
L394.747 306.504
L394.822 302.53
L395.119 168.622
L395.194 172.124
L395.342 217.305
L395.417 215.312
L395.566 159.048
L395.64 160.938
L395.714 179.923
L395.789 177.722
L395.863 159.106
L396.086 236.06
L396.235 235.806
L396.384 200.486
L396.607 304.776
L396.756 264.053
L396.905 202.767
L397.054 215.347
L397.128 232.857
L397.202 225.807
L397.351 146.088
L397.426 158.138
L397.649 227.65
L397.798 165.695
L397.872 169.797
L398.095 287.543
L398.17 277.175
L398.393 174.278
L398.616 256.922
L398.839 146.803
L399.062 245.61
L399.137 228.065
L399.286 152.551
L399.36 167.873
L399.583 238.583
L399.732 221.36
L399.806 230.668
L400.03 329.233
L400.104 327.206
L400.327 180.222
L400.402 204.241
L400.55 222.305
L400.625 217.029
L400.774 163.069
L400.848 169.301
L400.997 215.266
L401.071 209.955
L401.294 152.263
L401.518 261.911
L401.592 254.296
L401.815 130.133
L402.113 282.969
L402.336 193.597
L402.41 199.334
L402.559 260.505
L402.634 259.572
L402.857 190.026
L403.08 258.247
L403.154 248.029
L403.378 173.045
L403.452 164.279
L403.675 223.514
L403.898 126.378
L404.196 303.475
L404.27 279.513
L404.419 163.311
L404.494 189.369
L404.717 319.292
L404.94 229.24
L405.089 268.5
L405.163 257.268
L405.238 242.004
L405.386 118.936
L405.461 127.541
L405.61 170.442
L405.758 177.515
L405.907 145.363
L405.982 145.57
L406.056 157.044
L406.279 258.19
L406.354 243.467
L406.502 166.306
L406.651 233.71
L406.726 282.958
L406.8 268.707
L407.023 192.376
L407.172 237.592
L407.321 333.991
L407.767 199.656
L407.842 182.78
L407.916 188.252
L407.99 188.828
L408.139 248.351
L408.288 202.513
L408.437 268.039
L408.511 257.786
L408.734 144.049
L408.809 148.208
L409.106 260.183
L409.181 240.322
L409.33 224.816
L409.404 229.355
L409.478 245.495
L409.553 238.594
L409.627 245.253
L409.702 244.366
L410.222 106.897
L410.371 155.189
L410.669 249.077
L410.743 257.913
L410.818 255.24
L410.892 249.411
L411.041 261.335
L411.338 308.659
L411.636 247.706
L411.785 265.631
L411.859 254.687
L412.231 108.003
L412.38 126.815
L412.603 194.507
L412.826 214.494
L412.901 203.274
L413.124 260.229
L413.273 217.8
L413.347 223.031
L413.496 298.763
L413.57 297.991
L413.868 163.633
L413.942 169.416
L414.314 249.527
L414.538 261.761
L414.612 252.13
L414.761 221.383
L414.91 235.921
L414.984 238.271
L415.058 233.122
L415.207 171.467
L415.282 172.619
L415.356 182.768
L415.505 163.449
L415.654 138.301
L415.728 144.061
L415.951 185.994
L416.026 188.735
L416.323 220.991
L416.546 283.902
L416.695 252.568
L416.77 254.791
L416.844 261.381
L416.918 260.494
L417.067 240.633
L417.142 254.814
L417.216 253.766
L417.29 241.128
L417.365 244.953
L417.514 323.047
L417.886 230.668
L418.034 136.895
L418.109 141.285
L418.183 168.933
L418.258 162.862
L418.406 106.897
L418.481 137.944
L418.555 131.723
L418.704 90.8039
L419.225 217.916
L419.299 213.711
L419.448 251.059
L419.597 283.879
L419.82 259.468
L419.894 261.876
L420.043 248.766
L420.192 279.398
L420.266 274.686
L420.415 230.507
L420.564 267.359
L420.638 264.134
L420.713 244.25
L420.787 247.591
L420.862 256.369
L420.936 252.245
L421.457 184.531
L421.531 194.611
L421.606 211.165
L421.754 199.679
L421.829 203.009
L421.978 158.91
L422.052 130.663
L422.126 143.543
L422.275 177.146
L422.35 162.827
L422.424 166.41
L422.573 213.607
L422.722 206.453
L422.87 220.012
L423.019 162.689
L423.094 169.37
L423.614 287.358
L423.689 284.351
L423.763 284.34
L423.838 296.056
L423.912 282.981
L424.061 221.072
L424.21 260.125
L424.507 158.173
L424.582 163.011
L424.656 163.737
L424.805 155.155
L424.879 158.737
L424.954 168.299
L425.102 229.793
L425.177 227.627
L425.251 219.367
L425.326 224.367
L425.549 295.975
L425.623 298.314
L425.772 256.381
L425.846 258.017
L425.995 289.812
L426.218 177.469
L426.293 180.084
L426.442 204.575
L426.739 164.912
L426.814 162.839
L427.037 150.086
L427.111 150.558
L427.26 192.065
L427.334 224.044
L427.409 214.702
L427.483 207.26
L427.706 270.931
L427.781 267.624
L428.004 218.411
L428.078 221.671
L428.227 249.653
L428.302 238.007
L428.376 239.331
L428.525 242.903
L428.599 239.055
L428.748 188.021
L428.822 188.471
L428.971 202.387
L429.046 200.037
L429.12 206.522
L429.269 247.199
L429.343 245.414
L429.418 255.298
L429.492 280.711
L429.566 280.4
L429.864 176.432
L429.938 180.741
L430.162 161.41
L430.236 169.831
L430.385 206.062
L430.459 201.419
L430.608 184.922
L430.757 229.459
L430.98 167.562
L431.203 211.361
L431.501 244.55
L431.65 279.144
L431.947 256.738
L432.096 221.291
L432.17 232.016
L432.245 228.433
L432.319 203.723
L432.394 204.241
L432.542 230.219
L432.691 211.165
L432.766 211.764
L432.989 160.615
L433.212 221.591
L433.286 219.828
L433.435 210.865
L433.584 238.721
L433.733 186.892
L433.807 193.159
L433.956 237.5
L434.179 149.256
L434.477 219.471
L434.551 229.413
L434.626 228.618
L434.7 227.42
L434.923 264.71
L434.998 259.768
L435.072 251.174
L435.146 257.844
L435.221 250.943
L435.37 227.535
L435.518 254.63
L435.742 188.321
L435.89 203.516
L435.965 194.161
L436.114 212.985
L436.411 174.393
L436.486 187.537
L436.634 274.041
L437.006 172.78
L437.081 190.579
L437.23 250.275
L437.453 179.381
L437.527 196.097
L437.676 177.342
L437.899 220.68
L438.048 195.751
L438.197 247.292
L438.271 269.514
L438.346 266.415
L438.494 236.175
L438.643 240.449
L438.941 221.015
L439.015 228.007
L439.09 211.476
L439.164 211.522
L439.238 216.51
L439.462 209.241
L439.536 215.784
L439.685 201.868
L439.759 209.898
L439.834 209.783
L439.908 205.969
L440.057 175.234
L440.131 174.024
L440.578 229.436
L440.652 232.327
L440.801 263.892
L440.875 253.916
L441.024 202.479
L441.098 219.333
L441.173 218.008
L441.247 218.135
L441.322 223.975
L441.47 250.494
L442.066 164.371
L442.289 202.248
L442.363 198.239
L442.512 230.703
L442.661 258.547
L442.735 260.447
L442.81 253.432
L442.958 264.802
L443.182 211.153
L443.33 221.003
L443.479 215.335
L443.554 218.411
L443.628 215.807
L443.851 134.303
L444 190.705
L444.149 151.111
L444.446 265.424
L444.521 253.847
L444.595 238.997
L444.818 272.82
L444.893 289.87
L444.967 280.412
L445.116 233.329
L445.19 246.762
L445.265 245.46
L445.414 194
L445.562 240.979
L445.637 227.765
L445.934 126.527
L446.009 140.916
L446.158 168.449
L446.232 171.755
L446.455 203.596
L446.678 247.752
L446.827 246.923
L447.05 230.449
L447.199 253.651
L447.274 244.78
L447.422 214.045
L447.497 229.159
L447.571 229.009
L447.72 196.638
L447.869 221.072
L448.018 194.737
L448.092 196.477
L448.241 201.384
L448.315 200.014
L448.464 180.925
L448.613 219.148
L448.762 279.559
L448.836 278.073
L448.91 274.698
L448.985 265.597
L449.208 178.241
L449.282 183.425
L449.431 208.101
L449.654 168.391
L449.729 172.296
L449.878 199.276
L449.878 199.276" style="fill:none;stroke:#808080;stroke-linecap:square;"/>
   </g>
  </g>
 </g>
 <defs>
  <clipPath id="p7ff5b81e1d">
   <rect height="345.6" width="446.4" x="72.0" y="43.2"/>
  </clipPath>
 </defs>
</svg>
