<?xml version="1.0" encoding="utf-8" standalone="no"?>
<!DOCTYPE svg PUBLIC "-//W3C//DTD SVG 1.1//EN"
  "http://www.w3.org/Graphics/SVG/1.1/DTD/svg11.dtd">
<!-- Created with matplotlib (http://matplotlib.org/) -->
<svg height="432pt" version="1.1" viewBox="0 0 576 432" width="576pt" xmlns="http://www.w3.org/2000/svg" xmlns:xlink="http://www.w3.org/1999/xlink">
 <defs>
  <style type="text/css">
*{stroke-linecap:butt;stroke-linejoin:round;}
  </style>
 </defs>
 <g id="figure_1">
  <g id="patch_1">
   <path d="
M0 432
L576 432
L576 0
L0 0
z
" style="fill:#ffffff;"/>
  </g>
  <g id="axes_1">
   <g id="line2d_1">
    <path clip-path="url(#p7ff5b81e1d)" d="
M72 245.997
L72.1488 208.703
L72.4464 77.0602
L72.5208 78.1123
L72.744 145.543
L72.9672 199.917
L73.4136 230.852
L73.7112 170.733
L73.9344 135.697
L74.0832 159.29
L74.3808 230.03
L74.4552 230.821
L74.8272 177.131
L75.1992 206.906
L75.5712 257.271
L75.6456 252.233
L75.7944 239.999
L75.9432 245.436
L76.0176 242.149
L76.2408 209.717
L76.3152 214.294
L76.464 224.508
L76.6128 197.636
L76.836 144.867
L76.9104 144.974
L76.9848 145.842
L77.0592 142.256
L77.3568 107.45
L77.4312 107.911
L77.5056 106.283
L77.6544 98.9943
L77.8032 141.803
L78.1008 251.104
L78.324 278.829
L78.3984 278.983
L78.4728 276.594
L78.696 248.647
L78.9192 220.492
L79.068 236.781
L79.1424 245.045
L79.2168 243.217
L79.5144 195.839
L79.6632 213.833
L79.7376 213.004
L79.9608 168.183
L80.0352 168.575
L80.184 181.14
L80.3328 157.17
L80.4816 137.771
L80.556 136.772
L80.6304 139.191
L81.0024 173.099
L81.3 215.454
L81.3744 218.28
L81.672 210.715
L81.8208 203.435
L81.9696 193.765
L82.2672 203.388
L82.5648 190.102
L82.9368 214.056
L83.2344 206.844
L83.3832 207.705
L83.4576 209.195
L83.532 209.118
L83.6808 204.786
L83.7552 200.685
L83.8296 201.799
L84.0528 214.14
L84.1272 212.604
L84.8712 151.034
L85.02 155.404
L85.0944 159.19
L85.2432 193.143
L85.5408 256.334
L85.6152 262.317
L85.6896 259.514
L85.9128 214.125
L86.2104 157.677
L86.3592 151.74
L86.508 153.822
L86.6568 162.677
L87.1776 222.059
L87.252 220.377
L87.3264 219.132
L87.5496 225.66
L87.624 222.711
L88.0704 175.395
L88.1448 174.381
L88.4424 186.638
L88.5168 188.067
L88.6656 202.167
L88.8888 230.983
L88.9632 230.729
L89.2608 221.198
L89.4096 216.045
L90.0048 165.142
L90.0792 166.033
L90.3024 155.289
L90.8232 196.354
L91.0464 189.326
L91.1208 190.048
L91.344 201.852
L91.716 240.974
L91.9392 237.273
L92.088 223.195
L92.2368 209.156
L92.3856 215.6
L92.46 214.885
L92.6832 194.211
L92.9064 179.312
L92.9808 182.937
L93.0552 180.64
L93.2784 168.598
L93.3528 170.718
L93.4272 170.418
L93.5016 171.409
L93.7992 187.222
L94.0224 205.884
L94.2456 189.795
L94.32 190.064
L94.5432 194.38
L94.8408 163.422
L94.9152 163.568
L95.1384 181.439
L95.5104 230.345
L95.5848 231.344
L95.808 244.638
L95.9568 256.012
L96.0312 254.368
L96.2544 239.707
L96.4032 225.054
L96.7008 176.708
L96.7752 175.687
L96.8496 171.447
L97.1472 134.146
L97.3704 157.224
L97.5192 174.028
L97.5936 173.797
L97.7424 166.924
L98.04 173.099
L98.1888 191.316
L98.5608 236.274
L98.8584 252.379
L99.0072 257.317
L99.156 234.577
L99.528 170.718
L99.6768 163.045
L99.7512 164.512
L99.8256 163.714
L100.049 151.241
L100.123 154.26
L100.272 169.758
L100.718 260.182
L100.793 258.239
L100.942 238.432
L101.537 120.514
L101.611 122.341
L101.76 150.097
L102.058 230.253
L102.206 231.636
L102.355 237.925
L102.504 230.368
L102.727 209.909
L102.95 173.429
L103.025 173.621
L103.248 202.728
L103.546 251.696
L103.694 237.518
L104.364 160.073
L104.662 135.436
L104.736 135.712
L105.108 161.049
L105.257 190.839
L105.629 276.118
L105.778 261.641
L106.67 129.338
L106.745 132.364
L106.968 173.966
L107.191 213.626
L107.266 215.131
L107.489 201.653
L107.563 203.803
L107.861 233.463
L107.935 231.305
L108.158 212.382
L108.382 229.416
L108.53 239.292
L108.605 237.833
L108.754 218.211
L109.051 174.965
L109.126 173.321
L109.274 176.171
L109.795 142.048
L109.87 146.91
L110.242 209.916
L110.465 205.439
L110.614 208.304
L110.688 208.235
L110.837 204.648
L110.986 205.846
L111.209 197.014
L111.358 213.849
L111.581 241.535
L111.73 218.057
L111.953 174.289
L112.027 173.483
L112.176 187.445
L112.325 201.998
L112.474 188.428
L112.771 150.604
L112.846 155.45
L113.143 230.23
L113.218 223.833
L113.441 178.413
L113.515 180.118
L113.887 249.699
L113.962 245.145
L114.334 171.017
L114.408 176.324
L114.557 192.921
L114.631 188.428
L115.003 142.079
L115.152 171.54
L115.45 261.741
L115.524 258.646
L115.896 205.178
L116.045 207.751
L116.194 204.809
L116.342 191.024
L116.566 167.116
L116.714 182.261
L116.938 207.958
L117.235 179.004
L117.31 180.372
L117.458 196.246
L117.607 213.065
L117.682 212.159
L117.83 183.766
L118.054 135.912
L118.202 176.378
L118.426 238.732
L118.5 234.999
L118.798 197.79
L118.946 211.982
L119.17 238.486
L119.542 196.453
L119.69 210.37
L119.914 235.767
L120.062 200.378
L120.36 111.758
L120.434 112.096
L120.583 139.46
L120.806 182.868
L120.955 170.656
L121.104 158.076
L121.253 186.546
L121.55 241.727
L121.699 232.073
L121.848 221.536
L121.922 226.321
L122.22 285.841
L122.294 283.483
L122.89 182.937
L123.113 166.747
L123.485 108.986
L123.634 143.269
L123.857 196.292
L124.154 181.931
L124.303 196.63
L124.601 246.02
L124.675 243.278
L124.973 200.524
L125.047 201.1
L125.122 201.829
L125.27 193.481
L125.568 164.167
L125.642 165.25
L125.791 183.121
L126.163 233.855
L126.461 214.501
L126.535 215.999
L126.758 224.347
L126.833 225.883
L126.982 219.194
L127.13 194.464
L127.428 100.86
L127.502 104.171
L127.651 154.728
L127.949 262.701
L128.023 264.644
L128.098 263.776
L128.172 260.597
L128.395 208.188
L128.767 96.8439
L128.842 103.986
L128.99 163.998
L129.214 288.936
L129.288 291.616
L129.437 246.588
L129.734 152.946
L129.958 177.177
L130.032 177.015
L130.255 163.068
L130.404 182.937
L130.776 258.7
L130.85 252.11
L131.148 162.569
L131.222 163.322
L131.594 247.441
L131.743 218.879
L131.966 188.689
L132.264 220.077
L132.413 182.468
L132.636 107.665
L132.71 106.436
L133.157 217.504
L133.231 209.64
L133.454 161.563
L133.529 162.316
L133.678 201.269
L133.901 279.259
L133.975 275.35
L134.273 193.681
L134.347 201.238
L134.57 253.823
L134.645 251.849
L134.794 204.571
L135.017 114.9
L135.091 117.511
L135.463 215.792
L135.835 147.839
L135.984 181.078
L136.207 242.94
L136.282 240.076
L136.579 168.79
L136.654 175.387
L136.951 266.894
L137.026 264.291
L137.174 200.278
L137.398 123.125
L137.621 211.337
L137.77 252.794
L137.844 247.917
L138.216 148.43
L138.514 212.251
L138.588 209.655
L138.886 155.166
L138.96 162.969
L139.332 253.762
L139.481 220.722
L139.704 163.422
L139.853 197.321
L140.076 269.306
L140.15 258.953
L140.522 110.76
L140.597 121.819
L140.894 201.146
L140.969 198.258
L141.192 152.585
L141.266 155.381
L141.638 289.704
L141.713 284.482
L142.085 161.287
L142.159 175.049
L142.457 265.358
L142.531 261.411
L142.754 197.851
L142.903 166.279
L142.978 169.543
L143.201 196.338
L143.35 157.447
L143.573 96.4752
L143.647 103.41
L144.019 216.598
L144.094 214.271
L144.391 167.592
L144.54 198.35
L144.838 274.068
L144.986 256.941
L145.284 206.545
L145.358 213.042
L145.582 249.323
L145.73 188.213
L145.954 103.587
L146.102 151.495
L146.326 230.253
L146.4 236.228
L146.549 211.053
L146.772 168.598
L146.921 193.266
L147.144 227.25
L147.218 223.764
L147.59 172.822
L147.665 174.949
L147.888 199.533
L147.962 196.354
L148.26 150.619
L148.409 186.615
L148.632 255.451
L148.706 255.82
L148.855 231.144
L149.153 169.42
L149.45 225.492
L149.525 217.927
L149.822 154.874
L150.046 185.678
L150.269 221.383
L150.418 187.122
L150.641 139.644
L150.79 180.571
L151.013 270.373
L151.087 269.982
L151.385 159.973
L151.459 163.959
L151.831 240.844
L152.054 195.732
L152.203 177.538
L152.575 220.791
L152.724 199.241
L152.947 151.848
L153.022 156.249
L153.394 221.82
L153.468 212.466
L153.766 154.943
L153.84 157.255
L154.138 206.284
L154.212 205.524
L154.51 160.68
L154.658 192.314
L154.882 246.788
L154.956 245.168
L155.105 221.851
L155.254 197.851
L155.328 198.658
L155.7 230.76
L155.774 227.427
L156.146 180.172
L156.221 181.408
L156.444 201.215
L156.518 207.636
L156.593 204.955
L156.89 145.773
L157.188 193.681
L157.411 195.524
L157.634 213.004
L157.709 212.359
L158.006 191.93
L158.081 193.873
L158.155 193.696
L158.304 183.82
L158.378 185.095
L158.527 194.58
L158.899 179.98
L158.974 179.911
L159.048 182.046
L159.197 200.439
L159.42 223.088
L159.494 221.805
L159.569 222.404
L159.941 229.186
L160.015 228.003
L160.462 208.02
L160.759 165.28
L160.834 165.296
L161.057 175.372
L161.131 174.373
L161.429 163.813
L161.503 161.586
L161.578 162.016
L162.173 212.443
L162.247 210.316
L162.396 202.252
L162.619 224.839
L162.694 221.951
L162.842 211.345
L162.917 212.643
L163.14 239.377
L163.214 235.698
L163.661 177.453
L163.735 177.676
L163.958 173.774
L164.107 177.584
L164.182 175.28
L164.33 162.339
L164.405 163.314
L164.554 175.403
L164.926 228.302
L165 228.072
L165.298 211.199
L165.372 211.821
L165.521 217.888
L165.595 216.706
L165.967 176.892
L166.042 179.051
L166.265 205.47
L166.488 233.494
L166.711 188.09
L166.934 162.946
L167.158 144.429
L167.232 146.94
L167.381 151.794
L167.604 184.526
L167.976 255.282
L168.05 254.445
L168.348 208.98
L168.422 211.806
L168.571 234.692
L168.72 255.075
L168.794 251.527
L169.018 161.817
L169.166 127.449
L169.241 130.252
L169.613 211.522
L169.687 209.794
L170.059 162.4
L170.134 161.41
L170.208 161.878
L170.431 189.68
L170.506 187.737
L170.58 184.396
L170.729 195.954
L171.175 257.102
L171.25 248.67
L171.622 183.397
L171.77 187.675
L171.845 187.491
L172.291 172.93
L172.366 174.504
L172.663 223.057
L172.738 220.423
L173.11 182.407
L173.184 182.699
L173.556 217.934
L173.63 216.491
L173.779 192.805
L174.002 164.389
L174.151 178.905
L174.449 212.697
L174.746 165.227
L174.821 172.085
L175.193 239.392
L175.267 234.285
L175.565 158.437
L175.639 162.638
L176.011 247.18
L176.383 161.44
L176.458 163.499
L176.681 204.218
L176.83 229.078
L176.978 198.143
L177.202 158.499
L177.276 164.09
L177.648 238.87
L177.722 236.428
L178.02 163.445
L178.094 170.933
L178.392 248.77
L178.541 219.655
L178.838 149.997
L178.987 171.862
L179.21 198.619
L179.359 187.952
L179.582 152.547
L179.657 154.882
L179.806 202.521
L180.029 288.03
L180.103 276.11
L180.401 141.564
L180.475 147.156
L180.773 235.952
L180.847 234.838
L181.219 136.596
L181.294 143.208
L181.666 250.044
L181.74 238.693
L182.038 162.746
L182.112 169.589
L182.41 237.296
L182.484 231.313
L182.856 142.54
L183.005 184.273
L183.228 254.906
L183.302 257.233
L183.451 223.019
L183.674 150.903
L183.749 154.559
L184.046 224.24
L184.121 221.92
L184.418 132.748
L184.493 138.577
L184.865 256.342
L184.939 250.014
L185.237 144.107
L185.311 149.314
L185.683 269.029
L186.055 138.638
L186.13 153.169
L186.427 257.548
L186.502 255.513
L186.874 127.303
L187.022 190.609
L187.246 276.041
L187.32 263.461
L187.618 100.4
L187.692 101.46
L188.064 281.978
L188.138 268.284
L188.436 127.157
L188.51 128.34
L188.882 251.204
L188.957 244.86
L189.254 118.332
L189.329 121.266
L189.701 270.289
L189.775 262.094
L190.073 123.094
L190.519 275.25
L190.594 265.412
L190.966 128.793
L191.189 197.275
L191.338 223.894
L191.412 218.618
L191.71 137.041
L191.858 180.287
L192.082 259.452
L192.156 258.462
L192.528 143.684
L192.602 158.361
L192.9 257.602
L192.974 255.52
L193.198 178.075
L193.346 139.852
L193.421 149.644
L193.718 259.015
L193.793 252.149
L194.165 134.345
L194.239 137.916
L194.611 227.335
L194.686 217.09
L194.983 170.818
L195.132 202.728
L195.355 261.211
L195.43 258.884
L195.578 208.066
L195.802 116.42
L195.95 143.892
L196.248 210.946
L196.546 154.19
L196.62 162.116
L196.992 268.569
L197.066 261.027
L197.438 154.789
L197.81 259.644
L197.885 259.038
L198.034 222.243
L198.257 159.213
L198.331 164.597
L198.629 217.266
L198.703 211.522
L198.926 146.956
L199.075 111.013
L199.15 120.26
L199.522 214.171
L199.745 191.223
L199.819 182.046
L199.894 185.172
L200.266 255.812
L200.34 253.178
L200.489 219.324
L200.712 152.785
L200.786 159.328
L201.084 212.666
L201.233 198.65
L201.53 134.192
L201.977 237.58
L202.274 166.947
L202.349 172.369
L202.721 250.974
L202.795 252.924
L202.87 245.106
L203.167 148.676
L203.242 155.58
L203.614 243.478
L203.986 148.446
L204.06 151.211
L204.358 203.534
L204.432 200.816
L204.581 172.092
L204.804 126.343
L204.953 178.797
L205.176 261.595
L205.25 268.023
L205.325 263.008
L205.474 220.023
L205.697 156.172
L206.143 232.995
L206.292 212.174
L206.515 176.716
L206.813 213.18
L206.887 211.575
L207.036 193.128
L207.334 125.398
L207.482 152.501
L207.706 200.455
L207.78 202.329
L208.078 177.852
L208.226 205.424
L208.524 261.426
L208.598 262.425
L208.673 257.003
L208.97 191.254
L209.045 200.547
L209.268 231.351
L209.714 171.701
L209.789 172.308
L209.938 175.702
L210.086 174.204
L210.235 182
L210.31 181.477
L210.607 154.667
L210.682 155.634
L210.83 181.37
L211.054 222.996
L211.128 223.94
L211.277 210.6
L211.426 196.369
L211.5 197.621
L211.649 207.874
L211.723 205.508
L212.095 166.724
L212.17 167.738
L212.69 231.459
L212.765 232.511
L212.914 223.541
L213.062 216.921
L213.36 235.683
L213.509 217.22
L213.881 147.025
L213.955 149.598
L214.327 184.373
L214.402 180.656
L214.699 139.752
L214.774 144.383
L215.071 200.816
L215.146 197.421
L215.294 188.896
L215.443 219.747
L215.815 295.272
L215.964 307.813
L216.113 274.743
L216.485 165.895
L216.708 159.313
L216.931 132.54
L217.154 95.0851
L217.229 97.0973
L217.75 187.537
L217.824 184.864
L217.898 185.187
L218.345 241.919
L218.642 286.455
L218.717 283.345
L219.312 208.611
L219.758 124.722
L219.907 116.32
L219.982 121.259
L220.13 158.952
L220.428 248.393
L220.502 249.868
L220.651 240.26
L221.098 187.56
L221.321 202.114
L221.767 154.943
L221.99 175.234
L222.139 183.236
L222.214 183.275
L222.437 174.711
L222.511 178.743
L222.958 242.725
L223.478 206.092
L223.702 222.204
L223.925 205.347
L224.222 169.259
L224.297 169.566
L224.52 187.568
L224.669 172.738
L224.892 156.387
L224.966 157.562
L225.115 171.801
L225.338 218.772
L225.413 217.22
L225.636 207.321
L225.859 200.816
L226.082 243.493
L226.157 254.261
L226.231 250.421
L226.678 174.934
L226.752 180.195
L226.901 188.628
L226.975 188.274
L227.422 168.053
L227.496 169.627
L227.57 172.116
L227.719 190.202
L227.942 212.889
L228.166 190.532
L228.314 174.972
L228.463 197.191
L228.761 244.991
L228.835 242.311
L229.207 175.472
L229.282 184.926
L229.505 218.871
L229.654 206.046
L230.026 150.204
L230.1 150.573
L230.249 179.941
L230.472 226.267
L230.546 222.911
L230.844 172.338
L230.918 173.805
L231.067 207.397
L231.29 245.36
L231.365 245.375
L231.514 222.327
L231.811 158.315
L231.96 185.402
L232.109 225.73
L232.183 222.673
L232.481 166.11
L232.63 160.665
L232.778 183.597
L233.002 210.677
L233.076 212.628
L233.225 203.081
L233.522 173.099
L233.82 240.529
L233.894 234.777
L234.266 182.722
L234.713 195.117
L234.787 194.28
L234.936 182.86
L235.159 159.336
L235.308 185.517
L235.531 228.041
L235.68 218.58
L235.903 201.983
L235.978 204.487
L236.35 235.153
L236.424 229.716
L236.722 166.786
L236.87 165.549
L236.945 167.316
L237.168 179.988
L237.317 171.04
L237.391 172
L237.54 166.279
L237.689 171.294
L237.838 190.594
L238.061 249.422
L238.135 247.794
L238.507 201.077
L238.582 202.843
L238.805 226.882
L238.879 224.178
L239.177 181.692
L239.251 178.467
L239.326 178.782
L239.474 193.328
L239.698 223.226
L239.772 220.584
L240.144 160.926
L240.218 161.248
L240.293 165.472
L240.516 195.877
L240.59 194.848
L240.665 194.641
L240.739 195.601
L240.962 169.504
L241.037 171.678
L241.334 227.358
L241.409 225.522
L241.558 213.488
L241.781 191.461
L241.93 203.235
L242.153 219.616
L242.302 206.883
L242.599 179.135
L242.674 182.199
L242.897 209.479
L242.971 209.602
L243.12 196.185
L243.343 168.199
L243.418 167.953
L243.492 171.924
L243.864 219.732
L243.938 217.504
L244.236 195.555
L244.459 201.123
L244.608 205.447
L244.757 199.333
L245.054 154.129
L245.129 155.458
L245.501 218.288
L245.575 217.259
L245.798 206.391
L246.245 224.309
L246.394 215.7
L246.617 170.91
L246.766 144.222
L246.84 145.466
L247.212 197.552
L247.286 193.358
L247.435 180.771
L247.584 186.155
L247.733 198.527
L247.956 230.583
L248.03 233.878
L248.105 233.686
L248.254 224.002
L248.402 213.987
L248.626 226.091
L248.7 225.069
L248.774 222.842
L248.923 207.797
L249.37 148.484
L249.518 155.127
L249.89 181.731
L250.188 190.294
L250.634 247.195
L250.932 194.134
L251.081 180.126
L251.453 222.174
L251.527 221.206
L251.676 191.577
L251.899 141.918
L251.974 144.468
L252.42 208.941
L252.494 206.245
L252.643 200.009
L252.718 199.802
L252.792 199.218
L252.866 200.255
L253.015 211.514
L253.238 235.952
L253.387 214.862
L253.61 177.253
L253.685 177.054
L253.982 225.852
L254.057 225.015
L254.206 198.596
L254.503 140.704
L254.652 165.342
L254.875 208.434
L254.95 207.843
L255.322 177.484
L255.396 177.96
L255.619 214.686
L255.842 247.433
L256.214 183.482
L256.289 191.838
L256.586 252.587
L256.735 229.585
L257.107 124.177
L257.182 129.43
L257.628 193.305
L257.777 187.644
L257.926 182.238
L258 184.795
L258.149 205.001
L258.446 250.452
L258.818 179.435
L258.893 182.914
L259.116 199.963
L259.265 196
L259.488 179.504
L259.786 141.833
L259.934 189.872
L260.158 246.043
L260.455 204.709
L260.53 205.408
L260.827 247.095
L260.902 239.845
L261.422 152.132
L261.72 185.809
L261.794 182.745
L262.166 133.746
L262.241 134.752
L262.39 193.397
L262.613 282.769
L262.687 289.412
L262.762 287.577
L262.91 254.391
L263.208 172.077
L263.282 176.962
L263.506 225.253
L263.654 201.023
L263.952 150.757
L264.026 149.552
L264.101 150.204
L264.175 153.445
L264.473 218.741
L264.547 207.029
L264.77 157.224
L264.919 179.166
L265.217 217.881
L265.366 231.167
L265.589 204.848
L265.663 207.467
L265.961 242.472
L266.035 241.044
L266.184 217.059
L266.556 142.471
L266.705 171.54
L266.928 211.199
L267.002 210.377
L267.523 171.586
L267.598 170.533
L267.746 187.376
L267.895 205.063
L268.267 187.383
L268.416 211.975
L268.639 245.628
L268.714 251.45
L268.788 247.149
L269.234 165.864
L269.309 166.263
L269.606 194.94
L269.681 186.953
L269.904 165.634
L270.053 178.69
L270.425 223.356
L270.499 225.876
L270.574 221.813
L270.871 176.67
L270.946 184.511
L271.169 215.093
L271.318 194.027
L271.466 183.689
L271.764 198.949
L272.062 221.836
L272.136 218.472
L272.359 186.516
L272.582 166.263
L273.029 205.316
L273.252 190.24
L273.326 192.252
L273.55 206.468
L273.624 207.182
L273.698 210.37
L273.922 248.055
L273.996 246.527
L274.368 179.496
L274.666 116.766
L274.74 119.4
L274.889 152.263
L275.261 245.667
L275.335 242.933
L275.633 206.821
L275.782 211.314
L275.856 210.439
L276.005 190.14
L276.079 190.256
L276.302 204.74
L276.377 204.556
L276.526 195.678
L276.6 197.744
L276.749 211.245
L276.898 194.088
L277.121 168.222
L277.418 179.319
L277.642 192.222
L277.716 190.44
L277.865 198.012
L278.088 213.28
L278.311 223.295
L278.386 222.988
L278.534 213.841
L278.832 177.276
L278.906 179.035
L279.204 197.421
L279.278 195.532
L279.576 178.958
L280.022 197.183
L280.32 224.631
L280.394 226.628
L280.469 222.704
L280.692 192.706
L280.766 194.933
L280.99 210.93
L281.064 212.351
L281.362 201.952
L281.51 187.022
L281.734 163.353
L281.808 159.121
L281.882 160.38
L282.106 182.745
L282.18 180.924
L282.552 193.458
L282.775 177.806
L282.85 182.499
L283.222 245.552
L283.296 243.355
L283.445 228.464
L283.742 177.376
L283.891 197.221
L284.189 237.626
L284.263 235.138
L284.486 175.925
L284.635 141.457
L284.71 141.649
L285.082 194.434
L285.305 249.614
L285.379 240.237
L285.751 137.387
L286.123 163.683
L286.421 226.275
L286.644 259.883
L286.718 256.78
L287.09 220.154
L287.239 226.344
L287.388 231.367
L287.462 230.184
L287.611 218.864
L288.058 148.791
L288.132 150.466
L288.355 160.219
L288.43 161.778
L288.876 138.923
L288.95 140.451
L289.099 165.641
L289.694 304.718
L289.769 303.013
L289.918 277.946
L290.29 126.389
L290.364 139.552
L290.587 237.28
L290.736 160.089
L290.959 63.2439
L291.034 69.9408
L291.257 152.916
L291.629 282.262
L291.703 284.251
L291.926 256.319
L292.224 220.853
L292.447 209.479
L292.968 146.303
L293.042 145.497
L293.117 145.881
L293.266 151.395
L294.158 228.133
L294.233 227.243
L294.456 205.654
L294.53 205.969
L294.679 227.45
L294.902 256.119
L295.051 229.078
L295.349 154.989
L295.572 183.367
L295.646 177.914
L295.944 123.547
L296.018 130.544
L296.316 306.969
L296.39 303.682
L296.688 188.075
L296.986 112.012
L297.134 129.891
L297.878 287.277
L298.622 159.459
L298.92 63.3283
L298.994 74.3799
L299.664 328.342
L299.813 292.1
L300.11 190.601
L300.334 176.048
L300.408 176.071
L300.557 196.315
L300.706 218.902
L300.78 211.775
L301.226 111.152
L301.301 112.811
L301.375 110.268
L301.45 110.952
L301.598 137.271
L301.97 299.458
L302.863 154.344
L303.086 142.094
L303.161 148.054
L303.458 248.386
L303.682 307.168
L303.756 306.562
L303.83 301.362
L304.277 206.03
L304.649 48.4291
L304.723 58.6819
L305.393 244.63
L305.542 211.721
L305.839 145.358
L305.914 149.314
L306.062 190.778
L306.509 351.098
L306.583 347.757
L306.732 297.845
L307.104 107.496
L307.253 81.6144
L307.402 52.945
L307.55 102.688
L307.848 230.952
L307.922 240.836
L307.997 240.675
L308.518 190.394
L308.592 186.592
L308.666 187.422
L308.815 218.326
L308.964 256.142
L309.038 253.884
L309.41 171.324
L309.782 199.787
L310.08 213.058
L310.154 211.691
L310.303 193.742
L310.452 174.304
L310.601 187.422
L310.75 198.988
L310.898 162.569
L311.047 137.901
L311.196 177.338
L311.419 285.657
L311.494 280.15
L311.791 182.23
L311.866 186.999
L312.089 211.813
L312.386 180.809
L312.461 184.826
L312.535 192.468
L312.758 240.982
L313.279 132.986
L313.354 131.688
L313.428 133.109
L313.874 189.311
L314.321 299.335
L314.47 266.341
L314.767 194.994
L314.99 179.534
L315.139 185.179
L315.437 238.548
L316.032 115.399
L316.106 117.772
L316.925 242.841
L316.999 243.616
L317.074 243.01
L317.52 224.516
L317.669 186.362
L317.818 154.951
L318.041 193.328
L318.264 237.027
L318.338 251.857
L318.413 247.564
L318.785 126.55
L318.934 164.466
L319.157 246.12
L319.231 241.428
L319.603 135.336
L319.678 136.112
L319.826 142.924
L319.901 148.384
L320.347 254.268
L320.496 230.729
L320.794 122.603
L320.868 125.498
L321.091 211.376
L321.314 275.504
L321.389 277.178
L321.463 276.656
L321.612 260.866
L322.058 202.766
L322.282 172.569
L322.356 172.492
L322.579 185.663
L322.654 183.95
L322.802 170.011
L323.1 128.631
L323.174 132.164
L323.323 162.101
L323.546 198.942
L323.844 176.777
L323.918 181.07
L324.216 218.656
L324.365 211.606
L324.886 251.65
L325.034 244.622
L325.63 150.504
L325.853 131.135
L325.927 132.54
L326.522 214.402
L326.82 275.496
L327.043 293.367
L327.118 294.926
L327.192 293.467
L327.341 258.784
L327.713 95.4999
L327.936 46.1559
L328.085 72.9744
L328.606 219.394
L328.978 265.704
L329.201 271.971
L329.275 273.146
L329.35 272.109
L329.498 249.008
L329.945 135.566
L330.019 137.118
L330.168 143.262
L330.242 142.732
L330.317 145.013
L330.838 199.848
L331.284 270.957
L331.358 267.824
L331.582 228.21
L331.954 147.977
L332.028 149.805
L332.251 164.674
L332.474 139.729
L332.549 141.795
L332.698 148.069
L332.921 165.05
L333.07 192.084
L333.442 346.152
L333.665 253.047
L333.888 173.283
L334.037 164.889
L334.111 163.468
L334.409 137.986
L334.483 138.446
L334.558 141.234
L334.706 159.228
L335.078 226.597
L335.153 229.946
L335.227 228.917
L335.376 211.161
L335.674 122.549
L335.748 122.556
L335.897 142.647
L336.641 336.237
L336.715 328.404
L336.938 263.999
L337.459 54.1354
L337.534 61.0935
L337.831 163.145
L338.054 221.006
L338.278 231.912
L338.352 232.941
L338.501 228.026
L338.575 230.322
L338.798 243.716
L339.022 201.376
L339.245 168.084
L339.319 167.008
L339.691 199.072
L339.766 199.057
L339.989 179.772
L340.138 173.029
L340.286 183.912
L340.584 250.129
L340.658 244.953
L340.882 177.722
L341.105 120.06
L341.179 131.388
L341.477 252.18
L342.221 202.997
L342.518 182.645
L342.593 177.975
L342.965 119.592
L343.188 168.352
L343.486 229.639
L343.634 236.551
L343.932 214.079
L344.081 250.352
L344.23 281.433
L344.378 235.284
L344.676 123.993
L344.899 169.773
L344.974 167.292
L345.048 165.872
L345.122 168.844
L345.494 240.644
L345.643 191.292
L345.866 116.597
L345.941 128.401
L346.462 305.486
L346.61 267.647
L346.908 189.948
L347.057 147.348
L347.28 82.6128
L347.503 144.352
L347.875 216.183
L348.247 167.062
L348.396 205.616
L348.694 320.939
L348.768 320.409
L349.14 236.128
L349.363 116.528
L349.586 51.9235
L349.81 126.665
L350.107 216.544
L350.182 221.744
L350.256 218.395
L350.33 218.902
L350.479 217.696
L350.554 219.693
L350.777 265.635
L350.926 283.345
L351.074 286.14
L351.223 269.398
L351.893 84.8631
L351.967 81.9063
L352.116 101.26
L352.488 176.8
L352.86 256.373
L353.083 292.185
L353.53 227.673
L353.604 228.018
L353.753 234.623
L353.827 233.387
L354.125 186.853
L354.348 145.205
L354.422 145.312
L354.72 188.151
L354.869 182.368
L354.943 184.235
L355.092 194.272
L355.241 181.124
L355.39 174.358
L355.613 181.201
L355.762 197.813
L355.91 219.516
L356.059 206.453
L356.282 197.982
L356.506 191.769
L356.58 192.306
L356.654 191.845
L356.803 182.637
L356.878 184.281
L357.101 192.928
L357.175 193.09
L357.324 175.579
L357.398 176.916
L357.919 240.414
L358.44 212.75
L358.738 193.435
L358.886 179.857
L359.184 138.108
L359.407 162.516
L359.482 162.039
L359.556 164.589
L359.705 186.139
L359.854 210.385
L360.077 206.944
L360.226 210.615
L360.3 213.088
L360.449 208.657
L360.672 230.568
L360.821 254.53
L360.895 253.969
L361.044 224.109
L361.267 193.251
L361.416 197.191
L361.639 192.514
L361.788 175.679
L362.011 138.631
L362.086 137.609
L362.16 139.744
L362.234 138.001
L362.309 138.608
L362.458 162.746
L362.755 219.278
L362.978 227.273
L363.127 223.072
L363.276 217.297
L363.425 226.098
L363.574 235.806
L363.871 221.805
L364.094 177.637
L364.318 146.403
L364.615 187.406
L364.838 212.643
L365.062 196.738
L365.136 198.796
L365.285 194.91
L365.359 199.372
L365.582 225.115
L365.731 196.692
L365.954 158.829
L366.029 161.54
L366.252 190.048
L366.475 219.202
L366.773 194.449
L366.996 166.148
L367.219 183.605
L367.517 273.922
L367.591 273.461
L367.74 241.381
L368.038 164.366
L368.112 160.718
L368.186 161.018
L368.261 161.01
L368.41 162.393
L368.633 195.079
L368.707 191.492
L369.079 174.289
L369.154 176.662
L369.526 212.436
L369.6 212.628
L369.674 211.798
L369.972 189.019
L370.046 189.634
L370.121 192.444
L370.493 232.311
L370.567 229.47
L371.162 167.815
L371.237 170.203
L371.386 177.783
L371.609 188.205
L371.683 187.145
L371.758 189.849
L372.13 226.605
L372.204 226.966
L372.278 224.739
L372.427 229.516
L372.576 216.491
L372.874 180.034
L373.022 173.605
L373.32 133.877
L373.618 145.497
L374.287 269.383
L374.362 268.423
L374.585 246.481
L374.882 210.224
L375.031 215.93
L375.106 214.586
L375.85 159.551
L375.924 161.955
L376.073 180.187
L376.37 217.696
L376.519 200.624
L376.817 165.557
L376.891 165.342
L377.04 176.27
L377.189 189.265
L377.263 187.499
L377.412 178.782
L377.561 191.968
L377.784 217.389
L377.858 217.113
L377.933 214.133
L378.007 214.417
L378.379 262.248
L378.454 259.437
L378.677 205.662
L378.9 162.416
L378.974 159.935
L379.123 167.661
L379.272 173.49
L379.346 172.807
L379.644 161.717
L379.718 162.869
L380.388 211.844
L380.462 212.389
L380.611 198.197
L380.76 178.306
L380.834 179.918
L381.206 224.977
L381.355 232.695
L381.43 230.645
L382.025 189.15
L382.174 198.281
L382.322 208.227
L382.397 207.075
L382.546 197.367
L382.843 154.536
L382.918 157.838
L383.29 203.327
L383.364 198.381
L383.438 194.234
L383.513 194.487
L383.81 201.622
L383.885 201.399
L384.108 194.203
L384.182 194.725
L384.48 203.127
L384.554 202.467
L384.629 202.651
L384.703 204.387
L384.778 202.129
L385.001 178.398
L385.373 216.114
L385.447 213.38
L385.745 177.86
L385.894 193.788
L386.117 214.363
L386.191 218.18
L386.414 240.491
L386.935 169.865
L387.01 169.12
L387.233 186.108
L387.307 185.156
L387.456 168.268
L387.679 142.67
L387.754 147.478
L387.977 195.171
L388.274 251.596
L388.349 253.216
L388.423 252.034
L388.572 236.597
L388.87 184.642
L388.944 187.476
L389.316 217.904
L389.465 189.242
L389.688 151.141
L389.837 145.927
L389.911 147.324
L390.134 178.92
L390.432 218.434
L390.506 217.596
L390.73 205.186
L390.804 207.09
L391.027 221.337
L391.102 220
L391.474 206.967
L391.548 206.583
L391.622 203.834
L391.846 175.833
L392.218 202.981
L392.366 215.154
L392.515 184.135
L392.738 150.02
L392.887 169.604
L393.259 238.187
L393.706 207.666
L393.78 205.854
L393.854 206.599
L393.929 206.706
L394.078 211.621
L394.152 211.568
L394.375 200.539
L394.524 176.47
L394.747 138.193
L394.896 158.683
L395.119 196.63
L395.194 199.725
L395.268 199.072
L395.342 198.811
L395.566 191.546
L395.714 191.776
L395.789 191.907
L395.863 190.056
L395.938 194.472
L396.235 236.267
L396.31 233.118
L396.756 184.864
L396.83 183.244
L397.054 203.473
L397.128 202.367
L397.202 201.223
L397.426 212.651
L397.5 210.324
L397.723 191.738
L397.872 199.794
L398.095 216.729
L398.17 218.004
L398.244 217.136
L398.393 193.773
L398.616 160.526
L398.69 160.242
L398.839 169.881
L399.137 201.392
L399.36 212.205
L399.434 207.29
L399.732 157.201
L400.104 206.775
L400.253 223.318
L400.402 217.965
L400.774 198.949
L401.146 220.968
L401.294 227.058
L401.443 208.895
L401.815 141.902
L401.89 145.335
L402.41 227.342
L402.485 229.278
L402.559 227.335
L402.708 207.052
L403.006 160.311
L403.08 160.004
L403.229 172.761
L403.452 188.244
L403.526 185.893
L403.675 173.621
L403.75 174.911
L403.973 217.182
L404.345 282.377
L404.494 255.705
L404.94 136.242
L405.014 138.692
L405.238 164.535
L405.461 190.816
L405.535 191.308
L405.61 192.583
L405.758 209.878
L406.056 260.942
L406.13 256.726
L406.354 192.644
L406.651 114.777
L406.726 117.925
L407.098 197.129
L407.395 251.696
L407.47 255.436
L407.544 255.336
L407.618 251.765
L407.767 226.129
L407.99 188.044
L408.065 189.28
L408.214 196.876
L408.288 195.824
L408.883 155.941
L408.958 155.719
L409.106 170.495
L409.478 226.674
L409.627 229.677
L410.148 208.987
L410.222 210.853
L410.446 224.048
L410.52 220.315
L410.966 142.755
L411.041 143.853
L411.19 155.872
L411.413 175.633
L411.934 214.532
L412.231 255.582
L412.38 240.444
L412.678 193.788
L412.826 190.716
L412.901 191.838
L413.05 197.452
L413.347 185.079
L413.422 184.811
L413.645 181.47
L413.868 154.352
L413.942 155.104
L414.091 175.464
L414.314 221.444
L414.538 227.819
L414.761 232.688
L414.91 223.41
L415.207 191.746
L415.282 191.738
L415.877 154.859
L415.951 154.697
L416.1 174.996
L416.546 236.32
L416.77 229.04
L416.844 228.587
L416.918 227.281
L417.067 216.667
L417.365 175.625
L417.514 169.067
L417.588 170.572
L418.258 217.658
L418.332 217.543
L418.778 175.18
L418.927 187.967
L419.15 209.993
L419.225 209.456
L419.448 199.211
L419.597 203.004
L420.118 175.164
L420.341 191.899
L420.564 223.356
L420.638 222.373
L420.936 191.285
L421.159 183.49
L421.531 196.922
L421.978 236.643
L422.052 236.535
L422.201 222.512
L422.424 186.953
L422.647 196.791
L422.796 179.35
L423.094 129.492
L423.242 147.493
L423.689 211.568
L423.912 224.293
L424.21 262.824
L424.284 259.199
L424.582 201.184
L424.656 199.518
L424.805 183.697
L425.102 140.604
L425.177 140.85
L425.846 206.076
L425.995 212.75
L426.07 211.913
L426.144 212.052
L426.218 213.695
L426.516 235.706
L426.665 215.131
L426.888 190.179
L426.962 192.951
L427.037 192.191
L427.26 180.717
L427.409 173.099
L427.483 174.911
L427.706 201.008
L427.93 190.985
L428.004 191.776
L428.153 201.353
L428.302 208.642
L428.376 208.281
L428.525 204.54
L428.748 212.412
L428.971 190.102
L429.046 191.408
L429.194 196.092
L429.418 193.589
L429.566 186.17
L429.715 175.18
L429.864 179.634
L429.938 179.227
L430.087 187.506
L430.162 191.984
L430.236 191.385
L430.31 191.73
L430.534 208.127
L430.608 208.012
L430.831 206.783
L430.906 208.342
L431.054 218.08
L431.129 217.919
L431.352 207.367
L431.426 207.382
L431.65 200.785
L431.873 185.832
L431.947 185.141
L432.096 186.446
L432.17 187.652
L432.319 185.072
L432.394 186.961
L432.542 194.649
L432.617 194.08
L432.766 201.138
L432.84 200.939
L432.914 199.817
L433.063 192.107
L433.138 192.706
L433.361 204.917
L433.435 204.878
L433.584 194.687
L433.733 185.417
L433.807 186.285
L433.956 190.716
L434.105 206.914
L434.254 219.156
L434.328 216.514
L434.7 166.402
L435.146 204.041
L435.444 212.42
L435.518 212.236
L436.039 199.963
L436.188 206.391
L436.932 165.672
L437.006 166.463
L437.155 179.619
L437.453 224.969
L437.527 223.986
L437.75 213.111
L437.899 215.17
L438.048 210.331
L438.197 203.473
L438.42 215.2
L438.494 213.319
L438.866 166.793
L439.015 168.46
L439.09 169.435
L439.164 169.282
L439.238 169.719
L439.387 183.943
L439.685 216.06
L439.834 206.192
L439.982 194.111
L440.057 194.272
L440.28 217.113
L440.354 216.575
L440.95 182.261
L441.173 177.207
L441.247 176.962
L441.322 177.453
L441.47 188.436
L441.768 213.004
L441.842 214.947
L442.14 206.345
L442.214 207.95
L442.512 221.713
L442.661 208.142
L442.884 185.847
L443.033 189.227
L443.107 188.436
L443.405 179.02
L443.926 187.568
L444.149 193.428
L444.223 193.013
L444.298 193.366
L444.372 193.182
L444.446 195.755
L444.67 211.775
L444.893 191.508
L444.967 194.894
L445.265 221.675
L445.339 219.739
L445.637 203.888
L445.786 201.445
L445.86 201.975
L446.083 194.249
L446.306 180.003
L446.455 182.668
L446.53 182.422
L446.753 171.954
L446.827 172.269
L447.125 180.533
L447.497 227.703
L447.571 230.967
L447.646 230.706
L447.72 229.969
L448.166 205.301
L448.687 153.131
L448.762 151.794
L448.836 152.862
L449.059 167.669
L449.282 204.971
L449.58 242.987
L449.654 245.16
L449.878 231.044
L449.878 231.044" style="fill:none;stroke:#808080;stroke-linecap:square;"/>
   </g>
  </g>
 </g>
 <defs>
  <clipPath id="p7ff5b81e1d">
   <rect height="345.6" width="446.4" x="72.0" y="43.2"/>
  </clipPath>
 </defs>
</svg>
