<?xml version="1.0" encoding="utf-8" standalone="no"?>
<!DOCTYPE svg PUBLIC "-//W3C//DTD SVG 1.1//EN"
  "http://www.w3.org/Graphics/SVG/1.1/DTD/svg11.dtd">
<!-- Created with matplotlib (http://matplotlib.org/) -->
<svg height="432pt" version="1.1" viewBox="0 0 576 432" width="576pt" xmlns="http://www.w3.org/2000/svg" xmlns:xlink="http://www.w3.org/1999/xlink">
 <defs>
  <style type="text/css">
*{stroke-linecap:butt;stroke-linejoin:round;}
  </style>
 </defs>
 <g id="figure_1">
  <g id="patch_1">
   <path d="
M0 432
L576 432
L576 0
L0 0
z
" style="fill:#ffffff;"/>
  </g>
  <g id="axes_1">
   <g id="line2d_1">
    <path clip-path="url(#p7ff5b81e1d)" d="
M72 225.968
L72.0744 225.565
L72.2976 220.438
L72.4464 221.66
L72.5208 221.429
L72.5952 220.231
L72.8184 223.468
L72.8928 222.293
L72.9672 223.318
L73.0416 223.295
L73.1904 220.934
L73.3392 212.04
L73.4136 212.812
L73.5624 214.183
L73.6368 212.87
L73.86 207.156
L74.0088 209.713
L74.0832 208.746
L74.1576 206.142
L74.3808 216.787
L74.5296 211.51
L74.6784 213.1
L74.7528 212.04
L74.9016 205.935
L74.976 206.43
L75.0504 205.232
L75.2736 216.637
L75.4224 222.754
L75.4968 222.731
L75.5712 222.881
L75.72 221.245
L76.0176 228.652
L76.092 227.039
L76.464 202.594
L76.5384 203.884
L76.6872 214.321
L76.9104 227.535
L77.0592 232.2
L77.208 229.032
L77.7288 194.207
L77.8032 195.613
L78.5472 245.022
L78.6216 244.296
L79.1424 192.295
L79.3656 183.955
L79.44 185.003
L79.5888 197.456
L80.0352 235.449
L80.184 243.26
L80.2584 242.96
L80.4072 233.997
L80.6304 219.333
L80.7048 217.823
L80.8536 220.081
L81.3744 211.568
L81.4488 212.374
L81.5232 211.994
L81.5976 209.921
L81.8952 194.922
L82.044 205.739
L82.2672 216.061
L82.3416 214.771
L82.7136 224.378
L82.788 223.526
L83.0856 232.085
L83.16 232.776
L83.3832 229.574
L83.6808 213.596
L83.904 199.864
L83.9784 200.117
L84.2016 207.283
L84.4248 197.375
L84.5736 207.72
L84.8712 229.608
L84.9456 229.862
L85.2432 220.542
L85.5408 213.711
L85.6896 212.34
L85.764 212.639
L86.0616 204.149
L86.136 205.589
L86.2104 206.073
L86.2848 207.421
L86.4336 217.662
L86.6568 231.544
L86.9544 210.22
L87.1776 220.738
L87.3264 213.319
L87.4008 214.333
L87.6984 227.569
L87.8472 235.91
L87.9216 234.378
L88.1448 242.338
L88.2192 241.451
L88.6656 191.339
L88.8144 190.175
L89.2608 200.993
L89.3352 200.209
L89.484 193.401
L89.5584 194.012
L89.856 213.123
L89.9304 211.798
L90.0792 205.889
L90.228 216.936
L90.5256 254.227
L90.6744 257.948
L91.1208 248.225
L91.1952 248.962
L91.2696 248.04
L91.4184 238.133
L91.8648 182.63
L91.9392 181.247
L92.2368 205.889
L92.5344 182.503
L92.6088 182.33
L92.7576 185.867
L93.2784 205.439
L93.4272 197.606
L93.5016 197.675
L93.6504 209.955
L93.8736 234.504
L93.948 233.226
L94.0968 228.03
L94.2456 241.854
L94.5432 267.728
L94.6176 268.995
L94.692 268.765
L95.3616 223.664
L95.8824 153.473
L95.9568 154.786
L96.6264 210.877
L97.0728 235.76
L97.1472 234.838
L97.296 223.077
L97.5192 196.73
L97.5936 197.341
L97.8168 210.923
L98.04 199.714
L98.1888 218.054
L98.4864 257.291
L98.5608 259.445
L98.8584 250.655
L99.0072 231.728
L99.2304 210.934
L99.3048 211.557
L99.3792 208.423
L99.7512 174.658
L99.8256 176.49
L99.9744 191.731
L100.198 221.061
L100.272 220.726
L100.421 210.762
L100.644 193.562
L100.867 200.094
L100.942 200.624
L101.016 202.087
L101.165 227.085
L101.462 279.075
L101.537 279.49
L101.686 287.105
L101.834 280.527
L102.058 226.314
L102.355 161.744
L102.653 129.868
L102.727 132.575
L103.099 198.078
L103.397 237.407
L103.546 245.46
L103.694 241.301
L103.843 229.067
L104.141 244.792
L104.215 244.389
L104.364 240.875
L104.438 237.891
L104.662 218.157
L104.736 220.15
L104.959 236.255
L105.034 235.967
L105.108 237.235
L105.257 245.218
L105.554 225.473
L105.703 209.852
L106.001 165.684
L106.224 150.512
L106.373 162.55
L106.894 221.706
L106.968 219.862
L107.042 220.715
L107.34 233.133
L107.414 233.571
L107.563 238.076
L107.786 232.028
L107.861 229.493
L108.084 239.423
L108.158 239.251
L108.233 237.304
L108.307 239.804
L108.382 239.389
L108.53 237.557
L109.051 212.478
L109.126 213.918
L109.2 212.363
L109.572 192.975
L109.646 193.47
L109.944 215.934
L110.018 214.828
L110.093 214.206
L110.242 204.944
L110.316 207.248
L110.614 214.079
L110.762 211.775
L110.911 215.093
L111.134 222.316
L111.209 221.36
L111.358 215.324
L111.432 216.499
L111.506 219.943
L111.581 218.146
L111.804 204.276
L111.878 203.884
L111.953 202.767
L112.027 202.824
L112.325 222.178
L112.474 218.722
L112.697 220.853
L112.846 229.332
L112.92 229.839
L113.143 236.728
L113.292 229.77
L113.515 220.796
L113.813 213.261
L113.887 216.199
L113.962 215.565
L114.11 209.587
L114.185 209.69
L114.334 208.492
L114.408 206.246
L114.631 216.499
L114.854 207.628
L115.152 203.089
L115.301 208.008
L115.524 219.851
L115.747 212.052
L115.822 212.927
L115.97 209.702
L116.045 209.771
L116.194 216.499
L116.417 226.797
L116.491 227.949
L116.64 233.79
L116.789 218.929
L116.863 211.05
L116.938 214.31
L117.161 234.677
L117.235 232.223
L117.607 205.601
L117.682 205.601
L117.83 211.937
L117.905 211.061
L118.128 196.707
L118.277 206.177
L118.351 206.073
L118.426 207.398
L118.649 223.537
L118.798 233.133
L118.872 233.18
L118.946 233.064
L119.021 233.779
L119.244 208.584
L119.318 210.243
L119.542 218.906
L119.69 211.487
L119.988 193.32
L120.062 192.353
L120.137 197.928
L120.36 224.828
L120.434 224.77
L120.658 236.739
L120.732 233.652
L121.03 218.077
L121.104 217.812
L121.253 222.051
L121.476 217.8
L121.699 202.767
L121.997 213.331
L122.146 207.582
L122.22 209.16
L122.369 205.428
L122.592 211.833
L122.815 224.229
L122.89 223.975
L123.113 221.256
L123.262 214.863
L123.336 215.381
L123.41 214.886
L123.485 213.642
L123.782 230.277
L123.857 229.585
L124.006 222.086
L124.154 207.743
L124.229 208.365
L124.452 218.941
L124.675 215.554
L124.824 204.172
L124.898 204.956
L125.122 219.045
L125.494 207.144
L125.568 207.306
L125.642 208.573
L125.717 208.308
L125.791 206.073
L125.866 207.444
L125.94 206.58
L126.014 206.626
L126.089 207.548
L126.312 216.648
L126.535 210.762
L126.61 211.407
L126.758 224.205
L126.907 234.447
L127.13 224.586
L127.502 238.536
L127.726 228.56
L128.172 196.131
L128.246 195.44
L128.395 202.087
L128.47 200.359
L128.693 209.149
L128.767 207.905
L128.99 203.066
L129.288 217.996
L129.362 217.466
L129.586 214.828
L129.66 215.554
L130.032 233.053
L130.255 221.498
L130.33 222.535
L130.553 235.265
L130.627 235.011
L130.85 228.111
L131.371 191.915
L131.52 195.717
L131.743 211.165
L131.818 211.096
L131.966 207.34
L132.19 209.483
L132.338 206.891
L132.562 215.508
L132.71 213.768
L133.008 215.865
L133.157 213.204
L133.231 216.095
L133.454 232.293
L133.529 233.272
L133.826 243.098
L133.901 242.58
L133.975 243.962
L134.05 243.928
L134.347 214.114
L134.719 177.837
L134.794 178.321
L135.166 198.7
L135.538 221.349
L135.612 221.959
L135.984 245.229
L136.058 244.746
L136.133 242.545
L136.282 232.5
L136.356 233.018
L136.43 235.207
L136.505 235.126
L136.654 224.781
L137.026 197.525
L137.174 202.778
L137.249 202.87
L137.398 207.962
L137.621 199.622
L137.695 200.981
L137.844 207.651
L138.142 201.465
L138.29 191.892
L138.365 192.595
L138.662 210.693
L138.886 236.451
L139.109 256.024
L139.183 253.743
L139.406 241.232
L139.555 238.029
L139.63 238.559
L139.704 239.493
L139.853 229.101
L140.15 199.795
L140.299 201.373
L140.448 195.855
L140.671 198.481
L140.746 198.251
L140.969 197.064
L141.118 202.951
L141.415 216.867
L141.49 217.95
L141.638 211.672
L141.713 212.904
L142.01 225.818
L142.159 226.221
L142.457 221.637
L142.531 221.913
L142.754 226.348
L142.829 225.91
L142.978 222.812
L143.275 213.734
L143.424 204.783
L143.573 207.617
L143.796 214.183
L143.87 214.586
L144.019 208.976
L144.168 205.163
L144.317 202.963
L144.54 207.997
L144.763 218.261
L145.135 241.244
L145.433 225.45
L145.507 225.645
L145.582 224.413
L145.805 210.934
L145.879 211.165
L145.954 210.612
L146.102 208.17
L146.177 208.734
L146.251 207.467
L146.4 200.037
L146.474 200.336
L146.623 203.769
L146.772 200.198
L146.846 201.269
L147.293 221.475
L147.367 221.395
L147.442 223.388
L147.814 248.421
L147.962 241.428
L148.483 188.47
L148.558 189.127
L149.227 222.996
L149.302 223.053
L149.525 212.202
L149.599 212.455
L149.674 212.34
L149.748 213.365
L150.046 226.371
L150.12 225
L150.194 223.952
L150.269 224.47
L150.343 223.756
L150.492 213.204
L150.641 199.034
L150.715 199.207
L150.864 213.261
L151.087 234.735
L151.162 233.203
L151.608 208.4
L151.682 208.4
L151.757 209.253
L152.054 222.316
L152.352 209.137
L152.575 206.995
L152.65 207.329
L153.022 220.047
L153.245 230.161
L153.319 231.463
L153.468 224.874
L153.84 197.548
L153.914 199.242
L154.212 227.777
L154.286 225.599
L154.584 214.033
L154.658 214.794
L154.733 214.437
L154.956 207.813
L155.105 218.077
L155.254 228.618
L155.402 221.325
L155.626 211.81
L155.849 206.995
L155.923 204.184
L155.998 205.428
L156.295 225.772
L156.37 224.044
L156.593 216.487
L156.742 217.501
L156.816 216.787
L157.039 205.82
L157.262 223.722
L157.411 229.447
L157.634 223.088
L157.783 221.832
L158.006 213.492
L158.081 213.861
L158.23 212.34
L158.676 202.456
L158.75 204.829
L158.974 215.853
L159.197 205.174
L159.271 206.015
L159.792 238.329
L159.866 238.87
L160.015 236.486
L160.164 225.219
L160.462 205.439
L160.536 203.412
L160.685 208.181
L160.759 207.156
L160.908 210.796
L161.057 208.527
L161.131 209.264
L161.354 222.282
L161.429 219.102
L161.578 204.621
L161.652 205.693
L161.875 213.492
L161.95 212.501
L162.47 231.636
L162.619 218.618
L162.694 218.941
L162.768 219.021
L162.917 221.014
L163.066 218.964
L163.289 215.162
L163.586 206.131
L163.661 208.319
L163.884 222.397
L164.033 218.307
L164.107 218.906
L164.182 218.25
L164.33 212.351
L164.554 204.702
L164.702 198.988
L164.926 228.042
L165 225.611
L165.149 218.803
L165.446 230.841
L165.595 221.706
L165.818 206.695
L165.967 213.93
L166.19 200.659
L166.562 213.895
L166.637 217.581
L166.711 214.886
L166.86 201.223
L167.158 223.192
L167.232 225.219
L167.381 241.117
L167.455 238.675
L167.604 227.201
L167.753 235.461
L167.976 224.563
L168.05 228.952
L168.125 227.88
L168.274 214.321
L168.422 216.89
L168.943 194.092
L169.166 202.398
L169.315 194.565
L169.464 207.571
L169.538 206.81
L169.613 205.267
L169.687 207.294
L169.91 226.44
L169.985 224.609
L170.059 228.088
L170.282 247.165
L170.431 242.061
L170.506 243.248
L171.175 193.758
L171.324 198.47
L171.398 197.905
L171.473 194.657
L171.547 196.051
L172.068 231.786
L172.142 227.546
L172.217 224.724
L172.291 224.885
L172.44 228.894
L172.589 224.286
L172.812 231.244
L172.886 231.002
L173.035 228.41
L173.184 215.347
L173.333 204.126
L173.482 208.124
L173.705 191.638
L173.779 192.168
L173.854 193.078
L174.002 190.878
L174.151 195.221
L174.449 222.374
L174.598 233.237
L174.672 233.617
L174.746 233.099
L174.821 234.758
L174.97 242.05
L175.044 241.37
L175.416 224.298
L175.565 231.693
L175.639 230.634
L175.937 217.121
L176.011 216.372
L176.532 200.647
L176.681 202.479
L176.904 190.982
L176.978 192.675
L177.127 195.647
L177.202 195.267
L177.425 204.23
L177.797 226.809
L178.094 238.709
L178.169 238.732
L178.318 232.028
L178.466 223.007
L178.541 223.249
L178.69 225.68
L178.913 221.521
L179.21 210.381
L179.285 209.679
L179.657 194.518
L180.103 220.392
L180.326 230.541
L180.475 229.804
L180.773 216.545
L180.847 216.833
L180.922 216.591
L180.996 217.973
L181.07 222.063
L181.145 221.901
L181.294 220.461
L181.591 211.787
L181.666 209.829
L181.814 200.002
L182.112 210.888
L182.41 227.788
L182.558 225.772
L182.633 226.279
L182.707 226.797
L182.856 221.602
L182.93 218.469
L183.079 223.917
L183.228 209.805
L183.377 199.967
L183.823 215.542
L183.898 216.671
L184.046 213.665
L184.195 222.535
L184.27 221.233
L184.493 211.096
L184.567 211.868
L184.642 211.418
L184.716 209.322
L184.79 209.748
L185.014 218.273
L185.088 218.803
L185.237 224.678
L185.311 224.102
L185.683 199.783
L185.758 200.175
L185.832 199.334
L185.906 199.967
L186.204 209.794
L186.353 223.169
L186.427 222.074
L186.502 222.316
L186.725 238.179
L186.799 237.327
L186.874 233.468
L187.022 243.905
L187.171 251.266
L187.543 231.659
L187.841 211.407
L187.99 199.725
L188.213 182.169
L188.436 177.457
L188.659 185.706
L189.254 226.302
L189.626 233.03
L189.701 232.581
L190.073 224.401
L190.147 223.272
L190.222 224.194
L190.37 221.867
L190.519 216.925
L190.742 223.48
L191.04 216.694
L191.114 217.236
L191.189 217.224
L191.486 210.693
L191.561 210.358
L191.784 214.759
L191.858 213.573
L192.007 204.057
L192.082 204.103
L192.379 223.042
L192.454 221.026
L192.528 218.572
L192.677 223.952
L192.826 231.094
L193.123 212.006
L193.198 212.04
L193.272 211.43
L193.346 209.702
L193.644 185.625
L193.718 187.434
L194.537 243.11
L194.611 242.833
L195.058 217.224
L195.132 218.826
L195.281 225.346
L195.653 215.059
L195.876 205.785
L196.025 205.532
L196.174 195.083
L196.248 197.295
L196.992 230.357
L197.066 232.339
L197.141 232.062
L197.215 228.502
L197.29 228.525
L197.364 227.719
L197.513 213.676
L197.81 181.593
L197.885 180.556
L197.959 182.399
L198.257 225.588
L198.554 255.851
L198.629 256.312
L198.778 266.553
L198.852 266.403
L199.819 169.555
L199.968 175.821
L200.117 173.621
L200.861 213.538
L201.456 279.939
L201.53 279.375
L201.605 277.716
L201.828 245.103
L202.126 183.505
L202.274 155.592
L202.349 156.641
L202.721 187.053
L203.316 294.201
L203.39 292.554
L203.539 270.113
L203.986 155.765
L204.06 152.966
L204.209 156.514
L204.358 167.539
L204.804 223.33
L204.953 231.44
L205.102 232.892
L205.399 241.716
L205.474 240.933
L205.622 234.216
L205.846 213.503
L205.92 214.54
L206.292 193.032
L206.366 193.228
L206.441 191.085
L206.515 191.293
L206.664 201.903
L206.813 213.089
L206.887 213.423
L207.036 223.261
L207.334 251.934
L207.408 255.045
L207.706 244.55
L207.78 244.849
L207.929 237.995
L208.152 212.95
L208.375 185.199
L208.45 184.784
L208.673 176.017
L208.896 182.365
L209.045 197.191
L209.491 240.771
L209.64 243.663
L209.863 242.269
L210.086 229.194
L210.458 209.045
L210.533 206.637
L210.682 208.389
L210.83 206.73
L210.905 208.216
L211.277 197.237
L211.351 198.412
L211.649 213.503
L211.723 211.66
L211.798 213.515
L212.021 230.173
L212.095 230.783
L212.17 229.758
L212.244 230.853
L212.467 223.365
L212.542 224.033
L212.616 226.602
L212.69 226.533
L212.988 215.773
L213.137 217.985
L213.286 217.132
L213.36 217.178
L213.434 220.404
L213.509 219.644
L213.658 215.162
L213.806 219.955
L214.253 195.498
L214.327 194.265
L214.476 200.659
L214.55 200.325
L214.848 225.415
L214.922 223.618
L214.997 220.888
L215.071 222.881
L215.146 222.166
L215.22 222.086
L215.369 223.468
L215.443 226.049
L215.518 224.551
L215.666 220.634
L215.815 221.544
L215.89 223.1
L216.038 213.745
L216.113 214.137
L216.336 219.194
L216.41 219.978
L216.485 218.71
L216.708 199.541
L216.782 203.493
L216.857 202.11
L216.931 200.14
L217.08 211.96
L217.303 224.159
L217.452 233.779
L217.526 232.396
L217.675 227.996
L217.75 228.675
L217.824 228.214
L217.973 224.263
L218.047 222.581
L218.196 216.522
L218.27 217.363
L218.345 216.153
L218.642 205.658
L218.717 204.103
L218.866 198.032
L219.461 219.667
L219.61 223.157
L219.758 217.605
L219.982 207.709
L220.205 217.132
L220.354 217.19
L220.428 217.063
L220.651 220.773
L220.726 224.309
L220.8 223.422
L221.023 204.253
L221.098 205.497
L221.321 212.778
L221.544 227.466
L221.618 227.949
L221.693 227.166
L221.916 235.126
L222.362 213.031
L222.511 207.501
L222.586 207.801
L222.809 204.31
L222.958 206.787
L223.106 203.147
L223.181 203.377
L223.33 206.419
L223.702 219.148
L223.925 222.501
L224.446 213.25
L224.743 224.805
L224.818 224.159
L225.041 235.023
L225.115 232.938
L225.413 216.13
L225.562 218.227
L225.785 206.384
L226.008 195.843
L226.082 194.634
L226.38 205.071
L226.678 222.95
L226.901 219.16
L227.05 221.521
L227.124 221.475
L227.496 215.842
L227.794 223.629
L228.091 216.844
L228.389 231.302
L228.463 231.014
L228.538 229.896
L228.835 213.561
L229.207 191.869
L229.356 195.083
L229.802 217.063
L229.877 216.222
L229.951 216.372
L230.249 228.019
L230.472 222.789
L230.621 217.086
L230.695 217.409
L230.993 223.307
L231.067 222.904
L231.216 218.929
L231.514 228.422
L231.662 223.629
L232.183 198.931
L232.258 199.138
L232.406 206.58
L232.704 225.15
L232.853 215.105
L233.002 206.764
L233.15 208.746
L233.299 206.96
L233.374 207.317
L233.522 212.179
L233.746 226.625
L233.82 225.519
L234.118 210.646
L234.192 210.854
L234.341 212.144
L234.415 210.842
L234.49 212.973
L234.713 222.673
L234.936 233.295
L235.085 240.898
L235.159 240.38
L235.308 231.809
L235.457 234.251
L235.606 230.553
L236.424 178.264
L236.573 170.027
L236.647 171.444
L236.87 191.327
L237.242 225.461
L237.466 236.382
L237.54 237.154
L237.689 235.61
L237.838 230.046
L238.061 216.107
L238.21 218.653
L238.358 217.789
L238.433 218.561
L238.73 231.417
L238.805 229.055
L239.028 217.616
L239.102 217.547
L239.251 218.33
L239.4 219.517
L239.549 218.572
L239.623 218.031
L239.698 218.273
L239.846 217.098
L239.921 215.842
L240.218 193.159
L240.293 193.493
L240.516 207.686
L240.814 226.245
L240.888 225.081
L241.111 229.044
L241.186 227.327
L241.632 198.251
L241.93 211.718
L242.078 210.036
L242.302 220.611
L242.376 221.314
L242.45 220.911
L242.525 219.528
L242.822 206.338
L242.897 207.697
L243.194 225.542
L243.418 226.832
L243.566 224.113
L243.641 224.067
L243.864 221.544
L243.938 224.586
L244.013 223.457
L244.31 210.773
L244.385 211.234
L244.534 215.704
L244.608 215.427
L244.831 212.559
L244.906 212.444
L245.054 201.615
L245.203 194.876
L245.575 220.012
L245.798 227.293
L246.096 216.188
L246.245 209.437
L246.319 210.612
L246.394 210.255
L246.617 204.84
L246.914 218.215
L247.063 231.014
L247.286 257.095
L247.361 256.6
L247.584 227.892
L247.807 207.501
L247.956 199.368
L248.328 157.366
L248.402 158.576
L248.998 229.677
L249.295 275.654
L249.444 286.863
L249.518 286.367
L249.593 284.985
L249.742 267.037
L250.337 174.635
L250.56 161.917
L250.634 162.643
L250.858 174.658
L251.602 242.292
L251.825 259.388
L251.899 259.295
L251.974 258.051
L252.048 258.708
L252.197 244.815
L252.494 212.927
L252.718 207.732
L252.866 208.124
L252.941 207.363
L253.536 183.056
L253.61 184.369
L253.759 194.023
L254.206 229.505
L254.354 239.17
L254.429 239.078
L254.875 212.478
L254.95 213.607
L255.024 215.208
L255.098 214.909
L255.173 214.552
L255.322 216.706
L255.47 218.526
L255.545 216.522
L255.619 217.109
L255.842 223.491
L256.066 216.268
L256.586 229.896
L256.661 228.629
L256.958 215.923
L257.107 223.445
L257.182 222.063
L257.628 200.901
L257.702 201.039
L257.851 203.527
L257.926 203.331
L258.149 201.338
L258.521 187.03
L258.67 197.329
L259.19 260.367
L259.265 263.477
L259.339 261.45
L260.306 169.048
L260.381 169.589
L260.53 190.383
L260.902 265.182
L260.976 267.855
L261.125 263.431
L261.274 252.383
L261.794 194.38
L261.869 194.23
L261.943 194.922
L262.39 210.854
L262.687 207.951
L262.836 201.5
L262.985 204.84
L263.208 196.845
L263.282 197.514
L263.729 236.682
L263.803 236.624
L264.026 214.252
L264.25 196.465
L264.398 192.376
L264.473 192.767
L264.622 200.866
L265.366 264.318
L265.514 257.187
L266.184 194.611
L266.407 186.547
L266.482 187.699
L266.63 195.889
L266.779 191.339
L266.854 192.134
L266.928 195.82
L267.151 217.386
L267.3 224.229
L267.374 224.021
L267.523 221.59
L267.746 209.517
L267.97 217.72
L268.193 205.935
L268.267 206.891
L268.565 224.113
L268.714 219.978
L268.788 220.819
L269.011 229.217
L269.086 228.422
L269.309 223.388
L269.606 233.871
L269.755 238.329
L270.202 203.366
L270.499 195.797
L270.871 216.107
L271.094 221.948
L271.169 221.107
L271.466 201.914
L271.615 193.908
L271.764 189.484
L271.913 196.938
L272.285 228.249
L272.359 226.129
L272.88 241.693
L272.954 240.541
L273.178 236.82
L273.326 238.156
L273.401 237.788
L273.996 198.931
L274.145 195.532
L274.294 202.698
L274.368 202.26
L274.591 195.359
L274.666 195.486
L275.112 211.269
L275.41 226.763
L275.558 230.968
L275.633 229.85
L275.93 219.252
L276.154 226.302
L276.228 225.45
L276.526 219.333
L276.749 205.163
L276.823 205.866
L276.972 211.269
L277.195 203.17
L277.27 206.142
L277.344 204.933
L277.418 202.433
L277.493 203.631
L277.865 226.878
L278.162 245.921
L278.237 246.082
L278.46 237.108
L278.906 214.932
L279.278 200.313
L279.502 191.546
L279.725 206.027
L279.799 205.117
L279.874 205.313
L280.171 223.549
L280.246 224.136
L280.32 223.941
L280.469 216.245
L280.841 193.735
L280.915 194.945
L281.362 230.841
L281.585 244.135
L281.659 243.755
L281.882 238.479
L282.18 220.945
L282.329 217.651
L282.701 206.81
L282.775 206.419
L282.924 203.953
L283.073 205.854
L283.147 205.578
L283.222 205.532
L283.296 207.075
L283.445 203.884
L283.742 208.849
L283.817 209.621
L283.966 221.809
L284.189 235.069
L284.263 235.207
L284.561 224.482
L284.933 198.861
L285.007 199.034
L285.528 215.9
L285.602 211.545
L285.677 212.927
L285.9 222.95
L286.049 228.606
L286.272 236.601
L286.57 226.901
L287.016 199.783
L287.165 203.032
L287.239 202.963
L287.314 203.769
L287.462 200.129
L288.058 223.894
L288.132 223.653
L288.206 223.226
L288.578 207.594
L288.653 209.137
L288.802 211.453
L288.95 219.874
L289.099 227.281
L289.248 223.964
L289.546 234.504
L289.62 234.17
L289.843 225.68
L289.918 225.219
L290.066 231.947
L290.364 209.909
L290.587 185.395
L290.662 187.215
L290.81 188.229
L291.182 214.31
L291.257 212.167
L291.331 212.697
L291.554 224.033
L291.703 209.322
L291.926 184.266
L292.001 189.392
L292.298 260.966
L292.596 232.074
L292.894 196.177
L293.191 238.732
L294.01 184.796
L294.084 186.028
L294.828 251.105
L294.902 246.716
L295.2 199.103
L295.572 242.108
L295.646 244.481
L295.721 243.651
L296.167 176.582
L296.242 178.367
L296.762 211.626
L296.911 205.025
L297.432 232.961
L297.804 249.146
L297.953 243.985
L298.102 232.223
L298.325 215.416
L298.92 200.14
L298.994 199.702
L299.069 200.854
L299.218 205.566
L299.292 205.716
L299.441 205.105
L299.515 206.983
L299.738 222.881
L299.813 222.765
L300.036 218.422
L300.185 219.021
L300.259 218.699
L300.408 210.854
L300.557 199.645
L300.631 201.212
L301.078 237.05
L301.152 232.108
L301.301 221.164
L301.598 233.364
L301.673 232.396
L301.822 223.664
L301.97 215.416
L302.045 215.692
L302.417 211.326
L302.64 200.198
L302.714 201.626
L302.863 210.416
L302.938 210.105
L303.161 201.603
L303.31 201.004
L303.533 204.08
L303.607 205.393
L303.756 219.356
L303.979 241.509
L304.054 244.101
L304.277 237.235
L304.5 223.941
L304.574 222.431
L304.723 208.688
L305.021 182.745
L305.095 184.289
L305.616 233.364
L305.69 235.898
L305.765 233.928
L305.839 234.677
L305.914 235.679
L305.988 235.011
L306.509 215.992
L306.806 194.979
L306.881 193.067
L307.253 215.877
L307.327 214.102
L307.402 212.121
L307.476 212.374
L307.848 224.885
L307.922 224.781
L308.071 222.12
L308.22 222.535
L308.294 222.397
L308.369 221.613
L308.666 211.683
L308.741 211.303
L308.964 203.861
L309.262 217.224
L309.41 212.34
L309.634 218.572
L309.708 218.307
L309.931 220.404
L310.006 222.086
L310.08 221.429
L310.154 221.199
L310.229 222.282
L310.303 222.051
L310.452 218.757
L310.526 215.934
L310.601 216.476
L310.675 219.309
L310.75 218.111
L311.047 205.797
L311.196 210.428
L311.419 220.842
L311.717 217.317
L311.94 221.429
L312.089 216.971
L312.386 208.953
L312.535 210.865
L312.758 200.924
L312.833 201.35
L312.907 202.387
L313.056 212.202
L313.279 226.429
L313.354 226.625
L313.726 217.593
L313.8 217.708
L313.874 217.386
L313.949 218.031
L314.023 220.012
L314.098 219.92
L314.172 220.461
L314.47 227.281
L315.139 211.292
L315.586 216.095
L316.032 200.67
L316.404 205.278
L316.776 229.666
L317.074 221.498
L317.371 231.636
L317.52 223.422
L317.743 202.087
L317.818 202.571
L318.041 217.996
L318.115 217.247
L318.264 210.819
L318.338 211.292
L318.636 221.164
L318.71 222.063
L318.785 221.717
L319.082 211.637
L319.157 213.354
L319.306 218.987
L319.38 218.342
L319.603 201.707
L319.678 202.94
L319.901 215.565
L320.198 209.264
L320.645 226.245
L320.719 224.793
L320.868 219.413
L321.091 230.703
L321.314 216.66
L321.389 210.9
L321.463 211.349
L321.612 215.208
L321.835 204.46
L322.058 218.538
L322.133 216.211
L322.282 207.697
L322.356 208.838
L322.43 208.746
L322.579 206.695
L323.026 221.971
L323.174 219.114
L323.398 225.83
L323.621 215.934
L323.844 224.482
L323.993 223.572
L324.29 212.075
L324.365 210.497
L324.514 202.951
L324.662 211.637
L324.737 215.784
L324.811 215.22
L324.96 211.96
L325.034 212.075
L325.183 213.768
L325.258 213.25
L325.704 222.731
L325.853 219.724
L326.076 227.155
L326.374 209.886
L326.448 210.117
L326.597 205.002
L326.671 202.905
L327.118 214.425
L327.192 214.667
L327.341 212.167
L327.415 212.225
L327.49 210.681
L327.564 210.842
L328.382 237.96
L328.829 211.752
L329.052 196.65
L329.201 203.228
L329.275 202.329
L329.35 202.963
L329.573 214.644
L329.647 214.598
L329.722 214.333
L329.945 210.289
L330.094 216.141
L330.242 219.805
L330.614 223.814
L330.838 220.991
L331.135 212.248
L331.21 212.87
L331.358 210.312
L331.507 212.536
L331.582 212.121
L331.656 210.911
L331.73 211.096
L331.954 223.71
L332.028 223.353
L332.102 221.867
L332.177 222.305
L332.4 229.205
L332.549 225.438
L332.921 205.82
L333.144 201.154
L333.442 205.601
L333.59 216.821
L333.739 227.65
L333.814 227.443
L334.037 220.703
L334.111 221.533
L334.186 221.279
L334.483 209.725
L334.558 210.52
L335.004 223.318
L335.227 209.633
L335.599 224.355
L335.674 223.03
L335.748 222.04
L335.971 217.754
L336.12 214.92
L336.194 214.989
L336.269 215.174
L336.343 214.39
L336.566 217.351
L336.641 219.805
L336.715 219.413
L336.864 213.158
L337.013 204.714
L337.236 208.561
L337.31 208.515
L337.459 205.336
L337.608 208.838
L337.682 210.381
L337.831 208.054
L337.906 208.262
L338.054 218.181
L338.278 235.426
L338.501 230.864
L338.575 231.429
L338.65 233.122
L339.245 209.229
L339.394 214.483
L339.468 213.492
L339.691 192.94
L339.766 195.624
L339.989 211.833
L340.063 210.762
L340.212 207.075
L340.286 207.317
L340.733 231.037
L340.807 231.025
L341.03 225.265
L341.179 223.307
L341.254 223.733
L341.477 212.766
L341.551 214.759
L341.7 217.869
L341.998 208.918
L342.072 209.183
L342.221 210.612
L342.444 202.79
L342.593 203.93
L342.816 209.264
L343.039 222.696
L343.188 220.761
L343.262 217.835
L343.337 218.538
L343.634 234.447
L343.783 231.636
L343.858 231.751
L343.932 232.65
L344.006 230.472
L344.304 215.842
L344.453 208.435
L344.602 203.469
L344.899 213.814
L345.122 194.346
L345.197 196.189
L346.238 231.405
L346.313 230.311
L346.685 213.596
L346.834 207.006
L346.908 208.342
L347.206 228.652
L347.354 223.341
L347.578 213.676
L347.726 217.144
L347.875 212.006
L348.024 216.833
L348.247 207.087
L348.322 209.69
L348.619 228.318
L348.694 228.249
L348.768 227.834
L348.842 228.675
L348.991 215.612
L349.14 204.299
L349.363 208.262
L349.438 207.501
L349.661 199.196
L349.735 201.465
L349.884 198.251
L350.033 206.637
L350.256 222.04
L350.33 221.613
L350.851 240.138
L350.926 238.917
L351.521 200.163
L351.67 207.386
L351.818 202.594
L351.893 202.721
L352.042 209.771
L352.116 208.469
L352.19 207.859
L352.414 221.222
L352.488 219.655
L352.711 217.247
L352.86 212.363
L353.083 205.992
L353.158 207.133
L353.455 222.65
L353.53 222.189
L353.827 217.512
L353.902 217.639
L354.05 222.017
L354.125 221.913
L354.274 220.127
L354.422 221.325
L354.72 210.946
L355.018 223.595
L355.241 215.807
L355.39 216.625
L355.762 230.795
L356.357 196.477
L356.431 196.742
L356.654 209.782
L356.729 209.483
L357.026 204.76
L357.101 205.128
L357.324 213.169
L357.473 218.157
L357.547 217.42
L357.845 209.886
L357.919 210.07
L357.994 208.273
L358.068 208.988
L358.142 210.508
L358.366 229.332
L358.589 243.859
L359.035 236.267
L359.258 216.568
L359.556 195.751
L359.63 196.028
L359.854 203.112
L360.002 199.449
L360.3 205.244
L360.449 211.199
L360.746 233.364
L360.821 232.926
L361.639 203.884
L361.714 203.504
L361.862 207.19
L361.937 210.324
L362.011 210.232
L362.086 210.462
L362.16 211.153
L362.234 209.091
L362.309 209.299
L362.681 225.669
L362.755 226.325
L362.83 225.035
L363.053 235.749
L363.574 192.18
L363.871 215.473
L364.02 214.84
L364.243 216.775
L364.392 213.123
L364.466 213.388
L364.541 215.37
L364.69 222.189
L364.764 222.627
L364.987 216.038
L365.285 226.06
L365.508 221.59
L365.657 223.065
L365.954 215.335
L366.029 215.197
L366.401 203.873
L366.55 208.584
L366.624 208.469
L366.698 209.206
L366.773 206.015
L366.847 207.859
L367.145 228.019
L367.368 233.272
L367.889 206.292
L367.963 205.048
L368.038 205.877
L368.186 211.222
L368.261 212.133
L368.41 208.331
L368.484 212.685
L368.558 212.57
L368.633 212.732
L368.856 218.33
L369.079 226.348
L369.377 217.386
L369.526 223.376
L369.898 205.347
L369.972 204.633
L370.195 218.492
L370.567 229.873
L370.642 227.558
L370.79 214.897
L370.865 216.453
L370.939 217.973
L371.014 215.324
L371.162 219.851
L371.46 209.425
L371.609 204.99
L371.683 205.981
L371.906 213.008
L372.055 222.524
L372.13 220.104
L372.204 213.4
L372.278 214.079
L372.353 211.787
L372.427 213.192
L372.65 222.351
L372.725 223.917
L372.948 213.538
L373.097 219.505
L373.246 210.646
L373.394 217.259
L373.469 217.858
L373.618 224.517
L373.692 224.966
L373.915 209.368
L374.138 218.054
L374.362 203.435
L374.436 201.811
L374.585 214.529
L374.659 213.837
L374.734 215.151
L374.808 213.204
L374.882 214.506
L375.106 224.367
L375.254 220.001
L375.329 221.395
L375.403 221.809
L375.552 218.365
L375.626 215.381
L375.701 216.199
L375.85 217.777
L375.924 223.238
L375.998 222.812
L376.222 211.222
L376.37 214.874
L376.445 207.72
L376.519 208.089
L376.742 219.955
L376.891 221.418
L376.966 226.302
L377.263 211.395
L377.338 213.066
L377.486 210.842
L377.561 215.243
L377.635 214.114
L377.784 214.621
L377.858 212.259
L377.933 213.089
L378.007 212.052
L378.082 209.46
L378.305 215.727
L378.379 216.245
L378.454 213.331
L378.602 219.632
L378.677 219.056
L378.751 216.867
L378.826 216.994
L378.9 219.24
L379.049 226.613
L379.198 231.947
L379.495 208.504
L379.57 207.594
L379.718 196.673
L380.016 224.194
L380.09 221.729
L380.239 226.118
L380.314 225.669
L380.388 225.139
L380.611 217.155
L380.686 212.156
L380.76 212.858
L380.983 215.45
L381.132 209.759
L381.206 211.269
L381.355 203.688
L381.802 215.923
L381.95 208.573
L382.025 209.575
L382.174 216.994
L382.322 213.722
L382.546 224.205
L382.694 222.915
L382.843 219.667
L382.918 214.932
L382.992 217.697
L383.141 233.767
L383.215 232.408
L383.364 226.268
L383.513 218.814
L383.662 203.17
L383.736 204.483
L384.034 216.453
L384.108 215.98
L384.182 218.376
L384.257 217.374
L384.629 205.439
L384.778 213.02
L384.852 212.121
L384.926 212.109
L385.001 212.282
L385.075 209.932
L385.224 214.413
L385.522 231.855
L385.596 231.014
L385.968 210.405
L386.042 212.225
L386.117 211.038
L386.266 217.812
L386.34 216.637
L386.414 215.404
L386.489 211.073
L386.563 211.775
L386.712 219.068
L386.935 214.69
L387.084 219.874
L387.158 217.812
L387.233 220.116
L387.307 217.939
L387.456 207.144
L387.53 209.333
L387.679 218.411
L387.828 203.02
L387.902 205.025
L388.051 220.531
L388.126 218.71
L388.274 227.581
L388.349 227.166
L388.795 206.338
L388.87 209.195
L388.944 209.195
L389.093 213.676
L389.167 212.755
L389.242 214.713
L389.39 211.66
L389.539 218.445
L389.762 231.947
L389.837 232.097
L389.911 229.747
L390.134 210.957
L390.209 209.414
L390.283 212.109
L390.358 209.587
L390.506 211.81
L390.581 206.476
L390.655 210.923
L390.73 209.011
L390.878 214.114
L390.953 210.462
L391.25 232.581
L391.325 230.392
L391.399 229.758
L391.474 232.108
L391.697 218.388
L391.92 203.262
L391.994 202.525
L392.069 205.405
L392.143 205.071
L392.218 205.37
L392.59 218.296
L392.664 220.001
L392.738 219.563
L392.813 220.001
L393.036 225.519
L393.259 216.038
L393.334 212.709
L393.408 213.112
L393.482 213.895
L393.631 211.775
L393.78 209.057
L393.929 210.796
L394.003 207.824
L394.078 208.181
L394.226 204.276
L394.747 233.076
L394.822 231.878
L395.045 220.001
L395.194 218.042
L395.268 222.063
L395.342 221.164
L395.417 217.086
L395.491 219.402
L395.64 210.128
L395.714 208.4
L395.789 202.248
L396.012 221.372
L396.235 236.313
L396.31 233.295
L396.756 187.295
L397.054 202.629
L397.128 204.714
L397.202 203.965
L397.277 204.829
L397.351 207.651
L397.872 253.674
L397.946 251.404
L398.393 177.377
L398.542 178.298
L398.616 180.337
L398.765 200.037
L399.137 265.608
L399.286 283.591
L399.434 277.981
L399.658 240.587
L400.253 153.784
L400.327 150.535
L400.402 152.378
L400.699 206.661
L400.774 201.315
L400.922 191.385
L401.071 209.805
L401.146 207.674
L401.443 183.263
L401.518 188.689
L402.113 341.951
L402.187 338.138
L402.485 300.157
L403.154 81.8989
L403.601 177.688
L403.824 234.435
L404.122 194.127
L404.196 194.23
L404.27 197.859
L405.238 340.638
L405.312 332.977
L405.61 210.347
L405.833 161.421
L405.907 161.617
L406.056 149.199
L406.205 104.363
L406.279 80.7354
L406.354 87.5668
L407.023 262.325
L407.098 266.588
L407.246 311.562
L407.395 348.149
L407.47 348.737
L407.544 339.129
L407.99 205.75
L408.362 126.573
L408.437 121.896
L408.511 123.198
L408.586 125.007
L408.66 124.742
L408.809 105.434
L408.883 110.469
L409.33 203.124
L409.553 244.734
L409.702 289.201
L409.925 358.725
L410.222 345.592
L410.371 293.521
L410.669 157.597
L410.743 153.611
L411.264 216.28
L411.413 214.678
L411.636 255.759
L411.71 244.803
L412.082 114.051
L412.157 108.429
L412.231 110.895
L412.38 139.937
L412.603 208.561
L412.901 159.774
L412.975 169.923
L413.05 177.238
L413.496 278.891
L413.868 353.264
L413.942 349.578
L414.091 345.43
L414.24 305.606
L414.686 136.504
L415.207 207.87
L415.282 206.822
L415.43 172.181
L415.728 108.165
L415.877 151.653
L416.026 198.343
L416.174 195.117
L416.323 222.42
L416.546 254.353
L416.621 246.796
L416.844 205.578
L416.918 202.248
L417.216 262.268
L417.29 256.415
L417.514 208.492
L417.588 209.391
L417.737 231.141
L417.96 279.836
L418.183 252.948
L418.406 284.225
L418.555 261.392
L418.778 222.95
L418.853 227.535
L418.927 223.629
L419.522 125.537
L419.597 125.813
L419.82 165.557
L419.969 186.57
L420.192 226.97
L420.266 223.226
L420.564 159.498
L420.713 163.921
L420.862 206.718
L421.234 353.725
L421.308 355.28
L421.457 330.639
L421.829 181.674
L421.978 138.416
L422.052 140.812
L422.275 175.107
L422.35 172.112
L422.424 164.912
L422.498 166.329
L422.573 169.509
L422.796 200.221
L423.094 295.549
L423.689 224.044
L423.763 225
L423.986 251.416
L424.135 227.42
L424.507 164.739
L424.73 178.46
L424.879 193.194
L425.102 189.772
L425.251 180.153
L425.474 166.099
L425.623 200.278
L425.921 261.369
L425.995 263.039
L426.218 253.063
L426.293 248.109
L426.516 183.39
L426.59 188.493
L427.037 246.428
L427.26 263.339
L427.409 262.049
L427.558 270.504
L427.93 196.477
L428.153 177.331
L428.227 178.183
L428.376 186.316
L428.45 186.604
L428.525 191.777
L428.599 191.5
L428.748 164.993
L428.971 132.737
L429.046 136.285
L429.641 282.163
L429.715 279.444
L429.864 271.046
L430.013 273.949
L430.236 288.913
L430.31 287.024
L430.534 238.306
L430.831 166.029
L431.054 122.829
L431.129 121.965
L431.278 139.211
L432.17 306.216
L432.766 193.148
L433.063 131.804
L433.138 132.103
L433.286 149.406
L433.584 202.94
L433.658 202.732
L433.733 200.255
L433.882 214.483
L434.179 262.394
L434.328 268.961
L434.402 266.864
L434.626 254.883
L434.7 255.16
L434.774 253.8
L435.518 202.364
L435.593 202.836
L435.667 203.423
L435.816 198.412
L436.039 192.433
L436.188 193.758
L436.262 192.502
L436.337 192.986
L436.56 196.12
L436.783 179.589
L436.858 181.501
L437.23 218.445
L437.304 216.556
L437.378 214.068
L437.527 225.876
L437.75 249.1
L437.974 260.298
L438.048 259.722
L438.197 240.61
L438.271 241.37
L438.42 246.739
L438.494 244.204
L439.164 188.067
L439.313 195.74
L439.387 190.89
L439.61 215.98
L439.759 205.785
L439.834 207.974
L439.908 211.084
L440.057 208.239
L440.206 200.083
L440.354 208.296
L440.429 207.951
L440.652 174.405
L440.726 176.075
L441.024 209.494
L441.47 246.796
L441.694 232.696
L441.768 224.263
L441.842 224.885
L441.917 225.876
L441.991 224.931
L442.289 237.834
L442.363 238.571
L442.512 247.061
L442.735 221.372
L442.81 222.282
L442.884 222.27
L443.033 211.695
L443.256 219.667
L443.479 196.419
L443.628 203.458
L443.702 199.449
L443.926 175.603
L444.744 235.011
L444.818 236.336
L445.042 219.966
L445.19 228.007
L445.265 227.235
L445.339 227.915
L445.637 216.268
L445.786 226.291
L445.86 224.77
L446.455 186.282
L446.53 186.224
L446.604 186.42
L446.753 192.376
L447.348 273.131
L447.646 223.007
L447.72 223.664
L447.943 216.959
L448.092 210.52
L448.241 194.323
L448.315 195.198
L448.464 200.175
L448.687 189.404
L448.762 190.728
L449.059 213.077
L449.134 212.133
L449.208 211.557
L449.282 212.19
L449.431 223.249
L449.803 266.576
L449.878 270.585
L449.878 270.585" style="fill:none;stroke:#808080;stroke-linecap:square;"/>
   </g>
  </g>
 </g>
 <defs>
  <clipPath id="p7ff5b81e1d">
   <rect height="345.6" width="446.4" x="72.0" y="43.2"/>
  </clipPath>
 </defs>
</svg>
