<?xml version="1.0" encoding="utf-8" standalone="no"?>
<!DOCTYPE svg PUBLIC "-//W3C//DTD SVG 1.1//EN"
  "http://www.w3.org/Graphics/SVG/1.1/DTD/svg11.dtd">
<!-- Created with matplotlib (http://matplotlib.org/) -->
<svg height="432pt" version="1.1" viewBox="0 0 576 432" width="576pt" xmlns="http://www.w3.org/2000/svg" xmlns:xlink="http://www.w3.org/1999/xlink">
 <defs>
  <style type="text/css">
*{stroke-linecap:butt;stroke-linejoin:round;}
  </style>
 </defs>
 <g id="figure_1">
  <g id="patch_1">
   <path d="
M0 432
L576 432
L576 0
L0 0
z
" style="fill:#ffffff;"/>
  </g>
  <g id="axes_1">
   <g id="line2d_1">
    <path clip-path="url(#p7ff5b81e1d)" d="
M72 252.256
L72.4464 307.138
L72.5952 285.513
L72.9672 215.44
L73.0416 212.621
L73.1904 219.336
L73.4136 233.599
L73.5624 226.608
L74.0088 204.08
L74.0832 203.69
L74.1576 204.613
L74.4552 226.677
L75.1992 314.785
L75.2736 316.059
L75.348 314.869
L75.6456 263.893
L76.092 183.062
L76.2408 176.101
L76.3152 175.469
L76.3896 176.131
L76.5384 183.561
L77.2824 258.739
L77.3568 258.69
L77.5056 259.786
L77.6544 263.069
L77.952 277.5
L78.1752 287.498
L78.324 274.187
L78.8448 192.759
L78.9192 196.872
L79.2912 257.895
L79.3656 256.088
L79.7376 226.756
L79.812 228.188
L80.2584 265.947
L80.4072 256.414
L80.6304 220.2
L80.928 155.854
L81.0024 158.095
L81.1512 181.206
L81.8208 330.895
L81.8952 337.017
L81.9696 336.963
L82.1184 326.185
L82.4904 238.803
L82.788 184.578
L82.9368 175.602
L83.0112 176.6
L83.16 192.991
L83.4576 233.09
L83.6064 237.322
L83.7552 233.747
L83.9784 220.417
L84.276 201.745
L84.3504 202.979
L84.4992 219.148
L84.9456 292.553
L85.3176 314.41
L85.5408 312.42
L85.764 291.225
L85.9872 236.132
L86.2848 162.114
L86.508 144.908
L86.5824 142.454
L86.6568 143.516
L86.9544 174.299
L87.1776 215.48
L87.6984 367.539
L87.8472 341.392
L88.5168 160.203
L88.5912 161.576
L88.74 183.26
L89.2608 305.543
L89.3352 302.941
L89.5584 269.843
L89.9304 208.074
L90.0048 207.254
L90.1536 216.418
L90.5256 240.644
L90.6 240.225
L90.8232 231.836
L91.1952 221.024
L91.2696 218.911
L91.344 219.163
L91.4928 229.027
L91.9392 283.094
L92.0136 282.867
L92.1624 275.091
L92.46 241.128
L92.7576 215.42
L92.832 215.001
L93.0552 219.992
L93.2784 223.31
L93.5016 226.973
L93.6504 236.922
L94.0224 280.576
L94.1712 275.673
L94.3944 259.08
L95.064 200.9
L95.1384 202.268
L95.3616 220.901
L95.808 280.551
L95.8824 279.05
L96.1056 259.405
L96.4776 225.369
L96.552 224.554
L96.7008 235.209
L96.924 247.072
L96.9984 245.863
L97.1472 229.965
L97.3704 198.269
L97.4448 197.859
L98.04 247.191
L98.5608 289.157
L98.6352 288.767
L98.784 281.711
L99.6024 193.944
L99.6768 190.443
L99.7512 191.752
L99.9 208.578
L100.346 274.242
L100.57 293.58
L100.644 290.988
L100.793 269.462
L101.239 186.104
L101.537 160.119
L101.611 164.128
L101.834 211.515
L102.281 317.422
L102.43 326.21
L102.504 326.101
L102.653 316.913
L102.95 258.388
L103.248 197.701
L103.397 189.747
L103.471 190.611
L103.843 203.26
L103.918 203.25
L103.992 203.616
L104.141 212.759
L104.587 275.999
L104.81 300.473
L104.959 283.607
L105.406 198.007
L105.48 200.94
L106.001 260.141
L106.373 275.594
L106.447 274.548
L106.67 256.512
L107.191 157.429
L107.266 159.799
L107.489 190.32
L108.084 330.303
L108.158 329.459
L108.307 319.199
L108.53 275.747
L108.977 175.528
L109.051 174.531
L109.2 183.517
L110.242 279.682
L110.39 277.786
L110.539 270.588
L111.209 217.03
L111.283 218.279
L111.655 247.201
L111.73 245.404
L112.027 218.417
L112.102 219.657
L112.25 239.395
L112.548 305.938
L112.697 269.852
L113.069 181.013
L113.218 171.332
L113.292 174.931
L113.441 204.603
L113.738 290.416
L113.813 292.894
L113.962 254.295
L114.036 235.307
L114.11 238.467
L114.334 272.39
L114.408 266.658
L114.631 195.415
L114.706 200.007
L114.854 241.785
L114.929 241.178
L115.003 255.945
L115.152 348.22
L115.226 344.739
L115.673 169.638
L115.822 185.284
L116.268 255.347
L116.64 229.412
L117.012 278.453
L117.086 274.474
L117.31 261.242
L117.533 275.9
L117.607 270.558
L117.979 141.289
L118.054 142.528
L118.202 173.746
L118.723 331.977
L118.798 327.992
L119.839 181.468
L119.914 181.048
L120.062 211.95
L120.211 238.956
L120.434 212.606
L120.732 296.217
L120.881 287.858
L121.476 221.789
L121.55 222.871
L121.774 233.485
L121.848 233.327
L122.146 216.758
L122.294 224.643
L122.741 280.512
L122.815 280.161
L123.559 213.628
L123.857 250.968
L124.006 213.549
L124.154 193.638
L124.675 284.353
L124.75 280.309
L124.898 244.713
L125.047 203.428
L125.27 262.071
L125.568 166.029
L126.163 294.79
L126.238 293.556
L126.312 289.705
L126.461 312.796
L126.535 306.303
L126.907 135.083
L126.982 135.221
L127.13 163.788
L127.577 356.282
L127.651 352.446
L128.246 197.395
L128.395 208.681
L128.618 226.672
L128.693 224.485
L128.767 224.618
L128.842 223.932
L128.99 215.381
L129.214 195.751
L129.288 198.2
L130.106 280.556
L130.181 281.015
L130.627 266.865
L130.776 261.983
L130.925 263.878
L130.999 264.372
L131.074 261.765
L131.743 184.761
L131.818 187.486
L132.115 225.374
L132.487 268.144
L132.562 270.716
L132.636 270.534
L132.785 263.691
L133.306 231.915
L133.826 242.185
L133.901 242.659
L134.05 247.665
L134.124 247.502
L134.496 242.135
L134.794 222.989
L134.868 223.448
L135.463 254.853
L135.538 254.394
L136.207 235.297
L136.356 241.513
L136.43 241.301
L136.579 238.724
L137.026 199.819
L137.1 202.633
L137.323 225.705
L137.77 294.415
L137.918 296.804
L138.142 282.363
L139.183 183.645
L139.332 194.497
L139.63 232.74
L140.076 283.647
L140.15 281.711
L140.969 232.705
L141.192 230.4
L141.341 235.806
L141.49 242.58
L141.564 242.54
L141.713 240.165
L141.787 240.541
L141.936 244.342
L142.01 243.133
L142.085 240.042
L142.159 240.072
L142.234 240.605
L142.308 239.958
L142.382 240.264
L142.457 240.165
L142.829 217.4
L143.052 213.48
L143.126 215.712
L143.35 239.8
L143.722 279.045
L143.796 282.077
L143.87 281.351
L144.019 275.57
L144.912 222.663
L144.986 222.846
L145.284 215.149
L145.433 221.207
L145.879 241.553
L146.102 245.226
L146.177 245.31
L146.474 249.269
L146.623 253.293
L146.698 256.265
L146.772 254.705
L147.144 234.187
L147.442 250.074
L147.516 249.763
L147.665 241.464
L148.037 214.27
L148.111 214.468
L148.26 222.421
L148.483 251.21
L148.706 285.084
L148.855 270.05
L149.153 231.95
L149.45 235.924
L149.822 222.12
L149.897 223.675
L150.343 254.893
L150.492 256.897
L150.566 256.655
L150.641 255.505
L150.79 245.878
L151.087 206.899
L151.236 183.887
L151.31 188.789
L151.534 268.307
L151.682 299.668
L151.831 292.766
L152.203 255.14
L152.65 125.614
L152.798 175.464
L153.17 337.358
L153.319 347.267
L153.468 328.126
L154.138 179.369
L154.212 180.821
L154.435 195.277
L154.807 253.002
L154.882 250.212
L155.179 194.215
L155.254 194.872
L155.477 235.49
L155.849 289.25
L155.998 294.43
L156.146 286.076
L156.518 239.242
L156.89 185.042
L157.114 222.841
L157.411 258.783
L157.634 263.577
L157.858 266.999
L158.006 261.385
L158.23 234.784
L158.527 209.545
L158.602 209.328
L158.75 221.098
L159.048 249.892
L159.122 252.103
L159.271 246.075
L159.569 230.415
L159.643 232.661
L160.164 267.562
L160.238 269.22
L160.387 265.537
L160.536 251.195
L160.908 213.411
L161.503 191.199
L161.578 192.828
L161.726 213.169
L162.322 333.547
L162.47 317.935
L163.214 191.372
L163.363 197.133
L164.107 247.902
L164.256 249.344
L164.33 248.845
L164.554 239.677
L165.149 194.719
L165.298 208.346
L165.595 291.023
L165.818 325.884
L165.893 323.968
L166.116 296.859
L166.934 183.349
L167.009 184.702
L167.158 196.941
L167.381 214.117
L167.604 228.055
L167.976 274.735
L168.05 269.739
L168.199 259.756
L168.348 260.734
L168.571 281.47
L168.646 281.228
L169.092 198.955
L169.166 204.82
L169.538 299.401
L169.687 322.69
L169.836 254.197
L170.059 121.486
L170.134 115.898
L170.357 187.452
L170.729 271.556
L170.952 287.685
L171.101 279.687
L171.547 251.55
L171.696 247.201
L171.845 249.882
L172.068 252.464
L172.142 251.61
L172.291 243.809
L172.589 228.035
L172.738 224.371
L172.961 217.904
L173.035 218.047
L173.258 227.788
L173.928 251.146
L174.002 251.027
L174.449 246.485
L174.895 236.142
L174.97 236.186
L175.193 238.052
L175.267 237.929
L175.342 237.924
L175.49 240.328
L175.714 245.182
L175.788 245.068
L176.011 242.283
L176.16 244.885
L176.234 246.179
L176.309 246.129
L176.606 241.306
L176.681 241.898
L176.755 241.706
L176.904 238.729
L177.127 233.481
L177.202 232.932
L177.276 233.318
L177.648 241.202
L177.871 240.457
L178.094 238.64
L178.169 238.571
L178.318 237.208
L178.392 237.934
L178.69 249.319
L178.764 248.746
L179.062 241.474
L179.359 243.73
L179.434 244.16
L179.508 243.849
L179.954 237.573
L180.029 237.904
L180.103 238.082
L180.252 236.966
L180.326 237.731
L180.55 241.489
L180.624 241.632
L180.773 240.022
L180.922 238.423
L181.145 242.056
L181.219 241.967
L181.368 240.792
L181.591 235.184
L181.666 234.962
L181.889 236.245
L182.41 247.932
L182.484 249.274
L182.558 248.865
L182.782 245.493
L183.154 241.888
L183.451 231.925
L183.823 236.467
L183.898 236.008
L184.121 230.178
L184.27 235.307
L184.567 243.923
L184.642 244.727
L184.716 244.357
L184.79 244.683
L184.939 249.778
L185.162 255.564
L185.237 256.433
L185.311 255.846
L185.609 245.532
L185.981 231.234
L186.055 231.121
L186.204 232.607
L186.353 234.038
L186.576 231.807
L186.799 235.737
L187.022 238.586
L187.171 240.136
L187.469 248.889
L187.915 240.753
L187.99 241.187
L188.138 242.807
L188.287 241.454
L188.51 239.558
L188.585 240.235
L188.808 245.354
L188.957 242.866
L189.254 237.425
L189.626 230.345
L189.701 230.903
L189.924 235.001
L190.445 255.984
L190.519 257.697
L190.594 257.687
L190.742 248.954
L191.04 232.804
L191.114 233.49
L191.338 237.899
L191.412 237.899
L191.635 239.938
L191.71 239.751
L191.933 240.936
L192.305 236.211
L192.379 236.349
L192.528 238.941
L192.826 243.691
L192.9 243.878
L193.049 241.316
L193.644 231.209
L193.867 235.747
L194.388 253.491
L194.462 252.439
L194.909 212.409
L195.058 226.578
L195.578 299.865
L195.653 300.887
L195.802 292.568
L196.099 241.459
L196.471 173.746
L196.62 169.461
L196.769 176.728
L196.992 201.014
L197.662 292.83
L197.736 291.304
L198.108 272.252
L198.703 234.241
L199.224 204.569
L199.298 205.596
L199.447 214.132
L199.894 257.317
L199.968 257.618
L200.191 238.852
L200.414 230.108
L200.563 237.085
L201.01 266.411
L201.084 265.848
L201.233 255.342
L201.605 224.021
L201.679 222.95
L201.902 229.106
L202.423 245.596
L202.572 246.584
L202.721 245.502
L203.167 232.345
L203.242 231.787
L203.39 235.075
L203.986 258.453
L204.06 259.401
L204.134 259.326
L204.209 258.225
L205.176 221.947
L205.697 225.127
L205.771 224.816
L205.92 228.4
L206.143 243.77
L206.515 276.202
L206.664 278.226
L206.813 271.22
L207.482 219.716
L207.78 214.734
L208.003 210.375
L208.152 214.705
L208.375 230.726
L208.822 266.164
L208.97 268.687
L209.045 268.771
L209.194 266.248
L209.491 257.87
L209.789 245.369
L210.235 236.788
L210.31 236.709
L210.384 236.403
L210.533 233.51
L210.83 217.015
L211.054 208.745
L211.128 208.953
L211.277 212.043
L211.5 229.728
L211.946 272.474
L212.095 275.338
L212.17 275.071
L212.318 272
L212.616 254.937
L213.137 216.502
L213.583 204.272
L213.658 204.806
L213.806 212.977
L214.327 271.358
L214.402 270.672
L214.848 256.374
L214.922 257.307
L215.22 271.457
L215.294 270.277
L215.443 260.22
L215.964 196.649
L216.038 196.802
L216.262 207.205
L217.006 261.252
L217.08 261.469
L217.154 261.198
L217.452 255.984
L217.675 249.818
L218.345 220.042
L218.419 221.034
L218.568 223.458
L218.866 235.238
L218.94 234.517
L219.238 220.308
L219.312 222.14
L219.907 286.204
L219.982 282.729
L220.428 247.843
L220.651 235.455
L220.726 235.776
L220.949 239.677
L221.098 233.787
L221.544 210.967
L221.693 206.356
L221.916 197.78
L221.99 199.281
L222.139 212.369
L222.66 281.228
L222.734 281.425
L222.958 276.246
L223.181 266.293
L224.074 217.045
L224.148 217.479
L224.446 227.289
L224.818 239.543
L224.966 241.286
L225.041 240.931
L225.19 237.692
L225.264 238.245
L225.487 245.986
L225.859 266.624
L225.934 266.949
L226.157 254.765
L226.752 199.108
L226.901 214.507
L227.273 263.266
L227.496 272.805
L227.57 271.531
L227.794 248.48
L228.166 212.73
L228.24 211.604
L228.314 212.661
L228.463 224.421
L228.761 263.059
L228.835 261.953
L229.505 209.92
L229.579 210.987
L229.728 227.196
L230.174 297.807
L230.249 299.87
L230.323 298.404
L230.621 267.759
L231.067 198.096
L231.216 192.64
L231.588 207.008
L232.555 263.286
L232.704 265.241
L232.927 256.463
L233.225 249.235
L233.374 245.68
L233.448 245.932
L233.671 249.867
L233.82 243.261
L234.118 228.578
L234.266 230.523
L234.49 240.388
L234.787 256.127
L234.862 256.897
L234.936 255.609
L235.159 242.165
L235.457 226.781
L235.754 223.71
L235.829 223.419
L235.978 225.147
L236.052 225.334
L236.126 226.149
L236.87 253.634
L236.945 254.128
L237.094 258.176
L237.317 263.953
L237.466 256.981
L237.838 232.72
L238.061 226.944
L238.135 227.6
L238.284 238.941
L238.507 262.753
L238.582 260.758
L238.805 219.276
L239.028 181.848
L239.102 178.535
L239.177 182.238
L239.4 222.984
L239.772 286.007
L239.846 286.94
L239.995 281.208
L240.144 275.718
L240.218 276.379
L240.293 278.32
L240.367 278.26
L240.516 266.278
L240.814 235.125
L241.111 216.324
L241.409 198.881
L241.483 199.044
L241.632 204.337
L242.674 267.754
L242.748 267.695
L242.897 264.989
L243.046 266.841
L243.12 268.455
L243.194 268.371
L243.343 260.131
L243.641 243.138
L243.79 232.231
L244.087 205.62
L244.162 206.42
L244.459 219.612
L244.682 246.149
L244.906 270.642
L244.98 269.191
L245.65 222.436
L245.724 225.482
L245.947 234.907
L246.022 235.342
L246.319 241.474
L246.542 255.94
L246.617 254.784
L246.84 246.885
L246.914 246.786
L247.063 240.753
L247.361 221.641
L247.435 222.471
L247.658 229.486
L247.807 227.729
L247.956 236.384
L248.254 252.059
L248.7 268.287
L248.849 260.773
L249.146 240.669
L249.295 234.922
L249.593 225.655
L249.742 225.324
L249.816 223.981
L250.114 209.007
L250.337 230.015
L250.858 272.997
L251.006 266.278
L251.304 252.681
L251.378 251.945
L251.527 242.427
L251.676 232.286
L251.75 233.579
L251.974 242.55
L252.122 237.252
L252.271 230.192
L252.569 241.271
L252.643 239.499
L252.792 236.507
L252.941 242.688
L253.015 242.446
L253.164 236.769
L253.313 225.463
L253.387 225.472
L253.759 235.994
L253.908 237.697
L254.131 249.181
L254.206 250.533
L254.429 242.471
L254.503 242.886
L254.726 246.362
L254.95 238.171
L255.024 238.363
L255.322 250.973
L255.47 242.915
L255.545 237.613
L255.619 237.751
L255.842 234.33
L256.066 225.561
L256.289 248.213
L256.512 266.772
L256.586 265.276
L257.256 218.289
L257.33 218.442
L257.702 231.58
L257.926 235.495
L258 237.801
L258.298 226.652
L258.446 230.543
L258.818 246.895
L258.893 246.712
L258.967 247.798
L259.265 261.282
L259.339 260.003
L259.414 257.687
L259.488 258.038
L259.786 252.597
L260.158 234.814
L260.306 237.865
L260.381 237.351
L260.604 233.94
L260.678 233.984
L260.902 234.952
L260.976 233.742
L261.199 224.826
L261.497 232.459
L261.571 232.414
L261.646 231.92
L262.018 238.156
L262.092 237.208
L262.166 235.194
L262.315 239.973
L262.687 264.52
L262.762 264.244
L263.134 255.629
L263.431 242.15
L263.952 226.598
L264.101 225.008
L264.25 225.705
L264.473 219.034
L264.622 225.161
L265.142 252.168
L265.366 269.487
L265.514 272.647
L265.589 272.563
L265.663 271.887
L265.812 267.369
L266.705 202.273
L266.854 201.28
L267.002 207.639
L267.598 264.802
L267.672 264.308
L267.821 262.703
L267.97 265.463
L268.044 265.449
L268.416 262.323
L268.565 255.209
L268.788 226.623
L269.011 206.193
L269.086 205.581
L269.16 206.326
L269.309 214.961
L269.681 244.821
L269.755 243.72
L269.978 238.166
L270.127 245.843
L270.35 257.016
L270.425 256.971
L270.648 249.98
L270.871 254.715
L271.094 250.578
L271.838 225.137
L272.136 219.558
L272.21 220.496
L272.434 232.271
L272.731 247.68
L273.103 262.773
L273.178 262.595
L273.55 255.441
L273.847 235.006
L274.07 217.035
L274.145 217.306
L274.368 233.441
L274.74 257.914
L274.814 257.524
L275.186 242.145
L275.707 211.392
L275.782 210.543
L275.93 225.379
L276.228 264.629
L276.302 264.886
L276.526 254.35
L277.121 216.186
L277.195 220.58
L277.567 280.26
L277.642 278.359
L277.939 255.377
L278.386 187.55
L278.46 187.995
L278.534 192.7
L278.981 284.224
L279.055 283.044
L279.353 237.682
L279.427 238.052
L279.576 240.58
L279.725 244.194
L280.022 201.162
L280.32 287.29
L280.394 267.586
L280.618 200.535
L280.99 269.374
L281.213 299.569
L281.436 281.46
L281.585 272.988
L281.734 254.478
L281.957 186.933
L282.106 157.281
L282.18 157.463
L282.403 174.852
L282.626 198.131
L282.701 195.938
L282.775 198.782
L283.147 265.814
L283.445 344.66
L283.519 351.35
L283.594 350.382
L283.742 329.676
L284.338 196.768
L284.635 174.556
L284.784 179.039
L285.454 267.448
L285.528 266.298
L285.677 258.028
L286.123 228.069
L286.198 228.612
L286.495 240.585
L286.793 255.352
L286.867 256.67
L286.942 256.517
L287.239 242.491
L287.537 226.03
L287.611 226.223
L287.76 234.211
L288.206 261.765
L288.355 254.799
L288.876 219.75
L289.025 225.685
L289.471 250.706
L289.769 256.191
L289.918 255.471
L290.066 250.578
L290.662 210.74
L290.736 211.224
L290.885 211.411
L291.034 215.193
L291.182 232.488
L291.48 275.273
L291.926 302.186
L292.001 300.715
L292.15 289.132
L292.373 238.358
L292.745 84.8923
L292.819 99.9703
L293.489 335.24
L293.563 337.205
L293.786 319.239
L294.084 272.854
L294.53 162.336
L294.605 167.836
L294.754 211.407
L295.051 302.072
L295.2 284.224
L295.721 144.039
L295.795 148.463
L296.39 272.602
L296.688 355.778
L296.837 322.24
L297.209 236.166
L297.506 213.801
L297.581 212.74
L297.73 216.284
L297.878 230.622
L298.102 251.822
L298.25 236.951
L298.474 216.067
L298.548 216.477
L299.069 244.194
L299.292 257.164
L299.366 255.925
L299.59 243.118
L299.813 229.249
L300.11 233.569
L300.185 233.871
L300.334 237.252
L300.482 241
L300.706 232.691
L300.854 241.582
L301.152 276.641
L301.226 275.688
L301.822 228.277
L301.896 227.902
L302.045 238.087
L302.342 262.002
L302.417 261.765
L302.566 265.054
L302.714 247.882
L303.012 182.855
L303.533 207.131
L304.426 320.182
L304.574 300.241
L305.021 226.035
L305.095 226.341
L305.244 230.182
L305.318 230.054
L305.393 228.731
L305.839 202.238
L305.914 205.191
L306.36 244.1
L306.434 241.73
L307.104 211.323
L307.178 213.495
L307.327 234.749
L307.699 291.28
L307.774 292.405
L307.922 282.215
L308.294 226.055
L308.369 231.649
L308.443 239.933
L308.518 239.538
L308.815 169.179
L308.964 207.175
L309.336 314.124
L309.485 321.051
L309.634 297.051
L310.006 222.668
L310.452 174.788
L310.526 176.847
L310.675 194.255
L311.122 261.77
L311.419 288.628
L311.494 286.812
L311.642 270.593
L312.089 207.057
L312.163 207.896
L312.386 223.043
L312.684 261.237
L312.758 258.734
L313.056 228.134
L313.205 244.673
L313.428 267.478
L313.502 266.559
L313.651 259.094
L313.949 238.966
L314.023 242.372
L314.321 269.206
L314.618 233.347
L314.842 186.711
L314.99 164.049
L315.065 164.04
L315.214 180.011
L316.106 331.019
L316.255 316.908
L317.222 177.557
L317.297 180.614
L317.594 191.145
L317.966 234.137
L318.264 268.623
L318.636 214.265
L318.71 221.691
L319.082 303.104
L319.157 301.998
L319.306 284.491
L319.752 227.976
L319.826 229.486
L320.198 254.942
L320.273 252.498
L320.794 215.218
L321.24 164.523
L321.314 166.276
L321.463 186.449
L322.207 327.38
L322.282 326.343
L322.43 314.311
L322.728 262.264
L323.174 185.763
L323.398 180.525
L323.472 181.986
L323.621 192.631
L324.216 266.717
L324.29 268.253
L324.365 267.285
L324.514 259.396
L324.96 230.415
L325.034 229.541
L325.109 229.699
L325.183 229.333
L325.258 229.506
L325.406 237.514
L325.927 277.51
L326.002 275.436
L326.225 253.16
L326.597 219.582
L326.746 216.684
L326.969 219.814
L327.192 216.329
L327.266 216.457
L327.415 221.31
L327.787 237.914
L327.862 236.3
L327.936 234.182
L328.085 237.993
L328.159 240.886
L328.457 281.109
L328.68 304.743
L328.754 305.311
L328.978 290.114
L329.275 264.12
L329.498 217.534
L329.87 141.669
L329.945 140.702
L330.094 155.089
L330.912 289.463
L331.061 294.77
L331.135 292.771
L331.284 276.779
L331.582 244.406
L331.73 243.913
L331.805 244.194
L331.879 244.125
L332.028 240.797
L332.474 218.373
L332.623 222.165
L333.367 263.079
L333.442 261.884
L333.888 245.818
L334.111 244.179
L334.334 232.459
L334.632 217.193
L334.706 217.874
L334.781 219.963
L334.855 219.484
L335.004 217.287
L335.153 225.393
L335.376 235.495
L335.599 224.712
L335.674 225.344
L335.897 246.154
L336.343 278.201
L336.641 283.212
L336.715 282.496
L336.864 270.425
L337.459 187.086
L337.608 176.116
L337.682 178.836
L337.906 217.395
L338.203 272.237
L338.352 280.477
L338.426 279.386
L338.798 245.907
L339.17 208.538
L339.245 207.753
L339.319 210.306
L339.542 237.213
L339.989 290.253
L340.063 288.92
L340.212 276.157
L340.882 200.574
L341.03 206.223
L341.328 240.141
L341.626 281.094
L341.7 283.044
L341.849 267.265
L341.923 278.705
L342.072 245.226
L342.37 155.849
L342.518 163.111
L342.667 173.001
L342.89 222.184
L343.262 287.671
L343.486 301.43
L343.56 300.636
L343.858 292.484
L344.006 294.148
L344.155 291.388
L344.378 271.571
L345.048 182.505
L345.271 177.987
L345.346 177.306
L345.42 178.308
L345.718 198.432
L346.462 277.095
L346.685 282.477
L346.759 281.208
L348.173 223.715
L348.247 223.789
L348.396 226.164
L348.545 234.893
L348.917 267.038
L348.991 265.582
L349.214 243.656
L349.661 200.639
L349.735 200.229
L349.884 207.783
L350.628 273.763
L350.851 296.103
L350.926 295.807
L351.074 284.605
L351.67 196.684
L351.744 195.341
L351.818 198.293
L352.042 232.143
L352.339 269.359
L352.414 271.358
L352.488 271.062
L352.637 263.622
L353.306 205.521
L353.381 206.489
L353.53 218.052
L354.05 281.223
L354.199 287.083
L354.348 267.764
L354.72 191.841
L354.794 189.979
L354.869 191.337
L355.092 209.451
L355.464 269.897
L355.762 316.375
L355.836 314.761
L355.985 296.849
L356.506 214.142
L356.803 207.338
L357.25 185.329
L357.324 187.131
L357.473 200.017
L358.068 278.922
L358.291 286.471
L358.366 286.614
L358.514 280.038
L359.333 216.897
L359.482 213.905
L359.556 215.228
L359.854 235.426
L360.151 248.218
L360.449 245.172
L360.523 245.448
L360.598 245.621
L360.746 246.84
L361.044 239.435
L361.118 239.81
L361.267 241.074
L361.416 239.089
L361.639 240.565
L361.714 240.2
L361.862 238.284
L362.011 239.864
L362.458 246.682
L362.532 245.799
L362.681 246.919
L362.755 245.976
L363.202 228.81
L363.499 241.869
L363.722 252.261
L363.797 252.572
L364.02 247.862
L364.392 232.004
L364.466 232.715
L364.913 238.931
L364.987 238.966
L365.434 235.13
L365.582 236.354
L365.657 237.252
L365.731 236.675
L365.954 245.093
L366.178 253.382
L366.252 251.94
L366.698 224.075
L366.847 229.812
L367.368 265.063
L367.442 264.115
L367.517 263.661
L367.591 262.146
L368.558 205.077
L368.633 206.909
L368.782 221.414
L369.228 273.121
L369.302 274.395
L369.451 268.964
L369.749 250.711
L370.046 235.954
L370.344 229.274
L370.79 212.409
L370.939 217.237
L371.46 253.155
L371.534 253.461
L371.609 253.274
L371.683 253.733
L371.832 252.212
L371.906 253.056
L372.278 261.296
L372.353 262.126
L372.502 258.482
L372.874 237.065
L373.32 209.891
L373.469 207.674
L373.692 216.22
L374.362 255.762
L374.734 265.473
L374.808 266.337
L374.882 266.021
L375.106 263.034
L375.329 250.726
L375.701 231.387
L375.775 231.224
L375.924 237.129
L376.147 246.248
L376.222 244.683
L376.519 217.257
L376.742 206.845
L376.891 212.113
L377.486 257.376
L377.71 264.58
L377.858 258.778
L378.379 229.393
L378.454 229.299
L378.528 229.783
L378.751 240.067
L379.049 249.595
L379.346 253.481
L379.421 253.125
L379.57 246.48
L379.867 221.266
L379.942 221.76
L380.686 253.116
L380.76 253.259
L380.909 248.149
L381.132 242.076
L381.281 241.345
L381.355 240.249
L381.43 240.704
L381.653 243.33
L381.727 243.217
L382.025 233.431
L382.099 233.559
L382.248 234.814
L382.322 234.735
L382.471 224.386
L382.694 205.467
L382.769 208.415
L382.992 241.987
L383.29 272.425
L383.513 276.202
L383.587 275.876
L383.736 267.488
L384.182 229.965
L384.48 220.066
L384.554 220.244
L384.703 223.285
L384.852 226.144
L384.926 226.119
L385.075 231.718
L385.447 254.34
L385.522 253.698
L385.968 239.114
L386.191 235.189
L386.414 228.805
L386.489 230.153
L386.712 248.272
L386.935 261.198
L387.01 261.168
L387.158 255.451
L387.456 237.968
L387.53 237.45
L387.679 244.619
L387.977 258.309
L388.051 257.796
L388.2 250.44
L388.349 230.785
L388.721 163.837
L388.87 190.888
L389.316 289.453
L389.39 291.043
L389.465 289.552
L389.688 270.178
L390.209 221.819
L390.358 230.35
L390.73 254.888
L390.804 254.088
L390.953 247.324
L391.399 218.891
L391.474 219.331
L391.622 225.29
L391.771 240.23
L392.143 291.107
L392.292 281.075
L392.664 209.525
L392.962 168.024
L393.036 167.994
L393.185 182.756
L394.003 309.3
L394.152 296.829
L394.375 243.444
L394.673 172.887
L394.747 169.816
L394.896 190.572
L395.342 283.918
L395.491 290.539
L395.566 289.571
L395.714 279.618
L396.086 240.16
L396.161 241.913
L396.384 251.378
L396.533 240.817
L397.054 170.048
L397.128 170.305
L397.277 179.271
L398.318 319.574
L398.467 312.208
L398.69 284.728
L399.36 173.065
L399.434 173.445
L399.509 176.328
L399.732 209.674
L399.955 243.157
L400.104 259.139
L400.402 294.943
L400.476 295.081
L400.625 273.501
L400.922 212.093
L401.294 252.943
L401.369 251.99
L401.518 244.895
L402.038 182.272
L402.113 183.196
L402.262 200.249
L402.931 290.781
L403.006 291.823
L403.154 287.522
L403.452 271.487
L404.122 209.604
L404.196 210.765
L404.419 218.881
L404.642 228.321
L404.791 229.605
L404.94 236.161
L405.089 243.404
L405.163 242.634
L405.386 228.02
L405.461 228.311
L405.758 250.435
L405.833 248.697
L405.907 245.838
L405.982 250.272
L406.279 291.921
L406.726 253.841
L406.949 191.189
L407.172 150.221
L407.321 168.927
L407.842 266.313
L408.139 285.123
L408.362 289.092
L408.437 288.969
L408.511 286.654
L408.66 271.171
L409.106 196.788
L409.181 197.894
L409.404 216.852
L409.85 258.067
L409.925 258.561
L410.222 268.549
L410.297 267.181
L410.446 256.749
L410.743 233.505
L410.966 238.773
L411.115 223.473
L411.413 189.599
L411.487 192.25
L411.71 222.718
L412.008 259.953
L412.306 274.948
L412.38 273.861
L412.603 257.826
L412.901 237.662
L413.347 217.874
L413.422 220.387
L413.719 246.391
L414.017 269.225
L414.166 271.635
L414.24 270.549
L414.538 257.016
L414.686 239.38
L415.133 162.371
L415.207 166.493
L415.505 224.836
L416.1 330.54
L416.174 329.365
L416.323 302.092
L416.695 207.042
L416.918 197.903
L416.993 197.059
L417.067 197.829
L417.29 209.052
L417.662 245.103
L417.811 237.415
L418.034 218.709
L418.109 218.946
L418.258 231.471
L418.778 296.098
L418.853 293.235
L419.82 203.759
L419.894 204.746
L420.043 211.066
L420.564 240.318
L420.787 239.558
L420.936 241.938
L421.234 253.007
L421.308 252.459
L421.531 243.898
L421.606 244.831
L421.754 253.239
L422.052 276.113
L422.126 274.311
L422.275 259.396
L422.722 203.403
L422.796 203.374
L422.945 208.01
L423.168 222.071
L423.391 239.464
L423.763 292.079
L423.838 291.443
L424.061 271.269
L424.507 220.298
L424.879 137.364
L425.028 163.343
L425.549 314.983
L425.623 314.909
L425.921 276.784
L425.995 283.153
L426.144 301.327
L426.218 299.307
L426.367 254.799
L426.665 137.883
L426.814 177.873
L427.186 352.401
L427.334 298.596
L427.558 200.239
L427.855 171.746
L427.93 173.158
L428.153 205.038
L428.376 238.571
L428.45 237.86
L428.674 228.993
L428.822 242.97
L429.269 304.625
L429.343 308.811
L429.418 303.4
L429.864 228.859
L429.938 227.408
L430.087 204.934
L430.236 183.576
L430.31 185.358
L431.352 289.897
L431.426 288.293
L431.575 274.696
L431.873 231.639
L432.096 258.221
L432.319 246.302
L432.542 256.665
L432.691 240.289
L432.989 122.227
L433.063 133.429
L433.361 296.745
L433.435 295.328
L433.51 290.83
L433.658 304.22
L433.733 298.389
L434.179 217.376
L434.254 218.407
L434.477 254.863
L434.551 252.103
L434.849 220.585
L434.998 235.603
L435.221 261.025
L435.37 250.978
L435.816 164.716
L435.89 148.626
L435.965 149.89
L436.486 295.249
L436.709 322.107
L436.783 321.06
L436.858 322.468
L436.932 320.888
L437.081 298.641
L437.378 194.408
L437.527 165.264
L437.676 187.116
L437.899 233.165
L437.974 229.407
L438.346 156.036
L438.42 163.699
L438.643 272.844
L438.866 338.464
L439.015 309.029
L439.313 257.337
L439.536 238.462
L439.759 216.566
L439.834 215.687
L440.057 227.595
L440.206 223.725
L440.28 223.952
L440.354 222.905
L440.578 228.731
L440.652 231.856
L440.875 266.377
L440.95 261.222
L441.173 200.634
L441.322 225.734
L441.619 293.368
L441.842 231.17
L441.917 244.357
L441.991 241.064
L442.214 168.903
L442.512 311.789
L442.586 307.706
L442.81 250.41
L442.884 250.958
L443.033 266.347
L443.107 265.137
L443.256 240.121
L443.554 189.372
L443.777 155.419
L443.851 158.377
L444.298 305.444
L444.372 308.204
L444.744 283.128
L445.042 228.696
L445.19 223.034
L445.414 263.172
L445.86 155.232
L445.934 162.149
L446.232 228.257
L446.306 230.034
L446.604 273.619
L446.753 262.392
L446.827 262.674
L446.902 264.436
L446.976 263.676
L447.199 256.058
L447.348 266.841
L447.497 256.784
L447.571 259.598
L447.646 259.43
L447.794 255.806
L447.943 234.542
L448.092 217.455
L448.166 217.257
L448.315 214.64
L448.613 245.29
L448.687 244.678
L448.985 222.298
L449.208 238.003
L449.282 235.786
L449.357 230.972
L449.506 200.481
L449.878 260.422
L449.878 260.422" style="fill:none;stroke:#808080;stroke-linecap:square;"/>
   </g>
  </g>
 </g>
 <defs>
  <clipPath id="p7ff5b81e1d">
   <rect height="345.6" width="446.4" x="72.0" y="43.2"/>
  </clipPath>
 </defs>
</svg>
