<?xml version="1.0" encoding="utf-8" standalone="no"?>
<!DOCTYPE svg PUBLIC "-//W3C//DTD SVG 1.1//EN"
  "http://www.w3.org/Graphics/SVG/1.1/DTD/svg11.dtd">
<!-- Created with matplotlib (http://matplotlib.org/) -->
<svg height="432pt" version="1.1" viewBox="0 0 576 432" width="576pt" xmlns="http://www.w3.org/2000/svg" xmlns:xlink="http://www.w3.org/1999/xlink">
 <defs>
  <style type="text/css">
*{stroke-linecap:butt;stroke-linejoin:round;}
  </style>
 </defs>
 <g id="figure_1">
  <g id="patch_1">
   <path d="
M0 432
L576 432
L576 0
L0 0
z
" style="fill:#ffffff;"/>
  </g>
  <g id="axes_1">
   <g id="line2d_1">
    <path clip-path="url(#p7ff5b81e1d)" d="
M72 220.058
L72.0744 222.166
L72.1488 222.632
L72.2232 222.58
L72.2976 222.385
L73.1904 208.532
L73.4136 214.822
L73.488 214.701
L73.6368 211.383
L73.86 202.72
L73.9344 202.743
L74.0088 203.221
L74.1576 210.53
L74.4552 225.99
L74.604 228.104
L74.6784 227.448
L74.8272 223.721
L75.1248 213.209
L75.1992 212.362
L75.348 213.554
L75.4224 213.359
L75.72 220.236
L75.8688 219.741
L76.3896 224.815
L76.464 224.32
L76.836 219.654
L77.3568 202.409
L77.4312 202.346
L77.58 203.486
L78.0264 209.039
L78.3984 219.677
L78.6216 219.735
L78.7704 220.893
L79.068 225.697
L79.2168 226.082
L79.2912 225.247
L79.5144 216.953
L79.5888 216.498
L79.7376 218.042
L79.9608 215.213
L80.3328 219.061
L80.4072 218.819
L80.6304 212.293
L80.7048 212.742
L80.7792 212.921
L80.928 212.27
L81.0024 211.32
L81.2256 205.738
L81.3 205.249
L81.4488 206.919
L81.5976 211.389
L82.044 231.307
L82.1184 230.109
L82.4904 216.135
L82.7136 210.744
L82.9368 208.826
L83.0112 209.499
L83.4576 218.45
L83.6808 221.843
L84.0528 219.13
L84.1272 219.188
L84.4248 213.75
L84.4992 214.793
L84.648 217.396
L84.7968 215.409
L84.8712 215.985
L85.02 215.306
L85.2432 217.846
L85.6152 212.235
L85.6896 212.247
L85.764 213.837
L86.0616 208.63
L86.2848 198.296
L86.6568 210.721
L86.9544 229.06
L87.1776 239.826
L87.252 240.782
L87.4008 238.248
L87.6984 223.64
L88.2192 191.897
L88.368 196.257
L89.1864 239.584
L89.2608 240.661
L89.4096 234.066
L89.856 197.248
L90.0048 189.76
L90.5256 204.402
L90.8232 217.707
L90.972 219.591
L91.344 230.57
L91.4928 232.943
L91.5672 232.925
L91.7904 236.162
L91.9392 231.716
L92.3112 218.18
L92.5344 210.438
L92.6088 210.3
L92.7576 207.777
L93.1296 200.45
L93.2784 200.646
L93.3528 200.422
L93.4272 199.759
L93.7248 205.035
L93.7992 204.488
L93.948 202.086
L94.0224 203.29
L94.6176 231.192
L94.8408 236.842
L95.2872 231.647
L95.3616 231.29
L95.436 231.981
L95.5848 228.692
L95.808 213.917
L96.18 188.389
L96.3288 185.342
L96.4032 186.154
L96.552 193.93
L96.9984 221.112
L97.3704 235.039
L97.4448 235.068
L97.668 233.006
L97.8912 221.981
L98.1888 207.915
L98.2632 208.129
L98.5608 210.721
L98.784 207.553
L98.8584 207.973
L99.0816 211.798
L99.4536 218.79
L99.528 219.263
L99.6024 219.165
L99.6768 218.606
L99.7512 218.859
L99.8256 219.309
L99.9744 221.947
L100.123 220.645
L100.346 218.22
L100.421 220.046
L100.495 219.597
L100.644 217.713
L100.718 218.168
L100.793 217.903
L100.942 214.586
L101.016 214.626
L101.09 215.876
L101.165 215.259
L101.834 201.988
L101.909 202.507
L102.578 225.789
L102.876 240.298
L103.099 231.802
L103.322 218.779
L103.546 205.583
L103.62 205.577
L103.992 211.429
L104.066 211.999
L104.141 211.809
L104.438 207.27
L104.513 206.689
L104.587 208.324
L104.959 223.237
L105.034 223.289
L105.108 224.015
L105.331 231.053
L106.075 208.082
L106.298 213.848
L106.373 213.745
L106.522 209.937
L106.745 202.248
L106.819 202.513
L106.968 204.027
L107.117 203.434
L107.563 219.821
L107.712 219.931
L108.382 241.94
L108.53 234.002
L109.126 177.347
L109.2 178.211
L109.349 185.786
L110.167 246.559
L110.316 249.589
L110.39 248.754
L110.762 228.075
L111.283 210.749
L111.358 210.911
L111.432 210.778
L111.581 207.028
L111.73 201.338
L111.804 201.211
L112.027 203.411
L112.102 203.446
L112.25 199.725
L112.399 202.011
L112.474 203.307
L112.548 203.123
L112.622 203.405
L112.771 209.684
L112.994 218.934
L113.143 219.067
L113.441 223.871
L113.664 217.535
L113.738 218.888
L113.813 219.856
L113.962 218.312
L114.036 218.433
L114.11 218.525
L114.185 217.88
L114.334 223.951
L114.408 223.663
L114.557 218.289
L114.631 218.525
L114.706 219.24
L114.78 219.003
L114.854 218.157
L115.152 225.743
L115.226 225.904
L115.375 220.052
L115.673 206.527
L115.747 206.758
L116.045 215.956
L116.119 215.72
L116.417 208.451
L116.714 214.643
L116.789 215.789
L116.863 215.398
L117.012 213.514
L117.161 205.226
L117.235 206.274
L117.83 236.301
L117.905 238.311
L118.054 230.984
L118.351 208.745
L118.574 207.875
L118.649 208.048
L118.798 210.582
L119.021 204.459
L119.095 204.788
L119.318 212.414
L119.542 218.232
L119.765 215.784
L119.839 215.162
L120.062 219.384
L120.286 226.106
L120.36 225.576
L120.583 220.363
L120.732 212.892
L120.806 213.434
L120.955 214.557
L121.03 214.447
L121.178 213.29
L121.476 206.176
L121.55 205.548
L121.699 211.665
L121.997 224.47
L122.071 224.93
L122.294 221.924
L122.369 222.863
L122.592 225.892
L122.666 225.138
L122.815 223.531
L122.964 217.944
L123.187 210.53
L123.262 209.851
L123.41 203.29
L123.708 191.563
L123.782 193.268
L124.08 211.354
L124.378 237.291
L124.452 238.438
L124.526 238.081
L124.973 226.411
L125.345 214.378
L125.494 212.276
L125.866 197.743
L125.94 198.527
L126.312 209.096
L126.535 212.126
L126.684 216.314
L126.982 229.567
L127.056 229.682
L127.279 227.05
L127.354 226.607
L127.577 220.478
L127.874 210.012
L127.949 209.304
L128.023 209.574
L128.395 222.805
L128.544 225.247
L128.693 219.268
L128.99 205.156
L129.065 205.755
L129.437 216.63
L129.511 216.561
L129.66 220.616
L129.734 220.115
L129.809 220.703
L129.883 219.637
L130.181 210.237
L130.33 211.763
L130.404 210.738
L130.85 179.006
L130.925 179.426
L131.074 193.89
L131.669 279.391
L131.818 273.856
L132.041 251.075
L132.562 175.458
L132.71 171.455
L132.859 178.534
L133.082 188.51
L133.231 194.967
L133.678 218.94
L134.05 227.931
L134.124 227.534
L134.273 225.725
L134.347 226.993
L134.57 233.841
L134.719 234.29
L134.942 233.035
L135.017 233.231
L135.166 228.179
L135.686 200.618
L135.761 201.28
L136.058 208.503
L136.356 193.924
L136.43 195.572
L136.579 200.612
L136.951 214.868
L137.249 238.023
L137.323 238.973
L137.472 238.034
L137.77 228.519
L137.844 227.995
L137.993 230.305
L138.142 226.889
L138.365 218.214
L138.811 196.067
L138.886 194.489
L138.96 194.581
L139.183 198.751
L139.853 223.669
L140.299 228.565
L141.266 204.287
L141.341 204.65
L141.415 205.94
L141.787 221.987
L142.01 224.222
L142.159 224.861
L142.234 223.784
L142.457 215.357
L142.68 220.766
L142.754 219.286
L142.978 207.731
L143.201 211.239
L143.647 220.202
L143.796 216.221
L143.945 213.261
L144.168 221.503
L144.242 220.754
L144.391 218.917
L144.54 223.963
L144.614 228.651
L144.689 227.546
L145.061 207.167
L145.358 203.083
L145.433 202.553
L145.507 202.904
L145.582 204.436
L145.954 222.742
L146.102 227.597
L146.177 227.039
L146.549 211.233
L146.623 211.608
L146.921 206.642
L147.218 216.106
L147.442 224.66
L147.665 223.277
L147.739 223.692
L147.888 218.992
L147.962 216.717
L148.037 216.866
L148.186 220.985
L148.334 219.343
L148.558 221.365
L148.781 220.271
L149.227 208.831
L149.302 208.405
L149.525 203.837
L149.599 205.012
L149.822 213.923
L149.897 213.629
L149.971 211.982
L150.046 212.523
L150.269 219.338
L150.343 218.687
L150.566 222.436
L150.641 223.197
L150.715 222.914
L150.79 222.897
L150.938 218.75
L151.087 211.158
L151.162 211.579
L151.236 212.408
L151.31 212.333
L151.385 211.924
L151.534 208.509
L151.608 209.62
L151.906 225.725
L151.98 224.902
L152.203 219.194
L152.278 219.113
L152.501 209.108
L152.575 209.569
L152.798 217.103
L152.873 216.964
L153.394 219.556
L153.468 218.698
L153.617 214.246
L153.766 219.695
L153.84 218.41
L154.063 210.577
L154.138 210.513
L154.435 217.955
L154.733 211.072
L154.956 214.401
L155.105 211.723
L155.179 212.385
L155.402 218.848
L155.477 217.742
L155.626 214.591
L155.774 217.028
L156.072 220.858
L156.146 220.72
L156.295 219.7
L156.444 223.012
L156.518 222.88
L156.593 221.549
L156.965 209.649
L157.039 208.739
L157.114 209.16
L157.188 209.511
L157.262 208.929
L157.56 221.129
L157.634 220.42
L157.858 209.741
L158.006 201.113
L158.155 193.308
L158.378 210.3
L158.75 243.973
L158.899 245.718
L158.974 244.175
L159.42 218.456
L159.643 208.538
L160.164 183.084
L160.238 183.09
L160.313 183.165
L160.462 191.252
L161.206 253.892
L161.28 251.83
L161.726 227.557
L161.801 228.663
L161.95 232.09
L162.247 224.366
L162.991 174.012
L163.066 174.882
L163.661 198.711
L164.554 265.688
L164.628 266.558
L164.702 268.948
L164.777 268.781
L165 261.126
L165.074 259.934
L165.223 248.5
L165.595 189.334
L165.967 121.348
L166.042 125.876
L166.265 173.822
L166.711 261.443
L166.786 263.436
L166.934 256.973
L167.53 218.157
L167.902 212.932
L168.348 187.226
L168.422 187.49
L168.571 200.963
L168.794 223.456
L168.943 224.982
L169.166 223.058
L169.687 208.376
L169.762 208.751
L170.059 214.804
L170.134 214.977
L170.506 228.237
L170.803 242.199
L170.878 243.414
L171.026 241.744
L171.175 235.575
L171.696 200.456
L171.845 196.119
L171.994 186.949
L172.068 188.556
L172.44 214.879
L172.514 214.689
L172.589 214.102
L172.738 214.781
L172.886 213.353
L173.035 211.711
L173.184 217.074
L173.333 224.447
L173.407 223.946
L173.705 213.906
L173.779 213.612
L173.854 213.704
L174.077 204.148
L174.523 219.078
L174.746 229.855
L175.044 239.14
L175.193 244.082
L175.416 240.125
L175.565 230.875
L176.011 189.288
L176.086 188.579
L176.234 189.829
L176.458 183.136
L176.606 183.718
L176.681 186.799
L177.053 217.817
L177.127 218.738
L177.202 221.215
L177.499 240.431
L177.648 238.979
L177.722 239.423
L177.871 243.409
L177.946 243.218
L178.466 214.511
L178.764 206.775
L179.062 211.17
L179.285 203.901
L179.359 203.947
L179.954 225.265
L180.029 225.397
L180.326 221.019
L180.698 202.063
L180.996 190.814
L181.07 191.661
L181.517 221.279
L181.591 220.207
L181.666 220.363
L181.889 227.211
L182.038 231.364
L182.112 231.324
L182.484 218.692
L182.558 219.464
L182.782 221.186
L182.856 221.895
L182.93 223.836
L183.005 223.773
L183.302 211.924
L183.526 205.001
L183.6 206.349
L183.823 217.955
L183.898 216.924
L184.121 205.928
L184.195 206.291
L184.418 217.356
L184.493 217.5
L184.567 216.555
L184.79 221.728
L185.014 213.255
L185.088 214.626
L185.311 225.887
L185.386 225.766
L185.46 224.596
L185.534 224.827
L185.609 224.193
L185.758 217.137
L185.981 207.604
L186.204 203.008
L186.353 213.67
L186.502 221.423
L186.799 214.13
L186.874 213.796
L186.948 214.004
L187.022 213.14
L187.394 200.577
L187.469 200.122
L187.543 201.7
L187.766 218.082
L188.064 244.601
L188.138 244.589
L188.808 222.874
L189.478 174.548
L189.552 174.507
L190.222 220.501
L190.594 245.482
L190.891 270.17
L190.966 269.023
L191.338 235.085
L191.635 199.431
L192.007 163.834
L192.082 162.555
L192.156 164.099
L192.305 174.277
L193.049 244.445
L193.123 245.413
L193.272 235.546
L193.644 206.02
L193.867 214.591
L193.942 214.292
L194.016 213.353
L194.09 213.364
L194.239 215.248
L194.76 224.867
L194.909 223.554
L195.132 220.104
L195.206 221.186
L195.281 221.152
L195.578 216.843
L195.727 217.949
L195.95 212.017
L196.099 210.173
L196.174 210.744
L196.62 218.197
L196.769 217.414
L197.29 200.191
L197.364 200.583
L197.513 207.714
L197.885 228.392
L198.182 234.394
L198.331 231.94
L198.48 235.322
L198.703 221.469
L199.15 204.177
L199.373 200.854
L199.447 200.635
L199.596 201.366
L199.968 206.28
L200.191 204.327
L200.266 204.626
L200.563 213.117
L200.861 226.814
L201.01 224.412
L201.158 225.622
L201.233 224.93
L201.307 225.046
L201.456 227.597
L201.679 236.381
L202.051 223.381
L202.274 225.293
L202.423 217.206
L202.646 208.042
L202.944 204.287
L203.167 206.971
L203.242 206.746
L203.614 211.487
L203.911 218.992
L204.209 215.594
L204.283 215.542
L204.358 215.046
L204.581 207.466
L204.878 216.469
L205.027 213.52
L205.102 214.488
L205.25 213.41
L205.474 218.543
L205.548 217.794
L205.92 209.713
L205.994 209.845
L206.218 221.371
L206.441 229.844
L206.515 228.957
L206.664 232.632
L206.738 234.648
L206.813 232.914
L207.036 221.071
L207.259 225.046
L207.334 224.061
L207.854 205.514
L207.929 205.082
L208.003 205.6
L208.301 209.914
L208.375 209.229
L208.524 205.237
L208.598 205.727
L208.896 216.262
L208.97 213.94
L209.119 205.974
L209.64 217.08
L209.863 215.127
L210.086 211.124
L210.161 211.729
L210.31 219.672
L210.533 229.371
L210.607 229.25
L210.756 229.418
L210.83 227.655
L210.905 227.908
L210.979 228.294
L211.128 226.065
L211.277 229.608
L211.426 220.253
L211.649 208.451
L211.798 211.694
L212.021 207.449
L212.244 216.239
L212.318 214.827
L212.542 204.822
L212.616 205.537
L212.839 213.531
L213.062 221.693
L213.211 216.031
L213.583 202.72
L213.658 203.008
L213.881 213.485
L214.104 222.845
L214.253 223.393
L214.327 223.185
L214.402 222.022
L214.476 222.327
L214.625 224.856
L214.774 219.528
L215.071 200.422
L215.146 201.885
L215.666 234.809
L215.741 233.922
L215.815 234.803
L215.89 234.648
L216.038 232.125
L216.262 223.767
L216.559 200.462
L216.782 202.778
L216.857 202.392
L217.006 197.766
L217.08 195.284
L217.154 195.773
L217.378 205.957
L217.452 205.531
L217.675 199.932
L217.75 201.666
L217.973 224.447
L218.196 242.308
L218.345 245.499
L218.419 243.357
L218.866 209.903
L219.089 203.037
L219.238 198.36
L219.833 224.856
L219.982 228.225
L220.056 227.505
L220.13 227.903
L220.279 231.526
L220.726 208.117
L221.023 193.475
L221.172 203.498
L221.395 216.077
L221.47 216.342
L221.544 214.983
L221.693 216.55
L221.916 204.776
L221.99 206.85
L222.065 208.25
L222.214 204.327
L222.362 213.837
L222.586 230.806
L222.66 231.174
L222.734 230.881
L222.883 231.554
L222.958 230.57
L223.181 238.334
L223.255 236.715
L223.702 213.192
L224.074 196.056
L224.222 194.967
L224.297 196.136
L225.338 240.897
L225.413 239.204
L225.562 229.112
L226.082 178.315
L226.231 186.817
L226.826 235.235
L227.05 244.71
L227.198 238.852
L227.422 228.294
L227.496 228.191
L227.645 231.969
L227.868 241.318
L228.017 234.239
L228.612 189.685
L228.761 188.326
L228.984 191.782
L229.207 198.129
L229.43 205.433
L229.728 212.69
L229.802 212.587
L230.026 207.414
L230.1 207.869
L230.249 217.84
L230.621 256.023
L230.695 259.064
L230.77 257.797
L230.918 256.011
L231.142 245.603
L231.365 225.754
L231.737 193.78
L231.96 178.39
L232.034 178.994
L232.109 178.539
L232.183 175.953
L232.258 176.61
L233.225 224.637
L233.374 230.886
L233.671 248.76
L233.746 248.368
L234.787 206.798
L234.862 206.239
L234.936 207.259
L235.085 214.96
L235.234 224.395
L235.308 223.617
L236.052 185.135
L236.126 185.774
L237.094 234.014
L237.168 233.83
L237.242 233.11
L237.54 223.07
L237.689 227.609
L238.061 242.285
L238.21 232.822
L238.433 221.348
L238.582 218.819
L239.251 191.2
L239.326 191.252
L239.549 195.313
L239.698 206.36
L239.921 222.131
L240.07 225.604
L240.218 229.141
L240.516 221.693
L240.665 215.196
L240.814 209.004
L240.888 209.534
L241.111 214.038
L241.186 213.652
L241.334 212.598
L241.409 212.61
L241.558 211.884
L241.632 212.23
L241.781 217.327
L242.078 229.354
L242.153 229.003
L242.227 227.995
L242.45 233.38
L242.525 232.015
L242.897 209.874
L243.12 198.434
L243.269 196.136
L243.343 196.539
L243.566 202.922
L243.79 210.41
L243.864 209.897
L243.938 210.139
L244.013 211.187
L244.162 221.1
L244.385 235.995
L244.608 237.516
L245.278 208.768
L245.352 209.695
L245.426 209.597
L245.575 206.585
L245.65 207.224
L245.947 215.398
L246.17 221.365
L246.319 224.205
L246.394 223.047
L246.989 187.755
L247.063 188.066
L247.212 190.739
L247.51 226.232
L247.807 258.488
L247.882 257.878
L248.179 244.998
L248.7 201.101
L249.072 189.864
L249.146 188.942
L249.221 190.572
L249.37 201.942
L249.593 217.828
L249.667 217.201
L249.89 213.485
L250.188 218.289
L250.262 217.552
L250.411 214.539
L250.486 215.133
L250.709 223.237
L250.932 224.833
L251.006 222.84
L251.23 211.106
L251.602 216.907
L251.825 223.099
L252.197 225.535
L252.271 225.748
L252.346 225.126
L252.569 229.423
L252.866 212.351
L252.941 213.958
L253.015 214.562
L253.462 203.175
L253.759 191.868
L253.834 191.494
L254.057 184.132
L254.206 194.702
L254.726 238.42
L254.95 242.222
L255.247 250.562
L256.14 203.728
L256.363 191.655
L256.438 191.332
L256.512 190.417
L256.884 177.266
L257.033 182.721
L257.33 209.638
L257.628 231.612
L257.926 243.253
L258.223 251.432
L258.298 250.845
L258.818 205.179
L259.116 211.861
L259.265 205.496
L259.339 205.784
L259.562 209.868
L259.786 212.915
L259.86 212.593
L259.934 211.562
L260.009 211.608
L260.232 215.68
L260.455 222.431
L260.753 210.352
L260.902 209.903
L260.976 209.459
L261.199 203.722
L261.348 209.551
L261.646 220.484
L261.72 220.991
L261.794 220.501
L262.092 225.426
L262.315 231.336
L262.762 220.403
L262.91 210.744
L263.208 185.44
L263.282 185.215
L263.357 187.387
L264.101 245.085
L264.175 246.726
L264.473 234.671
L264.547 235.362
L264.77 242.153
L264.919 231.906
L265.291 203.054
L265.366 201.608
L265.738 184.23
L265.812 183.81
L265.961 190.048
L266.184 203.705
L266.258 202.95
L266.333 201.044
L266.407 202.547
L266.63 218.358
L266.705 217.258
L266.854 211.769
L266.928 212.31
L267.226 224.706
L267.449 233.789
L267.523 233.847
L267.746 232.09
L267.895 240.436
L268.118 252.642
L268.267 244.566
L268.862 179.046
L268.937 179.519
L269.086 191.522
L269.458 231.393
L269.606 234.97
L269.681 234.504
L269.83 226.607
L270.202 196.378
L270.35 195.624
L270.499 197.755
L270.722 190.745
L270.797 192.577
L271.02 217.028
L271.466 256.334
L271.541 258.436
L271.615 257.457
L271.838 241.928
L272.285 188.74
L272.434 183.061
L272.508 183.66
L272.657 195.295
L273.029 225.973
L273.178 228.646
L273.326 219.85
L273.55 207.293
L273.624 206.671
L273.698 207.057
L273.847 208.975
L274.07 203.135
L274.219 213.434
L274.442 231.543
L274.517 232.499
L274.889 220.714
L275.41 233.893
L275.484 233.323
L275.93 201.096
L276.005 202.726
L276.154 210.842
L276.228 210.386
L276.451 207.679
L276.674 210.634
L276.749 209.165
L277.121 193.118
L277.27 203.642
L277.642 241.185
L277.716 241.588
L278.014 235.345
L278.088 235.275
L278.162 236.243
L278.237 234.394
L278.758 201.487
L278.832 201.326
L278.981 201.856
L279.13 196.96
L279.278 192.536
L279.427 203.066
L279.65 222.465
L279.725 224.424
L279.799 224.205
L279.874 224.072
L280.022 224.948
L280.097 224.856
L280.171 223.606
L280.394 214.925
L280.543 218.75
L280.766 230.898
L280.841 227.897
L281.064 210.15
L281.138 211.101
L281.436 223.318
L281.51 221.814
L281.882 203.14
L281.957 203.106
L282.031 204.736
L282.254 217.679
L282.552 211.821
L282.701 217.644
L283.073 232.251
L283.147 231.146
L283.519 213.687
L283.668 215.121
L283.891 212.834
L284.114 204.12
L284.338 197.478
L284.784 219.407
L284.933 218.491
L285.007 218.779
L285.082 219.729
L285.379 228.283
L285.602 220.795
L285.677 222.183
L285.751 223.876
L285.826 222.759
L286.049 207.403
L286.123 208.647
L286.644 223.6
L286.718 222.241
L286.793 222.258
L286.867 222.05
L287.09 213.894
L287.314 201.528
L287.462 203.647
L287.611 193.435
L287.76 186.609
L287.909 195.992
L288.504 262.497
L288.578 263.713
L288.727 256.432
L289.174 204.016
L289.397 198.072
L289.471 198.135
L289.546 199.172
L289.62 196.937
L289.769 179.876
L289.992 151.421
L290.066 153.19
L290.215 176.091
L290.81 307.097
L290.959 298.733
L291.257 238.881
L291.703 137.943
L291.778 138.703
L292.001 150.506
L292.298 196.678
L292.67 246.968
L292.819 256.196
L293.042 250.004
L293.266 239.377
L293.34 240.863
L293.563 247.826
L293.712 237.516
L294.233 186.788
L294.605 173.499
L294.679 174.352
L294.902 187.56
L295.721 262.123
L295.795 262.595
L295.944 258.356
L296.167 235.385
L296.688 177.485
L296.986 189.564
L297.506 220.052
L297.655 221.175
L297.878 215.519
L298.027 218.537
L298.102 218.22
L298.176 218.71
L298.474 227.747
L298.697 221.814
L298.994 210.219
L299.069 209.834
L299.143 209.954
L299.218 210.064
L299.441 216.123
L299.59 228.767
L299.813 250.43
L299.962 237.395
L300.408 166.271
L300.482 169.784
L300.706 196.649
L301.078 240.903
L301.152 240.396
L301.301 236.785
L301.524 228.001
L301.598 228.49
L301.673 228.386
L301.747 227.448
L301.822 227.724
L301.896 230.293
L301.97 230.23
L302.714 191.269
L303.086 197.841
L303.161 197.801
L303.458 205.951
L303.607 218.56
L303.979 253.114
L304.054 253.523
L304.202 246.271
L304.5 228.842
L305.021 196.747
L305.095 195.238
L305.244 188.113
L305.318 189.299
L305.467 193.262
L305.616 190.347
L305.914 198.538
L306.211 226.307
L306.434 248.379
L306.509 248.449
L307.402 214.2
L307.625 200.957
L307.699 201.718
L307.922 211.037
L308.071 205.819
L308.22 214.706
L308.518 236.992
L308.592 235.702
L308.741 215.547
L309.038 173.632
L309.113 170.072
L309.187 171.472
L309.41 185.273
L310.303 274.259
L310.378 272.295
L310.675 246.156
L311.196 193.567
L311.419 180.446
L311.717 191.943
L311.791 191.851
L311.94 184.374
L312.238 168.517
L312.386 184.858
L312.982 276.626
L313.056 276.085
L313.205 273.303
L313.354 263.177
L314.246 168.834
L314.47 168.016
L314.544 169.848
L315.288 243.737
L315.362 243.766
L315.511 249.117
L315.586 252.492
L315.734 244.826
L316.553 195.295
L316.702 193.515
L316.776 194.086
L316.925 195.796
L316.999 196.188
L317.446 212.621
L317.594 222.315
L317.743 236.26
L317.892 232.372
L317.966 233.012
L318.041 233.271
L318.19 225.144
L319.008 176.034
L319.157 192.024
L319.678 274.801
L319.826 269.403
L320.124 248.143
L320.794 158.264
L320.868 158.904
L321.389 189.627
L321.463 188.412
L321.538 190.117
L322.282 265.567
L322.356 263.736
L322.654 257.544
L322.951 226.18
L323.323 182.882
L323.472 193.567
L323.546 192.594
L323.918 180.481
L323.993 180.388
L324.29 205.761
L324.811 253.621
L324.96 260.89
L325.481 227.332
L325.853 190.094
L325.927 191.217
L326.076 192.784
L326.225 186.517
L326.374 178.522
L326.448 179.018
L326.82 198.913
L327.043 210.698
L327.192 219.407
L327.49 237.026
L327.936 256.708
L328.085 257.745
L328.159 257.25
L328.234 257.728
L328.308 256.432
L328.531 228.208
L328.903 181.425
L329.052 174.346
L329.126 174.49
L329.275 181.828
L329.573 204.523
L329.722 207.771
L329.945 217.512
L330.019 217.172
L330.242 222.114
L330.391 219.723
L330.54 221.486
L330.614 221.319
L330.689 220.478
L330.912 222.39
L331.061 215.294
L331.284 207.841
L331.358 207.553
L331.507 210.127
L331.805 219.124
L331.879 217.316
L331.954 218.001
L332.102 223.416
L332.4 218.681
L332.698 205.905
L332.846 215
L333.144 243.19
L333.293 241.272
L333.367 241.692
L333.442 243.506
L333.516 242.873
L333.665 232.758
L334.037 189.144
L334.334 183.119
L334.483 185.705
L334.558 185.233
L334.632 186.056
L334.706 189.282
L335.227 240.632
L335.302 241.035
L335.525 247.089
L335.599 246.081
L335.897 222.552
L336.343 174.145
L336.492 184.881
L337.013 227.557
L337.385 237.666
L337.682 257.094
L337.831 247.481
L338.129 207.697
L338.426 167.486
L338.501 166.173
L339.022 204.246
L339.468 255.412
L339.766 266.23
L339.84 266.748
L339.989 251.006
L340.51 157.729
L340.584 155.597
L340.658 159.756
L341.328 246.381
L341.402 246.035
L341.551 236.364
L341.849 215.363
L342.146 202.708
L342.295 206.164
L342.518 219.81
L342.742 227.851
L342.89 228.991
L342.965 228.098
L343.188 229.953
L343.337 232.004
L343.486 223.381
L343.783 198.17
L343.858 196.747
L344.081 180.521
L344.155 181.275
L344.378 190.584
L344.453 192.571
L344.676 225.72
L345.122 268.781
L345.197 270.527
L345.569 232.516
L345.941 183.914
L346.164 167.97
L346.238 167.774
L346.61 194.806
L347.057 228.473
L347.206 235.097
L347.354 233.334
L347.503 247.412
L347.726 263.286
L347.95 250.2
L348.545 186.062
L348.768 170.902
L348.842 171.04
L348.991 180.123
L349.438 213.56
L349.512 214.413
L349.735 207.714
L349.81 208.445
L349.884 208.854
L350.033 220.841
L350.479 281.229
L350.554 284.051
L350.628 283.619
L350.702 279.593
L351.67 144.924
L351.818 140.806
L351.967 154.9
L352.562 246.231
L352.86 256.213
L352.934 256.248
L353.083 250.626
L353.53 208.814
L353.753 182.952
L353.827 182.946
L353.976 191.972
L354.348 221.843
L354.497 232.217
L354.794 252.118
L354.869 252.17
L355.018 244.261
L355.687 174.444
L355.836 179.432
L356.282 215.432
L356.357 215.012
L356.431 216.262
L356.803 231.399
L356.952 232.753
L357.026 232.689
L357.101 230.944
L357.622 204.471
L357.696 204.194
L357.845 207.794
L357.994 205.035
L358.068 207.19
L358.217 217.431
L358.291 216.705
L358.366 215.196
L358.44 216.314
L358.886 235.345
L358.961 235.874
L359.11 240.148
L359.258 234.458
L359.482 214.424
L359.705 194.679
L359.854 200.854
L360.3 192.657
L360.821 223.658
L360.895 223.738
L360.97 223.018
L361.342 209.972
L361.49 202.029
L361.639 210.49
L361.714 210.185
L361.788 211.112
L361.937 219.96
L362.086 226.497
L362.16 225.927
L362.383 231.889
L362.532 229.982
L362.681 228.087
L362.83 231.065
L362.904 230.04
L362.978 228.577
L363.053 229.089
L363.127 229.371
L363.202 228.565
L363.35 215.784
L363.499 197.167
L363.574 197.968
L363.871 206.786
L363.946 205.542
L364.094 200.422
L364.615 214.01
L364.764 212.172
L364.987 218.134
L365.136 225.08
L365.21 224.164
L365.508 219.044
L365.731 209.482
L365.806 209.73
L366.252 224.009
L366.326 223.709
L366.401 222.719
L366.624 217.224
L366.698 218.151
L366.922 230.829
L367.07 223.813
L367.368 209.511
L367.442 210.721
L367.517 210.479
L367.666 206.475
L367.74 206.51
L367.889 205.387
L367.963 205.888
L368.186 212.305
L368.261 212.224
L368.41 209.505
L368.558 206.331
L368.782 212.961
L368.856 212.898
L368.93 214.321
L369.005 212.345
L369.228 198.872
L369.377 213.474
L369.749 259.145
L369.823 261.051
L370.121 249.779
L370.27 230.875
L370.567 184.063
L370.642 180.054
L370.716 181.477
L370.79 183.107
L370.865 182.894
L370.939 182.376
L371.014 182.468
L371.237 188.331
L371.386 201.793
L371.609 216.054
L371.683 217.84
L372.055 249.399
L372.204 265.268
L372.278 264.899
L372.502 231.56
L372.948 176.12
L373.022 173.229
L373.171 179.582
L373.394 204.575
L373.618 218.808
L373.692 219.965
L373.915 242.234
L373.99 242.21
L374.362 226.779
L374.585 236.214
L374.659 234.377
L375.254 192.795
L375.329 195.871
L375.552 208.428
L375.924 251.594
L375.998 253.293
L376.222 231.531
L376.817 142.476
L376.891 142.73
L377.114 172.946
L377.71 262.221
L377.858 277.421
L377.933 276.379
L378.528 230.863
L378.751 211.348
L378.826 211.072
L379.049 219.044
L379.123 218.116
L379.495 189.881
L379.793 177.025
L379.942 170.746
L380.09 179.559
L380.611 232.332
L380.686 231.157
L380.76 232.545
L380.983 242.712
L381.058 242.331
L381.206 231.693
L381.43 218.22
L381.578 221.031
L381.802 230.546
L382.397 217.368
L382.546 211.049
L382.62 211.464
L382.843 219.026
L382.918 218.33
L383.141 205.45
L383.587 170.504
L383.662 171.132
L384.034 198.993
L384.48 260.775
L384.554 261.869
L384.703 254.888
L384.926 239.832
L385.001 240.828
L385.224 261.8
L385.373 272.589
L385.522 256.536
L385.968 162.1
L386.266 119.805
L386.34 118.826
L386.489 131.106
L387.307 260.585
L387.53 272.969
L387.679 265.838
L388.051 241.174
L388.274 239.682
L388.423 241.058
L388.646 235.362
L388.795 220.438
L389.093 187.03
L389.316 177.163
L389.39 176.788
L389.688 166.812
L389.762 167.906
L389.911 177.146
L390.209 210.859
L390.73 293.538
L390.804 295.537
L390.878 295.122
L391.027 277.6
L391.325 202.991
L391.622 139.418
L391.697 139.25
L391.846 151.03
L392.366 220.743
L392.515 223.099
L392.664 228.294
L392.738 228.156
L392.962 224.406
L393.036 224.608
L393.185 229.429
L393.482 241.583
L393.557 237.476
L393.929 160.551
L394.152 207.046
L394.673 338.172
L394.822 312.609
L395.789 76.5874
L395.938 99.2646
L396.756 275.837
L396.979 286.994
L397.054 288.498
L397.277 283.965
L397.351 283.515
L397.5 274.132
L398.021 226.117
L398.69 137.096
L398.765 139.412
L398.988 166.593
L399.36 215.617
L399.583 240.079
L399.806 259.64
L399.881 261.524
L400.03 246.818
L400.253 212.558
L400.327 212.449
L400.625 242.17
L400.699 240.845
L400.997 209.373
L401.294 184.167
L401.443 179.841
L401.592 187.485
L402.336 256.403
L402.485 243.288
L402.708 217.54
L402.857 221.889
L403.006 220.288
L403.08 220.754
L403.154 219.528
L403.303 208.756
L403.75 155.857
L403.824 154.964
L403.973 166.006
L404.642 251.979
L404.866 262.728
L405.089 257.365
L405.163 257.532
L405.238 258.218
L405.461 251.403
L405.61 238.783
L406.056 193.844
L406.205 190.445
L406.428 192.876
L406.577 191.914
L406.8 189.299
L406.949 187.542
L407.172 196.614
L407.321 204.333
L407.544 234.901
L407.767 257.06
L407.842 257.377
L407.99 244.584
L408.362 191.436
L408.437 189.76
L408.511 190.417
L408.66 205.416
L409.032 257.244
L409.106 256.852
L409.33 232.165
L409.702 158.616
L409.925 119.275
L409.999 120.853
L410.148 148.34
L410.743 281.828
L411.041 309.067
L411.115 308.802
L411.264 289.679
L412.008 173.004
L412.157 175.164
L413.05 199.005
L413.422 228.104
L413.496 228.749
L413.868 210.582
L413.942 211.21
L414.24 222.425
L414.612 258.73
L414.761 249.889
L415.356 187.611
L415.43 178.96
L415.505 179.398
L415.802 205.393
L416.026 223.646
L416.174 225.541
L416.249 224.884
L416.546 207.057
L416.844 189.074
L416.918 191.442
L417.365 250.66
L417.439 248.881
L417.737 234.636
L418.258 200.197
L418.332 201.706
L418.555 212.495
L418.853 204.863
L418.927 204.932
L419.15 218.226
L419.374 234.895
L419.448 234.342
L419.746 215.922
L419.969 195.399
L420.118 196.223
L420.192 198.21
L420.415 191.471
L420.564 187.531
L420.638 189.167
L420.787 202.737
L421.01 256.582
L421.234 292.795
L421.308 293.63
L421.382 291.649
L421.531 265.642
L421.978 155.857
L422.052 155.384
L422.201 168.886
L422.498 199.598
L422.796 212.23
L422.87 211.389
L423.094 202.835
L423.242 213.157
L423.614 265.717
L423.689 264.893
L424.358 225.242
L424.954 135.737
L425.028 137.517
L425.177 156.801
L425.549 213.48
L425.846 243.184
L426.218 300.865
L426.293 299.666
L426.442 274.605
L426.888 158.391
L426.962 157.458
L427.111 173.787
L427.558 252.348
L427.632 254.45
L427.706 253.414
L428.004 238.968
L428.45 205.018
L429.12 151.98
L429.194 152.602
L429.343 179.72
L429.715 275.417
L429.79 279.956
L429.864 276.373
L430.013 243.558
L430.385 143.058
L430.459 143.905
L430.608 165.199
L431.129 292.242
L431.203 290.612
L431.575 255.902
L431.65 256.599
L431.798 260.32
L431.873 259.37
L432.022 244.751
L432.542 155.465
L432.691 152.971
L432.766 154.843
L433.212 194.978
L433.435 207.875
L434.328 238.887
L434.402 239.089
L434.551 238.138
L434.849 231.733
L435.072 221.348
L435.37 204.782
L435.444 204.177
L435.593 209.695
L435.742 216.544
L435.816 216.273
L435.965 213.871
L436.114 219.718
L436.486 250.269
L436.634 234.987
L437.006 183.124
L437.081 183.96
L437.304 195.33
L437.676 219.528
L437.75 220.754
L438.048 213.929
L438.346 202.945
L438.42 201.793
L438.494 204.586
L438.866 232.332
L439.015 227.891
L439.313 219.862
L439.462 222.609
L439.61 227.672
L439.982 196.73
L440.131 205.087
L440.429 225.23
L440.578 230.99
L440.95 251.329
L441.098 241.755
L441.545 203.417
L441.694 198.498
L442.066 151.467
L442.14 149.313
L442.214 153.604
L443.033 260.608
L443.182 247.521
L443.479 218.266
L443.554 217.431
L443.926 254.139
L444.893 179.645
L444.967 180.872
L445.19 184.754
L445.562 203.607
L445.637 203.14
L445.786 204.396
L445.934 190.895
L446.083 179.046
L446.232 193.187
L446.678 265.752
L446.753 264.312
L447.274 232.298
L447.348 232.43
L447.571 236.358
L447.72 242.861
L447.794 241.658
L447.943 230.575
L448.39 178.712
L448.538 176.996
L448.613 180.319
L448.91 209.476
L449.282 218.681
L449.357 218.687
L449.729 197.933
L449.803 198.504
L449.878 202.225
L449.878 202.225" style="fill:none;stroke:#808080;stroke-linecap:square;"/>
   </g>
  </g>
 </g>
 <defs>
  <clipPath id="p7ff5b81e1d">
   <rect height="345.6" width="446.4" x="72.0" y="43.2"/>
  </clipPath>
 </defs>
</svg>
