<?xml version="1.0" encoding="utf-8" standalone="no"?>
<!DOCTYPE svg PUBLIC "-//W3C//DTD SVG 1.1//EN"
  "http://www.w3.org/Graphics/SVG/1.1/DTD/svg11.dtd">
<!-- Created with matplotlib (http://matplotlib.org/) -->
<svg height="432pt" version="1.1" viewBox="0 0 576 432" width="576pt" xmlns="http://www.w3.org/2000/svg" xmlns:xlink="http://www.w3.org/1999/xlink">
 <defs>
  <style type="text/css">
*{stroke-linecap:butt;stroke-linejoin:round;}
  </style>
 </defs>
 <g id="figure_1">
  <g id="patch_1">
   <path d="
M0 432
L576 432
L576 0
L0 0
z
" style="fill:#ffffff;"/>
  </g>
  <g id="axes_1">
   <g id="line2d_1">
    <path clip-path="url(#p7ff5b81e1d)" d="
M72 199.162
L72.0744 197.927
L72.1488 201.112
L72.4464 243.892
L72.8928 162.182
L72.9672 167.564
L73.4136 198.692
L73.6368 179.141
L73.7112 180.746
L73.86 193.533
L74.0832 172.748
L74.1576 178.697
L74.3064 209.085
L74.3808 208.048
L74.4552 209.233
L74.5296 206.987
L74.9016 172.55
L75.1992 185.387
L75.4224 242.51
L75.6456 196.051
L75.72 204.518
L75.7944 210.714
L75.8688 196.792
L76.0176 127.178
L76.092 131.177
L76.464 202.766
L76.5384 205.086
L77.0592 147.297
L77.1336 151.518
L77.2824 162.034
L77.58 275.539
L77.6544 270.404
L77.8776 250.31
L78.1008 226.76
L78.3984 191.83
L78.696 132.88
L78.7704 132.337
L78.8448 135.843
L78.9936 159.121
L79.2168 188.843
L79.2912 191.706
L79.44 221.922
L79.5144 218.318
L79.7376 181.783
L79.812 185.239
L79.8864 183.116
L80.0352 172.847
L80.3328 232.24
L80.556 179.067
L80.7048 189.658
L80.7792 189.312
L81.2256 155.073
L81.3744 157.862
L81.4488 156.159
L81.8952 194.644
L82.1928 243.941
L82.3416 232.413
L82.416 234.956
L82.4904 236.412
L83.3088 164.676
L83.532 171.908
L83.6064 181.264
L83.6808 180.005
L83.7552 175.562
L83.9784 207.505
L84.2016 184.72
L84.276 186.177
L84.5736 163.096
L84.7968 140.706
L84.8712 153.567
L85.1688 256.63
L85.392 236.264
L85.4664 234.116
L85.5408 226.834
L85.9128 135.991
L85.9872 137.818
L86.4336 200.618
L86.6568 167.811
L86.8056 182.943
L87.1776 245.694
L87.252 244.262
L87.624 215.849
L87.8472 167.983
L87.996 184.893
L88.0704 179.931
L88.2936 151.938
L88.5912 184.424
L88.6656 193.854
L88.74 192.669
L88.8888 174.895
L88.9632 177.956
L89.1864 205.259
L89.2608 203.037
L89.3352 203.679
L89.4096 207.555
L89.5584 230.735
L89.7816 177.29
L89.856 179.117
L90.0048 205.382
L90.228 231.747
L90.6 180.524
L90.6744 176.179
L90.8976 185.905
L90.972 180.845
L91.0464 185.807
L91.1208 183.906
L91.344 136.435
L91.4184 137.126
L91.4928 139.694
L91.6416 155.937
L91.8648 132.214
L92.0136 160.504
L92.46 278.526
L92.5344 286.87
L92.6088 285.438
L92.6832 279.958
L92.9808 233.252
L93.1296 240.189
L93.204 239.695
L93.2784 235.844
L93.3528 221.7
L93.6504 96.4196
L93.8736 158.899
L94.0968 110.268
L94.1712 123.179
L94.32 143.791
L94.3944 140.113
L94.4688 142.755
L94.6176 176.673
L94.8408 225.6
L94.9152 224.785
L95.2128 236.511
L95.436 267.738
L95.5104 266.677
L95.5848 257.839
L95.8824 169.539
L95.9568 172.057
L96.1056 198.372
L96.18 194.15
L96.6264 113.033
L96.7008 117.007
L96.8496 170.304
L96.9984 230.685
L97.0728 228.538
L97.296 179.067
L97.7424 271.812
L97.8168 266.776
L97.9656 225.476
L98.1144 168.378
L98.3376 185.955
L98.412 180.672
L98.5608 153.74
L98.6352 156.431
L98.784 130.757
L98.8584 106.022
L98.9328 110.836
L99.156 169.415
L99.2304 174.649
L99.4536 157.245
L99.528 159.492
L99.6768 180.178
L100.049 256.136
L100.272 220.046
L100.644 282.377
L100.867 227.056
L101.09 166.527
L101.165 169.563
L101.239 168.082
L101.314 166.873
L101.462 151.691
L101.537 153.271
L101.611 165.712
L101.686 163.194
L101.834 132.51
L101.909 134.51
L102.43 185.313
L102.578 175.414
L102.802 205.259
L102.95 220.934
L103.248 205.851
L103.694 241.498
L103.843 206.074
L104.141 149.988
L104.364 142.829
L104.438 148.704
L104.587 169.711
L104.662 164.379
L104.81 176.623
L105.034 210.937
L105.108 207.727
L105.182 208.122
L105.257 208.196
L105.406 202.568
L105.48 203.654
L105.629 220.218
L105.778 266.603
L105.926 236.264
L106.298 162.38
L106.373 169.07
L106.596 231.278
L106.67 222.588
L106.819 184.597
L106.894 184.671
L106.968 177.413
L107.191 134.164
L107.34 144.088
L107.414 141.422
L107.563 117.946
L107.712 150.358
L107.861 182.104
L107.935 181.437
L108.01 183.807
L108.233 209.48
L108.307 205.456
L108.53 243.991
L108.605 240.016
L108.679 232.388
L108.754 232.956
L108.977 247.546
L109.572 170.97
L109.721 153.444
L109.944 143.569
L110.167 164.7
L110.242 162.108
L110.39 147.939
L110.539 179.067
L110.762 222.169
L110.837 230.981
L110.911 229.92
L111.134 181.709
L111.209 170.082
L111.283 172.526
L111.506 205.333
L111.655 227.797
L111.73 224.489
L112.027 139.225
L112.474 245.669
L112.548 239.128
L112.771 189.09
L112.846 188.176
L113.069 231.5
L113.218 204.148
L113.515 106.244
L113.59 110.737
L113.887 234.289
L113.962 227.846
L114.11 206.123
L114.185 207.505
L114.408 230.512
L114.482 230.488
L114.557 230.414
L114.631 228.686
L114.854 186.276
L115.078 150.95
L115.152 157.69
L115.375 218.959
L115.45 216.343
L115.598 164.108
L115.747 107.726
L115.822 110.564
L116.119 222.588
L116.194 221.107
L116.566 136.435
L116.64 137.595
L117.086 200.001
L117.161 201.408
L117.533 275.07
L117.682 266.01
L117.83 246.558
L117.979 225.353
L118.128 232.463
L118.426 192.694
L118.798 126.487
L119.095 172.476
L119.244 148.334
L119.467 94.4447
L120.062 253.519
L120.806 163.96
L120.881 170.008
L121.253 216.269
L121.327 216.17
L121.476 187.164
L121.625 148.235
L121.774 194.767
L121.922 223.773
L121.997 224.909
L122.22 215.824
L122.369 186.127
L122.443 186.276
L122.666 225.625
L122.815 204.617
L123.113 167.86
L123.262 156.11
L123.41 163.318
L123.559 152.826
L123.708 168.452
L123.931 165.071
L124.006 165.145
L124.154 166.675
L124.229 165.391
L124.303 167.07
L124.452 203.876
L124.675 244.682
L124.75 250.286
L124.824 248.903
L124.973 225.279
L125.122 195.409
L125.345 231.278
L125.419 231.253
L126.089 166.132
L126.238 180.03
L126.461 133.004
L126.535 139.299
L126.684 150.827
L126.758 147.988
L126.907 159.566
L126.982 165.243
L127.056 164.898
L127.13 164.725
L127.651 230.463
L127.949 215.232
L128.098 227.353
L128.246 243.151
L128.321 241.103
L128.47 228.192
L128.767 174.698
L128.916 134.337
L128.99 141.496
L129.214 195.878
L129.288 195.311
L129.437 172.427
L129.586 137.99
L129.66 142.755
L129.958 193.681
L130.106 198.618
L130.33 195.878
L130.404 197.384
L130.85 249.693
L130.925 248.212
L131.446 133.177
L131.594 149.79
L131.743 161.121
L131.966 138.558
L132.115 188.621
L132.264 239.325
L132.338 237.326
L132.487 216.318
L132.562 218.688
L132.71 229.278
L132.934 209.554
L133.008 208.838
L133.157 201.852
L133.38 240.93
L133.454 234.487
L133.752 166.823
L133.975 146.704
L134.124 157.319
L134.198 157.295
L134.347 150.259
L134.794 209.406
L134.942 192.25
L135.017 193.089
L135.091 192.891
L135.166 190.201
L135.24 193.558
L135.463 224.637
L135.538 225.847
L135.686 208.715
L135.91 186.893
L136.058 179.981
L136.207 188.349
L136.579 163.343
L136.654 163.515
L136.877 199.507
L137.026 178.376
L137.1 181.067
L137.621 267.368
L137.77 231.549
L137.918 191.484
L137.993 197.434
L138.067 191.262
L138.439 95.9506
L138.886 185.757
L139.034 218.713
L139.109 218.54
L139.258 247.151
L139.555 192.793
L139.63 192.941
L140.002 251.224
L140.225 196.668
L140.299 201.062
L140.448 216.367
L140.522 216.318
L140.894 149.864
L141.118 109.231
L141.415 211.628
L141.49 210.344
L141.638 190.818
L141.787 200.297
L142.01 155.073
L142.085 164.848
L142.234 185.732
L142.382 163.293
L142.457 166.922
L142.606 198.026
L142.903 254.532
L142.978 256.186
L143.201 221.477
L143.275 207.999
L143.35 212.615
L143.424 220.144
L143.498 216.145
L143.647 193.484
L143.87 216.367
L144.019 173.859
L144.168 141.002
L144.242 143.051
L144.317 142.483
L144.391 140.385
L144.466 140.656
L144.614 155.912
L144.689 152.259
L144.838 125.154
L144.912 127.672
L145.284 205.703
L145.507 281.217
L145.582 281.093
L145.805 249.027
L145.954 231.228
L146.102 217.083
L146.251 232.043
L146.326 242.213
L146.846 131.226
L146.921 132.609
L147.07 144.088
L147.144 143.322
L147.293 136.287
L147.442 151.444
L147.739 184.399
L147.814 185.658
L148.037 198.001
L148.111 197.903
L148.26 207.53
L148.409 229.081
L148.632 254.408
L148.706 254.704
L149.153 161.615
L149.227 165.638
L149.376 179.66
L149.45 176.549
L149.599 186.399
L149.674 194.99
L149.748 193.854
L149.822 199.137
L150.046 241.67
L150.418 152.53
L150.566 146.606
L150.715 167.194
L150.79 179.29
L150.864 175.439
L151.087 141.101
L151.162 138.583
L151.31 123.994
L151.459 170.205
L151.682 213.874
L151.906 252.779
L152.129 293.189
L152.203 296.275
L152.426 274.947
L152.724 182.869
L152.947 117.773
L153.096 99.6287
L153.17 99.7028
L153.319 136.731
L153.468 171.044
L153.617 151.197
L153.84 186.522
L154.063 130.782
L154.286 226.118
L154.361 225.18
L154.435 223.156
L154.584 252.162
L154.733 284.549
L154.807 283.537
L155.179 209.604
L155.402 143.742
L155.626 138.435
L155.7 140.977
L155.923 168.058
L155.998 164.552
L156.146 140.582
L156.221 146.087
L156.444 177.463
L156.518 175.364
L156.593 179.66
L156.89 237.202
L156.965 230.512
L157.039 222.514
L157.188 249.471
L157.262 259.913
L157.337 251.866
L157.634 181.511
L157.783 188.078
L158.006 197.458
L158.081 194.99
L158.23 167.021
L158.378 136.583
L158.453 140.311
L158.899 218.688
L158.974 212.837
L159.197 180.82
L159.271 181.561
L159.346 180.919
L159.569 163.022
L159.718 175.809
L159.866 165.786
L159.941 174.106
L160.164 230.685
L160.462 217.626
L160.61 225.328
L160.685 223.526
L160.982 194.619
L161.206 175.167
L161.28 178.598
L161.354 175.34
L161.503 151.296
L161.726 180.45
L161.875 156.48
L161.95 164.379
L162.173 214.022
L162.247 209.752
L162.322 209.85
L162.47 208.517
L162.694 224.761
L162.768 221.675
L162.917 238.288
L162.991 236.19
L163.289 168.922
L163.363 169.86
L163.438 169.44
L163.586 142.853
L163.735 127.894
L163.884 152.382
L164.033 141.224
L164.107 149.494
L164.405 234.166
L164.479 233.154
L164.628 214.393
L164.777 227.698
L164.851 225.649
L165 216.417
L165.149 232.981
L165.372 217.182
L165.521 227.451
L165.67 195.607
L165.818 168.996
L166.042 198.742
L166.414 104.294
L166.488 113.922
L166.711 163.318
L166.86 201.383
L167.009 185.658
L167.083 178.648
L167.158 181.783
L167.604 258.876
L167.678 252.853
L167.976 188.127
L168.05 193.015
L168.125 192.324
L168.422 178.105
L168.943 212.566
L169.166 189.732
L169.39 197.236
L169.464 192.916
L169.687 218.91
L169.91 197.631
L170.059 215.824
L170.134 207.258
L170.506 74.4987
L170.58 93.5807
L171.026 215.183
L171.25 176.648
L171.696 274.428
L171.77 273.466
L171.919 241.374
L172.142 175.315
L172.217 178.055
L172.366 201.013
L172.514 219.7
L172.886 148.827
L172.961 155.813
L173.258 224.02
L173.407 202.272
L173.779 126.561
L173.928 150.062
L174.077 175.439
L174.226 174.007
L174.374 180.351
L174.449 177.389
L174.523 180.845
L175.044 278.896
L175.118 263.369
L175.416 179.166
L175.714 131.251
L175.788 139.323
L175.937 153.987
L176.011 151.419
L176.681 234.388
L176.755 231.45
L176.904 195.138
L176.978 198.989
L177.127 226.513
L177.202 220.292
L177.425 180.203
L177.722 209.554
L177.797 210.221
L178.02 190.077
L178.318 145.05
L178.392 144.581
L178.466 145.223
L178.615 158.01
L179.582 241.127
L179.657 240.263
L179.731 233.425
L179.806 233.796
L179.88 232.29
L180.029 209.283
L180.178 191.287
L180.252 188.571
L180.401 167.983
L180.55 173.809
L180.773 196.693
L180.996 177.586
L181.145 189.114
L181.368 165.589
L181.591 195.804
L182.038 162.355
L182.186 142.088
L182.633 214.985
L182.856 221.255
L182.93 221.354
L183.154 227.328
L183.302 197.952
L183.451 174.451
L183.898 200.914
L183.972 197.409
L184.121 182.252
L184.195 184.498
L184.344 208.196
L184.493 240.411
L184.939 166.7
L185.014 170.674
L185.311 221.206
L185.609 135.941
L185.683 140.829
L185.832 155.838
L186.055 202.074
L186.427 158.233
L186.502 159.023
L186.65 147.42
L186.725 152.728
L187.022 214.812
L187.171 195.311
L187.543 253.421
L187.618 253.347
L187.766 250.212
L187.841 246.287
L188.51 141.323
L188.585 135.917
L188.734 158.455
L188.957 199.433
L189.031 198.915
L189.106 201.359
L189.254 216.762
L189.552 187.337
L189.626 191.065
L189.924 223.131
L189.998 223.428
L190.073 218.861
L190.296 157.912
L190.519 119.476
L190.594 119.18
L190.891 178.549
L190.966 176.525
L191.114 166.823
L191.189 168.378
L191.338 199.779
L191.561 253.89
L191.71 236.215
L192.007 211.332
L192.156 205.21
L192.23 210.443
L192.454 242.954
L192.602 197.162
L192.826 150.852
L192.9 148.704
L193.198 226.39
L193.272 212.615
L193.57 135.374
L193.644 139.397
L193.867 190.398
L194.016 180.351
L194.09 183.807
L194.165 181.733
L194.314 156.529
L194.462 194.372
L194.611 219.601
L194.686 218.54
L195.132 193.903
L195.206 191.879
L195.281 193.879
L195.355 201.457
L195.43 191.04
L195.504 163.466
L195.653 197.458
L195.727 180.277
L195.876 199.211
L196.025 126.586
L196.099 136.065
L196.248 107.429
L196.322 109.7
L196.546 277.563
L196.62 298.201
L196.694 291.93
L196.843 263.986
L196.918 268.405
L196.992 284.475
L197.066 277.44
L197.141 268.282
L197.364 153.394
L197.438 154.653
L197.513 172.427
L197.587 159.319
L197.662 176.204
L197.81 118.415
L197.885 132.535
L197.959 123.5
L198.108 66.8461
L198.257 99.4559
L198.331 97.9748
L198.703 327.404
L198.926 250.434
L199.001 237.227
L199.075 240.436
L199.15 250.532
L199.224 247.57
L199.373 215.281
L199.67 109.824
L199.894 156.282
L200.042 142.656
L200.117 130.881
L200.191 131.473
L200.34 163.022
L200.414 160.405
L200.712 296.769
L200.786 291.955
L200.935 251.322
L201.01 264.653
L201.158 193.188
L201.233 214.319
L201.382 163.91
L201.456 173.069
L201.53 205.284
L201.605 191.978
L201.754 155.69
L201.828 143.372
L201.902 104.171
L201.977 114.712
L202.126 158.973
L202.2 156.801
L202.274 146.161
L202.423 209.801
L202.498 201.556
L202.646 146.482
L202.87 265.171
L203.018 192.101
L203.093 215.207
L203.167 201.754
L203.242 137.497
L203.316 153.32
L203.465 298.941
L203.837 164.799
L203.986 200.692
L204.06 267.467
L204.134 260.259
L204.283 62.1311
L204.358 70.3515
L204.432 78.0287
L204.581 61.6374
L204.73 115.971
L204.953 322.615
L205.027 293.189
L205.102 301.163
L205.176 350.954
L205.325 281.957
L205.399 302.521
L205.474 288.055
L205.622 225.082
L205.697 217.404
L205.846 81.5835
L205.994 130.288
L206.069 123.845
L206.218 139.743
L206.292 130.066
L206.441 155.641
L206.515 151.839
L206.59 152.234
L206.738 173.069
L206.887 131.152
L206.962 147.963
L207.259 212.368
L207.334 190.127
L207.482 259.321
L207.557 219.305
L207.706 301.262
L207.78 244.682
L207.854 245.793
L207.929 256.408
L208.152 190.176
L208.226 213.973
L208.301 204.37
L208.524 153.913
L208.673 189.83
L208.747 176.006
L209.045 111.552
L209.342 291.955
L209.417 238.214
L209.491 251.421
L209.566 320.739
L209.64 312.74
L210.235 87.7055
L210.31 97.8514
L210.458 52.948
L210.756 166.181
L210.83 162.479
L210.979 178.253
L211.054 147.124
L211.128 152.604
L211.351 250.557
L211.426 312.839
L211.5 307.877
L211.798 190.768
L212.095 325.799
L212.17 318.319
L212.616 125.277
L212.69 122.512
L212.765 93.1364
L212.839 95.1606
L212.914 108.738
L212.988 87.1378
L213.137 142.261
L213.211 128.017
L213.286 109.306
L213.36 117.131
L213.732 301.237
L213.881 222.761
L214.104 140.656
L214.327 258.827
L214.476 310.297
L214.699 248.113
L214.997 62.1064
L215.22 135.349
L215.369 146.754
L215.443 137.966
L215.741 222.045
L215.815 217.38
L215.89 196.273
L216.038 232.314
L216.187 181.388
L216.336 143.94
L216.41 157.739
L216.634 195.73
L216.708 208.221
L216.931 274.33
L217.154 243.596
L217.229 249.989
L217.303 225.871
L217.378 234.734
L217.452 244.09
L218.047 53.5652
L218.419 222.786
L218.494 219.058
L218.568 208.641
L218.717 225.797
L218.94 156.233
L219.014 143.594
L219.163 171.217
L219.238 165.268
L219.312 172.205
L219.386 163.219
L219.461 173.785
L219.684 243.719
L219.758 238.98
L219.833 211.183
L219.907 223.082
L219.982 244.484
L220.056 301.558
L220.13 297.386
L220.428 218.589
L220.502 216.836
L220.651 134.905
L220.8 172.575
L220.949 125.376
L221.023 126.116
L221.098 137.2
L221.246 185.535
L221.321 185.51
L221.47 180.326
L221.618 152.456
L221.767 173.217
L221.916 198.569
L221.99 166.132
L222.065 175.71
L222.214 244.707
L222.288 238.066
L222.362 251.89
L222.511 226.538
L222.586 232.166
L222.66 249.57
L222.734 245.694
L223.255 102.788
L223.404 144.779
L223.478 135.448
L223.627 94.2719
L223.702 111.108
L223.85 161.935
L223.999 197.705
L224.297 285.858
L224.371 282.352
L224.743 184.004
L224.966 139.299
L225.19 223.551
L225.413 231.302
L225.636 201.457
L225.785 259.691
L225.859 234.067
L226.082 148.951
L226.157 159.812
L226.306 212.27
L226.529 133.127
L226.678 78.3003
L226.901 233.573
L227.124 158.973
L227.198 148.926
L227.347 116.094
L227.496 169.687
L227.794 235.77
L227.942 258.876
L228.091 290.523
L228.389 171.242
L228.463 172.55
L228.538 179.117
L228.612 176.87
L228.761 155.344
L228.835 147.198
L229.058 188.25
L229.133 201.284
L229.207 196.224
L229.282 198.1
L229.654 247.891
L229.877 207.752
L229.951 206.197
L230.1 237.967
L230.398 140.261
L230.472 153.024
L230.546 151.444
L230.695 126.388
L230.77 123.179
L230.918 139.422
L231.067 118.291
L231.142 124.586
L231.365 200.272
L231.662 325.775
L231.737 337.13
L231.811 332.637
L232.109 195.854
L232.183 207.678
L232.258 215.726
L232.555 117.871
L232.704 180.647
L233.002 104.788
L233.076 98.4685
L233.299 137.743
L233.374 123.302
L233.448 128.437
L233.894 295.584
L234.118 230.883
L234.415 209.53
L234.564 234.758
L234.713 205.037
L234.862 242.929
L234.936 238.98
L235.01 225.896
L235.234 160.627
L235.457 142.977
L235.68 210.443
L235.829 190.892
L236.052 146.927
L236.126 147.939
L236.201 145.914
L236.35 163.886
L236.573 207.9
L236.722 189.954
L236.796 199.581
L236.87 198.125
L237.019 165.169
L237.094 167.169
L237.317 245.028
L237.391 238.338
L237.466 223.255
L237.689 279.736
L237.763 257.691
L237.986 100.789
L238.061 103.085
L238.507 251.224
L238.582 244.731
L238.879 164.75
L239.251 138.706
L239.623 204.296
L239.698 206.074
L239.846 224.835
L240.07 157.64
L240.144 167.687
L240.516 262.184
L240.59 310.445
L240.665 308.297
L240.888 240.831
L241.186 114.02
L241.334 146.013
L241.409 163.762
L241.483 158.381
L241.632 185.338
L241.781 224.662
L242.078 129.498
L242.153 147.791
L242.376 185.436
L242.599 204.666
L242.897 143.569
L243.12 192.793
L243.343 224.785
L243.566 288.499
L243.715 195.656
L243.864 131.029
L244.087 196.619
L244.162 190.818
L244.31 178.327
L244.608 217.626
L244.682 204.666
L244.757 206.123
L244.831 204.025
L244.98 180.4
L245.054 163.441
L245.129 167.539
L245.278 214.343
L245.426 287.067
L245.724 123.549
L245.798 127.844
L245.947 159.961
L246.022 145.668
L246.096 152.135
L246.245 168.773
L246.468 139.866
L246.766 277.341
L247.212 150.432
L247.286 154.604
L247.658 215.306
L247.733 221.255
L247.807 220.465
L247.882 223.057
L247.956 233.722
L248.179 164.083
L248.254 174.994
L248.477 236.56
L248.551 232.265
L248.626 217.478
L248.774 233.425
L249.295 116.81
L249.37 120.71
L249.518 131.695
L249.593 135.522
L249.816 158.233
L249.89 165.614
L250.114 200.84
L250.188 202.494
L250.262 201.655
L250.411 216.54
L250.56 197.409
L250.634 206.592
L250.783 256.235
L250.858 253.618
L251.081 212.739
L251.155 218.071
L251.23 216.195
L251.378 197.606
L251.602 249.57
L251.676 232.635
L251.75 231.697
L251.825 234.092
L252.197 117.526
L252.271 124.463
L252.346 142.557
L252.494 133.251
L252.569 141.57
L252.718 126.783
L253.015 180.746
L253.164 182.104
L253.536 230.685
L253.685 211.998
L253.982 308.667
L254.057 293.091
L254.28 238.93
L254.578 104.418
L254.652 107.281
L254.875 178.006
L254.95 170.057
L255.098 121.624
L255.173 122.34
L255.917 219.478
L256.289 186.695
L256.363 192.768
L256.586 226.464
L256.661 228.019
L256.735 232.981
L256.884 258.234
L256.958 252.655
L257.256 180.721
L257.405 170.97
L257.554 200.939
L257.628 199.384
L257.777 191.534
L258.074 161.639
L258.149 150.531
L258.223 153.913
L258.521 182.474
L258.744 147.272
L258.967 156.579
L259.19 194.101
L259.265 194.718
L259.488 152.012
L259.637 186.769
L260.009 308.544
L260.158 294.177
L260.604 139.447
L260.976 192.891
L261.274 175.636
L261.348 176.549
L261.422 188.645
L261.497 185.165
L261.869 170.353
L261.943 170.6
L262.018 171.39
L262.092 174.13
L262.241 163.12
L262.39 197.384
L262.464 185.51
L262.538 184.202
L262.613 184.794
L262.687 178.08
L262.836 185.239
L263.282 237.424
L263.357 230.068
L263.58 174.303
L263.729 185.658
L263.803 185.609
L263.878 186.942
L264.101 139.891
L264.994 268.232
L265.142 223.551
L265.366 135.497
L265.44 137.719
L265.663 155.986
L265.886 222.564
L265.961 225.97
L266.184 169.588
L266.258 171.711
L266.333 164.552
L266.63 232.932
L266.854 168.823
L266.928 174.031
L267.002 174.698
L267.077 174.402
L267.151 172.6
L267.226 175.858
L267.3 155.616
L267.374 159.689
L267.449 175.982
L267.523 172.279
L267.672 147.149
L268.044 208.764
L268.118 192.941
L268.416 256.26
L268.862 203.802
L269.011 148.951
L269.086 152.357
L269.383 198.841
L269.458 202.692
L269.606 225.427
L269.681 221.798
L270.053 160.306
L270.127 165.046
L270.202 172.057
L270.35 214.763
L270.425 221.329
L270.648 166.255
L270.797 198.223
L270.871 171.686
L271.094 192.57
L271.318 156.208
L271.466 177.537
L271.615 203.161
L271.913 138.682
L272.062 158.874
L272.359 200.272
L272.434 190.423
L272.508 161.96
L272.582 164.676
L272.657 176.278
L272.954 277.909
L273.178 223.477
L273.252 208.073
L273.401 230.883
L273.55 214.714
L273.624 217.824
L273.698 213.282
L273.847 186.671
L273.922 189.756
L274.07 223.748
L274.145 222.267
L274.442 138.657
L274.74 82.7931
L275.112 189.806
L275.261 215.627
L275.335 217.651
L275.41 198.322
L275.484 205.604
L275.782 265.048
L275.856 271.54
L275.93 265.22
L276.005 240.313
L276.154 134.213
L276.228 145.964
L276.451 254.112
L276.749 158.381
L276.823 152.975
L276.972 167.169
L277.046 152.16
L277.27 227.032
L277.493 197.705
L277.567 196.866
L277.716 218.91
L277.939 186.942
L278.162 151.098
L278.237 160.035
L278.386 123.845
L278.46 120.908
L278.609 148.531
L278.758 202.099
L278.832 200.346
L279.055 270.701
L279.13 264.307
L279.204 267.961
L279.353 255.445
L279.427 252.532
L279.799 143.076
L280.022 189.386
L280.171 157.961
L280.32 123.524
L280.394 119.427
L280.469 144.26
L280.543 133.744
L280.618 124.685
L280.692 129.918
L280.99 193.262
L281.064 194.027
L281.362 311.037
L281.436 305.483
L281.51 304.323
L282.031 190.571
L282.18 177.759
L282.403 110.885
L282.626 132.806
L282.701 135.793
L282.85 125.401
L282.998 144.952
L283.073 142.705
L283.147 148.432
L283.222 144.162
L283.742 280.501
L283.817 271.367
L284.412 147.149
L284.784 212.22
L284.858 204.839
L285.082 162.01
L285.156 159.788
L285.23 147.371
L285.602 218.713
L285.677 217.947
L285.826 189.904
L285.974 152.357
L286.346 241.942
L286.421 241.621
L286.793 180.672
L286.942 160.035
L287.239 147.642
L287.388 158.208
L287.76 226.02
L288.132 144.014
L288.355 202.741
L288.504 245.546
L288.578 243.472
L288.802 202.025
L288.95 199.087
L289.099 209.924
L289.248 179.61
L289.322 192.348
L289.397 202.099
L289.769 173.587
L289.843 174.525
L290.066 151.617
L290.29 170.18
L290.364 163.367
L290.438 165.416
L290.662 217.108
L290.736 216.318
L290.81 217.133
L290.959 240.708
L291.034 239.942
L291.108 233.252
L291.331 205.777
L291.406 210.492
L291.778 141.693
L291.852 148.58
L292.075 202.692
L292.15 193.237
L292.224 192.891
L292.447 172.822
L292.522 176.549
L292.745 166.157
L292.819 169.786
L292.968 197.68
L293.042 196.298
L293.191 188.522
L293.34 194.916
L293.414 200.05
L293.638 229.204
L293.861 190.966
L293.935 209.875
L294.01 207.16
L294.084 211.011
L294.233 180.376
L294.382 142.36
L294.605 146.704
L294.754 183.437
L294.828 205.061
L294.902 204.617
L295.051 188.571
L295.274 227.032
L295.349 239.226
L295.423 237.301
L295.498 236.585
L295.572 237.326
L295.646 239.547
L295.721 237.671
L295.87 244.213
L296.614 80.6701
L296.688 81.9044
L297.06 202.79
L297.134 203.062
L297.283 194.496
L297.655 217.478
L297.804 227.402
L297.878 226.982
L298.027 229.179
L298.176 212.813
L298.325 226.785
L298.548 185.017
L298.622 189.361
L298.771 209.727
L298.846 206.098
L299.292 159.541
L299.441 184.054
L299.515 195.187
L299.962 152.061
L300.11 134.806
L300.334 186.868
L300.557 246.287
L300.706 223.205
L300.929 193.089
L301.003 186.695
L301.078 189.929
L301.226 206.938
L301.301 209.924
L301.375 209.06
L301.524 238.535
L301.598 234.413
L301.822 190.793
L302.194 139.447
L302.268 145.174
L302.491 183.98
L302.64 152.752
L302.789 128.857
L302.938 179.166
L303.086 215.108
L303.235 227.254
L303.384 243.497
L303.682 158.529
L303.756 173.167
L303.979 215.01
L304.054 212.566
L304.202 229.007
L304.277 227.772
L304.426 218.219
L304.5 214.639
L304.723 164.503
L304.798 166.823
L304.946 172.871
L305.021 168.082
L305.095 169.02
L305.17 174.624
L305.318 195.903
L305.542 167.317
L306.137 249.422
L306.211 243.102
L306.286 234.191
L306.36 234.98
L306.434 240.164
L306.509 233.104
L306.881 155.591
L307.253 93.7042
L307.327 105.306
L307.625 185.387
L307.699 186.572
L307.997 220.416
L308.146 203.284
L308.518 263.986
L308.815 174.821
L308.89 177.339
L308.964 177.685
L309.038 180.943
L309.336 240.88
L309.41 238.511
L309.485 228.192
L309.559 229.426
L309.634 241.991
L310.006 120.291
L310.154 108.516
L310.229 110.293
L310.378 135.3
L310.452 135.151
L310.675 165.762
L310.898 205.111
L310.973 210.912
L311.047 209.381
L311.122 205.111
L311.345 220.169
L311.419 233.252
L311.791 200.223
L311.866 202.247
L311.94 197.335
L312.089 232.043
L312.163 230.216
L312.238 234.709
L312.386 283.735
L313.205 88.4461
L313.279 93.5807
L313.502 153.295
L314.023 229.303
L314.098 215.183
L314.172 216.269
L314.246 214.047
L314.395 193.459
L314.47 192.398
L314.544 184.868
L314.618 188.3
L314.693 194.052
L314.767 192.175
L314.99 205.456
L315.214 184.202
L315.437 216.145
L315.511 211.875
L315.66 197.31
L315.809 167.761
L315.958 193.607
L316.181 239.226
L316.33 181.857
L316.404 186.695
L316.553 196.372
L316.627 196.002
L316.85 178.969
L316.925 189.929
L316.999 185.14
L317.222 165.416
L317.297 164.947
L317.52 186.202
L317.594 182.03
L317.743 189.583
L317.818 182.622
L317.966 207.086
L318.115 198.372
L318.264 204.617
L318.413 178.154
L318.562 202.247
L318.636 194.348
L318.71 195.557
L318.785 216.269
L318.859 215.257
L319.157 173.711
L319.306 198.223
L319.38 194.817
L319.529 153.419
L319.826 215.207
L320.05 190.052
L320.198 148.506
L320.273 149.889
L320.422 177.413
L320.496 175.463
L320.645 160.578
L320.719 173.686
L321.017 281.34
L321.166 249.446
L321.686 147.519
L321.91 189.164
L321.984 183.017
L322.207 137.102
L322.579 189.978
L322.728 169.662
L323.026 194.595
L323.1 200.05
L323.398 176.944
L323.472 180.623
L323.844 264.628
L323.993 249.471
L324.216 205.308
L324.365 220.465
L324.514 179.956
L324.737 117.378
L324.811 116.415
L324.886 118.538
L325.183 186.794
L325.258 181.388
L325.332 173.316
L325.406 173.883
L326.002 236.634
L326.076 233.228
L326.374 191.089
L326.448 165.095
L326.522 173.365
L326.671 209.579
L326.894 131.819
L327.118 162.898
L327.266 149.321
L327.415 170.551
L327.638 212.097
L327.787 218.861
L327.862 218.268
L327.936 207.826
L328.01 212.911
L328.159 266.035
L328.234 263.122
L328.457 234.561
L328.606 212.418
L329.052 138.41
L329.275 196.57
L329.35 191.015
L329.573 131.745
L329.647 135.077
L329.87 177.191
L330.019 159.171
L330.094 167.169
L330.317 213.109
L330.391 214.096
L330.466 218.12
L330.689 243.522
L330.763 251.594
L330.838 249.915
L330.986 216.491
L331.21 169.02
L331.358 156.134
L331.582 207.752
L332.028 126.363
L332.102 129.054
L332.4 219.626
L332.474 213.208
L332.623 207.283
L332.846 215.429
L333.07 261.049
L333.814 140.829
L333.888 153.567
L333.962 162.059
L334.037 161.787
L334.111 154.159
L334.186 157.813
L334.334 167.737
L334.409 160.751
L334.483 168.304
L334.706 222.983
L334.781 226.908
L335.078 205.358
L335.153 213.306
L335.227 210.492
L335.525 157.764
L335.599 160.282
L335.674 158.924
L335.748 164.355
L335.822 161.738
L335.897 158.554
L336.343 194.447
L336.418 194.817
L336.566 179.561
L336.641 184.622
L336.864 226.884
L337.013 228.463
L337.087 216.59
L337.162 221.774
L337.236 225.156
L337.385 218.293
L337.459 215.183
L337.608 234.561
L337.682 227.748
L337.98 152.728
L338.203 114.169
L338.278 121.204
L338.724 242.831
L338.873 217.947
L339.022 183.634
L339.17 211.208
L339.245 220.885
L339.319 216.935
L339.394 208.419
L339.468 208.789
L339.542 211.183
L339.691 168.946
L339.84 134.115
L339.914 137.694
L340.212 203.926
L340.286 201.926
L340.435 184.375
L340.51 184.474
L341.03 224.538
L341.105 226.143
L341.402 189.238
L341.551 156.974
L341.626 158.973
L341.7 168.502
L341.923 232.611
L341.998 232.339
L342.072 224.218
L342.221 243.201
L342.89 105.677
L342.965 110.984
L343.114 140.459
L343.188 138.78
L343.337 159.269
L343.634 217.997
L343.709 222.588
L343.932 309.877
L344.006 301.262
L344.304 193.78
L344.527 151.617
L344.676 168.872
L344.899 220.564
L344.974 216.54
L345.346 153.74
L345.569 173.859
L345.792 152.308
L345.866 152.826
L346.09 192.299
L346.164 191.361
L346.238 190.25
L346.387 201.161
L346.61 266.356
L346.685 255.568
L346.982 159.146
L347.057 162.676
L347.354 201.63
L347.429 199.359
L347.652 209.011
L347.726 199.705
L347.875 160.676
L347.95 169.44
L348.024 168.033
L348.173 175.118
L348.247 169.736
L348.396 142.878
L348.694 169.884
L349.066 227.303
L349.14 231.475
L349.512 191.632
L349.586 198.075
L349.81 238.313
L349.884 234.067
L350.033 210.394
L350.107 212.171
L350.256 223.946
L350.405 212.516
L350.628 189.411
L350.777 183.486
L350.851 186.325
L351.223 132.535
L351.521 162.108
L351.595 164.305
L351.744 174.031
L351.818 172.18
L351.893 172.452
L352.265 203.753
L352.339 202.642
L352.488 192.126
L352.562 193.237
L352.711 194.94
L353.009 237.128
L353.158 245.571
L353.232 244.287
L353.604 181.931
L353.976 168.601
L354.199 185.115
L354.274 183.363
L354.422 158.776
L354.497 161.491
L354.794 206.814
L354.943 195.014
L355.092 180.573
L355.464 224.563
L355.538 223.576
L355.836 174.772
L355.91 175.019
L356.134 191.558
L356.208 189.633
L356.431 171.143
L356.58 191.929
L356.803 166.675
L356.878 170.329
L357.175 218.713
L357.77 156.036
L357.845 156.381
L358.514 280.353
L358.663 245.176
L358.961 172.822
L359.11 163.145
L359.258 123.08
L359.407 89.1373
L359.482 98.5672
L359.928 228.266
L360.077 221.724
L360.226 233.499
L360.374 222.119
L360.449 231.105
L360.598 209.209
L360.746 188.201
L360.97 217.231
L361.044 209.875
L361.267 172.205
L361.416 203.728
L361.49 199.532
L361.714 143.643
L361.788 147.618
L361.937 162.676
L362.16 151.913
L362.234 152.456
L362.383 171.588
L362.755 240.387
L362.904 225.156
L363.053 208.937
L363.127 213.208
L363.276 231.45
L363.499 203.358
L363.648 168.477
L363.871 181.61
L364.169 159.64
L364.243 159.812
L364.318 160.726
L364.615 219.552
L364.764 187.066
L364.838 189.83
L365.136 263.048
L365.582 152.259
L365.806 164.996
L365.954 150.679
L366.029 161.837
L366.103 161.54
L366.252 117.995
L366.326 130.733
L366.55 208.69
L366.698 209.752
L366.922 239.226
L367.219 204.074
L367.368 161.935
L367.442 172.649
L367.74 267.269
L367.814 264.208
L368.038 193.459
L368.335 86.2984
L368.484 136.855
L368.782 251.866
L368.93 221.132
L369.228 143.545
L369.302 130.906
L369.377 131.893
L369.6 189.337
L369.749 238.066
L369.898 212.615
L370.046 191.015
L370.418 251.619
L370.493 248.311
L371.162 138.682
L371.237 140.73
L371.46 170.896
L371.758 122.438
L372.278 225.205
L372.427 253.594
L372.576 225.575
L372.65 234.042
L372.799 270.454
L372.874 263.147
L373.246 138.311
L373.543 234.561
L373.618 225.032
L373.915 134.263
L374.287 168.477
L374.659 255.593
L374.808 226.884
L375.106 146.68
L375.18 148.679
L375.552 220.885
L375.626 213.899
L375.775 208.542
L375.85 210.714
L375.998 202.543
L376.073 203.21
L376.147 205.95
L376.296 185.51
L376.445 168.058
L376.594 191.608
L376.668 183.955
L376.891 149.864
L377.04 175.908
L377.263 213.899
L377.338 211.455
L377.635 171.489
L377.784 182.573
L377.933 165.391
L378.082 137.966
L378.156 143.1
L378.528 255.791
L378.751 209.801
L378.9 188.522
L378.974 187.535
L379.198 192.669
L379.272 191.484
L379.495 197.137
L379.718 213.282
L379.793 211.307
L379.867 206.691
L379.942 206.765
L380.016 207.086
L380.09 201.186
L380.314 168.625
L380.462 186.276
L380.537 185.091
L380.76 167.44
L380.909 159.862
L381.206 211.011
L381.281 208.443
L381.504 182.252
L381.653 177.092
L381.802 188.547
L381.876 202.124
L381.95 200.026
L382.174 180.4
L382.248 178.746
L382.322 178.771
L382.546 218.219
L382.62 217.133
L382.769 196.693
L382.918 168.971
L382.992 170.921
L383.215 203.679
L383.438 192.274
L383.662 237.252
L383.736 224.687
L384.034 143.15
L384.108 145.026
L384.48 206.444
L384.629 197.458
L384.778 166.626
L384.926 174.081
L385.001 178.277
L385.298 229.155
L385.373 230.784
L385.447 222.835
L385.522 226.316
L385.67 246.212
L386.638 109.676
L386.712 110.935
L387.307 232.635
L387.382 231.179
L387.53 241.843
L387.605 241.621
L387.679 240.337
L387.828 222.884
L388.051 242.831
L388.349 179.635
L388.498 185.757
L388.572 186.127
L388.646 179.61
L388.944 103.628
L389.167 154.382
L389.316 154.283
L389.465 176.92
L389.688 229.451
L389.837 231.5
L390.06 214.096
L390.134 214.393
L390.358 276.082
L390.432 273.984
L390.878 159.171
L391.027 143.89
L391.25 159.393
L391.622 133.349
L391.771 159.467
L391.994 180.03
L392.441 234.314
L392.738 202.395
L392.813 203.309
L393.036 264.159
L393.185 290.548
L393.557 208.419
L394.003 127.005
L394.078 120.686
L394.152 122.71
L394.301 127.721
L394.822 166.157
L395.194 218.021
L395.268 221.551
L395.417 242.09
L395.491 240.066
L395.64 223.329
L395.789 204.197
L396.086 217.034
L396.458 184.992
L396.682 144.137
L396.83 160.751
L396.905 159.985
L397.128 183.733
L397.351 236.98
L397.5 244.435
L397.723 215.158
L397.798 223.625
L398.17 135.472
L398.244 147.346
L398.393 139.644
L398.467 141.249
L398.542 150.605
L398.914 250.681
L398.988 254.927
L399.211 241.917
L399.36 204.642
L399.732 143.594
L399.806 139.397
L399.881 140.039
L399.955 144.927
L400.03 140.607
L400.104 128.511
L400.178 130.042
L400.253 132.041
L400.327 130.362
L400.848 259.395
L401.071 196.051
L401.294 147.815
L401.815 264.998
L401.89 258.284
L402.262 181.684
L402.336 176.549
L402.634 189.361
L402.782 215.8
L403.303 126.66
L403.378 118.612
L403.452 127.45
L403.601 162.577
L403.675 155.813
L403.898 175.932
L404.047 198.001
L404.122 194.002
L404.196 198.273
L404.494 251.668
L404.568 250.31
L404.866 215.627
L405.163 185.412
L405.238 187.337
L405.386 204.642
L405.461 202.272
L405.758 164.379
L405.833 164.552
L405.907 163.886
L406.056 151.938
L406.354 192.694
L406.428 191.929
L406.502 182.104
L406.577 186.325
L406.8 246.484
L406.874 244.164
L407.098 198.791
L407.246 163.861
L407.321 167.663
L407.47 178.179
L407.544 173.242
L407.693 186.794
L407.842 199.68
L408.139 156.134
L408.214 161.368
L408.586 241.843
L408.883 181.141
L409.032 158.776
L409.106 160.8
L409.181 149.839
L409.255 149.938
L409.478 179.734
L409.553 173.883
L409.702 147.223
L410.074 251.002
L410.148 250.532
L410.222 251.1
L410.371 229.846
L410.52 205.555
L410.594 211.949
L410.669 228.71
L410.743 227.427
L410.892 211.652
L411.115 226.612
L411.264 206.863
L411.562 146.26
L411.636 150.284
L411.71 150.234
L411.785 146.951
L411.934 117.847
L412.082 133.794
L412.38 186.325
L412.454 177.487
L412.529 175.463
L412.603 177.438
L412.752 156.85
L412.901 173.612
L413.198 266.85
L413.273 264.924
L413.719 185.881
L413.942 214.121
L414.091 187.806
L414.166 187.954
L414.314 179.29
L414.389 180.894
L414.463 178.993
L414.835 251.89
L414.91 245.892
L415.356 151.716
L415.654 194.274
L415.728 190.842
L416.026 166.231
L416.1 163.244
L416.174 165.342
L416.472 186.72
L416.695 166.601
L416.77 160.726
L416.844 163.071
L417.067 193.36
L417.216 229.624
L417.365 218.515
L417.514 203.383
L417.662 208.172
L417.811 197.952
L418.034 159.269
L418.332 226.834
L418.481 217.256
L418.778 236.634
L418.853 232.981
L419.076 176.895
L419.15 175.908
L419.225 177.537
L419.299 175.685
L419.969 121.179
L420.192 171.538
L420.49 245.423
L420.564 244.707
L420.862 225.501
L421.01 217.775
L421.159 220.268
L421.382 191.435
L421.457 193.657
L421.606 198.939
L421.754 184.696
L421.903 169.835
L421.978 171.859
L422.275 145.421
L422.35 145.519
L422.424 150.136
L422.722 191.904
L422.945 211.48
L423.094 207.53
L423.242 199.556
L423.317 195.162
L423.466 204.987
L423.54 209.949
L423.614 209.011
L423.763 211.332
L423.912 201.087
L423.986 202.346
L424.284 239.202
L424.358 246.212
L424.507 217.157
L424.879 137.028
L425.028 126.092
L425.102 126.166
L425.177 129.918
L425.251 127.721
L425.326 120.414
L425.474 149.741
L425.772 205.999
L425.846 208.789
L425.995 184.202
L426.144 205.333
L426.218 200.445
L426.293 201.581
L426.442 237.721
L426.665 279.415
L426.739 273.391
L427.111 201.976
L427.334 185.881
L427.409 186.202
L427.483 187.584
L427.632 204
L428.004 153.271
L428.153 134.781
L428.227 143.224
L428.45 206.888
L428.674 172.427
L428.822 181.388
L428.897 178.771
L429.046 161.738
L429.269 170.6
L429.715 228.76
L429.79 219.577
L430.013 188.275
L430.087 187.115
L430.236 206.987
L430.459 252.384
L430.534 251.298
L430.757 165.243
L430.831 170.6
L431.054 195.508
L431.129 197.483
L431.203 193.681
L431.426 200.643
L432.022 146.186
L432.096 151.642
L432.245 161.121
L432.394 156.776
L432.542 190.744
L432.691 223.304
L432.766 223.205
L432.84 222.169
L432.914 225.353
L432.989 224.341
L433.138 209.653
L433.361 227.698
L433.51 201.976
L433.733 160.726
L434.105 196.397
L434.179 195.533
L434.477 144.532
L434.774 194.817
L434.849 192.719
L434.923 194.595
L435.146 241.127
L435.221 233.524
L435.444 194.348
L435.518 199.063
L435.593 198.594
L435.816 183.684
L436.039 194.348
L436.262 182.054
L436.411 161.96
L436.56 186.004
L436.634 184.967
L436.858 165.564
L436.932 166.083
L437.304 232.882
L437.527 204.148
L437.602 206.074
L437.676 204.049
L437.825 174.254
L437.974 148.432
L438.271 179.191
L438.569 192.595
L438.643 193.089
L438.792 203.827
L438.941 213.553
L439.164 189.04
L439.238 192.175
L439.462 204.543
L439.536 201.754
L439.834 181.166
L440.057 179.364
L440.206 187.386
L440.28 186.868
L440.578 169.193
L440.652 170.872
L440.801 202.223
L440.95 239.77
L441.098 233.104
L441.322 216.738
L441.694 181.437
L441.917 153.518
L442.066 119.575
L442.14 122.611
L442.363 192.793
L442.512 225.625
L442.586 225.501
L442.958 181.783
L443.033 179.759
L443.256 161.96
L443.33 165.342
L443.777 272.034
L443.926 262.777
L444.521 140.508
L444.744 162.824
L444.818 158.084
L444.967 122.932
L445.042 123.031
L445.19 108.442
L445.265 111.354
L445.86 247.891
L446.083 276.255
L446.158 280.007
L446.232 276.304
L446.381 256.358
L446.455 257.642
L446.53 255.791
L446.678 214.862
L446.902 166.009
L447.125 190.25
L447.348 175.044
L447.497 188.497
L447.646 142.755
L447.869 93.4573
L447.943 97.0861
L448.241 201.383
L448.464 251.026
L448.613 225.797
L448.687 226.958
L448.762 232.463
L448.836 231.944
L448.985 207.752
L449.134 175.537
L449.208 175.957
L449.729 225.921
L449.803 220.367
L449.878 209.48
L449.878 209.48" style="fill:none;stroke:#808080;stroke-linecap:square;"/>
   </g>
  </g>
 </g>
 <defs>
  <clipPath id="p7ff5b81e1d">
   <rect height="345.6" width="446.4" x="72.0" y="43.2"/>
  </clipPath>
 </defs>
</svg>
