<?xml version="1.0" encoding="utf-8" standalone="no"?>
<!DOCTYPE svg PUBLIC "-//W3C//DTD SVG 1.1//EN"
  "http://www.w3.org/Graphics/SVG/1.1/DTD/svg11.dtd">
<!-- Created with matplotlib (http://matplotlib.org/) -->
<svg height="432pt" version="1.1" viewBox="0 0 576 432" width="576pt" xmlns="http://www.w3.org/2000/svg" xmlns:xlink="http://www.w3.org/1999/xlink">
 <defs>
  <style type="text/css">
*{stroke-linecap:butt;stroke-linejoin:round;}
  </style>
 </defs>
 <g id="figure_1">
  <g id="patch_1">
   <path d="
M0 432
L576 432
L576 0
L0 0
z
" style="fill:#ffffff;"/>
  </g>
  <g id="axes_1">
   <g id="line2d_1">
    <path clip-path="url(#p7ff5b81e1d)" d="
M72 260.119
L72.0744 257.147
L72.4464 188.718
L72.5952 210.491
L72.8928 253.61
L72.9672 255.229
L73.0416 253.708
L73.1904 240.523
L73.86 130.433
L73.9344 133.779
L74.232 182.946
L74.7528 265.395
L74.8272 264.462
L75.0504 237.949
L75.1992 219.102
L75.348 224.223
L75.9432 256.83
L76.092 267.59
L76.1664 264.646
L76.3896 227.045
L76.7616 132.449
L76.836 133.819
L77.1336 173.903
L77.2824 186.61
L77.7288 277.756
L77.8776 282.727
L78.0264 255.119
L78.4728 139.677
L78.5472 131.919
L78.6216 137.247
L79.44 314.793
L79.5144 316.054
L79.7376 298.175
L79.812 293.222
L80.0352 238.767
L80.6304 51.5954
L80.7792 71.502
L80.928 117.052
L81.4488 347.106
L81.5232 355.746
L81.5976 351.202
L82.416 188.43
L82.5648 195.878
L82.7136 187.912
L82.788 185.078
L82.8624 188.205
L83.2344 244.457
L83.532 201.597
L83.904 147.96
L84.2016 125.26
L84.276 127.178
L84.4248 144.262
L85.0944 339.509
L85.1688 333.968
L85.3176 307.938
L85.9128 161.865
L86.0616 154.411
L86.136 153.081
L86.2104 155.057
L86.508 188.897
L87.1032 270.026
L87.1776 267.192
L87.252 266.104
L87.5496 232.264
L87.8472 195.342
L87.996 183.062
L88.2192 169.232
L88.2936 168.662
L88.4424 167.095
L88.5168 168.794
L88.6656 183.476
L88.8888 203.291
L88.9632 204.61
L89.1864 215.277
L89.2608 215.525
L89.4096 233.623
L89.7072 267.953
L89.7816 269.335
L89.856 268.01
L90.0048 258.5
L90.1536 271.967
L90.228 268.782
L90.4512 237.511
L90.6744 100.319
L90.7488 103.614
L90.972 171.161
L91.1952 138.998
L91.344 183.511
L91.716 314.142
L91.8648 325.679
L92.088 296.188
L92.6832 190.555
L92.7576 188.92
L92.832 190.498
L93.2784 141.434
L93.3528 142.609
L93.7992 189.144
L93.8736 189.617
L94.0224 184.024
L94.1712 215.421
L94.4688 317.604
L94.5432 325.345
L94.6176 323.917
L94.8408 279.432
L95.3616 167.515
L95.5848 140.438
L95.6592 141.757
L95.808 157.873
L96.4032 239.688
L96.7752 277.053
L96.8496 276.466
L97.0728 251.698
L97.5936 199.904
L97.668 200.647
L97.7424 203.176
L97.8168 200.653
L98.2632 157.003
L98.412 171.691
L99.0072 247.211
L99.0816 250.799
L99.156 249.785
L99.528 227.69
L99.7512 204.667
L100.346 227.373
L100.57 266.403
L100.644 263.471
L100.867 223.756
L101.165 123.722
L101.314 165.764
L101.686 282.577
L101.76 281.321
L102.132 242.384
L102.653 154.82
L102.727 149.02
L102.802 149.769
L102.876 150.402
L102.95 152.609
L103.322 206.257
L103.769 283.885
L103.843 290.768
L103.918 287.905
L104.066 266.57
L104.438 202.709
L104.587 182.146
L104.662 184.962
L104.736 193.107
L104.81 189.57
L105.034 164.889
L105.108 158.968
L105.182 160.206
L105.406 222.581
L105.778 284.271
L106.15 262.953
L106.224 257.596
L106.968 139.13
L107.042 136.826
L107.266 159.549
L107.786 263.448
L108.158 229.464
L108.233 218.134
L108.307 219.782
L108.605 243.248
L108.679 245.201
L108.754 244.653
L108.902 218.854
L109.2 148.409
L109.274 150.425
L109.795 236.941
L109.944 241.514
L110.242 211.689
L110.316 213.204
L110.39 214.753
L110.465 214.661
L110.539 212.818
L110.614 213.307
L110.986 227.022
L111.358 250.765
L111.432 249.682
L111.581 236.105
L112.102 177.929
L112.25 175.326
L112.399 180.136
L112.474 184.778
L113.069 278.678
L113.143 277.215
L113.292 253.535
L113.664 160.166
L113.813 149.141
L114.334 211.291
L114.557 259.059
L114.631 253.501
L114.854 227.35
L114.929 224.977
L115.45 262.319
L115.97 207.115
L116.417 152.321
L116.566 161.548
L116.714 188.257
L117.012 248.61
L117.086 246.583
L117.533 194.541
L117.607 195.359
L117.756 209.736
L117.979 241.808
L118.202 248.801
L118.426 226.354
L118.798 182.998
L118.872 175.775
L118.946 176.53
L119.467 266.61
L119.542 259.75
L119.765 232.747
L119.839 229.948
L120.211 198.631
L120.36 204.051
L120.434 201.54
L120.509 205.889
L120.732 232.488
L120.881 237.655
L120.955 230.461
L121.402 108.331
L121.55 147.643
L121.922 230.91
L121.997 225.997
L122.071 225.697
L122.294 257.458
L122.369 259.18
L122.815 304.638
L122.89 301.689
L123.038 291.067
L123.485 211.176
L124.08 45.5013
L124.229 94.3864
L124.75 326.117
L124.898 332.499
L124.973 328.824
L125.196 284.484
L125.717 119.707
L125.791 118.146
L126.014 163.875
L126.461 279.605
L126.684 297.657
L126.758 297.858
L126.982 275.014
L127.502 155.477
L127.651 147.707
L128.098 201.24
L128.172 201.764
L128.321 198.308
L128.47 201.338
L128.618 212.789
L128.693 219.782
L128.767 219.638
L128.916 216.337
L129.065 220.329
L129.139 219.43
L129.66 265.084
L129.734 264.485
L129.809 264.162
L129.958 253.662
L130.33 183.085
L130.553 141.688
L130.627 139.677
L130.702 141.497
L131.074 182.756
L131.669 283.689
L131.818 285.63
L132.041 256.68
L132.264 213.377
L132.338 214.753
L132.413 218.249
L132.487 218.226
L132.562 219.92
L132.785 233.755
L132.859 231.682
L133.008 217.218
L133.454 109.466
L133.603 140.541
L134.124 273.563
L134.273 302.466
L134.347 302.201
L134.422 300.854
L134.57 285.469
L135.091 135.858
L135.166 142.961
L135.389 205.773
L135.538 245.206
L135.612 242.793
L135.835 225.622
L135.91 226.198
L135.984 225.34
L136.133 231.895
L136.505 248.76
L136.654 239.314
L136.802 202.801
L137.026 157.983
L137.1 161.012
L137.323 196.972
L137.472 215.721
L137.546 215.168
L137.621 215.277
L137.695 216.602
L137.918 231.503
L138.216 255.678
L138.29 260.614
L138.365 260.153
L138.514 239.533
L138.811 188.465
L138.886 188.24
L138.96 190.112
L139.034 189.501
L139.332 165.649
L139.481 183.816
L139.927 277.266
L140.002 282.911
L140.076 278.378
L140.597 173.471
L140.671 175.361
L140.82 180.763
L140.894 180.919
L141.043 188.937
L141.192 212.766
L141.415 264.082
L141.49 260.545
L141.787 232.056
L141.862 234.452
L141.936 232.183
L142.382 150.99
L142.531 160.408
L142.754 210.687
L143.126 308.774
L143.201 309.488
L143.35 295.526
L143.573 226.866
L144.019 124.603
L144.094 119.8
L144.242 133.727
L144.54 222.322
L144.838 283.821
L144.912 284.564
L145.061 269.732
L145.507 193.435
L145.73 183.597
L146.4 230.455
L146.698 274.577
L146.846 264.162
L147.442 155.483
L147.516 152.321
L147.665 160.143
L147.962 195.181
L148.26 233.001
L148.483 247.09
L148.706 255.471
L148.781 254.14
L148.855 256.577
L149.004 265.193
L149.302 240.27
L149.971 158.599
L150.046 160.724
L150.194 171
L150.269 170.263
L150.641 202.127
L150.938 246.963
L151.162 250.552
L151.31 271.714
L151.385 270.809
L151.534 252.798
L151.98 185.602
L152.203 189.881
L152.278 189.092
L152.352 188.614
L152.724 207.997
L152.798 208.417
L152.873 205.681
L153.17 213.624
L153.617 268.69
L153.84 243.789
L154.063 216.907
L154.138 219.113
L154.212 217.38
L154.361 219.92
L154.51 211.101
L154.882 143.807
L155.254 177.198
L156.072 275.06
L156.146 272.342
L156.295 275.544
L156.593 234.533
L156.89 186.195
L157.039 179.663
L157.114 180.377
L157.262 182.762
L157.337 179.64
L157.411 182.157
L157.858 227.103
L158.006 214.16
L158.081 217.524
L158.155 214.31
L158.304 203.181
L158.453 206.499
L158.602 200.785
L158.676 203.901
L158.899 218.14
L158.974 218.941
L159.346 245.483
L159.42 252.706
L159.494 251.778
L159.792 223.439
L160.09 195.682
L160.164 195.544
L160.313 200.935
L160.387 198.285
L160.61 215.439
L160.834 228.946
L160.982 218.779
L161.28 189.185
L161.354 192.819
L161.503 210.525
L161.578 210.243
L161.652 213.227
L161.875 227.149
L161.95 225.605
L162.024 226.193
L162.098 225.766
L162.322 196.84
L162.545 234.487
L162.619 231.365
L162.768 223.468
L163.066 254.33
L163.14 246.387
L163.586 167.924
L163.661 172.82
L164.033 252.683
L164.107 247.43
L164.256 241.716
L164.405 227.229
L164.777 176.461
L164.926 167.826
L165 170.401
L165.298 199.293
L165.521 236.44
L165.67 237.753
L165.744 236.226
L165.818 237.05
L165.893 234.331
L165.967 234.844
L166.265 260.251
L166.414 257.049
L166.711 250.955
L166.934 222.702
L167.381 101.489
L167.455 103.862
L167.604 137.252
L168.05 298.492
L168.125 299.039
L168.199 294.212
L168.943 171.196
L169.018 166.663
L169.092 167.671
L169.241 186.892
L169.687 268.206
L169.762 267.549
L169.985 228.543
L170.357 147.885
L170.431 144.228
L170.58 153.812
L170.803 197.871
L171.175 262.596
L171.25 261.409
L171.398 264.404
L171.547 270.758
L171.622 270.107
L171.845 243.899
L172.366 184.525
L172.663 168.264
L172.738 167.135
L172.886 172.371
L173.035 184.052
L173.407 237.154
L173.779 301.971
L173.854 298.06
L174.002 266.973
L174.449 140.72
L174.598 118.267
L174.672 124.16
L175.044 233.156
L175.342 287.83
L175.416 291.465
L175.639 258.161
L176.16 159.849
L176.234 164.042
L176.681 232.649
L176.904 246.174
L176.978 245.535
L177.35 220.208
L177.499 212.864
L177.722 216.988
L177.797 216.418
L178.02 208.227
L178.094 210.456
L178.243 213.901
L178.392 210.041
L178.466 210.312
L178.541 211.389
L178.764 223.952
L178.838 221.423
L178.913 217.875
L178.987 219.096
L179.21 221.17
L179.359 226.728
L179.88 156.024
L179.954 158.443
L180.178 192.727
L180.624 291.574
L180.698 296.839
L180.773 296.603
L181.145 254.526
L181.442 189.259
L181.889 104.887
L182.112 163.178
L182.484 286.194
L182.633 294.662
L182.782 292.928
L182.856 288.579
L183.079 239.723
L183.451 143.421
L183.526 143.329
L183.6 148.732
L184.046 236.664
L184.344 258.961
L184.642 245.391
L185.534 165.666
L185.609 162.141
L185.683 162.401
L185.906 176.092
L186.353 242.827
L186.65 256.922
L186.799 265.061
L186.874 262.757
L186.948 263.368
L187.022 265.775
L187.097 263.644
L187.841 193.355
L187.915 193.366
L187.99 193.228
L188.138 201.281
L188.287 212.38
L188.362 211.902
L188.436 210.358
L188.734 191.707
L188.882 181.351
L188.957 181.91
L189.106 177.832
L189.18 177.843
L189.329 184.133
L189.403 182.313
L189.552 172.411
L190.147 276.69
L190.37 286.966
L190.519 263.489
L190.668 244.175
L190.742 241.272
L190.966 204.097
L191.04 204.552
L191.263 193.746
L191.486 215.444
L191.635 230.536
L191.784 224.943
L191.858 223.025
L192.082 194.345
L192.379 123.785
L192.454 123.814
L192.677 160.413
L193.123 276.489
L193.272 273.419
L193.346 274.168
L193.421 274.335
L193.495 274.98
L193.942 251.502
L194.611 163.247
L194.834 136.504
L194.909 135.985
L194.983 138.525
L195.132 156.508
L195.355 175.424
L195.504 201.148
L195.95 288.907
L196.025 287.174
L196.248 263.961
L196.843 202.98
L196.918 201.908
L196.992 202.519
L197.141 206.632
L197.215 205.238
L197.364 192.358
L197.513 177.515
L197.587 179.007
L197.81 196.171
L198.034 225
L198.257 219.689
L198.331 219.275
L198.406 219.666
L198.554 224.009
L198.703 225.167
L199.15 234.498
L199.224 232.932
L199.522 210.957
L199.745 207.991
L199.819 208.077
L199.894 208.872
L199.968 211.7
L200.117 205.831
L200.34 194.334
L200.414 194.507
L200.638 213.025
L200.712 211.672
L200.786 213.077
L200.935 217.38
L201.01 216.982
L201.084 217
L201.382 227.932
L201.605 243.513
L201.679 248.017
L201.754 247.96
L201.902 239.498
L201.977 243.346
L202.051 241.675
L202.349 214.811
L202.646 178.961
L202.795 166.807
L203.018 179.093
L203.167 173.489
L203.242 176.633
L203.465 214.235
L203.688 246.808
L203.762 245.748
L203.837 248.841
L203.911 246.894
L204.283 210.917
L204.358 215.387
L204.73 269.525
L204.804 271.576
L204.878 269.911
L205.474 196.471
L205.697 172.457
L205.92 178.223
L205.994 177.365
L206.143 158.852
L206.292 138.641
L206.366 140.242
L206.59 164.739
L206.887 224.574
L207.036 242.084
L207.11 241.981
L207.185 240.322
L207.408 257.256
L207.854 288.47
L208.003 291.505
L208.226 262.152
L208.524 189.288
L208.747 156.6
L208.822 156.255
L209.119 165.609
L209.789 207.663
L210.086 251.116
L210.235 264.191
L210.458 254.365
L210.533 250.753
L211.054 178.068
L211.128 178.137
L211.351 198.498
L211.649 236.751
L211.723 236.319
L211.798 238.893
L212.021 257.533
L212.244 248.921
L212.318 245.16
L212.616 190.74
L212.914 138.871
L212.988 137.644
L213.137 162.314
L213.732 307.069
L213.955 248.893
L214.327 150.852
L214.402 150.086
L214.625 184.588
L214.848 214.05
L214.997 224.355
L215.071 223.313
L215.22 218.814
L215.443 224.246
L215.518 224.165
L215.666 222.091
L216.113 235.725
L216.41 250.609
L216.708 241.272
L217.154 199.46
L217.452 179.905
L217.675 168.212
L217.75 166.427
L217.898 172.239
L218.568 243.576
L218.717 239.769
L218.791 241.025
L218.866 240.028
L219.014 229.798
L219.238 212.53
L219.312 211.418
L219.61 223.86
L219.758 222.771
L220.056 234.913
L220.13 234.833
L220.205 232.252
L220.502 207.34
L220.577 207.588
L220.726 203.268
L220.8 200.987
L220.874 201.16
L220.949 201.643
L221.395 222.921
L221.618 218.877
L221.693 214.269
L221.767 214.92
L221.842 215.064
L222.362 183.16
L222.511 186.08
L223.553 262.342
L223.627 263.304
L223.85 236.065
L224.148 207.098
L224.222 200.157
L224.297 200.29
L224.371 201.263
L224.52 195.474
L224.594 195.538
L225.041 212.478
L225.264 221.101
L225.338 220.317
L225.487 212.438
L225.785 193.337
L226.306 219.77
L226.454 221.348
L226.678 232.92
L226.752 232.436
L226.901 233.058
L227.273 219.638
L227.496 209.552
L227.868 225.593
L227.942 226.193
L228.017 225.069
L228.166 209.431
L228.538 161.94
L228.612 166.536
L229.207 291.119
L229.282 289.967
L229.356 286.2
L229.654 222.247
L230.026 156.934
L230.1 156.145
L230.249 161.479
L230.398 167.752
L230.695 213.209
L230.993 257.734
L231.142 255.471
L231.29 264.733
L231.439 260.47
L231.662 235.789
L232.034 176.04
L232.332 161.122
L232.406 163.639
L233.374 263.506
L233.522 272.728
L233.597 270.804
L234.043 232.056
L234.341 186.909
L234.49 180.118
L234.638 182.514
L234.787 184.525
L234.862 182.86
L234.936 184.928
L235.159 207.311
L235.308 205.025
L235.68 227.35
L235.754 225.876
L235.978 217.639
L236.126 224.355
L236.35 197.796
L236.498 207.023
L236.573 205.958
L236.796 230.104
L236.87 222.713
L236.945 219.367
L237.094 226.106
L237.168 225.795
L237.242 226.987
L237.391 249.705
L237.466 246.905
L237.54 243.53
L237.689 246.116
L238.061 192.733
L238.135 188.804
L238.21 191.563
L238.73 236.918
L239.028 211.516
L239.177 201.81
L239.326 211.487
L239.4 211.176
L239.549 205.399
L239.921 183.522
L239.995 175.447
L240.07 177.4
L240.516 225.017
L240.739 251.623
L240.814 252.043
L240.888 251.444
L240.962 249.78
L241.111 243.582
L241.26 248.582
L241.632 226.815
L242.078 181.178
L242.227 189.288
L242.525 213.25
L242.599 211.418
L242.674 207.962
L242.748 208.239
L242.822 209.195
L242.897 208.025
L242.971 208.354
L243.12 217.794
L243.269 238.196
L243.343 235.023
L243.418 236.63
L243.492 248.881
L243.566 248.294
L243.715 232.39
L243.864 235.005
L244.236 189.847
L244.385 186.875
L244.534 193.487
L244.608 190.751
L244.682 191.01
L244.831 194.795
L244.906 194.236
L245.054 209.005
L245.426 247.13
L245.501 248.213
L245.575 247.879
L245.947 237.707
L246.319 201.54
L246.468 195.054
L246.914 226.924
L246.989 226.498
L247.361 210.364
L247.435 211.389
L247.584 215.312
L247.658 213.601
L247.807 203.631
L247.956 205.238
L248.179 195.624
L248.254 193.804
L248.328 193.844
L248.7 217.731
L248.774 217.8
L248.849 221.153
L249.072 249.728
L249.221 250.356
L249.295 250.166
L250.039 201.747
L250.337 189.294
L250.411 188.948
L250.634 193.608
L250.783 190.135
L250.932 195.693
L251.006 192.329
L251.081 194.04
L251.304 229.867
L251.527 281.897
L251.676 289.236
L251.75 288.631
L252.718 159.411
L252.792 159.693
L252.866 159.031
L252.941 159.705
L253.164 185.176
L253.462 217.501
L253.536 219.413
L253.834 248.253
L253.908 248.069
L254.057 254.077
L254.206 247.804
L254.28 248.173
L254.429 240.155
L254.503 242.211
L254.726 227.857
L254.801 230.086
L254.875 228.329
L255.247 202.029
L255.322 201.286
L255.545 207.807
L255.619 208.682
L255.694 206.234
L255.991 186.356
L256.066 185.308
L256.14 181.812
L256.214 183.914
L256.735 243.196
L256.958 247.718
L257.107 233.537
L257.628 189.282
L257.702 184.928
L257.777 184.945
L258.074 205.145
L258.446 259.986
L258.521 259.307
L258.67 251.099
L258.744 251.537
L259.19 207.271
L259.339 209.967
L259.414 208.659
L259.637 192.94
L260.083 202.098
L260.306 216.573
L260.53 211.833
L260.976 224.43
L261.125 209.903
L261.199 203.331
L261.646 240.241
L261.72 247.435
L261.794 243.968
L262.092 223.341
L262.315 209.177
L262.464 202.542
L262.613 194.069
L262.687 195.192
L262.836 188.804
L262.91 190.544
L263.134 214.753
L263.208 212.806
L263.654 233.439
L263.729 232.298
L263.952 226.78
L264.026 227.103
L264.324 223.837
L264.77 200.883
L264.845 199.224
L264.919 199.673
L265.068 205.94
L265.291 222.045
L265.366 222.091
L265.514 216.32
L265.663 212.898
L265.738 214.315
L265.886 208.63
L265.961 211.199
L266.11 215.502
L266.184 217.316
L266.333 227.656
L266.482 218.105
L266.63 229.43
L266.705 229.378
L266.779 229.263
L267.077 217.938
L267.151 220.813
L267.374 197.053
L267.523 205.025
L267.598 201.966
L267.672 202.899
L268.044 222.068
L268.118 222.794
L268.267 216.435
L268.342 217.04
L268.416 217.633
L268.639 204.091
L268.714 206.943
L268.937 215.064
L269.086 231.428
L269.234 228.168
L269.383 244.544
L269.458 243.449
L269.532 238.467
L269.681 245.304
L269.904 235.65
L269.978 236.941
L270.127 221.861
L270.35 186.61
L270.574 135.593
L270.648 135.812
L270.946 158.34
L271.541 277.768
L271.615 283.067
L271.764 274.571
L271.838 275.441
L271.987 280.371
L272.21 275.619
L272.359 258.489
L273.103 139.361
L273.178 137.126
L273.401 151.727
L273.996 238.519
L274.219 264.278
L274.294 264.289
L274.442 267.607
L274.517 265.666
L274.963 231.492
L275.038 230.086
L275.41 214.488
L275.558 209.961
L275.633 210.041
L275.707 210.45
L275.782 212.201
L275.93 209.696
L276.079 187.474
L276.377 140.449
L276.451 145.034
L277.27 283.084
L277.418 291.736
L277.493 285.849
L277.865 215.485
L277.939 210.237
L278.386 132.84
L278.46 133.681
L278.609 181.397
L278.832 236.428
L279.055 265.441
L279.13 265.971
L279.278 269.289
L279.427 256.041
L279.65 214.978
L279.799 200.526
L279.874 199.904
L279.948 195.181
L280.022 197.715
L280.246 223.48
L280.394 215.911
L280.543 223.929
L280.618 221.93
L280.766 202.6
L280.99 179.611
L281.064 179.416
L281.138 181.933
L281.659 229.988
L281.734 229.176
L281.808 230.138
L281.957 236.117
L282.031 235.685
L282.106 234.936
L282.18 236.359
L282.329 224.712
L282.403 226.861
L282.478 231.071
L282.552 229.257
L282.626 227.529
L282.85 237.891
L283.445 173.131
L283.668 129.782
L283.817 138.134
L284.784 319.643
L284.858 316.751
L285.007 290.175
L285.677 131.786
L285.751 131.631
L286.049 164.958
L286.644 238.018
L286.867 244.607
L287.314 214.793
L287.388 215.427
L287.76 231.676
L287.909 235.374
L287.983 233.969
L288.578 190.653
L289.174 216.977
L289.694 245.552
L289.843 242.862
L290.662 179.283
L290.736 180.752
L290.959 189.985
L291.182 222.143
L291.257 218.774
L291.331 221.441
L291.629 238.911
L291.703 240.996
L291.926 253.109
L292.075 258.541
L292.298 237.194
L292.447 211.85
L292.522 214.626
L292.596 214.874
L292.819 184.093
L292.894 183.217
L293.117 172.809
L293.191 170.902
L293.266 166.024
L293.34 168.149
L294.084 243.415
L294.158 244.515
L294.307 241.001
L294.382 241.128
L294.456 239.147
L294.754 222.443
L294.902 215.634
L295.051 208.337
L295.2 211.061
L295.721 257.055
L295.795 253.973
L296.242 185.947
L296.465 191.753
L296.688 208.74
L296.911 194.553
L297.283 208.93
L297.506 224.897
L297.581 224.228
L297.953 211.147
L298.25 187.18
L298.325 187.681
L298.474 205.986
L298.846 258.742
L298.994 260.004
L299.069 258.126
L299.887 197.047
L300.334 221.037
L300.631 212.628
L300.929 188.309
L301.078 184.611
L301.673 221.441
L301.822 240.604
L301.97 233.94
L302.119 246.537
L302.194 243.905
L302.268 238.271
L302.342 240.569
L302.417 243.035
L303.012 202.502
L303.086 202.012
L303.235 205.785
L303.384 198.17
L303.533 206.136
L303.682 203.498
L303.83 218.9
L303.905 218.261
L303.979 217.409
L304.202 224.372
L304.277 224.603
L304.351 224.459
L304.574 211.188
L304.649 204.765
L304.798 213.665
L304.946 197.295
L305.021 197.997
L305.095 202.548
L305.17 202.225
L305.244 198.435
L305.318 201.43
L305.69 232.166
L305.914 242.269
L305.988 240.051
L306.286 220.68
L306.509 205.543
L306.583 208.613
L306.658 209.874
L306.732 208.1
L306.955 217.524
L307.03 215.727
L307.327 211.781
L307.476 217.99
L307.55 217.702
L307.699 223.618
L308.146 208.002
L308.369 224.891
L308.443 224.407
L308.592 220.018
L308.89 207.115
L308.964 207.467
L309.038 207.259
L309.187 205.007
L309.485 212.449
L309.857 225.565
L309.931 224.321
L310.006 222.23
L310.452 249.042
L310.526 247.309
L310.601 244.331
L310.75 220.34
L311.047 164.676
L311.27 152.171
L311.345 152.591
L311.568 200.526
L311.791 239.775
L312.014 252.971
L312.089 251.634
L312.163 247.844
L312.238 248.253
L312.386 254.457
L312.535 248.841
L312.684 240.235
L313.056 212.15
L313.205 199.771
L313.279 194.57
L313.354 196.92
L313.577 218.29
L313.651 217.881
L313.8 201.108
L313.949 177.273
L314.172 187.025
L314.246 183.666
L314.321 188.597
L314.544 216.078
L314.693 221.406
L314.842 215.145
L315.139 240.869
L315.288 242.994
L315.437 240.5
L315.809 219.787
L315.883 221.953
L315.958 223.796
L316.181 209.84
L316.255 211.268
L316.33 208.417
L316.478 197.237
L316.627 211.407
L316.85 190.198
L316.925 191.235
L317.074 197.243
L317.446 222.362
L317.669 226.388
L317.966 235.23
L318.413 211.793
L318.487 214.183
L318.636 225.755
L319.008 204.725
L319.157 208.648
L319.231 204.898
L319.306 206.349
L319.454 216.331
L319.529 213.999
L319.678 200.019
L319.752 202.559
L319.901 195.641
L319.975 197.03
L320.645 267.394
L320.719 265.055
L321.24 208.36
L321.686 154.083
L321.761 157.96
L321.984 180.879
L322.058 182.267
L322.207 196.425
L322.505 231.215
L322.579 229.764
L322.802 220.006
L323.398 250.621
L323.472 250.039
L323.546 247.695
L323.621 247.908
L323.77 249.901
L323.993 227.321
L324.29 198.712
L324.439 191.69
L324.588 185.475
L324.737 185.026
L324.811 186.045
L324.96 189.743
L325.034 188.021
L325.109 189.916
L325.258 204.673
L325.481 229.643
L325.555 228.6
L325.853 216.17
L326.002 219.033
L326.076 216.354
L326.225 228.295
L326.374 236.831
L326.448 237.603
L326.522 237.004
L326.746 226.573
L326.82 228.088
L327.043 215.813
L327.266 195.953
L327.49 204.541
L327.564 204.898
L327.713 215.865
L327.862 208.849
L328.01 222.293
L328.085 221.469
L328.159 222.356
L328.457 233.922
L328.606 223.122
L328.754 209.321
L328.903 213.256
L329.052 202.784
L329.424 216.245
L329.498 212.789
L329.722 198.493
L329.87 208.843
L330.094 229.199
L330.242 223.019
L330.317 222.806
L330.689 210.623
L330.838 217.057
L330.986 208.55
L331.507 231.319
L331.582 230.501
L331.73 219.206
L331.954 202.962
L332.028 207.179
L332.177 203.193
L332.4 225.064
L332.474 224.793
L332.549 223.889
L332.698 217
L332.772 217.748
L332.921 225.496
L333.144 205.94
L333.293 216.026
L333.367 215.156
L333.442 213.803
L333.665 223.382
L333.888 218.843
L334.037 197.364
L334.111 199.057
L334.409 222.443
L334.483 222.731
L334.558 221.129
L334.632 222.564
L334.706 227.788
L334.93 203.262
L335.004 206.297
L335.078 207.369
L335.302 223.894
L335.376 221.694
L335.599 230.847
L335.822 216.994
L335.897 223.745
L335.971 223.255
L336.046 220.922
L336.269 193.078
L336.343 197.79
L336.418 202.145
L336.492 200.785
L336.715 209.523
L336.864 203.613
L337.31 232.932
L337.534 229.101
L337.682 213.227
L337.757 214.747
L337.906 225.277
L337.98 222.523
L338.203 233.462
L338.352 226.308
L338.501 230.184
L339.022 190.141
L339.096 192.041
L339.245 182.434
L339.468 192.491
L339.691 224.004
L339.84 217.328
L339.989 225.726
L340.138 219.062
L340.212 220.772
L340.361 232.275
L340.435 240.045
L340.658 223.566
L340.733 224.747
L340.807 223.94
L340.956 210.007
L341.179 217.311
L341.402 227.656
L341.626 232.868
L341.7 231.112
L341.998 201.067
L342.146 203.118
L342.221 203.043
L342.295 203.596
L342.518 217.645
L342.742 190.895
L342.816 193.746
L342.965 204.086
L343.188 215.295
L343.486 228.45
L343.783 220.3
L343.932 233.387
L344.081 221.026
L344.155 222.195
L344.304 227.54
L344.453 221.844
L344.527 223.698
L344.676 214.183
L344.974 189.835
L345.048 193.579
L345.346 217.08
L345.494 222.558
L345.643 218.411
L345.718 219.056
L346.015 245.857
L346.09 243.933
L346.536 203.677
L346.759 189.363
L346.834 193.971
L346.908 201.039
L346.982 199.702
L347.131 188.862
L347.206 188.465
L347.429 213.618
L347.578 226.93
L347.801 233.093
L348.024 219.102
L348.322 242.182
L348.396 241.785
L348.545 224.522
L348.619 227.316
L348.694 226.198
L348.768 217.841
L348.842 221.55
L348.917 225.916
L349.214 208.964
L349.363 211.124
L349.438 209.742
L349.661 191.062
L349.884 218.549
L350.033 217.46
L350.256 227.569
L350.479 218.595
L350.554 219.367
L350.702 205.67
L350.851 198.153
L350.926 198.493
L351.074 188.079
L351.149 190.377
L351.298 204.708
L351.372 201.511
L351.446 202.484
L351.67 215.053
L352.042 246.243
L352.116 253.892
L352.19 253.794
L352.711 222.967
L352.786 220.651
L352.934 205.802
L353.009 206.217
L353.083 208.509
L353.381 196.304
L353.455 196.482
L353.604 212.564
L353.827 190.112
L353.902 191.512
L354.05 198.17
L354.199 211.424
L354.348 208.014
L354.497 217.074
L354.571 216.809
L354.646 216.072
L354.869 244.452
L354.943 243.57
L355.39 220.507
L355.538 204.61
L355.91 225.778
L356.134 219.246
L356.208 219.471
L356.282 220.542
L356.431 213.872
L356.58 200.002
L356.654 200.18
L356.729 207.369
L356.803 206.297
L357.026 189.202
L357.324 224.044
L357.398 221.147
L357.547 216.003
L357.696 220.306
L357.77 219.309
L357.845 219.384
L358.068 235.437
L358.291 216.815
L358.366 217.898
L358.514 225.761
L358.589 223.791
L358.738 214.338
L358.812 214.534
L358.886 213.757
L359.035 209.281
L359.184 220.571
L359.333 211.326
L359.482 229.712
L359.63 217.927
L359.854 200.319
L359.928 198.539
L360.077 191.65
L360.374 222.477
L360.449 220.283
L360.523 218.002
L360.746 242.246
L360.821 240.593
L360.97 220.352
L361.118 235.714
L361.267 216.694
L361.416 186.95
L361.49 189.282
L361.565 194.248
L361.714 187.848
L361.788 190.947
L362.383 249.497
L362.681 227.114
L362.904 210.761
L362.978 210.007
L363.053 211.366
L363.127 215.652
L363.202 214.868
L363.425 206.269
L363.499 206.453
L363.648 203.187
L363.797 213.319
L363.946 221.631
L364.169 217.731
L364.243 217.437
L364.466 213.198
L364.541 214.264
L364.615 215.202
L364.764 224.321
L364.913 220.669
L365.062 228.312
L365.136 227.644
L365.359 191.834
L365.88 220.669
L365.954 220.928
L366.029 220.45
L366.178 224.914
L366.401 204.356
L366.624 225.801
L366.698 224.165
L366.847 220.744
L367.07 229.205
L367.145 227.12
L367.294 215.485
L367.368 215.646
L367.517 227.224
L367.591 224.937
L368.038 195.757
L368.112 197.594
L368.261 206.77
L368.335 199.881
L368.41 200.797
L368.558 215.128
L368.707 207.317
L369.154 239.469
L369.302 228.785
L369.674 204.921
L369.823 210.41
L369.972 194.098
L370.046 196.805
L370.195 207.069
L370.27 200.336
L370.344 200.347
L370.567 224.574
L370.642 223.733
L370.79 232.235
L370.865 230.034
L371.014 215.26
L371.088 215.98
L371.311 223.503
L371.534 202.029
L371.906 231.584
L371.981 231.192
L372.13 225.887
L372.278 235.501
L372.353 233.669
L373.171 186.224
L373.246 185.21
L373.469 190.285
L373.692 228.18
L373.766 226.757
L373.841 223.203
L373.99 236.157
L374.138 249.521
L374.213 248.691
L374.362 239.014
L374.659 203.976
L374.734 204.656
L374.882 196.765
L374.957 190.388
L375.031 191.874
L375.18 200.837
L375.329 194.587
L375.478 208.244
L375.85 241.445
L376.073 244.319
L376.296 252.907
L376.445 242.488
L376.891 196.673
L377.04 175.073
L377.263 182.232
L377.338 182.705
L377.635 199.115
L377.784 217.051
L377.858 215.358
L377.933 217.76
L378.082 225.115
L378.23 210.203
L378.454 238.006
L378.528 237.298
L378.751 234.136
L378.974 219.453
L379.049 220.991
L379.123 220.363
L379.198 219.545
L379.346 222.731
L379.495 209.748
L379.57 211.591
L379.718 219.995
L380.016 202.214
L380.314 189.173
L380.388 192.71
L380.909 252.665
L380.983 252.591
L381.281 238.916
L381.504 223.606
L381.727 192.715
L381.802 195.607
L381.95 201.367
L382.025 199.241
L382.174 191.402
L382.322 202.358
L382.62 219.125
L382.769 213.97
L382.918 220.225
L382.992 219.413
L383.215 210.491
L383.438 223.065
L383.513 222.863
L383.587 223.359
L383.662 224.683
L383.736 224.102
L383.81 222.662
L383.885 223.387
L383.959 226.423
L384.48 202.916
L384.554 199.921
L384.629 201.067
L385.001 227.477
L385.224 231.405
L385.447 229.885
L385.67 211.274
L385.894 224.079
L386.191 206.516
L386.414 169.652
L386.489 177.809
L386.861 258.328
L386.935 256.116
L387.382 199.149
L387.679 161.98
L387.828 184.525
L388.126 242.044
L388.274 250.845
L388.423 240.737
L388.646 217.305
L388.721 218.762
L388.944 233.727
L389.018 233.272
L389.539 203.849
L389.614 204.892
L389.911 226.763
L390.134 210.433
L390.655 178.909
L390.73 179.306
L390.953 196.54
L391.325 234.977
L391.399 234.003
L391.548 228.347
L391.697 233.634
L391.771 232.54
L391.92 229.677
L391.994 231.463
L392.366 251.249
L392.59 249.382
L392.664 247.539
L393.036 217.576
L393.408 148.841
L393.631 111.563
L393.706 119.817
L393.929 207.617
L394.226 290.111
L394.301 294.276
L394.45 284.541
L394.673 255.488
L395.342 170.816
L395.491 167.285
L395.64 155.068
L395.938 197.876
L396.31 250.638
L396.384 249.59
L396.533 244.619
L396.682 244.423
L396.756 246.888
L397.054 266.455
L397.128 263.224
L397.649 192.088
L397.872 176.265
L397.946 176.075
L398.095 182.849
L398.318 177.284
L398.393 175.435
L398.467 177.584
L399.36 252.372
L399.434 253.65
L399.583 245.419
L399.732 231.515
L399.881 207.899
L399.955 210.571
L400.178 224.107
L400.253 224.539
L400.327 221.25
L400.476 224.747
L400.922 185.164
L401.22 214.707
L401.443 233.715
L401.741 216.74
L401.964 204.31
L402.41 217.564
L402.634 236.969
L402.708 233.444
L402.857 222.616
L403.006 240.483
L403.154 246.796
L403.229 245.01
L403.526 222.178
L403.675 206.009
L403.973 166.536
L404.27 195.682
L404.568 222.564
L404.791 208.601
L404.866 208.492
L405.089 205.382
L405.238 213.665
L405.535 238.438
L405.758 226.97
L405.833 228.283
L405.982 238.778
L406.056 238.721
L406.279 232.926
L406.354 231.647
L406.726 215.83
L406.8 216.907
L406.874 215.554
L407.023 208.567
L407.098 210.243
L407.172 214.707
L407.246 214.039
L407.321 212.61
L407.47 215.093
L407.916 192.185
L408.139 175.435
L408.288 188.39
L408.883 257.596
L409.181 241.745
L409.627 177.837
L409.702 180.844
L409.925 202.139
L410.148 223.693
L410.222 222.76
L410.371 216.896
L410.594 228.03
L410.669 227.471
L410.818 221.014
L410.892 221.089
L410.966 221.55
L411.115 219.494
L411.19 218.025
L411.338 221.93
L411.413 221.21
L411.487 219.373
L411.562 221.112
L411.71 229.591
L411.785 228.525
L412.157 206.027
L412.306 210.093
L412.529 201.839
L412.975 218.964
L413.198 224.678
L413.422 212.455
L413.794 197.053
L413.868 198.412
L413.942 197.796
L414.091 210.877
L414.314 223.295
L414.389 222.852
L414.538 229.533
L414.761 242.349
L414.984 230.489
L415.133 235.495
L415.282 224.395
L415.356 218.192
L415.43 218.607
L415.579 226.797
L415.654 225.294
L415.951 184.484
L416.1 196.12
L416.174 195.814
L416.249 192.353
L416.398 200.244
L416.621 218.278
L416.77 208.601
L416.844 204.149
L416.918 205.975
L417.067 213.158
L417.216 202.911
L417.29 202.928
L417.588 239.573
L417.811 217.432
L417.886 218.382
L418.034 230.075
L418.109 229.66
L418.183 228.076
L418.258 228.957
L418.481 246.473
L418.555 246.283
L419.002 209.057
L419.671 173.984
L419.746 174.329
L419.894 196.88
L420.341 268.517
L420.415 274.306
L420.49 271.472
L420.936 218.025
L421.457 179.139
L421.606 171.559
L421.68 173.414
L421.829 186.5
L422.424 268.736
L422.573 258.627
L422.722 244.077
L423.168 177.653
L423.242 178.546
L423.391 192.059
L423.466 191.69
L423.614 186.287
L423.689 187.837
L424.358 247.389
L424.433 255.027
L424.507 252.308
L424.73 222.921
L424.805 221.21
L425.102 174.94
L425.177 175.165
L425.326 196.989
L425.698 281.765
L425.772 284.633
L425.921 273.891
L426.07 251.058
L426.59 140.132
L426.739 149.855
L427.706 256.277
L427.855 261.133
L428.004 253.397
L428.525 217.299
L429.046 202.669
L429.343 209.978
L429.641 200.261
L430.013 187.698
L430.236 195.837
L430.385 197.462
L430.459 196.223
L430.534 197.041
L430.682 203.59
L430.757 203.619
L430.98 235.944
L431.352 280.653
L431.426 281.356
L431.724 271.512
L432.022 229.706
L432.319 169.307
L432.542 142.966
L432.691 144.942
L432.84 163.483
L433.286 226.964
L433.51 242.816
L433.584 242.084
L434.03 201.476
L434.105 202.335
L434.328 216.51
L434.7 238.715
L434.774 238.34
L434.923 230.403
L435.295 239.988
L435.444 230.795
L435.816 207.599
L435.89 207.046
L435.965 208.745
L436.039 206.741
L436.114 206.966
L436.188 206.194
L436.486 186.569
L436.783 191.713
L437.378 236.221
L437.453 236.889
L437.974 222.224
L438.048 221.487
L438.346 210.531
L438.494 207.403
L438.643 210.364
L438.792 204.662
L438.866 205.716
L439.015 210.036
L439.09 210.151
L439.759 231.613
L439.834 231.405
L440.28 212.386
L440.354 211.804
L440.503 201.344
L440.652 192.733
L440.875 200.29
L441.098 215.894
L441.173 214.206
L441.247 216.377
L441.396 231.924
L441.47 231.244
L441.545 231.313
L441.694 240.99
L441.768 236.964
L441.842 237.056
L441.917 236.705
L442.586 179.231
L442.661 182.537
L443.107 221.181
L443.33 235.195
L443.405 233.801
L443.479 231.492
L443.554 233.594
L443.777 247.084
L443.851 246.335
L444.521 186.886
L444.595 187.33
L444.818 194.95
L445.19 216.66
L445.265 213.595
L445.339 210.502
L445.414 211.793
L445.786 233.865
L445.86 233.778
L446.083 228.065
L446.232 218.993
L446.306 219.16
L446.604 222.097
L446.678 221.406
L446.827 216.775
L446.902 217.576
L447.05 224.793
L447.125 221.533
L447.348 204.886
L447.422 203.613
L447.571 199.253
L447.72 211.988
L447.794 210.203
L447.869 209.719
L448.018 217.61
L448.092 217.622
L448.241 206.678
L448.315 207.185
L448.464 211.867
L448.613 207.858
L448.687 207.622
L448.762 206.666
L448.836 204.161
L448.985 222.713
L449.134 233.583
L449.58 224.136
L449.654 223.739
L449.878 228.946
L449.878 228.946" style="fill:none;stroke:#808080;stroke-linecap:square;"/>
   </g>
  </g>
 </g>
 <defs>
  <clipPath id="p7ff5b81e1d">
   <rect height="345.6" width="446.4" x="72.0" y="43.2"/>
  </clipPath>
 </defs>
</svg>
