<?xml version="1.0" encoding="utf-8" standalone="no"?>
<!DOCTYPE svg PUBLIC "-//W3C//DTD SVG 1.1//EN"
  "http://www.w3.org/Graphics/SVG/1.1/DTD/svg11.dtd">
<!-- Created with matplotlib (http://matplotlib.org/) -->
<svg height="432pt" version="1.1" viewBox="0 0 576 432" width="576pt" xmlns="http://www.w3.org/2000/svg" xmlns:xlink="http://www.w3.org/1999/xlink">
 <defs>
  <style type="text/css">
*{stroke-linecap:butt;stroke-linejoin:round;}
  </style>
 </defs>
 <g id="figure_1">
  <g id="patch_1">
   <path d="
M0 432
L576 432
L576 0
L0 0
z
" style="fill:#ffffff;"/>
  </g>
  <g id="axes_1">
   <g id="line2d_1">
    <path clip-path="url(#p7ff5b81e1d)" d="
M72 219.603
L72.2232 248.902
L72.4464 245.37
L72.5208 244.179
L72.6696 225.824
L72.8928 190.381
L72.9672 190.65
L73.0416 187.731
L73.2648 158.778
L73.4136 174.176
L73.7112 210.579
L73.86 209.85
L73.9344 210.387
L74.0832 215.456
L74.1576 212.768
L74.4552 184.966
L74.5296 185.542
L74.604 184.851
L74.8272 169.376
L74.9016 173.677
L75.1992 203.283
L75.4224 218.336
L75.4968 215.034
L75.7944 161.427
L75.8688 167.034
L76.0176 182.624
L76.2408 170.029
L76.464 213.882
L76.5384 210.157
L76.6872 190.496
L76.9104 211.693
L76.9848 210.502
L77.208 197.984
L77.4312 223.098
L77.5056 221.254
L77.6544 210.733
L77.7288 212.883
L77.952 234.042
L78.0264 233.043
L78.6216 175.213
L78.696 176.941
L78.8448 181.011
L78.9936 172.525
L79.2168 160.352
L79.3656 162.694
L79.44 159.814
L79.5144 151.021
L79.5888 155.398
L79.8864 189.958
L80.1096 198.867
L80.184 203.821
L80.4816 266.72
L80.7048 240.378
L80.7792 242.643
L80.928 235.731
L81.1512 181.587
L81.2256 185.85
L81.3 191.11
L81.5232 169.53
L81.5976 169.76
L81.672 180.973
L81.7464 180.474
L81.8208 181.395
L81.8952 181.165
L82.2672 151.174
L82.416 120.07
L83.0112 228.704
L83.0856 232.006
L83.2344 247.674
L83.4576 230.97
L83.6808 249.325
L83.8296 245.907
L84.1272 183.507
L84.276 160.698
L84.3504 165.651
L84.4248 163.002
L84.648 128.864
L84.7968 142.573
L84.8712 139.616
L84.9456 144.339
L85.392 246.138
L85.4664 241.837
L85.5408 235.078
L85.6896 241.107
L85.9128 183.392
L85.9872 184.621
L86.136 194.374
L86.2104 194.49
L86.4336 210.157
L86.6568 198.829
L86.9544 167.533
L87.1032 150.522
L87.1776 153.171
L87.4752 177.248
L87.624 177.978
L88.2192 249.632
L88.2936 246.291
L88.4424 233.581
L88.5912 250.362
L88.74 235.155
L88.8144 242.067
L88.9632 259.501
L89.0376 258.31
L89.1864 232.275
L89.4096 198.291
L89.484 189.037
L89.7072 131.206
L89.7816 133.472
L90.0048 76.6785
L90.3024 137.658
L90.3768 129.44
L90.4512 129.786
L90.6 153.133
L90.8232 234.195
L90.972 230.01
L91.2696 258.579
L91.5672 224.442
L91.6416 223.674
L91.716 225.325
L91.7904 224.672
L91.9392 219.834
L92.5344 161.043
L92.6088 165.421
L92.7576 152.019
L92.832 153.478
L93.2784 237.651
L93.3528 238.995
L93.576 229.165
L93.7248 235.731
L93.7992 234.464
L93.8736 231.238
L94.2456 189.843
L94.3944 181.856
L94.5432 192.531
L94.6176 197.024
L94.692 195.104
L94.9152 167.533
L94.9896 169.914
L95.2128 216.378
L95.2872 214.381
L95.808 120.608
L95.8824 126.483
L96.4032 223.981
L96.6264 242.643
L96.7752 228.243
L97.2216 173.869
L97.3704 179.206
L97.7424 222.522
L97.8168 218.874
L97.9656 211.232
L98.04 214.573
L98.1888 198.061
L98.412 208.083
L98.4864 206.432
L98.7096 189.536
L98.784 193.107
L99.0072 211.654
L99.0816 212.154
L99.2304 202.016
L99.4536 176.634
L99.528 175.443
L99.8256 194.413
L99.9 194.874
L100.123 191.763
L100.198 194.874
L100.421 212.115
L100.867 151.558
L100.942 151.712
L101.537 216.723
L101.834 240.493
L101.909 242.528
L101.983 238.534
L102.206 196.64
L102.43 219.181
L102.504 212.614
L103.025 124.563
L103.174 146.682
L103.694 227.475
L103.769 227.936
L103.843 229.741
L104.066 247.098
L104.215 229.395
L104.513 170.605
L104.587 173.216
L104.736 183.008
L104.81 179.322
L104.885 180.09
L104.959 178.707
L105.108 189.958
L105.48 258.618
L105.554 258.541
L105.629 253.741
L106.373 126.56
L106.447 120.07
L106.522 122.643
L106.67 134.739
L107.489 256.314
L107.563 254.163
L107.712 235.002
L107.935 205.395
L108.01 203.283
L108.084 208.045
L108.307 243.334
L108.382 237.766
L108.679 182.47
L108.902 193.722
L109.051 188.307
L109.2 190.342
L109.274 189.152
L109.572 144.339
L109.646 149.331
L110.018 195.373
L110.242 215.226
L110.465 237.882
L110.539 235.386
L110.614 241.99
L110.688 241.338
L110.837 217.875
L111.06 191.802
L111.209 195.526
L111.358 181.395
L111.581 157.472
L111.804 174.79
L112.027 165.037
L112.399 177.978
L112.771 233.35
L112.846 230.816
L112.994 226.438
L113.143 229.971
L113.366 204.742
L113.515 210.08
L113.59 209.581
L113.738 201.402
L113.813 204.896
L114.036 242.106
L114.11 234.349
L114.482 150.061
L114.557 152.134
L114.78 140.922
L114.929 166.534
L115.226 240.954
L115.301 242.682
L115.375 242.067
L115.45 240.838
L115.524 235.616
L115.97 168.07
L116.119 159.584
L116.268 179.821
L116.491 207.776
L116.714 197.523
L116.938 202.285
L117.086 185.85
L117.31 150.368
L117.384 153.363
L117.607 192.877
L117.83 232.314
L117.979 223.251
L118.054 223.29
L118.128 226.822
L118.202 220.294
L118.351 229.05
L118.5 213.651
L118.574 213.69
L118.649 215.61
L118.872 191.994
L118.946 193.722
L119.095 208.122
L119.17 207.622
L119.318 188.73
L119.467 154.63
L119.542 156.589
L119.765 176.864
L119.839 176.71
L120.062 195.373
L120.211 208.045
L120.286 204.896
L120.509 211.693
L120.658 206.97
L121.327 161.235
L121.625 190.765
L121.699 191.149
L121.922 214.458
L121.997 223.597
L122.071 223.29
L122.146 219.603
L122.369 226.323
L122.741 205.587
L122.815 209.85
L122.89 205.472
L123.113 171.603
L123.187 173.216
L123.336 188.154
L123.485 197.523
L123.708 191.917
L123.782 190.803
L123.931 181.472
L124.154 188.768
L124.229 190.957
L124.303 190.381
L124.378 191.341
L124.452 194.874
L124.526 194.566
L124.601 193.107
L124.824 240.301
L124.898 238.419
L125.122 194.413
L125.27 222.829
L125.345 219.066
L125.791 156.205
L125.94 142.035
L126.014 146.49
L126.312 204.934
L126.386 202.707
L126.61 223.366
L126.684 229.472
L126.833 210.118
L126.907 210.541
L126.982 206.931
L127.056 207.123
L127.13 213.075
L127.205 211.578
L127.354 195.642
L127.577 209.926
L127.651 207.661
L127.874 187.846
L128.023 192.915
L128.246 201.786
L128.47 227.475
L129.288 161.35
L129.362 159.546
L129.586 171.603
L129.66 169.914
L129.734 166.957
L129.809 168.57
L130.106 205.933
L130.181 204.32
L130.478 244.41
L130.553 240.301
L131.074 184.39
L131.148 186.502
L131.371 212.346
L131.446 211.155
L131.669 178.093
L131.743 182.47
L131.818 189.114
L131.892 188
L132.041 183.814
L132.19 201.939
L132.338 214.534
L132.413 214.035
L132.636 222.33
L133.008 191.494
L133.231 157.318
L133.306 164.346
L133.529 210.502
L133.603 208.275
L133.826 184.659
L134.05 195.526
L134.198 208.275
L134.273 208.045
L134.347 209.12
L134.496 192.147
L134.794 141.536
L135.091 155.936
L135.835 287.955
L135.91 290.528
L135.984 285.459
L136.728 135.738
L136.802 135.968
L136.877 137.466
L137.026 135.968
L137.174 145.952
L137.249 145.722
L137.323 144.762
L137.398 150.214
L137.695 220.909
L137.844 265.837
L137.918 264.915
L138.737 162.618
L138.811 164.384
L139.034 189.229
L139.258 212.998
L139.332 212.845
L139.481 205.318
L139.704 175.098
L139.778 176.902
L140.002 200.288
L140.225 180.32
L140.299 185.773
L140.597 227.898
L140.746 223.981
L140.82 224.71
L140.969 204.09
L141.192 172.755
L141.266 176.941
L141.415 200.48
L141.49 199.597
L141.564 193.606
L141.638 195.565
L141.862 223.328
L141.936 221.754
L142.531 153.67
L142.754 190.074
L142.978 211.501
L143.201 201.171
L143.35 207.507
L143.424 210.656
L143.498 209.811
L143.722 203.091
L143.796 203.245
L143.87 202.707
L144.019 207.469
L144.094 207.123
L144.168 206.086
L144.466 220.486
L144.614 207.661
L144.912 178.746
L145.284 119.763
L145.358 125.754
L145.656 208.314
L145.954 258.502
L146.102 265.491
L146.549 199.712
L146.698 175.904
L146.846 185.734
L146.921 185.619
L147.293 143.571
L147.367 148.486
L147.888 249.325
L147.962 242.912
L148.26 181.664
L148.409 185.85
L148.632 172.794
L148.706 171.603
L148.781 166.726
L148.855 170.797
L149.078 204.397
L149.227 193.453
L149.302 196.102
L149.599 227.36
L149.674 224.749
L149.748 224.941
L149.897 240.838
L149.971 238.266
L150.269 197.216
L150.566 166.688
L150.715 158.547
L150.79 151.635
L150.864 153.478
L151.013 164.384
L151.162 142.496
L151.236 148.102
L151.608 242.374
L151.682 241.875
L151.757 240.493
L152.054 224.864
L152.278 180.934
L152.426 198.79
L152.501 197.984
L152.724 176.941
L152.947 186.118
L153.022 186.387
L153.096 184.352
L153.245 165.997
L153.319 171.334
L153.617 249.862
L153.766 234.579
L153.84 222.752
L153.914 224.058
L153.989 222.944
L154.212 180.282
L154.286 186.272
L154.435 198.291
L154.658 181.088
L154.807 170.874
L154.956 166.918
L155.03 169.722
L155.179 161.696
L155.254 164.499
L155.551 221.984
L155.7 204.934
L155.774 205.702
L155.923 216.685
L156.146 189.075
L156.37 217.453
L156.444 216.301
L156.593 209.658
L156.89 179.36
L157.337 223.712
L157.411 225.018
L157.56 207.238
L157.783 180.166
L158.081 198.176
L158.155 194.95
L158.378 157.664
L158.825 198.291
L158.899 203.168
L159.122 184.314
L159.346 240.032
L159.42 235.155
L159.643 198.368
L159.792 201.248
L160.015 218.067
L160.238 187.808
L160.313 189.766
L160.462 200.787
L160.61 187.923
L160.685 190.995
L160.908 210.157
L161.28 166.419
L161.429 168.378
L161.726 178.131
L161.875 204.051
L162.024 220.371
L162.173 207.584
L162.247 210.618
L162.396 230.47
L162.47 225.978
L162.694 197.523
L162.842 188.038
L163.066 176.71
L163.289 172.218
L163.586 193.798
L163.81 225.555
L163.884 224.25
L164.033 212.384
L164.107 214.227
L164.33 227.014
L164.554 208.083
L164.777 222.714
L165 218.72
L165.521 103.059
L165.67 141.843
L165.893 193.952
L166.19 215.648
L166.488 226.323
L166.637 236.269
L166.711 236.307
L166.934 203.053
L167.009 204.858
L167.083 206.432
L167.158 202.362
L167.381 149.754
L167.53 183.699
L167.678 201.901
L167.827 187.386
L167.902 193.261
L168.05 217.76
L168.125 215.302
L168.422 196.102
L168.497 198.829
L168.72 227.936
L168.943 200.403
L169.092 214.304
L169.241 199.29
L169.315 201.594
L169.538 236.768
L169.762 186.31
L169.91 148.909
L170.059 167.149
L170.134 166.803
L170.282 139.77
L170.357 142.803
L170.58 179.13
L170.803 145.107
L171.547 266.835
L171.622 257.427
L172.068 221.139
L172.291 181.126
L172.514 213.882
L172.589 211.885
L172.886 163.462
L172.961 167.187
L173.556 216.147
L173.779 195.219
L174.077 142.419
L174.151 124.218
L174.226 126.099
L174.746 251.514
L174.821 248.365
L175.118 188.691
L175.342 204.013
L175.49 206.739
L175.639 196.64
L176.011 174.637
L176.086 178.822
L176.309 201.786
L176.532 210.464
L176.755 240.838
L176.904 206.163
L177.127 171.526
L177.276 178.515
L177.35 173.408
L177.425 174.253
L177.499 175.366
L177.648 184.467
L177.871 194.451
L177.946 193.146
L178.169 211.693
L178.466 168.109
L178.541 170.643
L178.764 194.182
L178.838 196.486
L178.987 190.688
L179.285 255.699
L179.359 248.403
L179.582 220.486
L179.88 189.766
L180.029 180.205
L180.178 194.413
L180.326 208.275
L180.698 178.285
L180.922 153.363
L180.996 155.475
L181.219 175.443
L181.294 173.293
L181.442 172.486
L181.591 186.886
L182.186 249.248
L182.261 247.827
L182.558 214.035
L182.633 216.224
L182.782 222.214
L182.856 217.76
L183.154 170.682
L183.302 182.624
L183.526 162.157
L183.6 163.846
L183.823 176.864
L184.046 147.411
L184.121 155.782
L184.418 221.139
L184.493 219.027
L184.642 203.936
L184.716 205.318
L184.865 212.691
L185.088 199.136
L185.311 218.336
L185.46 192.8
L185.534 194.106
L185.832 260.384
L185.906 254.048
L186.353 160.39
L186.427 154.515
L186.502 156.32
L186.799 202.285
L186.874 199.174
L187.097 166.803
L187.171 175.213
L187.394 244.141
L187.543 227.13
L187.692 201.133
L187.915 150.138
L187.99 149.754
L188.287 177.939
L188.362 175.443
L188.436 173.254
L188.51 178.131
L188.808 221.139
L188.957 182.509
L189.106 157.242
L189.775 239.955
L189.85 238.611
L189.998 252.09
L190.296 282.963
L190.37 275.859
L191.114 121.146
L191.263 106.477
L191.338 112.006
L191.71 173.754
L192.007 189.843
L192.082 186.579
L192.23 174.061
L192.305 181.203
L192.602 247.558
L192.677 245.792
L192.9 258.31
L193.049 226.515
L193.272 161.85
L193.495 181.626
L193.57 180.397
L193.644 175.866
L193.718 178.246
L194.016 216.954
L194.239 199.098
L194.462 223.443
L194.686 193.53
L194.909 220.41
L194.983 215.571
L195.206 174.598
L195.281 180.781
L195.504 231.661
L195.578 228.166
L195.876 197.869
L196.174 105.133
L196.248 106.822
L196.694 193.184
L196.843 202.861
L196.918 201.555
L197.141 186.848
L197.215 191.802
L197.438 247.059
L197.513 235.155
L197.662 207.699
L197.81 236.461
L197.959 258.502
L198.108 224.826
L198.257 197.83
L198.406 202.131
L198.703 183.584
L198.778 185.235
L198.852 184.813
L199.15 141.037
L199.224 144.838
L199.522 200.211
L199.596 199.904
L199.894 190.304
L199.968 192.762
L200.117 208.122
L200.414 261.574
L200.489 258.08
L200.638 228.742
L201.01 156.512
L201.233 138.08
L201.456 170.566
L201.679 215.84
L201.828 220.333
L201.977 215.571
L202.126 209.888
L202.2 210.426
L202.274 206.624
L202.498 190.035
L202.572 190.342
L202.795 179.59
L202.87 183.699
L203.018 222.598
L203.093 218.682
L203.316 184.045
L203.39 182.739
L203.688 197.101
L203.837 192.915
L203.986 207.43
L204.06 215.456
L204.283 201.862
L204.432 225.824
L204.506 224.096
L204.73 177.171
L204.804 177.67
L205.176 222.714
L205.25 222.176
L205.325 219.066
L205.771 172.717
L205.846 174.099
L206.218 157.28
L206.292 159.622
L206.366 156.512
L206.441 158.509
L207.036 264.57
L207.334 217.453
L207.482 221.984
L207.557 221.754
L208.226 166.88
L208.375 141.613
L208.45 146.49
L208.896 250.246
L208.97 247.328
L209.268 180.819
L209.491 142.074
L209.566 143.187
L210.161 227.475
L210.235 224.019
L210.458 176.48
L210.533 181.05
L210.682 207.546
L210.756 207.277
L210.979 199.136
L211.202 210.618
L211.426 188.538
L211.5 190.534
L211.798 221.6
L211.872 221.178
L212.244 189.498
L212.318 189.882
L212.616 212.768
L212.765 197.677
L212.988 160.698
L213.062 160.544
L213.286 179.398
L213.434 174.445
L213.509 175.789
L213.658 192.838
L214.03 240.186
L214.104 238.765
L214.327 196.026
L214.476 178.938
L214.55 179.936
L214.699 167.917
L214.848 149.715
L215.294 196.064
L215.518 248.288
L215.592 246.79
L216.113 187.693
L216.559 213.344
L216.634 213.229
L216.782 197.485
L217.006 149.677
L217.08 151.098
L217.378 199.059
L217.452 198.33
L217.526 199.597
L217.824 218.72
L218.122 212.998
L218.345 198.79
L218.494 191.571
L218.642 181.434
L218.866 202.938
L219.089 181.011
L219.163 181.702
L219.312 199.827
L219.386 196.755
L219.684 162.464
L219.758 168.493
L219.833 165.651
L219.982 142.266
L220.056 151.827
L220.279 225.978
L220.502 206.394
L220.8 253.203
L221.023 236.998
L221.098 237.075
L221.172 234.349
L221.246 234.502
L221.395 232.851
L221.544 216.378
L222.065 131.053
L222.139 133.587
L222.362 170.797
L222.511 147.296
L222.586 151.827
L222.809 188.23
L222.958 176.557
L223.032 183.507
L223.255 222.061
L223.478 194.221
L223.702 216.301
L223.776 215.725
L223.85 214.842
L223.925 216.416
L224.222 245.216
L224.371 215.878
L224.594 186.541
L224.669 187.347
L224.818 183.661
L224.892 184.928
L225.041 196.563
L225.264 175.904
L225.338 181.664
L225.487 188.998
L225.636 173.331
L225.785 193.376
L226.008 207.699
L226.157 215.763
L226.306 226.861
L226.38 228.128
L226.603 219.258
L226.826 182.086
L226.901 182.125
L227.124 192.378
L227.347 175.827
L227.422 178.899
L227.496 177.747
L227.645 172.909
L227.719 175.443
L227.868 192.378
L228.017 173.83
L228.091 159.891
L228.166 160.006
L228.389 179.859
L228.612 155.36
L228.686 156.781
L228.835 194.029
L229.133 266.72
L229.356 274.669
L229.43 272.173
L229.579 248.019
L229.802 202.63
L230.026 187.232
L230.1 187.309
L230.174 188.614
L230.249 188.077
L230.398 174.944
L230.621 153.709
L230.844 186.502
L230.918 183.968
L231.142 156.704
L231.216 164.96
L231.514 230.662
L231.737 197.6
L231.811 197.638
L232.034 228.474
L232.183 201.133
L232.406 156.781
L232.481 160.582
L232.704 186.656
L232.778 187.808
L232.853 187.194
L233.002 188
L233.225 178.131
L233.374 182.355
L233.597 164.499
L233.671 172.141
L234.043 260.269
L234.118 256.851
L234.192 246.214
L234.266 249.286
L234.49 286.227
L234.787 174.061
L234.936 189.344
L235.085 203.974
L235.159 199.482
L235.606 122.643
L235.903 169.722
L236.052 174.214
L236.424 196.218
L236.647 194.605
L236.796 191.648
L237.019 211.424
L237.242 171.296
L237.54 226.362
L237.689 216.992
L237.763 217.261
L237.986 246.368
L238.061 242.528
L238.284 185.35
L238.433 148.64
L238.507 148.486
L238.805 199.942
L238.954 191.226
L239.177 169.222
L239.251 176.019
L239.474 210.81
L239.623 199.558
L239.846 242.298
L239.995 266.605
L240.07 261.075
L240.367 199.942
L240.442 202.17
L240.516 200.787
L240.665 166.995
L240.888 102.714
L240.962 104.25
L241.558 207.315
L241.706 212
L241.855 233.082
L242.004 259.885
L242.078 256.16
L242.302 211.808
L242.45 229.395
L242.525 228.282
L242.822 165.19
L242.897 171.642
L243.046 196.179
L243.269 184.506
L243.418 200.019
L243.641 220.794
L243.715 214.227
L243.79 214.381
L243.864 216.762
L243.938 215.61
L244.757 122.221
L245.054 195.296
L245.129 194.989
L245.203 197.715
L245.575 278.586
L245.65 270.944
L246.022 213.766
L246.096 211.117
L246.319 162.272
L246.617 114.003
L246.766 140.576
L246.914 167.187
L247.063 160.582
L247.138 173.446
L247.435 294.291
L247.51 290.874
L248.179 185.235
L248.328 141.267
L248.402 144.685
L248.626 214.88
L248.774 190.074
L248.998 153.248
L249.072 153.978
L249.593 205.51
L249.667 206.509
L249.816 188.73
L250.114 145.453
L250.188 143.341
L250.262 144.992
L250.486 168.762
L250.709 189.306
L250.783 189.69
L250.932 204.282
L251.23 239.686
L251.304 242.643
L251.453 273.632
L251.602 310.765
L251.676 307.539
L252.122 219.334
L252.494 189.536
L252.866 106.093
L253.09 95.6481
L253.164 100.294
L253.536 187.962
L253.908 199.789
L254.503 259.539
L254.578 259.501
L254.875 223.482
L254.95 223.75
L255.024 221.792
L255.694 161.082
L255.842 170.451
L256.066 181.818
L256.214 175.482
L256.289 175.059
L256.438 179.898
L256.735 207.123
L256.884 197.408
L256.958 199.827
L257.405 250.208
L257.479 243.68
L257.702 184.698
L257.777 186.502
L257.926 200.595
L258 198.214
L258.223 184.966
L258.446 197.293
L258.521 194.259
L258.818 170.259
L258.967 160.198
L259.042 164.384
L259.265 194.029
L259.414 176.864
L259.488 178.016
L259.786 215.11
L259.86 213.651
L260.158 201.325
L260.232 206.662
L260.455 243.834
L260.53 234.848
L260.753 180.166
L260.827 185.696
L261.05 235.309
L261.125 229.472
L261.422 180.166
L261.497 174.867
L261.646 181.664
L261.794 160.275
L261.943 130.362
L262.092 171.603
L262.315 249.094
L262.39 244.909
L262.613 195.104
L262.687 197.485
L262.985 249.901
L263.357 182.97
L263.506 210.656
L263.58 202.17
L263.878 134.97
L264.175 119.917
L264.324 137.811
L264.622 169.53
L264.77 195.104
L265.217 303.661
L265.291 305.082
L265.44 295.443
L265.663 263.917
L265.738 258.502
L266.11 173.523
L266.184 176.864
L266.333 191.878
L266.407 189.382
L266.705 132.128
L266.779 133.702
L267.002 174.867
L267.151 117.882
L267.226 87.2001
L267.3 88.3905
L267.598 190.496
L267.746 187.232
L267.97 210.272
L268.267 242.605
L268.342 241.914
L268.416 238.803
L268.639 220.256
L269.011 250.323
L269.086 248.634
L269.234 229.011
L269.532 181.818
L269.606 176.019
L269.681 181.549
L269.83 207.046
L269.904 202.4
L270.202 170.835
L270.276 171.526
L270.425 174.56
L270.648 139.923
L270.722 146.221
L270.946 215.341
L271.02 211.77
L271.243 184.39
L271.318 188.23
L271.764 256.698
L272.21 194.067
L272.434 104.941
L272.508 113.811
L272.731 175.174
L272.954 138.387
L273.252 174.33
L273.326 177.517
L273.55 209.005
L273.698 263.379
L273.922 340.678
L273.996 334.112
L274.368 249.018
L274.963 117.805
L275.112 93.6129
L275.261 100.602
L275.41 129.133
L275.707 192.608
L275.93 162.694
L276.005 172.947
L276.302 261.805
L276.377 262.88
L276.451 259.962
L276.526 266.758
L276.6 263.763
L276.749 252.435
L277.046 220.563
L277.121 220.717
L277.344 266.221
L277.418 250.899
L277.716 83.9745
L277.79 101.062
L277.939 136.621
L278.162 107.398
L278.311 144.57
L278.609 229.434
L278.683 229.626
L278.906 203.59
L279.204 247.981
L279.278 243.834
L279.502 216.608
L279.576 216.685
L279.725 224.71
L279.799 220.986
L280.022 180.589
L280.097 186.349
L280.32 253.357
L280.469 213.037
L280.618 185.35
L280.841 217.568
L280.99 171.603
L281.213 101.562
L281.436 178.63
L281.51 169.645
L281.734 91.2705
L281.882 156.742
L282.18 270.483
L282.254 268.333
L282.403 256.237
L282.478 260.23
L282.626 280.237
L282.701 276.166
L282.998 143.226
L283.073 150.061
L283.222 191.84
L283.296 191.072
L283.445 159.43
L283.519 161.12
L283.817 236.96
L283.891 227.245
L284.114 187.117
L284.338 213.766
L284.486 188.038
L284.71 157.318
L285.007 212
L285.305 178.784
L285.379 182.24
L285.602 224.518
L285.677 223.52
L285.974 181.357
L286.123 189.574
L286.272 169.146
L286.495 117.728
L287.09 238.227
L287.388 261.843
L287.462 262.995
L287.537 260.115
L288.058 158.816
L288.206 133.549
L288.355 158.97
L288.802 223.635
L289.099 240.762
L289.174 237.421
L289.992 63.8145
L290.066 64.0833
L290.587 217.645
L290.81 305.696
L290.959 353.619
L291.034 346.131
L291.852 163.885
L292.001 129.363
L292.15 96.9153
L292.224 98.3745
L292.522 118.918
L292.745 158.125
L292.819 159.43
L292.968 184.621
L293.34 259.424
L293.414 260.422
L293.563 243.45
L293.786 201.747
L294.01 230.278
L294.233 184.39
L294.382 207.622
L294.605 236.845
L295.051 113.811
L295.126 121.798
L295.498 203.552
L295.646 211.04
L295.87 224.941
L295.944 223.328
L296.167 177.786
L296.242 182.931
L296.539 241.645
L296.762 196.525
L296.911 182.816
L297.209 218.989
L297.283 220.371
L297.358 224.096
L297.506 203.898
L297.581 194.95
L297.804 213.92
L297.878 209.043
L298.102 184.851
L298.25 186.925
L298.325 180.858
L298.622 87.8145
L299.069 171.45
L299.143 169.875
L299.218 175.75
L299.515 238.65
L299.59 242.221
L299.664 235.194
L299.738 236.461
L299.962 298.054
L300.036 293.523
L300.334 184.429
L300.408 186.694
L300.557 201.325
L300.631 200.403
L300.78 213.152
L300.854 223.712
L300.929 220.486
L301.152 179.974
L301.226 182.202
L301.301 181.395
L301.524 145.376
L301.598 149.485
L301.822 179.514
L301.896 181.28
L302.045 178.707
L302.119 180.589
L302.268 199.904
L302.491 226.323
L302.566 223.827
L302.789 209.696
L303.012 232.582
L303.086 225.709
L303.458 167.61
L303.533 164.845
L303.607 167.456
L303.682 174.56
L303.83 159.661
L304.054 189.651
L304.128 189.459
L304.202 183.008
L304.426 201.939
L304.5 197.792
L304.574 199.098
L304.798 240.186
L304.872 237.613
L305.17 203.744
L305.244 206.086
L305.393 217.952
L305.542 197.984
L305.69 177.786
L305.765 178.707
L306.062 205.702
L306.509 153.478
L306.583 148.563
L306.658 150.33
L306.732 155.437
L307.03 243.834
L307.104 243.334
L307.253 212.922
L307.327 213.229
L307.476 220.947
L307.625 203.936
L307.848 236.845
L307.922 229.357
L308.22 181.318
L308.443 194.451
L308.592 184.813
L308.666 192.262
L308.89 238.611
L308.964 230.854
L309.41 107.898
L309.559 101.331
L309.634 106.054
L310.08 228.282
L310.154 222.406
L310.378 188.614
L310.898 284.806
L311.047 311.226
L311.196 297.709
L311.642 220.256
L312.089 116.998
L312.312 91.5393
L312.684 117.306
L312.758 124.794
L313.13 208.275
L313.205 207.392
L313.354 195.834
L313.577 229.894
L313.651 226.707
L313.949 176.902
L314.023 184.314
L314.172 204.397
L314.246 202.285
L314.395 183.546
L314.47 191.11
L314.767 253.856
L314.842 251.898
L314.916 252.819
L315.065 274.592
L315.214 295.405
L315.288 292.64
L315.437 268.448
L315.883 184.237
L316.106 174.214
L316.404 95.8785
L316.478 97.1073
L316.85 142.957
L316.925 142.611
L316.999 143.648
L317.148 148.717
L317.222 148.909
L317.446 144.646
L317.743 168.186
L317.892 198.253
L318.19 281.542
L318.264 281.965
L318.338 283.117
L318.562 311.648
L318.71 281.926
L318.934 241.261
L319.231 196.141
L319.38 161.158
L319.454 161.274
L319.752 183.814
L319.826 183.2
L319.975 178.669
L320.198 157.971
L320.273 158.547
L320.422 166.304
L320.719 140.691
L320.794 141.536
L321.389 248.864
L321.538 217.683
L321.761 160.467
L321.835 157.357
L321.91 161.773
L322.43 259.693
L322.505 278.547
L322.579 276.09
L323.026 182.816
L323.398 155.283
L323.546 133.894
L323.621 134.97
L323.77 147.181
L324.216 239.955
L324.29 238.15
L324.662 178.4
L324.811 196.986
L324.886 195.258
L324.96 196.333
L325.332 259.578
L325.406 251.091
L325.778 169.99
L325.853 170.259
L326.002 175.405
L326.076 181.549
L326.15 180.704
L326.448 163.27
L326.671 190.957
L326.746 191.418
L326.82 191.379
L327.118 217.875
L327.49 144.378
L327.564 146.643
L328.01 251.514
L328.234 241.03
L328.308 242.682
L328.382 241.184
L328.68 205.088
L328.754 209.734
L328.829 214.189
L329.573 145.606
L329.647 138.771
L329.722 141.306
L329.87 154.477
L330.019 146.374
L330.317 197.446
L330.391 196.294
L330.466 194.72
L330.614 211.846
L330.763 235.731
L330.912 233.389
L331.061 240.186
L331.21 247.597
L331.358 260.73
L331.656 202.822
L331.73 207.546
L331.805 211.002
L331.954 194.989
L332.028 199.635
L332.177 223.251
L332.326 196.371
L332.549 122.643
L332.623 120.723
L332.698 120.954
L332.772 122.413
L333.07 146.029
L333.144 148.141
L333.293 169.299
L333.59 244.986
L333.888 263.802
L333.962 260.96
L334.111 247.981
L334.334 172.371
L334.558 101.446
L334.632 109.741
L335.078 216.646
L335.227 225.709
L335.376 224.979
L335.45 225.709
L335.748 234.502
L336.046 254.586
L336.12 252.973
L336.715 198.33
L336.79 196.064
L336.938 164.384
L337.162 119.149
L337.31 135.968
L337.534 118.726
L337.682 120.838
L337.757 119.571
L337.906 141.421
L338.575 293.562
L338.65 285.152
L338.798 276.934
L339.096 269.562
L339.542 190.304
L339.84 85.4337
L339.989 87.0081
L340.138 105.21
L340.435 199.443
L340.733 273.018
L340.882 258.31
L340.956 258.81
L341.03 262.803
L341.179 251.053
L342.146 118.496
L342.221 116.768
L342.295 122.106
L342.593 189.958
L342.667 187.885
L342.742 188
L342.89 219.411
L343.114 281.926
L343.486 258.464
L343.56 257.312
L343.634 249.325
L343.932 168.762
L344.304 130.515
L344.676 157.318
L344.75 161.12
L344.974 197.83
L345.048 195.219
L345.122 185.504
L345.197 189.421
L345.569 251.398
L345.718 280.659
L345.866 275.36
L345.941 276.589
L346.238 265.184
L346.982 81.9777
L347.131 93.2289
L347.354 151.597
L347.652 237.651
L347.726 235.424
L347.875 229.51
L347.95 229.587
L348.024 228.013
L348.173 240.608
L348.47 259.693
L348.545 257.773
L348.694 239.226
L349.066 166.842
L349.14 164.691
L349.438 124.64
L349.512 112.813
L349.586 119.264
L350.033 238.266
L350.107 242.067
L350.256 233.619
L350.479 259.27
L350.702 232.698
L350.926 256.39
L351.149 216.454
L351.521 125.331
L351.67 114.848
L351.818 88.1985
L351.967 116.346
L352.116 137.35
L352.19 137.235
L352.265 131.706
L352.339 138.579
L352.86 299.629
L352.934 290.797
L353.158 310.534
L353.455 244.717
L353.902 160.582
L353.976 154.362
L354.125 162.31
L354.199 161.35
L354.274 158.778
L354.497 170.451
L355.018 121.069
L355.241 176.787
L355.538 238.918
L355.613 239.149
L355.762 250.515
L355.836 247.136
L356.134 193.914
L356.431 230.701
L356.878 192.109
L357.101 171.872
L357.324 185.658
L357.398 184.045
L357.547 176.25
L357.622 176.634
L357.994 217.338
L358.142 203.322
L358.217 208.582
L358.44 227.744
L358.589 237.075
L358.663 232.774
L359.184 150.445
L359.258 150.79
L359.407 165.958
L359.705 197.293
L360.077 166.803
L360.151 169.107
L360.3 180.512
L360.672 242.72
L361.044 200.864
L361.118 200.326
L361.267 188.23
L361.49 207.43
L361.788 196.026
L361.862 195.488
L362.086 215.034
L362.16 212.691
L362.309 183.584
L362.383 188.192
L362.755 267.642
L362.83 260.23
L363.425 119.11
L363.648 151.674
L363.871 187.424
L364.094 140.806
L364.169 142.611
L364.466 202.938
L364.764 271.174
L364.838 273.325
L365.136 209.581
L365.285 221.638
L365.359 221.062
L365.508 201.862
L365.582 202.822
L365.731 213.152
L365.88 199.866
L366.029 163.808
L366.252 131.091
L366.624 178.362
L366.922 256.352
L367.145 226.362
L367.219 227.782
L367.368 233.35
L367.517 217.453
L367.591 205.011
L367.666 208.621
L367.889 249.402
L368.038 198.445
L368.261 99.6033
L368.335 98.2209
L368.782 163.462
L369.079 244.563
L369.154 237.421
L369.377 196.218
L369.674 243.488
L369.823 238.765
L369.898 236.845
L370.046 242.374
L370.567 164.384
L370.716 141.498
L370.79 142.957
L370.939 153.478
L371.162 181.011
L371.311 161.85
L371.386 166.15
L371.832 242.451
L372.055 268.371
L372.13 267.296
L372.874 125.562
L373.022 149.907
L373.171 173.254
L373.246 172.755
L373.394 152.672
L373.618 187.232
L373.692 184.659
L373.841 172.026
L373.99 206.432
L374.138 238.419
L374.287 231.238
L374.51 210.963
L374.585 215.302
L374.808 245.83
L374.882 244.448
L375.031 234.963
L375.18 238.957
L375.552 168.954
L375.626 169.184
L375.701 169.837
L375.924 165.882
L376.073 177.018
L376.296 198.061
L376.445 196.602
L376.519 198.483
L376.891 222.176
L376.966 217.952
L377.189 181.318
L377.338 197.254
L377.412 196.87
L377.561 177.248
L377.858 122.374
L378.305 189.997
L378.528 235.309
L378.751 264.416
L379.198 224.518
L379.346 232.429
L379.421 229.818
L380.09 153.21
L380.165 162.003
L380.388 212.384
L380.462 212.269
L380.76 168.109
L380.909 162.502
L381.058 165.536
L381.578 225.555
L381.653 220.525
L381.95 158.24
L382.025 169.107
L382.322 256.621
L382.471 247.712
L382.62 214.15
L382.918 134.163
L382.992 136.621
L383.215 178.554
L383.29 177.478
L383.364 178.861
L383.513 192.915
L383.587 199.405
L383.736 168.531
L383.81 151.597
L383.885 154.208
L384.331 313.184
L384.406 305.696
L385.001 162.541
L385.075 158.547
L385.224 171.565
L385.447 188.461
L385.522 188.614
L385.894 160.39
L385.968 161.235
L386.117 173.216
L386.414 152.019
L386.563 155.59
L386.638 155.168
L387.01 176.403
L387.307 225.67
L387.902 278.202
L388.274 245.37
L388.721 155.091
L388.795 150.867
L389.018 114.694
L389.093 116.384
L389.242 127.443
L389.539 197.024
L389.614 191.84
L389.688 186.618
L389.762 188.96
L389.911 211.04
L390.06 231.738
L390.134 225.286
L390.209 226.438
L390.283 232.006
L390.358 230.278
L390.432 228.934
L390.655 247.635
L390.73 255.699
L390.804 255.584
L390.953 222.56
L391.25 138.387
L391.399 127.059
L391.697 149.408
L391.92 183.277
L391.994 181.472
L392.218 160.966
L392.292 164.499
L392.441 195.795
L392.738 270.829
L392.887 277.587
L392.962 278.509
L393.036 277.318
L393.334 241.299
L394.152 114.118
L394.598 196.563
L394.822 227.245
L394.896 225.555
L394.97 226.746
L395.045 222.637
L395.417 179.168
L395.566 204.205
L395.714 219.526
L396.235 170.605
L396.31 167.341
L396.384 170.989
L396.682 199.558
L397.054 220.179
L397.202 229.088
L397.277 226.861
L397.5 202.554
L397.723 224.019
L397.798 223.981
L398.318 196.602
L398.542 148.678
L398.616 150.138
L398.839 177.824
L398.914 177.018
L398.988 180.435
L399.211 201.747
L399.434 180.397
L399.732 194.95
L400.03 240.992
L400.104 236.154
L400.476 181.05
L400.55 181.126
L400.922 196.102
L400.997 194.682
L401.146 173.062
L401.22 177.978
L401.369 199.174
L401.518 185.12
L401.592 177.632
L401.666 180.32
L402.038 236.23
L402.113 238.65
L402.187 238.035
L402.262 238.573
L402.485 210.426
L402.708 166.458
L402.857 187.462
L402.931 197.101
L403.006 196.563
L403.378 163.885
L403.526 158.394
L403.601 157.011
L403.675 157.894
L403.898 192.838
L404.122 232.582
L404.196 232.352
L404.345 221.677
L404.642 162.886
L404.717 163.77
L405.089 225.709
L405.312 254.47
L405.61 207.661
L405.833 162.963
L405.907 164
L406.056 173.869
L406.13 172.909
L406.279 166.803
L406.428 185.696
L406.874 232.621
L406.949 231.814
L407.098 210.426
L407.246 183.392
L407.321 185.504
L407.544 207.546
L407.767 186.118
L407.99 206.394
L408.065 204.358
L408.437 164.883
L408.586 146.298
L409.032 185.235
L409.33 241.069
L409.404 240.07
L409.553 228.666
L409.776 247.251
L409.925 220.294
L410.148 170.835
L410.222 175.558
L410.371 202.054
L410.446 201.478
L411.041 142.458
L411.413 231.354
L411.487 227.36
L411.562 219.526
L411.636 223.213
L411.785 239.763
L411.859 235.309
L412.231 160.774
L412.38 181.971
L412.529 199.52
L412.752 191.341
L412.826 194.49
L412.975 182.163
L413.124 170.874
L413.273 186.925
L413.496 212.614
L413.57 214.496
L413.719 235.078
L413.868 252.474
L414.017 211.002
L414.24 158.048
L414.463 176.941
L414.612 150.752
L414.686 154.669
L414.91 231.968
L414.984 229.741
L415.43 174.406
L415.505 174.061
L415.654 187.654
L415.951 224.826
L416.174 208.237
L416.398 236.768
L416.621 205.51
L416.844 174.829
L416.918 173.331
L416.993 173.715
L417.29 202.669
L417.365 196.678
L417.514 189.613
L417.662 185.926
L417.737 188.883
L417.811 187.002
L418.109 140.346
L418.332 184.429
L418.704 236.461
L418.778 236.077
L418.927 222.253
L419.225 173.101
L419.299 175.635
L419.671 248.902
L419.746 245.792
L419.969 210.541
L420.043 211.693
L420.118 211.002
L420.266 192.032
L420.49 160.083
L420.564 159.469
L421.085 175.52
L421.457 214.304
L421.68 245.638
L421.978 208.314
L422.052 213.114
L422.126 212.384
L422.87 136.544
L422.945 137.811
L423.242 190.995
L423.689 251.782
L423.763 252.282
L423.838 249.478
L423.912 251.629
L424.061 266.221
L424.135 266.182
L424.284 240.339
L424.507 196.179
L424.656 175.866
L424.805 154.131
L424.954 166.304
L425.102 183.315
L425.251 170.067
L425.623 142.112
L425.698 140.998
L425.772 141.574
L425.921 139.232
L426.07 172.602
L426.367 256.851
L426.442 260.614
L426.739 225.786
L426.814 228.435
L427.037 230.163
L427.111 230.47
L427.26 212.806
L427.781 132.589
L428.153 224.326
L428.302 208.698
L428.525 267.066
L428.599 262.112
L428.897 179.898
L429.046 195.949
L429.12 190.381
L429.343 159.776
L429.418 162.08
L429.492 160.966
L429.566 159.046
L429.641 159.546
L429.715 160.621
L429.864 175.674
L430.087 200.864
L430.162 201.133
L430.236 196.218
L430.31 200.634
L430.608 246.291
L430.682 243.296
L430.831 233.581
L430.906 235.002
L430.98 228.896
L431.352 166.611
L431.426 162.234
L431.575 173.792
L431.724 153.018
L431.798 140.077
L431.873 140.614
L432.096 181.395
L432.17 180.666
L432.245 182.547
L432.542 231.085
L432.617 230.509
L432.766 221.869
L433.063 254.278
L433.138 249.862
L433.584 173.754
L433.658 172.448
L433.807 180.397
L434.03 216.147
L434.402 157.549
L434.477 159.622
L434.774 204.934
L434.923 195.565
L434.998 196.986
L435.072 202.861
L435.146 202.17
L435.444 153.018
L435.518 160.198
L435.742 212.23
L435.816 204.627
L436.039 150.598
L436.114 153.21
L436.411 211.04
L436.634 233.235
L436.783 239.264
L436.932 251.514
L437.081 237.306
L437.304 208.736
L437.378 208.045
L437.453 208.813
L437.75 193.376
L437.825 194.566
L437.974 216.378
L438.048 215.341
L438.42 156.627
L438.643 121.568
L438.718 119.226
L439.09 188.691
L439.462 258.579
L439.536 263.379
L439.685 248.749
L440.28 152.979
L440.354 149.907
L440.652 175.789
L440.726 174.138
L440.801 174.906
L440.95 183.661
L441.098 177.747
L441.173 181.779
L441.545 229.28
L441.619 229.242
L441.694 228.435
L441.768 229.971
L441.991 261.382
L442.066 256.275
L442.884 178.938
L442.958 181.126
L443.033 179.898
L443.182 172.717
L443.256 177.478
L443.405 190.918
L443.479 182.317
L443.777 110.547
L443.851 107.398
L444.298 170.106
L444.595 233.235
L444.744 243.373
L444.818 240.531
L444.967 256.467
L445.19 282.349
L445.339 268.563
L445.488 247.712
L445.562 247.904
L445.711 227.168
L446.083 122.298
L446.158 129.44
L446.381 163.616
L446.678 112.122
L446.753 120.915
L447.125 218.221
L447.348 250.323
L447.72 220.986
L447.869 204.435
L448.092 248.25
L448.166 246.829
L448.91 113.811
L449.208 158.163
L449.282 158.048
L449.431 146.451
L449.506 147.718
L449.878 226.784
L449.878 226.784" style="fill:none;stroke:#808080;stroke-linecap:square;"/>
   </g>
  </g>
 </g>
 <defs>
  <clipPath id="p7ff5b81e1d">
   <rect height="345.6" width="446.4" x="72.0" y="43.2"/>
  </clipPath>
 </defs>
</svg>
