<?xml version="1.0" encoding="utf-8" standalone="no"?>
<!DOCTYPE svg PUBLIC "-//W3C//DTD SVG 1.1//EN"
  "http://www.w3.org/Graphics/SVG/1.1/DTD/svg11.dtd">
<!-- Created with matplotlib (http://matplotlib.org/) -->
<svg height="432pt" version="1.1" viewBox="0 0 576 432" width="576pt" xmlns="http://www.w3.org/2000/svg" xmlns:xlink="http://www.w3.org/1999/xlink">
 <defs>
  <style type="text/css">
*{stroke-linecap:butt;stroke-linejoin:round;}
  </style>
 </defs>
 <g id="figure_1">
  <g id="patch_1">
   <path d="
M0 432
L576 432
L576 0
L0 0
z
" style="fill:#ffffff;"/>
  </g>
  <g id="axes_1">
   <g id="line2d_1">
    <path clip-path="url(#p7ff5b81e1d)" d="
M72 299.768
L72.1488 265.85
L72.4464 201.124
L72.5208 203.198
L72.6696 221.687
L72.8184 236.499
L72.8928 235.339
L73.116 215.269
L73.3392 227.291
L73.5624 212.85
L73.6368 216.849
L74.1576 313.37
L74.232 312.407
L74.3064 307.347
L74.4552 272.392
L74.6784 223.489
L75.1248 207.962
L75.348 186.93
L75.4224 190.534
L75.7944 249.681
L75.8688 249.804
L75.9432 248.57
L76.2408 268.195
L76.3152 265.924
L76.6872 241.732
L76.9104 215.368
L77.0592 226.205
L77.2824 237.437
L77.3568 239.979
L77.4312 238.474
L77.58 227.957
L77.8776 264.838
L78.0264 283.278
L78.1008 280.711
L78.324 256.05
L78.5472 262.147
L78.6216 262.394
L78.9936 232.821
L79.2168 212.233
L79.44 211.023
L79.5144 208.085
L79.7376 163.849
L79.8864 188.436
L80.184 276.243
L80.2584 274.194
L80.4816 255.038
L80.6304 257.58
L81.0024 280.612
L81.0768 277.798
L81.3744 246.348
L81.5232 256.346
L81.8208 233.882
L82.044 211.023
L82.1928 217.466
L82.788 272.54
L82.8624 274.268
L82.9368 268.491
L83.532 162.466
L83.7552 185.819
L84.1272 273.009
L84.276 278.292
L84.4248 275.231
L84.5736 270.639
L84.7968 273.626
L84.9456 268.393
L85.3176 250.915
L85.6152 244.768
L85.9128 212.529
L86.136 219.342
L86.2104 218.577
L86.4336 204.852
L86.508 205.173
L86.5824 205.099
L86.6568 210.603
L87.1032 291.523
L87.3264 277.872
L87.4752 280.859
L87.7728 239.115
L87.8472 239.683
L87.9216 238.918
L88.0704 228.155
L88.2936 208.505
L88.368 207.493
L88.6656 176.636
L88.74 176.932
L88.8888 201.643
L89.4096 307.47
L89.5584 299.719
L89.6328 300.657
L89.7816 305.866
L90.0048 287.327
L90.4512 205.469
L90.7488 185.103
L90.8976 187.991
L90.972 189.003
L91.1952 160.269
L91.2696 169.304
L91.716 286.858
L91.7904 286.956
L92.0136 304.113
L92.088 301.867
L92.1624 302.731
L92.3112 308.853
L92.46 285.204
L92.832 221.49
L93.0552 207.567
L93.1296 196.187
L93.204 196.582
L93.5016 226.6
L93.576 228.13
L93.6504 227.414
L93.7248 226.624
L93.7992 224.501
L93.8736 224.748
L94.0224 231.438
L94.2456 255.531
L94.3944 263.949
L94.6176 258.025
L94.9152 227.538
L94.9896 228.328
L95.1384 234.82
L95.2128 234.08
L95.3616 238.177
L95.5848 224.798
L95.6592 228.871
L95.9568 247.657
L96.0312 247.805
L96.4776 231.241
L96.6264 244.546
L96.8496 268.022
L96.924 265.899
L97.1472 236.968
L97.2216 237.239
L97.5936 280.069
L97.9656 223.44
L98.1144 215.146
L98.2632 222.724
L98.3376 220.823
L98.5608 195.298
L98.6352 201.519
L98.8584 224.946
L98.9328 226.402
L99.156 219.737
L99.3048 235.931
L99.8256 302.558
L99.9 299.694
L99.9744 297.991
L100.123 280.291
L100.495 225.02
L100.57 224.501
L100.718 214.109
L100.867 205.74
L101.239 221.86
L101.388 220.651
L101.462 221.391
L101.909 252.964
L102.058 268.368
L102.132 268.689
L102.355 254.322
L102.653 275.947
L102.727 275.922
L102.876 252.865
L103.174 203.691
L103.397 194.607
L103.546 215.121
L103.694 232.574
L103.918 222.255
L104.066 227.76
L104.215 246.694
L104.438 279.797
L104.513 279.723
L104.662 264.739
L104.959 238.103
L105.034 238.079
L105.108 239.535
L105.182 238.646
L105.331 225.242
L105.48 211.961
L106.224 282.439
L106.373 278.835
L106.447 279.822
L106.596 280.168
L106.67 275.428
L107.042 202.26
L107.34 149.803
L107.414 149.827
L107.563 163.923
L108.307 300.682
L108.53 310.63
L108.679 297.349
L109.423 178.487
L109.498 179.549
L109.87 191.521
L110.242 240.399
L110.688 289.079
L110.911 309.889
L110.986 305.273
L111.432 237.758
L111.804 203.395
L111.878 205.691
L112.399 229.266
L112.548 214.43
L112.622 215.146
L112.846 246.447
L112.92 244.694
L112.994 244.053
L113.143 250.619
L113.218 249.113
L113.441 237.881
L113.59 240.72
L113.738 227.513
L113.887 241.14
L114.185 271.577
L114.259 278.069
L114.334 277.576
L114.557 265.455
L114.706 272.416
L114.929 260.74
L115.078 251.656
L115.673 166.811
L115.747 172.39
L116.566 293.745
L116.64 288.808
L116.863 261.283
L117.31 239.436
L117.533 212.282
L117.682 205.024
L117.756 200.556
L117.83 201.618
L118.351 252.495
L118.649 286.191
L118.946 268.788
L119.021 269.479
L119.17 264.048
L119.318 268.22
L119.393 266.492
L119.616 247.212
L120.062 162.738
L120.137 167.477
L120.732 256.173
L120.881 253.952
L121.03 264.023
L121.253 280.637
L121.55 256.593
L121.848 232.623
L121.922 234.376
L122.22 256.297
L122.294 253.927
L122.592 234.894
L122.666 235.462
L122.815 242.423
L122.89 240.745
L123.113 223.563
L123.187 224.353
L123.41 239.066
L123.559 248.768
L123.634 248.348
L123.708 249.014
L123.782 248.249
L123.931 236.054
L124.006 238.572
L124.154 270.639
L124.229 265.727
L124.452 234.499
L124.675 262.542
L124.75 261.9
L124.824 257.408
L125.196 208.505
L125.345 201.865
L125.494 187.473
L125.717 210.381
L125.94 233.216
L126.535 278.218
L126.758 283.821
L126.833 283.673
L127.279 259.851
L127.8 207.296
L127.949 202.507
L128.172 235.511
L128.246 233.092
L128.618 206.012
L128.693 207.888
L128.99 239.189
L129.139 255.828
L129.362 281.427
L129.437 282.957
L129.586 267.307
L129.809 231.019
L130.032 199.84
L130.181 209.739
L130.33 236.894
L130.627 289.573
L130.702 290.017
L130.85 275.724
L131.074 230.722
L131.297 192.41
L131.371 191.447
L131.446 194.953
L131.669 214.899
L131.743 214.899
L131.892 225.119
L132.115 245.114
L132.264 240.399
L132.413 248.545
L132.562 255.482
L132.71 252.742
L132.785 254.272
L133.306 297.645
L133.454 299.966
L133.603 287.919
L133.752 257.358
L134.05 164.762
L134.124 161.133
L134.273 174.118
L134.347 180.734
L134.422 179.944
L134.496 181.869
L135.166 265.332
L135.24 266.27
L135.538 235.018
L135.612 235.141
L135.686 236.425
L135.984 223.835
L136.058 226.081
L136.282 257.704
L136.728 329.268
L136.802 327.91
L136.951 300.015
L137.323 198.73
L137.695 171.699
L137.77 170.193
L137.844 174.266
L138.365 245.312
L138.588 265.011
L138.737 261.086
L138.811 261.184
L139.034 277.428
L139.109 277.28
L139.183 276.218
L139.406 265.529
L139.63 255.803
L140.076 183.844
L140.15 188.88
L140.448 215.072
L140.746 255.581
L140.894 265.801
L140.969 265.48
L141.192 251.063
L141.266 251.631
L141.415 255.68
L141.564 253.088
L141.713 275.971
L141.862 289.301
L142.01 274.613
L142.457 201.47
L142.606 179.549
L142.754 190.114
L143.275 259.012
L143.35 251.187
L143.573 231.043
L143.796 250.397
L143.87 249.409
L144.094 232.031
L144.242 247.829
L144.466 287.672
L144.54 283.55
L144.986 226.476
L145.135 215.17
L145.21 216.405
L145.433 238.548
L145.507 238.375
L145.73 226.526
L145.954 236.82
L146.028 237.067
L146.251 250.545
L146.474 270.911
L146.549 270.516
L146.772 239.461
L146.921 223.415
L146.995 224.131
L147.218 243.756
L147.367 238.844
L147.442 238.918
L147.739 280.217
L147.888 260.246
L148.186 199.618
L148.334 214.01
L148.558 227.587
L148.781 223.465
L148.93 221.49
L149.004 220.107
L149.153 227.044
L149.302 232.771
L149.822 281.106
L150.046 270.763
L150.343 246.62
L150.566 251.063
L150.641 250.224
L150.79 239.214
L151.236 201.889
L151.31 201.791
L151.385 204.58
L152.054 272.293
L152.203 257.21
L152.426 241.609
L152.798 276.465
L152.873 272.17
L153.096 223.934
L153.319 187.448
L153.394 187.103
L153.542 196.607
L153.84 240.35
L153.989 244.744
L154.063 244.25
L154.212 235.339
L154.361 262.912
L154.51 283.179
L154.584 280.489
L154.658 282.315
L154.807 300.879
L154.882 298.065
L155.328 252.347
L155.7 178.932
L155.923 186.263
L156.072 198.014
L156.221 193.62
L156.37 210.579
L156.518 220.453
L156.593 217.935
L156.816 251.705
L157.188 315.024
L157.262 311.617
L157.486 268.911
L157.783 213.393
L157.858 214.084
L158.378 246.867
L158.899 220.947
L159.048 210.998
L159.271 221.342
L159.42 247.805
L159.643 299.768
L159.718 299.225
L159.866 265.134
L160.238 172.291
L160.313 169.181
L160.462 191.719
L160.908 302.039
L161.131 314.382
L161.206 312.555
L161.429 283.179
L161.875 189.67
L161.95 185.942
L162.024 187.744
L162.247 207.567
L162.322 206.308
L162.619 185.202
L162.768 188.386
L162.917 194.286
L163.14 240.695
L163.661 368.345
L163.735 370.517
L163.884 359.557
L164.033 301.373
L164.405 152.864
L164.702 140.15
L164.851 153.456
L165.595 278.958
L165.67 279.6
L165.744 279.575
L165.893 272.713
L166.19 297.003
L166.265 294.362
L166.414 283.945
L166.711 236.178
L166.786 236.277
L167.232 196.681
L167.455 166.786
L167.678 206.752
L168.348 287.203
L168.422 286.043
L168.869 257.827
L169.092 269.997
L169.613 207.863
L169.91 174.217
L169.985 173.476
L170.134 192.064
L170.357 239.733
L170.58 303.767
L171.026 255.433
L171.324 211.517
L171.547 245.534
L171.77 260.469
L171.994 256.988
L172.142 236.252
L172.366 209.073
L172.44 211.196
L172.589 221.391
L172.663 220.823
L172.812 209.344
L172.886 211.764
L173.11 252.273
L173.407 297.053
L173.482 296.139
L173.928 229.266
L174.151 216.01
L174.226 219.54
L174.523 264.961
L174.598 264.221
L174.97 234.697
L175.342 200.976
L175.416 202.976
L175.49 204.16
L175.714 215.541
L175.937 229.463
L176.011 229.685
L176.16 248.94
L176.458 280.958
L176.532 283.574
L176.681 273.429
L176.755 276.119
L176.904 290.314
L176.978 289.524
L177.202 253.26
L177.499 209.048
L177.648 206.58
L178.02 222.675
L178.169 225.686
L178.318 240.128
L178.541 256.939
L178.615 255.186
L178.987 232.031
L179.062 232.08
L179.359 244.645
L179.508 233.191
L179.657 220.848
L179.88 237.684
L180.103 225.909
L180.252 227.76
L180.326 229.019
L180.475 240.004
L180.624 247.928
L180.773 240.942
L180.847 241.387
L181.07 266.072
L181.368 317.32
L181.517 290.635
L181.889 207.641
L182.112 191.62
L182.261 188.806
L182.41 196.286
L182.707 254.05
L182.93 277.625
L183.005 276.366
L183.228 258.864
L183.526 201.42
L183.6 208.085
L183.898 247.706
L184.27 271.503
L184.418 260.469
L184.79 206.58
L185.014 193.941
L185.162 205.765
L185.683 271.207
L185.758 267.307
L186.055 211.295
L186.13 212.43
L186.576 294.732
L186.65 290.363
L187.171 233.808
L187.394 201.494
L187.469 198.878
L188.064 283.476
L188.213 272.096
L188.436 237.931
L188.734 210.875
L189.031 181.647
L189.329 194.459
L189.626 228.402
L189.701 223.391
L189.775 220.922
L189.924 233.487
L190.519 307.865
L190.594 307.89
L190.668 307.248
L190.817 293.547
L191.338 221.909
L191.486 203.617
L191.635 184.683
L191.71 186.239
L191.784 192.706
L192.082 271.108
L192.156 267.677
L192.454 223.761
L193.049 255.334
L193.198 241.016
L193.272 241.856
L193.495 258
L193.718 230.229
L194.016 175.13
L194.537 244.522
L194.76 278.242
L194.983 264.591
L195.132 265.208
L195.355 223.045
L195.43 229.192
L195.727 286.808
L195.876 283.105
L196.025 288.808
L196.099 286.858
L196.694 191.225
L196.769 195.2
L197.066 225.933
L197.141 225.069
L197.215 219.984
L197.29 220.971
L197.438 244.398
L197.513 243.88
L197.662 227.563
L197.736 228.427
L197.81 234.055
L197.885 233.857
L198.034 217.318
L198.108 217.787
L198.406 278.316
L198.48 275.379
L198.629 268.862
L198.778 273.404
L198.926 255.581
L199.224 218.923
L199.522 205.518
L199.596 205.592
L200.042 241.93
L200.34 285.87
L200.414 285.179
L200.638 275.626
L200.786 281.797
L200.861 275.848
L201.084 215.689
L201.158 224.156
L201.307 257.136
L201.382 253.236
L201.977 157.233
L202.126 178.068
L202.795 302.755
L202.87 303.422
L203.018 289.104
L203.465 221.292
L203.614 218.379
L203.762 242.226
L203.986 266.097
L204.06 263.431
L204.283 246.867
L204.432 256.667
L204.506 252.816
L204.953 200.556
L205.027 201.297
L205.176 215.615
L205.548 257.679
L205.771 226.279
L206.069 199.816
L206.143 201.889
L206.366 230.475
L206.664 297.152
L206.738 300.978
L206.813 299.052
L207.036 278.44
L207.334 231.537
L207.706 179.253
L207.854 203.247
L208.152 274.07
L208.375 280.365
L208.45 278.588
L209.045 211.393
L209.119 215.837
L209.64 269.405
L209.714 268.516
L210.086 218.034
L210.161 218.873
L210.458 250.421
L210.83 287.796
L210.979 267.405
L211.5 138.176
L211.574 142.027
L211.723 166.49
L212.17 303.965
L212.467 318.505
L212.542 318.727
L212.69 306.656
L212.914 265.801
L213.137 215.491
L213.211 211.541
L213.509 223.884
L213.583 223.193
L213.658 223.144
L213.881 233.487
L214.03 232.45
L214.104 234.03
L214.178 232.253
L214.476 203.765
L214.848 235.536
L215.146 280.76
L215.22 280.439
L215.443 259.308
L215.89 208.431
L216.038 214.775
L216.41 252.273
L216.559 266.294
L216.857 244.867
L216.931 245.83
L217.006 244.077
L217.154 234.499
L217.229 235.388
L217.303 234.45
L217.452 257.383
L217.675 284.759
L217.824 288.931
L217.898 286.537
L218.122 236.77
L218.419 199.791
L218.568 195.866
L218.642 197.52
L218.791 214.973
L219.089 260.197
L219.238 263.48
L219.312 260.74
L219.758 214.035
L220.056 229.019
L220.354 251.508
L220.428 250.668
L220.726 230.846
L220.949 235.931
L221.023 234.82
L221.098 235.585
L221.172 234.919
L221.693 284.907
L221.767 283.081
L221.916 260.962
L222.139 234.376
L222.362 221.342
L222.437 223.243
L222.586 216.108
L222.734 237.19
L222.958 272.639
L223.181 254.1
L223.553 197.841
L223.627 197.915
L223.776 209.789
L224.148 262.863
L224.222 260.543
L224.892 225.119
L225.041 229.365
L225.264 238.646
L225.487 243.781
L225.71 238.276
L225.934 248.15
L226.008 246.941
L226.306 238.325
L226.603 254.84
L226.678 254.569
L226.752 255.062
L226.901 245.188
L227.05 237.042
L227.198 241.757
L227.422 236.203
L227.496 234.869
L227.57 229.834
L227.645 230.401
L227.719 233.734
L228.017 261.061
L228.166 261.851
L228.389 241.362
L228.538 246.595
L228.686 229.439
L228.91 208.777
L229.207 229.908
L229.356 223.489
L229.505 238.967
L229.728 254.643
L229.802 253.705
L230.026 235.61
L230.1 237.017
L230.249 235.635
L230.398 248.076
L230.472 246.521
L230.546 243.534
L230.77 261.876
L230.844 261.407
L231.142 239.733
L231.29 241.609
L231.365 240.967
L231.588 240.004
L231.662 239.214
L231.737 237.017
L231.96 201.939
L232.034 203.864
L232.406 281.772
L232.481 280.192
L232.63 270.812
L232.704 271.429
L232.778 272.17
L233.002 227.39
L233.225 189.003
L233.299 188.411
L233.894 248.126
L234.118 274.934
L234.192 274.169
L234.415 253.162
L234.638 217.614
L234.713 219.12
L235.159 278.464
L235.234 277.502
L235.457 272.441
L236.052 178.759
L236.126 182.857
L236.275 213.862
L236.573 286.808
L236.647 291.449
L236.722 291.153
L236.945 258.049
L237.168 232.08
L237.242 232.006
L237.317 230.229
L237.54 218.083
L237.838 227.735
L237.912 227.044
L238.135 231.759
L238.284 231.734
L238.433 243.386
L238.582 252.421
L238.656 250.397
L238.954 232.672
L239.102 245.756
L239.474 293.35
L239.549 286.339
L240.218 196.755
L240.367 208.456
L240.59 238.202
L240.665 237.437
L240.888 217.269
L240.962 218.133
L241.111 238.795
L241.334 273.972
L241.409 273.231
L241.706 256.766
L241.781 257.087
L241.855 256.716
L241.93 256.815
L242.004 259.481
L242.153 268.936
L242.302 246.916
L242.748 191.447
L242.897 187.201
L243.046 197.619
L243.566 286.635
L243.79 257.358
L244.162 222.379
L244.31 234.697
L244.757 277.798
L244.831 277.28
L245.203 245.509
L245.278 248.595
L245.352 247.286
L245.724 217.046
L245.873 210.727
L245.947 213.22
L246.319 248.15
L246.394 247.484
L246.617 234.45
L246.989 198.112
L247.063 201.124
L247.286 242.152
L247.435 261.234
L247.51 261.728
L247.733 271.552
L247.956 230.624
L248.179 191.842
L248.254 194.953
L248.402 228.155
L248.7 297.596
L248.774 298.287
L248.998 293.301
L249.89 228.994
L249.965 228.624
L250.039 227.637
L250.262 214.528
L250.56 170.539
L250.634 170.588
L250.783 193.151
L251.081 235.758
L251.23 252.544
L251.378 273.552
L251.453 272.885
L251.676 246.2
L251.899 210.949
L251.974 214.751
L252.197 244.991
L252.271 247.607
L252.42 275.7
L252.643 313.37
L252.718 312.481
L252.866 285.278
L253.238 206.407
L253.462 185.597
L253.536 185.819
L253.908 234.277
L254.131 271.108
L254.206 274.243
L254.28 274.169
L254.429 268.59
L254.503 264.443
L254.578 266.22
L254.652 268.763
L254.726 268.047
L254.875 256.939
L255.247 208.382
L255.322 210.924
L255.545 226.032
L255.619 226.649
L255.768 220.28
L255.991 206.333
L256.066 202.605
L256.14 202.778
L256.214 203.716
L256.586 226.624
L257.256 305.051
L257.405 294.634
L257.777 228.081
L257.851 227.957
L258.149 248.224
L258.298 242.892
L258.521 227.933
L258.818 253.557
L258.893 250.15
L259.116 244.028
L259.19 245.484
L259.265 250.298
L259.339 248.471
L259.786 210.283
L260.158 167.922
L260.306 176.587
L260.455 196.607
L260.976 339.759
L261.05 338.006
L261.199 327.589
L261.348 291.573
L261.72 195.471
L261.869 178.907
L261.943 181.993
L262.39 253.186
L262.464 252.964
L262.613 254.445
L262.836 242.349
L263.134 224.131
L263.357 245.953
L263.58 270.886
L264.101 254.766
L264.473 229.315
L264.622 230.475
L264.77 226.822
L264.994 220.576
L265.068 221.144
L265.217 224.773
L265.291 223.761
L265.514 196.928
L265.589 198.162
L265.738 211.64
L266.333 295.053
L266.407 292.264
L266.482 292.832
L266.556 292.535
L266.705 269.973
L267.077 195.372
L267.151 193.669
L267.226 194.928
L267.3 198.532
L267.523 251.335
L267.672 280.267
L267.746 278.539
L267.895 263.752
L268.044 244.225
L268.118 244.62
L268.193 247.435
L268.267 246.101
L268.342 241.609
L268.565 215.516
L268.639 214.454
L268.862 217.91
L269.011 229.784
L269.309 257.704
L269.532 230.475
L269.755 210.85
L270.202 244.127
L270.499 272.861
L270.574 278.069
L270.722 273.108
L270.871 282.192
L271.392 215.047
L271.466 218.997
L271.764 229.488
L271.838 228.673
L271.913 228.352
L272.062 241.14
L272.21 257.654
L272.285 257.185
L272.508 248.965
L272.657 257.037
L272.731 261.234
L272.88 249.508
L273.103 237.585
L273.252 232.747
L273.475 192.139
L273.55 193.126
L273.773 219.959
L273.996 239.017
L274.07 239.387
L274.145 239.214
L274.442 210.085
L274.517 213.047
L274.74 241.707
L275.112 311.889
L275.261 318.776
L275.41 305.421
L275.558 284.389
L275.633 286.117
L275.707 284.266
L275.93 234.104
L276.228 173.995
L276.377 168.86
L276.451 171.699
L276.749 221.737
L277.046 263.431
L277.344 240.671
L277.493 252.495
L277.567 250.989
L277.865 207.444
L278.014 210.677
L278.088 215.343
L278.386 270.368
L278.46 270.516
L278.534 268.936
L278.683 274.219
L278.832 255.778
L279.13 215.861
L279.204 217.565
L279.427 267.874
L279.502 267.06
L279.725 246.052
L279.874 249.434
L280.022 242.473
L280.246 229.488
L280.394 228.081
L280.543 246.645
L280.766 276.909
L280.915 285.278
L281.064 258.173
L281.436 194.582
L281.51 191.99
L281.882 218.898
L282.329 271.528
L282.403 269.948
L282.626 243.263
L282.85 221.49
L282.924 222.206
L282.998 224.205
L283.147 221.515
L283.296 235.363
L283.594 275.749
L283.668 270.442
L283.966 220.404
L284.263 213.121
L284.338 207.296
L284.412 211.072
L284.486 220.626
L284.71 283.525
L284.784 285.549
L285.454 236.326
L285.528 240.597
L285.751 229.093
L285.974 265.085
L286.049 265.653
L286.421 245.904
L286.793 202.037
L286.867 202.358
L286.942 207.468
L287.165 235.561
L287.388 245.41
L287.686 235.289
L288.132 246.398
L288.206 252.1
L288.281 250.002
L288.355 249.138
L288.504 242.251
L288.578 244.892
L289.025 197.545
L289.099 196.113
L289.248 226.452
L289.694 316.48
L289.769 315.172
L290.215 259.555
L290.81 186.263
L290.885 184.708
L290.959 179.055
L291.034 180.462
L291.331 216.948
L291.48 240.152
L291.554 238.4
L291.703 227.019
L292.15 284.883
L292.224 284.587
L292.522 266.64
L292.819 217.343
L292.968 225.835
L293.042 225.39
L293.266 249.483
L293.489 269.948
L293.563 271.404
L293.638 271.38
L294.01 227.488
L294.084 230.179
L294.382 242.028
L294.456 240.942
L294.53 240.992
L294.605 240.794
L294.679 245.46
L294.828 265.924
L294.902 266.492
L294.977 263.258
L295.349 232.87
L296.093 173.501
L296.242 182.141
L296.762 246.052
L297.209 311.395
L297.358 325.343
L297.432 324.849
L297.73 312.358
L297.953 268.565
L298.325 180.487
L298.399 182.338
L298.771 216.577
L298.92 217.639
L299.143 243.04
L299.292 226.155
L299.441 212.134
L299.515 214.084
L299.887 259.037
L300.036 256.469
L300.11 256.642
L300.185 256.988
L300.334 245.163
L300.557 212.998
L300.631 213.788
L300.706 212.405
L300.929 218.848
L301.152 234.771
L301.598 268.615
L302.045 250.298
L302.194 246.422
L302.417 233.092
L302.566 243.83
L302.789 237.19
L302.938 244.546
L303.235 264.863
L303.533 239.288
L303.682 228.377
L303.756 228.797
L303.979 232.747
L304.054 237.363
L304.351 278.662
L304.426 274.638
L304.946 173.822
L305.021 176.833
L305.467 253.952
L305.69 296.362
L305.765 296.46
L305.839 290.289
L306.434 169.131
L306.509 173.525
L307.178 303.669
L307.327 289.474
L307.774 244.373
L307.848 244.299
L307.922 245.361
L308.071 243.435
L308.146 244.102
L308.22 243.485
L308.294 243.756
L308.369 244.003
L308.518 248.101
L308.592 244.151
L309.038 192.533
L309.187 182.338
L309.262 189.941
L309.708 275.996
L309.782 277.403
L309.857 274.317
L310.08 229.488
L310.303 193.743
L310.452 189.991
L310.601 198.68
L311.27 312.235
L311.345 308.211
L311.791 247.657
L312.014 235.931
L312.163 240.029
L312.238 245.583
L312.312 245.386
L312.386 245.534
L312.461 242.201
L312.758 207.172
L312.982 226.155
L313.205 212.726
L313.279 218.281
L313.577 264.023
L313.726 257.803
L313.874 262.443
L313.949 260.419
L314.47 217.022
L314.544 215.17
L314.693 218.059
L314.767 217.293
L314.842 218.182
L314.99 226.723
L315.288 255.235
L315.362 255.285
L315.958 188.732
L316.181 261.431
L316.404 297.226
L316.553 321.393
L316.702 347.881
L316.85 330.773
L317.446 179.45
L317.52 180.709
L317.594 182.116
L317.818 194.064
L317.966 203.741
L318.115 213.171
L318.264 205.543
L318.338 207.123
L318.487 214.059
L318.562 213.541
L318.636 216.034
L319.082 277.995
L319.306 268.467
L319.454 286.734
L319.529 284.907
L319.826 227.217
L319.975 200.581
L320.124 229.834
L320.347 266.146
L320.496 270.985
L320.645 262.987
L320.942 242.399
L321.017 243.633
L321.091 243.534
L321.24 227.612
L321.314 217.861
L321.389 224.65
L321.538 258.025
L321.612 257.333
L321.91 220.132
L322.133 253.384
L322.207 251.31
L322.728 160.565
L323.621 320.257
L323.695 322.578
L323.844 306.31
L324.142 199.964
L324.365 230.92
L324.514 219.712
L324.588 226.427
L324.886 318.431
L325.034 289.277
L325.258 206.308
L325.406 143.384
L325.555 204.58
L325.704 234.771
L325.778 226.921
L325.853 228.352
L326.225 259.679
L326.299 258.494
L326.374 255.457
L326.522 266.418
L326.597 259.012
L326.746 216.355
L326.82 217.12
L326.969 250.125
L327.192 218.947
L327.266 225.538
L327.49 258.839
L327.564 256.667
L327.713 228.821
L328.01 170.218
L328.085 153.061
L328.159 156.566
L328.457 311.642
L328.531 297.003
L328.606 284.389
L328.68 288.166
L328.903 311.173
L329.052 280.094
L329.498 152.543
L329.722 232.401
L329.87 213.59
L330.019 251.458
L330.242 311.716
L330.317 308.976
L330.689 220.28
L330.838 164.713
L330.986 226.229
L331.135 269.207
L331.433 237.19
L331.582 257.383
L331.656 250.693
L331.805 212.924
L331.879 214.775
L331.954 214.652
L332.177 142.891
L332.4 254.223
L332.474 249.039
L332.549 239.486
L332.623 239.51
L332.995 284.932
L333.144 253.581
L333.218 257.58
L333.293 273.034
L333.367 271.898
L333.516 206.357
L333.59 211.418
L333.814 321.714
L334.037 245.953
L334.111 249.804
L334.186 252.495
L334.483 231.981
L334.558 237.067
L334.632 237.536
L334.781 190.361
L334.93 147.186
L335.227 245.163
L335.376 222.848
L335.45 226.032
L335.674 290.659
L335.748 288.61
L335.897 251.508
L335.971 255.828
L336.046 265.43
L336.12 257.013
L336.269 202.901
L336.343 206.259
L336.566 282.784
L336.79 242.078
L337.013 266.517
L337.087 264.344
L337.534 178.29
L337.682 149.284
L337.98 282.464
L338.054 273.157
L338.203 256.075
L338.352 298.855
L338.426 291.548
L338.65 197.816
L338.798 200.655
L338.873 193.941
L338.947 194.311
L339.022 205.197
L339.319 312.16
L339.542 273.083
L339.691 283.204
L339.766 281.081
L340.286 205.518
L340.435 174.414
L340.51 188.288
L340.658 253.483
L340.733 252.149
L340.956 174.266
L341.179 221.342
L341.328 216.725
L341.402 218.7
L341.551 236.079
L341.626 235.413
L341.7 231.883
L341.849 260.715
L342.072 340.154
L342.221 306.211
L342.37 276.267
L342.444 277.897
L342.518 277.576
L342.742 250.57
L342.965 217.664
L343.188 163.528
L343.411 244.596
L343.486 236.992
L343.634 205.123
L343.858 229.76
L343.932 224.748
L344.081 208.777
L344.527 248.101
L344.75 291.375
L344.899 266.122
L345.048 240.473
L345.271 267.701
L345.346 267.677
L345.643 230.648
L345.792 220.231
L345.866 231.463
L346.09 300.213
L346.387 205.37
L346.462 216.059
L346.61 238.005
L346.759 228.278
L347.131 190.583
L347.28 245.583
L347.429 310.976
L347.578 267.208
L347.726 213.689
L347.801 215.343
L347.95 231.019
L348.47 184.659
L348.619 239.288
L348.842 350.522
L349.214 285.944
L349.289 282.809
L349.512 207.172
L349.735 146.667
L349.81 150.494
L350.182 264.418
L350.405 249.607
L350.554 265.899
L350.628 265.381
L351 179.722
L351.074 183.375
L351.298 261.999
L351.521 318.603
L351.744 285.574
L351.818 286.364
L351.893 291.35
L351.967 288.66
L352.116 241.609
L352.339 139.237
L352.414 138.176
L352.562 204.555
L352.786 282.562
L352.86 284.71
L353.009 264.64
L353.158 241.732
L353.232 241.683
L353.381 207.913
L353.604 148.075
L353.678 147.507
L353.827 207.172
L354.199 359.039
L354.274 360.865
L354.348 359.458
L354.422 354.348
L354.571 309.099
L355.018 140.447
L355.092 139.928
L355.464 243.485
L355.538 239.017
L355.762 194.212
L355.985 207.049
L356.059 204.333
L356.134 202.26
L356.282 217.984
L356.654 316.135
L356.729 313.79
L357.101 272.12
L357.547 211.591
L357.622 214.01
L358.068 265.035
L358.142 258.321
L358.589 195.841
L358.961 227.686
L359.258 252.224
L359.333 249.409
L359.407 245.509
L359.705 209.962
L359.779 215.368
L360.226 289.499
L360.374 287.894
L360.449 289.548
L360.523 287.228
L360.746 264.591
L360.895 273.626
L360.97 271.676
L361.118 227.044
L361.342 148.79
L361.416 144.964
L361.639 164.491
L361.862 227.538
L362.16 298.336
L362.309 303.249
L362.383 301.225
L362.532 281.328
L362.904 189.102
L362.978 190.929
L363.35 252.964
L363.722 281.032
L363.797 278.909
L363.946 270.614
L364.094 273.429
L364.169 266.837
L364.615 161.874
L364.764 172.316
L365.062 232.697
L365.359 284.142
L365.508 279.328
L365.657 282.809
L365.806 277.304
L365.954 285.525
L366.029 281.303
L366.326 235.98
L366.401 237.832
L366.475 235.882
L366.922 203.148
L367.07 209.591
L367.368 250.496
L367.442 250.175
L367.591 237.116
L367.889 211.443
L367.963 212.085
L368.186 240.917
L368.633 303.101
L368.707 301.373
L369.079 253.705
L369.377 221.687
L369.749 191.719
L369.823 188.683
L369.898 190.213
L370.27 230.574
L370.642 270.022
L370.865 283.698
L370.939 282.217
L371.162 258.617
L371.311 243.312
L371.534 255.038
L371.832 213.047
L371.906 213.245
L372.055 219.49
L372.427 248.101
L372.502 247.706
L372.725 225.563
L372.874 210.332
L372.948 211.319
L373.097 223.193
L373.618 268.491
L373.692 267.455
L373.841 260.864
L373.99 270.837
L374.064 270.812
L374.51 214.158
L374.734 241.337
L374.808 240.3
L375.031 202.136
L375.106 202.605
L375.478 253.013
L375.552 254.84
L375.85 278.464
L375.924 276.786
L376.147 245.46
L376.445 187.572
L376.519 182.783
L376.668 211.936
L376.966 273.33
L377.04 277.329
L377.114 275.872
L377.189 275.329
L377.263 273.675
L377.412 252.52
L377.561 220.107
L377.635 223.02
L378.007 255.951
L378.156 249.237
L378.305 257.062
L378.379 254.544
L378.602 204.58
L378.751 249.854
L378.9 290.19
L379.346 248.496
L379.495 161.429
L379.718 70.7342
L379.867 160.022
L380.09 257.901
L380.165 254.075
L380.239 262.419
L380.462 331.168
L380.537 319.541
L380.76 221.095
L380.909 282.291
L381.058 321.146
L381.281 275.774
L381.504 339.784
L381.653 278.933
L381.876 126.573
L381.95 137.879
L382.099 193.397
L382.174 190.238
L382.322 173.797
L382.62 302.015
L382.694 293.301
L382.843 233.907
L382.992 171.403
L383.29 264.912
L383.438 234.697
L383.662 266.245
L384.034 169.798
L384.108 172.958
L384.331 296.213
L384.406 293.72
L384.554 263.011
L384.629 267.776
L384.703 280.884
L384.778 280.489
L385.224 205.568
L385.447 283.328
L385.67 227.414
L385.745 229.537
L385.894 244.818
L386.266 193.274
L386.34 175.476
L386.414 189.472
L386.563 245.682
L386.638 237.684
L386.786 209.147
L386.935 255.877
L387.084 295.424
L387.233 272.12
L387.456 206.407
L387.53 216.553
L387.679 271.059
L387.754 270.145
L387.902 247.311
L388.051 274.959
L388.2 316.555
L388.349 284.759
L388.646 177.549
L388.795 223.934
L388.944 246.299
L389.167 223.712
L389.39 261.012
L389.762 165.206
L389.837 174.069
L390.06 269.899
L390.134 269.652
L390.283 244.892
L390.358 245.015
L390.506 261.777
L390.804 232.277
L390.953 208.011
L391.176 253.557
L391.25 244.299
L391.474 199.915
L391.846 269.75
L391.92 266.615
L392.143 221.218
L392.292 242.72
L392.59 290.585
L392.738 276.811
L392.813 277.576
L393.036 297.818
L393.11 288.24
L393.482 164.466
L393.557 167.798
L394.003 259.333
L394.226 247.286
L394.301 250.989
L394.375 247.188
L394.598 192.904
L394.673 194.187
L394.97 242.028
L395.119 235.882
L395.194 237.56
L395.417 254.445
L395.491 253.655
L395.566 247.953
L395.789 211.591
L396.086 290.635
L396.161 275.897
L396.384 232.45
L396.533 255.136
L396.682 286.191
L396.756 282.488
L396.979 203.321
L397.202 247.064
L397.277 246.225
L397.5 207.296
L397.574 214.059
L397.798 276.07
L397.872 274.663
L398.095 219.293
L398.244 236.721
L398.542 280.908
L398.69 263.406
L398.914 238.276
L399.062 262.987
L399.137 251.656
L399.36 176.043
L399.509 163.355
L399.658 142.323
L399.732 146.445
L400.253 292.19
L400.476 297.275
L400.625 265.134
L400.699 251.236
L401.146 323.368
L401.22 316.061
L401.592 228.846
L401.741 233.166
L401.89 237.486
L401.964 235.363
L402.262 195.101
L402.336 192.361
L402.41 195.446
L402.559 226.822
L402.634 225.02
L402.782 219.959
L402.857 223.465
L402.931 219.787
L403.229 174.34
L403.378 195.619
L403.75 274.959
L403.824 275.774
L403.898 274.589
L404.047 254.248
L404.196 234.154
L404.568 307.371
L404.642 307.174
L404.94 228.97
L405.163 245.904
L405.238 248.076
L405.386 256.297
L405.535 238.943
L405.758 209.344
L406.13 246.101
L406.279 263.135
L406.502 235.018
L406.8 255.828
L406.874 257.111
L407.023 250.224
L407.098 254.248
L407.172 247.188
L407.47 185.918
L407.618 178.487
L407.767 214.8
L407.916 248.224
L408.065 243.781
L408.139 238.325
L408.362 196.804
L408.437 202.037
L408.809 256.889
L409.106 278.069
L409.255 283.204
L409.404 309.198
L409.478 322.38
L409.553 319.418
L409.999 227.933
L410.074 236.844
L410.222 256.223
L410.297 255.161
L410.52 244.102
L410.669 241.09
L410.892 185.054
L411.115 140.496
L411.19 135.065
L411.264 143.384
L411.785 263.085
L411.934 275.428
L412.082 268.985
L412.157 270.392
L412.306 289.227
L412.454 312.901
L412.529 308.927
L412.826 248.447
L412.901 248.274
L413.124 251.829
L413.198 248.743
L413.57 207.024
L413.645 202.877
L413.719 203.765
L413.868 214.257
L414.166 257.704
L414.24 255.161
L414.463 242.325
L414.612 256.321
L414.761 266.368
L414.91 263.085
L415.133 247.163
L415.43 208.382
L415.579 198.557
L415.654 200.013
L415.951 235.561
L416.026 232.006
L416.249 208.949
L416.695 253.729
L416.844 271.38
L416.993 287.598
L417.067 285.451
L417.29 240.695
L417.365 241.658
L417.662 277.205
L417.737 276.416
L418.034 226.921
L418.109 227.019
L418.183 227.488
L418.332 224.427
L418.406 225.02
L418.481 227.414
L418.555 225.835
L418.63 225.884
L418.704 229.76
L418.853 227.291
L419.299 265.825
L419.448 249.014
L419.671 226.353
L419.746 221.317
L419.82 221.835
L420.192 248.57
L420.415 233.29
L420.638 209.122
L420.713 217.17
L420.936 261.012
L421.085 257.21
L421.159 257.679
L421.382 275.897
L421.903 182.733
L422.126 208.653
L422.201 211.221
L422.35 199.445
L422.424 206.777
L422.647 286.981
L422.722 282.735
L423.094 225.909
L423.168 236.301
L423.317 259.21
L423.391 263.801
L423.614 301.274
L423.689 290.264
L423.763 291.77
L423.912 314.234
L424.582 172.81
L424.73 153.653
L424.879 177.697
L424.954 174.093
L425.028 164.787
L425.177 230.13
L425.251 263.949
L425.326 262.369
L425.4 253.408
L425.623 300.904
L425.772 281.945
L425.921 314.086
L426.367 203.222
L426.516 269.479
L426.59 269.059
L426.739 202.778
L426.888 230.13
L427.037 197.866
L427.186 229.068
L427.26 219.762
L427.409 196.73
L427.483 211.097
L427.558 209.962
L427.632 193.743
L427.706 199.445
L427.93 315.468
L428.078 259.284
L428.153 265.579
L428.227 278.613
L428.674 192.089
L428.748 195.076
L428.897 223.193
L429.046 186.757
L429.194 252.791
L429.269 245.509
L429.343 220.947
L429.418 221.613
L429.641 278.81
L429.864 298.657
L429.938 293.029
L430.013 279.748
L430.087 282.217
L430.162 298.978
L430.236 289.425
L430.385 231.883
L430.534 288.857
L430.608 281.6
L430.757 230.401
L430.831 236.104
L430.98 260.049
L431.203 243.732
L431.426 175.871
L431.501 190.608
L431.575 186.239
L431.724 134.571
L431.947 204.21
L432.022 184.313
L432.096 173.303
L432.394 209.344
L432.542 262.592
L432.691 245.386
L432.914 301.397
L433.063 272.935
L433.286 386.662
L433.361 379.824
L433.584 305.964
L433.733 290.733
L433.956 227.118
L434.179 181.005
L434.402 104.578
L434.477 128.844
L434.7 230.204
L434.923 194.039
L434.998 197.076
L435.221 247.36
L435.295 243.485
L435.37 236.992
L435.593 267.356
L435.742 226.773
L435.816 232.031
L436.039 310.334
L436.188 285.722
L436.411 253.507
L436.634 266.912
L436.858 232.944
L436.932 233.512
L437.155 166.959
L437.378 261.135
L437.602 210.159
L437.676 215.541
L438.048 272.984
L438.197 268.121
L438.271 271.602
L438.346 264.369
L438.569 188.88
L438.866 283.303
L438.941 278.193
L439.09 290.783
L439.164 287.03
L439.313 275.083
L439.387 273.157
L439.759 171.551
L439.908 148.593
L440.429 244.522
L440.578 236.894
L440.652 236.548
L440.801 254.593
L440.875 253.606
L441.173 222.576
L441.247 220.626
L441.396 272.811
L441.545 321.245
L441.619 321.862
L441.768 318.208
L442.214 254.198
L442.512 192.682
L442.735 170.909
L443.107 230.722
L443.182 234.376
L443.256 231.537
L443.405 220.453
L443.554 231.117
L443.777 215.392
L444.074 264.196
L444.149 256.346
L444.223 252.298
L444.595 304.286
L444.67 298.756
L445.414 173.303
L445.488 174.636
L445.637 197.323
L445.934 247.854
L446.083 255.062
L446.232 251.137
L446.455 274.194
L446.678 258.864
L446.753 262.246
L446.827 262.048
L447.125 221.564
L447.199 223.86
L447.497 299.867
L447.571 299.595
L447.72 274.515
L448.166 175.229
L448.315 166.663
L448.464 168.687
L448.613 191.151
L448.985 277.502
L449.059 277.354
L449.208 253.952
L449.357 234.475
L449.506 232.747
L449.58 233.092
L449.729 249.385
L449.878 267.356
L449.878 267.356" style="fill:none;stroke:#808080;stroke-linecap:square;"/>
   </g>
  </g>
 </g>
 <defs>
  <clipPath id="p7ff5b81e1d">
   <rect height="345.6" width="446.4" x="72.0" y="43.2"/>
  </clipPath>
 </defs>
</svg>
