<?xml version="1.0" encoding="utf-8" standalone="no"?>
<!DOCTYPE svg PUBLIC "-//W3C//DTD SVG 1.1//EN"
  "http://www.w3.org/Graphics/SVG/1.1/DTD/svg11.dtd">
<!-- Created with matplotlib (http://matplotlib.org/) -->
<svg height="432pt" version="1.1" viewBox="0 0 576 432" width="576pt" xmlns="http://www.w3.org/2000/svg" xmlns:xlink="http://www.w3.org/1999/xlink">
 <defs>
  <style type="text/css">
*{stroke-linecap:butt;stroke-linejoin:round;}
  </style>
 </defs>
 <g id="figure_1">
  <g id="patch_1">
   <path d="
M0 432
L576 432
L576 0
L0 0
z
" style="fill:#ffffff;"/>
  </g>
  <g id="axes_1">
   <g id="line2d_1">
    <path clip-path="url(#p7ff5b81e1d)" d="
M72 164.229
L72.0744 169.85
L72.4464 228.522
L72.8184 265.628
L73.0416 275.443
L73.116 276.203
L73.1904 275.754
L73.4136 252.287
L74.232 150.289
L74.3808 143.85
L74.4552 146.154
L75.2736 263.254
L75.348 264.948
L75.7944 242.714
L76.3152 190.31
L76.3896 190.771
L76.5384 195.459
L76.6872 212.854
L76.9848 244.581
L77.208 248.659
L77.3568 239.731
L77.6544 217.9
L77.952 174.262
L78.0264 174.504
L78.1008 174.931
L78.2496 169.055
L78.8448 204.261
L79.44 250.94
L79.5144 249.707
L79.6632 237.023
L79.7376 237.968
L79.812 241.274
L80.0352 274.786
L80.1096 274.36
L80.184 274.59
L80.2584 271.848
L80.7048 194.757
L81.0024 145.774
L81.2256 141.269
L81.3 140.555
L81.3744 140.566
L81.4488 141.05
L81.5976 159.425
L82.2672 273.311
L82.3416 276.053
L82.416 275.097
L82.4904 276.261
L82.5648 274.648
L82.788 253.843
L83.0856 216.264
L83.16 216.149
L83.4576 232.853
L83.532 232.542
L83.6064 233.095
L83.8296 216.956
L84.4992 182.488
L84.9456 172.799
L85.0944 159.01
L85.1688 159.275
L85.3176 181.174
L85.6896 256.204
L85.764 256.895
L85.8384 256.17
L85.9872 243.878
L86.0616 244.938
L86.3592 264.441
L86.4336 264.268
L86.5824 258.082
L87.4008 189.596
L87.4752 189.573
L87.5496 187.038
L87.6984 170.507
L87.7728 170.783
L87.996 182.568
L88.2192 210.124
L88.368 212.474
L88.4424 217.025
L88.5168 215.988
L88.74 201.046
L88.8144 202.222
L89.4096 238.417
L89.484 237.968
L89.6328 232.922
L89.7816 250.882
L89.9304 262.702
L90.0048 261.515
L90.0792 263.093
L90.1536 259.868
L90.6 193.628
L90.8232 181.451
L90.8976 183.352
L91.1952 206.23
L91.2696 210.032
L91.344 206.657
L91.6416 172.73
L91.716 171.394
L91.8648 180.46
L92.3112 244.131
L92.3856 243.901
L92.6832 220.458
L92.832 224.835
L93.3528 265.593
L93.5016 246.055
L93.8736 174.896
L93.948 166.198
L94.0224 166.763
L94.5432 211.126
L94.7664 218.753
L94.9152 225.008
L95.064 218.753
L95.2128 220.377
L95.6592 199.342
L96.18 220.285
L96.4776 254.891
L96.552 258.543
L96.6264 256.734
L96.7008 257.806
L96.8496 255.248
L96.924 252.011
L97.3704 193.086
L97.5936 159.448
L97.668 155.784
L97.7424 157.535
L98.3376 208.281
L98.5608 223.211
L98.6352 222.796
L98.7096 220.723
L98.9328 227.992
L99.0072 227.865
L99.0816 225.331
L99.156 227.715
L99.528 258.554
L99.6768 258.001
L99.8256 262.31
L99.9744 252.725
L100.644 170.38
L100.867 152.098
L101.09 168.756
L101.314 182.522
L101.388 182.373
L101.462 182.499
L101.611 192.729
L101.76 206.357
L102.206 267.148
L102.355 264.142
L102.578 244.546
L102.876 263.681
L103.025 271.537
L103.174 262.54
L103.397 223.061
L103.62 179.585
L103.918 164.113
L103.992 163.756
L104.215 172.246
L104.29 171.82
L104.438 173.686
L104.513 173.099
L104.587 173.894
L104.736 186.531
L105.182 245.168
L105.257 248.163
L105.406 240.537
L105.554 226.333
L105.629 226.92
L106.224 279.002
L106.373 284.451
L106.447 281.433
L106.745 213.442
L107.117 134.219
L107.266 124.796
L108.084 206.115
L108.456 257.748
L108.53 259.476
L108.679 276.272
L108.754 273.772
L108.977 257.955
L109.126 258.865
L109.2 258.704
L109.423 268.945
L109.498 269.452
L109.572 269.395
L110.242 176.255
L110.316 176.843
L110.39 176.209
L110.465 176.555
L110.614 181.704
L110.762 167.973
L111.134 133.24
L111.358 189.987
L111.655 247.08
L111.804 259.775
L111.878 258.842
L112.027 246.147
L112.102 246.17
L112.622 292.953
L112.846 271.802
L113.069 210.447
L113.366 163.295
L113.59 143.827
L113.664 143.354
L113.813 151.672
L114.036 182.522
L114.408 232.473
L114.631 213.05
L114.706 213.223
L114.854 221.909
L115.152 244.604
L115.524 223.292
L115.598 221.471
L115.673 221.725
L115.822 231.805
L116.194 262.817
L116.268 261.377
L116.417 248.037
L116.863 160.773
L116.938 161.245
L117.458 189.054
L117.682 183.801
L117.756 183.582
L117.905 205.482
L118.202 252.161
L118.351 258.024
L118.426 257.909
L118.5 258.762
L118.574 258.255
L118.723 250.156
L118.798 251.02
L118.872 251.919
L119.095 246.769
L119.244 249.292
L119.393 230.687
L119.839 162.259
L119.988 165.669
L120.36 194.33
L120.434 190.943
L120.509 186.577
L120.583 189.054
L120.732 199.388
L120.806 199.975
L121.03 206.403
L121.327 239.039
L121.55 262.713
L121.625 262.264
L121.774 257.621
L122.071 236.62
L122.146 236.954
L122.22 235.595
L122.294 236.655
L122.518 251.573
L122.592 251.182
L122.741 237.311
L123.262 147.352
L123.336 149.656
L123.931 207.221
L124.006 206.841
L124.08 207.037
L124.229 198.097
L124.303 199.595
L124.675 241.85
L124.898 247.161
L124.973 247.046
L125.196 230.526
L125.27 230.595
L125.866 263.923
L126.014 254.419
L126.238 206.922
L126.535 151.222
L126.684 146.545
L126.833 160.185
L127.13 203.811
L127.205 199.583
L127.428 187.395
L127.577 189.227
L128.023 250.698
L128.098 251.953
L128.246 242.138
L128.544 221.829
L128.693 234.063
L129.065 280.949
L129.139 280.696
L129.288 263.059
L129.809 159.31
L130.106 174.838
L130.255 182.614
L130.478 167.166
L130.553 170.184
L131.297 251.124
L131.446 244.396
L131.743 223.706
L131.818 226.114
L131.966 246.343
L132.19 286.49
L132.264 286.963
L132.413 265.098
L132.859 160.254
L132.934 155.796
L133.231 175.979
L133.38 170.219
L133.454 170.438
L133.603 182.396
L133.826 201.45
L134.05 194.399
L134.273 233.556
L134.496 262.01
L134.942 234.95
L135.017 237.634
L135.24 260.271
L135.314 260.72
L135.835 228.049
L135.91 227.024
L135.984 224.19
L136.207 184.285
L136.43 156.787
L136.505 156.568
L136.654 164.47
L136.728 168.825
L136.802 166.982
L136.877 167.5
L136.951 168.837
L137.249 194.065
L137.472 220.147
L138.142 270.524
L138.216 268.508
L138.365 264.902
L138.588 247.403
L138.737 252.564
L138.96 244.65
L139.332 196.957
L139.555 173.398
L139.778 150.566
L139.853 149.702
L140.002 163.48
L140.522 228.66
L140.597 230.607
L140.746 219.19
L140.82 220.331
L141.118 242.207
L141.341 228.752
L141.415 229.72
L141.787 252.357
L142.457 185.057
L142.531 181.612
L142.606 182.234
L142.68 181.923
L142.829 190.379
L143.201 216.218
L143.35 214.237
L143.424 215.182
L143.498 214.018
L143.573 214.767
L143.647 217.912
L143.945 251.412
L144.019 251.009
L144.391 218.591
L144.466 218.695
L144.614 215.423
L144.689 212.831
L144.838 220.861
L144.912 220.769
L144.986 219.271
L145.061 220.124
L145.135 225.077
L145.21 223.66
L145.507 200.862
L145.954 177.062
L146.251 195.217
L146.326 194.872
L146.474 187.096
L146.623 198.236
L147.144 256.135
L147.218 261.054
L147.293 260.755
L147.367 258.554
L147.665 240.053
L147.962 237.381
L148.186 224.628
L148.26 224.916
L148.334 226.045
L148.558 247.391
L148.632 242.876
L149.004 202.095
L149.227 170.069
L149.525 135.256
L149.674 143.147
L149.897 170.23
L150.269 232.922
L150.492 236.252
L151.087 293.022
L151.162 291.041
L151.459 251.009
L151.831 193.605
L152.278 152.11
L152.352 150.186
L152.575 167.857
L152.65 167.005
L152.724 165.519
L152.798 168.698
L153.096 217.958
L153.319 240.514
L153.394 236.171
L153.468 237.162
L153.542 242.392
L153.617 241.228
L153.691 239.454
L153.766 240.837
L153.914 248.797
L154.063 238.533
L154.138 241.055
L154.286 241.436
L154.361 241.47
L154.584 249.903
L155.03 222.946
L155.105 221.702
L155.179 218.511
L155.626 145.578
L155.7 149.034
L155.923 168.917
L156.295 203.35
L156.518 232.807
L156.593 234.443
L156.816 250.732
L156.89 249.776
L157.114 243.797
L157.188 244.673
L157.337 252.956
L157.411 253.048
L157.634 247.357
L157.709 246.896
L157.783 244.834
L158.23 178.364
L158.304 180.91
L158.378 183.398
L158.527 178.755
L158.825 188.156
L159.048 208.304
L159.197 215.55
L159.42 222.658
L159.494 221.437
L159.569 221.494
L159.792 229.397
L159.866 227.416
L159.941 227.727
L160.015 226.702
L160.387 192.441
L160.61 217.221
L160.834 259.614
L160.982 258.255
L161.131 261.434
L162.024 190.033
L162.173 178.479
L162.396 165.749
L162.47 165.784
L162.917 207.694
L162.991 207.832
L163.066 209.134
L163.438 225.573
L163.81 276.295
L163.884 277.078
L164.405 206.196
L164.628 193.593
L165 230.192
L165.372 221.713
L165.521 210.113
L165.595 210.193
L165.744 195.436
L165.893 181.497
L165.967 181.82
L166.116 169.09
L166.339 179.585
L166.414 178.801
L166.488 181.117
L166.86 231.379
L167.158 277.309
L167.232 279.175
L167.381 266.48
L167.753 219.628
L167.827 225.331
L167.902 224.858
L167.976 221.541
L168.125 231.263
L168.274 215.078
L168.646 162.408
L168.72 165.404
L169.166 217.935
L169.241 225.469
L169.39 217.486
L169.538 221.875
L169.687 219.559
L169.985 226.483
L170.059 223.292
L170.134 215.308
L170.208 215.596
L170.357 226.425
L170.431 225.457
L170.58 231.183
L170.654 230.803
L170.803 228.372
L170.952 232.623
L171.101 225.227
L171.398 198.178
L171.473 202.855
L171.547 204.537
L171.622 203.984
L171.696 204.422
L171.77 207.279
L171.994 193.731
L172.068 193.789
L172.142 196.3
L172.366 189.181
L172.589 201.841
L172.663 199.63
L172.812 200.908
L172.961 212.29
L173.482 280.776
L173.556 284.106
L173.779 266.849
L174.151 221.667
L174.523 166.003
L174.598 168.814
L174.746 169.447
L174.821 169.459
L175.044 150.658
L175.118 151.626
L175.49 189.791
L175.788 230.446
L175.862 232.6
L176.011 226.425
L176.086 228.406
L176.383 274.648
L176.606 307.883
L176.83 294.462
L177.276 194.238
L177.35 194.1
L177.425 196.761
L177.499 194.849
L178.094 155.082
L178.169 154.851
L178.466 167.35
L178.838 226.725
L179.136 236.067
L179.285 232.415
L179.508 238.59
L179.88 264.499
L180.252 243.406
L180.773 201.807
L180.922 191.278
L180.996 191.324
L181.07 191.093
L181.219 180.817
L181.442 194.284
L181.517 196.277
L181.74 206.518
L181.889 209.237
L182.038 204.099
L182.112 205.113
L182.186 204.998
L182.335 203.132
L182.484 198.95
L182.558 200.229
L182.707 213.972
L183.005 246.792
L183.079 246.527
L183.228 261.377
L183.377 247.23
L183.6 220.953
L183.674 212.382
L183.749 213.373
L183.823 211.449
L184.046 190.379
L184.567 215.804
L184.79 205.528
L184.865 207.682
L185.014 206.864
L185.237 203.638
L185.386 201.669
L185.46 203.385
L185.906 239.569
L185.981 239.788
L186.204 248.59
L186.353 242.772
L186.427 243.014
L186.502 241.643
L186.65 234.777
L186.799 239.489
L186.874 235.56
L187.469 148.688
L187.543 148.7
L187.692 164.805
L188.213 237.507
L188.287 238.118
L188.436 230.561
L188.585 231.413
L188.734 225.112
L188.808 225.054
L188.957 221.045
L189.031 223.119
L189.254 243.083
L189.478 248.474
L189.552 248.705
L189.85 218.234
L189.998 208.753
L190.147 213.292
L190.222 213.742
L190.37 219.87
L190.966 178.663
L191.04 180.564
L191.189 194.745
L191.263 193.812
L191.338 192.061
L191.561 211.357
L191.635 210.193
L191.784 212.935
L191.933 220.469
L192.305 254.822
L192.379 253.566
L192.454 254.027
L192.528 253.727
L192.677 244.523
L193.123 205.643
L193.346 201.588
L193.421 200.54
L193.57 195.183
L193.644 195.494
L193.718 196.508
L193.793 196.243
L193.867 196.047
L194.165 203.8
L194.388 227.612
L194.462 227.266
L194.611 221.621
L194.686 224.593
L194.76 223.729
L195.132 192.879
L195.281 219.317
L195.578 258.347
L195.653 258.739
L195.727 254.384
L196.025 219.179
L196.397 193.317
L196.471 194.422
L196.843 211.875
L196.992 200.712
L197.066 201.853
L197.29 222.543
L197.364 223.591
L197.587 203.178
L197.662 205.194
L197.736 208.523
L197.81 206.346
L197.885 200.067
L197.959 202.198
L198.48 236.712
L198.629 230.872
L198.778 235.733
L198.852 234.846
L199.001 226.01
L199.075 227.243
L199.15 225.515
L199.298 228.142
L199.522 205.125
L199.596 207.025
L199.745 197.072
L199.819 198.339
L199.968 208.281
L200.042 207.152
L200.117 208.834
L200.266 219.962
L200.34 218.28
L200.563 198.812
L200.712 187.764
L200.861 190.759
L200.935 190.782
L201.382 227.531
L201.53 220.895
L202.2 251.343
L202.349 259.66
L202.498 250.594
L202.721 228.545
L202.795 225.008
L203.093 195.102
L203.167 196.485
L203.242 195.517
L203.465 181.313
L203.614 172.016
L203.688 172.523
L203.911 187.222
L204.581 236.966
L204.655 234.835
L204.73 236.712
L204.953 248.336
L205.176 231.551
L205.325 240.894
L205.548 232.715
L205.771 214.145
L205.846 217.347
L205.92 219.813
L205.994 218.303
L206.143 195.69
L206.366 177.235
L206.441 176.878
L206.59 184.296
L206.813 213.154
L207.036 231.091
L207.185 218.661
L207.334 203.374
L207.408 204.007
L207.631 218.119
L207.854 261.999
L207.929 261.158
L208.003 256.607
L208.078 256.965
L208.152 259.672
L208.375 241.055
L208.747 202.245
L208.822 202.417
L208.97 195.056
L209.194 180.956
L209.417 199.825
L209.491 198.938
L209.938 183.306
L210.235 195.436
L210.607 244.938
L210.756 245.963
L210.83 244.753
L210.905 245.168
L211.054 251.976
L211.426 240.445
L211.798 211.668
L211.872 213.465
L212.021 216.334
L212.17 200.908
L212.318 188.628
L212.467 193.973
L212.542 192.072
L212.616 192.545
L212.765 186.07
L212.988 200.263
L213.062 199.365
L213.434 214.732
L213.509 221.621
L213.583 218.557
L213.732 214.041
L213.955 236.747
L214.327 268.45
L214.402 265.259
L214.699 228.026
L214.848 215.274
L215.071 190.448
L215.146 194.307
L215.22 193.904
L215.369 172.051
L215.443 173.375
L215.741 202.164
L215.964 223.614
L216.113 218.81
L216.187 220.147
L216.262 216.99
L216.41 203.062
L216.931 236.194
L217.006 234.938
L217.229 237.277
L217.303 235.595
L217.526 207.613
L217.601 209.583
L217.75 224.674
L218.047 210.136
L218.196 223.729
L218.27 223.234
L218.419 212.428
L218.568 214.099
L218.791 198.201
L218.866 199.065
L219.014 196.922
L219.089 193.27
L219.163 193.374
L219.312 196.427
L219.461 200.344
L219.61 198.374
L219.758 224.421
L219.907 240.353
L219.982 241.585
L220.13 257.99
L220.205 257.506
L220.502 227.646
L220.577 224.95
L220.8 213.073
L221.023 226.379
L221.246 207.29
L221.47 183.467
L221.544 183.283
L221.618 179.596
L221.693 183.571
L221.99 220.584
L222.065 221.46
L222.288 236.724
L222.511 212.878
L222.66 219.041
L222.958 202.44
L223.032 203.178
L223.553 246.838
L223.702 228.982
L223.999 186.623
L224.52 236.436
L224.669 224.686
L225.041 186.773
L225.19 199.342
L225.413 224.225
L225.562 225.377
L225.71 221.713
L225.934 202.763
L226.157 213.845
L226.454 226.402
L226.678 245.007
L226.752 242.035
L226.826 240.364
L227.124 222.059
L227.422 191.854
L227.496 187.891
L227.57 188.351
L228.017 213.212
L228.166 208.419
L228.24 208.442
L228.389 214.663
L228.538 207.832
L228.761 216.414
L228.835 212.29
L228.91 213.177
L229.058 219.836
L229.133 218.223
L229.356 232.853
L229.505 224.409
L229.728 242.415
L229.877 238.625
L230.1 230.169
L230.249 209.375
L230.472 217.002
L230.546 214.341
L230.695 228.487
L230.77 225.734
L231.142 183.121
L231.216 180.575
L231.29 182.879
L231.365 181.727
L231.439 182.119
L231.737 211.783
L231.811 210.286
L232.034 198.431
L232.109 199.088
L232.481 229.178
L232.778 277.643
L232.853 281.652
L232.927 281.525
L233.076 274.544
L233.299 233.061
L233.597 189.1
L233.969 168.583
L234.192 163.192
L234.49 176.532
L235.159 261.25
L235.234 259.66
L235.68 229.04
L235.903 212.762
L236.126 236.067
L236.201 233.095
L236.424 214.917
L236.498 219.997
L236.573 219.617
L236.722 210.539
L236.796 211.61
L237.094 224.098
L237.242 200.286
L237.466 169.931
L237.54 168.618
L237.838 184.492
L238.284 235.871
L238.507 228.775
L238.582 230.422
L239.102 260.628
L239.326 224.248
L239.623 197.625
L239.698 197.544
L239.772 197.038
L239.846 195.033
L239.921 196.323
L240.144 219.49
L240.218 213.016
L240.442 184.227
L240.516 184.342
L240.59 186.831
L241.037 230.872
L241.186 235.883
L241.26 236.194
L241.558 212.912
L241.706 214.859
L242.078 244.2
L242.153 242.749
L242.302 228.625
L242.599 176.002
L242.674 179.043
L243.269 262.298
L243.418 245.249
L243.79 175.23
L243.864 177.672
L244.162 215.308
L244.236 215.262
L244.31 211.749
L244.534 191.07
L244.831 218.119
L244.98 237.254
L245.129 227.715
L245.203 229.766
L245.278 230.791
L245.426 224.616
L245.501 225.112
L245.724 233.855
L245.798 230.388
L246.022 246.574
L246.17 240.065
L246.245 238.417
L246.617 192.107
L246.766 183.34
L246.914 194.687
L246.989 202.095
L247.063 198.961
L247.138 194.261
L247.286 200.954
L247.51 196.842
L247.807 208.995
L248.105 229.259
L248.477 249.258
L248.551 246.804
L248.774 225.112
L248.849 217.854
L248.923 222.739
L248.998 221.322
L249.072 215.734
L249.295 234.109
L249.965 183.237
L250.039 184.654
L250.262 194.077
L250.337 190.241
L250.411 191.082
L250.709 223.833
L250.783 224.616
L251.006 228.89
L251.081 223.499
L251.155 225.457
L251.453 254.453
L251.527 255.041
L252.048 192.913
L252.122 192.602
L252.197 193.144
L252.42 201.945
L252.494 202.21
L252.718 210.746
L252.792 210.908
L253.015 202.222
L253.164 211.426
L253.238 211.207
L253.462 198.593
L253.536 204.641
L253.759 237.807
L253.834 238.728
L254.057 247.023
L254.131 242.876
L254.206 243.164
L254.28 242.461
L254.429 223.614
L254.578 231.367
L255.024 206.127
L255.173 195.816
L255.247 198.236
L255.396 209.318
L255.545 203.926
L255.619 204.963
L255.768 210.332
L255.917 200.747
L256.066 180.195
L256.14 183.421
L256.512 224.167
L256.586 224.674
L256.661 222.693
L256.735 226.183
L256.81 225.838
L257.033 199.284
L257.107 205.355
L257.33 234.293
L257.405 236.217
L257.628 250.917
L258.446 208.442
L258.595 202.095
L258.967 169.355
L259.042 168.86
L259.414 211.898
L259.711 249.189
L259.786 247.944
L259.86 246.562
L260.009 250.847
L260.158 229.512
L260.306 211.829
L260.455 224.858
L260.53 223.142
L260.827 213.857
L261.199 175.633
L261.646 214.433
L261.869 244.27
L262.018 222.14
L262.166 204.33
L262.315 221.253
L262.39 227.243
L262.538 219.766
L262.613 224.893
L262.762 253.681
L262.836 248.682
L262.985 213.615
L263.059 214.479
L263.134 221.621
L263.208 220.515
L263.357 208.892
L263.431 212.993
L263.654 242.127
L263.803 219.087
L263.952 234.858
L264.026 230.538
L264.25 164.574
L264.324 168.767
L264.473 178.329
L264.622 167.247
L264.696 175.691
L264.919 211.61
L264.994 208.143
L265.217 244.742
L265.366 225.169
L265.44 227.566
L265.589 238.268
L265.886 216.783
L266.11 194.469
L266.258 229.34
L266.333 226.702
L266.482 204.249
L266.705 241.286
L266.854 222.451
L266.928 225.492
L267.077 239.892
L267.3 219.882
L267.449 256.227
L267.523 252.022
L267.672 216.518
L267.821 244.638
L267.895 236.505
L268.118 169.839
L268.193 178.905
L268.267 177.039
L268.416 153.941
L268.49 162.408
L268.714 201.381
L268.788 192.683
L269.011 213.88
L269.16 198.489
L269.383 230.1
L269.532 209.364
L269.755 245.905
L269.83 243.025
L269.904 245.076
L270.127 276.641
L270.35 238.325
L270.425 249.062
L270.499 247.449
L270.722 202.198
L270.871 220.619
L271.02 190.414
L271.094 192.349
L271.169 206
L271.243 201.53
L271.466 133.493
L271.615 173.191
L271.764 151.13
L271.838 164.701
L271.987 237.15
L272.062 233.567
L272.136 216.875
L272.21 224.259
L272.359 281.744
L272.434 277.171
L272.582 247.391
L272.731 264.637
L272.806 255.813
L272.954 221.552
L273.103 261.872
L273.178 257.402
L273.326 208.972
L273.401 214.732
L273.475 233.832
L273.55 231.782
L273.773 183.502
L273.847 196.45
L273.922 194.561
L274.07 163.434
L274.294 195.24
L274.442 169.436
L274.517 178.836
L274.666 221.483
L274.74 220.262
L274.814 214.099
L274.889 220.008
L275.038 247.887
L275.261 199.007
L275.335 214.352
L275.484 239.731
L275.633 225.665
L275.856 255.674
L276.005 241.85
L276.079 242.818
L276.154 238.371
L276.377 202.844
L276.451 205.447
L276.526 203.189
L276.674 182.326
L276.898 209.71
L276.972 208.005
L277.046 208.834
L277.121 208.454
L277.493 177.085
L277.567 177.166
L277.716 200.666
L278.088 267.886
L278.609 221.045
L278.758 236.666
L278.832 235.699
L278.981 214.398
L279.055 217.416
L279.204 232.254
L279.278 231.851
L279.65 207.152
L279.874 181.186
L280.022 188.478
L280.097 185.736
L280.171 187.28
L280.32 208.454
L280.469 186.197
L280.543 193.409
L280.692 225.146
L280.915 190.229
L281.064 210.343
L281.138 209.802
L281.213 206.795
L281.287 210.251
L281.585 251.631
L281.659 249.742
L281.734 252.011
L281.808 259.603
L281.882 257.356
L282.106 217.29
L282.254 237.07
L282.478 222.958
L282.552 226.287
L282.626 225.941
L282.924 194.929
L283.073 205.113
L283.222 215.412
L283.37 204.03
L283.519 187.119
L283.668 178.433
L283.742 178.513
L284.114 231.655
L284.263 231.379
L284.412 238.475
L284.635 210.931
L284.71 211.219
L285.082 218.845
L285.379 228.418
L285.454 227.854
L285.528 227.877
L285.677 230.941
L286.198 200.517
L286.272 201.334
L286.57 225.55
L286.644 225.066
L286.867 211.242
L287.09 196.819
L287.165 196.888
L287.537 219.571
L287.611 218.718
L287.686 214.859
L287.76 214.882
L287.834 214.744
L287.909 212.728
L288.058 196.093
L288.132 197.671
L288.504 241.309
L288.802 263.715
L289.174 212.129
L289.248 215.884
L289.397 228.36
L289.694 199.756
L289.992 163.272
L290.215 180.656
L290.513 238.947
L290.587 238.175
L290.662 237.53
L290.736 235.342
L291.034 212.728
L291.182 207.106
L291.257 206.438
L291.331 204.111
L291.406 207.083
L291.778 254.534
L291.852 253.105
L292.224 208.857
L292.373 212.44
L292.447 212.912
L292.522 212.451
L292.67 218.753
L292.745 213.834
L292.968 176.659
L293.117 184.308
L293.191 183.455
L293.266 187.902
L293.414 212.774
L293.489 209.571
L293.638 203.581
L293.861 229.466
L294.084 254.684
L294.233 254.96
L294.382 250.675
L294.754 227.519
L294.902 216.541
L295.2 182.545
L295.349 189.492
L295.646 222.428
L295.87 184.262
L295.944 185.575
L296.316 224.939
L296.39 222.9
L296.614 209.56
L296.688 209.779
L296.762 210.746
L296.986 233.89
L297.06 232.669
L297.283 217.762
L297.432 219.317
L297.581 230.008
L297.73 244.684
L297.878 247.034
L297.953 249.235
L298.102 224.95
L298.25 207.924
L298.325 209.514
L298.622 228.268
L298.697 221.253
L298.92 184.423
L299.143 188.962
L299.292 191.185
L299.441 187.073
L299.59 176.901
L299.664 183.306
L300.036 251.458
L300.11 254.614
L300.185 253.198
L300.706 208.085
L301.003 235.019
L301.078 231.194
L301.301 212.808
L301.375 216.645
L301.45 215.493
L301.598 218.361
L301.673 217.612
L301.896 190.033
L301.97 196.035
L302.268 242.069
L302.342 239.8
L302.714 198.213
L302.789 198.731
L302.863 197.671
L302.938 198.04
L303.012 199.526
L303.086 195.862
L303.235 182.799
L303.31 184.331
L303.458 205.885
L303.83 256.861
L303.905 258.485
L304.351 205.274
L304.649 223.096
L304.723 220.423
L304.872 209.237
L305.17 221.103
L305.244 219.536
L305.393 206.91
L305.616 186.186
L306.062 222.22
L306.137 217.946
L306.211 213.891
L306.286 214.398
L306.509 225.008
L306.732 239.201
L306.806 238.21
L307.104 214.767
L307.327 250.099
L307.402 248.751
L307.476 243.59
L307.848 158.492
L307.922 161.003
L308.294 243.647
L308.369 238.06
L308.592 199.687
L308.741 197.176
L308.815 201.922
L309.113 237.853
L309.41 225.665
L309.782 208.696
L310.006 183.513
L310.154 192.303
L310.526 261.377
L310.675 229.294
L310.898 196.738
L310.973 196.312
L311.196 222.082
L311.345 242.507
L311.494 216.702
L311.717 189.169
L311.791 184.078
L311.866 188.075
L312.163 219.202
L312.312 216.622
L312.461 207.878
L312.535 211.138
L312.758 235.399
L312.833 235.054
L312.907 232.289
L313.13 212.486
L313.205 211.772
L313.428 227.324
L313.502 225.169
L313.577 226.183
L313.651 228.637
L313.8 219.755
L314.023 211.219
L314.172 219.283
L314.246 224.847
L314.395 217.036
L314.693 174.216
L314.767 181.589
L315.214 244.12
L315.288 243.578
L315.66 207.509
L315.734 206.899
L315.958 215.907
L316.032 215.112
L316.255 205.758
L316.404 216.299
L316.627 237.381
L316.702 238.152
L316.776 234.155
L316.999 214.582
L317.222 225.987
L317.297 224.904
L317.371 223.706
L317.52 230.146
L317.966 186.981
L318.19 199.653
L318.264 197.775
L318.413 196.289
L318.562 207.302
L318.859 242.242
L318.934 241.413
L319.231 219.064
L319.454 229.95
L319.529 230.434
L319.678 234.063
L319.975 193.512
L320.05 194.803
L320.422 223.557
L320.496 221.725
L320.719 205.482
L320.794 205.159
L320.942 203.235
L321.166 219.237
L321.314 225.711
L321.389 223.591
L321.538 214.26
L321.612 215.251
L321.686 214.859
L321.761 215.043
L321.835 217.036
L321.984 232.853
L322.058 228.28
L322.282 193.397
L322.356 193.524
L322.505 225.688
L322.654 251.193
L322.802 239.662
L323.1 210.009
L323.323 223.188
L323.398 224.478
L323.844 191.623
L324.067 206.783
L324.142 205.724
L324.29 203.339
L324.365 204.157
L324.514 201.45
L324.737 205.447
L324.886 211.99
L325.034 222.174
L325.258 229.224
L325.481 265.789
L325.555 267.275
L325.63 266.077
L326.076 204.526
L326.225 181.324
L326.299 183.755
L326.448 200.263
L326.522 198.938
L326.671 187.545
L326.746 193.524
L326.894 228.602
L326.969 227.37
L327.192 199.733
L327.341 219.605
L327.415 218.373
L327.638 178.375
L327.713 183.352
L328.01 240.952
L328.308 217.382
L328.382 217.555
L328.606 211.219
L328.68 212.163
L329.126 248.693
L329.201 248.186
L329.424 224.732
L329.647 200.597
L329.796 196.127
L330.094 216.829
L330.168 215.435
L330.317 209.191
L330.466 198.973
L330.54 200.367
L330.986 227.842
L331.061 228.383
L331.135 225.964
L331.358 199.284
L331.879 226.552
L331.954 225.457
L332.177 215.792
L332.251 218.442
L332.326 215.009
L332.549 179.884
L332.846 220.561
L333.144 246.228
L333.218 247.679
L333.442 215.838
L333.59 202.901
L333.739 205.021
L333.814 203.973
L333.888 205.24
L334.037 225.48
L334.111 225.296
L334.26 195.39
L334.334 198.282
L334.558 232.911
L334.781 222.888
L334.93 232.577
L335.004 226.437
L335.227 187.96
L335.525 218.626
L335.599 217.9
L335.822 230.204
L335.897 226.517
L335.971 226.84
L336.046 226.483
L336.12 227.266
L336.269 224.248
L336.566 180.725
L336.715 193.697
L336.938 222.911
L337.236 202.97
L337.31 205.804
L337.608 244.108
L337.682 241.747
L337.906 231.125
L338.054 227.75
L338.129 227.957
L338.203 230.399
L338.278 229.512
L338.501 198.005
L338.724 220.734
L338.947 202.014
L339.022 205.919
L339.245 226.149
L339.542 197.763
L339.617 197.971
L340.063 226.195
L340.435 202.774
L340.51 201.922
L340.733 189.492
L341.105 240.906
L341.179 238.556
L341.254 239.109
L341.328 238.832
L341.402 241.896
L341.477 241.873
L341.7 209.825
L341.774 201.576
L341.849 202.245
L342.072 224.501
L342.146 219.432
L342.221 219.962
L342.295 217.497
L342.518 227.301
L342.742 214.318
L342.965 194.227
L343.188 205.597
L343.262 204.214
L343.486 209.813
L343.56 202.406
L343.634 203.35
L343.858 227.784
L344.155 206.334
L344.23 210.044
L344.453 231.436
L344.676 220.158
L344.75 221.183
L344.974 240.526
L345.42 197.567
L345.494 200.839
L345.569 200.056
L345.718 193.973
L345.866 203.132
L346.09 238.302
L346.387 205.516
L346.462 195.505
L346.536 197.51
L346.759 233.878
L346.834 231.079
L346.982 224.57
L347.057 225.78
L347.28 236.701
L347.726 195.724
L347.875 208.5
L347.95 206.691
L348.098 191.577
L348.173 194.492
L348.396 239.5
L348.842 208.385
L348.917 206.288
L348.991 207.002
L349.214 221.16
L349.363 215.47
L349.438 216.886
L349.586 224.374
L349.735 216.506
L349.81 212.014
L349.958 196.45
L350.182 214.271
L350.33 209.629
L350.405 210.885
L350.628 229.443
L350.851 243.705
L350.926 240.134
L351.149 205.989
L351.223 206.081
L351.446 219.052
L351.521 216.529
L351.818 171.048
L351.893 175.276
L352.265 229.34
L352.339 228.176
L352.414 226.045
L352.488 226.794
L352.786 239.984
L353.009 227.589
L353.232 244.339
L353.455 225.503
L353.827 175.103
L353.902 178.755
L354.348 221.782
L354.422 222.37
L354.943 205.631
L355.018 207.567
L355.166 232.438
L355.315 253.37
L355.687 208.35
L355.836 222.405
L355.985 232.22
L356.134 214.836
L356.282 202.786
L356.357 203.523
L356.654 210.62
L356.729 209.594
L356.952 204.261
L357.026 206.565
L357.473 237.104
L357.547 238.429
L357.845 213.695
L357.919 214.306
L357.994 214.963
L358.142 209.548
L358.291 215.746
L358.366 213.857
L358.514 203.903
L358.663 210.516
L358.738 210.159
L358.812 207.29
L358.886 207.682
L359.184 232.6
L359.258 229.881
L359.407 224.697
L359.482 226.149
L359.705 223.027
L360.002 176.578
L360.077 178.963
L360.449 238.486
L360.598 253.854
L360.746 241.528
L361.118 201.381
L361.193 203.777
L361.416 223.05
L361.937 210.136
L362.16 190.126
L362.234 192.372
L362.755 230.722
L363.053 213.857
L363.202 213.592
L363.425 226.068
L363.722 238.003
L363.946 231.39
L364.094 222.347
L364.318 206.357
L364.392 206.426
L364.838 181.75
L365.062 200.113
L365.434 237.3
L365.582 242.3
L365.657 242.023
L365.88 234.328
L365.954 232.68
L366.773 177.58
L366.922 181.186
L367.294 227.174
L367.517 252.334
L367.591 252.794
L367.889 245.445
L368.112 223.81
L368.186 224.559
L368.261 222.739
L368.558 190.886
L368.633 190.966
L369.079 221.817
L369.154 219.939
L369.377 205.205
L369.6 218.776
L369.898 195.206
L369.972 195.989
L370.121 210.677
L370.195 208.177
L370.27 206.599
L370.642 238.774
L370.865 220.342
L370.939 220.665
L371.088 221.276
L371.162 220.596
L371.609 197.567
L371.683 199.894
L371.832 218.384
L372.055 244.223
L372.13 246.516
L372.204 245.502
L372.799 211.656
L373.171 202.636
L373.394 194.987
L373.618 203.247
L373.766 193.109
L373.99 199.653
L374.287 209.525
L374.362 212.29
L374.436 212.255
L374.585 207.014
L374.808 231.045
L375.106 263.324
L375.478 227.888
L375.552 229.27
L375.701 234.777
L375.924 200.597
L376.073 186.854
L376.147 187.868
L376.668 211.99
L376.742 212.394
L376.891 208.742
L377.189 230.895
L377.263 229.939
L377.412 220.654
L377.635 206.38
L377.784 209.491
L378.007 206.611
L378.156 211.426
L378.379 239.132
L378.602 211.806
L378.677 212.348
L378.826 215.377
L378.974 222.255
L379.049 220.711
L379.421 202.821
L379.718 215.389
L379.793 216.011
L379.867 215.631
L379.942 216.322
L380.016 215.573
L380.239 202.498
L380.388 215.078
L380.611 235.48
L380.834 233.625
L381.132 215.608
L381.355 171.21
L381.504 187.165
L381.653 204.572
L381.95 261.192
L382.174 244.408
L382.694 183.951
L382.769 186.024
L383.141 236.171
L383.29 233.372
L383.438 235.71
L383.587 225.941
L383.959 184.158
L384.331 233.498
L384.406 230.607
L384.554 216.253
L384.778 182.361
L384.852 182.776
L385.522 236.655
L385.819 212.267
L386.266 225.112
L386.489 250.997
L386.638 248.048
L387.084 228.798
L387.53 188.248
L387.605 189.434
L387.902 207.705
L388.126 192.925
L388.274 200.966
L388.349 200.897
L388.423 199.814
L388.646 188.409
L388.721 191.208
L389.167 250.79
L389.242 249.315
L389.614 210.493
L389.688 210.527
L389.837 208.373
L389.911 205.689
L389.986 208.834
L390.283 260.847
L390.358 259.557
L390.506 245.26
L390.878 197.66
L390.953 200.436
L391.027 200.01
L391.176 195.344
L391.325 209.744
L391.474 217.762
L391.771 200.079
L391.846 200.47
L391.92 199.514
L392.069 195.609
L392.143 196.819
L392.366 221.852
L392.59 252.472
L392.738 240.295
L393.11 207.29
L393.334 195.068
L393.408 197.51
L393.557 217.612
L393.78 253.578
L393.854 250.571
L394.078 212.555
L394.301 187.683
L394.375 187.856
L394.45 189.215
L394.598 200.229
L394.896 232.899
L395.714 184.723
L395.863 201.899
L396.161 246.424
L396.31 245.398
L396.458 236.194
L396.905 198.8
L396.979 196.692
L397.054 191.116
L397.128 195.505
L397.426 280.258
L397.5 278.645
L397.723 228.268
L398.021 172.949
L398.095 172.926
L398.393 193.904
L398.69 220.066
L398.765 219.617
L398.914 203.638
L399.062 190.126
L399.211 195.137
L399.509 228.142
L399.732 254.43
L399.806 254.603
L399.881 253.958
L399.955 250.698
L400.178 214.225
L400.402 182.453
L400.55 179.93
L400.625 178.836
L400.699 179.723
L400.922 211.726
L401.146 252.069
L401.22 251.976
L401.443 238.371
L401.518 241.401
L401.666 250.225
L402.038 230.469
L402.187 233.936
L402.262 231.701
L402.782 187.545
L403.08 142.525
L403.154 143.193
L403.303 163.1
L403.824 250.49
L403.973 260.282
L404.047 255.766
L404.419 194.008
L404.494 199.249
L404.717 266.641
L404.94 304.427
L405.089 276.721
L405.535 114.324
L405.61 117.561
L405.758 160.116
L406.056 256.193
L406.13 258.358
L406.428 230.803
L406.577 235.146
L406.651 235.019
L406.8 237.749
L407.098 259.222
L407.246 235.768
L407.618 137.398
L407.767 126.282
L407.842 126.984
L407.99 152.812
L408.437 268.876
L408.883 224.824
L409.181 189.411
L409.33 202.429
L409.776 264.291
L409.85 259.176
L410.297 193.708
L410.446 210.355
L410.743 241.758
L410.966 239.915
L411.19 213.235
L411.562 180.161
L411.636 179.308
L411.71 182.373
L412.082 225.319
L412.157 224.167
L412.529 197.095
L412.603 198.362
L413.05 227.715
L413.198 232.116
L413.273 232.646
L413.347 232.323
L413.496 229.72
L413.57 229.927
L413.645 228.015
L413.794 210.044
L413.942 195.252
L414.017 195.736
L414.166 209.537
L414.463 246.666
L414.538 248.129
L414.686 236.113
L415.058 184.872
L415.207 168.364
L415.282 170.668
L415.951 240.906
L416.174 249.166
L416.249 248.325
L416.398 252.264
L416.621 242.035
L416.918 218.303
L417.514 150.819
L417.662 167.293
L418.183 252.783
L418.258 256.262
L418.63 236.136
L418.778 232.922
L418.853 235.676
L419.076 258.508
L419.299 249.269
L419.522 208.523
L419.82 141.857
L419.894 144.91
L420.043 164.666
L420.415 235.837
L420.713 219.041
L420.787 220.089
L420.862 222.854
L420.936 221.84
L421.01 218.949
L421.085 220.988
L421.308 239.535
L421.382 237.818
L421.68 218.108
L421.754 217.992
L421.903 228.787
L422.126 246.401
L422.275 244.65
L422.35 242.38
L422.945 178.433
L423.019 178.94
L423.094 181.486
L423.391 208.408
L423.614 196.796
L423.689 198.904
L424.135 232.934
L424.21 232.323
L424.582 218.2
L424.656 217.347
L424.73 218.038
L424.879 221.149
L424.954 219.778
L425.102 214.847
L425.4 230.158
L425.474 229.501
L425.549 227.577
L425.772 215.182
L425.846 216.495
L425.921 220.435
L425.995 220.4
L426.07 220.02
L426.144 218.338
L426.293 224.363
L426.367 224.052
L426.59 202.256
L426.665 204.214
L426.739 203.696
L426.888 195.655
L426.962 198.282
L427.186 223.395
L427.334 215.343
L427.409 217.255
L427.632 225.711
L427.706 225.492
L427.855 216.575
L428.078 203.512
L428.525 220.054
L428.599 221.921
L428.674 218.326
L428.822 198.501
L428.897 199.537
L429.046 206.518
L429.12 206.818
L429.492 248.613
L429.566 247.53
L429.641 246.147
L429.79 237.404
L430.013 219.709
L430.087 218.949
L430.236 207.233
L430.534 169.551
L430.682 182.591
L431.203 244.846
L431.278 247.979
L431.352 247.702
L431.724 217.359
L432.022 171.164
L432.096 172.396
L432.766 257.852
L432.84 256.285
L433.063 240.157
L433.286 233.867
L433.361 235.169
L433.435 233.614
L433.584 219.098
L433.807 190.321
L433.956 185.287
L434.328 192.522
L434.477 216.069
L434.7 244.293
L434.849 234.915
L435.295 193.823
L435.444 184.538
L435.518 186.151
L435.742 208.131
L436.262 265.962
L436.337 265.351
L436.783 225.388
L436.932 207.843
L437.081 217.566
L437.527 252.84
L437.676 219.398
L438.048 96.1454
L438.271 138.862
L438.643 210.274
L438.866 225.388
L439.015 257.114
L439.313 332.87
L439.387 338.296
L439.536 317.686
L439.834 217.186
L440.131 104.97
L440.206 102.977
L440.354 127.791
L440.801 252.61
L440.95 262.218
L441.396 222.163
L441.47 221.921
L441.545 222.808
L441.694 232.669
L441.917 259.66
L441.991 259.246
L442.214 194.238
L442.438 151.568
L442.586 148.792
L442.735 163.042
L443.182 232.185
L443.554 248.371
L443.851 228.821
L444.149 193.8
L444.298 187.246
L444.372 189.757
L445.19 255.133
L445.265 253.474
L445.562 227.347
L445.637 229.27
L445.934 241.689
L446.009 237.185
L446.455 148.204
L446.604 143.458
L446.753 159.079
L447.125 224.536
L447.422 276.168
L447.497 276.848
L447.72 254.753
L448.315 204.272
L448.613 182.142
L448.687 183.329
L449.059 205.919
L449.282 196.381
L449.506 204.871
L449.58 202.694
L449.803 187.603
L449.878 192.418
L449.878 192.418" style="fill:none;stroke:#808080;stroke-linecap:square;"/>
   </g>
  </g>
 </g>
 <defs>
  <clipPath id="p7ff5b81e1d">
   <rect height="345.6" width="446.4" x="72.0" y="43.2"/>
  </clipPath>
 </defs>
</svg>
