<?xml version="1.0" encoding="utf-8" standalone="no"?>
<!DOCTYPE svg PUBLIC "-//W3C//DTD SVG 1.1//EN"
  "http://www.w3.org/Graphics/SVG/1.1/DTD/svg11.dtd">
<!-- Created with matplotlib (http://matplotlib.org/) -->
<svg height="432pt" version="1.1" viewBox="0 0 576 432" width="576pt" xmlns="http://www.w3.org/2000/svg" xmlns:xlink="http://www.w3.org/1999/xlink">
 <defs>
  <style type="text/css">
*{stroke-linecap:butt;stroke-linejoin:round;}
  </style>
 </defs>
 <g id="figure_1">
  <g id="patch_1">
   <path d="
M0 432
L576 432
L576 0
L0 0
z
" style="fill:#ffffff;"/>
  </g>
  <g id="axes_1">
   <g id="line2d_1">
    <path clip-path="url(#p7ff5b81e1d)" d="
M72 223.155
L72.2976 250.915
L72.8184 212.899
L72.9672 209.841
L73.0416 210.04
L73.1904 211.785
L73.2648 211.37
L73.3392 209.841
L73.488 215.906
L73.7112 233.886
L73.86 230.732
L74.232 197.581
L74.4552 174.616
L74.5296 167.833
L74.604 169.751
L75.348 238.586
L75.4968 239.372
L75.6456 232.538
L75.72 233.54
L75.8688 238.629
L75.9432 236.668
L76.092 226.749
L76.1664 226.827
L76.2408 230.568
L76.464 212.735
L76.5384 214.895
L76.6872 223.613
L76.836 209.443
L77.0592 187.515
L77.1336 187.861
L77.2824 199.914
L77.3568 197.226
L77.4312 193.503
L77.5056 194.168
L77.6544 211.655
L77.952 261.085
L78.1752 250.708
L78.696 196.008
L78.8448 197.581
L79.1424 179.566
L79.2168 179.635
L79.3656 190.98
L79.5888 207.266
L79.8864 223.432
L80.1096 212.658
L80.2584 208.528
L80.4072 218.559
L80.8536 261.387
L81.0024 256.462
L81.0768 255.832
L81.5232 209.461
L81.7464 180.353
L81.8952 185.018
L81.9696 189.01
L82.2672 222.352
L82.4904 231.977
L82.788 217.548
L83.0112 192.621
L83.3832 215.042
L83.6064 235.389
L83.6808 233.497
L83.904 212.416
L84.3504 188.362
L84.4248 190.228
L85.02 234.975
L85.1688 235.674
L85.392 212.01
L85.4664 214.964
L85.5408 216.96
L85.764 207.612
L85.8384 209.167
L86.136 225.453
L86.2104 224.088
L86.2848 223.622
L86.4336 229.169
L86.5824 224.935
L86.88 209.694
L86.9544 209.729
L87.4008 239.07
L87.4752 240.928
L87.624 236.841
L87.8472 218.723
L88.0704 195.93
L88.2936 204.199
L88.368 204.398
L88.5168 203.387
L88.8144 187.627
L88.9632 192.76
L89.4096 227.484
L89.484 228.089
L89.6328 222.732
L89.7816 216.07
L89.856 216.217
L90.0792 218.775
L90.228 218.032
L90.3768 212.934
L90.6 220.554
L90.8976 245.723
L90.972 245.446
L91.0464 245.68
L91.1208 247.071
L91.2696 240.046
L92.0136 169.06
L92.2368 191.576
L92.6088 229.514
L92.6832 231.527
L92.7576 230.326
L92.9064 224.183
L92.9808 224.555
L93.204 218.265
L93.4272 240.712
L93.6504 251.131
L93.8736 230.732
L94.2456 181.398
L94.32 184.638
L94.4688 203.732
L94.6176 213.556
L94.7664 205.555
L94.8408 206.99
L94.9896 209.746
L95.2128 212.632
L95.2872 210.489
L95.436 197.062
L95.5104 199.421
L95.5848 198.332
L95.6592 197.857
L95.7336 198.306
L95.9568 217.695
L96.3288 265.802
L96.4032 261.422
L96.8496 231.821
L97.2216 192.086
L97.3704 191.256
L97.668 211.396
L97.8168 208.113
L97.8912 209.556
L97.9656 213.478
L98.04 212.727
L98.2632 190.271
L98.412 196.362
L98.6352 208.916
L98.784 205.685
L98.9328 199.222
L99.0816 218.706
L99.3792 258.804
L99.4536 259.132
L99.9744 192.889
L100.049 195.645
L100.272 215.267
L100.495 230.534
L100.57 231.475
L100.793 222.74
L101.239 193.529
L101.834 234.629
L102.281 220.615
L102.43 223.466
L102.578 218.178
L102.653 219.086
L102.727 221.98
L102.802 221.306
L102.876 221.401
L102.95 218.299
L103.322 186.038
L103.397 180.266
L103.471 181.113
L103.62 195.516
L103.843 215.578
L104.141 230.344
L104.215 229.765
L104.587 205.65
L104.662 205.987
L104.736 211.482
L104.81 208.407
L104.959 198.764
L105.034 198.756
L105.182 212.165
L105.48 243.217
L105.778 232.91
L105.852 233.566
L105.926 234.845
L106.15 229.583
L106.373 246.241
L106.447 243.597
L106.522 240.323
L107.117 181.545
L107.191 183.333
L107.414 196.898
L107.489 196.207
L107.638 201.788
L107.786 213.798
L107.861 211.845
L107.935 207.992
L108.084 213.755
L108.307 207.111
L108.382 210.005
L108.679 232.599
L108.754 232.797
L108.902 252.134
L109.051 264.783
L109.126 261.283
L109.646 181.865
L109.721 185.467
L109.795 184.327
L109.944 180.923
L110.018 181.268
L110.167 194.92
L110.242 205.512
L110.316 204.596
L110.39 199.784
L110.465 201.788
L110.762 225.013
L110.986 241.282
L111.06 241.377
L111.283 253.914
L112.102 204.735
L112.176 207.206
L112.399 229.108
L112.474 228.953
L112.622 212.018
L112.846 183.368
L112.994 186.858
L113.218 174.011
L113.292 175.151
L113.664 223.129
L113.887 246.941
L113.962 245.697
L114.259 223.388
L114.408 214.602
L114.854 222.801
L114.929 228.33
L115.003 227.838
L115.226 202.566
L115.301 203.058
L115.375 198.393
L115.45 200.613
L115.673 209.081
L116.119 267.245
L116.194 262.994
L116.64 205.417
L116.863 190.911
L116.938 191.187
L117.012 191.291
L117.086 191.965
L117.235 200.752
L117.384 208.32
L117.533 207.862
L117.756 191.749
L117.83 195.153
L117.905 195.213
L117.979 196.518
L118.723 264.955
L118.872 234.975
L119.17 170.313
L119.244 166.693
L119.467 179.324
L119.914 231.786
L120.062 242.025
L120.434 219.708
L120.583 241.627
L120.732 260.368
L120.806 260.99
L120.955 247.857
L121.476 196.838
L121.55 192.76
L121.625 195.473
L121.699 195.369
L121.774 195.939
L121.997 205.227
L122.146 203.879
L122.592 175.713
L122.666 177.838
L122.741 175.549
L122.815 177.769
L123.038 236.694
L123.262 287.247
L123.336 288.188
L123.931 179.73
L124.006 181.804
L124.378 225.073
L124.526 232.011
L124.75 218.706
L125.047 192.215
L125.122 192.63
L125.27 210.057
L125.642 248.825
L125.717 248.194
L126.238 207.914
L126.61 234.594
L126.684 234.275
L126.833 223.483
L127.428 153.491
L127.651 200.19
L127.949 274.122
L128.023 277.985
L128.172 259.918
L128.693 154.631
L128.767 158.649
L128.99 196.371
L129.362 276.447
L129.437 274.062
L129.586 256.626
L129.883 220.166
L130.032 217.003
L130.181 218.101
L130.255 217.53
L130.553 223.838
L130.776 219.129
L131.222 189.399
L131.297 190.09
L131.594 210.99
L131.966 160.394
L132.041 161.189
L132.19 185.148
L132.636 312.882
L132.71 308.691
L132.934 248.315
L133.231 150
L133.38 139.14
L133.454 141.438
L133.678 179.921
L133.975 234.007
L134.05 233.61
L134.422 216.692
L134.496 221.211
L134.868 283.022
L135.166 268.195
L135.314 250.743
L135.835 170.555
L135.91 167.73
L136.133 181.009
L136.207 180.776
L136.505 149.992
L136.579 142.25
L136.654 144.393
L136.802 166.269
L137.249 307.024
L137.323 298.695
L137.918 164.714
L137.993 168.066
L138.29 219.587
L138.588 269.656
L139.109 227.544
L139.406 241.93
L139.555 235.225
L140.076 186.314
L140.225 174.417
L140.299 175.955
L140.448 184.37
L140.522 183.852
L140.671 182.037
L140.82 184.923
L140.969 178.962
L141.043 181.623
L141.266 211.914
L141.564 269.656
L141.862 260.843
L142.01 233.376
L142.308 171.125
L142.457 167.565
L142.606 182.219
L142.754 197.71
L143.052 248.548
L143.275 258.614
L143.35 261.474
L143.424 258.899
L143.945 202.212
L144.317 238.146
L144.391 234.448
L144.54 220.261
L144.614 220.157
L145.061 194.816
L145.135 195.887
L145.284 188.716
L145.507 181.026
L145.582 181.519
L145.656 180.914
L145.73 178.434
L145.805 178.616
L145.954 190.332
L146.326 246.665
L146.623 215.051
L146.846 191.109
L146.921 192.293
L147.739 285.743
L147.814 281.164
L148.483 174.616
L148.558 176.067
L148.706 187.074
L148.93 209.487
L149.153 233.73
L149.302 218.127
L149.525 190.306
L149.897 175.514
L150.12 190.703
L150.418 237.567
L150.641 261.042
L150.715 261.862
L150.79 259.391
L151.087 225.479
L151.608 182.858
L151.682 179.048
L151.831 197.494
L152.129 243.891
L152.203 245.118
L152.352 239.804
L152.426 239.969
L152.575 236.547
L152.873 222.196
L153.022 220.71
L153.17 223.362
L153.319 220.866
L153.542 235.795
L153.617 235.502
L153.766 232.443
L154.063 203.197
L154.361 156.057
L154.435 151.02
L154.51 153.94
L154.807 190.617
L154.882 191.896
L155.03 218.325
L155.254 251.926
L155.328 255.797
L155.477 245.334
L155.7 211.059
L155.849 196.829
L155.923 197.287
L156.072 205.564
L156.146 204.458
L156.221 204.424
L156.37 224.589
L156.667 260.981
L157.262 225.54
L157.486 214.386
L157.56 214.178
L157.634 216.425
L157.709 216.243
L157.858 206.99
L157.932 207.577
L158.006 208.847
L158.23 221.22
L158.304 218.999
L158.378 220.399
L158.453 213.928
L158.825 143.408
L158.899 144.799
L159.122 184.75
L159.494 271.116
L159.643 284.076
L159.718 282.944
L159.866 250.535
L160.238 148.912
L160.313 148.229
L160.536 166.105
L161.131 280.015
L161.206 282.918
L161.28 282.762
L161.429 264.143
L161.801 215.319
L161.875 211.612
L162.098 218.852
L162.247 237.1
L162.322 235.363
L162.842 189.312
L163.214 147.676
L163.289 148.324
L163.363 152.54
L164.033 249.706
L164.182 252.402
L164.256 248.505
L164.851 179.506
L165.149 208.407
L165.595 306.669
L165.67 308.138
L166.339 191.42
L166.414 189.373
L166.711 215.586
L166.86 221.704
L166.934 218.187
L167.083 184.992
L167.455 123.519
L167.604 116.218
L167.753 132.763
L168.422 319.863
L168.497 313.132
L168.794 232.892
L169.166 153.724
L169.241 154.795
L169.464 176.836
L169.91 282.728
L169.985 285.285
L170.059 278.425
L170.431 200.009
L170.58 189.139
L170.729 196.57
L171.25 257.81
L171.324 257.715
L171.696 203.24
L171.994 158.053
L172.068 160.904
L172.886 252.298
L173.035 229.16
L173.482 146.674
L173.556 144.877
L173.63 151.4
L174.226 276.213
L174.523 297.295
L174.672 300.924
L174.746 300.371
L175.044 262.001
L175.565 163.669
L175.788 138.354
L176.011 129.878
L176.086 126.188
L176.309 102.722
L176.383 105.884
L176.606 186.858
L176.978 352.289
L177.202 381.863
L177.276 376.083
L177.425 323.889
L178.02 64.5852
L178.094 62.3042
L178.243 84.0079
L178.541 192.82
L178.913 289.113
L179.062 295.239
L179.285 278.252
L179.359 279.825
L179.731 309.737
L179.806 310.739
L180.029 276.213
L180.401 140.695
L180.698 56.2562
L180.773 54.1913
L180.922 76.111
L181.219 190.107
L181.517 291.377
L181.591 301.641
L181.666 299.308
L181.963 240.133
L182.186 196.138
L182.261 192.034
L182.335 194.116
L182.782 242.638
L183.079 287.445
L183.154 287.419
L183.302 274.796
L183.749 174.097
L183.823 177.32
L184.27 245.006
L185.088 133.187
L185.162 136.548
L185.311 142.561
L185.46 165.172
L185.683 241.515
L185.906 308.924
L185.981 309.002
L186.13 264.904
L186.427 167.401
L186.502 159.841
L186.576 160.714
L186.799 198.989
L187.32 293.874
L187.543 263.573
L187.915 214.437
L188.138 195.412
L188.213 196.25
L188.659 248.548
L188.734 249.317
L188.882 241.351
L189.106 195.498
L189.403 126.992
L189.478 121.92
L189.626 132.677
L189.998 219.639
L190.222 261.456
L190.296 259.866
L190.445 235.666
L190.817 155.729
L190.891 152.869
L190.966 159.452
L191.784 340.754
L191.858 339.873
L192.007 318.256
L192.305 223.026
L192.528 168.801
L192.602 167.825
L192.677 168.481
L192.826 172.577
L193.123 195.352
L193.198 196.017
L193.272 193.857
L193.867 111.518
L193.942 116.27
L194.09 161.491
L194.611 327.881
L194.686 326.213
L194.834 304.976
L195.355 155.582
L195.43 162.442
L195.578 194.202
L195.95 278.849
L196.099 289.433
L196.248 279.142
L196.397 249.308
L196.694 158.459
L196.843 151.504
L197.141 206.946
L197.364 244.055
L197.438 247.779
L197.513 246.725
L197.736 225.954
L198.108 156.653
L198.182 155.037
L198.331 179.195
L198.778 264.869
L198.852 265.621
L198.926 264.23
L199.075 256.307
L199.298 191.472
L199.596 126.508
L199.67 130.629
L199.819 161.975
L200.266 277.362
L200.563 306.695
L200.638 302.583
L201.233 211.05
L201.307 213.193
L201.605 245.178
L201.977 187.273
L202.349 128.262
L202.498 109.608
L202.572 112.226
L202.721 125.99
L203.018 236.538
L203.242 294.228
L203.316 291.472
L203.837 197.615
L204.06 194.159
L204.134 197.304
L204.358 233.653
L204.655 291.558
L204.73 293.822
L204.878 302.237
L205.027 274.917
L205.474 195.507
L205.697 190.85
L205.92 215.059
L205.994 213.09
L206.218 178.763
L206.664 112.693
L206.813 125.782
L207.036 173.034
L207.482 322.506
L207.557 322.126
L207.706 303.429
L208.301 147.063
L208.375 148.687
L208.524 172.715
L208.97 269.535
L209.045 267.565
L209.268 256.229
L209.417 241.679
L209.863 199.248
L210.012 209.124
L210.384 246.042
L210.682 204.458
L211.054 129.61
L211.128 130.258
L211.426 187.653
L211.872 281.544
L212.021 266.243
L212.542 146.484
L212.616 142.38
L212.69 148.039
L212.914 215.042
L213.286 325.893
L213.434 333.419
L213.658 291.091
L214.03 189.485
L214.104 192.094
L214.327 207.819
L214.625 223.069
L214.848 207.638
L215.369 111.483
L215.518 128.806
L215.815 195.49
L216.113 263.115
L216.262 267.712
L216.485 240.962
L216.782 178.426
L216.857 170.339
L216.931 172.922
L217.08 203.706
L217.526 314.748
L217.601 321.21
L217.675 321.15
L217.824 306.972
L218.27 202.575
L218.419 197.036
L218.494 197.944
L218.717 214.956
L218.791 214.921
L218.94 205.348
L219.386 110.671
L219.461 111.898
L219.535 113.107
L219.61 112.295
L219.684 109.228
L219.833 138.163
L220.354 319.016
L220.428 315.862
L220.502 308.052
L221.098 159.824
L221.172 160.04
L221.321 182.521
L221.842 325.781
L221.916 328.218
L222.065 300.492
L222.586 176.75
L223.032 233.307
L223.106 228.313
L223.33 193.874
L223.776 109.755
L223.85 109.729
L223.999 128.729
L224.222 200.596
L224.594 297.321
L224.669 296.466
L224.892 259.46
L225.338 152.013
L225.413 154.45
L225.636 207.845
L226.008 322.42
L226.082 324.943
L226.157 322.083
L226.231 314.497
L226.752 181.217
L226.901 183.61
L227.347 216.805
L227.422 213.444
L227.719 156.86
L228.017 107.872
L228.166 123.303
L228.761 320.753
L228.835 320.424
L228.984 299.135
L229.579 141.118
L229.728 158.01
L230.323 302.842
L230.472 288.387
L230.918 195.352
L230.993 195.74
L231.142 203.992
L231.365 235.251
L231.514 255.892
L231.588 255.426
L231.662 251.287
L231.811 219.872
L232.258 85.2348
L232.332 86.5999
L232.481 114.395
L233.002 287.342
L233.076 287.834
L233.299 244.211
L233.671 166.166
L233.746 167.194
L233.894 194.807
L234.341 328.866
L234.415 328.485
L234.49 329.799
L234.638 308.112
L234.787 264.774
L235.159 156.022
L235.234 154.873
L235.308 157.69
L235.68 241.93
L235.754 242.604
L235.829 238.344
L235.978 207.422
L236.424 93.7884
L236.573 120.477
L237.168 280.058
L237.317 270.468
L237.912 155.91
L238.061 174.175
L238.656 331.613
L238.73 325.867
L239.474 187.455
L239.549 184.863
L239.772 202.419
L239.921 212.614
L240.218 190.228
L240.59 118.473
L240.665 115.691
L240.814 135.787
L241.483 275.66
L241.558 275.514
L241.632 270.468
L242.153 157.863
L242.376 217.254
L242.822 347.537
L242.897 345.273
L242.971 335.57
L243.566 149.663
L243.715 137.731
L243.864 153.37
L244.236 227.682
L244.534 195.084
L244.906 126.828
L245.278 216.079
L245.501 262.433
L245.65 277.587
L245.724 277.216
L245.873 246.57
L246.245 145.378
L246.319 144.453
L246.394 148.678
L246.989 343.519
L247.063 341.549
L247.212 314.886
L247.658 173.371
L247.807 170.114
L247.882 166.252
L247.956 169.829
L248.254 202.065
L248.328 208.545
L248.402 207.819
L248.774 173.397
L248.998 156.048
L249.295 194.885
L249.667 250.207
L249.742 249.343
L250.188 182.668
L250.337 178.46
L250.411 182.573
L250.634 230.586
L251.006 301.321
L251.155 314.117
L251.304 297.33
L251.453 276.766
L251.899 163.746
L251.974 162.217
L252.048 163.937
L252.197 183.834
L252.494 223.216
L252.569 224.779
L252.792 207.206
L253.164 130.69
L253.238 132.789
L253.387 160.481
L253.834 264.973
L253.908 270.157
L253.982 267.185
L254.578 170.779
L254.652 170.261
L254.801 196.458
L255.47 318.515
L256.14 178.314
L256.289 191.671
L256.586 235.087
L256.735 213.124
L257.182 126.715
L257.256 117.281
L257.33 122.102
L257.702 208.726
L257.926 246.31
L258 251.572
L258.074 249.092
L258.521 198.937
L258.67 181.165
L258.744 183.834
L259.042 240.392
L259.488 346.966
L259.562 342.785
L259.711 309.59
L260.306 135.762
L260.381 136.289
L261.05 200.026
L261.125 200.112
L261.348 178.642
L261.571 155.677
L261.646 159.513
L262.166 245.662
L262.315 269.5
L262.762 232.426
L263.059 208.873
L263.208 215.301
L263.357 231.579
L263.803 305.062
L263.952 284.015
L264.547 155.063
L264.622 158.925
L264.919 186.34
L264.994 185.943
L265.291 172.153
L265.514 151.987
L265.738 169.578
L266.184 275.151
L266.258 275.505
L266.779 191.429
L267.002 185.433
L267.077 186.461
L267.226 199.715
L267.449 245.118
L267.746 302.393
L267.821 306.263
L267.895 304.648
L268.044 287.428
L268.565 196.665
L268.788 183.714
L269.16 177.45
L269.383 163.15
L269.606 168.594
L269.681 168.352
L269.755 168.542
L269.904 183.428
L270.35 237.921
L270.499 251.088
L270.648 259.746
L270.871 225.963
L271.169 170.866
L271.466 193.606
L271.987 322.187
L272.062 325.902
L272.285 287.86
L272.657 205.434
L272.806 195.473
L272.954 194.617
L273.475 154.718
L273.773 108.33
L273.847 105.755
L273.922 109.124
L274.07 136.755
L274.442 254.043
L274.666 271.073
L274.889 285.951
L274.963 284.361
L275.112 264.066
L275.335 225.393
L275.41 221.177
L275.484 222.144
L276.005 273.207
L276.154 263.746
L276.377 229.929
L276.823 157.379
L276.898 155.901
L277.27 193.226
L277.493 211.508
L277.567 210.826
L278.088 160.092
L278.237 178.78
L278.46 212.277
L278.758 259.771
L278.832 257.249
L278.906 259.106
L279.055 241.515
L279.353 202.851
L279.65 229.747
L279.948 270.978
L280.171 316.009
L280.32 289.536
L280.99 149.24
L281.138 172.862
L281.213 172.412
L281.287 173.389
L281.51 191.723
L281.585 189.606
L282.031 154.528
L282.18 168.291
L282.552 229.229
L282.775 245.118
L282.924 248.012
L282.998 246.241
L283.445 187.99
L284.04 300.63
L284.189 323.172
L284.338 304.345
L284.858 193.148
L284.933 186.53
L285.007 187.213
L285.082 184.698
L285.305 148.946
L285.454 161.034
L285.602 145.784
L285.677 137.377
L285.751 137.645
L285.826 139.14
L285.9 138.388
L285.974 141.403
L286.123 168.127
L286.346 223.743
L286.57 239.545
L286.644 240.107
L286.867 258.968
L286.942 256.963
L287.239 217.479
L287.314 218.706
L287.388 216.848
L287.537 199.585
L287.611 202.929
L287.983 274.062
L288.355 298.591
L288.43 294.807
L288.578 259.521
L288.876 174.667
L289.099 165.198
L289.174 166.313
L289.546 188.457
L289.843 170.71
L290.066 150.622
L290.662 242.828
L290.736 244.176
L290.959 235.156
L291.257 205.59
L291.331 209.141
L291.406 208.044
L291.554 200.069
L291.629 203.188
L291.926 245.896
L292.373 319.102
L292.447 314.281
L292.67 237.178
L292.894 193.503
L293.117 205.434
L293.786 119.527
L293.861 123.761
L294.902 293.39
L294.977 292.923
L295.274 252.851
L295.498 206.739
L295.646 188.535
L295.721 191.991
L295.944 228.754
L296.242 305.814
L296.316 304.285
L296.614 261.439
L297.06 143.883
L297.134 134.673
L297.209 137.766
L297.73 179.428
L297.953 200.613
L298.102 191.766
L298.176 191.982
L298.474 220.917
L298.548 217.047
L298.622 215.405
L298.697 216.658
L298.846 233.368
L298.994 247.667
L299.292 217.142
L299.441 218.049
L299.738 232.625
L300.334 314.152
L300.408 307.81
L300.854 230.37
L301.226 149.836
L301.45 129.593
L301.524 126.759
L301.598 127.433
L301.747 131.813
L302.045 165.811
L302.342 204.398
L302.714 233.946
L302.938 240.461
L303.012 239.476
L303.086 236.21
L303.384 198.35
L303.458 197.14
L303.607 208.666
L304.351 316.89
L304.426 314.73
L304.574 285.596
L305.095 172.378
L305.17 167.202
L305.244 169.233
L305.542 181.372
L305.69 189.805
L305.765 188.828
L305.988 169.354
L306.062 169.492
L306.509 207.111
L306.658 209.979
L306.732 208.951
L307.253 177.164
L307.327 177.501
L307.402 179.169
L307.699 213.262
L308.294 344.659
L308.369 343.217
L308.666 277.881
L309.262 164.109
L309.336 164.36
L309.559 174.486
L309.782 149.724
L309.857 155.011
L309.931 149.499
L310.08 163.695
L310.75 241.066
L310.824 244.539
L310.898 242.612
L311.345 193.961
L311.419 190.703
L311.494 191.299
L311.568 191.766
L311.717 204.527
L312.163 320.148
L312.238 318.973
L312.461 296.301
L313.205 136.021
L313.428 122.663
L313.502 122.439
L313.726 139.969
L313.949 177.216
L314.47 283.955
L314.99 248.289
L315.66 181.674
L315.809 197.65
L316.33 276.991
L316.553 262.856
L316.702 241.558
L317.297 150.104
L317.52 141.343
L317.594 143.944
L318.041 195.853
L318.338 227.674
L318.562 238.638
L318.934 266.562
L319.008 266.442
L319.231 232.685
L319.454 197.062
L319.529 193.537
L319.603 196.051
L319.975 253.231
L320.198 294.997
L320.347 291.783
L320.57 260.558
L321.091 166.572
L321.389 139.805
L321.538 132.314
L321.612 133.636
L321.686 132.72
L321.91 157.154
L322.282 215.491
L322.43 219.621
L322.654 240.85
L322.728 240.409
L322.951 248.272
L323.398 220.9
L323.472 222.619
L323.621 242.578
L324.067 308.371
L324.142 307.939
L324.365 291.126
L324.514 256.998
L324.886 158.355
L325.183 131.467
L325.332 132.513
L325.406 134.837
L325.853 168.905
L326.002 173.449
L326.374 219.984
L326.746 286.478
L326.82 288.223
L326.894 294.841
L326.969 292.578
L327.49 170.952
L327.564 174.391
L328.234 288.707
L328.754 214.671
L329.052 151.434
L329.126 149.516
L329.647 183.385
L329.722 183.912
L329.87 204.19
L329.945 215.059
L330.019 214.152
L330.094 207.491
L330.242 222.36
L330.391 212.804
L330.614 202.575
L330.763 203.871
L330.986 225.92
L331.135 214.42
L331.656 242.785
L332.028 288.655
L332.102 292.137
L332.4 273.578
L332.474 272.412
L332.549 267.556
L332.772 214.982
L333.218 79.9903
L333.367 102.221
L333.739 223.198
L333.814 223.734
L333.888 225.885
L334.037 211.889
L334.26 180.62
L334.334 177.882
L335.004 259.46
L335.153 264.869
L335.227 262.458
L335.302 265.69
L335.748 317.694
L335.822 314.877
L335.971 292.508
L336.492 138.846
L336.566 141.274
L336.938 155.513
L337.013 153.378
L337.162 157.638
L337.236 157.094
L337.31 157.457
L337.534 163.919
L337.757 169.786
L338.054 213.245
L338.426 272.654
L338.501 276.334
L338.873 254.527
L339.096 220.157
L339.245 244.729
L339.468 278.373
L339.691 291.947
L339.84 284.266
L339.989 268.005
L340.658 118.145
L340.733 116.874
L340.956 119.708
L341.254 150.078
L342.221 289.631
L342.37 295.938
L342.518 283.16
L342.89 219.768
L342.965 219.423
L343.039 220.995
L343.337 234.888
L343.411 235.294
L343.634 250.069
L343.783 244.824
L344.155 213.893
L344.676 136.513
L344.825 154.787
L345.197 216.813
L345.346 218.092
L345.42 212.683
L345.643 181.156
L346.238 237.99
L346.536 250.76
L346.685 246.57
L346.834 250.855
L347.206 269.042
L347.429 293.286
L347.503 291.748
L347.652 270.114
L348.098 184.871
L348.396 128.374
L348.619 99.5081
L348.694 102.731
L349.363 242.915
L349.438 242.25
L349.884 221.488
L349.958 220.373
L350.033 224.849
L350.107 224.788
L350.33 218.965
L350.479 234.594
L351.074 307.611
L351.521 246.267
L351.818 165.734
L351.893 165.794
L351.967 169.164
L352.042 167.228
L352.339 149.37
L352.414 146.631
L352.711 120.279
L352.786 124.538
L353.083 184.146
L353.455 267.694
L353.53 267.055
L353.678 269.958
L353.976 248.462
L354.274 227.89
L354.422 237.748
L354.869 289.873
L354.943 289.467
L355.241 264.679
L355.985 130.431
L356.059 125.437
L356.134 126.759
L356.58 160.066
L356.654 157.128
L356.952 201.019
L357.473 285.104
L357.77 266.381
L358.291 202.549
L358.366 203.767
L358.589 231.717
L358.961 294.565
L359.035 293.433
L359.184 268.463
L359.63 165.803
L359.928 139.822
L360.151 126.482
L360.3 143.46
L360.672 243.269
L360.746 243.26
L361.118 209.85
L361.193 207.543
L361.267 208.122
L361.49 213.815
L361.714 237.86
L361.937 249.619
L362.011 247.84
L362.309 228.667
L362.383 230.015
L362.532 226.49
L362.681 249.576
L362.904 299.645
L363.053 287.411
L363.499 195.939
L363.946 88.1206
L364.02 88.9154
L364.243 132.815
L364.764 253.749
L364.987 262.847
L365.062 263.754
L365.136 261.551
L365.806 194.418
L366.252 262.968
L366.55 304.527
L366.624 305.106
L366.698 300.336
L366.847 262.605
L367.07 204.173
L367.368 161.362
L367.442 161.725
L367.517 163.081
L367.666 150.596
L367.814 137.775
L367.889 141.628
L367.963 138.103
L368.112 145.119
L368.782 252.047
L368.856 250.008
L369.005 245.636
L369.154 251.944
L369.6 227.138
L369.674 227.069
L369.823 241.809
L370.121 280.136
L370.195 279.522
L370.418 255.045
L370.493 253.931
L370.567 254.242
L370.642 248.332
L371.014 188.794
L371.237 161.362
L371.46 129.662
L371.534 131.148
L371.609 132.668
L371.981 176.637
L372.502 235.104
L372.576 228.581
L372.65 233.514
L372.948 275.6
L373.097 266.908
L373.543 214.386
L373.692 210.489
L373.766 213.185
L373.915 206.869
L373.99 210.904
L374.436 286.054
L374.51 281.734
L374.734 246.008
L375.031 173.769
L375.403 135.571
L375.552 157.31
L375.775 189.416
L376.073 225.764
L376.296 210.99
L376.445 190.323
L376.519 192.302
L376.594 194.263
L377.04 252.488
L377.114 249.844
L377.561 217.306
L377.71 215.042
L377.858 237.714
L378.156 284.413
L378.23 284.663
L378.9 201.78
L379.272 126.759
L379.346 129.662
L379.421 129.247
L379.495 130.154
L379.57 134.854
L379.867 192.388
L379.942 195.576
L380.165 232.702
L380.462 270.926
L380.537 269.906
L380.76 230.672
L380.983 191.265
L381.132 204.64
L381.727 288.102
L381.802 290.78
L381.876 289.804
L382.099 262.605
L382.471 182.564
L382.694 164.239
L382.769 164.861
L383.066 137.654
L383.141 142.155
L383.364 147.676
L383.885 216.312
L384.182 268.843
L384.331 274.278
L384.48 262.804
L384.629 248.237
L384.852 218.619
L384.926 218.032
L385.15 226.274
L385.522 275.876
L385.596 270.234
L385.67 265.258
L385.819 268.861
L385.894 262.277
L386.191 200.562
L386.266 199.464
L386.786 127.554
L386.861 129.472
L387.01 135.165
L387.158 155.34
L387.382 194.047
L387.456 189.511
L387.53 193.935
L387.828 258.156
L387.977 277.725
L388.126 281.933
L388.2 284.62
L388.274 282.711
L388.498 258.415
L388.87 177.743
L388.944 181.398
L389.688 283.419
L389.837 254.423
L390.283 170.33
L390.655 148.592
L390.73 148.601
L390.804 151.832
L391.325 220.062
L391.474 205.996
L391.548 206.169
L391.92 232.78
L392.069 244.738
L392.218 240.141
L392.292 243.433
L392.441 231.052
L392.59 218.42
L392.738 222.628
L393.259 277.086
L393.334 274.572
L393.854 210.161
L394.45 116.442
L394.524 113.168
L394.673 125.117
L395.268 245.852
L395.417 247.477
L395.491 246.855
L395.64 242.31
L395.863 247.779
L396.086 240.012
L396.235 234.007
L396.31 237.834
L396.384 237.074
L396.458 234.517
L396.533 236.694
L396.607 235.588
L396.83 229.194
L396.905 228.728
L397.128 240.288
L397.202 245.49
L397.277 245.317
L397.574 223.458
L398.021 172.715
L398.467 142.656
L398.616 152.359
L398.839 187.023
L399.137 219.941
L399.583 278.252
L399.658 277.63
L399.806 264.636
L400.178 227.164
L400.253 227.155
L400.327 228.97
L400.402 228.676
L400.55 225.626
L400.625 228.849
L400.922 266.156
L400.997 265.906
L401.071 263.53
L401.22 246.518
L401.815 143.719
L401.964 142.25
L402.038 144.384
L402.559 187.714
L403.154 250.872
L403.303 252.324
L403.526 258.847
L404.27 213.703
L404.345 215.034
L404.866 253.006
L405.089 268.748
L405.238 261.672
L405.982 122.49
L406.056 123.605
L406.279 161.016
L406.577 226.024
L406.726 235.744
L406.949 225.721
L407.172 205.78
L407.246 206.428
L407.544 237.679
L407.767 264.325
L407.842 263.573
L408.065 251.918
L408.288 231.7
L408.437 232.123
L408.586 236.245
L408.809 256.143
L409.106 239.511
L409.85 106.843
L409.999 128.729
L410.446 237.411
L410.669 250.915
L410.743 250.302
L410.892 243.088
L411.115 256.488
L411.19 255.4
L411.562 249.066
L411.636 242.44
L411.71 245.213
L411.785 245.861
L411.934 231.631
L412.008 233.117
L412.231 232.383
L412.454 239.761
L412.529 237.437
L412.603 239.796
L412.678 238.526
L412.901 196.181
L412.975 193.546
L413.347 153.543
L413.57 142.648
L413.645 144.082
L414.017 183.67
L414.538 266.398
L414.612 266.899
L414.686 259.339
L414.761 260.463
L414.835 263.685
L414.984 259.002
L415.282 251.676
L415.728 198.894
L415.951 219.863
L416.249 252.306
L416.398 257.732
L416.546 240.297
L416.993 165.57
L417.067 162.615
L417.142 163.988
L417.216 163.816
L417.29 164.204
L417.514 175.177
L417.662 182.158
L417.96 203.214
L418.109 199.317
L418.258 208.571
L418.481 243.165
L418.778 279.471
L418.853 279.851
L419.002 263.271
L419.225 205.996
L419.448 174.927
L419.597 188.586
L419.746 219.319
L420.043 272.947
L420.118 273.682
L420.266 265.206
L420.49 255.762
L420.713 211.949
L421.085 145.11
L421.159 138.837
L421.234 141.127
L421.308 140.22
L421.457 155.599
L421.903 219.042
L421.978 219.604
L422.126 217.306
L422.275 211.742
L422.35 212.295
L422.498 221.937
L422.722 243.001
L422.87 248.807
L422.945 250.155
L423.019 249.205
L423.391 226.801
L423.466 221.781
L423.54 225.332
L423.912 268.731
L423.986 269.759
L424.135 263.547
L424.358 239.467
L424.582 192.431
L424.954 107.88
L425.028 105.219
L425.102 109.842
L425.326 159.746
L425.698 229.385
L425.921 242.915
L425.995 243.148
L426.218 252.963
L426.293 252.911
L426.367 253.222
L426.442 254.069
L426.739 225.548
L426.814 224.287
L426.888 220.969
L426.962 221.488
L427.037 221.609
L427.111 219.725
L427.186 225.203
L427.483 272.654
L427.558 274.338
L427.632 272.446
L427.781 255.927
L428.153 202.238
L428.599 154.484
L428.748 157.31
L428.897 166.252
L429.046 161.647
L429.194 170.883
L429.492 192.881
L429.715 227.605
L429.938 268.308
L430.087 286.028
L430.236 279.298
L430.31 273.483
L430.682 217.755
L430.98 206.402
L431.054 206.851
L431.129 209.824
L431.426 259.962
L431.575 273.63
L431.798 239.64
L432.245 164.291
L432.319 161.569
L432.468 166.425
L432.542 163.228
L432.617 165.673
L432.914 192.535
L433.286 202.531
L433.361 207.258
L433.435 206.61
L433.51 205.581
L433.658 218.23
L433.956 264.385
L434.03 266.658
L434.105 266.174
L434.328 245.887
L434.551 210.489
L434.7 196.242
L434.774 196.561
L434.849 200.233
L435.37 288.707
L435.444 286.02
L435.816 215.88
L436.114 143.849
L436.262 135.744
L436.337 138.405
L436.932 202.134
L437.006 206.238
L437.081 204.933
L437.155 197.296
L437.23 197.494
L437.304 199.145
L437.825 251.235
L437.899 250.941
L437.974 252.479
L438.42 240.954
L438.494 244.064
L438.718 235.899
L438.941 248.436
L439.015 246.967
L439.238 230.136
L439.313 231.812
L439.387 235.035
L440.131 157.845
L440.206 160.774
L440.28 159.046
L440.354 161.612
L440.578 192.051
L440.801 217.911
L440.95 221.349
L441.098 215.405
L441.173 214.386
L441.396 204.761
L441.47 204.519
L441.619 205.512
L441.768 211.249
L442.14 244.245
L442.214 244.479
L442.363 259.391
L442.661 299.835
L442.81 293.64
L443.033 253.965
L443.628 125.108
L443.702 124.797
L443.851 128.262
L444.223 187.403
L444.521 228.253
L444.744 240.66
L445.116 254.734
L445.19 255.486
L445.414 248.721
L445.711 208.07
L446.083 233.255
L446.158 232.184
L446.306 236.072
L446.53 230.637
L447.125 191.187
L447.199 191.334
L447.274 193.727
L447.348 191.196
L447.497 194.799
L447.646 190.919
L447.794 185.692
L447.869 188.742
L447.943 187.809
L448.018 188.725
L448.092 193.442
L448.166 192.042
L448.241 190.314
L448.538 217.997
L448.985 270.425
L449.059 272.429
L449.357 248.98
L449.878 173.821
L449.878 173.821" style="fill:none;stroke:#808080;stroke-linecap:square;"/>
   </g>
  </g>
 </g>
 <defs>
  <clipPath id="p7ff5b81e1d">
   <rect height="345.6" width="446.4" x="72.0" y="43.2"/>
  </clipPath>
 </defs>
</svg>
