<?xml version="1.0" encoding="utf-8" standalone="no"?>
<!DOCTYPE svg PUBLIC "-//W3C//DTD SVG 1.1//EN"
  "http://www.w3.org/Graphics/SVG/1.1/DTD/svg11.dtd">
<!-- Created with matplotlib (http://matplotlib.org/) -->
<svg height="432pt" version="1.1" viewBox="0 0 576 432" width="576pt" xmlns="http://www.w3.org/2000/svg" xmlns:xlink="http://www.w3.org/1999/xlink">
 <defs>
  <style type="text/css">
*{stroke-linecap:butt;stroke-linejoin:round;}
  </style>
 </defs>
 <g id="figure_1">
  <g id="patch_1">
   <path d="
M0 432
L576 432
L576 0
L0 0
z
" style="fill:#ffffff;"/>
  </g>
  <g id="axes_1">
   <g id="line2d_1">
    <path clip-path="url(#p7ff5b81e1d)" d="
M72 57.7357
L72.1488 74.6355
L73.0416 246.019
L73.2648 293.141
L73.488 336.929
L73.5624 340.108
L73.6368 337.274
L73.86 300.572
L74.3064 211.424
L74.3808 209.402
L74.604 215.347
L75.0504 201.419
L75.5712 123.97
L75.7944 146.952
L76.7616 256.196
L76.9104 266.72
L76.9848 266.444
L77.1336 253.052
L77.208 253.985
L77.5056 265.027
L77.58 262.676
L78.3984 172.838
L78.4728 178.488
L78.9936 233.871
L79.068 230.138
L79.44 188.459
L79.5144 194.87
L79.5888 195.44
L79.6632 191.656
L79.7376 192.295
L79.812 195.043
L79.9608 190.014
L80.928 249.405
L81.0768 255.851
L81.5232 218.854
L81.5976 220.064
L81.672 222.414
L81.7464 222.276
L81.8952 215.001
L82.1184 199.916
L82.1928 201.73
L82.788 246.14
L82.9368 254.935
L83.3088 213.619
L83.6808 154.642
L84.2016 200.054
L84.276 200.036
L84.3504 198.153
L84.4248 198.706
L84.7968 233.421
L85.02 264.249
L85.0944 264.128
L85.5408 235.53
L85.8384 226.527
L86.0616 200.088
L86.2848 212.945
L86.508 243.686
L86.7312 225.749
L87.0288 190.532
L87.1776 177.607
L87.3264 168.5
L87.4752 171.68
L87.996 224.056
L88.1448 231.452
L88.2192 231.555
L88.368 236.428
L88.4424 238.64
L88.5168 238.346
L88.74 223.261
L88.8144 223.503
L88.8888 225.3
L89.112 242.148
L89.6328 211.303
L89.7816 208.607
L89.856 202.127
L89.9304 202.404
L90.0792 207.346
L90.1536 206.897
L90.228 208.227
L90.5256 236.722
L90.6744 217.921
L90.8976 195.008
L91.0464 215.398
L91.1952 230.536
L91.4184 204.218
L91.4928 206.897
L91.5672 207.277
L91.7904 192.036
L92.0136 203.268
L92.2368 220.375
L92.3112 221.066
L92.6088 255.039
L92.9808 196.01
L93.0552 200.261
L93.2784 222.639
L93.5016 203.665
L93.7248 223.036
L93.948 202.404
L94.0224 207.035
L94.32 267.653
L94.4688 239.314
L94.7664 189.548
L94.8408 188.424
L94.9152 190.17
L94.9896 189.098
L95.1384 176.622
L95.2128 177.02
L95.5848 203.613
L95.808 215.156
L95.9568 233.352
L96.0312 233.249
L96.2544 218.751
L96.4032 249.094
L96.4776 247.677
L96.6264 235.962
L96.7752 240.506
L97.2216 203.89
L97.296 198.222
L97.3704 200.054
L97.5192 212.098
L97.5936 211.96
L97.668 212.409
L97.7424 215.122
L98.04 254.244
L98.1144 253.086
L98.3376 230.467
L98.9328 155.126
L99.156 165.027
L99.3048 181.098
L99.528 202.888
L99.6768 205.341
L99.8256 221.308
L99.9744 233.992
L100.198 223.451
L100.346 251.652
L100.57 276.12
L100.644 275.844
L101.09 230.933
L101.537 205.549
L101.76 213.532
L101.983 203.924
L102.058 200.019
L102.132 202.248
L102.355 195.509
L102.43 193.781
L102.802 174.583
L102.95 177.261
L103.025 177.659
L103.248 192.105
L103.694 258.356
L103.992 282.514
L104.141 247.816
L104.364 188.632
L104.438 189.15
L104.662 216.884
L104.736 214.413
L104.959 182.532
L105.331 244.36
L105.406 243.15
L105.48 245.759
L105.703 265.614
L105.778 262.348
L106.15 193.038
L106.224 186.783
L106.298 188.321
L106.373 189.461
L106.522 174.998
L106.745 151.583
L106.894 161.969
L107.191 184.796
L107.489 253.052
L107.638 259.462
L107.712 258.875
L107.786 254.952
L107.935 267.117
L108.01 272.457
L108.084 268.586
L108.456 203.026
L108.679 225.732
L108.754 224.194
L108.977 191.517
L109.423 226.181
L109.498 225.939
L109.572 227.114
L109.721 224.833
L109.795 228.168
L109.87 227.719
L110.093 194.541
L110.167 194.87
L110.242 195.578
L110.39 190.861
L110.465 192.347
L110.539 192.831
L110.614 191.967
L110.688 195.768
L110.911 227.512
L110.986 226.043
L111.134 211.424
L111.432 243.323
L111.506 242.96
L111.804 209.644
L111.878 211.649
L112.027 229.533
L112.102 225.352
L112.399 187.284
L112.622 197.894
L112.697 197.756
L113.292 261.553
L113.962 188.822
L114.036 188.131
L114.334 213.377
L114.482 192.364
L114.631 163.818
L114.706 164.492
L115.375 240.956
L115.45 241.301
L115.524 238.571
L115.747 202.352
L115.822 204.443
L116.194 252.913
L116.268 250.736
L116.417 244.688
L116.491 245.362
L116.566 245.068
L116.938 218.82
L117.161 240.731
L117.235 239.815
L117.607 177.987
L117.83 184.243
L118.128 167.101
L118.277 178.955
L118.426 187.197
L118.5 184.899
L118.649 199.397
L118.946 245.932
L119.021 244.342
L119.17 232.212
L119.318 240.644
L119.467 252.222
L119.616 246.623
L119.914 232.989
L120.286 216.055
L120.36 216.954
L120.434 220.686
L120.658 246.14
L120.732 245.932
L121.327 185.21
L121.55 162.867
L121.699 159.308
L121.848 164.768
L121.997 157.355
L122.146 188.044
L122.369 233.059
L122.443 235.495
L122.666 222.794
L122.741 222.881
L123.41 256.801
L123.485 254.382
L123.634 231.763
L123.857 204.149
L124.154 229.948
L124.303 226.959
L124.601 234.821
L124.675 232.696
L124.973 198.637
L125.047 199.553
L125.196 212.495
L125.27 208.486
L125.494 167.118
L125.717 197.462
L125.791 196.892
L126.014 188.148
L126.089 188.735
L126.535 230.259
L126.684 227.857
L127.056 238.657
L127.13 239.072
L127.279 233.802
L127.577 238.208
L127.651 234.51
L127.874 204.356
L127.949 208.746
L128.246 249.284
L128.47 238.709
L128.544 237.137
L128.99 194.455
L129.214 156.525
L129.437 170.643
L129.66 157.856
L129.734 157.873
L129.883 172.147
L130.33 235.858
L130.702 271.99
L130.999 254.036
L131.222 245.569
L131.594 207.415
L131.669 207.951
L131.892 217.818
L132.115 212.115
L132.413 236.394
L132.487 232.782
L132.636 226.492
L133.082 196.235
L133.38 137.345
L133.529 149.804
L133.901 199.086
L134.273 248.179
L134.347 246.019
L134.57 226.838
L134.645 227.529
L134.719 228.704
L134.868 235.288
L135.017 231.382
L135.166 238.191
L135.463 276.276
L136.058 215.554
L136.282 186.714
L136.728 157.528
L136.877 141.751
L137.026 154.486
L137.323 189.876
L137.398 187.75
L137.546 201.955
L137.993 267.947
L138.216 262.676
L138.439 240.195
L138.737 205.255
L138.811 206.447
L138.96 224.298
L139.109 242.632
L139.406 228.341
L139.555 234.234
L139.63 231.486
L139.927 206.447
L140.002 205.722
L140.15 220.565
L140.299 236.895
L140.448 219.908
L140.671 181.028
L140.746 183.741
L140.82 183.603
L140.969 170.246
L141.118 157.597
L141.192 158.547
L141.341 170.228
L141.564 199.933
L141.638 199.449
L141.713 195.647
L141.787 201.142
L142.234 274.271
L142.308 273.839
L142.754 247.366
L143.201 209.713
L143.275 211.044
L143.424 218.405
L143.498 217.679
L143.796 220.548
L144.094 239.141
L144.168 231.659
L144.54 152.275
L144.614 151.393
L144.838 164.422
L145.284 212.409
L145.507 235.391
L145.582 235.979
L145.73 241.543
L145.954 249.907
L146.102 246.934
L146.4 239.608
L146.474 239.176
L146.549 237.258
L146.921 217.282
L146.995 217.818
L147.218 223.071
L147.293 224.972
L147.367 224.851
L147.516 221.343
L148.111 188.735
L148.186 188.493
L148.483 197.462
L148.558 196.961
L148.781 186.506
L148.855 189.478
L149.078 206.413
L149.153 204.529
L149.227 207.26
L149.525 226.907
L149.748 231.659
L149.822 230.916
L149.897 229.015
L149.971 230.484
L150.418 250.563
L150.566 235.028
L150.79 218.733
L151.162 240.714
L151.31 240.161
L151.459 236.152
L151.757 203.942
L152.129 158.478
L152.203 158.253
L152.278 161.174
L152.352 160.379
L152.426 157.683
L152.501 159.463
L152.724 185.573
L153.17 242.269
L153.319 245.189
L153.394 245.604
L153.542 244.913
L153.766 256.024
L154.063 240.23
L154.286 216.28
L154.361 217.939
L154.51 225.663
L154.658 221.602
L154.733 218.803
L154.807 220.824
L154.956 234.7
L155.105 233.802
L155.179 228.548
L155.402 204.477
L155.477 204.201
L155.626 195.181
L155.7 199.242
L155.774 197.427
L156.146 164.388
L156.221 164.25
L156.816 218.319
L157.114 248.576
L157.486 254.434
L158.006 209.54
L158.081 212.132
L158.453 254.157
L158.527 253.95
L158.676 240.23
L159.346 165.978
L159.42 167.464
L159.718 191.5
L159.866 201.903
L160.164 192.537
L160.238 194.593
L160.759 254.019
L160.834 254.088
L160.982 245.967
L161.28 220.738
L161.429 217.714
L161.726 231.659
L161.875 230.104
L161.95 229.222
L162.173 217.852
L162.247 218.682
L162.47 228.013
L162.545 228.065
L162.619 227.771
L162.694 228.186
L162.842 213.93
L163.214 185.418
L163.363 183.327
L163.438 183.188
L163.512 183.897
L163.586 183.223
L163.661 183.413
L163.735 182.895
L163.958 178.229
L164.033 178.004
L164.182 185.642
L164.926 274.358
L165 273.736
L165.223 258.875
L165.372 264.456
L165.744 230.812
L166.116 175.706
L166.19 173.252
L166.488 203.302
L166.86 188.027
L166.934 188.891
L167.232 204.547
L167.53 194.524
L168.05 227.339
L168.199 235.858
L168.274 236.739
L168.497 230.726
L168.571 230.691
L168.646 231.78
L168.72 230.104
L168.869 223.537
L168.943 227.201
L169.166 246.105
L169.687 211.303
L169.762 212.53
L169.985 224.28
L170.134 214.362
L170.282 204.253
L170.357 203.821
L170.431 204.149
L170.654 225.473
L171.026 198.602
L171.101 198.689
L171.324 188.614
L171.473 178.125
L171.547 169.987
L171.696 183.949
L171.919 206.776
L172.366 232.834
L172.514 233.75
L172.961 270.608
L173.035 266.841
L173.258 246.226
L173.482 231.175
L173.779 213.066
L174.002 191.034
L174.077 191.777
L174.226 197.03
L174.523 172.838
L174.598 174.497
L174.895 203.216
L174.97 204.944
L175.044 204.201
L175.193 197.203
L176.16 232.592
L176.458 223.192
L176.904 259.929
L176.978 253.449
L177.425 218.422
L177.648 212.184
L177.797 203.648
L178.02 223.019
L178.094 220.617
L178.466 185.901
L178.764 195.302
L178.913 188.01
L179.062 180.216
L179.21 191.5
L179.434 208.849
L179.508 208.573
L179.582 205.618
L179.657 210.18
L179.88 238.329
L180.029 243.893
L180.103 243.634
L180.178 244.066
L180.401 237.845
L180.55 239.556
L180.698 246.26
L180.773 245.172
L181.07 203.406
L181.145 204.322
L181.294 215.502
L181.442 226.769
L181.517 223.71
L181.74 202.819
L182.038 226.268
L182.186 216.452
L182.41 198.274
L182.558 200.106
L182.707 193.47
L183.005 173.391
L183.154 187.353
L183.451 215.934
L183.674 208.435
L183.749 213.722
L183.972 243.945
L184.344 261.761
L184.493 262.504
L184.567 262.625
L184.79 251.514
L185.014 227.581
L185.237 195.457
L185.386 188.856
L185.609 167.464
L185.906 218.06
L186.13 183.983
L186.353 151.894
L186.576 165.96
L187.246 263.454
L187.394 262.763
L187.543 267.169
L187.618 266.461
L187.692 266.772
L187.766 265.32
L188.362 213.29
L188.436 214.137
L188.51 213.238
L188.734 202.006
L189.106 168.673
L189.18 171.283
L189.254 171.715
L189.329 173.045
L189.403 176.899
L189.924 244.723
L189.998 242.649
L190.147 220.168
L190.37 195.198
L190.668 205.566
L190.742 205.22
L190.817 205.462
L191.114 225.801
L191.189 227.944
L191.263 226.302
L191.338 226.855
L191.486 236.895
L191.71 230.19
L192.156 205.894
L192.305 222.984
L192.528 245.673
L192.677 241.871
L192.826 228.151
L193.198 195.06
L193.421 201.955
L193.57 198.36
L193.644 198.982
L193.793 195.682
L194.016 198.62
L194.09 198.879
L194.239 201.108
L194.314 201.091
L194.388 201.332
L194.76 223.71
L194.834 222.483
L194.909 222.017
L195.058 224.125
L195.132 223.589
L195.281 217.351
L195.355 220.202
L195.653 243.012
L195.727 245.085
L195.802 251.876
L195.95 238.899
L196.248 216.262
L196.397 210.18
L196.471 210.612
L196.546 210.577
L196.62 210.197
L196.843 198.706
L197.29 230.156
L197.587 251.859
L197.736 256.888
L197.81 252.188
L198.034 203.821
L198.406 114.898
L198.629 95.6134
L198.778 109.057
L199.001 163.299
L199.596 350.597
L199.819 374.15
L199.968 342.769
L200.861 144.291
L201.233 116.28
L201.382 118.458
L201.53 133.785
L202.126 223.935
L202.423 256.3
L202.721 277.52
L202.795 275.274
L202.944 267.878
L203.018 267.532
L203.614 221.567
L203.688 218.422
L203.911 194.403
L203.986 194.524
L204.432 202.473
L204.73 220.271
L205.027 195.319
L205.102 198.188
L205.25 202.076
L205.325 202.352
L205.474 195.164
L205.548 196.822
L205.771 204.477
L205.994 197.393
L206.069 197.842
L206.59 228.911
L206.738 227.494
L207.036 260.257
L207.11 258.253
L207.557 209.679
L207.706 229.827
L207.854 242.424
L207.929 242.061
L208.078 228.911
L208.524 192.122
L208.598 190.014
L208.747 193.142
L209.045 186.852
L209.194 173.235
L209.566 201.972
L209.938 236.947
L210.086 243.236
L210.161 243.997
L210.31 234.337
L210.607 215.519
L210.682 216.141
L210.83 226.25
L210.979 242.96
L211.054 241.543
L211.202 234.32
L211.277 235.132
L211.5 220.755
L211.649 212.927
L211.798 214.517
L212.021 204.236
L212.095 207.38
L212.318 230.242
L212.393 229.914
L212.542 220.081
L212.839 190.93
L212.988 199.864
L213.137 204.426
L213.211 204.356
L213.36 206.033
L213.732 188.528
L213.806 188.666
L214.476 226.371
L214.848 256.94
L215.071 275.567
L215.146 275.446
L215.666 194.49
L215.964 226.388
L216.113 223.468
L216.708 176.294
L216.782 176.501
L217.154 214.292
L217.229 210.042
L217.378 202.767
L217.675 215.105
L217.75 213.705
L217.898 206.275
L218.047 199.276
L218.196 209.99
L218.494 246.744
L218.568 245.224
L218.791 231.987
L219.014 237.88
L219.089 236.394
L219.312 221.498
L219.461 213.411
L219.758 233.715
L219.833 231.279
L220.13 215.208
L220.428 235.288
L220.577 222.967
L220.949 174.013
L221.023 172.354
L221.246 153.018
L221.395 143.859
L222.065 248.559
L222.362 264.042
L222.437 262.746
L222.511 262.538
L222.586 261.173
L222.809 251.6
L223.032 243.012
L223.106 239.228
L223.404 184.796
L223.478 185.919
L223.776 204.944
L223.925 199.345
L223.999 200.227
L224.297 212.236
L224.371 212.841
L224.446 210.387
L224.818 178.177
L225.041 182.808
L225.19 174.6
L225.264 178.851
L225.413 208.504
L225.71 280.008
L225.859 264.923
L226.157 233.3
L226.454 218.612
L226.529 218.025
L226.752 234.424
L226.826 234.095
L227.198 190.584
L227.273 191.034
L227.57 220.686
L227.645 217.921
L227.794 208.659
L228.017 226.89
L228.091 225.455
L228.314 201.661
L228.538 183.119
L228.686 185.573
L228.761 185.176
L228.91 179.128
L228.984 179.646
L229.058 182.722
L229.207 211.096
L229.505 278.47
L229.654 258.685
L229.877 237.949
L230.026 240.42
L230.174 234.32
L230.472 213.238
L230.77 177.452
L230.844 176.881
L231.067 202.456
L231.439 245.068
L231.514 243.634
L231.811 208.521
L231.886 208.538
L231.96 209.713
L232.109 215.018
L232.183 212.703
L232.555 188.666
L232.63 186.161
L232.704 186.886
L233.374 224.384
L233.671 247.816
L233.969 232.385
L234.043 232.73
L234.192 235.409
L234.341 227.615
L234.49 221.101
L234.638 227.183
L234.787 235.288
L234.862 233.871
L235.085 215.226
L235.234 217.748
L235.308 216.038
L235.606 199.414
L235.903 215.329
L236.201 172.406
L236.424 153.709
L236.498 156.802
L236.87 205.739
L237.168 252.533
L237.466 263.558
L237.614 270.02
L237.689 269.347
L237.912 264.024
L238.135 232.765
L238.433 183.327
L238.507 182.359
L239.177 224.142
L239.251 224.678
L239.4 209.765
L239.623 185.4
L239.772 182.756
L239.846 183.24
L239.995 200.209
L240.218 221.464
L240.293 221.688
L240.367 221.55
L240.59 201.764
L240.665 201.868
L240.814 210.56
L240.888 209.627
L240.962 208.694
L241.483 254.296
L241.558 246.07
L241.706 228.03
L241.781 228.307
L241.93 233.024
L242.004 231.849
L242.153 227.218
L242.227 228.307
L242.376 223.831
L242.45 224.125
L242.599 227.252
L243.046 200.019
L243.194 209.489
L243.269 208.193
L243.343 206.499
L243.715 166.237
L243.79 166.34
L244.013 174.082
L244.162 187.543
L244.682 252.412
L244.831 260.275
L245.054 277.295
L245.352 262.676
L245.873 184.156
L246.022 191.293
L246.17 200.278
L246.468 197.444
L246.617 194.23
L246.766 196.494
L246.989 188.701
L247.212 212.271
L247.435 237.534
L247.584 226.941
L247.882 190.688
L248.03 200.745
L248.551 239.953
L248.7 243.046
L248.774 242.01
L248.923 232.091
L249.072 225.248
L249.37 253.276
L249.444 250.909
L249.742 228.756
L249.965 215.709
L250.486 173.028
L250.56 173.512
L250.709 183.966
L250.858 199.328
L250.932 198.81
L251.155 187.146
L251.378 199.518
L251.676 220.358
L251.899 231.071
L252.122 226.475
L252.197 227.373
L252.271 230.812
L252.643 274.755
L252.718 274.721
L252.866 249.872
L253.164 188.338
L253.313 184.761
L253.536 195.976
L254.057 228.082
L254.28 213.187
L254.354 215.796
L254.578 223.209
L254.652 223.727
L254.726 222.155
L254.95 211.113
L255.247 216.781
L255.322 214.292
L255.842 150.115
L256.289 205.756
L256.586 310.628
L256.81 372.871
L256.958 344.705
L257.33 194.3
L257.702 69.4688
L257.851 52.2406
L258.074 111.701
L258.818 333.144
L258.967 310.369
L259.339 249.699
L259.414 251.963
L259.637 266.495
L259.711 263.938
L259.86 245.362
L260.083 178.264
L260.381 98.24
L260.53 82.1869
L260.753 123.745
L261.05 221.222
L261.348 276.621
L261.571 285.14
L262.315 236.186
L263.208 187.37
L263.506 223.416
L263.58 222.103
L264.026 191.967
L264.175 193.556
L264.622 218.924
L264.77 222.881
L264.845 223.278
L265.217 247.401
L265.291 246.606
L265.663 207.277
L265.738 206.413
L265.886 194.559
L265.961 195.25
L266.258 231.987
L266.333 228.376
L266.705 175.741
L266.854 185.711
L267.226 226.63
L267.3 225.11
L267.374 226.181
L267.523 224.626
L267.746 238.26
L267.895 230.138
L268.118 246.468
L268.193 246.347
L268.267 245.431
L268.416 230.346
L268.639 194.801
L268.788 200.866
L269.086 248.3
L269.16 246.157
L269.83 167.861
L269.904 169.123
L270.202 208.59
L270.35 199.535
L270.574 189.254
L270.722 192.986
L270.946 219.425
L271.169 239.314
L271.392 233.421
L271.541 229.015
L271.764 237.206
L272.062 256.922
L272.136 256.767
L272.285 246.554
L272.657 191.569
L272.806 185.21
L272.88 189.254
L273.103 217.005
L273.55 186.178
L273.624 186.524
L273.698 187.681
L273.847 199.898
L274.07 220.271
L274.294 222.881
L274.368 222.881
L274.517 219.476
L274.591 219.667
L274.814 223.123
L274.889 222.466
L275.038 225.334
L275.186 228.618
L275.261 228.462
L275.335 227.875
L275.41 225.87
L275.484 226.043
L275.707 232.125
L275.782 231.054
L275.93 224.816
L276.005 225.974
L276.079 224.799
L276.451 198.049
L276.6 208.141
L276.749 239.901
L276.823 238.675
L277.27 186.264
L277.344 183.655
L277.716 221.429
L277.79 220.755
L278.014 204.184
L278.162 194.058
L278.237 195.371
L278.386 187.267
L278.46 188.303
L278.609 187.75
L278.758 211.459
L279.055 262.59
L279.13 265.372
L279.353 253.017
L279.65 207.933
L279.725 209.886
L280.171 247.712
L280.543 215.658
L280.841 157.942
L280.915 161.675
L281.138 214.586
L281.362 241.059
L281.436 240.022
L281.659 208.953
L281.957 182.687
L282.403 223.278
L282.478 221.602
L282.701 206.741
L282.85 186.23
L283.445 242.044
L283.668 256.715
L283.891 266.876
L283.966 263.972
L284.412 224.937
L284.561 216.884
L284.71 208.832
L284.784 209.903
L285.305 167.827
L285.379 168.189
L285.677 193.211
L285.826 225.248
L285.9 223.485
L286.198 188.2
L286.495 206.551
L286.644 233.715
L286.867 273.667
L286.942 275.844
L287.016 272.008
L287.462 200.987
L287.834 227.028
L287.909 222.742
L287.983 223.105
L288.132 237.932
L288.281 226.82
L288.355 235.011
L288.43 234.389
L288.653 202.369
L288.802 190.049
L288.876 191.293
L288.95 188.684
L289.025 181.495
L289.099 183.05
L289.174 186.143
L289.248 185.573
L289.322 185.037
L289.471 190.723
L289.62 173.062
L289.769 178.782
L289.843 176.138
L290.141 204.132
L290.29 229.292
L290.513 290.895
L290.587 291.983
L290.736 275.827
L291.108 238.398
L291.182 241.647
L291.257 241.267
L291.406 239.521
L291.629 208.556
L291.778 223.123
L291.926 205.203
L292.001 206.292
L292.224 188.58
L292.298 191.483
L292.447 173.702
L292.522 175.274
L292.67 181.564
L292.819 168.5
L292.968 174.825
L293.563 227.27
L293.712 224.021
L293.786 226.406
L294.01 246.122
L294.158 238.173
L294.307 251.064
L294.53 235.979
L294.605 236.584
L294.902 218.094
L294.977 218.215
L295.349 229.05
L295.498 207.553
L295.572 210.612
L295.721 235.028
L295.795 232.195
L296.167 196.356
L296.39 170.989
L296.539 177.123
L296.762 150.063
L296.837 153
L297.06 192.692
L297.432 265.735
L297.506 273.131
L297.581 271.887
L297.804 244.913
L297.953 255.644
L298.176 244.55
L298.25 246.658
L298.399 256.145
L298.622 239.02
L299.069 152.983
L299.143 160.172
L299.366 186.973
L299.441 189.461
L299.738 209.972
L299.813 206.119
L299.962 192.554
L300.185 224.453
L300.259 222.984
L300.334 215.416
L300.408 218.474
L300.557 232.609
L300.631 232.056
L300.78 227.65
L301.003 207.501
L301.152 224.419
L301.226 223.278
L301.524 245.535
L301.598 244.636
L302.119 200.175
L302.194 197.393
L302.342 205.791
L303.012 247.608
L303.607 180.925
L303.682 183.085
L303.979 216.401
L304.128 226.181
L304.202 226.613
L304.351 206.879
L304.5 169.174
L304.872 186.973
L304.946 183.43
L305.021 184.173
L305.542 282.065
L305.839 248.386
L305.988 235.858
L306.062 239.469
L306.137 238.104
L306.434 201.972
L306.509 206.361
L306.658 212.755
L307.03 199.121
L307.327 176.432
L307.476 203.717
L307.55 203.579
L307.625 202.646
L307.699 205.29
L307.774 204.581
L307.848 199.795
L308.071 219.286
L308.146 214.292
L308.369 195.699
L308.815 228.86
L309.113 245.414
L309.187 245.224
L309.336 235.996
L309.559 258.598
L309.634 255.004
L309.782 241.958
L310.154 192.658
L310.229 190.55
L310.378 194.351
L310.452 192.209
L310.526 185.711
L310.601 186.005
L310.75 195.751
L310.824 194.973
L310.898 195.405
L311.122 224.332
L311.27 240.178
L311.345 240.558
L311.419 239.953
L311.568 243.288
L311.791 210.543
L312.014 176.225
L312.238 199.052
L312.535 252.36
L312.61 249.976
L313.279 171.784
L313.354 176.328
L314.023 283.879
L314.172 250.909
L314.47 213.048
L314.544 205.722
L314.618 207.156
L314.693 202.266
L314.842 185.314
L315.214 206.154
L315.288 205.704
L315.437 209.661
L315.511 206.102
L315.734 182.618
L316.33 228.393
L316.553 263.402
L316.776 244.999
L316.925 211.303
L317.148 158.288
L317.222 160.465
L317.669 226.7
L317.892 255.851
L317.966 254.365
L318.041 258.253
L318.115 258.063
L318.487 226.63
L318.562 228.687
L318.636 230.726
L318.785 240.973
L319.157 189.876
L319.231 191.016
L319.306 190.757
L319.454 188.131
L319.603 173.754
L319.752 156.284
L319.826 157.666
L320.347 226.198
L320.645 257.994
L321.091 241.474
L321.166 243.236
L321.314 249.181
L321.463 262.469
L321.538 256.767
L321.984 181.132
L322.282 215.312
L322.356 212.236
L322.728 181.391
L322.951 155.022
L323.026 159.359
L323.249 195.198
L323.398 209.42
L323.695 241.578
L323.844 247.539
L324.067 228.548
L324.142 234.372
L324.365 275.101
L324.439 277.779
L324.588 251.41
L324.886 201.281
L325.109 207.899
L325.332 200.641
L325.555 215.9
L325.63 214.811
L325.778 198.153
L325.853 188.943
L325.927 190.135
L326.076 203.994
L326.225 197.738
L326.299 199.553
L326.374 199.034
L326.522 193.712
L326.597 182.255
L326.671 185.124
L327.043 230.691
L327.118 229.482
L327.192 225.455
L327.266 227.183
L327.341 230.708
L327.564 265.476
L327.713 262.227
L328.382 190.74
L328.68 207.985
L328.903 237.638
L328.978 234.942
L329.201 212.253
L329.424 191.673
L329.498 193.176
L329.647 206.499
L329.87 221.757
L330.019 233.473
L330.094 231.745
L330.242 214.655
L330.466 197.531
L330.614 186.644
L330.689 181.806
L330.763 186.437
L330.986 214.845
L331.358 240.074
L331.582 220.081
L331.656 222.362
L331.73 221.706
L331.879 216.504
L331.954 216.608
L332.102 210.595
L332.251 199.121
L332.326 202.836
L332.698 248.559
L332.772 247.764
L332.995 228.099
L333.144 236.929
L333.367 215.122
L333.516 215.519
L333.59 216.764
L334.037 199.432
L334.111 199.864
L334.186 202.11
L334.26 200.641
L334.483 190.602
L334.558 192.451
L334.781 209.229
L334.855 208.227
L335.004 196.339
L335.078 198.792
L335.302 215.9
L335.376 216.902
L335.45 214.776
L335.599 226.077
L335.674 224.004
L335.822 213.93
L335.971 223.33
L336.12 208.918
L336.418 235.374
L336.566 249.837
L336.938 232.851
L337.013 235.841
L337.087 235.011
L337.31 216.504
L337.534 225.645
L337.831 210.232
L338.054 184.709
L338.129 185.78
L338.203 185.59
L338.278 185.694
L338.352 186.956
L338.798 221.533
L338.873 221.516
L338.947 220.185
L339.022 215.709
L339.245 195.596
L339.394 197.375
L339.617 213.86
L339.766 210.007
L339.989 229.153
L340.212 258.184
L340.286 257.354
L341.254 195.682
L341.328 198.74
L341.402 204.46
L341.477 203.372
L341.551 200.503
L341.626 202.456
L341.774 210.353
L341.849 210.404
L342.072 216.919
L342.444 195.336
L342.518 195.025
L342.667 200.088
L342.816 190.947
L342.965 204.391
L343.039 202.421
L343.114 202.438
L343.262 217.144
L343.634 264.37
L344.23 231.745
L344.602 188.165
L344.75 183.344
L344.825 184.657
L345.494 219.753
L345.718 226.544
L345.866 224.384
L346.015 214.88
L346.313 194.109
L346.387 196.563
L346.685 221.256
L346.834 218.129
L346.982 229.136
L347.429 262.227
L347.726 237.897
L348.098 181.115
L348.322 160.31
L348.396 159.774
L348.545 154.003
L348.619 155.644
L348.694 153.277
L348.842 177.089
L349.289 262.59
L349.586 297.012
L349.661 295.457
L349.958 249.751
L350.405 166.15
L350.554 160.137
L350.628 160.949
L350.777 156.197
L351.074 200.002
L351.446 258.737
L351.595 272.509
L351.67 268.88
L351.893 242.925
L351.967 246.053
L352.042 242.874
L352.562 182.756
L352.637 178.454
L352.711 178.748
L352.934 198.689
L353.158 228.635
L353.306 208.642
L353.455 199.224
L354.05 237.707
L354.125 237.396
L354.199 232.903
L354.422 202.525
L354.497 202.473
L354.646 211.217
L354.869 236.877
L354.943 234.648
L355.018 235.34
L355.092 236.307
L355.241 239.677
L355.39 231.4
L355.687 212.323
L355.762 213.791
L355.91 219.684
L355.985 215.848
L356.282 180.406
L356.431 179.646
L356.58 194.576
L356.803 210.854
L357.026 229.603
L357.25 249.025
L357.473 237.223
L357.994 207.19
L358.142 202.525
L358.217 204.806
L358.291 204.045
L358.514 196.615
L358.589 196.235
L358.738 193.747
L359.407 242.321
L359.63 260.741
L360.077 222.604
L360.523 172.026
L361.118 226.803
L361.267 220.859
L361.342 222.725
L361.416 220.928
L361.639 207
L361.714 208.78
L361.862 202.3
L362.086 210.94
L362.234 204.236
L362.606 237.672
L362.681 236.342
L362.83 227.771
L362.904 228.998
L363.053 211.839
L363.202 191.967
L363.35 192.952
L363.499 210.404
L363.797 239.037
L363.946 242.684
L364.169 224.505
L364.318 213.446
L364.541 220.461
L364.615 220.876
L364.764 205.307
L364.838 206.828
L364.987 211.389
L365.21 207.26
L365.285 204.356
L365.359 205.1
L365.434 210.733
L365.508 208.244
L365.657 195.164
L365.731 195.924
L366.178 235.028
L366.252 232.177
L366.475 211.96
L366.698 191.967
L366.773 188.476
L366.847 191.379
L367.294 243.53
L367.368 243.081
L367.814 194.282
L368.335 241.56
L368.484 234.545
L368.558 236.411
L368.633 236.221
L368.856 227.235
L368.93 227.771
L369.005 225.542
L369.079 226.095
L369.154 227.477
L369.451 207.536
L369.674 175.741
L369.898 146.71
L370.046 163.628
L370.865 295.215
L371.014 303.198
L371.088 297.945
L371.683 174.86
L371.981 160.189
L372.055 158.426
L372.13 160.724
L372.948 255.661
L373.022 253.103
L373.543 193.85
L373.841 143.133
L373.99 145.725
L374.064 154.089
L374.436 293.59
L374.659 337.758
L374.734 335.097
L374.808 327.978
L375.478 169.002
L375.552 169.295
L375.626 170.159
L375.775 162.833
L375.924 152.257
L375.998 152.914
L376.296 189.548
L376.742 257.596
L376.817 263.903
L376.891 261.329
L377.04 241.249
L377.412 178.454
L377.561 171.732
L377.71 182.618
L378.454 280.233
L378.528 276.794
L379.198 185.366
L379.421 179.37
L379.793 217.748
L380.09 183.793
L380.165 189.478
L380.314 211.96
L380.537 240.247
L380.686 244.723
L380.909 220.997
L381.058 223.796
L381.206 219.183
L381.281 218.664
L381.355 217.334
L381.43 222.621
L381.504 221.896
L381.653 204.045
L381.95 227.529
L382.099 220.271
L382.322 194.887
L382.471 158.564
L382.546 165.079
L382.843 219.027
L383.066 216.522
L383.513 271.23
L384.034 224.159
L384.406 155.281
L384.554 152.689
L384.629 157.821
L384.926 232.627
L385.075 225.956
L385.15 227.235
L385.298 236.722
L385.522 214.759
L385.596 219.891
L385.819 251.289
L385.894 251.514
L386.042 258.374
L386.117 257.389
L386.266 246.381
L386.563 177.97
L386.786 137.828
L386.935 146.382
L387.084 156.577
L387.233 194.593
L387.53 278.194
L387.605 285.503
L387.679 281.684
L388.2 202.473
L388.274 202.266
L388.349 202.646
L388.498 206.465
L388.646 215.001
L388.87 231.313
L389.093 223.071
L389.167 225.715
L389.242 225.974
L389.39 219.442
L389.465 219.908
L389.614 223.796
L389.762 219.269
L389.986 225.092
L390.209 207.139
L390.283 210.059
L390.358 208.711
L390.506 198.429
L390.581 199.76
L390.878 209.558
L391.027 203.147
L391.102 207
L391.176 204.961
L391.399 164.319
L391.622 193.643
L391.846 223.727
L391.92 221.567
L391.994 222.846
L392.143 233.093
L392.366 217.628
L392.515 222.483
L392.664 216.141
L393.036 245.794
L393.408 301.816
L393.557 294.212
L393.929 200.019
L394.301 111.338
L394.45 134.113
L394.97 228.428
L395.194 252.188
L395.417 208.607
L395.64 183.206
L395.863 178.54
L395.938 182.998
L396.161 228.687
L396.458 303.302
L396.533 306.723
L396.607 303.596
L397.054 245.949
L397.649 57.7357
L397.723 62.4358
L397.872 106.344
L398.393 358.805
L398.467 361.846
L398.616 341.266
L399.137 241.059
L399.583 117.784
L399.732 105.584
L399.955 140.369
L400.625 233.871
L400.699 233.94
L400.774 235.512
L401.146 268.275
L401.22 269.468
L401.294 266.564
L401.592 242.217
L401.89 216.452
L402.262 170.799
L402.485 177.054
L402.857 234.044
L403.006 244.291
L403.303 270.28
L403.378 268.569
L403.601 250.753
L404.047 193.695
L404.494 150.097
L404.94 210.163
L405.163 231.745
L405.238 230.225
L405.461 249.647
L405.61 240.714
L405.684 241.422
L406.205 220.081
L406.354 231.123
L406.428 236.549
L406.502 234.389
L406.577 228.237
L406.651 228.341
L406.726 231.987
L406.8 228.047
L407.098 195.665
L407.172 191.293
L407.246 195.112
L407.395 178.367
L407.47 181.357
L407.618 172.993
L407.99 219.805
L408.511 262.988
L408.586 260.05
L408.734 240.316
L408.883 250.079
L409.106 218.163
L409.181 213.187
L409.404 169.503
L409.553 165.58
L409.702 181.201
L409.85 169.278
L409.925 173.529
L410.297 226.112
L410.446 233.439
L410.669 264.214
L410.743 263.644
L410.818 262.521
L411.041 231.417
L411.19 239.763
L411.338 225.956
L411.413 227.684
L411.487 224.851
L411.71 197.272
L411.785 199.553
L411.859 197.807
L412.231 166.772
L412.306 169.416
L412.678 199.414
L412.752 197.237
L412.826 197.859
L413.124 230.899
L413.273 237.396
L413.347 237.845
L413.496 267.256
L413.645 283.309
L413.719 284.968
L413.942 262.227
L414.017 263.039
L414.166 247.954
L414.389 230.346
L414.91 143.825
L414.984 143.531
L415.058 146.693
L415.133 145.898
L415.356 134.182
L415.43 137.621
L415.579 177.763
L415.877 264.871
L416.174 289.754
L416.472 263.731
L416.844 197.928
L416.918 201.281
L417.216 233.698
L417.811 181.772
L417.886 184.346
L418.183 209.299
L418.406 221.135
L418.555 228.41
L418.927 224.574
L419.002 221.481
L419.15 209.16
L419.225 210.404
L419.746 244.221
L419.969 227.857
L420.341 194.697
L420.564 192.07
L420.638 195.025
L420.713 194.611
L420.787 189.686
L420.862 190.844
L422.052 243.116
L422.126 242.943
L422.35 249.63
L422.796 204.788
L422.945 222.708
L423.019 216.815
L423.168 204.08
L423.242 204.028
L423.317 204.322
L423.466 198.879
L423.763 238.761
L423.838 232.143
L424.061 219.407
L424.135 219.459
L424.284 211.856
L424.358 212.115
L424.433 211.096
L425.177 163.161
L425.326 185.452
L425.623 250.028
L425.921 256.698
L426.144 254.71
L426.442 233.629
L426.516 228.082
L426.665 234.856
L426.888 225.11
L426.962 223.848
L427.111 206.205
L427.334 168.898
L427.483 176.276
L427.558 174.704
L427.632 172.941
L428.004 215.606
L428.078 214.621
L428.227 210.284
L428.45 228.635
L428.674 266.634
L428.748 265.787
L429.418 197.825
L429.492 199.293
L429.641 191.206
L429.715 193.332
L430.013 210.249
L430.087 208.953
L430.162 209.402
L430.385 213.204
L430.534 217.835
L430.608 217.299
L430.757 209.143
L430.906 220.634
L431.054 207.242
L431.129 208.296
L431.278 222.604
L431.426 218.664
L431.65 232.246
L431.724 231.814
L431.798 231.106
L431.873 229.136
L431.947 229.205
L432.096 234.199
L432.17 234.216
L432.319 229.914
L432.542 209.903
L432.617 209.938
L432.766 215.295
L432.989 202.749
L433.286 181.754
L433.435 187.042
L433.807 216.332
L434.105 229.499
L434.254 226.959
L434.402 207.916
L434.477 208.227
L434.626 220.289
L434.7 218.699
L434.774 219.597
L435.072 239.573
L435.221 237.223
L435.593 220.15
L435.816 233.853
L436.114 219.701
L436.262 213.86
L436.56 177.918
L436.634 179.508
L436.858 187.975
L437.081 212.132
L437.23 215.208
L437.527 202.231
L437.602 204.253
L437.75 198.481
L438.048 225.766
L438.122 223.693
L438.346 245.241
L438.42 241.889
L438.494 241.56
L438.792 261.864
L439.015 228.065
L439.238 200.313
L439.313 199.916
L439.387 201.799
L439.61 232.039
L439.908 208.988
L440.131 184.07
L440.28 179.525
L440.354 180.51
L440.726 220.22
L440.801 218.595
L441.024 202.006
L441.098 202.957
L441.247 209.489
L441.396 205.843
L441.545 222.881
L441.768 243.236
L441.917 249.025
L442.438 226.613
L442.735 200.296
L442.81 198.931
L443.033 182.912
L443.107 183.171
L443.256 199.328
L443.479 226.63
L443.777 240.005
L444 216.159
L444.223 224.211
L444.372 221.153
L444.595 209.61
L444.67 211.32
L444.893 198.689
L444.967 197.548
L445.116 189.306
L445.562 234.458
L445.711 265.821
L445.786 263.558
L446.009 222.984
L446.232 232.298
L446.604 195.751
L446.827 156.353
L446.902 156.387
L447.125 169.693
L447.72 284.778
L447.794 283.326
L448.092 218.371
L448.166 226.458
L448.315 247.747
L448.464 234.596
L448.836 164.751
L448.91 165.096
L449.431 206.758
L449.506 213.619
L449.58 212.945
L449.729 197.41
L449.878 183.344
L449.878 183.344" style="fill:none;stroke:#808080;stroke-linecap:square;"/>
   </g>
  </g>
 </g>
 <defs>
  <clipPath id="p7ff5b81e1d">
   <rect height="345.6" width="446.4" x="72.0" y="43.2"/>
  </clipPath>
 </defs>
</svg>
