<?xml version="1.0" encoding="utf-8" standalone="no"?>
<!DOCTYPE svg PUBLIC "-//W3C//DTD SVG 1.1//EN"
  "http://www.w3.org/Graphics/SVG/1.1/DTD/svg11.dtd">
<!-- Created with matplotlib (http://matplotlib.org/) -->
<svg height="432pt" version="1.1" viewBox="0 0 576 432" width="576pt" xmlns="http://www.w3.org/2000/svg" xmlns:xlink="http://www.w3.org/1999/xlink">
 <defs>
  <style type="text/css">
*{stroke-linecap:butt;stroke-linejoin:round;}
  </style>
 </defs>
 <g id="figure_1">
  <g id="patch_1">
   <path d="
M0 432
L576 432
L576 0
L0 0
z
" style="fill:#ffffff;"/>
  </g>
  <g id="axes_1">
   <g id="line2d_1">
    <path clip-path="url(#p7ff5b81e1d)" d="
M72 223.324
L72.2232 260.303
L72.372 253.304
L72.4464 254.384
L72.6696 276.503
L72.744 284.84
L72.8184 284.063
L72.9672 239.394
L73.1904 175.415
L73.3392 173.168
L73.4136 175.328
L73.6368 194.034
L73.7856 184.789
L73.9344 197.576
L74.232 229.415
L74.3064 228.94
L74.4552 222.373
L74.6784 248.984
L74.9016 271.924
L74.976 265.573
L75.1992 228.853
L75.2736 228.637
L75.7944 186.085
L75.8688 187.727
L75.9432 191.442
L76.3896 144.786
L76.6872 192.608
L77.0592 260.821
L77.1336 264.493
L77.208 264.148
L77.3568 258.359
L77.5056 264.839
L78.0264 209.197
L78.1008 209.37
L78.2496 215.202
L78.3984 218.096
L78.696 254.644
L78.7704 249.589
L79.2168 189.541
L79.2912 189.541
L79.44 193.991
L79.6632 184.876
L79.7376 185.005
L80.1096 248.984
L80.184 238.487
L80.4072 190.794
L80.7048 211.314
L80.7792 211.271
L80.8536 211.703
L80.928 209.197
L81.1512 194.077
L81.2256 192.868
L81.3 194.293
L81.4488 211.919
L81.5976 226.434
L81.7464 225.527
L81.9696 253.52
L82.044 248.12
L82.2672 215.591
L82.3416 216.152
L82.416 214.727
L82.7136 199.65
L82.788 199.866
L83.3088 236.24
L83.4576 259.698
L83.532 257.365
L83.9784 201.551
L84.2016 213.992
L84.4992 187.381
L84.7968 223.756
L84.8712 221.639
L84.9456 219.133
L85.0944 231.359
L85.2432 246.349
L85.3176 240.128
L85.6152 181.895
L85.6896 179.994
L85.764 184.098
L86.0616 220.775
L86.136 221.164
L86.2104 215.85
L86.4336 172.564
L86.508 174.81
L86.7312 190.405
L87.1776 282.551
L87.252 277.583
L87.4752 239.221
L87.624 246.695
L87.6984 242.634
L88.0704 191.917
L88.1448 192.436
L88.2936 203.063
L88.5912 241.338
L88.6656 232.568
L88.9632 166.559
L89.7816 255.378
L89.856 253.564
L90.1536 214.338
L90.228 220.861
L90.5256 240.085
L90.6744 221.509
L90.8976 195.028
L90.972 196.712
L91.0464 192.824
L91.4184 154.722
L91.6416 178.914
L92.46 285.1
L92.5344 284.279
L93.0552 214.684
L93.2784 205.741
L93.4272 199.996
L93.7992 176.624
L93.8736 177.445
L94.2456 213.215
L94.4688 237.32
L94.6176 242.504
L94.8408 197.058
L94.9152 202.588
L95.2872 250.712
L95.436 238.141
L95.6592 221.552
L96.18 190.319
L96.4776 167.682
L96.6264 170.49
L96.924 184.66
L97.0728 200.816
L97.3704 269.461
L97.5936 301.472
L97.668 302.984
L97.7424 302.596
L97.8168 298.967
L99.0072 127.808
L99.156 147.767
L99.4536 201.421
L99.528 204.013
L99.9744 264.277
L100.049 261.858
L100.198 249.373
L100.272 249.546
L100.57 275.336
L100.644 269.375
L101.239 155.629
L101.314 145.564
L101.537 175.544
L101.983 267.906
L102.281 230.538
L102.355 230.84
L102.43 230.365
L102.504 228.248
L102.653 218.615
L102.727 218.442
L102.802 217.405
L103.099 226.391
L103.174 223.54
L103.322 202.458
L103.546 140.984
L103.694 154.895
L104.513 283.026
L104.662 272.788
L105.034 234.642
L105.48 217.535
L105.629 210.061
L105.926 163.146
L106.075 148.544
L106.15 148.847
L106.224 152.562
L106.447 189.196
L106.819 267.128
L106.894 266.178
L107.042 259.568
L107.563 209.068
L107.638 212.394
L107.861 223.151
L107.935 221.293
L108.307 194.725
L108.605 163.319
L108.754 165.997
L109.051 191.399
L109.423 269.202
L109.498 265.962
L109.572 267.388
L109.721 275.639
L109.795 275.682
L109.944 262.074
L110.093 265.4
L110.242 247.559
L110.539 170.447
L110.688 162.412
L110.762 163.362
L110.986 169.108
L111.06 167.596
L111.134 171.57
L111.581 225.44
L111.73 216.93
L112.027 261.772
L112.102 261.426
L112.325 228.032
L112.474 207.599
L112.548 212.048
L112.697 232.309
L112.771 231.618
L113.069 183.623
L113.143 185.524
L113.441 227.384
L113.515 218.269
L113.738 155.24
L113.962 201.421
L114.185 244.06
L114.482 224.792
L114.557 227.687
L114.78 257.236
L114.854 256.112
L115.003 261.167
L115.078 260.994
L115.45 232.18
L115.673 176.97
L115.896 149.884
L116.194 197.058
L116.342 195.632
L116.491 218.917
L116.64 245.269
L117.384 200.557
L117.607 233.173
L117.682 228.767
L117.905 208.895
L118.054 221.768
L118.202 243.757
L118.277 240.906
L118.5 197.965
L118.574 198.484
L118.649 200.946
L118.946 193.213
L119.021 194.336
L119.17 204.704
L119.467 266.221
L119.542 263.413
L119.839 223.237
L119.914 224.749
L120.062 236.975
L120.137 233.26
L120.434 177.359
L120.509 177.877
L120.583 181.376
L120.658 180.21
L120.732 179.432
L120.881 170.49
L120.955 173.687
L121.178 211.66
L121.625 291.234
L121.848 257.624
L122.071 225.613
L122.22 216.282
L122.518 170.576
L122.592 170.231
L122.666 171.959
L122.815 183.493
L122.964 176.236
L123.113 165.479
L123.262 180.772
L123.485 214.727
L123.708 258.445
L123.857 264.45
L124.006 254.428
L124.08 246.522
L124.154 249.287
L124.303 267.431
L124.378 267.172
L124.526 242.98
L124.75 198.008
L124.824 199.52
L125.047 232.352
L125.122 228.81
L125.419 157.184
L125.568 172.348
L125.642 170.576
L125.791 161.764
L125.866 162.757
L126.089 209.024
L126.312 259.698
L126.386 258.316
L126.461 249.892
L126.684 196.799
L126.758 199.391
L127.056 256.588
L127.354 241.424
L127.502 227.687
L127.651 238.616
L127.726 245.356
L127.8 244.319
L128.098 211.919
L128.172 214.381
L128.321 227.989
L128.395 222.416
L128.693 153.599
L128.842 172.564
L128.99 190.664
L129.214 173.471
L129.288 178.482
L129.437 217.189
L129.66 263.37
L129.958 228.119
L130.032 230.668
L130.255 262.16
L130.33 260.044
L130.627 212.567
L130.925 174.378
L130.999 176.063
L131.222 200.255
L131.446 176.452
L131.52 184.055
L131.818 246.306
L132.041 234.08
L132.338 268.295
L132.487 246.479
L132.71 214.511
L132.859 237.623
L132.934 249.719
L133.008 247.343
L133.306 158.264
L133.529 190.924
L133.603 183.45
L133.752 156.493
L133.826 157.184
L133.975 201.292
L134.198 258.488
L134.645 195.892
L134.794 206.821
L135.017 227.946
L135.091 229.156
L135.24 249.114
L135.389 274.17
L135.686 230.624
L135.91 184.228
L135.984 187.252
L136.133 203.797
L136.356 188.332
L136.505 167.984
L136.579 168.33
L136.951 245.226
L137.174 217.232
L137.323 235.333
L137.472 249.848
L137.621 232.439
L137.77 211.228
L137.844 213.517
L138.067 245.528
L138.216 224.879
L138.662 160.813
L138.737 161.72
L139.034 201.81
L139.481 273.565
L139.63 254.816
L139.853 211.962
L139.927 213.604
L140.002 217.967
L140.076 216.8
L140.448 176.884
L140.82 196.972
L141.043 188.159
L141.118 183.58
L141.266 201.378
L141.713 277.972
L141.936 324.628
L142.085 281.773
L142.308 205.136
L142.382 206.908
L142.457 212.178
L142.531 207.988
L142.903 154.117
L143.201 185.74
L143.275 186.172
L143.498 196.712
L143.945 258.488
L144.019 257.236
L144.317 210.925
L144.391 217.535
L144.54 241.813
L144.614 240.301
L144.912 200.212
L145.061 199.002
L145.21 205.223
L145.433 232.439
L145.73 208.333
L145.954 212.826
L146.102 191.226
L146.251 172.434
L146.326 175.631
L146.474 212.61
L146.623 242.116
L146.698 240.863
L146.921 230.624
L147.144 223.669
L147.218 224.922
L147.367 222.546
L147.59 233.476
L147.814 270.196
L147.888 266.437
L148.334 201.421
L148.558 223.237
L149.004 150.1
L149.078 153.642
L149.302 195.719
L149.525 228.378
L149.599 225.656
L149.674 226.866
L149.897 242.98
L150.046 239.524
L150.194 221.25
L150.269 215.029
L150.492 248.466
L150.566 244.319
L151.087 173.039
L151.31 201.724
L151.385 201.205
L151.608 219.911
L151.831 204.056
L151.98 196.237
L152.054 203.365
L152.426 273.954
L152.501 287.908
L152.575 286.828
L153.17 198.354
L153.245 193.213
L153.319 194.164
L153.617 212.135
L153.691 212.653
L153.84 196.367
L154.212 151.352
L154.361 184.66
L154.584 237.493
L154.658 239.394
L154.807 234.944
L155.03 269.116
L155.105 268.597
L155.328 242.548
L155.551 206
L155.849 223.021
L155.923 223.151
L156.072 195.373
L156.221 171.829
L156.295 171.527
L156.444 174.896
L156.518 174.68
L156.667 169.712
L156.742 174.076
L156.89 208.204
L157.114 299.356
L157.188 300.997
L157.411 261.556
L157.709 207.944
L157.783 206.735
L157.858 209.845
L157.932 209.543
L158.006 206.303
L158.23 179.864
L158.378 195.676
L158.676 231.575
L158.899 206.994
L159.271 236.327
L159.346 238.919
L159.494 227.082
L159.792 185.74
L160.015 216.023
L160.09 211.271
L160.164 215.332
L160.313 234.08
L160.387 232.871
L160.536 234.642
L160.61 227.298
L160.759 182.37
L160.834 183.061
L160.982 198.743
L161.057 197.706
L161.28 157.141
L161.652 241.597
L161.726 241.295
L161.801 240.776
L161.95 249.676
L162.173 265.832
L162.247 270.844
L162.322 267.301
L162.545 225.527
L162.619 227.471
L162.694 229.933
L162.917 201.032
L162.991 201.853
L163.066 198.397
L163.289 170.749
L163.363 172.002
L164.182 241.727
L164.405 265.012
L164.479 267.906
L164.554 265.141
L165 202.976
L165.149 189.628
L165.223 190.664
L165.298 186.69
L165.521 158.351
L165.67 171.656
L165.967 193.991
L166.265 229.156
L166.562 301.732
L166.86 262.247
L167.083 223.453
L167.158 222.2
L167.604 161.807
L167.678 163.405
L167.827 182.629
L167.976 206.864
L168.125 193.386
L168.199 181.16
L168.274 186.69
L168.646 260.735
L168.794 250.928
L169.018 240.69
L169.166 242.85
L169.464 204.056
L169.613 204.877
L169.985 185.48
L170.059 188.764
L170.282 208.117
L170.431 210.536
L170.654 201.853
L171.026 235.765
L171.101 234.08
L171.324 214.684
L171.622 228.594
L171.696 227.773
L171.77 229.026
L171.919 217.189
L172.291 241.856
L172.44 261.037
L172.514 257.711
L172.886 159.172
L172.961 162.196
L173.184 182.327
L173.333 175.933
L173.482 195.33
L173.779 230.668
L173.854 231.488
L173.928 222.719
L174.002 225.138
L174.3 249.2
L174.523 277.842
L174.598 276.416
L175.044 213.301
L175.49 158.437
L175.565 159.69
L175.788 200.471
L175.862 199.693
L176.011 188.504
L176.16 163.664
L176.383 206.605
L176.904 270.455
L177.053 276.416
L177.202 254.773
L177.425 226.996
L178.02 191.831
L178.094 192.522
L178.243 196.756
L178.392 193.429
L178.466 195.719
L178.615 186.344
L178.764 211.012
L178.987 253.736
L179.062 257.538
L179.136 252.656
L179.434 201.551
L179.657 221.336
L180.029 186.992
L180.178 203.538
L180.401 243.455
L180.475 244.967
L180.698 220.818
L180.922 184.573
L180.996 186.301
L181.145 198.052
L181.219 197.836
L181.294 194.855
L181.368 199.909
L181.666 255.594
L181.889 228.464
L182.112 194.898
L182.186 192.263
L182.41 211.444
L182.633 244.967
L182.707 244.06
L183.079 198.916
L183.228 174.594
L183.302 174.896
L183.6 197.101
L183.823 234.944
L183.898 238.487
L184.046 226.391
L184.344 245.269
L184.418 246.695
L184.567 256.544
L184.642 253.564
L185.311 182.068
L185.386 181.765
L185.683 205.396
L186.13 235.204
L186.204 233.864
L186.427 220.472
L186.576 225.268
L186.799 205.093
L186.874 208.117
L187.097 218.701
L187.246 205.914
L187.394 179.605
L187.469 167.077
L187.543 171.916
L187.915 218.528
L187.99 218.053
L188.138 201.81
L188.213 202.544
L188.287 203.106
L188.362 205.352
L188.585 240.517
L188.882 272.053
L189.031 282.637
L189.18 291.364
L189.403 258.316
L189.85 145.132
L189.924 147.378
L190.147 189.152
L190.296 208.808
L190.37 209.068
L190.519 201.292
L190.594 206.303
L190.817 237.709
L190.966 206.951
L191.114 175.976
L192.007 259.352
L192.156 258.359
L192.23 258.316
L192.305 255.94
L192.454 235.376
L192.602 242.72
L192.751 236.456
L192.974 188.548
L193.198 158.092
L193.421 185.696
L193.644 207.426
L193.942 192.306
L194.314 244.578
L194.388 244.362
L194.686 257.711
L194.834 278.231
L194.983 264.32
L195.43 134.677
L195.504 134.98
L195.802 160.856
L195.95 170.36
L196.099 192.868
L196.471 258.013
L196.769 271.837
L196.918 291.839
L196.992 288.944
L197.215 259.352
L197.736 171.268
L197.885 151.914
L197.959 152.044
L198.554 232.525
L198.703 259.266
L199.298 217.924
L199.373 215.591
L199.522 223.194
L199.67 207.815
L199.968 181.42
L200.042 177.186
L200.34 187.986
L200.489 195.157
L200.786 229.112
L200.935 235.074
L201.158 250.626
L201.382 222.244
L201.456 226.693
L201.754 293.869
L201.828 286.266
L202.349 174.594
L202.498 161.764
L202.646 138.738
L202.721 143.749
L203.316 238.228
L203.465 253.866
L203.688 244.794
L203.762 249.46
L203.986 270.93
L204.06 264.32
L204.432 172.909
L204.73 201.68
L204.804 198.008
L205.027 166.904
L205.474 217.578
L205.548 214.036
L205.622 206
L205.697 208.29
L206.069 264.148
L206.143 271.189
L206.218 269.677
L206.441 225.008
L206.515 226.088
L206.664 248.466
L206.813 278.144
L206.887 269.375
L207.185 204.402
L207.259 199.391
L207.334 201.551
L207.408 200.212
L207.706 129.32
L207.78 141.719
L208.078 213.992
L208.152 222.46
L208.301 198.7
L208.375 198.786
L208.45 201.896
L208.524 201.594
L208.598 198.743
L208.673 202.674
L208.822 216.412
L208.896 212.567
L209.566 270.887
L209.64 268.468
L209.863 220.948
L209.938 223.583
L210.161 260.044
L210.458 201.335
L210.905 127.679
L210.979 127.722
L211.426 221.336
L211.649 245.572
L211.946 280.607
L212.021 281.816
L212.17 269.116
L212.542 206.648
L212.69 195.287
L212.765 197.274
L212.839 197.188
L212.988 186.863
L213.211 163.232
L213.583 220.645
L213.658 225.052
L213.732 223.237
L213.806 221.768
L213.881 223.324
L214.104 236.284
L214.327 204.964
L214.402 208.247
L214.699 258.143
L214.774 256.199
L215.146 212.696
L215.369 223.237
L215.741 167.077
L215.964 200.428
L216.187 231.834
L216.336 251.274
L216.485 240.647
L216.634 245.312
L216.782 232.266
L216.931 241.381
L217.154 186.776
L217.229 191.701
L217.378 213.215
L217.452 212.221
L217.601 186.172
L217.824 138.738
L218.122 220.775
L218.196 219.997
L218.345 209.197
L218.494 229.933
L218.791 295.468
L218.94 274.429
L219.238 221.034
L219.386 221.38
L219.61 207.124
L219.833 176.97
L219.907 177.488
L220.056 185.567
L220.354 221.034
L220.502 225.138
L220.651 209.672
L220.726 209.802
L221.023 220.602
L221.172 230.754
L221.321 226.304
L221.916 192.738
L221.99 196.496
L222.139 217.405
L222.362 192.047
L222.437 194.034
L222.586 192.695
L222.734 206.562
L222.809 217.578
L222.883 216.368
L223.032 213.344
L223.181 214.813
L223.33 213.517
L223.478 236.24
L223.702 280.564
L223.925 276.632
L223.999 277.885
L224.297 236.975
L224.594 187.554
L224.669 182.932
L224.743 183.364
L224.966 197.188
L225.041 197.101
L225.19 202.588
L225.264 200.816
L225.338 198.181
L225.487 207.34
L225.562 205.568
L225.859 162.239
L226.008 157.314
L226.157 178.482
L226.306 200.341
L226.38 202.285
L226.529 231.488
L226.678 248.25
L226.752 249.114
L226.901 287.432
L226.975 279.311
L227.124 245.528
L227.198 247.084
L227.273 245.485
L227.422 247.904
L227.645 217.06
L227.942 184.055
L228.166 211.228
L228.24 208.463
L228.463 202.976
L228.538 208.679
L228.761 250.41
L228.835 249.244
L228.91 250.194
L228.984 243.93
L229.282 182.5
L229.356 190.232
L229.579 233
L229.877 157.4
L229.951 160.727
L230.174 202.242
L230.323 218.744
L230.398 214.252
L230.472 214.77
L230.621 218.226
L230.695 219.133
L230.844 228.292
L230.918 227.514
L230.993 227.946
L231.142 236.37
L231.216 234.469
L231.29 234.988
L231.439 277.237
L231.588 303.762
L231.737 262.204
L232.034 156.839
L232.332 154.376
L232.406 155.456
L232.704 194.552
L233.225 278.576
L233.671 233.735
L233.894 209.413
L234.043 211.487
L234.192 220.472
L234.341 187.381
L234.564 151.352
L234.638 153.08
L234.787 162.973
L235.382 249.848
L235.457 247.602
L235.68 229.285
L235.754 230.624
L235.978 246.436
L236.201 228.81
L236.35 232.784
L236.424 232.309
L236.498 230.668
L236.573 231.488
L236.647 230.927
L236.945 212.653
L237.168 228.508
L237.242 227.514
L237.391 218.399
L237.763 175.674
L237.986 155.845
L238.061 155.802
L238.21 160.468
L238.507 210.45
L238.805 258.229
L238.954 239.048
L239.102 209.543
L239.549 262.16
L239.623 264.32
L239.921 236.5
L240.07 223.453
L240.367 181.463
L240.442 178.223
L240.516 180.728
L240.739 219.349
L241.111 201.94
L241.409 241.122
L241.483 237.407
L241.781 204.791
L241.93 249.503
L242.004 269.288
L242.078 268.036
L242.822 138.22
L242.897 142.626
L243.492 235.074
L243.566 237.839
L243.715 231.575
L244.013 213.517
L244.087 217.016
L244.608 305.101
L244.757 264.148
L245.054 184.746
L245.129 180.944
L245.352 191.096
L245.426 190.492
L245.65 185.264
L245.724 189.239
L245.873 208.679
L245.947 203.624
L246.17 156.061
L246.245 161.548
L246.468 219.565
L246.542 219.004
L246.617 220.343
L246.989 257.797
L247.063 252.138
L247.212 226.175
L247.435 246.004
L247.51 245.96
L247.584 246.133
L247.733 219.306
L247.882 193.516
L248.03 192.263
L248.179 182.802
L248.477 224.533
L248.626 212.524
L248.7 213.906
L249.072 248.034
L249.37 189.93
L249.667 239.653
L249.816 234.772
L250.039 226.175
L250.114 225.44
L250.262 235.247
L250.337 231.92
L250.783 176.84
L250.932 191.874
L251.081 206.346
L251.155 204.488
L251.304 192.522
L251.453 208.679
L251.676 233.26
L252.048 180.599
L252.122 182.413
L252.346 234.167
L252.494 267.517
L252.569 264.234
L252.792 215.98
L252.866 222.589
L253.09 259.266
L253.238 253.952
L253.313 248.941
L253.536 207.512
L253.61 211.962
L253.685 217.794
L253.759 217.146
L253.908 200.946
L253.982 201.551
L254.206 166.084
L254.28 172.002
L254.503 218.096
L254.801 172.65
L254.875 157.876
L254.95 158.264
L255.173 205.309
L255.396 213.733
L255.619 237.536
L255.768 276.157
L255.917 310.631
L256.066 284.495
L256.289 242.116
L256.438 234.296
L256.735 188.116
L256.884 193.991
L256.958 194.077
L257.033 198.181
L257.182 214.554
L257.256 208.247
L257.554 157.184
L257.628 158.178
L257.702 163.708
L258.149 233.908
L258.223 238.746
L258.372 223.194
L258.446 226.823
L258.521 233.432
L258.67 220.602
L258.967 194.077
L259.042 199.088
L259.19 231.445
L259.339 284.106
L259.414 280.65
L259.86 209.975
L259.934 207.21
L260.158 219.263
L260.232 212.696
L260.306 213.517
L260.604 236.327
L260.753 212.653
L261.05 160.122
L261.125 158.264
L261.274 150.834
L261.497 165.09
L261.646 207.34
L261.869 250.496
L261.943 254.082
L262.018 253.132
L262.39 223.842
L262.464 226.78
L262.687 271.319
L263.134 195.935
L263.282 179.476
L263.431 162.671
L263.506 165.911
L263.803 230.063
L264.101 300.522
L264.324 255.767
L264.622 213.906
L264.845 201.335
L265.142 168.028
L265.217 169.108
L265.291 176.365
L265.366 173.6
L265.589 156.364
L265.663 157.876
L265.738 163.88
L265.961 228.724
L266.184 306.052
L266.258 305.274
L266.854 212.221
L267.077 161.807
L267.151 157.012
L267.226 159.215
L268.044 245.096
L268.193 224.836
L268.49 153.901
L268.565 155.629
L268.788 202.415
L269.16 277.842
L269.234 277.928
L269.309 276.416
L269.532 286.741
L269.681 252.052
L270.053 158.178
L270.276 175.588
L270.499 204.964
L270.574 203.581
L270.797 218.96
L270.871 217.924
L271.02 209.975
L271.243 196.496
L271.318 198.613
L271.466 213.215
L271.69 239.61
L271.838 219.176
L271.913 220.559
L272.136 233.432
L272.285 224.836
L272.508 202.415
L272.657 221.12
L272.731 220.386
L272.88 211.184
L272.954 212.783
L273.029 216.8
L273.252 247.732
L273.326 247.775
L273.475 243.887
L273.55 244.621
L273.698 248.941
L273.847 228.421
L274.07 193.861
L274.219 219.09
L274.294 218.442
L274.517 213.863
L274.963 136.448
L275.038 140.423
L275.782 265.487
L276.005 243.714
L276.154 252.656
L276.451 221.768
L276.6 209.543
L276.823 193.17
L276.972 188.936
L277.493 219.004
L277.567 219.868
L277.716 257.106
L277.865 287
L278.014 283.285
L278.162 260.605
L278.609 131.869
L278.981 189.584
L279.204 234.124
L279.278 233.735
L279.427 229.76
L279.65 189.757
L279.725 192.911
L279.948 223.583
L280.097 244.578
L280.171 246.565
L280.246 244.189
L280.469 261.858
L280.618 241.554
L280.915 191.485
L281.064 183.191
L281.138 185.264
L281.362 226.045
L281.436 223.064
L281.659 206.735
L281.882 187.554
L281.957 191.788
L282.18 230.84
L282.403 276.2
L282.478 273.522
L282.552 265.184
L282.626 265.746
L282.701 262.808
L282.85 232.612
L283.073 184.357
L283.147 180.858
L283.37 193.775
L283.445 192.824
L283.519 192.263
L283.742 199.391
L283.817 195.762
L283.891 196.669
L284.114 210.45
L284.635 178.784
L284.71 183.018
L284.933 219.349
L285.156 281.816
L285.379 265.098
L285.602 242.893
L285.677 244.06
L285.974 261.469
L286.049 260.951
L286.123 257.538
L287.016 111.176
L287.165 151.828
L287.462 218.399
L287.537 219.349
L287.611 218.788
L287.686 211.141
L287.76 211.314
L287.909 252.786
L288.058 296.764
L288.206 271.103
L288.578 217.448
L288.653 219.738
L288.876 247.732
L288.95 246.392
L289.248 217.189
L289.397 223.237
L289.546 215.504
L289.62 217.664
L289.769 178.136
L289.843 178.18
L290.141 238.789
L290.587 171.008
L290.81 229.631
L290.885 228.94
L291.034 213.215
L291.257 190.621
L291.406 197.836
L291.629 217.621
L291.778 208.636
L292.075 240.172
L292.15 238.487
L292.224 237.45
L292.298 239.826
L292.373 237.709
L292.596 202.501
L292.67 205.871
L292.745 209.284
L292.894 206.26
L293.117 224.015
L293.34 194.941
L293.414 196.367
L293.935 233.346
L294.084 216.196
L294.605 273.09
L294.679 266.178
L295.2 156.277
L295.274 152.044
L295.349 154.29
L295.646 191.572
L295.795 190.794
L295.944 201.94
L296.018 201.853
L296.093 200.384
L296.167 203.581
L296.762 262.031
L296.837 264.061
L296.986 286.482
L297.06 286.18
L297.283 249.46
L297.581 186.388
L297.73 189.714
L298.027 212.783
L298.102 213.344
L298.25 203.322
L298.474 158.135
L298.548 161.461
L298.994 251.965
L299.069 249.848
L299.218 226.736
L299.366 208.376
L299.441 209.37
L299.515 207.383
L299.59 207.469
L299.664 211.53
L299.738 209.888
L299.813 207.556
L299.887 211.055
L300.11 235.333
L300.259 240.949
L300.408 225.57
L300.631 187.597
L300.854 211.573
L300.929 210.32
L301.078 219.781
L301.301 247.429
L301.598 213.949
L301.896 166.3
L301.97 168.287
L302.417 238.487
L302.491 237.709
L302.64 231.748
L302.789 221.596
L302.938 233.735
L303.012 234.037
L303.086 230.322
L303.31 245.312
L303.384 244.88
L303.607 235.765
L303.682 228.594
L304.054 143.965
L304.128 145.909
L304.426 191.053
L304.649 231.575
L304.798 219.652
L305.021 245.96
L305.095 243.628
L305.244 232.525
L305.393 243.023
L305.616 254.212
L305.69 253.175
L305.839 237.234
L305.988 215.677
L306.062 216.368
L306.137 215.504
L306.583 182.586
L306.881 199.132
L307.03 216.498
L307.104 214.813
L307.178 216.671
L307.55 260.778
L307.625 258.186
L308.22 184.919
L308.518 144.743
L308.666 166.343
L309.038 236.759
L309.113 245.356
L309.262 224.836
L309.336 215.029
L309.41 217.276
L309.634 231.229
L309.708 230.365
L309.782 228.205
L309.857 229.156
L310.08 250.54
L310.154 249.114
L310.675 209.068
L310.898 211.098
L310.973 211.098
L311.047 209.932
L311.345 195.114
L311.494 183.32
L311.866 213.906
L312.089 238.919
L312.312 235.031
L312.461 235.981
L312.684 211.012
L312.758 213.992
L312.833 220.818
L312.907 219.652
L313.205 192.695
L313.279 186.344
L313.354 188.029
L313.577 212.826
L313.651 207.642
L313.8 201.119
L313.949 218.831
L314.172 248.898
L314.395 249.287
L314.544 251.447
L314.618 251.144
L314.767 225.138
L315.065 151.352
L315.139 158.912
L315.511 251.447
L315.586 254.514
L315.734 220.732
L315.958 185.956
L316.255 200.989
L316.404 222.589
L316.553 215.159
L316.627 221.682
L316.85 255.421
L317.074 228.853
L317.148 231.272
L317.52 223.28
L317.594 225.613
L317.669 235.16
L317.743 233.692
L318.041 170.922
L318.338 151.439
L318.636 209.413
L318.859 262.852
L318.934 263.24
L319.082 248.164
L319.157 249.892
L319.231 248.941
L319.454 220.472
L319.678 246.479
L319.752 243.152
L319.901 211.53
L320.124 167.552
L320.273 179
L320.347 177.661
L320.422 178.957
L320.794 248.898
L320.868 248.207
L320.942 244.319
L321.017 246.522
L321.166 254.039
L321.314 243.455
L321.389 232.612
L321.463 233.778
L321.612 250.842
L321.686 243.671
L322.207 125.648
L322.356 151.871
L322.728 224.706
L323.1 258.964
L323.249 246.349
L323.398 235.852
L323.546 252.786
L323.695 243.628
L323.77 243.8
L324.067 259.698
L324.142 253.78
L324.588 169.324
L324.662 168.632
L324.811 178.18
L325.109 148.156
L325.183 153.34
L325.853 249.719
L325.927 251.706
L326.15 217.232
L326.225 220.127
L326.597 257.322
L326.671 256.717
L326.82 248.898
L327.118 214.252
L327.192 213.604
L327.266 210.536
L327.341 211.703
L327.713 261.383
L327.787 255.508
L328.457 136.319
L328.606 154.981
L328.829 206.908
L329.126 194.596
L329.275 210.277
L329.573 259.871
L329.647 256.026
L330.094 204.186
L330.168 204.575
L330.763 322.64
L330.986 258.575
L331.284 175.156
L331.358 172.132
L331.582 189.541
L331.879 136.492
L332.028 165.176
L332.4 231.316
L332.474 233.087
L332.623 228.205
L332.772 241.684
L333.218 197.533
L333.293 203.408
L333.59 256.631
L333.962 213.604
L334.111 219.263
L334.186 217.621
L334.26 216.973
L334.334 212.783
L334.632 154.679
L335.078 213.69
L335.45 312.143
L335.525 309.205
L335.748 263.586
L335.971 214.122
L336.046 218.053
L336.12 216.93
L336.194 216.066
L336.343 202.415
L336.715 144.959
L336.938 156.191
L337.013 153.815
L337.087 155.543
L337.534 200.384
L337.906 269.591
L338.129 286.828
L338.203 283.847
L338.426 259.309
L338.575 265.228
L338.947 220.127
L339.022 224.058
L339.17 233.173
L339.319 196.799
L339.542 148.847
L339.914 225.008
L339.989 224.36
L340.063 221.077
L340.286 199.218
L340.361 200.255
L340.584 196.799
L340.658 193.991
L340.807 167.077
L340.882 170.231
L341.254 224.576
L341.477 190.276
L341.7 198.397
L341.849 221.552
L341.998 206.044
L342.072 209.975
L342.146 208.722
L342.221 203.581
L342.295 207.685
L342.667 308.255
L342.742 308.514
L342.965 288.253
L343.039 285.186
L343.262 230.797
L343.486 203.408
L343.56 203.97
L343.709 216.498
L343.783 212.394
L344.006 183.018
L344.081 183.061
L344.155 180.685
L344.378 139.3
L344.453 142.237
L344.825 176.236
L344.899 173.384
L344.974 173.384
L345.42 255.594
L345.494 248.596
L345.569 246.954
L345.718 257.97
L345.866 253.736
L346.015 260.216
L346.09 259.007
L346.313 238.789
L346.536 196.021
L346.61 198.311
L346.759 210.666
L346.834 209.197
L346.982 212.999
L347.057 210.536
L347.131 215.764
L347.28 240.172
L347.354 234.815
L347.429 236.629
L347.503 242.72
L347.578 239.74
L347.95 152.389
L348.024 159.128
L348.322 222.416
L348.396 225.181
L348.47 224.36
L348.694 208.247
L348.991 233.389
L349.066 233.476
L349.14 231.229
L349.214 232.136
L349.289 232.309
L349.363 226.952
L349.586 186.69
L349.884 179.692
L349.958 181.204
L350.033 179.864
L350.107 180.383
L350.33 252.397
L350.554 303.589
L350.628 303.287
L350.777 295.813
L351.149 222.719
L351.595 162.844
L351.893 124.352
L351.967 127.765
L352.265 201.983
L352.414 230.149
L352.488 228.162
L352.637 205.093
L352.711 210.536
L353.158 286.914
L353.381 273.479
L353.678 243.282
L353.753 245.528
L353.827 246.392
L353.976 231.618
L354.571 143.49
L354.646 145.564
L354.869 186.172
L355.092 221.855
L355.166 219.738
L355.39 200.125
L355.836 241.381
L356.059 231.834
L356.357 265.616
L356.506 232.655
L356.803 134.634
L356.878 137.788
L357.547 257.797
L357.696 288.037
L357.77 283.242
L357.845 284.538
L357.919 285.488
L358.217 265.357
L358.514 196.972
L358.738 148.285
L358.812 149.408
L358.961 166.17
L359.11 179.562
L359.184 179.821
L359.258 180.772
L359.333 183.148
L359.556 251.058
L359.705 288.772
L359.779 283.717
L360.151 208.42
L360.374 217.535
L360.449 219.263
L360.523 217.578
L360.821 196.194
L360.895 196.151
L360.97 197.576
L361.044 197.188
L361.193 192.133
L361.49 218.01
L361.565 220.343
L361.714 210.018
L361.788 202.069
L361.862 204.272
L362.011 218.788
L362.086 218.096
L362.16 216.93
L362.234 218.528
L362.383 211.444
L362.458 212.351
L362.755 173.341
L362.978 238.098
L363.202 273.436
L363.425 238.314
L363.648 221.466
L363.797 248.941
L363.871 258.316
L363.946 255.248
L364.169 232.439
L364.318 229.069
L364.466 234.167
L364.913 190.319
L365.136 142.41
L365.21 145.736
L365.508 207.599
L365.582 201.119
L365.657 206
L365.88 227.73
L365.954 234.383
L366.029 230.668
L366.252 171.959
L366.326 170.274
L366.55 139.386
L366.773 190.967
L366.996 253.304
L367.145 257.063
L367.219 254.644
L367.442 239.135
L367.591 251.274
L367.74 271.794
L367.889 292.789
L367.963 292.444
L368.038 290.672
L368.112 291.882
L368.186 287.692
L368.335 257.452
L368.633 189.239
L368.707 184.098
L368.782 185.696
L369.005 192.911
L369.079 192.652
L369.154 191.096
L369.302 178.568
L369.6 142.583
L369.749 158.696
L370.121 230.192
L370.27 253.391
L370.344 254.644
L370.567 249.46
L370.716 214.77
L370.939 170.62
L371.014 175.933
L371.311 213.776
L371.386 214.295
L371.46 214.122
L371.683 221.639
L371.832 247.3
L372.13 298.448
L372.278 305.101
L372.427 281.903
L372.874 185.869
L373.022 184.098
L373.171 175.933
L373.394 158.869
L373.469 160.122
L373.618 146.687
L373.692 148.199
L373.915 196.626
L374.213 250.928
L374.287 253.088
L374.362 252.311
L374.436 250.583
L374.659 236.629
L374.808 248.941
L374.882 253.866
L375.403 196.626
L375.478 194.984
L375.626 197.144
L375.775 186.949
L375.998 147.68
L376.147 172.261
L376.742 319.919
L376.817 317.759
L376.966 289.852
L377.486 156.32
L377.71 108.8
L378.305 232.741
L378.602 306.916
L378.677 308.644
L378.826 273.004
L379.272 113.423
L379.346 113.25
L379.57 146.903
L380.09 272.874
L380.239 281.73
L380.314 279.743
L380.611 269.072
L380.76 267.172
L380.834 269.85
L380.909 265.746
L381.058 247.818
L381.132 248.466
L381.206 243.757
L381.504 180.08
L381.727 118.78
L381.802 118.304
L382.099 170.101
L382.248 176.754
L382.322 175.501
L382.397 175.847
L382.471 175.544
L382.62 170.533
L382.769 210.925
L383.066 315.772
L383.141 318.104
L383.215 311.408
L383.29 312.1
L383.364 315.426
L383.438 307.693
L383.959 149.884
L384.034 160.122
L384.554 233.908
L385.001 248.293
L385.15 229.847
L385.67 100.333
L385.745 111.522
L386.117 224.447
L386.191 224.36
L386.266 218.788
L386.34 222.546
L386.712 299.053
L386.786 295.554
L387.233 234.815
L387.53 168.978
L387.754 128.716
L387.902 113.423
L388.051 143.274
L388.423 240.863
L388.795 299.226
L388.944 301.775
L389.242 284.02
L389.316 286.266
L389.465 276.719
L389.688 222.028
L389.911 189.196
L389.986 187.338
L390.134 167.941
L390.432 126.901
L390.506 124.05
L390.581 124.784
L390.953 166.3
L391.25 220.429
L391.92 266.178
L392.069 268.424
L392.143 267.69
L392.218 264.45
L392.738 199.348
L392.813 200.341
L393.11 204.92
L393.185 205.352
L393.557 185.653
L393.631 187.468
L393.854 205.568
L394.226 286.482
L394.375 273.436
L394.896 189.023
L394.97 190.232
L395.119 193.559
L395.194 192.608
L395.268 191.874
L395.417 182.759
L395.789 143.274
L395.863 144.354
L396.086 176.927
L396.607 305.058
L396.83 351.973
L397.128 297.282
L397.872 102.104
L397.946 94.5876
L398.021 98.8644
L398.467 209.932
L398.69 281.514
L398.765 283.199
L398.988 249.935
L399.286 194.855
L399.36 197.101
L399.658 249.503
L399.881 203.884
L399.955 206.173
L400.178 243.066
L400.253 240.085
L400.55 160.122
L400.625 164.399
L400.848 197.62
L401.071 182.154
L401.146 182.37
L401.22 191.356
L401.592 299.701
L401.666 301.991
L401.741 297.8
L401.815 298.492
L401.89 299.572
L402.038 264.623
L402.41 171.095
L402.485 171.656
L402.782 213.992
L402.857 209.629
L403.229 120.119
L403.303 130.573
L403.378 138.22
L403.452 134.634
L403.601 129.234
L403.75 154.031
L404.642 342.21
L404.717 342.988
L404.866 310.717
L405.089 266.999
L405.163 264.58
L405.312 235.938
L405.684 116.533
L405.758 118.434
L406.13 177.834
L406.279 170.792
L406.354 175.544
L406.8 253.909
L407.098 223.842
L407.246 216.282
L407.321 226.175
L407.47 270.196
L407.544 264.752
L407.842 195.546
L407.916 189.887
L408.214 133.77
L408.288 138.954
L408.809 262.895
L408.883 257.063
L409.032 235.895
L409.181 216.196
L409.33 236.413
L409.553 266.696
L409.627 261.944
L409.85 218.658
L409.999 231.013
L410.074 227.168
L410.371 201.594
L410.446 200.86
L410.52 205.655
L410.743 243.844
L410.818 241.036
L411.19 175.847
L411.338 142.972
L411.413 140.207
L411.487 144.44
L411.859 197.144
L412.231 223.064
L412.306 223.496
L412.454 237.666
L412.826 320.869
L412.901 329.898
L412.975 320.308
L413.347 192.522
L413.496 164.831
L413.645 181.636
L413.719 180.512
L413.794 181.549
L414.017 208.808
L414.24 230.97
L414.612 159.215
L414.761 174.896
L415.207 244.621
L415.505 179.432
L415.654 180.167
L415.728 181.247
L415.877 210.407
L416.1 256.328
L416.323 265.271
L416.398 262.765
L416.844 151.223
L416.918 153.944
L417.29 278.274
L417.365 275.898
L417.514 285.1
L417.662 279.872
L417.811 236.672
L418.034 171.181
L418.109 167.207
L418.183 172.434
L418.406 219.176
L418.481 219.911
L418.704 189.455
L418.778 195.416
L418.927 238.832
L419.002 238.616
L419.299 152.303
L419.374 153.34
L419.671 226.866
L419.82 220.645
L420.118 138.004
L420.192 145.175
L420.49 223.626
L420.638 241.943
L420.936 307.434
L421.01 307.088
L421.308 275.293
L421.457 285.1
L421.606 256.804
L421.829 226.477
L421.903 228.292
L421.978 225.354
L422.052 217.751
L422.126 221.207
L422.201 226.045
L422.275 221.293
L422.573 157.616
L422.796 86.3364
L422.87 87.114
L422.945 94.242
L423.019 92.5572
L423.168 87.0276
L423.317 124.093
L423.763 336.508
L423.838 345.061
L423.912 343.852
L424.284 288.728
L424.73 155.024
L424.879 141.632
L424.954 142.54
L425.102 131.783
L425.177 132.301
L425.251 137.788
L425.698 231.1
L425.772 228.248
L425.846 222.373
L425.995 246.695
L426.218 286.957
L426.293 290.845
L426.367 290.024
L426.442 288.21
L426.59 296.159
L426.665 291.104
L427.26 154.333
L427.409 144.181
L427.483 145.434
L427.558 151.093
L427.632 150.661
L427.706 143.533
L427.781 144.786
L428.078 209.413
L428.153 208.204
L428.302 207.426
L428.45 213.906
L428.674 256.76
L428.748 255.119
L429.046 233.044
L429.12 236.24
L429.269 257.192
L429.418 270.066
L429.79 209.586
L429.864 212.826
L430.162 263.154
L430.682 198.397
L430.98 110.572
L431.054 104.524
L431.129 113.639
L431.426 183.148
L431.575 192.522
L431.947 243.368
L432.245 257.236
L432.468 271.708
L432.617 276.503
L432.766 267.69
L432.84 270.066
L432.914 269.159
L433.063 247.818
L433.286 204.704
L433.435 192.133
L433.51 181.679
L433.584 183.32
L433.733 195.935
L434.03 142.712
L434.105 141.978
L434.179 143.144
L434.328 175.501
L434.923 302.423
L434.998 291.839
L435.518 137.485
L435.593 141.373
L436.262 262.42
L436.337 262.981
L436.783 224.62
L437.081 175.631
L437.155 172.564
L437.304 209.5
L437.527 241.943
L437.899 282.378
L437.974 276.978
L438.197 245.658
L438.271 247.688
L438.42 226.78
L438.643 196.108
L438.718 195.33
L438.866 177.834
L439.015 156.709
L439.09 163.276
L439.313 197.101
L439.834 147.551
L439.908 139.256
L439.982 141.503
L440.28 220.343
L440.652 303.848
L440.726 305.879
L440.875 294.733
L441.322 249.114
L441.917 129.796
L442.214 165.868
L442.289 164.615
L442.363 158.437
L442.438 158.826
L443.182 284.236
L443.256 278.749
L443.33 280.65
L443.405 284.884
L443.777 269.202
L444 232.396
L444.074 233.432
L444.149 229.76
L444.521 166.3
L444.893 129.061
L444.967 125.26
L445.265 189.325
L445.339 188.893
L445.414 188.893
L445.562 207.772
L445.786 243.973
L446.158 276.676
L446.232 275.855
L446.455 252.829
L446.53 252.008
L446.604 246.608
L446.678 252.656
L446.827 284.581
L446.902 274.645
L447.274 179.13
L447.571 142.799
L447.72 120.464
L447.794 122.581
L447.943 162.196
L448.241 249.157
L448.315 249.244
L448.687 223.324
L448.91 238.228
L449.059 256.026
L449.134 255.853
L449.208 250.799
L449.282 252.786
L449.431 258.575
L449.58 233.519
L449.729 206.303
L449.803 205.309
L449.878 199.088
L449.878 199.088" style="fill:none;stroke:#808080;stroke-linecap:square;"/>
   </g>
  </g>
 </g>
 <defs>
  <clipPath id="p7ff5b81e1d">
   <rect height="345.6" width="446.4" x="72.0" y="43.2"/>
  </clipPath>
 </defs>
</svg>
