<?xml version="1.0" encoding="utf-8" standalone="no"?>
<!DOCTYPE svg PUBLIC "-//W3C//DTD SVG 1.1//EN"
  "http://www.w3.org/Graphics/SVG/1.1/DTD/svg11.dtd">
<!-- Created with matplotlib (http://matplotlib.org/) -->
<svg height="432pt" version="1.1" viewBox="0 0 576 432" width="576pt" xmlns="http://www.w3.org/2000/svg" xmlns:xlink="http://www.w3.org/1999/xlink">
 <defs>
  <style type="text/css">
*{stroke-linecap:butt;stroke-linejoin:round;}
  </style>
 </defs>
 <g id="figure_1">
  <g id="patch_1">
   <path d="
M0 432
L576 432
L576 0
L0 0
z
" style="fill:#ffffff;"/>
  </g>
  <g id="axes_1">
   <g id="line2d_1">
    <path clip-path="url(#p7ff5b81e1d)" d="
M72 228.737
L72.2976 210.541
L72.5208 186.297
L72.6696 173.821
L72.744 176.396
L73.116 201.884
L73.7112 237.343
L73.7856 236.962
L74.0088 229.757
L74.3808 257.266
L74.5296 257.128
L74.976 211.682
L75.2736 171.696
L75.6456 194.315
L75.8688 207.967
L75.9432 209.746
L76.1664 221.428
L76.3152 213.133
L76.464 207.327
L76.6128 207.085
L76.7616 204.217
L76.836 206.671
L76.9104 206.325
L77.0592 202.593
L77.1336 203.975
L77.3568 211.647
L77.4312 210.524
L77.6544 223.415
L78.2496 276.862
L78.324 276.136
L78.4728 261.154
L78.9936 191.913
L79.2168 172.093
L79.2912 172.491
L80.0352 197.892
L80.4072 223.069
L80.6304 227.562
L80.7048 226.888
L80.8536 220.996
L81.2256 199.966
L81.3744 207.362
L81.5232 216.019
L81.7464 204.701
L81.8952 214.74
L82.416 277.933
L82.4904 275.428
L82.6392 258.822
L82.9368 220.495
L83.0112 217.488
L83.0856 218.11
L83.16 217.315
L83.4576 197.115
L83.6808 185.9
L83.9784 197.236
L84.2016 187.68
L84.276 190.462
L84.4992 206.256
L84.648 212.978
L84.7968 204.528
L85.0944 168.482
L85.1688 170.141
L85.3176 178.573
L85.5408 213.928
L85.8384 265.233
L86.0616 275.22
L86.136 274.287
L86.508 264.144
L86.6568 242.924
L86.9544 204.338
L87.1032 196.441
L87.252 197.996
L87.3264 200.208
L87.4752 191.723
L87.5496 187.801
L87.624 187.818
L87.8472 193.279
L88.1448 196.717
L88.5168 215.967
L88.5912 215.017
L88.6656 215.794
L88.8144 225.8
L88.9632 237.187
L89.0376 236.738
L89.4096 200.709
L89.6328 205.997
L89.7072 206.394
L89.7816 208.312
L89.856 208.209
L89.9304 208.122
L90.0048 208.813
L90.1536 212.563
L90.3024 204.873
L90.3768 201.538
L90.4512 202.886
L90.5256 202.558
L90.6744 198.808
L90.8232 214.533
L91.1952 266.027
L91.344 271.903
L91.4928 267.704
L91.6416 271.885
L91.7904 252.065
L92.1624 193.555
L92.2368 195.007
L92.6832 183.446
L92.7576 183.792
L92.832 184.241
L93.1296 194.817
L93.2784 202.99
L93.4272 196.354
L93.948 176.863
L94.0224 176.448
L94.1712 191.084
L95.1384 298.635
L95.2128 296.319
L95.7336 238.95
L95.9568 207.707
L96.1056 197.374
L96.6264 152.843
L96.7008 150.666
L96.8496 158.77
L97.5936 221.497
L97.8912 248.436
L97.9656 247.33
L98.5608 187.438
L98.6352 187.524
L98.784 199.257
L99.0816 250.596
L99.528 262.9
L99.9 254.018
L100.049 241.818
L100.495 197.512
L100.942 164.836
L101.462 179.835
L101.834 209.245
L101.983 212.183
L102.058 212.459
L102.206 223.57
L102.43 244.963
L102.578 237.878
L102.802 232.884
L103.099 238.898
L103.546 228.34
L103.62 230.31
L103.694 231.623
L103.769 231.312
L103.918 226.819
L104.141 220.322
L104.215 220.149
L104.29 221.912
L104.438 227.89
L104.587 220.875
L104.81 203.18
L104.885 204.079
L104.959 207.949
L105.108 197.288
L105.331 182.721
L106.298 227.32
L106.522 205.426
L106.67 187.922
L107.191 202.005
L107.414 208.813
L107.489 206.169
L107.563 207.396
L107.712 235.113
L108.01 275.756
L108.233 286.28
L108.307 286.193
L108.679 256.057
L109.646 137.551
L109.795 151.858
L110.539 239.019
L110.688 233.403
L111.06 196.7
L111.134 198.1
L111.506 218.853
L111.655 216.555
L111.804 226.854
L112.325 264.386
L112.399 266.58
L112.474 266.321
L112.622 259.496
L113.366 191.274
L113.738 185.814
L114.036 198.307
L114.259 210.507
L114.408 214.809
L114.557 220.892
L115.301 170.313
L115.375 172.923
L115.747 216.658
L116.045 245.464
L116.342 262.934
L116.417 264.178
L116.491 262.882
L116.714 252.186
L116.938 261.863
L117.012 260.705
L117.458 229.739
L117.83 182.721
L118.054 191.43
L118.426 171.921
L118.574 168.534
L118.723 178.435
L118.946 200.26
L119.17 196.424
L119.318 203.785
L119.393 208.52
L119.467 206.239
L119.69 188.406
L119.839 203.526
L120.137 241.369
L120.211 240.056
L120.36 245.879
L120.658 263.885
L120.732 265.008
L120.881 263.003
L120.955 263.487
L121.03 266.822
L121.104 266.667
L121.253 258.39
L122.071 169.346
L122.146 170.193
L122.369 188.596
L122.592 175.774
L122.666 170.279
L122.741 171.316
L123.187 211.665
L123.262 211.803
L123.41 216.52
L123.559 218.456
L123.634 218.352
L123.857 224.694
L123.931 219.389
L124.154 189.062
L124.229 186.505
L124.303 186.747
L124.526 199.361
L124.898 236.047
L125.047 250.009
L125.345 280.508
L125.419 283.083
L125.494 281.424
L125.94 246.933
L126.535 164.525
L127.354 204.303
L127.428 203.422
L127.577 199.707
L127.8 204.804
L127.874 204.683
L128.098 193.123
L128.246 193.503
L128.321 190.894
L128.395 191.378
L128.544 199.569
L128.916 240.989
L129.362 288.249
L129.437 287.645
L129.809 269.501
L130.032 235.874
L130.33 178.21
L130.627 160.758
L130.776 163.661
L130.85 162.745
L130.999 169.761
L131.52 220.546
L131.669 225.368
L131.818 223.657
L132.19 199.396
L132.487 170.694
L132.636 182.824
L133.454 276.274
L133.678 280.905
L133.975 257.059
L134.05 258.321
L134.124 260.377
L134.198 259.029
L134.422 220.564
L134.719 179.748
L135.017 157.561
L135.091 156.403
L135.166 158.079
L135.314 172.024
L135.612 200.899
L135.761 212.995
L135.984 229.377
L136.133 223.363
L136.356 206.515
L136.579 190.341
L136.728 186.868
L136.802 186.764
L136.951 200.208
L137.174 220.27
L137.323 223.19
L138.067 257.612
L138.142 259.098
L138.365 253.689
L138.439 256.212
L138.588 264.075
L138.737 251.167
L139.481 161.967
L139.555 163.54
L140.076 201.106
L140.299 210.006
L140.374 208.347
L140.448 209.297
L140.671 227.942
L140.746 226.664
L141.341 189.01
L141.415 191.378
L142.159 252.532
L142.382 262.364
L142.457 261.897
L142.829 249.715
L142.978 240.799
L143.87 169.311
L143.945 170.02
L144.168 192.605
L144.466 229.273
L144.54 230.361
L144.614 229.186
L145.061 201.003
L145.433 168.361
L145.73 189.408
L146.251 256.23
L146.474 291.187
L146.549 291.498
L146.623 291.204
L146.698 287.558
L146.921 270.123
L146.995 269.587
L147.144 250.285
L147.516 202.506
L147.59 202.022
L147.962 169.484
L148.186 157.112
L148.483 173.113
L149.227 232.245
L149.376 226.128
L149.674 203.785
L149.822 204.511
L149.971 202.195
L150.12 186.367
L150.194 188.769
L150.864 274.218
L150.938 274.823
L151.013 273.354
L151.162 266.511
L151.31 263.764
L151.534 239.848
L151.98 189.892
L152.278 176.603
L152.65 159.945
L152.873 177.45
L153.468 240.574
L153.691 233.455
L153.989 214.481
L154.361 199.862
L154.51 191.412
L154.584 194.73
L155.105 262.641
L155.179 263.712
L155.402 250.026
L155.626 232.591
L155.774 227.631
L155.923 227.977
L156.072 221.531
L156.146 222.24
L156.295 226.698
L156.816 185.641
L157.039 169.743
L157.114 171.558
L157.337 199.257
L157.56 221.808
L157.634 221.704
L157.858 212.045
L158.006 203.889
L158.23 190.842
L158.304 189.805
L158.527 198.152
L158.602 197.599
L158.676 198.635
L158.825 217.332
L159.197 263.193
L159.42 272.456
L159.718 259.046
L159.792 262.088
L159.866 263.971
L160.015 251.27
L160.536 171.713
L160.685 157.215
L160.982 170.469
L161.131 173.769
L161.429 202.523
L161.801 233.748
L161.875 233.541
L161.95 232.418
L162.247 219.181
L162.322 220.374
L162.619 244.583
L162.768 226.214
L163.214 163.142
L163.363 170.072
L163.586 221.946
L164.107 325.039
L164.182 327.026
L164.256 323.103
L164.554 246.933
L164.851 171.074
L165.223 137.585
L165.446 134.371
L165.521 133.161
L165.595 134.285
L166.116 191.654
L166.562 292.379
L166.637 290.841
L166.86 276.188
L167.604 204.338
L168.274 241.714
L168.348 239.192
L168.794 201.798
L168.943 199.638
L169.018 199.828
L169.166 204.804
L169.464 192.933
L169.613 188.077
L169.687 190.082
L170.059 212.269
L170.208 216.814
L170.357 214.792
L170.729 223.19
L171.101 217.177
L171.473 194.385
L171.547 194.125
L171.696 198.877
L171.845 214.861
L172.142 251.65
L172.291 256.178
L172.589 250.717
L172.961 214.429
L173.035 215.345
L173.184 221.929
L173.407 213.151
L173.556 208.278
L173.63 209.314
L173.779 199.914
L174.002 187.663
L174.077 185.969
L174.226 191.689
L174.97 234.44
L175.118 226.335
L175.565 192.691
L175.639 194.091
L175.788 207.569
L176.011 190.358
L176.086 192.95
L176.16 194.834
L176.458 235.01
L176.532 232.867
L176.606 228.858
L176.681 229.67
L176.978 261.707
L177.127 247.693
L177.35 224.625
L177.425 223.985
L177.648 235.58
L177.722 235.252
L177.946 219.51
L178.094 211.976
L178.169 211.163
L178.243 211.941
L178.318 211.906
L178.392 209.384
L178.69 192.138
L178.913 200.07
L178.987 203.145
L179.062 201.4
L179.285 188.838
L179.434 190.237
L179.657 207.033
L179.88 191.965
L180.029 204.044
L180.103 200.571
L180.252 184.155
L180.326 187.11
L180.773 249.007
L180.847 248.229
L180.996 260.843
L181.145 278.383
L181.219 277.951
L181.517 247.279
L181.814 217.505
L181.889 217.885
L181.963 220.495
L182.038 219.302
L182.335 188.043
L182.41 188.371
L182.558 191.533
L182.856 187.853
L182.93 188.267
L183.154 204.562
L183.377 195.767
L183.451 192.155
L183.526 193.106
L183.674 204.597
L183.898 221.186
L184.046 232.763
L184.27 255.694
L184.344 254.001
L185.014 171.955
L185.088 172.266
L185.534 192.985
L185.906 263.314
L186.278 305.771
L186.427 286.539
L186.799 216.382
L187.32 148.178
L187.469 146.173
L187.543 147.78
L187.692 161.483
L188.138 237.049
L188.213 238.31
L188.287 236.755
L188.362 236.98
L188.51 238.829
L188.957 212.632
L189.18 187.818
L189.254 188.475
L189.552 202.99
L189.998 241.282
L190.222 236.012
L190.519 248.333
L190.817 223.795
L190.891 225.247
L191.04 232.159
L191.114 230.724
L191.412 204.632
L191.486 206.498
L191.71 223.052
L191.784 220.08
L192.156 177.416
L192.23 180.889
L192.454 200.242
L192.602 193.624
L192.677 194.678
L192.826 209.695
L193.049 223.709
L193.346 189.667
L193.57 210.818
L193.718 203.837
L193.793 205.409
L194.016 229.359
L194.239 252.566
L194.537 239.554
L194.611 239.554
L194.76 240.902
L194.834 240.246
L194.909 237.101
L195.058 224.936
L195.355 237.844
L195.43 238.535
L195.504 235.684
L195.802 209.729
L195.876 206.239
L196.025 211.457
L196.099 210.973
L196.248 202.212
L196.694 177.416
L196.769 178.487
L197.215 196.199
L197.29 197.322
L197.438 191.136
L197.513 192.345
L197.736 201.02
L198.182 254.208
L198.331 259.34
L198.406 258.666
L198.778 223.398
L198.852 225.661
L199.001 222.776
L199.298 239.261
L199.447 231.433
L199.67 210.697
L199.745 211.371
L199.819 213.721
L200.042 241.507
L200.117 240.66
L200.638 209.107
L200.712 208.191
L200.861 200.381
L201.233 173.528
L201.307 170.365
L201.382 171.316
L201.456 171.471
L201.53 171.955
L201.679 177.951
L201.754 176.12
L201.828 178.712
L202.795 258.251
L202.944 257.439
L203.018 255.573
L203.167 238.725
L203.39 216.866
L203.688 205.012
L204.209 255.573
L204.283 253.154
L204.432 249.11
L204.655 254.813
L205.771 157.371
L205.846 158.321
L206.143 178.331
L206.218 181.304
L206.366 176.31
L206.441 177.588
L206.515 176.12
L206.664 190.047
L207.334 268.066
L207.408 268.447
L207.631 279.195
L207.78 257.422
L208.003 227.873
L208.152 225.782
L208.226 226.301
L208.301 224.555
L208.524 229.29
L208.598 229.1
L208.822 245.827
L208.896 245.378
L209.045 234.993
L209.566 168.205
L209.714 162.347
L209.789 163.177
L210.086 180.267
L210.235 192.795
L210.31 190.756
L210.384 192.501
L210.533 202.627
L210.682 198.497
L211.202 254.795
L211.277 254.64
L211.426 248.229
L211.798 213.116
L211.946 206.014
L212.17 215.138
L212.244 213.375
L212.393 219.682
L212.616 234.232
L212.839 225.229
L212.988 230.344
L213.137 236.289
L213.434 240.799
L213.509 238.034
L213.658 241.766
L213.732 241.473
L213.881 223.743
L214.327 161.051
L214.476 170.728
L215.071 218.507
L215.294 214.533
L215.592 201.573
L215.666 201.003
L215.89 209.556
L216.187 224.072
L216.262 224.348
L216.559 207.69
L217.006 248.73
L217.229 254.294
L217.303 253.188
L217.378 252.376
L217.452 248.091
L217.526 248.177
L217.601 248.868
L217.675 248.246
L218.196 212.356
L218.494 194.229
L218.717 173.51
L218.791 167.531
L218.866 167.549
L219.238 177.986
L219.61 216.175
L219.833 243.909
L219.907 244.289
L220.056 234.025
L220.279 218.767
L220.354 220.737
L220.428 219.942
L220.502 218.732
L220.726 201.538
L220.8 204.355
L220.949 215.95
L221.098 204.873
L221.172 207.673
L221.47 244.393
L221.544 244.272
L221.618 241.801
L221.693 242.82
L221.842 248.454
L221.99 242.492
L222.065 242.544
L222.139 246.864
L222.214 246.657
L222.288 242.734
L222.362 243.563
L222.511 241.542
L222.66 225.247
L222.883 204.424
L222.958 203.18
L223.106 190.583
L223.33 166.857
L223.627 180.699
L223.702 178.107
L223.776 176.742
L223.85 178.418
L224.222 206.169
L224.446 237.032
L224.52 234.025
L224.818 200.173
L224.892 200.985
L225.19 220.253
L225.413 226.37
L225.636 249.076
L225.785 247.019
L225.859 248.073
L226.157 260.049
L226.306 263.159
L226.678 230.448
L226.901 212.909
L227.05 203.197
L227.57 166.529
L227.645 167.186
L227.868 184.898
L227.942 183.602
L228.091 176.482
L228.166 178.746
L228.686 235.425
L228.761 237.688
L229.058 217.54
L229.133 222.084
L229.207 224.417
L229.579 210.127
L229.728 203.647
L229.802 204.839
L230.174 231.433
L230.398 216.175
L230.621 227.251
L230.695 226.456
L230.77 226.75
L230.844 228.288
L231.216 252.065
L231.29 248.505
L231.514 234.681
L231.588 235.131
L231.886 229.411
L232.109 221.739
L232.183 223.017
L232.258 220.408
L232.704 167.514
L232.778 167.255
L232.927 169.138
L233.076 167.497
L233.15 165.216
L233.225 166.374
L234.341 257.215
L234.638 240.125
L234.787 242.095
L234.862 242.06
L235.01 244.911
L235.159 233.403
L235.308 223.916
L235.382 224.106
L235.68 221.756
L235.829 219.838
L235.903 220.633
L235.978 220.598
L236.052 220.667
L236.126 222.845
L236.35 236.444
L236.498 220.823
L236.796 193.866
L237.019 180.612
L237.168 172.508
L237.689 186.418
L237.763 187.438
L238.433 248.333
L239.028 208.295
L239.251 224.434
L239.326 222.81
L239.623 209.625
L239.772 217.488
L239.846 216.468
L239.921 215.881
L240.814 262.139
L240.962 245.775
L241.111 227.424
L241.26 231.934
L241.334 231.467
L241.483 211.008
L241.855 151.288
L242.004 144.929
L242.153 151.893
L242.599 193.676
L242.822 230.206
L243.269 246.345
L243.418 253.413
L243.641 216.693
L243.715 220.512
L243.864 244.514
L244.087 187.784
L244.162 191.568
L244.459 225.506
L244.608 238.725
L245.054 285.001
L245.129 280.733
L245.65 196.752
L245.798 186.729
L245.947 189.373
L246.468 158.788
L246.691 161.207
L246.766 164.939
L247.51 259.461
L247.733 271.937
L247.882 258.701
L248.477 184.068
L248.626 177.139
L248.7 178.28
L249.965 285.986
L250.039 284.569
L250.188 271.609
L250.634 176.482
L250.709 178.314
L250.783 181.2
L250.932 167.255
L251.304 111.199
L251.453 133.887
L252.197 281.286
L252.42 289.684
L252.569 283.791
L252.718 273.855
L253.387 140.073
L253.462 142.354
L253.61 173.182
L253.908 235.165
L253.982 235.908
L254.131 252.549
L254.429 282.357
L254.578 296.319
L254.801 275.531
L255.098 227.251
L255.47 147.227
L255.545 146.087
L255.768 154.52
L255.991 150.269
L256.066 151.599
L256.363 179.679
L256.884 248.436
L256.958 247.279
L257.033 247.192
L257.256 274.339
L257.33 271.695
L257.777 213.945
L258 185.831
L258.074 184.189
L258.298 188.993
L258.446 203.958
L258.967 278.521
L259.116 287.316
L259.265 277.311
L259.488 243.615
L260.158 136.013
L260.381 141.94
L260.678 173.528
L260.902 192.968
L261.05 189.512
L261.125 191.879
L261.348 218.715
L261.794 283.515
L262.018 278.694
L262.39 237.705
L262.762 183.083
L262.985 170.089
L263.059 171.402
L263.357 188.233
L263.729 262.157
L264.026 308.484
L264.175 288.923
L265.142 130.31
L265.291 126.82
L265.812 165.06
L266.11 241.282
L266.333 290.997
L266.407 294.66
L266.482 293.243
L266.928 265.561
L267.226 216.814
L267.523 175.342
L267.598 175.048
L267.97 180.422
L268.118 193.814
L268.639 272.559
L268.714 270.105
L268.862 261.863
L268.937 262.174
L269.011 264.161
L269.086 261.465
L269.606 197.996
L270.127 129.343
L270.202 130.915
L270.574 150.286
L271.02 232.746
L271.466 317.09
L271.541 320.546
L271.615 319.077
L271.838 296.319
L272.136 210.386
L272.434 154.053
L272.582 149.232
L272.88 172.905
L273.55 265.302
L273.773 274.65
L273.847 274.425
L273.996 252.843
L274.294 188.492
L274.442 187.369
L274.591 174.426
L274.814 148.61
L275.038 157.526
L275.335 173.303
L275.856 251.599
L276.079 280.767
L276.154 280.024
L276.749 246.484
L277.121 203.871
L277.195 204.044
L277.27 204.839
L277.418 194.264
L277.716 176.828
L277.939 203.387
L278.162 235.615
L278.609 271.954
L278.683 270.002
L278.832 250.303
L279.055 208.174
L279.204 214.706
L279.353 180.059
L279.576 127.131
L279.65 129.705
L279.948 162.969
L280.097 151.167
L280.32 209.401
L280.469 238.915
L280.618 219.596
L280.692 222.741
L280.99 295.248
L281.064 294.505
L281.287 269.172
L281.362 271.211
L281.51 288.249
L281.659 253.62
L282.031 160.291
L282.18 177.537
L282.329 158.338
L282.403 162.866
L282.924 250.683
L282.998 252.687
L283.073 250.821
L283.296 235.615
L283.445 228.098
L283.668 187.663
L283.817 188.146
L284.04 196.372
L284.189 186.107
L284.263 187.041
L284.338 193.953
L284.486 232.867
L284.71 176.258
L284.784 178.591
L284.933 193.814
L285.082 220.184
L285.305 167.791
L285.379 179.904
L285.528 215.553
L285.677 273.423
L285.826 250.285
L285.9 254.052
L286.049 276.897
L286.123 274.408
L286.272 280.715
L286.644 222.568
L286.793 210.645
L286.867 208.589
L287.165 182.098
L287.239 180.059
L287.537 197.27
L287.611 191.343
L287.686 195.041
L287.909 211.526
L288.058 219.769
L288.206 201.659
L288.281 202.644
L288.653 261.293
L288.95 221.514
L289.025 229.083
L289.099 228.979
L289.62 180.059
L289.769 171.247
L289.843 165.302
L289.918 168.223
L290.364 212.217
L290.438 212.062
L290.587 234.129
L290.81 268.015
L290.885 268.827
L291.034 267.254
L291.108 269.673
L291.182 265.941
L291.926 157.613
L292.001 165.734
L292.224 193.469
L292.298 189.944
L292.373 190.652
L292.522 213.583
L292.745 249.94
L292.819 251.357
L293.042 237.636
L293.117 237.913
L293.34 242.043
L293.414 239.935
L293.861 201.003
L294.01 207.535
L294.084 204.977
L294.53 172.992
L294.754 163.246
L294.977 174.478
L295.051 174.426
L295.274 215.432
L295.721 368.999
L295.795 356.039
L296.242 64.6117
L296.316 85.9698
L296.539 183.135
L296.614 183.93
L296.688 182.721
L296.762 183.654
L296.911 204.891
L296.986 218.628
L297.06 218.369
L297.134 216.797
L297.283 257.215
L297.432 299.291
L297.506 296.769
L297.804 237.965
L297.878 238.915
L298.102 287.023
L298.176 285.035
L298.325 251.72
L298.846 48.7314
L298.92 49.1807
L299.143 93.8149
L299.292 162.33
L299.59 320.408
L299.664 327.976
L300.11 279.523
L300.334 303.819
L300.482 283.86
L300.706 195.179
L300.929 130.898
L301.003 130.345
L301.078 130.431
L301.152 132.712
L301.524 242.648
L301.598 242.216
L301.822 197.65
L302.045 160.222
L302.194 152.567
L302.268 160.464
L302.789 288.612
L303.086 320.183
L303.161 315.828
L303.31 272.525
L303.607 176.189
L303.756 155.211
L303.979 151.271
L304.054 152.066
L304.723 217.868
L304.872 219.043
L305.393 244.427
L305.467 239.192
L305.839 173.32
L306.062 182.34
L306.509 242.786
L306.732 258.165
L306.806 256.333
L306.881 253.655
L307.327 283.135
L307.402 279.385
L307.55 266.667
L307.699 225.091
L307.997 147.227
L308.146 126.457
L308.22 127.183
L308.592 149.042
L309.262 247.935
L309.336 248.039
L309.559 244.185
L309.634 244.497
L309.782 246.466
L310.006 235.977
L310.229 230.552
L310.303 228.443
L310.675 199.344
L310.75 201.21
L311.122 283.256
L311.196 280.456
L311.345 258.148
L311.94 130.207
L312.089 157.561
L312.312 216.382
L312.386 215.708
L312.758 242.492
L312.982 272.369
L313.056 269.622
L313.726 182.496
L313.8 184.604
L313.874 184.051
L314.023 176.068
L314.246 154.191
L314.321 153.897
L314.395 154.295
L314.544 180.509
L314.842 232.02
L314.99 244.497
L315.288 277.052
L315.437 258.597
L315.66 236.289
L315.883 264.334
L316.106 235.355
L316.181 236.617
L316.404 254.398
L316.478 250.493
L316.627 235.857
L316.925 199.534
L316.999 198.877
L317.074 202.264
L317.148 200.865
L317.222 200.052
L317.371 179.714
L317.818 97.6856
L317.892 100.157
L318.041 124.055
L318.338 239.192
L318.636 325.851
L318.785 335.7
L318.934 311.37
L319.38 191.049
L319.603 144.497
L319.752 132.125
L319.826 135.529
L320.05 202.385
L320.347 280.128
L320.496 284.897
L320.719 277.259
L320.868 287.005
L321.017 280.629
L321.166 254.329
L321.686 119.372
L321.761 123.001
L321.984 155.574
L322.058 155.314
L322.133 155.211
L322.282 175.826
L322.654 245.291
L322.877 234.543
L322.951 237.239
L323.174 265.094
L323.249 264.87
L323.323 260.429
L323.695 186.28
L323.77 187.801
L323.993 194.661
L324.067 193.987
L324.29 180.44
L324.365 184.639
L324.514 216.537
L324.737 271.039
L324.811 271.592
L325.034 266.356
L325.109 267.202
L325.332 281.908
L325.406 279.402
L325.555 269.553
L326.522 119.337
L326.671 137.274
L326.969 185.9
L327.192 185.14
L327.341 187.939
L327.49 203.647
L327.862 262.675
L327.936 261.154
L328.234 271.92
L328.308 270.503
L328.68 229.999
L328.903 209.625
L328.978 209.677
L329.275 233.351
L329.35 231.64
L329.573 227.994
L329.647 228.046
L329.722 229.722
L329.87 235.736
L329.945 236.15
L330.019 234.958
L330.242 221.238
L330.838 161.691
L330.912 158.442
L331.061 166.132
L331.21 173.994
L331.656 156.852
L331.73 160.74
L332.474 295.905
L332.549 295.421
L332.698 291.204
L332.921 244.842
L333.144 219.009
L333.293 214.015
L333.516 215.622
L333.59 215.38
L333.739 223.916
L334.037 252.514
L334.186 237.239
L334.483 193.97
L334.558 198.342
L334.855 256.783
L335.004 223.346
L335.376 119.718
L335.45 119.217
L335.599 123.485
L335.748 114.015
L335.897 125.144
L336.269 211.353
L336.715 322.809
L336.79 330.585
L336.864 330.136
L336.938 329.428
L337.087 333.005
L337.162 330.741
L337.459 270.52
L337.98 112.46
L338.054 117.022
L338.798 233.23
L338.947 238.466
L339.022 238.293
L339.17 233.748
L339.468 258.321
L339.542 257.612
L339.691 237.775
L339.989 187.818
L340.063 187.663
L340.138 188.077
L340.212 187.127
L340.51 156.939
L340.882 185.399
L341.328 241.766
L341.402 235.252
L341.477 231.346
L341.551 233.731
L341.849 255.072
L341.923 254.605
L341.998 251.961
L342.072 252.203
L342.295 280.37
L342.37 279.195
L343.337 168.966
L343.56 187.213
L343.858 214.723
L343.932 214.758
L344.23 166.305
L344.304 169.64
L344.825 214.55
L345.048 200.778
L345.346 256.904
L345.42 251.512
L345.569 234.405
L345.866 257.249
L345.941 256.23
L346.164 264.904
L346.462 224.538
L346.536 227.113
L346.61 230.292
L346.685 228.979
L346.908 196.614
L347.131 175.463
L347.578 194.626
L347.801 207.811
L347.875 207.051
L348.024 203.837
L348.247 212.909
L348.322 210.559
L348.47 197.063
L348.545 199.914
L348.768 214.291
L348.842 214.395
L349.214 204.407
L349.289 205.686
L349.438 217.004
L349.884 255.642
L350.107 259.185
L350.256 258.027
L350.405 250.13
L350.926 199.845
L351 201.055
L351.223 209.003
L351.372 212.684
L351.446 212.252
L351.521 212.494
L351.67 216.607
L351.744 216.175
L351.893 204.165
L352.339 129.343
L352.414 125.506
L352.488 125.697
L352.637 138.345
L352.86 202.351
L353.232 298.894
L353.455 331.467
L353.604 317.142
L353.976 267.116
L354.199 252.998
L355.018 101.297
L355.092 101.625
L355.241 128.997
L355.538 202.938
L355.91 250.821
L355.985 254.26
L356.059 253.672
L356.282 237.446
L356.58 212.943
L356.729 209.418
L356.803 209.435
L356.878 208.312
L356.952 209.055
L357.101 215.172
L357.547 244.514
L357.845 261.12
L357.919 262.9
L357.994 262.347
L358.217 232.642
L358.44 214.948
L358.663 223.691
L358.738 222.084
L358.961 212.598
L359.333 165.199
L359.407 165.544
L359.556 173.458
L359.779 185.745
L359.854 185.053
L360.226 188.527
L360.374 199.741
L360.672 225.851
L360.821 218.646
L360.97 226.767
L361.267 263.902
L361.49 284.171
L361.565 287.195
L361.788 271.678
L362.16 219.164
L362.458 201.919
L362.755 172.767
L362.83 173.908
L362.904 175.618
L362.978 175.135
L363.202 165.181
L363.574 193.521
L364.094 253.776
L364.243 276.585
L364.318 274.097
L364.69 198.618
L364.913 215.604
L365.062 206.273
L365.21 197.322
L365.285 199.551
L365.731 234.457
L365.88 244.099
L366.103 260.256
L366.178 261.137
L366.326 246.052
L366.624 209.746
L366.847 189.477
L366.996 194.315
L367.07 193.59
L367.294 188.25
L367.442 188.302
L367.517 187.455
L367.591 188.216
L367.666 191.015
L367.963 209.746
L368.112 204.061
L368.261 195.197
L368.41 203.923
L368.707 226.56
L368.782 224.711
L368.856 221.549
L368.93 222.05
L369.079 224.918
L369.377 250.51
L369.451 248.713
L369.674 229.135
L369.972 249.542
L370.121 245.309
L370.79 182.116
L371.237 206.204
L371.311 207.241
L371.386 206.792
L371.534 206.187
L371.758 208.675
L371.981 201.158
L372.055 202.662
L372.278 210.887
L372.353 208.485
L372.576 192.933
L372.65 193.659
L373.171 226.456
L373.543 289.062
L373.766 270.935
L374.362 178.28
L374.436 181.304
L374.882 210.783
L375.106 219.786
L375.329 212.701
L375.403 214.671
L375.626 233.057
L375.701 226.232
L376.073 159.272
L376.37 141.3
L376.445 140.903
L376.668 173.372
L377.412 343.839
L377.486 341.524
L377.784 301.97
L378.007 247.935
L378.454 105.479
L378.602 122.707
L379.346 239.727
L379.421 241.023
L379.57 237.671
L379.718 230.984
L380.09 201.867
L380.239 205.305
L380.462 214.706
L380.611 207.69
L380.686 207.846
L380.834 211.388
L381.058 218.283
L381.206 217.592
L381.281 221.272
L381.504 255.279
L381.727 233.817
L381.876 250.717
L381.95 257.871
L382.025 255.262
L382.397 199.067
L382.471 203.163
L382.843 233.455
L382.918 231.899
L382.992 231.398
L383.066 230.102
L383.438 204.251
L383.959 160.015
L384.108 157.665
L384.257 169.726
L384.48 188.216
L384.629 203.958
L384.852 232.452
L384.926 232.971
L385.001 232.055
L385.075 233.299
L385.15 229.428
L385.298 249.629
L385.596 296.008
L385.745 303.024
L385.819 301.676
L386.414 208.537
L386.712 164.456
L386.935 150.735
L387.01 147.158
L387.084 147.504
L387.158 149.042
L387.233 148.852
L387.307 148.593
L387.679 195.957
L387.977 209.073
L388.274 246.57
L388.349 245.827
L388.498 235.528
L388.646 224.262
L388.795 235.632
L389.018 252.013
L389.093 251.218
L389.167 248.471
L389.39 232.21
L389.465 232.746
L389.688 246.225
L389.762 245.326
L389.986 226.715
L390.06 220.477
L390.134 220.598
L390.283 222.205
L390.73 205.167
L391.027 188.025
L391.325 195.577
L391.474 201.279
L391.548 199.741
L391.697 189.028
L392.069 150.787
L392.143 150.96
L392.292 170.815
L392.887 281.337
L393.11 289.096
L393.408 279.022
L393.631 250.13
L394.078 194.419
L394.226 190.099
L394.301 190.911
L394.45 196.856
L394.524 195.594
L394.747 180.802
L394.896 172.957
L394.97 174.841
L395.491 211.284
L395.714 206.498
L395.789 206.947
L395.938 214.965
L396.161 225.489
L396.31 227.839
L396.533 236.289
L396.607 234.958
L396.83 216.969
L396.979 209.453
L397.128 215.76
L397.351 229.014
L397.574 226.767
L397.649 227.614
L397.798 225.696
L397.872 227.631
L398.021 223.64
L398.318 241.282
L398.616 223.294
L398.839 236.876
L398.988 227.735
L399.732 144.497
L399.806 142.959
L399.881 143.91
L400.03 159.721
L400.253 186.505
L400.402 207.448
L400.699 253.62
L400.922 280.785
L401.22 315.742
L401.294 316.485
L401.518 284.914
L401.815 224.296
L402.187 132.591
L402.262 127.355
L402.336 128.254
L402.782 183.032
L403.08 252.169
L403.675 203.215
L403.824 184.172
L403.898 185.33
L404.047 195.387
L404.122 194.609
L404.27 185.865
L404.345 187.507
L404.717 234.889
L404.94 262.779
L405.014 260.031
L405.089 260.774
L405.312 277.346
L405.535 288.457
L405.684 262.416
L405.982 204.666
L406.205 176.914
L406.502 163.747
L407.023 203.871
L407.098 201.953
L407.321 172.56
L407.395 175.757
L407.618 206.705
L407.693 203.698
L407.767 199.569
L407.916 216.036
L408.065 227.061
L408.139 225.886
L408.214 227.251
L408.437 242.457
L408.586 237.291
L408.734 243.978
L408.809 243.114
L409.032 252.238
L409.106 251.823
L409.33 245.602
L409.404 246.484
L409.553 255.538
L409.702 234.906
L410.148 173.718
L410.297 186.764
L410.371 186.384
L410.52 184.569
L410.966 217.937
L411.041 220.27
L411.115 219.147
L411.487 199.275
L411.636 181.425
L411.71 181.563
L411.859 186.056
L411.934 187.905
L412.082 200.623
L412.603 265.941
L412.826 262.209
L412.975 255.746
L413.05 256.679
L413.124 254.571
L413.496 211.146
L413.645 188.527
L413.719 189.46
L413.794 192.328
L413.868 192.138
L414.017 195.387
L414.389 211.889
L414.463 210.334
L414.835 194.454
L415.058 170.521
L415.133 171.661
L415.505 183.394
L415.654 207.949
L416.026 272.957
L416.1 273.527
L416.398 254.018
L416.546 258.13
L416.621 257.232
L416.844 247.641
L417.29 206.964
L417.514 185.088
L417.588 183.965
L417.737 186.436
L418.481 222.465
L418.555 219.561
L418.927 179.265
L419.15 174.34
L419.299 174.34
L419.374 176.068
L419.522 191.153
L419.969 246.674
L420.49 291.36
L420.564 287.074
L421.085 220.667
L421.382 174.893
L421.68 190.185
L421.754 186.678
L421.903 182.824
L422.126 190.911
L422.275 181.286
L422.35 176.552
L422.424 177.156
L423.019 212.477
L423.094 213.721
L423.242 224.434
L423.614 265.837
L423.838 276.378
L423.912 275.272
L424.358 233.99
L424.656 167.531
L424.73 173.562
L425.028 193.78
L425.102 195.162
L425.251 192.536
L425.4 185.399
L425.698 152.567
L425.846 164.3
L426.367 276.084
L426.665 329.998
L426.739 332.037
L426.888 311.612
L427.632 143.115
L427.781 136.376
L427.93 137.827
L428.004 139.469
L428.078 143.789
L428.302 190.808
L428.599 246.19
L428.822 259.962
L428.971 242.993
L429.12 227.873
L429.194 226.785
L429.566 184.431
L429.715 169.484
L429.79 170.089
L429.938 179.524
L430.162 221.151
L430.459 277.674
L430.757 302.471
L430.831 302.004
L430.906 298.185
L431.501 208.122
L432.096 101.643
L432.245 130.95
L432.766 216.537
L432.84 216.71
L433.138 191.602
L433.361 209.643
L433.435 210.921
L433.658 234.18
L434.03 280.473
L434.105 283.256
L434.179 283.117
L434.328 280.387
L434.477 282.132
L434.551 280.646
L434.849 257.612
L435.072 242.198
L435.146 239.243
L435.742 144.687
L435.89 133.421
L435.965 134.475
L436.337 161.898
L436.932 201.953
L437.006 205.029
L437.453 259.582
L438.048 302.212
L438.197 280.819
L438.643 204.77
L438.866 182.427
L439.015 171.212
L439.387 189.062
L439.536 196.389
L439.759 215.432
L439.834 215.241
L440.131 202.852
L440.206 202.506
L440.652 186.66
L440.726 187.974
L441.396 232.556
L441.619 247.071
L441.768 249.905
L442.14 274.754
L442.363 252.324
L442.735 212.511
L443.182 174.754
L443.405 150.338
L443.702 119.545
L443.851 143.91
L444.67 322.101
L444.744 321.825
L444.967 302.972
L445.265 235.684
L445.488 196.873
L445.637 193.279
L445.711 193.624
L445.786 193.123
L445.934 182.444
L446.009 182.461
L446.158 185.865
L446.232 185.693
L446.306 185.727
L446.53 187.697
L446.753 194.937
L446.827 194.246
L447.125 187.041
L447.274 187.231
L447.422 189.684
L447.571 201.677
L447.943 237.394
L448.241 248.264
L448.464 240.885
L448.538 241.853
L448.985 264.887
L449.134 252.67
L449.431 224.849
L449.729 206.498
L449.878 192.242
L449.878 192.242" style="fill:none;stroke:#808080;stroke-linecap:square;"/>
   </g>
  </g>
 </g>
 <defs>
  <clipPath id="p7ff5b81e1d">
   <rect height="345.6" width="446.4" x="72.0" y="43.2"/>
  </clipPath>
 </defs>
</svg>
