<?xml version="1.0" encoding="utf-8" standalone="no"?>
<!DOCTYPE svg PUBLIC "-//W3C//DTD SVG 1.1//EN"
  "http://www.w3.org/Graphics/SVG/1.1/DTD/svg11.dtd">
<!-- Created with matplotlib (http://matplotlib.org/) -->
<svg height="432pt" version="1.1" viewBox="0 0 576 432" width="576pt" xmlns="http://www.w3.org/2000/svg" xmlns:xlink="http://www.w3.org/1999/xlink">
 <defs>
  <style type="text/css">
*{stroke-linecap:butt;stroke-linejoin:round;}
  </style>
 </defs>
 <g id="figure_1">
  <g id="patch_1">
   <path d="
M0 432
L576 432
L576 0
L0 0
z
" style="fill:#ffffff;"/>
  </g>
  <g id="axes_1">
   <g id="line2d_1">
    <path clip-path="url(#p7ff5b81e1d)" d="
M72 104.318
L72.2232 163.791
L72.372 160.908
L72.744 194.885
L72.9672 225.387
L73.1904 234.896
L73.3392 265.891
L73.4136 262.405
L73.6368 198.558
L73.7856 175.146
L73.86 174.524
L73.9344 174.653
L74.3064 207.485
L74.3808 208.512
L74.4552 207.959
L74.6784 250.744
L75.1992 116.365
L75.348 132.914
L75.7944 202.794
L75.8688 201.985
L76.0176 186.354
L76.2408 207.267
L76.3152 205.816
L76.3896 206.527
L76.5384 218.228
L76.6128 212.945
L76.7616 201.451
L76.836 202.133
L77.208 240.85
L77.2824 234.975
L77.5056 210.536
L77.58 213.241
L77.6544 209.479
L78.0264 157.985
L78.2496 180.251
L78.4728 164.65
L78.5472 177.259
L78.6216 176.993
L78.9192 123.859
L78.9936 128.263
L79.068 131.453
L79.6632 236.1
L79.7376 234.767
L79.9608 207.188
L80.2584 219.669
L80.6304 254.131
L80.7048 259.097
L80.7792 252.422
L80.8536 254.062
L81.0024 244.158
L81.2256 191.577
L81.3744 207.494
L81.9696 64.4654
L82.1184 50.9673
L82.1928 60.2787
L82.8624 272.24
L82.9368 278.945
L83.0112 278.412
L83.0856 274.807
L83.4576 229.406
L83.532 229.771
L83.6808 231.479
L83.7552 227.204
L83.9784 181.456
L84.3504 223.55
L84.4248 216.757
L84.648 173.438
L84.9456 189.632
L85.02 184.705
L85.1688 194.342
L85.3176 178.82
L85.5408 113.343
L85.764 46.3461
L86.136 168.422
L86.4336 276.121
L86.508 283.447
L86.7312 265.95
L86.88 261.398
L87.0288 264.459
L87.252 251.159
L87.4008 220.153
L87.4752 220.39
L87.5496 231.538
L87.624 222.257
L87.8472 171.434
L87.996 158.952
L88.1448 120.887
L88.2936 89.2301
L88.368 93.1601
L88.5168 112.948
L88.5912 112.129
L88.6656 115.861
L89.1864 222.553
L89.3352 235.419
L89.484 229.988
L89.6328 242.38
L89.7072 238.154
L89.856 221.783
L90.0048 253.222
L90.0792 250.813
L90.3768 178.583
L90.4512 177.585
L90.6744 189.977
L90.7488 189.74
L90.8976 197.304
L91.1208 162.191
L91.1952 168.481
L91.4928 150.984
L91.7904 211.02
L92.0136 164.847
L92.1624 187.351
L92.3856 148.742
L92.832 220.884
L92.9064 220.519
L92.9808 210.723
L93.204 223.659
L93.2784 221.654
L93.3528 230.432
L93.5016 257.715
L93.6504 221.634
L93.7992 174.179
L93.8736 177.467
L94.0224 203.486
L94.0968 200.059
L94.1712 196.504
L94.2456 198.173
L94.3944 220.785
L94.4688 218.07
L94.8408 139.984
L94.9896 127.009
L95.064 128.026
L95.3616 177.822
L95.5104 142.225
L95.5848 144.615
L95.7336 170.15
L95.8824 156.099
L96.2544 235.014
L96.3288 243.437
L96.4032 241.758
L96.552 256.896
L96.6264 252.027
L96.7752 233.908
L96.8496 240.336
L96.924 236.811
L97.3704 171.483
L97.5192 194.609
L97.5936 190.6
L97.668 177.062
L97.7424 178.879
L97.8912 193.927
L98.04 188.131
L98.1144 181.179
L98.1888 182.443
L98.2632 189.879
L98.412 175.156
L98.6352 121.786
L98.9328 158.725
L99.0072 157.323
L99.3792 203.15
L99.6024 221.723
L99.9744 195.754
L100.198 210.753
L100.272 210.131
L100.495 177.793
L100.57 179.659
L100.867 232.17
L101.165 255.493
L101.314 238.934
L101.537 209.331
L101.834 127.858
L102.058 101.938
L102.132 93.8019
L102.355 127.997
L102.43 136.538
L102.504 135.61
L102.578 131.137
L102.727 149.74
L103.322 256.431
L103.471 265.881
L103.843 227.322
L103.918 233.069
L103.992 234.975
L104.066 232.654
L104.215 219.788
L104.364 229.248
L104.438 227.164
L104.81 193.858
L105.034 150.767
L105.182 142.482
L105.406 128.164
L105.629 140.626
L105.852 123.682
L106.001 143.035
L106.596 250.764
L106.67 244.73
L107.042 159.476
L107.117 163.05
L107.34 188.802
L107.638 285.798
L107.712 276.555
L108.01 219.472
L108.158 186.156
L108.382 200.977
L108.53 187.914
L108.605 191.271
L108.679 190.451
L108.754 178.059
L108.977 99.845
L109.051 98.9366
L109.349 128.421
L109.423 127.286
L109.572 164.443
L109.795 209.627
L110.018 195.784
L110.167 212.392
L110.465 254.802
L110.614 265.101
L110.688 263.837
L110.837 248.147
L111.06 219.778
L111.134 226.502
L111.283 199.901
L111.655 130.199
L111.953 168.728
L112.027 167.247
L112.25 140.251
L112.325 147.271
L112.474 171.799
L112.548 173.517
L112.697 206.922
L112.846 226.483
L112.92 227.154
L112.994 225.92
L113.069 222.385
L113.292 179.797
L113.441 160.996
L113.515 162.655
L114.259 224.409
L114.706 263.067
L114.78 262.277
L114.854 264.864
L115.45 118.547
L115.747 104.753
L115.896 126.624
L116.566 248.374
L116.64 248.344
L117.012 204.947
L117.086 210.931
L117.235 219.808
L117.458 238.816
L117.607 251.712
L117.756 216.016
L117.905 177.911
L117.979 176.627
L118.128 170.535
L118.202 175.966
L118.426 161.441
L118.574 167.069
L118.649 166.773
L118.798 136.311
L118.946 109.413
L119.021 110.776
L119.244 128.372
L119.393 183.786
L119.616 248.512
L119.839 261.378
L120.211 211.74
L120.286 214.021
L120.36 218.435
L120.434 218.129
L120.509 210.792
L120.806 143.391
L120.955 153.038
L121.104 185.909
L121.402 236.061
L121.476 233.859
L121.55 237.601
L121.699 256.866
L121.848 231.469
L122.22 127.868
L122.294 128.155
L122.443 123.188
L122.592 136.735
L123.113 195.517
L123.187 190.372
L123.336 186.107
L123.485 204.769
L123.634 230.62
L123.782 268.261
L123.931 258.841
L124.229 225.525
L124.303 229.317
L124.452 244.888
L124.526 233.632
L124.601 236.229
L124.675 238.687
L124.824 200.76
L125.047 126.822
L125.345 47.0966
L125.419 46.277
L125.642 79.5138
L126.238 258.258
L126.461 278.076
L126.535 275.637
L126.61 280.298
L127.13 199.506
L127.205 199.319
L127.354 195.734
L127.502 204.315
L127.651 221.842
L127.726 220.736
L127.8 223.333
L127.874 220.282
L128.023 196.228
L128.172 208.107
L128.47 171.473
L128.767 84.2041
L128.842 91.758
L128.916 97.2481
L128.99 94.9671
L129.065 93.8908
L129.362 158.419
L129.66 265.259
L129.883 226.739
L129.958 212.748
L130.032 217.527
L130.106 217.744
L130.181 212.846
L130.255 213.646
L130.404 242.094
L130.553 280.989
L130.627 277.651
L130.776 256.303
L130.999 223.106
L131.222 177.96
L131.52 117.53
L131.594 127.908
L131.669 148.219
L131.743 146.6
L131.818 140.823
L132.115 162.586
L132.338 138.276
L132.413 139.026
L132.487 145.672
L132.71 184.033
L132.785 175.63
L132.859 176.469
L133.008 207.87
L133.082 223.56
L133.157 222.118
L133.231 218.356
L133.306 223.293
L133.529 275.755
L133.603 268.093
L133.826 206.705
L133.901 201.906
L134.124 215.739
L134.198 218.188
L134.273 216.036
L134.645 239.181
L134.942 180.133
L135.24 136.419
L135.314 132.094
L135.463 98.5515
L135.538 99.3809
L135.761 125.36
L135.835 120.64
L135.91 116.878
L135.984 118.191
L136.207 174.248
L136.43 215.009
L136.802 254.832
L136.877 251.899
L136.951 248.374
L137.1 256.194
L137.323 288.414
L137.844 182.75
L137.918 175.798
L138.067 151.152
L138.216 156.642
L138.365 180.518
L138.514 177.862
L138.737 136.429
L139.034 108.919
L139.109 102.59
L139.704 224.626
L139.778 220.538
L140.076 246.607
L140.15 246.142
L140.225 242.904
L140.522 218.949
L140.671 212.698
L140.82 223.59
L140.894 218.84
L140.969 219.768
L141.043 219.038
L141.192 226.453
L141.49 162.102
L141.936 87.4626
L142.159 109.581
L142.457 196.81
L142.531 184.645
L142.754 220.785
L142.903 240.652
L143.052 232.002
L143.126 235.725
L143.201 232.97
L143.275 220.134
L143.35 225.219
L143.498 240.109
L143.573 238.46
L143.647 240.396
L143.796 260.085
L143.87 254.536
L144.317 150.52
L144.54 191.241
L144.614 187.805
L144.838 154.015
L144.912 163.327
L145.284 113.432
L145.358 112.04
L145.507 135.116
L145.73 179.965
L145.805 187.904
L145.954 229.267
L146.102 220.499
L146.177 221.012
L146.251 217.26
L146.4 199.694
L146.698 248.848
L146.921 217.112
L147.07 206.329
L147.144 208.492
L147.218 214.209
L147.293 212.856
L147.516 178.859
L147.59 182.345
L147.665 182.621
L147.739 180.133
L147.962 203.93
L148.037 203.426
L148.26 172.303
L148.334 173.833
L148.632 150.619
L148.706 153.374
L148.855 156.721
L148.93 154.578
L149.078 140.162
L149.227 154.075
L149.302 152.929
L149.376 165.262
L149.599 235.35
L149.748 223.856
L149.822 223.274
L149.971 215.67
L150.194 235.202
L150.343 231.272
L150.492 242.183
L150.566 236.327
L150.641 236.851
L150.715 239.428
L150.864 227.599
L151.013 222.178
L151.757 97.6727
L151.831 103.41
L151.906 121.312
L151.98 119.919
L152.054 118.665
L153.022 277.454
L153.17 272.615
L153.468 214.95
L153.542 226.068
L153.617 229.524
L153.766 209.766
L153.989 172.47
L154.063 175.699
L154.138 174.633
L154.361 198.578
L154.51 173.171
L154.807 143.637
L154.882 139.421
L155.03 111.852
L155.105 112.603
L155.477 215.809
L155.923 173.201
L156.072 185.406
L156.444 250.734
L156.667 309.2
L156.89 248.354
L157.56 102.343
L157.634 103.508
L158.006 162.142
L158.081 158.212
L158.453 186.571
L158.602 209.756
L158.676 206.547
L159.048 187.311
L159.197 183.322
L159.271 184.537
L159.569 242.074
L159.643 238.282
L159.792 213.409
L159.866 214.722
L160.015 204.117
L160.164 189.513
L160.387 214.861
L160.462 211.197
L160.536 217.586
L160.834 185.82
L160.982 209.815
L161.429 124.412
L161.503 133.042
L161.578 145.691
L161.652 143.144
L161.726 134.296
L161.875 163.672
L162.024 184.29
L162.173 196.139
L162.247 192.742
L162.396 169.676
L162.47 171.967
L162.619 213.33
L162.842 279.32
L162.917 282.391
L163.214 182.246
L163.438 187.934
L163.586 218.899
L163.661 233.987
L163.735 227.845
L163.884 205.441
L164.107 193.127
L164.479 173.527
L164.777 129.971
L164.851 127.987
L164.926 129.636
L165.223 183.925
L165.298 176.953
L165.521 136.725
L165.67 157.679
L166.19 287.476
L166.414 255.878
L166.711 220.795
L166.86 229.692
L166.934 228.29
L167.009 232.101
L167.53 164.344
L167.827 132.559
L168.125 98.1664
L168.348 127.927
L168.794 242.489
L168.869 230.146
L169.166 198.568
L169.241 179.56
L169.315 182.671
L169.39 188.941
L169.687 231.795
L169.836 237.315
L169.91 231.232
L170.059 251.672
L170.282 213.745
L170.357 219.976
L170.431 220.143
L170.58 200.296
L170.654 206.102
L170.729 203.278
L171.026 173.606
L171.398 152.189
L171.622 114.548
L171.696 114.577
L171.994 147.311
L172.068 141.732
L172.142 126.901
L172.217 129.902
L172.366 147.725
L172.961 293.263
L173.258 248.848
L173.63 216.954
L173.705 226.058
L173.779 222.898
L173.854 225.564
L173.928 224.942
L174.077 208.403
L174.449 93.012
L174.672 53.6333
L174.821 97.0605
L175.193 217.477
L175.416 204.246
L175.565 211.691
L175.714 199.556
L175.788 200.217
L176.086 283.763
L176.16 283.072
L176.234 277.553
L176.458 242.775
L176.532 248.966
L176.681 203.199
L176.904 138.315
L176.978 136.676
L177.127 139.392
L177.499 185.593
L177.574 187.716
L177.648 185.534
L177.871 153.966
L178.02 169.607
L178.169 183.362
L178.392 151.981
L178.615 192.525
L178.69 185.267
L178.838 176.924
L179.136 243.17
L179.285 229.652
L179.434 219.195
L179.582 237.779
L179.657 235.636
L179.731 230.245
L179.806 232.743
L179.88 230.976
L180.178 170.92
L180.326 182.937
L180.401 180.567
L180.475 184.399
L180.624 207.257
L180.698 197.284
L180.996 113.866
L181.07 107.073
L181.294 149.098
L181.666 211.207
L181.814 212.777
L181.963 187.331
L182.112 170.535
L182.186 174.791
L182.335 231.993
L182.484 308.686
L182.558 308.133
L183.079 180.419
L183.302 128.362
L183.451 88.8747
L183.526 97.6529
L183.972 212.629
L184.046 208.008
L184.344 187.43
L184.418 191.577
L184.642 222.582
L184.716 223.224
L184.79 222.513
L184.939 207.781
L185.237 153.117
L185.386 175.225
L185.683 225.14
L186.055 174.653
L186.13 174.969
L186.427 163.011
L186.576 187.815
L186.948 283.349
L187.022 282.756
L187.618 115.219
L187.692 116.799
L187.766 117.777
L187.841 116.908
L188.138 181.594
L188.213 178.168
L188.362 159.505
L188.51 134.188
L188.585 134.672
L188.659 142.857
L189.329 350.336
L189.478 281.65
L189.775 126.782
L189.85 128.401
L189.924 126.98
L190.073 147.953
L190.296 181.772
L190.445 188.536
L190.742 140.152
L190.966 153.601
L191.114 163.88
L191.189 161.856
L191.486 221.358
L191.561 219.906
L191.635 219.294
L191.933 167.563
L192.007 170.811
L192.23 226.246
L192.454 197.265
L192.751 238.974
L192.826 241.403
L193.049 231.825
L193.198 201.155
L193.495 135.215
L193.57 136.962
L193.793 174.425
L194.09 226.838
L194.537 138.216
L194.611 134.356
L194.686 152.406
L194.76 148.278
L194.909 120.206
L195.058 154.223
L195.43 297.795
L195.504 294.013
L195.802 226.917
L195.876 221.072
L196.099 170.841
L196.248 184.26
L196.322 181.387
L196.546 201.481
L196.992 172.678
L197.215 114.795
L197.29 123.622
L197.736 195.221
L197.885 197.877
L198.182 178.158
L198.257 173.043
L198.703 259.927
L199.001 214.436
L199.15 219.245
L199.522 184.922
L199.596 188.141
L199.819 232.289
L199.894 230.146
L200.191 178.276
L200.638 108.732
L200.861 142.67
L200.935 144.24
L201.084 172.796
L201.158 170.752
L201.233 166.645
L201.605 221.062
L201.754 226.246
L201.902 243.96
L201.977 262.583
L202.051 256.194
L202.126 241.975
L202.2 245.728
L202.274 239.843
L202.349 241.58
L202.423 246.37
L202.572 220.933
L202.944 141.001
L203.093 135.146
L203.316 86.8702
L203.911 227.865
L204.209 244.888
L204.283 241.492
L204.655 180.913
L204.73 181.278
L204.878 198.874
L205.027 213.893
L205.176 189.188
L205.325 198.835
L205.548 167.938
L205.622 169.548
L205.846 201.037
L205.92 204.038
L206.143 234.234
L206.59 150.401
L206.664 150.786
L206.887 169.162
L207.185 183.253
L207.482 147.943
L207.557 149.878
L207.929 193.749
L208.003 201.323
L208.226 239.833
L208.45 229.731
L208.673 253.765
L208.896 217.783
L209.119 173.27
L209.194 174.524
L209.417 155.605
L209.863 198.272
L209.938 196.633
L210.31 171.335
L210.384 171.977
L210.458 180.913
L210.607 209.469
L210.756 186.907
L210.979 141.672
L211.054 137.9
L211.351 181.328
L211.426 175.936
L211.5 179.827
L211.574 174.208
L211.649 174.396
L211.946 239.546
L212.021 239.764
L212.17 260.885
L212.244 260.5
L212.318 251.317
L212.393 253.479
L212.467 247.959
L212.765 180.587
L212.839 178.385
L213.137 158.123
L213.286 169.646
L213.509 211.908
L213.583 230.383
L213.658 221.97
L214.104 113.116
L214.178 120.048
L214.402 144.684
L214.55 171.473
L214.848 249.411
L214.922 236.9
L214.997 234.491
L215.146 239.102
L215.518 180.548
L215.666 216.618
L215.741 209.726
L215.815 207.03
L216.038 211.889
L216.336 159.624
L216.41 161.569
L216.485 160.967
L216.634 180.113
L216.708 176.144
L216.782 176.43
L216.857 177.23
L217.229 214.871
L217.452 201.619
L217.526 201.155
L217.601 194.421
L217.75 215.532
L217.824 213.804
L218.047 180.864
L218.196 173.399
L218.717 211.02
L219.089 151.912
L219.163 155.941
L219.61 194.569
L219.684 190.787
L219.758 191.311
L219.907 197.946
L219.982 197.235
L220.354 148.92
L220.726 226.098
L220.8 218.445
L221.098 267.708
L221.172 274.027
L221.321 256.017
L221.693 171.364
L221.916 158.054
L222.065 139.135
L222.214 148.229
L222.362 138.266
L222.586 162.023
L222.734 176.084
L222.883 156.553
L223.106 187.43
L223.181 177.941
L223.255 185.149
L223.404 225.041
L223.627 205.421
L223.776 196.692
L224.074 236.387
L224.148 230.847
L224.297 198.203
L224.669 236.554
L224.743 243.664
L224.892 198.924
L224.966 203.624
L225.041 213.972
L225.115 211.405
L225.19 205.737
L225.487 123.356
L225.562 128.52
L225.636 131.739
L225.71 130.129
L225.785 135.748
L226.008 177.812
L226.082 179.639
L226.157 178.741
L226.306 154.914
L226.38 162.389
L226.529 191.518
L226.603 182.759
L226.752 148.061
L227.273 254.585
L227.347 251.307
L227.422 235.36
L227.496 241.116
L227.57 254.644
L227.645 251.514
L227.794 236.426
L228.091 178.81
L228.166 180.36
L228.24 178.741
L228.463 184.211
L228.538 181.555
L229.133 113.511
L229.207 118.507
L229.654 228.803
L229.728 241.61
L229.802 239.922
L229.951 225.801
L230.026 226.976
L230.1 226.631
L230.323 170.16
L230.398 185.139
L230.621 220.578
L231.067 185.633
L231.142 181.377
L231.29 191.004
L231.365 186.314
L231.514 202.212
L231.588 200.178
L231.96 120.907
L232.109 159.426
L232.481 232.052
L232.555 233.079
L232.704 217.704
L232.853 229.791
L233.374 152.366
L233.82 250.418
L233.894 251.228
L234.118 228.764
L234.415 158.538
L234.49 150.767
L234.638 162.468
L234.713 163.376
L234.862 186.551
L235.085 220.657
L235.159 214.179
L235.531 136.982
L235.606 136.311
L235.754 156.069
L235.978 165.529
L236.498 240.998
L236.722 290.567
L236.796 287.19
L237.094 209.163
L237.242 178.02
L237.317 175.512
L237.54 159.002
L237.614 160.216
L237.763 134.553
L237.912 119.742
L237.986 121.647
L238.061 120.038
L238.135 101.583
L238.21 112.632
L238.656 278.066
L238.805 273.623
L238.879 268.142
L239.474 142.038
L239.846 214.792
L239.921 210.585
L240.07 159.624
L240.516 195.349
L240.962 259.542
L241.409 151.517
L241.483 159.999
L241.558 155.733
L241.781 110.331
L242.004 146.254
L242.302 201.758
L242.376 201.6
L242.45 195.645
L242.599 206.3
L242.748 221.141
L242.822 222.158
L242.971 232.684
L243.194 249.243
L243.343 251.277
L243.492 225.643
L243.715 163.04
L243.79 163.159
L243.864 169.034
L244.162 154.43
L244.385 191.923
L244.459 187.114
L244.534 183.065
L244.608 172.194
L244.682 175.68
L244.831 192.002
L244.906 187.894
L245.129 156.701
L245.203 161.372
L245.278 166.161
L245.501 147.755
L245.575 149.029
L245.65 152.988
L245.724 144.121
L245.798 150.678
L246.468 303.769
L246.542 302.426
L246.617 296.807
L247.361 135.175
L247.435 135.432
L247.658 102.946
L248.477 228.438
L248.551 226.493
L248.923 159.663
L249.072 142.344
L249.146 146.096
L249.518 279.004
L249.593 271.717
L249.89 232.368
L250.114 196.307
L250.188 198.183
L250.262 208.146
L250.337 203.89
L250.56 181.663
L250.858 116.424
L251.006 127.542
L251.304 205.539
L251.378 205.381
L251.453 208.798
L251.602 221.634
L252.048 170.219
L252.122 166.872
L252.197 168.175
L252.271 171.098
L252.792 247.051
L252.866 242.765
L253.387 171.335
L253.462 173.142
L253.685 192.16
L253.834 197.097
L254.131 156.889
L254.206 151.892
L254.28 153.719
L254.354 153.206
L254.503 169.518
L254.726 240.001
L254.801 239.24
L254.875 235.765
L255.024 203.772
L255.322 149.325
L255.396 149.671
L255.917 265.97
L256.14 218.682
L256.363 184.754
L256.586 173.349
L256.81 208.176
L257.033 178.207
L257.256 131.453
L257.33 130.919
L257.554 141.524
L257.628 151.873
L257.702 149.542
L257.777 149.276
L258.223 216.085
L258.298 212.511
L258.372 218.208
L258.595 258.258
L258.744 247.959
L258.818 251.07
L258.893 251.563
L259.19 202.962
L259.488 137.486
L259.86 211.859
L259.934 207.731
L260.083 170.12
L260.158 175.541
L260.232 178.563
L260.678 140.29
L260.902 166.704
L261.05 187.539
L261.125 174.751
L261.199 179.027
L261.348 205.697
L261.422 203.318
L261.497 196.485
L261.646 203.12
L261.794 192.278
L262.018 230.581
L262.166 215.996
L262.315 222.948
L262.464 203.11
L262.538 207.722
L262.687 254.259
L262.91 221.18
L263.282 179.57
L263.431 128.629
L263.506 132.766
L263.58 137.743
L263.729 120.956
L264.398 202.064
L264.473 197.749
L264.547 195.497
L264.622 200.266
L264.77 189.839
L265.217 278.481
L265.291 271.569
L265.738 164.936
L265.886 192.653
L266.035 179.58
L266.11 183.855
L266.184 182.828
L266.258 185.109
L266.556 171.029
L266.779 133.042
L267.449 233.829
L267.523 226.226
L267.672 198.361
L267.746 195.754
L268.193 149.839
L268.416 221.131
L268.49 224.528
L268.639 254.22
L269.16 201.521
L269.532 129.507
L269.606 129.981
L269.681 126.476
L270.053 195.971
L270.202 200.671
L270.35 209.262
L270.722 177.951
L271.094 225.229
L271.169 224.518
L271.318 230.739
L271.392 228.428
L271.466 220.509
L271.541 220.529
L271.615 220.44
L271.764 207.257
L272.359 138.779
L272.434 133.803
L272.508 134.138
L272.657 164.867
L272.806 189.365
L272.88 187.558
L273.103 202.488
L273.178 199.309
L273.401 179.767
L273.55 177.042
L273.773 195.023
L273.922 178.346
L274.07 200.187
L274.145 193.917
L274.219 198.815
L274.517 246.37
L274.591 251.603
L274.963 208.906
L275.038 205.648
L275.112 207.83
L275.186 203.752
L275.484 168.629
L275.558 162.853
L275.633 166.664
L275.782 186.64
L275.856 178.583
L276.005 192.634
L276.228 142.334
L276.302 141.761
L276.526 131.63
L276.6 144.694
L276.749 128.461
L276.898 150.47
L277.344 267.935
L277.567 251.781
L277.716 258.475
L278.014 235.932
L278.162 200.365
L278.237 176.963
L278.311 180.143
L278.386 187.074
L278.683 157.126
L278.758 158.666
L278.832 157.461
L278.906 157.481
L278.981 158.242
L279.13 168.6
L279.353 147.518
L279.65 195.428
L279.725 198.282
L279.799 193.374
L279.948 165.035
L280.022 165.746
L280.171 179.59
L280.246 174.82
L280.618 222.819
L280.766 220.163
L280.99 241.689
L281.064 236.841
L281.138 235.172
L281.213 229.317
L281.51 186.423
L281.585 189.069
L281.659 197.719
L281.734 194.401
L281.808 189.395
L281.957 203.584
L282.031 199.131
L282.478 131.828
L282.552 134.336
L282.701 152.198
L282.85 133.931
L282.924 140.586
L283.073 178.494
L283.147 175.255
L283.296 186.887
L283.37 178.395
L283.519 205.806
L283.742 266.553
L283.891 297.005
L283.966 292.966
L284.04 308.903
L284.114 302.317
L284.338 220.301
L284.561 120.492
L284.784 111.773
L285.082 147.617
L285.156 159.091
L285.23 158.271
L285.305 144.368
L285.826 228.596
L285.974 235.251
L286.272 196.238
L286.421 155.901
L286.793 184.754
L286.867 185.346
L287.09 227.125
L287.239 245.925
L287.314 244.158
L287.462 222.187
L287.537 222.197
L287.611 219.116
L288.132 135.126
L288.355 160.246
L288.504 143.075
L289.025 203.387
L289.099 205.806
L289.248 183.174
L289.322 190.165
L289.397 186.018
L289.546 206.201
L289.769 244.622
L289.843 242.074
L289.918 231.904
L289.992 234.945
L290.141 221.032
L290.215 221.289
L290.29 226.552
L290.364 224.439
L290.587 192.851
L290.662 189.02
L290.736 177.062
L290.81 181.802
L291.034 159.308
L291.257 125.538
L291.406 136.192
L291.554 113.817
L291.926 207.297
L292.075 203.298
L292.15 203.624
L292.224 202.024
L292.596 246.942
L293.117 188.427
L293.191 186.719
L293.34 193.295
L293.489 223.678
L293.563 223.52
L294.084 190.254
L294.158 194.352
L294.307 178.701
L294.679 140.181
L294.902 169.251
L295.051 156.681
L295.126 157.669
L295.349 164.877
L295.572 159.515
L296.167 282.697
L296.316 255.454
L296.39 240.85
L296.465 241.304
L296.539 242.904
L296.614 240.01
L296.837 202.607
L296.911 201.866
L296.986 196.416
L297.283 120.275
L297.432 137.683
L297.581 125.024
L297.73 161.164
L297.953 208.739
L298.102 202.113
L298.176 206.705
L298.25 218.731
L298.474 164.373
L298.548 170.249
L298.697 185.751
L298.771 171.532
L298.846 178.454
L299.218 214.308
L299.292 212.827
L299.441 166.279
L299.515 171.957
L299.664 200.306
L299.887 244.651
L299.962 246.044
L300.11 221.338
L300.259 232.309
L300.334 230.442
L300.557 200.859
L300.631 198.509
L300.78 166.832
L300.929 151.734
L301.003 151.961
L301.078 157.086
L301.152 153.008
L301.301 171.137
L301.45 165.193
L301.822 95.214
L302.045 171.394
L302.342 267.668
L302.417 263.669
L302.491 252.561
L302.566 254.476
L302.714 279.942
L302.938 244.01
L303.012 249.371
L303.086 244.651
L303.235 180.794
L303.31 189.829
L303.384 198.815
L303.682 136.37
L303.756 141.732
L303.905 154.46
L304.054 136.084
L304.128 143.331
L304.277 131.571
L304.798 219.403
L304.946 235.024
L305.021 235.182
L305.17 236.179
L305.244 222.148
L305.393 172.105
L305.542 177.319
L305.616 164.749
L305.69 166.22
L305.914 229.82
L305.988 228.201
L306.062 236.515
L306.137 236.1
L306.211 223.748
L306.286 224.182
L306.434 208.314
L306.732 151.952
L306.806 153.877
L306.881 157.738
L307.03 179.728
L307.104 167.01
L307.178 167.859
L307.253 168.353
L307.327 173.221
L307.476 203.377
L307.922 164.936
L307.997 165.864
L308.369 230.788
L308.666 201.669
L308.741 201.866
L308.89 195.152
L309.038 211.889
L309.113 190.353
L309.187 193.661
L309.262 197.828
L309.336 187.568
L309.485 195.902
L309.708 167.237
L309.782 158.054
L309.931 180.311
L310.08 157.442
L310.229 179.856
L310.303 177.694
L310.452 173.349
L310.675 229.248
L310.75 228.3
L311.122 177.467
L311.196 178.109
L311.27 187.183
L311.345 184.171
L311.494 168.659
L311.642 216.905
L311.717 212.086
L311.791 213.32
L311.94 204.759
L312.089 225.446
L312.163 225.347
L312.684 151.557
L312.982 210.634
L313.056 203.337
L313.13 194.105
L313.354 233.898
L313.428 219.768
L313.577 198.074
L313.726 207.583
L314.023 132.262
L314.172 119.85
L314.395 157.669
L314.618 210.95
L314.693 212.481
L314.767 221.733
L314.842 219.087
L314.916 209.331
L314.99 214.15
L315.139 227.016
L315.214 221.23
L315.437 253.716
L315.586 250.072
L316.032 122.23
L316.106 123.998
L316.553 196.574
L316.627 185.85
L316.85 164.107
L316.925 168.886
L317.371 236.643
L317.446 244.671
L317.52 244.365
L317.892 179.303
L317.966 173.468
L318.041 174.435
L318.115 180.311
L318.19 178.612
L318.264 175.561
L318.413 192.021
L318.562 175.66
L318.785 207.712
L318.859 207.731
L318.934 204.463
L319.082 193.187
L319.157 197.403
L319.231 196.406
L319.529 173.566
L319.603 177.566
L319.678 174.376
L319.826 163.505
L319.901 164.749
L320.422 200.187
L320.496 203.16
L320.719 191.153
L320.794 186.956
L320.942 206.764
L321.091 206.556
L321.166 205.855
L321.389 239.369
L321.463 244.79
L321.538 240.465
L321.984 165.953
L322.133 174.179
L322.43 147.795
L322.579 167.662
L322.802 212.471
L322.951 204.957
L323.472 152.356
L323.695 180.696
L323.844 200.247
L323.993 204.73
L324.216 231.884
L324.365 211.365
L324.439 212.708
L324.588 216.263
L324.662 207.07
L324.737 209.005
L324.811 210.319
L324.886 219.492
L324.96 216.401
L325.183 170.249
L325.332 154.44
L325.853 197.462
L325.927 196.386
L326.076 183.875
L326.15 184.181
L326.225 182.127
L326.299 188.921
L326.448 163.544
L326.522 167.444
L326.746 213.636
L326.82 214.318
L327.043 191.607
L327.118 193.641
L327.192 192.298
L327.415 150.846
L327.638 171.69
L327.862 222
L327.936 221.16
L328.085 198.519
L328.159 196.376
L328.531 238.026
L328.606 234.905
L328.68 238.342
L328.754 233.414
L328.978 155.882
L329.052 156.454
L329.126 152.495
L329.201 156.444
L329.35 176.094
L329.424 172.145
L329.573 177.704
L329.796 193.809
L329.945 164.235
L330.019 168.54
L330.168 187.766
L330.317 169.37
L330.391 173.705
L330.614 225.683
L330.689 218.366
L330.763 220.983
L330.986 209.242
L331.284 161.243
L331.507 204.354
L331.582 194.204
L331.656 195.517
L331.73 194.283
L331.879 215.73
L332.028 192.278
L332.102 201.086
L332.177 196.425
L332.326 169.311
L332.549 209.578
L332.772 159.515
L332.846 140.952
L332.921 145.899
L333.07 182.611
L333.144 180.854
L333.442 215.976
L333.739 191.765
L333.962 220.825
L334.111 241.215
L334.186 234.925
L334.409 187.252
L334.483 184.142
L334.706 169.271
L334.93 191.626
L335.078 189.997
L335.153 186.63
L335.599 122.487
L335.897 214.969
L335.971 213.686
L336.046 214.011
L336.12 215.048
L336.194 208.038
L336.343 220.627
L336.418 211.513
L336.492 212.481
L336.641 214.683
L336.79 232.18
L336.864 232.141
L337.385 172.174
L337.459 173.517
L337.682 169.755
L337.757 160.236
L337.906 179.767
L338.054 169.952
L338.129 169.706
L338.203 161.668
L338.501 206.073
L338.575 205.263
L338.947 187.815
L339.022 193.068
L339.096 191.32
L339.319 172.796
L339.468 189.158
L339.617 211.494
L339.691 209.45
L339.766 211.573
L339.989 252.156
L340.435 173.27
L340.51 160.69
L340.584 162.102
L340.733 163.959
L341.105 182.878
L341.328 157.639
L341.402 157.303
L341.7 194.194
L341.774 192.268
L341.849 180.409
L341.923 183.648
L342.072 195.626
L342.146 192.574
L342.221 193.078
L342.295 192.486
L342.37 193.483
L342.667 231.153
L342.816 243.032
L343.411 176.667
L343.56 151.774
L343.634 155.22
L343.783 175.048
L343.932 163.663
L344.23 185.346
L344.378 190.224
L344.527 185.85
L344.676 196.87
L344.974 184.863
L345.048 185.613
L345.122 192.969
L345.197 190.402
L345.271 188.516
L345.569 226.325
L345.643 224.034
L346.387 168.254
L346.685 185.287
L346.759 184.29
L346.834 169.735
L347.131 201.392
L347.206 205.766
L347.354 192.328
L347.429 197.847
L347.503 197.847
L347.578 192.199
L347.652 196.317
L347.95 159.476
L348.024 155.654
L348.173 179.096
L348.247 177.18
L348.322 176.163
L348.47 160.957
L348.694 213.597
L348.768 211.968
L348.917 201.234
L348.991 204.295
L349.066 214.545
L349.289 257.113
L349.586 234.066
L349.81 170.584
L350.033 140.379
L350.33 180.439
L350.405 175.788
L350.702 134.899
L351 170.614
L351.149 157.58
L351.967 271.539
L352.414 211.671
L352.488 217.3
L352.562 215.009
L352.934 146.313
L353.009 143.43
L353.232 164.186
L353.455 141.356
L353.604 167.889
L353.753 194.51
L353.827 189.76
L353.976 166.852
L354.125 170.969
L354.274 180.103
L354.422 192.091
L354.497 203.545
L354.571 194.144
L354.646 195.635
L354.869 245.283
L355.018 235.636
L355.166 237.522
L355.39 215.443
L355.538 205.233
L355.613 210.348
L355.687 206.724
L355.91 188.585
L355.985 188.398
L356.059 191.577
L356.208 174.248
L356.282 159.012
L356.357 165.963
L356.431 178.286
L356.654 111.921
L356.729 116.612
L356.878 133.99
L357.101 176.252
L357.175 169.004
L357.398 195.882
L357.473 213.449
L357.547 210.852
L357.77 224.458
L357.919 214.959
L357.994 216.737
L358.068 219.344
L358.217 240.494
L358.366 263.659
L358.514 247.436
L358.589 244.019
L359.184 125.153
L359.258 126.219
L359.407 140.725
L359.705 221.111
L359.779 211.968
L359.928 232.96
L360.002 225.871
L360.151 181.673
L360.226 185.198
L360.3 193.838
L360.374 186.156
L360.598 137.032
L361.267 229.07
L361.416 226.572
L361.565 207.455
L361.714 215.532
L361.937 189.928
L362.011 197.679
L362.234 207.672
L362.532 175.512
L362.606 172.559
L362.681 164.926
L362.83 181.604
L362.904 181.051
L363.053 156.059
L363.127 158.696
L363.35 191.646
L363.425 190.037
L363.648 216.618
L363.722 213.212
L364.02 233.661
L364.169 222.187
L364.243 225.643
L364.392 191.39
L364.466 193.473
L364.69 188.101
L364.764 194.036
L365.285 138.374
L365.359 144.99
L365.508 141.268
L365.731 183.144
L365.88 158.469
L365.954 163.702
L366.103 197.739
L366.178 196.248
L366.252 185.188
L366.326 192.17
L366.55 223.244
L366.698 244.345
L366.773 244.879
L366.922 237.67
L367.442 167.948
L367.517 169.844
L367.666 164.66
L367.814 193.177
L367.963 182.355
L368.112 195.961
L368.186 194.767
L368.41 147.311
L368.558 178.908
L368.782 227.125
L368.856 231.124
L368.93 227.144
L369.377 171.671
L369.451 167.03
L369.6 175.472
L369.674 170.594
L369.972 179.817
L370.27 216.421
L370.642 182.374
L370.79 197.818
L370.865 198.756
L370.939 195.922
L371.014 185.692
L371.088 189.148
L371.162 194.944
L371.311 179.797
L371.386 180.577
L371.534 198.499
L371.609 199.773
L371.683 197.808
L371.758 199.338
L371.832 194.865
L372.055 149.513
L372.13 153.709
L372.65 230.482
L372.725 232.378
L373.022 192.999
L373.171 211.306
L373.246 201.807
L373.32 206.764
L373.394 205.49
L373.469 203.495
L373.692 172.095
L373.841 151.626
L374.138 166.427
L374.287 202.735
L374.362 193.295
L374.436 193.937
L374.585 196.021
L374.808 175.926
L374.957 192.268
L375.031 191.992
L375.18 186.433
L375.329 211.217
L375.478 175.383
L375.552 179.175
L375.701 195.724
L375.775 181.782
L376.073 226.759
L376.222 206.28
L376.296 211.385
L376.445 206.863
L376.742 236.791
L376.891 239.023
L376.966 224.557
L377.114 167.415
L377.189 160.128
L377.263 165.075
L377.635 118.162
L377.71 122.299
L377.933 176.331
L378.007 172.174
L378.082 168.985
L378.156 173.517
L378.379 201.195
L378.454 205.223
L378.528 197.393
L378.602 200.276
L378.9 215.957
L378.974 216.569
L379.198 181.535
L379.272 182.424
L379.495 193.167
L379.644 202.32
L379.793 193.927
L380.016 220.074
L380.239 206.793
L380.388 209.716
L380.537 233.355
L380.611 227.599
L380.834 181.515
L380.983 194.204
L381.206 166.358
L381.355 147.834
L381.43 148.417
L381.504 152.85
L381.578 150.362
L382.322 204.256
L382.471 218.376
L382.546 207.722
L382.843 241.353
L382.918 240.712
L383.141 222.612
L383.587 120.107
L383.662 120.709
L383.81 145.444
L384.034 191.014
L384.108 192.772
L384.331 172.184
L384.406 174.277
L384.629 220.854
L384.703 221.368
L384.852 215.414
L384.926 216.332
L385.15 189.632
L385.298 174.988
L385.373 175.176
L385.447 171.858
L385.67 200.336
L385.745 194.075
L385.819 194.757
L385.968 223.175
L386.042 242.39
L386.117 236.89
L386.786 151.438
L386.861 153.443
L387.084 182.868
L387.158 182.838
L387.233 166.931
L387.307 168.343
L387.382 171.335
L387.456 166.121
L387.605 190.965
L387.679 194.075
L387.828 215.295
L387.902 215.601
L388.051 219.541
L388.2 184.063
L388.274 184.872
L388.349 176.825
L388.572 187.282
L388.721 214.9
L388.795 211.424
L388.944 217.013
L389.093 195.833
L389.167 197.64
L389.242 201.432
L389.316 199.723
L389.39 191.439
L389.539 203.061
L389.911 181.91
L390.06 171.838
L390.134 173.162
L390.209 181.969
L390.283 181.683
L390.432 163.909
L390.581 203.871
L390.655 192.742
L390.804 182.759
L390.953 164.66
L391.25 201.185
L391.474 188.911
L391.548 187.953
L391.622 177.477
L391.771 198.687
L391.846 197.304
L391.92 205.51
L391.994 201.827
L392.143 202.844
L392.218 214.466
L392.366 176.943
L392.441 181.742
L392.664 205.924
L392.887 214.93
L393.11 190.372
L393.259 149.493
L393.408 181.653
L393.482 181.189
L393.631 182.828
L393.78 202.004
L393.854 197.956
L394.078 171.562
L394.375 213.863
L394.45 212.037
L394.598 201.521
L394.673 201.481
L394.822 185.258
L394.896 176.41
L395.119 203.9
L395.194 202.459
L395.268 201.145
L395.417 207.455
L395.491 206.408
L395.714 237.848
L396.086 132.44
L396.161 139.224
L396.31 167.671
L396.384 165.47
L396.458 153.354
L396.533 158.587
L396.607 167.069
L396.682 164.176
L396.756 161.233
L396.83 165.983
L397.054 214.92
L397.5 180.883
L397.649 194.757
L397.798 211.582
L398.021 221.022
L398.244 177.496
L398.467 213.024
L398.542 200.592
L398.69 185.524
L398.914 217.556
L399.062 243.97
L399.211 221.98
L399.509 142.156
L399.583 146.955
L399.658 151.586
L399.806 135.343
L399.881 143.568
L400.03 175.67
L400.178 162.833
L400.55 195.843
L400.625 207.771
L400.699 204.453
L400.774 202.972
L400.997 236.821
L401.146 217.882
L401.294 224.913
L401.369 225.061
L401.443 227.421
L401.518 224.903
L401.592 229.524
L401.815 187.756
L401.89 188.496
L402.038 169.409
L402.113 171.592
L402.187 174.238
L402.262 161.609
L402.336 162.724
L402.41 180.35
L402.485 176.953
L402.634 165.381
L402.708 171.266
L402.782 168.787
L402.857 165.114
L402.931 168.057
L403.006 167.513
L403.08 166.674
L403.154 167.513
L403.378 181.081
L403.452 174.218
L403.526 176.677
L403.75 198.677
L403.824 199.506
L403.898 194.579
L403.973 197.521
L404.047 205.668
L404.122 204.354
L404.196 205.016
L404.419 257.764
L404.494 251.287
L404.791 203.801
L404.94 217.191
L405.089 206.28
L405.312 175.68
L405.386 175.522
L405.833 142.008
L405.907 146.639
L406.056 144.595
L406.13 151.023
L406.428 211.286
L406.726 183.994
L406.8 163.307
L407.246 218.593
L407.321 217.24
L407.395 225.406
L407.47 224.607
L407.842 184.231
L407.916 184.063
L407.99 185.988
L408.065 185.781
L408.214 187.351
L408.288 186.531
L408.362 184.162
L408.437 185.83
L408.66 174.376
L408.734 180.824
L408.883 203.387
L408.958 198.726
L409.032 202.982
L409.255 177.259
L409.33 181.495
L409.404 180.498
L409.478 178.701
L409.553 180.992
L409.85 209.351
L409.999 188.269
L410.074 195.122
L410.148 206.784
L410.371 186.561
L410.669 206.132
L410.743 214.88
L411.19 165.391
L411.264 166.23
L411.338 171.937
L411.562 209.074
L411.636 197.117
L411.71 201.214
L411.859 188.97
L412.082 162.566
L412.231 184.458
L412.38 167.77
L412.529 185.169
L412.678 164.413
L412.901 204.621
L413.05 167.978
L413.124 171.236
L413.347 190.58
L413.422 187.183
L413.645 225.9
L413.868 267.422
L413.942 253.825
L414.017 255.404
L414.091 256.352
L414.612 152.87
L414.761 167.504
L414.91 161.885
L415.058 171.868
L415.207 150.451
L415.282 151.882
L415.43 179.57
L415.579 175.956
L415.877 127.641
L415.951 131.433
L416.1 148.456
L416.249 204.71
L416.472 227.283
L416.546 240.494
L416.621 239.497
L416.77 257.774
L416.918 274.018
L417.142 228.339
L417.216 225.91
L417.29 229.781
L417.439 215.137
L417.96 130.702
L418.034 134.889
L418.183 162.171
L418.258 161.816
L418.481 149.068
L418.555 146.057
L418.63 150.066
L418.853 198.943
L419.076 191.676
L419.225 197.63
L419.374 175.709
L419.671 236.002
L419.82 244.335
L419.894 242.548
L419.969 242.094
L420.043 238.115
L420.118 240.178
L420.415 172.618
L420.49 181.831
L420.564 192.021
L420.638 187.608
L420.713 187.183
L420.787 192.95
L420.936 172.53
L421.234 137.614
L421.382 156.296
L421.531 148.111
L421.903 180.449
L422.126 220.815
L422.275 205.292
L422.424 218.435
L422.647 184.902
L423.019 234.975
L423.317 203.871
L423.466 229.386
L423.54 224.518
L423.763 182.542
L423.986 149.019
L424.135 173.784
L424.284 161.559
L424.656 182.621
L424.805 202.054
L424.879 201.037
L425.028 211.415
L425.4 184.971
L425.623 192.268
L425.698 194.589
L425.846 222.345
L425.995 206.507
L426.07 211.415
L426.144 211.257
L426.367 186.995
L426.442 179.244
L426.59 212.224
L426.665 211.8
L426.739 207.04
L426.888 217.102
L426.962 213.202
L427.111 195.853
L427.334 167.286
L427.558 148.752
L427.632 153.63
L427.706 167.889
L427.781 163.742
L427.93 170.209
L428.004 165.065
L428.078 166.358
L428.153 166.467
L428.376 191.923
L428.525 186.778
L428.674 200.563
L428.748 200.03
L428.822 192.723
L429.046 233.701
L429.12 232.605
L429.269 210.783
L429.418 207.514
L429.492 208.423
L429.566 211.158
L429.641 210.457
L429.938 184.408
L430.087 196.297
L430.162 196.317
L430.385 182.641
L430.534 193.828
L430.906 160.868
L430.98 163.959
L431.054 166.872
L431.278 196.188
L431.352 197.008
L431.501 202.735
L431.575 202.666
L431.65 200.464
L431.798 213.399
L432.022 162.981
L432.096 165.479
L432.394 194.105
L432.468 181.93
L432.542 186.709
L432.691 207.82
L432.766 207.149
L432.84 203.11
L432.989 208.995
L433.063 212.945
L433.138 209.499
L433.286 174.574
L433.435 190.343
L433.584 181.703
L433.658 186.482
L433.733 185.534
L433.807 181.752
L433.882 181.851
L433.956 181.861
L434.105 207.06
L434.179 205.727
L434.402 177.595
L434.551 180.33
L434.774 200.138
L434.849 193.67
L434.998 186.64
L435.221 218.485
L435.37 220.232
L435.518 199.477
L435.816 164.877
L435.89 169.232
L435.965 174.771
L436.114 166.279
L436.262 182.671
L436.486 166.674
L436.709 221.299
L436.858 194.727
L436.932 196.909
L437.006 203.091
L437.081 200.681
L437.155 195.181
L437.304 217.823
L437.378 210.842
L437.453 208.492
L437.75 166.269
L437.825 166.595
L437.974 199.477
L438.048 196.465
L438.122 199.022
L438.197 197.087
L438.271 201.205
L438.718 148.703
L438.792 137.407
L439.09 181.693
L439.313 238.342
L439.462 222.513
L439.536 223.461
L439.61 223.037
L439.685 231.143
L439.759 228.764
L439.982 204.71
L440.429 171.819
L440.503 172.549
L440.801 204.463
L440.875 198.015
L440.95 177.121
L441.024 178.78
L441.173 204.868
L441.247 200.03
L441.47 171.434
L441.545 172.53
L441.619 171.7
L441.768 164.136
L441.991 178.405
L442.066 177.881
L442.289 204.572
L442.363 211.345
L442.438 205.934
L442.586 188.615
L442.661 193.108
L442.735 206.379
L442.81 202.518
L443.107 188.289
L443.256 194.095
L443.33 193.206
L443.405 202.488
L443.628 170.969
L443.777 184.616
L443.851 179.925
L443.926 170.347
L444 174.455
L444.074 173.369
L444.149 177.111
L444.446 227.144
L444.595 221.625
L444.744 207.04
L444.818 207.84
L444.893 208.946
L444.967 199.042
L445.042 205.905
L445.116 203.535
L445.265 206.487
L445.339 205.924
L445.414 201.106
L445.562 211.74
L445.786 155.931
L445.934 158.182
L446.158 174.495
L446.232 160.226
L446.678 204.799
L446.902 174.208
L447.05 157.373
L447.125 144.348
L447.348 209.015
L447.422 205.48
L447.571 221.98
L447.646 218.238
L447.794 196.86
L447.943 203.614
L448.092 186.946
L448.241 205.855
L448.315 206.438
L448.39 199.536
L448.538 236.545
L448.613 234.955
L449.357 150.362
L449.506 164.62
L449.654 149.898
L449.729 149.868
L449.878 171.157
L449.878 171.157" style="fill:none;stroke:#808080;stroke-linecap:square;"/>
   </g>
  </g>
 </g>
 <defs>
  <clipPath id="p7ff5b81e1d">
   <rect height="345.6" width="446.4" x="72.0" y="43.2"/>
  </clipPath>
 </defs>
</svg>
