<?xml version="1.0" encoding="utf-8" standalone="no"?>
<!DOCTYPE svg PUBLIC "-//W3C//DTD SVG 1.1//EN"
  "http://www.w3.org/Graphics/SVG/1.1/DTD/svg11.dtd">
<!-- Created with matplotlib (http://matplotlib.org/) -->
<svg height="432pt" version="1.1" viewBox="0 0 576 432" width="576pt" xmlns="http://www.w3.org/2000/svg" xmlns:xlink="http://www.w3.org/1999/xlink">
 <defs>
  <style type="text/css">
*{stroke-linecap:butt;stroke-linejoin:round;}
  </style>
 </defs>
 <g id="figure_1">
  <g id="patch_1">
   <path d="
M0 432
L576 432
L576 0
L0 0
z
" style="fill:#ffffff;"/>
  </g>
  <g id="axes_1">
   <g id="line2d_1">
    <path clip-path="url(#p7ff5b81e1d)" d="
M72 185.246
L72.0744 187.236
L72.1488 187.665
L72.2232 187.14
L72.2976 187.416
L72.372 186.753
L72.5208 181.14
L72.744 173.053
L72.8184 174.325
L72.9672 172.569
L73.1904 168.035
L73.3392 171.74
L73.7112 187.25
L73.86 189.752
L74.0088 189.987
L74.3064 187.402
L74.5296 180.269
L74.7528 174.021
L75.1992 187.997
L75.5712 174.781
L75.6456 174.933
L76.0176 184.029
L76.3152 189.932
L76.464 187.126
L76.7616 178.458
L76.836 179.26
L76.9848 181.845
L77.1336 193.886
L77.208 193.125
L77.5056 168.367
L77.58 169.003
L77.8032 179.536
L77.8776 178.762
L77.952 180.324
L78.0264 178.997
L78.324 166.722
L78.3984 166.514
L78.6216 174.173
L78.9192 189.061
L78.9936 188.522
L79.068 188.619
L79.2168 195.033
L79.3656 199.83
L80.1096 176.163
L80.2584 177.961
L80.4816 179.467
L80.7792 168.298
L80.8536 169.694
L81.0024 182.937
L81.2256 195.241
L81.3 194.591
L81.4488 188.329
L81.5232 188.384
L81.5976 188.799
L81.8208 183.573
L82.1928 164.441
L82.2672 164.786
L82.5648 177.601
L82.7136 176.26
L82.8624 181.665
L83.0112 185.591
L83.0856 185.273
L83.16 186.822
L83.3088 192.655
L83.3832 191.964
L83.6064 176.855
L83.7552 180.96
L83.8296 180.656
L83.9784 178.818
L84.276 188.08
L84.4992 178.348
L84.5736 179.011
L84.7968 187.223
L85.1688 179.799
L85.2432 179.357
L85.4664 180.656
L85.6152 183.227
L85.8384 174.795
L86.2104 184.223
L86.4336 182.039
L86.6568 183.642
L86.8056 192.586
L86.88 192.075
L86.9544 191.356
L87.0288 191.632
L87.1776 182.619
L87.3264 171.961
L87.4008 172.376
L87.6984 161.814
L88.1448 183.656
L88.368 195.821
L88.5912 188.287
L88.74 190.167
L89.0376 179.841
L89.1864 181.748
L89.3352 177.933
L89.4096 178.209
L89.7072 196.554
L89.7816 195.752
L89.9304 191.895
L90.6744 162.104
L90.8232 156.782
L90.8976 158.109
L91.1952 178.32
L91.4184 189.338
L91.6416 192.061
L92.088 184.983
L92.2368 179.689
L92.3856 190.471
L92.5344 198.24
L93.2784 165.45
L93.8736 187.541
L93.948 186.918
L94.0968 182.55
L94.1712 182.661
L94.5432 192.808
L94.6176 192.586
L94.692 191.854
L94.7664 192.227
L94.8408 191.563
L94.9896 184.79
L95.1384 181.126
L95.2872 182.412
L95.7336 168.781
L95.8824 166.279
L96.0312 168.27
L96.2544 173.717
L96.4032 171.795
L96.4776 172.459
L97.296 197.162
L97.4448 193.222
L97.5192 193.817
L97.668 199.36
L97.7424 197.839
L98.1144 177.366
L98.6352 169.182
L98.7096 169.846
L98.8584 175.68
L99.0816 182.509
L99.2304 186.559
L99.3792 191.384
L99.528 192.102
L99.8256 190.72
L99.9744 182.923
L100.272 162.754
L100.57 169.804
L100.718 175.237
L101.016 188.467
L101.239 194.536
L101.76 182.675
L101.983 172.099
L102.206 180.269
L102.281 180.242
L102.504 176.191
L102.578 176.703
L103.248 189.02
L103.471 183.075
L103.546 183.131
L103.769 187.693
L103.992 183.462
L104.066 184.278
L104.141 184.444
L104.364 187.306
L104.587 192.158
L104.736 184.389
L104.959 170.33
L105.108 171.118
L105.182 170.841
L105.406 165.146
L105.554 164.399
L106.298 190.222
L106.447 194.273
L106.522 194.37
L106.596 195.268
L106.67 193.388
L106.819 185.743
L106.894 186.075
L107.117 188.481
L107.786 178.97
L107.861 179.025
L107.935 179.495
L108.01 179.315
L108.084 177.919
L108.233 182.011
L108.53 188.121
L108.605 187.071
L108.977 172.583
L109.051 172.859
L109.2 174.587
L109.423 171.27
L109.498 171.781
L109.795 182.73
L110.018 190.665
L110.167 189.752
L110.316 186.67
L110.39 186.683
L110.688 186.103
L110.762 185.204
L111.06 178.431
L111.358 178.265
L111.432 178.292
L111.73 182.094
L111.878 186.227
L111.953 185.647
L112.102 183.034
L112.325 171.353
L112.548 165.201
L112.697 168.463
L113.218 193.457
L113.292 191.55
L113.515 185.564
L113.59 184.969
L113.664 185.426
L113.813 191.536
L113.887 194.688
L113.962 193.927
L114.259 183.919
L114.334 183.518
L114.408 183.739
L114.557 186.269
L114.631 185.854
L114.78 179.633
L114.929 181.707
L115.003 181.085
L115.078 179.896
L115.226 181.444
L115.598 172.251
L115.747 165.602
L115.822 166.362
L116.045 182.398
L116.417 162.409
L116.491 164.358
L117.012 200.19
L117.086 200.895
L117.235 198.033
L117.533 183.628
L117.607 185.273
L117.682 185.384
L117.83 178.002
L117.905 178.624
L118.202 183.062
L118.277 183.075
L118.426 178.237
L118.574 175.279
L118.798 186.462
L119.244 175.624
L119.318 175.998
L119.542 179.882
L119.69 184.845
L119.765 184.762
L119.914 185.757
L119.988 185.73
L120.062 184.665
L120.286 175.182
L120.36 176.15
L120.434 176.398
L120.583 173.454
L121.03 184.43
L121.178 196.25
L121.253 195.918
L121.402 190.001
L121.476 190.416
L121.55 189.531
L121.699 183.089
L121.922 169.652
L121.997 169.611
L122.146 166.127
L122.22 166.583
L122.294 167.44
L122.815 188.646
L123.038 197.342
L123.262 190.084
L123.485 200.646
L123.559 197.701
L123.931 176.426
L124.154 163.39
L124.229 163.749
L124.452 170.302
L124.526 169.238
L124.601 169.652
L124.75 169.528
L124.973 174.408
L125.047 174.822
L125.122 174.131
L125.494 199.637
L125.568 196.333
L125.717 191.107
L125.94 194.273
L126.089 191.135
L126.163 191.55
L126.238 193.388
L126.312 193.001
L126.535 180.656
L126.758 173.744
L127.13 159.188
L127.279 166.625
L127.577 180.214
L127.726 189.49
L127.949 198.351
L128.023 199.374
L128.098 198.462
L128.618 172.956
L128.693 173.399
L128.767 174.2
L128.916 171.671
L128.99 173.081
L129.288 192.697
L129.362 191.232
L129.809 168.629
L129.883 168.477
L130.032 174.684
L130.33 188.799
L130.478 187.043
L130.627 183.131
L130.702 184.292
L130.925 191.84
L130.999 192.96
L131.074 191.729
L131.446 170.496
L131.52 170.122
L131.818 177.864
L132.19 197.024
L132.264 195.531
L132.71 155.151
L132.785 157.197
L133.38 200.701
L133.454 200.425
L133.529 199.927
L133.678 202.374
L133.752 202.111
L133.901 196.305
L134.198 174.2
L134.496 161.22
L134.645 159.823
L134.719 161.565
L135.24 189.186
L135.314 190.015
L135.463 188.287
L135.538 188.301
L135.835 176.606
L135.984 177.933
L136.133 180.006
L136.356 177.988
L136.43 177.974
L137.174 194.812
L137.323 200.079
L138.216 162.256
L138.29 162.713
L138.514 167.358
L138.662 181.527
L138.886 198.005
L138.96 199.139
L139.034 198.959
L139.258 182.218
L139.481 172.569
L139.704 164.855
L139.778 165.491
L139.853 167.399
L140.299 192.711
L140.597 203.355
L140.671 202.042
L140.746 200.687
L141.043 179.896
L141.266 165.298
L141.341 165.906
L141.564 171.712
L141.713 175.486
L141.936 186.366
L142.01 185.771
L142.159 181.97
L142.382 179.592
L142.457 180.2
L142.68 184.803
L142.754 185.647
L142.903 191.909
L143.126 182.108
L143.201 183.462
L143.275 183.117
L143.573 170.841
L143.647 172.445
L144.168 183.642
L144.466 180.919
L144.689 176.675
L144.763 177.048
L144.838 176.661
L144.986 178.403
L145.284 189.904
L145.358 189.642
L145.433 188.356
L145.507 188.716
L145.879 201.696
L145.954 200.203
L146.102 192.351
L146.549 159.284
L146.698 155.911
L146.921 161.842
L147.07 159.658
L147.218 169.542
L147.516 196.181
L147.888 205.885
L147.962 204.641
L148.93 158.013
L149.45 189.517
L149.599 192.973
L149.748 196.595
L150.194 183.85
L150.715 162.713
L150.79 164.123
L151.013 179.55
L151.087 179.025
L151.162 178.5
L151.31 183.241
L151.534 191.826
L151.757 190.61
L151.831 190.513
L151.98 189.379
L152.65 173.841
L152.873 181.375
L152.947 179.882
L153.022 177.684
L153.096 178.583
L153.245 184.029
L153.319 182.979
L153.542 173.73
L153.766 178.099
L153.914 185.633
L153.989 185.536
L154.138 181.347
L154.286 185.799
L154.361 184.14
L154.51 174.311
L154.584 174.864
L154.807 184.665
L154.882 184.9
L155.03 193.139
L155.179 199.415
L155.254 199.305
L155.477 191.688
L155.774 162.989
L155.998 168.519
L156.072 169.708
L156.295 177.269
L156.518 173.122
L156.667 180.394
L156.816 188.232
L156.89 187.955
L156.965 188.411
L157.039 188.135
L157.188 186.628
L157.262 188.522
L157.337 188.038
L157.56 174.463
L157.783 178.085
L158.006 175.237
L158.304 193.789
L158.378 191.84
L158.602 185.177
L158.75 190.9
L158.825 190.319
L158.974 187.789
L159.122 188.577
L159.197 188.149
L159.346 184.845
L159.941 170.205
L160.387 162.229
L160.462 162.989
L160.61 173.772
L160.908 199.637
L160.982 198.876
L161.206 189.808
L161.28 190.195
L161.429 191.895
L161.875 176.343
L162.024 177.905
L162.173 181.417
L162.322 186.131
L162.47 184.278
L162.545 183.532
L162.768 172.611
L162.842 174.104
L163.066 184.264
L163.289 176.91
L163.512 182.412
L163.735 178.514
L163.884 180.338
L163.958 180.02
L164.107 174.878
L164.256 171.726
L164.851 191.425
L164.926 191.439
L165.074 193.734
L165.149 193.347
L165.521 185.218
L165.818 191.522
L165.893 191.978
L166.116 178.845
L166.19 179.232
L166.265 179.979
L166.339 177.712
L166.562 162.796
L166.786 157.916
L166.86 158.206
L167.009 161.386
L167.083 160.598
L167.158 159.146
L167.306 166.335
L167.902 201.503
L168.125 194.397
L168.422 183.034
L168.497 183.905
L169.018 204.973
L169.092 204.931
L169.39 198.074
L169.836 172.68
L169.91 173.274
L169.985 175.776
L170.059 175.389
L170.506 154.709
L170.654 152.4
L170.729 152.524
L170.878 160.846
L171.175 180.394
L171.324 182.688
L171.398 182.467
L171.473 182.675
L171.622 184.568
L171.845 179.868
L171.994 185.633
L172.291 200.093
L172.366 198.793
L172.886 177.269
L173.035 182.73
L173.258 198.213
L173.333 197.342
L173.556 179.716
L173.779 187.554
L173.928 184.292
L174.002 184.72
L174.151 186.31
L174.746 167.938
L174.895 175.21
L175.044 182.08
L175.267 177.021
L175.416 176.468
L175.714 170.274
L175.788 170.523
L176.086 179.122
L176.16 178.348
L176.309 177.352
L176.458 180.96
L176.755 189.725
L177.053 192.503
L177.127 193.83
L177.202 193.637
L177.425 187.071
L177.648 172.362
L177.722 172.583
L177.871 176.592
L177.946 176.537
L178.02 177.504
L178.318 188.868
L178.541 183.062
L178.615 183.075
L178.764 179.827
L178.987 173.081
L179.062 173.91
L179.508 189.047
L179.806 197.798
L179.954 201.683
L180.029 200.936
L180.401 183.753
L180.773 138.963
L180.847 141.617
L181.517 197.563
L182.038 180.905
L182.186 184.375
L182.41 190.292
L182.484 190.402
L182.633 187.195
L182.707 187.886
L182.856 193.43
L182.93 192.863
L183.526 171.339
L183.6 170.592
L183.674 170.91
L184.046 175.859
L184.195 174.435
L184.344 176.15
L184.418 175.942
L184.493 175.237
L184.567 176.799
L184.79 190.457
L184.865 190.222
L185.088 197.881
L185.162 196.512
L185.46 191.95
L185.609 191.729
L185.758 183.117
L185.906 176.08
L185.981 175.514
L186.278 167.482
L186.502 175.832
L186.576 175.652
L186.65 175.776
L186.799 179.177
L187.022 185.232
L187.171 183.075
L187.543 171.477
L187.692 170.302
L187.99 162.63
L188.882 201.765
L188.957 202.277
L189.106 201.226
L189.254 202.623
L189.775 189.877
L189.924 185.854
L190.222 173.26
L190.37 172.555
L190.519 169.21
L190.742 163.708
L190.817 163.832
L190.966 165.56
L191.263 158.759
L191.338 159.284
L191.486 165.229
L192.082 200.867
L192.23 202.761
L192.305 202.719
L192.528 196.416
L192.751 185.702
L192.826 186.103
L192.974 190.61
L193.049 190.07
L193.198 184.43
L193.421 169.403
L193.495 169.804
L193.942 183.711
L194.016 182.771
L194.314 171.961
L194.686 177.408
L194.909 181.486
L195.132 182.384
L195.206 182.412
L195.504 178.361
L195.653 176.067
L195.802 179.301
L196.248 189.725
L196.322 189.462
L196.397 189.49
L196.471 189.932
L196.546 188.923
L196.918 177.656
L197.066 181.472
L197.215 185.716
L197.662 179.136
L197.885 176.385
L198.034 182.827
L198.257 190.969
L198.778 171.919
L198.852 171.242
L199.15 177.67
L199.373 187.872
L199.447 187.596
L199.745 176.716
L199.819 177.795
L200.042 185.398
L200.117 185.481
L200.191 186.048
L200.266 185.495
L200.34 185.868
L200.414 185.439
L200.712 175.984
L201.01 170.565
L201.084 171.864
L201.456 185.052
L201.605 184.568
L201.679 186.269
L201.828 193.416
L201.977 188.176
L202.051 185.909
L202.126 186.061
L202.423 198.227
L202.498 197.604
L202.721 181.804
L203.018 163.929
L203.093 164.524
L203.242 167.496
L203.316 167.371
L203.39 167.358
L203.539 174.007
L203.762 184.403
L203.837 184.665
L203.986 182.052
L204.209 186.435
L204.655 177.007
L204.73 178.223
L204.953 182.923
L205.027 182.799
L205.176 186.2
L205.25 188.909
L205.325 188.771
L205.399 187.582
L205.474 187.748
L205.622 190.706
L205.697 189.352
L205.994 176.15
L206.218 183.435
L206.366 179.536
L206.441 177.684
L206.515 177.795
L206.887 183.449
L207.11 179.675
L207.259 175.417
L207.482 168.864
L207.631 173.565
L207.854 178.97
L208.003 183.062
L208.375 196.568
L208.524 198.379
L208.673 196.208
L208.896 185.19
L209.342 158.87
L209.417 157.598
L209.491 157.874
L209.64 165.547
L210.086 191.425
L210.384 200.01
L210.458 199.512
L210.979 183.642
L211.426 167.44
L211.5 167.454
L211.574 167.302
L211.649 167.579
L211.798 172.486
L212.095 196.139
L212.17 193.678
L212.542 174.864
L212.616 174.366
L213.137 189.241
L213.286 198.42
L213.509 186.808
L213.583 187.001
L213.732 191.826
L213.806 191.342
L213.955 184.734
L214.476 156.727
L214.625 154.709
L214.699 155.566
L214.848 166.279
L215.071 181.956
L215.22 188.577
L215.443 202.65
L215.518 202.858
L216.113 188.176
L216.485 172.141
L216.634 171.27
L216.782 174.408
L217.229 193.803
L217.378 187.554
L217.898 166.625
L217.973 167.316
L218.27 192.102
L218.345 189.752
L218.494 183.034
L218.866 162.726
L218.94 161.551
L219.163 170.717
L219.386 194.024
L219.461 193.208
L219.982 176.26
L220.056 176.509
L220.428 199.692
L220.502 198.973
L220.8 179.606
L220.949 182.854
L221.023 180.808
L221.172 172.265
L221.246 175.071
L221.47 191.757
L221.767 172.79
L221.916 180.103
L221.99 179.274
L222.214 169.016
L222.288 168.823
L222.362 172.265
L222.586 190.499
L222.883 166.805
L223.106 184.873
L223.181 183.96
L223.33 180.974
L223.404 182.605
L223.627 201.793
L223.702 200.024
L223.925 181.679
L224.148 193.844
L224.446 177.449
L224.52 177.836
L224.669 182.813
L224.818 169.818
L225.041 152.455
L225.71 201.365
L225.785 200.411
L226.008 189.213
L226.082 190.222
L226.306 200.535
L226.38 199.084
L226.678 187.527
L226.752 186.089
L226.901 173.979
L227.124 153.243
L227.645 181.043
L227.868 183.863
L228.017 177.712
L228.166 173.772
L228.389 180.947
L228.538 177.933
L228.612 179.301
L228.835 195.434
L228.91 193.789
L229.058 189.282
L229.282 195.379
L229.654 183.808
L229.728 184.223
L229.802 183.933
L229.951 178.251
L230.174 162.409
L230.249 163.238
L230.621 178.901
L230.77 186.186
L230.918 191.508
L231.216 181.734
L231.365 189.711
L231.514 195.959
L231.588 194.881
L232.109 171.214
L232.258 169.611
L232.332 169.804
L232.555 174.988
L232.63 174.021
L232.778 167.62
L233.002 173.827
L233.671 194.798
L233.894 193.001
L234.118 185.301
L234.266 193.775
L234.341 198.627
L234.415 198.061
L234.564 194.494
L235.01 181.334
L235.382 156.022
L235.457 156.851
L235.606 151.875
L235.68 152.87
L235.829 160.929
L236.201 193.443
L236.424 204.973
L236.498 205.194
L236.647 201.088
L237.242 175.237
L237.317 172.417
L237.391 173.164
L237.54 180.076
L237.614 179.661
L237.912 167.993
L237.986 167.841
L238.135 173.081
L238.284 187.471
L238.433 205.36
L238.507 201.655
L238.73 181.97
L238.805 182.578
L238.954 191.301
L239.102 197.867
L239.177 196.388
L239.549 174.366
L239.772 151.709
L239.846 153.34
L240.144 167.454
L240.218 166.5
L240.293 167.551
L240.442 175.638
L240.739 192.476
L240.814 192.614
L240.962 190.706
L241.111 194.549
L241.334 199.443
L241.483 195.959
L241.706 190.112
L242.004 176.122
L242.078 175.707
L242.153 175.832
L242.376 178.914
L242.45 179.122
L242.674 176.288
L242.822 179.509
L242.897 179.274
L243.194 164.911
L243.269 166.017
L243.492 169.362
L244.087 189.31
L244.162 188.66
L244.236 188.439
L244.534 196.775
L244.608 196.678
L244.682 196.374
L244.831 191.646
L245.054 183.988
L245.129 184.292
L245.203 183.034
L245.426 176.108
L245.65 178.859
L245.798 177.435
L245.873 177.587
L246.096 183.504
L246.245 187.568
L246.394 182.246
L246.542 177.532
L246.914 183.186
L246.989 182.287
L247.286 169.666
L247.361 171.975
L247.584 179.454
L247.733 174.587
L248.105 153.741
L248.254 156.92
L248.7 201.461
L248.923 219.156
L249.146 221.52
L249.221 220.193
L249.37 206.673
L249.667 179.398
L249.965 163.57
L250.114 158.137
L250.783 187.264
L250.932 193.941
L251.006 192.96
L251.378 177.173
L251.75 162.948
L251.899 167.703
L252.42 183.435
L252.643 181.209
L252.792 178.845
L252.866 179.592
L253.238 187.72
L253.313 186.932
L253.462 182.301
L253.536 182.315
L253.759 190.554
L253.982 185.453
L254.28 196.886
L254.354 195.766
L254.578 193.236
L254.726 189.96
L254.875 190.9
L254.95 189.974
L255.247 173.081
L255.545 159.353
L255.694 161.634
L255.842 168.408
L256.14 186.338
L256.661 166.805
L256.81 156.893
L256.884 157.363
L257.033 172.5
L257.256 196.775
L257.479 202.899
L257.702 213.35
L257.777 212.355
L257.926 200.051
L258.149 182.108
L258.298 179.08
L258.595 162.699
L258.67 163.086
L259.265 183.988
L259.488 194.411
L259.711 193.43
L259.86 188.121
L260.381 154.073
L260.455 152.773
L260.53 153.603
L260.753 168.574
L261.274 209.535
L261.348 210.875
L261.422 210.848
L261.571 204.309
L261.794 192.973
L261.869 191.508
L262.092 194.618
L262.241 189.352
L262.538 170.454
L262.613 171.422
L262.687 171.864
L262.836 166.514
L263.134 150.921
L263.208 151.17
L263.282 150.686
L263.431 148.446
L263.506 149.718
L263.729 165.809
L264.101 198.392
L264.473 211.885
L264.622 209.839
L264.77 211.816
L264.845 210.834
L265.068 199.139
L265.663 159.008
L265.886 153.354
L266.035 163.998
L266.258 176.786
L266.333 177.034
L266.482 179.758
L266.705 192.033
L266.779 192.006
L267.002 185.965
L267.151 179.357
L267.226 180.103
L267.449 184.831
L267.821 181.804
L267.97 184.568
L268.118 181.334
L268.342 173.703
L268.416 173.62
L268.565 174.587
L268.788 170.744
L268.937 177.643
L269.16 185.55
L269.309 183.131
L269.458 187.126
L269.606 190.084
L269.755 189.849
L269.83 188.951
L269.904 189.891
L270.127 200.66
L270.202 200.024
L270.499 185.647
L270.797 174.657
L270.871 174.643
L271.169 168.809
L271.243 169.058
L271.392 172.79
L271.615 168.519
L271.913 180.698
L271.987 178.5
L272.062 176.758
L272.136 176.868
L272.359 180.532
L272.434 179.868
L272.657 172.445
L272.954 191.342
L273.029 190.209
L273.326 179.301
L273.475 184.624
L273.55 184.057
L273.698 181.721
L273.773 182.412
L273.847 184.389
L274.294 213.281
L274.442 205.47
L274.889 170.744
L275.038 177.048
L275.112 176.951
L275.41 168.035
L275.558 165.146
L275.782 155.87
L275.856 157.418
L276.079 166.874
L276.302 161.69
L276.451 170.205
L276.6 177.864
L276.749 173.592
L276.823 175.362
L277.195 207.53
L277.418 197.038
L277.642 205.097
L277.865 188.439
L277.939 190.679
L278.162 205.678
L278.237 206.148
L278.311 204.904
L278.609 186.877
L279.427 141.272
L279.502 142.751
L279.725 160.681
L280.171 200.895
L280.32 205.443
L280.394 205.152
L280.618 200.577
L280.766 190.706
L281.064 165.795
L281.213 166.625
L281.287 165.754
L281.362 166.666
L282.106 206.507
L282.18 204.793
L282.552 182.301
L282.85 189.49
L283.073 184.168
L283.222 179.799
L283.519 164.081
L283.668 167.745
L283.817 170.952
L283.891 169.652
L284.114 155.109
L284.263 149.649
L284.561 170.827
L284.933 203.397
L285.23 211.097
L285.305 209.465
L285.602 196.457
L285.677 194.577
L285.751 194.867
L285.974 197.687
L286.123 192.89
L286.718 160.086
L286.942 151.101
L287.09 157.225
L287.388 169.113
L287.537 170.026
L287.611 169.403
L287.834 164.358
L288.058 175.21
L288.653 215.354
L288.727 215.202
L289.025 205.968
L289.397 188.052
L289.694 171.809
L289.843 165.16
L290.066 150.064
L290.141 150.769
L290.438 165.353
L290.513 165.077
L290.662 170.689
L290.959 191.093
L291.034 191.19
L291.108 191.508
L291.257 193.222
L291.48 182.578
L291.554 182.592
L291.852 199.36
L292.224 181.665
L292.373 179.965
L292.819 169.03
L292.894 169.127
L293.042 169.749
L293.489 185.066
L293.786 193.499
L293.861 193.25
L294.158 179.288
L294.233 180.421
L294.382 183.089
L294.53 181.638
L294.679 190.347
L294.828 201.434
L294.902 198.904
L295.2 175.113
L295.274 175.099
L295.349 174.463
L295.721 164.275
L295.795 165.45
L296.167 179.481
L296.39 186.075
L296.539 187.624
L296.688 181.099
L296.911 175.21
L297.06 169.915
L297.134 171.864
L297.506 194.591
L297.655 198.918
L297.953 189.462
L298.102 190.209
L298.399 196.927
L299.292 159.865
L299.366 160.515
L299.515 162.962
L299.887 174.104
L300.334 184.859
L300.408 184.527
L300.482 184.361
L300.631 188.107
L300.706 189.711
L300.78 189.504
L300.854 188.425
L300.929 188.729
L301.152 197.162
L301.375 193.181
L301.45 193.236
L301.524 192.835
L301.598 193.098
L301.747 194.605
L302.268 177.477
L302.714 154.874
L302.789 154.888
L302.938 156.727
L303.384 175.071
L304.128 200.369
L304.202 199.236
L304.5 189.089
L304.574 188.895
L304.723 182.605
L304.798 183.366
L305.095 200.411
L305.244 196.678
L305.616 178.596
L305.765 169.86
L305.988 155.358
L306.211 157.473
L306.286 157.432
L306.36 159.519
L306.732 182.011
L306.881 184.002
L307.104 191.121
L307.253 203.037
L307.327 202.07
L307.55 188.301
L307.699 189.13
L307.922 175.099
L307.997 175.237
L308.22 179.924
L308.369 178.5
L308.443 178.555
L308.518 179.841
L308.741 190.582
L308.815 190.209
L309.113 182.398
L309.336 179.592
L309.41 181.071
L309.485 181.057
L309.708 172.555
L309.782 173.025
L309.931 180.504
L310.006 179.122
L310.154 173.426
L310.378 176.965
L310.526 174.131
L310.601 174.698
L311.122 191.19
L311.196 191.66
L311.345 198.683
L311.419 197.452
L311.791 171.878
L311.94 176.55
L312.014 175.32
L312.089 173.717
L312.163 174.491
L312.461 184.485
L312.684 183.241
L312.758 182.052
L312.907 191.204
L312.982 196.388
L313.056 195.669
L313.205 189.462
L313.279 189.517
L313.354 189.117
L313.577 169.569
L313.651 170.883
L313.949 188.038
L314.098 191.121
L314.172 189.31
L314.47 175.597
L314.544 174.975
L314.767 154.584
L314.842 154.667
L314.99 161.109
L315.065 160.542
L315.214 170.744
L315.362 175.749
L315.511 173.606
L315.66 178.417
L315.883 189.434
L316.106 205.512
L316.33 198.71
L316.553 206.106
L316.702 196.664
L317.074 163.155
L317.148 166.141
L317.52 184.707
L317.743 193.789
L318.041 199.263
L318.19 193.748
L318.785 165.809
L318.934 157.695
L319.082 161.994
L319.157 159.381
L319.306 145.433
L319.38 146.055
L319.529 155.649
L319.603 155.427
L319.678 154.501
L319.826 166.307
L320.719 231.224
L321.166 205.36
L321.463 174.145
L321.686 153.603
L321.91 163.418
L322.058 160.183
L322.579 178.458
L322.654 180.076
L322.802 175.597
L322.877 177.67
L323.1 189.089
L323.174 190.292
L323.398 199.056
L323.546 190.07
L323.695 184.181
L323.77 182.91
L324.365 147.603
L324.662 164.261
L324.737 165.699
L325.332 218.52
L325.406 217.718
L326.15 186.117
L326.671 162.92
L326.894 165.865
L327.043 159.796
L327.192 155.275
L327.341 160.777
L327.564 173.012
L327.787 194.563
L328.159 180.02
L328.308 184.25
L328.531 193.07
L328.68 191.494
L328.903 199.028
L329.126 191.605
L329.201 192.379
L329.275 192.946
L329.424 185.19
L329.647 175.182
L329.722 174.809
L329.87 175.182
L330.019 179.053
L330.094 181.237
L330.168 181.071
L330.391 174.629
L330.466 175.196
L330.54 176.136
L330.763 167.703
L330.838 169.334
L330.912 171.684
L330.986 171.366
L331.135 167.192
L331.879 197.522
L332.028 197.051
L332.102 197.3
L332.251 192.13
L332.474 184.886
L332.772 179.329
L332.846 180.504
L333.144 172.334
L333.218 172.431
L333.293 171.85
L333.516 167.98
L333.59 169.058
L334.409 198.254
L334.483 200.024
L334.558 199.885
L335.078 174.726
L335.45 159.298
L335.525 158.897
L335.674 161.469
L335.897 174.809
L336.194 188.301
L336.269 188.743
L336.343 186.462
L336.641 169.016
L336.938 182.274
L337.31 210.654
L337.385 210.018
L337.682 197.992
L338.054 174.684
L338.278 165.464
L338.352 166.1
L338.724 160.791
L338.798 161.178
L338.947 166.404
L339.245 184.555
L339.319 186.172
L339.542 206.576
L339.617 205.982
L339.766 202.871
L339.84 202.719
L340.138 191.356
L340.212 191.605
L340.286 192.089
L340.435 187.167
L340.733 170.565
L340.807 171.588
L340.882 171.671
L341.105 166.072
L341.328 154.377
L341.402 155.801
L341.477 159.312
L341.551 158.662
L341.7 149.483
L341.774 151.557
L341.923 162.713
L341.998 161.496
L342.072 160.542
L342.593 200.383
L342.742 208.415
L342.89 201.613
L343.114 212.368
L343.262 203.618
L343.337 206.742
L343.486 222.004
L343.56 221.741
L343.634 219.336
L343.709 219.93
L343.783 223.511
L343.858 223.442
L344.304 191.812
L344.602 156.962
L345.197 128.913
L345.346 133.115
L345.42 132.231
L345.569 123.826
L345.643 124.047
L346.164 184.071
L346.536 222.225
L346.685 229.621
L346.759 227.354
L346.834 228.073
L346.908 232.303
L346.982 232.164
L347.503 209.894
L347.578 209.189
L347.652 210.35
L347.801 197.411
L348.545 89.2105
L348.694 101.541
L348.842 127.669
L349.214 268.909
L349.438 331.255
L349.512 331.822
L349.661 309.924
L349.958 214.511
L350.33 99.067
L350.628 65.8064
L350.777 61.5486
L351 72.0825
L351.149 98.749
L351.818 256.785
L352.042 273.844
L352.116 270.637
L352.488 216.142
L352.786 186.241
L352.86 185.937
L353.009 178.403
L353.306 163.238
L353.604 153.686
L353.678 155.054
L354.348 189.02
L354.422 187.914
L354.571 181.638
L354.72 183.241
L354.869 186.352
L354.943 185.605
L355.018 185.661
L355.092 187.306
L355.166 187.043
L355.315 182.536
L355.39 183.96
L355.538 190.278
L355.687 183.946
L355.762 181.679
L355.91 190.029
L355.985 194.052
L356.059 192.531
L356.357 173.191
L356.506 166.404
L356.729 157.653
L356.803 157.598
L356.878 157.93
L357.101 160.846
L357.175 161.026
L357.324 173.094
L357.473 186.338
L357.547 186.158
L357.622 185.038
L357.696 186.753
L357.77 185.868
L357.919 182.868
L358.291 204.268
L358.366 205.871
L358.44 205.857
L358.514 205.802
L358.589 206.148
L358.738 210.184
L358.961 200.107
L359.854 151.253
L360.151 135.659
L360.226 135.217
L360.3 137
L360.523 160.418
L360.97 206.314
L361.267 214.276
L361.342 214.027
L362.086 186.034
L362.383 158.787
L362.458 158.455
L362.606 151.653
L362.681 151.875
L363.202 181.928
L363.35 189.918
L363.425 189.352
L363.722 183.255
L363.797 182.205
L363.871 182.84
L364.094 194.176
L364.169 193.844
L364.615 186.186
L364.764 179.924
L364.913 180.96
L365.136 173.661
L365.21 173.938
L365.434 177.67
L365.508 178.126
L365.582 177.878
L365.806 172.528
L365.954 176.246
L366.029 175.624
L366.178 170.302
L366.252 171.242
L366.55 190.969
L366.624 190.637
L366.698 190.527
L366.847 191.632
L366.996 183.145
L367.219 175.071
L367.294 174.905
L367.368 176.136
L367.814 199.001
L367.889 197.632
L368.038 194.494
L368.633 165.74
L368.707 166.445
L369.005 183.117
L369.079 182.578
L369.377 164.62
L369.749 177.836
L369.972 189.987
L370.27 185.799
L370.642 198.531
L370.716 197.95
L370.865 199.25
L371.088 191.315
L371.609 171.394
L371.832 159.699
L371.981 164.067
L372.13 169.459
L372.278 166.722
L372.353 168.726
L372.576 183.532
L372.65 182.509
L372.799 179.592
L372.874 180.089
L373.022 182.84
L373.171 181.458
L373.246 182.675
L373.394 194.383
L373.543 204.42
L373.618 202.056
L373.915 178.831
L374.064 182.578
L374.138 181.652
L374.362 168.851
L374.436 169.417
L374.585 177.656
L374.734 188.149
L374.957 181.693
L375.254 187.914
L375.403 186.393
L375.478 186.974
L375.775 196.471
L375.998 184.845
L376.37 156.755
L376.519 155.234
L376.594 156.243
L376.966 174.311
L377.189 185.08
L377.263 185.025
L377.338 184.679
L377.486 191.204
L377.71 203.908
L377.784 203.59
L377.858 203.632
L378.082 206.327
L378.156 205.733
L378.9 154.888
L378.974 155.151
L379.049 155.344
L379.123 157.294
L379.272 164.966
L379.346 164.925
L379.421 165.602
L379.495 167.371
L379.718 189.421
L379.942 200.314
L380.09 207.226
L380.314 215.534
L380.388 213.571
L381.281 149.843
L381.355 149.594
L381.43 148.529
L381.578 154.169
L381.727 162.865
L382.471 217.525
L382.546 216.046
L383.215 176.896
L383.513 172.998
L383.662 178.002
L383.81 187.209
L384.331 167.758
L384.554 156.63
L384.629 156.755
L384.778 171.062
L385.001 185.605
L385.075 184.278
L385.224 189.434
L385.373 196.664
L385.596 180.794
L385.67 180.905
L385.819 190.264
L386.042 200.48
L386.266 195.075
L386.414 199.084
L386.489 198.849
L386.786 161.745
L386.861 162.491
L387.01 168.533
L387.084 167.053
L387.233 159.215
L387.382 168.463
L387.605 191.757
L387.679 187.983
L387.902 177.601
L388.051 185.287
L388.126 184.79
L388.274 174.919
L388.349 176.08
L388.646 203.176
L388.795 192.351
L388.87 193.278
L389.018 205.083
L389.167 214.179
L389.316 197.839
L389.539 178.818
L389.688 180.615
L389.986 153.188
L390.06 154.197
L390.209 160.501
L390.283 160.252
L390.581 141.203
L390.655 142.004
L390.73 141.493
L390.878 131.097
L390.953 133.102
L391.027 134.512
L391.102 138.77
L391.399 199.485
L391.697 272.848
L391.92 299.93
L391.994 297.939
L392.143 282.18
L392.962 107.596
L393.259 80.4046
L393.334 79.6996
L393.78 117.494
L394.45 254.946
L394.524 254.297
L394.598 254.283
L394.673 253.481
L395.119 225.819
L395.491 184.375
L395.789 156.658
L396.161 145.93
L396.235 146.622
L396.533 160.957
L396.607 161.8
L396.756 168.629
L396.979 183.946
L397.054 183.449
L397.351 192.808
L397.574 199.208
L397.649 199.111
L397.723 199.747
L397.946 204.198
L398.021 203.742
L398.616 169.334
L398.69 169.113
L398.914 157.432
L399.137 161.745
L399.36 167.786
L399.881 202.678
L399.955 202.429
L400.104 201.199
L400.253 192.324
L400.476 176.55
L400.55 176.537
L400.699 179.495
L400.774 179.73
L400.922 177.173
L401.146 181.665
L401.22 181.499
L401.592 174.864
L401.666 174.988
L401.815 179.122
L401.964 181.527
L402.113 181.762
L402.187 183.227
L402.336 187.776
L402.41 184.928
L402.485 184.942
L402.708 190.665
L402.782 191.397
L403.006 174.159
L403.08 174.297
L403.675 196.098
L403.75 193.098
L404.27 153.934
L404.419 145.502
L404.568 151.75
L404.791 176.468
L405.163 218.562
L405.386 221.036
L405.684 205.65
L406.354 153.686
L406.428 149.69
L406.502 149.995
L406.726 163.418
L406.874 155.828
L407.023 172.666
L407.172 183.67
L407.321 180.864
L407.618 192.338
L407.693 192.102
L407.767 193.029
L407.99 203.728
L408.437 183.628
L408.586 174.947
L408.66 175.472
L408.734 174.85
L408.883 172.68
L408.958 172.735
L409.032 172.293
L409.255 169.279
L409.404 171.339
L409.478 171.187
L409.553 170.44
L409.776 180.352
L409.925 183.601
L410.074 183.462
L410.297 186.988
L410.446 188.743
L410.594 198.503
L410.892 230.685
L410.966 230.105
L411.115 220.082
L411.413 181.831
L411.859 128.581
L411.934 126.743
L412.008 127.226
L412.157 132.853
L412.603 174.366
L412.975 205.609
L413.124 214.58
L413.422 202.788
L413.496 202.553
L413.57 202.733
L413.719 204.364
L413.794 204.046
L414.463 168.574
L414.538 169.459
L414.761 163.915
L414.835 162.132
L414.91 163.542
L415.133 170.731
L415.282 170.993
L415.43 167.993
L415.505 168.187
L415.728 172.68
L416.174 199.65
L416.398 207.433
L416.546 195.697
L416.695 184.748
L416.77 184.292
L416.918 174.933
L417.067 164.206
L417.29 173.302
L417.439 181.486
L417.662 203.397
L418.183 184.886
L418.63 164.911
L418.704 161.621
L418.778 162.561
L418.927 167.219
L419.002 167.205
L419.076 166.03
L419.15 166.279
L419.299 173.855
L419.448 179.481
L419.522 179.993
L419.746 186.946
L420.043 179.412
L420.118 180.988
L420.266 185.163
L420.49 182.702
L420.713 193.153
L420.787 193.112
L420.936 189.614
L421.085 194.508
L421.159 194.397
L421.457 177.56
L421.531 179.467
L421.606 177.325
L421.754 167.758
L422.126 185.481
L422.275 187.762
L422.424 182.536
L422.573 175.168
L422.796 185.674
L422.87 185.536
L423.094 180.269
L423.168 181.292
L423.466 175.666
L423.54 176.44
L423.763 181.624
L423.912 175.389
L424.061 171.975
L424.284 174.629
L424.507 185.882
L424.582 184.983
L424.73 180.753
L424.805 182.453
L425.102 200.065
L425.177 199.084
L425.4 191.287
L425.698 169.044
L425.846 174.546
L426.07 165.16
L426.144 167.841
L426.516 194.978
L426.59 194.024
L426.665 194.176
L426.739 193.582
L427.334 177.159
L427.483 173.578
L427.558 173.565
L427.706 175.251
L428.004 166.943
L428.078 167.551
L428.227 169.279
L428.599 181.665
L428.674 181.624
L428.748 182.923
L428.971 197.867
L429.046 197.729
L429.12 197.591
L429.269 192.31
L429.492 184.347
L429.938 186.518
L430.236 180.131
L430.31 181.417
L430.385 179.924
L430.608 169.652
L430.757 172.154
L431.054 166.003
L431.203 173.412
L431.65 195.337
L431.724 197.093
L431.798 196.526
L432.022 183.628
L432.096 183.642
L432.17 183.227
L432.319 180.988
L432.468 187.057
L432.542 186.2
L432.766 174.615
L432.989 184.154
L433.063 181.817
L433.212 174.159
L433.286 175.666
L433.51 184.209
L433.584 183.974
L433.658 184.195
L433.733 185.149
L434.03 177.034
L434.105 177.643
L434.254 181.79
L434.477 171.933
L434.923 193.651
L434.998 193.665
L435.518 167.869
L435.667 164.925
L435.742 165.187
L435.816 164.897
L436.114 171.919
L436.634 203.991
L436.709 202.816
L437.006 193.001
L437.304 200.411
L437.453 189.725
L437.676 171.27
L437.899 162.892
L438.048 158.303
L438.271 165.077
L438.346 164.067
L438.494 171.284
L438.792 183.048
L439.015 189.835
L439.09 189.711
L439.238 188.135
L439.387 186.034
L439.685 193.568
L439.908 197.687
L439.982 197.591
L440.131 191.577
L440.726 154.1
L440.875 158.856
L441.396 177.684
L441.47 179.039
L441.842 206.576
L441.917 204.959
L442.066 199.194
L442.214 198.047
L442.438 202.166
L442.512 202.305
L442.661 194.01
L443.182 152.193
L443.256 151.764
L443.33 153.133
L443.554 162.63
L443.777 164.302
L443.926 173.067
L444.223 198.558
L444.521 188.038
L444.67 184.555
L444.967 206.977
L445.042 205.277
L445.488 178.956
L445.637 180.767
L446.009 166.805
L446.083 167.026
L446.753 182.094
L446.976 190.374
L447.05 191.162
L447.274 189.822
L447.422 182.661
L447.571 178.057
L447.646 178.887
L447.869 186.891
L447.943 185.84
L448.39 167.026
L448.464 167.993
L448.762 180.172
L448.836 180.048
L449.059 179.274
L449.208 187.209
L449.431 194.591
L449.654 190.554
L449.729 190.43
L449.803 190.72
L449.878 192.738
L449.878 192.738" style="fill:none;stroke:#808080;stroke-linecap:square;"/>
   </g>
  </g>
 </g>
 <defs>
  <clipPath id="p7ff5b81e1d">
   <rect height="345.6" width="446.4" x="72.0" y="43.2"/>
  </clipPath>
 </defs>
</svg>
