<?xml version="1.0" encoding="utf-8" standalone="no"?>
<!DOCTYPE svg PUBLIC "-//W3C//DTD SVG 1.1//EN"
  "http://www.w3.org/Graphics/SVG/1.1/DTD/svg11.dtd">
<!-- Created with matplotlib (http://matplotlib.org/) -->
<svg height="432pt" version="1.1" viewBox="0 0 576 432" width="576pt" xmlns="http://www.w3.org/2000/svg" xmlns:xlink="http://www.w3.org/1999/xlink">
 <defs>
  <style type="text/css">
*{stroke-linecap:butt;stroke-linejoin:round;}
  </style>
 </defs>
 <g id="figure_1">
  <g id="patch_1">
   <path d="
M0 432
L576 432
L576 0
L0 0
z
" style="fill:#ffffff;"/>
  </g>
  <g id="axes_1">
   <g id="line2d_1">
    <path clip-path="url(#p7ff5b81e1d)" d="
M72 217.643
L72.0744 211.37
L72.2232 207.476
L72.372 211.134
L72.5208 206.739
L72.5952 207.511
L72.6696 203.237
L72.8928 164.449
L73.116 200.783
L73.4136 158.666
L73.7112 221.479
L74.0832 329.369
L74.1576 328.644
L74.232 325.625
L74.3808 302.303
L74.604 270.56
L74.8272 231.426
L75.348 120.045
L75.4968 108.422
L75.5712 108.905
L75.6456 112.845
L75.7944 137.711
L76.3896 284.758
L76.464 287.667
L76.5384 286.118
L76.6872 270.41
L77.1336 216.969
L77.208 214.648
L77.3568 216.318
L77.5056 215.84
L77.6544 218.317
L77.7288 217.597
L78.1008 203.456
L78.3984 190.409
L78.4728 189.753
L78.6216 193.117
L78.7704 205.276
L79.2168 268.728
L79.3656 254.42
L79.812 177.91
L79.8864 177
L80.0352 182.374
L80.4072 200.484
L80.4816 200.034
L80.556 199.372
L80.7048 211.013
L80.928 226.461
L81.0024 224.975
L81.0768 225.931
L81.3744 254.841
L81.4488 254.818
L81.5976 240.112
L82.044 174.287
L82.1184 173.366
L82.1928 180.525
L82.4904 262.911
L82.788 234.952
L83.0112 251.056
L83.2344 247.75
L83.3832 213.167
L83.6808 134.808
L83.7552 136.68
L83.8296 142.48
L84.4992 283.848
L84.5736 282.546
L84.7224 260.163
L85.1688 155.959
L85.2432 157.756
L85.392 177.939
L85.8384 269.327
L85.9872 236.731
L86.2104 176.148
L86.3592 200.368
L86.6568 249.202
L86.8056 259.455
L86.88 258.556
L86.9544 254.61
L87.0288 255.376
L87.1032 256.24
L87.252 249.645
L87.4008 228.886
L87.8472 110.351
L87.9216 118.882
L88.74 285.012
L88.8888 268.976
L89.3352 188.647
L89.4096 189.885
L89.5584 204.205
L89.856 235.769
L90.228 248.315
L90.3768 238.24
L90.8976 180.26
L91.1208 192.702
L91.344 211.549
L91.5672 227.129
L91.6416 226.248
L91.7904 232.434
L91.8648 230.125
L92.3856 179.506
L92.46 177.115
L92.6088 194.626
L93.204 290.029
L93.2784 288.928
L93.5016 260.128
L94.0968 137.262
L94.2456 131.871
L94.32 136.571
L95.064 289.09
L95.2128 277.155
L95.436 234.721
L95.808 172.939
L96.0312 166.073
L96.2544 195.576
L96.6264 233.926
L96.7008 233.684
L96.924 237.238
L97.0728 236.789
L97.296 241.524
L97.3704 239.646
L97.668 213.611
L97.8912 191.325
L97.9656 191.584
L98.1144 195.375
L98.4864 227.083
L98.5608 225.701
L98.9328 195.058
L99.3048 218.875
L99.6768 190.663
L99.7512 190.674
L99.9 208.525
L100.049 229.9
L100.123 229.491
L100.272 224.468
L100.346 226.864
L101.016 249.357
L101.09 250.411
L101.239 244.749
L101.462 222.089
L101.983 145.994
L102.058 145.188
L102.206 164.806
L102.578 237.843
L102.653 239.087
L102.727 238.857
L102.802 239.318
L103.174 258.066
L103.248 263.855
L103.322 263.014
L103.62 241.339
L103.992 188.451
L104.215 212.868
L104.29 212.896
L104.438 205.334
L105.034 155.498
L105.108 155.919
L105.406 207.741
L105.778 283.75
L106.001 297.304
L106.075 293.94
L106.224 273.037
L106.745 134.347
L106.819 134.238
L106.968 160.947
L107.34 235.591
L107.638 250.768
L107.712 250.711
L107.786 248.925
L108.158 215.523
L108.233 217.291
L108.382 212.441
L108.456 208.974
L108.53 210.12
L108.902 222.683
L108.977 219.711
L109.2 195.703
L109.274 197.362
L109.349 199.787
L109.423 196.792
L109.572 165.48
L109.795 121.197
L109.944 148.828
L110.539 354.155
L110.614 350.388
L110.837 293.698
L111.506 136.438
L111.581 134.232
L111.878 95.0757
L112.027 125.247
L112.548 298
L112.697 313.253
L112.771 311.917
L112.92 294.792
L113.59 193.629
L113.664 191.049
L113.738 191.089
L113.962 197.771
L114.482 168.838
L114.557 169.103
L114.78 190.79
L115.078 231.219
L115.375 263.642
L115.45 264.627
L115.598 254.973
L116.268 182.132
L116.342 184.805
L116.566 209.734
L116.938 253.228
L117.458 221.715
L117.533 220.707
L117.905 207.2
L117.979 207.736
L118.128 210.293
L118.277 200.42
L118.649 175.405
L119.095 211.456
L119.17 211.433
L119.244 208.548
L119.318 209.314
L119.616 236.72
L119.914 266.712
L119.988 266.758
L120.211 249.588
L120.434 221.087
L120.881 164.259
L121.03 158.084
L121.104 159.438
L121.327 185.427
L121.848 280.899
L121.922 278.647
L122.146 250.118
L122.518 197.828
L122.741 191.487
L122.815 191.118
L122.89 191.36
L123.187 202.327
L123.485 212.274
L123.559 212.084
L123.857 197.707
L123.931 198.203
L124.154 203.364
L124.378 220.016
L124.75 266.182
L124.824 267.737
L124.898 266.925
L125.122 245.78
L125.717 160.855
L125.791 160.123
L125.866 161.35
L126.014 191.256
L126.312 249.311
L126.461 258.038
L126.684 240.752
L127.279 197.016
L127.354 196.947
L127.651 216.52
L127.726 221.03
L128.098 212.021
L128.246 208.127
L128.47 192.011
L128.693 182.536
L128.767 184.16
L128.916 202.776
L129.437 291.676
L129.511 291.244
L129.586 288.664
L129.734 267.208
L130.33 140.545
L130.404 137.832
L130.553 143.494
L130.702 162.721
L131.222 273.181
L131.297 272.011
L131.52 251.31
L131.892 203.531
L131.966 203.905
L132.115 211.963
L132.413 236.357
L132.487 238.926
L132.636 220.194
L133.008 165.578
L133.157 156.829
L133.231 158.056
L133.38 168.85
L133.603 207.666
L134.05 290.242
L134.124 295.576
L134.273 283.981
L134.794 191.965
L135.091 155.026
L135.24 163.677
L135.984 260.157
L136.058 262.985
L136.133 262.288
L136.207 260.497
L136.356 248.47
L136.877 179.656
L137.026 171.908
L137.249 181.85
L137.323 182.593
L137.993 215.028
L138.514 273.762
L138.662 278.29
L138.737 277.167
L138.886 270.514
L139.258 215.523
L139.778 149.519
L139.927 158.839
L140.448 232.475
L140.522 235.787
L140.671 225.787
L140.969 204.533
L141.192 215.8
L141.341 236.939
L141.638 270.041
L141.787 259.875
L141.936 270.808
L142.531 167.352
L142.754 123.305
L142.903 133.581
L142.978 133.172
L143.35 234.646
L143.573 280.997
L143.647 279.545
L143.796 286.705
L144.094 243.799
L144.317 207.292
L144.391 209.734
L144.54 191.631
L144.614 182.219
L144.763 194.689
L144.838 193.393
L144.912 191.193
L145.135 203.669
L145.21 203.185
L145.284 202.534
L145.582 215.805
L145.805 241.61
L146.028 235.147
L146.251 213.231
L146.326 217.349
L146.4 216.911
L146.623 204.821
L146.698 202.684
L146.921 190.749
L147.07 185.951
L147.367 208.87
L147.739 263.705
L147.814 269.65
L147.888 267.599
L148.111 255.469
L148.334 229.624
L148.409 227.36
L149.153 157.197
L149.45 192.604
L149.748 223.846
L149.971 234.606
L150.194 222.769
L150.492 231.012
L150.938 266.879
L151.013 267.732
L151.162 256.166
L151.459 203.214
L151.831 143.707
L151.906 142.158
L152.054 147.67
L152.129 147.544
L152.352 180.64
L153.022 306.387
L153.17 286.768
L153.468 198.088
L153.691 148.235
L153.766 145.228
L153.84 152.013
L154.138 211.33
L154.286 219.008
L154.361 218.248
L154.435 219.175
L154.51 218.875
L154.584 218.224
L154.733 213.824
L155.03 191.872
L155.105 192.875
L155.254 205.403
L155.774 270.744
L155.923 276.136
L156.072 260.722
L156.667 150.504
L156.89 172.381
L157.188 204.51
L157.411 242.526
L157.709 285.703
L157.783 284.511
L157.932 269.506
L158.602 152.831
L158.676 155.613
L159.346 228.385
L159.569 231.835
L159.643 231.449
L159.718 230.125
L159.792 230.551
L159.941 228.489
L160.313 243.188
L160.462 254.512
L160.536 254.259
L160.61 250.901
L160.685 251.782
L160.759 250.648
L160.982 218.633
L161.503 138.967
L161.578 139.888
L161.652 143.402
L161.801 179.281
L162.098 252.376
L162.322 270.082
L162.396 268.354
L162.619 244.991
L162.991 194.896
L163.066 193.053
L163.214 197.177
L163.363 212.009
L163.586 229.94
L163.661 228.212
L163.81 217.844
L163.884 217.977
L163.958 217.47
L164.479 196.694
L164.554 198.099
L165 256.937
L165.298 233.097
L165.818 169.23
L166.042 160.803
L166.265 180.928
L166.488 211.393
L166.934 288.364
L167.009 288.998
L167.158 275.992
L167.902 158.021
L167.976 158.372
L168.125 166.557
L168.422 196.377
L168.794 235.107
L169.018 246.472
L169.092 247.088
L169.166 246.644
L169.315 241.858
L169.464 235.654
L169.762 249.956
L169.836 248.401
L169.91 248.424
L169.985 248.574
L170.059 244.991
L170.357 185.26
L170.654 142.866
L170.803 139.226
L170.952 152.992
L171.473 245.659
L171.77 286.498
L171.845 284.246
L172.068 257.225
L172.366 211.18
L172.663 195.432
L172.886 202.373
L173.11 212.718
L173.184 213.818
L173.407 223.276
L173.482 223.161
L173.556 222.153
L174.151 194.845
L174.3 199.47
L174.672 222.723
L174.746 223.881
L174.895 210.794
L175.118 196.613
L175.193 194.856
L175.342 198.934
L175.49 213.225
L176.086 270.197
L176.16 267.847
L176.458 231.916
L177.053 157.048
L177.127 157.664
L177.35 169.933
L177.871 226.749
L178.243 241.495
L178.318 241.604
L178.466 240.228
L178.838 254.253
L178.913 254.15
L179.88 179.54
L179.954 176.793
L180.029 177.328
L180.103 177.121
L180.178 173.538
L180.252 173.711
L180.55 191.124
L180.773 215.414
L180.996 248.822
L181.07 249.409
L181.219 248.24
L181.442 223.385
L181.591 227.371
L181.666 226.582
L182.038 212.632
L182.112 215.275
L182.261 212.977
L182.484 222.568
L182.93 204.475
L183.079 197.483
L183.228 204.591
L183.674 234.283
L183.823 237.52
L183.898 237.44
L184.046 229.024
L184.418 195.513
L184.642 186.7
L184.79 196.601
L185.237 251.431
L185.46 268.797
L185.534 268.584
L185.683 259.293
L186.502 153.568
L186.65 165.803
L187.022 220.563
L187.171 227.371
L187.246 226.519
L187.469 214.394
L187.841 236.599
L188.138 261.81
L188.287 265.739
L188.436 251.483
L189.254 169.967
L189.329 167.755
L189.403 168.982
L189.626 180.255
L190.147 244.726
L190.37 259.771
L190.445 258.746
L190.594 247.278
L191.04 197.183
L191.263 206.814
L191.635 228.61
L191.858 224.981
L191.933 221.75
L192.156 199.458
L192.23 199.568
L192.379 190.329
L192.454 191.855
L192.602 202.897
L192.677 201.981
L192.751 197.114
L192.826 197.673
L193.346 251.488
L193.421 250.648
L193.644 230.977
L193.942 189.321
L194.09 185.007
L194.165 181.078
L194.239 184.275
L194.983 266.752
L195.132 256.661
L195.876 185.099
L196.099 190.807
L196.397 206.347
L196.546 202.891
L196.62 203.381
L196.694 203.554
L196.769 202.298
L196.843 203.761
L197.066 212.747
L197.141 213.766
L197.29 221.381
L197.364 221.277
L197.513 218.512
L197.81 239.416
L197.885 238.31
L198.108 247.41
L198.182 246.806
L198.257 247.076
L198.331 250.429
L198.48 224.065
L198.852 162.98
L198.926 160.624
L199.001 161.016
L199.075 164.236
L199.224 188.399
L199.596 249.34
L199.745 259.466
L199.894 257.922
L200.042 243.131
L200.489 196.463
L200.563 196.78
L200.638 195.415
L200.712 195.547
L201.01 236.23
L201.084 235.453
L201.158 236.599
L201.307 229.837
L201.828 180.56
L201.902 181.579
L201.977 184.183
L202.349 212.672
L202.423 212.62
L202.795 232.648
L203.018 250.313
L203.39 236.864
L203.837 197.978
L203.911 196.29
L203.986 196.619
L204.432 218.34
L204.581 216.289
L204.655 216.381
L204.73 215.126
L205.027 203.462
L205.102 204.038
L205.25 211.41
L205.474 221.041
L205.697 226.72
L205.92 217.314
L206.069 212.355
L206.59 226.813
L206.664 225.488
L206.738 222.032
L206.813 222.861
L206.887 226.444
L206.962 223.622
L207.259 205.218
L207.408 202.459
L207.482 203.254
L207.557 206.054
L207.854 231.352
L208.003 233.5
L208.45 214.256
L208.524 214.78
L208.598 215.506
L208.747 211.036
L208.97 195.922
L209.045 197.114
L209.119 196.192
L209.194 196.244
L209.342 200.357
L209.64 213.795
L209.789 218.155
L209.938 210.091
L210.086 193.543
L210.161 195.835
L210.533 219.999
L211.054 261.102
L211.5 228.811
L211.798 194.85
L212.021 188.422
L212.17 198.612
L212.393 220.01
L212.542 222.504
L212.616 221.168
L212.839 202.419
L213.137 170.048
L213.286 184.436
L213.881 239.03
L214.104 250.578
L214.178 249.363
L214.402 238.356
L214.476 239.076
L214.55 240.89
L214.625 237.981
L214.774 226.006
L214.848 227.734
L214.997 217.862
L215.294 204.832
L215.518 203.606
L215.592 204.809
L215.666 204.642
L215.89 194.286
L216.038 200.766
L216.187 204.948
L216.336 209.101
L216.559 200.812
L216.634 202.114
L217.154 257.053
L217.675 187.046
L217.75 188.774
L217.898 189.378
L218.047 214.889
L218.27 245.717
L218.419 254.288
L218.717 218.236
L218.94 190.15
L219.163 174.725
L219.238 178.262
L219.684 224.67
L219.833 231.974
L219.907 230.142
L220.056 237.244
L220.354 218.248
L220.577 201.952
L220.651 203.237
L220.874 217.24
L221.172 247.549
L221.321 248.643
L221.395 247.526
L221.618 224.998
L221.99 183.463
L222.288 188.071
L222.511 210.702
L222.66 218.363
L222.809 211.791
L222.958 199.078
L223.032 199.752
L223.404 231.081
L223.627 246.351
L223.925 234.865
L224.222 199.101
L224.297 196.699
L224.446 201.371
L224.52 200.847
L224.594 199.337
L225.041 230.441
L225.115 229.577
L225.264 217.66
L225.338 219.054
L225.413 221.295
L225.562 213.674
L225.785 227.763
L226.008 216.975
L226.082 217.021
L226.231 220.742
L226.38 215.828
L226.752 229.053
L227.05 211.445
L227.422 168.804
L227.496 166.488
L227.57 169.311
L227.942 226.277
L228.166 269.074
L228.314 273.307
L228.389 267.807
L228.761 167.853
L228.835 168.475
L229.133 195.3
L229.505 259.23
L229.579 260.082
L229.877 225.183
L230.1 195
L230.174 196.855
L230.249 199.182
L230.323 196.734
L230.398 200.61
L230.77 278.658
L230.844 276.182
L231.067 238.143
L231.439 159.749
L231.514 159.674
L231.588 157.819
L231.662 158.839
L232.109 218.345
L232.183 213.19
L232.258 206.249
L232.332 207.096
L232.481 209.394
L232.63 203.387
L233.225 262.208
L233.448 255.567
L233.671 253.614
L233.969 214.164
L234.266 173.337
L234.341 173.872
L234.638 184.494
L235.085 213.375
L235.382 220.189
L235.606 228.351
L235.903 211.531
L236.052 223.08
L236.126 222.884
L236.201 221.721
L236.35 226.133
L236.424 227.919
L236.498 225.396
L236.573 226.68
L236.722 232.648
L237.391 201.647
L237.54 202.557
L237.838 210.834
L237.912 212.056
L237.986 211.618
L238.061 210.546
L238.284 227.769
L238.358 225.995
L238.433 223.518
L238.582 238.949
L238.656 238.863
L238.805 234.773
L238.954 204.308
L239.102 167.012
L239.177 167.513
L239.251 168.942
L239.326 168.89
L239.921 245.798
L239.995 241.748
L240.144 234.859
L240.218 238.24
L240.293 236.576
L240.442 230.476
L240.59 235.873
L240.888 224.866
L241.037 236.875
L241.111 234.514
L241.186 231.881
L241.26 233.84
L241.334 231.68
L241.632 183.826
L241.781 182.714
L241.93 192.84
L242.525 232.308
L242.599 233.264
L243.343 169.236
L243.418 173.193
L243.79 243.367
L243.938 237.762
L244.013 238.874
L244.236 257.416
L244.31 253.228
L244.385 253.643
L244.534 259.357
L245.129 192.16
L245.203 190.409
L245.426 201.947
L245.575 197.869
L245.798 210.172
L245.873 209.291
L246.17 193.756
L246.245 187.305
L246.319 187.506
L246.914 243.511
L247.063 262.888
L247.138 261.828
L247.286 254.921
L247.361 254.87
L247.51 238.24
L247.733 217.36
L248.105 185.945
L248.179 186.256
L248.551 200.242
L248.849 228.788
L248.923 225.77
L249.295 185.485
L249.37 176.326
L249.444 177.173
L249.667 210.685
L250.114 272.432
L250.188 274.304
L250.337 253.245
L250.858 164.345
L250.932 160.29
L251.081 175.566
L251.602 272.622
L251.676 271.228
L251.825 254.201
L252.494 149.79
L252.569 139.935
L252.643 140.879
L253.164 267.046
L253.238 266.557
L253.685 223.357
L253.759 224.624
L254.057 243.954
L254.131 242.192
L254.354 213.726
L254.801 145.648
L254.875 143.402
L255.098 170.209
L255.619 247.307
L255.917 264.84
L256.14 282.702
L256.214 283.606
L256.289 281.032
L256.438 262.916
L257.182 141.962
L257.256 142.976
L257.405 154.6
L258 241.639
L258.074 240.936
L258.298 230.182
L258.818 198.301
L258.893 202.304
L259.19 233.471
L259.265 233.293
L259.339 232.665
L259.414 234.877
L259.562 232.06
L259.637 232.279
L259.711 232.417
L259.934 241.737
L260.232 236.092
L260.753 177.472
L260.827 178.21
L260.976 182.029
L261.05 180.525
L261.125 181.234
L261.199 185.139
L261.274 185.07
L261.497 176.251
L261.646 180.819
L261.794 202.223
L262.241 289.954
L262.315 293.692
L262.39 289.234
L262.836 230.701
L263.208 202.062
L263.282 202.442
L263.431 206.503
L263.58 188.935
L263.729 177.138
L263.803 176.522
L263.952 168.498
L264.175 176.39
L264.25 176.061
L264.398 190.237
L264.994 269.442
L265.217 240.775
L265.44 223.535
L265.961 196.002
L266.035 195.766
L266.482 223.241
L266.556 228.293
L266.63 227.642
L267.077 209.262
L267.151 211.468
L267.3 223.403
L267.449 212.943
L267.523 214.959
L267.672 222.642
L267.746 220.788
L267.821 221.329
L267.97 227.757
L268.342 193.969
L269.16 227.095
L269.309 227.832
L269.383 229.336
L269.458 227.872
L269.606 221.675
L269.755 225.747
L269.978 211.877
L270.053 212.488
L270.127 213
L270.425 198.917
L270.499 199.816
L270.946 216.381
L271.02 214.371
L271.169 204.308
L271.466 230.182
L271.615 243.615
L271.69 242.232
L271.764 242.284
L271.913 248.153
L272.434 185.295
L272.508 190
L272.582 193.681
L272.657 193.67
L272.731 193.249
L272.954 206.342
L273.029 210.5
L273.178 197.857
L273.55 229.099
L273.698 245.711
L274.145 224.607
L274.219 222.136
L274.442 208.358
L274.591 220.73
L274.814 203.11
L275.038 213.83
L275.112 213.985
L275.186 212.516
L275.335 215.874
L275.782 231.352
L276.005 201.97
L276.154 210.322
L276.526 186.251
L276.823 210.65
L277.046 249.282
L277.27 263.227
L277.79 216.076
L277.865 215.028
L278.162 185.894
L278.311 179.033
L278.386 172.98
L278.46 173.544
L278.609 187.743
L278.981 234.174
L279.055 240.573
L279.13 238.816
L279.278 234.658
L279.427 237.031
L279.725 220.851
L279.874 227.901
L280.022 221.744
L280.097 222.331
L280.171 222.193
L280.394 208.352
L280.469 210.391
L280.618 213.536
L280.692 213.472
L280.766 211.906
L280.841 212.056
L280.99 217.712
L281.064 215.264
L281.213 200.011
L281.287 204.568
L281.362 210.241
L281.436 209.475
L281.585 201.774
L281.659 203.001
L282.18 229.33
L282.254 228.011
L282.403 209.746
L282.478 210.137
L282.626 215.984
L282.775 217.718
L282.85 218.898
L282.924 218.754
L282.998 217.896
L283.296 221.174
L283.37 221.387
L283.519 225.16
L283.594 222.228
L283.817 206.111
L284.04 209.291
L284.114 209.089
L284.338 235.101
L284.412 229.359
L284.561 216.928
L284.635 216.923
L284.784 208.098
L284.858 208.254
L285.007 222.314
L285.082 221.404
L285.156 218.011
L285.23 218.8
L285.305 222.648
L285.379 221.076
L285.602 201.826
L285.751 208.651
L285.9 206.094
L286.049 201.929
L286.272 214.429
L286.718 238.563
L287.239 198.278
L287.314 199.055
L287.462 207.033
L287.686 223.771
L287.983 213.899
L288.132 207.586
L288.43 213.858
L288.727 244.346
L288.802 239.807
L288.95 230.459
L289.248 187.754
L289.471 201.469
L289.769 231.236
L289.843 229.618
L290.141 212.09
L290.215 206.088
L290.29 206.209
L290.587 219.757
L290.81 237.33
L290.959 235.257
L291.108 239.22
L291.182 237.417
L291.554 184.563
L291.852 131.6
L291.926 135.782
L292.298 224.728
L292.745 315.764
L292.819 316.479
L292.968 298.231
L293.489 173.521
L293.861 147.912
L293.935 148.327
L294.158 166.223
L294.828 259.345
L294.902 256.35
L295.126 241.19
L295.2 238.546
L295.423 221.513
L295.87 234.744
L296.018 246.495
L296.39 235.816
L297.134 150.141
L297.209 153.505
L297.358 178.123
L297.655 229.491
L297.953 250.987
L298.102 247.289
L298.176 247.912
L298.474 232.665
L298.622 231.121
L298.771 236.138
L299.292 190.594
L299.441 204.049
L299.738 235.896
L299.813 236.236
L300.185 212.758
L300.408 187.8
L300.557 183.515
L300.631 178.187
L300.706 180.122
L301.003 205.835
L301.152 221.819
L301.226 227.694
L301.375 221.876
L301.45 224.451
L301.822 250.014
L301.896 251.051
L301.97 255.578
L302.045 254.991
L302.64 192.829
L302.863 187.564
L302.938 187.259
L303.012 187.771
L303.161 193.837
L303.31 199.303
L303.384 198.646
L303.533 208.974
L303.756 236.605
L303.83 233.851
L303.979 221.882
L304.128 223.961
L304.351 211.151
L304.5 221.369
L304.574 220.056
L304.649 216.07
L304.723 218.248
L304.946 236.645
L305.021 234.243
L305.244 224.843
L305.467 213.156
L305.765 183.469
L305.839 183.843
L305.988 196.244
L306.286 237.158
L306.509 242.463
L306.658 233.621
L306.732 230.044
L306.806 231.075
L306.881 230.476
L307.03 210.339
L307.253 189.822
L307.327 188.612
L307.402 189.494
L307.55 196.313
L307.922 218.374
L307.997 219.693
L308.071 218.973
L308.146 219.411
L308.294 225.81
L308.443 219.768
L308.518 220.361
L308.592 222.043
L308.666 221.369
L308.815 215.915
L309.038 235.654
L309.113 234.98
L309.41 212.355
L309.708 173.976
L310.08 202.77
L310.378 252.18
L310.601 286.912
L310.75 277.08
L311.047 243.528
L311.419 160.527
L311.494 160.411
L311.642 167.352
L311.866 185.824
L311.94 185.352
L312.014 185.208
L312.238 194.781
L312.461 216.197
L312.684 220.742
L312.907 212.729
L313.205 228.022
L313.279 228.374
L313.428 235.407
L313.651 247.117
L314.321 207.586
L314.544 179.12
L314.618 179.396
L315.214 256.528
L315.437 282.869
L315.511 282.713
L315.66 271.447
L315.883 234.986
L316.33 142.377
L316.404 142.48
L316.627 144.525
L316.85 158.499
L317.222 196.555
L317.818 277.668
L318.041 265.117
L318.487 234.646
L318.785 188.964
L318.934 203.49
L319.157 220.73
L319.678 236.173
L320.347 168.205
L320.422 168.222
L320.57 177.375
L320.794 206.854
L321.091 253.464
L321.389 236.138
L321.835 169.581
L321.91 172.594
L322.43 247.14
L322.654 252.479
L322.802 238.799
L323.026 220.626
L323.174 220.701
L323.323 219.06
L323.472 213.588
L323.621 220.408
L323.844 233.149
L323.918 233.137
L324.067 209.809
L324.29 186.297
L324.737 212.568
L324.96 229.053
L325.183 221.318
L325.332 222.804
L325.853 173.043
L325.927 167.162
L326.002 168.435
L326.15 186.723
L326.671 261.2
L326.969 272.53
L327.192 263.475
L327.713 214.054
L328.01 169.835
L328.234 161.707
L328.308 161.886
L328.382 163.049
L328.457 161.293
L328.531 162.445
L328.68 180.986
L328.978 228.788
L329.052 231.328
L329.126 230.228
L329.201 230.966
L329.424 239.577
L329.498 239.024
L329.722 232.227
L330.019 219.446
L330.168 218.219
L330.242 218.455
L330.466 224.388
L330.689 211.491
L330.763 214.843
L330.912 228.466
L330.986 227.723
L331.433 203.277
L331.507 203.323
L331.582 202.903
L331.656 203.623
L331.805 212.205
L332.102 243.545
L332.177 242.33
L332.4 230.182
L332.921 192.489
L333.144 188.203
L333.218 188.595
L333.367 195.208
L333.665 232.722
L334.111 196.06
L334.186 194.873
L334.26 196.025
L334.334 200.086
L334.409 198.675
L334.483 194.729
L334.558 196.711
L334.781 223.581
L335.227 300.132
L335.302 298.484
L335.45 275.329
L335.897 186.487
L336.12 167.767
L336.194 166.724
L336.492 169.46
L336.641 175.071
L336.864 193.785
L336.938 192.431
L337.013 193.67
L337.459 231.386
L337.534 232.492
L337.608 230.332
L337.682 231.674
L337.831 237.762
L337.906 236.109
L338.054 226.697
L338.501 236.628
L338.575 234.831
L338.65 232.106
L338.724 232.383
L338.798 232.106
L339.394 211.785
L339.468 210.84
L339.84 196.918
L339.989 206.607
L340.361 232.429
L340.435 232.446
L341.254 185.744
L341.402 197.033
L341.849 237.25
L341.923 238.419
L342.072 236.42
L342.816 200.138
L342.89 200.489
L343.039 206.002
L343.262 200.726
L343.337 201.446
L343.411 203.3
L343.932 255.083
L344.006 254.322
L344.378 219.371
L344.527 211.768
L344.899 189.782
L344.974 187.829
L345.122 192.748
L345.271 201.117
L345.42 197.281
L345.718 220.2
L345.792 218.737
L345.866 219.745
L346.164 236.224
L346.759 195.34
L346.834 196.319
L347.503 257.122
L347.578 256.045
L347.652 254.593
L347.875 233.575
L348.396 172.087
L348.47 173.187
L348.619 178.394
L348.694 176.113
L348.768 176.424
L348.917 186.101
L349.14 197.558
L349.363 213.933
L349.735 260.434
L349.81 262.421
L349.884 260.854
L350.033 245.584
L350.256 213.087
L350.628 197.177
L350.702 198.963
L351.074 224.9
L351.223 220.621
L351.818 238.73
L351.893 238.528
L351.967 234.45
L352.19 213.409
L352.265 213.807
L352.562 165.952
L352.711 167.508
L352.86 171.257
L353.083 197.419
L353.455 238.546
L353.753 252.992
L354.05 288.629
L354.125 284.453
L354.348 232.82
L354.794 139.733
L354.869 140.349
L355.166 157.727
L355.315 179.154
L355.836 303.668
L355.91 304.555
L356.134 280.985
L356.357 241.247
L356.878 161.408
L356.952 161.005
L357.398 202.909
L357.622 206.152
L357.696 206.612
L357.919 199.706
L358.068 188.146
L358.142 188.618
L358.366 209.492
L358.663 237.757
L358.812 250.169
L359.035 244.83
L359.184 252.882
L359.407 260.411
L359.482 260.319
L359.556 259.132
L359.63 260.56
L359.705 259.777
L359.854 242.416
L360.672 125.909
L360.746 128
L360.97 160.233
L361.788 283.462
L362.011 300.546
L362.16 286.377
L363.276 149.519
L363.35 151.328
L363.499 163.182
L363.722 188.543
L363.797 190.363
L363.871 190.254
L363.946 190.997
L364.02 189.972
L364.094 190.939
L364.243 186.959
L364.392 193.923
L364.615 223.535
L365.21 311.381
L365.285 308.944
L365.434 291.803
L365.657 238.252
L365.954 172.075
L366.178 147.273
L366.252 145.706
L366.326 147.405
L366.698 172.818
L366.847 183.209
L367.442 258.504
L367.517 258.084
L368.186 206.912
L368.335 209.072
L368.41 208.375
L368.558 216.064
L368.782 230.752
L368.856 229.278
L369.154 211.462
L369.451 233.915
L369.526 233.385
L369.674 220.678
L370.046 177.616
L370.195 166.304
L370.27 169.311
L370.418 189.926
L370.79 270.157
L370.865 269.5
L371.014 249.403
L371.386 191.832
L371.683 179.483
L371.832 194.102
L372.13 227.239
L372.204 226.847
L372.427 221.248
L372.502 221.784
L372.65 229.295
L372.725 229.249
L372.799 232.36
L373.022 248.689
L373.394 217.96
L373.543 212.804
L373.915 171.476
L373.99 170.612
L374.436 231.864
L374.51 234.329
L374.659 229.071
L374.734 230.188
L374.808 231.858
L375.031 219.451
L375.106 222.677
L375.18 222.009
L375.329 213.11
L375.478 221.381
L375.552 220.926
L375.85 205.696
L375.924 197.788
L375.998 199.199
L376.147 206.44
L376.222 206.388
L376.296 205.754
L376.594 213.375
L376.817 225.338
L377.04 241.132
L377.114 239.836
L377.263 228.76
L377.486 212.102
L377.635 208.939
L377.784 209.723
L377.858 211.923
L378.007 198.928
L378.156 190.231
L378.23 190.312
L378.305 190.104
L378.454 206.33
L378.602 217.107
L378.677 219.065
L378.9 244.801
L378.974 243.522
L379.049 243.874
L379.198 255.071
L379.272 251.99
L379.495 216.646
L379.793 163.602
L379.867 163.332
L380.09 181.712
L380.462 254.466
L380.611 251.396
L380.834 225.903
L381.132 205.57
L381.281 200.812
L381.504 224.008
L381.578 220.471
L381.653 222.596
L381.802 237.071
L381.876 235.723
L382.025 229.387
L382.694 181.297
L382.769 184.287
L382.843 184.027
L382.918 180.295
L383.066 195.841
L383.141 193.082
L383.29 184.672
L383.81 265.998
L383.885 259.374
L383.959 255.342
L384.108 262.784
L384.406 234.18
L384.778 180.969
L384.852 181.827
L385.001 199.896
L385.373 241.65
L385.447 243.039
L385.745 226.703
L385.968 210.667
L386.117 224.1
L386.266 243.43
L386.34 243.165
L386.861 147.336
L387.307 193.52
L387.605 230.799
L387.977 267.76
L388.051 268.82
L388.126 271.81
L388.274 265.744
L388.498 241.178
L388.795 195.634
L388.87 195.904
L389.018 197.275
L389.167 202.822
L389.539 223.328
L389.614 224.486
L389.837 234.808
L390.06 228.207
L390.134 230.274
L390.358 217.297
L390.506 198.882
L390.73 164.023
L390.804 160.383
L390.878 161.247
L391.25 197.748
L391.474 224.52
L391.697 236.178
L391.846 242.019
L391.92 241.334
L391.994 241.518
L392.143 247.681
L392.218 247.433
L392.366 240.976
L392.515 251.033
L392.59 250.619
L392.738 239.041
L392.962 195.743
L393.259 153.304
L393.334 155.648
L393.557 201.762
L393.78 242.676
L394.152 258.873
L394.524 227.993
L394.97 161.84
L395.045 163.977
L395.194 193.174
L395.417 248.822
L395.566 252.387
L395.64 250.901
L395.789 231.593
L396.086 170.526
L396.235 160.267
L396.31 161.506
L396.458 185.116
L396.905 279.545
L396.979 278.739
L397.202 264.696
L397.872 176.269
L398.393 213.035
L398.467 211.042
L398.542 211.871
L398.765 220.92
L398.839 220.851
L398.914 219.451
L399.211 203.312
L399.434 210.788
L399.732 228.794
L399.806 228.04
L399.881 228.506
L399.955 231.519
L400.402 219.319
L400.699 189.131
L401.071 209.665
L401.22 213.599
L401.294 214.797
L401.592 239.778
L401.666 239.122
L401.815 247.312
L401.89 246.736
L402.038 225.649
L402.336 176.274
L402.41 170.958
L402.485 171.799
L402.634 188.105
L403.006 251.321
L403.08 255.866
L403.154 254.858
L403.452 234.905
L403.526 237.918
L403.601 239.398
L403.824 217.844
L404.047 195.386
L404.122 199.908
L404.196 194.741
L404.345 167.6
L404.419 169.432
L404.494 173.296
L404.568 172.813
L404.642 169.789
L404.791 187.322
L405.386 270.237
L405.461 268.296
L405.684 245.193
L405.758 244.34
L406.13 200.501
L406.279 190.795
L406.354 188.48
L406.577 159.801
L406.651 162.024
L406.874 171.332
L407.321 261.039
L407.395 267.409
L407.47 263.821
L407.618 249.616
L407.693 257.099
L407.767 253.689
L407.842 245.314
L407.916 249.11
L407.99 259.46
L408.065 257.444
L408.362 208.168
L408.511 201.48
L408.586 203.266
L408.66 201.417
L409.032 161.707
L409.106 163.263
L409.404 222.591
L409.702 262.173
L409.776 261.856
L410.297 186.487
L410.371 189.28
L410.594 230.211
L410.669 229.013
L410.966 196.1
L411.115 193.088
L411.19 194.551
L411.487 242.918
L411.562 241.149
L412.008 195.317
L412.082 195.017
L412.231 205.558
L412.752 252.26
L412.826 252.9
L412.975 259.904
L413.124 248.764
L413.198 249.962
L413.273 253.355
L413.347 250.688
L413.942 183.538
L414.091 164.259
L414.166 164.455
L414.463 183.163
L414.686 221.047
L414.761 218.72
L414.91 208.576
L414.984 208.479
L415.058 212.885
L415.133 212.349
L415.282 206.486
L415.356 206.607
L415.43 207.263
L415.579 206.44
L415.728 215.857
L416.1 238.759
L416.249 245.798
L416.323 245.602
L416.472 243.563
L416.546 243.891
L416.695 247.013
L416.918 243.684
L416.993 239.755
L417.439 179.143
L417.588 173.602
L418.034 209.066
L418.332 244.191
L418.406 244.329
L418.555 225.776
L418.927 181.977
L419.002 183.129
L419.15 197.068
L419.671 274.419
L419.746 272.455
L419.894 258.481
L420.266 193.618
L420.564 165.711
L420.638 169.155
L420.936 195.496
L421.085 204.907
L421.159 204.441
L421.234 201.336
L421.308 205.195
L421.606 234.871
L421.754 235.931
L421.829 235.332
L421.903 233.609
L422.126 221.709
L422.35 231.403
L422.573 222.049
L422.722 206.411
L422.796 207.603
L423.242 238.465
L423.317 236.495
L423.466 223.887
L423.838 177.294
L423.986 185.456
L424.358 215.137
L424.433 213.922
L424.507 215.661
L424.805 244.064
L425.102 253.072
L425.177 249.634
L425.251 252.295
L425.326 247.514
L425.698 188.975
L425.772 189.62
L425.921 193.307
L426.07 189.874
L426.144 191.112
L426.442 223.339
L426.516 225.718
L426.59 223.933
L426.739 203.03
L426.962 170.002
L427.037 173.164
L427.483 229.86
L427.558 233.615
L427.781 218.8
L427.855 221.784
L428.302 261.597
L428.376 258.712
L428.822 215.287
L428.897 217.13
L428.971 216.571
L429.046 216.871
L429.12 220.459
L429.194 216.865
L429.418 192.345
L429.566 187.72
L429.641 188.612
L429.864 198.105
L430.013 208.219
L430.087 214.181
L430.162 213.081
L430.385 190.761
L430.534 188.837
L430.608 193.192
L430.98 246.322
L431.203 259.696
L431.278 259.086
L431.426 250.538
L431.501 250.29
L432.022 182.484
L432.17 195.922
L432.394 212.349
L432.468 213.847
L432.542 213.357
L432.691 212.488
L432.914 210.806
L433.063 219.209
L433.286 227.314
L433.361 223.201
L433.435 224.503
L433.51 223.311
L433.807 198.836
L433.882 199.067
L433.956 199.026
L434.03 197.915
L434.105 199.303
L434.477 222.677
L434.7 223.662
L434.774 224.117
L434.849 222.74
L434.998 214.492
L435.072 215.154
L435.221 221.801
L435.295 222.366
L435.37 224.284
L435.593 238.068
L435.667 237.538
L435.742 233.748
L435.816 234.612
L435.965 235.441
L436.262 241.858
L436.337 238.546
L436.486 212.891
L436.783 156.155
L436.932 152.065
L437.081 172.899
L437.602 268.031
L437.676 268.285
L438.197 205.334
L438.42 178.267
L438.494 176.274
L438.569 176.28
L438.718 179.621
L438.866 197.753
L439.164 233.12
L439.313 236.495
L439.387 236.265
L439.462 233.373
L439.536 233.805
L439.759 239.369
L439.908 236.512
L439.982 237.567
L440.057 237.25
L440.131 235.067
L440.206 235.251
L440.28 236.138
L440.429 232.216
L440.652 220.223
L440.875 198.203
L440.95 198.56
L441.322 182.576
L441.396 186.055
L441.768 224.376
L441.917 233.471
L441.991 231.098
L442.066 224.958
L442.438 164.248
L442.512 165.832
L443.256 259.95
L443.405 262.156
L443.628 267.305
L443.702 264.546
L443.926 228.068
L444.223 171.044
L444.298 172.461
L444.446 180.433
L444.967 234.462
L445.042 234.617
L445.19 224.728
L445.637 157.94
L445.711 160.302
L446.381 258.942
L446.678 244.991
L447.125 235.591
L447.348 227.947
L447.571 204.746
L447.869 165.112
L448.092 152.641
L448.613 227.717
L448.687 228.247
L448.762 231.064
L449.059 258.994
L449.208 253.193
L449.431 223.564
L449.729 189.424
L449.803 191.654
L449.878 199.286
L449.878 199.286" style="fill:none;stroke:#808080;stroke-linecap:square;"/>
   </g>
  </g>
 </g>
 <defs>
  <clipPath id="p7ff5b81e1d">
   <rect height="345.6" width="446.4" x="72.0" y="43.2"/>
  </clipPath>
 </defs>
</svg>
