<?xml version="1.0" encoding="utf-8" standalone="no"?>
<!DOCTYPE svg PUBLIC "-//W3C//DTD SVG 1.1//EN"
  "http://www.w3.org/Graphics/SVG/1.1/DTD/svg11.dtd">
<!-- Created with matplotlib (http://matplotlib.org/) -->
<svg height="432pt" version="1.1" viewBox="0 0 576 432" width="576pt" xmlns="http://www.w3.org/2000/svg" xmlns:xlink="http://www.w3.org/1999/xlink">
 <defs>
  <style type="text/css">
*{stroke-linecap:butt;stroke-linejoin:round;}
  </style>
 </defs>
 <g id="figure_1">
  <g id="patch_1">
   <path d="
M0 432
L576 432
L576 0
L0 0
z
" style="fill:#ffffff;"/>
  </g>
  <g id="axes_1">
   <g id="line2d_1">
    <path clip-path="url(#p7ff5b81e1d)" d="
M72 247.235
L72.0744 233.094
L72.0744 233.094
L72.0744 233.094
L72.1488 235.398
L72.2976 248.444
L72.5952 192.342
L72.8184 164.32
L72.8928 166.566
L73.0416 189.98
L73.4136 266.099
L73.488 275.747
L73.5624 274.796
L73.7112 258.467
L74.232 175.033
L74.3064 173.334
L74.3808 175.264
L74.4552 174.947
L74.604 197.267
L74.8272 215.814
L74.976 231.251
L75.1992 275.977
L75.348 252.678
L75.4968 217.888
L75.5712 215.67
L75.7944 159.683
L75.8688 163.571
L76.0176 165.356
L76.092 165.616
L76.1664 158.675
L76.3152 194.473
L76.6128 275.113
L76.6872 271.11
L76.7616 273.932
L76.9104 255.616
L76.9848 258.38
L77.0592 253.427
L77.2824 190.844
L77.3568 191.19
L77.5056 208.585
L77.7288 197.411
L77.8032 200.032
L77.952 219.472
L78.0264 216.419
L78.324 187.302
L78.3984 191.852
L78.4728 193.523
L78.5472 184.969
L78.6216 188.742
L78.9936 261.606
L79.068 261.174
L79.1424 254.752
L79.2912 219.068
L79.44 233.209
L79.5144 231.481
L79.7376 200.003
L79.9608 230.07
L80.2584 205.216
L80.4072 226.124
L80.4816 225.059
L80.6304 197.382
L80.7048 198.793
L80.7792 202.019
L81.0024 143.497
L81.0768 155.42
L81.2256 193.868
L81.3 190.153
L81.4488 178.806
L81.8208 289.254
L81.8952 278.137
L82.044 244.211
L82.1184 243.059
L82.2672 237.04
L82.6392 290.233
L82.7136 284.099
L82.8624 216.505
L83.0856 113.488
L83.3832 191.824
L83.6064 141.884
L83.904 284.099
L83.9784 319.033
L84.0528 311.344
L84.276 253.916
L84.3504 253.139
L84.4992 222.697
L84.8712 133.648
L84.9456 139.58
L85.1688 207.894
L85.2432 209.939
L85.4664 239.113
L85.6896 202.652
L85.764 203.142
L85.9128 240.524
L86.0616 291.212
L86.3592 192.889
L86.4336 195.424
L86.508 200.147
L86.7312 228.428
L86.88 206.137
L86.9544 213.222
L87.1032 257.66
L87.1776 249.481
L87.4008 148.192
L87.4752 162.563
L87.624 245.708
L87.7728 183.961
L87.8472 164.924
L87.9216 168.784
L88.1448 187.993
L88.2936 177.078
L88.4424 253.456
L88.6656 369.52
L88.9632 201.817
L89.112 232.403
L89.3352 218.665
L89.5584 178.633
L89.7816 203.056
L89.856 192.716
L89.9304 194.387
L90.0792 216.908
L90.1536 200.55
L90.3024 114.323
L90.3768 121.955
L90.5256 168.553
L90.7488 249.366
L90.8976 224.972
L91.1208 256.796
L91.1952 247.696
L91.4184 214.864
L91.5672 224.828
L91.716 241.216
L91.8648 226.355
L92.1624 259.705
L92.3112 239.862
L92.46 244.902
L92.6832 209.392
L92.9064 161.152
L93.0552 172.412
L93.2784 124.518
L93.5016 194.732
L93.6504 180.044
L93.7248 184.508
L94.0968 298.499
L94.2456 282.918
L94.32 288.678
L94.4688 311.545
L94.8408 178.201
L94.9896 190.844
L95.2872 150.294
L95.6592 202.825
L95.9568 263.91
L96.3288 188.339
L96.4032 192.716
L96.6264 206.137
L96.7008 198.131
L96.8496 154.326
L97.1472 249.222
L97.2216 246.745
L97.3704 222.323
L97.5936 270.044
L97.668 269.958
L97.9656 226.528
L98.04 217.657
L98.1144 220.854
L98.2632 238.048
L98.4864 208.153
L98.7096 144.476
L98.784 148.652
L98.9328 182.809
L99.2304 259.561
L99.6024 188.886
L99.9 202.048
L99.9744 209.248
L100.049 203.948
L100.198 172.24
L100.57 301.379
L100.867 210.112
L100.942 216.073
L101.09 235.34
L101.165 236.32
L101.239 235.283
L101.462 178.72
L102.132 232.691
L102.206 226.268
L102.43 143.699
L102.727 250.201
L102.802 248.156
L102.876 234.592
L102.95 240.611
L103.025 251.497
L103.322 194.041
L103.471 162.361
L103.843 218.377
L104.066 268.403
L104.215 249.654
L104.29 250.921
L104.364 250.864
L104.513 265.379
L104.81 210.342
L104.885 189.779
L104.959 191.19
L105.034 210.486
L105.108 209.593
L105.406 160.892
L105.48 161.036
L105.554 162.188
L105.629 156.256
L105.703 161.036
L106.075 274.134
L106.15 272.406
L106.224 261.203
L106.298 261.836
L106.373 259.878
L106.67 230.473
L106.745 227.536
L106.968 204.121
L107.042 206.08
L107.34 184.998
L107.414 186.121
L107.638 221.776
L107.786 248.502
L107.935 215.094
L108.01 217.657
L108.084 221.718
L108.233 215.785
L108.307 228.745
L108.382 224.281
L108.605 196.72
L108.679 202.854
L108.828 223.532
L108.902 207.001
L108.977 213.164
L109.051 230.3
L109.126 227.449
L109.2 219.961
L109.349 233.929
L109.646 195.193
L109.721 202.768
L109.87 249.136
L110.242 204.438
L110.39 220.739
L110.614 179.065
L110.688 175.811
L110.837 208.988
L110.911 205.734
L111.134 254.78
L111.283 272.665
L111.432 222.524
L111.655 169.187
L111.878 147.846
L111.953 130.566
L112.027 137.075
L112.176 193.436
L112.474 310.537
L112.548 307.513
L112.771 281.19
L112.846 285.049
L112.994 256.912
L113.292 153.548
L113.366 156.284
L113.738 229.408
L113.887 205.244
L114.036 158.992
L114.259 188.656
L114.482 163.427
L114.706 217.83
L114.854 269.728
L114.929 261.548
L115.078 226.672
L115.152 235.052
L115.375 191.795
L115.45 192.716
L115.673 243.865
L115.747 238.364
L115.822 235.11
L115.97 265.379
L116.045 257.977
L116.194 264.169
L116.417 228.256
L116.566 240.38
L116.789 202.681
L116.863 207.088
L116.938 197.67
L117.086 161.929
L117.235 179.353
L117.384 154.038
L117.458 156.054
L117.682 197.44
L117.756 198.39
L117.83 194.041
L117.905 202.134
L118.202 297.462
L118.277 289.484
L118.723 199.888
L118.798 190.355
L118.946 217.744
L119.021 208.124
L119.244 187.532
L119.318 177.654
L119.467 203.891
L119.69 274.912
L119.765 268.057
L119.988 218.147
L120.137 193.523
L120.286 216.563
L120.36 212.3
L120.732 158.819
L120.806 158.473
L121.03 213.395
L121.402 296.166
L121.476 291.875
L121.922 195.539
L121.997 206.915
L122.071 206.137
L122.146 200.636
L122.294 209.593
L122.369 209.017
L122.518 184.22
L122.592 188.224
L122.815 239.747
L122.89 233.756
L122.964 234.937
L123.038 237.04
L123.559 165.616
L123.634 162.88
L123.708 166.364
L123.931 188.886
L124.08 223.734
L124.303 266.646
L124.378 268.288
L124.452 273.904
L124.526 267.164
L124.675 237.299
L124.75 239.545
L124.824 245.334
L125.047 216.304
L125.122 219.644
L125.27 208.7
L125.419 245.766
L125.717 188.684
L125.791 195.712
L125.866 188.166
L125.94 166.278
L126.014 169.273
L126.163 219.328
L126.312 183.126
L126.386 183.788
L126.535 194.848
L126.61 193.984
L126.833 237.788
L126.907 223.072
L126.982 206.396
L127.056 213.107
L127.205 231.366
L127.279 226.499
L127.354 233.296
L127.502 273.731
L127.577 268.432
L127.8 235.744
L127.874 233.929
L128.023 214.547
L128.172 235.196
L128.246 228.227
L128.395 202.48
L128.544 215.324
L128.693 203.747
L128.767 206.368
L128.842 211.292
L128.916 205.648
L129.139 159.827
L129.214 162.39
L129.362 153.952
L129.734 236.924
L129.809 241.59
L129.958 266.704
L130.106 245.651
L130.181 250.576
L130.255 259.619
L130.33 256.192
L130.627 191.276
L130.776 160.835
L130.85 166.163
L130.999 189.836
L131.074 184.998
L131.222 212.444
L131.446 245.219
L131.743 295.446
L131.966 256.739
L132.487 129.184
L132.562 125.209
L132.71 138.256
L132.785 134.684
L132.859 140.732
L133.306 279.03
L133.38 286.172
L133.454 283.436
L133.603 289.312
L134.124 210.313
L134.198 204.438
L134.273 205.792
L134.422 197.468
L134.496 201.068
L134.719 230.819
L134.942 228.688
L135.017 236.032
L135.166 210.889
L135.314 193.35
L135.389 194.329
L135.538 155.766
L135.612 156.716
L135.761 171.26
L135.91 133.705
L136.356 288.073
L136.43 281.075
L136.505 269.411
L136.579 269.785
L136.728 286.72
L137.026 238.134
L137.249 204.956
L137.323 211.148
L137.398 204.928
L137.546 182.406
L137.695 219.702
L137.77 215.526
L137.993 133.216
L138.142 182.982
L138.216 181.945
L138.29 190.585
L138.439 239.574
L138.514 235.254
L138.588 227.91
L138.811 260.828
L139.034 217.974
L139.109 223.417
L139.258 210.803
L139.332 218.953
L139.481 253.484
L139.555 251.209
L140.076 178.201
L140.225 205.36
L140.299 205.273
L140.374 202.912
L140.448 205.1
L140.597 181.168
L140.671 192.486
L140.82 244.96
L140.969 192.572
L141.192 158.848
L141.266 158.473
L141.415 200.694
L141.713 270.016
L141.862 297.952
L142.01 284.905
L142.085 295.475
L142.159 288.534
L142.457 212.128
L142.903 161.209
L143.052 150.035
L143.275 202.22
L143.35 201.068
L143.424 206.656
L143.573 237.241
L143.647 229.235
L143.796 282.572
L143.87 279.491
L144.094 230.358
L144.168 232.172
L144.466 185.257
L144.614 194.243
L144.689 185.804
L144.763 189.289
L145.061 224.224
L145.135 223.82
L145.284 252.592
L145.433 227.449
L145.507 232.892
L145.582 233.267
L145.73 205.302
L145.879 229.465
L146.102 203.142
L146.177 207.577
L146.251 209.305
L146.4 176.041
L146.474 183.241
L146.772 264.976
L146.846 268
L147.144 223.907
L147.814 150.092
L148.037 210.054
L148.111 190.816
L148.186 191.219
L148.334 248.531
L148.409 247.84
L148.483 236.118
L148.706 276.035
L148.855 244.96
L149.004 227.046
L149.078 226.47
L149.525 186.956
L149.674 200.636
L149.822 172.816
L150.046 229.408
L150.194 196.691
L150.418 259.792
L150.566 232.748
L150.641 236.348
L150.715 246.803
L150.79 243.75
L151.013 199.801
L151.087 205.504
L151.31 177.02
L151.534 238.825
L151.682 275.056
L151.98 221.516
L152.054 232.259
L152.352 178.95
L152.426 189.088
L152.501 205.763
L152.575 203.43
L152.724 173.996
L152.873 201.587
L153.096 169.043
L153.245 188.483
L153.394 168.841
L153.542 237.961
L153.691 306.707
L153.766 304.892
L153.914 275.056
L153.989 276.064
L154.063 281.161
L154.286 204.899
L154.361 211.091
L154.435 216.678
L154.584 194.963
L154.658 185.401
L154.882 214.201
L154.956 212.243
L155.03 203.2
L155.105 203.66
L155.254 219.472
L155.551 182.464
L155.774 218.809
L155.923 198.707
L156.072 209.824
L156.295 157.465
L156.518 209.219
L156.593 208.873
L156.89 278.051
L156.965 278.022
L157.114 263.795
L157.262 277.705
L157.411 245.795
L157.783 184.249
L157.858 191.766
L157.932 203.689
L158.006 201.155
L158.23 146.608
L158.527 191.593
L158.899 250.604
L158.974 239.804
L159.122 193.148
L159.271 206.108
L159.42 215.008
L159.718 196.518
L159.866 234.419
L160.015 281.824
L160.09 277.504
L160.238 259.475
L160.313 261.491
L160.387 253.772
L160.685 156.688
L160.759 165.932
L160.908 222.438
L160.982 219.788
L161.206 181.168
L161.429 226.7
L161.578 213.078
L161.726 191.708
L162.024 214.748
L162.173 183.529
L162.322 230.099
L162.47 261.145
L162.917 210.112
L162.991 209.996
L163.14 215.353
L163.363 227.132
L163.512 217.657
L163.586 220.624
L163.81 257.747
L164.107 213.712
L164.182 212.272
L164.405 196.864
L164.479 201.241
L164.554 210.198
L165 154.124
L165.074 162.188
L165.372 228.112
L165.595 259.043
L165.744 303.452
L165.818 302.358
L166.339 203.574
L166.562 157.58
L166.637 157.984
L166.934 174.14
L167.306 258.179
L167.678 206.771
L167.753 208.355
L167.902 222.899
L168.274 193.408
L168.422 201.212
L168.571 216.649
L168.646 216.217
L168.72 218.982
L169.018 253.312
L169.166 265.926
L169.762 213.452
L169.836 217.225
L170.134 194.675
L170.431 168.985
L170.729 193.206
L170.952 235.139
L171.101 223.532
L171.324 179.9
L171.398 184.422
L171.622 191.968
L172.142 284.243
L172.291 272.406
L172.44 280.038
L172.738 219.155
L172.886 196.633
L173.035 210.659
L173.333 176.992
L173.482 202.71
L173.556 197.814
L173.854 161.238
L173.928 159.136
L174.077 182.089
L174.449 234.188
L174.523 233.526
L174.598 225.923
L174.672 228.572
L174.895 234.361
L174.97 233.785
L175.118 252.016
L175.267 217.772
L175.342 219.212
L175.565 252.908
L175.862 221.459
L176.16 234.044
L176.234 231.712
L176.606 177.712
L176.681 175.696
L176.755 177.913
L176.904 196.432
L176.978 191.305
L177.202 175.897
L177.276 175.465
L177.425 227.248
L177.648 293.92
L178.02 244.585
L178.169 256.71
L178.243 252.966
L178.615 142
L178.764 158.732
L178.987 213.942
L179.062 209.161
L179.136 202.94
L179.21 204.928
L179.434 242.396
L179.657 291.961
L180.103 157.955
L180.401 217.456
L180.475 214.72
L180.55 206.569
L180.624 210.947
L180.922 258.582
L181.07 282.112
L181.219 260.742
L181.591 175.292
L181.963 209.363
L182.038 203.574
L182.261 171.75
L182.41 201.184
L182.707 284.617
L182.782 267.539
L183.154 146.435
L183.451 186.755
L183.526 184.019
L183.6 184.883
L183.972 261.404
L184.195 302.444
L184.27 299.881
L184.493 246.774
L184.642 222.352
L184.716 225.548
L185.014 217.772
L185.311 177.366
L185.386 178.028
L185.534 191.996
L185.609 179.843
L185.683 181.052
L185.758 190.844
L185.832 187.504
L185.981 161.065
L186.055 161.44
L186.353 197.497
L186.576 248.214
L186.725 229.465
L187.022 246.025
L187.246 282.083
L187.32 281.737
L187.394 279.894
L187.543 257.142
L187.766 215.44
L187.99 202.134
L188.064 208.038
L188.138 207.865
L188.362 176.272
L188.436 177.971
L188.585 210.169
L188.734 192.112
L188.808 200.06
L188.882 194.588
L189.106 149.488
L189.329 184.076
L189.701 272.464
L189.775 272.233
L189.924 238.854
L189.998 241.014
L190.147 259.936
L190.445 224.8
L190.594 178.057
L190.668 178.979
L190.742 180.275
L190.817 178.115
L190.966 204.582
L191.263 230.963
L191.412 240.006
L191.635 265.667
L192.082 154.412
L192.156 156.86
L192.305 175.12
L192.602 229.321
L192.826 245.536
L192.974 236.204
L193.123 246.457
L193.198 241.734
L193.495 190.729
L193.942 222.841
L194.165 202.537
L194.388 243.635
L194.462 234.534
L194.537 238.076
L194.611 250.086
L194.76 223.331
L195.206 119.795
L195.281 126.966
L195.504 173.536
L195.876 283.494
L196.099 295.072
L196.174 299.449
L196.322 278.857
L196.546 237.99
L196.62 233.584
L196.918 183.99
L197.066 194.329
L197.215 177.02
L197.29 181.974
L197.438 197.296
L197.587 184.451
L197.736 192.745
L197.959 222.006
L198.034 214.288
L198.182 190.499
L198.257 194.819
L198.406 221.257
L198.48 220.652
L198.554 214.432
L198.629 216.217
L199.298 252.592
L199.522 250.057
L199.596 251.267
L199.67 248.041
L199.968 211.235
L200.042 207.059
L200.266 177.452
L200.34 181.916
L200.414 194.848
L200.489 194.675
L200.638 184.566
L200.712 188.512
L200.786 186.15
L200.935 176.732
L201.382 243.52
L201.456 242.713
L201.605 235.11
L201.679 238.336
L201.902 266.444
L202.274 180.275
L202.498 170.627
L203.242 288.505
L203.465 265.235
L203.539 264.688
L203.688 235.974
L203.911 196.086
L204.06 163.168
L204.134 146.809
L204.209 149.718
L204.283 153.721
L204.432 132.841
L204.506 138.428
L204.953 228.745
L205.325 265.321
L205.399 262.816
L205.92 226.816
L205.994 225.088
L206.218 239.401
L206.441 249.712
L206.59 247.926
L206.887 203.401
L206.962 209.248
L207.036 216.073
L207.259 145.744
L207.482 172.585
L207.557 172.211
L207.706 190.844
L207.854 209.766
L208.003 192.313
L208.301 219.155
L208.375 219.961
L208.45 217.168
L208.524 218.608
L208.822 244.009
L208.896 247.264
L209.119 233.065
L209.342 266.732
L209.491 237.961
L209.789 191.276
L209.938 199.427
L210.012 199.196
L210.086 201.184
L210.161 209.017
L210.235 205.763
L210.458 190.211
L210.533 186.87
L210.607 187.331
L210.682 190.614
L210.905 209.104
L210.979 214.604
L211.277 275.113
L211.351 266.387
L211.426 261.98
L211.5 265.12
L211.574 262.787
L211.649 252.275
L211.872 192.371
L211.946 188.771
L212.17 145.859
L212.467 198.649
L212.69 230.848
L212.914 198.937
L213.062 218.348
L213.36 257.977
L213.509 265.091
L213.955 189.462
L214.104 156.083
L214.402 214.864
L214.55 199.254
L214.625 202.22
L215.071 261.145
L215.22 236.636
L215.369 205.388
L215.518 207.491
L215.741 157.062
L215.815 163.024
L216.038 199.196
L216.262 219.616
L216.41 205.216
L216.634 258.208
L216.708 253.657
L216.782 252.39
L216.857 256.393
L216.931 256.134
L217.229 209.363
L217.303 211.091
L217.378 208.931
L217.601 178.432
L217.75 201.241
L217.898 186.87
L217.973 191.478
L218.27 260.454
L218.345 261.174
L218.494 258.467
L218.642 240.467
L218.866 203.027
L219.089 189.433
L219.461 214.201
L219.61 209.305
L219.833 229.552
L220.13 184.019
L220.354 167.113
L220.428 164.118
L220.502 168.553
L220.8 230.761
L221.023 316.096
L221.098 315.462
L221.321 234.217
L221.47 199.628
L221.544 200.147
L221.618 196.604
L221.842 159.942
L221.916 166.768
L222.139 215.209
L222.288 218.665
L222.511 240.409
L222.66 224.281
L222.883 157.379
L223.106 293.171
L223.181 283.897
L223.404 203.027
L223.553 216.88
L223.702 201.241
L223.776 201.99
L224.074 280.211
L224.148 271.916
L224.297 192.745
L224.446 107.468
L224.52 112.278
L224.669 141.712
L224.818 125.296
L224.966 184.451
L225.264 323.209
L225.338 322.345
L226.008 167.459
L226.306 210.083
L226.454 208.326
L226.826 194.617
L226.901 195.654
L227.124 234.995
L227.198 233.036
L227.422 222.179
L227.496 224.339
L227.57 231.971
L227.645 228.716
L227.942 172.528
L228.091 201.155
L228.166 199.542
L228.314 157.292
L228.463 246.486
L228.612 330.985
L228.91 265.148
L229.133 231.798
L229.43 126.275
L229.654 155.651
L229.802 171.462
L229.951 212.358
L230.174 297.836
L230.249 285.539
L230.472 196.316
L230.695 247.494
L230.993 163.772
L231.365 266.646
L231.588 216.16
L231.662 226.96
L231.737 232.72
L231.96 162.39
L232.034 174.688
L232.258 269.497
L232.406 216.419
L232.555 174.716
L232.778 245.305
L232.853 239.344
L233.002 212.416
L233.076 220.393
L233.15 220.249
L233.374 176.675
L233.746 233.209
L233.969 202.163
L234.118 228.745
L234.192 224.972
L234.415 181.744
L234.564 215.152
L234.713 255.443
L234.787 249.308
L234.936 219.702
L235.159 241.273
L235.308 205.36
L235.457 169.705
L235.531 171.779
L235.754 220.912
L235.829 217.369
L235.978 203.689
L236.201 270.851
L236.275 254.694
L236.498 212.675
L236.647 203.891
L236.796 212.675
L236.945 183.644
L237.019 190.931
L237.242 276.265
L237.317 275.2
L237.391 276.092
L237.466 272.262
L238.061 148.624
L238.284 175.465
L238.358 172.844
L238.507 161.728
L238.582 166.595
L238.73 232.288
L238.879 268.604
L238.954 263.104
L239.102 285.222
L239.177 282.889
L239.698 176.416
L239.846 170.972
L239.995 157.811
L240.367 276.553
L240.516 252.62
L240.739 216.246
L240.888 224.886
L241.334 195.942
L241.483 190.988
L241.558 192.918
L241.93 234.937
L242.004 226.787
L242.227 195.827
L242.376 181.254
L242.822 242.051
L242.897 237.184
L243.046 209.219
L243.12 212.3
L243.269 239.372
L243.343 234.764
L243.418 235.628
L243.566 265.091
L243.641 261.606
L243.79 248.934
L243.864 248.905
L244.385 171.001
L244.459 173.104
L244.757 209.996
L244.831 210.86
L244.906 206.339
L245.203 150.323
L245.65 267.337
L245.724 263.449
L245.798 257.2
L245.947 281.651
L246.022 280.009
L246.542 202.451
L247.063 171.289
L247.584 242.108
L247.882 212.56
L248.105 225.664
L248.179 227.881
L248.402 197.584
L248.477 197.958
L248.551 196.316
L248.626 197.728
L248.923 230.272
L249.221 282.14
L249.295 278.972
L249.667 212.963
L250.114 169.619
L250.188 173.478
L250.262 171.347
L250.337 164.291
L250.634 199.6
L250.709 203.977
L250.783 202.192
L250.858 204.064
L251.006 225.404
L251.23 205.82
L251.527 241.676
L251.602 240.524
L251.825 215.67
L252.197 241.532
L252.271 238.883
L252.42 226.47
L252.569 256.134
L252.866 203.718
L253.09 243.865
L253.462 196.691
L253.536 194.358
L253.834 161.843
L253.908 169.072
L254.057 209.564
L254.28 194.502
L254.429 166.595
L254.801 218.464
L254.875 226.931
L255.024 267.222
L255.098 265.177
L255.322 293.689
L255.917 166.595
L256.066 186.697
L256.214 162.851
L256.661 212.963
L256.735 211.696
L256.81 210.688
L256.884 203.603
L257.107 267.481
L257.256 229.868
L257.33 231.02
L257.479 204.352
L257.554 209.046
L257.628 208.182
L257.702 206.771
L257.851 227.42
L257.926 218.78
L258.074 239.977
L258.223 218.694
L258.521 251.987
L258.595 250.115
L258.967 176.531
L259.116 217.052
L259.265 176.3
L259.339 182.406
L259.414 181.34
L259.562 185.142
L259.786 229.321
L259.934 179.267
L260.009 181.081
L260.083 195.337
L260.158 192.803
L260.232 184.566
L260.753 268.662
L260.827 266.358
L260.976 230.617
L261.125 286.806
L261.199 278.8
L261.646 164.464
L261.794 186.956
L261.943 159.366
L262.166 221.459
L262.315 205.792
L262.538 230.156
L262.687 225.433
L262.762 230.329
L262.836 228.025
L262.985 219.184
L263.134 234.592
L263.654 157.926
L264.175 274.912
L264.25 265.84
L264.324 250.777
L264.398 251.785
L264.622 269.555
L264.77 255.961
L265.291 162.304
L265.589 197.036
L265.663 196
L265.738 196.748
L265.886 200.953
L266.035 179.497
L266.258 215.44
L266.333 214.403
L266.407 212.79
L266.556 223.82
L266.63 223.388
L266.779 205.273
L266.928 227.075
L267.226 282.313
L267.3 278.8
L267.672 218.809
L267.746 222.668
L267.821 229.984
L267.895 228.659
L268.416 179.67
L268.565 185.747
L268.714 171.894
L268.788 165.702
L268.937 169.475
L269.011 164.694
L269.16 181.888
L269.309 205.331
L269.383 203.43
L269.458 207.779
L269.681 261.088
L269.755 253.484
L269.83 256.48
L269.904 261.865
L270.053 253.254
L270.276 284.07
L270.35 282.083
L270.499 256.739
L270.871 187.648
L271.094 215.382
L271.169 220.969
L271.243 219.385
L271.318 222.87
L271.392 210.054
L271.541 161.728
L271.615 161.267
L271.838 148.566
L271.913 153.692
L272.062 144.39
L272.21 153.433
L272.285 163.139
L272.731 289.427
L272.806 287.18
L272.954 300.054
L273.326 246.832
L273.401 253.139
L273.847 187.936
L274.07 175.148
L274.442 222.726
L274.517 216.188
L274.666 203.459
L274.74 203.228
L274.814 207.347
L275.186 261.836
L275.41 209.939
L275.558 170.252
L275.856 224.828
L275.93 214.374
L276.154 186.582
L276.302 192.774
L276.526 204.15
L276.6 200.492
L276.749 221.747
L276.898 202.508
L276.972 205.1
L277.27 249.568
L277.418 290.492
L277.567 272.838
L277.79 225.03
L277.939 220.336
L278.088 193.235
L278.162 198.419
L278.237 203.344
L278.609 104.79
L278.683 112.048
L279.055 267.827
L279.13 267.769
L279.204 263.075
L279.278 263.536
L279.502 274.192
L279.725 276.524
L279.799 274.134
L279.948 238.652
L280.171 189.865
L280.469 231.308
L280.543 223.532
L280.915 135.721
L280.99 139.523
L281.213 190.153
L281.287 188.224
L281.362 189.145
L281.436 188.656
L281.585 179.872
L281.734 196.23
L282.031 283.724
L282.106 280.585
L282.254 261.75
L282.329 263.248
L282.701 295.475
L282.85 302.819
L282.998 262.844
L283.296 181.628
L283.817 100.297
L283.966 100.96
L284.114 126.908
L284.635 257.833
L284.71 263.305
L284.933 317.536
L285.007 315.894
L285.082 316.153
L285.23 276.64
L285.454 230.444
L285.528 230.876
L285.677 206.425
L285.826 182.348
L285.9 192.14
L285.974 189.952
L286.198 167.228
L286.272 171.318
L286.644 234.505
L286.718 231.51
L286.867 214.345
L286.942 214.518
L287.016 214.489
L287.09 214.028
L287.165 215.468
L287.239 215.036
L287.611 182.406
L287.76 195.884
L288.058 265.753
L288.355 227.68
L288.43 227.248
L288.653 249.251
L288.876 226.556
L288.95 228.14
L289.099 200.233
L289.248 184.336
L289.322 187.532
L289.471 184.192
L289.694 197.555
L289.769 197.18
L289.918 176.128
L290.141 210.457
L290.215 209.881
L290.513 141.884
L290.662 203.833
L290.885 298.384
L291.108 343.196
L291.257 323.699
L291.554 224.857
L291.703 236.089
L291.926 173.305
L292.075 182.32
L292.15 184.508
L292.298 175.926
L292.522 145.513
L292.596 147.904
L292.745 173.766
L292.894 150.15
L292.968 154.614
L293.191 207.577
L293.34 197.814
L293.786 262.902
L293.935 214.547
L294.307 249.28
L294.382 251.641
L294.53 242.713
L294.754 292.278
L294.828 282.083
L294.977 248.905
L295.2 270.275
L295.349 226.326
L295.572 151.964
L295.646 151.792
L295.721 153.635
L295.795 149.459
L296.018 94.71
L296.242 145.715
L296.316 153.116
L296.539 192.659
L296.688 229.897
L296.837 279.865
L296.911 278.022
L296.986 278.915
L297.134 312.812
L297.581 232.432
L297.655 238.307
L297.804 264.4
L298.027 196.864
L298.102 201.414
L298.176 203.43
L298.325 189.318
L298.399 192.457
L298.474 194.876
L298.622 191.161
L298.771 205.993
L298.846 198.39
L298.994 148.22
L299.069 154.211
L299.218 174.457
L299.292 170.627
L299.515 207.174
L299.664 192.774
L300.185 278.627
L300.259 277.878
L300.482 256.278
L300.631 243.721
L300.78 268.172
L300.854 266.272
L301.152 165.616
L301.226 165.443
L301.301 164.262
L301.673 194.992
L301.822 233.123
L301.896 227.363
L302.045 200.924
L302.268 222.467
L302.342 221.574
L302.417 213.539
L302.64 137.622
L302.714 144.102
L303.012 247.523
L303.235 287.785
L303.31 283.004
L303.682 221.43
L303.756 225.52
L303.83 237.126
L303.905 227.507
L304.054 174.227
L304.128 181.254
L304.351 224.598
L304.426 226.326
L304.5 231.366
L304.574 229.782
L304.723 211.35
L305.095 171.26
L305.393 205.129
L305.467 205.072
L305.616 210.832
L305.69 209.104
L305.839 212.358
L305.914 215.728
L306.062 202.307
L306.137 203.372
L306.434 222.121
L306.658 284.07
L306.881 253.11
L306.955 248.416
L307.104 232.777
L307.178 233.987
L307.253 233.44
L307.402 226.096
L307.699 159.136
L307.922 187.878
L308.146 149.977
L308.22 153.548
L308.518 209.161
L308.741 280.931
L308.89 287.468
L309.113 259.446
L309.262 282.169
L309.336 278.656
L309.485 244.844
L309.782 161.584
L309.857 163.974
L310.154 189.433
L310.303 199.715
L310.378 198.131
L310.526 221.747
L310.675 262.182
L310.75 258.784
L311.122 154.297
L311.345 183.529
L311.568 172.297
L311.642 177.424
L312.089 283.667
L312.163 282.601
L312.312 265.638
L312.461 222.121
L312.535 231.107
L312.61 225.577
L312.684 226.873
L312.833 245.68
L312.907 241.907
L313.13 201.673
L313.205 205.561
L313.354 234.678
L313.428 232.72
L313.726 151.072
L313.8 151.763
L314.172 216.246
L314.618 172.412
L314.767 212.56
L314.99 264.918
L315.065 265.724
L315.139 262.499
L315.214 268
L315.288 266.012
L315.362 265.638
L315.437 265.926
L315.511 260.713
L315.883 195.395
L315.958 199.312
L316.255 238.105
L316.702 195.337
L316.925 231.136
L316.999 222.524
L317.222 164.089
L317.371 196.748
L317.52 219.846
L317.743 198.764
L317.818 200.896
L318.041 220.22
L318.115 219.846
L318.338 232.806
L318.562 196.777
L318.636 201.846
L318.934 254.435
L319.008 257.315
L319.082 256.768
L319.157 253.6
L319.306 227.536
L319.529 188.915
L319.678 192.169
L319.901 169.849
L319.975 175.811
L320.124 191.42
L320.273 188.857
L320.347 190.758
L320.496 228.486
L320.794 278.742
L320.942 287.411
L321.091 265.379
L321.24 240.496
L321.314 240.611
L321.389 238.739
L321.835 158.3
L322.058 121.004
L322.133 120.976
L322.282 147.961
L322.654 319.753
L322.728 309.702
L323.323 165.385
L323.546 198.505
L323.621 195.164
L323.695 190.758
L324.067 231.395
L324.142 232.921
L324.29 208.643
L324.365 208.931
L324.662 241.504
L324.811 238.192
L324.96 247.955
L325.183 227.91
L325.332 210.227
L325.481 198.966
L325.555 198.39
L326.002 214.115
L326.076 211.897
L326.597 187.734
L326.671 188.425
L326.746 184.652
L326.82 185.142
L326.969 212.617
L327.266 281.564
L327.341 286.662
L327.49 250.057
L327.713 191.737
L327.862 203.574
L327.936 198.044
L328.159 210.918
L328.234 207.404
L328.308 206.598
L328.382 208.729
L328.606 241.561
L328.68 236.089
L329.052 182.003
L329.126 184.422
L329.722 222.496
L329.87 223.273
L330.019 233.267
L330.168 229.494
L330.466 258.294
L330.614 256.422
L331.21 196.259
L331.284 194.646
L331.507 167.315
L331.656 178.979
L331.73 176.099
L331.805 166.105
L331.879 166.249
L332.251 207.721
L332.326 209.449
L332.474 225.865
L332.846 283.897
L332.995 302.646
L333.665 181.628
L333.962 159.654
L334.558 207.404
L334.855 236.809
L335.153 251.526
L335.227 247.609
L335.45 220.249
L335.674 232.806
L335.822 217.052
L335.897 218.406
L336.046 226.844
L336.269 207.491
L336.343 215.238
L336.418 213.452
L336.641 182.204
L336.79 193.436
L336.938 203.113
L337.087 195.712
L337.236 181.427
L337.31 182.233
L337.534 196.921
L337.608 199.628
L337.831 237.472
L337.906 234.678
L337.98 242.137
L338.203 314.454
L338.352 287.411
L338.798 197.036
L339.022 205.964
L339.096 202.854
L339.17 203.2
L339.245 204.064
L339.542 198.275
L339.691 188.771
L339.766 191.219
L339.989 177.654
L340.435 237.126
L340.51 233.929
L340.658 211.321
L340.733 212.329
L340.882 221.632
L341.03 212.761
L341.254 228.947
L341.477 208.096
L341.551 212.79
L341.923 248.07
L341.998 253.715
L342.072 253.628
L342.444 231.856
L342.816 209.046
L342.965 196.259
L343.114 210.284
L343.262 233.584
L343.337 228.832
L343.634 180.217
L343.783 151.36
L343.858 153.232
L344.081 161.699
L344.155 159.452
L344.23 162.736
L344.378 200.32
L344.602 260.454
L344.899 295.158
L345.048 292.969
L345.197 279.404
L345.718 193.148
L345.866 184.883
L346.015 183.5
L346.09 181.686
L346.238 175.12
L346.908 215.411
L346.982 216.188
L347.131 211.379
L347.28 229.955
L347.503 198.649
L347.578 203.056
L347.95 241.158
L348.024 241.878
L348.173 236.233
L348.322 240.611
L348.47 225.635
L348.694 210.4
L348.842 219.644
L348.917 218.003
L349.14 204.064
L349.214 203.142
L349.289 200.118
L349.438 171.376
L349.512 173.19
L350.033 237.241
L350.256 254.291
L350.405 238.134
L350.702 185.516
L350.926 223.648
L351.149 270.16
L351.223 266.617
L351.446 227.478
L351.744 179.238
L351.818 180.217
L351.893 179.843
L352.042 175.091
L352.116 176.358
L352.488 222.236
L352.562 220.796
L352.637 220.105
L352.711 225.491
L352.934 260.224
L353.306 202.076
L353.53 230.128
L353.604 228.486
L353.827 207.836
L353.902 210.976
L354.05 191.708
L354.125 194.819
L354.348 219.472
L354.497 223.648
L354.72 215.123
L355.018 267.942
L355.092 259.158
L355.464 195.424
L355.613 186.179
L355.836 146.665
L356.208 187.705
L356.506 252.88
L356.654 256.854
L356.878 281.363
L357.77 160.288
L357.919 177.337
L358.068 205.043
L358.142 204.323
L358.217 205.532
L358.514 239.027
L358.738 233.929
L358.812 233.094
L358.961 234.678
L359.184 212.214
L359.258 214.115
L359.482 225.865
L359.556 224.598
L359.63 226.556
L359.705 226.268
L359.854 217.801
L359.928 218.579
L360.002 219.702
L360.077 219.443
L360.226 206.368
L360.449 181.888
L360.672 219.529
L360.746 217.571
L361.044 207.52
L361.118 210.025
L361.342 184.422
L361.937 243.692
L362.011 242.684
L362.16 231.251
L362.234 234.332
L362.309 230.185
L362.606 197.238
L362.755 218.406
L363.053 268.374
L363.127 268.086
L363.202 262.729
L363.648 189.116
L363.722 189.635
L363.871 193.494
L364.02 211.235
L364.094 204.726
L364.243 181.427
L364.318 184.624
L364.541 235.024
L364.615 228.659
L364.838 167.372
L364.987 131.372
L365.136 165.184
L365.359 270.217
L365.434 265.264
L365.657 193.753
L365.731 195.107
L365.954 241.072
L366.029 238.883
L366.178 225.606
L366.252 230.185
L366.698 300.371
L366.773 296.339
L366.996 214.432
L367.219 166.969
L367.517 223.072
L367.666 171.174
L367.889 108.476
L368.038 138.198
L368.261 215.67
L368.335 212.156
L368.41 212.905
L368.558 225.808
L368.856 344.291
L368.93 335.939
L369.526 140.675
L369.972 225.116
L370.195 183.76
L370.27 186.668
L370.493 238.451
L370.79 180.275
L370.865 186.611
L371.088 241.705
L371.162 238.336
L371.237 230.156
L371.311 230.444
L371.386 231.078
L371.683 217.34
L371.758 217.484
L371.981 236.579
L372.13 227.219
L372.204 230.876
L372.278 228.774
L372.427 215.036
L372.65 281.132
L372.725 279.059
L372.948 208.729
L373.171 125.468
L373.246 129.788
L373.692 228.4
L373.915 182.464
L374.213 275.891
L374.287 262.297
L374.585 169.043
L374.659 182.953
L374.957 299.622
L375.106 256.969
L375.403 187.993
L375.478 190.441
L375.626 198.16
L375.701 196.172
L375.775 197.123
L375.998 234.16
L376.073 231.251
L376.296 206.598
L376.445 207.433
L376.594 199.744
L376.817 158.329
L376.966 191.852
L377.114 220.912
L377.263 206.022
L377.338 206.252
L377.635 242.886
L377.784 252.908
L377.858 251.872
L378.007 245.852
L378.156 248.934
L378.23 246.112
L378.528 207.001
L378.751 225.808
L379.123 196
L379.198 198.361
L379.346 209.19
L379.495 192.457
L379.57 184.393
L379.644 185.171
L379.793 195.913
L380.016 180.102
L380.165 192.688
L380.388 233.468
L380.686 277.936
L380.76 272.867
L380.909 228.918
L381.132 176.473
L381.876 244.988
L382.099 226.902
L382.174 229.667
L382.397 252.246
L382.546 236.953
L382.918 199.571
L383.066 191.478
L383.29 157.091
L383.364 158.128
L383.513 168.006
L383.587 169.619
L383.736 195.107
L383.959 240.323
L384.108 236.579
L384.257 241.273
L384.406 246.284
L384.629 231.74
L384.778 239.862
L384.852 236.233
L385.001 208.067
L385.075 212.012
L385.298 232
L385.522 233.641
L385.596 236.147
L385.67 233.382
L386.042 170.512
L386.191 149.459
L386.34 166.912
L386.712 226.96
L386.861 275.315
L387.01 274.134
L387.084 275.718
L387.233 244.268
L387.53 194.3
L387.605 191.363
L387.679 192.601
L387.828 198.448
L387.902 192.572
L387.977 192.803
L388.2 205.907
L388.274 203.171
L388.349 205.907
L388.572 219.011
L388.721 223.504
L388.944 247.58
L389.018 247.033
L389.39 224.972
L389.465 222.524
L389.762 192.86
L389.911 208.758
L390.06 221.027
L390.134 218.147
L390.209 221.804
L390.432 248.848
L390.506 245.593
L391.027 181.196
L391.176 151.907
L391.25 153.865
L391.399 170.828
L391.548 198.649
L391.622 196.288
L391.697 192.832
L391.771 197.526
L392.069 245.91
L392.143 246.688
L392.292 244.384
L392.59 281.046
L392.813 239.084
L393.259 160.288
L393.334 163.052
L393.631 198.822
L393.706 199.369
L393.854 181.369
L393.929 181.744
L394.375 266.646
L394.598 252.131
L394.673 255.385
L394.747 253.456
L395.194 189.779
L395.268 191.363
L395.417 195.107
L395.491 192.515
L395.64 179.872
L395.714 181.283
L396.012 226.729
L396.086 226.355
L396.31 214.201
L396.607 227.42
L396.905 215.123
L396.979 215.929
L397.054 218.118
L397.202 211.84
L397.351 222.352
L397.574 251.296
L397.649 250.403
L398.17 197.987
L398.244 200.982
L398.393 216.707
L398.542 209.795
L398.616 209.939
L398.765 210.803
L398.839 209.305
L398.988 197.065
L399.062 197.094
L399.137 194.329
L399.211 196.288
L399.658 234.851
L399.732 231.884
L400.03 206.972
L400.178 200.032
L400.253 200.723
L400.476 216.707
L400.774 248.444
L401.071 242.742
L401.22 232.316
L401.294 232.518
L401.518 195.913
L401.666 178.316
L402.038 209.161
L402.262 233.18
L402.41 231.942
L402.559 227.593
L402.708 223.446
L403.006 198.707
L403.08 198.419
L403.154 199.6
L403.303 205.244
L403.378 204.294
L403.601 194.3
L403.675 192.688
L403.75 195.798
L404.345 273.5
L404.419 272.377
L404.791 205.792
L405.014 187.36
L405.312 161.324
L405.461 173.996
L406.056 255.212
L406.354 265.926
L406.577 243.491
L407.172 157.033
L407.47 191.19
L407.693 221.142
L407.842 213.827
L407.916 214.691
L408.511 240.553
L408.586 242.08
L408.809 230.185
L409.106 208.556
L409.33 220.94
L409.404 220.048
L409.553 221.43
L409.702 210.198
L409.776 212.761
L409.85 221.372
L409.925 220.249
L410.074 205.331
L410.222 210.169
L410.446 200.32
L410.52 201.788
L410.966 219.731
L411.115 220.825
L411.19 220.076
L411.562 196.201
L411.785 239.257
L411.859 234.217
L412.008 204.611
L412.082 205.993
L412.306 237.414
L412.454 226.268
L412.678 203.459
L412.826 207.865
L413.05 204.956
L413.124 199.888
L413.198 200.723
L413.347 194.07
L413.422 198.937
L413.645 240.064
L413.868 222.496
L414.091 254.32
L414.166 265.609
L414.24 263.248
L415.133 153.318
L416.026 266.3
L416.174 282.371
L416.323 270.937
L416.993 161.526
L417.067 161.382
L417.365 176.272
L417.811 232.172
L417.886 226.729
L417.96 231.164
L418.183 259.014
L418.555 237.126
L418.704 263.363
L418.778 261.059
L419.002 231.337
L419.15 213.683
L419.448 175.984
L419.522 175.58
L419.671 171.808
L419.746 173.996
L419.894 197.728
L420.043 222.841
L420.118 216.793
L420.341 189.635
L420.49 193.58
L420.564 184.624
L420.638 189.779
L420.862 225.952
L420.936 227.248
L421.382 272.579
L421.457 271.6
L421.531 271.6
L421.606 272.291
L421.754 239.027
L421.978 183.04
L422.126 189.98
L422.201 188.8
L422.275 182.982
L422.35 188.771
L422.498 212.243
L422.647 211.436
L422.722 211.897
L422.796 211.552
L423.094 186.236
L423.168 187.993
L423.54 239.286
L423.838 215.036
L423.912 215.728
L424.061 228.054
L424.21 217.859
L424.433 236.608
L424.507 231.251
L424.656 212.128
L424.73 214.144
L424.805 213.28
L424.879 211.897
L425.102 224.396
L425.326 191.219
L425.4 193.465
L425.474 193.667
L425.623 193.35
L426.07 220.825
L426.293 230.732
L426.367 230.156
L426.442 228.976
L426.665 242.281
L426.962 208.211
L427.037 209.651
L427.26 233.468
L427.334 226.902
L427.558 188.396
L427.632 186.121
L427.706 187.043
L427.93 208.297
L428.078 235.456
L428.227 258.611
L428.302 257.2
L428.45 266.646
L428.525 266.07
L428.674 253.34
L428.822 213.654
L429.046 145.916
L429.194 137.449
L429.269 139.264
L429.492 167.286
L429.715 190.614
L429.79 199.139
L430.087 275.603
L430.162 277.849
L430.236 274.825
L430.534 254.521
L430.682 241.676
L430.98 212.79
L431.278 205.878
L431.65 226.067
L431.724 223.475
L431.873 204.697
L431.947 206.915
L432.096 215.843
L432.245 193.753
L432.468 158.07
L432.617 165.616
L432.766 185.804
L433.063 246.428
L433.212 241.705
L433.361 251.123
L433.584 229.667
L433.807 190.729
L433.882 194.243
L434.254 241.36
L434.328 244.211
L434.402 242.368
L434.7 206.972
L434.998 238.105
L435.072 235.369
L435.37 211.235
L435.444 214.806
L435.518 218.953
L436.114 176.387
L436.188 179.036
L436.411 212.012
L436.56 239.056
L436.634 236.982
L436.709 231.337
L436.858 237.558
L437.006 217.081
L437.155 198.908
L437.304 197.814
L437.453 200.147
L437.602 194.963
L437.75 217.657
L437.899 234.332
L437.974 229.897
L438.048 231.51
L438.42 265.35
L438.494 263.737
L438.792 205.36
L438.866 205.187
L439.015 194.156
L439.238 170.396
L439.313 176.041
L439.908 272.636
L439.982 277.417
L440.057 274.22
L440.875 154.268
L440.95 156.4
L441.098 161.353
L441.322 180.505
L441.768 247.868
L441.991 263.766
L442.066 263.392
L442.214 258.236
L442.81 211.436
L442.958 191.852
L443.033 191.881
L443.256 200.118
L443.479 211.696
L443.554 211.753
L443.628 212.819
L443.926 233.267
L444 231.856
L444.149 208.326
L444.298 190.758
L444.521 202.595
L444.893 225.462
L444.967 222.928
L445.042 223.1
L445.116 223.59
L445.19 223.187
L445.414 217.398
L445.637 196.892
L446.232 247.436
L446.306 244.816
L446.678 183.616
L446.753 185.689
L447.05 214.374
L447.274 200.348
L447.571 232.46
L447.646 232.028
L448.018 208.844
L448.166 197.094
L448.464 236.32
L448.538 228.947
L448.762 214.23
L448.836 214.028
L448.91 215.411
L448.985 215.065
L449.134 202.163
L449.208 205.705
L449.431 234.102
L449.506 228.688
L449.58 229.004
L449.729 240.323
L449.878 237.385
L449.878 237.385" style="fill:none;stroke:#808080;stroke-linecap:square;"/>
   </g>
  </g>
 </g>
 <defs>
  <clipPath id="p7ff5b81e1d">
   <rect height="345.6" width="446.4" x="72.0" y="43.2"/>
  </clipPath>
 </defs>
</svg>
