<?xml version="1.0" encoding="utf-8" standalone="no"?>
<!DOCTYPE svg PUBLIC "-//W3C//DTD SVG 1.1//EN"
  "http://www.w3.org/Graphics/SVG/1.1/DTD/svg11.dtd">
<!-- Created with matplotlib (http://matplotlib.org/) -->
<svg height="432pt" version="1.1" viewBox="0 0 576 432" width="576pt" xmlns="http://www.w3.org/2000/svg" xmlns:xlink="http://www.w3.org/1999/xlink">
 <defs>
  <style type="text/css">
*{stroke-linecap:butt;stroke-linejoin:round;}
  </style>
 </defs>
 <g id="figure_1">
  <g id="patch_1">
   <path d="
M0 432
L576 432
L576 0
L0 0
z
" style="fill:#ffffff;"/>
  </g>
  <g id="axes_1">
   <g id="line2d_1">
    <path clip-path="url(#p7ff5b81e1d)" d="
M72 206.196
L72.2232 180.47
L72.2976 182.911
L72.372 189.132
L72.4464 187.944
L72.5952 190.752
L72.9672 217.104
L73.116 202.264
L73.6368 296.052
L73.7112 294.475
L74.3064 181.204
L74.6784 219.091
L74.7528 216.434
L74.976 190.212
L75.1992 141.871
L75.2736 143.966
L75.4224 162.823
L75.72 222.72
L75.8688 217.514
L75.9432 219.372
L76.0176 228.033
L76.092 226.586
L76.1664 217.622
L76.464 262.183
L76.6128 251.491
L76.9104 283.092
L77.1336 231.813
L77.208 237.516
L77.2824 244.838
L77.6544 194.143
L77.7288 191.14
L77.8032 194.618
L78.1752 226.521
L78.324 202.07
L78.5472 140.035
L78.696 154.161
L78.8448 163.881
L78.9192 160.9
L78.9936 159.561
L79.2168 187.598
L79.3656 214.231
L79.5888 272.356
L79.6632 275.856
L79.7376 275.359
L79.9608 249.72
L80.0352 251.512
L80.2584 266.071
L80.4816 260.844
L80.6304 242.916
L80.928 183.516
L81.0024 196.54
L81.0768 224.167
L81.1512 221.532
L81.4488 170.793
L81.5232 170.664
L81.5976 171.441
L81.672 170.491
L82.3416 224.232
L82.416 223.303
L82.6392 184.185
L82.9368 206.044
L83.3088 273.285
L83.3832 272.076
L83.6064 245.011
L83.6808 247.214
L83.7552 246.955
L83.9784 273.544
L84.0528 269.462
L84.276 194.143
L84.4992 133.857
L84.648 133.771
L84.8712 146.558
L85.1688 256.2
L85.2432 254.58
L85.5408 223.238
L85.6896 230.776
L85.8384 218.313
L86.0616 242.008
L86.2104 228.897
L86.2848 221.229
L86.3592 222.158
L86.4336 223.8
L86.6568 186.432
L86.7312 195.093
L86.88 200.126
L87.0288 197.253
L87.1776 203.431
L87.252 206.779
L87.3264 204.014
L87.4008 210.732
L87.624 283.113
L87.9216 229.243
L88.0704 214.101
L88.2936 181.312
L88.6656 202.351
L88.74 202.934
L88.8144 197.534
L88.8888 198.657
L88.9632 197.491
L89.112 179.822
L89.3352 226.478
L89.5584 287.584
L89.9304 219.393
L90.0048 221.294
L90.0792 221.272
L90.1536 221.769
L90.3024 208.42
L90.4512 186.604
L90.6744 207.405
L90.7488 207.016
L90.8976 175.178
L90.972 180.06
L91.1952 239.805
L91.2696 243.261
L91.344 239.481
L91.716 195.417
L91.7904 196.778
L92.0136 207.384
L92.1624 229.092
L92.2368 225.571
L92.3112 226.608
L92.6088 238.358
L92.832 210.559
L93.0552 248.964
L93.3528 225.7
L93.5016 197.88
L93.7992 132.648
L93.948 185.805
L94.1712 267.864
L94.2456 267.842
L94.3944 236.392
L94.6176 185.395
L94.7664 177.23
L95.064 237.688
L95.2872 275.186
L95.3616 281.364
L95.436 276.828
L95.6592 219.696
L95.7336 220.02
L95.808 220.992
L95.9568 201.444
L96.1056 188.937
L96.18 190.557
L96.3288 203.539
L96.4776 197.836
L96.7008 210.861
L96.7752 211.056
L96.924 219.674
L96.9984 218.853
L97.1472 201.984
L97.3704 219.264
L97.668 179.973
L97.8168 169.281
L97.9656 178.548
L98.4864 283.632
L98.5608 281.45
L98.7096 255.141
L98.784 233.066
L98.8584 233.109
L99.0072 265.164
L99.2304 223.497
L99.3048 231.576
L99.3792 242.246
L99.4536 237.127
L99.8256 126.578
L99.9 129.991
L100.123 202.502
L100.272 224.102
L100.346 215.484
L100.421 220.041
L100.495 215.635
L100.718 190.773
L101.165 238.012
L101.388 231.446
L101.537 234.016
L101.611 233.779
L101.834 208.14
L101.983 233.93
L102.206 274.149
L102.504 241.944
L103.248 132.626
L103.322 133.144
L103.397 135.456
L103.62 202.502
L103.843 293.589
L104.215 264.321
L104.29 270.736
L104.364 270.326
L104.662 195.158
L104.81 205.958
L104.959 189.585
L105.034 192.048
L105.182 206.088
L105.331 200.407
L105.406 202.502
L105.703 220.538
L105.852 205.85
L106.075 222.072
L106.224 248.532
L106.298 247.214
L106.596 193.149
L106.67 200.515
L106.745 200.796
L106.819 196.238
L106.968 169.605
L107.042 175.718
L107.34 253.867
L107.638 216.024
L107.861 186.108
L107.935 186.669
L108.01 186.734
L108.233 201.357
L108.456 251.102
L108.679 283.243
L108.754 280.672
L108.977 204.835
L109.051 205.872
L109.274 230.388
L109.572 180.988
L109.721 198.182
L110.018 177.381
L110.167 185.632
L110.539 229.912
L110.688 208.204
L110.911 235.701
L111.06 218.94
L111.134 218.745
L111.209 218.011
L111.358 230.258
L111.432 229.243
L111.506 227.191
L111.581 238.768
L111.73 282.832
L111.878 262.291
L111.953 262.723
L112.027 254.428
L112.399 145.845
L112.474 149.258
L112.771 206.865
L113.069 216.931
L113.218 198.852
L113.366 181.183
L113.441 181.334
L113.515 178.872
L113.59 184.444
L113.813 238.25
L113.887 237.451
L114.036 226.478
L114.185 251.793
L114.334 294.756
L114.557 275.942
L115.078 155.587
L115.226 176.193
L115.524 236.068
L115.598 221.596
L115.747 193.149
L115.896 196.087
L116.194 241.62
L116.268 239.049
L116.342 232.85
L116.417 234.837
L116.491 234.146
L116.64 197.34
L116.714 175.156
L116.789 179.001
L116.938 212.524
L117.086 197.815
L117.161 199.932
L117.235 196.562
L117.31 198.355
L117.533 281.796
L117.607 278.016
L117.979 200.256
L118.054 197.08
L118.128 188.786
L118.202 191.27
L118.351 210.991
L118.426 208.14
L118.574 239.179
L118.649 233.174
L118.872 178.072
L118.946 183.624
L119.17 223.432
L119.393 247.084
L119.467 244.773
L119.616 223.368
L119.839 200.256
L119.988 205.051
L120.062 196.54
L120.211 158.33
L120.286 168.093
L120.509 217.492
L120.732 257.928
L120.881 300.134
L121.104 283.545
L121.625 172.068
L121.699 176.085
L121.774 172.521
L121.997 132.518
L122.071 133.49
L122.294 214.447
L122.443 209.371
L122.518 211.056
L122.666 224.102
L122.741 217.752
L122.964 179.649
L123.113 205.094
L123.485 309.163
L123.559 309.919
L123.708 293.395
L124.229 155.954
L124.303 153.297
L124.378 161.678
L124.675 216.369
L124.973 210.732
L125.047 203.949
L125.122 207.124
L125.345 223.908
L125.642 236.738
L125.717 236.133
L125.866 227.234
L125.94 229.653
L126.014 227.882
L126.386 184.099
L126.461 186.237
L126.535 186.54
L126.684 207.146
L126.982 256.286
L127.056 248.424
L127.205 220.603
L127.428 259.18
L127.502 249.957
L127.8 199.759
L127.874 205.418
L127.949 204.273
L128.023 205.461
L128.246 198.247
L128.544 164.659
L128.618 171.484
L128.693 170.275
L128.767 171.139
L129.065 238.358
L129.139 233.628
L129.214 228.789
L129.288 229.329
L129.362 230.582
L129.511 223.713
L129.66 242.808
L129.734 242.764
L129.809 243.585
L130.106 261.081
L130.181 263.112
L130.255 253.154
L130.478 187.9
L130.553 191.508
L130.702 207.038
L130.85 174.897
L130.925 178.224
L131.074 197.448
L131.148 192.717
L131.222 195.849
L131.446 239.33
L131.743 201.465
L132.041 166.192
L132.115 171.268
L132.264 208.42
L132.487 258.943
L132.562 253.932
L132.71 263.716
L132.785 256.848
L132.859 259.029
L132.934 266.589
L133.231 215.7
L133.306 217.147
L133.38 216.78
L133.454 215.635
L133.603 221.424
L133.752 197.124
L133.901 175.135
L134.05 218.4
L134.124 212.33
L134.273 182.436
L134.422 194.186
L134.645 159.928
L134.794 167.013
L134.942 178.396
L135.314 292.574
L135.389 279.441
L135.463 271.924
L135.612 285.316
L135.686 282.271
L135.835 241.447
L135.91 243.888
L136.058 257.971
L136.207 230.301
L136.579 154.874
L136.728 197.361
L136.802 190.838
L136.877 175.048
L136.951 179.368
L137.1 205.569
L137.249 152.196
L137.323 155.76
L137.472 215.786
L137.546 209.565
L137.695 272.659
L137.77 303.655
L137.844 288.189
L137.993 241.317
L138.067 256.653
L138.29 178.461
L138.365 160.296
L138.514 175.07
L138.588 162.499
L138.886 229.632
L139.109 281.688
L139.258 255.962
L139.406 292.293
L139.481 290.112
L139.704 232.526
L139.927 177.079
L140.225 138.156
L140.299 143.275
L140.448 186.216
L140.597 151.051
L140.671 160.188
L140.82 189.693
L140.894 182.004
L140.969 184.185
L141.266 277
L141.638 241.015
L141.713 227.428
L141.787 233.433
L141.862 241.944
L141.936 234.081
L142.01 236.436
L142.085 244.168
L142.308 219.912
L142.457 234.945
L142.606 161.721
L142.68 165.912
L142.829 192.976
L142.903 177.381
L142.978 184.855
L143.126 225.938
L143.275 186.885
L143.424 237.624
L143.498 234.146
L143.573 216.045
L143.647 217.968
L143.796 260.325
L144.019 191.81
L144.094 198.938
L144.168 201.724
L144.317 156.062
L144.391 163.039
L144.54 226.78
L144.689 192.696
L144.912 289.658
L144.986 269.527
L145.135 240.302
L145.284 266.913
L145.358 252.895
L145.433 254.796
L145.507 251.361
L145.582 260.844
L145.656 256.675
L145.805 208.701
L145.879 203.949
L146.102 134.743
L146.251 175.783
L146.4 155.652
L146.549 207.772
L146.698 168.007
L146.772 171.29
L146.921 192.89
L146.995 185.071
L147.07 194.056
L147.293 255.53
L147.442 252.441
L147.516 255.638
L147.665 292.488
L147.962 234.513
L148.111 211.25
L148.186 219.739
L148.334 214.015
L148.558 253.197
L148.632 267.928
L148.781 227.407
L149.153 151.915
L149.227 158.654
L149.599 239.395
L149.674 228.876
L150.194 138.976
L150.269 145.78
L150.641 274.106
L150.715 273.89
L150.864 252.571
L150.938 254.277
L151.013 254.817
L151.087 246.782
L151.162 249.201
L151.31 281.86
L151.906 182.176
L152.054 169.281
L152.129 166.992
L152.203 176.323
L152.352 236.868
L152.426 232.958
L152.575 195.914
L152.65 196.821
L152.798 240.194
L152.873 232.893
L152.947 235.334
L153.022 236.328
L153.245 174.854
L153.319 149.388
L153.394 152.044
L153.542 168.741
L153.617 167.294
L154.063 299.875
L154.138 287.26
L154.286 235.917
L154.361 238.012
L154.733 300.328
L154.882 246.501
L155.105 156.645
L155.179 149.906
L155.254 150.122
L155.328 151.85
L155.402 151.202
L155.477 151.591
L155.7 181.809
L155.923 240
L156.146 176.82
L156.221 186.799
L156.295 183.472
L156.37 181.723
L156.593 222.093
L156.667 221.402
L156.816 198.247
L156.965 240.734
L157.039 238.12
L157.188 214.231
L157.411 249.957
L157.56 307.089
L157.858 263.047
L157.932 265.185
L158.006 260.736
L158.081 248.791
L158.23 263.133
L158.304 253.651
L158.527 112.452
L158.602 120.357
L158.676 130.941
L158.75 126.146
L158.974 159.626
L159.122 204.36
L159.197 204.273
L159.42 230.344
L159.569 215.03
L159.718 240.842
L159.866 216.326
L160.09 262.226
L160.164 254.774
L160.238 242.03
L160.313 245.076
L160.462 271.557
L160.685 193.214
L160.759 203.042
L160.908 229.243
L161.354 159.237
L161.578 233.412
L161.726 190.687
L161.875 206.649
L162.024 169.994
L162.173 212.848
L162.322 189.412
L162.694 245.832
L162.842 283.826
L163.066 216.218
L163.14 223.519
L163.214 228.444
L163.363 208.118
L163.438 221.661
L163.586 287.93
L163.661 284.517
L163.81 243.434
L163.884 245.616
L163.958 239.049
L164.256 139.668
L164.33 153.88
L164.628 219.782
L164.702 220.56
L164.851 174.033
L164.926 179.304
L165 193.171
L165.149 163.838
L165.223 167.791
L165.446 205.396
L165.521 206.865
L165.595 211.941
L165.818 262.701
L166.042 241.274
L166.116 248.121
L166.19 249.417
L166.339 302.683
L166.414 300.609
L166.711 204.878
L166.86 197.75
L166.934 188.289
L167.083 212.589
L167.158 208.528
L167.306 151.245
L167.381 151.44
L167.53 169.173
L167.678 165.415
L168.05 262.485
L168.199 231.554
L168.348 202.977
L168.497 226.608
L168.571 225.441
L168.646 206.476
L168.72 210.429
L168.943 286.785
L169.092 236.22
L169.166 237.753
L169.241 233.671
L169.39 199.759
L169.538 159.799
L169.985 245.032
L170.208 193.171
L170.282 203.82
L170.357 199.845
L170.506 180.988
L170.729 236.392
L170.878 183.343
L170.952 186.302
L171.101 241.9
L171.175 234.384
L171.324 196.713
L171.547 231.446
L171.919 190.644
L171.994 191.68
L172.142 222.828
L172.217 216.24
L172.291 207.686
L172.366 215.311
L172.589 263.22
L172.738 195.007
L172.812 200.752
L172.961 250.022
L173.11 208.204
L173.184 215.916
L173.333 274.776
L173.407 269.03
L173.63 225.938
L173.928 238.984
L174.002 236.716
L174.226 204.597
L174.523 162.067
L174.746 153.686
L174.895 135.823
L174.97 139.257
L175.342 218.572
L175.416 214.166
L175.49 214.555
L175.788 284.625
L176.309 217.73
L176.532 281.817
L176.755 230.085
L176.978 261.297
L177.127 243.045
L177.425 160.144
L177.499 160.209
L177.574 161.527
L177.722 168.072
L177.797 166.668
L178.02 133.944
L178.094 118.154
L178.169 133.274
L178.466 250.627
L178.541 252.204
L178.615 251.728
L178.764 271.255
L178.987 299.572
L179.136 274.905
L179.508 193.473
L179.582 198.636
L179.806 210.451
L179.88 209.673
L180.252 179.757
L180.401 180.362
L180.624 190.536
L180.847 290.695
L180.922 279.787
L181.145 209.025
L181.368 240.691
L181.517 214.339
L181.74 151.094
L181.814 153.146
L181.963 200.191
L182.112 231.295
L182.261 196.476
L182.335 200.947
L182.633 266.136
L182.856 221.38
L183.005 181.744
L183.079 185.74
L183.302 235.226
L183.377 228.724
L183.6 204.295
L183.674 205.915
L183.749 196.152
L183.823 200.342
L184.046 219.35
L184.195 218.983
L184.27 222.568
L184.493 258.316
L184.567 260.174
L184.79 210.148
L184.865 214.922
L184.939 229.848
L185.014 229.804
L185.088 213.043
L185.162 220.797
L185.237 226.413
L185.46 159.669
L185.534 161.484
L185.832 213.928
L185.906 200.731
L185.981 201.12
L186.278 262.723
L186.353 255.465
L186.576 189.002
L186.65 195.547
L186.725 199.78
L186.874 228.271
L186.948 221.359
L187.32 188.246
L187.618 228.098
L187.915 261.988
L187.99 262.917
L188.064 269.851
L188.138 289.744
L188.436 197.016
L188.51 205.872
L188.659 222.352
L188.734 225.528
L188.808 220.128
L189.106 157.725
L189.329 200.709
L189.478 216.585
L189.552 206.347
L189.701 168.417
L189.998 229.135
L190.073 227.86
L190.147 229.156
L190.296 192.76
L190.37 196.389
L190.519 233.671
L190.594 253.651
L190.668 243.801
L190.742 233.325
L190.817 237.624
L190.891 250.324
L190.966 246.112
L191.114 225.204
L191.338 249.547
L191.412 246.609
L191.635 227.558
L191.71 228.94
L191.858 239.719
L192.007 188.008
L192.156 148.934
L192.305 168.028
L192.379 161.808
L192.454 164.119
L192.751 230.668
L192.974 255.876
L193.049 256.394
L193.198 244.73
L193.421 260.044
L193.57 236.63
L193.942 114.18
L194.016 121.135
L194.314 208.701
L194.686 271.838
L194.76 272.356
L194.983 248.791
L195.206 263.889
L195.43 227.04
L195.653 147.832
L195.727 159.993
L195.95 179.001
L196.025 186.302
L196.248 168.417
L196.694 253.327
L196.843 274.624
L196.918 275.467
L197.066 268.944
L197.215 257.107
L197.29 258.122
L197.587 218.616
L197.885 176.776
L197.959 179.174
L198.034 176.258
L198.331 212.395
L198.406 225.722
L198.48 225.506
L198.629 203.107
L198.852 217.32
L199.075 192.868
L199.298 219.026
L199.522 181.312
L199.596 185.222
L200.117 273.825
L200.34 239.179
L200.414 245.875
L200.489 245.205
L200.638 229.156
L200.786 232.224
L200.861 239.503
L200.935 237.472
L201.158 199.068
L201.233 206.973
L201.382 197.016
L201.679 168.655
L201.754 167.294
L201.977 190.428
L202.2 170.577
L202.274 169.454
L202.423 190.795
L202.572 220.495
L202.721 275.683
L202.795 270.801
L202.944 262.334
L203.093 268.836
L203.167 274.452
L203.39 241.296
L203.539 232.267
L203.614 230.085
L203.837 209.133
L203.911 210.408
L203.986 219.004
L204.06 217.536
L204.283 180.492
L204.358 187.512
L204.432 185.352
L204.581 173.385
L204.804 220.02
L204.878 238.898
L204.953 238.639
L205.027 238.617
L205.102 246.35
L205.176 245.292
L205.399 178.634
L205.474 183.969
L205.622 208.096
L205.846 180.772
L205.92 181.939
L206.292 243.499
L206.515 283.675
L206.59 276.936
L206.962 193.884
L207.11 177.468
L207.557 287.563
L207.929 160.296
L208.003 156.991
L208.152 162.088
L208.673 265.164
L208.896 246.091
L209.342 149.258
L209.863 285.057
L210.161 229.567
L210.384 152.8
L210.458 154.896
L210.607 203.906
L210.83 272.68
L210.905 277.022
L210.979 273.069
L211.351 173.947
L211.426 170.728
L211.574 194.985
L211.649 192.566
L211.798 170.988
L211.872 173.126
L212.095 210.861
L212.17 203.496
L212.542 250.951
L212.69 207.124
L212.765 209.176
L212.988 254.709
L213.137 277.087
L213.211 275.467
L213.583 207.34
L213.658 211.077
L213.732 221.424
L213.806 215.332
L214.104 174.292
L214.253 148.005
L214.327 148.74
L214.476 174.336
L214.55 167.553
L214.625 168.244
L214.848 252.895
L214.922 251.34
L214.997 234.988
L215.071 237.732
L215.369 224.664
L215.443 220.02
L215.518 220.884
L215.815 287.066
L215.89 278.556
L215.964 280.24
L216.038 277.951
L216.41 122.712
L216.485 124.958
L216.634 172.305
L216.857 245.378
L216.931 245.659
L217.006 243.24
L217.229 198.679
L217.303 197.102
L217.675 261.578
L217.75 252.808
L217.824 243.218
L217.973 266.157
L218.196 219.976
L218.419 152.368
L218.642 168.957
L218.791 190.492
L219.014 266.784
L219.089 262.075
L219.238 224.426
L219.312 225.83
L219.461 247.948
L219.758 178.591
L219.833 180.556
L220.056 246.112
L220.279 198.981
L220.428 149.085
L220.502 154.053
L221.098 283.113
L221.246 274.754
L221.321 280.651
L221.395 275.121
L221.767 155.025
L221.842 163.924
L221.916 184.855
L221.99 182.436
L222.065 176.69
L222.139 177.662
L222.437 230.971
L222.511 230.085
L222.586 223.8
L222.809 238.855
L223.106 167.575
L223.181 171.009
L223.33 193.84
L223.404 196.108
L223.553 256.2
L223.627 249.331
L223.776 217.752
L223.85 220.581
L223.999 248.316
L224.074 243.045
L224.371 180.232
L224.446 179.347
L224.52 177.014
L224.669 217.73
L224.818 264.84
L224.892 259.526
L225.041 245.184
L225.264 221.337
L225.338 237.926
L225.413 232.353
L225.562 205.31
L225.71 230.15
L225.859 210.84
L226.082 256.048
L226.231 208.917
L226.454 144.895
L226.603 122.02
L226.678 131.524
L226.975 225.722
L227.124 216.888
L227.273 250.843
L227.422 276.007
L227.645 230.474
L227.719 236.997
L227.868 214.512
L228.017 191.572
L228.091 200.904
L228.24 239.784
L228.389 233.023
L228.612 279.074
L228.91 208.701
L228.984 210.408
L229.133 226.132
L229.356 173.018
L229.43 179.952
L229.505 178.764
L229.728 153.276
L230.249 246.112
L230.323 245.616
L230.472 236.738
L230.621 250.951
L230.695 246.307
L230.844 202.783
L230.918 206.908
L230.993 214.749
L231.067 206.39
L231.29 165.609
L231.365 158.2
L231.514 192.264
L231.811 258.511
L231.96 269.98
L232.034 269.484
L232.109 265.79
L232.183 266.092
L232.258 267.194
L232.332 263.392
L232.481 229.675
L232.555 230.949
L232.63 240
L232.704 233.8
L233.076 163.212
L233.15 164.94
L233.225 160.771
L233.522 197.988
L233.597 197.923
L233.671 189.499
L233.746 192.22
L233.894 198.808
L234.043 191.745
L234.341 254.212
L234.415 255.94
L234.49 261.816
L234.638 235.204
L234.862 198.441
L234.936 192.523
L235.159 219.652
L235.308 206.433
L235.457 233.131
L235.606 202.826
L235.68 207.686
L235.978 269.764
L236.052 279.808
L236.201 262.226
L236.498 176.992
L236.573 179.131
L236.722 190.492
L236.87 151.137
L236.945 152.714
L237.242 202.718
L237.391 240.669
L237.466 241.836
L237.763 257.388
L237.912 248.704
L237.986 254.731
L238.284 177.792
L238.582 210.796
L238.73 197.642
L238.879 156.796
L238.954 159.064
L239.177 212.935
L239.251 213.972
L239.4 225.441
L239.474 219.393
L239.549 229.027
L239.772 316.442
L240.293 164.248
L240.367 163.968
L240.516 222.568
L240.59 219.912
L240.739 204.576
L240.888 245.313
L241.111 305.34
L241.334 220.56
L241.558 135.132
L241.632 140.856
L241.855 177.468
L242.004 166.214
L242.153 210.494
L242.302 272.378
L242.376 271.233
L242.748 189.542
L242.822 189.585
L243.046 238.574
L243.12 233.239
L243.194 226.046
L243.343 235.852
L243.418 227.515
L243.566 171.916
L243.641 178.245
L243.864 249.136
L244.013 222.914
L244.236 219.069
L244.31 219.588
L244.385 208.831
L244.459 217.665
L244.682 271.989
L244.98 168.741
L245.054 171.441
L245.426 286.872
L246.022 121.2
L246.245 200.04
L246.319 188.786
L246.468 145.953
L246.542 147.94
L246.914 332.296
L246.989 320.546
L247.286 253.672
L247.658 241.684
L247.956 198.938
L248.105 163.622
L248.328 205.029
L248.551 134.656
L248.626 141.892
L249.072 275.575
L249.37 128.544
L249.444 131.157
L249.742 247.02
L249.816 248.208
L249.965 233.476
L250.114 282.724
L250.262 317.241
L250.932 142.476
L251.006 159.799
L251.304 245.27
L251.378 238.423
L251.676 142.864
L251.75 152.109
L252.122 268.512
L252.197 255.444
L252.42 180.427
L252.569 174.163
L252.792 227.58
L252.941 190.665
L253.015 192.091
L253.164 213.54
L253.387 268.749
L253.536 289.896
L253.61 282.012
L253.834 187.9
L253.908 188.484
L254.206 245.443
L254.28 237.321
L254.503 172.78
L254.652 238.099
L254.801 282.681
L254.875 282.271
L254.95 276.309
L255.247 147.249
L255.322 153.708
L255.619 199.176
L255.694 205.72
L255.917 116.167
L256.214 231.813
L256.289 221.899
L256.363 223.173
L256.586 272.421
L256.81 207.794
L257.033 326.205
L257.107 322.576
L257.554 160.425
L257.628 168.59
L258 222.655
L258.074 213.691
L258.223 194.359
L258.446 266.611
L258.893 135.196
L259.042 174.616
L259.414 273.998
L259.488 271.644
L259.711 197.858
L259.86 223.692
L260.009 273.847
L260.083 265.336
L260.232 171.657
L260.306 175.2
L260.455 220.192
L260.604 200.493
L260.678 211.725
L260.827 266.092
L260.902 265.552
L261.125 181.248
L261.348 226.996
L261.497 250.8
L261.571 243.52
L261.794 188.268
L261.869 189.996
L262.018 210.559
L262.241 202.221
L262.39 203.301
L262.538 144.096
L262.613 147.724
L262.91 316.896
L262.985 297.823
L263.282 192.328
L263.431 169.929
L263.506 175.437
L263.729 242.894
L263.803 242.721
L264.101 202.092
L264.175 213.54
L264.324 270.909
L264.398 267.561
L264.622 187.728
L264.696 191.119
L264.845 205.504
L264.919 198.571
L265.068 171.225
L265.291 220.149
L265.514 165.652
L265.589 168.201
L265.886 309.681
L265.961 294.194
L266.258 209.673
L266.333 210.256
L266.556 185.697
L266.705 212.611
L266.779 204.705
L266.928 117.463
L267.002 124.31
L267.3 279.333
L267.374 284.107
L267.598 224.253
L267.821 284.085
L267.895 261.276
L268.044 203.496
L268.193 215.181
L268.416 161.851
L268.49 165.199
L268.862 227.666
L268.937 228.616
L269.16 201.66
L269.309 228.206
L269.458 256.718
L269.681 187.792
L269.83 257.409
L270.053 201.336
L270.127 210.408
L270.202 220.495
L270.276 217.86
L270.499 196.432
L270.648 171.528
L271.243 269.376
L271.69 180.664
L271.764 182.652
L271.987 208.42
L272.136 190.255
L272.21 201.444
L272.434 268.792
L272.508 263.306
L272.657 271.579
L272.731 267.388
L272.954 210.321
L273.029 218.162
L273.103 213.691
L273.178 214.944
L273.401 249.05
L273.698 153.297
L273.773 161.808
L273.996 211.444
L274.07 209.328
L274.145 202.351
L274.219 205.677
L274.368 222.871
L274.666 185.028
L274.74 190.125
L275.038 266.87
L275.335 203.258
L275.41 210.105
L275.558 267.388
L275.633 258.489
L275.782 227.04
L275.856 228.098
L275.93 222.46
L276.228 134.959
L276.6 259.483
L276.674 258.468
L276.823 202.783
L276.898 204.835
L277.121 272.896
L277.195 269.656
L277.418 229.804
L277.493 225.981
L277.567 227.666
L277.642 226.024
L277.79 162.391
L277.865 170.296
L278.014 192.523
L278.162 177.144
L278.237 177.727
L278.311 186.324
L278.386 175.956
L278.46 182.371
L278.683 251.512
L278.758 249.374
L278.981 192.804
L279.055 199.932
L279.278 247.516
L279.502 226.003
L279.576 228.012
L279.725 255.811
L279.799 255.076
L279.948 224.383
L280.022 225.96
L280.32 285.295
L280.394 278.253
L280.692 145.564
L280.915 179.52
L281.213 133.425
L281.436 224.772
L281.51 220.041
L281.659 201.703
L281.734 205.051
L281.808 222.309
L281.957 298.125
L282.031 294.907
L282.701 176.928
L282.775 184.142
L282.998 201.033
L283.073 198.441
L283.296 163.644
L283.594 290.868
L283.668 284.582
L283.966 198.441
L284.04 208.118
L284.189 241.49
L284.338 209.652
L284.486 191.378
L284.71 248.661
L284.784 250.216
L285.007 184.725
L285.156 164.486
L285.305 180.038
L285.379 179.412
L285.602 193.257
L285.677 202.048
L285.9 271.104
L285.974 263.414
L286.272 185.114
L286.495 239.308
L286.793 203.128
L287.09 242.03
L287.165 231.597
L287.314 182.868
L287.388 184.725
L287.611 258.273
L287.686 249.223
L287.834 203.992
L287.909 208.377
L288.132 238.574
L288.206 240.388
L288.281 237.969
L288.578 168.828
L288.876 216.52
L288.95 202.416
L289.025 175.243
L289.099 189.002
L289.248 262.464
L289.322 262.01
L289.546 180.794
L289.62 181.939
L289.694 185.978
L289.992 272.032
L290.066 263.025
L290.29 199.046
L290.364 205.245
L290.587 250.044
L290.736 212.395
L290.885 174.638
L291.108 246.328
L291.182 242.872
L291.48 173.968
L291.703 260.412
L291.926 167.38
L292.001 171.031
L292.15 206.995
L292.298 256.135
L292.373 246.652
L292.67 180.362
L292.894 246.328
L293.191 146.817
L293.266 172.154
L293.489 280.888
L293.563 265.531
L293.712 186.648
L293.786 194.143
L294.01 285.943
L294.084 288.319
L294.233 241.512
L294.456 192.501
L294.53 196.195
L294.679 210.451
L294.902 176.323
L294.977 177.295
L295.126 192.739
L295.274 207.751
L295.423 237.667
L295.498 231.338
L295.646 192.069
L295.721 196.929
L295.944 224.901
L296.018 226.003
L296.167 232.332
L296.316 213.043
L296.39 213.648
L296.614 226.305
L296.688 222.352
L296.837 195.504
L297.06 260.023
L297.358 194.575
L297.506 204.792
L297.804 244.341
L297.878 234.492
L298.027 192.069
L298.102 194.748
L298.25 233.952
L298.325 228.811
L298.548 185.136
L298.697 197.793
L298.846 231.662
L298.994 197.037
L299.069 200.277
L299.218 214.058
L299.366 203.258
L299.59 284.344
L299.887 183.58
L300.11 250.13
L300.408 220.041
L300.482 219.134
L300.706 240.432
L300.78 238.552
L301.003 144.484
L301.078 148.783
L301.301 215.548
L301.598 178.18
L302.045 245.486
L302.194 195.223
L302.268 203.236
L302.417 250.26
L302.566 237.969
L302.863 248.143
L303.012 215.03
L303.086 222.828
L303.235 244.298
L303.83 173.752
L304.054 211.077
L304.128 212.654
L304.277 238.876
L304.351 237.624
L304.574 230.323
L304.872 153.859
L304.946 159.712
L305.318 266.308
L305.467 256.848
L305.542 255.292
L305.69 240.345
L305.988 173.536
L306.137 168.806
L307.03 262.788
L307.104 252.096
L307.327 190.536
L307.55 183.148
L307.625 185.546
L307.774 208.96
L307.922 198.549
L307.997 200.169
L308.146 214.058
L308.443 249.244
L308.666 213.216
L308.741 218.032
L308.964 256.696
L309.038 257.582
L309.41 210.3
L309.485 210.408
L309.634 192.026
L309.782 165.717
L309.857 167.661
L310.452 250.346
L310.675 229.005
L310.824 192.177
L310.898 172.24
L310.973 175.437
L311.419 246.328
L312.014 191.68
L312.163 178.483
L312.238 188.397
L312.461 242.721
L312.535 240.691
L312.61 233.26
L312.684 238.444
L312.758 237.818
L312.982 193.646
L313.13 218.572
L313.205 215.656
L313.279 206.973
L313.354 209.673
L313.577 254.558
L313.651 248.769
L313.874 211.855
L314.098 189.175
L314.395 205.31
L314.47 200.558
L314.544 201.141
L314.693 216.067
L314.916 254.212
L315.065 242.894
L315.288 217.017
L315.437 180.362
L315.511 184.833
L315.809 226.348
L315.883 231.338
L315.958 230.107
L316.032 223.411
L316.181 231.489
L316.33 206.952
L316.478 186.432
L316.553 187.188
L316.702 183.84
L316.85 203.474
L316.999 226.932
L317.222 183.408
L317.52 217.341
L317.594 217.428
L318.115 266.222
L318.19 258.835
L318.413 199.37
L318.487 204.532
L318.71 235.917
L318.785 235.42
L318.859 236.047
L318.934 229.329
L319.157 186.518
L319.454 234.405
L319.529 231.619
L319.752 198.852
L319.901 202.178
L319.975 200.385
L320.124 219.458
L320.198 215.613
L320.347 182.889
L320.496 206.433
L320.57 205.85
L320.645 205.051
L320.794 182.22
L320.868 188.289
L321.017 210.624
L321.091 210.775
L321.314 247.43
L321.389 236.76
L321.463 237.58
L321.686 255.033
L321.761 251.167
L321.91 215.289
L321.984 216.585
L322.133 229.848
L322.207 229.243
L322.282 231.986
L322.505 206.584
L322.654 204.921
L322.951 190.147
L323.026 195.244
L323.1 194.618
L323.249 179.131
L323.398 219.609
L323.546 241.922
L323.695 216.715
L323.77 221.143
L323.844 216.52
L323.918 216.564
L324.142 226.132
L324.29 215.289
L324.439 211.034
L324.514 215.052
L324.588 214.792
L324.737 207.513
L324.811 206.995
L324.96 198.7
L325.109 239.2
L325.332 259.461
L325.406 258.295
L325.778 194.294
L325.853 197.296
L326.002 192.307
L326.374 237.364
L326.448 234.189
L326.522 224.016
L326.597 224.08
L326.671 224.404
L326.82 207.124
L326.969 171.484
L327.118 198.42
L327.192 209.371
L327.266 204.424
L327.415 167.985
L327.49 173.169
L327.713 243.283
L328.159 196.735
L328.234 190.168
L328.382 225.938
L328.606 269.03
L328.754 244.384
L328.829 227.428
L328.903 232.872
L328.978 246.026
L329.126 211.617
L329.275 184.747
L329.424 222.288
L329.498 207.189
L329.573 207.276
L329.722 229.329
L329.796 228.876
L330.094 171.787
L330.168 173.709
L330.242 170.75
L330.317 176.409
L330.763 276.806
L330.986 225.873
L331.061 246.156
L331.135 240.626
L331.358 149.15
L332.028 263.932
L332.102 265.488
L332.326 176.56
L332.4 182.198
L332.846 251.491
L333.144 201.4
L333.367 157.941
L333.59 191.875
L333.962 262.118
L334.111 265.466
L334.483 226.348
L334.632 192.696
L334.706 198.398
L334.781 216.801
L335.004 171.441
L335.078 182.76
L335.302 220.344
L335.376 219.609
L335.525 209.371
L335.599 209.587
L335.674 206.887
L336.194 240.345
L336.418 209.76
L336.715 155.09
L336.79 147.768
L336.864 151.44
L337.087 242.03
L337.31 290.349
L337.98 211.833
L338.129 197.383
L338.352 167.316
L338.501 185.762
L338.65 211.142
L338.724 206.563
L338.798 207.708
L338.947 229.027
L339.096 228.422
L339.17 231.338
L339.245 230.712
L339.394 218.378
L339.542 237.904
L339.989 189.823
L340.212 204.705
L340.286 208.874
L340.361 206.347
L340.435 207.34
L340.584 235.312
L340.658 234.448
L340.956 195.374
L341.105 222.093
L341.179 219.89
L341.254 203.69
L341.328 206.606
L341.551 282.508
L341.626 281.385
L342.221 132.669
L342.816 290.889
L342.89 263.781
L343.039 228.12
L343.188 235.939
L343.337 211.164
L343.411 211.747
L343.56 223.756
L343.709 205.85
L343.932 235.096
L344.155 203.971
L344.23 190.384
L344.527 230.755
L344.676 260.412
L344.75 255.66
L345.048 178.807
L345.122 179.498
L345.271 203.776
L345.42 158.676
L345.643 207.47
L345.718 202.459
L345.866 180.211
L345.941 184.099
L346.238 234.794
L346.462 260.455
L346.759 189.931
L346.982 238.185
L347.131 226.089
L347.28 236.997
L347.429 222.244
L347.578 234.621
L347.726 272.054
L347.801 271.276
L347.95 257.971
L348.545 148.891
L348.619 149.992
L348.842 157.596
L349.066 202.221
L349.14 198.312
L349.214 185.46
L349.289 187.231
L350.033 281.752
L350.182 267.172
L350.628 188.851
L350.777 184.488
L351.149 201.141
L351.298 225.333
L351.521 198.916
L351.595 209.889
L351.818 273.285
L351.967 222.806
L352.042 224.642
L352.116 225.16
L352.339 172.845
L352.414 174.314
L352.637 186.907
L352.711 182.738
L352.786 183.192
L353.678 277.389
L353.827 294
L353.902 289.874
L354.05 253.716
L354.348 178.569
L354.571 130.293
L354.646 140.532
L354.943 211.704
L355.018 199.413
L355.092 194.1
L355.241 216.564
L355.39 190.32
L355.613 221.596
L355.687 220.43
L355.762 221.64
L355.91 255.055
L356.134 305.34
L356.208 298.752
L356.654 191.443
L356.878 68.9491
L357.398 289.269
L357.473 288.751
L357.547 292.682
L357.696 317.371
L357.77 305.923
L357.994 178.958
L358.068 182.392
L358.142 188.937
L358.366 135.499
L358.44 146.666
L358.663 244.665
L358.738 237.408
L358.886 186.129
L358.961 187.468
L359.11 215.289
L359.184 212.784
L359.333 199.089
L359.482 213.151
L359.779 267.669
L359.854 252.916
L360.077 150.748
L360.151 161.592
L360.449 248.272
L360.746 259.828
L360.895 247.3
L360.97 250.065
L361.044 246.76
L361.267 219.523
L361.49 223.173
L361.639 189.153
L361.862 110.4
L362.011 166.257
L362.16 212.481
L362.309 192.998
L362.458 237.926
L362.606 263.068
L362.681 262.766
L362.755 266.395
L362.978 245.097
L363.053 247.106
L363.202 253.716
L363.276 248.899
L363.574 165.026
L363.648 140.424
L363.722 144.182
L363.946 232.224
L364.02 232.051
L364.169 213.669
L364.318 262.183
L364.392 262.161
L364.615 221.856
L364.69 221.553
L364.764 222.352
L364.987 169.281
L365.136 146.709
L365.806 235.377
L365.88 239.978
L366.029 235.831
L366.401 276.482
L366.475 272.983
L366.773 226.154
L366.922 215.764
L367.145 155.414
L367.219 161.116
L367.517 202.675
L367.591 202.135
L367.74 208.183
L367.889 196.929
L367.963 200.688
L368.112 221.488
L368.484 203.841
L368.558 207.405
L368.782 247.495
L368.856 244.881
L369.005 249.59
L369.079 248.748
L369.526 167.575
L369.6 173.515
L370.121 307.262
L370.195 304.929
L370.642 141.352
L370.716 143.728
L370.939 208.01
L371.088 211.747
L371.237 208.982
L371.46 223.605
L371.534 221.661
L371.609 213.237
L371.683 213.453
L371.832 229.264
L372.055 206.174
L372.13 208.658
L372.204 216.002
L372.278 215.052
L372.502 186.518
L372.725 214.879
L372.874 202.48
L373.171 254.169
L373.246 252.096
L373.32 245.508
L373.469 260.001
L374.064 161.16
L374.213 194.359
L374.362 234.254
L374.659 184.034
L374.734 190.168
L375.031 266.805
L375.106 260.973
L375.403 232.375
L375.701 206.001
L375.85 173.018
L375.998 182.328
L376.073 183.17
L376.147 187.9
L376.37 260.736
L376.519 257.798
L376.742 181.291
L377.04 259.288
L377.263 228.573
L377.561 174.681
L377.635 178.224
L377.71 188.505
L377.784 185.611
L377.858 160.792
L377.933 160.987
L378.156 199.888
L378.23 204.23
L378.379 186.799
L378.826 276.093
L378.9 272.205
L379.123 222.633
L379.346 247.668
L379.495 214.857
L379.57 198.895
L379.793 251.426
L379.942 231.23
L380.239 169.886
L380.537 219.609
L380.686 204.597
L380.983 279.916
L381.281 135.715
L381.355 149.28
L381.504 201.768
L381.578 199.089
L381.727 162.844
L381.802 169.713
L382.025 237.775
L382.248 187.663
L382.322 194.078
L382.62 263.911
L382.694 255.768
L382.769 256.588
L382.992 314.584
L383.364 196.389
L383.513 208.831
L383.587 203.798
L383.81 169.195
L383.885 172.586
L384.257 221.316
L384.554 196
L384.778 213.626
L384.926 209.284
L385.075 228.184
L385.15 223.584
L385.224 226.197
L385.373 259.569
L385.447 253.564
L385.67 178.461
L385.819 208.442
L385.968 266.654
L386.042 264.883
L386.191 231.792
L386.34 245.983
L386.414 245.464
L386.861 165.631
L386.935 165.307
L387.01 166.473
L387.233 193.797
L387.307 192.48
L387.382 193.214
L387.754 272.745
L387.828 264.213
L387.977 251.944
L388.051 253.176
L388.126 245.896
L388.498 162.693
L388.572 151.353
L388.87 187.857
L389.093 255.098
L389.242 242.894
L389.465 265.876
L389.688 204.057
L389.762 222.093
L389.837 244.514
L389.911 243.974
L390.134 145.802
L390.209 150.036
L390.432 237.667
L390.506 234.794
L390.73 167.596
L390.804 156.386
L390.878 157.574
L391.176 227.493
L391.325 217.946
L391.399 215.419
L391.474 226.327
L391.697 337.934
L391.771 335.644
L391.92 296.894
L391.994 304.195
L392.069 301.992
L392.441 150.122
L392.664 88.2163
L392.738 93.0763
L393.036 211.617
L393.185 187.706
L393.334 199.348
L393.929 290.176
L394.003 287.498
L394.152 238.401
L394.375 177.489
L394.598 220.041
L394.673 205.029
L394.896 170.383
L395.119 266.805
L395.268 228.12
L395.491 255.962
L395.566 249.266
L395.714 239.244
L395.789 249.136
L395.863 248.186
L396.086 182.868
L396.161 183.861
L396.31 206.044
L396.384 213.172
L396.533 183.019
L396.756 199.78
L396.979 166.862
L397.277 91.5211
L398.095 371.997
L398.17 371.673
L398.393 331.497
L398.467 316.831
L398.616 331.281
L398.69 319.207
L399.286 81.6931
L399.434 103.293
L399.658 62.8795
L399.732 73.7875
L400.253 231.165
L400.402 251.944
L400.55 242.008
L400.848 263.371
L401.146 294.648
L401.294 271.816
L401.443 247.063
L401.518 246.501
L401.741 199.413
L401.815 201.94
L401.89 208.658
L402.113 168.244
L402.187 176.474
L402.336 231.144
L402.485 201.033
L402.559 179.023
L402.634 181.593
L402.857 210.84
L403.006 229.416
L403.154 277.13
L403.303 255.595
L403.526 262.852
L403.675 284.323
L404.122 108.801
L404.196 111.976
L404.27 110.853
L404.419 145.845
L404.642 206.649
L404.866 293.524
L405.014 290.371
L405.089 299.356
L405.312 249.936
L405.907 94.4155
L405.982 113.726
L406.205 238.444
L406.354 198.031
L406.577 261.016
L406.651 245.616
L406.8 219.933
L407.246 307.737
L407.321 307.672
L407.47 280.37
L407.767 186.885
L407.842 179.044
L408.065 129.796
L408.214 120.098
L408.288 113.64
L408.437 153.837
L408.66 199.068
L408.958 244.255
L409.181 300.933
L409.255 296.786
L409.702 195.072
L409.776 195.806
L409.925 214.231
L409.999 213.972
L410.074 214.576
L410.297 223.584
L410.371 222.028
L410.52 205.828
L410.743 238.358
L410.818 229.437
L410.966 249.396
L411.115 224.944
L411.264 232.936
L411.487 203.69
L411.562 202.156
L411.859 173.752
L411.934 178.31
L412.008 176.863
L412.231 149.863
L412.306 156.127
L412.454 181.982
L412.752 229.329
L412.826 235.896
L413.05 314.93
L413.124 309.141
L413.422 245.745
L413.645 241.9
L414.091 182.587
L414.24 178.526
L414.463 141.655
L414.538 152.26
L414.91 256.005
L414.984 253.37
L415.058 242.872
L415.133 244.773
L415.207 249.115
L415.282 246.696
L415.505 202.783
L415.802 261.405
L415.877 257.56
L416.1 210.969
L416.174 211.509
L416.249 225.722
L416.323 224.556
L416.546 171.636
L416.77 204.403
L416.918 160.188
L416.993 134.268
L417.067 134.743
L417.514 254.839
L417.662 226.953
L417.737 233.649
L417.96 287.865
L418.183 258.576
L418.258 259.526
L418.406 266.503
L418.481 255.832
L418.853 138.544
L419.076 160.598
L419.15 155.846
L419.225 161.7
L419.522 226.91
L419.671 193.754
L419.746 203.56
L419.969 254.126
L420.118 248.769
L420.192 251.037
L420.415 270.499
L420.564 246.177
L420.787 158.611
L420.862 162.607
L421.01 195.46
L421.085 193.344
L421.159 199.845
L421.308 222.072
L421.457 200.601
L421.68 222.979
L421.903 184.207
L422.126 216.369
L422.424 248.38
L422.722 266.244
L423.094 181.852
L423.242 214.987
L423.466 173.472
L423.614 194.078
L423.689 187.404
L423.912 208.723
L423.986 206.217
L424.061 209.846
L424.358 255.422
L424.433 253.305
L424.582 236.09
L424.73 244.276
L424.879 198.852
L424.954 199.37
L425.326 267.151
L425.4 264.127
L425.623 194.121
L425.846 241.684
L425.995 220.106
L426.218 161.116
L426.367 189.844
L426.442 186.324
L426.59 138.76
L426.665 144.614
L426.814 178.224
L427.037 139.905
L427.632 287.757
L427.781 289.982
L427.93 275.51
L428.078 252.139
L428.153 252.42
L428.302 241.382
L428.525 289.788
L428.748 225.722
L428.822 228.055
L428.897 237.235
L428.971 233.908
L429.194 196.627
L429.566 131.87
L429.938 174.66
L430.162 228.336
L430.31 222.525
L430.534 239.568
L430.608 237.71
L430.682 235.399
L430.757 235.831
L430.831 234.686
L430.906 238.444
L431.054 252.312
L431.352 181.377
L431.501 157.833
L431.724 207.405
L431.798 199.608
L431.947 181.399
L432.096 218.745
L432.319 261.837
L432.394 259.159
L432.617 277.108
L432.766 251.599
L433.063 177.662
L433.212 192.782
L433.435 228.487
L433.51 215.203
L433.658 160.49
L433.807 197.815
L433.956 228.616
L434.03 230.28
L434.105 229.351
L434.254 231.986
L434.477 242.332
L434.626 230.82
L434.849 274.192
L435.295 159.151
L435.37 169.044
L435.444 183.148
L435.518 179.412
L435.742 152.692
L435.816 154.809
L435.89 157.358
L436.039 187.447
L436.411 263.263
L436.486 271.255
L436.932 209.133
L437.006 213.648
L437.155 229.351
L437.23 227.774
L437.304 214.36
L437.378 220.97
L437.676 262.442
L437.899 251.361
L438.122 228.681
L438.271 245.054
L438.42 206.412
L438.643 171.204
L438.792 189.499
L438.941 171.7
L439.015 178.18
L439.238 206.412
L439.313 205.31
L439.462 172.456
L439.61 131.892
L439.685 138.264
L439.982 229.61
L440.206 210.084
L440.28 214.684
L440.578 267.907
L440.652 265.488
L440.726 254.839
L440.801 259.44
L441.024 330.849
L441.396 204.597
L441.47 205.116
L441.545 210.386
L441.619 207.816
L441.768 193.344
L442.066 209.263
L442.14 209.068
L442.214 206.023
L442.438 225.636
L442.735 175.912
L442.884 148.653
L443.033 181.14
L443.107 171.83
L443.256 155.738
L443.33 153.297
L443.479 140.791
L443.628 212.719
L443.851 324.326
L443.926 323.548
L444 321.216
L444.149 350.138
L444.298 281.148
L444.521 183.256
L444.67 158.136
L444.744 166.063
L444.967 211.812
L445.042 208.831
L445.19 186.604
L445.414 200.968
L445.488 198.765
L445.637 180.967
L445.786 196.087
L445.934 232.332
L446.009 230.366
L446.158 207.794
L446.306 219.523
L446.753 192.717
L446.902 230.668
L447.125 269.224
L447.274 276.72
L447.348 275.661
L447.497 246.631
L447.869 140.553
L448.39 195.05
L448.464 196.411
L448.538 208.269
L448.762 283.156
L448.836 288.729
L448.91 287.887
L449.208 247.43
L449.357 205.85
L449.431 206.541
L449.58 198.484
L449.729 228.012
L449.803 226.068
L449.878 223.13
L449.878 223.13" style="fill:none;stroke:#808080;stroke-linecap:square;"/>
   </g>
  </g>
 </g>
 <defs>
  <clipPath id="p7ff5b81e1d">
   <rect height="345.6" width="446.4" x="72.0" y="43.2"/>
  </clipPath>
 </defs>
</svg>
