<?xml version="1.0" encoding="utf-8" standalone="no"?>
<!DOCTYPE svg PUBLIC "-//W3C//DTD SVG 1.1//EN"
  "http://www.w3.org/Graphics/SVG/1.1/DTD/svg11.dtd">
<!-- Created with matplotlib (http://matplotlib.org/) -->
<svg height="432pt" version="1.1" viewBox="0 0 576 432" width="576pt" xmlns="http://www.w3.org/2000/svg" xmlns:xlink="http://www.w3.org/1999/xlink">
 <defs>
  <style type="text/css">
*{stroke-linecap:butt;stroke-linejoin:round;}
  </style>
 </defs>
 <g id="figure_1">
  <g id="patch_1">
   <path d="
M0 432
L576 432
L576 0
L0 0
z
" style="fill:#ffffff;"/>
  </g>
  <g id="axes_1">
   <g id="line2d_1">
    <path clip-path="url(#p7ff5b81e1d)" d="
M72 251.261
L72.2976 205.382
L72.4464 200.285
L72.5952 193.402
L72.6696 196.541
L72.8928 233.376
L73.116 258.403
L73.3392 210.336
L73.5624 191.731
L74.3064 215.606
L74.3808 214.829
L74.6784 201.466
L74.8272 207.859
L75.348 264.797
L75.4224 259.901
L75.7944 186.95
L75.8688 187.958
L76.092 199.795
L76.2408 199.507
L76.3896 204.403
L76.7616 217.45
L76.9848 220.474
L77.0592 221.683
L77.58 240.778
L77.7288 241.267
L77.8032 241.843
L77.952 229.142
L78.324 176.928
L78.3984 175.43
L78.9192 205.469
L79.2168 232.656
L79.5144 218.314
L79.812 247.2
L79.8864 247.344
L80.7048 210.768
L80.8536 186.749
L81.0768 150.95
L81.1512 156.538
L81.5976 246.134
L81.672 247.69
L81.8208 243.11
L81.9696 238.531
L82.1184 239.885
L82.1928 238.502
L82.5648 207.082
L82.788 199.709
L82.9368 207.197
L83.16 218.429
L83.2344 218.573
L83.3088 219.12
L83.3832 217.594
L83.4576 217.91
L83.7552 227.933
L83.8296 227.558
L83.9784 213.504
L84.2016 188.16
L84.276 191.299
L84.7224 229.344
L84.8712 225.341
L84.9456 225.312
L85.0944 224.794
L85.1688 225.312
L85.3176 217.766
L85.6152 186.778
L85.6896 187.066
L85.9128 206.506
L86.2848 244.176
L86.4336 239.366
L86.7312 225.859
L87.1032 200.026
L87.1776 204.202
L87.5496 229.949
L87.8472 214.886
L88.1448 179.002
L88.2192 177.59
L88.368 192.221
L88.6656 241.613
L88.74 241.786
L89.1864 213.043
L89.4096 185.942
L89.484 186.662
L89.6328 206.534
L89.9304 248.323
L90.3768 221.741
L90.6744 189.83
L90.7488 189.946
L90.8976 200.89
L91.2696 245.357
L91.5672 233.117
L91.6416 231.274
L91.7904 209.587
L92.0136 172.81
L92.088 171.629
L92.2368 188.419
L92.46 206.275
L92.5344 206.016
L92.6088 207.024
L92.7576 217.507
L92.9064 227.357
L92.9808 225.802
L93.2784 202.992
L93.4272 214.57
L93.7248 249.158
L93.7992 247.718
L94.6176 197.952
L94.692 201.667
L95.064 240.086
L95.1384 239.395
L95.3616 230.582
L95.5104 214.656
L95.8824 161.174
L95.9568 162.096
L96.3288 207.11
L96.6264 229.805
L96.7008 231.418
L96.7752 231.072
L96.8496 231.446
L97.1472 236.083
L97.2216 235.133
L97.4448 224.65
L97.5192 225.254
L97.7424 230.813
L97.8168 230.64
L98.04 228.336
L98.1888 224.218
L98.8584 185.453
L98.9328 186.173
L99.3048 204.49
L99.4536 197.376
L99.528 197.491
L99.6768 209.962
L99.9744 238.33
L100.123 230.266
L100.272 238.963
L100.421 245.99
L100.57 234.845
L100.942 195.59
L101.016 195.648
L101.09 196.022
L101.239 199.939
L101.314 202.762
L101.388 202.502
L101.462 201.264
L101.537 203.05
L101.76 226.003
L102.058 254.688
L102.355 224.016
L102.43 225.11
L102.578 231.187
L102.653 228.97
L103.099 194.554
L103.174 195.014
L103.322 198.269
L103.471 190.493
L103.62 182.63
L103.694 183.926
L103.843 193.488
L104.066 208.781
L104.141 209.702
L104.29 205.67
L104.364 207.888
L104.662 237.034
L104.736 236.803
L104.885 232.224
L104.959 232.829
L105.108 243.715
L105.331 259.987
L105.703 219.638
L105.778 221.078
L105.926 227.76
L106.001 225.917
L106.522 189.139
L106.596 189.686
L106.67 189.571
L106.819 187.181
L106.894 187.642
L107.042 193.517
L107.489 230.928
L107.786 211.373
L107.861 212.237
L108.084 220.272
L108.158 220.186
L108.307 217.075
L108.456 224.304
L108.605 231.619
L108.679 230.986
L108.977 210.797
L109.126 209.645
L109.2 209.731
L109.274 210.48
L109.423 224.506
L109.646 240.432
L109.795 227.731
L110.018 209.702
L110.167 208.061
L110.39 199.738
L110.688 211.718
L110.986 214.339
L111.134 212.87
L111.209 213.331
L111.358 216.614
L111.581 224.765
L111.655 223.642
L111.878 211.315
L111.953 211.574
L112.25 216.816
L112.325 215.981
L112.548 206.794
L112.622 208.262
L112.771 221.712
L112.994 246.336
L113.069 245.069
L113.738 188.477
L113.887 203.539
L114.185 241.094
L114.334 244.896
L114.482 232.656
L114.854 192.682
L115.078 189.686
L115.152 191.126
L115.45 214.166
L115.524 213.331
L115.673 211.171
L115.97 194.496
L116.045 195.965
L116.194 209.414
L116.64 282.25
L116.789 259.814
L117.012 224.621
L117.533 187.699
L117.607 190.723
L117.83 204.835
L117.979 202.675
L118.202 180.038
L118.277 180.701
L118.5 212.87
L118.798 246.97
L118.946 249.792
L119.021 248.554
L119.17 237.408
L119.467 202.042
L119.542 202.157
L119.988 221.28
L120.137 227.328
L120.286 214.915
L120.583 169.555
L120.658 170.131
L120.806 191.213
L121.104 233.693
L121.476 277.008
L121.55 273.552
L121.774 224.419
L121.997 189.427
L122.071 186.115
L122.146 188.16
L122.666 222.605
L122.741 220.07
L123.038 181.018
L123.187 170.534
L123.336 181.306
L123.931 254.026
L124.006 256.358
L124.08 255.466
L124.229 248.467
L124.675 209.04
L124.898 238.33
L124.973 237.12
L125.345 191.962
L125.494 200.314
L125.717 210.019
L126.014 198.298
L126.163 207.859
L126.461 236.314
L126.758 217.507
L126.833 218.285
L126.982 220.07
L127.13 211.114
L127.279 204.346
L127.428 214.397
L127.651 229.402
L127.8 215.146
L128.023 194.122
L128.098 196.339
L128.47 237.062
L128.767 221.222
L128.842 221.914
L129.065 230.842
L129.214 217.363
L129.437 202.358
L129.586 212.698
L129.734 224.765
L129.883 212.611
L130.032 197.002
L130.106 197.059
L130.404 215.174
L130.478 214.166
L130.702 199.248
L130.776 201.811
L131.074 234.557
L131.148 231.936
L131.371 212.093
L131.446 213.763
L131.743 238.186
L131.892 224.736
L132.19 193.43
L132.487 206.362
L132.934 220.531
L133.231 244.205
L133.306 242.448
L133.826 217.997
L134.05 211.488
L134.347 224.534
L134.57 196.483
L134.794 178.512
L134.942 189.744
L135.24 211.229
L135.389 208.406
L135.538 211.056
L135.686 221.107
L135.835 230.813
L135.91 231.331
L136.058 227.645
L136.133 227.875
L136.356 230.352
L136.505 234.442
L136.654 230.582
L137.546 201.494
L137.621 202.675
L137.918 219.034
L138.142 230.957
L138.29 214.8
L138.514 190.032
L138.662 203.28
L138.96 227.53
L139.034 226.982
L139.183 219.955
L139.481 203.194
L139.63 206.189
L140.076 222.979
L140.374 210.422
L140.522 218.314
L140.671 230.266
L140.746 229.373
L140.894 220.128
L141.043 214.31
L141.118 216.557
L141.341 228.883
L141.415 227.587
L141.638 219.005
L141.787 221.568
L141.862 220.618
L142.085 209.587
L142.382 197.491
L142.606 200.659
L142.754 208.781
L143.126 238.272
L143.201 236.256
L143.722 197.318
L143.796 200.947
L144.019 227.184
L144.242 242.938
L144.391 227.155
L144.614 201.811
L144.689 199.91
L144.763 200.544
L144.838 200.515
L144.986 200.746
L145.061 202.013
L145.284 214.31
L145.358 212.266
L145.582 203.309
L145.656 203.482
L145.805 215.318
L146.028 230.726
L146.251 226.522
L146.326 227.155
L146.846 248.784
L146.921 245.846
L147.59 167.626
L147.665 170.909
L147.962 205.613
L148.186 234.24
L148.26 233.722
L148.558 226.493
L148.632 225.802
L148.855 232.138
L148.93 231.36
L149.227 220.243
L149.525 228.941
L149.674 218.026
L149.897 204.202
L149.971 202.79
L150.12 206.102
L150.566 225.456
L150.641 225.11
L150.864 211.834
L151.162 187.382
L151.236 185.798
L151.31 186.864
L151.608 211.2
L151.682 210.019
L151.757 211.286
L151.906 219.926
L151.98 219.264
L152.129 215.318
L152.278 219.062
L152.947 257.741
L153.022 257.51
L153.17 251.261
L153.394 215.837
L153.691 180.758
L153.766 179.318
L153.84 180.499
L154.138 200.746
L154.51 227.702
L154.658 213.648
L154.882 195.36
L154.956 196.109
L155.551 226.896
L155.774 235.997
L155.923 232.253
L156.444 211.546
L156.667 204.288
L156.816 206.016
L156.89 205.987
L157.039 204.922
L157.114 205.901
L157.262 217.882
L157.486 235.91
L157.783 226.061
L157.858 226.349
L158.081 236.458
L158.155 237.149
L158.23 236.544
L158.75 205.066
L159.197 173.299
L159.271 173.587
L159.494 191.558
L160.164 240.403
L160.238 238.531
L160.387 230.784
L160.462 231.85
L160.759 255.494
L160.908 241.814
L161.354 194.496
L161.429 193.402
L161.503 193.92
L161.726 195.619
L161.95 200.89
L162.173 195.389
L162.396 205.037
L162.619 225.974
L162.768 238.992
L162.842 238.502
L163.066 210.595
L163.214 202.589
L163.363 216.298
L163.661 250.512
L163.735 250.253
L163.884 236.602
L164.182 210.221
L164.405 217.766
L165.074 200.026
L165.223 197.664
L165.521 203.194
L165.744 219.782
L165.818 219.408
L165.967 209.558
L166.042 211.344
L166.488 237.235
L166.637 223.037
L166.786 209.99
L166.86 210.422
L166.934 210.624
L167.083 196.512
L167.232 184.358
L167.381 197.434
L167.753 248.352
L167.827 248.899
L167.976 239.366
L168.422 199.277
L168.571 214.339
L168.72 226.176
L168.794 225.197
L169.092 202.042
L169.241 204.202
L169.315 205.584
L169.39 205.469
L169.464 205.872
L169.538 202.272
L169.613 203.309
L169.91 234.154
L170.134 224.189
L170.357 237.005
L170.431 232.109
L170.729 179.002
L171.026 242.822
L171.101 235.19
L171.324 200.803
L171.547 219.667
L171.622 213.965
L171.845 180.442
L171.994 211.517
L172.217 253.565
L172.514 213.014
L172.738 223.066
L173.035 194.87
L173.11 198.269
L173.333 220.646
L173.407 220.128
L173.556 212.208
L173.63 212.813
L173.854 234.902
L173.928 233.146
L174.226 212.381
L174.598 245.126
L174.672 238.416
L175.193 163.766
L175.267 160.915
L175.416 179.29
L175.788 251.002
L175.862 258.432
L175.937 257.165
L176.011 254.198
L176.458 211.862
L176.681 205.44
L176.83 210.192
L177.053 230.323
L177.127 228.538
L177.276 215.29
L177.499 190.925
L177.648 197.376
L177.797 201.264
L177.946 193.258
L178.02 194.41
L178.169 212.899
L178.392 245.616
L178.541 229.488
L178.69 211.344
L178.764 212.064
L178.987 228.048
L179.062 226.81
L179.136 223.008
L179.21 223.584
L179.359 234.413
L179.508 244.118
L179.657 227.875
L179.954 187.958
L180.326 204.778
L180.698 235.939
L180.847 244.09
L180.996 227.386
L181.219 199.133
L181.294 199.133
L181.442 201.379
L181.517 198.586
L181.74 178.57
L181.889 198.384
L182.112 243.974
L182.186 243.024
L182.41 212.554
L182.484 214.57
L182.707 222.144
L182.93 226.147
L183.228 251.002
L183.302 249.302
L183.451 223.094
L183.674 197.693
L183.823 200.083
L183.972 194.237
L184.121 187.469
L184.27 198.125
L184.567 229.43
L184.79 200.947
L184.865 204.374
L185.237 245.357
L185.311 244.982
L186.13 190.666
L186.204 192.797
L186.427 206.938
L186.502 204.662
L186.725 191.213
L186.874 204.202
L187.171 238.79
L187.394 227.962
L187.692 254.227
L187.841 233.837
L188.064 206.246
L188.213 221.338
L188.362 229.834
L188.51 204.806
L188.734 176.467
L188.882 191.414
L189.106 214.8
L189.18 215.376
L189.254 214.858
L189.329 216.355
L189.552 230.064
L189.626 228.509
L189.775 201.466
L189.924 179.088
L189.998 183.379
L190.37 244.003
L190.445 243.226
L190.594 232.598
L190.668 232.656
L190.891 256.186
L190.966 250.051
L191.263 168.374
L191.338 173.76
L191.635 233.434
L191.933 201.811
L192.007 207.802
L192.23 238.79
L192.305 236.774
L192.528 209.472
L192.602 210.682
L192.826 242.16
L192.9 240.518
L193.049 205.21
L193.272 162.096
L193.57 207.686
L193.644 206.218
L193.793 194.41
L193.867 197.894
L194.165 253.997
L194.239 250.714
L194.537 201.725
L194.686 229.834
L194.909 273.062
L195.058 246.826
L195.206 217.046
L195.281 218.256
L195.504 253.277
L195.578 246.307
L195.95 152.678
L196.174 197.117
L196.248 195.821
L196.471 158.15
L196.546 160.483
L196.843 249.389
L196.918 248.467
L197.215 192.307
L197.364 225.974
L197.587 279.341
L197.736 238.56
L197.959 194.237
L198.257 258.72
L198.331 251.722
L198.554 212.496
L198.629 216.24
L198.852 252.96
L198.926 248.438
L199.298 147.898
L199.373 161.578
L199.596 206.707
L199.67 200.4
L199.894 168.374
L199.968 177.418
L200.34 267.936
L200.638 215.491
L200.712 223.382
L200.935 256.704
L201.084 223.238
L201.307 180.355
L201.382 186.749
L201.679 246.797
L201.754 241.469
L202.051 191.587
L202.274 214.627
L202.349 213.158
L202.498 190.752
L202.646 167.338
L202.721 170.246
L203.167 263.962
L203.242 253.766
L203.465 210.451
L203.539 215.434
L203.762 253.766
L203.837 252.326
L204.209 190.666
L204.581 238.531
L204.655 233.03
L204.953 178.742
L205.102 194.381
L205.25 209.242
L205.399 189.6
L205.548 175.056
L205.697 204.144
L205.994 265.661
L206.143 238.646
L206.366 199.45
L206.441 206.707
L206.738 259.67
L207.036 191.069
L207.11 193.027
L207.408 238.992
L207.557 200.573
L207.78 142.627
L207.929 171.226
L208.226 233.75
L208.45 217.277
L208.524 220.243
L208.896 269.232
L209.045 247.718
L209.342 182.746
L209.417 180.845
L209.566 192.998
L209.714 203.222
L209.863 199.507
L209.938 200.256
L210.086 220.33
L210.31 257.654
L210.384 258.374
L210.458 257.194
L210.682 236.083
L211.202 178.598
L211.426 145.738
L211.574 174.394
L211.872 255.12
L212.021 240.374
L212.17 224.016
L212.244 224.822
L212.467 237.466
L212.542 237.437
L212.69 231.763
L213.062 200.861
L213.137 201.12
L213.286 204
L213.583 191.674
L213.732 201.926
L214.104 237.984
L214.402 215.434
L214.476 216.787
L214.55 219.984
L214.848 243.542
L214.922 243.946
L214.997 243.6
L215.071 241.354
L215.741 173.731
L215.815 175.776
L216.708 245.155
L216.857 254.4
L217.08 235.392
L217.154 229.373
L217.229 229.402
L217.452 232.829
L217.601 222.374
L217.973 179.203
L218.345 192.192
L218.791 232.426
L219.014 229.69
L219.386 208.781
L219.461 209.501
L219.907 230.784
L219.982 230.784
L220.205 237.149
L220.428 229.603
L221.023 174.624
L221.098 177.677
L221.47 225.139
L221.544 224.074
L221.618 223.008
L221.767 230.179
L222.065 246.278
L222.214 232.829
L222.437 204.979
L222.66 199.363
L222.809 208.867
L223.032 230.035
L223.106 229.488
L223.255 223.958
L223.478 213.274
L223.627 216.182
L223.702 215.894
L223.925 203.107
L224.148 215.059
L224.371 229.459
L224.52 213.562
L224.743 182.515
L224.818 180.154
L224.966 192.653
L225.338 233.52
L225.413 234.125
L225.487 232.8
L225.562 232.858
L225.71 233.232
L225.785 233.923
L225.859 233.866
L226.008 225.571
L226.306 188.621
L226.38 189.427
L226.678 220.358
L226.752 219.725
L226.826 220.099
L227.124 246.221
L227.198 243.11
L227.496 211.862
L227.57 212.093
L227.794 216.845
L227.868 216.787
L228.091 212.611
L228.166 212.784
L228.314 205.008
L228.612 188.851
L228.761 201.408
L229.133 236.717
L229.207 235.882
L229.654 186.346
L229.728 189.197
L230.174 237.869
L230.249 237.84
L230.621 217.277
L230.844 203.741
L230.993 213.302
L231.29 242.621
L231.439 243.686
L231.514 241.066
L232.109 185.626
L232.183 186.979
L232.332 196.656
L232.555 219.293
L232.63 218.314
L232.927 200.17
L233.002 200.602
L233.15 216.096
L233.448 247.747
L233.522 246.422
L233.82 223.066
L234.118 192.509
L234.192 193.776
L234.862 226.954
L234.936 227.472
L235.01 231.936
L235.457 213.907
L235.531 214.454
L235.68 223.152
L235.754 219.898
L235.978 187.44
L236.424 219.235
L236.498 215.808
L236.796 195.965
L236.945 201.869
L237.168 228.192
L237.391 249.878
L237.466 249.302
L237.614 236.717
L237.912 211.229
L237.986 211.344
L238.21 220.877
L238.284 220.848
L238.358 220.186
L238.507 213.907
L238.73 195.36
L238.805 195.418
L238.954 202.646
L239.326 230.035
L239.4 229.488
L239.846 203.914
L239.921 204.144
L240.293 216.47
L240.367 215.635
L240.442 215.347
L240.516 216.557
L240.665 225.37
L240.814 235.075
L240.888 234.701
L241.037 229.43
L241.26 223.901
L241.409 217.536
L241.706 195.274
L241.93 212.842
L242.004 212.438
L242.078 210.739
L242.153 212.381
L242.227 211.891
L242.599 197.722
L242.674 198.931
L242.748 197.491
L242.897 204.547
L243.194 225.168
L243.641 238.387
L243.715 238.618
L243.79 236.918
L243.864 238.042
L244.087 243.83
L244.162 244.81
L244.236 243.83
L244.385 227.27
L244.757 176.438
L244.831 173.99
L244.906 174.134
L245.054 189.398
L245.203 203.453
L245.278 202.157
L245.352 202.819
L245.426 202.099
L245.65 210.566
L246.022 235.421
L246.096 235.306
L246.245 234.182
L246.319 235.853
L246.468 226.723
L246.542 219.005
L246.617 219.091
L246.84 233.779
L246.914 232.944
L247.361 200.688
L247.435 201.466
L247.658 208.608
L247.882 215.981
L247.956 215.693
L248.105 212.467
L248.179 212.093
L248.477 222.058
L248.626 218.256
L248.774 223.238
L248.849 223.21
L249.146 204.23
L249.37 189.974
L249.518 196.858
L249.89 238.042
L250.039 240.461
L250.114 238.675
L250.709 197.664
L250.783 198.24
L251.006 207.398
L251.081 205.642
L251.155 206.189
L251.23 206.966
L251.453 224.16
L251.676 242.131
L251.75 240.979
L251.974 225.6
L252.197 202.445
L252.271 202.877
L252.42 210.192
L252.643 221.885
L252.792 223.67
L252.941 221.741
L253.238 196.771
L253.313 197.117
L253.759 234.24
L253.908 222.173
L254.206 177.619
L254.354 190.493
L254.652 219.005
L254.95 245.011
L255.024 241.958
L255.247 209.472
L255.322 213.59
L255.545 240.835
L255.619 239.424
L256.14 194.179
L256.289 162.816
L256.363 166.618
L256.735 244.954
L256.81 241.699
L257.033 232.598
L257.182 221.885
L257.405 181.046
L257.479 186.346
L257.777 239.251
L258 228.307
L258.149 238.79
L258.223 234.528
L258.521 186.979
L258.744 238.042
L258.818 234.154
L259.042 179.52
L259.116 180.874
L259.339 211.949
L259.562 195.043
L259.711 227.011
L259.86 247.142
L260.158 208.55
L260.381 242.074
L260.53 225.917
L260.678 209.242
L260.753 217.19
L260.902 247.286
L260.976 240.893
L261.274 164.659
L261.571 219.293
L261.646 218.198
L261.794 209.818
L262.018 239.078
L262.092 233.606
L262.315 193.315
L262.687 224.995
L262.91 208.896
L263.134 245.645
L263.431 196.483
L263.654 241.382
L263.729 238.56
L263.952 219.926
L264.101 202.906
L264.25 226.723
L264.324 224.794
L264.622 175.546
L264.77 200.515
L264.845 199.248
L264.919 202.963
L265.068 224.448
L265.217 214.57
L265.291 214.483
L265.366 220.906
L265.44 219.264
L265.514 216.528
L265.589 218.083
L265.663 215.693
L265.812 220.33
L265.961 240.374
L266.258 225.888
L266.407 203.309
L266.556 206.304
L266.63 202.992
L266.705 205.469
L266.928 221.309
L267.002 222.95
L267.077 237.782
L267.151 237.149
L267.226 233.578
L267.598 192.768
L267.97 209.414
L268.118 195.504
L268.193 192.077
L268.416 215.059
L268.639 254.602
L268.714 246.394
L268.788 244.118
L268.862 236.89
L268.937 240.922
L269.086 225.053
L269.16 223.325
L269.383 195.475
L269.458 209.213
L269.532 206.621
L269.681 204.691
L269.978 225.427
L270.053 218.573
L270.127 222.979
L270.276 204.115
L270.35 206.966
L270.574 184.618
L270.722 233.837
L270.797 231.36
L270.946 224.765
L271.02 232.541
L271.318 210.595
L271.466 206.88
L271.615 232.397
L271.764 212.928
L271.913 251.894
L271.987 248.525
L272.136 224.592
L272.285 239.078
L272.657 173.27
L272.806 196.57
L272.954 167.021
L273.029 168.115
L273.178 210.566
L273.252 204.749
L273.401 181.882
L273.624 227.904
L273.698 225.802
L273.773 228.509
L273.996 274.416
L274.07 272.026
L274.294 223.555
L274.442 243.658
L274.591 218.486
L274.666 223.21
L274.814 243.859
L275.038 210.048
L275.112 210.106
L275.261 229.459
L275.335 220.906
L275.484 178.714
L275.633 197.52
L275.856 149.222
L275.93 161.664
L276.079 185.626
L276.154 185.597
L276.302 205.526
L276.526 266.525
L276.674 236.4
L276.749 243.744
L276.898 284.698
L277.046 259.699
L277.27 227.299
L277.567 161.779
L277.716 191.875
L277.79 189.744
L277.939 168.605
L278.162 228.451
L278.237 224.419
L278.534 196.944
L278.609 194.842
L278.683 195.216
L278.832 217.478
L278.981 254.947
L279.13 230.726
L279.204 233.491
L279.353 261.658
L279.427 260.045
L279.65 249.389
L279.725 249.792
L279.799 250.858
L279.874 249.763
L279.948 250.368
L280.022 248.294
L280.097 251.261
L280.171 247.776
L280.543 141.331
L280.692 131.424
L280.766 131.827
L280.915 149.914
L281.436 250.512
L281.51 247.517
L281.585 242.275
L281.659 244.234
L281.882 263.155
L282.031 256.79
L282.254 247.056
L282.626 205.498
L282.85 194.352
L283.073 206.65
L283.147 205.843
L283.296 209.501
L283.445 218.976
L283.519 218.832
L283.891 188.419
L283.966 190.81
L284.263 225.11
L284.338 224.477
L284.412 224.707
L284.635 220.819
L284.784 226.522
L285.082 240.576
L285.156 236.314
L285.454 201.523
L285.602 205.786
L285.9 216.816
L286.049 217.507
L286.198 216.816
L286.272 217.738
L286.346 217.277
L286.57 201.264
L286.644 202.042
L287.239 237.638
L287.462 214.915
L287.611 209.414
L287.834 220.675
L287.909 218.832
L288.132 226.666
L288.43 200.342
L288.653 167.51
L288.876 177.043
L289.025 194.323
L289.322 240.605
L289.397 243.658
L289.471 242.246
L289.769 226.234
L289.843 227.875
L289.992 240.374
L290.29 267.043
L290.364 269.664
L290.438 268.426
L290.587 252.586
L290.81 201.034
L291.108 144.845
L291.182 146.4
L291.406 173.386
L291.778 218.083
L291.852 217.997
L292.001 212.438
L292.298 218.026
L292.745 239.453
L292.894 241.354
L292.968 240.835
L293.042 239.05
L293.266 227.616
L293.712 221.914
L293.786 219.811
L294.158 195.418
L294.307 197.606
L294.53 194.035
L294.679 198.614
L294.828 212.986
L295.126 248.352
L295.2 244.522
L295.721 183.984
L295.795 185.856
L295.944 200.342
L296.242 245.472
L296.316 244.147
L296.465 237.811
L296.986 204.605
L297.06 206.506
L297.358 227.962
L297.432 227.645
L297.581 225.514
L297.655 225.658
L297.73 224.246
L297.878 217.133
L297.953 217.565
L298.027 217.795
L298.102 216.787
L298.325 205.066
L298.548 189.485
L298.697 194.035
L298.92 209.27
L299.143 205.526
L299.292 212.842
L299.59 231.014
L299.738 226.291
L299.813 227.357
L300.036 246.192
L300.185 235.622
L300.334 226.061
L300.408 226.81
L300.557 231.274
L300.929 189.686
L301.003 189.888
L301.226 185.251
L301.375 203.626
L301.598 234.73
L301.822 210.998
L301.896 217.45
L302.045 239.827
L302.119 235.19
L302.342 190.954
L302.64 230.986
L302.863 198.298
L302.938 202.646
L303.161 244.349
L303.31 205.181
L303.458 175.258
L303.682 246.826
L303.756 244.925
L303.979 199.104
L304.202 245.386
L304.277 236.227
L304.5 161.261
L304.574 172.694
L304.798 257.28
L304.872 248.064
L305.021 202.157
L305.095 204.634
L305.318 266.179
L305.467 201.782
L305.616 158.41
L305.914 275.424
L305.988 255.091
L306.137 194.611
L306.211 200.026
L306.36 251.117
L306.434 244.925
L306.658 122.093
L306.732 134.102
L306.955 270.269
L307.03 265.546
L307.253 189.485
L307.476 257.194
L307.55 251.837
L307.774 169.123
L307.922 213.504
L308.071 247.315
L308.22 197.894
L308.369 169.613
L308.666 239.136
L308.89 196.886
L309.038 237.898
L309.187 285.763
L309.336 239.165
L309.485 193.258
L309.559 199.853
L309.782 229.258
L310.006 198.672
L310.08 201.955
L310.229 222.778
L310.303 222.49
L310.452 183.034
L310.601 148.79
L310.675 156.653
L310.973 212.87
L311.047 211.546
L311.122 212.467
L311.419 280.003
L311.494 270.701
L311.717 214.253
L311.791 213.936
L312.014 243.082
L312.089 241.181
L312.312 223.44
L312.386 224.966
L312.535 234.384
L312.61 231.13
L312.907 154.752
L312.982 158.554
L313.13 175.603
L313.354 197.75
L313.428 198.24
L313.502 201.61
L313.8 239.971
L313.874 239.712
L314.023 228.624
L314.47 240.202
L314.618 229.747
L314.693 224.765
L314.767 226.579
L314.99 235.651
L315.065 235.306
L315.586 201.206
L315.883 151.872
L315.958 152.938
L316.255 186.173
L316.702 258.23
L316.925 263.587
L317.148 283.632
L317.297 266.813
L318.041 155.587
L318.115 151.325
L318.19 153.686
L318.562 180.24
L318.71 189.974
L319.157 230.64
L319.38 253.622
L319.603 268.829
L319.678 271.594
L319.752 271.45
L319.901 258.23
L320.273 209.789
L320.422 207.082
L320.496 207.6
L320.57 207.254
L320.868 189.571
L321.017 201.466
L321.166 216.442
L321.24 215.952
L321.761 187.757
L321.984 173.213
L322.058 172.032
L322.207 191.616
L322.654 279.917
L322.728 278.822
L323.174 222.662
L323.323 218.458
L323.621 186.605
L323.695 190.982
L323.993 229.834
L324.067 225.226
L324.365 157.949
L324.439 158.698
L325.258 276.922
L325.406 279.542
L325.481 274.934
L325.704 220.128
L325.927 167.568
L326.002 163.565
L326.522 186.547
L326.746 200.918
L326.82 198.931
L326.894 200.054
L327.192 220.358
L327.638 266.726
L327.713 266.755
L327.862 259.786
L328.159 235.968
L328.234 234.528
L328.457 208.09
L328.754 173.443
L328.829 174.278
L329.126 183.955
L329.201 183.984
L329.35 188.794
L329.796 212.064
L330.168 246.48
L330.391 282.307
L330.466 278.851
L330.912 225.859
L331.061 231.043
L331.135 228.941
L331.284 219.523
L331.954 159.648
L332.028 158.208
L332.326 169.008
L332.474 183.581
L333.218 309.581
L333.367 282.509
L333.739 205.296
L333.814 200.832
L333.888 201.034
L334.037 203.914
L334.632 188.592
L334.781 180.989
L335.078 146.918
L335.153 150.691
L336.046 278.995
L336.269 292.963
L336.343 289.45
L336.492 264.134
L336.864 184.618
L337.31 137.27
L337.459 155.616
L337.831 255.782
L337.98 286.973
L338.054 286.8
L338.501 204.95
L338.575 213.072
L338.724 225.946
L338.873 219.322
L339.096 204.893
L339.17 205.526
L339.394 216.989
L339.542 214.656
L339.617 214.627
L339.84 209.875
L340.212 174.739
L340.286 175.92
L340.733 216.384
L341.254 266.755
L341.328 264.739
L341.774 233.088
L342.072 198.211
L342.444 152.88
L342.593 161.664
L342.816 195.475
L343.114 240.259
L343.337 230.842
L343.56 217.939
L343.783 225.053
L343.932 219.638
L344.006 216.47
L344.081 219.178
L344.527 257.251
L344.676 250.31
L345.569 140.15
L345.643 143.405
L345.866 201.235
L346.164 246.077
L346.238 248.669
L346.313 247.258
L346.462 233.376
L346.685 213.418
L346.834 230.611
L347.057 258.058
L347.206 248.813
L347.801 198.384
L348.322 156.624
L348.396 163.046
L348.842 238.157
L348.991 231.245
L349.066 231.821
L349.214 243.11
L349.363 253.133
L349.438 251.664
L349.661 228.739
L349.958 204.23
L350.33 197.808
L350.479 199.219
L350.554 197.75
L350.777 184.416
L350.851 188.39
L351 218.285
L351.223 260.246
L351.298 259.584
L351.595 233.808
L351.67 231.446
L351.744 231.562
L351.818 230.582
L351.967 220.186
L352.339 185.827
L352.414 186.374
L352.562 200.371
L352.86 242.851
L352.934 243.974
L353.009 242.362
L353.083 237.322
L353.455 180.413
L353.902 205.843
L354.125 229.661
L354.274 230.323
L354.422 234.643
L354.646 244.896
L354.72 243.946
L355.018 218.371
L355.315 194.208
L355.464 208.003
L355.687 227.472
L355.836 222.346
L356.282 194.726
L356.506 170.189
L356.58 175.056
L357.25 269.75
L357.398 278.448
L357.547 254.515
L357.919 170.189
L357.994 169.238
L358.217 180.096
L358.663 220.704
L358.738 220.042
L358.886 234.442
L359.11 256.301
L359.258 237.466
L359.556 195.907
L359.63 192.941
L359.705 193.229
L359.779 195.014
L359.928 207.974
L360.226 241.44
L360.3 239.453
L360.672 203.539
L360.746 208.637
L360.895 222.115
L360.97 218.861
L361.267 167.338
L361.342 171.514
L361.714 228.509
L361.862 217.45
L361.937 220.531
L362.16 247.891
L362.234 246.682
L362.532 205.066
L362.606 209.558
L362.83 255.466
L362.904 255.35
L363.202 242.938
L363.276 243.139
L363.425 247.286
L363.499 244.262
L363.648 209.443
L363.946 139.43
L364.169 146.602
L364.318 162.557
L364.69 259.008
L364.764 256.56
L365.062 204.202
L365.136 204.317
L365.434 228.278
L365.508 228.163
L365.582 227.04
L365.657 227.27
L365.806 237.034
L365.954 252.701
L366.029 251.894
L366.326 208.147
L366.475 231.245
L366.624 252.01
L366.698 247.056
L367.07 198.182
L367.442 184.819
L367.591 191.99
L367.889 236.112
L367.963 231.677
L368.261 175.229
L368.335 177.389
L368.856 246.019
L369.005 249.59
L369.079 248.784
L369.228 236.976
L369.674 181.162
L369.749 180.96
L369.823 187.325
L370.121 237.062
L370.195 234.586
L370.418 220.128
L370.567 233.146
L370.716 248.179
L370.79 246.854
L370.939 237.034
L371.609 173.155
L371.683 175.027
L371.981 214.944
L372.055 213.187
L372.278 195.302
L372.427 213.389
L372.725 254.89
L372.799 255.149
L373.022 242.102
L373.097 243.917
L373.171 246.595
L373.32 229.776
L373.692 177.475
L373.766 176.726
L373.841 178.944
L374.064 208.234
L374.213 225.082
L374.287 224.822
L374.436 206.045
L374.734 167.309
L374.882 183.12
L375.626 313.757
L375.701 312.778
L375.924 288.47
L376.222 203.683
L376.519 125.894
L376.594 123.101
L376.668 124.886
L376.891 159.389
L377.189 199.766
L377.486 214.339
L377.561 213.821
L377.635 211.805
L377.858 184.646
L378.007 215.174
L378.379 344.746
L378.454 343.882
L378.528 334.234
L379.198 120.682
L379.346 138.451
L379.942 261.398
L380.016 261.254
L380.165 247.92
L380.611 185.914
L380.76 190.723
L381.281 216.067
L381.355 217.219
L381.504 214.397
L381.578 214.656
L382.174 246.134
L382.322 245.213
L382.397 246.653
L382.546 253.19
L382.62 249.706
L382.843 204.432
L383.215 142.051
L383.364 132.634
L383.438 133.181
L383.587 150.547
L384.257 313.123
L384.331 312.173
L384.703 240.864
L384.778 241.642
L384.852 243.974
L384.926 242.304
L385.224 204.23
L385.373 198.787
L385.447 195.389
L385.522 196.944
L385.596 199.018
L385.67 196.829
L385.819 182.026
L386.117 129.667
L386.191 134.477
L386.414 185.798
L386.712 245.242
L387.158 278.736
L387.233 275.078
L387.828 194.122
L387.977 207.197
L388.126 224.65
L388.2 223.354
L388.498 179.088
L388.572 179.635
L388.646 181.565
L388.944 225.082
L389.167 258.576
L389.242 260.794
L389.39 242.851
L389.688 190.003
L389.837 181.968
L389.911 181.306
L389.986 183.005
L390.134 203.309
L390.358 245.386
L390.432 245.501
L390.655 232.685
L390.804 230.726
L391.548 197.808
L391.622 199.018
L391.92 211.373
L392.069 208.781
L392.515 174.307
L392.664 190.81
L393.185 293.51
L393.259 292.675
L393.408 280.723
L393.631 255.725
L394.003 199.997
L394.45 147.062
L394.598 129.437
L394.673 130.099
L394.822 155.875
L395.194 244.349
L395.491 208.867
L395.566 210.048
L395.714 235.45
L396.012 300.221
L396.086 300.451
L396.235 277.526
L396.607 181.306
L396.682 182.342
L396.905 190.262
L396.979 191.328
L397.054 190.81
L397.426 178.829
L397.5 179.952
L397.723 209.242
L398.17 275.827
L398.244 277.382
L398.393 253.68
L398.765 164.918
L398.839 164.63
L399.062 182.4
L399.36 211.603
L399.806 222.288
L399.955 242.88
L400.178 277.498
L400.253 275.77
L400.476 242.074
L400.848 192.941
L401.071 178.771
L401.443 166.358
L401.518 167.222
L401.666 190.55
L402.187 274.272
L402.262 282.278
L402.336 281.213
L402.708 223.469
L402.782 225.6
L402.931 234.787
L403.08 189.456
L403.303 107.002
L403.378 107.002
L403.675 205.584
L403.973 272.4
L404.047 271.133
L404.568 216.442
L404.717 219.062
L404.791 217.853
L404.866 220.934
L405.163 260.074
L405.238 259.872
L405.386 230.928
L405.61 184.272
L405.982 168.518
L406.056 169.757
L406.502 194.122
L406.8 291.379
L406.874 287.837
L407.246 230.179
L407.618 185.338
L407.693 186.432
L407.842 197.549
L408.288 247.488
L408.437 229.2
L408.66 179.318
L408.734 182.544
L409.032 246.221
L409.106 244.09
L409.404 213.36
L409.553 210.941
L409.702 197.635
L409.925 164.083
L410.446 207.226
L410.743 274.042
L410.818 272.832
L411.041 259.354
L411.19 263.011
L411.264 260.333
L411.562 215.722
L411.71 223.008
L411.785 217.363
L412.008 169.699
L412.082 174.422
L412.306 200.486
L412.603 144.384
L412.678 152.736
L412.975 221.856
L413.124 218.659
L413.273 241.699
L413.422 266.208
L413.496 263.242
L413.719 234.01
L413.942 266.669
L414.017 263.76
L414.24 230.035
L414.463 248.986
L414.612 217.45
L414.91 141.36
L414.984 142.944
L415.058 142.57
L415.282 119.357
L415.356 128.832
L415.579 251.693
L415.728 299.126
L415.802 297.11
L416.174 247.056
L416.472 197.347
L416.546 203.165
L416.844 266.755
L417.142 216.902
L417.29 229.488
L417.365 225.37
L417.662 149.309
L417.737 150.202
L418.034 225.226
L418.109 220.474
L418.258 203.338
L418.332 207.917
L418.555 248.957
L418.63 240.979
L419.002 156.854
L419.299 203.798
L419.522 191.558
L419.671 240.95
L419.894 311.251
L420.043 262.061
L420.192 214.483
L420.266 224.074
L420.49 279.859
L420.638 206.794
L420.787 139.517
L420.862 147.322
L421.085 248.813
L421.159 242.678
L421.382 156.538
L421.457 162.787
L421.68 249.533
L421.754 244.608
L421.978 151.786
L422.052 154.867
L422.35 279.658
L422.498 224.275
L422.647 164.285
L422.722 173.501
L422.945 275.165
L423.019 274.502
L423.317 160.166
L423.466 218.198
L423.614 285.878
L423.689 275.51
L423.986 132.835
L424.284 282.307
L424.358 269.203
L424.582 185.683
L424.656 200.17
L424.879 310.906
L424.954 294.749
L425.177 146.227
L425.251 152.074
L425.474 267.965
L425.549 256.358
L425.846 78.576
L426.218 251.866
L426.293 231.274
L426.442 200.141
L426.59 264.048
L426.739 339.446
L426.814 330.374
L427.111 156.422
L427.186 163.19
L427.409 244.838
L427.558 208.55
L427.781 164.544
L427.93 213.302
L428.078 262.32
L428.153 253.565
L428.45 159.101
L428.599 216.01
L428.822 299.962
L429.12 195.994
L429.194 207.6
L429.418 265.517
L429.566 192.451
L429.715 113.597
L429.79 116.333
L430.087 268.368
L430.162 244.349
L430.385 111.494
L430.459 116.506
L430.757 272.659
L431.054 160.397
L431.129 184.906
L431.426 355.805
L431.724 184.013
L431.798 194.582
L432.022 273.466
L432.096 254.515
L432.394 63.1392
L432.542 161.894
L432.766 289.219
L433.063 187.901
L433.138 209.645
L433.361 310.762
L433.435 293.597
L433.733 134.074
L433.956 269.03
L434.105 305.779
L434.402 138.278
L434.477 142.886
L434.774 244.09
L435.072 161.002
L435.146 172.579
L435.37 231.014
L435.444 224.736
L435.667 159.706
L435.742 162.557
L436.039 248.669
L436.114 247.344
L436.262 242.275
L436.411 269.059
L436.634 307.882
L436.783 284.496
L437.23 181.018
L437.527 142.685
L437.602 145.709
L437.825 188.016
L437.974 207.802
L438.197 196.858
L438.271 198.989
L438.569 234.067
L438.718 230.842
L438.792 231.245
L439.015 240.259
L439.164 226.406
L439.313 205.584
L439.387 207.773
L439.685 251.606
L439.759 250.886
L440.131 207.571
L440.206 210.854
L440.429 232.253
L440.503 229.258
L440.801 195.59
L440.875 196.051
L441.024 204.835
L441.098 201.869
L441.322 168.115
L441.396 168.23
L441.545 195.994
L441.768 240.403
L441.842 243.6
L442.14 213.331
L442.214 214.051
L442.363 226.608
L442.586 251.578
L442.661 250.397
L442.884 230.784
L443.107 240.778
L443.256 222.691
L443.554 179.29
L443.702 198.73
L443.777 207.686
L443.851 204.749
L444.074 164.659
L444.223 184.733
L444.446 213.763
L444.521 213.763
L444.595 213.245
L444.67 213.504
L444.818 224.448
L445.042 250.253
L445.339 218.371
L445.414 219.638
L445.637 249.389
L445.711 246.97
L446.009 219.638
L446.083 220.013
L446.158 223.728
L446.232 222.547
L446.53 197.491
L446.678 209.386
L446.902 237.581
L447.05 216.269
L447.274 194.122
L447.497 209.357
L447.794 187.325
L447.869 186.374
L447.943 188.362
L448.166 213.475
L448.39 246.221
L448.464 245.213
L448.91 218.198
L448.985 219.379
L449.282 238.474
L449.431 226.09
L449.729 200.659
L449.878 214.31
L449.878 214.31" style="fill:none;stroke:#808080;stroke-linecap:square;"/>
   </g>
  </g>
 </g>
 <defs>
  <clipPath id="p7ff5b81e1d">
   <rect height="345.6" width="446.4" x="72.0" y="43.2"/>
  </clipPath>
 </defs>
</svg>
