<?xml version="1.0" encoding="utf-8" standalone="no"?>
<!DOCTYPE svg PUBLIC "-//W3C//DTD SVG 1.1//EN"
  "http://www.w3.org/Graphics/SVG/1.1/DTD/svg11.dtd">
<!-- Created with matplotlib (http://matplotlib.org/) -->
<svg height="432pt" version="1.1" viewBox="0 0 576 432" width="576pt" xmlns="http://www.w3.org/2000/svg" xmlns:xlink="http://www.w3.org/1999/xlink">
 <defs>
  <style type="text/css">
*{stroke-linecap:butt;stroke-linejoin:round;}
  </style>
 </defs>
 <g id="figure_1">
  <g id="patch_1">
   <path d="
M0 432
L576 432
L576 0
L0 0
z
" style="fill:#ffffff;"/>
  </g>
  <g id="axes_1">
   <g id="line2d_1">
    <path clip-path="url(#p7ff5b81e1d)" d="
M72 183.253
L72.1488 187.081
L72.5208 206.391
L72.8184 250.658
L72.8928 249.885
L73.0416 219.183
L73.2648 169.347
L73.3392 164.66
L73.4136 166.259
L73.6368 211.761
L73.9344 276.25
L74.0088 279.14
L74.0832 277.935
L74.1576 277.477
L74.232 276.285
L74.4552 262.888
L74.8272 215.705
L75.1992 174.816
L75.6456 131.919
L75.72 133.336
L75.8688 143.138
L76.092 185.349
L76.6128 305.566
L76.7616 314.275
L76.836 310.49
L77.0592 269.977
L77.6544 141.864
L77.7288 142.969
L77.8776 162.457
L78.1752 209.221
L78.2496 210.681
L78.324 217.943
L78.6216 280.851
L78.7704 263.86
L79.44 162.133
L79.5144 162.31
L79.6632 168.967
L79.8864 199.229
L80.184 242.753
L80.4816 251.522
L80.556 253.635
L80.6304 253.129
L80.928 237.526
L81.1512 217.295
L81.3744 195.902
L81.5232 194.066
L81.672 193.846
L81.7464 195.19
L82.044 215.835
L82.3416 231.123
L82.416 230.799
L82.788 222.138
L83.0112 208.906
L83.2344 199.164
L83.3088 198.939
L83.4576 202.849
L83.7552 213.714
L83.8296 212.543
L84.1272 199.989
L84.2016 200.572
L84.3504 210.18
L84.648 236.973
L84.7224 237.672
L84.8712 229.49
L85.1688 209.739
L85.2432 208.223
L85.3176 208.525
L85.392 213.036
L85.6896 258.758
L85.764 255.557
L86.136 220.405
L86.2848 212.578
L86.5824 191.457
L86.7312 197.367
L86.88 203.156
L86.9544 201.117
L87.1776 188.982
L87.252 191.22
L87.6984 223.447
L87.7728 224.013
L87.8472 223.205
L88.1448 214.185
L88.2192 214.465
L88.368 218.5
L88.4424 220.941
L88.74 213.869
L88.8144 215.606
L89.1864 241.483
L89.4096 250.136
L89.5584 241.275
L90.3024 183.094
L90.3768 182.057
L90.8976 197.052
L91.344 224.928
L91.5672 220.712
L91.6416 222.224
L91.9392 235.08
L92.3112 219.762
L92.3856 220.276
L92.5344 233.076
L92.7576 255.121
L93.4272 178.501
L93.6504 154.512
L93.7992 168.686
L93.948 213.385
L94.1712 311.739
L94.2456 309.225
L94.4688 223.926
L94.692 125.957
L94.7664 125.905
L95.064 180.277
L95.1384 172.618
L95.2128 176.078
L95.5848 268.146
L95.7336 281.149
L95.808 278.077
L96.3288 199.6
L96.4776 207.113
L96.6264 214.612
L96.7752 211.148
L96.8496 211.584
L97.0728 218.172
L97.1472 217.852
L97.668 209.346
L97.7424 209.052
L97.8912 210.876
L97.9656 211.593
L98.1144 210.24
L98.1888 210.668
L98.412 217.528
L98.6352 227.292
L98.784 225.715
L99.156 212.832
L99.2304 212.301
L99.3048 212.979
L99.4536 216.276
L99.528 215.364
L99.7512 204.136
L99.9 198.572
L100.049 203.272
L100.272 209.148
L100.495 213.005
L100.644 209.834
L100.718 206.413
L100.793 207.234
L100.942 223.62
L101.165 248.58
L101.239 249.924
L101.388 247.207
L101.537 238.225
L102.058 197.233
L102.132 196.321
L102.281 200.412
L103.025 232.903
L103.099 232.212
L103.248 220.799
L103.62 183.577
L103.694 183.867
L104.066 193.915
L104.141 193.276
L104.29 194.766
L104.513 201.449
L104.736 240.243
L104.959 268.254
L105.034 270.902
L105.108 270.25
L105.331 257.441
L106.15 195.855
L106.745 183.69
L106.819 183.949
L106.968 189.28
L107.266 214.872
L107.489 229.102
L107.563 229.421
L107.638 229.192
L107.712 228.549
L107.786 228.626
L107.861 229.741
L107.935 229.577
L108.01 229.534
L108.084 229.624
L108.158 230.095
L108.382 227.598
L108.679 218.379
L109.2 183.072
L109.274 183.612
L109.423 189.708
L109.646 224.181
L110.018 282.661
L110.093 282.505
L110.242 270.202
L110.837 195.514
L111.134 183.4
L111.506 143.747
L111.655 156.215
L112.325 265.303
L112.474 268.958
L112.548 265.117
L112.92 221.036
L112.994 221.753
L113.441 241.124
L113.59 232.696
L114.11 169.762
L114.185 169.321
L114.334 172.207
L114.706 195.302
L115.078 231.62
L115.375 248.805
L115.45 248.032
L115.673 238.342
L115.97 223.192
L116.194 219.438
L116.417 226.682
L116.789 235.331
L116.863 235.927
L116.938 234.597
L117.161 219.563
L117.756 170.993
L117.83 172.717
L118.574 212.133
L118.798 223.179
L119.393 266.578
L119.467 264.75
L119.616 247.768
L120.062 189.254
L120.286 184.856
L120.509 186.55
L120.732 200.257
L121.104 223.421
L121.253 231.914
L121.327 230.367
L121.402 230.709
L121.476 230.125
L121.774 213.895
L121.997 209.268
L122.22 221.356
L122.369 245.919
L122.518 275.157
L122.964 166.574
L123.187 193.95
L123.41 221.265
L123.634 194.727
L123.782 297.556
L123.857 351.962
L123.931 327.096
L124.154 157.627
L124.229 145.233
L124.303 147.06
L124.378 162.975
L124.601 270.699
L124.824 241.556
L124.973 223.931
L125.047 228.795
L125.122 221.792
L125.345 160.755
L125.419 161.736
L125.642 175.611
L125.791 158.15
L125.866 158.647
L126.014 171.201
L126.61 299.44
L126.684 317.135
L126.982 260.223
L127.205 223.637
L127.354 225.78
L127.428 231.879
L127.502 230.134
L127.8 170.293
L128.098 157.476
L128.321 193.418
L128.618 251.579
L128.693 246.896
L128.842 249.695
L128.99 263.99
L129.065 263.791
L129.362 223.46
L129.437 225.015
L129.511 231.136
L129.586 229.007
L129.883 145.155
L130.032 187.344
L130.106 176.233
L130.255 121.236
L130.404 213.113
L130.553 302.619
L130.627 303.168
L130.85 260.759
L130.925 264.452
L130.999 260.888
L131.148 234.273
L131.297 186.684
L131.371 190.839
L131.52 203.026
L131.743 182.554
L131.892 180.121
L131.966 180.143
L132.041 176.67
L132.487 233.525
L132.562 231.378
L132.636 228.51
L133.008 245.893
L133.082 249.587
L133.157 248.818
L133.231 243.574
L133.306 244.559
L133.38 246.408
L133.752 210.37
L134.05 174.168
L134.198 182.601
L134.347 167.278
L134.422 166.989
L134.496 167.313
L134.57 167.192
L134.645 165.213
L134.794 195.708
L135.091 267.502
L135.314 303.911
L135.463 259.19
L135.761 194.123
L135.91 185.465
L135.984 186.934
L136.058 185.336
L136.133 188.157
L136.356 217.494
L136.43 220.647
L136.579 216.06
L136.802 235.426
L136.877 232.938
L137.249 184.351
L137.323 187.582
L137.621 230.786
L137.918 199.242
L138.067 196.188
L138.216 207.683
L138.514 265.074
L138.588 260.931
L138.886 224.509
L139.034 214.288
L139.109 215.338
L139.258 209.601
L139.332 211.93
L139.481 230.544
L139.63 202.253
L139.853 247.189
L139.927 242.096
L140.448 165.762
L140.522 162.522
L140.597 162.893
L140.746 182.083
L141.192 256.974
L141.415 250.391
L141.49 250.404
L141.713 242.571
L141.787 242.615
L142.01 209.243
L142.159 184.187
L142.382 274.777
L142.457 267.48
L142.68 172.384
L142.903 183.888
L143.126 151.977
L143.498 232.998
L143.573 231.028
L143.647 232.342
L143.796 242.329
L143.87 243.25
L144.019 275.33
L144.094 301.06
L144.168 288.428
L144.466 177.62
L144.689 165.369
L144.763 172.32
L145.135 241.962
L145.284 234.782
L145.582 215.131
L145.73 217.394
L146.251 178.519
L146.921 249.941
L147.144 282.307
L147.293 253.916
L147.665 144.451
L147.814 176.86
L148.111 240.027
L148.186 245.565
L148.26 243.116
L148.483 224.319
L148.632 233.923
L148.706 240.061
L148.781 237.435
L148.93 195.73
L149.153 138.135
L149.302 157.087
L149.822 300.615
L149.897 299.556
L150.046 271.161
L150.418 188.723
L150.566 182.078
L150.641 183.508
L150.79 195.375
L151.087 224.911
L151.162 221.416
L151.459 191.423
L151.534 191.362
L151.682 206.201
L151.98 233.728
L152.054 236.044
L152.129 235.474
L152.203 230.169
L152.426 193.712
L152.501 194.606
L152.798 229.214
L152.873 229.011
L153.245 195.496
L153.319 198.659
L153.766 235.629
L153.84 233.288
L154.212 195.064
L154.286 198.844
L154.51 229.629
L154.733 252.546
L154.807 253.147
L154.956 244.144
L155.328 193.816
L155.477 181.517
L155.923 221.291
L155.998 219.714
L156.072 218.336
L156.146 219.943
L156.518 250.14
L156.667 233.244
L157.114 157.614
L157.188 158.176
L157.337 165.615
L157.56 188.52
L158.081 258.227
L158.155 257.743
L158.304 243.548
L158.676 202.953
L158.75 205.588
L159.122 248.317
L159.197 248.019
L159.42 241.863
L159.569 219.477
L159.866 153.8
L159.941 160.211
L160.313 245.712
L160.387 247.475
L160.61 259.238
L160.759 244.839
L160.982 189.034
L161.206 146.914
L161.429 172.786
L161.726 223.425
L161.801 223.101
L161.95 207.817
L162.024 208.577
L162.47 274.488
L162.545 272.699
L162.694 246.831
L162.991 194.447
L163.066 194.987
L163.438 214.941
L163.512 214.422
L163.661 202.119
L163.81 188.157
L163.884 190.036
L164.405 243.461
L164.479 242.723
L164.628 232.558
L165.149 186.489
L165.223 186.8
L165.298 188.096
L165.446 201.708
L165.744 238.398
L165.818 238.752
L166.042 242.364
L166.116 241.82
L166.265 234.502
L166.711 206.512
L166.786 206.288
L166.934 206.975
L167.009 206.02
L167.158 194.822
L167.381 175.693
L167.455 176.061
L167.827 205.488
L168.422 268.487
L168.497 269.243
L168.571 266.841
L168.869 232.437
L169.39 174.048
L169.538 165.295
L169.613 166.755
L169.985 205.437
L170.58 251.777
L170.654 254.136
L170.729 253.587
L170.878 243.682
L171.398 199.039
L171.473 196.257
L171.547 196.896
L171.622 196.922
L171.696 197.89
L171.845 204.396
L172.291 231.875
L172.366 230.933
L172.961 199.052
L173.035 199.121
L173.184 202.754
L173.854 228.095
L174.151 230.868
L174.3 229.27
L174.374 229.071
L174.523 225.348
L175.267 192.507
L175.416 191.081
L175.565 194.498
L175.862 214.008
L176.309 248.006
L176.383 248.343
L176.606 239.141
L176.904 214.712
L177.276 186.956
L177.35 186.057
L177.425 186.701
L177.648 200.024
L178.243 245.734
L178.318 244.438
L178.541 224.756
L178.838 199.656
L178.913 198.46
L178.987 198.52
L179.136 198.888
L179.285 200.788
L179.434 204.288
L180.178 235.646
L180.252 235.158
L180.475 226.739
L180.996 202.482
L181.07 202.607
L181.294 207.255
L181.591 216.772
L181.814 218.155
L182.038 218.271
L182.112 218.055
L182.186 218.176
L182.261 218.889
L182.335 218.837
L182.484 217.757
L182.633 220.66
L182.93 228.359
L183.005 227.728
L183.228 215.26
L183.526 202.65
L183.674 199.855
L183.972 186.256
L184.046 186.709
L184.195 198.179
L184.716 253.834
L184.79 252.123
L185.386 215.956
L185.609 219.166
L185.683 218.176
L185.832 211.947
L186.13 186.623
L186.278 194.576
L186.799 241.478
L186.874 238.411
L187.097 206.504
L187.394 166.168
L187.469 163.356
L187.543 166.384
L187.766 204.573
L188.138 266.543
L188.213 267.766
L188.362 256.564
L188.808 206.335
L188.882 206.871
L189.106 217.593
L189.403 230.13
L189.478 229.551
L189.626 221.563
L190.147 182.376
L190.222 183.085
L190.519 190.498
L190.594 191.621
L190.742 202.763
L191.114 240.036
L191.338 240.947
L191.486 237.655
L191.561 235.106
L191.635 235.793
L191.71 239.845
L192.007 276.92
L192.156 242.334
L192.454 158.673
L192.528 158.923
L193.123 196.067
L193.198 197.246
L193.346 195.021
L193.495 191.664
L193.57 191.855
L193.718 200.348
L194.09 252.417
L194.388 290.614
L194.462 292.467
L194.611 279.836
L195.058 215.45
L195.206 210.547
L195.355 192.006
L195.802 112.518
L195.876 116.769
L196.099 167.481
L196.62 293.616
L196.769 302.205
L196.843 300.347
L197.066 265.562
L197.438 207.929
L197.81 177.65
L197.885 176.717
L198.034 178.121
L198.48 197.63
L199.075 239.064
L199.373 247.008
L199.447 246.356
L199.745 235.72
L199.819 235.94
L199.968 235.335
L200.266 216.107
L200.712 173.188
L200.861 169.524
L200.935 168.92
L201.084 172.449
L201.233 182.117
L201.828 233.387
L202.498 261.951
L202.572 261.562
L203.39 199.596
L203.762 184.96
L203.986 174.618
L204.134 183.081
L204.432 202.197
L204.655 203.648
L204.804 211.99
L205.399 270.6
L205.548 259.968
L205.846 218.379
L206.292 146.961
L206.366 148.166
L206.515 166.816
L207.036 259.972
L207.11 261.104
L207.408 243.211
L207.854 214.599
L208.375 196.81
L208.524 201.847
L208.896 223.01
L208.97 224.825
L209.045 224.306
L209.194 221.235
L209.491 212.625
L209.64 215.675
L210.161 239.042
L210.235 236.515
L210.384 213.705
L210.682 160.051
L210.756 162.271
L210.905 186.623
L211.277 255.38
L211.351 253.017
L211.798 201.657
L211.872 202.784
L212.244 217.671
L212.318 217.438
L212.467 220.881
L213.062 247.781
L213.211 251.367
L213.36 236.225
L213.881 145.764
L214.03 161.61
L214.774 259.363
L214.848 260.737
L214.922 259.752
L215.071 249.695
L215.518 212.807
L216.187 192.952
L216.41 189.898
L216.634 195.414
L216.857 208.361
L217.378 244.917
L217.452 244.347
L217.601 239.197
L218.196 210.422
L218.345 211.346
L218.791 219.209
L218.94 214.461
L219.238 203.968
L219.535 196.995
L219.61 197.147
L219.758 202.685
L220.056 224.946
L220.354 247.004
L220.428 247.807
L220.577 244.118
L220.8 228.108
L221.246 186.407
L221.321 185.845
L221.395 185.966
L221.618 195.604
L222.214 223.11
L222.586 234.398
L222.66 234.1
L222.809 231.771
L223.032 221.36
L223.255 209.826
L223.478 205.013
L223.776 195.781
L223.85 196.352
L223.999 203.406
L224.52 246.563
L224.594 245.232
L224.743 234.592
L225.041 209.273
L225.338 198.205
L225.487 195.509
L225.636 197.561
L225.859 205.316
L226.454 238.597
L226.529 238.74
L226.826 227.222
L227.422 203.735
L227.57 203.735
L227.645 203.419
L227.719 203.648
L228.017 207.251
L228.24 212.159
L228.463 221.032
L228.612 223.628
L228.761 217.118
L229.133 199.825
L229.282 202.832
L230.026 241.543
L230.1 241.703
L230.398 236.692
L230.993 202.058
L231.067 201.894
L231.216 200.002
L231.514 193.924
L231.588 193.678
L231.811 206.136
L232.183 228.57
L232.406 233.88
L232.555 236.117
L232.704 232.039
L233.299 209.636
L233.597 204.776
L233.746 203.76
L233.894 206.214
L234.266 218.634
L234.341 218.893
L234.564 215.187
L234.862 218.829
L235.01 216.254
L235.159 212.159
L235.234 212.193
L235.754 221.097
L235.903 224.077
L235.978 223.645
L236.201 219.269
L236.647 221.213
L236.722 221.136
L236.87 217.563
L237.242 205.704
L237.391 206.249
L237.54 203.769
L237.763 194.814
L237.838 194.9
L237.986 202.287
L238.582 246.926
L238.656 244.641
L239.474 185.383
L239.549 186.036
L239.772 210.595
L239.995 229.987
L240.293 224.998
L240.442 231.218
L240.59 238.156
L240.665 236.51
L241.483 191.073
L241.632 188.761
L241.781 193.626
L242.078 218.772
L242.376 239.02
L242.599 232.562
L242.748 229.879
L242.897 233.586
L242.971 233.499
L243.12 223.827
L243.641 170.773
L243.715 172.76
L243.938 194.269
L244.385 240.537
L244.608 248.589
L244.831 252.011
L245.054 255.017
L245.203 249.881
L245.426 231.862
L245.947 187.431
L246.17 179.102
L246.245 178.558
L246.319 178.657
L246.394 179.149
L246.542 183.05
L246.84 201.104
L247.286 228.091
L247.435 229.413
L247.584 227.905
L248.105 215.118
L248.179 214.509
L248.254 215.027
L248.402 220.315
L248.774 237.582
L249.221 243.215
L249.37 239.392
L249.593 224.22
L250.262 179.478
L250.337 179.508
L250.486 185.137
L250.783 197.76
L250.932 203.061
L251.602 241.958
L251.676 242.731
L251.75 242.338
L251.899 238.666
L252.122 224.695
L252.643 193.367
L252.792 188.576
L252.866 188.774
L253.015 194.105
L253.61 241.461
L253.982 228.704
L254.057 228.454
L254.131 227.771
L254.28 220.989
L254.578 204.586
L254.652 203.925
L254.726 204.11
L254.801 205.717
L255.247 233.089
L255.322 232.268
L255.47 222.06
L255.991 172.842
L256.066 172.484
L256.214 180.821
L257.107 260.167
L257.182 259.385
L257.777 237.003
L258.074 196.27
L258.446 145.536
L258.521 145.069
L258.67 159.835
L259.116 239.461
L259.19 241.582
L259.265 240.588
L259.562 230.415
L259.637 231.745
L259.934 242.792
L260.009 242.766
L260.306 239.388
L261.199 201.203
L261.571 190.978
L261.794 196.771
L262.092 205.346
L262.315 200.875
L262.39 201.881
L262.836 222.954
L263.134 236.411
L263.282 238.217
L263.357 237.547
L263.58 228.315
L263.729 223.931
L264.026 223.987
L264.25 226.968
L264.324 226.708
L264.473 224.583
L264.696 215.312
L265.068 199.138
L265.142 199.358
L265.217 199.307
L265.366 198.564
L265.44 198.68
L265.738 204.132
L266.407 222.617
L266.854 238.752
L266.928 240.061
L267.002 238.761
L267.821 198.33
L267.97 200.469
L268.267 211.67
L268.49 216.409
L268.565 216.526
L268.714 218.328
L268.862 223.136
L268.937 222.66
L269.086 221.948
L269.16 222.125
L269.234 221.265
L269.606 209.731
L269.681 210.603
L269.978 217.317
L270.276 221.256
L270.425 222.773
L270.574 221.507
L270.797 223.127
L271.169 216.811
L271.541 210.526
L271.764 204.357
L271.838 203.773
L271.987 206.573
L272.806 231.983
L273.029 229.486
L273.178 230.795
L273.252 229.153
L273.326 222.704
L273.698 143.345
L273.773 147.575
L273.996 196.092
L274.368 271.006
L274.442 273.338
L274.591 265.554
L275.112 222.194
L276.154 191.82
L276.377 193.444
L276.526 186.727
L276.898 163.511
L277.046 181.919
L277.567 316.301
L277.642 314.784
L277.79 294.334
L278.46 161.282
L278.609 157.545
L278.758 167.282
L278.981 201.052
L279.278 234.083
L279.353 232.208
L279.799 209.156
L279.874 210.461
L280.32 234.839
L280.394 232.519
L280.766 201.838
L280.841 202.007
L281.064 227.071
L281.287 244.908
L281.362 241.159
L281.659 187.889
L281.882 168.453
L281.957 171.093
L282.106 189.885
L282.552 261.519
L282.701 248.52
L282.924 224.881
L282.998 224.674
L283.073 225.538
L283.147 223.477
L283.445 189.34
L283.668 173.711
L283.817 185.223
L284.263 239.88
L284.635 252.9
L284.71 252.378
L284.784 249.302
L285.379 183.953
L285.528 180.532
L285.602 181.206
L285.677 183.271
L285.9 207.247
L286.198 242.554
L286.495 201.812
L286.718 186.031
L286.867 192.675
L287.09 224.851
L287.388 266.098
L287.462 265.502
L288.058 212.089
L288.132 211.165
L288.355 199.622
L288.504 193.807
L288.653 200.309
L289.025 233.594
L289.174 249.604
L289.322 246.455
L289.471 249.851
L289.62 217.351
L289.843 170.531
L289.918 167.498
L290.066 180.985
L290.29 200.819
L290.438 186.973
L290.587 173.205
L290.662 174.488
L290.81 206.594
L291.034 272.863
L291.108 273.235
L291.629 213.269
L291.926 204.244
L292.001 206.037
L292.15 222.972
L292.447 271.196
L292.522 271.127
L292.745 245.552
L293.34 161.001
L293.563 121.499
L293.638 126.463
L293.861 192.433
L294.233 293.076
L294.456 263.035
L294.679 206.577
L294.902 167.93
L295.051 189.781
L295.274 222.142
L295.423 208.478
L295.572 192.619
L295.646 193.185
L296.018 225.127
L296.465 285.214
L296.614 268.725
L296.911 185.383
L297.209 112.6
L297.73 232.726
L297.804 231.897
L297.878 231.141
L298.027 233.992
L298.176 231.875
L298.325 246.926
L298.548 262.824
L298.622 255.03
L298.846 205.7
L298.92 212.919
L299.143 279.451
L299.292 240.429
L299.59 134.697
L299.664 124.679
L299.738 125.046
L299.813 133.314
L300.11 243.038
L300.408 173.901
L300.929 242.787
L301.078 247.492
L301.375 226.916
L301.598 241.219
L301.673 238.342
L302.045 208.599
L302.119 211.122
L302.268 238.303
L302.417 264.353
L302.491 257.316
L302.789 196.749
L302.938 200.516
L303.012 199.112
L303.086 199.445
L303.235 236.195
L303.31 255.868
L303.384 253.609
L303.905 146.987
L304.128 160.681
L304.5 223.874
L304.574 224.125
L304.649 223.179
L304.723 229.728
L305.021 288.031
L305.318 235.824
L305.393 244.07
L305.542 256.858
L305.839 199.367
L306.137 153.696
L306.211 152.374
L306.286 154.426
L307.253 258.823
L307.476 292.485
L307.625 278.337
L307.997 229.724
L308.071 227.624
L308.22 186.463
L308.369 128.614
L308.443 133.146
L308.89 254.071
L308.964 256.525
L309.038 256.063
L309.187 218.073
L309.41 138.84
L309.485 139.479
L310.08 241.867
L310.303 222.907
L310.526 240.126
L310.675 226.147
L310.75 226.199
L310.898 252.136
L311.047 281.421
L311.196 240.446
L311.345 201.704
L311.494 232.031
L311.717 275.524
L311.791 277.278
L311.866 270.638
L312.238 91.069
L312.312 98.2229
L312.907 234.208
L313.13 212.141
L313.205 214.236
L313.428 233.988
L313.8 277.153
L313.874 274.233
L314.023 256.745
L314.544 164.617
L314.618 164.423
L314.916 241.984
L314.99 231.702
L315.214 201.769
L315.288 202.24
L315.66 224.38
L315.734 223.473
L315.809 220.902
L315.883 221.235
L316.106 240.718
L316.181 238.934
L316.553 213.156
L316.776 186.792
L316.925 181.871
L316.999 179.927
L317.074 181.132
L317.297 187.962
L317.52 180.683
L317.594 181.348
L317.966 290.385
L318.041 288.756
L318.338 244.489
L318.71 158.089
L318.785 163.027
L318.934 190.649
L319.231 259.264
L319.306 254.533
L319.678 207.657
L319.826 208.512
L319.901 208.055
L320.05 204.262
L320.124 205.376
L320.347 215.308
L320.794 185.573
L320.942 199.397
L321.314 268.889
L321.463 251.03
L321.761 204.257
L321.91 201.238
L322.058 196.088
L322.133 197.985
L322.43 216.85
L322.728 245.643
L322.877 217.969
L323.174 164.34
L323.249 166.604
L323.472 194.809
L323.844 237.785
L324.142 249.012
L324.365 256.957
L324.514 247.427
L324.662 239.206
L324.737 238.256
L324.886 216.854
L325.183 165.611
L325.332 181.685
L325.704 229.922
L325.778 232.121
L325.927 224.09
L326.15 215.489
L326.225 213.005
L326.374 194.455
L326.671 143.09
L326.82 166.094
L327.118 229.287
L327.415 326.112
L327.564 309.251
L328.234 184.765
L328.531 134.766
L328.606 135.911
L328.829 176.013
L329.126 216.612
L329.201 218.444
L329.647 209.044
L329.722 211.113
L329.87 228.315
L330.168 264.474
L330.242 264.888
L330.391 257.32
L331.061 195.734
L331.135 196.386
L331.284 205.808
L331.582 232.575
L331.656 233.085
L331.805 220.332
L332.177 167.352
L332.251 164.427
L332.4 167.857
L332.698 207.467
L333.07 259.778
L333.144 262.258
L333.218 262.029
L333.516 248.36
L333.962 212.461
L334.26 192.209
L334.632 189.107
L334.855 194.684
L335.153 211.683
L335.525 235.655
L335.674 237.431
L335.897 234.13
L336.343 212.984
L336.418 214.284
L336.79 220.535
L336.938 214.025
L337.087 198.948
L337.385 157.083
L337.459 160.794
L337.682 224.79
L337.98 295.232
L338.054 294.822
L338.203 274.786
L338.426 204.823
L338.724 113.425
L338.798 116.864
L339.022 186.187
L339.394 267.593
L339.542 283.309
L339.617 282.985
L339.691 280.985
L340.212 238.23
L340.733 110.66
L340.807 118.423
L341.03 185.388
L341.254 241.72
L341.7 279.888
L341.849 262.24
L342.518 156.318
L342.667 107.74
L342.816 158.707
L343.039 281.222
L343.114 278.73
L343.262 241.759
L343.486 175.512
L343.56 179.296
L343.634 192.144
L343.858 303.648
L343.932 296.126
L344.155 227.685
L344.23 235.392
L344.304 233.676
L344.527 186.882
L344.825 122.523
L344.899 124.488
L345.048 156.5
L345.569 291.435
L345.643 292.679
L346.015 277.278
L346.164 257.199
L346.759 130.588
L346.908 142.036
L347.206 196.853
L347.652 287.007
L347.875 261.566
L348.322 190.718
L348.545 165.373
L348.619 164.496
L348.768 170.509
L349.289 228.626
L349.363 228.147
L349.512 221.464
L349.81 211.027
L349.884 208.392
L349.958 209.506
L350.33 247.539
L350.554 281.875
L350.628 280.583
L350.777 260.854
L351.298 154.456
L351.372 150.819
L351.446 151.7
L351.67 165.209
L352.042 216.094
L352.414 313.545
L352.488 312.123
L352.637 286.596
L353.009 206.616
L353.158 189.06
L353.306 171.373
L353.53 199.008
L353.827 158.176
L353.976 170.358
L354.05 167.123
L354.125 170.371
L354.422 251.734
L354.497 245.172
L354.72 211.688
L354.794 207.519
L355.018 185.893
L355.166 209.761
L355.538 302.447
L355.687 263.886
L355.91 219.356
L355.985 223.261
L356.208 198.754
L356.282 200.922
L356.431 207.558
L356.58 197.285
L356.654 202.365
L356.878 241.344
L357.101 219.01
L357.696 168.773
L357.77 167.727
L357.845 171.378
L358.514 242.329
L358.738 261.389
L358.886 258.141
L359.035 248.274
L359.333 225.512
L359.556 221.161
L359.705 217.023
L359.779 217.714
L359.854 217.96
L360.002 194.801
L360.226 165.477
L360.3 161.247
L360.374 163.062
L360.598 210.534
L360.895 296.139
L360.97 294.999
L361.342 206.072
L361.416 207.813
L361.565 212.932
L361.714 177.771
L361.937 113.352
L362.011 110.608
L362.234 143.388
L362.383 194.494
L362.755 357.501
L362.83 355.842
L363.127 245.142
L363.425 181.171
L363.722 149.7
L363.871 163.705
L364.615 259.834
L364.69 260.033
L364.838 258.711
L364.913 258.789
L364.987 260.115
L365.062 257.475
L365.285 218.099
L365.582 186.26
L366.103 160.5
L366.178 159.446
L366.326 170.393
L366.698 243.595
L366.996 285.469
L367.07 283.555
L367.294 255.492
L367.666 217.567
L368.261 177.711
L368.484 159.295
L368.558 161.839
L368.782 204.443
L369.079 266.059
L369.154 270.677
L369.228 270.293
L369.377 248.481
L369.6 228.432
L369.898 206.283
L370.046 204.573
L370.27 189.785
L370.418 180.368
L370.493 181.478
L370.79 204.3
L370.939 198.784
L371.609 276.868
L371.683 277.952
L371.832 252.265
L372.204 181.024
L372.427 161.36
L372.502 160.543
L372.799 172.095
L372.874 173.991
L373.618 250.473
L373.692 250.607
L373.99 269.312
L374.064 266.496
L374.213 250.728
L374.585 164.712
L374.659 167.615
L375.031 205.834
L375.18 198.313
L375.254 201.134
L375.552 253.497
L375.775 246.451
L376.147 191.172
L376.222 191.392
L376.519 208.932
L376.594 208.914
L376.817 176.942
L376.966 221.451
L377.263 335.957
L377.486 294.576
L377.71 178.031
L377.933 115.002
L378.082 90.624
L378.23 115.68
L378.454 165.278
L378.751 254.184
L378.826 252.71
L378.974 245.353
L379.049 247.669
L379.421 278.829
L379.57 273.922
L379.718 246.338
L380.016 191.064
L380.314 225.559
L380.462 198.287
L380.686 155.904
L380.76 157.541
L380.983 207.337
L381.206 240.472
L381.355 240.869
L381.504 243.427
L381.578 243.366
L381.802 239.094
L382.248 207.372
L382.546 187.971
L382.62 187.077
L382.694 188.135
L382.843 196.641
L383.364 234.821
L383.438 236.739
L383.513 236.329
L383.662 228.924
L384.034 202.456
L384.257 198.144
L384.331 198.283
L384.48 204.421
L384.703 227.836
L384.778 226.505
L384.926 205.29
L385.224 167.209
L385.298 169.08
L385.447 194.481
L385.968 306.684
L386.042 315.618
L386.117 314.594
L386.266 299.414
L387.307 96.0974
L387.382 98.0501
L387.53 143.263
L387.828 252.313
L387.977 261.108
L388.051 259.882
L388.423 242.442
L388.498 242.485
L388.721 249.976
L389.018 264.806
L389.093 263.804
L389.242 251.419
L389.837 191.375
L390.06 176.929
L390.134 176.825
L390.209 178.247
L390.432 198.456
L390.655 213.429
L390.804 204.884
L391.102 181.625
L391.176 181.919
L391.325 190.74
L392.218 257.786
L392.292 258.136
L392.441 256.106
L392.59 250.347
L393.11 218.397
L393.334 217.044
L393.78 205.26
L394.152 189.297
L394.226 188.744
L394.45 180.195
L394.822 162.405
L395.268 199.609
L395.491 241.776
L395.789 348.679
L395.863 349.293
L396.012 324.569
L396.458 190.727
L396.533 190.222
L396.607 186.865
L396.979 134.239
L397.054 134.882
L397.277 166.665
L397.723 231.534
L397.798 231.162
L397.946 217.718
L398.17 202.382
L398.318 212.232
L398.988 280.121
L399.137 273.308
L399.36 241.988
L399.881 159.921
L399.955 161.243
L400.178 178.601
L400.55 207.808
L400.699 210.888
L400.922 209.947
L400.997 210.085
L401.146 212.82
L401.294 214.759
L401.443 215.813
L401.518 217.809
L401.741 239.124
L401.964 256.741
L402.038 258.054
L402.113 257.061
L402.262 247.008
L402.634 188.437
L402.708 193.043
L403.006 249.907
L403.303 191.518
L403.378 196.08
L403.452 199.38
L403.601 184.891
L403.824 160.496
L404.196 246.654
L404.27 243.928
L404.642 221.136
L404.94 184.165
L405.014 184.152
L405.163 189.396
L405.312 202.421
L406.056 306.188
L406.13 298.472
L406.651 143.164
L406.8 128.139
L406.874 129.029
L407.023 145.76
L407.544 230.056
L408.065 262.642
L408.139 262.093
L408.288 257.151
L408.809 206.391
L409.255 184.921
L409.33 186.316
L409.478 190.433
L410.148 223.188
L410.297 220.488
L410.52 214.44
L410.669 217.101
L411.19 237.556
L411.264 236.122
L411.413 234.458
L411.71 223.861
L412.38 189.012
L412.529 193.272
L412.826 217.636
L413.05 232.048
L413.124 231.905
L413.347 224.043
L413.794 204.361
L414.017 203.229
L414.166 206.227
L415.133 238.139
L415.356 247.423
L415.43 246.844
L415.579 236.014
L416.1 166.976
L416.174 170.414
L416.472 205.506
L416.918 256.572
L417.067 247.621
L417.514 209.852
L417.588 209.908
L417.662 210.435
L417.811 207.121
L418.258 184.994
L418.332 185.12
L418.481 190.921
L418.853 207.744
L419.002 213.874
L419.746 261.204
L419.894 263.139
L419.969 262.093
L420.118 246.87
L420.638 169.529
L420.713 169.27
L420.862 174.415
L421.234 204.642
L421.457 218.081
L421.68 221.602
L421.829 229.771
L422.052 248.546
L422.126 248.481
L422.275 236.454
L422.647 200.952
L422.87 195.241
L422.945 195.401
L423.094 197.237
L423.317 210.046
L423.614 228.505
L423.838 232.316
L423.986 228.16
L424.284 219.753
L424.656 216.954
L424.73 217.273
L425.102 230.134
L425.177 229.149
L425.4 215.079
L425.698 184.342
L425.772 184.964
L425.921 198.088
L426.218 241.504
L426.293 241.293
L426.442 228.691
L426.888 184.722
L427.037 191.963
L427.632 224.388
L427.855 226.76
L427.93 226.773
L428.078 228.691
L428.302 238.692
L428.599 251.535
L428.748 243.768
L429.418 190.33
L429.492 189.876
L429.864 200.685
L429.938 201.056
L430.013 200.348
L430.31 185.046
L430.459 197.341
L430.757 226.199
L430.906 229.564
L430.98 228.052
L431.203 213.1
L431.278 215.528
L431.724 253.095
L431.798 254.348
L431.947 245.595
L432.245 226.73
L432.542 203.691
L432.766 183.672
L432.84 184.174
L433.138 202.603
L433.212 201.428
L433.286 199.341
L433.361 200.62
L433.658 218.094
L433.882 211.765
L434.03 217.403
L434.328 227.827
L434.477 228.92
L434.626 224.868
L434.998 207.864
L435.37 222.997
L435.518 223.883
L435.965 206.24
L436.114 190.978
L436.188 193.695
L436.337 219.144
L436.56 251.829
L436.932 198.322
L437.006 200.788
L437.081 197.985
L437.304 168.738
L437.453 202.395
L437.75 293.634
L437.825 293.012
L438.42 187.582
L438.494 187.954
L438.569 189.474
L438.718 185.642
L438.792 188.321
L439.238 230.212
L439.313 230.013
L439.61 218.764
L439.685 220.302
L440.057 256.538
L440.131 257.359
L440.429 214.176
L440.726 141.596
L440.95 155.718
L441.396 248.062
L441.47 250.827
L441.619 217.675
L441.694 220.116
L441.768 224.229
L441.991 188.567
L442.363 270.751
L442.438 276.354
L442.512 272.855
L442.735 238.087
L442.958 260.223
L443.033 259.605
L443.405 156.426
L443.702 76.8389
L444 162.189
L444.298 265.614
L444.521 327.762
L444.818 268.185
L445.116 306.421
L445.19 297.738
L445.86 105.321
L445.934 104.958
L446.306 168.954
L446.455 188.04
L446.604 171.991
L446.827 193.107
L447.348 278.021
L447.422 282.039
L447.497 280.583
L447.72 257.769
L447.794 261.679
L448.018 280.311
L448.092 279.697
L448.315 242.809
L448.613 198.974
L448.91 173.054
L449.208 138.701
L449.357 126.739
L449.431 131.508
L449.878 203.277
L449.878 203.277" style="fill:none;stroke:#808080;stroke-linecap:square;"/>
   </g>
  </g>
 </g>
 <defs>
  <clipPath id="p7ff5b81e1d">
   <rect height="345.6" width="446.4" x="72.0" y="43.2"/>
  </clipPath>
 </defs>
</svg>
