<?xml version="1.0" encoding="utf-8" standalone="no"?>
<!DOCTYPE svg PUBLIC "-//W3C//DTD SVG 1.1//EN"
  "http://www.w3.org/Graphics/SVG/1.1/DTD/svg11.dtd">
<!-- Created with matplotlib (http://matplotlib.org/) -->
<svg height="432pt" version="1.1" viewBox="0 0 576 432" width="576pt" xmlns="http://www.w3.org/2000/svg" xmlns:xlink="http://www.w3.org/1999/xlink">
 <defs>
  <style type="text/css">
*{stroke-linecap:butt;stroke-linejoin:round;}
  </style>
 </defs>
 <g id="figure_1">
  <g id="patch_1">
   <path d="
M0 432
L576 432
L576 0
L0 0
z
" style="fill:#ffffff;"/>
  </g>
  <g id="axes_1">
   <g id="line2d_1">
    <path clip-path="url(#p7ff5b81e1d)" d="
M72 267.467
L72.0744 272.997
L72.2232 277.863
L72.744 291.452
L72.8928 279.909
L73.7112 181.012
L73.9344 166.953
L74.0088 168.335
L74.1576 177.735
L74.6784 262.629
L75.1992 341.439
L75.348 352.595
L75.4224 351.171
L75.6456 330.657
L75.8688 280.323
L76.1664 210.927
L76.2408 206.655
L76.7616 220.811
L76.9848 223.659
L77.208 214.065
L77.3568 217.949
L77.4312 221.668
L77.7288 257.5
L77.8776 262.781
L78.324 249.081
L78.3984 249.772
L78.4728 248.362
L78.6216 240.635
L78.696 242.141
L78.8448 247.408
L78.9936 243.98
L79.1424 250.021
L79.2912 246.04
L79.44 255.316
L79.812 290.76
L79.9608 287.18
L80.0352 286.917
L80.7048 225.94
L80.928 235.934
L81.0024 236.087
L81.3 219.429
L81.3744 220.465
L81.8208 256.435
L81.9696 258.938
L82.2672 275.748
L82.3416 274.78
L82.416 272.775
L82.4904 273.245
L82.6392 274.407
L82.788 270.729
L83.0112 254.03
L83.3832 216.968
L83.8296 243.731
L84.2016 281.346
L84.276 282.604
L84.4248 274.96
L84.7224 249.593
L84.9456 224.917
L85.02 227.184
L85.2432 245.653
L85.3176 245.404
L85.4664 236.1
L85.5408 231.262
L85.6152 231.87
L86.0616 251.514
L86.3592 231.621
L86.508 247.298
L86.7312 269.983
L86.8056 271.241
L87.1032 285.964
L87.624 242.321
L87.6984 245.044
L87.8472 249.897
L88.1448 236.377
L88.2192 236.971
L88.4424 245.21
L88.5168 242.28
L88.5912 242.86
L88.8144 250.685
L88.8888 250.076
L88.9632 250.228
L89.1864 256.076
L89.4096 266.665
L89.484 266.154
L89.6328 259.062
L89.7072 259.09
L89.7816 257.445
L90.0792 238.492
L90.1536 238.243
L90.4512 228.414
L90.5256 228.442
L90.6744 243.565
L90.8976 259.38
L91.0464 253.698
L91.344 236.004
L91.4184 237.234
L91.6416 249.911
L91.8648 265.698
L91.9392 265.518
L92.0136 267.301
L92.1624 274.725
L92.3856 267.343
L92.46 268.518
L92.6088 255.122
L92.7576 242.224
L92.832 242.708
L93.0552 249.164
L93.1296 248.915
L93.204 249.123
L93.3528 246.966
L93.576 253.408
L93.6504 251.569
L94.0224 238.685
L94.2456 255.468
L94.32 254.472
L94.3944 254.514
L94.6176 272.692
L95.1384 212.212
L95.2128 216.318
L95.3616 227.419
L95.7336 268.656
L95.9568 256.048
L96.1056 257.375
L96.2544 256.228
L96.3288 256.297
L96.4032 256.159
L96.552 252.979
L96.7008 257.528
L96.8496 251.058
L97.0728 260.209
L97.1472 259.961
L97.296 257.79
L97.3704 257.721
L97.5192 243.234
L97.668 229.05
L97.8168 237.745
L97.9656 250.159
L98.1144 242.777
L98.1888 245.141
L98.3376 258.716
L98.412 255.274
L98.4864 255.468
L98.7096 277.863
L98.784 277.365
L98.9328 262.269
L99.156 228.953
L99.2304 226.52
L99.4536 229.852
L99.6024 226.244
L99.6768 228.732
L100.049 269.444
L100.123 268.158
L100.346 265.587
L100.421 266.679
L100.644 285.853
L100.718 284.761
L100.793 280.24
L101.165 223.631
L101.314 220.217
L101.388 218.129
L101.686 234.967
L101.909 241.201
L102.206 254.224
L102.281 253.809
L102.355 253.035
L102.504 246.69
L102.802 254.154
L102.876 253.505
L103.025 248.376
L103.099 245.1
L103.471 269.057
L103.62 261.868
L103.769 254.224
L104.066 264.232
L104.141 263.762
L104.215 261.619
L104.29 262.49
L104.438 260.97
L104.513 261.136
L104.662 270.619
L104.81 283.254
L104.885 282.148
L105.034 265.974
L105.48 208.3
L105.554 205.881
L105.778 217.438
L106.001 221.005
L106.15 220.493
L106.67 256.311
L106.894 261.993
L107.117 255.924
L107.191 256.67
L107.414 280.337
L107.489 280.074
L107.563 277.406
L107.638 278.125
L107.712 279.784
L107.861 271.531
L108.01 265.946
L108.233 271.006
L108.307 270.895
L108.456 263.486
L109.2 211.95
L109.498 232.326
L109.721 262.794
L109.795 259.698
L110.093 239.114
L110.316 236.045
L110.465 240.51
L110.911 288.134
L110.986 288.645
L111.283 271.448
L111.358 272.402
L111.432 272.554
L111.655 250.477
L111.953 223.382
L112.027 223.203
L112.102 222.18
L112.25 223.783
L112.325 223.299
L112.399 222.76
L112.548 212.696
L112.697 220.839
L112.994 254.97
L113.292 284.083
L113.515 280.227
L113.962 255.15
L114.185 235.064
L114.259 236.142
L114.408 232.824
L114.482 233.059
L114.557 235.534
L115.078 290.111
L115.152 287.567
L115.747 219.014
L116.119 245.307
L116.194 244.284
L116.566 214.867
L116.64 215.143
L116.714 217.327
L117.384 291.59
L117.533 282.273
L117.756 255.537
L118.054 223.023
L118.128 221.737
L118.202 221.917
L118.351 241.008
L118.574 269.347
L118.649 268.822
L118.872 281.968
L118.946 281.222
L119.17 265.463
L119.616 205.688
L119.69 209.074
L120.137 259.408
L120.211 254.956
L120.509 221.488
L120.658 238.271
L120.955 281.982
L121.178 296.373
L121.253 294.479
L121.476 268.573
L121.625 258.689
L121.699 257.14
L122.22 222.65
L122.294 223.161
L122.592 241.188
L122.666 240.427
L122.741 240.648
L122.89 247.685
L123.41 266.651
L123.485 268.144
L123.559 267.025
L123.708 250.27
L123.931 224.958
L124.08 221.71
L124.154 221.364
L124.229 224.723
L124.526 258.772
L124.601 259.574
L124.675 259.076
L124.824 264.094
L124.898 263.306
L125.047 259.85
L125.27 266.057
L125.345 264.744
L125.494 263.596
L125.717 275.54
L126.014 259.974
L126.089 260.044
L126.163 260.265
L126.312 248.21
L126.684 211.701
L126.758 210.484
L126.833 211.452
L126.982 226.99
L127.205 256.864
L127.428 271.6
L127.502 270.992
L127.726 256.85
L128.023 239.155
L128.172 237.635
L128.246 238.616
L128.47 248.5
L128.693 258.965
L128.767 259.062
L128.842 257.984
L128.916 258.73
L129.065 262.449
L129.437 250.021
L129.586 257.375
L129.66 254.956
L129.809 247.284
L129.883 247.104
L129.958 248.279
L130.106 251.943
L130.181 251.818
L130.404 247.187
L130.478 248.307
L130.702 260.596
L130.776 258.357
L131.148 236.681
L131.222 238.312
L131.52 250.242
L131.594 249.04
L131.743 244.381
L131.818 247.007
L132.041 263.693
L132.264 270.647
L132.338 268.946
L132.71 228.442
L132.934 239.888
L133.008 240.552
L133.082 238.685
L133.157 239.404
L133.231 238.506
L133.306 239.39
L133.826 265.78
L133.901 267.011
L134.124 249.123
L134.273 250.408
L134.347 251.376
L134.496 264.647
L134.57 263.762
L134.645 264.26
L134.719 263.748
L135.017 234.842
L135.091 235.091
L135.314 244.16
L135.389 244.602
L135.463 242.266
L135.761 223.189
L135.835 222.359
L135.984 240.524
L136.282 287.332
L136.356 291.355
L136.43 290.429
L137.026 245.625
L137.174 240.87
L137.249 241.271
L137.695 227.82
L137.77 227.585
L137.918 225.096
L138.365 256.684
L138.737 310.764
L138.811 309.368
L139.183 256.864
L139.406 228.456
L139.63 215.143
L139.704 216.138
L139.778 218.544
L139.853 218.212
L139.927 219.166
L140.076 230.916
L140.299 252.827
L140.522 255.869
L140.597 256.242
L140.82 242.943
L140.894 244.187
L141.415 272.167
L141.49 272.14
L142.085 242.376
L142.159 244.022
L142.457 253.629
L142.68 262.421
L142.754 261.011
L143.275 228.483
L143.424 228.815
L143.498 228.013
L143.722 242.418
L143.796 239.695
L143.87 239.556
L144.168 267.633
L144.242 266.333
L144.317 260.085
L144.391 260.348
L144.466 261.384
L144.54 258.868
L144.689 270.564
L144.763 270.19
L145.061 259.961
L145.21 259.878
L145.284 260.928
L145.507 269.72
L145.73 243.482
L146.028 215.793
L146.102 216.235
L146.177 218.06
L146.623 253.781
L146.698 253.187
L146.846 242.943
L147.07 249.717
L147.293 275.817
L147.442 271.808
L147.739 258.896
L147.888 268.034
L148.037 254.652
L148.26 233.377
L148.334 232.783
L148.632 244.906
L148.855 234.538
L149.227 247.021
L149.525 278.222
L149.599 277.434
L149.674 276.618
L149.822 268.393
L150.269 221.502
L150.343 221.558
L150.492 228.58
L150.864 263.182
L150.938 264.412
L151.013 263.5
L151.087 264.522
L151.236 272.9
L151.31 271.172
L151.459 266.679
L151.534 267.716
L151.98 254.127
L152.352 210.236
L152.426 209.724
L152.501 210.415
L152.65 213.014
L152.724 213.553
L152.873 224.267
L153.245 278.194
L153.394 272.527
L153.542 265.449
L153.617 266.347
L154.138 299.525
L154.286 291.175
L154.435 270.909
L154.882 206.116
L155.03 207.526
L155.105 207.028
L155.254 202.688
L155.402 218.862
L155.7 256.933
L155.849 259.491
L155.923 257.251
L155.998 258.163
L156.221 278.194
L156.444 297.23
L156.518 297.023
L156.667 290.498
L156.816 265.946
L157.114 211.687
L157.262 206.531
L157.337 209.047
L157.634 240.593
L157.709 240.4
L157.858 239.653
L157.932 240.095
L158.155 248.57
L158.304 246.455
L158.453 249.579
L158.825 267.426
L158.974 279.038
L159.271 299.995
L159.346 297.631
L159.569 268.089
L160.015 209.779
L160.164 192.79
L160.238 193.039
L160.685 233.778
L160.908 244.381
L161.354 291.3
L161.429 290.083
L161.578 281.955
L162.024 251.5
L162.47 226.271
L162.619 229.396
L162.842 244.077
L163.066 253.698
L163.363 233.045
L163.438 230.806
L164.033 278.664
L164.256 306.133
L164.554 270.536
L164.926 224.986
L165.149 217.438
L165.223 215.807
L165.595 234.939
L165.67 233.377
L165.818 231.843
L166.116 238.271
L166.339 253.187
L166.637 280.793
L166.711 279.784
L166.86 282.743
L166.934 283.779
L167.009 281.208
L167.455 236.584
L167.753 260.32
L168.199 218.406
L168.422 237.414
L168.646 259.38
L168.72 259.56
L168.943 263.472
L169.241 278.761
L169.613 253.062
L169.91 219.539
L170.282 240.579
L170.58 231.068
L170.952 256.629
L171.026 255.44
L171.175 243.607
L171.25 243.925
L171.622 269.402
L171.77 283.766
L171.994 304.847
L172.142 278.333
L172.44 212.89
L172.514 210.305
L172.589 211.618
L172.886 230.681
L172.961 231.787
L173.482 253.049
L173.705 271.531
L174.002 257.915
L174.151 258.468
L174.226 257.887
L174.449 262.794
L174.523 264.937
L175.118 230.391
L175.193 231.165
L175.49 248.708
L175.714 235.299
L175.788 235.907
L175.937 248.542
L176.234 279.397
L176.309 282.701
L176.383 281.429
L176.904 225.401
L176.978 230.004
L177.35 279.425
L177.574 246.551
L177.722 233.018
L177.946 237.013
L178.094 231.068
L178.169 227.308
L178.243 228.76
L178.466 251.956
L178.615 258.191
L178.69 259.712
L178.764 257.486
L178.838 251.597
L178.913 252.039
L179.136 258.564
L179.21 257.002
L179.434 238.561
L179.508 238.699
L179.731 265.877
L179.954 282.383
L180.401 240.676
L180.475 242.307
L180.55 241.934
L180.624 242.694
L180.698 241.976
L180.773 242.736
L181.145 272.084
L181.74 232.078
L181.889 230.128
L182.038 226.493
L182.112 227.059
L182.261 239.363
L182.558 262.311
L182.633 262.767
L182.782 261.302
L182.856 260.348
L183.079 269.831
L183.154 268.02
L183.451 242.598
L183.526 244.284
L183.674 238.091
L183.823 251.417
L183.972 265.767
L184.046 265.145
L184.418 246.054
L184.567 244.616
L184.865 227.032
L184.939 222.898
L185.014 223.548
L185.088 227.004
L185.162 225.055
L185.237 225.484
L185.386 249.758
L185.683 293.249
L185.906 308.939
L186.055 295.295
L186.278 262.38
L186.576 218.102
L186.948 192.652
L187.097 205.646
L187.394 241.146
L187.543 257.458
L187.766 281.996
L187.841 281.996
L188.064 297.866
L188.138 296.11
L188.362 280.296
L188.734 227.087
L188.882 221.972
L189.329 243.869
L189.403 242.57
L189.701 216.097
L189.775 216.761
L189.998 253.837
L190.222 287.332
L190.37 290.042
L190.445 287.042
L190.594 276.923
L190.742 274.725
L190.817 276.757
L191.189 248.473
L191.486 221.737
L191.71 227.792
L191.933 236.819
L192.305 220.272
L192.379 222.18
L192.602 248.238
L192.9 280.849
L192.974 282.632
L193.346 312.45
L193.793 242.183
L194.016 202.328
L194.165 197.822
L194.388 210.18
L194.462 209.061
L194.686 205.895
L194.76 211.286
L195.206 279.397
L195.281 278.554
L195.43 272.195
L195.578 287.374
L195.727 305.829
L195.802 305.787
L195.876 304.709
L196.025 290.028
L196.546 224.129
L196.694 233.654
L196.769 237.801
L196.843 237.11
L197.141 222.18
L197.364 205.162
L197.438 206.78
L197.587 215.903
L198.034 273.135
L198.257 304.571
L198.331 306.16
L198.406 302.538
L198.926 242.252
L199.075 240.524
L199.224 251.21
L199.373 266.79
L199.447 265.974
L200.042 208.286
L200.117 211.507
L200.34 224.391
L200.563 217.701
L200.712 229.327
L201.233 306.326
L201.307 305.331
L201.902 265.601
L202.126 239.335
L202.572 195.61
L202.646 196.647
L202.87 215.668
L203.688 283.461
L203.837 277.42
L204.283 250.712
L204.358 250.616
L204.506 261.55
L204.804 289.323
L204.878 285.742
L205.399 205.757
L205.474 206.158
L205.548 206.517
L205.622 204.637
L205.697 205.77
L206.143 263.817
L206.292 276.425
L206.366 275.54
L206.515 264.633
L206.738 238.63
L207.259 288.521
L207.334 290.111
L207.408 285.894
L207.854 230.792
L207.929 231.276
L208.226 247.961
L208.301 247.56
L208.524 242.39
L208.822 247.975
L209.268 239.833
L209.417 231.939
L209.491 232.34
L209.64 244.63
L209.938 289.433
L210.086 269.084
L210.31 235.506
L210.384 232.81
L210.458 234.151
L210.756 264.937
L210.83 263.126
L211.128 247.574
L211.202 247.256
L211.351 249.427
L211.574 242.556
L211.649 243.178
L211.723 242.833
L211.872 238.423
L212.318 274.531
L212.393 273.107
L212.839 245.985
L213.062 228.857
L213.137 229.645
L213.658 254.514
L213.732 255.26
L213.806 258.398
L214.178 234.469
L214.253 235.299
L214.55 239.598
L214.997 272.015
L215.071 273.633
L215.146 279.646
L215.22 277.171
L215.443 263.458
L215.741 244.27
L215.89 235.188
L215.964 233.612
L216.113 241.257
L216.41 255.896
L216.559 252.15
L216.931 227.709
L217.006 228.082
L217.378 268.352
L217.526 251.97
L217.675 236.667
L217.75 236.916
L217.898 234.967
L218.122 245.169
L218.196 244.492
L218.27 239.501
L218.345 242.045
L218.494 257.362
L218.791 303.935
L218.866 307.944
L219.014 283.572
L219.312 238.395
L219.461 228.331
L219.535 228.566
L219.758 239.86
L219.833 239.625
L219.982 235.824
L220.056 235.893
L220.13 235.52
L220.205 232.838
L220.577 257.818
L220.874 245.155
L220.949 246.828
L221.023 246.8
L221.098 244.851
L221.321 266.693
L221.395 265.449
L221.842 223.714
L221.916 228.691
L222.139 261.288
L222.437 272.554
L222.883 239.017
L223.33 272.043
L223.776 262.062
L224.148 210.595
L224.222 202.425
L224.297 203.241
L224.446 212.738
L224.892 256.325
L225.041 250.754
L225.19 259.698
L225.487 296.663
L225.562 296.76
L226.008 265.435
L226.231 258.108
L226.529 226.036
L226.752 198.858
L226.901 215.268
L227.198 249.288
L227.347 239.999
L227.496 232.465
L228.017 265.407
L228.091 266.472
L228.166 265.532
L228.24 265.919
L228.314 266.61
L228.389 266.472
L228.686 274.904
L228.761 273.204
L229.43 233.114
L229.579 238.589
L229.728 234.137
L229.951 239.847
L230.026 239.487
L230.249 257.085
L230.472 277.089
L230.546 276.231
L230.918 253.781
L231.142 245.667
L231.29 240.095
L231.365 245.68
L231.439 245.321
L231.588 247.505
L231.811 233.488
L231.886 233.902
L232.183 256.657
L232.332 246.012
L232.63 211.466
L233.15 287.954
L233.225 287.899
L233.299 288.424
L233.448 283.821
L233.671 253.353
L233.894 230.916
L233.969 232.188
L234.118 228.815
L234.192 227.999
L234.415 242.459
L234.564 237.082
L234.787 253.643
L235.01 268.697
L235.085 271.393
L235.159 271.213
L235.382 261.274
L235.531 263.569
L235.606 262.435
L235.829 250.878
L236.126 224.073
L236.275 214.742
L236.35 216.816
L236.573 246.164
L236.87 278.734
L237.094 261.799
L237.168 256.795
L237.317 232.478
L237.391 234.994
L237.689 259.629
L237.838 275.651
L237.912 276.895
L238.061 275.25
L238.135 275.471
L238.284 266.168
L238.507 242.916
L238.73 222.387
L238.805 220.147
L238.954 230.889
L239.177 246.925
L239.623 212.019
L239.698 209.323
L239.921 249.04
L240.293 312.906
L240.367 316.072
L240.442 315.851
L240.59 306.741
L241.26 218.945
L241.409 216.18
L241.483 216.636
L241.558 218.281
L241.706 207.996
L241.93 186.638
L242.004 186.21
L242.153 198.402
L242.822 333.532
L242.897 333.504
L243.12 317.192
L243.566 259.56
L243.79 223.507
L243.938 216.581
L244.087 195.402
L244.385 157.096
L244.459 153.308
L244.682 196.425
L244.98 251.984
L245.501 313.155
L245.575 312.16
L245.65 311.676
L245.724 312.271
L245.798 310.003
L245.947 293.705
L246.245 257.638
L246.319 260.154
L246.394 259.85
L246.468 257.348
L246.617 239.833
L246.989 181.482
L247.063 178.828
L247.138 180.597
L247.286 202.563
L247.807 309.312
L247.882 307.847
L248.254 283.918
L248.328 284.678
L248.402 281.844
L248.774 238.008
L248.849 239.501
L248.923 238.948
L249.146 230.267
L249.518 246.703
L249.593 243.759
L249.965 209.296
L250.039 211.922
L250.337 234.856
L250.858 289.102
L250.932 292.889
L251.006 291.286
L251.602 210.305
L251.676 212.378
L251.825 237.593
L252.048 277.628
L252.122 278.181
L252.271 276.383
L252.643 265.476
L252.718 266.237
L252.866 269.499
L252.941 269.126
L253.313 253.311
L253.61 230.488
L253.685 233.101
L253.759 232.506
L253.834 231.317
L253.908 231.801
L254.057 232.81
L254.206 241.478
L254.578 272.997
L255.024 237.815
L255.098 240.4
L255.396 251.099
L256.14 233.197
L256.512 258.316
L256.586 257.445
L256.661 255.91
L256.735 255.993
L256.81 257.818
L257.033 244.699
L257.107 246.579
L257.256 251.113
L257.554 294.465
L257.702 305.815
L258.149 244.243
L258.446 205.508
L258.521 204.278
L259.042 230.612
L259.414 267.854
L259.488 268.836
L259.786 242.211
L259.86 243.427
L260.009 262.974
L260.306 310.335
L260.455 293.332
L260.902 216.65
L260.976 215.06
L261.125 221.461
L261.274 240.206
L261.422 254.044
L261.646 242.487
L261.72 242.017
L261.794 243.164
L262.092 260.306
L262.39 234.635
L262.464 238.132
L262.91 284.733
L262.985 284.222
L263.134 265.2
L263.506 210.802
L263.58 212.779
L263.952 261.011
L264.026 257.818
L264.25 239.252
L264.324 238.409
L264.398 242.321
L264.696 282.452
L264.994 270.066
L265.068 269.72
L265.142 267.564
L265.217 267.826
L265.366 269.748
L265.44 266.015
L265.812 223.12
L265.961 224.516
L266.11 239.584
L266.333 257.887
L266.407 256.118
L266.779 218.986
L266.928 234.953
L267.151 256.836
L267.226 258.136
L267.523 283.945
L267.598 282.577
L268.342 238.16
L268.416 238.243
L268.49 238.326
L268.714 244.63
L268.788 241.685
L269.086 208.065
L269.16 209.531
L269.458 246.938
L269.681 274.738
L269.83 266.873
L269.904 267.37
L270.053 265.504
L270.127 267.191
L270.499 292.419
L270.574 289.323
L270.797 257.03
L271.02 228.843
L271.094 226.078
L271.392 241.036
L271.466 238.381
L271.69 219.18
L271.838 223.991
L272.062 242.1
L272.21 240.98
L272.508 230.958
L272.582 232.437
L273.029 296.871
L273.103 295.972
L273.252 287.152
L273.698 248.5
L273.773 249.123
L273.922 251.874
L273.996 252.15
L274.219 259.726
L274.294 259.366
L274.442 242.902
L274.889 186.597
L275.038 209.807
L275.41 281.222
L275.484 282.065
L275.782 258.025
L276.079 271.407
L276.154 270.287
L276.451 258.661
L276.6 264.771
L276.674 261.772
L276.898 237.801
L277.27 255.44
L277.418 261.606
L278.162 203.324
L278.237 203.559
L278.311 204.056
L278.386 206.78
L278.609 241.008
L279.278 348.448
L279.427 345.794
L279.576 324.256
L279.799 267.978
L280.246 114.85
L280.394 106.058
L280.543 134.535
L281.064 271.117
L281.287 281.111
L281.362 279.687
L281.436 279.936
L281.585 291.286
L281.957 344.978
L282.031 344.522
L282.329 317.938
L282.85 213.692
L282.924 213.871
L283.222 221.405
L283.519 214.59
L283.817 186.417
L283.891 187.495
L284.114 221.668
L284.412 251.791
L284.561 248.003
L284.635 248.418
L284.858 280.669
L284.933 289.143
L285.007 288.341
L285.23 274.655
L285.305 275.623
L285.379 278.125
L285.454 277.641
L285.826 261.371
L285.9 263.97
L285.974 265.49
L286.272 242.667
L286.346 246.067
L286.421 248.39
L286.495 247.795
L286.644 243.51
L286.718 244.782
L286.793 244.284
L287.09 208.3
L287.165 210.443
L287.388 251.818
L287.537 273.591
L287.611 272.955
L287.834 249.869
L287.983 251.694
L288.132 256.422
L288.281 254.154
L288.355 252.205
L288.504 238.893
L288.578 238.948
L288.876 271.905
L288.95 270.716
L289.397 242.971
L289.62 229.41
L289.769 252.15
L289.992 287.194
L290.066 287.291
L290.29 244.478
L290.513 203.655
L290.587 207.125
L290.885 236.985
L290.959 237.22
L291.034 239.805
L291.48 275.443
L291.554 276.784
L291.703 269.402
L291.852 262.103
L291.926 261.149
L292.15 249.441
L292.224 251.155
L292.373 258.979
L292.447 258.91
L292.596 247.851
L292.745 234.911
L292.819 236.971
L293.042 255.343
L293.117 253.698
L293.563 222.843
L293.638 223.991
L293.861 238.644
L293.935 238.215
L294.01 236.322
L294.084 239.805
L294.456 277.531
L294.53 276.854
L294.828 266.582
L294.977 269.195
L295.051 268.214
L295.2 257.445
L295.423 238.52
L295.498 241.478
L295.646 253.491
L295.721 250.228
L295.944 217.866
L296.018 216.456
L296.093 219.512
L296.465 257.984
L296.688 247.339
L296.762 249.261
L296.986 258.965
L297.06 260.071
L297.209 256.753
L297.358 264.025
L297.581 277.973
L297.655 276.37
L297.878 265.214
L298.176 242.169
L298.25 242.473
L298.474 252.924
L298.548 252.233
L298.846 230.032
L299.143 221.461
L299.292 228.248
L299.59 248.611
L299.962 258.965
L300.185 270.964
L300.557 248.97
L300.631 249.993
L300.854 270.425
L300.929 269.845
L301.301 249.288
L301.524 256.09
L301.673 254.417
L301.97 242.487
L302.194 235.312
L302.268 232.382
L302.342 232.783
L302.714 249.758
L302.938 261.329
L303.086 241.16
L303.235 229.962
L303.384 227.115
L303.533 239.487
L304.128 291.797
L304.202 293.677
L304.574 244.699
L304.723 255.399
L304.798 254.97
L305.021 246.676
L305.17 250.92
L305.318 244.049
L305.616 223.756
L305.69 226.99
L305.914 247.45
L306.137 240.192
L306.286 247.574
L306.36 246.109
L306.434 246.372
L306.583 249.551
L306.658 248.805
L306.881 227.032
L307.104 262.117
L307.327 296.995
L307.402 293.47
L307.774 248.708
L307.848 249.745
L307.922 249.911
L308.071 248.293
L308.146 248.556
L308.22 249.192
L308.294 248.625
L308.443 249.206
L308.666 238.271
L308.741 232.603
L308.815 232.907
L308.964 237.386
L309.038 236.626
L309.187 232.022
L309.41 249.026
L309.708 285.355
L309.857 268.31
L310.08 214.48
L310.154 215.779
L310.675 277.268
L310.75 275.499
L311.122 230.792
L311.419 253.74
L311.494 253.353
L311.717 249.316
L311.791 248.86
L311.866 250.049
L312.089 268.946
L312.163 266.555
L312.535 220.7
L312.684 240.469
L312.907 271.683
L312.982 272.305
L313.428 207.153
L313.577 232.548
L313.949 310.999
L314.023 310.584
L314.246 258.468
L314.47 235.285
L314.693 248.086
L314.842 253.367
L314.99 251.058
L315.214 259.034
L315.511 226.244
L315.66 212.613
L315.734 213.913
L316.181 250.104
L316.255 248.473
L316.404 238.713
L316.553 222.373
L316.627 225.014
L316.776 246.164
L317.148 327.615
L317.222 319.915
L317.594 240.469
L317.669 242.321
L317.892 257.058
L318.041 253.007
L318.19 238.271
L318.413 217.396
L318.562 221.862
L318.785 239.791
L318.934 231.649
L319.082 223.216
L319.231 236.156
L319.603 285.452
L319.678 284.678
L319.975 273.633
L320.124 270.951
L320.198 271.517
L320.273 273.301
L320.347 270.66
L320.794 226.769
L321.017 235.589
L321.091 235.478
L321.314 224.212
L321.389 225.318
L321.463 226.7
L321.761 244.492
L321.984 267.522
L322.058 266.873
L322.207 265.075
L322.282 267.177
L322.505 278.747
L322.654 276.218
L322.802 261.122
L323.1 212.724
L323.174 216.152
L323.546 265.877
L323.621 262.228
L323.918 232.161
L324.142 256.007
L324.365 283.793
L324.439 283.171
L324.588 265.642
L324.811 235.464
L324.886 232.561
L325.034 236.128
L325.109 233.529
L325.183 234.773
L325.481 265.034
L325.555 266.679
L325.778 260.126
L326.15 236.501
L326.299 240.289
L326.671 266.541
L326.82 259.518
L327.192 221.226
L327.266 221.917
L327.415 237.704
L327.638 273.536
L327.713 275.029
L327.862 268.476
L328.159 245.307
L328.382 230.46
L328.457 231.594
L328.754 251.929
L328.903 265.808
L329.052 263.638
L329.275 244.312
L329.722 274.462
L329.796 274.863
L329.945 258.081
L330.168 237.483
L330.317 234.856
L330.54 244.837
L330.614 244.754
L330.763 242.556
L330.838 242.708
L330.986 245.611
L331.284 260.071
L331.358 258.841
L331.582 247.74
L331.879 269.015
L332.028 263.942
L332.177 247.229
L332.4 217.286
L332.474 220.535
L332.846 284.388
L332.921 282.286
L333.442 214.272
L333.888 264.384
L333.962 264.039
L334.037 261.025
L334.186 247.104
L334.26 247.892
L334.409 250.574
L334.483 249.717
L334.632 247.256
L334.781 266.195
L335.004 284.028
L335.227 262.421
L335.525 235.506
L335.599 233.736
L335.822 244.284
L336.046 273.218
L336.12 271.158
L336.566 210.899
L336.715 221.862
L337.013 254.362
L337.31 272.167
L337.757 246.897
L337.906 247.726
L338.426 271.697
L338.501 267.785
L338.798 222.193
L338.873 222.263
L338.947 224.322
L339.394 279.356
L339.468 277.102
L339.691 274.365
L340.435 220.382
L340.584 215.668
L340.658 217.59
L340.956 243.109
L341.179 267.038
L341.254 267.605
L341.477 273.798
L341.551 273.315
L341.626 271.849
L341.998 255.357
L342.146 260.555
L342.221 259.477
L342.295 260.279
L342.37 263.43
L342.444 263.016
L342.965 224.834
L343.039 222.567
L343.337 236.612
L343.411 237.082
L343.486 236.709
L343.783 259.643
L343.858 259.504
L343.932 259.435
L344.155 254.818
L344.23 257.569
L344.453 282.784
L344.602 266.596
L344.899 235.699
L344.974 231.11
L345.048 231.428
L345.122 234.179
L345.42 260.527
L345.941 225.331
L346.164 238.409
L346.387 254.196
L346.536 251.97
L346.61 254.445
L346.834 269.306
L346.908 269.195
L346.982 269.734
L347.057 269.72
L347.206 260.403
L347.354 251.417
L347.429 251.528
L347.652 279.411
L347.726 278.568
L348.173 221.295
L348.247 223.037
L348.694 254.251
L348.768 251.099
L348.917 243.095
L349.066 227.972
L349.14 229.603
L349.363 244.077
L349.438 243.137
L349.661 231.704
L349.735 232.727
L349.884 255.205
L350.107 283.848
L350.256 291.935
L350.554 249.275
L350.628 252.731
L350.926 282.203
L351.074 261.868
L351.298 225.912
L351.372 226.88
L351.744 255.786
L351.818 253.933
L351.967 238.409
L352.116 217.991
L352.19 218.24
L352.637 246.482
L352.711 244.229
L352.786 243.081
L352.934 251.984
L353.232 275.983
L353.306 275.029
L353.53 269.223
L353.604 268.794
L353.753 263.804
L353.976 244.561
L354.125 235.188
L354.348 241.906
L354.422 241.768
L354.497 242.722
L354.646 255.703
L354.869 283.517
L355.092 249.261
L355.315 219.76
L355.464 216.954
L355.538 216.512
L355.613 215.198
L355.687 217.839
L356.282 279.66
L356.357 279.342
L356.803 261.426
L356.878 261.73
L357.026 268.559
L357.25 264.191
L357.398 256.035
L357.696 230.253
L357.77 232.423
L357.994 243.634
L358.068 242.943
L358.44 217.369
L358.514 218.502
L358.738 250.671
L358.886 265.836
L358.961 265.31
L359.035 266.181
L359.184 273.909
L359.407 286.669
L359.556 277.489
L359.854 241.92
L360.002 249.62
L360.077 246.717
L360.226 232.727
L360.3 233.087
L360.374 233.211
L360.449 232.81
L360.672 244.464
L360.895 253.602
L360.97 253.837
L361.044 253.159
L361.193 250.961
L361.342 253.049
L361.714 240.026
L361.937 253.933
L362.086 263.389
L362.16 262.601
L362.383 248.722
L362.532 258.758
L362.681 267.813
L362.904 253.615
L362.978 249.358
L363.053 250.989
L363.202 254.445
L363.35 261.149
L363.722 219.249
L363.797 222.332
L364.169 264.025
L364.243 263.085
L364.392 256.394
L364.615 246.676
L364.764 243.137
L364.987 237.649
L365.285 263.085
L365.359 259.947
L365.508 249.689
L365.806 269.706
L365.88 266.914
L366.178 245.459
L366.252 247.616
L366.401 260.182
L366.475 259.891
L366.922 223.576
L367.07 237.22
L367.368 264.357
L367.517 268.02
L368.186 237.317
L368.484 259.684
L368.558 258.537
L368.782 250.063
L369.005 228.511
L369.079 230.557
L369.526 283.323
L369.6 282.853
L369.823 249.316
L370.046 217.535
L370.195 240.676
L370.418 266.098
L370.493 265.545
L370.865 228.373
L370.939 223.908
L371.014 225.345
L371.237 249.275
L371.534 292.696
L371.609 295.267
L371.758 281.319
L371.906 262.214
L372.204 210.084
L372.278 207.416
L372.427 219.512
L372.725 258.647
L372.874 254.901
L373.097 228.304
L373.171 230.806
L373.469 265.02
L373.692 281.443
L373.841 272.015
L374.213 241.906
L374.287 241.036
L374.436 260.251
L374.659 285.604
L374.957 249.745
L375.254 202.536
L375.403 217.424
L375.775 266.555
L376.147 215.945
L376.222 218.419
L376.817 288.452
L376.966 276.259
L377.189 246.15
L377.263 246.427
L377.486 259.532
L377.635 258.329
L377.784 264.177
L377.858 260.942
L378.156 226.313
L378.305 221.834
L378.379 222.788
L378.9 260.887
L378.974 261.702
L379.346 243.939
L379.421 243.344
L379.718 255.053
L379.867 254.085
L379.942 255.205
L380.016 258.882
L380.09 258.62
L380.239 253.007
L380.314 254.376
L380.462 262.145
L380.686 251.348
L380.76 253.519
L380.909 259.297
L381.355 233.64
L381.504 238.81
L381.876 269.154
L382.025 255.482
L382.174 246.385
L382.248 249.772
L382.322 248.832
L382.546 238.658
L382.843 246.137
L383.066 261.454
L383.141 259.767
L383.438 242.141
L383.885 256.491
L384.182 258.606
L384.257 256.767
L384.554 232.161
L384.629 233.156
L385.075 251.901
L385.224 245.763
L385.67 263.292
L385.894 241.851
L386.117 247.657
L386.489 277.89
L386.563 275.056
L386.786 255.15
L386.861 256.048
L386.935 256.159
L387.01 254.721
L387.382 229.907
L387.53 231.22
L387.605 229.562
L387.679 230.073
L388.051 263.486
L388.126 262.186
L388.498 220.535
L388.572 221.599
L389.093 269.043
L389.465 286.475
L389.539 287
L389.614 282.673
L390.06 223.341
L390.209 216.733
L390.655 255.772
L390.804 253.491
L390.953 259.394
L391.027 261.965
L391.176 254.804
L391.325 265.463
L391.399 264.965
L392.143 241.188
L392.366 229.797
L392.441 232.285
L392.813 265.131
L392.962 259.449
L393.11 268.642
L393.185 268.144
L393.334 253.353
L393.557 239.584
L393.631 239.708
L393.78 247.229
L393.854 245.57
L393.929 246.275
L394.078 243.538
L394.226 239.943
L394.301 239.142
L394.524 229.451
L394.598 231.469
L394.97 280.697
L395.045 278.568
L395.194 271.808
L395.342 271.31
L395.491 260.61
L395.714 250.09
L396.012 240.013
L396.086 239.446
L396.31 233.432
L396.384 234.566
L396.682 244.492
L396.756 243.579
L396.83 243.98
L397.202 254.251
L397.351 262.615
L397.574 254.611
L397.723 244.16
L397.872 235.188
L398.244 292.143
L398.318 289.931
L398.69 234.87
L398.765 233.543
L398.839 234.69
L399.211 262.587
L399.286 262.366
L399.36 261.219
L399.434 262.421
L399.509 258.274
L399.658 241.036
L399.732 241.16
L399.955 231.359
L400.178 236.197
L400.327 228.525
L400.402 230.17
L401.146 277.655
L401.22 277.019
L401.369 279.204
L401.443 277.489
L401.518 278.416
L401.592 278.222
L402.485 207.098
L402.634 220.617
L402.931 248.846
L403.006 251.279
L403.303 275.485
L403.378 275.457
L403.452 274.573
L403.824 255.675
L403.898 255.896
L404.122 262.02
L404.196 264.495
L404.345 274.835
L404.568 272.07
L404.94 231.068
L405.014 229.755
L405.089 232.216
L405.163 231.138
L405.312 226.645
L405.386 226.202
L405.461 226.769
L405.758 237.842
L406.13 256.836
L406.205 256.435
L406.279 256.988
L406.577 263.375
L406.651 261.315
L406.949 237.718
L407.098 236.239
L407.172 237.013
L407.693 278.941
L407.767 276.052
L408.139 239.736
L408.214 240.317
L408.437 253.85
L408.511 251.431
L408.734 237.787
L408.809 236.474
L408.883 237.123
L409.181 257.21
L409.255 254.237
L409.478 240.137
L409.702 247.878
L409.85 241.381
L410.074 257.735
L410.297 253.09
L410.371 253.132
L410.446 253.519
L410.52 256.242
L410.743 274.586
L410.892 265.186
L411.115 245.708
L411.19 246.634
L411.264 252.675
L411.338 251.431
L411.562 236.778
L411.71 244.616
L412.306 221.903
L412.826 274.103
L412.901 271.863
L413.124 258.689
L413.198 259.242
L413.273 261.924
L413.496 282.176
L413.645 273.508
L413.942 255.053
L414.091 260.831
L414.538 219.235
L414.686 221.046
L414.761 220.175
L414.835 220.852
L415.133 252.026
L415.207 251.348
L415.282 249.841
L415.43 251.915
L415.505 251.113
L415.579 252.357
L415.654 251.721
L415.728 250.021
L416.026 268.49
L416.1 268.352
L416.249 266.375
L416.323 263.389
L416.546 249.828
L416.695 261.564
L416.844 249.883
L417.142 235.423
L417.216 235.506
L417.365 250.809
L417.514 269.997
L417.588 268.421
L417.811 246.565
L417.886 246.15
L417.96 247.339
L418.034 247.173
L418.258 242.888
L418.406 246.04
L418.555 252.468
L418.853 247.132
L418.927 247.353
L419.002 248.556
L419.15 244.077
L419.225 245.597
L419.374 244.008
L419.597 247.547
L419.894 275.43
L420.118 281.913
L420.341 248.97
L420.564 229.161
L420.713 226.866
L421.234 246.192
L421.382 259.822
L421.457 258.716
L421.68 236.819
L421.903 257.417
L422.052 275.222
L422.126 274.877
L422.275 262.559
L422.424 247.312
L422.498 247.713
L422.573 247.436
L422.647 243.178
L422.722 244.713
L422.87 255.938
L423.019 251.915
L423.094 252.814
L423.168 250.685
L423.317 241.353
L423.54 259.615
L423.614 257.528
L423.689 256.187
L423.838 258.316
L424.284 235.644
L424.358 236.792
L424.507 241.823
L424.582 241.215
L424.73 237.856
L424.805 238.741
L424.954 246.15
L425.326 273.01
L425.4 271.877
L425.698 252.855
L425.921 259.974
L425.995 258.979
L426.144 256.712
L426.218 257.956
L426.367 264.605
L426.442 263.541
L426.59 248.473
L426.814 234.607
L426.962 225.719
L427.037 226.175
L427.111 225.622
L427.26 220.521
L427.409 227.294
L427.855 263.278
L428.078 269.596
L428.153 268.656
L428.302 258.081
L428.525 245.1
L428.674 252.413
L428.971 272.983
L429.046 272.651
L429.12 273.093
L429.418 249.841
L429.492 250.906
L429.566 253.56
L429.641 252.675
L429.79 247.187
L430.013 233.861
L430.087 232.879
L430.31 237.538
L430.459 233.612
L430.682 244.727
L430.831 249.883
L430.98 246.745
L431.054 249.482
L431.426 277.171
L431.501 276.439
L431.65 259.822
L431.947 218.696
L432.022 222.332
L432.319 261.08
L432.542 242.611
L432.617 246.344
L432.914 269.347
L432.989 273.218
L433.063 272.983
L433.658 225.373
L433.733 223.534
L433.807 223.977
L434.254 259.726
L434.402 256.339
L434.626 264.647
L434.849 261.371
L435.146 229.479
L435.221 231.373
L435.518 244.257
L435.667 262.739
L435.742 262.725
L435.816 262.2
L436.114 268.089
L436.411 259.643
L437.006 226.271
L437.378 244.201
L437.453 246.925
L437.527 246.745
L437.602 247.201
L437.825 260.14
L437.974 258.26
L438.122 265.767
L438.271 252.772
L438.346 255.592
L438.42 259.67
L438.494 257.984
L438.643 255.91
L438.718 257.555
L438.866 263.43
L439.015 253.09
L439.238 230.916
L439.313 229.686
L439.387 231.718
L439.61 245.763
L439.908 227.004
L439.982 228.705
L440.206 245.335
L440.429 257.804
L440.578 277.821
L440.875 260.099
L441.024 247.422
L441.098 249.427
L441.322 262.2
L441.396 261.689
L441.47 262.767
L441.545 262.117
L441.768 256.187
L441.842 257.707
L441.991 264.868
L442.066 262.2
L442.438 234.179
L442.512 233.336
L442.586 230.985
L442.661 231.082
L443.033 239.667
L443.33 252.772
L443.479 244.671
L443.554 245.957
L443.777 261.868
L443.926 280.959
L444.074 279.273
L444.223 267.702
L444.521 241.105
L444.595 240.248
L444.67 243.413
L444.744 243.123
L444.893 234.898
L445.042 239.543
L445.19 237.068
L445.711 254.735
L446.009 250.588
L446.232 255.661
L446.381 265.297
L446.455 265.255
L446.604 258.523
L446.827 247.547
L446.976 241.851
L447.05 236.529
L447.125 236.543
L447.348 240.897
L447.497 248.97
L447.646 244.353
L447.72 245.584
L448.018 265.034
L448.166 268.656
L448.687 239.916
L448.762 240.095
L449.208 258.716
L449.282 258.316
L449.729 248.279
L449.878 239.418
L449.878 239.418" style="fill:none;stroke:#808080;stroke-linecap:square;"/>
   </g>
  </g>
 </g>
 <defs>
  <clipPath id="p7ff5b81e1d">
   <rect height="345.6" width="446.4" x="72.0" y="43.2"/>
  </clipPath>
 </defs>
</svg>
