<?xml version="1.0" encoding="utf-8" standalone="no"?>
<!DOCTYPE svg PUBLIC "-//W3C//DTD SVG 1.1//EN"
  "http://www.w3.org/Graphics/SVG/1.1/DTD/svg11.dtd">
<!-- Created with matplotlib (http://matplotlib.org/) -->
<svg height="432pt" version="1.1" viewBox="0 0 576 432" width="576pt" xmlns="http://www.w3.org/2000/svg" xmlns:xlink="http://www.w3.org/1999/xlink">
 <defs>
  <style type="text/css">
*{stroke-linecap:butt;stroke-linejoin:round;}
  </style>
 </defs>
 <g id="figure_1">
  <g id="patch_1">
   <path d="
M0 432
L576 432
L576 0
L0 0
z
" style="fill:#ffffff;"/>
  </g>
  <g id="axes_1">
   <g id="line2d_1">
    <path clip-path="url(#p7ff5b81e1d)" d="
M72 155.765
L72.1488 165.348
L72.4464 217.687
L72.744 255.17
L72.8184 255.254
L72.9672 243.493
L74.0088 125.007
L74.1576 135.464
L74.976 229.452
L75.1248 232.711
L75.2736 219.198
L75.6456 171.436
L75.72 170.893
L75.8688 178.338
L76.092 192.117
L76.3896 180.787
L76.464 182.766
L76.6872 202.505
L76.9104 218.896
L76.9848 217.055
L77.5056 187.037
L77.7288 199.834
L77.952 215.761
L78.0264 213.071
L78.1752 190.587
L78.5472 120.494
L78.6216 123.975
L79.068 200.298
L79.1424 197.059
L79.2912 189.224
L79.3656 189.994
L79.7376 216.527
L79.812 217.568
L79.8864 217.287
L79.9608 217.02
L80.1096 220.945
L80.3328 229.946
L80.4072 229.58
L80.6304 219.746
L81.3744 157.256
L81.5232 162.929
L81.5976 162.504
L81.8952 152.734
L82.1928 136.446
L82.2672 139.527
L82.416 164.242
L82.9368 280.428
L83.0112 279.949
L83.16 261.973
L83.8296 136.915
L83.9784 127.288
L84.1272 119.813
L84.276 128.191
L85.02 231.945
L85.392 307.469
L85.5408 278.177
L85.9872 166.513
L86.136 159.28
L86.2104 158.925
L86.3592 152.349
L86.5824 141.131
L86.6568 141.191
L86.88 151.208
L87.8472 206.089
L87.9216 206.336
L88.0704 205.897
L88.2192 206.297
L88.74 197.578
L89.4096 206.494
L89.484 206.84
L89.5584 206.292
L89.856 198.733
L90.4512 179.271
L90.6 179.918
L90.6744 179.745
L90.7488 179.266
L90.8232 179.439
L90.972 180.392
L91.1208 181.799
L91.344 184.356
L91.4928 182.105
L91.716 180.327
L91.8648 183.418
L92.3856 207.738
L92.46 207.62
L92.5344 207.748
L92.6088 207.422
L92.9808 199.701
L93.3528 181.246
L93.576 184.361
L93.8736 189.654
L94.0224 190.404
L94.1712 190.409
L94.2456 190.681
L94.8408 204.065
L94.9896 200.471
L95.2128 182.47
L95.436 162.203
L95.5104 161.685
L95.5848 163.363
L95.7336 176.62
L96.0312 204.687
L96.18 210.296
L96.2544 209.718
L96.3288 210.444
L96.4032 210.177
L97.0728 187.911
L97.296 186.711
L97.8168 191.791
L97.8912 191.382
L98.1888 180.564
L98.412 174.21
L99.0072 192.024
L99.3792 205.23
L99.6768 192.996
L99.8256 196.65
L100.049 202.392
L100.123 201.789
L100.272 210.819
L100.421 216.991
L100.644 206.544
L100.718 207.116
L101.09 198.151
L101.314 168.656
L101.611 136.15
L101.686 135.523
L102.058 155.933
L102.281 192.33
L102.578 238.107
L102.653 237.579
L103.397 198.323
L103.471 198.338
L103.62 202.184
L103.992 219.207
L104.141 202.416
L104.513 137.409
L104.587 136.871
L104.662 137.547
L104.81 145.19
L105.48 196.99
L105.554 196.892
L105.703 204.12
L106.075 241.207
L106.15 238.734
L106.298 220.694
L106.522 193.189
L106.67 192.537
L106.819 186.805
L107.191 168.72
L107.34 167.619
L107.489 173.312
L107.861 190.829
L107.935 190.819
L108.01 191.031
L108.158 189.965
L108.307 194.013
L108.605 203.492
L108.679 204.258
L108.828 201.932
L108.902 202.673
L108.977 202.594
L109.274 193.737
L109.498 177.084
L109.572 177.503
L110.093 195.262
L110.167 193.984
L110.614 177.168
L110.688 177.247
L110.911 184.949
L111.358 206.978
L111.581 200.076
L111.804 191.94
L111.953 196.931
L112.25 204.663
L112.325 203.468
L112.474 193.366
L112.697 173.796
L112.771 174.739
L113.069 193.835
L113.292 190.661
L113.441 194.314
L113.59 197.958
L113.962 181.517
L114.11 193.786
L114.334 209.259
L114.482 176.23
L114.631 135.345
L114.706 137.384
L115.301 249.22
L115.45 219.36
L115.747 137.345
L115.822 139.038
L116.64 258.078
L116.714 253.925
L117.086 204.964
L117.533 138.974
L117.607 137.364
L117.83 150.339
L118.426 205.971
L118.5 205.043
L118.574 206.41
L118.798 215.51
L119.095 205.467
L119.467 190.947
L119.616 186.469
L119.69 186.479
L119.839 189.229
L120.062 196.269
L120.286 213.357
L120.434 190.636
L120.658 161.235
L121.03 182.164
L121.104 182.125
L121.178 181.433
L121.253 182.144
L121.55 193.189
L121.774 188.953
L121.848 184.894
L121.922 187.358
L122.22 213.105
L122.369 209.195
L123.038 185.057
L123.187 182.332
L123.262 183.191
L123.336 185.729
L123.41 185.299
L123.708 167.55
L123.857 176.718
L124.303 206.736
L124.378 207.166
L124.526 201.686
L124.601 201.992
L124.824 216.146
L124.898 216.112
L125.27 200.185
L125.642 171.865
L125.791 167.16
L126.014 170.364
L126.238 176.778
L126.312 175.262
L126.386 176.476
L126.61 189.767
L126.833 215.411
L126.907 212.305
L127.056 180.382
L127.13 181.591
L127.428 227.546
L127.502 232.844
L127.577 227.591
L127.949 161.354
L128.023 157.31
L128.098 158.629
L128.767 194.655
L128.916 188.019
L128.99 188.197
L129.362 206.188
L129.437 205.917
L129.586 206.282
L129.809 203.009
L129.883 203.527
L130.032 207.946
L130.181 199.375
L130.255 200.654
L130.553 230.973
L130.702 202.495
L130.925 156.042
L131.148 148.952
L131.371 144.227
L131.446 145.526
L131.669 163.003
L132.264 216.689
L132.562 237.371
L132.636 235.762
L133.38 181.127
L133.603 161.339
L133.678 160.549
L133.826 165.472
L134.198 186.973
L134.273 187.733
L134.347 187.215
L134.645 181.902
L134.794 188.4
L135.017 200.589
L135.091 200.846
L135.166 200.683
L135.24 201.113
L135.538 207.018
L135.612 205.571
L135.91 189.525
L135.984 189.91
L136.133 192.739
L136.356 178.718
L136.43 174.931
L136.505 175.8
L136.951 221.799
L137.1 213.021
L137.472 177.138
L137.918 152.536
L137.993 152.25
L138.142 162.983
L138.737 211.451
L138.811 214.547
L138.886 214.384
L138.96 212.197
L139.034 213.164
L139.406 224.061
L139.63 209.447
L140.076 166.232
L140.299 169.446
L140.448 176.309
L140.746 200.076
L140.82 198.866
L140.969 190.291
L141.043 191.031
L141.192 195.396
L141.266 193.515
L141.638 168.029
L141.713 168.799
L141.862 174.689
L142.159 189.274
L142.308 194.852
L142.829 223.779
L142.903 222.891
L143.052 213.495
L143.424 190.004
L143.573 186.099
L143.87 198.012
L144.019 188.089
L144.242 174.447
L144.466 177.533
L144.54 177.079
L144.986 158.076
L145.061 159.967
L145.21 170.142
L145.805 225.063
L145.879 225.117
L146.028 219.953
L146.251 224.693
L146.326 222.476
L146.623 188.252
L146.772 174.778
L146.921 195.993
L146.995 206.746
L147.07 204.934
L147.516 156.481
L147.59 156.822
L147.814 149.594
L147.962 147.451
L148.111 167.787
L148.558 246.934
L149.302 177.538
L149.45 152.438
L149.525 155.839
L149.748 197.232
L149.971 233.101
L150.12 209.264
L150.343 182.12
L150.566 175.711
L150.79 165.476
L150.864 167.012
L151.087 187.269
L151.162 186.528
L151.459 165.521
L151.534 166.148
L151.831 178.372
L151.906 178.2
L151.98 180.1
L152.203 203.315
L152.501 227.517
L152.65 230.691
L152.724 230.785
L152.798 229.985
L152.947 219.765
L153.319 195.149
L153.766 174.482
L153.84 173.613
L153.914 174.299
L154.138 180.327
L154.286 181.532
L154.435 183.714
L154.51 182.006
L154.584 182.297
L154.733 179.073
L154.882 173.04
L154.956 173.327
L155.105 175.371
L155.923 209.027
L156.072 211.046
L156.146 210.488
L156.37 204.747
L156.667 196.546
L157.039 184.751
L157.188 179.839
L157.262 180.954
L157.337 180.875
L157.411 181.004
L158.081 210.957
L158.155 209.926
L158.602 189.955
L158.974 164.835
L159.048 164.282
L159.122 164.84
L159.42 175.657
L159.569 181.068
L159.643 180.717
L159.866 189.175
L160.164 203.537
L160.313 206.657
L160.536 215.875
L160.982 200.826
L161.429 176.679
L161.503 175.825
L161.578 175.904
L161.726 183.877
L161.875 189.076
L161.95 187.842
L162.173 197.894
L162.247 197.336
L162.322 196.65
L162.396 197.395
L162.619 200.836
L162.842 194.467
L163.066 184.939
L163.214 185.363
L163.363 183.813
L163.735 192.191
L163.81 193.292
L163.884 192.088
L164.182 182.885
L164.554 186.933
L164.628 185.867
L165 177.795
L165.223 185.171
L165.521 203.858
L165.67 209.585
L165.893 215.771
L166.042 218.106
L166.19 220.728
L166.265 219.247
L166.488 203.201
L166.934 163.349
L167.083 160.628
L167.158 161.64
L167.976 192.335
L168.05 192.3
L168.199 190.957
L168.646 195.845
L168.794 199.632
L168.869 199.345
L169.018 200.086
L169.241 209.402
L169.315 208.494
L169.464 205.566
L169.538 206.03
L169.687 208.282
L169.762 206.716
L170.059 189.195
L170.208 185.131
L170.431 178.688
L170.506 178.037
L170.58 178.209
L170.952 186.336
L171.026 185.255
L171.175 182.801
L171.398 186.909
L171.547 181.557
L171.696 177.024
L171.845 178.456
L172.068 183.023
L172.217 188.834
L172.886 226.435
L172.961 225.562
L173.184 215.638
L173.407 194.196
L173.705 173.208
L173.779 170.818
L173.854 171.85
L174.226 183.028
L174.3 182.752
L174.523 173.904
L174.672 180.895
L175.044 202.791
L175.118 202.93
L175.193 202.811
L175.267 203.275
L175.342 203.191
L175.416 202.14
L175.714 187.442
L176.086 191.431
L176.234 197.188
L176.309 197.069
L176.458 191.984
L176.532 192.848
L176.681 187.086
L176.904 181.335
L177.053 185.25
L177.202 190.992
L177.276 189.585
L177.499 179.957
L177.648 186.682
L177.946 226.796
L178.02 225.295
L178.243 193.342
L178.541 140.416
L178.615 138.678
L178.69 146.153
L179.136 241.4
L179.285 226.48
L179.508 207.319
L179.657 209.437
L179.806 198.713
L180.178 167.654
L180.252 166.726
L180.401 170.532
L180.773 190.942
L180.847 190.873
L180.996 185.847
L181.368 169.406
L181.442 167.753
L181.591 171.919
L181.963 195.598
L182.335 220.353
L182.41 219.755
L182.558 216.783
L183.005 183.309
L183.079 185.901
L183.377 206.519
L183.526 211.663
L183.674 203.68
L183.898 187.931
L184.046 188.34
L184.121 187.802
L184.27 180.441
L184.567 162.174
L184.642 160.604
L184.716 161.28
L184.939 174.739
L185.386 214.517
L185.46 212.799
L185.534 214.083
L185.758 206.257
L185.906 198.012
L186.055 190.325
L186.13 189.826
L186.427 181.409
L186.576 178.471
L186.725 179.883
L186.874 184.159
L187.32 205.151
L187.394 206.238
L187.543 203.917
L187.766 195.716
L188.138 174.038
L188.51 191.239
L188.585 189.565
L188.808 181.488
L189.106 195.652
L189.254 199.923
L189.478 196.403
L189.701 194.028
L189.775 194.29
L189.998 192.428
L190.296 201.878
L190.37 200.984
L190.445 200.989
L190.519 200.219
L190.817 188.518
L190.966 190.009
L191.04 189.412
L191.189 194.566
L191.486 203.991
L191.784 189.491
L192.379 138.85
L192.454 141.294
L192.974 218.072
L193.198 225.483
L193.346 228.845
L193.57 236.798
L193.644 235.762
L193.867 221.987
L194.314 162.267
L194.611 150.542
L194.76 151.919
L195.058 167.501
L195.43 196.309
L195.578 199.429
L196.025 212.893
L196.174 207.729
L196.694 181.735
L196.843 186.854
L197.141 201.468
L197.215 201.952
L197.513 198.353
L197.736 193.411
L197.959 191.046
L198.182 194.527
L198.703 176.827
L198.778 177.01
L199.522 196.827
L199.596 196.6
L199.67 197.02
L199.819 198.185
L200.042 193.09
L200.191 188.484
L200.266 189.372
L200.489 196.353
L200.638 198.437
L200.861 204.164
L200.935 202.001
L201.307 161.759
L201.456 151.677
L201.605 158.313
L201.902 191.984
L202.349 233.417
L202.498 221.414
L202.795 197.43
L202.87 198.723
L203.018 195.726
L203.316 160.801
L203.39 161.117
L203.614 179.478
L203.688 179.745
L203.837 183.151
L203.986 180.851
L204.134 189.58
L204.432 208.173
L204.73 223.883
L204.804 221.434
L205.25 185.126
L205.325 187.106
L205.399 186.79
L205.548 175.193
L205.846 121.58
L205.92 125.224
L206.738 254.33
L206.813 254.286
L206.887 254.76
L206.962 250.958
L207.185 206.287
L207.408 179.755
L207.706 147.747
L207.78 151.45
L208.226 211.644
L208.301 208.913
L208.45 189.041
L208.673 156.363
L208.747 153.02
L208.822 153.948
L208.896 155.301
L209.119 182.732
L209.417 206.87
L209.714 220.797
L209.789 218.975
L209.938 209.694
L210.012 209.975
L210.235 216.596
L210.31 216.334
L210.458 206.445
L210.682 190.019
L210.83 194.616
L210.905 197.642
L210.979 194.581
L211.128 167.713
L211.351 121.63
L211.426 124.004
L211.946 213.135
L212.021 213.011
L212.17 211.54
L212.318 208.746
L212.393 208.854
L212.467 209.738
L212.542 209.713
L212.765 206.475
L212.914 201.439
L213.211 183.3
L213.434 174.531
L213.509 174.66
L213.658 179.355
L214.104 199.849
L214.178 201.883
L214.253 201.098
L214.55 186.311
L214.774 178.935
L214.848 178.718
L214.997 176.704
L215.071 176.802
L215.369 195.573
L215.666 208.306
L215.741 207.719
L215.964 213.801
L216.038 212.858
L216.187 203.646
L216.634 163.941
L216.782 161.354
L216.931 158.471
L217.006 158.871
L217.229 181.033
L217.75 226.149
L217.973 230.78
L218.047 230.667
L218.419 213.969
L219.163 137.093
L219.238 136.866
L219.461 146.854
L219.684 173.549
L220.056 215.431
L220.13 217.435
L220.354 231.323
L220.577 219.069
L221.023 185.23
L221.246 180.007
L221.321 180.15
L221.618 191.021
L221.916 200.185
L222.139 203.897
L222.214 203.354
L222.511 193.816
L222.586 194.369
L222.66 195.544
L223.032 190.552
L223.181 182.213
L223.553 163.665
L223.999 179.133
L224.297 193.831
L224.669 211.777
L224.818 214.32
L224.892 215.954
L226.157 175.163
L226.231 175.39
L226.826 203.315
L226.901 202.964
L227.347 194.453
L227.719 175.647
L227.794 175.701
L227.942 172.127
L228.017 172.374
L228.686 209.555
L228.984 197.82
L229.133 200.673
L229.282 198.437
L229.579 189.98
L229.728 190.103
L230.1 182.959
L230.249 177.464
L230.472 179.449
L230.695 188.972
L230.77 188.691
L230.918 192.907
L231.067 196.181
L231.142 195.953
L231.216 194.744
L231.29 194.759
L231.514 199.429
L231.588 198.585
L232.183 182.366
L232.778 208.607
L232.853 208.222
L233.002 209.387
L233.15 200.693
L233.597 167.55
L233.746 165.516
L233.82 165.654
L234.043 166.987
L234.192 174.847
L234.415 185.092
L234.49 186.716
L235.01 210.928
L235.085 212.132
L235.159 211.545
L235.234 210.711
L235.308 211.308
L235.382 210.691
L235.531 208.301
L235.606 208.948
L235.68 208.859
L235.829 203.591
L236.35 179.621
L236.647 171.441
L236.796 175.864
L237.094 187.94
L237.391 180.999
L237.54 188.913
L237.838 201.3
L237.912 201.019
L238.507 180.283
L238.656 181.779
L238.73 181.275
L238.879 184.815
L239.102 195.968
L239.474 232.666
L239.549 229.368
L239.698 212.71
L239.995 178.121
L240.144 182.929
L240.442 194.828
L240.516 195.618
L240.739 190.212
L241.26 165.407
L241.334 165.501
L241.632 174.457
L242.525 212.922
L242.674 216.857
L242.822 219.632
L243.194 206.247
L243.566 180.313
L243.79 178.733
L243.938 180.031
L244.087 178.397
L244.162 179.083
L244.459 186.361
L244.534 186.02
L244.682 190.3
L244.98 197.153
L245.203 198.96
L245.278 198.081
L245.798 177.503
L246.022 182.164
L246.17 184.83
L246.319 182.036
L246.394 182.756
L247.212 214.354
L247.361 210.35
L247.435 211.15
L247.51 210.074
L248.03 178.654
L248.105 178.481
L248.328 183.349
L248.626 190.059
L248.774 190.073
L248.849 189.708
L248.998 192.186
L249.072 191.885
L249.518 177.572
L249.667 183.517
L250.039 202.016
L250.188 204.031
L250.411 199.133
L250.486 198.852
L250.634 200.802
L250.783 191.945
L251.006 182.737
L251.23 177.36
L251.602 183.971
L252.048 198.373
L252.122 199.251
L252.346 207.61
L252.42 206.104
L252.718 194.576
L252.941 188.173
L253.09 185.26
L253.164 185.279
L253.462 195.03
L253.536 194.907
L253.759 192.024
L253.834 191.762
L253.982 187.452
L254.057 188.434
L254.206 193.381
L254.429 190.952
L254.875 177.434
L254.95 178.155
L255.322 192.675
L255.545 202.471
L255.694 203.492
L255.917 196.689
L256.066 193.026
L256.14 194.714
L256.214 194.611
L256.363 191.678
L256.438 191.94
L256.586 188.173
L256.735 178.807
L256.958 162.781
L257.033 165.254
L257.405 211.254
L257.628 227.141
L257.777 223.221
L258.372 182.737
L258.67 174.141
L258.893 180.352
L259.19 187.062
L259.265 187.249
L259.414 189.935
L259.488 189.634
L259.934 180.031
L260.158 186.084
L260.678 210.893
L261.199 193.139
L261.497 175.756
L261.571 175.331
L261.794 178.224
L262.092 191.54
L262.241 196.595
L262.315 197.469
L262.39 197.133
L262.613 194.611
L262.762 198.921
L262.985 204.292
L263.134 208.509
L263.208 207.294
L263.654 187.471
L263.952 170.809
L264.026 170.562
L264.101 169.51
L264.175 170.201
L264.324 177.839
L264.622 200.817
L264.696 200.92
L264.919 197.405
L265.142 203.157
L265.217 202.199
L265.663 190.952
L265.886 178.476
L265.961 178.52
L266.184 186.084
L266.63 202.826
L266.705 202.935
L266.928 197.914
L267.002 198.496
L267.226 195.302
L267.3 195.815
L267.374 192.606
L267.672 168.508
L267.895 161.813
L268.118 164.879
L268.342 196.551
L268.714 233.046
L268.788 232.182
L268.937 221.079
L269.383 169.609
L269.458 167.827
L269.532 169.999
L269.978 205.912
L270.053 203.364
L270.35 196.502
L270.648 182.208
L270.797 181.606
L271.02 176.96
L271.243 181.888
L271.615 211.362
L271.838 223.557
L271.987 205.107
L272.434 150.863
L272.508 150.221
L272.88 175.563
L273.252 216.867
L273.326 215.86
L273.55 208.691
L273.922 221.859
L273.996 221.469
L274.145 213.767
L274.368 186.306
L274.666 155.765
L274.889 149.273
L274.963 151.559
L275.261 184.465
L275.707 259.411
L275.782 259.351
L275.93 234.547
L276.377 137.019
L276.6 130.892
L276.674 131.46
L276.972 160.386
L277.493 216.833
L277.567 216.166
L277.939 230.755
L278.088 241.291
L278.162 240.22
L278.311 230.795
L278.981 172.453
L279.427 139.359
L279.502 141.206
L280.841 234.567
L280.915 233.969
L280.99 230.775
L281.287 190.681
L281.362 192.626
L281.585 201.444
L281.734 198.392
L281.957 182.658
L282.18 170.152
L282.254 170.34
L282.329 174.062
L282.403 173.865
L282.478 174.546
L282.626 188.518
L282.998 234.764
L283.073 234.745
L283.222 217.81
L283.445 165.713
L283.668 122.02
L283.742 119.053
L283.817 119.255
L283.891 120.632
L284.114 150.073
L284.635 230.829
L284.858 242.491
L284.933 242.323
L285.156 234.596
L285.826 197.306
L286.198 156.402
L286.495 148.873
L286.644 156.555
L287.239 193.1
L287.834 205.453
L287.983 208.44
L288.058 207.664
L288.281 210.706
L288.504 204.48
L288.876 179.523
L289.174 171.51
L289.248 172.087
L289.397 177.281
L289.546 183.023
L289.694 179.34
L289.769 181.379
L290.215 222.273
L290.29 220.634
L290.513 195.386
L290.736 169.915
L290.885 175.375
L291.406 209.856
L291.48 208.331
L291.852 182.697
L292.001 173.425
L292.15 175.474
L292.298 181.443
L292.745 205.907
L292.819 207.837
L292.894 207.047
L293.042 199.839
L293.563 157.424
L293.712 156.466
L293.786 157.069
L293.935 163.561
L294.233 200.659
L294.53 230.667
L294.679 235.712
L294.754 233.732
L295.423 192.162
L295.572 191.016
L295.944 177.306
L296.539 190.567
L296.614 189.328
L296.911 184.608
L297.209 180.446
L297.358 183.66
L297.506 188.168
L297.804 179.997
L298.176 192.305
L298.548 170.073
L298.622 171.327
L298.846 194.117
L299.218 232.059
L299.292 234.409
L299.366 234.29
L299.664 207.743
L299.962 177.76
L300.185 172.719
L300.334 176.314
L300.482 182.228
L300.854 205.018
L300.929 204.598
L301.078 196.107
L301.301 185.087
L301.375 186.504
L301.45 185.181
L301.598 168.123
L301.822 132.817
L301.896 134.95
L302.119 162.717
L302.566 226.144
L302.789 241.785
L303.086 223.705
L303.161 225.097
L303.235 227.132
L303.31 226.203
L303.458 215.593
L303.979 147.337
L304.054 148.458
L304.202 168.75
L304.426 199.291
L304.649 202.782
L304.872 196.432
L305.021 207.58
L305.095 201.843
L305.467 132.516
L305.542 133.982
L305.765 153.85
L306.062 230.81
L306.36 209.926
L306.434 213.579
L306.732 260.344
L306.881 240.161
L307.253 167.545
L307.55 151.889
L307.699 154.615
L307.922 174.156
L308.22 200.975
L308.294 200.945
L308.369 201.197
L308.592 208.77
L308.666 207.97
L309.187 174.867
L309.485 150.339
L309.634 157.671
L309.782 171.949
L310.08 223.335
L310.378 199.701
L310.601 212.72
L310.675 212.483
L310.973 204.352
L311.122 198.175
L311.196 198.328
L311.419 202.169
L311.568 200.017
L311.717 203.27
L311.791 202.964
L311.94 200.061
L312.089 180.816
L312.312 135.311
L312.386 142.993
L312.684 198.067
L312.758 199.163
L312.833 199.143
L313.056 188.405
L313.13 188.059
L313.205 188.513
L313.502 197.854
L313.577 195.139
L313.949 169.525
L314.395 190.276
L314.618 220.249
L314.693 216.299
L315.065 157.73
L315.139 158.486
L315.288 173.46
L315.883 268.91
L315.958 269.398
L316.106 248.208
L316.553 156.53
L316.925 121.037
L317.074 134.748
L317.371 167.619
L318.487 225.092
L318.636 216.013
L318.859 201.37
L319.008 202.036
L319.082 201.547
L319.306 191.935
L319.38 192.695
L319.901 211.589
L319.975 212.128
L320.124 204.115
L320.57 157.508
L320.645 157.671
L320.719 159.809
L320.794 159.754
L320.868 159.665
L320.942 159.73
L321.017 161.231
L321.24 177.953
L321.314 178.091
L321.538 155.839
L321.612 156.787
L321.761 168.745
L322.058 236.813
L322.356 283.746
L322.505 297.678
L322.654 269.64
L323.1 149.929
L323.249 160.816
L323.323 160.648
L323.546 141.433
L323.695 144.8
L323.77 147.53
L323.844 146.612
L323.993 138.747
L324.142 158.782
L324.365 202.55
L324.439 201.049
L324.662 181.231
L325.109 222.14
L325.332 215.835
L325.481 209.353
L325.63 214.779
L325.853 220.713
L325.927 221.167
L326.076 212.044
L326.448 170.409
L326.746 149.105
L326.82 150.018
L327.192 179.049
L327.415 156.496
L327.564 204.213
L327.787 270.756
L327.862 272.44
L328.085 237.692
L328.531 154.012
L328.754 148.562
L328.903 159.167
L329.126 179.523
L329.201 179.829
L329.424 160.574
L329.498 164.701
L329.945 239.637
L330.019 237.144
L330.838 152.309
L330.912 149.855
L331.135 181.014
L331.433 224.288
L331.582 226.648
L331.656 225.522
L332.102 207.358
L332.4 195.075
L332.698 160.297
L332.772 160.446
L332.846 161.798
L332.995 178.718
L333.218 200.698
L333.367 210.799
L333.516 201.024
L333.59 195.534
L333.665 196.398
L333.739 193.816
L334.186 153.361
L334.334 145.372
L334.483 158.007
L334.93 206.139
L335.004 205.778
L335.078 208.667
L335.302 227.033
L335.748 206.405
L335.822 209.076
L336.046 216.24
L336.12 216.838
L336.343 199.775
L336.492 190.241
L336.566 189.387
L336.864 167.254
L337.013 180.856
L337.162 193.361
L337.236 193.386
L337.385 187.837
L337.608 168.33
L337.757 162.652
L337.831 164.208
L337.98 171.352
L338.054 170.873
L338.129 171.213
L338.278 175.711
L338.575 211.831
L338.873 252.039
L338.947 249.897
L339.542 124.177
L339.617 128.433
L339.989 238.546
L340.063 235.614
L340.361 184.529
L340.435 193.253
L340.584 276.488
L340.658 254.715
L340.956 104.049
L341.402 216.571
L341.477 211.259
L341.626 204.036
L341.7 204.184
L341.849 206.939
L342.072 239.943
L342.146 239.395
L342.37 207.768
L342.593 174.092
L342.667 172.818
L342.742 172.833
L342.965 144.207
L343.114 160.11
L343.337 194.759
L343.486 182.781
L343.932 109.553
L344.081 154.333
L344.378 297.17
L344.453 297.012
L344.899 215.677
L344.974 219.622
L345.048 221.133
L345.197 199.029
L345.569 132.269
L345.718 125.861
L345.866 138.367
L346.164 193.648
L346.536 247.542
L346.61 245.29
L347.131 187.516
L347.206 189.545
L347.354 190.142
L347.429 190.147
L347.503 187.768
L347.875 133.938
L347.95 140.751
L348.396 219.899
L348.545 235.105
L348.619 234.74
L349.289 171.258
L349.438 186
L349.661 203.966
L349.81 193.87
L350.033 145.027
L350.182 119.294
L350.256 122.943
L350.851 251.625
L350.926 251.407
L351 252.252
L351.149 233.821
L351.446 175.499
L351.744 93.6707
L351.893 83.8655
L351.967 88.9804
L352.116 145.693
L352.488 333.132
L352.637 345.272
L352.786 295.481
L353.083 152.275
L353.306 109.766
L353.381 105.727
L353.53 127.332
L353.753 170.493
L353.827 163.492
L353.902 169.431
L354.274 231.802
L354.348 240.131
L355.018 166.661
L355.241 184.307
L355.315 187.081
L355.464 148.666
L355.613 112.308
L355.687 118.268
L355.91 182.46
L356.134 234.616
L356.357 247.147
L356.506 253.456
L356.803 241.592
L356.878 239.988
L357.026 219.672
L357.175 194.857
L357.324 201.226
L357.398 198.412
L357.547 172.3
L357.919 47.1184
L358.217 139.196
L358.589 236.132
L358.812 248.337
L359.035 286.328
L359.11 284.827
L359.407 244.495
L359.63 196.566
L359.705 197.741
L359.854 177.271
L360.077 116.707
L360.3 52.9985
L360.374 65.7906
L360.672 229.758
L360.746 228.85
L360.895 211.046
L361.193 269.497
L361.267 259.549
L361.49 210.701
L361.862 119.324
L361.937 123.224
L362.606 253.466
L362.755 233.017
L362.978 175.632
L363.202 140.188
L363.276 139.868
L363.574 194.245
L363.648 192.621
L363.722 181.414
L363.797 184.169
L363.946 235.1
L364.02 231.313
L364.243 170.582
L364.318 192.132
L364.466 144.232
L364.541 153.751
L364.764 266.979
L364.913 225.705
L365.21 166.879
L365.285 161.551
L365.508 184.805
L365.731 174.497
L365.806 175.677
L365.954 193.302
L366.178 235.199
L366.475 177.301
L366.55 178.096
L366.773 149.821
L366.847 150.749
L367.07 171.761
L367.368 228.01
L367.442 225.912
L367.517 218.185
L367.814 133.77
L368.038 169.52
L368.41 249.551
L368.558 263.39
L368.707 255.402
L368.856 216.304
L369.079 138.283
L369.526 237.035
L369.6 233.688
L369.674 232.306
L370.046 188.089
L370.493 94.5693
L370.642 108.452
L371.014 158.643
L371.534 271.166
L371.683 265.631
L371.758 266.629
L371.832 268.683
L372.204 246.732
L372.427 200.456
L372.65 164.158
L372.874 146.992
L373.097 121.412
L373.171 120.667
L373.246 121.255
L373.394 136.273
L373.841 200.273
L373.915 202.594
L373.99 202.076
L374.138 198.763
L374.287 206.519
L374.585 231.363
L374.734 223.463
L375.031 204.747
L375.329 199.365
L375.552 203.552
L375.626 203.038
L375.775 194.403
L376.222 165.205
L376.37 162.835
L376.519 165.946
L376.742 172.517
L377.04 184.287
L377.114 184.494
L377.189 185.107
L377.338 189.511
L377.561 197.321
L377.71 198.284
L377.858 191.801
L378.082 184.949
L378.156 184.978
L378.23 183.853
L378.305 184.563
L378.677 196.551
L378.826 213.154
L379.198 258.67
L379.272 261.534
L379.346 258.887
L379.495 241.4
L380.09 140.139
L380.239 137.088
L380.462 128.823
L380.611 138.149
L381.058 184.48
L381.132 184.267
L381.206 182.885
L381.281 184.549
L381.504 202.949
L381.727 216.388
L381.95 213.806
L382.174 208.943
L382.322 216.369
L382.694 241.232
L382.843 231.155
L383.662 143.225
L383.81 139.695
L384.034 143.393
L384.108 147.644
L384.257 177.375
L384.629 251.412
L384.703 259.144
L384.778 257.974
L384.926 235.475
L385.15 150.68
L385.224 155.084
L385.447 178.461
L385.596 181.083
L385.745 167.427
L385.819 169.174
L386.042 185.205
L386.117 185.877
L386.266 209.866
L386.414 234.646
L386.489 231.298
L386.935 178.97
L387.01 180.288
L387.382 222.629
L387.456 220.856
L388.2 132.64
L388.274 133.306
L388.423 140.208
L388.572 159.172
L388.87 221.345
L388.944 219.36
L389.167 195.514
L389.316 214.221
L389.539 246.727
L389.614 246.219
L389.762 233.575
L390.358 148.152
L390.432 149.697
L390.804 188.533
L390.878 188.656
L390.953 188.331
L391.027 188.548
L391.176 192.172
L391.25 194.936
L391.548 214.073
L391.846 210.098
L391.92 210.765
L392.143 192.527
L392.59 137.434
L392.738 148.799
L392.962 203.507
L393.185 246.337
L393.259 244.328
L393.557 198.447
L394.003 146.172
L394.078 144.084
L394.152 147.456
L395.119 247.907
L395.194 248.578
L395.342 241.232
L395.64 204.445
L396.235 105.994
L396.31 104.305
L396.384 105.688
L396.607 143.748
L397.202 243.074
L397.351 249.709
L397.426 248.672
L397.574 237.381
L397.872 206.909
L398.765 164.272
L398.839 166.632
L398.988 170.873
L399.36 193.1
L399.732 199.36
L399.955 191.416
L400.178 184.82
L400.253 185.067
L400.402 192.66
L400.774 223.917
L400.922 210.839
L401.369 162.011
L401.443 163.674
L401.592 161.991
L401.741 170.473
L402.262 201.74
L402.336 201.888
L402.634 191.396
L402.782 186.247
L402.931 192.186
L403.526 230.143
L403.601 228.825
L403.75 213.564
L404.27 149.451
L404.345 146.385
L404.419 148.335
L404.866 186.445
L404.94 185.383
L405.238 175.326
L405.386 182.9
L406.056 251.215
L406.13 247.384
L406.354 203.734
L406.726 133.341
L406.874 128.621
L407.023 137.236
L407.767 216.808
L407.99 218.847
L408.214 207.363
L408.511 191.135
L408.586 190.829
L408.66 191.624
L409.106 213.026
L409.181 214.038
L409.478 200.585
L409.776 181.315
L409.925 182.031
L409.999 182.011
L410.074 182.105
L410.148 181.596
L410.297 182.396
L410.371 182.914
L410.446 182.761
L410.594 174.339
L410.743 164.864
L410.818 166
L411.636 200.387
L411.71 200.688
L411.785 202.071
L411.934 199.375
L412.454 183.438
L412.826 190.784
L413.05 202.406
L413.124 202.342
L413.198 202.791
L413.422 208.464
L413.496 208.38
L413.645 207.126
L413.868 217.08
L414.017 222.343
L414.24 213.52
L414.835 138.544
L414.91 138.579
L414.984 139.028
L415.058 141.245
L415.802 214.201
L415.877 213.214
L416.174 201.355
L416.249 202.164
L416.398 197.918
L416.472 199.385
L416.621 203.626
L416.77 201.71
L417.29 218.546
L417.365 217.257
L417.514 202.071
L417.96 133.824
L418.034 134.496
L418.183 151.835
L418.555 208.894
L418.63 208.375
L418.778 204.218
L418.853 204.969
L418.927 204.435
L419.299 189.905
L419.522 187.96
L419.597 189.649
L419.894 201.72
L420.043 205.23
L420.118 204.055
L420.266 198.773
L420.713 204.638
L420.862 210.054
L420.936 208.153
L421.234 191.92
L421.382 189.733
L421.531 181.685
L421.829 162.978
L421.903 161.946
L421.978 162.697
L422.275 175.035
L422.796 218.398
L423.094 201.666
L423.168 200.594
L423.54 183.102
L424.135 137.819
L424.284 151.618
L424.879 267.419
L425.028 261.677
L425.251 217.702
L425.623 156.782
L425.846 144.276
L425.921 145.481
L426.144 181.251
L426.442 228.874
L426.516 232.399
L426.59 229.21
L427.26 148.863
L427.409 162.213
L427.781 206.978
L427.855 208.938
L427.93 208.015
L428.078 205.69
L428.376 191.594
L428.45 192.739
L428.599 200.14
L428.748 190.518
L429.12 157.069
L429.492 182.218
L430.013 243.429
L430.087 243.128
L430.31 213.382
L430.757 158.969
L430.831 161.64
L431.129 179.157
L431.352 172.127
L431.426 173.376
L431.575 192.892
L431.873 230.242
L432.022 216.986
L432.394 178.797
L432.617 172.621
L432.766 175.869
L432.914 174.897
L432.989 176.012
L433.361 198.965
L433.435 198.516
L433.658 194.695
L433.733 192.838
L433.807 193.445
L433.882 193.84
L434.03 196.635
L434.179 188.933
L434.254 189.738
L434.477 205.151
L434.7 221.636
L434.849 199.33
L435.146 148.275
L435.221 143.042
L435.295 145.896
L435.518 183.176
L435.816 249.517
L435.89 248.509
L436.337 180.698
L436.411 179.217
L436.709 189.061
L436.932 175.756
L437.155 167.111
L437.378 174.235
L437.453 172.991
L437.527 170.888
L437.602 171.781
L437.825 180.683
L438.346 216.991
L438.643 262.096
L438.718 251.333
L438.941 208.583
L439.09 205.68
L439.238 168.463
L439.313 152.344
L439.387 160.105
L439.536 184.011
L439.61 175.529
L439.834 118.722
L440.057 183.482
L440.28 246.312
L440.354 241.632
L440.801 177.681
L440.95 172.023
L441.173 189.051
L441.396 160.391
L441.47 161.705
L441.545 155.834
L441.694 116.688
L441.768 116.865
L442.214 252.217
L442.289 247.892
L442.586 214.009
L442.661 218.664
L442.735 212.3
L442.884 160.816
L442.958 169.841
L443.182 219.43
L443.405 192.443
L443.554 178.915
L443.702 245.468
L443.851 290.747
L444.149 164.055
L444.298 88.7681
L444.372 92.1155
L444.521 107.648
L444.67 99.9853
L444.818 127.5
L445.116 229.531
L445.265 249.714
L445.339 249.413
L445.637 183.25
L445.786 189.634
L445.86 191.475
L446.009 156.511
L446.083 159.038
L446.306 264.92
L446.604 205.729
L446.753 201.764
L446.827 200.757
L447.05 207.551
L447.422 192.754
L447.646 209.659
L447.72 209.738
L447.943 222.713
L448.018 218.887
L448.166 183.764
L448.464 92.0118
L448.91 126.172
L449.059 138.179
L449.357 223.878
L449.58 273.141
L449.654 277.021
L449.729 276.073
L449.878 271.023
L449.878 271.023" style="fill:none;stroke:#808080;stroke-linecap:square;"/>
   </g>
  </g>
 </g>
 <defs>
  <clipPath id="p7ff5b81e1d">
   <rect height="345.6" width="446.4" x="72.0" y="43.2"/>
  </clipPath>
 </defs>
</svg>
