<?xml version="1.0" encoding="utf-8" standalone="no"?>
<!DOCTYPE svg PUBLIC "-//W3C//DTD SVG 1.1//EN"
  "http://www.w3.org/Graphics/SVG/1.1/DTD/svg11.dtd">
<!-- Created with matplotlib (http://matplotlib.org/) -->
<svg height="432pt" version="1.1" viewBox="0 0 576 432" width="576pt" xmlns="http://www.w3.org/2000/svg" xmlns:xlink="http://www.w3.org/1999/xlink">
 <defs>
  <style type="text/css">
*{stroke-linecap:butt;stroke-linejoin:round;}
  </style>
 </defs>
 <g id="figure_1">
  <g id="patch_1">
   <path d="
M0 432
L576 432
L576 0
L0 0
z
" style="fill:#ffffff;"/>
  </g>
  <g id="axes_1">
   <g id="line2d_1">
    <path clip-path="url(#p7ff5b81e1d)" d="
M72 285.552
L72.5952 174.01
L72.744 169.8
L73.0416 157.865
L73.1904 147.808
L73.2648 148.637
L73.3392 154.276
L73.86 239.893
L74.0832 248.435
L74.3064 286.946
L74.4552 315.28
L74.9016 258.365
L74.976 253.613
L75.1992 170.237
L75.4224 116.721
L75.6456 143.81
L76.3152 231.731
L76.464 239.496
L76.5384 245.1
L76.6128 244.282
L77.4312 207.055
L77.5056 209.486
L77.6544 221.645
L77.7288 220.983
L78.0264 233.724
L78.1752 228.448
L78.2496 228.5
L78.696 204.446
L78.8448 204.976
L79.1424 200.915
L79.2168 202.77
L79.44 215.062
L79.812 231.604
L79.8864 232.48
L80.0352 222.112
L80.184 214.255
L80.2584 215.136
L80.3328 214.704
L80.4816 213.092
L80.7792 200.955
L80.8536 201.261
L81.5232 249.616
L81.672 242.675
L82.1928 180.905
L82.4904 164.909
L82.5648 168.1
L83.16 225.407
L83.4576 246.868
L83.6808 278.433
L83.7552 278.22
L84.276 202.153
L84.4992 177.91
L84.5736 176.544
L84.648 177.264
L84.7224 180.761
L85.02 208.04
L85.2432 227.791
L85.3176 230.556
L85.4664 241.085
L85.5408 240.411
L85.6152 240.936
L85.6896 239.91
L85.9128 221.225
L86.2848 179.868
L86.3592 175.07
L86.4336 175.306
L86.508 172.875
L86.5824 173.065
L86.9544 207.418
L87.252 247.767
L87.4008 258.584
L87.5496 251.096
L87.624 253.74
L87.6984 257.611
L87.7728 253.354
L88.0704 222.043
L88.2192 230.953
L88.368 237.497
L88.4424 237.076
L88.5168 238.102
L88.6656 218.898
L89.112 138.477
L89.1864 143.989
L89.3352 162.288
L89.7816 246.891
L89.856 249.506
L89.9304 249.161
L90.3024 232.658
L90.6 217.02
L90.6744 218.189
L90.8232 226.991
L91.0464 241.189
L91.1208 234.104
L91.4928 152.151
L91.5672 155.273
L91.7904 205.627
L92.088 275.265
L92.1624 276.175
L92.2368 273.122
L92.5344 239.346
L92.6088 240.492
L92.6832 240.734
L92.832 228.143
L93.2784 158.723
L93.5016 167.121
L94.5432 274.407
L94.6176 269.298
L94.9152 229.992
L95.2872 188.946
L95.3616 188.295
L95.7336 204.532
L96.2544 254.65
L96.3288 253.544
L96.552 222.849
L96.924 179.868
L97.1472 190.455
L97.2216 191.209
L97.3704 196.52
L97.4448 195.737
L97.5192 197.108
L97.668 209.123
L97.7424 207.435
L97.9656 200.166
L98.1144 208.271
L98.2632 230.55
L98.5608 280.057
L98.7096 266.337
L98.9328 207.055
L99.2304 149.818
L99.3792 141.76
L99.528 170.404
L100.049 298.708
L100.123 298.639
L100.272 287.223
L100.57 236.604
L101.09 157.686
L101.314 146.8
L101.686 179.897
L102.058 225.504
L102.132 223.776
L102.355 208.438
L102.43 211.721
L102.95 286.549
L103.099 274.522
L103.248 246.344
L103.62 172.662
L103.769 167.386
L104.066 203.547
L104.29 226.875
L104.364 225.309
L104.81 240.555
L104.885 239.956
L105.034 230.159
L105.406 193.634
L105.629 182.644
L105.703 182.662
L106.224 216.352
L106.447 229.963
L106.67 217.711
L106.968 231.455
L107.117 229.738
L107.489 238.643
L107.563 237.278
L107.935 205.512
L108.01 206.45
L108.084 208.645
L108.158 207.09
L108.233 208.345
L108.456 217.343
L108.53 216.651
L108.754 207.389
L108.977 187.92
L109.2 167.144
L109.423 192.488
L109.646 227.451
L109.944 249.04
L110.018 248.781
L110.242 224.485
L110.39 247.911
L110.614 314.831
L110.688 309.9
L111.283 112.994
L111.432 131.565
L111.953 251.603
L112.027 257.156
L112.102 255.963
L112.25 249.691
L112.474 251.787
L112.697 255.687
L112.771 255.163
L112.92 242.75
L113.441 156.459
L113.515 156.649
L113.813 189.862
L114.185 286.647
L114.334 262.109
L114.854 133.045
L114.929 133.609
L115.152 157.404
L115.301 183.243
L115.822 334.772
L115.896 334.766
L116.045 316.8
L116.491 220.125
L116.789 147.433
L117.012 131.57
L117.086 131.881
L117.31 128.166
L117.384 129.802
L117.533 144.104
L117.979 253.763
L118.277 303.04
L118.351 305.217
L118.426 303.921
L118.649 285.195
L119.17 211.663
L119.616 157.894
L119.69 156.177
L119.765 156.586
L119.988 176.28
L120.434 225.401
L120.583 228.696
L120.658 228.361
L120.806 223.99
L120.881 224.203
L120.955 225.32
L121.178 221.588
L121.253 223.154
L121.327 222.169
L121.476 215.983
L121.625 203.087
L121.699 203.83
L121.774 202.39
L121.922 197.24
L122.294 211.669
L122.666 258.861
L122.741 258.394
L123.559 208.783
L123.634 209.883
L123.931 201.359
L124.006 200.8
L124.08 201.802
L124.229 199.227
L124.378 205.437
L124.526 218.253
L124.75 237.37
L124.898 243.568
L125.047 229.26
L125.494 167.928
L125.568 167.294
L125.791 183.111
L126.089 202.418
L126.163 203.536
L126.238 203.409
L126.461 221.64
L126.982 278.969
L127.056 278.329
L127.205 262.219
L127.502 234.121
L127.726 224.064
L128.246 198.312
L128.544 187.056
L128.767 177.696
L128.916 170.583
L128.99 171.291
L130.106 239.726
L130.404 266.47
L130.553 256.234
L130.627 256.47
L130.776 246.223
L131.074 232.48
L131.222 231.051
L131.297 226.138
L131.594 177.858
L131.669 173.676
L131.743 173.952
L131.966 178.048
L132.19 195.103
L132.264 193.208
L132.338 193.6
L132.71 216.841
L132.859 230.475
L133.082 265.485
L133.157 261.13
L133.529 195.288
L133.603 196.537
L134.05 232.808
L134.496 214.307
L134.645 215.695
L134.794 219.324
L134.942 215.712
L135.091 235.21
L135.166 242.813
L135.314 221.208
L135.686 133.886
L135.835 144
L135.91 150.469
L136.133 217.037
L136.505 320.026
L136.654 310.13
L136.951 250.831
L137.398 162.484
L137.546 155.198
L138.067 193.456
L138.216 198.859
L138.737 229.992
L138.886 232.664
L139.034 221.968
L139.406 196.687
L139.63 214.14
L140.002 251.592
L140.076 252.945
L140.225 252.162
L140.299 253.826
L140.374 252.473
L140.671 222.97
L141.118 190.996
L141.266 196.463
L141.341 196.29
L141.415 198.335
L141.713 212.539
L141.936 218.834
L142.159 213.207
L142.308 214.82
L142.382 214.624
L142.457 213.76
L142.531 214.543
L142.68 212.798
L142.754 213.754
L142.829 218.644
L142.903 217.429
L143.126 203.208
L143.275 198.882
L143.35 200.12
L143.573 210.828
L144.019 245.952
L144.094 244.875
L144.317 240.187
L144.689 194.688
L144.838 192.914
L145.21 203.945
L145.507 222.884
L145.582 226.697
L145.656 226.069
L145.879 233.632
L146.326 204.728
L146.4 205.252
L146.474 206.779
L146.772 198.3
L146.846 199.481
L146.995 208.386
L147.218 231.887
L147.442 249.754
L147.59 255.364
L147.665 255.048
L147.962 238.205
L148.558 170.761
L148.632 171.746
L148.781 181.101
L149.227 225.43
L149.376 230.199
L149.748 217.896
L149.822 219.174
L149.971 214.186
L150.046 214.987
L150.12 220.793
L150.194 220.378
L150.343 210.033
L150.566 215.845
L150.715 217.481
L150.938 226.392
L151.087 223.172
L151.459 244.115
L151.534 245.112
L151.608 244.818
L151.906 212.28
L152.203 183.462
L152.352 184.557
L152.575 169.166
L152.873 196.612
L153.245 236.42
L153.394 246.281
L153.542 258.711
L153.617 258.192
L153.766 248.706
L154.286 191.866
L154.361 191.762
L154.658 199.308
L154.882 209.348
L154.956 209.751
L155.254 224.992
L155.402 229.732
L155.774 241.039
L155.849 244.357
L155.998 239.236
L156.221 203.985
L156.444 181.083
L156.593 176.136
L156.667 176.153
L156.816 188.099
L157.114 214.555
L157.634 244.178
L157.709 245.434
L157.783 244.921
L157.858 244.587
L158.006 241.857
L158.155 233.119
L158.602 192.287
L158.676 192.736
L158.75 191.636
L158.825 192.298
L158.974 204.158
L159.271 228.367
L159.569 242.088
L159.643 241.823
L159.792 234.519
L160.313 186.601
L160.387 184.488
L160.462 185.818
L160.536 185.467
L160.685 187.143
L160.759 185.323
L160.982 192.108
L161.206 217.394
L161.28 217.366
L161.503 229.214
L161.578 228.154
L161.726 226.455
L161.875 229.773
L162.247 242.79
L162.322 241.972
L162.47 237.243
L162.768 220.441
L162.842 220.879
L162.991 224.923
L163.14 221.069
L163.214 221.628
L163.289 223.166
L163.363 223.12
L163.438 220.908
L163.586 225.672
L163.661 225.136
L164.554 158.291
L164.628 160.877
L165.446 260.289
L165.595 263.878
L165.67 263.158
L166.637 185.951
L166.86 197.096
L166.934 198.237
L167.083 206.952
L167.232 216.312
L167.753 225.499
L167.902 212.038
L168.125 190.063
L168.199 190.489
L168.422 186.901
L168.646 201.082
L169.166 255.232
L169.241 256.545
L169.315 255.048
L169.538 233.655
L169.91 189.061
L170.506 221.893
L170.878 245.538
L170.952 244.138
L171.25 217.631
L171.398 210.793
L171.473 212.21
L171.547 212.372
L171.696 209.561
L172.142 180.041
L172.217 181.567
L172.886 243.257
L172.961 242.871
L173.035 245.832
L173.11 244.968
L173.63 207.28
L173.779 213.466
L173.928 219.485
L174.002 219.445
L174.151 225.579
L174.523 214.336
L174.672 215.448
L174.821 216.663
L174.97 220.153
L175.044 219.768
L175.342 224.721
L175.49 221.922
L175.639 224.577
L175.788 215.874
L176.086 194.89
L176.234 187.73
L176.383 177.051
L176.532 184.966
L177.053 219.088
L177.35 243.925
L177.425 242.629
L177.499 243.672
L177.648 250.964
L177.722 250.566
L177.797 249.092
L178.392 219.145
L178.541 217.331
L178.69 220.66
L178.987 212.925
L179.21 210.315
L179.582 194.337
L179.88 201.451
L180.103 213.691
L180.252 211.283
L180.326 209.284
L180.773 149.818
L181.07 170.675
L181.591 335.751
L181.666 338.055
L181.814 328.344
L182.633 178.117
L182.93 114.129
L183.005 114.244
L183.302 148.971
L183.526 170.335
L183.6 168.745
L183.674 169.425
L183.749 172.363
L184.121 221.657
L184.493 280.271
L184.567 284.066
L184.642 283.888
L184.79 279.378
L185.683 225.096
L186.13 179.419
L186.278 172.783
L186.353 174.811
L186.576 189.124
L186.65 189.078
L186.874 174.828
L186.948 175.128
L187.097 193.64
L187.469 238.77
L187.618 243.533
L187.766 229.49
L188.064 199.273
L188.138 196.307
L188.213 196.739
L188.436 215.643
L188.734 247.358
L188.808 244.38
L189.031 230.124
L189.18 234.744
L189.552 215.183
L189.775 247.583
L189.85 239.323
L189.998 221.196
L190.147 236.667
L190.222 235.32
L190.594 205.494
L190.891 171.274
L191.114 190.334
L191.338 162.127
L191.635 195.927
L191.71 191.86
L191.933 163.222
L192.007 166.28
L192.156 196.031
L192.751 379.043
L192.826 371.722
L193.049 239.72
L193.272 140.648
L193.346 130.839
L193.421 131.87
L193.57 145.233
L194.239 237.503
L194.314 239.743
L194.611 228.223
L195.132 196.411
L195.206 197.2
L195.281 195.512
L195.43 186.74
L195.653 196.082
L196.099 227.739
L196.174 226.259
L196.397 217.325
L196.546 217.308
L196.694 218.771
L197.215 256.92
L197.438 248.873
L198.034 190.824
L198.331 171.775
L198.48 178.716
L199.075 225.044
L199.15 225.787
L199.373 220.994
L199.447 222.348
L199.522 222.78
L199.596 222.354
L199.968 212.873
L200.042 214.543
L200.117 216.496
L200.191 213.178
L200.489 234.363
L200.638 242.543
L200.712 239.398
L200.861 203.069
L201.084 145.124
L201.605 293.904
L201.679 298.536
L201.754 297.332
L201.902 272.379
L202.423 159.334
L202.498 159.357
L202.646 158.994
L202.721 161.689
L203.093 186.982
L203.242 190.691
L203.316 190.161
L203.539 197.113
L203.688 206.773
L204.134 270.778
L204.358 279.821
L204.581 269.701
L205.176 184.614
L205.25 186.348
L205.474 226.063
L205.548 221.3
L205.771 170.56
L206.069 220.234
L206.143 217.993
L206.441 187.863
L206.738 167.553
L206.813 168.786
L206.887 169.569
L207.036 183.03
L207.482 273.151
L207.929 240.815
L208.078 249.656
L208.301 238.816
L208.45 222.699
L208.598 207.044
L208.673 209.296
L208.97 233.062
L209.045 228.776
L209.417 185.254
L209.64 188.877
L209.714 192.114
L210.086 229.871
L210.235 242.652
L210.31 241.679
L210.83 178.854
L210.905 179.275
L211.054 189.867
L211.277 207.695
L211.426 210.477
L211.574 202.931
L211.872 188.796
L212.021 206.859
L212.393 284.015
L212.467 277.972
L212.765 217.106
L212.839 216.415
L212.914 218.973
L213.286 242.566
L213.36 241.644
L213.509 232.641
L214.03 199.584
L214.104 199.458
L214.178 202.862
L214.402 221.835
L214.848 189.021
L214.997 175.3
L215.071 175.657
L215.146 176.596
L215.22 179.355
L215.294 177.207
L215.518 165.785
L215.666 175.652
L216.187 240.4
L216.559 272.143
L216.634 274.096
L216.857 270.571
L217.601 221.248
L217.824 205.949
L218.122 176.568
L218.345 164.016
L218.419 164.345
L218.568 179.966
L218.866 207.712
L218.94 208.547
L219.089 207.268
L219.238 211.715
L219.386 216.513
L219.833 235.988
L219.982 231.455
L220.13 238.637
L220.354 228.085
L220.428 224.376
L220.502 225.827
L220.577 226.518
L220.726 217.4
L220.8 212.93
L220.874 215.597
L221.023 230.694
L221.098 230.631
L221.246 225.51
L221.321 225.297
L221.395 222.596
L221.47 222.838
L221.693 224.024
L221.842 217.285
L222.288 197.482
L222.362 197.937
L222.437 200.051
L222.511 199.072
L223.032 176.066
L223.255 197.298
L223.478 210.517
L223.553 211.467
L224.52 266.856
L224.594 264.747
L224.966 228.315
L225.338 174.517
L225.413 173.952
L226.529 228.269
L226.678 224.842
L227.124 198.196
L227.273 204.048
L227.496 205.189
L227.57 204.308
L227.645 204.866
L228.463 253.872
L228.538 254.829
L229.505 184.776
L229.654 186.515
L230.1 209.745
L230.472 237.186
L230.621 246.914
L230.918 232.526
L231.365 183.56
L231.439 178.595
L231.514 179.223
L231.811 188.554
L231.886 189.303
L232.034 199.613
L232.481 260.848
L232.555 261.533
L232.63 259.229
L232.927 244.109
L233.15 228.166
L233.374 203.524
L233.671 176.429
L234.043 200.604
L234.415 243.378
L234.49 241.085
L234.564 233.77
L234.638 233.776
L234.713 233.373
L234.862 215.413
L235.085 189.147
L235.457 170.917
L235.531 173.901
L236.35 281.14
L236.424 280.294
L236.498 276.365
L237.019 218.178
L237.168 211.905
L237.689 173.411
L237.763 175.064
L237.838 178.353
L237.912 178.036
L237.986 176.176
L238.061 178.019
L238.358 204.642
L238.656 234.559
L238.954 242.917
L239.102 231.616
L239.4 202.568
L239.549 193.243
L239.623 193.6
L240.144 244.259
L240.218 242.208
L240.293 241.909
L240.516 250.739
L240.59 250.52
L240.814 230.85
L240.888 230.233
L241.037 224.56
L241.26 214.503
L241.334 216.26
L241.483 222.878
L241.632 217.625
L241.855 188.819
L241.93 190.645
L242.004 191.97
L242.302 186.97
L242.376 187.512
L242.599 203.663
L242.822 196.221
L243.269 174.229
L243.418 189.435
L244.162 286.111
L244.31 290.23
L244.608 270.288
L245.278 182.172
L245.501 169.713
L245.65 166.614
L245.724 167.985
L246.394 218.425
L246.468 216.732
L246.617 221.294
L246.691 220.027
L247.138 191.895
L247.212 194.372
L247.435 205.656
L248.254 265.191
L248.328 266.631
L248.626 250.969
L249.295 156.937
L249.37 156.114
L249.518 168.803
L250.337 263.348
L250.411 262.288
L250.634 242.047
L251.081 167.588
L251.155 164.909
L251.453 178.658
L252.197 278.093
L252.271 283.531
L252.346 282.58
L252.718 230.193
L253.09 156.35
L253.313 151.477
L253.462 167.985
L253.908 225.119
L254.28 256.885
L254.503 250.768
L254.652 227.313
L254.95 175.704
L255.098 165.618
L255.173 164.016
L255.247 166.793
L255.545 208.086
L256.214 296.577
L256.363 291.099
L256.512 271.844
L257.107 143.551
L257.182 143.839
L257.479 163.446
L257.777 211.185
L258.074 243.47
L258.223 250.255
L258.298 250.203
L258.521 246.84
L258.67 227.198
L258.967 183.001
L259.116 181.152
L259.265 191.941
L259.637 228.546
L260.083 257.588
L260.232 263.653
L260.306 262.196
L260.455 246.69
L260.753 209.958
L261.125 140.164
L261.274 147.301
L261.422 160.82
L261.869 237.704
L262.092 273.076
L262.166 272.886
L262.241 274.269
L262.315 277.748
L262.39 274.505
L262.613 238.176
L262.91 189.136
L263.059 182.852
L263.357 192.88
L263.803 224.312
L264.25 259.01
L264.324 251.24
L264.845 181.193
L265.068 168.803
L265.142 172.04
L265.663 221.317
L265.812 228.356
L266.11 249.443
L266.184 249.316
L266.258 251.926
L266.333 250.86
L266.705 213.455
L266.854 197.592
L267.002 176.026
L267.077 178.808
L267.449 211.485
L267.598 218.529
L267.672 218.667
L267.821 224.018
L268.267 256.274
L268.416 237.975
L268.639 216.674
L269.011 194.274
L269.16 203.161
L269.234 202.344
L269.309 200.569
L269.606 221.835
L269.755 220.966
L269.83 221.11
L269.904 220.378
L270.35 203.334
L270.574 183.117
L270.648 187.045
L270.722 185.271
L270.797 185.645
L270.946 197.989
L271.69 279.816
L271.764 278.664
L271.913 264.338
L272.359 212.614
L272.582 196.123
L272.88 170.111
L273.029 173.019
L273.103 170.427
L273.178 171.597
L273.326 182.685
L273.698 225.539
L273.996 252.962
L274.294 224.093
L274.591 183.007
L274.666 183.537
L274.74 182.892
L275.038 208.144
L275.558 261.389
L275.633 263.181
L275.707 261.977
L275.856 253.383
L276.526 194.798
L276.6 196.56
L276.674 196.301
L276.749 196.474
L276.898 210.724
L276.972 210.563
L277.121 204.815
L277.344 208.685
L277.493 205.212
L277.567 205.419
L277.642 206.312
L277.865 216.248
L277.939 216.381
L278.162 195.351
L278.237 195.858
L278.534 180.669
L278.832 200.846
L279.204 269.937
L279.427 281.112
L279.725 256.05
L280.469 170.727
L280.618 166.194
L280.99 183.894
L281.138 203.455
L281.362 234.041
L281.659 263.63
L281.734 262.224
L281.808 260.433
L281.957 245.463
L282.478 154.835
L282.552 159.201
L283.296 279.464
L283.37 284.688
L283.445 283.778
L283.742 259.028
L284.338 161.563
L284.561 157.957
L284.635 157.387
L284.784 152.629
L285.305 239.732
L285.379 235.872
L285.454 237.721
L285.677 257.035
L285.9 253.953
L285.974 252.801
L286.123 229.49
L286.421 180.271
L286.57 168.025
L286.718 177.207
L287.165 238.441
L287.462 282.143
L287.686 269.741
L288.058 196.756
L288.355 162.225
L288.43 157.156
L288.504 159.299
L288.876 204.457
L289.025 210.747
L289.397 235.602
L289.546 237.134
L289.62 236.529
L290.066 205.166
L290.29 202.551
L290.513 193.767
L290.587 193.692
L290.662 190.449
L290.736 192.073
L291.034 234.744
L291.48 287.424
L291.554 289.066
L291.703 269.845
L292.373 130.407
L292.447 132.169
L292.894 208.524
L293.191 241.506
L293.414 248.475
L293.489 247.882
L293.638 235.723
L294.233 176.781
L294.679 197.666
L294.977 234.219
L295.349 286.376
L295.423 288.657
L295.498 283.548
L296.242 151.926
L296.316 149.847
L296.539 174.84
L297.134 263.296
L297.358 252.83
L297.73 218.846
L298.176 162.6
L298.325 150.1
L298.399 151.65
L298.92 250.889
L299.143 293.697
L299.218 299.129
L299.292 299.037
L299.366 296.733
L299.515 283.381
L300.334 137.751
L300.408 141.8
L301.226 258.832
L301.301 259.218
L301.375 258.659
L301.598 241.851
L302.045 190.034
L302.194 179.177
L302.268 172.674
L302.342 173.077
L302.789 214.768
L303.161 288.968
L303.31 296.249
L303.458 283.68
L304.202 133.287
L304.277 135.752
L304.426 150.181
L304.5 152.076
L304.649 173.711
L305.17 266.066
L305.244 266.677
L305.393 273.577
L305.467 268.163
L306.062 178.146
L306.211 174.891
L306.286 175.179
L306.583 195.806
L307.327 289.487
L307.476 272.08
L308.22 138.575
L308.294 135.251
L308.443 150.014
L309.336 281.785
L309.41 283.03
L309.485 280.15
L309.782 214.566
L310.006 175.502
L310.154 165.698
L310.229 166.004
L310.675 201.641
L310.898 245.302
L311.047 255.278
L311.27 280.415
L311.345 281.123
L311.494 260.975
L312.089 160.756
L312.163 156.534
L312.238 156.667
L312.386 163.354
L312.461 163.314
L312.61 182.385
L312.907 232.618
L313.056 246.402
L313.279 276.55
L313.354 275.075
L313.8 210.396
L314.098 162.168
L314.246 172.478
L314.395 182.944
L314.47 182.011
L314.693 203.668
L315.214 286.918
L315.288 286.687
L315.437 279.303
L315.586 250.958
L315.958 175.704
L316.255 144.974
L316.33 145.435
L316.404 150.187
L317.148 261.251
L317.222 264.528
L317.371 251.332
L317.966 189.021
L318.115 183.088
L318.264 190.772
L318.413 202.176
L318.562 210.494
L319.157 278.324
L319.231 276.953
L319.38 259.08
L319.826 174.886
L320.124 141.385
L320.273 153.24
L320.942 247.323
L321.017 254.978
L321.091 254.569
L321.463 217.953
L321.538 206.761
L321.612 207.735
L321.686 209.63
L321.91 203.277
L322.058 196.952
L322.133 199.383
L322.282 214.37
L322.43 208.443
L322.728 241.206
L322.951 269.931
L323.026 270.565
L323.249 266.763
L323.398 245.008
L323.993 138.298
L324.067 137.641
L324.216 149.599
L325.109 266.752
L325.183 267.823
L325.406 247.83
L325.927 189.084
L326.002 189.119
L326.15 198.288
L326.299 212.245
L326.448 208.34
L326.522 212.66
L326.82 252.185
L327.043 265.565
L327.118 263.958
L327.415 236.137
L327.787 157.197
L327.862 159.443
L327.936 161.373
L328.085 158.475
L328.234 178.802
L328.457 204.982
L328.606 199.089
L328.754 212.619
L329.201 269.609
L329.275 269.782
L329.424 243.476
L329.722 174.914
L329.796 170.036
L329.87 171.286
L330.019 186.486
L330.317 248.896
L330.391 250.952
L330.614 277.126
L330.763 274.332
L330.912 265.652
L331.21 225.741
L331.73 142.969
L331.954 133.702
L332.028 131.432
L332.102 133.402
L332.326 185.559
L332.623 246.108
L332.846 265.652
L332.921 264.713
L332.995 265.738
L333.218 264.016
L333.442 254.04
L333.888 198.012
L334.037 168.463
L334.186 174.816
L334.409 191.785
L334.483 189.631
L334.558 191.544
L335.153 277.776
L335.302 253.389
L335.599 193.761
L335.822 174.373
L335.897 173.918
L336.194 205.725
L336.418 231.213
L336.641 215.626
L336.715 216.864
L336.79 216.628
L336.864 215.58
L336.938 215.782
L337.013 218.063
L337.385 202.729
L337.608 178.33
L337.831 208.242
L337.98 225.66
L338.129 219.543
L338.278 229.629
L338.501 239.962
L338.575 243.199
L338.798 267.84
L338.873 267.76
L339.022 248.043
L339.468 189.337
L339.766 174.056
L339.84 176.164
L339.989 190.15
L340.286 228.327
L340.435 222.331
L340.807 229.168
L340.882 228.379
L341.105 216.352
L341.626 162.882
L341.7 166.862
L342.37 269.315
L342.518 263.688
L342.593 267.581
L342.742 281.342
L343.114 257.167
L343.783 135.268
L343.858 132.296
L343.932 133.114
L344.081 155.82
L344.602 245.434
L344.899 265.992
L345.122 250.918
L345.718 159.126
L345.866 183.871
L346.164 234.663
L346.462 280
L346.61 287.24
L346.834 263.411
L347.726 143.217
L347.95 133.552
L348.024 136.777
L348.173 159.034
L348.694 291.485
L348.842 300.811
L348.917 299.394
L349.14 263.993
L349.735 153.182
L349.81 150.198
L349.884 152.347
L350.182 197.707
L350.702 274.038
L350.926 270.144
L351.446 197.764
L351.67 159.858
L351.818 152.347
L351.967 159.426
L352.116 169.195
L352.86 287.592
L352.934 290.034
L353.009 289.314
L353.306 231.881
L353.827 124.244
L353.902 127.515
L354.199 165.785
L354.794 299.97
L354.869 296.208
L355.166 261.516
L355.464 212.441
L356.282 149.231
L356.357 149.726
L356.58 190.242
L357.026 289.193
L357.101 288.358
L357.25 266.625
L357.622 190.495
L357.696 191.78
L357.845 188.053
L358.142 202.614
L358.366 177.754
L358.886 254.483
L359.11 259.126
L359.63 211.646
L360.077 149.53
L360.151 149.858
L360.226 151.189
L360.374 168.342
L360.895 263.486
L361.044 276.659
L361.118 274.764
L361.267 253.481
L361.639 202.332
L361.862 185.87
L361.937 187.01
L362.458 244.271
L362.681 277.477
L362.83 261.24
L363.574 153.723
L363.722 147.076
L363.797 148.395
L364.02 168.457
L364.243 195.282
L364.838 287.378
L364.913 290.005
L365.062 275.645
L365.657 186.97
L365.88 165.134
L365.954 165.86
L366.252 195.812
L366.55 263.106
L366.698 286.14
L366.773 284.533
L367.07 230.222
L367.368 169.667
L367.442 166.545
L367.517 167.098
L367.814 173.209
L368.186 209.578
L368.335 231.195
L368.484 226.628
L368.633 235.4
L368.93 285.806
L369.005 284.631
L369.154 251.246
L369.526 144.651
L369.6 143.229
L369.823 176.614
L370.344 280.248
L370.418 279.28
L370.567 276.63
L370.865 230.965
L371.386 162.196
L371.534 154.109
L371.683 145.222
L371.832 150.688
L371.981 173.4
L372.427 260.865
L372.65 279.896
L372.799 291.554
L372.948 269.113
L373.246 219.145
L373.469 189.821
L373.692 160.779
L374.213 200.806
L374.659 289.222
L374.808 299.215
L374.882 296.174
L375.106 259.172
L375.924 94.764
L376.073 115.88
L376.817 303.04
L376.891 302.988
L377.114 298.392
L377.71 223.045
L377.933 154.271
L378.082 182.702
L378.23 202.672
L378.454 183.174
L378.677 193.283
L378.751 192.667
L378.9 231.08
L379.123 285.478
L379.272 262.8
L379.644 169.713
L379.718 167.311
L379.942 187.753
L380.09 158.89
L380.239 143.234
L381.058 271.515
L381.281 275.651
L381.43 263.676
L381.653 232.774
L381.876 209.221
L381.95 207.47
L382.174 196.284
L382.248 196.923
L382.62 231.011
L382.694 227.595
L382.918 213.028
L382.992 213.512
L383.066 215.517
L383.29 227.451
L383.364 228.022
L383.438 226.443
L383.587 209.538
L384.034 109.181
L384.108 111.612
L384.257 147.168
L384.629 290.063
L384.703 285.817
L384.926 256.597
L385.001 258.515
L385.15 268.065
L385.373 251.833
L385.67 202.372
L385.894 185.576
L386.117 189.228
L386.786 266.199
L386.861 268.808
L387.01 251.545
L387.233 218.783
L387.307 215.707
L387.902 133.742
L387.977 137.601
L388.2 176.752
L388.498 215.257
L388.572 211.623
L388.646 213.345
L389.018 251.033
L389.167 246.154
L389.316 256.591
L389.39 256.562
L389.688 233.845
L389.837 236.598
L390.06 233.885
L390.209 220.13
L390.432 187.949
L390.506 185.017
L390.581 187.851
L390.953 220.729
L391.102 219.612
L391.325 216.709
L391.474 221.288
L391.622 206.26
L391.846 189.038
L391.92 188.784
L391.994 188.98
L392.143 185.72
L392.218 186.601
L392.366 195.576
L392.664 242.45
L392.887 209.941
L392.962 212.758
L393.11 224.047
L393.334 211.675
L393.408 215.188
L393.631 289.907
L393.929 222.112
L394.078 240.089
L394.375 291.197
L394.524 233.309
L394.822 87.4891
L394.896 88.3474
L395.045 114.463
L395.417 216.548
L395.863 277.218
L395.938 279.263
L396.533 181.406
L396.607 186.371
L396.83 217.216
L396.979 216.553
L397.054 217.959
L397.574 248.683
L397.649 246.638
L398.318 195.65
L398.393 197.24
L398.467 198.185
L398.69 205.045
L398.839 201.428
L398.988 187.995
L399.062 189.844
L399.36 238.309
L399.434 232.123
L399.509 232.975
L399.732 253.343
L399.806 270.801
L399.881 261.862
L400.104 132.423
L400.253 123.541
L400.327 136.311
L400.55 307.452
L400.625 297.752
L400.848 210.719
L401.071 108.957
L401.146 113.277
L401.369 212.47
L401.666 363.658
L401.741 371.48
L402.336 184.165
L402.485 175.289
L402.559 174.903
L402.708 172.783
L402.782 175.888
L403.08 209.348
L403.154 210.298
L403.229 208.916
L403.303 209.52
L403.378 210.085
L403.452 210.056
L403.601 219.111
L403.824 194.591
L403.973 197.09
L404.047 196.768
L404.122 195.673
L404.494 166.476
L404.568 167.87
L404.717 187.506
L405.238 290.322
L405.386 292.908
L405.461 291.606
L405.61 273.036
L406.056 208.743
L406.279 194.228
L406.354 193.963
L406.577 200.051
L406.874 194.982
L406.949 195.501
L407.321 218.149
L407.47 215.563
L407.693 228.338
L407.842 214.63
L408.214 156.54
L408.288 156.926
L408.437 177.558
L408.66 206.329
L408.734 202.274
L408.809 202.413
L408.883 210.511
L409.181 337.663
L409.255 315.539
L409.478 220.908
L409.702 170.721
L409.776 181.129
L409.999 215.736
L410.222 207.072
L410.297 207.418
L410.446 236.437
L410.594 264.569
L410.669 262.87
L410.892 249.046
L410.966 249.599
L411.115 252.133
L411.19 251.73
L411.264 248.781
L411.487 209.204
L411.859 156.759
L412.157 122.424
L412.231 122.781
L412.454 146.207
L413.422 332.664
L413.496 328.488
L413.942 220.084
L414.166 170.537
L414.538 207.458
L414.835 198.726
L414.91 198.674
L415.207 234.07
L415.282 232.399
L415.579 217.757
L415.654 218.961
L415.728 217.199
L416.323 181.878
L416.472 176.245
L416.546 172.559
L416.621 175.715
L416.993 212.792
L417.439 237.111
L417.886 278.485
L418.109 257.398
L418.778 196.422
L419.076 205.166
L419.225 218.644
L419.374 205.794
L419.671 169.293
L419.82 166.015
L420.192 213.708
L420.49 289.308
L420.638 255.756
L421.01 119.25
L421.085 122.015
L421.234 149.916
L421.829 314.583
L421.903 307.435
L422.35 246.137
L422.722 210.027
L422.945 189.199
L423.094 185.305
L423.466 195.633
L423.54 196.054
L423.614 194.187
L423.689 195.656
L423.912 206.203
L423.986 206.548
L424.284 198.784
L424.656 184.539
L424.954 205.823
L425.251 233.067
L425.549 220.286
L425.623 221.64
L425.772 227.382
L426.218 284.147
L426.293 280.08
L426.442 251.908
L426.739 187.823
L427.111 212.7
L427.26 189.931
L427.409 195.391
L427.483 194.948
L428.078 169.35
L428.153 178.14
L428.45 273.376
L428.525 267.247
L428.822 229.214
L429.12 214.175
L429.269 230.498
L429.418 238.499
L429.566 218.137
L429.79 179.753
L429.864 178.249
L430.013 192.039
L430.236 218.552
L430.608 234.047
L430.831 260.761
L430.906 260.71
L431.054 243.372
L431.278 225.003
L431.426 216.801
L431.65 200.258
L431.947 174.655
L432.022 176.268
L432.17 189.032
L432.468 219.762
L432.542 216.72
L432.914 177.495
L433.063 193.634
L433.361 238.706
L433.435 240.722
L433.733 256.165
L433.882 251.753
L433.956 252.997
L434.254 239.916
L434.774 198.905
L434.923 196.434
L434.998 196.872
L435.146 209.181
L435.295 223.166
L435.37 222.889
L435.816 191.135
L435.89 196.342
L435.965 198.922
L436.039 197.805
L436.114 195.334
L436.188 195.84
L436.337 203.49
L436.56 217.014
L436.709 207.695
L436.932 185.651
L437.006 182.126
L437.081 182.863
L437.304 210.644
L437.602 254.299
L437.75 258.959
L437.825 257.259
L437.974 240.371
L438.197 217.561
L438.271 217.037
L438.569 235.089
L438.718 244.852
L439.015 224.566
L439.238 233.027
L439.313 232.658
L439.462 228.649
L439.61 223.074
L440.206 154.397
L440.28 154.576
L440.503 183.462
L440.801 210.212
L440.95 211.732
L441.173 205.085
L441.545 226.57
L441.917 271.026
L442.066 261.297
L442.289 244.766
L442.438 245.238
L442.586 238.165
L442.81 212.976
L443.182 162.185
L443.33 172.656
L443.851 250.964
L443.926 249.051
L444.074 238.891
L444.223 242.773
L444.298 240.02
L444.67 198.196
L444.818 187.2
L445.116 168.319
L445.19 167.127
L445.265 167.68
L445.488 191.555
L445.934 243.902
L446.083 252.087
L446.158 251.862
L446.455 254.195
L446.53 253.06
L446.678 240.077
L446.902 211.156
L447.199 201.157
L447.274 200.126
L447.794 235.371
L447.943 219.595
L448.166 189.072
L448.315 190.743
L448.538 193.174
L448.687 186.031
L448.836 201.566
L449.059 218.61
L449.208 221.732
L449.357 211.197
L449.58 183.693
L449.654 187.408
L449.878 207.049
L449.878 207.049" style="fill:none;stroke:#808080;stroke-linecap:square;"/>
   </g>
  </g>
 </g>
 <defs>
  <clipPath id="p7ff5b81e1d">
   <rect height="345.6" width="446.4" x="72.0" y="43.2"/>
  </clipPath>
 </defs>
</svg>
