<?xml version="1.0" encoding="utf-8" standalone="no"?>
<!DOCTYPE svg PUBLIC "-//W3C//DTD SVG 1.1//EN"
  "http://www.w3.org/Graphics/SVG/1.1/DTD/svg11.dtd">
<!-- Created with matplotlib (http://matplotlib.org/) -->
<svg height="432pt" version="1.1" viewBox="0 0 576 432" width="576pt" xmlns="http://www.w3.org/2000/svg" xmlns:xlink="http://www.w3.org/1999/xlink">
 <defs>
  <style type="text/css">
*{stroke-linecap:butt;stroke-linejoin:round;}
  </style>
 </defs>
 <g id="figure_1">
  <g id="patch_1">
   <path d="
M0 432
L576 432
L576 0
L0 0
z
" style="fill:#ffffff;"/>
  </g>
  <g id="axes_1">
   <g id="line2d_1">
    <path clip-path="url(#p7ff5b81e1d)" d="
M72 249.284
L72.0744 247.13
L72.2232 236.796
L72.2976 237.522
L72.372 239.492
L72.4464 239.146
L72.8184 224.608
L73.116 195.209
L73.1904 195.739
L73.5624 206.268
L73.7112 211.994
L73.86 209.459
L74.1576 238.109
L74.232 236.692
L74.3064 237.291
L74.4552 241.658
L74.5296 237.222
L74.7528 208.296
L74.9016 211.222
L75.1248 204.621
L75.348 214.505
L75.4224 212.95
L75.5712 206.833
L75.7944 212.086
L75.8688 211.014
L75.9432 210.289
L76.0176 211.222
L76.2408 218.629
L76.3896 210.726
L76.464 212.051
L76.6872 221.705
L76.7616 222.65
L76.9848 218.733
L77.208 195.416
L77.2824 196.914
L77.5056 220.737
L77.58 220.058
L77.7288 214.251
L77.8032 215.173
L77.952 211.648
L78.0264 213.434
L78.324 238.801
L78.6216 214.862
L78.9192 223.974
L79.1424 229.815
L79.44 220.922
L79.5144 220.15
L79.5888 220.438
L79.8864 207.132
L80.1096 214.459
L80.184 214.194
L80.4072 202.582
L80.4816 202.639
L80.556 203.192
L80.6304 202.708
L80.8536 193.769
L81.1512 199.633
L81.5976 231.601
L81.672 230.875
L81.9696 235.667
L82.1184 233.213
L82.2672 228.859
L82.8624 191.983
L83.0856 211.59
L83.3832 234.02
L83.532 236.082
L83.6064 235.172
L83.7552 246.116
L83.9784 268.545
L84.0528 265.654
L84.276 201.43
L84.5736 124.165
L84.648 123.013
L84.7224 124.706
L84.8712 138.726
L85.02 173.862
L85.3176 251.83
L85.4664 263.914
L85.5408 263.638
L85.764 251.876
L85.9128 260.009
L86.2848 278.936
L86.4336 266.057
L87.0288 153.656
L87.1032 153.921
L87.252 156.962
L87.3264 156.168
L87.4008 157.838
L87.624 198.492
L87.6984 191.188
L87.9216 125.271
L87.996 134.982
L88.5912 351.524
L88.6656 354.749
L88.74 354.312
L88.8888 341.455
L89.112 273.476
L89.6328 110.422
L89.856 100.48
L89.9304 103.095
L90.4512 167.665
L90.8232 241.45
L91.1208 282.012
L91.4184 311.089
L91.4928 310.386
L91.6416 290.721
L92.3112 170.637
L92.46 168.137
L92.7576 181.419
L92.9064 174.888
L92.9808 179.092
L93.4272 249.434
L93.5016 251.415
L93.576 251.334
L94.0224 200.727
L94.2456 205.035
L94.692 250.298
L94.7664 249.491
L94.9152 228.813
L95.2128 182.399
L95.2872 184.069
L95.5104 209.782
L95.6592 224.689
L95.7336 225.149
L95.8824 216.636
L96.1056 184.196
L96.3288 157.677
L96.4032 158.402
L96.552 176.04
L96.9984 268.695
L97.2216 261.691
L97.3704 257.348
L97.5192 254.664
L97.5936 255.942
L97.7424 260.596
L97.8168 259.099
L97.9656 243.282
L98.1888 199.517
L98.5608 124.833
L98.6352 128.796
L98.8584 173.931
L99.3792 276.621
L99.528 280.123
L99.6768 275.803
L99.9 259.168
L100.049 234.515
L100.421 162.757
L100.718 142.102
L100.867 160.614
L101.388 238.144
L101.462 236.186
L101.537 237.222
L101.834 269.018
L101.983 258.085
L102.802 172.192
L102.95 182.975
L103.397 232.407
L103.471 234.458
L103.546 233.19
L103.769 225.783
L104.141 242.637
L104.215 242.003
L104.29 242.602
L104.438 238.536
L104.587 226.463
L104.885 194.161
L105.034 193.354
L105.108 194.299
L105.182 194.207
L105.257 194.69
L105.926 205.888
L106.075 206.81
L106.15 206.418
L106.373 201.971
L106.522 209.125
L106.968 238.259
L107.191 246.231
L107.34 247.832
L107.489 241.001
L107.935 212.362
L108.158 206.786
L108.307 209.436
L108.382 209.067
L108.828 189.253
L108.977 191.649
L109.349 203.342
L109.721 242.141
L109.795 239.469
L110.018 228.767
L110.093 228.928
L110.316 232.799
L110.539 239.135
L110.762 232.534
L110.911 234.492
L111.06 223.41
L111.358 195.462
L111.506 189.023
L111.581 189.898
L111.804 203.434
L112.027 214.724
L112.102 215.945
L112.176 214.827
L112.548 199.817
L112.622 199.99
L112.771 202.178
L112.92 208.699
L113.292 232.534
L113.366 233.478
L113.441 233.144
L114.036 223.145
L114.334 207.754
L114.706 220.956
L114.854 228.605
L114.929 232.522
L115.003 230.898
L115.598 177.572
L115.673 179.046
L116.342 243.8
L116.417 243.547
L116.64 236.796
L116.938 209.724
L117.012 212.132
L117.161 214.355
L117.235 214.263
L117.384 210.3
L117.533 215.473
L117.607 215.208
L117.756 209.908
L117.905 217.166
L117.979 216.44
L118.351 196.05
L118.723 205.773
L119.244 236.404
L119.318 235.034
L119.467 228.363
L119.542 229.654
L119.616 229.009
L119.988 212.754
L120.062 213.318
L120.211 218.94
L120.434 212.374
L120.509 209.943
L120.583 210.83
L120.658 210.312
L120.881 203.941
L121.03 210.254
L121.178 205.969
L121.327 209.678
L121.476 218.26
L121.55 218.237
L121.699 217.477
L121.922 222.58
L122.146 217.684
L122.294 223.191
L122.369 221.912
L122.592 208.065
L122.741 215.38
L122.815 215.035
L122.964 213.249
L123.187 207.823
L123.262 207.743
L123.41 204.932
L123.634 224.147
L123.931 245.978
L124.006 245.954
L124.452 224.308
L124.75 181.972
L124.824 182.042
L124.973 187.802
L125.419 212.12
L125.568 214.885
L125.642 216.751
L125.717 216.279
L125.94 201.361
L126.014 203.826
L126.461 243.04
L126.684 234.999
L126.758 236.658
L126.907 241.254
L127.056 222.143
L127.279 190.29
L127.354 191.799
L127.577 209.954
L127.726 221.786
L127.8 221.428
L128.023 210.945
L128.098 211.153
L128.172 210.922
L128.321 201.107
L128.47 196.534
L128.916 225.092
L128.99 224.228
L129.139 220.288
L129.214 221.302
L129.437 235.633
L129.586 219.643
L129.809 199.851
L130.032 219.862
L130.255 229.769
L130.404 218.514
L130.553 209.378
L130.627 211.36
L130.85 226.198
L130.925 224.619
L131.297 207.777
L131.594 201.268
L131.669 202.063
L131.818 210.795
L132.041 230.955
L132.19 222.488
L132.338 212.282
L132.413 212.42
L132.562 214.493
L132.71 220.968
L132.859 232.453
L132.934 230.621
L133.306 210.98
L133.529 204.506
L133.678 200.658
L133.901 186.788
L134.05 202.847
L134.273 225.76
L134.57 244.791
L134.645 243.19
L135.017 225.161
L135.166 226.44
L135.314 231.082
L135.463 222.914
L135.686 212.247
L135.761 212.247
L135.91 199.368
L136.058 184.668
L136.133 186.442
L136.356 199.944
L136.43 199.955
L136.505 199.563
L136.654 210.68
L136.877 230.356
L136.951 231.405
L137.026 231.37
L137.323 219.136
L137.546 226.566
L137.621 226.048
L138.142 210.438
L138.216 210.934
L138.365 212.927
L138.514 209.332
L138.662 213.583
L138.811 217.777
L139.109 208.768
L139.258 211.279
L139.406 208.814
L139.555 215.242
L139.704 221.29
L139.853 219.136
L140.002 226.301
L140.076 231.163
L140.15 230.978
L140.448 215.991
L140.82 231.105
L140.894 229.965
L141.192 199.54
L141.266 203.319
L141.415 211.487
L141.564 202.731
L141.713 196.718
L142.01 221.106
L142.085 220.034
L142.234 215.922
L142.457 204.932
L142.606 218.065
L142.829 240.609
L142.903 240.148
L143.126 236.393
L143.275 221.06
L143.573 180.44
L143.796 171.017
L143.945 186.765
L144.317 231.601
L144.54 250.182
L144.838 225
L144.912 228.041
L145.358 256.15
L145.433 252.74
L145.879 200.427
L146.177 169.105
L146.251 171.846
L146.474 197.259
L146.698 220.772
L146.846 215.91
L146.995 210.208
L147.218 214.712
L147.442 202.674
L147.739 232.925
L147.888 232.499
L147.962 233.547
L148.037 230.921
L148.26 204.114
L148.334 206.026
L148.558 223.629
L148.706 213.641
L148.781 214.274
L149.004 230.034
L149.153 226.647
L149.302 233.905
L149.376 230.783
L149.599 207.616
L149.748 212.155
L149.822 210.277
L149.971 201.05
L150.194 225.783
L150.269 224.746
L150.492 210.761
L150.79 202.478
L150.864 205.139
L151.236 236.139
L151.534 216.509
L151.757 190.255
L151.831 191.258
L151.98 202.006
L152.278 237.971
L152.352 234.815
L152.65 205.105
L152.798 198.193
L152.873 200.105
L153.245 222.223
L153.319 222.5
L153.617 232.522
L153.691 231.013
L153.914 213.894
L154.063 203.227
L154.138 204.678
L154.435 238.536
L154.51 237.683
L155.03 191.615
L155.179 199.126
L155.551 222.592
L155.7 227.661
L155.774 227.488
L155.849 225.495
L156.146 198.964
L156.221 199.368
L156.593 244.169
L156.667 237.741
L156.965 211.049
L157.188 202.708
L157.262 202.985
L157.411 213.284
L157.56 223.168
L157.634 223.249
L157.783 221.486
L157.932 210.657
L158.155 190.267
L158.23 190.843
L158.527 211.222
L158.899 247.13
L159.048 245.471
L159.197 232.868
L159.42 199.264
L159.494 199.46
L159.866 225.322
L160.015 214.436
L160.462 182.41
L160.536 185.498
L161.057 237.89
L161.206 225.242
L161.354 213.641
L161.503 227.096
L161.652 237.061
L161.95 227.085
L162.098 228.571
L162.173 228.306
L162.247 227.373
L162.396 213.595
L162.619 183.194
L162.768 185.567
L162.917 184.737
L163.14 194.46
L163.512 227.626
L163.586 226.877
L163.81 215.542
L163.958 237.476
L164.182 266.955
L164.256 264.087
L164.702 191.304
L164.777 191.707
L165.074 210.369
L165.223 209.782
L165.298 210.289
L165.446 214.355
L165.521 213.641
L165.744 195.773
L165.818 196.683
L166.19 232.488
L166.488 219.055
L166.562 219.654
L166.637 220.645
L166.711 220.322
L167.009 201.914
L167.083 203.273
L167.381 218.641
L167.902 202.397
L168.05 200.9
L168.125 202.121
L168.274 215.173
L168.571 263.407
L168.646 262.301
L169.018 204.575
L169.092 208.273
L169.315 239.342
L169.39 238.144
L169.985 178.067
L170.059 174.081
L170.134 176.834
L170.506 206.418
L170.58 207.777
L170.729 217.73
L171.026 249.007
L171.101 249.583
L171.473 226.175
L171.547 230.149
L171.696 236.762
L171.77 234.4
L172.217 194.748
L172.291 195.912
L172.589 206.28
L172.886 240.759
L172.961 238.674
L173.11 218.929
L173.333 185.924
L173.407 185.44
L173.63 211.233
L173.779 218.825
L174.002 210.047
L174.077 210.173
L174.226 212.662
L174.3 212.328
L174.523 207.167
L174.598 207.685
L174.746 218.606
L174.97 238.501
L175.044 239.261
L175.193 237.51
L175.342 240.817
L175.416 240.183
L175.862 205.611
L176.086 215.714
L176.458 198.584
L176.606 193.988
L176.681 195.163
L177.276 232.119
L177.35 231.174
L177.499 222.442
L177.722 205.335
L177.797 207.616
L178.094 234.308
L178.169 230.345
L178.466 202.305
L178.69 213.434
L178.764 213.376
L178.913 210.554
L178.987 211.153
L179.434 240.068
L179.508 238.743
L180.029 189.518
L180.178 193.677
L180.624 234.746
L180.698 231.912
L180.996 203.883
L181.294 224.562
L181.442 222.304
L181.591 225.161
L181.74 221.244
L182.038 201.51
L182.112 202.559
L182.41 218.341
L182.558 209.171
L183.526 225.46
L183.749 234.665
L183.898 229.458
L184.195 211.106
L184.27 213.076
L184.493 230.114
L184.567 229.17
L184.642 226.267
L184.716 226.543
L185.014 220
L185.386 181.949
L185.46 184.276
L185.758 208.987
L185.832 206.717
L186.13 188.493
L186.576 212.201
L186.65 212.685
L186.725 212.374
L186.948 220.438
L187.32 257.14
L187.469 261.103
L187.543 259.767
L187.841 237.222
L187.915 237.268
L188.064 241.45
L188.213 225.967
L188.51 178.205
L188.585 180.555
L188.808 201.326
L188.882 199.667
L189.031 187.675
L189.106 187.825
L189.329 197.352
L189.478 193.999
L189.552 196.084
L190.147 240.84
L190.222 243.754
L190.37 236.278
L190.519 231.105
L190.668 239.031
L190.742 238.167
L191.114 179.599
L191.189 183.355
L191.412 214.079
L191.486 215.38
L191.635 209.517
L192.156 236.116
L192.528 206.925
L192.602 207.892
L192.826 216.29
L193.049 206.429
L193.123 207.017
L193.421 228.421
L193.57 212.961
L193.718 197.732
L193.867 202.225
L194.239 217.73
L194.314 220.288
L194.388 220.081
L194.462 219.378
L194.611 214.897
L194.76 223.732
L194.983 248.305
L195.058 247.187
L195.355 218.168
L195.43 218.859
L195.578 223.329
L195.802 219.009
L195.95 226.923
L196.025 226.693
L196.397 184.507
L196.471 184.657
L196.694 189.541
L196.843 186.868
L197.438 219.297
L197.662 243.27
L197.736 241.6
L197.959 222.822
L198.48 247.233
L198.554 245.459
L198.852 211.003
L199.15 226.428
L199.224 222.857
L199.596 178.033
L199.67 181.108
L199.894 200.151
L200.042 197.098
L200.34 220.703
L200.414 217.972
L200.563 215.046
L200.935 222.373
L201.158 240.079
L201.307 228.628
L201.456 220.726
L201.679 223.007
L201.828 220.875
L201.977 215.288
L202.2 206.867
L202.274 207.42
L202.498 214.586
L202.646 217.373
L202.721 218.03
L202.795 217.224
L203.093 206.141
L203.39 215.426
L203.539 214.286
L203.762 206.199
L203.911 211.671
L204.432 247.901
L204.506 245.828
L204.655 224.424
L204.878 202.167
L205.102 214.401
L205.325 220.196
L205.399 217.788
L205.771 193.262
L205.846 193.343
L206.143 205.496
L206.292 201.821
L206.441 209.908
L206.738 228.893
L206.887 236.646
L206.962 235.748
L207.334 217.201
L207.408 216.901
L207.631 204.54
L207.78 214.217
L208.003 224.205
L208.301 221.843
L208.45 215.38
L208.598 223.467
L208.747 230.23
L208.896 218.479
L209.045 211.636
L209.119 212.742
L209.342 226.97
L209.566 244.906
L209.64 244.376
L209.863 208.618
L210.31 164.842
L210.458 162.676
L210.533 163.137
L210.682 178.574
L211.054 246.093
L211.128 243.455
L211.351 226.612
L211.723 231.923
L212.17 252.187
L212.244 249.203
L212.616 221.256
L212.69 221.313
L212.765 221.981
L212.839 221.613
L212.988 214.701
L213.286 196.937
L213.509 184.322
L213.806 165.775
L214.03 160.119
L214.104 164.347
L214.402 228.386
L214.699 280.849
L214.774 281.079
L214.997 265.757
L215.592 214.113
L216.187 178.586
L216.262 180.809
L216.41 190.67
L216.559 189.403
L216.708 200.715
L217.006 226.509
L217.154 229.423
L217.303 220.449
L217.526 209.39
L217.75 219.274
L217.824 219.447
L217.973 217.569
L218.345 223.974
L218.419 224.378
L218.494 223.986
L218.717 217.454
L218.791 219.366
L219.014 231.531
L219.238 221.912
L219.312 222.396
L219.535 226.889
L219.61 226.336
L219.684 227.246
L219.758 227.154
L220.056 211.671
L220.428 188.066
L220.502 189.011
L220.726 200.162
L220.949 190.578
L221.098 199.529
L221.395 220.806
L221.693 225.748
L221.916 238.547
L221.99 237.545
L222.214 228.79
L222.437 233.916
L222.511 232.683
L222.734 213.975
L222.883 206.268
L222.958 207.674
L223.106 215.081
L223.181 213.71
L223.404 203.78
L223.627 213.399
L223.702 212.685
L223.85 210.657
L224.222 199.31
L224.669 227.972
L224.892 241.83
L224.966 239.999
L225.338 217.281
L225.562 219.816
L225.71 215.599
L226.082 198.331
L226.231 201.914
L226.38 201.176
L226.529 209.632
L226.752 223.94
L226.826 223.894
L227.05 215.968
L227.124 216.555
L227.496 228.41
L228.463 199.183
L228.538 199.874
L228.761 209.252
L229.282 247.51
L229.43 235.103
L229.728 208.849
L229.877 205.035
L230.026 204.506
L230.398 210.98
L230.918 217.074
L230.993 216.429
L231.142 204.298
L231.365 183.816
L231.439 183.067
L231.514 183.931
L231.662 190.071
L231.886 213.641
L232.332 263.914
L232.481 267.462
L232.63 261.91
L233.374 191.868
L233.671 165.026
L233.746 163.679
L233.82 164.232
L233.969 180.337
L234.266 211.51
L234.341 213.733
L234.49 231.451
L234.713 252.221
L234.862 239.872
L235.085 221.947
L235.308 218.134
L235.457 206.487
L235.68 184.115
L235.829 195.117
L236.052 208.422
L236.126 208.618
L236.201 208.434
L236.35 214.781
L236.573 231.462
L236.647 232.142
L237.019 218.848
L237.391 241.277
L237.466 239.999
L237.763 228.986
L237.912 233.144
L237.986 232.925
L238.135 221.82
L238.284 210.415
L238.507 218.295
L238.582 215.542
L238.879 170.763
L239.102 157.297
L239.177 160.015
L239.4 191.776
L239.698 234.596
L240.07 249.756
L240.144 252.509
L240.218 251.461
L240.814 222.995
L241.111 205.185
L241.334 188.942
L241.409 189.253
L241.632 205.796
L241.781 215.115
L241.855 214.159
L242.004 210.358
L242.078 211.003
L242.376 233.858
L242.45 230.967
L242.599 215.588
L242.674 217.903
L242.971 255.816
L243.194 221.832
L243.418 192.363
L243.492 193.769
L243.79 218.226
L244.236 186.477
L244.608 196.234
L244.757 191.016
L244.831 193.308
L245.054 239.93
L245.203 253.938
L245.426 241.761
L245.501 241.773
L245.575 241.819
L245.724 240.16
L246.022 227.776
L246.245 215.738
L246.394 211.648
L246.691 180.602
L246.766 181.535
L247.063 206.545
L247.361 236.347
L247.51 225.783
L247.807 206.671
L247.882 207.028
L247.956 208.595
L248.105 221.382
L248.328 242.833
L248.402 242.049
L248.774 221.302
L248.849 222.419
L248.923 222.292
L249.072 211.302
L249.221 195.681
L249.444 211.924
L249.518 210.588
L249.89 186.891
L249.965 187.444
L250.114 193.389
L250.411 215.357
L250.486 214.666
L250.56 216.325
L250.858 232.084
L251.006 229.101
L251.081 231.359
L251.453 263.834
L251.602 284.397
L251.676 282.427
L251.899 233.594
L252.271 162.112
L252.42 157.216
L252.494 158.702
L252.569 158.587
L252.718 157.504
L252.792 158.022
L252.941 179.357
L253.164 215.323
L253.238 215.887
L253.387 211.878
L253.685 230.863
L253.982 260.965
L254.057 260.251
L254.206 249.307
L254.503 212.143
L254.578 214.874
L254.875 260.101
L254.95 257.233
L255.173 235.563
L255.322 237.856
L255.47 213.007
L255.694 175.302
L255.917 179.807
L256.066 172.169
L256.363 191.638
L256.438 190.589
L256.512 191.292
L256.586 190.336
L256.884 210.404
L257.107 222.903
L257.182 222.546
L257.33 219.7
L257.405 220.023
L257.628 226.106
L257.702 225.276
L257.851 222.788
L257.926 223.249
L258.372 264.916
L258.446 266.932
L258.521 266.598
L258.744 239.745
L258.967 217.477
L259.042 216.348
L259.116 216.486
L259.637 184.841
L259.711 182.848
L259.934 187.905
L260.232 174.957
L260.678 207.674
L260.976 222.338
L261.125 213.249
L261.274 203.757
L261.497 211.337
L261.646 220.058
L261.869 247.59
L262.166 318.15
L262.241 317.125
L262.613 258.442
L263.208 115.859
L263.282 115.894
L263.357 114.373
L263.431 116.954
L263.58 145.074
L263.952 224.631
L264.101 239.457
L264.398 288.026
L264.696 255.528
L264.77 257.129
L264.845 260.654
L264.919 259.606
L265.514 201.119
L265.738 177.215
L265.961 197.352
L266.035 196.499
L266.184 187.905
L266.258 188.907
L266.556 219.067
L266.63 215.83
L266.779 205.83
L266.854 206.936
L267.077 224.619
L267.151 222.097
L267.226 220.173
L267.3 222.788
L267.523 242.786
L267.598 240.379
L267.821 218.076
L267.895 218.399
L268.044 227.361
L268.118 224.401
L268.49 176.155
L268.565 181.189
L268.788 197.167
L268.862 197.663
L268.937 197.317
L269.011 197.386
L269.16 208.814
L269.681 263.246
L269.755 263.534
L269.904 248.915
L270.127 220.922
L270.202 220.115
L270.276 220.691
L270.35 220.034
L270.499 213.295
L270.722 205.634
L270.946 213.307
L271.094 217.523
L271.243 209.183
L271.466 192.974
L271.615 195.186
L271.913 209.954
L271.987 209.033
L272.21 189.483
L272.508 210.6
L272.582 208.365
L272.657 207.339
L272.806 217.592
L273.103 240.932
L273.252 244.296
L273.326 243.985
L273.475 244.457
L273.624 234.25
L273.847 217.88
L273.922 217.327
L274.07 217.938
L274.145 217.293
L274.219 217.373
L274.294 218.237
L274.368 217.972
L274.517 213.56
L274.591 213.871
L274.814 224.366
L274.963 215.703
L275.186 200.462
L275.261 199.759
L275.41 202.927
L275.558 208.653
L275.633 207.443
L275.856 189.126
L275.93 189.587
L276.154 207.662
L276.451 231.324
L276.749 216.705
L276.823 217.143
L276.972 226.29
L277.27 245.713
L277.344 244.756
L278.237 180.026
L278.386 188.677
L278.832 222.085
L279.055 226.889
L279.204 231.105
L279.502 252.267
L279.65 248.846
L279.874 235.379
L280.469 178.228
L280.618 180.659
L280.766 179.864
L280.841 181.454
L281.064 204.287
L281.436 236.52
L281.585 240.482
L282.329 224.573
L282.626 220
L282.85 211.786
L283.073 202.34
L283.668 216.74
L283.817 222.811
L283.891 221.509
L284.189 205.082
L284.933 228.651
L285.156 215.714
L285.454 202.063
L285.602 205.888
L285.826 212.235
L285.9 212.973
L286.346 223.007
L286.421 223.295
L286.57 225.506
L286.644 225.334
L286.867 216.417
L286.942 217.466
L287.09 220.058
L287.314 213.56
L287.388 213.848
L287.686 218.502
L287.76 218.975
L287.834 218.698
L287.909 219.251
L288.206 212.961
L288.281 213.606
L288.355 213.503
L288.504 209.517
L288.578 208.134
L288.653 209.275
L288.876 217.696
L288.95 217.005
L289.248 201.89
L289.397 204.229
L289.62 210.093
L289.769 206.314
L289.843 205.116
L289.992 213.134
L290.364 243.028
L290.438 243.374
L290.513 244.998
L290.587 244.687
L290.662 243.616
L290.959 225.806
L291.257 201.914
L291.48 214.977
L291.554 213.203
L291.926 181.27
L292.001 181.88
L292.447 203.688
L292.819 248.109
L293.191 238.294
L293.34 233.847
L293.489 224.919
L293.712 206.429
L293.861 214.067
L294.01 220.726
L294.084 218.26
L294.53 186.258
L294.605 186.903
L295.274 225.564
L295.349 226.14
L295.572 223.03
L295.721 228.951
L295.944 245.298
L296.018 242.971
L296.465 202.386
L296.539 201.672
L296.688 204.39
L296.762 203.872
L296.837 203.93
L296.911 204.886
L297.209 216.095
L297.283 215.795
L297.581 204.471
L297.804 219.251
L297.953 224.343
L298.176 215.668
L298.325 216.244
L298.399 216.555
L298.697 221.117
L298.771 220.841
L298.92 217.535
L298.994 217.362
L299.069 217.823
L299.218 216.44
L299.59 204.609
L299.664 201.718
L299.738 203.768
L300.185 238.052
L300.259 237.994
L300.408 227.776
L300.706 202.248
L300.78 203.734
L301.226 227.142
L301.301 226.082
L301.673 207.432
L301.822 205.346
L301.97 210.404
L302.194 222.845
L302.268 222.465
L302.491 209.747
L302.714 192.456
L302.789 194.345
L303.384 236.001
L303.458 237.568
L303.533 237.464
L303.607 236.969
L303.979 218.767
L304.202 224.354
L304.277 224.262
L304.426 217.8
L304.723 193.976
L304.798 194.679
L305.393 222.419
L305.467 222.58
L305.616 219.551
L305.914 212.616
L305.988 212.051
L306.062 212.431
L306.211 211.36
L306.36 210.381
L306.583 216.244
L306.658 216.026
L306.881 205.911
L306.955 206.303
L307.253 217.028
L307.55 242.187
L307.699 237.003
L308.071 214.77
L308.146 214.758
L308.294 219.746
L308.592 213.791
L308.666 213.503
L308.741 212.063
L308.89 202.236
L309.038 191.338
L309.262 203.319
L309.634 220.991
L309.782 223.283
L309.857 223.122
L310.229 214.989
L310.378 224.689
L310.526 233.617
L310.601 233.19
L310.898 215.415
L311.122 206.176
L311.196 208.146
L311.419 218.03
L311.494 216.982
L311.642 213.41
L311.717 213.284
L311.866 214.482
L312.014 207.8
L312.163 200.923
L312.312 204.102
L312.535 210.669
L312.61 211.556
L312.758 222.05
L312.982 241.266
L313.056 238.743
L313.354 217.65
L313.726 211.441
L313.8 212.201
L313.874 212.558
L314.023 209.229
L314.172 204.552
L314.246 205.37
L314.544 213.537
L314.99 220.334
L315.214 224.988
L315.288 225.092
L315.437 221.809
L315.66 211.947
L315.734 212.604
L315.958 223.26
L316.106 219.977
L316.33 212.443
L316.404 212.927
L316.553 214.793
L316.776 206.015
L316.85 207.178
L316.999 209.943
L317.074 209.54
L317.222 205.266
L317.297 207.063
L317.669 239.618
L317.743 236.969
L318.041 210.934
L318.264 207.051
L318.338 207.869
L318.487 214.332
L318.562 214.159
L318.785 203.48
L318.934 197.029
L319.008 197.974
L319.603 234.296
L319.752 233.409
L319.826 232.879
L320.273 215.91
L320.347 216.429
L320.422 217.915
L320.645 215.841
L320.868 220.392
L321.463 197.801
L321.686 188.285
L321.835 194.379
L322.356 234.342
L322.505 231.094
L322.579 230.195
L322.802 238.248
L322.877 237.338
L323.1 226.209
L323.174 226.716
L323.323 228.49
L323.621 218.537
L323.695 218.376
L323.77 218.779
L323.844 218.675
L323.993 214.355
L324.439 193.043
L324.514 192.674
L324.588 193.181
L324.737 198.308
L325.481 239.388
L325.927 212.305
L326.15 214.436
L326.299 213.825
L326.374 214.194
L326.448 214.09
L326.522 213.549
L326.597 213.802
L326.746 213.768
L326.894 206.844
L327.043 203.734
L327.266 207.743
L327.936 237.314
L328.01 236.635
L328.234 218.122
L328.308 218.353
L328.531 225.218
L328.68 223.087
L328.754 222.972
L328.978 211.556
L329.35 195.935
L329.498 202.662
L329.722 212.454
L329.87 215.219
L330.019 219.159
L330.242 208.607
L330.317 209.217
L330.54 231.29
L330.614 230.103
L330.838 208.019
L330.912 208.526
L331.061 211.717
L331.21 208.779
L331.284 209.321
L331.73 232.361
L331.805 231.428
L332.028 216.866
L332.102 217.016
L332.326 227.292
L332.4 226.647
L332.549 217.178
L332.772 200.278
L332.846 202.202
L333.144 223.871
L333.442 205.865
L333.665 215.058
L333.888 210.392
L333.962 210.277
L334.037 209.494
L334.111 210.646
L334.409 223.041
L334.781 204.552
L334.855 205.911
L335.078 213.929
L335.153 213.583
L335.227 213.549
L335.376 220.68
L335.748 244.434
L335.822 241.611
L336.12 217.892
L336.269 216.429
L336.566 199.967
L336.79 194.483
L337.013 197.628
L337.162 207.282
L337.385 224.366
L337.608 226.612
L337.98 212.005
L338.054 212.212
L338.203 224.216
L338.352 234.607
L338.724 221.094
L338.798 221.889
L338.873 221.728
L339.022 207.247
L339.17 196.879
L339.394 210.703
L339.468 209.378
L339.617 204.033
L339.766 215.311
L339.914 231.969
L339.989 230.621
L340.361 203.515
L340.51 206.245
L340.733 217.754
L340.956 230.414
L341.03 230.103
L341.179 222.258
L341.402 209.759
L341.626 219.574
L341.7 219.343
L341.774 217.823
L341.849 217.961
L341.998 220.599
L342.072 220.023
L342.295 215.254
L342.37 215.473
L342.444 215.761
L342.518 215.507
L342.667 213.883
L342.742 214.332
L342.89 216.187
L343.114 212.362
L343.337 214.505
L343.486 209.805
L343.56 211.222
L343.783 229.654
L343.858 229.101
L344.155 215.081
L344.453 196.315
L344.602 198.872
L344.75 211.636
L345.048 236.646
L345.197 240.229
L345.346 231.981
L345.718 184.703
L345.792 190.347
L346.015 209.39
L346.09 212.051
L346.387 237.602
L347.131 206.245
L347.206 207.362
L347.429 214.274
L347.726 206.176
L347.875 200.243
L348.098 217.224
L348.173 215.795
L348.247 214.309
L348.47 228.605
L348.545 227.995
L348.768 220.818
L348.842 220.449
L348.917 218.698
L348.991 218.756
L349.14 228.041
L349.214 228.006
L349.363 223.629
L349.512 225.645
L349.661 213.745
L349.958 189.046
L350.033 190.693
L350.405 219.355
L350.628 231.209
L350.851 218.353
L350.926 219.677
L351 220.875
L351.074 220.138
L351.149 220.657
L351.298 224.781
L351.446 218.502
L351.521 219.988
L351.595 221.509
L351.67 220.069
L351.967 200.946
L352.19 182.894
L352.265 186.108
L352.711 240.54
L352.786 245.678
L353.306 217.88
L353.381 217.65
L353.53 222.419
L353.678 216.233
L353.753 217.569
L353.902 222.223
L354.05 213.802
L354.274 198.953
L354.348 198.699
L354.422 197.858
L354.497 199.022
L354.646 210.196
L354.72 210.035
L354.794 208.146
L355.018 215.357
L355.166 213.491
L355.39 222.039
L355.538 228.744
L355.613 228.41
L355.836 217.235
L355.91 218.065
L356.059 223.156
L356.282 215.012
L356.506 222.431
L356.58 223.03
L356.803 229.642
L356.878 229.297
L356.952 228.329
L357.026 225.587
L357.324 193.089
L357.398 196.223
L357.473 199.172
L357.547 198.377
L357.622 195.854
L357.696 197.686
L358.068 225.76
L358.217 241.669
L358.291 238.916
L358.738 202.985
L358.812 203.768
L359.258 221.451
L359.333 220.841
L359.407 218.825
L359.482 219.355
L359.556 221.474
L359.63 220.691
L359.779 212.8
L359.854 213.756
L360.002 220.749
L360.077 220.334
L360.151 220.461
L360.374 230.287
L360.821 211.049
L361.193 198.849
L361.267 199.379
L361.416 206.072
L361.49 205.243
L361.565 203.158
L361.639 203.607
L361.862 224.09
L362.16 249.457
L362.458 237.453
L362.904 187.986
L362.978 184.046
L363.053 186.039
L363.425 215.761
L363.648 222.696
L363.797 219.113
L364.02 224.493
L364.169 219.643
L364.466 226.52
L364.615 238.639
L364.69 235.978
L364.987 204.125
L365.136 191.073
L365.21 191.891
L365.508 213.975
L365.731 222.73
L365.88 219.217
L365.954 220.023
L366.029 222.569
L366.103 221.716
L366.326 211.959
L366.475 211.579
L366.55 211.924
L366.773 219.781
L366.922 209.275
L366.996 210.058
L367.219 219.735
L367.294 218.929
L367.368 219.378
L367.517 226.889
L367.591 226.877
L368.038 205.807
L368.112 206.406
L368.335 216.625
L368.41 216.417
L368.856 227.269
L368.93 227.165
L369.079 219.666
L369.228 210.749
L369.377 212.892
L369.6 194.31
L369.674 196.891
L369.972 216.832
L370.27 206.015
L370.344 206.187
L370.418 205.658
L370.567 217.558
L370.79 233.974
L371.162 246.461
L371.237 245.298
L371.46 231.877
L371.981 183.101
L372.204 189.299
L372.65 209.943
L372.799 213.629
L372.874 213.745
L372.948 214.332
L373.097 220.081
L373.246 228.283
L373.32 227.741
L373.618 212.938
L373.692 213.929
L373.915 220.138
L374.064 210.15
L374.138 212.5
L374.51 249.272
L374.585 248.558
L374.734 244.618
L374.808 245.079
L374.957 248.685
L375.031 246.404
L375.403 195.554
L375.626 171.316
L375.924 154.117
L375.998 158.702
L376.296 190.67
L376.445 201.038
L376.817 246.922
L377.04 234.354
L377.338 243.627
L378.156 222.995
L378.23 223.433
L378.379 226.025
L378.528 216.486
L378.677 204.252
L378.751 204.874
L378.9 211.959
L378.974 210.991
L379.421 186.788
L379.495 187.214
L379.942 210.358
L380.165 228.617
L380.239 228.893
L380.388 223.986
L380.611 217.949
L380.686 217.489
L380.834 215.496
L381.132 227.995
L381.206 226.267
L381.43 218.859
L381.504 219.159
L381.727 212.892
L381.876 215.38
L382.025 213.871
L382.174 223.329
L382.397 239.031
L382.918 197.57
L382.992 198.227
L383.141 204.54
L383.513 239.112
L383.587 238.409
L384.182 196.188
L384.331 202.167
L384.703 229.573
L384.778 228.836
L384.852 227.58
L385.001 218.283
L385.224 207.132
L385.522 225.057
L385.596 223.145
L385.894 204.137
L386.042 203.711
L386.191 199.725
L386.266 200.093
L386.563 214.989
L386.861 229.803
L387.01 234.388
L387.158 226.739
L387.307 218.963
L387.605 229.665
L387.828 223.974
L388.126 214.666
L388.274 215.588
L388.349 214.228
L388.646 199.16
L388.87 197.547
L388.944 197.939
L389.018 197.444
L389.167 194.46
L389.465 197.789
L389.614 207.604
L389.986 255.228
L390.06 252.544
L390.209 243.086
L390.283 243.455
L390.358 244.918
L390.432 243.236
L390.878 215.104
L391.102 207.051
L391.474 181.638
L391.548 182.641
L391.697 190.739
L391.92 221.117
L392.218 262.797
L392.292 262.44
L392.59 228.041
L393.11 164.669
L393.185 161.778
L393.259 162.227
L393.408 173.24
L394.078 252.429
L394.226 248.512
L394.524 231.036
L394.598 231.22
L394.673 231.048
L394.822 227.684
L395.194 212.454
L395.268 213.099
L395.417 214.977
L395.566 213.652
L395.789 205.853
L395.938 203.411
L396.086 207.121
L396.161 209.044
L396.31 207.109
L396.458 208.192
L396.607 203.296
L396.83 194.76
L397.054 201.487
L397.202 209.505
L397.5 233.409
L397.723 237.683
L397.798 237.925
L397.946 233.524
L398.17 222.776
L398.244 223.26
L398.393 226.647
L398.467 225.011
L398.69 214.885
L398.765 214.908
L398.839 215.092
L398.914 214.493
L398.988 214.701
L399.062 214.885
L399.211 217.131
L399.286 216.832
L399.583 198.4
L399.881 209.056
L399.955 209.436
L400.178 215.841
L400.253 215.622
L400.402 215.046
L400.699 218.618
L400.848 219.09
L400.997 215.196
L401.146 209.92
L401.22 210.657
L401.741 225.875
L401.815 225.426
L402.187 213.572
L402.336 212.27
L402.485 215.15
L402.634 220.242
L402.782 217.5
L402.931 221.14
L403.006 219.516
L403.303 189.506
L403.973 232.764
L404.047 231.635
L404.27 235.206
L404.419 230.552
L404.494 230.702
L404.642 236.577
L404.717 236.358
L405.238 216.002
L405.684 179.899
L405.758 180.141
L405.982 181.638
L406.056 180.797
L406.13 181.915
L406.279 195.128
L406.651 237.545
L406.949 247.06
L407.023 247.418
L407.395 235.345
L407.544 227.258
L407.842 212.109
L407.99 207.662
L408.065 207.72
L408.288 214.344
L408.511 202.697
L408.66 197.835
L408.809 202.144
L409.181 218.767
L409.33 216.97
L409.404 218.053
L409.627 225.956
L409.925 209.378
L409.999 209.425
L410.222 205.669
L410.371 213.952
L410.52 221.417
L410.594 219.804
L410.669 220.023
L410.892 234.365
L410.966 233.893
L411.115 226.301
L411.19 227.027
L411.264 228.018
L411.338 226.981
L412.157 193.573
L412.231 195.232
L412.454 214.021
L412.603 226.117
L412.678 225.967
L413.05 213.618
L413.124 212.282
L413.198 213.802
L413.422 221.498
L413.57 216.993
L413.645 218.099
L413.868 230.783
L413.942 229.527
L414.091 223.548
L414.166 223.802
L414.24 225.011
L414.314 223.686
L414.538 211.383
L414.686 215.968
L414.761 215.461
L414.91 207.19
L414.984 207.478
L415.058 209.425
L415.133 208.595
L415.356 194.99
L415.43 196.107
L415.728 207.524
L415.877 212.973
L416.174 228.732
L416.249 228.375
L416.323 228.536
L416.546 237.937
L416.993 219.194
L417.365 201.545
L417.514 203.019
L417.662 208.745
L417.811 214.954
L417.886 214.816
L417.96 214.298
L418.034 214.954
L418.258 222.373
L418.332 222.362
L418.555 217.765
L418.853 227.499
L418.927 226.716
L419.002 226.129
L419.15 215.703
L419.374 200.969
L419.597 206.637
L419.671 206.406
L419.82 207.305
L420.341 223.467
L420.49 215.104
L420.713 202.225
L420.936 207.178
L421.01 207.063
L421.085 208.342
L421.234 218.698
L421.606 245.736
L421.68 249.572
L421.754 248.282
L422.498 186.258
L422.573 190.002
L423.019 228.813
L423.168 222.396
L423.391 213.364
L423.54 212.086
L423.689 208.572
L423.763 208.733
L423.912 212.397
L424.21 220.645
L424.433 224.85
L424.507 224.769
L424.656 221.405
L425.028 206.187
L425.326 224.562
L425.474 222.845
L425.623 216.913
L425.846 206.349
L425.995 208.826
L426.07 208.273
L426.144 206.533
L426.218 207.213
L426.442 211.924
L426.665 209.77
L426.814 215.887
L427.037 224.596
L427.186 222.097
L427.706 227.799
L428.45 210.381
L428.674 212.685
L428.822 216.982
L428.897 216.498
L429.269 195.14
L429.343 196.499
L429.566 212.017
L429.641 211.659
L429.715 211.89
L429.864 225.748
L430.087 240.632
L430.162 239.653
L430.31 231.14
L430.534 213.053
L430.682 211.21
L430.757 211.256
L430.906 210.738
L431.129 211.441
L431.278 211.325
L431.352 213.272
L431.575 223.629
L431.873 196.499
L431.947 197.766
L432.394 227.972
L432.617 241.37
L432.84 232.442
L433.212 202.029
L433.286 202.282
L433.956 214.113
L434.105 219.516
L434.179 217.892
L434.402 204.264
L434.477 205.531
L434.998 234.538
L435.072 233.409
L435.37 207.674
L435.444 209.436
L435.742 225.38
L435.965 223.571
L436.039 223.871
L436.114 223.364
L436.262 217.201
L436.56 205.416
L436.634 204.609
L436.709 204.828
L436.783 205.128
L436.858 204.632
L437.081 197.674
L437.378 216.578
L437.453 215.899
L437.602 214.344
L438.122 230.518
L438.346 223.087
L438.569 230.794
L438.643 230.379
L439.462 197.294
L439.536 196.948
L440.057 219.101
L440.131 221.21
L440.206 220.726
L440.28 220.184
L440.354 220.841
L440.503 227.753
L440.578 226.693
L440.801 210.83
L441.098 220.541
L441.173 220.265
L441.247 219.793
L441.322 220.104
L441.47 221.256
L441.619 217.73
L441.991 205.646
L442.066 203.872
L442.14 204.529
L442.363 216.141
L442.438 216.037
L442.586 213.825
L442.884 206.971
L442.958 208.307
L443.107 221.67
L443.33 235.759
L443.554 224.861
L443.702 228.421
L443.777 227.684
L443.851 227.764
L444 223.974
L444.149 218.525
L444.372 206.429
L444.446 206.475
L444.521 205.98
L445.116 195.186
L445.19 196.948
L445.562 231.554
L445.711 226.14
L445.934 217.581
L446.009 218.618
L446.232 227.234
L446.306 226.52
L446.827 214.516
L446.902 215.046
L447.05 222.004
L447.125 221.716
L447.348 215.818
L447.571 222.223
L447.72 217.972
L448.166 194.783
L448.241 196.142
L449.059 231.773
L449.208 243.04
L449.282 241.588
L449.58 208.514
L449.654 208.549
L449.878 210.242
L449.878 210.242" style="fill:none;stroke:#808080;stroke-linecap:square;"/>
   </g>
  </g>
 </g>
 <defs>
  <clipPath id="p7ff5b81e1d">
   <rect height="345.6" width="446.4" x="72.0" y="43.2"/>
  </clipPath>
 </defs>
</svg>
