<?xml version="1.0" encoding="utf-8" standalone="no"?>
<!DOCTYPE svg PUBLIC "-//W3C//DTD SVG 1.1//EN"
  "http://www.w3.org/Graphics/SVG/1.1/DTD/svg11.dtd">
<!-- Created with matplotlib (http://matplotlib.org/) -->
<svg height="432pt" version="1.1" viewBox="0 0 576 432" width="576pt" xmlns="http://www.w3.org/2000/svg" xmlns:xlink="http://www.w3.org/1999/xlink">
 <defs>
  <style type="text/css">
*{stroke-linecap:butt;stroke-linejoin:round;}
  </style>
 </defs>
 <g id="figure_1">
  <g id="patch_1">
   <path d="
M0 432
L576 432
L576 0
L0 0
z
" style="fill:#ffffff;"/>
  </g>
  <g id="axes_1">
   <g id="line2d_1">
    <path clip-path="url(#p7ff5b81e1d)" d="
M72 157.988
L72.2976 248.57
L72.372 239.446
L72.5952 220.888
L72.744 232.603
L73.1904 196.73
L73.2648 191.443
L73.3392 197.249
L73.7112 296.021
L73.7856 294.5
L74.3064 187.883
L74.3808 182.63
L74.4552 185.775
L74.6784 214.632
L74.8272 209.206
L74.9016 209.552
L74.976 212.524
L75.1248 253.374
L75.1992 250.402
L75.6456 170.776
L75.72 175.476
L75.7944 174.646
L75.9432 155.396
L76.3152 190.164
L76.6128 217.846
L76.9104 281.402
L77.0592 272.589
L77.208 300.514
L77.3568 255.897
L77.5056 199.979
L77.7288 211.764
L77.8776 183.044
L77.952 184.461
L78.1008 227.592
L78.1752 223.791
L78.3984 182.837
L78.4728 184.496
L78.6216 197.94
L78.696 221.268
L78.7704 215.842
L78.9192 159.267
L79.1424 213.837
L79.2168 203.089
L79.44 267.267
L79.5888 265.055
L79.7376 233.122
L79.812 238.029
L79.8864 244.596
L80.0352 229.251
L80.2584 191.512
L80.3328 177.964
L80.4072 185.74
L80.6304 240.656
L80.8536 205.681
L81.0024 165.073
L81.0768 173.679
L81.2256 206.753
L81.3 206.545
L81.672 220.093
L81.9696 245.46
L82.044 243.87
L82.1184 238.479
L82.2672 253.374
L82.6392 174.715
L82.7136 179.001
L82.8624 211.315
L82.9368 204.022
L83.0112 209.068
L83.16 226.037
L83.2344 226.175
L83.3088 228.076
L83.3832 227.316
L83.4576 219.436
L83.532 222.305
L83.6064 223.411
L83.8296 159.233
L83.904 161.997
L83.9784 168.737
L84.2016 234.47
L84.276 234.643
L84.3504 236.371
L84.4248 229.977
L84.648 168.356
L85.2432 280.227
L85.392 272.244
L85.4664 276.356
L85.6152 250.575
L85.6896 256.346
L85.764 253.478
L86.136 190.648
L86.2848 203.884
L86.4336 185.878
L86.88 212.144
L86.9544 209.068
L87.0288 212.697
L87.252 187.814
L87.4008 207.893
L87.4752 206.027
L87.8472 152.321
L87.9216 161.444
L87.996 155.535
L88.1448 173.299
L88.5168 308.774
L88.6656 284.547
L88.8144 296.989
L88.9632 264.537
L89.1864 200.981
L89.4096 162.101
L89.484 164.693
L89.7816 239.308
L89.856 239.101
L90.228 211.453
L90.3768 230.046
L90.5256 193.931
L90.6744 155.466
L91.1952 220.507
L91.5672 289.178
L91.6416 285.377
L92.0136 214.321
L92.2368 229.977
L92.3112 225.242
L92.3856 222.788
L92.5344 199.841
L92.6832 156.088
L92.832 115.514
L92.9064 117
L93.0552 127.437
L93.204 185.464
L93.4272 247.257
L93.5016 246.047
L93.7248 254.998
L93.7992 260.182
L93.948 293.844
L94.1712 248.812
L94.2456 258.973
L94.3944 239.446
L94.4688 243.248
L94.5432 236.543
L94.7664 186.57
L94.8408 190.544
L94.9896 217.915
L95.2872 204.852
L95.3616 205.267
L95.5104 217.293
L95.6592 211.142
L96.1056 114.235
L96.18 125.813
L96.4776 246.013
L96.8496 290.733
L96.9984 325.501
L97.1472 295.053
L97.5192 215.565
L97.7424 154.705
L97.8168 154.049
L97.9656 182.803
L98.04 181.662
L98.1144 179.519
L98.1888 186.5
L98.412 260.286
L98.4864 259.284
L98.9328 136.319
L99.0072 134.764
L99.0816 141.607
L99.2304 184.496
L99.3048 183.943
L99.3792 183.459
L99.6024 220.196
L99.6768 236.993
L99.7512 233.882
L99.9 224.378
L100.346 274.041
L100.421 269.686
L100.57 238.168
L100.644 242.28
L100.793 261.53
L101.165 218.123
L101.239 217.363
L101.388 224.862
L101.462 218.468
L101.537 218.779
L101.611 223.583
L101.686 220.3
L101.909 205.543
L102.132 174.646
L102.504 128.163
L102.578 131.723
L102.876 207.306
L103.099 264.779
L103.248 260.182
L103.397 284.616
L103.546 246.151
L103.769 273.73
L103.918 232.915
L104.066 182.526
L104.438 219.955
L104.587 214.356
L105.034 163.76
L105.182 197.94
L105.406 233.848
L105.48 227.696
L105.703 255.62
L106.15 192.963
L106.224 196.35
L106.447 258.523
L106.67 222.166
L106.819 241.209
L106.968 216.637
L107.042 199.737
L107.117 206.822
L107.266 228.629
L107.563 136.147
L107.786 197.456
L107.935 175.061
L108.307 253.409
L108.456 299.995
L108.605 279.605
L108.679 284.651
L108.754 294.777
L108.828 282.923
L109.126 155.777
L109.2 157.781
L109.274 156.571
L109.349 159.405
L109.572 185.878
L109.87 257.521
L110.167 208.135
L110.465 265.505
L111.06 130.444
L111.134 144.095
L111.506 322.252
L111.73 278.776
L111.804 281.126
L111.878 277.117
L112.102 206.96
L112.25 226.694
L112.399 176.34
L112.622 121.32
L112.771 142.782
L112.994 186.189
L113.143 160.546
L113.218 164.762
L113.441 216.499
L113.887 353.944
L114.036 294.466
L114.259 162.931
L114.334 161.444
L114.408 165.488
L114.482 164.451
L114.631 160.477
L114.706 179.761
L114.929 272.659
L115.078 236.44
L115.152 217.57
L115.226 223.86
L115.301 233.537
L115.673 153.738
L115.822 159.233
L116.045 210.312
L116.119 208.031
L116.194 208.411
L116.491 254.964
L116.938 318.658
L117.012 315.202
L117.161 267.267
L117.384 202.467
L117.607 123.774
L117.756 103.384
L118.351 206.131
L118.574 252.268
L118.649 254.929
L118.723 252.406
L118.798 253.823
L118.946 279.087
L119.021 278.914
L119.095 273.281
L119.318 224.862
L119.542 247.43
L119.765 215.254
L120.137 120.214
L120.211 121.217
L120.286 129.511
L120.806 309.88
L120.955 291.01
L121.253 207.098
L121.402 205.439
L121.625 239.515
L121.699 239.343
L121.922 208.239
L122.071 220.715
L122.294 158.783
L122.369 161.306
L122.666 143.681
L122.741 147.517
L123.485 276.253
L123.708 280.227
L123.931 261.634
L124.08 218.399
L124.378 154.636
L124.452 158.438
L124.75 220.404
L124.824 225.899
L124.898 224.758
L124.973 225.899
L125.047 230.945
L125.27 260.01
L125.419 262.498
L125.791 215.012
L126.089 151.699
L126.163 154.118
L126.238 151.733
L126.312 142.125
L126.386 144.579
L126.61 206.476
L126.833 243.283
L126.907 243.041
L126.982 243.213
L127.056 245.011
L127.13 244.872
L127.428 206.476
L127.8 255.413
L127.949 246.531
L128.023 260.182
L128.098 259.146
L128.321 161.479
L128.47 104.317
L128.544 113.337
L129.139 284.34
L129.214 275.596
L129.511 190.855
L129.586 195.693
L129.66 192.652
L129.809 177.48
L130.106 238.617
L130.255 278.188
L130.404 266.956
L130.702 196.108
L130.85 205.75
L130.925 204.23
L130.999 198.32
L131.074 202.087
L131.222 218.641
L131.297 215.98
L131.52 186.466
L131.594 190.786
L131.743 205.301
L131.818 202.571
L131.892 190.302
L131.966 194.864
L132.19 226.694
L132.264 223.998
L132.338 225.069
L132.413 228.145
L132.487 221.613
L132.71 191.823
L132.859 178.724
L133.008 157.608
L133.082 164.52
L133.529 334.417
L133.678 345.58
L133.752 338.115
L133.975 252.683
L134.273 144.406
L134.422 92.048
L134.496 96.7827
L134.719 191.512
L134.868 225
L135.017 216.706
L135.091 219.505
L135.314 265.263
L135.389 255.759
L135.612 169.497
L135.686 179.243
L135.91 218.192
L135.984 221.613
L136.133 209.967
L136.207 210.9
L136.356 225.553
L136.505 242.971
L136.579 237.891
L136.877 180.763
L136.951 179.208
L137.1 207.478
L137.249 230.53
L137.398 206.511
L137.472 210.796
L137.695 259.595
L137.844 291.425
L138.365 161.548
L138.588 216.084
L138.811 266.369
L138.96 239.17
L139.183 214.563
L139.258 218.157
L139.406 205.543
L139.63 146.687
L139.704 150.973
L140.002 234.573
L140.076 237.096
L140.225 200.739
L140.374 181.386
L140.746 266.68
L140.894 300.03
L141.341 185.498
L141.49 154.878
L141.564 156.813
L141.713 196.177
L141.936 268.304
L142.159 242.695
L142.531 156.019
L142.606 158.438
L142.978 259.871
L143.126 264.917
L143.201 263.12
L143.35 218.676
L143.573 156.883
L143.647 158.472
L143.722 157.435
L143.87 176.202
L144.391 265.643
L144.54 280.642
L144.986 237.787
L145.433 126.228
L145.507 120.698
L145.582 128.578
L145.954 293.602
L146.028 280.158
L146.474 161.03
L146.995 274.041
L147.07 275.976
L147.293 250.402
L147.367 255.067
L147.442 251.404
L147.59 212.835
L147.888 156.295
L147.962 143.957
L148.037 148.761
L148.558 257.279
L148.632 245.529
L148.781 196.419
L148.855 196.592
L149.078 241.071
L149.153 239.308
L149.302 252.545
L149.376 269.514
L149.45 267.025
L149.674 202.882
L149.748 202.882
L149.971 221.924
L150.12 209.828
L150.343 163.345
L150.418 172.227
L150.641 185.775
L150.715 172.987
L150.79 175.407
L151.013 221.89
L151.087 218.468
L151.236 200.394
L151.459 281.091
L151.831 240.31
L151.906 243.421
L151.98 242.315
L152.129 225.139
L152.278 195.521
L152.501 235.334
L152.947 167.043
L153.022 164.106
L153.17 205.889
L153.319 246.739
L153.394 240.691
L153.691 153.323
L153.766 139.983
L153.84 143.473
L154.212 262.913
L154.286 260.77
L154.51 230.495
L154.733 186.915
L154.882 262.049
L155.03 321.146
L155.105 314.614
L155.254 323.496
L155.328 309.88
L155.626 183.321
L155.7 186.777
L155.849 189.127
L155.923 185.878
L155.998 186.12
L156.072 197.594
L156.146 197.283
L156.37 143.611
L156.593 185.533
L156.667 172.815
L156.816 153.53
L156.965 208.135
L157.039 203.539
L157.188 174.888
L157.337 210.865
L157.486 245.218
L157.634 222.823
L157.783 281.126
L157.858 277.151
L158.081 222.858
L158.304 259.111
L158.378 252.959
L158.453 256.104
L158.602 272.106
L158.825 181.662
L158.899 181.697
L159.048 218.365
L159.122 211.453
L159.271 163.414
L159.643 217.328
L159.792 207.409
L159.941 219.263
L160.164 151.664
L160.387 192.307
L160.462 191.546
L160.536 199.53
L160.759 297.334
L160.834 289.731
L161.057 227.869
L161.131 246.324
L161.206 230.426
L161.354 159.682
L161.652 287.658
L161.726 267.82
L161.801 254.653
L161.95 284.755
L162.024 283.821
L162.545 148.761
L162.694 128.854
L163.14 204.472
L163.363 280.711
L163.512 251.646
L163.661 217.777
L163.735 221.13
L163.958 179.208
L164.182 257.418
L164.256 256.104
L164.405 242.799
L164.628 274.283
L164.851 206.891
L165 213.561
L165.074 214.667
L165.223 190.959
L165.372 172.504
L165.446 174.923
L165.595 195.279
L165.818 164.347
L166.042 202.122
L166.265 235.576
L166.562 255.102
L166.711 282.266
L166.786 278.845
L166.934 244.043
L167.009 247.326
L167.083 251.335
L167.232 233.951
L167.455 171.467
L167.678 190.544
L167.827 180.038
L167.902 182.215
L167.976 181.282
L168.05 182.63
L168.199 191.27
L168.422 150.731
L168.497 148.312
L168.571 156.33
L169.166 344.44
L169.762 154.913
L169.836 160.027
L170.208 252.475
L170.282 255.413
L170.357 253.754
L170.58 199.495
L170.654 198.182
L170.878 165.73
L171.026 196.108
L171.25 272.52
L171.324 268.684
L171.919 149.383
L172.514 240.863
L172.589 244.941
L172.886 210.658
L173.035 246.324
L173.258 294.846
L173.333 283.338
L173.482 194.069
L173.556 198.251
L173.705 214.805
L173.779 198.355
L173.854 199.771
L173.928 198.562
L174.077 155.224
L174.151 157.919
L174.598 262.947
L174.672 256.415
L174.746 250.264
L174.895 268.235
L175.267 166.145
L175.342 167.009
L175.416 160.753
L175.565 190.82
L175.788 248.432
L176.086 217.19
L176.16 219.367
L176.309 229.424
L176.383 226.936
L176.532 237.58
L176.681 222.754
L176.83 191.926
L176.978 174.681
L177.127 176.72
L177.499 248.121
L177.648 207.34
L177.722 209.794
L177.871 233.813
L178.02 207.755
L178.094 214.563
L178.243 243.732
L178.318 240.932
L178.466 202.467
L178.541 200.739
L178.69 215.738
L178.913 249.331
L179.062 293.36
L179.508 163.656
L179.806 209.863
L179.954 180.694
L180.029 164.624
L180.103 166.11
L180.326 193.793
L180.475 185.775
L180.55 190.164
L180.922 269.203
L180.996 268.235
L181.145 254.273
L181.219 266.783
L181.294 262.36
L181.591 188.747
L181.814 212.904
L181.963 202.951
L182.261 250.644
L182.707 204.091
L182.856 215.635
L182.93 213.319
L183.079 201.569
L183.228 233.571
L183.302 226.555
L183.674 132.829
L183.898 161.133
L184.046 216.429
L184.344 326.227
L184.418 324.74
L185.088 157.09
L185.162 164.278
L185.311 153.115
L185.758 256.968
L185.832 269.341
L185.906 262.463
L186.13 211.038
L186.204 214.909
L186.278 226.694
L186.353 214.459
L186.576 110.33
L186.65 112.819
L187.171 235.472
L187.32 261.392
L187.394 257.245
L187.543 233.779
L187.692 275.078
L187.766 295.295
L187.841 294.535
L187.99 253.236
L188.138 219.229
L188.213 215.496
L188.287 204.714
L188.362 205.958
L188.436 219.16
L188.51 209.103
L188.734 145.167
L188.808 142.091
L188.882 145.927
L189.478 243.317
L189.552 242.488
L189.85 278.05
L189.924 276.391
L189.998 264.364
L190.222 188.159
L190.445 211.315
L190.519 205.612
L190.668 197.974
L190.742 195.728
L190.817 196.177
L190.891 198.735
L191.04 182.941
L191.263 200.912
L191.412 244.285
L191.561 276.737
L191.635 270.205
L191.71 273.315
L191.784 276.909
L191.858 273.004
L192.082 227.454
L192.305 134.937
L192.454 146.445
L192.528 139.084
L193.049 211.211
L193.272 189.023
L193.421 224.102
L193.942 347.17
L194.016 345.235
L194.239 274.594
L194.611 138.116
L194.834 97.1974
L194.909 109.812
L195.206 202.709
L195.355 220.646
L195.578 180.902
L195.653 179.554
L195.802 228.629
L196.025 287.243
L196.099 289.075
L196.471 231.498
L196.694 185.222
L196.843 183.286
L196.992 195.59
L197.066 195.279
L197.215 197.767
L197.587 232.258
L197.81 202.26
L197.959 225.622
L198.034 222.132
L198.108 220.991
L198.257 227.523
L198.48 292.945
L199.298 136.838
L199.596 185.395
L199.968 261.185
L200.266 196.039
L200.414 176.029
L200.489 177.307
L200.563 181.8
L200.712 201.741
L200.786 196.004
L201.01 236.509
L201.084 236.198
L201.233 246.289
L201.605 348.967
L201.754 309.949
L202.274 102.969
L202.349 97.4393
L202.498 116.447
L202.646 176.513
L202.87 135.006
L203.093 200.808
L203.316 225.311
L203.837 300.998
L203.911 297.542
L204.06 284.996
L204.283 220.231
L204.581 176.029
L204.73 162.896
L204.804 159.924
L204.878 150.04
L205.399 252.372
L205.474 257.107
L205.622 227.834
L205.697 230.15
L205.771 229.424
L205.92 220.093
L206.143 192.756
L206.218 192.376
L206.366 197.974
L206.515 210.174
L206.59 204.61
L206.664 205.543
L206.738 208.066
L206.813 206.131
L206.887 196.108
L206.962 210.831
L207.11 270.965
L207.334 194.069
L207.408 199.357
L207.631 243.905
L207.78 210.209
L207.854 218.779
L208.003 262.705
L208.078 262.083
L208.226 217.57
L208.301 228.802
L208.375 227.972
L208.45 214.114
L208.673 146.653
L208.747 154.394
L208.822 151.457
L208.896 149.798
L209.119 207.651
L209.194 200.774
L209.268 203.435
L209.714 327.16
L209.863 275.562
L210.161 146.169
L210.235 122.011
L210.31 124.362
L210.533 183.632
L210.905 268.891
L210.979 268.788
L211.202 216.706
L211.277 211.418
L211.351 213.699
L211.5 204.333
L211.649 218.399
L211.723 216.948
L211.798 204.714
L211.872 206.545
L212.095 260.977
L212.17 258.005
L212.467 195.106
L212.542 191.408
L212.616 193.516
L212.839 264.364
L212.914 264.191
L213.062 235.679
L213.286 163.622
L213.36 147.931
L213.434 152.044
L213.806 237.857
L214.03 255.897
L214.104 252.752
L214.402 185.222
L214.476 181.178
L214.625 193.862
L214.774 215.427
L214.922 202.294
L214.997 205.75
L215.294 231.359
L215.592 241.278
L215.964 202.052
L216.113 238.582
L216.336 219.298
L216.41 226.797
L216.708 171.259
L216.857 152.977
L217.303 264.122
L217.378 261.219
L217.452 251.266
L217.601 263.638
L217.675 256.277
L217.75 258.627
L217.824 252.925
L218.047 216.049
L218.122 219.194
L218.196 211.418
L218.419 172.642
L218.494 171.674
L218.568 172.953
L218.717 201.776
L218.791 197.352
L218.866 200.877
L219.014 220.542
L219.312 192.376
L219.386 194.518
L219.758 250.782
L219.833 250.056
L219.907 250.333
L219.982 255.413
L220.13 240.932
L220.205 219.332
L220.279 220.093
L220.354 214.771
L220.577 155.535
L220.651 138.289
L220.726 138.497
L220.949 205.785
L221.246 283.338
L221.321 283.234
L221.767 228.076
L221.842 223.618
L221.916 224.309
L221.99 233.156
L222.139 220.577
L222.288 208.653
L222.362 218.779
L222.437 215.6
L222.511 220.715
L222.66 207.928
L222.958 151.353
L223.702 252.164
L223.776 240.552
L223.999 281.471
L224.148 271.656
L224.52 178.517
L224.669 116.793
L224.892 147.862
L225.19 254.687
L225.264 253.616
L225.487 215.738
L225.636 224.827
L225.71 220.715
L225.859 228.491
L226.008 219.747
L226.157 236.612
L226.231 236.889
L226.306 240.172
L226.38 238.721
L226.454 228.629
L226.603 170.43
L226.752 193.136
L226.901 223.963
L227.05 274.836
L227.124 272.106
L227.422 208.757
L227.496 209.794
L227.645 217.777
L227.942 194.104
L228.017 197.041
L228.166 219.332
L228.24 213.699
L228.389 236.267
L228.463 236.163
L228.612 232.845
L228.686 234.366
L228.835 215.98
L229.058 184.15
L229.43 219.298
L229.802 199.288
L229.951 215.946
L230.026 215.393
L230.1 232.534
L230.174 231.048
L230.249 211.038
L230.323 213.492
L230.398 219.436
L230.546 189.127
L230.695 153.565
L230.918 194.968
L231.29 292.703
L231.365 290.699
L231.662 238.34
L231.737 238.41
L231.811 239.585
L231.96 233.606
L232.406 187.33
L232.481 195.106
L232.555 192.168
L232.778 162.032
L232.927 121.873
L233.002 123.636
L233.225 180.28
L233.522 333.519
L233.597 330.201
L233.969 219.609
L234.192 180.556
L234.266 179.796
L234.341 183.01
L234.49 211.245
L234.564 210.485
L234.713 186.846
L234.787 183.459
L234.936 166.732
L235.01 175.856
L235.159 215.842
L235.308 205.025
L235.606 251.473
L235.754 265.263
L235.903 293.844
L236.052 284.271
L236.424 206.545
L236.573 190.682
L236.647 199.979
L236.722 196.143
L236.796 198.631
L236.87 196.385
L237.019 174.75
L237.094 194.207
L237.168 188.712
L237.391 162.343
L237.466 170.845
L237.614 211.833
L237.763 182.975
L237.838 202.744
L237.912 197.179
L238.061 238.34
L238.135 233.571
L238.21 229.735
L238.358 270.101
L238.507 254.998
L238.656 223.445
L238.805 232.465
L238.954 204.264
L239.028 213.872
L239.102 252.026
L239.177 242.142
L239.549 180.211
L239.623 182.457
L239.698 196.627
L239.772 192.548
L239.846 185.947
L239.921 207.928
L239.995 207.513
L240.07 191.995
L240.144 195.797
L240.442 240.276
L240.59 185.706
L240.665 192.825
L240.739 182.284
L241.037 249.019
L241.186 282.992
L241.26 261.772
L241.334 269.03
L241.409 281.057
L241.558 266.818
L241.706 293.74
L242.45 105.837
L242.674 132.587
L242.748 136.216
L242.897 178.241
L242.971 164.417
L243.046 165.592
L243.194 198.147
L243.343 240.863
L243.492 216.291
L243.864 263.12
L244.162 290.733
L244.459 196.557
L244.534 202.847
L244.98 268.511
L245.054 267.993
L245.203 243.144
L245.278 245.702
L245.873 153.081
L245.947 158.161
L246.17 179.727
L246.245 178.068
L246.394 168.46
L246.542 177.549
L246.914 242.971
L247.063 230.841
L247.138 241.485
L247.51 217.259
L247.584 215.6
L247.658 237.027
L247.733 234.781
L248.03 181.178
L248.105 192.963
L248.254 202.951
L248.328 194.691
L248.551 227.074
L248.7 264.019
L248.849 258.593
L248.923 257.556
L248.998 261.461
L249.37 219.885
L249.518 181.489
L249.742 201.603
L249.89 236.923
L250.114 212.351
L250.188 211.073
L250.486 253.512
L250.634 215.911
L250.783 166.421
L250.858 165.764
L250.932 162.447
L251.006 149.452
L251.378 210.209
L251.453 212.213
L251.527 206.338
L251.676 255.655
L251.75 254.445
L251.974 240.898
L252.048 244.838
L252.197 278.292
L252.42 248.225
L252.792 146.031
L252.941 138.324
L253.238 219.885
L253.387 248.432
L253.536 241.693
L253.759 302.829
L253.982 258.593
L254.354 123.498
L254.429 125.571
L254.503 116.171
L254.578 122.081
L255.024 259.802
L255.173 280.607
L255.247 308.083
L255.322 306.7
L255.47 282.854
L255.694 210.312
L255.842 214.632
L255.917 213.457
L256.214 228.18
L256.289 223.963
L256.438 179.969
L256.661 134.557
L256.735 137.08
L256.884 156.952
L257.033 141.365
L257.777 310.986
L257.926 308.67
L258 303.002
L258.372 184.254
L258.595 217.708
L258.744 231.048
L258.893 227.247
L259.116 247.914
L259.265 302
L259.339 293.775
L260.009 89.1449
L260.083 100.757
L260.232 145.892
L260.306 142.402
L260.455 164.071
L260.53 157.435
L260.604 160.027
L261.125 301.274
L261.199 294.155
L261.422 246.289
L261.497 244.388
L261.646 269.859
L261.72 252.372
L261.794 258.869
L261.869 274.075
L261.943 270.896
L262.166 227.212
L262.315 186.639
L262.39 184.219
L262.538 159.129
L262.687 172.4
L262.836 174.474
L262.91 180.245
L263.208 254.134
L263.357 244.147
L263.431 247.43
L263.506 257.832
L263.654 231.152
L263.878 183.114
L263.952 183.908
L264.026 183.667
L264.175 163.898
L264.398 191.684
L264.77 280.884
L264.845 278.43
L264.919 269.583
L264.994 274.456
L265.142 266.645
L265.366 182.319
L265.44 157.09
L265.514 158.818
L265.663 143.508
L265.812 160.131
L265.886 150.938
L266.11 191.339
L266.482 319.073
L266.556 307.53
L267.002 162.136
L267.077 165.937
L267.523 253.72
L267.598 251.611
L267.821 209.448
L267.97 201.361
L268.044 206.131
L268.342 245.287
L268.416 243.697
L268.639 176.098
L268.937 187.675
L269.16 251.024
L269.309 292.047
L269.383 284.893
L269.681 191.581
L269.755 191.892
L269.904 198.113
L269.978 197.905
L270.053 196.765
L270.202 171.501
L270.499 212.662
L270.722 264.122
L270.797 257.383
L271.169 172.642
L271.318 151.94
L271.838 225.104
L271.913 230.253
L271.987 226.072
L272.136 210.001
L272.21 218.296
L272.359 202.882
L272.508 237.684
L272.582 236.543
L272.657 236.854
L272.806 255.759
L272.954 224.275
L273.029 227.765
L273.252 266.68
L273.401 281.575
L273.55 265.747
L273.847 206.545
L273.922 211.245
L273.996 210.762
L274.368 124.776
L274.442 96.4025
L274.517 100.446
L274.963 218.503
L275.112 180.833
L275.261 202.26
L275.484 242.177
L275.558 234.988
L275.633 245.356
L275.856 294.466
L276.005 282.093
L276.154 293.153
L276.6 226.901
L276.898 137.84
L276.972 113.13
L277.046 116.482
L277.418 193.343
L277.939 280.504
L278.014 278.776
L278.237 250.575
L278.534 161.686
L278.609 169.601
L278.832 247.637
L278.981 237.373
L279.055 243.732
L279.576 162.205
L279.65 169.013
L279.799 180.867
L280.022 212.317
L280.097 212.87
L280.171 209.69
L280.246 199.841
L280.841 271.587
L280.915 268.2
L281.138 224.136
L281.436 186.673
L281.585 171.156
L281.734 204.817
L282.031 286.759
L282.106 285.135
L282.254 251.37
L282.626 142.264
L282.701 144.821
L282.924 181.766
L283.147 224.171
L283.222 223.272
L283.296 231.463
L283.445 269.479
L284.04 156.986
L284.114 166.075
L284.412 237.2
L284.561 252.475
L284.784 221.855
L285.156 167.251
L285.23 167.32
L285.379 208.1
L285.751 313.094
L285.826 307.115
L285.974 323.773
L286.272 193.965
L286.421 154.083
L286.495 165.972
L286.57 163.829
L286.644 149.729
L286.942 181.489
L287.09 215.185
L287.165 213.284
L287.239 226.625
L287.314 222.685
L287.388 206.372
L287.537 220.853
L287.686 170.568
L287.909 194.795
L287.983 189.023
L288.132 209.967
L288.355 263.431
L288.43 262.394
L288.578 243.732
L288.876 166.49
L289.099 208.584
L289.397 315.997
L289.471 311.608
L289.62 263.085
L289.843 157.366
L289.992 132.967
L290.066 137.045
L290.29 185.982
L290.438 202.502
L290.513 203.711
L290.587 216.844
L290.81 285.757
L290.959 291.978
L291.108 264.433
L291.629 147.897
L291.703 149.314
L292.298 265.988
L292.522 221.821
L292.67 181.627
L292.745 182.042
L292.819 184.081
L292.968 177.515
L293.117 194.933
L293.266 172.746
L293.34 178.102
L293.638 212.628
L293.712 219.747
L293.786 212.248
L293.861 215.6
L294.307 326.883
L294.382 322.01
L294.53 266.541
L294.754 164.624
L294.828 161.997
L294.977 169.704
L295.349 231.567
L295.423 234.504
L295.572 212.109
L295.646 210.692
L295.795 190.682
L296.018 213.215
L296.093 214.252
L296.242 186.155
L296.465 221.579
L296.539 218.814
L296.614 221.268
L296.688 214.84
L296.837 190.267
L296.986 208.653
L297.06 207.755
L297.134 202.571
L297.358 229.977
L297.506 216.81
L297.655 246.013
L297.73 236.751
L297.804 236.82
L297.878 250.747
L298.176 197.421
L298.697 242.591
L299.069 206.027
L299.218 227.247
L299.738 133.555
L300.036 262.083
L300.11 259.215
L300.334 208.619
L300.408 213.872
L300.557 241.313
L300.631 240.345
L300.78 225.83
L301.003 301.585
L301.301 199.771
L301.375 174.543
L301.524 213.492
L301.598 200.428
L301.673 203.642
L301.747 218.088
L301.822 216.879
L302.119 156.883
L302.194 159.025
L302.64 229.182
L302.789 241.278
L303.012 210.727
L303.235 158.265
L303.458 186.639
L303.756 258.904
L303.979 279.951
L304.054 272.624
L304.277 228.18
L304.351 221.095
L304.426 223.652
L304.574 234.712
L304.723 219.091
L304.872 238.375
L304.946 236.405
L305.021 227.247
L305.095 229.631
L305.69 176.409
L305.914 121.528
L305.988 131.17
L306.137 151.975
L306.509 280.089
L306.806 242.868
L306.955 259.284
L307.03 256.415
L307.104 244.596
L307.178 246.635
L307.253 260.355
L307.327 249.296
L307.699 135.352
L307.774 143.3
L307.922 128.474
L308.22 235.437
L308.443 297.507
L308.518 294.535
L308.815 228.906
L308.89 229.044
L309.113 190.648
L309.262 167.665
L309.634 273.384
L309.708 272.313
L309.782 273.661
L309.931 295.33
L310.154 211.626
L310.378 119.385
L310.452 116.827
L310.526 132.068
L310.675 199.53
L310.75 197.629
L310.898 212.524
L310.973 211.591
L311.047 207.271
L311.27 163.207
L311.345 163.622
L311.568 225.242
L311.717 256.173
L311.791 254.584
L312.014 210.692
L312.089 207.133
L312.238 242.971
L312.312 240.276
L312.535 214.874
L312.61 220.024
L312.684 220.611
L312.833 192.756
L313.205 310.191
L313.279 302.242
L313.577 210.451
L313.651 217.155
L313.726 223.411
L314.023 166.698
L314.098 173.713
L314.172 176.616
L314.321 154.256
L314.395 159.302
L314.47 166.801
L314.618 201.085
L314.693 202.916
L314.842 215.773
L315.065 187.572
L315.288 220.266
L315.437 270.827
L315.511 257.867
L315.66 218.157
L315.734 213.595
L315.883 247.395
L315.958 240.621
L316.255 170.292
L316.553 249.814
L316.925 199.046
L316.999 208.411
L317.074 207.997
L317.148 196.868
L317.222 199.219
L317.594 287.796
L317.818 236.336
L317.892 237.165
L317.966 246.497
L318.115 218.123
L318.338 155.742
L318.487 179.139
L318.785 154.152
L319.082 206.856
L319.231 209.863
L319.38 184.219
L319.678 281.817
L319.752 272.97
L319.901 234.504
L319.975 238.824
L320.124 227.938
L320.273 196.143
L320.347 204.61
L320.496 245.944
L320.57 239.619
L320.719 206.338
L320.794 208.066
L321.017 243.974
L321.091 243.939
L321.314 183.079
L321.463 152.148
L321.686 214.045
L321.761 207.582
L321.91 171.121
L321.984 186.051
L322.207 301.689
L322.505 244.181
L322.802 148.899
L323.323 217.293
L323.398 214.943
L323.472 220.611
L323.695 255.137
L323.77 260.701
L323.844 249.123
L324.067 190.579
L324.142 194.899
L324.216 193.965
L324.29 190.544
L324.439 180.625
L324.588 194.933
L324.662 195.901
L324.96 256.381
L325.034 255.413
L325.109 250.125
L325.183 251.024
L325.332 268.822
L325.406 268.2
L325.555 253.789
L325.927 182.975
L326.002 182.215
L326.299 244.216
L326.374 231.843
L326.746 150.109
L326.82 143.681
L326.894 150.8
L327.341 236.059
L327.415 237.96
L327.564 211.211
L327.638 212.213
L327.787 204.886
L327.936 232.258
L328.01 228.456
L328.159 244.561
L328.234 234.539
L328.382 204.955
L328.457 215.669
L328.531 207.409
L328.606 213.492
L328.903 297.023
L328.978 309.845
L329.275 221.959
L329.35 226.106
L329.424 228.007
L329.647 173.713
L329.722 167.492
L329.796 172.02
L329.945 200.705
L330.019 182.491
L330.094 182.837
L330.168 182.733
L330.242 176.996
L330.317 182.975
L330.54 211.349
L330.614 208.964
L330.763 193.585
L330.912 207.824
L331.061 229.942
L331.21 217.881
L331.284 216.74
L331.358 204.61
L331.433 204.921
L331.507 210.416
L331.582 203.504
L331.656 177.826
L332.251 306.942
L332.549 230.115
L332.623 229.32
L332.772 201.707
L332.921 211.003
L332.995 205.059
L333.07 207.306
L333.293 231.359
L333.367 229.009
L333.739 180.176
L333.814 180.522
L333.962 156.848
L334.037 158.611
L334.111 167.32
L334.334 238.893
L334.409 236.267
L334.483 236.82
L334.558 240.967
L334.632 238.651
L334.93 210.692
L335.004 218.918
L335.227 289.8
L335.302 285.066
L335.599 156.502
L335.674 151.387
L335.822 166.041
L335.897 160.511
L335.971 162.239
L336.046 160.684
L336.12 166.075
L336.343 217.363
L336.418 212.109
L336.79 249.123
L336.864 248.812
L336.938 248.847
L337.087 279.709
L337.162 279.398
L337.534 246.151
L337.757 230.841
L337.906 225.933
L338.054 204.955
L338.129 213.284
L338.203 205.923
L338.426 154.982
L338.501 147.759
L338.575 150.212
L338.798 165.834
L339.022 179.865
L339.468 251.508
L339.542 251.266
L339.617 253.27
L339.691 252.372
L339.989 218.71
L340.063 201.569
L340.435 253.72
L340.51 249.089
L341.03 169.29
L341.105 169.739
L341.179 179.035
L341.626 320.351
L341.7 314.614
L342.221 138.324
L342.444 166.939
L342.816 246.531
L342.89 249.711
L343.039 200.463
L343.262 140.743
L343.486 172.538
L343.709 199.702
L344.081 220.196
L344.155 223.099
L344.304 291.252
L344.378 333.346
L344.453 331.963
L344.75 208.723
L344.825 176.167
L344.974 233.64
L345.197 304.143
L345.718 185.291
L346.015 219.851
L346.164 219.574
L346.238 220.473
L346.685 158.127
L346.834 144.579
L346.908 147.102
L347.28 186.051
L347.503 194.795
L347.652 187.814
L348.024 217.674
L348.173 207.444
L348.47 245.045
L348.619 286.206
L348.768 277.739
L348.991 254.342
L349.066 258.316
L349.214 272.071
L349.289 265.712
L349.438 278.223
L349.81 211.384
L349.958 185.187
L350.033 191.615
L350.33 241.485
L350.405 234.85
L350.777 148.035
L350.851 155.742
L351.074 121.424
L351.521 183.597
L351.595 182.595
L351.744 146.929
L352.19 314.096
L352.562 252.026
L352.637 249.953
L352.711 250.16
L353.009 277.635
L353.232 232.292
L353.455 183.39
L353.53 184.116
L353.678 189.576
L353.753 195.693
L353.902 180.556
L354.199 246.427
L354.274 246.116
L354.646 173.126
L354.72 175.925
L354.869 178.828
L355.092 208.066
L355.241 231.152
L355.315 225.691
L355.613 171.259
L355.91 242.107
L356.059 213.837
L356.357 113.164
L356.654 241.935
L356.878 329.89
L356.952 329.371
L357.026 321.492
L357.25 258.8
L357.324 256.139
L357.473 275.631
L357.77 224.344
L357.994 150.04
L358.068 152.39
L358.217 174.785
L358.366 209.172
L358.514 199.426
L358.812 180.28
L359.035 188.228
L359.407 150.904
L359.482 157.747
L360.077 294.431
L360.151 293.706
L360.3 295.848
L360.374 303.901
L360.598 283.821
L361.044 151.076
L361.193 134.177
L361.342 175.994
L361.565 240.034
L361.639 233.295
L361.862 167.043
L361.937 166.801
L362.086 170.568
L362.383 299.27
L362.458 296.539
L362.904 189.542
L363.053 180.729
L363.127 181.489
L363.276 199.253
L363.499 159.82
L363.648 130.306
L364.094 252.614
L364.243 268.719
L364.318 265.435
L364.466 248.916
L364.69 285.446
L364.764 284.547
L364.838 282.059
L364.913 284.34
L364.987 292.496
L365.062 282.577
L365.434 147.413
L365.508 158.887
L365.657 139.775
L365.806 157.297
L365.954 137.46
L366.401 242.695
L366.624 276.495
L366.698 278.707
L366.847 238.893
L366.922 250.817
L366.996 250.367
L367.294 215.358
L367.517 235.576
L367.591 230.945
L367.74 204.403
L367.889 181.939
L368.038 204.299
L368.41 126.401
L368.484 128.509
L368.633 173.229
L368.856 251.231
L369.005 227.661
L369.228 289.973
L369.377 269.997
L369.526 290.733
L369.6 283.925
L369.749 319.833
L369.823 316.1
L370.493 128.854
L370.642 77.2909
L370.716 79.5718
L370.79 84.2374
L370.865 76.7033
L370.939 88.3155
L371.386 247.291
L371.46 251.439
L371.609 234.539
L371.758 259.699
L371.981 279.778
L372.055 277.013
L372.278 237.718
L372.576 274.525
L372.65 284.893
L372.725 280.953
L373.246 205.681
L373.618 167.181
L373.841 122.737
L373.915 122.081
L374.213 180.867
L374.436 260.424
L374.51 262.913
L374.659 301.62
L374.734 298.026
L374.808 296.332
L374.957 269.133
L375.478 119.108
L375.552 120.491
L375.701 164.451
L375.998 276.149
L376.073 276.115
L376.296 222.961
L376.519 181.489
L376.594 174.059
L376.668 176.305
L376.817 200.29
L376.966 185.878
L377.04 186.12
L377.263 263.604
L377.338 259.146
L377.486 275.389
L377.561 274.075
L377.635 260.632
L377.784 200.255
L377.858 206.407
L377.933 201.776
L378.007 185.809
L378.082 189.3
L378.379 259.837
L378.9 173.748
L378.974 180.418
L379.049 190.509
L379.272 238.548
L379.346 244.388
L379.57 195.624
L379.718 198.942
L379.793 198.666
L380.09 186.984
L380.165 180.936
L380.314 203.988
L380.388 202.536
L380.462 198.527
L380.686 224.447
L380.76 223.722
L380.909 249.987
L380.983 245.702
L381.058 237.476
L381.206 253.098
L381.355 292.15
L381.578 216.499
L381.653 230.91
L381.727 226.003
L381.95 180.452
L382.025 182.319
L382.099 207.133
L382.174 204.817
L382.248 193.931
L382.322 194.553
L382.471 205.267
L382.62 247.084
L382.769 231.981
L382.843 224.171
L382.918 228.664
L383.141 187.088
L383.215 189.576
L383.364 206.545
L383.438 199.46
L383.662 151.526
L383.736 154.982
L383.885 178.206
L384.182 248.121
L384.257 240.449
L384.406 210.9
L384.554 195.97
L384.629 202.398
L384.852 318.243
L384.926 317.068
L385.15 269.272
L385.447 175.821
L385.745 214.356
L385.819 209.448
L385.968 182.18
L386.414 201.292
L386.712 252.441
L386.786 254.895
L387.01 282.992
L387.233 234.435
L387.307 239.55
L387.382 234.435
L387.902 80.5049
L387.977 88.3501
L388.572 286.863
L388.646 285.031
L388.87 308.497
L388.944 307.219
L389.242 255.62
L389.39 203.193
L389.465 208.619
L389.614 194.035
L389.762 187.883
L389.837 195.451
L389.986 244.803
L390.06 241.589
L390.506 151.526
L390.581 154.532
L390.655 158.714
L390.878 193.101
L391.325 254.307
L391.399 266.818
L391.474 266.507
L391.771 235.921
L392.366 127.507
L392.59 204.195
L392.738 248.501
L392.813 242.971
L393.11 274.594
L393.185 274.283
L393.259 276.667
L393.334 271.656
L393.557 231.359
L393.631 232.88
L393.706 231.843
L393.78 221.89
L393.854 223.03
L393.929 223.756
L394.078 197.11
L394.152 203.089
L394.375 242.557
L394.45 238.548
L394.747 204.817
L395.194 159.509
L395.342 125.779
L395.714 175.441
L395.938 246.289
L396.086 229.942
L396.161 232.327
L396.682 320.006
L396.756 342.954
L396.979 287.416
L397.277 208.342
L397.351 196.523
L397.574 134.038
L397.649 141.642
L397.872 172.262
L398.021 192.998
L398.244 142.229
L398.616 228.387
L398.69 227.661
L398.765 228.802
L398.839 219.263
L398.988 174.163
L399.062 174.681
L399.137 163.345
L399.211 168.979
L399.732 302.899
L399.955 231.878
L400.03 195.935
L400.104 196.419
L400.402 273.661
L400.55 250.609
L400.848 192.376
L401.22 232.12
L401.443 194.415
L401.518 190.371
L401.741 213.872
L401.89 254.203
L401.964 251.611
L402.336 175.718
L402.41 183.874
L402.634 246.531
L402.708 243.317
L402.931 207.928
L403.154 186.915
L403.229 183.459
L403.526 221.786
L403.824 202.225
L403.898 206.476
L403.973 223.203
L404.047 221.613
L404.27 195.417
L404.642 234.608
L404.717 235.541
L404.866 244.423
L404.94 242.142
L405.089 252.579
L405.535 209.932
L405.684 181.282
L405.833 197.352
L406.13 215.254
L406.205 200.497
L406.354 250.644
L406.428 245.252
L406.502 244.976
L406.726 270.792
L407.098 185.498
L407.172 187.572
L407.321 150.178
L407.47 119.834
L407.767 174.404
L407.916 216.913
L407.99 215.185
L408.139 273.315
L408.511 235.057
L408.586 232.223
L408.958 289.627
L409.032 285.377
L409.255 180.902
L409.478 203.642
L409.553 209.379
L409.776 183.736
L410.074 241.555
L410.148 235.403
L410.222 210.278
L410.297 216.464
L410.371 216.948
L410.52 188.712
L410.818 220.542
L411.041 180.971
L411.115 185.913
L411.19 187.71
L411.338 201.327
L411.636 240.138
L411.785 223.134
L411.859 228.145
L411.934 230.15
L412.082 214.287
L412.231 234.781
L412.38 224.067
L412.529 249.883
L412.603 246.358
L412.901 164.278
L412.975 183.252
L413.124 229.631
L413.273 223.583
L413.347 227.35
L413.496 219.54
L413.57 221.13
L413.645 226.21
L413.719 217.155
L413.868 279.882
L413.942 274.594
L414.091 288.211
L414.166 276.737
L414.463 176.098
L414.612 160.719
L414.761 198.631
L414.91 224.793
L415.133 204.817
L415.505 91.8406
L415.802 174.439
L415.877 179.969
L415.951 174.819
L416.1 226.037
L416.472 364.381
L416.546 368.804
L417.067 209.725
L417.514 152.321
L417.737 174.37
L417.811 173.851
L417.886 170.084
L418.034 183.874
L418.183 167.216
L418.406 257.763
L418.481 256.83
L418.63 241.002
L419.076 298.89
L419.15 295.883
L419.299 251.197
L419.522 164.106
L419.671 142.782
L419.82 149.59
L419.894 149.037
L419.969 149.901
L420.043 142.644
L420.118 144.683
L420.192 148.865
L420.266 143.923
L420.341 150.212
L420.787 248.605
L420.862 244.423
L420.936 254.342
L421.01 279.778
L421.085 278.776
L421.234 262.221
L421.308 263.466
L421.382 260.493
L421.606 232.292
L421.68 231.532
L421.829 216.187
L422.126 286.102
L422.647 206.925
L422.87 150.8
L422.945 159.475
L423.094 192.41
L423.168 181.8
L423.391 116.516
L423.466 122.15
L423.614 163.795
L423.838 209.517
L423.986 217.501
L424.135 183.148
L424.21 186.535
L424.805 312.333
L424.879 310.191
L425.102 231.498
L425.177 240.552
L425.326 246.497
L425.623 187.572
L425.921 159.163
L426.144 203.193
L426.293 207.547
L426.516 190.302
L426.888 292.012
L427.111 268.719
L427.334 188.781
L427.558 114.823
L427.706 132.31
L427.93 176.789
L428.153 195.14
L428.376 270.55
L428.45 274.283
L428.599 263.638
L428.822 239.619
L428.971 236.854
L429.12 207.962
L429.269 268.269
L429.492 313.336
L429.715 223.307
L430.087 84.1683
L430.162 96.8173
L430.459 198.182
L430.608 200.635
L430.906 231.256
L431.054 266.23
L431.426 219.851
L431.501 221.164
L431.575 230.461
L431.65 228.94
L431.798 213.941
L432.022 308.912
L432.096 297.715
L432.319 198.493
L432.468 190.406
L432.691 141.953
L432.989 214.079
L433.138 234.504
L433.361 168.979
L433.435 181.178
L433.658 223.825
L433.807 192.721
L433.882 195.935
L434.03 218.296
L434.179 195.002
L434.254 197.663
L434.402 232.776
L434.626 332.62
L434.849 257.21
L434.923 257.729
L434.998 259.18
L435.146 251.957
L435.593 110.088
L435.667 120.214
L436.262 202.778
L436.486 258.316
L436.709 295.157
L436.783 288.176
L437.006 253.305
L437.081 253.167
L437.23 232.154
L437.453 207.962
L437.75 266.472
L437.825 266.749
L438.122 212.317
L438.197 221.13
L438.271 219.056
L438.643 129.718
L438.718 130.271
L438.792 143.473
L438.941 124.638
L439.313 241.382
L439.536 210.865
L439.685 182.768
L440.131 291.874
L440.206 291.044
L440.354 317.172
L440.652 259.526
L440.726 260.424
L440.801 250.367
L441.247 120.525
L441.545 176.236
L441.619 182.768
L441.694 170.154
L441.917 217.777
L441.991 216.637
L442.14 254.964
L442.214 251.059
L442.289 266.576
L442.363 263.707
L442.438 260.701
L442.586 274.525
L442.661 263.016
L442.735 270.619
L442.81 262.636
L443.256 158.23
L443.33 159.958
L443.479 182.768
L443.628 174.75
L443.702 174.577
L443.777 166.836
L444.149 224.275
L444.372 159.475
L444.446 169.566
L444.67 198.009
L444.967 343.299
L445.042 352.077
L445.116 349.036
L445.488 267.993
L446.009 91.6678
L446.083 89.6633
L446.232 118.901
L446.604 238.029
L446.678 235.541
L446.827 196.799
L446.976 202.294
L447.05 190.233
L447.125 196.177
L447.571 370.014
L447.72 309.603
L448.018 191.27
L448.464 113.302
L448.538 124.431
L448.836 167.838
L449.059 190.959
L449.134 181.904
L449.282 145.754
L449.357 156.986
L449.878 359.646
L449.878 359.646" style="fill:none;stroke:#808080;stroke-linecap:square;"/>
   </g>
  </g>
 </g>
 <defs>
  <clipPath id="p7ff5b81e1d">
   <rect height="345.6" width="446.4" x="72.0" y="43.2"/>
  </clipPath>
 </defs>
</svg>
