<?xml version="1.0" encoding="utf-8" standalone="no"?>
<!DOCTYPE svg PUBLIC "-//W3C//DTD SVG 1.1//EN"
  "http://www.w3.org/Graphics/SVG/1.1/DTD/svg11.dtd">
<!-- Created with matplotlib (http://matplotlib.org/) -->
<svg height="432pt" version="1.1" viewBox="0 0 576 432" width="576pt" xmlns="http://www.w3.org/2000/svg" xmlns:xlink="http://www.w3.org/1999/xlink">
 <defs>
  <style type="text/css">
*{stroke-linecap:butt;stroke-linejoin:round;}
  </style>
 </defs>
 <g id="figure_1">
  <g id="patch_1">
   <path d="
M0 432
L576 432
L576 0
L0 0
z
" style="fill:#ffffff;"/>
  </g>
  <g id="axes_1">
   <g id="line2d_1">
    <path clip-path="url(#p7ff5b81e1d)" d="
M72 217.794
L72.2976 205.264
L72.5208 213.306
L72.5952 211.49
L72.6696 210.986
L72.8184 203.812
L72.9672 198.544
L73.116 194.392
L73.488 173.281
L73.86 118.454
L73.9344 118.869
L74.3808 173.943
L74.976 289.314
L75.0504 288.154
L75.348 253.065
L75.5712 193.978
L75.9432 100.833
L76.836 207.698
L77.0592 218.594
L77.2824 213.563
L77.3568 214.718
L77.4312 214.23
L77.58 210.181
L77.7288 211.885
L77.952 200.973
L78.324 165.224
L78.7704 184.834
L78.8448 184.227
L79.1424 175.419
L79.2168 174.555
L79.2912 175.458
L80.184 209.495
L80.2584 209.1
L80.4816 204.474
L80.6304 210.68
L81.0024 186.182
L81.1512 184.755
L81.2256 184.844
L81.4488 190.66
L81.5232 190.161
L81.7464 185.15
L81.8952 192.116
L81.9696 192.008
L82.1928 186.33
L82.2672 187.698
L82.416 191.563
L82.6392 202.973
L82.7136 201.926
L83.0856 174.609
L83.3088 181.166
L83.4576 176.935
L83.8296 182.04
L83.9784 184.928
L84.1272 192.314
L84.3504 207.895
L84.5736 183.684
L84.648 185.496
L85.0944 241.103
L85.764 178.09
L86.2104 151.163
L86.2848 151.686
L86.508 165.885
L86.9544 206.251
L87.0288 207.387
L87.1776 202.237
L87.4008 191.618
L87.6984 200.475
L87.8472 212.215
L88.5912 172.708
L88.6656 174.728
L88.8144 183.397
L89.112 203.842
L89.2608 201.215
L89.6328 179.788
L89.7072 180.237
L90.0792 200.929
L90.3024 211.578
L90.3768 210.813
L90.4512 209.604
L90.6744 194.363
L90.8976 179.388
L91.0464 178.164
L91.2696 205.195
L91.344 202.568
L91.4184 197.582
L91.4928 199.418
L91.5672 199.907
L91.7904 182.484
L92.088 157.813
L92.2368 163.673
L92.6832 192.491
L92.9808 205.664
L93.0552 205.21
L93.204 202.084
L93.4272 209.707
L93.5016 209.416
L93.6504 203.274
L93.7992 205.723
L93.8736 204.311
L94.0224 199.557
L94.0968 200.287
L94.32 194.19
L94.692 153.508
L94.7664 153.799
L95.5848 210.68
L95.6592 213.464
L95.7336 211.425
L95.808 212.136
L95.8824 214.442
L96.0312 225.289
L96.3288 214.482
L96.4032 213.119
L96.4776 216.896
L96.552 216.081
L96.8496 170.092
L97.1472 94.5632
L97.2216 99.8164
L97.4448 161.121
L97.7424 218.012
L97.9656 240.14
L98.1144 243.349
L98.1888 243.324
L98.2632 241.256
L98.412 228.755
L98.784 175.577
L99.0072 169.509
L99.156 173.72
L99.6024 191.894
L99.6768 191.884
L99.9 187.465
L100.198 182.109
L100.272 183.022
L100.495 190.299
L100.57 189.371
L100.718 179.951
L100.793 182.163
L101.016 200.114
L101.239 193.657
L101.388 195.316
L101.462 194.392
L101.611 200.297
L101.76 206.641
L101.983 228.399
L102.058 228.38
L102.132 228.962
L102.206 224.647
L102.876 141.466
L102.95 141.698
L103.025 143.643
L103.099 142.844
L103.174 143.88
L103.843 232.147
L104.066 250.903
L104.215 253.801
L104.662 218.125
L105.257 105.494
L105.331 105.845
L105.48 128.279
L105.852 200.588
L106.447 247.19
L106.522 244.865
L106.819 205.58
L106.968 207.105
L107.117 192.284
L107.34 171.815
L107.638 163.841
L108.01 155.349
L108.084 156.263
L108.233 170.6
L108.605 201.225
L108.754 194.047
L108.902 205.53
L109.2 251.308
L109.274 251.861
L109.498 239.74
L109.795 204.889
L110.316 99.5596
L110.39 96.7553
L110.465 100.473
L110.688 143.327
L111.358 242.179
L111.581 255.322
L111.804 242.836
L112.027 225.111
L112.102 227.19
L112.176 228.804
L112.548 107.731
L112.697 110.362
L112.92 129.814
L113.069 152.199
L113.441 243.216
L113.664 253.016
L113.887 229.002
L114.185 204.642
L114.334 202.958
L115.078 126.768
L115.152 127.311
L115.301 155.488
L115.747 244.628
L115.822 245.852
L115.97 233.391
L116.64 133.147
L116.714 136.262
L116.938 172.057
L117.235 224.677
L117.31 227.051
L117.384 226.237
L117.682 186.404
L117.756 189.633
L117.905 213.356
L118.202 258.022
L118.351 244.781
L119.095 118.158
L119.244 108.693
L119.318 107.637
L119.542 124.616
L119.616 135.398
L119.69 129.034
L119.765 132.648
L120.434 325.202
L120.509 324.595
L120.658 291.052
L121.03 135.986
L121.253 72.8053
L121.402 104.551
L121.848 230.749
L121.922 235.203
L122.071 217.217
L122.592 132.253
L122.666 134.49
L122.815 155.636
L123.113 202.065
L123.187 205.526
L123.262 204.01
L123.336 204.923
L124.08 268.815
L124.303 243.477
L124.452 218.066
L124.824 116.311
L125.047 133.567
L125.196 121.683
L125.27 121.698
L125.419 143.915
L125.791 210.285
L125.94 215.869
L126.163 205.377
L126.535 213.766
L126.684 221.492
L126.833 229.372
L126.907 226.963
L127.13 195.513
L127.354 171.509
L127.428 173.301
L127.651 182.938
L127.874 176.466
L127.949 178.83
L128.321 204.918
L128.618 191.716
L128.916 150.585
L128.99 152.501
L129.734 222.455
L129.809 222.406
L130.032 207.91
L130.255 228.172
L130.478 247.328
L130.627 229.14
L130.85 166.023
L130.999 77.0808
L131.074 86.1997
L131.446 254.769
L131.52 256.64
L131.669 238.836
L132.562 72.8003
L132.636 68.5939
L132.71 78.5965
L133.306 292.972
L133.826 259.864
L134.198 185.915
L134.422 154.189
L134.496 154.115
L134.645 162.113
L134.868 176.767
L134.942 177.236
L135.166 168.601
L135.314 174.831
L135.612 203.556
L135.686 202.331
L135.835 188.976
L136.058 157.097
L136.282 152.14
L136.43 156.045
L136.579 164.093
L137.249 222.04
L137.398 209.584
L137.472 210.295
L137.77 231.263
L137.993 297.43
L138.365 170.58
L138.439 165.13
L138.662 106.131
L138.737 104.176
L138.811 110.792
L138.96 155.305
L139.258 270.859
L139.704 207.189
L140.002 93.487
L140.15 78.9323
L140.225 85.8689
L140.374 182.444
L140.522 282.733
L141.043 206.849
L141.192 202.366
L141.341 207.466
L141.415 206.942
L141.564 197.982
L141.713 189.228
L141.787 188.576
L142.234 146.981
L142.382 154.974
L142.68 195.987
L143.126 244.766
L143.201 243.922
L143.35 227.264
L143.945 145.564
L144.094 137.018
L144.317 154.12
L145.061 219.103
L145.21 222.544
L145.284 222.149
L145.805 200.179
L145.879 202.42
L145.954 204.602
L146.028 203.235
L146.326 174.254
L146.4 174.728
L146.623 215.321
L146.772 195.78
L147.07 158.208
L147.218 162.528
L147.367 153.75
L147.442 155.502
L147.814 206.34
L147.888 207.565
L148.26 167.623
L148.334 169.484
L148.483 165.016
L148.558 166.409
L148.855 208.621
L149.153 256.516
L149.227 255.929
L149.376 244.618
L149.897 182.119
L150.12 200.03
L150.269 183.516
L150.566 148.655
L150.79 130.155
L150.864 136.46
L151.236 198.09
L151.459 220.465
L151.608 202.395
L151.831 181.778
L151.906 182.267
L151.98 184.849
L152.129 181.684
L152.203 184.088
L152.278 183.624
L152.352 183.832
L152.501 197.508
L152.65 225.022
L152.724 211.504
L152.873 158.751
L153.022 162.622
L153.096 159.906
L153.17 163.905
L153.319 217.784
L153.542 301.834
L153.617 308.435
L153.766 296.241
L153.989 224.119
L154.286 125.919
L154.361 127.094
L154.51 134.895
L154.584 133.241
L154.807 112.816
L154.956 115.526
L155.03 116.371
L155.179 144.344
L155.626 233.425
L155.7 233.697
L155.923 224.756
L155.998 225.205
L156.072 226.118
L156.221 220.722
L156.295 221.443
L156.518 233.623
L156.667 219.878
L156.965 168.68
L157.114 186.063
L157.188 182.435
L157.411 126.981
L157.709 151.859
L158.304 265.265
L158.453 246.425
L159.048 145.06
L159.122 146.655
L159.42 164.75
L159.494 164.068
L159.569 163.772
L160.015 189.613
L160.238 195.399
L160.313 194.679
L160.536 186.562
L160.685 187.451
L160.759 190.813
L161.28 261.261
L161.354 259.913
L161.503 218.11
L161.652 184.237
L161.726 186.226
L161.875 139.486
L162.024 108.56
L162.545 258.97
L162.619 255.875
L162.917 186.977
L163.214 142.695
L163.661 165.984
L163.958 186.567
L164.033 187.001
L164.33 176.184
L164.479 189.445
L165.149 293.797
L165.298 230.893
L165.595 91.0727
L165.67 91.4973
L165.893 143.5
L166.265 232.275
L166.339 230.196
L166.637 204.163
L166.86 176.609
L167.009 173.251
L167.083 173.804
L167.232 182.217
L167.306 186.888
L167.53 179.531
L167.902 224.751
L168.05 210.576
L168.348 172.531
L168.571 162.567
L168.943 182.701
L169.166 188.423
L169.315 211.327
L169.538 246.4
L169.687 218.13
L169.985 103.238
L170.059 109.809
L170.357 211.83
L170.58 278.314
L170.654 286.401
L170.729 286.322
L170.878 262.791
L171.398 111.814
L171.547 97.1849
L171.696 109.414
L171.994 176.08
L172.291 278.506
L172.366 283.202
L172.44 280.071
L172.589 258.639
L173.184 136.944
L173.407 114.025
L173.482 115.442
L173.705 149.494
L174.3 268.726
L174.374 267.151
L175.342 171.158
L175.862 123.06
L176.011 130.595
L176.606 233.781
L176.83 263.744
L176.904 260.999
L177.053 237.829
L177.35 187.421
L177.648 181.511
L177.722 183.817
L177.797 183.486
L177.871 183.289
L177.946 181.457
L178.466 151.839
L178.541 153.221
L178.764 148.847
L178.838 154.283
L179.062 220.046
L179.285 271.032
L179.359 274.69
L179.434 272.231
L179.582 247.225
L179.954 154.411
L180.029 153.207
L180.103 154.347
L180.326 167.386
L180.773 221.245
L180.847 218.871
L180.996 202.524
L181.294 152.728
L181.368 153.414
L181.591 173.992
L182.038 215.02
L182.112 215.731
L182.261 206.977
L182.633 167.475
L182.707 169.795
L183.228 203.338
L183.302 202.43
L183.674 211.001
L183.749 210.162
L183.898 194.017
L184.121 169.168
L184.195 167.337
L184.27 168.117
L184.344 168.556
L184.418 168.319
L184.493 169.386
L184.642 191.445
L185.014 274.29
L185.162 254.043
L185.683 136.904
L185.832 130.792
L185.906 132.634
L186.055 142.394
L186.13 141.328
L186.204 140.079
L186.278 141.609
L186.576 167.87
L187.097 236.388
L187.32 253.885
L187.394 253.534
L187.543 245.502
L188.362 167.712
L188.436 167.006
L188.51 167.386
L188.659 156.51
L188.882 144.813
L189.031 142.982
L189.18 151.123
L190.445 251.831
L190.742 230.043
L191.263 143.949
L191.486 125.845
L191.635 149.445
L191.858 175.626
L192.007 172.264
L192.082 174.496
L192.602 218.135
L193.198 183.743
L193.495 156.189
L193.57 156.263
L193.644 165.066
L193.867 219.32
L193.942 217.834
L194.016 222.445
L194.09 221.606
L194.314 198.041
L194.388 201.601
L194.611 219.512
L194.834 260.752
L194.909 258.185
L195.281 142.172
L195.355 139.723
L195.578 162.301
L195.727 161.807
L196.025 168.877
L196.174 162.33
L196.248 162.77
L196.471 187.431
L196.694 204.415
L196.769 201.724
L196.918 179.122
L197.066 154.49
L197.215 165.253
L197.736 231.342
L197.885 247.141
L197.959 247.259
L198.034 246.785
L198.108 245.344
L198.406 226.533
L198.554 212.526
L198.703 219.053
L198.778 221.226
L198.926 197.172
L199.15 161.16
L199.224 163.718
L199.373 176.554
L199.447 173.957
L199.819 120.77
L199.894 123.924
L200.042 159.042
L200.34 238.254
L200.563 209.026
L201.084 154.885
L201.158 154.174
L201.307 157.487
L201.456 167.51
L201.828 243.329
L201.977 273.722
L202.051 270.79
L202.274 204.745
L202.572 107.74
L202.721 128.985
L203.316 291.866
L203.39 291.693
L203.465 292.222
L203.539 284.663
L203.837 195.636
L204.134 50.9782
L204.209 50.4252
L204.358 89.3743
L204.73 228.809
L204.804 231.431
L204.953 224.395
L205.176 192.768
L205.474 152.703
L205.697 168.383
L205.771 166.517
L205.846 161.407
L205.92 163.585
L206.069 229.831
L206.292 317.288
L206.366 317.317
L206.59 259.01
L207.259 56.8978
L207.334 61.1388
L207.929 286.139
L208.078 335.056
L208.598 169.593
L208.822 154.594
L209.194 190.235
L209.268 186.364
L209.566 156.717
L209.863 133.646
L210.905 309.23
L210.979 300.738
L211.351 180.889
L211.574 145.362
L211.723 149.81
L211.872 140.479
L211.946 144.251
L212.318 199.532
L212.393 195.212
L212.914 106.19
L212.988 107.365
L213.211 155.883
L213.509 198.194
L213.658 230.443
L214.03 349.577
L214.104 350.228
L214.253 320.635
L214.625 146.255
L214.848 78.8236
L214.922 83.2473
L215.294 139.072
L215.518 123.001
L215.592 130.901
L215.815 225.63
L215.964 274.354
L216.113 253.273
L216.336 219.048
L216.485 215.652
L216.708 210.334
L216.782 210.339
L216.857 211.643
L216.931 206.493
L217.303 131.582
L217.378 140.839
L217.601 178.455
L217.75 127.129
L217.824 101.026
L217.898 103.815
L218.27 272.384
L218.345 270.627
L218.866 202.262
L219.238 150.926
L219.312 152.367
L219.535 167.006
L219.833 196.496
L219.907 199.048
L220.056 229.698
L220.205 262.372
L220.726 177.863
L220.949 164.532
L221.098 178.47
L221.172 175.448
L221.246 169.4
L221.544 89.3348
L221.618 101.11
L221.842 205.955
L222.139 319.016
L222.214 313.249
L222.362 242.603
L222.586 158.519
L222.66 160.227
L222.809 178.223
L223.032 199.463
L223.181 191.79
L223.553 166.675
L223.702 171.746
L223.999 198.046
L224.074 197.666
L224.222 185.575
L224.371 176.727
L224.52 179.329
L224.669 185.101
L224.966 234.319
L225.636 171.069
L225.71 169.712
L225.934 174.071
L226.008 173.913
L226.082 173.582
L226.231 177.7
L226.306 177.142
L226.454 172.585
L226.529 172.95
L226.752 183.481
L226.975 201.65
L227.124 221.838
L227.347 250.103
L227.422 250.967
L227.496 249.866
L227.868 226.469
L228.389 99.1153
L228.463 101.283
L228.686 123.811
L228.91 203.329
L228.984 201.225
L229.133 172.338
L229.207 180.499
L229.43 253.549
L229.505 247.704
L229.579 241.888
L229.654 245.773
L229.877 276.077
L229.951 272.355
L230.174 229.15
L230.77 110.727
L230.844 108.94
L231.067 129.34
L231.588 215.089
L231.811 223.225
L231.886 221.142
L232.406 182.81
L232.555 188.399
L232.704 196.278
L233.002 220.036
L233.076 221.28
L233.225 218.313
L233.448 200.677
L233.82 171.341
L234.043 165.777
L234.118 164.216
L234.192 164.503
L234.415 174.876
L234.49 175.577
L234.638 173.385
L234.713 173.948
L234.862 181.388
L235.234 223.808
L235.382 227.308
L235.457 227.091
L235.606 221.023
L236.126 189.988
L236.201 189.5
L236.35 184.908
L236.87 147.756
L237.019 155.167
L237.54 203.679
L237.838 234.309
L237.986 238.861
L238.284 231.994
L238.358 227.358
L238.582 173.385
L238.879 108.14
L239.102 145.075
L239.549 218.303
L239.623 222.815
L239.772 214.714
L240.07 199.937
L240.218 195.528
L240.367 188.374
L240.442 190.502
L240.59 216.14
L240.888 265.458
L240.962 260.002
L241.483 136.529
L241.781 98.6611
L241.93 115.813
L242.674 219.162
L242.897 229.046
L242.971 229.11
L243.12 231.747
L243.194 231.006
L243.269 228.636
L243.566 210.255
L243.79 205.229
L244.236 183.965
L244.534 155.102
L244.608 157.951
L244.831 166.502
L244.98 169.958
L245.203 180.45
L245.426 197.587
L245.501 197.473
L245.798 186.434
L245.873 188.976
L246.394 239.083
L246.468 239.222
L246.617 230.029
L247.286 130.871
L247.361 132.456
L247.584 152.565
L248.03 215.474
L248.105 215.745
L248.254 214.319
L248.328 215.721
L248.477 222.865
L248.551 222.613
L248.626 223.61
L248.923 237.666
L248.998 236.393
L249.146 215.217
L249.593 137.013
L249.667 134.796
L249.816 141.214
L250.262 181.783
L250.634 221.65
L250.858 217.567
L250.932 218.964
L251.155 214.368
L251.378 204.997
L251.899 142.068
L252.197 149.119
L252.42 188.744
L252.792 267.719
L252.866 270.859
L253.015 263.325
L253.164 247.669
L254.503 95.5902
L254.578 97.7724
L254.652 103.593
L255.173 242.574
L255.247 243.206
L255.47 237.207
L255.917 207.323
L256.289 235.899
L256.363 233.174
L256.586 206.454
L256.958 140.395
L257.107 134.954
L257.33 143.09
L257.479 126.107
L257.554 128.19
L257.777 182.119
L258.149 281.819
L258.298 286.845
L258.446 269.575
L259.265 120.409
L259.339 120.814
L259.414 120.552
L259.488 121.031
L259.711 135.374
L259.86 150.664
L260.306 220.031
L260.455 222.652
L260.678 247.17
L260.902 269.091
L260.976 267.186
L261.199 243.522
L261.794 157.181
L261.943 147.692
L262.018 147.697
L262.241 158.371
L262.315 156.811
L262.538 137.472
L262.613 139.58
L263.208 216.131
L263.506 230.636
L263.58 232.191
L263.729 226.094
L263.952 203.156
L264.25 145.273
L264.398 164.898
L264.696 232.675
L264.77 227.116
L265.068 177.241
L265.589 146.803
L265.738 173.479
L266.11 232.102
L266.258 237.661
L266.705 203.082
L266.779 199.863
L266.854 200.401
L266.928 201.556
L267.151 214.299
L267.226 212.112
L267.821 116.726
L267.895 118.183
L268.044 130.348
L268.342 198.589
L268.639 244.085
L268.937 273.515
L269.086 259.311
L269.458 177.912
L269.532 179.63
L269.606 182.602
L269.681 181.146
L269.904 176.722
L270.053 170.541
L270.425 139.407
L270.499 142.557
L271.243 212.561
L271.466 203.501
L271.541 205.975
L271.838 226.237
L271.913 225.709
L271.987 226.025
L272.062 225.491
L272.21 212.398
L272.434 173.997
L272.731 124.25
L272.806 121.811
L272.88 122.325
L273.029 140.642
L273.401 194.555
L273.55 206.868
L274.145 279.686
L274.219 279.76
L274.368 264.505
L275.112 105.287
L275.335 116.208
L275.484 128.6
L276.302 231.727
L276.6 261.868
L276.674 260.165
L276.972 235.696
L277.493 187.184
L277.567 184.597
L277.642 184.992
L277.79 184.35
L278.014 168.191
L278.162 146.734
L278.386 114.707
L278.534 124.798
L278.981 197.221
L279.427 262.248
L279.502 262.026
L279.65 258.501
L279.725 258.679
L279.874 241.305
L280.246 165.466
L280.469 88.925
L280.543 96.5677
L281.064 225.97
L281.138 225.763
L281.287 191.242
L281.51 142.202
L281.659 170.141
L281.882 210.927
L281.957 214.491
L282.106 209.549
L282.626 227.955
L282.701 227.58
L282.85 222.504
L283.445 156.47
L283.668 120.197
L283.742 117.709
L283.817 118.316
L283.966 141.713
L284.263 179.166
L284.858 257.119
L285.082 264.495
L285.156 261.251
L285.379 220.766
L285.826 138.129
L285.974 132.875
L286.049 133.152
L286.198 139.027
L286.421 147.845
L286.495 149.578
L286.718 164.409
L286.793 164.73
L286.867 168.359
L287.165 220.613
L287.611 303.755
L287.686 308.366
L287.834 270.577
L288.206 104.833
L288.355 86.0516
L288.43 87.9672
L288.578 115.225
L288.876 182.825
L289.099 175.389
L289.174 179.991
L289.769 272.72
L289.843 268.602
L290.141 212.27
L290.29 188.201
L290.364 189.85
L290.513 212.744
L290.587 212.408
L290.736 159.951
L290.959 93.408
L291.257 106.714
L291.48 161.076
L291.926 265.265
L292.075 275.505
L292.224 266.963
L292.522 224.864
L293.042 156.06
L293.117 152.53
L293.34 128.032
L293.414 128.649
L293.638 150.6
L293.935 193.286
L294.158 214.477
L294.307 217.947
L294.679 211.485
L294.902 202.484
L295.051 202.682
L295.126 202.07
L295.2 203.245
L295.349 209.663
L295.572 205.279
L295.721 207.816
L295.944 184.513
L296.465 136.766
L296.539 136.672
L296.688 148.852
L297.06 204.03
L297.358 241.32
L297.506 255.924
L297.655 268.943
L297.804 196.189
L298.027 125.287
L298.176 169.479
L298.474 257.005
L298.548 252.038
L299.143 161.773
L299.292 153.394
L299.366 155.172
L299.441 163.831
L299.515 159.447
L299.738 87.5476
L299.887 123.125
L300.334 260.283
L300.557 275.756
L300.631 273.293
L300.854 240.248
L301.375 144.596
L301.598 132.441
L301.747 138.203
L301.896 151.503
L302.491 228.715
L302.863 260.175
L302.938 258.294
L303.086 238.792
L303.607 143.555
L303.905 130.397
L303.979 130.269
L304.054 131.439
L304.202 142.108
L305.318 264.401
L305.467 269.876
L305.542 267.719
L305.765 227.55
L306.137 158.03
L306.36 146.201
L306.658 134.776
L306.806 140.34
L307.178 175.799
L307.402 192.141
L307.699 204.429
L307.997 225.091
L308.071 224.247
L308.443 210.789
L308.518 210.231
L308.815 201.887
L309.038 176.668
L309.187 204.499
L309.336 229.584
L309.931 150.116
L310.08 192.827
L310.303 247.318
L310.526 188.117
L310.824 133.976
L310.898 131.113
L311.419 159.63
L311.568 167.766
L311.717 176.846
L312.386 243.038
L312.461 239.621
L312.61 207.076
L312.758 182.938
L313.056 274.083
L313.279 216.358
L313.502 260.777
L313.577 253.441
L314.246 90.6185
L314.395 105.637
L314.618 141.323
L314.916 197.073
L315.065 190.556
L315.214 184.409
L315.288 184.809
L315.437 197.369
L315.883 240.026
L316.106 251.179
L316.181 250.375
L316.404 235.331
L317.222 129.498
L317.297 131.745
L317.669 177.823
L317.743 177.808
L317.818 178.529
L317.966 191.42
L318.413 245.561
L318.487 244.613
L318.562 244.633
L318.71 232.986
L319.38 156.48
L319.603 148.753
L319.752 142.513
L319.901 137.995
L319.975 139.447
L320.05 143.179
L320.198 169.45
L320.496 223.828
L320.57 221.867
L320.794 207.851
L320.942 224.499
L321.314 264.554
L321.389 263.305
L321.761 162.064
L321.91 170.817
L321.984 167.579
L322.282 137.66
L322.356 137.225
L322.43 137.378
L322.505 140.78
L322.951 204.36
L323.026 204.025
L323.174 219.606
L323.398 238.822
L323.472 241.236
L323.695 210.31
L323.993 168.778
L324.29 202.929
L324.365 206.646
L324.514 186.162
L324.886 109.641
L324.96 112.258
L325.109 133.917
L325.63 265.117
L325.704 266.815
L326.002 258.106
L326.448 188.991
L326.746 179.912
L327.192 123.371
L327.266 128.654
L327.713 190.833
L327.787 190.808
L327.936 190.438
L328.01 190.615
L328.085 191.548
L328.159 191.489
L328.382 184.074
L328.457 186.962
L328.606 210.152
L328.903 254.028
L328.978 253.628
L329.126 246.682
L329.498 200.608
L330.019 99.7867
L330.094 95.8963
L330.168 96.7356
L330.317 115.082
L330.986 247.427
L331.21 252.32
L331.507 270.691
L331.73 243.26
L332.623 118.745
L332.698 117.659
L332.921 135.862
L333.218 159.023
L333.293 156.811
L333.367 159.2
L333.739 228.064
L334.037 269.526
L334.111 268.084
L334.26 249.915
L334.781 157.867
L335.078 133.29
L335.227 146.117
L335.525 179.462
L335.748 191.4
L335.897 189.825
L336.12 199.344
L336.194 199.295
L336.269 197.285
L336.343 200.816
L336.641 251.239
L336.79 270.612
L337.013 253.781
L337.162 231.539
L337.534 147.954
L337.682 127.988
L337.906 94.4596
L337.98 93.2105
L338.203 126.047
L339.17 287.862
L339.245 287.591
L339.394 267.255
L340.063 135.275
L340.138 132.485
L340.51 142.315
L340.584 141.135
L340.807 133.142
L340.882 134.465
L340.956 138.696
L341.179 182.291
L341.7 285.996
L341.774 285.255
L341.998 253.174
L342.37 187.786
L342.742 118.015
L342.89 108.407
L342.965 111.196
L343.188 145.998
L343.486 180.435
L343.634 196.041
L344.081 266.914
L344.155 266.499
L344.453 243.951
L344.676 224.158
L345.048 160.301
L345.42 92.7563
L345.494 95.679
L345.792 141.639
L346.61 262.436
L346.685 264.085
L346.834 254.29
L347.652 184.488
L347.875 165.317
L348.173 126.27
L348.322 138.257
L348.842 204.617
L349.14 216.382
L349.214 216.906
L349.289 216.55
L349.586 230.981
L349.735 224.963
L349.81 226.805
L349.884 226.652
L350.033 210.754
L350.479 130.674
L350.554 129.429
L351 148.393
L351.074 147.248
L351.149 147.509
L351.298 166.359
L351.818 274.433
L351.893 275.228
L352.042 259.306
L352.562 181.22
L352.934 155.794
L353.158 148.427
L353.306 154.431
L353.455 158.218
L353.53 156.366
L353.604 158.46
L353.976 178.904
L354.05 178.944
L354.125 181.329
L354.348 214.63
L354.72 257.795
L354.794 258.328
L354.943 251.382
L355.166 220.722
L355.613 152.269
L355.687 152.96
L355.91 156.416
L356.282 162.276
L356.431 150.467
L356.506 144.621
L356.58 145.559
L357.398 260.589
L357.919 216.214
L358.068 191.948
L358.366 109.651
L358.514 105.025
L358.589 108.644
L358.812 142.177
L359.258 244.568
L359.333 243.813
L359.482 235.129
L359.63 249.229
L359.705 257.331
L359.779 256.161
L360.077 236.792
L360.151 236.072
L360.226 233.485
L360.374 214.669
L360.895 100.636
L361.044 88.1647
L361.118 93.3635
L361.937 253.139
L362.16 269.111
L362.532 264.939
L362.681 247.62
L362.904 177.927
L363.202 77.6338
L363.35 67.6756
L363.499 87.5278
L363.797 173.014
L364.094 234.867
L364.169 237.543
L364.243 235.287
L364.466 224.262
L364.913 213.706
L365.21 226.578
L365.285 225.516
L365.88 198.436
L366.103 154.737
L366.401 115.161
L366.475 114.667
L366.624 125.697
L367.368 242.994
L367.442 245.724
L367.517 244.573
L367.591 243.122
L367.666 243.448
L367.814 242.475
L368.038 232.774
L368.186 216.002
L368.707 138.988
L368.856 130.017
L368.93 131.424
L369.377 161.368
L369.898 212.235
L370.195 266.252
L370.344 270.049
L370.567 253.465
L370.716 223.645
L371.162 105.78
L371.311 95.8272
L371.386 97.0071
L371.534 110.604
L372.502 316.33
L372.576 320.605
L372.725 295.47
L373.097 150.723
L373.246 137.432
L373.32 135.561
L373.766 109.399
L373.841 105.445
L373.99 112.436
L374.213 139.629
L375.031 282.54
L375.18 289.575
L375.254 289.018
L375.403 271.762
L375.701 205.886
L376.147 104.265
L376.296 117.862
L376.594 171.509
L376.668 170.447
L377.04 149.385
L377.114 148.803
L377.263 157.991
L377.486 204.602
L377.933 309.758
L378.007 307.245
L378.156 288.608
L378.528 194.442
L378.9 100.488
L379.049 87.7006
L379.272 48.5441
L379.421 87.1378
L379.867 267.008
L380.016 272.992
L380.09 270.622
L380.462 248.212
L380.611 231.302
L381.058 156.618
L381.43 135.097
L381.578 149.405
L381.95 225.244
L382.025 224.415
L382.322 194.545
L382.397 194.891
L382.471 196.491
L382.62 191.963
L382.694 193.829
L383.066 237.997
L383.141 234.502
L383.438 193.825
L384.034 111.799
L384.108 112.189
L384.257 139.916
L384.554 216.758
L384.926 236.205
L385.15 248.612
L385.224 248.77
L385.373 255.05
L385.447 253.204
L385.596 237.405
L386.266 135.428
L386.563 115.349
L386.712 113.522
L386.786 115.551
L387.01 143.673
L387.382 221.28
L387.679 283.75
L387.754 286.954
L387.828 285.887
L388.051 260.313
L388.572 187.303
L388.795 167.49
L389.242 113.374
L389.316 111.394
L389.465 131.32
L389.911 187.905
L390.581 271.471
L390.655 269.526
L390.878 248.716
L391.697 103.292
L391.846 93.6844
L391.92 96.39
L392.069 118.444
L392.813 280.694
L392.887 281.153
L392.962 282.989
L393.036 280.392
L393.259 241.029
L393.854 135.581
L394.078 126.181
L394.152 126.783
L394.375 142.444
L395.194 231.297
L395.64 259.656
L395.714 259.252
L395.863 250.384
L396.086 215.849
L396.384 159.141
L396.682 87.7796
L396.83 78.4682
L396.979 92.1687
L397.202 135.739
L397.798 268.01
L398.021 290.479
L398.095 290.795
L398.17 289.408
L398.467 267.956
L399.36 91.8626
L399.509 79.4951
L399.583 82.0476
L399.732 101.53
L400.699 287.907
L400.774 292.503
L400.848 291.871
L400.997 276.838
L401.815 111.345
L401.89 111.271
L402.262 131.74
L403.378 263.068
L403.452 264.549
L403.601 256.166
L403.898 212.61
L404.419 105.455
L404.568 96.0296
L404.642 97.6045
L404.791 116.514
L405.535 261.078
L405.758 268.923
L405.833 269.101
L405.907 268.163
L406.056 258.491
L406.279 230.611
L406.577 166.853
L406.949 112.623
L407.172 106.649
L407.246 108.555
L407.47 133.043
L408.214 253.732
L408.362 259.602
L408.511 259.281
L408.586 259.385
L408.734 250.844
L409.181 197.063
L409.702 113.147
L409.776 111.695
L409.85 113.206
L410.148 134.386
L410.371 173.182
L410.818 244.766
L411.19 255.924
L411.338 248.01
L411.636 206.651
L411.934 176.11
L412.157 149.859
L412.454 112.011
L412.603 104.744
L412.678 109.449
L412.901 166.413
L413.273 270.938
L413.422 281.987
L413.496 280.057
L413.794 252.428
L414.835 99.5794
L414.91 100.374
L415.058 111.043
L415.951 250.207
L416.174 270.839
L416.249 271.609
L416.472 249.249
L417.142 132.214
L417.29 127.153
L417.514 134.737
L418.109 196.486
L418.63 265.398
L418.704 264.445
L418.853 247.664
L419.225 199.201
L419.746 131.37
L419.969 106.58
L420.043 105.094
L420.192 117.585
L421.234 306.189
L421.308 300.333
L421.754 217.157
L422.201 73.9507
L422.35 89.6607
L423.094 205.605
L423.54 232.201
L423.838 242.613
L423.912 239.187
L424.358 189.524
L424.507 191.726
L424.582 190.709
L424.73 177.354
L425.028 149.03
L425.102 147.46
L425.177 147.791
L425.326 156.248
L425.549 178.623
L426.07 269.58
L426.218 255.391
L427.186 114.174
L427.26 110.086
L427.334 110.609
L427.483 124.305
L428.078 212.981
L428.748 267.447
L428.822 266.716
L429.046 245.852
L429.269 201.117
L429.566 141.846
L429.715 131.646
L429.79 131.76
L430.013 141.525
L430.31 171.864
L430.608 192.082
L431.278 232.122
L431.501 226.538
L431.798 203.526
L432.022 169.899
L432.319 131.913
L432.394 130.772
L432.468 130.846
L432.542 131.429
L432.766 142.73
L433.733 261.029
L433.807 261.977
L434.03 250.666
L435.221 130.298
L435.37 127.652
L435.518 123.47
L435.742 147.766
L436.039 224.203
L436.337 267.422
L436.486 275.519
L436.634 266.993
L436.858 222.722
L437.304 118.118
L437.453 111.685
L437.676 114.154
L437.825 125.188
L438.048 177.201
L438.42 278.324
L438.569 299.173
L438.643 299.158
L438.866 267.329
L439.462 172.106
L439.759 112.663
L439.908 106.24
L439.982 105.721
L440.057 107.133
L440.28 124.458
L440.503 151.331
L441.322 248.913
L441.396 250.33
L441.47 249.066
L441.619 242.332
L441.694 242.771
L441.768 243.448
L441.842 241.626
L441.991 224.943
L442.289 176.584
L442.363 176.209
L442.438 176.762
L442.512 175.996
L442.586 173.414
L442.735 147.638
L442.958 111.078
L443.033 113.512
L443.256 146.739
L443.851 270.093
L443.926 270.878
L444 268.879
L444.149 244.386
L444.595 165.204
L444.893 153.182
L445.042 159.852
L445.116 158.154
L445.339 143.426
L445.414 146.087
L446.455 242.658
L446.53 242.618
L446.678 240.836
L446.827 242.678
L446.902 241.369
L447.05 220.86
L447.348 134.426
L447.571 93.719
L447.646 96.8837
L447.869 144.804
L448.241 217.049
L448.39 225.768
L448.464 224.667
L448.613 219.098
L448.687 219.113
L448.836 230.833
L449.208 269.901
L449.282 270.859
L449.431 245.176
L449.878 107.849
L449.878 107.849" style="fill:none;stroke:#808080;stroke-linecap:square;"/>
   </g>
  </g>
 </g>
 <defs>
  <clipPath id="p7ff5b81e1d">
   <rect height="345.6" width="446.4" x="72.0" y="43.2"/>
  </clipPath>
 </defs>
</svg>
