<?xml version="1.0" encoding="utf-8" standalone="no"?>
<!DOCTYPE svg PUBLIC "-//W3C//DTD SVG 1.1//EN"
  "http://www.w3.org/Graphics/SVG/1.1/DTD/svg11.dtd">
<!-- Created with matplotlib (http://matplotlib.org/) -->
<svg height="432pt" version="1.1" viewBox="0 0 576 432" width="576pt" xmlns="http://www.w3.org/2000/svg" xmlns:xlink="http://www.w3.org/1999/xlink">
 <defs>
  <style type="text/css">
*{stroke-linecap:butt;stroke-linejoin:round;}
  </style>
 </defs>
 <g id="figure_1">
  <g id="patch_1">
   <path d="
M0 432
L576 432
L576 0
L0 0
z
" style="fill:#ffffff;"/>
  </g>
  <g id="axes_1">
   <g id="line2d_1">
    <path clip-path="url(#p7ff5b81e1d)" d="
M72 278.483
L72.372 246.449
L72.6696 221.528
L72.744 219.385
L72.8184 220.56
L73.116 236.596
L73.1904 234.361
L73.5624 218.702
L73.6368 218.494
L73.7112 218.702
L73.86 225.368
L74.3808 258.315
L74.4552 258.407
L74.6784 262.693
L74.7528 262.547
L74.8272 261.871
L75.4224 240.636
L75.72 219.677
L76.3896 187.743
L76.464 188.727
L76.6128 200.085
L77.0592 253.285
L77.3568 245.589
L77.4312 246.657
L77.6544 255.75
L78.0264 248.646
L78.3984 255.543
L78.5472 248.623
L78.9192 224.354
L78.9936 226.812
L79.44 261.003
L79.5888 263.223
L79.7376 262.416
L80.184 211.559
L80.4816 172.783
L80.6304 168.789
L80.8536 171.999
L81.0024 186.131
L81.3 240.651
L81.5976 287.875
L81.672 289.396
L81.7464 287.921
L82.7136 233.754
L82.8624 230.083
L82.9368 230.222
L83.2344 245.082
L83.3088 244.529
L84.0528 225.982
L84.3504 211.905
L84.4248 211.383
L84.5736 214.493
L84.9456 229.607
L85.392 215.223
L85.6152 219.846
L85.8384 233.562
L86.2848 271.394
L86.5824 286.631
L86.6568 285.087
L87.1776 236.135
L87.3264 238.147
L87.4008 237.364
L87.5496 229.2
L87.9216 188.396
L87.996 188.558
L88.1448 199.194
L88.2936 207.036
L88.368 207.143
L88.5168 208.072
L88.6656 216.382
L88.8144 226.504
L88.9632 220.652
L89.0376 216.705
L89.112 218.748
L89.7072 273.614
L90.0048 296.223
L90.1536 297.875
L90.3024 289.235
L90.5256 251.511
L90.8232 210.707
L90.972 203.487
L91.0464 203.895
L91.4928 218.248
L91.6416 215.752
L91.7904 211.252
L91.9392 206.168
L92.2368 211.167
L92.3112 211.16
L92.3856 211.306
L92.6088 220.522
L93.5016 281.931
L93.7248 278.037
L93.948 251.511
L94.32 205.131
L94.4688 196.399
L94.5432 197.059
L94.7664 214.892
L95.064 245.704
L95.1384 248.531
L95.2128 247.901
L95.2872 247.985
L95.3616 248.853
L95.436 248.7
L95.5104 247.133
L95.5848 247.732
L95.6592 247.594
L95.8824 242.341
L95.9568 242.056
L96.0312 242.855
L96.1056 242.702
L96.18 243.132
L96.2544 244.238
L96.3288 243.777
L96.4776 235.536
L96.924 192.59
L97.0728 201.514
L97.8168 282.146
L97.9656 269.328
L98.6352 186.184
L98.784 183.082
L98.8584 184.057
L99.0072 181.077
L99.2304 204.778
L99.9 320.316
L99.9744 321.621
L100.049 319.878
L100.198 303.043
L101.016 180.271
L101.388 149.382
L101.462 151.563
L101.611 167.1
L102.355 307.974
L102.504 303.212
L102.727 281.731
L103.322 209.178
L103.546 205.192
L103.694 211.16
L104.066 229.047
L104.141 230.836
L104.438 219.807
L104.513 220.053
L104.587 221.382
L104.81 237.825
L105.406 270.987
L105.48 269.036
L105.703 240.997
L106.224 173.958
L106.298 174.626
L106.373 177.56
L106.522 203.38
L106.894 267.17
L107.191 292.476
L107.266 293.52
L107.34 292.752
L107.414 293.382
L107.563 298.819
L107.638 296.677
L107.786 279.128
L108.456 160.357
L108.53 160.426
L108.679 170.986
L109.349 246.849
L109.646 264.881
L109.721 263.975
L109.795 261.579
L109.944 265.25
L110.018 263.822
L110.316 237.279
L110.539 218.725
L110.688 214.078
L110.762 215.353
L110.911 224.431
L111.432 274.174
L111.506 275.795
L111.581 275.457
L111.655 274.673
L111.804 265.304
L112.548 183.88
L112.771 174.757
L112.994 188.511
L113.515 247.839
L113.887 296.515
L114.11 307.92
L114.259 300.317
L114.408 283.505
L115.152 173.175
L115.226 172.537
L115.673 205.239
L116.417 283.551
L116.64 259.459
L117.012 218.126
L117.161 212.919
L117.31 219.139
L117.533 243.216
L117.83 268.407
L117.905 267.293
L118.054 252.194
L118.649 182.467
L118.723 180.939
L119.244 210.73
L120.062 331.728
L120.137 330.215
L120.286 311.468
L120.583 241.342
L121.104 112.887
L121.253 100.622
L121.327 101.689
L121.476 132.808
L122.146 353.747
L122.22 353.009
L122.369 331.843
L122.592 265.419
L122.89 178.213
L122.964 170.141
L123.038 175.932
L123.559 272.861
L123.931 241.273
L124.303 196.215
L124.378 195.731
L124.526 209.532
L124.898 243.846
L124.973 243.569
L125.122 238.647
L125.866 178.167
L126.014 185.363
L126.238 240.92
L126.535 303.074
L126.758 323.011
L126.833 322.812
L126.982 304.426
L127.428 230.152
L127.502 224.554
L127.577 225.03
L127.726 234.146
L127.949 244.076
L128.172 218.103
L128.395 202.812
L128.47 200.247
L128.618 208.072
L128.842 226.105
L128.99 233.086
L129.139 220.514
L129.586 161.701
L129.734 176.477
L129.958 214.462
L130.404 306.3
L130.478 305.055
L131.074 263.676
L131.222 268.775
L131.371 277.477
L131.446 275.902
L131.52 278.821
L131.594 276.202
L131.892 223.402
L132.413 121.273
L132.562 136.648
L133.529 332.496
L133.603 331.897
L133.752 320.331
L134.198 255.857
L134.868 152.669
L135.091 139.482
L135.24 149.198
L135.835 282.154
L136.058 321.959
L136.133 324.893
L136.207 324.471
L136.356 309.372
L136.802 267.016
L136.877 267.301
L136.951 268.66
L137.026 266.74
L137.249 248.554
L137.993 136.211
L138.142 131.18
L138.29 140.665
L138.588 180.678
L138.811 230.644
L139.258 340.76
L139.481 344.408
L139.555 342.68
L139.778 314.84
L140.002 272.584
L140.374 191.115
L140.82 161.071
L140.894 161.655
L141.043 181.07
L141.415 241.657
L141.638 251.833
L141.713 250.412
L142.01 223.233
L142.085 224.738
L142.457 263.706
L142.829 209.201
L142.903 215.86
L143.35 328.119
L143.424 321.16
L143.647 256.241
L143.945 188.542
L144.168 180.486
L144.242 182.26
L144.614 210.753
L144.689 208.802
L144.912 198.618
L144.986 201.544
L145.284 239.207
L145.358 235.621
L145.507 222.181
L145.582 223.471
L145.73 242.394
L145.954 321.022
L146.177 386.103
L146.326 346.766
L146.846 88.034
L146.921 100.122
L147.367 272.07
L147.442 254.421
L147.665 196.529
L147.814 228.54
L148.26 347.011
L148.334 351.819
L148.409 344.623
L148.706 252.77
L149.078 157.346
L149.302 141.395
L149.376 145.611
L149.748 215.622
L149.822 207.55
L149.971 180.601
L150.12 215.322
L150.269 245.858
L150.343 246.257
L150.418 247.317
L150.715 267.462
L151.087 250.366
L151.236 238.57
L151.385 253.638
L151.757 339.615
L151.831 338.463
L151.98 291.869
L152.352 145.565
L152.426 147.784
L152.65 202.612
L152.947 271.778
L153.022 272.746
L153.17 251.088
L153.542 190.355
L153.617 186.238
L153.691 187.974
L153.84 210.584
L154.138 261.18
L154.212 261.725
L154.361 252.578
L154.658 204.54
L154.882 180.24
L155.03 205.891
L155.402 298.282
L155.477 305.731
L155.551 300.332
L155.998 200.239
L156.072 203.242
L156.89 244.491
L157.114 252.148
L157.337 244.99
L157.411 244.752
L157.634 251.127
L157.709 251.08
L157.932 237.617
L158.006 237.756
L158.155 247.471
L158.378 265.519
L158.453 266.709
L158.602 259.037
L159.346 194.679
L159.643 135.251
L159.718 132.255
L159.792 137.493
L160.09 213.241
L160.387 271.763
L160.685 295.532
L160.759 299.157
L160.908 281.992
L161.057 265.219
L161.131 264.351
L161.206 264.405
L162.098 228.125
L162.396 240.098
L162.545 234.161
L162.619 230.022
L162.768 241.112
L162.917 253.269
L162.991 250.835
L163.81 174.58
L163.884 171.301
L163.958 172.721
L164.107 189.011
L164.554 271.018
L164.851 326.974
L164.926 331.897
L165 331.859
L165.149 323.787
L165.372 280.572
L165.744 195.761
L166.042 162.545
L166.19 157.976
L166.339 159.013
L166.488 168.167
L166.786 215.169
L167.381 326.897
L167.455 328.464
L167.604 315.938
L167.902 244.291
L168.199 173.958
L168.274 173.313
L168.422 188.419
L168.794 241.15
L169.018 249.575
L169.166 236.75
L169.464 210.123
L169.538 209.893
L170.357 242.817
L170.654 264.712
L170.729 263.215
L171.026 247.302
L171.25 250.597
L171.398 245.359
L171.696 228.885
L172.068 243.708
L172.142 241.45
L172.514 207.742
L172.589 208.764
L172.663 207.443
L172.812 200.915
L172.886 202.581
L173.407 259.29
L173.482 258.522
L173.63 250.804
L173.705 250.904
L173.928 241.304
L174.151 231.228
L174.226 232.234
L174.523 242.847
L174.746 223.179
L174.97 213.364
L175.044 213.971
L175.49 230.851
L175.565 231.512
L175.862 248.723
L176.086 263.445
L176.16 263.491
L176.234 265.35
L176.309 264.689
L176.532 255.12
L176.606 257.071
L176.83 275.219
L176.904 273.629
L177.127 240.866
L177.574 141.356
L177.648 134.967
L177.722 140.097
L178.02 215.461
L178.392 284.312
L178.615 241.196
L178.838 213.963
L178.987 234.791
L179.434 319.164
L179.582 327.212
L179.657 322.128
L179.88 267.907
L180.252 172.069
L180.55 162.622
L180.624 161.255
L180.698 161.708
L180.847 173.966
L181.74 291.485
L181.814 293.996
L181.889 291.823
L182.261 253.407
L182.782 184.011
L183.005 170.041
L183.154 182.736
L183.377 238.155
L183.6 288.305
L183.674 289.826
L183.898 277.5
L184.27 260.788
L184.567 247.21
L184.939 204.816
L185.014 207.765
L185.386 242.425
L185.46 236.942
L185.609 195.001
L185.832 127.678
L185.906 125.351
L186.055 158.698
L186.427 322.205
L186.576 304.725
L186.948 256.403
L187.097 250.159
L187.32 270.972
L187.469 285.687
L187.543 283.267
L188.138 216.72
L188.436 181.93
L188.734 163.306
L188.808 163.767
L189.18 177.368
L189.329 215.107
L189.701 329.908
L189.775 333.049
L189.924 321.798
L190.222 268.176
L190.742 167.084
L190.817 172.322
L191.263 238.255
L191.412 236.496
L191.71 268.829
L191.784 266.133
L192.156 229.83
L192.23 231.112
L192.602 256.157
L192.677 252.57
L192.9 228.217
L192.974 229.131
L193.123 235.521
L193.198 233.724
L193.421 209.992
L193.57 217.742
L193.718 223.164
L193.867 218.64
L194.016 208.779
L194.165 216.167
L194.388 231.397
L194.462 232.165
L194.611 229.899
L194.686 228.463
L194.76 229.292
L195.058 259.037
L195.132 258.238
L195.355 246.303
L195.504 261.648
L195.802 296.254
L195.95 283.774
L196.62 182.559
L196.694 183.55
L196.918 201.153
L197.066 210.407
L197.141 209.224
L197.29 199.056
L197.438 186.753
L197.513 188.005
L197.662 206.114
L198.034 277.515
L198.331 332.68
L198.406 332.227
L198.629 312.943
L198.852 266.003
L199.298 146.901
L199.373 147.285
L199.596 173.72
L200.191 295.717
L200.266 292.261
L200.414 255.781
L200.712 174.188
L200.786 173.367
L200.861 176.078
L201.233 207.297
L201.382 217.703
L201.53 255.174
L201.828 339.784
L201.902 345.813
L201.977 343.809
L202.126 316.437
L202.721 173.904
L202.87 163.198
L202.944 164.995
L203.465 221.436
L203.539 220.729
L203.614 220.629
L203.688 221.605
L204.134 265.887
L204.209 265.841
L204.432 259.444
L204.506 260.565
L204.581 261.487
L204.804 238.777
L204.878 232.518
L204.953 233.071
L205.102 242.579
L205.325 252.079
L205.771 238.777
L205.994 232.172
L206.366 171.608
L206.59 202.689
L206.813 220.399
L206.962 227.226
L207.185 249.629
L207.631 288.482
L207.706 286.155
L208.226 228.148
L208.45 203.91
L208.524 206.859
L208.673 229.262
L208.97 267.708
L209.045 267.132
L209.194 258.783
L209.342 237.387
L209.64 172.399
L209.714 175.824
L210.012 223.863
L210.086 221.812
L210.384 207.45
L210.458 209.217
L210.682 230.598
L210.979 255.504
L211.054 254.383
L211.277 241.227
L211.351 242.103
L211.723 261.21
L211.872 259.513
L211.946 261.978
L212.244 294.657
L212.318 291.462
L212.616 244.391
L212.988 186.538
L213.211 196.921
L213.509 213.633
L213.806 201.038
L214.104 185.862
L214.402 191.345
L214.55 208.679
L215.071 352.456
L215.146 353.785
L215.294 342.204
L215.666 239.729
L216.113 149.727
L216.187 148.575
L216.336 168.321
L216.634 227.073
L216.708 227.595
L216.931 219.116
L217.08 225.114
L217.452 249.36
L217.898 220.529
L217.973 225.706
L218.419 305.992
L218.494 304.587
L218.717 263.86
L219.014 222.158
L219.312 204.901
L219.386 204.279
L219.461 205.4
L219.758 222.664
L220.056 199.048
L220.279 223.018
L220.577 246.726
L220.726 249.675
L220.874 247.548
L220.949 248.162
L221.246 256.756
L221.321 254.26
L221.693 222.426
L221.842 227.511
L221.916 227.219
L222.139 216.643
L222.288 224.515
L222.586 243.592
L222.734 246.273
L223.032 258.73
L223.106 257.77
L223.33 251.864
L223.404 252.785
L223.553 242.149
L223.85 211.951
L223.999 218.609
L224.148 222.334
L224.297 221.105
L224.446 225.26
L224.52 224.423
L224.594 223.248
L224.669 225.253
L224.743 224.454
L224.818 224.208
L224.892 222.657
L225.041 229.692
L225.413 286.639
L225.487 284.75
L225.636 261.525
L225.934 211.728
L226.157 229.177
L226.231 225.637
L226.529 172.668
L226.603 172.936
L226.826 217.872
L227.124 267.554
L227.198 268.299
L227.496 254.375
L227.57 255.105
L227.942 284.089
L228.091 264.927
L228.389 222.027
L228.612 211.644
L229.207 242.809
L229.282 242.21
L229.43 242.924
L229.579 226.136
L229.951 126.119
L230.026 134.92
L230.249 239.799
L230.472 305.317
L230.546 308.012
L230.77 284.204
L231.067 247.532
L231.439 210
L232.034 245.543
L232.332 262.301
L232.481 253.477
L232.778 233.893
L232.853 235.582
L233.076 243.086
L233.374 238.247
L233.746 223.056
L234.043 190.14
L234.118 195.308
L234.564 256.257
L234.713 264.405
L234.862 248.738
L235.234 201.437
L235.308 199.563
L235.457 209.87
L235.903 282.745
L235.978 280.003
L236.722 207.788
L236.945 218.479
L237.019 222.373
L237.094 221.336
L237.242 206.391
L237.391 192.19
L237.466 192.551
L237.614 206.698
L237.838 260.888
L238.135 337.542
L238.21 335.706
L238.582 274.22
L239.251 134.452
L239.326 136.149
L239.549 167.706
L240.07 250.243
L240.739 331.974
L240.814 326.437
L241.037 268.092
L241.409 193.204
L241.632 175.985
L241.781 194.341
L242.153 246.403
L242.227 248.761
L242.376 232.956
L242.748 189.802
L242.897 185.693
L243.046 194.118
L243.269 227.057
L243.641 288.351
L243.864 305.171
L243.938 305.608
L244.013 302.682
L244.682 231.612
L245.129 217.035
L245.352 188.25
L245.575 169.081
L245.724 166.608
L245.947 175.978
L246.096 197.958
L246.542 283.505
L246.84 302.206
L246.914 299.18
L247.51 235.413
L247.658 230.69
L247.733 230.805
L247.882 231.827
L248.03 228.325
L248.105 229
L248.179 229.584
L248.7 219.608
L248.998 210.661
L249.146 214.961
L249.37 228.855
L249.593 212.688
L249.667 205.753
L249.742 206.513
L249.89 226.812
L250.188 265.911
L250.486 263.169
L250.56 268.322
L250.634 266.709
L250.932 254.667
L251.304 238.163
L251.527 225.506
L251.602 224.446
L251.676 228.524
L251.75 227.879
L252.122 195.861
L252.197 198.519
L252.569 227.557
L252.718 235.797
L252.941 251.756
L253.387 246.534
L253.536 234.599
L253.759 219.155
L253.834 217.926
L253.982 230.467
L254.131 247.978
L254.28 240.259
L254.429 228.885
L254.578 246.135
L254.801 272.031
L254.875 272.838
L255.024 258.161
L255.396 207.443
L255.545 215.453
L255.768 230.344
L256.066 213.164
L256.14 213.379
L256.289 222.342
L256.586 269.658
L256.735 253.599
L256.884 238.946
L256.958 239.975
L257.256 264.144
L257.405 243.992
L257.628 208.119
L257.702 209.562
L258 234.776
L258.074 229.684
L258.298 199.079
L258.372 199.34
L258.446 200.331
L258.818 228.724
L258.967 242.318
L259.19 238.27
L259.265 239.66
L259.637 268.983
L259.711 266.295
L259.934 245.098
L260.083 260.673
L260.306 290.809
L260.381 294.227
L260.455 292.43
L260.53 286.792
L261.05 196.053
L261.199 186.553
L261.571 142.017
L261.72 166.347
L262.092 263.53
L262.166 263.537
L262.315 257.877
L262.762 285.594
L262.91 289.573
L263.059 277.469
L263.431 228.678
L263.654 237.118
L263.729 236.197
L263.952 204.555
L264.101 182.329
L264.175 182.982
L264.324 205.738
L264.547 240.305
L264.77 222.534
L264.845 226.481
L265.142 251.603
L265.217 251.802
L265.514 241.166
L265.589 241.35
L265.812 254.859
L266.035 242.417
L266.482 207.128
L266.63 224.462
L266.854 245.82
L267.002 229.023
L267.151 206.513
L267.3 226.527
L267.523 260.588
L267.672 251.818
L267.821 238.493
L267.895 238.984
L268.118 250.766
L268.193 250.428
L268.342 253.73
L268.416 253.392
L268.49 251.633
L268.862 220.975
L268.937 223.985
L269.086 238.823
L269.16 237.656
L269.309 222.542
L269.532 198.073
L269.606 196.706
L269.681 199.632
L270.053 246.91
L270.202 246.503
L270.276 244.138
L270.499 224.792
L270.574 227.034
L270.946 256.134
L271.094 241.503
L271.243 228.048
L271.318 229.991
L271.541 246.465
L271.69 234.338
L271.913 221.436
L271.987 225.068
L272.434 272.968
L272.806 250.658
L273.178 204.117
L273.252 205.584
L273.401 213.886
L273.55 198.956
L273.698 182.16
L273.773 186.123
L274.07 228.54
L274.294 199.694
L274.368 202.996
L274.666 264.628
L274.74 260.934
L274.963 239.722
L275.112 260.811
L275.335 304.287
L275.484 301.461
L275.782 277.538
L275.93 263.714
L276.154 240.505
L276.377 224.439
L276.674 157.937
L276.749 158.083
L277.046 204.494
L277.195 190.478
L277.344 179.342
L277.418 182.721
L277.567 209.916
L277.79 255.32
L278.237 277.454
L278.386 264.812
L278.683 242.271
L278.758 241.849
L279.204 251.05
L279.353 260.803
L279.427 260.734
L279.576 246.242
L279.874 205.177
L280.097 230.268
L280.469 211.943
L281.213 268.138
L281.362 250.942
L281.734 210.876
L281.882 205.999
L281.957 206.091
L282.106 220.291
L282.403 254.337
L282.552 239.929
L282.85 203.365
L282.998 225.099
L283.222 237.771
L283.594 269.067
L283.668 269.036
L284.04 246.48
L284.412 195.723
L284.486 198.127
L285.379 271.018
L285.454 271.425
L285.602 261.579
L285.974 227.948
L286.049 226.097
L286.421 208.764
L286.644 224.661
L286.718 223.317
L286.867 209.171
L287.09 187.098
L287.165 187.406
L287.314 197.996
L287.983 313.035
L288.058 310.623
L288.504 254.414
L288.802 190.024
L288.876 191.814
L289.471 247.202
L289.546 244.46
L289.769 224.154
L289.843 225.368
L290.066 234.277
L290.215 230.813
L290.438 217.719
L290.81 245.712
L290.885 245.436
L290.959 244.038
L291.257 231.45
L291.406 228.578
L291.48 227.741
L291.554 229.1
L291.703 242.525
L291.926 266.44
L292.075 261.495
L292.447 228.801
L292.67 230.406
L292.745 230.414
L292.968 226.435
L293.042 224.001
L293.117 224.208
L293.266 233.278
L293.563 263.115
L293.638 264.659
L293.712 263.914
L293.786 260.189
L294.382 183.742
L294.456 185.716
L295.051 231.735
L295.572 297.375
L295.646 295.893
L295.795 278.314
L296.018 244.437
L296.093 243.308
L296.242 247.233
L296.316 249.621
L296.39 249.176
L296.539 244.683
L296.688 228.778
L296.911 209.524
L296.986 208.856
L297.06 206.713
L297.358 173.551
L297.432 177.23
L298.027 249.629
L298.176 254.283
L298.325 252.716
L298.622 264.805
L298.771 255.427
L299.069 236.519
L299.292 246.841
L299.366 246.672
L299.59 242.663
L300.11 221.827
L300.334 226.167
L300.408 226.789
L300.557 230.114
L300.631 230.083
L301.301 210.653
L301.524 229.93
L301.598 227.987
L301.673 225.591
L301.822 233.601
L302.119 258.991
L302.342 287.622
L302.417 284.35
L302.863 236.074
L302.938 232.387
L303.012 234.092
L303.235 248.907
L303.458 232.426
L303.756 211.659
L303.905 203.349
L303.979 203.795
L304.277 219.4
L304.5 209.608
L304.574 212.665
L304.798 232.533
L304.946 227.211
L305.021 228.693
L305.244 252.033
L305.542 273.03
L305.616 272.938
L305.914 258.991
L305.988 260.227
L306.062 261.195
L306.137 259.805
L306.36 249.736
L306.434 250.143
L306.509 249.245
L306.658 239.43
L307.178 193.411
L307.327 184.948
L307.402 185.608
L307.774 200.439
L308.22 256.779
L308.369 267.324
L308.592 281.585
L308.666 280.111
L308.815 281.823
L308.89 280.91
L309.262 255.036
L309.634 214.163
L309.857 192.728
L310.229 172.099
L310.303 175.256
L310.526 215
L310.898 297.391
L311.047 300.156
L311.122 296.984
L311.94 192.912
L312.014 192.697
L312.163 204.663
L312.461 237.541
L312.61 227.119
L312.833 217.158
L312.982 225.03
L313.279 286.754
L313.502 336.92
L313.8 214.585
L313.874 223.525
L314.023 244.345
L314.098 239.384
L314.395 169.503
L314.47 175.102
L314.916 253.461
L314.99 254.099
L315.139 250.328
L315.214 250.604
L315.288 252.355
L315.362 250.75
L315.511 225.844
L315.809 175.171
L316.032 162.192
L316.181 186.983
L316.553 255.028
L316.627 256.126
L316.702 255.235
L316.776 256.103
L316.925 272.108
L317.297 325.523
L317.371 322.627
L317.669 283.567
L318.264 195.139
L318.636 165.848
L318.859 164.289
L319.008 177.091
L319.38 255.481
L319.454 252.647
L319.826 197.697
L319.901 197.973
L320.05 223.463
L320.422 311.66
L320.645 338.341
L320.719 334.9
L321.389 223.417
L321.686 129.053
L321.835 121.78
L321.91 126.542
L323.026 297.452
L323.1 295.686
L323.249 273.759
L323.472 227.15
L323.546 228.839
L323.77 263.407
L323.993 290.878
L324.067 289.964
L324.29 253.953
L324.662 203.119
L324.811 195.462
L324.96 211.167
L325.183 235.813
L325.258 235.774
L325.332 232.257
L325.481 207.443
L325.853 134.821
L325.927 137.547
L326.076 179.249
L326.522 326.275
L326.597 325.607
L326.894 302.99
L327.043 276.355
L327.266 221.973
L327.341 227.81
L327.564 268.86
L327.638 268.092
L327.787 248.331
L328.159 189.402
L328.308 178.028
L328.531 157.162
L328.68 167.322
L328.829 190.938
L329.424 314.21
L329.498 316.959
L329.573 313.665
L329.722 289.05
L330.168 171.823
L330.317 201.406
L330.614 268.215
L330.986 291.439
L331.061 290.21
L331.21 269.351
L331.582 197.251
L331.656 195.523
L331.73 196.222
L331.805 196.767
L332.177 190.792
L332.251 192.628
L332.698 234.83
L332.772 232.188
L332.995 210.522
L333.07 213.164
L333.218 242.863
L333.516 312.467
L333.665 299.795
L333.962 267.354
L334.26 193.765
L334.483 143.883
L334.632 170.356
L335.153 327.88
L335.302 320.892
L335.525 279.765
L336.046 112.364
L336.12 121.557
L336.566 233.132
L336.79 227.449
L336.864 229.177
L337.31 266.909
L337.459 247.532
L337.608 225.038
L337.682 225.176
L338.352 291.324
L338.501 294.618
L338.575 292.015
L338.724 263.23
L339.022 188.696
L339.096 189.18
L339.468 227.165
L339.542 221.681
L339.914 164.212
L340.063 162.937
L340.286 167.921
L340.435 192.904
L340.882 357.656
L340.956 355.989
L341.254 306.192
L341.774 176.485
L341.923 186.922
L342.444 265.542
L342.593 249.614
L342.965 191.729
L343.114 186.177
L343.188 185.916
L343.486 172.921
L343.634 195.447
L344.006 281.57
L344.081 284.112
L344.155 282.753
L344.23 282.922
L344.304 283.843
L344.527 301.983
L344.676 314.533
L344.75 313.296
L345.122 294.964
L345.271 258.929
L345.718 101.221
L345.866 122.94
L346.387 222.687
L346.908 281.409
L346.982 281.163
L347.057 280.065
L347.131 280.503
L347.354 285.994
L347.429 285.579
L347.578 275.564
L348.024 224.147
L348.173 230.636
L348.322 238.293
L348.396 238.132
L348.545 225.283
L348.917 186.599
L348.991 184.157
L349.066 186.231
L349.214 206.053
L349.586 302.122
L349.661 297.506
L350.107 163.336
L350.256 181.346
L350.777 276.924
L350.851 280.026
L350.926 279.466
L351.074 276.286
L351.298 280.979
L351.372 278.751
L351.521 262.032
L351.818 222.058
L352.265 193.619
L352.414 199.463
L352.637 211.49
L352.786 217.081
L353.306 257.708
L353.381 257.631
L353.53 256.679
L353.678 243.577
L353.902 221.597
L354.05 230.974
L354.348 249.544
L354.497 251.38
L354.72 239.461
L355.018 228.01
L355.39 216.436
L355.538 226.097
L355.836 250.397
L355.985 255.189
L356.059 251.157
L356.282 227.365
L356.357 226.213
L356.431 226.789
L356.506 225.652
L356.654 220.783
L356.729 222.695
L357.026 240.904
L357.25 243.723
L357.473 245.351
L357.77 237.333
L357.919 237.886
L358.068 231.627
L358.366 218.056
L358.514 224.976
L358.738 238.531
L358.812 238.9
L359.035 236.043
L359.184 242.141
L359.333 246.649
L359.779 208.533
L359.854 214.232
L360.374 295.755
L360.449 293.927
L360.672 254.79
L361.118 165.003
L361.267 155.38
L361.416 175.018
L362.011 269.958
L362.086 272.139
L362.234 266.225
L362.755 237.786
L362.83 237.748
L363.053 264.805
L363.35 300.655
L363.425 301.392
L363.574 280.495
L364.094 152.792
L364.169 148.122
L364.243 149.32
L364.392 157.1
L364.615 185.378
L365.285 280.633
L365.359 279.804
L365.508 274.65
L365.88 232.38
L365.954 234.338
L366.401 272.024
L366.475 271.832
L366.847 249.091
L367.07 227.272
L367.442 151.717
L367.517 153.268
L367.666 174.972
L368.261 302.421
L368.41 285.894
L368.707 218.586
L368.782 219.999
L369.079 245.067
L369.228 242.863
L369.451 250.382
L369.526 248.776
L369.749 225.16
L369.972 196.291
L370.046 197.82
L370.27 228.002
L370.642 280.656
L370.716 274.888
L370.939 208.203
L371.162 164.25
L371.237 162.085
L371.386 177.007
L371.683 258.591
L371.981 322.858
L372.055 321.867
L372.204 298.996
L372.65 200.838
L372.725 198.273
L372.799 200.5
L373.022 222.388
L373.097 221.912
L373.394 195.539
L373.543 210.561
L373.692 224.031
L373.841 222.411
L373.915 226.382
L374.213 283.797
L374.287 280.111
L374.734 224.792
L374.882 219.408
L374.957 224.208
L375.403 294.926
L375.552 297.898
L375.626 294.549
L375.998 218.179
L376.073 212.857
L376.222 169.964
L376.445 105.176
L376.519 104.308
L376.594 107.879
L376.742 157.054
L377.114 349.315
L377.189 356.327
L377.412 332.558
L377.635 258.661
L378.082 130.958
L378.156 141.08
L378.379 214.67
L378.454 213.241
L378.528 215.399
L378.974 316.575
L379.049 310.531
L379.123 303.811
L379.198 306.392
L379.346 309.694
L379.421 303.581
L379.718 241.381
L379.793 243.354
L379.867 243.746
L380.016 201.775
L380.314 90.0769
L380.462 125.835
L380.834 249.99
L381.058 259.306
L381.206 276.632
L381.281 272.769
L381.504 238.355
L381.578 239.031
L381.95 294.734
L382.025 292.929
L382.397 260.25
L382.694 190.332
L382.769 186.446
L382.843 191.514
L383.141 235.298
L383.438 222.641
L383.513 227.933
L383.736 268.591
L383.885 246.887
L384.108 214.608
L384.182 213.203
L384.331 206.129
L384.406 208.088
L384.703 236.335
L385.075 276.931
L385.15 275.472
L385.522 214.27
L385.596 216.49
L385.67 216.351
L385.745 212.135
L386.117 165.31
L386.266 206.122
L386.563 321.752
L386.638 321.821
L386.861 263.138
L387.158 207.865
L387.233 204.255
L387.382 211.298
L387.679 232.971
L387.828 243.193
L388.2 291.531
L388.274 288.113
L388.646 209.055
L388.795 218.74
L388.944 212.404
L389.018 207.758
L389.242 160.364
L389.316 160.664
L389.539 240.72
L389.762 313.496
L389.911 265.473
L390.209 186.269
L390.283 185.432
L391.25 314.748
L391.325 312.72
L391.474 267.247
L391.771 161.57
L391.846 159.289
L392.069 201.898
L392.218 219.07
L392.292 220.23
L392.664 245.904
L392.962 306.952
L393.036 299.802
L393.259 215.714
L393.408 179.418
L393.557 200.492
L393.706 232.925
L393.78 228.609
L394.003 193.365
L394.078 194.871
L394.226 219.685
L394.375 258.2
L394.45 249.836
L394.673 158.076
L394.747 173.228
L395.045 376.679
L395.194 318.442
L395.566 157.269
L395.64 149.896
L395.789 191.031
L396.086 277.576
L396.31 258.469
L396.458 280.065
L396.533 279.427
L397.054 198.949
L397.128 197.282
L397.202 198.257
L397.426 214.04
L397.574 200.415
L397.723 218.64
L397.872 234.991
L398.095 226.067
L398.318 248.623
L398.393 243.255
L398.69 212.511
L398.839 236.066
L399.062 282.96
L399.137 282.883
L399.583 250.858
L399.881 240.044
L399.955 238.931
L400.178 249.89
L400.327 233.547
L400.625 187.628
L400.699 190.647
L400.922 241.411
L401.146 296.101
L401.22 297.268
L401.369 265.265
L401.741 144.098
L401.89 162.876
L402.113 197.267
L402.262 211.882
L402.708 284.289
L402.782 286.071
L403.006 268.268
L403.08 274.028
L403.229 312.858
L403.378 355.92
L403.452 352.272
L403.75 254.728
L404.122 74.3867
L404.196 64.5102
L404.27 64.9096
L404.419 109.446
L404.791 297.867
L404.866 297.314
L405.089 288.613
L405.238 295.409
L405.312 294.004
L405.461 297.637
L405.535 299.649
L405.61 295.839
L405.758 265.143
L406.13 159.251
L406.279 170.218
L406.651 227.28
L406.726 227.257
L406.874 222.019
L406.949 222.511
L407.098 238.623
L407.544 332.596
L407.842 291.001
L408.065 220.307
L408.437 112.933
L408.511 120.136
L408.958 292.752
L409.032 289.726
L409.181 261.349
L409.478 165.594
L409.553 167.461
L409.702 212.35
L409.925 291.923
L409.999 289.027
L410.297 170.195
L410.371 177.69
L410.669 315.784
L410.743 314.341
L410.966 290.463
L411.115 295.532
L411.264 251.994
L411.487 191.307
L412.082 239.967
L412.157 238.769
L412.529 199.617
L412.603 200.008
L412.752 196.176
L412.826 200.131
L413.198 274.028
L413.273 268.791
L413.794 185.516
L413.868 189.218
L414.091 261.111
L414.24 293.873
L414.389 262.109
L414.612 204.77
L414.686 207.358
L415.207 283.06
L415.282 279.343
L415.579 254.091
L415.802 260.281
L415.877 259.237
L416.621 183.942
L416.844 168.29
L416.993 171.4
L417.142 184.479
L417.737 258.246
L418.034 284.25
L418.109 285.418
L418.183 284.028
L418.63 266.448
L418.853 255.205
L419.076 237.533
L419.448 206.137
L419.522 206.352
L419.671 213.495
L419.894 225.829
L419.969 226.051
L420.118 225.022
L420.192 224.999
L420.415 220.084
L420.49 221.374
L420.713 232.203
L420.787 230.567
L421.159 211.022
L421.382 222.787
L422.052 281.148
L422.126 280.648
L422.573 257.616
L422.722 246.749
L422.945 230.014
L423.242 219.124
L423.317 219.5
L423.54 229.684
L423.614 229.5
L423.763 222.964
L423.986 209.77
L424.061 210.553
L424.358 225.913
L424.805 211.751
L425.028 223.048
L425.326 260.727
L425.549 278.559
L425.698 281.524
L425.921 278.122
L426.07 264.167
L426.367 228.716
L426.59 218.402
L426.814 203.603
L426.888 203.641
L427.037 207.059
L427.111 206.475
L427.186 206.621
L427.334 213.948
L427.706 243.377
L427.781 243.239
L427.855 240.666
L427.93 240.951
L428.004 242.164
L428.078 241.565
L428.376 225.721
L428.525 219.569
L428.599 222.15
L428.971 252.478
L429.12 252.225
L429.269 250.305
L429.566 252.133
L429.641 252.094
L429.79 251.818
L429.938 254.767
L430.087 248.024
L430.831 197.497
L430.906 198.303
L431.129 210.338
L431.426 238.547
L431.65 258.622
L431.724 259.367
L432.17 248.999
L432.394 219.285
L432.617 202.312
L432.691 201.798
L432.84 207.688
L433.138 238.984
L433.584 300.071
L433.733 284.78
L434.402 144.659
L434.477 147.854
L434.626 172.775
L435.37 362.141
L435.444 354.822
L435.667 278.629
L435.965 185.409
L436.188 158.598
L436.262 155.987
L436.337 156.701
L436.634 176.646
L437.155 218.01
L437.304 226.996
L437.825 302.483
L437.899 302.268
L438.048 293.612
L438.346 249.015
L438.569 219.032
L438.643 218.571
L439.09 250.097
L439.164 248.93
L439.313 233.539
L439.685 182.544
L439.982 177.114
L440.057 177.951
L440.206 192.759
L440.503 266.364
L440.801 334.815
L440.875 339.631
L440.95 335.338
L441.173 282.292
L441.396 230.92
L441.545 224.001
L441.768 233.724
L441.842 232.119
L442.214 182.206
L442.512 147.746
L442.586 146.824
L442.735 152.869
L442.958 180.586
L443.479 302.26
L443.777 365.436
L443.926 329.578
L444.223 249.26
L444.298 244.23
L444.372 244.529
L444.67 255.566
L444.744 255.312
L444.818 252.555
L444.967 227.203
L445.339 135.996
L445.414 135.389
L445.488 133.123
L445.711 142.524
L445.86 173.681
L446.306 333.425
L446.381 329.363
L446.902 242.126
L446.976 243.347
L447.274 274.074
L447.422 261.026
L448.018 168.513
L448.166 174.204
L448.538 208.095
L449.208 324.24
L449.282 324.97
L449.431 310.286
L449.729 237.233
L449.878 181.438
L449.878 181.438" style="fill:none;stroke:#808080;stroke-linecap:square;"/>
   </g>
  </g>
 </g>
 <defs>
  <clipPath id="p7ff5b81e1d">
   <rect height="345.6" width="446.4" x="72.0" y="43.2"/>
  </clipPath>
 </defs>
</svg>
