<?xml version="1.0" encoding="utf-8" standalone="no"?>
<!DOCTYPE svg PUBLIC "-//W3C//DTD SVG 1.1//EN"
  "http://www.w3.org/Graphics/SVG/1.1/DTD/svg11.dtd">
<!-- Created with matplotlib (http://matplotlib.org/) -->
<svg height="432pt" version="1.1" viewBox="0 0 576 432" width="576pt" xmlns="http://www.w3.org/2000/svg" xmlns:xlink="http://www.w3.org/1999/xlink">
 <defs>
  <style type="text/css">
*{stroke-linecap:butt;stroke-linejoin:round;}
  </style>
 </defs>
 <g id="figure_1">
  <g id="patch_1">
   <path d="
M0 432
L576 432
L576 0
L0 0
z
" style="fill:#ffffff;"/>
  </g>
  <g id="axes_1">
   <g id="line2d_1">
    <path clip-path="url(#p7ff5b81e1d)" d="
M72 181.699
L72.2976 234.687
L72.372 231.659
L72.5208 229.738
L72.6696 240.175
L73.116 286.762
L73.3392 337.316
L73.4136 341.394
L73.488 339.901
L73.5624 337.648
L73.7112 319.248
L74.232 189.482
L74.3808 198.661
L74.4552 198.316
L74.5296 199.836
L74.604 203.97
L74.9016 245.787
L74.976 241.723
L75.1992 267.947
L75.348 260.883
L75.4224 261.533
L75.6456 229.268
L75.7944 250.667
L75.8688 247.073
L76.092 221.415
L76.1664 219.231
L76.2408 220.185
L76.3152 224.319
L76.6128 272.177
L76.836 257.607
L77.2824 283.568
L77.58 335.505
L77.8776 273.007
L78.2496 168.552
L78.324 161.876
L78.3984 164.101
L78.9192 298.249
L78.9936 297.71
L79.5888 205.628
L79.6632 206.707
L79.7376 208.587
L80.1096 240.119
L80.184 238.682
L80.2584 239.94
L80.4072 252.367
L80.928 307.235
L81.0024 310.857
L81.0768 305.894
L81.3 277.181
L81.3744 277.071
L81.5232 295.084
L81.5976 288.49
L81.8208 225.024
L81.8952 221.374
L82.1928 172.617
L82.2672 175.755
L82.6392 243.534
L82.788 278.039
L82.8624 277.181
L83.0112 266.578
L83.0856 266.274
L83.3088 249.962
L83.3832 248.068
L83.8296 207.384
L84.2016 272.398
L84.276 273.269
L84.4248 289.499
L84.648 322.179
L84.7224 323.52
L84.8712 318.847
L85.02 270.532
L85.2432 210.19
L85.5408 262.735
L85.6152 263.15
L85.6896 261.132
L85.9872 234.797
L86.2848 205.808
L86.4336 189.496
L86.508 180.51
L86.5824 181.671
L86.9544 230.885
L87.252 315.391
L87.3264 313.594
L87.4752 303.019
L88.0704 214.199
L88.1448 214.6
L88.2192 215.789
L88.368 236.843
L88.6656 298.47
L89.0376 309.308
L89.2608 288.213
L89.9304 233.249
L90.1536 218.512
L90.228 219.052
L90.3768 227.775
L90.4512 231.231
L90.6744 213.812
L90.7488 217.13
L90.972 226.157
L91.0464 225.01
L91.1208 225.991
L91.2696 232.005
L91.344 231.3
L91.4928 218.927
L91.6416 231.783
L91.716 230.055
L91.7904 229.807
L92.3112 270.836
L92.6832 340.219
L92.7576 343.564
L92.832 340.8
L92.9064 344.034
L93.1296 330.127
L93.3528 276.518
L93.576 229.005
L93.7248 199.186
L94.1712 111.376
L94.3944 146.489
L94.5432 197.528
L94.8408 312.225
L94.9896 318.17
L95.1384 305.244
L95.436 279.476
L95.6592 272.772
L95.7336 270.283
L96.18 237.451
L96.3288 241.101
L96.4032 239.663
L96.4776 240.451
L96.7752 264.353
L96.9984 268.445
L97.2216 294.614
L97.5192 325.344
L97.5936 326.506
L97.8168 263.413
L98.1144 170.764
L98.412 99.7781
L98.4864 104.589
L99.0072 231.369
L99.528 338.85
L99.6024 346.025
L99.6768 345.126
L100.123 307.788
L100.421 318.405
L100.495 317.824
L100.57 320.921
L100.644 319.524
L100.793 285.061
L101.239 147.346
L101.314 141.955
L101.834 211.269
L101.909 212.914
L102.206 239.677
L102.281 237.092
L102.43 220.31
L102.653 262.307
L103.025 317.644
L103.099 315.93
L103.397 271.265
L103.694 240.949
L103.918 199.753
L104.141 232.737
L104.29 217.489
L104.662 280.776
L105.108 368.475
L105.182 363.07
L105.331 313.912
L105.778 101.783
L105.926 84.6408
L106.001 87.3227
L106.075 97.2207
L106.819 363.457
L106.894 361.549
L106.968 364.383
L107.042 361.273
L107.414 302.811
L107.712 217.794
L108.084 251.745
L108.158 248.663
L108.307 229.337
L108.53 171.732
L108.605 173.584
L108.828 182.432
L108.977 158.572
L109.944 343.924
L110.018 347.546
L110.242 312.626
L110.465 274.306
L110.539 273.283
L110.614 269.274
L110.986 223.282
L111.283 191.984
L111.432 217.642
L111.73 257.869
L111.804 260.413
L112.102 230.968
L112.325 214.351
L112.399 215.07
L112.474 217.061
L112.548 215.305
L112.622 218.72
L113.292 305.41
L113.366 302.286
L113.962 227.152
L114.11 244.64
L114.185 243.354
L114.259 236.304
L114.334 237.645
L114.557 278.992
L114.706 263.468
L114.929 297.282
L115.003 296.259
L115.078 292.733
L115.152 294.876
L115.301 306.834
L115.524 273.048
L115.598 273.656
L115.896 209.25
L116.268 118.427
L116.417 106.676
L116.491 113.021
L116.64 179.764
L116.938 315.889
L117.086 339.514
L117.235 337.012
L117.384 341.615
L117.458 339.389
L117.682 305.548
L117.905 270.643
L118.128 238.626
L118.202 240.313
L118.351 248.248
L118.426 245.4
L118.649 188.155
L118.723 189.952
L118.798 185.169
L118.946 171.76
L119.17 223.448
L119.542 306.875
L119.69 322.151
L120.509 204.799
L120.583 195.827
L120.658 196.062
L120.732 196.325
L120.881 193.574
L121.03 217.324
L121.253 246.603
L121.476 295.014
L121.699 322.358
L121.774 319.759
L121.922 322.897
L121.997 327.28
L122.071 327.197
L122.592 264.422
L123.113 143.42
L123.262 133.605
L123.336 133.592
L123.41 133.979
L123.559 178.243
L123.782 242.483
L123.931 277.79
L124.08 326.837
L124.154 321.059
L124.452 264.173
L124.526 270.117
L124.601 268.749
L124.75 253.805
L124.973 295.194
L125.122 282.78
L125.196 283.181
L125.345 299.258
L125.419 296.48
L125.494 300.42
L125.568 295.941
L126.014 200.638
L126.089 200.652
L126.312 218.886
L126.535 192.8
L126.61 198.357
L127.056 278.813
L127.13 278.495
L127.205 275.827
L127.279 276.905
L127.577 303.751
L127.8 285.725
L127.949 255.423
L128.321 164.544
L128.395 155.364
L128.47 157.079
L128.544 162.746
L128.618 159.926
L128.693 162.249
L128.842 218.595
L129.139 326.105
L129.362 372.387
L130.85 136.439
L130.999 140.891
L131.148 171.884
L131.594 293.3
L131.966 349.177
L132.041 348.444
L132.19 341.795
L132.264 348.665
L132.413 321.957
L132.859 204.702
L133.231 218.886
L133.306 217.172
L133.454 208.379
L134.05 257.289
L134.124 257.206
L134.198 256.515
L134.273 251.538
L134.496 228.701
L134.57 225.494
L134.868 242.663
L134.942 243.354
L135.166 255.215
L135.389 273.864
L135.463 275.744
L135.538 275.481
L135.612 270.117
L135.835 302.286
L136.207 274.334
L136.356 261.809
L136.505 276.407
L136.579 276.338
L136.877 239.801
L137.1 216.909
L137.174 216.342
L137.398 186.178
L137.621 199.767
L137.695 200.583
L137.77 207.605
L137.993 196.615
L138.216 229.585
L138.439 263.053
L138.588 287.079
L138.662 282.324
L138.737 286.789
L138.886 300.821
L138.96 292.015
L139.034 293.065
L139.183 331.883
L139.258 330.625
L140.002 262.708
L140.076 264.063
L140.15 262.832
L140.299 235.516
L140.671 139.923
L140.746 149.475
L140.894 182.211
L140.969 185.169
L141.713 288.462
L142.01 247.28
L142.085 250.086
L142.308 269.343
L142.606 257.04
L142.978 229.807
L143.052 233.539
L143.424 304.705
L143.647 338.532
L143.796 342.832
L143.945 312.834
L144.54 163.617
L144.614 163.521
L144.689 168.746
L144.838 154.134
L144.912 154.217
L145.061 164.115
L145.21 182.529
L145.284 181.492
L145.358 176.57
L145.507 201.744
L146.102 361.895
L146.326 374.06
L146.4 367.3
L146.846 266.551
L147.442 182.128
L147.59 176.944
L147.665 178.506
L147.814 185.473
L147.888 186.814
L148.334 267.864
L148.483 283.693
L148.558 281.522
L148.632 282.352
L148.706 285.766
L148.855 277.14
L149.004 269.606
L149.153 272.481
L149.227 271.915
L149.376 265.929
L149.599 230.18
L149.822 255.049
L149.897 262.182
L149.971 259.155
L150.194 207.218
L150.418 215.886
L150.492 222.079
L150.79 325.33
L150.864 323.616
L151.236 263.04
L151.459 224.291
L151.534 223.531
L151.682 212.14
L151.906 238.723
L152.054 229.323
L152.129 235.101
L152.203 227.927
L152.426 194.721
L152.575 184.118
L152.724 198.481
L153.17 313.428
L153.245 330.459
L153.319 325.883
L153.394 315.903
L153.542 337.44
L153.617 327.846
L153.84 271.486
L154.138 235.875
L154.212 225.894
L154.286 230.595
L154.435 257.69
L154.584 249.589
L154.733 268.998
L155.254 193.104
L155.328 193.92
L155.402 192.067
L155.551 179.943
L155.849 204.426
L156.146 293.452
L156.221 291.047
L156.37 300.461
L156.742 280.43
L157.188 237.921
L157.337 266.744
L157.56 292.651
L157.634 296.825
L157.709 295.153
L158.378 197.721
L158.453 199.629
L158.75 244.073
L158.825 247.529
L159.197 233.221
L159.643 165
L159.718 169.396
L159.866 222.273
L160.238 371.821
L160.313 372.443
L160.462 368.102
L160.61 334.966
L160.908 251.524
L161.206 228.175
L161.354 226.793
L161.503 217.102
L162.098 162.29
L162.247 178.257
L162.768 296.217
L162.842 297.821
L162.917 297.489
L162.991 298.526
L163.214 310.636
L163.363 303.461
L163.884 234.355
L164.033 215.499
L164.182 215.651
L164.33 226.904
L164.851 300.807
L165.372 255.658
L165.521 259.749
L165.67 229.35
L165.818 203.085
L165.893 204.177
L166.265 166.175
L166.414 171.193
L166.86 260.012
L167.158 322.856
L167.232 327.169
L167.53 318.557
L167.678 312.764
L168.199 266.205
L168.348 273.145
L168.72 237.479
L169.092 180.013
L169.241 170.253
L169.315 171.262
L169.464 185.266
L169.836 237.714
L169.91 237.41
L170.282 284.384
L170.431 259.722
L170.58 263.717
L170.654 257.634
L170.729 260.648
L171.026 312.115
L171.175 320.05
L171.324 293.079
L171.398 294.033
L171.473 292.692
L171.77 237.949
L171.845 237.7
L172.217 209.292
L172.366 204.578
L172.589 226.973
L172.663 224.443
L172.738 219.549
L172.812 220.116
L173.258 268.389
L173.63 233.249
L173.779 236.29
L174.002 216.549
L174.077 217.918
L174.3 232.129
L174.672 316.165
L174.746 320.976
L174.895 311.327
L174.97 311.99
L175.044 315.557
L175.118 309.253
L175.267 285.02
L175.342 288.199
L175.416 285.711
L175.862 172.396
L175.937 174.483
L176.086 194.583
L176.16 192.44
L176.234 196.256
L176.904 283.872
L177.053 275.384
L177.276 241.834
L177.425 259.362
L177.722 233.843
L178.094 281.398
L178.169 281.094
L178.318 269.993
L178.466 283.997
L178.987 221.789
L179.062 230.263
L179.285 262.473
L179.434 273.034
L179.657 254.814
L179.731 254.524
L179.806 258.45
L179.954 272.62
L180.103 256.197
L180.624 185.694
L180.773 173.972
L180.847 179.639
L181.07 222.577
L181.145 221.111
L181.219 224.249
L181.368 255.257
L181.591 298.982
L181.74 323.907
L181.814 322.054
L181.889 302.756
L181.963 305.438
L182.038 309.447
L182.112 297.586
L182.335 335.947
L182.41 327.459
L183.302 149.503
L183.377 152.89
L184.344 276.476
L184.716 326.215
L184.865 317.548
L184.939 324.308
L185.014 320.755
L185.162 337.938
L185.237 336.21
L185.386 309.958
L185.832 203.804
L185.981 210.799
L186.204 191.03
L186.278 194.486
L186.353 194.887
L186.427 193.339
L186.502 195.108
L186.65 218.139
L186.874 256.791
L187.022 252.824
L187.097 252.699
L187.246 240.686
L187.394 230.18
L187.766 258.491
L187.841 257.883
L187.99 246.561
L188.064 251.953
L188.287 288.711
L188.362 289.623
L188.436 294.019
L188.51 293.093
L188.882 237.147
L188.957 236.18
L189.329 254.123
L189.478 262.652
L189.552 260.178
L189.775 279.974
L189.998 266.993
L190.073 272.039
L190.147 264.311
L190.37 213.964
L190.445 211.656
L190.594 199.159
L190.742 213.536
L190.891 193.532
L190.966 197.362
L191.561 275.066
L191.858 315.128
L191.933 321.805
L192.082 348.002
L192.23 325.413
L192.528 248.953
L192.751 204.993
L192.974 227.111
L193.049 225.341
L193.272 198.578
L193.346 205.421
L193.644 261.09
L193.718 261.187
L193.793 264.975
L193.942 236
L194.165 202.103
L194.239 203.168
L194.314 208.31
L194.388 207.854
L194.537 196.27
L194.611 207.716
L194.909 287.176
L195.058 309.543
L195.504 276.559
L195.727 236.539
L196.025 263.454
L196.099 269.993
L196.322 325.303
L196.62 282.089
L196.843 201.73
L197.141 168.138
L197.215 169.562
L197.513 198.26
L197.736 257.192
L197.81 260.565
L197.959 254.469
L198.034 257.358
L198.182 268.555
L198.331 258.049
L198.48 284.937
L198.554 281.453
L198.629 272.799
L198.703 273.573
L198.778 278.578
L198.852 275.993
L199.075 246.05
L199.15 255.201
L199.224 252.132
L199.373 226.572
L199.522 254.717
L199.596 249.838
L199.67 238.405
L199.968 292.955
L200.117 286.167
L200.266 281.992
L200.414 292.54
L200.489 292.07
L200.638 273.421
L201.01 175.547
L201.754 236.041
L201.977 268.182
L202.2 254.662
L202.274 258.243
L202.721 327.045
L202.795 325.178
L203.316 268.472
L203.762 188.832
L203.837 185.957
L203.911 186.22
L204.06 195.468
L204.134 190.864
L204.209 191.445
L204.878 295.526
L204.953 295.567
L205.399 250.156
L205.622 257.565
L205.697 257.261
L205.846 251.372
L205.92 252.132
L206.069 250.1
L206.366 232.323
L206.515 246.561
L206.664 273.048
L206.813 269.081
L206.962 290.19
L207.036 288.586
L207.11 288.683
L207.259 292.775
L207.557 251.718
L207.854 187.906
L208.003 169.81
L208.375 209.651
L208.673 261.367
L209.119 296.383
L209.194 297.461
L209.417 284.55
L209.714 234.41
L209.789 232.364
L209.863 233.76
L209.938 238.322
L210.161 262.639
L210.235 267.284
L210.384 287.771
L210.458 286.527
L210.756 264.505
L211.054 209.872
L211.351 203.085
L211.426 203.624
L211.649 242.953
L211.723 242.013
L211.946 250.391
L212.095 271.389
L212.467 253.183
L212.542 246.395
L212.616 247.031
L212.69 245.331
L212.765 240.133
L212.839 245.455
L212.988 270.975
L213.062 268.472
L213.211 280.306
L213.286 278.412
L213.583 264.201
L213.732 281.453
L214.178 242.787
L214.253 245.58
L214.327 247.875
L214.402 247.515
L214.476 247.142
L214.55 249.16
L214.625 244.695
L214.922 197.887
L214.997 205.393
L215.146 234.064
L215.294 231.065
L215.369 229.143
L215.443 230.484
L215.518 234.092
L215.666 214.338
L216.187 262.196
L216.336 257.648
L216.782 302.479
L216.931 308.949
L217.08 325.234
L217.303 297.309
L217.898 184.879
L217.973 179.156
L218.122 155.06
L218.196 159.747
L218.494 226.724
L218.94 305.424
L219.014 315.184
L219.089 314.368
L219.238 273.159
L219.461 239.566
L219.61 221.733
L219.684 226.392
L219.907 260.579
L219.982 262.887
L220.205 297.13
L220.354 279.49
L220.502 282.034
L220.726 247.888
L221.023 180.496
L221.321 228.493
L221.544 274.901
L221.767 293.148
L221.842 288.351
L222.288 204.412
L222.362 203.79
L222.437 204.467
L222.586 198.067
L222.958 246.409
L223.255 318.723
L223.33 321.391
L223.404 317.99
L223.776 266.426
L223.85 269.661
L223.925 268.555
L224.074 258.284
L224.148 258.464
L224.222 260.261
L224.371 250.999
L224.446 251.842
L224.52 255.906
L224.669 239.442
L225.041 169.99
L225.115 173.529
L225.338 190.574
L225.785 274.03
L225.934 288.31
L226.082 296.024
L226.157 296.134
L226.231 299.134
L226.306 298.719
L226.901 227.291
L226.975 224.139
L227.198 243.644
L227.422 275.384
L227.719 328.662
L227.794 328.275
L228.314 214.96
L228.538 211.006
L228.686 225.618
L228.761 234.88
L228.835 234.023
L229.356 164.295
L229.654 219.591
L230.1 336.238
L230.398 353.573
L230.918 267.795
L231.216 208.255
L231.365 196.657
L231.514 144.416
L231.588 145.148
L231.737 174.262
L231.811 165.649
L231.886 172.631
L232.183 254.538
L232.555 319.773
L232.63 316.801
L232.853 257.482
L232.927 257.524
L233.15 274.14
L233.299 291.628
L233.374 289.651
L233.969 205.241
L234.043 206.029
L234.415 243.064
L234.713 294.24
L234.787 293.839
L234.862 289.43
L235.159 227.664
L235.308 200.002
L235.382 203.375
L235.531 198.786
L235.829 254.455
L235.903 254.095
L235.978 254.289
L236.201 274.914
L236.498 249.81
L236.573 253.252
L236.796 271.002
L236.87 272.053
L237.019 280.195
L237.094 279.338
L237.168 279.628
L237.317 287.508
L237.54 251.925
L237.763 219.715
L237.912 206.541
L238.061 191.03
L238.507 244.654
L238.582 243.216
L238.656 249.81
L238.805 284.232
L238.879 281.522
L238.954 282.587
L239.102 310.359
L239.326 268.735
L239.549 224.789
L239.623 227.609
L239.772 216.328
L239.995 240.52
L240.07 245.525
L240.144 240.493
L240.218 241.267
L240.516 274.14
L240.739 249.851
L240.888 231.272
L240.962 236.857
L241.26 280.61
L241.483 286.817
L241.781 263.44
L241.855 257.22
L241.93 260.206
L242.004 263.745
L242.302 252.119
L242.748 165.096
L242.897 151.715
L243.12 193.767
L243.79 351.237
L243.938 382.755
L244.013 381
L244.31 352.826
L244.831 164.239
L244.98 160.521
L245.129 161.958
L245.426 182.639
L245.575 199.491
L245.65 199.421
L246.096 280.734
L246.319 326.008
L246.617 346.578
L246.691 343.329
L246.914 288.655
L247.212 219.079
L247.435 187.395
L248.03 244.073
L248.105 243.257
L248.328 223.392
L248.402 226.987
L248.551 262.514
L248.774 303.005
L248.849 298.415
L248.923 299.632
L248.998 306.502
L249.072 298.125
L249.444 211.988
L249.667 181.782
L249.742 177.759
L249.89 204.592
L250.262 279.628
L250.411 296.964
L250.486 295.512
L250.56 292.25
L250.634 293.604
L250.783 321.847
L250.858 317.423
L251.081 274.223
L251.155 274.513
L251.75 152.171
L251.825 153.706
L252.569 322.344
L252.718 328.469
L252.792 326.271
L252.941 314.078
L253.536 190.74
L253.61 197.113
L253.685 204.481
L253.982 170.889
L254.057 178.796
L254.206 216.522
L254.28 217.393
L255.098 362.503
L255.173 357.001
L255.396 307.857
L255.842 131.905
L255.917 121.565
L256.438 181.298
L256.661 254.552
L256.81 290.632
L257.033 345.97
L257.182 352.661
L257.256 358.01
L257.33 353.061
L257.479 336.224
L257.554 341.173
L257.702 313.152
L257.926 233.332
L258.223 143.324
L258.372 127.841
L258.446 128.131
L258.595 145.176
L258.967 236.055
L259.265 336.307
L259.414 359.89
L259.488 361.245
L259.637 338.104
L259.86 254.137
L260.083 204.426
L260.158 204.108
L260.232 205.767
L260.381 217.545
L260.604 246.409
L260.678 243.686
L261.125 202.007
L261.199 208.532
L261.72 341.214
L261.869 351.14
L261.943 360.955
L262.018 355.964
L262.241 286.9
L262.613 115.302
L262.687 104.741
L262.836 117.017
L262.985 156.664
L263.431 328.469
L263.506 327.764
L263.58 325.206
L263.654 327.266
L263.952 317.561
L264.101 283.955
L264.25 257.372
L264.324 259.584
L264.398 254.317
L264.696 216.024
L264.845 214.268
L264.994 214.061
L265.068 216.715
L265.217 230.373
L265.366 218.609
L265.514 234.452
L265.886 285.656
L266.035 288.973
L266.258 279.297
L266.407 286.9
L266.705 269.661
L267.374 154.411
L267.449 162.166
L268.044 318.211
L268.193 308.368
L268.342 300.475
L268.416 300.295
L268.565 286.25
L268.639 287.425
L268.714 291.406
L268.862 284.481
L269.011 288.241
L269.234 252.45
L269.606 161.392
L269.755 145.757
L270.127 256.943
L270.276 305.258
L270.35 304.014
L270.499 328.275
L270.574 325.441
L270.722 297.378
L271.02 216.066
L271.094 213.84
L271.243 225.715
L271.392 221.056
L271.69 244.75
L271.987 264.602
L272.359 254.773
L272.434 255.34
L272.582 249.105
L272.731 252.229
L273.029 275.315
L273.103 275.564
L273.326 269.965
L273.55 280.61
L273.698 267.947
L273.922 217.572
L274.145 173.515
L275.112 303.475
L275.186 299.853
L275.335 288.863
L275.558 301.996
L275.633 293.591
L275.707 295.609
L275.782 292.927
L276.079 215.831
L276.302 178.478
L276.377 180.372
L276.674 198.025
L277.27 298.54
L277.344 298.927
L277.493 292.623
L277.567 291.558
L277.716 303.807
L277.79 301.373
L277.939 274.513
L278.014 274.666
L278.088 276.877
L278.609 187.671
L278.683 188.528
L278.832 185.072
L278.906 190.229
L279.055 209.554
L279.13 206.679
L279.204 211.918
L279.576 307.138
L279.65 304.94
L279.948 337.509
L280.32 277.181
L280.618 217.047
L280.692 218.582
L280.766 215.153
L280.99 187.284
L281.064 186.731
L281.213 192.786
L281.436 227.913
L281.659 275.163
L281.734 277.334
L281.957 298.111
L282.031 294.351
L282.18 264.049
L282.254 264.602
L282.329 266.178
L282.552 248.358
L282.626 248.524
L282.775 256.819
L283.073 216.093
L283.222 222.673
L283.296 222.051
L283.594 248.193
L283.668 242.594
L283.742 244.93
L283.966 269.993
L284.189 265.072
L284.263 266.454
L284.338 263.938
L284.561 228.01
L284.933 258.035
L285.082 283.789
L285.23 280.154
L285.379 296.286
L285.677 259.777
L285.9 222.563
L285.974 223.807
L286.049 224.954
L286.198 220.144
L286.272 226.904
L286.421 261.118
L286.495 259.805
L287.016 202.214
L287.09 205.891
L287.239 221.222
L287.388 207.356
L288.058 346.896
L288.132 338.076
L288.206 321.377
L288.281 323.727
L288.355 329.464
L288.43 328.206
L288.504 320.852
L289.025 173.225
L289.099 173.46
L289.248 176.377
L289.546 220.959
L289.694 214.061
L290.364 270.698
L290.438 266.896
L290.513 261.533
L290.587 264.27
L290.662 263.98
L290.736 263.053
L290.81 265.307
L291.108 289.568
L291.182 288.572
L291.331 284.384
L291.48 271.873
L291.554 272.882
L291.629 273.919
L291.778 260.759
L291.926 263.385
L292.075 252.049
L292.224 235.35
L292.373 237.714
L292.522 218.817
L292.67 226.613
L292.745 221.07
L292.894 182.307
L292.968 184.906
L293.117 197.68
L293.266 184.27
L293.34 193.145
L293.786 308.963
L293.861 315.363
L293.935 312.861
L294.01 310.954
L294.158 312.239
L294.233 312.737
L294.456 267.671
L294.53 273.795
L294.605 279.518
L294.754 249.437
L294.828 249.561
L294.902 257.938
L294.977 255.962
L295.126 232.945
L295.2 236.815
L295.274 235.35
L295.423 216.287
L295.498 217.614
L295.572 219.853
L295.646 219.287
L295.721 219.701
L295.944 232.281
L296.018 227.332
L296.093 229.115
L296.465 270.435
L296.539 266.509
L296.837 218.913
L297.358 285.158
L297.432 284.605
L297.581 272.827
L297.73 277.845
L297.953 265.804
L298.027 271.431
L298.102 286.734
L298.176 286.001
L298.325 266.91
L298.399 274.375
L298.846 201.343
L298.92 206.002
L298.994 205.158
L299.069 211.614
L299.218 243.147
L299.441 211.407
L299.515 214.324
L299.59 205.241
L299.664 206.237
L299.962 269.412
L300.036 271.016
L300.259 289.153
L300.334 288.324
L300.482 299.48
L300.557 304.677
L300.631 301.539
L300.78 277.762
L300.929 287.19
L301.152 235.765
L301.226 241.585
L301.301 256.542
L301.375 253.377
L301.45 240.728
L301.598 259.584
L301.673 251.773
L301.747 240.548
L301.822 240.907
L301.896 239.815
L302.045 230.539
L302.268 179.321
L302.342 180.455
L302.417 184.381
L302.64 164.295
L303.384 314.769
L303.607 297.765
L303.756 304.954
L303.83 303.295
L303.979 321.211
L304.128 304.885
L304.946 202.56
L305.17 193.367
L305.616 240.493
L305.69 237.7
L305.839 220.282
L306.286 276.808
L306.583 287.577
L306.658 292.72
L306.732 289.167
L306.881 269.412
L306.955 271.113
L307.03 269.357
L307.699 210.785
L307.848 233.304
L307.997 254.165
L308.071 250.252
L308.146 250.474
L308.22 250.764
L308.294 248.981
L308.666 225.867
L309.187 304.995
L309.336 272.965
L309.41 273.587
L309.485 273.947
L309.634 265.542
L309.708 269.647
L309.857 234.645
L310.006 210.923
L310.08 209.14
L310.378 222.051
L310.824 254.552
L310.973 263.399
L311.047 261.173
L311.122 260.772
L311.27 267.657
L311.345 267.836
L311.419 269.412
L311.494 266.827
L311.791 229.447
L311.94 206.098
L312.014 207.923
L312.163 233.636
L312.238 233.028
L312.312 234.922
L312.535 280.043
L312.758 303.945
L312.833 302.659
L313.056 279.684
L313.428 248.649
L313.577 229.682
L313.726 248.787
L313.949 230.443
L314.023 231.562
L314.098 240.714
L314.172 239.248
L314.246 235.074
L314.395 239.732
L314.47 237.106
L314.544 239.566
L314.693 262.708
L314.767 257.012
L314.842 257.952
L314.916 256.238
L315.288 211.379
L315.437 200.901
L315.586 225.12
L315.66 224.166
L315.734 220.144
L315.883 241.709
L316.106 265.307
L316.181 267.422
L316.553 308.866
L316.702 339.638
L316.776 340.219
L316.925 307.608
L317.52 190.712
L317.594 198.426
L317.743 227.871
L317.818 218.568
L317.892 219.079
L317.966 220.766
L318.19 204.481
L318.264 204.619
L318.338 207.854
L318.487 195.869
L318.785 215.831
L319.306 335.035
L319.38 330.114
L319.975 248.054
L320.347 171.732
L320.496 199.864
L320.719 254.012
L320.942 321.529
L321.017 322.013
L321.091 320.672
L321.166 321.432
L321.24 323.589
L321.314 321.819
L321.389 312.999
L321.91 177.11
L322.133 202.67
L322.207 198.689
L322.356 200.666
L322.43 196.629
L322.505 199.726
L323.1 304.885
L323.249 310.719
L323.398 305.576
L323.77 280.9
L323.844 281.177
L323.918 283.527
L324.142 259.335
L324.439 172.976
L324.588 182.515
L324.662 180.068
L324.737 181.395
L325.183 266.247
L325.332 284.453
L325.481 273.864
L325.704 299.728
L325.778 298.664
L325.853 297.047
L326.002 276.946
L326.299 232.295
L326.374 232.018
L326.671 252.492
L326.746 265.735
L326.82 263.662
L327.192 226.793
L327.341 216.453
L327.49 238.018
L327.862 304.277
L328.085 288.642
L328.68 165.732
L328.754 159.995
L329.126 235.004
L329.424 295.733
L329.722 333.39
L330.391 218.526
L330.54 189.897
L330.614 187.768
L330.689 190.864
L331.21 279.739
L331.358 280.444
L331.73 257.482
L331.954 222.397
L332.028 223.641
L332.177 216.923
L332.326 238.322
L332.4 235.115
L332.474 236.027
L332.623 270.546
L332.772 253.529
L332.846 256.846
L332.921 260.496
L333.144 230.194
L333.367 248.027
L333.59 295.153
L333.739 291.351
L334.037 253.418
L334.111 255.478
L334.186 260.745
L334.334 246.465
L334.483 235.944
L334.558 234.756
L334.706 213.716
L334.855 229.268
L335.004 196.85
L335.078 198.053
L335.599 330.984
L335.674 323.229
L336.194 174.829
L336.418 168.76
L336.492 162.193
L336.566 169.23
L336.79 215.803
L336.864 224.125
L337.31 343.316
L337.385 351.748
L337.831 295.415
L338.054 284.176
L338.501 202.49
L338.724 212.029
L338.873 202.781
L339.17 220.724
L339.468 269.385
L339.84 308.659
L339.989 287.259
L340.658 161.751
L340.733 157.272
L340.882 174.898
L341.03 207.979
L341.328 308.161
L341.626 347.297
L341.7 337.841
L341.923 314.838
L341.998 312.751
L342.444 237.161
L342.742 171.912
L342.816 171.773
L342.89 169.575
L342.965 173.515
L343.337 257.427
L343.486 289.817
L343.634 317.866
L343.709 316.76
L343.932 263.275
L344.081 237.299
L344.155 241.792
L344.527 182.722
L344.602 184.754
L344.899 233.774
L345.271 312.82
L345.494 344.753
L345.569 341.283
L345.643 338.256
L345.792 295.996
L346.09 206.181
L346.313 185.197
L346.387 190.007
L346.536 203.389
L346.61 201.302
L346.834 210.647
L346.908 207.191
L346.982 209.002
L347.057 206.969
L347.206 195.883
L347.578 263.247
L347.95 353.366
L348.173 370.77
L348.322 335.616
L348.842 146.503
L348.917 138.029
L349.066 147.443
L349.14 148.922
L349.661 296.079
L349.735 289.858
L349.958 263.675
L350.033 260.026
L350.256 245.386
L350.777 329.091
L350.851 328.151
L351.446 187.892
L351.521 193.615
L351.67 207.647
L351.744 207.025
L352.265 293.853
L352.339 291.31
L352.711 230.111
L353.009 153.927
L353.083 153.042
L353.158 159.553
L353.753 316.041
L353.827 327.611
L354.497 262.86
L354.571 263.855
L354.646 269.274
L354.72 263.219
L354.869 231.148
L355.092 253.501
L355.241 252.423
L355.315 254.358
L355.39 252.727
L355.687 212.789
L355.762 220.683
L355.91 229.461
L356.208 267.684
L356.431 254.234
L356.506 255.436
L356.729 287.356
L357.25 230.567
L357.473 233.816
L357.77 265.804
L357.919 252.533
L358.142 228.258
L358.291 237.617
L358.44 220.641
L358.514 225.742
L358.589 221.872
L358.886 195.551
L359.184 260.427
L359.333 284.674
L359.407 283.651
L359.556 304.028
L359.63 303.959
L359.779 286.333
L360.002 264.035
L360.077 266.565
L360.151 264.906
L360.3 250.059
L360.374 253.667
L360.523 280.085
L360.598 277.071
L360.895 234.991
L360.97 235.723
L361.193 253.446
L361.267 246.285
L361.49 200.749
L361.565 205.103
L362.011 262.805
L362.16 272.979
L362.532 254.123
L362.606 253.556
L362.681 254.538
L362.755 251.676
L362.83 252.934
L362.904 252.741
L363.127 214.808
L363.276 230.608
L363.35 229.71
L363.425 236.663
L363.574 281.439
L363.648 277.375
L363.871 268.721
L363.946 270.905
L364.02 269.247
L364.243 252.602
L364.318 265.86
L364.392 260.289
L364.69 195.813
L364.764 193.215
L365.21 284.204
L365.285 283.112
L365.434 264.961
L365.508 267.698
L365.657 277.707
L365.806 271.984
L365.954 275.564
L366.178 248.137
L366.252 256.611
L366.326 253.307
L366.55 190.049
L366.624 193.339
L366.698 202.435
L366.773 195.274
L366.847 198.039
L367.368 290.95
L367.442 286.195
L367.517 288.669
L367.666 302.714
L367.814 279.338
L367.889 282.6
L368.038 305.673
L368.112 303.599
L368.558 241.861
L368.707 250.709
L368.782 244.502
L369.079 187.768
L369.228 172.078
L369.451 196.878
L369.526 194.016
L369.674 220.268
L369.972 311.603
L370.046 311.465
L370.195 296.3
L370.27 300.668
L370.344 297.254
L370.567 268.846
L370.642 271.859
L370.716 268.652
L370.939 233.719
L371.014 234.12
L371.162 247.418
L371.237 246.216
L371.311 241.543
L371.386 243.603
L371.46 247.183
L371.609 231.037
L371.758 251.206
L371.981 236.967
L372.055 238.046
L372.204 242.815
L372.353 230.304
L372.427 231.77
L372.725 251.884
L372.799 247.211
L373.022 258.27
L373.394 289.969
L373.543 277.721
L373.692 260.551
L373.99 274.126
L374.064 275.136
L374.138 271.804
L374.287 246.962
L374.436 252.243
L374.957 179.1
L375.031 174.165
L375.254 202.131
L375.552 266.509
L375.85 337.592
L375.924 333.39
L376.147 313.055
L376.37 261.574
L376.519 256.224
L376.817 220.171
L377.04 205.006
L377.189 204.329
L377.338 208.338
L377.486 199.449
L377.561 200.818
L377.784 225.176
L378.156 298.802
L378.23 295.263
L378.305 290.729
L378.379 290.923
L378.454 292.305
L378.677 276.366
L378.751 280.499
L378.826 287.162
L378.9 281.909
L379.049 259.293
L379.198 267.532
L379.346 257.759
L379.495 264.864
L379.57 261.547
L379.718 252.644
L379.867 242.469
L380.016 222.438
L380.09 222.729
L380.388 241.101
L380.462 241.101
L380.76 206.071
L380.909 220.531
L380.983 216.01
L381.058 211.628
L381.653 279.697
L381.727 289.056
L381.802 288.517
L381.95 291.144
L382.025 290.992
L382.248 307.083
L382.322 314.423
L382.397 309.336
L382.992 177.234
L383.141 163.493
L383.215 163.852
L383.662 215.817
L383.959 291.738
L384.108 302.189
L384.257 322.151
L384.331 320.672
L384.406 318.211
L384.778 339.5
L385.001 294.434
L385.67 140.324
L385.745 145.618
L386.117 232.53
L386.414 297.116
L386.638 267.671
L386.786 286.872
L387.084 261.381
L387.158 261.118
L387.233 262.473
L387.307 262.417
L387.605 252.92
L387.679 253.335
L387.828 264.878
L388.274 239.47
L388.349 236.428
L388.572 262.86
L388.721 250.474
L388.795 251.483
L389.242 189.855
L389.762 243.52
L390.283 346.647
L390.358 339.638
L391.399 206.721
L391.474 204.993
L391.622 179.695
L391.697 182.501
L391.92 217.407
L391.994 213.536
L392.292 258.035
L392.366 255.851
L392.441 253.985
L392.59 237.783
L392.664 239.414
L392.813 279.034
L393.036 259.39
L393.11 259.694
L393.408 254.358
L393.482 256.321
L393.631 275.039
L393.78 246.769
L393.929 263.966
L394.003 256.667
L394.078 245.939
L394.226 272.468
L394.301 271.624
L394.375 259.114
L394.45 260.855
L394.524 269.053
L394.598 264.256
L394.822 222.922
L394.896 224.084
L394.97 221.319
L395.268 191.887
L395.417 217.434
L395.789 278.439
L395.938 290.024
L396.086 313.442
L396.161 311.465
L396.31 322.621
L396.384 317.866
L396.533 300.917
L396.607 300.005
L397.277 180.303
L397.426 170.571
L397.649 182.003
L397.946 229.06
L398.244 301.664
L398.318 297.613
L398.393 289.153
L398.542 302.396
L398.765 282.656
L398.914 291.296
L399.062 272.136
L399.137 272.965
L399.211 276.076
L399.36 246.368
L399.583 205.338
L399.806 178.741
L400.104 212.969
L400.625 285.296
L400.699 294.627
L400.848 278.163
L400.922 280.015
L400.997 289.416
L401.22 259.625
L401.294 260.109
L401.443 265.182
L401.666 228.894
L401.741 230.525
L401.89 243.147
L402.187 286.001
L402.336 307.553
L402.41 305.203
L402.857 191.238
L402.931 185.957
L403.154 229.973
L403.303 205.518
L403.452 229.088
L403.75 302.922
L403.898 296.853
L404.047 277.375
L404.345 204.592
L404.419 208.048
L404.791 243.714
L404.94 269.869
L405.089 254.178
L405.238 279.753
L405.312 279.352
L405.684 218.54
L405.833 223.448
L405.907 217.489
L406.056 236.815
L406.13 236.65
L406.205 232.765
L406.279 235.723
L406.949 299.687
L407.023 303.184
L407.395 276.283
L407.47 273.173
L407.693 234.037
L407.767 239.843
L407.842 255.063
L407.916 246.257
L408.065 218.623
L408.288 243.147
L408.437 234.161
L408.66 216.771
L408.734 219.522
L409.032 261.92
L409.255 223.586
L409.33 225.991
L409.478 233.028
L409.85 293.798
L409.925 290.204
L410.148 267.131
L410.222 267.422
L410.371 254.496
L410.52 225.203
L410.669 195.288
L410.892 230.429
L410.966 234.369
L411.19 285.614
L411.264 279.822
L411.562 235.792
L411.785 217.904
L411.934 219.383
L412.008 222.217
L412.454 281.854
L412.678 244.018
L412.752 245.76
L412.901 240.493
L413.05 260.772
L413.347 352.771
L413.57 281.121
L413.794 249.976
L413.868 248.925
L413.942 254.026
L414.017 250.888
L414.166 212.126
L414.24 215.126
L414.314 217.324
L414.389 211.462
L414.538 230.29
L414.612 230.277
L414.761 203.693
L414.91 217.517
L415.058 191.915
L415.133 202.504
L415.43 319.981
L415.505 329.008
L415.654 301.733
L416.026 210.66
L416.1 212.872
L416.174 210.799
L416.323 199.311
L416.546 220.365
L416.993 277.541
L417.142 239.013
L417.216 245.704
L417.439 281.329
L417.588 250.487
L417.662 252.354
L418.109 296.203
L418.258 327.999
L418.332 319.649
L418.63 242.069
L418.778 232.972
L418.853 233.981
L419.002 240.893
L419.076 240.949
L419.225 230.221
L419.448 270.518
L419.746 233.705
L419.894 224.471
L420.043 212.941
L420.192 199.034
L420.266 200.859
L420.415 222.3
L420.638 267.366
L420.713 274.417
L420.787 272.509
L421.01 266.883
L421.159 284.868
L421.382 257.51
L421.606 196.394
L421.68 196.518
L422.275 281.965
L422.498 247.861
L422.573 251.344
L422.722 241.405
L422.796 233.885
L422.87 236.11
L422.945 243.755
L423.019 240.88
L423.094 236.484
L423.242 270.269
L423.317 282.49
L423.391 277.043
L423.54 264.892
L423.689 260.178
L423.763 260.8
L423.986 286.609
L424.061 287.646
L424.433 261.464
L424.507 264.394
L424.656 260.607
L424.73 263.136
L425.177 191.763
L425.251 194.721
L425.549 248.11
L425.623 241.322
L425.698 232.668
L425.772 235.447
L426.144 273.186
L426.367 254.842
L426.739 276.96
L426.814 278.771
L426.962 261.104
L427.26 219.992
L427.409 228.618
L427.483 229.544
L427.706 262.293
L427.855 224.664
L427.93 227.567
L428.376 288.407
L428.674 215.623
L428.748 214.199
L428.822 218.761
L429.046 250.985
L429.864 300.212
L430.385 257.344
L430.459 256.031
L430.608 217.116
L430.831 168.317
L430.906 164.322
L431.352 256.625
L431.426 261.215
L431.501 258.27
L431.575 262.141
L431.724 302.936
L431.798 302.231
L431.873 298.374
L432.022 314.078
L432.245 265.943
L432.468 258.657
L432.617 237.465
L432.766 246.16
L432.84 241.958
L433.212 179.778
L433.286 177.11
L433.361 170.336
L433.435 172.299
L434.179 286.374
L434.328 307.428
L434.402 324.1
L434.477 323.506
L434.7 271.555
L434.774 273.947
L434.923 270.187
L435.146 253.93
L435.37 283.845
L435.593 269.15
L435.965 208.532
L436.039 213.342
L436.188 220.489
L436.56 283.029
L436.634 274.928
L436.783 233.65
L436.932 253.764
L437.155 268.044
L437.304 251.552
L437.527 267.643
L437.676 260.15
L437.825 268.721
L437.899 264.533
L438.346 211.089
L438.42 209.513
L438.569 235.461
L438.718 213.785
L438.792 216.66
L439.015 232.018
L439.09 231.175
L439.238 225.259
L439.462 231.231
L439.536 228.521
L439.685 251.123
L439.759 241.654
L439.982 313.898
L440.057 308.092
L440.206 290.84
L440.503 308.797
L440.578 307.954
L440.726 312.875
L440.875 284.633
L441.247 204.923
L441.396 210.577
L441.47 212.485
L441.545 212.14
L441.694 204.329
L441.991 240.921
L442.14 283.264
L442.363 256.238
L442.438 258.381
L442.661 253.833
L442.735 256.28
L442.884 263.814
L442.958 262.818
L443.033 268.071
L443.107 267.007
L443.33 224.623
L443.405 232.696
L443.628 263.966
L443.702 269.468
L443.851 252.672
L444.149 189.62
L444.223 197.168
L444.446 236.967
L444.744 249.216
L444.818 249.133
L445.116 235.958
L445.265 249.464
L445.414 239.47
L445.562 264.436
L445.86 321.557
L446.083 355.702
L446.678 218.098
L446.753 220.448
L446.902 198.813
L447.05 186.385
L447.199 217.545
L447.274 238.115
L447.348 233.995
L447.571 209.375
L447.794 180.234
L448.39 312.322
L448.464 317.948
L448.762 370.162
L448.836 375.802
L448.985 318.985
L449.282 205.822
L449.431 194.901
L449.506 197.928
L449.58 195.551
L449.803 156.692
L449.878 164.391" style="fill:none;stroke:#808080;stroke-linecap:square;"/>
   </g>
  </g>
 </g>
 <defs>
  <clipPath id="p7ff5b81e1d">
   <rect height="345.6" width="446.4" x="72.0" y="43.2"/>
  </clipPath>
 </defs>
</svg>
