<?xml version="1.0" encoding="utf-8" standalone="no"?>
<!DOCTYPE svg PUBLIC "-//W3C//DTD SVG 1.1//EN"
  "http://www.w3.org/Graphics/SVG/1.1/DTD/svg11.dtd">
<!-- Created with matplotlib (http://matplotlib.org/) -->
<svg height="432pt" version="1.1" viewBox="0 0 576 432" width="576pt" xmlns="http://www.w3.org/2000/svg" xmlns:xlink="http://www.w3.org/1999/xlink">
 <defs>
  <style type="text/css">
*{stroke-linecap:butt;stroke-linejoin:round;}
  </style>
 </defs>
 <g id="figure_1">
  <g id="patch_1">
   <path d="
M0 432
L576 432
L576 0
L0 0
z
" style="fill:#ffffff;"/>
  </g>
  <g id="axes_1">
   <g id="line2d_1">
    <path clip-path="url(#p7ff5b81e1d)" d="
M72 252.678
L72.0744 253.211
L72.2232 256.776
L72.2976 256.035
L72.372 255.996
L72.4464 251.957
L72.5952 232.14
L72.6696 232.377
L72.8184 241.105
L72.9672 238.015
L73.0416 241.175
L73.2648 214.889
L73.3392 222.167
L73.488 240.167
L73.7112 274.076
L73.86 278.687
L74.3808 197.145
L74.4552 203.968
L74.7528 243.989
L74.8272 246.586
L74.976 269.761
L75.0504 283.101
L75.1248 279.951
L75.348 238.953
L75.4968 247.692
L75.72 228.052
L76.0176 191.487
L76.1664 210.485
L76.464 247.129
L76.6128 238.765
L76.6872 240.513
L76.836 234.095
L77.4312 265.89
L77.5056 265.268
L77.6544 262.385
L77.8776 266.749
L77.952 262.661
L78.1752 232.633
L78.2496 230.352
L78.4728 247.514
L78.6216 244.611
L78.696 243.841
L78.9192 235.842
L79.068 241.224
L79.1424 241.254
L79.3656 253.606
L79.5144 251.217
L79.5888 251.809
L79.6632 251.108
L79.812 228.822
L80.0352 198.557
L80.1096 197.204
L80.184 199.505
L80.3328 230.649
L80.4816 251.839
L80.556 250.397
L80.7048 264.024
L80.7792 260.311
L81.4488 197.155
L81.672 223.746
L82.044 288.66
L82.1184 289.203
L82.3416 283.17
L82.416 282.044
L82.6392 292.738
L83.3832 194.025
L83.4576 191.853
L83.6064 181.692
L84.0528 234.825
L84.1272 236.03
L84.2016 235.912
L84.4992 250.901
L84.5736 253.942
L84.7224 269.198
L84.8712 262.592
L85.0944 280.109
L85.2432 262.75
L85.4664 241.254
L85.5408 242.646
L85.764 249.321
L85.9128 238.311
L85.9872 231.972
L86.0616 233.186
L86.136 232.633
L86.2104 235.201
L86.4336 261.841
L86.88 206.318
L86.9544 208.155
L87.1032 222.966
L87.1776 222.552
L87.252 221.782
L87.4008 231.606
L87.4752 227.301
L87.5496 221.209
L87.624 225.168
L87.7728 240.414
L87.9216 238.262
L87.996 240.829
L88.1448 232.999
L88.2192 233.374
L88.2936 233.66
L88.5912 256.381
L88.8144 294.94
L89.2608 244.581
L89.3352 242.853
L89.484 249.933
L89.5584 248.047
L89.7072 237.057
L90.0048 248.807
L90.4512 212.51
L90.7488 233.522
L90.8976 237.827
L91.1208 236.83
L91.1952 235.023
L91.344 237.383
L91.6416 229.513
L92.088 259.896
L92.1624 261.131
L92.2368 260.824
L92.3856 246.684
L92.6088 223.322
L92.6832 221.989
L92.7576 225.001
L92.832 223.717
L92.9064 222.72
L93.1296 235.734
L93.2784 223.036
L93.3528 224.507
L93.4272 223.569
L93.5016 220.498
L93.576 224.27
L93.8736 251.928
L93.948 249.183
L94.0224 254.535
L94.32 297.636
L94.4688 284.493
L94.5432 285.036
L94.9896 220.695
L95.064 221.406
L95.2128 206.052
L95.2872 199.081
L95.5104 224.319
L95.6592 236.642
L95.7336 237.235
L96.18 214.603
L96.2544 215.057
L96.3288 208.757
L96.4032 209.458
L96.7008 252.787
L97.0728 287.584
L97.1472 288.542
L97.2216 285.086
L97.296 285.293
L97.3704 286.586
L97.5936 279.813
L97.9656 218.74
L98.1144 211.009
L98.2632 186.027
L98.3376 191.665
L98.784 275.29
L98.8584 270.491
L99.6024 149.828
L99.7512 169.586
L99.9744 240.691
L100.198 319.922
L100.272 323.763
L100.346 323.536
L100.57 310.956
L101.239 218.553
L101.462 183.963
L101.686 202.635
L101.909 182.679
L101.983 188.95
L102.504 318.016
L102.578 320.169
L103.322 215.324
L103.546 222.028
L103.62 220.863
L103.918 199.624
L104.438 234.233
L104.513 234.391
L104.587 231.32
L104.662 231.873
L105.331 282.864
L105.48 257.28
L105.554 261.516
L105.703 281.57
L105.852 265.949
L106.075 226.255
L106.224 195.536
L106.298 195.911
L106.67 229.227
L106.968 248.235
L107.34 285.925
L107.414 280.139
L107.638 255.986
L107.712 248.541
L107.935 204.452
L108.01 203.159
L108.233 185.444
L108.382 191.388
L108.679 267.45
L108.828 270.235
L109.2 296.599
L109.274 305.91
L109.349 304.311
L109.498 280.139
L109.795 191.932
L109.87 194.489
L110.093 219.718
L110.242 221.13
L110.39 207.938
L110.465 198.281
L110.539 199.357
L110.614 200.878
L110.837 214.682
L111.134 260.35
L111.209 259.768
L111.283 258.04
L111.432 250.032
L111.581 266.305
L111.73 289.796
L111.804 289.578
L111.953 265.288
L112.176 205.677
L112.25 202.151
L112.325 204.511
L112.474 225.465
L112.771 265.041
L112.846 263.175
L113.292 207
L113.366 195.407
L113.441 196.75
L113.962 264.695
L114.036 264.35
L114.11 265.613
L114.259 271.587
L114.408 266.917
L114.557 251.612
L114.631 252.876
L114.706 254.149
L114.854 242.429
L115.152 218.247
L115.673 268.033
L115.822 260.113
L115.896 255.137
L115.97 255.236
L116.045 256.233
L116.863 194.647
L116.938 199.278
L117.012 197.037
L117.235 173.713
L117.31 175.175
L117.533 216.064
L117.979 314.086
L118.128 293.459
L118.5 256.885
L118.649 276.228
L118.723 283.061
L118.798 280.277
L119.095 257.27
L119.542 209.468
L119.988 227.894
L120.062 226.906
L120.137 230.599
L120.286 243.13
L120.509 219.659
L120.583 218.651
L120.806 192.327
L121.03 183.42
L121.104 188.347
L121.774 284.059
L121.997 301.398
L122.071 299.867
L122.22 293.39
L122.294 293.953
L122.369 291.119
L122.592 266.068
L122.666 270.195
L122.741 265.959
L123.038 220.942
L123.336 202.339
L123.41 203.346
L123.559 213.813
L124.08 250.95
L124.154 253.409
L124.303 269.761
L124.452 251.878
L124.601 230.234
L124.898 249.084
L124.973 246.961
L125.196 265.534
L125.345 248.294
L125.419 248.837
L125.568 225.238
L125.866 164.422
L126.014 176.626
L126.386 265.376
L126.461 267.973
L126.758 287.87
L127.502 232.92
L127.577 228.17
L127.651 230.086
L127.874 246.813
L128.023 243.12
L128.098 245.282
L128.395 218.681
L128.47 220.36
L128.842 249.084
L128.99 255.038
L129.065 254.426
L129.139 252.283
L129.288 245.026
L129.437 258.929
L129.734 220.843
L129.809 224.823
L130.106 213.388
L130.255 214.218
L130.627 246.635
L130.702 247.109
L130.925 267.628
L130.999 264.843
L131.148 260.844
L131.222 262.019
L131.371 258.879
L131.446 259.965
L131.52 259.955
L131.594 257.823
L131.818 243.406
L131.966 252.303
L132.785 192.445
L132.934 198.113
L133.678 280.366
L133.752 280.711
L133.901 291.375
L134.124 275.458
L134.273 283.022
L135.017 208.984
L135.166 203.87
L135.24 199.762
L135.389 184.822
L135.463 188.081
L136.058 256.875
L136.207 257.556
L136.505 273.444
L136.802 239.289
L136.877 239.535
L137.1 265.357
L137.174 262.582
L137.249 256.796
L137.323 257.546
L137.398 260.834
L137.472 260.133
L137.621 243.979
L137.695 242.833
L137.918 231.152
L138.067 206.348
L138.142 206.437
L138.365 210.94
L138.439 203.623
L138.662 227.163
L138.811 256.114
L138.96 251.71
L139.109 265.288
L139.332 250.466
L139.406 250.15
L139.63 235.102
L139.704 235.359
L139.778 239.091
L140.002 266.67
L140.076 266.117
L140.969 212.213
L141.266 228.526
L141.49 277.532
L141.862 214.257
L141.936 216.054
L142.01 214.8
L142.159 235.151
L142.382 267.529
L142.457 267.262
L142.606 258.642
L142.754 273.157
L142.978 229.414
L143.052 236.386
L143.275 249.637
L143.35 245.737
L143.573 211.848
L143.647 217.062
L143.796 221.189
L143.945 214.326
L144.019 216.696
L144.317 267.233
L144.391 261.377
L144.614 222.344
L144.689 228.634
L144.763 238.202
L144.838 235.141
L144.986 203.504
L145.582 278.825
L145.656 274.599
L145.879 237.185
L146.028 268.566
L146.102 265.465
L146.251 245.223
L146.4 250.397
L146.623 221.09
L146.698 225.03
L146.772 227.864
L146.846 224.457
L146.995 227.035
L147.144 221.594
L147.293 226.798
L147.442 249.568
L147.516 247.257
L147.739 194.282
L147.814 202.695
L147.888 213.764
L147.962 212.618
L148.037 209.409
L148.334 275.28
L148.409 273.819
L148.483 275.35
L148.632 287.525
L148.706 282.558
L148.93 244.295
L149.004 245.253
L149.302 273.424
L149.376 288.729
L149.45 282.489
L149.748 201.717
L149.822 204.847
L149.971 181.603
L150.046 186.007
L150.418 259.62
L150.492 242.29
L150.566 244.789
L150.641 247.711
L150.715 245.312
L151.162 207.385
L151.236 207.78
L151.385 243.179
L151.534 272.743
L151.682 254.189
L151.757 259.353
L151.906 282.311
L152.724 209.597
L152.873 212.164
L153.022 235.033
L153.096 244.759
L153.17 234.292
L153.245 238.825
L153.394 256.766
L153.542 247.721
L153.766 205.499
L153.84 205.282
L154.212 271.933
L154.286 271.963
L154.361 271.785
L154.435 272.427
L154.658 244.64
L154.733 248.669
L155.03 237.61
L155.254 194.607
L155.402 219.935
L155.551 246.438
L155.626 246.447
L155.774 267.055
L155.849 264.824
L155.998 265.722
L156.072 265.288
L156.221 245.816
L156.444 217.753
L156.965 244.611
L157.039 243.752
L157.114 234.885
L157.337 173.378
L157.486 215.215
L157.783 286.073
L157.858 295.503
L157.932 294.506
L158.081 277.69
L158.155 276.752
L158.23 267.875
L158.304 268.131
L158.378 270.373
L158.75 210.377
L158.825 206.733
L158.899 212.638
L159.122 245.796
L159.197 247.099
L159.42 227.765
L159.494 230.155
L159.569 230.155
L159.718 238.38
L159.941 266.808
L160.015 261.506
L160.238 239.358
L160.313 239.98
L160.536 246.754
L160.61 248.067
L160.759 257.517
L160.908 247.237
L161.057 258.721
L161.131 249.41
L161.354 196.493
L161.429 195.654
L161.652 233.542
L161.726 229.948
L161.875 203.119
L162.024 242.646
L162.098 261.081
L162.322 213.329
L162.396 216.114
L162.768 270.284
L162.842 274.293
L162.917 273.622
L162.991 272.97
L163.14 294.121
L163.438 247.247
L163.661 237.58
L163.958 188.574
L164.033 194.035
L164.256 247.267
L164.33 246.556
L164.554 256.914
L164.702 274.313
L164.851 254.653
L165 230.481
L165.074 232.367
L165.223 236.86
L165.298 236.168
L165.446 216.509
L165.521 207.454
L165.595 208.678
L165.744 225.958
L165.893 255.502
L165.967 251.908
L166.116 221.09
L166.19 228.407
L166.414 297.251
L166.488 291.77
L166.711 235.102
L166.786 239.614
L167.009 194.993
L167.083 199.841
L167.158 202.388
L167.678 289.499
L167.753 286.725
L168.05 240.098
L168.125 231.34
L168.199 234.095
L168.348 263.915
L168.497 240.592
L168.794 262.306
L168.943 254.199
L169.315 181.968
L169.464 175.698
L169.613 198.616
L169.985 275.507
L170.059 272.437
L170.134 270.827
L170.208 272.17
L170.357 284.661
L170.431 280.751
L170.654 259.343
L170.729 259.422
L170.878 246.615
L171.026 206.397
L171.398 265.692
L171.547 272.358
L171.622 272.259
L171.919 170.08
L171.994 171.393
L172.366 260.765
L172.589 236.228
L172.812 287.603
L172.961 259.264
L173.184 206.022
L173.333 217.743
L173.63 175.461
L173.705 177.693
L173.854 229.059
L174.077 283.002
L174.151 280.682
L174.226 270.639
L174.3 275.33
L174.449 287.653
L174.672 246.23
L174.746 250.466
L174.97 290.408
L175.044 284.967
L175.342 206.624
L175.416 212.865
L175.565 229.049
L175.862 214.889
L175.937 216.39
L176.16 225.386
L176.234 224.161
L176.309 226.936
L176.532 249.38
L176.681 248.61
L176.904 215.729
L177.053 245.983
L177.202 271.173
L177.35 256.134
L177.499 236.623
L177.574 237.442
L177.722 247.771
L177.797 244.482
L177.946 226.857
L178.02 236.84
L178.094 233.808
L178.243 206.842
L178.466 246.803
L178.541 244.996
L178.764 249.41
L178.987 275.991
L179.21 254.337
L179.508 234.44
L179.657 218.938
L180.029 245.519
L180.178 239.141
L180.252 242.518
L180.401 267.292
L180.475 266.769
L180.698 228.328
L180.773 231.231
L180.847 231.498
L181.145 199.505
L181.219 209.537
L181.294 212.569
L181.368 200.739
L181.517 231.458
L181.591 246.151
L181.666 246.062
L181.889 223.48
L181.963 229.355
L182.186 278.44
L182.41 255.058
L182.484 256.569
L182.782 302.05
L182.856 298.08
L183.154 240.671
L183.302 246.507
L183.377 241.56
L183.451 245.213
L183.526 244.068
L183.674 217.684
L183.972 161.993
L184.046 157.214
L184.121 158.527
L184.567 248.482
L184.79 293.923
L184.865 292.304
L185.088 267.174
L185.237 270.393
L185.534 289.48
L185.609 286.093
L186.055 206.921
L186.13 209.518
L186.278 219.155
L186.502 203.475
L186.576 204.294
L187.171 260.153
L187.246 264.261
L187.32 262.918
L187.469 250.812
L187.543 250.308
L187.766 260.044
L188.287 243.149
L188.659 207.089
L188.734 206.585
L189.031 219.352
L189.18 234.164
L189.329 226.788
L189.626 264.251
L189.775 256.924
L189.998 239.071
L190.073 240.553
L190.147 238.133
L190.222 238.667
L190.594 277.581
L190.668 276.633
L190.742 272.585
L190.891 287.673
L190.966 285.609
L191.412 207.503
L191.486 208.343
L191.635 214.109
L191.71 214.613
L191.784 216.361
L192.156 207.276
L192.379 217.466
L192.454 214.791
L192.528 214.939
L193.123 275.725
L193.198 272.15
L193.272 276.801
L193.421 302.04
L193.495 301.22
L193.718 261.456
L193.942 218.118
L194.239 203.149
L194.314 203.287
L194.462 215.709
L194.537 215.185
L194.611 212.845
L195.058 243.762
L195.281 214.909
L195.43 238.084
L195.653 263.569
L195.727 266.848
L195.876 282.034
L196.322 239.842
L196.546 205.489
L196.62 203.662
L196.694 207.286
L196.843 240.651
L197.066 291.879
L197.141 290.763
L197.438 250.17
L197.736 201.668
L197.81 200.572
L198.182 247.139
L198.257 249.232
L198.331 247.553
L198.48 238.884
L198.554 240.138
L198.778 248.886
L199.001 237.926
L199.224 203.8
L199.298 205.825
L199.596 246.754
L199.67 244.147
L199.819 238.509
L199.968 248.225
L200.042 253.241
L200.117 253.182
L200.191 251.799
L200.414 260.795
L200.489 259.62
L200.712 237.067
L200.786 239.792
L201.01 264.369
L201.084 264.34
L201.382 232.594
L201.456 234.875
L201.605 244.058
L201.679 243.781
L201.902 230.876
L202.126 203.583
L202.2 205.716
L202.423 224.961
L202.572 219.254
L202.646 220.152
L202.795 242.764
L202.944 269.148
L203.093 260.716
L203.39 274.263
L203.465 273.473
L203.539 274.609
L203.688 265.702
L204.209 205.607
L204.283 206.378
L204.358 202.408
L204.432 204.887
L204.655 223.598
L204.804 212.194
L204.878 216.558
L205.25 263.866
L205.622 287.159
L205.697 290.793
L205.771 288.295
L205.92 265.692
L205.994 265.86
L206.069 259.462
L206.292 221.011
L206.515 206.703
L206.664 196.197
L206.738 198.656
L206.887 185.118
L206.962 188.693
L207.11 208.027
L207.185 202.359
L207.259 203.228
L207.854 305.782
L207.929 302.099
L208.45 244.719
L208.524 244.078
L208.673 245.924
L208.822 253.093
L208.97 235.576
L209.268 201.974
L209.342 197.481
L209.417 199.002
L209.566 212.381
L209.714 210.93
L209.938 234.5
L210.161 268.062
L210.235 271.232
L210.458 245.885
L210.682 225.129
L210.756 227.578
L211.202 259.077
L211.426 275.517
L211.5 274.895
L212.095 222.078
L212.17 223.421
L212.244 223.48
L212.467 233.779
L212.616 227.736
L212.839 237.156
L213.286 265.989
L213.583 235.448
L213.881 198.063
L213.955 199.821
L214.104 218.138
L214.402 262.799
L214.55 266.552
L214.625 262.938
L215.071 215.966
L215.146 215.037
L215.518 236.583
L215.964 301.763
L216.038 300.726
L216.113 299.581
L217.08 202.803
L217.154 200.611
L217.229 201.381
L217.378 205.894
L217.452 204.511
L217.898 225.652
L218.27 187.113
L218.345 188.288
L218.494 218.582
L218.94 350.68
L219.089 337.933
L219.238 309.495
L219.758 195.17
L219.982 164.748
L220.205 175.817
L220.279 174.454
L220.651 240.671
L220.8 282.814
L220.874 282.301
L220.949 284.138
L221.023 289.618
L221.098 288.542
L221.246 269.287
L221.618 211.384
L221.693 212.164
L221.842 218.247
L221.99 211.897
L222.437 249.311
L222.511 248.156
L222.586 249.785
L222.809 281.304
L222.883 278.796
L223.032 287.722
L223.106 283.95
L223.553 206.259
L223.627 207.217
L223.85 226.205
L223.925 230.54
L224.148 254.446
L224.222 254.317
L224.371 257.122
L224.594 231.044
L224.892 201.826
L224.966 199.979
L225.19 225.711
L225.487 253.379
L225.934 238.291
L226.082 229.128
L226.157 229.632
L226.306 227.686
L226.752 273.878
L226.901 258.287
L227.05 235.122
L227.124 240.404
L227.347 265.297
L227.422 266.137
L227.645 281.758
L227.794 256.144
L228.24 146.105
L228.389 169.645
L228.835 292.531
L229.058 306.71
L229.282 273.661
L229.654 220.616
L229.802 222.394
L229.951 230.303
L230.026 228.526
L230.323 191.803
L230.695 226.195
L230.993 247.366
L231.142 253.33
L231.588 315.666
L231.662 311.42
L232.481 170.435
L232.555 175.629
L232.927 195.309
L233.002 196.059
L233.225 180.675
L233.374 219.027
L233.82 331.593
L233.894 341.438
L233.969 339.147
L234.043 338.397
L234.118 336.373
L234.192 329.668
L234.638 210.456
L234.787 217.358
L234.862 215.343
L235.085 203.82
L235.159 202.922
L235.234 205.993
L235.457 226.037
L235.606 234.46
L235.68 231.834
L235.754 235.369
L235.978 260.943
L236.275 245.648
L236.424 225.04
L236.573 231.36
L236.647 227.528
L236.722 228.674
L236.796 231.063
L236.87 229.908
L236.945 227.805
L237.019 229.098
L237.094 228.071
L237.168 224.783
L237.391 247.573
L237.466 247.544
L237.614 240.681
L237.689 242.399
L237.763 240.997
L237.912 235.685
L237.986 235.882
L238.135 217.782
L238.21 219.757
L238.656 263.125
L238.73 264.221
L238.805 263.115
L238.879 264.429
L239.102 251.385
L239.177 252.026
L239.251 251.355
L239.4 254.416
L239.549 239.111
L239.623 241.797
L239.772 254.051
L240.144 227.686
L240.367 189.769
L241.111 260.271
L241.26 265.337
L241.334 264.725
L241.558 260.508
L241.93 233.216
L242.153 249.854
L242.302 265.179
L242.376 262.286
L242.674 227.499
L243.046 209.498
L243.12 210.367
L243.194 212.5
L243.269 212.263
L243.641 271.222
L243.79 282.015
L244.162 242.389
L244.31 224.457
L244.534 189.384
L244.608 188.673
L244.682 190.371
L245.278 271.913
L245.352 266.463
L245.575 278.894
L245.65 276.831
L246.096 216.331
L246.17 224.517
L246.394 270.748
L246.468 272.437
L247.138 182.215
L247.212 190.786
L247.658 269.81
L247.807 273.128
L248.03 250.081
L248.179 235.744
L248.254 236.099
L248.477 247.623
L248.849 211.996
L248.923 210.633
L249.072 227.015
L249.221 245.509
L249.37 236.81
L249.965 289.707
L250.039 289.489
L250.114 286.103
L250.337 250.713
L250.411 252.55
L250.783 193.827
L251.378 257.122
L251.453 251.76
L251.527 242.873
L251.602 245.835
L251.676 248.166
L251.75 248.027
L251.825 247.623
L251.899 243.554
L252.122 219.155
L252.271 228.536
L252.494 248.906
L252.643 251.187
L252.792 243.1
L252.941 232.347
L253.015 231.32
L253.164 233.749
L253.238 237.432
L253.387 230.718
L253.536 241.619
L253.834 278.638
L253.908 280.573
L253.982 276.712
L254.429 207.148
L254.652 223.44
L254.726 221.732
L255.247 252.737
L255.396 262.424
L255.545 244.295
L255.768 216.637
L255.842 214.228
L255.917 214.702
L256.066 232.939
L256.214 221.031
L256.661 318.767
L256.735 317.226
L256.81 310.966
L257.33 189.177
L257.405 187.656
L257.702 170.781
L257.926 187.587
L258.372 270.116
L258.446 277.087
L258.521 273.77
L258.595 268.694
L258.893 286.3
L259.116 271.084
L259.19 266.482
L259.265 269.257
L259.488 245.124
L259.562 246.289
L259.637 249.262
L260.306 215.146
L260.455 199.219
L260.53 200.67
L260.753 216.805
L260.902 235.132
L260.976 232.712
L261.05 224.843
L261.274 240.483
L261.348 239.98
L261.422 238.123
L261.571 249.518
L261.646 260.834
L261.72 258.316
L261.794 256.657
L261.943 273.75
L262.018 269.376
L262.241 228.506
L262.39 219.728
L262.464 221.238
L262.687 256.697
L263.134 296.174
L263.357 277.7
L263.654 193.916
L263.878 128.321
L263.952 131.797
L264.622 285.372
L264.845 283.427
L264.919 278.361
L264.994 278.894
L265.068 280.297
L265.142 288.245
L265.217 285.165
L265.44 265.564
L265.738 219.343
L265.961 207.642
L266.035 209.429
L266.184 199.673
L266.333 202.102
L266.407 200.216
L266.482 202.477
L266.63 212.964
L266.705 212.845
L266.779 214.475
L266.854 211.068
L266.928 213.388
L267.151 243.742
L267.3 269
L267.449 265.485
L267.672 279.477
L267.821 280.158
L268.044 291.859
L268.416 253.034
L268.565 230.994
L268.639 237.807
L268.862 199.002
L269.16 213.517
L269.309 221.031
L269.532 254.248
L269.681 248.106
L269.904 251.829
L269.978 253.34
L270.127 246.062
L270.425 222.107
L270.499 219.323
L270.648 201.519
L270.722 201.737
L270.871 216.282
L271.392 279.477
L271.541 285.362
L271.913 242.132
L272.21 216.677
L272.285 217.694
L272.359 214.307
L272.434 216.104
L272.582 235.941
L272.731 258.682
L272.806 257.546
L272.88 253.261
L273.029 265.248
L273.178 270.314
L273.698 220.241
L273.847 212.095
L273.922 213.882
L274.219 222.917
L274.666 258.701
L274.889 248.274
L275.112 270.264
L275.261 252.342
L275.335 251.434
L275.93 199.673
L276.005 189.068
L276.079 192.82
L276.302 245.707
L276.526 318.856
L276.823 286.31
L277.195 207.73
L277.344 195.427
L277.716 218.493
L278.162 237.274
L278.46 258.425
L278.906 228.496
L278.981 228.378
L279.278 248.304
L279.502 270.314
L279.874 228.526
L279.948 232.219
L280.171 268.497
L280.246 270.817
L280.394 252.481
L280.543 236.781
L280.618 237.047
L280.766 223.806
L280.915 226.521
L280.99 225.494
L281.064 225.879
L281.138 226.442
L281.436 251.167
L281.734 237.817
L282.031 208.58
L282.106 212.144
L282.18 210.584
L282.254 212.401
L282.701 265.534
L282.775 266.631
L282.924 272.624
L283.073 262.938
L283.222 275.359
L283.37 262.454
L283.742 227.202
L283.966 214.04
L284.114 223.352
L284.263 215.995
L284.338 218.681
L284.412 215.501
L284.486 219.234
L284.71 242.448
L284.784 245.766
L285.156 231.863
L285.23 232.88
L285.751 266.966
L285.974 251.414
L286.123 261.92
L286.272 256.174
L286.718 213.003
L286.793 213.23
L286.942 229.79
L287.239 267.371
L287.314 263.402
L287.686 195.388
L287.834 197.175
L287.909 195.97
L288.206 254.298
L288.504 296.737
L288.653 289.381
L288.802 302.366
L288.95 285.954
L289.471 158.477
L289.546 164.619
L289.694 161.548
L290.066 237.62
L290.364 309.85
L290.513 328.246
L290.736 302.415
L291.182 209.607
L291.406 200.028
L291.48 199.564
L291.554 201.125
L291.703 212.273
L291.778 212.164
L291.926 208.125
L292.075 221.791
L292.67 285.609
L292.819 299.877
L292.894 296.599
L293.117 261.476
L293.34 220.745
L293.489 214.326
L293.861 232.87
L294.158 257.783
L294.233 259.017
L294.382 235.467
L294.679 161.173
L294.754 163.494
L295.126 232.969
L295.349 279.931
L295.498 287.534
L295.572 284.947
L295.795 259.235
L295.87 260.113
L296.167 265.347
L296.465 292.215
L297.06 208.017
L297.134 208.589
L297.655 258.405
L297.804 234.095
L298.027 195.565
L298.102 189.522
L298.622 256.885
L298.771 230.757
L298.994 183.025
L299.292 231.715
L299.366 230.55
L299.441 226.245
L299.59 235.517
L300.185 332.166
L300.259 321.867
L300.929 240.878
L301.003 240.681
L301.078 236.188
L301.524 166.12
L301.673 201.342
L301.97 281.886
L302.045 284.009
L302.194 252.431
L302.417 191.151
L302.64 199.762
L302.714 199.949
L302.863 174.592
L303.012 161.4
L303.161 196.711
L303.458 305.585
L303.756 363.981
L303.83 365.482
L304.054 347.521
L304.202 292.531
L304.649 86.9284
L304.723 95.0352
L305.244 278.973
L305.318 277.206
L305.467 264.606
L305.69 209.903
L306.062 260.973
L306.137 254.791
L306.36 228.17
L306.434 230.905
L306.732 278.272
L306.806 282.479
L306.881 279.151
L306.955 285.471
L307.178 336.55
L307.253 331.672
L307.625 201.431
L307.699 202.369
L307.922 199.367
L307.997 198.666
L308.22 182.057
L308.369 170.297
L308.815 194.854
L309.113 270.432
L309.485 369.58
L309.559 363.112
L309.782 263.648
L310.006 202.704
L310.154 184.141
L310.229 187.834
L310.75 250.832
L310.824 252.678
L310.973 250.535
L311.047 250.703
L311.27 261.97
L311.345 258.741
L311.717 201.707
L311.791 204.669
L311.94 208.313
L312.014 205.203
L312.089 207.247
L312.386 271.824
L312.461 267.727
L312.61 261.091
L312.684 264.922
L312.907 291.217
L313.8 203.139
L313.874 203.741
L313.949 202.635
L314.023 199.495
L314.098 201.984
L314.172 208.53
L314.246 207.089
L314.321 204.6
L314.618 253.478
L314.693 243.1
L314.842 237.689
L314.99 250.832
L315.065 246.536
L315.214 239.861
L315.288 245.045
L315.66 310.265
L315.734 317.74
L316.478 187.616
L316.702 155.357
L316.776 158.853
L317.222 227.518
L317.446 256.302
L317.52 255.621
L318.041 296.263
L318.19 280.405
L318.413 250.012
L318.487 253.014
L318.562 252.461
L318.785 243.446
L318.859 244.611
L318.934 244.344
L319.008 243.673
L319.082 245.302
L319.306 232.446
L319.454 224.852
L319.678 203.297
L319.752 203.682
L319.826 204.393
L320.05 218.237
L320.124 214.06
L320.198 214.484
L320.273 217.101
L320.645 270.56
L320.719 266.759
L321.017 250.111
L321.166 236.366
L321.24 238.074
L321.389 246.388
L321.463 244.236
L321.686 261.21
L321.761 256.717
L321.984 242.893
L322.058 248.403
L322.207 237.59
L322.356 249.834
L322.579 235.675
L322.728 244.927
L322.802 239.121
L322.951 220.192
L323.1 236.356
L323.323 264.962
L323.398 264.942
L323.695 218.266
L323.77 221.199
L323.844 222.315
L323.918 216.933
L324.067 223.401
L324.142 219.836
L324.216 220.488
L324.29 226.284
L324.514 262.464
L324.662 274.392
L325.183 203.998
L325.258 196.553
L325.332 202.556
L325.63 268.398
L325.778 265.248
L326.15 290.121
L326.225 284.75
L326.597 222.246
L326.894 206.289
L326.969 199.742
L327.043 204.472
L327.192 232.693
L327.266 231.389
L327.341 235.625
L327.415 249.232
L327.49 248.511
L327.564 243.92
L327.638 244.325
L327.713 243.07
L327.936 234.687
L328.01 233.818
L328.085 236.089
L328.382 265.1
L328.457 263.945
L329.052 200.117
L329.126 207.74
L329.35 243.021
L329.722 261.644
L329.796 255.68
L329.945 263.629
L330.168 247.662
L330.391 262.177
L330.466 261.516
L330.54 253.122
L330.614 255.67
L330.689 260.854
L330.986 245.855
L331.135 234.48
L331.433 201.292
L331.582 195.012
L331.73 206.674
L331.805 204.146
L331.879 203.425
L332.177 238.716
L332.326 228.733
L332.549 246.941
L332.698 260.163
L332.846 287.495
L333.144 266.285
L333.367 224.764
L333.442 226.195
L333.814 289.539
L334.111 251.75
L334.558 182.245
L334.632 183.173
L334.781 212.786
L335.004 240.325
L335.376 285.639
L335.525 253.498
L335.748 202.517
L335.822 200.917
L335.897 203.05
L336.046 217.931
L336.12 217.753
L336.269 230.915
L336.566 277.068
L336.641 276.258
L336.864 222.71
L336.938 231.922
L337.087 258.711
L337.162 258.316
L337.31 246.368
L337.459 221.939
L337.608 248.896
L337.757 272.288
L338.054 232.791
L338.129 223.48
L338.203 223.628
L338.352 244.374
L338.426 241.451
L338.65 225.702
L338.798 228.417
L339.022 217.713
L339.17 202.181
L339.468 236.879
L339.617 220.587
L339.766 243.485
L339.989 271.42
L340.138 270.008
L340.286 259.491
L340.435 277.788
L340.584 291.978
L340.956 249.617
L341.03 250.585
L341.105 249.597
L341.179 251.088
L341.477 218.77
L341.626 226.906
L341.7 223.756
L341.923 201.914
L341.998 201.48
L342.221 236.149
L342.37 225.919
L342.593 204.669
L342.816 241.886
L342.965 260.163
L343.114 245.46
L343.188 245.806
L343.411 263.678
L343.486 262.74
L343.56 259.264
L343.858 221.248
L343.932 224.566
L344.23 269.089
L344.304 266.897
L344.527 255.008
L344.602 253.922
L344.676 250.763
L344.899 229.651
L345.197 248.096
L345.271 244.947
L345.569 211.443
L346.164 272.575
L346.313 260.35
L346.387 262.977
L346.462 265.426
L346.982 223.835
L347.057 220.123
L347.206 234.095
L347.28 242.271
L347.801 217.378
L347.875 219.185
L348.024 213.388
L348.396 253.547
L348.545 250.17
L348.619 252.096
L348.768 233.957
L348.842 239.93
L348.991 261.506
L349.214 252.491
L349.289 251.552
L349.512 237.106
L349.735 243.14
L349.884 243.831
L350.107 224.438
L350.256 239.605
L350.479 264.695
L350.628 264.113
L350.926 233.226
L351.223 197.432
L351.595 246.517
L352.042 265.1
L352.339 247.553
L352.637 220.409
L352.711 221.515
L352.786 217.624
L352.86 222.601
L352.934 221.633
L353.009 218.128
L353.53 264.715
L353.604 264.409
L353.827 245.124
L353.976 242.35
L354.05 233.068
L354.125 233.216
L354.199 233.127
L354.274 233.68
L354.348 238.568
L354.497 233.907
L354.571 234.954
L354.72 245.47
L354.869 257.22
L355.092 232.752
L355.166 232.535
L355.241 236.82
L355.315 234.43
L355.687 195.723
L355.762 204.551
L356.134 265.159
L356.431 282.814
L356.58 269.247
L356.654 272.654
L356.729 271.183
L357.026 239.496
L357.101 239.447
L357.324 214.84
L357.473 204.284
L357.622 215.176
L357.696 215.018
L357.919 254.446
L357.994 253.251
L358.217 236.82
L358.291 236.01
L358.366 237.758
L358.812 206.536
L359.333 279.398
L359.407 280.247
L359.63 256.43
L359.705 262.78
L359.779 272.456
L359.854 270.254
L360.077 240.869
L360.151 241.787
L360.226 245.193
L360.746 207.424
L360.821 207.78
L360.895 211.009
L361.044 207.118
L361.193 220.982
L361.565 258.139
L361.639 254.633
L361.937 223.174
L362.086 234.964
L362.309 271.607
L362.606 243.357
L362.681 241.412
L362.904 231.962
L362.978 231.31
L363.127 218.701
L363.648 278.885
L363.797 253.952
L363.871 254.831
L364.02 267.104
L364.094 258.385
L364.169 258.879
L364.541 244.453
L364.69 234.776
L364.764 238.044
L364.838 237.343
L364.913 234.164
L365.136 214.02
L365.434 196.918
L365.582 204.334
L365.657 202.438
L365.731 204.531
L366.029 234.816
L366.103 234.825
L366.178 237.294
L366.624 293.617
L366.847 279.665
L366.922 279.26
L366.996 281.235
L367.07 281.175
L367.517 223.322
L367.74 214.238
L367.814 213.507
L367.963 200.404
L368.112 213.507
L368.41 198.814
L368.93 245.47
L369.154 279.862
L369.228 282.627
L369.377 298.278
L369.526 287.801
L369.6 290.141
L369.674 285.629
L370.121 209.34
L370.195 199.87
L370.27 203.652
L370.493 223.816
L370.716 243.633
L370.79 242.231
L370.939 231.527
L371.088 244.176
L371.237 233.611
L371.386 243.801
L371.46 240.562
L371.534 230.491
L371.609 234.203
L371.906 291.316
L372.278 216.42
L372.353 217.15
L372.502 226.699
L372.576 223.944
L372.799 199.614
L372.874 203.297
L373.171 232.653
L373.543 271.597
L373.618 270.314
L373.841 250.565
L374.138 258.82
L374.362 236.761
L374.436 240.138
L374.51 240.79
L374.734 194.38
L374.808 198.962
L375.329 260.262
L375.403 261.417
L375.775 240.888
L375.85 240.957
L375.924 243.317
L375.998 240.799
L376.147 247.099
L376.37 282.094
L376.891 210.229
L376.966 210.495
L377.338 183.785
L377.486 202.517
L377.784 265.169
L377.933 259.008
L378.082 264.932
L378.23 232.446
L378.305 232.989
L378.379 238.538
L378.602 270.778
L378.677 269.563
L378.9 295.918
L379.272 221.357
L379.346 225.484
L379.421 233.966
L379.495 233.897
L379.867 209.123
L379.942 211.265
L380.09 223.825
L380.239 206.97
L380.388 224.813
L380.686 276.386
L380.834 295.108
L380.909 291.346
L381.281 224.961
L381.355 225.336
L381.578 210.11
L381.727 200.068
L381.876 207.247
L382.322 265.1
L382.397 266.858
L382.471 265.515
L383.066 206.427
L383.215 230.501
L383.438 263.056
L383.662 249.321
L383.959 265.771
L384.034 262.997
L384.182 265.179
L384.703 236.474
L385.15 198.083
L385.224 202.556
L385.67 279.526
L385.745 277.848
L385.894 256.944
L386.414 164.175
L386.861 265.001
L387.084 312.26
L387.233 321.867
L387.382 314.422
L387.605 285.026
L387.679 285.639
L387.828 263.115
L388.423 150.736
L388.498 154.913
L388.795 187.597
L389.316 296.945
L389.465 304.242
L389.539 302.691
L390.06 237.195
L390.283 203.356
L390.358 202.408
L390.432 209.291
L390.655 249.923
L390.73 252.866
L390.878 271.953
L390.953 268.467
L391.027 263.846
L391.102 265.189
L391.25 279.26
L391.622 221.88
L391.846 200.117
L391.994 200.68
L392.069 197.412
L392.366 221.624
L392.441 227.834
L392.664 266.334
L392.738 274.342
L392.887 250.605
L393.11 223.579
L393.408 236.82
L393.482 233.641
L393.557 234.035
L393.929 273.582
L394.301 251
L394.375 250.466
L394.45 248.936
L394.598 254.979
L394.673 252.886
L394.97 226.709
L395.194 233.641
L395.342 220.054
L395.491 210.426
L396.012 258.998
L396.161 238.064
L396.458 206.802
L396.682 219.185
L397.128 302.158
L397.277 303.383
L397.351 294.634
L397.574 251.523
L397.723 230.273
L397.946 200.078
L398.318 216.785
L398.467 231.745
L398.69 204.896
L398.765 210.061
L398.839 211.167
L398.988 203.386
L399.062 192.672
L399.137 195.802
L399.732 332.62
L399.806 330.922
L399.955 307.816
L400.476 183.38
L400.625 169.063
L400.922 205.124
L401.146 250.338
L401.22 251.859
L401.518 286.656
L401.592 297.093
L401.666 293.232
L402.187 208.698
L402.262 204.966
L402.336 206.763
L402.559 246.398
L402.634 246.359
L402.857 221.673
L402.931 225.099
L403.006 223.776
L403.154 214.741
L403.229 216.084
L403.898 284.177
L404.047 267.885
L404.196 245.411
L404.27 248.531
L404.345 253.893
L404.419 253.438
L404.568 233.729
L404.642 234.934
L404.94 218.513
L405.014 217.486
L405.163 219.58
L405.238 211.838
L405.61 252.905
L405.684 252.757
L405.982 242.922
L406.13 233.285
L406.279 224.023
L406.502 238.647
L406.651 248.146
L406.726 246.941
L407.098 257.131
L407.172 267.766
L407.246 264.498
L407.47 245.421
L407.544 258.07
L407.618 255.324
L408.139 182.492
L408.288 208.678
L408.809 295.621
L409.106 269.553
L409.404 238.657
L409.553 245.885
L409.702 232.683
L409.85 236.277
L410.222 207.158
L410.297 205.706
L410.446 192.662
L410.52 194.272
L410.966 232.663
L411.264 256.282
L411.338 256.796
L411.562 249.104
L411.636 253.192
L411.859 288.364
L411.934 287.011
L412.231 258.168
L412.306 259.432
L412.38 259.946
L412.603 243.327
L412.678 243.347
L412.826 247.326
L412.901 251.938
L412.975 249.439
L413.422 190.46
L413.645 165.429
L413.719 169.073
L414.24 293.903
L414.314 289.677
L414.538 260.439
L414.686 230.224
L415.058 265.278
L415.207 273.908
L415.282 271.963
L415.802 222.828
L415.877 225.711
L416.026 234.667
L416.1 232.021
L416.323 245.391
L416.546 224.941
L416.621 226.511
L416.695 234.786
L416.77 231.913
L417.142 194.134
L417.216 191.655
L417.365 221.367
L417.514 237.176
L417.588 228.911
L417.662 233.868
L417.886 305.249
L417.96 300.46
L418.481 245.263
L418.778 233.631
L419.002 248.284
L419.15 255.808
L419.522 224.724
L419.671 211.779
L419.746 215.936
L420.118 202.161
L420.192 202.537
L420.415 223.371
L420.49 221.495
L420.638 215.511
L421.382 304.212
L421.68 277.157
L421.903 225.386
L421.978 225.218
L422.126 210.456
L422.35 198.31
L422.498 210.011
L422.87 240.355
L423.094 249.242
L423.168 247.198
L423.391 262.77
L423.54 242.271
L423.614 247.504
L423.689 244.67
L423.838 226.501
L423.912 227.4
L424.21 242.29
L424.284 241.362
L424.507 234.272
L424.656 218.76
L424.805 231.36
L425.102 261.565
L425.326 252.688
L425.4 251.483
L425.623 268.171
L425.772 254.574
L425.921 262.72
L426.07 241.579
L426.293 207.296
L426.59 238.736
L426.739 217.812
L426.814 218.355
L426.962 228.141
L427.037 226.64
L427.111 222.157
L427.26 228.96
L427.409 237.778
L427.483 233.127
L427.558 234.539
L427.632 237.61
L427.706 236.84
L427.855 237.413
L428.078 248.274
L428.45 279.862
L428.525 279.931
L428.674 267.006
L428.822 263.915
L428.971 246.862
L429.194 216.015
L429.269 211.621
L429.418 195.427
L429.938 255.7
L430.087 240.76
L430.162 243.653
L430.385 259.748
L430.534 236.781
L430.608 227.459
L430.906 252.807
L431.203 224.201
L431.352 224.26
L431.426 225.879
L431.873 262.157
L431.947 265.683
L432.022 263.471
L432.096 256.894
L432.17 259.63
L432.245 259.017
L432.468 204.462
L432.542 209.883
L432.617 212.628
L432.766 203.81
L432.989 252.945
L433.063 251.789
L433.138 240.108
L433.212 241.352
L433.286 246.773
L433.435 226.778
L433.51 229.967
L433.733 246.724
L433.807 251.809
L433.956 242.211
L434.03 244.69
L434.179 258.948
L434.254 257.803
L434.328 250.713
L434.402 252.125
L434.477 253.557
L434.551 251.227
L434.7 256.48
L434.849 246.971
L434.923 249.597
L434.998 252.609
L435.072 252.194
L435.146 247.544
L435.295 254.001
L435.37 252.244
L435.593 230.52
L435.742 237.728
L435.816 236.079
L436.188 188.693
L436.262 192.554
L436.634 246.359
L436.783 238.706
L436.858 240.839
L437.304 268.526
L437.378 277.058
L437.453 273.947
L437.899 236.119
L437.974 240.701
L438.122 249.805
L438.271 233.404
L438.42 214.06
L438.643 220.182
L438.718 212.885
L438.792 213.151
L439.238 277.443
L439.313 275.784
L439.387 279.793
L439.61 265.347
L439.759 255.67
L440.057 213.477
L440.206 211.779
L440.28 206.496
L440.875 260.795
L440.95 256.203
L441.173 248.689
L441.396 240.286
L441.545 227.736
L441.694 229.059
L441.991 246.596
L442.066 246.003
L442.14 236.563
L442.214 237.699
L442.363 245.411
L442.438 245.825
L442.586 249.331
L442.661 246.892
L442.81 240.523
L442.884 242.142
L442.958 236.83
L443.107 216.193
L443.405 245.124
L443.554 243.722
L443.628 248.383
L443.702 246.26
L443.926 238.301
L444.149 217.012
L444.521 248.886
L444.67 238.43
L444.893 261.476
L444.967 259.768
L445.116 238.834
L445.339 274.53
L445.414 272.042
L445.488 263.856
L445.562 264.527
L445.637 261.693
L445.86 242.982
L445.934 241.925
L446.083 252.57
L446.232 242.044
L446.306 240.701
L446.53 226.057
L446.678 207.76
L446.902 172.687
L447.05 184.763
L447.199 205.884
L447.571 274.826
L447.646 287.594
L447.72 286.577
L447.869 278.865
L448.018 282.765
L448.092 277.472
L448.39 234.361
L448.464 233.641
L448.613 222.255
L448.687 223.717
L449.059 263.955
L449.357 225.247
L449.58 193.097
L449.654 197.501
L449.878 239.427
L449.878 239.427" style="fill:none;stroke:#808080;stroke-linecap:square;"/>
   </g>
  </g>
 </g>
 <defs>
  <clipPath id="p7ff5b81e1d">
   <rect height="345.6" width="446.4" x="72.0" y="43.2"/>
  </clipPath>
 </defs>
</svg>
