<?xml version="1.0" encoding="utf-8" standalone="no"?>
<!DOCTYPE svg PUBLIC "-//W3C//DTD SVG 1.1//EN"
  "http://www.w3.org/Graphics/SVG/1.1/DTD/svg11.dtd">
<!-- Created with matplotlib (http://matplotlib.org/) -->
<svg height="432pt" version="1.1" viewBox="0 0 576 432" width="576pt" xmlns="http://www.w3.org/2000/svg" xmlns:xlink="http://www.w3.org/1999/xlink">
 <defs>
  <style type="text/css">
*{stroke-linecap:butt;stroke-linejoin:round;}
  </style>
 </defs>
 <g id="figure_1">
  <g id="patch_1">
   <path d="
M0 432
L576 432
L576 0
L0 0
z
" style="fill:#ffffff;"/>
  </g>
  <g id="axes_1">
   <g id="line2d_1">
    <path clip-path="url(#p7ff5b81e1d)" d="
M72 230.576
L72.5208 206.781
L72.744 198.567
L72.8928 199.76
L72.9672 199.489
L73.0416 198.584
L73.116 199.685
L73.3392 216.412
L73.5624 225.651
L73.7856 229.729
L74.0088 228.755
L74.232 221.319
L74.976 195.584
L75.1248 203.561
L75.5712 230.322
L75.72 235.316
L75.8688 230.506
L76.0176 224.274
L76.2408 211.458
L76.5384 207.386
L76.6128 207.979
L76.7616 212.155
L76.836 211.418
L76.9848 205.283
L77.0592 205.629
L77.6544 220.138
L77.7288 221.475
L77.8032 220.127
L77.952 215.409
L78.324 230.351
L78.4728 228.214
L78.6216 221.025
L78.9192 201.361
L78.9936 200.531
L79.068 201.977
L79.5888 228.871
L79.6632 228.099
L80.8536 196.183
L81.0024 200.14
L81.2256 211.792
L81.5976 234.262
L81.672 234.147
L81.7464 233.277
L81.8952 234.452
L82.044 232.419
L82.4904 208.353
L82.7136 193.85
L82.788 193.74
L82.9368 198.158
L83.532 231.249
L83.6064 230.685
L84.4248 206.522
L84.648 198.256
L84.7224 199.339
L84.9456 209.753
L85.4664 251.3
L85.5408 250.131
L85.764 235.454
L86.0616 203.244
L86.4336 163.662
L86.508 161.168
L86.5824 163.166
L86.7312 179.841
L87.1776 249.198
L87.3264 256.115
L87.4752 249.756
L87.996 221.267
L88.1448 218.364
L88.2192 218.433
L88.4424 224.879
L88.5168 223.802
L88.5912 224.021
L88.6656 223.687
L89.2608 191.517
L89.3352 192.64
L89.7816 206.902
L89.856 207.219
L89.9304 207.04
L90.0792 208.1
L90.3024 212.414
L90.3768 211.798
L90.5256 212.495
L90.6 211.032
L90.6744 211.372
L90.7488 211.544
L90.8976 214.499
L91.4928 246.318
L91.5672 247.735
L91.6416 247.712
L91.716 246.813
L91.9392 236.203
L92.3112 214.655
L92.5344 206.165
L92.9808 191.528
L93.1296 191.459
L93.3528 195.486
L93.4272 194.892
L93.5016 193.51
L93.576 193.953
L93.7248 199.65
L94.32 237.585
L94.5432 232.062
L94.692 226.106
L94.7664 226.59
L95.2128 243.248
L95.436 234.389
L95.7336 213.082
L96.18 170.389
L96.4032 139.544
L96.4776 138.997
L96.6264 161.409
L97.1472 280.785
L97.2216 282.323
L97.4448 276.177
L97.668 256.259
L98.2632 189.622
L98.4864 185.106
L98.6352 191.471
L98.8584 198.671
L99.528 213.319
L99.6768 215.288
L100.421 234.924
L100.57 231.635
L100.793 222.068
L101.09 207.605
L101.462 211.717
L101.686 210.433
L101.76 210.727
L101.834 210.214
L102.132 205.036
L102.355 209.886
L102.578 215.934
L102.802 211.032
L102.876 211.809
L103.099 222.195
L103.397 246.081
L103.62 258.535
L103.843 249.739
L103.992 235.425
L104.587 160.367
L104.662 158.063
L104.736 159.163
L104.959 173.684
L105.554 232.321
L106.001 265.147
L106.224 252.078
L106.596 223.237
L106.968 196.315
L107.117 189.374
L107.414 191.626
L107.563 189.697
L107.712 195.895
L108.233 249.077
L108.307 248.604
L108.456 237.395
L108.828 193.245
L108.902 194.339
L109.051 211.47
L109.423 270.757
L109.498 267.987
L109.646 246.49
L110.018 176.437
L110.242 167.302
L110.539 176.408
L110.614 174.179
L110.688 174.439
L110.837 184.501
L111.506 251.991
L111.581 252.55
L111.73 251.162
L111.804 252.072
L112.027 261.023
L112.102 260.13
L112.25 239.077
L112.622 141.768
L112.697 143.363
L112.846 181.385
L113.218 300.94
L113.292 301.095
L113.441 274.657
L113.887 162.164
L113.962 158.046
L114.036 158.149
L114.185 161.68
L114.706 185.181
L115.301 256.352
L115.598 272.41
L115.747 264.225
L116.045 219.856
L116.342 185.411
L116.491 192.997
L116.863 211.792
L117.012 201.839
L117.235 181.915
L117.31 181.788
L117.458 195.048
L117.979 266.299
L118.054 267.146
L118.128 266.737
L118.426 228.295
L118.946 166.04
L119.021 164.883
L119.542 178.557
L119.839 199.299
L120.509 313.733
L120.583 312.27
L120.732 298.918
L121.178 194.339
L121.476 140.789
L121.625 135.973
L121.774 149.164
L122.294 222.431
L122.369 218.376
L122.666 175.349
L122.741 176.696
L122.89 195.157
L123.41 287.738
L123.485 287.951
L123.559 283.164
L124.154 199.765
L124.378 191.5
L124.452 193.026
L124.675 212.524
L124.898 231.215
L124.973 232.016
L125.196 221.889
L125.568 197.404
L125.642 198.147
L126.089 210.709
L126.238 215.018
L126.386 215.853
L126.535 217.788
L126.758 215.3
L126.907 218.053
L127.056 226.1
L127.279 240.154
L127.428 229.948
L127.8 198.043
L127.874 197.669
L127.949 199.016
L128.098 213.647
L128.395 248.063
L128.544 229.297
L128.916 169.946
L128.99 169.917
L129.065 171.933
L129.437 219.655
L129.734 259.289
L129.883 265.516
L130.032 253.973
L130.255 212.115
L130.478 165.488
L130.553 166.501
L130.702 191.022
L131.074 285.082
L131.148 282.606
L131.371 230.748
L131.669 172.595
L131.743 171.052
L131.818 171.345
L131.892 173.367
L132.115 166.058
L132.19 169.162
L132.413 205.652
L132.785 289.016
L132.859 291.856
L133.008 268.528
L133.157 215.83
L133.38 136.958
L133.454 137.315
L133.678 187.041
L133.752 175.418
L133.901 138.202
L133.975 142.568
L134.273 249.048
L134.496 325.46
L134.645 335.148
L134.794 321.537
L135.091 231.952
L135.389 176.408
L135.612 162.199
L135.761 175.038
L136.058 198.02
L136.207 201.303
L136.282 201.136
L136.654 191.269
L136.802 196.165
L137.026 207.806
L137.174 206.337
L137.249 208.071
L137.621 236.324
L137.993 256.737
L138.067 255.367
L138.29 241.376
L138.886 182.837
L139.183 200.56
L139.778 241.37
L139.927 238.484
L140.076 228.64
L140.522 192.329
L140.597 193.043
L140.82 203.204
L141.266 231.952
L141.341 229.314
L141.638 199.823
L141.713 200.094
L141.936 211.573
L142.234 226.705
L142.308 226.63
L142.457 213.889
L142.754 170.677
L142.903 186.897
L143.35 269.127
L143.498 257.705
L143.796 234.481
L144.019 239.192
L144.094 237.758
L144.242 226.688
L144.466 193.838
L144.689 164.888
L144.763 164.658
L144.912 178.361
L145.284 214.154
L145.656 193.867
L145.879 211.832
L146.251 244.895
L146.549 229.746
L146.772 222.316
L147.07 213.422
L147.218 222.92
L147.59 255.217
L147.665 253.604
L147.814 240.281
L148.334 177.693
L148.632 165.251
L148.781 173.649
L149.376 228.715
L149.45 229.02
L149.525 230.051
L149.748 237.879
L149.897 238.812
L150.269 229.256
L150.343 230.144
L150.79 265.671
L150.864 265.498
L151.013 250.609
L151.236 192.824
L151.534 121.896
L151.608 122.057
L151.831 156.738
L152.426 270.538
L152.501 272.422
L152.798 257.273
L153.319 208.59
L153.542 218.485
L153.617 218.284
L153.691 214.977
L153.84 189.173
L154.138 127.379
L154.361 178.787
L154.658 245.569
L154.807 271.391
L154.882 261.772
L155.03 201.608
L155.105 201.954
L155.477 274.599
L155.551 278.499
L155.626 276.915
L156.444 191.569
L156.518 185.054
L156.593 185.843
L156.667 186.667
L156.89 180.366
L156.965 181.656
L157.188 190.584
L157.262 190.112
L157.486 175.291
L157.56 175.925
L157.709 190.682
L158.006 224.683
L158.155 227.454
L158.23 230.109
L158.304 228.917
L158.453 227.315
L158.602 229.089
L158.676 229.349
L159.197 245.039
L159.271 243.19
L159.718 210.905
L160.164 224.902
L160.238 223.577
L160.685 199.846
L161.057 182.001
L161.131 183.297
L161.354 205.934
L161.726 240.748
L161.801 244.267
L161.875 243.783
L162.024 233.657
L162.322 208.025
L162.396 206.602
L162.47 206.706
L162.619 210.473
L162.768 206.792
L162.991 209.016
L163.14 201.528
L163.289 195.728
L163.363 195.497
L163.512 204.172
L163.81 232.113
L164.107 261.939
L164.182 261.438
L164.256 259.658
L164.479 238.841
L165.074 177.14
L165.149 174.652
L165.298 180.734
L165.967 230.426
L166.042 229.274
L166.339 211.637
L166.414 211.717
L166.562 220.565
L166.786 235.339
L166.86 234.343
L167.083 220.893
L167.306 209.223
L167.381 208.077
L167.455 208.181
L167.678 210.295
L168.199 240.598
L168.348 229.28
L168.794 174.392
L169.018 191.223
L169.241 218.405
L169.538 251.922
L169.613 249.077
L170.059 209.206
L170.431 206.188
L170.58 207.95
L170.952 219.77
L171.398 245.984
L171.473 242.948
L171.622 219.591
L171.994 147.511
L172.142 175.982
L172.589 311.688
L173.11 174.94
L173.184 178.615
L173.333 202.818
L173.407 202.426
L173.705 172.878
L173.779 173.788
L174.077 214.545
L174.449 265.055
L174.523 269.588
L174.598 268.119
L174.746 258.782
L175.342 197.058
L175.416 198.008
L175.639 208.256
L175.862 231.992
L176.011 224.286
L176.383 200.727
L176.532 198.406
L176.755 202.156
L176.978 195.802
L177.425 211.038
L177.648 217.011
L177.797 214.609
L177.871 215.219
L178.02 209.586
L178.094 209.384
L178.243 212.599
L178.392 228.041
L178.69 261.53
L178.764 263.857
L178.913 254.163
L179.508 189.489
L179.582 189.944
L179.657 189.852
L179.731 189.524
L179.954 195.739
L180.55 218.439
L180.624 217.731
L180.773 220.121
L181.145 218.186
L181.294 212.829
L181.442 221.538
L181.74 243.547
L181.814 245.35
L181.889 244.999
L182.112 234.688
L182.633 186.454
L182.782 182.134
L182.856 182.174
L183.079 195.48
L183.377 216.573
L183.674 246.508
L183.749 246.98
L184.046 231.186
L184.493 195.388
L184.567 193.896
L184.79 201.799
L184.865 201.436
L185.162 210.784
L185.386 228.272
L185.981 241.076
L186.278 244.503
L186.353 242.355
L186.65 209.742
L187.022 138.6
L187.097 141.169
L187.246 162.325
L187.766 269.456
L187.841 267.785
L188.138 244.716
L188.213 245.379
L188.287 246.433
L188.51 241.531
L188.659 220.012
L189.031 128.606
L189.106 121.424
L189.18 121.533
L189.329 155.897
L189.775 310.714
L189.924 319.544
L189.998 315.461
L190.296 258.12
L190.594 188.873
L190.817 126.832
L190.891 124.874
L191.189 150.241
L191.561 188.585
L192.082 259.704
L192.379 288.665
L192.528 272.192
L192.974 202.38
L193.049 197.582
L193.123 197.72
L193.495 209.114
L193.718 201.735
L193.793 203.4
L194.09 211.124
L194.165 212.385
L194.239 212.224
L194.314 211.648
L194.388 214.58
L194.686 240.506
L194.834 224.839
L194.909 226.359
L195.132 241.704
L195.43 94.1326
L195.504 106.407
L196.174 300.467
L196.322 283.556
L196.769 201.13
L196.843 201.447
L196.992 199.99
L197.141 201.488
L197.215 201.211
L197.29 201.125
L197.662 209.045
L197.959 216.21
L198.406 223.191
L198.48 223.675
L198.554 223.387
L198.703 220.691
L199.075 209.114
L199.15 209.494
L199.298 207.777
L199.373 207.852
L199.522 211.061
L199.745 221.135
L200.042 213.105
L200.117 213.877
L200.34 219.297
L200.563 229.475
L200.638 228.945
L200.861 219.735
L201.307 199.99
L201.382 200.007
L201.456 200.733
L201.53 202.703
L201.605 202.208
L201.679 200.675
L201.754 200.756
L201.902 205.646
L202.349 241.485
L202.498 239.498
L203.018 211.354
L203.093 212.817
L203.316 213.952
L203.39 214.131
L203.465 213.975
L203.762 218.497
L203.837 217.731
L204.06 206.067
L204.134 207.582
L204.358 231.555
L204.432 228.606
L204.506 227.793
L204.581 227.897
L204.804 215.237
L204.878 217.057
L205.102 238.726
L205.176 235.65
L205.548 142.603
L205.622 143.542
L205.771 159.002
L206.292 248.662
L206.59 293.538
L206.664 293.745
L206.813 279.553
L207.334 182.289
L207.408 179.772
L207.557 187.715
L208.003 236.825
L208.078 232.315
L208.375 197.427
L208.45 197.669
L208.524 197.214
L208.598 198.037
L208.97 215.467
L209.119 217.875
L209.268 211.85
L209.491 203.365
L209.566 203.93
L209.714 200.75
L209.789 201.165
L209.938 207.852
L210.31 231.584
L210.384 233.283
L210.682 222.005
L210.979 192.444
L211.054 192.542
L211.351 246.064
L211.649 290.819
L211.798 277.831
L212.244 220.087
L212.616 88.4475
L212.69 89.156
L212.839 115.208
L213.36 266.46
L213.434 263.811
L213.509 259.635
L213.583 260.263
L213.732 271.65
L213.881 251.421
L214.178 218.635
L214.476 200.497
L214.699 176.051
L214.774 177.18
L214.997 229.141
L215.294 280.106
L215.369 278.758
L215.592 252.464
L216.187 179.081
L216.336 175.475
L216.41 176.115
L216.559 178.989
L216.708 176.224
L216.931 184.565
L217.154 206.222
L217.675 271.569
L217.898 245.655
L218.122 220.807
L218.494 206.228
L218.791 178.891
L218.866 176.967
L218.94 179.6
L219.089 203.803
L219.386 256.38
L219.461 257.181
L219.535 255.943
L219.684 241.255
L220.056 179.53
L220.13 178.35
L220.205 178.522
L220.354 188.977
L220.874 240.517
L221.098 250.413
L221.246 245.5
L221.395 236.456
L221.916 192.416
L221.99 191.269
L222.065 191.333
L222.139 193.585
L222.437 214.609
L222.586 218.243
L222.66 217.938
L222.809 209.672
L222.958 202.092
L223.106 204.454
L223.255 210.243
L223.553 232.81
L223.627 231.163
L223.85 218.629
L224.222 227.517
L224.371 228.922
L224.446 228.508
L224.966 189.881
L225.041 189.95
L225.413 229.631
L225.636 251.502
L225.71 250.983
L225.934 240.632
L226.529 185.446
L226.603 185.383
L227.198 210.07
L227.422 228.231
L227.57 235.777
L227.719 243.259
L227.794 242.314
L228.24 223.594
L228.389 214.695
L228.686 189.524
L228.835 187.577
L228.984 193.925
L229.133 212.437
L229.43 253.402
L229.505 255.004
L229.654 244.307
L230.323 177.848
L230.546 191.989
L231.29 256.835
L231.588 248.259
L231.811 222.2
L232.109 184.087
L232.258 176.218
L232.332 177.29
L232.704 196.54
L233.15 236.209
L233.225 236.572
L233.374 231.532
L233.597 217.621
L233.82 199.616
L233.894 201.925
L234.266 229.533
L234.415 223.681
L234.787 202.317
L234.862 202.795
L235.01 209.972
L235.531 264.398
L235.606 261.559
L236.275 191.713
L236.573 160.58
L236.722 152.695
L236.796 156.364
L237.242 204.137
L237.838 267.238
L237.912 266.633
L238.284 242.885
L238.805 189.564
L238.954 185.1
L239.028 185.959
L239.326 201.251
L239.698 227.903
L239.772 227.782
L239.846 228.312
L239.921 229.683
L239.995 229.136
L240.144 221.797
L240.218 221.855
L240.367 226.209
L240.665 223.295
L240.814 224.481
L241.111 205.232
L241.186 205.652
L241.334 203.711
L241.409 203.907
L241.855 218.802
L241.93 218.451
L242.078 216.942
L242.227 219.776
L242.376 221.025
L242.45 221.002
L242.525 221.406
L242.599 220.91
L242.748 207.132
L243.046 180.25
L243.194 188.176
L243.492 226.215
L243.715 243.173
L243.79 243.829
L243.864 243.645
L244.013 240.707
L244.459 215.294
L244.534 215.732
L244.98 225.754
L245.054 225.184
L245.129 225.42
L245.203 224.297
L245.426 207.898
L245.65 197.79
L245.724 197.571
L245.873 200.693
L246.319 223.283
L246.394 221.832
L246.617 208.048
L246.766 203.838
L247.063 213.86
L247.361 235.806
L247.435 235.506
L247.51 233.588
L247.733 211.038
L248.03 189.322
L248.105 189.973
L248.254 194.973
L248.551 212.19
L249.072 274.507
L249.146 274.501
L249.37 239.377
L249.965 153.605
L250.039 154.232
L250.188 167.866
L250.709 238.582
L250.783 237.787
L250.858 238.409
L250.932 238.069
L251.602 225.559
L251.75 224.32
L251.899 221.527
L251.974 221.866
L252.197 225.42
L252.271 226.204
L252.346 225.507
L252.494 218.698
L252.792 193.066
L252.866 191.69
L252.941 191.96
L253.015 194.345
L253.313 213.952
L253.387 213.854
L253.536 213.18
L253.982 224.418
L254.057 224.061
L254.726 211.383
L254.801 210.11
L254.875 210.352
L255.024 219.585
L255.396 244.348
L255.47 243.132
L255.619 226.279
L255.991 174.041
L256.14 173.638
L256.214 172.676
L256.289 174.721
L256.958 249.146
L257.033 250.868
L257.107 250.321
L258 210.156
L258.223 200.163
L258.521 189.489
L258.595 189.789
L258.744 205.352
L258.967 225.754
L259.116 227.615
L259.265 235.736
L259.339 232.868
L259.786 194.696
L259.86 195.226
L260.158 212.604
L260.232 212.316
L260.306 211.786
L260.381 212.103
L260.678 219.902
L260.827 221.02
L260.976 218.52
L261.199 204.437
L261.274 200.497
L261.348 202.421
L261.869 237.539
L261.943 238.68
L262.166 244.417
L262.315 239.538
L262.687 210.162
L263.134 178.568
L263.282 184.017
L263.729 219.148
L264.101 287.876
L264.25 306.798
L264.398 279.61
L264.919 97.6578
L264.994 105.054
L265.589 235.374
L265.886 251.974
L266.11 254.37
L266.258 243.092
L266.482 207.697
L266.705 165.585
L266.779 168.108
L266.928 187.208
L267.523 294.926
L267.672 288.527
L267.821 267.56
L268.416 142.188
L268.49 137.765
L268.565 139.424
L268.788 158.858
L269.606 264.68
L269.755 256.807
L270.127 212.961
L270.425 183.591
L270.499 184.784
L270.648 194.034
L271.243 254.975
L271.392 251.018
L271.615 238.697
L272.062 195.342
L272.285 188.055
L272.359 188.24
L272.508 185.849
L272.582 184.582
L272.657 184.939
L272.806 188.994
L273.029 185.325
L273.103 185.452
L273.401 202.997
L273.996 259.208
L274.219 267.013
L274.294 267.105
L274.442 262.042
L274.74 227.753
L275.112 189.893
L275.261 188.43
L275.484 192.145
L276.005 219.983
L276.154 229.93
L276.302 221.112
L276.6 200.877
L276.749 207.311
L276.972 217.616
L277.121 218.497
L277.195 218.341
L277.27 217.875
L277.344 218.773
L277.567 224.499
L278.014 208.762
L278.088 210.243
L278.311 220.029
L278.534 212.91
L278.609 214.908
L278.758 217.961
L278.906 213.365
L279.055 208.987
L279.13 208.86
L279.278 210.548
L279.502 199.535
L279.874 220.104
L280.246 258.517
L280.394 264.11
L280.543 246.358
L280.841 208.094
L280.99 201.862
L281.138 189.916
L281.287 199.765
L281.51 210.94
L281.585 211.631
L281.734 197.594
L282.031 131.509
L282.18 175.608
L282.552 326.428
L282.626 323.651
L283.37 145.99
L283.594 105.474
L283.668 106.983
L283.891 173.937
L284.263 288.527
L284.338 292.582
L284.412 290.796
L285.082 225.472
L285.156 226.803
L285.305 231.491
L285.528 222.235
L285.751 200.307
L286.198 139.838
L286.346 157.452
L286.942 249.52
L287.165 258.005
L287.239 258.126
L287.388 253.978
L287.686 240.385
L287.909 229.412
L288.058 214.09
L288.43 154.889
L288.504 157.251
L288.653 175.458
L289.322 278.009
L289.397 281.598
L289.471 275.999
L289.918 200.301
L290.29 216.752
L290.364 217.201
L290.513 212.725
L290.736 197.836
L290.81 198.504
L290.959 212.483
L291.182 229.982
L291.257 224.787
L291.48 160.908
L291.703 93.6776
L291.778 98.66
L291.926 158.892
L292.224 288.452
L292.447 320.408
L292.596 305.732
L293.489 150.909
L293.638 163.362
L294.307 262.227
L294.382 261.881
L294.53 257.008
L294.902 237.09
L295.498 141.238
L295.87 262.025
L295.944 248.161
L296.316 140.328
L296.39 143.375
L296.539 183.816
L296.837 262.757
L296.911 260.159
L297.134 247.873
L297.432 260.988
L297.506 258.851
L297.73 234.878
L298.102 190.918
L298.399 170.908
L298.474 171.587
L298.548 172.584
L298.771 164.727
L298.92 172.561
L299.069 193.159
L299.515 279.685
L299.664 284.956
L299.887 269.34
L300.036 261.512
L300.11 260.43
L300.334 234.596
L300.854 180.135
L300.929 183.303
L301.003 182.935
L301.152 170.021
L301.301 161.116
L301.598 183.493
L301.673 182.998
L301.822 194.892
L302.045 214.194
L302.268 226.06
L302.714 248.299
L302.863 234.803
L303.012 217.817
L303.161 221.158
L303.31 209.984
L303.458 199.627
L303.682 212.357
L304.054 248.702
L304.277 224.769
L304.351 228.225
L304.5 238.858
L304.723 221.889
L305.095 194.305
L305.17 194.535
L305.393 203.152
L305.542 198.752
L305.616 199.754
L305.765 210.657
L305.839 209.932
L305.988 206.28
L306.211 214.96
L306.36 213.048
L306.434 214.119
L306.509 213.918
L306.583 212.368
L306.658 212.823
L306.806 227.672
L306.955 237.246
L307.253 205.283
L307.774 250.931
L308.443 192.778
L308.666 204.068
L308.815 195.457
L308.964 213.82
L309.113 223.761
L309.336 215.864
L309.41 217.639
L309.485 217.454
L309.708 205.376
L309.857 211.21
L310.08 203.515
L310.154 205.583
L310.526 226.976
L310.675 235.189
L311.345 205.635
L311.419 208.912
L311.94 242.032
L312.014 240.581
L312.312 214.638
L312.386 214.672
L312.461 213.486
L313.13 186.275
L313.205 185.838
L313.354 187.427
L313.502 196.033
L314.098 235.708
L314.172 233.841
L314.246 234.06
L314.916 264.346
L315.065 244.544
L315.734 146.312
L315.809 145.27
L315.883 142.43
L315.958 144.625
L316.181 190.129
L316.627 281.275
L316.776 294.016
L316.85 292.743
L316.999 276.327
L317.743 162.003
L317.966 180.383
L318.413 221.014
L318.562 223.105
L318.636 220.058
L318.859 195.56
L318.934 194.823
L319.082 191.834
L319.231 203.567
L319.454 251.68
L319.678 289.276
L319.826 274.317
L320.124 240.281
L320.273 243.605
L320.422 228.565
L320.942 156.225
L321.017 156.778
L321.091 160.28
L321.314 149.861
L321.389 155.287
L321.686 232.28
L321.984 276.984
L322.058 278.96
L322.282 268.298
L322.43 252.659
L322.802 204.488
L323.249 176.662
L323.323 177.14
L323.695 197.432
L324.067 219.608
L324.29 223.197
L324.439 228.554
L324.514 226.526
L324.737 209.454
L324.811 212.339
L325.332 258.033
L325.406 260.879
L325.481 260.643
L325.555 260.752
L325.704 265.683
L325.853 255.107
L326.671 144.769
L326.746 145.472
L326.82 143.911
L326.894 146.059
L327.341 197.617
L327.713 242.124
L327.936 259.456
L328.01 258.581
L328.829 227.436
L328.978 230.103
L329.201 234.354
L329.275 232.183
L329.945 177.825
L330.019 179.329
L330.54 221.504
L330.614 218.744
L331.061 161.219
L331.21 194.777
L331.507 283.573
L331.656 292.893
L331.73 291.223
L331.879 272.664
L332.326 202.161
L332.4 198.193
L332.474 199.264
L332.623 214.246
L332.772 232.067
L332.846 232.039
L332.995 215.456
L333.516 146.721
L333.665 140.915
L333.739 141.025
L333.888 154.083
L334.111 201.148
L334.558 308.883
L334.632 314.464
L334.706 312.558
L335.153 266.23
L335.822 113.959
L335.897 117.656
L336.046 146.929
L336.566 300.502
L336.641 295.185
L336.864 243.178
L337.087 189.749
L337.162 187.404
L337.31 191.926
L337.534 199.351
L337.608 198.55
L337.98 166.421
L338.054 167.36
L338.203 184.519
L338.426 235.374
L338.65 286.782
L338.724 287.749
L338.873 271.754
L339.468 183.885
L339.617 180.187
L339.766 183.09
L339.989 198.763
L340.51 253.402
L340.584 251.64
L340.807 232.926
L341.179 201.349
L341.402 193.199
L341.477 194.144
L342.444 233.196
L342.593 228.312
L343.039 216.44
L343.114 216.487
L343.188 214.839
L343.56 198.314
L343.634 198.204
L343.709 197.058
L343.783 197.196
L344.006 214.05
L344.378 235.472
L344.527 241.905
L344.602 240.604
L345.048 216.694
L345.122 216.193
L345.346 208.405
L345.494 206.712
L345.643 205.07
L345.792 205.704
L345.941 216.118
L346.09 223.214
L346.313 219.948
L346.536 221.671
L346.908 209.557
L346.982 210.306
L347.131 214.165
L347.206 214.125
L347.28 212.892
L347.578 202.231
L347.726 200.376
L347.875 198.487
L347.95 201.004
L348.322 234.06
L348.396 234.325
L348.694 225.236
L349.066 211.032
L349.14 210.588
L349.289 220.565
L349.512 233.202
L349.735 235.846
L349.884 231.607
L350.182 207.299
L350.256 207.875
L350.405 210.899
L350.554 198.21
L350.926 150.926
L351 153.806
L351.223 198.752
L351.67 299.361
L351.893 270.792
L352.414 171.461
L352.488 177.422
L352.786 215.864
L352.86 218.652
L352.934 217.984
L353.53 188.925
L353.604 188.424
L353.753 196.108
L353.976 215.162
L354.422 269.427
L354.497 269.392
L354.646 258.84
L354.869 229.585
L355.39 160.436
L355.538 169.854
L356.059 224.078
L356.282 232.004
L356.506 239.653
L356.58 239.74
L356.729 227.016
L356.878 215.179
L357.026 216.124
L357.25 205.813
L357.324 205.825
L357.473 206.268
L357.547 208.077
L358.068 240.224
L358.142 239.308
L358.514 226.152
L358.961 181.662
L359.035 178.62
L359.11 179.991
L359.63 209.615
L359.928 222.679
L360.151 241.502
L360.3 244.676
L360.374 243.057
L360.523 234.394
L360.598 234.965
L360.746 238.328
L360.97 223.266
L361.342 192.842
L361.416 193.976
L361.714 218.871
L361.862 226.325
L361.937 226.52
L362.011 225.466
L362.16 205.744
L362.458 153.086
L362.606 177.612
L363.053 295.888
L363.127 294.702
L363.276 276.523
L364.02 159.272
L364.094 156.675
L364.169 157.619
L364.466 182.163
L364.987 221.221
L365.21 230.04
L365.657 259.957
L365.806 253.817
L366.252 230.247
L366.401 225.8
L366.847 195.607
L367.219 154.353
L367.368 170.142
L367.963 242.648
L368.112 248.04
L368.261 243.564
L369.005 207.737
L369.377 194.806
L369.526 207.322
L369.823 232.39
L369.898 233.386
L370.121 227.096
L370.344 216.884
L370.493 208.624
L370.567 209.206
L370.939 224.81
L371.014 225.8
L371.162 218.151
L371.46 181.385
L371.534 181.46
L371.906 212.84
L372.204 235.898
L372.278 236.048
L372.576 222.874
L372.799 220.259
L373.171 204.298
L373.32 210.502
L373.766 261.8
L373.841 256.933
L374.213 209.96
L374.51 139.193
L374.585 139.389
L374.734 163.76
L375.18 293.872
L375.254 293.262
L375.403 256.277
L375.775 123.284
L375.85 124.678
L376.073 216.815
L376.296 290.48
L376.37 290.266
L376.519 265.366
L376.891 189.138
L377.04 181.42
L377.189 191.649
L377.412 210.496
L377.486 209.897
L377.858 198.176
L377.933 198.032
L378.007 198.124
L378.082 199.621
L378.379 220.311
L378.751 243.42
L378.9 237.666
L379.049 228.83
L379.123 229.187
L379.272 233.888
L379.421 227.505
L379.57 221.164
L379.718 223.681
L379.867 221.043
L379.942 222.045
L380.165 229.112
L380.314 224.695
L380.611 208.152
L380.983 177.992
L381.058 175.193
L381.578 217.437
L381.653 217.385
L381.727 216.25
L382.099 224.147
L382.322 228.248
L382.546 214.643
L382.62 214.747
L382.694 213.054
L382.918 203.861
L382.992 205.157
L383.215 201.701
L383.513 219.614
L383.885 256.484
L383.959 253.287
L384.108 246.099
L384.48 213.111
L384.778 201.476
L384.852 202.38
L385.001 206.625
L385.15 200.209
L385.224 201.862
L385.373 204.333
L385.745 196.453
L385.819 197.012
L386.191 223.128
L386.563 228.692
L386.712 230.501
L386.861 236.451
L386.935 237.061
L387.084 245.436
L387.158 245.338
L387.456 211.602
L387.679 193.763
L387.977 206.389
L388.126 207.443
L388.2 207.668
L388.349 193.654
L388.498 184.864
L388.572 185.302
L388.721 188.977
L389.018 211.418
L389.167 230.195
L389.39 258.339
L389.614 262.29
L390.283 210.283
L390.506 201.188
L390.878 184.064
L390.953 182.733
L391.176 185.169
L391.25 187.128
L391.771 238.432
L391.994 249.872
L392.069 251.772
L392.143 250.367
L392.441 234.821
L392.515 234.25
L392.59 235.247
L392.664 232.2
L392.962 195.877
L393.11 190.584
L393.185 191.246
L393.408 199.241
L393.482 199.616
L393.706 203.383
L393.854 206.746
L394.078 221.411
L394.301 217.281
L394.375 218.393
L394.673 236.468
L394.747 233.697
L395.119 210.957
L395.268 215.513
L395.342 215.502
L395.417 212.581
L395.491 213.434
L395.64 226.054
L395.714 225.887
L395.938 206.349
L396.012 207.305
L396.086 210.099
L396.235 204.834
L396.31 205.07
L396.682 217.166
L396.905 235.466
L396.979 233.496
L397.128 225.334
L397.277 230.633
L397.351 227.926
L397.574 210.934
L397.649 212.91
L397.723 212.42
L397.798 209.557
L398.021 219.367
L398.17 219.326
L398.318 219.009
L398.467 214.183
L398.988 183.873
L399.137 186.863
L399.211 185.797
L399.36 177.549
L399.658 205.721
L400.253 294.454
L400.476 278.147
L400.625 259.352
L400.997 187.128
L401.22 181.333
L401.369 185.63
L401.518 190.486
L401.592 190.561
L401.815 183.015
L401.89 183.061
L402.113 187.37
L402.41 201.274
L402.708 216.389
L402.931 227.396
L403.006 230.028
L403.303 257.066
L403.452 249.941
L403.973 219.764
L404.047 220.501
L404.122 219.505
L404.27 215.646
L404.419 222.454
L404.568 212.161
L404.791 200.18
L404.866 199.725
L404.94 200.514
L405.089 207.478
L405.312 218.215
L405.61 190.123
L405.684 190.595
L405.833 197.202
L406.13 234.907
L406.205 234.481
L406.354 227.24
L406.428 227.31
L406.502 228.128
L406.577 223.808
L406.8 204.016
L406.874 204.644
L407.172 213.992
L407.47 239.619
L408.288 199.742
L408.437 186.16
L408.511 187.808
L408.958 234.901
L409.032 242.366
L409.106 241.905
L409.404 214.338
L409.478 215.421
L409.627 212.512
L409.702 214.603
L409.85 225.973
L409.925 225.674
L410.446 181.466
L410.52 181.575
L410.892 208.901
L411.487 245.603
L411.859 265.383
L411.934 265.688
L412.082 254.952
L412.678 141.699
L412.752 147.643
L413.124 194.478
L413.422 226.803
L413.645 233.859
L413.794 232.747
L413.942 236.543
L414.091 243.034
L414.166 242.504
L414.538 226.503
L414.835 203.221
L415.058 197.623
L415.133 197.185
L415.356 213.255
L415.43 211.297
L415.505 209.085
L415.579 210.185
L416.1 233.427
L416.174 233.242
L416.323 227.995
L416.844 201.793
L417.216 216.665
L417.365 221.936
L417.514 215.548
L417.588 215.623
L418.034 236.681
L418.109 234.619
L418.555 192.364
L418.853 165.632
L418.927 168.2
L419.15 205.03
L419.522 265.568
L419.671 253.811
L420.266 202.91
L420.415 205.629
L420.936 233.427
L421.085 224.401
L421.829 176.956
L421.903 176.017
L422.052 182.675
L422.275 201.562
L422.647 233.26
L422.87 236.422
L423.242 257.089
L423.466 263.223
L423.54 262.544
L423.614 262.906
L423.689 262.215
L423.838 251.11
L424.061 209.287
L424.433 109.477
L424.507 106.373
L424.73 142.401
L425.4 287.398
L425.474 286.805
L425.698 272.768
L426.144 229.435
L426.516 177.463
L426.739 166.15
L427.037 172.97
L427.26 189.253
L427.706 223.018
L427.781 222.696
L427.93 230.604
L428.376 254.364
L428.45 255.395
L428.525 255.05
L428.674 247.994
L428.971 217.713
L429.12 199.195
L429.194 199.247
L429.418 215.98
L429.641 234.884
L429.715 235.304
L429.864 229.118
L430.31 184.507
L430.534 153.443
L430.608 155.269
L430.757 170.539
L431.054 252.78
L431.203 282.03
L431.278 281.436
L431.426 248.501
L431.798 126.636
L431.873 127.391
L432.022 163.955
L432.468 299.304
L432.542 301.072
L432.691 290.497
L432.989 231.918
L433.286 195.301
L433.435 191.039
L433.658 196.384
L433.882 188.666
L434.254 192.709
L434.402 199.685
L435.072 241.548
L435.146 242.977
L435.37 238.305
L435.444 238.017
L435.518 236.18
L435.667 222.719
L436.114 174.231
L436.188 175.205
L436.337 188.332
L436.783 237.211
L436.932 237.522
L437.006 237.418
L437.155 238.651
L437.304 234.141
L437.527 226.584
L437.602 226.924
L437.676 225.777
L438.346 192.018
L438.643 207.42
L438.718 207.317
L438.866 210.905
L439.015 212.656
L439.09 211.688
L439.164 213.543
L439.387 233.951
L439.462 234.118
L439.536 233.484
L439.759 226.711
L439.982 204.874
L440.206 200.912
L440.503 211.043
L440.726 224.942
L440.801 223.548
L440.875 223.122
L441.024 223.71
L441.098 226.376
L441.247 221.216
L441.396 217.293
L441.619 221.239
L441.768 219.868
L441.991 212.397
L442.214 208.682
L442.289 209.31
L442.363 209.649
L442.438 209.598
L442.512 209.505
L442.586 209.736
L442.735 205.301
L442.81 206.205
L443.107 228.848
L443.256 234.285
L443.405 222.108
L443.702 201.678
L443.926 185.751
L444.149 210.214
L444.372 226.659
L444.446 226.411
L444.521 228.928
L444.744 246.853
L444.818 244.987
L444.893 247.205
L444.967 246.168
L445.339 201.603
L445.414 202.634
L445.637 194.725
L446.158 212.051
L446.381 222.558
L446.455 223.272
L446.604 230.789
L446.678 230.529
L446.976 220.599
L447.199 219.378
L447.348 223.203
L447.646 214.776
L447.869 195.071
L448.018 181.264
L448.092 182.382
L448.836 244.929
L448.91 244.544
L449.059 238.029
L449.431 214.764
L449.506 213.946
L449.58 214.016
L449.878 221.227
L449.878 221.227" style="fill:none;stroke:#808080;stroke-linecap:square;"/>
   </g>
  </g>
 </g>
 <defs>
  <clipPath id="p7ff5b81e1d">
   <rect height="345.6" width="446.4" x="72.0" y="43.2"/>
  </clipPath>
 </defs>
</svg>
