<?xml version="1.0" encoding="utf-8" standalone="no"?>
<!DOCTYPE svg PUBLIC "-//W3C//DTD SVG 1.1//EN"
  "http://www.w3.org/Graphics/SVG/1.1/DTD/svg11.dtd">
<!-- Created with matplotlib (http://matplotlib.org/) -->
<svg height="432pt" version="1.1" viewBox="0 0 576 432" width="576pt" xmlns="http://www.w3.org/2000/svg" xmlns:xlink="http://www.w3.org/1999/xlink">
 <defs>
  <style type="text/css">
*{stroke-linecap:butt;stroke-linejoin:round;}
  </style>
 </defs>
 <g id="figure_1">
  <g id="patch_1">
   <path d="
M0 432
L576 432
L576 0
L0 0
z
" style="fill:#ffffff;"/>
  </g>
  <g id="axes_1">
   <g id="line2d_1">
    <path clip-path="url(#p7ff5b81e1d)" d="
M72 177.477
L72.372 338.018
L72.4464 343.202
L72.5208 338.64
L72.8928 268.118
L73.2648 202.464
L73.5624 178.588
L74.0832 227.544
L74.604 280.772
L74.6784 279.69
L74.976 266.498
L75.1992 288.75
L75.2736 285.946
L75.4224 256.185
L75.7944 169.405
L75.9432 196.263
L76.3896 331.328
L76.464 327.813
L76.6872 245.427
L77.0592 90.3955
L77.1336 98.9269
L77.3568 209.756
L77.6544 343.478
L77.7288 352.893
L77.8032 352.745
L77.952 326.46
L78.5472 167.089
L78.696 152.465
L78.7704 153.709
L78.9192 169.908
L79.2168 252.437
L79.5144 332.059
L79.6632 336.206
L79.812 332.992
L79.8864 325.482
L80.4816 186.536
L80.556 187.544
L80.928 224.666
L81.0024 223.066
L81.2256 212.096
L81.3744 219.645
L81.672 237.774
L81.8208 228.048
L81.8952 229.638
L82.044 256.669
L82.2672 283.986
L82.416 279.992
L82.7136 246.419
L83.0856 205.184
L83.16 207.366
L83.3832 235.133
L83.6808 299.577
L83.7552 297.617
L83.904 274.482
L84.3504 195.389
L84.4248 194.041
L84.4992 195.512
L84.648 209.035
L85.02 249.095
L85.2432 246.266
L85.6152 222.069
L85.6896 221.254
L85.764 224.701
L86.3592 300.525
L86.4336 297.257
L87.0288 223.713
L87.1776 215.7
L87.3264 210.63
L87.4752 211.578
L87.6984 218.539
L87.9216 237.74
L88.2192 267.644
L88.2936 266.716
L88.4424 258.95
L88.8888 224.054
L88.9632 223.837
L89.0376 225.308
L89.112 224.789
L89.2608 214.535
L89.3352 215.829
L90.0048 251.445
L90.228 255.429
L90.3024 256.93
L90.5256 267.046
L90.6 264.44
L91.1208 222.978
L91.1952 220.938
L91.4184 226.883
L91.4928 225.649
L91.716 233.977
L91.7904 234.372
L91.9392 243.709
L92.3112 288.518
L92.6832 253.474
L93.0552 198.835
L93.204 195.631
L93.2784 196.381
L93.4272 203.13
L93.6504 225.649
L93.7248 222.227
L93.7992 222.272
L94.0224 234.353
L94.2456 267.486
L94.4688 307.65
L94.5432 306.563
L94.7664 278.259
L95.2128 199.985
L95.2872 201.2
L95.436 216.174
L95.7336 248.626
L95.8824 251.578
L96.4032 227.189
L96.552 223.071
L96.6264 222.306
L96.7008 218.741
L96.8496 192.362
L97.0728 141.12
L97.1472 151.177
L97.7424 368.406
L97.8168 378.552
L97.8912 378.157
L98.04 362.235
L98.2632 301.992
L98.8584 123.687
L98.9328 118.276
L99.0072 119.391
L99.2304 155.225
L99.6768 249.179
L99.9 272.458
L100.123 280.816
L100.421 263.497
L100.644 283.739
L100.718 280.787
L101.016 249.406
L101.09 251.47
L101.388 281.063
L101.462 276.249
L102.132 183.757
L102.281 176.593
L102.355 179.225
L102.802 239.418
L102.876 239.374
L103.025 236.372
L103.174 254.309
L103.471 300.728
L103.546 301.587
L103.694 282.208
L103.918 246.735
L103.992 245.446
L104.141 259.774
L104.364 284.405
L104.438 280.475
L104.81 214.268
L105.108 181.807
L105.331 176.46
L105.406 176.287
L105.554 184.181
L105.778 215.72
L106.224 279.839
L106.298 280.317
L106.522 265.812
L106.596 267.13
L106.745 279.651
L107.042 310.36
L107.117 308.499
L107.34 281.651
L107.935 170.125
L108.01 169.276
L108.233 173.957
L108.307 174.519
L108.456 183.352
L108.754 225.017
L109.126 282.337
L109.349 292.137
L109.423 292.463
L109.498 291.1
L109.795 266.73
L110.093 252.773
L110.167 252.625
L110.242 253.524
L110.39 247.411
L110.614 230.156
L110.911 202.577
L110.986 204.182
L111.209 221.388
L111.506 242.682
L111.655 245.456
L111.953 252.921
L112.176 241.679
L112.474 220.899
L112.697 227.184
L113.069 257.108
L113.292 254.131
L113.366 255.039
L113.515 252.852
L113.664 248.567
L113.962 229.021
L114.036 229.815
L114.557 248.873
L114.706 253.005
L114.78 252.521
L115.226 236.624
L115.301 237.167
L115.598 246.799
L116.268 230.546
L116.491 240.959
L116.566 239.843
L116.863 231.894
L117.161 238.949
L117.235 237.804
L117.458 224.562
L117.607 223.787
L117.682 222.439
L117.756 223.224
L117.905 233.578
L118.202 265.383
L118.277 265.111
L118.574 250.858
L118.649 251.174
L118.723 252.936
L118.946 265.432
L119.021 264.8
L119.318 247.105
L119.69 226.305
L119.839 233.721
L119.914 233.168
L120.137 223.911
L120.211 224.202
L120.658 233.716
L120.806 218.776
L120.881 219.334
L121.104 242.667
L121.253 245.575
L121.55 262.899
L121.848 242.44
L121.997 231.297
L122.071 231.864
L122.294 240.776
L122.369 240.791
L122.592 248.7
L122.666 248.596
L122.741 250.018
L122.89 257.483
L122.964 257.478
L123.262 241.986
L123.485 231.736
L123.634 234.748
L123.857 229.297
L124.006 230.921
L124.229 228.418
L124.303 227.021
L124.378 227.584
L124.452 227.13
L124.526 227.52
L124.601 225.387
L124.75 229.569
L125.27 263.748
L125.345 262.998
L125.419 261.314
L125.642 270.048
L125.717 268.37
L125.866 251.504
L126.163 222.222
L126.238 222.657
L126.312 224.933
L126.386 224.281
L126.535 219.808
L126.758 226.868
L126.907 224.207
L126.982 225.54
L127.354 244.123
L127.502 245.496
L127.651 244.148
L128.098 255.291
L128.172 254.975
L128.246 254.96
L128.321 255.192
L128.47 251.954
L128.544 252.763
L128.693 258.367
L128.767 256.417
L129.288 216.732
L129.362 216.92
L129.66 227.643
L129.734 227.278
L130.032 233.987
L130.404 253.44
L130.478 254.659
L130.627 251.277
L130.85 235.765
L130.925 237.483
L131.148 246.933
L131.222 248.122
L131.297 247.249
L131.594 233.4
L131.669 235.113
L131.892 246.424
L131.966 245.994
L132.115 242.282
L132.338 235.187
L132.487 245.096
L132.562 245.022
L132.934 233.252
L133.008 234.071
L133.38 255.4
L133.678 247.895
L133.826 240.835
L134.05 249.515
L134.273 237.394
L134.496 213.557
L134.719 229.993
L134.868 223.654
L134.942 225.189
L135.314 242.04
L135.389 240.475
L135.538 234.254
L135.612 236.9
L135.761 247.969
L135.984 240.233
L136.058 242
L136.207 237.907
L136.282 238.929
L136.505 241.902
L136.951 280.495
L137.026 279.76
L137.546 254.506
L138.067 200.212
L138.216 198.894
L138.365 191.01
L138.439 191.237
L139.258 265.955
L139.481 252.141
L139.555 252.902
L139.853 273.633
L140.225 255.148
L140.299 256.511
L140.597 270.315
L140.671 269.806
L140.894 244.77
L141.341 167.143
L141.415 170.175
L141.564 192.742
L141.936 266.577
L142.085 270.28
L142.234 263.882
L142.68 243.644
L142.754 244.637
L142.829 244.553
L143.126 239.28
L143.201 239.739
L143.275 238.465
L143.498 224.587
L143.722 225.718
L143.87 232.644
L144.019 227.258
L144.094 230.097
L144.466 264.4
L144.54 264.237
L144.763 254.402
L144.838 255.355
L144.912 254.901
L145.135 249.184
L145.507 226.853
L145.656 225.436
L145.73 225.831
L146.102 231.687
L146.251 225.505
L146.326 227.436
L146.772 262.588
L146.921 254.995
L146.995 251.075
L147.07 251.332
L147.218 258.007
L147.367 253.696
L147.442 256.58
L147.516 252.141
L147.665 230.447
L147.814 237.162
L148.334 210.837
L148.409 214.036
L148.781 249.604
L148.93 259.621
L149.153 250.616
L149.45 259.478
L149.748 247.999
L149.897 236.52
L150.046 246.928
L150.12 246.276
L150.343 234.585
L150.418 231.924
L150.566 220.632
L150.79 234.683
L150.864 234.377
L151.013 238.692
L151.534 229.993
L151.682 225.125
L152.203 267.436
L152.352 278.97
L152.426 276.634
L152.798 233.37
L153.17 199.798
L153.245 198.129
L153.319 200.751
L153.84 262.42
L154.063 280.564
L154.138 279.192
L154.435 246.024
L154.807 215.389
L154.956 225.644
L155.179 242.553
L155.328 234.17
L155.402 234.343
L155.551 237.113
L155.774 259.458
L156.072 288.533
L156.146 290.409
L156.295 277.271
L156.965 179.531
L157.114 177.032
L157.188 179.462
L157.411 203.441
L157.932 269.476
L158.081 274.625
L158.23 273.475
L158.378 277.316
L158.453 277.148
L158.75 269.89
L159.122 240.988
L159.197 241.329
L159.271 240.134
L159.643 227.925
L159.792 227.07
L159.941 221.837
L160.313 230.995
L160.387 232.333
L160.462 232.235
L160.61 229.87
L160.982 245.669
L161.131 243.131
L161.354 232.758
L161.429 232.99
L161.578 233.671
L161.801 246.592
L161.875 247.155
L161.95 246.35
L162.173 250.793
L162.247 248.137
L162.322 249.579
L162.47 258.49
L162.619 256.042
L162.694 260.233
L162.768 259.236
L162.917 249.475
L163.14 227.189
L163.214 225.584
L163.363 228.453
L163.586 220.8
L163.81 228.927
L163.884 229.011
L163.958 228.487
L164.107 231.894
L164.182 230.926
L164.33 235.705
L164.702 261.235
L164.851 260.352
L165.074 248.275
L165.149 249.446
L165.223 249.51
L165.372 246.819
L165.521 257.76
L165.67 249.485
L165.893 228.329
L165.967 228.137
L166.19 219.482
L166.414 228.769
L166.562 221.644
L166.637 223.53
L167.009 244.513
L167.232 252.926
L167.306 251.875
L167.381 252.354
L167.604 264.05
L167.678 263.724
L168.497 220.178
L168.72 240.312
L168.943 237.014
L169.092 240.238
L169.241 229.786
L169.464 249.48
L169.687 242.775
L169.762 242.943
L169.91 235.394
L169.985 230.517
L170.059 231.005
L170.134 231.094
L170.282 230.393
L170.357 231
L170.58 241.877
L170.654 240.885
L170.729 239.389
L170.878 245.091
L171.324 270.927
L171.547 255.108
L171.994 221.422
L172.068 222.296
L172.217 230.408
L172.44 220.07
L172.589 230.63
L172.812 248.182
L173.11 244.089
L173.184 245.318
L173.258 244.657
L173.333 241.437
L173.407 242.188
L173.482 240.183
L173.705 229.89
L173.779 230.373
L173.928 247.476
L174.002 245.407
L174.151 238.273
L174.226 238.989
L174.449 252.516
L174.523 250.729
L174.598 251.297
L174.672 250.384
L174.895 237.878
L175.044 229.899
L175.342 249.831
L175.416 247.091
L175.565 241.403
L175.714 229.055
L175.788 229.297
L176.011 235.868
L176.086 235.503
L176.16 233.504
L176.234 234.254
L176.532 249.722
L176.681 249.599
L176.755 250.364
L176.904 243.22
L177.127 235.148
L177.202 234.466
L177.276 234.496
L177.574 222.454
L177.648 223.802
L178.169 272.704
L178.243 267.609
L178.392 251.638
L178.466 257.286
L178.541 255.133
L178.838 231.336
L178.913 230.852
L179.136 235.227
L179.359 245.836
L179.954 207.401
L180.103 219.921
L180.698 281.053
L180.773 278.367
L181.219 237.024
L181.517 252.897
L181.591 251.327
L182.038 232.106
L182.112 232.817
L182.261 229.88
L182.484 213.854
L182.558 214.54
L182.782 219.591
L182.93 217.171
L183.005 218.569
L183.228 228.502
L183.377 225.846
L183.526 237.35
L183.972 288.923
L184.121 293.45
L184.344 277.103
L184.716 216.021
L184.79 216.391
L185.014 240.292
L185.088 238.149
L185.162 239.571
L185.237 237.996
L185.386 225.189
L185.609 203.417
L185.758 209.346
L186.13 255.138
L186.278 249.021
L186.353 249.297
L186.502 246.972
L186.799 263.502
L186.948 282.831
L187.246 268.552
L187.692 200.844
L187.915 171.192
L187.99 175.028
L188.138 212.14
L188.362 276.896
L188.436 284.657
L188.51 284.583
L188.585 278.678
L188.882 228.932
L188.957 230.477
L189.031 235.034
L189.106 234.911
L189.18 233.375
L189.254 234.047
L189.403 237.903
L189.701 266.326
L189.775 261.621
L190.073 241.907
L190.445 226.527
L190.519 228.122
L190.668 241.388
L190.742 238.441
L190.891 224.246
L191.04 233.533
L191.263 246.671
L191.412 264.593
L191.486 262.307
L191.635 281.843
L191.71 278.876
L192.454 199.951
L192.528 198.208
L193.421 253.395
L193.495 254.817
L193.718 248.048
L193.867 250.087
L193.942 249.989
L194.09 248.29
L194.239 248.912
L194.388 244.815
L194.537 249.604
L194.686 246.014
L194.909 251.835
L194.983 250.384
L195.058 245.861
L195.206 253.193
L195.355 235.271
L195.43 227.712
L195.504 227.732
L195.653 235.701
L195.727 231.321
L195.95 259.67
L196.025 256.629
L196.099 253.247
L196.62 200.647
L196.694 196.934
L196.843 215.952
L197.066 245.16
L197.29 261.082
L197.438 275.632
L197.736 257.789
L197.959 236.885
L198.034 236.362
L198.257 224.093
L198.331 225.644
L198.406 223.476
L198.48 226.646
L198.778 258.875
L198.926 257.661
L199.001 258.91
L199.075 258.713
L199.298 213.325
L199.373 213.538
L199.522 226.626
L199.745 294.448
L200.191 162.981
L200.34 200.578
L200.638 319.933
L200.712 324.851
L200.861 300.412
L201.233 221.63
L201.307 218.692
L201.382 218.983
L201.456 219.26
L201.605 227.258
L201.828 217.813
L201.902 218.855
L202.2 207.672
L202.274 210.037
L203.018 282.194
L203.093 281.423
L203.316 272.043
L203.837 223.466
L203.986 236.051
L204.134 248.557
L204.283 242.687
L204.655 204.848
L204.953 225.017
L205.176 262.87
L205.325 228.379
L205.474 201.165
L205.622 232.319
L205.846 273.499
L206.143 283.596
L206.59 240.717
L206.738 250.64
L206.887 267.461
L206.962 265.669
L207.185 252.072
L207.557 181.664
L207.706 170.555
L207.78 172.046
L208.078 238.273
L208.301 266.869
L208.375 271.579
L208.45 271.129
L208.822 254.111
L209.045 259.744
L209.417 238.065
L209.714 221.526
L209.863 235.77
L210.086 256.417
L210.384 248.947
L210.458 250.142
L210.682 271.406
L210.756 268.745
L211.054 232.328
L211.351 265.239
L211.426 264.134
L211.574 235.992
L211.872 180.755
L211.946 179.239
L212.021 179.358
L212.095 180.597
L212.17 183.722
L212.318 179.906
L212.393 185.312
L212.988 301.651
L213.062 299.804
L213.806 258.031
L214.104 228.67
L214.327 220.573
L214.402 222.035
L214.55 219.67
L214.699 213.952
L214.774 214.673
L214.922 220.124
L215.146 213.513
L215.22 213.503
L215.294 215.325
L215.369 215.137
L215.443 215.29
L215.518 216.406
L215.741 237.883
L215.964 263.995
L216.336 294.946
L216.41 293.589
L216.485 290.009
L216.931 238.984
L217.006 238.757
L217.229 233.849
L217.452 214.925
L217.526 218.559
L217.675 231.622
L217.824 224.883
L217.973 229.49
L218.196 218.203
L218.27 218.84
L218.494 236.495
L218.642 226.206
L218.717 227.618
L219.386 248.315
L219.461 247.244
L219.535 248.132
L219.907 281.191
L220.056 267.861
L220.502 216.495
L220.577 211.39
L220.651 212.185
L220.726 212.002
L221.098 229.119
L221.246 236.466
L221.618 261.695
L221.767 259.167
L221.842 258.476
L221.99 241.763
L222.288 200.607
L222.437 213.557
L222.958 277.163
L223.181 270.7
L223.627 224.844
L223.702 225.421
L223.925 238.11
L224.222 272.778
L224.297 274.748
L224.371 273.608
L224.52 255.963
L224.818 203.515
L225.041 185.327
L225.115 188.166
L225.562 249.115
L225.636 250.102
L225.71 249.771
L225.785 249.12
L225.934 247.056
L226.231 259.236
L226.306 253.761
L226.529 227.278
L226.826 243.18
L227.198 269.678
L227.273 268.666
L227.496 258.446
L227.719 243.175
L227.868 248.206
L227.942 251.722
L228.017 248.098
L228.314 223.456
L228.463 215.725
L228.761 194.86
L228.835 198.494
L229.356 271.401
L229.43 270.009
L229.505 268.74
L229.579 269.224
L229.654 271.036
L229.728 269.204
L230.1 216.969
L230.174 221.975
L230.472 241.714
L230.621 247.959
L230.695 247.535
L230.77 247.821
L230.844 248.942
L230.918 251.82
L230.993 249.228
L231.216 233.632
L231.365 229.815
L231.514 225.061
L231.662 227.747
L231.737 225.816
L231.811 227.609
L232.258 256.17
L232.332 256.797
L232.555 241.082
L232.63 241.26
L232.704 242.144
L232.927 236.096
L233.076 249.841
L233.299 264.795
L233.374 266.439
L233.448 264.44
L234.043 210.343
L234.118 212.18
L234.341 222.676
L234.49 225.846
L234.638 217.26
L234.713 218.534
L235.085 243.699
L235.234 241.773
L235.308 242.617
L235.382 243.743
L235.829 271.06
L235.903 269.841
L236.126 263.447
L236.275 259.665
L236.424 261.779
L236.498 258.875
L237.168 195.28
L237.242 196.179
L237.912 236.589
L238.061 241.299
L238.135 240.578
L238.21 244.538
L238.656 296.067
L238.73 295.208
L239.549 208.971
L239.698 204.977
L239.772 205.643
L240.07 219.536
L240.59 270.409
L240.665 269.387
L240.814 267.313
L240.888 266.696
L241.111 259.142
L241.334 242.924
L241.409 241.892
L241.632 229.302
L241.706 231.237
L241.781 233.884
L242.078 219.304
L242.227 216.451
L242.525 208.808
L242.674 225.056
L243.046 276.299
L243.12 274.442
L243.566 245.782
L243.715 252.803
L243.79 251.119
L244.236 224.775
L244.385 236.964
L244.608 250.645
L244.682 251.756
L244.906 236.15
L245.054 230.946
L245.203 233.558
L245.278 233.252
L245.426 232.057
L245.575 231.306
L245.65 231.03
L245.798 238.021
L246.022 247.402
L246.096 246.231
L246.17 247.876
L246.319 253.356
L246.691 231.83
L246.914 237.947
L246.989 237.453
L247.063 237.039
L247.212 230.991
L247.286 231.326
L247.584 252.477
L247.658 247.446
L247.882 240.07
L247.956 240.416
L248.105 249.811
L248.179 249.757
L248.402 241.719
L248.626 234.017
L248.774 238.327
L248.849 235.992
L248.998 242.459
L249.072 241.201
L249.146 241.255
L249.37 242.775
L249.444 247.095
L249.518 245.856
L249.593 246.212
L249.742 255.661
L250.039 238.376
L250.262 221.886
L250.337 224.123
L250.411 222.755
L250.56 231.425
L250.634 229.351
L250.709 226.74
L250.932 239.764
L251.155 251.035
L251.23 252.911
L251.378 250.556
L251.453 252.546
L251.527 257.691
L251.602 256.293
L251.676 257.454
L251.825 265.274
L251.899 262.124
L252.494 219.561
L252.718 228.596
L252.866 229.682
L253.09 234.214
L253.164 233.479
L253.238 229.736
L253.313 231.859
L253.536 245.372
L253.61 245.555
L253.982 264.765
L254.28 243.299
L254.503 222.602
L254.726 226.127
L255.024 239.537
L255.247 245.353
L255.322 243.462
L255.396 243.625
L255.47 244.849
L255.694 252.536
L255.991 242.983
L256.066 243.309
L256.289 247.589
L256.363 247.308
L256.512 243.546
L256.586 246.246
L256.661 245.827
L256.81 227.367
L256.958 211.558
L257.405 252.507
L257.479 250.971
L257.851 228.754
L257.926 229.796
L258.074 240.588
L258.149 240.277
L258.298 250.941
L258.446 257.71
L258.818 245.516
L258.967 221.951
L259.042 223.684
L259.19 232.837
L259.339 230.714
L259.488 241.971
L259.786 230.378
L260.009 243.067
L260.232 255.908
L260.455 249.391
L260.53 248.359
L260.753 257.182
L260.902 260.539
L261.05 255.242
L261.348 219.289
L261.422 219.966
L261.869 237.977
L262.092 230.349
L262.166 232.24
L262.241 232.225
L262.39 236.14
L262.464 232.931
L262.538 234.066
L262.613 233.958
L262.687 233.059
L262.836 240.297
L263.059 254.61
L263.282 242.06
L263.357 243.082
L263.58 249.125
L263.654 247.53
L263.878 253.647
L264.25 235.863
L264.324 235.083
L264.398 235.232
L264.547 237.552
L264.696 243.22
L264.77 242.43
L264.845 243.842
L265.068 252.442
L265.142 250.171
L265.44 225.179
L265.589 226.72
L265.738 234.525
L265.961 251.297
L266.333 233.385
L266.407 235.138
L266.705 218.559
L267.002 239.408
L267.598 265.876
L267.672 265.427
L267.895 254.136
L268.267 232.417
L268.565 243.832
L268.639 246.059
L268.714 245.412
L268.862 234.669
L268.937 234.812
L269.086 242.01
L269.16 241.442
L269.458 229.653
L269.606 225.135
L269.83 213.365
L269.978 218.998
L270.202 243.161
L270.499 269.634
L270.574 271.608
L270.946 262.292
L271.466 224.957
L271.69 232.467
L271.764 232.975
L271.913 238.006
L271.987 236.219
L272.136 227.258
L272.21 228.606
L272.434 238.075
L272.657 229.87
L272.806 223.718
L272.954 233.301
L273.178 256.777
L273.326 254.709
L273.401 255.992
L273.475 259.379
L273.55 258.007
L273.698 251.603
L273.922 260.327
L274.517 228.665
L274.74 241.008
L274.814 239.394
L274.963 232.249
L275.038 232.565
L275.261 216.253
L275.558 236.446
L275.633 234.846
L275.856 239.166
L276.005 243.876
L276.154 239.616
L276.6 255.336
L276.749 251.657
L276.823 253.208
L276.972 258.169
L277.046 257.839
L277.567 225.885
L277.642 226.893
L277.865 235.064
L278.014 222.666
L278.088 223.906
L278.386 246.73
L278.534 244.311
L278.609 244.671
L278.758 249.371
L278.832 247.742
L279.055 232.57
L279.13 235.829
L279.278 222.928
L279.353 224.385
L279.576 237.596
L279.725 232.758
L279.948 250.65
L280.097 260.169
L280.171 260.006
L280.246 258.673
L280.469 245.812
L280.692 226.922
L280.915 244.726
L280.99 242.183
L281.064 242.306
L281.213 248.3
L281.287 247.984
L281.659 230.714
L281.734 232.106
L281.957 244.943
L282.329 231.568
L282.403 232.412
L282.701 247.569
L282.775 247.92
L283.147 231.079
L283.222 231.622
L283.594 242.914
L283.668 242.617
L283.742 243.57
L283.891 239.482
L283.966 240.174
L284.338 258.545
L284.412 260.006
L284.561 255.133
L284.784 236.441
L284.858 238.732
L284.933 241.102
L285.082 235.019
L285.23 238.663
L285.454 224.72
L285.528 228.621
L285.677 233.691
L285.826 230.304
L286.049 238.46
L286.346 227.293
L287.09 263.033
L287.165 262.712
L287.314 253.608
L287.537 237.631
L287.611 238.302
L287.686 237.468
L287.834 232.536
L287.909 234.377
L288.058 245.659
L288.132 242.662
L288.355 227.169
L288.578 236.708
L288.653 236.031
L288.802 243.901
L288.95 251.751
L289.099 247.604
L289.546 233.642
L289.62 232.087
L289.769 238.268
L289.992 229.07
L290.29 258.332
L290.364 253.874
L290.513 251.124
L290.662 253.647
L290.736 253.163
L291.331 226.828
L291.48 227.638
L291.554 227.367
L291.703 225.333
L291.778 223.298
L291.852 224.839
L292.075 244.834
L292.224 234.772
L292.298 235.064
L292.522 253.222
L292.596 251.396
L292.819 242.139
L292.894 241.961
L293.042 236.772
L293.117 237.024
L293.489 265.358
L293.563 263.373
L293.935 237.29
L294.158 228.329
L294.307 218.302
L294.382 219.63
L294.754 235.775
L295.126 245.58
L295.349 232.585
L295.423 234.56
L295.572 244.459
L295.795 240.672
L296.093 246.538
L296.167 247.876
L296.465 262.884
L296.539 260.263
L296.837 232.876
L296.911 232.783
L297.134 233.745
L297.283 231.82
L297.358 231.983
L297.506 237.651
L297.73 246.577
L297.878 244.745
L297.953 243.556
L298.027 243.585
L298.176 245.718
L298.474 240.03
L298.548 238.465
L298.771 249.574
L298.994 228.556
L299.069 227.475
L299.218 204.799
L299.292 208.206
L299.515 242.894
L299.59 242.771
L299.738 235.938
L299.962 242.617
L300.11 233.795
L300.185 236.757
L300.557 281.922
L300.631 281.621
L300.854 255.968
L301.078 237.399
L301.152 233.558
L301.226 235.078
L301.301 238.855
L301.524 229.904
L301.598 226.285
L301.747 212.644
L301.896 220.079
L301.97 219.289
L302.045 218.687
L302.789 268.528
L302.863 267.175
L302.938 268.221
L303.012 273.475
L303.086 270.043
L303.458 216.298
L303.533 215.908
L303.682 210.294
L303.756 209.692
L304.054 225.387
L304.426 251.361
L304.5 252.309
L304.723 236.984
L304.872 240.613
L304.946 238.959
L305.244 252.042
L305.393 245.397
L305.69 263.887
L305.765 263.61
L305.914 252.275
L306.137 235.622
L306.286 237.888
L306.36 236.17
L306.509 222.992
L306.658 227.238
L306.732 230.62
L306.955 248.804
L307.104 228.448
L307.253 235.483
L307.327 233.943
L307.476 239.882
L307.625 225.624
L307.699 226.828
L307.848 218.904
L307.922 219.102
L308.071 230.675
L308.518 280.12
L308.592 277.311
L309.113 232.822
L309.336 242.771
L309.708 216.831
L309.857 221.432
L310.006 228.793
L310.303 246.854
L310.378 249.752
L310.526 243.812
L310.75 254.975
L311.122 233.049
L311.494 248.996
L311.568 248.187
L311.717 244.657
L311.866 253.514
L311.94 250.566
L312.089 231.316
L312.238 240.287
L312.684 222.889
L313.13 254.195
L313.205 253.04
L313.354 237.468
L313.428 237.646
L313.651 263.151
L313.726 258.648
L314.023 220.845
L314.395 244.148
L314.47 253.361
L314.544 252.092
L314.618 245.841
L314.693 246.024
L314.842 254.95
L314.99 237.32
L315.065 239.576
L315.139 243.348
L315.511 229.391
L315.66 230.912
L315.883 239.236
L316.032 247.179
L316.255 234.353
L316.33 232.482
L316.404 235.291
L316.627 257.641
L316.702 251.336
L316.776 252.753
L316.85 261.818
L316.925 261.714
L317.148 235.518
L317.222 239.611
L317.446 227.88
L317.52 230.205
L317.669 235.572
L317.818 248.665
L317.892 247.994
L318.041 234.274
L318.19 238.959
L318.264 237.468
L318.338 235.32
L318.71 245.363
L318.859 251.253
L318.934 251.04
L319.231 230.141
L319.306 230.146
L319.38 231.761
L319.529 224.182
L319.826 240.455
L319.975 247.816
L320.198 260.021
L320.645 237.3
L320.719 238.154
L320.942 248.048
L321.091 238.179
L321.389 214.081
L321.686 235.301
L321.761 235.251
L321.91 239.507
L321.984 239.315
L322.058 238.283
L322.282 257.187
L322.43 237.073
L322.728 257.394
L322.802 258.88
L323.026 238.9
L323.1 239.319
L323.249 230.324
L323.77 258.392
L323.993 231.489
L324.067 235.301
L324.142 239.734
L324.29 230.112
L324.365 232.205
L324.439 231.82
L324.588 217.823
L324.886 233.913
L324.96 232.003
L325.332 255.884
L325.406 255.943
L325.481 257.587
L325.555 255.656
L325.778 242.657
L325.927 236.392
L326.15 221.205
L326.225 224.449
L326.374 228.399
L326.746 243.388
L326.82 240.095
L326.894 241.744
L327.118 256.748
L327.415 261.27
L327.49 260.836
L327.638 246.029
L327.713 246.306
L327.787 246.078
L327.862 247.021
L328.01 242.42
L328.085 242.415
L328.234 234.461
L328.382 226.942
L328.457 229.016
L328.68 216.554
L329.126 238.599
L329.201 234.649
L329.35 217.122
L329.647 243.723
L329.796 228.305
L329.87 233.089
L329.945 234.466
L330.019 233.35
L330.689 306.129
L330.986 261.285
L331.284 210.501
L331.433 199.092
L331.507 198.539
L331.73 189.252
L331.805 191.034
L331.954 206.868
L332.251 241.828
L332.698 264.45
L332.772 263.783
L332.921 249.465
L332.995 254.422
L333.144 263.507
L333.218 257.261
L333.442 224.108
L333.516 215.883
L333.59 218.643
L333.739 236.328
L333.962 276.353
L334.037 271.149
L334.409 250.793
L334.483 247.342
L334.558 247.426
L334.632 247.658
L335.004 232.817
L335.376 187.084
L335.45 189.607
L335.674 178.331
L335.748 181.466
L335.971 220.129
L336.194 265.644
L336.715 316.344
L336.79 314.063
L336.864 310.577
L336.938 315.899
L337.013 311.683
L337.534 210.067
L337.608 211.005
L337.98 231.736
L338.054 228.966
L338.352 195.176
L338.426 195.512
L338.575 211.089
L338.65 219.304
L338.724 215.305
L338.798 216.391
L338.947 235.355
L339.022 233.03
L339.096 233.894
L339.394 254.378
L339.468 259.27
L339.542 258.747
L339.766 241.64
L339.914 245.98
L340.063 241.902
L340.138 243.417
L340.286 257.034
L340.361 263.161
L340.435 263.146
L340.51 263.205
L340.584 267.629
L341.03 244.76
L341.179 242.188
L341.402 217.542
L341.477 217.67
L341.551 219.403
L341.626 218.006
L341.7 221.013
L341.998 258.441
L342.072 254.259
L342.295 240.608
L342.444 235.088
L342.667 239.413
L342.965 226.261
L343.039 226.567
L343.262 250.477
L343.486 271.826
L344.081 233.617
L344.23 222.385
L344.304 222.785
L344.378 228.142
L344.602 206.799
L344.75 208.561
L344.825 209.721
L345.048 231.761
L345.271 255.202
L345.42 248.063
L345.569 251.386
L345.643 251.485
L345.792 260.524
L345.941 268.394
L346.015 268.695
L346.09 270.735
L346.164 266.054
L346.238 266.538
L346.313 267.683
L346.462 257.31
L346.685 235.77
L346.834 240.707
L347.131 189.321
L347.28 183.707
L347.354 184.571
L347.578 207.786
L347.95 261.69
L348.173 276.684
L348.322 285.413
L348.396 294.512
L348.47 294.482
L348.694 268.528
L348.768 261.369
L348.991 225.214
L349.066 227.095
L349.214 224.602
L349.363 230.24
L349.438 228.907
L349.586 219.749
L349.661 219.823
L349.735 213.345
L350.182 257.157
L350.405 242.85
L350.628 231.316
L350.702 227.559
L350.851 241.393
L350.926 248.898
L351 247.411
L351.149 242.469
L351.372 252.768
L351.521 241.334
L351.595 242.78
L351.744 238.974
L351.818 245.264
L352.19 215.374
L352.265 214.412
L353.083 263.428
L353.232 256.441
L353.381 263.511
L353.678 254.871
L353.827 237.172
L353.902 239.013
L353.976 238.727
L354.125 233.276
L354.199 236.994
L354.274 235.893
L354.571 225.416
L354.72 215.666
L355.241 245.58
L355.39 233.938
L355.613 242.03
L355.836 255.923
L356.357 231.573
L356.431 231.795
L356.506 233.76
L356.729 260.495
L357.175 243.299
L357.25 244.839
L357.473 258.327
L357.547 258.095
L358.068 234.506
L358.142 232.486
L358.514 202.469
L358.589 203.283
L358.663 204.666
L358.886 242.173
L359.035 252.758
L359.11 250.255
L359.184 242.45
L359.258 242.573
L359.333 238.989
L359.482 248.29
L359.556 245.753
L359.63 244.523
L360.077 258.871
L360.151 260.258
L360.449 249.189
L360.598 259.162
L360.672 258.007
L361.193 223.234
L361.267 223.333
L361.49 230.556
L361.639 227.826
L361.862 243.891
L362.011 218.05
L362.16 241.615
L362.234 238.307
L362.309 236.668
L362.458 221.733
L362.681 240.84
L362.755 240.05
L362.83 236.757
L363.127 261.793
L363.276 257.414
L363.425 263.931
L363.574 250.843
L363.722 233.326
L363.871 238.046
L363.946 237.661
L364.094 232.763
L364.169 235.75
L364.243 235.503
L364.392 227.841
L364.69 245.718
L364.764 247.293
L364.913 239.724
L365.062 252.971
L365.21 229.702
L365.285 230.61
L365.434 236.732
L365.508 237.132
L365.582 236.51
L365.731 240.025
L365.806 236.777
L365.88 237.74
L365.954 240.81
L366.103 236.634
L366.252 252.398
L366.326 252.408
L366.475 267.274
L366.55 266.375
L366.624 259.132
L366.698 262.82
L366.773 262.095
L366.922 245.836
L367.07 216.179
L367.145 216.683
L367.294 222.444
L367.442 210.008
L367.517 201.59
L367.666 215.266
L367.74 213.977
L367.889 233.355
L368.038 255.933
L368.112 255.563
L368.261 241.961
L368.335 242.311
L368.558 248.823
L368.856 261.142
L369.005 245.224
L369.079 246.666
L369.154 245.738
L369.228 247.342
L369.377 252.033
L369.451 251.524
L369.6 268.454
L369.674 265.792
L369.823 254.388
L370.121 229.386
L370.344 218.509
L370.493 229.697
L370.567 229.154
L370.642 228.482
L370.865 206.966
L370.939 207.366
L371.46 249.539
L371.534 248.937
L371.683 243.649
L371.832 253.326
L371.981 247.683
L372.055 248.932
L372.278 268.784
L372.502 251.83
L372.576 252.566
L372.65 252.294
L372.725 248.488
L372.799 249.367
L372.874 252.082
L373.171 240.835
L373.469 211.894
L373.543 214.436
L373.692 215.088
L373.915 248.419
L373.99 244.237
L374.138 249.238
L374.362 233.513
L374.436 236.663
L374.734 258.451
L374.808 258.234
L375.031 235.227
L375.106 238.381
L375.254 243.723
L375.329 242.079
L375.478 244.716
L375.626 224.409
L375.85 210.921
L376.073 224.113
L376.296 243.195
L376.445 237.117
L376.519 240.83
L376.594 240.42
L376.668 240.104
L376.817 252.729
L377.04 288.054
L377.114 285.803
L377.189 280.925
L377.263 283.112
L377.338 284.08
L377.486 274.773
L377.635 260.692
L377.933 213.483
L378.156 197.931
L378.23 196.534
L378.305 197.211
L378.379 197.887
L378.454 200.109
L378.602 216.539
L378.677 215.853
L378.751 209.529
L378.826 212.081
L379.272 256.827
L379.421 266.276
L379.57 273.855
L379.644 273.944
L379.942 257.444
L380.016 260.959
L380.09 269.15
L380.165 268.789
L380.388 260.12
L380.462 260.431
L380.834 227.776
L380.983 219.788
L381.132 210.408
L381.206 210.965
L381.355 219.754
L381.43 218.756
L381.578 207.865
L381.653 207.998
L382.025 251.47
L382.099 248.774
L382.322 242.316
L382.471 238.544
L382.918 263.734
L382.992 261.764
L383.215 240.529
L383.513 246.152
L383.662 259.922
L383.736 258.169
L383.885 246.997
L383.959 247.318
L384.182 221.279
L384.257 223.052
L384.629 285.205
L384.703 281.813
L385.075 233.425
L385.447 209.736
L385.596 208.482
L385.819 190.081
L385.968 203.54
L386.489 264.593
L386.563 263.734
L386.935 245.777
L387.01 247.224
L387.084 246.735
L387.158 246.937
L387.307 254.565
L387.456 251.188
L387.902 267.654
L388.051 258.846
L388.423 224.286
L388.795 235.098
L388.944 221.941
L389.093 210.106
L389.167 210.916
L389.39 240.944
L389.539 267.328
L389.614 267.175
L389.762 246.883
L389.986 219.823
L390.06 221.269
L390.209 229.569
L390.358 215.419
L390.506 227.011
L390.878 262.796
L390.953 262.568
L391.027 263.398
L391.399 275.217
L391.548 273.825
L391.622 274.368
L391.771 251.801
L391.994 218.519
L392.069 217.971
L392.366 192.096
L392.441 192.18
L392.515 191.73
L392.59 187.43
L392.738 195.334
L393.557 297.558
L393.631 296.704
L393.78 285.245
L394.003 261.147
L394.078 260.386
L394.301 234.762
L394.598 210.082
L394.747 208.097
L394.97 225.747
L395.045 220.795
L395.119 223.728
L395.417 253.41
L395.491 254.175
L395.566 254.067
L395.714 249.347
L395.938 239.887
L396.235 211.094
L396.607 224.572
L396.682 223.185
L396.83 214.219
L396.979 236.782
L397.351 281.29
L397.574 295.154
L397.649 294.769
L397.872 287.708
L398.393 211.8
L398.616 177.304
L398.69 176.81
L398.839 180.409
L399.062 221.462
L399.211 242.642
L399.286 241.719
L399.36 243.832
L399.509 262.578
L399.658 277.064
L399.732 276.175
L399.806 277.745
L399.881 283.778
L399.955 282.055
L400.476 202.212
L400.55 199.684
L400.625 202.054
L400.848 215.256
L400.922 214.708
L401.592 268.375
L401.666 268.108
L401.815 263.803
L402.038 255.726
L402.113 257.123
L402.41 274.112
L402.485 273.361
L402.559 270.468
L403.303 187.005
L403.378 187.549
L403.601 184.863
L403.675 188.906
L404.568 335.421
L404.642 328.46
L405.238 198.435
L405.386 190.61
L405.535 189.38
L405.61 191.849
L406.056 237.907
L406.13 237.35
L406.279 232.931
L406.354 233.676
L406.428 232.427
L406.502 235.315
L406.726 255.889
L406.874 258.13
L406.949 257.804
L407.246 252.906
L407.321 254.057
L407.544 258.599
L407.842 270.685
L407.916 266.439
L408.214 228.221
L408.288 229.332
L408.437 234.935
L408.511 232.709
L408.734 216.549
L409.032 238.144
L409.255 249.135
L409.478 239.275
L409.702 230.867
L409.776 231.311
L409.999 237.888
L410.222 248.211
L410.371 240.228
L410.52 235.691
L410.594 237.32
L410.669 235.923
L410.818 223.471
L410.966 226.251
L411.041 227.495
L411.338 239.448
L411.413 238.263
L411.487 240.717
L411.785 274.171
L411.859 275.129
L412.008 264.148
L412.529 226.651
L412.603 227.209
L412.901 252.694
L412.975 251.963
L413.273 211.662
L413.347 213.246
L413.645 241.26
L413.794 253.287
L414.017 224.513
L414.091 225.14
L414.314 255.143
L414.463 270.078
L414.761 262.149
L414.91 258.88
L414.984 257.745
L415.654 201.229
L415.728 203.071
L415.802 208.215
L415.877 207.203
L415.951 205.554
L416.323 221.921
L416.398 218.672
L416.472 222.849
L416.918 286.267
L417.142 301.937
L417.216 304.001
L417.365 292.162
L417.737 242.943
L417.811 240.213
L418.258 205.199
L418.481 192.614
L418.63 196.623
L418.704 193.453
L418.778 193.602
L419.002 219.586
L419.225 238.376
L419.522 252.038
L419.597 251.218
L419.746 248.34
L420.266 260.337
L420.341 260.189
L420.564 268.315
L420.713 259.858
L420.936 243.58
L421.01 242.499
L421.234 260.603
L421.308 259.972
L421.457 244.622
L421.68 229.845
L421.754 229.662
L421.978 224.888
L422.052 225.135
L422.126 225.737
L422.275 220.529
L422.498 237.256
L422.573 236.189
L422.722 227.386
L423.094 237.236
L423.168 236.871
L423.391 225.239
L423.466 226.142
L424.061 268.083
L424.358 257.246
L424.582 239.186
L424.656 238.934
L424.879 223.723
L425.102 240.559
L425.177 238.653
L425.251 240.43
L425.4 252.62
L425.474 251.662
L425.623 247.012
L425.698 248.117
L426.07 229.919
L426.218 218.653
L426.516 233.745
L426.665 244.424
L426.739 240.603
L426.888 218.105
L427.186 237.636
L427.409 261.068
L427.483 263.847
L427.632 273.766
L427.855 249.924
L427.93 252.877
L428.004 252.067
L428.227 244.755
L428.45 233.321
L428.525 234.106
L428.674 230.482
L428.822 225.505
L428.897 224.35
L429.046 228.769
L429.269 239.907
L429.343 240.929
L429.418 243.718
L429.566 236.609
L429.864 223.723
L429.938 226.285
L430.31 262.835
L430.385 260.194
L430.608 239.616
L430.682 239.063
L430.757 239.468
L430.906 236.871
L431.054 243.709
L431.203 253.978
L431.352 242
L431.426 236.258
L431.501 237.211
L431.65 245.985
L431.798 244.8
L431.873 244.819
L432.022 246.281
L432.245 225.658
L432.394 218.712
L432.468 221.126
L432.542 219.828
L432.691 227.786
L432.914 240.292
L432.989 240.885
L433.063 240.49
L433.286 243.56
L433.361 243.699
L433.51 249.811
L433.956 281.655
L434.626 216.357
L434.849 210.64
L434.923 205.332
L434.998 206.621
L435.146 222.355
L435.444 245.096
L435.667 253.529
L435.965 220.79
L436.039 223.042
L436.262 233.874
L436.56 270.438
L436.783 259.967
L437.081 234.461
L437.23 234.777
L437.304 233.77
L437.453 226.888
L437.899 251.593
L438.122 246.093
L438.197 247.1
L438.346 240.608
L438.569 231.662
L439.015 252.763
L439.164 242.83
L439.387 223.323
L439.462 225.14
L439.61 237.522
L439.685 237.192
L439.834 237.725
L439.908 237.266
L439.982 232.674
L440.057 234.708
L440.206 241.403
L440.429 231.529
L440.503 232.017
L440.726 245.032
L440.875 243.274
L440.95 244.143
L441.173 248.977
L441.247 250.314
L441.322 249.648
L441.396 250.255
L441.47 253.203
L441.545 252.309
L441.842 230.265
L441.917 231.153
L442.066 235.394
L442.14 235.078
L442.289 241.758
L442.363 246.468
L442.438 244.681
L442.661 237.409
L442.81 238.811
L442.884 238.278
L443.107 256.881
L443.405 251.524
L443.702 223.723
L443.777 225.5
L444 244.819
L444.074 239.714
L444.149 240.169
L444.372 246.878
L444.446 246.241
L444.595 232.728
L444.67 233.864
L444.744 234.15
L444.893 238.446
L445.116 221.516
L445.265 233.543
L445.339 229.998
L445.488 217.961
L445.562 218.332
L445.786 223.995
L446.083 253.568
L446.306 273.223
L446.455 270.927
L446.678 285.497
L447.05 253.741
L447.571 218.174
L447.646 219.319
L447.794 225.579
L447.943 218.855
L448.092 231.736
L448.166 229.969
L448.315 219.551
L448.464 226.162
L448.538 224.938
L448.613 220.899
L448.762 235.908
L448.985 247.49
L449.059 247.184
L449.282 233.563
L449.431 241.403
L449.506 240.534
L449.58 240.025
L449.729 248.927
L449.803 247.915
L449.878 247.955
L449.878 247.955" style="fill:none;stroke:#808080;stroke-linecap:square;"/>
   </g>
  </g>
 </g>
 <defs>
  <clipPath id="p7ff5b81e1d">
   <rect height="345.6" width="446.4" x="72.0" y="43.2"/>
  </clipPath>
 </defs>
</svg>
