<?xml version="1.0" encoding="utf-8" standalone="no"?>
<!DOCTYPE svg PUBLIC "-//W3C//DTD SVG 1.1//EN"
  "http://www.w3.org/Graphics/SVG/1.1/DTD/svg11.dtd">
<!-- Created with matplotlib (http://matplotlib.org/) -->
<svg height="432pt" version="1.1" viewBox="0 0 576 432" width="576pt" xmlns="http://www.w3.org/2000/svg" xmlns:xlink="http://www.w3.org/1999/xlink">
 <defs>
  <style type="text/css">
*{stroke-linecap:butt;stroke-linejoin:round;}
  </style>
 </defs>
 <g id="figure_1">
  <g id="patch_1">
   <path d="
M0 432
L576 432
L576 0
L0 0
z
" style="fill:#ffffff;"/>
  </g>
  <g id="axes_1">
   <g id="line2d_1">
    <path clip-path="url(#p7ff5b81e1d)" d="
M72 213.618
L72.0744 211.412
L72.1488 210.721
L72.372 213.411
L72.4464 214.609
L72.5208 214.511
L72.5952 213.537
L72.6696 214.004
L73.116 224.159
L73.2648 222.16
L73.7856 211.827
L73.86 211.343
L74.0088 212.518
L74.0832 211.999
L74.3064 207.852
L74.3808 207.8
L74.4552 208.146
L74.9016 219.649
L75.0504 223.807
L75.2736 218.612
L75.348 219.436
L75.4968 221.659
L75.5712 221.722
L75.9432 229.51
L76.092 219.263
L76.3152 207.455
L76.3896 206.913
L76.6872 200.468
L76.836 203.872
L77.2824 220.438
L77.6544 227.189
L77.7288 227.137
L77.8032 226.906
L77.952 224.326
L78.2496 217.863
L78.6216 201.51
L78.8448 205.997
L79.3656 221.884
L79.44 221.181
L79.5144 221.642
L79.7376 228.283
L79.812 227.978
L80.0352 222.5
L80.184 218.986
L80.6304 201.718
L80.7792 204.892
L81.2256 220.455
L81.3744 221.878
L81.4488 221.613
L81.5976 223.157
L81.7464 224.573
L81.8208 224.32
L81.8952 224.568
L81.9696 224.021
L82.4904 213.261
L82.788 202.789
L82.8624 202.536
L82.9368 203.273
L83.4576 218.358
L83.6064 219.787
L83.7552 217.949
L83.8296 218.433
L83.904 220.058
L83.9784 219.793
L84.0528 219.821
L84.276 221.734
L84.4248 217.506
L84.7968 202.841
L84.8712 201.747
L84.9456 202.363
L85.2432 216.884
L85.6896 242.424
L85.8384 238.49
L86.136 218.18
L86.4336 203.757
L86.6568 200.093
L86.7312 200.543
L86.9544 205.9
L87.3264 222.045
L87.6984 211.4
L87.7728 211.804
L87.8472 211.637
L87.9216 211.648
L88.0704 212.339
L88.1448 212.241
L88.368 217.771
L88.5168 221.596
L88.8144 217.909
L89.0376 214.401
L89.2608 210.001
L89.6328 218.249
L89.9304 215.789
L90.0792 222.667
L90.228 229.798
L90.4512 221.256
L90.5256 222.108
L90.6 223.738
L90.6744 223.404
L90.972 217.304
L91.5672 209.281
L91.8648 203.141
L92.3856 219.401
L92.6088 214.828
L92.7576 212.431
L92.9064 217.846
L93.0552 221.336
L93.2784 214.661
L93.4272 218.347
L93.576 222.552
L93.6504 222.396
L93.8736 216.671
L94.0224 218.289
L94.1712 219.908
L94.32 218.589
L94.3944 218.94
L94.4688 218.381
L94.6176 213.779
L94.7664 207.432
L94.8408 207.478
L95.064 211.815
L95.2872 219.424
L95.3616 218.191
L95.5848 217.333
L95.6592 217.46
L96.18 224.015
L96.2544 223.617
L96.4032 221.054
L96.8496 202.409
L96.9984 201.77
L97.0728 201.983
L97.2216 208.981
L97.5936 223.151
L97.668 224.395
L97.7424 223.9
L97.8168 223.646
L97.8912 223.853
L97.9656 223.468
L98.1144 221.774
L98.1888 221.964
L98.3376 220.714
L98.6352 216.268
L99.0072 208.152
L99.0816 207.478
L99.156 207.512
L99.2304 207.478
L99.3048 208.163
L99.6024 216.59
L99.6768 217.644
L99.9 227.482
L99.9744 225.864
L100.198 216.728
L100.346 214.908
L100.421 215.732
L100.57 220.611
L101.09 209.292
L101.165 210.45
L101.388 216.774
L101.611 213.883
L101.686 214.05
L101.983 219.839
L102.058 220.167
L102.206 219.908
L102.43 218.572
L102.504 218.376
L102.727 210.317
L102.876 204.972
L102.95 206.107
L103.099 204.552
L103.322 207.27
L103.471 212.04
L103.918 230.99
L104.066 235.011
L104.29 226.371
L104.513 221.204
L104.587 220.87
L104.81 213.779
L104.885 213.958
L104.959 213.952
L105.182 209.384
L105.406 203.411
L105.554 201.712
L105.629 202.484
L106.373 225.466
L106.447 223.738
L106.596 220.95
L106.968 209.874
L107.042 209.609
L107.117 210.081
L107.414 221.907
L107.638 228.542
L108.01 219.568
L108.158 220.363
L108.456 217.039
L108.53 218.255
L108.679 223.133
L109.349 204.701
L109.572 201.384
L109.646 200.963
L109.795 207.409
L110.093 220.092
L110.242 220.622
L110.465 225.334
L111.06 210.963
L111.209 214.614
L111.283 213.647
L111.358 214.09
L111.581 218.307
L111.878 225.869
L112.027 224.378
L112.176 223.358
L112.25 223.324
L112.622 218.618
L112.697 218.773
L113.143 207.04
L113.218 207.121
L113.292 207.449
L113.515 202.248
L113.59 202.397
L113.738 204.511
L114.185 221.089
L114.408 224.101
L114.482 224.389
L114.706 220.098
L114.854 221.935
L115.226 210.623
L115.45 215.761
L115.747 214.205
L115.822 215.421
L116.045 221.705
L116.119 222.396
L116.268 225.155
L116.342 224.303
L116.64 216.625
L116.789 216.538
L116.938 212.57
L117.161 206.107
L117.235 206.147
L117.31 207.299
L117.384 207.236
L117.458 207.069
L117.682 211.325
L118.128 227.344
L118.946 205.468
L119.021 205.727
L119.244 209.609
L119.318 209.482
L119.393 209.983
L119.616 216.855
L119.69 216.573
L119.839 214.079
L119.914 214.349
L120.062 220.328
L120.36 236.422
L120.509 237.176
L120.658 231.71
L120.955 216.273
L121.104 214.223
L121.178 214.701
L121.327 206.234
L121.625 192.006
L121.699 190.451
L121.774 190.699
L121.997 196.684
L122.146 204.425
L122.592 241.352
L122.741 246.444
L122.815 245.425
L123.41 212.794
L123.782 202.588
L123.931 201.055
L124.006 201.482
L124.303 213.549
L124.526 222.195
L124.675 217.143
L124.824 220.202
L124.898 219.182
L125.122 213.848
L125.27 211.118
L125.419 208.388
L125.568 210.369
L125.642 209.649
L125.717 210.012
L126.089 220.518
L126.535 235.788
L127.279 206.406
L127.354 205.802
L127.502 208.722
L127.651 213.094
L127.8 211.337
L127.874 211.464
L128.098 208.181
L128.172 209.068
L128.246 208.97
L128.321 209.281
L128.544 215.012
L128.842 223.865
L128.99 227.765
L129.065 227.903
L129.214 224.378
L129.511 215.582
L129.734 206.919
L129.883 203.377
L129.958 204.045
L130.33 212.092
L130.553 215.991
L130.627 215.939
L130.999 220.058
L131.074 221.365
L131.148 221.192
L131.222 220.841
L131.371 226.215
L131.446 225.749
L132.041 213.376
L132.338 216.141
L132.487 212.316
L132.636 214.897
L132.785 217.731
L132.859 217.725
L133.008 219.758
L133.231 210.461
L133.306 210.997
L133.38 211.74
L133.529 209.396
L133.901 201.942
L134.05 205.658
L134.198 212.403
L134.422 229.838
L134.57 231.007
L134.719 225.029
L134.868 220.023
L134.942 219.66
L135.091 221.555
L135.166 221.515
L135.24 221.601
L135.389 223.83
L135.538 221.849
L135.91 206.314
L135.984 205.853
L136.133 207.391
L136.282 209.35
L136.654 217.978
L136.728 217.471
L136.877 215.928
L136.951 216.389
L137.249 222.644
L137.472 215.283
L137.621 210.358
L137.695 211.585
L137.77 211.504
L137.844 210.824
L137.993 214.954
L138.439 229.072
L138.514 229.446
L138.588 228.87
L139.109 199.777
L139.63 215.853
L139.704 215.755
L139.778 216.026
L139.927 220.409
L140.15 228.029
L140.299 223.537
L140.671 209.073
L140.894 205.594
L140.969 206.274
L141.118 212.662
L141.341 221.728
L141.564 219.965
L141.638 219.493
L141.862 221.912
L141.936 221.619
L142.159 218.22
L142.234 218.508
L142.308 218.981
L142.382 218.762
L142.531 216.302
L142.903 220.346
L142.978 219.919
L143.052 220.772
L143.126 220.639
L143.275 217.022
L143.35 217.218
L143.647 214.125
L144.019 199.512
L144.094 198.509
L144.391 206.101
L144.54 208.745
L144.614 208.664
L144.763 212.27
L145.21 232.315
L145.805 218.837
L145.879 218.583
L145.954 218.831
L146.177 225.334
L146.251 224.424
L146.698 209.621
L146.921 208.152
L146.995 208.054
L147.07 208.457
L147.218 211.187
L147.293 211.158
L147.367 211.274
L147.59 219.338
L147.665 220.23
L147.739 220.133
L147.962 212.351
L148.037 212.495
L148.334 219.637
L148.409 218.716
L148.558 214.914
L148.781 204.252
L148.855 204.569
L149.302 217.512
L149.525 228.035
L149.674 226.866
L150.046 232.459
L150.12 231.871
L150.492 215.513
L150.864 195.785
L150.938 196.862
L151.31 214.067
L151.385 214.972
L151.459 214.718
L151.534 214.822
L151.757 216.774
L151.98 213.007
L152.278 218.756
L152.352 217.627
L152.426 218.324
L152.575 222.621
L152.798 216.884
L152.947 218.71
L153.096 214.217
L153.17 214.989
L153.245 214.528
L153.319 213.324
L153.394 213.647
L153.542 213.854
L153.691 212.547
L153.84 217.247
L154.138 229.158
L154.212 229.095
L154.286 228.721
L154.733 219.217
L155.03 208.814
L155.254 203.29
L155.328 202.812
L155.551 199.944
L155.626 200.249
L156.146 219.51
L156.444 228.749
L156.518 230.063
L156.816 220.801
L156.89 221.342
L156.965 221.941
L157.114 219.896
L157.262 216.216
L157.486 208.843
L157.709 203.44
L158.155 221.544
L158.453 235.385
L158.527 236.727
L158.602 235.633
L159.643 191.459
L159.792 197.213
L160.015 203.112
L160.238 213.163
L160.462 225.409
L160.61 227.678
L160.685 227.569
L160.908 228.404
L161.206 219.516
L161.28 219.937
L161.429 220.755
L161.801 215.933
L162.024 208.952
L162.098 210.162
L162.694 234.533
L162.768 233.507
L163.066 225
L163.289 218.358
L163.512 192.963
L163.735 168.471
L163.81 167.446
L163.884 168.419
L164.033 181.183
L164.628 254.33
L164.702 256.795
L164.926 251.421
L165.149 237.856
L165.67 193.072
L165.818 191.943
L165.893 192.502
L166.116 199.748
L166.414 212.138
L166.786 229.239
L166.86 229.395
L167.083 232.799
L167.158 232.033
L167.976 205.203
L168.05 205.18
L168.199 208.682
L168.274 210.329
L168.348 210.277
L168.422 209.776
L168.497 210.012
L169.241 224.291
L169.315 224.199
L169.762 212.552
L169.985 207.426
L170.059 207.697
L170.208 210.237
L170.654 218.445
L170.803 214.493
L170.878 215.427
L171.101 221.025
L171.175 219.948
L171.25 220.213
L171.324 220.864
L171.473 223.951
L171.845 216.867
L172.291 201.96
L172.366 202.559
L172.589 212.253
L172.886 223.635
L173.035 226.365
L173.11 225.42
L173.333 220.657
L173.482 221.187
L173.556 220.893
L173.63 221.544
L173.779 218.957
L174.3 204.949
L174.374 203.63
L174.449 204.246
L175.342 228.312
L175.416 228.254
L175.788 218.946
L176.086 211.17
L176.16 211.585
L176.458 204.252
L176.606 205.231
L176.755 203.261
L176.904 209.857
L177.276 227.574
L177.722 221.066
L177.797 221.521
L177.946 227.834
L178.02 227.724
L178.243 224.47
L178.764 200.22
L179.508 221.244
L179.582 220.541
L179.806 214.534
L180.029 217.051
L180.624 204.35
L180.698 205.686
L180.773 207.708
L180.847 207.558
L180.996 205.675
L181.219 213.209
L181.442 229.176
L181.591 233.536
L181.74 237.758
L182.038 231.249
L182.186 228.254
L182.41 216.25
L182.707 201.798
L182.856 199.489
L182.93 199.581
L183.526 213.52
L183.898 226.636
L183.972 226.647
L184.195 219.643
L184.493 210.081
L184.939 220.086
L185.162 215.202
L185.237 216.25
L185.386 219.793
L185.46 219.459
L185.683 215.041
L185.758 215.622
L185.832 215.231
L186.055 211.141
L186.353 202.167
L187.022 215.536
L187.246 229.256
L187.469 245.782
L187.543 244.342
L188.064 218.082
L188.287 222.817
L188.51 218.554
L188.957 198.152
L189.031 199.12
L189.329 196.102
L189.403 196.229
L189.478 197.254
L189.775 207.276
L190.073 214.718
L190.147 214.563
L190.445 212.996
L190.594 216.838
L191.04 242.977
L191.114 241.502
L191.561 215.121
L191.784 220.179
L191.858 219.182
L192.082 215.156
L192.23 211.878
L192.528 214.753
L192.751 221.953
L192.826 221.313
L193.495 203.475
L193.867 211.101
L194.388 228.237
L194.462 228.018
L194.611 223.853
L195.281 201.948
L195.355 203.693
L195.504 209.978
L195.653 206.977
L195.727 207.495
L195.876 211.124
L196.248 225.875
L196.471 221.768
L196.62 221.711
L196.694 222.068
L196.843 226.866
L197.141 239.711
L197.215 240.385
L197.29 239.596
L197.438 230.109
L198.034 173.638
L198.182 179.789
L198.406 193.786
L199.001 253.299
L199.15 251.922
L199.298 246.847
L200.191 190.883
L200.786 205.917
L200.861 206.412
L201.01 209.949
L201.158 220.922
L201.456 242.435
L201.679 230.639
L201.902 209.632
L202.126 179.962
L202.2 181.679
L202.646 236.474
L202.721 234.193
L203.167 205.358
L203.465 214.574
L203.762 200.819
L203.837 201.545
L203.986 211.487
L204.358 247.239
L204.506 244.572
L204.804 238.956
L205.25 216.308
L205.548 209.54
L205.994 182.531
L206.441 190.831
L206.515 190.307
L206.59 191.615
L206.738 202.599
L207.259 251.127
L207.482 254.957
L207.557 253.794
L207.854 236.416
L208.301 189.962
L208.524 177.555
L208.598 178.678
L208.896 206.406
L209.342 259.087
L209.417 256.853
L209.64 230.466
L210.012 184.697
L210.161 178.833
L210.31 183.148
L211.054 226.952
L211.277 230.287
L211.426 231.18
L211.649 224.372
L211.872 218.721
L211.946 218.779
L212.17 215.052
L212.244 215.49
L212.393 212.489
L212.765 198.584
L212.988 200.721
L213.211 218.549
L213.434 238.881
L213.583 241.997
L213.955 258.379
L214.104 242.781
L214.55 177.468
L214.625 177.526
L214.848 193.181
L215.071 208.924
L215.592 213.929
L215.815 218.767
L215.89 219.269
L215.964 220.57
L216.038 220.138
L216.336 213.146
L216.485 206.285
L216.559 207.034
L216.708 210.064
L217.006 203.071
L217.154 196.62
L217.303 202.357
L217.526 231.883
L217.824 272.37
L218.047 280.497
L218.122 279.616
L218.196 275.855
L218.419 234.648
L218.94 134.389
L219.014 130.962
L219.089 132.65
L219.386 171.478
L219.907 256.173
L219.982 257.348
L220.354 233.957
L220.651 248.823
L220.726 248.126
L220.874 245.753
L220.949 246.029
L221.023 245.937
L221.098 245.477
L221.321 234.642
L222.065 168.54
L222.288 152.959
L222.362 152.147
L222.511 165.194
L222.809 227.068
L223.106 283.832
L223.181 284.178
L223.33 273.862
L223.702 214.62
L223.999 167.705
L224.074 168.892
L224.222 183.62
L224.594 226.388
L224.818 220.392
L225.041 217.725
L225.413 223.26
L225.487 222.638
L225.636 209.206
L225.934 176.875
L226.008 178.298
L226.157 194.61
L226.603 270.21
L226.678 272.117
L226.901 264.634
L227.198 225.789
L227.57 175.7
L227.719 185.469
L227.942 195.255
L228.017 195.174
L228.166 191.148
L228.24 189.743
L228.314 191.534
L228.612 224.326
L228.91 242.095
L229.058 245.304
L229.133 244.451
L229.356 232.396
L229.802 161.732
L229.877 162.06
L230.1 194.875
L230.398 248.777
L230.472 248.431
L230.621 234.054
L230.844 215.237
L230.993 239.567
L231.142 271.178
L231.216 265.366
L231.439 213.716
L231.737 227.068
L231.96 217.316
L232.183 163.88
L232.406 135.138
L232.481 138.26
L232.853 205.243
L233.299 333.144
L233.448 292.179
L233.671 227.252
L233.746 227.563
L233.82 222.696
L234.118 165.747
L234.192 167.693
L234.564 213.29
L234.713 211.93
L234.787 212.195
L234.936 214.949
L235.01 214.833
L235.159 204.477
L235.606 157.412
L235.68 154.278
L235.754 155.39
L235.903 165.821
L236.87 349.433
L236.945 346.933
L237.094 317.056
L237.242 263.045
L237.54 165.401
L237.838 135.005
L237.912 132.114
L238.061 138.692
L238.582 196.113
L238.805 213.722
L238.879 214.01
L239.102 212.195
L239.177 213.601
L239.326 227.822
L239.772 294.344
L239.921 277.94
L240.367 196.43
L240.59 187.433
L240.665 187.496
L240.888 204.92
L240.962 200.842
L241.26 166.271
L241.409 157.101
L241.483 158.627
L241.632 185.388
L241.93 273.015
L242.302 184.156
L242.45 212.679
L242.748 266.621
L242.897 271.431
L242.971 271.679
L243.12 269.53
L243.269 275.912
L243.343 274.138
L243.492 255.574
L243.938 186.143
L244.385 161.83
L244.459 163.333
L244.831 190.117
L244.906 189.253
L245.129 182.145
L245.278 184.363
L245.426 183.701
L245.575 193.181
L245.798 228.819
L246.319 327.942
L246.468 277.306
L246.766 154.63
L246.84 145.005
L246.914 145.028
L247.063 172.538
L247.435 250.171
L247.51 249.56
L247.733 242.631
L247.807 242.769
L247.882 242.378
L248.105 227.862
L248.551 189.322
L248.626 193.763
L248.998 258.016
L249.072 254.525
L249.667 134.32
L249.816 145.846
L250.114 191.252
L250.411 229.827
L250.486 229.74
L250.634 228.991
L250.709 229.544
L250.858 235.477
L251.378 269.064
L251.527 265.251
L251.825 241.122
L252.122 223.37
L252.494 211.625
L253.015 186.73
L253.164 185.786
L253.238 186.736
L253.462 184.058
L253.685 179.202
L253.759 179.738
L253.908 185.204
L254.206 218.6
L254.503 245.24
L254.652 249.025
L254.801 246.358
L255.024 241.421
L255.47 211.913
L255.619 207.126
L255.842 199.494
L255.917 200.053
L256.066 208.584
L256.363 226.906
L256.512 227.574
L256.661 230.42
L256.735 230.541
L257.256 219.741
L257.702 197.202
L258 190.964
L258.298 172.163
L258.372 174.968
L258.521 202.766
L258.893 285.975
L258.967 288.607
L259.042 287.594
L259.19 269.657
L259.637 198.417
L260.083 160.661
L260.158 162.072
L260.306 175.913
L260.678 215.64
L260.902 222.287
L261.05 214.73
L261.274 205.272
L261.348 208.906
L261.646 260.274
L261.869 281.92
L262.018 268.298
L262.613 202.806
L262.985 176.593
L263.134 175.331
L263.208 175.291
L263.282 175.51
L263.431 181.379
L264.25 235.316
L264.324 237.747
L264.398 237.672
L264.473 238.063
L264.547 237.482
L264.77 230.489
L264.845 231.088
L265.217 243.08
L265.291 243.017
L265.366 242.141
L265.514 232.724
L266.184 176.898
L266.258 177.704
L266.705 204.172
L267.077 235.471
L267.226 238.323
L267.3 237.493
L267.97 220.196
L268.044 221.089
L268.118 220.812
L268.416 244.791
L268.49 244.106
L268.565 242.049
L269.16 190.762
L269.458 167.002
L269.606 164.986
L269.681 166.104
L270.053 199.016
L270.574 244.981
L270.648 244.728
L270.722 245.281
L271.02 241.83
L271.764 212.621
L271.987 216.855
L272.285 226.699
L272.359 227.131
L272.582 224.015
L272.731 219.862
L273.55 182.992
L273.624 183.165
L273.698 182.854
L273.773 184.599
L273.996 204.552
L274.442 261.8
L274.517 263.142
L274.666 256.789
L275.186 198.296
L275.484 175.919
L275.558 176.103
L275.782 186.644
L276.302 232.77
L276.6 243.029
L276.674 242.251
L276.898 232.47
L277.418 207.835
L277.567 207.149
L277.642 207.27
L277.716 206.487
L277.939 207.916
L278.014 207.466
L278.386 202.743
L278.832 214.609
L279.13 224.694
L279.204 225.541
L279.353 231.042
L279.427 230.84
L279.799 220.645
L279.874 221.544
L280.022 225.046
L280.618 209.765
L280.692 208.509
L280.766 208.889
L280.841 209.43
L280.99 212.668
L281.064 212.627
L281.138 211.85
L281.287 207.772
L281.51 214.044
L281.659 212.852
L281.734 214.828
L282.031 209.724
L282.18 212.76
L282.403 217.984
L282.478 218.013
L282.701 223.6
L282.775 223.583
L282.998 219.729
L283.222 212.95
L283.37 215.3
L283.445 215.208
L283.519 215.311
L283.668 217.045
L283.817 219.424
L283.891 218.606
L283.966 218.721
L284.189 221.429
L284.263 220.697
L284.561 215.887
L284.635 216.878
L284.71 217.224
L284.858 213.048
L284.933 213.67
L285.082 212.264
L285.23 216.435
L285.305 216.245
L285.454 214.349
L285.528 215.49
L285.751 208.117
L285.9 204.051
L286.272 212.184
L286.644 225.196
L286.718 227.413
L286.793 226.382
L287.462 207.662
L288.281 221.693
L288.355 221.682
L288.504 224.032
L288.578 223.934
L288.727 222.195
L288.876 224.493
L289.099 222.701
L289.248 224.234
L289.322 222.909
L289.471 226.549
L289.546 225.766
L289.769 222.713
L290.066 206.257
L290.364 187.525
L290.513 185.861
L290.959 200.099
L291.629 245.621
L291.703 245.724
L292.075 229.228
L292.373 215.156
L292.819 197.26
L292.894 196.378
L293.489 224.084
L293.563 223.157
L293.638 223.911
L293.861 230.518
L294.01 228.761
L294.679 204.471
L294.977 208.244
L295.126 213.687
L295.2 213.624
L295.349 211.256
L295.498 209.857
L295.646 211.556
L295.944 219.603
L296.018 219.292
L296.242 215.519
L296.316 216.677
L296.465 218.56
L296.762 225.593
L297.283 221.06
L297.804 209.465
L297.878 208.227
L298.027 210.461
L298.25 215.254
L298.622 218.56
L298.771 219.067
L298.846 218.019
L299.069 211.17
L299.218 212.737
L299.441 215.052
L299.515 215.461
L299.664 212.973
L300.036 202.374
L300.185 210.248
L300.482 226.664
L300.706 229.118
L300.929 227.621
L301.078 224.769
L301.45 210.392
L301.524 210.513
L301.598 210.513
L301.673 211.078
L301.747 210.968
L302.119 208.008
L302.491 213.981
L302.64 217.5
L303.161 229.458
L303.31 222.696
L303.607 203.855
L303.682 203.717
L303.83 206.251
L304.054 213.405
L304.128 213.376
L304.277 211.861
L304.351 212.495
L304.649 219.752
L304.798 223.836
L304.946 228.064
L305.393 212.587
L305.69 214.171
L305.839 208.129
L305.988 205.583
L306.658 224.118
L306.732 223.946
L307.104 218.151
L307.178 218.18
L307.327 219.176
L307.402 219.061
L307.625 215.484
L307.774 220.432
L308.22 209.909
L308.369 208.843
L308.443 209.384
L308.741 213.779
L308.89 213.226
L309.336 223.231
L309.41 222.54
L309.782 215.53
L309.931 215.3
L310.08 212.339
L310.229 209.678
L310.378 212.76
L310.452 212.541
L310.601 212.385
L310.75 213.716
L310.824 214.01
L311.047 225.587
L311.27 241.825
L311.568 231.365
L311.791 204.776
L312.163 158.506
L312.238 160.874
L312.386 178.188
L312.833 257.665
L312.982 261.432
L313.056 261.322
L313.354 248.593
L313.577 230.299
L313.874 201.47
L314.246 183.833
L314.395 181.857
L314.47 181.915
L314.618 186.056
L315.437 230.57
L315.586 235.552
L315.66 235.673
L315.958 232.505
L316.032 232.349
L316.33 237.654
L316.404 237.297
L316.627 228.721
L316.925 216.826
L317.297 209.43
L317.892 188.458
L317.966 188.752
L318.041 190.497
L318.562 223.796
L318.859 218.675
L319.082 216.181
L319.306 212.351
L319.38 212.328
L319.529 217.414
L319.901 232.326
L319.975 233.404
L320.124 228.577
L320.347 223.519
L320.942 214.845
L321.389 203.348
L321.538 201.62
L321.612 201.631
L322.505 232.142
L322.728 215.3
L322.951 202.006
L323.026 201.464
L323.174 204.045
L323.249 203.93
L323.323 204.667
L323.918 232.073
L324.067 231.877
L324.142 232.027
L324.216 232.626
L324.29 232.396
L324.514 228.715
L325.109 195.848
L325.406 182.065
L325.481 183.528
L325.704 198.872
L326.225 243.178
L326.374 246.807
L326.448 247.274
L326.597 242.199
L326.894 218.255
L327.341 185.642
L327.415 184.536
L327.787 188.988
L327.936 196.384
L328.159 228.104
L328.531 289.114
L328.606 286.799
L328.829 249.151
L329.052 216.095
L329.201 213.163
L329.35 217.368
L329.498 212.668
L329.722 185.117
L330.168 111.683
L330.242 116.078
L330.466 165.528
L330.838 257.002
L331.284 304.943
L331.358 304.862
L331.433 303.52
L331.582 291.891
L331.879 237.159
L332.251 171.351
L332.4 168.402
L332.549 174.335
L333.218 210.928
L333.293 212.195
L333.367 211.585
L333.516 209.943
L333.814 199.708
L333.962 198.769
L334.037 199.483
L334.483 218.047
L335.302 263.713
L335.45 265.971
L335.525 264.64
L335.674 253.765
L335.971 205.819
L336.418 134.902
L336.492 136.065
L336.641 157.556
L337.013 213.416
L337.534 259.059
L337.608 259.709
L337.757 254.802
L338.129 222.88
L338.352 207.461
L338.426 205.214
L338.501 205.606
L338.724 207.875
L339.245 183.718
L339.319 184.472
L339.468 185.97
L339.617 184.806
L339.691 185.348
L339.84 200.462
L340.435 319.982
L340.51 314.936
L340.733 256.121
L341.179 115.312
L341.254 119.453
L341.774 221.688
L341.849 219.937
L341.998 200.439
L342.221 164.433
L342.295 164.312
L342.444 186.719
L342.965 336.594
L343.039 336.456
L343.188 311.215
L343.858 111.245
L343.932 112.593
L344.081 128.583
L344.378 197.294
L344.75 284.777
L344.899 291.816
L345.048 281.955
L345.42 209.033
L345.643 176.956
L345.718 174.035
L345.792 174.087
L345.866 175.498
L346.09 191.517
L346.387 211.423
L346.908 230.017
L347.131 236.474
L347.28 240.056
L347.429 238.127
L347.652 229.233
L348.247 201.032
L348.47 203.964
L348.545 203.837
L348.619 203.561
L349.066 219.044
L349.14 219.453
L349.586 209.955
L349.661 209.621
L349.735 209.805
L350.033 213.071
L350.256 215.974
L350.33 215.075
L350.405 215.761
L350.851 227.718
L350.926 226.693
L351.595 202.438
L351.67 202.501
L351.967 210.796
L352.488 250.01
L352.562 248.996
L352.934 230.172
L353.232 222.35
L353.455 201.119
L353.753 164.739
L353.976 156.306
L354.05 158.483
L354.348 188.666
L354.943 267.624
L355.166 276.661
L355.241 275.446
L355.39 266.264
L356.58 160.735
L356.654 160.275
L356.729 161.519
L356.952 177.445
L357.324 220.668
L357.845 288.4
L357.994 281.315
L358.44 247.406
L358.812 182.502
L359.11 86.3853
L359.184 88.0384
L359.333 123.203
L359.779 264.686
L360.002 291.413
L360.077 294.172
L360.151 293.814
L360.374 273.729
L360.672 217.84
L360.97 171.34
L361.118 161.53
L361.193 161.617
L361.342 170.464
L362.16 242.556
L362.383 248.057
L362.681 243.236
L362.978 209.505
L363.425 139.216
L363.499 141.255
L363.648 167.797
L364.243 301.21
L364.392 306.291
L364.466 304.131
L364.615 287.19
L364.838 221.094
L365.136 141.388
L365.21 134.447
L365.285 135.806
L365.508 165.96
L365.88 214.568
L365.954 216.475
L366.029 216.089
L366.252 209.252
L366.326 210.266
L366.624 228.588
L366.922 253.909
L366.996 252.757
L367.294 224.516
L367.442 211.481
L367.517 213.664
L367.814 255.626
L367.963 242.792
L368.484 146.825
L368.558 147.701
L368.633 148.277
L368.856 130.478
L368.93 133.64
L369.154 204.074
L369.6 344.664
L369.674 346.622
L369.823 329.642
L370.865 117.737
L370.939 114.114
L371.014 116.648
L371.162 133.802
L371.981 279.996
L372.055 278.775
L372.278 255.977
L372.576 210.237
L372.799 167.359
L372.874 172.641
L373.246 248.748
L373.915 189.351
L374.362 250.349
L374.585 264.335
L374.659 265.752
L374.808 257.429
L375.031 212.437
L375.403 147.672
L375.478 144.325
L375.552 146.261
L375.85 178.344
L376.817 273.136
L377.04 284.299
L377.114 282.778
L377.412 251.997
L377.71 198.037
L378.007 149.169
L378.156 144.953
L378.305 152.631
L379.198 238.87
L379.346 243.507
L379.421 243.484
L379.644 238.346
L379.718 238.611
L380.016 237.637
L380.165 234.584
L381.132 183.608
L381.281 187.116
L381.653 215.242
L381.95 232.027
L382.174 230.414
L382.322 231.059
L382.694 243.616
L382.843 235.84
L383.438 179.525
L383.513 179.686
L383.736 192.726
L384.108 225.599
L384.48 246.911
L384.554 247.366
L384.703 241.162
L385.001 212.765
L385.298 187.139
L385.373 187.289
L385.596 192.197
L385.745 198.141
L385.819 198.101
L385.968 200.514
L386.191 211.291
L386.638 244.071
L386.712 245.085
L386.786 244.445
L387.084 235.12
L387.382 225.247
L387.456 224.879
L387.679 228.847
L387.828 222.753
L388.051 202.472
L388.423 161.162
L388.498 162.769
L388.721 188.694
L389.316 261.357
L389.39 260.141
L389.614 244.526
L390.06 202.311
L390.283 193.245
L390.432 193.619
L390.506 194.466
L390.655 205.249
L390.953 227.482
L391.027 228.64
L391.102 228.525
L391.474 220.323
L391.846 210.842
L392.143 195.462
L392.292 192.588
L392.366 193.942
L393.557 254.157
L393.631 253.587
L393.78 249.272
L393.929 238.893
L394.673 161.11
L394.747 161.916
L395.119 191.517
L395.268 206.746
L395.789 277.928
L395.863 277.859
L395.938 276.149
L396.086 261.881
L396.682 173.01
L396.756 171.616
L396.83 171.944
L396.979 171.391
L397.054 173.678
L397.351 204.177
L397.872 270.158
L397.946 270.665
L398.095 261.236
L398.393 212.501
L398.616 184.277
L398.765 177.474
L398.839 177.647
L399.211 190.941
L399.881 235.673
L400.03 233.599
L400.476 222.264
L400.699 221.175
L400.848 219.413
L401.22 205.082
L401.294 205.704
L401.443 212.979
L401.815 239.077
L401.89 239.371
L402.187 220.904
L402.559 184.835
L402.634 184.271
L402.931 194.673
L403.824 242.049
L403.973 238.374
L404.419 209.776
L404.494 210.283
L404.791 219.741
L404.866 219.188
L405.089 205.289
L405.238 198.965
L405.312 198.751
L405.386 198.895
L405.461 198.717
L405.684 211.729
L406.056 228.392
L406.205 231.676
L406.279 231.359
L406.428 233.778
L406.577 223.756
L406.949 200.284
L407.246 207.109
L407.618 202.23
L407.916 211.216
L408.288 227.05
L408.437 230.063
L408.883 222.385
L408.958 222.811
L409.106 225.858
L409.404 235.777
L409.478 237.153
L409.553 235.564
L410.297 185.682
L410.446 181.489
L410.594 183.649
L410.743 188.349
L411.636 238.507
L411.71 238.104
L412.231 227.477
L412.38 223.819
L412.454 223.951
L412.826 218.669
L413.05 208.417
L413.198 199.702
L413.273 200.56
L413.942 218.669
L414.24 223.041
L414.389 222.609
L414.538 217.782
L415.058 202.069
L415.207 201.994
L415.282 203.331
L415.654 223.347
L415.877 221.665
L416.1 218.076
L416.249 218.525
L416.323 218.485
L416.472 219.781
L416.695 221.025
L417.29 211.066
L417.588 218.422
L417.811 211.579
L417.96 217.736
L418.258 227.304
L418.406 228.197
L418.555 230.322
L418.63 229.245
L419.522 192.554
L419.671 193.412
L419.82 196.741
L419.969 202.858
L420.49 236.422
L420.713 230.437
L421.085 221.953
L421.159 222.92
L421.457 230.863
L421.606 228.819
L421.754 221.889
L422.275 184.472
L422.35 184.795
L422.498 190.676
L423.019 233.029
L423.242 236.491
L423.391 232.851
L423.614 216.06
L423.912 191.379
L423.986 190.808
L424.135 199.575
L424.73 255.09
L424.879 249.439
L425.102 226.601
L425.549 172.405
L425.623 170.637
L425.698 171.132
L426.07 196.378
L426.814 250.211
L426.888 251.381
L426.962 251.167
L427.111 245.943
L427.409 223.341
L427.855 187.45
L428.004 192.329
L428.45 213.393
L428.525 213.232
L428.599 213.307
L428.897 215.628
L428.971 216.06
L429.12 225.53
L429.343 235.443
L429.492 233.386
L429.641 223.681
L430.013 194.051
L430.087 192.974
L430.31 206.879
L430.682 231.313
L430.906 243.322
L430.98 242.17
L431.129 233.882
L431.724 175.377
L431.798 176.685
L432.766 253.731
L432.84 254.531
L433.286 227.92
L433.361 228.358
L433.658 239.837
L433.733 240.615
L433.807 236.537
L433.956 207.777
L434.254 141.641
L434.328 136.175
L434.402 136.935
L434.551 159.848
L434.923 227.24
L435.072 220.657
L435.221 216.504
L435.444 233.49
L435.89 271.984
L435.965 270.751
L436.114 258.557
L436.486 222.736
L436.634 218.975
L436.783 203.82
L437.155 148.225
L437.23 147.482
L437.378 161.599
L437.75 213.664
L438.122 221.158
L438.346 238.357
L438.718 265.078
L438.792 265.971
L438.866 265.717
L439.015 258.045
L439.834 178.62
L439.908 178.309
L440.131 179.789
L440.206 179.703
L440.354 176.593
L440.503 181.869
L440.875 215.951
L441.173 279.956
L441.322 256.369
L441.694 166.968
L441.768 169.537
L441.991 206.717
L442.438 295.358
L442.586 279.011
L443.107 206.677
L443.554 177.618
L443.702 176.616
L443.851 175.988
L444.298 164.883
L444.372 166.484
L444.595 184.916
L444.818 231.03
L445.116 290.531
L445.19 293.901
L445.265 293.74
L445.488 283.222
L445.562 286.159
L445.637 288.976
L445.711 288.083
L445.86 253.69
L446.158 169.629
L446.306 165.954
L446.381 167.117
L446.455 166.899
L446.53 165.366
L446.678 149.93
L446.827 125.738
L446.902 126.895
L447.05 173.471
L447.348 278.568
L447.497 287.421
L447.646 275.158
L448.166 165.925
L448.241 167.187
L448.39 183.896
L448.762 261.075
L449.059 319.32
L449.208 281.108
L449.58 145.944
L449.654 144.043
L449.803 158.829
L449.878 172.037
L449.878 172.037" style="fill:none;stroke:#808080;stroke-linecap:square;"/>
   </g>
  </g>
 </g>
 <defs>
  <clipPath id="p7ff5b81e1d">
   <rect height="345.6" width="446.4" x="72.0" y="43.2"/>
  </clipPath>
 </defs>
</svg>
