<?xml version="1.0" encoding="utf-8" standalone="no"?>
<!DOCTYPE svg PUBLIC "-//W3C//DTD SVG 1.1//EN"
  "http://www.w3.org/Graphics/SVG/1.1/DTD/svg11.dtd">
<!-- Created with matplotlib (http://matplotlib.org/) -->
<svg height="432pt" version="1.1" viewBox="0 0 576 432" width="576pt" xmlns="http://www.w3.org/2000/svg" xmlns:xlink="http://www.w3.org/1999/xlink">
 <defs>
  <style type="text/css">
*{stroke-linecap:butt;stroke-linejoin:round;}
  </style>
 </defs>
 <g id="figure_1">
  <g id="patch_1">
   <path d="
M0 432
L576 432
L576 0
L0 0
z
" style="fill:#ffffff;"/>
  </g>
  <g id="axes_1">
   <g id="line2d_1">
    <path clip-path="url(#p7ff5b81e1d)" d="
M72 194.064
L72.0744 193.705
L72.1488 194.755
L72.2232 194.41
L72.372 191.824
L72.5952 194.886
L72.6696 194.022
L73.1904 172.505
L73.2648 172.81
L73.3392 172.132
L73.6368 164.335
L73.7112 163.658
L73.86 164.384
L74.0088 174.814
L74.3064 200.133
L74.3808 201.038
L74.604 195.702
L75.1992 168.808
L75.4224 175.567
L75.6456 180.579
L75.72 180.62
L75.9432 184.373
L76.0176 184.277
L76.1664 184.677
L76.3152 177.779
L76.464 171.697
L76.5384 171.904
L76.6128 171.655
L76.9848 189.253
L77.2824 207.957
L77.3568 206.671
L77.952 170.929
L78.2496 162.096
L78.324 162.711
L78.5472 174.779
L78.7704 187.67
L78.9936 183.862
L79.2168 188.403
L79.2912 188.444
L79.3656 188.714
L79.5888 184.27
L79.6632 185.127
L79.812 189.163
L79.8864 186.772
L80.184 162.704
L80.4072 168.849
L80.6304 179.86
L80.7048 179.328
L80.7792 180.433
L81.0768 191.866
L81.1512 191.299
L81.3 188.721
L81.5976 196.718
L81.7464 200.782
L82.416 168.31
L82.4904 167.508
L82.7136 172.132
L82.788 171.78
L82.8624 171.69
L83.0856 163.354
L83.16 163.527
L83.3832 178.871
L83.6064 196.988
L83.6808 195.93
L83.7552 196.428
L83.8296 196.414
L83.904 196.926
L84.2016 190.905
L84.8712 163.935
L84.9456 165.103
L85.2432 173.812
L85.3176 172.761
L85.392 173.197
L85.6152 180.544
L86.0616 209.125
L86.2104 203.996
L86.2848 205.503
L86.4336 196.573
L86.9544 155.308
L87.0288 154.237
L87.1032 154.769
L87.252 158.391
L87.8472 188.963
L88.0704 195.861
L88.368 189.08
L88.5168 191.928
L88.8144 184.38
L88.8888 184.456
L88.9632 185.832
L89.0376 184.988
L89.484 170.39
L89.6328 168.206
L89.7816 170.639
L89.856 170.508
L89.9304 170.453
L90.5256 189.336
L90.7488 201.259
L90.8232 200.534
L90.972 190.919
L91.1208 185.016
L91.2696 188.541
L91.344 188.106
L91.4184 188.334
L91.5672 180.613
L91.7904 170.936
L91.8648 168.655
L91.9392 169.063
L92.0136 171.455
L92.1624 166.782
L92.2368 168.289
L92.46 179.839
L92.5344 180.378
L92.9064 188.465
L93.0552 199.276
L93.1296 198.08
L93.4272 175.208
L93.5016 178.325
L93.6504 181.035
L94.0224 174.289
L94.0968 174.247
L94.32 182.244
L94.4688 172.865
L94.5432 166.865
L94.6176 167.708
L94.8408 184.505
L94.9896 182.079
L95.2128 189.108
L95.436 199.421
L95.8824 180.689
L96.0312 181.83
L96.18 177.178
L96.4032 160.596
L96.6264 174.738
L96.7752 180.212
L96.924 177.924
L97.1472 184.816
L97.296 186.896
L97.3704 185.051
L97.5192 176.459
L97.668 186.281
L97.8168 191.527
L97.8912 191.071
L98.1144 187.947
L98.3376 203.126
L98.412 199.842
L98.7096 169.236
L98.9328 176.984
L99.0072 176.079
L99.3048 168.158
L99.4536 173.28
L99.6024 178.27
L99.6768 177.378
L99.8256 171.98
L100.123 190.124
L100.198 190.007
L100.421 181.415
L100.495 182.936
L100.644 187.339
L100.718 186.703
L100.942 181.311
L101.016 182.673
L101.165 189.62
L101.239 189.35
L101.537 175.464
L101.76 184.975
L101.834 184.076
L102.132 172.526
L102.281 179.106
L102.43 183.046
L102.653 177.489
L102.802 182.21
L102.95 188.624
L103.025 188.507
L103.322 175.637
L103.471 183.413
L103.62 190.511
L103.843 182.79
L103.992 191.721
L104.066 195.605
L104.215 188.334
L104.438 169.796
L104.662 184.836
L104.736 180.026
L104.959 162.559
L105.034 162.518
L105.331 180.15
L105.406 180.44
L105.629 183.931
L105.852 197.942
L105.926 196.843
L106.15 188.355
L106.298 190.062
L106.373 189.046
L106.67 170.121
L106.745 172.257
L106.894 177.586
L107.042 172.36
L107.191 167.01
L107.266 168.559
L107.638 188.673
L107.712 189.564
L107.861 188.037
L107.935 188.693
L108.084 191.195
L108.158 190.062
L108.382 180.42
L108.679 187.477
L108.828 182.915
L109.051 174.192
L109.274 178.934
L109.349 177.427
L109.498 171.538
L109.572 172.264
L110.093 192.225
L110.242 194.569
L110.316 194.458
L110.465 188.541
L110.911 171.469
L111.134 164.066
L111.804 185.97
L111.953 188.071
L112.176 186.177
L112.325 186.592
L112.399 186.44
L112.697 179.583
L112.92 186.205
L113.069 184.491
L113.292 191.804
L113.366 191.513
L113.515 188.838
L113.664 181.076
L113.887 164.066
L113.962 164.812
L114.259 177.04
L114.631 183.986
L114.706 184.539
L115.003 193.525
L115.078 193.2
L115.375 191.534
L115.524 183.793
L115.747 170.715
L115.896 168.337
L115.97 168.337
L116.119 165.884
L116.342 159.863
L116.417 161.972
L116.863 187.021
L117.161 197.154
L117.31 197.651
L117.384 197.091
L117.607 199.435
L117.756 197.921
L117.979 189.274
L118.202 176.749
L118.277 176.577
L118.426 169.084
L118.649 156.566
L119.244 176.701
L119.616 196.974
L119.69 196.608
L120.062 187.919
L120.286 192.212
L120.509 188.921
L120.658 180.655
L120.955 170.992
L121.327 165.165
L121.402 165.967
L121.55 170.473
L121.848 188.493
L121.997 191.175
L122.071 191.451
L122.22 189.502
L122.518 195.965
L122.89 183.91
L123.113 177.738
L123.336 164.964
L123.41 164.626
L123.559 169.485
L123.634 168.89
L123.708 167.695
L123.782 168.725
L124.675 197.603
L124.824 199.531
L124.898 199.027
L125.196 185.915
L125.642 162.711
L125.717 162.76
L125.791 163.845
L125.866 163.465
L125.94 163.375
L126.163 167.232
L127.056 202.642
L127.13 202.504
L127.502 191.977
L127.8 170.273
L127.949 166.395
L128.023 167.073
L128.172 165.939
L128.321 167.702
L128.842 186.108
L128.916 185.092
L128.99 185.638
L129.288 191.064
L129.362 189.585
L129.586 180.696
L129.66 180.703
L129.734 180.171
L129.958 174.392
L130.106 181.761
L130.181 181.74
L130.33 174.379
L130.627 181.387
L130.85 191.859
L130.925 192.488
L130.999 190.601
L131.222 179.784
L131.52 189.537
L131.594 188.859
L131.743 178.809
L131.818 179.155
L131.966 183.654
L132.19 175.319
L132.338 180.655
L132.413 180.599
L132.636 173.259
L132.785 175.505
L132.934 169.278
L133.082 174.579
L133.306 188.237
L133.454 186.461
L133.678 189.744
L133.975 180.793
L134.273 188.956
L134.347 187.947
L134.57 178.097
L134.645 178.816
L134.794 183.385
L134.868 182.293
L135.166 163.852
L135.24 165.241
L136.207 201.038
L136.282 199.421
L136.505 188.756
L136.579 189.744
L136.654 189.544
L136.877 178.47
L137.026 166.146
L137.249 171.275
L137.472 160.866
L137.546 160.914
L137.993 194.569
L138.067 195.529
L138.142 194.181
L138.29 197.188
L138.514 189.578
L138.886 174.6
L139.109 170.591
L139.258 173.57
L139.406 176.563
L139.481 174.759
L139.555 175.554
L139.704 180.433
L139.778 180.371
L140.002 169.091
L140.15 182.424
L140.299 194.907
L140.374 193.511
L140.522 186.71
L140.597 187.781
L140.746 195.529
L140.894 191.776
L140.969 192.122
L141.043 193.483
L141.341 179.604
L141.415 179.97
L141.564 182.846
L141.638 182.327
L142.234 167.342
L142.531 176.749
L142.68 179.003
L142.754 178.394
L143.126 188.859
L143.275 198.66
L143.35 197.195
L143.647 186.703
L143.722 188.472
L143.796 187.587
L144.094 174.565
L144.242 171.04
L144.466 155.212
L144.54 156.331
L144.986 189.516
L145.135 196.919
L145.358 192.184
L145.433 192.205
L145.656 196.566
L145.879 190.608
L146.102 173.065
L146.177 173.971
L146.251 175.948
L146.326 175.754
L146.474 172.554
L146.698 176.943
L146.772 176.646
L146.921 175.222
L147.218 178.754
L147.293 179.051
L147.442 176.59
L147.59 184.608
L147.739 192.039
L147.888 190.304
L148.111 196.255
L148.855 155.841
L148.93 157.741
L149.45 192.377
L149.674 194.306
L149.822 201.46
L149.897 201.425
L149.971 199.006
L150.046 199.054
L150.12 198.66
L150.269 190.159
L150.492 173.874
L150.566 174.15
L150.641 175.277
L150.715 174.406
L150.938 166.976
L151.013 168.075
L151.162 170.218
L151.385 165.199
L151.757 186.751
L151.831 186.744
L151.906 185.728
L152.129 192.827
L152.203 192.585
L152.426 188.417
L152.575 190.573
L153.096 178.927
L153.394 166.699
L153.468 167.321
L153.914 178.712
L154.138 193.096
L154.361 186.848
L154.658 198.17
L154.807 190.11
L155.03 178.491
L155.105 178.353
L155.179 178.429
L155.254 177.765
L155.328 175.816
L155.402 175.837
L155.551 173.611
L155.774 165.704
L156.146 176.639
L156.295 175.45
L156.444 185.852
L156.593 193.67
L156.667 193.228
L156.89 175.906
L156.965 179.411
L157.188 193.58
L157.411 189.91
L157.56 193.048
L157.634 191.32
L157.932 178.892
L158.304 171.116
L158.378 171.766
L158.527 175.091
L158.75 171.171
L158.825 169.229
L158.899 170.072
L159.197 185.555
L159.271 185.548
L159.346 187.152
L159.643 207.736
L159.718 204.75
L160.09 186.447
L160.238 179.017
L160.536 163.181
L160.61 163.527
L160.759 161.626
L160.908 164.64
L161.354 180.869
L161.429 179.853
L161.503 179.998
L162.173 205.137
L162.247 203.782
L162.842 169.955
L162.917 169.084
L163.214 181.857
L163.289 180.655
L163.438 177.143
L163.512 177.302
L163.735 179.355
L163.958 175.637
L164.107 178.374
L164.554 186.198
L164.702 185.23
L164.777 186.44
L164.926 184.387
L165.149 176.749
L165.223 176.653
L165.446 177.676
L165.67 181.961
L165.818 181.021
L165.893 181.173
L166.042 179.397
L166.19 185.576
L166.339 192.896
L166.637 185.949
L166.711 187.325
L166.786 186.958
L167.009 175.512
L167.158 170.529
L167.455 178.042
L167.604 174.572
L167.902 184.111
L168.05 184.09
L168.125 183.019
L168.348 185.507
L168.497 181.94
L168.571 179.169
L168.646 180.337
L168.794 184.27
L168.943 188.845
L169.166 180.938
L169.464 188.085
L169.762 181.422
L169.836 182.625
L169.91 182.189
L170.059 177.53
L170.208 171.469
L170.282 172.042
L170.506 177.06
L170.58 176.895
L170.729 175.657
L170.952 182.797
L171.026 182.203
L171.175 179.265
L171.473 188.451
L171.622 186.088
L171.77 182.915
L171.994 186.903
L172.142 178.678
L172.291 172.194
L172.589 177.019
L172.738 176.037
L173.035 185.887
L173.184 183.523
L173.258 184.36
L173.482 192.993
L173.556 193.559
L173.779 188.037
L173.854 188.61
L174.002 192.612
L174.077 191.583
L174.226 182.189
L174.449 167.957
L174.746 161.156
L174.821 160.852
L174.895 161.861
L175.342 184.899
L175.639 205.351
L175.788 198.895
L176.011 189.613
L176.086 189.55
L176.16 189.087
L176.681 169.492
L176.755 169.623
L176.904 173.031
L177.127 178.222
L177.35 173.28
L177.574 171.365
L177.648 171.012
L177.871 183.108
L178.169 202.192
L178.243 201.259
L178.392 196.919
L178.615 189.571
L178.913 179.984
L179.21 168.199
L179.285 168.427
L179.359 167.978
L179.508 170.943
L179.657 173.397
L179.806 171.247
L180.326 190.76
L180.401 189.329
L180.55 187.09
L180.624 187.746
L180.922 201.398
L180.996 199.352
L181.145 195.267
L181.74 159.815
L181.814 160.292
L181.963 162.932
L182.112 162.124
L182.335 177.765
L182.558 193.11
L182.633 194.057
L182.782 199.186
L182.856 198.985
L183.302 186.786
L183.377 187.802
L183.451 189.834
L183.526 189.785
L184.121 164.391
L184.195 163.582
L184.27 165.103
L184.418 172.264
L184.493 171.697
L184.567 172.436
L184.865 183.461
L185.088 195.889
L185.534 189.412
L185.758 183.095
L185.832 182.092
L186.204 192.025
L186.278 191.32
L186.427 184.394
L186.65 175.975
L186.725 175.215
L187.022 162.988
L187.097 163.264
L187.618 177.441
L187.841 190.926
L187.915 192.453
L187.99 192.156
L188.138 189.474
L188.287 186.35
L188.362 186.461
L188.436 187.491
L188.51 185.196
L188.734 169.941
L188.808 171.372
L189.106 185.763
L189.18 185.355
L189.254 184.318
L189.329 185.617
L189.552 194.665
L189.626 193.85
L189.924 182.956
L190.073 182.452
L190.296 178.408
L190.519 169.934
L190.817 183.046
L190.891 182.777
L191.04 179.334
L191.114 179.224
L191.338 183.876
L191.635 171.524
L191.71 173.017
L192.007 190.062
L192.156 181.982
L192.23 182.168
L192.454 193.456
L192.602 186.793
L192.826 170.971
L192.9 170.556
L193.123 175.892
L193.198 175.54
L193.421 170.999
L193.942 188.444
L194.016 188.666
L194.388 192.343
L194.537 190.117
L194.76 194.347
L194.834 194.313
L195.058 189.544
L195.43 164.854
L195.578 161.764
L195.727 163.043
L195.802 162.469
L195.95 157.002
L196.099 173.238
L196.397 198.018
L196.546 202.573
L196.769 196.974
L196.843 197.333
L196.918 196.967
L196.992 197.036
L197.066 196.939
L197.29 191.368
L197.438 181.166
L197.736 158.757
L197.885 155.219
L197.959 155.454
L198.034 156.228
L198.182 163.99
L198.554 188.493
L198.778 196.483
L198.926 197.195
L199.373 186.067
L199.447 186.288
L199.596 188.638
L199.968 180.026
L200.266 164.107
L200.34 164.729
L200.712 177.026
L201.01 196.193
L201.158 194.216
L201.382 190.318
L201.456 190.338
L201.679 182.528
L201.828 179.445
L201.902 179.189
L201.977 177.938
L202.051 178.07
L202.2 182.956
L202.274 182.079
L202.572 172.478
L202.646 172.443
L202.795 174.033
L202.87 175.45
L202.944 175.277
L203.018 175.381
L203.465 187.422
L203.539 190.138
L203.762 186.392
L204.134 190.898
L204.283 183.461
L204.506 172.81
L204.73 171.137
L204.953 174.752
L205.474 193.089
L205.622 188.811
L205.697 188.887
L205.92 193.241
L205.994 192.578
L206.292 186.053
L206.441 187.525
L206.59 179.563
L206.813 165.711
L207.036 162.76
L207.259 170.853
L207.557 181.484
L207.706 184.975
L207.929 178.305
L208.003 178.795
L208.301 192.495
L208.673 186.786
L208.747 186.896
L208.822 187.663
L208.896 187.297
L209.119 183.233
L209.417 174.434
L209.491 174.42
L209.566 174.144
L209.714 172.754
L209.863 175.789
L210.31 195.115
L210.458 197.32
L210.682 191.894
L211.351 160.416
L211.5 157.88
L211.649 163.022
L212.17 202.932
L212.244 203.285
L212.988 176.003
L213.062 176.203
L213.286 178.692
L213.36 178.878
L213.509 174.904
L213.583 175.229
L213.806 179.887
L213.955 176.404
L214.03 177.551
L214.253 184.906
L214.327 185.41
L214.402 185.12
L214.55 187.643
L214.625 187.352
L214.774 185.5
L214.848 186.426
L215.071 182.486
L215.146 182.604
L215.22 185.611
L215.294 185.348
L215.815 175.955
L215.89 175.056
L216.187 166.492
L216.41 170.245
L216.559 176.542
L216.931 199.186
L217.006 198.709
L217.303 191.638
L217.526 185.88
L217.601 185.452
L217.898 174.496
L218.122 180.627
L218.196 179.853
L218.419 170.549
L218.494 170.791
L218.568 171.593
L218.717 168.22
L218.791 168.953
L219.238 187.193
L219.312 188.666
L219.535 203.893
L219.684 202.234
L219.833 194.617
L220.279 167.342
L220.354 167.473
L220.502 169.72
L220.577 168.877
L220.651 170.418
L220.949 182.314
L221.098 178.512
L221.395 168.552
L221.47 169.672
L221.618 172.609
L221.767 177.689
L222.065 196.877
L222.288 205.669
L222.437 207.052
L222.511 206.478
L223.255 169.907
L223.33 171.413
L223.404 170.052
L223.702 155.986
L223.925 162.587
L224.297 186.896
L224.371 186.841
L224.446 187.007
L224.594 188.576
L224.818 193.117
L225.115 184.539
L225.19 184.622
L225.264 184.242
L225.636 172.72
L225.71 173.535
L226.38 196.58
L226.454 197.361
L226.529 197.32
L227.124 176.024
L227.347 164.978
L227.496 163.465
L227.719 168.42
L228.24 177.752
L228.538 198.025
L228.612 197.734
L228.835 195.557
L229.207 185.839
L229.728 166.001
L229.877 171.068
L230.174 185.272
L230.249 185.604
L230.323 185.583
L230.546 183.06
L230.77 188.403
L230.918 185.694
L230.993 186.074
L231.142 190.055
L231.29 188.783
L231.439 185.548
L231.96 159.338
L232.109 164.315
L232.63 190.435
L232.778 190.553
L232.927 192.785
L233.002 192.495
L233.522 175.139
L233.82 183.191
L233.894 181.712
L233.969 182.59
L234.118 187.187
L234.192 186.689
L234.266 187.774
L234.341 187.387
L234.638 177.289
L234.862 173.805
L235.01 178.553
L235.234 186.246
L235.308 186.15
L235.382 185.334
L235.457 185.666
L235.606 188.272
L235.829 181.857
L236.052 171.088
L236.201 168.773
L236.424 172.215
L236.573 171.876
L236.945 191.797
L237.094 194.216
L237.242 192.937
L237.614 182.327
L237.689 182.673
L237.912 178.291
L237.986 179.424
L238.135 172.899
L238.358 162.635
L238.433 164.232
L239.102 195.46
L239.177 195.778
L239.326 192.412
L239.623 177.344
L239.772 184.131
L239.921 189.924
L240.07 186.412
L240.293 182.293
L240.442 185.984
L240.516 188.251
L240.59 187.954
L241.037 170.045
L241.26 177.067
L241.409 173.452
L241.483 174.227
L241.632 178.298
L241.706 177.24
L241.93 169.257
L242.004 169.098
L242.302 181.028
L242.525 191.348
L242.599 192.129
L242.897 218.484
L242.971 218.304
L243.12 206.118
L243.343 183.53
L243.492 178.934
L243.715 172.091
L243.79 171.489
L243.938 174.641
L244.087 177.558
L244.236 169.354
L244.682 138.256
L244.757 136.224
L244.98 142.687
L245.129 161.377
L245.426 208.033
L245.798 232.26
L245.873 231.333
L246.022 221.733
L246.394 190.352
L246.468 188.196
L246.617 190.553
L246.691 190.124
L246.914 184.94
L246.989 184.726
L247.138 182.32
L247.584 152.094
L247.807 148.092
L247.956 151.203
L248.254 169.16
L248.551 181.208
L248.7 182.438
L249.518 208.462
L249.593 208.406
L250.039 177.544
L250.188 168.884
L250.262 168.994
L250.486 170.909
L250.634 170.224
L250.709 170.612
L250.858 168.808
L251.155 177.468
L251.527 194.61
L251.602 194.444
L252.271 179.065
L252.42 179.832
L252.494 178.878
L252.718 173.48
L252.792 173.542
L252.941 178.401
L253.238 195.605
L253.313 194.893
L253.536 185.659
L253.61 186.958
L253.685 187.802
L253.759 187.601
L253.908 181.339
L254.28 153.117
L254.429 157.831
L255.173 204.073
L255.247 206.485
L255.545 196.338
L255.917 164.114
L255.991 166.533
L256.289 181.705
L256.363 181.83
L256.438 181.394
L256.512 180.067
L256.661 181.512
L257.182 170.162
L257.256 170.204
L257.628 183.157
L257.777 179.687
L257.926 183.191
L258 185.507
L258.074 184.38
L258.223 181.726
L258.372 186.765
L258.67 198.743
L258.744 198.522
L259.042 186.91
L259.116 187.014
L259.265 192.011
L259.339 190.539
L259.562 180.876
L259.86 192.405
L259.934 190.041
L260.083 183.378
L260.455 156.117
L260.53 155.274
L260.604 155.633
L260.678 156.442
L261.05 170.819
L261.199 174.261
L261.274 173.978
L261.422 178.844
L261.646 188.514
L261.794 187.463
L261.869 187.822
L261.943 186.82
L262.018 187.138
L262.315 199.455
L262.39 198.266
L262.538 192.675
L262.687 194.52
L262.836 198.17
L262.91 197.921
L262.985 196.739
L263.431 174.019
L263.729 160.423
L263.803 160.762
L263.878 162.193
L264.547 190.566
L264.696 193.393
L264.77 192.771
L264.845 194.043
L264.994 198.059
L265.291 185.79
L265.738 162.041
L266.11 167.349
L266.258 164.868
L266.482 172.892
L266.928 194.672
L267.077 204.605
L267.374 194.7
L267.449 196.476
L267.523 196.158
L267.821 186.336
L267.97 184.332
L268.118 178.187
L268.267 182.099
L268.342 182.023
L268.416 181.436
L268.565 178.256
L268.714 180.275
L268.788 180.302
L268.862 181.201
L268.937 180.15
L269.234 168.552
L269.532 172.989
L269.606 172.312
L269.681 171.607
L270.127 185.721
L270.202 184.954
L270.425 179.659
L270.574 182.535
L270.648 183.82
L270.871 179.798
L271.094 184.525
L271.318 189.288
L271.541 190.373
L271.615 190.02
L271.987 182.867
L272.21 170.881
L272.434 168.462
L272.657 172.602
L272.88 178.802
L273.252 198.184
L273.401 199.842
L273.624 198.764
L273.773 189.198
L274.07 168.704
L274.145 168.87
L274.517 175.478
L274.591 175.837
L274.666 174.932
L274.74 175.077
L274.963 175.561
L275.038 173.943
L275.186 168.137
L275.335 172.146
L275.633 184.007
L275.707 183.903
L275.856 185.078
L276.154 194.064
L276.228 196.898
L276.302 196.767
L277.046 179.134
L277.344 183.184
L277.939 166.457
L278.088 168.725
L278.237 172.236
L278.758 194.866
L278.832 193.297
L278.981 189.35
L279.13 188.852
L279.502 174.593
L279.576 174.033
L279.799 180.62
L279.874 180.433
L280.022 178.339
L280.097 178.533
L280.32 184.256
L280.543 190.954
L280.766 182.549
L280.841 183.696
L280.99 187.871
L281.064 187.567
L281.287 180.751
L281.51 187.159
L281.585 186.889
L281.808 176.196
L281.882 175.505
L282.106 169.471
L282.254 169.056
L282.403 166.271
L282.478 167.01
L282.85 186.081
L282.924 183.654
L283.073 173.079
L283.147 173.805
L283.445 194.34
L283.519 192.889
L283.594 190.739
L283.668 190.981
L284.04 205.718
L284.933 165.932
L285.007 164.958
L285.156 166.292
L285.454 157.748
L285.602 164.557
L285.9 180.122
L286.049 174.745
L286.123 175.014
L286.421 188.203
L286.57 189.115
L286.718 186.889
L286.793 187.608
L287.09 200.727
L287.314 187.767
L287.388 188.078
L287.611 193.345
L287.686 193.926
L287.834 189.177
L288.058 184.055
L288.206 180.558
L288.578 170.791
L288.653 170.363
L288.876 177.593
L288.95 177.413
L289.099 171.946
L289.248 166.623
L289.397 172.146
L289.546 175.92
L289.694 172.409
L289.769 172.92
L290.066 190.801
L290.364 184.311
L290.438 184.988
L290.587 188.306
L290.736 193.843
L290.81 193.338
L291.034 188.5
L291.182 192.592
L291.257 191.382
L291.406 180.447
L291.629 167.156
L291.778 170.218
L291.926 164.107
L292.001 160.928
L292.075 160.949
L292.745 194.486
L292.968 199.628
L293.042 199.815
L293.191 194.707
L293.414 186.24
L293.489 186.067
L293.638 187.76
L293.786 180.917
L293.935 172.644
L294.01 173.432
L294.158 179.334
L294.233 179.01
L294.456 166.361
L294.53 167.805
L294.977 185.742
L295.051 185.237
L295.126 183.889
L295.2 184.069
L295.498 191.133
L295.87 183.889
L296.167 171.994
L296.316 170.425
L296.465 170.314
L296.614 174.731
L296.837 182.887
L297.06 175.097
L297.134 175.346
L297.358 178.892
L297.506 174.676
L297.655 181.194
L297.878 190.643
L298.027 189.419
L298.25 193.691
L298.325 192.799
L298.548 191.182
L298.846 180.717
L299.069 185.258
L299.292 171.863
L299.366 172.727
L299.59 184.062
L299.664 183.606
L299.813 180.219
L299.962 182.424
L300.11 184.346
L300.408 177.247
L300.482 178.277
L300.557 179.003
L300.706 176.812
L300.929 185.915
L301.003 185.334
L301.226 179.079
L301.375 181.705
L301.45 181.208
L301.747 170.19
L301.896 169.347
L301.97 169.602
L302.045 169.789
L302.119 171.379
L302.417 183.343
L302.491 183.772
L302.789 189.626
L302.863 189.274
L302.938 189.924
L303.161 196.027
L303.607 184.456
L303.756 184.615
L303.905 182.355
L304.054 179.487
L304.128 180.281
L304.277 179.279
L304.426 185.389
L304.5 183.627
L304.872 166.997
L304.946 167.881
L305.244 182.085
L305.393 179.798
L305.467 179.95
L305.542 181.277
L305.616 180.731
L305.839 177.275
L306.137 181.512
L306.36 193.124
L306.583 195.771
L306.658 195.239
L306.732 194.976
L306.955 200.34
L307.402 170.072
L307.55 163.872
L307.699 157.976
L307.774 158.128
L307.848 159.297
L308.071 174.24
L308.22 182.355
L308.294 182.003
L308.369 182.099
L308.518 188.638
L308.741 198.045
L308.89 192.26
L309.113 179.569
L309.262 179.922
L309.41 176.452
L309.559 171.379
L309.782 188.147
L310.006 201.135
L310.154 203.209
L310.303 199.663
L310.452 202.559
L310.526 202.22
L310.75 175.001
L310.973 159.988
L311.122 154.866
L311.345 145.873
L311.419 147.131
L311.791 165.04
L312.163 209.865
L312.312 220.737
L312.386 220.959
L312.982 191.237
L313.279 161.965
L313.651 155.142
L313.726 155.011
L313.874 161.018
L314.246 180.053
L314.47 185.866
L314.767 204.764
L314.99 193.622
L315.065 193.767
L315.139 194.437
L315.288 192.813
L315.511 187.843
L315.586 188.168
L315.66 190
L315.734 189.288
L316.032 177.185
L316.33 180.24
L316.404 178.277
L316.85 152.392
L317.148 144.781
L317.297 155.661
L317.743 211.627
L318.115 238.826
L318.19 237.409
L318.487 202.586
L318.934 133.404
L319.008 130.591
L319.082 131.78
L319.231 140.06
L319.826 209.706
L319.975 207.432
L320.05 204.86
L320.422 181.069
L320.868 169.637
L320.942 169.001
L321.166 171.911
L321.24 172.512
L321.314 172.353
L321.463 170.183
L321.612 166.499
L321.761 170.245
L322.133 190.933
L322.356 193.29
L322.43 192.543
L322.728 177.931
L322.951 187.297
L323.323 205.199
L323.398 206.851
L323.546 202.013
L323.844 186.592
L324.216 153.504
L324.365 152.336
L324.514 154.762
L324.737 169.436
L325.034 187.359
L325.109 186.869
L325.258 181.394
L325.63 164.218
L325.704 162.559
L325.778 164.204
L326.076 206.25
L326.299 226.467
L326.448 222.431
L326.82 187.055
L327.192 154.838
L327.266 153.843
L327.862 174.932
L328.308 192.758
L328.457 189.329
L328.606 187.373
L328.68 187.857
L328.903 192.937
L329.052 186.392
L329.35 171.994
L329.424 170.798
L329.647 174.69
L329.87 171.441
L330.094 179.618
L330.466 193.746
L330.54 193.387
L330.838 184.899
L330.912 185.051
L330.986 183.931
L331.433 164.847
L332.177 188.984
L332.4 195.585
L332.549 195.35
L332.772 187.636
L332.846 187.885
L332.995 191.126
L333.144 190.822
L333.218 191.182
L333.367 187.857
L333.442 188.237
L333.516 189.488
L333.665 195.46
L333.739 194.396
L334.037 180.275
L334.409 157.776
L334.706 149.343
L334.781 149.661
L335.302 172.229
L335.674 201.156
L336.046 217.357
L336.12 216.286
L336.418 199.6
L336.641 186.426
L336.938 162.289
L337.013 162.144
L337.162 160.479
L337.682 187.47
L337.757 183.841
L337.906 178.726
L338.054 180.869
L338.129 180.413
L338.352 184.283
L338.426 184.235
L338.575 181.159
L338.65 181.056
L338.873 178.222
L339.022 179.846
L339.17 176.266
L339.319 173.763
L339.542 172.671
L339.691 176.791
L340.138 193.138
L340.212 192.543
L340.584 182.41
L340.882 180.489
L341.105 187.435
L341.179 186.889
L341.402 181.871
L341.551 179.03
L341.7 178.339
L341.923 173.598
L341.998 173.826
L342.518 193.711
L342.593 193.373
L343.114 176.632
L343.188 178.056
L343.337 172.333
L343.486 168.026
L343.709 169.519
L343.858 175.415
L344.378 201.259
L344.453 200.25
L345.048 166.105
L345.122 166.596
L345.271 172.623
L345.569 189.177
L345.643 187.905
L345.718 188.472
L345.792 189.544
L345.866 189.523
L346.015 188.23
L346.164 186.592
L346.238 186.682
L346.387 179.742
L346.536 171.455
L346.61 171.8
L346.685 172.734
L346.759 172.727
L346.908 170.522
L346.982 171.469
L347.503 188.396
L347.578 188.396
L347.95 183.447
L348.098 184.111
L348.322 190.408
L348.396 188.908
L349.066 167.867
L349.14 168.22
L349.363 183.24
L349.512 189.799
L349.735 185.818
L350.033 180.344
L350.107 180.489
L350.33 192.032
L350.405 189.322
L350.628 176.977
L350.702 177.572
L351 185.984
L351.074 184.56
L351.372 167.328
L351.446 167.729
L351.893 184.774
L352.042 184.318
L352.265 188.7
L352.339 188.106
L352.562 185.707
L352.711 183.862
L352.786 184.235
L352.934 186.115
L353.083 178.934
L353.232 173.452
L353.306 174.109
L353.381 174.026
L353.455 172.81
L353.53 173.985
L353.753 178.775
L353.827 179.777
L354.05 186.094
L354.125 186.62
L354.274 188.444
L354.422 187.518
L354.646 189.716
L354.869 180.98
L355.018 181.498
L355.166 179.362
L355.464 173.39
L355.538 174.392
L355.613 174.379
L355.687 174.683
L355.762 175.491
L355.91 180.586
L355.985 180.247
L356.134 178.56
L356.282 179.466
L356.357 179.169
L356.431 178.982
L356.654 182.77
L356.803 178.851
L357.101 191.113
L357.398 184.781
L357.845 171.8
L357.919 172.72
L358.217 185.168
L358.366 189.426
L358.514 186.205
L358.589 186.288
L358.738 187.352
L358.961 196.884
L359.035 196.144
L359.407 176.079
L359.482 176.252
L359.63 178.256
L359.705 177.295
L359.928 169.976
L360.374 178.159
L360.449 177.282
L360.598 175.229
L360.746 176.763
L361.565 187.532
L361.639 187.166
L361.714 186.806
L361.788 186.889
L361.862 186.924
L362.011 188.921
L362.234 178.54
L362.458 180.261
L362.755 186.965
L362.904 184.961
L363.053 189.15
L363.202 192.308
L363.276 192.357
L363.35 192.827
L363.425 192.17
L363.574 187.117
L363.946 169.181
L364.169 162.808
L364.318 163.022
L364.615 169.063
L365.062 186.212
L365.136 186.164
L365.21 185.376
L365.359 181.657
L365.508 183.8
L365.657 181.076
L366.029 196.297
L366.103 196.2
L366.252 189.156
L366.401 183.419
L366.624 188.686
L366.698 187.657
L366.996 174.392
L367.07 175.36
L367.294 182.168
L367.442 181.076
L367.591 182.839
L367.666 181.615
L367.889 173.252
L367.963 173.895
L368.186 180.786
L368.335 173.791
L368.484 166.126
L368.558 166.305
L368.856 178.726
L368.93 177.904
L369.005 177.883
L369.228 189.461
L369.302 188.714
L369.451 180.344
L369.526 180.537
L369.6 181.443
L369.898 199.87
L369.972 197.285
L370.195 188.438
L370.418 194.029
L370.642 183.26
L370.716 183.883
L370.79 184.429
L370.865 183.758
L371.088 171.282
L371.162 172.084
L371.386 175.837
L371.46 176.418
L371.758 169.167
L371.832 170.563
L372.055 185.956
L372.278 173.238
L372.353 174.524
L372.502 180.129
L372.65 178.678
L372.799 184.539
L373.022 195.681
L373.097 195.502
L373.246 186.329
L373.394 174.869
L373.469 175.091
L373.618 179.784
L373.692 178.491
L373.915 170.197
L374.138 181.989
L374.213 180.033
L374.287 177.005
L374.362 177.254
L374.585 195.073
L374.734 204.729
L374.808 203.969
L375.031 195.785
L375.106 195.847
L375.18 198.377
L375.254 197.23
L375.626 162.912
L375.701 166.07
L375.924 172.118
L375.998 170.245
L376.147 160.617
L376.222 160.644
L376.519 176.411
L376.742 166.153
L377.114 189.378
L377.189 188.714
L377.486 194.306
L377.635 197.928
L377.71 197.133
L377.933 187.726
L378.007 188.002
L378.156 192.771
L378.23 192.17
L378.528 175.609
L378.602 177.233
L378.826 180.537
L378.9 180.682
L379.049 181.636
L379.123 181.519
L379.346 177.33
L379.57 166.527
L379.644 167.384
L379.867 176.597
L380.016 170.079
L380.165 166.444
L380.239 168.787
L380.537 187.352
L380.76 193.725
L380.834 193.345
L380.909 193
L381.058 195.944
L381.132 197.506
L381.206 197.043
L381.504 190.069
L381.727 180.668
L381.876 184.014
L381.95 182.334
L382.248 167.335
L382.322 167.612
L382.62 173.95
L382.843 169.996
L383.066 179.528
L383.215 184.36
L383.438 179.017
L383.736 191.983
L384.034 184.995
L384.108 185.134
L384.406 181.83
L384.48 180.98
L384.852 191.7
L384.926 190.166
L385.224 176.12
L385.298 176.3
L385.373 176.134
L385.522 173.909
L386.042 183.945
L386.117 184.581
L386.191 184.408
L386.266 184.588
L386.414 186.378
L386.489 185.369
L386.712 179.355
L386.786 179.936
L387.01 175.547
L387.233 170.162
L387.307 171.289
L387.382 172.25
L387.456 171.835
L387.53 172.215
L387.977 183.537
L388.126 189.702
L388.2 189.322
L388.274 188.113
L388.423 191.244
L388.572 194.327
L388.646 193.794
L388.795 188.417
L388.944 183.191
L389.167 192.688
L389.242 191.652
L389.465 184.595
L389.614 177.04
L389.762 181.795
L389.837 181.505
L390.209 160.133
L390.283 162.601
L390.506 174.973
L390.655 173.556
L390.804 178.477
L391.027 185.293
L391.102 184.781
L391.474 191.707
L391.622 186.806
L391.697 184.436
L391.771 185.369
L391.994 189.91
L392.069 190.345
L392.143 191.5
L392.218 191.348
L392.441 176.176
L392.515 177.019
L392.59 178.526
L392.813 172.236
L393.036 167.204
L393.259 173.867
L393.706 188.479
L393.854 187.401
L394.003 189.523
L394.078 190.691
L394.226 185.037
L394.375 182.058
L394.45 182.742
L394.524 182.562
L394.673 183.281
L394.822 178.042
L394.97 173.653
L395.194 181.249
L395.342 187.235
L395.417 186.779
L395.566 183.903
L395.64 184.221
L395.789 185.873
L396.161 176.335
L396.31 184.581
L396.458 191.023
L396.756 173.259
L396.83 173.577
L397.054 178.505
L397.128 178.263
L397.277 176.438
L397.426 178.892
L397.649 183.184
L397.723 183.247
L397.872 180.558
L398.17 186.772
L398.318 181.249
L398.542 169.222
L398.839 184.83
L398.914 184.138
L398.988 183.295
L399.137 185.956
L399.286 189.578
L399.36 189.509
L399.583 184.408
L400.104 192.447
L400.253 187.359
L400.55 171.711
L400.699 172.761
L400.774 173.798
L400.848 172.105
L400.922 172.326
L400.997 173.238
L401.071 172.837
L401.22 175.132
L401.294 176.625
L401.369 175.415
L401.592 166.464
L401.741 174.358
L402.038 190.96
L402.113 190.525
L402.262 187.297
L402.336 187.456
L402.559 193.352
L402.857 184.712
L402.931 185.624
L403.08 190.255
L403.154 188.991
L403.303 182.479
L403.378 182.438
L403.601 180.986
L403.75 183.081
L403.824 182.314
L404.047 178.595
L404.122 178.795
L404.196 179.535
L404.27 179.252
L404.568 166.188
L404.791 176.604
L405.163 192.163
L405.238 191.859
L405.461 185.79
L405.684 178.512
L405.833 177.026
L405.907 177.392
L406.056 178.664
L406.205 175.623
L406.279 175.892
L406.354 176.646
L406.577 173.687
L407.023 180.468
L407.098 180.323
L407.172 180.447
L407.246 181.685
L407.395 185.804
L407.47 185.555
L407.767 182.459
L408.065 202.317
L408.139 197.783
L408.288 189.426
L408.437 190.649
L408.734 186.219
L408.958 176.784
L409.106 174.482
L409.33 170.397
L409.404 171.116
L409.553 168.082
L409.776 174.102
L409.85 173.971
L409.925 173.667
L410.074 174.385
L410.297 176.494
L410.371 176.459
L410.446 177.973
L410.743 192.82
L410.892 191.97
L411.041 185.79
L411.115 181.132
L411.19 181.415
L411.338 188.175
L411.413 186.945
L411.785 175.45
L411.859 175.892
L412.157 182.708
L412.306 181.145
L412.38 181.705
L412.603 194.762
L412.678 194.61
L412.826 190.864
L413.273 168.047
L413.347 168.282
L413.496 165.787
L413.57 166.921
L413.719 165.856
L413.868 176.791
L414.017 186.64
L414.091 186.329
L414.314 176.577
L414.463 183.399
L414.761 211.468
L414.835 212.146
L414.984 206.588
L415.058 204.135
L415.133 204.715
L415.207 204.729
L415.356 197.769
L415.802 157.182
L416.026 154.493
L416.472 168.02
L416.77 186.419
L416.844 185.949
L417.142 159.49
L417.29 172.581
L417.588 201.1
L417.811 196.58
L417.96 197.783
L418.109 189.302
L418.406 153.573
L418.481 156.933
L418.853 205.358
L419.225 212.153
L419.299 212.388
L419.374 211.814
L420.266 159.615
L420.787 117.486
L420.936 122.559
L421.159 145.514
L421.754 232.965
L421.903 237.264
L422.052 234.181
L422.201 223.481
L422.722 168.683
L422.945 164.702
L423.168 163.423
L423.242 162.476
L423.317 162.96
L423.391 165.234
L423.614 197.147
L423.838 212.851
L423.986 205.206
L424.73 137.233
L424.805 138.602
L425.4 175.464
L425.623 194.071
L425.772 196.414
L426.218 217.337
L426.293 214.682
L427.037 159.393
L427.111 161.978
L427.409 182.486
L427.781 219.148
L427.855 218.173
L428.45 171.047
L428.748 132.865
L429.046 149.122
L429.12 148.327
L429.194 149.219
L429.418 176.653
L429.566 190.518
L429.641 190.338
L429.79 187.981
L429.864 189.44
L430.162 209.685
L430.236 205.393
L430.459 194.078
L430.534 194.313
L430.682 192.923
L430.831 196.262
L431.054 185.396
L431.129 186.71
L431.278 188.901
L431.575 164.564
L431.65 165.11
L431.873 178.208
L432.096 172.008
L432.394 179.867
L432.468 179.957
L432.617 176.77
L432.691 176.846
L432.766 177.586
L433.063 183.115
L433.138 182.217
L433.286 185.514
L433.51 190.242
L433.584 188.597
L433.882 174.911
L434.03 179.784
L434.179 184.304
L434.402 174.275
L434.626 188.562
L434.998 175.623
L435.146 182.632
L435.221 186.025
L435.295 184.387
L435.444 175.982
L435.667 179.286
L435.89 189.101
L436.114 181
L436.262 181.871
L436.411 181.132
L436.56 178.27
L436.709 179.231
L436.783 178.47
L436.932 179.466
L437.081 177.399
L437.155 179.646
L437.527 203.146
L437.602 203.575
L437.676 202.483
L437.899 195.972
L437.974 196.068
L438.494 159.131
L438.569 158.108
L438.941 145.763
L439.09 155.108
L439.685 219.348
L439.759 221.781
L439.908 215.021
L440.206 188.023
L440.28 187.878
L440.354 187.117
L440.578 177.489
L440.652 177.973
L440.801 183.896
L440.875 182.549
L441.173 172.146
L441.247 172.879
L441.47 178.816
L441.619 172.678
L441.768 167.522
L442.066 179.563
L442.14 179.874
L442.214 178.906
L442.438 172.63
L442.661 179.977
L442.735 179.881
L442.958 173.411
L443.033 174.109
L443.256 183.627
L443.554 196.518
L443.628 198.301
L444.074 191.03
L444.223 193.705
L444.893 168.137
L444.967 169.499
L445.265 175.422
L445.414 180.586
L445.488 179.362
L445.711 173.128
L445.86 174.157
L446.009 174.966
L446.232 172.001
L446.381 177.524
L446.753 199.11
L446.827 199.379
L446.902 197.734
L447.199 181.609
L447.646 167.888
L448.241 206.201
L448.39 218.132
L448.464 213.5
L448.613 179.708
L448.985 52.7481
L449.059 55.8862
L449.357 197.278
L449.729 355.369
L449.803 354.961
L449.878 340.612
L449.878 340.612" style="fill:none;stroke:#808080;stroke-linecap:square;"/>
   </g>
  </g>
 </g>
 <defs>
  <clipPath id="p7ff5b81e1d">
   <rect height="345.6" width="446.4" x="72.0" y="43.2"/>
  </clipPath>
 </defs>
</svg>
