<?xml version="1.0" encoding="utf-8" standalone="no"?>
<!DOCTYPE svg PUBLIC "-//W3C//DTD SVG 1.1//EN"
  "http://www.w3.org/Graphics/SVG/1.1/DTD/svg11.dtd">
<!-- Created with matplotlib (http://matplotlib.org/) -->
<svg height="432pt" version="1.1" viewBox="0 0 576 432" width="576pt" xmlns="http://www.w3.org/2000/svg" xmlns:xlink="http://www.w3.org/1999/xlink">
 <defs>
  <style type="text/css">
*{stroke-linecap:butt;stroke-linejoin:round;}
  </style>
 </defs>
 <g id="figure_1">
  <g id="patch_1">
   <path d="
M0 432
L576 432
L576 0
L0 0
z
" style="fill:#ffffff;"/>
  </g>
  <g id="axes_1">
   <g id="line2d_1">
    <path clip-path="url(#p7ff5b81e1d)" d="
M72 214.877
L72.0744 196.807
L72.0744 196.807
L72.0744 196.807
L72.1488 198.081
L72.372 218.245
L72.8184 271.961
L73.116 280.403
L73.2648 262.837
L73.3392 264.338
L73.4136 268.218
L73.488 265.384
L73.7112 252.113
L73.86 257.544
L74.0832 246.831
L74.1576 250.672
L74.3064 222.421
L74.3808 228.84
L74.4552 235.001
L74.604 222.964
L74.8272 237.667
L74.9016 238.033
L75.1248 230.429
L75.2736 213.762
L75.348 203.226
L75.4224 203.611
L75.6456 226.628
L75.72 224.317
L75.8688 230.953
L75.9432 221.622
L76.0176 221.957
L76.1664 241.054
L76.2408 239.701
L76.464 243.839
L76.7616 265.424
L76.836 263.459
L76.9848 274.785
L77.1336 286.12
L77.4312 253.259
L77.58 231.308
L77.6544 234.024
L77.8776 209.052
L78.324 251.6
L78.3984 247.532
L78.4728 244.046
L78.5472 246.189
L78.6216 246.159
L78.7704 247.443
L79.1424 223.725
L79.2912 226.588
L79.5144 217.464
L79.5888 221.977
L79.6632 221.019
L79.812 202.377
L80.3328 240.304
L80.6304 292.845
L80.7792 278.211
L81.0024 292.134
L81.0768 288.391
L81.2256 256.31
L81.3 258.383
L81.3744 259.825
L81.5232 238.704
L81.5976 240.807
L81.8952 216.882
L82.1184 233.293
L82.416 197.992
L82.4904 178.698
L82.5648 184.909
L82.9368 237.638
L83.0112 236.196
L83.0856 230.321
L83.3088 251.738
L83.3832 249.24
L83.532 258.502
L83.7552 281.242
L84.1272 259.539
L84.2016 260.062
L84.3504 263.706
L84.7224 203.058
L84.7968 188.069
L85.2432 234.843
L85.3176 230.587
L85.392 230.706
L85.4664 231.042
L85.9872 298.69
L86.2104 281.756
L86.508 215.559
L86.5824 216.744
L86.7312 223.527
L86.88 213.288
L87.0288 198.417
L87.1032 201.883
L87.4008 234.083
L87.4752 233.5
L87.7728 247.423
L87.8472 247.68
L87.9216 244.48
L87.996 245.744
L88.0704 245.922
L88.2936 233.273
L88.368 234.833
L88.6656 249.358
L88.74 242.506
L88.8144 244.747
L88.8888 246.801
L89.0376 262.452
L89.2608 256.576
L89.3352 235.594
L89.4096 241.192
L89.484 246.989
L89.5584 244.905
L89.6328 242.891
L89.7072 236.127
L89.856 192.502
L90.0792 211.876
L90.3024 224.288
L90.4512 223.458
L90.8232 292.193
L91.0464 310.5
L91.2696 288.322
L91.716 216.359
L91.8648 229.323
L91.9392 228.089
L92.0136 223.656
L92.1624 205.941
L92.2368 209.15
L92.3112 208.755
L92.46 209.644
L92.5344 208.913
L92.6088 210.256
L92.7576 206.287
L92.832 210.997
L92.9808 233.461
L93.1296 220.94
L93.2784 230.192
L93.3528 228.455
L93.4272 228.978
L93.576 212.221
L93.6504 215.312
L94.32 283.988
L94.3944 288.609
L94.5432 279.268
L94.692 298.572
L94.7664 294.75
L94.9152 278.892
L94.9896 274.923
L95.3616 224.673
L95.436 216.171
L95.5848 227.428
L95.6592 225.779
L96.0312 193.974
L96.18 214.749
L96.2544 222.49
L96.3288 220.96
L96.4776 206.168
L96.7008 242.664
L96.7752 246.554
L97.1472 286.723
L97.2216 283.227
L97.5192 253.229
L97.5936 253.98
L98.04 230.903
L98.1144 232.207
L98.1888 233.382
L98.2632 231.209
L98.3376 220.407
L98.412 221.128
L98.4864 220.99
L98.5608 215.203
L98.7096 182.411
L99.156 225.275
L99.528 268.406
L99.6768 263.074
L99.8256 277.48
L99.9744 267.655
L100.049 267.705
L100.123 268.623
L100.272 265.69
L100.644 298.335
L100.718 299.954
L100.942 250.01
L101.239 178.175
L101.388 155.79
L101.462 161.833
L101.834 226.154
L101.909 234.379
L101.983 230.854
L102.132 236.729
L102.281 223.182
L102.355 224.475
L102.43 224.199
L102.504 217.306
L102.578 218.659
L102.727 221.691
L102.802 224.564
L103.397 313.916
L103.471 317.54
L103.694 308.387
L104.141 227.191
L104.215 223.932
L104.29 227.052
L104.438 218.077
L104.513 218.452
L104.587 219.459
L104.885 197.657
L104.959 197.123
L105.108 201.448
L105.331 194.882
L105.48 201.33
L106.224 305.385
L106.298 299.47
L106.447 310.233
L106.67 265.009
L106.968 212.241
L107.266 199.375
L107.34 190.448
L107.414 194.941
L107.638 229.797
L107.712 228.672
L107.861 264.752
L108.084 246.406
L108.233 221.197
L108.307 221.671
L108.53 235.554
L108.754 270.845
L108.828 271.556
L108.902 274.706
L109.051 254.641
L109.126 245.893
L109.2 246.139
L109.274 248.262
L109.423 242.999
L109.646 224.653
L109.721 224.446
L109.795 216.931
L109.87 220.15
L110.018 229.758
L110.167 217.84
L110.316 231.841
L110.39 229.59
L110.465 232.552
L110.614 247.68
L110.762 241.755
L110.986 267.823
L111.06 259.766
L111.134 262.57
L111.283 287.058
L111.73 237.805
L112.027 197.597
L112.102 195.277
L112.25 183.339
L112.325 186.291
L112.548 223.902
L112.622 222.826
L112.846 234.389
L112.92 228.82
L112.994 229.916
L113.069 229.215
L113.292 251.768
L113.366 247.354
L113.441 249.121
L113.664 283.148
L113.738 283.099
L113.887 292.173
L113.962 287.75
L114.334 248.944
L114.408 247.65
L114.557 270.015
L114.631 269.285
L114.929 224.683
L115.003 226.736
L115.375 184.781
L115.45 189.698
L115.524 195.81
L115.673 187.605
L116.194 285.449
L116.342 273.965
L116.491 278.172
L117.012 212.251
L117.086 212.972
L117.161 212.893
L117.533 223.063
L117.756 237.766
L117.979 271.23
L118.128 312.445
L118.649 202.189
L118.723 196.728
L118.946 203.591
L119.021 202.416
L119.393 228.455
L119.765 277.994
L119.988 291.097
L120.062 292.924
L120.137 290.544
L120.509 256.468
L120.806 213.534
L120.955 196.699
L121.104 204.401
L121.178 205.22
L121.253 208.41
L121.55 234.369
L121.774 224.139
L121.848 226.144
L121.922 225.384
L121.997 220.753
L122.071 222.105
L122.369 246.989
L122.518 260.003
L122.592 258.374
L122.741 264.357
L122.815 264.249
L122.964 257.208
L123.113 249.112
L123.187 252.34
L123.336 267.231
L123.41 266.994
L123.782 243.612
L123.931 255.559
L124.006 250.069
L124.154 201.952
L124.303 154.002
L124.378 155.345
L124.526 188.177
L124.973 332.283
L125.047 341.308
L125.419 276.276
L125.866 117.616
L125.94 119.186
L126.163 197.637
L126.386 254.128
L126.535 234.507
L126.61 237.351
L126.982 297.95
L127.13 337.664
L127.205 330.979
L127.8 180.9
L127.874 167.886
L128.023 215.401
L128.246 273.175
L128.395 274.202
L128.47 270.558
L128.544 260.151
L128.693 278.744
L128.767 275.032
L129.065 194.931
L129.139 198.98
L129.362 212.557
L129.437 221.789
L129.511 221.543
L129.809 195.415
L129.883 195.277
L130.255 243.325
L130.33 245.399
L130.404 243.75
L130.478 244.352
L130.553 235.998
L130.627 238.892
L130.776 300.705
L130.925 363.456
L130.999 362.794
L131.297 178.935
L131.52 231.14
L131.743 267.784
L131.818 264.585
L131.892 263.39
L132.041 242.367
L132.264 154.713
L132.338 171.717
L132.562 252.834
L132.71 263.814
L133.082 188.928
L133.157 193.924
L133.38 264.219
L133.454 255.204
L133.603 214.344
L133.752 233.579
L133.975 273.55
L134.05 274.4
L134.124 272.879
L134.422 345.386
L134.496 345.86
L134.794 272.049
L135.166 121.723
L135.24 117.211
L135.612 190.379
L135.686 190.557
L135.761 199.799
L136.058 284.61
L136.133 287.611
L136.282 281.608
L136.43 273.185
L136.505 271.447
L136.877 246.623
L137.1 264.446
L137.249 242.891
L137.621 140.386
L137.993 252.094
L138.067 248.993
L138.142 243.147
L138.29 273.985
L138.439 294.978
L138.514 294.158
L138.588 290.574
L138.737 308.792
L138.811 327.622
L138.886 325.262
L139.034 244.461
L139.109 247.956
L139.406 326.417
L139.481 318.113
L140.076 112.6
L140.522 215.411
L140.597 221.315
L140.671 219.982
L140.894 206.04
L141.043 215.134
L141.118 228.129
L141.192 217.731
L141.341 137.897
L141.415 142.844
L141.713 373.103
L141.787 367.109
L141.936 341.081
L142.159 274.844
L142.234 275.17
L142.308 274.745
L142.382 278.606
L142.531 294.178
L142.829 274.508
L143.052 237.124
L143.126 240.995
L143.275 251.679
L143.35 250.622
L143.424 246.781
L143.498 247.65
L143.573 245.172
L144.317 150.961
L144.391 150.28
L144.54 186.025
L144.763 231.091
L144.912 235.574
L144.986 230.785
L145.135 205.734
L145.358 311.616
L145.582 294.79
L145.73 304.704
L145.879 270.124
L146.177 141.521
L146.251 143.713
L146.474 245.033
L146.698 337.911
L146.772 341.624
L147.144 304.99
L147.293 269.69
L147.367 276.542
L147.442 276.997
L147.962 108.373
L148.037 97.8967
L148.111 108.433
L148.632 293.595
L148.781 289.093
L148.93 281.025
L149.004 284.471
L149.227 264.654
L149.376 287.345
L149.45 284.59
L149.599 251.541
L149.822 201.359
L149.897 192.305
L149.971 193.588
L150.269 230.232
L150.715 296.557
L150.864 279.238
L150.938 265.236
L151.087 186.588
L151.162 190.231
L151.459 258.65
L151.534 276.078
L151.608 273.452
L151.682 283.593
L151.757 279.949
L152.129 128.24
L152.203 133.928
L152.724 338.395
L152.798 336.647
L152.873 330.367
L153.096 249.349
L153.468 79.965
L153.766 207.561
L154.063 363.337
L154.138 356.81
L154.584 276.236
L154.658 276.009
L154.956 246.031
L155.328 183.043
L155.402 181.808
L155.551 198.565
L155.774 234.34
L155.849 234.952
L155.998 227.674
L156.146 240.6
L156.37 198.881
L156.518 228.682
L156.742 269.67
L156.816 276.355
L157.039 330.357
L157.114 329.419
L157.262 304.022
L157.783 107.356
L157.858 111.109
L158.081 168.271
L158.378 251.185
L158.527 271.319
L158.75 313.324
L158.825 312.277
L159.271 272.82
L159.569 236.275
L159.792 231.061
L159.866 224.683
L160.015 232.908
L160.238 222.332
L160.313 221.868
L160.387 224.564
L160.462 231.555
L160.536 231.18
L160.61 229.314
L160.759 220.308
L160.982 229.185
L161.28 213.248
L161.578 260.655
L161.652 260.576
L161.801 240.649
L162.098 210.957
L162.173 204.569
L162.694 283.296
L162.917 297.762
L162.991 297.11
L163.289 259.391
L163.735 222.747
L164.107 151.168
L164.182 153.785
L164.926 323.968
L165.074 289.231
L165.372 212.962
L165.595 185.551
L165.818 197.874
L166.339 276.276
L166.562 242.051
L166.786 196.837
L167.009 252.992
L167.381 322.329
L167.53 293.99
L168.05 159.364
L168.125 166.385
L168.646 299.49
L168.794 281.578
L168.869 284.333
L168.943 277.796
L169.315 207.531
L169.464 205.22
L169.762 167.234
L169.836 168.755
L169.985 188.987
L170.803 328.402
L170.878 331.503
L170.952 330.95
L171.324 280.453
L171.547 234.103
L171.845 200.925
L172.142 144.908
L172.217 138.875
L172.366 159.621
L172.738 228.267
L172.812 235.228
L173.11 307.153
L173.258 316.425
L173.333 314.173
L173.556 286.594
L173.854 240.758
L174.002 223.043
L174.3 255.204
L174.374 256.981
L174.523 228.494
L174.821 173.336
L174.895 171.44
L175.044 181.364
L175.639 286.12
L175.788 299.224
L176.011 257.91
L176.16 264.436
L176.309 259.114
L176.532 238.902
L176.606 241.498
L176.681 247.048
L177.053 195.247
L177.35 213.969
L177.425 210.454
L177.574 206.751
L177.946 240.462
L178.169 281.114
L178.243 281.47
L178.318 283.168
L178.466 279.524
L178.615 261.543
L178.838 236.769
L179.21 255.095
L179.285 264.92
L179.582 244.273
L179.657 244.767
L179.806 263.775
L179.88 268.05
L180.029 260.862
L180.103 260.161
L180.401 229.017
L180.624 169.219
L180.698 164.133
L180.773 166.641
L180.996 179.448
L181.591 280.482
L181.814 307.913
L182.112 284.096
L182.633 212.399
L182.707 213.149
L183.154 254.937
L183.302 241.094
L183.526 213.653
L183.674 211.026
L184.642 286.229
L184.716 282.783
L185.386 208.884
L185.683 205.112
L185.832 216.003
L186.055 241.558
L186.204 268.524
L186.502 241.143
L186.576 231.92
L186.65 233.402
L186.725 228.849
L187.022 238.349
L187.097 237.707
L187.32 220.565
L187.394 221.059
L187.469 220.476
L187.543 222.569
L188.138 290.277
L188.213 290.811
L188.436 285.775
L189.031 203.275
L189.18 200.718
L189.329 213.712
L189.478 234.833
L189.85 199.098
L189.924 199.197
L190.073 215.885
L190.37 261.672
L190.445 263.775
L190.668 254.779
L190.817 249.546
L191.04 230.824
L191.189 227.674
L191.858 302.966
L191.933 299.806
L192.454 195.237
L192.602 198.605
L192.826 212.3
L192.9 208.864
L192.974 206.464
L193.57 257.603
L193.644 256.497
L193.718 252.419
L193.867 261.652
L194.09 238.013
L194.165 243.799
L194.388 211.273
L194.462 214.996
L194.686 225.729
L194.909 249.783
L195.058 230.874
L195.132 234.626
L195.206 232.908
L195.355 218.353
L195.578 256.962
L195.653 252.972
L195.727 257.07
L195.876 281.795
L196.025 271.655
L196.174 278.063
L196.322 264.565
L196.397 267.438
L196.471 264.92
L196.918 199.602
L196.992 195.336
L197.885 266.401
L197.959 266.105
L198.034 264.229
L198.182 251.047
L198.48 214.186
L198.554 215.065
L198.703 223.823
L198.778 214.502
L198.852 216.457
L199.224 255.48
L199.447 264.032
L199.522 269.265
L199.819 237.647
L199.968 240.926
L200.042 236.463
L200.117 237.509
L200.266 245.32
L200.638 232.236
L200.712 231.99
L200.935 266.214
L201.01 262.837
L201.158 249.674
L201.233 253.328
L201.307 247.897
L201.456 229.314
L201.605 236.048
L201.754 214.858
L201.902 219.943
L201.977 217.998
L202.051 212.666
L202.498 267.152
L202.721 250.81
L202.87 263.4
L202.944 258.818
L203.316 226.104
L203.39 231.2
L203.465 236.038
L203.539 234.952
L203.688 224.544
L203.911 255.322
L203.986 251.807
L204.06 248.193
L204.134 255.451
L204.209 254.167
L204.432 231.348
L204.506 232.177
L204.655 222.214
L204.804 232.76
L204.953 221.868
L205.399 272.662
L205.474 272.652
L205.622 248.954
L205.697 252.814
L205.771 260.664
L205.994 230.686
L206.143 251.017
L206.292 234.182
L206.441 241.903
L206.59 210.414
L206.664 215.549
L206.813 241.271
L206.962 235.505
L207.11 252.182
L207.334 219.044
L207.408 218.56
L207.482 215.49
L207.557 217.069
L207.706 237.568
L207.854 256.892
L208.003 243.019
L208.078 247.245
L208.226 262.304
L208.301 262.373
L208.45 287.868
L208.524 279.722
L208.673 246.376
L208.747 251.718
L208.97 227.171
L209.045 233.846
L209.119 233.866
L209.268 214.907
L209.417 232.631
L209.491 228.968
L209.64 220.525
L209.863 251.857
L209.938 252.301
L210.086 263.785
L210.31 236.838
L210.384 236.946
L210.533 228.731
L210.682 245.527
L210.756 244.48
L210.905 233.658
L210.979 234.952
L211.202 246.07
L211.574 236.927
L211.723 241.459
L211.798 236.769
L212.021 216.24
L212.244 225.482
L212.467 249.664
L212.69 241.745
L212.914 255.48
L213.062 276.414
L213.137 274.854
L213.509 219.558
L213.583 217.682
L213.732 224.712
L214.104 254.582
L214.178 251.205
L214.253 247.186
L214.327 251.126
L214.402 250.81
L214.476 248.282
L214.625 256.527
L214.699 255.431
L215.071 215.213
L215.146 211.273
L215.22 213.465
L215.666 268.821
L215.741 267.616
L215.89 261.01
L215.964 267.073
L216.187 242.555
L216.262 251.294
L216.857 192.097
L217.08 209.338
L217.526 271.072
L217.675 258.857
L217.75 265.157
L217.824 263.173
L217.898 263.222
L217.973 261.751
L218.196 241.597
L218.27 242.841
L218.345 241.607
L218.568 267.586
L218.717 250.109
L218.791 251.106
L218.866 247.245
L219.089 198.901
L219.163 200.925
L219.386 225.877
L219.535 240.718
L219.684 229.294
L219.833 245.478
L219.982 226.47
L220.056 235.406
L220.13 232.019
L220.205 218.185
L220.354 245.211
L220.428 240.195
L220.502 222.718
L220.577 229.61
L220.949 269.62
L221.023 272.8
L221.098 270.845
L221.246 278.774
L221.47 250.474
L221.544 251.037
L222.065 212.31
L222.437 233.826
L222.511 227.507
L222.586 231.2
L222.66 244.086
L222.734 241.173
L222.809 233.204
L222.958 249.674
L223.032 246.376
L223.106 248.154
L223.255 270.598
L223.33 264.92
L223.404 266.944
L223.478 273.965
L223.553 269.255
L223.702 240.837
L223.776 240.669
L223.925 234.744
L223.999 237.914
L224.074 232.394
L224.148 234.596
L224.222 240.294
L224.297 239.563
L224.371 229.531
L224.446 231.338
L224.52 234.991
L224.743 215.648
L224.966 229.323
L225.041 227.21
L225.19 217.642
L225.562 251.965
L225.636 253.101
L225.71 251.56
L225.785 251.965
L225.859 253.881
L225.934 253.16
L226.082 236.996
L226.231 261.514
L226.603 249.447
L226.678 249.191
L226.752 248.331
L226.826 244.313
L226.901 247.433
L226.975 257.732
L227.05 256.705
L227.124 248.351
L227.273 255.816
L227.422 234.053
L227.496 236.226
L227.57 243.177
L227.645 241.755
L228.017 214.739
L228.091 216.684
L228.166 213.455
L228.612 231.259
L228.91 220.417
L229.282 257.327
L229.356 256.31
L229.43 252.962
L229.579 258.324
L229.654 255.431
L229.728 257.12
L229.877 275.19
L230.026 267.438
L230.1 278.784
L230.174 276.157
L230.323 253.901
L230.398 254.937
L230.472 255.708
L230.621 243.029
L230.993 204.361
L231.067 202.159
L231.29 217.919
L231.588 251.452
L231.662 251.007
L231.811 246.169
L232.034 228.859
L232.183 245.093
L232.258 243.444
L232.63 223.498
L232.704 226.549
L232.853 241.893
L232.927 241.814
L233.076 252.943
L233.299 235.455
L233.374 233.797
L233.448 226.875
L233.746 245.478
L233.969 273.896
L234.043 274.064
L234.118 272.81
L234.341 236.314
L234.415 240.551
L234.49 240.945
L234.638 246.821
L234.713 242.298
L235.085 194.734
L235.308 211.639
L235.531 259.312
L235.68 253.012
L235.829 251.392
L235.903 256.695
L236.052 287.967
L236.126 287.058
L236.201 285.972
L237.168 188.316
L237.317 195.889
L237.689 255.155
L237.838 261.237
L237.986 257.732
L238.061 259.055
L238.284 271.151
L238.433 266.55
L238.73 238.931
L238.879 215.924
L238.954 215.559
L239.028 216.072
L239.102 219.232
L239.177 217.316
L239.326 226.608
L239.921 277.085
L240.07 273.452
L240.218 252.775
L240.293 254.513
L240.814 222.263
L240.962 195.336
L241.037 196.728
L241.409 224.534
L241.483 226.549
L241.632 202.929
L241.781 214.917
L241.855 213.159
L241.93 220.94
L242.302 292.588
L242.45 299.51
L242.822 271.556
L242.971 262.866
L243.046 263.538
L243.194 246.959
L243.492 195.751
L243.641 207.482
L243.79 224.396
L243.864 222.125
L244.087 216.576
L244.162 216.151
L244.236 213.347
L244.31 216.378
L244.459 227.368
L244.534 229.639
L245.054 290.208
L245.129 289.695
L245.352 276.197
L245.873 217.415
L245.947 211.56
L246.022 218.146
L246.096 216.882
L246.245 206.287
L246.394 204.559
L246.468 202.12
L246.617 229.225
L246.84 262.096
L246.989 275.486
L247.212 266.54
L247.286 265.789
L247.51 256.636
L247.658 252.795
L247.807 243.463
L248.03 222.806
L248.7 241.232
L248.923 235.031
L248.998 235.554
L249.221 220.17
L249.295 225.749
L249.518 235.989
L249.667 240.284
L249.742 239.06
L249.816 237.875
L249.965 244.234
L250.039 244.155
L250.114 242.644
L250.411 262.195
L250.486 263.015
L250.56 262.778
L250.634 259.578
L250.709 259.657
L250.783 265.74
L250.858 263.005
L251.006 240.007
L251.081 240.847
L251.23 234.744
L251.304 236.937
L251.378 236.7
L251.527 209.15
L251.602 209.466
L251.676 223.33
L251.75 220.762
L251.825 219.647
L252.122 242.486
L252.197 242.338
L252.569 214.127
L252.941 252.953
L253.015 258.867
L253.164 252.893
L253.313 262.787
L253.387 260.704
L253.462 262.215
L253.61 254.888
L253.759 263.469
L253.908 256.073
L253.982 256.823
L254.057 254.572
L254.206 243.424
L254.354 259.42
L254.503 250.978
L254.578 253.377
L254.652 248.499
L254.875 204.539
L254.95 204.322
L255.024 200.115
L255.173 185.037
L255.247 183.428
L255.47 191.643
L255.768 268.722
L255.991 311.102
L256.066 312.169
L256.512 266.164
L256.661 260.655
L256.81 225.986
L257.107 132.249
L257.182 136.505
L257.33 177.029
L257.628 266.638
L257.702 266.589
L257.851 270.164
L258 267.537
L258.074 262.689
L258.149 264.831
L258.223 268.426
L258.298 267.586
L258.372 266.283
L258.521 270.015
L258.744 257.989
L259.116 222.382
L259.19 223.675
L259.339 238.546
L259.414 235.87
L259.488 233.56
L259.637 235.979
L259.786 239.899
L260.009 224.791
L260.232 219.153
L260.455 245.893
L260.53 242.673
L260.678 244.777
L261.125 192.463
L261.348 235.228
L261.72 319.565
L261.869 330.574
L261.943 328.264
L262.092 296.873
L262.538 190.735
L262.613 186.281
L262.762 167.915
L262.91 175.933
L262.985 179.241
L263.282 230.025
L263.58 260.437
L263.654 263.044
L263.729 262.323
L264.026 255.046
L264.324 271.023
L264.398 270.43
L264.547 246.11
L264.845 212.221
L265.217 267.063
L265.366 254.207
L265.44 253.535
L265.663 228.899
L265.738 235.998
L266.184 204.904
L266.258 208.568
L266.854 272.82
L266.928 266.382
L267.002 260.645
L267.226 270.628
L267.3 267.616
L267.374 268.672
L267.449 266.145
L267.895 215.114
L268.267 235.594
L268.342 235.09
L268.565 214.858
L268.639 216.813
L268.714 219.548
L268.788 217.287
L268.862 217.474
L269.011 225.196
L269.086 223.705
L269.234 227.378
L269.755 273.639
L269.83 273.225
L270.053 259.825
L270.202 274.617
L270.276 274.064
L270.425 279.11
L270.648 260.516
L270.722 253.831
L270.946 216.911
L271.02 216.161
L271.094 211.619
L271.169 213.594
L271.243 213.505
L271.466 210.612
L271.541 210.947
L271.69 200.412
L271.764 205.349
L271.987 200.165
L272.806 318.686
L272.88 315.417
L273.252 263.261
L273.55 195.583
L273.773 182.085
L273.996 201.044
L274.442 259.717
L274.591 262.422
L274.666 261.859
L274.74 260.023
L275.261 220.022
L275.335 220.17
L275.484 225.621
L275.633 243.849
L275.707 243.73
L275.782 243.404
L275.856 255.164
L275.93 251.906
L276.079 261.287
L276.228 268.87
L276.526 248.164
L276.674 221.315
L276.823 230.558
L276.898 226.865
L277.121 204.292
L277.195 209.506
L277.493 244.856
L277.567 248.993
L277.642 245.093
L277.716 251.017
L277.865 289.527
L277.939 286.249
L278.014 284.807
L278.088 293.664
L278.162 287.444
L278.609 196.274
L278.832 208.331
L279.13 244.54
L279.204 243.197
L279.353 237.598
L279.427 245.853
L279.502 241.972
L279.576 231.674
L279.65 233.885
L279.725 235.08
L279.874 225.532
L279.948 229.442
L280.022 227.803
L280.171 226.569
L280.246 227.684
L280.394 245.28
L280.543 226.648
L280.618 230.627
L281.064 274.409
L281.138 271.941
L281.213 263.725
L281.287 263.943
L281.362 263.627
L281.436 260.832
L281.585 245.774
L281.659 245.152
L281.957 215.648
L282.329 255.885
L282.403 248.134
L282.552 225.087
L282.626 222.885
L282.775 212.043
L282.85 216.615
L283.222 333.576
L283.296 327.523
L283.445 292.045
L283.742 148.177
L283.817 147.762
L284.263 279.544
L284.338 276.483
L284.412 277.006
L284.561 247.048
L284.858 185.304
L284.933 182.292
L285.082 196.343
L285.677 296.222
L285.751 291.018
L285.974 249.121
L286.198 213.169
L286.867 289.813
L287.239 224.564
L287.314 225.838
L287.537 240.254
L287.611 239.701
L287.76 237.085
L287.983 255.727
L288.206 201.162
L288.43 142.163
L288.504 142.44
L288.727 175.094
L289.174 299.233
L289.397 374.169
L289.546 361.846
L289.918 249.664
L289.992 248.48
L290.215 262.61
L290.29 261.415
L290.438 250.632
L290.513 253.446
L290.587 250.682
L290.81 206.158
L290.885 207.561
L290.959 205.378
L291.406 155.049
L291.48 153.973
L291.778 181.729
L292.373 289.241
L292.447 293.259
L292.596 314.035
L292.67 314.44
L292.968 261.247
L293.042 265.058
L293.117 263.735
L293.489 242.061
L293.786 190.537
L293.861 188.888
L294.307 247.542
L294.382 250.178
L294.53 264.348
L294.828 237.262
L294.977 234.458
L295.126 245.468
L295.2 245.28
L295.349 237.47
L295.498 247.946
L295.572 246.169
L295.646 248.746
L295.795 260.013
L295.87 250.04
L295.944 251.699
L296.018 255.204
L296.316 222.984
L296.39 227.684
L296.539 227.902
L296.762 223.596
L296.986 205.447
L297.06 211.046
L297.134 208.113
L297.209 208.321
L297.432 236.482
L297.506 231.891
L297.581 233.135
L297.73 254.967
L297.878 270.144
L297.953 266.905
L298.027 268.771
L298.102 274.874
L298.176 272.741
L298.325 279.791
L298.548 263.33
L298.92 238.576
L299.069 252.676
L299.292 231.713
L299.366 232.286
L299.441 231.269
L299.59 225.097
L299.738 229.995
L299.813 229.077
L299.962 222.382
L300.036 229.886
L300.185 221.73
L300.408 236.729
L300.557 218.057
L300.706 237.875
L300.78 237.756
L300.854 235.801
L300.929 238.516
L301.003 237.43
L301.078 236.887
L301.152 234.073
L301.226 234.547
L301.301 236.206
L301.45 230.054
L301.598 241.064
L301.822 271.684
L301.896 273.155
L302.714 228.632
L302.938 232.454
L303.086 247.068
L303.235 236.818
L303.384 244.283
L303.458 242.012
L303.607 254.641
L303.682 254.315
L303.756 249.26
L303.83 250
L303.905 251.639
L304.277 221.256
L304.351 223.547
L304.426 221.385
L304.649 228.899
L304.872 245.27
L305.021 256.132
L305.095 254.394
L305.244 247.581
L305.318 248.667
L305.393 251.857
L305.467 249.911
L305.616 233.174
L305.765 236.087
L305.914 225.354
L305.988 229.748
L306.137 222.125
L306.658 254.829
L306.806 248.509
L306.881 250.78
L306.955 250.721
L307.104 230.291
L307.253 238.951
L307.327 236.314
L307.402 236.986
L307.476 245.656
L307.625 239.148
L307.699 238.161
L307.774 243.286
L307.922 259.835
L307.997 254.987
L308.146 262.916
L308.22 262.205
L308.369 246.534
L308.443 247.028
L308.518 250.257
L308.89 210.898
L308.964 211.342
L309.336 236.226
L309.41 246.031
L309.485 244.816
L309.634 254.769
L309.782 237.697
L309.857 240.432
L309.931 239.385
L310.08 233.984
L310.229 245.103
L310.303 243.315
L310.378 244.836
L310.526 258.324
L310.601 255.056
L310.675 244.125
L310.75 245.616
L310.824 260.98
L310.898 259.667
L311.047 244.204
L311.122 244.421
L311.196 243.138
L311.345 231.091
L311.494 222.806
L311.568 224.416
L311.642 223.557
L311.717 229.175
L311.866 251.778
L312.014 241.173
L312.089 246.396
L312.312 236.216
L312.461 248.065
L312.61 244.204
L312.684 249.882
L312.758 249.042
L313.056 237.055
L313.13 239.662
L313.205 237.124
L313.354 223.359
L313.651 240.175
L313.8 234.873
L313.949 248.331
L314.023 244.866
L314.098 232.631
L314.172 233.411
L314.246 240.797
L314.321 240.057
L314.47 229.817
L314.544 235.238
L314.693 225.334
L314.842 246.643
L314.916 243.266
L314.99 239.395
L315.139 248.47
L315.214 246.179
L315.288 242.545
L315.362 244.332
L315.586 266.885
L315.734 274.637
L315.809 282.398
L315.883 279.998
L315.958 271.418
L316.032 271.921
L316.106 271.19
L316.255 244.994
L316.478 208.726
L316.702 194.635
L316.776 194.092
L316.925 188.829
L317.743 271.931
L317.818 275.022
L317.966 271.22
L318.115 278.191
L319.157 213.949
L319.231 214.66
L319.454 224.396
L319.603 236.038
L319.752 237.104
L319.826 234.596
L319.901 228.198
L319.975 230.854
L320.124 253.377
L320.273 238.783
L320.347 241.39
L320.422 237.193
L320.645 257.682
L320.719 253.417
L320.794 241.637
L320.868 243.651
L321.017 261.78
L321.091 253.041
L321.166 253.259
L321.314 262.284
L321.463 244.342
L321.538 247.127
L321.612 259.233
L321.686 258.927
L321.835 231.121
L321.91 237.332
L322.058 229.955
L322.207 233.115
L322.356 222.253
L322.43 226.667
L322.579 214.522
L322.654 218.254
L322.728 217.692
L322.802 212.34
L323.249 239.454
L323.472 263.696
L323.546 261.721
L323.695 269.216
L324.067 236.482
L324.142 234.073
L324.216 235.771
L324.365 244.638
L324.588 230.173
L324.811 249.556
L324.886 246.939
L324.96 246.633
L325.258 264.278
L325.332 263.706
L325.481 263.597
L325.704 239.464
L325.927 212.28
L326.002 213.564
L326.15 207.393
L326.299 219.706
L326.448 207.748
L326.597 218.422
L326.671 220.496
L326.746 227.457
L326.969 255.974
L327.118 271.734
L327.192 270.855
L327.266 270.252
L327.341 270.598
L327.415 275.278
L327.49 269.314
L327.713 239.435
L327.787 233.007
L327.936 209.259
L328.085 215.559
L328.159 212.122
L328.234 214.157
L328.457 231.249
L328.531 233.471
L329.275 293.417
L329.424 281.025
L329.796 229.116
L330.019 213.228
L330.391 197.341
L330.838 231.002
L330.912 242.18
L330.986 240.373
L331.061 238.062
L331.284 262.007
L331.358 260.25
L331.433 256.191
L331.582 259.578
L331.73 249.704
L331.805 249.714
L332.028 235.149
L332.102 237.193
L332.549 268.021
L332.623 267.675
L332.698 269.67
L332.921 259.539
L333.144 250.612
L333.59 204.845
L333.665 203.71
L333.739 199.789
L333.962 228.968
L334.037 225.285
L334.111 222.935
L334.186 224.959
L334.558 245.656
L334.706 249.072
L334.93 264.664
L335.004 264.436
L335.078 266.678
L335.227 259.361
L335.302 259.568
L335.45 266.559
L335.674 239.84
L335.822 248.815
L336.046 227.428
L336.12 229.491
L336.269 215.806
L336.566 229.452
L336.715 245.715
L336.864 264.14
L336.938 266.944
L337.459 214.552
L337.534 202.574
L337.608 203.265
L337.831 226.766
L337.906 227.398
L338.352 286.002
L338.426 284.689
L338.947 231.516
L339.17 213.061
L339.245 213.396
L339.394 208.094
L339.468 209.871
L339.617 216.931
L339.691 212.498
L339.766 213.021
L340.51 279.742
L341.03 243.068
L341.254 215.085
L341.923 271.882
L341.998 269.798
L342.667 210.928
L342.742 209.713
L342.965 218.827
L343.039 219.903
L343.114 219.321
L343.188 217.701
L343.337 222.234
L343.783 256.34
L343.858 256.695
L344.081 277.204
L344.23 270.282
L344.378 280.502
L344.899 214.976
L344.974 214.058
L345.197 200.342
L345.271 201.113
L345.494 209.526
L345.792 263.202
L345.941 270.233
L346.09 288.362
L346.313 279.682
L346.834 214.838
L346.982 211.402
L347.057 213.534
L347.131 212.883
L347.206 214.601
L347.503 235.268
L347.652 245.409
L347.726 245.191
L347.801 240.827
L347.875 241.321
L347.95 243.73
L348.173 230.597
L348.247 230.291
L348.322 229.284
L348.545 214.413
L348.694 219.706
L348.768 218.393
L348.842 222.056
L349.289 278.665
L349.735 297.308
L349.81 293.358
L349.884 293.694
L349.958 294.859
L350.033 294.444
L350.926 155.434
L351 154.23
L351.074 156.106
L351.298 168.982
L351.372 168.616
L351.446 170.937
L352.042 297.96
L352.339 314.904
L352.637 289.162
L353.232 217.731
L353.381 223.547
L353.604 242.594
L353.827 260.872
L353.976 267.3
L354.274 233.5
L354.571 190.893
L354.646 188.098
L354.72 188.316
L354.869 197.005
L354.943 198.032
L355.315 239.366
L355.538 256.567
L355.687 270.519
L355.762 269.996
L355.985 248.055
L356.059 244.638
L356.134 244.984
L356.431 250.563
L356.506 258.443
L356.58 258.383
L357.026 224.406
L357.101 229.531
L357.175 231.782
L357.25 229.106
L357.547 256.646
L357.622 256.576
L357.696 266.352
L357.77 263.528
L358.291 201.527
L358.589 220.871
L358.961 262.274
L359.11 258.255
L359.184 258.443
L359.333 264.051
L359.407 263.034
L359.482 264.041
L360.151 205.24
L360.3 215.934
L360.598 232.414
L360.672 232.779
L361.193 260.625
L361.267 278.665
L361.342 275.812
L361.49 263.548
L361.565 266.441
L361.639 263.962
L361.788 246.524
L361.862 249.368
L362.383 193.43
L362.458 195.208
L362.904 248.677
L362.978 251.945
L363.127 279.83
L363.202 275.93
L363.35 261.129
L363.574 283.563
L363.648 281.934
L363.871 232.809
L364.02 197.834
L364.094 203.917
L364.169 202.86
L364.243 193.282
L364.318 198.97
L364.466 240.511
L364.541 238.842
L364.69 230.548
L365.136 244.846
L365.21 239.859
L365.285 239.919
L365.508 251.481
L365.582 250.079
L365.657 245.922
L365.731 246.811
L365.88 253.861
L365.954 253.269
L366.103 252.133
L366.326 231.841
L366.401 234.182
L366.698 243.335
L366.996 257.801
L367.07 258.206
L367.219 249.042
L367.294 253.772
L367.368 253.565
L367.517 240.985
L367.591 241.745
L367.666 238.112
L367.889 215.124
L368.038 206.02
L368.112 198.565
L368.186 201.409
L368.633 249.388
L368.707 249.299
L369.005 276.246
L369.079 275.407
L369.749 221.394
L369.823 219.005
L370.046 224.939
L370.121 230.982
L370.195 230.824
L370.27 230.469
L370.418 242.555
L370.642 265.483
L370.939 245.586
L371.014 243.612
L371.088 244.165
L371.162 245.103
L371.386 257.692
L371.758 215.47
L371.832 216.625
L371.906 216.003
L371.981 217.79
L372.278 256.705
L372.353 254.147
L372.427 254.552
L372.502 255.53
L372.799 244.935
L372.874 248.015
L373.246 228.662
L373.32 227.24
L373.543 240.037
L373.692 225.166
L373.841 227.358
L373.915 227.151
L373.99 230.331
L374.138 225.482
L374.213 226.924
L374.957 268.742
L375.329 257.485
L375.552 218.294
L375.701 232.197
L375.775 229.323
L376.147 218.718
L376.37 237.647
L376.594 252.874
L376.668 259.233
L376.742 257.594
L376.817 257.327
L376.891 259.351
L376.966 271.21
L377.04 268.692
L377.635 195.662
L377.71 196.067
L378.23 251.787
L378.379 249.003
L378.454 249.783
L378.602 242.743
L378.751 254.967
L378.826 252.765
L378.9 245.517
L378.974 248.391
L379.049 257.732
L379.123 255.332
L379.346 233.737
L379.495 221.76
L379.57 225.324
L379.793 252.647
L379.867 246.386
L379.942 247.561
L380.09 257.376
L380.239 248.746
L380.314 249.921
L380.388 254.73
L380.462 254.612
L380.611 260.171
L380.686 266.629
L380.76 263.538
L381.058 223.429
L381.206 233.095
L381.43 210.76
L381.504 211.382
L381.876 222.451
L382.174 245.981
L382.322 232.691
L382.992 264.111
L383.066 262.155
L383.215 241.34
L383.29 242.17
L383.364 246.919
L383.438 246.742
L383.513 239.662
L383.587 242.762
L383.736 255.392
L383.959 236.374
L384.034 241.074
L384.182 237.371
L384.554 261.198
L384.778 245.942
L384.926 231.022
L385.001 232.809
L385.298 202.298
L385.373 202.92
L385.596 216.003
L385.67 215.193
L385.819 229.205
L385.968 249.595
L386.042 248.43
L386.117 242.95
L386.34 261.178
L386.489 270.242
L386.563 267.251
L386.638 266.016
L386.712 266.184
L386.786 261.563
L387.01 237.213
L387.158 240.442
L387.233 238.25
L387.53 251.165
L387.605 252.064
L387.754 244.352
L387.977 232.957
L388.126 243.888
L388.2 242.506
L388.423 228.879
L388.572 212.833
L388.646 216.082
L388.795 240.452
L388.87 239.721
L389.018 230.489
L389.242 238.033
L389.39 227.487
L389.465 228.603
L389.539 228.632
L389.688 222.313
L389.762 223.893
L390.06 253.851
L390.283 278.448
L390.358 278.339
L390.73 244.224
L391.027 214.571
L391.176 210.849
L391.25 211.234
L391.548 247.403
L391.622 242.585
L391.697 234.182
L391.771 234.468
L391.846 238.042
L392.143 264.861
L392.218 266.678
L392.366 264.673
L392.515 279.712
L392.59 276.374
L392.962 237.075
L393.036 235.623
L393.259 204.134
L393.482 222.787
L393.557 220.654
L393.78 202.377
L393.854 204.559
L394.152 241.824
L394.45 276.532
L394.598 258.601
L394.822 238.27
L394.97 235.347
L395.045 236.581
L395.194 232.009
L395.268 234.409
L395.491 253.041
L395.566 253.585
L395.714 260.694
L395.938 233.698
L396.012 239.909
L396.086 242.032
L396.31 232.602
L396.384 231.367
L396.458 224.989
L396.533 229.195
L396.756 254.226
L396.83 250.059
L397.054 258.907
L397.202 229.314
L397.277 229.531
L397.351 235.919
L397.5 218.807
L397.574 219.133
L397.649 225.463
L397.723 222.411
L397.798 213.979
L397.872 222.105
L398.095 260.042
L398.17 262.373
L398.318 277.865
L398.467 244.737
L398.616 257.327
L398.988 206.968
L399.062 203.068
L399.36 242.13
L399.509 249.457
L399.658 255.342
L399.732 255.155
L399.881 253.002
L400.104 261.346
L400.55 217.415
L400.774 236.7
L400.848 234.468
L400.922 236.976
L401.071 257.297
L401.22 238.645
L401.369 222.619
L401.443 222.974
L401.518 221.049
L401.815 238.625
L402.113 272.909
L402.187 271.398
L402.336 260.151
L402.41 259.855
L402.485 261.079
L402.559 257.278
L403.006 201.024
L403.08 202.169
L403.378 237.095
L403.675 269.216
L403.75 265.651
L403.973 229.007
L404.047 232.266
L404.196 216.24
L404.717 292.371
L405.014 265.394
L405.238 235.534
L405.461 199.335
L405.535 199.365
L405.61 200.333
L406.056 242.061
L406.205 233.935
L406.354 239.217
L406.502 234.695
L406.651 241.41
L406.726 233.53
L406.8 233.658
L407.172 258.887
L407.246 258.541
L407.321 256.557
L407.767 221.858
L407.99 248.608
L408.139 238.141
L408.511 261.681
L408.66 252.884
L408.734 256.804
L408.809 255.54
L408.958 246.001
L409.181 217.099
L409.255 217.376
L409.33 216.477
L409.553 243.789
L409.627 239.168
L409.776 253.427
L409.925 262.531
L409.999 261.099
L410.594 219.627
L410.669 221.236
L410.818 228.04
L410.892 225.867
L411.041 233.451
L411.19 229.649
L411.338 231.97
L411.487 227.842
L411.562 233.708
L411.636 232.888
L411.71 229.393
L411.859 251.649
L411.934 250.622
L412.008 244.372
L412.38 270.055
L412.454 269.69
L412.529 267.804
L412.603 267.991
L412.901 243.898
L413.124 216.783
L413.198 216.882
L413.496 233.174
L413.57 235.919
L413.719 227.971
L413.868 253.624
L413.942 250.938
L414.017 247.285
L414.166 265.374
L414.24 265.286
L414.686 217.593
L414.835 232.661
L414.984 225.087
L415.133 227.862
L415.282 216.793
L415.356 217.701
L415.505 230.153
L415.579 227.516
L415.654 221.809
L415.728 222.441
L415.877 239.326
L415.951 237.42
L416.1 243.621
L416.546 285.222
L416.621 283.01
L416.844 275.703
L417.365 230.242
L417.439 231.644
L417.588 217.405
L417.737 226.124
L417.886 211.54
L418.034 197.479
L418.109 198.269
L418.183 202.604
L418.63 257.692
L418.704 259.203
L418.853 250.948
L419.002 256.152
L419.076 254.375
L419.299 232.997
L419.374 231.604
L419.671 251.323
L419.82 242.16
L419.894 242.002
L420.043 249.921
L420.192 242.417
L420.341 249.072
L420.415 246.939
L420.49 249.605
L420.638 242.298
L420.787 227.21
L420.936 241.953
L421.159 226.707
L421.382 234.103
L421.457 234.774
L421.606 229.896
L421.829 265.256
L421.903 261.79
L422.126 246.218
L422.201 250.741
L422.275 249.398
L422.35 244.787
L422.424 248.41
L422.573 260.437
L422.722 237.746
L422.87 246.05
L423.019 231.269
L423.094 237.835
L423.168 233.589
L423.317 221.217
L423.466 234.784
L423.614 215.361
L423.689 216.665
L424.135 254.266
L424.21 253.762
L424.284 249.2
L424.433 256.636
L424.656 222.698
L424.73 233.066
L424.805 232.878
L424.954 218.284
L425.177 232.789
L425.251 233.461
L425.474 252.508
L425.549 245.853
L425.623 246.515
L425.772 254.108
L425.921 251.62
L426.07 267.004
L426.144 260.141
L426.218 261.583
L426.367 276.414
L426.516 257.722
L426.59 258.334
L426.665 258.956
L426.888 225.966
L427.037 230.034
L427.186 226.213
L427.26 226.993
L427.334 232.197
L427.558 220.397
L427.632 223.32
L427.706 228.83
L427.781 228.81
L427.855 228.978
L428.302 268.771
L428.748 222.846
L428.897 217.06
L428.971 219.192
L429.046 225.788
L429.12 222.846
L429.194 218.185
L429.269 218.363
L429.492 229.639
L429.566 230.686
L429.715 250.277
L429.79 249.635
L429.864 246.998
L430.087 272.02
L430.162 270.874
L430.385 267.132
L430.534 257.505
L430.608 263.883
L430.682 261.593
L430.906 245.438
L430.98 240.481
L431.129 217.543
L431.203 219.074
L431.352 205.349
L431.65 251.471
L431.724 246.169
L431.798 240.57
L431.947 247.492
L432.022 245.695
L432.245 257.87
L432.617 230.893
L432.84 210.345
L432.989 212.271
L433.138 208.439
L433.51 228.287
L433.882 283.089
L434.03 295.995
L434.105 295.195
L434.179 297.288
L434.254 296.508
L434.626 258.512
L435.072 174.709
L435.221 181.186
L435.667 233.954
L435.89 253.92
L436.114 282.704
L436.188 281.707
L436.709 243.167
L436.858 241.963
L437.155 214.344
L437.602 237.815
L437.825 256.31
L437.899 255.559
L438.494 224.179
L438.569 223.419
L438.643 223.606
L438.718 224.376
L438.792 224.031
L439.313 276.414
L439.462 272.849
L440.057 234.162
L440.131 235.604
L440.206 239.287
L440.429 227.447
L440.578 219.894
L440.726 220.15
L440.875 236.927
L440.95 236.216
L441.024 236.601
L441.173 238.447
L441.47 216.605
L441.694 227.378
L441.842 250.494
L441.917 245.004
L441.991 237.016
L442.066 239.336
L442.289 248.963
L442.363 250.642
L442.438 250.405
L442.586 247.709
L442.661 248.697
L442.81 247.374
L442.884 247.324
L443.33 275.348
L443.926 236.176
L444.074 226.973
L444.298 201.685
L444.372 205.102
L444.521 197.489
L444.744 217.988
L444.818 214.028
L444.893 215.262
L445.414 269.067
L445.488 269.334
L445.637 274.775
L445.786 268.524
L445.86 271.576
L446.158 260.734
L446.53 207.649
L446.604 205.684
L446.753 180.298
L447.199 241.153
L447.571 296.054
L447.646 293.289
L447.943 272.563
L448.092 257.692
L448.241 262.699
L448.538 230.607
L448.762 205.931
L448.836 207.452
L448.985 200.441
L449.506 249.408
L449.654 237.657
L449.878 213.722
L449.878 213.722" style="fill:none;stroke:#808080;stroke-linecap:square;"/>
   </g>
  </g>
 </g>
 <defs>
  <clipPath id="p7ff5b81e1d">
   <rect height="345.6" width="446.4" x="72.0" y="43.2"/>
  </clipPath>
 </defs>
</svg>
