<?xml version="1.0" encoding="utf-8" standalone="no"?>
<!DOCTYPE svg PUBLIC "-//W3C//DTD SVG 1.1//EN"
  "http://www.w3.org/Graphics/SVG/1.1/DTD/svg11.dtd">
<!-- Created with matplotlib (http://matplotlib.org/) -->
<svg height="432pt" version="1.1" viewBox="0 0 576 432" width="576pt" xmlns="http://www.w3.org/2000/svg" xmlns:xlink="http://www.w3.org/1999/xlink">
 <defs>
  <style type="text/css">
*{stroke-linecap:butt;stroke-linejoin:round;}
  </style>
 </defs>
 <g id="figure_1">
  <g id="patch_1">
   <path d="
M0 432
L576 432
L576 0
L0 0
z
" style="fill:#ffffff;"/>
  </g>
  <g id="axes_1">
   <g id="line2d_1">
    <path clip-path="url(#p7ff5b81e1d)" d="
M72 250.111
L72.0744 242.081
L72.2232 235.209
L72.372 243.193
L72.5208 251.971
L72.6696 236.909
L73.1904 137.111
L73.2648 138.47
L73.4136 147.479
L73.5624 159.212
L73.7112 156.534
L73.7856 157.403
L74.0832 168.105
L74.3064 201.83
L74.6784 257.478
L74.8272 265.49
L75.0504 283.622
L75.1248 282.896
L75.4224 266.221
L76.1664 182.281
L76.3152 174.752
L76.3896 177.293
L76.9104 253.59
L76.9848 249.563
L77.3568 191.618
L77.6544 149.702
L77.8032 159.794
L78.1008 215.62
L78.3984 273.404
L78.4728 276.699
L78.6216 266.48
L78.8448 237.053
L79.068 209.958
L79.1424 207.129
L79.3656 182.707
L79.44 183.94
L79.5888 194.331
L79.9608 185.431
L80.0352 187.05
L80.2584 205.741
L80.7048 300.453
L80.7792 298.708
L80.928 281.209
L81.1512 205.073
L81.4488 120.96
L81.5232 122.446
L81.7464 172.477
L82.1184 279.659
L82.1928 278.628
L82.4904 236.793
L82.8624 177.31
L83.0112 172.834
L83.3088 198.651
L83.3832 197.798
L83.532 192.706
L83.6064 192.971
L83.7552 201.07
L84.0528 261.895
L84.1272 259.401
L84.4248 209.042
L84.4992 213.949
L84.648 246.372
L84.8712 301.565
L84.9456 299.802
L85.1688 244.483
L85.4664 177.84
L85.5408 174.378
L85.6152 174.505
L85.6896 174.891
L85.764 173.779
L85.8384 175.311
L86.2104 204.33
L86.508 228.125
L86.5824 225.36
L86.8056 188.87
L87.1032 141.327
L87.1776 141.765
L87.4008 171.314
L88.0704 279.44
L88.1448 279.993
L88.2192 278.398
L88.74 222.267
L88.8888 224.663
L88.9632 224.121
L89.0376 221.115
L89.112 221.328
L89.2608 225.366
L89.3352 223.211
L89.5584 208.587
L89.6328 209.566
L89.7816 216.87
L90.0792 229.657
L90.228 221.46
L90.4512 197.579
L90.7488 171.152
L90.8976 169.879
L90.972 171.596
L91.344 211.83
L91.4184 211.812
L91.4928 210.136
L91.7904 199.267
L91.8648 200.079
L92.0136 208.506
L92.3856 247.997
L92.5344 246.868
L92.6832 243.942
L92.7576 243.872
L93.3528 205.044
L93.5016 205.453
L93.6504 215.257
L93.8736 232.393
L93.948 232.266
L94.0224 231.477
L94.2456 217.664
L94.32 217.941
L94.3944 216.772
L94.692 196.306
L94.7664 198.167
L94.9152 212.711
L95.2872 252.582
L95.3616 248.308
L96.0312 145.636
L96.1056 150.082
L96.8496 266.694
L97.1472 272.868
L97.3704 252.351
L97.5192 229.098
L98.04 116.294
L98.1144 109.497
L98.1888 112.936
L98.3376 148.7
L98.8584 325.411
L98.9328 328.671
L99.0816 312.509
L99.3792 231.154
L99.7512 128.177
L99.9 140.486
L100.198 188.588
L100.644 261.423
L100.718 258.969
L101.239 209.105
L101.462 194.993
L101.611 192.407
L101.76 185.743
L101.834 186.797
L102.132 206.674
L102.578 261.602
L102.653 263.975
L102.802 250.341
L103.025 234.155
L103.248 222.837
L103.62 193.184
L103.769 185.207
L103.843 185.316
L104.066 196.848
L104.141 196.399
L104.364 204.186
L104.513 215.873
L104.736 232.41
L104.81 233.407
L104.959 237.594
L105.182 224.732
L105.703 156.436
L105.852 164.523
L106.001 184.953
L106.447 282.77
L106.522 285.702
L106.596 285.609
L106.67 284.492
L106.819 270.726
L107.191 206.248
L107.414 177.874
L107.489 176.93
L107.563 177.033
L107.712 188.381
L107.786 192.943
L107.861 192.833
L107.935 189.895
L108.01 191.572
L108.456 224.398
L108.754 260.006
L108.977 242.945
L109.498 191.756
L109.944 210.989
L110.093 203.27
L110.242 209.595
L110.39 225.648
L110.465 224.939
L110.837 207.199
L111.06 175.628
L111.209 163.636
L111.283 166.285
L111.73 232.387
L112.027 267.27
L112.176 270.173
L112.399 278.582
L112.548 263.347
L112.92 203.777
L113.143 196.001
L113.366 181.025
L113.515 164.805
L113.59 165.796
L113.738 186.941
L114.259 289.855
L114.408 270.368
L114.706 199.048
L115.003 140.388
L115.078 142.381
L115.45 179.343
L115.747 220.746
L115.822 220.608
L115.896 220.642
L115.97 222.319
L116.119 234.956
L116.342 259.528
L116.417 257.42
L117.086 205.862
L117.161 205.24
L117.235 205.661
L117.384 211.922
L117.533 230.711
L117.607 229.449
L117.905 199.451
L118.054 187.954
L118.202 200.269
L118.649 253.901
L118.872 295.972
L118.946 300.263
L119.095 275.506
L119.616 154.656
L119.69 151.471
L119.988 162.363
L120.509 204.175
L120.955 224.381
L121.253 236.465
L121.625 247.985
L121.699 246.009
L121.997 220.423
L122.294 231.92
L122.369 230.705
L122.592 198.017
L122.741 172.846
L122.815 175.046
L123.262 233.441
L123.782 213.558
L123.857 212.521
L123.931 212.544
L124.08 219.882
L124.229 236.252
L124.303 235.734
L124.452 217.284
L124.824 144.167
L124.898 145.037
L125.122 211.927
L125.419 288.086
L125.568 280.132
L126.386 189.688
L126.61 183.525
L126.982 196.687
L127.13 202.579
L127.205 202.982
L127.354 212.348
L127.726 274.458
L127.8 272.575
L127.949 240.405
L128.321 149.627
L128.47 139.893
L128.618 168.474
L129.214 281.998
L129.362 293.224
L129.437 292.412
L129.586 275.524
L130.33 134.53
L130.404 138.349
L130.925 211.974
L131.222 228.125
L131.669 287.021
L131.743 281.353
L132.487 160.928
L132.562 161.648
L132.71 180.564
L133.082 240.946
L133.157 240.198
L133.306 226.696
L133.678 173.716
L133.752 171.354
L133.901 190.846
L134.05 204.151
L134.124 202.527
L134.57 241.528
L134.645 242.064
L134.719 241.885
L134.794 242.242
L135.091 258.249
L135.166 260.83
L135.24 257.84
L135.389 203.38
L135.612 128.793
L135.686 137.479
L135.984 263.998
L136.058 260.087
L136.43 141.045
L136.505 150.612
L136.728 209.986
L137.026 287.286
L137.174 301.714
L137.249 300.96
L137.323 295.649
L137.918 173.929
L138.067 187.085
L138.29 156.107
L138.365 162.708
L138.737 250.692
L138.886 242.513
L138.96 235.947
L139.034 237.271
L139.258 251.545
L139.406 240.866
L139.853 175.605
L139.927 176.561
L140.002 179.17
L140.15 162.893
L140.225 154.823
L140.299 156.856
L140.448 172.495
L140.894 247.668
L140.969 253.031
L141.118 238.308
L141.415 212.596
L141.49 211.311
L141.787 270.224
L141.862 267.926
L142.159 206.726
L142.234 208.771
L142.68 265.997
L142.754 265.49
L142.829 264.799
L142.978 259.021
L143.126 239.218
L143.498 157.922
L143.796 92.6897
L143.87 92.0331
L143.945 96.595
L144.094 131.437
L144.614 288.155
L144.838 305.487
L144.912 302.722
L145.061 272.217
L145.433 189.913
L145.656 178.479
L145.805 185.408
L146.177 214.013
L146.4 205.954
L146.474 207.602
L146.623 228.862
L146.995 288.322
L147.07 290.096
L147.144 286.554
L147.367 238.02
L147.739 115.004
L147.814 116.455
L147.962 140.181
L148.483 249.028
L148.558 247.899
L149.45 202.533
L149.674 206.784
L149.822 220.245
L149.971 238.216
L150.046 235.958
L150.418 219.571
L150.566 224.582
L150.938 242.104
L151.236 262.155
L151.31 259.062
L151.534 220.585
L151.757 184.487
L151.831 185.241
L152.129 198.967
L152.203 200.413
L152.278 200.16
L152.724 179.36
L152.873 178.514
L153.245 155.589
L153.394 172.114
L153.989 275.339
L154.435 291.202
L154.584 282.764
L154.658 285.01
L154.733 283.83
L155.105 245.612
L155.7 122.734
L155.774 123.2
L155.923 134.023
L156.295 198.034
L156.593 252.973
L156.742 259.073
L156.89 249.35
L157.486 184.441
L157.634 186.411
L157.858 202.786
L158.304 264.833
L158.527 280.84
L158.602 278.957
L158.825 286.951
L158.899 284.146
L159.048 271.094
L159.197 241.079
L159.718 101.071
L159.792 100.097
L160.015 133.712
L160.685 266.06
L160.759 265.962
L160.908 252.461
L161.28 187.517
L161.354 180.484
L161.429 180.535
L161.578 200.776
L162.173 301.438
L162.247 300.948
L162.322 297.078
L162.545 255.283
L163.066 142.531
L163.214 126.57
L163.289 128.062
L163.438 145.152
L164.256 257.46
L164.33 256.337
L164.479 248.192
L164.702 219.041
L164.777 221.172
L165.074 240.048
L165.223 246.557
L165.298 245.698
L165.446 236.062
L165.967 171.757
L166.042 172.114
L166.339 229.409
L166.637 264.309
L166.786 241.897
L167.158 157.392
L167.232 154.875
L167.306 157.472
L167.753 212.647
L168.199 321.897
L168.274 319.887
L168.422 280.258
L169.018 108.518
L169.092 111.473
L169.241 139.766
L169.687 264.424
L169.836 273.352
L169.985 268.514
L170.134 258.48
L170.431 227.312
L170.506 226.264
L170.803 186.468
L171.026 165.548
L171.175 185.599
L171.622 241.943
L172.068 281.353
L172.142 280.408
L172.366 241.321
L172.812 132.647
L172.886 131.668
L173.11 151.476
L174.077 280.316
L174.226 284.388
L174.374 270.092
L174.97 165.335
L175.044 168.641
L175.565 223.298
L175.937 244.765
L176.011 246.188
L176.086 244.863
L176.16 239.541
L176.532 177.892
L176.755 158.826
L176.83 160.75
L176.978 178.589
L177.35 251.948
L177.648 264.297
L177.722 257.76
L178.094 188.237
L178.243 196.208
L178.615 239.673
L179.285 202.585
L179.434 214.854
L179.582 223.718
L179.731 227.364
L180.178 246.603
L180.252 248.694
L180.326 248.1
L180.475 232.963
L180.996 141.091
L181.07 143.493
L181.145 144.213
L181.219 146.073
L181.517 184.504
L182.335 303.609
L182.41 304.71
L182.484 299.497
L182.782 230.406
L183.154 142.767
L183.302 130.815
L183.377 134.49
L183.6 190.224
L184.046 283.202
L184.121 284.624
L184.27 264.349
L184.716 147.104
L185.088 204.975
L185.311 234.046
L185.386 235.549
L185.46 233.107
L185.683 237.513
L185.758 237.502
L185.981 222.82
L186.353 184.038
L186.427 184.948
L186.65 201.49
L186.799 228.775
L186.874 226.126
L187.022 210.58
L187.171 218.546
L187.469 278.634
L187.543 271.797
L187.841 243.659
L187.99 252.011
L188.436 177.12
L188.734 133.787
L188.808 136.063
L189.701 273.151
L189.924 282.234
L189.998 280.454
L190.296 213.73
L190.519 174.073
L190.668 160.162
L190.817 149.023
L190.966 158.175
L191.114 193.121
L191.561 321.074
L191.635 324.944
L191.784 305.32
L192.007 235.929
L192.379 130.723
L192.454 132.347
L192.602 150.388
L193.123 238.418
L193.421 250.525
L193.495 250.255
L193.793 232.329
L194.016 198.645
L194.462 119.03
L194.537 120.522
L194.686 143.568
L195.355 350.813
L195.43 346.366
L195.653 291.058
L196.099 156.522
L196.248 149.207
L196.397 157.115
L196.843 192.39
L197.29 214.37
L197.438 220.164
L197.885 259.471
L198.034 254.39
L198.182 241.027
L198.406 193.3
L198.629 154.639
L198.703 153.59
L198.852 177.379
L199.224 246.194
L199.447 264.626
L199.522 263.497
L199.67 250.756
L200.266 168.272
L200.34 173.808
L200.935 253.181
L201.01 256.452
L201.158 244.471
L201.605 178.266
L201.754 173.716
L201.828 175.259
L202.2 205.465
L202.646 257.247
L202.721 260.674
L202.795 259.822
L202.944 250.802
L203.39 215.741
L203.539 218.079
L203.688 208.437
L204.209 157.133
L204.358 142.18
L204.506 154.322
L204.804 211.853
L205.325 301.599
L205.399 305.574
L205.474 303.88
L205.697 284.728
L205.994 236.407
L206.441 166.193
L206.59 162.898
L206.664 163.117
L206.738 162.345
L206.887 157.369
L207.036 165.853
L207.334 195.396
L207.408 194.97
L207.482 196.784
L207.557 201.427
L207.631 199.664
L207.706 196.819
L207.78 199.463
L208.078 220.93
L208.375 242.427
L208.598 269.228
L208.896 274.447
L209.119 247.179
L209.566 193.184
L209.714 198.173
L209.863 204.169
L209.938 202.982
L210.012 199.918
L210.086 200.528
L210.235 207.556
L210.384 201.364
L210.607 192.32
L211.277 227.865
L211.5 218.488
L211.574 218.782
L211.649 218.77
L211.723 217.405
L212.095 191.854
L212.17 192.13
L212.318 198.61
L212.393 198.184
L212.542 210.102
L212.765 226.12
L212.914 227.209
L213.137 242.732
L213.509 258.198
L213.583 259.085
L213.806 230.705
L214.178 187.597
L214.327 187.534
L214.402 188.669
L214.699 211.248
L214.774 211.444
L214.848 213.823
L215.146 202.706
L215.443 208.662
L215.518 207.44
L215.666 198.651
L215.815 204.463
L216.113 227.888
L216.41 271.699
L216.485 271.29
L216.634 253.941
L217.08 179.251
L217.229 165.617
L217.303 166.573
L217.452 183.675
L217.824 237.41
L217.898 236.171
L218.345 160.422
L218.494 175.369
L218.642 212.077
L219.014 312.572
L219.089 318.862
L219.163 316.155
L219.238 308.638
L219.833 159.88
L219.907 158.475
L220.205 185.927
L220.354 201.427
L220.651 177.943
L220.726 178.191
L221.098 222.336
L221.544 277.724
L221.618 280.967
L221.693 280.316
L221.99 257.017
L222.437 163.999
L222.586 162.593
L222.734 157.663
L222.958 170.352
L223.181 192.217
L223.478 226.742
L223.627 227.681
L223.776 222.958
L223.925 233.556
L224.297 278.34
L224.371 274.602
L224.743 215.913
L225.041 161.671
L225.115 163.399
L225.264 180.593
L225.71 269.908
L225.934 236.327
L226.529 164.58
L226.678 180.864
L227.05 233.47
L227.124 231.298
L227.422 201.462
L227.496 202.429
L227.645 213.926
L227.719 212.365
L228.017 225.723
L228.091 223.597
L228.389 201.243
L228.612 205.321
L228.91 183.001
L228.984 183.502
L229.133 207.763
L229.579 307.52
L229.728 295.407
L230.1 259.926
L230.695 127.284
L230.77 125.879
L231.067 158.302
L231.439 229.167
L231.514 230.457
L231.737 223.177
L231.811 224.196
L232.183 255.162
L232.258 255.156
L232.406 249.961
L232.63 222.238
L232.853 198.553
L232.927 199.469
L233.076 205.655
L233.15 206.167
L233.225 208.218
L233.522 225.751
L233.597 226.903
L233.671 226.644
L233.894 218.442
L233.969 221.069
L234.043 220.579
L234.192 209.359
L234.49 217.071
L234.564 219.945
L234.713 216.368
L235.159 198.875
L235.308 196.082
L235.382 197.113
L235.829 246.28
L235.978 235.192
L236.201 218.603
L236.573 213.558
L236.647 215.389
L236.722 212.475
L236.87 197.216
L236.945 197.309
L237.094 201.237
L237.391 219.508
L237.54 210.994
L237.689 194.262
L237.838 173.929
L237.912 179.527
L238.284 241.154
L238.358 239.679
L238.582 224.455
L238.656 224.605
L238.73 225.682
L239.028 248.757
L239.177 236.742
L239.4 204.215
L239.623 214.992
L239.698 213.753
L239.846 210.516
L239.921 206.749
L239.995 207.308
L240.367 234.207
L240.442 232.433
L240.814 200.217
L240.888 201.306
L241.111 223.407
L241.26 219.306
L241.334 222.722
L241.409 221.99
L241.558 200.027
L241.632 200.356
L241.781 191.508
L241.855 191.802
L241.93 192.384
L242.153 176.653
L242.376 160.779
L242.525 178.508
L242.971 254.35
L243.12 256.879
L243.194 254.92
L243.492 266.803
L243.79 282.585
L243.864 282.655
L244.013 255.721
L244.385 176.619
L244.757 153.642
L244.906 175.069
L245.278 245.526
L245.426 250.98
L245.575 239.604
L246.022 174.171
L246.096 170.346
L246.17 172.189
L246.468 191.802
L247.138 250.105
L247.51 220.982
L247.658 226.287
L247.956 215.003
L248.03 216.127
L248.328 241.914
L248.402 241.816
L248.626 215.919
L248.774 205.966
L248.923 219.657
L249.072 239.944
L249.146 237.865
L249.593 196.208
L249.667 193.196
L249.89 207.942
L250.039 199.889
L250.262 211.426
L250.56 237.208
L250.783 250.894
L250.858 247.34
L251.453 169.482
L251.676 149.224
L251.75 150.157
L251.974 181.549
L252.346 266.544
L252.718 290.638
L252.792 289.878
L252.941 282.125
L253.015 283.668
L253.09 283.657
L253.238 263.629
L253.685 150.048
L253.834 138.28
L253.908 137.514
L254.131 119.393
L254.206 120.165
L254.503 180.282
L254.801 246.568
L255.098 277.626
L255.322 283.092
L255.396 281.698
L256.214 188.427
L256.438 166.493
L256.586 176.884
L256.884 213.696
L257.182 233.948
L257.256 233.355
L257.405 220.7
L257.702 196.37
L257.926 193.092
L258 194.768
L258.372 227.572
L258.67 249.563
L258.744 249.206
L258.893 244.304
L259.116 217.63
L259.414 182.402
L259.711 160.456
L259.786 157.737
L259.86 161.424
L260.827 312.071
L260.902 317.848
L260.976 314.035
L261.348 245.67
L261.943 89.2107
L262.018 88.6001
L262.166 97.1307
L263.134 306.633
L263.208 309.767
L263.282 309.415
L263.506 275.011
L264.026 157.513
L264.25 144.818
L264.324 148.337
L264.473 178.312
L264.919 292.827
L264.994 293.213
L265.142 277.056
L265.812 134.098
L265.961 142.923
L266.11 181.29
L266.556 312.428
L266.63 315.556
L266.779 299.042
L267.077 194.215
L267.374 104.601
L267.449 99.1179
L267.523 99.9761
L267.672 121.68
L268.416 290.592
L268.714 314.323
L268.862 307.279
L269.086 262.99
L269.606 151.92
L269.83 136.27
L269.904 138.712
L270.425 206.317
L270.946 232.22
L271.243 222.572
L271.318 222.405
L271.392 223.914
L271.541 219.093
L271.69 214.26
L271.838 222.895
L272.359 267.897
L272.434 266.544
L272.731 247.87
L273.624 161.792
L273.698 162.357
L273.922 181.399
L274.219 209.9
L274.442 224.052
L274.517 231.408
L274.591 231.31
L274.814 221.207
L274.963 213.69
L275.038 215.067
L275.186 209.335
L275.41 197.424
L275.558 187.949
L276.005 214.445
L276.154 210.027
L276.302 222.693
L276.749 286.07
L277.418 220.487
L277.865 167.593
L278.46 200.551
L278.683 216.224
L278.981 218.609
L279.055 216.178
L279.353 188.231
L279.427 188.496
L279.576 193.006
L279.65 189.849
L279.725 190.944
L280.32 255.899
L280.618 301.565
L280.692 304.9
L280.841 296.34
L280.99 278.876
L281.213 220.418
L281.659 115.833
L281.808 109.428
L282.031 143.608
L282.552 236.235
L282.85 258.232
L283.073 268.168
L283.296 255.053
L283.817 217.716
L283.966 213.552
L284.114 224.893
L284.338 241.828
L284.412 242.386
L284.486 241.557
L284.784 197.182
L285.082 144.864
L285.156 144.996
L285.305 151.171
L285.528 187.874
L285.974 261.268
L286.049 258.428
L286.718 214.502
L286.793 213.569
L286.942 206.317
L287.09 198.173
L287.165 198.391
L287.239 200.949
L287.611 236.183
L287.686 233.879
L287.983 219.623
L288.504 247
L288.802 203.518
L289.099 156.464
L289.174 157.219
L289.62 206.657
L289.992 253.129
L290.066 261.815
L290.141 260.565
L290.29 248.705
L290.587 216.541
L290.662 216.023
L290.736 216.207
L290.959 204.497
L291.034 197.504
L291.108 197.983
L291.182 198.737
L291.406 194.014
L291.629 200.96
L292.075 227.416
L292.373 265.542
L292.447 262.011
L292.596 251.136
L292.819 198.651
L293.042 156.775
L293.191 145.567
L293.34 158.406
L293.489 183.859
L294.01 301.686
L294.084 303.655
L294.233 284.763
L294.754 173.52
L294.828 175.317
L294.977 189.4
L295.051 186.653
L295.126 187.511
L295.572 205.574
L296.167 192.695
L296.242 192.251
L296.39 197.193
L296.688 238.867
L297.06 287.7
L297.209 283.945
L297.432 248.175
L297.804 175.732
L297.878 175.242
L297.953 177.978
L298.25 203.276
L298.399 207.216
L298.474 206.191
L298.92 161.101
L298.994 163.014
L299.218 172.806
L299.441 198.587
L299.813 275.719
L300.11 331.499
L300.259 342.046
L300.408 309.456
L301.003 110.073
L301.226 129.456
L301.45 164.782
L301.896 221.339
L302.119 238.861
L302.342 254.868
L302.714 264.343
L302.789 262.558
L303.161 232.537
L303.458 198.818
L303.682 189.959
L303.756 189.314
L304.054 178.427
L304.128 179.994
L304.202 180.265
L304.277 175.444
L304.351 179.43
L304.798 236.252
L305.021 247.743
L305.244 244.477
L305.393 228.735
L305.69 180.754
L305.765 184.032
L306.137 239.224
L306.211 238.953
L306.509 217.129
L306.806 231.414
L307.178 203.109
L307.55 228.608
L307.922 252.582
L307.997 250.122
L308.22 223.171
L308.666 129.208
L308.741 130.009
L309.038 166.285
L309.485 293.627
L309.708 309.104
L309.857 286.013
L310.452 164.523
L310.526 163.981
L310.675 171.446
L310.824 194.97
L311.122 253.906
L311.196 255.513
L311.27 252.703
L311.94 187.615
L312.163 192.234
L312.758 218.223
L312.982 211.3
L313.056 212.411
L313.205 216.196
L313.354 233.948
L313.651 258.952
L313.726 259.096
L313.8 258.157
L314.023 245.382
L314.842 151.753
L314.916 152.53
L315.065 171.325
L315.288 231.391
L315.511 270.587
L315.586 273.571
L315.66 271.319
L315.883 243.429
L316.553 146.119
L316.702 160.456
L317.297 291.513
L317.371 290.465
L317.594 260.576
L318.19 142.047
L318.413 134.116
L318.487 134.893
L318.636 155.191
L319.306 298.466
L319.38 304.375
L319.454 303.402
L319.529 301.225
L319.678 279.872
L320.124 194.365
L320.198 195.805
L320.347 191.577
L320.794 175.11
L321.017 157.398
L321.091 158.987
L321.389 191.128
L322.058 293.731
L322.133 300.413
L322.207 297.452
L323.026 139.277
L323.174 157.254
L323.695 288.075
L323.77 287.182
L324.216 242.939
L324.662 170.116
L324.737 168.036
L324.96 149.898
L325.109 168.175
L325.704 264.948
L325.778 265.305
L326.002 245.359
L326.448 200.655
L326.522 199.699
L326.597 201.254
L326.894 222.987
L326.969 222.128
L327.118 206.317
L327.341 179.568
L327.415 180.973
L327.638 196.802
L328.01 249.909
L328.159 255.531
L328.308 245.969
L328.457 223.102
L328.754 171.008
L328.829 168.537
L328.903 170.887
L328.978 170.035
L329.052 170.778
L329.201 183.03
L329.945 303.298
L330.019 299.635
L330.614 196.036
L330.912 121.501
L330.986 123.425
L331.21 151.591
L331.879 301.824
L331.954 303.857
L332.102 281.888
L332.623 147.882
L332.698 141.517
L332.846 149.944
L332.995 168.969
L333.516 277.868
L333.59 277.471
L333.888 244.183
L334.111 214.583
L334.334 194.256
L334.409 195.828
L334.483 197.879
L334.632 190.523
L334.706 193.87
L335.004 222.572
L335.078 227.468
L335.153 224.519
L335.302 206.623
L335.376 206.628
L335.897 243.383
L336.046 243.872
L336.12 241.027
L336.418 205.966
L336.79 165.254
L336.864 162.155
L337.162 186.583
L337.31 216.178
L337.608 284.486
L337.757 295.361
L338.129 237.502
L338.798 124.842
L338.873 128.108
L339.542 269.787
L339.766 297.031
L340.063 241.378
L340.361 197.919
L340.658 173.18
L340.807 163.728
L341.179 198.524
L341.626 275.017
L341.7 272.747
L341.849 253.618
L342.295 167.311
L342.37 169.977
L342.593 200.88
L342.89 242.519
L342.965 241.551
L343.039 242.709
L343.114 242.26
L343.783 185.213
L343.932 196.191
L344.23 224.502
L344.304 225.861
L344.453 235.624
L344.974 192.896
L345.048 192.781
L345.197 195.408
L345.42 229.933
L345.792 283.087
L345.866 283.161
L346.015 271.342
L346.313 207.337
L346.759 119.9
L346.908 134.686
L347.578 267.782
L347.726 275.524
L347.801 273.968
L348.322 236.551
L348.396 231.126
L348.768 179.994
L348.991 162.063
L349.066 158.912
L349.14 158.947
L349.289 179.994
L349.81 270.132
L350.033 263.047
L350.107 265.444
L350.256 250.295
L350.702 159.569
L350.777 156.038
L351.074 173.716
L351.595 253.912
L351.744 261.895
L351.818 260.807
L351.967 247.444
L352.339 200.298
L352.786 227.255
L353.009 211.357
L353.083 213.805
L353.158 214.036
L353.232 215.522
L353.381 226.495
L353.455 223.977
L353.53 214.79
L353.604 217.981
L353.753 228.188
L354.125 198.391
L354.571 139.282
L354.794 164.102
L355.092 230.745
L355.464 325.261
L355.538 326.246
L355.613 330.255
L355.687 326.995
L355.985 243.751
L356.282 160.951
L356.506 141.2
L356.654 129.168
L356.878 158.463
L357.324 243.423
L357.547 274.118
L357.77 267.051
L357.994 240.042
L358.366 162.777
L358.514 185.725
L358.886 237.951
L359.035 236.914
L359.184 244.685
L359.258 242.893
L359.482 217.083
L359.854 160.306
L360.002 147.617
L360.077 152.432
L360.598 248.815
L360.746 240.866
L360.821 237.289
L360.97 218.327
L361.118 243.815
L361.49 303.782
L361.788 257.207
L362.309 145.785
L362.383 140.55
L362.458 141.385
L362.606 143.337
L362.755 160.059
L363.127 212.06
L363.276 209.088
L363.574 223.159
L364.02 296.565
L364.094 294.831
L364.392 243.538
L365.136 139.599
L365.285 158.619
L365.657 215.205
L366.178 243.049
L366.252 246.943
L366.326 246.32
L366.475 239.604
L366.847 258.048
L366.996 245.335
L367.368 179.712
L367.442 180.622
L367.591 194.118
L367.814 220.7
L367.889 218.811
L368.112 204.791
L368.186 204.63
L368.41 209.681
L368.782 186.272
L368.856 187.764
L369.079 198.213
L369.674 284.584
L369.749 285.264
L369.898 269.959
L370.27 187.759
L370.567 115.828
L370.642 118.857
L370.865 164.143
L371.311 248.843
L371.683 273.421
L371.906 291.001
L371.981 289.653
L372.204 260.922
L372.725 124.226
L372.799 124.756
L373.097 166.654
L373.543 287.51
L373.618 295.401
L373.692 295.015
L373.841 277.517
L374.51 143.17
L374.585 146.788
L375.552 275.869
L375.626 278.254
L375.775 271.325
L375.998 251.631
L376.519 176.348
L376.891 141.926
L377.04 167.276
L377.635 301.484
L377.71 298.178
L377.933 246.706
L378.454 85.8353
L378.528 88.3697
L378.751 152.455
L379.272 318.568
L379.421 336.603
L379.495 336.545
L379.793 280.615
L380.314 120.741
L380.462 114.48
L380.611 126.535
L380.834 182.972
L381.206 267.938
L381.43 287.695
L381.727 254.263
L382.099 205.931
L382.471 180.409
L382.546 181.025
L382.843 188.513
L382.918 188.288
L383.066 193.997
L383.29 222.987
L383.587 258.226
L383.736 251.038
L384.108 219.801
L384.182 219.335
L384.331 207.112
L384.629 184.654
L384.778 183.318
L385.075 193.945
L385.447 255.761
L385.596 281.41
L385.745 278.669
L385.819 278.761
L385.968 255.358
L386.266 179.821
L386.489 128.511
L386.563 126.812
L386.712 144.887
L387.307 254.315
L387.605 283.294
L387.679 279.682
L387.902 218.379
L388.126 169.816
L388.2 170.208
L388.349 187.839
L388.572 218.886
L388.646 215.988
L388.721 216.501
L389.093 254.523
L389.167 253.993
L389.39 228.084
L389.614 206.715
L389.688 206.432
L389.911 201.076
L390.134 213.759
L390.209 213.575
L390.358 205.384
L390.804 167.95
L390.953 161.28
L391.102 177.442
L391.399 240.808
L391.697 333.711
L391.771 332.058
L391.92 314.623
L392.664 129.289
L392.738 128.114
L392.887 144.196
L393.334 222.048
L393.631 231.794
L393.78 229.138
L393.929 224.121
L394.375 198.749
L394.45 199.267
L394.598 203.714
L394.673 203.766
L395.045 244.667
L395.342 263.583
L395.491 271.336
L395.566 268.652
L396.458 168.036
L396.533 169.81
L396.682 184.078
L396.979 218.361
L397.054 218.874
L397.128 217.307
L397.5 184.936
L397.872 201.98
L397.946 201.496
L398.021 202.533
L398.244 216.138
L398.393 215.556
L398.542 215.061
L398.988 237.525
L399.211 268.738
L399.434 293.633
L399.509 290.937
L399.732 282.079
L400.253 149.38
L400.476 107.988
L400.55 108.829
L400.699 124.139
L400.997 196.231
L401.294 260.818
L401.443 263.238
L401.518 262.817
L401.741 246.534
L402.187 166.135
L402.262 171.21
L402.41 191.652
L402.857 271.1
L402.931 269.827
L403.08 273.053
L403.303 265.029
L403.601 215.234
L403.824 180.772
L404.047 176.705
L404.494 160.842
L404.568 162.8
L404.717 176.048
L405.014 238.746
L405.312 291.629
L405.461 296.813
L405.535 296.634
L405.833 272.972
L406.502 142.157
L406.726 110.407
L406.8 109.578
L406.949 123.575
L407.246 185.092
L407.767 284.377
L407.916 294.681
L407.99 293.403
L408.139 280.471
L408.734 185.437
L408.809 183.197
L408.958 188.277
L409.181 209.007
L409.404 244.961
L409.553 265.674
L409.776 254.707
L410.148 214.208
L410.297 208.863
L410.371 212.002
L410.446 210.724
L410.892 143.493
L410.966 139.68
L411.19 156.666
L411.413 182.69
L411.636 252.789
L411.859 312.313
L412.008 323.539
L412.231 289.549
L412.454 241.177
L413.05 101.047
L413.198 127.711
L413.645 231.339
L413.868 249.189
L414.017 273.6
L414.166 298.564
L414.24 298.258
L414.314 294.67
L414.389 296.588
L414.538 269.182
L414.984 130.948
L415.058 133.269
L415.579 217.232
L415.654 213.517
L416.1 236.742
L416.249 239.65
L416.323 239.616
L416.546 242.53
L416.621 240.906
L416.844 227.209
L416.918 227.664
L416.993 229.317
L417.142 224.657
L417.365 199.59
L417.737 145.44
L417.811 147.076
L418.109 189.705
L418.63 273.433
L418.704 272.431
L418.853 277.977
L418.927 276.232
L419.076 262.673
L419.894 150.814
L419.969 149.115
L420.118 159.379
L420.341 191.681
L420.862 295.067
L421.754 174.591
L421.829 179.234
L422.052 197.291
L422.275 213.442
L422.424 219.669
L422.722 243.7
L422.796 241.972
L423.019 225.59
L423.094 226.65
L423.168 225.734
L423.242 221.385
L423.317 222.595
L423.391 223.015
L423.614 198.034
L424.061 144.455
L424.21 153.17
L424.358 188.035
L424.73 288.178
L424.954 309.358
L425.028 305.873
L425.326 239.403
L425.698 178.416
L425.995 149.829
L426.07 148.775
L426.218 163.912
L426.739 279.993
L426.888 290.822
L426.962 289.451
L427.186 264.787
L428.078 108.046
L428.227 128.989
L428.748 250.825
L429.12 268.185
L429.418 246.781
L429.641 238.729
L429.715 238.032
L429.79 239.731
L429.864 238.498
L430.31 208.005
L430.459 225.901
L430.682 257.754
L430.757 259.511
L430.98 249.961
L431.278 211.375
L431.724 140.152
L431.873 130.809
L431.947 133.81
L432.245 174.545
L432.691 237.185
L432.766 238.435
L432.989 230.797
L433.435 261.515
L433.51 260.035
L433.658 255.905
L433.733 256.746
L433.882 255.473
L434.03 238.919
L434.254 221.241
L434.328 223.004
L434.402 221.524
L435.221 157.974
L435.295 158.492
L435.518 178.416
L436.039 254.217
L436.262 277.079
L436.337 276.946
L436.486 267.586
L437.006 210.297
L437.081 212.619
L437.155 213.92
L437.453 207.25
L437.676 184.879
L437.974 139.749
L438.122 150.002
L438.494 200.442
L438.792 251.746
L439.387 299.94
L439.462 298.27
L439.61 263.969
L439.982 172.224
L440.206 151.303
L440.28 154.039
L440.652 231.074
L440.801 252.432
L440.95 224.311
L441.322 138.482
L441.396 134.208
L441.47 135.775
L441.619 159.563
L442.14 294.048
L442.363 316.443
L442.438 317.986
L442.512 315.861
L442.81 275.42
L443.554 91.7796
L443.702 117.463
L444.298 269.89
L444.372 272.119
L444.446 269.648
L445.19 197.936
L445.265 199.618
L445.711 249.563
L445.786 246.804
L446.455 150.883
L446.604 163.33
L447.274 264.176
L447.497 253.86
L447.794 226.518
L447.943 218.955
L448.018 221.028
L448.166 228.845
L448.39 221.702
L448.464 217.676
L448.538 218.16
L448.613 217.993
L449.282 185.218
L449.729 208.996
L449.878 197.51
L449.878 197.51" style="fill:none;stroke:#808080;stroke-linecap:square;"/>
   </g>
  </g>
 </g>
 <defs>
  <clipPath id="p7ff5b81e1d">
   <rect height="345.6" width="446.4" x="72.0" y="43.2"/>
  </clipPath>
 </defs>
</svg>
