<?xml version="1.0" encoding="utf-8" standalone="no"?>
<!DOCTYPE svg PUBLIC "-//W3C//DTD SVG 1.1//EN"
  "http://www.w3.org/Graphics/SVG/1.1/DTD/svg11.dtd">
<!-- Created with matplotlib (http://matplotlib.org/) -->
<svg height="432pt" version="1.1" viewBox="0 0 576 432" width="576pt" xmlns="http://www.w3.org/2000/svg" xmlns:xlink="http://www.w3.org/1999/xlink">
 <defs>
  <style type="text/css">
*{stroke-linecap:butt;stroke-linejoin:round;}
  </style>
 </defs>
 <g id="figure_1">
  <g id="patch_1">
   <path d="
M0 432
L576 432
L576 0
L0 0
z
" style="fill:#ffffff;"/>
  </g>
  <g id="axes_1">
   <g id="line2d_1">
    <path clip-path="url(#p7ff5b81e1d)" d="
M72 246.441
L72.0744 264.391
L72.0744 264.391
L72.0744 264.391
L72.2232 259.055
L72.2976 258.926
L72.8184 179.697
L72.8928 183.304
L73.0416 193.823
L73.1904 189.482
L73.2648 199.245
L73.488 266.205
L73.5624 258.904
L73.7856 207.28
L73.86 210.866
L74.0088 228.232
L74.1576 203.846
L74.3064 180.345
L74.4552 215.747
L74.9016 132.609
L74.976 140.925
L75.2736 269.078
L75.348 276.227
L75.4224 267.242
L75.4968 267.566
L75.5712 270.719
L75.6456 262.295
L75.7944 273.398
L76.0176 207.842
L76.092 217.583
L76.1664 215.035
L76.2408 208.555
L76.3152 213.004
L76.464 232.336
L76.5384 232.984
L76.6872 229.031
L76.9104 182.851
L76.9848 187.667
L77.208 155.764
L77.2824 137.037
L77.3568 138.7
L77.5056 127.209
L77.7288 213.242
L77.8776 250.156
L77.952 254.584
L78.1008 286.336
L78.2496 264.866
L78.3984 296.639
L78.5472 254.584
L78.6216 260.891
L78.696 270.331
L78.9192 245.771
L78.9936 246.031
L79.5888 131.227
L79.812 150.861
L80.3328 208.015
L80.4816 197.063
L80.7792 239.097
L80.8536 238.233
L80.928 244.54
L81.1512 292.341
L81.2256 292.319
L81.5976 212.767
L81.672 210.196
L82.1184 171.64
L82.1928 173.757
L82.5648 223.567
L82.6392 222.508
L82.788 203.09
L82.8624 205.747
L83.0112 228.081
L83.16 251.927
L83.3088 245.771
L83.532 265.211
L83.6064 260.783
L84.0528 205.185
L84.276 211.017
L84.4992 200.433
L84.648 208.555
L84.8712 173.735
L84.9456 177.191
L85.02 176.371
L85.1688 185.615
L85.392 149.889
L85.8384 225.964
L85.9872 230.479
L86.2104 303.379
L86.3592 288.496
L86.4336 289.403
L86.508 292.168
L86.6568 279.943
L87.0288 228.081
L87.252 155.894
L87.4752 190.411
L87.7728 110.901
L87.8472 118.655
L88.0704 167.428
L88.2936 201.124
L88.6656 264.023
L88.8144 270.568
L88.9632 284.716
L89.0376 287.697
L89.112 283.031
L89.4096 227.282
L89.484 222.962
L89.5584 224.495
L89.6328 225.381
L89.856 191.944
L89.9304 194.407
L90.0792 207.712
L90.3024 174.556
L90.4512 208.555
L90.5256 206.481
L90.7488 154.317
L90.8976 188.099
L91.1208 233.287
L91.2696 252.64
L91.344 249.551
L91.4184 243.503
L91.6416 276.746
L91.716 266.507
L92.2368 214.689
L92.3856 201.643
L92.6832 137.231
L92.832 152.546
L92.9808 182.721
L93.1296 171.446
L93.6504 257.911
L94.0968 303.184
L94.1712 301.003
L94.4688 258.775
L95.064 94.7227
L95.1384 98.1139
L95.808 246.009
L95.9568 281.455
L96.1056 287.395
L96.18 286.336
L96.4032 258.645
L96.4776 256.679
L96.552 251.063
L96.8496 279.208
L96.9984 291.607
L97.668 99.8851
L97.7424 106.97
L98.1144 202.269
L98.1888 205.876
L98.5608 247.543
L98.784 234.928
L98.8584 235.058
L99.0072 265.363
L99.0816 261.82
L99.4536 286.855
L99.528 283.485
L99.6768 247.283
L99.9 139.391
L100.198 121.528
L101.314 283.204
L101.611 263.289
L101.834 221.774
L101.909 232.012
L101.983 234.021
L102.132 207.863
L102.281 227.303
L102.355 219.355
L102.504 185.399
L102.578 187.667
L102.653 186.847
L102.876 149.911
L103.099 157.946
L103.248 194.061
L103.397 223.394
L103.471 213.479
L103.546 214.343
L103.694 246.851
L103.843 215.855
L103.918 220.456
L104.066 253.353
L104.141 248.018
L104.215 255.016
L104.364 283.399
L104.513 268.624
L104.662 277.847
L104.736 274.175
L105.182 164.728
L105.331 151.034
L105.406 138.549
L105.703 173.714
L105.852 168.033
L106.075 193.629
L106.15 192.527
L106.373 229.247
L106.447 226.677
L106.67 254.951
L106.745 256.723
L106.894 279.575
L107.042 262.965
L107.117 268.3
L107.191 267.674
L107.266 269.531
L107.414 230.479
L107.786 150.559
L107.935 166.089
L108.084 151.811
L108.158 159.004
L108.456 240.263
L108.53 238.514
L108.605 215.963
L108.679 219.938
L108.754 244.022
L108.828 243.482
L109.051 195.487
L109.274 213.22
L109.423 252.899
L109.498 249.703
L109.572 255.319
L109.795 234.971
L109.944 203.414
L110.018 186.371
L110.093 186.695
L110.316 205.919
L110.465 256.442
L110.688 227.282
L110.762 227.671
L110.837 227.023
L111.06 193.672
L111.134 192.052
L111.283 165.895
L111.655 205.747
L111.73 206.438
L111.804 210.693
L111.953 236.267
L112.102 218.555
L112.399 232.595
L112.622 273.83
L113.143 199.699
L113.292 160.192
L113.515 186.22
L113.664 165.139
L114.11 214.689
L114.259 199.634
L114.334 203.695
L114.482 219.614
L114.557 207.993
L114.631 209.699
L114.78 257.932
L114.854 256.031
L114.929 254.865
L115.078 289.36
L115.375 269.229
L115.45 262.943
L115.673 216.093
L115.747 221.126
L116.342 117.532
L116.417 120.988
L117.086 275.774
L117.161 266.011
L117.235 260.675
L117.384 274.975
L117.458 271.259
L117.533 271.367
L117.682 297.395
L117.83 262.663
L117.979 236.764
L118.054 230.932
L118.277 184.211
L118.574 159.091
L118.649 159.458
L118.723 161.294
L119.021 182.894
L119.244 190.259
L119.318 198.986
L119.393 196.372
L119.467 194.018
L119.765 256.118
L119.914 324.957
L119.988 318.736
L120.211 277.329
L120.286 280.591
L120.36 276.119
L120.732 170.517
L120.806 176.911
L120.881 175.096
L121.327 125.697
L121.55 184.276
L121.699 167.018
L121.774 179.438
L122.071 288.064
L122.22 299.275
L122.294 298.475
L122.443 288.086
L122.518 289.533
L122.592 288.021
L122.741 271.173
L122.89 278.69
L123.113 260.848
L123.634 72.5827
L123.708 57.4627
L123.782 63.6403
L124.229 212.853
L124.898 326.447
L124.973 325.022
L125.196 276.638
L125.345 255.621
L125.419 259.487
L125.494 268.667
L125.568 265.687
L125.94 155.505
L126.014 159.458
L126.238 180.302
L126.461 131.572
L126.684 181.9
L126.982 232.639
L127.056 233.135
L127.13 225.964
L127.205 207.431
L127.279 208.533
L127.428 224.582
L127.502 226.223
L127.651 255.427
L127.726 253.504
L127.874 232.487
L127.949 215.855
L128.023 220.651
L128.246 238.449
L128.395 245.966
L128.693 208.015
L128.767 211.622
L128.842 210.931
L128.916 208.555
L129.362 169.653
L129.586 200.26
L129.809 228.556
L129.958 256.507
L130.106 271.065
L130.255 286.509
L130.33 284.392
L130.85 165.657
L130.999 158.356
L131.074 161.143
L131.222 152.913
L131.297 156.758
L131.743 232.034
L132.115 296.747
L132.264 270.503
L132.785 149.371
L133.603 281.541
L133.678 288.993
L134.273 149.5
L134.422 115.567
L134.496 116.733
L134.645 154.727
L134.942 222.681
L135.314 267.004
L135.389 265.838
L135.612 205.207
L135.686 210.887
L135.91 239.291
L135.984 257.975
L136.058 256.463
L136.207 232.228
L136.282 232.055
L136.505 218.296
L136.654 225.338
L136.728 221.752
L136.877 235.533
L137.174 177.796
L137.249 177.883
L137.398 187.948
L137.472 192.16
L137.546 183.607
L137.621 185.27
L137.695 189.655
L137.77 187.127
L137.844 192.355
L138.067 219.808
L138.142 214.559
L138.29 198.208
L138.514 228.513
L138.588 227.822
L138.662 222.767
L139.183 268.171
L139.406 238.017
L139.704 164.836
L139.778 168.011
L139.853 168.465
L139.927 170.02
L140.002 180.064
L140.15 170.452
L140.374 176.932
L140.746 258.991
L140.82 257.479
L140.969 249.443
L141.118 256.118
L141.192 255.664
L141.341 249.163
L141.49 269.013
L141.564 266.14
L141.638 262.9
L142.457 138.506
L142.531 139.067
L142.829 159.566
L143.052 214.624
L143.126 210.974
L143.201 214.408
L143.424 261.604
L143.498 259.574
L143.573 261.367
L143.722 276.357
L143.87 267.371
L143.945 270.266
L144.019 266.572
L144.242 225.986
L144.317 225.791
L144.54 215.078
L144.689 207.367
L144.912 172.655
L145.061 187.603
L145.135 183.499
L145.284 164.987
L145.358 165.895
L145.582 183.779
L145.805 230.025
L145.954 214.646
L146.028 217.994
L146.326 254.649
L146.772 272.728
L147.144 217.54
L147.218 213.112
L147.442 165.549
L147.665 182.591
L147.739 181.274
L147.814 184.471
L148.186 240.393
L148.26 239.594
L148.558 189.028
L148.632 192.592
L148.781 214.819
L148.93 219.074
L149.004 223.48
L149.078 221.471
L149.153 211.989
L149.227 212.551
L149.302 216.352
L149.376 215.013
L149.525 187.365
L149.822 232.12
L149.897 230.025
L149.971 227.865
L150.046 230.932
L150.194 247.651
L150.418 226.871
L150.492 226.223
L150.566 227.001
L150.715 247.067
L150.938 234.863
L151.087 228.945
L151.31 169.351
L151.459 202.269
L151.608 176.889
L151.682 177.537
L151.906 221.882
L151.98 219.247
L152.352 174.405
L152.724 243.223
L152.873 261.021
L153.022 251.042
L153.096 251.517
L153.17 252.057
L153.245 251.323
L153.542 206.243
L153.617 206.827
L153.766 218.145
L153.84 216.827
L153.989 198.532
L154.063 199.72
L154.286 233.956
L154.361 227.908
L154.584 172.094
L154.658 170.02
L155.03 208.533
L155.105 207.064
L155.179 200.433
L155.328 214.883
L155.477 234.971
L155.626 266.875
L155.774 253.958
L155.849 253.267
L156.072 224.776
L156.221 233.395
L156.444 192.268
L156.667 214.819
L156.742 210.283
L156.816 210.542
L157.039 244.151
L157.114 240.803
L157.188 240.566
L157.56 147.599
L157.634 153.993
L158.081 215.899
L158.23 228.297
L158.453 280.655
L158.527 276.422
L158.602 273.355
L158.676 275.018
L158.75 271.108
L158.899 249.681
L158.974 245.685
L159.122 215.855
L159.197 216.935
L159.271 213.177
L159.42 183.369
L159.569 155.008
L159.643 158.529
L159.792 184.427
L159.941 228.427
L160.015 226.267
L160.238 187.581
L160.462 230.673
L160.908 180.712
L160.982 188.812
L161.057 194.277
L161.206 188.855
L161.354 221.255
L161.578 271.54
L161.652 267.587
L161.726 270.266
L161.875 295.343
L162.322 212.27
L162.545 187.43
L162.619 186.976
L162.694 187.689
L162.768 185.745
L162.917 163.627
L162.991 167.882
L163.438 223.459
L163.586 204.58
L163.81 242.596
L163.884 241.149
L163.958 242.445
L164.107 259.401
L164.256 228.967
L164.33 208.101
L164.405 216.676
L164.479 226.742
L164.628 191.707
L164.702 192.117
L164.926 178.163
L165.298 275.687
L165.967 173.563
L166.042 173.757
L166.488 239.162
L166.86 181.511
L166.934 172.18
L167.158 236.764
L167.232 216.719
L167.306 196.891
L167.604 243.05
L167.678 238.579
L167.976 215.337
L168.125 223.761
L168.199 222.487
L168.348 224.042
L168.571 231.947
L168.72 237.758
L168.943 218.318
L169.018 218.534
L169.092 223.567
L169.241 206.675
L169.39 192.506
L169.538 210.995
L169.687 203.5
L169.836 210.283
L169.985 199.72
L170.059 200.303
L170.208 185.075
L170.357 189.784
L170.878 252.014
L170.952 250.329
L171.101 245.685
L171.175 235.36
L171.324 202.377
L171.473 225.446
L171.622 205.682
L171.77 218.707
L171.845 216.914
L172.068 202.463
L172.142 203.414
L172.291 200.433
L172.812 253.331
L172.961 251.625
L173.63 168.443
L173.705 171.856
L174.3 262.792
L174.449 254.692
L174.746 203.176
L174.895 207.475
L175.044 195.832
L175.118 197.474
L175.267 203.889
L175.639 162.439
L175.788 189.46
L176.16 282.103
L176.234 281.606
L176.309 287.2
L176.755 178.142
L176.904 209.743
L176.978 208.468
L177.053 208.663
L177.276 243.136
L177.425 247.845
L177.574 227.476
L177.648 227.649
L177.722 225.791
L177.946 205.207
L178.02 208.814
L178.094 214.646
L178.169 206.157
L178.392 143.431
L178.466 140.709
L178.69 173.109
L179.062 246.182
L179.136 246.095
L179.21 243.676
L179.508 269.186
L179.731 245.577
L179.806 251.02
L179.954 237.499
L180.326 175.593
L180.401 176.954
L180.475 185.918
L180.624 224.063
L180.698 223.135
L180.773 212.788
L180.847 212.961
L180.922 212.81
L180.996 223.351
L181.07 218.296
L181.294 199.007
L181.368 199.202
L181.591 185.551
L181.963 253.029
L182.038 247.435
L182.335 196.891
L182.41 194.147
L182.484 196.156
L182.558 195.616
L182.633 194.709
L182.856 231.623
L182.93 230.155
L183.154 215.164
L183.228 214.43
L183.377 216.374
L183.674 254.627
L183.823 246.527
L184.195 185.637
L184.344 216.05
L184.493 237.736
L184.865 195.681
L184.939 201.988
L185.014 200.951
L185.162 192.635
L185.237 186.652
L185.386 220.737
L185.46 220.499
L185.683 215.704
L185.981 165.311
L186.725 256.053
L186.874 258.947
L187.022 252.251
L187.171 274.24
L187.246 271.043
L187.32 274.78
L187.469 251.02
L187.766 187.927
L187.841 186.847
L187.99 193.694
L188.138 179.459
L188.362 161.359
L188.436 159.199
L188.585 164.296
L188.734 176.781
L189.031 250.869
L189.106 249.508
L189.329 225.748
L189.478 246.009
L189.552 242.618
L189.701 227.152
L189.85 239.054
L189.998 224.15
L190.147 236.851
L190.37 223.761
L190.445 228.297
L190.519 227.174
L190.817 181.922
L190.891 186.263
L191.04 197.431
L191.114 193.931
L191.263 205.66
L191.561 231.58
L191.635 231.645
L191.784 225.122
L191.933 202.312
L192.23 213.415
L192.454 247.175
L192.528 247.564
L192.751 204.818
L193.049 160.257
L193.123 161.488
L193.495 215.402
L193.718 281.239
L193.867 257.479
L194.09 230.025
L194.165 230.889
L194.314 218.534
L194.611 253.396
L194.686 248.234
L194.909 196.329
L195.058 198.359
L195.206 177.667
L195.281 182.721
L195.653 241.192
L195.802 220.867
L196.174 173.757
L196.248 165.787
L196.471 209.375
L196.62 242.402
L196.992 214.667
L197.215 206.049
L197.29 206.114
L197.364 209.527
L197.736 262.274
L197.81 257.587
L198.034 220.759
L198.108 233.74
L198.182 231.645
L198.406 201.038
L198.703 218.944
L198.852 211.708
L199.075 193.067
L199.596 229.766
L199.67 229.399
L199.745 230.025
L199.819 227.044
L200.191 178.271
L200.266 179.243
L200.34 175.528
L200.414 179.567
L200.786 254.174
L200.861 248.601
L200.935 248.191
L201.01 251.906
L201.084 247.197
L201.158 247.845
L201.307 257.803
L201.53 226.547
L201.605 228.34
L201.679 231.559
L201.828 211.535
L202.126 169.761
L202.2 173.433
L202.721 241.408
L202.795 239.615
L202.944 208.619
L203.167 225.575
L203.242 216.719
L203.465 165.225
L203.539 166.629
L203.762 191.231
L203.837 182.116
L203.911 177.731
L204.506 274.78
L204.655 286.207
L204.804 260.351
L204.953 232.703
L205.027 232.747
L205.176 210.542
L205.399 175.658
L205.548 210.542
L205.771 243.179
L205.92 224.15
L206.366 145.072
L206.441 148.787
L206.738 208.987
L206.813 204.256
L206.887 205.12
L207.11 223.459
L207.185 231.839
L207.259 231.753
L207.408 194.709
L207.557 206.87
L207.78 241.257
L208.078 269.683
L208.152 265.471
L208.45 215.769
L208.524 216.935
L208.673 227.671
L208.896 191.944
L208.97 199.029
L209.119 226.785
L209.268 217.087
L209.417 208.727
L209.566 218.685
L209.64 225.273
L209.714 223.783
L209.938 179.827
L210.012 178.941
L210.161 196.459
L210.235 192.657
L210.31 185.81
L210.384 187.149
L210.682 238.773
L210.756 238.514
L211.054 222.681
L211.202 238.103
L211.351 222.292
L211.5 228.621
L211.649 220.348
L212.021 189.503
L212.244 199.051
L212.467 236.721
L212.542 232.401
L212.839 224.02
L212.914 221.234
L213.062 243.007
L213.137 238.687
L213.211 230.63
L213.286 230.759
L213.583 214.516
L214.03 167.299
L214.253 178.228
L214.55 223.567
L214.699 241.451
L214.774 241.019
L215.071 264.628
L215.146 262.079
L215.294 256.291
L215.443 242.92
L215.518 243.935
L215.89 219.614
L216.113 186.587
L216.187 183.974
L216.336 190.864
L216.41 188.251
L216.782 212.831
L217.08 166.305
L217.154 175.636
L217.378 200.649
L217.601 219.074
L217.824 233.2
L217.898 232.574
L218.122 210.693
L218.196 213.587
L218.345 242.121
L218.568 281.023
L218.642 282.923
L218.717 281.131
L219.014 227.325
L219.312 161.445
L219.61 181.144
L219.833 212.291
L219.907 213.544
L219.982 212.054
L220.205 197.042
L220.279 195.703
L220.354 201.383
L220.726 285.947
L220.8 285.58
L220.949 248.083
L221.321 168.141
L221.47 150.947
L221.767 174.081
L221.99 208.079
L222.065 204.515
L222.288 222.746
L222.511 266.594
L222.734 290.203
L222.883 274.802
L223.032 241.149
L223.255 201.275
L223.33 205.423
L223.404 203.241
L223.627 190.173
L223.85 173.865
L223.999 160.387
L224.074 162.201
L224.446 221.039
L224.966 246.247
L225.041 245.123
L225.115 231.753
L225.19 235.576
L225.264 245.901
L225.338 244.475
L225.785 196.977
L225.859 200.001
L225.934 201.556
L226.157 189.395
L226.231 195.962
L226.38 217.13
L226.529 211.082
L226.603 217.022
L226.752 239.615
L226.826 239.032
L226.901 241.883
L226.975 254.26
L227.05 253.72
L227.273 224.387
L227.719 164.663
L228.24 247.456
L228.314 243.071
L228.612 214.041
L228.761 199.461
L228.984 224.971
L229.207 232.531
L229.654 192.441
L229.728 195.141
L229.951 222.832
L230.026 220.737
L230.1 209.267
L230.174 213.717
L230.398 223.286
L230.472 222.659
L230.695 212.011
L230.844 223.091
L230.918 220.996
L230.993 219.7
L231.29 232.163
L231.365 229.183
L231.439 223.264
L231.514 228.707
L231.886 199.029
L231.96 198.835
L232.034 198.964
L232.332 213.825
L232.406 217.454
L232.481 205.034
L232.555 206.632
L232.704 220.996
L232.853 207.28
L232.927 208.879
L233.076 224.042
L233.15 222.465
L233.299 230.5
L233.374 228.707
L233.597 211.643
L233.82 225.079
L233.969 230.155
L234.118 224.452
L234.49 157.147
L234.862 217.195
L234.936 216.763
L235.234 255.643
L235.531 233.632
L235.829 168.357
L235.978 201.967
L236.126 243.201
L236.201 242.92
L236.275 240.717
L236.498 252.683
L236.647 241.581
L236.87 215.099
L236.945 217
L237.168 234.755
L237.912 156.261
L237.986 159.825
L238.805 224.171
L238.954 253.72
L239.028 255.038
L239.177 260.611
L239.251 258.127
L239.326 249.443
L239.4 250.675
L239.474 251.798
L239.623 240.436
L239.772 229.787
L239.846 215.942
L239.921 219.031
L240.07 241.127
L240.516 164.901
L240.59 158.767
L240.665 163.951
L241.111 232.984
L241.334 253.223
L241.409 251.733
L241.781 203.306
L241.855 214.754
L241.93 212.529
L242.004 211.708
L242.153 218.037
L242.599 179.243
L242.674 182.807
L242.748 186.199
L242.822 182.462
L242.971 200.887
L243.269 246.398
L243.418 255.427
L243.79 221.471
L243.938 235.663
L244.013 231.796
L244.162 249.919
L244.236 246.419
L244.608 185.14
L244.906 217.929
L244.98 224.02
L245.129 213.523
L245.203 219.7
L245.426 195.595
L245.501 194.666
L245.575 190.756
L245.65 191.836
L245.724 197.647
L245.798 196.415
L245.947 183.693
L246.468 234.107
L246.617 263.181
L246.691 262.166
L247.063 229.053
L247.212 237.866
L247.286 237.045
L247.435 223.07
L247.51 227.692
L247.658 211.881
L247.733 213.112
L247.807 211.579
L248.105 196.286
L248.328 167.795
L248.402 166.845
L248.477 169.48
L248.7 220.197
L248.849 213.717
L248.998 231.537
L249.221 249.055
L249.295 247.391
L249.444 221.363
L249.593 203.651
L249.816 216.179
L250.039 249.897
L250.262 217.994
L250.337 218.642
L250.634 198.467
L250.709 199.267
L250.858 204.105
L250.932 204.947
L251.155 227.887
L251.378 188.186
L251.527 209.591
L251.75 251.452
L251.899 254.195
L252.048 243.806
L252.346 210.304
L252.569 180.043
L252.643 182.699
L252.866 210.067
L253.09 238.147
L253.238 238.838
L253.387 218.102
L253.61 191.642
L253.908 177.04
L253.982 180.086
L254.354 233.762
L254.429 231.019
L254.652 200.217
L255.322 275.083
L255.47 271.843
L255.842 189.676
L256.066 171.813
L256.363 200.152
L256.438 207.107
L256.661 186.544
L256.735 188.791
L256.81 195.227
L256.884 184.168
L256.958 187.927
L257.405 265.492
L257.479 266.075
L257.628 276.379
L257.702 271.13
L258.149 168.379
L258.298 192.722
L258.595 248.86
L258.67 244.389
L258.967 197.452
L259.339 219.333
L259.414 217.281
L259.488 218.62
L259.562 232.617
L259.637 231.127
L260.009 168.919
L260.306 203.846
L260.381 198.424
L260.455 190.303
L260.753 266.075
L260.827 264.391
L261.199 220.37
L261.274 224.063
L261.348 218.383
L261.422 218.75
L261.571 217.432
L261.794 251.258
L261.869 246.419
L262.166 175.355
L262.613 227.541
L262.687 224.02
L263.134 172.807
L263.729 277.351
L263.803 270.914
L264.101 212.399
L264.175 211.687
L264.25 213.76
L264.324 208.727
L264.398 208.771
L264.473 219.419
L264.547 214.603
L264.845 179.805
L264.994 196.221
L265.142 214.343
L265.217 213.415
L265.514 186.047
L265.589 189.568
L265.738 202.723
L265.886 201.686
L266.184 224.841
L266.258 224.798
L266.482 250.588
L266.63 268.883
L266.705 268.063
L266.779 275.947
L266.854 274.867
L266.928 271.389
L267.151 210.088
L267.226 214.538
L267.3 215.38
L267.449 196.61
L267.523 182.872
L267.672 204.213
L267.895 162.849
L267.97 165.916
L268.342 216.071
L268.416 222.4
L268.49 213.998
L268.565 214.43
L268.714 232.207
L268.788 247.413
L268.862 245.577
L269.086 231.235
L269.16 233.632
L269.234 234.021
L269.532 189.352
L269.606 196.459
L269.83 218.296
L269.904 217.735
L269.978 210.563
L270.127 184.903
L270.35 204.667
L270.499 186.479
L270.722 231.213
L270.797 233.783
L270.946 261.82
L271.02 280.051
L271.094 279.597
L271.69 197.15
L271.764 195.724
L271.987 221.558
L272.285 196.221
L272.359 196.934
L272.434 196.847
L272.508 197.733
L272.88 237.391
L273.178 194.169
L273.401 167.709
L273.475 174.275
L273.922 240.501
L273.996 241.905
L274.219 274.586
L274.294 269.423
L274.666 219.873
L274.814 231.235
L274.889 227.865
L275.484 183.369
L275.633 193.046
L275.782 191.188
L275.856 192.225
L275.93 189.007
L276.005 180.107
L276.079 187.343
L276.302 244.281
L276.749 208.317
L276.898 218.555
L277.046 255.923
L277.121 251.495
L277.642 200.325
L277.79 166.672
L278.088 203.068
L278.311 250.502
L278.534 221.277
L278.683 218.577
L278.758 221.126
L278.906 205.66
L278.981 206.351
L279.13 212.443
L279.353 227.908
L279.427 228.081
L279.502 219.527
L279.65 179.092
L279.948 221.428
L280.097 229.291
L280.246 217.886
L280.32 222.854
L280.469 200.001
L280.543 201.729
L280.618 209.786
L280.692 206.481
L280.766 207.734
L281.064 222.227
L281.213 212.054
L281.287 220.715
L281.436 271.432
L281.808 204.559
L281.957 177.515
L282.031 184.708
L282.106 183.153
L282.254 162.201
L282.329 166.499
L282.552 213.328
L282.626 212.291
L282.85 255.232
L282.924 255.016
L282.998 243.568
L283.147 278.366
L283.222 273.808
L283.37 241.127
L283.445 247.694
L283.594 218.491
L283.742 187.365
L283.891 176.392
L283.966 179.395
L284.189 164.728
L284.263 160.3
L284.338 141.379
L284.412 145.029
L284.71 236.159
L284.933 285.883
L285.007 285.796
L285.082 290.462
L285.602 206.697
L285.751 180.453
L285.9 192.808
L285.974 187.991
L286.049 188.747
L286.123 189.655
L286.198 186.674
L286.272 178.315
L286.346 181.447
L286.495 197.798
L286.644 183.931
L286.793 204.235
L287.016 236.051
L287.165 246.808
L287.314 235.684
L287.462 243.633
L287.76 207.583
L287.983 235.231
L288.206 222.616
L288.281 224.56
L288.43 215.791
L288.653 197.171
L288.727 193.975
L289.025 206.416
L289.174 205.617
L289.322 208.684
L289.546 234.431
L289.62 240.112
L289.769 277.696
L289.918 275.061
L289.992 276.789
L290.066 261.604
L290.29 174.772
L290.364 172.526
L290.587 142.351
L290.662 142.675
L290.81 133.883
L290.885 141.335
L291.108 201.621
L291.182 206.049
L291.257 203.63
L291.48 274.111
L291.629 253.418
L291.778 276.4
L291.852 287.762
L291.926 284.284
L292.075 262.727
L292.298 235.274
L292.447 214.214
L292.596 197.733
L292.67 196.502
L292.894 161.618
L292.968 165.657
L293.117 181.706
L293.191 180.345
L293.266 175.571
L293.786 244.583
L293.861 244.497
L294.084 230.651
L294.158 229.593
L294.382 209.224
L294.456 210.758
L294.605 225.359
L294.754 255.211
L294.828 251.128
L295.274 192.009
L295.423 185.767
L295.498 190.994
L295.721 225.532
L295.87 213.199
L296.093 228.297
L296.167 228.081
L296.39 207.367
L296.539 211.903
L296.837 169.351
L296.911 178.595
L297.134 201.34
L297.283 176.824
L297.432 206.611
L297.878 287.438
L298.102 260.459
L298.25 269.056
L298.771 178.271
L298.846 182.915
L298.92 187.948
L299.143 174.815
L299.218 174.837
L299.366 198.273
L299.515 221.731
L299.59 218.426
L299.813 196.977
L299.962 208.641
L300.036 199.007
L300.11 199.375
L300.408 259.358
L300.482 255.707
L300.631 239.486
L300.706 241.754
L301.003 181.209
L301.078 182.116
L301.301 213.933
L301.45 244.238
L301.598 210.65
L301.673 211.816
L301.747 216.115
L301.822 212.615
L302.119 237.758
L302.268 251.236
L302.64 206.87
L302.714 213.22
L302.789 208.447
L302.863 184.535
L302.938 195.379
L303.012 212.875
L303.161 166.413
L303.235 170.906
L303.31 180.086
L303.384 172.288
L303.458 175.399
L303.905 245.469
L304.054 256.55
L304.128 264.715
L304.202 264.693
L304.426 224.647
L304.5 227.692
L304.574 220.543
L304.723 193.867
L304.872 212.637
L304.946 211.125
L305.021 216.763
L305.095 236.203
L305.17 231.839
L305.318 210.11
L305.393 218.599
L305.542 193.867
L305.765 244.583
L305.839 223.718
L305.914 229.528
L305.988 233.913
L306.211 189.676
L306.732 252.1
L307.104 193.024
L307.178 193.737
L307.327 188.683
L307.402 168.163
L307.476 170.819
L307.55 172.072
L307.699 155.505
L308.146 247.823
L308.518 298.454
L308.666 244.886
L308.741 251.279
L308.815 248.385
L308.964 201.88
L309.038 205.358
L309.113 205.358
L309.262 187.43
L309.336 186.803
L309.485 191.469
L309.634 173.563
L309.708 176.846
L309.931 217.562
L310.006 220.175
L310.08 229.852
L310.154 229.312
L310.303 212.918
L310.452 254.044
L310.601 241.192
L310.824 211.298
L310.898 206.589
L310.973 207.885
L311.047 224.517
L311.122 216.352
L311.27 191.815
L311.345 193.327
L311.419 190.951
L311.494 192.571
L311.866 240.242
L312.014 188.056
L312.089 195.746
L312.163 206.611
L312.312 186.328
L312.386 194.731
L312.61 255.578
L312.684 250.178
L312.833 286.725
L312.907 270.46
L313.056 246.7
L313.13 251.063
L313.354 216.46
L313.726 121.226
L313.8 128.073
L314.023 174.578
L314.47 241.322
L314.544 241.279
L314.693 278.107
L314.842 256.787
L314.916 261.626
L315.065 278.431
L315.362 244.67
L315.586 140.579
L315.734 186.89
L315.809 179.74
L315.883 166.089
L316.106 199.979
L316.181 188.035
L316.33 203.889
L316.478 185.313
L316.627 205.099
L316.925 254.239
L316.999 257.824
L317.074 268.819
L317.148 265.514
L317.297 238.967
L317.371 243.633
L317.446 240.955
L317.743 176.392
L317.818 170.539
L317.966 143.301
L318.264 209.872
L318.338 200.368
L318.413 195.443
L319.008 268.927
L319.082 264.196
L319.231 275.99
L319.306 275.839
L319.678 243.827
L319.901 202.982
L320.198 140.558
L320.422 193.867
L320.496 187.127
L320.645 205.66
L320.719 201.535
L320.942 171.619
L321.017 162.439
L321.389 234.993
L321.538 255.859
L321.91 198.251
L321.984 199.483
L322.058 210.261
L322.133 206.978
L322.282 227.714
L322.579 267.285
L322.728 249.379
L322.802 251.366
L322.877 263.311
L322.951 257.543
L323.026 249.551
L323.174 280.483
L323.249 266.119
L323.472 197.625
L323.621 160.343
L323.695 163.151
L323.77 156.715
L323.844 158.767
L323.993 168.94
L324.142 148.399
L324.29 168.033
L324.365 160.689
L324.439 165.247
L324.737 226.915
L324.886 279.813
L324.96 307.331
L325.034 305.582
L325.183 267.523
L325.258 267.609
L325.332 263.246
L325.481 227.433
L325.555 228.902
L325.853 195.703
L325.927 189.849
L326.15 147.405
L326.448 182.311
L326.671 251.193
L326.746 245.879
L326.894 257.587
L327.043 242.575
L327.118 244.799
L327.192 251.431
L327.341 234.885
L327.415 238.881
L327.49 239.788
L327.713 206.157
L327.787 214.84
L327.862 214.3
L328.01 223.156
L328.159 221.752
L328.308 216.071
L328.531 180.885
L328.606 179.308
L328.68 173.303
L328.754 174.967
L328.978 224.366
L329.052 220.067
L329.275 265.017
L329.722 174.297
L329.796 179.287
L329.87 181.447
L329.945 180.734
L330.168 223.135
L330.242 220.111
L330.391 191.123
L330.763 228.405
L330.838 228.643
L330.912 229.96
L331.135 257.479
L331.284 236.786
L331.358 236.397
L331.507 208.274
L331.582 213.35
L331.73 241.689
L331.805 232.055
L332.028 156.11
L332.623 253.828
L332.846 246.938
L333.07 195.919
L333.144 200.692
L333.218 209.332
L333.293 206.049
L333.442 190.281
L333.516 192.268
L333.739 228.967
L333.814 226.504
L333.888 222.897
L334.26 185.443
L334.334 193.888
L334.409 190
L334.483 197.344
L334.558 189.611
L334.781 234.907
L334.93 228.535
L335.004 228.578
L335.227 261.539
L335.302 256.55
L335.376 249.746
L335.525 260.503
L335.599 260.157
L335.822 211.406
L335.971 233.675
L336.194 186.069
L336.269 190.799
L336.492 163.583
L336.566 163.583
L336.938 234.712
L337.162 260.049
L337.31 242.013
L337.534 211.989
L337.608 208.123
L337.682 210.736
L337.757 205.142
L338.129 148.161
L338.352 154.965
L338.798 254.195
L338.873 254.26
L339.096 243.698
L339.319 263.98
L339.394 263.656
L339.468 256.42
L339.542 259.574
L339.766 277.07
L339.84 272.728
L340.212 193.78
L340.286 188.661
L340.361 188.747
L340.435 186.998
L340.51 182.073
L340.584 182.851
L340.807 201.038
L340.956 197.798
L341.03 198.143
L341.254 169.891
L341.328 173.239
L341.477 199.634
L341.774 254.498
L341.849 251.798
L341.923 239.248
L341.998 240.652
L342.072 238.665
L342.295 199.202
L342.37 200.519
L342.518 193.391
L342.667 213.22
L342.742 207.928
L342.816 206.2
L343.039 214.883
L343.188 209.527
L343.411 238.233
L343.486 240.803
L343.858 221.212
L343.932 206.438
L344.006 213.695
L344.155 233.222
L344.304 228.124
L344.378 231.991
L344.453 228.859
L344.75 186.695
L344.825 191.923
L345.048 228.794
L345.122 231.926
L345.271 260.632
L345.346 258.796
L345.792 180.302
L345.866 189.547
L345.941 187.732
L346.015 187.754
L346.238 159.695
L346.313 150.019
L346.387 154.555
L346.685 215.423
L346.834 242.445
L346.908 239.356
L347.131 274.111
L347.429 244.151
L347.503 243.525
L347.578 247.003
L347.95 186.371
L348.024 182.138
L348.173 188.445
L348.396 232.401
L348.47 231.213
L348.694 212.594
L348.768 205.898
L348.991 240.955
L349.14 200.303
L349.363 241.516
L349.438 231.278
L349.512 232.898
L349.661 258.947
L349.884 235.166
L350.479 130.557
L350.554 138.311
L350.926 233.027
L351.223 196.372
L351.298 202.485
L351.372 202.355
L351.446 212.486
L351.595 204.04
L351.893 257.846
L351.967 257.738
L352.042 268.106
L352.116 262.771
L352.265 224.517
L352.339 229.809
L352.414 229.334
L352.488 229.593
L352.562 231.17
L352.637 243.395
L352.711 240.782
L352.86 237.607
L352.934 239.097
L353.083 207.95
L353.158 187.343
L353.232 194.709
L353.381 230.349
L353.53 211.319
L353.604 215.272
L353.678 214.97
L353.902 197.15
L353.976 207.345
L354.05 207.28
L354.274 171.208
L354.348 181.339
L354.497 198.208
L354.571 195.4
L354.72 204.278
L354.869 181.922
L355.166 256.42
L355.39 196.999
L355.464 203.003
L355.538 216.763
L355.613 212.788
L355.687 210.974
L355.91 233.308
L355.985 230.565
L356.059 229.982
L356.208 223.243
L356.58 192.895
L356.654 194.407
L357.101 288.777
L357.175 281.368
L357.473 225.467
L357.547 223.243
L357.77 170.236
L357.845 177.062
L357.919 196.199
L357.994 194.277
L358.142 163.281
L358.366 125.956
L358.514 155.699
L359.035 335.498
L359.11 305.517
L359.184 305.668
L359.333 308.001
L359.928 150.062
L360.002 140.795
L360.151 159.587
L360.374 137.555
L360.598 165.139
L361.193 307.051
L361.267 304.221
L361.416 313.25
L361.639 278.495
L361.714 279.273
L361.788 269.899
L362.16 157.643
L362.458 116.819
L363.202 277.761
L363.276 277.567
L363.499 245.318
L363.722 263.894
L363.797 274.24
L363.871 267.155
L364.02 242.164
L364.094 241.387
L364.169 244.195
L364.392 176.587
L364.466 177.796
L364.69 143.603
L364.913 145.612
L365.062 154.425
L365.582 265.881
L365.731 239.702
L365.806 256.507
L365.88 255.751
L366.029 232.509
L366.475 258.58
L366.624 244.648
L366.996 176.673
L367.07 184.255
L367.368 250.977
L367.442 252.878
L367.74 218.685
L368.038 146.671
L368.186 160.171
L368.335 174.686
L368.41 188.315
L368.484 186.609
L368.558 188.899
L368.707 210.671
L368.856 241.127
L368.93 241.343
L369.005 234.496
L369.154 249.011
L369.377 279.727
L369.898 165.765
L370.27 194.126
L370.642 249.767
L370.865 264.283
L370.939 266.767
L371.162 256.377
L371.237 261.669
L371.311 260.265
L371.46 244.065
L371.683 193.694
L372.13 110.534
L372.278 133.43
L372.799 274.435
L372.874 284.003
L373.171 262.598
L373.32 280.677
L373.543 273.808
L373.618 279.143
L373.692 274.931
L373.841 251.042
L374.064 170.279
L374.138 164.231
L374.287 127.166
L374.362 127.231
L374.51 143.971
L374.585 147.405
L374.957 206.438
L375.031 205.25
L375.18 216.071
L375.403 249.746
L375.552 241.387
L375.701 265.168
L375.775 264.931
L375.998 245.145
L376.222 226.288
L376.37 232.531
L376.445 231.537
L376.594 218.75
L376.742 224.949
L376.817 224.798
L376.891 223.351
L376.966 228.837
L377.263 192.7
L377.338 179.827
L377.486 188.423
L377.635 183.585
L377.71 195.119
L377.784 193.845
L377.933 164.447
L378.007 166.802
L378.082 174.383
L378.156 173.131
L378.23 168.011
L378.454 187.214
L378.9 275.191
L379.123 309.146
L379.57 240.955
L380.09 145.31
L380.462 188.877
L380.537 188.963
L380.611 190.216
L381.058 250.329
L381.132 247.607
L381.355 235.036
L381.43 235.879
L381.504 244.259
L381.727 219.463
L381.802 223.523
L381.876 214.214
L382.099 160.235
L382.248 176.392
L382.322 176.176
L382.397 179.827
L382.546 208.922
L382.694 196.869
L382.769 208.663
L382.992 276.249
L383.066 279.575
L383.141 297.179
L383.215 293.14
L383.29 289.447
L383.438 267.523
L383.513 273.009
L383.587 271.238
L383.662 259.509
L383.885 201.643
L384.182 126.453
L384.331 138.895
L384.48 150.256
L384.926 211.881
L385.001 212.918
L385.075 217.346
L385.298 252.489
L385.522 288.647
L385.67 288.561
L385.894 224.949
L386.117 181.727
L386.191 176.241
L386.34 131.529
L386.489 159.566
L386.712 238.492
L387.084 264.067
L387.158 259.574
L387.307 250.243
L387.382 253.958
L387.828 183.131
L387.902 186.069
L388.126 197.776
L388.274 200.606
L388.423 176.716
L388.498 178.855
L389.018 261.431
L389.316 213.242
L389.762 254.303
L390.432 118.547
L390.506 132.393
L391.176 299.966
L391.25 297.007
L391.399 244.497
L391.548 220.197
L391.622 221.299
L391.92 184.622
L392.069 157.406
L392.292 217.108
L392.441 238.73
L392.515 232.919
L392.59 215.423
L392.664 217.238
L392.887 254.606
L392.962 255.772
L393.036 261.237
L393.11 260.373
L393.185 250.826
L393.408 205.142
L393.631 239.594
L394.375 119.001
L394.598 179.719
L394.97 315.323
L395.045 318.239
L395.194 302.579
L395.566 202.226
L395.64 193.067
L395.714 196.372
L395.789 194.471
L395.938 159.199
L396.086 182.743
L396.235 158.443
L396.31 174.945
L396.384 169.307
L396.458 148.442
L396.905 303.811
L396.979 297.763
L397.054 284.435
L397.128 286.207
L397.202 283.507
L397.351 232.077
L397.574 279.273
L397.798 213.976
L397.872 213.307
L398.021 173.368
L398.244 104.464
L398.393 110.188
L398.616 172.936
L398.69 171.77
L398.765 174.556
L399.286 286.79
L399.36 284.587
L399.434 273.463
L399.583 281.498
L400.03 196.653
L400.104 216.309
L400.178 208.511
L400.253 190.735
L400.402 216.158
L400.476 209.937
L400.625 194.644
L400.922 232.466
L401.071 242.229
L401.146 242.035
L401.294 226.202
L401.369 229.355
L401.518 238.665
L401.89 175.139
L402.038 177.969
L402.187 169.761
L402.262 157.535
L402.336 158.443
L402.634 214.559
L402.782 220.197
L402.931 238.924
L403.006 234.691
L403.154 271
L403.229 260.611
L403.303 244.713
L403.452 277.891
L403.526 271.389
L403.75 221.903
L404.196 146.757
L404.717 250.761
L404.791 250.869
L404.866 249.227
L405.163 190.713
L405.238 195.811
L405.312 206.978
L405.535 167.99
L405.907 288.129
L405.982 271.151
L406.056 257.241
L406.13 263.354
L406.205 274.586
L406.651 229.226
L406.726 247.175
L406.874 213.782
L406.949 199.461
L407.023 203.263
L407.098 205.466
L407.47 172.655
L407.544 171.273
L407.767 139.003
L407.916 153.215
L408.139 131.939
L408.288 161.423
L408.511 246.203
L408.734 325.303
L408.809 326.858
L409.181 281.563
L409.404 252.122
L409.478 255.945
L409.553 263.332
L409.702 234.107
L410.148 133.3
L410.222 131.119
L410.743 237.736
L410.818 240.566
L410.892 239.853
L410.966 239.68
L411.041 243.309
L411.115 264.823
L411.19 263.397
L411.413 202.55
L411.487 199.331
L411.562 190.756
L411.859 101.656
L411.934 103.816
L412.082 141.919
L412.454 309.016
L412.678 351.719
L412.752 350.035
L413.124 232.941
L413.422 165.614
L413.57 161.164
L414.017 128.57
L414.166 152.135
L414.389 179.157
L414.686 291.326
L414.761 295.257
L414.91 274.089
L415.058 250.826
L415.133 251.323
L415.579 201.47
L416.026 122.306
L416.1 138.981
L416.323 235.339
L416.398 241.192
L416.621 299.188
L416.695 298.713
L417.067 212.313
L417.439 262.339
L417.514 271.216
L417.96 149.414
L418.109 138.895
L418.183 148.42
L418.555 271.843
L418.63 270.806
L419.002 209.203
L419.15 157.341
L419.299 181.9
L419.597 236.937
L419.82 207.95
L420.266 152.654
L420.49 190.735
L420.713 242.207
L420.787 245.685
L420.936 257.759
L421.085 243.374
L421.457 296.618
L421.531 290.959
L422.052 190.562
L422.275 158.896
L422.35 153.647
L422.498 128.829
L422.722 179.071
L422.796 179.913
L422.87 187.603
L423.168 240.047
L423.242 253.31
L423.466 201.923
L423.614 224.107
L423.689 215.812
L423.838 234.475
L423.986 221.839
L424.135 234.755
L424.21 251.474
L424.284 250.286
L424.358 240.911
L424.507 256.917
L424.73 213.89
L424.805 220.046
L424.879 217.346
L425.028 205.077
L425.177 217.627
L425.326 208.922
L425.474 198.683
L425.623 173.044
L425.698 179.287
L425.846 200.455
L426.218 174.729
L426.293 177.127
L426.888 312.71
L427.186 241.235
L427.409 164.858
L427.483 165.743
L427.632 197.366
L427.781 237.65
L427.855 238.557
L427.93 261.993
L428.004 256.55
L428.376 148.55
L428.897 225.467
L428.971 226.223
L429.343 177.472
L429.418 179.524
L429.641 197.711
L429.864 267.004
L430.013 248.774
L430.087 257.911
L430.236 291.499
L430.98 192.376
L431.054 204.321
L431.129 197.323
L431.203 199.547
L431.352 221.968
L431.798 153.021
L431.947 161.467
L432.542 286.163
L433.138 215.337
L433.286 224.128
L433.882 103.147
L434.03 124.271
L434.626 295.991
L434.774 276.508
L434.923 284.738
L435.072 277.847
L435.146 283.463
L435.221 280.893
L435.295 277.048
L436.039 131.702
L436.188 156.218
L436.486 219.398
L436.858 267.155
L437.23 207.129
L437.304 207.518
L437.527 215.575
L437.602 213.393
L438.048 172.288
L438.271 191.75
L438.866 293.313
L439.015 277.351
L439.536 153.755
L439.61 164.231
L439.685 162.676
L439.834 148.118
L439.908 155.959
L440.28 248.925
L440.429 255.448
L440.503 251.755
L440.578 253.699
L440.652 260.589
L440.726 255.124
L440.95 206.179
L441.098 194.882
L441.396 255.643
L441.47 252.597
L441.545 250.437
L441.694 208.339
L441.991 98.5027
L442.066 101.397
L442.14 110.534
L442.81 313.552
L442.958 318.974
L443.033 312.213
L443.777 156.175
L444 122.565
L444.223 140.428
L444.372 190.648
L444.446 190.54
L445.042 298.108
L445.116 297.741
L445.19 295.775
L445.339 275.083
L445.488 289.857
L445.711 206.179
L445.934 124.919
L446.009 129.002
L446.158 149.435
L446.232 151.466
L446.753 228.47
L446.827 226.893
L446.902 221.579
L447.348 236.915
L447.422 235.663
L447.646 220.823
L447.72 219.376
L447.869 200.519
L447.943 207.928
L448.166 267.307
L448.762 192.549
L448.91 232.271
L448.985 232.228
L449.059 225.035
L449.208 238.168
L449.506 208.598
L449.58 201.038
L449.803 152.459
L449.878 157.687
L449.878 157.687" style="fill:none;stroke:#808080;stroke-linecap:square;"/>
   </g>
  </g>
 </g>
 <defs>
  <clipPath id="p7ff5b81e1d">
   <rect height="345.6" width="446.4" x="72.0" y="43.2"/>
  </clipPath>
 </defs>
</svg>
