<?xml version="1.0" encoding="utf-8" standalone="no"?>
<!DOCTYPE svg PUBLIC "-//W3C//DTD SVG 1.1//EN"
  "http://www.w3.org/Graphics/SVG/1.1/DTD/svg11.dtd">
<!-- Created with matplotlib (http://matplotlib.org/) -->
<svg height="432pt" version="1.1" viewBox="0 0 576 432" width="576pt" xmlns="http://www.w3.org/2000/svg" xmlns:xlink="http://www.w3.org/1999/xlink">
 <defs>
  <style type="text/css">
*{stroke-linecap:butt;stroke-linejoin:round;}
  </style>
 </defs>
 <g id="figure_1">
  <g id="patch_1">
   <path d="
M0 432
L576 432
L576 0
L0 0
z
" style="fill:#ffffff;"/>
  </g>
  <g id="axes_1">
   <g id="line2d_1">
    <path clip-path="url(#p7ff5b81e1d)" d="
M72 275.637
L72.5952 212.106
L73.0416 131.571
L73.1904 120.956
L73.3392 139.401
L73.6368 172.233
L74.0832 155.911
L74.232 168.047
L74.6784 228.754
L74.976 311.471
L75.0504 305.576
L75.2736 239.556
L75.6456 122.349
L75.72 120.275
L75.8688 137.239
L76.3152 246.103
L76.3896 246.034
L76.464 242.104
L77.4312 74.2311
L77.5056 75.0606
L77.6544 95.767
L77.8776 202.863
L78.1752 321.167
L78.2496 322.105
L78.3984 298.674
L78.696 231.311
L78.7704 231.795
L78.9192 247.258
L79.1424 275.005
L79.2912 248.947
L79.8864 78.2302
L80.0352 102.709
L80.2584 136.814
L80.3328 136.804
L80.7048 110.707
L80.7792 112.998
L80.928 140.734
L81.5232 333.599
L81.5976 327.951
L81.7464 307.017
L82.3416 166.447
L82.5648 153.453
L82.8624 149.908
L83.3088 131.719
L83.4576 142.759
L84.0528 225.604
L84.2016 213.459
L84.5736 180.696
L84.648 180.577
L84.8712 193.108
L85.3176 251.494
L85.392 249.519
L85.764 215.048
L86.4336 130.011
L86.508 130.11
L86.6568 142.423
L87.0288 186.897
L87.1032 186.354
L87.252 189.81
L87.5496 202.814
L87.7728 192.209
L87.8472 192.387
L87.996 197.581
L88.2192 212.935
L88.2936 211.75
L88.5168 201.679
L88.9632 199.121
L89.1864 203.811
L89.3352 197.245
L89.5584 189.197
L89.7072 185.929
L90.0792 170.93
L90.1536 171.434
L90.6744 181.229
L90.972 204.769
L91.2696 199.072
L91.6416 183.085
L91.7904 178.889
L91.9392 184.122
L92.5344 221.23
L92.6088 220.38
L92.832 211.533
L93.4272 164.186
L93.5016 165.045
L93.7248 174.228
L93.7992 173.329
L93.948 167.622
L94.0968 162.488
L94.2456 171.019
L94.7664 220.667
L94.8408 220.864
L94.9896 214.466
L95.2128 202.834
L95.3616 195.32
L95.5848 182.355
L95.808 179.531
L96.0312 186.097
L96.2544 181.555
L96.4776 170.812
L96.552 171.404
L96.7008 178.474
L96.924 189.237
L96.9984 187.677
L97.0728 189.128
L97.296 212.55
L97.668 243.239
L97.7424 243.634
L97.8912 224.35
L98.2632 174.169
L98.5608 143.282
L98.7096 141.031
L98.784 143.183
L99.2304 182.068
L99.3792 190.136
L99.6024 202.31
L99.6768 202.35
L99.7512 204.266
L100.049 222.148
L100.198 210.98
L100.421 199.565
L100.644 201.076
L100.718 201.343
L100.867 200.8
L100.942 201.165
L101.09 207.534
L101.165 207.188
L101.686 166.585
L101.983 135.215
L102.058 136.923
L102.355 172.401
L102.653 220.183
L102.95 260.569
L103.025 261.151
L103.174 246.439
L103.918 147.558
L104.066 142.69
L104.215 151.28
L104.513 178.82
L104.587 179.185
L104.662 180.172
L104.81 191.409
L105.034 201.995
L105.257 207.88
L105.331 207.109
L105.629 200.02
L105.778 201.323
L105.926 196.554
L106.075 203.505
L106.15 207.801
L106.224 207.307
L106.373 194.678
L106.447 195.477
L106.596 197.452
L106.67 196.919
L107.042 181.604
L107.117 183.806
L107.34 187.943
L107.414 187.716
L107.712 168.58
L107.786 172.085
L107.861 175.077
L107.935 174.939
L108.084 176.815
L108.233 186.887
L108.53 210.111
L108.754 197.837
L108.828 198.331
L108.902 198.104
L109.051 194.441
L109.2 201.205
L109.349 189.948
L109.423 185.139
L109.646 195.023
L109.721 194.915
L109.795 193.098
L109.87 193.137
L110.018 198.588
L110.093 197.916
L110.39 178.237
L110.465 182.908
L110.688 200.276
L111.06 186.867
L111.134 186.591
L111.358 182.276
L111.804 194.154
L112.102 207.386
L112.176 206.122
L112.622 179.649
L112.697 183.53
L112.771 187.025
L112.846 186.571
L113.069 176.618
L113.366 196.801
L113.441 196.653
L113.738 186.186
L113.887 189.81
L113.962 189.494
L114.11 186.976
L114.259 194.885
L114.482 207.633
L114.78 198.41
L115.003 191.755
L115.078 192.752
L115.152 190.718
L115.45 168.047
L115.598 174.001
L116.119 218.781
L116.194 217.784
L117.161 169.36
L117.235 164.067
L117.31 165.351
L117.458 168.224
L117.607 165.005
L118.128 188.536
L118.277 189.533
L118.426 199.783
L118.574 208.077
L118.798 195.892
L119.095 207.919
L119.17 206.359
L119.467 194.085
L119.69 184.399
L119.839 182.305
L119.914 182.73
L119.988 182.572
L120.211 188.151
L120.434 175.344
L120.583 189.612
L121.104 235.152
L121.253 225.416
L121.476 210.161
L121.625 200.454
L122.22 129.567
L122.369 134.77
L122.741 155.477
L123.262 229.603
L123.336 230.719
L123.634 217.872
L123.708 219.788
L124.006 238.184
L124.229 227.085
L124.601 171.819
L124.824 147.686
L124.973 141.396
L125.047 142.946
L125.27 154.489
L125.345 155.536
L125.494 168.708
L125.866 204.749
L125.94 203.545
L126.014 203.732
L126.163 206.705
L126.386 205.223
L126.461 205.964
L126.982 222.415
L127.056 222.138
L127.205 213.824
L127.577 178.829
L127.651 179.106
L127.726 178.434
L128.023 166.309
L128.246 178.207
L128.47 169.725
L128.544 170.298
L128.618 171.651
L128.767 183.638
L128.99 196.03
L129.065 196.139
L129.139 195.991
L129.288 191.627
L129.362 191.636
L129.586 198.163
L129.809 205.056
L129.883 205.391
L129.958 204.453
L130.106 193.266
L130.255 177.635
L130.33 178.711
L130.627 202.498
L130.776 196.524
L130.925 201.343
L130.999 198.776
L131.297 172.036
L131.371 173.892
L131.669 195.843
L131.743 194.302
L131.966 201.698
L132.041 202.054
L132.413 208.512
L132.487 206.823
L132.785 189.711
L132.934 185.297
L133.157 174.85
L133.231 174.712
L133.306 172.668
L133.529 160.602
L133.901 184.892
L134.198 196.643
L134.347 197.038
L134.496 192.189
L134.57 192.653
L134.645 194.757
L134.942 208.897
L135.314 224.37
L135.389 223.975
L135.538 220.558
L136.207 164.907
L136.282 165.025
L136.356 164.601
L136.579 171.029
L136.877 186.986
L137.026 194.065
L137.174 195.201
L137.249 194.47
L137.398 186.61
L137.695 169.33
L137.77 169.232
L138.067 166.25
L138.142 167.908
L138.29 181.436
L138.811 253.143
L138.96 249.826
L140.225 152.514
L140.299 154.47
L140.448 160.157
L140.671 143.381
L140.82 128.53
L140.894 129.379
L141.266 168.215
L141.564 177.546
L141.787 203.663
L142.382 275.173
L142.457 274.314
L142.68 265.753
L142.903 227.905
L143.35 152.929
L143.498 137.713
L143.573 137.733
L143.796 144.595
L143.945 142.68
L144.094 148.357
L144.466 177.664
L144.838 203.772
L145.061 211.039
L145.135 210.328
L145.358 206.418
L145.507 206.003
L145.656 208.67
L145.805 202.044
L145.954 195.083
L146.028 194.974
L146.102 195.171
L146.326 206.556
L146.4 210.022
L146.474 208.679
L146.623 203.802
L146.698 204.562
L146.846 208.087
L147.144 179.995
L147.218 180.478
L147.293 179.037
L147.665 159.713
L147.739 160.325
L147.814 160.848
L148.037 168.017
L148.558 202.251
L148.632 202.281
L148.781 197.126
L149.004 200.365
L149.302 221.773
L149.376 221.753
L149.525 216.806
L149.674 218.228
L149.748 216.816
L149.897 199.595
L150.269 144.013
L150.343 145.869
L150.566 168.343
L150.938 208.452
L151.236 199.694
L151.31 201.007
L151.459 204.167
L151.534 204.147
L151.831 188.891
L151.98 181.614
L152.278 189.938
L152.352 189.217
L152.426 189.089
L152.798 177.862
L152.873 178.839
L153.17 202.597
L153.542 219.906
L153.617 219.314
L153.84 213.666
L153.989 200.059
L154.361 158.409
L154.435 157.076
L154.51 157.906
L154.807 166.082
L154.882 164.235
L154.956 166.269
L155.105 180.982
L155.328 205.293
L155.402 205.302
L155.7 196.633
L155.774 193.532
L155.849 193.631
L155.998 197.186
L156.221 206.793
L156.518 191.36
L156.667 201.323
L156.89 216.253
L156.965 216.806
L157.188 208.679
L157.337 195.981
L157.411 196.188
L157.56 194.125
L158.155 164.571
L158.23 164.581
L158.378 169.222
L158.899 200.573
L159.048 205.845
L159.346 196.574
L159.494 188.279
L159.718 179.965
L159.866 182.621
L160.015 192.13
L160.164 184.942
L160.313 185.149
L160.759 229.761
L160.834 229.731
L160.908 229.07
L160.982 231.301
L161.057 228.487
L161.429 180.676
L161.801 143.568
L161.875 138.374
L161.95 139.589
L162.173 164.788
L162.47 193.285
L162.991 233.474
L163.14 218.899
L163.438 189.889
L163.512 188.714
L163.735 176.233
L163.81 176.697
L163.884 179.856
L164.107 200.731
L164.182 200.207
L164.479 182.029
L164.554 182.987
L164.777 189.415
L164.851 187.894
L165 182.187
L165.074 185.248
L165.223 201.224
L165.298 199.812
L165.595 174.465
L165.67 174.1
L165.893 197.689
L165.967 197.462
L166.116 192.15
L166.265 195.902
L166.339 195.26
L166.562 187.825
L166.637 188.664
L166.786 194.52
L166.86 193.434
L167.009 191.557
L167.083 192.811
L167.306 189.138
L167.381 189.612
L167.604 207.149
L167.753 200.523
L167.827 201.738
L167.976 205.697
L168.125 196.08
L168.348 183.46
L168.422 183.717
L168.497 183.628
L168.571 183.352
L169.018 200.405
L169.762 174.988
L169.836 173.379
L169.91 175.354
L170.134 185.534
L170.282 177.269
L170.357 179.274
L170.729 200.158
L170.952 202.044
L171.25 222.276
L171.324 221.862
L171.398 219.215
L171.473 221.042
L171.547 220.845
L171.845 192.061
L172.068 166.803
L172.366 159.979
L172.589 175.492
L172.886 195.774
L173.184 204.167
L173.258 201.303
L173.333 202.419
L173.556 208.403
L173.63 207.801
L173.928 188.171
L174.077 182.364
L174.3 167.642
L174.449 165.46
L174.598 177.487
L174.746 186.117
L174.821 184.29
L175.193 203.495
L175.342 216.49
L175.416 215.453
L175.565 210.398
L175.714 203.347
L175.788 203.604
L175.937 208.097
L176.086 202.449
L176.234 204.414
L176.606 172.717
L176.904 148.999
L176.978 151.053
L177.35 182.236
L177.499 186.897
L177.797 217.843
L177.871 216.441
L178.02 218.919
L178.466 191.735
L178.615 195.665
L178.69 191.508
L178.838 168.323
L178.913 168.452
L179.285 182.68
L179.359 181.772
L179.582 214.466
L179.657 222.444
L179.731 220.292
L179.88 208.808
L179.954 209.361
L180.103 207.86
L180.178 210.141
L180.326 189.148
L180.624 149.355
L180.698 151.073
L181.517 228.853
L181.591 227.895
L181.889 199.704
L182.112 193.611
L182.186 193.513
L182.484 200.691
L182.558 199.565
L182.856 185.03
L183.005 178.879
L183.154 172.411
L183.228 175.107
L183.451 204.71
L183.898 161.737
L183.972 165.331
L184.344 193.404
L184.418 193.246
L184.716 174.603
L184.79 169.064
L184.865 172.549
L185.237 231.143
L185.386 235.824
L185.534 246.488
L185.609 243.022
L185.981 184.102
L186.13 177.052
L186.278 157.096
L186.353 158.676
L186.502 171.226
L186.725 184.774
L186.874 183.362
L187.097 199.338
L187.171 198.381
L187.469 178.04
L187.692 188.032
L187.766 186.986
L188.064 162.695
L188.138 163.663
L188.362 191.982
L188.585 210.388
L188.734 213.468
L188.882 221.565
L188.957 221.032
L189.403 191.597
L189.626 201.649
L189.701 200.513
L189.775 196.741
L190.073 164.986
L190.37 174.919
L190.742 200.138
L191.04 237.799
L191.114 234.896
L192.305 127.681
L192.379 124.363
L192.528 141.327
L193.049 255.395
L193.123 253.894
L193.421 231.657
L193.644 214.594
L193.718 215.325
L193.793 221.694
L194.165 184.695
L194.239 189.75
L194.462 197.571
L194.76 163.317
L194.909 168.294
L195.132 180.804
L195.206 180.093
L195.355 155.763
L195.43 156.435
L195.653 178.385
L195.802 186.67
L196.025 206.547
L196.099 206.3
L196.174 208.136
L196.322 216.599
L196.769 193.986
L197.066 164.847
L197.215 157.422
L197.364 175.917
L197.81 241.857
L197.885 240.277
L197.959 236.298
L198.182 185.149
L198.48 105.148
L198.554 107.804
L198.778 144.832
L199.373 270.976
L199.596 252.65
L200.489 152.969
L200.712 137.051
L200.935 152.228
L201.084 140.201
L201.158 143.48
L201.828 244.553
L201.902 249.875
L202.646 133.961
L202.721 140.359
L202.944 182.631
L203.018 178.316
L203.167 194.421
L203.39 230.097
L203.539 241.61
L203.688 224.449
L203.911 245.313
L204.209 210.319
L204.432 154.786
L204.655 140.339
L204.73 142.591
L205.102 162.863
L205.25 171.888
L205.325 174.603
L205.846 238.026
L206.069 214.722
L206.515 150.224
L206.59 151.586
L207.036 199.694
L207.11 194.954
L207.259 187.302
L207.334 189.109
L207.557 208.146
L207.78 233.059
L207.929 246.695
L208.078 271.322
L208.152 264.459
L208.301 198.598
L208.598 59.1037
L208.673 65.2159
L208.97 146.758
L209.417 279.982
L209.491 281.404
L209.789 245.619
L210.458 155.97
L210.607 153.838
L210.979 130.929
L211.128 120.877
L211.202 122.013
L211.351 148.831
L212.021 310.266
L212.17 324.594
L212.318 299.138
L212.988 81.0148
L213.062 78.6054
L213.137 79.03
L213.286 92.232
L213.509 140.488
L214.03 216.559
L214.178 225.011
L214.253 226.196
L214.402 236.199
L214.476 234.54
L214.625 221.338
L214.774 223.264
L214.997 207.544
L215.22 195.912
L215.518 188.013
L215.592 188.398
L215.666 189.82
L215.964 203.713
L216.038 203.713
L216.41 190.708
L216.559 174.613
L216.634 176.075
L216.708 174.366
L216.857 161.421
L217.006 161.856
L217.08 161.48
L217.229 157.481
L217.452 182.967
L217.675 193.276
L217.75 191.745
L217.824 191.804
L218.196 219.136
L218.345 222.849
L218.568 219.126
L218.717 223.066
L218.791 221.526
L219.163 182.967
L219.386 159.97
L219.461 157.333
L219.535 157.935
L219.61 161.243
L219.684 160.098
L219.833 156.178
L220.354 206.497
L220.428 202.33
L220.874 193.937
L220.949 194.727
L221.023 195.556
L221.098 195.063
L221.172 195.211
L221.321 201.442
L221.395 201.688
L221.544 198.499
L221.618 198.509
L221.842 202.251
L222.065 189.691
L222.437 174.564
L222.586 178.267
L222.734 173.448
L223.106 184.794
L223.553 207.001
L223.776 219.571
L223.85 220.203
L223.925 217.971
L223.999 218.356
L224.074 217.724
L224.371 196.534
L224.669 165.914
L224.743 167.997
L224.966 176.845
L225.338 199.437
L225.636 219.146
L226.082 180.419
L226.157 182.69
L226.231 184.952
L226.454 167.454
L226.529 168.777
L226.603 167.938
L226.752 170.525
L226.826 169.409
L226.975 178.602
L227.124 186.028
L227.198 185.672
L227.422 182.671
L228.017 222.612
L228.463 200.365
L228.686 172.994
L228.91 156.306
L228.984 159.762
L229.133 173.863
L229.356 202.468
L229.654 219.057
L229.877 210.042
L229.951 212.244
L230.026 211.513
L230.174 205.559
L230.323 207.939
L231.067 154.924
L231.142 152.277
L231.29 159.802
L231.886 200.099
L232.183 208.847
L232.258 209.38
L232.481 189.276
L232.555 189.375
L232.778 191.439
L233.15 209.371
L233.225 208.689
L233.448 197.225
L233.671 215.285
L233.746 212.106
L234.118 171.157
L234.192 168.876
L234.266 171.384
L234.564 195.833
L234.638 192.89
L234.862 177.23
L235.085 169.301
L235.234 181.634
L235.457 193.019
L235.903 208.117
L235.978 206.596
L236.201 198.41
L236.275 198.124
L236.424 187.766
L236.573 178.997
L236.647 180.35
L236.796 186.907
L236.87 186.867
L236.945 186.709
L237.019 185.406
L237.094 186.294
L237.391 196.83
L237.614 209.45
L237.689 208.156
L238.135 179.995
L238.433 192.14
L238.507 192.752
L238.582 190.817
L238.805 180.933
L238.954 183.352
L239.177 171.532
L239.549 189.602
L239.846 219.047
L239.995 210.417
L240.144 212.797
L240.516 204.196
L240.814 177.724
L240.888 181.13
L240.962 181.397
L241.409 163.732
L241.483 162.497
L241.706 176.835
L241.781 176.43
L241.93 186.709
L242.376 213.577
L242.45 212.086
L242.525 213.064
L242.599 211.296
L242.897 177.635
L243.046 187.716
L243.12 186.373
L243.343 201.649
L243.566 213.35
L243.864 199.21
L244.013 205.065
L244.087 204.029
L244.459 182.799
L244.608 187.015
L244.682 185.623
L244.906 170.989
L244.98 171.967
L245.054 173.29
L245.129 171.878
L245.352 179.639
L245.501 171.641
L245.65 179.066
L246.022 212.876
L246.319 190.007
L246.394 193.315
L246.468 196.248
L246.542 195.142
L246.691 189.059
L246.766 189.148
L246.84 188.654
L247.063 184.339
L247.138 183.599
L247.361 199.052
L247.435 199.822
L247.51 199.704
L247.658 197.531
L247.956 208.966
L248.03 208.531
L248.105 207.021
L248.328 198.173
L248.477 203.505
L248.551 203.249
L248.626 201.55
L248.998 173.882
L249.221 162.527
L249.37 167.425
L249.444 167.356
L249.593 169.271
L249.89 196.08
L250.262 208.699
L250.337 208.531
L250.411 208.067
L250.56 199.585
L250.783 181.89
L250.932 187.529
L251.006 187.795
L251.081 189.523
L251.304 198.983
L251.453 202.478
L251.602 207.939
L251.676 207.534
L251.75 204.71
L251.974 186.344
L252.122 176.262
L252.346 161.678
L252.42 160.276
L252.643 168.639
L253.164 218.741
L253.238 220.746
L253.536 206.3
L254.206 175.877
L254.28 174.672
L254.354 175.61
L255.173 223.688
L255.322 217.448
L255.396 217.517
L255.47 217.033
L255.545 212.718
L255.768 189
L255.917 179.264
L256.14 158.696
L256.363 148.851
L256.438 149.977
L256.586 159.436
L256.735 153.946
L256.81 154.815
L257.182 188.852
L257.702 218.998
L257.777 220.617
L258.074 236.021
L258.149 233.869
L258.372 213.567
L258.446 214.288
L258.521 214.081
L258.744 200.523
L258.893 183.836
L258.967 184.27
L259.116 187.361
L259.265 184.329
L259.786 154.558
L259.934 144.753
L260.009 146.037
L260.158 152.1
L260.753 205.115
L261.125 223.846
L261.199 223.659
L261.422 202.834
L261.497 204.611
L261.646 210.022
L261.794 206.408
L261.869 206.932
L261.943 208.176
L262.018 207.949
L262.166 197.897
L262.39 179.303
L262.464 179.57
L262.538 179.323
L262.91 169.656
L262.985 170.624
L263.282 185.84
L263.357 184.803
L263.431 184.162
L263.58 195.961
L263.803 206.31
L264.324 184.724
L264.398 180.172
L264.696 193.967
L264.845 185.722
L264.994 179.382
L265.142 185.811
L265.291 189.908
L265.44 186.66
L265.514 187.687
L265.812 201.264
L266.035 195.211
L266.407 215.108
L266.482 218.613
L266.63 212.817
L266.928 182.601
L267.077 174.554
L267.3 183.095
L267.523 166.684
L267.598 167.474
L267.672 168.185
L267.746 167.188
L267.895 157.975
L267.97 160.542
L268.49 205.836
L268.639 211.069
L268.714 211.089
L268.937 216.312
L269.011 215.937
L269.086 215.878
L269.234 211.592
L269.458 200.207
L269.681 206.507
L269.978 190.619
L270.202 165.519
L270.276 165.618
L270.499 175.028
L270.648 172.421
L270.871 186.087
L270.946 184.616
L271.02 185.406
L271.169 195.379
L271.243 194.283
L271.392 190.955
L271.69 187.381
L271.764 183.352
L271.838 183.905
L271.913 184.665
L272.062 183.539
L272.359 207.248
L272.657 198.795
L272.88 183.145
L273.178 212.264
L273.252 211.039
L273.401 196.425
L273.624 200.425
L273.773 207.939
L273.996 201.609
L274.294 168.768
L274.368 170.555
L274.666 178.899
L274.889 180.765
L274.963 180.044
L275.112 175.739
L275.41 182.829
L275.707 200.276
L275.856 196.85
L276.005 199.793
L276.079 198.331
L276.154 200.829
L276.377 213.024
L276.6 209.489
L276.972 179.195
L277.046 179.669
L277.195 186.739
L277.418 183.747
L277.567 190.511
L277.79 186.077
L277.865 186.561
L278.014 181.249
L278.237 188.062
L278.311 187.381
L278.386 186.275
L278.758 201.451
L278.906 195.477
L278.981 196.603
L279.204 209.341
L279.278 209.065
L279.353 207.949
L279.502 199.506
L279.874 165.173
L279.948 168.195
L281.064 214.11
L281.808 174.524
L282.254 187.015
L282.329 185.988
L282.478 187.934
L282.626 180.785
L282.701 181.328
L282.998 214.209
L283.073 213.172
L283.147 209.924
L283.222 213.676
L283.296 213.557
L283.519 196.406
L283.668 189.306
L283.817 191.666
L283.966 196.603
L284.04 195.655
L284.412 179.452
L284.561 173.902
L284.635 173.774
L284.71 172.115
L284.858 174.988
L285.156 191.646
L285.23 189.583
L285.379 181.397
L285.528 192.782
L285.751 205.283
L285.974 199.951
L286.049 201.471
L286.198 204.888
L286.272 204.601
L286.346 204.019
L286.495 192.742
L286.718 167.82
L286.793 172.826
L287.016 203.081
L287.165 194.421
L287.314 181.268
L287.388 182.493
L287.537 198.479
L287.686 211.266
L287.909 193.295
L288.058 200.434
L288.132 196.978
L288.355 175.956
L288.43 177.279
L288.653 200.918
L288.727 200.296
L288.95 188.763
L289.174 173.221
L289.248 174.396
L289.471 193.443
L289.546 193.256
L289.694 190.313
L289.769 190.659
L289.992 201.817
L290.066 202.133
L290.29 187.341
L290.364 189.474
L290.587 200.997
L290.662 199.121
L291.034 163.672
L291.331 187.904
L291.554 196.08
L291.852 227.046
L292.001 216.776
L292.15 204.246
L292.298 208.462
L292.373 210.319
L292.522 196.1
L292.819 170.14
L292.894 168.481
L293.117 173.981
L293.34 158.646
L293.414 159.95
L293.563 174.416
L293.712 183.697
L293.861 178.8
L293.935 181.298
L294.382 222
L294.679 209.973
L294.977 206.398
L295.274 191.459
L295.423 196.988
L295.721 169.607
L295.87 181.732
L295.944 180.646
L296.018 181.278
L296.093 180.133
L296.316 172.885
L296.39 173.27
L296.762 195.477
L296.837 197.847
L296.911 197.314
L296.986 199.012
L297.209 219.097
L297.283 217.023
L297.73 191.251
L297.804 190.748
L298.027 183.48
L298.176 174.781
L298.25 176.529
L298.474 192.772
L298.697 183.579
L298.771 184.754
L298.92 187.43
L298.994 185.998
L299.143 178.968
L299.292 183.036
L299.515 192.229
L299.59 193.098
L299.664 196.05
L299.738 194.638
L299.962 182.078
L300.408 202.083
L300.482 201.846
L300.631 205.678
L300.854 214.9
L300.929 214.426
L301.301 183.47
L301.524 191.153
L301.598 191.004
L301.673 188.822
L301.747 190.955
L301.896 204.74
L301.97 203.071
L302.342 184.142
L302.417 184.626
L302.491 186.107
L302.566 185.287
L302.714 177.348
L302.863 168.313
L302.938 167.277
L303.533 186.452
L303.682 191.143
L303.979 207.702
L304.128 200.434
L304.351 192.663
L304.5 201.679
L304.649 189.049
L304.723 192.653
L304.798 194.925
L305.021 186.877
L305.095 188.842
L305.393 196.396
L305.616 187.657
L305.839 203.466
L306.062 192.693
L306.286 189.602
L306.509 196.504
L306.583 196.554
L306.732 201.254
L306.806 201.787
L306.881 203.179
L307.03 211.889
L307.253 201.777
L307.476 185.08
L307.625 180.864
L307.997 159.387
L308.071 159.624
L308.146 158.992
L308.22 157.037
L308.518 181.614
L308.741 193.799
L309.187 215.206
L309.262 216.381
L309.41 221.042
L309.485 220.361
L309.708 208.334
L310.452 168.185
L310.675 180.814
L310.898 168.669
L311.27 193.898
L311.494 184.547
L311.642 196.07
L311.94 219.265
L312.089 218.178
L312.238 221.328
L312.461 216.292
L312.535 214.357
L312.907 183.53
L313.13 165.223
L313.205 166.427
L313.279 164.245
L313.502 151.764
L313.726 159.663
L313.874 157.205
L314.023 181.999
L314.246 211.977
L314.321 212.876
L314.47 221.082
L314.544 226.009
L314.618 225.88
L314.767 214.17
L315.065 187.479
L315.214 174.712
L315.288 168.106
L315.362 168.116
L316.032 215.187
L316.627 186.294
L316.702 187.045
L316.85 197.255
L316.925 195.951
L317.52 164.64
L317.594 164.936
L317.966 192.416
L318.19 202.38
L318.264 201.718
L318.562 210.97
L318.636 208.699
L318.934 168.876
L319.008 171.552
L319.231 190.185
L319.306 190.185
L319.529 205.539
L319.678 187.321
L319.826 170.189
L319.901 169.548
L319.975 171.285
L320.124 168.728
L320.347 186.867
L320.868 232.151
L321.017 216.648
L321.24 197.591
L321.538 177.753
L321.612 177.003
L321.835 192.96
L322.058 189.257
L322.356 195.991
L322.43 194.905
L322.505 191.962
L322.579 192.476
L322.654 193.749
L322.728 192.466
L322.877 179.896
L323.174 157.787
L323.398 168.56
L323.546 182.68
L323.621 181.031
L323.695 174.031
L323.77 175.018
L324.067 205.747
L324.142 202.133
L324.29 199.082
L324.588 232.674
L324.662 232.486
L324.811 241.561
L325.034 211.01
L325.332 180.409
L325.555 174.337
L325.704 178.237
L325.778 177.812
L326.299 166.674
L326.448 153.206
L326.671 180.913
L326.82 192.969
L326.969 187.213
L327.118 199.99
L327.266 218.267
L327.341 215.996
L327.415 216.599
L327.49 216.816
L327.713 225.387
L328.01 193.977
L328.085 196.949
L328.159 194.707
L328.382 174.751
L328.531 183.599
L328.68 178.089
L328.754 178.859
L328.903 185.445
L329.126 204.374
L329.275 202.854
L329.35 203.179
L329.573 182.355
L329.647 184.685
L329.796 189.425
L330.019 182.542
L330.168 173.942
L330.317 181.13
L330.391 185.149
L330.466 183.52
L330.763 168.343
L330.838 170.219
L331.135 188.556
L331.433 214.604
L331.507 214.545
L331.582 215.187
L331.73 229.139
L331.805 234.59
L331.879 234.076
L332.549 172.698
L332.623 169.656
L332.921 148.12
L332.995 149.276
L333.144 175.591
L333.367 217.853
L333.442 215.621
L333.665 173.013
L333.962 113.679
L334.037 120.64
L334.26 200.849
L334.558 297.321
L334.706 303.907
L334.855 285.946
L335.153 206.468
L335.45 129.172
L335.674 108.228
L335.748 106.54
L335.897 112.445
L336.046 133.062
L336.343 188.951
L336.715 208.028
L336.938 229.583
L337.013 229.445
L337.087 228.28
L337.385 235.379
L337.459 233.829
L337.831 201.096
L337.98 192.1
L338.054 193.019
L338.203 189.602
L338.426 178.553
L338.724 167.01
L338.798 167.02
L338.947 186.581
L339.022 184.991
L339.394 158.558
L339.468 156.839
L339.691 197.6
L339.914 170.288
L340.138 200.661
L340.212 200.079
L340.286 201.056
L340.51 182.088
L340.807 211.889
L340.882 207.85
L340.956 208.64
L341.179 216.915
L341.254 215.127
L341.328 215.414
L341.402 216.549
L341.477 213.202
L341.626 201.896
L341.7 200.859
L341.774 210.704
L341.849 207.485
L341.923 202.794
L342.072 208.452
L342.518 182.226
L342.593 180.33
L342.816 134.938
L342.89 147.192
L342.965 149.661
L343.039 144.348
L343.337 170.555
L343.634 205.105
L343.709 207.297
L343.858 215.532
L344.081 212.619
L344.155 204.374
L344.23 206.221
L344.304 209.815
L344.453 193.236
L344.527 195.408
L344.75 173.231
L345.048 201.244
L345.122 200.671
L345.197 217.961
L345.271 216.046
L345.792 172.451
L346.238 221.101
L346.313 216.608
L347.057 159.545
L347.131 158.459
L347.206 150.954
L347.354 182.631
L347.429 180.449
L347.503 180.923
L347.652 191.903
L347.726 192.466
L347.875 180.952
L348.173 204.068
L348.247 203.515
L348.322 198.262
L348.396 200.464
L348.47 199.793
L348.619 188.812
L348.768 206.635
L348.842 195.418
L348.917 199.052
L349.214 226.058
L349.289 230.314
L349.735 176.282
L349.81 177.447
L350.033 154.203
L350.107 164.127
L350.182 163.89
L350.256 152.189
L350.33 152.742
L350.628 195.122
L350.777 194.164
L350.851 194.164
L351 174.347
L351.223 202.972
L351.372 192.091
L351.446 194.895
L351.744 239.369
L351.893 236.278
L351.967 230.571
L352.19 185.791
L352.265 183.776
L352.488 149.226
L352.934 199.161
L353.009 187.055
L353.083 188.19
L353.232 204.542
L353.306 198.795
L353.381 199.101
L353.604 214.278
L353.678 212.056
L353.827 201.293
L353.902 210.378
L353.976 207.86
L354.497 130.327
L354.72 154.094
L354.869 161.421
L355.464 234.728
L355.538 228.517
L355.687 242.449
L355.762 241.936
L355.985 228.448
L356.059 226.888
L356.208 194.539
L356.282 196.791
L356.357 198.519
L356.58 163.04
L356.654 178.731
L356.729 178.217
L356.878 159.742
L357.026 171.917
L357.101 170.762
L357.25 166.951
L357.324 167.78
L357.473 189.583
L357.622 184.221
L357.77 196.425
L357.845 192.802
L357.919 181.259
L357.994 185.317
L358.142 208.363
L358.291 198.529
L358.366 200.247
L358.589 209.104
L358.738 212.985
L358.812 215.029
L358.886 207.03
L359.11 125.676
L359.184 127.088
L359.258 128.747
L359.333 125.064
L359.407 137.041
L359.63 209.311
L359.928 264.904
L360.077 257.992
L360.151 263.956
L360.226 262.326
L360.821 150.678
L360.895 161.698
L360.97 163.169
L361.193 142.206
L361.267 144.664
L361.342 152.396
L361.49 139.194
L361.639 155.427
L361.714 153.561
L361.788 145.8
L362.011 168.442
L362.458 241.995
L362.606 231.489
L362.681 235.883
L362.755 234.145
L362.904 217.171
L363.053 238.046
L363.127 235.429
L363.425 187.519
L363.574 182.73
L363.722 196.751
L363.797 196.198
L364.02 176.154
L364.392 188.98
L364.466 184.32
L364.69 151.902
L364.764 153.492
L364.913 168.363
L365.136 192.565
L365.285 195.863
L365.434 181.881
L365.508 183.826
L365.731 196.337
L365.806 200.701
L365.954 221.22
L366.029 220.617
L366.178 212.57
L366.326 214.456
L366.475 193.127
L366.698 149.226
L366.773 129.853
L366.847 131.996
L367.294 217.398
L367.368 219.867
L367.517 211.908
L367.889 235.093
L367.963 240.405
L368.112 216.48
L368.41 168.303
L368.484 168.501
L368.633 158.933
L368.782 165.104
L368.93 154.124
L369.005 154.608
L369.079 157.511
L369.154 156.593
L369.228 155.408
L369.749 184.942
L369.898 201.471
L370.046 186.857
L370.27 200.355
L370.642 264.133
L370.716 264.765
L370.79 267.974
L370.865 264.025
L371.088 212.787
L371.534 97.1197
L371.609 101.563
L371.683 112.168
L372.204 318.946
L372.278 308.242
L372.576 169.232
L372.874 69.5409
L372.948 64.9987
L373.246 78.8424
L373.618 126.772
L374.436 336.008
L374.585 345.083
L374.734 321.71
L374.957 266.73
L375.329 167.533
L376.073 75.2087
L376.147 75.1494
L376.296 79.1387
L376.445 98.0973
L376.817 161.559
L376.966 177.921
L377.263 268.468
L377.561 331.298
L377.784 359.963
L377.933 336.482
L378.23 222.464
L378.751 51.1747
L378.826 45.0625
L378.9 48.3605
L379.123 92.9528
L379.867 265.141
L380.016 268.952
L380.314 244.523
L380.611 189.76
L380.909 121.489
L381.058 110.569
L381.132 112.356
L381.281 129.883
L382.025 295.336
L382.099 293.144
L382.248 276.664
L382.471 227.697
L382.992 117.135
L383.066 118.221
L383.141 117.55
L383.29 130.386
L383.885 196.1
L384.034 200.75
L384.108 200.276
L384.331 184.645
L384.778 209.657
L385.298 190.382
L385.373 190.619
L385.447 191.33
L385.596 185.929
L385.745 192.288
L385.819 188.171
L385.894 188.516
L386.34 210.21
L386.489 206.24
L386.638 202.143
L386.861 209.933
L387.084 193.009
L387.233 176.894
L387.307 179.244
L387.382 178.336
L387.456 180.024
L387.53 177.645
L387.679 158.558
L387.754 159.703
L387.902 179.402
L388.126 198.173
L388.2 197.808
L388.349 201.155
L388.646 211.227
L388.87 193.453
L389.316 154.42
L389.39 153.917
L389.539 166.259
L389.837 193.72
L390.283 231.361
L390.432 219.512
L390.581 203.031
L390.804 212.007
L390.878 210.822
L391.176 189.592
L391.474 177.941
L391.622 181.229
L391.771 170.97
L391.92 161.678
L392.143 168.066
L392.887 197.472
L393.185 229.633
L393.334 221.763
L393.706 192.278
L393.78 191.804
L394.078 171.661
L394.152 170.9
L394.226 170.979
L394.747 194.372
L394.896 191.676
L395.045 183.964
L395.119 186.146
L395.417 208.739
L395.491 205.204
L395.64 193.177
L395.714 194.016
L395.863 199.23
L396.384 169.824
L396.458 169.844
L396.533 168.461
L396.607 168.827
L396.682 171.295
L397.202 221.526
L397.277 217.073
L397.5 209.163
L397.574 211.039
L397.723 205.056
L397.946 192.969
L398.095 200.257
L398.318 218.544
L398.393 214.871
L398.765 179.432
L398.914 170.989
L399.062 154.144
L399.137 154.44
L399.36 170.308
L399.509 178.257
L399.583 177.803
L399.658 178.099
L399.732 179.027
L400.03 192.93
L400.178 198.529
L400.253 196.682
L400.402 189.296
L400.625 205.569
L400.699 203.555
L400.848 197.512
L400.922 199.19
L401.071 195.26
L401.294 203.96
L401.443 199.407
L401.518 201.57
L401.666 214.683
L401.741 211.197
L401.964 179.244
L402.113 184.162
L402.187 183.549
L402.336 174.1
L402.41 174.238
L402.634 190.126
L402.708 188.388
L402.782 185.258
L403.006 202.715
L403.229 218.593
L403.452 198.371
L403.601 217.744
L403.675 217.092
L403.75 213.656
L403.973 190.669
L404.047 191.399
L404.122 188.664
L404.27 162.537
L404.494 128.846
L404.568 125.439
L405.089 174.613
L405.386 235.192
L405.61 249.707
L405.684 251.86
L405.907 216.579
L405.982 222.523
L406.056 228.793
L406.651 173.023
L406.726 172.53
L406.949 158.044
L407.098 164.146
L407.246 156.958
L407.321 150.717
L407.395 155.743
L407.618 209.153
L407.693 207.129
L407.916 234.204
L407.99 229.406
L408.139 213.863
L408.214 218.445
L408.288 218.07
L408.511 175.196
L408.586 178.928
L408.734 188.111
L409.032 180.706
L409.106 178.928
L409.255 173.744
L409.33 174.909
L409.404 172.54
L409.553 162.221
L409.776 175.699
L409.925 170.575
L410.074 183.293
L410.594 255.859
L410.669 254.457
L411.041 195.132
L411.19 157.807
L411.338 162.32
L411.562 138.286
L411.785 168.758
L411.934 159.298
L412.157 179.215
L412.306 170.426
L412.454 191.498
L412.826 245.303
L413.05 227.796
L413.198 234.748
L413.422 217.882
L413.57 221.822
L413.942 182.848
L414.017 178.553
L414.091 181.101
L414.314 203.871
L414.463 170.101
L414.686 126.792
L414.835 133.339
L414.91 129.813
L414.984 131.058
L415.282 191.33
L415.579 248.621
L415.654 242.548
L416.1 127.839
L416.174 128.846
L416.323 165.154
L416.695 247.762
L416.77 245.076
L417.216 152.663
L417.29 156.918
L417.886 264.627
L418.258 227.628
L418.778 156.81
L419.076 137.12
L419.15 138.927
L419.522 188.329
L419.746 210.457
L419.82 208.344
L420.192 182.967
L420.266 181.732
L420.341 182.335
L420.415 182.345
L420.713 169.923
L420.862 176.637
L420.936 176.341
L421.01 177.812
L421.382 220.193
L421.457 217.369
L421.68 188.635
L421.903 154.953
L421.978 156.464
L422.126 172.115
L422.573 244.207
L422.647 243.16
L422.796 225.426
L423.094 187.924
L423.391 182.838
L423.54 171.967
L423.838 201.797
L423.912 199.625
L424.135 191.093
L424.21 187.568
L424.358 191.133
L424.954 149.078
L425.028 143.262
L425.102 143.391
L425.251 159.268
L425.846 257.666
L425.921 256.115
L426.07 233.691
L426.367 182.532
L426.739 164.077
L426.888 159.209
L427.037 163.1
L427.111 161.164
L427.186 161.5
L427.409 177.358
L427.483 173.665
L427.558 171.542
L427.706 184.241
L427.93 199.951
L428.004 198.094
L428.227 179.373
L428.302 179.975
L428.45 183.707
L428.822 242.657
L428.897 237.433
L429.046 228.497
L429.12 228.892
L429.194 226.67
L429.641 188.684
L429.715 189.286
L429.938 183.944
L430.013 180.567
L430.087 182.71
L430.31 176.41
L430.534 149.641
L430.608 150.796
L430.906 168.837
L431.054 172.559
L431.203 180.123
L431.352 171.058
L431.426 173.004
L431.873 208.057
L432.096 193.424
L432.17 196.86
L432.394 213.034
L432.691 198.864
L432.989 210.101
L433.212 205.46
L433.435 195.112
L433.733 224.755
L434.03 205.984
L434.477 152.041
L434.849 128.846
L434.923 129.537
L435.444 193.947
L435.816 300.816
L435.965 281.137
L436.188 237.423
L436.56 126.999
L436.783 92.5776
L436.858 90.8792
L437.006 98.2849
L437.155 117.856
L437.676 232.486
L437.974 269.614
L438.122 266.869
L438.197 266.681
L438.271 267.619
L438.42 254.18
L438.941 178.138
L439.313 137.851
L439.536 130.564
L439.61 130.929
L439.759 151.892
L439.982 183.451
L440.057 184.428
L440.429 204.058
L440.503 201.422
L440.652 188.793
L440.801 199.565
L440.95 206.991
L441.098 196.949
L441.173 197.057
L441.322 210.99
L441.47 195.26
L441.545 197.512
L441.694 212.224
L441.842 211.503
L441.991 193.355
L442.14 180.854
L442.289 190.935
L442.363 189.375
L442.586 169.469
L442.661 174.317
L442.81 192.92
L442.958 185.771
L443.182 209.074
L443.479 191.854
L443.628 184.645
L443.702 188.19
L443.777 186.729
L444 167
L444.074 170.9
L444.223 189.563
L444.372 177.921
L444.595 203.249
L444.67 201.767
L444.818 203.782
L444.893 203.258
L444.967 201.234
L445.042 201.738
L445.19 209.005
L445.414 188.654
L445.488 191.745
L445.711 220.815
L445.934 198.776
L446.009 198.933
L446.604 154.904
L446.976 172.224
L447.125 188.901
L447.199 185.593
L447.274 185.85
L447.571 213.617
L447.72 216.352
L447.869 211.652
L447.943 212.738
L448.018 211.869
L448.241 192.476
L448.315 193.611
L448.464 205.253
L448.538 204.068
L448.762 176.154
L448.836 179.768
L449.059 194.441
L449.134 192.219
L449.357 170.545
L449.58 192.851
L449.729 185.317
L449.803 187.163
L449.878 192.179
L449.878 192.179" style="fill:none;stroke:#808080;stroke-linecap:square;"/>
   </g>
  </g>
 </g>
 <defs>
  <clipPath id="p7ff5b81e1d">
   <rect height="345.6" width="446.4" x="72.0" y="43.2"/>
  </clipPath>
 </defs>
</svg>
