<?xml version="1.0" encoding="utf-8" standalone="no"?>
<!DOCTYPE svg PUBLIC "-//W3C//DTD SVG 1.1//EN"
  "http://www.w3.org/Graphics/SVG/1.1/DTD/svg11.dtd">
<!-- Created with matplotlib (http://matplotlib.org/) -->
<svg height="432pt" version="1.1" viewBox="0 0 576 432" width="576pt" xmlns="http://www.w3.org/2000/svg" xmlns:xlink="http://www.w3.org/1999/xlink">
 <defs>
  <style type="text/css">
*{stroke-linecap:butt;stroke-linejoin:round;}
  </style>
 </defs>
 <g id="figure_1">
  <g id="patch_1">
   <path d="
M0 432
L576 432
L576 0
L0 0
z
" style="fill:#ffffff;"/>
  </g>
  <g id="axes_1">
   <g id="line2d_1">
    <path clip-path="url(#p7ff5b81e1d)" d="
M72 155.237
L72.1488 169.588
L72.5952 265.942
L72.6696 264.857
L73.0416 232.812
L73.3392 239.953
L73.488 231.477
L73.86 206.157
L74.0832 198.895
L74.1576 198.023
L74.232 198.282
L74.3808 200.701
L74.5296 204.027
L74.7528 202.822
L74.8272 203.194
L74.976 205.639
L75.0504 205.583
L75.1992 197.763
L75.4224 184.177
L75.5712 204.088
L75.7944 252.64
L75.8688 252.325
L76.2408 222.379
L76.3152 220.577
L76.3896 220.936
L76.464 221.588
L76.5384 220.97
L76.6128 222.694
L76.9104 246.268
L77.2824 206.637
L77.3568 208.36
L77.7288 225.697
L77.8776 216.443
L78.1752 197.396
L78.2496 197.448
L78.4728 204.749
L78.6216 194.178
L78.9192 171.571
L78.9936 175.494
L79.2168 246.109
L79.3656 269.095
L79.7376 205.85
L79.812 211.773
L80.184 272.249
L80.2584 274.785
L80.3328 269.618
L80.4816 193.106
L80.6304 116.569
L80.7792 156.546
L80.928 178.397
L81.0024 180.911
L81.7464 292.717
L81.8208 290.082
L82.044 247.824
L82.5648 113.325
L82.7136 142.696
L82.9368 179.593
L83.7552 278.064
L83.9784 324.067
L84.2016 264.032
L84.648 156.369
L84.7224 156.896
L85.0944 214.728
L85.2432 205.708
L85.4664 186.678
L85.5408 188.462
L85.9128 234.453
L85.9872 229.226
L86.2848 166.197
L86.3592 172.621
L86.7312 235.408
L86.8056 235.719
L87.1032 251.677
L87.252 237.412
L87.5496 202.489
L87.624 202.014
L87.6984 208.274
L87.996 269.566
L88.1448 249.565
L88.5168 193.275
L88.8144 171.614
L88.8888 174.872
L89.2608 216.715
L89.3352 215.566
L89.7072 194.273
L89.7816 194.83
L89.9304 209.302
L90.228 242.346
L90.3024 240.717
L90.5256 232.751
L90.7488 233.84
L90.972 244.415
L91.0464 244.35
L91.344 222.016
L91.5672 192.718
L91.7904 167.584
L91.9392 179.028
L92.3112 225.135
L92.46 221.644
L92.6832 215.566
L92.7576 215.346
L92.832 217.359
L93.0552 234.133
L93.1296 233.619
L93.2784 221.212
L93.5016 180.25
L93.6504 157.695
L93.7248 160.901
L93.948 200.8
L94.32 279.8
L94.3944 279.632
L94.6176 268.745
L94.7664 256.697
L95.1384 212.231
L95.2128 210.533
L95.2872 210.879
L95.3616 211.687
L95.436 211.678
L96.0312 195.124
L96.6264 160.071
L96.7752 168.366
L96.9984 192.791
L97.3704 263.725
L97.4448 262.922
L97.8912 239.987
L97.9656 242.203
L98.2632 264.162
L98.3376 263.406
L98.4864 245.949
L98.784 212.101
L98.9328 208.978
L99.0072 208.55
L99.156 202.913
L99.6768 166.154
L99.9744 178.609
L100.272 204.287
L100.644 237.149
L100.867 243.594
L100.942 243.499
L101.016 242.765
L101.09 242.843
L101.239 245.629
L101.314 244.968
L102.355 211.082
L102.578 208.309
L102.653 206.995
L103.099 186.778
L103.174 188.799
L103.397 197.686
L103.546 210.222
L103.843 253.033
L103.918 252.074
L104.066 225.174
L104.364 154.961
L104.438 159.829
L104.736 210.209
L104.81 212.158
L104.885 208.689
L104.959 212.054
L105.257 257.224
L105.406 239.516
L105.778 351.318
L105.852 334.349
L106.298 129.412
L106.373 139.867
L106.447 126.324
L106.596 78.5746
L107.117 205.617
L107.34 269.449
L107.414 270.331
L107.638 284.129
L107.712 280.949
L107.935 270.374
L108.307 243.007
L108.902 176.902
L109.051 182.475
L109.349 195.444
L109.498 193.478
L109.572 193.992
L109.87 196.93
L110.093 222.387
L110.316 244.039
L110.39 243.551
L110.614 223.653
L110.762 232.738
L110.837 231.641
L110.911 232.423
L111.134 248.312
L111.283 222.711
L111.506 174.133
L111.581 174.094
L111.73 188.665
L112.027 228.738
L112.176 232.596
L112.399 244.735
L112.548 244.406
L112.622 244.545
L112.771 237.404
L113.366 183.265
L113.441 183.209
L113.515 183.663
L113.664 187.486
L114.259 215.553
L114.557 240.078
L114.631 242.389
L114.706 242.173
L114.78 241.028
L115.078 229.909
L115.152 229.788
L115.226 229.356
L115.45 220.677
L116.045 189.18
L116.119 190.411
L116.566 213.493
L117.086 250.303
L117.161 250.13
L117.31 242.791
L117.905 197.236
L118.128 195.742
L118.202 195.694
L118.277 196.143
L118.351 196.113
L118.426 196.105
L118.5 196.424
L118.649 201.401
L119.318 236.069
L119.393 237.745
L119.542 235.352
L120.137 204.356
L120.286 210.352
L120.732 235.123
L120.806 235.896
L120.955 233.684
L121.253 214.456
L121.55 196.238
L121.625 193.91
L121.699 194.005
L121.997 198.152
L122.071 197.686
L122.294 194.355
L122.592 199.336
L122.815 215.437
L123.336 259.691
L123.41 260.244
L123.559 254.256
L124.303 194.312
L124.378 195.05
L124.898 212.538
L125.047 214.201
L125.196 215.847
L125.345 214.24
L125.866 206.581
L125.94 207.432
L126.461 222.763
L126.535 222.867
L126.684 223.446
L126.758 223.308
L126.982 219.294
L127.354 206.136
L127.428 206.905
L127.577 218.413
L127.8 240.454
L127.874 241.261
L128.023 232.185
L128.395 208.494
L128.693 197.565
L128.99 191.175
L129.065 192.091
L129.883 233.222
L129.958 233.753
L130.106 232.66
L130.255 228.764
L130.553 214.879
L130.702 221.1
L130.85 228.267
L130.925 228.228
L131.222 223.139
L131.297 222.906
L131.371 221.925
L131.594 209.756
L131.743 204.338
L131.892 210.888
L132.041 216.996
L132.19 214.322
L132.264 209.19
L132.562 154.594
L132.636 160.287
L133.082 263.851
L133.157 262.974
L133.454 228.772
L133.529 230.371
L133.678 237.512
L133.752 235.382
L134.198 189.37
L134.273 191.024
L134.57 207.254
L134.868 224.189
L135.017 225.623
L135.24 235.779
L135.314 235.641
L135.463 228.79
L135.761 193.906
L135.91 179.87
L135.984 180.25
L136.505 232.31
L136.579 234.457
L136.654 233.265
L136.728 233.421
L136.951 252.485
L137.026 248.722
L137.621 185.469
L137.77 180.276
L137.918 191.638
L138.439 238.622
L138.514 241.585
L138.588 241.56
L138.737 233.33
L139.034 214.141
L139.258 209.073
L139.555 196.714
L139.63 198.217
L139.853 213.173
L140.076 233.663
L140.225 235.667
L140.299 235.032
L140.448 235.84
L140.671 221.437
L141.043 196.692
L141.118 194.882
L141.192 195.171
L141.415 198.191
L141.638 196.843
L141.787 192.199
L141.862 192.985
L142.085 204.878
L142.382 250.053
L142.606 270.262
L142.68 270.335
L142.829 255.414
L143.201 193.068
L143.275 194.856
L143.722 234.419
L143.796 233.874
L143.945 231.416
L144.019 227.273
L144.466 146.541
L144.54 148.865
L144.763 178.889
L145.21 245.409
L145.507 278.668
L145.582 277.791
L145.73 270.884
L145.879 253.561
L146.4 161.022
L146.549 174.384
L147.07 249.668
L147.144 248.908
L147.293 234.609
L147.739 179.161
L147.814 179.084
L147.962 191.819
L148.334 236.211
L148.483 239.201
L148.706 236.643
L148.781 237.093
L148.93 235.81
L149.153 225.61
L149.525 208.823
L149.822 202.114
L149.897 202.399
L149.971 203.159
L150.046 202.913
L150.12 202.874
L150.194 204.325
L150.492 214.611
L150.566 214.65
L150.79 209.596
L151.087 202.01
L151.162 202.027
L151.236 202.381
L151.385 206.943
L151.682 221.649
L152.054 233.235
L152.352 247.206
L152.426 248.23
L152.501 246.791
L152.65 236.596
L153.096 190.294
L153.245 185.244
L153.394 187.832
L153.617 202.269
L154.286 250.606
L154.361 250.882
L154.51 243.015
L155.105 174.69
L155.179 175.299
L155.402 186.125
L156.667 268.547
L156.742 266.209
L156.89 252.999
L157.411 185.149
L157.634 180.259
L157.932 186.251
L158.602 224.111
L158.75 227.459
L159.122 256.243
L159.197 255.505
L159.346 232.509
L159.643 163.946
L159.718 160.482
L159.866 172.029
L160.462 245.426
L160.759 252.044
L160.834 252.58
L160.908 252.096
L161.057 245.996
L162.173 181.175
L162.247 181.913
L162.545 191.59
L163.214 227.545
L163.363 229.597
L163.661 226.008
L163.735 226.699
L163.884 228.492
L163.958 228.003
L164.256 220.633
L164.405 218.577
L164.479 220.249
L164.702 239.754
L164.926 257.297
L165 255.82
L165.223 230.76
L165.818 151.773
L165.893 148.636
L165.967 149.341
L166.116 162.888
L166.86 267.302
L167.009 270.171
L167.083 269.57
L167.158 266.292
L168.125 164.089
L168.199 165.247
L168.348 177.844
L168.869 240.004
L169.018 249.107
L169.315 269.678
L169.39 268.672
L169.91 216.974
L170.357 93.3231
L170.431 96.3341
L170.58 124.189
L171.324 328.003
L171.398 329.346
L171.547 316.706
L171.919 223.498
L172.291 152.161
L172.366 146.731
L172.44 146.852
L172.589 152.559
L173.333 217.065
L173.705 247.4
L173.854 249.236
L173.928 248.947
L174.226 240.644
L175.267 197.69
L175.342 198.005
L175.49 205.427
L175.714 220.119
L175.788 220.085
L176.011 215.92
L176.16 219.104
L176.383 224.301
L176.458 223.804
L176.606 214.162
L176.978 182.497
L177.35 185.274
L177.574 194.13
L177.871 238.769
L178.169 270.309
L178.318 274.694
L178.466 267.847
L179.285 207.743
L179.508 201.129
L179.731 179.805
L180.178 122.634
L180.326 140.562
L180.698 258.667
L180.922 304.273
L180.996 306.865
L181.145 294.812
L181.814 195.102
L182.038 185.59
L182.186 179.395
L182.261 180.229
L182.41 196.364
L182.782 252.385
L182.856 254.589
L183.005 250.195
L183.302 225.122
L183.674 200.355
L183.972 196.848
L184.121 195.18
L184.195 196.485
L184.493 210.503
L184.567 209.384
L184.79 202.269
L184.865 202.762
L185.014 211.302
L185.237 226.997
L185.311 225.252
L185.758 199.336
L185.906 209.877
L186.353 256.93
L186.427 254.8
L186.65 228.967
L186.948 204.736
L187.097 203.336
L187.171 203.617
L187.246 203.509
L187.543 198.277
L187.618 198.411
L187.766 204.494
L188.287 239.516
L188.362 239.374
L188.436 238.095
L188.808 218.093
L189.254 185.266
L189.329 186.894
L189.552 207.008
L189.85 236.864
L189.924 237.801
L190.073 232.323
L190.594 195.884
L190.742 191.681
L190.817 192.977
L190.966 205.138
L191.338 243.789
L191.412 246.45
L191.486 245.996
L191.635 237.222
L191.933 213.916
L192.602 197.552
L192.677 197.621
L192.751 197.997
L192.9 203.997
L193.57 245.517
L193.718 251.396
L193.793 250.683
L193.867 250.23
L193.942 248.281
L194.09 231.74
L194.611 131.101
L194.686 138.748
L195.206 242.415
L195.355 239.477
L195.43 240.592
L195.802 259.911
L196.025 251.902
L196.769 201.237
L196.918 196.26
L197.364 182.954
L197.438 183.702
L197.587 192.16
L198.182 234.967
L198.48 243.741
L198.554 243.676
L198.629 243.374
L198.778 229.261
L199.224 144.822
L199.298 151.773
L199.522 202.628
L199.819 256.403
L199.894 258.442
L199.968 258.429
L200.042 257.142
L200.117 257.751
L200.191 257.721
L200.563 275.977
L200.638 274.266
L200.861 237.866
L201.233 183.123
L201.679 151.768
L201.754 150.732
L201.828 151.164
L201.977 158.957
L202.944 259.043
L203.018 257.449
L203.539 244.713
L203.614 244.873
L203.688 244.83
L203.762 244.597
L203.986 237.762
L204.134 222.733
L204.581 152.136
L204.73 172.535
L205.176 248.186
L205.25 248.04
L205.474 234.112
L206.069 196.286
L206.218 192.791
L206.366 198.878
L206.738 220.106
L206.813 220.608
L207.036 224.003
L207.11 223.407
L207.408 217.743
L207.482 217.856
L207.631 216.715
L207.706 217.082
L207.78 217.592
L208.152 230.626
L208.226 229.01
L208.45 215.735
L208.747 192.89
L208.822 192.912
L209.045 210.663
L209.342 228.781
L209.417 229.628
L209.491 228.755
L210.012 215.981
L210.682 208.201
L210.83 214.979
L211.128 233.555
L211.202 234.116
L211.277 233.291
L211.426 226.63
L211.798 205.876
L212.244 188.748
L212.393 195.711
L212.914 227.213
L213.062 230.811
L213.137 230.6
L213.36 224.953
L213.658 218.033
L213.806 216.365
L214.104 217.705
L214.327 220.551
L214.55 220.085
L214.774 220.288
L215.146 222.046
L215.22 222.055
L215.294 221.852
L215.369 220.504
L215.741 201.064
L215.89 198.584
L215.964 199.016
L216.41 210.572
L216.559 209.717
L216.708 214.028
L217.303 237.274
L217.378 236.92
L217.526 229.744
L217.824 214.611
L218.27 206.619
L218.345 206.611
L218.419 207.013
L218.642 219.389
L218.866 232.293
L219.014 216.745
L219.312 183.028
L219.386 183.248
L219.535 195.543
L219.907 243.897
L219.982 243.776
L220.13 226.811
L220.354 201.12
L220.502 199.539
L220.651 207.306
L221.023 234.004
L221.246 240.186
L221.395 235.581
L221.544 232.215
L221.618 232.362
L221.693 232.289
L221.842 225.165
L222.139 204.386
L222.214 204.373
L222.288 204.753
L222.437 205.881
L222.586 203.125
L222.734 198.666
L222.883 203.302
L223.106 218.53
L223.181 216.771
L223.404 183.041
L223.553 169.238
L223.627 172.012
L223.85 207.643
L224.148 258.982
L224.222 261.267
L224.371 248.078
L224.743 208.46
L224.892 214.162
L225.264 240.557
L225.338 240.242
L225.487 234.928
L225.71 229.045
L225.785 228.932
L225.859 228.029
L226.008 219.411
L226.454 187.434
L226.678 180.108
L226.752 179.619
L226.826 181.006
L227.05 195.349
L227.57 237.831
L227.794 242.246
L227.868 242.056
L228.017 239.093
L228.538 211.998
L228.91 191.789
L228.984 191.711
L229.133 198.882
L229.505 222.854
L229.579 223.156
L229.728 220.422
L229.877 217.579
L230.026 222.863
L230.323 235.645
L230.398 235.235
L230.546 228.142
L230.844 206.062
L230.918 204.896
L231.067 210.166
L231.365 225.468
L231.439 225.731
L231.588 222.793
L231.96 192.32
L232.258 161.424
L232.332 161.592
L232.481 176.362
L233.15 285.187
L233.299 289.663
L233.448 282.232
L233.671 247.945
L234.341 135.763
L234.415 137.785
L234.564 153.241
L235.234 253.919
L235.308 256.14
L235.382 255.949
L235.531 250.048
L236.126 216.879
L236.275 214.344
L236.647 191.344
L236.796 201.509
L237.094 219.778
L237.242 228.509
L237.689 263.073
L237.838 253.245
L238.582 156.71
L238.656 154.939
L238.73 156.326
L238.954 177.351
L239.698 259.708
L239.772 260.524
L239.846 259.181
L239.995 250.277
L240.218 216.603
L240.516 181.304
L240.59 183.3
L240.888 212.067
L241.186 232.483
L241.409 239.006
L241.632 240.302
L241.706 239.97
L241.855 236.453
L242.525 209.427
L242.599 208.771
L242.822 198.001
L243.046 189.758
L243.12 189.879
L243.194 188.873
L243.269 189.188
L243.492 197.262
L243.715 202.239
L243.79 202.343
L244.013 197.517
L244.162 201.401
L244.906 260.701
L244.98 260.831
L245.129 254.005
L245.501 226.915
L245.873 202.304
L245.947 202.507
L246.096 205.22
L246.17 204.723
L246.542 197.608
L246.766 204.166
L246.989 208.861
L247.063 208.944
L247.435 197.824
L247.584 202.265
L248.03 222.962
L248.254 224.837
L248.328 224.915
L248.402 224.509
L248.551 225.424
L248.923 228.682
L248.998 228.664
L249.072 228.517
L249.221 229.248
L249.518 222.383
L249.593 222.374
L249.816 220.923
L250.039 215.242
L250.56 198.58
L250.634 198.856
L250.932 206.339
L251.378 222.521
L251.453 222.772
L251.75 215.951
L251.974 209.531
L252.048 209.522
L252.271 207.928
L252.42 209.846
L253.09 232.293
L253.164 232.371
L253.313 231.386
L253.462 233.166
L254.801 193.309
L254.875 192.592
L255.024 195.241
L255.247 205.189
L255.545 220.621
L255.991 225.774
L256.066 226.189
L256.214 224.288
L256.289 224.357
L256.586 228.98
L256.735 230.76
L256.81 230.626
L256.958 230.898
L257.033 230.509
L257.182 226.772
L257.777 203.569
L257.851 203.811
L258 203.863
L258.074 203.613
L258.372 200.183
L258.446 200.679
L258.67 206.092
L259.265 224.163
L259.414 225.58
L259.488 225.325
L259.934 214.149
L260.009 214.698
L260.306 223.359
L260.381 224.504
L260.455 224.405
L260.678 220.309
L260.827 217.813
L260.902 217.748
L261.274 214.853
L261.348 214.892
L261.497 216.849
L261.794 215.501
L261.943 214.063
L262.092 210.019
L262.315 212.927
L262.39 212.819
L262.836 205.393
L262.985 203.954
L263.059 204.818
L263.134 204.498
L263.208 204.719
L263.431 213.912
L263.729 224.483
L264.026 235.455
L264.25 246.925
L264.324 245.43
L264.696 219.834
L264.919 207.725
L265.217 201.202
L265.366 195.435
L265.812 205.03
L266.11 200.783
L266.407 205.794
L266.854 223.934
L267.523 243.495
L267.598 243.495
L267.895 231.961
L268.416 190.519
L268.49 190.748
L268.639 193.633
L269.532 219.039
L269.606 219.575
L269.978 227.455
L270.053 227.373
L270.127 226.867
L270.276 227.697
L270.425 226.85
L270.499 227.718
L270.574 227.511
L270.797 224.396
L271.69 187.59
L271.764 187.261
L271.838 188.627
L271.913 188.523
L271.987 189.067
L272.136 194.908
L272.359 208.926
L272.88 258.127
L273.103 267.229
L273.178 266.045
L273.326 256.788
L273.773 191.072
L274.07 162.97
L274.145 160.81
L274.219 161.411
L274.368 171.619
L274.666 222.914
L274.963 254.783
L275.112 247.059
L275.484 220.793
L275.782 210.615
L276.005 206.822
L276.079 207.103
L276.228 204.533
L276.377 202.857
L276.526 206.304
L276.823 215.704
L277.121 213.92
L277.195 213.367
L277.27 213.635
L277.344 213.644
L277.493 215.601
L277.567 215.951
L277.865 220.815
L278.311 242.398
L278.386 241.21
L278.609 223.476
L278.906 200.969
L278.981 199.82
L279.13 204.36
L279.353 215.117
L279.576 217.692
L279.65 217.143
L279.799 209.967
L280.097 187.663
L280.171 188.035
L280.246 189.413
L280.543 217.143
L280.99 266.685
L281.064 267.639
L281.213 249.772
L281.734 166.184
L281.957 144.247
L282.031 144.766
L282.18 165.718
L282.478 239.43
L282.775 302.891
L282.924 313.933
L282.998 312.304
L283.147 317.44
L283.296 295.711
L283.519 214.776
L283.817 113.104
L284.04 89.6554
L284.114 87.2664
L284.189 89.6856
L284.338 115.04
L285.007 310.325
L285.305 324.266
L285.454 311.842
L286.049 173.541
L286.272 109.553
L286.346 110.409
L286.57 120.591
L286.793 173.239
L287.09 219.113
L287.239 225.999
L287.537 260.533
L287.611 258.697
L287.909 243.754
L287.983 245.823
L288.206 271.67
L288.281 269.627
L288.802 189.659
L289.099 154.093
L289.174 156.412
L289.546 207.833
L289.992 280.522
L290.066 280.461
L290.29 261.371
L290.587 204.84
L290.885 156.762
L291.034 151.816
L291.182 157.147
L291.406 181.715
L291.926 254.221
L292.001 254.433
L292.522 236.652
L292.745 190.216
L292.968 155.255
L293.117 167.005
L293.34 203.366
L293.861 314.792
L293.935 313.207
L294.084 294.907
L294.382 216.517
L294.754 122.531
L294.828 120.401
L294.977 133.063
L295.87 250.29
L296.018 254.148
L296.167 249.59
L296.837 220.508
L296.986 217.51
L297.134 217.45
L297.209 217.527
L297.283 216.94
L297.581 207.751
L297.878 201.63
L298.027 206.529
L298.399 217.955
L298.548 208.892
L298.771 200.662
L298.92 212.218
L299.069 227.066
L299.143 225.748
L299.366 208.391
L299.515 226.764
L299.738 254.628
L299.813 256.049
L299.887 254.619
L300.11 236.782
L300.631 180.06
L300.706 183.68
L300.854 194.597
L301.003 167.26
L301.152 148.701
L301.301 170.21
L301.747 262.049
L301.822 266.119
L301.896 266.089
L301.97 265.497
L302.045 266.797
L302.119 266.693
L302.268 251.802
L302.566 214.534
L303.012 186.16
L303.161 196.23
L303.458 219.381
L303.533 219.623
L303.756 212.218
L303.905 208.611
L304.054 216.625
L304.351 243.957
L304.426 244.143
L304.649 234.531
L305.095 182.626
L305.244 197.18
L305.467 217.679
L305.542 216.508
L305.988 196.454
L306.062 196.852
L306.211 202.36
L306.658 237.006
L306.955 211.898
L307.104 216.966
L307.402 236.142
L307.476 236.077
L307.848 224.098
L307.922 225.589
L308.369 246.934
L308.443 247.517
L308.592 237.361
L309.187 161.657
L309.262 159.505
L309.336 160.495
L309.559 182.674
L310.08 237.646
L310.229 226.617
L310.452 197.867
L310.526 199.28
L310.75 233.572
L310.973 271.895
L311.047 266.654
L311.419 199.219
L311.494 200.908
L311.94 265.626
L312.014 263
L312.312 211.639
L312.684 169.014
L312.758 170.824
L313.13 190.173
L313.279 198.221
L313.502 234.406
L313.651 256.485
L313.726 254.407
L314.321 193.811
L314.395 190.393
L314.618 167.649
L314.842 214.715
L315.139 269.894
L315.214 268.953
L315.586 248.593
L315.734 236.941
L316.032 203.963
L316.181 198.148
L316.478 186.181
L316.627 184.091
L316.776 187.689
L317.074 206.062
L317.446 236.462
L317.52 233.922
L318.041 209.298
L318.115 210.486
L318.338 222.271
L318.413 220.815
L318.562 212.24
L318.636 213.13
L318.859 222.133
L319.008 221.325
L319.082 221.843
L319.157 221.385
L319.306 219.856
L319.454 225.662
L319.752 251.452
L320.422 207.224
L320.942 160.339
L321.017 160.836
L321.314 182.898
L321.538 211.129
L321.835 259.699
L321.91 259.164
L322.133 252.77
L322.207 252.606
L322.356 260.174
L322.579 271.009
L322.802 248.208
L323.026 204.066
L323.249 154.775
L323.323 154.52
L323.472 162.936
L323.621 152.352
L323.77 144.675
L323.918 162.205
L324.588 278.763
L324.737 287.339
L325.034 260.244
L325.63 193.141
L325.704 193.102
L326.002 205.928
L326.15 197.362
L326.374 189.015
L326.448 191.53
L326.597 200.386
L326.671 197.863
L326.969 159.22
L327.118 179.313
L327.415 224.418
L327.638 254.412
L327.862 286.678
L327.936 287.572
L328.159 284.773
L328.308 270.525
L328.606 214.477
L328.903 167.614
L328.978 164.556
L329.052 165.273
L329.201 166.785
L329.35 171.865
L329.647 184.056
L329.722 184.885
L329.945 195.327
L330.168 225.813
L330.391 249.068
L330.466 247.901
L330.763 228.712
L330.838 229.014
L331.061 231.572
L331.21 230.163
L331.284 231.023
L331.433 248.834
L331.582 262.728
L331.73 239.728
L332.251 155.721
L332.326 152.291
L332.4 156.08
L332.698 207.466
L332.921 272.655
L333.07 308.865
L333.144 301.94
L333.739 156.814
L333.814 157.16
L334.26 195.392
L334.409 210.464
L334.483 209.065
L334.558 203.811
L334.632 204.477
L334.781 231.438
L335.004 270.983
L335.153 276.4
L335.302 267.277
L336.046 192.234
L336.194 185.425
L336.269 185.611
L336.492 191.266
L336.566 190.856
L336.641 192.476
L336.79 210.801
L336.938 227.014
L337.013 224.163
L337.087 225.057
L337.31 245.944
L337.98 177.55
L338.054 175.74
L338.873 247.245
L339.022 257.863
L339.394 234.263
L339.84 187.188
L339.914 189.296
L340.063 210.741
L340.286 249.919
L340.361 249.167
L340.51 250.364
L340.658 236.989
L341.328 158.965
L341.402 160.27
L341.551 171.783
L342.295 260.468
L342.37 261.09
L342.518 254.088
L342.816 223.476
L343.188 186.475
L343.337 178.881
L343.411 179.049
L343.486 180.868
L343.783 218.763
L344.23 264.088
L344.304 265.004
L344.75 248.45
L344.974 218.759
L345.346 161.264
L345.494 155.665
L345.569 157.527
L345.941 188.748
L346.387 236.419
L346.61 242.92
L346.685 241.693
L346.834 230.82
L347.28 186.475
L347.354 189.581
L347.652 231.006
L347.95 272.029
L348.098 277.022
L348.247 269
L349.066 178.509
L349.438 121.623
L349.512 122.302
L349.661 136.929
L350.033 221.804
L350.479 307.573
L350.554 309.751
L350.628 308.373
L350.777 292.376
L351 235.339
L351.372 142.93
L351.446 140.964
L351.595 153.056
L351.818 201.712
L352.19 269.199
L352.265 272.396
L352.339 270.784
L352.488 251.098
L353.009 144.973
L353.083 147.237
L353.306 178.038
L353.753 262.853
L353.902 277.904
L354.05 247.716
L354.274 198.589
L354.348 199.487
L354.571 236.76
L354.72 255.241
L354.794 250.178
L355.018 219.251
L355.092 218.849
L355.39 254.433
L355.464 251.128
L356.208 151.66
L356.357 159.026
L356.654 195.02
L356.952 238.488
L357.026 236.721
L357.175 229.658
L357.25 232.418
L357.547 261.341
L357.622 260.628
L357.77 248.506
L358.142 210.434
L358.217 208.961
L358.291 209.674
L358.589 216.136
L358.663 216.288
L358.812 212.184
L359.184 185.253
L359.333 192.113
L359.63 229.58
L359.928 259.717
L360.002 257.82
L360.226 231.23
L360.672 177.395
L360.746 177.062
L360.895 179.205
L361.118 192.195
L361.565 239.931
L361.714 227.489
L361.937 206.749
L362.011 207.259
L362.532 242.7
L362.681 240.147
L363.127 225.161
L363.499 194.86
L363.574 195.379
L363.722 205.682
L363.946 216.983
L364.094 206.943
L364.466 171.303
L364.615 180.794
L365.062 253.586
L365.136 250.282
L365.434 192.229
L365.508 200.36
L365.806 263.725
L365.88 264.049
L366.178 231.788
L366.252 234.855
L366.55 254.334
L366.624 250.986
L367.517 120.453
L367.74 159.57
L368.335 269.592
L368.558 281.368
L368.633 280.634
L368.782 271.523
L369.154 221.303
L369.451 190.584
L369.674 185.132
L369.823 186.026
L369.898 186.829
L370.567 210.672
L371.014 264.49
L371.088 260.801
L371.311 233.494
L371.683 194.342
L371.758 194.225
L371.981 203.461
L372.204 209.328
L372.576 194.908
L372.725 195.936
L372.874 199.167
L373.097 216.676
L373.394 247.258
L373.841 260.771
L373.915 261.004
L374.064 249.897
L374.659 146.083
L374.734 146.416
L374.882 158.145
L375.552 265.695
L375.626 264.84
L375.85 250.528
L376.073 229.472
L376.594 166.733
L376.668 163.998
L376.817 172.634
L377.04 204.252
L377.486 259.596
L377.561 260.706
L377.784 257.289
L378.007 262.732
L378.082 261.207
L378.305 239.063
L378.974 146.766
L379.198 140.247
L379.346 151.578
L379.867 234.375
L380.239 320.935
L380.314 321.497
L380.462 304.843
L381.281 165.744
L381.355 165.553
L381.504 174.228
L381.95 205.652
L382.099 200.39
L382.322 193.811
L382.471 200.822
L382.918 233.053
L382.992 235.33
L383.141 233.334
L383.215 233.943
L383.662 248.528
L383.736 248.355
L383.885 247.111
L384.034 243.542
L384.703 205.544
L385.075 143.928
L385.15 144.031
L385.298 168.107
L385.522 214.992
L385.745 195.72
L385.894 211.428
L386.191 251.457
L386.34 256.174
L386.414 256.023
L386.638 250.809
L386.786 241.884
L387.307 182.168
L387.382 183.693
L387.679 201.997
L388.051 228.746
L388.126 230.526
L388.2 229.809
L388.349 218.167
L388.572 199.141
L388.87 215.376
L389.167 238.466
L389.316 240.527
L389.39 240.03
L389.688 232.043
L389.837 235.499
L389.986 229.118
L390.506 195.776
L390.581 195.781
L390.73 196.148
L390.804 195.668
L391.027 201.539
L391.25 207.267
L391.474 196.809
L391.697 185.827
L391.846 195.936
L392.069 229.153
L392.292 250.238
L392.366 249.072
L392.738 229.235
L392.887 238.333
L393.036 248.489
L393.11 246.566
L393.259 227.299
L393.706 162.37
L393.78 163.26
L393.929 183.162
L394.301 256.74
L394.45 242.125
L395.045 158.257
L395.194 183.788
L395.566 286.427
L395.64 290.384
L395.714 289.378
L395.863 265.821
L396.086 216.244
L396.235 208.317
L396.458 194.355
L396.607 193.577
L396.756 198.554
L396.905 203.604
L397.277 199.301
L397.5 201.254
L397.649 197.267
L397.798 192.299
L397.872 192.363
L398.095 209.306
L398.318 246.964
L398.467 270.352
L398.542 269.035
L398.69 247.595
L399.137 164.43
L399.286 183.265
L399.732 280.919
L399.806 280.833
L400.03 252.666
L400.476 192.787
L400.625 188.601
L400.774 194.601
L400.922 202.775
L400.997 202.52
L401.294 189.724
L401.369 189.987
L401.518 195.05
L401.89 210.801
L402.038 212.322
L402.113 213.566
L402.262 222.681
L402.559 249.271
L402.708 235.974
L403.154 186.471
L403.229 192.255
L403.526 278.591
L403.601 270.283
L403.898 202.645
L403.973 203.323
L404.122 211.911
L404.196 211.212
L404.27 212.028
L404.568 257.185
L404.642 254.437
L405.312 143.902
L405.386 146.023
L405.535 163.471
L406.056 241.261
L406.428 255.807
L406.577 252.277
L406.8 237.214
L407.098 220.612
L407.47 202.986
L407.693 194.515
L407.842 199.133
L408.214 222.115
L408.288 220.487
L408.66 202.338
L408.734 201.984
L408.883 205.609
L409.404 226.34
L409.478 226.509
L409.553 226.176
L409.702 230.764
L409.85 235.468
L409.925 234.989
L410.074 227.731
L410.52 193.063
L410.594 194.126
L410.892 209.406
L411.413 237.879
L411.487 240.082
L411.562 239.184
L411.785 221.251
L412.157 192.921
L412.306 198.468
L412.752 259.358
L412.826 258.256
L412.975 243.279
L413.57 143.34
L413.645 144.044
L413.794 160.763
L414.463 260.563
L414.538 260.533
L414.686 258.775
L414.91 249.133
L415.282 225.8
L415.579 219.86
L415.802 214.24
L416.1 202.079
L416.398 189.551
L416.546 190
L416.621 190.916
L416.918 206.053
L417.29 220.322
L417.439 222.029
L417.514 221.787
L417.96 213.765
L418.034 214.832
L418.258 223.705
L418.481 232.561
L418.555 232.263
L418.778 226.815
L419.448 202.196
L419.597 206.831
L419.82 221.891
L420.118 238.021
L420.192 239.654
L420.341 238.561
L420.415 238.605
L420.564 233.477
L420.862 204.697
L421.159 179.269
L421.457 170.133
L421.531 171.152
L421.68 176.682
L422.35 252.761
L422.573 261.095
L422.647 261.159
L422.796 261.928
L422.87 261.285
L423.019 253.552
L423.986 167.083
L424.135 167.679
L424.284 172.003
L424.507 186.54
L425.549 281.8
L425.623 280.383
L425.846 259.885
L426.739 139.659
L426.814 136.674
L426.888 137.145
L427.037 149.764
L427.26 197.379
L427.632 285.058
L427.781 295.257
L427.855 293.611
L428.004 279.187
L428.748 180.669
L428.897 177.792
L428.971 178.565
L429.12 183.676
L429.343 203.302
L429.79 243.551
L429.938 234.518
L430.236 204.654
L430.31 205.565
L430.757 223.886
L430.906 219.109
L431.65 182.484
L431.798 188.57
L432.022 216.841
L432.468 281.934
L432.542 284.729
L432.617 284.561
L432.766 272.97
L433.584 154.982
L433.733 163.722
L434.254 214.331
L434.551 207.669
L434.7 215.406
L435.221 253.254
L435.295 255.06
L435.444 252.995
L435.593 245.357
L436.262 195.361
L436.634 185.555
L436.783 189.011
L437.006 200.649
L437.527 240.981
L437.676 236.315
L437.974 214.568
L438.271 202.723
L438.346 201.764
L438.42 202.649
L438.643 221.014
L438.866 234.172
L439.015 228.651
L439.462 209.721
L439.685 206.477
L439.908 215.38
L440.28 230.267
L440.429 223.951
L440.726 206.913
L440.801 207.095
L440.95 210.443
L441.322 223.765
L441.545 226.781
L441.694 219.463
L441.917 208.395
L442.066 202.654
L442.289 192.182
L442.363 191.875
L442.661 197.582
L442.958 212.542
L443.33 243.771
L443.628 252.36
L443.702 249.802
L444.074 207.25
L444.298 195.577
L444.446 198.355
L444.595 192.182
L444.744 185.404
L444.893 191.962
L445.265 220.508
L445.637 264.875
L445.711 265.803
L445.786 260.848
L446.083 199.561
L446.306 239.922
L446.455 196.277
L446.604 153.682
L446.678 157.225
L447.348 252.036
L447.422 252.826
L447.72 240.065
L448.241 202.373
L448.613 183.965
L448.836 179.019
L448.91 180.082
L449.059 190.843
L449.803 264.983
L449.878 269.717
L449.878 269.717" style="fill:none;stroke:#808080;stroke-linecap:square;"/>
   </g>
  </g>
 </g>
 <defs>
  <clipPath id="p7ff5b81e1d">
   <rect height="345.6" width="446.4" x="72.0" y="43.2"/>
  </clipPath>
 </defs>
</svg>
