<?xml version="1.0" encoding="utf-8" standalone="no"?>
<!DOCTYPE svg PUBLIC "-//W3C//DTD SVG 1.1//EN"
  "http://www.w3.org/Graphics/SVG/1.1/DTD/svg11.dtd">
<!-- Created with matplotlib (http://matplotlib.org/) -->
<svg height="432pt" version="1.1" viewBox="0 0 576 432" width="576pt" xmlns="http://www.w3.org/2000/svg" xmlns:xlink="http://www.w3.org/1999/xlink">
 <defs>
  <style type="text/css">
*{stroke-linecap:butt;stroke-linejoin:round;}
  </style>
 </defs>
 <g id="figure_1">
  <g id="patch_1">
   <path d="
M0 432
L576 432
L576 0
L0 0
z
" style="fill:#ffffff;"/>
  </g>
  <g id="axes_1">
   <g id="line2d_1">
    <path clip-path="url(#p7ff5b81e1d)" d="
M72 224.602
L72.0744 226.948
L72.1488 225.254
L72.2976 233.756
L72.5208 224.053
L72.6696 228.983
L73.116 194.552
L73.1904 188.949
L73.6368 217.02
L73.7112 216.813
L73.86 220.386
L73.9344 219.133
L74.0088 219.66
L74.0832 223.444
L74.3064 198.82
L74.3808 200.872
L74.4552 205.045
L74.5296 202.371
L74.604 207.084
L74.7528 229.622
L74.976 216.433
L75.2736 196.699
L75.4224 215.889
L75.4968 214.066
L75.6456 219.276
L75.7944 225.216
L75.8688 231.16
L75.9432 228.676
L76.0176 227.6
L76.2408 271.245
L76.3152 269.953
L76.3896 273.682
L76.464 268.727
L77.0592 186.996
L77.1336 182.232
L77.4312 137.221
L77.5056 139.511
L78.1008 228.257
L78.2496 236.331
L78.324 234.499
L78.3984 234.987
L78.5472 238.106
L78.696 228.468
L78.9192 231.156
L78.9936 237.324
L79.068 235.398
L79.2912 210.173
L79.5144 233.026
L79.8864 217.824
L79.9608 218.152
L80.184 227.682
L80.3328 235.722
L80.4072 234.745
L80.4816 235.575
L80.556 233.004
L80.7048 219.72
L80.8536 222.144
L81.0024 215.82
L81.1512 198.665
L81.2256 203.088
L81.3 201.672
L81.3744 193.688
L81.4488 195.14
L81.5232 201.244
L81.7464 182.78
L81.8208 184.119
L81.9696 179.856
L82.2672 215.262
L82.3416 211.979
L82.5648 224.39
L82.6392 218.247
L82.7136 220.403
L82.788 221.993
L82.9368 215.508
L83.0856 220.883
L83.2344 212.597
L83.3088 214.951
L83.4576 217.422
L83.6064 219.353
L83.6808 219.267
L83.7552 225.453
L83.8296 221.345
L83.904 222.274
L84.276 258.73
L84.3504 259.521
L85.2432 197.598
L85.4664 185.368
L85.5408 187.86
L85.764 177.773
L85.8384 178.59
L85.9128 177.225
L85.9872 173.008
L86.4336 214.506
L86.508 211.655
L86.5824 212.303
L86.7312 219.094
L86.8056 226.823
L86.88 226.594
L86.9544 216.334
L87.0288 217.988
L87.1032 225.799
L87.252 216.545
L87.3264 219.193
L87.4752 214.524
L87.624 221.263
L87.9216 208.467
L87.996 209.996
L88.2936 245.442
L88.368 252.108
L88.5168 244.249
L88.5912 248.384
L88.8144 267.737
L88.8888 270.156
L89.1864 224.52
L89.3352 191.995
L89.484 197.343
L89.6328 186.655
L89.7072 190.206
L89.856 177.955
L89.9304 170.269
L90.0792 181.584
L90.228 173.466
L90.7488 215.616
L90.8976 206.873
L91.0464 219.297
L91.1952 207.296
L91.4184 220.52
L91.6416 232.538
L91.716 228.676
L91.8648 218.671
L92.0136 229.682
L92.088 224.844
L92.2368 242.051
L92.5344 272.757
L92.6088 273.09
L92.7576 274.818
L93.2784 214.765
L93.948 152.916
L94.3944 173.907
L94.5432 178.728
L94.8408 206.346
L94.9152 208.095
L95.064 221.289
L95.1384 215.496
L95.2128 220.632
L95.3616 241.632
L95.5104 231.89
L95.6592 244.919
L95.8824 257.87
L96.0312 263.512
L96.4776 233.169
L96.552 234.573
L96.7008 229.881
L96.8496 236.236
L96.924 235.648
L96.9984 236.309
L97.2216 208.087
L97.296 208.419
L97.4448 200.22
L97.5936 212.424
L97.668 209.867
L97.8912 192.5
L98.04 191.247
L98.2632 177.799
L98.3376 181.031
L98.5608 191.921
L99.0072 207.119
L99.0816 207.037
L99.156 205.97
L99.3048 207.123
L99.4536 215.534
L99.7512 239.783
L99.8256 240.72
L99.9 238.832
L100.049 226.002
L100.198 230.11
L100.644 214.765
L100.718 218.17
L100.793 217.211
L100.867 214.839
L101.388 239.009
L101.686 263.193
L101.76 261.089
L101.909 242.172
L102.206 193.027
L102.43 181.169
L102.504 183.454
L102.653 174.615
L102.876 183.998
L103.099 179.808
L103.248 171.617
L103.62 196.742
L103.769 214.804
L104.066 256.065
L104.141 251.46
L104.215 253.784
L104.513 292.37
L104.587 289.48
L105.108 198.838
L105.182 200.656
L105.257 200.674
L105.554 180.421
L105.629 182.249
L106.15 225.531
L106.224 223.729
L106.373 219.271
L106.522 234.823
L106.596 231.579
L106.745 222.71
L106.819 222.144
L106.968 212.009
L107.042 214.364
L107.414 174.011
L107.489 172.706
L107.786 201.844
L107.861 204.471
L107.935 200.937
L108.01 201.65
L108.382 233.868
L108.456 231.372
L108.605 234.383
L108.679 231.942
L108.902 219.319
L109.2 236.322
L109.274 234.339
L109.423 219.405
L109.498 221.107
L109.646 231.475
L109.87 281.674
L109.944 281.203
L110.093 266.67
L110.465 204.57
L110.688 198.565
L111.06 152.359
L111.506 181.601
L111.655 187.692
L111.878 205.905
L112.027 207.711
L112.25 225.328
L112.325 225.328
L112.548 242.413
L112.697 251.205
L112.846 246.651
L113.069 235.903
L113.143 232.525
L113.218 233.946
L113.292 234.033
L113.441 225.479
L113.738 199.74
L114.259 240.698
L114.408 230.335
L114.557 234.348
L114.631 235.005
L114.854 218.576
L115.003 206.402
L115.078 208.186
L115.152 206.311
L115.226 209.184
L115.301 209.046
L115.673 176.598
L115.747 176.257
L115.822 175.142
L115.896 170.896
L116.194 192.669
L116.417 215.271
L116.491 214.761
L116.566 215.815
L117.012 243.42
L117.086 243.891
L117.161 245.74
L117.31 251.758
L117.905 200.077
L117.979 200.246
L118.202 207.689
L118.351 222.611
L118.5 246.267
L118.574 243.433
L118.723 231.069
L118.798 234.516
L119.021 219.608
L119.095 226.576
L119.17 225.038
L119.393 206.674
L119.542 193.528
L119.616 194.729
L119.69 197.174
L119.839 192.703
L119.914 195.887
L119.988 195.481
L120.137 180.491
L120.211 182.448
L120.36 172.827
L120.434 174.857
L120.732 199.533
L120.881 214.277
L121.104 247.723
L121.178 249.338
L121.476 262.208
L122.146 217.167
L122.294 217.932
L122.369 216.848
L122.443 217.396
L122.592 223.518
L122.741 237.821
L122.964 220.286
L123.038 223.63
L123.262 210.925
L123.336 212.636
L123.41 211.331
L123.708 192.867
L123.782 188.876
L123.857 189.938
L123.931 191.58
L124.229 180.879
L124.378 175.039
L124.526 182.067
L124.824 216.848
L125.196 250.22
L125.419 245.321
L125.568 231.937
L125.717 210.8
L125.791 210.212
L125.94 205.771
L126.163 219.63
L126.238 220.904
L126.386 211.802
L126.61 227.112
L127.056 267.923
L127.13 263.841
L127.354 252.963
L127.726 189.252
L128.023 171.073
L128.246 182.206
L128.544 162.122
L128.618 165.474
L129.065 210.929
L129.139 214.731
L129.437 246.107
L129.511 246.284
L129.734 228.304
L129.809 226.581
L129.958 238.508
L130.106 244.928
L130.181 246.25
L130.33 238.068
L130.404 239.346
L130.553 240.733
L130.776 235.722
L130.999 224.529
L131.222 215.137
L131.371 220.96
L131.52 229.034
L131.594 227.255
L131.818 204.06
L132.041 182.892
L132.115 181.985
L132.338 184.284
L132.562 178.145
L132.71 185.916
L133.008 204.492
L133.38 251.11
L133.975 220.593
L134.124 205.97
L134.273 220.874
L134.347 211.651
L134.422 214.027
L134.496 218.848
L134.57 217.668
L134.645 212.454
L134.794 216.308
L134.942 207.106
L135.314 239.679
L135.389 236.607
L135.463 230.33
L135.538 232.966
L135.835 243.303
L136.058 227.026
L136.282 201.227
L136.43 191.982
L136.505 197.196
L136.579 195.174
L136.802 172.762
L136.877 168.274
L136.951 168.425
L137.249 185.381
L137.621 253.041
L137.77 259.741
L137.844 258.445
L138.216 236.188
L138.514 200.427
L138.588 200.198
L138.811 182.119
L138.96 187.817
L139.258 213.348
L139.332 217.694
L139.406 217.249
L139.481 215.5
L139.704 252.436
L139.853 265.638
L139.927 258.389
L140.002 258.588
L140.076 259.685
L140.15 259.076
L140.225 260.203
L140.299 259.719
L140.448 244.958
L140.969 151.266
L141.043 153.966
L141.49 185.333
L141.862 249.524
L142.085 264.489
L142.382 247.161
L142.68 174.991
L142.754 173.479
L142.829 176.149
L142.978 201.365
L143.201 232.261
L143.35 231.739
L143.722 239.182
L143.796 238.737
L144.242 210.718
L144.317 212.325
L144.54 207.24
L144.838 197.494
L144.912 197.015
L145.21 217.327
L145.656 176.179
L145.879 198.976
L146.251 271.405
L146.474 240.582
L146.846 187.951
L147.07 200.786
L147.442 256.138
L147.516 254.246
L147.665 234.192
L147.888 208.89
L148.037 198.561
L148.334 213.4
L148.409 212.169
L148.706 201.132
L148.781 198.57
L149.153 214.981
L149.227 215.176
L149.302 212.256
L149.45 217.496
L149.599 209.404
L149.674 211.072
L149.822 221.492
L149.897 220.736
L149.971 220.844
L150.12 204.298
L150.418 174.46
L150.715 206.32
L151.013 245.066
L151.31 255.499
L151.534 261.504
L151.608 260.812
L151.682 258.769
L151.757 259.918
L151.831 259.788
L152.203 219.517
L152.501 179.03
L152.65 173.095
L152.947 181.968
L153.394 219.496
L153.468 215.016
L153.766 202.834
L153.84 203.546
L153.914 206.13
L153.989 203.94
L154.063 204.104
L154.286 214.515
L154.435 211.944
L154.51 213.007
L154.733 235.117
L154.807 231.242
L154.956 213.772
L155.179 221.695
L155.402 243.995
L155.551 253.524
L155.7 244.293
L155.774 244.807
L155.998 238.171
L156.072 242.223
L156.444 214.532
L156.89 171.108
L157.114 184.551
L157.337 203.767
L157.486 194.807
L157.932 210.121
L158.081 201.231
L158.304 219.345
L158.527 245.748
L158.676 248.919
L158.75 246.738
L158.825 247.39
L158.899 246.336
L159.122 236.387
L159.271 220.58
L159.494 190.85
L159.718 218.498
L159.792 217.712
L160.015 198.319
L160.164 203.46
L160.387 223.66
L160.462 223.98
L160.61 218.61
L160.834 191.42
L160.908 192.997
L160.982 198.298
L161.354 250.276
L161.429 251.771
L161.503 249.179
L162.247 188.569
L162.322 193.736
L162.396 191.217
L162.545 177.942
L162.619 179.095
L162.768 189.07
L163.066 222.442
L163.214 213.197
L163.512 243.411
L163.586 253.944
L163.661 252.825
L163.884 241.791
L164.033 247.943
L164.107 246.604
L164.33 232.598
L164.554 207.59
L164.628 207.789
L164.702 206.389
L164.926 198.816
L165 197.732
L165.223 179.57
L165.595 211.824
L165.744 201.144
L165.818 204.065
L166.116 232.737
L166.488 209.223
L166.562 213.552
L166.786 233.03
L167.232 208.843
L167.53 235.622
L167.604 233.294
L167.753 230.663
L167.902 237.065
L167.976 235.549
L168.05 240.037
L168.125 237.769
L168.497 200.298
L168.646 195.511
L168.794 196.241
L168.869 196.086
L168.943 187.925
L169.166 205.106
L169.241 203.235
L169.538 217.483
L169.613 215.487
L169.687 213.383
L169.762 215.392
L169.91 212.515
L169.985 213.167
L170.059 210.687
L170.208 215.591
L170.357 209.024
L170.506 225.777
L170.803 210.13
L170.952 222.027
L171.026 216.735
L171.473 250.786
L171.622 240.379
L171.696 239.368
L171.845 220.118
L172.068 190.897
L172.217 204.812
L172.366 197.995
L172.44 199.836
L172.514 198.773
L172.961 217.461
L173.035 208.601
L173.11 209.193
L173.184 213.893
L173.258 212.666
L173.333 205.508
L173.556 229.155
L173.63 224.883
L173.705 224.589
L173.854 206.959
L174.002 219.725
L174.077 214.416
L174.151 216.727
L174.374 224.857
L174.449 229.674
L174.523 228.451
L174.821 182.767
L174.895 183.493
L175.267 224.209
L175.342 230.421
L175.416 229.57
L175.639 238.361
L175.714 246.72
L175.788 244.44
L175.937 220.783
L176.011 219.5
L176.086 204.449
L176.16 205.395
L176.309 229.021
L176.383 225.833
L176.458 226.101
L176.532 227.751
L176.681 206.609
L176.83 221.297
L176.978 212.398
L177.053 213.107
L177.276 221.133
L177.35 217.422
L177.574 194.971
L177.722 187.308
L177.797 187.061
L178.094 215.547
L178.318 222.835
L178.541 202.039
L178.615 202.363
L178.69 204.441
L178.838 225.838
L179.062 262.022
L179.136 260
L179.731 188.673
L179.806 197.373
L179.88 196.198
L179.954 192.595
L180.178 206.631
L180.252 202.76
L180.698 254.751
L180.773 249.33
L180.847 248.142
L181.368 196.915
L181.442 197.032
L181.517 195.593
L181.591 190.919
L181.666 191.528
L181.74 194.811
L181.814 191.576
L181.889 193.541
L182.112 224.166
L182.186 222.204
L182.484 196.401
L182.707 206.052
L182.782 213.297
L182.93 193.105
L183.005 194.82
L183.302 241.282
L183.526 265.033
L183.6 265.292
L183.898 238.819
L183.972 236.884
L184.046 237.726
L184.121 239.044
L184.195 237.778
L185.162 181.268
L185.237 181.424
L185.386 186.621
L185.683 203.058
L185.832 198.133
L185.906 198.911
L186.204 217.651
L186.278 217.033
L186.427 221.448
L186.502 218.662
L186.576 219.142
L186.799 230.054
L186.874 229.721
L187.022 232.65
L187.246 220.965
L187.543 189.321
L188.287 260.903
L188.436 248.816
L188.882 194.099
L188.957 192.915
L189.031 195.114
L189.403 227.721
L189.626 236.78
L189.775 210.839
L190.073 104.597
L190.147 104.614
L190.296 136.319
L190.966 348.184
L191.114 314.367
L191.561 182.318
L191.635 182.56
L191.784 185.821
L191.933 173.492
L192.156 147.896
L192.305 165.742
L192.528 194.535
L192.826 170.036
L192.974 196.989
L193.346 293.186
L193.421 296.137
L193.495 294.69
L193.718 271.932
L194.016 242.578
L194.09 241.994
L194.165 239.735
L194.462 206.108
L194.909 154.558
L195.206 133.575
L195.653 186.094
L196.025 234.646
L196.099 235.342
L196.174 235.061
L196.248 238.793
L196.397 261.953
L196.769 349.679
L196.843 348.405
L196.992 311.741
L197.513 125.389
L197.587 124.65
L197.736 142.103
L198.034 179.022
L198.257 191.338
L198.48 179.143
L198.629 201.062
L199.075 319.327
L199.15 316.571
L199.373 264.108
L199.894 117.198
L199.968 117.272
L200.117 143.529
L200.563 249.075
L200.861 264.316
L200.935 263.435
L201.158 245.023
L201.456 213.141
L201.53 213.253
L201.977 225.151
L202.126 216.986
L202.423 177.989
L202.721 140.911
L202.795 144.695
L203.018 191.615
L203.39 282.913
L203.465 285.557
L203.614 278.809
L203.986 240.884
L204.432 184.374
L204.655 157.884
L204.73 158.1
L204.878 172.399
L205.325 238.737
L205.548 244.085
L205.697 248.384
L205.846 241.04
L206.143 216.554
L206.218 218.969
L206.59 249.062
L206.738 241.256
L206.887 209.862
L207.259 128.296
L207.408 162.239
L207.78 258.54
L208.078 222.317
L208.152 222.671
L208.226 223.302
L208.301 221.012
L208.598 180.516
L208.822 232.197
L209.119 296.267
L209.194 293.061
L209.491 141.563
L209.566 148.281
L210.086 242.504
L210.161 241.238
L210.384 225.254
L210.458 226.533
L211.054 202.976
L211.5 221.906
L211.723 239.947
L211.798 238.72
L211.946 228.49
L212.393 204.272
L212.467 204.471
L212.839 169.125
L212.988 184.132
L213.434 260.121
L213.732 285.289
L213.806 283.548
L214.476 197.209
L214.774 153.244
L214.848 148.717
L215.369 186.405
L215.443 185.389
L215.592 175.821
L215.666 179.173
L215.815 207.866
L216.113 253.291
L216.262 258.955
L216.559 239.925
L216.857 209.296
L216.931 206.644
L217.006 207.348
L217.303 216.217
L217.452 226.563
L217.824 270.165
L217.898 263.404
L218.27 227.302
L218.419 234.508
L218.494 233.056
L218.717 188.28
L218.94 158.441
L219.014 162.684
L219.386 207.612
L219.461 208.182
L219.61 199.542
L219.907 155.681
L219.982 156.091
L220.205 189.092
L220.577 267.832
L220.726 275.22
L220.874 273.725
L221.023 259.793
L221.321 192.971
L221.47 166.356
L221.544 167.25
L221.693 187.804
L222.214 296.828
L222.288 296.979
L222.362 293.744
L222.66 229.993
L223.106 151.763
L223.255 144.54
L223.33 144.66
L223.404 147.188
L223.627 177.933
L224.148 224.857
L224.222 225.639
L224.669 210.113
L224.743 210.221
L224.966 229.03
L225.487 293.091
L225.562 286.274
L226.008 187.126
L226.231 201.529
L226.306 201.106
L226.752 185.294
L226.826 185.584
L226.975 193.278
L227.198 221.5
L227.347 237.169
L227.422 235.782
L228.091 198.237
L228.24 191.649
L228.389 181.26
L228.463 181.177
L228.686 208.553
L229.058 250.138
L229.133 253.01
L229.282 245.105
L229.579 229.609
L229.654 232.361
L229.951 256.652
L230.1 243.416
L230.695 179.458
L230.844 176.594
L230.993 182.538
L231.29 213.681
L231.514 233.186
L231.588 232.918
L231.811 207.344
L232.183 171.086
L232.258 170.697
L232.332 173.682
L232.555 213.914
L232.927 277.284
L233.076 268.256
L233.299 249.386
L233.522 241.735
L233.597 243.398
L233.746 230.387
L234.192 175.44
L234.266 174.265
L234.341 175.605
L234.564 194.474
L234.936 245.662
L235.01 244.245
L235.308 198.457
L235.457 211.43
L235.531 210.765
L235.754 187.804
L235.829 188.012
L235.978 190.703
L236.275 218.856
L236.573 244.958
L236.647 247.692
L236.722 247.347
L237.019 227.479
L237.094 229.903
L237.168 238.033
L237.317 223.405
L237.466 191.723
L237.54 195.403
L237.689 209.754
L237.912 249.442
L238.135 198.44
L238.284 222.904
L238.358 217.18
L238.582 187.117
L238.656 181.022
L238.73 191.761
L238.954 262.147
L239.028 266.139
L239.102 261.404
L239.698 125.346
L239.846 127.795
L239.921 123.311
L240.07 152.756
L240.516 332.684
L240.59 342.197
L241.186 214.303
L241.334 236.201
L241.855 133.498
L242.004 157.21
L242.302 217.245
L242.748 272.926
L242.897 251.377
L243.269 186.876
L243.492 205.223
L243.566 203.801
L243.79 167.911
L243.864 174.183
L244.087 248.444
L244.162 243.014
L244.459 206.657
L244.534 209.279
L244.757 229.894
L244.831 227.147
L244.906 225.021
L244.98 225.972
L245.129 227.63
L245.278 237.666
L245.426 225.963
L245.798 179.838
L245.873 175.039
L245.947 175.674
L246.617 249.274
L246.84 262.216
L246.914 261.309
L247.138 253.054
L247.212 249.891
L247.733 145.248
L247.807 149.641
L247.956 165.211
L248.03 158.402
L248.105 160.264
L248.551 226.352
L249.072 247.381
L249.295 281.682
L249.593 198.444
L249.816 138.828
L250.188 224.827
L250.262 211.5
L250.337 187.567
L250.411 190.297
L250.709 256.717
L250.932 288.21
L251.378 201.836
L251.453 194.837
L251.527 195.896
L251.676 200.419
L251.825 203.788
L252.048 179.886
L252.494 257.136
L252.569 257.827
L252.718 235.406
L253.164 192.012
L253.387 177.518
L253.462 178.935
L253.759 183.096
L253.834 188.327
L253.908 186.914
L254.131 153.607
L254.206 139.213
L254.28 146.82
L254.578 250.85
L254.875 324.053
L255.024 329.09
L255.545 228.283
L255.842 201.853
L256.066 210.636
L256.14 211.029
L256.289 190.103
L256.512 158.009
L256.661 150.804
L256.81 136.141
L256.884 137.532
L257.107 171.073
L257.405 201.093
L257.702 225.6
L258 268.454
L258.149 262.985
L258.372 274.019
L258.521 281.622
L258.595 279.98
L258.67 274.083
L259.042 185.899
L259.116 185.027
L259.265 188.889
L259.339 190.47
L259.562 206.514
L259.934 245.563
L260.009 244.064
L260.306 204.199
L260.455 200.475
L260.53 199.499
L260.604 196.025
L260.678 197.252
L260.902 204.397
L260.976 201.175
L261.125 168.969
L261.497 227.354
L261.571 224.65
L261.943 163.388
L262.092 243.36
L262.166 278.883
L262.241 272.671
L262.687 202.125
L262.762 203.715
L263.134 274.623
L263.208 269.051
L263.357 246.474
L263.58 259.236
L263.729 240.336
L264.175 143.114
L264.25 143.952
L264.324 146.829
L264.547 178.037
L264.696 195.135
L264.994 237.549
L265.142 256.004
L265.217 250.552
L265.663 164.031
L265.738 164.558
L265.886 190.772
L266.11 225.414
L266.258 236.672
L266.482 247.9
L266.556 250.842
L266.705 238.392
L267.151 189.891
L267.3 205.486
L267.672 278.676
L267.746 279.047
L267.97 251.511
L268.342 173.293
L268.565 163.349
L268.862 197.814
L268.937 194.081
L269.011 194.652
L269.234 224.991
L269.309 224.481
L269.532 181.743
L269.606 184.953
L269.83 219.867
L269.904 217.254
L269.978 209.91
L270.053 215.115
L270.276 239.329
L270.648 276.783
L270.722 275.509
L271.094 176.978
L271.169 179.164
L271.541 188.517
L271.764 216.705
L271.987 232.689
L272.21 241.908
L272.285 240.789
L272.582 224.101
L272.731 219.384
L272.806 219.276
L272.88 217.893
L273.103 199.373
L273.252 210.67
L273.401 201.499
L273.55 185.942
L273.698 192.621
L273.773 192.565
L273.847 192.885
L273.996 181.7
L274.07 173.272
L274.219 206.298
L274.442 238.392
L274.517 243.696
L274.889 309.322
L274.963 305.684
L275.633 123.026
L275.707 124.572
L276.302 232.257
L276.377 234.08
L276.526 225.794
L276.749 276.42
L276.823 272.308
L276.972 229.32
L277.195 158.51
L277.27 149.067
L277.344 149.158
L277.567 175.22
L277.716 202.708
L278.014 332.788
L278.088 322.014
L278.386 204.708
L278.758 183.653
L278.832 186.145
L278.981 218.852
L279.204 259.227
L279.278 260.614
L279.576 236.37
L280.097 149.87
L280.543 198.414
L280.692 204.648
L281.287 244.068
L281.585 226.218
L281.659 223.837
L281.734 225.427
L282.031 243.455
L282.106 244.651
L282.254 237.994
L282.329 238.309
L282.552 234.283
L282.924 187.005
L282.998 188.215
L283.37 205.08
L283.594 218.744
L283.668 214.93
L283.742 215.301
L283.891 220.818
L283.966 219.962
L284.114 228.378
L284.189 226.581
L284.635 200.885
L284.71 201.65
L284.784 201.996
L284.858 201.637
L285.007 205.65
L285.156 193.356
L285.23 194.565
L285.9 225.712
L285.974 225.479
L286.198 217.733
L286.272 218.874
L286.421 232.3
L286.644 252.164
L286.793 261.162
L287.016 286.585
L287.537 160.29
L287.686 150.683
L288.058 191.679
L288.504 233.868
L288.578 235.605
L288.653 234.668
L288.802 241.286
L288.876 240.249
L289.174 226.291
L289.248 228.365
L289.471 217.28
L289.769 200.989
L289.843 198.954
L289.918 199.438
L290.215 210.381
L290.513 215.638
L290.587 215.547
L290.81 211.158
L290.959 204.713
L291.108 206.955
L291.554 251.036
L291.629 251.364
L291.926 255.952
L292.001 255.97
L292.745 180.685
L293.191 163.91
L293.414 167.159
L293.786 190.919
L294.233 274.9
L294.456 322.472
L295.126 250.57
L295.349 154.221
L295.572 96.1469
L295.646 95.257
L295.721 98.6957
L295.944 137.273
L296.39 239.808
L296.688 267.344
L296.837 265.046
L297.06 270.554
L297.134 267.059
L297.804 187.407
L298.102 180.504
L298.25 201.676
L298.474 252.691
L298.548 253.775
L298.697 236.244
L299.069 181.091
L299.292 178.668
L299.366 178.953
L299.515 193.248
L299.962 234.555
L300.185 244.578
L300.408 243.943
L300.706 250.336
L300.854 254.285
L301.003 249.338
L301.822 175.164
L302.119 130.404
L302.194 128.832
L302.417 142.608
L302.566 164.088
L303.31 288.707
L303.384 289.069
L303.607 281.233
L304.128 232.728
L304.426 209.214
L304.723 191.9
L305.095 172.723
L305.17 172.732
L305.393 183
L306.36 236.56
L306.658 240.366
L306.732 239.666
L306.955 228.071
L307.476 186.132
L307.55 185.882
L307.625 186.444
L307.774 195.68
L308.443 257.076
L308.592 258.955
L308.666 258.078
L308.741 258.972
L308.89 248.621
L309.559 161.681
L309.634 162.264
L309.782 169.535
L310.378 225.799
L310.675 243.887
L311.494 223.427
L311.717 215.919
L311.866 211.387
L312.312 200.423
L312.386 200.98
L312.758 211.076
L313.056 201.533
L313.13 203.309
L313.428 221.064
L313.577 220.887
L313.651 219.82
L313.8 227.384
L314.098 215.958
L314.172 215.565
L314.321 219.764
L314.544 230.166
L314.842 218.882
L314.916 218.99
L315.065 222.429
L315.288 210.864
L315.437 206.704
L315.66 210.744
L315.734 211.007
L316.106 218.679
L316.255 220.731
L316.33 219.651
L316.478 213.266
L316.553 215.612
L316.627 214.852
L316.85 207.309
L317.074 215.478
L317.297 208.164
L317.371 207.18
L317.52 210.169
L317.892 224.153
L318.19 220.995
L318.264 222.701
L318.413 228.918
L318.71 215.072
L318.859 211.966
L319.008 214.943
L319.082 214.286
L319.231 210.264
L319.529 223.462
L319.678 225.751
L320.198 202.609
L320.422 206.635
L320.57 202.803
L320.942 215.409
L321.166 221.643
L321.314 221.893
L321.389 223.323
L321.612 232.015
L321.91 217.336
L321.984 215.327
L322.207 227.609
L322.579 206.009
L322.654 206.493
L322.877 210.368
L323.1 206.29
L323.918 230.685
L324.216 224.585
L324.514 207.249
L324.588 207.512
L324.737 210.398
L324.886 206.048
L324.96 206.752
L325.109 202.752
L325.183 203.49
L325.406 210.359
L325.63 222.334
L325.704 221.842
L325.778 220.978
L325.927 225.79
L326.076 219.66
L326.448 227.751
L326.597 224.969
L326.671 225.803
L326.82 223.012
L326.894 223.686
L327.266 202.155
L327.341 202.959
L327.49 209.219
L327.564 208.355
L327.787 204.579
L328.903 238.914
L329.35 193.947
L329.424 196.894
L329.498 196.125
L329.647 191.515
L329.722 191.653
L329.796 193.464
L330.242 225.738
L330.317 226.308
L330.466 231.842
L330.54 231.125
L330.614 231.501
L330.763 235.506
L330.912 231.324
L330.986 233.324
L331.061 234.603
L331.21 229.35
L331.284 229.769
L331.358 230.006
L331.582 220.822
L332.028 183.376
L332.177 190.72
L332.326 201.373
L332.474 199.836
L332.623 203.914
L332.772 211.819
L332.846 211.474
L332.921 213.824
L333.144 229.428
L333.293 232.223
L333.739 217.902
L333.962 234.577
L334.186 247.908
L334.26 246.479
L334.483 210.571
L334.706 182.672
L335.078 197.524
L335.227 204.531
L335.525 219.353
L335.748 212.765
L335.822 213.448
L335.971 221.492
L336.12 232.486
L336.194 229.803
L336.269 229.985
L336.343 230.551
L336.641 216.342
L336.79 207.413
L336.864 207.637
L337.162 231.333
L337.236 229.989
L337.385 217.954
L337.608 204.212
L337.906 194.025
L338.054 205.711
L338.352 223.613
L338.65 235.406
L338.724 235.056
L338.798 235.152
L338.873 237.113
L338.947 235.679
L339.468 198.79
L339.691 207.188
L339.84 200.233
L340.063 210.692
L340.361 228.088
L340.435 227.099
L340.51 228.507
L340.584 227.842
L340.807 221.686
L341.254 199.771
L341.328 200.846
L341.477 196.885
L341.551 198.038
L341.849 225.596
L342.072 245.36
L342.221 242.431
L342.295 242.642
L342.37 240.037
L342.816 197.265
L342.89 198.289
L343.039 203.045
L343.188 208.307
L343.411 227.367
L343.634 252.095
L343.783 256.082
L343.858 252.47
L344.527 175.199
L344.825 183.432
L345.271 210.817
L345.42 201.192
L345.494 202.03
L345.643 213.625
L346.015 250.846
L346.09 252.349
L346.313 240.755
L346.759 201.391
L346.834 202.739
L347.131 220.826
L347.726 284.797
L347.801 284.883
L347.875 279.596
L348.694 148.134
L348.768 147.676
L348.991 150.851
L349.438 182.724
L350.33 265.776
L350.405 265.638
L350.554 261.797
L351.893 190.077
L352.414 208.031
L352.562 210.216
L352.786 207.828
L352.86 207.633
L353.158 216.39
L353.455 224.909
L353.53 224.39
L353.604 224.131
L353.902 220.157
L353.976 220.433
L354.05 220.17
L354.125 220.762
L354.274 222.671
L354.497 218.671
L354.571 219.047
L354.646 220.075
L355.018 213.219
L355.092 210.251
L355.166 210.895
L355.241 212.502
L355.315 212.061
L355.464 213.698
L355.538 214.377
L355.613 213.992
L355.836 209.875
L355.91 207.624
L355.985 208.203
L356.134 216.48
L356.208 216.182
L356.506 204.441
L356.803 208.752
L356.878 208.692
L356.952 208.463
L357.398 241.416
L357.473 240.897
L357.547 240.785
L357.622 242.102
L357.77 233.92
L358.217 196.068
L358.44 185.139
L358.589 194.319
L358.886 213.31
L359.11 229.79
L359.184 234.426
L359.258 233.856
L359.407 228.628
L359.854 243.809
L359.928 241.333
L360.3 193.109
L360.523 165.79
L360.672 169.747
L360.895 202.561
L361.267 252.069
L361.416 262.605
L361.639 256.324
L361.788 245.964
L362.458 156.229
L362.532 157.111
L362.681 167.414
L363.053 230.339
L363.35 266.735
L363.425 265.318
L364.02 204.704
L364.318 177.104
L364.466 186.491
L364.913 225.838
L365.285 240.927
L365.359 239.649
L365.954 205.348
L366.029 203.728
L366.103 206.121
L366.55 239.86
L366.698 226.054
L366.922 210.627
L367.219 199.602
L367.517 181.648
L367.889 211.163
L368.112 215.029
L368.41 216.316
L368.484 216.208
L368.782 221.466
L369.154 243.252
L369.451 230.421
L369.823 211.046
L370.121 179.441
L370.195 183.89
L370.27 183.83
L370.344 185.368
L370.79 221.008
L371.237 234.81
L371.311 233.359
L371.386 234.037
L371.683 264.286
L372.502 194.513
L372.799 162.303
L372.874 161.681
L372.948 162.688
L373.394 192.949
L373.469 192.889
L373.543 191.606
L373.618 192.872
L373.766 203.227
L374.138 235.428
L374.362 231.838
L374.659 245.524
L374.882 276.399
L375.106 295.428
L375.254 277.66
L375.478 232.153
L375.924 133.571
L376.222 119.129
L376.37 135.156
L376.668 227.462
L376.966 325.072
L377.04 330.377
L377.189 292.737
L377.561 172.481
L377.635 170.477
L377.71 172.166
L378.974 241.623
L379.272 232.464
L379.644 220.973
L379.793 204.583
L380.09 156.601
L380.165 156.852
L380.388 179.782
L381.058 271.69
L381.132 273.016
L381.206 271.578
L381.653 224.049
L381.95 196.617
L382.248 190.539
L382.62 205.192
L382.843 196.993
L383.141 178.486
L383.438 198.038
L383.885 238.063
L384.034 239.273
L384.108 238.69
L384.48 228.257
L384.554 227.712
L384.629 228.728
L384.926 253.041
L385.075 264.782
L385.373 251.308
L386.042 159.491
L386.191 151.495
L386.266 152.514
L386.489 170.598
L387.233 234.417
L387.53 246.915
L387.605 246.651
L387.679 246.682
L387.828 241.735
L388.126 223.928
L388.572 187.826
L388.646 190.323
L389.242 241.368
L389.316 242.811
L389.39 242.292
L389.465 242.163
L389.911 256.013
L389.986 255.036
L390.283 204.177
L390.655 152.242
L390.804 149.231
L390.878 150.423
L391.176 176.369
L391.846 245.865
L391.92 243.429
L391.994 244.496
L392.218 258.432
L392.292 257.957
L392.515 234.331
L392.738 218.787
L393.11 229.618
L393.408 217.751
L393.706 199.049
L393.78 199.166
L393.854 198.851
L393.929 197.641
L394.003 197.987
L394.673 228.214
L394.896 236.244
L395.119 214.873
L395.417 188.928
L395.566 185.355
L395.64 186.573
L396.607 238.655
L396.905 225.328
L396.979 226.162
L397.202 243.506
L397.277 237.061
L397.5 171.051
L397.574 176.123
L397.946 252.133
L398.021 253.084
L398.17 248.652
L399.062 172.451
L399.137 173.816
L399.286 177.324
L399.36 176.201
L399.434 176.749
L399.583 193.438
L399.881 225.902
L399.955 227.877
L400.03 225.505
L400.178 230.404
L400.327 243.817
L400.699 292.629
L400.774 288.02
L401.071 218.766
L401.369 156.752
L401.518 144.509
L401.592 144.609
L402.038 181.476
L402.782 256.79
L403.08 269.768
L403.154 269.694
L403.303 265.612
L403.675 229.345
L404.345 162.895
L404.419 168.04
L404.642 204.259
L404.866 134.984
L405.238 303.308
L405.312 301.057
L405.535 269.435
L405.982 173.773
L406.279 157.884
L406.577 180.879
L407.47 267.768
L407.544 264.929
L407.99 234.784
L408.437 198.941
L408.511 198.483
L408.66 201.378
L409.106 175.026
L409.181 177.048
L409.404 202.946
L409.925 270.113
L410.148 241.273
L410.371 209.724
L410.818 182.806
L411.19 198.125
L411.413 216.792
L411.487 216.64
L411.562 215.115
L411.636 215.305
L411.71 214.964
L411.785 214.022
L411.859 215.478
L411.934 215.271
L412.082 208.221
L412.306 217.042
L412.38 216.493
L412.454 217.159
L412.678 224.935
L412.975 248.876
L413.422 298.383
L413.496 297.679
L413.719 220.273
L414.091 122.935
L414.166 123.985
L414.24 118.585
L414.314 119.259
L414.538 158.597
L414.91 221.362
L415.058 229.376
L415.207 223.976
L415.43 251.053
L415.728 276.835
L415.802 275.15
L416.323 216.01
L416.77 204.233
L416.993 204.95
L417.216 212.191
L417.439 205.784
L417.737 209.02
L417.811 211.016
L417.886 210.89
L417.96 210.052
L418.258 219.293
L418.332 219.422
L418.481 216.696
L418.778 205.197
L418.853 206.298
L419.225 244.928
L419.299 246.146
L419.374 246.06
L419.448 250.691
L419.522 248.418
L419.671 218.472
L419.894 145.416
L420.043 137.282
L420.118 141.032
L420.49 222.412
L420.638 242.189
L420.787 234.806
L421.085 257.659
L421.308 298.681
L421.606 250.885
L421.754 198.419
L421.829 203.788
L421.978 181.929
L422.126 150.458
L422.573 226.715
L422.647 228.576
L422.796 221.509
L423.094 185.731
L423.168 186.232
L423.242 188.31
L423.54 228.451
L423.614 225.6
L423.912 203.611
L424.061 208.009
L424.135 208.35
L424.284 195.96
L424.433 186.53
L424.507 186.819
L424.656 211.284
L424.954 291.575
L425.028 294.189
L425.102 292.953
L425.326 272.1
L425.921 141.433
L426.144 175.458
L426.218 175.432
L426.442 213.863
L426.516 213.681
L426.59 212.018
L426.814 199.2
L426.962 213.78
L427.186 290.599
L427.26 277.833
L427.483 222.416
L427.632 236.296
L427.706 254.419
L427.781 252.868
L427.93 215.785
L428.004 225.812
L428.153 201.542
L428.302 156.113
L428.376 169.103
L428.45 163.569
L428.599 74.4389
L428.971 264.774
L429.12 224.179
L429.269 320.722
L429.641 144.099
L429.715 137.701
L429.864 181.333
L430.162 309.836
L430.236 306.475
L430.385 321.111
L430.534 294.828
L430.682 255.339
L430.98 155.201
L431.054 155.46
L431.129 165.366
L431.203 164.321
L431.352 143.295
L431.426 140.41
L431.575 107.21
L431.65 113.254
L432.022 250.094
L432.096 246.522
L432.245 254.864
L432.319 253.615
L432.766 221.785
L432.84 225.432
L432.989 234.37
L433.138 229.086
L433.212 231.752
L433.286 231.743
L433.51 208.177
L433.807 176.663
L433.956 181.791
L434.402 231.518
L434.477 230.037
L434.626 261.434
L434.849 305.04
L434.998 266.199
L435.37 175.458
L435.444 174.659
L435.518 177.402
L435.593 177.302
L435.667 173.155
L435.742 176.058
L436.039 146.846
L436.114 148.963
L436.262 231.328
L436.337 230.162
L436.486 205.374
L436.56 202.838
L436.634 203.136
L436.783 241.32
L437.006 309.646
L437.155 262.359
L437.378 183.877
L437.453 182.823
L437.75 229.41
L437.825 225.756
L437.974 216.61
L438.122 217.781
L438.346 244.643
L438.718 181.415
L438.866 178.248
L439.015 191.848
L439.09 186.487
L439.238 228.961
L439.313 223.371
L439.387 212.77
L439.536 241.195
L439.759 202.138
L439.834 208.666
L440.131 285.272
L440.206 281.98
L440.429 248.876
L440.726 188.115
L440.875 165.284
L440.95 165.012
L441.396 211.253
L441.619 236.184
L441.694 238.474
L441.917 204.259
L442.14 168.559
L442.214 167.604
L442.289 169.786
L442.512 228.395
L442.735 271.638
L442.884 264.381
L443.182 194.673
L443.554 257.084
L443.628 249.472
L443.851 223.09
L444 211.595
L444.149 186.824
L444.223 187.251
L444.372 192.682
L444.521 197.926
L444.67 215.21
L444.893 245.433
L444.967 242.655
L445.339 206.19
L445.562 183.463
L445.637 183.648
L445.934 218.131
L446.009 214.303
L446.083 212.58
L446.306 194.855
L446.381 197.585
L446.604 220.956
L446.827 211.076
L446.902 209.888
L446.976 212.502
L447.274 252.816
L447.422 252.259
L447.571 254.233
L447.646 254.177
L447.794 247.036
L448.166 206.415
L448.464 173.907
L448.538 174.08
L448.762 178.754
L448.91 191.053
L449.208 222.3
L449.282 223.28
L449.357 223.008
L449.431 222.498
L449.58 225.928
L449.654 224.516
L449.803 222.325
L449.878 225.54
L449.878 225.54" style="fill:none;stroke:#808080;stroke-linecap:square;"/>
   </g>
  </g>
 </g>
 <defs>
  <clipPath id="p7ff5b81e1d">
   <rect height="345.6" width="446.4" x="72.0" y="43.2"/>
  </clipPath>
 </defs>
</svg>
