<?xml version="1.0" encoding="utf-8" standalone="no"?>
<!DOCTYPE svg PUBLIC "-//W3C//DTD SVG 1.1//EN"
  "http://www.w3.org/Graphics/SVG/1.1/DTD/svg11.dtd">
<!-- Created with matplotlib (http://matplotlib.org/) -->
<svg height="432pt" version="1.1" viewBox="0 0 576 432" width="576pt" xmlns="http://www.w3.org/2000/svg" xmlns:xlink="http://www.w3.org/1999/xlink">
 <defs>
  <style type="text/css">
*{stroke-linecap:butt;stroke-linejoin:round;}
  </style>
 </defs>
 <g id="figure_1">
  <g id="patch_1">
   <path d="
M0 432
L576 432
L576 0
L0 0
z
" style="fill:#ffffff;"/>
  </g>
  <g id="axes_1">
   <g id="line2d_1">
    <path clip-path="url(#p7ff5b81e1d)" d="
M72 136.96
L72.1488 160.415
L72.5208 217.485
L72.744 239.477
L72.9672 276.203
L73.0416 277.251
L73.1904 291.582
L73.4136 249.753
L73.5624 256.953
L73.7112 233.129
L73.7856 234.12
L73.9344 240.203
L74.1576 210.677
L74.232 215.792
L74.3808 227.312
L74.604 208.373
L74.6784 213.776
L74.7528 212.831
L74.976 201.046
L75.0504 194.768
L75.2736 164.643
L75.4224 160.38
L75.4968 166.555
L75.72 204.848
L75.9432 152.904
L76.3152 198.88
L76.6128 271.952
L76.6872 269.049
L76.7616 269.924
L76.836 276.537
L76.9848 244.523
L77.0592 247.495
L77.1336 245.329
L77.2824 213.799
L77.3568 219.755
L77.7288 294.151
L77.8032 289.37
L78.324 195.563
L78.3984 196.404
L78.8448 166.97
L78.9192 166.382
L79.068 171.106
L79.2168 161.486
L79.2912 165.772
L79.3656 165.749
L79.5144 146.061
L79.7376 214.006
L79.812 209.294
L79.8864 212.854
L80.0352 230.203
L80.1096 227.047
L80.2584 250.824
L80.3328 242.253
L80.4072 233.74
L80.4816 237.611
L80.556 254.937
L80.6304 253.105
L80.7792 244.131
L80.928 265.477
L81.0024 264.832
L81.0768 266.514
L81.1512 276.756
L81.2256 273.438
L81.3744 254.879
L81.4488 255.282
L81.5232 250.087
L81.7464 202.117
L81.9696 195.09
L82.044 200.032
L82.1184 198.062
L82.416 173.594
L82.8624 164.539
L83.0112 150.75
L83.532 229.328
L83.6064 221.114
L83.6808 223.522
L83.7552 230.111
L83.8296 228.763
L83.904 232
L84.1272 266.952
L84.276 285.879
L84.4248 282.792
L84.4992 282.366
L84.5736 280.407
L84.7224 265.708
L84.7968 262.517
L85.0944 199.525
L85.1688 200.124
L85.2432 212.635
L85.3176 211.909
L85.6896 112.261
L85.764 118.563
L85.9872 168.698
L86.0616 165.968
L86.136 171.417
L86.2104 169.009
L86.4336 191.047
L86.5824 233.936
L86.8056 306.132
L86.9544 268.219
L87.252 303.275
L87.3264 300.383
L87.4752 263.945
L87.624 212.555
L87.7728 217.428
L87.9216 194.998
L87.996 198.039
L88.0704 197.21
L88.2936 170.357
L88.368 176.232
L88.4424 174.804
L88.5168 171.797
L88.6656 176.428
L88.8144 167.58
L89.112 180.702
L89.5584 295.418
L89.6328 290.706
L90.0792 169.608
L90.3024 93.7027
L90.3768 99.3014
L90.7488 211.253
L90.8232 218.706
L90.8976 215.907
L91.0464 227.945
L91.4184 319.529
L91.4928 315.382
L91.5672 306.27
L91.6416 309.887
L91.8648 335.035
L91.9392 335.15
L92.0136 331.36
L92.088 320.151
L92.6832 110.798
L92.832 101.663
L93.1296 128.666
L93.2784 128.182
L93.5016 102.412
L93.6504 128.528
L94.0224 264.233
L94.2456 283.886
L94.32 287.031
L94.4688 314.484
L94.692 267.839
L94.9152 219.847
L95.2872 273.899
L95.3616 267.067
L95.436 254.349
L95.5104 256.308
L95.5848 266.088
L95.6592 259.314
L95.808 222.508
L95.8824 223.487
L95.9568 222.381
L96.0312 223.406
L96.2544 245.893
L96.4776 212.416
L97.0728 90.9149
L97.3704 77.8282
L97.5192 117.837
L97.7424 230.883
L98.04 349.228
L98.2632 376.231
L98.3376 373.489
L98.5608 322.997
L99.0072 206.034
L99.156 199.998
L99.2304 199.399
L99.3792 181.243
L99.7512 123.459
L99.8256 122.169
L99.9744 137.721
L100.049 137.283
L100.123 135.543
L100.644 279.912
L100.718 276.421
L100.942 253.393
L101.016 251.4
L101.09 258.347
L101.165 253.865
L101.388 219.179
L101.537 206.921
L101.686 214.225
L101.983 207.198
L102.132 188.19
L102.206 190.425
L102.578 218.798
L102.802 198.708
L102.876 204.341
L103.025 244.361
L103.099 243.555
L103.248 252.229
L103.471 238.371
L103.546 238.832
L103.694 259.568
L103.769 257.989
L103.992 233.74
L104.364 171.578
L104.438 174.089
L104.513 183.34
L104.662 149.621
L104.736 156.694
L104.959 193.742
L105.034 198.431
L105.257 232.139
L105.331 230.457
L105.406 229.904
L105.554 246.527
L105.778 192.464
L105.852 195.378
L105.926 197.659
L106.001 196.288
L106.075 199.79
L106.298 239.2
L106.373 238.498
L106.447 238.889
L106.596 257.863
L106.67 252.057
L106.894 184.849
L106.968 187.625
L107.117 193.673
L107.266 219.536
L107.414 237.945
L107.563 237.714
L107.638 239.845
L107.712 237.991
L107.786 245.029
L108.01 225.388
L108.158 185.644
L108.679 243.336
L108.754 243.854
L108.828 237.104
L109.2 168.917
L109.498 152.823
L110.018 249.799
L110.167 220.526
L110.242 224.075
L110.465 259.049
L110.688 278.196
L110.762 275.269
L110.911 247.138
L111.209 173.34
L111.283 173.64
L111.358 175.149
L111.432 173.029
L111.506 177.2
L111.878 242.679
L112.325 183.444
L112.399 186.185
L112.474 191.323
L112.622 163.318
L112.771 142.559
L112.846 145.704
L113.292 241.827
L113.366 238.97
L113.441 231.09
L113.738 248.128
L113.813 246.93
L113.887 252.667
L113.962 251.089
L114.036 250.11
L114.259 277.804
L114.334 280.2
L114.482 301.408
L114.557 297.745
L114.854 202.912
L114.929 187.452
L115.003 189.987
L115.078 200.078
L115.152 198.178
L115.375 189.365
L115.598 158.952
L115.673 157.178
L115.747 148.964
L115.97 177.833
L116.194 151.222
L116.342 159.332
L117.012 252.16
L117.161 244.154
L117.384 271.03
L117.458 273.311
L117.682 299.957
L117.756 293.713
L117.83 289.186
L118.277 197.129
L118.351 196.461
L118.5 200.009
L118.574 203.765
L118.723 241.596
L118.798 230.86
L118.946 184.722
L119.021 185.989
L119.095 189.572
L119.244 169.988
L119.318 173.986
L119.467 181.093
L119.69 174.7
L119.765 175.322
L119.914 161.06
L120.137 196.185
L120.211 194.503
L120.286 197.164
L120.732 241.896
L120.881 263.381
L120.955 265.201
L121.104 278.541
L121.327 255.743
L121.476 262.908
L121.55 258.75
L121.774 222.185
L121.922 215.077
L121.997 220.411
L122.146 255.167
L122.294 234.155
L122.443 245.571
L122.89 128.827
L123.113 118.736
L123.485 204.099
L123.708 268.392
L123.782 273.23
L123.931 251.054
L124.08 229.351
L124.154 229.742
L124.378 269.394
L124.452 260.282
L124.601 271.145
L124.675 269.509
L125.122 206.933
L125.27 209.859
L125.419 201.369
L125.494 202.187
L125.568 202.82
L125.642 205.481
L125.791 198.362
L126.014 179.769
L126.163 140.29
L126.238 146.637
L126.535 207.947
L126.684 237.426
L126.758 233.244
L126.907 201.323
L126.982 209.34
L127.205 239.166
L127.354 253.474
L127.428 259.798
L127.8 210.435
L127.874 209.525
L128.098 174.262
L128.172 176.612
L128.767 278.368
L128.916 251.181
L129.139 227.565
L129.214 227.588
L129.362 242.806
L129.437 240.41
L129.809 197.659
L129.883 198.166
L129.958 200.067
L130.33 154.321
L130.404 156.13
L130.925 185.92
L131.148 216.644
L131.371 255.789
L131.52 261.63
L131.669 251.423
L131.743 253.105
L131.818 258.266
L131.966 244.557
L132.041 248.059
L132.19 256.803
L132.264 253.865
L132.413 242.507
L132.487 242.034
L132.71 252.391
L132.859 242.069
L133.082 198.143
L133.231 154.793
L133.306 159.92
L133.454 175.921
L133.603 171.359
L133.678 175.115
L133.752 170.852
L133.826 172.857
L133.901 171.993
L134.05 150.312
L134.198 173.628
L134.496 225.86
L134.645 238.348
L134.719 236.136
L134.794 238.002
L134.868 244.88
L134.942 244.131
L135.24 224.777
L135.389 217.6
L135.686 277.032
L135.761 280.811
L135.91 267.113
L136.058 248.704
L136.133 250.559
L136.356 220.008
L136.43 221.413
L136.579 229.961
L136.951 139.011
L137.026 144.932
L137.323 205.113
L137.472 197.302
L137.621 201.634
L137.695 201.588
L137.844 196.565
L137.918 196.196
L138.067 205.873
L138.216 188.812
L138.29 190.932
L138.439 216.103
L138.588 218.775
L138.886 279.877
L139.109 265.57
L139.406 211.714
L139.555 196.588
L139.63 198.65
L139.853 225.895
L139.927 226.102
L140.076 211.725
L140.225 191.127
L140.299 191.496
L140.448 211.84
L140.597 200.32
L140.894 242.933
L140.969 238.716
L141.118 214.34
L141.192 217.531
L141.341 225.342
L141.564 218.004
L141.713 224.086
L141.787 217.174
L142.01 176.854
L142.085 177.868
L142.234 174.677
L142.308 174.734
L142.531 193.581
L142.754 223.303
L142.903 214.098
L143.052 220.296
L143.126 217.842
L143.201 222.335
L143.424 269.279
L143.498 263.15
L143.573 270.892
L143.647 263.784
L143.796 232.219
L143.87 232.795
L144.019 248.727
L144.168 225.607
L144.242 228.314
L144.317 234.903
L144.54 218.004
L144.689 220.169
L145.135 144.529
L145.284 156.855
L145.805 228.06
L145.879 226.655
L146.028 208.096
L146.177 208.891
L146.326 164.597
L146.772 229.938
L147.144 282.009
L147.442 233.44
L147.516 230.272
L147.739 240.698
L147.962 256.492
L148.334 223.072
L148.558 196.242
L148.706 192.406
L148.855 200.896
L148.93 198.166
L149.078 181.036
L149.302 198.201
L149.45 184.987
L149.674 158.134
L149.748 163.284
L150.194 242.921
L150.269 246.838
L150.492 217.6
L150.715 224.27
L150.938 245.582
L151.013 236.7
L151.162 246.043
L151.236 244.131
L151.385 226.609
L151.459 227.254
L151.608 233.325
L151.682 231.24
L151.757 227.542
L152.054 183.42
L152.203 171.152
L152.873 260.155
L152.947 253.727
L153.022 255.996
L153.096 252.886
L153.319 260.72
L153.617 211.115
L154.063 122.595
L154.138 124.622
L154.733 214.847
L155.03 283.449
L155.477 298.402
L155.551 298.724
L156.295 176.589
L156.444 151.314
L156.593 166.809
L156.667 163.641
L156.89 115.441
L156.965 111.904
L157.039 113.943
L157.188 137.306
L157.634 265.616
L157.783 272.873
L157.932 268.507
L158.081 276.721
L158.23 264.383
L158.602 232.45
L158.676 232.784
L158.899 185.874
L158.974 186.876
L159.197 202.659
L159.271 203.488
L159.569 222.358
L159.643 222.289
L159.718 221.978
L159.792 220.215
L159.941 195.574
L160.238 219.582
L160.313 219.34
L160.387 221.241
L160.462 217.128
L160.685 182.499
L160.759 183.72
L160.908 170.414
L160.982 179.043
L161.131 162.523
L161.875 268
L161.95 268.692
L162.098 251.227
L162.247 270.178
L162.619 226.056
L162.694 228.325
L162.768 238.244
L162.842 237.68
L162.917 237.461
L163.066 229.316
L163.289 186.116
L163.363 188.386
L163.438 198.892
L163.512 195.01
L163.81 151.74
L164.033 120.452
L164.405 190.632
L164.554 208.903
L164.628 211.437
L165.223 280.523
L165.372 289.462
L165.446 286.559
L165.595 265.178
L165.744 278.772
L165.818 275.12
L166.042 250.156
L166.116 251.054
L166.19 254.649
L166.488 214.317
L166.786 129.588
L167.009 175.61
L167.083 173.248
L167.232 183.063
L167.381 169.297
L167.455 169.308
L167.604 179.492
L167.678 178.962
L167.827 173.076
L168.125 190.609
L168.199 190.805
L168.274 194.123
L168.869 273.991
L169.018 284.532
L169.092 283.679
L169.315 267.171
L169.39 259.833
L169.464 264.256
L169.613 289.485
L169.762 259.821
L170.282 195.171
L170.357 194.722
L170.803 82.4246
L170.878 82.8854
L171.026 99.7622
L171.696 274.578
L171.994 325.312
L172.068 314.184
L172.291 255.973
L172.366 257.483
L172.514 236.055
L172.738 210.423
L172.812 210.435
L173.11 195.286
L173.258 187.383
L173.482 201.956
L173.556 203.431
L173.63 196.507
L173.705 199.214
L173.779 201.288
L174.002 175.057
L174.449 241.493
L174.672 215.077
L174.746 219.225
L175.044 225.929
L175.267 177.925
L175.342 189.134
L175.416 183.386
L175.49 186.324
L175.714 227.703
L176.086 255.536
L176.16 267.989
L176.234 261.422
L176.458 219.156
L176.606 195.321
L176.681 195.908
L176.83 215.388
L176.978 203.604
L177.053 205.723
L177.202 236.793
L177.276 233.556
L177.35 224.616
L177.425 225.964
L177.499 220.469
L177.797 163.94
L177.871 156.337
L178.094 192.913
L178.169 197.152
L178.392 239.892
L178.69 254.222
L178.838 256.607
L179.21 194.86
L179.582 222.761
L179.657 225.365
L179.806 216.587
L179.954 197.855
L180.103 210.066
L180.178 207.013
L180.252 213.269
L180.401 239.845
L180.624 179.25
L180.698 184.653
L180.773 189.561
L180.847 180.852
L180.922 181.001
L181.219 224.409
L181.368 246.516
L181.442 245.029
L181.591 249.787
L181.666 247.691
L182.038 192.176
L182.112 187.049
L182.707 250.317
L182.782 249.707
L182.856 247.806
L183.079 197.924
L183.154 198.028
L183.302 210.124
L183.451 207.394
L183.823 231.954
L183.972 236.551
L184.046 233.198
L184.27 182.729
L184.344 184.757
L184.493 164.62
L184.567 166.152
L184.865 195.217
L184.939 196.012
L185.014 206.253
L185.088 205.965
L185.162 204.963
L185.609 255.893
L185.981 281.536
L186.055 283.31
L186.13 278.403
L186.427 217.232
L186.502 219.766
L186.65 211.875
L187.022 155.968
L187.097 151.798
L187.171 157.143
L187.246 154.079
L187.32 154.747
L187.469 173.329
L187.618 172.223
L187.692 176.359
L187.766 171.117
L187.841 179.031
L187.915 178.812
L187.99 175.333
L188.213 249.43
L188.436 291.732
L188.51 290.43
L188.585 270.454
L188.659 273.553
L188.734 278.656
L188.882 257.413
L189.031 223.383
L189.106 224.121
L189.18 225.78
L189.329 219.973
L189.403 223.257
L189.552 243.036
L189.85 213.718
L189.924 215.158
L189.998 216.126
L190.519 188.282
L190.594 189.86
L190.742 198.085
L190.817 197.878
L190.966 193.293
L191.04 193.8
L191.189 170.103
L191.338 144.126
L191.561 162.984
L191.858 224.789
L191.933 225.422
L192.007 222.888
L192.156 240.341
L192.305 276.56
L192.528 342.8
L192.602 338.791
L193.272 170.91
L193.346 161.072
L193.421 162.996
L193.495 169.228
L193.718 209.605
L193.793 204.295
L193.867 205.193
L193.942 205.205
L194.016 203.488
L194.462 153.826
L194.611 145.819
L194.76 173.571
L194.909 196.657
L194.983 197.06
L195.058 201.841
L195.355 252.402
L195.653 217.301
L195.876 240.859
L196.174 267.298
L196.248 272.551
L196.397 305.394
L196.471 298.356
L196.694 256.503
L196.992 186.024
L197.066 177.545
L197.141 179.124
L197.29 185.137
L197.81 149.84
L197.885 152.42
L198.108 189.468
L198.257 177.73
L198.331 177.845
L198.48 201.507
L198.703 250.72
L198.852 240.203
L199.001 220.054
L199.15 234.304
L199.298 244.592
L199.447 244.857
L199.522 248.739
L199.745 303.148
L199.819 300.279
L200.117 262.079
L200.191 259.487
L200.638 197.348
L200.935 177.223
L201.233 132.03
L201.382 102.032
L201.456 102.999
L201.679 133.228
L202.2 275.028
L202.274 274.624
L202.423 285.868
L202.572 270.235
L202.87 241.355
L202.944 238.06
L203.167 278.437
L203.316 277.285
L203.39 276.951
L203.688 230.906
L203.837 212.14
L204.209 170.138
L204.432 177.96
L204.506 170.299
L204.581 171.808
L204.953 216.471
L205.176 196.565
L205.25 190.252
L205.325 191.876
L205.548 219.282
L205.697 231.897
L205.846 215.446
L205.92 215.504
L205.994 216.805
L206.069 215.319
L206.143 208.373
L206.218 211.092
L206.366 217.877
L206.59 235.157
L206.813 254.983
L206.962 239.868
L207.185 216.356
L207.557 239.2
L207.631 234.8
L207.78 203.074
L207.929 217.785
L208.003 212.9
L208.078 213.764
L208.152 214.605
L208.226 212.578
L208.673 147.985
L208.747 156.233
L209.045 208.626
L209.119 194.964
L209.194 195.528
L209.566 239.765
L209.789 274.567
L209.863 273.979
L209.938 269.325
L210.235 235.26
L210.384 219.04
L210.458 219.121
L210.533 220.884
L210.607 217.036
L210.83 196.38
L210.905 198.938
L211.054 183.582
L211.128 185.794
L211.351 200.228
L211.5 207.324
L211.574 206.587
L211.649 201.23
L211.723 201.634
L212.393 251.308
L212.542 239.039
L212.616 240.525
L212.69 242.057
L213.36 161.924
L213.434 161.44
L214.03 243.129
L214.104 247.875
L214.327 275.523
L214.55 271.042
L215.592 139.932
L215.666 140.716
L215.89 179.147
L216.187 255.444
L216.262 255.271
L216.336 253.001
L216.559 234.051
L216.708 236.447
L216.782 236.217
L216.931 242.887
L217.08 238.025
L217.452 254.222
L217.973 173.122
L218.047 167.73
L218.568 195.701
L218.642 196.645
L218.717 193.604
L218.866 199.86
L219.461 250.006
L219.535 248.635
L219.833 232.058
L219.982 230.745
L220.056 230.572
L220.13 225.653
L220.354 202.371
L220.502 205.193
L220.874 250.928
L221.023 245.87
L221.246 191.726
L221.321 192.729
L221.47 205.861
L221.618 191.888
L221.767 205.504
L221.99 173.271
L222.586 220.918
L222.66 219.467
L222.958 231.263
L223.33 213.591
L223.404 219.973
L223.627 261.319
L223.776 251.181
L223.925 257.724
L224.148 241.332
L224.222 242.253
L224.297 240.917
L224.818 164.919
L224.892 160.15
L225.041 169.308
L225.115 166.878
L225.19 161.982
L225.264 164.101
L225.71 204.732
L225.785 204.352
L225.934 221.091
L226.306 293.529
L226.38 290.844
L226.454 287.043
L226.603 291.04
L226.678 289.508
L226.901 250.006
L227.347 165.783
L227.57 152.743
L227.645 153.584
L227.719 158.998
L228.091 211.011
L228.166 214.951
L228.24 211.598
L228.463 232.277
L228.612 248.186
L228.686 246.492
L229.133 173.317
L229.282 174.999
L229.356 176.163
L229.579 204.433
L229.802 228.706
L229.951 225.849
L230.249 245.145
L230.472 284.958
L230.621 284.82
L230.77 297.952
L231.588 144.944
L231.737 116.904
L231.96 108.782
L232.109 123.781
L232.704 232.599
L233.002 311.845
L233.15 330.404
L233.522 288.218
L234.192 145.024
L234.266 145.243
L234.564 161.198
L235.382 247.783
L235.457 247.656
L235.606 230.388
L235.754 235.33
L236.126 201.611
L236.201 203.2
L236.35 211.668
L236.424 210.216
L236.647 190.229
L236.722 191.6
L236.87 208.177
L237.168 236.988
L237.242 242.368
L237.317 239.661
L237.391 239.753
L237.54 248.612
L237.614 246.78
L237.763 234.869
L237.838 234.523
L237.912 235.456
L238.135 233.037
L238.21 227.738
L238.284 234.132
L238.358 230.238
L238.73 162.938
L238.805 164.735
L239.028 196.404
L239.102 205.147
L239.4 170.057
L239.474 173.49
L239.623 200.988
L239.921 254.384
L239.995 256.434
L240.07 255.536
L240.144 255.801
L240.367 244.2
L240.442 243.797
L240.516 241.527
L240.59 241.861
L240.665 245.237
L240.739 244.465
L240.888 224.501
L241.26 160.438
L241.855 232.288
L242.004 256.953
L242.078 255.973
L242.599 222.623
L242.674 224.581
L242.748 229.351
L242.897 247.333
L243.12 223.049
L243.566 150.243
L243.79 125.452
L243.938 150.923
L244.459 272.09
L244.608 278.748
L244.831 280.845
L245.054 270.731
L245.129 274.521
L245.203 271.583
L245.501 204.617
L245.798 147.432
L246.17 165.714
L246.319 160.703
L246.394 168.686
L246.766 258.277
L246.84 263.3
L246.914 262.194
L247.212 237.38
L247.361 242.08
L247.51 237.806
L247.584 240.214
L247.658 236.286
L247.956 185.897
L248.03 188.19
L248.105 187.671
L248.179 184.135
L248.254 187.349
L248.774 256.308
L248.849 251.527
L249.072 224.535
L249.221 237.507
L249.295 235.456
L249.593 178.801
L249.816 136.96
L249.965 145.381
L250.039 153.607
L250.56 275.949
L250.783 238.693
L250.858 241.85
L251.006 260.754
L251.081 259.625
L251.155 261.618
L251.23 274.901
L251.304 271.249
L251.602 242.345
L251.974 202.313
L252.271 129.461
L252.346 130.567
L252.866 161.636
L253.015 178.559
L253.462 272.505
L253.61 283.414
L253.685 281.317
L253.834 271.94
L253.908 273.495
L253.982 277.516
L254.057 274.716
L254.206 245.329
L254.429 184.457
L254.503 187.706
L254.578 193.063
L254.652 192.325
L254.726 192.291
L254.95 225.826
L255.098 228.775
L255.173 233.44
L255.322 217.52
L255.47 222.646
L255.545 222.105
L255.694 230.146
L255.917 211.46
L256.289 136.165
L256.363 134.391
L257.033 245.364
L257.182 268.611
L257.256 265.212
L257.479 237.979
L257.554 240.053
L257.702 233.106
L257.926 252.944
L258 252.794
L258.149 246.539
L258.223 243.451
L258.372 247.472
L258.595 224.075
L259.116 138.377
L259.19 141.511
L259.414 180.805
L259.786 238.152
L260.009 258.036
L260.158 247.621
L260.53 208.096
L260.604 214.605
L260.827 235.491
L261.125 224.858
L261.199 225.584
L261.497 256.607
L261.571 251.561
L261.869 213.741
L261.943 212.727
L262.018 214.859
L262.166 186.727
L262.315 161.982
L262.464 162.834
L262.613 177.257
L262.836 201.472
L262.91 198.569
L263.059 189.722
L263.134 192.153
L263.282 214.121
L263.506 248.278
L263.878 206.725
L263.952 206.956
L264.026 206.242
L264.175 223.856
L264.398 260.789
L264.547 265.927
L264.622 263.611
L264.77 248.566
L265.142 194.434
L265.291 207.578
L265.738 245.594
L265.812 247.875
L265.886 254.453
L265.961 249.983
L266.482 118.114
L266.556 119.185
L266.63 122.192
L266.928 170.806
L267.449 316.811
L267.746 306.926
L268.118 211.483
L268.416 166.221
L268.565 159.424
L268.714 165.357
L268.788 163.595
L268.862 163.906
L268.937 163.41
L269.011 166.279
L269.234 200.528
L269.458 235.065
L269.532 238.302
L269.681 252.587
L270.053 194.353
L270.127 197.556
L270.276 185.413
L270.35 188.985
L270.499 217.024
L270.797 307.122
L270.871 307.399
L271.094 245.778
L271.318 177.257
L271.392 177.476
L271.764 239.143
L271.838 237.219
L272.136 224.201
L272.21 226.632
L272.285 230.111
L273.326 122.722
L273.401 122.883
L273.55 147.386
L274.145 310.82
L274.294 286.939
L274.74 208.004
L274.889 216.978
L275.186 302.987
L275.261 289.163
L275.93 143.377
L276.079 174.654
L276.377 252.817
L276.451 250.594
L276.823 170.345
L277.046 124.795
L277.121 122.71
L277.195 127.871
L277.865 325.013
L277.939 317.951
L278.46 223.81
L278.609 230.71
L278.832 191.127
L279.278 121.639
L279.353 125.141
L279.502 159.459
L280.022 297.872
L280.246 293.206
L280.766 228.521
L281.138 131.004
L281.213 132.917
L281.882 211.621
L281.957 207.083
L282.031 205.378
L282.106 207.371
L282.701 316.188
L282.924 285.534
L283.37 147.927
L283.519 145.911
L283.594 148.008
L283.891 177.626
L284.338 247.76
L284.412 246.262
L284.71 227.381
L284.858 208.868
L285.007 220.572
L285.082 218.833
L285.23 197.106
L285.305 198.178
L285.528 225.538
L285.677 219.386
L285.9 242.702
L286.049 228.832
L286.123 231.217
L286.198 231.021
L286.272 230.583
L286.421 221.782
L286.718 190.597
L286.793 190.632
L286.942 190.448
L287.462 233.083
L287.537 233.636
L287.686 215.054
L287.76 215.319
L288.058 237.645
L288.132 233.118
L288.355 245.202
L288.876 179.642
L288.95 183.685
L289.099 179.469
L289.174 182.729
L289.397 205.942
L289.62 175.656
L289.918 219.513
L290.215 247.656
L290.364 244.5
L290.513 269.256
L290.736 305.959
L290.885 279.566
L291.257 168.203
L291.48 186.45
L291.852 142.628
L292.298 214.236
L292.373 214.133
L292.447 214.536
L292.67 230.837
L292.894 218.096
L293.191 232.588
L293.414 238.521
L293.563 224.985
L293.861 245.375
L294.233 297.849
L294.977 118.459
L295.126 128.297
L295.274 153.319
L295.721 259.464
L295.795 257.552
L296.018 235.203
L296.167 249.188
L296.316 270.708
L296.465 273.795
L296.539 270.523
L296.837 244.154
L296.911 240.732
L297.06 216.264
L297.432 149.079
L297.581 139.045
L297.655 142.536
L298.548 280.338
L298.697 251.239
L298.994 188.512
L299.069 190.16
L299.218 204.537
L299.292 202.348
L299.59 192.959
L299.664 186.692
L299.738 187.326
L299.962 198.8
L300.11 195.62
L300.259 220.284
L300.482 254.28
L300.706 271.767
L300.854 254.395
L301.003 268.415
L301.598 170.391
L301.673 172.188
L301.747 179.607
L301.822 178.19
L301.896 176.37
L301.97 176.82
L302.119 178.236
L302.194 176.796
L302.268 180.034
L302.64 250.144
L302.714 249.753
L302.789 246.965
L302.938 262.217
L303.012 260.144
L303.086 253.485
L303.161 256.688
L303.31 268.565
L303.533 209.294
L303.756 154.448
L303.905 138.204
L304.128 156.901
L304.574 281.824
L304.872 264.372
L305.095 236.631
L305.17 234.581
L305.69 169.424
L305.765 169.55
L306.062 150.773
L306.211 168.813
L306.806 279.716
L306.881 273.392
L307.178 213.684
L307.253 213.119
L307.402 215.838
L307.55 214.847
L307.625 216.494
L307.922 191.323
L308.89 253.462
L309.113 231.125
L309.262 235.86
L309.41 222.254
L309.559 194.284
L309.782 132.272
L310.006 118.413
L310.303 168.56
L310.973 329.506
L311.196 300.648
L311.642 211.99
L311.94 176.808
L312.238 164.505
L312.312 164.597
L312.461 169.274
L312.61 182.165
L312.833 217.808
L313.056 199.203
L313.279 209.11
L313.577 182.522
L313.651 190.033
L314.395 266.94
L314.47 268.288
L314.544 264.844
L314.693 250.363
L314.767 252.356
L314.99 262.563
L315.065 266.583
L315.139 266.238
L315.214 265.639
L315.586 216.126
L315.958 128.965
L316.032 119.07
L316.255 149.344
L316.33 146.741
L316.478 143.446
L316.553 135.705
L316.627 138.239
L317.148 260.005
L317.222 258.819
L317.669 304.3
L317.818 261.342
L318.041 213.407
L318.115 207.578
L318.19 209.559
L318.413 226.275
L318.562 212.704
L318.636 203.857
L318.71 204.087
L318.785 205.677
L318.859 205.355
L318.934 205.7
L319.306 249.937
L319.38 250.824
L319.752 192.901
L320.05 140.37
L320.124 137.052
L320.198 137.502
L320.422 154.551
L320.496 152.777
L320.57 149.448
L320.645 152.236
L320.868 198.512
L321.463 313.562
L321.686 336.89
L321.761 334.655
L322.058 234.696
L322.43 135.163
L322.579 124.968
L322.654 126.466
L322.728 121.777
L322.802 125.567
L323.323 272.159
L323.398 271.318
L323.695 234.454
L323.844 248.866
L323.918 247.564
L324.29 158.03
L324.365 156.406
L324.737 220.837
L324.811 223.752
L324.886 222.98
L324.96 223.095
L325.109 233.083
L325.332 257.045
L325.481 258.98
L325.853 227.012
L325.927 227.024
L326.076 250.686
L326.15 249.58
L326.522 159.989
L326.746 146.821
L327.043 184.953
L327.862 285.937
L328.01 262.183
L328.382 155.381
L328.457 152.155
L328.903 231.678
L329.052 219.202
L329.126 221.851
L329.424 258.312
L329.498 257.874
L329.573 254.038
L329.722 237.323
L329.796 237.518
L330.168 253.001
L330.763 135.947
L330.912 155.876
L331.21 208.338
L331.284 211.184
L331.358 209.778
L331.507 205.735
L331.582 208.281
L331.805 228.556
L331.879 227.024
L331.954 229.155
L332.251 272.654
L332.326 269.521
L332.623 222.531
L332.772 229.247
L332.995 192.556
L333.144 208.718
L333.442 240.318
L333.516 240.663
L333.59 239.223
L333.739 243.912
L333.962 232.127
L334.111 235.675
L334.26 212.762
L334.558 128.078
L334.706 124.346
L334.781 129.138
L335.599 265.466
L335.674 265.385
L335.897 254.533
L335.971 255.766
L336.12 269.36
L336.194 267.298
L336.418 253.819
L336.492 251.976
L336.641 236.032
L337.162 155.508
L337.236 154.286
L337.385 182.844
L337.534 207.359
L337.608 207.924
L337.757 214.501
L337.98 237.495
L338.129 235.122
L338.203 235.019
L338.65 186.324
L338.724 183.87
L338.873 188.524
L339.096 210.746
L339.245 204.433
L339.468 221.586
L339.84 269.406
L339.914 269.244
L339.989 271.456
L340.138 280.58
L340.212 278.714
L340.361 262.632
L340.807 183.985
L340.956 180.771
L341.105 156.348
L341.254 130.832
L341.402 130.659
L341.551 161.233
L341.923 246.078
L342.146 228.325
L342.593 266.284
L342.667 265.166
L342.89 228.452
L343.114 231.39
L343.188 230.48
L343.411 207.843
L343.783 251.55
L343.858 250.19
L344.378 182.729
L344.527 185.39
L344.75 178.133
L344.899 156.06
L345.122 170.599
L346.015 292.342
L346.164 271.56
L346.61 208.154
L346.685 204.156
L346.834 215.02
L347.206 156.222
L347.28 159.205
L347.726 215.527
L347.95 208.119
L348.024 210.85
L348.47 256.031
L348.619 259.913
L348.694 256.411
L349.066 192.867
L349.214 173.191
L349.438 208.142
L349.512 207.324
L349.586 201.38
L349.661 203.949
L349.958 240.836
L350.256 221.943
L350.33 223.798
L350.479 222.946
L350.554 226.805
L350.628 226.793
L350.702 227.554
L350.777 225.895
L351.149 171.417
L351.223 174.089
L351.595 224.766
L351.818 232.392
L352.042 250.444
L352.265 228.51
L352.637 183.259
L352.711 183.49
L353.009 207.808
L353.232 214.559
L353.604 229.178
L353.976 189.733
L354.05 192.994
L354.348 230.434
L354.422 232.473
L354.497 230.169
L354.571 232.91
L354.794 254.522
L354.869 256.043
L355.018 239.258
L355.315 198.373
L355.39 197.268
L355.464 197.509
L355.538 200.09
L355.613 197.198
L355.91 209.145
L356.059 213.096
L356.282 230.514
L356.654 192.729
L356.803 195.378
L357.175 179.63
L357.398 184.054
L357.473 188.846
L357.845 270.915
L357.994 311.534
L358.068 308.505
L358.44 253.819
L358.738 189.526
L358.961 159.62
L359.035 153.399
L359.184 166.037
L359.482 194.514
L359.705 204.629
L359.779 204.122
L359.928 194.123
L360.598 257.287
L360.746 261.653
L360.895 245.467
L360.97 230.848
L361.044 232.576
L361.118 227.07
L361.342 201.657
L361.565 177.925
L361.639 179.227
L361.937 223.395
L362.086 231.701
L362.234 225.307
L362.309 229.293
L362.532 255.639
L362.606 251.25
L362.978 180.206
L363.276 153.745
L363.35 154.056
L363.499 165.749
L363.648 190.16
L364.094 287.976
L364.169 299.853
L364.243 297.123
L364.466 258.128
L364.764 199.18
L364.838 198.615
L364.987 187.061
L365.062 187.568
L365.359 205.216
L365.582 233.003
L365.657 230.664
L365.88 196.738
L366.103 170.311
L366.178 170.092
L366.475 212.128
L366.624 235.41
L366.922 215.676
L366.996 217.796
L367.219 229.259
L367.294 230.238
L367.368 233.602
L367.442 231.493
L367.591 221.045
L367.963 239.235
L368.261 228.613
L368.335 229.765
L368.41 233.556
L368.484 233.532
L368.558 233.037
L368.856 197.498
L368.93 185.39
L369.005 190.908
L369.154 200.643
L369.302 192.464
L369.377 193.04
L369.451 194.94
L369.674 172.004
L369.823 174.85
L369.972 187.038
L370.27 245.329
L370.493 269.602
L370.567 263.001
L370.939 175.921
L371.088 193.938
L371.386 267.862
L371.46 270.085
L372.055 229.132
L372.204 204.905
L372.278 205.746
L372.427 166.071
L372.502 166.763
L372.799 188.236
L372.874 189.169
L373.171 202.233
L373.394 186.37
L373.469 187.602
L373.543 187.925
L373.618 187.648
L373.692 188.616
L373.915 218.868
L374.138 259.314
L374.213 258.473
L374.287 259.107
L374.362 261.987
L374.436 258.888
L374.585 264.924
L374.659 262.309
L374.957 211.426
L375.106 193.593
L375.254 208.212
L375.403 233.383
L375.85 179.561
L376.222 209.732
L376.519 251.769
L376.966 192.544
L377.412 239.88
L377.486 239.857
L377.561 240.606
L377.635 236.793
L378.007 173.099
L378.082 178.052
L378.23 182.948
L378.528 215.388
L378.677 212.151
L378.826 218.476
L378.9 223.764
L379.049 269.256
L379.123 267.689
L379.346 252.16
L379.867 214.755
L380.016 224.823
L380.09 222.623
L380.462 181.681
L380.537 179.216
L380.76 195.851
L380.909 211.172
L381.058 205.447
L381.281 194.457
L381.504 212.359
L381.802 234.892
L381.876 235.307
L382.025 211.806
L382.099 217.865
L382.248 231.563
L382.397 224.478
L382.843 166.705
L382.992 193.143
L383.438 305.187
L383.587 290.245
L384.108 185.056
L384.182 182.096
L384.406 155.07
L384.629 167.327
L384.852 182.292
L385.001 193.639
L385.447 240.594
L385.522 244.523
L385.596 243.854
L385.67 243.82
L385.819 245.859
L386.042 252.333
L386.638 217.024
L387.233 188.052
L387.679 213.73
L387.754 213.084
L387.828 218.937
L387.977 247.184
L388.051 246.815
L388.349 226.678
L388.572 178.34
L388.646 181.22
L389.093 155.715
L389.167 161.659
L389.688 275.143
L389.762 277.02
L390.06 253.485
L390.209 247.737
L390.283 255.651
L390.358 254.798
L391.027 162.869
L391.102 157.489
L391.25 165.495
L391.622 218.856
L391.846 243.152
L391.92 242.679
L391.994 239.972
L392.069 241.758
L392.366 274.544
L392.515 253.635
L393.185 141.396
L393.334 131.984
L393.482 150.324
L394.301 316.269
L394.598 254.476
L395.045 156.982
L395.119 151.602
L395.342 194.468
L395.64 239.465
L395.938 258.923
L396.384 213.672
L396.458 209.905
L396.533 211.84
L396.682 193.316
L396.979 162.327
L397.128 157.938
L397.351 166.728
L397.426 162.846
L397.5 166.025
L398.021 286.294
L398.244 302.56
L398.318 300.913
L398.765 233.521
L399.434 136.615
L399.509 141.707
L400.104 244.661
L400.327 249.649
L400.476 259.925
L400.625 246.504
L401.22 149.632
L401.294 152.789
L401.443 183.927
L401.815 284.578
L401.89 287.642
L401.964 283.771
L402.485 217.543
L402.708 231.781
L402.782 232.162
L402.931 221.563
L403.08 201.081
L403.303 157.904
L403.526 172.557
L403.601 172.039
L404.122 218.107
L404.717 276.18
L405.014 234.569
L405.238 179.688
L405.386 156.256
L405.461 160.081
L406.279 267.47
L406.428 248.992
L406.874 185.31
L407.172 166.763
L407.246 169.447
L407.395 195.332
L407.693 269.751
L407.767 269.602
L407.842 268.346
L407.99 251.296
L408.288 190.079
L408.362 190.125
L408.437 193.259
L408.586 218.914
L408.734 252.598
L408.809 249.557
L409.106 236.113
L409.553 117.468
L409.627 131.534
L409.85 184.112
L409.925 185.413
L409.999 190.69
L410.148 230.388
L410.371 287.342
L410.446 294.888
L410.52 294.427
L410.669 282.988
L410.743 285.073
L410.818 284.151
L411.115 215.527
L411.413 140.14
L411.487 136.592
L411.562 141.764
L411.785 176.117
L411.859 171.497
L411.934 173.755
L412.306 249.718
L412.603 265.754
L412.901 214.167
L412.975 212.451
L413.198 221.54
L413.422 202.947
L413.57 208.476
L413.794 232.749
L413.942 241.193
L414.017 237.311
L414.24 196.622
L414.389 214.997
L414.463 212.428
L414.538 209.928
L414.612 210.066
L414.835 227.715
L415.058 251.746
L415.133 251.031
L415.207 247.817
L415.356 208.661
L415.654 127.664
L415.728 127.134
L415.877 140.532
L416.026 170.645
L416.398 277.62
L416.546 280.407
L416.621 278.76
L416.77 262.263
L417.067 237.334
L417.216 228.118
L417.439 202.394
L417.588 194.388
L417.737 197.152
L417.886 194.261
L418.109 210.999
L418.555 263.415
L418.704 230.111
L419.15 137.018
L419.225 138.158
L419.522 189.78
L419.894 282.043
L420.118 296.075
L420.192 292.987
L420.415 253.497
L420.713 197.026
L420.862 194.629
L421.01 211.783
L421.085 208.407
L421.457 141.2
L421.531 143.319
L421.754 177.741
L422.126 244.753
L422.201 244.926
L422.275 243.486
L422.35 247.31
L422.424 246.688
L422.498 246.078
L422.647 261.25
L422.87 277.712
L422.945 279.555
L423.019 278.322
L423.317 227.093
L423.763 130.601
L423.838 129.991
L423.912 131.35
L424.135 174.688
L424.656 288.552
L424.73 286.236
L425.102 225.273
L425.474 167.615
L425.921 213.511
L426.144 244.857
L426.293 238.624
L426.367 232.703
L426.442 233.244
L426.516 234.569
L426.665 228.302
L426.888 221.298
L427.409 201.634
L427.632 185.506
L427.855 181.681
L428.004 164.378
L428.078 167.938
L428.376 199.272
L428.971 316.096
L429.046 307.111
L429.492 203.281
L429.79 142.916
L429.864 140.704
L430.013 150.254
L430.31 198.304
L430.608 251.988
L430.757 272.159
L430.831 271.986
L430.906 264.199
L431.352 160.83
L431.501 151.913
L431.575 152.155
L431.65 145.531
L431.724 149.586
L432.022 235.906
L432.245 300.971
L432.319 301.097
L432.394 302.364
L432.468 299.876
L432.691 263.784
L433.138 176.105
L433.286 164.412
L433.51 179.941
L433.658 173.79
L433.733 173.824
L433.882 170.357
L434.551 253.739
L434.626 252.46
L434.774 245.179
L434.849 247.138
L434.998 255.87
L435.146 266.975
L435.221 264.268
L435.37 238.532
L435.816 163.698
L435.965 149.552
L436.188 174.262
L436.337 210.423
L436.634 275.511
L436.709 273.657
L437.006 233.36
L437.378 163.18
L437.527 145.796
L437.602 150.646
L438.42 294.485
L438.494 297.941
L438.643 282.204
L438.792 244.039
L439.015 171.636
L439.09 168.387
L439.238 155.968
L439.61 179.331
L439.759 186.393
L440.28 233.579
L440.354 231.781
L440.429 235.157
L440.726 279.739
L440.801 279.209
L440.875 276.306
L440.95 278.046
L441.098 255.259
L441.694 148.884
L441.842 143.734
L441.917 142.144
L441.991 142.536
L442.14 158.756
L442.884 322.916
L442.958 320.82
L443.479 175.852
L443.777 116.8
L443.851 118.171
L444 136.142
L444.595 301.915
L444.744 277.573
L444.818 279.175
L444.893 278.495
L445.19 229.051
L445.488 194.641
L445.562 197.521
L445.637 196.68
L446.083 135.762
L446.158 136.177
L446.306 147.536
L446.53 201.991
L447.125 344.827
L447.348 314.99
L447.646 198.754
L447.869 114.324
L448.018 110.349
L448.092 111.248
L448.315 127.652
L448.687 216.736
L448.985 280.177
L449.208 298.54
L449.357 276.548
L449.878 176.013
L449.878 176.013" style="fill:none;stroke:#808080;stroke-linecap:square;"/>
   </g>
  </g>
 </g>
 <defs>
  <clipPath id="p7ff5b81e1d">
   <rect height="345.6" width="446.4" x="72.0" y="43.2"/>
  </clipPath>
 </defs>
</svg>
