<?xml version="1.0" encoding="utf-8" standalone="no"?>
<!DOCTYPE svg PUBLIC "-//W3C//DTD SVG 1.1//EN"
  "http://www.w3.org/Graphics/SVG/1.1/DTD/svg11.dtd">
<!-- Created with matplotlib (http://matplotlib.org/) -->
<svg height="432pt" version="1.1" viewBox="0 0 576 432" width="576pt" xmlns="http://www.w3.org/2000/svg" xmlns:xlink="http://www.w3.org/1999/xlink">
 <defs>
  <style type="text/css">
*{stroke-linecap:butt;stroke-linejoin:round;}
  </style>
 </defs>
 <g id="figure_1">
  <g id="patch_1">
   <path d="
M0 432
L576 432
L576 0
L0 0
z
" style="fill:#ffffff;"/>
  </g>
  <g id="axes_1">
   <g id="line2d_1">
    <path clip-path="url(#p7ff5b81e1d)" d="
M72 220.038
L72.0744 203.242
L72.2232 190.374
L72.372 181.204
L72.4464 173.243
L72.5208 175.087
L72.8184 225.441
L72.8928 227.192
L73.1904 258.722
L73.2648 262.593
L73.3392 256.579
L73.4136 259.286
L73.6368 287.706
L73.7112 285.679
L73.7856 283.501
L73.9344 254.724
L74.5296 132.647
L74.604 129.537
L74.7528 158.809
L74.9016 188.07
L74.976 189.118
L75.1992 180.086
L75.348 183.07
L75.4224 182.989
L75.5712 211.11
L75.7944 262.051
L75.9432 265.3
L76.092 262.097
L76.3152 254.678
L76.3896 261.648
L76.464 260.104
L76.6872 241.108
L76.7616 240.578
L76.836 244.806
L76.9104 241.764
L76.9848 242.905
L77.0592 244.138
L77.1336 237.226
L77.5056 143.833
L77.6544 152.899
L77.8776 170.744
L78.1752 193.208
L78.5472 246.05
L78.6216 240.221
L78.9192 187.079
L78.9936 193.369
L79.44 276.163
L79.5144 264.862
L79.5888 266.118
L79.7376 284.492
L79.9608 246.776
L80.0352 259.044
L80.1096 257.501
L80.7048 132.774
L80.928 167.299
L81.0768 192.609
L81.3 170.456
L81.9696 241.211
L82.1184 259.194
L82.1928 258.422
L82.416 238.043
L82.4904 237.295
L82.5648 238.216
L82.6392 237.755
L82.788 259.263
L82.9368 280.472
L83.0856 257.651
L83.2344 235.786
L83.3088 236.327
L83.904 133.626
L83.9784 135.297
L84.2016 178.854
L84.3504 192.24
L84.8712 247.882
L84.9456 241.154
L85.02 239.288
L85.1688 243.389
L85.5408 218.148
L85.6152 217.78
L85.8384 233.159
L86.0616 290.955
L86.136 316.068
L86.2104 314.87
L86.88 136.644
L86.9544 133.684
L87.0288 119.687
L87.3264 170.168
L87.4752 210.142
L87.5496 208.725
L87.624 201.444
L87.996 243.85
L88.0704 244.495
L88.2192 268.664
L88.2936 264.378
L88.4424 240.762
L88.5912 219.807
L88.6656 221.339
L88.8144 212.1
L88.8888 215.188
L89.0376 245.889
L89.1864 242.859
L89.2608 243.896
L89.4096 231.5
L89.484 233.654
L89.6328 248.757
L90.3024 146.471
L90.6 182.828
L90.6744 194.89
L90.7488 188.945
L90.8976 206.893
L90.972 206.732
L91.0464 202.17
L91.2696 236.465
L91.344 234.945
L91.4184 239.576
L91.6416 271.279
L91.716 276.935
L91.8648 260.185
L92.2368 205.868
L92.3856 213.851
L92.5344 194.106
L92.6832 219.208
L93.0552 178.543
L93.2784 203.242
L93.3528 199.774
L93.576 232.053
L93.6504 226.074
L93.7992 205.499
L93.948 186.676
L94.1712 201.087
L94.3944 224.392
L94.4688 226.616
L94.9152 278.502
L95.064 257.432
L95.1384 245.531
L95.2128 246.326
L95.2872 247.571
L95.436 234.184
L95.5848 194.175
L95.7336 145.031
L95.808 141.794
L95.9568 129.652
L96.7752 279.7
L96.924 245.543
L97.1472 199.014
L97.296 216.778
L97.5936 188.047
L97.7424 219.934
L97.9656 263.48
L98.04 266.947
L98.1144 266.267
L98.1888 264.401
L98.412 241.845
L98.5608 247.605
L98.7096 238.954
L99.156 158.014
L99.2304 157.703
L99.528 201.479
L99.7512 160.157
L100.123 236.062
L100.495 202.884
L100.793 255.254
L101.165 287.073
L101.388 253.883
L101.611 220.533
L101.686 219.197
L101.983 172.737
L102.132 177.356
L102.281 151.782
L102.504 160.376
L102.578 170.237
L102.653 169.741
L102.802 165.26
L103.174 253.78
L103.471 217.4
L103.546 219.473
L104.141 286.842
L104.215 285.69
L104.587 219.128
L104.662 222.837
L104.736 215.994
L104.959 168.958
L105.108 147.934
L105.182 150.457
L105.257 147.208
L105.48 168.44
L105.554 162.956
L105.926 252.904
L106.001 249.575
L106.224 225.348
L106.298 222.561
L106.522 233.919
L106.745 193.346
L106.819 194.613
L106.894 195.869
L106.968 192.263
L107.117 217.907
L107.414 303.143
L107.489 307.567
L107.563 304.18
L108.456 102.925
L108.53 113.397
L108.902 212.895
L109.051 227.894
L109.126 230.82
L109.274 247.651
L109.423 236.396
L109.498 238.032
L109.572 240.186
L109.721 227.491
L109.87 244.264
L110.018 227.629
L110.093 229.104
L110.688 251.925
L110.837 239.092
L111.432 159.811
L111.506 165.375
L111.655 182.367
L111.73 174.753
L111.804 175.018
L111.878 176.688
L111.953 185.19
L112.25 249.022
L112.325 248.331
L112.474 236.684
L112.548 237.606
L112.697 251.637
L112.771 240.578
L112.994 182.264
L113.143 210.107
L113.366 276.589
L113.441 271.958
L113.664 209.462
L113.738 212.746
L113.813 215.43
L113.887 206.628
L113.962 211.294
L114.036 228.643
L114.11 227.226
L114.408 163.912
L114.482 167.748
L114.631 204.659
L114.78 198.288
L115.003 223.782
L115.152 218.413
L115.301 226.305
L115.45 208.99
L115.524 210.038
L115.598 208.161
L115.673 210.488
L115.822 222.48
L116.119 178.992
L116.491 289.503
L116.566 286.658
L117.012 202.447
L117.086 191.434
L117.235 223.114
L117.31 219.876
L117.682 141.506
L117.756 153.452
L118.5 270.887
L118.649 254.114
L118.946 220.706
L119.021 218.056
L119.318 236.903
L119.393 236.304
L119.467 236.523
L119.765 219.669
L119.839 218.275
L119.988 223.989
L120.286 187.471
L120.36 187.24
L120.509 202.861
L120.658 188.346
L120.806 200.5
L120.955 182.897
L121.03 183.623
L121.327 202.285
L121.55 239.737
L121.699 238.055
L121.848 244.587
L122.146 195.466
L122.22 195.719
L122.369 225.659
L122.592 262.178
L122.666 268.468
L122.741 267.12
L122.815 267.408
L122.964 250.854
L123.113 274.424
L123.187 271.97
L123.559 127.624
L123.634 127.878
L123.708 126.91
L123.782 122.924
L123.857 127.636
L124.006 157.323
L124.08 158.452
L124.303 223.574
L124.526 272.373
L124.601 273.629
L124.75 280.633
L124.973 265.415
L125.345 163.958
L125.419 167.541
L125.717 233.055
L125.791 246.453
L125.866 242.847
L125.94 232.353
L126.014 232.399
L126.238 253.215
L126.386 233.747
L126.461 240.232
L126.535 240.106
L127.056 142.22
L127.13 143.372
L127.279 178.808
L127.577 241.787
L127.8 269.389
L128.246 205.661
L128.544 215.879
L128.693 235.774
L128.842 245.117
L128.99 225.544
L129.065 226.12
L129.214 244.264
L129.362 228.47
L129.437 224.531
L129.958 133.661
L130.032 135.769
L130.627 263.399
L130.702 262.259
L130.776 255.554
L131.222 172.241
L131.297 168.336
L131.446 189.452
L131.594 218.644
L131.669 218.379
L131.818 248.607
L131.966 276.071
L132.19 265.185
L132.487 221.881
L132.859 184.798
L133.008 160.353
L133.157 172.138
L133.231 170.421
L133.306 164.984
L133.454 196.848
L133.603 239.023
L133.678 238.308
L133.975 218.033
L134.198 249.149
L134.273 245.071
L134.719 169.96
L134.868 185.42
L135.166 250.796
L135.389 280.61
L135.463 274.585
L135.538 278.744
L135.612 274.977
L136.058 178.289
L136.133 179.637
L136.43 148.372
L136.802 173.693
L137.026 241.972
L137.1 238.182
L137.174 238.769
L137.249 238.712
L137.323 238.504
L137.472 231.834
L137.695 202.85
L137.77 208.068
L138.067 271.993
L138.216 280.656
L138.365 266.786
L138.439 270.011
L138.588 238.055
L138.811 195.903
L138.886 194.083
L138.96 195.016
L139.109 164.592
L139.258 141.414
L139.332 143.626
L140.225 256.026
L140.299 257.904
L140.374 257.19
L140.448 252.109
L140.671 201.537
L141.043 228.597
L141.192 247.075
L141.341 227.226
L141.415 232.502
L141.564 266.118
L141.936 220.948
L142.308 153.694
L142.382 153.014
L143.052 231.823
L143.126 230.89
L143.201 231.88
L143.275 228.781
L143.424 207.988
L143.498 211.409
L143.722 230.659
L143.796 230.36
L143.945 205.373
L144.019 207.988
L144.391 267.857
L144.466 260.461
L144.763 214.485
L144.838 217.319
L144.986 207.527
L145.21 185.512
L145.284 181.158
L145.358 186.111
L145.507 200.511
L145.582 201.629
L145.73 212.55
L145.805 213.863
L146.102 188.772
L146.177 196.56
L146.4 252.328
L146.474 252.593
L146.549 247.248
L146.846 185.973
L146.995 195.696
L147.07 193.139
L147.367 227.572
L147.442 231.12
L147.59 275.956
L147.665 297.625
L147.739 296.991
L148.037 252.95
L148.409 169.626
L148.483 165.997
L148.558 167.391
L148.632 165.928
L148.706 156.148
L148.781 156.92
L148.855 165.56
L148.93 165.491
L149.302 186.779
L149.45 216.962
L149.599 258.618
L149.674 258.307
L149.897 237.203
L149.971 237.894
L150.12 235.267
L150.492 215.775
L150.566 216.144
L150.938 248.826
L151.087 282.868
L151.385 234.288
L151.682 145.307
L151.757 135.55
L151.831 140.918
L152.278 237.606
L152.352 245.036
L152.426 240.82
L152.724 166.366
L152.798 182.54
L152.947 211.11
L153.022 200.603
L153.096 203.345
L153.245 227.111
L153.394 213.448
L153.617 235.601
L153.691 244.794
L153.989 332.726
L154.063 319.594
L154.361 202.596
L154.733 170.225
L154.807 169.592
L155.105 159.489
L155.179 161.781
L155.402 211.283
L155.477 196.41
L155.551 198.242
L155.7 221.535
L155.998 198.415
L156.146 223.632
L156.295 256.775
L156.518 213.99
L156.593 217.031
L156.742 221.754
L156.965 249.725
L157.039 262.765
L157.114 262.512
L157.262 256.936
L157.411 267.339
L157.486 264.298
L157.709 201.203
L157.858 166.781
L158.081 201.56
L158.155 198.945
L158.378 165.617
L158.453 165.295
L158.602 179.533
L158.676 178.98
L158.75 177.414
L158.899 189.717
L159.048 209.981
L159.197 231.765
L159.271 232.422
L159.42 237.341
L159.494 234.829
L159.643 250.404
L159.792 226.719
L159.866 235.521
L159.941 245.382
L160.015 240.843
L160.09 243.688
L160.313 223.667
L160.387 224.715
L160.61 260.554
L160.908 177.932
L160.982 183.773
L161.057 189.844
L161.131 186.031
L161.28 194.475
L161.429 172.253
L161.503 171.861
L161.652 197.09
L161.875 251.764
L162.024 237.007
L162.247 197.965
L162.47 213.402
L162.545 213.955
L162.619 213.402
L162.842 189.521
L162.917 189.947
L163.214 243.331
L163.438 285.252
L163.586 272.603
L163.661 275.242
L164.256 139.098
L164.33 147.208
L164.554 190.858
L164.628 190.351
L164.777 210.776
L165.223 268.468
L165.298 263.779
L165.744 205.004
L165.967 181.803
L166.116 195.27
L166.339 216.19
L166.414 205.315
L166.488 209.082
L166.562 215.338
L166.786 248.17
L166.934 226.385
L167.009 208.161
L167.083 208.518
L167.306 234.634
L167.53 208.161
L167.604 208.506
L167.827 194.924
L168.125 233.62
L168.199 233.309
L168.422 210.004
L168.794 176.63
L168.869 175.87
L169.018 200.246
L169.092 199.21
L169.166 187.263
L169.241 194.521
L169.464 248.411
L169.538 247.006
L169.762 284.676
L169.836 284.4
L169.91 284.285
L169.985 281.071
L170.134 250.854
L170.357 211.951
L170.431 207.919
L170.654 171.32
L170.878 180.282
L170.952 177.955
L171.101 191.272
L171.398 214.312
L171.622 232.883
L171.696 229.864
L171.77 228.539
L171.845 235.302
L171.919 230.014
L172.217 163.521
L172.44 144.006
L172.514 157.749
L172.738 254.851
L172.812 257.282
L172.961 287.718
L173.035 286.9
L173.11 273.825
L173.184 278.456
L173.333 281.128
L173.482 267.235
L173.705 220.913
L173.779 221.697
L173.854 219.842
L174.077 199.567
L174.3 142.266
L174.374 144.778
L174.598 184.499
L174.672 184.81
L174.746 186.526
L174.895 222.238
L175.118 256.833
L175.565 171.562
L175.714 146.621
L175.788 155.007
L176.309 297.429
L176.383 311.702
L176.458 308.753
L177.202 184.982
L177.35 161.505
L177.425 163.014
L177.797 190.904
L177.871 192.678
L178.243 224.438
L178.318 219.289
L178.466 200.189
L178.615 204.774
L178.838 182.252
L178.913 185.789
L179.582 284.089
L179.657 277.695
L179.88 315.193
L180.029 266.774
L180.326 194.728
L180.401 198.069
L180.475 194.648
L180.847 133.523
L181.294 196.595
L181.368 194.095
L181.442 194.59
L181.517 193.553
L181.666 186.595
L181.814 205.787
L181.963 194.774
L182.038 198.081
L182.186 226.823
L182.41 255.83
L182.558 243.227
L183.005 289.549
L183.079 299.871
L183.154 293.374
L183.674 173.796
L183.749 174.119
L183.898 183.37
L183.972 183.727
L184.195 178.301
L184.344 166.205
L184.418 174.453
L184.493 171.527
L184.567 170.502
L184.939 226.846
L185.014 226.708
L185.311 194.936
L185.386 197.412
L185.609 211.582
L185.758 202.239
L185.906 215.683
L186.278 322.831
L186.353 320.872
L186.576 248.711
L186.799 189.821
L186.948 181.676
L187.097 168.163
L187.171 167.046
L187.32 194.648
L187.394 192.528
L187.543 195.926
L187.692 190.777
L187.841 204.071
L188.138 165.064
L188.213 172.771
L188.436 206.41
L188.51 206.168
L188.659 218.655
L188.808 204.693
L188.957 214.139
L189.106 250.831
L189.329 304.525
L189.403 302.256
L189.552 285.84
L189.775 300.482
L189.998 222.872
L190.296 160.56
L190.445 141.057
L190.594 137.324
L190.817 150.883
L190.891 158.014
L191.189 236.304
L191.338 201.433
L191.486 181.4
L191.71 236.753
L192.007 194.083
L192.082 196.548
L192.23 209.416
L192.305 209.727
L192.379 213.057
L192.751 307.14
L192.9 339.028
L193.495 197.608
L193.718 186.18
L193.867 166.942
L194.09 126.138
L194.239 137.946
L194.686 213.506
L194.834 195.143
L194.909 202.723
L195.058 240.97
L195.132 239.553
L195.43 207.17
L195.578 216.363
L195.727 199.025
L195.802 204.935
L196.025 239.322
L196.397 340.883
L196.471 329.766
L196.62 296.749
L196.843 240.728
L196.918 229.081
L197.215 152.646
L197.438 94.2509
L197.513 98.5939
L198.406 259.056
L198.48 260.047
L198.554 254.379
L198.629 256.349
L198.703 255.865
L199.075 224.346
L199.15 225.51
L199.373 259.77
L199.596 284.481
L200.042 241.304
L200.191 237.375
L200.712 144.34
L200.786 144.57
L200.861 145.814
L201.158 161.816
L201.233 160.502
L201.307 160.053
L201.605 212.446
L201.679 210.211
L201.828 193.484
L202.126 226.719
L202.349 288.593
L202.423 288.904
L202.498 287.464
L202.721 256.936
L202.795 252.063
L203.167 279.251
L203.242 278.006
L203.316 277.108
L203.837 215.683
L204.283 60.8429
L204.358 66.3955
L204.581 135.746
L204.953 243.585
L205.176 268.998
L205.399 240.993
L205.622 189.095
L205.92 204.002
L206.515 332.726
L206.738 264.77
L206.887 232.836
L206.962 232.433
L207.11 215.349
L207.185 206.064
L207.557 76.7405
L207.631 83.5949
L208.45 283.571
L208.896 167.149
L209.119 221.547
L209.268 225.602
L209.417 211.812
L209.64 268.871
L209.714 264.989
L209.863 252.202
L210.086 262.051
L210.31 301.473
L210.458 258.376
L210.756 170.628
L210.979 138.154
L211.128 119.756
L211.202 112.038
L211.351 126.829
L211.574 197.424
L211.649 195.903
L211.872 168.394
L212.244 272.569
L212.318 278.732
L212.393 278.467
L212.467 279.85
L212.69 288.847
L212.765 287.142
L212.988 252.282
L213.286 212.365
L213.434 205.292
L213.658 238.308
L213.732 239.046
L214.03 181.745
L214.104 183.83
L214.327 214.474
L214.402 214.105
L214.625 189.602
L214.997 143.142
L215.22 120.413
L215.443 191.549
L215.741 298.282
L215.89 301.553
L216.485 238.516
L216.708 201.156
L217.08 248.55
L217.154 249.529
L217.303 232.145
L217.75 131.622
L217.824 131.864
L218.122 177.667
L218.419 247.663
L218.642 195.131
L218.94 217.411
L219.014 213.379
L219.089 213.794
L219.535 247.686
L219.61 245.889
L219.758 211.409
L220.056 246.154
L220.13 245.785
L220.279 281.946
L220.428 301.427
L220.502 294.895
L221.246 132.255
L221.618 162.276
L221.842 205.903
L221.99 176.377
L222.065 181.008
L222.362 255.876
L222.586 229.012
L222.734 243.988
L222.883 281.497
L222.958 279.147
L223.106 267.788
L223.33 193.208
L223.404 200.569
L223.627 251.925
L223.702 257.086
L223.776 255.876
L223.85 244.714
L223.999 259.931
L224.074 256.821
L224.297 235.981
L224.743 125.09
L224.818 128.431
L225.19 203
L225.264 203.76
L225.487 176.78
L225.562 177.794
L225.636 183.807
L226.008 244.426
L226.157 255.254
L226.306 246.407
L226.529 213.183
L226.603 218.229
L226.901 291.923
L227.645 201.41
L227.868 171.204
L227.942 173.405
L228.091 209.151
L228.24 193.38
L228.463 154.454
L228.538 153.302
L228.686 145.676
L228.761 148.533
L228.984 186.987
L229.133 182.39
L229.282 203.23
L229.505 252.559
L229.579 247.743
L229.654 230.625
L229.728 234.576
L229.951 286.462
L230.174 333.613
L230.546 234.035
L230.621 232.744
L230.77 201.744
L230.993 178.278
L231.142 167.46
L231.216 171.85
L231.439 206.099
L231.514 206.986
L231.588 202.504
L231.811 167.852
L232.034 199.417
L232.109 198.276
L232.258 208.633
L232.481 188.6
L232.555 190.708
L232.704 234.196
L232.778 233.24
L232.927 199.106
L233.002 200.35
L233.076 199.221
L233.225 226.201
L233.448 251.81
L233.82 209.393
L234.341 283.905
L234.415 286.07
L234.49 283.167
L234.862 204.958
L234.936 208.414
L235.085 164.166
L235.234 134.283
L235.308 134.283
L235.382 135.032
L235.531 118.984
L235.606 127.624
L235.978 237.951
L236.052 239.771
L236.201 254.195
L236.647 223.793
L236.87 258.065
L236.945 258.088
L237.094 238.308
L237.317 203.311
L237.391 205.983
L237.466 205.407
L237.614 208.84
L237.763 239.345
L237.986 293.616
L238.061 289.699
L238.507 174.407
L238.805 139.974
L238.954 135.85
L239.623 227.514
L239.772 222.998
L239.921 232.929
L240.07 226.892
L240.293 288.317
L240.367 284.769
L240.516 272.972
L240.665 236.35
L240.739 239.518
L240.814 243.285
L241.037 205.338
L241.111 214.923
L241.26 267.638
L241.334 266.129
L241.483 249.828
L241.632 195.684
L241.706 197.562
L241.781 201.617
L241.855 200.834
L241.93 203.103
L242.078 183.727
L242.376 145.457
L242.45 134.813
L242.525 138.995
L242.822 159.062
L243.343 269.988
L243.492 284.769
L243.641 260.484
L244.013 207.032
L244.087 204.659
L244.608 263.249
L244.757 284.907
L245.278 224.208
L245.426 236.154
L245.501 229.772
L245.947 103.663
L246.022 100.667
L246.17 119.618
L246.766 259.782
L246.84 252.098
L246.989 227.284
L247.138 239.829
L247.361 287.13
L247.51 247.778
L247.733 213.61
L247.807 218.321
L248.03 273.156
L248.105 271.832
L248.254 276.716
L248.328 274.32
L248.477 250.658
L248.849 150.653
L248.923 150.445
L249.072 144.04
L249.146 139.34
L249.518 210.142
L249.593 205.603
L249.742 198.288
L250.188 225.729
L250.411 203.541
L250.709 225.901
L250.932 203.564
L251.081 218.886
L251.304 291.404
L251.378 286.393
L251.676 257.973
L251.75 247.121
L251.825 251.153
L251.899 243.043
L252.122 196.33
L252.197 198.311
L252.346 210.995
L252.42 209.243
L252.941 146.068
L253.09 167.403
L253.238 219.381
L253.313 217.411
L253.387 212.665
L253.462 214.923
L253.61 232.514
L253.759 215.268
L253.982 177.921
L254.057 182.621
L254.354 231.189
L254.503 239.656
L254.578 238.619
L254.726 258.872
L254.875 278.79
L254.95 278.605
L255.098 252.582
L255.396 213.955
L255.47 219.692
L255.694 271.037
L255.768 261.153
L255.991 180.49
L256.066 181.423
L256.14 190.881
L256.214 189.936
L256.661 147.289
L256.735 146.586
L256.81 147.393
L256.884 150.549
L257.33 216.029
L257.479 208.863
L257.628 230.82
L257.926 299.134
L258.074 261.003
L258.298 209.981
L258.372 211.847
L258.744 251.545
L259.042 281.37
L259.19 271.071
L259.786 151.816
L259.934 142.163
L260.306 186.86
L260.381 181.907
L260.604 154.074
L260.678 154.823
L260.827 189.441
L261.125 263.192
L261.348 283.835
L261.646 208.771
L261.794 205.857
L261.869 206.928
L262.241 281.531
L262.39 311.057
L262.464 308.385
L262.538 311.253
L262.687 296.911
L263.282 137.566
L263.506 96.336
L263.654 105.863
L263.878 153.13
L263.952 154.5
L264.101 172.955
L264.473 233.113
L264.547 232.548
L264.622 235.014
L264.77 221.651
L264.845 221.915
L264.994 211.824
L265.142 220.717
L265.366 266.429
L265.589 312.497
L265.886 286.808
L266.035 263.445
L266.184 227.261
L266.258 225.395
L266.333 225.625
L266.407 224.611
L266.482 225.867
L266.63 236.822
L266.705 234.369
L266.854 190.523
L267.002 165.444
L267.077 159.339
L267.374 98.2368
L267.449 101.877
L267.821 185.409
L267.97 207.907
L268.044 206.398
L268.118 211.121
L268.267 204.209
L268.342 205.995
L268.49 225.625
L268.788 305.205
L269.011 291.681
L269.234 299.48
L269.383 282.534
L269.755 210.292
L269.904 233.113
L270.127 178.416
L270.202 178.474
L270.35 190.466
L270.499 205.499
L270.574 205.235
L270.722 177.656
L270.871 163.417
L270.946 162.841
L271.243 116.957
L271.69 186.515
L272.062 320.296
L272.136 313.258
L272.359 249.149
L272.508 280.932
L272.657 307.463
L272.88 259.978
L273.103 193.979
L273.178 192.482
L273.624 239.875
L273.773 226.431
L274.294 97.6147
L274.889 222.572
L275.038 232.226
L275.186 218.114
L275.261 219.035
L275.484 231.201
L275.558 228.309
L275.633 228.563
L275.782 238.078
L275.856 235.751
L275.93 237.191
L276.302 281.013
L276.451 271.233
L276.526 269.009
L276.6 261.014
L276.749 270.541
L277.27 173.601
L277.344 166.689
L277.418 166.815
L277.493 163.82
L277.716 122.797
L278.014 161.459
L278.311 192.574
L278.534 237.663
L278.609 238.193
L278.758 228.563
L278.832 231.224
L278.981 251.856
L279.204 241.626
L279.278 242.778
L279.353 244.794
L279.502 232.641
L279.576 235.002
L279.874 277.891
L280.469 230.118
L281.064 153.291
L281.138 165.133
L281.213 163.636
L281.436 141.805
L281.882 178.186
L282.106 232.433
L282.254 216.524
L282.329 222.86
L282.478 213.172
L282.626 253.665
L282.85 286.704
L282.924 277.707
L283.147 225.786
L283.222 222.019
L283.296 222.123
L283.445 239.219
L283.519 239.437
L283.668 242.214
L283.891 267.408
L284.338 221.627
L284.71 159.972
L284.784 153.706
L284.933 163.29
L285.007 159.788
L285.156 144.34
L285.677 209.347
L286.049 265.91
L286.495 242.456
L286.793 198.933
L286.867 200.039
L287.462 270.438
L287.834 222.595
L287.909 225.325
L288.281 194.636
L288.653 156.747
L288.727 155.272
L288.802 156.77
L288.876 151.252
L288.95 152.507
L289.099 147.519
L289.248 157.91
L289.694 273.525
L289.769 274.389
L289.992 268.468
L290.215 241.557
L290.364 252.812
L290.438 247.87
L290.513 248.435
L290.587 260.081
L290.662 259.736
L290.81 237.364
L291.034 196.756
L291.182 200.765
L291.331 184.81
L291.48 198.346
L291.703 223.724
L291.852 212.699
L291.926 216.029
L292.001 215.28
L292.075 221.028
L292.15 217.158
L292.596 139.859
L293.042 205.05
L293.489 290.275
L293.638 318.234
L293.786 303.189
L294.158 239.806
L294.382 157.945
L294.456 161.044
L294.605 153.037
L294.828 187.989
L295.349 295.252
L295.423 284.746
L295.721 190.811
L295.795 184.13
L296.242 79.9776
L296.316 84.4243
L296.539 129.951
L296.837 254.102
L297.209 353.808
L297.283 351.999
L297.878 185.167
L298.102 210.119
L298.176 211.571
L298.474 280.737
L298.548 295.263
L298.622 290.598
L299.069 164.454
L299.292 138.2
L299.515 68.7456
L299.664 93.9629
L300.408 313.638
L300.482 307.832
L300.557 311.357
L300.706 332.588
L300.78 323.925
L301.226 192.862
L301.301 193.715
L301.45 203.507
L301.524 200.915
L301.598 207.412
L301.896 294.365
L301.97 280.806
L302.268 163.947
L302.64 211.789
L303.235 148.383
L303.31 152.438
L303.756 227.572
L303.905 208.506
L303.979 211.812
L304.202 245.462
L304.277 243.585
L304.5 256.717
L304.649 233.366
L304.723 238.873
L304.872 257.028
L305.021 258.307
L305.17 265.691
L305.616 222.319
L305.765 243.573
L305.839 241.995
L306.062 218.148
L306.286 162.058
L306.732 140.054
L307.327 225.775
L307.476 252.409
L307.625 228.298
L307.699 229.795
L307.997 270.161
L308.071 269.159
L308.369 246.879
L308.815 200.661
L309.038 236.938
L309.113 251.349
L309.187 250.946
L309.41 230.924
L309.485 230.959
L309.634 237.145
L309.708 236.154
L309.782 238.182
L309.857 234.15
L310.303 93.0989
L310.452 109.342
L311.047 261.694
L311.196 274.401
L311.419 253.953
L311.568 212.4
L311.642 212.653
L311.94 242.363
L312.014 242.075
L312.089 243.619
L312.461 266.152
L312.535 266.579
L312.684 256.913
L312.982 216.685
L313.13 203.207
L313.205 208.621
L313.279 208.541
L313.354 202.02
L313.651 123.65
L313.726 127.613
L313.874 146.851
L314.023 143.856
L314.246 165.755
L314.544 248.688
L314.618 249.264
L314.767 229.035
L315.065 276.555
L315.139 274.539
L315.288 261.763
L315.586 221.282
L315.734 238.884
L315.809 236.938
L315.958 214.347
L316.032 220.51
L316.181 249.46
L316.255 248.446
L316.553 217.757
L316.627 219.404
L316.85 241.523
L317.074 216.144
L317.148 219.807
L317.371 195.535
L317.818 99.6077
L317.966 115.908
L318.413 236.938
L318.636 254.068
L318.934 336.862
L319.082 291.082
L319.38 235.901
L319.603 218.794
L319.901 212.642
L320.05 229.288
L320.198 240.405
L320.347 222.526
L320.496 208.253
L320.645 216.916
L320.719 208.932
L320.868 164.995
L320.942 166.666
L321.017 167.357
L321.389 129.306
L321.612 151.816
L322.356 299.261
L322.43 297.36
L322.654 312.728
L322.728 318.868
L322.802 318.476
L322.951 296.162
L323.1 251.672
L323.323 151.114
L323.398 149.42
L323.472 153.521
L323.621 144.87
L323.918 181.123
L324.142 221.432
L324.29 215.361
L324.439 241.419
L324.514 235.256
L324.886 182.494
L325.183 169.903
L325.258 172.979
L325.406 205.142
L325.481 197.839
L325.555 197.631
L325.778 232.917
L326.076 330.803
L326.374 287.153
L326.671 173.508
L326.82 167.057
L326.894 168.912
L326.969 173.727
L327.043 170.882
L327.118 173.601
L327.638 251.268
L327.713 252.582
L327.787 262.27
L327.862 260.335
L328.308 170.813
L328.457 155.883
L328.68 143.568
L328.754 140.723
L328.978 175.409
L329.201 232.675
L329.35 268.629
L329.424 266.486
L329.498 270.887
L329.722 303.754
L329.945 282.545
L330.094 243.711
L330.317 196.33
L330.466 184.637
L330.614 190.328
L330.763 181.619
L330.912 190.662
L331.21 271.244
L331.284 262.973
L331.507 174.683
L331.656 175.64
L331.805 154.443
L331.879 164.488
L332.028 186.25
L332.177 189.648
L332.4 215.338
L332.549 207.803
L332.921 224.45
L332.995 224.427
L333.07 221.489
L333.367 265.035
L333.442 263.18
L333.962 231.431
L334.186 269.194
L334.26 267.304
L334.483 203.507
L334.706 144.386
L335.153 182.771
L335.227 182.16
L335.376 167.288
L335.45 165.502
L335.674 216.155
L335.748 212.481
L335.971 194.026
L336.12 243.101
L336.343 276.647
L336.418 272.742
L336.566 245.785
L336.715 261.187
L336.864 249.748
L337.013 254.943
L337.162 235.866
L337.385 187.632
L337.459 194.498
L337.682 254.287
L337.831 220.89
L337.98 161.159
L338.054 162.15
L338.278 224.219
L338.352 222.906
L338.724 157.553
L338.873 171.515
L339.022 187.436
L339.096 186.157
L339.17 179.706
L339.394 194.901
L339.617 246.015
L339.691 239.679
L339.766 241.615
L339.989 253.181
L340.063 263.514
L340.212 250.635
L340.435 219.093
L340.584 239.276
L340.733 224.911
L340.807 226.996
L340.956 197.274
L341.105 231.178
L341.179 229.876
L341.254 224.323
L341.328 228.067
L341.7 283.72
L342.221 193.795
L342.444 154.109
L342.667 90.3456
L342.742 93.0297
L342.89 113.409
L343.188 182.01
L343.709 268.364
L343.858 300.666
L344.155 275.161
L344.23 280.403
L344.304 293.466
L344.378 291.692
L344.602 252.939
L344.676 254.125
L344.75 250.831
L345.048 209.255
L345.271 222.699
L345.346 217.307
L345.42 224.024
L345.494 222.238
L345.718 160.79
L345.866 154.143
L345.941 157.219
L346.015 156.286
L346.164 145.377
L346.387 162.968
L346.462 164.891
L346.61 181.158
L347.057 248.976
L347.131 247.501
L347.206 239.495
L347.28 244.068
L347.652 287.672
L347.726 290.045
L347.801 287.038
L348.396 191.387
L348.545 214.785
L348.619 212.953
L348.768 195.166
L348.842 195.466
L348.917 196.03
L349.066 214.854
L349.214 239.99
L349.289 236.039
L349.661 208.264
L349.81 191.975
L350.033 129.675
L350.405 185.743
L350.479 179.891
L350.628 209.785
L350.851 236.857
L350.926 252.167
L351 251.867
L351.074 259.62
L351.223 289.86
L351.372 267.35
L351.446 269.309
L351.521 275.103
L351.595 272.488
L352.042 192.079
L352.116 190.604
L352.19 186.48
L352.414 154.247
L352.637 222.008
L352.786 234.357
L352.86 230.786
L352.934 226.685
L353.232 247.248
L353.53 209.428
L353.604 211.951
L353.753 221.075
L353.976 158.82
L354.125 160.998
L354.199 156.609
L354.274 157.311
L354.422 171.838
L354.497 165.709
L354.646 203.023
L354.794 239.334
L354.869 238.216
L354.943 236.684
L355.241 269.539
L355.315 276.923
L355.464 257.005
L355.538 245.186
L355.91 278.329
L355.985 270.864
L356.431 174.603
L356.654 194.59
L356.803 206.294
L357.026 170.963
L357.101 171.884
L357.324 141.898
L357.473 142.842
L357.547 144.317
L358.142 255.796
L358.217 261.567
L358.291 256.395
L358.514 230.198
L358.589 233.804
L358.812 256.153
L359.407 208.31
L359.482 208.345
L359.556 210.683
L359.705 233.194
L359.779 232.525
L359.928 227.341
L360.002 228.217
L360.3 182.552
L360.374 168.589
L360.449 177.494
L360.672 231.408
L360.821 248.193
L360.97 235.371
L361.044 236.281
L361.118 235.728
L361.267 206.986
L361.49 134.663
L361.565 134.847
L361.639 132.555
L361.862 157.231
L362.16 227.376
L362.234 222.146
L362.383 253.584
L362.606 280.264
L362.681 277.43
L362.904 244.126
L362.978 244.161
L363.202 271.889
L363.276 264.413
L363.574 191.756
L363.648 196.641
L363.871 248.642
L364.02 259.678
L364.169 219.37
L364.392 165.663
L364.466 156.643
L364.541 157.323
L364.615 157.968
L364.69 157.922
L364.913 167.253
L364.987 171.389
L365.136 164.615
L365.582 207.435
L365.657 202.896
L366.178 274.331
L366.252 269.839
L366.475 284.342
L366.847 220.314
L366.922 224.68
L367.07 237.053
L367.219 230.371
L367.294 238.09
L367.368 234.852
L367.591 202.067
L367.74 208.587
L367.814 204.843
L367.963 191.814
L368.038 195.385
L368.186 184.787
L368.261 176.342
L368.335 176.826
L368.41 176.538
L368.633 139.19
L368.707 141.575
L368.856 134.675
L369.154 186.169
L369.377 251.672
L369.526 288.95
L369.674 308.569
L370.046 264.332
L370.418 217.999
L370.567 225.913
L370.716 218.736
L370.865 223.436
L371.014 206.317
L371.088 194.843
L371.162 204.186
L371.311 251.361
L371.386 246.776
L371.683 183.75
L371.832 166.619
L371.906 174.303
L371.981 173.647
L372.055 165.802
L372.204 181.964
L372.278 193.046
L372.353 189.464
L372.576 160.468
L372.725 193.611
L372.874 233.493
L372.948 229.519
L373.097 218.955
L373.171 220.648
L373.246 226.143
L373.469 261.936
L373.543 254.724
L373.766 212.803
L373.915 206.836
L374.064 227.146
L374.213 264.655
L374.436 224.507
L374.51 219.185
L374.585 221.167
L374.808 243.055
L374.882 242.698
L374.957 240.993
L375.031 244.875
L375.254 219.519
L375.329 222.895
L375.478 232.606
L375.552 231.443
L376.073 175.801
L376.147 170.824
L376.222 173.739
L376.296 162.288
L376.445 88.9517
L376.519 97.9142
L377.189 300.516
L377.263 296.577
L377.561 228.539
L377.635 233.297
L377.784 268.825
L377.858 268.145
L378.007 238.85
L378.305 189.775
L378.379 183.969
L378.826 246.465
L378.9 246.165
L379.198 203.103
L379.793 105.391
L380.462 269.574
L380.537 271.659
L380.686 280.99
L380.76 282.407
L380.909 268.744
L381.058 295.448
L381.132 292.038
L381.281 256.395
L381.578 200.557
L381.653 197.412
L381.802 207.504
L381.95 195.074
L382.248 171.677
L382.322 167.887
L382.397 169.211
L382.546 198.875
L382.769 240.14
L382.918 243.608
L383.066 223.355
L383.29 176.089
L383.364 177.771
L383.587 217.584
L383.662 217.158
L384.182 183.231
L384.257 183.542
L384.629 227.929
L384.703 219.3
L384.778 218.102
L385.373 301.45
L385.447 298.259
L385.596 284.031
L385.67 281.082
L386.266 172.264
L386.34 173.474
L386.489 185.835
L386.563 184.51
L386.786 213.944
L386.935 200.269
L387.307 166.47
L387.382 170.387
L387.456 168.578
L387.53 167.668
L387.902 220.637
L387.977 213.805
L388.051 197.297
L388.126 198.311
L388.498 267.5
L388.572 261.89
L388.646 262.155
L388.721 265.427
L388.87 281.981
L388.944 281.969
L389.018 297.371
L389.093 295.413
L389.539 185.777
L389.614 170.905
L389.688 175.997
L389.762 183.381
L389.911 148.602
L389.986 152.68
L390.506 265.715
L390.581 259.655
L391.027 147.957
L391.325 193.991
L391.474 215.28
L391.622 197.908
L391.697 201.617
L392.069 279.216
L392.143 276.428
L392.441 233.85
L392.515 229.542
L392.59 230.89
L392.738 250.785
L392.813 247.594
L393.036 219.059
L393.334 237.306
L393.706 180.282
L393.929 150.561
L394.003 155.364
L394.301 220.533
L394.598 246.73
L394.673 230.832
L394.747 233.712
L394.822 246.522
L395.194 167.46
L395.268 171.746
L395.342 165.007
L395.491 142.739
L395.64 151.828
L395.789 178.462
L396.31 318.338
L396.384 316.552
L396.533 319.524
L397.5 153.037
L397.649 168.543
L397.946 236.673
L398.021 238.504
L398.095 237.502
L398.17 237.732
L398.244 229.45
L398.318 236.488
L398.393 233.263
L398.914 132.682
L398.988 129.974
L399.062 122.141
L399.137 125.343
L399.36 159.155
L399.881 337.3
L399.955 354.683
L400.03 353.071
L400.178 361.492
L400.699 170.939
L400.997 82.1088
L401.592 219.819
L401.815 237.467
L401.89 237.076
L402.038 234.046
L402.187 247.018
L402.262 245.958
L402.41 236.465
L402.485 245.681
L402.559 244.529
L402.782 222.918
L403.08 159.869
L403.675 279.112
L403.824 286.07
L403.898 283.985
L404.196 227.215
L404.419 162.219
L404.494 153.556
L404.568 155.422
L404.642 162.369
L404.94 108.605
L405.089 154.731
L405.461 304.502
L405.535 297.947
L405.982 221.558
L406.056 219.208
L406.279 179.948
L406.354 183.98
L406.502 168.163
L406.651 147.992
L406.726 144.536
L406.8 150.756
L407.321 312.52
L407.395 308.65
L407.842 222.48
L408.139 262.259
L408.214 257.72
L408.734 118.063
L408.809 123.834
L409.181 188.461
L409.627 240.198
L409.85 212.377
L409.999 216.812
L410.148 192.413
L410.222 192.574
L410.446 211.432
L410.594 199.382
L410.892 256.89
L410.966 249.379
L411.264 228.874
L411.338 224.565
L411.562 277.592
L411.636 271.532
L412.082 202.113
L412.157 204.14
L412.231 207.942
L412.306 207.631
L412.678 183.83
L412.752 188.888
L412.975 261.095
L413.05 277.937
L413.124 273.94
L413.273 232.767
L413.645 122.924
L414.091 139.686
L414.166 150.987
L414.538 261.245
L414.835 300.09
L414.984 291.082
L415.133 306.634
L415.207 305.816
L415.43 232.088
L415.654 174.845
L415.802 170.767
L416.249 229.196
L416.398 210.81
L416.472 197.723
L416.546 198.611
L416.844 268.698
L416.918 262.811
L417.142 221.086
L417.439 175.271
L417.662 113.201
L417.811 134.225
L418.109 194.993
L418.258 203.737
L418.63 267.293
L418.704 268.548
L418.853 283.812
L418.927 281.117
L419.002 276.474
L419.15 294.975
L419.299 268.906
L419.597 215.545
L420.118 134.928
L420.415 146.413
L420.638 209.428
L420.862 275.322
L421.01 300.597
L421.085 297.51
L421.159 297.279
L421.234 304.41
L421.457 277.154
L421.978 151.851
L422.201 110.552
L422.275 117.579
L422.647 205.626
L422.722 202.101
L423.168 277.235
L423.242 270.323
L423.391 232.986
L423.466 233.389
L423.838 177.011
L423.912 185.731
L424.284 284.619
L424.358 294.941
L424.805 234.553
L425.102 154.005
L425.251 136.541
L425.474 107.257
L425.549 110.655
L425.698 141.011
L426.144 330.63
L426.218 326.978
L426.367 316.218
L427.26 118.328
L427.334 120.217
L428.153 314.571
L428.674 156.298
L428.748 155.457
L428.822 161.424
L429.194 258.1
L429.269 251.142
L429.566 184.545
L429.864 220.28
L429.938 221.904
L430.013 218.563
L430.236 197.32
L430.459 218.817
L430.534 217.48
L430.608 216.547
L430.682 218.69
L430.906 246.787
L431.129 302.717
L431.203 300.563
L431.426 252.616
L431.575 202.758
L431.724 199.843
L431.873 205.407
L431.947 203.714
L432.245 153.89
L432.319 155.929
L432.468 178.059
L432.766 151.021
L432.84 156.079
L433.063 236.016
L433.138 228.056
L433.212 218.436
L433.286 221.915
L433.361 216.708
L433.51 231.12
L433.807 295.263
L433.882 294.296
L434.254 221.835
L434.328 228.574
L434.551 255.957
L434.774 223.091
L434.923 190.477
L434.998 193.173
L435.146 167.276
L435.37 132.601
L435.444 137.566
L435.89 229.277
L436.039 219.024
L436.188 227.491
L436.262 213.045
L436.411 238.09
L436.486 234.046
L436.634 207.193
L436.858 223.229
L437.006 250.036
L437.23 218.632
L437.304 225.36
L437.602 285.644
L437.825 251.937
L438.048 185.443
L438.346 156.298
L438.792 239.299
L438.941 258.561
L439.015 256.153
L439.61 193.185
L439.908 109.423
L440.057 146.344
L440.503 290.621
L440.578 287.545
L440.726 273.928
L441.024 223.286
L441.098 208.091
L441.173 214.554
L441.247 217.745
L441.322 229.046
L441.396 225.395
L441.694 186.008
L441.768 181.584
L441.842 181.619
L442.586 257.789
L442.661 256.13
L443.33 172.771
L443.405 175.375
L443.851 213.402
L443.926 205.246
L444.074 218.079
L444.223 196.917
L444.298 207.216
L444.372 228.586
L444.446 223.275
L444.521 209.209
L444.595 214.923
L444.818 250.969
L444.967 246.66
L445.19 259.69
L445.339 244.184
L445.488 263.376
L445.934 166.631
L446.083 194.371
L446.158 188.081
L446.232 172.287
L446.306 175.674
L446.381 187.966
L446.455 186.895
L446.53 184.452
L446.678 205.062
L446.902 246.58
L446.976 240.186
L447.348 183.934
L447.422 184.591
L447.497 188.104
L447.646 182.183
L447.869 223.125
L447.943 228.113
L448.166 268.364
L448.241 271.763
L448.39 263.572
L448.464 256.072
L448.613 225.994
L448.762 241.511
L448.836 237.053
L449.059 193.818
L449.431 212.884
L449.506 209.589
L449.58 208.909
L449.654 204.705
L449.878 170.018
L449.878 170.018" style="fill:none;stroke:#808080;stroke-linecap:square;"/>
   </g>
  </g>
 </g>
 <defs>
  <clipPath id="p7ff5b81e1d">
   <rect height="345.6" width="446.4" x="72.0" y="43.2"/>
  </clipPath>
 </defs>
</svg>
