<?xml version="1.0" encoding="utf-8" standalone="no"?>
<!DOCTYPE svg PUBLIC "-//W3C//DTD SVG 1.1//EN"
  "http://www.w3.org/Graphics/SVG/1.1/DTD/svg11.dtd">
<!-- Created with matplotlib (http://matplotlib.org/) -->
<svg height="432pt" version="1.1" viewBox="0 0 576 432" width="576pt" xmlns="http://www.w3.org/2000/svg" xmlns:xlink="http://www.w3.org/1999/xlink">
 <defs>
  <style type="text/css">
*{stroke-linecap:butt;stroke-linejoin:round;}
  </style>
 </defs>
 <g id="figure_1">
  <g id="patch_1">
   <path d="
M0 432
L576 432
L576 0
L0 0
z
" style="fill:#ffffff;"/>
  </g>
  <g id="axes_1">
   <g id="line2d_1">
    <path clip-path="url(#p7ff5b81e1d)" d="
M72 227.254
L72.0744 226.03
L72.4464 255.06
L72.6696 273.416
L72.8928 254.497
L73.1904 238.916
L73.3392 255.88
L73.5624 290.815
L73.6368 288.494
L73.86 276.458
L74.0088 264.164
L74.1576 246.035
L74.5296 171.494
L74.604 166.952
L74.7528 179.078
L74.9016 189.495
L75.0504 186.444
L75.1248 188.083
L75.9432 293.767
L76.092 300.373
L76.2408 286.707
L76.464 251.486
L76.5384 255.228
L76.6128 256.235
L76.9104 241.898
L77.208 234.196
L77.2824 242.47
L77.3568 242.194
L77.7288 217.222
L77.8032 226.435
L77.952 214.892
L78.1008 236.566
L78.5472 200.495
L78.6216 203.408
L78.7704 230.374
L78.8448 229.348
L79.068 217.874
L79.1424 220.619
L79.2912 231.589
L79.3656 233.179
L79.5144 258.911
L79.7376 305.004
L79.8864 295.969
L80.0352 312.874
L80.1096 308.144
L80.4816 264.283
L80.6304 266.485
L80.7792 246.736
L81.3 142.967
L81.3744 146.384
L81.5976 163.476
L81.672 163.377
L81.8952 217.943
L82.3416 325.869
L82.4904 333.985
L82.6392 331.082
L82.788 308.342
L83.2344 199.715
L83.3832 187.095
L83.4576 189.337
L83.6064 184.913
L83.904 200.485
L84.3504 256.462
L84.648 338.606
L84.7224 336.345
L85.6896 149.188
L85.764 145.732
L85.9872 179.324
L86.2104 239.577
L86.2848 235.756
L86.3592 237.257
L86.9544 311.511
L87.1032 330.371
L87.5496 260.55
L87.8472 211.9
L87.9216 202.973
L87.996 207.446
L88.1448 195.716
L88.2192 201.68
L88.2936 199.28
L88.368 196.604
L88.8144 232.932
L88.8888 234.699
L89.0376 254.379
L89.1864 237.948
L89.4096 210.389
L89.5584 231.599
L89.856 261.548
L90.3024 234.314
L90.3768 239.064
L90.5256 227.136
L90.972 271.521
L91.0464 269.96
L91.2696 286.451
L91.4184 285.009
L91.5672 261.281
L91.6416 275.668
L91.716 271.155
L92.088 233.702
L92.2368 171.692
L92.3112 172.383
L92.46 157.739
L92.5344 158.509
L93.4272 259.75
L93.576 295.9
L93.6504 293.254
L93.7248 297.213
L93.8736 330.411
L94.2456 281.879
L94.32 286.944
L94.4688 259.375
L94.7664 200.021
L94.9152 187.441
L94.9896 187.935
L95.1384 195.222
L95.3616 216.837
L95.5104 252.542
L95.5848 251.338
L95.808 235.815
L95.8824 232.883
L95.9568 233.909
L96.0312 235.835
L96.1056 232.596
L96.18 236.556
L96.3288 256.867
L96.4776 243.399
L96.6264 259.118
L96.7752 240.377
L96.8496 241.167
L96.9984 250.192
L97.3704 225.793
L97.668 211.05
L97.7424 208.868
L97.8168 210.399
L98.2632 286.332
L98.3376 288.544
L98.6352 267.225
L98.784 245.334
L98.9328 251.17
L99.0072 251.338
L99.3048 244.712
L99.3792 244.86
L99.4536 243.458
L99.6024 225.269
L99.7512 239.765
L99.9744 200.307
L100.049 203.507
L100.123 201.147
L100.272 212.176
L100.421 203.546
L100.495 204.05
L100.57 211.722
L100.718 198.431
L100.867 213.766
L100.942 212.956
L101.016 222.623
L101.239 286.223
L101.314 285.473
L101.388 292.691
L101.462 292.148
L101.611 275.302
L101.76 281.059
L101.834 282.363
L102.058 291.23
L102.132 294.143
L102.206 284.644
L102.43 237.8
L102.578 226.405
L102.653 228.103
L102.727 229.792
L102.802 223.848
L103.025 184.518
L103.174 189.929
L103.322 202.213
L103.694 174.466
L103.918 209.727
L104.29 291.141
L104.438 306.189
L104.662 296.907
L104.736 297.174
L104.81 293.343
L105.108 243.112
L105.406 223.966
L105.48 225.892
L105.629 247.408
L105.703 248.592
L106.075 204.533
L106.15 206.735
L106.745 266.475
L107.042 238.333
L107.117 236.526
L107.191 241.019
L107.266 240.575
L107.414 232.675
L107.786 195.735
L107.935 206.054
L108.084 204.632
L108.307 256.433
L108.382 268.953
L108.456 265.349
L108.53 260.491
L108.605 261.617
L108.679 262.456
L108.828 245.808
L109.2 260.363
L109.274 259.82
L109.572 241.078
L109.721 269.496
L109.795 267.067
L109.87 264.925
L110.093 287.655
L110.167 284.091
L110.614 211.268
L110.762 190.275
L110.911 170.694
L111.209 205.649
L111.506 262.17
L111.73 237.849
L111.953 252.364
L112.176 269.605
L112.325 246.035
L112.399 246.104
L112.474 244.347
L112.622 232.31
L112.771 250.005
L112.92 264.283
L113.143 244.584
L113.218 246.756
L113.292 247.348
L113.366 246.549
L113.441 248.198
L113.59 266.406
L113.738 245.976
L113.813 242.52
L114.036 222.771
L114.11 234.097
L114.185 232.033
L114.259 219.463
L114.334 224.144
L114.482 243.794
L114.706 218.96
L114.854 205.373
L115.078 252.463
L115.152 245.571
L115.226 242.224
L115.375 261.143
L115.45 255.919
L115.673 229.348
L115.822 219.246
L115.97 247.674
L116.119 262.802
L116.194 255.939
L116.417 272.37
L116.566 262.298
L116.64 266.455
L116.789 256.215
L116.938 233.455
L117.012 233.663
L117.161 224.953
L117.235 220.48
L117.31 228.607
L117.458 214.26
L117.607 235.005
L117.682 233.208
L117.979 206.4
L118.054 206.893
L118.128 213.973
L118.202 213.371
L118.277 213.539
L118.574 256.196
L118.649 265.478
L118.723 261.538
L118.872 255.455
L119.244 287.863
L119.542 255.544
L119.839 214.635
L119.914 212.838
L120.211 195.291
L120.36 214.358
L120.658 258.111
L120.732 256.996
L120.881 247.457
L121.03 263.631
L121.253 291.654
L121.402 285.404
L121.774 215.988
L121.848 219.295
L121.922 220.273
L122.146 250.163
L122.22 247.319
L122.741 176.421
L122.964 206.627
L123.187 229.13
L123.262 233.366
L123.559 279.864
L123.782 300.186
L123.857 296.641
L124.006 289.936
L124.08 289.314
L124.154 295.663
L124.229 291.723
L124.378 270.839
L124.452 270.671
L124.675 233.1
L124.75 233.228
L124.824 234.541
L125.047 210.142
L125.27 176.629
L125.345 177.508
L125.494 166.596
L125.791 193.247
L126.014 226.958
L126.089 228.488
L126.535 316.281
L126.684 323.607
L126.758 319.845
L126.907 289.136
L126.982 293.481
L127.056 294.804
L127.205 275.727
L127.651 207.94
L127.874 193.247
L128.023 177.251
L128.172 186.562
L128.246 182.356
L128.395 190.719
L128.544 168.956
L129.139 290.706
L129.214 284.91
L129.362 271.145
L129.511 279.114
L129.734 305.478
L129.883 294.399
L130.404 217.834
L130.553 223.235
L130.85 208.236
L130.925 206.795
L131.074 195.034
L131.148 198.638
L131.52 257.035
L131.594 255.633
L131.669 254.152
L131.818 257.716
L131.966 250.113
L132.041 253.51
L132.19 265.013
L132.413 240.18
L132.562 218.575
L132.636 219.868
L132.71 218.101
L132.859 205.758
L132.934 207.683
L133.231 244.465
L133.38 272.074
L133.529 260.995
L133.678 252.118
L133.826 245.828
L133.901 245.423
L134.05 233.949
L134.198 263.562
L134.347 248.642
L134.645 274.789
L134.719 273.387
L134.794 274.206
L135.24 224.46
L135.314 226.356
L135.389 226.03
L135.463 234.403
L135.612 215.514
L135.761 199.764
L135.835 201.986
L136.207 232.794
L136.356 221.784
L136.505 249.61
L136.654 236.822
L136.802 245.117
L136.877 243.517
L136.951 239.459
L137.174 253.826
L137.249 251.742
L137.323 241.769
L137.398 242.263
L137.844 289.136
L137.918 288.494
L138.067 271.53
L138.365 233.554
L138.514 221.764
L138.588 209.48
L138.662 211.989
L138.811 224.598
L138.886 224.825
L139.258 196.96
L139.332 199.448
L139.481 203.714
L139.853 236.97
L140.002 265.092
L140.15 250.36
L140.299 259.711
L140.374 255.238
L140.448 255.988
L140.597 294.676
L140.671 287.043
L140.746 288.801
L140.82 293.54
L140.894 293.066
L141.118 259.889
L141.341 228.706
L141.415 226.405
L141.49 227.116
L141.564 225.773
L141.713 208.967
L141.936 231.954
L142.01 225.289
L142.159 195.094
L142.308 207.022
L142.382 206.805
L142.68 218.614
L142.903 251.644
L142.978 250.044
L143.126 268.904
L143.201 267.354
L143.275 256.344
L143.35 260.797
L143.498 275.5
L143.573 271.856
L143.722 285.927
L144.614 190.344
L144.912 213.085
L145.135 247.21
L145.433 260.531
L145.507 259.632
L145.656 255.258
L145.73 254.784
L145.879 247.408
L146.028 251.644
L146.102 257.746
L146.177 256.443
L146.251 254.478
L146.4 260.846
L146.549 241.868
L146.623 245.146
L146.846 254.843
L147.07 241.463
L147.293 228.666
L147.516 214.852
L147.665 224.233
L147.814 217.074
L148.111 203.585
L148.558 234.166
L149.153 304.274
L149.227 310.287
L149.302 308.332
L149.45 284.594
L149.599 264.49
L149.674 265.339
L150.566 149.257
L150.641 154.135
L151.087 239.153
L151.162 241.246
L151.31 261.696
L151.459 245.048
L151.831 328.703
L151.906 348.816
L151.98 346.16
L152.947 162.429
L153.245 156.505
L153.691 214.526
L153.989 291.309
L154.063 299.178
L154.286 275.599
L154.361 283.478
L154.435 279.766
L154.658 263.69
L154.807 254.102
L154.882 254.458
L155.105 272.538
L155.179 267.719
L155.254 261.478
L155.402 274.305
L155.551 256.294
L156.072 172.531
L156.295 197.533
L156.444 189.663
L156.667 216.6
L157.039 293.195
L157.188 298.211
L157.486 283.429
L157.709 250.172
L158.006 209.51
L158.081 203.151
L158.155 207.466
L158.304 238.935
L158.378 238.313
L158.602 194.709
L158.676 201.364
L158.899 244.11
L158.974 243.349
L159.122 266.732
L159.197 263.513
L159.42 242.777
L159.643 263.414
L159.718 260.718
L159.792 256.788
L159.941 232.172
L160.015 235.005
L160.09 236.704
L160.238 248.049
L160.387 225.171
L160.536 240.17
L160.61 239.538
L160.834 227.274
L160.908 229.555
L161.131 251.15
L161.206 243.971
L161.354 267.65
L161.429 264.016
L161.503 253.717
L161.578 254.774
L161.652 251.466
L161.801 226.583
L161.95 230.049
L162.024 219.434
L162.098 220.174
L162.47 250.143
L162.545 251.189
L162.619 242.48
L162.768 255.633
L163.214 231.253
L163.289 217.913
L163.363 219.69
L163.661 234.453
L163.735 229.239
L163.884 246.233
L163.958 255.998
L164.033 253.066
L164.107 249.886
L164.33 265.833
L164.479 247.477
L164.554 252.335
L164.628 255.939
L164.926 232.725
L165.223 177.192
L165.372 190.818
L166.116 318.058
L166.414 280.111
L166.562 284.811
L166.711 255.08
L167.158 153.928
L167.306 151.469
L167.381 156.831
L168.05 277.919
L168.199 265.764
L168.274 268.183
L168.348 267.324
L168.497 255.317
L168.869 276.438
L168.943 274.315
L169.018 274.828
L169.092 273.841
L169.166 269.289
L169.39 234.867
L169.464 236.536
L169.613 222.742
L169.762 211.633
L169.836 212.087
L170.134 185.269
L170.208 174.851
L170.282 179.749
L171.026 287.003
L171.175 279.894
L171.324 289.433
L171.473 248.701
L171.547 248.741
L171.77 267.719
L171.845 264.954
L171.919 254.586
L171.994 258.546
L172.068 254.665
L172.217 208.424
L172.44 145.623
L172.663 184.232
L172.886 223.917
L173.184 277.741
L173.407 314.217
L173.482 317.555
L173.556 315.491
L173.705 295.436
L174.226 214.506
L174.3 215.217
L174.523 198.125
L174.746 176.155
L174.895 199.053
L175.193 232.033
L175.267 230.611
L175.342 230.878
L175.416 222.791
L175.565 188.399
L175.862 265.655
L176.086 332.998
L176.16 338.448
L176.83 222.011
L176.904 221.863
L177.053 201.887
L177.127 207.792
L177.202 201.69
L177.276 203.803
L177.425 213.47
L177.499 208.147
L177.648 227.432
L177.722 219.197
L177.871 233.455
L178.02 213.055
L178.094 214.822
L178.169 212.976
L178.541 282.679
L178.913 240.328
L179.062 263.167
L179.136 257.657
L179.21 259.76
L179.285 259.197
L179.434 219.483
L179.508 226.158
L179.657 216.718
L179.806 257.183
L179.88 247.18
L179.954 251.92
L180.029 260.333
L180.178 234.225
L180.326 251.426
L180.401 241.039
L180.475 247.101
L180.55 242.5
L180.624 229.367
L180.698 235.252
L180.773 240.584
L180.922 228.558
L180.996 236.783
L181.368 213.904
L181.442 234.275
L181.517 232.981
L181.591 226.8
L181.74 249.955
L181.889 226.77
L181.963 226.207
L182.038 208.207
L182.261 252.937
L182.41 300.344
L182.782 239.084
L182.856 242.994
L183.005 231.204
L183.154 252.621
L183.302 236.674
L183.377 245.235
L183.526 236.339
L183.6 238.916
L183.674 235.252
L183.972 188.32
L184.046 192.23
L184.344 281.968
L184.418 270.543
L184.493 268.43
L184.567 278.373
L184.716 249.669
L184.79 267.847
L184.865 264.342
L184.939 247.526
L185.088 267.887
L185.237 235.963
L185.311 244.455
L185.46 223.265
L185.534 236.003
L185.683 216.333
L185.758 218.16
L185.906 201.502
L185.981 213.549
L186.055 212.976
L186.13 204.425
L186.278 220.619
L186.353 200.307
L186.725 290.045
L186.799 278.146
L186.874 265.32
L186.948 279.805
L187.022 274.187
L187.097 252.957
L187.246 269.615
L187.394 242.885
L187.469 247.615
L187.618 227.955
L187.692 233.129
L187.841 214.427
L187.915 232.586
L187.99 227.679
L188.064 224.055
L188.138 240.96
L188.213 239.113
L188.287 224.341
L188.436 258.447
L188.51 243.26
L188.659 283.626
L188.808 264.658
L188.882 286.905
L189.254 208.365
L189.329 218.338
L189.478 208.7
L189.626 240.486
L189.701 238.965
L189.775 240.979
L189.85 249.254
L189.924 246.005
L189.998 245.61
L190.073 260.491
L190.222 234.581
L190.445 213.509
L190.594 224.726
L190.668 200.682
L190.742 203.556
L190.817 213.588
L190.891 202.786
L190.966 206.163
L191.04 241.315
L191.114 240.703
L191.189 236.822
L191.486 306.604
L191.635 283.014
L191.71 286.283
L191.784 282.333
L191.858 262.249
L191.933 263.414
L192.007 257.568
L192.156 232.023
L192.23 239.449
L192.379 226.326
L192.454 230.858
L192.528 219.769
L192.602 192.102
L192.677 204.504
L192.751 209.392
L192.826 180.648
L192.9 183.807
L192.974 212.887
L193.049 204.78
L193.123 210.616
L193.272 264.855
L193.421 316.607
L193.495 313.694
L193.57 296.848
L193.644 302.111
L193.718 306.061
L193.942 274.512
L194.09 250.923
L194.165 241.463
L194.239 211.712
L194.314 211.771
L194.388 212.403
L194.537 181.062
L194.686 190.127
L194.76 177.004
L194.834 181.981
L195.058 199.656
L195.355 217.015
L195.578 259.75
L195.802 229.199
L196.025 249.363
L196.099 253.668
L196.174 247.645
L196.397 313.022
L196.471 315.027
L196.62 342.793
L196.694 359.056
L196.769 350.327
L197.141 249.432
L197.29 239.113
L197.587 164.592
L197.662 149.208
L197.736 152.881
L197.81 150.136
L197.885 137.467
L198.108 155.172
L198.257 207.318
L198.331 199.922
L198.406 207.308
L198.703 261.153
L198.778 262.713
L199.075 282.501
L199.15 281.089
L199.298 265.942
L199.373 272.222
L199.447 269.565
L199.522 256.294
L199.596 260.619
L199.819 285.651
L199.894 290.933
L199.968 283.083
L200.266 222.337
L200.414 247.882
L200.489 235.41
L200.563 223.986
L200.638 227.935
L200.786 219.295
L200.861 226.405
L201.084 201.235
L201.158 204.198
L201.382 212.324
L201.456 208.671
L201.679 225.141
L201.828 271.688
L201.902 271.135
L202.126 298.171
L202.349 262.239
L202.423 233.277
L202.498 241.246
L202.572 259.711
L202.944 195.627
L203.018 202.884
L203.093 201.127
L203.167 197.809
L203.39 207.278
L203.539 234.285
L203.614 232.349
L203.837 260.402
L203.911 258.348
L203.986 258.457
L204.06 261.222
L204.134 260.126
L204.209 262.347
L204.283 262.101
L204.358 261.725
L204.506 268.173
L204.655 277.643
L204.73 277.978
L204.878 256.265
L205.102 223.077
L205.25 228.874
L205.325 228.281
L205.474 240.851
L205.622 231.461
L205.697 236.417
L205.92 215.02
L206.069 211.554
L206.292 238.471
L206.441 251.436
L206.59 237.859
L206.664 243.547
L206.738 241.651
L206.962 227.244
L207.036 227.076
L207.11 233.761
L207.185 232.527
L207.259 224.795
L207.631 273.604
L207.706 267.847
L208.003 252.453
L208.152 270.326
L208.226 267.67
L208.301 269.753
L208.375 265.181
L208.598 235.321
L208.673 224.628
L208.747 224.766
L208.822 227.343
L208.97 217.646
L209.045 228.824
L209.119 228.646
L209.194 212.848
L209.268 219.473
L209.342 220.105
L209.417 204.05
L209.491 207.17
L209.566 214.961
L209.64 209.964
L209.789 225.467
L209.938 203.24
L210.235 271.935
L210.31 276.181
L210.384 261.528
L210.458 263.295
L210.533 263.661
L210.607 254.31
L210.682 255.544
L210.756 260.254
L210.83 251.969
L210.905 253.648
L211.054 283.113
L211.128 280.111
L211.202 286.065
L211.723 239.745
L211.872 217.064
L211.946 211.05
L212.095 174.664
L212.17 185.338
L212.318 158.371
L212.393 175.197
L212.542 149.356
L213.211 318.888
L213.286 306.831
L213.36 321.089
L213.434 312.647
L213.509 285.572
L213.583 285.641
L213.658 298.122
L213.806 281.849
L213.881 293.757
L213.955 290.696
L214.402 199.083
L214.476 176.599
L214.55 177.636
L214.625 180.104
L214.774 135.374
L214.848 147.49
L214.922 147.065
L214.997 150.314
L215.146 196.219
L215.22 194.906
L215.369 269.447
L215.443 265.349
L215.592 296.878
L215.666 281.602
L215.741 285.266
L215.815 297.233
L215.89 290.963
L215.964 293.412
L216.038 307.305
L216.41 268.124
L216.485 268.055
L217.154 202.292
L217.229 206.844
L217.378 199.784
L217.452 212.354
L217.526 207.496
L217.601 204.129
L217.824 241.819
L217.898 234.66
L217.973 234.433
L218.047 217.567
L218.122 218.822
L218.196 239.212
L218.27 233.238
L218.345 233.179
L218.494 263.522
L218.568 253.925
L218.642 266.109
L218.717 265.349
L218.791 254.645
L218.866 267.749
L218.94 263.829
L219.014 247.783
L219.163 257.647
L219.238 236.19
L219.386 267.472
L219.535 242.954
L219.61 247.842
L219.758 224.756
L219.907 243.26
L219.982 227.748
L220.13 259.326
L220.279 228.024
L220.354 238.521
L220.428 217.212
L220.502 220.076
L220.577 237.701
L220.726 193.978
L220.8 217.449
L220.874 216.748
L220.949 204.691
L221.246 258.773
L221.321 272.814
L221.47 256.946
L221.544 272.913
L221.693 257.864
L221.767 282.748
L221.842 278.857
L221.916 268.953
L222.065 292.711
L222.362 227.294
L222.586 206.518
L222.66 200.643
L222.734 213.025
L222.883 166.251
L223.181 232.497
L223.255 241.147
L223.33 229.15
L223.478 248.869
L223.627 227.699
L223.776 235.104
L223.85 231.875
L224.222 288.445
L224.52 265.793
L224.669 278.798
L224.818 268.815
L224.892 282.353
L225.264 211.564
L225.413 236.19
L225.562 194.975
L225.636 191.638
L225.71 173.054
L225.785 173.074
L225.859 189.189
L225.934 187.718
L226.008 194.136
L226.157 239.587
L226.231 239.439
L226.38 270.849
L226.454 261.439
L226.603 295.91
L226.678 275.085
L226.752 276.626
L226.826 292.039
L226.975 259.908
L227.05 268.242
L227.198 229.614
L227.273 236.111
L227.347 238.323
L227.422 222.05
L227.719 260.619
L227.794 262.377
L227.942 252.364
L228.017 253.174
L228.463 172.195
L228.538 174.743
L228.612 172.274
L228.686 172.738
L229.133 273.13
L229.356 304.392
L229.43 315.441
L229.802 265.349
L229.877 267.492
L229.951 265.744
L230.174 232.497
L230.546 200.416
L230.621 203.349
L230.695 213.934
L230.77 212.749
L230.844 207.288
L230.918 207.575
L231.067 214.289
L231.439 259.948
L231.514 261.074
L231.737 280.368
L231.811 279.539
L231.886 272.488
L232.109 234.551
L232.258 216.945
L232.853 248.592
L232.927 250.024
L233.076 257.756
L233.225 251.841
L233.374 262.555
L233.671 211.357
L233.746 218.081
L233.969 242.826
L234.043 250.478
L234.118 250.202
L234.192 248.069
L234.341 262.545
L234.415 261.36
L234.49 255.919
L234.713 203.062
L234.787 205.235
L234.936 195.785
L235.234 223.216
L235.606 260.155
L235.754 293.609
L235.829 292.75
L235.903 292.819
L235.978 299.554
L236.126 275.668
L236.201 289.492
L236.275 282.264
L236.498 234.63
L236.573 219.631
L236.722 234.058
L236.87 222.218
L236.945 224.41
L237.242 184.064
L237.317 168.196
L238.135 299.781
L238.21 300.906
L238.433 289.284
L238.73 249.649
L238.805 246.381
L238.879 246.805
L238.954 247.477
L239.028 245.739
L239.251 219.355
L239.623 145.732
L239.698 148.467
L240.442 295.663
L240.59 304.797
L240.665 300.778
L240.739 298.714
L240.814 298.744
L240.962 288.633
L241.037 293.007
L241.111 284.594
L241.186 286.204
L241.26 300.028
L241.334 296.177
L241.781 189.712
L242.004 120.276
L242.078 125.47
L242.45 226.81
L242.599 234.067
L242.897 260.916
L243.046 246.628
L243.194 283.696
L243.269 279.657
L243.343 274.058
L243.492 293.54
L243.566 292.889
L243.715 304.185
L243.79 303
L243.938 284.594
L244.31 181.082
L244.608 214.971
L244.682 217.103
L244.831 208.651
L244.906 209.49
L245.054 196.111
L245.501 263.355
L245.65 294.172
L245.724 286.214
L245.873 292.365
L246.022 277.287
L246.096 277.781
L246.319 256.492
L246.542 226.632
L246.691 229.663
L246.766 227.284
L246.989 199.735
L247.063 200.643
L247.212 206.775
L247.286 199.093
L247.361 199.606
L247.584 220.066
L247.882 269.171
L247.956 286.391
L248.03 286.362
L248.105 284.604
L248.254 295.94
L248.849 224.549
L248.923 223.828
L249.072 228.637
L249.221 226.514
L249.295 223.433
L249.444 227.254
L249.667 223.591
L249.742 224.578
L249.965 230.453
L250.114 242.125
L250.188 236.131
L250.337 245.462
L250.486 230.957
L251.155 267.67
L251.304 244.712
L251.527 217.36
L251.75 191.499
L252.122 231.372
L252.42 272.844
L252.569 281.553
L252.643 276.191
L252.718 276.428
L252.792 278.67
L253.015 261.113
L253.313 211.86
L253.387 218.308
L253.536 250.883
L253.61 250.103
L253.834 278.482
L254.578 185.871
L254.875 218.664
L255.247 288.544
L255.47 249.985
L255.545 249.264
L255.694 265.665
L255.991 194.936
L256.066 198.056
L256.214 218.041
L256.289 215.879
L256.512 235.726
L256.661 256.561
L256.884 253.016
L256.958 253.411
L257.033 255.07
L257.107 252.858
L257.256 240.565
L257.479 272.834
L257.628 284.732
L257.702 281.968
L257.777 274.591
L258 227.689
L258.074 222.821
L258.149 224.282
L258.223 224.855
L258.298 222.87
L258.446 215.484
L258.67 226.721
L258.744 224.637
L258.818 224.795
L258.893 220.984
L258.967 222.702
L259.116 229.318
L259.265 217.923
L259.339 219.108
L259.488 248.454
L259.562 246.598
L259.637 248.119
L259.711 241.108
L259.786 242.826
L259.86 245.689
L260.009 241.947
L260.232 249.491
L260.381 244.682
L260.455 238.531
L260.53 241.611
L260.827 305.992
L260.902 300.679
L261.348 232.557
L261.422 231.451
L261.646 217.666
L261.794 224.618
L261.869 221.784
L262.018 227.225
L262.092 226.701
L262.464 177.053
L262.538 181.852
L262.613 182.701
L262.687 189.357
L263.059 254.784
L263.208 258.536
L263.729 333.6
L264.398 215.069
L264.547 215.672
L264.696 222.159
L264.77 216.629
L264.919 222.238
L265.068 216.264
L265.291 204.524
L265.44 225.921
L265.514 225.645
L265.663 193.79
L265.738 195.182
L266.258 262.545
L266.333 258.062
L266.407 258.585
L266.556 263.404
L266.705 255.909
L267.077 271.422
L267.151 271.906
L267.226 270.741
L267.374 271.53
L267.672 249.531
L267.895 204.158
L267.97 204.237
L268.193 215.474
L268.267 215.464
L268.49 191.154
L268.639 171.978
L268.714 177.32
L269.234 280.358
L269.309 276.132
L269.383 279.025
L269.532 300.808
L269.681 273.249
L269.755 274.601
L269.978 284.811
L270.053 281.069
L270.127 283.291
L270.202 292.849
L270.276 289.047
L270.722 175.76
L270.797 176.105
L270.946 193.178
L271.02 192.013
L271.094 187.915
L271.243 214.477
L271.318 212.097
L271.392 209.648
L271.69 235.302
L271.913 216.353
L271.987 219.562
L272.21 243.458
L272.285 238.619
L272.359 240.031
L272.582 262.17
L272.806 300.926
L272.88 301.854
L273.029 311.926
L273.326 296.108
L273.401 293.461
L273.698 228.005
L273.922 181.625
L273.996 176.402
L274.07 176.589
L274.145 176.016
L274.294 166.517
L274.814 233.643
L274.963 231.619
L275.112 234.048
L275.558 293.846
L275.707 289.946
L275.856 294.231
L275.93 294.162
L276.377 258.536
L276.526 241.996
L276.6 240.525
L277.344 162.745
L277.418 162.736
L277.567 178.218
L278.386 303.661
L278.46 308.164
L278.683 296.582
L278.906 290.687
L279.055 262.614
L279.278 226.642
L279.576 200.357
L279.65 205.541
L279.799 232.705
L279.874 231.52
L280.097 190.275
L280.171 191.095
L280.32 189.347
L280.841 251.268
L280.99 260.402
L281.213 287.932
L281.287 286.638
L281.362 287.724
L281.51 306.258
L281.585 303.336
L281.808 287.063
L281.957 280.862
L282.552 192.23
L282.626 187.323
L282.85 211.831
L283.073 190.443
L283.147 192.862
L283.445 234.917
L283.519 230.552
L283.594 227.916
L283.668 232.606
L283.742 229.792
L283.817 230.621
L283.966 244.149
L284.189 265.764
L284.263 270.494
L284.412 264.431
L284.635 281.77
L284.71 280.368
L284.784 280.457
L285.007 250.33
L285.23 263.947
L285.305 260.531
L285.602 219.256
L285.677 211.248
L285.751 212.907
L285.826 216.037
L286.049 249.935
L286.123 248.069
L286.272 222.811
L286.495 245.048
L286.718 214.595
L287.016 230.552
L287.239 224.894
L287.388 229.644
L287.537 222.89
L287.686 253.994
L287.834 274.73
L287.983 266.277
L288.132 275.194
L288.206 275.618
L288.355 268.46
L288.802 224.45
L288.95 230.908
L289.025 230.908
L289.099 233.732
L289.397 195.647
L289.546 208.394
L289.62 205.383
L290.29 251.081
L290.364 245.512
L290.438 245.561
L290.81 277.959
L290.885 275.905
L290.959 275.589
L291.182 293.116
L291.331 297.184
L291.406 296.196
L292.075 193.198
L292.447 131.612
L292.522 128.116
L292.819 158.746
L293.191 277.524
L293.563 382.438
L293.638 380.404
L293.786 355.61
L294.307 222.791
L294.53 202.894
L294.605 203.398
L294.828 168.808
L294.902 169.144
L295.051 165.165
L295.2 173.805
L295.349 186.138
L295.721 231.935
L295.87 246.391
L296.167 285.71
L296.39 314.671
L296.539 299.267
L296.762 259.869
L296.911 242.619
L297.06 256.531
L297.283 276.784
L297.358 276.882
L297.432 275.273
L297.581 264.204
L298.102 138.751
L298.176 141.565
L298.622 208.009
L298.994 285.542
L299.218 305.202
L299.292 303.671
L299.441 290.173
L299.59 278.828
L299.664 279.055
L299.738 281.039
L299.962 306.446
L300.185 288.248
L300.334 261.854
L300.631 166.33
L300.854 142.316
L300.929 145.772
L301.003 148.329
L301.226 139.146
L301.301 141.693
L301.45 182.198
L301.896 321.05
L302.268 351.976
L302.417 342.507
L302.64 309.882
L303.458 161.877
L303.533 164.582
L303.607 164.157
L303.756 155.596
L303.979 181.349
L304.351 242.233
L304.649 270.01
L304.872 257.914
L305.021 246.292
L305.095 247.072
L305.318 275.648
L305.393 271.432
L305.467 263.355
L305.988 290.993
L306.286 263.493
L306.583 217.015
L306.658 215.642
L306.806 197.523
L307.178 161.166
L307.253 164.464
L307.922 259.276
L308.146 308.391
L308.22 308.826
L308.294 311.028
L308.369 308.332
L308.518 314.187
L308.592 314.079
L308.815 278.837
L309.187 219.463
L309.336 220.875
L309.41 226.109
L309.485 220.964
L309.782 168.097
L310.08 138.84
L310.378 207.594
L311.047 354.642
L311.122 357.782
L311.196 356.4
L312.014 203.615
L312.089 201.976
L312.238 203.793
L312.386 189.574
L312.535 177.873
L312.684 191.539
L312.758 189.525
L312.833 181.892
L312.907 183.452
L312.982 191.647
L313.056 189.426
L313.13 187.293
L313.279 205.995
L313.726 300.294
L313.874 310.445
L314.098 297.283
L314.172 292.889
L314.395 303.059
L314.47 299.396
L314.842 247.812
L315.065 229.407
L315.139 228.409
L315.288 194.432
L315.437 175.434
L315.511 178.85
L315.586 178.841
L315.734 172.096
L315.883 181.477
L316.032 177.3
L316.181 205.817
L316.33 230.621
L316.404 231.382
L316.85 272.38
L317.074 308.085
L317.148 309.388
L317.297 301.341
L317.371 303.148
L317.594 276.685
L318.041 240.16
L318.115 240.436
L318.264 229.673
L318.487 195.34
L318.562 196.051
L318.71 210.497
L318.859 222.021
L318.934 219.207
L319.008 219.908
L319.082 218.792
L319.157 219.602
L319.306 208.779
L319.454 197.039
L319.529 197.809
L320.05 266.356
L320.124 266.88
L320.273 275.964
L320.57 306.416
L320.645 309.566
L321.017 262.94
L321.24 210.774
L321.314 211.485
L321.463 219.128
L321.538 216.61
L321.761 192.497
L321.835 190.897
L322.058 173.37
L322.207 200.653
L322.43 230.769
L322.654 247.032
L322.802 241.246
L322.877 242.806
L323.249 303.977
L323.323 299.771
L323.398 292.02
L323.472 294.567
L323.621 301.884
L323.77 272.715
L323.993 219.661
L324.142 216.244
L324.365 227.777
L324.439 226.928
L324.514 231.243
L324.588 229.772
L324.811 195.024
L324.96 210.576
L325.034 209.085
L325.109 202.045
L325.183 203.418
L325.258 208.118
L325.332 207.506
L325.406 205.195
L325.481 205.689
L325.555 209.243
L326.002 276.556
L326.076 273.466
L326.299 267.136
L326.374 270.197
L326.597 299.87
L326.671 291.19
L326.746 292.286
L326.894 311.265
L327.043 279.272
L327.341 200.801
L327.415 194.106
L327.49 194.353
L327.713 202.401
L327.936 185.99
L328.308 211.475
L328.382 210.873
L328.457 207.476
L328.531 210.685
L328.978 262.476
L329.052 260.708
L329.126 260.906
L329.647 305.873
L329.722 325.849
L329.796 325.276
L330.614 191.075
L330.986 119.447
L331.135 98.4342
L331.284 134.199
L331.954 329.976
L332.251 373.473
L332.4 370.925
L332.474 367.805
L332.623 342.329
L333.442 136.292
L333.665 90.91
L333.739 93.5168
L333.888 113.611
L334.409 256.709
L334.93 340.611
L335.078 342.655
L335.153 340.176
L335.376 309.586
L335.897 233.435
L336.194 216.945
L336.269 227.817
L336.343 220.668
L336.566 183.244
L336.938 155.073
L337.013 159.28
L337.087 164.207
L337.162 159.724
L337.236 164.503
L337.385 189.86
L337.459 189.742
L337.608 215.227
L338.203 353.497
L338.278 352.134
L338.724 313.16
L338.873 295.002
L339.394 180.578
L339.617 158.529
L339.766 161.284
L339.84 160.692
L339.989 154.175
L340.286 184.36
L341.03 319.055
L341.105 320.566
L341.179 319.243
L341.254 320.685
L341.402 312.341
L341.551 292.187
L341.998 186.592
L342.146 188.478
L342.295 197.621
L342.444 217.034
L342.667 240.377
L342.816 250.676
L342.965 235.282
L343.039 237.879
L343.337 215.524
L343.56 199.033
L343.634 200.524
L344.23 306.555
L344.527 268.568
L344.602 265.971
L344.676 258.526
L344.825 265.774
L345.122 248.543
L345.271 227.965
L345.346 229.742
L345.42 235.687
L345.494 229.209
L345.718 202.618
L345.792 200.09
L345.866 203.901
L346.015 229.357
L346.164 211.238
L346.238 212.255
L346.462 226.267
L346.61 237.514
L346.685 237.049
L346.834 223.314
L347.057 228.034
L347.429 288.978
L347.652 310.139
L347.726 315.866
L347.801 314.839
L348.024 275.53
L348.322 201.986
L348.396 189.84
L348.47 192.358
L348.545 191.618
L348.619 189.07
L348.694 190.423
L348.768 197.928
L348.917 219.207
L348.991 212.186
L349.214 232.813
L349.289 225.329
L349.363 225.625
L349.438 226.958
L349.586 200.959
L349.661 204.119
L349.884 229.752
L350.182 282.55
L350.405 319.302
L350.926 265.685
L351 269.131
L351.298 246.42
L351.818 187.372
L351.893 191.776
L352.042 186.256
L352.19 190.166
L352.265 186.76
L352.339 177.478
L352.414 178.367
L352.488 181.082
L352.637 168.048
L352.934 224.292
L353.381 335.012
L353.455 336.563
L353.53 333.719
L353.753 311.492
L353.827 312.815
L354.274 264.006
L354.646 161.758
L354.72 162.716
L354.794 164.256
L355.166 179.769
L355.241 177.3
L356.208 275.767
L356.506 332.267
L356.654 333.808
L356.878 330.263
L356.952 332.06
L357.696 154.915
L357.994 128.709
L358.068 130.921
L358.142 130.397
L358.217 131.641
L358.44 168.858
L358.961 287.922
L359.11 282.264
L359.184 283.597
L359.556 330.905
L359.63 331.142
L359.779 317.09
L360.151 279.746
L360.598 232.014
L361.044 144.745
L361.118 137.211
L361.49 161.116
L361.639 183.491
L361.788 202.687
L361.862 202.045
L362.011 238.047
L362.309 321.425
L362.383 320.754
L362.755 365.889
L362.83 361.653
L363.053 311.087
L363.425 196.022
L363.797 130.555
L363.871 135.078
L364.094 178.13
L364.169 175.266
L364.243 164.049
L364.392 173.795
L364.466 172.027
L364.541 175.236
L364.764 236.487
L365.136 339.485
L365.285 345.124
L365.359 346.526
L365.434 344.887
L365.806 279.479
L366.401 170.596
L366.773 216.787
L367.07 173.775
L367.145 175.572
L367.442 209.885
L367.74 266.583
L367.814 266.396
L367.889 264.589
L367.963 264.707
L368.038 268.874
L368.112 268.825
L368.186 265.162
L368.41 283.557
L368.484 280.19
L368.558 281.74
L368.707 268.864
L368.782 276.823
L368.856 276.004
L369.302 231.944
L369.377 235.736
L369.526 223.324
L369.6 225.734
L369.972 250.33
L370.046 249.452
L370.27 238.837
L370.418 206.824
L370.567 189.11
L370.716 178.702
L370.865 169.667
L371.088 194.58
L371.534 302.615
L371.609 300.008
L371.683 300.294
L371.906 334.124
L371.981 335.22
L372.427 255.603
L372.799 188.399
L372.874 187.441
L373.022 184.765
L373.171 191.786
L373.32 196.91
L373.469 188.685
L373.841 222.011
L373.915 223.838
L374.138 245.294
L374.213 243.31
L374.51 259.642
L374.734 292.217
L374.808 291.595
L375.106 335.289
L375.254 307.631
L376.073 151.864
L376.147 145.465
L376.222 147.203
L376.296 147.539
L376.37 149.267
L376.891 265.478
L377.04 275.312
L377.263 261.39
L377.486 250.459
L377.635 281.059
L377.71 278.413
L378.007 240.288
L378.379 290.538
L378.528 278.719
L378.677 271.313
L378.9 242.915
L379.049 227.323
L379.57 140.647
L379.644 144.478
L379.718 151.41
L380.239 261.449
L380.462 266.129
L380.611 269.467
L381.058 332.001
L381.132 318.058
L381.206 320.458
L381.281 321.83
L381.802 203.378
L381.876 200.011
L381.95 209.846
L382.025 208.7
L382.546 145.939
L382.918 183.136
L383.141 233.426
L383.364 290.469
L383.587 326.876
L383.662 332.168
L383.81 313.921
L383.959 322.926
L384.48 284.012
L384.778 209.303
L385.001 182.652
L385.075 180.075
L385.15 180.954
L385.224 181.329
L385.373 168.848
L385.447 172.106
L385.522 177.438
L385.67 157.354
L385.894 182.988
L386.266 234.936
L386.414 269.674
L386.489 271.896
L386.861 330.905
L386.935 324.111
L387.01 317.535
L387.084 326.224
L387.679 255.317
L387.828 224.391
L387.902 232.744
L387.977 225.615
L388.2 188.932
L388.274 186.651
L388.349 190.314
L388.423 185.999
L388.572 167.544
L388.721 188.053
L388.87 184.113
L389.39 245.196
L389.539 281.602
L389.614 278.541
L389.688 281.178
L390.06 321.741
L390.283 289.462
L390.432 229.032
L390.506 233.969
L390.581 242.293
L390.73 233.485
L390.804 234.097
L391.027 250.923
L391.25 199.32
L391.399 206.212
L391.548 194.146
L391.622 193.158
L391.771 177.587
L391.846 177.715
L391.994 175.256
L392.218 195.548
L392.887 340.68
L392.962 341.608
L393.036 333.225
L393.185 340.591
L393.557 253.737
L393.854 208.226
L393.929 207.239
L394.003 203.023
L394.301 168.729
L394.375 163.19
L394.97 230.365
L395.194 246.697
L395.268 250.627
L395.342 250.35
L395.417 241.147
L395.566 262.17
L395.714 239.449
L395.863 255.732
L395.938 250.439
L396.086 271.145
L396.235 247.98
L396.384 282.945
L396.458 274.256
L396.607 304.096
L397.277 183.649
L397.426 221.912
L397.649 191.776
L397.798 178.258
L397.946 199.804
L398.021 192.655
L398.095 190.986
L398.244 232.784
L398.318 228.913
L398.393 239.024
L398.542 276.013
L398.616 272.439
L398.839 310.84
L398.914 312.449
L399.062 328.663
L399.137 311.482
L399.211 315.846
L399.286 327.063
L399.955 192.161
L400.03 198.441
L400.178 180.164
L400.327 208.345
L400.55 150.264
L400.625 145.505
L400.699 126.527
L400.774 130.743
L401.146 254.892
L401.22 252.068
L401.369 276.379
L401.443 268.618
L401.518 265.961
L401.666 305.952
L401.741 295.525
L401.815 297.036
L401.89 313.348
L402.038 303.76
L402.187 328.189
L402.336 300.887
L402.41 313.249
L402.485 302.18
L402.634 272.607
L402.708 265.181
L402.857 214.892
L402.931 229.999
L403.303 113.325
L403.378 105.178
L404.047 266.376
L404.122 260.639
L404.345 314.187
L404.419 308.786
L404.568 334.696
L404.642 318.858
L404.791 342.299
L405.238 242.184
L405.312 243.073
L405.461 209.52
L405.535 217.488
L405.61 229.614
L405.982 172.906
L406.056 181.151
L406.13 183.718
L406.205 171.919
L406.279 174.506
L406.354 190.443
L406.428 189.801
L406.502 185.654
L406.651 200.515
L406.726 190.611
L406.8 196.397
L406.949 225.625
L407.023 216.995
L407.098 220.293
L407.321 253.628
L407.47 280.704
L407.544 267.956
L407.618 270.839
L407.767 308.539
L407.842 305.37
L407.99 328.051
L408.139 291.98
L408.214 304.649
L408.288 303.484
L408.437 284.584
L408.511 285.749
L408.734 246.726
L408.958 182.366
L409.106 190.551
L409.181 187.609
L409.255 193.909
L409.33 193.83
L409.404 189.564
L409.553 201.077
L409.702 169.282
L410.148 242.875
L410.222 232.152
L410.297 231.806
L410.594 279.716
L410.743 263.246
L410.966 321.998
L411.115 334.696
L411.19 333.077
L411.562 254.26
L411.636 250.35
L411.71 253.668
L412.008 212.739
L412.157 170.201
L412.231 172.324
L412.38 156.614
L412.529 180.964
L412.603 178.505
L412.752 206.419
L412.826 197.473
L412.901 187.076
L413.794 312.825
L413.868 310.81
L413.942 302.723
L414.091 327.133
L414.389 293.056
L414.761 226.859
L414.835 224.47
L414.984 189.86
L415.207 170.586
L415.282 161.501
L415.43 182.81
L415.505 177.784
L415.579 181.141
L415.951 249.945
L416.026 238.6
L416.1 241.937
L416.249 261.923
L416.323 256.294
L416.398 257.598
L416.695 285.108
L416.844 278.897
L416.918 278.373
L417.142 244.672
L417.29 265.142
L417.365 259.731
L417.439 260.975
L417.588 279.894
L417.662 274.137
L417.737 278.008
L417.811 274.621
L418.481 160.198
L418.555 170.823
L418.63 169.924
L418.704 169.292
L418.853 184.123
L418.927 181.428
L419.002 187.095
L419.374 262.9
L419.448 259.711
L419.671 300.265
L419.746 292.108
L419.82 289.275
L420.118 304.165
L420.341 288.988
L420.564 306.831
L420.638 303.711
L420.713 294.755
L420.936 240.101
L421.308 152.052
L421.382 131.217
L421.457 134.841
L421.531 134.851
L421.606 135.67
L422.647 338.172
L422.722 335.545
L423.168 266.267
L423.317 256.225
L423.54 203.457
L423.614 209.974
L423.689 207.98
L423.763 199.774
L423.986 247.427
L424.061 242.836
L424.135 243.152
L424.21 240.812
L424.507 220.777
L424.656 212.275
L424.73 213.302
L424.805 213.726
L424.879 220.925
L425.102 191.993
L425.177 194.886
L425.251 195.212
L425.326 196.249
L425.4 203.576
L425.995 329.512
L426.144 312.607
L426.293 299.573
L426.367 300.373
L426.442 297.441
L426.888 204.346
L426.962 208.266
L427.037 213.193
L427.111 212.719
L427.483 168.966
L427.558 171.79
L427.632 177.172
L428.078 261.212
L428.153 263.759
L428.376 230.315
L428.45 235.539
L429.046 320.596
L429.194 291.654
L429.418 261.478
L429.492 265.843
L429.566 263.048
L430.013 171.464
L430.162 166.053
L430.236 169.322
L430.534 220.352
L430.682 213.944
L430.906 251.259
L431.054 238.708
L431.129 238.886
L431.352 267.778
L431.501 254.112
L431.575 255.218
L431.798 276.566
L432.022 259.987
L432.17 271.837
L432.319 256.235
L432.468 239.133
L432.542 240.802
L432.617 240.604
L432.691 240.357
L432.766 240.565
L432.84 237.938
L433.138 203.467
L433.584 251.071
L433.882 188.014
L433.956 195.212
L434.402 237.474
L434.477 242.796
L434.998 342.388
L435.146 330.51
L435.221 332.238
L435.295 326.273
L435.89 162.587
L436.114 146.374
L436.262 157.512
L436.337 154.807
L436.411 151.153
L436.56 180.776
L436.858 230.463
L437.081 256.61
L437.304 296.246
L437.378 294.409
L437.602 313.516
L437.676 306.94
L437.75 307.433
L437.899 315.708
L438.048 310.267
L438.197 261.399
L438.42 207.851
L438.569 199.349
L438.643 201.364
L438.866 230.631
L438.941 229.9
L439.238 184.607
L439.313 189.347
L439.61 208.039
L439.759 212.956
L440.28 304.599
L440.354 303.701
L440.578 249.126
L440.652 248.82
L440.726 250.014
L440.875 240.772
L441.173 269.862
L441.247 264.283
L441.47 236.062
L441.619 247.042
L442.066 199.379
L442.14 199.981
L442.214 197.779
L442.363 187.194
L442.438 190.709
L442.735 228.153
L442.884 230.552
L443.033 221.112
L443.107 222.327
L443.182 222.199
L443.554 265.971
L443.628 266.03
L443.702 270.395
L443.926 301.854
L444 301.084
L444.074 295.387
L444.223 316.814
L444.372 343.909
L444.595 290.272
L444.967 170.289
L445.19 147.203
L445.265 148.092
L445.562 173.42
L445.86 194.086
L446.009 200.742
L446.53 336.829
L446.678 342.744
L446.753 337.836
L447.125 267.798
L447.274 257.914
L447.348 258.664
L447.497 240.101
L447.943 183.985
L448.018 184.459
L448.092 181.072
L448.166 181.961
L448.241 183.205
L448.39 168.058
L448.687 202.845
L448.836 213.539
L448.91 213.48
L449.431 285.789
L449.654 330.332
L449.878 347.128
L449.878 347.128" style="fill:none;stroke:#808080;stroke-linecap:square;"/>
   </g>
  </g>
 </g>
 <defs>
  <clipPath id="p7ff5b81e1d">
   <rect height="345.6" width="446.4" x="72.0" y="43.2"/>
  </clipPath>
 </defs>
</svg>
