<?xml version="1.0" encoding="utf-8" standalone="no"?>
<!DOCTYPE svg PUBLIC "-//W3C//DTD SVG 1.1//EN"
  "http://www.w3.org/Graphics/SVG/1.1/DTD/svg11.dtd">
<!-- Created with matplotlib (http://matplotlib.org/) -->
<svg height="432pt" version="1.1" viewBox="0 0 576 432" width="576pt" xmlns="http://www.w3.org/2000/svg" xmlns:xlink="http://www.w3.org/1999/xlink">
 <defs>
  <style type="text/css">
*{stroke-linecap:butt;stroke-linejoin:round;}
  </style>
 </defs>
 <g id="figure_1">
  <g id="patch_1">
   <path d="
M0 432
L576 432
L576 0
L0 0
z
" style="fill:#ffffff;"/>
  </g>
  <g id="axes_1">
   <g id="line2d_1">
    <path clip-path="url(#p7ff5b81e1d)" d="
M72 217.95
L72.0744 218.244
L72.2976 211.635
L72.372 214.114
L72.5952 246.782
L72.6696 243.335
L72.8184 237.624
L72.8928 239.205
L72.9672 238.453
L73.1904 190.596
L73.2648 191.884
L73.4136 215.237
L73.488 215.056
L73.7856 199.253
L74.0088 218.823
L74.1576 208.023
L74.5296 250.454
L74.7528 225.597
L74.9016 240.363
L74.976 237.114
L75.2736 200.083
L75.4224 198.977
L75.6456 201.094
L75.72 201.189
L75.9432 208.248
L76.3152 179.407
L76.3896 180.859
L76.6128 195.003
L76.6872 199.141
L77.1336 265.652
L77.208 261.582
L77.4312 287.407
L77.952 186.388
L78.0264 184.488
L78.2496 170.595
L78.3984 190.959
L78.4728 187.546
L78.6216 210.814
L78.9936 254.031
L79.1424 235.922
L79.3656 213.596
L79.5888 195.806
L79.812 198.847
L80.0352 221.536
L80.1096 220.542
L80.2584 217.328
L80.556 235.066
L80.7792 222.365
L80.928 223.316
L81.0768 229.372
L81.3 202.018
L81.3744 202.588
L81.5976 214.883
L81.672 214.045
L81.7464 211.462
L82.044 219.454
L82.1184 229.511
L82.1928 229.165
L82.2672 218.279
L82.3416 220.508
L82.416 225.251
L82.4904 220.508
L82.7136 186.89
L83.16 235.766
L83.3832 219.834
L83.532 225.312
L83.7552 200.791
L83.904 206.407
L83.9784 204.982
L84.0528 205.232
L84.2016 207.954
L84.3504 212.637
L84.5736 246.367
L84.9456 219.592
L85.0944 212.248
L85.1688 211.393
L85.392 204.265
L85.4664 197.292
L85.5408 200.817
L85.764 218.814
L86.0616 193.18
L86.136 201.396
L86.3592 230.392
L86.508 232.466
L86.5824 233.58
L86.6568 244.968
L86.7312 244.778
L87.1032 204.014
L87.3264 195.97
L87.624 222.167
L87.7728 234.556
L87.9216 232.077
L88.0704 226.547
L88.5168 183.313
L88.74 203.262
L89.1864 266.404
L89.5584 208.68
L89.6328 209.786
L90.0792 178.725
L90.1536 177.619
L90.5256 231.524
L90.6744 249.426
L90.7488 245.313
L90.972 249.616
L91.0464 248.139
L91.2696 210.148
L91.344 212.404
L91.4928 205.535
L91.5672 202.424
L91.6416 203.988
L91.9392 195.236
L92.0136 196.333
L92.3112 235.896
L92.46 238.306
L92.5344 238.004
L92.7576 234.289
L92.832 231.818
L93.2784 182.475
L93.3528 184.954
L93.5016 211.082
L93.576 206.044
L93.7248 185.602
L93.948 205.137
L94.1712 246.644
L94.2456 248.139
L94.32 246.16
L94.3944 252.899
L94.5432 238.332
L94.7664 212.801
L94.9152 209.76
L95.064 205.327
L95.2872 215.021
L95.3616 218.097
L95.5104 227.904
L95.808 201.526
L95.8824 203.867
L96.0312 197.767
L96.4032 213.492
L96.4776 214.589
L96.7008 200.843
L96.8496 213.449
L96.924 211.064
L96.9984 209.621
L97.1472 218.538
L97.296 233.839
L97.3704 234.427
L97.5192 239.36
L97.7424 222.772
L97.8912 213.354
L97.9656 205.5
L98.04 205.863
L98.2632 232.595
L98.3376 232.492
L98.4864 228.18
L98.6352 237.857
L99.0072 204.852
L99.156 201.552
L99.528 217.475
L99.6024 217.017
L99.8256 209.967
L99.9 208.541
L100.123 191.927
L100.198 191.814
L100.272 193.784
L100.495 184.894
L100.57 190.104
L101.09 286.276
L101.165 285.541
L101.76 168.858
L101.834 170.577
L101.909 169.756
L102.132 173.022
L102.281 192.851
L102.578 241.382
L102.802 254.143
L102.876 252.796
L102.95 248.778
L103.322 209.889
L103.546 192.894
L103.62 192.998
L103.992 215.592
L104.215 240.484
L104.81 197.474
L104.885 195.305
L104.959 197.249
L105.034 197.137
L105.108 196.903
L105.257 201.094
L105.48 219.272
L105.629 214.235
L105.703 214.65
L106.224 258.602
L106.596 220.076
L106.894 201.068
L107.042 198.623
L107.489 218.331
L107.563 214.788
L107.786 199.297
L107.935 200.878
L108.233 240.872
L108.307 240.82
L108.828 199.806
L109.051 190.233
L109.126 190.734
L109.349 217.458
L109.498 214.978
L109.572 215.039
L109.795 202.537
L110.018 219.1
L110.39 261.271
L110.465 261.608
L111.06 179.727
L111.283 213.017
L111.358 213.777
L111.506 218.356
L111.655 216.24
L111.73 221.605
L111.804 221.346
L111.953 217.657
L112.027 228.241
L112.102 223.022
L112.325 175.891
L112.474 187.356
L112.771 235.058
L112.92 247.845
L113.069 243.3
L113.292 212.49
L113.515 190.916
L113.59 191.503
L113.738 201.932
L113.887 185.766
L113.962 185.775
L114.036 188.073
L114.557 258.705
L114.854 241.054
L114.929 242.462
L115.003 243.015
L115.078 238.341
L115.301 201.776
L115.45 194.355
L115.598 201.465
L115.673 201.543
L116.045 224.828
L116.194 218.158
L116.268 221.13
L116.417 209.941
L116.491 204.671
L116.566 205.172
L116.714 200.351
L116.789 203.522
L116.863 199.236
L116.938 202.347
L117.012 201.716
L117.161 193.128
L117.31 200.074
L117.682 226.642
L117.905 260.062
L117.979 259.371
L118.054 260.295
L118.128 259.362
L118.649 196.394
L118.872 208.628
L119.095 228.699
L119.17 225.942
L119.542 169.575
L119.616 167.216
L119.69 168.538
L119.839 175.77
L120.137 221.925
L120.36 243.628
L120.583 258.075
L121.178 217.458
L121.253 219.091
L121.402 221.83
L121.476 219.765
L121.625 205.846
L121.699 207.081
L121.848 204.17
L121.997 219.782
L122.071 213.976
L122.146 208.42
L122.518 237.719
L122.592 238.937
L122.815 181.144
L122.89 182.44
L123.187 209.639
L123.262 205.699
L123.41 209.647
L123.559 206.623
L123.708 220.007
L123.857 214.719
L124.006 206.131
L124.08 207.202
L124.154 203.617
L124.229 205.578
L124.303 211.263
L124.378 209.103
L124.452 204.023
L124.526 206.986
L124.824 284.478
L124.898 282.543
L124.973 273.298
L125.27 181.507
L125.345 178.051
L125.419 181.282
L125.568 191.089
L125.642 188.41
L125.94 199.409
L126.238 237.65
L126.312 237.822
L126.386 240.259
L126.461 240.086
L126.758 234.47
L127.056 208.066
L127.13 210.2
L127.428 183.416
L127.502 189.387
L127.577 186.207
L127.651 187.771
L127.949 241.227
L128.246 224.862
L128.321 223.791
L128.395 224.309
L128.47 225.027
L128.693 214.494
L128.767 215.099
L128.842 211.462
L128.99 192.48
L129.288 210.028
L129.437 226.711
L129.511 225.459
L129.586 225.77
L129.883 252.433
L130.478 183.978
L130.553 185.36
L130.627 190.233
L130.85 225.052
L130.925 222.573
L131.074 238.807
L131.52 181.023
L131.594 177.956
L131.743 192.143
L132.19 252.588
L132.264 250.964
L132.338 249.21
L132.562 216.542
L132.636 219.281
L132.71 220.093
L132.934 185.766
L133.082 193.845
L133.38 232.924
L133.529 216.758
L133.678 187.762
L133.752 192.065
L133.975 227.973
L134.05 232.198
L134.124 231.42
L134.347 205.206
L134.57 247.974
L134.868 209.008
L135.017 214.624
L135.24 232.362
L135.314 229.416
L135.389 221.588
L135.463 222.979
L135.538 217.786
L135.835 160.875
L136.505 226.996
L136.802 283.606
L136.951 277.126
L137.323 220.084
L137.621 189.041
L137.844 207.366
L137.918 206.459
L138.142 184.721
L138.216 189.473
L138.439 235.066
L138.514 235.265
L138.588 233.986
L138.811 200.601
L138.886 200.679
L139.034 229.208
L139.109 227.066
L139.183 225.882
L139.332 219.013
L139.406 221.311
L139.555 230.254
L139.704 220.983
L139.778 216.101
L139.927 192.877
L140.076 220.041
L140.299 195.607
L140.374 198.07
L140.746 224.966
L140.969 186.276
L141.192 199.003
L141.638 280.158
L141.713 269.289
L141.936 213.734
L142.382 198.165
L142.457 200.835
L142.531 199.469
L142.606 199.772
L142.829 214.123
L142.978 250.178
L143.126 228.845
L143.275 196.748
L143.424 168.521
L143.647 188.099
L143.722 187.209
L144.019 251.975
L144.094 251.638
L144.168 246.238
L144.391 209.241
L144.54 222.426
L144.689 195.4
L144.838 208.68
L144.912 206.71
L144.986 206.226
L145.061 212.931
L145.135 210.304
L145.21 202.433
L145.284 205.837
L145.507 243.516
L145.656 209.509
L145.805 221.078
L145.879 221
L146.028 237.563
L146.102 234.859
L146.326 211.419
L146.4 206.788
L146.623 180.34
L146.698 187.883
L146.921 239.801
L146.995 242.488
L147.218 229.433
L147.367 245.261
L147.516 212.905
L147.59 215.16
L147.665 217.32
L147.739 216.24
L148.111 175.977
L148.334 246.532
L148.409 232.621
L148.483 214.097
L148.632 235.222
L148.781 207.66
L148.855 209.319
L148.93 212.481
L149.078 194.536
L149.227 206.036
L149.45 167.64
L149.674 221.173
L149.748 223.687
L149.971 245.063
L150.046 236.518
L150.194 256.442
L150.269 251.906
L150.418 208.991
L150.492 213.674
L150.566 231.921
L150.641 231.334
L150.79 206.848
L150.864 215.782
L150.938 210.261
L151.087 192.03
L151.236 218.417
L151.459 195.348
L151.757 240.155
L151.831 243.577
L151.906 239.447
L151.98 225.847
L152.054 226.461
L152.129 248.951
L152.203 248.7
L152.352 205.906
L152.426 206.226
L152.501 203.884
L152.65 172.72
L153.022 210.935
L153.17 233.286
L153.319 221.493
L153.468 229.182
L153.617 219.549
L153.691 229.079
L153.914 204.489
L153.989 210.995
L154.063 216.542
L154.212 211.773
L154.435 245.149
L154.51 244.829
L154.658 226.253
L154.882 181.282
L154.956 181.395
L155.105 190.51
L155.179 180.937
L155.254 182.708
L155.402 204.818
L155.477 202.761
L155.7 234.142
L155.774 229.053
L155.849 226.34
L155.923 228.94
L155.998 235.533
L156.221 208.628
L156.37 230.262
L156.444 228.258
L156.518 228.085
L156.742 265.635
L156.965 254.489
L157.114 202.485
L157.188 204.567
L157.262 210.157
L157.411 196.938
L157.486 197.983
L157.634 202.493
L157.783 232.284
L158.155 210.624
L158.23 211.583
L158.453 201.327
L158.676 156.209
L158.75 156.995
L158.825 158.041
L158.899 157.367
L158.974 158.594
L159.718 269.073
L160.09 310.381
L160.164 305.456
L160.387 261.781
L160.908 142.074
L160.982 143.43
L161.131 160.356
L161.206 157.738
L161.28 156.313
L161.726 200.074
L161.801 198.338
L161.95 216.257
L162.024 215.713
L162.098 211.22
L162.173 217.38
L162.396 268.71
L162.545 252.424
L162.619 253.089
L162.694 252.796
L162.917 224.076
L162.991 227.8
L163.214 218.538
L163.512 246.678
L163.586 252.139
L163.661 250.791
L163.958 213.449
L164.033 211.349
L164.107 204.429
L164.182 206.813
L164.256 202.804
L164.405 176.435
L164.479 178.405
L164.628 185.378
L164.851 170.309
L165 181.343
L165.298 223.195
L165.372 222.219
L165.521 212.62
L165.967 238.678
L166.042 239.317
L166.19 237.589
L166.339 241.961
L166.562 218.754
L166.637 220.983
L166.711 219.981
L166.786 220.551
L166.86 223.169
L167.009 207.574
L167.232 225.96
L167.455 263.803
L168.274 141.97
L168.348 144.882
L169.018 272.46
L169.166 245.02
L169.464 203.893
L169.538 208.792
L169.613 227.005
L169.687 225.925
L169.836 211.66
L169.91 214.719
L169.985 211.807
L170.134 197.655
L170.208 197.975
L170.282 199.729
L170.506 238.393
L170.58 236.596
L170.729 232.872
L170.952 240.76
L171.101 226.642
L171.696 172.262
L171.994 261.375
L172.068 251.56
L172.291 234.271
L172.514 222.193
L172.663 197.932
L172.738 199.15
L172.886 181.17
L173.11 155.492
L173.258 166.43
L173.556 250.515
L173.854 198.597
L173.928 201.422
L174.151 265.47
L174.3 260.511
L174.374 264.019
L174.449 263.354
L174.598 252.173
L174.672 250.584
L175.044 203.107
L175.118 209.146
L175.193 214.754
L175.267 213.198
L175.639 179.96
L175.714 185.049
L175.788 194.13
L175.862 193.81
L176.011 174.016
L176.16 157.349
L176.532 210.935
L176.681 205.699
L176.83 229.813
L177.053 273.402
L177.127 278.016
L177.202 276.616
L177.648 227.143
L177.722 232.111
L177.871 238.159
L178.764 154.109
L178.913 132.535
L178.987 133.849
L179.657 266.127
L179.731 258.818
L179.88 222.892
L180.326 262.662
L180.401 259.759
L180.624 220.482
L180.698 227.143
L180.773 230.936
L180.847 230.34
L180.996 217.605
L181.442 179.079
L181.517 178.068
L181.591 174.82
L181.666 177.386
L181.814 213.864
L181.963 208.153
L182.038 207.729
L182.186 197.888
L182.261 201.802
L182.633 262.291
L182.707 261.617
L183.377 175.9
L183.451 180.453
L183.749 219.67
L183.898 227.947
L183.972 220.983
L184.121 250.748
L184.195 237.261
L184.344 220.56
L184.418 226.616
L184.493 226.279
L184.865 182.829
L184.939 185.438
L185.46 261.159
L185.534 257.15
L185.758 227.23
L185.981 242.436
L186.13 228.258
L186.65 145.763
L186.799 168.314
L187.097 222.599
L187.171 219.575
L187.246 221.061
L187.394 235.464
L187.469 232.492
L187.543 228.318
L187.766 263.466
L187.915 249.149
L187.99 247.05
L188.287 196.126
L188.585 217.112
L188.808 256.995
L189.18 214.84
L189.254 220.396
L189.329 216.922
L189.552 180.556
L189.775 202.882
L189.998 187.641
L190.073 190.285
L190.222 206.58
L190.296 205.526
L190.519 143.059
L190.594 153.738
L190.817 197.966
L191.189 325.311
L191.263 321.613
L192.007 192.73
L192.082 188.531
L192.156 192.765
L192.23 192.462
L192.454 170.741
L192.528 175.252
L192.602 177.576
L192.677 173.878
L192.751 177.17
L193.123 211.799
L193.198 212.818
L193.346 231.8
L193.421 230.522
L193.495 228.923
L193.644 250.247
L193.942 213.449
L194.09 237.045
L194.314 210.2
L194.388 214.166
L194.611 222.772
L194.686 222.003
L194.76 213.561
L194.909 183.235
L194.983 181.68
L195.132 172.331
L195.355 214.805
L195.653 268.434
L195.802 261.384
L195.95 272.002
L196.322 207.695
L196.397 211.28
L196.471 207.453
L196.62 175.381
L196.769 145.642
L197.215 221.622
L197.513 204.809
L197.587 209.189
L197.885 252.234
L198.034 261.954
L198.108 255.534
L198.257 268.399
L198.331 260.995
L198.554 218.305
L198.629 214.443
L198.703 203.496
L198.778 203.565
L198.852 207.427
L198.926 206.908
L199.15 184.22
L199.447 155.345
L199.522 158.3
L199.745 204.498
L199.894 203.91
L199.968 209.354
L200.117 203.893
L200.191 205.811
L200.638 281.67
L200.712 283.874
L200.861 295.572
L201.307 218.037
L201.456 209.068
L201.754 165.1
L201.828 162.292
L202.126 188.237
L202.274 208.887
L202.721 175.372
L203.167 241.805
L203.316 251.992
L203.39 251.932
L203.614 236.812
L203.688 234.859
L203.837 225.968
L203.986 237.218
L204.209 233.572
L204.581 200.662
L204.655 199.435
L204.73 201.794
L204.953 231.049
L205.102 211.41
L205.176 218.849
L205.25 227.524
L205.325 225.078
L205.474 204.291
L205.548 203.513
L205.697 183.822
L205.771 185.257
L205.92 206.165
L205.994 205.111
L206.069 202.761
L206.292 208.524
L206.366 208.446
L206.515 233.044
L206.59 244.354
L206.664 240.708
L206.887 215.428
L207.036 198.407
L207.11 198.942
L207.259 204.869
L207.334 211.03
L207.557 251.62
L207.631 246.618
L207.78 258.049
L207.854 251.69
L208.152 194.588
L208.301 170.897
L208.375 172.625
L208.45 183.477
L208.524 182.863
L208.673 173.627
L208.822 179.675
L209.268 259.146
L209.342 257.02
L209.491 245.02
L209.789 263.604
L209.863 262.948
L210.235 198.502
L210.384 166.646
L210.458 173.956
L210.533 173.912
L210.607 169.791
L210.756 190.933
L211.054 229.398
L211.128 232.422
L211.351 195.858
L211.426 198.122
L211.5 199.66
L211.649 193.3
L211.798 179.511
L211.872 181.524
L212.021 205.276
L212.244 223.653
L212.467 236.673
L212.69 285.481
L212.765 280.193
L213.137 233.684
L213.211 235.101
L213.36 248.208
L213.806 170.871
L213.881 180.833
L213.955 183.788
L214.104 176.643
L214.253 192.108
L214.402 178.543
L214.476 180.15
L214.55 185.663
L214.625 183.667
L214.699 177.023
L214.774 179.649
L215.22 248.545
L215.592 213.63
L215.666 211.125
L215.89 241.805
L216.113 221.251
L216.336 231.075
L216.41 230.919
L216.485 233.096
L216.634 226.979
L216.708 229.355
L216.857 234.868
L217.08 210.511
L217.154 218.063
L217.378 190.778
L217.526 209.25
L217.601 201.344
L217.675 202.563
L217.824 218.607
L217.973 203.91
L218.047 205.379
L218.122 204.774
L218.196 200.48
L218.345 184.781
L218.494 206.468
L218.642 251.811
L218.717 251.309
L218.866 206.2
L219.089 234.738
L219.238 220.957
L219.312 223.247
L219.461 213.786
L219.684 249.607
L219.833 199.599
L219.907 205.621
L220.056 233.727
L220.354 172.539
L220.428 173.178
L220.651 219.143
L220.8 189.101
L221.023 256.027
L221.098 252.268
L221.246 221.389
L221.321 225.398
L221.47 259.578
L221.544 256.684
L221.767 200.895
L221.916 231.844
L222.139 178.664
L222.214 187.598
L222.437 229.45
L222.511 229.191
L222.66 173.835
L222.734 178.509
L222.883 256.364
L222.958 256.355
L223.181 202.571
L223.404 260.217
L223.702 153.004
L223.925 220.681
L224.074 163.717
L224.148 166.707
L224.297 199.677
L224.52 245.011
L224.594 242.151
L224.669 247.491
L224.818 266.473
L224.966 223.195
L225.041 199.858
L225.338 263.241
L225.413 252.493
L225.636 187.702
L225.785 222.685
L225.859 217.691
L226.008 199.832
L226.157 205.034
L226.306 231.558
L226.529 182.863
L226.826 239.931
L226.901 239.447
L227.347 168.642
L227.422 153.461
L227.496 165.022
L227.645 209.673
L227.942 193.067
L228.166 249.21
L228.24 244.354
L228.314 245.045
L228.538 258.429
L228.612 256.07
L228.835 204.04
L228.91 210.995
L229.058 242.151
L229.207 224.854
L229.43 180.928
L229.579 199.694
L229.728 179.684
L229.802 185.222
L229.951 234.85
L230.026 229.485
L230.323 185.455
L230.546 232.993
L230.77 219.445
L230.918 228.18
L230.993 226.599
L231.142 205.906
L231.216 208.516
L231.439 265.28
L231.514 263.31
L231.662 227.783
L231.737 201.232
L231.811 205.777
L231.96 219.704
L232.034 211.462
L232.183 174.016
L232.258 179.848
L232.406 206.14
L232.63 174.241
L232.704 173.126
L232.927 257.461
L233.002 246.618
L233.225 214.054
L233.374 245.521
L233.522 200.67
L233.597 177.282
L233.671 188.929
L233.82 226.945
L234.043 208.127
L234.118 196.463
L234.415 248.337
L234.564 226.616
L234.638 231.766
L234.713 241.14
L234.787 239.568
L234.862 245.331
L234.936 241.382
L235.085 211.756
L235.159 220.508
L235.308 249.962
L235.606 148.277
L235.68 156.701
L235.829 170.223
L235.903 168.305
L235.978 174.146
L236.275 224.664
L236.35 229.597
L236.424 223.281
L236.573 247.326
L236.722 275.087
L236.945 235.809
L237.019 237.883
L237.317 218.642
L237.466 208.878
L237.614 228.785
L237.689 225.208
L237.986 160.823
L238.21 185.706
L238.284 183.857
L238.358 180.384
L238.433 182.017
L238.656 270.559
L238.73 258.247
L238.879 233.546
L239.102 256.917
L239.4 187.987
L239.549 204.04
L239.623 203.193
L239.772 193.923
L239.846 198.476
L239.995 235.49
L240.07 235.04
L240.218 204.351
L240.293 206.433
L240.59 269.116
L240.814 213.302
L240.962 234.626
L241.037 227.783
L241.186 187.952
L241.26 187.408
L241.483 222.996
L241.558 219.367
L241.781 196.359
L241.93 200.489
L242.004 196.791
L242.227 166.551
L242.45 215.004
L242.525 212.248
L242.674 201.189
L242.897 256.027
L242.971 253.132
L243.12 234.721
L243.194 242.281
L243.418 312.342
L243.715 201.966
L243.864 223.264
L244.162 147.949
L244.236 159.19
L244.385 181.455
L244.534 157.28
L244.608 165.151
L244.906 251.776
L245.054 238.436
L245.278 261.548
L245.426 236.924
L245.575 214.183
L245.724 229.182
L245.798 227.333
L246.022 191.84
L246.096 193.62
L246.319 226.245
L246.468 208.464
L246.542 211.825
L246.766 254.066
L247.063 195.849
L247.212 212.101
L247.286 207.755
L247.51 160.797
L247.584 164.236
L247.807 202.632
L247.882 202.537
L247.956 203.245
L248.03 199.409
L248.254 257.634
L248.328 247.862
L248.402 236.509
L248.626 280.832
L248.7 267.207
L248.998 218.417
L249.221 203.15
L249.37 165.946
L249.444 172.668
L249.593 214.313
L249.667 209.691
L249.816 169.1
L249.89 170.862
L250.114 220.318
L250.188 219.411
L250.337 202.986
L250.634 266.81
L250.709 253.685
L250.858 232.379
L251.006 250.748
L251.081 247.853
L251.378 186.492
L251.527 208.904
L251.602 202.545
L251.75 179.381
L251.899 195.46
L252.122 219.48
L252.197 220.067
L252.271 222.037
L252.494 261.937
L252.569 252.916
L252.718 223.022
L252.792 226.495
L252.866 228.707
L252.941 225.77
L253.164 183.278
L253.238 188.86
L253.387 214.235
L253.462 214.149
L253.536 209.189
L253.685 186.674
L253.759 191.339
L253.908 235.723
L253.982 235.118
L254.131 200.99
L254.354 229.623
L254.578 190.363
L254.652 191.702
L255.024 223.782
L255.098 220.344
L255.247 249.063
L255.396 267.527
L255.619 234.98
L255.694 239.844
L255.768 242.497
L255.842 231.489
L256.066 153.323
L256.214 171.156
L256.289 185.499
L256.363 182.708
L256.512 170.327
L256.81 264.917
L256.884 257.841
L257.033 236.475
L257.182 263.38
L257.256 259.025
L257.479 182.751
L257.554 183.572
L257.777 217.657
L257.926 193.249
L258 196.826
L258.223 228.102
L258.298 221.484
L258.372 221.683
L258.521 230.003
L258.595 228.794
L258.744 237.287
L258.967 187.296
L259.116 225.804
L259.19 220.059
L259.488 166.05
L259.637 211.194
L259.711 210.943
L259.86 200.852
L260.158 258.351
L260.232 250.506
L260.306 246.808
L260.381 249.495
L260.53 267.985
L260.604 265.185
L260.753 231.541
L260.827 233.019
L260.976 249.754
L261.125 226.763
L261.348 173.273
L261.422 174.353
L261.497 186.916
L261.571 186.769
L261.794 131.836
L262.018 170.767
L262.092 160.209
L262.166 155.354
L262.315 199.789
L262.538 276.046
L262.613 274.568
L262.762 266.499
L262.91 293.144
L262.985 289.334
L263.357 226.927
L263.431 227.93
L263.654 198.389
L263.729 204.135
L263.878 218.495
L264.175 193.292
L264.25 194.415
L264.398 209.181
L264.473 205.854
L264.622 182.25
L264.845 218.4
L264.919 218.071
L265.142 176.193
L265.44 201.465
L265.514 190.691
L265.589 192.635
L265.812 251.707
L265.886 249.288
L266.035 230.15
L266.258 241.78
L266.333 241.244
L266.63 203.556
L267.077 247.542
L267.226 277.273
L267.523 216.724
L267.598 227.956
L267.672 231.748
L267.821 192.946
L268.044 134.929
L268.193 149.124
L268.267 162.793
L268.342 156.615
L268.416 144.243
L268.714 231.982
L268.862 213.717
L269.011 233.286
L269.234 257.366
L269.458 240.527
L269.606 253.832
L269.904 212.974
L269.978 216.153
L270.202 243.68
L270.425 200.135
L270.648 236.181
L270.946 200.99
L271.169 184.108
L271.318 163.812
L271.392 172.651
L271.615 236.665
L271.913 191.521
L272.21 236.388
L272.508 292.816
L272.731 219.687
L272.806 221.121
L272.954 234.384
L273.103 201.457
L273.252 155.837
L273.326 159.492
L273.475 174.517
L273.698 131.844
L273.847 205.656
L273.996 268.322
L274.294 165.73
L274.591 250.134
L274.74 225.035
L274.814 225.251
L275.038 281.886
L275.707 183.123
L275.856 164.693
L276.005 196.031
L276.228 261.099
L276.302 258.688
L276.526 180.418
L276.674 195.815
L276.749 210.071
L276.823 203.98
L277.046 133.408
L277.121 140.674
L277.344 223.454
L277.418 222.348
L277.493 227.843
L277.79 319.686
L277.865 308.688
L278.088 235.827
L278.237 256.908
L278.311 251.163
L278.609 163.112
L278.683 165.056
L278.832 174.75
L278.906 174.336
L279.055 180.34
L279.278 186.363
L279.427 175.053
L280.097 303.599
L280.171 300.229
L280.543 208.559
L280.915 47.8461
L280.99 64.8755
L281.362 241.218
L281.659 360.761
L281.734 347.222
L281.957 267.38
L282.031 266.87
L282.106 263.008
L282.403 203.833
L282.552 180.418
L282.626 184.453
L282.701 182.812
L282.775 177.869
L282.924 189.983
L282.998 200.601
L283.147 174.5
L283.296 152.9
L283.519 197.75
L283.594 197.56
L283.668 190.942
L283.742 195.849
L283.966 265.082
L284.04 256.148
L284.263 227.299
L284.338 230.081
L284.486 243.896
L284.71 209.777
L284.858 221.666
L285.082 243.836
L285.156 243.568
L285.23 243.412
L285.379 260.528
L285.454 257.064
L286.049 143.396
L286.123 146.489
L286.495 198.346
L286.718 207.159
L286.867 241.944
L286.942 239.844
L287.09 218.261
L287.239 240.544
L287.314 249.581
L287.611 216.473
L287.686 220.551
L287.834 239.654
L287.909 237.892
L288.058 217.346
L288.132 222.823
L288.281 249.625
L288.504 228.206
L288.578 229.9
L288.727 244.89
L288.802 241.468
L289.322 165.583
L289.471 137.668
L289.694 182.829
L289.769 177.144
L289.843 174.154
L290.215 227.126
L290.29 224.845
L290.364 222.823
L290.513 249.054
L290.662 275.977
L290.81 261.263
L290.959 264.364
L291.034 262.092
L291.182 244.389
L291.406 200.299
L291.554 208.144
L291.629 202.476
L291.852 156.615
L292.224 219.134
L292.373 214.157
L292.522 230.271
L292.596 226.988
L292.819 210.874
L292.894 211.781
L293.042 234.427
L293.117 233.934
L293.266 224.517
L293.414 249.262
L293.563 202.701
L293.712 149.599
L293.861 177.878
L294.084 249.452
L294.158 252.433
L294.307 280.046
L294.382 295.175
L294.456 291.658
L295.2 126.021
L295.498 208.36
L295.646 196.428
L295.944 169.16
L296.093 143.266
L296.242 182.656
L296.539 282.448
L296.837 367.846
L296.911 348.363
L297.209 251.188
L297.358 207.919
L297.581 135.136
L297.878 162.378
L297.953 162.188
L298.027 157.911
L298.176 192.03
L298.325 211.842
L298.474 189.464
L298.548 196.532
L298.697 223.471
L298.771 216.292
L298.994 174.768
L299.292 204.014
L299.441 200.886
L299.59 236.207
L299.813 288.029
L299.887 282.75
L299.962 283.096
L300.185 316.593
L300.334 272.322
L300.557 228.837
L300.631 219.843
L300.929 98.7789
L301.003 114.642
L301.226 183.736
L301.301 185.291
L301.45 230.755
L301.673 283.744
L301.896 244.873
L301.97 249.089
L302.045 248.951
L302.194 199.513
L302.417 108.724
L302.491 115.255
L302.64 138.419
L302.714 136.812
L302.789 137.123
L302.938 179.468
L303.235 262.948
L303.384 284.409
L303.533 309.405
L303.979 212.792
L304.054 212.084
L304.202 207.09
L304.277 212.481
L304.5 262.844
L304.574 258.662
L304.798 230.634
L305.021 245.089
L305.244 193.309
L305.318 194.925
L305.467 225.873
L305.542 223.808
L305.765 195.659
L305.914 193.499
L306.062 180.868
L306.286 163.138
L306.509 197.232
L306.583 194.735
L306.658 192.255
L306.806 203.211
L306.955 195.184
L307.03 195.486
L307.327 220.076
L307.402 216.931
L307.55 187.313
L307.625 197.957
L307.997 307.452
L308.146 291.589
L308.294 309.742
L308.369 295.978
L308.592 191.909
L308.666 192.298
L308.741 195.867
L309.038 174.146
L309.113 176.055
L309.336 200.048
L309.485 203.798
L309.634 220.283
L309.782 234.133
L310.303 194.277
L310.452 162.957
L310.526 165.16
L311.196 245.659
L311.494 236.449
L311.642 248.769
L311.791 241.572
L312.386 186.941
L312.461 187.313
L312.833 206.027
L313.056 228.768
L313.13 226.037
L313.205 222.754
L313.279 222.962
L313.428 227.644
L313.577 221.484
L313.651 221.951
L313.726 222.564
L313.874 212.248
L314.098 231.481
L314.321 214.875
L314.99 258.679
L315.139 227.791
L315.362 192.108
L315.511 186.017
L315.809 139.465
L315.883 142.627
L316.553 251.43
L316.702 255.759
L316.776 255.12
L316.925 266.671
L317.074 243.81
L317.222 223.16
L317.297 224.534
L317.52 230.288
L317.669 238.635
L317.743 247.275
L317.818 246.298
L318.041 191.866
L318.115 192.125
L318.338 214.823
L318.636 177.04
L318.859 201.932
L319.008 186.527
L319.082 191.313
L319.306 228.759
L319.454 212.81
L319.529 214.27
L319.752 254.549
L319.975 227.463
L320.124 234.565
L320.198 232.016
L320.347 196.039
L320.422 175.001
L320.496 176.012
L320.719 222.236
L320.942 207.444
L321.017 206.952
L321.166 230.876
L321.314 202.951
L321.389 204.455
L321.612 232.768
L321.686 236.31
L321.91 214.296
L321.984 219.609
L322.133 239.075
L322.207 239.058
L322.356 206.39
L322.43 206.848
L322.654 236.492
L322.877 211.108
L322.951 213.017
L323.1 230.427
L323.174 225.104
L323.323 183.701
L323.398 186.147
L323.546 212.81
L323.695 187.106
L323.918 162.24
L324.142 217.147
L324.216 206.831
L324.29 208.092
L324.439 255.016
L324.514 251.119
L324.811 231.386
L324.96 255.811
L325.034 251.698
L325.183 227.109
L325.406 241.641
L325.481 239.11
L325.704 179.088
L325.778 181.438
L325.853 182.017
L325.927 176.487
L326.15 139.776
L326.225 139.577
L326.448 212.058
L326.82 315.954
L326.894 323.125
L327.043 295.944
L327.415 196.834
L327.713 139.439
L327.787 133.011
L328.531 248.536
L328.606 250.523
L328.68 250.048
L328.829 279.934
L328.903 279.26
L329.275 223.005
L329.498 209.846
L329.647 202.64
L329.722 206.14
L329.87 228.172
L329.945 221.182
L330.094 206.019
L330.168 212.576
L330.242 211.272
L330.54 198.692
L330.763 177.092
L330.912 180.531
L330.986 178.595
L331.061 180.436
L331.582 253.711
L331.656 255.975
L331.73 253.21
L332.028 230.72
L332.177 230.833
L332.549 199.323
L332.698 202.744
L332.995 180.34
L333.07 182.086
L333.218 204.066
L333.367 218.668
L333.442 217.752
L333.665 251.69
L333.888 230.02
L334.186 216.119
L334.334 200.843
L334.483 213.777
L334.632 208.749
L334.781 232.085
L334.855 231.42
L335.004 224.949
L335.078 231.55
L335.153 228.828
L335.302 209.354
L335.525 235.93
L335.897 197.016
L336.046 209.604
L336.194 161.263
L336.269 161.773
L336.418 172.115
L336.492 174.033
L336.715 205.708
L336.79 205.993
L337.162 261.531
L337.385 225.528
L337.459 229.087
L337.534 229.675
L337.757 208.87
L337.906 233.528
L337.98 232.708
L338.054 229.2
L338.426 246.644
L338.501 254.29
L338.575 250.178
L338.65 250.903
L339.022 188.704
L339.096 187.736
L339.17 190
L339.394 160.615
L339.468 164.884
L339.542 170.128
L339.617 168.599
L339.691 172.158
L339.84 189.317
L339.914 187.132
L339.989 195.279
L340.212 239.611
L340.361 226.815
L340.51 229.096
L340.807 253.487
L340.956 239.68
L341.105 254.791
L341.179 251.56
L341.551 224.862
L341.7 235.628
L341.774 234.41
L341.849 232.362
L342.072 207.358
L342.146 211.652
L342.221 208.809
L342.667 157.66
L342.742 164.287
L342.816 160.97
L342.89 151.604
L342.965 154.343
L343.709 272.702
L343.858 257.651
L344.006 241.702
L344.155 246.316
L344.304 238.09
L344.602 202.01
L344.75 193.776
L344.899 176.539
L345.048 208.334
L345.122 207.522
L345.271 195.063
L345.494 215.704
L345.569 215.764
L345.718 208.144
L345.792 212.118
L345.941 238.419
L346.015 233.191
L346.164 214.322
L346.238 219.851
L346.313 217.804
L346.462 202.26
L346.61 214.443
L346.759 194.406
L346.908 217.665
L347.057 210.157
L347.429 246.972
L347.578 254.1
L347.652 250.532
L347.801 256.623
L348.247 170.05
L348.322 162.931
L348.47 193.214
L348.545 192.411
L348.694 187.244
L348.917 217.605
L348.991 212.792
L349.289 191.028
L349.438 210.762
L349.512 207.755
L349.661 193.871
L349.958 228.716
L350.107 258.757
L350.256 287.468
L350.33 287.381
L350.702 266.334
L351.298 113.519
L351.372 117.502
L352.042 255.128
L352.19 242.203
L352.414 261.868
L352.637 211.894
L352.786 219.938
L352.86 215.479
L353.009 192.964
L353.083 194.044
L353.306 232.984
L353.455 258.731
L353.53 248.726
L353.604 255.094
L353.753 286.846
L354.274 192.644
L354.497 158.602
L354.646 173.135
L354.72 171.027
L354.869 141.227
L354.943 146.195
L355.166 180.461
L355.241 181.636
L355.39 203.375
L355.836 292.825
L355.985 313.414
L356.059 307.608
L356.282 265.756
L356.357 265.825
L356.729 159.777
L356.952 128.302
L357.026 129.079
L357.324 192.316
L357.398 190.173
L357.622 220.732
L357.696 211.237
L357.845 198.027
L358.068 249.227
L358.142 247.603
L358.291 221.959
L358.589 247.568
L358.663 243.724
L358.738 241.987
L358.812 246.16
L358.961 264.745
L359.035 262.636
L359.333 239.533
L359.482 246.298
L359.63 237.537
L359.779 259.224
L360.226 154.524
L360.374 128.146
L360.449 136.441
L360.598 157.6
L360.672 157.496
L360.821 170.43
L361.044 198.294
L361.193 172.305
L361.267 175.675
L361.862 282.491
L361.937 282.301
L362.086 271.233
L362.16 265.937
L362.309 274.136
L362.383 270.862
L362.978 190.691
L363.276 214.564
L363.499 176.107
L363.574 181.04
L363.722 178.889
L363.797 181.161
L363.871 177.187
L364.169 217.026
L364.243 215.816
L364.392 221.968
L364.615 194.545
L364.69 204.04
L364.838 226.59
L365.062 206.779
L365.21 221.45
L365.285 220.862
L365.434 223.515
L365.508 229.096
L365.731 266.343
L366.103 231.075
L366.326 197.379
L366.401 198.528
L366.624 206.209
L366.698 207.764
L366.773 204.42
L366.922 188.937
L367.07 188.315
L367.145 178.664
L367.219 184.609
L367.368 225.752
L367.442 225.398
L367.517 220.24
L367.666 230.34
L367.74 228.318
L367.889 227.178
L367.963 227.385
L368.186 233.416
L368.261 233.347
L368.41 228.655
L368.856 192.255
L368.93 193.292
L369.154 204.844
L369.228 204.481
L369.302 206.2
L369.451 224.422
L369.6 204.36
L369.674 206.407
L369.898 221.588
L369.972 221.735
L370.121 226.772
L370.567 209.129
L370.79 234.695
L370.865 231.265
L371.088 217.233
L371.162 218.054
L371.237 217.829
L371.311 214.97
L371.386 218.503
L371.609 243.49
L371.683 243.862
L371.758 245.054
L371.906 251.534
L371.981 242.929
L372.204 186.302
L372.427 203.185
L372.502 200.774
L372.65 189.87
L372.725 190.294
L372.799 192.376
L373.097 181.809
L373.32 200.299
L373.469 188.428
L373.766 237.676
L373.841 233.053
L373.99 218.858
L374.287 237.624
L374.436 264.451
L374.51 264.036
L374.957 222.089
L375.18 202.001
L375.254 200.238
L375.403 201.949
L375.775 166.551
L375.85 171.588
L376.222 246.436
L376.296 247.586
L376.37 239.81
L376.519 210.745
L376.668 220.94
L376.742 215.747
L376.891 197.154
L377.114 210.079
L377.189 208.611
L377.263 210.321
L377.412 206.969
L377.561 225.571
L377.784 268.736
L377.933 260.934
L378.082 222.132
L378.23 197.906
L378.379 196.039
L378.454 194.355
L378.528 197.525
L378.677 189.611
L378.974 173.791
L379.049 169.238
L379.198 189.948
L379.57 274.577
L379.644 274.542
L379.793 261.47
L380.165 217.613
L380.239 218.581
L380.462 236.509
L380.686 207.902
L380.909 191.884
L380.983 191.866
L381.206 200.221
L381.281 197.664
L381.43 184.885
L381.578 162.412
L382.099 257.262
L382.174 253.063
L382.322 233.356
L382.62 195.184
L382.694 196.255
L383.066 234.703
L383.29 215.013
L383.364 220.119
L383.513 240.311
L383.662 236.198
L383.81 247.007
L383.885 243.473
L384.331 181.403
L384.406 182.181
L384.48 184.807
L384.629 208.014
L384.778 228.707
L384.852 227.791
L385.075 196.255
L385.15 200.688
L385.224 199.279
L385.373 196.653
L385.745 235.723
L385.819 231.869
L385.968 206.554
L386.042 211.617
L386.414 264.727
L386.563 237.209
L386.861 191.279
L386.935 187.494
L387.01 190.035
L387.233 202.131
L387.382 218.909
L387.456 217
L387.679 184.885
L387.977 231.913
L388.126 255.776
L388.87 199.383
L389.093 232.63
L389.316 191.884
L389.911 249.901
L389.986 246.065
L390.283 208.153
L390.358 214.477
L390.432 213.406
L390.506 211.911
L390.655 201.457
L390.73 202.243
L390.878 191.434
L391.102 159.812
L391.25 202.329
L391.474 284.807
L391.548 285.273
L391.994 196.713
L392.069 198.839
L392.366 222.659
L392.441 221.406
L392.813 180.885
L392.887 182.967
L393.185 216.974
L393.259 216.214
L393.557 188.402
L393.706 210.373
L394.003 271.976
L394.152 258.178
L394.375 231.17
L394.673 186.777
L394.747 189.387
L394.97 219.92
L395.045 219.212
L395.194 200.593
L395.268 201.992
L395.64 234.608
L395.789 251.854
L395.938 219.393
L396.161 175.744
L396.31 176.928
L396.458 204.973
L396.756 254.463
L397.054 206.813
L397.202 210.511
L397.277 209.181
L397.426 217.907
L397.5 223.195
L397.574 222.322
L397.872 179.235
L398.393 271.441
L398.542 245.279
L398.839 171.934
L399.137 215.35
L399.211 210.131
L399.434 195.426
L399.583 189.127
L399.732 208.636
L400.03 252.916
L400.104 251.154
L400.402 205.967
L400.55 180.029
L400.699 202.329
L400.922 237.14
L400.997 236.155
L401.294 201.992
L401.443 212.827
L401.741 246.73
L401.815 242.54
L402.113 187.045
L402.187 193.266
L402.485 221.035
L402.559 223.394
L402.708 199.85
L402.931 166.923
L403.006 170.266
L403.303 255.172
L403.526 301.81
L403.601 294.613
L403.898 210.269
L403.973 212.395
L404.047 216.482
L404.122 213.57
L404.196 205.414
L404.27 208.135
L404.345 212.671
L404.419 207.479
L404.642 170.94
L405.089 193.637
L405.312 188.004
L405.461 175.295
L405.61 208.438
L405.833 248.812
L405.907 247.707
L405.982 244.657
L406.205 266.308
L406.577 220.853
L406.726 219.566
L406.8 218.469
L406.874 218.581
L406.949 220.447
L407.321 199.91
L407.47 225.899
L407.693 255.958
L407.842 227.515
L408.065 167.32
L408.139 168.296
L408.437 206.969
L408.66 246.082
L408.958 209.12
L409.032 213.812
L409.181 226.219
L409.255 224.586
L409.478 202.493
L409.702 178.301
L409.776 182.068
L409.925 220.629
L410.074 259.993
L410.148 258.653
L410.222 262.239
L410.297 260.908
L410.669 205.664
L410.743 206.926
L410.892 212.421
L411.115 156.002
L411.19 164.201
L411.562 236.293
L411.636 233.165
L411.785 221.726
L411.934 225.77
L412.157 205.094
L412.38 241.106
L412.454 235.801
L412.678 198.217
L412.752 193.897
L413.05 253.789
L413.347 218.944
L413.422 217.32
L413.645 258.55
L413.719 249.314
L414.166 138.402
L414.538 220.888
L414.686 254.057
L414.91 190.708
L414.984 192.1
L415.058 196.445
L415.356 277.108
L415.579 239.749
L415.951 281.757
L416.1 213.665
L416.323 128.552
L416.472 111.074
L416.546 121.26
L416.918 281.619
L416.993 271.778
L417.216 200.61
L417.439 218.46
L417.588 215.713
L417.811 177.144
L417.886 182.129
L418.258 289.87
L418.332 289.991
L418.481 248.709
L418.853 141.884
L418.927 146.774
L419.225 227.368
L419.597 261.436
L419.671 261.332
L419.82 236.414
L420.043 195.884
L420.118 192.169
L420.341 161.384
L420.713 221.069
L420.862 233.459
L420.936 233.044
L421.234 213.674
L421.382 193.784
L421.68 207.22
L421.978 281.593
L422.052 281.86
L422.126 272.59
L422.424 194.251
L422.498 194.536
L422.647 177.869
L422.87 198.528
L422.945 197.88
L423.168 186.337
L423.242 188.92
L423.466 256.735
L423.54 253.012
L423.689 221.666
L423.763 221.856
L423.838 220.741
L424.061 199.573
L424.284 214.417
L424.433 250.143
L424.507 244.786
L424.656 207.539
L424.805 212.922
L424.954 198.839
L425.326 255.007
L425.4 249.028
L425.698 167.804
L425.772 171.597
L425.921 185.775
L426.144 217.181
L426.367 242.125
L426.59 171.217
L426.665 183.304
L426.888 240.924
L427.037 229.407
L427.111 233.649
L427.26 249.763
L427.409 231.005
L427.483 235.662
L427.632 246.843
L427.706 246.013
L428.302 149.029
L428.376 159.76
L428.674 232.18
L428.897 238.401
L429.12 212.87
L429.418 241.227
L429.492 242.937
L429.641 213.708
L429.79 196.385
L429.938 186.665
L430.013 181.516
L430.459 224.344
L430.608 235.092
L430.757 225.441
L430.831 226.392
L430.98 238.626
L431.054 235.446
L431.129 236.12
L431.203 236.639
L431.426 217.225
L431.501 222.106
L431.575 218.581
L431.724 196.774
L431.798 198.277
L431.873 208.576
L431.947 204.005
L432.022 188.479
L432.096 190.302
L432.245 228.007
L432.468 197.862
L432.542 202.649
L432.691 187.218
L432.766 190.32
L432.914 214.918
L432.989 213.864
L433.063 215.618
L433.212 224.068
L433.361 215.263
L433.435 216.914
L433.658 254.057
L433.807 242.004
L433.956 248.467
L434.402 203.591
L434.551 219.773
L434.626 212.594
L434.774 185.274
L434.923 207.652
L435.072 180.401
L435.146 182.077
L435.295 207.945
L435.444 196.696
L435.667 210.148
L435.742 210.719
L435.89 232.129
L436.039 219.013
L436.114 223.575
L436.262 244.726
L436.337 235.541
L436.486 190.06
L436.56 195.694
L436.709 222.676
L436.783 219.048
L436.858 225.139
L437.006 260.796
L437.081 259.803
L437.304 235.118
L437.527 200.852
L437.602 199.012
L437.75 180.574
L437.825 183.805
L438.048 198.424
L438.197 196.091
L438.271 198.545
L438.42 189.931
L438.494 192.108
L438.718 244.311
L438.792 235.602
L438.866 230.176
L439.09 256.64
L439.462 207.41
L439.61 233.969
L439.685 247.56
L439.759 236.924
L439.908 198.13
L440.057 212.404
L440.28 183.727
L440.429 193.966
L440.503 192.039
L440.578 194.113
L440.95 230.764
L441.024 230.072
L441.173 219.462
L441.396 250.523
L441.694 190.829
L441.842 201.491
L441.917 197.767
L441.991 198.061
L442.214 227.662
L442.363 216.153
L442.438 209.354
L442.512 210.166
L442.735 252.199
L442.884 226.616
L442.958 227.385
L443.107 238.341
L443.256 214.468
L443.33 217.57
L443.405 219.532
L443.554 202.623
L443.702 179.58
L443.777 182.829
L444 206.191
L444.149 207.505
L444.223 213.406
L444.372 248.363
L444.446 241.252
L444.595 201.621
L444.744 241.019
L444.818 240.328
L444.967 210.632
L445.042 214.33
L445.19 222.573
L445.339 208.446
L445.488 185.507
L445.562 187.227
L445.786 224.681
L445.934 213.769
L446.083 237.632
L446.158 227.973
L446.306 195.037
L446.455 246.29
L446.53 245.106
L446.827 197.845
L447.05 206.425
L447.199 185.499
L447.497 248.32
L447.72 216.836
L447.794 216.11
L448.018 194.467
L448.241 235.982
L448.315 231.239
L448.464 211.47
L448.538 214.088
L448.762 241.512
L448.836 237.218
L448.91 239.948
L449.059 258.299
L449.208 230.478
L449.431 192.246
L449.654 173.878
L449.729 166.568
L449.803 170.43
L449.878 183.943
L449.878 183.943" style="fill:none;stroke:#808080;stroke-linecap:square;"/>
   </g>
  </g>
 </g>
 <defs>
  <clipPath id="p7ff5b81e1d">
   <rect height="345.6" width="446.4" x="72.0" y="43.2"/>
  </clipPath>
 </defs>
</svg>
