<?xml version="1.0" encoding="utf-8" standalone="no"?>
<!DOCTYPE svg PUBLIC "-//W3C//DTD SVG 1.1//EN"
  "http://www.w3.org/Graphics/SVG/1.1/DTD/svg11.dtd">
<!-- Created with matplotlib (http://matplotlib.org/) -->
<svg height="432pt" version="1.1" viewBox="0 0 576 432" width="576pt" xmlns="http://www.w3.org/2000/svg" xmlns:xlink="http://www.w3.org/1999/xlink">
 <defs>
  <style type="text/css">
*{stroke-linecap:butt;stroke-linejoin:round;}
  </style>
 </defs>
 <g id="figure_1">
  <g id="patch_1">
   <path d="
M0 432
L576 432
L576 0
L0 0
z
" style="fill:#ffffff;"/>
  </g>
  <g id="axes_1">
   <g id="line2d_1">
    <path clip-path="url(#p7ff5b81e1d)" d="
M72 238.963
L72.0744 248.928
L72.1488 251.831
L72.2976 236.958
L72.4464 205.071
L72.5208 210.808
L72.6696 231.498
L72.8184 200.659
L72.8928 201.477
L72.9672 195.06
L73.4136 240.172
L73.5624 192.894
L73.7112 141.227
L74.0088 224.643
L74.0832 214.425
L74.232 209.022
L74.3808 241.313
L74.4552 236.601
L74.5296 222.985
L74.6784 246.831
L74.8272 221.959
L74.9016 227.512
L75.0504 239.343
L75.1992 221.89
L75.2736 220.496
L75.348 215.75
L75.4224 216.003
L75.6456 242.096
L75.72 245.656
L75.7944 237.949
L75.9432 183.529
L76.0176 183.218
L76.092 186.259
L76.1664 176.582
L76.3896 217.582
L76.464 206.396
L76.6128 229.977
L76.7616 195.74
L76.836 202.295
L76.9104 202.203
L76.9848 203.481
L77.208 226.291
L77.2824 226.014
L77.3568 226.694
L77.4312 222.558
L77.58 200.256
L77.952 268.212
L78.324 171.916
L78.3984 187.215
L78.4728 172.066
L78.5472 173.529
L78.696 225.231
L78.7704 219.886
L78.8448 203.124
L79.068 262.498
L79.2912 226.683
L79.44 186.501
L79.5888 228.595
L79.7376 209.287
L79.812 224.367
L79.8864 222.455
L80.1096 206.062
L80.184 207.075
L80.3328 226.786
L80.4072 210.635
L80.556 169.036
L80.7048 205.682
L80.7792 201.477
L80.928 229.413
L81.0768 205.566
L81.2256 232.373
L81.3744 195.371
L81.672 262.13
L81.7464 259.503
L81.9696 235.207
L82.044 232.938
L82.2672 164.359
L82.3416 166.421
L82.6392 224.851
L82.7136 228.618
L82.8624 203.873
L83.0856 263.973
L83.3832 194.864
L83.4576 197.053
L83.6064 211.419
L83.7552 237.304
L83.904 189.127
L84.0528 227.305
L84.3504 178.598
L84.4992 220.923
L84.5736 239.838
L84.7224 195.256
L84.7968 205.716
L84.8712 230.081
L84.9456 227.443
L85.02 229.539
L85.1688 255.506
L85.3176 231.106
L85.392 236.187
L85.5408 204.253
L85.6896 229.874
L85.8384 188.344
L85.9872 212.375
L86.136 171.502
L86.508 227.961
L86.5824 217.893
L86.7312 170.188
L86.88 204.126
L86.9544 196.35
L87.0288 196.362
L87.252 257.648
L87.3264 254.803
L87.4752 265.401
L87.7728 209.23
L87.8472 218.123
L88.0704 260.217
L88.2192 245.437
L88.4424 179.266
L88.5168 179.831
L88.8144 225.991
L88.8888 219.909
L89.112 185.268
L89.4096 215.934
L89.484 210.002
L89.7072 142.045
L90.3024 270.032
L90.4512 243.536
L90.6 257.499
L90.6744 254.354
L90.8232 274.283
L91.0464 223.042
L91.1208 223.768
L91.2696 215.393
L91.4184 230.139
L91.4928 229.574
L91.6416 207.179
L91.7904 199.507
L91.8648 204.61
L92.0136 229.897
L92.088 232.569
L92.1624 229.804
L92.2368 232.615
L92.6088 116.851
L92.832 207.018
L92.9808 256.796
L93.0552 255.252
L93.204 240.161
L93.2784 239.873
L93.3528 236.394
L93.4272 236.613
L93.5016 242.396
L93.576 237.938
L93.8736 186.455
L93.948 199.737
L94.1712 298.752
L94.4688 213.907
L94.5432 193.263
L94.692 215.658
L94.8408 158.427
L94.9896 127.691
L95.1384 171.421
L95.3616 263.247
L95.5104 294.478
L95.5848 283.741
L95.7336 209.414
L95.808 216.165
L96.0312 196.546
L96.1056 196.224
L96.4032 160.074
L96.4776 168.518
L96.7752 287.957
L96.924 251.451
L97.1472 215.658
L97.2216 211.223
L97.296 211.557
L97.4448 244.7
L97.668 178.471
L97.8168 144.061
L98.04 212.121
L98.1144 224.678
L98.2632 259.319
L98.6352 172.193
L98.784 243.294
L99.0072 146.043
L99.0816 153.865
L99.3048 191.708
L99.528 288.971
L99.6768 259.019
L99.7512 237.661
L99.8256 241.106
L99.9744 259.768
L100.346 199.968
L100.495 215.808
L100.644 188.736
L100.718 192.48
L100.793 203.504
L100.867 202.767
L100.942 198.101
L101.016 198.954
L101.165 208.308
L101.239 202.905
L101.314 210.117
L101.537 200.624
L101.686 158.496
L101.76 164.705
L101.983 273.074
L102.504 225.577
L102.578 202.709
L102.653 203.942
L102.727 223.779
L103.174 166.398
L103.248 167.539
L103.62 260.286
L103.843 202.168
L103.992 249.619
L104.066 247.234
L104.215 209.253
L104.29 209.633
L104.364 199.795
L104.513 148.035
L105.034 314.396
L105.257 216.234
L105.406 179.531
L105.48 192.042
L105.554 191.466
L105.629 188.402
L105.778 206.845
L105.926 157.563
L106.075 194.853
L106.298 247.603
L106.522 176.778
L106.745 197.145
L107.191 266.219
L107.266 251.854
L107.414 190.752
L107.712 249.4
L107.786 247.58
L108.01 232.108
L108.158 183.045
L108.307 234.585
L108.382 232.627
L108.605 197.641
L108.754 146.307
L108.828 146.423
L108.902 141.4
L109.051 181.282
L109.274 265.39
L109.349 267.532
L109.498 277.682
L109.572 295.63
L109.646 279.398
L109.87 177.158
L109.944 187.572
L110.093 164.198
L110.167 167.758
L110.242 169.774
L110.316 167.988
L110.539 235.265
L110.688 274.848
L110.911 237.603
L110.986 240.979
L111.06 245.138
L111.283 206.96
L111.358 211.983
L111.432 212.455
L111.506 207.398
L111.655 234.631
L111.804 207.029
L111.878 208.354
L111.953 211.764
L112.102 247.707
L112.25 197.445
L112.325 164.59
L112.399 166.813
L112.622 214.345
L112.697 210.439
L112.846 181.213
L113.069 239.47
L113.143 238.329
L113.218 244.124
L113.366 231.302
L113.515 252.879
L113.59 250.287
L113.738 199.956
L113.887 232.281
L113.962 218.204
L114.036 172.7
L114.11 174.647
L114.259 218.722
L114.557 176.098
L114.631 181.593
L114.78 202.594
L114.854 195.532
L115.078 237.511
L115.152 234.297
L115.226 217.639
L115.45 280.055
L115.524 266.346
L115.747 176.997
L115.896 223.088
L115.97 216.303
L116.045 229.793
L116.268 185.81
L116.417 240.403
L116.566 223.595
L116.64 234.228
L116.789 219.724
L116.863 224.655
L117.012 250.932
L117.235 182.607
L117.31 183.137
L117.384 162.055
L117.458 164.198
L117.682 222.651
L117.83 248.259
L117.979 225.15
L118.128 257.28
L118.202 252.856
L118.5 155.523
L118.574 167.827
L119.17 270.101
L119.244 254.469
L119.393 171.963
L119.765 253.478
L119.839 248.352
L120.211 168.115
L120.36 197.767
L120.583 241.67
L120.658 242.027
L120.732 234.493
L120.806 210.635
L120.881 219.667
L121.03 260.713
L121.178 227.201
L121.327 194.922
L121.476 200.981
L121.625 170.546
L121.774 197.318
L121.997 250.909
L122.22 206.834
L122.294 188.759
L122.369 207.064
L122.518 277.509
L122.592 256.231
L122.741 185.36
L122.89 205.958
L123.038 167.596
L123.113 169.52
L123.187 178.863
L123.485 260.044
L123.708 168.483
L123.782 196.857
L123.931 264.387
L124.006 254.676
L124.229 194.876
L124.303 203.159
L124.378 195.291
L124.526 163.875
L124.75 251.404
L124.898 289.904
L125.122 162.977
L125.196 181.593
L125.345 231.498
L125.419 232.512
L125.568 248.962
L125.717 217.985
L125.866 246.071
L126.014 203.815
L126.089 205.313
L126.238 186.328
L126.312 190.452
L126.386 199.023
L126.535 157.92
L126.61 164.532
L126.833 270.366
L126.907 260.125
L127.13 211.603
L127.205 212.916
L127.279 204.345
L127.428 147.586
L127.502 154.095
L127.651 211.534
L127.726 209.045
L127.949 293.74
L128.172 210.843
L128.321 250.828
L128.544 210.923
L128.618 212.72
L128.842 185.337
L129.065 210.082
L129.288 257.187
L129.511 213.435
L129.66 162.424
L130.032 237.58
L130.181 156.745
L130.776 237.523
L130.85 266.392
L130.925 261.945
L130.999 245.103
L131.074 245.161
L131.148 275.654
L131.222 264.917
L131.371 208.158
L131.446 229.586
L131.52 221.475
L131.594 190.268
L131.669 193.47
L131.743 195.463
L131.818 204.299
L131.892 202.375
L131.966 202.456
L132.041 201.212
L132.264 259.215
L132.338 257.095
L132.487 228.652
L132.71 141.757
L133.082 223.595
L133.231 178.851
L133.454 222.547
L133.529 216.441
L133.752 261.081
L133.826 258.075
L134.05 245.863
L134.198 286.103
L134.273 276.414
L134.496 204.253
L134.57 222.754
L134.794 172.124
L134.868 182.019
L135.24 241.808
L135.314 227.558
L135.538 135.179
L135.91 190.222
L135.984 217.824
L136.058 212.213
L136.133 215.232
L136.282 253.616
L136.356 244.976
L136.505 298.337
L136.579 297.853
L136.802 256.819
L136.951 239.343
L137.1 247.868
L137.249 196.569
L137.398 136.078
L137.546 178.137
L137.77 241.382
L137.844 242.661
L137.918 240.23
L138.142 181.271
L138.365 209.955
L138.439 206.903
L138.588 188.62
L138.662 189.461
L138.886 173.921
L138.96 186.328
L139.109 283.591
L139.183 280.873
L139.555 191.109
L139.63 192.745
L139.778 214.183
L139.853 247.753
L139.927 237.661
L140.002 210.474
L140.076 218.745
L140.225 244.723
L140.374 222.892
L140.522 243.767
L140.746 201.154
L140.894 215.278
L140.969 215.485
L141.118 207.133
L141.192 189.07
L141.266 190.153
L141.415 217.086
L141.564 204.368
L141.713 243.26
L141.862 211.695
L141.936 215.289
L142.01 243.075
L142.234 172.965
L142.308 182.826
L142.382 189.726
L142.457 177.723
L142.68 248.087
L142.829 212.018
L142.978 257.406
L143.052 249.976
L143.275 193.413
L143.498 245.506
L143.573 228.618
L143.945 176.697
L144.317 234.332
L144.391 216.464
L144.466 217.662
L144.54 221.775
L144.614 220.646
L144.838 200.555
L144.986 225.346
L145.061 218.4
L145.135 219.229
L145.21 227.639
L145.284 225.415
L145.358 219.69
L145.507 201.488
L145.582 199.956
L145.656 206.281
L145.805 247.925
L145.879 243.813
L145.954 236.578
L146.102 279.202
L146.326 213.63
L146.4 215.877
L146.549 171.11
L146.921 231.463
L147.144 195.579
L147.218 191.593
L147.367 172.711
L147.442 179.923
L147.516 203.712
L147.665 177.665
L147.814 235.875
L147.962 222.293
L148.037 224.217
L148.186 214.391
L148.26 221.257
L148.409 241.555
L148.483 245.656
L148.632 229.47
L148.706 231.371
L148.781 249.676
L148.855 243.075
L148.93 237.534
L149.004 264.779
L149.078 261.588
L149.376 178.679
L149.45 181.121
L149.525 167.516
L149.822 205.682
L149.897 228.053
L150.046 192.226
L150.194 220.611
L150.269 214.633
L150.418 244.608
L150.492 236.809
L150.566 208.262
L150.641 219.609
L150.79 241.371
L150.864 235.956
L151.087 158.772
L151.162 163.691
L151.385 251.52
L151.534 198.896
L151.682 244.515
L151.757 227.823
L151.831 234.7
L151.906 261.392
L151.98 254.077
L152.129 175.868
L152.278 235.783
L152.352 224.505
L152.426 186.835
L152.501 196.327
L152.65 217.317
L152.724 215.854
L152.798 198.124
L152.873 200.613
L153.022 239.343
L153.096 239.539
L153.17 240.242
L153.319 209.472
L153.468 249.031
L153.691 172.619
L153.84 208.665
L153.989 186.858
L154.063 190.521
L154.138 184.335
L154.361 263.247
L154.435 242.58
L154.51 220.047
L154.658 256.577
L154.733 254.688
L154.882 225.738
L154.956 228.123
L155.03 220.888
L155.179 193.309
L155.402 233.226
L155.626 191.224
L155.7 186.651
L155.774 188.978
L155.849 187.491
L155.923 179.577
L156.146 235.841
L156.221 223.376
L156.37 207.916
L156.518 231.072
L156.742 207.467
L156.816 208.181
L157.039 248.778
L157.114 242.891
L157.188 242.396
L157.337 285.941
L157.411 280.089
L157.634 182.181
L157.858 162.297
L158.006 174.301
L158.453 254.273
L158.527 254.077
L158.825 200.163
L158.974 204.368
L159.048 205.324
L159.122 216.257
L159.197 210.013
L159.271 215.082
L159.346 206.269
L159.569 248.098
L159.792 185.66
L159.866 190.003
L160.015 231.728
L160.09 222.305
L160.238 184.174
L160.313 182.227
L160.536 232.155
L160.61 267.832
L160.685 265.286
L160.834 204.184
L160.908 214.621
L160.982 212.743
L161.206 189.208
L161.429 236.187
L161.578 225.715
L161.652 247.66
L161.726 243.237
L161.95 176.455
L162.322 236.739
L162.396 225.554
L162.47 242.995
L162.545 236.693
L162.619 240.46
L162.694 239.608
L162.842 212.893
L162.917 224.586
L162.991 221.683
L163.14 190.821
L163.214 193.839
L163.363 224.16
L163.512 192.917
L163.586 194.346
L163.735 204.426
L163.81 193.344
L164.033 226.325
L164.182 196.546
L164.256 199.299
L164.33 209.207
L164.405 206.891
L164.479 184.45
L164.554 186.697
L164.926 257.787
L165.074 235.449
L165.149 236.106
L165.298 297.922
L165.372 290.837
L165.521 237.742
L165.744 183.782
L165.818 154.406
L165.893 161.399
L166.042 197.595
L166.265 169.198
L166.339 169.682
L166.414 175.81
L166.711 238.272
L166.786 237.419
L166.86 238.145
L167.009 255.206
L167.232 209.598
L167.455 256.704
L167.53 255.241
L167.753 192.238
L167.902 216.683
L168.125 178.057
L168.274 227.685
L168.497 165.373
L168.571 160.454
L168.943 236.889
L169.092 270.044
L169.166 253.536
L169.241 258.95
L169.39 286.552
L169.613 229.493
L169.687 222.639
L169.836 195.314
L169.91 207.559
L169.985 204.541
L170.134 184.289
L170.282 202.721
L170.357 197.698
L170.431 200.29
L170.506 234.931
L170.58 220.876
L170.729 184.796
L170.878 240.345
L170.952 216.027
L171.026 216.683
L171.25 275.308
L171.324 253.766
L171.473 198.263
L171.547 200.832
L171.77 171.329
L171.919 186.789
L171.994 189.127
L172.142 210.992
L172.217 198.631
L172.291 204.034
L172.44 166.917
L172.514 185.522
L172.738 212.72
L172.812 221.095
L172.961 205.555
L173.11 239.988
L173.407 296.309
L173.556 239.977
L173.705 258.892
L174.151 192.053
L174.226 193.228
L174.374 171.225
L174.449 177.4
L174.523 179.474
L174.598 162.758
L174.672 165.189
L174.97 225.807
L175.044 227.04
L175.118 215.301
L175.193 217.939
L175.342 243.571
L175.565 204.576
L175.639 222.835
L175.714 220.646
L175.862 186.236
L176.011 211.776
L176.16 206.131
L176.383 246.566
L176.458 246.589
L176.532 221.971
L176.606 225.6
L176.681 228.917
L176.83 218.688
L176.904 217.824
L176.978 221.464
L177.127 238.779
L177.276 209.379
L177.35 214.955
L177.425 237.742
L177.574 198.551
L177.648 209.207
L177.871 242.281
L177.946 237.891
L178.094 175.107
L178.169 206.419
L178.243 203.758
L178.392 149.211
L178.466 180.994
L178.541 176.202
L178.615 178.149
L178.69 187.71
L178.913 238.755
L179.062 231.233
L179.136 235.495
L179.359 270.539
L179.508 243.087
L179.657 185.821
L179.731 192.526
L179.806 227.328
L179.88 213.769
L179.954 195.475
L180.029 203.493
L180.178 230.542
L180.252 228.71
L180.401 240.034
L180.773 190.671
L180.922 197.41
L180.996 207.513
L181.145 185.084
L181.368 217.075
L181.442 212.501
L181.517 214.402
L181.591 222.627
L181.666 217.443
L181.814 233.456
L181.889 247.419
L181.963 241.417
L182.038 228.768
L182.112 236.532
L182.261 210.935
L182.41 249.976
L182.484 233.963
L182.558 213.1
L182.633 228.56
L182.707 226.383
L183.005 190.279
L183.079 185.049
L183.154 167.159
L183.302 203.032
L183.377 189.68
L183.451 208.942
L183.526 207.663
L183.6 194
L183.823 230.738
L183.898 230.853
L183.972 225.254
L184.046 227.155
L184.195 240.322
L184.27 227.27
L184.344 189.139
L184.493 252.902
L184.567 236.521
L184.642 214.932
L184.79 254.803
L184.865 249.607
L185.162 180.533
L185.311 207.26
L185.46 180.844
L185.534 191.662
L185.683 233.802
L185.832 218.1
L185.981 262.994
L186.055 251.946
L186.204 231.855
L186.427 251.727
L186.502 235.069
L186.65 180.533
L186.799 199.173
L186.948 147.195
L187.171 216.268
L187.246 203.251
L187.32 209.403
L187.394 229.01
L187.469 221.015
L187.618 238.813
L187.692 231.579
L187.99 207.075
L188.064 177.849
L188.138 183.54
L188.362 220.554
L188.51 192.261
L188.734 261.289
L188.808 256.704
L188.882 257.141
L189.031 220.243
L189.106 219.506
L189.329 179.819
L189.478 212.905
L189.552 194.761
L189.701 239.562
L189.85 236.233
L189.924 234.286
L190.073 246.589
L190.222 220.923
L190.296 221.763
L190.445 235.403
L190.519 226.418
L190.668 195.625
L190.817 215.301
L190.891 212.098
L191.04 155.558
L191.189 182.446
L191.263 172.677
L191.338 174.981
L191.858 261.738
L192.007 246.912
L192.156 213.861
L192.305 244.216
L192.379 236.878
L192.528 195.221
L192.602 197.883
L192.677 196.477
L192.751 182.066
L193.049 228.71
L193.123 225.922
L193.198 223.595
L193.272 204.253
L193.495 228.387
L193.644 201.788
L193.793 224.079
L193.867 218.872
L194.016 181.616
L194.239 237.12
L194.611 207.099
L194.686 198.816
L194.909 245.126
L195.058 222.616
L195.281 179.243
L195.355 177.734
L195.504 167.101
L195.802 262.59
L195.876 261.231
L195.95 263.316
L196.099 235.369
L196.322 188.114
L196.397 230.265
L196.471 229.712
L196.546 191.685
L196.62 194.3
L196.769 226.971
L196.918 187.584
L197.066 223.607
L197.141 214.69
L197.215 215.462
L197.29 223.031
L197.364 216.084
L197.513 196.039
L197.959 247.038
L198.108 231.659
L198.182 231.417
L198.257 242.707
L198.331 239.09
L198.554 194.162
L198.778 266.553
L198.926 204.495
L199.075 239.907
L199.298 152.989
L199.373 173.506
L199.596 194.738
L199.67 224.551
L199.745 224.471
L199.819 225.623
L199.894 215.105
L199.968 179.116
L200.042 186.063
L200.191 215.427
L200.34 186.915
L200.414 190.199
L200.563 276.702
L200.638 269.076
L200.786 221.141
L200.861 228.307
L200.935 231.648
L201.01 227.189
L201.158 208.158
L201.233 203.746
L201.382 233.479
L201.53 206.258
L201.605 210.013
L201.754 266.231
L201.902 219.045
L201.977 230.231
L202.051 236.532
L202.126 235.472
L202.274 199.415
L202.349 199.576
L202.423 199.726
L202.498 167.504
L202.572 174.704
L202.795 244.297
L202.944 233.203
L203.242 189.784
L203.316 185.902
L203.39 200.002
L203.465 192.123
L203.539 193.436
L203.614 200.486
L203.762 168.253
L204.06 254.503
L204.209 249.504
L204.506 214.633
L204.581 243.64
L204.655 231.947
L204.804 202.226
L204.878 216.315
L204.953 215.831
L205.027 207.605
L205.102 211.845
L205.176 235.472
L205.325 204.76
L205.548 226.176
L205.622 213.515
L205.771 235.23
L205.994 182.077
L206.069 190.199
L206.366 242.661
L206.59 174.036
L206.664 194.657
L206.738 191.224
L206.813 189.381
L207.185 266.461
L207.259 267.014
L207.631 199.253
L207.78 224.828
L207.854 217.49
L207.929 217.858
L208.078 228.33
L208.152 215.209
L208.226 216.971
L208.301 221.648
L208.524 201.131
L208.598 186.051
L208.747 228.549
L208.822 217.858
L208.97 154.809
L209.045 155.558
L209.566 250.967
L209.714 210.693
L209.863 240.115
L210.012 188.851
L210.161 226.348
L210.235 219.955
L210.31 206.499
L210.682 281.414
L210.756 277.152
L211.054 217.328
L211.128 211.303
L211.277 218.377
L211.5 175.419
L211.574 181.202
L211.723 236.463
L211.946 163.323
L212.021 168.553
L212.095 184.231
L212.17 181.478
L212.318 165.788
L212.467 221.706
L212.616 200.751
L212.839 251.243
L212.914 242.119
L212.988 244.907
L213.286 272.279
L213.434 201.753
L213.509 203.297
L213.583 212.847
L213.732 194.139
L213.806 197.756
L214.03 238.237
L214.178 203.401
L214.327 237.88
L214.476 201.016
L214.55 207.029
L214.625 214.656
L214.699 211.568
L214.848 183.966
L214.997 214.598
L215.071 206.304
L215.146 197.445
L215.443 270.332
L215.666 193.436
L215.741 196.373
L215.815 190.659
L215.964 161.618
L216.038 163.91
L216.187 206.603
L216.262 178.448
L216.336 180.441
L216.559 253.167
L216.634 252.315
L216.708 248.225
L216.857 271.541
L216.931 260.217
L217.08 226.406
L217.154 232.592
L217.229 252.902
L217.452 201.189
L217.601 235.035
L217.675 222.697
L217.75 190.717
L217.824 192.526
L217.973 234.965
L218.196 177.411
L218.27 179.877
L218.419 153.277
L218.568 167.113
L218.717 211.683
L218.866 207.49
L219.163 277.071
L219.238 258.581
L219.312 262.21
L219.386 258.651
L219.461 240.115
L219.535 242.834
L219.684 249.953
L219.982 171.605
L220.13 218.446
L220.279 211.119
L220.354 185.038
L220.428 191.028
L220.577 154.867
L220.651 162.712
L220.726 165.972
L220.874 203.907
L220.949 201.085
L221.172 233.721
L221.395 273.108
L221.47 282.036
L221.842 175.58
L221.916 177.987
L222.288 260.989
L222.362 254.93
L222.809 190.348
L222.883 205.29
L222.958 199.737
L223.032 185.303
L223.106 185.36
L223.33 257.395
L223.404 248.213
L223.627 223.457
L223.702 235.288
L223.776 234.09
L223.85 227.005
L223.925 231.705
L223.999 231.579
L224.074 224.505
L224.222 180.119
L224.371 201.373
L224.446 198.689
L224.594 170.626
L224.669 180.28
L224.743 183.782
L224.818 177.642
L224.892 182.826
L225.115 234.85
L225.19 236.647
L225.338 284.64
L225.934 172.135
L226.008 170.787
L226.231 179.669
L226.529 237.327
L226.603 220.082
L226.678 225.024
L226.752 234.7
L226.826 220.035
L226.901 222.075
L226.975 213.93
L227.05 218.78
L227.198 210.336
L227.347 217.305
L227.422 210.025
L227.645 249.354
L227.719 264.848
L227.794 237.523
L227.868 250.771
L227.942 237.097
L228.017 238.364
L228.091 238.779
L228.314 178.725
L228.389 173.76
L228.538 182.653
L228.761 213.999
L228.984 224.332
L229.058 186.144
L229.133 191.247
L229.505 249.17
L229.579 235.161
L229.654 239.85
L229.877 217.029
L230.026 221.81
L230.174 167.804
L230.472 228.134
L230.546 234.205
L230.695 221.982
L230.77 225.6
L230.844 217.063
L230.993 237.557
L231.067 235.346
L231.216 211.995
L231.29 226.118
L231.365 224.125
L231.588 183.413
L231.662 190.268
L231.96 265.92
L232.034 270.067
L232.406 174.094
L232.481 171.536
L232.555 177.515
L232.63 162.885
L232.704 170.373
L232.927 247.96
L233.002 242.188
L233.076 229.159
L233.15 233.283
L233.225 233.894
L233.448 206.523
L233.597 221.637
L233.82 195.579
L234.192 245.195
L234.341 189.749
L234.415 192.065
L234.564 213.849
L234.713 179.451
L234.787 189.991
L234.936 235.495
L235.234 251.957
L235.382 228.929
L235.531 203.735
L235.68 233.03
L235.754 224.62
L235.978 234.205
L236.052 255.114
L236.126 252.349
L236.201 241.359
L236.275 254.066
L236.498 171.156
L236.573 188.874
L236.647 185.925
L236.722 174.313
L236.796 187.33
L236.87 183.459
L237.019 147.494
L237.168 170.258
L237.242 173.483
L237.54 227.984
L237.689 260.286
L237.763 255.713
L237.912 269.157
L238.061 231.486
L238.21 249.964
L238.284 243.928
L238.358 225.531
L238.433 233.341
L238.507 232.88
L238.582 213.147
L238.656 214.218
L238.73 214.414
L238.879 194.346
L238.954 198.827
L239.028 202.629
L239.102 200.532
L239.177 200.855
L239.251 211.81
L239.4 191.017
L239.474 195.901
L239.549 194.461
L239.698 182.549
L239.772 170.269
L239.921 235.634
L239.995 227.5
L240.07 200.336
L240.144 212.859
L240.293 258.178
L240.442 220.024
L240.59 258.432
L240.665 253.847
L241.186 161.33
L241.26 172.688
L241.409 209.99
L241.558 192.249
L241.706 258.962
L241.855 227.443
L242.004 249.699
L242.45 179.082
L242.674 207.801
L242.748 205.693
L242.822 208.562
L242.897 228.088
L242.971 221.614
L243.12 219.517
L243.269 228.802
L243.343 224.713
L243.418 237.143
L243.641 182.814
L243.715 191.374
L243.79 192.053
L244.087 231.417
L244.236 285.285
L244.31 277.612
L244.682 190.786
L244.757 195.003
L244.906 171.525
L245.278 202.802
L245.352 201.408
L245.501 210.025
L245.575 203.781
L245.65 206.442
L246.022 256.611
L246.319 235.092
L246.394 260.448
L246.766 168.161
L246.914 204.91
L246.989 194.277
L247.138 200.97
L247.361 226.291
L247.584 233.249
L247.658 227.374
L247.733 230.507
L247.882 187.745
L248.03 192.353
L248.254 216.879
L248.402 247.522
L248.477 252.142
L248.626 275.954
L248.998 190.256
L249.146 168.541
L249.221 168.357
L249.295 191.8
L249.37 181.432
L249.518 218.607
L249.667 162.378
L249.742 168.737
L249.816 205.831
L249.89 191.109
L249.965 178.909
L250.262 228.353
L250.337 231.82
L250.486 279.709
L250.56 277.059
L251.155 176.052
L251.23 181.271
L251.527 227.835
L251.75 239.032
L251.825 255.344
L252.048 200.233
L252.122 205.209
L252.197 205.97
L252.271 208.838
L252.346 207.939
L252.42 192.572
L252.494 200.981
L252.569 232.097
L252.643 221.222
L252.718 217.651
L252.792 223.676
L253.015 252.556
L253.09 259.088
L253.164 250.448
L253.387 185.763
L253.462 181.052
L253.61 156.56
L253.834 184.681
L253.908 183.033
L254.131 260.782
L254.206 259.077
L254.429 235.207
L254.652 197.237
L254.726 199.541
L254.801 194.53
L254.875 178.149
L254.95 179.093
L255.098 197.71
L255.247 221.602
L255.322 204.806
L255.545 237.776
L255.619 228.03
L255.694 231.682
L255.768 232.558
L255.842 230.634
L255.991 198.412
L256.512 263.823
L256.661 224.931
L256.735 237.684
L256.81 232.051
L256.958 202.652
L257.033 204.437
L257.182 230.876
L257.33 193.367
L257.405 190.418
L257.479 219.333
L257.777 166.018
L257.851 166.905
L257.926 154.59
L258.595 277.048
L258.67 279.617
L258.893 234.862
L258.967 229.943
L259.116 185.015
L259.19 187.123
L259.339 205.566
L259.414 190.959
L259.562 223.227
L259.637 247.971
L259.711 244.469
L259.934 202.583
L260.083 211.349
L260.232 168.507
L260.306 170.119
L260.604 248.663
L260.678 239.712
L260.827 216.199
L260.902 230.807
L260.976 223.664
L261.05 235
L261.125 229.827
L261.274 189.277
L261.348 197.836
L261.571 263.558
L261.72 266.139
L261.794 262.947
L261.869 247.407
L262.018 186.017
L262.166 195.371
L262.241 192.756
L262.315 174.531
L262.39 177.642
L262.613 234.493
L262.687 232.247
L262.762 222.259
L262.91 166.606
L263.134 202.606
L263.208 190.683
L263.282 192.606
L263.357 219.137
L263.431 207.605
L263.506 197.871
L263.729 262.924
L264.026 190.302
L264.175 210.174
L264.324 226.521
L264.398 218.953
L264.547 244.043
L264.622 243.179
L264.845 214.103
L264.994 211.971
L265.068 213.066
L265.142 205.532
L265.291 218.722
L265.44 205.474
L265.663 246.531
L265.886 221.222
L266.184 212.951
L266.258 214.909
L266.407 205.428
L266.556 192.652
L266.779 213.331
L266.928 249.93
L267.151 229.966
L267.598 184.669
L267.672 186.167
L267.746 178.828
L268.267 242.177
L268.342 239.136
L268.49 215.658
L268.639 260.655
L268.714 257.752
L268.788 258.063
L268.862 256.162
L269.011 204.944
L269.086 207.087
L269.16 208.469
L269.234 212.743
L269.309 212.64
L269.532 163.196
L269.755 242.419
L269.83 233.652
L270.053 208.02
L270.202 217.743
L270.35 182.872
L270.722 238.617
L270.946 178.817
L271.169 206.603
L271.392 268.627
L271.541 238.537
L271.69 270.516
L271.913 227.593
L271.987 252.902
L272.21 187.837
L272.359 204.311
L272.434 205.543
L272.582 242.177
L272.731 198.919
L272.806 205.497
L272.88 188.897
L272.954 193.309
L273.103 209.011
L273.178 205.532
L273.326 222.812
L273.401 201.419
L273.475 201.638
L273.55 209.771
L273.698 196.765
L273.773 204.553
L273.847 231.095
L273.922 230.542
L274.07 188.966
L274.442 245.944
L274.591 192.157
L274.666 201.822
L274.74 221.683
L274.814 210.416
L274.889 180.556
L274.963 181.708
L275.186 206.511
L275.558 263.282
L275.633 256.704
L275.782 220.83
L275.93 253.248
L276.005 251.646
L276.154 257.452
L276.451 185.499
L276.526 187.779
L276.674 207.156
L276.823 180.487
L276.972 194.991
L277.046 191.742
L277.121 199.311
L277.27 245.737
L277.344 245.737
L277.642 175.822
L277.79 202.237
L277.939 171.986
L278.237 216.441
L278.46 280.711
L278.683 254.457
L278.832 267.337
L279.13 207.986
L279.278 184.888
L279.353 187.261
L279.502 201.339
L279.65 177.273
L279.874 199.38
L279.948 193.113
L280.097 196.5
L280.246 213.584
L280.32 224.298
L280.394 221.499
L280.543 190.014
L280.618 193.528
L280.915 255.863
L281.064 316.896
L281.138 310.836
L281.436 229.827
L281.51 224.298
L281.882 159.475
L281.957 157.701
L282.329 202.951
L282.478 252.407
L282.626 230.104
L282.85 179.024
L282.998 186.432
L283.222 239.274
L283.37 247.96
L283.519 220.473
L283.594 220.992
L283.742 252.303
L283.891 226.936
L283.966 231.037
L284.04 228.284
L284.263 196.304
L284.338 206.327
L284.71 164.67
L284.933 191.189
L285.23 270.09
L285.379 286.183
L285.826 213.331
L285.974 200.417
L286.123 233.088
L286.198 228.468
L286.272 217.121
L286.421 155.224
L286.644 196.178
L286.718 193.77
L286.867 208.734
L287.016 190.164
L287.09 196.258
L287.314 240.668
L287.611 185.522
L287.686 192.007
L287.909 236.06
L287.983 236.163
L288.058 238.03
L288.206 216.338
L288.281 205.543
L288.653 230.887
L288.727 232.224
L288.802 229.436
L288.95 239.712
L289.322 196.811
L289.397 189.081
L289.546 209.84
L289.62 202.732
L289.843 268.581
L289.992 222.996
L290.066 236.417
L290.141 233.341
L290.438 171.732
L290.513 164.924
L290.662 178.011
L291.034 258.904
L291.108 272.44
L291.331 223.791
L291.48 198.101
L291.554 203.907
L291.629 203.85
L291.703 206.338
L291.778 215.554
L291.852 210.405
L291.926 212.812
L292.298 264.514
L292.447 240.748
L292.67 190.913
L292.745 196.108
L292.894 187.63
L293.117 158.196
L293.563 243.456
L293.638 250.287
L293.712 249.584
L293.786 249.458
L293.861 245.575
L294.01 221.084
L294.084 223.699
L294.158 236.486
L294.382 182.204
L294.456 187.342
L294.53 184.024
L294.605 172.838
L294.679 174.059
L294.754 176.409
L294.977 266.899
L295.051 266.058
L295.2 240.702
L295.423 185.625
L295.498 186.823
L295.646 212.72
L295.721 209.264
L295.87 240.898
L296.018 193.205
L296.167 239.896
L296.242 227.178
L296.39 200.636
L296.837 262.786
L297.134 210.612
L297.283 228.848
L297.432 171.444
L297.655 215.358
L297.73 212.778
L297.804 194.68
L297.878 198.47
L297.953 196.512
L298.102 174.727
L298.25 204.771
L298.399 219.644
L298.548 206.488
L298.771 235.415
L298.92 186.305
L299.143 240.541
L299.218 234.896
L299.292 237.258
L299.366 241.624
L299.441 234.747
L299.515 237.857
L299.59 238.502
L299.738 199.357
L299.887 221.694
L300.036 178.057
L300.185 223.964
L300.334 192.722
L300.482 234.747
L300.557 231.602
L300.706 205.762
L300.854 256.635
L300.929 236.567
L301.078 203.078
L301.226 224.16
L301.598 187.134
L301.673 194.473
L301.747 187.376
L301.822 167.735
L301.896 169.209
L302.119 242.718
L302.268 227.351
L302.417 251.808
L302.491 251.255
L302.64 194.012
L302.714 205.555
L302.863 237.995
L302.938 229.701
L303.086 273.811
L303.161 264.652
L303.31 227.719
L303.458 242.442
L303.682 159.509
L303.756 182.423
L303.83 196.731
L303.979 177.734
L304.202 248.72
L304.277 240.483
L304.351 246.739
L304.426 235.91
L304.574 142.045
L304.649 154.533
L304.798 211.165
L304.872 208.366
L305.021 219.367
L305.095 218.63
L305.17 193.655
L305.244 194.599
L305.318 211.269
L305.467 193.298
L305.542 198.194
L305.839 280.861
L305.914 279.905
L306.36 162.804
L306.434 172.124
L306.732 239.239
L306.806 238.525
L306.955 213.584
L307.03 215.128
L307.253 235.184
L307.402 210.612
L307.625 167.861
L307.699 185.118
L307.774 184.174
L307.848 192.434
L308.071 253.144
L308.146 252.28
L308.294 277.394
L308.518 214.183
L308.592 248.167
L308.666 239.435
L308.815 163.703
L308.89 171.122
L309.113 236.221
L309.336 201.661
L309.41 207.594
L309.634 220.565
L309.782 244.181
L309.931 198.562
L310.006 199.587
L310.154 200.855
L310.229 199.415
L310.378 219.275
L310.526 157.228
L310.601 159.014
L310.973 267.106
L311.047 258.051
L311.196 228.56
L311.27 232.212
L311.345 224.597
L311.568 179.819
L311.642 178.114
L311.717 162.839
L311.791 170.073
L312.238 336.987
L312.312 321.964
L312.461 288.983
L312.535 298.579
L312.684 229.228
L312.907 129.811
L313.13 87.4057
L313.205 93.2809
L313.354 133.221
L313.651 185.441
L313.8 217.467
L313.949 315.974
L314.098 279.951
L314.246 325.282
L314.321 310.387
L314.47 252.856
L314.544 258.962
L314.618 248.329
L314.767 182.549
L315.214 269.871
L315.288 265.067
L315.511 202.03
L315.66 169.267
L315.734 145.858
L315.809 148.796
L315.883 159.267
L316.032 141.147
L316.478 253.121
L316.553 268.535
L316.702 220.98
L316.776 223.468
L316.925 232.039
L317.074 218.192
L317.148 223.779
L317.222 222.777
L317.446 189.853
L317.52 181.144
L317.892 271.127
L318.264 224.586
L318.338 208.285
L318.413 212.582
L318.487 209.091
L318.71 160.155
L318.859 183.563
L318.934 167.723
L319.008 172.953
L319.157 208.366
L319.231 202.928
L319.38 220.22
L319.454 217.651
L319.529 211.718
L319.678 250.126
L319.752 239.562
L319.901 222.351
L320.05 244.435
L320.124 237.085
L320.273 215.6
L320.496 241.705
L320.57 249.066
L320.719 297.623
L321.538 110.135
L321.761 171.594
L321.835 170.154
L322.058 232.293
L322.133 209.518
L322.207 191.408
L322.356 224.62
L322.505 184.738
L322.728 282.174
L322.877 251.762
L322.951 260.01
L323.026 269.675
L323.1 262.406
L323.249 198.447
L323.323 199.899
L323.472 234.424
L323.695 195.602
L323.77 196.742
L323.844 201.684
L324.067 247.603
L324.439 208.02
L324.514 212.087
L324.588 210.197
L324.662 204.587
L324.811 214.322
L324.886 213.135
L325.034 207.767
L325.183 161.41
L325.258 166.053
L325.481 199.127
L326.002 263.109
L326.076 261.749
L326.225 246.635
L326.374 253.582
L326.82 168.737
L327.043 206.718
L327.192 164.993
L327.266 171.294
L327.415 196.051
L327.564 160.108
L327.638 163.553
L327.787 184.957
L327.862 172.343
L328.01 209.886
L328.234 283.061
L328.308 271.069
L328.382 273.177
L328.457 288.464
L328.606 250.967
L328.68 261.058
L328.829 304.201
L328.903 297.335
L329.275 192.722
L329.35 187.365
L329.424 191.708
L329.498 187.457
L329.87 119.328
L329.945 116.828
L330.168 158.357
L330.242 154.487
L330.838 328.093
L330.912 322.057
L331.135 232.431
L331.284 249.803
L331.433 233.871
L331.507 234.919
L331.582 241.866
L331.805 190.118
L331.879 193.712
L331.954 191.074
L332.251 126.873
L332.326 129.511
L332.474 124.143
L332.549 128.659
L332.698 169.486
L333.144 350.154
L333.367 277.52
L333.516 299.95
L333.665 266.841
L334.037 168.818
L334.111 167.965
L334.26 162.194
L334.483 187.227
L334.558 180.706
L334.632 179.669
L334.855 165.915
L334.93 173.863
L335.153 220.439
L335.302 197.157
L335.376 200.175
L335.525 213.976
L335.599 213.227
L335.674 217.835
L335.748 229.712
L335.822 229.632
L335.897 223.399
L336.269 267.325
L336.492 324.234
L336.566 320.778
L336.79 239.804
L337.162 132.437
L337.236 125.641
L337.459 147.022
L337.757 182.676
L337.906 206.811
L337.98 198.804
L338.054 199.449
L338.129 210.002
L338.203 206.914
L338.278 206.845
L338.724 279.34
L338.798 279.237
L338.873 281.667
L338.947 288.487
L339.022 288.084
L339.17 252.384
L339.394 181.593
L339.468 186.19
L339.617 169.094
L339.691 172.227
L339.766 181.409
L339.84 178.656
L339.914 162.47
L339.989 174.52
L340.138 229.781
L340.286 216.545
L340.361 231.118
L340.435 229.827
L340.584 200.716
L340.733 221.959
L340.882 211.707
L341.03 226.464
L341.179 212.11
L341.254 200.705
L341.328 205.751
L341.477 230.427
L341.551 243.456
L341.626 239.343
L341.7 221.66
L341.774 222.155
L341.849 232.65
L341.923 229.897
L341.998 233.41
L342.146 248.455
L342.295 206.235
L342.37 207.732
L342.444 229.586
L342.518 224.862
L342.742 156.779
L342.816 161.525
L342.965 147.678
L343.709 305.883
L343.783 299.42
L344.23 189.07
L344.378 125.387
L344.453 130.156
L344.676 185.856
L344.825 151.779
L344.974 219.586
L345.048 210.497
L345.122 200.152
L345.197 213.193
L345.271 210.059
L345.346 201.339
L345.42 201.822
L345.569 226.683
L345.643 219.69
L345.718 226.878
L345.866 270.447
L346.09 226.187
L346.164 231.555
L346.313 225.358
L346.462 249.584
L346.834 175.902
L346.908 183.92
L347.131 238.928
L347.578 226.337
L347.652 224.24
L347.726 226.913
L347.801 226.199
L347.95 211.257
L348.024 215.093
L348.098 208.654
L348.247 179.842
L348.545 214.183
L348.619 215.992
L348.694 210.935
L348.842 220.819
L348.917 220.174
L348.991 217.109
L349.066 219.425
L349.14 227.915
L349.289 215.427
L349.438 220.289
L349.512 216.165
L349.586 217.443
L349.661 223.699
L349.81 196.362
L349.884 200.763
L349.958 198.067
L350.033 200.244
L350.182 239.101
L350.256 238.802
L350.33 242.108
L350.405 224.367
L350.479 230.979
L350.628 221.51
L350.702 222.558
L350.777 226.832
L351 157.24
L351.223 210.946
L351.372 262.452
L351.446 257.752
L351.521 240.748
L351.595 242.35
L351.67 252.522
L351.893 215.969
L351.967 215.462
L352.042 211.28
L352.116 220.6
L352.19 218.342
L352.265 213.296
L352.339 214.172
L352.414 217.144
L352.637 176.859
L352.711 176.363
L352.934 206.834
L353.083 226.118
L353.232 207.191
L353.381 241.083
L353.455 235.726
L353.53 232.016
L353.678 245.368
L353.976 189.738
L354.05 193.827
L354.199 224.16
L354.274 223.526
L354.422 204.564
L354.571 224.782
L354.646 220.381
L354.72 221.763
L354.794 230.323
L355.018 181.536
L355.092 195.244
L355.315 230.807
L355.464 250.771
L355.538 245.909
L355.613 246.531
L355.762 254.089
L355.91 227.408
L355.985 237.223
L356.059 237.915
L356.58 139.695
L356.654 147.782
L357.101 197.364
L357.175 197.56
L357.324 242.58
L357.547 279.271
L357.622 291.84
L358.142 199.818
L358.291 217.04
L358.366 212.329
L358.44 213.054
L358.514 224.056
L358.663 207.225
L358.738 210.082
L358.812 218.676
L358.886 215.381
L359.11 183.54
L359.184 184.243
L359.258 187.123
L359.333 181.202
L359.407 181.778
L359.556 193.436
L359.63 192.675
L359.705 187.353
L359.779 187.779
L359.928 246.992
L360.077 286.805
L360.3 252.879
L360.374 262.878
L360.449 262.072
L360.523 253.213
L360.821 161.387
L360.895 159.003
L361.118 183.298
L361.342 217.063
L361.49 248.893
L361.565 243.628
L361.714 217.536
L361.937 234.401
L362.011 237.074
L362.086 235.265
L362.309 184.992
L362.383 185.499
L362.532 197.664
L362.904 243.744
L362.978 236.878
L363.127 211.81
L363.276 240.23
L363.35 238.145
L363.574 201.373
L363.648 201.5
L363.722 205.382
L363.797 198.228
L363.946 213.653
L364.169 237.097
L364.243 238.686
L364.392 248.582
L364.913 147.724
L364.987 157.24
L365.582 280.239
L365.657 275.205
L366.178 187.849
L366.401 207.075
L366.55 198.965
L366.773 248.271
L366.847 247.649
L367.145 183.298
L367.294 176.398
L367.368 183.091
L367.591 225.15
L367.666 225.669
L367.814 234.608
L367.963 213.181
L368.186 241.048
L368.261 237.2
L368.41 243.744
L368.707 177.55
L368.856 183.886
L369.154 202.226
L369.377 256.37
L369.6 234.297
L369.674 244.181
L369.749 241.947
L369.898 208.585
L369.972 213.458
L370.046 222.927
L370.121 221.257
L370.27 187.077
L370.418 215.715
L370.493 227.477
L370.642 200.855
L370.716 204.288
L370.79 213.838
L370.865 211.28
L371.014 196.443
L371.088 203.251
L371.162 200.521
L371.311 164.048
L371.609 210.589
L371.683 208.976
L371.758 213.319
L371.906 243.882
L371.981 239.09
L372.055 212.179
L372.13 216.268
L372.278 268.247
L372.427 244.17
L372.502 255.275
L372.65 279.133
L372.874 230.092
L373.097 214.921
L373.246 200.486
L373.469 209.356
L373.618 174.681
L373.692 180.579
L373.841 216.695
L374.064 174.451
L374.362 190.003
L374.585 175.419
L374.734 196.201
L375.031 257.821
L375.18 250.713
L375.329 265.678
L375.478 229.666
L375.552 241.071
L375.626 265.989
L375.701 265.171
L375.85 241.947
L376.073 199.311
L376.147 187.18
L376.222 188.459
L376.594 214.967
L376.742 211.349
L376.891 225.127
L376.966 223.664
L377.189 218.48
L377.635 172.873
L377.71 175.902
L378.082 229.298
L378.156 219.655
L378.23 223.883
L378.379 243.525
L378.454 238.744
L378.602 258.063
L378.826 209.955
L378.9 205.313
L378.974 212.306
L379.123 243.986
L379.272 207.433
L379.346 208.435
L379.644 241.209
L379.867 212.582
L379.942 223.664
L380.165 197.249
L380.239 199.426
L380.314 198.044
L380.462 192.203
L380.686 212.985
L380.909 223.952
L380.983 218.734
L381.132 190.06
L381.355 238.836
L381.504 219.932
L381.578 224.067
L381.653 225.312
L381.876 201.166
L382.025 215.911
L382.174 207.755
L382.471 233.019
L382.546 231.083
L382.694 219.287
L382.843 226.648
L383.066 151.895
L383.364 239.355
L383.513 267.394
L383.662 235.403
L383.736 241.371
L383.959 198.366
L384.034 212.202
L384.108 211.211
L384.182 203.285
L384.331 228.906
L384.406 226.245
L384.554 216.914
L384.629 218.803
L384.852 176.064
L385.075 223.445
L385.15 216.038
L385.224 210.635
L385.298 213.815
L385.522 238.318
L385.745 201.615
L385.819 211.81
L385.894 219.39
L385.968 218.284
L386.117 160.396
L386.191 161.491
L386.489 235.795
L386.563 241.394
L386.786 214.99
L386.861 218.964
L387.01 252.084
L387.233 214.587
L387.307 222.282
L387.456 266.323
L387.679 211.476
L387.754 220.162
L387.828 221.89
L387.977 200.279
L388.2 251.312
L388.274 248.501
L388.423 222.224
L388.572 185.141
L388.646 184.83
L388.87 163.323
L388.944 166.963
L389.018 176.882
L389.093 169.9
L389.614 234.366
L389.837 203.355
L389.911 211.948
L390.134 240.391
L390.209 237.523
L390.358 256.024
L390.73 200.325
L390.804 202.537
L390.953 221.36
L391.176 188.678
L391.25 192.445
L391.474 226.037
L391.548 211.223
L391.622 211.902
L391.771 242.131
L391.846 239.251
L392.069 197.802
L392.143 199.933
L392.59 234.862
L392.664 233.963
L392.738 227.616
L392.813 233.214
L392.887 227.477
L393.11 200.129
L393.259 234.136
L393.557 165.327
L393.854 231.014
L394.003 235.956
L394.078 234.067
L394.226 216.891
L394.375 189.415
L394.524 212.398
L394.673 189.669
L394.97 231.014
L395.045 223.687
L395.119 221.095
L395.268 252.821
L395.417 225.842
L395.566 233.226
L395.64 230.208
L395.863 202.318
L396.012 214.633
L396.161 198.47
L396.235 202.894
L396.458 242.085
L396.682 194.53
L396.756 195.406
L396.979 223.146
L397.054 227.835
L397.128 222.086
L397.202 224.943
L397.351 204.483
L397.5 172.873
L397.723 235.392
L397.798 226.337
L397.872 225.392
L398.021 238.479
L398.17 257.406
L398.542 178.679
L398.765 218.826
L398.914 204.449
L399.062 233.56
L399.137 230.38
L399.36 192.814
L399.658 226.026
L399.806 208.285
L399.881 212.605
L400.03 229.321
L400.178 191.823
L400.253 191.938
L400.402 233.307
L400.476 233.145
L400.55 230.104
L400.699 251.531
L400.774 242.937
L400.997 195.44
L401.071 195.555
L401.22 215.047
L401.518 185.763
L401.592 187.618
L401.89 244.458
L401.964 243.559
L402.187 215.508
L402.336 210.197
L402.485 173.771
L402.559 172.896
L402.634 178.068
L403.154 276.99
L403.526 190.498
L403.75 223.123
L403.898 210.843
L403.973 202.779
L404.122 224.609
L404.196 220.738
L404.345 213.584
L404.494 189.162
L404.717 207.421
L404.866 178.598
L404.94 166.133
L405.238 234.274
L405.461 203.343
L405.535 212.087
L405.684 243.663
L405.907 207.536
L405.982 206.108
L406.056 201.765
L406.354 227.696
L406.428 232.131
L406.502 251.209
L406.577 248.743
L406.726 232.627
L406.8 240.956
L407.023 192.364
L407.172 208.308
L407.246 203.159
L407.321 205.843
L407.395 203.931
L407.544 191.915
L407.693 217.248
L407.99 269.191
L408.065 256.496
L408.437 196.016
L408.511 194.611
L408.66 175.707
L408.734 175.119
L408.809 176.893
L408.883 172.458
L409.106 238.755
L409.181 229.712
L409.255 220.416
L409.404 258.374
L409.553 219.206
L409.627 234.24
L409.776 208.85
L409.85 213.538
L409.925 219.713
L409.999 217.985
L410.148 230.3
L410.371 199.657
L410.446 203.308
L410.669 216.199
L410.818 233.813
L410.892 248.352
L410.966 241.785
L411.19 194.599
L411.264 184.635
L411.487 217.006
L411.562 215.692
L411.859 204.368
L411.934 194.726
L412.008 201.039
L412.231 256.185
L412.454 223.1
L412.529 222.132
L412.678 198.505
L412.901 242.891
L412.975 240.011
L413.198 200.786
L413.347 185.118
L413.422 187.607
L413.868 246.75
L414.017 259.653
L414.091 258.996
L414.389 172.504
L414.538 191.454
L414.612 185.452
L414.835 235.576
L414.91 234.735
L415.058 203.343
L415.207 210.508
L415.505 272.647
L415.579 266.795
L415.877 179.819
L416.1 229.298
L416.174 214.644
L416.249 192.94
L416.398 222.293
L416.621 183.045
L416.695 195.06
L416.844 168.057
L417.142 214.598
L417.29 231.463
L417.365 229.159
L417.588 243.029
L417.737 234.735
L417.886 234.263
L417.96 234.562
L418.034 242.592
L418.183 222.455
L418.258 213.089
L418.406 232.731
L418.481 231.383
L418.555 227.685
L418.63 229.401
L418.704 232.189
L419.076 207.963
L419.448 190.567
L419.671 203.619
L419.746 201.454
L419.894 171.156
L420.043 210.889
L420.118 192.445
L420.192 194.231
L420.341 209.644
L420.415 205.923
L420.564 203.401
L420.713 225.991
L420.787 217.973
L420.862 221.28
L421.159 273.995
L421.234 276.841
L421.382 254.284
L421.531 228.18
L421.606 229.551
L421.68 229.309
L421.754 224.24
L422.126 175.119
L422.201 170.085
L422.424 202.491
L422.573 208.227
L422.722 198.597
L422.796 210.497
L422.87 208.032
L423.019 213.676
L423.168 231.083
L423.242 229.92
L423.466 244.181
L423.614 232.028
L423.838 200.221
L423.986 210.923
L424.061 208.723
L424.21 193.344
L424.284 201.408
L424.358 199.749
L424.433 204.437
L424.582 221.395
L424.656 222.524
L424.73 220.796
L424.805 225.461
L424.954 216.499
L425.028 220.128
L425.177 240.46
L425.251 235.092
L425.326 235.945
L425.4 237.972
L425.772 199.196
L425.921 213.319
L426.07 237.189
L426.293 198.562
L426.442 216.902
L426.665 182.607
L426.814 233.56
L426.962 214.759
L427.037 228.341
L427.111 226.959
L427.26 200.993
L427.334 212.501
L427.409 206.787
L427.558 177.458
L427.855 231.302
L427.93 239.274
L428.004 236.647
L428.302 223.883
L428.376 229.056
L428.45 226.291
L428.525 226.89
L428.674 243.79
L428.822 207.317
L428.897 210.059
L428.971 209.138
L429.046 202.087
L429.12 204.011
L429.492 231.463
L429.566 227.973
L429.79 181.812
L429.864 188.24
L430.31 241.785
L430.534 215.52
L430.682 200.417
L430.831 219.125
L430.98 192.94
L431.054 200.371
L431.129 221.948
L431.352 173.495
L431.426 175.315
L431.724 201.004
L431.947 248.605
L432.096 245.806
L432.17 241.958
L432.319 222.881
L432.394 228.733
L432.542 248.571
L432.766 226.683
L432.914 254.503
L432.989 254.146
L433.212 227.374
L433.286 240.979
L433.361 239.781
L433.51 201.292
L433.658 211.442
L433.733 208.343
L433.807 210.301
L434.105 165.776
L434.254 190.153
L434.328 191.489
L434.477 204.322
L434.551 200.555
L434.626 201.419
L434.774 208.861
L434.849 206.983
L434.923 197.675
L435.221 220.208
L435.37 205.993
L435.518 221.833
L435.742 249.273
L435.816 244.446
L435.965 265.851
L436.411 186.95
L436.486 187.342
L436.56 186.351
L436.783 229.044
L436.858 225.047
L436.932 224.77
L437.081 228.756
L437.155 229.24
L437.23 218.319
L437.304 219.16
L437.378 219.413
L437.602 181.685
L437.825 225.415
L437.899 220.692
L437.974 220.243
L438.122 228.929
L438.197 212.997
L438.271 216.222
L438.346 225.392
L438.42 224.655
L438.569 215.197
L438.643 216.994
L438.718 207.444
L438.792 208.884
L438.866 223.468
L438.941 220.946
L439.164 204.495
L439.238 203.009
L439.387 190.441
L439.759 219.724
L439.834 218.066
L439.908 220.842
L440.057 234.147
L440.131 233.249
L440.429 220.128
L440.503 217.639
L440.578 218.227
L440.726 230.53
L440.875 217.167
L440.95 218.515
L441.024 226.049
L441.098 225.07
L441.247 206.58
L441.396 217.524
L441.545 205.083
L441.619 205.497
L441.694 208.181
L441.768 207.767
L441.842 205.797
L441.991 193.01
L442.066 200.498
L442.14 196.811
L442.214 187.491
L442.363 211.407
L442.512 229.712
L442.661 218.665
L442.735 219.552
L442.884 224.943
L443.033 208.654
L443.107 215.278
L443.256 200.624
L443.33 206.304
L443.405 212.594
L443.554 252.718
L443.777 222.432
L443.926 235.841
L444.074 228.226
L444.223 199.795
L444.521 243.79
L444.595 240.368
L444.67 245.472
L444.744 242.834
L445.042 197.548
L445.265 176.236
L445.339 176.006
L445.414 177.826
L445.711 201.304
L445.786 202.053
L446.083 234.332
L446.232 230.081
L446.381 237.661
L446.53 212.087
L446.604 214.782
L446.678 215.116
L446.827 201.776
L446.902 201.385
L447.05 211.027
L447.199 221.913
L447.274 217.144
L447.422 248.985
L447.571 270.067
L447.646 267.579
L447.869 211.591
L447.943 212.386
L448.241 186.95
L448.315 191.431
L448.39 185.913
L448.464 171.214
L448.836 230.91
L448.91 229.228
L448.985 219.909
L449.134 235.714
L449.208 234.078
L449.431 207.686
L449.506 212.283
L449.58 216.833
L449.729 211.361
L449.878 194.38
L449.878 194.38" style="fill:none;stroke:#808080;stroke-linecap:square;"/>
   </g>
  </g>
 </g>
 <defs>
  <clipPath id="p7ff5b81e1d">
   <rect height="345.6" width="446.4" x="72.0" y="43.2"/>
  </clipPath>
 </defs>
</svg>
