<?xml version="1.0" encoding="utf-8" standalone="no"?>
<!DOCTYPE svg PUBLIC "-//W3C//DTD SVG 1.1//EN"
  "http://www.w3.org/Graphics/SVG/1.1/DTD/svg11.dtd">
<!-- Created with matplotlib (http://matplotlib.org/) -->
<svg height="432pt" version="1.1" viewBox="0 0 576 432" width="576pt" xmlns="http://www.w3.org/2000/svg" xmlns:xlink="http://www.w3.org/1999/xlink">
 <defs>
  <style type="text/css">
*{stroke-linecap:butt;stroke-linejoin:round;}
  </style>
 </defs>
 <g id="figure_1">
  <g id="patch_1">
   <path d="
M0 432
L576 432
L576 0
L0 0
z
" style="fill:#ffffff;"/>
  </g>
  <g id="axes_1">
   <g id="line2d_1">
    <path clip-path="url(#p7ff5b81e1d)" d="
M72 157.956
L72.2232 176.779
L72.6696 253.741
L72.8928 195.396
L73.0416 221.592
L73.1904 196.886
L73.2648 203.836
L73.3392 207.707
L73.488 234.08
L73.5624 231.914
L73.7112 236.691
L74.232 340.686
L74.3064 336.339
L74.5296 312.923
L74.604 315.603
L74.7528 302.393
L75.0504 232.682
L75.2736 206.017
L75.348 211.647
L75.4224 203.951
L75.4968 204.066
L75.5712 207.346
L75.8688 159.039
L76.0176 140.077
L76.1664 145.453
L76.2408 147.304
L76.3152 144.631
L76.836 253.518
L76.9848 230.747
L77.208 272.656
L77.2824 274.96
L77.4312 264.884
L77.5056 265.207
L77.7288 287.74
L77.8032 290.428
L77.952 312.623
L78.0264 347.752
L78.1008 344.81
L78.3984 276.742
L78.4728 271.167
L78.5472 257.235
L78.7704 175.105
L78.9936 165.175
L79.1424 198.783
L79.2168 195.903
L79.2912 185.343
L79.3656 188.514
L79.5888 221.615
L79.6632 218.574
L79.8864 189.72
L79.9608 184.221
L80.3328 248.887
L80.4072 245.584
L80.7792 174.145
L81.0768 225.217
L81.4488 324.235
L81.5976 291.434
L81.8208 313.576
L81.8952 306.51
L81.9696 304.375
L82.044 322.5
L82.1184 315.327
L82.1928 316.256
L82.2672 323.298
L82.9368 93.1749
L83.0112 97.1839
L83.16 131.652
L83.2344 112.29
L83.3832 159.269
L83.7552 255.161
L83.8296 261.505
L83.904 260.084
L83.9784 261.828
L84.0528 267.227
L84.1272 248.595
L84.2016 253.902
L84.4248 284.983
L84.4992 291.772
L84.5736 288.086
L84.648 288.554
L84.7224 289.061
L84.7968 288.001
L84.8712 282.187
L84.9456 284.829
L85.02 285.613
L85.0944 291.058
L85.2432 271.013
L85.3176 278.248
L85.5408 230.693
L85.6152 246.207
L86.136 132.473
L86.5824 230.816
L86.7312 219.903
L86.88 229.364
L86.9544 230.839
L87.0288 230.224
L87.1032 239.786
L87.1776 234.126
L87.252 215.341
L87.3264 220.932
L87.4008 231.814
L87.4752 221.331
L87.9216 285.328
L88.0704 286.066
L88.2936 314.244
L88.368 310.473
L88.4424 310.242
L88.5168 312.024
L88.6656 284.2
L88.9632 227.897
L89.0376 229.794
L89.112 240.416
L89.3352 193.192
L89.4096 189.805
L89.484 193.199
L89.5584 187.332
L89.6328 168.308
L89.7072 169.629
L89.856 166.381
L89.9304 175.466
L90.0048 164.284
L90.228 193.967
L90.3768 185.68
L90.6 216.808
L90.8232 228.02
L91.0464 210.955
L91.1208 217.783
L91.344 285.052
L91.716 322.899
L91.8648 320.027
L92.0136 346.354
L92.46 273.01
L92.5344 279.384
L92.6088 271.574
L92.832 193.783
L92.9064 203.805
L93.204 130.891
L93.576 186.441
L93.7248 178.669
L93.8736 135.553
L93.948 144.884
L94.0224 174.514
L94.0968 172.11
L94.1712 177.862
L94.4688 280.137
L94.5432 273.256
L94.692 248.81
L94.8408 258.541
L94.9152 269.73
L94.9896 254.539
L95.064 257.857
L95.2128 307.969
L95.2872 308.2
L95.3616 305.266
L95.5104 343.773
L96.0312 230.916
L96.3288 282.287
L96.4032 273.386
L96.552 244.809
L96.6264 241.453
L96.7008 251.467
L96.7752 240.239
L96.9984 165.037
L97.0728 170.889
L97.3704 123.511
L97.7424 230.148
L97.8168 213.098
L97.9656 192.016
L98.04 201.885
L98.1888 168.892
L98.3376 198.506
L98.7096 315.803
L98.784 333.221
L98.8584 324.412
L99.0072 378.687
L99.0816 377.581
L99.156 363.327
L99.3792 288.569
L99.6768 265.215
L99.9 212.906
L99.9744 210.625
L100.421 135.714
L100.644 152.464
L100.718 145.936
L100.793 156.013
L101.016 227.49
L101.09 232.544
L101.165 227.145
L101.314 195.219
L101.462 232.452
L101.686 185.25
L101.76 198.045
L102.206 338.29
L102.355 321.133
L102.43 295.65
L102.504 305.112
L102.578 319.812
L102.653 316.402
L102.727 308.968
L102.876 274.323
L102.95 275.974
L103.099 303.33
L103.471 196.356
L103.694 140.438
L103.769 143.563
L103.843 149.8
L103.992 131.068
L104.215 175.305
L104.29 163.547
L104.364 171.772
L104.662 236.722
L104.736 242.896
L104.885 239.371
L105.108 283.616
L105.182 271.458
L105.257 248.203
L105.331 252.397
L105.406 261.782
L105.48 258.103
L105.554 255.615
L105.852 282.702
L106.224 336.316
L107.042 188.599
L107.191 173.646
L107.266 158.777
L107.34 163.401
L107.414 169.322
L107.563 155.782
L107.712 139.301
L107.861 152.764
L108.158 261.989
L108.307 247.067
L108.53 253.449
L108.679 245.922
L108.754 232.06
L108.828 234.856
L108.977 292.663
L109.051 290.92
L109.2 246.084
L109.274 249.194
L109.349 261.259
L109.423 256.482
L109.498 256.659
L109.572 269.723
L109.646 263.663
L109.721 261.421
L110.093 323.844
L110.167 327.246
L110.39 291.496
L110.837 141.267
L110.911 138.08
L111.06 168.984
L111.283 131.644
L111.506 179.721
L111.73 165.858
L111.804 167.609
L112.25 283.816
L112.325 281.872
L112.399 274.561
L112.548 288.539
L112.622 277.84
L112.697 280.613
L112.994 329.235
L113.069 318.713
L113.366 273.755
L113.515 292.125
L113.664 246.114
L113.813 196.724
L113.887 211.877
L113.962 206.647
L114.11 185.289
L114.334 224.403
L114.929 163.562
L115.003 147.227
L115.078 149.761
L115.301 209.235
L115.375 202.039
L115.45 203.037
L115.524 200.196
L115.673 226.891
L116.119 343.435
L116.194 334.335
L116.342 320.595
L116.64 224.418
L116.714 223.405
L116.863 213.067
L117.012 268.678
L117.086 289.414
L117.607 210.733
L117.682 214.411
L117.83 207.599
L117.905 222.867
L117.979 221.692
L118.202 164.691
L118.649 254.416
L118.872 206.324
L119.095 171.396
L119.17 180.558
L119.467 233.519
L119.542 223.958
L119.616 227.176
L119.765 265.145
L119.988 323.068
L120.137 296.741
L120.211 294.783
L120.286 301.195
L120.36 300.289
L120.434 295.704
L120.732 241.276
L120.806 255.937
L120.955 230.432
L121.178 159.607
L121.253 174.314
L121.402 205.664
L121.476 200.726
L121.699 168.7
L121.922 205.472
L121.997 196.886
L122.146 172.479
L122.443 237.098
L122.592 217.33
L122.666 227.775
L122.89 290.013
L122.964 286.219
L123.187 331.301
L123.262 323.836
L123.41 299.99
L123.485 302.109
L123.559 298.169
L124.006 229.556
L124.08 230.601
L124.303 212.376
L124.452 227.675
L124.601 219.964
L124.75 241.929
L124.824 241.445
L125.345 132.604
L125.494 147.58
L126.014 236.361
L126.089 231.707
L126.163 215.402
L126.61 313.552
L126.907 359.333
L126.982 358.258
L127.056 354.018
L127.13 340.64
L127.428 238.765
L127.502 234.856
L127.726 197.3
L128.023 228.466
L128.246 196.409
L128.47 163.693
L128.544 163.954
L128.693 173.884
L128.767 169.514
L129.065 211.255
L129.288 170.413
L129.362 173.577
L129.734 278.808
L129.883 310.396
L130.33 260.676
L130.776 302.793
L130.85 296.956
L130.925 302.194
L131.148 277.034
L131.594 163.362
L131.818 172.164
L131.892 181.464
L132.115 151.466
L132.413 218.973
L132.636 192.708
L133.008 293.922
L133.082 289.814
L133.231 259.278
L133.306 266.896
L133.38 272.418
L133.454 270.591
L133.603 237.382
L133.678 250.047
L133.975 318.491
L134.05 303.446
L134.124 305.535
L134.198 310.964
L134.273 310.035
L134.422 290.712
L134.57 209.957
L134.794 129.025
L134.868 127.888
L135.017 137.642
L135.091 143.632
L135.463 229.587
L135.538 225.908
L135.761 193.43
L135.835 195.903
L136.058 222.291
L136.133 220.371
L136.282 245.477
L136.356 244.901
L136.43 247.021
L136.654 271.213
L136.728 282.08
L136.877 273.348
L137.026 286.711
L137.249 320.887
L137.546 285.874
L137.918 197.792
L138.067 202.062
L138.142 218.966
L138.216 218.512
L138.29 217.215
L138.514 204.934
L138.588 220.686
L138.662 218.497
L139.034 154.73
L139.109 159.876
L139.258 169.276
L139.778 308.522
L140.076 258.794
L140.374 196.133
L140.597 242.674
L140.82 275.967
L140.969 294.352
L141.192 270.445
L141.266 288.439
L141.341 287.586
L141.415 288.631
L141.49 301.856
L141.564 296.718
L141.787 223.589
L142.01 146.797
L142.085 148.302
L142.234 108.75
L142.308 113.865
L142.903 258.264
L143.052 264.854
L143.126 266.704
L143.275 257.704
L143.35 258.487
L143.573 273.04
L143.722 254.432
L143.796 278.992
L143.87 273.609
L144.019 227.053
L144.168 246.207
L144.242 236.307
L144.317 237.129
L144.54 257.588
L144.689 251.982
L144.912 309.812
L144.986 305.343
L145.433 201.647
L145.507 205.602
L145.656 224.703
L145.73 219.818
L146.102 111.208
L146.177 111.983
L146.251 114.356
L146.326 108.712
L146.623 185.358
L146.846 278.593
L147.07 310.957
L147.218 315.219
L147.367 299.629
L147.442 302.831
L147.516 309.375
L147.665 329.98
L147.888 307.186
L147.962 309.19
L148.037 301.011
L148.483 197.93
L148.632 169.898
L148.706 173.193
L148.93 193.844
L149.227 213.497
L149.525 189.037
L149.674 174.199
L149.748 174.644
L150.12 205.234
L150.194 204.934
L150.492 266.536
L150.715 287.272
L150.79 289.867
L150.938 310.565
L151.013 309.751
L151.236 283.693
L151.31 273.394
L151.385 286.511
L151.459 282.571
L151.831 248.841
L152.054 203.851
L152.426 194.082
L152.575 209.381
L152.65 203.168
L152.798 186.848
L152.873 189.766
L152.947 181.088
L153.022 183.507
L153.394 236.146
L153.468 253.472
L153.617 235.301
L153.691 238.611
L153.766 229.802
L153.84 229.956
L153.989 238.258
L154.138 218.044
L154.286 239.202
L154.361 232.283
L154.51 244.947
L154.882 311.517
L154.956 310.012
L155.03 307.831
L155.328 258.863
L155.477 306.779
L155.551 305.573
L155.626 307.071
L155.774 230.616
L155.998 146.658
L156.146 124.202
L156.221 124.816
L156.37 106.761
L156.667 185.204
L157.114 291.511
L157.188 295.865
L157.262 291.119
L157.337 295.305
L157.411 292.939
L157.486 293.853
L157.56 298.945
L157.783 274.745
L157.932 248.342
L158.081 212.368
L158.23 254.777
L158.378 235.846
L158.453 243.204
L158.527 241.66
L158.676 228.735
L158.825 256.644
L158.899 256.221
L159.048 232.306
L159.197 188.422
L159.271 191.049
L159.346 203.321
L159.42 190.45
L159.494 193.906
L159.718 242.735
L159.792 251.982
L159.866 245.17
L159.941 216.746
L160.015 228.335
L160.09 233.051
L160.462 161.688
L160.536 162.425
L161.131 320.134
L161.206 317.569
L161.503 269.108
L161.578 277.917
L161.875 230.539
L162.024 249.547
L162.098 243.618
L162.322 296.065
L162.842 192.938
L163.066 208.114
L163.289 167.056
L163.363 172.663
L163.586 165.751
L163.661 169.583
L163.735 161.65
L163.81 162.986
L163.884 166.25
L164.182 227.798
L164.479 333.375
L164.554 340.271
L164.628 336.554
L164.926 276.688
L165.149 255.515
L165.298 258.088
L165.446 255.161
L165.67 224.296
L166.042 244.456
L166.116 256.144
L166.19 253.203
L166.414 264.086
L166.488 255.922
L166.86 170.989
L166.934 164.614
L167.158 114.917
L167.381 140.591
L167.455 145.56
L167.753 235.071
L168.05 321.816
L168.125 337.645
L168.646 255.039
L168.72 256.705
L168.943 267.91
L169.092 283.462
L169.315 270.598
L169.687 227.613
L169.762 217.768
L169.836 219.112
L169.91 219.549
L170.431 176.81
L170.878 212.998
L171.026 196.271
L171.175 181.794
L171.25 187.362
L171.547 232.989
L171.919 289.652
L171.994 285.689
L172.068 284.476
L172.142 289.721
L172.366 318.46
L172.812 217.837
L172.961 232.651
L173.11 205.979
L173.184 212.645
L173.407 252.581
L173.556 271.136
L173.63 251.936
L173.705 254.102
L173.779 269.3
L173.854 262.35
L174.449 115.762
L174.523 125.861
L174.672 105.217
L174.746 106.607
L175.044 220.717
L175.193 236.292
L175.639 345.01
L176.011 384.324
L176.086 383.947
L176.234 345.409
L176.904 145.46
L177.127 119.625
L177.202 106.254
L178.243 258.802
L178.466 311.149
L179.062 259.585
L179.136 260.084
L179.21 264.139
L179.285 259.324
L179.359 262.657
L179.582 298.984
L179.88 244.456
L179.954 242.866
L180.178 228.166
L180.326 245.692
L180.475 232.936
L180.624 208.889
L180.996 140.929
L181.219 154.216
L181.814 254.301
L181.889 245.062
L181.963 253.08
L182.038 276.773
L182.112 276.589
L182.186 278.086
L182.335 285.39
L182.41 283.708
L182.707 269.124
L182.856 284.176
L182.93 276.389
L183.005 255.3
L183.079 259.808
L183.154 263.594
L183.302 234.587
L183.377 239.809
L183.451 239.832
L183.526 229.917
L183.749 238.25
L183.823 232.267
L183.898 235.378
L184.046 218.044
L184.121 220.601
L184.27 234.256
L184.567 194.681
L184.642 195.634
L184.716 194.328
L184.939 168.769
L185.088 156.742
L185.162 158.509
L185.46 211.608
L185.683 240.769
L185.906 298.446
L185.981 289.913
L186.055 293.838
L186.278 356.921
L186.502 306.21
L186.65 269.684
L186.725 270.829
L186.948 226.722
L187.022 241.99
L187.097 234.786
L187.171 234.94
L187.246 233.673
L187.32 234.141
L187.469 220.555
L187.692 185.45
L187.766 182.954
L187.99 127.612
L188.213 170.182
L188.436 218.62
L188.51 214.48
L188.734 237.367
L188.808 236.084
L188.882 231.737
L189.106 269.623
L189.254 254.155
L189.403 260.56
L189.552 254.931
L189.701 237.075
L190.073 286.726
L190.296 356.246
L190.594 297.693
L190.966 161.366
L191.114 174.544
L191.412 204.973
L191.858 129.947
L191.933 143.133
L192.379 225.832
L192.677 314.881
L192.751 310.166
L193.123 242.382
L193.198 241.929
L193.495 269.385
L193.644 254.224
L193.718 256.413
L193.793 253.61
L193.867 244.617
L194.016 258.495
L194.09 253.272
L194.165 255.054
L194.239 270.245
L194.314 269.231
L194.611 289.529
L194.686 289.046
L194.76 289.238
L194.834 286.888
L195.206 166.527
L195.355 143.464
L195.43 148.087
L195.504 147.672
L195.578 145.376
L195.802 173.392
L195.876 164.553
L196.025 201.616
L196.174 159.046
L196.694 281.212
L196.918 353.665
L196.992 361.284
L197.066 348.957
L197.141 360.208
L197.215 356.814
L197.736 230.355
L198.108 127.067
L198.331 154.615
L198.703 251.314
L198.778 265.061
L199.224 224.787
L199.298 222.975
L199.522 243.15
L199.745 272.772
L199.968 245.884
L200.117 270.061
L200.191 260.008
L200.266 230.209
L200.34 240.109
L200.489 245.369
L200.563 245.093
L200.712 264.516
L200.786 264.078
L200.861 254.063
L201.01 263.671
L201.307 173.293
L201.605 227.851
L201.679 228.55
L201.754 217.875
L201.828 181.464
L202.051 245.999
L202.126 240.884
L202.349 170.382
L202.498 183.008
L202.87 249.64
L203.018 272.042
L203.167 320.472
L203.316 309.029
L203.539 279.115
L203.688 264.485
L203.837 237.751
L203.986 255.369
L204.283 183.062
L204.358 187.339
L204.432 180.013
L204.953 213.497
L205.102 198.506
L205.176 209.604
L205.25 205.864
L205.846 250.515
L206.069 195.741
L206.143 200.557
L206.366 212.376
L206.441 223.359
L206.887 350.363
L206.962 356.338
L207.185 298.884
L207.631 202.868
L207.706 210.295
L207.854 239.08
L207.929 221.346
L208.003 223.581
L208.078 223.62
L208.226 193.092
L208.375 161.32
L208.45 166.964
L208.598 157.249
L208.822 206.294
L208.896 194.866
L209.045 211.624
L209.119 229.817
L209.268 209.588
L209.491 230.04
L209.566 219.265
L209.64 222.153
L209.938 265.099
L210.012 263.433
L210.086 267.734
L210.235 287.494
L210.31 288.354
L210.384 287.51
L210.458 285.328
L210.682 202.446
L210.83 206.34
L211.128 314.367
L211.202 312.024
L211.426 331.869
L211.798 231.438
L212.021 169.514
L212.17 135.868
L212.393 175.912
L212.542 163.401
L212.616 168.639
L212.69 193.768
L212.839 170.797
L212.988 179.798
L213.062 196.893
L213.137 189.075
L213.36 236.407
L213.583 281.373
L213.658 280.782
L213.732 286.196
L213.881 324.927
L214.178 273.739
L214.253 278.148
L214.327 270.975
L214.476 238.765
L214.699 254.324
L214.848 251.329
L214.922 241.545
L214.997 244.24
L215.071 241.514
L215.146 249.033
L215.22 245.584
L215.443 217.099
L215.518 233.919
L215.592 233.888
L215.89 217.307
L215.964 208.936
L216.262 238.611
L216.41 232.413
L216.559 198.529
L216.634 201.248
L216.708 195.38
L216.782 163.078
L216.857 174.053
L216.931 173.6
L217.006 169.138
L217.601 284.814
L217.675 285.92
L217.824 295.528
L218.047 273.448
L218.196 289.522
L218.345 282.794
L218.494 289.96
L218.568 283.808
L218.791 194.459
L218.866 190.02
L219.014 142.911
L219.163 158.862
L219.61 294.583
L219.833 265.261
L220.13 176.895
L220.651 309.113
L220.726 301.779
L221.098 212.43
L221.172 209.158
L221.246 193.921
L221.321 205.387
L221.47 187.124
L221.618 224.802
L221.693 272.234
L221.767 267.78
L221.842 256.767
L222.065 287.202
L222.139 279.776
L222.586 175.635
L222.66 192.592
L222.809 164.776
L223.106 220.156
L223.181 228.811
L223.255 201.471
L223.33 212
L223.478 227.805
L223.553 222.675
L223.627 233.611
L223.776 283.301
L223.925 265.245
L224.148 361.883
L224.222 351.568
L224.297 353.734
L224.594 269.823
L224.669 276.658
L225.041 167.778
L225.19 175.52
L225.264 163.954
L225.562 207.2
L225.636 209.512
L225.859 174.176
L225.934 180.688
L226.157 233.258
L226.306 225.709
L226.38 227.421
L226.826 271.589
L226.901 265.706
L227.124 202.277
L227.273 183.131
L227.347 171.803
L227.719 303.115
L227.868 359.686
L227.942 360.27
L228.314 295.474
L228.463 256.897
L228.538 254.324
L228.686 237.382
L228.761 241.936
L228.91 207.238
L228.984 207.438
L229.058 197.976
L229.282 155.068
L229.43 129.678
L229.505 119.379
L229.728 183.845
L229.802 181.188
L229.877 179.053
L229.951 185.849
L230.323 259.531
L230.472 272.28
L230.546 248.464
L230.621 251.352
L230.695 251.506
L230.844 234.41
L230.918 206.962
L230.993 214.48
L231.29 283.961
L231.514 351.407
L231.588 345.071
L231.662 369.885
L231.737 358.596
L232.183 227.544
L232.258 226.354
L232.332 216.654
L232.555 174.783
L232.704 164.476
L232.853 178.239
L233.002 155.191
L233.15 185.488
L233.225 175.912
L233.299 147.772
L233.374 151.873
L233.448 164.461
L233.671 231.2
L233.969 288.823
L234.266 255.138
L234.341 247.266
L234.49 265.069
L234.638 298.715
L234.713 309.121
L234.862 292.793
L235.085 257.696
L235.159 253.994
L235.234 261.812
L235.308 260.223
L235.382 254.04
L235.606 194.367
L235.68 194.52
L235.754 193.668
L235.829 185.558
L236.275 243.296
L236.573 203.122
L236.647 203.245
L236.945 232.659
L237.094 247.074
L237.168 270.184
L237.242 266.374
L237.317 266.858
L237.614 247.812
L237.912 165.021
L237.986 171.327
L238.061 147.565
L238.582 345.256
L238.73 357.444
L238.805 356.169
L239.623 110.04
L239.921 159.63
L240.293 302.639
L240.442 294.813
L240.516 301.264
L240.888 225.325
L241.111 211.378
L241.186 230.693
L241.26 222.629
L241.334 223.289
L241.632 241.998
L241.706 235.132
L241.781 236.223
L242.004 264.831
L242.078 267.787
L242.674 222.744
L242.822 237.559
L242.971 275.882
L243.12 242.666
L243.269 273.11
L243.343 265.614
L243.418 236.875
L243.492 239.187
L243.566 252.143
L244.087 100.248
L244.385 219.112
L244.534 207.415
L244.831 261.736
L244.98 317.362
L245.054 314.32
L245.129 316.356
L245.278 307.447
L245.501 337.875
L246.319 134.701
L246.394 140.015
L246.542 163.293
L246.989 276.02
L247.063 275.498
L247.286 226.123
L247.51 248.749
L247.733 266.766
L247.807 253.042
L248.03 156.443
L248.179 201.432
L248.254 191.694
L248.328 196.079
L248.477 223.819
L248.626 261.513
L248.7 264.823
L248.774 281.788
L248.923 334.603
L249.221 241.967
L249.295 244.909
L249.444 235.255
L249.518 229.533
L249.593 255.868
L249.667 248.649
L249.816 241.652
L249.89 253.072
L249.965 248.203
L250.188 198.598
L250.411 234.502
L250.56 221.922
L250.709 264.969
L250.783 245.769
L250.932 189.167
L251.006 208.152
L251.23 179.483
L251.378 196.978
L251.453 196.394
L251.527 182.486
L251.602 183.254
L251.75 228.45
L251.899 263.74
L252.048 227.99
L252.122 233.588
L252.197 224.994
L252.494 349.526
L252.643 308.392
L252.792 269.815
L253.015 289.975
L253.238 252.197
L253.313 238.926
L253.462 261.298
L253.536 246.544
L253.685 162.464
L253.759 174.207
L253.834 168.485
L253.908 119.379
L253.982 130.277
L254.131 180.274
L254.28 142.204
L254.354 156.735
L254.429 204.934
L254.503 190.834
L254.578 180.358
L254.652 187.209
L254.95 240.516
L255.024 242.428
L255.098 248.987
L255.173 237.213
L255.47 338.912
L255.545 338.612
L255.768 284.307
L255.917 280.582
L255.991 281.496
L256.066 271.266
L256.14 243.949
L256.214 246.959
L256.438 271.95
L256.512 269.984
L256.661 224.319
L256.735 228.304
L256.81 221.3
L257.182 137.826
L257.33 163.662
L257.405 187.961
L257.479 187.731
L257.554 174.16
L257.926 245.992
L258.074 286.02
L258.149 283.931
L258.223 275.49
L258.372 309.92
L258.446 310.688
L258.521 299.03
L258.744 159.976
L258.893 182.923
L258.967 189.167
L259.19 245.392
L259.265 249.601
L259.488 297.24
L259.711 257.197
L259.786 260.683
L259.934 274.561
L260.232 218.597
L260.381 151.842
L260.455 188.491
L260.53 181.641
L260.678 146.927
L260.753 154.999
L260.827 163.539
L260.976 253.833
L261.125 286.634
L261.199 312.324
L261.497 244.855
L261.646 301.672
L262.092 158.678
L262.315 216.078
L262.464 173.869
L262.687 213.643
L262.836 206.009
L262.985 271.919
L263.059 300.274
L263.134 291.288
L263.282 271.497
L263.431 280.959
L263.506 288.93
L263.654 278.77
L263.952 289.268
L264.026 301.825
L264.25 200.48
L264.324 202.999
L264.398 204.343
L264.622 163.593
L264.696 161.419
L264.845 132.251
L264.919 138.533
L265.068 175.489
L265.217 161.942
L265.291 172.586
L265.589 301.91
L265.663 303.906
L265.738 276.32
L265.886 323.913
L265.961 317.001
L266.258 256.744
L266.407 240.439
L266.705 321.54
L266.779 310.672
L267.077 199.366
L267.374 114.802
L267.821 250.845
L267.895 246.268
L268.044 218.428
L268.118 218.681
L268.342 248.733
L268.416 234.74
L268.565 279.515
L268.788 227.191
L269.011 286.104
L269.086 285.198
L269.309 269.477
L269.904 120.715
L270.35 328.982
L270.425 388.248
L270.499 386.904
L270.946 256.114
L271.094 176.334
L271.169 173.131
L271.392 103.428
L271.466 108.627
L271.987 275.567
L272.062 272.165
L272.136 276.527
L272.21 272.557
L272.285 262.135
L272.508 196.118
L272.731 152.411
L273.252 296.357
L273.326 282.172
L273.55 316.724
L273.698 280.744
L273.773 283.862
L273.847 284.338
L273.996 250.807
L274.145 282.203
L274.442 199.328
L274.591 207.407
L274.666 208.513
L274.814 194.259
L274.963 222.383
L275.112 164.968
L275.186 167.456
L275.335 192.147
L275.484 164.392
L275.633 213.774
L275.707 212.714
L275.856 264.101
L276.079 320.288
L276.526 231.384
L276.6 179.613
L276.674 194.889
L276.749 212.676
L276.823 206.57
L276.898 197.162
L277.344 248.618
L277.418 245.6
L277.642 284.752
L277.716 263.195
L277.79 264.416
L277.865 280.874
L278.014 238.173
L278.237 144.247
L278.311 155.874
L278.46 220.187
L278.609 280.114
L278.758 277.288
L279.353 201.547
L279.427 200.848
L279.502 205.756
L279.576 221.6
L279.65 220.271
L279.725 214.703
L279.948 263.863
L280.097 311.824
L280.171 307.055
L280.32 258.172
L280.394 266.236
L280.469 298.185
L280.543 283.647
L280.841 163.961
L280.915 178.976
L281.064 240.247
L281.213 206.632
L281.362 122.566
L282.106 315.726
L282.254 361.468
L282.998 121.975
L283.222 152.802
L283.594 292.064
L283.668 283.109
L283.817 300.089
L284.04 254.079
L284.263 360.861
L284.338 355.078
L284.486 325.756
L284.71 248.526
L284.933 118.55
L285.082 85.948
L285.156 88.4363
L285.379 162.794
L285.602 211.746
L285.677 203.252
L286.123 298.615
L286.198 284.637
L286.346 293.032
L286.495 300.243
L286.57 321.962
L286.644 314.943
L286.718 303.208
L286.793 305.404
L286.867 313.299
L287.314 144.585
L287.462 178.815
L287.537 178.861
L287.76 241.076
L287.909 240.6
L287.983 253.195
L288.058 250.262
L288.132 241.729
L288.206 243.127
L288.281 238.442
L288.355 216.516
L288.43 220.77
L288.504 247.113
L288.578 238.626
L288.727 190.288
L288.802 194.797
L288.95 186.617
L289.248 246.475
L289.322 244.732
L289.397 247.835
L289.546 204.235
L289.694 225.209
L289.843 286.742
L289.918 284.668
L289.992 267.265
L290.141 293.032
L290.215 279.369
L290.29 285.951
L290.364 288.232
L290.885 207.676
L291.257 268.97
L291.331 269.7
L291.406 264.247
L291.554 304.459
L291.629 286.258
L292.001 101.139
L292.075 126.844
L292.298 182.739
L292.373 182.547
L292.67 275.567
L292.745 263.571
L292.894 201.693
L293.042 226.815
L293.191 145.376
L293.266 145.929
L293.489 251.913
L293.638 341.846
L293.712 336.815
L293.786 335.018
L293.935 361.975
L294.01 360.216
L294.084 361.253
L294.456 214.588
L294.53 178.976
L294.605 187.831
L294.828 234.379
L294.977 209.98
L295.126 235.593
L295.2 231.246
L295.423 158.724
L295.646 111.53
L295.721 122.474
L295.87 161.335
L296.093 232.283
L296.167 223.865
L296.242 228.42
L296.465 291.718
L296.614 309.666
L296.986 259.823
L297.06 261.282
L297.283 282.057
L297.358 284.407
L297.506 250.722
L297.581 251.298
L298.027 176.833
L298.102 184.536
L298.622 327.43
L298.846 253.28
L299.069 106.968
L299.143 132.397
L299.292 153.601
L299.366 151.128
L299.441 157.564
L299.738 259.47
L299.813 265.944
L299.887 264.447
L300.036 234.402
L300.185 190.127
L300.259 190.434
L300.408 218.858
L300.482 197.154
L300.854 307.14
L300.929 311.026
L301.152 275.053
L301.301 303.338
L301.375 290.597
L301.598 246.291
L301.822 224.395
L301.896 245.093
L301.97 242.205
L302.194 195.995
L302.342 191.072
L302.566 150.729
L303.086 286.557
L303.235 287.417
L303.384 305.135
L303.607 202.523
L303.682 203.974
L303.83 167.548
L303.905 169.038
L304.054 194.559
L304.351 314.067
L304.946 222.107
L305.021 198.652
L305.095 207.492
L305.318 333.229
L305.393 324.88
L306.211 91.2242
L306.286 107.659
L306.434 129.309
L306.509 121.222
L306.583 123.373
L307.104 301.234
L307.178 289.768
L307.253 292.878
L307.55 355.754
L307.625 350.401
L307.699 351.538
L307.774 347.429
L308.294 185.389
L308.369 194.036
L308.443 198.644
L308.666 247.551
L308.741 244.701
L308.815 246.491
L308.89 241.706
L308.964 244.648
L309.113 231.4
L309.559 99.5647
L309.634 95.9704
L309.708 107.928
L310.006 242.789
L310.229 309.559
L310.378 283.132
L310.526 313.76
L310.675 254.486
L310.75 260.046
L310.898 281.596
L310.973 256.859
L311.047 261.183
L311.122 279.246
L311.27 231.423
L311.345 235.455
L311.419 245.408
L311.494 243.219
L311.642 229.741
L311.717 230.14
L311.866 249.962
L312.089 286.588
L312.163 283.931
L312.386 237.997
L312.61 213.92
L312.907 148.233
L312.982 151.312
L313.205 204.159
L313.502 237.92
L313.577 230.816
L313.651 232.943
L313.726 232.221
L313.874 244.816
L314.023 205.864
L314.098 216.032
L314.395 156.95
L314.842 351.699
L314.916 359.817
L315.065 346.054
L315.586 239.141
L315.66 244.432
L315.809 285.413
L316.255 174.03
L316.404 154.5
L316.553 121.322
L316.627 119.871
L316.925 165.881
L317.148 213.052
L317.222 238.749
L317.297 225.033
L317.371 225.563
L317.669 277.088
L317.892 355.839
L317.966 341.961
L318.041 343.758
L318.115 345.739
L318.413 267.764
L318.562 209.174
L318.636 233.965
L318.71 230.616
L318.859 197.515
L319.082 216.324
L319.38 248.142
L319.529 245.5
L319.752 178.361
L319.901 119.149
L319.975 123.972
L320.124 161.151
L320.273 191.464
L320.347 194.543
L320.496 239.894
L320.719 306.011
L320.794 314.789
L320.868 310.619
L321.389 231.361
L321.612 282.441
L321.686 273.302
L321.761 278.739
L321.984 258.172
L322.282 203.137
L322.505 223.297
L322.654 210.303
L322.951 238.02
L323.026 227.913
L323.174 186.049
L323.249 211.608
L323.323 200.518
L323.472 153.816
L323.546 167.748
L323.695 238.043
L323.844 221.047
L324.067 285.305
L324.29 218.436
L324.365 240.808
L324.439 235.915
L324.588 217.898
L324.662 220.233
L324.737 222.99
L324.886 254.539
L325.183 332.614
L325.258 337.222
L325.481 325.165
L325.927 143.402
L326.002 149.016
L326.374 228.174
L326.448 231.799
L326.522 242.489
L326.746 156.274
L326.82 176.68
L326.894 174.79
L326.969 176.311
L327.043 170.751
L327.118 179.644
L327.341 246.337
L327.415 241.483
L327.638 259.001
L327.787 246.045
L327.862 248.956
L327.936 260.161
L328.085 237.92
L328.159 240.654
L328.382 299.713
L328.531 340.978
L328.68 303.714
L329.201 143.725
L329.35 215.548
L329.424 264.685
L329.498 251.821
L329.647 295.904
L329.796 293.392
L330.019 216.6
L330.317 111.753
L330.391 98.5816
L330.466 98.6507
L330.986 265.084
L331.21 283.946
L331.358 313.215
L331.507 306.011
L331.656 317.561
L331.954 286.78
L332.177 197.231
L332.474 171.25
L332.549 175.912
L332.995 307.347
L333.07 317.369
L333.144 315.165
L333.218 305.12
L333.59 143.94
L333.739 86.0939
L333.814 92.1919
L333.962 169.038
L334.037 152.104
L334.111 161.465
L334.334 261.29
L334.409 258.034
L334.483 245.262
L334.632 279.599
L334.855 251.99
L335.227 304.137
L335.302 303.469
L335.45 330.126
L336.12 178.1
L336.194 178.669
L336.418 269.677
L336.492 263.479
L336.715 191.54
L336.864 244.056
L336.938 242.344
L337.385 122.528
L337.608 181.695
L337.682 173.277
L337.757 182.632
L337.98 267.311
L338.054 266.574
L338.129 258.856
L338.278 293.968
L338.352 289.76
L338.426 286.742
L338.575 297.017
L338.65 296.326
L338.947 334.649
L339.468 190.488
L339.542 184.882
L339.691 195.434
L339.84 242.428
L339.914 234.702
L339.989 238.657
L340.063 236.607
L340.138 241.583
L340.212 234.894
L340.361 168.224
L340.435 175.512
L340.584 187.539
L340.658 186.94
L340.733 195.173
L340.807 191.686
L340.882 178.323
L341.105 229.103
L341.254 203.92
L341.477 266.758
L341.551 267.734
L341.7 237.958
L341.774 240.715
L341.998 291.595
L342.072 287.909
L342.221 268.095
L342.37 284.522
L342.444 279.999
L342.518 289.468
L342.593 288.892
L342.742 255.223
L342.965 210.164
L343.039 203.268
L343.262 234.187
L343.337 234.733
L343.486 192.17
L343.634 215.241
L344.155 173.815
L344.23 179.967
L344.676 282.387
L344.75 257.112
L344.825 262.88
L345.048 283.37
L345.197 224.687
L345.346 233.32
L345.42 228.642
L345.569 235.862
L345.718 201.279
L345.792 207.023
L345.941 302.34
L346.015 295.021
L346.09 270.752
L346.238 296.526
L346.313 297.501
L346.387 306.763
L346.759 192.761
L346.834 196.801
L346.982 220.394
L347.131 268.74
L347.354 209.089
L347.503 190.073
L347.652 129.163
L347.875 158.762
L348.173 264.086
L348.322 210.226
L348.396 214.857
L348.47 172.617
L348.545 179.744
L348.842 303.814
L348.917 302.8
L349.066 276.665
L349.14 281.558
L349.289 350.731
L349.438 302.616
L349.512 304.006
L349.586 312.093
L349.958 228.473
L350.033 257.965
L350.107 250.123
L350.33 173.915
L350.405 171.78
L350.479 178.423
L350.702 148.087
L350.777 146.85
L350.851 149.377
L351.149 96.8152
L351.446 189.006
L351.744 342.498
L351.818 326.47
L351.893 334.12
L352.116 381.006
L352.562 211.362
L352.637 215.878
L352.786 246.015
L352.934 218.873
L353.009 219.327
L353.083 246.03
L353.158 243.641
L353.306 204.95
L353.455 223.451
L353.753 276.927
L353.827 273.54
L353.902 284.676
L353.976 277.787
L354.348 192.831
L354.422 192.162
L354.72 143.871
L354.794 128.941
L355.092 209.465
L355.166 205.119
L355.315 217.03
L355.464 208.951
L355.91 276.458
L356.134 240.009
L356.208 243.972
L356.282 241.529
L356.357 243.442
L356.431 253.049
L356.654 345.839
L356.952 287.671
L357.25 201.033
L357.696 327.062
L357.77 311.394
L358.291 69.8891
L358.366 74.2821
L358.514 113.788
L358.589 119.901
L358.812 223.021
L358.886 253.549
L358.961 252.197
L359.035 251.137
L359.258 262.358
L359.333 261.513
L359.63 299.252
L359.705 319.382
L359.779 316.133
L359.854 321.256
L360.002 349.364
L360.151 280.329
L360.226 281.742
L360.449 193.399
L360.523 197.784
L360.672 231.392
L360.746 226.984
L360.895 198.675
L361.044 291.741
L361.118 283.462
L361.193 255.215
L361.342 305.688
L361.416 294.568
L361.639 206.132
L361.862 159.576
L361.937 152.203
L362.16 90.6789
L362.234 102.414
L362.606 250.369
L362.755 275.536
L362.904 254.347
L362.978 258.057
L363.127 218.804
L363.202 224.065
L363.574 363.926
L364.02 156.151
L364.094 152.618
L364.243 191.164
L364.466 238.319
L364.541 264.677
L364.615 262.442
L364.69 258.08
L364.764 265.038
L364.838 257.535
L365.062 220.079
L365.136 218.927
L365.285 256.045
L365.434 241.253
L365.582 277.564
L365.657 276.927
L365.806 254.655
L365.954 273.44
L366.252 212.292
L366.326 216.915
L366.922 133.334
L367.294 307.186
L367.442 305.412
L367.591 289.629
L367.74 247.359
L367.963 176.48
L368.038 182.309
L368.261 224.564
L368.484 248.994
L368.558 249.248
L368.633 244.87
L368.782 216.8
L368.856 213.605
L369.005 188.883
L369.079 190.312
L369.228 227.06
L369.302 248.395
L369.377 245.308
L369.451 253.848
L369.674 307.001
L369.823 309.175
L369.898 327.177
L370.27 269.984
L370.344 269.531
L370.418 276.589
L370.79 185.135
L370.865 187.493
L370.939 203.967
L371.237 161.404
L371.311 164.868
L371.386 163.178
L371.534 149.945
L371.609 140.96
L371.758 152.541
L371.906 204.819
L372.055 264.262
L372.13 256.482
L372.278 278.678
L372.502 252.727
L372.725 187.716
L373.171 362.973
L373.246 361.322
L373.32 348.427
L373.394 349.395
L373.469 348.397
L374.064 160.114
L374.138 158.37
L374.287 172.855
L374.362 171.488
L374.436 169.576
L374.808 211.293
L374.882 198.998
L374.957 201.939
L375.031 213.482
L375.254 282.095
L375.329 266.228
L375.478 291.634
L375.775 171.933
L375.85 159.415
L376.147 219.987
L376.222 218.19
L376.296 221.723
L376.37 217.076
L376.445 219.81
L376.594 240.792
L376.668 220.686
L376.742 220.709
L377.189 312.823
L377.263 301.149
L377.561 331.063
L377.635 353.757
L378.007 196.217
L378.082 190.55
L378.305 166.818
L378.379 176.948
L378.528 232.805
L378.677 211.816
L378.751 208.513
L378.9 144.938
L378.974 145.852
L379.198 179.92
L379.272 177.778
L379.421 155.529
L379.495 160.936
L379.942 346.553
L380.09 328.083
L380.165 365.247
L380.611 209.588
L380.76 234.963
L380.834 221.339
L381.058 345.931
L381.281 197.116
L381.43 137.151
L381.653 199.558
L381.727 162.326
L381.802 171.457
L382.099 261.421
L382.174 267.25
L382.322 236.107
L382.471 334.749
L382.546 311.003
L382.694 247.988
L382.769 253.741
L382.918 111.822
L383.066 148.125
L383.215 177.709
L383.29 211.746
L383.364 207.085
L383.438 209.719
L383.81 382.335
L383.885 378.971
L384.034 285.436
L384.108 289.691
L384.182 270.46
L384.257 278.04
L384.331 294.521
L384.406 272.127
L384.629 169.921
L384.703 164.153
L384.778 166.934
L384.852 176.795
L385.001 165.229
L385.075 161.68
L385.15 179.529
L385.298 272.211
L385.447 235.332
L385.596 288.139
L385.819 241.453
L385.968 223.919
L386.117 244.448
L386.266 206.048
L386.34 216.101
L386.414 208.851
L386.489 183.315
L386.563 193.076
L386.712 250.745
L386.861 242.712
L387.084 310.058
L387.382 237.175
L387.679 180.604
L387.828 225.386
L387.902 218.198
L388.051 247.804
L388.126 247.059
L388.2 248.211
L388.274 251.114
L388.349 259.739
L388.498 221.208
L388.572 228.028
L388.646 258.287
L388.721 255.115
L389.018 197.715
L389.093 186.034
L389.167 188.63
L389.242 187.017
L389.316 180.389
L389.39 185.619
L389.465 205.349
L389.539 202.039
L389.614 205.587
L389.762 192.692
L389.911 278.946
L389.986 276.988
L390.06 277.526
L390.209 349.748
L390.283 343.174
L390.506 255.576
L390.581 261.39
L390.878 225.993
L390.953 229.172
L391.027 230.601
L391.176 239.64
L391.25 235.624
L391.325 247.481
L391.474 290.105
L391.846 186.871
L391.92 176.265
L392.143 210.448
L392.366 180.673
L392.441 184.836
L392.59 161.611
L392.664 170.205
L392.813 219.342
L392.887 218.82
L393.11 283.524
L393.185 263.978
L393.334 244.732
L393.408 260.776
L393.557 222.606
L393.631 232.674
L393.706 236.269
L394.078 325.641
L394.152 363.096
L394.226 362.144
L394.45 240.808
L394.524 266.966
L394.598 269.139
L394.747 286.135
L395.417 145.691
L395.566 124.64
L395.714 167.487
L395.938 257.765
L396.012 256.628
L396.235 227.575
L396.533 267.764
L396.83 167.41
L396.905 175.589
L396.979 183.492
L397.128 206.317
L397.202 205.103
L397.277 201.847
L397.5 280.72
L397.649 336.731
L397.723 330.356
L397.946 251.168
L398.021 258.525
L398.244 341.469
L398.318 339.695
L398.393 332.184
L398.616 285.052
L398.69 282.379
L398.914 162.387
L399.137 76.9701
L399.286 117.904
L399.509 173.6
L399.806 240.9
L399.881 238.288
L399.955 239.087
L400.03 238.388
L400.178 210.894
L400.253 219.472
L400.476 301.61
L400.55 291.68
L400.625 283.908
L400.699 286.258
L400.774 286.373
L400.848 282.556
L400.922 288.47
L400.997 286.043
L401.146 201.586
L401.22 207.607
L401.369 265.645
L401.443 256.866
L401.666 196.348
L401.741 201.448
L402.187 322
L402.559 201.471
L402.931 110.155
L403.006 118.58
L403.526 281.227
L403.601 283.455
L403.75 249.862
L403.824 258.748
L403.973 185.98
L404.047 197.938
L404.345 278.77
L404.419 276.051
L404.494 258.871
L404.568 264.831
L404.642 273.762
L404.791 257.412
L404.94 315.496
L405.014 312.009
L405.238 247.097
L405.312 249.509
L405.386 245.938
L405.535 217.552
L405.758 149.101
L405.833 155.068
L405.982 215.394
L406.056 209.934
L406.205 195.327
L406.428 229.065
L406.577 252.297
L406.651 245.8
L406.8 189.636
L407.098 312.193
L407.321 275.667
L407.395 272.564
L407.767 180.85
L407.842 186.034
L408.065 246.199
L408.288 267.979
L408.362 254.839
L408.586 187.531
L408.66 185.88
L409.181 271.581
L409.33 324.658
L409.404 322.377
L409.85 223.627
L409.999 261.267
L410.074 244.179
L410.297 155.675
L410.371 157.526
L410.446 156.581
L410.52 163.14
L410.669 153.478
L410.966 248.388
L411.041 243.426
L411.115 250.5
L411.338 188.031
L411.562 263.563
L411.785 346.853
L412.082 307.001
L412.306 264.132
L412.38 280.651
L412.454 275.844
L412.603 224.303
L412.678 224.365
L412.901 190.918
L412.975 207.53
L413.05 207.33
L413.347 136.075
L413.422 140.338
L413.57 122.912
L413.645 128.265
L414.166 336.992
L414.24 338.013
L414.314 342.483
L414.463 278.432
L414.761 194.774
L414.835 189.474
L415.207 232.767
L415.356 278.401
L415.43 268.586
L415.579 247.727
L415.654 248.718
L415.877 326.447
L415.951 321.839
L416.1 283.731
L416.249 261.797
L416.323 266.098
L416.472 221.147
L416.546 218.244
L416.918 75.8949
L416.993 60.1663
L417.29 197.715
L417.737 346.592
L417.886 313.13
L418.183 239.164
L418.258 241.729
L418.406 239.556
L418.481 239.563
L418.63 214.811
L418.704 217.844
L418.853 251.613
L418.927 250.077
L419.076 232.198
L419.374 273.586
L419.448 263.617
L419.597 200.764
L419.671 204.834
L419.82 244.432
L419.894 243.035
L419.969 245.085
L420.043 255.661
L420.341 201.816
L420.415 210.018
L420.49 259.892
L420.564 239.149
L420.713 182.109
L420.862 221.416
L421.085 283.447
L421.606 162.433
L422.201 318.529
L422.275 299.352
L422.498 185.734
L422.87 296.879
L422.945 287.909
L423.168 226.438
L423.242 236.33
L423.391 270.89
L423.54 212.545
L423.763 298.3
L423.838 291.565
L424.135 171.027
L424.284 137.581
L424.358 140.699
L424.433 130.484
L424.582 175.359
L424.879 270.345
L424.954 266.528
L425.028 241.483
L425.102 252.52
L425.177 253.84
L425.326 169.084
L425.4 188.714
L425.623 315.757
L425.698 325.879
L425.921 290.689
L426.07 292.294
L426.144 297.025
L426.293 325.426
L426.516 159.776
L426.59 163.055
L426.739 129.647
L426.962 221.308
L427.037 218.175
L427.186 228.758
L427.26 228.005
L427.409 250.192
L427.483 239.302
L427.558 210.679
L427.632 214.772
L427.855 241.491
L428.078 250.768
L428.227 233.765
L428.525 250.707
L428.599 267.918
L428.822 245.262
L428.897 249.709
L429.046 200.687
L429.194 213.774
L429.269 206.455
L429.343 215.656
L429.566 257.734
L429.641 251.59
L429.715 255.561
L429.79 266.52
L429.938 242.958
L430.087 228.811
L430.162 238.957
L430.31 296.68
L430.459 213.651
L430.534 225.87
L430.682 277.203
L430.757 265.314
L430.831 263.963
L430.906 271.888
L431.054 185.65
L431.278 131.844
L431.724 241.637
L431.798 243.534
L431.873 235.485
L432.022 275.959
L432.096 253.18
L432.319 134.386
L432.394 141.49
L432.84 350.493
L432.914 335.049
L432.989 310.104
L433.063 313.706
L433.212 289.768
L433.286 291.403
L433.435 339.849
L433.807 188.537
L433.956 219.234
L434.105 217.76
L434.179 223.497
L434.254 221.085
L434.402 194.367
L434.551 201.371
L434.626 196.041
L434.7 203.851
L434.923 146.382
L435.146 192.362
L435.221 197.354
L435.444 256.336
L435.518 229.887
L435.593 241.184
L435.667 242.674
L435.89 258.771
L435.965 277.403
L436.337 201.501
L436.411 211.662
L436.56 270.698
L436.634 281.25
L436.783 312.447
L437.006 248.948
L437.081 245.385
L437.155 262.911
L437.23 260.668
L437.304 250.077
L437.602 304.636
L437.676 294.882
L438.122 111.223
L438.197 115.447
L438.42 170.198
L438.569 225.033
L438.643 219.142
L438.792 188.453
L438.866 201.056
L438.941 192.477
L439.015 205.264
L439.164 261.352
L439.238 267.334
L439.313 286.004
L439.759 231.146
L439.834 229.472
L440.057 273.962
L440.28 320.411
L440.652 215.901
L440.95 150.514
L441.173 209.742
L441.322 195.35
L441.545 254.378
L441.694 248.641
L442.14 307.17
L442.214 302.017
L442.363 267.304
L442.661 143.817
L442.735 148.141
L442.81 138.763
L442.884 108.381
L442.958 117.037
L443.107 182.962
L443.182 178.461
L443.479 245.439
L443.702 305.389
L443.851 293.416
L444.074 350.509
L444.149 335.517
L444.446 213.605
L444.595 209.842
L444.744 201.64
L444.893 248.733
L444.967 244.095
L445.042 245.646
L445.19 259.885
L445.265 260.115
L445.637 169.291
L445.786 190.588
L445.86 172.386
L446.083 226.392
L446.232 206.547
L446.381 227.79
L446.53 292.648
L446.678 233.734
L446.753 235.04
L446.827 237.782
L446.902 228.589
L446.976 243.426
L447.125 288.754
L447.497 196.217
L447.571 210.832
L447.72 265.737
L447.869 228.151
L448.018 250.661
L448.166 221.561
L448.315 244.041
L448.538 203.621
L448.687 245.508
L448.836 297.401
L448.91 284.906
L449.134 224.426
L449.357 170.313
L449.654 225.094
L449.878 281.542
L449.878 281.542" style="fill:none;stroke:#808080;stroke-linecap:square;"/>
   </g>
  </g>
 </g>
 <defs>
  <clipPath id="p7ff5b81e1d">
   <rect height="345.6" width="446.4" x="72.0" y="43.2"/>
  </clipPath>
 </defs>
</svg>
