<?xml version="1.0" encoding="utf-8" standalone="no"?>
<!DOCTYPE svg PUBLIC "-//W3C//DTD SVG 1.1//EN"
  "http://www.w3.org/Graphics/SVG/1.1/DTD/svg11.dtd">
<!-- Created with matplotlib (http://matplotlib.org/) -->
<svg height="432pt" version="1.1" viewBox="0 0 576 432" width="576pt" xmlns="http://www.w3.org/2000/svg" xmlns:xlink="http://www.w3.org/1999/xlink">
 <defs>
  <style type="text/css">
*{stroke-linecap:butt;stroke-linejoin:round;}
  </style>
 </defs>
 <g id="figure_1">
  <g id="patch_1">
   <path d="
M0 432
L576 432
L576 0
L0 0
z
" style="fill:#ffffff;"/>
  </g>
  <g id="axes_1">
   <g id="line2d_1">
    <path clip-path="url(#p7ff5b81e1d)" d="
M72 155.946
L72.0744 162.8
L72.0744 162.8
L72.0744 162.8
L72.1488 162.627
L72.2232 158.499
L72.4464 178.103
L72.5208 177.45
L72.5952 179.984
L72.9672 220.381
L73.0416 220.458
L73.2648 227.811
L73.4136 200.144
L73.488 201.066
L73.7856 233.303
L73.9344 238.679
L74.0088 238.563
L74.0832 238.775
L74.232 211.088
L74.4552 154.986
L74.6784 126.666
L74.9016 147.21
L74.976 149.091
L75.0504 158.173
L75.348 231.191
L75.6456 220.919
L75.72 204.867
L75.7944 204.906
L75.9432 226.467
L76.1664 251.677
L76.2408 249.2
L76.3896 229.021
L76.464 230.192
L76.5384 228.176
L76.6872 197.936
L76.9848 100.765
L77.1336 94.4867
L77.208 101.744
L77.5056 157.923
L77.58 164.01
L77.8032 230.077
L77.8776 229.098
L77.952 228.56
L78.1008 232.707
L78.2496 255.498
L78.3984 222.493
L78.4728 224.317
L78.696 238.103
L78.7704 236.183
L79.068 231.767
L79.5144 184.458
L79.7376 200.106
L79.8864 194.691
L79.9608 194.269
L80.1096 206.749
L80.184 205.424
L80.2584 200.547
L80.4816 105.603
L80.6304 109.194
L80.7048 108.771
L80.7792 100.304
L80.8536 105.527
L81.2256 218.154
L81.4488 290.384
L81.5232 296.912
L81.5976 293.456
L82.1928 179.159
L82.2672 181.597
L82.416 194.845
L82.4904 194.576
L82.6392 216.426
L82.7136 215.869
L82.9368 150.858
L83.0856 158.154
L83.16 154.563
L83.3088 172.65
L83.6064 233.015
L83.6808 240.541
L83.7552 237.488
L83.904 209.725
L83.9784 214.89
L84.0528 210.109
L84.2016 186.781
L84.3504 197.783
L84.5736 155.216
L84.648 159.824
L84.7224 154.122
L84.8712 129.258
L84.9456 140.701
L85.1688 213.488
L85.3176 208.055
L85.4664 222.551
L85.5408 222.512
L85.6152 219.267
L85.6896 221.226
L85.8384 239.831
L85.9128 236.183
L86.136 201.738
L86.2104 203.831
L86.2848 202.851
L86.3592 199.664
L86.5824 219.344
L86.9544 185.264
L87.1776 190.256
L87.252 187.491
L87.4008 173.187
L87.4752 176.029
L87.6984 201.738
L87.7728 201.335
L88.0704 179.37
L88.1448 181.789
L88.368 211.357
L88.5168 183.632
L88.5912 184.093
L88.74 200.816
L88.9632 237.2
L89.112 211.933
L89.3352 175.799
L89.484 166.563
L89.5584 166.717
L89.7072 174.263
L89.856 159.747
L89.9304 160.189
L90.0048 166.525
L90.3024 216.426
L90.4512 201.296
L90.5256 202.967
L90.6 202.928
L90.7488 223.856
L90.972 257.917
L91.1208 231.498
L91.2696 209.303
L91.344 214.679
L91.5672 186.224
L91.6416 189.315
L91.716 197.264
L91.8648 186.378
L92.088 213.258
L92.1624 201.469
L92.3112 149.879
L92.3856 156.656
L92.5344 194.327
L92.6088 192.003
L92.832 163.165
L92.9808 169.655
L93.1296 203.619
L93.3528 243.133
L93.5016 220.439
L93.7992 152.893
L93.8736 150.896
L94.0224 129.93
L94.0968 134.327
L94.2456 152.797
L94.9152 300.56
L95.064 308.355
L95.5848 154.583
L95.6592 156.023
L95.7336 156.791
L95.808 152.451
L96.0312 120.234
L96.1056 122.365
L96.2544 138.339
L96.4776 161.552
L96.552 165.872
L96.924 244.976
L96.9984 239.619
L97.1472 225.239
L97.2216 225.719
L97.3704 236.663
L97.4448 235.146
L97.668 222.954
L97.8912 194.019
L98.1144 168.099
L98.2632 185.591
L98.3376 184.496
L98.412 177.181
L98.4864 180.887
L98.5608 191.658
L98.6352 189.776
L98.7096 189.546
L98.784 195.863
L98.8584 194.691
L98.9328 186.32
L99.0072 187.626
L99.3048 263.504
L99.3792 256.919
L99.7512 176.624
L99.8256 168.829
L99.9 175.069
L99.9744 171.709
L100.272 133.328
L100.346 137.111
L100.644 185.13
L100.793 183.536
L100.867 183.575
L101.016 210.858
L101.239 245.629
L101.314 241.098
L101.462 221.13
L101.537 226.122
L101.686 247.415
L101.76 245.264
L101.909 248.855
L102.43 179.888
L102.504 181.539
L102.578 180.637
L102.95 140.048
L103.025 141.872
L103.248 197.091
L103.322 195.805
L103.397 196.247
L103.471 196.323
L103.546 192.733
L103.769 146.595
L103.843 150.896
L104.215 230.941
L104.29 227.235
L104.364 221.936
L104.513 226.736
L104.587 226.295
L104.736 229.424
L104.885 245.207
L105.034 249.354
L105.108 252.464
L105.257 227.639
L105.629 141.527
L105.703 150.032
L105.926 194.135
L106.075 207.671
L106.15 199.319
L106.447 138.973
L106.522 134.519
L106.596 143.235
L106.819 202.103
L106.894 197.034
L106.968 197.091
L107.117 200.394
L107.414 241.635
L107.638 269.379
L107.786 247.338
L108.158 147.229
L108.53 199.952
L108.754 228.829
L108.828 212.298
L109.126 104.931
L109.2 109.328
L109.498 174.455
L110.167 282.723
L110.242 278.288
L110.837 165.431
L110.911 165.584
L111.06 162.378
L111.283 153.123
L111.506 127.53
L111.581 133.328
L112.027 257.341
L112.325 231.939
L112.474 244.515
L112.548 240.829
L112.994 148.362
L113.069 151.127
L113.218 163.415
L113.292 163.203
L113.366 163.703
L113.441 165.258
L113.515 164.547
L113.738 134.576
L113.813 135.882
L113.887 138.877
L114.408 304.266
L114.482 296.029
L114.929 157.251
L115.003 157.578
L115.078 162.8
L115.375 217.309
L115.673 204.887
L115.747 202.218
L115.822 214.179
L116.045 185.072
L116.119 173.725
L116.194 175.376
L116.268 179.082
L116.342 178.467
L116.64 142.122
L116.938 185.706
L117.086 177.392
L117.31 147.651
L117.533 194.154
L117.905 250.007
L118.054 244.669
L118.128 246.397
L118.351 264.483
L118.5 280.362
L118.574 272.471
L118.872 198.416
L119.17 134.787
L119.244 134.327
L119.542 169.712
L119.616 168.848
L119.839 133.079
L120.062 156.637
L120.211 151.76
L120.286 155.37
L120.806 281.859
L121.104 261.815
L121.476 183.997
L121.699 176.586
L121.774 186.819
L121.848 186.627
L121.997 147.594
L122.071 149.13
L122.146 152.49
L122.22 152.375
L122.294 145.098
L122.369 147.997
L122.518 169.117
L122.964 252.637
L123.187 240.541
L123.262 243.594
L123.336 247.299
L123.41 245.821
L123.782 192.771
L124.006 118.813
L124.08 118.544
L124.154 107.696
L124.229 114.128
L124.526 185.379
L124.601 188.221
L124.675 174.455
L124.75 174.781
L124.898 195.555
L125.122 267.44
L125.196 265.117
L125.27 251.927
L125.345 254.653
L125.419 267.863
L125.494 266.807
L126.089 144.925
L126.163 148.247
L126.312 167.274
L126.386 166.371
L126.461 151.338
L126.535 154.41
L126.907 190.333
L126.982 187.261
L127.13 177.911
L127.279 199.799
L127.577 264.483
L127.726 289.079
L127.874 267.651
L128.395 111.498
L128.544 143.811
L128.842 217.635
L128.916 225.527
L129.214 185.706
L129.362 172.112
L129.511 189.642
L129.734 209.283
L129.958 199.242
L130.032 199.28
L130.181 189.296
L130.255 190.448
L130.404 186.8
L130.627 213.93
L130.702 211.184
L130.925 188.279
L130.999 187.703
L131.148 192.157
L131.371 231.114
L131.52 226.986
L131.594 229.251
L131.669 225.431
L131.966 190.333
L132.115 183.843
L132.264 196.208
L132.413 173.744
L132.562 182.672
L132.71 163.088
L132.785 164.509
L133.082 181.77
L133.231 167.101
L133.306 159.632
L133.38 160.535
L133.454 159.709
L133.529 164.01
L133.826 265.463
L133.975 258.301
L134.05 255.018
L134.124 256.995
L134.198 256.381
L134.868 165.488
L134.942 167.811
L135.091 176.048
L135.389 162.339
L135.686 138.167
L135.761 144.656
L136.207 247.875
L136.356 257.763
L136.43 258.109
L136.579 260.087
L136.728 238.583
L137.174 132.791
L137.323 128.279
L137.472 117.738
L138.365 263.85
L138.588 277.002
L138.811 246.032
L138.96 215.37
L139.109 223.491
L139.183 215.331
L139.555 125.591
L139.63 115.914
L139.927 134.749
L140.15 104.087
L140.299 123.92
L140.746 282.954
L140.82 279.555
L141.043 245.437
L141.118 247.434
L141.192 257.744
L141.266 257.571
L141.49 223.875
L141.713 188.106
L141.787 187.453
L142.01 151.722
L142.531 211.53
L142.754 177.123
L142.829 181.232
L143.052 190.083
L143.275 202.141
L143.424 186.09
L143.647 118.832
L143.722 127.914
L144.094 249.488
L144.242 229.136
L144.54 173.264
L144.838 208.976
L144.912 223.76
L144.986 221.763
L145.135 199.472
L145.284 221.879
L145.433 187.971
L145.507 193.424
L145.879 254.672
L145.954 252.234
L146.251 180.714
L146.326 186.531
L146.4 185.36
L146.549 171.709
L146.772 169.347
L146.921 158.211
L147.07 145.194
L147.59 199.184
L147.739 191.907
L147.814 193.539
L147.888 192.272
L148.186 250.525
L148.334 285.258
L148.483 247.031
L148.781 178.275
L148.855 163.837
L149.004 182.595
L149.078 178.103
L149.153 171.248
L149.227 180.503
L149.302 176.183
L149.45 136.899
L149.525 137.61
L149.674 162.877
L149.971 235.146
L150.046 235.491
L150.343 177.027
L150.492 177.45
L150.566 172.17
L150.715 197.283
L150.938 237.047
L151.087 246.551
L151.31 219.575
L151.459 218.883
L151.534 214.506
L151.682 227.197
L151.831 202.045
L152.054 137.821
L152.129 137.015
L152.501 157.981
L152.575 157.674
L152.65 155.85
L153.096 210.666
L153.468 259.319
L153.84 244.304
L154.435 151.549
L154.658 120.349
L154.882 198.263
L155.105 251.043
L155.179 253.751
L155.328 243.037
L155.923 185.36
L155.998 185.341
L156.295 170.672
L156.37 170.519
L156.444 172.304
L156.593 184.842
L156.816 176.816
L156.965 161.303
L157.114 164.778
L157.411 209.245
L157.486 201.68
L157.56 191.389
L157.634 195.171
L157.709 201.066
L157.783 199.971
L157.858 187.799
L157.932 193.559
L158.155 245.725
L158.23 245.648
L158.304 249.911
L158.602 192.656
L158.676 198.743
L158.75 205.751
L158.825 204.368
L158.899 205.943
L159.122 238.064
L159.197 230.979
L159.569 166.487
L159.643 170.058
L159.792 167.581
L159.941 178.717
L160.015 178.698
L160.164 174.551
L160.313 189.968
L160.61 165.872
L160.759 180.023
L160.982 201.392
L161.057 203.043
L161.28 188.912
L161.354 191.159
L161.503 185.207
L161.875 232.093
L161.95 231.075
L162.247 198.167
L162.396 215.927
L162.47 223.415
L162.545 222.339
L162.694 192.042
L162.842 214.775
L162.991 209.168
L163.14 214.41
L163.289 198.973
L163.363 191.101
L163.512 204.291
L163.735 183.805
L163.884 163.971
L164.033 179.159
L164.256 204.08
L164.33 201.719
L164.554 145.309
L164.702 153.239
L164.777 151.971
L164.851 147.92
L165.298 224.336
L165.372 225.296
L165.446 225.239
L165.595 204.522
L165.67 208.419
L165.818 226.583
L165.893 224.279
L166.042 213.258
L166.19 251.447
L166.265 248.778
L166.562 221.418
L166.711 211.376
L166.786 221.706
L166.86 220.823
L167.232 163.127
L167.381 145.002
L167.53 158.25
L167.604 170.192
L167.678 168.234
L167.827 153.085
L167.976 162.954
L168.05 162.8
L168.199 144.272
L168.571 200.797
L168.646 194.327
L168.72 195.767
L169.39 285.066
L169.464 283.011
L170.134 155.639
L170.282 175.991
L170.58 105.335
L171.324 235.031
L171.398 235.165
L171.473 233.399
L171.547 227.984
L171.696 180.618
L171.77 190.179
L172.068 250.371
L172.142 246.147
L172.514 172.861
L172.961 133.309
L173.333 202.179
L173.779 271.875
L173.854 267.133
L174.077 229.635
L174.226 214.026
L174.449 187.338
L174.598 195.21
L174.746 178.333
L175.118 106.832
L175.193 108.426
L175.49 168.157
L175.937 279.843
L176.011 280.707
L176.16 248.682
L176.234 250.563
L176.309 245.36
L176.532 222.608
L176.681 204.272
L176.83 189.527
L177.053 213.93
L177.276 168.503
L177.574 112.899
L177.797 162.147
L178.094 218.691
L178.243 206.979
L178.466 228.138
L178.615 199.491
L178.913 248.49
L179.21 190.679
L179.285 189.815
L179.359 196.112
L179.434 194.672
L179.582 189.699
L179.806 209.591
L180.029 182.403
L180.103 187.53
L180.178 190.832
L180.252 182.826
L180.475 135.613
L180.55 138.378
L181.07 216.253
L181.294 251.792
L181.517 270.359
L182.038 179.197
L182.112 177.104
L182.41 150.071
L182.558 159.805
L182.707 180.983
L182.782 178.717
L182.856 179.101
L183.377 240.963
L183.451 239.735
L183.526 235.376
L183.6 238.141
L183.674 234.973
L183.823 212.067
L184.046 170.173
L184.27 192.695
L184.716 160.823
L184.865 152.855
L184.939 156.599
L185.162 177.68
L185.534 221.552
L185.609 219.824
L185.758 206.058
L185.832 210.896
L185.981 256.669
L186.055 256.4
L186.278 221.322
L186.353 221.36
L186.427 225.719
L186.948 157.943
L187.246 213.834
L187.394 233.341
L187.469 236.739
L187.618 258.339
L187.766 229.501
L188.064 100.899
L188.213 117.507
L188.362 138.896
L188.436 141.661
L188.734 232.535
L188.957 294.416
L189.552 131.063
L189.701 98.6723
L189.85 134.711
L190.222 241.079
L190.445 230.192
L190.668 235.395
L190.742 236.759
L190.817 234.915
L190.891 229.328
L191.04 252.906
L191.114 265.827
L191.189 261.296
L191.561 185.821
L191.635 190.179
L191.71 183.344
L191.858 149.053
L192.007 170.999
L192.082 163.261
L192.23 123.363
L192.379 134.039
L192.528 111.402
L192.602 113.456
L193.049 183.171
L193.495 310.141
L193.57 316.746
L193.644 313.059
L193.793 270.167
L194.09 166.429
L194.314 162.512
L194.388 155.965
L194.537 136.266
L194.76 185.264
L194.909 182.461
L195.058 214.16
L195.355 281.437
L195.43 279.095
L195.504 266.941
L195.802 175.914
L195.876 169.827
L196.099 129.181
L196.322 109.808
L196.546 124.381
L196.694 95.5043
L196.769 106.755
L197.29 279.594
L197.364 291.037
L197.438 289.463
L197.81 269.207
L198.034 234.666
L198.108 230.25
L198.406 195.267
L198.554 178.122
L198.629 183.229
L198.703 195.133
L198.778 191.888
L199.001 173.187
L199.15 180.675
L199.298 192.752
L199.373 178.41
L199.596 209.418
L199.819 165.066
L199.894 165.296
L199.968 166.583
L200.191 179.888
L200.266 176.355
L200.414 171.459
L200.489 175.856
L200.563 174.551
L200.638 177.258
L200.935 242.941
L201.01 238.256
L201.158 244.496
L201.233 238.218
L201.605 127.856
L201.679 133.367
L201.977 177.143
L202.051 183.632
L202.2 166.544
L202.274 168.599
L202.349 176.72
L202.721 266.442
L202.944 283.434
L203.093 270.416
L203.316 199.76
L203.39 202.659
L203.614 228.157
L203.762 204.579
L203.837 205.155
L203.911 201.584
L203.986 203.293
L204.06 208.707
L204.134 203.715
L204.358 148.688
L204.655 73.5203
L204.73 67.8755
L205.102 132.407
L205.25 174.627
L205.399 155.792
L205.474 159.095
L205.92 299.927
L205.994 299.293
L206.069 288.579
L206.366 312.887
L206.441 309.623
L206.664 273.104
L206.887 213.219
L206.962 213.68
L207.11 224.125
L207.259 182.557
L207.334 189.603
L207.408 193.328
L207.631 128.547
L207.706 129.123
L207.78 125.149
L208.003 101.898
L208.078 101.13
L208.375 145.674
L208.598 209.187
L208.822 166.103
L208.896 170.711
L209.119 163.28
L209.268 181.175
L209.789 288.867
L209.938 272.605
L210.086 283.76
L210.235 256.496
L210.31 256.842
L210.384 260.106
L210.682 204.445
L210.756 207.383
L210.83 220.765
L211.054 180.387
L211.351 123.325
L211.426 121.712
L211.574 138.743
L211.723 193.693
L211.798 191.082
L211.946 152.759
L212.095 156.522
L212.318 134.768
L212.393 137.763
L212.542 160.938
L212.839 237.987
L213.137 265.213
L213.509 235.434
L213.806 162.493
L213.881 152.471
L213.955 163.319
L214.104 217.674
L214.178 217.232
L214.402 237.642
L214.55 223.011
L214.625 226.986
L214.699 224.413
L214.848 165.181
L214.997 142.064
L215.071 141.469
L215.146 147.901
L215.443 213.469
L215.741 255.075
L215.815 251.984
L215.964 230.135
L216.262 163.856
L216.559 136.995
L216.634 132.867
L216.708 135.594
L216.782 134.135
L216.857 135.421
L216.931 135.383
L217.08 149.015
L217.824 287.082
L217.898 283.549
L217.973 282.167
L218.047 288.81
L218.122 282.973
L218.642 153.719
L218.791 137.437
L218.866 131.351
L219.089 150.743
L219.386 197.725
L219.535 236.586
L219.684 220.304
L220.279 166.141
L220.354 169.597
L220.577 195.037
L220.726 210.8
L220.8 213.891
L220.949 230.922
L221.023 225.738
L221.321 206.979
L221.544 167.927
L221.618 167.139
L221.842 202.007
L221.916 194.595
L221.99 189.335
L222.214 203.619
L222.437 199.338
L222.66 184.343
L222.734 188.106
L222.958 221.687
L223.33 177.354
L223.404 150.858
L223.478 162.551
L223.627 195.536
L223.776 203.504
L223.85 203.005
L223.999 195.383
L224.074 198.32
L224.148 208.131
L224.222 208.093
L224.297 202.448
L224.371 203.427
L224.446 214.448
L224.52 214.026
L224.669 201.143
L224.743 201.93
L224.892 195.363
L225.041 204.407
L225.19 193.539
L225.338 167.85
L225.413 147.44
L225.487 150.954
L225.785 210.647
L225.859 219.555
L225.934 217.136
L226.008 213.642
L226.082 218.634
L226.157 218.595
L226.306 199.875
L226.454 211.357
L226.678 159.171
L226.752 162.282
L226.975 247.626
L227.05 239.312
L227.273 179.293
L227.347 184.707
L227.496 200.855
L227.645 182.903
L227.794 188.547
L228.017 202.487
L228.463 176.951
L228.538 176.682
L228.612 179.888
L228.835 231.479
L228.91 228.042
L229.207 180.637
L229.282 179.6
L229.579 197.437
L229.728 188.605
L229.802 183.517
L229.877 184.611
L229.951 191.677
L230.1 218.039
L230.174 215.139
L230.323 226.89
L230.398 226.371
L230.695 152.816
L230.77 158.653
L230.993 229.616
L231.216 215.024
L231.365 229.847
L231.811 137.821
L231.886 149.763
L232.109 192.464
L232.183 194.365
L232.332 206.845
L232.63 187.165
L232.778 203.408
L232.853 200.643
L232.927 202.525
L233.15 247.722
L233.225 246.378
L233.374 228.906
L233.522 254.307
L233.597 245.283
L234.043 128.989
L234.192 150.8
L234.341 130.218
L234.787 209.571
L234.862 210.973
L235.085 224.029
L235.159 223.031
L235.308 217.309
L235.531 186.455
L235.606 188.106
L235.68 197.61
L235.754 195.383
L235.978 160.112
L236.201 206.135
L236.275 200.087
L236.424 185.264
L236.87 287.677
L236.945 275.792
L237.242 189.373
L237.391 149.168
L237.466 153.546
L237.614 181.155
L237.763 148.439
L237.838 150.051
L238.135 178.717
L238.284 161.898
L238.358 163.299
L238.73 226.621
L238.879 222.339
L239.177 201.027
L239.549 225.719
L239.623 216.464
L239.846 151.856
L240.144 212.259
L240.218 212.643
L240.442 205.213
L240.59 199.779
L240.739 211.856
L240.962 178.986
L241.037 185.303
L241.111 185.687
L241.186 184.842
L241.409 195.383
L241.483 191.658
L241.632 203.696
L241.706 190.41
L241.781 191.293
L241.93 202.064
L242.153 155.37
L242.45 241.866
L242.674 262.122
L242.822 227.696
L243.194 152.586
L243.343 144.176
L243.492 163.645
L243.566 179.715
L243.641 177.93
L243.715 169.367
L243.864 201.93
L243.938 198.781
L244.087 175.107
L244.236 200.106
L244.385 179.639
L244.459 181.501
L244.757 232.976
L244.831 231.939
L244.98 212.624
L245.054 213.181
L245.129 226.755
L245.203 225.815
L245.501 184.554
L245.575 194.595
L245.724 228.08
L245.873 218.711
L245.947 227.216
L246.022 226.333
L246.542 147.287
L246.691 141.93
L246.84 155.485
L247.063 218.922
L247.138 214.352
L247.286 207.901
L247.361 206.749
L247.51 182.288
L247.584 185.264
L247.882 215.984
L247.956 215.811
L248.03 210.589
L248.105 214.218
L248.328 236.643
L248.402 232.746
L248.7 160.419
L248.774 160.803
L249.221 208.938
L249.444 166.122
L249.667 138.071
L249.816 158.442
L250.188 267.229
L250.56 198.781
L250.709 200.125
L250.858 219.632
L250.932 202.832
L251.081 219.709
L251.304 182.442
L251.378 182.519
L251.527 171.344
L251.602 176.816
L251.676 174.301
L251.75 178.122
L251.974 233.418
L252.048 231.152
L252.122 234.877
L252.42 164.874
L252.569 213.239
L252.643 204.695
L252.718 205.04
L252.792 200.72
L252.941 137.687
L253.015 147.325
L253.238 198.858
L253.313 209.552
L253.387 207.075
L253.536 177.987
L253.61 186.109
L253.759 172.266
L253.908 204.138
L254.057 234.09
L254.131 231.133
L254.28 199.76
L254.429 176.605
L254.503 183.843
L254.578 180.311
L254.652 173.264
L254.726 176.01
L255.024 231.709
L255.098 230.538
L255.322 191.984
L255.396 197.456
L255.545 206.077
L255.619 205.904
L255.694 207.133
L255.768 203.139
L255.842 218.595
L255.917 216.253
L256.066 176.202
L256.14 181.098
L256.363 224.951
L256.586 185.475
L256.81 121.655
L256.884 126.205
L257.107 219.191
L257.182 245.763
L257.256 242.538
L257.479 171.344
L257.628 190.679
L257.777 228.445
L257.851 225.891
L258.074 186.071
L258.223 154.007
L258.521 229.021
L258.595 217.059
L258.744 187.165
L258.818 193.213
L259.042 239.639
L259.116 238.295
L259.265 252.099
L259.637 137.341
L259.711 141.047
L260.083 209.687
L260.158 203.235
L260.381 134.595
L260.455 138.723
L260.827 223.491
L260.902 217.271
L261.125 182.48
L261.497 253.77
L261.571 251.6
L261.794 214.832
L261.869 212.509
L262.018 203.811
L262.092 204.464
L262.166 213.162
L262.241 212.163
L262.315 204.906
L262.538 132.695
L262.613 135.479
L262.762 172.765
L262.91 198.186
L263.134 134.672
L263.282 154.717
L263.58 228.618
L263.654 228.887
L263.878 209.706
L264.026 190.333
L264.398 238.544
L264.77 160.477
L264.845 165.757
L265.217 275.466
L265.291 256.055
L265.44 196.611
L265.514 197.84
L265.589 202.698
L265.738 233.898
L265.812 232.055
L265.886 221.917
L266.11 116.451
L266.184 116.701
L266.482 157.328
L266.556 163.587
L266.63 162.243
L266.705 164.01
L267.077 199.338
L267.3 254.749
L267.374 248.509
L267.598 184.727
L267.672 193.962
L267.821 224.163
L268.342 168.023
L268.49 195.498
L268.565 215.139
L268.639 211.319
L268.788 195.613
L268.937 232.669
L269.011 228.829
L269.16 207.037
L269.309 233.571
L269.458 290.557
L269.681 180.311
L269.83 132.963
L269.904 134.653
L270.202 125.955
L270.276 132.119
L270.722 236.067
L270.871 208.707
L270.946 216.541
L271.02 225.565
L271.094 223.607
L271.243 185.283
L271.392 154.275
L271.615 228.407
L271.764 197.149
L271.987 156.08
L272.285 214.717
L272.434 248.163
L272.582 279.863
L272.88 249.661
L272.954 246.205
L273.178 188.528
L273.475 102.723
L273.773 190.602
L273.847 186.435
L274.07 138.954
L274.145 148.227
L274.442 216.291
L274.517 213.219
L274.814 176.163
L274.889 182.903
L275.186 255.075
L275.484 205.328
L275.707 123.747
L276.005 256.976
L276.228 168.119
L276.674 295.069
L276.749 290.845
L276.898 236.125
L277.046 151.184
L277.121 152.221
L277.27 179.466
L277.344 176.778
L277.642 94.9667
L277.865 182.384
L278.088 248.067
L278.162 241.309
L278.386 160.477
L278.46 158.384
L278.683 184.535
L278.906 164.106
L279.055 180.714
L279.353 228.119
L279.502 278.595
L279.576 271.664
L279.799 189.584
L279.948 209.994
L280.022 207.575
L280.097 209.341
L280.32 193.213
L280.543 231.651
L280.692 259.645
L280.766 262.199
L280.841 252.464
L281.213 109.616
L281.287 115.453
L281.51 130.083
L281.882 238.487
L281.957 227.696
L282.18 188.451
L282.329 201.315
L282.478 182.883
L282.552 184.016
L282.775 223.664
L282.998 202.064
L283.147 178.525
L283.222 183.287
L283.37 205.847
L283.519 187.779
L283.594 193.347
L283.668 197.149
L283.966 153.45
L284.04 160.842
L284.114 167.658
L284.189 186.205
L284.338 259.587
L284.412 256.957
L284.486 264.599
L284.561 252.061
L284.784 193.405
L284.858 197.418
L285.23 259.357
L285.379 220.957
L285.602 174.858
L285.826 201.795
L285.974 182.135
L286.272 78.4355
L286.718 213.008
L286.793 203.581
L287.016 149.207
L287.09 154.275
L287.537 265.808
L287.611 268.592
L287.909 237.315
L288.206 184.17
L288.281 187.933
L288.504 206.096
L288.578 207.709
L288.653 207.536
L288.727 202.506
L288.802 204.234
L288.95 218.999
L289.099 206.173
L289.174 222.512
L289.248 211.395
L289.62 88.6499
L289.694 99.6515
L290.066 252.733
L290.215 208.899
L290.438 143.946
L290.513 150.263
L290.81 252.503
L291.182 195.018
L291.257 201.181
L291.48 264.311
L291.554 255.133
L291.852 165.027
L292.001 176.029
L292.15 196.17
L292.224 194.922
L292.373 178.083
L292.596 137.821
L292.67 142.064
L292.894 281.322
L292.968 278.845
L293.117 232.247
L293.34 166.967
L293.489 166.659
L293.563 170.749
L293.712 184.093
L293.935 149.034
L294.307 252.522
L294.382 241.616
L294.679 137.207
L294.828 125.437
L294.977 195.402
L295.126 273.066
L295.2 263.274
L295.498 175.664
L295.572 184.477
L295.795 259.146
L295.87 248.586
L296.093 177.123
L296.167 177.584
L296.316 206.461
L296.465 224.643
L296.688 161.783
L296.762 165.891
L296.837 174.685
L296.986 167.235
L297.134 192.579
L297.358 243.786
L297.432 240.003
L297.655 202.544
L297.73 202.736
L297.804 208.189
L297.878 201.488
L298.176 139.069
L298.25 142.755
L298.548 211.203
L298.622 219.344
L298.846 161.591
L298.92 144.887
L298.994 149.821
L299.069 146.941
L299.143 130.621
L299.218 137.802
L299.515 249.872
L299.59 249.335
L299.738 241.501
L299.813 249.738
L300.036 305.667
L300.185 265.578
L300.557 132.56
L300.631 129.315
L301.003 151.837
L301.226 198.416
L301.301 198.512
L301.375 189.162
L301.45 193.635
L301.747 243.555
L301.896 219.901
L302.045 199.146
L302.119 199.28
L302.417 181.731
L302.491 183.191
L302.566 178.602
L302.64 183.92
L302.863 240.771
L302.938 240.503
L303.161 187.299
L303.31 190.621
L303.533 150.474
L303.682 98.4227
L303.756 112.093
L304.128 256.035
L304.351 281.36
L304.946 164.01
L305.095 150.8
L305.17 154.736
L305.393 212.624
L305.542 238.314
L305.988 176.259
L306.583 218.288
L306.732 205.021
L306.881 180.637
L307.03 205.712
L307.178 220.899
L307.476 124.746
L307.55 124.995
L307.848 219.306
L307.922 212.893
L308.071 196.746
L308.146 197.533
L308.369 216.618
L308.443 215.159
L308.518 219.786
L308.666 238.563
L308.741 234.839
L308.964 194.25
L309.038 195.171
L309.187 219.383
L309.336 239.351
L309.41 223.952
L309.634 129.93
L309.708 126.819
L310.08 191.658
L310.154 187.223
L310.378 170.269
L310.675 216.061
L310.75 212.989
L310.824 214.736
L310.898 207.171
L311.122 266.269
L311.196 253.674
L311.419 166.832
L311.642 212.586
L311.717 211.549
L311.866 176.01
L311.94 159.267
L312.014 160.88
L312.089 166.179
L312.312 222.762
L312.386 222.685
L312.535 199.837
L312.61 205.52
L312.684 204.675
L312.833 192.695
L312.907 183.517
L312.982 187.645
L313.13 220.957
L313.205 220.247
L313.279 215.696
L313.726 116.298
L314.172 228.503
L314.246 227.523
L314.395 202.967
L314.47 177.93
L314.544 178.717
L314.693 220.477
L314.767 212.778
L314.842 216.944
L315.065 261.104
L315.809 138.512
L315.883 140.835
L316.032 159.824
L316.404 210.935
L316.478 203.888
L316.553 205.674
L316.702 232.016
L316.776 229.463
L316.925 209.533
L317.074 218.883
L317.297 195.536
L317.371 199.165
L317.446 199.818
L317.52 196.765
L317.669 185.84
L317.743 191.197
L317.892 180.483
L317.966 189.431
L318.19 268.323
L318.636 178.909
L318.859 125.283
L318.934 125.015
L319.008 125.533
L319.082 128.202
L319.454 193.635
L319.529 183.632
L319.678 151.28
L320.198 260.72
L320.273 262.736
L320.347 261.277
L320.496 270.762
L320.868 172.938
L320.942 173.322
L321.017 172.343
L321.166 146.96
L321.389 180.387
L321.612 219.728
L321.835 187.415
L321.984 232.611
L322.579 158
L322.728 173.667
L322.802 172.995
L322.877 174.378
L323.1 194.115
L323.174 178.602
L323.249 183.479
L323.398 208.573
L323.472 201.296
L323.546 180.906
L323.621 182.039
L324.067 245.744
L324.142 244.746
L324.216 247.53
L324.365 264.618
L324.886 143.869
L324.96 139.184
L325.258 153.027
L325.704 223.319
L325.778 215.351
L325.853 212.682
L326.15 247.223
L326.299 227.389
L326.374 229.117
L326.522 252.33
L326.597 245.84
L326.894 136.746
L326.969 147.479
L327.043 163.645
L327.118 163.223
L327.266 139.107
L327.341 139.568
L327.49 181.751
L327.564 194.346
L327.638 190.698
L327.713 192.675
L327.862 206.979
L328.01 199.261
L328.159 210.09
L328.457 230.595
L328.68 209.706
L328.978 190.775
L329.201 202.487
L329.275 200.567
L329.35 200.106
L329.498 195.133
L329.573 187.799
L329.647 190.679
L329.796 233.84
L329.87 230.135
L330.094 190.103
L330.168 187.645
L330.391 168.349
L330.466 167.869
L330.614 179.523
L330.838 212.163
L330.912 211.818
L331.135 173.207
L331.433 188.759
L331.582 203.984
L331.656 203.082
L331.879 182.173
L331.954 186.704
L332.251 228.176
L332.549 183.632
L332.623 189.392
L332.995 226.986
L333.293 189.815
L333.59 210.57
L333.665 204.906
L333.739 205.789
L333.888 225.239
L334.037 198.301
L334.334 161.763
L334.409 155.85
L334.558 166.717
L334.706 146.039
L334.781 151.376
L335.078 215.159
L335.153 208.976
L335.302 188.797
L335.45 210.877
L335.599 195.536
L335.674 202.199
L335.822 231.632
L335.897 230.615
L336.12 186.8
L336.269 167.946
L336.641 254.173
L336.715 252.752
L336.938 204.387
L337.31 228.867
L337.385 226.371
L337.608 190.506
L337.831 155.043
L337.906 150.627
L337.98 154.986
L338.203 187.415
L338.575 150.071
L338.724 178.832
L338.798 178.333
L338.873 178.371
L339.17 222.627
L339.245 216.56
L339.319 219.018
L339.468 228.733
L339.989 192.752
L340.063 195.018
L340.286 217.098
L340.361 214.583
L340.51 199.895
L340.658 208.362
L340.882 236.163
L341.03 198.666
L341.179 166.218
L341.328 198.205
L341.402 214.794
L341.477 203.946
L341.626 158.25
L341.7 159.037
L341.774 157.04
L341.923 141.719
L342.072 156.675
L342.146 151.568
L342.221 152.586
L342.518 230.519
L342.593 237.219
L342.667 235.395
L342.816 226.064
L343.039 249.008
L343.114 247.223
L343.188 238.909
L343.411 188.087
L343.486 189.239
L343.783 163.952
L343.932 193.789
L344.006 190.832
L344.304 141.546
L344.453 169.04
L344.825 225.488
L345.048 242.442
L345.271 265.194
L345.718 170.077
L345.792 163.991
L345.941 174.224
L346.313 132.023
L346.387 134.941
L346.61 167.888
L346.685 165.584
L346.759 167.888
L347.206 267.594
L347.28 264.791
L347.801 199.741
L347.875 200.759
L348.024 218.691
L348.098 214.122
L348.247 219.824
L348.396 209.379
L348.47 213.68
L348.545 211.741
L348.842 177.815
L348.917 184.688
L349.066 219.037
L349.214 189.987
L349.735 95.3123
L350.405 212.759
L350.554 203.581
L350.702 226.314
L350.926 265.885
L351.074 248.067
L351.298 217.29
L351.372 217.866
L351.446 216.963
L351.595 206.903
L351.67 210.435
L351.893 232.957
L352.19 195.21
L352.339 154.832
L352.488 173.015
L352.637 210.762
L352.711 208.803
L353.009 159.018
L353.306 118.007
L353.381 132.656
L353.604 219.69
L353.678 218.154
L353.827 213.2
L353.976 210.531
L354.199 199.741
L354.348 184.419
L354.571 216.579
L354.646 208.631
L354.72 194.039
L355.092 232.439
L355.315 216.81
L355.538 172.669
L355.985 207.805
L356.059 206.135
L356.208 203.427
L356.282 206.25
L356.431 221.591
L356.58 199.146
L356.654 204.291
L356.729 208.803
L356.878 186.224
L357.026 210.973
L357.324 159.171
L357.473 114.128
L357.547 114.282
L357.77 139.127
L358.142 256.458
L358.217 250.813
L358.514 200.298
L358.738 185.283
L358.812 186.781
L359.11 217.866
L359.184 215.139
L359.333 201.411
L359.407 201.815
L359.556 215.715
L359.63 212.029
L359.705 201.968
L359.779 206.634
L360.002 247.568
L360.3 221.763
L360.598 164.355
L360.672 163.933
L360.821 127.472
L361.118 145.347
L361.193 146.327
L361.342 184.707
L361.639 241.271
L361.862 190.967
L361.937 193.29
L362.16 207.824
L362.383 174.224
L362.458 178.813
L362.681 210.743
L362.904 183.92
L363.053 204.234
L363.127 203.811
L363.276 207.536
L363.574 229.923
L363.797 193.559
L363.946 170.711
L364.094 204.464
L364.318 248.989
L364.541 187.415
L364.69 198.013
L364.913 180.637
L365.062 158.25
L365.136 162.704
L365.434 206.711
L365.657 194.115
L365.806 201.258
L365.954 193.847
L366.029 195.901
L366.103 194.615
L366.178 190.909
L366.326 169.616
L366.401 171.632
L366.55 158.864
L366.624 160.919
L366.698 165.162
L366.773 164.701
L366.847 164.509
L367.07 184.803
L367.368 250.487
L367.442 249.987
L367.666 222.704
L367.889 262.256
L367.963 263.715
L368.038 252.963
L368.261 195.767
L368.484 154.218
L368.558 152.202
L368.856 163.645
L369.005 153.431
L369.079 158.864
L369.451 198.263
L369.6 207.21
L369.674 206.672
L369.823 199.664
L370.195 215.043
L370.344 251.063
L370.418 247.722
L370.865 182.941
L371.014 156.656
L371.088 159.402
L371.386 189.239
L371.683 255.786
L371.832 201.047
L371.981 172.17
L372.055 174.858
L372.204 150.819
L372.353 165.949
L372.502 140.24
L372.948 221.552
L373.097 234.685
L373.171 234.051
L373.32 243.114
L373.469 213.546
L373.692 181.674
L373.766 181.981
L373.841 186.282
L374.064 224.682
L374.138 222.723
L374.362 202.199
L374.51 171.824
L374.585 172.938
L374.882 137.187
L374.957 143.965
L375.254 246.551
L375.329 233.706
L375.552 196.515
L375.701 232.746
L375.85 259.76
L376.222 129.565
L376.296 138.013
L376.594 223.184
L376.817 207.939
L376.891 207.363
L376.966 205.616
L377.04 210.359
L377.114 208.285
L377.338 163.741
L377.412 164.413
L377.71 227.85
L377.784 217.405
L377.933 176.739
L378.007 179.466
L378.305 245.245
L378.379 233.898
L378.677 129.066
L378.826 183.21
L379.049 236.624
L379.198 217.424
L379.421 234.589
L379.495 228.176
L379.942 124.055
L380.09 171.632
L380.239 213.623
L380.388 194.077
L380.462 199.991
L380.76 267.575
L380.909 219.997
L381.206 109.789
L381.43 196.304
L381.578 178.199
L381.653 183.44
L381.876 261.776
L381.95 258.858
L382.099 225.45
L382.248 190.813
L382.322 192.368
L382.62 220.227
L382.992 145.021
L383.215 190.871
L383.513 146.231
L383.587 150.839
L383.736 214.275
L383.81 248.528
L383.885 233.379
L383.959 211.242
L384.034 211.357
L384.331 279.882
L384.406 265.309
L384.629 129.258
L384.703 131.447
L384.852 154.103
L384.926 155.255
L385.075 196.477
L385.224 154.583
L385.298 156.733
L385.596 229.789
L385.67 223.28
L385.894 148.535
L385.968 157.693
L386.191 252.042
L386.414 226.41
L386.638 257.552
L386.712 262.89
L386.786 253.923
L387.084 155.312
L387.158 157.712
L387.233 154.103
L387.307 162.762
L387.456 193.405
L387.605 156.791
L387.977 233.591
L388.349 158.423
L388.498 205.021
L388.572 203.523
L388.721 148.784
L388.795 158
L388.944 193.847
L389.018 189.277
L389.167 214.928
L389.316 193.847
L389.614 232.861
L389.837 194.403
L389.986 176.816
L390.358 217.751
L390.432 210.435
L390.581 167.139
L390.804 192.483
L390.953 229.655
L391.102 217.693
L391.399 256.631
L391.474 248.682
L391.697 120.291
L391.771 123.287
L392.069 181.117
L392.143 185.725
L392.366 154.41
L392.59 222.186
L392.738 263.274
L393.11 218.768
L393.259 235.299
L393.557 57.8723
L393.631 81.1043
L393.854 224.375
L393.929 219.69
L394.078 174.09
L394.375 268.976
L394.673 234.647
L394.822 216.426
L394.896 231.594
L395.268 163.933
L395.342 166.179
L395.491 195.517
L395.64 231.018
L395.789 172.151
L395.938 131.869
L396.235 246.685
L396.31 228.695
L396.458 150.647
L396.533 159.747
L396.607 183.383
L396.682 181.002
L396.979 160.611
L397.202 226.487
L397.351 252.637
L397.5 209.763
L397.649 146.73
L397.946 247.165
L398.021 233.744
L398.318 149.917
L398.467 169.251
L398.542 168.157
L398.616 172.323
L398.765 164.682
L398.914 223.511
L399.062 286.429
L399.137 277.29
L399.434 191.946
L399.509 194.979
L399.732 210.858
L399.806 202.909
L399.955 158.807
L400.03 160.131
L400.178 196.458
L400.402 151.088
L400.774 249.891
L400.848 249.162
L401.146 79.0883
L401.369 177.335
L401.443 158.672
L401.592 130.659
L401.666 143.024
L401.815 241.424
L401.964 333.008
L402.038 321.776
L402.262 239.351
L402.336 239.159
L402.485 256.458
L402.782 134.634
L403.229 258.858
L403.526 96.3107
L403.601 103.223
L403.75 140.97
L403.824 136.554
L403.898 138.915
L404.047 192.791
L404.27 244.266
L404.568 142.237
L404.642 160.707
L404.866 253.213
L404.94 240.387
L405.089 174.09
L405.238 221.303
L405.312 244.611
L405.386 243.325
L405.535 220.861
L405.684 176.97
L405.758 197.591
L405.982 326.903
L406.056 308.759
L406.279 170.173
L406.354 179.101
L406.428 193.789
L406.502 190.698
L406.874 100.17
L407.172 156.791
L407.246 160.611
L407.395 141.603
L407.47 144.368
L407.618 160.861
L407.693 160.592
L408.139 239.831
L408.288 250.295
L408.362 244.707
L408.586 196.746
L408.883 274.352
L408.958 266.307
L409.181 180.061
L409.33 220.535
L409.627 191.946
L409.702 176.912
L409.776 178.487
L409.925 250.16
L409.999 249.047
L410.297 156.311
L410.446 176.259
L410.52 174.819
L410.818 138.205
L410.892 142.64
L411.115 176.931
L411.264 172.093
L411.338 172.746
L411.413 164.067
L411.859 235.491
L411.934 230.307
L412.008 225.795
L412.231 265.232
L412.603 141.642
L412.678 147.517
L412.975 190.621
L413.05 191.216
L413.124 188.087
L413.347 269.226
L413.422 258.224
L413.645 223.683
L413.719 221.418
L413.794 229.232
L414.017 281.859
L414.24 207.901
L414.463 163.722
L414.761 112.784
L414.91 95.5043
L415.43 147.133
L415.877 279.459
L416.174 235.338
L416.323 225.987
L416.398 229.424
L416.621 205.367
L416.77 219.767
L416.918 229.943
L416.993 226.083
L417.216 171.287
L417.365 198.627
L417.514 148.266
L417.588 150.935
L417.662 158.922
L417.811 145.808
L418.183 217.021
L418.406 181.77
L418.555 204.81
L418.853 158.691
L418.927 164.298
L419.15 288.733
L419.225 276.387
L419.522 165.162
L419.746 219.229
L419.894 197.034
L420.118 107.504
L420.266 183.747
L420.415 233.091
L420.49 230.077
L420.713 161.283
L421.01 216.829
L421.085 217.002
L421.234 204.407
L421.382 296.336
L421.531 355.165
L421.754 143.024
L421.903 82.4099
L422.201 197.648
L422.424 143.907
L422.498 152.106
L422.647 183.133
L422.945 141.296
L423.094 182.173
L423.391 260.97
L423.689 192.867
L423.912 237.872
L424.061 211.395
L424.21 191.984
L424.433 230.077
L424.507 229.904
L424.805 187.914
L424.879 192.099
L425.028 215.965
L425.102 212.413
L425.4 132.503
L425.698 170.922
L425.772 168.867
L425.846 167.504
L425.995 178.16
L426.07 169.482
L426.144 176.471
L426.367 217.079
L426.442 216.234
L426.739 169.866
L426.814 167.888
L427.037 225.834
L427.26 279.843
L427.483 261.699
L427.706 177.085
L427.93 134.634
L428.004 130.851
L428.376 255.479
L428.822 149.687
L428.971 187.971
L429.046 186.263
L429.194 163.184
L429.566 204.752
L429.715 193.251
L429.864 196.227
L429.938 195.191
L430.087 181.079
L430.236 150.723
L430.385 126.071
L430.831 247.568
L430.906 249.853
L431.054 236.471
L431.129 241.117
L431.203 240.119
L431.501 211.242
L431.575 212.375
L431.65 223.434
L431.724 220.669
L431.873 199.242
L431.947 203.562
L432.17 185.591
L432.394 211.107
L432.617 174.205
L432.766 126.474
L432.84 133.309
L433.063 192.675
L433.138 192.138
L433.212 190.41
L433.361 200.912
L433.435 195.095
L433.658 210.531
L433.882 154.794
L433.956 159.536
L434.105 169.827
L434.254 154.16
L434.7 234.8
L434.774 239.082
L434.849 236.797
L435.072 218.538
L435.221 248.048
L435.295 237.315
L435.444 190.41
L435.742 215.543
L435.816 226.007
L435.89 220.861
L436.114 181.962
L436.188 187.395
L436.337 196.995
L436.56 140.279
L436.634 141.565
L436.709 140.682
L436.858 176.874
L437.006 216.656
L437.155 220.208
L437.378 254.672
L437.453 244.419
L437.676 190.103
L437.899 156.176
L438.346 218.807
L438.42 218.634
L438.792 123.344
L438.866 132.195
L439.238 280.919
L439.313 273.911
L439.61 217.885
L439.759 198.531
L439.834 198.378
L440.057 156.368
L440.28 176.451
L440.429 193.136
L440.652 150.589
L440.726 154.16
L440.875 173.379
L441.024 208.995
L441.173 193.827
L441.322 213.027
L441.545 283.952
L441.619 283.395
L441.991 185.187
L442.14 179.408
L442.363 115.607
L442.438 122.154
L442.81 231.21
L443.033 192.887
L443.182 232.899
L443.33 260.739
L443.479 223.799
L443.702 166.448
L443.777 165.719
L443.851 168.656
L444.074 153.411
L444.149 157.117
L444.446 208.285
L444.521 205.866
L444.744 189.104
L444.893 190.775
L445.116 243.421
L445.19 239.178
L445.414 188.259
L445.488 196.035
L445.711 249.488
L445.86 227.159
L446.083 184.4
L446.158 186.013
L446.232 179.12
L446.455 126.781
L447.05 238.333
L447.199 212.125
L447.422 171.939
L447.646 192.599
L447.794 196.381
L448.092 220.055
L448.166 217.635
L448.39 189.239
L448.613 192.272
L448.762 220.131
L448.91 246.512
L449.134 218.768
L449.431 162.071
L449.654 128.413
L449.729 124.343
L449.878 129.45
L449.878 129.45" style="fill:none;stroke:#808080;stroke-linecap:square;"/>
   </g>
  </g>
 </g>
 <defs>
  <clipPath id="p7ff5b81e1d">
   <rect height="345.6" width="446.4" x="72.0" y="43.2"/>
  </clipPath>
 </defs>
</svg>
