<?xml version="1.0" encoding="utf-8" standalone="no"?>
<!DOCTYPE svg PUBLIC "-//W3C//DTD SVG 1.1//EN"
  "http://www.w3.org/Graphics/SVG/1.1/DTD/svg11.dtd">
<!-- Created with matplotlib (http://matplotlib.org/) -->
<svg height="432pt" version="1.1" viewBox="0 0 576 432" width="576pt" xmlns="http://www.w3.org/2000/svg" xmlns:xlink="http://www.w3.org/1999/xlink">
 <defs>
  <style type="text/css">
*{stroke-linecap:butt;stroke-linejoin:round;}
  </style>
 </defs>
 <g id="figure_1">
  <g id="patch_1">
   <path d="
M0 432
L576 432
L576 0
L0 0
z
" style="fill:#ffffff;"/>
  </g>
  <g id="axes_1">
   <g id="line2d_1">
    <path clip-path="url(#p7ff5b81e1d)" d="
M72 247.959
L72.0744 252.022
L72.1488 245.832
L72.372 213.168
L72.5208 205.734
L72.5952 209.858
L72.8928 266.245
L72.9672 265.346
L73.116 255.739
L73.488 225.464
L73.5624 224.443
L73.6368 226.109
L73.86 246.162
L74.3064 210.104
L74.3808 214.182
L74.7528 265.485
L74.8272 265.462
L75.2736 202.793
L75.4224 231.301
L75.5712 252.582
L76.0176 212.731
L76.3896 270.116
L76.464 268.28
L76.6128 243.635
L76.7616 214.689
L76.836 214.551
L76.9848 207.193
L77.2824 269.463
L77.3568 265.554
L77.7288 197.647
L77.8032 209.121
L78.1008 246.054
L78.1752 252.982
L78.2496 251.215
L78.3984 218.806
L78.4728 219.904
L78.696 236.4
L78.9192 266.452
L78.9936 263.933
L79.2168 225.111
L79.3656 190.19
L79.44 192.025
L79.7376 244.111
L79.812 247.944
L79.9608 264.24
L80.4072 220.265
L80.4816 220.58
L80.7048 233.62
L80.7792 234.212
L80.928 243.666
L81.0024 237.153
L81.1512 208.499
L81.2256 215.28
L81.4488 253.035
L81.5976 258.964
L81.672 263.219
L81.8952 221.424
L81.9696 222.815
L82.1184 216.793
L82.1928 217.431
L82.4904 246.285
L82.5648 246.676
L82.6392 248.251
L82.7136 247.429
L82.9368 209.405
L83.0112 212.416
L83.3832 264.018
L83.4576 261.967
L83.8296 222.047
L83.9784 230.948
L84.2016 249.856
L84.4248 245.808
L84.4992 242.199
L84.7224 205.373
L85.2432 251.63
L85.3176 247.836
L85.6152 207.585
L85.6896 209.989
L85.9872 252.198
L86.136 259.448
L86.2104 256.192
L86.508 208.399
L86.5824 213.245
L86.7312 231.24
L87.0288 275.63
L87.1032 274.478
L87.4008 224.873
L87.5496 220.895
L87.6984 233.444
L87.7728 240.479
L87.8472 239.818
L87.996 227.615
L88.2192 192.955
L88.2936 196.802
L88.6656 261.345
L88.8144 269.67
L88.9632 255.662
L89.2608 219.812
L89.3352 218.498
L89.7816 239.088
L89.856 235.863
L90.0792 208.015
L90.228 221.87
L90.5256 262.42
L90.6 265.392
L90.6744 261.391
L91.0464 222.07
L91.1208 223.659
L91.5672 257.912
L91.6416 254.702
L92.0136 205.373
L92.088 206.303
L92.46 248.934
L92.5344 244.165
L92.832 221.263
L92.9808 224.343
L93.1296 233.075
L93.4272 266.03
L93.576 239.688
L93.7992 200.527
L93.948 215.05
L94.2456 280.092
L94.3944 264.386
L94.6176 232.061
L94.692 230.579
L94.9152 215.672
L95.064 226.739
L95.2872 240.194
L95.5104 217.561
L95.6592 207.378
L95.808 224.082
L96.1056 269.017
L96.18 265.945
L96.4776 211.049
L96.552 212.531
L96.7752 225.825
L97.1472 272.043
L97.2216 266.099
L97.5936 207.447
L97.9656 253.657
L98.04 249.349
L98.3376 212.377
L98.5608 236.424
L98.784 252.045
L98.8584 252.336
L99.0072 248.911
L99.3792 209.651
L99.4536 215.373
L99.8256 260.247
L99.9744 244.726
L100.198 218.422
L100.272 220.226
L100.644 239.787
L100.793 239.319
L100.867 238.466
L101.016 228.982
L101.239 211.955
L101.314 216.44
L101.686 269.724
L102.058 228.367
L102.132 232.438
L102.281 236.639
L102.504 231.677
L102.578 232.783
L102.727 236.723
L102.876 229.872
L103.174 212.715
L103.322 228.582
L103.546 258.096
L103.62 256.161
L103.992 214.605
L104.215 229.995
L104.662 257.113
L104.736 255.501
L105.182 223.191
L105.331 235.656
L105.554 250.04
L105.852 231.439
L105.926 231.831
L106.075 236.447
L106.15 235.855
L106.373 231.362
L106.522 234.25
L106.596 234.542
L106.67 232.223
L106.968 209.966
L107.191 237.015
L107.414 259.832
L107.489 258.603
L107.786 234.918
L108.084 218.698
L108.158 218.36
L108.307 228.329
L108.605 247.99
L108.902 226.847
L108.977 228.152
L109.126 239.334
L109.349 255.094
L109.423 253.366
L109.721 226.332
L110.018 236.201
L110.093 235.832
L110.316 239.35
L110.539 234.742
L110.837 207.278
L110.911 208.768
L111.358 255.662
L111.432 254.095
L112.027 222.899
L112.176 229.296
L112.474 242.376
L112.771 222.446
L112.846 225.449
L113.218 259.84
L113.292 256.53
L113.664 225.925
L113.738 224.758
L113.813 225.195
L113.962 228.897
L114.259 246.96
L114.334 246.83
L114.408 246.469
L114.557 233.244
L114.78 205.312
L114.854 208.568
L115.226 255.631
L115.301 251.661
L115.598 225.019
L115.673 225.833
L115.822 232.776
L116.119 245.755
L116.194 247.045
L116.342 241.823
L116.64 219.082
L116.714 221.186
L117.161 248.604
L117.235 251.899
L117.31 251.407
L117.533 231.455
L117.682 220.142
L117.756 221.163
L118.202 244.288
L118.574 221.808
L118.649 223.629
L119.021 261.56
L119.17 252.298
L119.542 214.797
L119.616 215.088
L119.69 215.142
L119.765 214.943
L119.839 215.088
L119.988 224.52
L120.286 253.112
L120.434 235.909
L120.583 219.351
L120.658 219.95
L120.881 240.317
L121.104 256.161
L121.253 243.282
L121.476 224.059
L121.55 225.395
L121.997 253.634
L122.071 252.398
L122.146 252.129
L122.294 243.435
L122.592 208.054
L122.666 210.642
L122.89 237.522
L123.113 259.924
L123.336 233.375
L123.559 210.511
L123.634 212.861
L124.006 243.958
L124.08 242.975
L124.526 223.137
L124.601 224.328
L124.675 227.668
L124.973 252.083
L125.419 231.209
L125.568 230.08
L125.642 230.617
L125.717 233.06
L126.014 262.205
L126.089 261.744
L126.238 244.08
L126.461 210.788
L126.535 211.003
L126.758 234.335
L126.907 242.084
L127.205 228.482
L127.279 230.272
L127.428 232
L127.502 231.885
L127.651 228.69
L127.726 226.539
L127.874 235.287
L128.023 243.604
L128.172 240.863
L128.321 231.923
L128.47 222.169
L128.544 223.882
L128.916 267.466
L128.99 267.274
L129.214 241.93
L129.437 219.873
L129.511 219.074
L129.958 230.733
L130.032 230.049
L130.478 217.5
L130.553 217.73
L130.627 220.349
L130.999 262.205
L131.148 257.805
L131.52 234.98
L131.594 235.471
L131.892 245.271
L132.115 235.855
L132.413 214.543
L132.487 213.929
L132.934 236.969
L133.008 236.761
L133.231 226.217
L133.38 229.45
L133.529 226.271
L133.678 230.786
L134.05 267.466
L134.124 262.52
L134.496 231.462
L134.719 242.46
L134.794 242.16
L135.091 230.541
L135.166 230.617
L135.24 231.831
L135.314 231.324
L135.612 216.217
L135.686 218.383
L135.835 237.744
L136.058 259.855
L136.133 258.227
L136.356 228.92
L136.579 205.68
L136.654 205.611
L136.802 216.878
L137.026 238.198
L137.1 238.574
L137.174 238.19
L137.249 238.351
L137.323 239.058
L137.621 249.088
L137.695 249.019
L138.216 234.826
L138.514 217.331
L138.588 219.973
L139.034 263.741
L139.109 258.465
L139.555 214.274
L139.63 214.597
L140.15 242.076
L140.225 241.961
L140.374 234.888
L140.522 230.402
L140.597 230.134
L140.746 220.526
L140.82 221.808
L141.043 233.375
L141.192 239.787
L141.266 238.912
L141.49 220.626
L141.713 245.417
L142.01 267.62
L142.085 264.863
L142.531 214.735
L142.606 210.719
L142.68 211.256
L142.829 221.071
L143.201 253.481
L143.275 252.651
L143.796 223.498
L143.945 238.774
L144.019 238.72
L144.168 230.579
L144.242 230.832
L144.317 231.155
L144.466 225.211
L144.689 234.811
L144.838 242.468
L144.986 259.348
L145.061 258.319
L145.358 229.688
L145.507 224.965
L145.582 221.67
L145.656 223.014
L146.177 247.037
L146.474 237.069
L146.698 219.428
L146.921 234.642
L146.995 234.557
L147.07 235.417
L147.218 238.167
L147.442 231.639
L147.516 231.984
L147.739 222.031
L147.962 235.725
L148.037 236.493
L148.26 252.482
L148.706 218.076
L148.781 218.998
L149.078 252.544
L149.302 261.545
L149.525 234.496
L149.599 237.038
L149.674 235.556
L149.822 219.374
L149.897 219.389
L150.343 242.706
L150.418 240.886
L150.864 210.166
L151.162 258.173
L151.236 256.253
L151.385 249.948
L151.682 229.197
L151.906 222.968
L151.98 224.957
L152.129 231.216
L152.203 230.564
L152.352 239.534
L152.426 244.787
L152.501 242.944
L152.724 224.097
L152.873 216.87
L152.947 220.011
L153.245 259.563
L153.319 258.949
L153.394 260.301
L153.468 256.453
L153.691 231.516
L153.766 231.862
L153.84 232.891
L154.063 228.82
L154.212 230.648
L154.435 235.44
L154.584 231.393
L154.807 221.517
L154.956 213.23
L155.03 214.62
L155.328 239.511
L155.402 241.047
L155.551 248.036
L155.849 238.674
L155.923 235.625
L155.998 236.546
L156.221 258.081
L156.37 249.172
L156.444 251.277
L156.518 249.241
L156.742 232.176
L157.262 220.956
L157.337 222.515
L157.486 235.202
L157.56 234.219
L158.081 208.607
L158.527 253.281
L158.676 247.49
L158.825 256.799
L158.899 255.508
L159.122 225.625
L159.197 226.056
L159.271 225.679
L159.346 228.221
L159.718 253.427
L159.792 252.175
L160.015 233.444
L160.09 234.043
L160.238 236.162
L160.387 231.24
L160.536 237.652
L160.61 236.523
L160.834 222.4
L160.908 223.275
L160.982 221.816
L161.131 214.098
L161.28 219.151
L161.429 232.046
L161.578 251.707
L161.726 249.165
L161.875 258.373
L161.95 255.831
L162.247 227.661
L162.396 227.261
L162.842 244.28
L162.917 241.884
L163.14 232.722
L163.289 230.963
L163.363 231.547
L163.438 231.478
L163.586 226.562
L163.661 227.691
L163.735 228.552
L163.958 224.857
L164.256 241.316
L164.405 236.331
L164.702 255.286
L165 244.165
L165.298 222.223
L165.372 222.953
L165.595 229.788
L165.744 224.22
L166.116 232.645
L166.265 229.535
L166.488 233.528
L166.562 232.929
L166.637 234.864
L166.86 250.224
L166.934 249.656
L167.232 239.764
L167.53 236.677
L167.604 236.232
L167.753 230.303
L168.125 245.701
L168.199 244.518
L168.348 240.217
L168.497 229.849
L168.72 213.783
L168.794 215.065
L169.166 235.54
L169.241 234.189
L169.39 239.38
L169.464 242.529
L169.613 237.414
L169.762 233.336
L169.91 236.723
L169.985 236.147
L170.059 234.404
L170.282 250.562
L170.357 249.387
L170.654 238.466
L170.729 239.757
L170.803 240.325
L171.398 215.38
L171.473 216.947
L171.77 233.006
L171.845 233.851
L171.994 241.869
L172.142 251.407
L172.366 243.65
L172.44 245.071
L172.514 245.471
L172.961 229.696
L173.035 229.588
L173.258 232.637
L173.556 238.036
L173.705 236.308
L174.002 226.916
L174.077 227.799
L174.374 236.562
L174.449 235.433
L174.523 232.56
L174.598 233.728
L174.821 247.498
L174.895 246.07
L175.044 240.778
L175.118 240.256
L175.267 242.122
L175.49 235.356
L175.714 227.584
L176.16 235.379
L176.234 235.402
L176.458 223.567
L176.532 224.228
L176.904 239.373
L176.978 239.012
L177.053 239.257
L177.276 231.37
L177.35 233.428
L177.574 250.977
L177.648 250.409
L177.722 248.873
L177.946 234.135
L178.094 237.099
L178.466 230.264
L178.69 227.023
L178.764 228.214
L178.987 239.749
L179.285 234.304
L179.359 234.995
L179.434 235.456
L179.582 233.851
L179.806 240.425
L179.88 239.042
L180.252 228.152
L180.475 239.35
L180.773 232.407
L180.847 231.57
L180.922 232.445
L181.07 238.582
L181.294 234.043
L181.442 237.552
L181.591 236.984
L181.666 235.917
L181.74 236.477
L181.889 239.127
L181.963 238.774
L182.112 235.095
L182.335 245.601
L182.41 244.779
L182.633 233.282
L182.93 212.546
L183.005 211.878
L183.228 223.49
L183.823 270.538
L183.972 262.036
L184.493 225.364
L184.716 215.511
L185.088 205.504
L185.237 210.534
L186.055 261.437
L186.204 267.474
L186.427 264.056
L186.502 262.405
L187.246 214.973
L187.394 214.029
L187.543 209.912
L187.618 210.319
L187.692 210.25
L187.841 202.317
L187.915 203.937
L188.659 282.88
L188.808 272.043
L189.626 191.142
L189.701 192.793
L189.998 213.545
L190.073 213.537
L190.147 215.142
L190.37 232.322
L190.594 246.246
L190.742 253.596
L190.817 253.581
L190.891 252.413
L190.966 252.644
L191.114 255.593
L191.189 255.247
L191.263 254.502
L191.784 266.836
L191.858 270.085
L191.933 269.048
L192.379 238.528
L192.751 167.15
L192.974 156.367
L193.049 159.247
L193.272 197.01
L193.718 268.795
L193.867 273.08
L193.942 273.51
L194.016 273.072
L194.165 268.833
L194.611 245.686
L194.686 245.962
L194.834 240.916
L194.983 235.617
L195.058 235.617
L195.206 236.416
L195.355 235.302
L195.578 228.528
L195.653 228.72
L195.727 228.713
L195.95 218.736
L196.174 225.833
L196.397 219.167
L197.141 252.413
L197.215 251.768
L197.438 251.184
L197.662 255.117
L197.81 245.962
L198.034 227.899
L198.108 228.613
L198.182 228.275
L198.48 219.666
L198.703 222.093
L198.926 234.903
L199.001 239.204
L199.075 238.758
L199.298 229.435
L199.522 232.13
L199.745 219.282
L199.819 219.458
L200.34 247.698
L200.563 261.798
L200.786 252.152
L200.861 252.667
L201.01 255.163
L201.233 251.584
L201.456 228.682
L201.679 211.625
L201.977 209.098
L202.051 211.732
L202.349 238.351
L202.646 227.008
L202.87 230.479
L202.944 229.773
L203.093 233.943
L203.316 242.084
L203.39 241.17
L203.539 245.855
L203.762 252.267
L203.986 249.648
L204.134 253.12
L204.209 253.012
L204.506 238.259
L204.581 239.703
L204.655 239.641
L204.804 229.028
L205.027 216.801
L205.102 216.809
L205.176 218.015
L205.25 217.93
L205.325 217.677
L205.474 212.7
L205.622 219.696
L206.143 255.401
L206.292 258.373
L206.59 274.747
L207.11 217.032
L207.408 172.818
L207.482 171.743
L207.631 183.117
L208.598 283.993
L208.747 280.752
L208.822 281.206
L208.97 275.545
L209.714 198.584
L209.789 203.384
L210.012 221.985
L210.384 238.681
L210.458 239.672
L210.533 242.214
L210.607 242.145
L210.756 234.058
L210.979 218.89
L211.054 218.875
L211.128 219.374
L211.277 215.25
L211.5 208.883
L211.574 208.53
L211.649 210.081
L211.798 226.424
L212.095 264.548
L212.616 283.517
L212.69 283.817
L212.765 281.966
L212.914 268.134
L213.211 234.327
L213.955 151.583
L214.03 156.114
L214.402 205.796
L215.146 315.351
L215.294 308.838
L215.518 285.445
L216.113 212.915
L216.708 193.293
L216.782 192.901
L216.931 197.363
L217.08 203.108
L217.154 203.246
L217.229 202.716
L217.378 220.119
L217.75 269.839
L217.898 274.163
L218.047 267.566
L218.717 227.238
L218.94 222.815
L219.089 227.292
L219.163 227.231
L219.312 221.701
L219.535 228.436
L219.61 230.594
L219.758 228.659
L219.833 228.482
L220.056 230.379
L220.279 242.015
L220.428 249.495
L220.651 239.042
L220.726 241.477
L221.023 235.648
L221.246 243.236
L221.321 243.19
L221.395 242.26
L221.47 244.188
L221.693 262.236
L221.767 261.453
L222.065 235.556
L222.586 165.36
L222.66 161.812
L222.809 184.338
L223.553 348.759
L223.627 344.166
L223.85 285.222
L224.371 107.438
L224.52 96.5938
L224.594 96.755
L224.743 128.988
L225.413 341.947
L225.636 321.572
L225.859 284.347
L226.157 249.933
L226.38 217.331
L226.752 168.632
L226.826 168.486
L226.975 185.474
L227.347 236.754
L227.496 243.359
L227.57 243.197
L227.794 239.718
L228.091 229.304
L228.166 229.903
L228.463 241.354
L228.538 242.015
L228.612 241.185
L228.835 233.92
L229.058 252.406
L229.282 262.044
L229.356 263.833
L229.43 263.042
L229.654 245.601
L229.877 236.869
L230.472 216.809
L230.546 216.747
L230.844 229.957
L230.918 229.358
L231.216 250.946
L231.29 248.573
L231.588 229.519
L231.737 225.072
L231.811 225.364
L232.109 254.863
L232.183 253.097
L232.778 204.114
L232.927 201.656
L233.076 213.184
L233.597 281.559
L233.671 282.926
L234.118 252.513
L234.415 208.914
L234.49 209.405
L234.787 225.833
L235.085 214.628
L235.159 215.703
L235.308 218.913
L235.382 218.114
L235.531 215.388
L235.68 222.3
L235.978 256.43
L236.126 269.97
L236.275 255.24
L236.498 229.55
L236.647 227.745
L236.945 212.462
L237.019 214.282
L237.614 264.847
L237.689 265.331
L237.763 267.589
L237.986 281.958
L238.135 268.226
L238.433 222.515
L238.656 233.121
L238.73 233.075
L239.474 178.117
L239.698 165.153
L239.772 169.047
L240.665 334.413
L240.739 332.761
L240.962 291.097
L241.558 155.208
L241.632 150.039
L241.706 152.873
L242.302 271.728
L242.525 300.444
L242.599 309.253
L242.674 309.122
L242.822 283.279
L243.194 204.16
L243.641 147.282
L243.715 149.885
L243.938 193.185
L244.162 217.231
L244.31 237.36
L244.608 287.526
L244.831 290.222
L244.906 288.064
L245.724 232.752
L245.873 228.083
L246.022 214.728
L246.245 194.537
L246.394 217.016
L246.542 238.09
L246.617 236.531
L246.766 227.4
L246.84 229.389
L247.063 244.457
L247.212 237.821
L247.51 224.973
L247.584 228.628
L247.807 259.502
L247.882 253.696
L248.105 206.848
L248.179 206.909
L248.477 247.099
L248.551 242.821
L248.774 226.002
L248.923 237.399
L249.072 250.455
L249.146 248.151
L249.37 236.27
L249.518 247.168
L249.742 263.618
L249.89 234.557
L250.039 199.844
L250.114 199.99
L250.411 245.824
L250.486 241.055
L250.709 223.905
L250.783 225.172
L251.081 242.867
L251.23 234.404
L251.378 223.03
L251.453 224.443
L251.75 248.358
L251.974 237.56
L252.048 238.006
L252.346 254.541
L252.494 237.975
L252.718 209.39
L252.866 222.423
L253.09 245.048
L253.164 244.687
L253.462 221.325
L253.759 250.939
L253.908 246.354
L254.057 235.364
L254.28 216.878
L254.354 218.468
L254.503 229.527
L254.801 260.7
L254.875 258.542
L255.247 221.709
L255.322 223.437
L255.545 236.239
L255.694 246.561
L255.768 244.28
L256.066 205.081
L256.14 207.608
L256.363 250.939
L256.512 271.229
L256.586 264.993
L256.884 206.495
L256.958 208.461
L257.33 256.484
L257.702 223.122
L257.777 223.775
L258.074 237.268
L258.223 233.39
L258.372 230.51
L258.67 240.125
L258.893 245.693
L259.042 241.846
L259.414 227.338
L259.488 227.922
L259.786 251.876
L259.86 247.598
L260.158 200.205
L260.232 201.195
L260.455 240.525
L260.678 267.044
L260.976 234.788
L261.05 235.832
L261.274 244.918
L261.348 244.718
L261.497 231.67
L261.72 214.006
L261.794 215.526
L262.092 228.313
L262.39 234.02
L262.687 261.883
L262.762 260.9
L263.134 227.976
L263.208 228.567
L263.431 231.562
L263.803 247.222
L263.952 236.539
L264.25 215.672
L264.398 218.36
L264.696 234.78
L264.77 234.312
L264.994 224.043
L265.068 225.579
L265.366 251.922
L265.44 250.57
L265.738 226.501
L266.035 244.395
L266.11 242.859
L266.333 236.454
L266.407 236.101
L266.482 237.798
L266.779 256.392
L266.928 249.764
L267.374 226.854
L267.449 226.332
L267.746 233.52
L267.821 233.497
L267.97 228.421
L268.267 214.213
L268.342 216.901
L268.788 258.027
L269.086 230.28
L269.16 231.009
L269.383 239.465
L269.458 239.833
L269.606 232.699
L269.83 215.557
L269.904 218.783
L270.127 234.066
L270.499 222.715
L270.648 228.037
L270.946 249.165
L271.02 249.579
L271.169 243.535
L271.318 239.534
L271.466 243.681
L271.69 251.661
L272.136 241.846
L272.434 228.429
L272.582 236.04
L272.731 240.732
L272.88 228.636
L273.178 186.496
L273.252 190.198
L273.996 276.214
L274.145 286.413
L274.294 274.532
L274.666 227.269
L274.814 231.247
L275.038 215.68
L275.335 193.377
L275.41 196.349
L275.707 215.073
L275.782 216.571
L276.005 236.278
L276.302 268.503
L276.6 251.392
L276.898 259.671
L276.972 258.073
L277.344 243.359
L277.418 242.844
L277.493 243.497
L277.567 242.491
L277.716 233.236
L278.014 210.88
L278.237 222.369
L278.46 210.88
L278.683 193.093
L278.758 193.224
L278.906 209.874
L279.204 248.52
L279.427 260.155
L279.725 274.363
L279.799 272.665
L280.246 237.384
L280.692 213.698
L281.138 235.679
L281.213 235.479
L281.287 235.348
L281.362 236.024
L281.51 244.15
L281.734 258.765
L281.882 255.462
L282.106 238.482
L282.329 228.244
L282.478 226.109
L282.626 213.345
L282.924 179.53
L282.998 179.745
L283.073 184.13
L283.37 245.878
L283.594 280.76
L283.668 282.488
L283.817 274.824
L284.263 244.249
L284.338 243.205
L284.561 228.528
L284.71 222.653
L284.784 222.454
L284.858 223.068
L285.23 235.824
L285.379 229.488
L285.528 222.914
L285.602 225.318
L285.9 244.48
L285.974 243.182
L286.272 228.544
L286.421 240.087
L286.644 256.776
L286.718 255.915
L286.867 248.197
L287.165 227.937
L287.314 226.194
L287.388 227.553
L287.537 224.988
L287.611 222.546
L287.686 223.897
L288.132 211.149
L288.206 212.239
L288.355 222.63
L288.653 252.621
L288.727 253.373
L288.802 253.02
L288.876 252.321
L288.95 253.304
L289.099 258.726
L289.174 258.619
L289.322 260.508
L289.397 258.864
L289.546 242.544
L289.694 220.526
L289.769 221.378
L289.992 240.509
L290.066 238.297
L290.438 211.947
L290.513 215.027
L290.81 237.161
L291.257 224.427
L291.629 240.909
L291.852 245.808
L291.926 245.44
L292.001 246.239
L292.373 238.344
L292.745 250.962
L292.894 241.531
L293.117 216.747
L293.191 218.061
L293.414 242.383
L293.489 240.909
L293.935 211.694
L294.084 229.266
L294.307 253.619
L294.679 232.991
L295.051 237.629
L295.126 239.595
L295.274 237.944
L295.498 243.312
L295.795 233.866
L296.018 238.996
L296.093 238.966
L296.39 222.408
L296.614 198.699
L296.688 202.309
L297.06 252.736
L297.134 252.582
L297.432 232.061
L297.506 232.921
L297.878 270.116
L297.953 267.458
L298.399 226.593
L298.622 225.702
L298.92 214.835
L299.218 218.26
L299.441 228.69
L299.738 259.364
L299.813 258.511
L299.887 255.455
L300.185 226.317
L300.259 225.625
L300.482 240.11
L300.557 239.649
L300.706 229.619
L300.929 216.993
L301.301 251.392
L301.375 248.612
L301.673 221.885
L301.747 221.14
L301.822 221.309
L302.194 258.734
L302.268 257.39
L302.863 224.665
L302.938 225.595
L303.235 241.6
L303.384 233.736
L303.607 216.517
L303.682 218.114
L304.054 248.65
L304.351 215.388
L304.426 216.041
L304.5 219.658
L304.798 255.931
L304.872 254.226
L305.17 229.104
L305.318 235.179
L305.542 249.426
L305.988 225.042
L306.286 248.312
L306.36 243.512
L306.509 229.458
L306.583 230.402
L306.658 231.47
L306.732 236.224
L306.806 236.216
L306.881 234.365
L307.178 214.92
L307.327 219.136
L307.625 247.92
L307.699 246.676
L307.922 235.018
L308.071 238.543
L308.369 264.978
L308.443 259.609
L308.592 244.457
L308.89 220.495
L309.038 219.059
L309.113 219.673
L309.41 235.195
L309.559 239.019
L309.931 220.272
L310.08 228.659
L310.452 252.06
L310.526 250.532
L310.824 226.447
L310.898 228.344
L311.196 245.463
L311.27 245.678
L311.419 247.045
L311.494 246.838
L311.642 240.432
L311.94 228.751
L312.014 228.144
L312.163 228.767
L312.312 228.029
L312.386 228.298
L312.61 233.82
L312.833 228.336
L313.279 237.145
L313.354 237.168
L313.428 236.708
L313.726 223.951
L313.949 231.562
L314.023 230.817
L314.172 231.332
L314.395 237.983
L314.693 246.116
L314.842 242.921
L315.139 252.198
L315.437 244.05
L315.734 224.934
L316.032 230.725
L316.106 230.725
L316.255 235.986
L316.33 234.734
L316.553 219.451
L316.999 247.014
L317.074 246.945
L317.222 239.288
L317.52 217.608
L317.743 224.688
L317.892 233.467
L318.041 246.108
L318.115 245.832
L318.264 241.569
L318.562 232.683
L318.636 231.416
L319.082 250.424
L319.157 249.326
L319.752 226.678
L319.826 226.754
L320.05 230.74
L320.198 238.359
L320.273 237.791
L320.57 229.066
L320.794 221.847
L321.389 243.205
L321.463 243.044
L321.538 242.56
L321.761 239.28
L321.835 239.434
L321.91 237.599
L321.984 237.76
L322.133 245.225
L322.282 251.622
L322.579 235.863
L322.654 237.13
L322.877 229.711
L322.951 230.809
L323.026 231.769
L323.1 231.7
L323.249 230.571
L323.621 234.219
L323.77 230.809
L323.993 223.874
L324.067 224.212
L324.365 231.938
L324.439 231.577
L324.588 229.12
L324.662 230.141
L325.034 248.212
L325.109 247.176
L325.332 239.242
L325.555 246.085
L325.63 247.291
L325.704 246.861
L325.853 238.728
L326.076 224.427
L326.15 225.756
L326.299 237.806
L326.374 237.261
L326.597 218.913
L326.671 221.609
L326.969 245.816
L327.043 245.448
L327.118 242.844
L327.341 226.117
L327.638 250.079
L327.862 231.278
L327.936 232.722
L328.01 231.57
L328.159 235.21
L328.234 236.654
L328.308 236.139
L328.531 210.473
L328.606 215.956
L328.829 259.302
L328.903 254.71
L329.126 232.783
L329.35 241.147
L329.498 251.307
L329.647 232.799
L329.796 216.294
L330.094 248.942
L330.54 201.387
L330.838 244.165
L330.912 237.092
L330.986 223.583
L331.061 225.119
L331.358 271.045
L331.507 246.968
L331.656 223.56
L331.73 221.847
L332.028 244.933
L332.251 236.823
L332.474 222.062
L332.549 225.264
L332.772 255.746
L332.921 231.048
L333.07 212.946
L333.293 234.504
L333.516 220.633
L333.59 221.801
L333.814 241.515
L333.962 237.468
L334.111 240.102
L334.186 239.127
L334.409 223.575
L334.483 226.186
L334.706 262.006
L334.781 257.244
L335.004 219.32
L335.227 245.762
L335.45 213.768
L335.525 217.062
L335.822 251.016
L335.971 255.67
L336.343 207.961
L336.418 213.061
L336.641 256.33
L336.715 254.095
L336.864 222.815
L336.938 225.633
L337.162 259.448
L337.385 210.772
L337.459 212.877
L337.682 241.899
L337.757 239.549
L337.831 240.264
L337.98 232.952
L338.203 207.478
L338.352 232.438
L338.575 263.127
L338.798 221.256
L338.947 251.991
L339.096 272.819
L339.394 237.284
L339.468 238.72
L339.542 246.246
L339.617 242.483
L340.063 193.208
L340.138 194.537
L340.435 253.066
L340.51 249.341
L340.733 217.362
L340.956 255.493
L341.03 249.925
L341.179 230.625
L341.328 245.494
L341.477 259.149
L341.551 257.62
L341.7 238.966
L341.923 195.297
L341.998 201.679
L342.295 268.587
L342.37 261
L342.593 217.7
L342.816 268.196
L342.89 264.479
L343.114 218.606
L343.188 217.2
L343.411 243.013
L343.486 241.984
L343.634 217.753
L343.783 201.257
L343.932 234.98
L344.081 270.223
L344.155 266.614
L344.453 204.905
L344.75 264.671
L344.825 257.835
L345.048 218.022
L345.271 238.789
L345.494 203.615
L345.569 209.782
L345.866 280.484
L345.941 276.505
L346.238 221.033
L346.462 257.136
L346.536 255.585
L346.685 228.644
L346.834 201.718
L346.908 204.667
L347.057 225.533
L347.131 223.575
L347.28 215.572
L347.429 234.365
L347.652 272.212
L347.726 270.331
L348.024 228.621
L348.247 263.833
L348.396 236.009
L348.694 174.937
L349.214 243.351
L349.438 287.726
L349.512 287.542
L349.735 262.313
L349.884 252.69
L350.033 249.026
L350.256 220.173
L350.405 205.112
L350.628 220.518
L350.702 221.225
L351.074 243.259
L351.223 263.926
L351.372 252.528
L351.521 239.695
L351.595 239.933
L351.67 239.864
L352.265 206.364
L352.562 225.648
L352.711 237.13
L352.934 262.843
L353.009 261.76
L353.232 239.695
L353.381 234.135
L353.53 242.291
L353.604 240.863
L354.05 216.171
L354.125 218.061
L354.72 263.319
L354.869 259.917
L354.943 260.331
L355.018 260.17
L355.092 257.044
L355.687 202.14
L355.836 206.802
L356.208 220.641
L356.282 219.359
L356.431 211.563
L356.654 220.687
L356.803 229.12
L357.324 283.494
L357.473 277.842
L357.622 265.546
L357.696 267.359
L357.77 269.901
L357.845 269.44
L358.068 249.449
L358.44 204.621
L358.514 204.528
L358.589 203.446
L359.035 183.232
L359.11 184.799
L359.482 233.206
L359.705 268.848
L359.779 269.893
L359.928 266.383
L360.3 245.409
L360.374 247.475
L360.449 247.974
L360.672 239.135
L360.746 239.48
L360.821 239.265
L360.97 237.583
L361.044 237.883
L361.342 257.29
L361.416 256.799
L361.49 257.375
L361.565 254.272
L362.383 163.371
L362.532 178.224
L363.127 307.103
L363.202 305.958
L363.35 298.793
L363.574 267.082
L364.02 178.639
L364.094 174.722
L364.169 177.264
L364.466 213.069
L364.838 253.028
L364.987 262.313
L365.136 253.005
L365.582 215.012
L365.88 204.413
L365.954 206.994
L366.178 240.601
L366.55 295.306
L366.624 297.049
L366.773 292.05
L366.996 263.972
L367.517 189.583
L367.74 183.923
L367.889 195.259
L368.112 216.932
L368.41 221.501
L368.484 218.99
L368.558 219.374
L369.228 254.203
L369.302 254.057
L369.377 253.488
L369.972 278.395
L371.162 178.639
L371.237 177.879
L371.386 192.171
L371.906 260.462
L372.13 256.53
L372.278 246.169
L372.502 231.485
L372.65 229.289
L372.725 227.016
L372.799 227.599
L372.874 230.149
L373.32 277.872
L373.394 276.198
L373.766 254.541
L374.213 198.269
L374.362 189.483
L374.436 190.259
L374.51 190.904
L374.585 190.397
L374.734 193.131
L374.882 209.298
L375.403 292.541
L375.478 295.867
L375.626 290.122
L375.85 258.519
L376.222 196.557
L376.296 198.699
L376.668 243.666
L376.891 259.924
L377.04 250.747
L377.338 222.269
L377.71 183.224
L377.784 180.306
L378.007 193.062
L378.305 220.818
L378.826 296.95
L379.198 286.543
L379.57 238.712
L379.867 207.117
L380.016 212.715
L380.314 227.492
L380.462 221.232
L380.611 215.173
L381.058 226.739
L381.132 229.934
L381.206 229.45
L381.355 224.159
L381.727 239.042
L382.099 258.335
L382.248 260.262
L382.322 258.565
L382.769 231.6
L383.141 216.578
L383.215 218.068
L383.662 241.001
L383.959 261.023
L384.034 260.808
L384.703 204.674
L385.001 240.432
L385.075 237.491
L385.298 227.3
L385.447 230.164
L385.819 247.114
L385.968 244.403
L386.117 224.65
L386.191 213.23
L386.266 213.583
L386.563 261.522
L386.638 257.974
L386.861 250.562
L386.935 251.638
L387.01 251.338
L387.158 248.343
L387.605 214.228
L387.754 205.811
L388.051 232.384
L388.126 227.576
L388.274 215.833
L388.349 219.021
L388.646 256.706
L388.721 253.227
L389.242 197.616
L389.39 230.126
L389.614 280.13
L389.837 249.126
L390.06 267.282
L390.134 265.239
L390.506 238.536
L390.73 185.789
L390.878 209.467
L391.027 233.736
L391.102 231.731
L391.325 209.812
L391.474 236.339
L391.622 253.995
L392.143 196.802
L392.218 199.191
L392.515 274.77
L392.59 263.342
L392.813 218.859
L393.11 272.036
L393.185 269.079
L393.408 256.737
L393.706 201.625
L393.854 221.117
L394.003 230.71
L394.152 219.62
L394.226 219.658
L394.524 267.113
L394.598 262.889
L394.896 237.821
L395.119 196.887
L395.268 220.257
L395.417 239.626
L395.64 219.481
L395.714 220.257
L396.012 264.947
L396.086 263.196
L396.31 252.336
L396.607 198.116
L396.83 227.76
L396.905 222.937
L396.979 217.247
L397.054 217.508
L397.128 221.64
L397.5 268.127
L397.649 265.001
L397.723 260.208
L398.021 217.385
L398.17 236.178
L398.244 247.467
L398.318 245.202
L398.542 214.029
L398.616 215.649
L398.914 248.42
L398.988 248.873
L399.137 240.302
L399.434 199.014
L399.509 203.538
L399.806 240.31
L399.955 233.666
L400.03 237.691
L400.253 268.503
L400.402 257.605
L400.848 221.709
L400.922 224.105
L401.146 241.869
L401.443 209.843
L401.518 216.471
L401.815 254.556
L401.964 251.638
L402.113 239.949
L402.336 205.803
L402.41 209.52
L402.708 238.413
L402.857 234.657
L403.154 257.951
L403.229 254.502
L403.526 221.547
L403.675 206.187
L404.047 244.027
L404.122 241.508
L404.345 223.252
L404.494 240.187
L404.717 258.25
L404.791 258.995
L404.866 258.427
L405.014 236.278
L405.238 211.08
L405.61 241.707
L405.833 229.435
L406.056 252.429
L406.13 249.956
L406.577 202.309
L406.726 224.32
L406.949 250.178
L407.246 227.515
L407.618 267.105
L407.693 265.531
L407.842 244.357
L408.065 207.777
L408.139 208.545
L408.437 239.035
L408.511 238.728
L408.586 240.11
L408.809 251.008
L408.883 249.579
L409.106 229.327
L409.33 202.585
L409.404 203.223
L409.553 212.216
L409.999 247.49
L410.148 253.811
L410.371 265.953
L410.52 269.048
L410.594 265.439
L410.818 223.037
L411.041 195.574
L411.115 195.881
L411.264 212.132
L411.562 243.205
L411.785 254.379
L412.529 225.948
L412.678 222.822
L412.752 223.168
L412.975 229.442
L413.422 254.955
L413.496 255.124
L413.57 252.682
L414.091 213.322
L414.166 211.771
L414.24 213.184
L414.463 238.858
L414.686 250.424
L414.835 247.406
L414.984 243.781
L415.282 248.904
L415.356 248.182
L415.43 245.309
L415.802 207.101
L415.877 212.761
L416.398 247.652
L416.472 248.082
L416.621 244.779
L416.695 245.593
L416.77 245.785
L417.29 232.56
L417.365 232.699
L417.439 233.497
L417.588 225.426
L417.662 221.947
L417.737 223.283
L417.96 238.459
L418.258 253.634
L418.332 250.463
L418.778 209.175
L418.853 209.536
L419.076 234.066
L419.299 247.452
L419.448 242.145
L419.597 237.768
L419.671 238.382
L419.894 243.382
L420.043 240.248
L420.118 240.886
L420.192 240.325
L420.341 236.178
L420.638 225.572
L420.713 224.927
L420.862 231.57
L421.159 244.58
L421.308 247.46
L421.382 246.269
L421.68 227.576
L422.126 239.572
L422.201 238.482
L422.573 217.792
L422.722 220.779
L422.945 232.338
L423.168 243.028
L423.242 241.4
L423.391 234.419
L423.466 234.934
L423.614 242.091
L423.838 255.954
L424.135 243.927
L424.284 230.287
L424.358 230.986
L424.582 240.609
L424.805 236.823
L424.954 239.772
L425.028 237.837
L425.4 211.333
L425.549 209.106
L425.698 214.059
L425.846 228.959
L426.07 251.077
L426.293 244.15
L426.814 261.445
L426.962 245.494
L427.26 214.021
L427.334 215.411
L427.781 236.439
L427.855 236.339
L427.93 234.818
L428.153 216.886
L428.227 217.776
L428.376 223.321
L428.45 222.838
L428.525 222.592
L428.822 240.194
L429.418 270.461
L429.566 272.228
L429.641 274.171
L429.715 274.14
L429.79 269.378
L430.013 212.408
L430.236 176.389
L430.31 177.487
L430.534 201.08
L430.98 252.022
L431.129 258.488
L431.203 258.335
L431.278 257.766
L431.352 254.802
L431.724 209.152
L431.798 211.202
L432.022 216.01
L432.245 244.395
L432.542 281.866
L432.617 281.928
L433.212 255.808
L433.361 212.692
L433.584 141.499
L433.658 143.864
L434.105 223.083
L434.328 203.73
L434.402 206.418
L434.626 251.499
L435.072 361.654
L435.221 323.123
L435.518 230.487
L435.593 231.14
L435.742 237.337
L435.89 204.459
L436.262 74.9285
L436.411 128.266
L436.858 328.484
L436.932 330.803
L437.006 329.175
L437.081 323.323
L437.23 284.232
L437.602 153.91
L437.676 154.125
L437.825 183.193
L438.271 295.652
L438.346 297.08
L438.494 281.29
L438.866 194.836
L438.941 200.289
L439.164 242.383
L439.462 286.367
L439.61 281.444
L439.908 247.429
L439.982 247.467
L440.057 247.775
L440.206 210.949
L440.429 162.995
L440.578 150.192
L440.726 170.821
L441.098 235.886
L441.322 266.429
L441.545 343.291
L441.619 341.186
L441.917 281.198
L442.14 239.242
L442.438 174.799
L442.512 165.092
L442.586 166.328
L442.884 198.024
L443.107 237.376
L443.256 223.659
L443.33 224.489
L443.479 230.418
L443.628 226.079
L443.702 228.267
L444.149 279.624
L444.372 261.675
L444.446 262.128
L444.521 262.098
L444.67 233.198
L444.893 209.044
L445.116 204.912
L445.19 204.912
L445.414 226.701
L445.711 269.294
L445.86 282.073
L446.009 304.622
L446.083 300.06
L446.53 180.567
L446.678 185.037
L446.827 211.187
L447.05 252.045
L447.125 254.134
L447.274 246.722
L447.422 259.725
L447.571 274.194
L447.72 225.456
L447.943 151.252
L448.018 145.5
L448.092 148.042
L448.241 167.672
L448.836 304.215
L448.985 307.179
L449.059 310.075
L449.134 307.041
L449.506 241.899
L449.58 243.735
L449.654 244.994
L449.803 239.618
L449.878 241.008" style="fill:none;stroke:#808080;stroke-linecap:square;"/>
   </g>
  </g>
 </g>
 <defs>
  <clipPath id="p7ff5b81e1d">
   <rect height="345.6" width="446.4" x="72.0" y="43.2"/>
  </clipPath>
 </defs>
</svg>
