<?xml version="1.0" encoding="utf-8" standalone="no"?>
<!DOCTYPE svg PUBLIC "-//W3C//DTD SVG 1.1//EN"
  "http://www.w3.org/Graphics/SVG/1.1/DTD/svg11.dtd">
<!-- Created with matplotlib (http://matplotlib.org/) -->
<svg height="432pt" version="1.1" viewBox="0 0 576 432" width="576pt" xmlns="http://www.w3.org/2000/svg" xmlns:xlink="http://www.w3.org/1999/xlink">
 <defs>
  <style type="text/css">
*{stroke-linecap:butt;stroke-linejoin:round;}
  </style>
 </defs>
 <g id="figure_1">
  <g id="patch_1">
   <path d="
M0 432
L576 432
L576 0
L0 0
z
" style="fill:#ffffff;"/>
  </g>
  <g id="axes_1">
   <g id="line2d_1">
    <path clip-path="url(#p7ff5b81e1d)" d="
M72 242.021
L72.2232 301.276
L72.2976 300.18
L72.8184 203.931
L72.9672 195.137
L73.0416 200.247
L73.488 277.257
L73.5624 274.147
L73.9344 237.197
L74.0088 237.987
L74.232 247.056
L74.3064 245.758
L74.4552 237.34
L74.6784 222.489
L74.7528 224.385
L75.0504 254.704
L75.1248 255.44
L75.2736 242.238
L75.4968 226.627
L76.0176 239.113
L76.092 239.251
L76.2408 240.717
L76.3896 238.861
L76.9104 222.094
L77.0592 236.012
L77.58 298.872
L77.8032 245.363
L77.952 228.409
L78.1752 263.492
L78.3984 223.99
L78.4728 225.832
L78.5472 232.423
L78.6216 231.549
L78.9192 179.931
L78.9936 183.214
L79.2168 203.462
L79.44 190.447
L79.5144 194.723
L79.812 259.37
L80.184 330.514
L80.2584 337.905
L80.3328 337.485
L80.4816 318.606
L80.7792 263.596
L80.8536 263.517
L80.928 268.015
L81.0024 265.561
L81.1512 245.082
L81.672 136.904
L81.8208 158.642
L82.2672 253.43
L82.416 262.07
L83.0112 229.273
L83.0856 231.07
L83.3088 252.744
L83.6064 288.306
L83.6808 289.842
L83.8296 279.805
L84.3504 228.137
L84.648 221.63
L84.7224 222.247
L84.7968 222.168
L84.8712 221.556
L85.0944 226.266
L85.1688 226.187
L85.6896 256.383
L85.764 257.429
L85.8384 256.506
L85.9128 256.906
L85.9872 256.077
L86.136 247.037
L86.508 220.356
L86.5824 223.156
L86.9544 252.013
L87.0288 250.261
L87.5496 207.722
L87.7728 214.575
L88.0704 244.469
L88.368 287.729
L88.5168 297.104
L88.6656 290.967
L88.9632 272.315
L89.4096 191.341
L89.484 188.734
L89.6328 196.564
L90.0048 222.391
L90.1536 219.191
L91.0464 255.252
L91.5672 291.881
L91.716 300.101
L91.9392 275.702
L92.1624 222.637
L92.3856 188.082
L92.46 187.391
L92.5344 188.596
L92.9808 213.879
L93.0552 213.41
L93.2784 205.13
L93.3528 208.981
L93.7992 257.503
L94.4688 296.038
L94.8408 280.387
L95.1384 244.618
L95.436 183.066
L95.5104 182.326
L95.6592 175.201
L95.7336 177.235
L95.8824 195.35
L96.18 224.454
L96.4776 219.522
L96.552 223.615
L96.8496 276.778
L96.9984 273.169
L97.0728 271.806
L97.1472 272.399
L97.2216 272.103
L97.4448 276.842
L97.5192 276.66
L97.9656 251.525
L98.1144 253.889
L98.1888 253.756
L98.3376 246.429
L98.412 246.143
L98.4864 247.985
L98.6352 225.886
L98.8584 193.602
L98.9328 192.827
L99.0816 198.352
L99.528 232.605
L99.7512 246.543
L99.8256 245.511
L100.123 219.907
L100.346 267.111
L100.644 320.58
L100.718 319.159
L100.867 272.986
L101.165 191.114
L101.314 204.79
L101.537 225.649
L101.686 224.365
L101.909 215.123
L102.058 212.541
L102.206 217.29
L102.355 229.253
L102.876 298.126
L103.025 292.182
L103.174 273.653
L103.546 204.933
L103.62 204.123
L104.066 227.728
L104.215 231.351
L104.736 269.239
L104.81 268.459
L105.406 209.529
L105.48 210.457
L105.778 240.327
L106.15 264.835
L106.67 220.623
L106.745 222.544
L106.819 221.294
L106.968 211.919
L107.042 214.452
L107.414 255.543
L107.712 279.024
L108.233 235.252
L108.307 236.15
L108.456 236.817
L108.754 252.176
L109.274 211.356
L109.349 214.506
L109.646 277.178
L109.721 270.419
L109.944 234.087
L110.242 192.718
L110.465 204.148
L110.837 267.501
L110.986 272.636
L111.134 270.928
L111.283 275.317
L111.432 261.769
L111.878 217.434
L111.953 215.276
L112.027 216.046
L112.25 245.156
L112.325 245.353
L112.474 252.872
L112.697 241.922
L112.771 242.89
L112.92 247.832
L112.994 247.175
L113.366 227.732
L113.59 209.065
L113.664 207.954
L114.036 261.206
L114.185 280.027
L114.557 247.669
L114.706 250.71
L115.152 211.015
L115.226 209.781
L115.45 217.631
L115.598 230.137
L115.822 251.999
L115.97 254.289
L116.045 253.825
L116.119 253.549
L116.268 261.809
L116.342 261.522
L116.566 272.438
L117.235 217.661
L117.384 206.937
L117.458 209.352
L117.682 239.256
L117.905 272.433
L117.979 272.063
L118.128 275.524
L118.872 212.62
L119.021 209.964
L119.17 217.394
L119.244 216.93
L119.318 217.167
L119.467 228.927
L119.839 276.22
L120.062 261.937
L120.434 218.135
L120.509 219.68
L121.104 280.096
L121.178 276.2
L121.699 229.939
L121.922 212.166
L122.294 202.602
L122.369 203.856
L122.518 216.624
L122.741 231.149
L123.41 262.88
L123.485 262.554
L123.708 266.583
L123.782 265.25
L123.857 266.208
L124.452 232.462
L124.526 233.771
L124.601 234.837
L124.675 234.61
L124.75 233.05
L125.047 220.539
L125.122 220.381
L125.345 233.089
L125.419 231.5
L125.568 232.492
L125.717 233.711
L125.791 230.873
L125.866 233.198
L126.238 258.6
L126.907 238.11
L127.056 242.618
L127.354 262.233
L127.428 258.871
L127.577 240.11
L127.726 245.615
L127.874 239.152
L127.949 240.816
L128.098 245.891
L128.395 226.508
L128.47 229.539
L128.544 228.695
L128.693 210.196
L128.767 212.516
L129.214 245.97
L129.437 240.737
L129.586 246.676
L129.66 246.188
L129.734 243.704
L129.809 243.714
L129.883 246.898
L129.958 245.432
L130.255 232.877
L130.33 233.702
L130.925 275.845
L130.999 272.73
L131.371 227.249
L131.594 219.818
L131.669 222.519
L131.892 239.537
L131.966 237.572
L132.264 260.525
L132.413 250.389
L132.636 224.257
L132.859 214.185
L132.934 214.19
L133.306 246.632
L133.454 252.003
L133.678 239.967
L133.752 240.786
L133.975 252.374
L134.05 249.54
L134.198 259.715
L134.273 258.96
L134.719 231.016
L134.794 229.722
L134.868 229.9
L135.091 237.577
L135.166 236.155
L135.463 221.986
L135.612 219.566
L136.058 246.686
L136.43 276.768
L136.505 276.966
L137.026 241.635
L137.1 242.993
L137.695 227.708
L137.77 228.004
L137.844 228.833
L138.067 216.9
L138.142 218.327
L138.365 214.669
L138.439 218.49
L138.737 243.329
L138.886 250.67
L139.034 246.405
L139.481 261.458
L139.927 238.742
L140.15 243.581
L140.225 241.823
L140.374 237.098
L140.448 237.572
L140.671 247.007
L140.746 247.372
L141.118 252.877
L141.266 247.323
L141.787 219.408
L141.862 218.707
L141.936 214.644
L142.01 214.743
L142.457 253.574
L142.68 269.303
L142.978 240.944
L143.126 232.556
L143.201 233.302
L143.647 255.282
L143.722 253.904
L143.87 248.306
L143.945 248.488
L144.019 246.444
L144.54 196.184
L144.614 197.976
L145.135 276.279
L145.21 275.677
L145.582 254.077
L145.73 252.087
L145.954 254.877
L146.028 252.764
L146.326 225.012
L146.4 225.96
L146.474 225.856
L146.549 225.521
L146.698 230.196
L146.772 229.559
L146.921 233.292
L146.995 232.936
L147.07 232.867
L147.218 239.295
L147.442 255.158
L147.516 254.265
L147.665 249.96
L147.739 251.455
L147.814 248.745
L148.186 222.405
L148.26 219.65
L148.334 220.287
L148.632 242.771
L148.855 265.028
L148.93 266.41
L149.153 242.267
L149.302 233.415
L149.376 233.899
L149.525 229.732
L149.674 234.511
L149.971 252.018
L150.12 250.325
L150.418 237.577
L150.492 239.508
L151.013 225.254
L151.162 228.527
L151.236 231.574
L151.682 267.319
L151.831 264.924
L152.575 220.519
L152.724 226.577
L152.873 217.537
L153.022 206.542
L153.245 216.249
L153.468 243.675
L153.766 282.199
L153.84 284.544
L153.914 283.675
L154.212 269.52
L154.584 235.276
L154.733 239.231
L155.03 219.009
L155.477 197.591
L155.551 200.208
L156.146 264.243
L156.221 263.853
L156.295 262.747
L156.37 263.166
L156.444 263.221
L156.593 250.379
L156.742 240.989
L156.816 241.675
L157.188 261.725
L157.262 259.547
L157.932 202.716
L158.006 204.404
L158.527 269.259
L158.602 265.018
L158.974 234.58
L159.122 235.543
L159.271 229.386
L159.643 244.139
L159.866 256.625
L160.164 265.531
L160.238 262.446
L160.685 199.808
L160.759 200.277
L160.982 214.659
L161.429 265.571
L161.503 270.014
L161.578 268.938
L161.801 253.988
L161.875 253.386
L162.024 232.191
L162.098 232.823
L162.173 235.276
L162.322 229.475
L162.545 240.381
L162.619 238.377
L162.768 246.286
L162.917 234.432
L162.991 236.229
L163.066 239.784
L163.214 228.666
L163.363 239.419
L163.438 239.325
L163.512 239.675
L163.661 243.803
L163.81 241.507
L163.884 246.217
L163.958 245.457
L164.182 226.577
L164.33 231.801
L164.777 258.703
L164.851 261.019
L164.926 258.56
L165.074 244.242
L165.149 245.852
L165.223 245.417
L165.372 232.497
L165.446 234.274
L165.595 241.759
L165.744 238.318
L165.893 252.147
L166.339 221.68
L166.488 230.754
L166.637 225.777
L166.711 226.676
L167.009 243.763
L167.083 243.951
L167.232 238.031
L167.455 248.735
L167.53 248.049
L167.604 246.508
L167.678 248.765
L167.753 248.543
L167.976 236.451
L168.348 259.552
L168.422 262.115
L168.869 225.861
L168.943 223.778
L169.092 231.332
L169.315 224.094
L169.39 224.79
L169.687 240.396
L169.836 232.087
L169.91 234.254
L170.134 250.251
L170.208 251.026
L170.357 261.117
L170.431 260.288
L170.654 249.209
L170.729 248.725
L171.101 233.943
L171.175 231.124
L171.25 232.398
L171.547 238.9
L171.696 251.648
L172.142 226.794
L172.217 220.119
L172.291 222.84
L172.886 258.501
L172.961 262.401
L173.035 259.636
L173.184 243.675
L173.333 252.132
L173.705 225.481
L173.779 227.421
L173.854 231.272
L173.928 230.774
L174.002 227.066
L174.077 229.431
L174.226 242.346
L174.374 240.021
L174.523 244.859
L174.598 243.857
L174.895 229.658
L174.97 223.595
L175.044 224.899
L175.118 224.42
L175.193 224.632
L175.639 266.696
L175.862 253.593
L176.011 243.531
L176.086 243.837
L176.309 231.746
L176.383 234.521
L176.532 243.344
L176.606 243.067
L176.755 258.298
L176.83 257.173
L176.978 241.102
L177.053 243.526
L177.127 242.105
L177.35 227.565
L177.425 226.873
L177.499 227.841
L177.574 227.703
L177.722 223.022
L178.541 246.494
L178.615 246.049
L178.987 237.074
L179.21 248.276
L179.285 247.022
L179.434 255.257
L179.508 253.534
L179.582 253.638
L179.731 260.515
L180.475 231.816
L180.698 221.136
L180.773 221.857
L180.922 225.782
L181.07 216.57
L181.145 216.831
L181.219 219.428
L181.591 255.647
L181.666 253.845
L182.038 223.521
L182.484 265.442
L182.707 273.243
L182.93 262.845
L183.228 233.188
L183.526 216.935
L183.6 218.362
L183.749 229.485
L183.972 248.745
L184.642 230.147
L184.716 229.811
L184.79 230.774
L184.939 227.352
L185.237 233.899
L185.386 241.64
L185.46 238.328
L185.758 253.435
L185.832 254.349
L185.906 254.161
L186.278 241.838
L186.576 223.6
L186.65 225.851
L186.874 245.521
L187.246 263.606
L187.32 261.206
L187.394 261.947
L187.469 260.357
L187.692 231.188
L187.766 231.228
L187.915 238.362
L187.99 238.767
L188.064 240.372
L188.138 239.384
L188.287 229.821
L188.436 213.844
L188.659 228.611
L188.957 216.575
L189.106 222.934
L189.329 243.003
L189.552 263.492
L189.924 290.582
L189.998 291.826
L190.147 273.663
L190.742 175.083
L190.966 206.049
L191.412 280.022
L191.486 282.189
L191.561 281.686
L191.71 270.587
L192.156 215.799
L192.23 218.322
L192.602 253.825
L192.677 255.331
L192.751 254.447
L193.421 183.95
L193.57 203.165
L194.314 316.073
L194.76 275.41
L195.355 182.908
L195.504 178.667
L195.876 203.022
L196.322 279.286
L196.471 283.473
L197.066 242.732
L197.215 234.807
L197.587 213.193
L197.662 212.877
L197.736 214.052
L197.885 223.452
L198.182 245.403
L198.48 261.043
L198.554 259.75
L198.778 251.125
L198.852 251.159
L198.926 250.675
L199.15 233.124
L199.224 232.714
L199.373 234.793
L199.522 242.263
L199.819 260.372
L199.894 262.875
L199.968 261.665
L200.042 258.195
L200.414 212.862
L200.489 213.76
L200.563 212.324
L200.638 216.545
L200.935 256.126
L201.084 265.941
L201.158 265.413
L201.382 253.539
L201.754 226
L202.2 179.966
L202.274 182.232
L202.721 311.249
L202.795 309.58
L203.316 223.022
L203.465 226.77
L203.614 223.521
L203.762 229.53
L204.06 255.711
L204.134 252.147
L204.358 237.928
L204.506 227.999
L204.804 240.11
L204.953 247.066
L205.102 238.767
L205.176 239.127
L205.399 230.873
L205.548 234.22
L205.697 229.051
L206.069 246.005
L206.292 276.116
L206.366 275.119
L206.515 267.373
L207.036 206.004
L207.185 208.246
L207.408 218.811
L207.482 217.187
L207.557 214.047
L207.631 215.103
L207.706 215.276
L207.854 231.83
L208.301 298.571
L208.375 295.431
L208.896 237.108
L209.119 239.157
L209.491 255.395
L209.566 253.297
L210.086 207.169
L210.235 207.396
L210.31 205.076
L211.054 255.045
L211.128 252.28
L211.277 247.407
L211.426 246.494
L211.574 247.945
L211.649 244.119
L211.723 244.509
L211.872 261.537
L211.946 258.807
L212.021 258.95
L212.095 259.009
L212.318 246.276
L212.393 247.412
L212.467 249.16
L212.542 249.086
L212.616 249.145
L212.69 251.544
L212.765 251.075
L212.839 250.977
L212.914 248.681
L213.137 225.96
L213.211 226.464
L213.286 225.506
L213.732 210.122
L214.03 228.794
L214.402 265.753
L214.476 268.113
L214.55 267.086
L214.625 264.559
L214.848 226.775
L214.922 231.603
L215.146 269.269
L215.369 217.547
L215.443 203.294
L215.518 205.165
L215.741 250.256
L215.89 239.088
L215.964 238.767
L216.113 264.356
L216.262 285.477
L216.336 275.104
L216.634 185.782
L216.782 218.559
L217.08 272.152
L217.378 257.81
L217.601 238.688
L217.675 240.391
L217.75 237.651
L217.973 216.125
L218.047 217.967
L218.345 248.177
L218.419 247.999
L218.494 247.654
L218.717 237.839
L219.014 251.144
L219.238 261.873
L219.386 280.042
L219.461 276.309
L219.982 178.109
L220.056 174.806
L220.279 188.848
L220.949 281.167
L221.246 260.194
L221.693 277.736
L221.842 264.702
L222.362 194.145
L222.437 195.695
L222.809 261.088
L222.883 260.382
L223.032 241.068
L223.33 193.809
L223.404 192.338
L224.222 272.764
L224.297 271.481
L224.743 246.267
L224.892 241.117
L224.966 241.67
L225.115 250.172
L225.264 256.699
L225.338 251.288
L225.413 251.762
L225.487 251.5
L225.785 266.168
L225.859 264.638
L226.008 251.712
L226.529 189.006
L226.603 188.196
L226.678 190.447
L227.57 277.306
L227.645 277.109
L227.868 271.372
L227.942 272.033
L228.091 263.319
L228.538 221.754
L228.612 222.474
L228.835 214.733
L228.984 219.167
L229.133 212.531
L229.207 213.173
L229.282 218.322
L229.579 258.086
L229.654 257.568
L230.026 263.976
L230.249 271.525
L230.323 273.001
L230.546 260.12
L231.067 216.777
L231.216 209.9
L231.514 191.988
L231.588 193.553
L231.886 239.152
L232.109 262.376
L232.332 276.358
L232.406 276.576
L232.555 279.548
L233.299 221.902
L233.374 225.743
L233.597 245.669
L234.118 222.934
L234.192 224.607
L234.266 230.517
L234.49 213.351
L234.564 218.935
L234.638 219.157
L234.713 212.358
L234.787 214.536
L235.457 297.336
L235.531 294.522
L235.829 265.857
L235.978 247.807
L236.275 211.04
L236.35 208.65
L236.498 211.529
L236.647 207.875
L236.722 208.567
L236.796 209.342
L236.945 206.848
L237.019 207.91
L237.168 212.659
L237.242 214.027
L237.391 226.646
L237.689 272.853
L237.986 312.395
L238.061 314.335
L238.21 303.567
L238.507 259.513
L238.879 197.971
L239.102 183.461
L239.251 177.137
L239.326 177.754
L239.623 199.299
L239.921 227.599
L239.995 228.74
L240.144 244.751
L240.739 320.22
L240.814 320.654
L240.962 301.266
L241.334 248.592
L241.409 243.773
L241.483 244.134
L241.558 248.246
L241.632 248.059
L242.45 178.563
L242.599 176.421
L242.674 177.285
L242.748 179.492
L243.12 218.668
L243.566 277.277
L243.79 291.896
L243.864 292.3
L243.938 294.799
L244.013 294.631
L244.162 285.023
L244.608 248.37
L244.98 225.896
L245.129 224.731
L245.278 220.312
L245.352 221.27
L245.575 231.351
L245.65 230.236
L245.724 228.33
L246.022 238.673
L246.17 253.796
L246.245 253.095
L246.468 235.143
L246.691 213.563
L246.84 226.093
L247.138 256.689
L247.212 256.319
L247.361 244.874
L247.51 237.572
L247.733 234.64
L247.807 232.926
L247.882 233.218
L247.956 234.491
L248.105 232.497
L248.179 233.534
L248.254 237.572
L248.328 235.597
L248.477 231.381
L248.7 244.139
L248.774 248.478
L248.849 248.385
L248.998 254.674
L249.221 281.557
L249.37 292.187
L249.667 242.608
L249.89 221.842
L249.965 222.395
L250.262 193.982
L250.337 189.243
L250.411 191.366
L250.709 224.464
L251.081 284.663
L251.155 283.167
L251.453 267.95
L251.527 268.34
L251.676 276.156
L251.75 274.413
L252.346 219.083
L252.42 219.344
L252.494 224.667
L252.569 224.089
L253.015 172.728
L253.685 260.713
L253.834 266.568
L253.908 265.709
L254.057 260.268
L254.131 260.698
L254.206 260.239
L254.354 267.091
L254.652 298.24
L254.726 296.527
L255.024 240.643
L255.173 225.575
L255.247 227.14
L255.322 225.837
L255.619 198.07
L255.768 192.486
L255.842 191.385
L255.917 191.79
L256.066 201.832
L256.438 254.847
L256.512 253.307
L256.735 243.171
L256.81 241.779
L256.884 243.403
L256.958 243.359
L257.033 244.119
L257.107 243.526
L257.182 243.66
L257.256 244.341
L257.479 265.753
L257.851 299.153
L258 290.439
L258.074 290.632
L258.223 279.365
L258.372 247.772
L258.744 149.207
L258.818 147.617
L258.967 161.56
L259.562 258.525
L259.711 254.689
L259.934 240.426
L260.009 242.381
L260.158 254.181
L260.53 296.951
L260.604 295.598
L260.678 296.013
L260.753 293.095
L261.05 252.092
L261.497 204.725
L261.571 203.911
L261.646 204.019
L261.794 209.653
L262.092 221.773
L262.166 222.558
L262.241 221.151
L262.39 215.365
L262.538 219.068
L262.762 238.688
L263.134 268.75
L263.282 277.514
L263.357 276.897
L264.101 226.824
L264.25 219.71
L264.398 223.906
L264.473 222.06
L264.547 222.154
L264.622 226.938
L265.068 287.462
L265.217 278.649
L265.366 254.319
L265.738 178.159
L265.812 178.805
L266.035 202.153
L266.556 260.209
L266.63 261.838
L266.705 261.216
L266.779 258.664
L266.854 259.251
L267.077 271.693
L267.226 277.01
L267.523 265.487
L267.821 234.19
L268.044 213.642
L268.193 216.797
L268.416 227.026
L268.565 223.541
L268.862 206.281
L268.937 208.527
L269.086 227.807
L269.383 276.763
L269.532 259.276
L269.83 218.154
L269.904 221.522
L270.35 281.375
L270.574 273.559
L270.946 239.478
L271.169 213.918
L271.243 214.689
L271.69 247.116
L271.764 244.148
L272.285 215.928
L272.359 215.064
L272.508 219.902
L272.88 241.576
L272.954 241.241
L273.103 237.735
L273.178 239.592
L273.922 308.05
L273.996 303.453
L274.294 236.165
L274.591 184.167
L274.74 173.794
L274.889 182.217
L275.112 200.154
L275.782 266.346
L275.93 275.302
L276.005 275.228
L276.228 270.291
L276.302 271.179
L276.451 267.225
L276.823 243.25
L277.121 219.305
L277.195 220.272
L277.418 229.752
L277.716 259.044
L277.79 257.8
L278.162 225.452
L278.237 226.311
L278.386 230.779
L278.46 230.522
L278.758 239.858
L278.981 255.711
L279.055 253.327
L279.278 243.65
L279.353 242.756
L279.65 225.802
L279.725 227.713
L280.022 237.873
L280.097 237.197
L280.32 230.162
L280.618 247.693
L280.692 245.842
L280.915 235.222
L281.287 254.245
L281.436 245.644
L281.51 246.252
L281.585 246.819
L281.808 263.359
L281.882 270.093
L281.957 269.323
L282.18 248.197
L282.478 211.272
L282.552 211.509
L282.626 209.46
L283.073 224.321
L283.445 262.238
L283.594 260.708
L283.742 256.951
L283.817 256.911
L283.891 255.766
L283.966 256.19
L284.189 266.928
L284.263 265.66
L284.561 238.209
L284.858 195.789
L285.007 209.959
L285.305 242.702
L285.379 243.127
L285.751 230.68
L285.826 230.013
L286.272 255.297
L286.346 253.771
L286.867 214.718
L287.016 222.741
L287.314 287.645
L287.537 370.011
L287.611 369.577
L287.76 326.12
L288.281 113.077
L288.355 109.266
L288.504 134.045
L289.025 277.647
L289.099 281.128
L289.174 280.111
L289.397 272.28
L289.471 272.093
L289.62 275.129
L289.843 270.794
L289.992 270.444
L290.066 268.844
L290.364 245.659
L290.662 212.156
L290.736 209.88
L291.034 192.175
L291.108 193.479
L291.629 229.352
L291.926 246.79
L292.001 248.552
L292.522 289.501
L292.596 289.97
L292.894 270.962
L293.414 209.569
L293.563 212.659
L293.786 227.96
L294.01 244.06
L294.382 234.008
L294.53 241.384
L294.828 258.822
L294.902 258.703
L294.977 257.336
L295.572 227.007
L295.646 226.898
L295.795 224.43
L296.018 233.938
L296.167 226.069
L296.316 234.329
L296.39 234.185
L296.614 239.404
L296.911 262.233
L297.283 227.673
L297.358 233.539
L297.655 288.928
L297.73 297.257
L297.804 295.534
L298.176 215.962
L298.25 216.12
L298.325 218.722
L298.399 218.179
L298.474 216.994
L298.846 162.123
L298.92 165.406
L299.069 189.845
L299.515 315.396
L299.59 316.759
L299.738 306.875
L299.962 288.296
L300.11 281.291
L300.334 247.688
L300.706 189.86
L300.854 187.643
L300.929 189.287
L301.152 207.056
L301.524 246.326
L301.673 252.27
L301.822 242.49
L302.045 225.93
L302.194 233.805
L302.491 271.796
L302.714 291.185
L302.789 290.261
L303.086 273.06
L303.533 209.949
L303.756 200.168
L303.979 209.421
L304.128 205.16
L304.351 261.878
L304.426 258.214
L304.649 202.262
L304.723 205.13
L305.244 312.681
L305.318 306.643
L305.914 228.621
L305.988 227.816
L306.062 228.241
L306.211 217.784
L306.36 211.376
L306.509 226.138
L306.732 258.037
L306.806 257.227
L307.03 224.385
L307.104 223.314
L307.178 224.588
L307.327 237.775
L307.476 247.437
L307.625 241.635
L307.699 243.744
L308.071 276.551
L308.146 271.011
L308.666 186.3
L308.815 211.203
L309.187 280.999
L309.262 281.375
L309.336 274.068
L309.634 151.582
L309.708 161.121
L309.857 239.029
L310.08 329.655
L310.601 213.83
L310.75 188.872
L310.824 192.462
L310.973 229.159
L311.196 292.162
L311.27 291.318
L311.419 276.783
L311.642 248.676
L311.717 247.54
L311.791 244.356
L312.014 227.96
L312.238 209.06
L312.312 210.709
L312.61 233.277
L312.833 223.778
L312.907 228.073
L313.13 251.47
L313.205 249.16
L313.354 237.478
L313.502 245.59
L313.651 231.045
L313.8 216.278
L313.874 220.732
L314.098 246.192
L314.246 251.12
L314.47 279.217
L314.544 276.339
L314.767 267.723
L314.99 255.05
L315.362 182.701
L315.437 183.343
L315.586 171.464
L315.66 180.311
L315.958 313.456
L316.032 308.968
L316.404 255.909
L316.702 237.39
L316.85 234.842
L317.148 219.961
L317.371 224.548
L317.446 222.005
L317.52 222.114
L317.892 253.045
L318.115 246.346
L318.413 235.059
L318.71 245.467
L318.934 257.671
L319.082 248.73
L319.231 238.713
L319.454 264.766
L319.603 273.964
L319.678 268.726
L320.198 163.762
L320.273 172.358
L320.57 243.482
L320.645 244.055
L320.719 245.664
L320.868 242.465
L321.091 266.03
L321.463 297.795
L321.538 297.376
L321.761 282.199
L322.356 214.185
L322.728 136.825
L322.877 159.541
L323.472 249.515
L323.993 315.678
L324.142 305.463
L324.588 250.493
L324.886 233.785
L325.034 231.322
L325.406 213.044
L325.555 196.234
L325.63 199.917
L325.853 231.159
L326.076 215.029
L326.299 227.165
L326.671 221.196
L326.746 220.1
L326.969 234.101
L327.415 323.844
L327.49 319.558
L328.308 171.474
L328.382 171.8
L328.531 222.948
L328.754 294.103
L328.829 293.387
L328.978 266.736
L329.35 97.9745
L329.498 101.672
L329.87 270.143
L330.094 334.306
L330.168 333.644
L330.242 331.348
L330.317 332.8
L330.466 350.806
L330.763 313.841
L331.507 124.976
L331.582 128.881
L331.954 210.393
L332.326 296.517
L332.846 247.55
L332.921 248.646
L333.144 243.176
L333.293 241.779
L333.442 256.709
L333.516 262.771
L333.59 260.036
L333.888 232.605
L333.962 232.497
L334.111 241.695
L334.186 239.552
L334.334 209.366
L334.409 196.046
L334.632 233.351
L334.855 258.501
L335.078 267.294
L335.227 258.649
L335.599 220.929
L335.674 221.146
L335.748 225.15
L335.971 253.095
L336.12 255.637
L336.269 234.096
L336.343 224.163
L336.418 227.421
L336.715 263.512
L336.864 253.322
L337.459 192.072
L337.534 196.777
L337.906 277.617
L337.98 274.986
L338.129 253.593
L338.352 234.111
L338.724 217.261
L338.798 219.428
L339.17 257.444
L339.245 261.503
L339.617 308.899
L339.691 311.383
L339.766 303.236
L340.286 182.582
L340.51 177.058
L340.584 179.437
L340.956 267.921
L341.03 264.781
L341.179 231.875
L341.402 180.069
L341.477 186.048
L341.923 276.541
L341.998 275.884
L342.146 270.187
L342.444 253.243
L342.518 254.423
L342.593 257.37
L342.667 256.783
L343.039 242.855
L343.114 237.844
L343.188 239.33
L343.411 261.335
L343.56 242.198
L343.858 199.546
L343.932 199.966
L344.155 223.101
L344.453 253.944
L344.527 253.875
L344.602 254.911
L344.676 254.097
L344.825 250.32
L344.899 251.446
L345.122 262.841
L345.197 262.144
L345.643 225.763
L345.718 227.096
L345.941 234.61
L346.015 234.057
L346.164 231.174
L346.313 239.419
L346.462 244.015
L346.759 207.559
L346.908 221.448
L347.28 289.195
L347.578 251.218
L347.95 201.185
L348.024 204.691
L348.247 233.731
L348.619 184.848
L348.768 252.245
L348.917 294.038
L349.066 288.059
L349.289 252.354
L349.363 257.424
L349.512 287.556
L349.735 374.193
L349.958 295.223
L350.256 175.428
L350.479 187.608
L350.628 164.172
L350.777 121.48
L350.926 79.2726
L351.074 169.919
L351.298 259.849
L351.521 283.384
L351.595 284.485
L351.818 311.501
L351.893 306.139
L352.265 233.05
L352.637 273.52
L352.711 270.784
L353.083 238.461
L353.158 236.708
L353.306 241.102
L353.381 247.53
L353.455 247.372
L353.604 222.726
L353.678 222.929
L353.902 284.993
L353.976 272.828
L354.422 121.91
L354.646 229.036
L354.943 309.536
L355.092 329.921
L355.166 329.66
L355.762 201.348
L355.985 139.491
L356.059 139.644
L356.208 156.228
L356.58 232.383
L356.878 296.606
L357.175 333.98
L357.324 348.189
L357.398 344.629
L357.77 229.989
L358.142 142.483
L358.217 142.73
L358.366 154.1
L358.886 220.835
L359.11 280.718
L359.333 322.901
L359.63 296.68
L360.077 215.987
L360.3 235.805
L360.672 192.97
L360.821 208.626
L361.193 256.778
L361.416 272.848
L361.49 273.263
L361.714 279.938
L361.788 278.22
L362.458 233.311
L362.606 225.402
L362.681 226.276
L362.978 237.962
L363.053 236.466
L363.276 215.617
L363.574 178.524
L363.722 194.614
L364.169 261.103
L364.392 271.816
L364.466 272.157
L364.541 271.248
L364.987 249.16
L365.062 251.623
L365.21 254.531
L365.657 237.153
L365.806 230.443
L366.178 246.192
L366.252 245.714
L366.326 244.227
L366.475 248.103
L366.624 242.05
L366.698 242.554
L366.773 240.732
L366.922 233.914
L367.07 232.112
L367.219 235.592
L367.294 235.543
L367.368 235.385
L367.517 237.345
L367.591 235.207
L367.666 236.53
L367.814 242.396
L368.41 219.532
L368.633 226.424
L368.707 225.145
L368.856 221.882
L369.005 239.661
L369.302 288.02
L369.377 285.211
L369.749 249.332
L369.823 252.507
L369.898 251.149
L369.972 251.87
L370.046 250.903
L370.195 243.921
L370.642 217.315
L370.716 218.199
L371.014 239.833
L371.088 237.725
L371.534 208.957
L371.609 211.173
L371.758 233.376
L372.055 283.033
L372.13 285.384
L372.353 272.137
L372.65 254.176
L372.874 248.128
L372.948 246.834
L373.097 234.032
L373.469 196.471
L373.543 197.088
L373.766 220.949
L374.138 250.295
L374.362 266.8
L374.51 279.484
L374.659 274.181
L374.957 239.32
L375.254 155.981
L375.329 152.555
L375.403 156.386
L375.552 195.582
L375.924 324.797
L375.998 333.866
L376.073 332.553
L376.594 252.221
L376.742 254.823
L376.891 242.47
L377.263 196.915
L377.338 195.266
L377.561 198.366
L377.933 229.806
L378.007 228.271
L378.23 209.974
L378.305 210.472
L378.454 219.828
L379.049 290.074
L379.123 289.368
L379.718 247.935
L380.016 262.806
L380.165 251.515
L380.611 204.928
L380.686 205.975
L380.909 210.285
L380.983 210.685
L381.206 223.235
L381.653 265.22
L381.802 260.782
L382.099 234.768
L382.322 219.848
L382.397 218.569
L382.769 257.271
L382.992 276.62
L383.438 237.612
L383.513 236.644
L383.81 223.773
L383.885 223.496
L384.108 211.776
L384.331 222.924
L384.703 279.247
L384.852 269.506
L385.15 246.365
L385.224 245.082
L385.447 232.684
L385.522 235.326
L385.67 236.397
L385.745 235.864
L385.968 236.787
L386.042 236.496
L386.191 226.548
L386.414 216.91
L386.563 224.948
L386.861 247.644
L386.935 246.597
L387.084 237.804
L387.158 238.994
L387.382 247.713
L387.605 256.259
L387.679 255.39
L387.828 254.126
L387.902 250.542
L388.2 220.835
L388.274 219.255
L388.349 220.386
L388.572 237.187
L388.721 251.199
L388.795 250.824
L388.87 251.006
L389.093 262.273
L389.242 260.288
L389.39 255.746
L389.465 254.995
L389.539 256.22
L389.688 248.78
L389.762 242.855
L389.837 245.585
L389.911 249.826
L389.986 249.061
L390.432 221.615
L390.506 222.909
L390.581 226.538
L390.655 225.639
L391.027 217.996
L391.25 233.672
L391.474 219.981
L391.548 220.198
L392.069 248.454
L392.292 273.416
L392.366 273.051
L392.441 268.064
L392.664 242.87
L392.738 243.684
L392.813 243.013
L392.887 243.373
L393.036 250.098
L393.11 256.195
L393.408 246.163
L393.557 245.151
L393.631 245.941
L393.78 243.887
L393.929 245.294
L394.375 225.891
L394.45 225.377
L394.97 250.814
L395.045 250.937
L395.268 239.562
L395.491 209.988
L395.566 213.37
L396.012 273.046
L396.086 271.204
L396.533 231.771
L396.83 239.967
L396.905 239.448
L397.054 225.387
L397.277 205.086
L397.351 205.56
L397.946 263.951
L398.17 252.374
L398.318 258.521
L398.765 221.324
L399.062 242.105
L399.286 273.939
L399.434 298.852
L399.509 295.416
L400.104 203.323
L400.402 187.44
L400.476 189.83
L400.625 200.988
L400.997 250.374
L401.146 251.5
L401.592 281.024
L401.89 262.416
L402.336 220.258
L402.485 212.575
L402.634 216.535
L402.708 217.414
L403.154 263.27
L403.229 264.188
L403.75 219.808
L404.122 244.998
L404.196 243.023
L404.27 243.082
L404.419 244.938
L404.494 244.534
L404.717 247.496
L404.94 235.025
L405.014 236.121
L405.238 261.28
L405.312 258.437
L405.535 235.607
L405.833 242.218
L405.907 242.529
L406.056 221.388
L406.279 191.662
L406.354 191.602
L406.428 195.424
L406.949 290.637
L407.023 288.05
L407.395 257.736
L407.47 255.603
L407.618 259.157
L408.065 224.588
L408.214 220.124
L408.511 194.9
L409.032 258.476
L409.255 242.49
L409.478 245.674
L409.627 249.031
L409.702 247.234
L410.074 270.187
L410.148 269.155
L410.669 231.351
L410.743 232.457
L410.818 230.078
L411.338 194.53
L411.413 200.746
L411.934 315.293
L412.008 314.31
L412.306 259.217
L412.603 216.777
L412.901 202.361
L412.975 201.58
L413.273 219.083
L413.347 218.915
L413.422 217.241
L413.645 206.261
L413.868 230.517
L414.24 289.284
L414.389 291.639
L414.463 289.763
L414.835 259.439
L414.91 260.283
L414.984 258.476
L415.207 234.482
L415.43 204.434
L415.505 204.78
L415.728 215.419
L416.174 244.351
L416.323 253.914
L416.472 247.506
L416.546 248.39
L416.77 241.947
L416.918 247.674
L417.365 225.861
L417.514 229.994
L417.662 227.189
L417.886 232.699
L417.96 232.734
L418.109 238.244
L418.406 251.594
L418.481 251.52
L418.63 253.43
L418.704 253.623
L418.853 251.594
L419.002 239.893
L419.076 240.51
L419.225 249.337
L419.299 248.71
L419.448 239.927
L419.522 240.223
L419.746 232.991
L419.894 237.187
L419.969 237.049
L420.118 239.991
L420.266 247.372
L420.341 247.397
L420.49 248.819
L420.638 254.561
L421.01 232.057
L421.085 230.64
L421.308 238.782
L421.382 236.703
L421.531 233.83
L421.68 228.197
L421.829 231.598
L421.978 230.038
L422.052 228.32
L422.126 229.327
L422.424 251.781
L422.573 259.157
L422.87 247.234
L423.019 253.233
L423.168 256.773
L423.391 253.613
L423.466 254.052
L423.54 253.356
L424.135 215.069
L424.21 213.755
L424.284 210.448
L424.358 211.405
L424.507 214.338
L424.656 224.509
L424.954 250.922
L425.028 248.819
L425.102 246.484
L425.177 247.313
L425.326 249.476
L425.4 249.342
L425.549 256.486
L425.623 255.316
L425.698 254.21
L425.846 257.701
L425.995 252.863
L426.293 259.414
L426.367 258.654
L426.442 258.881
L426.59 248.019
L426.962 225.619
L427.037 223.566
L427.26 211.682
L427.334 210.477
L427.483 219.176
L427.632 235.78
L427.706 234.694
L427.781 235.775
L427.93 240.688
L428.004 238.002
L428.45 258.535
L428.525 259.31
L428.599 255.543
L428.674 256.027
L428.897 259.799
L428.971 258.945
L429.12 261.35
L429.492 220.243
L429.566 220.465
L429.715 224.731
L429.938 217.147
L430.013 217.369
L430.087 213.711
L430.236 223.057
L430.385 221.206
L430.534 224.849
L430.608 222.144
L431.203 283.853
L431.352 291.935
L431.426 291.446
L432.096 231.727
L432.691 198.776
L432.766 201.027
L433.361 243.408
L433.435 244.795
L433.956 268.148
L434.03 267.343
L434.179 275.588
L434.402 250.858
L434.774 216.288
L434.923 211.805
L434.998 213.444
L435.816 273.07
L435.89 273.046
L436.039 274.324
L436.262 251.767
L436.56 220.416
L436.634 218.569
L436.783 224.222
L436.858 226.024
L437.006 221.956
L437.304 205.249
L437.676 222.544
L438.197 266.351
L438.42 271.416
L438.718 275.805
L438.941 271.871
L439.015 274.458
L439.164 261.893
L439.908 186.705
L439.982 192.131
L440.429 263.028
L440.503 263.749
L440.875 241.833
L441.173 206.029
L441.247 202.444
L441.322 205.491
L441.842 252.275
L442.14 261.354
L442.512 285.522
L442.586 287.729
L442.735 277.795
L443.702 179.383
L443.851 197.004
L444.298 266.84
L444.521 285.877
L444.595 285.63
L444.67 284.569
L444.818 269.639
L445.265 204.281
L445.488 185.436
L445.562 185.885
L445.786 198.988
L446.083 258.007
L446.381 298.319
L446.455 296.487
L446.827 263.892
L447.348 219.329
L447.497 217.557
L447.571 217.888
L447.72 221.847
L448.018 238.698
L448.241 263.142
L448.315 263.571
L448.464 269.866
L448.538 266.928
L448.985 227.357
L449.134 220.11
L449.431 226.35
L449.506 222.632
L449.729 193.133
L449.803 193.098
L449.878 191.198
L449.878 191.198" style="fill:none;stroke:#808080;stroke-linecap:square;"/>
   </g>
  </g>
 </g>
 <defs>
  <clipPath id="p7ff5b81e1d">
   <rect height="345.6" width="446.4" x="72.0" y="43.2"/>
  </clipPath>
 </defs>
</svg>
