<?xml version="1.0" encoding="utf-8" standalone="no"?>
<!DOCTYPE svg PUBLIC "-//W3C//DTD SVG 1.1//EN"
  "http://www.w3.org/Graphics/SVG/1.1/DTD/svg11.dtd">
<!-- Created with matplotlib (http://matplotlib.org/) -->
<svg height="432pt" version="1.1" viewBox="0 0 576 432" width="576pt" xmlns="http://www.w3.org/2000/svg" xmlns:xlink="http://www.w3.org/1999/xlink">
 <defs>
  <style type="text/css">
*{stroke-linecap:butt;stroke-linejoin:round;}
  </style>
 </defs>
 <g id="figure_1">
  <g id="patch_1">
   <path d="
M0 432
L576 432
L576 0
L0 0
z
" style="fill:#ffffff;"/>
  </g>
  <g id="axes_1">
   <g id="line2d_1">
    <path clip-path="url(#p7ff5b81e1d)" d="
M72 201.237
L72.2976 216.841
L72.372 219.234
L72.4464 218.102
L72.5208 216.763
L72.744 235.711
L72.8928 224.928
L73.116 241.491
L73.5624 225.498
L73.9344 180.147
L74.0832 180.553
L74.232 173.537
L74.3808 191.387
L74.604 220.262
L74.7528 227.114
L74.8272 226.509
L74.9016 228.228
L75.0504 235.607
L75.2736 217.221
L75.348 218.724
L75.4968 227.848
L75.6456 222.267
L75.8688 243.029
L76.092 232.756
L76.3896 216.798
L76.464 215.139
L76.5384 215.942
L76.7616 195.699
L76.9848 209.359
L77.1336 197.522
L77.208 199.872
L77.3568 219.243
L77.5056 209.704
L77.58 213.247
L77.6544 220.444
L77.7288 216.219
L77.8776 196.977
L77.952 198.697
L78.0264 197.669
L78.1752 191.275
L78.7704 230.967
L78.9192 227.814
L79.1424 236.868
L79.44 217.152
L79.5144 219.2
L79.6632 234.57
L79.812 224.928
L79.9608 210.153
L80.1096 217.472
L80.2584 211.346
L80.3328 212.901
L80.4072 219.683
L80.4816 219.562
L80.6304 201.142
L80.7048 202.611
L80.928 223.269
L81.0768 210.698
L81.1512 212.097
L81.3 201.306
L81.3744 201.626
L81.5232 211.51
L81.672 206.17
L81.8208 216.538
L81.9696 222.094
L82.1184 216.927
L82.2672 220.366
L82.416 217.618
L82.5648 220.426
L82.788 225.507
L83.0856 216.08
L83.2344 211.804
L83.3832 216.331
L83.4576 215.26
L83.532 215.631
L83.6808 225.135
L83.904 219.329
L83.9784 227.831
L84.0528 227.105
L84.276 203.25
L84.4248 208.633
L84.4992 205.643
L84.5736 206.024
L84.648 208.97
L84.7224 208.46
L84.9456 210.214
L85.0944 214.62
L85.2432 209.747
L85.5408 214.983
L85.6896 227.183
L85.764 225.826
L85.9872 210.076
L86.136 219.536
L86.2104 219.39
L86.2848 218.776
L86.508 228.704
L86.5824 226.474
L86.8056 210.49
L87.3264 233.11
L87.4752 225.083
L87.5496 225.576
L87.624 228.073
L88.0704 198.429
L88.1448 194.282
L88.368 216.919
L88.4424 211.562
L88.5912 197.055
L88.74 201.539
L88.8144 201.202
L88.8888 204.373
L89.112 227.589
L89.1864 223.761
L89.2608 224.288
L89.3352 222.059
L89.484 210.896
L89.6328 217.567
L89.856 234.527
L89.9304 233.343
L90.0048 232.669
L90.0792 232.963
L90.5256 205.505
L90.6744 192.727
L90.7488 195.448
L91.1208 236.212
L91.1952 234.691
L91.2696 231.676
L91.344 232.203
L91.4184 233.87
L91.6416 211.415
L91.716 212.694
L91.7904 212.702
L92.0136 199.086
L92.1624 203.38
L92.3112 201.237
L92.3856 202.248
L92.5344 206.879
L92.6088 205.099
L92.6832 206.006
L92.9808 233.335
L93.1296 222.206
L93.204 225.472
L93.2784 225.109
L93.5016 208.996
L93.6504 215.208
L93.7992 208.797
L94.0224 224.902
L94.0968 221.005
L94.2456 228.902
L94.32 227.174
L94.4688 216.003
L94.692 227.572
L94.8408 214.413
L94.9152 215.173
L94.9896 221.04
L95.064 220.997
L95.2128 207.328
L95.3616 212.408
L95.5104 199.535
L95.5848 193.02
L95.6592 195.431
L95.808 210.318
L95.8824 209.013
L95.9568 209.177
L96.18 216.392
L96.2544 215.156
L96.4032 226.621
L96.4776 225.36
L96.552 217.186
L96.6264 217.376
L96.7752 231.468
L96.924 222.319
L97.296 201.168
L97.3704 202.447
L97.5192 223.856
L97.5936 221.221
L97.668 213.454
L97.7424 216.599
L97.8912 231.114
L98.04 215.044
L98.1888 224.643
L98.412 212.253
L98.5608 228.064
L98.6352 225.032
L98.784 213.307
L98.8584 214.828
L99.156 199.276
L99.2304 199.768
L99.6768 229.896
L99.9 216.841
L99.9744 216.919
L100.198 199.915
L100.421 218.716
L100.495 219.632
L100.644 232.099
L100.718 231.01
L101.165 214.905
L101.239 213.29
L101.462 228.41
L101.983 206.196
L102.058 209.609
L102.132 209.54
L102.355 193.599
L102.504 211.354
L102.578 209.056
L102.653 206.119
L102.802 218.906
L102.876 215.908
L102.95 209.851
L103.025 212.4
L103.174 228.652
L103.248 228.608
L103.397 226.794
L103.471 226.492
L103.62 217.005
L103.694 218.387
L103.843 232.306
L103.918 228.047
L104.066 203.457
L104.141 203.483
L104.29 215.208
L104.513 204.382
L104.736 217.826
L104.81 216.279
L104.959 227.814
L105.034 227.166
L105.257 218.292
L105.406 213.817
L105.554 221.092
L105.703 225.282
L105.778 224.314
L105.926 211.51
L106.075 214.033
L106.224 206.637
L106.298 205.894
L106.522 190.299
L107.042 236.367
L107.117 233.084
L107.266 227.373
L107.34 228.816
L107.489 223.597
L107.712 214.784
L107.935 227.105
L108.158 206.697
L108.307 199.794
L108.456 215.45
L108.53 215.337
L108.605 213.825
L108.828 219.485
L108.977 218.18
L109.2 219.243
L109.423 223.312
L109.572 231.002
L109.944 210.197
L110.018 210.568
L110.093 215.018
L110.167 214.188
L110.39 180.302
L110.465 185.78
L110.614 214.741
L110.688 210.179
L110.837 197.919
L111.209 229.948
L111.358 219.476
L111.432 219.951
L111.655 237.352
L111.953 219.346
L112.027 221.411
L112.176 235.944
L112.474 198.152
L112.622 211.147
L112.697 210.197
L112.846 203.639
L112.92 204.14
L113.292 228.945
L113.366 229.282
L113.59 219.39
L113.738 231.537
L113.813 229.196
L114.185 189.806
L114.259 186.298
L114.631 211.32
L114.706 208.641
L114.78 213.402
L114.929 244.1
L115.003 241.62
L115.301 213.074
L115.524 225.291
L115.598 222.154
L115.747 204.14
L115.822 206.283
L115.97 230.44
L116.045 226.708
L116.417 196.744
L116.566 206.948
L116.64 203.794
L116.789 184.864
L116.863 187.897
L117.086 224.971
L117.31 218.629
L117.384 219.813
L117.682 232.574
L117.756 231.252
L117.905 226.302
L118.054 230.682
L118.202 224.116
L118.351 232.41
L118.426 229.559
L118.649 205.911
L118.798 210.508
L118.872 209.289
L118.946 206.119
L119.17 213.99
L119.318 221.377
L119.393 217.169
L119.542 196.839
L119.616 199.112
L119.765 224.669
L119.839 223.364
L119.988 211.916
L120.062 216.201
L120.137 215.476
L120.36 195.932
L120.658 217.636
L120.806 215.657
L120.955 221.783
L121.178 236.22
L121.253 236.765
L121.402 221.334
L121.55 204.823
L121.774 224.911
L121.997 212.002
L122.22 204.442
L122.294 205.03
L122.592 219.018
L122.741 207.708
L122.815 208.538
L122.964 213.272
L123.038 211.657
L123.113 212.106
L123.187 213.324
L123.262 212.4
L123.485 222.319
L123.559 221.593
L123.782 225.602
L123.857 225.576
L124.08 231.607
L124.378 240.195
L125.047 177.028
L125.568 218.638
L125.642 218.344
L125.94 239.495
L126.163 221.99
L126.238 224.565
L126.312 227.684
L126.386 225.887
L126.535 219.873
L126.61 221.187
L126.684 220.703
L126.982 197.133
L127.279 211.562
L127.726 236.039
L127.8 237.369
L127.949 226.129
L128.098 232.712
L128.172 232.064
L128.395 219.476
L128.544 213.903
L128.693 221.342
L128.767 220.893
L128.99 204.9
L129.139 211.691
L129.362 198.636
L129.437 199.734
L129.511 198.299
L129.66 193.28
L129.734 194.394
L130.032 217.057
L130.106 211.614
L130.255 199.025
L130.85 237.62
L131.148 229.645
L131.297 217.644
L131.446 229.153
L131.594 225.04
L131.669 227.235
L131.818 235.892
L132.041 225.913
L132.115 225.93
L132.413 197.781
L132.487 197.444
L132.71 166.029
L132.934 198.688
L133.231 225.835
L133.38 235.158
L133.529 247.53
L133.752 221.982
L133.826 224.392
L133.901 222.846
L134.273 198.93
L134.347 199.371
L134.57 222.284
L134.719 214.905
L134.942 238.501
L135.091 229.87
L135.166 232.808
L135.389 260.075
L136.282 161.899
L136.43 164.111
L136.579 158.452
L136.728 179.101
L137.174 244.376
L137.323 259.142
L137.398 258.546
L137.621 242.683
L137.77 258.823
L137.918 272.759
L138.29 253.353
L139.034 163.912
L139.109 162.443
L139.183 166.409
L139.481 194.869
L139.778 217.497
L139.853 213.748
L140.002 189.521
L140.076 190.921
L140.299 227.58
L140.448 219.683
L140.597 238.061
L140.894 270.694
L140.969 266.149
L141.341 219.692
L141.564 199.5
L141.862 185.184
L141.936 185.296
L142.159 208.27
L142.308 225.377
L142.531 205.79
L142.754 226.44
L142.903 207.173
L142.978 208.149
L143.275 231.175
L143.35 227.736
L143.424 228.6
L143.498 230.069
L143.722 226.448
L143.87 224.332
L144.094 201.807
L144.168 203.673
L144.242 205.142
L144.391 197.271
L144.466 198.109
L144.614 210.283
L144.689 209.203
L144.838 201.099
L145.061 208.279
L145.21 223.381
L145.358 219.277
L145.433 220.997
L145.582 226.518
L145.73 219.657
L145.805 219.83
L146.102 230.777
L146.177 230.397
L146.251 229.542
L146.474 218.171
L146.549 220.133
L146.698 224.064
L146.772 223.666
L146.995 226.863
L147.07 228.98
L147.516 197.461
L147.59 199.137
L147.814 187.206
L148.111 201.842
L148.186 203.06
L148.334 216.201
L148.483 229.559
L148.632 225.636
L148.781 228.902
L149.153 207.147
L149.45 228.833
L149.525 238.519
L149.599 238.51
L149.897 221.627
L150.046 218.076
L150.12 218.111
L150.269 224.072
L150.418 214.767
L150.566 221.524
L150.641 220.262
L150.79 209.108
L151.013 226.803
L151.087 226.258
L151.162 224.409
L151.459 196.295
L151.682 207.665
L151.98 189.78
L152.129 195.552
L152.426 217.515
L152.575 224.081
L152.65 224.228
L152.798 219.58
L152.873 219.735
L153.022 227.183
L153.096 225.783
L153.17 222.897
L153.245 222.949
L153.468 231.097
L153.542 230.216
L153.617 230.509
L153.914 235.607
L153.989 233.257
L154.212 209.505
L154.435 220.668
L154.584 214.664
L154.658 214.854
L154.733 215.191
L154.956 195.379
L155.03 198.386
L155.105 200.468
L155.179 199.12
L155.254 199.379
L155.402 208.685
L155.477 208.166
L155.626 200.321
L155.774 206.879
L155.849 204.728
L155.998 195.474
L156.146 205.021
L156.37 225.507
L156.518 230.786
L156.742 246.951
L156.965 243.875
L157.039 244.109
L157.114 243.046
L157.783 200.909
L157.858 202.507
L157.932 203.613
L158.081 194.601
L158.23 200.719
L158.304 200.071
L158.378 195.932
L158.602 214.949
L158.676 211.199
L158.75 207.717
L158.974 225.377
L159.122 213.307
L159.197 213.644
L159.494 223.813
L159.643 214.387
L159.792 221.023
L159.866 219.891
L160.164 201.479
L160.238 202.326
L160.536 212.262
L160.759 236.713
L160.834 235.875
L161.057 234.415
L161.28 224.003
L161.503 209.955
L161.578 209.618
L161.801 221.541
L161.875 220.599
L162.024 212.27
L162.173 203.915
L162.322 207.674
L162.47 199.025
L162.545 201.634
L162.768 218.932
L162.917 200.978
L163.066 207.821
L163.363 218.897
L163.438 220.236
L163.512 219.459
L163.661 220.85
L163.735 219.32
L163.81 219.727
L163.884 221.869
L164.107 236.756
L164.182 235.624
L164.405 224.021
L164.479 224.444
L164.702 213.281
L164.777 214.162
L164.851 215.225
L165 210.534
L165.149 220.288
L165.298 226.777
L165.67 200.338
L165.744 200.589
L165.818 201.133
L165.893 203
L166.042 192.381
L166.116 188.26
L166.265 195.854
L166.711 240.765
L166.786 234.847
L166.934 226.535
L167.158 236.091
L167.53 212.849
L167.678 210.05
L167.976 214.957
L168.125 211.631
L168.199 212.538
L168.348 217.757
L168.497 210.067
L168.646 215.009
L168.72 214.309
L168.794 211.208
L168.869 211.726
L169.018 219.778
L169.166 211.588
L169.315 221.385
L169.39 220.953
L169.538 208.296
L169.687 223.563
L169.836 212.426
L169.91 212.702
L170.059 224.677
L170.208 211.622
L170.282 213.238
L170.431 218.059
L170.58 214.551
L170.654 215.458
L170.803 208.624
L170.878 206.049
L170.952 206.456
L171.101 211.493
L171.175 210.032
L171.324 196.727
L171.547 212.728
L171.845 235.581
L171.994 234.855
L172.068 234.363
L172.217 228.496
L172.366 217.955
L172.44 218.854
L172.589 223.71
L172.738 218.707
L172.812 218.75
L172.886 218.802
L173.035 206.637
L173.258 224.513
L173.407 216.322
L173.556 227.935
L173.705 208.045
L173.779 208.088
L173.854 211.19
L174.002 195.362
L174.077 195.422
L174.226 212.486
L174.374 206.188
L174.523 216.599
L174.598 216.011
L174.821 204.667
L174.97 210.395
L175.118 195.768
L175.267 205.004
L175.416 198.04
L175.639 220.755
L175.862 246.441
L176.011 258.961
L176.086 258.062
L176.234 235.486
L176.309 237.879
L176.383 242.329
L176.904 185.849
L177.053 193.902
L177.127 192.303
L177.202 188.173
L177.425 204.33
L177.499 198.8
L177.648 186.54
L177.797 203.311
L178.02 225.498
L178.243 253.63
L178.392 245.05
L178.764 220.539
L178.838 222.353
L178.913 221.999
L179.136 208.97
L179.21 209.177
L179.434 211.475
L179.508 209.41
L179.657 200.632
L180.178 218.171
L180.475 212.296
L180.698 220.219
L180.847 211.415
L180.922 211.7
L180.996 211.899
L181.145 200.857
L181.294 207.985
L181.591 219.329
L181.666 216.668
L181.74 217.16
L181.963 229.403
L182.186 217.48
L182.261 218.353
L182.484 237.724
L182.856 204.753
L182.93 206.352
L183.154 220.539
L183.302 211.674
L183.377 208.546
L183.451 209.298
L183.6 221.48
L184.195 201.954
L184.344 185.313
L184.418 187.88
L184.79 223.649
L184.865 223.986
L185.088 240.411
L185.237 227.589
L185.386 240.48
L185.46 240.065
L185.832 203.535
L185.906 202.749
L185.981 204.347
L186.055 203.483
L186.204 199.855
L186.278 200.399
L186.427 210.56
L186.576 225.075
L186.65 225.135
L187.246 211.328
L187.32 212.4
L187.841 234.933
L187.99 222.802
L188.287 194.455
L188.362 191.353
L188.436 191.638
L188.585 208.106
L188.659 207.536
L188.808 193.824
L188.882 195.923
L189.18 230.311
L189.254 230.259
L189.329 225.394
L189.403 225.965
L189.552 245.854
L189.626 242.752
L189.85 226.094
L189.924 226.068
L189.998 229.965
L190.073 228.989
L190.147 226.872
L190.37 239.944
L190.817 193.435
L190.891 189.893
L191.114 210.041
L191.189 208.106
L191.263 206.041
L191.338 206.049
L191.412 205.54
L191.561 200.9
L191.635 202.438
L191.784 208.279
L191.933 195.146
L192.305 219.346
L192.454 230.639
L192.602 226.336
L192.677 226.518
L192.9 231.114
L192.974 229.619
L193.198 213.558
L193.272 214.136
L193.346 214.517
L193.421 216.599
L193.495 215.83
L193.644 203.846
L193.718 204.563
L193.793 206.041
L193.942 202.231
L194.165 211.475
L194.537 264.879
L194.611 263.747
L194.909 242.951
L195.504 172.95
L195.876 195.725
L196.174 216.201
L196.322 219.476
L196.397 219.329
L196.62 210.974
L196.769 209.108
L196.843 207.242
L197.066 220.392
L197.141 218.837
L197.215 215.83
L197.364 227.261
L197.513 247.141
L197.587 246.329
L198.108 211.683
L198.257 198.567
L198.406 202.568
L198.554 191.672
L198.703 203.017
L198.852 213.808
L198.926 213.609
L199.15 245.145
L199.224 244.299
L199.447 230.673
L199.894 185.737
L200.266 230.086
L200.414 241.586
L200.563 234.596
L200.712 236.834
L200.861 217.428
L201.084 189.694
L201.158 187.603
L201.233 187.819
L201.307 187.145
L201.382 187.81
L201.679 211.484
L201.902 227.477
L202.051 235.063
L202.2 240.514
L202.349 230.112
L202.572 214.759
L202.646 214.629
L202.87 203.319
L203.018 210.076
L203.093 209.747
L203.167 209.523
L203.316 219.2
L203.465 230.095
L203.539 229.472
L203.688 223.787
L203.837 227.036
L204.06 212.555
L204.209 217.618
L204.432 210.352
L204.581 214.404
L204.804 233.326
L204.878 229.438
L205.102 224.504
L205.25 208.814
L205.622 173.235
L205.697 173.261
L205.846 184.942
L206.366 226.25
L206.515 229.205
L206.664 216.426
L206.738 217.333
L207.036 237.611
L207.482 257.259
L207.557 255.799
L207.78 243.677
L208.152 207.812
L208.301 197.021
L208.524 175.904
L208.598 174.159
L208.97 193.288
L209.194 212.97
L209.268 210.655
L209.342 209.048
L209.566 230.527
L209.64 229.879
L210.086 188.502
L210.161 187.897
L210.235 189.21
L210.384 205.687
L210.533 242.925
L210.607 241.067
L210.682 236.531
L210.905 251.021
L211.128 244.385
L211.277 247.832
L211.351 246.07
L211.798 204.356
L211.946 200.874
L212.021 200.338
L212.17 208.4
L212.244 208.348
L212.393 203.881
L212.616 213.912
L212.69 216.875
L212.914 206.36
L213.137 215.536
L213.286 213.264
L213.36 211
L213.509 213.549
L213.658 203.527
L213.732 205.436
L213.955 222.483
L214.03 221.792
L214.699 195.638
L214.774 201.004
L214.997 222.794
L215.071 223.183
L215.22 240.022
L215.294 249.949
L215.369 249.716
L215.443 246.096
L215.518 247.858
L215.592 249.258
L215.666 246.338
L215.964 211.225
L216.41 180.311
L216.485 180.492
L216.782 195.872
L217.006 220.729
L217.229 233.17
L217.303 228.704
L217.526 237.404
L217.824 215.147
L218.047 213.86
L218.196 218.387
L218.27 217.523
L218.345 215.977
L218.419 217.385
L218.717 236.229
L218.791 235.218
L219.014 216.841
L219.089 220.184
L219.312 197.617
L219.386 197.798
L219.461 196.459
L219.684 186.402
L219.758 190.567
L220.13 232.306
L220.354 252.118
L220.428 250.468
L220.502 248.152
L220.651 233.205
L220.874 207.423
L220.949 206.49
L221.023 207.043
L221.321 175.127
L221.395 177.261
L221.618 202.006
L221.693 201.842
L222.362 253.388
L222.437 254.52
L222.586 235.909
L222.883 210.767
L223.181 180.432
L223.627 222.854
L223.85 240.134
L224.074 223.373
L224.371 193.029
L224.446 195.923
L224.594 213.402
L224.743 207.993
L224.966 217.463
L225.041 216.072
L225.115 216.201
L225.338 222.854
L225.487 213.575
L225.636 206.456
L225.71 207.838
L225.859 205.203
L225.934 206.68
L226.306 226.561
L226.38 224.738
L226.529 216.124
L226.678 218.396
L226.752 217.567
L226.826 218.318
L226.975 224.522
L227.05 224.263
L227.124 225.697
L227.496 241.396
L227.868 219.001
L227.942 219.104
L228.017 216.357
L228.463 175.844
L228.538 173.399
L229.133 224.168
L229.207 224.729
L229.282 220.729
L229.356 223.044
L229.579 244.437
L229.654 242.268
L229.728 242.562
L229.877 247.893
L229.951 245.206
L230.174 214.966
L230.546 176.25
L230.621 178.03
L230.844 210.948
L230.918 211.959
L231.142 224.375
L231.216 219.692
L231.29 220.936
L231.365 225.533
L231.439 224.124
L231.588 217.705
L231.737 221.239
L231.811 219.554
L231.96 210.862
L232.183 215.234
L232.258 212.339
L232.406 217.497
L232.63 234.466
L233.076 217.636
L233.299 206.093
L233.448 211.259
L233.522 210.784
L233.671 203.328
L233.746 203.829
L233.894 214.283
L234.043 203.898
L234.192 217.886
L234.341 230.129
L234.49 224.064
L234.713 209.255
L234.787 211.251
L234.936 215.977
L235.159 194.714
L235.234 197.098
L235.457 208.019
L235.531 207.112
L235.68 224.081
L235.829 240.221
L236.052 235.166
L236.126 234.44
L236.424 223.329
L236.498 222.552
L236.647 214.128
L236.796 218.785
L236.945 211.164
L237.094 213.92
L237.242 199.181
L237.466 219.986
L237.54 217.169
L237.689 209.739
L237.763 212.918
L237.838 212.815
L237.986 196.969
L238.061 197.746
L238.21 203.449
L238.358 200.554
L238.805 231.313
L238.954 229.533
L239.102 228.444
L239.251 228.695
L239.326 230.596
L239.623 220.737
L239.846 229.023
L240.07 242.787
L240.516 220.133
L240.739 190.178
L240.814 188.07
L241.186 162.374
L241.26 163.23
L241.334 166.798
L242.004 240.48
L242.45 266.892
L242.674 257.717
L242.748 258.036
L242.822 257.164
L243.492 179.438
L243.641 156.862
L243.79 172.371
L243.864 170.936
L243.938 167.74
L244.013 168.846
L244.906 252.904
L244.98 251.522
L245.054 249.958
L245.203 260.965
L245.278 260.196
L245.352 259.453
L245.426 262.227
L245.501 262.011
L245.724 239.521
L246.096 192.597
L246.17 192.675
L246.394 172.146
L246.542 184.605
L246.691 179.473
L246.766 180.907
L246.914 181.711
L247.138 194.152
L247.658 242.657
L247.733 244.333
L247.807 243.893
L247.956 235.564
L248.254 218.638
L248.328 214.776
L248.402 216.193
L248.477 215.502
L248.7 206.913
L248.774 205.592
L248.849 206.309
L249.072 223.424
L249.221 220.133
L249.295 220.737
L249.37 224.496
L249.444 222.915
L249.518 224.911
L249.593 222.656
L249.816 200.701
L250.114 228.505
L250.188 227.295
L250.56 245.517
L250.634 246.407
L250.783 227.416
L251.006 213.126
L251.602 173.788
L251.75 178.315
L251.825 176.803
L251.899 179.732
L252.346 233.093
L252.494 224.591
L252.643 229.205
L252.718 229.136
L252.792 228.859
L253.015 237.853
L253.164 237.197
L253.462 223.036
L253.61 216.219
L253.685 218.016
L253.759 213.817
L253.834 214.016
L253.908 218.007
L253.982 216.832
L254.057 212.452
L254.206 219.744
L254.354 225.204
L254.503 212.262
L254.875 235.814
L254.95 233.335
L255.173 215.709
L255.768 174.997
L255.842 173.909
L255.917 177.442
L255.991 176.146
L256.066 176.423
L256.438 226.639
L256.661 243.608
L256.81 257.12
L256.884 255.349
L256.958 252.144
L257.033 253.699
L257.107 254.356
L257.182 257.043
L257.256 254.701
L257.554 230.38
L257.702 235.814
L257.777 232.272
L258.074 199.353
L258.744 167.308
L258.818 169.96
L259.488 224.401
L259.637 228.937
L259.86 251.643
L259.934 251.159
L260.009 250.571
L260.306 235.339
L260.455 228.704
L260.53 229.853
L260.678 223.355
L260.827 214.283
L260.976 221.627
L261.125 212.365
L261.199 207.44
L261.348 216.227
L261.422 214.387
L261.571 204.728
L261.646 205.436
L261.794 213.912
L262.018 198.826
L262.166 201.505
L262.315 195.656
L262.39 197.28
L262.687 229.343
L262.762 228.289
L262.91 230.864
L262.985 229.498
L263.357 211.735
L263.506 216.944
L263.58 216.426
L263.729 212.011
L263.878 212.797
L264.101 189.703
L264.175 193.66
L264.547 217.109
L264.622 219.64
L264.845 240.808
L264.994 236.22
L265.142 229.447
L265.217 230.095
L265.291 227.572
L265.44 210.482
L265.663 226.163
L265.812 223.355
L265.961 221.696
L266.184 207.371
L266.258 207.294
L266.482 190.273
L266.556 194.973
L266.705 198.55
L266.779 199.587
L267.374 248.861
L267.449 248.368
L267.97 204.866
L268.044 211.821
L268.118 211.268
L268.193 208.944
L268.267 209.445
L268.342 209.531
L268.416 208.572
L268.565 213.48
L268.788 189.944
L269.011 205.194
L269.16 198.256
L269.383 210.179
L269.458 206.058
L269.532 206.265
L269.83 230.345
L270.053 247.746
L270.127 252.723
L270.202 250.856
L270.35 223.07
L270.425 223.908
L270.648 215.873
L270.797 221.178
L270.871 217.005
L271.094 223.926
L271.243 216.824
L271.318 219.968
L271.69 190.031
L271.764 192.968
L271.838 191.664
L271.987 187.456
L272.582 242.398
L272.657 238.389
L272.731 228.643
L272.88 246.433
L272.954 242.674
L273.103 227.062
L273.178 229.369
L273.252 226.889
L273.401 209.315
L273.475 210.413
L273.55 209.41
L273.922 190.022
L273.996 184.251
L274.07 184.562
L274.294 197.081
L274.368 199.224
L274.591 226.647
L274.666 225.196
L274.74 228.617
L274.889 245.681
L275.038 237.205
L275.112 239.875
L275.261 245.992
L275.41 233.222
L275.558 238.225
L275.633 238.052
L275.782 218.05
L275.93 220.176
L276.154 190.601
L276.228 191.949
L276.302 193.91
L276.451 183.646
L276.526 185.616
L276.749 193.798
L276.972 202.032
L277.046 199.258
L277.121 200.693
L277.195 205.687
L277.27 204.226
L277.418 208.909
L277.493 207.363
L277.642 225.178
L278.014 257.345
L278.162 268.387
L278.311 252.636
L278.46 261.25
L278.609 228.228
L278.758 206.265
L278.832 211.043
L278.906 208.667
L279.055 166.936
L279.13 171.887
L279.278 182.531
L279.353 183.672
L279.427 193.089
L279.502 192.027
L279.65 178.116
L279.948 202.308
L280.022 200.952
L280.097 207.656
L280.32 238.89
L280.394 234.803
L280.618 250.148
L280.766 231.278
L280.841 222.975
L280.915 226.25
L280.99 226.63
L281.287 196.787
L281.585 225.749
L281.659 224.159
L281.957 231.969
L282.106 221.904
L282.18 222.241
L282.254 221.904
L282.552 203.527
L282.626 206.81
L282.701 205.134
L282.85 186.782
L283.147 217.152
L283.222 218.033
L283.296 217.929
L283.445 199.656
L283.594 187.361
L283.891 201.704
L284.263 276.776
L285.007 203.146
L285.082 203.017
L285.156 201.583
L285.379 185.521
L285.528 200.261
L285.602 198.731
L285.677 199.682
L286.123 228.427
L286.198 230.673
L286.272 229.265
L286.421 217.705
L286.495 219.865
L286.57 219.407
L286.644 220.504
L286.793 225.351
L287.016 208.434
L287.09 204.157
L287.314 216.728
L287.388 217.359
L287.462 213.229
L287.686 189.901
L288.43 234.933
L288.504 235.667
L288.653 225.256
L288.802 240.445
L289.025 214.404
L289.322 195.552
L289.471 209.315
L289.694 230.285
L289.918 206.162
L289.992 208.736
L290.141 215.156
L290.215 212.383
L290.29 215.977
L290.513 239.892
L290.662 228.833
L290.736 230.76
L290.81 236.808
L290.885 234.069
L291.034 225.619
L291.108 226.544
L291.257 217.523
L291.703 191.197
L291.778 191.059
L291.926 193.651
L292.075 191.759
L292.15 192.355
L292.373 179.101
L292.447 179.758
L292.596 176.241
L292.67 177.356
L292.819 196.2
L293.042 248.999
L293.34 302.385
L293.489 307.613
L293.638 282.669
L294.084 152.749
L294.158 151.082
L294.307 165.657
L294.977 237.084
L295.2 243.435
L295.274 242.994
L295.646 225.636
L295.721 225.04
L295.87 232.842
L296.018 234.985
L296.093 233.939
L296.167 227.615
L296.316 166.262
L296.539 72.1294
L296.614 64.2843
L296.688 69.3906
L297.283 360.602
L297.358 360.325
L297.506 340.764
L297.73 284.457
L298.176 150.114
L298.399 120.496
L298.474 122.648
L298.994 192.709
L299.218 210.248
L299.515 237.724
L299.59 235.762
L299.664 235.641
L300.036 244.497
L300.259 246.441
L300.78 269.648
L300.854 272.655
L300.929 266.573
L301.301 207.147
L301.45 193.357
L301.896 146.442
L302.119 160.232
L302.566 197.047
L302.64 195.388
L302.714 198.455
L303.012 243.927
L303.086 243.728
L303.31 249.025
L303.384 247.694
L303.607 235.054
L303.682 235.961
L303.83 238.406
L303.905 238.769
L304.128 228.574
L304.351 198.662
L304.649 220.228
L304.798 217.523
L304.872 221.688
L305.021 236.22
L305.244 229.568
L305.393 221.446
L305.69 195.595
L305.914 190.299
L305.988 189.564
L306.062 190.886
L306.211 202.075
L306.36 201.056
L306.509 198.619
L306.583 198.956
L306.732 199.526
L306.806 203.008
L306.881 202.369
L306.955 197.133
L307.03 199.863
L307.178 208.711
L307.253 209.272
L307.402 226.448
L307.625 259.816
L307.922 275.351
L308.071 267.048
L308.146 270.564
L308.22 269.441
L308.964 150.693
L309.113 161.312
L309.708 228.272
L309.782 227.554
L309.931 220.133
L310.08 233.654
L310.154 233.473
L310.378 216.936
L310.526 227.503
L310.675 213.704
L310.75 216.443
L310.898 224.34
L311.047 214.24
L311.196 228.669
L311.345 244.757
L311.419 244.472
L311.494 243.245
L311.568 243.322
L311.94 224.669
L312.312 201.28
L312.535 184.441
L312.833 198.921
L313.056 214.508
L313.13 210.525
L313.205 215.519
L313.428 241.214
L313.577 235.46
L313.651 234.579
L314.098 192.943
L314.172 195.88
L314.321 200.027
L314.544 193.029
L314.842 212.158
L314.99 225.921
L315.139 238.173
L315.362 229.879
L315.437 231.607
L315.66 234.328
L315.734 234.466
L315.958 231.831
L316.106 214.784
L316.33 196.208
L316.404 196.139
L316.627 187.448
L316.702 189.97
L316.925 203.578
L317.074 201.859
L317.148 203.717
L317.818 248.342
L317.892 244.592
L317.966 245.75
L318.041 243.236
L318.19 236.117
L318.264 239.244
L318.338 239.184
L318.562 225.567
L318.71 214.664
L319.008 179.836
L319.157 186.592
L319.38 193.928
L319.454 193.565
L319.678 212.227
L319.826 198.196
L319.975 181.235
L320.05 182.6
L320.347 211.527
L320.868 295.871
L320.942 301.832
L321.017 299.742
L321.091 289.806
L321.612 115.234
L321.686 115.9
L321.984 187.594
L322.207 231.235
L322.43 246.951
L322.654 262.382
L322.802 267.549
L322.951 251.098
L323.249 207.19
L323.546 178.367
L323.621 178.531
L324.067 214.482
L324.216 211.398
L324.365 201.652
L324.439 203.889
L324.737 240.428
L324.886 254.451
L324.96 240.316
L325.258 114.768
L325.406 150.313
L325.927 377.683
L326.076 352.005
L326.82 82.0914
L326.894 83.8798
L327.118 126.017
L328.085 325.031
L328.159 326.292
L328.382 298.955
L329.052 157.406
L329.424 98.5851
L329.498 100.771
L329.647 145.552
L330.168 346.449
L330.317 342.078
L330.391 338.129
L330.54 307.146
L331.21 101.099
L331.284 97.4619
L331.358 99.6306
L331.582 120.513
L332.326 310.084
L332.474 301.245
L332.623 280.336
L332.921 224.686
L333.367 184.182
L333.516 185.659
L333.59 184.674
L333.739 187.983
L334.037 209.229
L334.186 223.234
L334.26 222.776
L334.334 218.552
L334.483 232.825
L334.706 214.162
L334.781 215.64
L334.855 213.134
L335.078 194.783
L335.153 194.048
L335.227 194.93
L335.376 204.814
L335.674 242.096
L335.897 252.248
L336.046 244.567
L336.492 189.893
L336.566 190.083
L336.715 199.094
L336.79 197.651
L336.864 199.682
L337.013 190.757
L337.087 193.357
L337.31 222.776
L337.385 221.187
L337.459 217.117
L337.682 233.041
L337.831 231.08
L337.906 232.108
L337.98 231.391
L338.203 214.897
L338.278 218.163
L338.426 219.277
L338.65 242.908
L338.724 238.009
L338.947 218.811
L339.022 218.405
L339.17 212.452
L339.319 195.422
L339.394 196.856
L339.468 193.772
L339.691 164.31
L339.84 185.892
L339.914 184.726
L340.138 209.436
L340.584 249.042
L340.658 247.314
L340.807 261.458
L341.03 231.278
L341.328 202.593
L341.477 194.515
L341.626 216.772
L341.849 195.128
L341.923 195.059
L341.998 195.319
L342.072 192.675
L342.221 196.779
L342.667 263.514
L342.742 259.687
L342.89 243.944
L343.039 255.272
L343.709 162.392
L343.783 167.144
L343.932 190.048
L344.155 185.659
L344.304 195.008
L344.453 213.903
L344.602 231.814
L344.75 218.353
L344.899 208.719
L345.122 230.06
L345.271 225.239
L345.494 236.497
L345.866 222.656
L345.941 219.822
L346.015 220.824
L346.164 245.068
L346.238 243.357
L346.387 212.192
L346.462 213.869
L346.61 235.892
L346.759 205.635
L346.834 209.946
L346.982 236.497
L347.131 198.852
L347.206 202.187
L347.28 209.48
L347.354 208.348
L347.503 186.152
L347.652 195.932
L347.875 210.128
L347.95 209.981
L348.098 203.354
L348.247 197.513
L348.396 214.594
L348.545 230.976
L348.768 203.457
L348.842 205.937
L348.991 207.881
L349.214 227.304
L349.363 230.259
L349.512 219.986
L349.661 240.082
L349.735 251.574
L349.81 247.444
L349.958 231.01
L350.107 245.128
L350.33 204.857
L350.405 210.171
L350.479 219.208
L350.628 197.824
L350.777 213.791
L350.851 210.862
L351 180.561
L351.074 185.417
L351.223 213.774
L351.372 190.791
L351.595 230.198
L351.67 218.837
L351.744 216.037
L351.893 225.852
L352.116 205.721
L352.19 210.672
L352.339 195.137
L352.562 223.07
L352.637 214.456
L352.711 203.976
L352.86 223.208
L352.934 229.645
L353.009 228.418
L353.083 230.604
L353.232 240.748
L353.306 237.007
L353.455 220.858
L353.678 240.359
L354.05 219.528
L354.199 205.954
L354.348 211.804
L354.497 191.102
L354.571 194.774
L354.72 209.981
L354.794 208.806
L354.943 212.59
L355.092 199.673
L355.241 214.352
L355.315 212.512
L355.464 205.894
L355.538 204.537
L355.687 195.794
L355.762 198.852
L355.91 212.996
L356.059 204.192
L356.282 228.159
L356.654 216.271
L357.101 239.979
L357.324 228.133
L357.398 232.021
L357.473 236.773
L357.622 226.137
L357.919 204.399
L358.068 188.165
L358.217 200.33
L358.291 206.274
L358.44 199.405
L358.514 201.047
L358.589 199.613
L358.663 200.304
L358.886 222.604
L359.035 213.488
L359.333 233.352
L359.407 230.915
L359.779 210.663
L359.854 212.417
L359.928 217.463
L360.151 199.44
L360.226 197.133
L360.374 178.773
L360.449 184.89
L360.598 222.146
L360.672 220.66
L360.746 219.148
L360.895 240.765
L360.97 239.452
L361.044 238.087
L361.193 240.722
L361.267 238.985
L361.416 230.492
L361.49 234.415
L361.639 247.487
L361.862 217.273
L361.937 217.791
L362.011 219.701
L362.309 182.739
L362.532 198.299
L362.681 180.147
L362.904 211.147
L362.978 209.661
L363.053 203.12
L363.127 205.194
L363.425 223.304
L363.574 206.706
L363.797 244.627
L363.871 240.454
L364.094 219.951
L364.243 226.448
L364.541 202.438
L364.615 204.935
L364.838 216.953
L364.987 229.628
L365.062 235.901
L365.136 234.553
L365.21 233.957
L365.285 232.367
L365.508 234.337
L365.731 240.376
L365.88 242.225
L366.401 197.677
L366.624 169.71
L366.698 165.925
L366.773 172.163
L366.996 199.872
L367.145 178.272
L367.219 180.242
L367.517 217.826
L367.666 235.935
L367.74 233.127
L367.814 233.257
L367.963 237.067
L368.038 232.289
L368.261 211.424
L368.335 211.268
L368.41 211.864
L368.558 225.593
L368.782 238.622
L368.93 246.917
L369.005 245.845
L369.154 237.335
L369.228 238.138
L369.377 250.934
L369.451 246.752
L369.898 169.364
L369.972 169.589
L370.493 232.92
L370.642 219.804
L370.939 188.104
L371.014 185.521
L371.162 191.932
L371.237 188.752
L371.311 189.867
L371.906 266.771
L371.981 260.905
L372.278 230.682
L372.502 190.497
L372.576 192.502
L372.65 192.372
L372.725 191.75
L372.874 200.2
L373.022 216.573
L373.171 243.029
L373.32 237.827
L373.469 242.873
L373.618 231.054
L373.692 232.92
L373.841 245.085
L373.99 225.006
L374.213 199.31
L374.362 195.431
L374.51 182.963
L374.585 186.437
L374.659 185.745
L374.734 180.734
L374.808 182.367
L374.882 190.376
L374.957 189.331
L375.031 186.454
L375.254 208.356
L375.329 207.181
L375.403 210.084
L375.552 229.887
L375.626 227.917
L375.701 227.209
L375.85 234.224
L375.998 246.087
L376.073 244.947
L376.222 238.907
L376.37 240.186
L376.668 206.49
L376.817 195.146
L377.04 217.653
L377.189 201.583
L377.338 219.606
L377.412 218.431
L377.561 202.732
L377.71 215.873
L377.858 199.371
L377.933 203.25
L378.007 208.641
L378.082 208.045
L378.156 207.536
L378.305 223.934
L378.454 241.854
L378.602 230.19
L378.677 230.319
L378.751 230.717
L379.123 197.358
L379.198 196.761
L379.346 217.368
L379.495 236.592
L379.644 224.997
L379.718 227.675
L379.867 239.633
L380.388 195.552
L380.537 206.162
L380.686 189.556
L380.909 221.144
L380.983 214.56
L381.058 208.209
L381.132 211.216
L381.281 218.508
L381.43 200.01
L381.504 201.021
L381.653 220.089
L381.727 219.666
L381.876 216.331
L382.025 202.887
L382.099 207.492
L382.248 235.045
L382.322 233.706
L382.471 227.615
L382.546 228.833
L382.769 207.872
L382.918 217.878
L382.992 214.422
L383.141 233.836
L383.215 240.592
L383.438 215.26
L383.513 218.603
L383.587 222.949
L383.662 221.42
L383.736 215.536
L383.81 216.728
L383.885 221.455
L383.959 219.312
L384.108 212.763
L384.182 213.92
L384.257 213.169
L384.406 205.35
L384.554 213.748
L384.629 217.549
L384.703 217.23
L384.852 216.201
L385.075 210.369
L385.224 217.299
L385.298 215.821
L385.596 188.312
L385.745 200.762
L385.819 198.584
L385.968 185.555
L386.489 258.062
L386.563 259.799
L386.712 255.479
L387.158 213.653
L387.307 194.169
L387.456 222.872
L387.679 199.137
L387.828 211.804
L387.902 207.432
L387.977 208.598
L388.051 211.821
L388.126 210.767
L388.349 193.349
L388.423 194.169
L388.498 191.655
L388.944 220.582
L389.093 215.104
L389.167 216.849
L389.316 229.671
L389.39 228.669
L389.539 214.292
L389.762 227.952
L389.837 227.952
L390.06 205.082
L390.283 233.343
L390.506 222.638
L390.581 226.12
L390.655 228.92
L390.73 226.82
L390.878 215.251
L391.027 223.58
L391.102 223.062
L391.25 209.54
L391.325 210.015
L391.399 215.251
L391.474 214.249
L391.622 204.226
L391.697 204.373
L391.846 207.354
L391.92 206.594
L392.069 197.288
L392.143 198.714
L392.515 233.006
L392.59 235.814
L392.664 231.2
L392.887 208.918
L393.036 217.679
L393.185 211.432
L393.408 220.245
L393.482 219.191
L393.557 219.545
L393.631 219.312
L393.78 232.16
L393.854 229.766
L394.078 212.296
L394.226 213.67
L394.45 186.92
L394.673 212.711
L394.747 211.026
L394.822 210.776
L395.045 220.496
L395.268 210.672
L395.342 211.683
L395.491 208.555
L395.64 207.993
L395.789 212.244
L395.863 212.106
L396.086 223.891
L396.161 223.096
L396.235 223.148
L396.384 228.885
L396.533 238.968
L396.607 238.225
L396.682 238.51
L396.756 240.817
L396.83 236.721
L396.979 210.629
L397.054 210.836
L397.202 240.627
L397.277 238.251
L397.798 179.602
L397.872 182.497
L398.021 202.991
L398.17 196.459
L398.318 210.56
L398.393 207.622
L398.542 191.37
L398.616 192.899
L398.839 229.455
L398.914 227.537
L399.137 217.506
L399.434 229.015
L399.509 236.886
L399.583 236.393
L399.806 222.206
L399.881 221.956
L399.955 223.727
L400.03 221.722
L400.327 189.245
L400.402 190.895
L400.774 223.761
L400.848 220.642
L400.922 221.144
L401.22 235.235
L401.294 243.798
L401.369 242.502
L401.592 220.919
L401.666 222.725
L401.815 211.596
L401.964 205.393
L402.187 217.627
L402.41 206.628
L402.559 210.862
L402.634 213.238
L402.708 212.002
L403.006 199.371
L403.08 198.04
L403.378 220.573
L403.452 216.841
L403.526 212.832
L403.75 222.414
L403.824 222.344
L403.973 219.77
L404.047 220.807
L404.196 226.293
L404.345 212.97
L404.419 213.428
L404.568 226.025
L404.791 219.364
L405.014 228.116
L405.089 227.209
L405.163 228.436
L405.238 231.857
L405.535 217.204
L405.684 205.782
L405.758 206.006
L405.907 213.221
L406.13 179.101
L406.205 179.36
L406.428 199.82
L406.502 195.802
L406.874 224.332
L406.949 224.738
L407.023 223.347
L407.098 225.368
L407.246 234.458
L407.47 224.816
L407.693 234.095
L407.767 231.667
L407.916 220.72
L408.065 225.032
L408.288 211.268
L408.437 213.454
L408.511 211.536
L408.66 202.792
L408.809 209.6
L409.106 203.518
L409.181 203.984
L409.404 219.243
L409.478 218.405
L409.85 235.685
L410.074 220.452
L410.148 224.254
L410.222 222.008
L410.371 206.879
L410.446 208.304
L410.52 208.711
L410.669 190.895
L410.743 191.128
L410.966 223.736
L411.115 217.722
L411.19 218.992
L411.338 227.036
L411.562 206.654
L411.636 209.834
L411.785 219.39
L411.934 196.977
L412.008 202.93
L412.157 221.671
L412.306 211.069
L412.38 212.167
L412.454 211.976
L412.529 212.253
L412.678 219.562
L412.752 214.482
L412.826 215.977
L413.05 224.055
L413.124 223.943
L413.347 215.787
L413.422 217.437
L413.496 219.061
L413.57 218.958
L413.719 215.934
L413.868 211.553
L414.091 228.574
L414.166 226.5
L414.24 225.688
L414.314 227.425
L414.389 223.744
L414.612 202.274
L414.761 211.458
L414.835 210.188
L414.91 210.292
L415.207 228.358
L415.43 249.794
L415.505 249.414
L415.802 187.698
L415.877 187.577
L416.026 179.015
L416.472 209.739
L416.695 250.442
L416.77 252.619
L416.844 251.643
L416.918 251.263
L416.993 246.709
L417.216 218.655
L417.29 217.774
L417.811 193.945
L417.886 194.696
L418.109 212.218
L418.183 210.335
L418.332 202.084
L418.555 222.154
L418.63 221.852
L418.704 219.441
L419.002 233.551
L419.225 227.649
L419.299 228.686
L419.448 219.666
L419.597 212.607
L419.746 216.754
L419.82 215.882
L420.192 202.317
L420.415 218.629
L420.564 210.646
L420.713 216.616
L420.862 207.224
L420.936 209.238
L421.085 215.458
L421.159 213.774
L421.308 200.58
L421.382 201.289
L421.606 231.512
L422.052 212.426
L422.126 212.175
L422.275 210.715
L422.424 218.768
L422.647 231.702
L422.796 237.093
L422.945 246.657
L423.019 246.485
L423.763 180.587
L423.838 178.376
L423.912 179.844
L423.986 185.538
L424.135 208.071
L424.284 206.516
L424.358 209.255
L424.507 222.941
L424.582 222.293
L424.656 221.282
L424.879 237.49
L425.028 221.679
L425.102 225.351
L425.326 246.243
L425.474 236.272
L425.846 188.882
L425.921 185.961
L426.218 195.56
L426.814 244.973
L426.962 260.525
L427.037 257
L427.558 202.153
L427.706 196.891
L427.855 203.397
L428.004 198.731
L428.153 209.583
L428.227 205.514
L428.376 190.23
L428.599 209.696
L428.674 209.099
L428.897 230.803
L428.971 228.729
L429.046 224.479
L429.12 225.066
L429.269 234.734
L429.343 233.205
L429.492 229.023
L429.566 230.008
L429.79 245.69
L430.236 174.591
L430.31 174.954
L431.054 241.041
L431.129 240.955
L431.278 238.449
L431.352 240.255
L431.426 239.789
L431.575 233.568
L431.65 236.687
L431.724 234.769
L431.947 205.609
L432.096 212.547
L432.245 203.82
L432.319 204.857
L432.394 204.494
L432.542 200.84
L432.691 192.562
L432.766 193.936
L433.063 208.486
L433.138 209.549
L433.51 239.702
L433.733 220.599
L433.882 233.991
L434.03 220.245
L434.105 214.56
L434.179 215.484
L434.254 219.761
L434.477 205.989
L434.551 206.507
L434.626 208.944
L434.774 201.954
L434.849 197.444
L434.923 199.397
L435.072 211.51
L435.146 210.421
L435.221 208.529
L435.37 222.552
L435.593 247.357
L435.667 247.487
L435.742 249.344
L435.816 248.792
L436.039 198.515
L436.114 204.624
L436.188 209.082
L436.411 175.049
L436.486 179.533
L436.709 201.237
L436.858 217.057
L437.006 229.602
L437.155 222.725
L437.378 232.643
L437.676 212.02
L437.75 213.056
L437.899 227.528
L437.974 226.474
L438.122 222.293
L438.197 220.668
L438.346 202.792
L438.42 203.561
L438.494 203.907
L438.569 201.678
L438.718 219.424
L438.792 225.904
L438.866 223.036
L438.941 220.72
L439.015 222.388
L439.09 219.64
L439.313 199.241
L439.387 200.312
L439.462 199.941
L439.61 194.982
L439.759 211.233
L440.131 269.329
L440.28 244.506
L440.95 170.349
L441.024 170.772
L441.173 192.64
L441.396 237.948
L441.545 244.67
L441.694 253.06
L442.214 211.035
L442.363 216.478
L442.586 208.279
L442.661 209.246
L442.735 213.039
L442.81 212.815
L443.033 191.163
L443.107 191.569
L443.554 212.002
L443.702 232.03
L443.851 212.832
L443.926 214.309
L444.074 227.917
L444.223 247.729
L444.446 228.237
L444.521 232.229
L444.595 228.729
L444.818 207.777
L445.042 204.287
L445.116 203.423
L445.339 211.424
L445.637 235.607
L445.786 245.647
L445.86 242.839
L446.158 181.978
L446.232 183.11
L446.53 204.52
L446.678 200.744
L446.902 216.167
L446.976 215.925
L447.199 199.31
L447.274 200.183
L447.348 200.045
L447.571 210.585
L447.943 257.25
L448.018 252.317
L448.092 246.243
L448.241 251.807
L448.464 218.56
L448.538 222.103
L448.687 237.732
L448.91 199.69
L449.059 215.216
L449.134 214.197
L449.729 190.964
L449.803 193.997
L449.878 205.522
L449.878 205.522" style="fill:none;stroke:#808080;stroke-linecap:square;"/>
   </g>
  </g>
 </g>
 <defs>
  <clipPath id="p7ff5b81e1d">
   <rect height="345.6" width="446.4" x="72.0" y="43.2"/>
  </clipPath>
 </defs>
</svg>
