<?xml version="1.0" encoding="utf-8" standalone="no"?>
<!DOCTYPE svg PUBLIC "-//W3C//DTD SVG 1.1//EN"
  "http://www.w3.org/Graphics/SVG/1.1/DTD/svg11.dtd">
<!-- Created with matplotlib (http://matplotlib.org/) -->
<svg height="432pt" version="1.1" viewBox="0 0 576 432" width="576pt" xmlns="http://www.w3.org/2000/svg" xmlns:xlink="http://www.w3.org/1999/xlink">
 <defs>
  <style type="text/css">
*{stroke-linecap:butt;stroke-linejoin:round;}
  </style>
 </defs>
 <g id="figure_1">
  <g id="patch_1">
   <path d="
M0 432
L576 432
L576 0
L0 0
z
" style="fill:#ffffff;"/>
  </g>
  <g id="axes_1">
   <g id="line2d_1">
    <path clip-path="url(#p7ff5b81e1d)" d="
M72 254.845
L72.0744 251.522
L72.2232 229.15
L72.5208 164.966
L72.5952 166.867
L73.116 252.639
L73.2648 235.388
L73.6368 170.691
L73.7112 170.72
L73.7856 170.426
L73.86 171.642
L74.0088 185.938
L74.4552 266.146
L74.5296 265.968
L74.976 234.017
L75.1992 248.365
L75.348 229.063
L75.6456 178.467
L76.0176 155.618
L76.092 153.953
L76.1664 153.987
L76.3152 178.611
L76.7616 317.583
L76.9104 293.449
L77.2824 195.275
L77.5056 173.134
L77.7288 148.394
L77.8032 150.088
L78.0264 198.518
L78.324 282.672
L78.3984 284.486
L78.5472 267.166
L78.7704 223.672
L78.9936 271.169
L79.1424 212.618
L79.3656 131.5
L79.44 135.054
L79.8864 212.365
L79.9608 212.158
L80.0352 208.857
L80.1096 209.059
L80.2584 224.098
L80.556 257.362
L80.7048 239.282
L81.0024 190.206
L81.1512 185.512
L81.3 196.611
L81.5232 253.889
L81.7464 288.898
L82.1928 206.254
L82.416 180.386
L82.4904 181.693
L82.6392 179.965
L82.7136 180
L82.8624 190.569
L83.0856 202.331
L83.16 203.178
L83.3088 194.987
L83.532 174.234
L83.6064 174.528
L83.7552 198.195
L84.0528 252.714
L84.1272 253.635
L84.3504 244.178
L84.4248 244.483
L84.4992 245.681
L84.7224 271.394
L84.7968 267.436
L85.2432 214.064
L85.392 214.83
L85.5408 193.484
L85.764 140.498
L85.8384 142.669
L85.9872 172.563
L86.2104 220.59
L86.3592 226.69
L86.508 224.167
L86.7312 221.351
L87.0288 203.748
L87.1032 204.52
L87.252 221.31
L87.624 290.943
L87.8472 242.144
L88.1448 157.167
L88.2192 145.647
L88.2936 151.804
L88.5168 232.565
L88.5912 232.56
L88.74 228.781
L89.112 177.88
L89.1864 178.64
L89.484 278.461
L89.6328 263.088
L90.0792 180.8
L90.3768 164.131
L90.4512 164.88
L90.5256 166.17
L90.6744 184.291
L91.1208 275.604
L91.1952 272.528
L91.5672 213.955
L91.716 293.143
L91.8648 331.2
L92.088 275.299
L92.46 73.3071
L92.6088 84.7119
L92.6832 95.9209
L92.9808 212.572
L93.0552 202.746
L93.1296 196.525
L93.204 198.956
L93.5016 281.548
L93.576 275.57
L93.7992 202.982
L94.1712 267.459
L94.2456 271.555
L94.32 264.05
L94.5432 205.66
L94.6176 206.743
L94.692 203.852
L94.9152 171.331
L95.064 188.709
L95.2872 219.824
L95.5104 207.763
L95.8824 253.497
L95.9568 249.016
L96.1056 222.307
L96.3288 189.861
L96.4032 188.098
L96.552 173.785
L96.6264 180.915
L96.924 249.287
L97.0728 215.504
L97.2216 164.361
L97.296 173.738
L97.5936 283.317
L97.7424 261.302
L98.04 212.716
L98.2632 189.964
L98.4864 154.126
L98.5608 154.621
L99.3792 289.618
L99.4536 299.41
L99.528 295.643
L100.198 132.203
L100.346 98.1212
L100.421 107.625
L100.867 249.143
L100.942 249.102
L101.239 213.31
L101.76 256.394
L101.909 239.846
L102.058 223.378
L102.132 223.505
L102.281 226.679
L102.43 217.382
L102.727 168.969
L102.802 172.212
L103.174 247.737
L103.248 246.7
L103.322 237.323
L103.62 153.181
L103.769 215.516
L103.992 278.605
L104.141 272.211
L104.364 241.194
L104.513 225.06
L104.587 224.11
L104.885 208.466
L105.034 146.258
L105.182 88.4847
L105.257 89.9305
L105.406 160.139
L105.703 292.838
L105.778 302.768
L105.852 288.005
L106.15 146.557
L106.298 163.964
L106.522 230.313
L106.819 302.417
L106.894 308.194
L106.968 305.061
L107.563 225.682
L107.861 158.924
L108.084 145.624
L108.158 145.18
L108.307 153.763
L108.605 171.527
L108.902 200.436
L109.349 253.543
L109.572 259.459
L109.87 283.127
L109.944 284.768
L110.018 282.355
L110.242 247.587
L110.688 174.274
L110.911 166.631
L111.134 173.26
L111.358 165.842
L111.506 169.977
L111.73 198.172
L112.25 261.809
L112.325 260.663
L112.474 248.595
L112.771 216.046
L112.846 218.321
L113.292 258.698
L113.366 256.141
L114.185 160.3
L114.334 173.237
L114.78 228.165
L114.854 228.113
L115.003 215.642
L115.152 206.179
L115.301 214.416
L115.375 214.082
L115.524 191.911
L115.822 157.213
L115.97 186.912
L116.417 327.323
L116.491 323.481
L116.64 295.274
L117.161 162.218
L117.458 147.133
L117.533 151.418
L117.905 233.349
L118.202 292.936
L118.277 295.038
L119.021 182.43
L119.095 165.277
L119.17 171.383
L119.244 180.915
L119.616 99.469
L119.69 106.738
L120.36 327.087
L120.434 320.175
L120.806 232.617
L121.03 209.036
L121.104 211.017
L121.253 234.213
L121.476 263.076
L121.625 251.475
L122.22 103.322
L122.369 76.4348
L122.443 76.9532
L122.741 166.21
L123.336 340.191
L123.41 338.094
L123.708 293.65
L124.154 202.988
L124.452 173.07
L124.75 162.069
L124.898 166.141
L125.196 198.656
L125.791 248.042
L125.866 252.616
L125.94 252.449
L126.089 251.994
L126.163 247.294
L126.61 168.364
L126.684 168.531
L126.907 193.991
L127.205 220.377
L127.279 220.988
L127.354 220.723
L127.502 214.479
L127.726 202.567
L127.8 205.205
L127.949 224.795
L128.172 251.936
L128.246 253.082
L128.47 226.258
L128.618 215.89
L128.693 218.281
L128.99 235.601
L129.139 233.452
L129.214 232.393
L129.511 237.473
L129.734 231.961
L129.883 209.468
L130.255 146.309
L130.33 143.441
L130.404 143.758
L130.553 162.074
L130.85 211.311
L131.074 218.816
L131.148 219.479
L131.222 218.782
L131.297 219.698
L131.446 228.482
L131.594 235.278
L131.669 234.656
L131.743 235.97
L132.115 268.778
L132.413 226.074
L132.71 271.762
L132.859 229.731
L133.082 172.201
L133.38 236.378
L133.454 233.314
L133.826 171.123
L133.901 171.129
L133.975 173.082
L134.05 172.995
L134.198 164.597
L134.347 156.343
L134.422 158.451
L134.57 184.763
L135.017 266.722
L135.091 266.607
L135.24 254.402
L135.835 198.472
L136.058 214.364
L136.802 267.298
L136.877 267.402
L137.1 239.737
L137.472 192.539
L137.918 161.331
L137.993 160.053
L138.067 161.17
L138.29 179.919
L138.886 240.986
L139.034 252.846
L139.183 246.24
L139.258 247.484
L139.332 247.616
L139.555 240.837
L139.778 231.575
L139.927 219.732
L140.374 164.355
L140.448 164.517
L140.522 167.955
L140.894 258.848
L140.969 253.866
L141.192 211.57
L141.49 255.041
L141.713 296.248
L141.787 294.042
L141.862 281.744
L142.308 121.299
L142.457 108.38
L142.606 127.762
L143.35 265.922
L143.424 267.713
L143.647 282.597
L144.094 239.823
L144.614 141.241
L144.689 143.666
L144.912 175.513
L145.433 256.659
L145.507 256.429
L145.879 215.418
L145.954 215.723
L146.177 223.211
L146.4 219.139
L146.474 220.072
L146.698 228.026
L146.772 227.531
L146.846 226.258
L146.921 226.54
L146.995 226.108
L147.293 243.469
L147.442 241.994
L147.665 237.749
L147.739 237.888
L147.888 233.187
L148.558 150.025
L148.706 144.501
L148.855 154.88
L149.153 195.436
L149.599 275.714
L149.674 275.696
L150.046 244.782
L150.194 229.225
L150.343 236.615
L150.418 233.464
L150.79 190.736
L150.864 189.256
L150.938 189.792
L151.087 197.51
L151.236 219.191
L151.459 246.746
L151.534 245.491
L151.682 226.788
L151.98 184.36
L152.054 184.677
L152.203 201.738
L152.575 257.253
L152.724 221.932
L152.947 169.609
L153.022 171.319
L153.394 215.435
L153.468 215.072
L153.542 211.513
L153.617 213.114
L153.84 236.908
L153.989 248.198
L154.138 231.068
L154.212 223.349
L154.286 227.715
L154.435 248.089
L154.584 240.526
L155.03 195.955
L155.105 203.063
L155.254 248.889
L155.328 245.013
L155.626 190.039
L155.849 183.254
L155.998 183.289
L156.072 182.234
L156.146 185.42
L156.295 197.009
L156.37 197.009
L156.444 196.853
L156.593 208.69
L156.816 228.62
L156.89 227.139
L157.114 199.814
L157.337 239.235
L157.411 238.389
L157.486 235.077
L157.56 240.243
L157.709 288.748
L157.858 328.85
L157.932 315.383
L158.378 127.198
L158.899 192.533
L159.271 226.183
L159.42 223.004
L159.494 226.373
L159.866 266.066
L159.941 266.112
L160.387 230.906
L160.61 203.276
L160.685 203.65
L160.759 203.46
L160.834 197.205
L161.057 158.002
L161.131 162.178
L161.503 203.46
L161.726 214.404
L161.875 235.18
L161.95 235.008
L162.098 230.647
L162.173 231.206
L162.47 243.043
L162.619 225.89
L162.842 199.958
L163.066 186.963
L163.14 187.862
L163.661 234.875
L163.735 235.278
L163.884 240.952
L164.033 253.981
L164.182 304.22
L164.256 296.075
L164.628 142.796
L164.777 68.7625
L164.851 74.6837
L165 144.95
L165.223 272.643
L165.298 273.484
L165.372 272.355
L165.446 267.874
L165.67 177.264
L165.744 183.035
L165.967 284.129
L166.19 229.864
L166.414 329.385
L166.488 307.094
L166.934 71.8556
L167.009 82.0047
L167.53 270.38
L167.678 295.401
L167.753 294.624
L167.902 268.37
L168.199 207.878
L168.422 187.395
L168.794 228.084
L169.315 206.841
L169.538 195.863
L169.836 205.58
L169.985 206.104
L170.357 217.203
L170.431 216.201
L170.506 215.504
L170.654 220.227
L170.803 223.194
L170.878 221.454
L170.952 221.777
L171.175 235.313
L171.473 222.75
L171.547 224.812
L171.696 232.571
L171.845 243.792
L171.919 241.539
L172.068 212.428
L172.291 165.634
L172.366 165.047
L172.514 186.837
L172.738 228.251
L172.812 231.212
L172.886 231.143
L173.035 223.712
L173.258 203.616
L173.333 204.531
L173.705 221.431
L173.779 223.476
L173.854 223.177
L174.002 217.566
L174.226 212.054
L174.3 211.783
L174.449 215.596
L174.598 230.025
L174.746 242.841
L174.895 239.028
L175.342 221.765
L175.565 238.118
L175.639 235.463
L176.16 147.214
L176.234 148.746
L176.383 154.27
L176.606 193.248
L176.904 240.457
L177.202 255.784
L177.425 268.79
L177.499 268.514
L177.648 264.579
L177.946 243.181
L178.392 197.861
L178.69 174.522
L178.764 174.729
L178.838 174.326
L178.913 176.336
L179.508 222.434
L179.582 221.063
L179.806 210.873
L179.954 211.991
L180.103 211.029
L180.178 211.737
L180.401 217.215
L180.55 214.98
L180.847 225.4
L180.922 225.123
L180.996 226.586
L181.368 242.311
L181.74 230.509
L181.963 218.931
L182.112 215.81
L182.558 191.174
L182.856 199.774
L183.154 217.388
L183.228 216.293
L183.451 207.803
L183.6 212.757
L183.898 221.621
L184.344 227.56
L184.493 232.49
L185.162 198.697
L185.311 192.401
L185.534 164.551
L185.683 218.546
L185.906 318.199
L185.981 319.979
L186.13 286.122
L186.576 144.944
L186.725 136.16
L186.874 146.58
L187.097 196.946
L187.394 264.464
L187.469 263.18
L187.766 247.985
L187.841 249.016
L187.915 248.63
L187.99 248.175
L188.138 235.854
L188.51 200.58
L188.808 186.727
L188.957 196.076
L189.329 224.507
L189.924 188.127
L189.998 189.78
L190.37 221.811
L190.519 224.882
L190.594 224.922
L190.742 224.208
L190.891 227.998
L191.263 253.491
L191.412 249.223
L191.71 230.912
L192.379 156.17
L192.454 156.654
L192.602 168.537
L193.272 252.898
L193.346 253.733
L193.57 250.986
L193.793 241.28
L193.942 242.755
L194.016 239.397
L194.611 176.152
L194.76 183.162
L195.281 228.965
L195.504 227.399
L195.653 221.431
L195.95 232.594
L196.025 232.421
L196.174 224.928
L196.694 190.938
L196.769 191.174
L196.918 200.787
L197.29 231.978
L197.438 234.95
L197.662 228.447
L197.736 229.587
L198.034 247.253
L198.108 245.6
L198.331 219.098
L198.629 176.474
L198.703 176.296
L198.926 183.582
L199.15 206.835
L199.373 225.486
L199.447 225.901
L199.894 205.436
L199.968 208.915
L200.266 224.611
L200.34 224.536
L200.414 223.263
L200.489 223.637
L200.786 233.343
L200.861 233.026
L200.935 231.719
L201.084 222.86
L201.158 223.038
L201.233 222.382
L201.382 219.024
L201.53 220.844
L201.828 209.52
L201.977 204.86
L202.051 204.768
L202.2 209.145
L202.349 208.316
L202.721 227.566
L202.795 227.56
L203.242 213.707
L203.465 206.288
L203.614 207.521
L203.762 203.696
L204.358 220.337
L204.432 219.582
L204.655 211.058
L204.73 211.518
L204.804 212.947
L204.878 212.428
L204.953 211.812
L205.102 213.12
L205.25 216.915
L205.325 217.025
L205.399 215.09
L205.474 215.458
L205.846 224.467
L205.92 224.288
L206.069 223.096
L206.218 223.096
L206.515 217.952
L206.59 217.682
L206.664 219.358
L206.813 226.258
L206.887 224.968
L207.11 213.69
L207.259 217.923
L207.334 217.031
L207.482 212.325
L207.631 213.102
L208.152 202.878
L208.45 184.394
L209.194 228.591
L209.268 230.025
L209.491 241.442
L209.64 232.542
L209.789 223.384
L209.863 224.162
L210.012 229.392
L210.161 224.887
L210.384 218.01
L210.458 217.226
L210.607 212.837
L210.682 213.166
L210.905 223.096
L211.054 212.469
L211.202 202.654
L211.426 215.93
L211.723 206.962
L211.798 207.383
L211.872 207.544
L212.021 204.785
L212.095 205.689
L212.318 223.015
L212.467 214.018
L212.616 205.822
L212.914 215.982
L212.988 213.932
L213.137 209.785
L213.658 228.291
L213.732 227.871
L213.955 218.148
L214.178 231.477
L214.253 231.068
L214.699 212.486
L214.774 212.48
L214.848 213.05
L214.997 212.089
L215.146 205.545
L215.294 200.315
L215.592 215.81
L215.666 213.143
L215.815 206.064
L215.964 210.631
L216.336 224.38
L216.485 221.558
L216.559 220.458
L216.931 236.263
L217.08 229.409
L217.303 218.148
L217.378 216.864
L217.452 216.915
L217.526 218.603
L217.601 217.699
L217.75 208.362
L217.973 193.495
L218.047 192.7
L218.122 194.175
L218.494 211.415
L218.717 208.385
L219.014 225.36
L219.089 224.323
L219.163 224.784
L219.386 230.048
L219.535 226.88
L219.833 215.395
L220.056 201.577
L220.205 213.125
L220.354 221.99
L220.502 220.083
L220.577 220.371
L220.726 219.628
L220.8 220.959
L220.949 218.073
L221.321 200.131
L221.395 198.887
L221.693 227.33
L221.842 225.769
L222.065 236.09
L222.734 201.778
L222.958 214.755
L223.032 213.022
L223.181 208.391
L223.404 218.908
L223.553 224.789
L223.776 213.782
L223.85 215.049
L223.925 213.448
L224.074 204.48
L224.148 206.282
L224.52 226.172
L224.669 230.849
L224.743 229.271
L224.892 214.479
L225.19 175.202
L225.338 179.683
L225.487 197.061
L225.859 258.612
L225.934 257.581
L226.678 212.711
L226.901 194.947
L227.05 195.644
L227.273 187.77
L227.347 189.118
L227.868 212.336
L227.942 212.814
L228.091 216.599
L228.314 224.294
L228.389 224.858
L228.538 223.165
L228.761 216.213
L228.91 221.829
L229.133 230.06
L229.207 228.718
L229.505 217.987
L229.654 219.127
L229.728 218.234
L229.877 215.354
L230.026 223.154
L230.174 228.418
L230.323 226.869
L230.398 226.621
L230.472 225.049
L230.918 193.754
L231.067 189.475
L231.142 186.595
L231.216 186.779
L231.886 235.538
L231.96 234.737
L232.109 229.933
L232.332 220.924
L232.481 222.272
L232.555 221.967
L232.853 228.833
L233.299 215.366
L233.448 210.418
L233.522 210.435
L233.671 215.349
L233.746 217.324
L233.969 212.054
L234.118 216.979
L234.192 215.856
L234.341 212.722
L234.49 216.622
L234.638 212.192
L234.713 210.303
L234.862 213.154
L234.936 212.313
L235.01 211.778
L235.085 212.434
L235.308 216.339
L235.382 216.132
L235.457 216.616
L235.531 215.522
L235.754 207.066
L235.829 207.648
L235.903 207.262
L235.978 206.081
L236.052 206.657
L236.424 222.186
L236.498 222.341
L236.796 215.867
L237.019 204.618
L237.094 205.931
L237.391 221.374
L237.466 221.408
L237.838 226.869
L237.912 226.442
L238.061 227.79
L238.21 222.197
L238.433 209.664
L238.582 214.001
L238.656 213.275
L238.805 216.985
L238.879 216.512
L238.954 216.639
L239.028 217.768
L239.177 222.71
L239.326 217.088
L239.4 218.436
L239.474 220.003
L239.698 214.951
L239.846 220.515
L239.995 213.097
L240.144 209.157
L240.218 209.641
L240.442 204.451
L240.739 212.538
L240.814 213.943
L240.888 213.719
L241.334 199.29
L241.409 200.367
L242.153 235.474
L242.227 235.739
L242.45 233.516
L242.525 232.496
L242.674 225.429
L242.971 206.363
L243.046 205.701
L243.269 195.477
L243.343 196.709
L243.641 212.584
L243.79 220.348
L244.087 242.167
L244.236 240.099
L245.129 187.562
L245.203 189.97
L245.426 210.965
L245.501 210.844
L245.724 202.515
L245.798 202.314
L245.947 205.413
L246.468 230.567
L246.84 235.549
L247.138 242.058
L247.212 240.923
L247.361 231.747
L247.733 207.348
L247.807 206.864
L247.956 208.483
L248.105 207.36
L248.179 206.329
L248.328 201.674
L248.402 202.423
L248.7 210.793
L249.295 194.555
L249.444 204.52
L249.742 221.207
L249.816 221.12
L249.965 216.898
L250.039 219.363
L250.337 240.474
L250.634 227.842
L251.006 240.094
L251.155 232.191
L251.602 201.801
L251.75 200.246
L251.899 201.755
L252.346 191.255
L252.494 198.858
L252.718 212.221
L253.015 219.703
L253.164 220.953
L253.238 220.066
L253.313 220.556
L253.462 226.373
L253.536 229.369
L253.61 228.389
L253.759 227.583
L253.834 227.842
L253.908 227.128
L254.28 237.651
L254.354 237.484
L254.503 229.564
L254.801 211.495
L254.875 210.487
L255.173 192.614
L255.247 193.115
L255.322 191.266
L255.47 184.688
L256.214 235.106
L256.363 231.696
L256.438 232.179
L256.512 232.894
L256.586 232.133
L256.661 232.341
L256.81 233.642
L256.958 228.17
L257.033 230.521
L257.107 230.296
L257.256 221.431
L257.554 208.034
L257.851 193.276
L258 194.417
L258.074 194.175
L258.223 202.032
L258.744 231.2
L258.818 233.487
L258.893 232.634
L259.116 219.358
L259.19 219.456
L259.265 219.15
L259.637 197.936
L259.711 198.386
L259.86 203.426
L259.934 203.328
L260.158 214.669
L260.232 213.12
L260.306 212.584
L260.455 217.457
L260.678 231.333
L260.827 229.593
L260.976 231.546
L261.274 215.804
L261.348 217.491
L261.794 238.55
L261.869 238.861
L262.018 227.099
L262.241 207.999
L262.39 205.447
L262.762 179.412
L262.836 180.115
L263.729 237.536
L264.026 244.851
L264.101 244.356
L264.25 236.188
L264.696 195.701
L264.994 183.818
L265.142 186.762
L265.291 187.407
L265.366 190.247
L265.589 224.271
L265.886 263.508
L265.961 264.464
L266.035 263.986
L266.333 247.144
L266.928 165.536
L267.002 166.297
L267.151 172.126
L267.3 183.836
L267.895 264.274
L268.118 241.597
L268.639 190.569
L268.714 189.803
L269.086 207.429
L269.309 209.698
L269.383 210.119
L269.532 216.535
L269.83 237.323
L270.276 220.377
L270.574 226.944
L270.871 206.144
L271.169 185.961
L271.392 177.448
L271.764 197.55
L272.136 247.795
L272.359 281.963
L272.434 281.047
L272.806 243.527
L272.88 244.846
L273.029 253.123
L273.103 251.216
L273.252 216.42
L273.55 106.94
L273.624 112.245
L274.145 216.587
L274.442 243.878
L274.591 260.225
L274.666 259.614
L274.814 261.1
L274.889 262.247
L274.963 262.005
L275.112 257.898
L275.335 235.463
L275.93 149.46
L276.154 115.119
L276.228 118.074
L276.377 152.058
L276.972 338.284
L277.046 339.31
L277.121 334.391
L277.344 287.418
L277.865 126.236
L277.939 122.555
L278.014 123.621
L278.162 137.779
L278.832 240.531
L278.906 241.05
L279.278 228.13
L279.502 216.604
L279.576 216.841
L279.799 224.755
L280.022 230.446
L280.097 231.016
L280.246 233.136
L280.394 228.297
L280.469 228.378
L280.543 227.836
L280.915 217.889
L281.287 194.993
L281.436 200.194
L281.585 207.987
L281.659 207.319
L281.882 200.546
L281.957 202.51
L282.106 215.383
L282.403 251.798
L282.478 252.72
L282.626 244.27
L282.924 211.541
L282.998 212.544
L283.296 235.572
L283.445 206.766
L283.742 141.932
L283.817 144.933
L284.114 192.505
L284.561 274.988
L284.635 279.486
L284.71 278.956
L284.858 265.236
L285.528 156.735
L285.602 160.041
L285.826 196.934
L286.123 248.722
L286.346 278.709
L286.421 274.25
L286.793 146.407
L286.867 161.452
L287.239 261.429
L287.314 256.452
L287.462 239.777
L287.537 240.37
L287.686 246.274
L287.76 245.888
L287.834 244.61
L287.983 230.29
L288.355 159.563
L288.43 160.761
L288.876 201.807
L289.174 248.745
L289.471 224.622
L289.769 192.723
L289.843 197.216
L290.141 264.182
L290.215 261.492
L290.513 187.643
L290.587 192.839
L290.885 249.223
L290.959 245.157
L291.257 198.581
L291.406 194.757
L291.703 168.583
L291.778 171.319
L291.926 198.391
L292.15 252.65
L292.298 258.998
L292.373 258.238
L292.596 236.701
L292.67 236.834
L292.819 244.212
L292.894 241.194
L293.266 160.064
L293.34 162.731
L293.563 190.69
L293.861 259.407
L293.935 256.222
L294.158 210.338
L294.233 211.132
L294.456 227.618
L294.53 225.561
L294.605 222.704
L294.754 202.654
L294.828 203.287
L294.977 216.276
L295.2 168.963
L295.349 190.846
L295.795 263.698
L296.242 231.782
L296.614 199.589
L296.762 190.039
L296.911 178.018
L296.986 178.197
L297.134 183.006
L297.581 214.514
L297.655 215.297
L297.804 222.324
L298.027 239.662
L298.102 239.587
L298.25 236.499
L298.92 171.671
L298.994 174.666
L299.143 192.153
L299.366 267.811
L299.515 310.919
L299.59 310.579
L299.887 250.738
L300.482 154.742
L300.557 154.396
L300.706 157.086
L301.003 172.949
L301.673 261.907
L301.747 258.658
L301.896 238.786
L302.119 145.457
L302.342 280.448
L302.417 265.23
L302.714 147.289
L302.938 232.767
L303.235 312.871
L303.31 308.234
L303.83 185.368
L303.979 175.61
L304.277 153.083
L304.351 156.245
L304.723 255.767
L304.798 246.355
L305.17 195.2
L305.244 191.594
L305.318 192.021
L305.467 199.399
L305.542 198.098
L305.616 200.511
L305.765 227.6
L306.062 292.936
L306.286 236.862
L306.583 167.166
L306.658 166.896
L307.03 212.129
L307.104 211.415
L307.178 213.315
L307.55 233.614
L307.699 236.482
L307.774 234.852
L308.369 188.565
L308.592 180.414
L308.741 204.779
L309.038 262.039
L309.857 168.745
L309.931 158.492
L310.006 161.153
L310.452 300.24
L310.526 299.22
L310.75 260.138
L311.196 145.514
L311.27 146.597
L311.419 152.68
L311.568 176.682
L311.866 243.89
L312.163 258.785
L312.238 255.173
L312.684 190.281
L312.833 211.282
L313.13 257.293
L313.354 262.771
L313.502 247.904
L313.726 187.413
L313.949 132.877
L314.023 128.845
L314.172 141.949
L314.395 181.785
L314.693 245.583
L314.99 262.01
L315.139 269.475
L315.288 264.165
L315.362 265.225
L315.437 261.705
L315.586 221.368
L315.809 172.707
L315.958 196.836
L316.255 243.239
L316.33 244.765
L316.478 215.02
L316.776 152.709
L316.925 164.188
L317.148 205.165
L317.371 241.516
L317.446 242.547
L317.669 237.41
L317.743 235.572
L318.041 242.018
L318.19 237.386
L319.082 191.756
L319.157 192.458
L319.38 213.788
L319.529 222.134
L319.678 222.802
L319.752 222.174
L320.124 209.047
L320.198 209.658
L320.422 219.202
L320.496 218.77
L320.719 208.097
L320.942 187.551
L321.017 187.482
L321.24 210.17
L321.612 265.15
L321.835 257.875
L322.505 195.523
L322.802 179.666
L323.472 209.07
L323.695 213.171
L323.77 214.992
L323.844 214.917
L323.993 213.425
L324.142 221.12
L324.365 232.83
L324.439 230.659
L324.514 232.375
L324.811 258.117
L324.96 250.37
L325.481 207.55
L325.555 206.974
L325.704 204.186
L326.15 156.021
L326.299 159.39
L326.448 177.799
L326.894 261.302
L327.043 272.246
L327.341 251.925
L328.01 191.992
L328.085 194.002
L328.382 215.498
L328.606 209.255
L328.754 201.634
L328.829 202.798
L329.052 211.213
L329.201 208.01
L329.275 209.347
L329.647 228.672
L329.722 226.949
L329.945 220.838
L330.54 229.847
L330.838 225.82
L331.061 200.655
L331.21 190.16
L331.284 191.727
L331.582 211.029
L331.73 207.918
L331.879 212.912
L331.954 211.075
L332.4 183.467
L332.474 185.184
L332.846 237.07
L332.921 236.332
L333.07 241.816
L333.367 267.275
L333.442 266.388
L333.59 247.904
L334.037 170.311
L334.111 172.074
L334.26 195.356
L334.483 246.401
L334.632 224.15
L334.855 195.667
L335.153 215.412
L335.227 215.187
L335.302 214.133
L335.376 214.26
L335.599 227.03
L335.748 232.208
L335.822 231.753
L336.194 213.575
L336.566 170.311
L336.641 172.091
L336.715 172.189
L336.79 175.253
L337.087 227.629
L337.31 260.092
L337.385 258.912
L337.608 240.336
L337.906 215.861
L338.129 221.95
L338.278 219.767
L338.352 220.118
L338.426 221.178
L338.575 229.553
L338.873 249.12
L338.947 248.866
L339.096 224.622
L339.394 166.815
L339.468 167.414
L339.617 185.477
L339.914 222.284
L339.989 223.931
L340.138 216.95
L340.435 191.335
L340.51 189.59
L340.584 192.579
L341.03 239.132
L341.179 232.076
L341.477 212.129
L341.551 212.722
L341.849 226.275
L341.998 223.614
L342.221 217.664
L342.295 219.582
L342.518 235.209
L342.593 235.152
L342.89 223.136
L343.188 203.172
L343.337 192.222
L343.411 192.764
L343.634 197.383
L344.081 213.379
L344.378 225.204
L344.602 221.161
L344.825 236.448
L345.048 249.966
L345.122 243.077
L345.494 167.005
L345.569 170.513
L346.09 237.035
L346.164 238.141
L346.313 224.928
L346.536 207.043
L346.685 224.594
L346.982 258.664
L347.057 256.619
L347.206 230.526
L347.503 165.882
L347.578 167.604
L347.726 186.952
L347.95 223.683
L348.098 214.272
L348.247 208.126
L348.322 212.567
L348.694 261.146
L348.842 237.726
L349.14 183.905
L349.289 175.956
L349.363 179.285
L349.81 227.364
L350.107 207.417
L350.182 207.769
L350.628 234.034
L351 229.812
L351.298 205.073
L351.372 206.11
L351.818 236.269
L351.893 236.119
L351.967 233.003
L352.414 187.827
L352.562 186.675
L352.637 185.443
L352.711 186.059
L352.86 199.146
L353.083 224.208
L353.158 224.928
L353.381 216.576
L353.455 215.936
L353.604 210.931
L353.678 211.046
L353.753 212.273
L353.902 221.886
L354.199 257.31
L354.274 256.4
L354.422 241.257
L354.794 190.99
L355.39 224.812
L355.464 222.503
L355.687 214.007
L355.91 215.798
L355.985 213.442
L356.208 197.435
L356.506 231.102
L356.58 229.023
L357.026 175.449
L357.175 207.388
L357.398 241.683
L357.473 241.05
L357.547 241.13
L357.77 246.643
L357.919 250.099
L357.994 249.016
L358.142 238.556
L358.291 211.392
L358.589 151.804
L358.663 147.093
L358.738 150.278
L359.407 251.251
L359.63 258.854
L359.779 247.518
L360.077 224.709
L360.598 194.93
L360.672 194.446
L360.746 196.283
L361.118 214.542
L361.193 214.318
L361.416 208.408
L361.565 198.57
L361.639 198.743
L362.086 230.774
L362.16 229.155
L362.458 205.85
L362.532 208.932
L362.606 208.921
L362.681 209.376
L362.978 218.822
L363.276 248.325
L363.35 245.744
L363.574 236.298
L363.648 236.874
L363.946 223.367
L364.466 192.389
L364.69 181.359
L364.913 192.309
L364.987 192.528
L365.136 199.221
L365.434 219.075
L366.029 243.233
L366.103 242.087
L366.326 229.466
L366.401 229.541
L366.847 206.041
L366.922 205.568
L367.145 220.164
L367.219 225.365
L367.294 224.311
L367.517 218.102
L367.666 212.653
L367.814 208.506
L367.963 219.542
L368.112 225.256
L368.261 216.967
L368.633 191.128
L368.707 191.842
L369.451 231.569
L369.526 231.673
L369.6 230.947
L369.749 237.657
L369.898 245.479
L369.972 244.995
L370.195 228.044
L370.567 204.462
L371.014 184.7
L371.237 191.842
L371.311 190.408
L371.386 190.938
L371.906 225.417
L372.13 248.578
L372.278 249.753
L372.502 258.877
L372.725 242.346
L373.394 187.148
L373.469 185.414
L373.543 185.829
L373.766 191.779
L373.841 192.355
L374.362 225.561
L374.436 226.782
L374.659 218.805
L374.734 219.899
L374.808 222.134
L374.882 222.076
L374.957 222.658
L375.18 233.245
L375.329 228.441
L375.626 209.197
L375.701 208.759
L375.924 205.971
L376.147 216.328
L376.222 216.927
L376.37 214.767
L376.445 214.922
L376.594 217.561
L376.742 214.744
L376.891 209.669
L377.04 217.278
L377.114 216.057
L377.189 216.656
L377.338 222.157
L377.561 210.579
L377.635 213.569
L377.784 218.177
L377.933 217.699
L378.082 218.707
L378.156 218.436
L378.23 217.745
L378.305 215.671
L378.379 215.683
L378.602 223.084
L378.677 222.71
L378.974 211.801
L379.049 211.968
L379.123 212.256
L379.198 212.215
L379.495 204.837
L379.867 214.807
L380.09 231.65
L380.314 226.742
L380.388 227.906
L380.462 226.477
L380.834 212.63
L380.909 212.659
L381.058 210.372
L381.206 202.469
L381.281 203.166
L381.578 220.533
L381.802 215.36
L381.876 215.251
L382.025 210.17
L382.099 211.334
L382.174 213.506
L382.397 232.548
L382.471 232.035
L382.62 227.79
L383.141 187.453
L383.29 195.212
L383.587 220.406
L383.959 234.731
L384.034 233.159
L384.108 233.516
L384.257 240.917
L385.224 186.457
L385.298 186.745
L385.67 219.669
L385.819 227.134
L385.968 223.148
L386.34 237.945
L386.489 223.125
L386.786 183.968
L386.861 185.212
L387.307 228.234
L387.456 224.484
L387.53 226.12
L387.679 234.691
L387.828 230.175
L388.572 196.986
L388.646 195.707
L388.944 203.184
L389.242 213.811
L389.465 240.232
L389.614 249.609
L389.688 248.077
L390.134 212.077
L390.506 182.396
L390.581 184.314
L390.73 204.664
L391.102 275.264
L391.25 259.73
L391.846 153.141
L391.92 153.694
L392.069 175.115
L392.366 227.111
L392.59 236.851
L392.664 234.236
L392.962 207.936
L393.185 227.497
L393.334 233.395
L393.557 229.829
L393.631 229.53
L393.78 228.015
L394.003 236.534
L394.226 229.086
L394.598 184.821
L394.747 201.623
L394.97 222.612
L395.045 223.672
L395.119 223.269
L395.417 207.377
L395.491 209.715
L395.714 221.258
L395.938 208.926
L396.235 189.82
L396.31 187.067
L396.533 205.263
L396.756 227.497
L396.83 228.798
L397.277 248.63
L397.574 232.444
L398.244 190.886
L398.542 188.357
L398.616 191.6
L398.988 230.336
L399.286 225.665
L399.434 231.074
L399.509 229.985
L399.806 197.729
L400.03 151.24
L400.104 153.515
L400.253 208.638
L400.476 284.302
L400.774 257.858
L400.997 241.862
L401.146 246.032
L401.294 228.274
L401.666 165.208
L401.815 153.636
L402.336 196.37
L402.708 236.396
L402.931 271.25
L403.006 269.441
L403.303 231.137
L403.378 231.891
L403.452 233.7
L403.526 232.208
L403.675 221.276
L403.973 183.49
L404.122 192.839
L404.568 227.445
L404.717 230.325
L404.866 217.088
L404.94 209.26
L405.014 210.482
L405.089 215.804
L405.163 215.262
L405.386 196.024
L405.461 196.778
L405.758 210.182
L405.982 246.551
L406.13 182.978
L406.279 123.223
L406.8 319.443
L407.098 271.382
L407.172 275.621
L407.246 269.527
L407.693 113.276
L408.288 194.722
L408.511 239.886
L408.66 236.327
L408.809 246.378
L409.106 274.009
L409.181 283.772
L409.255 281.514
L409.85 176.665
L409.999 190.535
L410.148 205.914
L410.297 202.181
L410.371 202.199
L410.446 203.385
L410.594 211.922
L410.818 232.341
L410.966 225.659
L411.041 230.181
L411.115 227.606
L411.264 208.108
L411.338 210.026
L411.71 245.145
L411.785 243.054
L412.157 180.466
L412.231 186.134
L412.454 219.507
L412.752 169.188
L413.347 263.111
L413.422 262.73
L413.57 255.041
L414.091 169.223
L414.166 170.582
L414.314 194.86
L414.612 263.612
L414.761 240.076
L415.133 137.053
L415.207 145.33
L415.654 247.933
L415.802 258.41
L415.951 268.243
L416.1 251.193
L416.323 229.847
L416.546 240.099
L416.621 234.19
L417.067 149.276
L417.216 173.52
L417.588 240.543
L417.737 247.242
L417.811 243.993
L418.109 204.048
L418.258 230.377
L418.406 263.813
L418.481 261.55
L418.704 196.778
L419.002 124.03
L419.15 155.226
L419.597 304.243
L419.746 271.117
L420.043 184.268
L420.118 184.21
L420.415 240.105
L420.49 237.047
L420.787 160.3
L420.862 162.737
L421.308 238.06
L421.457 233.763
L421.531 235.618
L421.68 258.053
L421.829 278.83
L421.978 230.906
L422.126 190.195
L422.35 232.393
L422.647 140.181
L422.722 146.373
L422.945 185.328
L423.168 128.793
L423.242 135.193
L423.614 303.655
L423.689 296.968
L423.986 260.893
L424.21 267.154
L424.358 241.511
L424.656 177.315
L424.73 175.052
L425.028 185.247
L425.474 228.361
L425.623 242.611
L425.995 175.49
L426.144 149.034
L426.962 280.569
L427.186 272.753
L427.334 262.529
L427.558 215.562
L428.078 112.717
L428.227 135.907
L428.376 187.493
L428.674 353.669
L428.748 345.859
L428.897 286.439
L429.269 82.9263
L429.418 114.745
L429.938 283.501
L430.087 291.957
L430.236 283.317
L430.31 284.083
L430.459 290.805
L430.608 265.04
L430.98 104.181
L431.129 115.735
L431.352 171.63
L431.65 293.546
L431.798 271.929
L432.245 149.287
L432.319 156.159
L432.914 279.095
L433.063 282.407
L433.138 281.335
L433.212 276.842
L433.361 239.057
L433.658 149.022
L433.807 137.767
L434.03 164.108
L434.254 248.446
L434.328 247.991
L434.7 176.734
L434.849 202.682
L435.072 274.233
L435.146 274.204
L435.295 246.896
L435.518 182.557
L435.593 188.277
L436.039 261.129
L436.188 268.646
L436.262 266.48
L436.486 238.037
L436.858 119.589
L437.006 152.922
L437.453 282.885
L437.527 279.152
L437.899 153.308
L438.048 210.654
L438.271 284.699
L438.42 257.552
L438.718 195.091
L438.792 192.228
L438.866 192.804
L438.941 192.925
L439.09 187.01
L439.164 187.712
L439.387 189.342
L439.61 193.996
L439.685 198.224
L439.759 196.611
L439.834 196.277
L439.982 219.98
L440.131 236.874
L440.28 225.279
L440.503 252.017
L440.801 295.125
L441.024 271.67
L441.173 240.52
L441.545 104.284
L441.619 108.115
L441.917 189.383
L442.214 266.469
L442.289 263.825
L443.033 182.436
L443.107 186.186
L443.405 239.656
L443.554 234.242
L443.926 282.666
L444 273.162
L444.521 131.063
L444.744 171.141
L444.818 162.138
L444.893 161.93
L445.116 269.619
L445.19 252.938
L445.265 254.298
L445.562 318.17
L445.786 204.975
L446.083 81.6706
L446.158 93.4556
L446.604 288.259
L446.753 250.98
L446.902 214.629
L447.125 243.671
L447.274 210.297
L447.422 170.398
L447.571 208.01
L447.794 261.049
L447.869 262.782
L447.943 260.363
L448.092 234.19
L448.538 145.63
L448.613 154.759
L448.836 234.322
L448.91 227.848
L448.985 213.321
L449.059 219.024
L449.282 238.135
L449.431 226.298
L449.654 184.423
L449.729 202.642
L449.878 278.807
L449.878 278.807" style="fill:none;stroke:#808080;stroke-linecap:square;"/>
   </g>
  </g>
 </g>
 <defs>
  <clipPath id="p7ff5b81e1d">
   <rect height="345.6" width="446.4" x="72.0" y="43.2"/>
  </clipPath>
 </defs>
</svg>
