<?xml version="1.0" encoding="utf-8" standalone="no"?>
<!DOCTYPE svg PUBLIC "-//W3C//DTD SVG 1.1//EN"
  "http://www.w3.org/Graphics/SVG/1.1/DTD/svg11.dtd">
<!-- Created with matplotlib (http://matplotlib.org/) -->
<svg height="432pt" version="1.1" viewBox="0 0 576 432" width="576pt" xmlns="http://www.w3.org/2000/svg" xmlns:xlink="http://www.w3.org/1999/xlink">
 <defs>
  <style type="text/css">
*{stroke-linecap:butt;stroke-linejoin:round;}
  </style>
 </defs>
 <g id="figure_1">
  <g id="patch_1">
   <path d="
M0 432
L576 432
L576 0
L0 0
z
" style="fill:#ffffff;"/>
  </g>
  <g id="axes_1">
   <g id="line2d_1">
    <path clip-path="url(#p7ff5b81e1d)" d="
M72 194.071
L72.0744 189.008
L72.0744 189.008
L72.0744 189.008
L72.1488 190.719
L72.4464 223.413
L72.8184 251.285
L72.8928 251.285
L73.0416 239.771
L73.7856 159.102
L73.86 159.073
L73.9344 159.978
L74.1576 170.622
L74.604 202.175
L74.976 243.607
L75.2736 269.147
L75.4968 278.23
L75.6456 272.338
L76.7616 187.902
L77.208 179.043
L77.2824 179.389
L77.3568 181.485
L77.8032 226.725
L77.8776 224.858
L78.0264 207.601
L78.324 160.45
L78.3984 164.113
L78.5472 198.04
L78.9936 321.978
L79.068 320.042
L79.2168 296.017
L79.812 183.957
L80.184 141.01
L80.2584 139.622
L80.4072 144.812
L80.6304 171.734
L81.2256 268.64
L81.3 268.582
L81.4488 263.485
L81.672 245.231
L82.1184 205.62
L82.5648 188.351
L82.6392 188.593
L82.788 192.188
L83.4576 225.549
L83.6808 235.203
L83.8296 233.7
L84.1272 224.403
L84.3504 219.761
L84.7224 228.481
L84.7968 227.992
L84.9456 223.983
L85.4664 202.066
L85.5408 202.826
L85.6152 203.535
L85.6896 203.16
L85.764 203.368
L86.0616 206.035
L86.3592 216.593
L86.5824 221.477
L86.6568 221.719
L86.7312 221.679
L86.8056 220.688
L87.0288 215.187
L87.1776 215.988
L87.252 215.953
L87.624 208.598
L87.6984 209.756
L88.2192 231.2
L88.2936 230.941
L88.8144 213.897
L88.8888 214.076
L88.9632 214.208
L89.0376 213.442
L89.4096 197.51
L89.484 198.414
L90.3024 234.483
L90.3768 234.276
L90.6 229.749
L90.8976 223.315
L91.4184 209.796
L91.5672 206.927
L91.7904 197.913
L91.8648 198.702
L92.1624 203.224
L92.5344 216.529
L92.832 227.796
L93.0552 234.616
L93.5016 217.975
L93.7248 205.315
L94.0968 210.049
L94.5432 227.894
L94.6176 228.62
L94.7664 224.461
L95.1384 208.172
L95.2128 206.95
L95.436 197.798
L95.808 207.394
L96.7008 236.482
L96.7752 236.856
L96.8496 236.764
L96.924 236.188
L97.0728 240.646
L97.3704 232.686
L97.5192 217.67
L97.7424 194.958
L97.9656 196.554
L98.2632 202.567
L98.6352 223.781
L98.8584 208.638
L99.156 179.158
L99.3048 173.272
L99.3792 170.524
L99.4536 171.866
L99.6768 196.554
L100.421 288.339
L100.495 287.464
L100.644 278.979
L101.09 206.092
L101.314 170.507
L101.388 168.583
L101.462 168.641
L101.537 169.234
L101.686 178.156
L101.983 195.459
L102.132 197.222
L102.281 194.998
L102.355 195.453
L102.802 225.192
L103.025 240.249
L103.099 241.292
L103.322 235.053
L103.397 232.819
L103.546 238.089
L103.769 248.584
L103.992 241.729
L104.141 217.998
L104.513 143.683
L104.587 143.395
L104.736 168.335
L105.108 234.259
L105.182 235.699
L105.406 230.601
L105.48 229.795
L105.554 230.25
L105.778 235.48
L105.852 234.466
L105.926 234.593
L106.075 241.424
L106.224 255.093
L106.298 254.637
L107.266 180.886
L107.414 186.088
L107.563 191.439
L107.786 187.395
L107.935 194.912
L108.382 223.24
L108.456 223.747
L108.828 235.756
L108.902 236.188
L108.977 234.892
L109.274 220.774
L109.349 221.978
L109.572 225.06
L109.87 221.137
L110.465 192.902
L110.614 196.917
L111.283 226.154
L111.581 222.779
L111.655 224.317
L111.804 235.871
L112.102 271.716
L112.176 271.699
L112.399 243.82
L112.994 133.77
L113.069 133.551
L113.292 157.881
L113.59 210.107
L113.962 269.896
L114.036 272.822
L114.185 263.001
L114.408 249.782
L114.557 241.487
L115.003 197.873
L115.078 198.178
L115.226 204.693
L115.524 223.839
L115.673 226.298
L115.747 226.01
L115.896 220.325
L116.491 187.983
L116.714 193.247
L116.789 192.752
L116.863 193.76
L117.086 211.875
L117.607 242.213
L117.756 246.389
L117.83 245.612
L117.979 238.504
L118.202 225.953
L118.351 227.128
L118.5 219.928
L118.798 201.478
L118.872 201.283
L119.021 203.552
L119.095 203.322
L119.17 202.458
L119.393 206.357
L119.467 205.303
L119.542 204.975
L119.69 207.25
L119.765 206.611
L119.914 202.331
L119.988 203.765
L120.286 235.595
L120.434 246.124
L120.509 245.951
L121.178 208.828
L121.402 196.87
L121.476 196.565
L121.625 197.925
L121.699 197.366
L121.848 193.461
L121.922 194.405
L122.22 207.037
L122.518 222.727
L122.815 230.71
L122.964 233.838
L123.038 232.629
L123.336 217.203
L123.485 219.599
L123.559 219.553
L123.782 218.977
L124.08 215.798
L124.154 215.982
L124.378 220.423
L124.526 218.735
L124.75 225.434
L125.494 202.233
L125.568 202.175
L125.717 203.852
L125.866 202.711
L126.014 207.722
L126.163 213.857
L126.312 211.916
L126.833 224.484
L127.279 237.392
L127.354 236.753
L127.502 229.685
L127.8 208.385
L128.098 201.876
L128.321 204.693
L128.395 205.038
L128.618 209.871
L128.767 208.195
L129.139 223.626
L129.288 230.987
L129.511 229.149
L129.66 224.541
L129.809 218.597
L129.883 219.34
L130.032 214.127
L130.33 206.19
L130.404 204.75
L130.478 205.061
L130.627 207.774
L130.776 205.741
L131.074 217.647
L131.297 234.495
L131.371 233.521
L131.743 217.267
L131.892 210.332
L131.966 210.251
L132.041 209.877
L132.264 201.237
L132.338 201.432
L132.636 214.934
L132.71 214.024
L132.785 212.831
L132.859 213.39
L133.306 222.243
L133.529 216.518
L133.603 217.007
L133.752 219.772
L133.975 227.825
L134.273 223.153
L134.942 207.256
L135.017 207.578
L135.166 210.003
L135.314 209.07
L135.389 209.905
L135.538 208.557
L135.686 216.789
L135.91 227.249
L135.984 227.243
L136.356 220.561
L136.654 204.41
L136.728 204.214
L137.174 213.88
L137.249 213.344
L137.398 216.368
L137.472 218.211
L137.546 217.877
L137.844 205.286
L137.918 205.372
L138.142 220.031
L138.29 230.613
L138.365 230.463
L138.662 217.992
L138.96 224.19
L139.034 223.735
L139.258 217.03
L139.406 217.059
L139.63 220.279
L139.927 214.122
L140.002 214.709
L140.076 214.45
L140.448 206.15
L140.597 205.194
L140.746 202.55
L140.82 202.849
L140.969 200.954
L141.043 200.188
L141.192 207.987
L141.564 234.057
L141.787 237.64
L141.862 236.349
L142.457 205.015
L142.531 205.165
L142.829 207.895
L142.978 213.039
L143.126 218.493
L143.201 218.257
L143.275 219.006
L143.573 230.353
L143.722 235.094
L143.87 232.415
L144.317 204.134
L144.391 204.462
L144.689 209.606
L144.838 206.104
L144.912 206.732
L145.061 210.752
L145.358 206.507
L145.582 196.749
L145.73 201.669
L146.326 248.169
L146.4 247.167
L147.07 209.704
L147.144 208.235
L147.218 208.477
L147.293 208.016
L147.516 198.616
L147.814 184.861
L147.888 186.497
L148.111 210.614
L148.483 253.388
L148.558 254.303
L148.632 253.647
L148.781 245.064
L149.227 201.628
L149.45 196.438
L149.599 194.013
L149.674 193.806
L149.748 193.098
L149.897 197.786
L150.12 215.072
L150.343 229.426
L150.566 230.077
L150.641 229.224
L151.087 215.279
L151.162 215.308
L151.459 223.015
L151.608 214.456
L151.906 191.652
L151.98 190.776
L152.203 202.93
L152.724 236.977
L152.798 236.298
L152.947 237.219
L153.022 236.787
L153.617 214.306
L153.691 214.899
L153.766 214.657
L154.063 204.266
L154.138 204.854
L154.212 206.397
L154.286 206.179
L154.51 196.865
L154.584 197.205
L154.733 199.768
L154.956 211.887
L155.402 232.099
L155.626 237.265
L156.444 208.828
L156.518 208.88
L156.667 210.124
L156.816 215.504
L156.89 214.703
L157.262 197.654
L157.411 201.329
L158.155 238.049
L158.23 237.859
L158.602 222.514
L159.048 197.325
L159.197 199.174
L159.718 229.76
L159.792 228.602
L160.238 204.629
L160.313 205.078
L160.462 212.134
L160.536 211.754
L160.61 209.888
L160.685 212.342
L160.982 238.821
L161.057 238.625
L161.206 230.031
L161.354 213.511
L161.652 171.866
L161.726 174.032
L161.875 193.702
L162.322 273.501
L162.396 272.586
L162.694 237.645
L162.917 195.505
L163.14 162.869
L163.214 160.15
L163.289 163.353
L163.81 211.242
L163.884 215.613
L163.958 213.839
L164.33 200.856
L164.405 204.543
L164.628 242.403
L165 296.968
L165.223 282.896
L166.042 150.998
L166.116 153.688
L166.562 186.975
L166.637 188.081
L166.711 187.672
L166.86 186.364
L166.934 186.14
L167.158 198.247
L168.05 292.838
L168.125 289.002
L168.348 248.613
L168.794 169.453
L169.018 157.224
L169.166 155.709
L169.241 156.072
L169.39 159.88
L169.538 178.225
L170.134 295.136
L170.208 294.134
L170.357 282.683
L171.25 155.07
L171.324 156.003
L171.77 171.388
L171.994 200.085
L172.366 247.887
L172.514 256.152
L172.663 250.317
L172.961 234.189
L173.035 233.93
L173.184 230.699
L173.482 223.505
L173.779 225.958
L173.854 225.521
L174.523 214.703
L174.598 215.781
L174.672 215.717
L174.746 216.149
L174.97 212.181
L175.044 208.719
L175.49 154.131
L175.565 157.23
L175.862 197.481
L176.532 289.814
L176.606 286.68
L177.053 238.746
L177.722 141.488
L177.871 155.969
L178.541 254.73
L178.69 260.616
L179.136 224.755
L179.582 179.757
L179.657 176.641
L179.806 189.152
L180.252 256.999
L180.475 250.139
L180.698 237.905
L180.847 220.584
L181.219 154.886
L181.294 153.907
L181.517 176.1
L182.261 267.356
L182.335 266.515
L182.707 241.914
L183.228 172.039
L183.302 172.984
L183.823 209.318
L183.972 217.635
L184.27 243.077
L184.418 241.862
L184.493 242.34
L184.642 239.16
L184.716 239.771
L184.79 240.134
L184.939 226.223
L185.311 173.865
L185.386 172.079
L185.534 177.678
L185.683 186.842
L186.13 238.671
L186.204 237.853
L186.427 224.426
L186.725 243.987
L186.799 240.934
L187.171 220.993
L187.246 220.584
L187.394 226.586
L187.469 225.688
L187.915 186.174
L187.99 186.376
L188.138 196.139
L188.436 224.582
L188.51 224.098
L188.585 224.991
L188.659 227.98
L188.734 226.46
L189.106 194.215
L189.18 194.301
L189.254 194.791
L189.403 197.464
L189.552 196.323
L189.701 206.225
L189.85 229.708
L190.147 281.047
L190.222 282.101
L190.37 275.69
L190.594 249.108
L190.817 200.286
L191.189 127.013
L191.263 123.609
L191.338 126.84
L191.486 153.826
L192.007 295.821
L192.082 296.357
L192.23 284.227
L192.454 231.776
L192.826 132.197
L192.9 135.043
L193.123 181.912
L193.421 242.605
L193.57 250.623
L193.718 250.012
L194.016 266.543
L194.314 288.115
L194.462 265.236
L194.983 141.137
L195.206 127.808
L195.355 145.785
L195.802 225.348
L195.876 225.175
L196.248 216.42
L196.322 212.889
L196.397 213.016
L196.546 225.146
L196.918 270.933
L196.992 271.019
L197.141 258.111
L197.438 223.654
L197.662 213.839
L198.108 167.212
L198.257 149.984
L198.331 152.167
L198.48 184.815
L198.926 306.587
L199.075 288.656
L200.042 121.553
L200.117 123.379
L200.34 150.036
L200.638 218.28
L201.01 279.498
L201.084 281.306
L201.158 281.133
L201.307 273.254
L201.977 214.289
L202.349 192.781
L202.423 191.433
L202.498 191.623
L202.795 200.2
L202.944 202.544
L203.093 207.037
L203.614 233.21
L203.688 232.502
L203.911 223.487
L204.134 213.488
L204.283 211.777
L204.432 213.966
L204.506 213.713
L204.581 212.1
L204.804 189.693
L205.027 174.435
L205.176 195.615
L205.548 274.527
L205.622 277.228
L205.697 275.35
L205.846 260.789
L206.441 184.446
L206.59 179.251
L206.664 179.279
L206.887 184.314
L206.962 183.968
L207.036 183.536
L207.259 179.913
L207.408 186.514
L207.631 216.126
L208.078 283.789
L208.152 284.578
L208.301 268.957
L208.822 206.421
L209.119 186.842
L209.268 185.673
L209.417 191.11
L210.012 218.275
L210.161 218.038
L210.31 218.92
L210.384 218.131
L210.458 218.286
L210.682 222.554
L210.756 221.178
L210.979 211.322
L211.351 217.756
L211.426 217.301
L211.574 212.336
L211.872 192.049
L211.946 194.405
L212.467 223.084
L212.69 217.03
L212.765 217.18
L212.914 225.699
L213.211 252.846
L213.286 254.309
L213.509 244.742
L214.03 200.897
L214.178 199.451
L214.625 215.527
L214.699 215.176
L214.922 209.928
L215.071 203.16
L215.294 190.984
L215.518 206.478
L215.741 218.764
L215.89 213.453
L216.113 187.804
L216.187 188.196
L216.336 195.511
L217.154 256.832
L217.229 258.537
L217.303 257.817
L217.452 250.536
L218.122 202.268
L218.196 202.003
L218.27 202.158
L218.419 203.195
L218.642 200.511
L218.94 206.253
L219.089 206.979
L219.163 206.259
L219.238 207.043
L219.312 209.519
L219.61 226.995
L219.684 227.652
L219.833 223.654
L220.279 208.183
L220.502 215.66
L220.874 245.036
L220.949 244.828
L221.098 232.899
L221.99 140.33
L222.065 138.988
L222.139 141.874
L222.288 164.672
L222.883 299.94
L222.958 301.53
L223.181 290.061
L223.478 249.621
L223.85 199.376
L224.074 192.245
L224.297 196.502
L224.52 190.707
L224.892 167.471
L224.966 167.299
L225.041 169.585
L225.264 193.823
L225.785 247.691
L225.934 253.71
L226.082 246.908
L226.454 228.568
L226.529 228.366
L226.678 230.238
L226.752 229.72
L227.05 224.328
L227.273 229.858
L227.422 218.718
L227.645 184.469
L227.868 150.347
L227.942 146.557
L228.017 146.764
L228.091 149.178
L228.24 170.829
L228.835 284.63
L228.984 289.572
L229.133 283.91
L229.282 274.319
L229.728 201.392
L229.951 172.811
L230.174 163.428
L230.472 138.257
L230.546 139.679
L230.695 161.613
L231.142 268.663
L231.216 267.258
L231.588 234.645
L231.662 234.685
L231.96 240.111
L232.109 238.93
L232.332 221.391
L232.704 195.292
L233.225 177.926
L233.374 190.223
L233.82 240.405
L233.894 242.311
L234.043 258.307
L234.266 293.558
L234.341 292.625
L234.49 260.38
L234.936 132.981
L235.01 133.62
L235.234 169.775
L235.68 238.152
L235.978 259.292
L236.126 252.529
L236.498 208.534
L236.722 188.973
L236.796 189.331
L236.945 202.239
L237.317 238.054
L237.466 243.135
L237.54 241.96
L237.689 232.502
L238.284 167.765
L238.358 168.053
L238.507 172.523
L238.656 183.778
L239.177 245.686
L239.474 270.011
L239.623 262.298
L239.921 240.024
L240.144 228.314
L240.962 169.591
L241.037 171.405
L241.26 189.826
L241.781 238.193
L241.855 239.535
L242.078 236.499
L242.525 216.253
L242.599 217.808
L242.897 230.693
L242.971 230.636
L243.492 215.544
L243.641 218.47
L243.715 218.165
L244.162 198.524
L244.31 199.267
L244.459 202.763
L244.534 205.989
L244.608 204.433
L244.831 196.531
L244.906 197.469
L245.203 211.063
L245.65 243.06
L245.724 242.467
L245.873 239.489
L246.319 222.335
L246.691 198.524
L246.914 205.09
L246.989 204.082
L247.063 204.318
L247.138 204.963
L247.361 214.271
L247.435 214.629
L247.584 209.997
L247.658 207.025
L247.733 207.843
L248.105 230.998
L248.179 228.355
L248.402 219.991
L248.551 223.758
L248.7 231.563
L248.998 218.292
L249.072 218.557
L249.221 212.198
L249.37 208.189
L249.593 212.797
L249.667 211.91
L249.965 201.334
L250.262 208.69
L250.858 233.953
L250.932 232.001
L251.155 213.286
L251.23 214.156
L251.378 221.132
L251.453 220.509
L251.825 199.693
L252.048 189.884
L252.122 190.84
L252.271 198.385
L252.941 247.512
L253.015 250.047
L253.09 249.419
L253.462 229.455
L253.536 229.53
L254.057 201.029
L254.206 201.052
L254.354 198.915
L254.503 201.352
L255.024 220.792
L255.098 220.573
L255.247 217.324
L255.545 209.784
L255.694 213.949
L255.842 218.2
L255.917 217.336
L256.214 206.749
L256.512 217.226
L256.884 236.367
L257.033 237.565
L257.107 235.272
L257.33 194.993
L257.554 157.789
L257.628 158.077
L257.777 172.154
L258.372 290.776
L258.446 288.489
L258.744 250.145
L259.265 162.662
L259.414 166.855
L259.637 177.027
L259.86 198.765
L260.158 226.892
L260.455 237.023
L260.753 222.525
L260.827 223.269
L261.05 239.731
L261.348 260.012
L261.422 257.967
L261.571 243.521
L262.166 128.856
L262.241 131.443
L262.464 166.792
L262.985 254.038
L263.282 261.636
L263.431 274.291
L263.654 297.071
L263.803 283.207
L264.473 132.911
L264.696 101.151
L264.77 105.828
L264.994 160.986
L265.44 249.212
L265.738 283.777
L266.184 225.273
L266.258 228.608
L266.63 263.589
L266.705 263.358
L266.854 234.069
L267.226 107.475
L267.3 107.827
L267.449 148.043
L267.746 254.344
L267.821 255.277
L268.118 227.41
L268.416 257.178
L268.49 252.253
L268.639 238.59
L268.714 238.711
L268.937 251.302
L269.011 242.853
L269.383 145.186
L269.532 177.298
L269.83 253.543
L269.904 249.574
L270.202 169.706
L270.574 215.948
L270.722 229.628
L271.02 260.732
L271.169 264.332
L271.318 245.375
L271.764 169.793
L271.913 156.81
L272.062 176.025
L272.359 242.386
L272.434 239.552
L272.88 132.888
L273.103 208.984
L273.55 364.412
L273.624 360.708
L273.847 309.3
L274.442 88.8359
L274.517 90.5639
L274.74 145.347
L275.038 214.888
L275.261 226.339
L275.633 240.088
L275.707 238.486
L276.005 218.136
L276.228 242.184
L276.302 238.083
L276.6 198.115
L276.674 199.434
L276.823 219.219
L277.121 258.122
L277.195 256.573
L277.344 236.735
L277.716 155.473
L277.79 160.513
L278.237 235.56
L278.311 234.639
L278.609 214.559
L278.758 224.605
L279.055 260.57
L279.13 257.281
L279.353 209.905
L279.576 170.876
L279.65 168.9
L279.799 177.828
L280.022 194.515
L280.097 195.736
L280.171 194.394
L280.246 194.445
L280.394 210.487
L280.841 308.269
L280.915 306.921
L281.064 278.651
L281.659 124.865
L281.808 142.991
L282.329 232.127
L282.403 233.291
L282.478 232.991
L282.552 232.444
L282.626 233.372
L283.073 251.723
L283.147 251.089
L283.296 246.078
L283.966 209.456
L284.263 200.58
L284.412 199.946
L284.486 199.998
L284.561 199.537
L284.71 192.038
L284.933 177.753
L285.007 179.135
L285.23 195.171
L285.751 261.054
L285.826 257.132
L286.123 216.904
L286.421 193.149
L286.495 191.715
L286.57 193.247
L286.793 210.717
L287.314 253.497
L287.388 253.042
L287.537 247.668
L288.058 208.684
L288.578 159.782
L288.653 158.693
L288.802 168.767
L289.62 257.356
L289.843 250.865
L290.066 238.152
L290.438 216.391
L290.513 216.604
L290.587 217.514
L290.662 217.059
L291.257 199.917
L291.331 200.073
L291.629 214.957
L291.703 214.306
L292.075 204.053
L292.15 204.237
L292.596 215.625
L292.819 221.892
L293.042 223.908
L293.117 224.035
L293.266 221.039
L293.414 218.396
L293.638 223.677
L293.861 216.155
L294.158 211.161
L294.233 209.606
L294.307 209.848
L294.53 216.454
L294.605 216.247
L294.679 216.374
L294.977 219.018
L295.126 218.666
L295.274 217.474
L295.498 222.646
L295.572 222.641
L295.87 217.215
L295.944 217.676
L296.018 217.514
L296.39 211.08
L296.465 211.622
L296.539 212.175
L296.614 211.829
L296.762 208.074
L296.986 201.645
L297.134 204.03
L297.283 210.919
L297.506 220.556
L297.581 220.97
L297.953 228.458
L298.102 226.344
L298.622 214.669
L298.771 207.653
L298.846 208.604
L299.366 235.036
L299.441 233.4
L299.664 214.035
L299.962 193.639
L300.036 192.81
L300.185 195.782
L300.408 204.128
L300.631 214.139
L300.706 214.629
L300.929 212.209
L301.003 212.618
L301.375 219.957
L301.45 219.715
L301.673 215.521
L301.747 215.942
L302.194 230.474
L302.268 229.864
L302.417 228.827
L302.64 230.745
L302.789 224.749
L303.086 210.424
L303.31 214.692
L303.384 213.24
L303.607 203.327
L303.756 204.381
L303.905 203.719
L304.202 211.374
L304.277 211.23
L304.351 211.443
L304.5 215.274
L304.723 225.728
L304.946 215.781
L305.021 216.345
L305.244 220.844
L305.318 219.72
L305.467 208.892
L305.69 196.819
L305.914 209.79
L305.988 208.569
L306.062 206.288
L306.137 208.235
L306.583 246.107
L306.658 245.243
L306.806 242.017
L306.881 242.369
L306.955 244.01
L307.03 242.87
L307.625 201.346
L307.699 201.743
L307.848 194.561
L308.146 175.317
L308.666 216.552
L309.038 248.993
L309.187 240.917
L309.41 226.897
L309.634 232.012
L309.708 231.125
L309.857 221.84
L310.154 204.525
L310.229 205.62
L310.378 201.651
L310.601 195.765
L310.75 201.991
L310.973 213.045
L311.122 210.061
L311.196 208.725
L311.27 210.084
L311.642 234.08
L311.717 232.214
L311.866 223.631
L311.94 224.017
L312.238 237.565
L312.461 219.939
L312.684 210.758
L312.758 211.432
L312.833 209.122
L313.13 190.35
L313.279 201.208
L313.502 218.655
L313.577 217.877
L313.651 215.89
L313.726 216.241
L314.023 220.348
L314.098 223.078
L314.172 222.41
L314.395 210.28
L314.47 210.614
L314.693 222.042
L314.767 221.356
L315.065 206.127
L315.214 216.149
L315.437 229.201
L315.734 214.968
L315.883 221.535
L316.032 230.987
L316.106 228.36
L316.478 202.884
L316.553 202.112
L316.627 202.383
L316.702 202.751
L316.85 201.484
L316.925 202.469
L317.074 212.814
L317.371 238.452
L318.264 198.927
L318.338 199.422
L318.636 214.807
L318.785 220.498
L318.859 220.723
L318.934 221.46
L319.38 234.063
L319.529 226.886
L319.752 217.318
L320.198 210.049
L320.645 198.783
L320.794 202.308
L321.017 213.799
L321.389 231.5
L321.612 227.773
L321.686 227.98
L321.835 226.287
L321.984 226.725
L322.133 221.448
L322.579 187.914
L322.654 188.202
L322.877 200.044
L323.323 223.43
L323.546 219.461
L323.695 227.324
L323.918 240.969
L323.993 241.05
L324.216 238.319
L324.365 232.957
L324.588 217.9
L324.96 184.054
L325.034 183.104
L325.109 184.348
L325.555 205.441
L326.002 211.91
L326.225 227.986
L326.597 255.501
L326.671 256.049
L326.82 245.715
L327.415 188.167
L327.49 188.668
L327.638 196.22
L328.01 222.341
L328.085 222.197
L328.382 213.776
L328.457 213.874
L328.606 216.322
L328.978 225.371
L329.052 224.15
L329.424 204.543
L329.498 205.297
L329.722 210.199
L329.796 209.715
L330.019 204.284
L330.466 209.277
L330.912 236.269
L330.986 234.662
L331.061 232.761
L331.135 232.801
L331.21 232.266
L331.358 230.584
L331.433 231.2
L331.507 231.183
L331.656 231.667
L331.73 231.511
L332.028 212.728
L332.251 204.773
L332.326 205.032
L332.549 201.853
L332.698 204.485
L333.144 188.04
L333.218 190.725
L333.739 239.235
L333.814 242.703
L333.888 242.397
L333.962 242.703
L334.111 238.878
L334.186 236.102
L334.26 236.378
L334.334 236.125
L334.558 225.135
L334.93 203.183
L335.153 191.133
L335.525 202.55
L336.194 233.072
L336.343 234.604
L336.492 233.366
L336.641 227.784
L337.087 197.314
L337.31 201.127
L337.534 202.7
L337.831 215.757
L338.278 246.222
L338.352 244.817
L338.724 218.292
L339.17 193.443
L339.394 197.723
L339.468 197.706
L339.542 197.757
L339.691 202.423
L340.212 224.012
L340.584 225.555
L340.658 224.835
L340.882 216.933
L341.03 213.062
L341.105 214.565
L341.328 223.735
L341.551 217.854
L341.7 219.939
L342.146 210.977
L342.221 211.115
L342.593 222.347
L342.667 221.287
L342.742 218.995
L342.816 219.455
L342.89 219.715
L343.039 218.43
L343.114 219.271
L343.188 218.747
L343.337 210.424
L343.486 204.405
L343.858 219
L343.932 217.71
L344.081 212.492
L344.23 213.903
L344.378 211.541
L344.527 207.734
L344.602 205.528
L344.676 207.066
L344.974 226.396
L345.048 226.321
L345.197 218.879
L345.42 207.958
L345.569 206.259
L345.643 207.688
L346.09 224.357
L346.462 221.926
L346.61 217.756
L346.685 217.912
L346.759 218.77
L346.834 218.424
L347.057 212.728
L347.206 204.174
L347.726 215.671
L348.024 233.435
L348.098 235.226
L348.173 234.46
L348.396 223.43
L348.768 194.664
L349.066 208.511
L349.289 221.109
L349.363 221.287
L349.586 223.021
L349.735 219.294
L349.958 214.029
L350.033 213.776
L350.107 214.294
L350.256 217.307
L350.479 213.937
L350.702 220.175
L350.777 220.239
L350.926 223.101
L351 222.047
L351.298 201.813
L351.893 224.219
L352.116 238.982
L352.19 239.074
L352.265 238.821
L352.339 236.972
L352.934 195.436
L353.158 174.182
L353.232 174.648
L353.381 180.27
L354.199 238.815
L354.348 234.99
L354.497 244.241
L354.794 264.729
L354.869 265.593
L355.018 264.62
L355.166 256.072
L355.464 216.495
L355.836 162.42
L356.134 138.798
L356.208 140.273
L356.878 218.747
L357.25 243.74
L357.547 261.187
L357.622 261.861
L357.696 260.599
L358.142 229.242
L358.291 228.527
L358.44 230.325
L358.514 228.435
L358.663 214.162
L358.812 200.73
L358.886 201.715
L359.11 211.138
L359.184 210.988
L359.258 210.522
L359.407 211.132
L359.556 203.512
L359.779 193.265
L359.854 193.414
L360.002 198.783
L360.151 208.604
L360.3 221.742
L360.374 219.784
L360.598 206.812
L360.672 207.1
L361.118 212.618
L361.267 212.261
L362.011 232.122
L362.086 231.592
L362.309 222.439
L362.83 239.373
L362.904 238.486
L362.978 236.194
L363.053 236.234
L363.127 238.049
L363.202 235.733
L363.722 184.083
L363.797 184.337
L363.946 180.604
L364.094 183.064
L364.169 184.406
L364.466 205.021
L365.434 266.549
L365.508 266.422
L365.657 252.143
L365.954 193.887
L366.252 149.149
L366.326 148.63
L366.475 165.156
L366.996 232.738
L367.145 246.844
L367.219 245.836
L367.294 243.054
L367.368 243.48
L367.442 244.356
L367.591 241.718
L367.74 236.649
L368.112 211.397
L368.335 213.396
L368.41 213.488
L368.558 210.285
L368.633 207.607
L368.707 208.609
L368.93 214.231
L369.079 215.769
L369.154 215.55
L369.451 203.961
L369.674 186.86
L369.749 190.102
L370.121 227.727
L370.195 228.245
L370.418 212.895
L370.642 222.456
L370.865 237.323
L370.939 236.326
L371.386 214.709
L371.534 222.842
L371.832 236.476
L371.981 227.128
L372.427 183.473
L372.502 183.588
L372.65 196.646
L372.874 219.939
L373.246 202.077
L373.469 209.347
L373.915 233.717
L374.213 224.369
L374.436 230.088
L374.51 230.077
L374.659 220.965
L374.882 202.844
L374.957 202.774
L375.18 207.141
L375.254 207.359
L375.403 214.652
L375.626 231.091
L375.775 219.801
L375.998 202.383
L376.222 222.168
L376.445 237.778
L376.817 214.726
L377.263 175.472
L377.338 173.439
L377.486 188.461
L377.933 269.014
L378.007 264.556
L378.23 215.003
L378.379 187.908
L378.454 188.991
L378.9 221.212
L379.123 236.603
L379.346 252.178
L379.421 250.513
L379.57 237.571
L380.09 162.431
L380.165 165.789
L380.76 226.523
L380.834 227.45
L381.132 222.439
L381.206 223.292
L381.504 238.233
L381.578 236.568
L381.95 213.396
L382.025 214.018
L382.322 220.492
L382.62 236.159
L382.769 228.205
L383.215 186.606
L383.29 188.3
L383.885 241.159
L383.959 241.125
L384.182 216.858
L384.554 167.69
L384.629 168.733
L384.778 189.486
L385.224 274.014
L385.373 248.728
L385.67 179.4
L385.745 179.009
L385.819 180.564
L385.968 194.952
L386.191 240.456
L386.414 274.63
L386.489 277.643
L386.563 274.463
L386.935 212.25
L387.382 156.412
L387.456 161.055
L387.828 215.107
L387.977 203.8
L388.274 158.434
L388.423 192.222
L388.795 304.358
L388.87 310.573
L389.018 297.25
L389.688 176.348
L389.762 178.893
L390.06 202.262
L390.134 200.28
L390.283 191.974
L390.655 142.663
L390.804 169.787
L391.25 277.919
L391.399 287.101
L391.548 274.838
L391.92 239.685
L392.292 213.471
L392.664 182.989
L392.962 178.099
L393.11 176.538
L393.185 177.442
L393.334 188.023
L393.78 247.455
L393.854 245.416
L394.152 224.109
L394.375 230.797
L394.45 229.524
L394.822 209.024
L394.896 209.583
L395.566 220.429
L395.714 219.818
L395.789 218.874
L395.938 211.034
L396.161 195.77
L396.235 196.963
L396.607 212.204
L396.979 217.779
L397.202 230.209
L397.426 245.162
L397.574 247.668
L397.649 245.928
L398.244 195.713
L398.318 198.051
L398.69 214.853
L398.765 213.615
L398.914 202.682
L399.211 178.991
L399.36 188.259
L400.104 253.958
L400.178 256.746
L400.253 256.607
L400.327 257.921
L400.402 256.533
L400.625 236.413
L401.146 178.951
L401.22 179.815
L401.369 188.282
L401.815 220.74
L401.89 221.448
L402.038 216.881
L402.113 216.961
L402.187 217.255
L402.336 214.726
L402.41 215.291
L402.782 233.504
L402.857 233.291
L403.973 196.15
L404.047 196.928
L404.717 233.683
L404.866 236.211
L405.014 234.12
L405.238 220.308
L405.684 197.763
L405.833 194.44
L405.982 195.194
L406.056 196.836
L406.279 214.548
L406.428 222.145
L406.502 221.621
L406.577 222.065
L406.726 225.947
L406.8 225.031
L407.321 212.157
L407.395 213.137
L407.842 230.866
L408.065 225.215
L408.437 201.283
L408.586 206.242
L408.883 216.276
L409.404 223.464
L409.553 221.034
L409.702 219.231
L410.074 231.799
L410.222 225.48
L410.669 189.884
L410.892 192.205
L411.041 191.341
L411.115 192.395
L411.264 201.686
L411.636 238.976
L411.71 240.168
L411.785 239.892
L412.082 229.132
L412.306 216.092
L412.603 201.167
L412.678 202.982
L413.05 226.615
L413.422 210.332
L413.496 212.042
L413.719 221.581
L414.017 215.199
L414.314 219.951
L414.463 213.868
L414.686 207.221
L414.761 207.578
L414.91 211.772
L415.133 220.406
L415.207 220.245
L415.43 217.111
L415.654 220.815
L415.802 211.904
L416.1 192.199
L416.174 191.727
L416.323 196.444
L416.621 224.922
L417.067 254.897
L417.142 254.205
L417.514 239.759
L417.737 225.555
L418.034 175.725
L418.258 156.188
L418.332 157.685
L418.481 168.111
L419.002 228.493
L419.15 232.041
L419.522 242.138
L419.597 242.962
L419.746 235.681
L420.118 213.816
L420.49 203.541
L420.638 206.484
L420.936 227.036
L421.01 226.874
L421.234 217.422
L421.308 217.923
L421.457 221.564
L421.531 221.535
L421.68 215.245
L421.903 205.533
L422.275 227.565
L422.35 224.772
L422.498 219.11
L422.573 219.582
L422.796 231.845
L422.87 230.791
L423.019 213.033
L423.317 179.187
L423.391 178.957
L423.54 185.172
L424.135 224.853
L424.358 247.489
L424.433 247.449
L424.656 240.18
L424.805 245.024
L425.028 254.056
L425.102 252.472
L425.251 238.365
L425.698 184.815
L425.921 177.045
L426.144 193.075
L426.516 212.422
L426.888 206.046
L427.111 189.446
L427.186 190.333
L427.483 213.321
L428.078 265.714
L428.153 266.958
L428.227 266.307
L428.525 251.723
L428.674 254.355
L428.748 251.585
L428.897 232.559
L429.269 168.376
L429.492 155.848
L429.715 154.293
L429.79 155.686
L429.938 171.814
L430.31 218.229
L431.129 256.458
L431.203 255.386
L431.278 252.109
L431.352 253.1
L431.501 259.067
L431.65 250.657
L431.947 214.064
L432.245 155.877
L432.319 155.974
L432.84 200.856
L433.063 223.533
L433.212 232.836
L433.361 242.386
L433.51 232.191
L433.584 227.174
L433.807 246.614
L433.882 243.285
L434.03 233.683
L434.179 236.419
L434.254 233.619
L434.626 200.033
L434.774 189.354
L434.923 172.183
L435.146 182.073
L435.295 179.112
L435.444 194.255
L436.114 294.088
L436.486 251.896
L436.858 197.729
L437.155 172.673
L437.23 175.328
L437.453 182.937
L437.602 187.989
L437.676 190.575
L437.75 190.033
L437.899 183.738
L438.048 177.626
L438.197 188.68
L438.643 242.104
L438.792 245.692
L439.313 234.754
L439.387 236.021
L439.834 262.471
L439.908 261.031
L440.057 247.829
L440.354 196.657
L440.652 155.577
L440.726 156.885
L442.066 249.315
L442.14 249.275
L442.214 248.025
L442.512 235.964
L442.958 243.417
L443.107 235.197
L443.405 201.323
L443.777 151.597
L443.926 149.062
L444.074 154.604
L444.298 188.161
L444.818 305.354
L444.967 287.567
L445.265 249.741
L445.488 215.349
L445.86 175.265
L446.158 165.317
L446.232 166.452
L446.53 185.166
L447.125 237.801
L447.274 235.526
L447.422 232.968
L447.571 237.985
L447.869 250.496
L448.018 245.485
L448.315 237.795
L448.39 236.223
L448.613 218.102
L448.985 176.48
L449.059 176.739
L449.134 176.67
L449.208 176.14
L449.282 177.442
L449.506 192.389
L449.878 225.014
L449.878 225.014" style="fill:none;stroke:#808080;stroke-linecap:square;"/>
   </g>
  </g>
 </g>
 <defs>
  <clipPath id="p7ff5b81e1d">
   <rect height="345.6" width="446.4" x="72.0" y="43.2"/>
  </clipPath>
 </defs>
</svg>
