<?xml version="1.0" encoding="utf-8" standalone="no"?>
<!DOCTYPE svg PUBLIC "-//W3C//DTD SVG 1.1//EN"
  "http://www.w3.org/Graphics/SVG/1.1/DTD/svg11.dtd">
<!-- Created with matplotlib (http://matplotlib.org/) -->
<svg height="432pt" version="1.1" viewBox="0 0 576 432" width="576pt" xmlns="http://www.w3.org/2000/svg" xmlns:xlink="http://www.w3.org/1999/xlink">
 <defs>
  <style type="text/css">
*{stroke-linecap:butt;stroke-linejoin:round;}
  </style>
 </defs>
 <g id="figure_1">
  <g id="patch_1">
   <path d="
M0 432
L576 432
L576 0
L0 0
z
" style="fill:#ffffff;"/>
  </g>
  <g id="axes_1">
   <g id="line2d_1">
    <path clip-path="url(#p7ff5b81e1d)" d="
M72 176.565
L72.0744 171.48
L72.0744 171.48
L72.0744 171.48
L72.1488 173.287
L72.372 181.611
L72.4464 184.03
L72.6696 209.17
L72.744 208.41
L72.8184 206.593
L72.8928 207.6
L72.9672 205.408
L73.116 183.181
L73.1904 184.84
L73.4136 204.213
L73.5624 199.276
L73.7112 205.299
L73.9344 196.462
L74.0088 197.42
L74.232 205.497
L74.3808 199.967
L74.5296 182.421
L74.604 182.44
L74.6784 183.724
L75.0504 174.66
L75.1248 174.699
L75.1992 177.681
L75.348 194.457
L75.4224 192.443
L75.6456 166.484
L76.092 210.009
L76.6128 185.887
L76.6872 179.715
L76.7616 180.485
L77.0592 196.729
L77.208 199.898
L77.4312 180.979
L77.58 185.028
L77.6544 184.317
L77.8776 193.668
L78.0264 199.503
L78.1008 198.891
L78.324 190.972
L78.3984 191.841
L78.6216 205.625
L78.696 202.515
L78.9936 185.008
L79.068 186.509
L79.2912 205.872
L79.44 197.341
L79.812 174.699
L79.9608 169.801
L80.0352 172.734
L80.4816 216.527
L80.556 215.697
L81.0768 170.739
L81.1512 172.102
L81.3 163.956
L81.4488 174.018
L81.5976 166.592
L81.672 170.493
L82.044 212.784
L82.1184 213.357
L82.1928 211.718
L82.416 202.436
L82.4904 204.974
L82.5648 204.302
L82.6392 205.053
L82.8624 210.691
L83.0112 206.297
L83.2344 223.33
L83.8296 147.11
L84.0528 152.64
L84.4992 187.911
L84.7968 213.92
L85.02 221.128
L85.5408 189.876
L85.6896 188.681
L85.9872 200.51
L86.0616 200.264
L86.2104 207.314
L86.3592 213.525
L86.8056 178.945
L87.0288 160.559
L87.1776 156.935
L87.252 157.646
L87.4752 173.03
L87.5496 172.369
L87.6984 186.124
L87.7728 184.109
L87.8472 180.367
L88.4424 207.887
L88.6656 221.513
L88.8888 204.648
L89.0376 207.827
L89.1864 201.32
L89.3352 206.228
L89.7072 183.527
L90.0048 190.044
L90.0792 191.1
L90.4512 177.721
L90.5256 177.444
L90.6744 183.991
L90.972 206.721
L91.1952 192.492
L91.2696 191.505
L91.4184 172.013
L91.5672 155.503
L91.6416 161.082
L91.716 160.332
L91.7904 159.937
L91.9392 184.751
L92.1624 212.004
L92.2368 212.429
L92.3856 218.008
L92.46 216.971
L93.1296 174.037
L93.204 174.176
L93.7992 211.728
L94.0224 203.769
L94.0968 204.332
L94.1712 203.729
L94.3944 196.669
L94.9896 159.512
L95.3616 185.452
L95.5104 196.324
L95.5848 194.082
L95.6592 194.764
L95.808 191.87
L96.3288 210.039
L96.4032 208.123
L96.4776 207.284
L96.6264 219.528
L96.7008 217.958
L96.8496 199.977
L96.924 200.431
L96.9984 200.125
L97.2216 189.056
L97.3704 194.507
L97.4448 191.88
L97.8168 145.57
L98.04 152.087
L98.2632 169.555
L98.4864 192.947
L98.5608 186.124
L98.6352 186.361
L98.9328 222.895
L99.0816 215.964
L99.156 216.714
L99.6024 234.616
L99.8256 216.931
L100.272 166.217
L100.421 160.381
L100.57 166.612
L100.718 163.028
L100.793 163.926
L101.165 194.082
L101.314 205.852
L101.537 195.899
L101.611 194.576
L102.058 168.399
L102.132 169.515
L102.355 185.265
L102.578 205.062
L103.025 220.842
L103.099 219.074
L103.248 203.532
L103.397 209.703
L103.769 176.388
L103.918 164.627
L103.992 164.706
L104.141 166.296
L104.215 165.269
L104.662 193.371
L104.736 192.947
L104.885 182.352
L105.034 189.807
L105.331 211.816
L105.406 212.527
L105.48 212.024
L105.703 230.084
L105.852 217.307
L106.224 193.075
L106.298 193.954
L106.522 179.577
L106.596 171.213
L106.67 174.502
L106.968 191.001
L107.042 191.248
L107.712 153.489
L108.382 207.551
L108.53 193.579
L108.605 194.339
L108.754 200.007
L109.2 233.767
L109.274 235.288
L109.498 225.66
L109.87 172.635
L110.093 162.396
L110.167 161.961
L110.242 162.178
L110.39 163.916
L110.465 163.798
L110.614 160.924
L110.911 175.38
L111.06 191.278
L111.358 217.603
L111.506 225.64
L111.581 224.535
L111.73 212.883
L111.953 198.18
L112.25 177.385
L112.325 177.414
L112.399 175.894
L112.548 166.148
L112.697 184.218
L112.92 200.392
L113.143 206.188
L113.366 199.177
L113.887 177.335
L114.036 184.307
L114.11 184.168
L114.334 173.08
L114.408 173.09
L114.482 172.941
L114.557 171.845
L114.631 174.462
L115.152 212.735
L115.375 195.02
L115.45 196.689
L115.896 220.022
L115.97 219.499
L116.045 217.307
L116.194 224.446
L116.268 221.108
L116.789 149.105
L116.938 153.529
L117.086 163.324
L117.31 179.33
L117.458 184.514
L117.682 188.908
L117.83 178.896
L117.905 179.913
L118.351 217.711
L118.5 219.439
L118.649 211.313
L118.872 194.586
L118.946 192.058
L119.095 172.665
L119.17 174.403
L119.467 194.487
L119.542 194.833
L119.616 194.27
L119.839 189.096
L119.914 190.37
L119.988 190.054
L120.137 188.256
L120.286 196.896
L120.36 196.64
L120.509 193.48
L120.583 193.638
L120.732 192.532
L120.955 208.212
L121.03 205.477
L121.625 170.7
L121.848 163.097
L121.997 159.562
L122.146 175.716
L122.369 194.615
L122.443 196.166
L122.741 219.558
L122.964 199.385
L123.038 199.701
L123.113 200.817
L123.187 199.849
L123.262 196.768
L123.336 197.193
L123.485 204.816
L123.559 205.062
L123.634 204.825
L123.857 215.904
L124.006 201.379
L124.08 202.979
L124.154 200.293
L124.452 167.017
L124.898 154.447
L124.973 156.333
L125.568 219.953
L125.791 223.35
L125.866 222.421
L126.089 211.115
L126.535 164.657
L126.684 167.303
L126.758 167.056
L126.833 169.426
L127.056 183.487
L127.279 190.715
L127.502 178.718
L127.577 179.824
L127.726 185.146
L128.098 216.793
L128.246 223.705
L128.321 221.167
L128.544 206.376
L128.618 204.895
L128.767 206.326
L128.842 205.23
L128.916 206.395
L129.065 198.575
L129.66 157.923
L129.734 159.127
L129.883 169.545
L130.181 197.538
L130.404 154.674
L130.627 122.207
L130.702 121.852
L130.85 151.573
L131.297 277.392
L131.446 291.137
L131.52 289.665
L131.743 264.456
L132.487 139.596
L132.562 135.626
L132.71 147.752
L133.008 167.185
L133.157 171.371
L133.38 166.523
L133.454 167.135
L133.603 169.624
L133.678 169.446
L133.752 168.883
L133.826 169.219
L133.901 170.335
L134.05 180.229
L134.198 186.588
L134.273 184.396
L134.347 184.504
L134.422 185.057
L134.57 193.342
L134.942 232.868
L135.091 228.524
L135.389 217.257
L135.612 209.634
L135.686 209.693
L135.761 210.118
L136.058 239.583
L136.133 235.416
L136.505 180.831
L136.654 187.575
L136.877 158.792
L137.323 98.3807
L137.472 121.714
L138.142 254.483
L138.216 251.195
L138.514 199.395
L138.588 201.656
L138.886 233.708
L138.96 232.908
L139.183 212.863
L139.481 181.72
L139.704 198.713
L139.853 206.593
L140.002 197.232
L140.299 170.631
L140.522 137.088
L140.597 136.614
L140.82 149.648
L141.043 180.515
L141.266 202.93
L141.49 210.276
L141.713 227.941
L141.936 220.061
L142.085 225.482
L142.159 225.621
L142.234 226.579
L142.308 225.591
L142.457 198.96
L142.829 105.777
L142.903 108.413
L143.052 115.137
L143.201 143.032
L143.647 259.312
L143.87 279.07
L143.945 277.105
L144.242 225.088
L144.689 157.251
L144.763 152.62
L144.912 160.865
L145.061 154.704
L145.135 156.678
L145.284 163.215
L145.358 164.074
L145.507 168.567
L145.656 165.19
L145.73 169.574
L146.102 225.018
L146.251 232.661
L146.326 232.434
L146.4 232.631
L146.549 244.56
L146.623 242.121
L146.772 219.054
L147.293 102.745
L147.367 106.428
L148.409 278.103
L148.558 266.51
L149.004 119.541
L149.078 120.074
L149.525 187.16
L149.822 232.236
L149.897 230.627
L150.046 208.43
L150.343 159.177
L150.418 160.885
L150.79 200.915
L150.864 199.809
L150.938 200.145
L151.013 200.283
L151.236 194.922
L151.459 187.052
L151.534 187.792
L151.757 202.357
L151.831 202.051
L152.054 192.226
L152.129 192.492
L152.65 210.533
L152.724 215.243
L152.798 212.488
L153.022 168.498
L153.245 142.183
L153.319 146.133
L153.542 192.433
L153.766 218.482
L153.914 210.444
L154.584 150.606
L154.658 152.906
L154.807 172.467
L155.179 243.306
L155.402 251.679
L155.477 254.839
L155.551 252.123
L155.7 226.421
L156.072 116.303
L156.146 132.457
L156.444 247.7
L156.667 233.629
L156.89 195.899
L157.337 53.6995
L157.411 55.6941
L157.634 114.347
L158.155 294.198
L158.304 283.968
L158.527 242.634
L158.75 193.381
L158.825 190.488
L158.974 197.41
L159.197 212.705
L159.271 211.866
L159.494 178.797
L159.718 150.359
L159.866 167.353
L160.238 221.701
L160.313 224.801
L160.387 219.884
L160.61 160.332
L160.834 90.1751
L160.908 91.2021
L161.057 129.939
L161.354 242.841
L161.429 247.946
L161.503 244.481
L161.95 182.361
L162.545 218.452
L162.619 218.442
L162.842 210.118
L163.14 193.47
L163.363 185.018
L163.586 180.545
L163.661 181.344
L163.735 181.196
L163.81 180.89
L164.182 161.201
L164.256 164.874
L164.777 225.68
L164.926 217.01
L165.372 171.411
L165.446 174.393
L165.521 177.592
L165.595 177.217
L165.744 182.579
L165.893 188.582
L165.967 189.55
L166.042 193.332
L166.116 192.404
L166.414 176.338
L166.711 201.676
L166.786 201.162
L166.86 201.458
L166.934 200.046
L167.158 184.396
L167.53 206.218
L167.604 203.265
L167.678 203.364
L167.902 204.144
L167.976 203.66
L168.646 175.509
L168.72 175.598
L168.794 178.007
L168.943 174.482
L169.241 187.624
L169.538 212.083
L169.613 211.185
L169.687 208.825
L169.836 190.607
L169.985 178.787
L170.059 179.893
L170.357 196.926
L170.431 196.304
L170.803 182.668
L170.878 183.082
L171.324 200.688
L171.547 190.695
L171.622 191.248
L171.77 180.031
L171.845 176.052
L171.994 184.603
L172.142 193.302
L172.217 190.646
L172.366 193.213
L172.514 202.999
L172.589 199.849
L172.738 190.004
L172.961 197.331
L173.035 196.827
L173.11 196.837
L173.184 197.212
L173.407 185.472
L173.482 187.466
L173.556 186.805
L173.705 182.628
L173.928 195.919
L174.077 204.954
L174.151 203.512
L174.226 197.617
L174.3 197.755
L174.374 201.419
L174.449 199.237
L174.672 186.489
L174.821 183.438
L175.118 192.818
L175.267 191.722
L175.416 195.554
L175.49 194.951
L176.16 167.856
L176.234 169.801
L176.383 187.911
L176.606 212.567
L176.681 214.226
L176.755 212.32
L176.83 214.7
L176.904 214.611
L177.276 181.888
L177.35 181.127
L177.425 182.776
L177.499 182.065
L177.648 182.717
L177.871 196.817
L177.946 195.228
L178.169 202.179
L178.466 185.827
L178.838 163.571
L179.062 179.478
L179.434 218.383
L179.582 207.877
L179.88 193.312
L179.954 191.495
L180.029 195.455
L180.178 212.685
L180.252 211.412
L180.475 205.062
L180.624 187.121
L180.773 198.062
L180.847 194.576
L181.294 151.248
L182.038 202.91
L182.186 195.583
L182.261 189.797
L182.335 191.811
L182.484 196.64
L182.633 189.046
L182.707 189.807
L183.005 195.475
L183.154 190.982
L183.302 202.071
L183.451 190.903
L183.6 200.984
L183.674 198.94
L183.749 192.966
L183.823 193.253
L184.046 207.936
L184.121 205.566
L184.418 184.544
L184.493 184.889
L184.642 201.31
L184.716 200.896
L185.088 167.372
L185.311 179.123
L185.386 181.354
L185.534 191.87
L185.609 190.685
L185.832 184.534
L185.906 183.922
L186.055 193.194
L186.13 191.12
L186.204 190.439
L186.427 201.33
L186.576 199.434
L186.725 204.885
L186.874 201.36
L187.022 202.15
L187.246 192.473
L187.394 195.03
L187.469 193.993
L187.766 172.082
L187.841 173.563
L187.99 184.692
L188.064 183.527
L188.138 179.567
L188.213 180.13
L188.362 194.201
L188.51 191.94
L188.659 198.457
L188.808 191.288
L188.882 195.465
L188.957 195.445
L189.106 185.235
L189.18 185.867
L189.254 188.118
L189.329 185.205
L189.403 185.58
L189.552 192.581
L189.775 206.988
L189.85 205.773
L189.998 199.197
L190.073 199.72
L190.296 204.885
L190.37 209.071
L190.445 208.331
L190.519 204.756
L190.594 205.517
L190.668 205.941
L190.742 201.626
L191.114 159.463
L191.263 152.887
L191.561 178.945
L191.71 184.702
L191.784 184.682
L191.858 185.551
L192.082 197.825
L192.305 215.974
L192.379 217.692
L192.528 211.629
L192.602 213.851
L192.677 209.95
L192.826 189.619
L192.974 199.977
L193.049 198.101
L193.123 190.913
L193.198 195.01
L193.346 207.097
L193.57 179.883
L193.793 162.238
L193.942 167.392
L194.239 186.923
L194.388 203.532
L194.537 199.464
L194.611 203.532
L194.686 202.456
L194.834 191.851
L194.983 195.761
L195.058 194.132
L195.132 194.349
L195.281 198.17
L195.355 194.843
L195.504 179.745
L195.653 188.177
L195.802 196.304
L195.876 196.215
L195.95 197.321
L196.099 187.812
L196.248 179.942
L196.694 205.536
L196.769 205.477
L197.215 187.782
L197.29 187.308
L197.364 185.966
L197.513 193.253
L197.662 183.24
L197.885 201.587
L197.959 200.501
L198.182 192.878
L198.331 188.464
L198.406 190.152
L198.703 184.297
L198.852 178.659
L198.926 180.446
L199.15 195.267
L199.224 195.386
L199.373 199.266
L199.522 191.959
L199.894 180.564
L199.968 181.562
L200.191 200.323
L200.266 199.316
L200.34 198.328
L200.786 169.466
L201.307 220.21
L201.605 198.526
L201.828 195.129
L202.051 201.488
L202.126 200.491
L202.274 189.55
L202.498 171.855
L202.646 175.193
L202.87 191.317
L202.944 191.258
L203.093 188.197
L203.167 188.197
L203.316 169.861
L203.39 170.048
L203.688 192.167
L203.911 215.974
L203.986 217.257
L204.06 215.667
L204.432 187.22
L204.506 183.161
L204.581 185.156
L204.655 185.324
L204.804 192.927
L205.176 178.866
L205.25 181.088
L205.474 192.019
L205.697 180.969
L205.846 173.011
L206.218 195.672
L206.441 204.697
L206.664 221.632
L206.962 201.142
L207.036 202.515
L207.11 201.251
L207.259 196.926
L207.408 194.398
L207.78 175.469
L207.854 175.607
L208.078 173.83
L208.375 182.164
L208.598 195.405
L208.822 180.633
L208.896 180.258
L208.97 180.466
L209.342 196.62
L209.64 211.55
L209.714 213.604
L209.789 212.458
L209.938 194.29
L210.161 169.752
L210.235 166.454
L210.31 168.982
L210.682 212.468
L210.756 217.573
L210.83 215.766
L210.905 212.113
L211.202 182.144
L211.351 177.948
L211.426 179.044
L211.5 178.017
L211.574 178.767
L211.723 186.627
L211.798 186.124
L211.872 186.173
L212.021 198.812
L212.17 209.289
L212.318 210.158
L212.467 203.818
L212.765 174.551
L212.839 178.787
L212.914 178.471
L212.988 181.818
L213.137 196.156
L213.286 193.766
L213.36 197.963
L213.434 197.351
L213.732 170.828
L214.253 202.495
L214.55 184.415
L214.625 187.012
L214.848 202.624
L215.071 217.415
L215.294 192.374
L215.518 165.753
L215.592 167.096
L216.038 203.966
L216.336 189.076
L216.485 195.534
L216.559 191.861
L216.634 192.157
L217.08 210.108
L217.229 200.422
L217.378 209.97
L217.824 163.186
L218.27 196.067
L218.345 197.528
L218.568 190.607
L218.791 176.18
L218.94 180.624
L219.238 195.326
L219.386 196.225
L219.461 194.843
L219.833 169.387
L220.13 180.081
L220.428 215.263
L220.502 214.522
L220.577 212.379
L220.651 215.667
L220.726 215.638
L220.874 210.464
L221.023 211.747
L221.098 211.076
L221.172 212.053
L221.395 220.101
L221.47 217.968
L221.618 203.641
L222.139 146.133
L222.288 135.014
L222.511 138.924
L222.809 197.351
L223.032 242.575
L223.106 241.528
L223.33 219.153
L223.627 191.979
L223.925 201.834
L223.999 198.111
L224.148 204.243
L224.594 163.502
L224.966 183.053
L225.115 190.764
L225.19 191.811
L225.338 195.791
L225.413 193.776
L225.487 195.06
L225.636 201.389
L226.082 177.553
L226.306 179.903
L226.678 213.169
L226.752 215.322
L226.826 214.433
L227.124 189.204
L227.273 182.194
L227.422 178.57
L227.496 179.241
L227.57 181.502
L227.645 180.002
L227.719 180.545
L227.868 192.957
L228.017 186.558
L228.612 208.755
L228.686 208.597
L228.761 208.193
L228.91 214.956
L229.579 163.028
L229.728 158.456
L229.802 160.984
L230.249 207.738
L230.323 207.551
L230.398 209.605
L230.472 207.462
L230.77 186.015
L230.844 182.816
L231.067 193.914
L231.142 194.201
L231.365 203.236
L231.514 196.571
L231.811 209.032
L231.886 207.541
L232.109 203.295
L232.258 204.302
L232.332 202.11
L232.555 184.741
L232.63 181.888
L232.853 166.997
L233.002 164.519
L233.15 169.16
L233.225 167.491
L233.969 217.287
L234.192 211.441
L234.266 211.747
L234.415 201.557
L234.49 203.038
L234.564 203.492
L235.01 170.285
L235.159 176.358
L235.308 167.876
L235.68 177.493
L235.978 190.241
L236.126 193.796
L236.201 192.226
L236.424 195.504
L236.498 198.496
L236.573 197.528
L236.647 197.41
L236.796 202.337
L236.945 186.252
L237.019 186.519
L237.168 194.596
L237.54 242.664
L237.614 241.785
L237.763 225.236
L238.061 186.509
L238.358 174.195
L238.582 148.404
L238.656 150.092
L238.879 160.45
L238.954 161.013
L239.028 159.196
L239.102 160.865
L239.177 160.826
L239.326 150.971
L239.474 162.336
L239.623 185.492
L239.921 242.743
L240.07 251.699
L240.144 248.756
L240.59 199.74
L240.814 198.95
L240.962 189.106
L241.111 170.749
L241.186 171.283
L241.26 173.139
L241.409 164.993
L241.558 156.116
L241.706 158.505
L241.781 160.944
L242.153 192.601
L242.227 191.91
L242.302 189.076
L242.376 189.412
L242.822 202.643
L242.897 204.865
L243.046 223.843
L243.269 248.025
L243.418 244.747
L243.566 234.725
L243.79 195.998
L244.013 156.698
L244.087 156.896
L244.162 154.18
L244.534 118.603
L244.608 123.047
L244.906 178.046
L245.129 215.045
L245.203 215.816
L245.278 215.322
L245.352 215.45
L245.575 224.001
L245.65 223.31
L245.873 211.658
L246.096 193.381
L246.319 203.878
L246.542 215.608
L246.617 215.816
L247.063 181.759
L247.138 185.265
L247.212 187.615
L247.361 180.011
L247.584 163.926
L247.658 163.739
L247.956 178.58
L248.402 201.636
L248.477 204.105
L248.551 203.986
L248.923 165.121
L248.998 166.464
L249.37 189.451
L249.444 187.94
L249.518 188.622
L249.816 210.098
L249.89 209.476
L249.965 206.909
L250.039 207.699
L250.262 227.526
L250.337 224.011
L250.56 190.528
L250.858 138.589
L251.081 163.047
L251.23 191.12
L251.378 253.881
L251.602 365.895
L251.75 301.712
L252.122 75.028
L252.346 44.8324
L252.42 43.5093
L252.569 66.0226
L252.866 155.691
L253.387 316.03
L253.536 335.847
L253.685 316.365
L253.982 253.614
L254.652 64.344
L254.726 62.5765
L254.875 75.5809
L256.066 306.718
L256.14 306.659
L256.289 299.283
L256.586 243.246
L256.958 149.806
L257.182 126.453
L257.33 123.827
L257.405 127.628
L257.702 185.946
L258 235.88
L258.074 240.452
L258.223 203.137
L258.521 82.2658
L258.595 71.3646
L258.67 76.0154
L259.19 184.544
L259.562 273.195
L259.786 290.208
L259.934 295.866
L260.009 291.769
L261.348 111.405
L261.794 133.849
L262.241 197.923
L262.464 221.819
L262.538 223.083
L262.762 218.936
L262.836 219.805
L262.985 226.825
L263.134 234.399
L263.282 229.975
L263.729 206.692
L263.803 206.247
L264.473 167.471
L264.919 136.249
L265.291 158.9
L265.812 246.465
L265.886 242.94
L266.333 174.353
L266.407 178.135
L266.705 208.538
L266.928 228.85
L267.002 236.64
L267.077 233.935
L267.746 160.51
L267.97 147.041
L268.118 153.242
L268.416 190.695
L268.49 187.634
L268.714 163.245
L268.937 152.897
L269.011 156.432
L269.681 251.788
L269.755 249.072
L270.202 213.11
L270.276 214.265
L270.574 204.243
L271.094 134.214
L271.169 136.11
L271.764 184.356
L271.913 189.451
L272.21 224.732
L272.285 223.192
L272.359 219.202
L272.508 228.504
L272.582 224.347
L272.88 187.901
L273.178 152.284
L273.252 152.363
L273.401 164.222
L273.773 207.156
L273.847 206.988
L274.145 188.434
L274.219 186.203
L274.294 188.237
L274.666 224.001
L274.74 224.781
L275.335 161.082
L275.41 164.351
L275.856 219.548
L275.93 218.728
L276.079 210.562
L276.526 172.458
L276.6 170.493
L276.823 160.648
L276.898 161.191
L277.418 202.021
L277.567 211.708
L278.088 189.214
L278.162 189.767
L278.311 186.114
L278.46 201.083
L278.534 207.719
L278.609 205.211
L278.683 203.552
L278.832 211.185
L278.906 206.425
L278.981 206.85
L279.055 205.26
L279.502 174.255
L279.576 172.872
L279.874 192.325
L280.097 177.829
L280.32 194.872
L280.543 209.052
L280.915 180.406
L281.138 177.987
L281.287 178.738
L281.734 194.339
L281.808 197.183
L281.882 196.422
L281.957 197.597
L282.18 214.226
L282.254 212.014
L282.552 192.404
L282.701 184.218
L282.775 184.563
L282.85 183.783
L282.998 184.712
L283.147 183.191
L283.296 192.413
L283.37 190.073
L283.445 188.642
L283.668 197.627
L283.817 207.946
L284.189 187.95
L284.263 187.338
L284.412 202.712
L284.486 209.772
L284.561 207.215
L284.71 195.909
L284.784 194.191
L285.156 166.888
L285.379 169.851
L285.528 164.252
L285.602 164.904
L286.198 219.054
L286.421 212.192
L286.942 170.078
L287.388 221.839
L287.611 202.021
L287.686 207.492
L287.76 206.376
L287.909 194.22
L287.983 196.827
L288.058 193.658
L288.206 180.475
L288.281 181.986
L288.355 180.89
L288.578 172.359
L288.727 170.947
L289.025 177.187
L289.099 172.971
L289.174 172.991
L289.397 195.988
L289.471 194.25
L289.62 208.992
L289.694 208.518
L289.769 205.843
L289.918 211.352
L290.066 206.721
L290.141 207.58
L290.438 200.53
L290.662 181.404
L290.736 181.038
L290.885 172.961
L291.182 191.011
L291.257 190.804
L291.406 187.447
L291.554 185.798
L291.629 185.511
L291.852 171.52
L291.926 174.314
L292.373 218.827
L292.447 218.166
L292.67 201.715
L293.042 180.13
L293.563 191.91
L293.638 191.436
L293.861 179.676
L294.084 193.598
L294.307 202.426
L294.382 207.087
L294.53 199.395
L294.605 205.023
L294.679 202.475
L294.902 157.281
L295.051 153.035
L295.646 219.736
L296.167 184.929
L296.242 187.279
L296.39 191.258
L296.465 190.31
L296.539 190.853
L296.688 200.392
L296.911 195.297
L297.06 198.397
L297.209 202.021
L297.283 202.426
L297.358 197.973
L297.506 173.899
L297.581 173.998
L297.655 174.186
L297.73 175.4
L298.027 197.311
L298.102 193.569
L298.176 184.346
L298.25 184.672
L298.325 185.413
L298.474 176.812
L298.622 184.929
L298.697 183.931
L299.069 203.236
L299.218 193.273
L299.441 178.214
L299.515 181.038
L299.664 190.942
L299.738 187.664
L299.887 190.942
L300.036 185.018
L300.185 203.107
L300.259 201.883
L300.334 201.695
L300.408 206.05
L300.482 204.134
L300.631 188.375
L300.706 188.651
L300.854 193.697
L300.929 194.349
L301.078 201.685
L301.301 214.394
L301.375 212.755
L301.822 179.873
L301.896 181.137
L301.97 183.517
L302.119 179.162
L302.268 185.729
L302.417 181.69
L302.491 184.099
L302.566 181.789
L302.714 172.132
L303.086 196.65
L303.161 196.067
L303.31 194.063
L303.458 198.012
L303.533 197.4
L303.682 193.381
L303.83 200.293
L303.905 197.528
L303.979 197.775
L304.054 202.89
L304.128 202.703
L304.351 189.313
L304.5 190.202
L304.649 201.389
L304.723 199.641
L304.872 191.278
L304.946 193.569
L305.095 186.41
L305.318 177.256
L305.542 162.267
L305.616 161.517
L305.69 164.459
L305.914 183.783
L305.988 179.626
L306.062 181.354
L306.36 210.148
L306.434 211.787
L306.583 209.19
L306.658 211.145
L306.806 219.084
L306.955 208.311
L307.03 209.921
L307.104 211.807
L307.178 210.888
L307.402 186.469
L307.476 186.568
L307.774 192.364
L307.997 180.545
L308.071 180.959
L308.22 190.35
L308.294 189.422
L308.443 180.327
L308.666 162.228
L308.815 164.43
L308.964 179.557
L309.187 193.658
L309.262 194.527
L309.485 202.031
L309.634 202.86
L309.857 187.437
L309.931 189.589
L310.08 199.474
L310.154 196.541
L310.229 196.857
L310.303 195.405
L310.378 189.817
L310.452 192.226
L310.75 209.457
L310.824 213.209
L310.898 212.804
L310.973 212.774
L311.047 211.273
L311.196 198.595
L311.419 175.183
L311.717 165.674
L312.238 191.703
L312.461 184.573
L312.535 181.256
L312.758 188.474
L313.205 209.99
L313.279 209.437
L313.428 212.3
L313.949 184.109
L314.172 178.491
L314.246 175.667
L314.47 185.847
L314.544 183.882
L314.767 171.776
L314.99 177.523
L315.362 211.017
L315.511 207.956
L315.66 215.065
L315.734 212.261
L315.958 195.484
L316.032 195.85
L316.106 197.42
L316.181 196.363
L316.33 199.227
L316.404 197.716
L316.627 187.802
L316.702 185.719
L316.925 168.468
L316.999 172.961
L317.074 172.882
L317.148 170.354
L317.222 170.888
L317.371 179.686
L317.594 197.726
L317.743 208.647
L317.818 209.733
L317.966 205.536
L318.041 205.931
L318.264 199.641
L318.859 166.543
L319.008 182.154
L319.231 200.56
L319.306 204.658
L319.38 203.097
L319.826 181.325
L319.901 183.556
L320.124 196.58
L320.496 208.281
L320.719 207.057
L320.942 187.022
L321.017 189.185
L321.091 190.764
L321.166 189.56
L321.24 190.518
L321.389 195.978
L321.538 193.391
L321.612 197.074
L321.686 196.393
L321.984 166.513
L322.058 167.54
L322.282 184.07
L322.356 180.169
L322.505 174.887
L322.654 178.283
L322.877 191.782
L322.951 190.547
L323.323 208.844
L323.695 180.999
L323.77 180.624
L324.067 202.505
L324.142 203.542
L324.365 198.565
L324.514 191.238
L324.588 193.055
L324.811 212.389
L324.886 213.169
L324.96 216.773
L325.034 214.591
L325.555 167.066
L325.927 181.216
L326.225 195.771
L326.299 197.696
L326.374 197.252
L326.597 182.984
L326.671 182.776
L326.82 180.396
L326.969 173.81
L327.043 175.173
L327.192 182.381
L327.341 179.152
L327.49 182.766
L327.787 212.597
L327.936 216.536
L328.085 230.923
L328.159 230.202
L328.308 221.474
L328.68 181.196
L328.978 158.851
L329.052 160.174
L329.126 160.559
L329.201 157.429
L329.275 160.273
L329.87 222.056
L329.945 223.498
L330.019 220.437
L330.242 202.1
L330.391 200.649
L330.466 198.516
L330.614 200.254
L330.763 190.221
L330.838 191.584
L331.061 199.483
L331.135 199.691
L331.284 186.114
L331.433 176.822
L331.507 177.306
L331.656 161.132
L331.73 161.932
L332.251 178.224
L332.326 176.239
L332.549 201.33
L332.772 219.588
L332.995 214.423
L333.218 193.47
L333.367 183.201
L333.442 184.633
L333.962 214.68
L334.26 198.476
L334.483 182.48
L334.558 182.095
L334.706 173.721
L334.855 182.233
L335.004 180.841
L335.078 181.493
L335.376 166.099
L335.45 167.698
L335.897 205.369
L335.971 204.697
L336.269 186.252
L336.343 188.227
L336.418 187.743
L336.492 187.812
L337.013 212.794
L337.162 207.946
L337.31 195.672
L337.682 159.117
L337.831 168.073
L338.278 209.753
L338.426 215.756
L338.575 210.049
L338.724 212.488
L338.798 209.22
L338.947 197.143
L339.022 199.73
L339.245 185.344
L339.319 187.21
L339.394 187.496
L339.468 187.012
L339.617 181.897
L339.766 187.299
L339.84 186.173
L339.914 182.826
L339.989 183.981
L340.063 183.546
L340.212 180.16
L340.286 180.495
L340.658 167.757
L341.105 189.185
L341.551 216.27
L341.626 219.449
L341.7 217.919
L341.998 199.711
L342.221 187.249
L342.444 202.712
L342.593 191.762
L342.89 179.873
L342.965 179.567
L343.411 192.957
L343.634 183.142
L343.783 188.582
L344.006 182.302
L344.081 182.391
L344.23 190.656
L344.527 206.336
L344.602 206.04
L344.75 216.487
L344.825 215.47
L344.899 209.269
L344.974 209.674
L345.048 208.341
L345.271 187.269
L345.346 188.78
L345.42 187.812
L345.569 171.658
L345.643 164.716
L345.718 164.864
L345.792 163.699
L345.866 160.668
L346.462 204.036
L346.536 216.833
L346.61 213.831
L346.685 205.477
L346.759 205.487
L346.834 206.741
L346.982 194.112
L347.057 194.941
L347.131 195.939
L347.206 195.001
L347.652 179.528
L347.801 184.07
L348.098 193.727
L348.173 194.092
L348.47 180.93
L348.545 181.088
L348.768 198.861
L348.991 206.237
L349.363 184.603
L349.438 186.943
L349.661 200.382
L349.735 201.873
L349.81 201.636
L349.884 201.004
L350.33 176.792
L350.405 178.915
L350.628 189.461
L350.702 190.824
L350.851 205.892
L350.926 204.677
L351.074 193.954
L351.149 193.974
L351.298 198.931
L351.521 191.861
L351.744 164.124
L351.818 165.694
L351.967 171.253
L352.042 168.36
L352.19 171.065
L352.265 170.374
L352.339 170.453
L352.414 174.008
L352.637 206.642
L352.711 205.013
L352.86 222.125
L353.083 234.715
L353.158 233.076
L353.381 199.829
L353.53 180.061
L353.678 177.898
L354.05 208.321
L354.125 207.847
L354.199 204.055
L354.274 206.208
L354.348 212.044
L354.422 211.56
L354.571 192.443
L354.869 146.863
L355.018 138.401
L355.092 140.04
L355.687 181.364
L355.762 182.411
L356.506 228.672
L356.952 209.634
L357.026 209.95
L357.547 187.131
L357.77 169.9
L357.919 176.012
L358.068 184.326
L358.291 194.132
L359.035 149.954
L359.258 164.696
L359.779 229.57
L359.854 229.373
L359.928 231.131
L360.002 229.472
L360.672 176.397
L360.895 165.822
L361.044 168.409
L361.193 175.242
L361.342 194.507
L361.639 238.22
L361.714 241.637
L362.16 202.752
L362.681 132.605
L362.755 134.767
L362.978 161.971
L363.053 160.213
L363.202 153.677
L363.499 159.897
L363.871 198.94
L364.169 230.943
L364.392 241.133
L364.541 236.265
L364.615 238.161
L364.69 236.887
L364.764 237.105
L364.838 239.603
L364.913 238.398
L365.21 224.732
L365.508 167.145
L365.806 135.666
L365.88 136.189
L366.029 144.454
L366.326 172.655
L366.55 205.033
L366.624 202.347
L366.773 191.367
L366.847 191.436
L366.922 189.935
L366.996 184.968
L367.07 186.914
L367.368 207.314
L367.442 204.944
L367.517 205.25
L367.591 207.472
L367.814 198.328
L367.963 201.113
L368.038 200.836
L368.112 199.365
L368.186 195.692
L368.41 179.142
L368.484 178.688
L368.633 179.251
L368.782 172.448
L368.856 173.356
L368.93 172.586
L369.674 199.237
L369.972 222.125
L370.046 222.135
L370.344 195.475
L370.493 181.907
L370.716 197.805
L370.79 197.667
L371.014 202.12
L371.162 208.795
L371.534 190.784
L371.906 156.945
L372.427 186.282
L372.576 184.652
L372.799 194.714
L372.874 192.404
L373.097 189.017
L373.246 184.662
L373.394 192.394
L373.469 191.495
L373.543 191.732
L373.766 205.704
L373.841 202.939
L373.915 197.973
L373.99 199.227
L374.138 206.435
L374.213 206.277
L374.362 215.539
L374.585 205.556
L374.882 187.733
L374.957 186.519
L375.031 180.949
L375.106 181.364
L375.254 185.008
L375.329 184.712
L375.478 188.296
L375.552 186.607
L375.775 172.862
L375.924 165.565
L375.998 166.612
L376.445 201.577
L376.519 197.262
L376.594 198.545
L376.742 214.907
L376.817 214.265
L376.891 216.448
L376.966 223.083
L377.04 222.402
L377.189 200.52
L377.263 200.817
L377.338 200.382
L377.561 189.797
L377.635 191.08
L377.858 178.224
L377.933 178.254
L378.082 179.32
L378.23 193.045
L378.602 173.05
L378.677 176.121
L378.751 176.072
L378.826 176.852
L379.049 181.572
L379.123 179.231
L379.198 180.1
L379.57 198.555
L380.016 236.512
L380.165 224.258
L380.686 171.065
L380.834 160.253
L380.909 161.843
L381.355 195.791
L381.504 181.611
L381.578 182.411
L381.95 213.979
L382.025 211.471
L382.694 161.497
L382.843 167.56
L383.29 203.907
L383.513 219.834
L383.662 216.359
L383.81 218.255
L384.331 207.847
L384.852 167.511
L384.926 167.53
L385.075 176.151
L385.224 165.743
L385.447 180.367
L385.522 179.626
L385.596 178.738
L385.894 199.77
L385.968 202.357
L386.042 202.238
L386.191 191.357
L386.266 192.009
L386.34 195.909
L386.414 194.576
L386.489 189.155
L386.563 189.836
L386.638 194.457
L386.712 193.421
L386.861 187.072
L387.01 194.882
L387.158 192.67
L387.307 199.266
L387.53 191.347
L387.679 194.615
L387.902 182.569
L388.051 174.363
L388.2 186.943
L388.721 237.46
L388.944 221.158
L389.018 222.313
L389.167 206.267
L389.614 135.172
L389.762 147.535
L390.209 188.118
L390.432 206.642
L390.506 204.687
L390.581 202.535
L390.655 204.045
L390.878 194.941
L391.027 204.845
L391.25 189.668
L391.399 193.253
L391.474 191.762
L391.622 202.071
L391.846 184.741
L391.92 188.809
L392.143 193.796
L392.366 216.734
L392.664 208.133
L392.962 169.94
L393.185 165.575
L393.259 166.266
L393.631 186.716
L393.854 197.212
L394.003 196.008
L394.078 194.467
L394.152 195.593
L394.301 204.065
L394.375 201.439
L394.45 202.308
L394.524 202.781
L394.747 194.053
L394.822 194.497
L394.896 196.492
L394.97 195.939
L395.119 194.704
L395.566 176.792
L395.64 176.812
L395.714 176.555
L395.789 178.57
L396.086 201.794
L396.384 204.124
L396.83 189.234
L397.128 181.937
L397.351 200.431
L397.426 195.514
L397.5 194.22
L397.574 195.05
L397.649 193.549
L397.798 182.273
L398.095 197.509
L398.244 194.398
L398.542 177.158
L398.765 186.864
L399.062 227.24
L399.137 219.815
L399.36 201.814
L399.732 160.302
L399.806 162.939
L399.955 172.556
L400.03 171.352
L400.178 178.293
L400.327 171.164
L400.774 216.023
L400.848 218.956
L400.922 218.245
L401.22 194.823
L401.369 199.039
L401.518 207.215
L401.89 177.938
L402.038 179.261
L402.187 173.05
L402.262 175.568
L402.485 191.475
L402.634 181.177
L402.782 195.356
L402.931 211.836
L403.378 192.68
L403.526 198.348
L403.75 202.87
L403.824 203.986
L404.047 191.732
L404.345 165.694
L404.419 167.165
L404.568 166.345
L404.642 167.372
L405.238 208.064
L405.312 204.342
L405.535 188.632
L405.61 188.829
L405.833 202.229
L405.907 199.533
L406.056 187.703
L406.205 195.07
L406.354 185.472
L406.577 199
L406.726 197.153
L406.8 197.667
L406.949 199.168
L407.023 198.19
L407.172 205.24
L407.246 204.46
L407.321 201.597
L407.395 203.295
L407.47 203.265
L407.99 169.169
L408.065 171.905
L408.288 162.485
L408.362 163.413
L408.511 177.395
L408.734 194.132
L409.106 206.544
L409.255 204.983
L409.33 205.991
L409.404 203.265
L409.627 210
L409.85 181.611
L409.925 181.779
L410.148 187.387
L410.222 186.143
L410.371 196.689
L410.446 194.941
L410.743 177.493
L410.818 177.572
L410.892 179.449
L410.966 178.066
L411.041 179.379
L411.487 210.701
L411.562 210.859
L411.71 199.671
L412.008 186.163
L412.082 185.847
L412.157 184.899
L412.231 178.866
L412.306 181.759
L412.678 217.84
L412.752 216.892
L412.975 198.387
L413.05 196.205
L413.496 165.506
L413.942 189.915
L414.314 179.508
L414.389 179.715
L414.761 201.498
L414.835 200.639
L414.984 189.076
L415.058 189.323
L415.133 194.951
L415.207 194.023
L415.282 194.22
L415.579 217.02
L415.728 223.132
L415.951 213.959
L416.472 169.268
L416.546 165.338
L416.621 166.543
L416.77 163.699
L416.844 166.444
L416.993 178.264
L417.142 176.151
L417.216 177.385
L417.514 191.94
L417.588 190.123
L417.811 203.048
L417.96 196.511
L418.109 200.994
L418.481 177.78
L418.555 177.187
L418.853 186.963
L418.927 188
L419.374 203.018
L419.448 200.589
L419.597 207.748
L419.746 196.719
L419.82 198.624
L419.894 205.852
L419.969 205.22
L420.043 198.032
L420.118 198.229
L420.192 199.622
L420.415 180.298
L420.49 180.396
L420.564 180.485
L420.862 197.588
L421.01 208.913
L421.085 208.785
L421.308 190.922
L421.382 191.732
L421.531 198.703
L421.754 191.456
L422.052 168.37
L422.201 166.711
L422.35 170.344
L422.573 189.807
L422.647 185.047
L422.796 169.456
L422.87 169.634
L423.54 210.483
L423.689 204.658
L423.838 210.059
L424.061 223.764
L424.135 224.041
L424.284 220.368
L425.102 169.732
L425.177 169.801
L425.251 169.406
L425.474 172.853
L425.623 168.853
L425.698 170.295
L425.846 180.91
L426.144 206.662
L426.367 195.83
L426.516 206.504
L426.59 204.352
L426.814 189.471
L426.888 189.767
L427.037 195.514
L427.186 194.517
L427.26 194.546
L427.409 203.562
L427.781 190.745
L428.004 196.205
L428.525 171.964
L428.599 172.3
L428.822 180.92
L428.971 176.97
L429.046 178.55
L429.343 193.598
L429.418 193.608
L429.492 192.7
L429.566 194.151
L429.79 205.843
L430.236 225.018
L430.906 173.248
L431.203 164.529
L431.278 166.187
L431.724 201.853
L431.798 207.936
L431.873 205.724
L432.096 198.595
L432.394 182.993
L432.468 184.06
L432.84 193.865
L433.138 205.438
L433.361 190.024
L433.435 190.073
L433.584 186.469
L433.658 187.091
L434.105 201.063
L434.179 198.062
L434.402 178.027
L434.477 179.31
L434.626 175.953
L434.923 198.131
L435.072 209.427
L435.146 208.035
L435.593 187.052
L435.742 188.197
L435.89 185.798
L435.965 187.022
L436.188 201.774
L436.337 193.144
L436.411 193.855
L436.932 169.792
L437.081 173.159
L437.155 172.023
L437.23 172.862
L437.378 188.128
L437.527 205.092
L437.602 204.687
L437.75 212.093
L437.825 211.728
L437.974 201.369
L438.122 190.251
L438.346 198.437
L438.42 199.187
L438.643 192.996
L438.718 194.843
L438.941 185.136
L439.015 186.864
L439.09 186.479
L439.238 183.467
L439.313 186.124
L439.462 193.677
L439.61 191.011
L439.685 192.581
L439.759 191.989
L439.908 189.639
L440.131 196.58
L440.206 195.386
L440.354 191.357
L440.578 192.571
L440.801 200.501
L440.95 192.127
L441.098 196.768
L441.173 194.319
L441.322 186.993
L441.47 189.115
L441.619 187.871
L441.842 189.422
L441.917 191.545
L441.991 191.367
L442.363 176.891
L442.512 182.756
L442.735 177.523
L442.81 179.557
L442.958 186.064
L443.182 188.197
L443.256 188.019
L443.628 212.33
L443.777 222.737
L444.298 194.23
L444.372 192.226
L444.446 193.203
L444.521 197.133
L444.595 195.563
L444.818 187.496
L445.116 173.208
L445.414 164.38
L445.786 175.341
L445.934 178.826
L446.083 193.579
L446.455 231.93
L446.976 204.45
L447.125 191.653
L447.348 167.461
L447.497 163.274
L447.571 160.559
L447.72 170.088
L448.018 204.983
L448.092 201.764
L448.241 197.607
L448.315 196.788
L448.687 183.349
L448.836 177.355
L449.134 193.421
L449.208 193.697
L449.431 189.175
L449.506 191.308
L449.878 211.876
L449.878 211.876" style="fill:none;stroke:#808080;stroke-linecap:square;"/>
   </g>
  </g>
 </g>
 <defs>
  <clipPath id="p7ff5b81e1d">
   <rect height="345.6" width="446.4" x="72.0" y="43.2"/>
  </clipPath>
 </defs>
</svg>
