<?xml version="1.0" encoding="utf-8" standalone="no"?>
<!DOCTYPE svg PUBLIC "-//W3C//DTD SVG 1.1//EN"
  "http://www.w3.org/Graphics/SVG/1.1/DTD/svg11.dtd">
<!-- Created with matplotlib (http://matplotlib.org/) -->
<svg height="432pt" version="1.1" viewBox="0 0 576 432" width="576pt" xmlns="http://www.w3.org/2000/svg" xmlns:xlink="http://www.w3.org/1999/xlink">
 <defs>
  <style type="text/css">
*{stroke-linecap:butt;stroke-linejoin:round;}
  </style>
 </defs>
 <g id="figure_1">
  <g id="patch_1">
   <path d="
M0 432
L576 432
L576 0
L0 0
z
" style="fill:#ffffff;"/>
  </g>
  <g id="axes_1">
   <g id="line2d_1">
    <path clip-path="url(#p7ff5b81e1d)" d="
M72 217.586
L72.0744 217.067
L72.2232 210.116
L72.2976 205.671
L72.372 206.181
L72.8184 224.908
L73.116 242.685
L73.2648 227.223
L73.5624 186.209
L73.7856 212.527
L74.0088 227.69
L74.1576 214.117
L74.3808 198.042
L74.8272 236.831
L74.976 225.582
L75.1992 202.988
L75.2736 202.453
L75.5712 235.691
L75.72 254.396
L75.7944 253.744
L76.0176 220.877
L76.3152 182.002
L76.464 176.593
L76.5384 177.194
L76.6872 183.544
L77.0592 214.877
L77.208 208.591
L77.4312 203.744
L77.58 215.784
L78.0264 287.777
L78.5472 230.407
L78.696 217.128
L79.068 147.321
L79.1424 149.857
L79.3656 198.245
L79.5144 217.08
L79.5888 214.151
L79.7376 183.993
L79.9608 127.267
L80.0352 126.628
L80.184 170.809
L80.6304 348.08
L80.7048 344.213
L81.0024 273.037
L81.3744 161.616
L81.4488 163.741
L81.9696 212.22
L82.2672 224.104
L82.4904 204.129
L82.788 172.779
L82.8624 173.923
L83.0856 191.774
L83.4576 217.218
L83.7552 234.511
L83.8296 235.125
L83.9784 231.686
L84.1272 225.159
L84.2016 225.534
L84.276 225.457
L84.3504 224.77
L84.4992 226.247
L84.7968 232.727
L84.9456 231.535
L85.0944 226.247
L85.3176 216.756
L85.392 216.19
L85.4664 216.549
L85.6896 220.022
L85.764 219.784
L85.9128 213.888
L86.2848 189.432
L86.3592 190.443
L87.0288 219.193
L87.252 224.403
L87.4008 222.7
L87.5496 230.394
L87.7728 245.912
L87.8472 246.828
L87.9216 246.305
L88.0704 239.181
L88.6656 167.69
L88.74 169.599
L88.8888 188.123
L89.112 209.598
L89.3352 225.932
L89.4096 224.951
L89.484 224.463
L89.7816 247.057
L89.856 245.45
L89.9304 244.849
L90.0792 247.653
L90.1536 246.651
L90.6 217.529
L90.8976 185.406
L91.0464 180.218
L91.1208 176.662
L91.1952 177.116
L91.6416 205.386
L91.9392 224.83
L92.0136 225.275
L92.1624 229.725
L92.3112 232.451
L92.6832 226.77
L93.0552 232.986
L93.1296 232.606
L93.4272 228.442
L94.0224 204.159
L94.0968 203.775
L94.32 209.019
L94.6176 191.026
L94.8408 180.783
L94.9152 181.479
L95.1384 194.029
L95.3616 218.562
L95.6592 246.301
L95.808 247.903
L95.8824 247.549
L96.0312 243.57
L96.2544 232.731
L96.7752 208.509
L96.8496 208.051
L96.9984 215.093
L97.2216 226.766
L97.296 224.428
L97.8168 187.203
L97.8912 186.002
L98.04 192.983
L98.5608 222.484
L98.784 226.973
L98.8584 226.645
L98.9328 225.824
L99.0072 226.195
L99.0816 225.919
L99.156 225.176
L99.4536 238.27
L99.7512 228.174
L100.198 199.852
L100.346 197.567
L100.495 192.227
L100.644 194.011
L100.793 200.988
L101.388 244.495
L101.537 249.083
L101.611 247.147
L101.76 232.827
L102.132 185.972
L102.281 177.781
L102.43 182.516
L103.322 234.157
L103.769 262.215
L103.918 252.582
L104.513 187.531
L104.587 187.294
L104.662 187.454
L104.736 186.672
L104.81 187.7
L105.331 211.563
L105.703 231.047
L105.778 230.736
L106.075 225.915
L106.224 232.17
L106.298 231.435
L106.67 224.631
L107.191 176.818
L107.266 179.937
L107.489 213.058
L107.786 261.74
L107.861 262.531
L107.935 259.688
L108.084 232.956
L108.382 167.815
L108.456 170.299
L108.679 207.459
L108.902 241.708
L108.977 241.812
L109.126 217.015
L109.349 182.866
L109.423 186.382
L109.87 286.809
L109.944 280.584
L110.167 229.915
L110.465 158.669
L110.539 152.894
L110.614 154.963
L110.762 182.3
L110.986 226.403
L111.209 232.006
L111.283 230.952
L111.655 211.52
L111.73 211.957
L111.804 211.157
L111.878 211.235
L112.027 214.307
L112.25 227.509
L112.325 227.033
L112.548 218.713
L112.697 224.1
L112.92 246.776
L113.143 262.691
L113.292 244.551
L113.664 157.296
L113.738 157.183
L113.962 172.96
L114.185 143.688
L114.334 170.515
L114.631 235.721
L114.78 246.815
L115.152 318.92
L115.226 315.468
L115.375 278.701
L115.673 204.353
L115.747 200.889
L115.896 205.697
L116.268 158.79
L116.566 106.138
L116.64 109.348
L117.384 309.545
L117.533 320.583
L117.607 320.479
L117.756 302.841
L118.054 206.919
L118.426 80.5293
L118.5 84.7801
L118.649 124.585
L119.095 285.47
L119.244 296.68
L119.318 297.246
L119.393 295.873
L119.542 276.61
L119.988 176.01
L120.062 175.707
L121.327 236.723
L121.55 223.616
L121.774 211.257
L121.848 212.864
L122.071 226.852
L122.146 226.005
L122.518 200.647
L123.038 216.976
L123.262 228.766
L123.336 227.357
L123.634 181.19
L123.708 181.319
L123.857 208.505
L124.154 266.553
L124.229 264.488
L124.526 201.234
L124.601 201.809
L124.824 211.222
L125.196 191.981
L125.345 210.782
L125.717 280.234
L125.94 244.745
L126.089 220.683
L126.238 194.033
L126.386 201.381
L126.461 199.956
L126.758 153.39
L126.907 140.119
L127.056 155.071
L127.428 223.37
L127.726 261.369
L127.949 280.221
L128.023 275.741
L128.246 227.003
L128.47 196.102
L128.544 196.05
L128.693 205.922
L129.065 243.246
L129.139 241.35
L129.288 225.409
L129.586 187.587
L129.734 185.358
L129.809 185.246
L129.883 186.909
L130.032 199.852
L130.404 243.117
L130.553 233.28
L130.999 169.124
L131.074 170.199
L131.222 184.887
L131.892 269.97
L131.966 269.931
L132.19 262.112
L132.338 252.003
L132.562 218.238
L133.008 145.446
L133.082 141.908
L133.157 142.716
L133.306 158.393
L133.901 268.38
L134.05 262.63
L134.57 220.437
L135.017 170.839
L135.091 171.241
L135.24 187.445
L135.612 245.259
L135.835 255.943
L135.984 247.808
L136.207 223.487
L136.654 158.445
L136.802 169.543
L137.546 259.451
L137.621 260.591
L137.695 260.362
L137.844 250.828
L138.365 186.814
L138.439 187.289
L138.588 195.718
L138.811 212.207
L138.886 210.695
L139.183 191.13
L139.258 193.523
L139.555 227.124
L139.778 243.441
L139.927 228.783
L140.15 202.267
L140.225 200.954
L140.522 214.065
L140.597 212.955
L140.671 211.879
L140.746 214.665
L141.118 259.312
L141.192 256.923
L141.341 230.787
L141.564 188.235
L141.638 186.659
L141.936 200.038
L142.01 199.619
L142.085 200.098
L142.382 209.352
L142.754 246.694
L142.829 246.46
L142.978 236.317
L143.424 195.385
L143.722 209.3
L144.317 196.875
L144.391 198.426
L144.614 219.534
L144.912 245.562
L145.061 248.754
L145.21 245.311
L145.433 237.665
L145.656 213.754
L145.879 193.476
L145.954 194.551
L146.251 215.3
L146.4 223.258
L146.474 221.098
L146.921 185.717
L146.995 186.551
L147.144 194.642
L147.516 220.087
L147.665 230.831
L147.888 248.171
L147.962 246.759
L148.483 219.219
L148.781 209.559
L149.078 195.32
L149.376 205.87
L150.046 234.589
L150.269 226.1
L150.343 227.193
L150.492 235.565
L150.566 233.22
L150.715 215.24
L151.013 177.12
L151.087 173.439
L151.162 175.021
L151.534 208.989
L151.608 208.587
L151.682 210.026
L152.278 258.997
L152.352 257.576
L152.798 228.424
L153.468 144.642
L153.542 147.459
L153.691 169.301
L154.212 258.12
L154.435 276.178
L154.51 276.087
L154.584 272.065
L155.254 186.905
L155.328 186.568
L155.774 210.972
L155.849 210.298
L156.146 201.494
L156.221 203.74
L156.593 226.558
L156.742 232.006
L157.039 246.551
L157.114 247.407
L157.188 244.698
L157.634 186.624
L157.932 214.994
L158.006 213.646
L158.378 172.269
L158.453 173.668
L158.676 201.291
L159.122 263.352
L159.271 266.609
L159.346 266.51
L159.42 265.412
L159.569 251.865
L160.313 149.023
L160.387 149.23
L160.536 160.596
L160.834 212.203
L161.28 285.924
L161.354 288.205
L161.429 286.153
L161.652 262.043
L162.098 211.926
L162.322 206.868
L162.47 208.142
L162.545 206.829
L162.768 187.86
L163.066 169.089
L163.289 166.182
L163.363 167.016
L163.512 170.649
L163.586 169.996
L163.661 171.798
L163.81 204.876
L164.107 272.601
L164.182 266.164
L164.479 186.754
L164.554 194.487
L164.926 261.174
L165.074 249.869
L165.149 251.403
L165.372 266.993
L165.521 280.498
L165.595 277.621
L165.967 166.095
L166.042 167.08
L166.339 209.706
L166.488 223.767
L166.562 223.271
L166.786 197.748
L167.083 172.709
L167.232 171.349
L167.306 172.014
L167.381 173.763
L167.53 185.929
L167.827 238.304
L168.05 267.516
L168.125 271.162
L168.199 270.747
L168.348 261.74
L169.018 188.032
L169.241 184.594
L169.39 189.251
L169.613 220.575
L169.91 254.042
L170.059 246.193
L170.208 234.511
L170.506 112.89
L170.58 116.623
L170.803 215.171
L171.101 306.772
L171.175 308.625
L171.324 293.229
L171.696 230.8
L171.994 182.183
L172.291 161.551
L172.366 160.769
L172.589 162.415
L172.738 176.243
L173.184 232.109
L173.407 241.821
L173.482 242.3
L173.705 237.782
L173.928 231.487
L174.3 218.527
L174.449 215.845
L174.672 210.989
L174.746 211.667
L175.118 221.024
L175.193 219.676
L175.639 199.394
L175.788 195.67
L176.011 202.656
L176.606 239.302
L176.681 239.211
L176.83 236.611
L177.053 222.065
L177.35 200.362
L177.574 204.099
L177.871 212.687
L178.094 207.135
L178.169 206.725
L178.243 207.503
L178.838 236.818
L178.987 231.41
L179.731 194.629
L179.806 194.836
L180.178 207.771
L180.326 211.481
L180.401 211.304
L180.475 210.194
L180.55 210.622
L180.624 210.639
L180.698 211.909
L181.07 227.202
L181.219 227.604
L181.517 238.404
L181.591 237.332
L181.74 230.006
L182.186 194.875
L182.335 199.429
L182.633 214.095
L182.782 210.859
L183.302 225.858
L183.377 226.26
L183.526 223.845
L183.972 209.088
L184.195 197.619
L184.27 197.826
L184.344 197.195
L184.418 197.489
L185.014 226.822
L185.088 227.077
L185.386 221.193
L185.46 221.832
L185.906 226.42
L185.981 226.541
L186.13 226.01
L186.204 225.962
L186.427 222.808
L186.799 203.956
L186.874 202.88
L187.097 207.999
L187.394 201.312
L187.469 202.345
L187.543 205.204
L187.766 221.595
L187.841 220.674
L188.138 211.455
L188.287 212.03
L188.51 221.141
L188.808 234.447
L188.882 234.17
L189.031 229.396
L189.478 205.982
L189.552 206.055
L189.701 209.762
L189.775 209.265
L189.85 209.537
L189.924 210.877
L189.998 210.535
L190.073 209.965
L190.222 211.028
L190.37 209.11
L190.519 205.684
L190.742 211.628
L191.114 226.722
L191.189 226.135
L191.263 226.161
L191.338 226.152
L191.486 224.847
L191.561 225.305
L191.635 225.046
L191.71 225.167
L191.858 226.472
L192.007 222.446
L192.379 207.369
L192.454 208.056
L192.602 210.708
L192.751 216.674
L192.9 210.38
L193.198 202.124
L193.495 207.503
L193.57 207.39
L193.644 206.055
L193.793 211.862
L193.942 216.881
L194.016 217.305
L194.165 221.08
L194.537 235.025
L194.611 234.611
L194.909 218.89
L195.058 220.031
L195.206 222.506
L195.504 214.531
L195.578 214.795
L195.876 220.921
L195.95 220.843
L196.099 221.893
L196.174 219.581
L196.62 180.654
L196.694 182.995
L197.141 213.05
L197.364 204.824
L197.438 205.347
L197.587 217.408
L197.885 246.275
L197.959 247.813
L198.034 247.186
L198.182 244.318
L198.331 242.063
L198.406 241.981
L198.554 235.375
L199.075 196.482
L199.224 194.059
L199.298 194.379
L199.447 199.671
L199.67 214.38
L199.745 213.585
L199.968 205.775
L200.34 213.387
L200.414 212.933
L200.563 210.95
L200.638 211.628
L201.01 230.161
L201.084 229.803
L201.233 220.242
L201.456 200.975
L201.53 202.094
L201.977 231.146
L202.126 234.455
L202.349 245.48
L202.423 243.333
L203.167 177.88
L203.242 178.52
L203.39 193.29
L203.762 241.609
L203.837 240.698
L203.986 229.565
L204.209 216.428
L204.432 221.439
L204.655 233.271
L204.73 240.512
L204.804 238.408
L205.176 174.351
L205.325 189.933
L205.622 223.875
L205.846 231.988
L205.92 232.053
L205.994 231.902
L206.069 230.679
L206.366 219.184
L206.441 219.616
L206.515 220.912
L206.813 236.391
L206.887 235.708
L207.036 217.629
L207.334 182.797
L207.408 180.006
L207.482 180.904
L207.631 188.598
L208.301 244.59
L208.375 243.843
L208.747 225.038
L209.045 201.96
L209.119 201.766
L209.268 200.82
L209.342 200.919
L209.566 208.263
L209.789 204.95
L209.863 205.455
L210.012 210.393
L210.31 225.824
L210.607 217.421
L210.83 220.89
L211.128 233.462
L211.426 229.349
L211.649 226.809
L211.798 216.929
L212.095 164.812
L212.17 165.361
L212.765 245.51
L212.839 244.097
L213.211 211.045
L213.286 213.322
L213.434 224.614
L213.509 224.476
L213.583 225.431
L213.732 231.263
L213.806 230.407
L214.03 213.758
L214.253 200.146
L214.402 197.277
L214.476 197.303
L214.625 202.72
L214.997 226.26
L215.071 226.969
L215.146 226.636
L215.369 223.279
L215.518 225.724
L215.592 224.744
L216.187 204.975
L216.262 205.036
L216.336 205.433
L216.559 202.716
L216.634 202.457
L216.708 203.835
L217.229 230.131
L217.303 232.446
L217.378 231.677
L217.75 217.655
L217.824 216.683
L218.196 226.191
L218.345 222.342
L218.642 204.712
L218.791 206.548
L219.014 210.915
L219.312 203.152
L219.535 185.955
L219.684 202.211
L220.056 252.137
L220.279 253.563
L220.354 251.372
L220.502 233.829
L220.874 168.065
L220.949 166.748
L221.023 167.767
L221.172 181.103
L221.618 234.451
L221.693 235.427
L221.842 234.74
L222.065 241.618
L222.139 241.16
L222.288 237.829
L222.362 238.136
L222.511 247
L222.734 268.864
L222.809 267.192
L222.958 235.211
L223.255 162.994
L223.478 151.524
L223.776 168.765
L223.999 196.301
L224.446 256.254
L224.594 244.197
L224.892 217.681
L225.264 208.28
L225.413 223.651
L225.636 245.333
L225.71 243.251
L226.008 206.734
L226.157 195.895
L226.231 199.26
L226.454 228.662
L226.529 226.532
L226.826 207.321
L226.901 207.498
L226.975 209.27
L227.273 231.626
L227.347 230.9
L227.645 220.333
L227.794 219.219
L228.017 221.296
L228.166 214.747
L228.538 192.547
L228.612 192.694
L228.984 201.666
L229.133 205.554
L229.356 221.266
L229.505 229.487
L229.579 229.405
L229.802 225.336
L229.951 228.308
L230.993 208.021
L231.29 206.133
L231.365 206.349
L231.514 212.618
L231.886 232.952
L232.183 241.704
L232.258 239.92
L232.555 208.548
L232.778 185.298
L232.853 183.432
L233.002 190.944
L233.299 208.198
L233.522 215.547
L233.671 212.086
L233.746 213.538
L234.043 237.764
L234.192 245.592
L234.266 245.424
L234.415 240.814
L234.638 221.188
L235.01 190.115
L235.085 187.713
L235.159 188.184
L235.531 209.771
L235.829 220.273
L235.978 217.521
L236.052 218.622
L236.424 235.812
L236.573 237.177
L236.647 236.831
L236.87 231.461
L237.019 223.53
L237.466 191.588
L237.614 190.119
L237.689 188.413
L237.763 189.03
L237.986 203.269
L238.21 215.633
L238.433 212.907
L238.582 219.676
L238.805 229.906
L238.954 232.943
L239.177 238.023
L239.251 236.879
L239.772 217.974
L239.846 217.374
L240.442 201.934
L240.739 189.808
L241.111 214.968
L241.334 222.843
L241.483 231.958
L241.706 248.102
L241.781 247.299
L241.93 241.479
L242.599 190.659
L242.822 200.016
L242.897 198.949
L243.046 195.51
L243.12 196.806
L243.418 216.428
L243.566 223.884
L243.79 220.588
L244.013 224.649
L244.236 234.93
L244.31 234.339
L244.906 213.922
L245.054 215.106
L245.278 201.537
L245.352 201.757
L245.501 211.879
L245.65 220.592
L245.798 213.927
L246.022 203.939
L246.096 203.628
L246.394 220.191
L246.468 219.335
L246.691 214.207
L246.914 222.238
L247.138 227.206
L247.212 227.906
L247.286 227.673
L247.435 223.677
L247.51 224.692
L247.584 225.966
L247.733 219.145
L248.03 189.411
L248.105 190.91
L248.551 232.451
L248.7 228.761
L248.849 225.392
L248.923 225.279
L249.072 218.281
L249.444 190.771
L249.518 190.469
L249.667 198.664
L250.039 223.932
L250.262 229.163
L250.337 230.39
L250.411 229.587
L250.634 216.436
L250.858 201.8
L251.23 223.815
L251.304 223.193
L251.378 222.86
L251.527 225.876
L251.825 238.697
L251.899 234.477
L252.122 201.973
L252.197 202.237
L252.494 221.456
L252.643 209.468
L252.792 200.716
L253.164 206.85
L253.462 174.01
L253.536 177.686
L253.685 204.967
L253.982 257.148
L254.057 257.144
L254.429 247.545
L254.503 245.441
L254.652 227.461
L254.875 187.639
L254.95 186.676
L255.396 219.992
L255.991 204.725
L256.214 196.24
L256.363 206.427
L256.586 228.848
L256.661 227.167
L256.958 201.424
L257.033 202.621
L257.405 225.491
L257.479 224.346
L257.628 221.625
L257.851 229.353
L258 233.824
L258.446 216.678
L258.521 217.443
L258.67 220.311
L258.818 213.171
L259.042 202.038
L259.116 202.69
L259.339 213.149
L259.414 211.058
L259.637 194.754
L259.711 195.942
L260.158 217.901
L260.306 215.028
L260.381 217.205
L260.753 244.478
L260.902 236.153
L261.422 200.893
L261.497 200.284
L261.72 212.358
L262.018 231.189
L262.166 221.007
L262.39 200.798
L262.464 200.91
L262.762 210.907
L262.91 211.818
L262.985 212.03
L263.059 212.631
L263.208 220.752
L263.357 226.446
L263.506 218.752
L263.729 207.105
L263.878 208.488
L263.952 210.354
L264.101 207.321
L264.175 207.347
L264.25 208.669
L264.77 230.891
L264.845 231.604
L265.142 240.214
L265.291 245.32
L265.589 215.637
L265.886 194.672
L266.333 189.868
L266.407 190.91
L266.854 212.021
L267.151 229.621
L267.226 230.498
L267.3 230.088
L267.374 230.062
L267.598 232.083
L267.821 235.976
L268.044 220.951
L268.342 204.975
L268.639 210.09
L269.011 218.251
L269.086 218.592
L269.16 218.558
L269.383 217.244
L269.606 213.093
L269.755 213.011
L269.904 214.181
L269.978 213.607
L270.276 207.434
L270.425 209.624
L270.574 215.944
L270.946 231.021
L271.02 231.829
L271.243 223.85
L271.392 225.893
L271.466 225.448
L272.062 203.425
L272.136 205.455
L272.359 209.062
L272.731 199.93
L272.806 199.632
L273.103 205.96
L273.55 228.602
L273.698 231.479
L273.773 231.31
L273.847 231.759
L273.996 235.561
L274.07 235.263
L274.294 222.493
L274.368 223.802
L274.517 226.848
L274.74 220.497
L275.038 234.693
L275.186 228.913
L275.558 179.686
L275.633 181.155
L275.93 205.096
L276.005 203.74
L276.228 181.051
L276.302 181.341
L276.526 218
L276.749 245.268
L276.823 246.063
L276.972 238.032
L277.121 233.522
L277.195 233.755
L277.344 226.105
L277.567 217.469
L277.716 215.145
L278.162 193.856
L278.237 195.947
L278.534 220.627
L278.832 246.227
L278.981 248.465
L279.13 239.078
L279.576 202.345
L279.874 183.471
L279.948 182.771
L280.022 184.555
L280.246 204.569
L280.692 242.002
L280.841 244.655
L280.99 232.939
L281.362 197.562
L281.436 196.694
L281.808 202.155
L282.031 210.125
L282.626 235.717
L282.85 227.915
L282.998 222.13
L283.073 223.119
L283.37 237.237
L283.445 240.378
L283.519 238.792
L283.817 194.798
L284.114 163.499
L284.189 165.486
L284.412 193.372
L284.784 258.578
L284.933 264.816
L285.007 262.444
L285.156 242.823
L285.454 196.439
L285.528 192.854
L285.677 207.602
L285.751 215.007
L285.826 214.069
L286.049 193.437
L286.123 194.4
L286.421 206.574
L286.57 205.783
L286.718 212.384
L287.016 230.697
L287.239 232.658
L287.314 232.619
L287.909 220.078
L288.132 213.659
L288.206 213.715
L288.281 214.259
L288.504 208.781
L288.727 214
L288.95 207.351
L289.025 208.164
L289.248 215.832
L289.322 215.577
L289.62 205.256
L289.694 205.71
L289.918 199.295
L290.066 205.36
L290.364 231.142
L290.587 254.236
L290.662 254.059
L290.81 245.393
L291.331 178.619
L291.406 180.87
L292.298 239.574
L292.373 238.032
L292.522 240.65
L292.596 239.967
L292.894 226.251
L293.042 215.002
L293.117 214.644
L293.266 207.952
L293.414 201.208
L293.489 201.062
L293.712 196.029
L293.786 196.119
L293.935 196.793
L294.084 198.331
L294.382 206.574
L294.53 214.687
L294.605 212.751
L294.679 214.864
L294.902 229.28
L295.051 231.12
L295.2 228.303
L295.274 226.005
L295.349 226.649
L295.646 233.414
L295.87 215.037
L296.093 207.071
L296.167 208.825
L296.316 217.357
L296.39 216.756
L296.614 211.438
L296.837 218.212
L296.911 216.981
L297.283 203.826
L297.358 204.729
L297.655 211.732
L297.804 209.827
L297.953 214.259
L298.176 220.467
L298.325 213.914
L298.622 249.199
L298.697 248.888
L298.771 248.478
L299.069 233.958
L299.143 235.993
L299.218 234.723
L299.962 152.107
L300.11 165.806
L300.557 230.623
L300.706 237.544
L301.003 259.684
L301.375 250.245
L301.673 239.229
L301.896 214.35
L302.194 180.809
L302.491 164.389
L302.566 163.931
L302.64 166.519
L302.789 184.995
L303.161 234.308
L303.31 243.493
L303.458 242.78
L303.607 246.391
L303.756 240.179
L304.202 220.121
L304.723 202.552
L304.798 204.207
L304.946 212.073
L305.021 212.026
L305.393 190.581
L305.542 198.867
L306.137 244.594
L306.211 244.568
L306.36 238.127
L306.881 204.487
L306.955 203.109
L307.178 205.943
L307.253 205.684
L307.402 200.172
L307.476 200.789
L307.699 207.913
L308.22 230.537
L308.294 230.723
L308.443 218.1
L308.666 197.385
L309.113 210.933
L309.485 246.672
L309.708 278.748
L309.857 253.597
L310.303 126.153
L310.452 159.304
L310.75 264.63
L310.824 267.685
L311.047 257.472
L311.196 238.905
L311.568 174.027
L311.642 173.815
L312.089 199.558
L312.386 285.051
L312.461 277.107
L312.758 210
L312.982 235.531
L313.056 231.639
L313.354 185.704
L313.651 230.934
L313.726 227.928
L313.949 176.8
L314.172 146.707
L314.321 168.26
L314.544 210.056
L314.618 211.386
L314.767 235.57
L315.065 306.763
L315.139 313.576
L315.214 309.783
L315.734 203.96
L315.883 182.723
L316.032 151.662
L316.106 153.809
L316.702 221.633
L316.776 221.681
L316.85 222.497
L316.999 247.618
L317.074 246.383
L317.371 229.565
L317.52 206.081
L317.594 206.276
L317.892 220.402
L317.966 221.75
L318.041 218.765
L318.19 193.1
L318.413 151.446
L318.71 228.092
L318.859 215.011
L319.082 260.652
L319.231 245.514
L319.306 249.713
L319.454 268.903
L319.529 264.082
L319.901 175.66
L320.05 147.239
L320.124 152.414
L320.57 253.874
L320.645 255.144
L320.719 250.469
L320.794 236.65
L321.091 114.545
L321.24 162.16
L321.612 307.014
L321.686 316.354
L322.356 181.064
L322.802 210.661
L322.877 211.546
L323.1 201.882
L323.174 203.904
L323.249 202.889
L323.472 187.963
L323.546 188.78
L323.695 199.087
L323.918 221.698
L323.993 219.491
L324.067 220.165
L324.142 221.305
L324.29 215.283
L324.365 216.004
L324.439 215.754
L324.514 214.743
L324.662 221.836
L324.811 231.392
L325.183 282.606
L325.258 275.184
L325.63 206.349
L325.778 173.042
L325.927 138.724
L326.076 143.96
L326.15 145.264
L326.522 218.147
L326.82 262.172
L326.894 264.466
L327.043 259.377
L327.118 261.719
L327.415 243.747
L328.085 175.111
L328.159 176.632
L328.234 176.429
L328.308 177.194
L328.457 185.911
L328.903 236.823
L328.978 236.382
L329.35 213.075
L329.424 213.849
L329.647 229.345
L329.796 254.301
L330.019 287.669
L330.094 287.302
L330.168 279.465
L330.763 136.486
L330.912 146.975
L331.805 260.017
L331.879 260.768
L331.954 260.151
L332.102 251.329
L332.623 192.05
L332.698 192.534
L332.921 215.218
L333.144 233.094
L333.293 236.511
L333.367 236.343
L333.516 222.381
L333.888 174.61
L333.962 174.908
L334.111 187.229
L334.409 215.348
L334.706 227.509
L334.781 228.869
L335.078 225.098
L335.376 221.158
L335.599 224.899
L335.822 231.137
L336.046 238.568
L336.343 225.076
L336.641 199.135
L336.864 184.252
L336.938 184.611
L337.087 189.225
L337.385 210.76
L337.534 200.47
L337.682 194.366
L337.831 208.099
L338.203 266.924
L338.278 268.359
L338.501 252.53
L339.319 171.279
L339.394 172.053
L339.542 180.585
L340.063 220.666
L340.212 226.256
L340.286 224.731
L340.361 224.804
L340.807 233.997
L340.882 234.092
L340.956 233.487
L341.179 234.088
L341.254 233.876
L341.477 226.727
L342.146 203.07
L342.295 204.384
L342.37 203.593
L342.667 193.696
L342.816 195.783
L343.188 220.549
L343.486 257.485
L343.56 259.719
L343.634 256.781
L343.783 226.619
L344.081 159.464
L344.155 161.568
L344.304 180.369
L344.825 278.42
L344.899 274.929
L345.048 245.782
L345.42 160.95
L345.494 159.935
L345.643 170.212
L346.313 248.543
L346.61 251.644
L346.685 252.534
L346.908 261.792
L346.982 260.768
L347.131 247.005
L347.726 163.292
L347.801 162.817
L348.024 184.931
L348.247 202.828
L348.322 200.725
L348.619 184.97
L348.842 197.981
L349.661 283.077
L349.81 271.374
L349.958 264.09
L350.033 264.289
L350.107 261.243
L350.33 215.477
L350.628 151.922
L350.777 146.418
L350.926 160.216
L351.372 219.465
L351.446 219.892
L351.521 218.661
L351.818 205.788
L351.893 206.189
L352.042 214.346
L352.488 246.715
L352.637 248.517
L352.711 248.167
L352.86 242.482
L353.158 211.106
L353.455 182.719
L353.678 173.815
L353.753 175.885
L353.902 191.1
L354.497 267.836
L354.571 267.304
L354.794 251.515
L355.092 216.51
L355.464 172.411
L355.538 170.675
L355.613 170.735
L355.762 179.673
L356.282 219.612
L356.58 237.717
L356.654 238.43
L356.803 234.55
L357.026 209.719
L357.25 195.692
L357.696 232.632
L358.217 209.209
L358.589 218.64
L358.663 218.769
L358.738 219.158
L358.886 215.806
L359.11 209.032
L359.184 208.617
L359.333 212.276
L359.63 225.349
L359.705 225.327
L359.779 225.616
L359.928 227.707
L360.226 238.68
L360.3 236.416
L360.746 194.642
L360.821 195.182
L361.044 201.597
L361.118 201.597
L361.267 199.632
L361.342 199.982
L361.639 211.581
L361.714 210.22
L361.862 207.179
L361.937 207.351
L362.16 204.293
L362.309 211.767
L362.755 234.835
L362.978 242.65
L363.053 242.326
L363.276 236.101
L363.722 215.525
L363.871 210.095
L364.169 201.204
L364.243 201.07
L364.466 203.593
L364.541 202.958
L364.913 199.99
L364.987 199.96
L365.062 201.723
L365.285 220.212
L365.582 238.201
L365.657 237.998
L365.88 232.109
L366.401 211.676
L366.773 227.72
L366.847 226.623
L367.442 197.139
L367.517 197.567
L367.591 196.845
L367.666 196.936
L367.814 206.159
L368.112 228.502
L368.186 228.964
L368.41 224.58
L368.93 204.747
L369.079 213.495
L369.302 226.904
L369.377 227.427
L369.526 224.506
L369.972 212.959
L370.121 207.995
L370.27 204.397
L370.493 212.73
L370.865 225.629
L371.237 232.801
L371.311 231.975
L371.758 212.635
L371.981 205.269
L372.13 200.401
L372.278 197.467
L372.427 202.163
L372.725 215.525
L372.799 216.488
L372.874 216.419
L373.097 210.773
L373.171 212.142
L373.469 220.955
L373.618 219.007
L373.766 223.884
L373.915 228.468
L374.064 225.184
L374.436 210.263
L374.808 219.862
L374.957 216.48
L375.329 206.928
L375.478 205.835
L375.701 199.416
L375.85 207.377
L376.147 235.842
L376.222 236.097
L376.37 231.371
L376.445 231.626
L376.594 234.166
L376.742 229.971
L377.338 200.638
L377.486 204.012
L377.635 206.885
L377.71 205.576
L377.784 205.58
L377.858 205.801
L378.007 204.315
L378.156 209.434
L378.379 215.413
L378.826 229.124
L378.9 228.999
L379.049 228.442
L379.123 229.051
L379.272 227.094
L379.718 210.79
L380.09 182.149
L380.165 180.222
L380.239 181.721
L380.388 200.504
L380.76 267.659
L380.834 266.462
L381.058 243.769
L381.43 204.902
L381.727 187.147
L381.802 186.507
L381.95 191.367
L382.322 205.083
L382.546 213.175
L383.066 241.635
L383.141 240.088
L383.438 225.802
L383.662 215.642
L383.736 215.283
L383.81 215.801
L384.034 219.491
L384.182 212.885
L384.554 188.309
L384.629 189.052
L385.447 235.812
L385.522 235.786
L385.67 232.9
L385.745 232.935
L385.894 226.8
L386.042 222.065
L386.191 220.947
L386.563 212.561
L386.786 208.375
L387.01 207.2
L387.828 235.76
L387.977 226.204
L388.423 170.61
L388.498 171.323
L388.721 184.507
L389.242 232.671
L389.39 241.397
L389.614 252.94
L389.688 254.249
L389.911 262.643
L390.06 254.971
L390.358 225.107
L390.73 182.918
L390.804 182.844
L390.953 191.994
L391.176 201.792
L391.325 189.786
L391.622 169.102
L391.771 178.623
L392.366 234.965
L392.441 234.252
L392.664 228.882
L392.813 237.73
L393.036 247.739
L393.11 248.586
L393.185 248.413
L393.259 248.076
L393.482 239.656
L393.929 215.322
L394.226 208.254
L394.598 193.398
L394.673 195.052
L395.045 217.469
L395.119 215.68
L395.491 187.143
L395.566 188.987
L395.789 207.364
L396.086 235.574
L396.161 234.857
L396.384 219.482
L396.607 211.088
L396.682 211.425
L396.83 216.056
L397.426 247.743
L397.5 245.778
L397.723 234.421
L398.542 165.862
L398.69 178.265
L399.137 234.429
L399.211 237.57
L399.286 236.244
L399.583 227.176
L399.658 228.684
L399.806 238.866
L400.03 269.931
L400.104 266.855
L400.476 176.118
L400.848 251.787
L400.922 249.07
L401.071 204.548
L401.294 133.056
L401.369 134.313
L401.518 168.636
L401.815 256.008
L401.89 257.157
L402.113 235.501
L402.41 210.643
L402.559 223.858
L402.782 243.687
L402.857 244.508
L403.006 236.002
L403.303 203.001
L403.378 203.52
L403.526 207.805
L403.675 205.382
L403.75 205.451
L403.824 207.174
L403.898 206.928
L404.047 199.463
L404.419 216.186
L404.717 228.973
L404.791 229.634
L404.94 225.085
L405.312 206.004
L405.461 213.05
L405.684 207.567
L405.833 208.984
L405.982 208.358
L406.205 216.83
L406.279 216.553
L406.428 220.683
L406.502 219.784
L406.651 214.626
L406.8 221.335
L406.874 220.899
L407.023 218.532
L407.172 219.357
L407.321 216.467
L407.47 211.844
L407.693 218.532
L407.767 217.823
L407.99 220.398
L408.139 218.1
L408.362 224.99
L408.511 221.69
L408.586 221.798
L408.66 223.18
L408.734 222.471
L409.181 206.475
L409.255 205.839
L409.404 201.714
L409.702 213.222
L409.776 212.345
L409.85 213.758
L410.074 223.202
L410.222 229.111
L410.446 247.009
L410.52 244.465
L410.669 224.454
L410.966 164.087
L411.041 161.153
L411.19 178.74
L411.562 231.276
L411.636 231.621
L411.785 231.025
L412.231 219.275
L412.306 219.975
L412.603 228.632
L412.678 229.362
L412.752 229.314
L412.901 227.448
L413.05 229.885
L413.124 230.775
L413.273 227.919
L413.645 215.153
L414.017 189.588
L414.091 190.115
L414.686 211.684
L414.91 203.036
L415.133 195.964
L415.282 204.686
L415.579 245.372
L415.877 279.055
L415.951 277.193
L416.174 243.627
L416.695 178.183
L416.918 169.107
L416.993 168.852
L417.067 170.018
L417.29 185.669
L417.886 239.587
L417.96 239.579
L418.034 239.38
L418.109 241.065
L418.258 232.282
L418.555 218.92
L418.778 214.786
L418.927 213.145
L419.15 216.605
L419.299 214.514
L419.597 221.659
L419.894 231.626
L419.969 231.967
L420.043 230.796
L420.862 193.864
L420.936 194.698
L421.085 198.953
L421.382 214.678
L421.531 214.173
L421.606 214.212
L421.754 215.084
L421.903 218.069
L422.201 226.839
L422.35 215.931
L422.573 200.768
L422.647 200.128
L422.796 207.274
L423.466 257.338
L423.54 256.332
L423.689 243.674
L423.986 166.679
L424.135 142.681
L424.21 144.591
L424.433 186.555
L424.879 255.995
L425.028 263.408
L425.102 263.123
L425.623 220.398
L425.995 176.455
L426.07 175.634
L426.367 186.153
L426.59 195.558
L426.739 205.239
L427.334 259.783
L427.483 247.8
L427.93 199.23
L428.004 198.379
L428.078 199.852
L428.153 199.701
L428.227 199.925
L428.897 235.851
L429.046 227.582
L429.492 192.949
L429.566 193.07
L429.715 197.511
L430.087 216.579
L430.236 218.877
L430.459 214.009
L430.757 219.81
L430.906 226.195
L430.98 224.822
L431.352 202.198
L431.426 202.742
L431.575 208.406
L431.873 223.184
L432.096 227.971
L432.17 227.794
L432.468 220.761
L432.617 212.38
L432.691 208.302
L432.766 209.797
L432.914 214.695
L432.989 213.909
L433.063 214.635
L433.361 225.375
L433.584 235.22
L433.733 232.347
L433.807 233.868
L433.882 233.708
L434.254 219.987
L434.477 201.818
L434.774 169.215
L434.923 159.749
L434.998 160.695
L435.295 200.846
L435.667 264.427
L435.742 269.434
L435.816 267.646
L436.262 226.156
L436.56 201.494
L436.709 198.599
L436.932 201.118
L437.081 202.539
L437.155 202.824
L437.304 207.52
L437.825 227.647
L437.899 226.938
L438.346 213.901
L438.569 208.522
L438.941 226.502
L439.015 226.04
L439.238 211.352
L439.536 196.875
L439.685 190.767
L439.834 181.056
L439.908 183.319
L440.28 260.31
L440.354 255.563
L440.429 253.251
L440.652 282.135
L440.801 245.251
L441.173 156.276
L441.322 150.98
L441.396 153.848
L441.619 182.676
L442.066 257.252
L442.214 266.328
L442.363 265.637
L442.512 251.1
L442.81 222.467
L442.958 216.458
L443.479 182.71
L443.554 182.572
L443.777 188.888
L444 195.873
L444.372 208.989
L444.521 213.685
L444.967 238.935
L445.19 237.799
L445.265 237.449
L445.339 237.557
L445.488 235.812
L445.562 235.876
L445.637 236.14
L445.786 230.403
L446.158 211.045
L446.232 210.993
L446.53 215.875
L446.678 214.76
L446.902 208.501
L446.976 208.915
L447.199 211.883
L447.274 212.376
L447.348 212.151
L447.571 203.939
L447.646 204.885
L447.72 205.904
L447.869 204.012
L448.166 209.939
L448.538 228.524
L448.613 228.256
L448.762 221.379
L449.134 201.766
L449.208 202.215
L449.431 197.212
L449.803 216.778
L449.878 224.031
L449.878 224.031" style="fill:none;stroke:#808080;stroke-linecap:square;"/>
   </g>
  </g>
 </g>
 <defs>
  <clipPath id="p7ff5b81e1d">
   <rect height="345.6" width="446.4" x="72.0" y="43.2"/>
  </clipPath>
 </defs>
</svg>
