<?xml version="1.0" encoding="utf-8" standalone="no"?>
<!DOCTYPE svg PUBLIC "-//W3C//DTD SVG 1.1//EN"
  "http://www.w3.org/Graphics/SVG/1.1/DTD/svg11.dtd">
<!-- Created with matplotlib (http://matplotlib.org/) -->
<svg height="432pt" version="1.1" viewBox="0 0 576 432" width="576pt" xmlns="http://www.w3.org/2000/svg" xmlns:xlink="http://www.w3.org/1999/xlink">
 <defs>
  <style type="text/css">
*{stroke-linecap:butt;stroke-linejoin:round;}
  </style>
 </defs>
 <g id="figure_1">
  <g id="patch_1">
   <path d="
M0 432
L576 432
L576 0
L0 0
z
" style="fill:#ffffff;"/>
  </g>
  <g id="axes_1">
   <g id="line2d_1">
    <path clip-path="url(#p7ff5b81e1d)" d="
M72 163.142
L72.0744 199.044
L72.0744 199.044
L72.0744 199.044
L72.1488 192.483
L72.2976 165.573
L72.372 184.293
L72.6696 306.255
L73.116 183.037
L73.1904 189.419
L73.3392 245.827
L73.488 338.263
L73.6368 256.189
L73.9344 56.7836
L74.3808 265.555
L74.4552 268.93
L74.604 261.039
L74.6784 270.284
L74.7528 262.191
L74.9016 230.546
L75.0504 314.031
L75.1248 345.521
L75.1992 325.868
L75.4968 67.4857
L75.5712 76.2927
L76.0176 224.405
L76.092 206.14
L76.1664 208.082
L76.3152 221.439
L76.3896 204.476
L76.464 212.033
L76.6128 314.244
L76.6872 311.07
L76.9104 237.763
L76.9848 254.997
L77.0592 249.98
L77.208 165.584
L77.2824 167.859
L77.4312 249.928
L77.5056 241.196
L77.58 242.423
L77.7288 161.99
L77.8032 163.309
L77.952 214.181
L78.1008 179.512
L78.324 223.703
L78.3984 216.117
L78.6216 181.522
L78.696 182.588
L78.9936 238.091
L79.068 225.557
L79.1424 236.127
L79.2912 265.445
L79.6632 126.963
L79.7376 136.467
L80.184 280.548
L80.3328 303.513
L80.4816 328.045
L80.556 320.131
L80.928 184.01
L81.1512 65.0319
L81.2256 64.9859
L81.4488 162.762
L81.7464 248.828
L82.1184 286.446
L82.1928 284.494
L82.3416 260.918
L82.6392 196.504
L82.8624 179.973
L82.9368 182.018
L83.16 200.012
L83.2344 200.455
L83.3088 201.757
L83.6808 216.272
L83.7552 216.364
L83.9784 195.634
L84.0528 199.482
L84.4992 233.235
L84.648 235.989
L84.7968 228.783
L84.9456 223.109
L85.0944 231.444
L85.3176 244.214
L85.4664 230.736
L85.6896 206.492
L85.8384 214.101
L86.2104 185.266
L86.3592 198.802
L86.508 212.43
L86.7312 187.864
L86.8056 191.648
L86.9544 202.834
L87.0288 202.707
L87.1032 203.255
L87.252 216.67
L87.5496 283.71
L87.6984 245.078
L87.9216 186.13
L87.996 182.121
L88.0704 187.685
L88.368 244.416
L88.4424 246.668
L88.5912 232.734
L88.9632 183.193
L89.0376 180.647
L89.112 184.166
L89.3352 225.834
L89.5584 253.701
L89.6328 249.721
L90.0792 178.642
L90.1536 186.412
L90.3768 214.51
L90.6 319.008
L90.6744 306.773
L90.8976 190.139
L91.1208 183.936
L91.344 149.036
L91.4184 144.52
L91.4928 146.542
L91.7904 213.421
L92.1624 306.618
L92.3112 327.026
L92.832 169.956
L93.0552 206.44
L93.1296 201.786
L93.204 202.777
L93.2784 205.881
L93.7992 149.197
L93.8736 156.213
L94.32 274.35
L94.3944 279.292
L94.4688 278.319
L94.7664 271.574
L94.9152 246.121
L95.1384 201.02
L95.2872 198.364
L95.5104 184.373
L95.6592 193.417
L96.0312 257.548
L96.1056 255.417
L96.3288 184.08
L96.4032 184.345
L96.552 200.991
L96.7008 193.273
L96.8496 202.581
L96.9984 214.55
L97.2216 176.931
L97.296 179.46
L97.5192 236.755
L97.668 226.237
L97.7424 221.376
L97.8168 222.263
L98.1888 275.186
L98.3376 241.173
L98.6352 153.344
L98.784 142.095
L98.9328 157.123
L99.0816 196.262
L99.3048 261.644
L99.6024 246.299
L99.7512 244.45
L99.9744 220.137
L100.123 213.473
L100.272 229.618
L100.346 227.395
L100.421 221.139
L100.495 221.704
L100.793 257.652
L100.867 257.623
L101.09 205.363
L101.388 117.932
L101.537 154.306
L101.76 201.181
L101.834 203.439
L101.909 199.361
L101.983 203.652
L102.281 260.93
L102.355 258.516
L102.653 237.296
L102.727 236.899
L102.802 238.034
L102.95 234.474
L103.099 250.147
L103.322 261.92
L103.397 259.962
L103.62 220.529
L103.992 130.016
L104.066 133.973
L104.513 179.218
L104.736 227.245
L105.108 309.561
L105.257 257.209
L105.48 176.943
L105.554 180.917
L105.852 279.097
L106.075 221.808
L106.298 175.37
L106.373 176.298
L106.522 167.036
L106.596 172.502
L106.894 247.451
L106.968 243.943
L107.117 270.278
L107.191 262.825
L107.489 79.2246
L107.861 314.382
L107.935 304.809
L108.084 292.391
L108.233 227.228
L108.456 124.504
L108.53 121.388
L108.902 233.714
L108.977 223.801
L109.051 212.741
L109.126 216.071
L109.274 238.258
L109.572 184.627
L109.944 269.449
L110.018 264.973
L110.39 232.89
L110.614 204.798
L110.688 202.034
L110.762 204.361
L110.837 200.714
L111.134 132.787
L111.209 135.004
L111.358 158.908
L111.953 316.583
L112.027 310.978
L112.325 251.834
L112.771 157.883
L112.92 173.769
L113.143 195.098
L113.218 195.254
L113.441 191.331
L113.59 187.87
L113.664 189.488
L113.887 228.063
L114.11 259.657
L114.185 260.567
L114.408 247.445
L114.854 211.687
L115.152 196.308
L115.226 195.473
L115.375 198.508
L115.598 206.227
L115.97 221.589
L116.119 223
L116.342 226.133
L116.491 224.163
L116.64 220.114
L117.086 188.607
L117.161 188.636
L117.235 189.77
L117.458 202.915
L118.128 270.099
L118.351 251.616
L119.318 161.27
L119.393 162.48
L119.542 173.804
L120.137 239.278
L120.211 238.748
L120.732 216.681
L120.806 216.917
L120.881 218.006
L120.955 217.747
L121.104 216.791
L121.55 204.844
L121.774 208.41
L122.071 215.621
L122.294 233.42
L122.666 274.828
L122.741 274.857
L122.89 262.825
L123.708 161.679
L123.782 163.948
L123.931 185.186
L124.154 230.108
L124.229 230.327
L124.601 208.467
L124.898 215.27
L124.973 213.657
L125.419 197.322
L125.494 199.453
L125.642 204.977
L125.791 205.898
L125.94 212.355
L126.238 249.456
L126.684 289.096
L126.833 282
L127.13 240.453
L127.726 112.581
L127.8 113.399
L127.949 132.101
L128.544 224.757
L128.842 253.321
L129.139 269.978
L129.214 269.374
L129.362 265.733
L129.511 253.038
L129.809 222.257
L130.032 215.564
L130.106 215.022
L130.181 215.379
L130.33 217.586
L130.404 216.099
L130.627 199.05
L130.925 183.469
L131.074 179.523
L131.148 179.731
L131.297 183.849
L131.743 208.876
L132.338 255.446
L132.413 254.772
L133.008 232.942
L133.082 231.484
L133.306 214.308
L133.529 200.403
L133.603 200.231
L133.826 206.451
L134.124 217.338
L134.273 208.335
L134.645 178.994
L134.719 179.921
L135.017 201.469
L135.463 239.312
L135.612 241.409
L135.761 238.73
L135.984 227.568
L136.207 215.858
L136.356 214.13
L136.654 205.53
L136.877 211.716
L137.1 216.053
L137.249 214.821
L137.323 214.942
L137.472 216.457
L137.621 221.111
L138.067 244.992
L138.142 245.631
L138.216 244.922
L138.514 206.175
L138.811 171.321
L138.886 170.659
L139.034 180.134
L139.778 239.191
L139.853 239.33
L139.927 239.07
L140.076 234.601
L140.597 215.068
L140.746 213.127
L140.969 220.517
L141.192 216.353
L141.564 201.112
L141.638 200.968
L141.787 204.954
L141.862 204.487
L142.01 206.745
L142.234 214.93
L142.606 241.559
L142.68 240.942
L143.052 223.818
L143.126 222.124
L143.201 222.597
L143.275 222.251
L143.573 207.701
L143.945 184.707
L144.094 181.073
L144.242 184.782
L144.54 208.871
L145.061 243.413
L145.21 247.658
L145.433 241.253
L145.656 234.41
L145.73 234.578
L145.805 234.278
L145.954 228.996
L146.251 204.816
L146.474 191.706
L146.995 200.242
L147.367 226.629
L147.442 226.156
L147.59 227.977
L147.665 227.689
L147.962 218.922
L148.111 209.585
L148.334 195.047
L148.409 194.77
L148.483 195.502
L148.781 206.762
L149.004 214.423
L149.227 218.34
L149.45 226.888
L149.525 226.681
L149.748 219.544
L149.822 222.009
L150.12 246.08
L150.194 246.161
L150.566 235.85
L150.715 226.634
L151.162 192.155
L151.608 183.083
L151.757 188.918
L152.65 242.999
L152.798 244.871
L152.873 244.162
L153.022 234.814
L153.319 202.748
L153.468 200.219
L153.542 201.463
L153.766 208.652
L153.914 203.41
L154.138 194.517
L154.435 206.1
L154.584 213.859
L154.733 239.295
L154.956 287.863
L155.03 287.558
L155.179 268.85
L155.551 173.631
L155.7 164.455
L156.295 195.577
L156.816 253.591
L157.337 234.094
L157.634 205.513
L158.006 171.58
L158.155 177.813
L159.122 243.989
L159.271 242.526
L159.346 243.258
L159.42 242.261
L159.569 232.135
L159.866 204.746
L159.941 204.194
L160.015 204.66
L160.164 209.043
L160.313 207.068
L160.61 216.255
L160.982 233.973
L161.206 217.73
L161.726 186.89
L161.801 187.011
L161.95 193.641
L162.247 225.747
L162.47 248.949
L163.214 216.105
L163.438 210.829
L163.586 206.993
L163.735 207.068
L163.81 207.886
L164.033 212.701
L164.256 208.571
L164.479 199.689
L164.554 199.827
L164.777 205.248
L164.926 204.217
L165.074 210.23
L165.595 246.362
L165.744 243.914
L165.818 241.397
L166.042 214.118
L166.265 243.84
L166.414 207.5
L166.637 148.604
L166.711 150.003
L167.306 259.737
L167.381 260.705
L167.455 260.031
L167.678 244.082
L168.422 180.307
L168.571 174.887
L168.646 174.979
L168.794 187.801
L169.315 247.301
L169.464 250.861
L169.613 248.563
L169.762 238.287
L170.357 177.145
L170.431 179.397
L171.101 242.451
L171.175 242.221
L171.919 215.005
L171.994 214.734
L172.068 216.67
L172.142 216.353
L172.514 206.947
L172.663 191.222
L172.886 174.213
L172.961 177.323
L173.333 213.029
L173.928 262.721
L174.002 261.39
L174.3 235.874
L174.746 201.705
L174.895 193.549
L175.118 177.191
L175.193 179.138
L175.342 193.054
L175.49 208.502
L175.714 203.497
L175.788 204.188
L175.937 220.362
L176.16 238.673
L176.234 240.533
L176.309 239.785
L176.458 233.23
L176.755 214.239
L176.904 212.88
L177.127 208.007
L177.35 212.24
L177.425 214.775
L177.499 214.337
L177.648 208.444
L177.946 233.518
L178.02 231.479
L178.466 203.946
L178.541 205.72
L178.69 213.358
L178.764 213.081
L178.838 213.502
L179.062 222.672
L179.21 234.578
L179.285 234.186
L179.434 221.491
L179.731 188.256
L179.88 198.687
L180.178 221.353
L180.401 228.921
L180.475 228.656
L180.773 240.407
L180.922 225.903
L181.145 199.205
L181.219 200.622
L181.368 217.793
L181.442 217.706
L181.591 209.631
L181.666 211.797
L181.814 232.994
L181.889 226.871
L182.186 179.938
L182.261 179.898
L182.558 193.468
L182.856 219.918
L183.228 251.685
L183.302 251.368
L183.6 241.916
L183.749 243.851
L183.898 229.981
L184.27 195.162
L184.567 190.951
L184.716 193.382
L184.79 193.226
L184.865 192.518
L185.014 200.893
L185.237 234.572
L185.386 264.42
L185.46 263.758
L185.609 240.107
L185.832 188.152
L185.906 187.772
L186.13 199.954
L186.353 285.749
L186.427 276.62
L186.725 128.807
L187.022 235.286
L187.097 219.434
L187.32 149.065
L187.469 182.098
L187.841 294.32
L187.915 311.52
L187.99 311.341
L188.287 258.85
L188.362 260.054
L188.436 259.063
L188.659 238.592
L188.882 185.111
L189.106 139.232
L189.18 137.614
L189.329 141.778
L189.552 170.169
L190.147 259.685
L190.222 251.978
L190.445 195.047
L190.519 196.746
L190.966 243.431
L191.04 244.3
L191.114 243.77
L191.189 242.14
L191.412 231.012
L191.635 245.193
L191.71 244.381
L191.933 224.077
L192.528 156.794
L192.602 153.632
L192.677 156.011
L192.826 181.442
L192.974 206.325
L193.198 193.25
L193.346 224.158
L193.644 309.596
L193.793 279.408
L194.165 195.427
L194.314 183.936
L194.388 185.047
L194.537 192.259
L194.611 184.857
L194.834 122.275
L194.909 122.672
L195.058 187.104
L195.355 343.073
L195.504 319.975
L196.099 195.41
L196.397 156.201
L196.471 154.387
L197.29 226.75
L197.438 241.403
L197.587 230.983
L197.81 218.928
L198.034 225.701
L198.182 212.666
L198.406 185.474
L198.554 195.427
L199.001 249.271
L199.075 250.59
L199.373 243.241
L199.522 244.329
L199.67 237.544
L200.266 199.499
L200.414 197.097
L200.638 200.64
L200.712 199.856
L200.861 192.645
L201.084 172.652
L201.158 173.222
L201.307 190.934
L201.754 263.257
L201.902 268.325
L201.977 267.674
L202.126 257.105
L202.795 184.391
L202.87 184.345
L203.242 200.547
L203.465 194.281
L203.539 194.367
L203.614 195.012
L203.688 198.122
L204.209 249.116
L204.358 245.539
L204.506 235.511
L204.953 176.252
L205.027 179.063
L205.176 204.683
L205.548 277.155
L205.622 275.836
L205.846 249.703
L206.366 188.693
L206.441 185.514
L206.515 185.963
L206.664 202.8
L206.738 211.405
L206.813 206.895
L207.036 169.023
L207.11 169.697
L207.408 195.646
L207.706 169.547
L207.854 187.438
L208.152 243.765
L208.45 325.482
L208.524 320.597
L209.194 195.962
L209.268 197.518
L209.491 245.504
L209.566 245.412
L209.938 178.711
L210.086 200.041
L210.161 212.666
L210.235 210.351
L210.607 147.417
L210.756 143.051
L210.83 143.593
L210.979 166.195
L211.723 300.864
L211.946 323.426
L212.021 320.211
L212.17 286.13
L212.542 181.551
L212.765 161.904
L212.839 161.771
L213.062 172.139
L213.286 181.436
L213.36 181.315
L213.434 180.359
L213.509 183.792
L213.881 220.512
L214.03 216.399
L214.178 220.252
L214.625 244.928
L214.922 269.08
L215.071 264.028
L215.369 231.571
L216.113 156.316
L216.262 149.116
L216.708 176.822
L216.857 188.492
L217.378 276.13
L217.601 302.05
L217.675 300.794
L218.047 248.632
L218.419 206.659
L218.791 193.86
L218.866 194.862
L218.94 194.494
L219.089 188.515
L219.238 183.999
L219.461 188.93
L219.535 188.595
L219.684 189.678
L219.833 193.198
L220.726 236
L220.874 244.94
L220.949 244.727
L221.172 234.986
L221.618 207.074
L221.693 207.69
L221.767 209.343
L221.842 209.124
L222.065 206.762
L222.139 206.688
L222.288 208.214
L222.437 201.204
L222.511 201.492
L222.958 228.374
L223.255 260.895
L223.404 243.125
L223.627 208.704
L223.776 203.278
L223.925 193.491
L223.999 193.67
L224.222 201.832
L224.297 202.034
L224.594 211.209
L224.818 227.274
L225.041 242.906
L225.115 242.261
L225.338 214.803
L225.636 191.585
L225.71 189.949
L225.785 190.346
L226.008 195.271
L226.306 217.954
L226.678 252.808
L226.752 253.021
L226.826 251.575
L226.975 235.701
L227.273 204.286
L227.496 194.419
L227.57 194.707
L228.017 205.507
L228.314 223.824
L228.389 223.299
L228.538 221.9
L228.686 222.476
L228.91 217.994
L228.984 219.319
L229.133 222.124
L229.207 221.232
L229.356 217.683
L229.579 226.099
L229.802 215.777
L230.174 210.581
L230.249 210.42
L230.398 214.371
L230.546 218.3
L230.621 218.046
L230.844 220.627
L231.067 225.747
L231.216 220.823
L231.662 203.566
L231.737 203.197
L231.811 203.888
L231.96 208.358
L232.034 208.145
L232.183 211.785
L232.258 213.738
L232.332 213.525
L232.481 211.394
L232.704 215.909
L233.002 224.555
L233.15 222.798
L233.374 219.077
L233.448 218.772
L233.597 221.042
L233.671 220.702
L233.969 216.324
L234.118 216.589
L234.192 215.149
L234.341 221.093
L234.415 220.431
L234.862 208.076
L235.234 215.834
L235.382 225.678
L235.531 219.521
L235.606 220.725
L235.68 222.314
L235.829 218.519
L236.498 198.929
L236.796 214.757
L236.87 216.485
L237.094 232.366
L237.317 228.265
L237.391 228.351
L237.466 229.353
L237.689 225.39
L237.912 218.254
L237.986 217.2
L238.135 212.137
L238.21 212.442
L238.284 211.18
L238.433 202.08
L238.507 203.439
L238.582 205.622
L238.73 200.565
L239.102 208.49
L239.177 207.828
L239.4 197.927
L239.623 209.262
L239.698 209.758
L239.846 220.736
L240.144 239.376
L240.442 249.26
L240.59 245.856
L240.739 238.523
L241.111 213.075
L241.334 199.614
L241.558 184.062
L241.706 177.15
L241.781 177.732
L242.004 193.854
L242.227 213.974
L242.376 215.46
L242.822 238.788
L243.046 245.516
L243.12 243.788
L243.566 208.773
L243.79 195.957
L243.864 195.438
L244.013 202.604
L244.534 235.937
L244.608 236.058
L244.757 232.798
L244.831 232.51
L245.054 223.68
L245.203 216.284
L245.65 167.946
L245.724 171.194
L245.873 185.612
L246.17 217.286
L246.319 214.21
L246.468 224.227
L246.989 267.277
L247.063 265.699
L247.212 251.719
L247.733 187.415
L247.956 178.907
L248.105 184.091
L248.626 224.227
L248.7 223.127
L248.998 212.862
L249.072 213.26
L249.295 218.018
L249.37 217.395
L249.593 211.307
L249.667 212.684
L250.039 237.688
L250.188 229.9
L250.411 214.832
L250.56 219.671
L250.858 236.864
L251.081 213.98
L251.453 177.646
L251.602 172.997
L251.825 196.325
L252.271 248.609
L252.346 248.626
L252.494 241.697
L252.569 242.238
L252.643 242.895
L252.941 220.408
L253.238 199.43
L253.313 199.534
L253.759 219.089
L254.131 205.311
L254.206 205.322
L254.503 209.13
L254.652 210.547
L254.95 216.647
L255.098 217.66
L255.619 222.464
L256.14 241.68
L256.214 240.994
L256.81 190.634
L256.884 188.434
L256.958 189.108
L257.182 195.127
L257.256 196.089
L257.554 206.642
L257.628 206.117
L257.777 212.119
L258.223 247.163
L258.298 247.468
L258.446 241.973
L258.744 226.035
L259.042 216.917
L259.116 217.81
L259.265 219.734
L259.339 218.507
L259.637 202.955
L259.86 193.584
L259.934 193.854
L260.009 192.27
L260.083 192.305
L260.455 214.988
L260.53 214.619
L260.604 214.838
L260.678 215.696
L260.753 215.662
L260.902 213.058
L260.976 213.83
L261.125 221.554
L261.348 234.986
L261.646 232.619
L262.018 219.193
L262.315 210.259
L262.464 206.348
L262.613 209.896
L262.687 211.313
L262.91 204.781
L262.985 205.415
L263.282 210.046
L263.506 225.575
L263.58 225.235
L264.026 198.745
L264.175 209.619
L264.473 233.27
L264.547 233.794
L264.696 232.36
L264.77 236.288
L264.994 260.428
L265.142 234.318
L265.514 166.247
L265.589 166.437
L265.812 184.99
L266.482 246.771
L266.556 248.419
L266.63 247.872
L266.779 242.768
L267.151 222.816
L267.672 187.524
L267.895 180.036
L268.044 182.392
L268.342 200.018
L269.086 263.527
L269.234 265.543
L269.309 263.009
L269.532 227.297
L269.904 171.079
L269.978 171.108
L270.202 182.248
L270.648 216.284
L270.871 215.685
L271.243 240.741
L271.392 238.345
L271.615 222.096
L271.913 206.935
L271.987 205.979
L272.062 206.14
L272.21 209.09
L272.582 221.387
L272.657 221.456
L272.731 219.97
L273.029 208.606
L273.103 209.303
L273.401 217.804
L273.475 217.92
L273.55 217.73
L273.922 226.992
L273.996 226.139
L274.368 208.231
L274.442 207.436
L274.517 207.488
L274.591 208.727
L274.74 214.089
L274.889 213.202
L275.186 219.492
L275.261 219.106
L275.41 216.52
L275.707 204.677
L275.782 206.25
L275.93 209.729
L276.228 218.743
L276.377 220.771
L276.6 228.322
L276.749 230.741
L276.823 230.707
L277.344 207.402
L277.418 206.768
L277.567 209.942
L277.939 218.467
L278.088 207.955
L278.311 196.959
L278.386 194.718
L278.46 194.954
L278.609 201.538
L279.055 239.289
L279.278 242.498
L279.353 241.864
L279.427 239.957
L279.948 205.628
L280.097 207.77
L280.469 227.458
L280.543 225.218
L281.213 193.111
L281.287 193.008
L281.957 218.311
L282.031 218.023
L282.254 213.784
L282.329 214.095
L282.775 229.664
L282.85 229.63
L282.998 224.578
L283.147 221.785
L283.296 227.107
L283.37 226.571
L283.445 226.243
L283.594 227.216
L283.891 221.894
L284.114 204.85
L284.263 209.792
L284.338 208.329
L284.486 203.681
L284.561 205.599
L285.007 229.975
L285.379 217.286
L285.677 200.248
L285.751 199.81
L286.049 207.92
L286.123 206.878
L286.346 201.043
L286.495 202.938
L287.09 241.058
L287.165 242.849
L287.239 237.417
L287.537 180.128
L287.611 179.523
L287.686 181.274
L287.834 198.111
L288.281 262.387
L288.43 266.188
L288.504 264.218
L288.727 243.056
L289.174 190.813
L289.397 181.632
L289.471 183.976
L289.769 197.512
L289.918 195.035
L290.141 179.817
L290.215 180.318
L290.438 193.543
L290.959 260.705
L291.108 264
L291.257 257.283
L291.778 219.964
L292.447 187.219
L292.596 190.663
L292.968 214.901
L293.266 224.682
L293.414 226.992
L293.563 224.192
L293.712 219.458
L293.786 219.55
L294.084 226.272
L294.307 231.473
L294.382 230.58
L294.902 209.066
L294.977 207.828
L295.423 215.512
L295.795 204.551
L295.87 205.651
L295.944 206.054
L296.018 205.645
L296.242 200.392
L296.316 200.778
L296.39 200.519
L296.465 200.663
L296.539 201.63
L296.911 224.21
L297.283 240.677
L297.506 246.869
L297.581 246.201
L297.73 241.881
L297.953 230.183
L298.474 188.878
L298.548 187.011
L298.697 193.33
L299.292 237.054
L299.366 236.64
L299.515 219.918
L299.887 174.449
L299.962 173.435
L300.036 177.957
L300.185 208.421
L300.482 269.558
L300.631 253.712
L301.078 172.381
L301.152 172.156
L301.301 186.055
L301.524 239.474
L301.747 299.879
L301.822 301.353
L301.97 274.546
L302.417 155.867
L302.491 153.338
L302.566 154.012
L302.789 174.864
L303.161 208.888
L303.458 231.185
L303.83 255.043
L304.054 265.163
L304.128 262.231
L304.426 217.539
L304.798 175.077
L304.946 180.837
L306.062 252.503
L306.137 250.158
L306.286 242.872
L306.509 221.785
L306.881 177.363
L306.955 176.482
L307.03 177.784
L307.402 202.621
L307.848 231.335
L308.22 222.971
L308.369 227.781
L308.592 232.867
L308.666 232.199
L308.815 221.963
L309.187 175.785
L309.262 177.738
L309.485 219.014
L309.857 295.749
L309.931 293.399
L310.08 266.782
L310.601 150.222
L310.675 146.559
L310.75 147.636
L310.973 190.531
L311.27 234.134
L311.345 234.399
L311.568 228.547
L311.866 223.634
L312.312 185.756
L312.461 198.03
L312.758 227.378
L312.833 224.273
L312.982 201.112
L313.056 203.877
L313.502 269.518
L313.651 278.544
L313.726 273.878
L313.949 199.453
L314.098 158.021
L314.172 162.531
L314.395 212.321
L314.544 217.453
L314.767 202.5
L314.842 203.289
L314.99 208.888
L315.362 232.032
L315.437 233.368
L315.511 233.149
L315.586 232.36
L315.66 232.671
L315.734 232.233
L315.809 230.304
L316.032 212.81
L316.33 185.422
L316.478 187.645
L316.85 204.574
L317.297 236.565
L317.371 239.94
L317.446 239.381
L317.743 215.166
L317.818 216.094
L318.115 218.115
L318.264 227.856
L318.413 237.792
L318.487 236.426
L319.008 186.695
L319.38 207.114
L319.975 259.294
L320.05 259.271
L320.198 254.15
L320.347 241.109
L321.017 145.511
L321.091 148.742
L321.314 182.939
L321.761 272.375
L321.835 274.206
L321.91 273.181
L323.1 169.57
L323.174 168.153
L323.249 168.591
L323.398 178.055
L324.142 254.542
L324.29 259.893
L324.365 259.363
L324.439 259.092
L324.588 247.44
L325.406 170.094
L325.481 170.042
L325.63 178.648
L326.15 231.035
L326.374 241.674
L326.522 245.049
L326.597 245.015
L326.746 241.346
L327.638 200.306
L327.787 205.184
L328.085 219.002
L328.234 222.234
L328.308 222.643
L328.382 222.153
L328.531 217.493
L328.978 199.223
L329.201 202.373
L329.35 205.403
L329.424 204.919
L330.019 218.444
L330.466 235.217
L330.614 237.964
L330.986 226.439
L331.284 212.92
L331.433 211.981
L331.507 212.413
L331.73 217.177
L331.805 216.531
L332.102 206.089
L332.326 213.358
L332.549 224.44
L332.698 219.037
L333.07 186.677
L333.144 190.427
L333.59 228.167
L333.739 226.802
L333.814 227.182
L333.888 228.172
L333.962 228.103
L334.111 223.127
L334.334 215.12
L334.409 218.576
L334.632 242.613
L334.781 214.106
L335.004 176.292
L335.078 178.579
L335.748 245.775
L335.822 245.51
L335.897 244.456
L336.046 226.859
L336.343 186.205
L336.492 178.665
L336.641 184.604
L337.236 231.991
L337.757 254.91
L337.831 255.878
L337.906 255.198
L338.129 245.619
L338.278 228.915
L338.575 183.146
L338.65 180.37
L338.724 181.263
L339.022 229.065
L339.096 224.152
L339.394 134.342
L339.468 137.372
L339.989 238.247
L340.286 243.091
L340.435 232.25
L340.807 196.055
L340.956 209.648
L341.402 263.418
L341.477 266.897
L341.551 266.522
L341.7 256.54
L342.667 165.907
L342.742 166.189
L342.89 171.287
L343.188 200.219
L343.411 218.231
L343.486 219.354
L343.56 219.187
L343.634 219.095
L344.006 213.98
L344.081 216.255
L344.602 255.734
L344.676 257.416
L344.75 255.803
L344.974 225.794
L345.271 196.608
L345.346 197.495
L345.792 211.324
L346.015 215.247
L346.09 213.899
L346.313 197.737
L346.462 193.008
L346.536 195.438
L346.908 218.83
L347.131 221.888
L347.652 245.562
L347.726 246.276
L347.95 236.645
L348.098 227.222
L348.47 190.871
L348.545 191.464
L348.694 195.214
L348.842 191.85
L348.991 193.129
L349.14 187.835
L349.363 201.769
L350.033 253.493
L350.107 252.606
L350.256 240.268
L350.628 204.28
L350.851 194.528
L351.149 202.229
L351.223 201.734
L351.298 201.82
L351.67 210.639
L351.744 209.683
L351.893 203.255
L351.967 205.478
L352.562 256.293
L352.711 243.166
L353.083 203.134
L353.158 203.318
L353.306 205.225
L353.455 207.822
L353.53 206.469
L353.604 206.924
L353.753 210.051
L353.902 206.204
L354.125 200.985
L354.199 200.864
L354.348 203.255
L354.422 202.442
L354.497 200.663
L354.571 200.818
L355.464 237.296
L355.613 240.458
L355.687 239.427
L355.91 222.551
L356.134 225.344
L356.357 233.068
L356.431 231.646
L356.58 222.015
L357.026 184.339
L357.101 183.4
L357.25 193.059
L357.547 217.683
L357.919 227.291
L357.994 227.637
L358.291 223.772
L358.738 208.283
L358.812 208.502
L358.886 207.886
L358.961 206.037
L359.11 209.735
L359.258 213.778
L359.482 211.457
L359.556 211.929
L359.63 212.183
L359.705 211.872
L360.151 221.548
L360.226 220.65
L360.3 221.122
L360.523 227.159
L360.821 236.34
L360.97 231.248
L361.565 191.36
L361.639 192.172
L362.458 225.143
L362.83 228.616
L362.904 228.53
L362.978 227.775
L363.202 231.611
L363.276 230.263
L363.722 209.712
L364.02 190.358
L364.243 187.213
L364.392 190.226
L365.285 235.378
L365.582 245.568
L365.657 243.465
L365.954 230.684
L366.252 212.782
L366.624 197.282
L366.773 192.668
L366.922 197.552
L367.442 223.202
L367.517 222.631
L367.814 209.74
L367.889 210.99
L368.186 214.446
L368.335 216.249
L368.41 216.192
L368.484 215.633
L368.558 215.875
L368.633 216.889
L368.93 209.043
L369.005 210.132
L369.228 217.534
L369.302 216.86
L369.377 217.666
L369.6 226.709
L369.674 227.061
L369.898 223.305
L370.121 226.116
L370.418 236.962
L370.79 219.227
L371.237 194.713
L371.311 194.77
L371.46 195.893
L371.609 193.843
L371.981 203.376
L372.576 234.866
L372.65 235.902
L372.725 235.827
L372.799 235.303
L372.874 235.724
L373.022 228.852
L373.394 211.169
L373.469 210.766
L373.543 210.95
L373.692 207.955
L373.766 208.272
L373.915 211.745
L374.362 226.669
L374.882 217.188
L375.254 199.902
L375.329 200.352
L375.701 211.324
L375.775 212.09
L375.85 211.612
L375.924 211.733
L376.073 213.911
L376.37 222.343
L376.445 221.26
L376.519 220.794
L376.742 222.101
L376.817 222.015
L376.891 222.303
L376.966 223.167
L377.114 230.361
L377.189 230.258
L377.412 220.085
L377.71 205.276
L377.784 204.988
L377.858 203.577
L377.933 203.969
L378.677 231.346
L378.826 226.594
L379.421 193.261
L379.644 191.257
L379.718 192.76
L380.09 225.125
L380.462 253.655
L380.537 253.816
L380.686 249.231
L381.578 195.404
L381.876 191.199
L381.95 191.642
L382.322 199.263
L382.918 222.683
L383.364 249.329
L383.513 247.273
L383.587 245.533
L384.554 192.53
L384.629 192.357
L384.926 198.929
L385.001 196.821
L385.075 197.489
L385.522 219.832
L385.819 227.36
L385.968 231.41
L386.042 231.15
L386.117 231.231
L386.266 231.53
L386.414 227.498
L386.563 218.069
L386.861 195.098
L386.935 195.836
L387.158 203.577
L387.679 230.983
L387.754 230.972
L387.828 230.258
L388.423 212.206
L388.572 206.595
L388.646 206.595
L388.795 208.997
L389.018 203.606
L389.093 202.661
L389.242 203.295
L389.316 201.763
L389.39 203.249
L389.762 219.377
L389.837 219.204
L389.986 216.428
L390.06 216.917
L390.506 230.119
L390.73 231.922
L390.804 231.018
L391.102 218.691
L391.325 212.321
L391.548 215.881
L391.994 203.272
L392.069 204.597
L392.218 211.676
L392.292 211.163
L392.366 210.794
L392.59 212.793
L392.664 212.517
L392.813 213.548
L393.036 216.958
L393.259 222.268
L393.334 221.756
L393.408 221.727
L393.482 221.036
L393.557 221.358
L393.706 222.482
L393.854 219.406
L394.078 211.745
L394.226 209.717
L394.375 213.162
L394.524 209.786
L394.598 210.103
L394.822 211.653
L395.045 218.882
L395.268 224.572
L395.566 228.881
L395.789 221.877
L396.086 209.81
L396.161 210.783
L396.235 209.136
L396.458 202.494
L396.533 202.633
L396.682 205.109
L396.905 212.004
L397.277 228.409
L397.5 230.275
L397.574 230.684
L397.798 226.473
L397.872 226.56
L397.946 226.629
L398.393 195.358
L398.616 183.314
L398.69 183.371
L398.839 193.872
L399.286 237.158
L399.36 239.589
L399.509 232.746
L399.806 205.518
L399.881 205.426
L400.03 207.206
L400.253 222.234
L400.774 265.693
L400.922 249.047
L401.369 197.31
L401.592 182.363
L401.89 164.784
L401.964 165.694
L402.336 185.946
L402.857 235.983
L403.006 242.521
L403.08 241.351
L403.303 231.663
L403.526 241.57
L403.601 240.516
L403.75 239.422
L403.898 240.378
L404.122 236.023
L404.345 231.617
L404.494 230.027
L404.866 212.88
L405.163 195.168
L405.312 193.065
L405.535 182.755
L405.61 183.872
L406.428 206.457
L406.577 209.746
L406.726 217.753
L407.098 243.039
L407.47 249.536
L407.767 239.952
L407.916 230.223
L408.214 197.811
L408.288 195.392
L408.362 195.536
L408.586 193.733
L408.66 193.215
L409.181 222.194
L409.553 239.906
L409.627 239.652
L409.702 235.453
L410.074 188.878
L410.148 188.44
L410.222 189.056
L410.371 194.943
L410.892 227.977
L411.041 232.394
L411.115 231.617
L411.487 210.956
L411.562 210.472
L411.636 211.025
L411.785 221.854
L412.008 235.66
L412.38 195.525
L412.454 197.356
L413.05 233.673
L413.273 248.695
L413.422 234.013
L413.794 185.128
L413.868 184.477
L413.942 186.902
L414.314 221.203
L414.389 220.932
L414.463 221.024
L414.612 224.762
L414.686 226.899
L414.761 226.508
L414.91 211.365
L415.207 176.822
L415.282 180.912
L415.877 264.466
L416.026 265.705
L416.174 255.792
L416.621 196.112
L416.695 199.793
L416.918 209.585
L417.067 198.284
L417.439 157.895
L417.514 160.003
L418.109 227.383
L418.406 263.159
L418.481 262.6
L418.63 252.445
L419.15 210.852
L419.225 209.988
L419.299 210.887
L419.671 234.33
L419.746 230.43
L419.894 221.635
L419.969 222.896
L420.192 234.215
L420.266 233.748
L420.415 228.518
L420.564 214.481
L421.085 137.614
L421.159 139.549
L421.382 166.212
L421.754 247.255
L422.052 303.225
L422.126 307.033
L422.201 304.377
L422.424 267.749
L422.796 197.714
L423.019 176.488
L423.242 175.054
L423.317 176.747
L423.763 214.141
L424.061 249.859
L424.135 249.087
L424.284 235.171
L424.805 172.22
L424.879 171.736
L425.028 180.906
L425.326 229.405
L425.623 273.342
L425.698 277.49
L425.846 262.542
L426.367 177.127
L426.442 176.868
L426.59 197.449
L426.888 250.999
L426.962 251.909
L427.111 237.63
L427.558 179.063
L427.855 168.176
L427.93 171.442
L428.078 193.82
L428.599 286.337
L428.674 283.595
L429.343 193.849
L429.566 179.932
L430.013 196.752
L430.31 176.77
L430.534 154.22
L430.682 176.281
L431.054 278.515
L431.129 284.016
L431.352 310.143
L431.501 271.637
L431.798 181.868
L431.873 181.079
L432.022 191.216
L432.691 250.919
L432.766 249.49
L432.914 234.076
L433.361 173.614
L433.584 159.588
L433.733 156.725
L433.807 157.163
L434.03 168.361
L434.254 202.679
L434.774 307.315
L434.849 312.147
L434.923 307.586
L435.072 268.976
L435.444 177.277
L435.667 158.528
L435.742 163.586
L435.89 200.144
L436.188 279.143
L436.337 257.589
L436.709 174.167
L436.783 171.569
L436.858 172.571
L437.006 176.327
L437.304 210.858
L437.453 207.822
L437.527 209.124
L437.75 224.757
L437.899 212.188
L438.271 158.666
L438.346 166.304
L438.643 265.284
L438.718 257.514
L438.866 218.991
L438.941 220.99
L439.313 278.515
L439.462 282.581
L439.61 264.316
L439.908 166.477
L439.982 185.157
L440.206 274.028
L440.652 184.961
L440.875 118.6
L440.95 122.402
L441.247 154.911
L441.396 166.742
L441.694 214.659
L441.991 288.589
L442.14 260.993
L442.289 239.162
L442.363 239.479
L442.586 253.251
L442.661 252.382
L443.033 176.592
L443.107 184.679
L443.182 188.728
L443.405 290.795
L443.479 285.974
L443.851 211.964
L444.074 131.836
L444.149 136.571
L444.595 257.871
L444.67 291.175
L444.744 290.098
L445.042 89.8748
L445.562 283.733
L445.711 263.13
L445.934 281.608
L446.158 224.549
L446.232 233.955
L446.306 244.715
L446.381 239.162
L446.53 211.29
L446.604 213.064
L446.753 224.722
L447.199 151.968
L447.274 154.26
L447.422 161.817
L447.497 163.205
L447.72 187.714
L448.018 254.542
L448.241 286.97
L448.39 235.58
L448.538 186.643
L448.613 189.027
L448.91 241.507
L448.985 239.381
L449.208 199.609
L449.506 248.298
L449.58 245.176
L449.729 251.287
L449.878 229.843
L449.878 229.843" style="fill:none;stroke:#808080;stroke-linecap:square;"/>
   </g>
  </g>
 </g>
 <defs>
  <clipPath id="p7ff5b81e1d">
   <rect height="345.6" width="446.4" x="72.0" y="43.2"/>
  </clipPath>
 </defs>
</svg>
