<?xml version="1.0" encoding="utf-8" standalone="no"?>
<!DOCTYPE svg PUBLIC "-//W3C//DTD SVG 1.1//EN"
  "http://www.w3.org/Graphics/SVG/1.1/DTD/svg11.dtd">
<!-- Created with matplotlib (http://matplotlib.org/) -->
<svg height="432pt" version="1.1" viewBox="0 0 576 432" width="576pt" xmlns="http://www.w3.org/2000/svg" xmlns:xlink="http://www.w3.org/1999/xlink">
 <defs>
  <style type="text/css">
*{stroke-linecap:butt;stroke-linejoin:round;}
  </style>
 </defs>
 <g id="figure_1">
  <g id="patch_1">
   <path d="
M0 432
L576 432
L576 0
L0 0
z
" style="fill:#ffffff;"/>
  </g>
  <g id="axes_1">
   <g id="line2d_1">
    <path clip-path="url(#p7ff5b81e1d)" d="
M72 234.072
L72.1488 232.574
L72.2976 225.103
L72.744 198.636
L72.8184 199.402
L72.9672 204.771
L73.4136 228.986
L73.488 229.337
L74.0088 216.216
L74.0832 216.331
L74.1576 217.091
L74.4552 229.164
L74.5296 229.003
L74.7528 217.661
L75.1248 199.097
L75.348 196.678
L75.4968 198.066
L75.6456 202.685
L75.8688 220.622
L76.1664 246.323
L76.2408 246.346
L76.464 231.313
L76.7616 211.383
L76.836 211.291
L77.0592 220.363
L77.1336 220.415
L77.2824 214.159
L77.58 197.663
L77.7288 195.779
L77.8032 195.71
L78.0264 189.645
L78.1008 190.422
L78.2496 203.014
L78.5472 242.856
L78.6216 240.385
L78.9192 213.267
L78.9936 215.473
L79.2912 229.585
L79.5144 226.52
L79.812 238.708
L79.8864 236.485
L80.4816 189.599
L80.7792 153.639
L80.8536 157.919
L81.2256 230.869
L81.5232 263.402
L81.672 265.055
L81.8208 261.115
L81.8952 257.809
L82.1928 231.042
L82.2672 231.071
L82.4904 253.443
L82.6392 232.551
L83.0112 147.551
L83.3832 117.691
L83.4576 120.64
L83.6808 173.857
L84.1272 280.952
L84.3504 301.66
L84.4248 302.725
L84.5736 296.09
L84.8712 254.272
L85.3176 189.357
L85.5408 180.763
L85.6152 180.504
L85.764 182.589
L85.9872 193.613
L86.2104 204.373
L86.5824 211.348
L86.88 204.995
L86.9544 205.18
L87.0288 205.007
L87.1776 209.39
L87.4752 219.689
L87.7728 229.274
L87.9216 233.501
L87.996 233.582
L88.1448 227.718
L88.2936 220.559
L88.368 220.87
L88.8144 239.348
L88.8888 239.135
L89.1864 226.78
L89.4096 212.12
L89.7816 177.036
L90.0048 171.783
L90.0792 173.004
L90.3024 191.223
L90.7488 241.888
L90.972 254.047
L91.0464 252.584
L91.2696 234.175
L91.4928 221.342
L91.5672 221.215
L91.7904 224.752
L91.9392 221.572
L92.3112 202.513
L92.5344 195.877
L92.6832 194.984
L92.832 197.248
L93.3528 212.328
L93.6504 217.091
L93.948 224.349
L94.32 218.433
L94.3944 218.883
L94.5432 223.185
L94.9896 248.12
L95.064 247.164
L95.3616 229.994
L95.808 190.543
L96.0312 178.419
L96.1056 179.167
L96.4032 191.862
L96.8496 228.139
L96.924 229.562
L96.9984 229.464
L97.296 227.217
L97.3704 227.488
L97.4448 227.309
L97.7424 223.756
L97.8912 216.365
L98.1144 204.028
L98.3376 201.188
L98.412 201.712
L98.8584 224.746
L99.0816 235.425
L99.3792 243.731
L99.7512 223.692
L100.346 178.234
L100.421 179.231
L100.867 204.212
L101.314 238.628
L101.537 247.654
L101.686 244.129
L101.909 233.11
L102.132 220.259
L102.206 220.461
L102.281 221.59
L102.355 221.083
L102.578 219.038
L102.727 214.119
L103.248 186.909
L103.322 187.79
L103.62 200.669
L103.843 215.294
L104.141 232.902
L104.364 243.328
L104.438 242.608
L105.331 204.327
L105.778 192.98
L105.852 193.492
L106.447 218.174
L106.745 233.254
L106.968 239.267
L107.117 243.656
L107.191 243.604
L107.414 236.911
L107.489 237.62
L107.563 237.343
L107.786 225.391
L108.307 194.5
L108.53 187.421
L108.605 187.174
L108.679 187.335
L108.977 185.273
L109.051 186.022
L109.646 214.511
L110.018 243.996
L110.242 256.985
L110.316 255.747
L111.209 212.04
L111.358 209.413
L111.581 198.36
L111.73 193.158
L111.804 193.596
L112.027 198.291
L112.176 209.511
L112.399 228.179
L112.474 229.464
L112.697 226.163
L113.143 213.053
L113.441 203.619
L113.59 205.462
L113.738 205.404
L113.813 206.13
L114.482 223.283
L114.706 216.786
L114.78 218.646
L114.929 223.502
L115.003 222.748
L115.226 217.258
L115.301 217.771
L115.524 214.545
L115.673 214.43
L115.822 213.197
L115.896 213.422
L116.045 213.791
L116.119 213.595
L116.268 211.009
L116.417 218.134
L116.64 225.835
L117.161 215.15
L117.235 215.732
L117.607 224.372
L117.682 224.101
L117.83 221.129
L118.054 217.46
L118.128 218.007
L118.202 216.728
L118.426 209.465
L118.649 205.554
L118.798 200.404
L118.872 200.664
L118.946 200.986
L119.17 195.485
L119.393 199.276
L119.616 215.87
L120.137 253.805
L120.286 245.897
L120.955 203.164
L121.104 196.545
L121.327 159.889
L121.55 138.352
L121.625 143.939
L121.848 207.725
L122.22 319.717
L122.369 329.889
L122.443 329.014
L122.666 282.3
L123.187 165.568
L123.336 155.465
L123.41 156.444
L123.634 167.446
L123.782 157.948
L124.08 127.569
L124.154 131.452
L124.303 166.945
L124.824 325.276
L124.898 324.711
L125.047 301.452
L125.27 228.006
L125.494 170.476
L125.642 209.92
L125.94 294.212
L126.089 273.487
L126.684 110.03
L126.833 124.102
L127.279 201.28
L127.502 226.445
L127.577 226.866
L127.651 231.088
L128.246 322.649
L128.321 320.765
L128.544 273.136
L129.065 135.109
L129.288 117.61
L129.437 126.008
L129.734 176.115
L130.255 272.531
L130.404 278.527
L130.553 274.622
L131.074 248.858
L131.52 183.441
L131.669 197.213
L131.743 193.435
L131.966 149.601
L132.041 149.832
L132.487 221.866
L132.859 233.092
L133.008 217.811
L133.231 183.505
L133.454 188.124
L133.603 233.605
L133.826 313.231
L133.901 316.774
L134.124 238.72
L134.347 204.079
L134.57 190.031
L134.645 191.459
L134.719 191.338
L134.868 189.011
L135.091 181.46
L135.166 182.105
L135.538 191.983
L136.282 263.459
L136.356 261.363
L136.505 246.196
L136.877 194.812
L137.026 191.776
L137.174 202.069
L137.323 212.927
L137.472 201.188
L137.695 175.827
L137.77 177.894
L137.993 210.427
L138.29 249.468
L138.439 256.605
L138.514 255.856
L138.737 228.778
L138.96 213.14
L139.183 210.271
L139.332 213.733
L139.481 217.028
L139.555 216.607
L139.704 211.118
L140.076 193.901
L140.225 208.221
L140.522 246.052
L140.597 247.17
L140.746 231.52
L141.192 168.523
L141.341 179.098
L141.862 243.858
L141.936 245.142
L142.085 241.738
L142.829 218.71
L142.903 218.767
L143.201 223.41
L143.275 221.958
L143.498 203.388
L143.796 178.724
L143.87 184.259
L144.094 230.115
L144.168 227.897
L144.466 172.457
L144.763 214.39
L145.135 253.201
L145.507 272.652
L145.656 259.45
L146.251 155.39
L146.326 155.747
L146.623 196.459
L146.921 235.189
L147.07 217.875
L147.218 189.512
L147.293 196.119
L147.59 259.439
L148.26 197.997
L148.409 202.438
L148.558 206.504
L148.781 195.226
L148.855 196.787
L149.078 221.377
L149.302 232.787
L149.376 232.447
L149.748 254.842
L149.971 272.819
L150.046 267.641
L150.269 209.816
L150.641 111.983
L150.79 137.073
L151.236 232.551
L151.608 262.774
L151.682 259.444
L152.054 223.191
L152.129 221.86
L152.203 222.989
L152.426 234.515
L152.575 227.707
L153.096 183.971
L153.17 184.328
L153.394 198.959
L153.691 226.9
L154.063 261.075
L154.286 271.834
L154.361 269.363
L154.51 249.007
L155.105 143.219
L155.179 138.484
L155.254 138.536
L155.402 155.292
L156.072 261.345
L156.146 260.689
L156.295 255.32
L156.742 217.062
L157.039 184.674
L157.114 184.835
L157.56 211.608
L157.783 216.665
L158.23 244.163
L158.304 244.008
L158.453 242.602
L158.527 241.099
L158.676 224.913
L158.974 183.263
L159.048 181.898
L159.197 196.015
L159.494 223.064
L159.643 225.184
L159.718 224.706
L160.462 200.836
L160.536 202.662
L160.685 217.431
L160.982 242.873
L161.057 242.113
L161.206 226.543
L161.503 196.442
L161.652 204.16
L161.95 223.404
L162.024 223.266
L162.322 214.263
L162.396 214.453
L162.47 213.964
L162.619 200.232
L162.842 184.432
L162.991 199.293
L163.363 273.487
L163.438 273.084
L163.586 258.782
L164.033 189.443
L164.33 171.282
L164.405 171.766
L164.777 190.111
L164.926 186.12
L165 186.961
L165.149 195.704
L165.298 221.014
L165.67 301.348
L165.744 301.32
L165.893 297.846
L166.042 285.624
L166.786 158.316
L167.083 145.46
L167.232 153.334
L167.53 185.089
L168.125 253.805
L168.348 268.741
L168.422 267.917
L168.571 258.339
L168.869 216.936
L169.241 182.284
L169.315 182.808
L169.464 198.636
L169.985 282.951
L170.059 280.1
L170.282 250.977
L170.878 137.356
L170.952 140.27
L171.101 163.661
L171.622 261.386
L171.696 264.628
L171.845 257.152
L172.812 155.937
L172.886 159.739
L173.035 185.705
L173.556 298.025
L173.63 297.184
L173.779 281.148
L174.226 185.077
L174.523 129.245
L174.672 150.436
L175.193 274.68
L175.267 275.884
L175.416 267.301
L175.714 222.275
L176.16 170.7
L176.383 162.803
L176.458 165.084
L176.681 193.688
L177.127 262.238
L177.35 274.858
L177.425 272.681
L177.574 258.2
L178.243 160.603
L178.318 163.252
L178.541 192.951
L178.913 246.968
L179.062 253.788
L179.21 251.692
L179.285 251.069
L179.434 243.581
L179.88 200.946
L180.178 191.874
L180.326 190.543
L180.624 198.4
L181.07 215.922
L181.294 223.387
L181.591 232.505
L181.666 231.935
L181.889 228.628
L181.963 228.899
L182.038 228.364
L182.261 223.289
L182.335 223.237
L182.41 223.496
L182.484 222.92
L182.558 223.203
L182.782 227.644
L182.93 224.049
L183.154 218.019
L183.228 218.047
L183.749 198.417
L183.823 196.58
L183.898 196.672
L183.972 197.363
L184.195 201.222
L184.418 205.617
L184.716 216.7
L185.088 228.761
L185.162 228.502
L185.237 228.698
L185.46 230.932
L185.906 221.526
L186.204 209.574
L186.427 201.994
L186.502 202.507
L186.799 212.12
L186.874 211.377
L187.171 217.327
L187.246 217.016
L187.766 206.844
L187.841 207.121
L187.915 209.148
L188.436 249.555
L188.51 247.285
L188.882 228.081
L189.478 177.825
L189.626 172.722
L189.775 182.474
L190.519 246.15
L190.594 247.446
L190.742 242.908
L191.04 224.873
L191.338 206.205
L191.486 200.548
L191.71 190.434
L191.784 190.676
L192.082 205.064
L192.379 220.651
L192.528 223.076
L192.9 239.676
L192.974 239.636
L193.123 232.511
L193.421 215.11
L194.016 201.28
L194.165 196.499
L194.239 197.461
L194.834 217.777
L194.909 218.934
L195.206 227.862
L195.43 231.543
L195.578 232.868
L196.025 226.1
L196.694 200.157
L196.843 197.962
L197.29 201.027
L197.364 200.79
L197.438 200.952
L197.587 204.926
L198.034 220.202
L198.331 224.147
L198.406 224.481
L198.48 224.337
L198.629 223.456
L198.703 224.798
L199.15 242.982
L199.298 244.877
L199.447 240.068
L199.67 223.853
L200.042 196.228
L200.266 189.616
L200.34 189.708
L200.414 189.622
L200.489 189.76
L201.456 212.034
L201.977 233.064
L202.126 236.929
L202.423 248.426
L202.498 248.673
L202.572 248.431
L202.721 243.892
L203.167 204.339
L203.614 166.685
L203.688 166.156
L203.837 173.937
L204.06 202.755
L204.432 247.418
L204.655 257.642
L204.73 257.941
L204.878 253.27
L205.25 224.504
L205.548 203.964
L206.143 185.688
L206.218 185.256
L206.366 188.965
L206.59 200.842
L207.11 249.601
L207.185 250.96
L207.334 243.57
L208.003 185.826
L208.152 191.736
L208.524 223.934
L208.747 238.23
L208.822 238.783
L208.896 238.19
L209.268 225.472
L209.417 224.297
L209.566 225.126
L209.714 226.682
L209.863 222.183
L210.533 196.534
L210.607 196.603
L210.756 199.137
L210.979 207.962
L211.426 232.591
L211.574 226.486
L211.872 211.337
L212.17 201.62
L212.318 200.318
L212.393 200.802
L212.616 208.169
L212.988 225.069
L213.062 224.211
L213.211 221.728
L213.509 228.934
L213.881 239.849
L214.03 235.316
L214.253 218.658
L214.55 200.497
L214.625 199.679
L214.699 200.082
L215.22 211.677
L215.294 211.585
L215.443 208.411
L215.666 201.171
L215.815 203.175
L216.187 214.695
L216.262 214.62
L216.336 213.975
L216.41 214.269
L216.559 218.595
L217.006 237.372
L217.154 234.175
L217.452 217.091
L217.526 217.477
L217.824 220.495
L217.898 220.501
L218.047 219.821
L218.122 219.505
L218.345 216.509
L218.419 216.82
L218.568 212.858
L219.014 194.339
L219.089 193.291
L219.163 193.377
L219.312 197.755
L219.61 212.045
L220.056 227.01
L220.354 235.005
L220.651 227.966
L220.8 224.222
L221.172 211.118
L221.618 207.887
L221.693 208.042
L222.139 215.565
L222.586 225.979
L222.66 225.76
L222.883 221.786
L223.106 222.926
L223.255 220.472
L223.627 205.398
L223.702 207.293
L223.999 215.53
L224.074 215.916
L224.222 211.671
L224.446 205.421
L224.52 205.007
L224.594 205.249
L224.743 208.031
L225.264 228.513
L225.338 227.724
L225.785 214.534
L225.934 216.072
L226.082 218.646
L226.306 213.272
L226.38 213.399
L226.529 215.432
L226.603 215.265
L226.752 213.652
L226.975 216.181
L227.198 212.927
L227.273 213.503
L227.719 221.768
L227.868 223.439
L227.942 221.843
L228.24 205.427
L228.314 205.9
L228.389 205.767
L228.463 206.009
L228.612 210.139
L228.91 221.492
L229.133 217.155
L229.282 217.621
L229.43 218.75
L229.579 221.837
L229.802 226.895
L229.877 227.286
L230.026 223.41
L230.323 213.987
L230.398 212.84
L230.621 214.643
L230.77 210.294
L230.993 204.84
L231.067 204.402
L231.142 204.586
L231.29 207.852
L231.737 223.203
L231.811 223.295
L231.96 222.494
L232.183 222.408
L232.332 221.037
L232.406 221.21
L232.481 222.229
L232.555 221.187
L233.225 198.82
L233.299 198.55
L233.374 198.913
L233.597 206.752
L234.043 230.184
L234.266 232.879
L235.01 219.7
L235.085 220.15
L235.159 220.081
L235.234 219.482
L235.829 208.163
L236.275 200.404
L236.498 195.791
L236.647 201.43
L237.242 237.626
L237.317 237.447
L237.466 232.914
L237.838 213.226
L238.061 217.517
L238.135 217.921
L238.21 216.429
L238.582 195.929
L238.656 196.908
L238.805 199.12
L238.954 197.98
L239.028 199.863
L239.251 220.046
L239.623 251.041
L239.772 254.053
L239.921 246.916
L240.442 208.175
L240.739 190.572
L240.814 190.71
L240.962 192.375
L241.037 192.346
L241.111 192.231
L241.781 204.12
L242.227 236.687
L242.45 264.663
L242.525 264.571
L242.748 233.703
L243.194 164.191
L243.343 174.456
L244.013 259.491
L244.162 254.825
L244.236 256.363
L244.459 270.458
L244.534 266.477
L244.831 198.953
L245.129 129.654
L245.278 125.513
L245.426 135.374
L245.724 190.78
L246.17 282.024
L246.319 291.591
L246.394 291.297
L246.468 288.982
L246.542 289.834
L246.617 291.988
L246.691 291.977
L246.84 272.295
L247.435 123.457
L247.51 123.854
L247.658 143.288
L248.254 250.914
L248.328 252.072
L248.402 251.519
L248.477 250.228
L248.626 228.669
L248.849 190.474
L248.923 192.496
L249.072 212.005
L249.444 275.682
L249.518 272.295
L249.667 247.746
L249.965 191.597
L250.114 187.087
L250.262 192.876
L250.411 197.121
L250.56 194.189
L250.634 194.932
L250.858 204.425
L250.932 207.155
L251.006 206.861
L251.081 205.105
L251.155 205.571
L251.304 217.028
L251.75 257.907
L251.899 248.512
L252.718 157.245
L252.792 163.31
L253.09 249.785
L253.387 197.34
L253.759 212.356
L253.834 210.26
L253.982 202.824
L254.131 221.02
L254.652 308.554
L254.801 280.935
L255.322 138.577
L255.47 132.483
L255.545 134.856
L255.768 179.461
L256.14 272.773
L256.289 258.431
L256.735 166.674
L256.81 172.376
L257.33 233.628
L257.628 237.637
L257.777 227.73
L257.926 220.023
L258.074 224.539
L258.223 247.533
L258.372 284.552
L258.446 284.472
L258.67 216.774
L258.893 146.946
L258.967 147.107
L259.116 205.381
L259.339 287.668
L259.86 129.983
L260.009 155.304
L260.381 236.525
L260.455 239.624
L260.678 231.658
L260.902 238.599
L261.05 236.122
L261.199 225.224
L261.571 195.612
L262.018 212.668
L262.166 218.98
L262.241 216.291
L262.315 216.838
L262.836 266.46
L262.91 264.836
L263.357 220.841
L263.58 195.364
L263.729 183.292
L263.803 183.977
L264.101 201.032
L264.324 193.619
L264.398 194.264
L264.845 204.252
L265.068 205.876
L265.217 211.884
L265.886 255.228
L265.961 253.281
L266.854 185.428
L266.928 184.236
L267.077 193.02
L267.523 228.11
L267.598 226.745
L268.044 209.315
L268.49 217.489
L268.639 215.905
L268.714 216.532
L268.788 224.55
L269.086 320.892
L269.16 307.333
L269.532 106.067
L269.606 115.911
L269.904 209.505
L269.978 208.411
L270.202 196.822
L270.35 208.468
L270.797 273.729
L270.871 274.881
L271.094 263.085
L271.169 263.494
L271.243 249.468
L271.541 138.306
L271.69 131.365
L271.764 133.3
L271.913 173.217
L272.21 251.588
L272.285 250.937
L272.582 233.087
L272.657 233.202
L272.88 278.464
L272.954 265.17
L273.252 210.928
L273.624 156.398
L273.773 184.634
L274.07 247.821
L274.145 244.589
L274.517 187.156
L274.74 214.753
L274.963 236.543
L275.41 190.924
L275.484 193.78
L276.154 262.641
L276.228 263.062
L276.302 264.79
L276.377 269.116
L276.526 248.858
L277.195 147.574
L277.27 146.347
L277.567 174.502
L277.865 192.893
L278.162 220
L278.534 296.608
L278.609 297.846
L278.832 278.406
L279.204 199.852
L279.427 154.981
L279.65 137.004
L279.725 145.218
L280.171 259.807
L280.246 257.204
L280.32 258.033
L280.543 293.953
L280.692 257.688
L281.138 130.645
L281.362 72.2963
L281.436 76.576
L281.659 145.414
L282.254 344.474
L282.403 339.635
L282.478 337.654
L282.626 317.649
L283.147 197.91
L283.296 185.037
L283.519 143.778
L283.594 146.514
L283.742 161.928
L283.817 161.236
L284.04 152.913
L284.263 162.907
L284.412 182.595
L284.784 238.766
L285.007 283.066
L285.156 300.916
L285.602 233.939
L285.751 228.139
L285.826 228.375
L285.9 226.589
L286.421 161.507
L286.495 164.445
L286.867 193.452
L286.942 199.034
L287.314 287.265
L287.388 283.308
L287.611 246.628
L287.686 254.836
L287.76 263.96
L287.909 220.115
L288.281 133.243
L288.355 136.434
L288.504 125.594
L288.578 128.497
L288.727 185.659
L288.876 231.779
L289.025 233.807
L289.174 221.659
L289.694 299.332
L289.769 294.799
L289.992 277.692
L290.141 252.273
L290.29 257.924
L290.438 191.269
L290.662 95.4631
L290.885 76.0461
L291.034 116.723
L291.406 231.013
L291.703 311.688
L291.778 309.009
L291.852 299.586
L292.001 325.794
L292.373 254.883
L292.596 199.437
L292.745 158.535
L292.894 95.9757
L293.117 168.661
L293.191 168.074
L293.34 208.129
L293.489 239.521
L293.638 198.63
L293.712 198.918
L294.084 259.26
L294.158 259.18
L294.307 242.936
L294.828 159.555
L294.902 161.507
L295.051 209.5
L295.2 267.439
L295.498 223.56
L295.646 252.826
L295.795 280.221
L295.944 247.481
L296.316 148.132
L296.39 147.113
L296.539 199.045
L296.837 285.532
L296.911 286.182
L296.986 282.277
L297.432 223.871
L297.73 140.892
L297.953 127.074
L298.102 138.79
L298.25 121.153
L298.399 161.859
L298.697 247.469
L298.92 218.001
L299.069 255.142
L299.292 297.702
L299.515 232.851
L299.59 214.92
L299.664 222.604
L299.887 314.948
L299.962 313.825
L300.408 208.434
L300.557 171.921
L300.706 180.895
L300.78 181.69
L300.854 179.046
L301.078 140.777
L301.152 144.302
L301.301 142.925
L301.524 166.006
L301.747 128.358
L301.822 140.189
L302.268 344.629
L302.714 239.774
L302.789 237.061
L303.235 168.978
L303.384 163.742
L303.458 164.813
L303.607 181.183
L303.83 232.108
L303.905 229.873
L304.128 199.12
L304.277 201.055
L304.351 202.789
L304.872 259.894
L305.17 285.67
L305.244 288.97
L305.393 277.203
L306.286 118.647
L306.434 138.536
L307.178 280.803
L307.253 280.227
L307.327 279.651
L307.476 264.974
L307.699 198.976
L307.848 225.679
L308.071 189.783
L308.294 218.387
L308.518 305.576
L308.592 300.392
L308.815 245.275
L308.89 240.892
L309.336 121.13
L309.41 124.914
L309.634 144.855
L310.303 280.86
L310.378 275.578
L310.601 246.594
L310.824 196.476
L310.898 196.856
L311.047 214.292
L311.122 207.852
L311.27 178.442
L311.419 196.672
L311.717 252.723
L312.014 273.067
L312.089 270.901
L312.684 210.98
L312.982 93.8272
L313.056 95.0887
L313.205 122.138
L313.874 297.322
L313.949 294.817
L314.172 265.297
L314.321 232.344
L314.395 234.63
L314.47 242.936
L314.544 227.932
L314.767 134.095
L314.99 142.816
L315.139 192.784
L315.214 192.168
L315.362 143.772
L315.586 206.717
L315.883 281.091
L316.106 295.836
L316.181 292.789
L316.553 226.013
L316.776 125.576
L317.074 211.723
L317.371 268.66
L317.52 288.625
L318.041 234.746
L318.338 156.122
L318.413 157.988
L318.562 146.456
L318.785 156.703
L318.859 153.484
L318.934 155.321
L319.082 168.759
L319.306 206.308
L319.529 243.766
L319.678 225.633
L319.752 217.961
L319.826 219.165
L320.124 237.464
L320.198 237.009
L320.273 239.63
L320.645 267.923
L320.868 259.686
L321.017 250.021
L321.166 255.418
L321.24 248.604
L321.612 150.46
L321.686 162.602
L322.058 211.827
L322.133 212.068
L322.43 180.567
L322.654 167.463
L322.802 200.22
L323.026 245.949
L323.323 295.681
L323.77 113.267
L323.844 126.371
L324.29 308.33
L324.365 303.019
L324.662 261.23
L324.811 249.658
L325.406 143.219
L325.555 155.379
L325.778 190.538
L325.927 181.898
L326.15 201.695
L326.299 220
L326.522 251.784
L326.671 255.234
L326.746 254.819
L327.638 205.26
L327.713 207.979
L328.085 252.844
L328.234 240.65
L328.754 181.984
L328.829 183.292
L329.126 202.536
L329.35 217.16
L329.424 214.753
L329.498 220.887
L329.722 278.769
L330.019 180.394
L330.094 191.626
L330.168 199.972
L330.242 194.973
L330.54 102.715
L330.614 112.098
L330.838 216.769
L331.135 305.985
L331.284 323.023
L331.954 226.324
L332.251 139.084
L332.326 136.739
L332.4 137.379
L333.218 233.461
L333.442 263.206
L333.59 266.443
L333.814 253.477
L334.037 227.862
L334.409 183.793
L334.483 185.722
L335.004 215.628
L335.45 236.26
L335.525 235.316
L335.674 230.259
L336.194 206.303
L336.492 199.633
L336.641 196.223
L336.79 198.509
L336.938 201.528
L337.013 201.896
L337.162 207.691
L337.608 243.034
L337.682 241.519
L338.129 202.069
L338.203 203.918
L338.575 226.307
L338.947 199.869
L339.022 203.774
L339.394 255.891
L339.468 255.844
L339.617 247.06
L340.138 198.688
L340.212 195.727
L340.286 195.808
L340.584 199.736
L340.658 199.535
L340.882 191.764
L340.956 188.424
L341.03 188.527
L341.626 215.945
L341.774 214.24
L341.849 214.77
L342.295 228.248
L342.444 228.669
L342.667 222.01
L342.742 222.35
L342.816 222.868
L343.262 234.561
L343.411 230.368
L343.783 211.873
L343.858 212.097
L344.081 221.192
L344.155 220.714
L344.602 206.902
L344.676 206.959
L344.825 209.459
L344.899 208.837
L345.197 200.658
L345.569 197.219
L345.866 202.847
L346.313 225.201
L346.759 262.998
L346.834 261.852
L347.206 234.279
L347.875 180.049
L348.098 175.585
L348.322 179.064
L348.694 196.338
L349.438 262.002
L349.586 256.409
L350.702 178.269
L350.777 179.945
L350.926 193.804
L351.521 265.435
L351.595 264.41
L351.744 253.915
L352.414 160.344
L352.488 160.637
L352.637 169.588
L353.306 243.633
L353.53 251.968
L353.678 247.412
L354.125 212.034
L354.422 195.272
L354.571 191.304
L354.646 192.496
L354.794 203.97
L355.315 247.539
L355.39 247.878
L355.538 240.517
L355.836 218.214
L356.134 197.859
L356.431 184.363
L356.506 184.15
L356.58 184.968
L356.803 200.226
L357.324 229.567
L357.473 231.831
L357.547 231.831
L357.845 228.196
L357.994 217.477
L358.366 191.373
L358.44 192.548
L358.589 223.416
L358.812 270.878
L358.886 268.436
L359.11 228.536
L359.407 175.124
L359.482 180.319
L359.854 254.07
L359.928 245.142
L360.3 176.028
L360.449 168.915
L360.598 176.028
L360.895 201.821
L361.044 206.458
L361.565 258.776
L361.862 305.951
L361.937 304.465
L362.086 269.657
L362.458 160.177
L362.532 158.299
L362.681 167.786
L362.904 177.566
L362.978 177.203
L363.202 174.467
L363.35 186.166
L363.871 255.24
L364.094 268.499
L364.169 267.019
L364.318 249.48
L364.838 153.593
L364.913 154.353
L365.136 180.918
L365.508 226.975
L365.582 225.823
L365.657 227.361
L365.806 264.617
L366.029 339.249
L366.103 337.919
L366.326 265.636
L366.698 148.058
L366.847 139.988
L366.922 144.907
L367.294 203.699
L367.368 203.29
L367.591 174.554
L367.666 175.181
L367.963 196.666
L368.038 198.435
L368.261 225.224
L368.484 252.786
L368.558 252.878
L368.707 255.096
L368.856 246.772
L369.005 233.605
L369.079 236.877
L369.377 259.105
L369.6 252.774
L369.972 164.284
L370.121 104.189
L370.27 160.568
L370.344 185.164
L370.418 176.725
L370.567 137.741
L370.642 151.375
L370.939 349.917
L371.014 338.115
L371.46 132.748
L371.534 133.41
L371.683 154.607
L372.278 287.455
L372.576 254.79
L372.874 195.451
L372.948 194.8
L373.171 208.25
L373.246 208.526
L373.543 202.95
L373.692 196.972
L373.915 188.355
L374.064 187.721
L374.362 210.807
L374.882 241.076
L375.106 249.278
L375.18 248.777
L375.626 233.49
L375.924 200.22
L376.296 154.463
L376.37 151.531
L376.445 151.888
L376.594 158.195
L377.114 223.087
L377.635 304.177
L377.784 293.63
L378.156 239.227
L378.528 178.787
L378.677 170.332
L378.751 170.383
L378.826 171.363
L379.272 187.226
L379.421 188.153
L379.718 182.226
L380.016 189.161
L380.239 223.185
L380.611 283.458
L380.76 289.108
L380.909 281.92
L381.281 235.074
L381.727 178.735
L381.876 172.889
L381.95 173.402
L382.025 172.9
L382.174 178.574
L382.769 211.976
L382.843 212.282
L382.918 213.664
L383.364 238.363
L383.513 234.388
L383.736 224.66
L383.81 224.764
L383.959 226.716
L384.034 224.988
L384.331 209.505
L384.48 210.813
L384.629 212.979
L384.778 208.209
L385.224 172.797
L385.298 173.932
L385.447 188.608
L386.042 281.286
L386.117 282.162
L386.266 275.711
L386.489 250.591
L386.935 174.98
L387.01 173.695
L387.233 182.278
L387.456 192.484
L387.605 194.886
L387.679 194.829
L387.977 188.268
L388.126 193.164
L388.349 213.75
L388.795 269.519
L388.87 267.1
L389.316 228.277
L389.465 232.033
L389.614 223.266
L390.209 175.498
L390.283 175.141
L390.506 180.844
L390.878 201.839
L391.325 223.012
L391.548 243.818
L391.994 290.854
L392.069 290.007
L392.218 277.076
L393.11 155.534
L393.334 147.649
L393.408 147.937
L393.557 152.55
L393.78 165.124
L394.078 204.54
L394.524 262.699
L394.896 272.214
L394.97 271.898
L395.119 264.006
L395.342 238.541
L395.863 171.132
L395.938 169.226
L396.012 170.274
L396.161 180.198
L396.533 212.696
L396.682 217.517
L396.756 217.448
L397.054 222.258
L397.128 224.32
L397.5 245.068
L397.723 239.187
L398.021 226.192
L398.095 226.739
L398.393 234.757
L398.467 233.548
L398.69 219.315
L399.509 152.804
L399.583 153.184
L399.732 164.952
L400.402 239.331
L400.625 243.8
L400.774 248.76
L400.997 261.489
L401.071 260.994
L401.22 253.258
L401.443 239.313
L401.592 233.847
L401.964 212.696
L402.634 190.941
L402.857 195.641
L402.931 195.134
L403.08 192.611
L403.154 192.698
L403.526 208.457
L403.973 242.562
L404.196 226.486
L404.345 218.082
L404.419 218.093
L404.494 218.335
L404.866 212.529
L405.014 219.084
L405.163 226.042
L405.312 219.136
L405.758 187.456
L405.833 187.105
L406.056 201.608
L406.428 230.575
L406.874 250.102
L406.949 250.269
L407.172 256.524
L407.246 255.666
L407.395 239.555
L407.842 177.837
L408.139 158.005
L408.288 154.618
L408.437 170.308
L408.958 243.316
L409.404 259.41
L409.478 258.909
L409.702 254.387
L409.776 255.292
L409.925 247.446
L410.222 215.864
L410.743 161.421
L410.892 157.971
L410.966 158.794
L411.115 169.001
L411.562 225.098
L412.008 287.611
L412.157 290.681
L412.306 283.671
L412.529 253.8
L413.198 146.514
L413.422 139.498
L413.57 142.845
L413.719 153.702
L414.017 195.946
L414.612 291.09
L414.686 293.164
L414.761 293.054
L414.91 286.684
L415.207 251.311
L415.728 189.553
L416.1 171.985
L416.174 171.57
L416.398 177.687
L416.621 189.795
L417.365 235.903
L417.811 242.003
L417.886 242.723
L418.034 241.093
L418.183 236.485
L419.225 186.511
L419.299 187.485
L419.448 193.93
L419.746 212.973
L419.82 213.445
L419.894 213.249
L420.118 200.986
L420.192 202.611
L420.341 219.044
L420.638 256.317
L420.713 258.022
L420.787 256.985
L421.01 236.75
L421.382 199.604
L421.457 197.127
L421.606 201.626
L421.68 204.402
L421.754 203.964
L421.829 203.526
L421.903 204.995
L422.052 216.93
L422.275 238.374
L422.647 199.978
L422.796 204.298
L422.87 203.953
L422.945 205.318
L423.317 240.212
L423.614 189.437
L423.689 192.646
L423.912 239.388
L423.986 235.944
L424.21 173.759
L424.358 207.27
L424.582 277.059
L424.656 267.912
L424.954 176.362
L425.623 234.112
L425.698 232.131
L426.144 190.342
L426.218 189.587
L426.367 200.952
L426.888 277.565
L426.962 270.648
L427.334 196.338
L427.409 197.893
L427.632 233.571
L427.706 233.461
L427.855 203.907
L428.153 144.221
L428.302 148.582
L428.45 163.984
L428.748 236.105
L429.046 284.31
L429.12 286.419
L429.194 283.043
L429.566 232.015
L429.641 233.45
L429.715 232.027
L430.236 183.078
L430.31 183.885
L430.385 183.58
L430.534 169.836
L430.682 150.131
L430.757 153.409
L431.203 256.616
L431.501 331.83
L431.65 299.16
L432.17 149.227
L432.245 146.445
L432.394 154.094
L432.766 184.42
L433.138 236.37
L433.51 259.698
L433.584 260.401
L433.733 250.09
L434.254 188.775
L434.477 179.236
L434.551 180.884
L434.774 203.446
L435.221 258.068
L435.295 256.91
L435.444 233.743
L435.667 201.591
L435.742 203.538
L436.039 251.651
L436.114 244.486
L436.486 175.297
L436.634 179.732
L436.709 178.655
L436.858 174.283
L436.932 176.835
L437.081 200.116
L437.453 313.491
L437.527 307.667
L437.75 236.479
L438.048 158.27
L438.271 131.371
L438.42 164.589
L438.643 228.669
L438.866 243.702
L438.941 244.094
L439.164 235.178
L439.387 227.874
L439.536 229.867
L439.61 229.193
L439.685 228.778
L439.834 217.322
L440.131 168.943
L440.28 197.634
L440.652 295.997
L440.726 289.8
L441.247 163.235
L441.322 160.54
L441.396 161.484
L441.545 181.834
L441.842 238.996
L441.917 239.4
L442.214 215.715
L442.289 215.916
L442.363 217.466
L442.512 228.6
L442.586 227.759
L442.884 199.471
L442.958 201.902
L443.107 214.413
L443.182 214.689
L443.479 167.388
L443.554 175.423
L443.926 334.25
L444 332.372
L444.149 268.09
L444.446 117.518
L444.818 144.354
L445.414 291.078
L445.488 303.042
L445.562 299.684
L446.306 146.871
L446.381 147.988
L446.902 227.379
L447.05 238.346
L447.422 297.316
L447.497 291.366
L447.646 240.644
L447.943 106.401
L448.092 89.1789
L448.241 111.101
L448.464 182.059
L448.762 329.434
L448.91 283.832
L449.134 228.893
L449.282 218.531
L449.58 182.007
L449.803 207.898
L449.878 205.865" style="fill:none;stroke:#808080;stroke-linecap:square;"/>
   </g>
  </g>
 </g>
 <defs>
  <clipPath id="p7ff5b81e1d">
   <rect height="345.6" width="446.4" x="72.0" y="43.2"/>
  </clipPath>
 </defs>
</svg>
