<?xml version="1.0" encoding="utf-8" standalone="no"?>
<!DOCTYPE svg PUBLIC "-//W3C//DTD SVG 1.1//EN"
  "http://www.w3.org/Graphics/SVG/1.1/DTD/svg11.dtd">
<!-- Created with matplotlib (http://matplotlib.org/) -->
<svg height="432pt" version="1.1" viewBox="0 0 576 432" width="576pt" xmlns="http://www.w3.org/2000/svg" xmlns:xlink="http://www.w3.org/1999/xlink">
 <defs>
  <style type="text/css">
*{stroke-linecap:butt;stroke-linejoin:round;}
  </style>
 </defs>
 <g id="figure_1">
  <g id="patch_1">
   <path d="
M0 432
L576 432
L576 0
L0 0
z
" style="fill:#ffffff;"/>
  </g>
  <g id="axes_1">
   <g id="line2d_1">
    <path clip-path="url(#p7ff5b81e1d)" d="
M72 231.16
L72.0744 229.639
L72.2232 209.168
L72.5208 174.643
L72.5952 170.231
L73.0416 209.687
L73.116 217.797
L73.1904 216.841
L73.3392 224.789
L73.4136 224.478
L73.6368 205.551
L73.7112 206.565
L73.86 212.578
L73.9344 200.897
L74.0088 201.484
L74.5296 263.715
L74.976 225.607
L75.1248 218.304
L75.1992 224.052
L75.2736 222.912
L75.348 218.684
L75.4224 219.122
L75.6456 211.829
L76.092 183.594
L76.1664 185.264
L76.6128 228.718
L76.7616 219.467
L76.836 219.513
L77.208 239.57
L77.2824 238.049
L77.5056 222.969
L77.8776 181.981
L77.952 184.17
L78.3984 246.608
L78.5472 239.696
L78.7704 205.159
L78.8448 207.233
L78.9192 204.641
L79.068 189.181
L79.2168 200.759
L79.3656 189.02
L79.5888 219.283
L79.6632 219.962
L79.8864 247.587
L79.9608 239.754
L80.1096 224.259
L80.184 225.17
L80.4072 175.945
L80.4816 180.265
L80.928 264.211
L81.0024 265.397
L81.0768 263.404
L81.4488 222.992
L81.5232 225.112
L81.5976 226.333
L81.8208 191.381
L81.8952 191.6
L82.044 194.112
L82.3416 184.354
L82.416 185.402
L82.4904 177.223
L82.5648 180.311
L82.7136 195.978
L82.8624 182.649
L83.16 208.408
L83.3088 216.092
L83.3832 215.539
L83.532 229.524
L83.7552 254.396
L83.8296 252.483
L83.9784 264.038
L84.0528 263.255
L84.3504 247.242
L84.5736 210.631
L84.7968 231.552
L85.02 214.732
L85.0944 213.765
L85.392 185.932
L85.4664 188.686
L85.5408 192.153
L85.6152 191.589
L85.764 187.223
L85.9128 195.886
L86.0616 190.448
L86.136 192.314
L86.2104 199.883
L86.2848 196.83
L86.3592 191.301
L86.508 207.383
L86.6568 229.754
L86.8056 221.172
L87.1032 264.268
L87.252 280.846
L87.3264 277.827
L87.7728 177.938
L87.9216 182.258
L88.0704 168.871
L88.4424 189.607
L88.6656 226.633
L88.74 221.011
L88.8144 222.785
L89.0376 256.619
L89.1864 244.869
L89.2608 244.961
L89.3352 245.111
L89.4096 243.371
L89.6328 252.322
L89.7072 247.23
L90.0792 190.229
L90.1536 188.755
L90.3024 169.102
L90.3768 169.424
L90.8976 236.436
L91.0464 252.483
L91.1952 245.882
L91.2696 246.47
L91.8648 189.803
L91.9392 188.352
L92.0136 190.863
L92.1624 173.917
L92.2368 176.371
L92.6832 228.314
L92.9808 257.598
L93.4272 220.216
L93.5016 221.702
L93.6504 235.203
L94.1712 197.222
L94.2456 198.639
L94.4688 176.336
L94.5432 177.143
L94.692 205.793
L94.8408 226.748
L94.9896 229.95
L95.2128 253.52
L95.436 234.835
L95.5104 237.312
L95.6592 227.013
L95.9568 169.102
L96.18 192.384
L96.3288 221.944
L96.4032 221.195
L96.552 204.664
L96.7008 217.382
L96.7752 216.195
L97.0728 207.302
L97.2216 219.202
L97.296 218.684
L97.3704 219.122
L97.5936 242.876
L97.668 239.65
L97.7424 239.973
L97.8168 246.136
L97.8912 245.318
L98.3376 198.074
L98.412 192.176
L98.4864 196.922
L98.6352 221.794
L98.7096 221.264
L98.784 218.891
L98.9328 230.284
L99.0816 228.487
L99.156 223.338
L99.4536 189.146
L99.6024 182.638
L99.9744 240.18
L100.57 201.116
L100.644 198.074
L100.718 186.048
L100.793 188.72
L100.942 199.63
L101.016 197.337
L101.165 214.237
L101.462 251.216
L101.537 252.864
L101.76 237.657
L101.909 222.359
L101.983 224.421
L102.132 231.31
L102.206 232.174
L102.355 223.384
L102.43 224.582
L102.504 221.978
L102.727 198.823
L102.876 201.312
L103.025 177.742
L103.099 179.723
L103.174 180.818
L103.397 171.21
L103.471 175.726
L103.992 265.443
L104.141 260.87
L104.29 249.039
L104.364 250.133
L104.587 234.328
L105.034 183.156
L105.108 183.928
L105.48 203.005
L105.629 209.525
L105.703 209.986
L105.852 214.767
L105.926 213.949
L106.001 214.594
L106.075 214.548
L106.224 207.44
L106.67 250.525
L106.745 251.55
L106.819 255.283
L107.117 232.22
L107.489 185.034
L107.563 185.46
L107.712 190.621
L107.786 187.706
L107.935 175.346
L108.233 197.349
L108.307 201.669
L108.53 235.802
L108.605 237.899
L108.902 273.715
L108.977 274.89
L109.2 246.401
L109.646 174.378
L109.721 172.834
L109.87 165.058
L109.944 166.809
L110.316 195.77
L110.39 206.426
L110.465 203.627
L110.539 199.273
L110.614 204.503
L110.837 248.947
L110.911 245.214
L110.986 240.745
L111.134 256.573
L111.506 235.791
L111.581 236.378
L111.655 235.503
L111.953 215.654
L112.102 205.954
L112.25 199.941
L112.399 211.092
L112.548 201.53
L112.622 206.53
L112.771 222.531
L112.92 211.668
L113.069 239.593
L113.143 235.849
L113.292 211.403
L113.441 227.808
L113.738 166.371
L113.813 170.15
L114.11 191.497
L114.334 237.266
L114.482 225.077
L114.706 248.878
L114.854 224.398
L114.929 225.642
L115.003 232.151
L115.078 230.964
L115.226 214.894
L115.45 241.033
L115.673 212.428
L115.822 227.059
L116.045 188.018
L116.119 193.904
L116.194 201.945
L116.268 200.309
L116.342 193.42
L116.417 194.469
L116.566 223.015
L116.64 222.174
L116.789 199.814
L116.863 203.017
L117.086 236.09
L117.161 228.545
L117.235 230.238
L117.384 245.975
L117.458 244.028
L117.607 235.802
L117.83 256.965
L118.574 128.978
L118.723 138.147
L119.542 279.832
L119.69 284.762
L119.914 272.851
L120.434 189.342
L120.583 200.275
L120.732 192.856
L120.806 194.987
L120.881 196.934
L120.955 195.114
L121.178 155.151
L121.253 160.07
L121.55 207.095
L121.774 256.112
L121.997 274.176
L122.592 201.807
L122.815 173.906
L123.038 157.409
L123.113 161.095
L123.336 206.807
L123.41 200.217
L123.485 203.374
L123.708 231.31
L123.857 238.199
L124.006 252.403
L124.229 239.777
L124.378 257.207
L124.452 254.949
L124.675 223.557
L124.75 226.921
L124.898 212.59
L124.973 199.238
L125.047 203.12
L125.122 213.903
L125.196 212.532
L125.345 195.275
L125.419 196.588
L125.494 198.95
L125.568 198.443
L125.642 198.72
L125.717 193.731
L125.791 194.25
L126.014 209.917
L126.089 210.896
L126.312 228.602
L126.461 220.4
L126.535 225.63
L126.684 254.891
L126.758 251.689
L127.279 185.829
L127.428 192.245
L127.577 180.322
L127.651 183.052
L127.8 219.605
L127.949 203.166
L128.395 232.807
L128.47 233.902
L128.693 214.571
L128.767 217.14
L128.842 217.082
L128.916 215.205
L128.99 209.33
L129.065 210.528
L129.214 223.603
L129.362 218.119
L129.437 220.665
L129.511 218.522
L129.734 193.328
L129.809 197.879
L130.106 234.074
L130.33 248.958
L130.478 221.783
L130.553 211.518
L130.776 234.927
L130.85 236.16
L131.074 212.993
L131.148 217.635
L131.297 186.889
L131.446 162.835
L131.52 162.846
L131.669 183.709
L131.743 180.276
L131.818 185.506
L132.041 237.116
L132.115 235.422
L132.19 234.547
L132.413 255.329
L132.859 203.063
L133.082 225.365
L133.157 222.451
L133.231 211.081
L133.306 214.721
L133.454 240.998
L133.975 169.136
L134.05 171.82
L134.57 253.221
L134.645 252.391
L134.719 243.913
L134.794 248.302
L134.868 260.421
L134.942 260.352
L135.091 226.149
L135.24 234.823
L135.389 216.944
L135.463 207.371
L135.612 225.642
L135.686 224.743
L135.984 182.937
L136.207 167.731
L136.282 171.82
L136.505 206.311
L136.579 203.408
L136.654 194.665
L136.728 196.819
L136.877 220.055
L137.026 205.989
L137.1 210.574
L137.323 237.404
L137.398 234.017
L137.472 237.173
L137.621 259.614
L137.695 258.462
L137.844 248.106
L137.918 248.832
L137.993 249.822
L138.439 192.89
L138.514 194.976
L138.662 200.586
L138.811 215.527
L138.96 204.307
L139.109 231.586
L139.332 186.013
L139.555 219.651
L139.63 209.341
L139.704 212.97
L139.927 254.592
L140.299 235.768
L140.597 167.097
L140.82 164.574
L140.969 188.018
L141.118 216.103
L141.192 214.732
L141.266 209.779
L141.49 238.556
L141.713 215.043
L141.936 240.48
L142.085 223.096
L142.234 237.415
L142.457 227.013
L142.754 237.012
L142.903 225.941
L142.978 227.566
L143.052 223.833
L143.275 195.575
L143.424 213.891
L143.573 203.719
L143.647 204.618
L143.796 228.833
L143.87 226.414
L144.019 212.152
L144.094 212.97
L144.168 217.808
L144.391 192.107
L144.54 210.608
L144.614 207.717
L144.763 183.939
L144.912 199.906
L144.986 198.697
L145.135 174.931
L145.284 204.848
L145.433 226.978
L145.582 213.431
L145.73 236.39
L145.805 249.154
L145.879 244.408
L146.028 263.6
L146.102 263.531
L146.177 259.246
L146.4 231.54
L146.474 230.941
L146.623 217.9
L146.772 206.634
L146.921 207.855
L147.144 185.69
L147.293 198.65
L147.442 190.748
L147.739 230.803
L147.814 228.234
L147.888 230.019
L148.037 242.023
L148.111 239.132
L148.26 220.504
L148.334 220.608
L148.483 234.086
L148.632 216.852
L148.781 227.047
L148.93 201.162
L149.078 165.024
L149.153 169.102
L149.376 152.329
L149.822 217.221
L150.046 260.259
L150.12 259.603
L150.194 257.299
L150.343 263.232
L150.418 260.352
L150.566 248.267
L150.715 259.165
L150.79 255.421
L151.013 234.455
L151.087 232.254
L151.162 235.895
L151.31 215.297
L151.682 157.466
L151.757 151.81
L151.906 164.448
L152.129 195.022
L152.352 230.976
L152.501 223.119
L152.65 233.798
L152.798 219.525
L153.022 245.986
L153.096 243.394
L153.394 217.843
L153.468 216.483
L153.691 201.818
L153.84 211.104
L153.989 206.968
L154.138 217.578
L154.212 217.417
L154.286 216.299
L154.435 221.253
L154.584 231.482
L154.658 228.798
L154.956 199.307
L155.105 213.984
L155.179 209.733
L155.254 216.852
L155.402 243.118
L155.998 183.513
L156.146 203.777
L156.221 203.546
L156.295 203.869
L156.518 229.847
L156.667 236.09
L156.816 220.204
L156.89 222.071
L157.114 189.227
L157.188 195.344
L157.337 221.99
L157.486 196.865
L157.709 242.38
L157.783 242.979
L158.006 237.277
L158.155 206.519
L158.304 175.334
L158.453 186.796
L158.899 282.597
L159.42 182.142
L159.792 167.04
L159.866 168.963
L160.238 215.274
L160.462 249.177
L160.685 230.066
L160.908 210.551
L161.057 220.803
L161.429 248.279
L161.503 251.596
L161.726 225.607
L161.95 198.109
L162.098 190.46
L162.173 191.128
L162.47 222.958
L162.545 213.673
L162.619 215.113
L162.768 237.991
L162.917 223.05
L162.991 226.31
L163.14 238.924
L163.586 179.055
L163.661 172.396
L164.33 218.269
L164.405 217.97
L164.628 212.221
L164.777 232.531
L164.926 225.388
L165.074 236.586
L165.149 235.077
L165.223 231.045
L165.372 237.058
L165.521 258.624
L165.744 232.231
L165.818 236.482
L165.893 232.427
L166.042 209.652
L166.265 225.112
L166.414 204.215
L166.488 207.671
L166.562 210.17
L166.711 193.616
L166.786 193.674
L166.934 212.463
L167.009 208.984
L167.158 193.466
L167.306 202.418
L167.53 186.29
L167.604 186.301
L167.753 202.475
L167.827 197.648
L167.976 186.197
L168.05 183.893
L168.497 256.608
L168.571 255.433
L168.646 251.285
L168.72 251.378
L168.794 254.119
L168.943 271.653
L169.39 230.814
L169.464 223.891
L169.687 183.686
L169.762 181.647
L169.91 154.08
L169.985 155.197
L170.134 182.569
L170.208 179.712
L170.282 182.338
L170.506 247.265
L170.58 245.111
L170.654 244.304
L170.803 276.399
L170.878 275.719
L171.026 237.07
L171.101 237.335
L171.175 241.286
L171.398 197.153
L171.473 202.394
L171.547 209.571
L171.77 186.727
L171.919 192.925
L172.068 180.403
L172.142 181.785
L172.366 195.033
L172.44 194.699
L172.589 187.764
L172.738 194.066
L173.258 266.526
L173.333 263.877
L173.63 226.967
L173.779 200.148
L174.002 206.784
L174.226 232.83
L174.374 252.668
L174.598 239.27
L174.672 239.42
L174.746 240.019
L174.97 200.229
L175.044 203.178
L175.118 209.111
L175.267 193.466
L175.342 197.234
L175.49 216.242
L175.565 205.355
L175.639 205.586
L175.788 222.762
L176.086 160.277
L176.16 167.777
L176.234 178.295
L176.309 175.864
L176.383 170.242
L176.755 252.322
L176.83 250.94
L176.904 248.44
L177.127 218.546
L177.35 210.551
L177.425 212.382
L177.499 220.366
L177.574 215.124
L177.648 217.463
L177.797 222.117
L177.946 236.425
L178.094 222.831
L178.169 226.656
L178.243 224.144
L178.318 211.749
L178.392 214.744
L178.541 231.655
L178.69 217.993
L178.764 220.089
L178.987 252.149
L179.062 250.882
L179.21 262.345
L179.285 254.661
L179.657 172.27
L179.88 152.455
L179.954 155.186
L180.326 212.371
L180.475 226.759
L180.624 222.243
L180.996 199.987
L181.07 204.745
L181.219 207.774
L181.591 231.482
L181.74 252.887
L181.963 242.599
L182.261 215.366
L182.335 222.946
L182.41 221.207
L182.484 217.152
L182.558 217.532
L182.633 218.119
L182.707 219.709
L183.079 245.779
L183.154 244.777
L183.228 241.205
L183.451 183.202
L183.526 184.101
L183.6 189.699
L183.823 160.75
L184.344 248.843
L184.418 247.184
L184.493 238.106
L184.567 239.293
L184.642 245.295
L184.865 190.944
L184.939 199.538
L185.014 212.129
L185.088 209.606
L185.237 193.202
L185.386 223.522
L185.758 191.566
L185.832 183.951
L185.906 185.598
L186.13 227.289
L186.353 261.4
L186.502 264.937
L186.576 264.395
L186.725 258.992
L186.874 251.17
L187.097 237.3
L187.32 186.382
L187.394 178.606
L187.543 149.068
L187.766 174.793
L188.287 227.197
L188.436 218.292
L188.585 236.528
L188.659 233.936
L188.808 223.453
L188.957 234.247
L189.031 232.058
L189.106 226.149
L189.18 226.275
L189.403 244.074
L189.626 221.195
L189.701 218.58
L189.85 183.098
L189.998 167.351
L190.073 169.113
L190.222 149.414
L190.296 154.736
L190.519 210.689
L190.594 210.723
L191.04 274.763
L191.114 276.722
L191.189 275.938
L191.338 259.361
L191.71 197.13
L191.933 182.73
L192.156 214.64
L192.305 200.482
L192.454 216.714
L192.677 188.075
L192.9 216.253
L192.974 208.949
L193.049 210.47
L193.198 218.476
L193.421 186.969
L193.57 208.097
L193.718 190.402
L193.793 194.93
L193.942 230.135
L194.016 228.937
L194.09 221.69
L194.165 224.997
L194.239 229.017
L194.388 244.178
L194.462 242.115
L194.537 243.083
L194.686 250.156
L194.983 227.474
L195.058 228.142
L195.206 220.78
L195.43 238.325
L195.504 234.915
L195.727 178.652
L195.802 183.525
L195.876 185.276
L196.099 154.667
L196.174 158.33
L196.694 234.812
L196.769 231.321
L196.843 232.899
L197.141 287.205
L197.438 262.172
L197.959 166.153
L198.034 160.082
L198.257 195.079
L198.406 168.629
L198.48 172.765
L198.629 193.789
L198.703 180.299
L198.778 183.179
L199.001 224.409
L199.15 217.232
L199.373 252.368
L199.522 246.309
L199.745 261.193
L200.191 215.516
L200.34 203.788
L200.489 219.744
L200.712 191.186
L200.786 194.642
L200.935 208.558
L201.382 185.898
L201.456 189.907
L201.828 249.638
L201.902 244.201
L202.051 255.479
L202.349 213.799
L202.721 179.781
L203.018 216.437
L203.242 257.771
L203.465 236.609
L203.837 186.508
L203.911 185.725
L204.06 181.843
L204.134 185.725
L204.432 223.764
L204.581 228.741
L204.655 226.748
L204.73 226.851
L204.804 227.646
L204.953 224.858
L205.027 229.42
L205.102 229.236
L205.325 202.51
L205.474 217.67
L205.622 205.62
L205.846 243.244
L206.069 259.914
L206.143 254.926
L206.59 176.371
L206.664 181.658
L206.887 171.221
L206.962 172.696
L207.036 174.551
L207.482 238.256
L207.557 237.945
L207.631 239.316
L207.78 247.346
L207.929 242.346
L208.078 232.853
L208.152 238.302
L208.301 252.553
L208.45 229.605
L208.747 193.881
L208.822 195.817
L209.045 181.555
L209.417 196.439
L209.491 194.78
L209.64 206.588
L209.863 231.275
L210.086 258.278
L210.161 260.766
L210.31 249.062
L210.682 215.919
L210.756 219.525
L210.83 226.149
L210.905 223.453
L210.979 224.282
L211.277 204.929
L211.5 166.475
L211.574 162.904
L211.723 148.826
L211.946 184.308
L212.318 235.008
L212.542 255.64
L212.616 256.216
L212.69 259.13
L212.839 255.536
L213.062 265.029
L213.658 187.557
L213.806 153.146
L213.955 161.752
L214.03 156.867
L214.848 246.528
L215.071 279.809
L215.369 249.235
L215.666 208.823
L215.89 194.561
L215.964 195.54
L216.038 192.003
L216.187 179.493
L216.634 211.933
L216.708 210.412
L216.782 198.535
L216.857 201.001
L216.931 210.297
L217.006 209.18
L217.08 200.183
L217.154 200.263
L217.229 204.848
L217.378 219.836
L217.452 213.258
L217.526 215.516
L218.122 254.81
L218.27 232.289
L218.345 234.201
L218.419 239.8
L218.494 239.12
L218.568 239.189
L218.642 240.802
L218.791 234.109
L218.866 237.035
L218.94 234.524
L219.163 208.65
L219.238 214.79
L219.312 212.762
L219.386 204.848
L219.461 205.897
L219.535 207.095
L219.758 199.261
L219.907 162.846
L219.982 165.185
L220.056 170.208
L220.205 149.495
L220.502 208.765
L220.726 228.66
L221.246 274.867
L221.544 243.325
L221.767 189.1
L221.842 186.278
L221.99 168.572
L222.139 184.239
L222.214 181.52
L222.437 209.18
L222.511 203.212
L222.66 216.91
L222.734 211.53
L222.809 213.258
L223.106 234.19
L223.33 255.133
L223.553 279.659
L223.999 223.522
L224.222 177.5
L224.371 160.427
L224.52 176.071
L224.669 169.689
L225.487 222.128
L225.562 219.006
L225.636 221.99
L226.082 273.196
L226.157 276.41
L226.306 249.269
L226.454 220.181
L226.603 221.495
L226.752 199.169
L226.975 173.744
L227.05 171.164
L227.198 188.755
L227.347 206.138
L227.422 209.387
L227.645 233.671
L227.868 218.177
L228.017 215.481
L228.091 219.329
L228.389 250.122
L228.463 256.562
L228.612 240.756
L229.282 172.846
L229.356 174.516
L229.505 189.423
L229.728 176.244
L229.802 178.352
L230.398 252.702
L230.472 250.444
L230.621 253.175
L230.844 231.632
L230.918 234.558
L230.993 237.242
L231.067 234.547
L231.29 201.335
L231.365 201.277
L231.439 204.226
L231.514 203.362
L231.588 204.549
L231.811 236.966
L231.886 235.342
L232.258 217.912
L232.332 217.301
L232.481 210.723
L232.63 225.941
L232.853 200.378
L232.927 201.818
L233.15 182.822
L233.299 194.653
L233.374 193.167
L233.746 216.218
L233.894 229.202
L234.043 219.732
L234.266 232.796
L234.341 230.826
L234.49 239.339
L234.564 236.862
L234.638 234.95
L234.787 260.467
L235.085 215.193
L235.234 200.275
L235.457 177.5
L235.606 192.395
L235.754 184.861
L236.275 243.774
L236.35 240.756
L236.573 235.307
L236.796 224.824
L236.87 228.994
L237.019 221.575
L237.168 249.684
L237.242 245.652
L237.466 220.723
L237.54 218.857
L237.838 164.551
L237.912 166.913
L238.358 211.104
L238.433 201.266
L238.507 202.729
L238.73 242.127
L238.954 250.986
L239.4 201.83
L239.474 201.438
L239.549 206.761
L239.698 228.234
L239.846 217.67
L239.995 237.853
L240.144 216.138
L240.293 230.676
L240.367 220.688
L240.442 225.607
L240.516 234.19
L240.59 229.651
L240.814 207.095
L240.962 209.756
L241.111 222.22
L241.186 220.907
L241.26 221.356
L241.334 227.278
L241.409 225.78
L241.483 219.133
L241.558 220.423
L241.632 222.313
L241.706 218.488
L241.93 192.234
L242.078 198.328
L242.227 165.173
L242.302 168.664
L242.45 189.25
L242.525 185.138
L242.599 189.907
L242.822 242.104
L242.971 233.844
L243.12 221.449
L243.269 228.361
L243.418 210.827
L243.641 239.984
L243.938 228.222
L244.087 204.883
L244.236 220.884
L244.31 218.165
L244.385 213.707
L244.459 222.52
L244.608 250.963
L244.682 240.146
L244.757 245.618
L244.831 241.044
L244.98 210.032
L245.054 206.795
L245.203 187.05
L245.65 250.502
L245.798 221.391
L245.873 221.598
L245.947 231.321
L246.096 209.525
L246.617 160.911
L247.286 215.735
L247.361 221.31
L247.584 257.783
L247.658 255.605
L247.733 262.575
L247.807 261.78
L248.254 209.514
L248.402 222.313
L248.477 218.603
L248.551 204.952
L248.774 252.265
L249.072 202.533
L249.37 174.862
L249.593 200.102
L249.667 198.962
L249.816 216.783
L250.188 258.22
L250.262 256.412
L250.337 248.567
L250.56 204.71
L250.634 200.286
L250.783 208.569
L250.932 201.07
L251.081 205.528
L251.378 192.695
L251.453 192.971
L251.676 213.788
L251.75 209.145
L251.899 218.626
L251.974 215.769
L252.122 198.904
L252.346 230.019
L252.42 229.132
L252.494 231.575
L252.643 260.306
L252.866 245.445
L252.941 248.014
L253.313 183.064
L253.387 190.944
L253.536 214.156
L253.61 213.776
L253.685 212.509
L253.834 231.77
L253.908 231.068
L253.982 224.444
L254.131 232.427
L254.206 231.171
L254.354 195.84
L254.429 195.943
L254.503 201.842
L254.652 190.817
L254.801 206.438
L254.875 215.619
L254.95 215.378
L255.173 178.514
L255.247 186.52
L255.396 198.282
L255.47 198.639
L255.694 236.413
L255.768 225.262
L255.917 209.479
L256.14 228.764
L256.214 223.753
L256.289 228.372
L256.438 251.654
L256.661 232.807
L256.735 239.42
L256.81 236.759
L257.405 192.556
L257.554 220.147
L257.628 212.739
L257.702 201.611
L257.777 201.726
L257.926 210.931
L258 209.514
L258.074 213.811
L258.149 213.661
L258.223 212.002
L258.372 232.024
L258.446 240.099
L258.595 219.767
L258.67 222.67
L258.744 226.598
L259.265 198.973
L259.339 184.677
L259.414 187.476
L259.488 200.666
L259.637 184.907
L259.711 189.123
L260.158 251.988
L260.306 240.814
L260.381 248.071
L260.455 241.044
L260.678 200.816
L260.753 200.666
L260.902 188.697
L261.05 219.202
L261.125 213.108
L261.199 208.73
L261.348 223.395
L261.497 235.779
L261.571 234.57
L261.869 217.9
L261.943 210.113
L262.092 219.698
L262.166 217.658
L262.241 218.983
L262.538 236.862
L262.613 244.592
L262.687 243.129
L263.208 190.045
L263.282 191.036
L263.506 209.341
L263.654 201.427
L263.803 209.042
L263.952 191.531
L264.026 196.738
L264.101 203.097
L264.25 187.764
L264.473 228.384
L264.547 225.365
L264.696 229.374
L264.77 227.347
L264.994 206.45
L265.068 209.813
L265.142 209.283
L265.291 224.121
L265.366 215.942
L265.44 216.921
L265.514 217.451
L265.589 218.96
L265.663 213.477
L265.812 245.641
L265.886 245.283
L266.035 232.704
L266.11 241.85
L266.184 240.86
L266.407 218.787
L266.482 225.227
L266.556 222.462
L266.705 196.738
L266.854 215.078
L267.002 204.019
L267.151 209.03
L267.226 207.072
L267.374 192.695
L267.449 194.584
L267.97 243.751
L268.044 243.682
L268.118 238.21
L268.267 211.852
L268.49 215.308
L268.565 214.49
L268.639 211.564
L268.714 213.5
L268.937 193.524
L269.011 199.779
L269.086 205.678
L269.309 199.445
L269.532 164.551
L269.681 159.54
L270.276 289.013
L270.35 302.342
L270.425 292.158
L270.574 233.061
L270.648 232.346
L270.871 197.545
L270.946 200.92
L271.02 201.369
L271.169 215.723
L271.318 189.838
L271.392 191.877
L271.541 211.081
L271.615 202.959
L271.69 204.825
L271.838 212.901
L271.913 211.53
L272.062 216.725
L272.285 208.293
L272.359 198.351
L272.434 199.814
L272.657 185.575
L272.954 227.485
L273.029 221.644
L273.103 224.594
L273.178 233.948
L273.252 233.349
L273.326 233.568
L273.401 239.927
L273.475 258.105
L273.55 256.803
L273.773 211.76
L273.996 203.178
L274.07 204.053
L274.219 212.233
L274.294 211.23
L274.368 211.196
L274.442 209.583
L274.517 210.746
L274.666 197.982
L274.814 222.278
L274.889 220.446
L274.963 208.707
L275.038 211.415
L275.186 245.525
L275.261 245.41
L275.335 239.028
L275.41 241.079
L275.484 250.732
L275.558 247.046
L275.782 195.575
L275.856 206.265
L275.93 204.848
L276.079 191.854
L276.154 195.137
L276.377 217.97
L276.526 209.272
L276.6 212.993
L276.749 196.634
L276.898 210.47
L276.972 203.639
L277.046 209.018
L277.195 243.924
L277.27 242.254
L277.344 244.892
L277.418 252.38
L277.567 230.158
L277.865 185.299
L277.939 184.435
L278.014 191.232
L278.088 179.85
L278.162 180.449
L278.609 250.755
L279.204 186.439
L279.278 192.614
L279.353 192.856
L279.427 189.077
L279.874 241.228
L280.022 224.524
L280.097 230.204
L280.171 228.418
L280.246 222.324
L280.394 231.586
L280.692 218.995
L280.841 192.257
L280.99 206.887
L281.064 199.998
L281.138 203.604
L281.287 235.733
L281.362 232.45
L281.51 250.444
L281.585 248.544
L281.808 199.572
L282.031 161.164
L282.701 222.877
L282.775 236.609
L282.85 231.298
L282.924 230.031
L283.222 270.892
L283.296 268.819
L283.891 184.377
L284.114 214.606
L284.338 188.363
L284.71 228.787
L284.784 236.171
L284.858 233.303
L284.933 232.658
L285.007 237.381
L285.082 237.323
L285.23 227.162
L285.305 227.98
L285.379 227.808
L285.602 222.266
L285.677 224.582
L285.826 216.91
L285.9 221.76
L285.974 217.705
L286.272 189.02
L286.421 194.192
L286.495 192.729
L286.718 142.514
L286.793 156.902
L287.388 266.089
L287.462 272.978
L287.537 269.648
L287.611 269.072
L287.909 245.779
L287.983 250.398
L288.132 218.154
L288.206 220.665
L288.281 219.467
L288.355 216.195
L288.578 187.234
L288.802 224.041
L289.174 176.325
L289.248 184.227
L289.546 229.294
L289.62 228.188
L289.769 238.464
L289.992 203.616
L290.066 205.885
L290.141 211.23
L290.438 184.009
L290.513 180.933
L290.662 186.739
L291.108 247.046
L291.257 242.035
L291.331 244.339
L291.406 240.537
L291.629 212.002
L291.852 224.052
L292.001 215.666
L292.15 220.331
L292.224 213.373
L292.373 190.54
L292.745 239.742
L292.894 233.89
L292.968 235.572
L293.042 230.814
L293.266 243.44
L293.712 201.047
L293.786 200.16
L293.935 186.9
L294.084 200.044
L294.382 181.117
L294.53 192.81
L294.679 187.188
L294.902 219.375
L294.977 204.906
L295.051 206.138
L295.2 227.162
L295.349 209.318
L295.572 229.202
L295.646 232.001
L295.721 246.85
L295.795 242.91
L295.87 231.759
L295.944 234.904
L296.018 240.963
L296.316 231.817
L296.465 212.567
L296.614 224.709
L296.762 214.479
L296.911 239.282
L296.986 252.472
L297.06 250.848
L297.506 199.872
L297.581 199.975
L297.655 200.194
L297.73 195.92
L297.804 196.899
L297.953 207.544
L298.399 183.479
L298.548 190.771
L298.622 189.181
L298.697 186.174
L298.846 194.146
L298.92 195.897
L299.069 205.344
L299.143 203.834
L299.218 203.984
L299.366 230.607
L299.515 224.213
L299.887 273.83
L300.11 253.036
L300.185 245.836
L300.408 213.615
L300.631 194.941
L300.706 200.978
L300.78 198.489
L300.929 184.873
L301.226 200.482
L301.524 239.869
L301.896 221.253
L302.045 209.848
L302.194 226.172
L302.268 224.029
L302.342 222.462
L302.417 225.734
L302.491 223.211
L302.64 210.09
L302.714 211.38
L302.789 207.544
L302.863 196.623
L303.012 217.048
L303.086 214.179
L303.384 167.927
L303.458 165.807
L303.533 166.233
L303.607 168.33
L303.682 173.594
L303.905 204.883
L303.979 209.053
L304.277 253.993
L304.5 265.351
L304.723 259.902
L304.872 247.461
L305.095 207.636
L305.17 207.855
L305.318 195.367
L305.467 225.55
L305.616 215.55
L305.765 227.324
L305.839 225.4
L306.062 248.071
L306.509 191.75
L306.658 184.274
L306.732 184.527
L306.806 184.055
L306.881 185.022
L307.178 215.539
L307.402 174.355
L307.625 194.906
L307.699 192.176
L308.294 231.805
L308.369 229.962
L308.443 231.909
L308.592 256.654
L308.666 253.232
L308.964 229.132
L309.038 227.508
L309.113 231.333
L309.187 230.423
L309.262 224.778
L309.336 225.653
L309.485 251.746
L309.559 247.507
L309.708 234.627
L309.857 252.944
L309.931 252.656
L310.154 211.104
L310.229 213.465
L310.303 214.905
L310.824 137.871
L310.898 137.917
L311.047 169.274
L311.122 169.113
L311.196 173.94
L311.345 219.168
L311.494 195.494
L311.866 249.177
L312.014 254.995
L312.089 262.909
L312.163 260.709
L312.238 255.997
L312.312 260.64
L312.386 256.423
L312.684 189.527
L312.758 196.692
L313.056 211.242
L313.205 243.59
L313.279 243.532
L313.428 236.378
L313.502 232.946
L313.726 202.648
L313.874 214.145
L314.023 198.121
L314.246 209.203
L314.395 201.795
L314.544 213.995
L314.693 236.586
L314.916 217.244
L315.214 191.209
L315.288 194.238
L315.437 210.954
L315.586 225.596
L315.734 231.644
L315.958 217.993
L316.106 200.229
L316.255 211
L316.404 194.48
L316.85 239.8
L316.925 239.973
L317.148 211.887
L317.222 215.17
L317.297 219.951
L317.52 206.012
L317.594 208.431
L317.966 222.9
L318.115 238.014
L318.338 214.525
L318.413 214.963
L318.562 196.323
L318.636 197.533
L318.71 204.572
L318.934 167.431
L319.082 219.663
L319.157 217.186
L319.38 247.23
L319.454 241.205
L319.529 242.104
L319.678 237.818
L319.826 254.407
L319.901 254.05
L320.645 165.473
L320.719 167.65
L320.794 168.088
L320.868 166.037
L321.091 228.948
L321.166 229.87
L321.24 235.849
L321.314 231.252
L321.463 217.394
L321.538 224.121
L321.612 218.776
L321.761 193.19
L322.133 257.932
L322.282 245.491
L322.356 254.269
L322.43 249.615
L322.728 206.622
L323.026 173.952
L323.174 192.925
L323.249 185.091
L323.323 186.29
L323.546 258.14
L323.621 255.237
L323.695 260.732
L323.844 278.473
L324.142 208.35
L324.29 197.867
L324.365 202.521
L324.514 188.663
L324.588 192.787
L324.662 192.096
L324.96 163.952
L325.332 206.83
L325.63 253.97
L325.704 250.802
L325.853 254.592
L326.076 212.716
L326.225 234.086
L326.299 226.782
L326.374 226.863
L326.597 236.517
L326.671 232.957
L326.969 204.986
L327.266 194.699
L327.341 195.92
L327.564 208.005
L327.638 211.507
L327.713 208.373
L327.787 212.486
L327.862 228.119
L327.936 221.552
L328.01 220.239
L328.085 223.937
L328.159 223.833
L328.234 209.952
L328.308 211.276
L328.382 223.672
L328.457 223.418
L328.606 210.77
L328.68 214.813
L328.829 240.929
L329.201 186.186
L329.275 188.812
L329.424 162.604
L329.498 162.777
L329.647 181.912
L329.945 234.386
L330.242 279.198
L330.54 252.714
L330.838 203.881
L330.912 204.318
L331.061 186.428
L331.135 198.397
L331.21 197.429
L331.358 184.896
L331.433 183.087
L331.582 191.738
L331.805 228.372
L331.954 221.875
L332.102 252.184
L332.251 235.411
L332.4 253.347
L332.995 224.19
L333.218 174.965
L333.367 137.859
L333.442 141.868
L333.516 148.78
L333.665 135.256
L333.814 147.133
L334.334 274.014
L334.483 279.694
L334.558 273.657
L334.706 292.043
L334.781 284.716
L334.93 297.193
L335.45 195.747
L335.599 182.269
L335.748 187.845
L335.897 174.712
L335.971 185.068
L336.046 184.02
L336.194 164.332
L336.269 169.827
L336.343 166.947
L336.641 197.648
L336.864 251.424
L336.938 253.14
L337.013 248.198
L337.087 249.65
L337.162 249.891
L337.236 253.002
L337.31 250.41
L337.608 203.8
L337.682 173.41
L337.757 175.334
L337.831 188.789
L337.98 158.146
L338.203 167.673
L338.278 172.834
L338.873 291.986
L338.947 291.191
L339.17 284.521
L339.766 157.593
L339.84 167.074
L340.063 187.154
L340.361 249.396
L340.435 242.519
L340.51 221.598
L340.584 222.566
L340.658 227.497
L340.807 199.491
L340.882 201.15
L341.03 223.096
L341.105 220.481
L341.254 234.051
L341.328 224.824
L341.477 181.728
L341.626 185.955
L341.774 160.45
L341.849 175.541
L341.923 175.449
L342.072 155.036
L342.295 192.234
L342.37 194.423
L342.89 314.069
L342.965 313.39
L343.114 285.523
L343.486 213.12
L343.56 211.968
L343.634 206.519
L343.858 155.888
L343.932 154.057
L344.006 142.087
L344.081 142.525
L344.23 159.747
L344.304 157.685
L344.676 230.135
L344.825 237.669
L345.048 275.466
L345.494 239.904
L345.643 208.857
L345.718 211.253
L345.792 209.065
L346.09 171.463
L346.238 182.983
L346.313 176.394
L346.462 155.842
L346.685 182.557
L347.206 272.16
L347.28 276.837
L347.354 274.556
L347.578 259.891
L347.875 222.635
L348.173 201.484
L348.247 205.021
L348.322 203.961
L348.47 198.558
L348.545 199.192
L348.694 210.885
L348.991 183.49
L349.066 195.056
L349.14 190.448
L349.214 175.369
L349.661 234.432
L349.958 242.45
L350.033 241.459
L350.405 217.993
L350.479 214.156
L350.628 197.879
L350.702 201.623
L350.851 183.294
L350.926 186.635
L351 187.81
L351.074 179.769
L351.595 239.892
L351.744 210.343
L352.042 268.773
L352.116 279.959
L352.488 219.928
L352.637 171.429
L352.86 193.801
L352.934 193.881
L353.083 224.547
L353.232 247.242
L353.306 248.498
L353.455 291.859
L353.53 286.433
L354.05 134.611
L354.199 123.218
L354.274 124.093
L354.422 138.389
L354.497 133.885
L355.092 267.171
L355.166 264.764
L355.315 256.861
L355.39 257.161
L355.464 261.158
L355.538 260.732
L355.985 195.84
L356.208 228.268
L356.282 224.179
L356.357 226.944
L356.431 239.719
L356.506 235.561
L356.58 219.248
L356.654 221.126
L356.803 234.996
L356.952 210.343
L357.175 238.475
L357.25 236.183
L357.473 258.036
L357.845 195.171
L357.994 212.855
L358.217 183.386
L358.291 185.057
L358.44 174.021
L358.663 187.142
L358.738 198.835
L358.812 193.386
L358.886 179.93
L358.961 183.674
L359.11 199.584
L359.258 176.233
L359.482 212.279
L359.556 211.15
L359.705 249.2
L359.779 266.584
L359.854 262.16
L359.928 258.992
L360.077 275.017
L360.151 267.736
L360.374 233.153
L360.598 199.733
L360.672 207.843
L360.746 207.671
L360.821 198.293
L360.895 199.538
L360.97 200.586
L361.044 196.07
L361.416 214.283
L361.49 214.306
L361.639 209.341
L361.788 220.366
L361.862 230.745
L361.937 226.563
L362.011 225.469
L362.16 240.814
L362.458 222.946
L362.532 225.342
L362.606 229.57
L362.904 218.753
L363.202 189.365
L363.35 199.941
L363.648 147.893
L363.722 156.856
L364.392 271.768
L364.541 282.643
L364.615 279.866
L364.764 283.069
L364.913 244.131
L365.359 154.851
L365.508 142.813
L366.103 245.03
L366.178 245.33
L366.252 246.793
L366.326 245.848
L366.475 247.864
L366.624 226.794
L366.773 235.111
L366.922 198.293
L366.996 206.53
L367.07 205.401
L367.219 186.566
L367.294 190.598
L367.368 185.034
L367.517 163.491
L367.74 183.386
L367.814 178.444
L368.484 281.687
L368.558 278.933
L369.228 198.846
L369.302 201.093
L369.377 198.351
L369.823 136.316
L370.046 181.624
L370.121 185.932
L370.493 277.92
L370.567 274.187
L370.642 285.615
L370.79 325.774
L371.237 218.407
L371.609 131.984
L371.832 165.196
L372.055 145.831
L372.13 147.882
L372.204 139.472
L372.278 147.248
L372.427 169.551
L372.502 171.083
L373.022 294.151
L373.246 318.839
L373.32 317.03
L373.394 311.282
L373.99 205.298
L374.064 202.291
L374.138 207.049
L374.362 195.114
L374.436 199.284
L374.585 192.856
L374.659 195.759
L374.734 195.148
L374.808 194.33
L374.957 206.173
L375.031 203.535
L375.18 183.49
L375.254 192.626
L375.329 192.372
L375.478 186.025
L375.552 190.16
L375.775 168.618
L375.85 167.143
L376.073 181.002
L376.222 203.927
L376.742 270.328
L376.966 248.889
L377.04 249.58
L377.189 259.672
L377.263 271.192
L377.338 271.146
L377.561 246.147
L377.784 203.984
L377.858 202.037
L378.082 180.794
L378.156 180.794
L378.454 206.968
L378.528 206.231
L378.677 202.233
L378.826 214.387
L378.9 206.035
L378.974 208.085
L379.198 229.559
L379.272 226.252
L379.495 242.058
L379.867 165.012
L379.942 161.982
L380.016 165.542
L380.09 163.376
L380.239 155.278
L380.611 211.357
L380.834 294.428
L380.909 297.481
L381.206 327.548
L381.281 331.188
L381.504 295.269
L382.174 76.4463
L382.248 68.3478
L382.322 74.3727
L382.769 193.075
L382.843 196.162
L383.29 262.149
L383.438 308.286
L383.513 303.287
L383.587 299.381
L383.81 353.353
L383.885 340.704
L384.257 242.496
L384.554 151.614
L384.852 116.812
L385.001 145.912
L385.075 163.468
L385.15 162.846
L385.298 140.221
L385.373 140.659
L385.67 174.562
L386.117 234.697
L386.414 288.506
L386.638 256.009
L386.786 271.434
L386.861 268.496
L387.233 222.658
L387.456 272.885
L387.53 269.337
L387.977 193.95
L388.126 178.41
L388.2 182.741
L388.349 176.359
L388.423 176.947
L388.646 200.62
L388.721 204.745
L388.87 170.323
L388.944 151.395
L389.018 151.718
L389.39 208.523
L389.539 215.216
L389.688 224.087
L389.911 269.383
L389.986 268.439
L390.06 262.391
L390.209 231.632
L390.358 243.959
L390.432 242.127
L390.581 215.09
L390.73 189.031
L390.878 224.098
L390.953 218.05
L391.027 210.7
L391.176 244.143
L391.25 235.987
L391.474 186.589
L391.697 231.932
L391.771 225.953
L391.846 207.325
L391.92 209.099
L391.994 217.612
L392.069 214.202
L392.143 202.106
L392.218 206.68
L392.292 212.924
L392.366 211.806
L392.664 201.277
L392.738 204.157
L392.813 213.097
L392.887 212.901
L393.11 194.238
L393.185 191.612
L393.334 221.368
L393.482 277.355
L393.557 271.699
L393.78 234.904
L394.152 173.629
L394.226 180.564
L394.301 179.412
L394.375 167.788
L394.598 199.203
L394.822 166.118
L394.97 193.939
L395.268 325.313
L395.714 288.933
L395.789 290.246
L395.863 286.755
L396.533 114.14
L396.682 148.93
L396.83 141.212
L397.202 186.243
L397.351 241.862
L397.426 239.224
L397.5 242.622
L397.574 241.493
L397.649 242.162
L397.723 246.528
L397.798 244.477
L397.946 252.737
L398.021 249.822
L398.17 263.474
L398.244 260.755
L398.318 262.967
L398.393 259.015
L398.542 225.066
L398.69 169.067
L398.839 195.379
L398.988 182.085
L399.137 184.481
L399.806 271.941
L400.03 264.096
L400.253 219.41
L400.402 230.78
L400.625 167.558
L400.774 184.331
L400.922 166.752
L401.071 174.919
L401.146 165.853
L401.22 173.41
L401.443 217.324
L401.89 315.36
L402.113 242.611
L402.41 173.882
L402.485 164.194
L402.634 196.565
L402.708 193.708
L402.931 156.211
L403.006 157.178
L403.08 153.803
L403.154 153.815
L403.229 157.743
L403.526 233.786
L403.601 238.464
L403.75 258.981
L403.898 237.415
L403.973 238.314
L404.196 275.938
L404.27 273.392
L404.419 240.076
L404.642 205.735
L404.94 228.844
L405.089 235.376
L405.163 229.513
L405.386 197.429
L405.461 206.484
L405.535 200.355
L405.758 133.056
L406.13 188.133
L406.279 232.819
L406.428 216.633
L406.577 268.842
L406.651 266.261
L406.8 252.541
L407.023 292.861
L407.246 226.54
L407.47 180.23
L407.544 185.748
L407.693 233.176
L408.139 194.25
L408.362 224.547
L408.66 183.928
L408.809 175.749
L408.883 176.417
L409.255 219.628
L409.404 242.519
L409.553 232.646
L409.627 233.844
L409.776 245.825
L409.925 227.036
L410.074 163.18
L410.148 170.115
L410.297 228.43
L410.371 213.742
L410.446 218.465
L410.594 262.679
L410.818 196.83
L410.892 216.818
L411.041 245.698
L411.19 211.104
L411.338 171.095
L411.413 173.664
L411.636 242.853
L411.785 219.605
L411.859 223.649
L412.008 247.104
L412.157 234.339
L412.231 237.381
L412.38 212.106
L412.454 218.027
L412.529 238.867
L412.603 237.726
L412.752 193.052
L412.826 203.063
L412.975 250.444
L413.124 197.994
L413.198 204.18
L413.273 215.619
L413.496 173.157
L413.57 176.544
L413.794 191.37
L413.868 190.771
L413.942 186.439
L414.091 132.652
L414.463 204.272
L414.612 214.076
L414.835 267.517
L414.91 273.369
L415.133 332.098
L415.282 284.405
L415.43 236.459
L415.579 271.849
L415.802 186.923
L415.877 197.095
L415.951 202.291
L416.174 129.496
L416.249 142.974
L416.398 190.045
L416.472 188.962
L416.621 161.959
L416.695 143.838
L416.77 150.969
L416.993 205.528
L417.067 209.433
L417.142 207.44
L417.216 212.97
L417.439 258.209
L417.514 264.96
L417.662 306.927
L417.737 300.107
L417.96 190.713
L418.034 191.658
L418.183 219.49
L418.258 220.734
L418.406 197.867
L418.481 200.805
L418.63 224.72
L418.778 200.402
L418.853 208.178
L419.002 264.303
L419.076 253.175
L419.299 155.047
L419.522 224.352
L419.671 207.36
L419.82 242.023
L419.894 236.724
L420.043 209.295
L420.192 237.208
L420.266 229.985
L420.415 177.12
L420.49 177.834
L420.713 206.196
L420.862 217.347
L420.936 209.963
L421.01 211.081
L421.159 226.771
L421.234 216.483
L421.308 220.688
L421.457 247.484
L421.68 219.052
L421.754 222.29
L421.903 237.853
L422.052 236.436
L422.201 215.493
L422.498 151.154
L422.573 162.558
L422.647 182.857
L422.722 181.854
L422.87 157.95
L422.945 162.132
L423.317 286.997
L423.391 281.226
L423.54 261.043
L423.614 277.056
L423.689 270.835
L423.763 252.172
L423.838 258.866
L423.986 289.44
L424.21 202.337
L424.284 206.138
L424.433 203.846
L424.656 185.748
L424.73 163.814
L424.805 165.83
L424.954 199.733
L425.102 169.897
L425.251 217.382
L425.4 170.265
L425.474 174.516
L425.772 235.134
L425.846 231.863
L425.995 210.712
L426.144 242.046
L426.293 214.606
L426.442 245.376
L426.665 212.336
L426.814 239.017
L426.888 240.526
L426.962 236.92
L427.186 192.096
L427.26 193.927
L427.409 225.515
L427.483 219.721
L427.706 277.125
L427.855 220.112
L427.93 220.654
L428.004 219.893
L428.153 202.867
L428.227 203.535
L428.45 187.741
L428.525 197.637
L428.599 194.93
L428.748 172.788
L428.897 195.045
L429.046 145.923
L429.492 235.399
L429.566 231.54
L429.641 233.049
L429.79 262.46
L429.864 251.009
L429.938 251.343
L430.087 291.479
L430.31 235.157
L430.459 274.717
L430.534 268.393
L430.757 191.888
L430.906 156.303
L430.98 164.298
L431.129 137.882
L431.203 141.327
L431.426 179.262
L431.501 184.158
L431.947 261.388
L432.022 263.9
L432.17 312.917
L432.245 311.973
L432.691 168.906
L432.84 189.734
L433.063 222.22
L433.138 214.191
L433.286 185.725
L433.435 200.183
L433.584 162.455
L433.733 181.578
L433.882 168.583
L434.03 205.436
L434.105 202.844
L434.179 197.913
L434.328 220.112
L434.477 209.756
L434.774 266.365
L434.923 262.725
L434.998 257.161
L435.072 259.004
L435.146 258.197
L435.295 234.858
L435.444 246.182
L435.667 212.498
L435.742 228.107
L435.816 226.264
L435.965 199.457
L436.039 200.332
L436.114 196.542
L436.188 185.633
L436.411 220.642
L436.486 213.212
L436.56 197.752
L436.709 222.405
L436.858 175.23
L436.932 175.322
L437.081 202.325
L437.304 187.292
L437.378 190.31
L437.527 211.772
L437.602 211
L437.676 206.634
L437.825 222.186
L437.899 220.734
L438.048 205.125
L438.346 261.976
L438.42 254.822
L438.569 204.318
L438.792 242.922
L438.866 237.646
L438.941 238.694
L439.015 244.558
L439.238 189.008
L439.313 190.898
L439.387 201.577
L439.462 200.828
L439.61 174.862
L439.685 181.486
L440.131 268.876
L440.28 256.239
L440.429 231.701
L440.578 243.763
L440.875 168.675
L440.95 176.359
L441.098 201.104
L441.173 192.199
L441.247 197.337
L441.322 212.624
L441.396 208.281
L441.545 173.94
L441.768 240.249
L441.842 229.754
L442.066 188.167
L442.14 200.643
L442.214 199.123
L442.289 197.856
L442.512 238.245
L442.586 230.906
L442.735 198.547
L442.81 207.532
L442.958 249.177
L443.033 237.657
L443.182 189.907
L443.405 265.213
L443.554 221.794
L443.702 249.615
L443.926 182.085
L444.149 234.869
L444.298 208.396
L444.372 218.96
L444.521 259.015
L444.67 222.554
L444.818 260.582
L444.893 248.175
L445.042 177.097
L445.19 220.112
L445.265 233.717
L445.488 179.101
L445.637 196.876
L445.786 165.922
L445.934 192.176
L446.009 206.887
L446.083 204.537
L446.232 152.029
L446.306 158.999
L446.455 214.007
L446.604 187.833
L446.827 287.7
L446.902 268.611
L446.976 248.855
L447.05 255.052
L447.125 267.851
L447.348 189.665
L447.422 212.716
L447.571 270.386
L447.794 197.429
L447.943 233.602
L448.092 210.332
L448.166 213.891
L448.315 244.892
L448.538 205.724
L448.687 267.655
L448.762 265.455
L448.985 196.773
L449.059 201.323
L449.282 167.408
L449.506 211.749
L449.654 183.329
L449.729 185.195
L449.878 205.228
L449.878 205.228" style="fill:none;stroke:#808080;stroke-linecap:square;"/>
   </g>
  </g>
 </g>
 <defs>
  <clipPath id="p7ff5b81e1d">
   <rect height="345.6" width="446.4" x="72.0" y="43.2"/>
  </clipPath>
 </defs>
</svg>
