<?xml version="1.0" encoding="utf-8" standalone="no"?>
<!DOCTYPE svg PUBLIC "-//W3C//DTD SVG 1.1//EN"
  "http://www.w3.org/Graphics/SVG/1.1/DTD/svg11.dtd">
<!-- Created with matplotlib (http://matplotlib.org/) -->
<svg height="432pt" version="1.1" viewBox="0 0 576 432" width="576pt" xmlns="http://www.w3.org/2000/svg" xmlns:xlink="http://www.w3.org/1999/xlink">
 <defs>
  <style type="text/css">
*{stroke-linecap:butt;stroke-linejoin:round;}
  </style>
 </defs>
 <g id="figure_1">
  <g id="patch_1">
   <path d="
M0 432
L576 432
L576 0
L0 0
z
" style="fill:#ffffff;"/>
  </g>
  <g id="axes_1">
   <g id="line2d_1">
    <path clip-path="url(#p7ff5b81e1d)" d="
M72 190.931
L72.4464 263.066
L72.5208 259.947
L72.744 243.384
L72.8928 248.352
L72.9672 244.758
L73.2648 196.045
L73.3392 196.538
L73.4136 195.423
L73.6368 187.734
L73.7112 188.624
L73.86 197.125
L74.0832 226.285
L74.232 254.625
L74.3064 251.16
L74.604 198.776
L74.6784 199.259
L74.9016 187.984
L74.976 189.375
L75.1248 201.229
L75.2736 191.406
L75.348 198.931
L75.6456 273.045
L75.72 274.091
L75.9432 293.798
L76.0176 285.487
L76.6128 141.51
L76.7616 172.173
L76.9848 209.688
L77.2824 212.34
L77.4312 214.328
L77.6544 229.603
L77.7288 228.307
L78.0264 215.347
L78.1752 218.786
L78.2496 217.585
L78.4728 187.665
L78.5472 189.997
L79.068 249.803
L79.1424 250.045
L79.6632 197.566
L79.8864 165.918
L80.0352 156.751
L80.1096 158.306
L80.4072 194.611
L80.4816 194.888
L80.6304 226.355
L80.8536 270.462
L81.1512 289.401
L81.2256 285.789
L81.4488 266.28
L81.5232 264.215
L81.672 238.278
L81.8952 184.736
L82.044 180.208
L82.2672 168.821
L82.416 173.59
L82.9368 200.538
L83.0112 201.376
L83.16 198.637
L83.2344 198.819
L83.3088 199.208
L83.3832 200.867
L83.532 213.049
L83.6808 227.123
L83.904 220.764
L84.1272 236.524
L84.3504 216.816
L84.4992 229.197
L84.8712 270.488
L84.9456 267.161
L85.1688 242.624
L85.392 253.225
L85.5408 231.953
L86.0616 130.122
L86.3592 142.521
L86.88 248.032
L87.1032 261.528
L87.9216 217.127
L88.368 154.686
L88.4424 162.237
L89.112 283.033
L89.1864 281.771
L89.4096 265.312
L89.5584 230.951
L89.856 159.135
L90.0792 135.825
L90.1536 136.386
L90.6 244.265
L90.7488 285.616
L90.8232 284.977
L91.344 204.798
L91.4184 205.757
L91.4928 204.971
L91.716 163.438
L91.7904 166.16
L91.9392 187.708
L92.088 177.78
L92.3112 216.609
L92.3856 214.475
L92.46 205.143
L92.5344 207.493
L92.832 262.643
L92.9064 264.699
L92.9808 262.979
L93.1296 251.531
L93.4272 188.555
L93.5016 200.633
L93.8736 312.919
L93.948 309.169
L94.0968 258.729
L94.4688 72.3725
L94.5432 68.7696
L94.8408 134.313
L95.436 311.631
L95.5104 313.377
L96.552 175.612
L96.6264 178.558
L96.7008 178.472
L96.924 166.013
L97.296 210.975
L97.668 265.321
L97.7424 270.41
L97.8912 257.217
L98.1144 241.967
L98.2632 228.972
L98.412 218.933
L98.5608 228.316
L98.6352 225.11
L98.784 198.205
L98.8584 199.864
L99.0072 206.327
L99.3048 173.979
L99.528 181.107
L99.6024 182.541
L100.049 211.131
L100.198 229.664
L100.272 229.379
L100.421 243.686
L100.495 253.683
L100.57 249.968
L100.793 225.3
L100.942 236.334
L101.09 220.332
L101.165 213.697
L101.314 227.374
L101.388 223.089
L101.611 170.868
L101.686 171.041
L102.281 233.154
L102.43 231.046
L102.653 265.813
L102.727 263.23
L102.95 235.651
L103.099 249.043
L103.322 221.404
L103.471 225.11
L103.546 221.006
L103.769 176.286
L103.918 187.898
L104.066 152.206
L104.141 136.179
L104.215 137.319
L104.513 177.15
L104.587 182.265
L104.81 224.972
L104.959 223.063
L105.108 241.63
L105.331 264.863
L105.554 256.897
L105.629 256.603
L105.703 255.748
L106.075 218.129
L106.15 209.705
L106.224 211.857
L106.298 212.487
L106.447 202.275
L106.67 213.576
L106.745 207.087
L106.968 165.909
L107.042 170.436
L107.266 194.611
L107.34 195.631
L107.935 268.025
L108.01 262.124
L108.233 223.348
L108.307 225.214
L108.456 237.803
L108.679 218.337
L108.828 233.362
L108.902 231.582
L109.126 191.423
L109.274 209.524
L109.349 205.541
L109.572 159.878
L109.646 163.118
L109.721 162.859
L109.944 137.017
L110.093 162.825
L110.465 232.446
L110.762 283.18
L110.911 279.223
L111.134 289.064
L111.358 263.394
L111.432 267.412
L111.506 270.669
L111.581 259.472
L111.878 180.234
L111.953 180.295
L112.25 154.936
L112.325 159.066
L112.399 159.161
L112.474 157.433
L112.548 161.615
L112.846 235.003
L112.92 233.655
L113.218 219.952
L113.366 215.071
L113.515 224.488
L113.664 209.1
L113.738 202.102
L113.813 205.273
L114.11 243.738
L114.408 213.109
L114.557 198.508
L114.706 220.998
L114.854 243.047
L115.078 218.017
L115.152 219.114
L115.226 222.207
L115.45 207.286
L115.598 216.738
L115.822 204.927
L116.045 226.527
L116.119 225.681
L116.491 203.675
L116.64 192.503
L117.31 242.019
L117.384 238.304
L117.533 226.216
L117.607 226.674
L117.682 230.83
L117.756 229.404
L118.128 182.74
L118.202 184.736
L118.426 214.639
L118.574 231.167
L118.723 212.669
L118.798 214.535
L118.946 241.5
L119.021 238.701
L119.244 206.621
L119.393 211.986
L119.542 200.175
L119.616 201.644
L119.839 233.949
L120.062 201.791
L120.137 204.625
L120.211 210.111
L120.286 209.99
L120.434 201.281
L120.509 206.102
L120.732 239.003
L120.955 227.072
L121.03 227.59
L121.104 227.115
L121.178 229.646
L121.253 227.046
L121.55 204.297
L122.071 220.79
L122.146 219.045
L122.294 208.833
L122.369 209.446
L122.443 213.472
L122.518 212.643
L122.741 200.314
L122.89 216.211
L123.038 230.977
L123.187 225.007
L123.262 226
L123.41 229.197
L123.485 227.858
L123.782 207.995
L123.857 209.584
L124.006 212.626
L124.154 202.923
L124.303 198.482
L124.601 221.62
L124.675 219.823
L124.75 219.494
L124.898 227.581
L125.122 210.733
L125.345 229.404
L125.568 216.496
L125.717 220.592
L125.866 206.724
L125.94 201.929
L126.014 203.122
L126.089 204.988
L126.238 197.825
L126.312 197.912
L126.461 210.872
L126.684 227.149
L126.907 225.447
L127.056 220.453
L127.205 231.945
L127.279 231.547
L127.502 243.133
L127.726 204.081
L127.8 206.5
L127.949 218.129
L128.023 217.749
L128.246 201.463
L128.395 206.379
L128.618 198.205
L128.842 218.725
L129.065 197.255
L129.139 198.923
L129.66 227.625
L129.734 226.061
L129.809 219.624
L129.883 220.151
L130.106 241.034
L130.255 228.022
L130.33 229.551
L130.404 233.465
L130.478 228.195
L130.702 202.309
L130.776 204.616
L130.85 203.968
L131.074 194.853
L131.222 208.867
L131.371 220.065
L131.52 208.91
L131.594 215.675
L131.743 246.062
L131.818 244.334
L132.041 225.162
L132.19 213.248
L132.264 206.871
L132.338 207.977
L132.487 222.354
L132.562 222.095
L132.785 202.119
L132.934 217.931
L133.008 217.499
L133.157 207.865
L133.231 209.662
L133.38 220.79
L133.454 219.84
L133.529 214.319
L133.603 215.563
L133.826 227.668
L133.901 224.894
L134.124 234.701
L134.347 189.842
L134.422 190.179
L134.645 206.284
L134.868 192.598
L134.942 193.661
L135.166 205.541
L135.314 231.85
L135.463 255.705
L135.835 216.384
L135.91 213.973
L135.984 215.252
L136.133 231.461
L136.207 229.646
L136.43 196.667
L136.728 230.787
L136.802 225.154
L137.1 200.97
L137.249 210.258
L137.398 216.047
L137.546 208.651
L137.77 221.482
L137.918 212.168
L137.993 218.25
L138.142 252.102
L138.216 248.525
L138.439 210.474
L138.514 210.854
L138.588 214.129
L138.662 213.792
L138.811 211.589
L138.886 212.003
L139.034 218.121
L139.258 196.089
L139.481 226.121
L139.778 194.62
L139.927 208.608
L140.002 206.923
L140.076 202.793
L140.15 204.737
L140.374 229.69
L140.448 228.774
L140.597 222.881
L140.746 224.393
L140.969 228.221
L141.118 215.373
L141.266 202.69
L141.713 220.393
L141.862 216.989
L141.936 217.213
L142.159 225.188
L142.234 229.534
L142.308 227.651
L142.531 206.275
L142.606 206.396
L142.68 207.122
L142.829 203.113
L142.903 203.389
L143.275 222.13
L143.35 222.225
L143.424 221.603
L143.498 218.509
L143.722 199.821
L143.796 202.992
L144.019 228.67
L144.094 224.903
L144.168 222.527
L144.391 245.786
L144.466 243.946
L144.838 218.838
L145.061 185.669
L145.135 185.66
L145.284 202.655
L145.358 200.797
L145.507 173.936
L145.582 177.15
L145.805 214.483
L145.954 210.872
L146.177 245.95
L146.251 243.064
L146.4 233.448
L146.549 248.205
L146.623 242.745
L146.846 212.427
L146.995 213.239
L147.07 212.539
L147.144 213.144
L147.293 219.615
L147.367 223.858
L147.442 219.201
L147.59 195.501
L147.665 196.624
L147.814 211.934
L147.888 210.12
L148.037 202.776
L148.186 216.833
L148.26 214.146
L148.409 198.309
L148.632 245.406
L148.706 240.706
L148.93 211.148
L149.004 207.839
L149.078 207.986
L149.227 228.929
L149.376 241.829
L149.674 180.848
L150.269 232.187
L150.418 221.663
L150.492 223.97
L150.641 243.755
L150.715 241.267
L150.938 214.595
L151.013 218.501
L151.087 212.582
L151.236 190.879
L151.385 222.346
L151.459 236.731
L151.534 229.482
L151.682 197.687
L151.757 201.385
L151.906 218.846
L152.054 205.878
L152.129 207.355
L152.278 216.816
L152.501 203.942
L152.65 209.973
L152.798 193.6
L152.873 195.251
L153.096 235.193
L153.245 212.479
L153.319 220.004
L153.468 251.039
L153.691 216.522
L153.766 226.45
L153.914 246.131
L154.138 192.918
L154.286 223.797
L154.361 220.427
L154.51 195.959
L154.733 218.069
L154.807 211.226
L154.956 196.391
L155.179 217.118
L155.328 208.401
L155.402 209.23
L155.626 246.555
L155.774 223.469
L155.923 208.012
L156.072 218.63
L156.146 214.405
L156.37 191.95
L156.593 225.257
L156.667 222.544
L156.742 224.134
L156.816 231.158
L156.89 229.62
L157.039 210.612
L157.114 211.122
L157.262 221.24
L157.783 185.893
L157.858 189.738
L158.081 236.757
L158.155 236.429
L158.304 224.575
L158.378 225.802
L158.602 260.621
L158.676 253.51
L158.899 211.053
L159.346 267.222
L159.792 177.651
L160.015 154.219
L160.09 158.081
L160.313 178.722
L160.387 178.394
L160.536 202.292
L160.685 221.378
L160.759 214.673
L160.834 214.932
L161.057 255.29
L161.131 247.834
L161.28 230.26
L161.503 285.547
L161.652 246.054
L161.726 247.799
L161.875 269.131
L162.024 236.731
L162.247 189.894
L162.322 184.753
L162.545 126.182
L162.619 127.28
L162.842 166.531
L162.991 175.767
L163.438 264.189
L163.512 265.787
L163.81 291.923
L163.884 286.454
L163.958 288.364
L164.033 290.541
L164.107 287.915
L164.256 227.659
L164.479 160.613
L164.554 165.157
L164.702 154.522
L164.851 144.352
L165.074 167.767
L165.149 165.779
L165.223 165.071
L165.372 188.019
L165.521 210.932
L165.595 208.936
L165.744 199.666
L165.818 204.098
L166.265 280.864
L166.414 274.315
L166.711 217.239
L166.786 229.007
L166.934 258.202
L167.009 253.104
L167.232 211.027
L167.455 231.893
L167.53 227.201
L168.125 159.144
L168.199 160.371
L168.646 190.092
L168.869 228.705
L169.092 262.85
L169.166 259.472
L169.39 229.249
L169.538 246.304
L169.613 244.455
L169.836 213.801
L169.985 218.259
L170.134 212.435
L170.282 232.739
L170.357 244.663
L170.431 240.101
L170.58 207.606
L170.654 214.371
L170.803 252.076
L170.878 248.404
L171.101 203.156
L171.175 203.623
L171.25 199.311
L171.547 143.687
L172.142 227.806
L172.217 226.743
L172.366 243.185
L172.514 265.269
L172.589 263.083
L172.812 225.205
L172.886 228.523
L173.035 240.481
L173.482 212.651
L173.63 199.329
L173.854 231.962
L174.077 203.899
L174.151 205.86
L174.3 213.118
L174.449 196.149
L174.598 185.435
L174.821 212.332
L174.97 199.933
L175.044 203.225
L175.193 213.55
L175.267 211.692
L175.416 206.068
L175.565 215.045
L175.639 213.714
L175.788 207.165
L175.937 224.67
L176.086 242.572
L176.234 234.614
L176.309 237.353
L176.458 253.259
L176.532 251.229
L177.053 186.654
L177.127 192.157
L177.276 211.355
L177.35 209.04
L177.499 187.449
L177.574 188.978
L177.871 234.105
L178.02 226.467
L178.243 204.366
L178.466 219.443
L178.541 218.44
L178.69 205.212
L178.913 187.172
L178.987 189.825
L179.359 235.582
L179.434 230.363
L179.582 219.875
L179.806 239.116
L180.326 197.082
L180.55 222.752
L180.624 221.317
L180.922 205.8
L180.996 203.476
L181.07 204.184
L181.368 235.15
L181.442 229.499
L181.517 227.357
L181.591 227.538
L181.963 251.436
L182.112 231.875
L182.335 202.638
L182.41 204.798
L182.558 213.343
L182.707 199.985
L182.856 189.591
L183.079 196.175
L183.228 187.734
L183.377 203.173
L183.526 219.08
L183.749 196.123
L183.972 229.05
L184.121 221.162
L184.344 260.94
L184.418 257.424
L184.939 159.161
L185.088 179.664
L185.534 280.553
L185.609 277.495
L186.204 180.234
L186.278 184.744
L186.65 229.595
L186.799 237.526
L186.874 235.211
L187.022 224.341
L187.097 225.154
L187.246 236.386
L187.32 234.597
L187.766 190.092
L187.99 171.698
L188.213 157.459
L188.362 174.057
L188.808 248.698
L189.18 232.161
L189.403 248.914
L189.478 248.507
L189.701 233.621
L189.85 246.797
L189.924 243.721
L190.37 183.561
L190.445 174.394
L190.519 176.579
L190.742 215.148
L190.817 212.323
L191.04 178.48
L192.007 249.933
L192.082 246.244
L192.305 222.812
L192.454 229.439
L192.528 228.998
L192.677 211.243
L192.9 180.839
L192.974 182.904
L193.495 230.372
L193.644 239.306
L193.867 217.55
L193.942 218.76
L194.016 221.948
L194.09 221.68
L194.239 212.79
L194.314 215.2
L194.537 232.377
L194.611 230.467
L194.686 231.979
L194.983 263.627
L195.355 225.015
L195.802 121.43
L196.248 178.973
L196.769 241.846
L197.215 262.452
L197.438 250.788
L197.513 252.586
L197.587 256.612
L197.662 256.603
L197.885 234.416
L198.108 255.247
L198.554 190.473
L198.703 164.553
L198.778 166.134
L199.075 190.006
L199.298 201.99
L199.373 201.54
L199.67 181.617
L199.745 182.835
L199.819 186.032
L199.968 209.316
L200.34 291.63
L200.489 273.235
L201.084 123.487
L201.158 122.726
L201.53 211.822
L201.754 245.458
L201.828 245.622
L201.902 250.313
L202.126 283.802
L202.2 281.91
L202.349 269.762
L202.498 273.252
L202.572 271.792
L203.018 220.021
L203.167 180.588
L203.242 181.867
L203.39 198.655
L203.614 179.085
L203.688 181.625
L203.762 176.899
L203.986 138.659
L204.06 141.587
L204.358 210.267
L204.581 247.03
L204.73 259.316
L204.878 277.814
L204.953 273.33
L205.176 230.839
L205.25 231.176
L205.325 231.4
L205.474 218.363
L205.548 220.013
L205.771 261.321
L205.846 257.839
L206.515 136.55
L206.738 152.31
L206.813 150.072
L206.887 158.237
L207.185 241.414
L207.259 240.861
L207.408 266.98
L207.557 299.103
L207.78 269.848
L207.854 275.222
L207.929 273.563
L208.226 228.921
L208.301 237.699
L208.375 237.44
L208.598 176.657
L208.673 181.504
L208.747 185.461
L208.97 149.441
L209.045 155.498
L209.194 183.656
L209.268 182.437
L209.342 178.541
L209.417 183.293
L209.64 219.805
L209.789 212.885
L210.012 198.586
L210.086 197.609
L210.235 208.349
L210.533 260.292
L210.607 258.029
L210.682 262.608
L210.905 301.911
L210.979 300.123
L211.128 277.754
L211.351 194.343
L211.649 105.17
L211.723 104.729
L211.798 105.014
L211.872 103.554
L211.946 114.717
L212.393 292.978
L212.467 300.408
L212.542 298.455
L212.69 281.443
L212.914 254.521
L213.36 221.3
L213.806 154.824
L214.104 179.629
L214.178 178.247
L214.327 187.051
L214.922 223.745
L214.997 221.81
L215.071 220.946
L215.22 243.142
L215.443 265.597
L215.518 269.218
L215.592 265.831
L216.038 211.235
L216.113 211.157
L216.336 244.775
L216.41 238.148
L216.559 225.024
L216.634 231.176
L216.708 230.778
L217.006 165.52
L217.229 201.203
L217.378 197.488
L217.601 219.036
L217.824 188.926
L218.047 224.851
L218.27 182.005
L218.494 203.856
L218.642 196.426
L218.866 248.222
L218.94 247.332
L219.089 235.833
L219.312 252.81
L219.535 225.292
L219.61 227.495
L219.684 222.795
L219.907 180.442
L220.13 222.769
L220.205 216.514
L220.279 206.863
L220.354 209.049
L220.502 232.1
L220.577 230.804
L220.726 221.421
L220.874 222.268
L221.098 225.43
L221.246 223.08
L221.395 226.579
L221.544 211.062
L221.618 201.998
L221.693 202.301
L221.767 206.673
L221.842 203.303
L221.99 191.354
L222.214 216.168
L222.288 212.349
L222.437 197.359
L222.66 231.936
L222.734 230.303
L223.032 214.993
L223.106 214.76
L223.181 219.149
L223.404 244.213
L223.627 226.458
L223.925 202.318
L223.999 203.994
L224.148 210.232
L224.222 208.971
L224.297 209.36
L224.371 209.429
L224.594 202.309
L224.669 202.007
L224.818 205.869
L224.966 222.881
L225.041 228.895
L225.19 211.235
L225.264 203.847
L225.338 207.044
L225.562 227.918
L225.71 212.289
L225.859 193.592
L225.934 196.883
L226.157 242.459
L226.231 240.386
L226.454 211.511
L226.603 222.674
L226.826 206.629
L226.901 210.5
L226.975 211.641
L227.198 200.668
L227.496 242.2
L227.645 220.436
L227.719 221.24
L227.868 238.546
L227.942 233.75
L228.091 205.463
L228.166 205.757
L228.389 225.395
L228.463 224.946
L228.91 205.29
L229.207 223.797
L229.356 234.658
L229.579 209.282
L229.654 209.999
L229.728 212.168
L229.877 200.962
L230.323 161.2
L230.398 170.652
L230.621 230.614
L230.695 230.588
L230.77 228.1
L230.844 231.832
L231.067 254.296
L231.216 230.165
L231.29 231.599
L231.439 242.822
L231.662 199.717
L231.737 204.703
L231.886 228.186
L231.96 224.531
L232.183 202.24
L232.406 216.41
L232.555 210.958
L232.778 221.723
L233.002 211.044
L233.225 218.328
L233.299 217.602
L233.374 220.946
L233.522 236.299
L233.597 236.118
L233.746 234.804
L233.82 235.038
L233.894 231.875
L234.415 179.819
L234.49 171.707
L234.564 173.305
L235.159 250.443
L235.308 238.476
L235.606 209.869
L235.68 200.357
L235.754 204.305
L235.829 211.908
L235.903 208.928
L236.052 178.783
L236.126 179.984
L236.424 237.379
L236.647 221.473
L236.722 221.516
L236.796 222.596
L237.019 235.859
L237.094 233.802
L237.391 209.256
L237.54 212.194
L237.614 210.932
L237.689 211.96
L237.838 233.154
L237.912 232.774
L238.135 209.843
L238.284 233.068
L238.358 231.85
L238.582 195.371
L238.656 196.253
L238.73 198.611
L238.879 190.68
L239.028 210.725
L239.177 245.561
L239.251 243.747
L239.549 213.766
L239.846 177.547
L240.07 211.399
L240.218 194.43
L240.293 184.779
L240.367 187.068
L240.739 235.824
L241.037 289.107
L241.111 287.707
L241.483 234.347
L241.781 162.695
L241.93 166.427
L242.078 156.008
L242.153 161.831
L242.45 213.783
L242.525 210.638
L242.674 227.236
L242.822 237.517
L242.971 226.795
L243.269 276.795
L243.79 200.504
L244.013 173.132
L244.087 172.804
L244.162 173.832
L244.236 173.201
L244.31 174.731
L244.682 194.965
L244.757 193.98
L244.98 212.79
L245.054 206.448
L245.203 172.208
L245.278 174.394
L245.873 299.838
L246.096 259.325
L246.17 259.886
L246.245 263.282
L246.319 260.526
L246.617 214.665
L246.691 215.123
L246.84 196.46
L247.063 170.756
L247.286 165.918
L247.435 179.603
L247.658 197.393
L247.807 214.673
L248.402 306.015
L248.477 299.734
L248.626 257.052
L249.146 43.9555
L249.221 47.5843
L249.37 104.435
L249.89 338.052
L249.965 349.768
L250.039 348.049
L250.262 318.345
L250.486 256.102
L250.783 187.449
L251.006 175.456
L251.23 184.502
L251.378 177.616
L251.453 180.951
L251.676 197.117
L251.825 192.339
L252.122 226.882
L252.346 245.613
L252.494 244.447
L252.569 240.757
L252.866 198.957
L252.941 199.251
L253.015 201.515
L253.164 182.757
L253.238 173.46
L253.313 174.722
L253.536 227.685
L253.61 223.927
L253.685 215.192
L253.759 215.555
L253.908 231.746
L253.982 229.914
L254.131 208.815
L254.28 234.623
L254.354 247.661
L254.429 247.091
L254.652 224.843
L254.726 225.853
L254.801 225.845
L255.024 193.877
L255.098 195.622
L255.247 203.389
L255.322 201.238
L255.396 207.692
L255.619 259.437
L255.694 258.608
L256.066 248.853
L256.214 231.245
L256.586 171.421
L256.661 172.242
L256.81 180.96
L256.884 176.675
L257.033 156.466
L257.107 158.79
L257.479 191.311
L257.628 197.22
L257.702 197.981
L257.851 220.41
L258.149 275.24
L258.223 273.149
L258.595 240.861
L258.744 267.576
L258.818 267.481
L259.116 223.944
L259.19 226.588
L259.414 214.63
L259.562 222.389
L259.786 167.559
L259.86 170.29
L260.009 205.48
L260.083 201.895
L260.232 182.455
L260.455 206.949
L260.53 206.629
L260.604 207.761
L260.827 228.143
L260.902 224.713
L261.125 201.601
L261.348 211.926
L261.497 205.696
L261.571 208.081
L261.72 224.851
L261.794 223.814
L261.943 217.127
L262.166 225.171
L262.464 208.452
L262.613 216.496
L262.836 254.08
L263.059 238.623
L263.208 247.324
L263.357 224.281
L263.506 205.411
L263.58 206.457
L263.654 206.422
L263.878 176.13
L264.101 220.877
L264.175 216.531
L264.398 186.464
L264.622 213.947
L264.696 211.822
L264.77 212.928
L264.919 222.397
L265.068 212.842
L265.142 214.5
L265.366 239.945
L265.44 237.189
L265.589 229.059
L265.961 241.725
L266.035 241.907
L266.184 225.586
L266.407 180.891
L266.556 194.939
L266.63 194.421
L266.854 171.845
L267.523 234.347
L267.598 234.01
L267.672 232.04
L267.746 233.344
L268.044 257.692
L268.193 235.496
L268.342 215.779
L268.565 235.668
L268.639 233.31
L268.937 208.496
L269.086 213.956
L269.16 213.317
L269.383 196.019
L269.532 188.287
L269.606 189.125
L269.755 195.233
L270.202 229.672
L270.276 229.482
L270.35 229.396
L270.499 232.757
L270.574 229.897
L270.797 197.851
L270.871 198.162
L271.094 214.276
L271.243 203.009
L271.318 209.152
L271.541 239.919
L271.764 220.825
L271.913 225.275
L271.987 220.764
L272.136 198.931
L272.21 199.666
L272.434 218.596
L272.582 214.57
L272.657 216.004
L272.806 221.257
L273.029 214.31
L273.103 215.701
L273.252 211.952
L273.326 212.574
L273.401 215.494
L273.475 214.086
L273.698 199.545
L273.922 227.581
L273.996 222.233
L274.145 201.687
L274.294 228.54
L274.442 245.38
L274.74 216.263
L274.889 202.767
L274.963 195.587
L275.038 196.84
L275.261 215.546
L275.41 202.75
L275.484 205.601
L275.707 228.134
L275.93 200.616
L276.154 223.158
L276.302 194.421
L276.377 196.719
L276.6 253.087
L276.823 225.378
L276.972 240.887
L277.195 217.853
L277.27 224.393
L277.418 233.18
L277.642 193.998
L277.716 202.042
L277.865 228.972
L277.939 224.471
L278.162 191.103
L278.311 193.281
L278.46 189.591
L278.609 200.512
L278.758 210.863
L278.832 209.757
L279.13 219.097
L279.278 204.746
L279.353 204.841
L279.576 237.63
L279.799 217.594
L279.948 242.529
L280.022 240.083
L280.171 217.55
L280.246 217.628
L280.394 231.582
L280.618 206.923
L280.692 217.153
L280.841 232.506
L281.064 194.387
L281.213 222.7
L281.287 221.438
L281.51 181.288
L281.734 219.227
L281.882 197.73
L282.031 223.149
L282.18 247.963
L282.254 243.73
L282.478 218.259
L282.552 218.302
L282.775 210.232
L282.85 211.874
L283.073 223.054
L283.147 222.199
L283.296 234.597
L283.37 240.049
L283.445 236.74
L283.891 190.991
L284.04 183.085
L284.263 191.501
L284.412 173.098
L284.486 176.83
L285.082 254.841
L285.23 261.813
L285.305 261.156
L285.379 261.364
L285.454 261.061
L285.602 245.492
L285.826 223.555
L285.9 225.404
L286.049 212.349
L286.198 198.983
L286.272 200.659
L286.421 209.671
L286.495 208.798
L286.644 203.424
L286.942 209.239
L287.016 208.427
L287.165 202.24
L287.239 198.43
L287.314 199.735
L287.537 216.28
L287.76 203.994
L287.909 215.874
L288.058 227.244
L288.132 224.652
L288.43 194.758
L288.578 212.764
L288.727 232.437
L288.876 226.182
L288.95 226.346
L289.099 229.854
L289.248 225.43
L289.322 226.346
L289.397 228.316
L289.471 227.046
L289.62 211.744
L289.694 212.608
L289.843 220.35
L289.992 210.405
L290.066 214.388
L290.29 246.71
L290.513 198.283
L290.587 199.009
L290.81 220.142
L290.959 202.379
L291.182 172.64
L291.48 224.229
L291.703 215.624
L291.778 216.479
L291.852 214.138
L292.001 202.664
L292.075 206.163
L292.298 234.459
L292.447 222.268
L292.522 229.37
L292.67 262.634
L292.745 260.958
L292.968 233.344
L293.117 224.082
L293.34 205.074
L293.414 208.314
L293.489 207.606
L293.861 178.135
L294.158 191.112
L294.53 213.109
L294.754 241.941
L294.828 242.978
L294.902 241.319
L295.051 249.311
L295.126 249.294
L295.646 212.842
L295.87 192.14
L295.944 194.542
L296.167 214.716
L296.316 208.763
L296.39 209.368
L296.614 218.674
L296.911 206.629
L297.134 221.196
L297.209 220.505
L297.283 220.41
L297.358 222.294
L297.432 221.404
L297.804 167.412
L297.878 164.207
L297.953 165.287
L298.102 201.739
L298.474 311.251
L298.548 322.665
L298.622 322.475
L298.994 264.146
L299.664 113.352
L300.036 128.757
L301.003 300.563
L301.078 294.973
L301.375 251.773
L301.673 219.736
L301.896 245.89
L302.045 234.908
L302.194 245.112
L302.268 243.92
L302.566 215.14
L302.863 160.889
L303.086 148.154
L303.161 149.061
L303.235 154.867
L303.905 280.614
L304.054 241.958
L304.202 209.178
L304.426 248.767
L304.649 207.58
L304.723 208.746
L304.798 208.729
L305.021 169.996
L305.095 173.564
L305.318 208.772
L305.467 201.739
L305.988 241.57
L306.062 253.061
L306.137 249.942
L306.509 193.125
L306.583 190.931
L306.955 205.057
L307.253 239.107
L307.327 238.209
L307.402 241.621
L307.625 273.935
L307.699 270.816
L307.922 236.705
L308.071 253.968
L308.146 250.572
L308.815 101.861
L308.964 130.407
L309.634 276.829
L309.857 302.905
L310.006 281.797
L310.154 262.936
L310.378 273.667
L310.452 266.185
L310.75 203.891
L311.122 188.269
L311.27 177.962
L311.494 144.62
L311.791 158.928
L311.94 171.957
L312.61 274.626
L312.684 267.585
L312.833 254.927
L312.907 256.353
L313.056 274.773
L313.205 286.29
L313.428 255.445
L313.502 258.806
L313.577 258.582
L314.246 140.447
L314.321 144.525
L314.47 148.301
L314.544 149.856
L314.842 187.155
L315.139 238.407
L315.362 257.77
L315.437 257.441
L315.586 260.664
L315.883 229.353
L315.958 230.372
L316.032 230.536
L316.33 210.241
L316.404 214.017
L316.478 213.334
L316.627 209.869
L316.702 205.031
L316.776 207.208
L316.85 209.757
L316.999 194.896
L317.297 215.745
L317.371 217.991
L317.594 261.07
L317.669 260.69
L318.19 196.918
L318.338 168.562
L318.562 201.791
L318.636 199.424
L318.785 187.043
L319.008 213.585
L319.082 210.327
L319.306 192.892
L319.529 212.531
L319.603 200.616
L319.678 201.731
L319.901 249.346
L319.975 242.01
L320.05 236.731
L320.273 286.662
L320.347 280.216
L320.645 229.119
L320.719 226.691
L320.942 191.017
L321.166 217.732
L321.389 188.753
L321.612 221.862
L321.686 212.937
L321.91 182.679
L321.984 184.494
L322.133 178.463
L322.207 183.111
L322.579 240.161
L322.728 223.21
L322.802 214.829
L322.877 219.771
L323.026 246.987
L323.1 243.574
L323.323 174.264
L323.546 211.926
L323.621 206.638
L323.695 200.987
L323.77 201.981
L324.067 237.405
L324.142 234.899
L324.216 235.159
L324.365 240.023
L324.439 237.561
L324.662 216.306
L325.034 235.651
L325.183 256.283
L325.258 253.398
L325.481 230.389
L325.555 230.605
L325.63 228.48
L325.778 195.207
L325.927 151.921
L326.002 152.724
L326.076 156.025
L326.225 151.221
L326.299 152.215
L326.448 172.259
L326.671 224.566
L326.746 226.691
L326.82 224.048
L326.894 224.471
L326.969 223.426
L327.118 229.145
L327.415 267.922
L327.564 265.217
L327.638 268.5
L327.713 268.405
L328.234 205.463
L328.457 186.896
L328.531 186.835
L328.68 190.749
L328.754 191.095
L328.978 179.068
L329.052 180.986
L329.201 187.163
L329.275 186.922
L329.498 202.223
L329.647 221.611
L329.796 238.978
L329.945 233.811
L330.168 248.939
L330.391 246.227
L330.54 237.578
L330.838 203.182
L330.986 210.716
L331.21 196.175
L331.433 229.214
L331.656 192.011
L331.879 244.68
L331.954 233.292
L332.177 186.593
L332.326 194.499
L332.4 193.047
L332.549 181.85
L332.772 201.152
L332.846 202.37
L332.921 200.642
L332.995 204.098
L333.218 259.886
L333.442 243.773
L333.665 256.672
L333.962 239.34
L334.037 241.336
L334.111 245.933
L334.186 238.632
L334.409 193.6
L334.558 209.619
L334.632 209.368
L334.855 175.525
L334.93 182.964
L335.078 205.446
L335.153 204.659
L335.302 196.14
L335.45 211.036
L335.525 210.5
L335.599 207.735
L335.822 188.269
L335.897 188.174
L336.12 176.165
L336.566 224.03
L336.79 277.935
L336.864 281.149
L336.938 280.977
L337.013 281.538
L337.087 285.789
L337.236 301.592
L337.385 269.667
L337.608 224.963
L337.757 192.322
L337.98 126.623
L338.129 142.849
L338.203 136.715
L338.352 124.679
L338.947 260.292
L339.096 276.769
L339.245 267.282
L339.319 268.457
L339.468 278.108
L339.766 208.435
L339.84 217.248
L339.914 222.916
L339.989 218
L340.212 178.869
L340.361 195.441
L340.435 193.246
L340.584 177.184
L340.733 206.768
L340.882 228.16
L341.03 215.062
L341.254 241.466
L341.477 210.733
L341.626 218.293
L341.849 157.969
L341.923 158.453
L342.146 211.908
L342.295 205.264
L342.444 234.39
L342.593 256.119
L342.667 251.575
L342.742 252.611
L342.965 275.585
L343.188 226.441
L343.262 227.78
L343.337 234.986
L343.411 233.18
L343.634 205.307
L343.709 206.655
L343.783 203.122
L344.006 173.227
L344.081 173.858
L344.23 183.647
L344.453 144.033
L344.602 128.291
L344.676 134.511
L344.899 227.4
L345.197 313.843
L345.346 330.216
L345.643 312.867
L345.792 282.808
L346.164 179.923
L346.313 157.243
L346.61 104.703
L346.759 114.562
L347.578 257.476
L347.801 291.336
L347.875 291.69
L347.95 289.625
L348.173 277.771
L348.247 278.16
L348.322 274.592
L348.991 184.546
L349.214 204.703
L349.363 193.661
L349.512 200.037
L349.735 210.673
L349.81 210.535
L350.033 203.424
L350.182 174.981
L350.256 159.947
L350.33 165.071
L350.702 213.611
L351.298 269.243
L351.372 272.751
L351.446 270.22
L351.818 223.175
L351.967 219.581
L352.116 193.445
L352.414 139.341
L352.562 160.423
L353.009 246.166
L353.232 262.841
L353.455 260.18
L353.604 248.793
L353.827 215.684
L354.125 136.611
L354.199 138.296
L354.422 176.139
L354.794 281.314
L354.869 279.862
L354.943 278.868
L355.092 293.963
L355.166 293.893
L355.613 211.857
L355.985 105.023
L356.134 111.788
L356.282 159.265
L356.506 212.531
L356.58 216.203
L356.878 275.775
L357.026 250.849
L357.101 252.525
L357.175 260.94
L357.25 256.007
L357.473 203.087
L357.547 207.26
L357.696 230.709
L357.919 188.451
L357.994 195.942
L358.142 211.209
L358.291 199.709
L358.589 260.975
L358.663 255.411
L358.738 251.497
L358.886 278.402
L358.961 273.659
L359.184 193.652
L359.333 207.606
L359.482 182.956
L359.556 168.026
L359.63 168.613
L359.779 189.28
L359.854 188.399
L360.002 177.625
L360.226 209.748
L360.449 165.287
L360.523 172.363
L360.821 222.216
L361.118 252.214
L361.342 249.76
L361.788 211.528
L361.937 221.041
L362.234 282.843
L362.681 184.338
L362.755 180.372
L362.904 215.546
L362.978 235.098
L363.053 234.718
L363.276 181.807
L363.574 228.903
L363.722 210.664
L364.02 169.313
L364.094 172.225
L364.318 219.624
L364.466 199.346
L364.615 185.159
L364.764 203.579
L364.838 200.219
L364.913 191.043
L364.987 191.423
L365.657 331.451
L365.731 317.662
L365.954 265.183
L366.029 261.182
L366.178 223.201
L366.326 200.815
L366.401 203.173
L366.475 195.795
L366.773 119.435
L366.847 120.333
L366.922 120.8
L367.07 111.961
L367.145 113.352
L367.294 141.052
L367.889 303.639
L367.963 303.294
L368.112 294.343
L368.633 228.791
L368.856 211.623
L368.93 212.695
L369.079 221.68
L369.154 216.851
L369.377 184.615
L369.451 186.714
L369.6 196.08
L370.046 170.324
L370.195 146.849
L370.27 157.2
L370.567 225.646
L370.939 317.904
L371.014 316.288
L371.088 312.513
L371.311 244.084
L371.534 180.891
L371.609 181.91
L371.758 191.535
L371.906 174.635
L372.13 192.71
L372.353 133.535
L372.427 133.578
L372.576 149.839
L372.65 149.035
L372.725 150.305
L372.874 193.255
L373.097 266.539
L373.171 265.58
L373.394 274.091
L373.618 250.469
L373.692 251.022
L373.841 263.42
L373.915 258.875
L374.138 224.989
L374.362 240.611
L374.51 239.418
L374.585 238.355
L374.734 220.427
L374.957 197.851
L375.031 195.613
L375.403 166.834
L375.552 173.063
L375.701 190.352
L375.998 226.579
L376.147 232.29
L376.222 231.625
L376.445 214.595
L376.594 224.246
L376.668 220.963
L376.817 196.797
L376.966 219.494
L377.114 231.487
L377.263 222.665
L377.412 240.032
L377.486 233.655
L377.635 202.18
L377.71 205.152
L377.858 228.834
L377.933 228.8
L378.082 209.049
L378.156 211.381
L378.305 226.519
L378.379 223.754
L378.528 208.107
L378.602 212.487
L378.677 210.008
L378.9 168.579
L378.974 169.883
L379.272 210.206
L379.346 212.842
L379.644 246.252
L379.793 228.402
L379.867 233.586
L380.016 258.046
L380.09 256.931
L380.314 204.996
L380.388 205.066
L380.537 223.063
L380.611 221.646
L380.686 217.205
L380.76 217.645
L380.909 236.075
L380.983 232.316
L381.206 186.818
L381.43 201.48
L381.653 182.023
L382.322 243.885
L382.397 241.155
L382.62 215.166
L382.694 218.354
L382.769 218.337
L382.992 207.554
L383.215 218.639
L383.29 217.049
L383.438 203.096
L383.662 214.008
L383.885 187.293
L383.959 191.665
L384.257 230.908
L384.554 263.843
L384.703 250.08
L385.001 213.23
L385.075 214.552
L385.745 177.426
L385.894 180.891
L386.042 172.614
L386.117 177.037
L386.563 262.046
L386.638 263.109
L386.712 260.094
L386.935 272.535
L387.158 249.613
L387.233 250.97
L387.307 248.387
L387.754 191.553
L388.126 152.578
L388.572 214.552
L388.646 210.621
L388.721 205.705
L388.87 219.598
L389.018 231.124
L389.093 230.623
L389.242 236.1
L389.539 215.693
L389.911 249.873
L389.986 246.538
L390.209 220.894
L390.655 240.593
L390.878 228.964
L391.102 215.675
L391.325 178.247
L391.399 181.694
L391.474 187.371
L391.548 182.835
L391.771 144.931
L391.92 170.575
L392.069 192.607
L392.218 179.612
L392.366 212.988
L392.515 251.73
L392.738 244.879
L392.813 246.667
L393.185 268.354
L393.334 270.341
L393.408 266.582
L393.929 174.091
L394.003 175.042
L394.152 184.883
L394.226 184.053
L394.375 178.48
L394.45 183.612
L394.822 245.155
L395.119 215.373
L395.417 236.532
L395.714 211.926
L395.789 217.412
L395.938 221.896
L396.012 221.758
L396.235 207.571
L396.607 172.493
L396.682 175.422
L396.979 241.855
L397.054 240.576
L397.202 232.895
L397.426 247.229
L397.723 196.348
L397.872 202.69
L398.021 193.635
L398.095 196.175
L398.318 217.352
L398.467 202.508
L398.69 221.862
L398.765 216.125
L398.914 187.803
L398.988 195.328
L399.211 254.443
L399.36 234.208
L399.434 241.57
L399.583 293.738
L399.658 291.759
L399.881 236.42
L399.955 242.425
L400.03 241.423
L400.253 176.363
L400.327 178.696
L400.402 185.029
L400.476 179.897
L400.625 150.02
L400.699 155.748
L400.922 202.586
L401.071 190.758
L401.146 194.914
L401.294 209.619
L401.443 185.453
L401.518 190.55
L401.741 229.137
L401.89 222.199
L401.964 224.687
L402.262 247.713
L402.857 236.515
L403.154 218.518
L403.303 228.972
L403.378 227.746
L403.675 199.173
L403.824 203.744
L404.047 194.516
L404.27 187.863
L404.345 186.369
L404.419 181.47
L404.568 193.324
L404.94 232.86
L405.163 232.022
L405.386 211.01
L405.461 211.235
L405.61 227.123
L405.833 214.025
L405.907 215.943
L406.205 242.304
L406.354 228.143
L406.502 219.615
L406.577 219.728
L406.726 213.645
L406.8 210.509
L406.949 215.114
L407.098 225.197
L407.544 196.382
L407.618 195.536
L407.693 196.875
L407.767 200.374
L407.99 224.782
L408.139 216.246
L408.288 210.915
L408.437 219.071
L408.511 218.76
L408.809 193.471
L408.958 198.974
L409.255 229.465
L409.33 230.027
L409.404 228.955
L409.478 230.675
L409.776 251.851
L409.85 249.76
L409.999 258.003
L410.074 255.376
L410.446 213.999
L410.52 212.531
L411.041 172.527
L411.264 178.506
L411.487 189.686
L411.562 191.803
L412.157 261.925
L412.231 261.2
L412.826 206.845
L412.901 208.349
L413.124 224.298
L413.198 223.123
L413.347 231.703
L413.496 247.393
L413.645 228.8
L413.868 212.237
L414.091 208.064
L414.389 221.533
L414.538 226.173
L414.612 220.35
L414.91 168.009
L415.058 172.778
L415.207 154.331
L415.282 158.591
L415.505 200.702
L415.579 199.674
L415.728 217.715
L415.877 244.231
L415.951 241.898
L416.026 232.999
L416.1 234.156
L416.323 268.475
L416.546 251.92
L416.621 254.918
L416.695 255.774
L416.77 250.279
L416.993 211.917
L417.216 242.036
L417.439 215.425
L417.662 227.132
L417.886 206.059
L417.96 208.893
L418.034 210.517
L418.183 187.604
L418.332 165.572
L418.481 184.252
L418.555 193.445
L418.63 189.928
L418.778 178.809
L419.225 210.958
L419.597 225.059
L419.82 258.625
L420.043 229.093
L420.192 231.625
L420.341 233.163
L420.49 237.077
L420.787 225.767
L421.085 190.628
L421.159 192.114
L421.308 200.901
L421.531 178.852
L421.754 214.207
L421.829 211.865
L421.903 208.444
L422.052 237.362
L422.201 258.832
L422.35 238.485
L422.424 239.729
L422.573 252.732
L422.647 248.931
L423.168 182.878
L423.242 181.582
L423.391 201.86
L423.54 219.477
L423.763 203.588
L423.986 216.738
L424.284 189.505
L424.358 191.967
L424.656 229.309
L424.73 225.499
L424.805 222.138
L424.954 233.267
L425.028 238.148
L425.251 219.52
L425.474 250.875
L425.698 229.629
L425.921 254.452
L425.995 250.149
L426.367 198.309
L426.59 176.787
L426.739 191.224
L426.814 188.269
L427.037 162.401
L427.186 175.422
L427.483 205.636
L427.706 213.956
L428.227 285.582
L428.302 284.873
L428.45 273.218
L428.971 187.319
L429.194 151.351
L429.343 155.265
L429.492 177.875
L429.715 209.55
L429.864 216.514
L430.087 193.713
L430.31 237.517
L430.385 236.818
L430.534 216.989
L430.608 219.192
L430.831 266.582
L430.906 264.094
L431.203 228.739
L431.278 225.179
L431.501 193.056
L431.575 194.421
L431.798 218.259
L431.947 204.72
L432.022 205.091
L432.096 208.357
L432.17 206.629
L432.394 170.125
L432.468 173.279
L432.84 216.323
L433.063 265.692
L433.138 262.928
L433.212 255.921
L433.286 257.813
L433.435 273.408
L433.584 220.091
L433.733 173.953
L434.03 181.081
L434.402 239.358
L434.477 240.179
L434.7 256.983
L435.295 164.345
L435.37 171.456
L435.593 208.668
L435.816 182.17
L436.039 204.366
L436.114 201.091
L436.188 204.098
L436.486 261.83
L436.634 243.401
L436.709 247.134
L436.858 258.253
L437.006 226.113
L437.155 204.348
L437.378 234.286
L437.527 223.806
L437.676 238.658
L437.75 232.005
L438.122 163.922
L438.197 164.82
L438.346 173.728
L439.09 268.483
L439.164 265.2
L439.759 190.378
L439.908 195.994
L439.982 194.274
L440.131 190.213
L440.354 199.173
L440.578 191.751
L441.173 236.766
L441.247 235.824
L441.322 236.463
L441.396 238.528
L441.47 236.541
L441.619 226.925
L441.694 227.193
L441.917 232.973
L442.066 239.047
L442.363 216.669
L442.438 217.257
L442.512 220.039
L442.586 215.218
L442.884 155.653
L442.958 159.636
L443.405 237.595
L443.479 235.893
L443.628 221.603
L443.851 248.922
L443.926 243.747
L444.149 224.886
L444.223 222.786
L444.446 203.908
L444.67 225.43
L444.893 198.456
L444.967 202.733
L445.265 232.921
L445.414 230.562
L445.488 227.072
L445.637 198.508
L445.786 162.92
L445.934 209.083
L446.083 239.617
L446.306 207.442
L446.455 212.988
L446.53 211.796
L446.678 226.035
L446.753 233.102
L446.827 231.115
L446.976 210.742
L447.05 211.468
L447.199 233.681
L447.348 258.4
L447.497 229.197
L447.72 196.564
L447.943 197.704
L448.092 211.615
L448.166 218.501
L448.241 216.488
L448.464 190.447
L448.687 204.495
L448.836 192.088
L448.91 194.741
L449.208 235.202
L449.282 234.442
L449.506 248.119
L449.58 247.523
L449.803 233.154
L449.878 233.794" style="fill:none;stroke:#808080;stroke-linecap:square;"/>
   </g>
  </g>
 </g>
 <defs>
  <clipPath id="p7ff5b81e1d">
   <rect height="345.6" width="446.4" x="72.0" y="43.2"/>
  </clipPath>
 </defs>
</svg>
