<?xml version="1.0" encoding="utf-8" standalone="no"?>
<!DOCTYPE svg PUBLIC "-//W3C//DTD SVG 1.1//EN"
  "http://www.w3.org/Graphics/SVG/1.1/DTD/svg11.dtd">
<!-- Created with matplotlib (http://matplotlib.org/) -->
<svg height="432pt" version="1.1" viewBox="0 0 576 432" width="576pt" xmlns="http://www.w3.org/2000/svg" xmlns:xlink="http://www.w3.org/1999/xlink">
 <defs>
  <style type="text/css">
*{stroke-linecap:butt;stroke-linejoin:round;}
  </style>
 </defs>
 <g id="figure_1">
  <g id="patch_1">
   <path d="
M0 432
L576 432
L576 0
L0 0
z
" style="fill:#ffffff;"/>
  </g>
  <g id="axes_1">
   <g id="line2d_1">
    <path clip-path="url(#p7ff5b81e1d)" d="
M72 166.52
L72.0744 184.935
L72.1488 191.008
L72.2976 182.639
L72.372 184.614
L72.5208 198.685
L72.744 174.937
L72.9672 224.259
L73.0416 218.878
L73.2648 165.483
L73.5624 224.531
L73.6368 217.372
L73.7112 212.089
L73.86 225.765
L74.1576 195.007
L74.232 201.623
L74.3064 205.474
L74.3808 196.957
L74.604 143.883
L74.8272 195.649
L75.0504 171.086
L75.348 199.228
L75.6456 174.073
L75.72 175.086
L75.9432 153.189
L76.092 172.963
L76.3152 194.834
L76.5384 212.163
L76.6872 206.51
L76.836 198.488
L77.0592 219.717
L77.1336 216.755
L77.4312 193.155
L77.5056 194.76
L77.6544 209.917
L77.8776 226.012
L78.3984 171.679
L78.696 163.335
L78.9936 175.382
L79.2168 188.687
L79.3656 194.563
L79.5144 192.44
L79.7376 176.542
L79.812 178.27
L79.8864 180.467
L80.0352 198.611
L80.2584 218.656
L80.4816 207.448
L80.556 210.806
L80.7792 231.097
L81.1512 190.934
L81.3 183.602
L81.5976 164.841
L81.672 165.631
L81.7464 165.409
L81.9696 158.472
L82.1928 169.186
L82.3416 168.963
L82.5648 166.643
L82.6392 167.877
L82.788 182.022
L83.3088 238.997
L83.3832 238.355
L83.4576 237.195
L83.532 237.911
L83.7552 228.752
L83.904 221.89
L83.9784 222.235
L84.1272 205.967
L84.3504 166.668
L84.4248 167.803
L84.4992 167.384
L84.5736 164.397
L84.7224 166.865
L84.7968 166.248
L85.02 152.523
L85.0944 154.004
L85.1688 154.917
L85.3176 153.066
L85.392 153.165
L85.4664 153.93
L85.5408 156.398
L85.764 188.638
L86.0616 223
L86.3592 237.121
L86.4336 237.022
L86.7312 214.237
L86.8056 217.718
L86.88 212.879
L87.1776 172.37
L87.3264 173.456
L87.4752 169.186
L87.5496 169.976
L87.6984 176.591
L87.9216 167.581
L88.368 210.04
L88.5912 200.635
L88.6656 200.586
L88.74 199.771
L88.9632 205.893
L89.6328 166.52
L89.7072 164.569
L89.856 168.42
L90.0792 155.164
L90.8976 237.022
L90.972 245.193
L91.0464 244.921
L91.2696 235.911
L91.344 237.096
L91.4184 234.208
L92.088 166.223
L92.3112 150.671
L92.46 140.748
L92.6088 149.709
L92.9808 189.403
L93.0552 187.28
L93.204 180.813
L93.2784 180.59
L94.1712 232.628
L94.4688 216.385
L94.9152 177.554
L94.9896 177.826
L95.2872 162.027
L95.3616 162.99
L95.5104 161.731
L95.5848 162.817
L95.7336 173.407
L96.1056 209.818
L96.2544 220.014
L96.4776 240.182
L96.552 241.12
L96.8496 192.563
L97.3704 123.764
L97.5192 143.735
L97.9656 226.851
L98.04 226.531
L98.2632 203.992
L98.412 207.893
L98.4864 206.881
L98.6352 191.551
L98.7096 194.661
L99.0072 244.403
L99.3048 179.307
L99.3792 182.17
L99.4536 180.985
L99.6768 172.592
L99.7512 173.16
L99.9 186.416
L100.272 156.497
L100.346 157.46
L100.644 171.16
L100.942 234.627
L101.016 232.134
L101.165 222.507
L101.314 229.789
L101.462 210.139
L101.611 185.059
L101.834 216.014
L102.206 165.779
L102.281 167.408
L102.355 165.31
L102.504 150.671
L102.578 155.362
L102.802 189.255
L103.025 167.359
L103.099 167.408
L103.248 178.961
L103.322 176.838
L103.397 173.802
L103.471 177.653
L103.992 253.438
L104.066 257.289
L104.141 254.055
L104.438 195.698
L104.513 202.339
L104.587 206.634
L104.736 172.419
L104.885 143.068
L105.108 176.344
L105.331 146.499
L105.406 151.017
L105.703 171.975
L105.852 183.232
L106.075 211.349
L106.298 195.352
L106.894 227.246
L107.117 193.97
L107.191 195.896
L107.34 215.052
L107.414 207.3
L107.638 160.151
L107.861 204.585
L107.935 201.228
L108.158 177.134
L108.307 189.453
L108.382 187.206
L108.679 151.239
L108.977 171.778
L109.051 174.073
L109.2 184.244
L109.274 184.861
L109.423 192.538
L109.721 215.94
L109.87 209.892
L110.093 234.578
L110.167 233.393
L110.39 200.438
L110.465 202.141
L110.614 211.497
L110.986 167.704
L111.209 190.391
L111.358 179.875
L111.432 174.518
L111.506 177.924
L111.73 204.165
L112.027 144.401
L112.102 147.438
L112.325 195.55
L112.399 194.735
L112.548 173.678
L112.622 176.122
L112.846 229.024
L112.92 225.839
L113.218 163.903
L113.515 222.976
L113.59 221.198
L113.738 201.919
L113.887 232.653
L114.036 254.475
L114.185 203.746
L114.334 149.56
L114.408 156.793
L114.631 207.177
L114.706 194.908
L114.929 133.811
L115.152 203.721
L115.226 195.501
L115.45 133.293
L115.524 139.217
L115.747 211.225
L115.822 206.115
L115.97 172.148
L116.045 179.899
L116.268 257.19
L116.342 249.908
L116.64 164.718
L116.863 235.763
L116.938 228.629
L117.161 164.619
L117.458 223.42
L117.756 165.631
L118.054 206.017
L118.277 154.448
L118.351 162.397
L118.574 224.753
L118.649 215.027
L118.872 147.265
L119.021 198.463
L119.095 225.518
L119.17 223.321
L119.393 124.406
L119.467 136.6
L119.69 244.699
L119.914 149.857
L119.988 155.806
L120.211 262.843
L120.286 250.624
L120.509 160.941
L120.658 204.462
L120.806 242.626
L120.955 199.426
L121.104 148.721
L121.178 154.744
L121.402 215.224
L121.55 164.372
L121.699 129.96
L121.922 237.664
L121.997 227.79
L122.22 111.421
L122.369 188.934
L122.518 248.97
L122.741 150.153
L122.815 165.211
L123.038 285.924
L123.113 266.966
L123.336 137.637
L123.485 192.662
L123.634 240.034
L123.857 158.2
L123.931 163.138
L124.154 223.914
L124.229 209.102
L124.452 119.543
L124.601 177.06
L124.75 215.027
L124.973 129.096
L125.047 130.478
L125.345 244.724
L125.568 168.939
L125.717 225.913
L125.866 280.148
L126.014 218.606
L126.163 179.331
L126.386 232.628
L126.461 224.753
L126.684 120.259
L126.758 126.257
L126.982 182.713
L127.205 113.421
L127.279 116.013
L127.577 234.06
L127.8 165.68
L127.874 178.072
L128.098 267.879
L128.172 257.388
L128.395 183.898
L128.618 243.391
L128.693 240.651
L128.916 141.71
L128.99 143.488
L129.214 224.803
L129.288 211.349
L129.511 138.649
L129.809 229.443
L130.032 143.858
L130.106 152.202
L130.33 200.487
L130.553 140.155
L130.627 153.214
L130.925 229.715
L131.148 179.949
L131.371 223.05
L131.446 214.435
L131.594 166.766
L131.669 167.927
L131.892 231.566
L131.966 225.691
L132.19 174.123
L132.264 178.048
L132.487 227
L132.71 161.607
L132.785 163.681
L133.008 195.92
L133.082 189.848
L133.306 150.943
L133.603 216.706
L133.826 158.373
L133.901 164.767
L134.198 232.727
L134.273 229.073
L134.496 174.098
L134.57 177.924
L134.645 190.045
L134.719 188.44
L134.942 149.067
L135.24 182.886
L135.314 182.022
L135.389 177.11
L135.463 177.727
L135.612 226.333
L135.761 259.807
L135.984 200.413
L136.058 204.955
L136.207 228.703
L136.728 162.841
L136.877 171.037
L137.026 133.342
L137.1 133.786
L137.249 170.445
L137.323 170.074
L137.546 192.366
L137.695 173.382
L137.993 215.916
L138.142 162.051
L138.216 163.162
L138.439 259.906
L138.514 253.66
L138.811 197.155
L138.96 210.213
L139.034 205.054
L139.183 168.05
L139.258 175.135
L139.406 210.707
L139.481 206.979
L139.778 178.048
L139.927 170.766
L140.076 183.503
L140.15 181.43
L140.374 154.72
L140.448 155.337
L140.522 157.312
L140.671 179.282
L140.82 197.87
L140.969 177.184
L141.118 211.102
L141.266 234.825
L141.415 205.054
L141.49 206.066
L141.713 248.007
L142.085 173.604
L142.159 175.16
L142.308 184.812
L142.531 135.613
L142.606 140.279
L142.754 156.127
L142.829 159.237
L142.903 169.062
L143.052 201.598
L143.201 173.703
L143.275 180.418
L143.498 250.772
L143.722 208.905
L143.796 213.052
L143.945 234.726
L144.019 234.084
L144.094 229.863
L144.391 170.173
L144.466 175.629
L144.54 174.049
L144.763 139.587
L145.135 167.581
L145.358 210.287
L145.582 185.676
L145.73 194.612
L145.879 176.098
L145.954 180.195
L146.326 238.33
L146.474 209.843
L146.623 188.49
L146.772 202.264
L146.995 168.544
L147.07 172.642
L147.367 208.189
L147.442 214.138
L147.516 208.732
L147.739 174.715
L147.888 204.61
L148.037 186.169
L148.26 153.288
L148.558 201.845
L148.632 194.143
L148.781 154.424
L148.855 166.939
L149.004 225.741
L149.078 224.679
L149.302 166.199
L149.376 173.555
L149.748 219.495
L149.971 169.186
L150.194 226.407
L150.492 171.111
L150.566 175.727
L150.864 239.96
L151.087 175.11
L151.162 186.836
L151.31 208.14
L151.534 171.432
L151.608 175.875
L151.757 184.886
L151.98 207.103
L152.203 137.588
L152.278 154.522
L152.426 187.601
L152.575 176.344
L152.65 165.557
L152.724 167.161
L152.798 167.087
L152.873 165.532
L153.022 187.478
L153.17 217.446
L153.319 192.045
L153.394 197.451
L153.542 254.796
L153.617 254.203
L153.914 183.898
L153.989 186.145
L154.212 220.606
L154.286 215.027
L154.51 167.532
L154.658 197.574
L154.733 193.871
L154.956 143.735
L155.328 210.559
L155.477 230.628
L155.626 207.942
L155.998 156.818
L156.072 156.867
L156.221 164.89
L156.518 203.227
L156.667 198.339
L156.742 197.13
L156.816 200.561
L156.89 200.413
L156.965 197.648
L157.188 177.529
L157.262 180.294
L157.411 206.831
L157.634 249.71
L157.709 250.056
L158.155 195.945
L158.602 147.931
L158.676 144.722
L158.75 145.018
L158.899 158.67
L159.048 172.173
L159.122 170.914
L159.197 173.185
L159.346 186.984
L159.569 180.566
L159.643 180.368
L159.718 178.147
L159.792 180.344
L160.387 243.736
L160.759 204.116
L160.834 202.659
L161.057 187.502
L161.206 184.787
L161.429 202.116
L161.503 200.265
L161.726 193.081
L162.173 168.717
L162.247 170.988
L162.322 170.074
L162.47 156.793
L162.619 171.309
L162.842 189.699
L163.363 204.141
L163.512 210.361
L163.884 176.172
L163.958 177.208
L164.256 199.154
L164.33 195.723
L164.405 193.081
L164.628 207.745
L164.777 201.894
L164.926 192.489
L165.149 207.029
L165.521 193.526
L165.744 210.386
L165.818 207.004
L166.19 183.577
L166.414 170.617
L166.562 164.125
L166.637 169.062
L166.711 167.433
L166.86 157.929
L167.232 179.529
L167.455 194.069
L167.53 192.588
L167.604 187.774
L167.678 188.934
L167.827 194.735
L168.125 221.026
L168.422 245.366
L168.646 229.32
L169.092 174.37
L169.315 148.153
L169.39 149.116
L169.687 167.112
L169.762 165.285
L169.91 162.496
L170.059 169.976
L170.208 180.615
L170.357 185.75
L170.431 185.305
L170.506 187.083
L170.729 227.345
L170.878 242.453
L171.026 237.688
L171.473 191.452
L171.547 191.353
L171.919 161.039
L172.366 174.271
L172.514 193.871
L172.589 193.402
L172.738 185.972
L172.812 176.789
L172.886 177.455
L173.407 214.459
L173.482 215.323
L173.556 212.534
L173.63 213.052
L173.705 215.99
L173.779 213.102
L174.002 190.465
L174.226 186.169
L174.374 194.834
L174.449 193.896
L174.672 187.354
L174.821 190.86
L174.97 181.306
L175.267 168.494
L175.416 162.348
L175.714 196.71
L175.788 193.378
L175.862 194.686
L176.16 231.887
L176.234 230.851
L176.309 230.307
L176.458 223.593
L176.904 170.395
L177.127 162.422
L177.202 163.261
L177.276 167.063
L177.499 194.39
L177.648 188.169
L177.722 188.268
L177.871 196.488
L178.094 172.74
L178.243 154.275
L178.318 156.25
L178.913 225.148
L178.987 225.568
L179.21 220.285
L179.359 208.461
L179.657 180.689
L179.806 171.531
L179.954 180.171
L180.029 180.121
L180.103 178.986
L180.178 179.233
L180.326 181.38
L180.401 179.85
L180.475 179.973
L180.698 190.144
L180.847 180.936
L180.922 182.664
L181.219 217.446
L181.517 190.292
L181.666 167.433
L181.74 168.223
L181.889 175.505
L182.484 243.49
L182.558 239.441
L182.782 164.841
L182.93 134.872
L183.005 134.453
L183.228 164.964
L183.6 227.098
L183.749 215.15
L184.121 177.529
L184.493 195.328
L184.642 188.761
L184.865 174.049
L184.939 176.27
L185.088 191.353
L185.386 231.937
L185.46 229.246
L185.906 161.805
L186.055 162.298
L186.13 163.014
L186.353 170.494
L186.874 193.378
L186.948 193.6
L187.022 191.131
L187.097 192.81
L187.32 208.288
L187.394 206.659
L187.692 189.848
L187.766 189.527
L187.841 190.909
L187.99 183.701
L188.287 194.39
L188.734 236.824
L188.808 233.813
L189.329 171.235
L189.403 171.704
L189.478 170.247
L189.626 164.693
L189.701 167.359
L189.775 167.31
L189.85 166.051
L190.147 196.908
L190.445 231.468
L191.04 144.179
L191.114 142.648
L191.189 144.969
L191.933 225.889
L192.23 201.475
L192.379 204.412
L192.677 188.465
L192.826 195.822
L192.9 193.007
L193.049 183.8
L193.123 184.318
L193.272 200.956
L193.495 232.727
L193.57 229.789
L194.165 123.122
L194.239 127.664
L194.537 167.704
L194.686 157.904
L194.76 163.236
L194.983 192.39
L195.132 207.918
L195.355 262.843
L195.43 260.918
L195.653 228.703
L195.727 233.492
L195.876 255.931
L195.95 245.637
L196.248 163.064
L196.546 219.15
L197.215 121.468
L197.364 147.61
L197.513 171.136
L197.662 145.956
L197.81 126.307
L198.108 182.491
L198.257 207.695
L198.48 266.694
L198.554 262.152
L198.778 196.982
L198.852 200.956
L199.001 231.196
L199.075 222.803
L199.298 161.508
L199.373 163.705
L199.596 201.623
L199.67 199.771
L199.819 189.996
L199.894 190.736
L200.042 201.524
L200.117 199.969
L200.266 185.355
L200.34 193.624
L200.638 283.851
L201.01 205.177
L201.084 201.055
L201.382 129.219
L201.456 136.452
L201.605 152.177
L201.902 114.359
L201.977 119.962
L202.274 172.222
L202.423 158.546
L202.646 221.618
L202.721 220.507
L202.944 188.885
L203.093 210.065
L203.242 242.798
L203.316 237.269
L203.539 178.838
L203.762 216.311
L203.986 171.531
L204.06 172.814
L204.134 178.517
L204.358 222.235
L204.432 218.335
L204.581 186.638
L204.804 215.15
L204.878 211.25
L205.027 194.612
L205.102 196.118
L205.176 200.388
L205.399 257.067
L205.474 253.166
L205.697 203.449
L205.846 208.461
L206.292 153.288
L206.366 155.115
L206.515 162.57
L206.738 115.321
L206.887 143.241
L206.962 138.723
L207.11 121.838
L207.408 181.257
L207.631 239.54
L207.78 225.864
L207.929 258.005
L208.003 256.277
L208.152 238.355
L208.301 248.377
L208.524 224.482
L208.598 233.22
L208.673 224.013
L208.896 171.111
L208.97 185.33
L209.045 184.91
L209.268 140.131
L209.491 158.966
L209.64 172.839
L209.714 172.024
L209.863 137.637
L209.938 142.723
L210.086 179.183
L210.161 176.32
L210.235 169.902
L210.31 176.172
L210.533 212.707
L210.607 215.965
L210.756 236.331
L210.905 202.018
L210.979 204.338
L211.202 257.24
L211.426 232.776
L211.5 235.269
L211.723 208.683
L211.798 212.929
L212.095 148.869
L212.17 151.906
L212.244 149.955
L212.393 122.382
L212.467 124.282
L212.616 149.116
L212.69 146.179
L212.765 144.327
L212.914 164.446
L212.988 163.064
L213.062 162.545
L213.137 168.865
L213.509 228.555
L213.732 249.266
L213.806 241.219
L213.881 243.712
L213.955 241.811
L214.178 208.683
L214.253 207.029
L214.327 208.856
L214.402 203.523
L214.625 176.838
L214.699 178.714
L214.774 176.295
L214.848 166.52
L214.922 169.951
L215.071 184.466
L215.294 166.618
L215.443 185.774
L215.518 181.775
L215.592 176.665
L215.741 189.872
L215.89 203.128
L215.964 207.152
L216.038 219.298
L216.113 214.459
L216.336 179.183
L216.41 178.986
L216.485 181.998
L216.559 181.652
L216.782 167.137
L216.931 176.344
L217.006 171.506
L217.154 180.541
L217.378 157.016
L217.452 161.582
L217.675 189.354
L217.75 185.182
L217.824 189.946
L218.196 264.695
L218.419 241.416
L218.494 242.798
L218.568 247.094
L218.642 246.403
L219.014 182.837
L219.089 183.923
L219.163 187.083
L219.238 181.331
L219.461 127.319
L219.535 132.256
L219.907 186.935
L219.982 184.614
L220.205 220.655
L220.279 219.89
L220.8 121.271
L220.874 123.715
L221.023 133.046
L221.098 133.564
L221.246 149.116
L221.544 208.757
L221.618 208.732
L221.693 212.188
L221.842 238.281
L222.288 341.393
L222.362 338.209
L222.586 246.921
L222.883 128.553
L223.106 108.212
L223.255 112.902
L223.478 126.627
L223.553 125.196
L223.627 119.715
L223.702 121.518
L224.148 203.005
L224.222 203.227
L224.297 201.376
L224.52 189.823
L224.818 210.88
L225.115 284.073
L225.19 283.382
L225.859 141.439
L226.38 167.828
L226.529 164.199
L226.603 161.632
L226.678 162.422
L226.752 166.52
L226.901 159.459
L227.05 189.008
L227.273 218.31
L227.868 189.65
L227.942 192.563
L228.24 228.777
L228.463 208.214
L228.612 192.217
L228.686 192.563
L228.761 194.711
L228.984 159.04
L229.133 177.998
L229.207 186.268
L229.356 166.174
L229.579 142.007
L229.728 159.41
L230.323 256.03
L230.546 234.578
L230.695 216.163
L230.993 162.915
L231.067 165.31
L231.29 182.862
L231.439 183.824
L231.588 178.147
L231.737 171.407
L231.811 172.74
L231.886 171.679
L232.034 153.56
L232.109 158.126
L232.406 213.25
L232.481 213.299
L232.927 197.821
L233.15 201.919
L233.225 202.141
L233.448 205.992
L233.671 180.985
L233.969 161.582
L234.118 168.099
L234.341 187.996
L234.49 186.021
L234.638 193.23
L234.713 190.934
L234.787 191.279
L234.936 204.215
L235.308 244.28
L235.68 196.216
L235.978 136.847
L236.052 132.922
L236.201 149.116
L236.498 196.76
L236.647 200.265
L236.87 168.396
L237.019 147.758
L237.094 148.203
L237.242 174.123
L237.54 238.799
L237.614 242.305
L237.689 242.231
L237.912 210.608
L238.061 199.179
L238.135 202.116
L238.433 239.268
L238.805 188.811
L239.102 125.171
L239.177 131.614
L239.4 170.025
L239.549 171.086
L239.698 184.367
L239.846 198.537
L239.921 196.315
L240.144 176.814
L240.442 212.83
L240.516 204.585
L240.739 187.354
L240.814 181.923
L241.111 123.961
L241.186 131.244
L241.706 257.042
L241.781 258.227
L241.93 247.044
L242.153 228.11
L242.227 228.357
L242.45 248.18
L242.599 216.385
L242.971 126.381
L243.12 120.826
L243.194 119.938
L243.343 113.692
L243.566 117.173
L243.715 134.28
L244.534 332.827
L244.608 325.347
L244.831 232.406
L245.203 79.5271
L245.278 74.7134
L245.352 78.4163
L245.575 119.765
L245.947 187.651
L246.022 188.292
L246.17 180.887
L246.245 182.195
L246.468 203.128
L246.617 214.286
L246.914 205.005
L247.212 178.986
L247.361 195.501
L247.733 273.582
L247.807 271.508
L247.956 254.87
L248.254 209.275
L248.328 209.818
L248.551 217.742
L248.774 183.503
L249.146 99.4979
L249.37 65.9253
L249.518 92.2403
L250.114 226.407
L250.188 229.123
L250.337 252.549
L250.56 281.53
L250.634 278.84
L250.783 249.044
L251.155 180.936
L251.378 155.707
L251.527 168.297
L251.676 174.641
L251.974 149.042
L252.048 149.24
L252.122 148.919
L252.197 149.733
L252.271 156.374
L252.643 231.764
L252.718 232.529
L252.941 213.916
L253.015 214.904
L253.238 220.285
L253.313 220.729
L253.462 217.668
L253.536 217.742
L253.685 231.517
L253.759 230.9
L253.908 208.041
L254.206 165.211
L254.429 141.291
L254.652 121.863
L254.801 136.847
L255.247 201.82
L255.396 206.14
L255.47 204.832
L255.694 207.967
L255.991 217.644
L256.066 218.063
L256.14 219.594
L256.214 218.927
L256.735 185.379
L257.107 172.79
L257.256 182.541
L257.405 195.822
L257.554 192.958
L257.628 194.094
L257.777 198.117
L258.298 167.803
L258.372 169.21
L258.967 214.262
L259.042 212.361
L259.488 185.7
L259.562 186.564
L259.637 186.219
L259.786 181.849
L259.86 183.256
L260.009 195.698
L260.083 194.809
L260.381 181.158
L260.455 180.171
L260.604 173.604
L260.902 215.891
L260.976 214.089
L261.05 213.348
L261.125 211.201
L261.422 192.612
L261.497 191.205
L261.794 165.754
L262.166 194.513
L262.315 212.509
L262.464 197.525
L262.687 181.899
L262.91 175.357
L263.134 180.146
L263.431 189.922
L263.58 195.896
L263.952 212.978
L264.175 217.224
L264.77 190.983
L264.994 185.207
L265.142 183.059
L265.366 189.206
L265.514 179.973
L265.738 162.397
L265.886 164.52
L265.961 166.495
L266.035 166.347
L266.11 166.297
L266.184 166.446
L266.333 178.295
L266.556 197.08
L266.63 196.118
L266.705 196.34
L266.928 212.188
L267.002 210.707
L267.077 209.399
L267.226 217.101
L267.374 225.568
L267.523 214.286
L267.97 178.196
L268.267 187.502
L268.342 186.663
L268.639 181.109
L268.714 180.171
L268.788 180.27
L269.011 185.207
L269.086 184.565
L269.234 177.974
L269.309 178.369
L269.383 177.505
L269.458 181.306
L269.755 212.163
L269.978 224.753
L270.053 222.926
L270.35 205.992
L270.499 211.546
L270.574 208.041
L270.946 157.386
L271.094 150.104
L271.169 153.066
L271.392 174.74
L271.615 159.879
L271.69 162.915
L272.136 214.533
L272.285 229.962
L272.508 220.606
L272.731 203.77
L272.954 186.564
L273.103 188.91
L273.178 188.786
L273.624 169.062
L273.698 167.31
L273.847 173.95
L274.219 206.14
L274.517 184.639
L274.591 185.305
L274.814 206.387
L275.261 264.769
L275.335 263.781
L275.707 228.357
L275.856 196.241
L276.228 96.5849
L276.377 86.2169
L276.451 89.0311
L276.972 163.952
L277.195 191.502
L277.344 205.251
L277.567 224.235
L277.642 225.617
L278.162 250.624
L278.311 240.577
L278.609 218.113
L278.758 220.655
L278.906 200.857
L279.204 160.718
L279.353 158.003
L279.502 152.473
L279.576 152.893
L279.725 163.508
L279.948 178.887
L280.022 177.875
L280.097 178.665
L280.543 207.374
L280.766 217.446
L280.841 215.422
L281.287 178.147
L281.51 172.691
L281.585 173.135
L281.659 173.086
L281.808 157.262
L281.957 132.058
L282.031 135.416
L282.329 172.79
L282.478 188.613
L282.626 202.758
L282.701 199.919
L282.775 200.018
L282.998 243.292
L283.222 265.559
L283.296 264.3
L283.445 246.97
L283.594 224.901
L283.742 230.431
L283.966 181.504
L284.04 189.304
L284.189 220.631
L284.338 195.575
L284.71 135.86
L284.784 135.514
L284.858 139.489
L284.933 136.428
L285.082 113.347
L285.23 146.894
L285.305 162.891
L285.379 160.792
L285.528 148.622
L285.751 167.902
L285.826 168.223
L285.974 196.71
L286.123 222.556
L286.272 210.139
L286.495 272.471
L286.644 235.393
L286.718 237.121
L286.793 242.107
L287.016 204.585
L287.165 235.566
L287.239 224.901
L287.462 170.494
L287.611 198.883
L288.132 147.067
L288.355 194.908
L288.578 129.787
L288.876 207.325
L288.95 207.745
L289.174 234.553
L289.322 224.704
L289.471 255.734
L289.546 253.611
L289.769 166.051
L289.843 175.357
L289.992 202.882
L290.215 164.224
L290.29 163.557
L290.513 129.17
L290.736 176.443
L290.959 119.074
L291.034 135.662
L291.257 188.391
L291.406 203.943
L291.554 213.817
L291.629 206.683
L291.703 207.843
L291.926 274.964
L292.001 271.804
L292.15 225.099
L292.224 226.259
L292.373 266.126
L292.447 263.164
L292.968 154.424
L293.117 172.049
L293.266 147.092
L293.414 114.383
L293.712 167.087
L293.786 164.668
L293.935 153.609
L294.084 128.306
L294.158 130.627
L294.456 208.387
L294.53 199.203
L294.679 176.888
L294.828 205.671
L294.977 234.899
L295.051 234.726
L295.349 195.081
L295.423 197.648
L295.721 258.943
L296.018 193.995
L296.093 206.19
L296.242 230.702
L296.688 161.138
L296.986 215.595
L297.06 211.694
L297.283 148.252
L297.506 204.758
L297.581 190.687
L297.804 130.923
L297.953 118.555
L298.027 130.355
L298.25 213.126
L298.325 212.114
L298.548 182.837
L298.771 204.141
L298.846 203.573
L298.92 200.857
L299.218 147.981
L299.664 272.15
L299.738 274.273
L299.962 236.035
L300.185 264.793
L300.706 91.5984
L300.929 125.714
L301.078 94.5607
L301.152 80.1443
L301.226 89.4261
L301.97 310.684
L302.045 312.536
L302.194 287.48
L302.566 194.908
L302.789 142.204
L303.086 102.386
L303.384 149.042
L303.458 148.005
L303.607 175.456
L303.756 193.97
L303.83 188.416
L303.905 189.453
L304.128 232.406
L304.202 227.345
L304.277 220.483
L304.351 225.79
L304.5 253.759
L304.574 247.118
L304.798 193.575
L304.872 189.304
L305.021 154.67
L305.17 115.173
L305.467 128.627
L305.616 174.049
L305.839 243.391
L305.988 238.898
L306.137 252.994
L306.211 245.785
L306.434 190.391
L306.509 191.477
L306.583 197.574
L306.732 189.082
L306.806 195.994
L307.03 247.662
L307.104 240.379
L307.327 208.115
L307.402 207.843
L307.625 187.675
L307.699 188.86
L307.774 189.675
L307.848 182.121
L308.071 137.588
L308.22 147.832
L308.369 126.232
L308.592 104.534
L308.666 102.658
L308.815 95.1285
L308.964 110.705
L309.187 162.274
L309.782 336.234
L309.857 341.813
L309.931 339.69
L310.154 288.813
L310.675 145.315
L310.898 156.867
L311.122 146.549
L311.27 157.781
L311.345 154.399
L311.866 95.0051
L311.94 98.9301
L312.982 280.197
L313.056 276.84
L313.13 277.334
L313.354 300.686
L313.428 295.009
L314.321 114.136
L314.395 116.679
L314.693 140.131
L314.767 138.205
L314.99 121.542
L315.065 122.332
L315.511 179.381
L316.106 267.904
L316.553 252.302
L316.85 221.816
L317.52 131.466
L317.594 128.232
L318.338 214.459
L318.413 213.941
L318.785 193.55
L319.008 170.42
L319.082 168.643
L319.306 157.386
L319.529 167.951
L319.826 158.225
L319.975 163.459
L320.422 203.449
L320.794 243.613
L320.868 244.452
L320.942 244.206
L321.24 240.478
L321.314 237.812
L321.761 204.585
L321.91 201.055
L322.654 151.93
L322.877 146.351
L322.951 143.266
L323.026 145.586
L323.323 177.85
L323.398 176.542
L323.472 177.727
L323.695 197.401
L324.067 230.628
L324.142 230.702
L324.216 226.531
L324.588 172.963
L324.662 172.099
L324.737 174.592
L325.034 205.276
L325.109 204.536
L325.258 201.697
L325.406 207.523
L325.481 205.572
L325.704 181.849
L325.853 190.168
L326.002 196.068
L326.15 191.353
L326.225 188.292
L326.299 188.811
L326.374 190.07
L326.448 190.045
L326.522 189.996
L326.671 185.503
L326.894 175.036
L327.341 204.264
L327.49 212.04
L327.787 187.009
L327.862 188.416
L327.936 188.712
L328.085 180.887
L328.159 181.331
L328.457 219.446
L328.829 166.791
L328.978 167.606
L329.35 180.047
L329.573 186.712
L329.647 188.095
L329.796 203.918
L329.945 217.298
L330.168 209.3
L330.391 238.256
L330.466 234.973
L330.763 172.839
L330.838 174.962
L330.986 191.971
L331.061 190.958
L331.284 172.444
L331.358 174.123
L331.582 183.948
L331.656 183.824
L331.73 184.392
L331.879 178.319
L332.028 168.791
L332.102 169.383
L332.4 191.724
L332.623 174.542
L332.698 174.789
L332.921 194.019
L332.995 193.23
L333.144 187.28
L333.293 200.388
L333.516 217.076
L333.665 203.721
L333.888 185.256
L333.962 186.614
L334.186 215.99
L334.334 234.208
L334.409 233.591
L334.93 212.781
L335.153 176.369
L335.45 126.381
L335.525 122.826
L335.599 123.443
L335.748 126.677
L335.971 140.674
L336.343 189.502
L336.566 221.84
L336.864 262.596
L336.938 262.522
L337.162 254.277
L337.31 239.663
L337.682 187.799
L337.906 175.011
L338.054 179.282
L338.129 178.443
L338.575 150.77
L338.65 150.77
L338.798 156.003
L338.873 154.3
L338.947 151.437
L339.022 156.324
L339.394 209.868
L339.468 208.88
L339.542 209.473
L339.691 215.545
L339.766 214.163
L339.84 215.299
L339.989 221.075
L340.361 207.004
L340.51 192.464
L340.733 176.591
L340.807 174.863
L340.956 164.298
L341.03 166.865
L341.254 194.883
L341.402 163.459
L341.477 164.52
L341.626 211.768
L341.7 210.534
L341.849 188.44
L341.998 205.005
L342.221 173.012
L342.37 222.852
L342.593 146.327
L342.742 213.472
L342.816 208.016
L342.965 177.628
L343.114 227.148
L343.262 170.469
L343.337 178.591
L343.486 257.017
L343.709 181.603
L343.858 221.223
L344.081 156.176
L344.23 212.188
L344.453 136.847
L344.602 200.487
L344.75 161.977
L344.825 168.988
L344.974 233.961
L345.122 196.068
L345.197 197.624
L345.346 232.06
L345.569 177.752
L345.643 189.181
L345.718 199.278
L345.792 184.96
L345.941 122.505
L346.164 177.974
L346.313 167.927
L346.536 226.284
L346.61 222.704
L346.759 196.216
L346.908 241.614
L347.131 182.121
L347.28 216.483
L347.429 179.406
L347.503 186.342
L347.652 212.41
L347.875 165.162
L348.024 200.24
L348.173 138.723
L348.247 141.982
L348.396 200.857
L348.545 165.532
L348.619 173.703
L348.768 221.816
L348.991 189.922
L349.14 228.308
L349.214 221.075
L349.363 176.863
L349.512 206.51
L349.661 157.781
L349.735 164.989
L349.884 213.743
L350.033 195.92
L350.107 196.513
L350.256 232.085
L350.33 221.05
L350.479 156.744
L350.628 182.664
L350.777 138.773
L350.851 145.092
L351 193.822
L351.149 173.037
L351.223 174.789
L351.372 218.162
L351.446 208.707
L351.595 174.765
L351.744 226.111
L351.893 194.735
L352.042 227.024
L352.116 219.544
L352.339 168.939
L352.488 203.844
L352.562 191.181
L352.637 163.681
L352.786 219.865
L352.86 217.742
L353.009 159.78
L353.083 163.212
L353.232 192.884
L353.381 180.195
L353.53 236.232
L353.604 232.554
L353.753 172.691
L353.902 212.484
L353.976 202.264
L354.125 170
L354.348 211.299
L354.497 171.555
L354.646 190.86
L354.869 147.561
L355.018 184.515
L355.166 143.784
L355.241 151.758
L355.39 210.386
L355.464 210.139
L355.538 189.774
L355.613 190.02
L355.762 254.03
L355.91 206.807
L356.059 241.342
L356.134 230.604
L356.282 184.59
L356.431 218.606
L356.506 212.682
L356.654 173.703
L356.803 204.536
L356.952 148.869
L357.026 152.498
L357.25 190.539
L357.324 181.701
L357.398 183.306
L357.547 206.634
L357.696 168.346
L357.845 196.71
L358.068 141.587
L358.142 157.312
L358.217 164.248
L358.366 140.6
L358.514 181.923
L358.663 207.72
L358.738 207.202
L358.886 250.772
L358.961 247.02
L359.11 210.904
L359.258 259.363
L359.333 252.451
L359.482 215.027
L359.63 230.949
L359.928 169.26
L360.077 124.653
L360.151 127.738
L360.374 178.122
L360.449 168.149
L360.523 169.704
L360.746 223.766
L360.895 216.163
L360.97 221.001
L361.193 161.854
L361.267 162.965
L361.49 185.478
L361.565 178.788
L361.714 207.967
L361.788 207.794
L361.862 198.265
L361.937 198.784
L362.011 198.488
L362.16 174.913
L362.309 162.619
L362.383 164.372
L362.606 181.134
L362.681 178.517
L362.755 178.739
L363.127 214.41
L363.202 213.151
L363.276 215.323
L363.425 208.312
L363.499 210.88
L363.722 241.49
L363.871 233.714
L363.946 234.43
L364.169 200.438
L364.466 158.842
L364.541 149.758
L364.615 152.473
L364.764 160.916
L364.838 159.484
L364.987 139.316
L365.136 153.14
L365.21 154.029
L365.508 194.834
L365.582 192.489
L365.806 181.726
L366.178 215.817
L366.326 234.702
L366.55 217.027
L366.847 172.395
L367.368 225.247
L367.889 166.594
L367.963 168.717
L368.186 198.167
L368.335 221.445
L368.558 177.727
L368.707 156.744
L369.302 223.618
L369.6 177.48
L369.674 179.875
L369.749 178.936
L369.823 175.11
L369.972 186.392
L370.195 223.79
L370.493 177.974
L370.567 181.701
L370.642 183.281
L370.865 166.273
L370.939 167.779
L371.088 182.096
L371.237 177.505
L371.311 182.022
L371.534 212.213
L371.609 212.163
L371.683 210.781
L371.758 202.116
L371.906 228.135
L371.981 226.432
L372.204 155.436
L372.278 166.766
L372.427 182.368
L372.65 189.971
L372.874 201.549
L373.022 178.714
L373.097 166.223
L373.394 203.869
L373.543 197.179
L373.766 219.026
L373.915 159.756
L373.99 166.421
L374.064 180.121
L374.213 166.1
L374.659 227.296
L374.808 189.354
L374.882 192.464
L375.031 231.961
L375.254 202.166
L375.403 181.677
L375.478 195.896
L375.552 182.294
L375.701 130.404
L375.85 136.354
L375.924 136.428
L376.37 205.869
L376.519 167.532
L376.594 172.321
L376.817 205.548
L377.189 242.181
L377.263 238.725
L377.412 218.755
L377.561 233.393
L377.784 208.461
L377.933 229.666
L378.007 227.246
L378.082 220.26
L378.528 136.749
L378.602 135.811
L378.9 164.52
L378.974 154.374
L379.123 116.334
L379.346 161.064
L379.495 173.802
L379.793 234.257
L379.942 214.484
L380.09 240.626
L380.165 239.688
L380.239 238.33
L380.462 253.611
L380.611 210.435
L380.76 159.928
L380.983 175.431
L381.058 171.679
L381.132 171.309
L381.206 171.704
L381.281 174.394
L381.355 181.282
L381.43 174.394
L381.578 145.438
L381.802 180.566
L381.876 170.247
L381.95 176.591
L382.174 241.144
L382.248 234.677
L382.397 172.814
L382.471 176.567
L382.546 182.936
L382.62 180.146
L382.769 173.481
L383.066 231.566
L383.215 193.427
L383.364 217.273
L383.438 217.15
L383.513 213.916
L383.587 214.509
L383.736 223.198
L383.81 214.607
L384.034 136.946
L384.108 143.043
L384.257 155.164
L384.331 151.807
L384.48 170.593
L384.629 203.869
L384.852 157.954
L385.001 169.753
L385.075 171.901
L385.298 236.232
L385.447 256.82
L385.67 197.87
L385.894 222.038
L386.266 190.786
L386.414 132.206
L386.638 179.331
L386.786 161.484
L386.861 165.384
L387.01 202.314
L387.084 201.795
L387.233 152.967
L387.456 184.515
L387.53 178.566
L387.605 174.542
L387.754 198.957
L387.828 210.559
L388.051 156.003
L388.126 170.346
L388.646 272.298
L388.87 206.436
L388.944 217.224
L389.093 243.49
L389.167 243.095
L389.242 241.614
L389.316 243.193
L389.39 239.145
L389.539 183.923
L389.688 146.376
L389.762 148.45
L389.911 126.948
L389.986 129.442
L390.209 165.112
L390.283 164.569
L390.506 116.259
L390.581 116.58
L390.655 123.418
L391.027 242.453
L391.102 233.097
L391.176 219.544
L391.25 222.285
L391.325 232.356
L391.399 231.986
L391.548 225.642
L391.771 242.478
L392.366 169.753
L392.59 194.538
L392.813 139.044
L392.887 153.091
L393.036 177.06
L393.11 177.653
L393.334 209.547
L393.408 206.807
L393.631 138.575
L393.854 189.502
L393.929 196.192
L394.152 268.175
L394.226 266.003
L394.45 205.424
L394.524 211.077
L394.598 205.646
L394.673 190.539
L394.747 190.687
L394.97 230.505
L395.194 127.195
L395.268 133.564
L395.342 149.314
L395.417 145.24
L395.491 127.343
L395.566 129.763
L395.789 189.23
L396.012 130.651
L396.161 184.318
L396.235 182.886
L396.31 178.788
L396.607 250.525
L396.756 176.863
L396.83 177.134
L396.979 210.682
L397.128 195.994
L397.351 280.839
L397.426 280.494
L397.574 226.062
L397.649 226.629
L397.723 230.653
L397.946 192.069
L398.095 207.72
L398.17 204.313
L398.467 100.954
L398.542 107.768
L398.616 108.804
L398.69 112.236
L398.988 188.885
L399.062 178.936
L399.137 160.891
L399.211 169.704
L399.509 237.688
L399.658 276.766
L399.806 317.152
L400.253 163.138
L400.402 140.18
L400.55 142.92
L400.774 61.9015
L400.848 80.4652
L401.369 264.966
L401.443 260.572
L401.592 216.632
L401.741 250.574
L401.815 247.884
L401.964 235.245
L402.187 259.017
L402.634 122.727
L402.708 110.335
L402.782 115.988
L403.006 175.332
L403.08 162.619
L403.154 133.465
L403.229 136.107
L403.526 211.102
L403.824 276.963
L404.047 212.262
L404.196 246.625
L404.345 238.947
L404.568 256.746
L404.642 235.911
L404.866 112.112
L405.014 122.678
L405.163 113.347
L405.238 122.209
L405.461 202.018
L405.61 157.88
L405.684 163.409
L405.833 191.674
L405.982 184.688
L406.056 186.688
L406.205 222.729
L406.279 219.594
L406.428 158.768
L406.502 163.187
L406.726 211.448
L406.874 199.549
L407.098 247.612
L407.321 149.091
L407.47 181.356
L407.618 168.198
L407.767 205.77
L407.916 245.07
L408.139 154.226
L408.214 170.395
L408.288 184.491
L408.362 182.096
L408.437 180.689
L408.586 222.285
L408.734 265.213
L408.809 264.793
L408.958 222.926
L409.032 224.975
L409.106 231.147
L409.33 216.78
L409.553 196.118
L409.85 105.447
L409.999 108.755
L410.222 143.735
L410.446 192.119
L410.52 183.503
L410.669 139.415
L410.818 175.258
L410.966 193.871
L411.041 195.55
L411.19 212.904
L411.264 220.557
L411.338 217.273
L411.413 203.449
L411.562 142.772
L411.785 186.145
L412.008 245.341
L412.231 312.708
L412.454 219.372
L412.529 236.701
L412.603 246.156
L413.124 179.48
L413.273 103.003
L413.347 109.891
L413.422 129.417
L413.496 126.455
L413.645 116.803
L413.719 118.95
L413.942 174.296
L414.017 168.791
L414.166 145.981
L414.761 284.468
L414.91 293.824
L415.133 193.155
L415.207 199.006
L415.282 196.957
L415.505 159.608
L415.579 161.163
L415.802 182.269
L416.026 106.657
L416.1 135.564
L416.249 173.111
L416.323 173.752
L416.398 175.555
L416.472 175.332
L416.695 262.67
L416.918 155.855
L417.142 191.674
L417.216 186.219
L417.29 190.835
L417.588 244.526
L417.737 191.798
L417.886 152.399
L418.034 175.456
L418.109 172.765
L418.406 219.939
L418.555 250.599
L418.778 162.718
L418.853 164.989
L419.076 211.694
L419.299 187.626
L419.448 227.049
L419.522 215.817
L419.746 101.744
L419.969 181.578
L420.118 169.136
L420.266 210.189
L420.415 245.563
L420.564 209.547
L420.638 191.032
L420.713 192.884
L420.862 234.479
L421.159 198.191
L421.234 198.66
L421.308 202.783
L421.382 195.303
L421.606 150.943
L421.754 164.989
L421.978 182.368
L422.126 154.029
L422.201 158.003
L422.35 176.986
L422.498 165.483
L422.573 166.643
L422.796 178.097
L422.945 192.44
L423.168 198.685
L423.466 231.295
L423.54 233.344
L423.689 241.095
L424.21 191.551
L424.358 206.733
L424.433 201.573
L424.507 190.712
L424.582 192.662
L424.73 202.882
L425.326 139.464
L425.4 142.698
L425.772 175.16
L425.995 188.687
L426.144 207.843
L426.293 195.352
L426.442 202.659
L426.59 188.49
L426.665 189.823
L426.739 189.996
L426.888 202.437
L427.037 179.085
L427.26 203.894
L427.334 202.882
L427.558 225.198
L427.632 223.716
L427.706 225.025
L427.781 223.667
L428.153 170.815
L428.227 166.322
L428.302 167.779
L428.45 164.495
L428.599 187.107
L428.674 185.848
L428.748 185.157
L428.822 185.626
L428.897 185.059
L428.971 186.416
L429.046 186.194
L429.194 176.295
L429.269 177.826
L429.566 200.314
L429.641 204.733
L429.715 200.833
L429.79 187.971
L429.864 192.983
L430.013 207.942
L430.087 204.387
L430.236 210.51
L430.31 208.707
L430.459 204.634
L430.534 205.72
L430.682 191.773
L430.906 168.963
L430.98 165.754
L431.054 170.741
L431.203 194.266
L431.501 175.135
L431.65 178.566
L431.724 178.813
L432.022 192.835
L432.096 194.612
L432.319 239.491
L432.394 237.516
L432.766 201.968
L432.84 203.573
L432.914 208.856
L432.989 202.24
L433.212 156.695
L433.286 153.658
L433.361 155.88
L433.435 163.459
L433.51 159.459
L433.658 142.031
L433.733 140.995
L433.807 138.156
L433.882 138.822
L434.179 170.988
L434.849 255.388
L434.998 249.34
L435.072 243.416
L435.146 244.107
L435.221 248.476
L435.295 244.872
L435.444 219.767
L435.593 187.651
L435.742 192.217
L435.89 182.368
L436.262 107.274
L436.337 108.088
L436.858 203.351
L437.006 235.64
L437.304 205.424
L437.453 194.39
L437.602 206.708
L437.676 205.572
L437.75 205.967
L438.048 222.852
L438.197 233.961
L438.42 198.784
L438.718 157.682
L439.015 170.42
L439.09 172.494
L439.313 195.945
L439.387 193.921
L439.536 186.046
L439.685 189.823
L439.759 188.613
L439.908 203.005
L440.057 217.644
L440.28 209.794
L440.429 227.493
L440.503 236.602
L440.578 230.727
L441.024 121.567
L441.098 114.877
L441.173 115.642
L441.396 147.363
L441.619 225.049
L441.842 281.432
L441.991 288.245
L442.066 286.196
L442.214 257.264
L442.661 155.88
L442.884 136.798
L442.958 136.403
L443.033 132.429
L443.256 105.719
L443.405 104.781
L443.479 107.792
L443.628 139.291
L444.074 248.032
L444.223 257.635
L444.818 206.584
L444.967 206.017
L445.116 201.203
L445.339 184.417
L445.711 205.079
L446.009 256.425
L446.083 256.696
L446.232 265.534
L447.274 62.099
L447.72 162.743
L448.092 255.314
L448.166 251.809
L448.241 252.5
L448.315 256.622
L448.39 255.141
L448.613 233.665
L448.687 238.009
L448.762 237.516
L448.91 229.789
L449.059 230.727
L449.282 247.143
L449.803 168.001
L449.878 167.754
L449.878 167.754" style="fill:none;stroke:#808080;stroke-linecap:square;"/>
   </g>
  </g>
 </g>
 <defs>
  <clipPath id="p7ff5b81e1d">
   <rect height="345.6" width="446.4" x="72.0" y="43.2"/>
  </clipPath>
 </defs>
</svg>
