<?xml version="1.0" encoding="utf-8" standalone="no"?>
<!DOCTYPE svg PUBLIC "-//W3C//DTD SVG 1.1//EN"
  "http://www.w3.org/Graphics/SVG/1.1/DTD/svg11.dtd">
<!-- Created with matplotlib (http://matplotlib.org/) -->
<svg height="432pt" version="1.1" viewBox="0 0 576 432" width="576pt" xmlns="http://www.w3.org/2000/svg" xmlns:xlink="http://www.w3.org/1999/xlink">
 <defs>
  <style type="text/css">
*{stroke-linecap:butt;stroke-linejoin:round;}
  </style>
 </defs>
 <g id="figure_1">
  <g id="patch_1">
   <path d="
M0 432
L576 432
L576 0
L0 0
z
" style="fill:#ffffff;"/>
  </g>
  <g id="axes_1">
   <g id="line2d_1">
    <path clip-path="url(#p7ff5b81e1d)" d="
M72 239.764
L72.1488 236.049
L72.5208 218.035
L72.6696 216.108
L72.744 216.618
L72.8184 216.125
L73.0416 211.244
L73.1904 209.93
L73.2648 210.466
L73.3392 212.488
L73.4136 212.28
L73.5624 205.351
L73.7112 198.543
L73.86 209.766
L74.0832 224.869
L74.1576 227.21
L74.232 226.467
L74.3064 225.43
L74.5296 230.571
L74.604 230.148
L74.6784 229.059
L74.7528 229.12
L74.8272 229.146
L75.2736 213.706
L75.4968 206.077
L75.5712 202.681
L75.6456 203.053
L76.1664 233.405
L76.3152 225.983
L76.464 210.008
L76.7616 171.128
L76.9848 177.772
L77.6544 234.494
L77.952 237.354
L78.2496 250.607
L78.3984 242.892
L78.6216 221.862
L79.068 236.801
L79.1424 237.276
L79.2912 223.262
L79.6632 180.347
L79.812 176.277
L79.8864 172.199
L79.9608 172.407
L80.1096 177.625
L80.3328 167.577
L80.4072 168.908
L80.6304 195.156
L81.1512 264.768
L81.4488 242.667
L81.5232 244.093
L81.672 239.047
L81.7464 239.92
L81.9696 254.677
L82.044 251.713
L82.416 221.836
L82.788 196.374
L82.8624 199.934
L82.9368 202.776
L83.0112 202.578
L83.3088 185.263
L83.3832 186.81
L83.532 193.67
L83.7552 189.747
L83.904 202.241
L84.0528 211.857
L84.276 205.818
L84.3504 207.52
L84.4248 207.399
L84.4992 207.079
L84.648 218.89
L84.9456 253.208
L85.02 250.772
L85.392 227.4
L85.5408 222.389
L85.764 224.739
L86.0616 210.855
L86.136 211.002
L86.2848 214.389
L86.3592 214.103
L86.508 207.693
L86.5824 208.021
L86.8056 216.661
L86.88 215.106
L87.1776 190.845
L87.4008 201.956
L87.6984 241.656
L87.7728 240.827
L87.996 215.624
L88.2936 189.929
L88.368 190.015
L88.5168 208.686
L88.8144 249.078
L89.0376 236.507
L89.484 211.814
L89.5584 210.285
L89.7072 224.359
L89.856 234.217
L90.0048 218.277
L90.3768 167.534
L90.4512 170.584
L90.6 194.94
L90.972 276.355
L91.1952 224.333
L91.5672 132.499
L91.716 171.223
L92.0136 260.034
L92.3112 230.105
L92.46 236.922
L92.7576 265.062
L92.9064 280.562
L92.9808 277.175
L93.1296 248.171
L93.5016 159.49
L93.7992 138.65
L93.8736 140.542
L94.5432 235.427
L94.692 264.561
L95.064 274.385
L95.1384 274.877
L95.2872 265.356
L95.5104 245.207
L95.5848 244.87
L95.808 228.843
L95.9568 217.404
L96.0312 217.767
L96.1056 215.676
L96.2544 194.447
L96.4776 148.267
L96.552 155.084
L96.8496 226.372
L97.0728 188.365
L97.1472 192.184
L97.3704 248.24
L97.4448 243.652
L97.8912 118.018
L97.9656 118.096
L98.1144 161.417
L98.4864 320.954
L98.5608 308.288
L98.9328 179.526
L99.0072 188.201
L99.3048 307.104
L99.4536 260.924
L99.6768 179.483
L99.8256 205.144
L100.346 279.603
L100.421 271.292
L100.644 179.682
L100.942 67.1025
L101.016 63.6724
L101.165 149.709
L101.314 260.924
L101.388 254.374
L101.686 158.781
L101.834 213.11
L102.132 333.05
L102.281 348.386
L102.43 311.277
L102.802 185.609
L103.025 113.819
L103.099 117.992
L103.694 267.464
L103.769 268.337
L103.918 249.311
L104.215 216.039
L104.736 165.685
L104.959 138.711
L105.034 139.005
L105.331 164.89
L106.001 281.426
L106.075 281.72
L106.224 285.366
L106.447 311.709
L106.522 310.785
L106.67 284.528
L107.34 128.04
L107.414 130.295
L107.563 140.888
L107.638 142.029
L107.935 163.136
L108.456 241.147
L108.754 258.392
L108.828 259.394
L108.902 258.262
L109.051 250.072
L109.498 197.411
L109.572 198.646
L109.87 220.627
L110.242 283.422
L110.316 283.984
L110.465 271.801
L110.688 199.986
L110.911 132.974
L111.06 127.479
L111.209 135.307
L111.432 171.189
L111.878 260.327
L112.102 281.789
L112.176 277.305
L112.474 198.914
L112.548 202.629
L112.622 207.667
L112.697 205.351
L112.846 192.659
L112.92 193.748
L113.218 230.07
L113.366 216.6
L113.441 217.473
L113.664 239.116
L113.962 207.831
L114.11 212.799
L114.185 214.518
L114.408 208.194
L114.557 223.461
L114.706 233.837
L115.152 207.079
L115.45 201.532
L115.673 215.399
L115.747 214.285
L115.97 202.362
L116.194 215.589
L116.268 214.881
L116.417 204.47
L116.491 205.282
L116.714 231.893
L116.789 230.131
L116.938 217.127
L117.012 217.317
L117.235 232.178
L117.384 224.903
L117.607 217.914
L117.756 219.659
L117.83 219.477
L117.979 218.449
L118.054 219.244
L118.277 228.066
L118.351 227.962
L118.872 209.844
L119.021 199.096
L119.095 199.225
L119.393 215.443
L119.616 207.33
L119.69 208.254
L119.765 210.094
L119.839 207.528
L120.062 189.091
L120.137 190.361
L120.509 222.605
L120.658 227.089
L120.955 245.052
L121.104 237.725
L121.253 233.941
L121.327 233.975
L121.476 230.096
L121.997 200.236
L122.294 192.417
L122.443 197.921
L122.815 215.883
L122.89 216.419
L123.187 207.416
L123.336 201.852
L123.41 202.828
L123.634 212.531
L123.931 185.807
L124.006 188.244
L124.154 205.861
L124.526 282.852
L124.675 302.482
L124.75 301.964
L125.047 274.549
L125.866 129.483
L125.94 129.267
L126.014 131.902
L126.238 161.667
L126.535 203.105
L126.758 231.53
L126.907 247.497
L126.982 247.195
L127.354 228.817
L127.428 229.042
L127.651 240.343
L127.8 246.322
L127.874 246.417
L128.023 242.996
L128.172 240.049
L128.321 246.573
L128.47 255.549
L128.544 254.573
L128.693 238.079
L129.065 179.345
L129.214 175.197
L129.288 176.182
L129.586 193.575
L129.734 199.571
L129.809 200.228
L129.958 198.897
L130.106 195.45
L130.255 189.868
L130.33 190.378
L130.478 201.843
L130.925 251.973
L131.074 255.705
L131.222 250.616
L131.669 232.852
L131.892 195.199
L131.966 196.011
L132.19 209.179
L132.413 236.878
L132.487 238.943
L132.562 236.325
L132.71 205.999
L132.934 161.451
L133.157 158.635
L133.231 160.302
L133.38 174.584
L133.826 249.847
L133.975 243.799
L134.273 230.528
L134.347 231.755
L134.645 244.395
L135.017 209.757
L135.091 212.246
L135.24 217.266
L135.314 217.793
L135.538 228.29
L135.686 235.626
L135.761 235.401
L135.835 234.632
L135.984 228.532
L136.058 228.809
L136.133 229.828
L136.505 195.631
L136.579 195.838
L136.654 193.964
L136.802 173.858
L137.026 149.856
L138.142 261.623
L138.365 282.264
L138.514 287.12
L138.588 284.131
L138.737 262.479
L139.034 206.768
L139.183 209.611
L139.258 207.295
L139.481 191.078
L139.63 198.093
L139.778 206.146
L139.853 204.409
L140.002 197.497
L140.15 210.492
L140.299 224.437
L140.374 223.132
L140.671 192.875
L140.82 194.378
L140.894 195.294
L140.969 193.773
L141.043 194.093
L141.49 225.258
L141.564 225.266
L141.713 226.45
L141.787 225.741
L142.159 207.131
L142.234 207.71
L142.68 232.221
L142.754 231.798
L142.978 209.395
L143.052 212.419
L143.35 235.341
L143.424 234.252
L143.498 234.39
L143.722 239.203
L143.87 224.359
L144.168 182.395
L144.317 177.237
L144.391 179.163
L145.21 242.996
L145.284 242.659
L145.433 231.66
L145.656 205.826
L145.73 205.636
L145.805 207.105
L146.102 201.437
L146.177 202.716
L146.326 217.905
L146.549 239.98
L146.846 253.77
L146.921 253.424
L147.07 231.755
L147.367 177.038
L147.516 173.953
L147.665 175.638
L147.739 178.576
L148.409 251.178
L148.483 251.031
L148.632 240.248
L148.93 216.721
L149.004 216.021
L149.376 193.514
L149.599 187.233
L149.674 188.019
L149.897 206.811
L150.12 228.238
L150.194 228.67
L150.269 228.515
L150.343 231.669
L150.641 261.433
L150.79 253.865
L151.459 184.511
L151.534 188.935
L151.608 192.227
L151.682 191.95
L151.831 188.633
L151.98 194.923
L152.203 207.502
L152.352 209.403
L152.65 203.303
L152.798 217.352
L152.947 234.304
L153.022 232.507
L153.319 201.092
L153.394 203.001
L153.691 220.661
L153.766 222.018
L153.914 238.606
L154.138 275.136
L154.212 277.365
L154.361 272.328
L154.584 230.796
L154.956 162.946
L155.179 150.634
L155.254 150.954
L155.402 161.805
L155.626 191.501
L155.923 227.815
L156.072 229.111
L156.37 255.575
L156.444 252.862
L156.742 233.362
L156.816 233.898
L157.039 239.522
L157.114 238.952
L157.262 225.327
L157.486 207.796
L157.634 208.911
L157.709 209.351
L157.858 204.53
L157.932 206.267
L158.006 207.658
L158.081 206.595
L158.304 197.031
L158.378 197.29
L158.602 204.202
L158.825 191.043
L158.899 193.523
L159.197 230.373
L159.271 228.437
L159.494 216.592
L159.643 224.29
L159.866 254.012
L159.941 251.264
L160.313 199.58
L160.387 206.673
L160.536 217.024
L160.834 199.148
L160.908 201.316
L161.354 234.718
L161.429 234.157
L161.578 228.014
L161.652 229.716
L161.801 233.224
L162.024 208.98
L162.247 183.552
L162.396 190.067
L162.47 189.583
L162.545 187.112
L162.619 187.406
L162.991 212.349
L163.438 254.055
L163.661 245.691
L163.735 246.149
L163.81 247.644
L163.958 227.469
L164.256 179.595
L164.33 179.198
L164.479 191.553
L164.777 223.893
L165 214.587
L165.149 216.168
L165.372 224.212
L165.446 223.478
L165.67 210.017
L165.818 203.252
L166.116 217.343
L166.19 216.056
L166.339 211.339
L166.562 198.292
L166.711 215.166
L166.86 227.34
L166.934 224.411
L167.158 204.375
L167.232 206.215
L167.381 231.15
L167.604 260.189
L167.827 220.86
L168.05 203.805
L168.125 202.992
L168.274 215.037
L168.497 230.087
L168.571 230.597
L168.72 220.748
L169.092 191.285
L169.166 191.709
L169.315 194.067
L169.464 187.743
L169.538 189.091
L169.836 206.725
L170.059 219.141
L170.357 243.998
L170.431 243.825
L170.654 229.759
L170.878 254.582
L170.952 253.303
L171.547 201.645
L171.622 199.597
L171.77 205.636
L171.845 205.308
L172.217 183.198
L172.291 181.945
L172.44 194.102
L172.738 229.915
L173.035 219.581
L173.11 221.612
L173.333 237.198
L173.63 220.169
L173.854 225.854
L174.077 211.563
L174.151 214.337
L174.3 226.13
L174.449 215.857
L174.523 211.65
L174.672 218.605
L174.97 207.58
L175.044 209.325
L175.342 230.001
L175.565 204.824
L175.639 204.867
L175.788 207.71
L175.862 207.468
L175.937 207.753
L176.16 216.54
L176.234 216.099
L176.383 211.503
L176.606 198.551
L177.127 219.529
L177.35 217.81
L177.425 218.164
L177.574 228.385
L177.722 243.056
L177.797 242.641
L178.02 235.245
L178.094 235.686
L178.243 230.787
L178.541 206.656
L178.69 208.176
L178.913 195.726
L178.987 198.111
L179.062 199.571
L179.136 198.785
L179.285 195.424
L179.359 196.046
L179.508 193.134
L179.731 200.513
L179.806 199.277
L179.88 197.722
L180.103 213.032
L180.401 237.103
L180.475 237.475
L180.698 252.145
L180.773 250.607
L180.996 240.404
L181.145 242.183
L181.219 242.365
L181.368 232.558
L181.591 214.363
L181.666 213.36
L181.814 203.208
L181.963 190.421
L182.112 199.735
L182.186 199.605
L182.41 189.618
L182.484 190.629
L182.707 206.181
L182.782 205.187
L183.005 196.003
L183.079 196.607
L183.377 213.706
L183.451 213.438
L183.6 218.337
L183.823 232.731
L183.898 232.187
L184.046 228.463
L184.27 240.101
L184.493 224.143
L184.567 226.467
L184.79 248.62
L184.865 246.719
L185.237 210.976
L185.311 209.421
L185.386 209.446
L185.609 219.858
L185.683 218
L185.906 187.985
L186.055 177.453
L186.204 191.432
L186.427 208.323
L186.502 208.41
L186.725 202.863
L186.874 211.537
L187.022 222.735
L187.097 221.914
L187.394 199.951
L187.469 203.934
L187.766 245.778
L187.841 244.533
L188.064 228.791
L188.213 231.902
L188.51 227.677
L188.585 225.016
L188.659 225.344
L188.808 225.983
L188.882 225.249
L189.106 229.949
L189.254 215.831
L189.552 190.058
L189.626 191.259
L189.701 190.68
L189.775 190.732
L189.85 189.86
L189.998 186.741
L190.073 188.054
L190.445 206.466
L190.594 205.766
L190.668 206.492
L190.817 213.818
L191.189 249.856
L191.486 246.028
L191.561 246.901
L192.082 222.709
L192.156 223.296
L192.23 222.959
L192.602 206.673
L193.198 176.226
L193.272 176.709
L193.793 203.9
L194.09 246.296
L194.165 244.257
L194.314 241.95
L194.537 235.237
L194.611 234.909
L194.909 220.765
L195.653 244.542
L195.802 236.049
L196.099 208.911
L196.397 178.982
L196.62 171.301
L196.694 171.888
L196.843 175.647
L196.992 186.049
L197.438 223.029
L197.736 235.954
L197.885 244.413
L198.034 239.108
L198.331 222.199
L198.406 224.299
L198.48 225.888
L198.703 221.205
L198.778 221.81
L198.852 221.923
L198.926 221.672
L199.001 222.061
L199.298 227.513
L199.596 224.005
L199.67 224.273
L200.266 196.124
L200.34 196.4
L200.712 185.341
L200.786 180.373
L200.861 181.997
L201.158 212.98
L201.456 237.12
L201.53 236.403
L201.679 232.101
L201.828 237.907
L202.126 255.204
L202.2 255.394
L202.423 249.7
L203.018 184.572
L203.093 185.842
L203.242 188.062
L203.39 187.544
L203.614 191.397
L203.688 190.948
L203.911 181.712
L204.283 213.36
L204.581 247.601
L204.655 248.94
L204.804 244.827
L205.399 220.454
L205.474 221.482
L205.622 230.813
L205.92 215.866
L205.994 217.387
L206.218 221.56
L206.292 221.154
L206.441 218.709
L206.515 221.776
L206.738 242.918
L206.813 240.723
L206.962 223.452
L207.408 148.042
L207.482 145.605
L207.78 177.254
L208.45 265.658
L208.524 268.967
L208.598 268.821
L209.045 251.342
L209.268 216.626
L209.491 186.153
L209.64 183.596
L209.714 184.261
L209.863 190.179
L210.458 224.195
L210.533 224.515
L210.682 214.095
L210.979 191.89
L211.202 186.093
L211.277 186.326
L211.426 194.344
L211.798 235.591
L212.095 264.017
L212.17 267.352
L212.244 266.41
L212.839 221.465
L213.137 195.709
L213.36 194.085
L213.434 194.102
L213.583 192.175
L213.658 192.322
L213.732 193.385
L214.104 208.159
L214.178 208.315
L214.327 205.178
L214.476 204.349
L214.699 198.733
L214.848 205.619
L214.997 218.406
L215.22 239.099
L215.518 248.292
L215.666 239.004
L215.89 224.083
L216.187 219.348
L216.41 204.081
L216.559 210.708
L216.708 217.309
L216.782 216.747
L216.931 214.268
L217.08 217.646
L217.229 221.37
L217.452 219.218
L217.75 213.11
L217.824 214.06
L217.973 219.08
L218.419 196.409
L218.717 178.187
L218.791 177.228
L218.94 190.568
L219.535 258.133
L219.684 248.188
L220.056 220.411
L220.279 208.073
L220.354 208.09
L220.577 214.017
L220.651 212.591
L220.874 200.409
L220.949 200.469
L221.172 215.65
L221.395 225.275
L221.544 217.853
L222.065 175.915
L222.139 179.915
L222.437 235.444
L222.809 284.882
L222.958 277.115
L223.106 253.657
L223.553 169.962
L223.627 168.026
L223.776 179.794
L224.222 235.79
L224.371 230.493
L224.594 210.293
L224.966 181.125
L225.115 175.69
L225.264 171.309
L225.487 179.155
L225.934 220.497
L226.38 276.285
L226.454 276.484
L226.678 286.394
L226.752 285.971
L226.901 281.02
L227.496 206.993
L228.017 142.797
L228.091 142.521
L228.24 151.109
L229.058 226.122
L229.133 227.66
L229.505 208.142
L229.579 209.835
L230.1 249.571
L230.472 299.277
L230.546 300.063
L230.695 291.397
L230.844 274.333
L231.588 141.994
L231.662 142.841
L232.481 206.172
L232.63 204.573
L232.778 202.163
L232.853 202.509
L233.002 213.965
L233.448 262.565
L233.82 268.38
L234.564 204.34
L234.862 176.174
L234.936 175.396
L235.159 179.699
L235.234 179.206
L235.308 179.924
L235.606 188.235
L235.903 203.45
L235.978 204.893
L236.052 204.712
L236.201 202.992
L236.275 204.072
L236.498 217.922
L236.796 244.672
L237.094 257.053
L237.317 271.326
L237.391 270.903
L237.689 244.706
L238.21 172.649
L238.284 172.096
L238.433 179.008
L238.805 206.604
L238.954 209.472
L239.028 207.839
L239.326 189.765
L239.4 189.721
L239.474 191.734
L239.772 212.237
L239.846 213.957
L239.921 213.87
L239.995 213.861
L240.07 214.077
L240.144 215.157
L240.962 250.486
L241.111 252.5
L241.483 232.161
L242.004 192.115
L242.153 190.62
L242.302 187.44
L242.45 188.149
L242.525 187.864
L242.674 189.782
L242.822 181.107
L243.046 159.257
L243.12 163.948
L243.938 285.392
L244.087 284.113
L244.31 277.011
L244.757 215.08
L245.203 152.733
L245.278 149.848
L245.352 150.081
L245.426 153.183
L245.65 190.957
L245.873 221.275
L246.245 231.919
L246.319 235.427
L246.394 234.969
L246.542 224.428
L246.84 206.837
L246.989 202.621
L247.063 203.614
L247.361 218.795
L247.807 251.247
L247.882 250.037
L248.179 227.927
L248.402 209.325
L248.477 208.937
L248.626 211.071
L248.7 210.976
L248.923 204.85
L249.072 202.37
L249.295 205.628
L249.593 196.832
L249.667 198.223
L249.89 206.898
L249.965 207.14
L250.039 208.142
L250.114 207.356
L250.188 207.58
L250.262 208.565
L250.337 208.315
L250.486 203.684
L250.56 204.366
L250.709 215.78
L251.006 237.881
L251.304 250.193
L251.378 250.106
L251.974 225.059
L252.271 202.379
L252.346 199.614
L252.42 199.83
L252.494 199.796
L252.569 196.832
L252.866 172.459
L252.941 175.526
L253.313 209.265
L253.462 206.664
L253.908 222.225
L254.131 223.547
L254.578 245.078
L254.801 240.239
L254.875 240.671
L254.95 241.311
L255.173 239.151
L255.694 195.467
L255.842 193.67
L255.991 199.13
L256.066 197.808
L256.289 185.393
L256.363 184.684
L256.438 182.282
L256.512 183.302
L256.661 192.348
L257.107 238.218
L257.256 243.142
L257.33 242.598
L257.479 236.36
L257.702 224.42
L257.851 228.48
L257.926 227.971
L258.074 223.91
L258.298 212.272
L258.372 212.98
L258.595 205.126
L258.67 205.602
L258.893 211.745
L258.967 213.309
L259.042 212.436
L259.265 216.981
L259.339 215.901
L259.562 210.017
L259.86 221.983
L259.934 220.843
L260.158 214.311
L260.306 213.628
L260.455 216.929
L260.53 216.436
L260.976 200.806
L261.05 199.087
L261.125 199.312
L261.274 205.23
L261.497 222.942
L261.794 249.268
L261.869 251.394
L261.943 250.884
L262.166 233.457
L262.464 217.145
L262.687 212.851
L262.762 213.343
L262.836 213.058
L263.282 188.114
L263.357 185.488
L263.58 192.642
L263.803 205.178
L263.878 204.176
L263.952 204.703
L264.398 225.655
L264.696 250.78
L264.77 250.728
L264.919 244.983
L265.44 206.492
L265.514 207.114
L265.589 206.993
L265.663 206.561
L265.812 207.9
L265.886 207.788
L266.035 205.852
L266.184 207.546
L266.482 213.179
L266.779 221.767
L266.928 219.719
L267.374 199.925
L267.598 203.692
L267.746 202.267
L267.97 208.557
L268.267 229.318
L268.565 251.195
L268.639 248.983
L269.011 222.147
L269.16 221.205
L269.309 222.588
L269.383 222.476
L269.681 204.478
L270.053 181.349
L270.127 183.509
L270.722 228.022
L271.392 204.556
L271.541 210.259
L272.062 238.347
L272.136 237.95
L272.657 219.711
L272.88 209.49
L273.103 215.278
L273.326 221.335
L273.475 219.944
L273.55 219.486
L273.847 212.03
L274.219 195.735
L274.517 176.917
L274.666 180.969
L275.038 199.009
L275.782 265.053
L276.005 270.436
L276.079 269.365
L276.228 259.213
L277.121 165.892
L277.195 164.631
L277.27 164.726
L277.344 165.953
L277.642 184.632
L278.237 252.888
L278.609 271.248
L278.683 269.209
L278.981 229.638
L279.502 153.217
L279.576 152.405
L279.725 165.21
L280.32 239.54
L280.692 270.695
L280.766 270.393
L280.915 255.359
L281.51 176.545
L281.585 175.552
L281.734 178.749
L281.957 196.037
L282.106 205.939
L282.552 247.497
L282.626 249.588
L282.775 243.981
L283.296 205.956
L283.445 200.193
L283.594 200.608
L283.742 204.219
L283.891 207.537
L283.966 206.638
L284.04 207.062
L284.263 212.738
L284.412 211.2
L284.486 211.434
L284.71 215.417
L284.858 209.109
L284.933 209.144
L285.082 211.131
L285.305 203.459
L285.454 209.291
L285.9 237.673
L286.123 250.97
L286.272 258.116
L286.346 257.018
L286.793 224.454
L287.165 216.168
L287.462 188.685
L287.76 169.815
L288.281 185.073
L289.248 262.963
L289.397 255.437
L290.29 199.217
L290.438 196.124
L290.81 205.662
L291.108 215.123
L291.257 217.81
L291.406 212.151
L291.554 206.578
L292.15 234.399
L292.224 233.846
L292.447 228.394
L292.745 210.794
L292.894 205.196
L292.968 206.206
L293.191 203.122
L293.266 204.046
L293.414 196.979
L293.563 186.291
L293.712 202.241
L294.01 231.435
L294.307 249.311
L294.382 247.316
L294.605 226.899
L294.977 186.265
L295.051 185.099
L295.572 212.669
L295.944 243.168
L296.018 246.434
L296.093 244.94
L296.316 234.744
L296.614 212.133
L296.911 200.228
L297.06 205.852
L297.134 205.507
L297.209 204.591
L297.432 219.279
L297.506 217.516
L297.804 210.224
L297.878 210.561
L298.027 217.87
L298.399 207.2
L298.474 203.64
L298.548 204.262
L298.771 210.673
L298.994 220.713
L299.143 215.253
L299.218 215.676
L299.887 255.1
L300.036 252.465
L300.11 248.37
L300.706 169.659
L300.78 168.614
L301.226 198.672
L301.673 224.852
L301.747 226.26
L301.822 225.508
L301.896 226.666
L302.045 233.181
L302.119 233.111
L302.342 228.221
L302.417 228.429
L302.491 228.714
L302.566 230.727
L302.64 230.407
L302.789 222.165
L303.086 204.833
L303.235 208.15
L303.31 205.541
L303.384 205.653
L303.979 231.418
L304.128 229.483
L304.202 231.323
L304.351 228.204
L304.649 192.953
L304.798 180.416
L304.872 182.3
L305.393 229.344
L305.467 228.273
L305.839 212.237
L305.914 211.943
L305.988 212.807
L306.509 231.254
L306.583 230.943
L306.658 231.738
L306.732 230.364
L307.178 196.469
L307.253 198.042
L307.327 199.986
L307.402 199.683
L307.476 199.623
L307.55 199.882
L307.699 209.896
L308.071 243.16
L308.22 234.9
L308.518 203.39
L308.592 204.029
L309.187 239.375
L309.262 237.621
L309.708 176.986
L309.782 178.507
L310.006 200.901
L310.229 217.076
L310.303 217.741
L310.452 214.846
L310.526 214.587
L310.75 211.917
L310.973 223.288
L311.345 241.008
L311.568 219.434
L311.791 201.195
L311.94 211.131
L312.089 226.519
L312.163 225.595
L312.238 225.828
L312.312 225.577
L312.386 224.782
L312.833 210.38
L312.982 215.244
L313.056 213.049
L313.13 213.412
L313.354 229.232
L313.577 238.632
L313.726 221.525
L314.023 184.295
L314.098 182.196
L314.321 188.132
L314.47 186.533
L314.544 187.198
L315.139 230.727
L315.437 253.476
L315.586 243.54
L315.809 227.53
L315.883 226.035
L316.33 246.512
L316.404 243.488
L316.627 222.329
L316.999 166.454
L317.222 138.737
L317.297 141.527
L317.594 186.827
L318.041 290.991
L318.115 292.658
L318.19 291.475
L318.338 278.29
L318.562 236.619
L319.008 157.65
L319.157 147.117
L319.231 149.528
L319.454 177.824
L319.826 237.077
L319.975 245.302
L320.198 248.344
L320.422 254.435
L320.57 258.418
L320.645 257.277
L320.794 249.035
L321.612 159.628
L321.686 160.319
L321.835 170.757
L322.43 236.861
L322.579 237.397
L322.728 236.265
L322.802 237.656
L323.026 248.154
L323.1 247.419
L323.249 240.481
L323.472 227.755
L323.621 224.618
L323.77 226.407
L323.844 226.519
L323.993 218.968
L324.737 161.857
L324.811 164.916
L324.96 176.096
L325.555 258.902
L326.076 216.877
L326.15 216.747
L326.225 218.639
L326.597 251.679
L326.671 248.396
L326.894 225.621
L327.415 148.975
L327.49 150.669
L327.638 174.878
L328.01 254.288
L328.159 265.745
L328.234 265.235
L328.382 252.517
L328.829 185.747
L328.903 186.715
L329.052 195.026
L329.573 241.769
L329.647 241.302
L329.796 228.99
L330.094 201.575
L330.242 199.856
L330.54 205.152
L330.763 200.392
L330.986 205.818
L331.135 200.677
L331.284 194.24
L331.358 195.173
L331.656 226.225
L332.102 268.484
L332.177 268.397
L332.326 264.146
L332.921 197.29
L332.995 197.843
L333.218 192.564
L333.442 185.609
L333.516 187.846
L333.59 187.129
L333.739 182.075
L334.037 200.539
L334.186 209.801
L334.483 230.381
L334.632 234.883
L334.781 233.552
L334.93 235.997
L335.078 229.31
L335.525 210.967
L335.674 216.004
L336.046 229.897
L336.194 230.632
L336.269 230.061
L336.641 217.404
L336.79 211.736
L336.864 211.701
L337.608 195.19
L337.757 199.476
L337.831 199.173
L337.98 196.227
L338.426 205.852
L338.575 214.7
L338.798 247.687
L339.022 282.765
L339.17 289.997
L339.245 286.394
L339.394 255.964
L339.766 164.484
L339.989 158.203
L340.063 158.445
L340.212 168.527
L340.584 215.546
L340.956 250.201
L341.03 252.171
L341.105 251.627
L341.254 246.503
L341.998 179.224
L342.072 179.984
L342.221 189.445
L342.667 243.186
L342.742 242.909
L343.039 235.807
L343.337 241.509
L343.411 240.913
L343.56 228.014
L344.006 175.863
L344.081 172.113
L344.23 183.639
L344.676 228.688
L344.75 230.805
L344.899 227.53
L344.974 228.74
L345.197 241.518
L345.271 238.572
L345.718 200.513
L345.941 189.246
L346.015 189.497
L346.313 212.298
L346.61 246.391
L346.685 247.869
L346.834 256.016
L346.908 255.29
L347.131 241.855
L347.578 172.744
L347.726 171.076
L347.801 172.32
L348.024 188.097
L348.396 221.067
L348.47 219.555
L348.694 213.49
L348.768 215.304
L349.214 248.162
L349.438 244.464
L349.661 237.215
L349.735 235.306
L349.884 224.808
L349.958 225.664
L350.033 227.055
L350.107 224.411
L350.256 216.868
L350.33 214.466
L350.628 191.207
L350.926 182.006
L351.298 192.434
L351.446 199.882
L351.893 239.946
L351.967 236.585
L352.19 223.884
L352.414 250.383
L352.637 277.746
L352.786 258.366
L353.232 200.832
L353.381 189.125
L353.604 172.778
L353.678 172.199
L353.902 166.627
L354.348 190.473
L354.646 228.385
L354.943 278.109
L355.018 283.794
L355.092 280.588
L355.538 231.539
L356.059 179.613
L356.134 181.194
L356.431 216.73
L356.58 207.036
L356.803 189.765
L356.952 203.329
L357.175 235.79
L357.25 234.52
L357.547 191.147
L357.622 193.635
L357.994 243.402
L358.142 231.185
L358.366 205.403
L358.44 207.485
L358.738 239.652
L358.886 224.126
L359.11 194.819
L359.184 196.409
L359.407 241.285
L359.482 253.683
L359.556 252.793
L359.705 234.9
L359.928 196.4
L360.002 200.876
L360.226 236.809
L360.3 235.487
L360.672 159.991
L360.821 186.136
L361.044 237.621
L361.118 235.384
L361.416 188.469
L361.565 216.108
L361.788 267.447
L361.862 265.028
L362.011 236.101
L362.234 194.102
L362.383 218.415
L362.606 248.318
L362.978 173.098
L363.053 180.451
L363.35 239.661
L363.425 236.377
L363.722 172.372
L363.797 179.517
L364.094 255.765
L364.169 251.938
L364.466 194.024
L364.541 197.463
L364.913 249.752
L365.285 160.466
L365.359 168.458
L365.731 263.801
L365.806 258.288
L366.103 208.505
L366.475 250.348
L366.624 222.484
L366.847 186.836
L367.219 224.636
L367.368 195.061
L367.591 150.323
L367.666 155.369
L368.112 240.084
L368.186 236.827
L368.335 225.767
L368.41 229.725
L368.707 261.226
L368.782 257.58
L369.154 201.843
L369.228 207.563
L369.451 223.495
L369.526 223.193
L369.6 218.665
L369.898 182.179
L370.046 198.327
L370.344 231.366
L370.493 214.605
L370.716 189.125
L371.014 215.227
L371.237 210.241
L371.46 192.642
L371.534 193.454
L371.981 253.649
L372.055 252.741
L372.427 236.187
L372.725 215.693
L373.022 212.661
L373.394 199.752
L373.469 199.199
L373.692 205.247
L373.766 205.213
L373.915 208.548
L373.99 209.973
L374.064 209.205
L374.213 201.135
L374.287 202.941
L374.51 213.602
L374.585 214.328
L374.808 225.586
L374.882 225.284
L375.106 215.754
L375.18 216.341
L375.478 234.079
L375.552 233.163
L375.701 234.278
L375.85 233.526
L376.073 217.672
L376.296 197.074
L376.445 205.152
L376.742 227.374
L377.04 205.904
L377.114 206.5
L377.338 214.89
L377.412 215.028
L377.486 214.449
L377.635 204.677
L377.858 190.749
L378.007 193.246
L378.156 203.424
L378.454 227.642
L378.826 216.644
L378.974 221.655
L379.198 235.09
L379.346 246.875
L379.421 246.382
L379.57 240.032
L380.239 203.813
L380.314 204.167
L380.537 210.345
L380.76 206.232
L380.909 209.023
L380.983 208.505
L381.504 182.671
L381.578 183.656
L381.802 204.513
L382.174 251.765
L382.322 255.843
L382.546 250.936
L382.62 250.616
L382.694 249.804
L382.769 250.245
L382.843 249.13
L382.992 235.591
L383.29 204.427
L383.587 189.773
L383.736 186.87
L383.81 188.106
L384.108 175.111
L384.406 197.471
L384.554 192.201
L384.629 192.823
L384.778 203.122
L385.373 258.833
L385.447 259.351
L386.042 241.933
L386.414 201.852
L386.563 204.496
L386.638 204.185
L387.01 195.467
L387.084 196.054
L387.233 200.668
L387.382 207.96
L387.53 198.862
L387.828 183.008
L387.902 183.501
L388.349 211.382
L388.423 210.25
L388.572 211.753
L388.646 214.605
L389.093 262.574
L389.167 261.183
L389.837 224.566
L390.134 204.124
L390.358 207.865
L390.655 201.74
L390.804 205.869
L390.953 199.294
L391.102 193.272
L391.325 198.456
L391.474 205.93
L391.548 205.774
L391.771 191.968
L391.846 192.02
L392.515 243.108
L392.664 252.975
L392.813 250.331
L393.631 214.743
L394.003 190.24
L394.152 186.948
L394.598 205.731
L394.673 205.619
L394.822 206.068
L394.896 203.64
L394.97 205.386
L395.268 220.514
L395.491 225.206
L395.789 232.628
L395.938 235.513
L396.161 229.776
L396.384 226.424
L396.533 229.664
L396.83 223.918
L397.128 207.753
L397.574 179.682
L397.649 178.437
L398.393 231.098
L398.616 248.828
L398.69 250.115
L398.839 243.497
L399.137 228.93
L399.955 204.746
L400.104 207.805
L400.327 215.045
L400.55 212.609
L400.699 205.852
L400.774 206.388
L401.071 217.05
L401.146 217.931
L401.369 211.339
L401.592 202.517
L401.666 203.079
L402.113 216.955
L402.187 218.009
L402.262 216.704
L402.41 219.123
L402.559 222.648
L402.782 232.126
L402.857 232.334
L402.931 232.135
L403.006 232.619
L403.154 237.578
L403.452 245.199
L403.675 228.014
L404.122 174.817
L404.196 172.355
L404.27 173.02
L404.866 220.454
L405.238 244.015
L405.312 241.622
L405.535 229.413
L405.684 235.401
L405.833 229.206
L406.354 199.044
L406.577 208.755
L406.726 217.637
L406.8 217.654
L406.949 214.941
L407.023 216.186
L407.098 219.642
L407.618 191.596
L407.916 200.763
L408.065 218.864
L408.288 252.845
L408.362 253.364
L409.181 206.345
L409.255 207.174
L409.33 208.211
L409.404 207.848
L409.478 207.174
L409.553 207.304
L409.702 217.317
L409.776 217.197
L409.999 208.323
L410.074 208.366
L410.297 218.441
L410.446 210.414
L410.669 199.571
L410.892 206.984
L411.338 228.506
L411.413 226.847
L411.636 212.514
L411.71 213.792
L411.785 214.734
L411.934 208.859
L412.008 208.868
L412.082 211.71
L412.157 211.529
L412.38 206.068
L412.529 211.313
L412.752 228.463
L412.901 241.458
L412.975 239.816
L413.273 224.29
L413.422 225.405
L413.496 223.564
L413.794 198.163
L413.868 198.672
L414.314 230.226
L414.389 228.333
L414.612 220.514
L414.686 220.782
L414.835 222.761
L414.91 218.907
L415.207 193.73
L415.356 189.367
L415.43 184.969
L415.505 185.151
L416.1 219.166
L416.174 218.743
L416.323 216.574
L416.472 221.197
L416.621 235.755
L416.844 256.845
L416.918 256.681
L417.142 238.2
L417.96 196.098
L418.034 195.329
L418.258 187.829
L418.406 195.441
L418.481 199.623
L418.555 199.243
L418.63 196.944
L418.704 196.962
L419.002 204.271
L419.299 224.152
L419.448 226.597
L419.894 251.428
L419.969 252.56
L420.118 257.908
L420.266 246.607
L420.862 169.78
L421.085 176.64
L421.159 177.988
L421.68 222.597
L422.052 254.53
L422.126 253.787
L422.796 211.892
L422.87 209.438
L422.945 210.466
L423.168 229.759
L423.242 229.163
L423.466 218.363
L423.614 208.47
L423.763 214.76
L423.838 214.216
L424.061 197.411
L424.433 174.014
L424.656 188.676
L424.954 215.831
L425.177 223.011
L425.251 225.223
L425.4 235.677
L425.474 235.755
L425.623 245.086
L425.698 248.707
L425.846 242.685
L425.995 247.773
L426.144 240.075
L426.367 230.969
L426.516 238.416
L426.59 238.157
L426.739 230.969
L426.888 214.959
L427.111 189.177
L427.186 189.263
L427.483 185.108
L427.781 170.394
L427.855 170.817
L427.93 170.255
L428.004 170.29
L428.153 181.669
L428.599 243.92
L428.674 244.024
L428.748 243.289
L428.822 243.989
L429.046 266.548
L429.12 265.771
L429.269 259.221
L429.641 223.288
L429.938 191.544
L430.087 204.254
L430.236 212.419
L430.385 209.256
L430.459 210.224
L430.682 218.717
L430.831 206.379
L431.054 186.948
L431.278 191.544
L431.426 190.395
L431.575 183.293
L431.65 188.46
L431.947 230.684
L432.096 220.428
L432.245 236.559
L432.394 255.256
L432.468 253.493
L432.691 242.192
L432.914 254.608
L432.989 251.765
L433.584 193.722
L433.807 162.713
L433.882 165.27
L434.105 186.87
L434.254 181.98
L434.328 182.645
L434.477 198.569
L434.7 237.691
L434.774 236.524
L434.923 227.755
L434.998 228.688
L435.146 235.66
L435.221 233.751
L435.518 213.542
L435.816 235.245
L435.89 234.796
L435.965 233.578
L436.114 239.453
L436.337 247.221
L436.411 244.231
L437.304 151.351
L437.378 150.859
L437.453 155.014
L437.825 241.509
L438.122 288.019
L438.197 286.463
L438.346 273.045
L438.792 198.18
L439.164 173.02
L439.238 174.515
L439.462 202.604
L439.536 201.558
L439.685 208.444
L440.131 258.237
L440.206 257.027
L440.801 209.714
L441.247 154.453
L441.322 155.317
L441.396 156.768
L441.545 170.748
L441.991 242.745
L442.066 243.929
L442.14 247.005
L442.363 264.967
L442.512 258.098
L442.884 231.435
L443.256 183.103
L443.33 186.274
L443.628 209.369
L444 214.371
L444.074 214.112
L444.446 199.683
L444.521 202.197
L444.818 213.179
L444.967 219.097
L445.19 228.411
L445.265 226.813
L445.562 206.595
L445.637 205.895
L445.934 244.101
L446.009 243.186
L446.232 231.357
L446.306 231.496
L446.381 231.029
L447.348 179.345
L447.422 184.166
L447.72 230.122
L447.794 228.48
L448.018 216.523
L448.39 204.116
L448.687 225.284
L448.91 234.684
L448.985 233.846
L449.134 229.102
L449.282 231.254
L449.431 221.439
L449.58 200.781
L449.654 202.111
L449.803 206.276
L449.878 200.115
L449.878 200.115" style="fill:none;stroke:#808080;stroke-linecap:square;"/>
   </g>
  </g>
 </g>
 <defs>
  <clipPath id="p7ff5b81e1d">
   <rect height="345.6" width="446.4" x="72.0" y="43.2"/>
  </clipPath>
 </defs>
</svg>
