<?xml version="1.0" encoding="utf-8" standalone="no"?>
<!DOCTYPE svg PUBLIC "-//W3C//DTD SVG 1.1//EN"
  "http://www.w3.org/Graphics/SVG/1.1/DTD/svg11.dtd">
<!-- Created with matplotlib (http://matplotlib.org/) -->
<svg height="432pt" version="1.1" viewBox="0 0 576 432" width="576pt" xmlns="http://www.w3.org/2000/svg" xmlns:xlink="http://www.w3.org/1999/xlink">
 <defs>
  <style type="text/css">
*{stroke-linecap:butt;stroke-linejoin:round;}
  </style>
 </defs>
 <g id="figure_1">
  <g id="patch_1">
   <path d="
M0 432
L576 432
L576 0
L0 0
z
" style="fill:#ffffff;"/>
  </g>
  <g id="axes_1">
   <g id="line2d_1">
    <path clip-path="url(#p7ff5b81e1d)" d="
M72 185.556
L72.0744 189.555
L72.1488 189.565
L72.2976 171.801
L72.4464 152.764
L72.5952 178.743
L72.8184 218.388
L73.0416 210.854
L73.3392 179.73
L73.5624 134.22
L73.6368 139.078
L73.9344 189.516
L74.0832 196.339
L74.3808 224.984
L74.4552 220.027
L74.7528 178.634
L75.0504 187.008
L75.1992 190.563
L75.4968 211.19
L75.7944 179.464
L75.8688 181.745
L76.092 205.433
L76.1664 204.396
L76.6128 188.459
L76.6872 187.966
L76.7616 186.554
L76.9104 192.073
L77.0592 204.545
L77.1336 206.47
L77.2824 191.214
L77.58 151.46
L77.6544 145.526
L77.7288 145.98
L77.8776 168.02
L78.2496 242.531
L78.324 243.163
L78.6216 203.853
L78.8448 149.485
L78.9192 150.868
L79.6632 219.514
L79.812 208.741
L80.0352 189.012
L80.3328 207.438
L80.4816 187.867
L80.7792 141.171
L80.8536 146.573
L81.3 228.342
L81.5232 206.036
L81.8952 186.81
L82.044 164.129
L82.1184 165.028
L82.416 222.881
L82.6392 214.399
L82.7136 215.604
L82.8624 188.844
L83.0856 164.346
L83.2344 169.807
L83.3832 161.749
L83.4576 162.944
L83.904 208.04
L84.0528 205.957
L84.2016 201.493
L84.4248 213.718
L84.4992 213.51
L84.648 206.381
L84.9456 143.235
L85.02 146.355
L85.2432 194.502
L85.392 229.467
L85.5408 208.395
L85.9872 122.015
L86.0616 129.599
L86.5824 268.915
L86.6568 266.545
L86.9544 221.706
L87.1776 192.745
L87.3264 171.387
L87.6984 123.654
L88.5168 243.508
L88.6656 227.7
L89.112 151.618
L89.7072 209.965
L89.7816 209.185
L89.856 208.553
L89.9304 205.078
L90.0048 205.394
L90.1536 213.866
L90.3768 226.614
L90.5256 220.116
L90.6744 193.683
L90.972 118.974
L91.1208 124.563
L91.2696 156.358
L91.4928 206.401
L91.5672 210.805
L91.7904 194.196
L91.8648 197.06
L92.1624 225.014
L92.3856 220.284
L92.46 220.383
L92.6088 209.531
L92.832 185.319
L92.9808 181.34
L93.204 187.176
L93.3528 195.154
L93.7248 163.537
L93.948 183.739
L94.0224 181.419
L94.1712 173.727
L94.32 189.871
L94.5432 219.642
L94.7664 209.659
L94.8408 209.936
L94.9152 208.623
L95.064 193.624
L95.2128 178.121
L95.2872 180.037
L95.436 189.634
L95.5848 182.239
L95.6592 183.107
L95.7336 187.008
L95.808 185.882
L96.18 150.809
L96.2544 151.747
L96.6264 198.699
L96.7008 198.788
L96.7752 200.358
L96.8496 199.519
L96.9984 189.308
L97.0728 189.95
L97.2216 196.872
L97.3704 218.023
L97.668 288.831
L97.7424 278.977
L98.1144 146.148
L98.1888 143.472
L98.2632 147.284
L98.4864 183.512
L98.5608 178.546
L98.784 148.834
L98.9328 150.453
L99.0072 152.981
L99.156 176.176
L99.4536 229.22
L99.528 227.749
L99.6024 228.154
L99.6768 229.141
L99.7512 222.368
L100.123 157.158
L100.272 183.423
L100.495 213.017
L100.718 198.126
L100.793 197.267
L100.942 175.889
L101.165 152.665
L101.239 150.364
L101.314 152.201
L102.281 264.817
L102.504 226.841
L102.876 157.395
L102.95 154.215
L103.248 122.499
L103.471 153.554
L103.843 229.477
L104.587 172.384
L104.885 180.293
L105.48 266.407
L105.629 270.89
L105.778 238.255
L106.224 82.7353
L106.298 76.0603
L106.447 104.449
L107.042 233.219
L107.266 241.178
L107.34 238.157
L107.786 183.927
L107.861 182.801
L108.01 191.194
L108.307 221.844
L108.456 211.022
L108.679 175.761
L108.828 155.598
L108.902 158.787
L109.2 206.588
L109.274 200.812
L109.498 183.483
L109.646 173.845
L109.721 177.133
L110.093 225.873
L110.539 163.971
L110.614 163.073
L110.688 168.809
L110.762 166.025
L110.911 149.14
L110.986 149.14
L111.06 150.078
L111.209 142.662
L111.432 159.449
L111.878 273.339
L111.953 268.342
L112.25 236.399
L112.399 227.275
L112.548 209.116
L112.622 210.064
L112.846 224.925
L112.92 218.22
L113.441 100.381
L113.515 102
L113.887 167.792
L114.259 247.389
L114.408 234.039
L114.854 202.382
L114.929 199.637
L115.003 200.536
L115.226 216.028
L115.301 211.674
L115.747 147.55
L115.822 150.611
L115.896 148.982
L116.045 136.402
L116.417 168.089
L116.491 165.798
L116.64 187.195
L117.31 258.28
L117.682 231.847
L117.83 207.369
L117.905 208.326
L117.979 209.887
L118.128 198.61
L118.426 144.43
L118.649 130.872
L118.723 133.193
L119.095 189.743
L119.17 190.513
L119.244 187.966
L119.318 191.027
L119.467 204.08
L119.616 198.047
L119.765 201.079
L120.062 174.556
L120.137 173.549
L120.36 175.386
L121.03 225.073
L121.104 223.246
L121.253 213.905
L121.402 189.378
L121.699 138.713
L121.774 128.868
L121.997 184.598
L122.22 223.77
L122.294 230.168
L122.369 228.628
L122.443 230.909
L122.592 224.056
L123.187 174.359
L123.41 181.172
L123.708 214.666
L123.782 212.355
L124.006 191.402
L124.378 107.915
L124.973 252.306
L125.047 251.052
L125.419 245.069
L125.568 222.664
L126.089 128.453
L126.312 99.7783
L126.461 128.473
L126.758 180.471
L127.428 243.963
L127.502 245.582
L127.651 239.035
L127.8 231.877
L127.874 233.269
L127.949 238.729
L128.023 234.582
L128.321 180.106
L128.395 181.616
L128.693 176.887
L128.916 158.955
L129.065 163.951
L129.139 163.438
L129.214 159.883
L129.511 190.069
L129.734 157.029
L130.106 198.738
L130.181 198.284
L130.404 218.457
L130.627 240.586
L130.776 260.512
L130.925 234.592
L131.222 154.403
L131.446 106.256
L131.52 112.289
L132.041 208.06
L132.19 205.147
L132.562 237.426
L132.859 210.676
L132.934 214.271
L133.157 227.324
L133.38 221.41
L133.454 217.638
L133.603 186.682
L133.975 95.5225
L134.124 125.392
L134.719 239.786
L134.794 233.328
L134.942 203.271
L135.091 214.745
L135.166 214.3
L135.389 201.207
L135.538 212.148
L135.612 211.98
L135.761 194.739
L135.984 172.216
L136.133 182.229
L136.356 175.159
L136.579 186.988
L136.654 184.095
L136.802 175.879
L136.877 180.629
L137.1 208.465
L137.323 161.167
L137.398 162.125
L137.918 215.199
L138.067 213.402
L138.142 213.757
L138.439 244.091
L138.588 232.963
L139.034 177.973
L139.258 161.976
L139.555 121.798
L139.704 112.645
L139.778 116.555
L139.927 145.2
L140.522 299.298
L140.894 246.579
L141.192 155.193
L141.341 139.019
L141.564 96.9345
L141.638 100.697
L141.862 148.37
L142.234 222.526
L142.382 231.906
L142.606 214.211
L142.754 194.759
L142.903 197.948
L143.126 207.704
L143.35 196.991
L143.424 196.063
L143.647 185.25
L143.796 176.995
L143.87 185.063
L144.019 205.334
L144.168 184.322
L144.242 185.635
L144.317 187.738
L144.466 185.053
L144.614 188.331
L144.838 192.142
L144.912 188.222
L145.061 197.751
L145.21 193.387
L145.358 207.991
L145.433 206.806
L145.582 217.055
L145.656 213.145
L145.954 179.622
L146.251 171.179
L146.326 172.512
L146.474 192.073
L146.549 189.545
L146.772 166.173
L146.846 167.447
L147.07 184.648
L147.218 174.754
L147.367 200.22
L147.442 197.307
L147.516 195.845
L147.739 207.378
L147.814 203.103
L148.037 197.415
L148.186 194.621
L148.26 195.687
L148.409 203.369
L148.483 203.044
L148.632 202.352
L148.706 205.808
L149.153 261.016
L149.302 221.983
L149.748 84.7892
L149.822 84.6114
L150.194 144.499
L150.492 214.498
L150.715 254.321
L151.013 230.415
L151.087 230.711
L151.31 254.192
L151.385 248.357
L151.608 193.426
L151.682 192.508
L152.054 171.318
L152.352 200.545
L152.426 194.295
L152.65 155.44
L152.724 156.625
L152.873 161.818
L152.947 159.557
L153.096 149.229
L153.17 151.865
L153.468 184.44
L153.617 174.161
L153.766 188.311
L153.989 255.2
L154.063 253.57
L154.286 202.599
L154.435 175.82
L154.584 186.86
L155.179 228.776
L155.254 223.967
L155.774 114.461
L155.923 141.655
L156.146 185.991
L156.295 177.825
L156.37 178.95
L156.89 264.037
L156.965 264.718
L157.114 241.188
L157.337 204.772
L157.486 190.316
L157.709 157.089
L157.783 159.587
L158.081 194.799
L158.378 165.61
L158.602 180.402
L158.676 178.832
L158.825 158.55
L159.122 173.579
L159.197 173.51
L159.271 176.383
L159.718 216.927
L159.792 215.821
L160.164 241.988
L160.238 237.485
L160.685 160.959
L160.834 165.709
L160.982 179.256
L161.057 179.286
L161.206 193.762
L161.28 191.106
L161.429 174.932
L161.578 180.718
L161.801 204.732
L161.95 196.497
L162.098 204.001
L162.322 243.094
L162.619 206.075
L162.842 179.582
L162.917 185.862
L162.991 180.017
L163.363 84.0585
L163.438 86.1814
L163.586 111.766
L164.256 291.241
L164.33 289.868
L164.554 279.007
L164.628 275.373
L165 211.496
L165.298 150.878
L165.446 131.811
L165.595 132.719
L165.67 132.719
L165.967 109.633
L166.19 120.435
L166.637 203.369
L166.934 284.576
L167.009 278.236
L167.232 241.168
L167.306 242.817
L167.455 249.779
L167.53 247.488
L167.678 240.921
L167.827 239.065
L167.902 235.816
L168.497 117.592
L168.72 142.86
L168.794 139.641
L169.092 110.403
L169.166 105.644
L169.315 120.998
L169.836 259.248
L170.059 309.409
L170.134 303.988
L170.431 243.745
L170.58 229.191
L170.654 230.07
L170.729 231.867
L170.952 182.643
L171.101 160.614
L171.175 162.865
L171.324 174.369
L171.547 131.504
L171.77 96.8259
L171.919 86.1913
L171.994 91.5037
L172.366 186.761
L172.812 345.668
L172.886 342.498
L173.63 130.28
L174.002 90.1805
L174.077 95.3744
L174.226 133.795
L174.598 232.538
L174.746 252.534
L174.821 250.144
L175.118 215.939
L175.267 221.696
L175.342 220.857
L175.565 204.762
L175.862 165.363
L175.937 167.95
L176.309 229.082
L176.383 227.581
L176.606 187.107
L176.904 134.585
L176.978 130.418
L177.053 131.258
L177.276 143.196
L177.35 140.51
L177.574 171.436
L178.094 292.88
L178.169 281.91
L178.615 184.835
L178.69 183.69
L178.987 144.45
L179.062 146.276
L179.359 165.897
L179.434 164.287
L179.657 154.304
L179.806 133.153
L179.88 138.031
L180.103 191.747
L180.401 263.218
L180.475 267.7
L180.624 248.791
L180.922 209.264
L180.996 208.139
L181.145 209.985
L181.219 208.8
L181.517 194.433
L181.666 200.911
L181.889 225.192
L182.186 175.761
L182.707 44.6897
L182.856 75.8134
L183.451 331.271
L183.6 312.707
L183.972 214.419
L184.344 138.742
L184.567 114.856
L184.642 114.353
L184.79 138.16
L185.311 246.352
L185.386 245.345
L185.609 206.085
L185.906 133.529
L186.055 152.872
L186.427 222.16
L186.502 222.071
L186.576 225.735
L186.874 267.839
L187.022 242.679
L187.469 110.324
L187.543 111.973
L187.692 146.592
L187.915 218.813
L188.064 229.724
L188.213 198.057
L188.585 113.652
L188.734 145.082
L189.329 286.748
L189.403 286.343
L189.552 277.121
L189.924 151.45
L190.147 101.496
L190.222 103.096
L190.445 137.676
L190.519 134.862
L190.594 135.583
L191.189 248.367
L191.338 260.542
L191.486 245.434
L192.082 178.121
L192.156 179.049
L192.305 170.765
L192.528 151.766
L192.602 151.648
L192.677 155.361
L192.9 174.566
L193.198 182.989
L193.644 161.66
L193.793 185.27
L193.942 205.216
L194.09 211.644
L194.314 250.381
L194.537 274.188
L194.611 272.568
L194.834 233.032
L195.281 135.138
L195.355 137.083
L195.504 124.01
L195.578 125.136
L195.802 139.562
L195.876 141.221
L196.174 164.257
L196.471 209.551
L196.62 221.874
L196.992 270.742
L197.29 246.994
L197.959 148.281
L198.108 154.847
L198.331 151.056
L198.48 135.286
L198.778 181.765
L198.852 183.878
L198.926 183.335
L199.075 188.035
L199.224 197.534
L199.373 196.319
L199.447 193.229
L199.596 198.284
L199.745 212.227
L200.117 249.69
L200.191 249.157
L200.34 227.789
L200.638 161.078
L200.712 161.315
L200.935 174.221
L201.158 162.707
L201.382 138.051
L201.456 138.091
L201.53 139.838
L201.679 159.903
L202.2 267.345
L202.274 269.962
L202.423 248.475
L202.721 191.086
L202.944 169.609
L203.093 164.623
L203.242 169.925
L203.39 173.984
L203.465 174.171
L203.539 173.085
L203.688 177.341
L203.762 182.051
L203.986 209.65
L204.134 202.52
L204.506 165.344
L204.581 166.203
L204.878 203.972
L204.953 201.414
L205.027 200.565
L205.102 202.797
L205.548 180.668
L205.622 176.067
L205.697 179.089
L205.994 209.106
L206.143 214.982
L206.218 214.942
L206.292 214.745
L206.366 215.337
L206.441 214.656
L206.515 212.74
L207.036 162.48
L207.11 163.458
L207.408 172.67
L207.557 169.461
L207.631 166.529
L207.706 168.355
L207.854 196.24
L208.078 226.367
L208.226 235.036
L208.301 235.096
L208.45 241.188
L208.598 221.647
L208.97 137.133
L209.119 148.449
L209.64 215.396
L209.789 236.616
L209.863 236.034
L210.086 216.127
L210.384 161.078
L210.458 161.789
L210.607 155.469
L210.682 156.694
L210.756 152.112
L210.83 154.423
L211.426 252.82
L211.5 242.096
L212.021 160.525
L212.244 167.694
L212.542 208.534
L212.765 170.044
L212.839 171.476
L213.062 183.621
L213.137 183.66
L213.211 181.488
L213.286 185.477
L213.583 233.93
L213.806 211.822
L213.881 210.262
L214.03 216.275
L214.178 194.542
L214.327 175.593
L214.402 178.654
L214.476 181.508
L214.55 177.38
L214.774 139.71
L214.922 153.248
L215.592 215.406
L215.815 200.417
L215.89 204.327
L216.038 221.884
L216.187 200.674
L216.336 191.678
L216.41 193.633
L216.634 183.611
L216.708 184.47
L217.006 216.127
L217.08 213.678
L217.154 209.255
L217.229 210.983
L217.303 209.6
L217.452 217.756
L217.526 214.577
L217.824 178.19
L217.973 171.1
L218.196 148.567
L218.345 159.024
L218.494 169.54
L218.642 160.594
L218.791 174.349
L218.866 171.416
L218.94 172.246
L219.312 221.291
L219.61 209.008
L219.758 230.998
L219.833 229.299
L220.056 206.055
L220.13 210.825
L220.354 232.242
L220.874 157.632
L220.949 156.585
L221.098 145.279
L221.321 174.329
L221.395 183.651
L221.47 181.715
L221.767 156.279
L221.842 157.237
L221.99 189.032
L222.288 255.614
L222.362 256.523
L222.511 233.377
L222.734 195.905
L222.809 195.569
L222.883 196.941
L223.181 160.604
L223.702 224.52
L223.776 219.524
L224.148 159.301
L224.297 165.739
L224.371 165.156
L224.669 158.688
L224.743 155.124
L224.818 157.148
L225.264 206.845
L225.338 205.512
L225.636 191.194
L225.71 192.123
L225.785 192.133
L225.934 203.656
L226.157 224.382
L226.306 229.991
L226.454 212.661
L226.752 181.31
L226.826 178.713
L226.901 182.11
L226.975 181.142
L227.124 173.766
L227.198 174.566
L227.496 213.895
L227.57 212.256
L227.645 212.345
L228.166 171.792
L228.389 180.402
L228.538 167.891
L228.761 151.184
L229.058 161.937
L229.207 183.858
L229.579 267.305
L230.323 163.734
L230.398 164.564
L230.621 182.485
L230.695 180.846
L231.067 159.064
L231.142 161.137
L231.737 218.773
L231.811 217.203
L232.183 196.734
L232.258 195.342
L232.555 176.65
L232.704 177.686
L232.927 198.817
L233.002 195.45
L233.076 195.677
L233.225 200.605
L233.448 232.123
L233.522 229.378
L234.118 152.724
L234.192 154.581
L234.564 190.957
L234.713 199.469
L235.085 172.957
L235.159 173.283
L235.457 204.86
L235.606 212.434
L235.68 209.126
L236.052 163.596
L236.126 158.965
L236.275 175.267
L236.35 174.339
L236.424 168.148
L236.573 185.003
L236.796 236.182
L236.87 235.56
L237.168 206.263
L237.317 202.738
L237.391 205.68
L237.466 205.473
L237.614 200.624
L237.689 203.024
L237.763 213.056
L238.135 179.513
L238.284 182.92
L238.582 162.5
L238.656 162.302
L238.879 179.158
L239.102 189.457
L239.326 194.562
L239.549 202.668
L239.623 198.61
L239.846 166.529
L239.995 177.321
L240.516 236.577
L240.59 238.937
L241.037 176.077
L241.334 136.412
L241.781 185.527
L241.93 180.896
L242.078 181.429
L242.153 182.979
L242.525 209.936
L242.599 210.736
L242.748 205.957
L242.822 202.422
L242.897 202.817
L242.971 204.229
L243.046 203.764
L243.12 204.11
L243.194 201.977
L243.269 203.024
L243.418 208.346
L243.492 207.28
L243.864 176.097
L244.162 198.571
L244.385 195.519
L244.459 196.092
L244.682 181.695
L244.757 170.923
L244.831 171.485
L244.906 168.395
L244.98 168.424
L245.054 168.503
L245.203 162.569
L245.65 193.021
L245.798 189.279
L245.947 205.808
L246.096 225.764
L246.245 219.692
L246.468 189.417
L246.542 194.325
L246.691 204.732
L246.84 221.765
L246.914 221.133
L247.286 172.236
L247.361 174.843
L247.584 187.028
L247.882 174.26
L248.03 167.397
L248.105 160.071
L248.402 179.622
L248.7 243.518
L248.774 248.13
L248.849 242.876
L249.221 171.505
L249.295 169.392
L249.742 181.034
L249.89 180.422
L249.965 182.742
L250.039 178.852
L250.262 155.213
L250.337 157.652
L250.486 173.717
L250.783 224.787
L250.932 234.266
L251.974 166.548
L252.42 199.706
L252.494 202.115
L252.643 195.628
L252.941 176.571
L253.015 176.6
L253.09 177.943
L253.313 189.545
L253.536 204.86
L253.61 207.043
L253.685 206.588
L253.834 217.381
L253.982 210.983
L254.206 175.327
L254.28 176.274
L254.429 181.636
L254.503 183.068
L254.801 170.646
L255.098 186.001
L255.322 216.038
L255.396 212.464
L255.768 175.396
L255.842 173.362
L255.917 174.161
L256.066 169.264
L256.14 172.246
L256.512 209.877
L256.586 212.74
L256.81 235.579
L256.884 231.116
L257.256 177.064
L257.479 167.753
L257.777 194.433
L257.851 194.098
L257.926 191.708
L258 193.594
L258.074 192.063
L258.223 194.196
L258.372 192.231
L258.67 208.583
L258.744 206.431
L259.116 162.223
L259.19 161.611
L259.414 145.97
L259.637 152.398
L259.711 158.629
L260.083 233.091
L260.158 232.765
L260.381 244.269
L260.976 182.367
L261.05 185.349
L261.125 185.596
L261.274 188.627
L261.348 186.603
L261.422 190.424
L261.497 188.558
L261.646 192.725
L261.943 171.081
L262.166 174.675
L262.315 193.752
L262.538 174.023
L262.91 184.075
L262.985 183.246
L263.059 183.779
L263.134 185.507
L263.431 210.153
L263.58 207.398
L263.803 228.835
L263.878 226.999
L264.101 204.357
L264.175 204.347
L264.25 207.092
L264.473 178.2
L264.845 136.501
L264.919 134.052
L265.217 171.318
L265.291 174.704
L265.886 250.48
L265.961 247.814
L266.11 233.14
L266.407 200.911
L266.556 187.669
L266.854 148.222
L266.928 150.967
L267.002 156.111
L267.3 219.099
L267.374 216.947
L267.598 176.146
L267.821 147.116
L267.895 147.629
L267.97 146.207
L268.044 148.518
L268.193 172.186
L268.565 229.477
L268.714 235.905
L269.011 222.802
L269.309 178.407
L269.458 165.423
L269.532 167.022
L269.83 188.262
L269.904 186.484
L270.053 191.994
L270.127 192.103
L270.202 191.53
L270.35 205.562
L270.425 212.059
L270.797 180.619
L270.871 180.905
L271.02 195.519
L271.169 198.087
L271.541 187.946
L271.615 188.242
L271.69 193.91
L271.764 192.863
L271.838 189.378
L271.913 193.258
L272.21 224.333
L272.731 138.91
L272.806 140.855
L272.88 141.468
L273.103 172.226
L273.475 230.869
L273.624 234.088
L273.996 220.255
L274.145 224.629
L274.517 150.394
L274.591 150.917
L274.666 157.118
L274.74 156.397
L274.814 157.898
L274.963 170.133
L275.038 167.812
L275.112 166.815
L275.484 195.105
L275.633 216.216
L275.707 215.959
L276.154 199.459
L276.228 200.22
L276.377 210.597
L276.451 210.084
L276.749 200.437
L276.898 180.412
L276.972 181.133
L277.27 206.184
L277.567 164.781
L277.716 179.582
L277.79 192.281
L277.865 191.323
L278.014 177.528
L278.162 152.379
L278.534 189.002
L278.609 196.141
L278.758 190.711
L278.832 192.32
L278.981 183.226
L279.204 222.377
L279.278 222.289
L279.353 221.005
L279.576 229.497
L279.65 232.212
L279.725 231.709
L280.097 190.049
L280.32 161.562
L280.618 176.808
L280.692 180.698
L281.138 156.822
L281.287 159.923
L281.436 173.658
L281.882 234.493
L282.106 212.78
L282.329 196.191
L282.403 195.974
L282.478 195.263
L282.552 197.791
L282.626 208.593
L282.701 208.504
L282.924 188.765
L283.073 192.458
L283.37 175.159
L283.742 202.027
L283.817 201.77
L284.114 179.701
L284.412 161.325
L284.486 164.741
L284.858 202.451
L285.007 204.841
L285.082 205.581
L285.156 204.396
L285.305 197.8
L285.528 205.68
L285.751 191.076
L285.974 156.289
L286.049 157.968
L286.198 177.38
L286.421 214.231
L286.57 221.992
L286.718 229.27
L286.867 220.373
L286.942 222.002
L287.016 221.005
L287.239 181.212
L287.462 145.684
L287.686 158.066
L287.983 184.46
L288.132 190.75
L288.355 179.256
L288.504 184.46
L288.653 209.343
L288.802 233.486
L288.876 234.355
L289.025 217.855
L289.248 192.172
L289.471 186.346
L289.546 185.991
L289.694 187.472
L289.843 172.305
L289.918 175.949
L290.066 189.703
L290.29 187.926
L290.438 175.544
L290.513 175.702
L290.885 192.626
L291.108 210.825
L291.182 210.597
L291.554 172.206
L291.703 185.685
L292.075 215.939
L292.15 216.641
L292.447 194.423
L292.522 194.7
L292.745 214.123
L292.819 212.908
L293.117 195.875
L293.34 182.16
L293.414 185.072
L293.563 194.532
L293.638 195.174
L294.307 132.818
L294.382 135.889
L294.754 187.008
L295.126 250.223
L295.423 205.463
L295.498 207.991
L295.646 218.22
L295.721 215.14
L296.018 175.988
L296.093 176.827
L296.539 230.158
L296.614 240.487
L296.688 238.265
L296.986 197.692
L297.432 122.943
L297.73 146.108
L297.878 148.923
L298.102 174.704
L298.399 212.316
L298.548 205.947
L298.622 206.717
L298.846 212.029
L299.143 241.82
L299.218 245.799
L299.441 230.149
L299.59 199.005
L299.887 141.25
L299.962 142.346
L300.408 202.224
L300.482 203.024
L300.631 190.168
L300.854 216.581
L300.929 216.226
L301.078 191.836
L301.301 167.447
L301.375 164.188
L301.598 146.81
L301.673 148.468
L301.822 174.803
L301.97 200.96
L302.045 199.775
L302.119 203.093
L302.342 220.63
L302.417 220.294
L302.566 203.241
L302.64 204.189
L302.789 212.513
L302.938 222.693
L303.012 222.111
L303.086 220.264
L303.682 179.572
L303.905 151.954
L304.426 167.832
L304.649 184.865
L304.723 182.268
L304.798 183.552
L304.946 196.882
L305.095 204.268
L305.244 199.588
L305.393 210.785
L305.69 238.532
L305.765 238.64
L305.914 232.331
L305.988 227.601
L306.509 134.19
L306.583 141.191
L307.104 215.693
L307.476 158.303
L307.625 167.23
L307.699 166.608
L307.774 161.7
L307.922 183.651
L308.22 224.925
L308.294 227.749
L308.369 227.394
L308.443 227.324
L308.741 201.325
L308.89 212.207
L308.964 210.341
L309.708 160.989
L309.931 182.219
L310.006 190.089
L310.08 186.968
L310.229 174.408
L310.526 192.212
L310.824 169.698
L310.898 170.982
L311.27 228.164
L311.494 199.38
L311.642 209.334
L311.94 182.298
L312.014 178.595
L312.089 180.343
L312.238 196.132
L312.386 215.831
L312.982 161.424
L313.13 178.417
L313.354 213.836
L313.502 215.643
L313.651 234.938
L313.8 207.359
L314.246 135.346
L314.618 202.876
L314.99 168.582
L315.065 165.561
L315.214 188.242
L315.362 209.126
L315.437 210.242
L315.511 214.123
L315.66 233.901
L315.734 231.067
L315.809 223.385
L315.883 224.402
L315.958 229.418
L316.032 227.117
L316.106 223.671
L316.33 204.08
L316.404 208.346
L316.478 204.456
L316.925 148.064
L317.074 141.922
L317.148 143.028
L317.371 153.198
L317.446 152.626
L317.594 193.554
L317.743 215.475
L317.966 181.992
L318.041 183.088
L318.115 182.9
L318.19 180.708
L318.264 181.636
L318.413 211.17
L318.562 235.885
L318.636 236.369
L318.785 243.686
L318.934 242.847
L319.752 141.961
L320.273 183.868
L320.422 173.608
L320.496 174.23
L320.794 186.208
L320.942 203.004
L321.017 202.925
L321.091 203.804
L321.24 212.671
L321.314 211.97
L321.389 209.956
L321.463 210.143
L321.612 206.48
L321.686 202.807
L321.761 202.876
L321.835 201.355
L322.133 181.607
L322.207 182.219
L322.356 196.171
L322.654 189.447
L322.728 192.3
L322.877 204.831
L323.026 199.558
L323.174 208.662
L323.323 191.451
L323.621 145.793
L323.695 150.147
L323.918 184.016
L323.993 182.93
L324.067 183.957
L324.216 199.854
L324.365 223.464
L325.034 160.406
L325.109 162.312
L325.481 216.65
L325.704 202.955
L325.778 202.994
L326.002 215.367
L326.076 213.194
L326.448 172.976
L326.671 148.054
L326.82 175.633
L327.043 214.843
L327.118 219.879
L327.192 219.425
L327.415 203.241
L327.862 159.35
L328.085 152.793
L328.159 156.891
L328.606 225.448
L328.68 223.859
L328.829 221.607
L329.424 163.744
L329.87 221.094
L329.945 223
L330.019 222.348
L330.094 223.799
L330.168 222.397
L330.466 174.556
L330.614 157.612
L330.689 156.792
L330.838 168.434
L330.912 167.842
L331.061 157.069
L331.21 161.572
L331.284 158.234
L331.507 187.215
L331.805 225.132
L331.954 217.924
L332.326 239.43
L332.474 224.955
L332.846 179.474
L332.921 180.984
L333.144 163.231
L333.218 166.045
L333.293 168.02
L333.367 166.548
L333.665 141.951
L333.739 145.289
L334.26 197.8
L334.334 198.304
L334.409 198.215
L334.706 250.509
L334.781 247.626
L335.004 210.696
L335.302 156.891
L335.376 157.671
L335.525 167.674
L335.599 165.274
L335.674 165.59
L335.748 168.622
L336.343 252.297
L336.418 251.902
L336.492 249.403
L336.715 216.966
L337.013 162.836
L337.087 161.739
L337.236 166.143
L337.31 169.57
L337.608 151.283
L337.831 126.291
L337.906 129.747
L338.352 198.156
L338.426 195.826
L338.501 197.85
L338.575 194.729
L338.724 201.543
L338.798 205.897
L339.096 245.849
L339.17 246.105
L339.319 232.755
L339.914 155.509
L339.989 152.655
L340.361 219.139
L340.584 250.588
L341.105 159.113
L341.254 163.774
L341.402 172.453
L341.477 170.458
L341.626 159.942
L342.072 180.264
L342.146 182.14
L342.667 220.067
L342.742 220.116
L342.816 220.383
L342.965 222.911
L343.039 215.436
L343.411 142.327
L343.486 133.361
L343.56 136.55
L343.709 156.634
L343.783 155.983
L343.858 153.504
L343.932 154.581
L344.081 172.216
L344.304 205.384
L344.378 206.174
L344.602 220.728
L344.676 219.149
L344.825 222.851
L344.899 221.992
L344.974 222.624
L345.197 239.934
L345.643 208.02
L345.718 208.711
L345.792 210.114
L345.941 215.278
L346.238 199.834
L346.685 117.147
L346.759 115.301
L347.057 135.069
L347.429 185.388
L348.098 247.448
L348.173 246.915
L348.322 245.71
L348.47 228.174
L348.991 126.676
L349.066 126.903
L349.214 142.1
L349.81 238.522
L349.884 232.795
L350.479 182.337
L350.554 183.552
L351 224.905
L351.074 226.377
L351.223 213.204
L351.595 153.011
L351.67 154.176
L351.818 168.553
L352.042 196.369
L352.19 202.283
L352.488 221.973
L352.562 219.198
L352.934 161.117
L353.232 117.977
L353.306 121.857
L354.05 248.771
L354.125 247.606
L354.794 156.723
L354.869 158.353
L355.687 264.807
L355.836 233.506
L356.059 181.863
L356.357 163.912
L356.58 158.866
L356.803 167.012
L356.878 164.662
L356.952 166.351
L357.324 188.311
L357.547 172.967
L357.622 174.26
L357.845 186.297
L358.068 201.809
L358.142 202.787
L358.217 200.397
L358.291 201.701
L358.44 216.759
L358.589 207.971
L358.812 224.619
L358.886 222.328
L359.035 213.856
L359.407 181.547
L359.482 180.599
L359.556 181.379
L359.705 171.663
L359.928 149.337
L360.002 144.489
L360.077 146.128
L361.118 241.85
L361.193 241.534
L361.267 238.739
L361.416 211.249
L361.788 130.705
L361.862 133.45
L362.458 231.758
L362.532 234.454
L362.606 232.973
L363.127 192.083
L363.35 180.451
L363.648 151.678
L363.722 149.841
L363.871 157.681
L364.094 166.292
L364.243 181.695
L364.615 233.328
L364.69 234.424
L364.838 219.04
L365.062 197.514
L365.136 200.21
L365.21 198.936
L365.434 189.95
L365.582 182.248
L365.657 184.737
L365.731 183.167
L365.954 169.53
L366.029 169.313
L366.178 172.206
L366.326 181.449
L366.698 214.33
L366.773 214.389
L366.847 214.735
L367.07 186.84
L367.219 172.177
L367.294 172.009
L367.368 173.5
L367.517 182.94
L367.666 192.577
L367.74 190.73
L368.038 225.034
L368.112 220.58
L368.707 161.108
L368.93 152.211
L369.005 156.289
L369.154 183.127
L369.377 223.878
L369.451 224.56
L369.674 217.223
L369.749 213.421
L369.823 215.209
L370.046 222.723
L370.195 199.676
L370.493 156.615
L370.567 155.301
L370.716 164.623
L371.014 209.136
L371.311 187.837
L371.386 188.015
L371.46 185.754
L371.758 169.698
L371.906 176.393
L372.427 228.085
L372.502 230.119
L372.874 163.833
L373.097 137.34
L373.171 135.987
L373.32 164.672
L373.543 213.51
L373.692 226.762
L373.766 224.481
L373.99 208.771
L374.138 200.447
L374.213 200.516
L374.287 204.86
L374.362 204.317
L374.51 199.943
L374.585 200.506
L374.659 202.412
L374.734 200.753
L374.808 201.049
L374.882 201.661
L375.031 196.971
L375.18 205.117
L375.254 204.92
L375.403 208.04
L375.626 189.16
L375.924 147.767
L375.998 145.496
L376.073 148.992
L376.519 194.799
L376.891 170.458
L376.966 171.367
L377.114 175.86
L377.263 172.7
L377.412 184.164
L377.784 256.621
L377.858 255.18
L378.007 252.692
L378.156 226.643
L378.379 188.548
L378.826 170.143
L379.049 180.244
L379.123 180.876
L379.272 188.509
L379.495 172.127
L379.942 139.098
L380.016 140.618
L380.537 240.408
L380.611 238.69
L380.983 205.423
L381.058 205.147
L381.281 201.691
L381.355 203.695
L381.504 215.248
L381.727 187.028
L381.876 192.182
L382.099 203.824
L382.248 192.449
L382.694 131.761
L382.843 109.939
L382.918 110.996
L383.141 186.998
L383.364 234.533
L383.736 210.222
L383.885 202.866
L383.959 202.955
L384.182 186.978
L384.257 187.008
L384.48 200.99
L384.778 237.999
L384.926 227.887
L385.67 137.547
L385.745 139.582
L386.266 183.779
L386.414 179.355
L386.638 196.477
L386.712 196.349
L386.861 189.18
L387.158 226.564
L387.382 250.45
L387.605 234.029
L388.051 170.429
L388.349 105.328
L388.572 121.443
L388.646 121.117
L388.721 130.211
L389.018 213.767
L389.167 223.503
L389.242 221.143
L389.316 218.763
L389.465 231.027
L389.762 272.884
L389.837 270.515
L390.06 237.13
L390.432 174.803
L390.804 114.047
L390.878 115.083
L391.102 139.72
L391.548 229.862
L391.622 235.708
L391.771 220.679
L392.366 154.867
L392.441 151.569
L392.515 153.307
L392.962 234.691
L393.334 185.586
L393.482 176.403
L393.557 179.029
L393.78 204.673
L393.929 228.411
L394.003 225.123
L394.152 207.181
L394.226 207.902
L394.375 229.586
L394.45 228.549
L394.673 201.701
L394.747 199.607
L394.97 169.856
L395.119 154.304
L395.194 153.949
L395.268 156.18
L395.417 145.437
L395.491 146.958
L395.566 149.88
L395.714 145.694
L396.235 217.519
L396.31 215.475
L396.607 191.738
L396.682 192.192
L396.83 208.356
L397.054 232.37
L397.128 232.607
L397.351 237.544
L397.426 236.873
L397.649 203.784
L397.872 177.716
L397.946 176.985
L398.095 162.806
L398.17 167.269
L398.318 179.888
L398.765 135.01
L398.988 168.207
L399.434 216.641
L399.509 216.769
L399.583 213.076
L399.658 213.461
L399.732 216.769
L399.806 215.722
L400.104 190.108
L400.178 194.216
L400.402 201.503
L400.55 224.54
L400.625 222.111
L400.699 216.808
L400.848 225.063
L400.922 217.361
L401.146 171.851
L401.294 159.024
L401.518 137.863
L401.666 147.728
L401.89 201.641
L402.113 247.873
L402.262 228.519
L402.559 171.584
L402.634 171.239
L402.857 145.733
L402.931 145.437
L403.006 143.808
L403.08 148.607
L403.452 221.884
L403.526 221.588
L403.601 221.607
L403.675 218.062
L403.824 193.574
L404.196 220.57
L404.27 216.848
L404.419 202.056
L404.494 202.738
L404.568 201.671
L404.94 173.52
L405.163 183.917
L405.386 154.047
L405.758 213.135
L405.833 210.104
L405.982 189.634
L406.13 195.855
L406.279 187.067
L406.354 189.269
L406.428 193.15
L406.502 190.168
L406.726 167.16
L407.023 189.792
L407.246 240.329
L407.321 236.567
L407.767 160.713
L407.842 164.672
L407.99 174.586
L408.139 155.4
L408.288 177.39
L408.362 189.397
L408.437 187.926
L408.511 182.367
L408.66 198.255
L408.883 211.861
L408.958 209.867
L409.255 179.118
L409.33 174.379
L409.404 175.544
L409.627 182.831
L409.85 226.011
L409.925 219.119
L410.074 236.33
L410.148 243.637
L410.222 241.494
L410.52 185.438
L410.594 187.857
L410.743 174.882
L410.892 166.746
L410.966 168.533
L411.338 207.882
L411.413 209.225
L411.562 186.919
L411.785 157.503
L411.859 154.985
L412.082 131.811
L412.231 157.029
L412.306 154.956
L412.38 150.196
L412.752 212.306
L412.826 212.039
L412.975 205.176
L413.198 233.733
L413.273 232.518
L413.347 228.973
L413.422 231.008
L413.496 236.932
L413.57 236.32
L413.719 227.206
L413.942 263.869
L414.389 178.101
L414.463 172.493
L414.538 174.112
L414.612 179.335
L414.686 178.921
L414.984 138.416
L415.133 140.589
L415.282 136.56
L415.505 163.201
L415.579 159.784
L415.654 155.627
L415.802 162.006
L415.877 158.767
L415.951 166.608
L416.249 233.763
L416.323 236.359
L416.546 210.321
L416.621 211.427
L416.77 220.956
L416.844 220.077
L416.993 216.107
L417.067 217.045
L417.216 203.379
L417.365 184.697
L417.439 186.988
L417.588 212.839
L417.811 252.366
L418.332 132.038
L418.406 135.671
L418.63 168.533
L418.778 156.427
L418.927 158.52
L419.002 160.663
L419.15 192.419
L419.374 228.845
L419.448 233.506
L419.522 233.17
L419.671 222.328
L419.746 223.375
L419.82 226.416
L420.043 219.02
L420.118 221.657
L420.192 222.644
L420.266 222.575
L420.49 175.119
L420.862 126.153
L420.936 120.919
L421.085 140.618
L421.308 163.467
L421.382 165.462
L421.829 216.927
L422.126 270.594
L422.573 199.094
L422.87 167.694
L423.094 188.647
L423.242 172.868
L423.317 174.833
L423.466 193.14
L423.689 218.921
L423.912 228.766
L424.061 207.991
L424.21 193.831
L424.284 195.391
L424.358 193.959
L424.879 118.974
L424.954 121.512
L425.102 136.096
L425.623 232.262
L425.772 240.27
L426.293 192.281
L426.367 193.989
L426.59 208.879
L426.665 207.645
L426.739 208.711
L426.962 216.147
L427.334 195.638
L427.558 164.455
L427.781 177.025
L427.855 175.919
L428.004 166.608
L428.153 174.418
L428.302 163.971
L428.599 181.103
L428.822 173.747
L429.194 193.643
L429.343 233.822
L429.418 228.075
L429.566 203.389
L430.013 229.951
L430.087 227.463
L430.31 209.373
L430.459 218.201
L430.608 195.421
L431.129 117.967
L431.203 122.134
L431.575 200.338
L431.724 194.631
L431.947 163.349
L432.245 202.777
L432.319 205.167
L432.468 224.194
L432.691 255.407
L432.766 254.775
L433.584 133.855
L433.658 134.022
L433.733 140.46
L433.807 139.117
L433.882 132.294
L434.328 159.765
L434.626 226.13
L434.774 260.65
L434.849 255.545
L435.146 220.215
L435.37 209.501
L435.667 163.142
L435.742 162.589
L435.89 178.565
L436.114 208.356
L436.188 207.882
L436.337 203.804
L436.411 203.29
L436.486 205.463
L436.56 203.982
L436.709 195.055
L437.23 139.759
L437.378 154.808
L437.602 188.835
L437.676 187.817
L437.75 189.111
L437.825 194.236
L438.122 247.991
L438.197 247.903
L439.015 149.416
L439.09 151.253
L439.387 187.877
L439.462 184.608
L439.536 183.473
L439.834 208.119
L440.057 253.235
L440.131 251.428
L440.28 227.947
L440.578 177.647
L440.95 138.258
L441.47 192.676
L441.545 191.668
L441.694 186.642
L441.768 190.76
L442.066 223.641
L442.214 211.921
L442.438 191.886
L442.586 206.519
L442.735 218.645
L442.884 200.19
L443.107 160.169
L443.554 200.19
L443.628 198.64
L443.777 193.011
L444.074 237.594
L444.223 222.95
L444.595 116.17
L444.67 122.262
L444.893 162.796
L444.967 161.858
L445.042 164.178
L445.265 191.984
L445.562 242.551
L445.86 235.708
L446.381 166.538
L446.53 173.589
L446.753 195.47
L446.902 206.776
L447.05 200.407
L447.125 200.486
L447.199 197.396
L447.422 172.078
L447.497 172.137
L447.646 193.554
L447.72 203.399
L448.018 183.601
L448.166 179.355
L448.464 163.882
L448.687 184.075
L448.762 180.185
L448.836 178.437
L449.059 198.136
L449.357 239.519
L449.58 228.776
L449.878 196.23
L449.878 196.23" style="fill:none;stroke:#808080;stroke-linecap:square;"/>
   </g>
  </g>
 </g>
 <defs>
  <clipPath id="p7ff5b81e1d">
   <rect height="345.6" width="446.4" x="72.0" y="43.2"/>
  </clipPath>
 </defs>
</svg>
