<?xml version="1.0" encoding="utf-8" standalone="no"?>
<!DOCTYPE svg PUBLIC "-//W3C//DTD SVG 1.1//EN"
  "http://www.w3.org/Graphics/SVG/1.1/DTD/svg11.dtd">
<!-- Created with matplotlib (http://matplotlib.org/) -->
<svg height="432pt" version="1.1" viewBox="0 0 576 432" width="576pt" xmlns="http://www.w3.org/2000/svg" xmlns:xlink="http://www.w3.org/1999/xlink">
 <defs>
  <style type="text/css">
*{stroke-linecap:butt;stroke-linejoin:round;}
  </style>
 </defs>
 <g id="figure_1">
  <g id="patch_1">
   <path d="
M0 432
L576 432
L576 0
L0 0
z
" style="fill:#ffffff;"/>
  </g>
  <g id="axes_1">
   <g id="line2d_1">
    <path clip-path="url(#p7ff5b81e1d)" d="
M72 139.356
L72.0744 138.679
L72.1488 143.171
L72.6696 220.171
L72.8184 218.802
L73.116 247.059
L73.5624 293.12
L74.0088 350.227
L74.0832 349.978
L74.232 328.399
L74.8272 191.002
L74.9016 191.071
L75.0504 199.421
L75.6456 266.44
L75.72 263.067
L76.1664 176.197
L76.2408 177.579
L76.6872 248.842
L77.1336 333.016
L77.208 337.703
L77.2824 337.412
L77.4312 317.713
L77.8032 257.413
L77.952 252.74
L78.2496 209.513
L78.324 210.107
L78.4728 209.098
L78.696 216.48
L78.9192 201.301
L79.068 215.761
L79.6632 314.202
L79.7376 312.736
L79.8864 304.428
L79.9608 304.11
L80.2584 273.532
L80.6304 177.289
L80.7048 172.782
L80.928 193.422
L81.3 239.621
L81.5976 284.936
L81.672 285.268
L82.1928 244.266
L82.2672 244.418
L82.5648 270.007
L82.9368 303.931
L83.0112 304.027
L83.0856 303.143
L83.2344 293.701
L83.532 226.046
L83.7552 188.777
L83.8296 187.574
L84.4992 251.676
L84.5736 252.588
L84.7968 246.409
L84.8712 247.031
L84.9456 248.966
L85.4664 302.12
L85.5408 298.982
L85.9872 231.783
L86.0616 232.474
L86.136 235.682
L86.2848 222.355
L86.5824 194.458
L86.7312 216.466
L87.252 321.722
L87.3264 323.353
L87.4008 320.713
L87.6984 283.305
L88.2192 169.727
L88.6656 228.396
L88.8144 225.507
L89.3352 280.665
L89.484 283.139
L89.5584 282.821
L90.0048 293.687
L90.0792 289.816
L90.4512 235.405
L90.7488 227.636
L90.8976 215.111
L91.0464 202.158
L91.1952 216.3
L91.4928 251.386
L91.6416 261.588
L91.8648 281.162
L91.9392 280.775
L92.1624 266.053
L92.46 243.257
L92.5344 244.266
L92.6088 243.99
L92.832 237.382
L93.4272 289.388
L93.5016 285.241
L93.7248 232.184
L93.948 181.975
L94.0224 179.155
L94.1712 198.371
L94.692 298.774
L94.7664 299.949
L94.9152 297.226
L94.9896 293.894
L95.436 245.759
L95.6592 249.588
L96.0312 263.482
L96.1056 262.984
L96.18 262.583
L96.2544 263.302
L96.3288 263.205
L96.4776 248.123
L96.924 151.701
L96.9984 153.111
L97.1472 176.819
L97.3704 247.252
L97.668 326.699
L97.7424 328.883
L98.412 263.965
L98.5608 258.325
L98.784 277.361
L98.9328 268.099
L99.3048 216.231
L99.3792 217.102
L99.528 226.627
L99.7512 221.567
L99.8256 221.664
L99.9 223.309
L100.272 260.109
L100.793 232.046
L100.867 232.806
L101.016 228.783
L101.388 239.497
L101.537 272.813
L101.76 325.026
L101.909 333.707
L102.132 315.059
L102.43 232.101
L102.653 192.62
L102.802 182.044
L102.876 181.796
L103.174 192.219
L103.322 214.807
L103.769 299.078
L103.992 326.574
L104.066 328.814
L104.141 328.261
L104.364 301.954
L105.034 158.723
L105.108 156.373
L105.182 159.746
L105.48 221.484
L106.075 365.572
L106.298 307.47
L106.745 170.322
L106.968 194.749
L107.414 246.506
L107.638 268.735
L107.861 282.033
L107.935 282.628
L108.01 281.632
L108.977 223.655
L109.051 227.802
L109.274 259.376
L109.349 257.869
L109.646 242.58
L109.721 239.69
L109.795 242.359
L110.093 261.449
L110.242 265.002
L110.465 273.158
L110.539 272.536
L111.134 233.981
L111.283 240.257
L111.581 252.367
L111.804 258.477
L111.878 256.846
L112.027 247.75
L112.102 248.897
L112.399 265.832
L112.548 263.136
L112.771 245.787
L112.846 245.497
L112.92 245.69
L113.069 249.201
L113.143 247.681
L113.515 223.364
L113.59 221.387
L113.813 229.253
L114.557 279.075
L114.631 278.218
L114.706 278.398
L114.78 280.167
L114.854 279.227
L115.003 285.752
L115.226 301.719
L115.97 198.384
L116.194 176.819
L116.268 175.92
L116.417 182.597
L116.491 187.961
L116.566 187.228
L116.714 194.292
L117.682 328.883
L117.83 333.97
L117.905 334.993
L117.979 340.55
L118.128 319.441
L118.946 160.092
L119.021 162.718
L119.17 196.587
L119.393 242.082
L119.616 257.703
L119.765 245.967
L120.137 212.817
L120.211 213.577
L120.434 242.359
L120.955 333.251
L121.03 338.269
L121.104 336.5
L122.071 200.016
L122.146 200.596
L122.518 237.7
L122.666 239.843
L122.741 238.17
L123.113 206.388
L123.262 224.318
L123.708 291.931
L123.782 291.448
L123.931 304.774
L124.08 315.045
L124.229 293.134
L124.526 239.829
L124.601 238.82
L124.75 246.99
L124.824 246.727
L125.122 229.129
L125.345 244.211
L125.419 241.916
L125.791 215.706
L125.94 211.351
L126.014 213.287
L126.238 205.808
L126.312 207.785
L126.461 233.94
L126.758 299.479
L127.056 312.488
L127.205 315.487
L127.354 321.985
L127.428 319.648
L127.577 288.337
L127.874 234.133
L127.949 230.553
L128.023 232.488
L128.098 232.004
L128.246 220.157
L128.544 188.293
L128.693 183.302
L129.065 168.165
L129.139 173.349
L129.288 215.899
L129.586 304.981
L129.809 342.5
L130.032 371.101
L130.181 353.241
L130.478 263.523
L130.776 204.909
L130.85 202.158
L130.925 203.098
L131.074 201.702
L131.222 208.006
L131.446 221.844
L131.669 248.123
L131.743 246.755
L132.041 216.121
L132.115 217.13
L132.338 239.414
L132.636 256.321
L132.785 260.827
L133.008 274.845
L133.157 288.517
L133.306 279.047
L133.678 234.99
L133.752 240.078
L134.273 291.254
L134.347 288.544
L134.496 293.798
L134.645 279.117
L135.166 169.409
L135.24 171.607
L135.463 215.07
L135.761 246.533
L136.133 272.771
L136.505 309.142
L136.877 274.25
L137.249 224.816
L137.472 198.453
L137.621 204.84
L137.695 201.052
L137.844 185.017
L137.918 186.026
L138.067 203.347
L138.216 239.608
L138.514 323.63
L138.662 328.441
L138.811 320.436
L139.853 215.899
L139.927 216.342
L140.076 219.659
L140.15 218.581
L140.448 200.278
L140.671 222.963
L141.192 276.725
L141.266 276.213
L141.713 259.625
L141.936 232.101
L142.01 233.428
L142.085 233.719
L142.159 233.166
L142.234 231.755
L142.457 239.248
L142.903 299.742
L143.052 302.908
L143.201 296.88
L143.424 266.426
L143.87 215.098
L144.168 232.378
L144.391 241.059
L144.689 259.639
L144.763 261.242
L144.838 260.426
L145.061 237.866
L145.284 224.373
L145.358 219.867
L145.433 222.659
L145.582 230.622
L145.879 214.918
L145.954 220.765
L146.326 281.937
L146.549 294.53
L146.698 300.115
L146.772 296.88
L147.07 274.859
L147.144 272.357
L147.218 273.048
L147.516 279.117
L147.665 264.947
L148.186 183.095
L148.26 183.897
L148.409 190.961
L148.93 246.008
L149.376 320.119
L149.674 289.872
L149.748 291.489
L149.897 285.171
L150.566 222.48
L150.79 217.669
L151.013 223.599
L151.31 246.478
L151.385 249.326
L151.608 241.004
L152.352 272.191
L152.65 289.941
L152.873 275.826
L153.022 257.731
L153.245 226.24
L153.319 228.189
L153.542 244.418
L153.691 242.483
L153.766 242.981
L153.914 236.691
L154.063 229.792
L154.212 233.884
L154.435 225.341
L154.807 257.855
L154.882 256.487
L154.956 257.261
L155.03 256.597
L155.254 243.146
L155.849 272.757
L155.923 271.817
L156.072 267.09
L156.295 272.951
L156.444 255.381
L156.742 228.949
L156.89 224.387
L157.039 235.612
L157.262 250.003
L157.337 250.045
L157.411 252.837
L157.858 301.733
L157.932 296.535
L158.527 201.771
L158.602 202.932
L158.75 206.665
L158.974 198.606
L159.048 198.799
L159.197 207.121
L160.238 322.137
L160.313 320.063
L160.685 291.765
L161.429 176.957
L161.503 172.658
L161.652 199.504
L161.95 247.432
L162.024 249.658
L162.098 249.616
L162.173 247.39
L162.247 248.275
L162.47 252.519
L162.545 252.146
L162.694 249.754
L162.768 251.095
L162.917 258.781
L163.066 255.726
L163.214 263.758
L163.586 296.977
L164.107 274.997
L164.479 246.105
L164.702 225.175
L164.777 224.194
L165 210.674
L165.149 195.08
L165.372 176.059
L165.446 175.45
L165.521 177.054
L165.67 189.468
L165.893 244.183
L166.265 334.26
L166.414 341.2
L166.562 333.707
L166.786 310.732
L167.009 264.062
L167.306 208.517
L167.53 189.012
L167.604 191.652
L168.422 260.523
L168.571 245.192
L168.794 228.645
L168.869 227.553
L168.943 230.622
L169.762 312.266
L169.91 299.383
L170.208 241.916
L170.431 214.061
L170.58 207.881
L170.878 226.516
L171.101 211.116
L171.25 213.176
L171.994 317.893
L172.068 317.782
L172.217 297.281
L172.812 184.533
L172.886 184.146
L173.11 196.504
L173.779 294.544
L173.854 299.217
L173.928 297.019
L174.151 283.457
L174.3 288.213
L174.895 264.546
L175.193 207.176
L175.49 166.119
L175.565 160.272
L175.639 162.442
L175.862 189.371
L176.606 320.602
L176.681 320.616
L176.83 310.967
L177.574 259.874
L177.871 239.967
L178.02 218.678
L178.318 161.778
L178.466 172.008
L178.987 266.136
L179.285 320.824
L179.359 325.026
L179.434 324.114
L179.657 303.502
L180.029 263.191
L180.103 260.689
L180.475 218.111
L180.624 218.678
L180.773 224.304
L180.847 223.046
L181.145 193.021
L181.294 210.688
L181.517 242.607
L181.591 245.248
L181.814 276.891
L182.112 303.834
L182.335 307.981
L182.707 288.088
L183.451 196.85
L183.674 169.865
L183.823 186.081
L184.493 291.434
L184.567 293.95
L184.716 289.664
L184.939 270.905
L185.386 213.77
L185.46 214.296
L185.832 237.492
L186.502 316.842
L187.394 229.253
L187.618 235.875
L187.692 234.866
L187.915 212.416
L188.287 172.962
L188.51 194.389
L188.808 231.742
L189.329 312.17
L189.478 316.386
L189.552 314.63
L189.924 287.922
L190.147 297.682
L190.445 267.587
L190.891 198.578
L191.04 191.224
L191.114 191.638
L191.412 218.816
L191.486 220.503
L191.635 212.526
L191.858 216.521
L192.007 217.102
L192.156 226.419
L192.379 264.145
L192.751 304.691
L192.974 294.807
L193.198 301.152
L193.644 265.002
L193.942 225.673
L194.09 223.572
L194.165 228.023
L194.462 267.753
L194.611 277.693
L194.686 276.379
L194.909 234.451
L195.132 207.398
L195.578 187.657
L195.653 187.823
L196.322 283.706
L196.397 282.835
L196.62 276.96
L196.694 278.978
L196.918 289.291
L196.992 288.738
L197.29 281.674
L197.438 279.946
L197.662 265.099
L197.885 234.548
L198.034 212.485
L198.108 212.623
L198.331 221.844
L198.629 245.068
L198.703 246.589
L198.852 242.939
L198.926 243.34
L199.15 236.525
L199.224 236.152
L199.373 253.086
L199.596 283.043
L200.117 248.068
L200.489 205.753
L200.563 202.545
L200.712 213.591
L201.01 255.229
L201.307 305.258
L201.456 314.423
L201.902 282.559
L202.795 193.021
L203.242 222.037
L203.688 266.053
L203.762 266.011
L204.06 258.463
L204.134 259.597
L204.283 264.823
L204.506 274.14
L204.581 273.725
L204.655 272.384
L204.804 262.016
L204.953 242.206
L205.027 243.478
L205.399 276.269
L205.548 265.68
L205.846 243.755
L206.143 237.313
L206.292 241.059
L206.441 246.077
L206.515 247.307
L206.813 264.809
L206.887 264.422
L206.962 261.449
L207.11 235.198
L207.408 175.561
L207.482 177.994
L207.631 199.38
L208.45 344.075
L208.896 262.099
L209.194 216.466
L209.268 215.982
L209.342 216.591
L209.417 215.236
L209.491 216.245
L209.64 219.577
L209.714 217.185
L209.789 217.544
L209.938 224.968
L210.235 251.565
L210.31 251.524
L210.682 226.627
L210.756 229.378
L211.128 276.2
L211.351 297.475
L211.426 294.019
L211.946 235.474
L212.095 221.07
L212.17 222.023
L212.318 229.157
L212.839 269.661
L212.914 269.993
L212.988 269.301
L213.286 252.989
L213.36 254.372
L213.434 259.708
L213.509 258.242
L213.583 256.888
L213.806 274.002
L213.881 271.873
L214.55 186.786
L214.625 188.473
L214.774 196.394
L215.666 335.062
L215.741 339.099
L215.815 339.044
L215.89 335.394
L216.485 219.991
L216.708 192.316
L216.857 188.417
L217.08 161.018
L217.378 142.079
L217.452 149.199
L218.27 371.336
L218.419 355.549
L218.791 293.328
L219.089 238.916
L219.61 191.472
L219.684 196.159
L220.056 251.33
L220.13 262.182
L220.205 261.712
L220.577 238.115
L220.651 240.105
L220.8 246.395
L221.172 216.051
L221.321 215.346
L221.544 200.306
L221.618 204.826
L221.842 257.703
L222.288 344.836
L222.362 351.43
L222.437 351.043
L222.511 350.061
L222.586 350.794
L222.66 347.573
L222.883 312.059
L223.33 203.969
L223.776 159.622
L223.999 145.176
L224.148 160.645
L224.594 244.916
L224.892 297.364
L225.264 315.736
L225.636 292.235
L225.71 295.346
L225.859 307.594
L225.934 306.308
L226.082 293.618
L226.306 272.467
L226.529 241.142
L226.678 227
L226.752 225.784
L226.826 225.991
L226.901 225.175
L227.198 200.306
L227.347 187.311
L227.422 188.597
L227.942 232.295
L228.24 257.703
L228.314 255.519
L228.389 256.666
L228.612 271.638
L228.835 256.445
L229.058 274.707
L229.505 336.693
L229.579 330.722
L229.951 276.518
L230.77 167.972
L230.844 174.496
L231.216 224.747
L231.29 225.106
L231.514 217.157
L231.737 233.414
L232.258 282.877
L232.332 286.222
L232.481 277.306
L232.555 277.955
L232.778 307.58
L233.002 328.537
L233.076 328.288
L233.225 318.432
L233.746 259.943
L234.192 178.74
L234.341 170.653
L234.49 173.626
L234.787 144.955
L234.862 147.125
L235.159 208.075
L235.754 311.064
L236.201 350.614
L236.275 351.319
L236.35 350.13
L236.722 317.547
L237.466 162.414
L237.614 151.797
L237.689 151.286
L237.838 166.631
L238.805 295.968
L239.251 251.98
L239.326 252.63
L239.474 267.352
L239.698 290.922
L239.846 286.512
L240.442 255.353
L240.516 256.348
L240.814 265.472
L241.037 262.984
L241.26 245.289
L241.558 199.407
L241.855 163.423
L241.93 162.829
L242.004 163.133
L242.078 164.806
L242.227 187.45
L242.599 287.369
L242.897 362.931
L242.971 359.973
L243.343 317.851
L243.864 215.042
L244.013 203.375
L244.087 204.025
L244.236 220.13
L244.459 242.137
L244.831 228.617
L245.054 244.335
L245.129 250.846
L245.203 250.598
L245.873 208.932
L246.022 207.301
L246.394 238.515
L246.914 336.141
L246.989 334.869
L247.138 319.054
L247.286 310.151
L247.51 312.985
L247.882 244.225
L248.328 162.884
L248.477 159.207
L248.774 166.009
L249.221 241.377
L249.742 332.546
L249.89 336.099
L249.965 333.431
L250.932 218.374
L251.006 217.531
L251.23 222.217
L251.453 212.554
L251.825 228.963
L251.899 227.636
L252.197 206.43
L252.346 212.609
L253.09 283.913
L253.387 307.981
L253.462 307.967
L253.536 304.857
L253.834 283.734
L253.908 283.471
L254.28 291.185
L254.354 291.793
L254.503 274.831
L255.247 145.452
L255.396 136.55
L255.545 152.129
L255.842 229.834
L256.289 334.15
L256.512 348.61
L256.661 337.343
L256.884 311.548
L257.33 243.395
L257.479 236.677
L257.554 237.147
L257.628 236.497
L258 226.392
L258.372 205.089
L258.521 216.328
L258.818 232.516
L258.967 236.608
L259.339 279.849
L259.414 277.803
L259.637 249.561
L259.711 251.469
L259.786 257.897
L259.86 257.869
L260.232 243.99
L260.306 244.017
L260.455 248.344
L260.604 245.953
L260.753 263.454
L261.05 300.253
L261.199 294.613
L261.274 298.899
L261.422 291.295
L261.646 249.644
L262.092 160.327
L262.241 167.28
L262.39 181.533
L262.687 238.377
L263.134 343.675
L263.208 346.177
L263.282 345.928
L263.431 331.344
L264.026 204.329
L264.101 204.384
L264.324 225.701
L264.547 243.534
L264.77 247.1
L264.845 245.262
L265.068 231.631
L265.291 235.93
L265.44 230.815
L265.589 237.506
L266.184 290.646
L266.258 288.835
L266.407 271.389
L266.705 228.493
L267.002 218.208
L267.077 219.12
L267.3 254.385
L267.672 330.113
L267.746 328.026
L267.895 299.037
L268.267 217.475
L268.49 199.725
L268.788 160.631
L268.862 163.465
L269.086 205.628
L269.532 302.742
L269.83 338.062
L269.904 339.984
L270.053 322.814
L270.574 234.824
L271.02 190.449
L271.243 218.789
L271.466 245.455
L271.615 255.519
L271.764 272.108
L271.913 269.454
L271.987 265.403
L272.359 221.415
L272.508 226.392
L272.582 230.719
L272.657 229.889
L272.731 227.65
L272.806 228.424
L273.475 268.541
L273.624 273.227
L273.922 290.3
L274.07 286.015
L274.219 288.019
L274.368 279.407
L274.517 273.31
L274.591 274.472
L274.666 272.592
L274.814 252.906
L275.112 210.978
L275.484 156.028
L275.558 158.862
L275.856 229.364
L276.079 277.72
L276.154 280.582
L276.674 350.628
L276.749 347.31
L276.972 280.817
L277.27 201.509
L277.493 182.376
L277.567 184.215
L278.088 250.183
L278.46 305.327
L278.534 304.124
L278.683 289.471
L279.353 200.817
L279.427 200.168
L279.65 207.093
L279.948 238.737
L280.394 307.055
L280.618 323.201
L280.692 321.929
L280.841 310.345
L281.287 211.849
L281.51 181.077
L281.808 199.85
L282.85 310.428
L282.924 307.691
L283.594 214.406
L283.891 202.379
L284.04 212.817
L284.338 256.21
L284.635 290.259
L284.933 303.018
L285.007 299.369
L285.305 249.077
L285.528 226.986
L285.751 231.866
L285.826 232.336
L285.974 226.668
L286.346 203.071
L286.421 203.568
L286.57 204.425
L286.793 238.958
L287.314 332.436
L287.388 336.5
L287.686 291.765
L288.355 157.714
L288.43 159.027
L288.578 176.294
L289.025 314.755
L289.248 364.01
L289.322 366.622
L289.471 351.292
L290.066 217.696
L290.364 115.966
L290.513 107.699
L290.662 118.413
L290.81 154.452
L291.331 321.999
L291.629 354.637
L291.703 358.549
L291.778 355.508
L292.075 313.386
L292.596 207.743
L292.819 181.616
L292.894 184.284
L293.117 214.475
L293.34 242.414
L293.563 249.796
L293.638 248.911
L293.786 243.188
L293.861 244.114
L294.158 261.837
L294.233 257.427
L294.456 230.014
L294.53 230.318
L294.754 244.57
L295.051 269.592
L295.2 266.882
L295.572 283.886
L295.944 320.298
L296.093 299.756
L296.539 197.845
L296.837 170.999
L296.911 169.935
L296.986 172.326
L297.06 171.953
L297.134 171.815
L297.283 194.431
L297.804 306.253
L297.953 319.911
L298.027 317.202
L298.399 273.006
L298.697 233.387
L298.771 230.94
L299.069 251.275
L299.441 278.978
L299.59 293.148
L300.557 164.101
L300.706 178.091
L300.854 198.951
L301.673 358.245
L301.747 360.706
L301.896 347.476
L302.119 314.119
L302.566 183.551
L302.863 156.968
L302.938 160.382
L303.086 169.893
L303.161 167.598
L303.235 167.861
L303.458 203.154
L303.83 276.559
L304.277 340.841
L304.351 336.928
L305.021 229.433
L305.17 222.715
L305.393 231.769
L305.616 247.985
L305.839 235.944
L306.062 218.236
L306.137 220.821
L306.434 250.708
L306.509 249.367
L306.732 227.498
L306.881 213.522
L306.955 214.78
L307.699 292.042
L307.774 292.014
L308.22 324.998
L308.294 319.123
L308.815 188.569
L308.89 190.311
L309.262 212.554
L309.559 219.991
L309.782 229.018
L310.08 248.386
L310.229 265.002
L310.452 287.77
L310.675 292.802
L310.75 293.12
L310.824 292.374
L310.973 287.3
L311.122 268.666
L311.345 242.635
L311.642 264.145
L311.717 262.652
L311.791 263.039
L311.866 263.509
L312.312 214.766
L312.386 214.531
L312.461 212.927
L312.684 191.528
L312.758 194.583
L312.833 197.113
L313.056 223.046
L313.279 264.422
L313.428 270.352
L313.874 320.215
L314.098 306.336
L314.395 283.637
L315.065 176.667
L315.511 220.171
L316.106 309.419
L316.181 309.833
L316.478 271.942
L316.925 218.125
L316.999 214.987
L317.074 216.19
L317.222 229.571
L317.594 289.139
L317.669 288.544
L317.743 288.807
L317.892 291.835
L318.115 262.265
L318.264 238.087
L318.562 177.745
L318.71 182.901
L319.008 217.282
L319.306 249.644
L319.454 257.454
L319.901 308.81
L320.124 329.878
L320.273 324.515
L320.347 326.588
L320.422 324.915
L320.645 283.692
L320.942 220.116
L321.166 173.1
L321.24 173.446
L322.058 230.76
L322.282 263.938
L322.356 263.703
L322.579 258.837
L322.728 262.03
L323.026 281.08
L323.174 288.047
L323.323 281.937
L323.398 283.015
L323.546 286.111
L323.695 276.144
L324.067 241.114
L324.216 246.755
L324.29 246.229
L324.514 240.395
L324.662 243.492
L324.886 252.063
L324.96 250.197
L325.555 212.872
L325.63 215.512
L325.778 232.765
L326.225 302.286
L326.374 307.732
L326.448 301.677
L326.894 214.724
L327.118 220.392
L327.638 282.987
L327.862 262.846
L328.382 205.822
L328.457 208.269
L328.68 228.092
L329.201 298.705
L329.498 277.112
L329.87 241.004
L330.168 192.841
L330.242 193.67
L330.391 213.591
L330.763 266.993
L330.986 269.896
L331.061 269.509
L331.21 278.149
L331.284 277.872
L331.582 242.981
L331.656 247.529
L332.102 287.992
L332.4 248.939
L332.623 213.688
L332.698 214.282
L332.921 230.069
L333.07 233.926
L333.293 241.405
L333.367 240.395
L333.442 238.93
L333.516 239.746
L333.665 235.834
L333.739 236.373
L333.814 238.446
L333.962 263.758
L334.26 300.129
L334.558 293.687
L334.781 264.366
L335.078 196.435
L335.153 197.914
L335.376 207.328
L335.748 216.991
L335.822 216.895
L335.971 223.226
L336.715 315.681
L336.79 315.391
L336.938 299.7
L337.013 301.249
L337.087 304.802
L337.162 304.691
L337.31 293.452
L337.98 216.425
L338.278 153.028
L338.501 138.817
L338.65 182.611
L339.022 307.4
L339.17 323.685
L339.989 234.921
L340.063 238.28
L340.435 276.725
L340.51 278.688
L340.658 268.03
L340.882 246.934
L341.105 261.325
L341.254 270.67
L341.328 265.804
L341.626 191.638
L341.7 192.122
L341.849 206.997
L342.146 241.059
L342.742 271.748
L342.816 269.495
L342.89 269.536
L343.114 278.425
L343.337 297.406
L343.411 297.06
L343.56 285.462
L344.006 216.577
L344.23 206.236
L344.378 211.6
L344.453 208.296
L344.527 208.324
L344.974 258.45
L345.048 258.795
L345.197 256.653
L345.42 270.186
L345.643 299.438
L345.792 290.701
L345.941 282.365
L346.015 283.983
L346.09 281.632
L346.238 263.399
L346.536 210.038
L346.61 209.831
L346.685 210.536
L346.834 218.885
L346.982 229.82
L347.057 229.627
L347.206 226.267
L347.354 232.308
L347.429 231.12
L347.652 222.355
L347.726 227.318
L348.024 265.804
L348.173 276.932
L348.396 298.097
L348.545 292.208
L348.694 305.119
L348.768 303.391
L349.066 277.665
L349.81 192.869
L349.884 193.2
L350.033 185.777
L350.107 186.136
L350.256 197.5
L351 294.185
L351.074 293.95
L351.223 295.111
L351.298 294.641
L351.595 306.723
L351.818 294.904
L352.042 255.892
L352.265 221.802
L352.637 192.329
L352.86 206.983
L353.083 215.858
L353.158 213.853
L353.306 222.493
L353.604 269.315
L353.902 311.05
L353.976 310.525
L354.422 281.384
L354.869 234.202
L355.464 207.937
L355.613 190.836
L355.687 193.753
L356.282 282.642
L356.357 285.199
L356.654 256.832
L356.803 271.486
L357.101 322.123
L357.175 320.934
L357.398 285.766
L357.919 200.873
L358.217 190.242
L358.366 198.288
L358.738 230.636
L359.184 264.048
L359.556 321.376
L359.63 313.386
L360.002 230.954
L360.151 234.424
L360.374 250.045
L360.598 262.002
L360.97 255.56
L361.193 240.478
L361.49 214.489
L361.565 215.167
L361.714 224.512
L362.011 252.851
L362.086 253.86
L362.16 250.446
L362.309 236.359
L362.458 247.1
L362.755 315.612
L362.978 312.612
L363.202 283.347
L363.648 219.024
L364.02 181.92
L364.094 183.399
L364.243 192.841
L364.764 262.707
L364.838 262.279
L364.913 263.482
L365.062 274.734
L365.359 308.548
L365.508 316.497
L365.657 319.925
L365.806 306.336
L366.326 220.212
L366.55 171.372
L366.624 168.967
L366.847 181.796
L366.922 179.791
L367.07 192.509
L367.294 228.783
L367.442 226.544
L367.591 253.1
L367.963 324.224
L368.261 304.567
L368.633 260.482
L368.707 265.016
L368.782 266.896
L369.377 219.383
L369.6 179.293
L369.972 225.037
L370.27 307.442
L370.344 306.212
L370.716 257.98
L371.014 290.452
L371.088 285.89
L371.386 253.114
L371.683 197.928
L371.758 198.619
L371.981 214.31
L372.278 255.712
L372.502 243.534
L372.576 244.156
L372.725 247.612
L372.874 237.617
L373.022 246.727
L373.394 289.733
L373.618 276.849
L373.692 278.218
L373.766 284.494
L373.841 281.923
L374.064 268.583
L374.138 267.408
L374.287 268.693
L374.436 250.791
L374.734 186.841
L374.808 187.215
L375.106 211.835
L375.478 268.209
L375.626 272.495
L375.775 267.366
L375.85 263.274
L375.924 263.592
L376.147 276.283
L376.37 299.853
L376.445 298.76
L376.668 278.08
L377.189 216.176
L377.263 212.761
L377.338 213.411
L377.486 219.798
L377.561 222.825
L377.635 221.498
L377.784 210.715
L378.007 188.141
L378.082 191.721
L378.677 298.677
L378.751 293.037
L378.9 281.605
L379.049 289.65
L379.421 318.639
L379.57 305.824
L380.016 202.822
L380.09 205.559
L380.314 219.383
L380.388 220.517
L380.76 197.942
L380.834 199.546
L381.355 270.394
L381.578 297.005
L381.653 297.558
L381.727 294.917
L381.95 264.2
L382.248 277.734
L382.322 276.67
L382.546 286.056
L382.62 282.586
L383.215 175.713
L383.29 180.994
L383.662 240.174
L383.81 238.972
L383.959 244.474
L384.108 250.058
L384.182 249.118
L384.257 251.289
L384.48 275.771
L384.703 295.18
L384.778 297.82
L384.852 297.71
L385.001 294.185
L385.522 238.045
L385.596 239.068
L385.819 257.399
L385.894 257.15
L386.042 237.23
L386.34 193.463
L386.489 185.155
L386.638 200.887
L386.786 231.617
L387.084 300.06
L387.158 299.991
L387.307 284.964
L387.53 260.191
L387.977 285.738
L388.274 266.841
L388.795 180.593
L388.87 188.86
L389.093 242.939
L389.167 247.349
L389.242 246.119
L389.465 215.83
L389.539 216.162
L389.688 236.221
L390.134 344.297
L390.209 345.707
L390.358 307.649
L390.655 236.138
L390.73 231.825
L391.027 245.372
L391.102 248.87
L391.176 246.243
L391.474 190.159
L391.622 170.57
L391.697 179.197
L392.069 267.159
L392.143 266.868
L392.366 238.598
L392.515 224.539
L392.59 228.935
L392.813 282.296
L393.11 334.62
L393.185 338.214
L393.259 335.753
L393.482 285.531
L393.706 237.727
L393.78 236.11
L394.003 242.925
L394.078 241.197
L394.226 216.328
L394.598 139.425
L394.673 145.798
L395.194 298.028
L395.491 254.925
L395.566 255.947
L395.714 286.526
L395.938 339.693
L396.012 342.251
L396.086 335.035
L396.384 230.553
L396.607 168.29
L396.682 167.253
L396.83 201.702
L397.054 267.117
L397.128 269.744
L397.277 267.463
L397.351 268.527
L397.649 252.353
L397.723 255.547
L398.021 288.669
L398.095 296.618
L398.17 296.258
L398.69 239.787
L398.765 237.658
L398.839 238.695
L398.914 237.893
L398.988 234.313
L399.36 183.261
L399.434 183.399
L399.881 241.391
L399.955 244.183
L400.104 266.786
L400.178 266.551
L400.402 245.275
L400.476 248.565
L400.699 291.696
L400.848 325.869
L400.922 325.441
L401.592 242.746
L402.187 188.279
L402.262 192.288
L402.41 209.554
L402.708 258.698
L402.782 256.459
L402.931 248.621
L403.006 253.597
L403.452 343.882
L403.526 335.339
L403.824 260.938
L404.122 205.531
L404.196 204.508
L404.568 230.221
L404.642 227.636
L404.94 190.864
L405.089 212.789
L405.386 263.675
L405.535 268.831
L405.684 244.377
L405.907 209.748
L405.982 212.236
L406.13 239.082
L406.502 351.858
L406.577 343.039
L407.098 229.723
L407.172 232.889
L407.395 265.763
L407.47 263.509
L407.618 241.405
L407.916 179.708
L407.99 183.731
L408.214 241.377
L408.437 268.306
L408.734 236.746
L408.809 238.585
L409.032 269.108
L409.255 297.71
L409.404 276.753
L409.702 230.553
L409.85 222.466
L409.999 250.211
L410.222 295.083
L410.297 292.208
L410.594 236.207
L410.669 237.99
L410.892 263.288
L410.966 258.104
L411.487 155.682
L411.562 166.161
L412.082 325.607
L412.157 322.054
L412.38 261.463
L412.603 223.129
L412.752 248.123
L412.975 286.208
L413.05 285.918
L413.198 260.966
L413.496 207.895
L413.57 213.425
L413.719 260.952
L413.942 352.881
L414.017 352.508
L414.166 302.88
L414.538 168.649
L414.686 201.439
L415.058 299.576
L415.207 267.684
L415.43 197.513
L415.505 194.057
L415.728 223.24
L415.951 265.693
L416.026 261.284
L416.398 175.229
L416.472 175.589
L416.695 249.464
L416.993 343.246
L417.067 342.209
L417.588 245.234
L417.662 245.497
L417.886 262.611
L418.034 248.718
L418.332 188.943
L418.406 193.449
L419.002 275.605
L419.076 273.214
L419.15 274.085
L419.225 275.094
L419.299 274.624
L419.374 274.057
L419.448 275.246
L419.671 298.567
L419.746 297.378
L419.894 279.075
L420.192 237.105
L420.787 207.439
L420.862 208.158
L421.234 235.695
L421.457 269.661
L421.531 267.159
L421.903 223.572
L422.052 210.287
L422.201 241.764
L422.424 305.493
L422.498 312.073
L422.573 311.271
L423.317 257.911
L423.689 173.487
L423.763 175.478
L423.986 187.076
L424.21 227.277
L424.507 300.806
L424.582 297.876
L424.805 277.333
L424.954 283.831
L425.102 273.587
L425.4 292.623
L425.772 265.569
L426.144 167.294
L426.218 171.497
L426.962 303.806
L427.037 304.525
L427.26 315.93
L427.334 314.492
L427.632 209.527
L427.93 138.706
L428.004 141.734
L428.971 331.827
L429.046 324.998
L429.343 303.765
L429.492 282.047
L429.79 198.758
L430.013 220.835
L430.162 240.326
L430.459 281.66
L430.534 281.356
L431.129 228.548
L431.203 231.534
L431.501 260.413
L431.65 253.653
L431.873 234.479
L431.947 236.981
L432.17 251.137
L432.245 251.026
L432.542 229.322
L432.617 229.364
L433.286 279.13
L433.361 277.61
L433.584 266.716
L434.03 188.431
L435.221 324.39
L435.37 311.451
L435.89 220.779
L435.965 223.074
L436.262 240.824
L436.56 301.733
L436.634 306.543
L436.709 305.327
L436.858 293.037
L437.006 266.523
L437.453 97.0268
L437.527 104.036
L438.792 369.166
L438.941 353.973
L439.09 336.03
L439.164 334.648
L439.536 307.594
L439.685 287.383
L440.131 156.691
L440.206 153.733
L440.28 156.304
L440.726 203.707
L440.95 213.148
L441.173 253.639
L441.47 302.825
L441.619 306.253
L441.842 291.13
L441.917 294.281
L441.991 299.7
L442.066 299.521
L442.512 238.363
L442.735 196.96
L442.81 199.145
L443.256 230.622
L443.479 212.706
L443.702 218.802
L444.372 272.827
L444.818 373.576
L444.967 345.956
L445.488 191.624
L445.637 186.758
L445.711 186.233
L446.009 210.162
L446.158 226.889
L446.455 286.982
L446.604 283.443
L446.753 273.573
L446.976 256.722
L447.05 257.606
L447.199 250.916
L447.422 215.512
L447.72 165.027
L447.794 164.225
L447.869 168.234
L448.464 260.551
L448.538 259.887
L448.687 278.094
L449.134 361.743
L449.282 341.255
L449.654 272.453
L449.803 263.979
L449.878 270.421
L449.878 270.421" style="fill:none;stroke:#808080;stroke-linecap:square;"/>
   </g>
  </g>
 </g>
 <defs>
  <clipPath id="p7ff5b81e1d">
   <rect height="345.6" width="446.4" x="72.0" y="43.2"/>
  </clipPath>
 </defs>
</svg>
