<?xml version="1.0" encoding="utf-8" standalone="no"?>
<!DOCTYPE svg PUBLIC "-//W3C//DTD SVG 1.1//EN"
  "http://www.w3.org/Graphics/SVG/1.1/DTD/svg11.dtd">
<!-- Created with matplotlib (http://matplotlib.org/) -->
<svg height="432pt" version="1.1" viewBox="0 0 576 432" width="576pt" xmlns="http://www.w3.org/2000/svg" xmlns:xlink="http://www.w3.org/1999/xlink">
 <defs>
  <style type="text/css">
*{stroke-linecap:butt;stroke-linejoin:round;}
  </style>
 </defs>
 <g id="figure_1">
  <g id="patch_1">
   <path d="
M0 432
L576 432
L576 0
L0 0
z
" style="fill:#ffffff;"/>
  </g>
  <g id="axes_1">
   <g id="line2d_1">
    <path clip-path="url(#p7ff5b81e1d)" d="
M72 196.619
L72.0744 198.681
L72.2976 213.012
L72.9672 228.57
L73.1904 221.819
L73.2648 223.334
L73.3392 222.902
L73.4136 222.614
L73.488 223.714
L73.6368 234.635
L73.7112 232.89
L73.9344 219.953
L74.0088 219.049
L74.4552 192.518
L74.604 203.387
L74.9016 220.972
L75.0504 213.467
L75.1992 202.131
L75.5712 209.02
L75.6456 207.886
L75.72 208.519
L75.8688 214.141
L75.9432 213.588
L76.2408 228.034
L76.3896 233.794
L76.464 233.385
L76.6128 230.545
L76.836 217.067
L77.0592 220.552
L77.1336 218.455
L77.208 218.68
L77.2824 218.628
L77.4312 205.225
L77.5056 207.788
L77.58 214.187
L77.6544 213.836
L77.8032 218.593
L77.8776 223.801
L77.952 222.499
L78.1008 219.043
L78.1752 218.732
L78.2496 216.854
L78.6216 195.156
L78.696 193.82
L78.7704 194.355
L79.068 213.911
L79.2912 222.793
L79.3656 225.079
L79.5144 221.6
L79.6632 225.747
L79.7376 224.25
L79.8864 216.439
L80.3328 234.595
L80.4816 227.233
L80.556 226.974
L80.6304 226.001
L80.8536 217.372
L80.928 217.395
L81.0768 222.793
L81.5232 205.818
L81.672 208.784
L81.8952 194.787
L82.044 190.335
L82.1184 191.763
L82.416 207.033
L82.4904 206.434
L82.5648 208.744
L82.9368 239.6
L83.0112 239.439
L83.2344 236.841
L83.4576 225.361
L83.532 220.35
L83.6064 220.506
L83.7552 224.065
L84.0528 213.145
L84.276 194.857
L84.3504 193.722
L84.4248 194.638
L84.7224 212.724
L84.7968 214.02
L84.9456 208.393
L85.2432 220.454
L85.392 229.584
L85.4664 227.809
L85.5408 227.107
L85.6896 239.871
L85.764 237.665
L86.136 213.657
L86.2104 213.536
L86.2848 214.164
L86.3592 211.555
L86.5824 199.92
L86.6568 198.451
L86.7312 198.675
L86.8056 200.663
L87.0288 194.396
L87.1776 204.026
L87.4752 224.037
L87.7728 231.646
L87.9216 216.278
L87.996 217.004
L88.0704 219.665
L88.1448 218.668
L88.2192 219.486
L88.368 229.952
L88.5168 215.512
L88.5912 216.249
L88.74 225.206
L88.8144 223.334
L89.0376 231.335
L89.112 230.77
L89.1864 230.085
L89.2608 228.069
L89.484 201.573
L89.6328 207.914
L89.7816 202.126
L89.856 201.55
L90.0048 191.308
L90.0792 192.449
L90.7488 227.274
L90.8232 227.89
L90.972 222.654
L91.0464 224.192
L91.2696 215.27
L91.4928 217.407
L91.6416 222.568
L91.716 219.262
L91.8648 227.533
L91.9392 224.768
L92.2368 203.295
L92.3856 199.994
L92.46 200.726
L92.6088 207.287
L92.7576 220.581
L92.832 219.296
L92.9064 216.019
L93.1296 222.205
L93.204 221.047
L93.3528 217.447
L93.5016 212.983
L93.576 215.109
L93.7248 223.985
L93.948 214.7
L94.1712 208.652
L94.3944 232.037
L94.7664 208.784
L94.9896 217.355
L95.1384 211.042
L95.5848 241.996
L95.808 213.646
L95.8824 216.238
L95.9568 216.145
L96.3288 197.921
L96.4776 201.423
L96.552 200.784
L96.7008 203.41
L96.7752 203.105
L96.8496 203.439
L97.0728 215.575
L97.2216 225.085
L97.3704 221.859
L97.5936 227.193
L97.7424 239.266
L97.8168 238.546
L98.04 219.457
L98.2632 233.149
L98.3376 232.129
L98.5608 198.629
L98.8584 162.266
L98.9328 161.316
L99.0816 170.757
L99.6768 246.351
L99.9744 265.491
L100.123 276.009
L100.198 274.022
L100.942 194.332
L101.016 194.545
L101.165 191.683
L101.314 210.679
L101.388 209.331
L101.537 204.787
L101.611 203.744
L101.76 191.873
L101.834 192.529
L101.983 195.559
L102.132 190.83
L102.281 196.32
L102.43 194.453
L103.099 234.387
L103.248 243.304
L103.322 242.584
L103.397 243.408
L103.62 237.555
L103.694 239.203
L103.769 236.599
L103.992 221.744
L104.141 210.823
L104.215 212.396
L104.364 225.425
L104.513 217.292
L104.587 219.521
L104.662 218.478
L104.81 214.746
L104.885 214.302
L105.257 191.936
L105.406 198.289
L105.703 215.506
L105.778 218.732
L106.001 237.889
L106.15 238.961
L106.298 232.723
L106.447 216.785
L106.596 197.978
L106.745 201.861
L106.894 197.12
L106.968 199.539
L107.266 218.979
L107.414 213.3
L107.638 194.309
L107.712 196.723
L107.935 213.289
L108.01 212.845
L108.158 215.99
L108.605 252.353
L108.828 234.474
L109.051 228.956
L109.126 233.391
L109.2 233.368
L109.498 204.153
L109.721 190.266
L109.87 179.518
L110.242 203.491
L110.465 211.82
L110.614 214.809
L110.762 229.342
L110.911 236.812
L111.06 229.393
L111.209 232.521
L111.432 219.337
L111.655 205.501
L111.953 216.998
L112.102 228.149
L112.176 228.91
L112.25 230.983
L112.325 230.603
L113.143 195.058
L113.218 197.42
L113.664 229.157
L113.738 230.943
L113.962 227.297
L114.259 205.305
L114.334 204.844
L114.482 201.97
L114.706 211.48
L114.78 208.836
L114.854 208.64
L115.078 221.998
L115.152 221.9
L115.301 209.562
L115.375 210.155
L115.524 213.277
L115.747 229.463
L115.822 226.318
L115.896 227.792
L116.045 245.642
L116.119 245.331
L116.194 245.7
L116.342 225.788
L116.566 199.205
L116.64 194.459
L116.863 217.13
L117.012 210.357
L117.086 214.429
L117.31 207.068
L117.384 209.573
L117.533 203.986
L117.607 198.721
L117.682 199.92
L117.756 197.028
L118.277 222.821
L118.426 219.648
L118.5 220.201
L118.723 230.701
L118.946 211.146
L119.095 219.498
L119.244 207.148
L119.318 208.358
L119.542 220.27
L119.765 230.707
L119.839 227.349
L119.914 223.023
L119.988 224.394
L120.062 227.113
L120.211 220.287
L120.36 220.926
L120.583 198.589
L120.732 211.146
L120.881 218.87
L121.178 202.736
L121.253 205.726
L121.699 225.356
L121.848 207.05
L121.997 226.732
L122.071 225.258
L122.294 203.393
L122.443 206.336
L122.592 213.732
L122.815 228.743
L122.89 230.24
L122.964 229.169
L123.113 239.566
L123.187 244.214
L123.708 202.206
L123.782 203.871
L123.931 208.058
L124.08 193.422
L124.229 177.438
L124.378 183.63
L124.452 181.695
L124.973 231.83
L125.122 220.679
L125.196 223.754
L125.419 242.25
L125.568 228.731
L125.717 241.466
L125.791 239.819
L126.014 217.92
L126.089 218.432
L126.163 218.277
L126.238 215.523
L126.312 216.917
L126.386 222.049
L126.461 221.687
L126.61 204.009
L126.758 178.204
L126.833 180.572
L126.982 199.009
L127.205 220.131
L127.577 201.947
L127.949 229.428
L128.098 233.103
L128.246 253.286
L128.321 252.998
L128.544 222.89
L128.618 223.639
L128.693 224.515
L128.767 224.503
L128.916 212.442
L128.99 214.613
L129.065 213.507
L129.288 187.916
L129.437 165.313
L129.883 239.22
L129.958 232.89
L130.106 199.868
L130.181 202.558
L130.404 222.597
L130.553 241.691
L130.85 215.253
L130.999 200.576
L131.297 230.816
L131.371 226.744
L131.52 202.863
L131.669 215.783
L131.743 210.385
L131.892 196.072
L132.115 228.293
L132.264 244.508
L132.338 243.742
L132.413 245.631
L132.636 223.582
L132.71 227.539
L132.785 229.67
L133.157 184.419
L133.231 185.975
L133.529 221.364
L133.752 209.994
L133.826 210.218
L133.901 211.105
L134.05 220.604
L134.273 230.787
L134.347 234.272
L134.422 231.709
L134.719 212.062
L134.868 203.859
L134.942 204.372
L135.166 207.713
L135.314 211.9
L135.389 212.413
L135.538 217.372
L135.91 196.878
L135.984 200.403
L136.207 227.948
L136.505 212.367
L136.728 235.067
L137.249 215.696
L137.323 215.852
L137.398 216.704
L137.546 202.5
L137.621 203.306
L137.77 207.989
L137.844 206.382
L138.067 231.98
L138.142 229.175
L138.216 228.299
L138.29 232.429
L138.365 229.393
L138.588 208.467
L138.737 218.012
L138.886 237.406
L138.96 235.251
L139.258 196.458
L139.332 180.347
L139.406 181.361
L139.555 193.705
L139.63 189.984
L140.076 223.553
L140.15 225.505
L140.522 206.221
L140.969 233.823
L141.192 255.861
L141.49 218.507
L141.713 174.097
L141.936 196.118
L142.085 190.11
L142.308 225.805
L142.457 240.585
L142.531 239.998
L142.606 242.181
L142.829 210.541
L142.903 214.141
L142.978 219.849
L143.052 218.449
L143.126 219.037
L143.275 230.551
L143.424 212.021
L143.573 201.786
L143.647 202.546
L143.722 204.499
L143.945 214.538
L144.094 208.133
L144.317 213.657
L144.466 220.684
L144.54 226.807
L144.614 223.155
L144.689 209.418
L144.763 209.498
L144.912 228.864
L144.986 228.743
L145.061 229.883
L145.135 233.593
L145.21 231.928
L145.507 192.38
L145.805 215.224
L145.879 214.74
L146.028 204.528
L146.474 243.189
L146.549 240.447
L146.698 224.313
L146.995 246.553
L147.07 246.051
L147.218 215.201
L147.367 178.924
L147.442 180.301
L147.59 183.866
L147.814 207.292
L147.888 203.894
L147.962 205.622
L148.334 238.886
L148.409 234.577
L148.558 218.674
L148.632 218.634
L148.781 229.607
L148.93 245.009
L149.004 240.188
L149.376 191.343
L149.45 193.635
L149.599 205.098
L149.897 187.127
L149.971 188.227
L150.343 223.322
L150.418 221.761
L150.566 224.976
L150.938 278.572
L151.013 269.587
L151.385 199.868
L151.757 180.48
L151.906 187.68
L151.98 190.289
L152.203 200.369
L152.352 210.581
L152.426 208.542
L152.501 200.818
L152.575 204.263
L152.947 265.975
L153.022 264.91
L153.17 247.63
L153.468 194.551
L153.542 196.412
L153.691 193.63
L153.84 193.428
L153.914 194.125
L154.063 198.923
L154.212 196.803
L154.51 188.014
L154.882 269.46
L154.956 268.671
L155.03 267.795
L155.105 268.475
L155.254 254.305
L155.774 174.046
L155.923 187.731
L155.998 184.575
L156.072 184.621
L156.146 186.101
L156.221 185.75
L156.37 167.393
L157.039 252.756
L157.188 251.892
L157.337 255.083
L157.411 252.825
L157.634 222.89
L157.709 224.411
L157.783 222.516
L157.932 210.817
L158.006 215.598
L158.081 214.429
L158.378 197.057
L158.602 190.525
L158.676 190.894
L159.122 226.11
L159.271 244.41
L159.494 234.439
L159.718 195.548
L159.866 187.628
L159.941 187.777
L160.09 191.602
L160.238 189.851
L160.685 246.685
L160.759 239.514
L160.834 227.377
L160.908 227.867
L161.131 219.642
L161.28 228.506
L161.354 226.969
L161.578 217.436
L161.652 218.449
L161.95 231.34
L162.098 221.6
L162.396 200.559
L162.47 199.188
L162.545 199.735
L162.842 206.705
L163.066 218.115
L163.14 219.924
L163.214 218.893
L163.586 189.84
L163.735 217.77
L164.033 278.86
L164.107 274.483
L164.628 204.326
L164.702 206.895
L164.851 214.608
L164.926 213.041
L165 214.36
L165.149 201.959
L165.372 181.614
L165.67 200.697
L165.744 204.758
L165.818 202.16
L166.116 170.192
L166.637 228.385
L166.786 217.827
L167.158 252.134
L167.381 248.298
L167.604 258.24
L167.678 264.028
L167.753 261.603
L168.125 213.461
L168.199 214.896
L168.274 214.976
L168.348 213.916
L168.646 184.552
L168.72 183.803
L168.869 202.333
L168.943 210.708
L169.018 207.805
L169.166 204.81
L169.241 204.551
L169.39 195.628
L169.538 204.28
L169.687 192.259
L169.91 202.707
L170.208 246.455
L170.282 244.479
L170.431 236.72
L170.506 237.141
L170.58 236.991
L170.729 225.575
L170.878 195.957
L171.101 156.714
L171.175 156.645
L171.324 164.346
L171.473 191.763
L171.77 242.768
L172.068 262.035
L172.142 263.631
L172.44 286.659
L172.812 252.013
L173.258 152.042
L173.333 155.303
L173.407 155.879
L173.482 154.202
L173.705 124.314
L173.779 127.418
L174.523 254.686
L174.746 282.979
L174.821 282.414
L175.044 262.49
L175.118 265.497
L175.267 252.986
L175.714 172.744
L176.086 203.836
L176.234 217.58
L176.383 209.7
L176.606 191.326
L176.681 192.812
L176.904 222.51
L177.202 267.985
L177.35 285.536
L177.425 280.496
L177.648 228.092
L177.946 162.681
L178.169 148.65
L178.243 150.274
L178.466 177.317
L178.764 231.726
L179.062 246.167
L179.285 268.245
L179.359 267.507
L179.434 268.861
L179.508 268.769
L179.731 241.749
L180.252 153.58
L180.326 159.962
L180.698 219.4
L180.773 221.134
L180.996 206.273
L181.145 209.481
L181.294 206.641
L181.442 201.273
L181.963 234.791
L182.112 225.085
L182.186 227.326
L182.335 245.527
L182.41 241.576
L182.633 214.487
L182.707 215.04
L182.93 236.524
L183.079 238.696
L183.154 235.188
L183.377 178.164
L183.451 179.31
L183.526 180.894
L183.674 198.814
L183.823 216.491
L183.898 217.413
L184.195 239.986
L184.27 239.283
L184.418 219.089
L184.567 188.031
L185.014 227.596
L185.088 227.464
L185.237 217.257
L185.311 219.452
L185.386 219.043
L185.609 191.401
L185.758 198.618
L185.832 199.557
L185.981 186.487
L186.055 190.214
L186.427 233.045
L186.502 235.05
L186.576 234.261
L186.725 222.038
L186.799 223.513
L186.874 225.575
L186.948 224.866
L187.097 225.661
L187.246 223.991
L187.394 224.071
L187.469 224.837
L187.692 209.821
L187.766 212.085
L187.915 214.849
L188.287 249.911
L188.362 246.322
L188.734 191.637
L188.808 190.686
L189.031 207.822
L189.254 230.839
L189.329 225.442
L189.701 161.276
L189.775 161.518
L189.924 183.803
L190.37 271.804
L190.445 271.493
L191.04 214.711
L191.263 230.131
L191.338 228.956
L191.486 223.956
L191.635 199.718
L191.933 128.012
L192.007 131.888
L192.305 202.419
L192.677 292.442
L192.826 306.169
L192.9 297.73
L193.421 140.315
L193.495 141.145
L193.644 176.862
L194.016 295.42
L194.239 268.291
L194.462 215.679
L194.686 213.358
L194.909 221.041
L195.281 183.267
L195.355 184.834
L195.504 165.244
L195.653 140.217
L195.727 140.897
L195.876 169.345
L196.397 286.521
L196.471 289.66
L196.546 288.554
L196.62 286.112
L196.769 262.018
L197.066 204.913
L197.141 202.31
L197.215 204.585
L197.29 210.731
L197.364 209.539
L197.513 201.82
L197.736 222.833
L197.81 214.999
L198.108 126.197
L198.182 132.009
L198.406 196.544
L198.629 254.668
L198.703 253.009
L198.852 241.898
L199.224 266.551
L199.298 263.55
L199.522 245.326
L199.596 246.766
L199.67 246.495
L200.117 196.953
L200.191 193.9
L200.266 194.016
L200.34 195.997
L200.786 154.3
L200.935 182.127
L201.233 241.887
L201.53 276.602
L201.679 238.932
L201.977 179.575
L202.126 201.302
L202.349 233.166
L202.423 234.353
L202.795 191.072
L202.87 191.493
L203.093 201.527
L203.465 250.014
L203.539 255.855
L203.614 253.153
L203.911 219.4
L203.986 219.129
L204.134 211.042
L204.283 222.775
L204.358 222.637
L204.506 219.002
L204.581 219.797
L204.878 208.727
L205.102 186.689
L205.176 187.259
L205.325 195.145
L205.399 193.745
L205.474 195.121
L206.069 242.192
L206.515 203.422
L206.59 208.03
L206.887 250.665
L206.962 246.42
L207.408 156.697
L207.482 156.558
L207.78 206.065
L208.003 253.735
L208.078 257.79
L208.152 250.579
L208.375 212.436
L208.747 290.467
L208.822 287.005
L209.342 166.823
L209.566 164.812
L209.789 158.419
L209.863 158.862
L209.938 164.916
L210.31 230.499
L210.533 259.213
L210.682 276.925
L210.756 276.839
L210.83 274.281
L210.979 251.909
L211.277 208.266
L211.426 206.071
L211.574 194.499
L211.798 203.733
L211.872 203.606
L212.021 210.967
L212.318 180.22
L212.393 184.489
L212.542 188.048
L213.286 264.581
L213.36 265.929
L213.955 200.991
L214.253 160.164
L214.402 175.244
L214.774 221.531
L214.848 219.44
L214.997 213.548
L215.071 216.278
L215.146 223.824
L215.443 201.625
L215.666 221.911
L215.89 253.827
L216.113 274.172
L216.187 272.617
L216.336 255.198
L216.782 171.194
L216.857 167.214
L217.154 189.505
L217.378 218.035
L217.526 216.716
L217.601 216.75
L217.75 213.323
L217.898 194.891
L217.973 197.414
L218.568 267.185
L218.642 269.506
L218.791 262.364
L218.94 244.168
L219.312 159.289
L219.461 156.184
L219.535 157.255
L219.833 204.827
L220.056 227.136
L220.205 219.93
L220.502 237.475
L220.577 237.371
L220.651 234.819
L220.874 220.454
L220.949 220.604
L221.098 212.88
L221.47 190.974
L221.544 190.974
L221.767 173.66
L221.842 176.05
L221.99 208.214
L222.288 311.773
L222.437 279.12
L222.734 177.744
L223.181 239.283
L223.255 239.946
L223.478 247.192
L223.553 247.658
L223.627 246.938
L223.776 222.055
L224.148 130.022
L224.297 119.28
L224.371 123.496
L224.52 158.304
L224.966 321.536
L225.115 278.762
L225.487 157.422
L225.562 155.366
L225.71 168.579
L226.082 227.631
L226.306 254.818
L226.529 232.89
L226.752 214.809
L226.975 219.682
L227.273 212.776
L227.347 213.548
L227.57 210.806
L227.719 197.017
L227.794 189.782
L227.868 190.404
L228.091 230.736
L228.314 251.984
L228.389 252.935
L228.463 250.504
L228.686 225.822
L228.835 214.59
L228.91 217.96
L229.207 253.465
L229.282 249.145
L229.654 168.971
L229.951 129.014
L230.1 147.337
L230.546 253.027
L230.695 287.737
L230.77 285.116
L231.216 195.83
L231.365 174.207
L231.514 215.276
L231.811 301.232
L231.886 298.715
L232.183 229.635
L232.258 235.165
L232.406 262.231
L232.481 260.353
L232.63 198.773
L232.853 64.7151
L232.927 67.7564
L233.225 127.499
L233.671 286.694
L233.746 281.74
L234.266 164.058
L234.341 172.306
L234.787 296.14
L235.01 318.288
L235.085 320.171
L235.159 314.014
L235.308 264.535
L235.68 74.5417
L235.829 110
L236.126 212.2
L236.201 213.317
L236.35 199.182
L236.424 199.349
L236.796 232.688
L236.87 234.289
L236.945 232.314
L237.168 218.542
L237.317 220.909
L237.391 220.846
L237.466 220.218
L237.912 268.602
L237.986 268.527
L238.284 260.042
L238.433 247.054
L239.4 125.454
L239.474 129.123
L239.698 186.487
L239.995 271.223
L240.07 271.666
L240.218 260.768
L240.59 197.31
L240.665 196.93
L240.814 207.315
L241.26 288.946
L241.781 138.985
L241.855 139.578
L242.004 183.429
L242.302 269.754
L242.45 286.757
L242.525 287.184
L242.674 273.613
L243.194 154.277
L243.343 165.049
L243.492 177.6
L244.013 256.517
L244.162 239.324
L244.534 162.307
L244.831 183.573
L245.203 230.805
L245.65 260.186
L245.724 261.258
L245.873 254.617
L245.947 255.866
L246.022 255.596
L246.468 231.876
L246.542 231.496
L247.286 139.025
L247.584 170.042
L247.956 236.709
L248.179 254.588
L248.254 252.128
L248.551 232.487
L248.626 234.197
L248.774 246.38
L248.849 246.276
L249.072 232.135
L249.295 225.425
L249.37 227.516
L249.593 236.041
L249.742 219.429
L250.114 176.983
L250.188 174.587
L250.411 184.736
L250.634 215.322
L250.858 254.11
L251.23 212.799
L251.602 162.992
L251.676 164.524
L251.825 185.237
L252.122 240.337
L252.346 251.581
L252.569 257.485
L252.643 256.321
L252.941 238.748
L253.09 240.712
L253.238 210.103
L253.387 185.917
L253.536 188.296
L253.61 188.186
L253.685 187.806
L254.206 221.681
L254.28 223.841
L254.578 210.432
L254.95 186.055
L255.024 183.152
L255.247 171.361
L255.322 173.458
L255.47 199.488
L255.842 276.263
L256.14 300.697
L256.289 283.993
L256.512 231.968
L256.661 197.65
L256.735 195.375
L256.958 176.154
L257.033 180.186
L257.256 159.905
L257.33 163.822
L257.702 220.713
L258 170.353
L258.074 173.844
L258.298 212.58
L258.372 211.872
L258.595 187.991
L258.67 188.981
L258.818 210.656
L259.339 342.946
L259.414 343.28
L259.562 308.127
L259.86 180.422
L259.934 178.636
L260.009 179.172
L260.306 147.567
L260.381 150.545
L260.753 201.561
L260.827 200.046
L260.976 205.996
L261.199 225.909
L261.274 225.984
L261.422 204.908
L261.646 162.048
L261.72 166.615
L262.315 252.739
L262.538 260.348
L262.687 255.388
L262.985 261.592
L263.059 258.101
L263.506 139.889
L263.58 140.672
L263.729 152.279
L263.952 205.242
L264.324 268.233
L264.398 272.979
L264.622 244.634
L264.845 206.135
L264.919 207.793
L265.142 216.975
L265.44 250.613
L265.589 266.592
L265.738 257.157
L265.961 215.086
L266.258 157.284
L266.556 130.661
L266.63 128.795
L266.779 150.723
L267.151 218.248
L267.523 260.578
L267.598 258.032
L267.672 259.248
L267.97 320.989
L268.044 320.586
L268.118 316.986
L268.49 239.687
L269.011 109.027
L269.086 111.648
L269.309 141.116
L269.978 230.09
L270.127 232.867
L270.202 235.983
L270.425 261.638
L270.722 235.079
L270.797 236.219
L271.02 240.683
L271.392 203.255
L271.541 231.231
L271.764 263.89
L271.838 265.123
L272.21 235.885
L272.582 145.776
L272.731 134.618
L272.88 152.584
L273.326 235.534
L273.401 235.355
L273.475 234.497
L273.624 225.022
L273.773 215.823
L273.847 216.134
L273.996 217.545
L274.368 244.081
L274.666 213.127
L274.74 214.129
L274.814 214.009
L274.889 217.28
L275.112 233.339
L275.186 236.202
L275.335 255.135
L275.41 250.371
L275.633 219.625
L275.93 179.454
L276.154 200.565
L276.451 248.194
L276.674 185.191
L276.898 129.481
L276.972 125.402
L277.121 148.368
L277.716 307.609
L277.865 302.839
L278.088 252.992
L278.534 179.017
L278.683 170.613
L278.758 171.701
L279.055 192.65
L279.427 242.048
L279.502 239.594
L279.725 218.536
L279.874 209.861
L280.32 168.885
L281.064 272.651
L281.659 185.606
L281.734 185.134
L281.808 188.521
L282.403 252.986
L282.478 252.768
L282.626 233.028
L282.85 208.122
L283.073 181.724
L283.147 183.682
L283.222 186.948
L283.296 182.818
L283.37 183.112
L283.891 233.546
L284.114 237.423
L284.338 226.087
L284.486 206.906
L284.561 208.865
L284.71 218.766
L284.784 216.531
L285.156 181.534
L285.23 178.636
L285.379 195.173
L285.826 304.953
L285.9 294.977
L286.495 99.8396
L286.57 105.559
L286.793 169.576
L287.314 346.529
L287.388 349.858
L287.537 324.289
L288.206 165.601
L288.504 133.772
L288.653 137.516
L289.248 241.443
L289.397 220.851
L289.694 174.339
L289.918 197.765
L290.141 221.422
L290.215 223.835
L290.662 280.346
L290.736 279.333
L291.257 213.588
L291.331 217.217
L291.48 236.622
L291.554 234.883
L291.926 201.757
L292.15 188.866
L292.224 189.356
L292.298 185.485
L292.745 221.473
L292.819 216.975
L292.894 218.542
L293.117 231.784
L293.191 232.826
L293.266 236.277
L293.414 223.144
L293.712 178.279
L293.786 174.708
L293.861 175.555
L294.01 187.438
L294.53 238.621
L294.605 238.725
L294.679 236.49
L294.977 209.124
L295.051 212.81
L295.349 238.909
L295.423 241.858
L295.572 225.431
L295.87 189.183
L295.944 191.222
L296.093 205.098
L296.316 233.892
L296.465 241.466
L296.614 247.451
L296.688 244.513
L296.837 247.837
L296.911 241.818
L297.283 139.641
L297.358 140.188
L297.432 140.983
L297.581 162.169
L297.878 266.067
L297.953 258.314
L298.325 212.816
L298.399 213.582
L298.548 240.919
L298.771 281.579
L299.366 198.134
L299.441 207.073
L299.664 267.283
L299.738 259.582
L299.962 168.113
L300.185 82.4789
L300.259 81.949
L300.482 105.461
L300.854 276.867
L300.929 262.393
L301.226 203.278
L301.301 200.046
L301.524 265.417
L301.747 318.881
L301.822 319.969
L302.417 192.115
L302.491 192.985
L302.64 209.308
L302.863 261.5
L303.012 239.929
L303.384 152.837
L303.458 150.839
L303.607 168.24
L303.905 202.598
L303.979 204.038
L304.128 197.886
L304.351 204.234
L304.872 261.949
L304.946 262.634
L305.095 270.739
L305.17 270.606
L305.318 250.158
L305.839 140.592
L305.988 131.779
L306.211 159.824
L306.583 245.867
L306.881 303.329
L306.955 302.908
L307.476 264.927
L307.848 166.062
L308.071 127.401
L308.815 202.713
L308.964 209.285
L309.41 239.969
L309.485 242.434
L309.559 251.362
L309.634 251.08
L309.708 253.92
L309.931 276.551
L310.006 277.881
L310.08 276.741
L310.824 169.829
L311.122 154.364
L311.27 151.19
L311.345 152.204
L311.642 189.39
L312.238 294.81
L312.312 288.405
L312.833 216.773
L312.907 216.871
L313.056 218.438
L313.279 207.102
L313.428 204.142
L313.502 205.207
L313.874 229.969
L313.949 230.108
L314.023 229.849
L314.172 196.383
L314.544 123.438
L314.618 126.128
L314.767 158.211
L315.288 296.872
L315.437 299.539
L315.511 295.484
L315.734 248.332
L316.106 159.951
L316.181 162.612
L316.33 136.277
L316.404 120.812
L316.478 123.294
L316.627 140.805
L316.776 194.102
L317.074 292.057
L317.222 312.049
L317.446 335.907
L317.594 328.546
L317.818 285.744
L318.413 118.45
L318.487 118.911
L318.562 119.02
L318.636 117.632
L318.785 126.163
L319.157 164.726
L319.826 295.345
L319.901 294.424
L320.124 278.123
L320.794 205.95
L320.868 206.146
L320.942 202.696
L321.314 166.068
L321.389 163.321
L321.686 192.639
L322.058 227.285
L322.282 233.593
L322.728 281.602
L322.802 279.868
L322.951 272.087
L323.174 237.809
L323.546 178.049
L323.695 170.711
L323.844 162.814
L323.918 162.831
L324.142 178.308
L324.514 209.533
L324.737 200.864
L325.034 212.229
L325.258 246.063
L325.555 291.573
L325.63 290.807
L325.778 275.56
L325.927 232.153
L326.225 134.716
L326.299 137.418
L326.82 259.518
L326.894 253.251
L327.266 195.191
L327.415 181.367
L327.713 137.389
L327.862 157.301
L328.457 330.579
L328.606 311.243
L328.829 254.588
L329.126 164.91
L329.498 139.981
L329.647 133.962
L329.796 146.282
L330.614 343.395
L330.689 336.472
L330.912 293.18
L331.21 228.115
L331.954 110.663
L332.102 103.745
L332.474 124.544
L332.772 216.721
L333.07 308.784
L333.293 330.176
L333.367 332.739
L333.59 310.765
L333.962 248.217
L334.409 143.5
L334.483 144.577
L334.706 170.889
L335.227 222.24
L335.45 232.314
L335.525 229.526
L336.046 175.376
L336.12 176.54
L336.418 228.777
L336.715 283.445
L336.79 290.473
L336.864 287.575
L337.087 257.134
L337.682 173.187
L337.98 163.683
L338.203 169.587
L338.501 197.927
L338.798 218.271
L339.022 231.628
L339.17 241.749
L339.245 242.745
L339.319 240.804
L339.468 228.46
L339.766 258.412
L339.84 258.355
L340.584 196.325
L340.658 194.09
L340.733 195.916
L340.807 194.309
L340.882 196.826
L341.402 254.15
L341.774 182.645
L341.923 186.96
L341.998 185.905
L342.146 180.071
L342.221 180.693
L342.816 270.249
L343.188 215.356
L343.486 181.424
L343.709 159.479
L344.155 189.379
L344.453 239.439
L344.527 243.275
L344.602 243.004
L344.676 241.144
L344.75 235.712
L344.825 236.127
L345.048 244.537
L345.271 254.363
L345.643 238.661
L345.792 227.977
L345.941 239.779
L346.015 238.765
L346.09 235.948
L346.164 238.794
L346.238 238.27
L346.982 151.513
L347.131 156.587
L347.206 157.111
L347.354 173.539
L347.801 246.04
L347.95 250.798
L348.024 250.567
L348.173 247.491
L348.322 253.58
L348.619 228.057
L348.694 227.93
L348.768 230.966
L349.14 210.65
L349.214 210.812
L349.289 210.403
L349.438 203.053
L349.586 206.377
L349.661 202.131
L349.735 202.35
L350.033 225.079
L350.107 221.641
L350.33 215.639
L350.554 199.557
L350.628 201.434
L350.702 195.415
L351.223 228.017
L351.372 226.427
L351.446 227.17
L351.521 230.067
L351.595 229.359
L351.818 207.022
L351.893 207.327
L352.116 197.558
L352.265 208.594
L352.488 231.018
L352.562 230.206
L352.637 230.453
L352.934 237.769
L353.009 236.133
L353.083 240.447
L353.455 212.92
L353.53 203.813
L353.604 205.334
L353.678 207.327
L353.753 214.682
L353.827 211.958
L354.05 205.184
L354.125 205.357
L354.497 189.16
L354.571 187.495
L355.018 230.488
L355.092 228.576
L355.166 221.422
L355.241 223.536
L355.538 210
L355.613 212.557
L355.836 198.531
L355.985 215.264
L356.431 272.069
L356.506 274.471
L356.654 257.698
L356.878 235.43
L356.952 237.164
L357.25 179.425
L357.324 181.85
L357.398 179.973
L357.547 172.312
L357.77 179.61
L357.919 176.747
L358.068 182.104
L358.366 210.276
L358.514 214.51
L358.663 204.372
L358.738 206.618
L359.258 256.788
L359.407 278.382
L359.482 277.662
L359.63 268.32
L359.928 229.572
L360.523 177.202
L360.746 187.432
L360.821 187.104
L361.044 197.996
L361.118 200.305
L361.342 220.759
L361.565 208.588
L361.639 209.977
L361.937 232.291
L362.011 230.367
L362.16 222.067
L362.383 178.654
L362.458 180.687
L362.904 255.722
L363.202 301.883
L363.276 302.459
L363.35 301.555
L363.574 262.387
L364.243 73.5164
L364.392 103.895
L364.913 282.299
L364.987 277.945
L365.285 189.592
L365.434 170.135
L366.103 300.334
L366.252 306.37
L366.326 302.459
L366.55 255.509
L367.07 106.947
L367.145 108.831
L367.442 170.826
L367.666 215.322
L368.112 254.035
L368.186 255.452
L368.261 255.054
L368.558 226.997
L369.005 169.426
L369.079 171.661
L369.228 197.834
L369.674 297.16
L369.749 297.649
L369.898 273.878
L370.493 148.73
L370.567 147.325
L370.865 178.596
L371.088 205.466
L371.162 206.774
L371.237 210.898
L371.311 209.948
L371.386 206.941
L371.46 207.609
L371.609 219.296
L372.055 270.272
L372.13 270.134
L372.353 252.065
L372.502 243.419
L372.576 245.233
L372.725 252.122
L372.799 254.536
L372.874 254.524
L372.948 248.223
L373.543 130.586
L373.766 122.603
L373.915 146.231
L374.436 313.812
L374.585 293.589
L375.18 175.468
L375.254 174.933
L375.478 182.242
L375.552 180.37
L375.701 190.64
L376.073 238.903
L376.147 246.645
L376.222 245.533
L376.296 245.942
L376.37 243.269
L376.668 212.355
L376.817 203.681
L377.114 226.542
L377.189 226.087
L377.338 235.666
L377.412 234.9
L377.784 200.144
L377.858 199.758
L377.933 200.449
L378.082 209.712
L378.23 199.954
L378.379 213.375
L378.454 209.838
L378.528 213.893
L378.9 272.023
L378.974 273.964
L379.123 258.372
L379.272 220.46
L379.644 127.574
L379.718 125.46
L379.867 136.341
L380.016 171.338
L380.388 273.204
L380.537 284.695
L380.611 280.692
L380.76 286.579
L380.834 282.938
L381.058 232.227
L381.355 145.516
L381.504 143.685
L381.653 158.868
L381.95 225.546
L382.174 269.593
L382.546 233.656
L382.694 238.229
L382.769 237.769
L382.918 230.027
L383.215 200.052
L383.438 225.822
L383.81 219.146
L384.034 206.112
L384.182 210.996
L384.257 208.755
L384.48 185.877
L384.703 141.628
L384.778 143.074
L385.075 199.257
L385.447 282.846
L385.522 291.193
L385.596 290.576
L386.042 231.588
L386.117 234.174
L386.266 242.624
L386.34 240.839
L386.638 210.362
L386.712 213.847
L387.01 196.953
L387.307 160.671
L387.456 140.937
L387.53 142.135
L387.679 177.496
L388.051 267.939
L388.126 267.813
L388.498 230.701
L388.87 252.428
L389.018 245.907
L389.316 205.132
L389.614 164.185
L389.688 164.271
L389.837 166.177
L389.911 165.82
L390.06 178.348
L390.432 236.761
L390.655 277.536
L390.73 278.463
L390.804 276.672
L391.176 230.839
L391.548 172.755
L391.771 191.124
L392.069 221.571
L392.218 225.943
L392.441 214.585
L392.515 212.747
L392.664 199.332
L392.813 185.819
L393.036 207.327
L393.11 204.268
L393.185 200.858
L393.78 263.504
L394.003 215.829
L394.152 219.63
L394.301 203.617
L394.375 207.84
L394.524 217.033
L394.598 213.807
L394.673 214.199
L394.747 215.915
L394.822 215.414
L394.896 204.009
L394.97 206.486
L395.045 208.323
L395.194 206.279
L395.566 236.392
L395.64 241.53
L396.086 217.505
L396.235 218.576
L396.533 189.649
L396.682 178.487
L396.756 179.022
L397.202 197.512
L397.277 195.162
L397.649 216.497
L397.872 237.924
L397.946 238.183
L398.17 221.641
L398.318 228.149
L398.467 216.986
L398.616 231.962
L398.69 237.377
L398.765 236.542
L398.839 238.425
L399.062 270.128
L399.137 270.652
L399.732 219.446
L400.03 179.869
L400.178 189.949
L400.253 190.168
L400.327 189.891
L400.402 191.729
L400.476 188.866
L400.625 169.541
L400.699 172.64
L400.922 184.558
L400.997 184.431
L401.146 174.823
L401.22 175.624
L401.369 185.122
L401.443 183.722
L401.518 184.35
L401.666 210.224
L402.038 286.775
L402.41 265.123
L402.708 236.271
L402.782 232.861
L402.857 237.797
L402.931 234.75
L403.452 155.141
L403.675 175.255
L403.898 228.443
L404.047 253.626
L404.122 252.122
L404.419 223.818
L404.494 227.775
L404.568 227.084
L404.717 219.256
L404.866 201.55
L405.238 227.078
L405.312 231.841
L405.461 223.144
L405.684 209.579
L405.833 217.557
L405.907 217.119
L405.982 214.222
L406.205 197.552
L406.354 186.643
L406.502 192.789
L406.577 190.721
L406.726 176.465
L407.172 217.983
L407.395 251.397
L407.618 266.085
L407.693 264.817
L407.916 260.497
L408.139 234.791
L408.214 234.468
L408.288 229.209
L408.437 234.687
L408.586 217.05
L408.809 182.248
L409.032 157.854
L409.106 158.246
L409.255 189.315
L409.553 239.629
L409.627 236.922
L409.999 176.309
L410.074 183.204
L410.222 168.764
L410.594 205.086
L410.892 275.577
L410.966 274.938
L411.19 284.448
L411.264 282.506
L411.487 247.612
L411.71 202.719
L411.859 216.117
L412.008 206.883
L412.082 221.865
L412.157 217.551
L412.529 179.656
L412.603 180.284
L412.826 168.142
L413.124 188.924
L413.347 209.833
L413.645 204.839
L413.719 210.149
L413.868 230.626
L413.942 226.986
L414.463 247.353
L414.686 218.242
L414.761 218.962
L414.835 220.794
L415.133 242.503
L415.207 242.394
L415.43 228.777
L415.505 238.12
L415.579 237.855
L415.654 235.038
L415.728 235.833
L415.802 241.132
L415.951 225.805
L416.621 116.63
L416.695 116.474
L416.918 154.761
L417.514 302.903
L417.662 281.953
L417.886 243.16
L418.034 254.617
L418.109 254.363
L418.183 254.213
L418.258 260.469
L418.555 223.53
L418.927 135.828
L419.225 169.15
L419.299 177.577
L419.374 175.025
L419.597 160.924
L419.746 179.633
L420.341 295.046
L420.415 299.009
L420.49 297.459
L420.564 297.673
L420.713 282.904
L421.457 147.083
L421.68 111.452
L421.754 109.516
L421.903 125.61
L422.052 162.336
L422.424 271.28
L422.498 279.05
L422.722 265.129
L422.796 274.506
L422.87 271.914
L423.094 234.796
L423.242 237.688
L423.391 252.998
L423.614 278.883
L423.763 251.068
L424.21 152.1
L424.284 141.502
L424.358 141.669
L424.805 185.283
L425.028 178.026
L425.102 184.051
L425.4 229.313
L425.549 245.942
L425.698 225.886
L425.772 229.428
L425.921 254.905
L425.995 254.156
L426.07 254.709
L426.218 265.44
L426.293 264.501
L426.367 264.339
L426.516 251.351
L427.037 175.169
L427.186 183.308
L427.26 183.227
L427.483 161.829
L427.632 226.208
L427.855 320.465
L427.93 316.669
L428.078 272.161
L428.525 79.2533
L428.599 81.4652
L429.046 285.127
L429.194 345.118
L429.343 318.547
L429.641 170.474
L429.79 112.477
L429.864 113.185
L429.938 122.148
L430.162 231.669
L430.31 299.089
L430.385 295.766
L430.757 196.677
L431.054 228.259
L431.203 239.479
L431.352 232.199
L431.873 166.218
L432.022 187.76
L432.245 210.005
L432.319 211.756
L432.617 238.039
L432.691 232.377
L432.84 250.377
L432.914 250.256
L433.138 237.573
L433.51 185.151
L433.584 187.893
L433.882 223.777
L433.956 223.075
L434.03 224.417
L434.254 210.927
L434.477 225.373
L434.7 239.56
L434.774 237.509
L434.998 228.121
L435.295 204.729
L435.444 206.434
L435.667 195.888
L435.742 199.004
L435.816 198.986
L435.89 198.122
L435.965 198.958
L436.039 194.937
L436.114 195.075
L436.188 194.148
L436.411 184.062
L436.486 187.363
L437.23 262.427
L437.304 262.151
L437.453 264.938
L437.825 221.917
L437.899 223.72
L437.974 223.939
L438.048 222.804
L438.122 224.63
L438.42 203.139
L438.643 184.091
L438.718 184.373
L438.792 178.147
L439.09 129.452
L439.313 174.743
L439.685 245.85
L439.759 245.424
L440.429 326.369
L440.578 305.627
L440.726 264.599
L441.322 110.542
L441.545 130.926
L441.619 130.033
L441.694 128.628
L441.768 130.477
L442.14 193.278
L442.438 249.45
L442.735 274.385
L442.884 288.848
L442.958 288.007
L443.33 264.599
L443.628 229.843
L443.777 226.49
L443.926 207.736
L444.223 178.037
L444.372 174.414
L444.521 178.176
L444.595 176.275
L444.67 166.886
L444.744 167.099
L445.116 231.168
L445.339 260.008
L446.009 183.82
L446.306 226.525
L446.53 204.24
L446.604 205.559
L446.678 203.018
L446.827 192.812
L447.05 214.844
L447.125 222.263
L447.199 222.009
L447.274 214.844
L447.646 239.445
L447.794 264.8
L447.869 264.299
L448.464 202.408
L448.613 188.86
L448.985 217.24
L449.059 216.197
L449.357 210.512
L449.58 224.722
L449.878 183.694
L449.878 183.694" style="fill:none;stroke:#808080;stroke-linecap:square;"/>
   </g>
  </g>
 </g>
 <defs>
  <clipPath id="p7ff5b81e1d">
   <rect height="345.6" width="446.4" x="72.0" y="43.2"/>
  </clipPath>
 </defs>
</svg>
