<?xml version="1.0" encoding="utf-8" standalone="no"?>
<!DOCTYPE svg PUBLIC "-//W3C//DTD SVG 1.1//EN"
  "http://www.w3.org/Graphics/SVG/1.1/DTD/svg11.dtd">
<!-- Created with matplotlib (http://matplotlib.org/) -->
<svg height="432pt" version="1.1" viewBox="0 0 576 432" width="576pt" xmlns="http://www.w3.org/2000/svg" xmlns:xlink="http://www.w3.org/1999/xlink">
 <defs>
  <style type="text/css">
*{stroke-linecap:butt;stroke-linejoin:round;}
  </style>
 </defs>
 <g id="figure_1">
  <g id="patch_1">
   <path d="
M0 432
L576 432
L576 0
L0 0
z
" style="fill:#ffffff;"/>
  </g>
  <g id="axes_1">
   <g id="line2d_1">
    <path clip-path="url(#p7ff5b81e1d)" d="
M72 192.411
L72.0744 192.169
L72.1488 190.781
L72.2976 199.968
L72.8184 240.495
L73.0416 248.409
L73.3392 231.233
L73.4136 229.522
L73.7112 218.123
L74.0088 212.778
L74.0832 212.813
L74.3064 208.176
L74.3808 209.132
L74.4552 207.842
L74.7528 199.34
L74.976 209.587
L75.1992 199.081
L75.348 196.212
L75.4224 198.712
L75.72 217.254
L75.8688 219.644
L76.1664 213.423
L76.3152 219.425
L76.464 224.638
L76.6872 247.073
L76.7616 243.513
L76.836 242.367
L76.9848 246.733
L77.5056 216.896
L77.58 218.388
L77.6544 218.342
L78.1752 184.393
L78.3984 192.866
L78.7704 223.423
L78.8448 224.557
L78.9192 224.419
L78.9936 223.555
L79.1424 224.932
L79.2168 224.494
L79.5144 214.402
L79.5888 215.422
L79.6632 212.162
L79.812 201.782
L79.9608 203.925
L80.0352 203.602
L80.1096 204.109
L80.6304 226.141
L80.8536 229.079
L81.0024 230.841
L81.1512 226.297
L81.3 233.468
L81.4488 227.656
L81.5232 228.9
L81.5976 231.273
L81.672 229.419
L81.8952 215.226
L82.1184 209.904
L82.2672 218.256
L82.4904 203.631
L82.5648 203.741
L82.6392 207.174
L82.7136 204.368
L82.8624 191.247
L82.9368 192.653
L83.3088 210.134
L83.6064 228.808
L83.6808 227.374
L83.8296 212.231
L83.904 212.916
L83.9784 212.335
L84.0528 209.737
L84.1272 210.296
L84.2016 213.164
L84.3504 204.962
L84.4248 206.534
L84.648 224.096
L84.7224 226.539
L84.8712 243.554
L84.9456 243.427
L85.0944 252.246
L85.1688 250.184
L85.9128 187.29
L86.136 196.506
L86.2104 195.417
L86.3592 187.054
L86.6568 207.606
L87.252 255.719
L87.3264 257.366
L87.4008 254.999
L87.6984 219.091
L88.0704 183.535
L88.1448 183.339
L88.2192 189.352
L88.2936 189.093
L88.368 186.95
L88.5168 194.219
L88.74 211.125
L88.8144 208.498
L88.8888 208.671
L89.7072 244.066
L89.7816 244.47
L89.9304 238.784
L90.1536 226.274
L90.5256 194.047
L90.6 193.597
L91.2696 229.736
L91.4928 210.854
L91.6416 206.523
L91.716 208.568
L91.7904 209.069
L91.8648 206.874
L91.9392 208.297
L92.0136 212.484
L92.2368 205.538
L92.3112 206.073
L92.3856 208.182
L92.5344 215.808
L92.7576 206.281
L92.9064 210.704
L93.5016 246.929
L93.6504 235.398
L93.8736 213.354
L93.948 212.444
L94.0968 204.069
L94.2456 195.51
L94.6176 208.953
L94.8408 221.309
L95.1384 227.305
L95.2128 227.714
L95.436 221.389
L95.7336 233.739
L96.0312 205.647
L96.18 191.783
L96.2544 191.99
L96.3288 190.377
L96.4776 182.866
L97.1472 233.295
L97.296 240.881
L97.4448 222.536
L97.668 230.45
L97.7424 228.825
L97.8168 228.716
L97.8912 231.723
L97.9656 230.317
L98.1144 222.852
L98.1888 225.859
L98.2632 225.156
L98.4864 204.397
L98.5608 205.734
L98.7096 212.611
L98.784 209.737
L98.8584 210.866
L98.9328 212.957
L99.0072 212.663
L99.156 212.306
L99.3792 220.571
L99.4536 222.357
L99.6024 233.456
L99.9 203.879
L100.123 185.044
L100.198 186.253
L100.57 204.478
L100.644 203.038
L100.718 201.143
L101.537 256.986
L101.611 254.596
L102.355 188.223
L102.43 188.166
L102.653 197.969
L102.727 198.102
L103.099 227.195
L103.248 235.311
L103.546 228.042
L103.694 222.213
L103.843 225.992
L103.918 225.784
L104.066 221.839
L104.141 221.977
L104.215 220.848
L104.364 211.816
L104.885 181.455
L104.959 182.555
L105.182 197.606
L105.554 232.581
L105.629 230.64
L105.703 230.744
L105.778 232.616
L105.926 226.827
L106.075 221.251
L106.224 227.489
L106.522 234.937
L106.596 235.743
L106.67 235.305
L106.745 233.456
L106.819 233.497
L106.894 233.048
L107.414 198.816
L107.489 200.936
L107.786 222.415
L108.158 247.062
L108.233 246.44
L108.456 225.75
L109.051 110.216
L109.126 115.935
L109.423 190.256
L109.795 276.507
L110.018 296.298
L110.167 297.6
L110.316 289.703
L110.614 260.972
L111.209 168.72
L111.358 165.074
L112.176 211.188
L112.548 233.382
L112.697 236.486
L112.771 236.699
L112.92 239.343
L113.441 202.22
L113.515 202.018
L114.11 212.576
L114.259 211.724
L114.408 202.37
L114.482 204.662
L114.929 235.899
L115.226 247.459
L115.301 245.23
L115.375 242.909
L115.524 248.651
L115.747 239.712
L115.97 211.021
L116.342 170.344
L116.491 162.522
L116.789 171.024
L117.012 189.911
L117.384 259.607
L117.458 260.655
L117.607 254.216
L117.756 235.887
L117.979 204.011
L118.054 206.338
L118.351 272.452
L118.426 267.982
L119.021 158.888
L119.095 159.89
L119.17 162.856
L119.542 261.145
L119.616 258.184
L119.914 208.573
L120.062 211.989
L120.211 209.115
L120.434 183.702
L120.583 203.971
L120.732 218.354
L120.881 213.533
L121.03 214.719
L121.178 202.376
L121.327 190.896
L121.402 192.399
L121.55 224.667
L121.699 250.529
L121.848 255.99
L121.922 266.363
L121.997 263.224
L122.22 226.268
L122.518 204.046
L122.666 201.788
L122.741 205.1
L123.113 271.997
L123.931 131.458
L124.006 135.243
L124.601 246.434
L124.824 227.887
L125.047 270.292
L125.27 322.207
L125.345 311.643
L125.791 118.781
L126.014 158.686
L126.461 281.76
L126.535 282.307
L126.684 273.661
L127.726 150.852
L127.8 153.652
L128.023 174.854
L128.172 169.912
L128.246 175.482
L129.065 328.462
L129.139 327.166
L129.214 323.318
L129.362 269.641
L129.586 166.629
L129.66 159.976
L129.734 163.403
L129.883 138.618
L130.032 122.951
L130.181 166.998
L130.478 279.104
L130.553 283.442
L130.627 279.945
L130.776 248.139
L131.222 129.552
L131.297 129.944
L131.446 138.866
L131.594 176.352
L131.892 274.433
L131.966 279.168
L132.115 253.893
L132.413 202.744
L132.487 203.821
L132.636 223.785
L133.008 287.808
L133.082 291.016
L133.157 290.365
L133.306 275.021
L133.975 164.475
L134.05 159.792
L134.124 162.061
L134.198 162.562
L134.273 162.079
L134.496 155.005
L134.645 164.619
L135.017 205.181
L135.091 204.633
L135.24 211.845
L135.612 255.632
L135.91 275.009
L135.984 272.596
L136.654 219.068
L136.877 213.193
L136.951 213.844
L137.323 190.516
L137.546 169.146
L137.621 169.204
L137.695 170.269
L137.844 180.862
L138.662 251.52
L138.737 251.577
L138.811 251.232
L138.886 250.091
L139.109 227.789
L139.481 193.54
L139.555 192.319
L139.853 200.388
L140.002 197.756
L140.15 200.815
L140.374 186.996
L140.522 203.723
L140.894 260.937
L140.969 260.2
L141.043 255.068
L141.266 271.922
L141.341 271.501
L141.49 256.825
L141.862 200.336
L142.159 123.383
L142.234 112.629
L142.308 113.988
L142.754 238.986
L142.978 234.286
L143.052 235.732
L143.201 243.398
L143.424 220.698
L143.498 234.896
L143.647 299.097
L143.722 295.97
L144.019 152.102
L144.168 69.2331
L144.317 171.018
L144.54 269.704
L144.689 229.597
L144.912 188.05
L145.061 165.54
L145.21 208.619
L145.507 280.873
L145.656 302.473
L145.879 275.366
L146.177 224.373
L146.251 219.535
L146.4 232.155
L146.623 208.694
L146.995 94.387
L147.07 98.2347
L147.442 205.296
L147.665 264.895
L147.814 248.358
L147.888 252.303
L148.186 288.009
L148.26 282.082
L148.781 156.416
L148.855 165.817
L149.153 207.473
L149.227 210.883
L149.376 207.6
L149.45 208.867
L149.599 223.25
L149.822 249.343
L149.897 246.664
L150.046 253.179
L150.194 260.217
L150.269 259.244
L150.418 251.399
L150.566 227.213
L150.864 132.87
L150.938 143.716
L151.236 218.072
L151.385 227.144
L151.831 154.141
L151.98 195.93
L152.352 314.298
L152.947 181.634
L153.17 199.766
L153.319 189.848
L153.394 190.596
L153.691 216.073
L153.766 215.163
L153.84 215.963
L153.914 219.172
L154.138 212.807
L154.435 255.033
L154.51 254.78
L154.733 251.347
L154.882 231.308
L155.105 170.909
L155.179 173.224
L155.328 196.898
L155.402 195.325
L155.477 195.464
L155.7 214.685
L155.774 213.504
L155.923 202.508
L156.072 187.019
L156.146 188.373
L156.295 221.781
L156.518 291.88
L156.593 288.925
L156.89 208.285
L157.114 133.106
L157.188 128.095
L157.262 131.009
L157.411 182.411
L157.634 265.983
L157.709 258.979
L157.858 217.133
L158.006 233.848
L158.23 263.08
L158.378 243.479
L158.676 183.512
L158.825 225.145
L159.048 276.271
L159.122 281.103
L159.42 228.002
L159.718 152.05
L159.792 145.282
L159.941 87.4232
L160.015 60.691
L160.09 78.0344
L160.387 251.451
L160.462 269.353
L160.61 218.279
L160.685 231.872
L160.908 356.888
L161.206 239.078
L161.354 193.102
L161.503 148.387
L161.578 148.554
L161.726 159.844
L161.95 215.232
L162.322 307.496
L162.396 302.052
L162.694 183.903
L162.768 186.789
L162.842 179.912
L162.917 160.794
L163.214 216.66
L163.289 207.225
L163.512 148.341
L164.256 256.456
L164.33 254.987
L164.405 250.287
L164.554 260.431
L164.777 276.996
L164.926 252.925
L165.298 162.937
L165.372 170.5
L165.67 239.107
L165.893 244.02
L166.042 224.747
L166.488 149.971
L166.637 163.265
L167.009 236.077
L167.306 272.843
L167.455 280.85
L167.678 264.71
L168.05 225.231
L168.125 223.169
L168.199 223.86
L168.497 256.744
L168.571 248.018
L169.018 64.3544
L169.092 74.325
L169.836 284.824
L169.91 277.376
L170.506 194.623
L170.58 191.449
L171.026 245.858
L171.25 278.5
L171.398 280.66
L171.547 266.49
L172.068 175.822
L172.217 166.018
L172.291 166.514
L172.514 175.177
L172.589 175.586
L172.663 177.93
L172.812 186.795
L172.961 177.429
L173.035 177.584
L173.482 242.753
L173.556 243.041
L173.705 238.652
L173.779 239.931
L174.151 266.041
L174.226 263.99
L174.598 215.197
L174.895 172.377
L175.044 166.208
L175.193 175.511
L175.416 204.276
L175.714 235.017
L175.788 233.41
L176.011 238.75
L176.16 233.963
L176.234 234.608
L176.309 236.636
L176.383 234.943
L177.127 184.18
L177.202 184.358
L177.35 188.114
L177.499 210.814
L177.722 257.274
L177.797 258.449
L177.946 243.392
L178.466 168.403
L178.764 196.097
L179.21 247.424
L179.359 253
L179.434 252.079
L179.88 219.356
L179.954 219.235
L180.029 218.797
L180.103 217.19
L180.326 208.838
L180.401 209.259
L180.55 212.502
L180.624 210.802
L180.847 200.63
L180.922 200.624
L180.996 201.569
L181.219 208.003
L181.294 209.213
L181.591 228.399
L181.666 228.779
L181.74 227.092
L182.038 195.7
L182.112 197.094
L182.261 206.672
L182.41 220.514
L182.484 219.967
L182.633 220.842
L182.707 220.802
L182.782 220.664
L182.856 221.17
L183.005 226.971
L183.154 230.767
L183.228 230.882
L183.377 231.527
L183.526 228.411
L183.6 226.009
L183.823 232.276
L184.121 226.602
L184.418 218.377
L184.865 180.799
L185.014 170.413
L185.088 172.464
L185.162 170.707
L185.237 172.516
L185.534 199.53
L186.055 233.186
L186.353 239.349
L186.502 237.2
L186.576 238.952
L186.725 247.062
L187.469 216.038
L187.618 211.16
L188.138 187.129
L188.585 201.846
L188.808 209.541
L188.957 227.144
L189.106 242.408
L189.18 242.31
L189.254 242.655
L189.329 245.817
L189.403 244.055
L189.924 217.628
L189.998 216.908
L190.147 203.412
L190.296 193.712
L190.519 199.588
L190.594 199.265
L190.668 200.377
L190.817 207.237
L190.891 206.96
L190.966 206.264
L191.04 206.891
L191.189 202.093
L191.263 203.879
L191.412 215.865
L191.486 213.705
L191.635 206.212
L191.933 238.024
L192.007 237.805
L192.082 239.142
L192.23 244.585
L192.602 236.452
L192.677 237.558
L192.826 229.81
L193.421 177.273
L193.495 179.347
L193.644 198.038
L193.793 215.243
L193.867 214.483
L193.942 216.2
L194.09 229.448
L194.165 228.549
L194.314 216.701
L194.388 217.311
L194.462 215.698
L194.611 222.916
L194.686 221.539
L194.909 214.65
L195.132 213.659
L195.206 215.243
L195.504 227.99
L195.578 227.685
L195.876 196.293
L196.397 231.279
L196.62 243.848
L196.694 241.209
L196.769 241.67
L196.843 243.364
L196.918 240.034
L197.141 218.982
L197.29 211.517
L197.662 180.896
L198.108 209.19
L198.257 219.414
L198.406 217.951
L198.554 225.519
L198.703 237.65
L199.075 225.128
L199.298 208.521
L199.373 207.882
L199.522 203.343
L199.596 205.411
L199.819 191.84
L199.894 196.333
L200.117 211.102
L200.266 214.27
L200.563 238.053
L200.638 236.82
L200.786 238.871
L200.935 240.294
L201.01 237.932
L201.233 225.859
L201.382 234.125
L201.456 232.005
L202.051 190.688
L202.2 192.249
L202.423 202.226
L202.646 187.532
L202.721 191.167
L203.167 222.196
L203.316 230.703
L203.465 228.785
L203.614 231.124
L203.688 230.012
L203.911 245.61
L204.581 202.865
L204.73 194.64
L204.878 199.559
L205.102 212.726
L205.25 225.369
L205.325 223.48
L205.548 208.798
L205.771 218.463
L205.92 225.704
L206.143 208.677
L206.218 210.497
L206.366 217.496
L206.515 210.825
L206.664 211.286
L206.887 213.147
L207.185 190.521
L207.259 190.602
L207.408 200.717
L207.78 242.027
L207.854 240.564
L208.226 228.175
L208.301 227.558
L208.524 213.343
L208.598 213.7
L208.747 218.792
L208.97 225.254
L209.045 225.68
L209.119 225.179
L209.268 219.742
L209.342 220.427
L209.417 219.362
L209.64 214.005
L209.714 216.511
L209.789 216.05
L209.938 207.341
L210.012 208.28
L210.235 220.041
L210.31 224.442
L210.384 222.766
L210.682 201.264
L210.979 187.532
L211.202 183.886
L211.351 193.701
L211.723 226.026
L212.021 234.47
L212.095 234.038
L212.467 242.609
L212.542 245.097
L212.616 244.504
L213.137 213.832
L213.658 198.868
L213.732 199.53
L214.104 205.641
L214.476 227.011
L214.55 228.301
L214.774 213.809
L214.922 215.531
L214.997 215.503
L215.146 213.613
L215.22 213.636
L215.369 208.533
L215.443 209.956
L215.666 220.358
L215.89 215.071
L215.964 216.764
L216.113 212.795
L216.187 212.853
L216.262 211.799
L216.336 212.196
L216.485 213.942
L216.782 206.995
L216.931 212.553
L217.229 232.207
L217.303 230.657
L217.526 235.916
L218.047 222.996
L218.122 217.599
L218.196 218.331
L218.345 226.026
L218.568 215.289
L218.791 194.363
L218.866 191.725
L219.014 182.181
L219.089 181.991
L219.163 182.486
L219.535 215.284
L219.684 224.425
L219.982 218.809
L220.056 218.895
L220.13 219.776
L220.205 218.849
L220.279 219.892
L220.8 238.445
L220.874 237.972
L221.246 216.413
L221.47 194.686
L221.618 199.599
L221.693 197.52
L221.916 217.202
L221.99 213.786
L222.065 211.684
L222.214 213.59
L222.288 212.824
L222.437 220.37
L222.511 219.869
L222.958 228.716
L223.032 226.925
L223.106 227.253
L223.255 238.721
L223.33 237.765
L223.478 231.32
L223.702 211.459
L223.85 206.275
L224.074 185.988
L224.148 186.224
L224.297 194.571
L224.446 190.377
L224.818 207.496
L225.19 236.296
L225.338 247.246
L225.487 248.467
L225.562 247.972
L225.785 232.374
L226.082 206.448
L226.157 209.138
L226.231 208.579
L226.38 203.349
L226.454 203.792
L226.529 203.291
L227.05 223.014
L227.198 235.121
L227.273 235.444
L227.347 234.459
L227.496 226.804
L227.868 207.646
L227.942 207.502
L228.091 203.988
L228.166 200.982
L228.463 179.145
L228.612 179.756
L228.761 194.306
L229.207 250.23
L229.282 248.542
L230.026 213.717
L230.398 217.634
L230.472 217.593
L230.695 211.88
L230.844 212.496
L231.067 207.773
L231.216 211.177
L231.365 207.473
L231.514 213.095
L231.588 211.684
L231.662 212.219
L231.886 223.682
L231.96 223.215
L232.034 223.947
L232.183 226.107
L232.332 220.957
L232.406 221.608
L232.481 220.681
L232.704 212.922
L232.778 216.43
L232.853 215.888
L233.299 183.857
L233.448 182.648
L233.597 188.978
L233.82 216.603
L234.192 252.378
L234.415 258.236
L234.564 254.1
L234.936 230.3
L235.159 207.692
L235.234 207.951
L235.308 207.346
L235.531 194.911
L235.606 195.233
L235.68 198.384
L235.754 197.255
L235.903 191.506
L236.052 196.731
L236.126 195.786
L236.35 191.374
L236.424 192.802
L236.722 211.05
L236.945 217.841
L237.094 216.355
L237.168 216.534
L237.242 215.998
L237.689 240.392
L237.763 242.379
L237.912 236.861
L238.284 210.036
L238.358 210.221
L238.582 212.847
L238.879 220.191
L239.326 231.245
L239.921 207.588
L240.07 208.032
L240.144 209.385
L240.442 192.664
L240.516 193.77
L240.665 209.812
L240.739 209.696
L240.888 200.688
L241.111 211.845
L241.186 211.874
L241.334 217.835
L241.558 232.201
L241.632 230.594
L241.706 231.343
L241.781 233.825
L241.855 230.968
L242.078 211.989
L242.227 211.903
L242.376 209.455
L242.45 210.578
L242.897 236.936
L242.971 235.248
L243.12 239.096
L243.194 239.021
L243.492 221.695
L243.79 207.266
L243.938 197.739
L244.013 198.2
L244.087 196.581
L244.236 188.799
L244.31 189.542
L244.385 188.713
L244.459 184.399
L244.534 185.13
L244.682 199.087
L244.757 197.042
L244.831 199.864
L245.203 233.33
L245.352 244.222
L245.501 235.968
L245.575 236.175
L245.65 240.783
L245.724 240.674
L245.947 214.155
L246.096 210.175
L246.245 205.67
L246.691 228.877
L246.766 227.236
L246.914 217.686
L246.989 220.174
L247.063 218.907
L247.286 203.332
L247.361 203.51
L247.435 204.754
L247.584 201.396
L247.807 206.24
L247.882 206.828
L248.328 228.9
L248.402 228.872
L248.551 230.415
L248.626 229.309
L248.923 219.195
L249.072 216.182
L249.295 204.864
L249.37 206.454
L249.593 197.998
L249.816 191.218
L249.89 192.618
L250.262 216.47
L250.486 228.791
L250.783 239.372
L250.858 238.761
L251.006 229.966
L251.081 230.116
L251.155 230.047
L251.23 228.267
L251.304 229.649
L251.527 235.674
L251.602 236.659
L251.676 235.242
L252.048 214.875
L252.122 212.369
L252.271 217.749
L252.346 217.161
L252.42 214.454
L252.941 172.4
L253.164 175.557
L253.536 207.116
L253.834 240.576
L253.908 242.367
L253.982 241.25
L254.131 236.175
L254.28 239.666
L254.503 236.567
L254.578 233.122
L254.652 233.871
L254.726 236.365
L254.95 230.588
L255.024 232.708
L255.098 231.285
L255.47 204.829
L255.768 186.593
L255.917 188.292
L255.991 189.387
L256.14 200.429
L256.512 230.859
L256.661 234.557
L256.958 227.167
L257.033 225.329
L257.182 232.166
L258 182.129
L258.223 192.693
L258.298 195.469
L258.521 224.77
L258.595 224.557
L258.67 226.343
L258.818 234.436
L258.893 234.315
L258.967 234.125
L259.414 220.756
L259.562 219.817
L259.711 219.126
L259.86 224.033
L259.934 223.722
L260.009 224.137
L260.306 243.502
L260.381 241.849
L260.604 217.755
L260.827 191.345
L260.976 187.561
L261.05 189.07
L261.422 207.704
L261.497 206.102
L261.646 200.717
L261.794 204.132
L261.943 200.365
L262.315 226.297
L262.39 225.64
L262.464 220.842
L262.538 221.85
L262.687 227.506
L262.91 218.648
L263.059 215.197
L263.357 237.465
L263.431 237.166
L263.803 223.411
L263.878 226.671
L263.952 229.43
L264.101 223.215
L264.25 213.423
L264.547 173.558
L264.622 174.008
L265.291 235.467
L265.366 234.315
L265.738 223.664
L265.812 223.319
L265.886 220.796
L266.258 234.896
L266.854 188.73
L266.928 189.024
L267.151 204.881
L267.226 204.731
L267.374 215.099
L267.449 212.888
L267.598 214.472
L267.895 227.864
L268.044 223.515
L268.118 223.618
L268.193 223.446
L268.267 219.972
L268.416 225.058
L268.49 223.785
L268.565 222.685
L268.714 228.624
L269.086 213.124
L269.458 227.633
L269.606 231.705
L269.681 234.182
L270.499 180.729
L270.648 184.825
L270.722 182.181
L270.797 182.653
L271.318 223.094
L271.392 223.112
L271.466 222.898
L272.136 254.169
L272.21 254.002
L272.285 254.889
L272.434 240.201
L272.88 187.1
L272.954 185.378
L273.103 186.57
L273.178 186.207
L273.252 187.129
L273.326 193.206
L273.401 191.708
L273.475 189.11
L273.55 192.272
L273.773 221.441
L273.922 230.346
L274.145 258.104
L274.219 258.017
L274.517 233.468
L275.038 181.553
L275.335 192.347
L275.633 206.05
L276.005 230.571
L276.154 241.348
L276.228 238.508
L276.377 223.469
L276.451 223.538
L276.674 219.12
L277.195 238.877
L277.567 219.523
L277.865 193.004
L277.939 193.085
L278.088 197.278
L278.162 196.95
L278.237 194.087
L278.311 195.469
L278.386 195.953
L278.46 194.813
L278.609 199.334
L278.832 211.891
L279.055 224.868
L279.13 227.587
L279.204 226.268
L279.278 224.793
L279.353 227.27
L279.427 227.034
L279.799 208.038
L279.874 206.517
L280.022 216.05
L280.32 240.697
L280.618 227.322
L280.99 209.08
L281.138 210.428
L281.213 210.019
L281.287 210.278
L281.362 209.979
L281.436 208.712
L281.51 209.322
L281.659 211.476
L281.808 219.782
L281.882 218.843
L281.957 219.189
L282.106 224.857
L282.329 218.745
L282.403 216.263
L282.626 197.929
L282.701 199.812
L282.85 206.189
L282.924 204.559
L283.296 221.481
L283.445 218.475
L283.519 221.026
L283.891 206.235
L283.966 206.114
L284.338 225.623
L284.412 225.145
L284.486 225.934
L284.561 231.544
L284.71 219.414
L284.784 214.397
L284.858 214.662
L285.007 213.7
L285.454 237.16
L285.528 238.98
L285.602 238.836
L285.677 237.327
L285.974 213.394
L286.049 213.55
L286.123 212.801
L286.57 179.802
L286.644 181.64
L286.942 194.732
L287.09 197.007
L287.462 219.759
L287.537 221.81
L287.983 246.393
L288.058 243.796
L288.206 235.812
L288.281 235.858
L288.504 215.554
L288.578 216.303
L288.653 219.212
L288.727 217.732
L288.95 210.514
L289.025 209.403
L289.174 200.532
L289.248 200.809
L289.397 206.511
L289.471 205.964
L289.694 216.925
L289.769 217.248
L289.918 220.064
L290.215 218.043
L290.438 222.466
L290.587 218.406
L290.81 208.671
L290.959 215.036
L291.034 213.631
L291.108 212.582
L291.182 213.705
L291.257 213.285
L291.406 218.728
L291.48 216.297
L291.554 216.885
L291.703 222.42
L291.926 213.59
L292.001 212.738
L292.15 214.621
L292.298 206.292
L292.373 212.859
L292.447 211.424
L292.522 204.858
L292.596 207.56
L292.819 220.64
L292.894 219.851
L292.968 221.038
L293.042 219.517
L293.266 211.517
L293.563 221.389
L293.638 222.662
L293.712 225.934
L293.935 212.335
L294.01 215.963
L294.084 220.796
L294.158 216.706
L294.233 217.565
L294.382 223.267
L294.605 225.859
L294.679 225.519
L294.754 227.086
L295.126 214.967
L295.572 193.488
L295.646 194.018
L295.87 202.352
L295.944 199.398
L296.018 200.48
L296.167 202.174
L296.465 219.465
L296.688 239.061
L296.762 237.742
L297.06 252.367
L297.134 251.958
L297.283 246.094
L297.655 206.408
L297.878 185.234
L298.176 164.59
L298.25 162.989
L298.325 165.575
L298.994 249.435
L299.069 249.769
L299.143 244.187
L299.218 244.395
L299.441 250.333
L299.738 243.554
L300.185 200.792
L300.259 200.573
L300.334 199.651
L300.482 184.404
L300.854 201.46
L300.929 202.237
L301.003 204.386
L301.226 217.357
L301.301 217.294
L301.598 220.543
L301.747 214.425
L301.822 215.854
L301.97 219.039
L302.045 219.12
L302.194 222.674
L302.342 220.479
L302.417 221.821
L302.64 235.069
L302.714 234.102
L302.863 231.072
L303.086 216.62
L303.161 218.365
L303.235 218.44
L303.533 201.949
L303.756 189.076
L303.979 201.955
L304.351 232.16
L304.574 225.767
L304.649 228.601
L304.723 226.902
L304.946 217.57
L305.095 210.1
L305.244 205.515
L305.393 191.593
L305.467 192.584
L306.062 229.753
L306.286 241.417
L306.583 237.362
L306.881 216.833
L307.03 209.051
L307.178 213.89
L307.476 205.175
L307.625 192.221
L307.699 193.131
L308.294 224.868
L308.518 234.297
L308.592 233.514
L308.666 234.165
L308.741 234.125
L309.113 222.253
L309.187 225.225
L309.782 182.97
L309.857 183.189
L310.378 218.648
L310.452 219.563
L310.601 227.789
L310.824 237.719
L311.047 251.243
L311.122 249.682
L311.27 244.4
L311.494 225.404
L311.642 216.896
L312.238 183.673
L312.312 184.623
L312.386 187.33
L312.461 184.75
L312.535 185.913
L312.833 201.627
L313.279 247.39
L313.428 243.053
L313.502 243.473
L313.651 242.442
L314.098 213.913
L314.172 212.415
L314.321 194.968
L314.47 184.52
L314.544 183.103
L314.842 193.868
L315.065 208.262
L315.586 245.38
L315.66 243.836
L315.734 243.732
L315.809 242.287
L316.702 198.125
L316.776 199.524
L317.148 214.149
L317.222 215.773
L317.371 225.876
L317.446 223.826
L317.743 205.348
L317.818 206.045
L318.115 215.312
L318.19 219.091
L318.264 217.991
L318.338 217.472
L318.413 219.252
L318.487 218.429
L318.785 208.533
L318.934 203.965
L319.082 199.974
L319.157 201.126
L319.306 208.637
L319.678 248.098
L319.752 256.508
L319.826 256.191
L319.975 251.238
L320.05 249.798
L320.645 208.579
L320.719 205.785
L321.166 165.817
L321.24 167.026
L321.314 171.035
L321.389 170.321
L321.538 178.575
L321.761 218.82
L322.058 278.264
L322.133 285.492
L322.282 270.084
L322.505 229.062
L322.728 202.393
L322.877 186.968
L323.026 171.778
L323.546 207.64
L323.621 210.249
L323.844 231.717
L324.142 248.49
L324.29 243.663
L324.365 245.351
L324.439 247.966
L324.662 225.997
L325.034 181.352
L325.109 181.593
L325.258 189.427
L325.481 198.459
L325.555 198.269
L325.63 199.749
L325.853 214.212
L326.002 227.449
L326.299 248.864
L326.448 254.429
L326.671 236.855
L327.192 182.302
L327.266 180.822
L327.638 207.79
L327.713 206.575
L327.787 206.903
L327.936 212.404
L328.01 207.162
L328.085 208.976
L328.308 221.159
L328.457 229.839
L328.829 257.522
L328.903 254.872
L329.498 178.31
L329.573 179.042
L329.647 179.86
L329.87 187.889
L330.094 216.073
L330.614 259.734
L330.689 255.84
L331.358 167.47
L331.433 169.59
L332.028 221.407
L332.102 224.033
L332.474 262.481
L332.549 266.674
L332.623 266.467
L332.921 244.193
L333.516 184.168
L333.59 187.405
L333.665 189.957
L333.739 188.667
L333.888 195.389
L333.962 193.643
L334.111 191.046
L334.186 190.752
L335.004 235.749
L335.078 234.896
L335.45 217.449
L335.674 210.198
L335.748 210.774
L335.822 209.662
L335.971 205.279
L336.046 205.728
L336.12 205.1
L336.566 220.79
L336.79 246.14
L336.864 247.856
L336.938 245.593
L337.162 226.625
L337.236 227.593
L337.459 251.935
L337.608 261.513
L337.682 264.854
L337.757 261.502
L338.352 101.144
L338.501 121.707
L338.947 214.777
L339.542 305.952
L339.617 309.529
L339.691 308.815
L339.914 285.901
L340.584 152.384
L340.658 155.466
L340.882 170.528
L341.328 204.173
L341.626 220.07
L341.774 219.108
L341.923 216.971
L342.072 218.527
L342.221 218.054
L342.295 219.229
L342.518 237.022
L342.816 259.883
L342.965 250.23
L343.114 236.792
L343.634 167.216
L343.709 165.431
L343.932 171.738
L344.304 203.844
L344.899 281.391
L345.048 275.522
L345.42 234.77
L345.643 216.015
L345.792 198.119
L345.866 199.294
L345.941 198.511
L346.09 191.126
L346.61 160.978
L347.057 199.691
L347.206 212.962
L347.578 251.238
L347.652 250.201
L347.875 239.228
L347.95 239.977
L348.024 240.633
L348.173 236.982
L348.396 217.593
L348.694 204.656
L349.066 231.999
L349.14 231.371
L349.363 227.236
L349.438 223.855
L349.512 225.289
L349.586 226.89
L349.81 215.312
L349.884 213.826
L350.256 192.756
L350.33 189.341
L350.405 190.418
L350.851 226.625
L350.926 226.568
L351 225.502
L351.074 225.98
L351.149 227.691
L351.223 225.341
L351.521 206.557
L351.818 197.647
L352.042 186.57
L352.116 186.161
L352.488 214.46
L353.009 268.5
L353.158 263.541
L353.232 265.862
L353.306 262.481
L354.125 178.713
L354.199 178.955
L354.348 169.037
L354.497 180.223
L354.646 179.6
L355.018 203.401
L355.39 239.493
L355.464 239.072
L355.613 244.792
L355.687 243.899
L356.059 232.218
L356.134 234.747
L356.282 219.264
L356.654 191.449
L356.729 191.167
L356.878 196.639
L357.398 244.349
L357.473 240.824
L357.547 240.829
L357.622 241.699
L357.77 229.851
L358.142 193.528
L358.291 198.948
L358.44 197.33
L358.589 200.976
L358.812 210.733
L359.184 235.553
L359.258 235.784
L359.482 238.255
L359.556 237.604
L359.705 229.021
L359.854 220.589
L359.928 219.287
L360.374 170.448
L360.523 165.414
L360.598 165.995
L360.97 205.117
L361.416 267.867
L361.639 279.905
L361.714 279.024
L361.937 269.658
L362.309 207.156
L362.606 158.479
L362.681 155.904
L362.755 156.745
L363.053 170.315
L363.276 201.068
L363.574 238.393
L363.722 243.197
L363.871 240.213
L364.02 229.171
L364.169 219.143
L364.243 221.193
L364.318 218.573
L364.541 201.932
L364.615 202.347
L365.359 234.401
L365.508 239.591
L365.582 239.176
L365.731 233.439
L366.178 209.092
L366.55 180.079
L366.624 180.119
L367.219 223.388
L367.591 262.527
L367.666 260.033
L368.038 231.746
L368.335 199.974
L368.707 160.512
L368.782 159.078
L368.856 159.383
L368.93 161.704
L369.154 188.402
L369.749 285.976
L369.823 287.215
L369.972 275.896
L370.27 233.088
L370.642 185.286
L370.865 164.573
L370.939 166.157
L371.162 175.2
L371.683 247.327
L371.832 249.268
L371.906 251.18
L372.055 237.8
L372.13 238.485
L372.204 237.598
L372.353 223.688
L372.725 175.05
L372.799 170.724
L372.948 174.751
L373.022 173.414
L373.171 186.317
L373.394 207.001
L373.766 261.444
L373.915 267.429
L374.064 262.32
L374.138 260.58
L374.287 246.44
L374.957 161.572
L375.329 197.958
L375.924 265.707
L375.998 264.221
L376.37 229.183
L377.04 151.417
L377.189 157.793
L377.338 168.599
L377.933 250.489
L378.082 260.69
L378.23 266.571
L378.528 247.517
L379.198 185.216
L379.346 191.08
L380.016 255.2
L380.09 249.268
L381.058 164.987
L381.132 161.675
L381.43 189.076
L381.95 274.836
L382.025 275.522
L382.248 270.125
L382.546 228.532
L382.769 196.754
L382.992 178.61
L383.141 162.718
L383.215 162.781
L383.364 169.192
L383.587 200.06
L384.034 264.9
L384.182 270.107
L384.257 268.351
L384.48 244.838
L385.075 177.965
L385.224 168.754
L385.298 169.952
L385.596 185.643
L386.117 254.331
L386.266 257.119
L386.563 234.061
L386.935 191.097
L387.084 192.428
L387.233 188.505
L388.126 262.377
L388.2 265.246
L388.274 263.224
L388.498 232.823
L389.018 157.056
L389.093 157.039
L389.39 169.451
L389.465 170.747
L390.358 277.567
L390.506 272.786
L390.73 241.63
L391.102 191.092
L391.25 180.32
L391.325 180.24
L391.474 178.322
L391.548 180.286
L392.069 232.351
L392.292 259.065
L392.366 262.89
L392.441 261.56
L392.59 253.069
L392.887 213.769
L393.259 167.366
L393.334 166.329
L393.408 167.205
L393.557 180.361
L394.226 255.725
L394.375 260.091
L394.45 258.864
L394.598 235.449
L394.896 194.456
L395.119 182.273
L395.194 180.067
L395.268 180.332
L395.417 189.346
L395.863 224.062
L396.012 237.097
L396.235 255.166
L396.384 260.321
L396.458 259.065
L396.682 239.09
L396.979 211.338
L397.5 174.67
L397.574 171.617
L397.649 172.297
L398.467 241.993
L398.69 253.726
L399.434 182.786
L399.509 185.032
L399.955 214.748
L400.402 260.909
L400.476 263.524
L400.699 246.67
L401.071 201.995
L401.369 187.976
L401.443 187.624
L401.518 188.189
L401.592 191.806
L401.741 207.56
L401.815 207.064
L402.187 220.226
L402.262 218.786
L402.336 218.244
L402.41 219.045
L402.708 234.102
L402.782 233.209
L403.229 185.516
L403.452 170.742
L403.526 171.968
L403.675 185.844
L404.047 238.779
L404.494 278.995
L404.568 280.942
L404.717 272.054
L405.014 220.75
L405.312 166.767
L405.535 150.916
L405.61 151.636
L405.684 153.934
L405.907 183.339
L406.502 274.347
L406.651 272.982
L406.8 254.653
L407.321 156.756
L407.47 160.235
L407.544 161.756
L407.618 167.015
L407.916 206.425
L408.214 230.588
L408.734 257.839
L408.809 256.675
L409.106 239.539
L409.478 199.15
L409.702 188.909
L409.85 184.485
L409.925 185.464
L410.297 207.404
L410.446 219.01
L410.892 250.235
L411.115 233.341
L411.71 167.591
L411.934 175.494
L412.231 212.029
L412.529 265.897
L412.678 270.92
L412.752 270.292
L412.826 271.789
L412.901 269.963
L413.198 231.728
L413.57 166.802
L413.645 164.93
L414.091 191.72
L414.686 248.715
L414.835 258.564
L415.058 250.166
L415.579 172.239
L415.728 169.353
L415.877 178.31
L415.951 178.408
L416.323 198.666
L416.844 272.486
L417.142 256.122
L417.514 206.494
L417.737 190.366
L417.96 186.276
L418.109 198.372
L418.183 196.754
L418.258 197.912
L418.481 220.272
L418.778 244.406
L418.853 244.856
L419.15 232.5
L419.746 169.014
L419.82 172.948
L420.118 195.469
L421.01 265.839
L421.159 260.909
L421.382 241.273
L421.903 175.545
L422.052 171.346
L422.126 171.871
L422.35 182.434
L422.945 262.544
L423.019 267.049
L423.168 257.401
L423.317 239.297
L423.614 190.533
L423.838 177.366
L423.912 177.642
L423.986 180.482
L424.135 194.386
L424.21 192.595
L424.284 194.237
L424.73 245.051
L424.879 248.847
L424.954 246.889
L425.102 253.749
L425.4 232.904
L425.846 161.278
L425.921 163.058
L426.665 240.098
L426.814 247.557
L427.037 269.589
L427.111 271.202
L427.409 250.961
L427.706 200.406
L427.781 197.284
L428.227 145.881
L428.376 155.455
L428.525 171.208
L429.194 272.4
L429.269 272.832
L429.418 261.473
L429.938 199.835
L430.236 213.452
L430.459 220.03
L430.608 210.054
L430.682 210.088
L430.757 210.86
L431.129 232.322
L431.203 228.895
L431.278 227.938
L431.724 194.565
L431.947 175.332
L432.319 204.38
L432.394 202.52
L432.542 199.737
L433.063 247.88
L433.361 287.906
L433.435 286.028
L433.733 233.652
L434.105 173.362
L434.254 172.17
L434.402 166.243
L434.477 166.456
L434.626 171.104
L434.923 192.681
L435.146 231.02
L435.518 293.983
L435.593 293.942
L435.667 291.736
L435.742 285.763
L436.262 175.332
L436.486 152.333
L436.56 153.07
L436.709 157.027
L436.858 170.92
L437.527 268.224
L437.602 268.172
L437.75 253.68
L438.197 195.008
L438.346 189.796
L438.42 191.046
L439.09 229.557
L439.313 254.907
L439.462 271.127
L439.536 270.689
L439.685 263.91
L439.834 233.981
L440.206 162.176
L440.503 150.357
L440.652 155.627
L440.95 187.601
L441.545 285.291
L441.619 284.265
L441.768 274.894
L441.991 230.686
L442.289 192.18
L442.512 182.976
L442.586 183.644
L443.182 225.692
L443.479 262.798
L443.554 264.987
L443.628 264.825
L443.777 250.034
L444.372 157.136
L444.595 177.711
L445.711 268.69
L445.786 265.874
L446.083 225.565
L446.455 174.889
L446.53 173.178
L446.604 173.691
L446.678 174.198
L446.902 192.019
L447.869 275.545
L447.943 274.099
L448.092 261.007
L448.836 158.248
L448.91 157.004
L449.059 164.354
L449.431 201.085
L449.803 252.061
L449.878 251.462" style="fill:none;stroke:#808080;stroke-linecap:square;"/>
   </g>
  </g>
 </g>
 <defs>
  <clipPath id="p7ff5b81e1d">
   <rect height="345.6" width="446.4" x="72.0" y="43.2"/>
  </clipPath>
 </defs>
</svg>
