<?xml version="1.0" encoding="utf-8" standalone="no"?>
<!DOCTYPE svg PUBLIC "-//W3C//DTD SVG 1.1//EN"
  "http://www.w3.org/Graphics/SVG/1.1/DTD/svg11.dtd">
<!-- Created with matplotlib (http://matplotlib.org/) -->
<svg height="432pt" version="1.1" viewBox="0 0 576 432" width="576pt" xmlns="http://www.w3.org/2000/svg" xmlns:xlink="http://www.w3.org/1999/xlink">
 <defs>
  <style type="text/css">
*{stroke-linecap:butt;stroke-linejoin:round;}
  </style>
 </defs>
 <g id="figure_1">
  <g id="patch_1">
   <path d="
M0 432
L576 432
L576 0
L0 0
z
" style="fill:#ffffff;"/>
  </g>
  <g id="axes_1">
   <g id="line2d_1">
    <path clip-path="url(#p7ff5b81e1d)" d="
M72 254.764
L72.2976 216.829
L72.5208 186.277
L72.744 175.933
L73.2648 202.924
L73.4136 219.386
L73.488 218.004
L73.6368 214.686
L73.86 236.136
L73.9344 233.463
L74.1576 203.972
L74.3064 184.676
L74.3808 189.607
L74.6784 221.149
L74.7528 218.845
L74.976 190.932
L75.0504 193.558
L75.4224 247.863
L75.4968 247.668
L75.6456 250.836
L76.0176 273.553
L76.092 272.366
L76.2408 258.277
L76.9104 144.805
L77.0592 146.856
L77.208 142.582
L77.2824 143.389
L77.4312 162.224
L77.952 252.103
L78.2496 289.485
L78.324 288.137
L78.4728 273.369
L78.7704 222.485
L78.8448 224.063
L78.9192 223.982
L79.1424 187.522
L79.2912 170.311
L79.44 181.209
L79.6632 201.403
L79.8864 199.525
L79.9608 201.184
L80.3328 224.317
L80.4072 224.455
L80.556 226.839
L80.7048 229.489
L80.7792 228.337
L81.0024 215.469
L81.0768 216.621
L81.3 223.936
L81.3744 223.107
L81.5976 218.706
L81.7464 220.607
L81.8952 214.156
L82.1928 194.687
L82.2672 198.926
L82.6392 244.949
L82.788 239.857
L82.8624 240.836
L83.0112 245.675
L83.16 227.024
L83.4576 166.06
L83.532 166.682
L83.8296 187.372
L83.9784 184.02
L84.0528 187.51
L84.4992 234.65
L84.7224 225.618
L84.8712 244.661
L85.0944 267.447
L85.3176 256.02
L85.392 255.213
L85.4664 252.852
L85.6152 235.848
L85.9872 178.398
L86.3592 155.012
L86.508 167.753
L86.88 208.926
L87.252 241.631
L87.4752 264.222
L87.5496 264.153
L87.996 243.025
L88.4424 188.029
L88.5168 187.752
L88.6656 192.21
L88.74 191.024
L88.8888 180.955
L88.9632 182.211
L89.112 204.203
L89.3352 234.362
L89.4096 232.53
L89.6328 220.423
L89.856 235.145
L89.9304 233.44
L90.228 210.493
L90.3024 212.174
L90.4512 221.759
L90.5256 218.395
L90.8232 187.741
L91.1208 212.532
L91.344 198.984
L91.8648 236.793
L92.0136 238.993
L92.088 238.613
L92.3112 242.242
L92.3856 241.573
L92.9808 193.881
L93.204 167.65
L93.3528 193.431
L93.576 227.761
L93.7992 223.118
L94.0968 251.723
L94.1712 250.513
L94.5432 216.322
L94.6176 218.303
L94.692 220.342
L94.7664 218.925
L95.064 199.203
L95.1384 196.876
L95.3616 206.437
L95.5104 193.443
L95.5848 186.589
L95.6592 186.842
L96.0312 216.137
L96.18 209.79
L96.2544 210.942
L96.6264 240.099
L96.924 221.966
L97.0728 223.429
L97.1472 223.199
L97.2216 223.487
L97.296 223.36
L97.9656 200.148
L98.1144 186.013
L98.1888 187.764
L98.4864 224.317
L98.5608 223.706
L98.6352 223.602
L98.7096 227.289
L98.9328 251.723
L99.0072 253.024
L99.0816 249.292
L99.3792 207.428
L99.4536 209.917
L99.6768 224.04
L99.9744 191.692
L100.049 196.484
L100.272 210.896
L100.346 210.043
L100.57 190.494
L100.644 191.922
L101.314 242.633
L101.388 244.361
L101.462 244.338
L101.611 229.166
L101.834 205.562
L102.058 213.511
L102.132 212.785
L102.355 196.127
L102.653 213.591
L102.727 212.071
L102.95 201.138
L103.025 201.219
L103.471 224.697
L103.546 225.065
L103.694 238.578
L103.918 256.976
L104.066 231.505
L104.215 206.841
L104.29 208.488
L104.513 224.558
L104.662 204.963
L104.885 181.981
L105.331 202.601
L105.406 201.968
L105.48 202.855
L105.629 213.269
L105.926 250.006
L106.075 233.429
L106.224 222.324
L106.298 223.948
L106.373 223.591
L106.745 203.005
L106.968 208.304
L107.042 208.177
L107.117 206.541
L107.191 207.486
L107.489 230.825
L107.786 213.292
L107.935 215.435
L108.158 238.014
L108.233 236.839
L108.456 210.988
L108.53 211.552
L108.679 225.687
L108.754 222.013
L109.051 187.015
L109.2 203.454
L109.349 215.527
L109.572 199.802
L109.646 200.136
L109.87 221.16
L110.093 242.161
L110.39 200.148
L110.465 200.977
L110.614 213.833
L110.762 225.307
L110.911 223.118
L110.986 224.363
L111.283 237.553
L111.432 230.169
L111.655 217.278
L111.73 217.992
L111.878 205.251
L112.102 190.69
L112.399 218.833
L112.474 216.713
L112.697 203.719
L112.771 204.214
L112.846 206.011
L113.143 235.145
L113.218 231.102
L113.441 218.994
L113.515 219.743
L113.664 227.392
L113.738 227.081
L114.11 200.724
L114.185 200.389
L114.408 205.239
L114.482 206.403
L114.631 224.777
L114.78 238.244
L114.854 238.463
L115.226 223.406
L115.301 223.66
L115.45 229.178
L115.524 226.862
L115.822 199.79
L115.97 197.302
L116.194 210.988
L116.268 209.294
L116.491 198.88
L116.714 206.092
L116.789 205.332
L116.863 204.306
L116.938 207.117
L117.235 235.652
L117.31 235.226
L117.607 223.89
L117.83 238.682
L117.905 238.21
L118.202 215.124
L118.351 213.914
L118.872 185.31
L119.095 204.525
L119.393 234.742
L119.616 230.295
L119.839 240.721
L120.286 215.872
L120.36 214.225
L120.732 190.263
L120.806 191.404
L121.03 207.739
L121.104 205.838
L121.253 198.293
L121.625 227.784
L121.774 221.149
L121.848 221.506
L121.997 238.728
L122.146 257.748
L122.22 254.706
L122.592 214.571
L122.815 207.29
L123.038 181.923
L123.113 182.269
L123.41 219.559
L123.485 218.603
L123.708 199.641
L124.006 226.632
L124.08 225.906
L124.229 219.236
L124.303 221.045
L124.526 235.376
L124.601 235.295
L124.898 210.93
L125.196 226.989
L125.27 225.941
L125.642 196.795
L125.717 196.703
L125.866 200.297
L126.089 195.459
L126.312 215.78
L126.535 239.258
L126.684 234.443
L126.758 236.067
L126.982 258.473
L127.056 253.716
L127.428 192.153
L127.502 192.406
L127.651 196.703
L127.726 194.353
L127.874 180.955
L127.949 182.672
L128.321 223.994
L128.395 223.026
L128.618 213.234
L128.767 227.438
L128.99 249.315
L129.288 237.945
L129.362 236.954
L129.511 223.026
L129.883 185.379
L130.106 192.763
L130.181 191.427
L130.255 188.282
L130.33 189.48
L130.478 204.076
L130.702 225.653
L130.925 218.672
L131.148 229.558
L131.371 244.857
L131.446 243.624
L131.743 219.662
L131.818 220.918
L131.966 229.316
L132.115 219.259
L132.264 209.467
L132.413 211.541
L132.487 210.93
L132.71 195.309
L132.859 188.19
L132.934 189.699
L133.231 220.377
L133.306 218.165
L133.454 212.958
L133.529 216.679
L133.826 246.942
L134.273 216.978
L134.496 198.373
L134.57 198.523
L134.794 205.481
L134.868 204.087
L135.166 187.499
L135.314 203.35
L135.538 238.924
L135.612 237.023
L135.835 222.404
L136.207 252.667
L136.505 219.444
L136.654 225.319
L136.802 213.684
L137.1 179.124
L137.174 182.706
L137.472 210.642
L137.621 202.175
L137.77 193.823
L137.844 196.012
L138.365 236.021
L138.439 237.058
L138.737 221.828
L138.96 227.231
L139.183 242.76
L139.332 222.888
L139.555 195.125
L139.63 194.825
L140.002 216.46
L140.076 215.273
L140.15 214.409
L140.374 229.915
L140.448 237.184
L140.522 236.701
L140.82 205.032
L140.894 205.274
L141.043 202.025
L141.192 203.822
L141.341 201.38
L141.415 203.961
L141.713 231.332
L141.862 205.919
L141.936 190.747
L142.01 191.819
L142.234 241.182
L142.308 237.3
L142.531 204.18
L142.606 206.599
L142.829 225.883
L142.978 224.558
L143.052 225.134
L143.275 205.689
L143.35 210.228
L143.498 220.999
L143.722 215.066
L143.945 230.192
L144.242 204.18
L144.317 204.825
L144.391 204.007
L144.54 199.433
L144.838 221.874
L144.912 220.319
L144.986 220.043
L145.284 249.234
L145.433 234.431
L145.73 180.287
L145.805 181.531
L146.028 218.637
L146.102 216.31
L146.4 199.456
L146.623 217.416
L146.772 203.281
L146.846 204.087
L147.442 256.941
L147.516 258.865
L147.665 246.193
L148.111 176.232
L148.334 203.984
L148.409 203.316
L148.632 196.473
L148.706 198.696
L149.078 221.771
L149.227 211.806
L149.302 213.165
L149.748 252.506
L149.822 250.905
L150.194 223.775
L150.492 177.28
L150.566 181.451
L150.79 197.003
L150.864 195.517
L151.013 182.672
L151.087 187.614
L151.459 244.626
L151.534 242.725
L151.757 223.141
L151.831 222.75
L151.906 222.9
L152.054 222.923
L152.129 221.54
L152.278 216.091
L152.426 224.155
L152.501 223.959
L152.65 220.987
L152.798 216.08
L153.096 194.802
L153.17 195.021
L153.394 205.885
L153.468 203.961
L153.542 205.931
L153.914 251.872
L154.063 238.509
L154.286 220.365
L154.435 224.017
L154.51 223.971
L154.584 219.19
L154.807 188.317
L154.882 188.858
L154.956 190.701
L155.03 190.137
L155.105 190.102
L155.254 186.738
L155.328 186.83
L155.551 195.943
L156.072 236.989
L156.295 262.632
L156.444 251.273
L156.593 237.472
L156.667 239.431
L156.816 250.617
L156.89 248.797
L157.039 221.897
L157.262 190.586
L157.337 184.814
L157.411 185.275
L157.56 191.623
L157.783 169.182
L157.858 174.285
L158.155 214.386
L158.304 209.778
L158.378 212.762
L158.602 231.666
L158.676 231.678
L158.75 231.148
L158.974 246.078
L159.048 245.513
L159.346 234.166
L159.718 201.622
L159.792 202.878
L159.866 202.06
L160.09 197.406
L160.238 193.927
L160.387 208.165
L160.61 233.198
L160.685 235.341
L160.759 234.811
L160.982 231.332
L161.131 228.556
L161.28 223.038
L161.503 212.866
L161.652 217.646
L161.726 215.17
L162.024 178.006
L162.098 179.826
L162.396 204.203
L162.47 206.979
L162.545 205.251
L162.694 194.284
L163.066 240.007
L163.14 236.332
L163.214 230.077
L163.289 231.643
L163.586 259.522
L163.661 257.782
L164.107 211.022
L164.479 191.197
L164.851 198.466
L164.926 196.081
L165.074 184.941
L165.149 189.25
L165.446 232.023
L165.521 230.169
L165.67 222.059
L166.042 253.75
L166.19 237.979
L166.488 209.986
L166.562 210.55
L166.637 215.089
L166.711 214.628
L166.934 197.049
L167.083 195.424
L167.158 195.609
L167.381 204.882
L167.455 203.546
L167.53 203.569
L167.604 205.908
L167.902 227.922
L168.125 219.351
L168.348 238.981
L168.422 245.594
L168.497 242.437
L168.794 207.728
L168.869 209.329
L169.018 219.04
L169.092 216.955
L169.39 193.57
L169.464 196.991
L169.762 238.855
L169.985 219.271
L170.059 221.609
L170.357 230.676
L170.506 232.3
L170.729 219.939
L171.175 173.202
L171.473 193.8
L171.696 181.52
L172.142 234.869
L172.217 234.8
L172.291 233.97
L172.366 236.24
L172.738 270.189
L173.11 245.018
L173.705 153.584
L173.779 159.021
L174.077 180.218
L174.151 182.937
L174.3 207.382
L174.523 239.961
L174.672 248.002
L174.746 246.147
L174.895 236.194
L175.044 241.159
L175.267 230.053
L175.49 221.828
L175.565 221.909
L175.714 216.944
L175.788 218.441
L175.862 217.358
L176.086 199.456
L176.16 200.159
L176.383 205.332
L176.458 205.124
L176.606 197.36
L176.904 219.997
L177.053 224.651
L177.127 221.298
L177.276 203.799
L177.35 207.497
L177.574 236.654
L177.648 232.669
L177.946 193.477
L178.02 195.597
L178.318 217.785
L178.541 202.129
L178.69 216.172
L178.913 237.703
L178.987 239.961
L179.136 236.171
L179.508 246.274
L179.806 214.121
L180.178 171.901
L180.252 172.684
L180.55 191.173
L180.624 191.001
L180.847 187.176
L180.996 216.172
L181.219 265.904
L181.294 270.443
L181.368 269.233
L181.442 268.093
L181.591 275.477
L181.666 274.567
L181.74 271.779
L181.889 243.037
L182.186 184.077
L182.41 167.028
L182.558 174.827
L182.633 172.615
L182.782 167.926
L182.93 188.904
L183.154 212.128
L183.302 223.487
L183.6 253.001
L183.823 238.141
L183.972 225.918
L184.046 228.441
L184.27 247.875
L184.418 225.065
L184.716 172.903
L185.014 186.946
L185.088 184.642
L185.237 193.708
L185.46 205.781
L185.609 216.633
L185.832 229.328
L185.906 228.107
L185.981 229.293
L186.204 244.027
L186.353 242.08
L186.65 270.235
L186.874 237.864
L187.171 204.813
L187.32 204.041
L187.469 186.692
L187.543 181.082
L187.618 182.418
L187.99 203.788
L188.064 202.198
L188.287 186.151
L188.51 190.574
L188.585 190.298
L188.734 186.773
L188.808 188.697
L188.957 205.113
L189.254 243.497
L189.329 242.714
L189.478 239.684
L189.626 249.637
L189.775 258.266
L190.073 240.871
L190.296 256.814
L190.37 256.285
L190.519 242.034
L190.817 206.576
L191.04 198.085
L191.189 174.562
L191.412 132.433
L191.486 133.067
L191.635 137.801
L191.784 162.938
L192.23 276.491
L192.305 278.207
L192.379 278
L192.454 275.615
L192.528 275.926
L192.602 278.449
L192.677 277.977
L192.826 258.347
L193.123 188.835
L193.198 186.393
L193.272 186.565
L193.346 185.229
L193.644 159.517
L193.718 164.055
L194.165 219.052
L194.239 219.743
L194.462 249.061
L194.76 291.386
L195.206 262.091
L195.355 222.277
L195.653 135.67
L196.025 125.982
L196.099 126.201
L196.174 133.09
L196.62 220.549
L196.769 223.821
L196.918 244.016
L197.215 292.722
L197.29 295.36
L197.364 294.324
L197.513 297.192
L197.662 303.09
L198.034 269.21
L198.182 243.52
L198.778 73.105
L198.852 73.5888
L199.15 99.601
L199.373 167.212
L199.819 316.43
L200.042 344.274
L200.117 342.512
L200.266 318.55
L200.638 246.665
L200.861 218.257
L201.233 158.491
L201.382 151.625
L201.53 154.955
L201.679 169.285
L202.274 266.687
L202.498 271.053
L202.572 267.989
L202.795 216.736
L203.093 156.279
L203.316 147.34
L203.614 176.174
L203.837 194.203
L203.911 195.113
L204.06 207.29
L204.506 282.873
L204.581 282.539
L204.804 279.037
L204.878 280.442
L204.953 278.391
L205.102 248.647
L205.399 187.522
L205.622 180.702
L205.697 180.241
L205.846 177.315
L205.994 193.8
L206.292 227.404
L206.366 228.498
L206.515 217.554
L206.813 197.486
L207.036 207.025
L207.259 220.423
L207.482 213.303
L207.78 199.906
L208.152 235.929
L208.226 235.226
L208.375 220.331
L208.524 203.892
L208.598 205.861
L208.822 217.934
L209.268 264.821
L209.417 240.583
L209.64 195.574
L209.714 196.576
L209.863 209.744
L209.938 209.709
L210.235 187.015
L210.31 191.703
L210.607 214.317
L210.83 211.184
L210.979 215.757
L211.128 223.165
L211.426 202.912
L211.946 236.044
L212.17 241.539
L212.318 229.593
L212.616 186.623
L212.914 199.445
L213.211 205.47
L213.434 225.019
L213.583 243.912
L213.732 227.427
L214.03 200.217
L214.253 213.822
L214.55 255.674
L214.625 255.017
L214.774 240.433
L215.071 187.165
L215.146 185.575
L215.369 192.291
L215.443 192.061
L215.518 193.65
L215.741 223.165
L216.038 254.695
L216.634 207.889
L216.931 172.845
L217.229 197.141
L217.452 186.024
L217.601 200.528
L218.196 262.782
L218.27 265.489
L218.345 265.362
L218.419 261.157
L218.717 230.595
L218.791 230.733
L219.014 215.849
L219.312 183.351
L219.61 170.772
L219.758 176.117
L219.982 220.699
L220.13 243.359
L220.205 242.126
L220.428 229.961
L220.502 230.676
L220.726 246.93
L221.098 213.649
L221.321 210.827
L221.47 210.757
L221.767 209.225
L221.842 209.467
L222.065 216.782
L222.288 206.219
L222.362 207.52
L222.66 224.017
L222.809 214.951
L222.883 215.515
L223.181 232.991
L223.255 229.858
L223.627 193.95
L223.776 203.765
L223.999 218.441
L224.074 221.022
L224.148 220.872
L224.371 211.714
L224.446 211.345
L224.743 197.314
L224.818 198.178
L224.966 209.214
L225.264 238.763
L225.413 242.403
L225.562 241.262
L225.636 244.027
L225.71 243.924
L226.082 209.709
L226.157 210.112
L226.38 215.043
L226.678 204.272
L226.901 224.743
L226.975 220.054
L227.347 174.942
L227.422 177.28
L227.719 212.75
L227.942 234.903
L228.017 236.09
L228.166 233.694
L228.314 229.812
L228.389 229.823
L228.463 230.226
L228.538 232.035
L228.686 239.949
L228.761 239.88
L228.984 222.208
L229.207 204.56
L229.505 215.93
L229.654 207.739
L229.728 202.29
L229.802 204.249
L229.951 209.099
L230.174 195.436
L230.323 200.908
L230.621 215.435
L230.695 215.435
L231.216 230.261
L231.365 229.374
L231.439 230.192
L231.514 229.938
L231.662 227.162
L231.811 231.102
L231.886 229.374
L232.183 216.034
L232.555 203.834
L232.63 203.869
L232.778 201.484
L233.076 188.662
L233.15 189.78
L233.597 224.005
L233.671 223.51
L233.82 221.114
L233.894 223.579
L234.192 253.393
L234.266 250.617
L234.49 230.595
L234.564 230.411
L234.638 228.752
L235.01 199.226
L235.382 209.548
L235.457 208.534
L235.68 190.494
L235.903 181.842
L235.978 184.4
L236.201 211.794
L236.573 263.554
L236.647 260.478
L237.168 211.034
L237.317 202.924
L237.466 195.828
L237.838 231.758
L237.912 230.975
L238.21 198.408
L238.805 237.818
L238.954 231.159
L239.4 197.809
L239.772 179.193
L239.846 179.124
L239.995 189.826
L240.367 232.185
L240.516 229.155
L240.739 240.502
L240.814 239.615
L240.962 234.097
L241.186 209.732
L241.558 243.451
L241.632 240.974
L242.004 203.35
L242.153 210.101
L242.302 215.492
L242.525 212.474
L242.599 213.995
L242.748 209.156
L242.897 204.249
L242.971 204.456
L243.12 209.271
L243.418 222.519
L243.492 222.773
L243.641 218.879
L244.087 195.205
L244.236 178.64
L244.459 197.855
L244.98 253.727
L245.054 251.515
L245.278 230.341
L245.352 232.139
L245.426 230.341
L245.575 224.259
L245.724 229.086
L245.798 228.602
L245.873 229.005
L245.947 228.418
L246.245 215.02
L246.617 157.581
L246.766 160.058
L246.914 170.219
L247.435 255.628
L247.51 253.888
L247.584 251.492
L247.658 251.711
L247.733 251.066
L247.956 247.817
L248.402 197.959
L248.477 199.341
L248.551 199.41
L248.7 197.959
L248.774 200.009
L249.221 223.28
L249.295 224.639
L249.37 221.736
L249.518 209.444
L249.593 210.423
L249.89 220.78
L249.965 220.791
L250.039 219.351
L250.262 202.486
L250.337 208.511
L250.486 225.181
L250.56 222.761
L250.783 204.007
L250.858 205.712
L251.23 230.088
L251.453 212.094
L251.527 212.854
L251.602 216.172
L251.825 210.596
L252.122 220.653
L252.197 220.837
L252.346 222.347
L252.569 213.764
L252.643 214.329
L252.866 228.141
L252.941 226.69
L253.164 215.308
L253.238 216.437
L253.313 215.112
L253.536 208.004
L253.61 206.461
L253.834 193.512
L253.908 195.816
L254.28 221.678
L254.503 228.913
L254.801 248.843
L254.875 245.006
L255.247 200.701
L255.545 196.542
L255.619 197.106
L255.917 210.723
L255.991 209.617
L256.14 204.295
L256.214 204.341
L256.289 204.249
L256.363 202.786
L256.512 216.264
L256.735 230.848
L256.81 230.998
L256.958 235.871
L257.107 242.207
L257.182 240.329
L257.479 215.319
L257.628 220.745
L257.926 202.486
L258 203.212
L258.223 206.656
L258.298 207.278
L258.372 207.025
L258.595 204.652
L258.67 205.401
L258.818 214.317
L259.042 234.477
L259.116 234.397
L259.265 232.404
L259.488 244.384
L259.562 244.108
L259.711 235.318
L260.158 165.783
L260.306 160.288
L260.381 160.265
L260.455 162.88
L260.753 205.573
L261.05 256.941
L261.125 258.116
L261.274 250.755
L261.571 266.56
L261.72 252.437
L262.092 212.785
L262.241 201.242
L262.464 181.911
L262.538 182.269
L263.431 228.222
L263.803 213.983
L264.101 183.559
L264.324 215.089
L264.547 230.491
L264.77 221.632
L264.845 224.651
L265.068 245.306
L265.44 206.576
L265.514 209.513
L265.663 220.642
L265.738 218.269
L265.961 198.489
L266.11 207.566
L266.407 232.588
L266.556 227.588
L266.63 227.692
L266.705 228.141
L266.928 224.363
L267.077 208.35
L267.226 190.655
L267.3 190.713
L267.374 192.487
L267.523 186.796
L267.598 188.697
L267.821 218.522
L268.118 257.92
L268.193 255.801
L268.937 190.897
L269.011 192.625
L269.383 221.16
L269.532 205.159
L269.681 187.383
L269.755 189.48
L270.425 245.248
L270.574 245.732
L270.946 235.18
L271.392 193.443
L271.466 194.249
L271.69 199.549
L271.913 202.094
L271.987 201.495
L272.062 201.495
L272.136 201.979
L272.285 210.976
L272.359 210.124
L272.434 208.926
L273.103 236.171
L273.252 229.132
L273.698 207.417
L273.847 209.191
L273.922 208.373
L273.996 208.43
L274.442 215.7
L274.814 253.163
L274.889 249.925
L275.261 201.91
L275.41 203.316
L275.633 186.888
L275.856 168.445
L276.005 178.548
L276.749 240.133
L276.898 258.116
L276.972 257.287
L277.046 255.133
L277.121 257.759
L277.27 273.472
L277.716 233.314
L278.014 195.805
L278.683 161.383
L278.758 165.726
L279.204 237.426
L279.278 238.164
L279.576 224.593
L279.65 225.526
L279.948 236.101
L280.022 240.525
L280.097 238.981
L280.618 204.398
L280.692 203.454
L280.841 217.808
L280.915 215.158
L281.138 206.484
L281.213 207.405
L281.436 226.909
L281.585 222.911
L281.734 226.206
L281.808 225.042
L281.957 227.22
L282.031 225.952
L282.106 226.678
L282.18 226.01
L282.478 211.161
L282.701 216.091
L282.775 214.72
L283.073 189.826
L283.147 190.747
L283.296 182.798
L283.37 179.573
L283.445 181.059
L283.594 198.869
L283.891 240.709
L284.04 244.338
L284.114 242.806
L284.263 232.507
L284.338 232.864
L284.486 236.148
L284.561 234.88
L284.858 213.465
L285.082 203.177
L285.156 202.924
L285.305 195.24
L285.454 189.422
L285.677 206.242
L285.974 245.122
L286.198 238.636
L286.421 225.607
L286.57 215.965
L286.793 206.173
L286.867 204.491
L287.016 196.611
L287.09 197.625
L287.314 210.458
L287.537 226.505
L287.76 214.928
L287.983 205.481
L288.058 205.458
L288.132 205.608
L288.206 205.124
L288.281 205.712
L288.504 211.909
L288.653 222.231
L288.876 245.421
L288.95 243.497
L289.397 208.822
L289.546 212.197
L289.694 208.857
L290.141 236.989
L290.215 235.353
L290.662 207.267
L290.81 202.313
L290.885 202.693
L291.108 216.713
L291.182 214.064
L291.554 164.989
L291.629 166.717
L291.852 188.167
L292.001 197.314
L292.15 191.496
L292.224 194.549
L292.447 234.189
L292.745 289.451
L293.042 307.399
L293.191 295.694
L293.489 256.146
L293.861 162.535
L294.084 106.594
L294.158 107.435
L294.53 145.232
L295.2 254.706
L295.274 256.354
L295.498 270.546
L295.572 268.634
L296.093 214.501
L296.316 207.774
L296.614 185.863
L296.986 219.547
L297.209 245.974
L297.358 247.449
L297.506 240.836
L297.804 219.685
L297.953 204.053
L298.027 204.882
L298.25 192.533
L298.548 233.256
L298.622 230.653
L298.92 179.872
L298.994 181.209
L299.218 201.461
L299.292 200.389
L299.366 200.436
L299.59 212.635
L299.813 219.213
L300.036 210.781
L300.408 242.967
L300.557 232.703
L300.929 191.519
L301.003 192.59
L301.226 217.001
L301.301 216.84
L301.375 220.181
L301.598 248.174
L301.673 246.907
L301.896 236.701
L302.119 219.628
L302.342 230.295
L302.491 219.651
L302.789 191.07
L302.938 181.52
L303.012 182.142
L303.607 219.985
L303.905 204.721
L303.979 204.813
L304.277 221.39
L304.649 253.243
L304.723 252.287
L304.872 240.03
L305.393 157.454
L305.467 159.689
L305.914 211.287
L306.211 269.498
L306.286 272.85
L306.36 272.735
L306.509 261.227
L306.732 235.975
L306.806 235.399
L306.955 237.081
L307.03 235.572
L307.178 221.425
L307.55 170.484
L307.625 167.154
L307.699 167.696
L307.774 167.511
L307.848 170.069
L308.294 212.244
L308.443 219.524
L308.518 218.868
L308.666 223.741
L308.964 239.788
L309.038 240.064
L309.113 241.355
L309.262 232.83
L309.485 217.197
L309.708 211.034
L309.782 211.806
L310.006 217.681
L310.08 218.027
L310.378 200.159
L310.526 207.716
L310.973 252.045
L311.122 240.468
L311.494 184.884
L311.568 181.669
L311.642 182.879
L311.94 210.181
L312.014 206.057
L312.238 187.671
L312.312 190.16
L312.61 216.011
L312.684 215.7
L312.758 219.467
L313.13 256.918
L313.205 259.499
L313.354 245.582
L313.502 229.362
L313.577 230.71
L313.726 243.924
L313.8 243.578
L313.949 219.397
L314.172 178.513
L314.246 174.262
L314.321 175.253
L314.618 186.358
L314.99 236.217
L315.065 237.369
L315.139 233.06
L315.288 210.354
L315.362 210.4
L315.586 229.8
L315.66 228.89
L315.734 229.535
L316.33 180.771
L316.404 184.1
L316.776 233.141
L316.85 230.503
L317.074 218.165
L317.148 220.066
L317.297 239.822
L317.446 262.448
L317.52 259.499
L317.669 243.705
L317.743 243.993
L317.818 243.693
L317.966 225.849
L318.338 174.4
L318.413 174.251
L318.71 193.489
L318.859 184.803
L318.934 185.782
L319.38 258.589
L319.454 256.135
L319.678 235.652
L319.901 218.292
L320.124 205.815
L320.198 206.023
L320.422 215.043
L320.496 213.108
L320.794 190.551
L320.868 194.48
L321.389 236.009
L321.463 235.261
L321.984 198.454
L322.282 224.109
L322.356 222.082
L322.579 216.517
L322.802 227.773
L322.877 226.747
L323.026 234.327
L323.1 230.676
L323.398 195.459
L323.695 172.718
L323.918 201.68
L324.29 246.17
L324.365 246.239
L324.439 243.325
L324.662 210.354
L324.737 211.933
L324.96 228.072
L325.034 229.236
L325.258 243.67
L325.332 240.721
L325.555 222.9
L325.63 223.188
L325.704 222.692
L326.15 197.486
L326.225 199.456
L326.522 220.008
L326.597 218.107
L326.82 193.892
L327.118 206.875
L327.192 206.472
L327.415 181.831
L327.638 220.469
L327.862 257.402
L327.936 257.782
L328.234 237.68
L328.606 201.968
L328.829 219.547
L328.903 219.006
L329.126 206.679
L329.35 180.794
L329.498 188.063
L329.573 185.632
L329.647 186.773
L330.168 244.73
L330.466 266.1
L330.614 269.659
L330.838 240.087
L331.135 189.929
L331.284 199.468
L331.433 184.987
L331.582 167.557
L331.656 167.661
L332.326 223.764
L332.623 251.342
L332.698 252.506
L332.772 248.393
L332.995 218.199
L333.07 221.114
L333.218 226.194
L333.293 225.238
L333.59 195.229
L333.665 198.143
L333.888 225.457
L333.962 223.51
L334.111 212.935
L334.334 218.211
L334.483 210.158
L334.706 220.711
L335.004 204.859
L335.078 206.507
L335.376 228.395
L335.45 224.466
L335.748 237.599
L335.897 221.966
L336.046 209.582
L336.194 222.761
L336.269 220.1
L336.566 170.057
L336.641 174.366
L336.938 186.877
L337.385 224.57
L337.906 267.517
L337.98 267.332
L338.352 238.267
L338.426 241.435
L338.65 265.293
L338.724 265.524
L338.798 262.229
L339.096 203.742
L339.319 116.201
L339.542 53.3943
L339.691 93.7027
L340.212 299.173
L340.361 311.074
L340.51 307.79
L340.584 301.063
L341.254 158.088
L341.328 159.851
L341.477 185.701
L341.774 258.589
L341.849 260.823
L341.923 259.694
L342.072 247.506
L342.593 182.545
L342.816 173.859
L342.965 195.966
L343.411 276.387
L343.56 288.068
L343.634 284.762
L344.155 200.09
L344.527 136.119
L344.676 141.419
L344.825 138.942
L344.899 144.103
L345.494 272.171
L345.718 300.233
L345.792 299.692
L345.941 284.059
L346.61 175.322
L346.759 160.519
L346.834 162.385
L347.28 231.447
L347.354 225.353
L347.503 214.709
L347.801 230.894
L347.875 228.141
L348.098 234.304
L348.247 244.096
L348.47 262.367
L348.619 241.712
L348.917 193.501
L349.066 180.322
L349.289 156.74
L349.586 146.764
L349.661 150.231
L349.81 181.428
L350.107 241.954
L350.628 317.548
L350.702 316.868
L350.851 285.914
L351.521 107.089
L351.595 108.276
L351.744 142.018
L352.042 224.616
L352.116 228.878
L352.19 227.692
L352.265 226.333
L352.339 226.551
L352.414 227.68
L352.562 237.876
L352.786 252.103
L352.934 255.248
L353.083 243.037
L353.232 234.085
L353.306 235.111
L353.381 234.247
L353.678 194.238
L353.827 217.739
L353.902 217.059
L354.125 177.822
L354.199 184.699
L354.497 245.341
L354.646 237.922
L354.943 209.076
L355.092 196.254
L355.315 171.29
L355.762 223.994
L355.836 221.805
L355.985 210.631
L356.059 211.656
L356.431 256.895
L356.654 244.361
L356.878 226.125
L356.952 229.777
L357.026 229.547
L357.175 204.997
L357.324 183.939
L357.547 214.006
L357.622 212.566
L357.77 202.025
L357.845 202.405
L358.291 227.519
L358.663 204.698
L358.812 188.317
L359.035 229.846
L359.258 256.296
L359.333 250.398
L359.482 208.027
L359.705 154.932
L359.854 150.128
L359.928 153.837
L360.449 249.396
L360.523 247.898
L360.672 246.608
L360.821 240.767
L361.118 267.401
L361.193 266.56
L361.49 252.114
L361.565 255.386
L361.639 259.579
L361.714 254.937
L361.937 189.169
L362.16 143.515
L362.309 147.179
L362.383 146.199
L362.532 132.087
L362.606 138.055
L363.127 250.674
L363.202 249.534
L363.499 219.006
L363.574 221.195
L364.02 247.115
L364.243 240.421
L364.392 230.814
L364.615 218.868
L364.69 219.881
L364.913 227.461
L364.987 225.469
L365.657 181.589
L365.806 186.807
L366.029 200.862
L366.103 202.405
L366.326 224.201
L366.624 249.822
L366.773 245.202
L367.145 200.343
L367.368 197.544
L367.442 197.533
L367.517 200.205
L367.591 207.82
L367.814 254.199
L367.889 251.976
L368.038 232.841
L368.261 192.544
L368.41 201.104
L368.484 200.09
L368.707 194.894
L368.782 196.116
L369.228 216.713
L369.302 217.128
L369.377 220.25
L369.526 236.251
L369.6 234.247
L369.823 206.737
L370.195 230.249
L370.27 226.321
L370.344 223.568
L370.418 226.782
L370.493 226.356
L370.716 211.506
L370.865 207.221
L370.939 208.223
L371.088 225.031
L371.162 223.349
L371.237 219.824
L371.46 241.435
L371.609 259.545
L371.906 233.06
L372.204 191.369
L372.427 183.04
L372.799 189.71
L372.874 190.333
L372.948 189.111
L373.022 192.095
L373.469 228.349
L373.692 234.327
L373.99 246.17
L374.064 245.951
L374.51 208.684
L374.734 190.874
L374.808 195.493
L375.031 209.744
L375.18 205.067
L375.254 206.449
L375.552 221.897
L375.775 243.935
L375.998 231.563
L376.222 228.694
L376.37 221.39
L376.519 227.173
L376.594 225.181
L376.966 202.958
L377.114 200.067
L377.189 197.867
L377.263 198.846
L377.338 199.226
L377.486 193.593
L377.561 197.533
L377.784 222.277
L377.858 221.644
L377.933 223.764
L378.156 254.107
L378.23 252.172
L378.602 197.682
L378.751 180.287
L378.9 184.538
L378.974 183.858
L379.123 176.889
L379.198 181.658
L379.644 242.714
L379.793 252.517
L379.867 251.584
L379.942 252.022
L380.09 250.202
L380.165 250.789
L380.686 207.613
L380.834 211.979
L380.909 211.414
L380.983 211.449
L381.281 219.997
L381.355 218.234
L381.653 185.068
L381.95 226.759
L382.025 224.789
L382.248 208.972
L382.471 222.865
L382.62 220.446
L382.694 220.503
L382.918 215.803
L382.992 216.944
L383.141 209.974
L383.29 198.132
L383.364 199.698
L383.587 208.569
L383.662 208.165
L383.736 210.043
L383.885 219.743
L383.959 217.785
L384.108 211.022
L384.331 221.022
L384.48 222.819
L384.778 248.935
L384.852 245.847
L385.075 232.519
L385.373 199.399
L385.447 200.297
L385.67 180.045
L385.745 181.301
L385.968 217.462
L386.042 217.036
L386.191 215.285
L386.34 217.796
L386.489 217.036
L386.638 226.413
L386.712 223.925
L386.935 209.076
L387.01 210.343
L387.233 233.959
L387.307 232.139
L387.382 234.984
L387.605 248.866
L387.679 245.479
L387.754 246.354
L387.828 245.963
L389.018 152.27
L389.093 152.697
L389.39 171.497
L389.911 272.689
L390.134 287.653
L390.209 287.365
L390.283 285.361
L390.432 265.374
L390.878 202.889
L391.176 176.992
L391.399 182.326
L391.622 171.497
L391.697 175.691
L392.143 248.382
L392.218 245.387
L392.441 219.04
L392.59 204.94
L392.738 207.762
L392.887 206.023
L392.962 207.739
L393.11 219.478
L393.408 250.029
L393.482 249.672
L393.929 214.582
L394.003 214.755
L394.078 213.695
L394.375 173.582
L394.45 177.591
L394.747 218.787
L394.822 218.015
L394.97 213.488
L395.194 218.971
L395.342 213.407
L395.566 203.362
L395.863 223.118
L395.938 223.072
L396.012 222.865
L396.161 217.762
L396.235 217.877
L396.384 222.531
L396.607 217.566
L396.682 219.835
L396.979 244.603
L397.054 242.069
L397.202 244.718
L397.277 242.38
L397.649 206.599
L397.723 206.196
L397.798 207.209
L398.021 186.692
L398.095 187.833
L398.318 210.285
L398.393 208.914
L398.616 198.339
L398.765 203.995
L398.839 203.316
L399.062 193.558
L399.211 206.576
L399.583 243.589
L399.658 248.762
L399.881 234.005
L399.955 236.101
L400.178 248.209
L400.476 223.579
L400.625 229.27
L400.699 225.964
L401.071 159.159
L401.146 161.095
L402.187 257.114
L402.262 256.619
L402.336 259.165
L402.41 256.734
L402.708 214.317
L402.782 213.396
L402.931 221.241
L403.08 232.611
L403.154 229.351
L403.601 176.025
L403.75 182.315
L403.824 187.66
L403.898 187.337
L403.973 189.814
L404.345 236.389
L404.494 227.485
L404.717 219.778
L404.791 219.179
L404.94 228.51
L405.014 225.733
L405.238 213.326
L405.312 217.554
L405.461 211.115
L405.61 203.258
L405.758 214.801
L405.982 230.272
L406.056 231.943
L406.279 222.22
L406.354 223.141
L406.577 207.636
L406.651 207.509
L406.726 209.755
L406.8 209.652
L406.874 209.905
L407.246 223.798
L407.321 222.784
L407.544 213.2
L407.618 213.476
L407.693 215.285
L407.916 237.392
L408.065 225.71
L408.362 200.701
L408.437 201.703
L408.66 208.189
L408.883 195.125
L409.255 214.974
L409.478 202.809
L409.776 234.88
L409.85 231.021
L410.074 203.304
L410.222 191.231
L410.594 232.3
L410.669 230.987
L410.966 223.51
L411.115 229.512
L411.19 231.424
L411.264 228.775
L411.487 240.191
L411.562 237.749
L411.785 207.255
L411.859 206.944
L412.008 209.018
L412.231 200.297
L412.38 206.311
L412.454 205.516
L412.529 203.972
L412.752 213.119
L413.05 239.246
L413.124 237.461
L413.273 225.111
L413.347 225.561
L413.422 229.835
L413.496 229.593
L413.645 212.186
L413.942 149.863
L414.091 159.021
L414.24 174.251
L414.314 171.728
L414.463 170.023
L414.538 173.629
L415.282 311.673
L415.356 309.127
L415.579 275.984
L415.802 249.856
L415.877 249.2
L415.951 246.423
L416.398 191.726
L416.621 179.596
L416.844 167.039
L416.993 170.057
L417.29 148.573
L417.365 151.706
L417.514 172.338
L417.811 216.011
L417.96 211.921
L418.109 226.644
L418.481 275.834
L418.704 296.109
L418.778 290.752
L419.15 203.592
L419.374 132.802
L419.448 127.191
L419.522 128.159
L419.671 157.581
L419.894 192.014
L419.969 192.844
L420.118 214.628
L420.49 348.064
L420.638 339.436
L420.787 303.021
L421.234 151.775
L421.457 136.235
L421.531 135.659
L421.606 138.688
L421.978 194.941
L422.052 190.528
L422.201 180.034
L422.35 201.346
L422.573 237.219
L422.647 234.431
L422.945 187.936
L423.094 207.244
L423.317 235.41
L423.54 244.569
L423.986 272.194
L424.061 273.138
L424.21 260.858
L424.656 219.156
L424.805 206.357
L425.028 185.955
L425.326 210.124
L425.698 197.452
L425.921 187.441
L426.144 178.755
L426.293 191.461
L426.442 200.908
L426.665 174.884
L426.814 184.872
L427.037 208.695
L427.111 209.191
L427.186 211.08
L427.334 232.53
L427.558 260.754
L427.632 260.42
L427.93 242.518
L428.153 248.843
L428.227 248.601
L428.302 248.462
L428.525 256.365
L428.599 255.121
L428.897 231.689
L429.194 201.104
L429.418 178.536
L429.641 151.429
L430.162 202.832
L430.31 205.677
L430.608 219.225
L430.831 228.959
L430.906 228.233
L431.129 212.923
L431.203 214.271
L431.278 215.769
L431.352 213.177
L431.501 198.973
L431.575 201.541
L431.947 255.582
L432.096 261.376
L432.245 244.788
L432.542 198.581
L432.617 195.724
L432.691 196.876
L432.989 213.05
L433.063 214.018
L433.138 213.787
L433.286 212.75
L433.51 218.879
L433.584 217.278
L433.882 189.745
L433.956 192.971
L434.179 210.769
L434.402 199.019
L434.774 247.241
L434.923 241.942
L435.146 232.093
L435.221 233.636
L435.37 240.594
L435.518 230.353
L436.114 165.829
L436.188 161.97
L436.262 165.968
L436.709 230.388
L436.783 229.742
L436.932 225.538
L437.081 235.79
L437.23 242.818
L437.304 242.772
L437.453 239.293
L437.825 224.95
L438.271 211.99
L438.346 212.14
L438.42 213.637
L438.494 212.624
L438.792 189.526
L439.09 209.594
L439.164 209.271
L439.313 207.486
L439.759 219.547
L439.982 213.511
L440.206 231.459
L440.503 214.559
L440.578 217.589
L440.801 243.152
L441.173 202.382
L441.396 235.399
L441.47 233.993
L441.768 191.623
L441.842 192.049
L442.14 210.435
L442.214 207.071
L442.438 177.764
L442.81 232.496
L442.958 230.768
L443.107 234.224
L443.33 246.297
L443.554 220.204
L443.702 210.089
L443.777 210.654
L444 220.1
L444.074 222.116
L444.149 220.665
L444.298 212.566
L444.372 211.633
L444.521 205.297
L444.595 205.597
L444.967 181.957
L445.042 183.063
L445.414 218.303
L445.637 240.352
L445.711 238.705
L446.009 228.302
L446.083 223.66
L446.306 231.367
L446.604 226.597
L446.753 223.487
L446.902 215.4
L447.199 194.779
L447.422 181.174
L447.869 219.893
L448.018 232.795
L448.241 247.38
L448.836 205.101
L448.91 206.864
L449.431 232.404
L449.58 208.511
L449.729 191.012
L449.878 199.364
L449.878 199.364" style="fill:none;stroke:#808080;stroke-linecap:square;"/>
   </g>
  </g>
 </g>
 <defs>
  <clipPath id="p7ff5b81e1d">
   <rect height="345.6" width="446.4" x="72.0" y="43.2"/>
  </clipPath>
 </defs>
</svg>
