<?xml version="1.0" encoding="utf-8" standalone="no"?>
<!DOCTYPE svg PUBLIC "-//W3C//DTD SVG 1.1//EN"
  "http://www.w3.org/Graphics/SVG/1.1/DTD/svg11.dtd">
<!-- Created with matplotlib (http://matplotlib.org/) -->
<svg height="432pt" version="1.1" viewBox="0 0 576 432" width="576pt" xmlns="http://www.w3.org/2000/svg" xmlns:xlink="http://www.w3.org/1999/xlink">
 <defs>
  <style type="text/css">
*{stroke-linecap:butt;stroke-linejoin:round;}
  </style>
 </defs>
 <g id="figure_1">
  <g id="patch_1">
   <path d="
M0 432
L576 432
L576 0
L0 0
z
" style="fill:#ffffff;"/>
  </g>
  <g id="axes_1">
   <g id="line2d_1">
    <path clip-path="url(#p7ff5b81e1d)" d="
M72 213.06
L72.2976 236.227
L72.372 234.891
L72.9672 210.733
L73.0416 210.658
L73.1904 210.941
L73.86 221.81
L73.9344 222.138
L74.232 215.399
L74.4552 210.779
L74.604 213.924
L75.0504 225.991
L75.348 214.08
L75.4224 215.543
L75.4968 215.214
L75.6456 212.501
L75.72 212.427
L76.092 206.223
L76.1664 206.436
L76.3152 209.915
L76.6872 223.382
L76.7616 223.428
L76.836 223.042
L76.9848 219.926
L77.1336 225.15
L77.6544 206.321
L77.7288 206.851
L77.8032 208.337
L78.1752 223.342
L78.2496 223.013
L78.3984 225.675
L78.5472 219.333
L78.8448 208.567
L78.9192 208.493
L79.068 214.425
L79.2912 224.448
L79.6632 212.179
L79.7376 213.187
L79.9608 216.378
L80.1096 218.791
L80.184 218.636
L80.3328 216.677
L80.4816 217.876
L80.556 217.063
L80.8536 208.688
L80.928 209.57
L81.3 218.175
L81.5232 219.799
L81.7464 224.897
L82.1928 200.544
L82.3416 199.098
L82.7136 211.781
L83.2344 240.904
L83.3832 242.333
L83.4576 240.547
L83.7552 226.032
L83.8296 224.482
L84.0528 217.282
L84.2016 209.817
L84.4248 201.972
L84.4992 201.753
L84.7224 197.047
L84.8712 198.891
L84.9456 198.51
L85.02 198.545
L85.3176 205.33
L85.4664 208.683
L85.5408 208.608
L85.6152 207.94
L85.764 214.005
L86.2104 232.587
L86.2848 232.736
L86.508 235.945
L86.5824 235.259
L86.7312 234.309
L87.0288 225.254
L87.1032 226.141
L87.1776 225.237
L87.4752 214.892
L87.5496 215.024
L87.624 215.802
L87.7728 209.408
L88.1448 187.895
L88.2936 192.025
L88.9632 221.389
L89.2608 228.86
L89.3352 228.359
L89.484 225.525
L89.5584 225.588
L89.856 228.491
L89.9304 227.961
L90.0792 224.5
L90.4512 205.572
L90.8976 214.235
L91.0464 217.732
L91.1952 215.716
L91.6416 208.625
L91.716 208.821
L91.8648 211.349
L92.3856 224.43
L92.832 221.268
L93.0552 214.304
L93.2784 208.418
L93.5016 213.118
L93.7248 219.039
L93.7992 218.705
L94.1712 209.506
L94.2456 210.007
L94.692 223.647
L94.7664 223.705
L94.9152 221.856
L95.2872 211.966
L95.3616 210.704
L95.436 210.923
L95.5848 212.49
L95.8824 208.089
L95.9568 208.124
L96.0312 209.368
L96.2544 219.788
L96.3288 219.235
L96.4032 219.529
L96.6264 225.087
L96.7008 224.943
L97.0728 218.59
L97.1472 219.062
L97.2216 219.01
L97.5192 216.464
L97.668 215.883
L97.8168 216.827
L97.8912 215.825
L98.3376 201.604
L98.412 201.88
L98.5608 207.882
L98.9328 227.921
L99.0072 228.687
L99.0816 227.95
L99.6024 208.418
L99.6768 209.454
L100.049 219.085
L100.198 226.314
L100.272 226.089
L100.495 219.667
L100.718 212.162
L100.793 211.061
L100.867 211.24
L101.165 214.466
L101.388 219.022
L101.537 220.197
L101.686 213.21
L101.909 204.075
L101.983 203.833
L102.058 205.417
L102.504 225.479
L102.876 214.938
L103.099 208.619
L103.471 219.097
L103.694 230.841
L103.769 230.421
L103.843 230.093
L103.992 225.479
L104.364 210.935
L104.438 209.742
L104.513 210.071
L104.736 214.863
L104.885 211.085
L105.182 199.553
L105.257 200.619
L105.629 212.72
L105.926 220.001
L106.15 223.117
L106.373 227.259
L106.447 228.174
L106.596 231.469
L106.745 226.372
L107.191 212.15
L107.266 212.784
L107.34 212.26
L107.489 209.149
L107.638 210.86
L107.712 210.33
L108.01 201.915
L108.084 202.064
L108.233 207.243
L108.605 223.664
L108.754 222.725
L108.977 226.216
L109.126 225.513
L109.349 223.843
L109.498 220.565
L109.572 220.963
L109.646 220.6
L110.018 212.018
L110.242 202.433
L110.316 201.546
L110.39 202.03
L110.539 205.733
L110.762 214.241
L110.837 214.068
L110.911 214.489
L111.06 217.069
L111.209 215.986
L111.358 219.154
L111.581 223.227
L111.804 219.834
L112.027 223.952
L113.069 208.141
L113.143 208.763
L113.218 209.518
L113.59 219.494
L113.664 220.381
L113.813 218.215
L113.962 220.652
L114.185 215.917
L114.259 216.585
L114.334 215.462
L114.557 204.109
L114.631 204.587
L115.45 223.935
L115.598 221.32
L115.896 215.295
L116.268 225.179
L116.417 219.644
L116.566 215.232
L116.789 217.622
L116.863 216.649
L117.161 204.437
L117.533 218.365
L117.607 216.073
L117.905 206.851
L117.979 205.924
L118.054 206.079
L118.128 207.145
L118.5 222.881
L118.723 233.883
L118.798 234.067
L118.872 232.898
L119.616 203.758
L119.765 206.298
L120.286 219.788
L120.36 219.73
L120.583 214.425
L120.732 216.263
L121.03 222.708
L121.476 215.059
L121.774 220.053
L121.848 219.915
L121.997 216.845
L122.294 206.926
L122.518 204.57
L122.89 207.905
L122.964 207.87
L123.038 209.178
L123.559 227.984
L123.634 228.318
L123.782 229.563
L124.08 226.861
L124.229 225.3
L124.303 225.807
L124.378 225.202
L124.973 194.801
L125.047 196.564
L125.642 225.83
L125.717 225.893
L126.014 222.115
L126.833 208.694
L126.907 208.792
L127.056 210.261
L127.354 219.114
L127.577 215.353
L127.651 215.796
L127.8 215.122
L128.023 218.457
L128.395 226.452
L128.618 219.943
L128.693 220.974
L128.767 221.988
L129.139 207.917
L129.288 201.062
L129.511 210.601
L129.66 215.272
L129.734 214.771
L129.883 208.746
L129.958 208.999
L130.255 215.451
L130.553 222.95
L130.627 221.429
L130.776 218.405
L131.148 224.396
L131.297 220.963
L131.446 217.075
L131.594 218.371
L131.743 215.445
L131.892 212.415
L132.041 215.381
L132.115 215.163
L132.264 211.822
L132.413 209.604
L132.487 209.495
L132.636 210.439
L132.71 209.979
L132.859 205.774
L132.934 205.808
L133.082 209.8
L133.38 230.922
L133.529 228.497
L133.603 226.798
L133.678 227.293
L133.826 229.038
L133.975 223.791
L134.347 210.543
L134.496 207.035
L134.57 206.96
L134.719 208.994
L134.942 200.757
L135.017 201.362
L135.24 208.815
L135.314 207.352
L135.389 207.899
L136.133 235
L136.505 227.944
L137.1 207.536
L137.249 206.246
L137.323 206.402
L137.695 198.516
L137.918 200.93
L138.29 224.511
L138.588 235.605
L138.811 238.9
L138.96 233.105
L139.481 201.701
L139.555 200.521
L139.63 200.63
L140.002 205.399
L140.076 206.811
L140.15 206.338
L140.225 206.747
L140.671 216.269
L140.894 234.257
L141.043 240.276
L141.118 239.234
L141.341 222.789
L141.564 215.56
L141.713 216.384
L142.01 211.136
L142.234 205.457
L142.457 209.933
L142.531 211.28
L142.68 209.587
L143.126 223.273
L143.201 223.486
L143.275 222.27
L143.35 222.898
L143.424 224.678
L143.498 224.655
L143.647 219.12
L143.87 210.797
L143.945 210.727
L144.019 210.215
L144.168 207.899
L144.317 213.06
L144.466 221.666
L144.54 221.015
L144.912 204.489
L144.986 204.766
L145.21 210.318
L145.507 218.688
L145.656 222.155
L145.954 233.618
L146.102 225.991
L146.4 211.545
L146.549 210.503
L146.623 210.606
L147.218 225.761
L147.293 225.283
L147.739 204.132
L147.814 203.752
L148.111 208.665
L148.483 222.293
L148.558 222.236
L148.855 219.051
L149.004 219.938
L149.153 217.916
L149.227 218.308
L149.302 219.016
L149.525 214.425
L149.897 208.014
L150.12 202.767
L150.194 204.011
L150.492 219.943
L150.566 219.863
L150.641 220.623
L150.715 220.583
L150.79 220.364
L150.864 219.684
L150.938 219.707
L151.087 222.956
L151.459 216.66
L151.906 228.29
L151.98 227.374
L152.352 208.377
L152.501 209.04
L152.575 208.913
L152.65 208.343
L152.873 202.917
L153.394 219.776
L153.468 219.362
L153.617 221.303
L153.691 220.56
L153.766 220.635
L153.84 221.17
L154.063 213.394
L154.138 213.786
L154.51 224.569
L154.584 223.342
L154.956 208.579
L155.105 210.578
L155.179 210.445
L155.254 209.633
L155.328 209.812
L155.477 216.343
L155.7 227.109
L155.774 227.097
L155.849 225.404
L156.146 206.125
L156.221 206.413
L156.593 215.813
L156.89 210.353
L156.965 211.534
L157.188 215.595
L157.411 211.643
L157.56 207.893
L157.709 210.209
L157.858 214.673
L158.23 231.302
L158.378 230.853
L158.527 230.052
L158.602 230.311
L158.676 229.902
L158.825 222.132
L159.048 210.958
L159.197 207.571
L159.271 208.493
L159.494 211.038
L159.569 211.407
L159.866 206.425
L159.941 206.695
L160.09 212.185
L160.238 215.986
L160.313 215.658
L160.462 218.619
L160.61 215.572
L160.685 216.182
L160.759 216.839
L160.908 216.413
L161.057 217.628
L161.206 217.294
L161.578 224.822
L161.875 217.973
L162.173 207.035
L162.396 207.289
L162.768 209.31
L162.917 207.778
L163.066 213.561
L163.363 230.83
L163.438 230.34
L163.735 224.551
L164.107 217.017
L164.182 217.691
L164.256 218.624
L164.33 218.578
L164.702 210.56
L164.777 210.318
L164.926 212.093
L165 211.937
L165.074 210.981
L165.149 211.09
L165.298 212.87
L165.446 218.659
L165.521 218.555
L165.595 219.828
L165.744 224.58
L165.818 224.678
L165.893 224.96
L166.042 222.881
L166.19 219.84
L166.786 197.894
L166.86 197.41
L167.306 206.701
L167.902 231.423
L167.976 232.155
L168.125 230.323
L168.348 232.299
L168.571 225.237
L168.646 225.917
L169.39 209.126
L169.687 198.827
L169.762 200.745
L169.985 205.561
L170.059 205.808
L170.208 203.568
L170.357 208.297
L170.58 222.501
L170.803 232.794
L170.878 232.155
L171.25 217.138
L171.324 216.885
L171.398 217.507
L171.473 216.361
L171.547 212.484
L171.622 214.039
L171.77 215.911
L171.845 219.534
L171.919 218.953
L172.068 217.248
L172.366 205.417
L172.663 215.301
L172.812 217.311
L172.961 214.293
L173.11 215.122
L173.258 218.244
L173.556 228.958
L173.63 229.24
L173.779 223.503
L174.3 197.952
L174.374 196.114
L174.97 218.791
L175.044 217.628
L175.118 218.665
L175.193 217.639
L175.267 213.861
L175.342 214.777
L175.714 226.084
L175.788 226.274
L175.862 225.974
L175.937 226.009
L176.16 232.869
L176.606 223.52
L176.978 204.086
L177.053 204.386
L177.127 204.242
L177.574 195.141
L177.648 196.068
L177.722 198.315
L177.946 214.074
L178.02 216.078
L178.243 226.878
L178.318 227.345
L178.466 232.281
L178.541 230.985
L178.913 214.65
L178.987 215.001
L179.136 213.815
L179.285 217.76
L179.359 217.104
L179.731 205.67
L179.806 206.016
L179.88 207.819
L180.029 205.584
L180.475 233.001
L180.624 237.903
L180.698 236.578
L180.996 218.768
L181.219 216.677
L181.442 213.423
L181.517 213.233
L181.591 213.325
L181.666 213.976
L181.814 211.672
L182.112 200.02
L182.186 200.371
L182.782 217.144
L183.154 235.455
L183.228 235.38
L183.823 212.732
L183.972 216.989
L184.046 216.983
L184.121 216.292
L184.418 200.849
L184.493 201.287
L184.79 208.147
L185.088 214.437
L185.46 227.725
L185.534 227.789
L185.683 225.012
L185.981 220.594
L186.13 220.9
L186.353 217.317
L186.725 202.456
L186.799 202.439
L186.874 203.591
L186.948 203.562
L187.022 204.046
L187.469 225.761
L187.543 222.99
L187.618 221.764
L187.841 223.261
L187.915 223.037
L188.064 225.139
L188.138 224.678
L188.287 226.084
L188.436 220.37
L188.659 208.942
L188.957 205.376
L189.106 206.655
L189.18 207.813
L189.254 207.093
L189.403 209.276
L189.478 208.562
L189.552 208.585
L189.701 211.949
L189.775 211.413
L189.85 211.643
L189.924 211.972
L190.222 219.955
L190.594 230.697
L190.668 230.709
L190.817 225.692
L191.04 214.771
L191.114 215.399
L191.338 220.013
L191.561 222.121
L191.635 222.288
L191.784 220.07
L192.082 203.815
L192.156 205.572
L192.305 208.037
L192.379 208.032
L192.454 207.755
L192.677 204.19
L192.751 205.181
L192.9 212.046
L193.049 218.728
L193.272 214.281
L193.346 214.61
L193.421 214.569
L193.57 218.227
L193.867 229.839
L193.942 230.507
L194.239 224.321
L194.611 203.406
L195.578 221.262
L195.802 216.839
L195.876 217.657
L196.025 223.33
L196.099 222.743
L196.174 220.277
L196.322 223.307
L196.397 222.789
L196.471 222.553
L196.62 218.999
L196.918 196.16
L196.992 199.478
L197.736 227.587
L197.81 226.925
L198.257 212.749
L198.331 213.389
L198.48 215.681
L198.629 214.771
L198.778 220.859
L198.852 219.903
L199.075 211.81
L199.15 212.087
L199.298 211.401
L199.522 217.57
L199.67 215.341
L199.968 220.145
L200.042 220.082
L200.34 212.594
L200.489 215.865
L200.563 215.059
L200.786 210.946
L200.861 210.134
L201.01 213.913
L201.307 219.246
L201.382 219.776
L201.679 216.695
L201.902 221.988
L201.977 221.959
L202.051 220.928
L202.349 207.531
L202.572 216.148
L202.646 215.22
L202.795 214.224
L202.87 212.478
L202.944 213.527
L203.167 225.726
L203.242 225.669
L203.465 208.395
L203.614 201.707
L203.837 204.512
L204.06 214.172
L204.283 219.575
L204.358 222.017
L204.506 219.701
L204.878 233.681
L204.953 233.577
L205.25 227.437
L205.399 225.698
L205.92 197.237
L206.143 210.209
L206.218 209.737
L206.292 208.147
L206.366 208.539
L206.59 213.855
L206.664 213.556
L206.813 208.107
L206.887 208.112
L206.962 208.752
L207.036 208.176
L207.11 206.528
L207.408 224.004
L207.482 223.785
L207.706 218.106
L207.78 218.146
L208.226 227.979
L208.375 225.029
L208.45 225.732
L208.896 215.664
L209.119 210.964
L209.268 210.399
L209.417 214.178
L209.491 213.486
L209.938 200.037
L210.086 209.858
L210.384 228.071
L210.533 235.628
L211.054 216.551
L211.202 212.26
L211.277 213.072
L211.946 194.427
L212.021 194.663
L212.393 212.473
L212.839 238.537
L212.914 238.946
L213.211 228.474
L213.509 220.491
L213.583 219.684
L213.881 209.869
L214.104 206.505
L214.178 206.92
L214.402 201.298
L215.071 223.624
L215.146 222.57
L215.294 222.063
L215.592 219.989
L215.741 215.289
L215.89 219.575
L216.113 227.886
L216.262 231.769
L216.41 229.275
L216.485 229.488
L216.559 228.624
L217.006 187.06
L217.154 173.829
L217.229 173.909
L217.526 199.392
L217.898 230.778
L218.122 247.949
L218.196 248.859
L218.345 241.232
L218.642 225.508
L219.238 210.514
L219.535 206.92
L219.684 210.612
L219.833 205.088
L219.907 205.607
L220.13 212.87
L220.502 218.573
L220.726 231.365
L220.874 225.957
L221.023 217.547
L221.395 181.57
L221.47 181.691
L221.618 189.732
L221.916 221.458
L222.214 260.246
L222.288 261.15
L222.437 250.466
L222.734 225.934
L223.553 193.367
L223.925 210.117
L224.297 215.249
L224.371 215.687
L224.52 213.665
L224.594 215.093
L225.115 242.822
L225.19 242.16
L225.338 231.613
L225.859 189.312
L225.934 188.108
L226.008 190.452
L226.231 206.056
L226.306 205.399
L226.454 200.751
L226.529 200.463
L226.678 201.379
L226.826 207.888
L227.124 223.002
L227.198 224.373
L227.347 235.288
L227.645 252.125
L227.719 249.907
L228.24 193.09
L228.314 192.583
L228.463 200.486
L228.984 233.007
L229.207 236.688
L229.282 236.935
L229.43 241.019
L229.505 240.99
L229.654 231.642
L229.802 207.243
L230.1 143.785
L230.174 140.968
L230.249 144.257
L230.472 181.605
L231.067 284.3
L231.216 289.179
L231.439 257.378
L231.886 173.166
L231.96 171.957
L232.109 181.789
L232.704 243.191
L232.778 241.664
L232.927 227.979
L233.522 150.495
L233.671 163.202
L234.043 219.39
L234.415 274.439
L234.638 284.663
L234.713 284.127
L234.862 279.346
L235.159 256.456
L235.903 172.222
L236.201 128.584
L236.275 125.474
L236.35 125.646
L236.498 136.729
L236.945 213.821
L237.391 286.414
L237.466 285.59
L237.689 271.305
L238.061 229.764
L238.135 228.157
L238.284 234.199
L238.433 239.481
L238.656 231.175
L239.474 142.708
L239.698 170.684
L240.07 221.113
L240.59 286.212
L240.665 280.994
L240.814 287.508
L241.111 229.701
L241.26 202.946
L241.409 207.525
L241.632 52.2871
L241.706 59.9825
L242.227 333.991
L242.376 316.251
L242.971 175.459
L243.046 176.381
L243.418 144.257
L243.492 146.584
L243.715 194.409
L244.087 276.599
L244.162 280.095
L244.31 270.078
L244.534 234.608
L244.831 196.523
L245.129 189.168
L245.278 202.381
L245.65 251.284
L245.798 243.081
L246.542 183.794
L246.617 185.032
L246.766 198.251
L246.84 196.42
L247.138 128.676
L247.212 129.379
L247.361 181.49
L247.733 320.576
L247.882 327.413
L248.03 316.757
L248.254 265.349
L248.7 153.634
L248.923 130.105
L248.998 132.334
L249.072 128.63
L249.221 139.632
L249.593 219.684
L249.89 284.104
L249.965 286.235
L250.188 277.313
L250.411 259.883
L251.081 199.737
L251.155 198.119
L251.304 199.772
L251.378 199.363
L251.527 184.404
L251.75 157.442
L251.825 156.341
L251.899 156.843
L251.974 156.681
L252.048 155.115
L252.271 144.297
L252.346 147.339
L252.494 170.258
L253.164 356.933
L253.313 337.545
L253.982 183.028
L254.206 164.388
L254.28 165.172
L255.024 199.374
L255.322 191.95
L255.619 178.103
L255.842 193.856
L256.14 211.165
L256.438 219.344
L256.661 231.895
L256.958 245.161
L257.182 259.307
L257.405 262.544
L257.554 258.121
L258.223 213.792
L258.372 208.907
L258.446 209.138
L258.595 211.54
L258.67 210.077
L258.818 212.565
L258.967 202.301
L259.265 147.074
L259.414 131.101
L259.488 134.01
L259.711 162.718
L260.455 303.63
L260.53 301.447
L260.678 281.028
L261.125 207.957
L261.274 203.942
L261.72 179.497
L262.018 137.04
L262.39 151.255
L262.538 184.658
L262.985 324.787
L263.208 348.772
L263.357 331.227
L263.58 253.772
L263.952 127.565
L264.175 112.888
L264.25 113.245
L264.398 120.871
L265.068 240.772
L265.44 348.478
L265.589 316.746
L265.961 205.359
L266.184 188.367
L266.63 166.813
L266.705 169.157
L267.002 184.352
L267.226 198.234
L267.374 201.995
L267.598 216.009
L267.895 237.615
L268.118 244.314
L268.416 263.823
L268.565 253.829
L269.234 194.064
L269.383 192.042
L269.532 200.117
L269.755 215.525
L269.83 216.603
L269.904 215.9
L270.499 196.898
L270.722 163.38
L270.797 163.461
L270.946 189.617
L271.318 266.507
L271.466 272.238
L271.541 271.179
L271.69 260.436
L272.062 195.838
L272.359 156.935
L272.434 152.465
L272.508 152.661
L272.731 177.97
L272.954 229.77
L273.252 307.835
L273.326 308.538
L273.55 275.838
L274.145 149.804
L274.219 151.157
L274.442 185.274
L274.814 243.329
L274.889 246.797
L274.963 245.224
L275.261 214.402
L275.558 187.008
L275.633 185.51
L275.707 186.305
L275.856 195.844
L276.377 232.137
L276.451 232.811
L276.526 232.253
L276.674 228.917
L276.972 219.5
L277.121 220.197
L277.195 219.632
L277.344 220.473
L277.716 228.624
L278.311 199.133
L278.386 199.069
L278.683 205.434
L278.906 225.905
L279.13 249.02
L279.278 250.08
L279.353 249.354
L279.427 247.102
L279.576 218.187
L279.874 166.381
L279.948 168.593
L280.394 250.731
L280.469 246.272
L280.692 227.362
L281.138 176.507
L281.213 178.633
L282.031 233.364
L282.254 230.121
L282.552 213.014
L282.626 214.172
L282.775 229.828
L283.073 258.53
L283.147 257.965
L283.445 250.955
L283.594 233.595
L284.04 149.476
L284.114 148.087
L284.189 148.848
L284.338 155.46
L284.486 172.832
L284.858 221.383
L285.379 252.77
L285.454 252.309
L285.602 245.541
L285.9 229.591
L285.974 230.283
L286.272 244.256
L286.346 242.344
L286.57 218.071
L286.942 174.267
L287.016 172.648
L287.239 187.209
L287.76 225.404
L287.909 227.518
L287.983 227.092
L288.281 223.301
L288.355 222.599
L288.578 214.725
L288.876 205.031
L289.025 205.751
L289.174 204.328
L289.248 204.812
L289.322 203.487
L289.397 204.299
L289.843 229.62
L290.066 243.652
L290.29 245.189
L290.438 242.43
L290.736 228.128
L291.331 188.379
L291.48 184.554
L291.629 188.978
L292.447 223.757
L292.522 225.001
L292.596 224.24
L292.968 212.807
L293.042 214.195
L293.34 223.63
L293.414 222.691
L293.489 223.63
L293.786 233.554
L293.861 233.076
L294.679 203.948
L294.754 203.049
L294.828 203.493
L294.977 212.386
L295.126 217.432
L295.498 205.019
L295.721 209.725
L295.87 213.406
L296.093 203.067
L296.167 203.717
L296.316 212.409
L296.614 233.036
L296.762 233.998
L296.837 232.84
L296.986 238.848
L297.209 246.814
L297.283 245.714
L297.506 226.061
L297.953 188.788
L298.176 183.604
L298.474 196.31
L298.548 196.229
L298.622 197.75
L298.994 221.176
L299.59 237.339
L299.813 227.357
L300.259 205.469
L300.408 203.481
L300.557 208.878
L300.78 218.129
L300.854 218.475
L301.078 214.713
L301.226 221.251
L301.45 228.785
L301.598 221.804
L301.822 212.899
L302.045 215.33
L302.119 215.716
L302.194 216.977
L302.268 216.487
L302.342 214.742
L302.417 214.996
L302.714 219.869
L302.789 220.272
L302.938 213.561
L303.235 194.461
L303.682 218.296
L303.756 218.889
L303.905 223.457
L304.202 230.98
L304.277 230.323
L304.426 219.321
L304.649 193.707
L304.723 194.68
L305.393 241.958
L305.542 239.251
L305.69 226.037
L306.062 172.395
L306.137 174.664
L306.806 250.293
L306.881 246.33
L307.625 198.505
L307.997 219.701
L308.22 232.114
L308.443 220.468
L308.815 193.851
L308.89 193.77
L308.964 191.858
L309.038 191.904
L309.187 206.183
L309.485 233.572
L309.708 246.578
L309.782 246.249
L310.006 231.452
L310.303 208.596
L310.675 189.168
L310.898 198.942
L311.345 231.648
L311.568 224.649
L311.791 232.005
L311.866 230.847
L312.089 217.006
L312.386 198.873
L312.461 198.234
L312.982 218.578
L313.056 217.386
L313.13 214.638
L313.205 214.667
L313.502 223.849
L313.577 223.497
L313.726 216.199
L313.874 206.828
L313.949 207.819
L314.321 222.674
L314.395 224.788
L314.544 218.348
L314.693 212.513
L314.842 214.155
L315.139 219.609
L315.362 210.75
L315.437 211.545
L315.883 231.913
L316.032 225.796
L316.181 219.534
L316.255 219.759
L316.404 221.424
L316.553 217.956
L316.999 190.827
L317.074 189.905
L317.222 195.037
L317.669 220.404
L317.892 232.005
L317.966 231.412
L318.115 218.918
L318.338 197.22
L318.562 205.469
L318.636 205.088
L318.71 207.289
L319.082 231.918
L319.157 231.55
L319.231 232.621
L319.529 249.394
L319.826 238.6
L320.05 232.834
L320.273 237.828
L320.422 232.708
L320.57 214.235
L321.017 148.669
L321.091 144.055
L321.166 144.148
L321.314 156.941
L321.984 262.118
L322.058 260.978
L322.207 251.284
L322.728 209.328
L322.802 208.205
L322.951 215.79
L323.249 231.78
L323.621 214.414
L323.918 190.337
L323.993 189.3
L324.29 209.529
L324.588 230.144
L324.662 231.383
L324.811 228.33
L324.886 228.745
L325.034 229.655
L325.109 229.851
L325.406 215.986
L325.481 215.75
L325.555 216.66
L325.778 226.458
L326.076 221.539
L326.15 218.44
L326.597 171.588
L326.671 167.994
L326.746 169.877
L326.894 200.797
L327.192 263.552
L327.415 278.626
L327.49 277.088
L327.713 234.81
L328.085 148.191
L328.159 149.285
L328.382 185.072
L328.754 248.404
L328.829 247.931
L329.052 233.785
L329.424 192.543
L329.498 194.657
L329.945 256.347
L330.019 255.575
L330.168 239.487
L330.466 203.003
L330.614 199.109
L330.986 175.061
L331.061 176.807
L331.21 183.079
L331.358 201.748
L331.73 251.785
L331.954 261.79
L332.028 262.372
L332.177 249.999
L332.623 180.712
L332.772 186.149
L333.442 229.309
L333.516 227.483
L333.814 208.55
L333.888 209.305
L333.962 212.404
L334.334 262.544
L334.409 264.866
L334.483 261.997
L335.004 198.96
L335.302 155.161
L335.376 154.873
L335.525 163.91
L336.194 221.942
L336.492 231.59
L336.715 247.079
L336.938 260.724
L337.162 259.273
L337.31 243.415
L337.906 167.833
L338.054 158.905
L338.203 175.931
L338.65 240.605
L339.022 274.992
L339.096 273.494
L339.468 236.192
L340.063 156.929
L340.138 152.246
L340.212 152.298
L340.51 187.515
L340.882 215.848
L341.402 252.326
L341.477 251.491
L341.923 226.804
L341.998 227.051
L342.37 215.232
L342.518 221.689
L342.816 240.985
L342.965 230.369
L343.486 166.727
L343.56 169.192
L344.155 215.318
L344.453 244.844
L344.602 247.735
L344.676 247.073
L344.825 235.979
L345.048 224.379
L345.122 223.342
L345.346 209.431
L345.569 196.852
L345.643 197.474
L345.866 207.68
L346.09 222.656
L346.387 215.445
L346.61 205.762
L346.759 208.343
L346.982 201.511
L347.131 215.56
L347.503 265.102
L347.652 253.922
L348.247 177.348
L348.545 185.579
L348.768 199.058
L349.066 218.198
L349.14 218.336
L349.289 228.094
L349.438 235.714
L349.735 227.477
L349.81 228.146
L350.107 239.003
L350.182 237.92
L350.926 204.956
L351.223 174.105
L351.446 161.646
L352.19 260.102
L352.265 261.605
L352.339 260.367
L352.711 232.109
L353.083 177.118
L353.158 177.821
L353.53 201.782
L353.678 207.191
L353.976 220.617
L354.05 221.251
L354.348 239.441
L354.422 238.116
L354.72 224.678
L354.869 227.397
L354.943 227.184
L355.092 221.061
L355.39 206.171
L355.538 203.072
L355.613 203.251
L355.762 207.214
L356.059 225.387
L356.134 224.465
L356.431 214.604
L356.58 212.749
L356.803 207.657
L356.878 207.726
L357.026 208.965
L357.101 209.04
L357.175 210.532
L357.398 223.25
L357.473 222.962
L357.547 223.659
L357.696 228.75
L357.77 226.907
L358.142 190.383
L358.217 192.56
L358.663 219.788
L358.812 225.865
L359.035 238.715
L359.184 236.717
L359.407 228.773
L359.854 207.352
L360.151 193.609
L360.3 189.531
L360.672 202.98
L361.342 245.875
L361.49 250.708
L361.639 243.473
L362.16 205.918
L362.309 207.473
L362.83 192.67
L363.127 197.128
L363.276 208.297
L363.648 239.309
L363.946 249.492
L364.02 249.965
L364.169 244.901
L364.838 177.723
L364.913 178.892
L365.434 202.554
L365.806 231.648
L366.103 240.645
L366.178 241.238
L366.252 240.628
L366.475 234.464
L366.698 226.354
L366.773 225.847
L366.996 217.72
L367.219 208.821
L367.294 208.55
L367.666 201.333
L367.74 200.152
L367.814 200.394
L367.889 200.048
L367.963 200.918
L368.558 225.162
L368.633 226.256
L368.707 224.701
L368.93 217.035
L369.154 217.432
L369.302 216.482
L369.377 216.827
L369.6 228.941
L370.046 205.757
L370.121 206.189
L370.493 224.24
L370.567 223.613
L370.865 219.183
L370.939 219.995
L371.162 226.245
L371.237 225.732
L371.758 195.319
L371.832 197.502
L371.981 207.588
L372.278 228.854
L372.353 227.921
L372.799 207.208
L372.874 207.997
L372.948 208.493
L373.097 205.013
L373.841 228.635
L373.915 228.29
L374.064 230.905
L374.138 230.381
L374.287 227.668
L374.882 206.753
L375.031 208.458
L375.18 211.747
L375.403 219.033
L375.552 217.109
L375.775 220.191
L375.924 213.331
L376.147 197.911
L376.222 199.184
L376.817 226.285
L376.891 225.801
L377.338 207.306
L377.486 201.811
L377.784 211.234
L378.007 221.251
L378.305 238.9
L378.379 241.06
L378.454 240.155
L379.272 205.278
L379.421 207.162
L379.495 206.932
L379.57 206.92
L379.644 207.243
L379.718 206.505
L380.016 195.55
L380.165 203.239
L380.462 220.738
L380.686 225.749
L380.983 238.059
L381.058 236.331
L381.653 202.479
L381.727 202.174
L381.802 202.197
L381.876 202.813
L382.099 214.506
L382.322 225.83
L382.471 226.36
L382.62 223.906
L382.694 221.654
L382.769 222.121
L383.066 237.264
L383.29 217.749
L384.034 165.396
L384.182 177.268
L384.778 259.624
L384.926 254.077
L385.075 248.242
L385.224 248.957
L385.298 249.268
L385.447 244.734
L385.745 227.587
L386.191 192.33
L386.414 187.578
L386.489 188.165
L386.563 189.398
L386.712 185.032
L386.861 178.333
L386.935 178.909
L387.01 179.122
L387.233 177.797
L387.382 183.316
L387.53 204.99
L387.977 282.71
L388.051 285.677
L388.126 283.718
L388.349 261.369
L388.87 196.863
L389.093 189.116
L389.167 189.306
L389.837 212.83
L389.911 212.519
L390.655 183.748
L390.804 191.708
L390.953 216.361
L391.25 271.824
L391.548 289.386
L391.622 289.069
L391.771 277.417
L391.994 235.835
L392.366 154.786
L392.59 137.069
L392.664 136.844
L392.813 149.257
L393.11 195.389
L393.482 257.453
L393.706 267.342
L393.854 256.053
L394.301 212.818
L394.598 201.114
L394.822 194.611
L394.97 199.847
L395.417 229.194
L395.566 231.164
L396.012 214.304
L396.31 183.794
L396.458 182.745
L396.533 185.228
L396.682 203.09
L397.128 272.774
L397.202 271.536
L397.351 255.88
L397.798 197.525
L398.095 187.912
L398.17 187.889
L398.244 188.966
L398.616 205.993
L398.914 208.884
L399.062 203.228
L399.286 185.268
L399.36 185.285
L399.434 189.531
L400.03 277.757
L400.104 274.185
L401.294 151.353
L401.369 152.356
L401.518 163.259
L401.89 234.171
L402.187 286.322
L402.262 287.186
L402.336 284.19
L402.634 206.223
L402.931 152.344
L403.08 168.524
L403.378 242.811
L403.601 277.296
L403.675 276.063
L403.824 263.483
L404.345 182.567
L404.494 177.901
L404.791 192.123
L405.089 206.718
L405.907 222.034
L406.13 233.013
L406.428 253.703
L406.502 252.925
L406.651 245.466
L407.618 179.848
L407.693 179.007
L408.139 191.345
L408.288 203.015
L408.66 238.963
L408.883 245.195
L408.958 244.216
L409.255 236.832
L409.404 235.081
L409.553 229.822
L410.074 203.764
L410.148 203.556
L410.371 198.747
L411.041 226.141
L411.115 225.467
L411.264 220.024
L411.487 206.534
L411.71 192.382
L411.859 189.536
L411.934 190.781
L412.454 216.614
L412.826 252.672
L412.901 251.387
L413.124 240.023
L413.273 243.531
L413.422 238.381
L414.314 185.712
L414.463 191.979
L414.835 214.097
L414.91 213.907
L415.058 211.787
L415.133 211.891
L415.282 213.014
L415.579 222.795
L415.802 213.026
L415.877 213.613
L416.1 218.67
L416.174 219.592
L416.398 225.266
L416.472 226.642
L416.621 231.481
L416.918 222.835
L416.993 222.962
L417.142 223.624
L417.514 210.485
L417.588 210.566
L417.811 211.499
L417.886 211.707
L418.034 210.169
L418.258 211.24
L418.481 200.676
L418.555 200.953
L418.704 204.587
L419.225 225.289
L419.448 228.347
L419.597 225.778
L419.671 226.913
L419.746 226.481
L420.341 205.705
L420.49 211.603
L420.862 229.033
L421.159 214.137
L421.382 200.515
L421.68 213.181
L421.978 229.753
L422.052 229.597
L422.275 217.576
L422.498 206.327
L422.573 206.505
L423.094 214.702
L423.168 215.773
L423.242 214.788
L423.317 215.214
L423.689 231.44
L423.763 231.394
L424.061 220.969
L424.582 192.923
L424.73 198.562
L425.102 225.824
L425.326 232.8
L425.474 229.689
L425.623 224.137
L425.846 214.241
L426.293 202.082
L426.516 209.408
L426.888 230.265
L427.111 221.959
L427.334 204.507
L427.409 204.835
L427.483 205.589
L427.558 204.841
L427.632 205.826
L428.004 223.382
L428.153 228.169
L428.227 227.685
L428.525 216.159
L428.674 218.722
L428.897 226.279
L428.971 225.029
L429.343 209.909
L429.492 212.334
L429.566 211.816
L429.715 210.848
L429.864 212.093
L430.087 217.76
L430.162 217.461
L430.31 214.195
L430.534 207.773
L430.608 207.749
L430.682 208.32
L430.757 208.164
L430.831 208.026
L430.98 210.002
L431.129 216.724
L431.352 229.851
L431.575 233.387
L431.65 232.35
L432.319 195.625
L432.468 186.501
L432.617 194.404
L433.138 231.976
L433.286 235.467
L433.435 229.908
L433.584 230.484
L433.733 228.174
L434.105 218.866
L434.254 212.738
L434.328 211.597
L434.477 199.847
L434.551 201.166
L434.7 209.886
L434.774 209.172
L434.923 205.705
L434.998 205.987
L435.072 205.561
L435.146 207.773
L435.37 223.209
L435.518 216.136
L435.593 216.562
L435.816 225.611
L435.89 223.037
L436.039 211.557
L436.114 212.012
L436.337 223.469
L436.411 222.875
L436.486 221.038
L436.634 211.108
L436.783 217.991
L436.858 217.553
L437.155 200.106
L437.23 200.613
L437.453 224.453
L437.527 222.691
L437.676 218.135
L437.899 225.173
L437.974 225.479
L438.048 225.248
L438.197 210.313
L438.42 195.463
L438.494 198.701
L438.792 231.256
L439.015 218.215
L439.09 220.024
L439.313 234.343
L439.462 212.058
L439.61 190.527
L439.685 193.591
L439.908 226.562
L439.982 224.937
L440.206 201.258
L440.28 205.849
L440.503 239.412
L440.652 222.916
L440.875 200.031
L441.098 229.995
L441.173 228.18
L441.47 189.773
L441.619 210.906
L441.842 256.456
L441.917 252.868
L442.214 194.645
L442.289 197.986
L442.438 214.759
L442.512 213.625
L442.735 184.744
L442.81 184.951
L442.958 216.793
L443.182 255.701
L443.256 253.415
L443.702 192.123
L444 208.066
L444.149 201.154
L444.223 203.585
L444.595 257.401
L444.67 251.462
L445.042 200.4
L445.116 200.503
L445.19 199.57
L445.414 185.717
L445.488 187.97
L445.934 241.44
L446.009 237.2
L446.083 237.966
L446.232 241.607
L446.306 239.493
L446.53 215.197
L446.827 185.821
L446.902 187.088
L447.199 208.072
L447.497 242.361
L447.571 242.027
L447.794 223.325
L448.092 204.829
L448.315 200.273
L448.39 201.333
L448.538 211.925
L448.762 226.827
L449.059 219.851
L449.134 220.324
L449.357 223.659
L449.431 223.008
L449.654 214.523
L449.878 197.358
L449.878 197.358" style="fill:none;stroke:#808080;stroke-linecap:square;"/>
   </g>
  </g>
 </g>
 <defs>
  <clipPath id="p7ff5b81e1d">
   <rect height="345.6" width="446.4" x="72.0" y="43.2"/>
  </clipPath>
 </defs>
</svg>
