<?xml version="1.0" encoding="utf-8" standalone="no"?>
<!DOCTYPE svg PUBLIC "-//W3C//DTD SVG 1.1//EN"
  "http://www.w3.org/Graphics/SVG/1.1/DTD/svg11.dtd">
<!-- Created with matplotlib (http://matplotlib.org/) -->
<svg height="432pt" version="1.1" viewBox="0 0 576 432" width="576pt" xmlns="http://www.w3.org/2000/svg" xmlns:xlink="http://www.w3.org/1999/xlink">
 <defs>
  <style type="text/css">
*{stroke-linecap:butt;stroke-linejoin:round;}
  </style>
 </defs>
 <g id="figure_1">
  <g id="patch_1">
   <path d="
M0 432
L576 432
L576 0
L0 0
z
" style="fill:#ffffff;"/>
  </g>
  <g id="axes_1">
   <g id="line2d_1">
    <path clip-path="url(#p7ff5b81e1d)" d="
M72 208.663
L72.0744 223.639
L72.1488 232.893
L72.2232 229.495
L72.372 210.833
L72.4464 214.039
L72.5952 228.612
L73.0416 188.1
L73.2648 162.698
L73.5624 193.572
L73.86 231.261
L74.0832 194.973
L74.1576 197.469
L74.232 204.669
L74.3064 200.618
L74.5296 172.97
L74.7528 183.684
L74.8272 180.017
L74.976 164.964
L75.0504 169.668
L75.2736 209.892
L75.348 204.036
L75.4968 182.397
L75.6456 208.433
L75.8688 243.876
L76.0176 222.199
L76.3152 176.541
L76.464 173.431
L76.5384 175.121
L76.836 195.857
L76.9104 194.167
L77.2824 224.273
L77.3568 222.852
L77.5056 214.884
L77.58 215.594
L77.6544 214.673
L78.1008 173.527
L78.2496 161.316
L78.3984 165.367
L78.6216 179.613
L79.1424 246.602
L79.2168 243.492
L79.5888 175.121
L79.7376 172.625
L79.8864 178.826
L80.1096 197.297
L80.3328 165.847
L80.4072 173.719
L80.6304 227.018
L80.8536 196.068
L80.928 204.305
L81.0768 227.729
L81.1512 225.521
L81.672 164.676
L82.1184 217.745
L82.1928 219.799
L82.416 204.458
L82.6392 228.65
L82.7136 228.074
L82.8624 193.668
L83.0112 151.082
L83.0856 151.965
L83.3832 177.405
L83.532 188.177
L83.6808 176.311
L83.7552 177.137
L83.9784 258.909
L84.0528 258.141
L84.648 155.268
L84.7968 171.223
L84.8712 176.791
L84.9456 175.313
L85.02 167.556
L85.0944 168.573
L85.5408 232.74
L85.764 236.849
L86.2104 188.887
L86.3592 161.124
L86.4336 161.354
L86.6568 157.053
L87.0288 179.575
L87.4752 239.594
L87.5496 236.311
L87.6984 230.359
L88.1448 185.277
L88.4424 162.218
L88.74 182.57
L88.8144 184.356
L89.112 232.413
L89.1864 230.052
L89.3352 226.001
L89.6328 199.005
L89.7072 203.076
L89.7816 207.722
L90.0048 194.493
L90.228 177.463
L90.3768 171.089
L90.5256 156.573
L90.6744 165.482
L90.8976 150.103
L90.972 149.258
L91.4928 230.417
L91.5672 227.863
L91.6416 231.204
L91.8648 258.525
L92.0136 259.773
L92.1624 246.564
L92.5344 196.567
L92.7576 221.373
L92.832 210.852
L93.1296 170.205
L93.204 170.321
L93.4272 153.482
L93.5016 158.935
L93.7248 181.399
L93.948 170.34
L94.0968 173.892
L94.1712 170.282
L94.3944 143.575
L94.6176 161.316
L95.064 242.359
L95.2872 254.762
L95.7336 223.428
L95.9568 194.589
L96.0312 195.089
L96.1056 194.033
L96.2544 203.613
L96.3288 203.383
L96.924 169.303
L96.9984 170.301
L97.0728 174.18
L97.3704 205.783
L97.668 220.049
L98.04 148.567
L98.1144 151.025
L98.2632 174.429
L98.5608 229.86
L98.6352 230.359
L98.7096 229.687
L98.9328 255.473
L99.0072 255.3
L99.528 163.447
L99.6768 141.54
L99.7512 143.709
L99.9 136.452
L99.9744 132.631
L100.123 164.023
L100.346 213.156
L100.421 213.693
L100.495 216.074
L100.644 228.074
L100.867 213.405
L101.016 230.071
L101.09 226.941
L101.388 176.81
L101.462 184.087
L101.611 204.535
L101.834 180.401
L101.909 182.321
L102.058 189.329
L102.281 174.775
L102.578 206.954
L102.727 200.599
L102.802 201.482
L102.95 211.658
L103.174 200.945
L103.322 208.625
L103.694 163.85
L104.141 215.671
L104.215 210.794
L104.438 182.225
L104.513 185.873
L104.81 233.028
L104.885 233.181
L104.959 233.066
L105.034 231.377
L105.182 233.085
L105.257 232.913
L105.406 227.825
L105.554 198.007
L105.852 111.415
L105.926 108.285
L106.075 123.933
L106.522 200.253
L106.745 209.297
L107.34 264.228
L107.414 265.61
L107.489 263.901
L107.638 236.983
L107.861 211.754
L108.084 187.217
L108.307 161.508
L108.382 164.522
L108.456 162.737
L108.754 109.533
L108.902 101.969
L109.051 84.9574
L109.2 113.469
L109.572 207.473
L110.018 328.509
L110.242 354.41
L110.39 329.009
L110.986 132.439
L111.358 48.8614
L111.432 44.215
L111.581 74.9926
L111.804 122.532
L111.953 141.54
L112.325 229.341
L112.474 236.253
L112.771 228.151
L113.143 274.538
L113.366 299.575
L113.515 283.236
L113.887 215.498
L114.185 145.476
L114.334 131.249
L114.482 116.004
L114.706 132.458
L114.929 108.458
L115.078 122.609
L115.45 173.316
L115.673 227.095
L115.822 250.154
L116.045 285.943
L116.417 233.45
L116.64 177.578
L116.714 178.673
L116.938 203.671
L117.012 203.249
L117.161 221.623
L117.31 241.706
L117.458 223.505
L117.607 214.845
L117.682 215.402
L117.756 209.201
L117.979 164.119
L118.054 166.769
L118.128 170.916
L118.202 166.922
L118.351 141.693
L118.426 144.343
L118.574 155.921
L118.798 124.663
L119.021 144.919
L119.244 175.447
L119.542 260.369
L119.839 301.86
L119.988 266.071
L120.137 233.623
L120.211 233.604
L120.286 231.223
L120.434 197.373
L120.583 170.474
L120.732 173.297
L120.955 149.508
L121.178 174.564
L121.402 143.652
L121.699 165.041
L121.774 172.125
L121.997 212.023
L122.071 214.634
L122.294 239.997
L122.443 254.417
L122.592 230.781
L122.815 205.553
L123.113 180.401
L123.262 185.201
L123.41 163.869
L123.559 153.175
L123.708 182.301
L123.931 226.327
L124.154 204.055
L124.378 225.367
L124.898 189.079
L125.196 151.869
L125.27 149.373
L125.345 150.909
L125.494 166.711
L125.791 222.756
L125.866 224.657
L126.089 251.249
L126.163 245.277
L126.386 210.717
L126.535 215.94
L126.61 211.37
L126.982 170.052
L127.13 159.741
L127.577 195.012
L127.726 198.737
L127.949 166.73
L128.023 171.185
L128.246 199.178
L128.47 183.204
L128.618 196.01
L128.693 192.957
L128.842 185.796
L129.065 231.261
L129.139 229.495
L129.288 215.556
L129.511 250.692
L129.734 199.85
L129.809 206.493
L129.883 218.129
L129.958 215.901
L130.106 191.383
L130.181 192.746
L130.33 196.567
L130.404 194.954
L130.702 167.517
L130.85 182.589
L130.999 171.895
L131.074 164.695
L131.148 165.041
L131.371 176.849
L131.594 207.569
L131.743 196.241
L131.892 190.461
L131.966 190.269
L132.19 175.428
L132.264 179.21
L133.008 242.801
L133.306 229.149
L133.603 182.436
L133.752 193.591
L133.975 145.533
L134.198 187.601
L134.347 175.274
L134.422 184.913
L134.645 234.564
L134.868 192.228
L134.942 192.362
L135.091 200.445
L135.314 179.441
L135.463 188.925
L135.686 180.151
L135.835 189.29
L135.91 188.042
L135.984 185.277
L136.058 185.45
L136.207 201.617
L136.43 228.957
L136.505 231.165
L136.728 216.957
L137.026 175.236
L137.1 179.402
L137.323 197.661
L137.472 186.487
L137.621 171.837
L137.695 172.452
L137.844 187.159
L137.993 202.269
L138.067 200.388
L138.142 203.709
L138.365 226.058
L138.439 224.714
L138.588 213.655
L138.886 175.773
L138.96 175.869
L139.183 184.068
L139.406 215.498
L139.555 209.681
L139.778 188.618
L139.853 181.533
L139.927 184.625
L140.225 205.092
L140.448 208.298
L140.522 206.762
L140.671 189.194
L140.746 190.922
L140.969 224.753
L141.266 170.244
L141.341 175.543
L141.415 177.617
L141.564 175.121
L141.638 175.946
L141.862 203.901
L141.936 203.191
L142.085 198.161
L142.234 201.943
L142.308 201.655
L142.382 199.178
L142.606 207.357
L142.68 205.245
L142.829 199.965
L142.978 206.897
L143.052 201.386
L143.275 161.796
L143.35 163.332
L143.945 231.415
L144.019 229.994
L144.242 200.676
L144.391 212.945
L144.54 196.394
L144.763 167.46
L144.986 185.316
L145.135 194.839
L145.21 194.148
L145.507 174.506
L145.73 189.041
L146.177 220.529
L146.251 223.447
L146.326 222.333
L146.474 215.402
L146.623 218.052
L146.846 194.34
L146.921 202.154
L146.995 203.825
L147.218 171.319
L147.367 152.1
L147.665 204.689
L147.814 200.81
L148.111 186.353
L148.334 199.37
L148.409 198.986
L148.483 199.159
L148.632 203.729
L148.781 196.298
L148.855 197.066
L149.004 202.519
L149.153 200.695
L149.227 202.308
L149.302 199.639
L149.45 190.461
L149.748 205.706
L149.822 204.785
L150.046 230.186
L150.269 192.305
L150.418 220.241
L150.492 220.029
L150.79 163.351
L151.31 209.815
L151.385 207.05
L151.534 197.815
L151.608 199.332
L151.757 210.717
L151.831 206.109
L152.054 178.519
L152.278 171.146
L152.352 173.546
L152.575 196.913
L152.798 187.697
L153.022 199.217
L153.245 240.017
L153.319 236.964
L153.691 195.108
L153.766 195.012
L153.914 197.911
L154.138 171.53
L154.212 173.508
L154.435 199.812
L154.51 197.93
L154.584 197.565
L154.733 198.122
L154.807 195.3
L154.882 201.06
L155.03 222.295
L155.328 207.453
L155.626 165.156
L155.774 175.428
L156.072 217.418
L156.146 215.268
L156.295 202.077
L156.37 203.191
L156.518 208.721
L156.816 186.698
L156.89 189.079
L156.965 188.695
L157.262 164.599
L157.337 168.305
L157.486 183.914
L157.634 177.655
L157.783 185.105
L158.081 214.077
L158.304 266.589
L158.602 234.717
L158.676 231.799
L158.899 196.279
L158.974 196.893
L159.122 204.861
L159.271 184.586
L159.42 168.612
L159.494 170.551
L159.569 169.937
L159.718 144.573
L159.792 129.597
L159.866 130.173
L160.015 141.156
L160.09 141.309
L160.164 149.105
L160.387 206.321
L160.462 205.725
L160.61 192.861
L160.685 198.679
L160.908 228.785
L160.982 234.794
L161.206 280.548
L161.28 277.437
L161.726 212.676
L162.024 152.964
L162.098 154.289
L162.173 153.559
L162.396 136.721
L162.842 194.993
L163.066 232.567
L163.214 229.207
L163.289 230.436
L163.363 230.052
L163.512 221.258
L164.107 156.305
L164.182 164.369
L164.554 204.746
L164.702 211.409
L164.851 209.527
L165.074 223.716
L165.223 201.348
L165.446 165.54
L165.595 169.169
L165.818 155.191
L166.265 179.479
L166.488 226.058
L166.711 260.426
L166.786 260.081
L166.934 251.441
L167.083 259.063
L167.158 254.148
L167.381 223.869
L167.455 230.263
L167.53 229.572
L167.976 164.637
L168.199 137.105
L168.274 139.428
L168.571 150.391
L168.794 179.421
L168.869 176.215
L168.943 169.917
L169.018 170.282
L169.166 186.506
L169.241 185.354
L169.39 176.772
L169.464 178.077
L169.538 182.685
L170.059 253.265
L170.282 265.725
L170.357 269.162
L170.431 265.13
L171.026 166.634
L171.101 160.068
L171.324 177.905
L171.398 174.564
L171.622 144.861
L171.696 146.57
L172.068 186.641
L172.142 187.716
L172.366 197.892
L172.589 220.317
L172.738 217.226
L172.886 230.897
L172.961 230.129
L173.184 214.922
L173.333 224.887
L173.407 225.041
L173.63 200.637
L173.705 202.423
L173.779 203.114
L173.854 202.001
L174.077 180.9
L174.151 185.201
L174.226 185.258
L174.449 148.836
L174.523 149.757
L174.672 163.044
L174.746 160.567
L174.895 147.684
L174.97 152.887
L175.118 172.721
L175.267 169.149
L175.342 169.937
L176.086 265.649
L176.458 226.116
L176.681 184.049
L176.755 181.399
L176.83 184.26
L177.127 206.474
L177.202 206.321
L177.425 174.237
L177.499 174.353
L177.648 189.905
L177.797 200.849
L177.871 198.717
L178.243 174.295
L178.392 181.745
L178.466 181.629
L178.913 156.842
L178.987 157.629
L179.136 178.346
L179.434 216.957
L179.731 238.058
L179.806 237.962
L180.326 208.797
L180.401 208.74
L180.475 210.871
L180.55 208.855
L180.698 184.394
L180.922 162.871
L181.368 202.097
L181.442 201.117
L181.517 201.367
L181.666 211.332
L181.74 210.852
L181.889 200.349
L182.112 226.807
L182.484 160.375
L182.782 194.647
L182.93 193.591
L183.005 192.593
L183.228 167.095
L183.302 169.476
L183.6 217.802
L183.823 189.175
L183.898 191.229
L184.195 214.653
L184.27 213.674
L184.493 209.316
L184.79 217.994
L184.939 203.652
L185.162 170.935
L185.311 182.762
L185.46 175.677
L185.534 176.561
L185.609 176.311
L185.683 176.004
L185.758 174.833
L185.906 168.247
L185.981 173.93
L186.204 209.719
L186.427 180.631
L186.502 187.601
L186.948 269.681
L187.022 267.319
L187.171 248.215
L187.543 179.095
L187.618 179.709
L187.766 153.693
L187.915 135.761
L188.213 170.666
L188.362 201.252
L188.436 198.66
L188.585 183.261
L188.659 186.333
L188.957 232.471
L189.18 192.881
L189.254 196.49
L189.329 203.268
L189.403 200.004
L189.552 188.196
L189.701 206.762
L189.775 205.553
L189.998 154.116
L190.073 156.861
L190.519 220.413
L190.594 220.049
L190.817 200.445
L191.189 241.034
L191.263 236.215
L191.784 190.922
L191.933 199.658
L192.007 198.103
L192.23 170.417
L192.454 154.058
L192.528 156.785
L192.677 168.727
L192.826 162.237
L193.272 210.353
L193.346 204.228
L193.495 194.071
L193.644 199.14
L193.867 189.348
L194.388 245.738
L194.462 242.167
L194.909 199.946
L195.058 197.22
L195.43 156.305
L195.504 158.052
L195.802 203.229
L195.876 200.273
L196.025 176.369
L196.099 179.594
L196.322 208.893
L196.471 194.321
L196.62 181.053
L196.843 190.673
L196.918 188.177
L196.992 189.29
L197.141 218.474
L197.29 235.62
L197.587 211.85
L197.662 208.49
L197.885 182.589
L197.959 184.087
L198.034 183.857
L198.182 182.071
L198.331 189.271
L198.48 211.697
L198.554 209.412
L198.703 198.929
L198.926 220.356
L199.075 196.97
L199.224 171.895
L199.447 186.641
L199.596 176.983
L199.67 177.809
L199.745 176.234
L199.894 170.705
L200.117 178.097
L200.414 213.732
L200.489 211.466
L200.563 214.538
L200.712 239.517
L200.786 239.46
L200.935 224.599
L201.084 234.986
L201.158 228.324
L201.456 168.381
L201.679 186.007
L201.828 177.405
L201.902 179.94
L201.977 188.33
L202.051 186.372
L202.2 170.321
L202.349 209.354
L202.498 234.007
L202.721 183.453
L202.795 184.394
L202.87 189.156
L202.944 187.121
L203.018 184.202
L203.242 207.357
L203.316 205.706
L203.539 173.316
L203.614 178.826
L203.837 207.53
L204.06 165.425
L204.134 165.905
L204.506 215.153
L204.581 221.373
L204.804 187.236
L204.878 189.156
L205.176 243.703
L205.399 213.847
L205.474 215.095
L205.548 211.697
L205.771 180.324
L205.994 206.378
L206.218 161.93
L206.292 167.383
L206.441 196.874
L206.515 195.089
L206.664 185.527
L206.738 186.103
L206.962 170.033
L207.185 201.77
L207.259 197.873
L207.408 180.343
L207.557 197.354
L207.706 216.401
L208.078 193.649
L208.301 205.38
L208.45 222.487
L208.598 244.605
L208.97 196.01
L209.119 185.009
L209.268 178.173
L209.417 171.511
L209.566 165.981
L209.714 181.649
L209.938 207.204
L210.086 194.743
L210.161 195.434
L210.31 204.036
L210.384 203.594
L210.533 199.313
L210.607 199.735
L210.83 208.778
L210.979 214.98
L211.054 215.172
L211.128 215.805
L211.574 187.812
L211.872 154.461
L212.095 185.527
L212.17 184.932
L212.244 185.642
L212.542 194.513
L212.765 228.132
L212.839 239.402
L212.914 238.25
L213.286 194.935
L213.434 206.513
L213.658 181.553
L213.732 189.578
L213.881 228.017
L214.03 198.468
L214.104 183.396
L214.178 185.93
L214.327 208.375
L214.55 142.711
L214.625 149.508
L214.848 171.626
L214.997 190.346
L215.22 237.137
L215.294 236.733
L215.369 233.143
L215.443 235.389
L215.592 245.604
L215.666 234.871
L215.89 161.085
L215.964 164.733
L216.113 179.172
L216.262 142.25
L216.336 143.556
L216.634 183.3
L216.931 234.967
L217.006 231.108
L217.154 215.537
L217.229 216.573
L217.378 224.733
L217.452 224.061
L217.824 206.205
L218.047 163.793
L218.27 191.364
L218.494 164.311
L219.014 208.221
L219.163 200.657
L219.238 192.497
L219.312 193.629
L219.535 225.309
L219.758 186.756
L219.833 188.868
L219.982 204.919
L220.13 192.957
L220.205 197.93
L220.354 220.701
L220.428 211.62
L220.651 162.717
L220.949 199.831
L221.023 199.332
L221.395 210.487
L221.618 227.556
L221.693 222.257
L221.916 188.273
L221.99 189.098
L222.065 186.602
L222.214 167.825
L222.288 171.991
L222.437 205.898
L222.511 204.535
L222.734 159.338
L223.032 212.503
L223.255 201.789
L223.33 200.503
L223.404 194.858
L223.553 176.676
L223.776 228.746
L223.85 221.028
L224.074 189.751
L224.297 193.61
L224.371 191.383
L224.446 192.036
L224.669 214.884
L224.743 212.618
L224.966 193.245
L225.115 199.812
L225.413 174.161
L225.636 189.309
L225.71 188.58
L225.785 189.521
L226.38 229.073
L226.454 230.685
L226.603 216.842
L226.752 205.341
L226.826 206.013
L226.901 205.975
L227.05 188.273
L227.198 173.085
L227.347 183.108
L227.422 180.381
L227.645 163.754
L227.868 186.871
L228.017 168.497
L228.389 219.703
L228.463 225.386
L228.538 223.159
L228.984 189.348
L229.207 211.793
L229.728 164.292
L229.802 162.756
L229.877 166.346
L230.398 224.772
L230.546 239.345
L230.621 238.077
L230.918 220.74
L230.993 219.05
L231.067 219.108
L231.142 212.868
L231.365 174.66
L231.514 163.889
L231.662 156.554
L231.811 167.709
L232.034 182.993
L232.183 173.373
L232.258 175.869
L232.481 207.818
L232.704 195.857
L232.927 212.676
L233.002 206.954
L233.076 207.549
L233.225 216.42
L233.299 213.021
L233.522 178.269
L233.597 180.823
L233.894 198.353
L234.266 225.444
L234.787 174.698
L234.862 175.37
L235.234 197.028
L235.531 190.346
L235.754 210.065
L235.903 206.877
L235.978 210.871
L236.052 209.853
L236.275 179.057
L236.35 182.013
L236.498 213.924
L236.573 211.735
L236.796 173.469
L236.945 186.257
L237.019 183.914
L237.094 177.175
L237.168 179.191
L237.391 214.596
L237.689 175.697
L237.838 197.777
L237.986 215.287
L238.433 201.482
L238.507 202.212
L238.73 212.042
L238.805 211.869
L239.102 168.074
L239.177 171.338
L239.474 203.287
L239.772 181.994
L239.846 183.453
L239.995 199.869
L240.144 219.569
L240.293 213.905
L240.367 215.018
L240.442 217.495
L240.516 216.881
L240.665 210.161
L240.888 195.473
L241.037 207.05
L241.111 204.65
L241.334 168.881
L241.409 171.165
L241.855 211.332
L241.93 208.932
L242.376 188.484
L242.45 190.212
L242.525 192.036
L242.599 191.364
L242.822 187.274
L242.971 192.477
L243.12 179.537
L243.194 180.074
L243.418 196.087
L243.566 179.805
L243.641 181.322
L243.938 215.21
L244.013 210.487
L244.162 203.498
L244.385 220.049
L244.459 217.015
L244.534 220.471
L244.682 247.773
L244.757 244.625
L244.98 208.682
L245.129 213.713
L245.501 145.284
L245.575 147.991
L246.17 181.341
L246.245 183.569
L246.84 240.324
L246.989 228.074
L247.063 228.362
L247.138 231.511
L247.212 229.13
L247.51 169.437
L247.584 172.164
L247.658 178.596
L247.733 178.212
L247.956 164.925
L248.105 165.962
L248.179 169.265
L248.328 193.361
L248.551 229.149
L248.626 231.857
L248.774 224.292
L249.072 198.852
L249.221 207.761
L249.295 201.021
L249.518 160.221
L249.667 182.532
L249.816 201.962
L250.039 198.794
L250.262 187.351
L250.337 190.308
L250.634 216.708
L250.783 200.023
L250.858 190.154
L250.932 190.807
L251.23 202.788
L251.304 205.572
L251.378 202.653
L251.602 172.433
L251.676 180.497
L251.899 238.058
L251.974 233.661
L252.42 151.485
L252.494 158.321
L252.718 211.159
L252.941 175.005
L253.015 177.809
L253.09 181.38
L253.164 180.42
L253.238 178.212
L253.387 205.783
L253.536 230.57
L253.685 213.521
L253.834 199.946
L254.131 221.988
L254.206 220.721
L255.024 165.828
L255.098 166.346
L255.47 221.124
L255.545 216.957
L255.917 185.585
L256.066 196.202
L256.14 201.482
L256.363 175.063
L256.438 178.442
L256.661 201.828
L257.033 189.578
L257.256 170.801
L257.628 223.812
L257.702 221.085
L257.777 218.724
L258 237.041
L258.074 232.471
L258.372 188.906
L258.744 181.802
L258.967 162.391
L259.042 168.919
L259.265 202.327
L259.414 195.549
L259.562 204.17
L259.637 202.5
L259.86 181.476
L260.009 207.492
L260.083 218.82
L260.158 217.706
L260.381 194.647
L260.827 218.129
L260.976 202.865
L261.125 181.706
L261.199 182.781
L261.348 193.303
L261.422 188.369
L261.646 161.892
L261.794 174.948
L262.018 214.845
L262.464 198.026
L262.613 209.892
L262.762 222.295
L262.836 221.949
L263.208 182.589
L263.431 194.263
L263.506 191.671
L263.654 178.519
L263.803 186.333
L263.952 177.578
L264.101 195.722
L264.25 209.316
L264.398 198.487
L264.473 198.717
L264.696 223.332
L264.77 223.121
L265.366 180.9
L265.44 179.671
L265.514 181.226
L265.589 181.053
L265.663 180.266
L266.035 193.879
L266.258 219.741
L266.482 200.676
L266.779 218.628
L266.928 185.45
L267.002 187.197
L267.151 208.893
L267.226 201.77
L267.374 167.268
L267.449 169.725
L267.598 188.637
L267.821 158.647
L267.895 169.418
L268.118 226.941
L268.342 206.033
L268.416 213.444
L268.49 213.06
L268.639 188.445
L268.714 190.02
L268.862 213.098
L268.937 208.586
L269.086 184.298
L269.309 229.86
L269.383 228.881
L269.606 201.77
L269.681 203.172
L269.755 199.524
L269.978 150.794
L270.053 159.645
L270.276 207.261
L270.499 176.023
L270.574 177.405
L270.871 195.837
L271.243 185.066
L271.318 190.461
L271.615 235.946
L271.838 180.093
L271.913 180.17
L272.062 199.005
L272.21 191.671
L272.285 195.953
L272.434 215.997
L272.582 199.274
L272.657 199.716
L272.88 250.615
L273.029 209.277
L273.178 165.559
L273.252 165.674
L273.326 170.781
L273.401 170.34
L273.475 171.185
L273.698 190.692
L273.773 190.577
L273.922 184.759
L273.996 186.065
L274.219 201.098
L274.294 200.369
L274.666 180.247
L274.74 181.572
L275.038 214.941
L275.261 189.501
L275.335 191.287
L275.484 205.553
L275.558 204.228
L275.856 196.663
L275.93 197.508
L276.005 196.317
L276.154 188.177
L276.228 189.156
L276.451 199.332
L276.526 198.948
L276.6 201.713
L276.823 218.033
L276.898 217.207
L277.418 179.825
L277.493 180.093
L277.79 200.311
L277.939 206.973
L278.014 211.908
L278.162 193.303
L278.237 180.785
L278.311 181.802
L278.609 227.325
L279.13 170.897
L279.204 175.581
L279.427 201.213
L279.65 162.122
L279.725 167.748
L279.948 218.628
L280.171 184.298
L280.32 189.098
L280.543 205.725
L280.692 219.473
L280.766 218.34
L280.915 201.329
L280.99 203.575
L281.064 207.799
L281.138 206.743
L281.213 205.457
L281.436 215.46
L281.585 189.175
L281.659 175.524
L281.734 175.677
L281.957 214.673
L282.106 195.453
L282.254 174.468
L282.403 183.703
L282.478 182.378
L282.626 177.156
L282.85 193.61
L282.924 190.116
L282.998 187.927
L283.147 214.596
L283.296 235.505
L283.594 190.884
L283.668 189.981
L283.742 190.346
L283.817 190.98
L284.263 180.689
L284.338 187.524
L284.561 236.829
L284.784 194.167
L284.858 200.714
L285.007 217.764
L285.082 217.457
L285.23 210.026
L285.305 213.06
L285.379 211.351
L285.602 174.852
L285.751 185.949
L285.826 185.585
L286.049 156.919
L286.123 158.647
L286.272 154.097
L286.346 158.282
L286.495 192.669
L286.718 248.196
L286.867 241.725
L287.165 208.49
L287.239 209.604
L287.314 210.621
L287.462 193.668
L287.611 177.117
L287.76 190.193
L287.834 190.116
L287.983 177.002
L288.058 177.329
L288.132 180.439
L288.355 170.801
L288.504 194.551
L288.727 221.527
L288.95 219.012
L289.248 189.674
L289.471 206.551
L289.62 191.517
L289.694 185.988
L289.769 187.927
L289.918 197.949
L290.141 176.81
L290.29 194.973
L290.364 192.708
L290.513 177.386
L290.587 181.975
L290.81 210.045
L290.959 199.85
L291.034 203.345
L291.331 234.007
L291.554 207.549
L291.778 181.841
L291.926 191.249
L292.001 190.826
L292.224 171.588
L292.298 172.529
L292.596 184.663
L292.819 203.018
L292.968 199.965
L293.042 202.404
L293.191 211.965
L293.489 205.553
L293.563 204.765
L293.712 187.601
L293.861 174.18
L293.935 174.026
L294.084 171.3
L294.158 174.737
L294.233 174.295
L294.307 171.991
L294.382 177.06
L294.754 241.975
L294.977 238.058
L295.423 196.759
L295.721 181.917
L295.795 177.06
L295.87 179.959
L296.018 195.876
L296.167 175.85
L296.39 155.498
L296.539 168.113
L296.986 214.212
L297.432 142.653
L297.581 182.762
L297.804 238.269
L297.953 271.581
L298.176 320.733
L298.548 252.689
L299.292 48.2086
L299.366 44.3494
L299.441 48.7078
L299.59 84.6886
L299.962 195.223
L300.557 341.815
L300.706 321.137
L301.152 235.274
L301.45 104.33
L301.524 99.7414
L301.598 104.676
L301.822 152.676
L301.896 151.601
L302.045 141.175
L302.119 144.785
L302.268 171.857
L302.566 245.911
L302.64 242.186
L302.789 221.412
L302.863 221.949
L302.938 217.668
L303.012 220.797
L303.235 251.133
L303.756 195.818
L304.128 96.0358
L304.351 113.853
L304.5 132.919
L304.872 205.649
L304.946 208.433
L305.095 235.543
L305.318 276.132
L305.616 234.794
L305.839 246.967
L305.914 244.394
L306.062 224.177
L306.36 184.529
L306.434 182.877
L306.583 167.978
L306.732 145.553
L306.881 167.421
L307.03 184.932
L307.104 182.225
L307.178 182.801
L307.402 208.183
L307.625 182.839
L307.699 184.567
L307.848 190.173
L307.997 194.609
L308.22 185.412
L308.443 194.532
L308.592 205.457
L308.741 189.693
L308.815 190.308
L308.964 203.901
L309.187 223.889
L309.336 231.185
L309.41 237.597
L309.485 236.388
L309.782 187.178
L309.857 188.369
L310.006 196.317
L310.452 146.359
L310.526 147.338
L310.601 145.591
L310.675 150.909
L310.898 183.665
L310.973 184.759
L311.047 189.751
L311.494 264.689
L311.568 267.914
L311.717 260.33
L311.866 245.258
L312.014 230.858
L312.089 228.957
L312.238 212.906
L312.535 148.471
L312.61 150.199
L312.684 144.151
L312.982 99.4342
L313.279 124.164
L313.726 235.121
L313.8 237.521
L314.172 270.986
L314.246 270.813
L314.321 270.948
L314.395 272.369
L314.544 260.868
L315.139 155.767
L315.362 88.9318
L315.511 83.1334
L315.66 117.386
L316.032 223.658
L316.255 259.85
L316.404 277.514
L316.478 273.501
L316.776 215.594
L316.85 216.458
L317.074 223.908
L317.148 223.716
L317.222 222.525
L317.371 199.965
L317.669 144.362
L317.892 172.797
L317.966 168.401
L318.19 140.964
L318.264 143.805
L318.636 207.972
L318.71 204.881
L318.859 182.973
L318.934 185.642
L319.157 230.474
L319.678 182.839
L319.975 245.085
L320.05 237.77
L320.273 211.601
L320.422 224.292
L320.496 221.181
L320.868 155.825
L320.942 162.641
L321.24 205.149
L321.686 163.869
L321.984 201.194
L322.058 200.484
L322.207 173.527
L322.282 179.786
L322.579 238.077
L322.728 221.565
L322.877 229.533
L323.1 194.589
L323.249 224.849
L323.398 249.943
L323.77 190.02
L323.844 188.081
L324.365 145.975
L324.439 147.185
L324.662 174.084
L324.737 171.972
L324.886 155.325
L325.555 252.708
L325.63 245.873
L325.853 209.93
L325.927 214.941
L326.076 239.421
L326.522 196.375
L326.671 180.938
L326.894 207.338
L326.969 196.625
L327.192 128.503
L327.266 135.434
L327.564 189.674
L327.713 198.775
L327.787 198.372
L328.01 184.529
L328.085 189.981
L328.234 215.441
L328.308 213.578
L328.457 199.466
L328.531 202.365
L328.68 225.809
L328.903 257.7
L328.978 259.428
L329.052 257.316
L329.35 195.78
L329.424 197.508
L329.573 213.233
L329.647 209.124
L329.945 168.458
L330.094 170.647
L330.242 165.751
L330.614 144.861
L330.689 147.818
L330.986 176.023
L331.061 174.986
L331.135 175.639
L331.507 210.333
L331.582 206.263
L331.656 208.049
L331.879 239.229
L331.954 235.927
L332.028 238.903
L332.177 251.978
L332.251 251.498
L332.4 228.9
L332.549 206.129
L332.623 204.727
L332.772 194.858
L332.921 179.498
L333.07 196.241
L333.144 190.961
L333.218 180.036
L333.293 180.727
L333.442 196.26
L333.59 184.913
L333.888 172.874
L334.111 184.644
L334.334 193.668
L334.409 190.999
L334.558 178.5
L334.632 179.018
L335.004 208.605
L335.078 207.549
L335.153 203.153
L335.376 220.663
L335.45 214.519
L335.525 217.053
L335.674 227.402
L336.194 166.5
L336.269 164.714
L336.418 172.221
L336.938 235.562
L337.236 206.397
L337.534 183.377
L337.682 178.807
L337.906 217.149
L337.98 215.537
L338.352 151.447
L338.426 150.698
L338.575 162.084
L339.022 209.757
L339.394 235.025
L339.542 249.29
L339.617 247.044
L339.914 208.855
L340.063 179.287
L340.138 180.266
L340.361 186.525
L340.435 186.41
L340.733 164.061
L340.807 165.981
L341.03 192.305
L341.105 190.193
L341.328 170.993
L341.402 172.068
L341.774 215.748
L341.849 216.497
L342.146 187.255
L342.221 190.135
L342.37 194.474
L342.444 190.673
L342.518 192.266
L342.742 220.356
L342.89 211.082
L343.114 235.005
L343.188 231.185
L343.486 187.543
L343.709 235.274
L343.783 235.14
L344.527 141.559
L344.676 145.341
L344.825 138.391
L344.899 141.674
L345.197 202.634
L345.42 231.703
L345.494 230.225
L345.718 210.429
L345.792 218.167
L345.941 257.316
L346.015 256.433
L346.313 201.751
L346.387 210.122
L346.536 242.397
L346.61 238.903
L347.131 125.489
L347.28 158.013
L347.429 179.268
L347.503 178.308
L347.578 179.306
L347.726 190.577
L348.024 234.967
L348.098 234.698
L348.173 232.087
L348.47 183.396
L348.545 188.445
L348.694 200.945
L348.842 159.338
L348.991 127.908
L349.438 225.713
L349.512 225.117
L349.661 216.977
L349.884 240.842
L349.958 240.343
L350.405 193.687
L350.628 148.855
L350.702 153.559
L351 191.153
L351.149 194.666
L351.223 189.425
L351.372 167.882
L351.67 211.831
L351.818 178.903
L351.893 179.863
L351.967 188.887
L352.042 186.794
L352.116 181.457
L352.19 183.626
L352.488 236.157
L352.562 231.837
L352.637 228.362
L352.786 233.393
L352.86 227.21
L353.158 167.095
L353.381 189.117
L353.455 187.082
L353.53 191.652
L353.678 215.21
L353.753 213.962
L353.976 170.743
L354.199 211.063
L354.274 208.01
L354.348 207.607
L354.422 209.085
L354.497 207.473
L354.794 190.634
L354.943 204.977
L355.018 203.94
L355.241 178.212
L355.315 181.61
L355.464 199.677
L355.538 192.381
L355.687 159.242
L355.762 166.865
L355.985 204.055
L356.134 186.775
L356.282 201.309
L356.431 174.66
L356.506 180.074
L356.729 222.833
L356.803 223.677
L356.952 215.191
L357.026 217.514
L357.101 223.389
L357.175 219.972
L357.398 178.884
L357.473 182.071
L357.622 202.077
L357.696 198.218
L357.77 186.717
L357.845 190.692
L357.994 233.316
L358.589 157.841
L358.663 165.866
L358.812 210.257
L358.886 206.301
L359.035 161.604
L359.11 163.562
L359.333 235.889
L359.556 182.109
L359.63 182.781
L359.779 196.893
L359.928 185.7
L360.151 212.004
L360.3 183.165
L360.449 163.639
L360.672 241.092
L360.746 235.197
L360.895 208.893
L360.97 213.655
L361.118 228.689
L361.49 154.615
L361.639 178.001
L361.788 168.17
L362.309 217.879
L362.383 231.876
L362.458 231.473
L362.681 172.97
L362.755 174.583
L363.053 197.892
L363.276 215.959
L363.35 216.785
L363.499 227.287
L363.648 224.081
L363.722 230.935
L363.797 227.633
L364.094 169.457
L364.243 164.541
L364.392 177.002
L364.541 186.909
L364.69 174.756
L364.838 186.852
L364.987 173.124
L365.359 204.65
L365.508 216.861
L365.657 231.357
L365.731 228.305
L365.954 203.268
L366.103 212.407
L366.178 209.085
L366.401 148.221
L366.698 219.3
L366.773 209.623
L366.996 175.082
L367.07 174.045
L367.145 175.063
L367.294 200.023
L367.442 228.458
L367.517 226.999
L367.74 194.109
L367.889 210.66
L367.963 221.681
L368.038 218.609
L368.335 181.13
L368.41 180.285
L368.484 184.989
L368.707 225.559
L368.782 218.589
L369.079 149.181
L369.228 178.692
L369.451 224.023
L369.749 177.905
L369.823 183.223
L370.046 230.551
L370.195 200.177
L370.344 185.508
L370.493 206.551
L370.567 206.205
L370.865 177.655
L370.939 178.788
L371.014 177.885
L371.162 182.052
L371.386 214.097
L371.534 203.613
L371.609 195.549
L371.683 196.625
L371.906 236.33
L372.353 192.228
L372.427 192.535
L372.502 192.247
L372.725 160.125
L372.874 178.557
L373.022 203.364
L373.097 198.372
L373.246 173.201
L373.32 174.583
L373.543 222.948
L373.692 217.188
L373.841 192.612
L374.064 146.34
L374.213 190.423
L374.436 252.785
L374.51 255.223
L374.734 216.996
L374.808 218.935
L374.957 226.845
L375.106 203.537
L375.329 157.322
L375.701 180.708
L375.775 182.263
L375.85 180.074
L375.998 166.173
L376.073 168.343
L376.296 186.583
L376.37 187.581
L376.519 177.559
L376.594 178.653
L376.891 218.225
L377.04 211.773
L377.263 225.981
L377.338 224.887
L377.412 224.637
L377.561 229.303
L377.635 223.793
L377.858 196.797
L378.007 219.722
L378.082 219.473
L378.528 169.457
L378.751 161.143
L378.9 181.649
L378.974 180.804
L379.123 155.325
L379.198 159.78
L379.421 231.722
L379.495 230.378
L379.57 228.919
L379.718 244.087
L379.793 244.049
L380.314 174.986
L380.462 154.692
L380.686 186.967
L380.76 185.777
L380.909 174.621
L380.983 177.425
L381.132 187.313
L381.281 169.092
L381.355 175.044
L381.578 228.573
L381.727 205.629
L381.95 244.202
L382.248 186.89
L382.397 204.881
L382.471 197.469
L382.694 155.767
L383.066 203.556
L383.215 210.967
L383.438 165.617
L383.513 174.564
L383.736 240.938
L383.81 237.924
L384.257 182.148
L384.331 192.074
L384.48 223.217
L384.554 222.372
L384.778 152.561
L384.852 153.137
L385.15 188.599
L385.224 186.756
L385.522 164.829
L385.596 167.94
L385.819 201.386
L385.968 225.655
L386.191 210.372
L386.489 247.178
L386.638 227.882
L386.861 192.381
L387.084 165.77
L387.307 145.61
L387.456 141.444
L387.605 157.649
L387.902 240.42
L387.977 237.54
L388.126 230.455
L388.2 231.281
L388.349 221.335
L388.423 215.517
L388.498 217.092
L388.646 230.359
L388.87 199.869
L389.093 153.655
L389.167 163.735
L389.316 176.196
L389.39 176.503
L389.465 174.468
L389.614 150.986
L389.688 152.964
L389.986 238.903
L390.209 222.641
L390.358 230.282
L390.581 206.916
L390.655 210.545
L390.804 221.45
L390.953 183.665
L391.102 121.841
L391.176 122.052
L391.474 204.285
L391.622 195.069
L391.846 208.183
L391.92 206.973
L392.069 195.953
L392.143 197.681
L392.441 221.623
L392.515 221.604
L392.813 184.394
L392.887 190.193
L392.962 192.324
L393.11 187.159
L393.259 203.805
L393.334 201.194
L393.557 157.745
L393.631 163.812
L393.854 211.063
L393.929 206.397
L394.152 155.959
L394.226 160.125
L394.524 213.809
L394.598 213.924
L394.673 216.458
L394.822 224.081
L394.896 220.279
L394.97 221.661
L395.045 224.33
L395.119 222.065
L395.417 180.9
L395.491 182.052
L395.938 237.636
L396.161 187.754
L396.235 189.041
L396.384 216.497
L396.458 213.06
L396.756 157.591
L396.83 158.685
L397.277 202.461
L397.351 209.565
L397.574 172.913
L397.649 175.428
L398.021 214.481
L398.095 211.946
L398.244 180.093
L398.318 163.428
L398.393 164.407
L398.616 219.05
L398.69 216.458
L398.839 208.202
L398.914 212.253
L398.988 211.543
L399.211 177.521
L399.806 233.738
L399.881 234.545
L399.955 230.282
L400.253 176.657
L400.327 177.847
L400.476 185.085
L400.55 184.625
L400.774 196.605
L400.997 176.983
L401.294 205.783
L401.443 192.017
L401.666 160.625
L401.741 161.047
L402.038 217.783
L402.113 214.327
L402.262 208.797
L402.336 209.93
L402.559 230.244
L402.634 227.229
L402.931 180.708
L403.08 175.831
L403.154 176.023
L403.526 199.543
L403.675 205.841
L403.824 202.538
L403.973 181.457
L404.047 183.914
L404.27 239.46
L404.419 212.215
L404.791 144.727
L404.866 139.965
L404.94 145.994
L405.163 180.266
L405.238 173.047
L405.312 175.754
L405.61 247.965
L406.13 227.095
L406.279 223.505
L406.428 212.695
L406.577 180.42
L406.651 185.527
L406.8 233.047
L406.874 228.881
L407.172 166.039
L407.321 173.642
L407.395 172.164
L407.544 167.268
L407.693 172.145
L407.767 166.538
L407.99 128.388
L408.214 162.237
L408.288 156.996
L408.362 154.615
L408.66 209.143
L408.958 273.597
L409.032 273.482
L409.255 257.873
L409.33 257.642
L409.478 230.09
L409.776 159.089
L409.85 157.937
L409.999 150.679
L410.074 152.311
L410.446 223.447
L410.52 215.364
L410.669 204.209
L410.892 213.309
L410.966 210.948
L411.041 211.773
L411.115 214.058
L411.19 212.964
L411.562 164.753
L411.636 164.81
L411.859 184.644
L411.934 182.589
L412.082 171.588
L412.157 173.642
L412.454 194.282
L412.603 201.271
L412.901 229.821
L412.975 229.361
L413.273 188.868
L413.347 189.732
L413.422 189.386
L413.496 190.231
L413.645 211.082
L413.719 223.773
L413.794 221.623
L414.091 178.826
L414.389 191.959
L414.686 216.228
L415.133 192.631
L415.207 193.572
L415.43 216.996
L415.579 190.346
L415.728 161.969
L415.802 162.122
L416.174 196.106
L416.249 196.298
L416.546 170.628
L416.695 189.636
L416.918 220.932
L416.993 220.913
L417.365 209.911
L417.588 219.281
L417.886 187.332
L418.183 219.914
L418.332 205.418
L418.704 169.879
L418.778 171.684
L418.927 196.759
L419.076 213.194
L419.374 150.045
L419.522 173.354
L419.82 233.661
L419.894 229.188
L420.192 185.373
L420.341 195.415
L420.415 194.09
L420.564 184.106
L420.638 184.452
L420.713 186.026
L420.936 172.509
L421.159 246.429
L421.234 241.303
L421.457 187.908
L421.68 244.836
L421.978 185.585
L422.052 187.025
L422.126 182.109
L422.275 163.121
L422.424 201.501
L422.498 222.372
L422.573 219.204
L422.722 173.911
L422.796 176.733
L422.945 226.404
L423.019 225.271
L423.242 177.463
L423.391 206.225
L423.466 201.732
L423.689 141.77
L423.912 230.551
L423.986 222.161
L424.135 201.098
L424.284 207.78
L424.507 156.42
L424.656 196.241
L424.805 217.553
L424.954 202.212
L425.177 217.015
L425.251 216.132
L425.549 205.245
L425.772 162.276
L425.995 203.287
L426.07 202.711
L426.293 176.349
L426.442 197.162
L426.59 230.628
L426.665 230.589
L426.962 205.917
L427.186 157.591
L427.26 166.02
L427.483 218.301
L427.558 211.351
L427.781 167.249
L428.004 195.607
L428.227 178.077
L428.45 194.897
L428.525 193.994
L428.599 194.225
L428.748 212.119
L428.897 225.194
L429.12 209.585
L429.343 223.255
L429.715 196.452
L429.938 146.129
L430.162 197.431
L430.236 197.316
L430.459 175.466
L430.534 175.524
L430.682 190.02
L430.906 217.937
L430.98 213.674
L431.203 189.789
L431.501 222.583
L431.575 222.487
L431.65 224.138
L431.724 220.106
L432.022 187.85
L432.096 189.789
L432.394 170.897
L432.542 167.863
L432.617 171.204
L432.914 229.553
L432.989 222.948
L433.212 193.092
L433.435 207.089
L433.733 179.21
L433.807 182.839
L434.03 197.335
L434.105 199.121
L434.328 216.573
L434.402 212.369
L434.626 188.753
L434.849 202.481
L434.998 178.596
L435.146 151.658
L435.295 188.138
L435.444 230.589
L435.518 230.493
L435.816 205.38
L435.89 204.497
L436.039 196.701
L436.188 202.135
L436.262 200.369
L436.486 171.377
L436.858 213.54
L436.932 210.602
L437.23 186.621
L437.304 188.541
L437.527 212.004
L437.75 172.202
L437.825 174.007
L437.974 191.671
L438.271 222.737
L438.569 154.653
L438.643 169.322
L438.866 211.37
L439.015 207.281
L439.09 207.3
L439.164 208.375
L439.313 184.529
L439.462 165.809
L439.759 210.852
L439.834 211.773
L440.057 215.94
L440.131 215.69
L440.28 218.877
L440.354 222.353
L440.429 221.911
L441.098 170.916
L441.396 162.333
L441.47 163.735
L441.619 191.479
L441.768 218.474
L441.842 214.615
L441.991 186.084
L442.066 188.887
L442.289 210.909
L442.363 209.489
L442.586 237.751
L442.661 231.722
L442.884 177.06
L442.958 181.38
L443.107 200.637
L443.182 199.946
L443.405 184.279
L443.628 168.401
L443.777 182.186
L443.926 192.036
L444.149 171.607
L444.223 175.428
L444.67 239.229
L444.744 237.885
L444.967 184.721
L445.265 220.778
L445.339 218.033
L445.488 217.553
L445.637 194.609
L445.786 169.361
L445.86 173.143
L446.083 217.149
L446.158 212.945
L446.381 174.468
L446.455 177.175
L446.678 196.913
L446.753 192.919
L446.976 168.439
L447.125 188.407
L447.348 229.879
L447.646 158.685
L447.72 164.388
L447.943 198.218
L448.092 223.197
L448.166 222.813
L448.39 201.674
L448.464 202.903
L448.687 233.853
L448.762 229.61
L449.059 149.527
L449.134 150.007
L449.282 185.892
L449.506 232.164
L449.878 180.516
L449.878 180.516" style="fill:none;stroke:#808080;stroke-linecap:square;"/>
   </g>
  </g>
 </g>
 <defs>
  <clipPath id="p7ff5b81e1d">
   <rect height="345.6" width="446.4" x="72.0" y="43.2"/>
  </clipPath>
 </defs>
</svg>
