<?xml version="1.0" encoding="utf-8" standalone="no"?>
<!DOCTYPE svg PUBLIC "-//W3C//DTD SVG 1.1//EN"
  "http://www.w3.org/Graphics/SVG/1.1/DTD/svg11.dtd">
<!-- Created with matplotlib (http://matplotlib.org/) -->
<svg height="432pt" version="1.1" viewBox="0 0 576 432" width="576pt" xmlns="http://www.w3.org/2000/svg" xmlns:xlink="http://www.w3.org/1999/xlink">
 <defs>
  <style type="text/css">
*{stroke-linecap:butt;stroke-linejoin:round;}
  </style>
 </defs>
 <g id="figure_1">
  <g id="patch_1">
   <path d="
M0 432
L576 432
L576 0
L0 0
z
" style="fill:#ffffff;"/>
  </g>
  <g id="axes_1">
   <g id="line2d_1">
    <path clip-path="url(#p7ff5b81e1d)" d="
M72 212.984
L72.0744 257.644
L72.1488 273.213
L72.4464 181.426
L72.5208 190.442
L72.744 273.092
L72.8184 272.276
L73.0416 226.929
L73.2648 247.514
L73.3392 243.189
L73.5624 174.462
L73.7112 164.164
L73.7856 164.652
L73.9344 191.043
L74.0832 224.639
L74.1576 215.973
L74.3808 176.415
L74.5296 190.662
L74.8272 227.646
L74.9016 225.896
L75.1248 247.138
L75.1992 260.461
L75.2736 254.948
L75.4968 226.238
L75.5712 226.41
L75.6456 230.856
L75.72 230.087
L75.7944 231.141
L76.0176 244.269
L76.2408 227.892
L76.3896 199.592
L76.464 199.842
L76.5384 203.484
L76.6872 223.68
L76.7616 213.757
L76.9848 139.894
L77.208 201.393
L77.3568 247.086
L77.4312 245.76
L77.58 233.08
L77.8032 191.423
L77.8776 191.812
L78.1008 213.139
L78.2496 254.162
L78.324 240.247
L78.3984 240.615
L78.4728 235.91
L78.696 215.58
L78.7704 216.595
L78.9192 207.109
L78.9936 209.835
L79.2912 244.347
L79.3656 242.662
L79.5888 218.47
L79.8864 172.942
L80.0352 185.837
L80.1096 184.696
L80.184 182.657
L80.2584 183.539
L80.4816 215.991
L80.7048 259.925
L80.7792 253.255
L80.8536 253.259
L80.928 257.571
L81.0768 298.399
L81.1512 288.895
L81.4488 199.363
L81.5232 196.386
L81.7464 95.1688
L81.8208 95.8773
L82.044 182.325
L82.4904 257.298
L82.6392 278.402
L82.788 258.927
L83.0856 206.495
L83.2344 263.511
L83.4576 244.904
L83.6808 217.68
L83.904 233.78
L83.9784 231.711
L84.1272 224.747
L84.276 187.107
L84.5736 134.753
L84.7968 162.967
L85.0944 191.617
L85.2432 193.535
L85.392 225.274
L85.6152 285.577
L85.6896 282.696
L85.9872 222.648
L86.136 220.311
L86.2104 228.925
L86.3592 258.413
L86.4336 255.778
L86.6568 221.088
L86.7312 223.767
L86.9544 250.054
L87.3264 146.84
L87.4008 159.321
L87.5496 204.599
L87.6984 192.663
L87.7728 186.986
L87.8472 202.357
L87.996 277.559
L88.4424 185.349
L88.5168 193.928
L88.6656 263.031
L88.8144 219.222
L88.8888 199.635
L88.9632 203.156
L89.112 211.468
L89.1864 206.625
L89.3352 251.497
L89.4096 243.634
L89.6328 181.603
L89.856 205.536
L89.9304 203.298
L90.0048 198.866
L90.0792 200.706
L90.1536 200.426
L90.3024 215.325
L90.4512 199.566
L90.7488 269.351
L90.8232 257.134
L91.1208 128.1
L91.6416 320.647
L92.088 183.629
L92.1624 160.686
L92.3856 248.356
L92.6832 158.254
L93.204 211.671
L93.2784 208.655
L93.3528 209.61
L93.576 226.674
L93.7248 215.973
L93.7992 217.196
L93.948 249.401
L94.0224 261.333
L94.2456 219.961
L94.32 220.79
L94.4688 253.683
L94.5432 252.97
L94.9896 156.055
L95.1384 203.666
L95.2128 199.989
L95.3616 212.699
L95.5104 232.623
L95.6592 225.883
L95.808 229.767
L95.9568 212.5
L96.1056 210.167
L96.18 211.329
L96.7008 244.744
L96.7752 246.256
L96.8496 241.738
L96.924 241.863
L96.9984 251.674
L97.0728 247.475
L97.3704 177.918
L97.4448 179.02
L97.5936 203.022
L97.668 197.652
L97.8168 181.971
L98.1888 234.074
L98.2632 234.571
L98.3376 227.629
L98.412 229.352
L98.5608 251.397
L98.6352 262.996
L98.9328 180.938
L99.156 132.697
L99.2304 138.222
L99.6024 255.631
L99.7512 274.362
L100.272 238.053
L100.346 237.271
L100.495 227.032
L100.942 183.418
L101.165 200.935
L101.239 196.637
L101.537 162.885
L101.611 169.697
L102.058 275.529
L102.132 275.689
L102.281 264.586
L102.727 208.871
L103.025 183.267
L103.099 183.413
L104.066 239.163
L104.141 238.597
L104.364 221.529
L104.736 177.875
L104.81 183.889
L105.182 245.116
L105.331 261.951
L105.48 244.982
L105.852 185.02
L106.001 203.64
L106.075 202.093
L106.447 133.021
L106.596 194.926
L106.819 302.805
L106.894 305.415
L107.117 286.8
L107.489 216.647
L107.563 212.941
L107.712 215.839
L107.861 216.535
L108.158 186.364
L108.382 163.088
L108.456 165.015
L108.605 181.871
L108.902 227.555
L109.2 207.605
L109.274 208.508
L109.423 208.923
L109.498 210.405
L109.795 224.7
L110.093 246.408
L110.242 265.247
L110.316 263.204
L110.465 246.589
L110.539 248.235
L110.688 273.52
L110.837 214.772
L111.06 152.461
L111.358 137.462
L111.655 245.911
L111.73 239.759
L111.878 223.507
L112.102 232.134
L112.176 230.851
L112.399 214.548
L112.548 218.073
L112.622 218.09
L112.846 228.311
L113.218 252.546
L113.515 216.444
L113.59 212.643
L113.887 175.728
L113.962 175.927
L114.185 187.72
L114.334 200.145
L114.408 197.458
L114.482 198.754
L114.854 229.612
L115.003 236.359
L115.078 235.871
L115.524 211.074
L115.747 236.644
L115.896 222.674
L115.97 224.492
L116.119 233.849
L116.194 233.361
L116.268 234.191
L116.491 256.015
L116.566 254.598
L117.235 172.622
L117.31 169.762
L117.384 170.488
L117.533 182.035
L117.607 179.642
L117.756 171.028
L117.83 173.992
L118.128 206.685
L118.277 257.048
L118.351 250.421
L118.5 230.126
L118.649 238.843
L119.021 277.948
L119.318 233.024
L119.765 179.465
L119.839 176.342
L119.914 177.88
L120.137 193.941
L120.434 221.071
L120.732 225.836
L120.955 195.501
L121.03 199.691
L121.327 232.553
L121.402 237.763
L121.476 237.228
L121.848 205.333
L121.997 201.151
L122.071 201.925
L122.146 205.342
L122.22 203.782
L122.294 202.383
L122.666 250.373
L122.741 247
L123.485 191.392
L123.559 190.589
L123.708 199.048
L123.857 206.305
L124.006 203.402
L124.378 211.217
L124.601 221.974
L124.824 223.78
L124.898 222.73
L125.196 199.514
L125.345 210.763
L125.791 278.907
L125.94 263.925
L126.238 234.683
L126.386 211.904
L126.758 137.807
L127.056 171.909
L127.279 220.691
L127.502 254.244
L127.577 255.929
L127.726 246.723
L128.023 222.566
L128.098 222.285
L128.172 221.382
L128.395 215.753
L128.47 217.844
L128.544 216.565
L128.767 204.288
L128.916 197.834
L129.065 191.63
L129.139 193.228
L129.734 236.891
L129.809 245.12
L129.883 242.982
L130.032 227.529
L130.181 241.854
L130.33 252.261
L130.478 241.828
L130.925 181.063
L130.999 182.623
L131.297 216.448
L131.446 221.516
L131.52 221.352
L131.818 210.742
L132.19 198.114
L132.338 209.597
L132.562 232.074
L132.636 231.257
L132.934 220.799
L133.008 220.289
L133.082 222.363
L133.157 221.585
L133.306 225.08
L133.678 203.566
L133.752 205.722
L134.124 218.932
L134.273 199.307
L134.422 188.001
L134.496 198.274
L134.719 278.203
L134.794 276.864
L135.017 243.79
L135.389 175.767
L136.133 215.39
L136.282 212.824
L136.356 214.09
L136.505 221.494
L136.728 211.55
L136.877 221.766
L137.1 234.178
L137.174 235.863
L137.249 234.122
L137.546 209.986
L137.621 210.75
L137.77 217.537
L137.844 217.516
L137.918 218.773
L138.365 249.181
L138.439 246.568
L138.886 194.11
L139.258 161.956
L139.332 159.822
L139.406 165.468
L139.778 229.823
L139.927 242.589
L140.002 240.593
L140.15 232.908
L140.299 238.074
L140.448 231.387
L140.522 232.445
L140.597 234.277
L140.671 233.167
L140.82 223.313
L140.969 181.668
L141.118 153.243
L141.266 183.102
L141.638 297.932
L141.713 305.471
L141.787 300.762
L142.159 158.09
L142.308 154.331
L142.382 157.956
L142.606 198.076
L142.829 231.253
L142.903 229.599
L143.052 213.39
L143.126 213.679
L143.275 208.582
L143.35 209.791
L144.019 246.719
L144.168 261.545
L144.391 208.716
L144.689 121.262
L144.763 124.718
L144.986 192.762
L145.284 308.417
L145.507 236.528
L145.656 251.034
L145.73 262.729
L145.879 223.853
L146.177 134.908
L146.251 135.055
L146.4 172.553
L146.698 282.017
L146.846 302.844
L147.07 239.625
L147.218 212.159
L147.293 212.392
L147.442 218.932
L147.59 189.954
L147.739 166.794
L147.814 168.57
L147.888 175.223
L147.962 174.795
L148.037 171.438
L148.186 189.228
L148.558 259.877
L148.706 224.803
L148.855 195.777
L148.93 201.091
L149.227 267.831
L149.302 265.269
L149.599 189.232
L149.674 191.976
L149.897 208.595
L150.194 196.196
L150.269 196.689
L150.418 207.182
L150.492 206.569
L150.566 209.117
L151.087 268.163
L151.162 265.839
L151.757 149.437
L151.831 150.227
L151.98 182.044
L152.129 217.187
L152.278 305.164
L152.798 183.349
L152.947 174.087
L153.245 202.668
L153.468 272.138
L153.542 271.304
L153.617 263.545
L153.989 158.789
L154.138 172.017
L154.51 233.124
L154.658 257.834
L155.179 214.375
L155.402 181.491
L155.477 182.048
L155.626 187.828
L155.7 194.46
L156.146 286.368
L156.221 276.168
L156.593 150.802
L156.667 158.224
L156.965 233.798
L157.039 231.059
L157.114 233.08
L157.262 245.967
L157.411 241.785
L157.486 242.93
L157.634 254.443
L157.709 253.518
L157.858 239.193
L158.23 92.6329
L158.378 116.574
L158.75 262.184
L159.048 317.731
L159.122 320.038
L159.271 283.646
L159.569 205.216
L159.643 203.769
L159.792 207.796
L159.941 205.739
L160.09 191.272
L160.313 176.126
L160.834 188.908
L161.28 243.319
L161.875 229.646
L162.024 224.548
L162.173 225.624
L162.396 220.449
L162.47 220.324
L162.619 211.701
L162.917 174.333
L162.991 176.765
L163.363 223.278
L163.512 297.492
L163.586 293.085
L163.884 184.943
L164.182 206.517
L164.256 206.914
L164.405 216.051
L164.628 236.174
L164.702 233.992
L164.851 215.127
L165.149 166.263
L165.223 167.434
L165.446 215.805
L165.595 268.077
L165.744 317.26
L165.893 273.995
L166.19 166.241
L166.265 164.41
L166.637 233.201
L166.934 202.534
L167.232 217.157
L167.381 208.923
L167.604 180.256
L167.678 181.616
L168.199 239.764
L168.274 238.887
L168.422 225.369
L168.571 204.309
L168.646 206.098
L168.72 212.068
L168.794 209.536
L168.943 198.279
L169.018 200.058
L169.241 237.703
L169.315 229.771
L169.39 224.116
L169.464 225.715
L169.538 225.564
L169.687 222.324
L169.762 215.723
L169.836 217.835
L170.134 264.699
L170.208 262.56
L170.506 190.662
L170.803 200.624
L170.878 200.184
L170.952 203.29
L171.026 202.313
L171.25 181.742
L171.324 186.982
L171.398 184.601
L171.622 189.366
L171.696 198.771
L171.77 198.171
L171.845 192.507
L172.068 226.073
L172.44 283.732
L172.514 283.694
L172.738 260.91
L172.961 176.998
L173.035 172.648
L173.11 173.335
L173.184 179.646
L173.407 235.115
L173.482 228.622
L173.705 209.161
L173.928 149.73
L174.077 190.896
L174.3 247.246
L174.598 181.24
L174.746 229.072
L174.97 322.811
L175.267 242.416
L175.342 243.163
L175.565 212.249
L176.011 132.96
L176.086 137.047
L176.383 154.577
L176.681 203.458
L177.053 291.262
L177.127 289.698
L177.276 298.058
L177.35 294.498
L177.574 265.662
L177.648 264.984
L177.722 270.535
L177.797 269.269
L177.946 198.387
L178.094 141.911
L178.243 151.644
L178.318 149.704
L178.541 145.048
L178.615 148.771
L178.764 202.897
L178.913 258.318
L178.987 256.136
L179.434 215.658
L179.508 215.908
L179.731 233.046
L179.88 217.295
L180.029 207.268
L180.401 243.824
L180.475 242.727
L180.55 241.733
L180.624 242.079
L180.773 241.587
L180.847 242.757
L180.996 226.359
L181.368 158.44
L181.442 165.33
L181.591 184.727
L181.74 170.937
L182.186 218.332
L182.41 248.952
L182.707 231.171
L182.856 233.595
L183.154 247.682
L183.302 237.12
L183.674 192.606
L183.749 194.563
L183.972 201.363
L184.121 205.631
L184.27 203.912
L184.344 204.352
L184.418 207.394
L184.716 230.683
L184.865 240.208
L185.162 255.527
L185.534 198.132
L185.609 200.218
L185.832 222.838
L185.906 222.548
L185.981 215.394
L186.278 137.747
L186.353 137.881
L186.502 166.764
L186.799 231.288
L187.171 253.03
L187.246 252.728
L187.692 213.442
L187.766 213.649
L187.841 217.593
L187.99 246.55
L188.064 246.123
L188.362 175.676
L188.436 181.75
L188.882 275.563
L189.254 189.578
L189.329 182.053
L189.403 183.275
L189.552 192.576
L189.626 196.054
L189.701 193.617
L189.775 193.738
L189.924 229.815
L190.073 212.945
L190.147 216.258
L190.445 253.004
L190.519 247.924
L190.594 250.667
L190.668 249.466
L190.817 208.513
L191.04 137.086
L191.561 226.181
L191.71 307.333
L191.858 269.386
L192.23 174.03
L192.305 173.326
L192.379 175.858
L192.528 197.008
L192.751 247.043
L193.049 201.92
L193.198 214.712
L193.346 177.409
L193.421 182.947
L193.57 202.413
L193.644 206.798
L193.942 264.297
L194.09 273.896
L194.165 269.541
L194.76 195.626
L194.983 232.35
L195.058 217.356
L195.281 125.504
L195.504 164.492
L195.578 163.675
L195.653 169.689
L196.248 313.229
L196.397 268.487
L196.62 199.7
L196.694 201.004
L196.769 197.773
L196.843 179.132
L197.066 202.892
L197.141 199.384
L197.215 199.903
L197.438 225.564
L197.513 220.868
L197.736 238.951
L197.81 239.612
L197.959 210.422
L198.182 264.478
L198.257 277.736
L198.48 179.923
L198.629 159.01
L198.703 165.036
L198.852 221.995
L198.926 209.662
L199.001 199.635
L199.075 203.696
L199.298 219.105
L199.373 216.669
L199.447 218.263
L199.596 247.76
L199.67 226.527
L199.819 130.139
L200.191 247.008
L200.266 224.302
L200.34 230.048
L200.489 341.042
L200.563 338.622
L201.084 117.754
L201.158 125.461
L201.679 260.849
L201.754 257.251
L202.2 188.019
L202.274 188.109
L202.349 189.82
L202.498 167.162
L202.572 170.345
L203.093 290.852
L203.242 248.399
L203.465 173.879
L203.539 176.238
L203.688 199.173
L203.762 210.763
L203.837 210.189
L203.986 212.02
L204.06 210.496
L204.506 248.529
L204.73 243.898
L205.102 198.991
L205.176 202.776
L205.325 194.049
L205.548 184.77
L205.697 212.34
L205.846 239.085
L205.92 238.364
L205.994 229.3
L206.143 200.356
L206.292 220.354
L206.441 211.541
L206.515 211.986
L206.664 190.796
L207.036 271.36
L207.334 188.321
L207.408 186.226
L207.631 244.131
L208.003 160.807
L208.078 168.268
L208.45 284.324
L208.524 272.094
L208.822 215.515
L208.896 214.047
L209.119 244.036
L209.194 242.019
L209.566 199.652
L209.789 155.187
L209.938 173.136
L210.235 201.389
L210.31 198.495
L210.458 189.064
L210.607 212.945
L210.905 271.744
L211.5 208.007
L211.649 199.216
L211.798 214.988
L212.021 264.768
L212.244 172.428
L212.318 175.573
L212.542 221.464
L212.69 212.461
L212.765 216.777
L212.914 239.008
L212.988 238.714
L213.137 231.746
L213.211 230.998
L213.286 231.698
L213.36 227.702
L213.583 194.321
L213.806 170.73
L213.955 184.774
L214.03 183.893
L214.104 187.556
L214.327 244.783
L214.476 266.236
L214.997 204.162
L215.146 215.68
L215.22 215.455
L215.369 212.098
L215.518 213.675
L215.666 219.3
L215.741 219.023
L215.89 209.299
L215.964 209.58
L216.038 209.904
L216.187 198.248
L216.336 182.571
L216.782 240.057
L216.857 233.988
L217.006 215.9
L217.154 234.45
L217.378 251.644
L217.526 244.33
L217.601 247.881
L217.75 261.061
L217.898 222.026
L218.122 155.899
L218.196 156.604
L218.642 218.971
L218.717 211.364
L218.94 188.731
L219.014 189.328
L219.312 221.788
L219.461 210.526
L219.833 233.845
L220.13 237.893
L220.205 236.644
L220.354 229.378
L220.502 235.215
L220.577 234.031
L220.8 214.924
L220.949 205.225
L221.172 191.004
L221.321 193.885
L221.395 192.438
L221.47 196.265
L221.842 255.92
L221.916 251.669
L222.065 220.345
L222.288 174.847
L222.883 242.826
L223.106 210.262
L223.33 183.133
L223.999 245.544
L224.222 240.649
L224.446 255.251
L224.52 253.177
L224.743 210.461
L225.041 131.764
L225.115 132.455
L225.338 159.273
L225.934 289.059
L226.008 284.592
L226.603 199.583
L226.678 198.235
L226.901 206.448
L227.198 227.024
L227.422 241.288
L227.496 240.273
L228.017 194.736
L228.091 195.043
L228.24 204.249
L228.314 203.808
L228.463 196.516
L228.538 196.749
L228.612 198.088
L229.133 223.542
L229.43 231.655
L229.728 225.676
L229.951 237.241
L230.026 236.001
L230.249 206.72
L230.472 185.051
L230.546 186.636
L230.77 208.145
L230.993 226.924
L231.216 220.695
L231.29 221.006
L231.439 215.351
L231.588 211.027
L231.662 212.111
L232.183 233.525
L232.258 233.158
L232.406 228.333
L232.63 213.615
L233.002 170.518
L233.076 173.776
L233.225 197.613
L233.522 250.775
L233.597 254.512
L233.671 254.369
L233.746 253.186
L233.82 249.907
L234.043 213.99
L234.266 186.502
L234.341 185.971
L234.415 189.06
L234.862 234.182
L234.936 233.884
L235.01 234.117
L235.159 244.058
L235.234 241.146
L235.606 203.298
L235.754 197.561
L235.829 197.695
L235.903 196.265
L236.126 178.916
L236.201 181.12
L236.498 203.139
L236.945 239.802
L237.242 247.643
L237.317 243.863
L237.763 180.839
L237.838 184.511
L238.433 259.985
L238.507 263.312
L238.582 261.359
L239.102 179.132
L239.177 182.13
L239.474 205.571
L239.549 204.046
L239.846 179.525
L239.995 181.724
L240.07 185.461
L240.739 263.217
L240.888 256.603
L241.483 182.096
L241.558 184.092
L241.706 189.466
L241.855 204.664
L242.227 252.914
L242.302 257.26
L242.376 254.905
L242.674 230.717
L242.971 218.915
L243.269 200.853
L243.715 162.803
L243.938 134.753
L244.013 137.254
L244.162 186.943
L244.459 304.412
L244.534 305.008
L244.757 275.987
L245.129 216.068
L245.278 191.202
L245.501 154.863
L245.575 157.895
L245.724 189.79
L246.022 280.276
L246.17 294.282
L246.245 292.269
L246.394 273.079
L246.989 137.086
L247.063 138.593
L247.807 193.855
L248.328 323.528
L248.477 304.689
L248.998 172.272
L249.072 172.786
L249.518 199.652
L249.816 190.438
L249.89 190.909
L250.039 189.496
L250.114 192.028
L250.337 222.177
L250.56 243.194
L250.634 244.036
L250.709 243.652
L250.783 243.755
L250.858 243.608
L251.006 249.877
L251.155 255.277
L251.378 242.982
L251.602 214.055
L251.974 161.619
L252.048 156.832
L252.122 157.144
L252.271 167.114
L253.015 242.044
L253.238 253.311
L253.313 252.654
L253.982 220.125
L254.131 225.87
L254.354 233.275
L254.429 234.074
L254.503 232.744
L254.726 212.552
L255.173 147.644
L255.247 155.053
L255.47 182.251
L255.619 180.087
L255.694 183.884
L255.917 224.587
L256.214 276.583
L256.289 276.034
L256.586 255.972
L256.735 257.981
L256.81 256.961
L256.958 258.456
L257.033 256.072
L257.182 238.256
L257.33 196.166
L257.628 96.7931
L257.777 139.851
L258.074 242.204
L258.223 254.128
L258.372 229.676
L258.595 195.345
L258.67 198.261
L259.042 242.07
L259.116 238.653
L259.339 214.479
L259.488 225.512
L259.786 258.072
L259.86 258.499
L260.009 252.736
L260.306 228.739
L260.753 174.022
L260.976 161.507
L261.199 151.7
L261.348 170.536
L261.869 297.112
L261.943 293.863
L262.39 211.843
L262.464 217.978
L262.613 222.829
L262.762 215.459
L263.134 169.335
L263.282 176.307
L263.506 189.423
L263.654 194.883
L263.803 201.082
L264.175 253.488
L264.324 245.79
L264.696 213.1
L264.77 214.833
L265.217 239.159
L265.291 238.934
L265.589 242.913
L265.961 225.948
L266.035 225.261
L266.184 210.746
L266.705 141.388
L266.779 139.937
L266.928 161.032
L267.151 206.776
L267.226 205.385
L267.3 200.365
L267.374 202.504
L267.598 262.232
L267.821 312.698
L267.97 291.776
L268.49 171.365
L268.565 172.13
L269.011 230.886
L269.086 227.763
L269.309 211.511
L269.383 216.185
L269.606 242.926
L269.681 242.982
L269.83 232.454
L270.127 169.434
L270.276 151.005
L270.425 166.976
L270.648 219.503
L270.871 261.58
L270.946 264.798
L271.02 263.325
L271.169 247.967
L271.466 196.438
L271.541 197.527
L271.987 219.403
L272.136 221.386
L272.434 212.578
L272.657 203.683
L272.954 218.596
L273.029 215.645
L273.252 205.584
L273.326 205.506
L273.401 206.396
L273.698 187.936
L273.773 188.213
L274.07 206.093
L274.294 253.834
L274.517 293.759
L274.591 290.372
L274.814 248.49
L275.038 219.222
L275.484 195.393
L275.633 185.634
L275.707 185.56
L275.856 166.756
L276.079 145.696
L276.154 148.279
L276.302 167.028
L276.749 271.213
L276.823 269.027
L277.046 253.156
L277.121 253.851
L277.195 253.514
L277.344 248.702
L277.865 180.541
L277.939 181.305
L278.088 199.747
L278.46 244.477
L278.832 236.23
L278.906 228.061
L279.204 154.837
L279.874 249.669
L279.948 252.145
L280.171 229.175
L280.618 167.382
L280.766 202.771
L280.99 253.86
L281.138 233.024
L281.287 208.137
L281.362 212.586
L281.585 257.571
L281.734 284.903
L281.882 246.745
L282.254 134.671
L282.403 156.197
L282.701 230.752
L283.073 209.087
L283.147 209.964
L283.445 227.832
L283.668 252.443
L283.817 239.405
L283.966 226.57
L284.189 230.821
L284.338 228.856
L284.412 230.32
L284.486 228.536
L284.784 193.505
L285.007 178.614
L285.305 164.76
L285.454 180.813
L285.974 274.881
L286.049 277.43
L286.123 274.514
L286.346 234.359
L286.421 222.28
L286.495 223.926
L286.57 233.512
L286.644 232.735
L286.942 126.398
L287.016 135.461
L287.388 257.549
L287.686 282.83
L287.909 250.036
L288.206 189.176
L288.43 140.252
L288.504 138.654
L288.727 153.212
L288.95 204.106
L289.174 231.659
L289.248 232.722
L289.694 248.697
L289.769 247.825
L290.066 233.348
L290.215 236.45
L290.587 223.304
L290.81 212.103
L290.959 219.231
L291.108 206.132
L291.48 178.057
L291.554 179.145
L291.703 189.751
L291.926 210.919
L292.075 216.66
L292.522 243.626
L292.596 245.526
L292.67 244.654
L292.819 241.267
L293.042 223.408
L293.266 213.247
L293.414 204.253
L293.786 186.463
L293.861 189.531
L294.382 237.889
L294.456 236.908
L294.828 211.092
L294.902 212.111
L295.051 226.579
L295.126 226.203
L295.423 200.715
L295.646 207.355
L295.795 215.835
L295.944 233.327
L296.018 228.29
L296.316 193.064
L296.39 188.636
L296.465 189.958
L296.911 255.985
L296.986 252.754
L297.209 243.738
L297.358 230.726
L297.655 165.658
L297.73 172.626
L298.102 246.969
L298.176 244.675
L298.399 199.562
L298.622 175.836
L298.846 156.634
L298.92 164.384
L299.441 288.346
L299.515 288.942
L299.664 252.188
L299.887 192.377
L300.036 186.511
L300.11 187.418
L300.78 233.245
L301.152 271.684
L301.301 242.152
L301.673 142.006
L301.747 142.844
L301.97 179.888
L302.342 232.981
L302.417 233.387
L302.64 242.528
L302.714 240.74
L302.938 233.569
L303.012 233.076
L303.235 222.967
L303.533 206.677
L303.682 205.735
L303.83 199.393
L303.905 199.674
L304.202 208.167
L304.277 207.865
L304.649 230.065
L304.872 250.097
L305.17 222.095
L305.244 223.624
L305.318 224.108
L305.467 220.756
L306.062 194.261
L306.286 178.398
L306.36 178.316
L306.434 178.057
L306.583 192.291
L306.955 238.908
L307.178 243.781
L307.402 309.864
L307.476 308.4
L308.071 130.252
L308.146 133.638
L308.22 131.224
L308.294 135.379
L308.518 211.411
L308.815 290.208
L308.89 293.798
L308.964 292.187
L309.113 271.822
L309.336 245.721
L309.485 226.38
L309.708 188.813
L309.782 188.999
L309.857 191.336
L309.931 189.461
L310.154 172.35
L310.303 186.269
L310.526 200.3
L310.75 232.074
L310.898 243.116
L311.345 207.739
L311.419 207.078
L311.568 208.4
L311.717 218.345
L311.94 243.742
L312.089 264.655
L312.238 240.252
L312.461 202.555
L312.61 201.739
L312.758 197.894
L313.056 218.747
L313.13 208.374
L313.354 134.563
L313.428 147.678
L313.726 256.443
L313.874 267.956
L313.949 264.975
L314.395 228.553
L314.767 200.236
L314.842 200.439
L314.916 203.113
L315.065 216.79
L315.139 216.457
L315.437 197.026
L315.734 146.287
L315.883 184.904
L316.106 244.192
L316.33 275.555
L316.553 300.939
L316.702 271.096
L317.074 171.218
L317.222 164.09
L317.297 159.874
L317.371 164.833
L317.669 220.898
L317.743 221.144
L317.966 207.338
L318.264 182.225
L318.338 183.444
L318.636 221.447
L318.859 262.772
L319.082 243.042
L319.306 222.056
L319.38 226.264
L319.603 256.473
L319.678 261.04
L319.752 257.717
L319.901 202.344
L320.124 117.05
L320.198 128.843
L320.57 261.532
L320.645 264.742
L320.719 261.389
L320.868 238.442
L321.091 206.029
L321.314 215.528
L321.463 196.201
L321.612 177.249
L321.686 179.849
L321.835 215.852
L321.984 253.648
L322.058 252.313
L322.356 206.465
L322.654 232.903
L322.802 208.733
L323.026 152.232
L323.1 150.944
L323.174 159.329
L323.546 281.966
L323.621 279.775
L324.216 194.378
L324.439 160.263
L324.662 204.944
L324.737 201.799
L324.886 197.548
L324.96 198.145
L325.481 251.903
L325.555 249.967
L325.853 231.357
L326.076 241.876
L326.15 236.904
L326.597 163.131
L326.671 164.043
L326.894 201.946
L326.969 198.309
L327.118 192.032
L327.192 194.866
L327.341 215.883
L327.713 266.656
L327.787 272.967
L327.862 271.498
L328.01 266.764
L328.085 266.241
L328.234 250.641
L328.606 171.119
L328.829 140.175
L329.126 177.53
L329.201 173.46
L329.275 175.326
L329.498 223.075
L329.945 315.04
L330.019 304.123
L330.54 151.597
L330.614 154.888
L330.838 197.458
L331.061 241.189
L331.358 187.414
L331.582 211.61
L331.73 250.762
L331.879 307.868
L331.954 302.775
L332.326 185.586
L332.4 186.874
L332.623 157.679
L332.698 162.12
L332.995 195.328
L333.07 195.462
L333.144 193.591
L333.218 197.933
L333.59 270.5
L333.665 269.766
L334.037 217.062
L334.186 223.443
L334.334 219.874
L334.483 206.124
L334.781 171.106
L334.93 167.68
L335.004 169.866
L335.078 177.694
L335.45 253.881
L335.599 268.483
L335.748 262.984
L336.12 232.545
L336.343 219.166
L336.418 219.602
L336.492 222.436
L336.641 195.03
L336.864 160.513
L336.938 155.524
L337.013 157.584
L337.236 192.568
L337.385 216.932
L337.459 216.971
L337.831 250.555
L337.906 246.628
L338.054 233.141
L338.129 235.405
L338.352 264.267
L338.426 263.649
L338.501 259.044
L338.65 214.738
L338.947 128.843
L339.022 127.755
L339.245 155.804
L339.691 281.875
L339.766 283.499
L339.989 280.592
L340.138 264.625
L340.51 208.301
L340.733 188.602
L340.807 192.334
L340.956 203.467
L341.551 159.312
L341.7 176.648
L342.295 290.644
L342.444 258.823
L342.742 187.237
L343.039 205.588
L343.188 231.4
L343.411 280.881
L343.56 263.567
L343.932 190.861
L344.006 188.973
L344.23 211.463
L344.304 204.257
L344.527 130.342
L344.602 137.107
L344.899 261.722
L345.271 199.747
L345.42 226.233
L345.494 221.887
L345.569 220.6
L345.718 236.273
L345.941 223.395
L346.09 201.359
L346.238 242.088
L346.313 233.854
L346.462 193.276
L346.536 194.572
L346.759 232.67
L346.982 253.497
L347.131 223.196
L347.429 152.595
L347.578 187.06
L347.801 246.326
L347.875 245.462
L347.95 245.95
L348.024 251.946
L348.173 274.073
L348.619 201.458
L348.694 201.402
L348.768 202.707
L348.991 183.82
L349.14 160.703
L349.289 139.319
L349.661 260.37
L349.735 254.633
L350.256 196.028
L350.33 195.803
L350.405 196.481
L350.628 238.744
L350.851 284.428
L351 271.68
L351.446 189.483
L351.67 204.646
L351.744 203.406
L352.042 164.565
L352.265 171.4
L352.86 276.25
L352.934 272.462
L353.083 218.431
L353.306 128.904
L353.381 130.882
L353.53 169.438
L353.976 329.231
L354.125 310.914
L354.72 170.574
L354.794 172.972
L354.869 168.077
L355.092 125.72
L355.166 127.279
L355.39 204.776
L355.613 264.344
L355.687 268.28
L355.762 267.761
L355.91 237.69
L356.208 169.002
L356.282 159.07
L356.357 160.25
L356.878 284.488
L357.101 258.988
L357.175 260.763
L357.25 258.391
L357.547 202.145
L357.919 138.295
L358.068 179.854
L358.514 298.464
L358.589 296.416
L358.812 261.484
L358.886 258.862
L359.407 148.313
L359.556 143.764
L359.63 146.464
L359.779 171.745
L360.077 240.498
L360.226 244.17
L360.523 270.902
L360.598 270.155
L360.746 251.484
L361.044 210.845
L361.118 207.402
L361.193 208.297
L361.342 219.831
L361.416 217.2
L361.565 193.57
L361.639 195.777
L362.011 233.983
L362.309 161.775
L362.383 162.418
L362.606 224.363
L362.755 269.088
L362.83 261.601
L363.127 198.387
L363.276 181.271
L363.425 223.425
L363.574 278.842
L363.797 248.404
L364.318 147.039
L364.466 170.224
L364.764 248.684
L364.838 248.486
L365.136 236.61
L365.285 239.742
L365.359 238.93
L365.806 210.569
L365.954 191.315
L366.029 191.574
L366.55 246.563
L366.624 242.109
L366.847 186.368
L366.922 187.072
L367.145 196.114
L367.294 194.33
L367.442 220.384
L367.666 250.957
L367.74 252.52
L367.889 239.159
L368.186 196.862
L368.41 220.393
L368.484 219.442
L368.558 219.995
L368.707 230.247
L368.782 227.175
L368.93 211.653
L369.005 216.064
L369.154 235.301
L369.302 189.941
L369.451 155.182
L369.6 158.928
L369.749 180.856
L369.823 172.583
L369.898 159.476
L370.046 262.958
L370.195 351.397
L370.27 345.033
L370.418 268.034
L370.642 174.631
L370.716 175.43
L370.865 182.277
L370.939 181.405
L371.014 182.571
L371.162 197.86
L371.534 262.962
L371.609 263.601
L371.981 198.888
L372.204 168.855
L372.353 177.957
L372.576 209.165
L372.65 203.847
L372.725 204.823
L372.948 225.957
L373.246 260.093
L373.32 256.793
L373.394 249.293
L373.469 250.732
L373.543 253.048
L373.766 215.053
L373.841 217.641
L373.915 214.88
L374.138 196.041
L374.213 199.078
L374.362 213.507
L374.51 203.532
L374.659 184.718
L374.808 149.285
L374.882 149.782
L375.18 202.162
L375.403 243.112
L375.552 254.858
L375.626 253.894
L375.701 255.925
L375.775 254.447
L375.924 270.976
L375.998 267.39
L376.073 268.15
L376.147 262.634
L376.37 229.128
L376.445 228.886
L376.668 246.442
L376.817 214.729
L377.114 96.6203
L377.189 92.2312
L377.338 133.142
L377.784 246.343
L378.007 292.792
L378.23 240.731
L378.305 245.159
L378.454 263.791
L378.528 262.042
L378.677 252.14
L379.198 199.553
L379.272 196.996
L379.495 148.542
L379.57 150.901
L379.718 176.592
L380.016 223.818
L380.165 225.512
L380.388 247.198
L380.537 203.169
L380.611 169.352
L380.686 177.348
L380.834 288.091
L380.983 215.554
L381.132 274.293
L381.206 257.821
L381.578 159.178
L381.653 155.774
L381.727 139.125
L381.802 149.039
L382.099 339.759
L382.174 339.236
L382.322 276.047
L382.62 80.2561
L382.694 99.2771
L383.066 274.453
L383.141 269.861
L383.215 272.863
L383.438 225.27
L383.662 156.089
L383.736 149.782
L383.81 150.417
L383.885 152.171
L383.959 151.847
L384.48 289.059
L384.554 296.489
L384.703 283.789
L385.373 173.715
L385.447 173.819
L385.819 196.386
L386.042 217.472
L386.414 246.784
L386.489 249.795
L386.563 249.194
L386.638 246.766
L386.935 216.522
L387.233 175.46
L387.53 188.753
L387.754 202.141
L388.051 231.383
L388.126 232.096
L388.274 237.552
L388.498 248.762
L388.572 248.468
L388.721 238.105
L389.167 188.239
L389.242 186.878
L389.316 187.431
L389.39 189.211
L389.539 201.691
L389.837 231.966
L389.911 231.918
L390.06 236.601
L390.134 234.074
L390.432 209.593
L390.655 237.34
L390.73 234.264
L391.176 176.683
L391.622 227.153
L391.771 231.823
L391.92 223.473
L392.069 239.383
L392.143 232.061
L392.218 234.7
L392.292 240.736
L392.366 238.545
L392.441 235.556
L392.738 170.838
L392.813 171.166
L392.962 202.192
L393.036 201.786
L393.185 159.308
L393.259 163.857
L393.706 266.323
L393.78 266.02
L393.854 262.124
L394.226 206.845
L394.301 207.51
L394.524 225.469
L394.598 224.661
L394.822 230.977
L395.268 130.061
L395.342 135.729
L395.566 247.22
L395.64 224.501
L395.789 197.298
L396.31 310.495
L396.533 272.842
L396.905 163.006
L397.128 129.703
L397.202 132.973
L397.426 184.433
L397.723 262.275
L397.798 259.7
L398.095 218.842
L398.318 158.638
L398.467 186.494
L398.839 262.426
L398.914 262.56
L399.211 251.086
L399.434 257.212
L399.732 247.522
L400.03 182.174
L400.327 123.37
L400.476 147.35
L400.625 168.06
L400.699 161.973
L400.774 163.308
L400.922 205.826
L401.22 310.335
L401.294 313.057
L401.443 286.484
L402.038 152.331
L402.113 150.387
L402.187 154.75
L402.634 237.254
L402.782 234.16
L402.857 236.109
L403.229 270.029
L403.303 268.15
L403.452 253.769
L403.973 193.432
L404.27 177.508
L404.345 178.173
L404.494 188.33
L404.717 215.835
L404.791 214.159
L405.089 187.28
L405.238 196.36
L405.61 236.575
L405.833 245.388
L405.982 241.453
L406.726 208.374
L406.949 206.072
L407.098 208.409
L407.47 225.335
L407.544 223.646
L407.767 202.097
L407.916 193.133
L408.065 214.634
L408.288 240.563
L408.437 247.12
L408.586 236.666
L408.66 237.625
L408.734 236.346
L409.404 164.423
L409.478 160.561
L409.553 161.939
L409.702 193.462
L410.074 281.823
L410.148 280.06
L410.297 265.156
L410.743 209.61
L411.041 191.596
L411.115 188.308
L411.19 188.368
L411.338 194.728
L411.71 228.76
L411.785 225.896
L411.859 222.242
L412.157 233.119
L412.306 224.579
L412.678 193.051
L412.752 191.462
L412.826 192.252
L413.05 205.108
L413.422 223.961
L413.496 224.052
L413.719 216.436
L414.091 219.749
L414.166 219.019
L414.612 209.748
L414.686 211.195
L415.207 237.871
L415.356 241.902
L415.728 222.021
L416.026 210.262
L416.174 205.26
L416.398 197.056
L416.472 197.32
L416.621 198.749
L417.067 193.237
L417.142 193.259
L417.29 199.739
L417.811 239.09
L417.96 238.014
L418.109 234.074
L418.332 227.227
L418.406 227.724
L418.555 218.98
L418.704 211.096
L418.853 214.189
L419.374 229.564
L419.597 222.566
L419.746 219.131
L420.192 193.686
L420.266 193.933
L420.341 193.073
L420.638 197.669
L420.787 203.998
L421.457 239.444
L421.754 232.726
L422.498 192.922
L422.647 199.799
L423.019 215.446
L423.094 217.585
L423.168 217.382
L423.54 209.843
L423.689 211.325
L423.838 215.805
L424.433 252.78
L424.507 252.374
L424.582 251.03
L424.805 237.262
L425.4 161.217
L425.549 164.462
L425.698 179.577
L425.995 215.394
L426.293 191.332
L426.367 193.911
L426.59 235.292
L426.888 288.312
L426.962 287.361
L427.186 254.43
L427.409 232.229
L427.558 220.57
L427.93 149.38
L428.004 153.126
L428.525 219.961
L428.599 219.887
L428.674 222.851
L428.971 247.306
L429.046 244.749
L429.194 228.467
L429.492 174
L429.641 207.981
L429.938 286.286
L430.087 232.437
L430.385 137.673
L430.459 138.343
L430.608 163.403
L431.129 260.098
L431.203 255.735
L431.575 213.399
L431.724 226.881
L432.022 254.668
L432.096 254.257
L432.245 245.116
L432.914 185.582
L433.063 175.698
L433.138 176.359
L433.51 202.542
L433.658 198.654
L433.882 203.674
L434.551 233.154
L434.774 237.863
L434.849 237.759
L434.923 236.593
L434.998 237.115
L435.072 236.07
L435.37 215.584
L435.667 201.363
L435.965 211.597
L436.188 219.239
L436.337 220.492
L436.411 220.432
L436.56 218.721
L436.932 212.107
L437.378 217.04
L437.602 220.112
L437.676 219.827
L437.825 220.941
L437.899 220.712
L438.048 219.572
L438.42 198.184
L438.494 198.309
L438.718 213.031
L438.941 224.73
L439.015 225.274
L439.09 224.933
L439.536 217.654
L439.759 224.518
L439.834 223.326
L440.131 211.792
L440.354 204.417
L440.578 201.182
L440.726 201.117
L440.801 201.398
L440.875 202.516
L441.098 213.273
L441.545 236.087
L441.619 236.182
L441.694 235.439
L442.289 217.053
L442.661 205.709
L442.81 204.149
L443.107 209.303
L443.33 205.32
L443.479 207.58
L444.298 235.037
L444.372 233.482
L444.521 226.804
L444.818 209.528
L444.893 209.908
L445.042 211.921
L445.265 209.256
L445.414 205.376
L445.488 205.536
L445.562 206.171
L445.637 205.528
L445.711 205.54
L446.009 215.515
L446.083 214.444
L446.306 207.122
L446.381 207.696
L446.902 240.424
L447.05 231.158
L447.571 181.927
L447.794 206.033
L448.092 230.069
L448.315 235.988
L448.464 237.867
L448.613 233.893
L449.134 217.049
L449.208 216.569
L449.878 194.408
L449.878 194.408" style="fill:none;stroke:#808080;stroke-linecap:square;"/>
   </g>
  </g>
 </g>
 <defs>
  <clipPath id="p7ff5b81e1d">
   <rect height="345.6" width="446.4" x="72.0" y="43.2"/>
  </clipPath>
 </defs>
</svg>
