<?xml version="1.0" encoding="utf-8" standalone="no"?>
<!DOCTYPE svg PUBLIC "-//W3C//DTD SVG 1.1//EN"
  "http://www.w3.org/Graphics/SVG/1.1/DTD/svg11.dtd">
<!-- Created with matplotlib (http://matplotlib.org/) -->
<svg height="432pt" version="1.1" viewBox="0 0 576 432" width="576pt" xmlns="http://www.w3.org/2000/svg" xmlns:xlink="http://www.w3.org/1999/xlink">
 <defs>
  <style type="text/css">
*{stroke-linecap:butt;stroke-linejoin:round;}
  </style>
 </defs>
 <g id="figure_1">
  <g id="patch_1">
   <path d="
M0 432
L576 432
L576 0
L0 0
z
" style="fill:#ffffff;"/>
  </g>
  <g id="axes_1">
   <g id="line2d_1">
    <path clip-path="url(#p7ff5b81e1d)" d="
M72 205.05
L72.0744 220.818
L72.2232 231.229
L72.2976 240.798
L72.372 240.604
L72.4464 240.215
L72.5208 251.965
L72.5952 246.198
L72.8184 183.709
L72.9672 175.955
L73.4136 270.045
L73.488 271.103
L73.86 173.147
L74.0088 210.515
L74.0832 209.176
L74.232 205.201
L74.4552 214.252
L74.604 185.265
L74.7528 137.637
L74.9016 176.711
L74.976 166.429
L75.1248 132.129
L75.5712 263.349
L75.6456 268.662
L75.9432 206.713
L76.0176 205.093
L76.092 209.176
L76.3152 254.817
L76.464 249.654
L76.5384 247.991
L76.6872 213.366
L76.836 230.97
L76.9104 224.641
L76.9848 220.905
L77.3568 264.839
L77.4312 258.402
L77.6544 193.321
L77.7288 200.687
L77.8776 178.547
L78.2496 270.109
L78.324 257.409
L78.5472 199.002
L78.696 172.909
L78.7704 176.193
L79.068 232.007
L79.1424 230.301
L79.2912 202.977
L79.5144 250.864
L79.6632 223.669
L79.812 179.022
L79.8864 182.089
L80.0352 204.791
L80.1096 201.897
L80.2584 225.959
L80.3328 225.937
L80.4816 203.776
L80.6304 206.325
L80.7792 169.864
L80.8536 172.866
L81.0024 189.628
L81.0768 191.723
L81.3 187.986
L81.5232 211.401
L81.5976 206.951
L82.1184 303.136
L82.6392 194.466
L82.788 197.404
L82.9368 219.457
L83.16 265.357
L83.7552 151.806
L84.1272 204.705
L84.276 261.621
L84.3504 258.013
L84.4248 248.164
L84.5736 259.612
L84.7968 216.865
L84.8712 228.529
L85.02 267.561
L85.6152 147.508
L85.6896 142.345
L86.2104 217.665
L86.3592 246.241
L86.4336 264.623
L86.508 262.873
L86.7312 198.095
L86.8056 201.054
L86.9544 216.93
L87.0288 209.176
L87.1032 212.61
L87.252 239.394
L87.3264 260.627
L87.4008 258.899
L87.6984 194.531
L87.7728 189.045
L87.9216 215.699
L88.1448 202.393
L88.2192 208.139
L88.368 199.585
L88.4424 202.804
L88.5168 201.681
L88.5912 198.765
L88.74 207.469
L88.8888 185.999
L89.4096 242.418
L89.484 243.347
L89.6328 258.985
L89.7072 258.445
L89.856 242.289
L90.0048 270.109
L90.0792 264.105
L90.3768 187.381
L90.4512 175.113
L90.6744 247.645
L90.7488 228.745
L91.0464 142.043
L91.1208 146.017
L91.2696 169.043
L91.344 170.296
L91.4184 163.297
L91.4928 166.235
L91.9392 281.233
L92.0136 278.749
L92.1624 249.849
L92.3112 268.792
L92.3856 278.274
L92.46 275.596
L92.7576 188.505
L92.832 192.889
L92.9064 194.099
L92.9808 198.203
L93.2784 289.744
L93.7248 150.337
L93.8736 200.255
L93.948 191.809
L94.0968 167.38
L94.2456 190.081
L94.3944 184.725
L94.6176 207.491
L94.7664 203.819
L94.9896 248.941
L95.064 243.736
L95.1384 244.47
L95.2128 240.798
L95.2872 241.857
L95.5104 286.461
L95.6592 264.601
L95.808 249.309
L95.9568 260.411
L96.0312 255.119
L96.4032 128.975
L96.4776 129.148
L96.6264 160.057
L96.7752 141.157
L96.924 161.31
L97.296 247.3
L97.3704 252.981
L97.5192 274.861
L97.5936 272.075
L97.668 260.346
L97.8168 293.265
L97.8912 290.435
L98.4864 163.103
L98.5608 163.816
L98.6352 153.966
L98.7096 154.549
L99.0072 225.592
L99.0816 226.369
L99.2304 253.672
L99.3048 247.278
L99.4536 206.778
L99.6024 225.117
L99.8256 183.321
L100.272 222.179
L100.421 243.217
L100.495 238.465
L100.57 238.789
L100.718 284.02
L100.793 276.157
L100.942 208.96
L101.016 212.826
L101.09 227.125
L101.239 191.421
L101.314 192.263
L101.462 218.961
L101.611 178.59
L101.76 202.221
L101.834 202.134
L102.058 167.596
L102.132 168.654
L102.355 216.045
L102.504 208.895
L102.802 241.641
L102.95 298.341
L103.099 247.559
L103.248 203.884
L103.397 213.647
L103.471 213.517
L103.62 186.366
L103.694 195.179
L103.918 269.548
L104.215 165.652
L104.438 173.622
L104.587 160.576
L105.108 248.272
L105.257 298.276
L105.331 299.032
L105.406 294.906
L105.554 259.655
L105.629 262.765
L105.703 275.185
L105.852 232.72
L105.926 234.577
L106.001 258.51
L106.075 254.946
L106.596 149.171
L106.67 151.893
L106.819 190.924
L106.894 187.684
L107.117 144.937
L107.489 214.101
L107.638 266.092
L107.861 216.369
L108.01 222.309
L108.158 193.732
L108.382 221.574
L108.456 215.029
L108.53 214.684
L108.679 248.293
L108.902 306.311
L108.977 301.905
L109.423 148.696
L109.498 165.112
L109.572 184.768
L109.646 181.074
L109.795 150.445
L109.87 155.025
L110.167 203.884
L110.242 202.804
L110.39 188.548
L110.911 310.005
L110.986 316.96
L111.06 316.917
L111.134 310.134
L111.655 151.482
L111.878 176.409
L112.027 152.433
L112.176 127.679
L112.399 157.055
L112.548 137.291
L112.622 147.162
L113.069 291.904
L113.143 306.916
L113.218 301.883
L113.441 288.966
L113.59 256.739
L113.664 259.979
L113.738 257.452
L114.11 165.717
L114.185 167.315
L114.334 163.686
L114.408 165.393
L114.482 172.672
L114.631 215.548
L114.706 215.137
L114.854 209.197
L115.003 215.591
L115.152 199.369
L115.375 224.706
L115.524 252.808
L115.896 182.089
L115.97 183.666
L116.417 258.273
L116.491 252.333
L116.64 233.368
L116.714 240.712
L116.789 235.981
L116.863 222.589
L117.012 244.729
L117.086 241.641
L117.384 160.122
L117.458 164.399
L117.533 168.222
L117.607 165.846
L117.756 138.911
L118.202 238.703
L118.277 232.137
L118.574 270.865
L118.723 266.61
L118.946 232.893
L119.095 251.62
L119.393 199.24
L119.542 168.46
L119.616 171.7
L119.69 174.486
L119.988 225.181
L120.137 203.776
L120.211 211.206
L120.36 259.569
L120.434 253.391
L120.583 210.256
L120.658 231.597
L120.732 227.125
L120.881 188.764
L121.104 212.761
L121.253 169.777
L121.327 176.301
L121.476 224.425
L121.55 219.825
L121.625 214.317
L121.699 220.861
L121.774 213.712
L121.848 218.896
L121.997 253.866
L122.071 256.177
L122.146 255.184
L122.294 282.486
L122.518 194.229
L122.592 202.696
L122.741 222.913
L123.262 157.746
L123.485 175.134
L123.634 222.093
L123.708 217.081
L123.857 186.885
L124.08 237.04
L124.229 276.201
L124.303 275.596
L124.675 230.646
L124.898 203.581
L125.047 214.641
L125.122 211.444
L125.27 201.659
L125.419 218.334
L125.717 175.804
L125.866 200.86
L126.014 175.674
L126.089 186.237
L126.386 256.609
L126.461 267.539
L126.61 249.028
L126.833 258.856
L126.982 283.285
L127.428 196.367
L127.577 224.058
L127.726 178.957
L127.874 221.229
L128.023 192.609
L128.098 194.747
L128.172 181.657
L128.321 128.651
L128.395 136.47
L128.47 121.933
L128.544 127.074
L128.693 167.207
L128.767 162.973
L128.842 165.069
L129.288 289.182
L129.437 260.735
L129.511 265.595
L129.809 299.053
L130.032 249.784
L130.404 176.517
L130.553 154.139
L130.702 193.516
L130.776 190.211
L130.85 187.813
L130.999 228.832
L131.148 199.737
L131.222 211.185
L131.297 204.985
L131.371 186.625
L131.446 202.631
L131.594 281.557
L131.669 272.356
L131.892 220.775
L131.966 216.412
L132.041 218.615
L132.115 228.508
L132.264 266.783
L132.71 181.117
L132.785 186.863
L132.934 164.766
L133.008 156.839
L133.157 134.807
L133.38 222.719
L133.454 213.82
L133.529 216.952
L133.678 231.121
L133.752 233.13
L133.826 233.087
L133.901 233.065
L134.05 270.801
L134.124 256.458
L134.273 206.346
L134.422 234.448
L134.496 231.057
L134.57 233.173
L134.719 259.785
L134.794 257.603
L135.166 171.592
L135.24 177.402
L135.314 178.396
L135.389 184.617
L135.612 224.685
L135.686 214.77
L135.761 216.347
L135.835 214.381
L136.058 173.406
L136.133 175.134
L136.207 169.713
L136.282 171.721
L136.505 242.829
L136.654 198.786
L136.802 270.995
L136.877 265.12
L136.951 249.309
L137.1 269.332
L137.323 239.113
L137.472 195.417
L137.621 232.849
L137.695 231.143
L137.918 192.565
L138.142 230.301
L138.216 223.756
L138.365 169.885
L138.588 189.455
L138.811 127.117
L138.886 138.522
L139.183 255.961
L139.258 247.926
L139.481 305.274
L139.704 248.639
L139.853 270.131
L139.927 253.153
L140.15 137.507
L140.225 138.306
L140.671 263.716
L140.746 264.817
L141.043 205.05
L141.266 236.046
L141.341 230.02
L141.564 211.552
L141.638 211.66
L141.713 217.535
L141.862 198.009
L141.936 198.786
L142.01 204.035
L142.085 197.965
L142.234 231.035
L142.308 227.665
L142.457 205.849
L142.606 235.182
L142.68 234.945
L142.978 202.955
L143.052 184.941
L143.126 187.835
L143.201 200.709
L143.275 197.166
L143.424 157.854
L143.573 163.773
L143.722 158.74
L144.242 287.908
L144.317 282.616
L144.391 272.68
L144.54 278.231
L144.763 218.896
L144.838 230.387
L144.912 223.842
L145.061 177.597
L145.135 184.854
L145.284 176.193
L145.433 200.169
L145.582 183.04
L145.879 225.203
L146.177 264.04
L146.4 218.248
L146.623 284.905
L146.698 271.276
L147.07 198.117
L147.218 211.077
L147.367 190.621
L147.442 192.047
L147.59 180.275
L147.665 178.007
L147.739 157.12
L147.814 158.697
L147.888 181.225
L147.962 179.022
L148.037 175.437
L148.186 196.993
L148.26 193.926
L148.483 215.418
L148.558 214.533
L148.781 242.85
L148.855 264.861
L149.078 214.338
L149.153 219.868
L149.302 231.489
L149.45 226.564
L149.599 208.377
L149.748 221.358
L149.822 221.747
L149.897 230.02
L149.971 226.434
L150.12 217.751
L150.269 167.272
L150.343 174.681
L150.938 284.689
L151.31 225.181
L151.385 243.239
L151.459 237.925
L151.608 191.507
L151.682 209.521
L151.757 208.463
L151.831 202.955
L151.906 208.139
L151.98 224.901
L152.054 213.15
L152.203 172.888
L152.426 189.39
L152.501 192.155
L152.575 178.525
L152.65 179.411
L152.798 184.725
L152.947 174.205
L153.245 256.998
L153.394 216.887
L153.468 226.067
L153.691 299.248
L153.989 253.305
L154.138 248.207
L154.658 137.097
L154.733 139.84
L154.882 184.768
L155.03 154.852
L155.254 209.176
L155.328 207.081
L155.402 207.577
L155.551 215.569
L155.7 236.953
L155.923 196.432
L155.998 200.838
L156.295 258.402
L156.37 245.939
L156.444 232.677
L156.518 234.901
L156.593 239.394
L156.816 218.399
L156.965 229.048
L157.039 228.292
L157.411 206.152
L157.486 207.189
L157.56 210.666
L157.709 194.185
L158.081 222.525
L158.527 179.238
L158.974 257.063
L159.048 246.695
L159.271 187.857
L159.346 191.766
L159.569 273.414
L159.792 228.983
L159.866 238.163
L160.015 226.348
L160.164 235.744
L160.61 153.297
L160.685 157.509
L160.759 162.347
L161.057 239.07
L161.131 234.167
L161.206 238.854
L161.28 237.083
L161.578 185.567
L161.652 187.489
L161.875 279.311
L161.95 259.763
L162.024 247.732
L162.173 291.45
L162.396 204.337
L162.47 206.26
L162.768 136.297
L162.842 137.291
L162.991 181.614
L163.214 232.374
L163.289 228.227
L163.363 229.761
L163.586 236.802
L163.958 205.59
L164.033 217.837
L164.107 248.725
L164.182 239.502
L164.256 210.45
L164.33 211.249
L164.405 224.857
L164.479 219.781
L164.702 184.422
L164.926 204.791
L165.074 235.917
L165.223 218.766
L165.298 221.833
L165.446 237.234
L165.67 217.902
L165.744 217.751
L165.893 215.721
L165.967 216.109
L166.042 215.807
L166.116 216.023
L166.19 221.013
L166.265 217.276
L166.339 201.335
L166.488 231.942
L166.562 228.249
L166.786 195.093
L166.86 172.24
L166.934 179.865
L167.083 204.294
L167.381 283.437
L167.604 202.998
L167.678 219.393
L167.753 232.893
L167.827 232.677
L167.976 212.869
L168.199 176.711
L168.348 201.81
L168.422 212.243
L168.497 209.867
L168.646 217.643
L168.72 202.998
L169.018 264.061
L169.241 206.065
L169.39 241.057
L169.613 179.001
L169.687 178.223
L169.762 178.655
L169.836 175.005
L169.91 180.448
L170.059 167.423
L170.134 177.813
L170.282 225.246
L170.357 222.719
L170.431 222.784
L170.654 244.254
L170.803 228.27
L170.878 233.001
L171.25 296.094
L171.398 257.538
L171.622 187.187
L171.919 131.351
L171.994 123.532
L172.068 128.262
L172.514 219.349
L172.663 206.929
L172.886 286.115
L173.035 270.736
L173.258 322.857
L174.002 172.693
L174.226 160.576
L174.3 166.257
L174.523 241.511
L174.746 206.217
L174.821 205.482
L174.97 190.427
L175.118 214.23
L175.267 151.936
L175.342 171.246
L175.49 225.117
L175.639 198.613
L175.714 207.88
L175.862 239.221
L175.937 236.565
L176.086 221.812
L176.234 240.582
L176.309 235.852
L176.458 188.353
L176.532 200.341
L176.681 232.59
L176.83 197.814
L176.904 204.877
L177.276 283.933
L177.425 257.819
L177.648 177.791
L177.722 179.886
L177.946 200.017
L178.02 197.361
L178.243 150.359
L178.392 209.889
L178.466 233.929
L178.615 186.885
L178.69 202.069
L178.838 243.109
L178.987 234.729
L179.062 243.412
L179.136 241.425
L179.21 241.835
L179.434 223.086
L179.508 224.577
L179.657 195.352
L179.806 212.265
L179.954 189.736
L180.178 253.197
L180.252 239.632
L180.326 240.431
L180.475 255.162
L180.624 207.685
L180.698 213.215
L180.847 233.627
L181.07 147.076
L181.294 219.025
L181.517 191.464
L181.591 188.267
L181.666 189.131
L181.814 235.873
L181.889 229.523
L182.038 192.803
L182.41 296.353
L182.484 299.183
L182.558 309.141
L182.707 258.121
L183.005 127.269
L183.079 129.407
L183.228 194.747
L183.302 188.569
L183.526 124.828
L183.749 170.987
L183.972 214.986
L184.344 358.972
L184.418 348.496
L184.939 161.375
L185.014 174.141
L185.088 169.216
L185.237 140.833
L185.534 234.275
L185.906 149.905
L186.055 195.46
L186.353 265.249
L186.576 216.995
L186.725 223.691
L186.874 222.654
L186.948 227.752
L187.022 226.283
L187.097 219.997
L187.171 222.805
L187.246 228.27
L187.32 227.946
L187.692 195.762
L187.766 189.369
L188.064 280.456
L188.213 223.281
L188.436 154.182
L188.734 195.417
L188.808 219.673
L188.882 216.714
L188.957 215.829
L189.254 264.385
L189.329 258.597
L189.478 233.973
L189.552 233.13
L189.626 206.433
L189.701 209.154
L189.85 232.612
L189.924 219.652
L190.073 165.501
L190.37 216.325
L190.445 209.154
L190.519 195.093
L190.594 200.493
L190.668 204.035
L190.891 188.785
L191.189 240.517
L191.412 190.945
L191.561 260.713
L191.635 260.217
L191.858 201.011
L191.933 210.839
L192.007 220.667
L192.082 218.226
L192.305 204.165
L192.528 198.937
L192.602 209.111
L192.751 262.722
L193.049 228.443
L193.123 232.417
L193.198 233.195
L193.495 166.429
L193.57 170.253
L193.942 248.488
L194.016 268.705
L194.239 195.179
L194.314 202.804
L194.388 220.537
L194.611 192.371
L194.834 257.797
L194.909 253.888
L195.132 221.315
L195.281 250.021
L195.355 242.591
L195.504 209.629
L195.578 210.342
L195.653 201.097
L195.727 203.56
L195.802 203.625
L196.099 155.478
L196.248 195.028
L196.471 247.71
L196.62 256.696
L196.694 249.762
L196.769 267.129
L196.843 262.83
L197.215 122.56
L197.29 126.383
L197.81 284.97
L197.885 291.061
L198.108 263.262
L198.406 185.049
L198.629 215.85
L198.778 229.717
L198.852 228.292
L199.001 194.596
L199.075 201.443
L199.15 199.888
L199.373 145.175
L199.522 164.874
L199.745 217.708
L199.968 241.165
L200.042 240.582
L200.34 292.336
L200.414 282.745
L200.638 180.707
L200.861 226.067
L200.935 214.554
L201.158 200.169
L201.233 202.372
L201.605 240.28
L201.679 236.176
L201.828 194.121
L201.902 196.885
L202.126 231.337
L202.274 177.532
L202.349 177.661
L202.721 271.837
L202.795 265.617
L203.242 184.941
L203.39 192.414
L203.539 161.548
L203.688 178.59
L203.986 209.543
L204.209 296.008
L204.283 283.545
L204.581 208.269
L204.655 202.696
L204.73 203.97
L204.878 201.983
L205.027 210.817
L205.102 217.017
L205.176 214.144
L205.399 195.373
L205.474 175.912
L205.548 175.955
L205.697 211.811
L205.92 282.702
L206.069 288.383
L206.218 275.185
L206.59 155.716
L206.962 190.643
L207.036 192.177
L207.259 222.741
L207.408 161.548
L207.482 162.109
L207.706 241.77
L207.78 226.693
L207.854 210.407
L207.929 219.436
L208.152 308.125
L208.226 302.077
L208.598 208.83
L208.822 178.331
L208.97 193.732
L209.119 168.892
L209.342 224.058
L209.491 195.913
L209.64 246.479
L209.714 281.298
L209.789 273.846
L209.938 236.737
L210.086 241.122
L210.235 232.353
L210.31 235.441
L210.607 167.272
L210.756 175.501
L210.83 178.007
L210.979 215.785
L211.202 179.411
L211.277 200.687
L211.351 196
L211.426 181.765
L211.574 211.573
L211.723 262.485
L211.798 256.285
L211.872 238.141
L211.946 244.341
L212.021 250.151
L212.17 209.565
L212.244 175.847
L212.318 179.13
L212.393 192.522
L212.542 173.838
L212.914 254.341
L213.137 161.224
L213.211 176.646
L213.583 318.126
L213.881 241.209
L214.03 252.894
L214.104 234.059
L214.253 146.946
L214.476 205.158
L214.625 165.976
L214.774 183.731
L214.848 178.59
L215.071 240.366
L215.146 238.573
L215.22 233.022
L215.294 234.685
L215.369 237.148
L215.443 229.739
L215.815 141.071
L215.89 143.879
L216.038 168.093
L216.485 307.24
L217.229 158.07
L217.452 235.182
L217.675 286.201
L218.122 208.809
L218.196 187.9
L218.27 195.287
L218.494 237.493
L218.568 240.258
L218.866 204.899
L219.163 126.361
L219.238 122.56
L219.61 193.343
L219.684 191.593
L219.758 190.297
L219.982 223.734
L220.205 268.597
L220.8 172.499
L220.874 176.603
L221.023 236.543
L221.321 331.518
L221.544 296.937
L221.767 228.27
L221.842 229.566
L221.916 236.953
L221.99 235.139
L222.139 205.331
L222.362 151.266
L222.511 141.805
L222.586 128.997
L222.66 131.049
L222.809 187.403
L222.958 132.388
L223.032 138.544
L223.404 254.557
L223.627 274.516
L223.776 268.641
L223.925 253.197
L224.074 257.841
L224.148 253.283
L224.297 265.789
L224.669 167.877
L224.966 152.476
L225.041 136.708
L225.115 140.704
L225.338 216.714
L225.487 242.505
L225.636 232.525
L225.859 282.421
L226.082 255.573
L226.157 239.481
L226.231 240.733
L226.306 241.295
L226.38 236.521
L226.454 239.027
L226.529 237.882
L226.826 180.253
L226.901 184.681
L227.124 126.988
L227.273 168.46
L227.347 154.074
L227.422 162.066
L227.645 217.967
L227.794 249.136
L227.942 231.899
L228.091 251.577
L228.24 238.811
L228.314 241.144
L228.389 236.413
L228.463 223.367
L228.761 268.36
L228.835 265.876
L229.207 217.513
L229.356 252.721
L229.579 209.111
L229.654 218.421
L229.802 196.194
L229.951 156.364
L230.174 200.017
L230.249 197.145
L230.398 191.269
L230.546 166.84
L230.77 189.93
L230.993 182.068
L231.29 278.879
L231.365 259.979
L231.588 220.321
L231.96 245.097
L232.109 215.569
L232.332 152.044
L232.63 219.133
L232.704 224.447
L232.778 219.198
L232.927 175.609
L233.002 178.353
L233.15 225.505
L233.299 271.146
L233.374 263.262
L233.597 316.053
L233.894 235.096
L234.043 220.365
L234.118 229.048
L234.564 129.601
L234.638 151.137
L234.787 202.177
L234.862 188.613
L234.936 192.263
L235.01 200.817
L235.159 154.463
L235.382 213.949
L235.606 277.713
L235.68 279.246
L235.829 328.494
L236.498 125.411
L236.573 138.781
L236.87 197.058
L237.019 280.521
L237.168 260.044
L237.242 268.187
L237.317 275.617
L237.391 273.933
L237.689 195.395
L237.763 208.981
L237.838 210.882
L237.986 190.017
L238.135 209.5
L238.284 155.089
L238.433 169.216
L238.507 160.403
L238.582 168.589
L238.73 200.385
L238.805 199.089
L239.177 237.342
L239.251 266.956
L239.326 266.632
L239.623 224.771
L239.772 232.266
L239.921 204.964
L240.07 217.319
L240.144 217.081
L240.293 224.49
L240.665 184.833
L240.962 244.276
L241.037 236.241
L241.111 234.815
L241.26 250.367
L241.483 220.926
L241.632 208.225
L241.706 209.111
L241.855 200.104
L241.93 201.832
L242.153 265.66
L242.302 203.625
L242.45 159.496
L242.599 186.064
L242.674 185.869
L242.822 180.858
L242.971 204.078
L243.12 235.809
L243.194 233.973
L243.418 267.042
L243.715 180.297
L243.864 146.925
L244.087 224.922
L244.385 309.227
L244.682 160.641
L244.757 171.981
L244.98 193.581
L245.203 265.53
L245.278 257.711
L245.426 266.005
L245.798 198.376
L245.947 203.949
L246.022 205.59
L246.17 225.721
L246.542 102.493
L246.617 108.52
L246.84 150.553
L247.212 274.969
L247.361 250.389
L247.51 268.597
L247.807 237.515
L247.882 244.146
L248.03 261.858
L248.179 248.358
L248.254 236.867
L248.477 165.069
L248.551 174.119
L248.626 171.203
L248.7 169.734
L248.774 163.513
L248.849 164.313
L249.444 317.197
L249.742 279.117
L250.114 161.029
L250.411 68.3006
L250.486 71.6054
L250.709 129.601
L251.006 252.613
L251.155 236.219
L251.378 204.899
L251.825 301.062
L251.974 339.813
L252.048 339.64
L252.122 336.897
L253.015 120.767
L253.09 110.442
L253.164 111.673
L253.462 191.917
L253.61 239.437
L253.759 229.35
L253.908 256.221
L254.057 243.779
L254.503 162.714
L254.652 190.621
L254.726 185.718
L254.801 190.924
L255.098 263.262
L255.173 259.245
L255.247 248.358
L255.396 263.284
L255.47 259.871
L255.545 246.09
L255.694 195.935
L255.842 226.737
L255.991 188.31
L256.14 211.53
L256.214 210.99
L256.363 202.221
L256.586 157.228
L256.661 168.741
L256.884 261.75
L256.958 259.072
L257.033 247.408
L257.256 321.193
L257.33 319.66
L257.702 230.409
L258.074 172.607
L258.149 172.715
L258.223 168.568
L258.446 141.762
L258.521 145.737
L258.67 129.385
L258.893 168.805
L259.265 248.833
L259.339 257.322
L259.414 254.73
L259.637 246.263
L259.711 246.911
L259.86 255.033
L260.009 244.924
L260.083 248.941
L260.158 257.646
L260.232 256.523
L260.306 254.622
L260.53 229.912
L260.753 193.516
L260.827 193.71
L261.05 217.492
L261.125 223.108
L261.348 207.145
L261.497 174.421
L261.571 176.97
L261.72 198.808
L261.794 196.281
L262.018 225.937
L262.166 208.895
L262.315 227.968
L262.39 227.341
L262.464 220.969
L262.613 185.826
L262.836 263.673
L262.91 257.776
L263.282 157.379
L263.357 148.977
L263.654 240.733
L263.729 255.097
L263.803 253.866
L263.878 251.339
L264.026 223.021
L264.101 225.549
L264.25 209.824
L264.324 211.336
L264.398 212.221
L264.473 215.591
L264.547 212.545
L264.622 212.826
L264.696 213.474
L264.919 228.702
L265.068 244.362
L265.217 295.662
L265.291 293.761
L265.366 306.268
L265.44 290.608
L265.738 171.073
L265.812 169.216
L266.035 127.549
L266.11 150.035
L266.184 148.631
L266.258 136.081
L266.407 162.477
L266.705 267.366
L266.779 262.938
L266.928 222.179
L267.002 228.4
L267.151 267.085
L267.226 266.329
L267.3 261.534
L267.672 170.188
L267.746 168.957
L267.895 184.379
L267.97 184.595
L268.342 229.091
L268.416 226.413
L268.49 227.19
L268.565 233.843
L268.639 232.396
L268.788 199.24
L268.937 243.023
L269.011 240.474
L269.309 271.967
L269.458 234.469
L269.532 235.355
L269.83 264.493
L270.053 190.535
L270.127 204.575
L270.202 196.777
L270.499 123.165
L271.02 214.014
L271.243 278.101
L271.318 279.829
L271.615 237.774
L271.69 239.826
L271.764 247.581
L271.838 240.496
L272.136 195.287
L272.21 184.573
L272.285 191.939
L272.359 190.146
L272.434 183.148
L272.508 191.529
L272.731 265.638
L272.954 216.477
L273.103 230.085
L273.252 206.281
L273.401 184.746
L273.55 241.576
L273.624 236.521
L273.922 162.714
L274.145 191.356
L274.294 163.989
L274.517 216.693
L274.74 249.157
L274.814 252.009
L274.963 273.263
L275.186 221.725
L275.261 229.372
L275.335 240.345
L275.558 186.82
L275.782 258.726
L275.856 248.423
L276.079 221.272
L276.228 229.026
L276.377 216.887
L276.451 222.762
L276.526 218.313
L276.674 180.621
L276.749 181.053
L276.898 184.163
L277.121 219.479
L277.195 214.489
L277.344 184.249
L277.567 220.3
L277.716 179.713
L277.79 183.731
L277.939 240.669
L278.014 236.349
L278.088 226.607
L278.162 232.482
L278.311 264.364
L278.758 195.762
L278.832 200.557
L278.981 229.933
L279.278 190.708
L279.353 187.295
L279.725 225.527
L279.799 228.853
L279.874 228.616
L279.948 227.255
L280.246 185.589
L280.32 195.049
L280.394 192.177
L280.469 193.948
L280.692 284.776
L280.766 277.129
L281.362 137.161
L282.031 266.956
L282.106 265.185
L282.18 258.877
L282.254 259.396
L282.329 260.022
L282.478 220.883
L282.626 236.953
L282.701 226.693
L282.775 227.277
L282.85 235.895
L282.924 228.357
L283.147 191.442
L283.296 176.344
L283.445 202.177
L283.519 197.793
L283.742 161.073
L283.817 163.859
L284.04 228.313
L284.189 225.246
L284.338 240.733
L284.412 239.74
L284.486 233.757
L284.561 234.642
L284.71 254.536
L284.858 226.11
L284.933 227.881
L285.007 233.519
L285.082 230.301
L285.156 230.452
L285.305 270.909
L285.379 262.053
L285.602 202.609
L285.677 201.94
L285.826 230.214
L286.049 183.558
L286.123 191.766
L286.198 207.361
L286.495 175.113
L286.57 175.091
L286.718 181.225
L286.793 200.493
L286.867 197.037
L286.942 166.127
L287.016 171.916
L287.314 295.014
L287.462 249.849
L287.76 182.219
L287.834 183.731
L287.983 138.781
L288.058 112.732
L288.132 121.761
L288.802 327.457
L288.876 317.802
L288.95 292.357
L289.099 335.471
L289.471 209.176
L289.769 180.577
L289.992 134.937
L290.066 134.958
L290.29 156.385
L290.364 146.169
L290.587 179.368
L290.736 150.208
L291.108 277.691
L291.257 310.955
L291.406 330.309
L291.703 240.885
L291.852 219.825
L291.926 224.058
L292.001 230.56
L292.15 213.69
L292.224 223.605
L292.298 220.883
L292.447 195.373
L292.522 195.978
L292.596 195.201
L292.67 192.889
L292.894 160.576
L293.042 134.116
L293.117 135.131
L293.712 300.393
L293.861 264.493
L294.158 203.409
L294.382 194.574
L294.456 190.146
L294.605 193.602
L294.828 180.534
L294.902 171.009
L294.977 174.292
L295.2 220.429
L295.274 227.147
L295.423 220.321
L295.646 236.802
L295.721 231.705
L295.87 212.157
L295.944 216.779
L296.242 261.124
L296.316 254.363
L296.688 149.927
L296.911 230.927
L296.986 225.073
L297.06 226.369
L297.432 285.337
L297.581 239.61
L297.878 136.125
L298.027 159.777
L298.325 213.085
L298.399 227.061
L298.548 295.727
L298.622 294.971
L299.069 185.869
L299.143 193.041
L299.218 190.081
L299.366 161.181
L299.59 181.29
L299.738 185.632
L300.036 222.762
L300.259 256.998
L300.334 260.757
L300.482 242.418
L300.706 279.505
L301.375 189.131
L301.524 173.73
L301.598 172.197
L301.747 150.64
L301.97 200.428
L302.045 191.788
L302.119 184.357
L302.342 222.827
L302.417 224.037
L302.491 230.473
L302.566 230.128
L302.714 222.87
L302.863 187.165
L302.938 189.153
L303.384 255.81
L303.458 255.681
L303.756 184.012
L303.905 174.789
L304.128 235.96
L304.574 278.447
L305.095 216.693
L305.17 226.132
L305.244 221.38
L305.542 139.019
L305.616 139.581
L305.69 142.777
L305.914 186.301
L305.988 175.869
L306.062 183.947
L306.286 261.556
L306.36 261.491
L306.583 231.294
L306.732 212.092
L306.955 243.887
L307.178 198.441
L307.253 203.085
L307.327 202.653
L307.402 204.208
L307.55 238.293
L307.774 195.093
L307.922 204.856
L307.997 205.957
L308.294 246.738
L308.443 238.941
L308.592 275.531
L308.815 205.439
L308.89 205.353
L309.113 194.553
L309.262 211.962
L309.41 176.452
L309.708 210.839
L309.782 213.885
L309.931 224.728
L310.154 180.577
L310.303 224.901
L310.378 222.568
L310.526 209.305
L310.898 271.297
L311.047 247.084
L311.196 256.696
L311.494 175.674
L311.568 179.865
L311.642 187.165
L311.717 186.107
L311.866 138.781
L311.94 139.451
L312.312 195.827
L312.758 324.217
L313.279 257.128
L313.502 191.442
L313.651 168.265
L313.8 150.251
L313.874 150.359
L314.023 161.613
L314.246 126.297
L314.321 129.817
L314.618 178.288
L314.916 265.962
L315.139 293.092
L315.288 280.11
L315.437 234.923
L315.511 236.608
L315.586 234.966
L315.734 217.535
L315.958 186.409
L316.255 240.755
L316.553 166.818
L316.627 174.076
L316.702 173.428
L316.776 173.341
L316.85 182.262
L317.297 315.577
L317.52 246.889
L317.594 263.651
L317.669 267.885
L318.041 160.317
L318.338 201.076
L318.413 206.605
L318.71 143.339
L318.785 143.728
L318.859 141.762
L318.934 145.953
L319.008 157.228
L319.38 291.083
L319.603 257.193
L319.752 278.274
L319.901 259.763
L320.198 198.289
L320.273 193.192
L320.496 231.705
L320.57 224.382
L320.645 232.806
L320.719 219.069
L320.868 172.758
L321.091 145.132
L321.166 148.545
L321.389 245.572
L321.463 245.745
L321.538 244.773
L321.612 253.585
L321.686 246.177
L322.058 154.074
L322.43 240.539
L322.505 236.003
L322.654 199.326
L322.728 205.245
L322.802 205.093
L322.877 205.914
L322.951 205.677
L323.1 186.82
L323.323 238.66
L323.398 237.429
L323.621 232.072
L323.695 235.938
L323.844 277.518
L323.918 268.122
L324.067 202.782
L324.216 237.774
L324.29 234.88
L324.439 203.171
L324.514 203.301
L324.588 201.033
L324.662 203.365
L324.811 217.729
L325.034 175.199
L325.258 214.554
L325.406 197.685
L325.481 211.746
L325.555 211.552
L325.704 201.94
L325.853 239.826
L325.927 236.629
L326.15 203.214
L326.225 210.277
L326.522 256.113
L326.597 250.432
L326.969 199.067
L327.266 212.113
L327.415 202.048
L327.49 212.999
L327.564 209.046
L327.713 187.813
L327.862 194.769
L327.936 189.217
L328.308 247.257
L328.382 248.207
L328.531 240.885
L328.754 193.17
L328.903 152.476
L328.978 155.932
L329.052 173.169
L329.126 172.067
L329.201 175.048
L329.498 272.313
L329.573 264.947
L330.019 202.782
L330.466 272.572
L330.763 205.806
L330.838 185.61
L330.912 189.433
L331.061 213.798
L331.21 144.268
L331.284 114.417
L331.656 201.205
L331.73 193.797
L331.879 201.508
L331.954 191.55
L332.028 195.46
L332.177 236.694
L332.251 232.137
L332.326 244.362
L332.549 302.207
L332.623 302.358
L332.698 300.738
L332.772 307.175
L332.846 300.047
L333.293 143.836
L333.59 184.638
L333.739 242.526
L333.888 202.393
L333.962 205.029
L334.037 217.665
L334.111 213.712
L334.186 202.761
L334.26 213.064
L334.409 249.093
L334.558 225.354
L334.632 227.061
L334.706 241.338
L334.781 239.459
L335.004 168.157
L335.078 175.329
L335.227 184.617
L335.45 152.973
L335.525 155.91
L335.748 225.441
L335.971 186.453
L336.343 254.061
L336.418 243.736
L336.492 222.805
L336.566 224.188
L336.864 324.304
L337.31 197.166
L337.682 254.557
L337.831 230.603
L338.129 111.522
L338.203 124.871
L338.724 268.727
L338.798 263.068
L339.468 143.145
L340.063 242.267
L340.286 211.919
L340.435 237.083
L340.807 353.723
L340.882 348.15
L341.105 315.037
L341.402 150.553
L341.626 113.121
L342.146 184.681
L342.295 169.259
L342.37 183.407
L342.518 236.91
L342.593 233.022
L342.816 288.858
L342.89 268.792
L343.114 224.296
L343.188 221.077
L343.634 137.809
L344.155 260.584
L344.23 254.557
L344.378 219.738
L344.602 265.66
L344.676 268.317
L344.825 304.885
L344.974 258.748
L345.494 158.351
L345.718 189.541
L346.015 247.257
L346.462 161.202
L346.536 163.794
L346.685 206.562
L346.759 204.942
L346.908 189.412
L347.057 198.678
L347.28 243.973
L347.503 183.666
L347.578 193.235
L347.726 215.634
L347.801 215.375
L348.247 272.55
L348.322 291.861
L348.396 289.182
L348.545 267.647
L348.619 271.643
L348.694 261.318
L348.842 225.376
L348.917 224.145
L349.214 182.349
L349.289 183.645
L349.438 160.705
L349.586 131.027
L349.884 210.904
L349.958 231.553
L350.033 227.579
L350.182 201.724
L350.256 214.014
L350.33 212.869
L350.479 205.331
L350.628 239.934
L350.702 259.072
L350.777 258.553
L351 234.923
L351.074 234.534
L351.521 179.692
L351.744 225.268
L351.818 219.976
L351.893 221.488
L352.116 313.072
L352.339 216.131
L352.488 242.764
L352.711 192.565
L352.786 194.963
L352.86 197.62
L353.009 154.269
L353.083 156.558
L353.232 197.987
L353.306 192.306
L353.53 171.808
L353.604 177.402
L353.827 271.729
L354.05 234.772
L354.125 240.906
L354.199 238.336
L354.348 220.019
L354.422 218.248
L354.571 223.259
L354.72 234.577
L354.794 226.542
L354.943 186.517
L355.092 258.424
L355.166 251.836
L355.315 230.409
L355.39 234.664
L355.464 229.415
L355.687 191.572
L355.836 232.655
L355.91 228.357
L356.208 132.993
L356.282 138.177
L356.506 178.374
L356.654 133.489
L356.729 144.289
L356.952 272.745
L357.175 318.018
L357.25 311.668
L357.398 306.505
L357.77 195.762
L357.919 231.467
L357.994 223.367
L358.068 201.983
L358.142 210.385
L358.291 245.615
L358.366 243.325
L358.44 246.997
L358.514 243.325
L358.738 181.528
L358.886 143.296
L359.11 188.094
L359.184 180.923
L359.333 164.961
L359.407 166.17
L359.556 190.773
L359.63 189.433
L359.779 148.134
L359.854 155.802
L360.077 259.396
L360.226 244.794
L360.3 247.645
L360.523 285.078
L360.746 237.688
L360.821 233.195
L360.97 255.94
L361.118 281.946
L361.193 276.438
L361.49 185.567
L361.639 219.177
L361.862 175.523
L362.011 195.654
L362.16 155.025
L362.234 165.933
L362.458 247.559
L362.904 158.653
L362.978 160.986
L363.127 194.725
L363.276 233.627
L363.35 227.946
L363.499 206.13
L363.797 283.156
L363.871 281.341
L363.946 274.192
L364.02 274.516
L364.094 274.948
L364.243 279.916
L364.318 270.282
L364.615 141.654
L364.69 138.457
L364.838 123.273
L364.913 128.176
L365.434 238.314
L365.508 235.225
L365.582 241.014
L365.657 263.176
L365.731 263.133
L365.806 250.583
L365.88 256.113
L366.029 281.665
L366.103 276.287
L366.326 212.373
L366.475 184.725
L366.698 196.756
L366.773 197.447
L366.996 175.372
L367.07 178.59
L367.294 209.003
L367.368 206.649
L367.517 177.208
L367.591 167.985
L367.666 176.927
L367.963 240.733
L368.038 229.566
L368.112 229.739
L368.335 317.089
L368.41 309.378
L368.633 257.279
L368.707 259.374
L368.856 271.038
L369.302 124.72
L369.451 111.436
L369.526 113.639
L369.823 206.973
L369.898 206.8
L370.195 179.389
L370.27 181.355
L370.418 214.576
L370.642 271.276
L370.865 294.409
L370.939 291.126
L371.162 243.541
L371.237 245.853
L371.386 269.98
L371.46 258.035
L371.683 160.749
L371.832 184.681
L371.906 181.873
L372.13 155.392
L372.278 171.354
L372.65 265.595
L372.725 262.333
L372.874 240.193
L373.022 273.371
L373.097 269.44
L373.246 238.833
L373.32 243.304
L373.469 270.973
L373.692 203.322
L373.915 162.606
L373.99 161.051
L374.213 115.907
L374.362 160.965
L374.585 220.948
L374.882 251.296
L375.106 192.63
L375.18 192.717
L375.626 265.12
L375.85 231.057
L375.924 234.405
L375.998 250.367
L376.073 246.695
L376.37 160.36
L376.519 174.184
L376.594 163.665
L376.668 164.14
L376.891 253.24
L376.966 252.981
L377.04 239.416
L377.114 240.345
L377.189 236.781
L377.412 198.16
L377.635 262.333
L377.71 254.752
L377.784 233.908
L377.858 237.148
L378.007 254.557
L378.528 169.065
L378.677 183.558
L378.751 183.969
L378.974 189.196
L379.123 234.124
L379.272 269.289
L379.421 222.049
L379.495 227.082
L379.644 250.799
L379.867 210.364
L379.942 209.305
L380.09 196.237
L380.314 207.729
L380.388 208.096
L380.611 183.105
L380.834 222.417
L380.983 196.497
L381.132 251.555
L381.206 268.489
L381.43 219.652
L381.504 213.431
L381.653 188.785
L381.802 194.704
L381.95 225.916
L382.025 250.281
L382.099 248.963
L382.174 238.573
L382.322 265.617
L382.397 264.601
L382.769 186.496
L382.843 188.029
L383.066 215.418
L383.141 213.388
L383.215 210.839
L383.438 178.525
L383.513 184.314
L383.662 202.588
L383.81 189.174
L383.885 202.264
L383.959 198.333
L384.034 182.133
L384.108 185.934
L384.257 253.585
L384.331 251.404
L384.406 245.615
L384.48 247.559
L384.554 251.015
L384.629 248.725
L384.703 253.693
L384.778 249.309
L385.224 166.645
L385.298 179.109
L385.596 241.554
L385.745 227.385
L385.894 255.141
L385.968 274.235
L386.042 271.535
L386.414 161.807
L386.563 156.839
L386.638 159.215
L386.786 184.12
L387.084 238.077
L387.158 241.381
L387.382 201.573
L387.53 237.277
L387.754 280.672
L387.977 252.441
L388.051 253.909
L388.274 290.759
L388.349 287.713
L388.572 211.293
L388.87 88.4318
L388.944 88.0646
L389.614 264.45
L389.688 255.335
L389.762 258.489
L389.911 270.736
L390.209 235.528
L390.506 195.525
L390.581 201.443
L390.804 238.919
L390.878 237.083
L391.325 180.75
L391.474 160.295
L391.548 164.377
L391.697 216.714
L391.846 264.45
L391.994 255.659
L392.069 256.933
L392.143 252.095
L392.292 235.074
L392.441 242.829
L392.813 194.725
L392.887 201.249
L392.962 207.34
L393.036 204.359
L393.185 193.645
L393.259 193.732
L393.482 160.986
L393.706 231.942
L393.78 227.255
L393.854 222.719
L394.078 243.174
L394.226 271.535
L394.301 261.621
L394.598 155.392
L394.673 147.27
L395.268 306.333
L395.342 297.736
L395.64 258.013
L395.789 260.994
L395.863 250.907
L396.161 152.584
L396.31 146.946
L396.458 104.178
L396.905 178.417
L397.128 292.725
L397.202 289.938
L397.426 235.463
L397.5 234.189
L397.723 265.638
L397.946 226.888
L398.021 234.037
L398.244 268.835
L398.393 256.307
L398.765 157.401
L398.914 161.483
L399.062 140.553
L399.137 142.129
L399.286 169.043
L399.583 299.507
L399.881 221.941
L399.955 223.216
L400.104 255.681
L400.178 248.034
L400.476 190.557
L400.625 216.844
L400.699 213.949
L400.848 194.985
L400.997 217.816
L401.071 213.517
L401.294 151.677
L401.443 192.76
L401.592 227.298
L401.666 223.151
L401.815 242.807
L401.964 261.469
L402.113 247.084
L402.187 252.937
L402.262 250.561
L402.559 170.231
L402.708 133.965
L403.006 221.185
L403.303 253.413
L403.378 252.181
L403.452 254.147
L403.526 267.323
L403.601 261.167
L403.824 191.032
L404.122 243.282
L404.196 236.37
L404.419 185.005
L404.494 189.261
L404.642 210.472
L404.791 202.998
L405.014 242.245
L405.238 159.215
L405.461 209.737
L405.535 202.048
L405.61 206.217
L405.758 219.285
L405.982 223.453
L406.13 264.645
L406.577 164.788
L407.023 269.202
L407.098 264.645
L407.246 240.604
L407.544 185.783
L407.618 185.891
L407.842 242.569
L407.916 236.046
L407.99 246.22
L408.139 275.337
L408.362 197.274
L408.437 213.755
L408.511 207.469
L408.734 123.316
L408.809 132.906
L409.032 214.36
L409.106 220.948
L409.255 242.785
L409.478 211.379
L409.627 264.515
L409.702 257.538
L409.999 204.899
L410.074 209.133
L410.148 209.089
L410.222 209.673
L410.297 214.533
L410.371 211.941
L410.52 196.41
L410.743 210.234
L410.892 203.819
L411.041 218.205
L411.19 231.532
L411.264 226.845
L411.338 227.169
L411.562 241.878
L411.71 217.751
L411.785 221.963
L411.859 215.656
L412.082 154.355
L412.306 233.044
L412.38 226.737
L412.529 193.408
L412.678 198.052
L412.901 250.54
L412.975 247.473
L413.05 240.669
L413.124 240.82
L413.198 246.846
L413.273 246.285
L413.422 220.71
L413.496 221.121
L413.57 225.181
L413.645 222.309
L413.794 212.913
L413.868 222.265
L413.942 219.393
L414.091 174.702
L414.166 181.765
L414.314 226.434
L414.463 201.616
L414.686 247.343
L414.835 218.896
L415.058 241.23
L415.282 201.011
L415.356 198.095
L415.579 216.239
L415.728 229.674
L415.802 220.948
L416.026 158.675
L416.1 163.038
L416.323 208.744
L416.546 232.957
L416.621 228.637
L416.695 209.457
L416.77 213.409
L416.993 279.527
L417.216 204.64
L417.439 235.485
L417.514 228.875
L417.811 178.936
L418.034 212.697
L418.109 222.114
L418.183 219.717
L418.481 163.319
L418.555 169.41
L418.927 256.933
L419.002 256.005
L419.15 237.601
L419.299 240.431
L419.448 213.431
L419.671 251.209
L419.969 220.818
L420.043 214.014
L420.266 179.173
L420.49 224.49
L420.564 219.609
L420.713 181.139
L421.234 250.453
L421.606 204.51
L421.68 206.821
L421.754 206.562
L421.903 178.936
L422.052 222.33
L422.201 242.742
L422.275 246.414
L422.498 288.901
L422.573 282.033
L423.019 150.165
L423.168 128.133
L423.466 206.692
L423.689 215.656
L423.838 213.085
L423.986 223.173
L424.135 212.74
L424.284 229.912
L424.433 197.879
L424.507 204.942
L424.954 304.453
L425.177 256.588
L425.326 220.861
L425.549 176.473
L425.623 177.661
L425.698 167.747
L425.846 126.707
L425.921 138.846
L426.218 236.997
L426.293 229.221
L426.367 229.566
L426.442 236.953
L426.516 235.852
L426.665 207.793
L426.814 247.84
L426.888 240.064
L427.111 216.455
L427.186 217.967
L427.483 256.221
L428.004 188.44
L428.227 160.381
L428.302 166.84
L428.674 282.529
L428.748 281.385
L429.418 161.958
L429.492 164.248
L429.715 193.71
L430.013 229.782
L430.236 224.965
L430.459 194.164
L430.608 223.691
L430.682 219.133
L430.906 188.505
L430.98 188.634
L431.129 222.33
L431.426 304.972
L431.501 302.941
L431.65 268.749
L431.873 218.356
L431.947 221.985
L432.096 232.029
L432.319 190.578
L432.691 138.069
L432.766 130.919
L432.84 134.116
L433.063 167.531
L433.138 163.535
L433.286 188.548
L433.435 222.849
L433.658 296.591
L433.807 276.352
L433.956 300.501
L434.105 254.514
L434.179 239.761
L434.254 245.615
L434.402 248.898
L434.626 225.721
L434.7 226.002
L434.774 230.452
L434.923 196.173
L435.072 176.301
L435.221 184.962
L435.37 176.452
L435.444 178.828
L435.518 185.308
L435.667 158.221
L435.816 193.948
L435.965 248.25
L436.188 228.573
L436.262 231.467
L436.337 226.65
L436.56 186.647
L436.634 191.939
L436.783 227.73
L436.858 225.376
L437.006 212.135
L437.155 219.198
L437.304 216.001
L437.453 237.861
L437.527 234.253
L437.676 204.856
L437.899 259.72
L437.974 244.837
L438.048 248.077
L438.197 276.201
L438.494 196.129
L438.718 153.448
L438.792 140.229
L438.866 142.648
L439.09 148.933
L439.685 301.581
L439.908 232.525
L439.982 238.033
L440.131 256.221
L440.28 241.057
L440.354 243.304
L440.503 212.394
L440.578 195.633
L440.652 197.706
L440.726 208.139
L440.801 201.616
L441.024 146.622
L441.098 146.73
L441.173 147.94
L441.322 159.777
L441.396 153.815
L441.842 303.244
L441.917 295.295
L441.991 292.984
L442.066 297.887
L442.14 296.915
L442.586 174.789
L442.661 176.862
L442.735 185.826
L442.81 178.223
L442.958 144.181
L443.256 219.393
L443.479 173.73
L443.554 177.748
L443.851 271.513
L444.074 237.213
L444.149 213.561
L444.223 218.788
L444.298 242.375
L444.372 231.618
L444.521 202.069
L444.818 246.63
L445.265 191.313
L445.339 192.673
L445.488 204.1
L445.562 202.847
L445.786 240.474
L446.083 198.57
L446.158 200.255
L446.232 205.569
L446.455 172.197
L446.53 172.11
L446.604 180.167
L446.753 226.283
L446.827 217.319
L446.902 217.751
L447.05 251.706
L447.199 242.893
L447.422 275.272
L447.646 193.969
L447.794 247.257
L447.869 242.375
L448.166 173.687
L448.315 198.57
L448.39 197.836
L448.538 190.773
L448.613 177.359
L448.687 181.312
L448.985 218.118
L449.059 217.643
L449.282 232.763
L449.506 295.986
L449.803 251.62
L449.878 272.485
L449.878 272.485" style="fill:none;stroke:#808080;stroke-linecap:square;"/>
   </g>
  </g>
 </g>
 <defs>
  <clipPath id="p7ff5b81e1d">
   <rect height="345.6" width="446.4" x="72.0" y="43.2"/>
  </clipPath>
 </defs>
</svg>
