<?xml version="1.0" encoding="utf-8" standalone="no"?>
<!DOCTYPE svg PUBLIC "-//W3C//DTD SVG 1.1//EN"
  "http://www.w3.org/Graphics/SVG/1.1/DTD/svg11.dtd">
<!-- Created with matplotlib (http://matplotlib.org/) -->
<svg height="432pt" version="1.1" viewBox="0 0 576 432" width="576pt" xmlns="http://www.w3.org/2000/svg" xmlns:xlink="http://www.w3.org/1999/xlink">
 <defs>
  <style type="text/css">
*{stroke-linecap:butt;stroke-linejoin:round;}
  </style>
 </defs>
 <g id="figure_1">
  <g id="patch_1">
   <path d="
M0 432
L576 432
L576 0
L0 0
z
" style="fill:#ffffff;"/>
  </g>
  <g id="axes_1">
   <g id="line2d_1">
    <path clip-path="url(#p7ff5b81e1d)" d="
M72 215.258
L72.0744 200.57
L72.0744 200.57
L72.0744 200.57
L72.1488 202.206
L72.4464 230.13
L72.5952 235.268
L73.0416 202.528
L73.116 202.102
L73.2648 212.205
L73.3392 210.708
L73.4136 212.977
L73.488 212.389
L73.5624 212.631
L73.7112 201.906
L73.7856 202.298
L74.0088 215.396
L74.0832 217.216
L74.232 228.414
L74.4552 216.468
L74.5296 219.198
L74.6784 232.423
L74.7528 229.888
L74.976 209.521
L75.1248 214.025
L75.348 196.953
L75.4224 197.943
L75.7944 228.852
L76.1664 219.877
L76.3896 202.171
L76.464 202.413
L76.6128 204.464
L76.7616 196.826
L76.9104 208.058
L77.2824 250.751
L77.5056 234.658
L77.8032 211.353
L77.8776 209.867
L77.952 210.754
L78.2496 226.225
L78.324 224.877
L78.4728 222.596
L78.696 207.194
L78.7704 206.733
L78.8448 204.314
L79.068 189.257
L79.1424 191.239
L79.2912 198.865
L79.3656 195.651
L79.44 197.92
L79.8864 243.804
L80.0352 236.282
L80.1096 240.648
L80.184 238.782
L80.4816 185.064
L80.7048 202.079
L80.928 234.992
L81.2256 248.7
L81.3 248.251
L81.8208 188.727
L81.8952 188.22
L81.9696 188.52
L82.044 188.324
L82.1928 204.613
L82.416 224.843
L82.4904 224.405
L82.7136 227.504
L82.8624 225.73
L82.9368 231.605
L83.0112 230.142
L83.2344 206.676
L83.3088 208.058
L83.3832 211.548
L83.4576 209.21
L83.6064 213.092
L83.6808 210.696
L83.7552 204.683
L83.8296 208.104
L83.9784 231.455
L84.0528 228.471
L84.276 194.798
L84.3504 195.973
L84.648 224.163
L84.8712 232.999
L85.3176 212.7
L85.392 216.122
L85.5408 220.903
L85.6896 212.378
L85.9128 201.054
L86.0616 213.737
L86.2104 220.292
L86.3592 206.952
L86.4336 208.058
L86.5824 220.419
L86.6568 215.488
L86.7312 215.765
L86.88 228.483
L87.0288 216.306
L87.252 201.998
L87.3264 200.028
L87.4008 202.068
L87.624 234.059
L87.7728 261.315
L87.9216 236.685
L88.2192 198.462
L88.2936 196.261
L88.6656 225.303
L88.74 225.073
L88.9632 199.971
L89.1864 225.591
L89.2608 223.979
L89.5584 192.817
L89.6328 196.941
L90.0048 227.665
L90.0792 226.985
L90.4512 212.816
L90.5256 211.986
L90.6 212.908
L90.8976 228.828
L90.972 236.017
L91.0464 235.971
L91.5672 210.443
L91.6416 210.431
L91.716 211.065
L91.8648 207.056
L92.3112 225.995
L92.6832 201.238
L92.7576 204.06
L92.9064 217.481
L92.9808 214.187
L93.1296 199.844
L93.204 201.227
L93.2784 197.01
L93.4272 209.867
L93.6504 226.559
L93.7992 234.462
L93.8736 233.448
L94.1712 213.922
L94.2456 214.025
L94.3944 214.498
L94.692 229.209
L94.7664 228.967
L95.1384 213.035
L95.2128 214.693
L95.2872 213.369
L95.436 194.211
L95.9568 223.691
L96.0312 221.974
L96.2544 213.588
L96.4032 213.899
L96.6264 217.205
L96.7752 222.101
L97.1472 207.424
L97.2216 207.851
L97.296 210.132
L97.7424 244.956
L97.8912 234.3
L98.3376 187.253
L98.412 189.476
L98.4864 188.716
L98.5608 189.879
L98.7096 203.22
L99.0072 228.575
L99.0816 228.057
L99.3048 218.207
L99.3792 219.451
L99.4536 217.873
L99.6024 210.696
L99.8256 231.755
L100.198 201.641
L100.272 201.952
L100.867 245.913
L101.388 198.692
L101.462 196.953
L101.686 181.32
L102.132 206.215
L102.355 234.335
L102.578 238.528
L102.802 224.75
L103.025 234.22
L103.248 226.386
L103.322 227.55
L103.471 246.546
L103.546 243.113
L103.918 196.676
L103.992 196.515
L104.066 199.026
L104.215 191.884
L104.438 203.692
L104.513 201.641
L104.662 191.4
L104.885 206.422
L104.959 206.411
L105.108 213.403
L105.257 204.971
L105.331 206.779
L105.554 253.044
L105.629 252.963
L105.778 248.654
L105.852 245.129
L106.001 227.884
L106.075 228.494
L106.15 226.939
L106.224 228.068
L106.373 216.744
L106.596 201.123
L106.745 203.715
L106.819 202.655
L107.117 176.919
L107.191 179.845
L107.638 218.829
L107.786 227.1
L108.084 249.334
L108.233 232.561
L108.456 201.71
L108.53 201.883
L108.605 202.459
L108.679 205.247
L108.977 226.939
L109.051 227.077
L109.126 225.269
L109.2 226.248
L109.423 244
L110.093 185.202
L110.167 185.801
L110.614 226.294
L110.688 224.105
L110.837 211.007
L110.986 219.025
L111.06 218.99
L111.283 208.035
L111.506 238.609
L111.581 237.434
L111.655 231.259
L111.73 231.432
L111.878 228.598
L112.474 181.562
L112.548 184.177
L112.846 218.368
L112.92 219.486
L113.069 217.631
L113.218 233.356
L113.292 231.57
L113.441 213.219
L113.515 215.477
L113.664 238.563
L113.738 233.989
L113.962 210.949
L114.11 224.555
L114.185 231.086
L114.259 229.289
L114.334 229.554
L114.408 226.939
L114.631 211.433
L114.706 211.214
L115.152 188.255
L115.45 222.539
L115.524 224.9
L115.673 210.373
L115.747 212.217
L115.822 218.679
L115.896 216.099
L116.045 200.155
L116.268 234.83
L116.342 231.962
L116.491 220.58
L116.789 245.291
L116.863 243.781
L116.938 239.427
L117.235 189.211
L117.31 191.504
L117.533 222.4
L117.607 221.294
L117.756 205.961
L117.83 206.203
L117.905 204.325
L118.054 195.996
L118.5 229.497
L118.649 238.425
L119.318 186.896
L119.393 189.154
L119.765 231.351
L119.914 258.101
L120.434 211.399
L120.583 187.84
L120.732 205.731
L120.806 205.627
L120.955 194.787
L121.03 195.996
L121.402 228.241
L121.625 213.887
L121.699 215.108
L121.848 218.587
L122.071 208.254
L122.22 217.17
L122.369 211.341
L122.666 237.422
L122.741 235.833
L123.113 213.069
L123.336 200.95
L123.559 212.862
L123.634 212.85
L123.708 213.541
L123.782 211.237
L123.931 200.558
L124.154 213.518
L124.229 211.525
L124.378 217.251
L124.526 209.175
L124.75 228.103
L124.824 224.059
L125.047 229.911
L125.122 226.64
L125.419 196.02
L125.494 191.365
L125.866 228.517
L126.089 246.062
L126.163 244.023
L126.758 188.451
L127.056 228.713
L127.13 226.455
L127.279 220.592
L127.428 224.739
L127.651 202.69
L127.949 217.435
L128.098 230.153
L128.246 221.617
L128.47 190.939
L128.693 202.828
L128.916 236.524
L128.99 230.015
L129.139 220.707
L129.214 221.778
L129.362 227.757
L129.734 212.136
L129.883 205.57
L130.181 231.132
L130.478 212.585
L130.553 211.226
L130.702 219.036
L130.776 218.023
L130.85 217.712
L130.925 219.636
L130.999 218.933
L131.148 203.991
L131.297 194.407
L131.446 192.656
L131.594 205.892
L131.892 229.865
L132.115 233.218
L132.264 226.859
L132.413 239.323
L132.487 237.722
L132.934 202.747
L133.008 199.268
L133.082 199.798
L133.306 210.489
L133.38 208.922
L133.454 205.731
L133.529 208.496
L133.678 216.329
L133.752 214.981
L133.975 199.648
L134.198 217.769
L134.273 210.304
L134.347 211.618
L134.496 220.165
L134.57 221.64
L134.645 221.375
L134.794 214.325
L135.166 242.411
L135.463 212.24
L135.538 213.737
L135.686 226.778
L136.058 208.576
L136.133 208.818
L136.282 204.809
L136.356 205.581
L136.579 207.92
L136.654 209.509
L136.728 206.848
L136.951 192.103
L137.026 194.257
L137.174 211.779
L137.398 254.299
L137.472 253.055
L137.77 222.999
L137.844 223.817
L137.918 226.617
L137.993 226.375
L138.29 206.848
L138.514 213.576
L138.588 217.285
L138.886 199.372
L138.96 201.411
L139.034 201.561
L139.183 205.224
L139.258 202.021
L139.332 202.793
L139.704 229.128
L140.002 215.281
L140.225 226.294
L140.374 211.191
L140.448 204.51
L140.522 208.357
L140.746 241.984
L141.266 210.489
L141.341 211.906
L141.49 218.633
L141.564 216.974
L141.862 195.386
L142.01 197.609
L142.159 214.498
L142.308 233.125
L142.382 233.413
L142.457 232.008
L142.606 222.585
L142.754 213.115
L142.829 213.76
L143.052 204.141
L143.126 204.775
L143.201 204.314
L143.275 198.738
L143.35 199.452
L143.573 240.809
L143.647 238.125
L143.722 237.192
L143.796 237.399
L144.019 182.956
L144.168 183.52
L144.317 187.875
L144.391 195.259
L144.614 239.208
L144.838 243.067
L145.135 217.481
L145.21 220.361
L145.582 231.755
L145.656 231.317
L145.73 231.432
L145.805 233.621
L145.879 232.388
L146.177 209.763
L146.326 195.72
L146.772 206.917
L146.995 192.552
L147.07 194.649
L147.144 200.916
L147.218 199.499
L147.367 192.771
L147.665 221.755
L147.739 221.34
L147.962 210.996
L148.037 215.753
L148.26 248.781
L148.483 224.336
L148.558 225.407
L148.781 243.747
L148.855 242.134
L149.004 220.327
L149.153 204.867
L149.227 209.682
L149.302 208.991
L149.376 208.357
L149.599 223.575
L149.674 223.022
L150.046 178.279
L150.12 178.555
L150.715 241.27
L150.938 231.409
L151.087 232.895
L151.236 241.247
L151.31 236.766
L151.534 201.365
L151.608 201.549
L151.757 207.067
L151.906 203.196
L152.129 213.207
L152.278 209.774
L152.501 231.04
L152.575 224.543
L152.724 212.021
L152.798 212.32
L153.096 230.499
L153.17 226.962
L153.394 203.081
L153.542 213.795
L153.766 205.431
L153.914 214.44
L153.989 213.622
L154.212 201.192
L154.286 202.862
L154.584 227.4
L154.658 224.854
L154.733 223.333
L154.882 217.481
L155.179 227.815
L155.254 225.718
L155.477 204.441
L155.7 215.5
L155.923 207.044
L156.072 225.799
L156.221 238.574
L156.37 217.297
L156.593 196.849
L156.89 240.821
L156.965 236.052
L157.039 230.868
L157.114 231.789
L157.188 239.68
L157.262 238.667
L157.932 172.496
L158.081 181.631
L158.23 205.984
L158.304 205.892
L158.378 209.129
L158.75 254.092
L158.899 228.886
L159.048 205.143
L159.122 207.701
L159.271 221.133
L159.569 187.045
L159.941 237.814
L160.015 240.475
L160.09 240.037
L160.164 236.731
L160.462 208.761
L160.536 207.321
L160.61 207.77
L160.834 225.465
L161.354 199.568
L161.503 215.742
L161.578 215.465
L161.652 212.044
L161.726 213.887
L161.95 234.715
L162.619 186.147
L162.694 189.28
L162.991 212.896
L163.066 214.164
L163.289 222.539
L163.363 222.066
L163.438 223.967
L163.586 239.531
L163.661 238.874
L163.81 232.284
L163.958 239.991
L164.033 244.277
L164.107 242.56
L164.554 201.077
L164.702 178.417
L165.149 218.242
L165.372 190.709
L165.893 232.503
L165.967 233.897
L166.042 233.252
L166.414 196.342
L166.488 181.147
L167.158 259.863
L167.232 262.928
L167.306 261.902
L167.678 216.721
L168.125 168.878
L168.348 186.135
L168.869 239.531
L168.943 240.348
L169.241 224.658
L169.464 175.756
L169.538 176.735
L169.687 187.679
L170.208 286.06
L170.431 249.173
L170.878 174.016
L170.952 171.747
L171.101 196.146
L171.324 215.557
L171.473 221.018
L171.77 205.708
L171.919 194.764
L171.994 196.78
L172.291 230.372
L172.514 222.838
L172.589 215.719
L172.663 216.491
L172.738 222.838
L172.812 222.827
L173.035 212.654
L173.184 210.27
L173.333 223.518
L173.407 222.746
L173.556 215.615
L173.779 217.735
L174.002 237.008
L174.077 236.34
L174.374 223.38
L174.746 191.193
L174.821 192.103
L174.97 200.478
L175.044 198.554
L175.118 196.78
L175.416 214.751
L175.565 210.12
L175.639 213.138
L175.714 212.401
L175.862 207.09
L176.011 215.868
L176.309 241.742
L176.383 239.911
L176.458 236.996
L176.532 238.978
L176.681 250.025
L176.978 229.428
L177.276 205.869
L177.425 181.032
L177.574 196.158
L177.871 173.544
L178.02 189.948
L178.243 234.773
L178.318 234.335
L178.541 213.012
L178.615 213.104
L179.062 260.785
L179.359 234.658
L179.731 193.98
L179.806 190.697
L180.029 205.316
L180.252 228.448
L180.475 219.071
L180.624 196.584
L180.847 174.408
L180.922 167.842
L180.996 170.019
L181.442 259.426
L181.591 239.749
L181.814 205.305
L181.889 198.612
L181.963 201.572
L182.41 252.295
L182.484 247.802
L183.079 190.133
L183.154 190.225
L183.6 212.77
L183.674 212.885
L183.972 209.256
L184.046 209.406
L184.121 210.166
L184.195 204.395
L184.27 205.155
L184.418 221.928
L184.493 221.26
L184.567 219.474
L184.79 200.293
L184.865 204.302
L184.939 200.927
L185.237 236.063
L185.386 235.925
L185.46 234.07
L185.609 221.997
L185.758 229.151
L185.906 213.461
L186.13 192.391
L186.204 191.227
L186.725 248.009
L186.948 224.704
L187.246 191.826
L187.543 227.239
L187.618 226.421
L187.841 215.58
L187.99 199.337
L188.064 200.098
L188.213 205.95
L188.287 200.8
L188.436 172.645
L188.51 175.56
L189.031 256.43
L189.106 255.474
L189.18 252.018
L189.478 220.684
L189.626 229.98
L189.998 191.135
L190.073 190.663
L190.296 208.864
L190.37 209.913
L190.519 205.42
L190.668 194.556
L190.891 230.741
L190.966 228.08
L191.04 224.002
L191.114 225.338
L191.189 228.368
L191.263 225.73
L191.486 207.851
L191.784 214.187
L191.858 210.984
L191.933 213.058
L192.082 229.75
L192.23 248.251
L192.379 233.563
L192.454 239.012
L192.528 254.979
L192.602 251.166
L192.826 194.061
L192.9 194.038
L192.974 193.739
L193.123 179.028
L193.346 194.004
L193.495 178.279
L194.016 238.54
L194.09 240.233
L194.165 240.141
L194.388 217.919
L194.462 220.615
L194.537 228.31
L194.611 224.958
L194.834 211.134
L194.909 208.38
L195.132 190.548
L195.653 246.178
L195.727 243.194
L195.802 241.339
L195.876 243.332
L195.95 241.017
L196.248 213.507
L196.322 210.281
L196.546 182.99
L197.066 218.161
L197.141 215.58
L197.29 196.1
L197.438 202.332
L197.513 200.939
L197.662 218.979
L197.885 243.482
L198.034 251.65
L198.108 249.265
L198.257 235.095
L198.331 235.568
L198.554 203.749
L198.629 205.8
L198.703 205.132
L198.852 182.656
L199.373 235.245
L199.522 223.149
L199.596 227.227
L199.67 230.372
L200.191 197.886
L200.34 201.515
L200.489 200.028
L200.563 197.079
L200.638 197.218
L200.861 223.875
L200.935 223.299
L201.084 210.143
L201.307 224.405
L201.382 228.852
L201.456 228.817
L201.605 222.631
L201.902 236.236
L201.977 235.74
L202.498 201.664
L202.721 215.177
L202.87 211.157
L202.944 213.265
L203.093 225.234
L203.614 194.199
L203.688 194.649
L203.762 196.354
L203.911 210.039
L203.986 208.127
L204.06 209.809
L204.209 237.733
L204.283 253.262
L204.358 251.431
L204.655 222.423
L204.73 229.243
L204.804 227.031
L205.027 209.429
L205.102 208.277
L205.25 199.003
L205.399 204.602
L205.474 203.012
L205.697 211.237
L205.771 208.807
L205.92 201.031
L205.994 201.687
L206.441 254.737
L206.664 227.63
L206.738 239.3
L206.813 238.701
L207.036 207.678
L207.11 207.897
L207.259 189.822
L207.334 192.494
L207.482 204.671
L207.631 190.64
L207.78 198.623
L207.854 197.92
L208.003 210.304
L208.078 210.719
L208.45 233.966
L208.673 248.136
L208.896 205.339
L208.97 207.482
L209.268 229.831
L209.342 234.393
L209.417 233.724
L209.863 193.508
L210.161 212.148
L210.31 208.484
L210.384 210.926
L210.682 231.282
L211.128 224.601
L211.351 202.171
L211.426 205.823
L211.649 242.088
L211.723 237.492
L212.244 182.587
L212.393 185.202
L212.467 182.069
L212.542 185.513
L212.914 237.284
L212.988 234.969
L213.137 219.774
L213.286 226.985
L213.36 231.835
L213.434 231.674
L213.658 222.527
L213.806 230.533
L213.881 228.506
L214.03 205.489
L214.104 206.975
L214.327 237.342
L214.402 235.372
L214.476 234.416
L214.55 242.157
L214.625 240.913
L215.146 178.509
L215.369 193.358
L215.443 194.752
L216.113 240.36
L216.485 215.454
L216.559 210.892
L216.634 211.007
L216.708 213.115
L216.857 207.874
L216.931 209.625
L217.08 214.578
L217.154 213.461
L217.303 214.716
L217.526 239.554
L217.601 235.936
L217.824 212.182
L218.047 186.458
L218.196 201.48
L218.419 224.37
L218.494 224.186
L218.568 224.485
L218.642 227.331
L218.717 225.96
L218.866 222.861
L219.014 214.129
L219.163 225.476
L219.238 225.292
L219.461 212.597
L219.61 217.389
L219.758 208.588
L219.833 208.703
L219.907 208.069
L220.056 204.222
L220.205 209.429
L220.354 208.046
L220.502 214.394
L220.577 212.436
L220.651 210.304
L221.172 251.373
L221.321 231.513
L221.618 184.062
L221.693 180.802
L221.99 201.791
L222.437 241.028
L222.511 241.57
L223.032 205.12
L223.553 241.57
L223.627 238.782
L223.776 212.885
L224.074 170.192
L224.148 168.095
L224.371 196.515
L224.669 238.102
L224.743 233.333
L224.818 229.428
L224.892 232.296
L224.966 231.029
L225.115 216.272
L225.19 219.659
L225.264 223.126
L225.338 220.776
L225.413 209.855
L225.487 210.696
L225.71 234.185
L225.785 233.955
L226.008 241.754
L226.157 233.932
L226.826 184.868
L226.901 185.467
L226.975 185.387
L227.124 184.188
L227.347 209.832
L227.645 241.984
L227.719 240.59
L227.868 226.916
L228.017 233.056
L228.463 190.732
L228.538 194.165
L228.835 226.306
L228.91 222.446
L228.984 225.925
L229.058 236.489
L229.133 233.874
L229.282 220.983
L229.356 220.926
L229.579 207.217
L229.728 214.394
L229.802 214.371
L229.951 220.569
L230.174 203.554
L230.249 206.549
L230.398 231.179
L230.472 227.365
L230.621 218.057
L230.77 211.767
L230.844 211.86
L230.918 215.062
L230.993 211.18
L231.142 195.95
L231.216 201.941
L231.29 199.729
L231.365 198.577
L231.514 221.087
L231.662 215.546
L231.811 228.575
L231.886 226.064
L231.96 220.914
L232.034 223.126
L232.183 221.202
L232.258 222.539
L232.332 230.925
L232.406 227.792
L232.63 211.721
L232.704 210.166
L232.927 218.092
L233.002 216.387
L233.076 221.94
L233.15 220.442
L233.299 210.42
L233.448 216.018
L233.82 206.422
L233.894 205.466
L233.969 207.113
L234.192 221.893
L234.266 219.636
L234.341 219.52
L234.564 239.45
L234.638 237.468
L235.085 202.943
L235.234 201.814
L235.457 215.972
L235.68 239.508
L236.052 201.561
L236.126 204.901
L236.275 200.708
L236.424 208.369
L236.647 228.644
L236.722 229.462
L236.87 236.305
L236.945 235.441
L237.094 205.604
L237.168 205.846
L237.317 217.078
L237.466 194.764
L237.689 213.795
L237.763 212.516
L237.838 212.562
L237.986 227.584
L238.21 187.817
L238.284 191.826
L238.805 246.35
L238.879 244.173
L239.251 207.344
L239.4 212.32
L239.474 208.968
L239.549 211.963
L239.698 223.714
L239.846 213.564
L240.07 229.669
L240.218 219.244
L240.293 220.684
L240.367 217.7
L240.59 191.884
L240.814 205.385
L240.888 205.719
L241.037 217.251
L241.26 200.593
L241.483 211.94
L241.632 222.573
L241.855 238.321
L242.227 229.658
L242.45 210.408
L242.525 214.636
L242.748 242.629
L243.566 163.648
L243.641 166.482
L243.938 210.869
L244.385 263.342
L244.682 243.862
L244.98 203.565
L245.203 178.475
L245.278 179.189
L245.65 242.18
L245.724 246.489
L246.096 203.277
L246.245 206.33
L246.319 206.03
L246.394 204.544
L246.468 205.097
L246.617 226.179
L246.766 240.567
L247.138 212.827
L247.212 207.735
L247.286 208.288
L247.51 210.8
L247.733 188.681
L247.807 193.197
L248.402 248.885
L248.7 207.47
L248.998 200.535
L249.146 206.964
L249.221 206.652
L249.37 214.532
L249.518 210.88
L249.667 213.173
L249.89 199.752
L250.114 218.057
L250.188 214.106
L250.262 211.813
L250.411 224.059
L250.486 220.523
L250.56 216.767
L250.783 226.11
L251.155 200.132
L251.23 200.869
L251.527 235.51
L251.75 243.113
L251.974 267.351
L252.048 258.631
L252.271 205.8
L252.42 200.328
L252.569 179.834
L252.643 181.262
L252.718 182.184
L252.792 185.087
L252.941 208.53
L253.09 226.375
L253.238 222.308
L253.536 191.953
L253.834 206.871
L254.057 234.496
L254.131 235.74
L254.206 239.15
L254.28 237.468
L254.503 249.035
L254.578 248.101
L254.726 229.727
L254.95 182.334
L255.247 198.231
L255.545 240.613
L255.694 247.94
L255.991 187.092
L256.066 183.854
L256.214 173.256
L256.81 251.108
L256.884 249.634
L256.958 251.12
L257.107 228.091
L257.256 215.097
L257.479 228.137
L257.702 238.01
L257.777 233.195
L257.851 234.635
L257.926 242.687
L258 241.904
L258.298 186.596
L258.372 184.741
L258.521 173.832
L258.67 182.311
L258.818 172.162
L258.967 193.773
L259.339 245.97
L259.488 239.715
L259.711 256.235
L259.934 243.182
L260.083 220.799
L260.306 183.716
L260.753 225.649
L260.827 223.794
L261.199 191.331
L261.274 199.084
L261.348 200.674
L261.497 193.14
L261.72 227.135
L261.869 236.144
L261.943 243.793
L262.092 226.317
L262.166 228.759
L262.315 242.756
L262.39 237.883
L262.538 216.168
L262.613 214.509
L262.91 198.784
L263.431 235.902
L263.654 222.331
L263.729 225.81
L263.803 220.534
L264.026 185.64
L264.25 199.913
L264.324 199.383
L264.398 194.902
L264.77 210.984
L264.994 225.453
L265.068 221.191
L265.142 221.49
L265.291 224.151
L265.514 211.076
L265.663 225.868
L265.961 259.092
L266.035 257.11
L266.258 230.706
L266.482 207.321
L266.556 207.309
L266.779 185.375
L266.854 187.092
L267.151 202.69
L267.226 210.27
L267.3 209.256
L267.449 189.534
L267.598 194.349
L267.672 192.183
L267.746 192.425
L267.821 196.296
L268.267 259.034
L268.342 263.054
L268.49 252.306
L268.937 197.632
L269.086 216.663
L269.309 240.89
L269.383 238.436
L269.755 201.18
L269.83 201.676
L269.904 206.756
L270.053 186.216
L270.127 189.764
L270.276 202.563
L270.648 194.902
L270.722 193.543
L270.797 195.305
L270.946 203.461
L271.02 198.923
L271.094 200.869
L271.392 242.825
L271.541 250.601
L271.615 250.002
L271.913 222.665
L272.062 231.559
L272.21 246.166
L272.285 243.874
L272.731 185.87
L272.88 188.808
L272.954 180.433
L273.029 182.368
L273.475 229.773
L273.698 207.655
L273.773 210.65
L273.847 212.447
L273.922 209.751
L274.07 223.126
L274.294 235.717
L274.368 236.316
L274.442 232.953
L274.666 245.175
L274.74 243.701
L274.814 247.744
L274.889 245.844
L275.261 181.332
L275.335 175.952
L275.633 202.137
L275.93 228.471
L276.005 232.503
L276.228 203.657
L276.302 204.809
L276.526 194.476
L276.6 195.847
L276.674 204.648
L276.972 270.761
L277.121 282.132
L277.716 148.154
L277.79 153.257
L278.237 238.793
L278.311 237.492
L278.386 231.075
L278.609 240.671
L278.906 226.801
L278.981 226.847
L279.055 232.031
L279.278 268.296
L279.427 262.916
L279.502 264.437
L279.799 219.636
L280.171 158.487
L280.246 158.004
L280.618 191.838
L280.841 201.031
L280.915 201.399
L281.138 216.859
L281.362 230.821
L281.436 229.474
L281.659 215.339
L281.734 214.532
L281.808 210.949
L281.882 211.502
L282.329 245.498
L282.403 241.466
L282.478 239.634
L282.552 242.215
L282.626 239.657
L282.85 218.818
L283.073 235.234
L283.147 233.252
L283.296 224.877
L283.37 224.935
L283.445 222.919
L283.966 169.881
L284.189 193.232
L284.486 257.479
L284.561 251.5
L284.858 216.41
L284.933 209.602
L285.007 211.007
L285.082 213.012
L285.23 209.786
L285.305 209.59
L285.454 205.328
L285.602 211.03
L285.826 202.989
L285.9 210.708
L285.974 208.139
L286.123 191.769
L286.718 229.312
L286.793 227.342
L286.867 228.114
L287.016 235.452
L287.09 233.701
L287.239 240.752
L287.537 211.445
L287.611 216.986
L287.76 226.582
L287.983 197.54
L288.132 179.373
L288.43 208.599
L288.578 226.283
L288.727 237.872
L288.876 216.514
L288.95 223.264
L289.025 221.686
L289.174 200.72
L289.248 201.803
L289.322 205.27
L289.471 202.851
L289.769 209.049
L289.918 249.438
L290.141 302.752
L290.364 258.285
L290.587 186.804
L290.662 185.905
L290.736 179.811
L290.885 148.845
L290.959 150.711
L291.034 146.679
L291.182 128.846
L291.331 147.14
L291.406 141.841
L291.554 170.929
L292.001 267.996
L292.075 261.66
L292.15 265.059
L292.373 308.72
L292.522 312.279
L292.596 310.137
L292.67 312.959
L292.745 309.676
L292.894 277.581
L293.266 177.783
L293.414 193.14
L293.712 163.176
L293.786 165.48
L293.861 164.777
L294.084 155.711
L294.158 154.801
L294.382 174.615
L294.456 172.853
L294.53 173.797
L294.679 188.912
L295.126 240.395
L295.274 238.54
L295.349 242.007
L295.423 240.498
L295.498 239.035
L295.572 240.245
L295.721 248.827
L295.944 273.111
L296.093 253.942
L296.465 209.613
L296.539 210.247
L296.762 218.357
L296.837 217.447
L297.209 187.414
L297.283 186.757
L297.358 188.485
L297.73 215.465
L297.953 184.788
L298.102 197.851
L298.474 262.801
L298.771 227.527
L299.069 258.562
L299.143 261.845
L299.292 248.793
L299.664 166.148
L299.813 143.707
L299.887 144.963
L300.036 182.818
L300.259 229.612
L300.408 238.229
L300.482 231.824
L300.706 191.642
L300.854 198.231
L300.929 195.121
L301.003 196.388
L301.524 286.302
L301.673 269.598
L301.896 210.823
L302.194 127.844
L302.342 145.85
L302.714 255.359
L302.789 258.573
L303.086 198.312
L303.161 199.499
L303.83 267.04
L304.054 245.844
L304.5 174.166
L304.649 165.676
L304.723 155.976
L304.798 158.752
L305.318 229.612
L305.765 176.804
L305.839 177.76
L306.806 306.289
L306.955 283.733
L307.402 149.064
L307.476 143.822
L307.699 178.267
L307.997 249.415
L308.071 246.892
L308.146 246.949
L308.294 255.9
L308.964 156.69
L309.113 165.733
L309.708 238.505
L309.782 242.837
L310.006 270.231
L310.08 270.001
L310.154 275.588
L310.229 272.109
L310.526 234.3
L310.898 199.856
L311.196 177.438
L311.27 175.042
L311.642 150.734
L311.717 155.458
L312.014 207.056
L312.089 205.581
L312.163 208.496
L312.907 273.342
L313.13 258.757
L313.205 261.545
L313.354 246.754
L313.726 192.944
L314.023 221.813
L314.098 221.168
L314.172 217.666
L314.395 180.698
L314.544 160.63
L314.618 164.386
L314.842 200.708
L314.99 197.413
L315.437 252.709
L315.511 248.194
L315.883 197.091
L316.032 204.141
L316.106 208.98
L316.404 177.829
L316.478 179.212
L316.627 196.964
L316.999 265.416
L317.074 275.531
L317.148 275.208
L317.52 231.202
L317.594 236.363
L317.669 235.118
L317.743 231.409
L318.041 199.176
L318.413 234.957
L318.562 210.258
L318.859 145.17
L318.934 147.762
L319.678 254.76
L320.198 223.045
L320.422 200.962
L320.794 233.598
L321.091 269.563
L321.389 225.626
L321.686 182.772
L321.91 175.157
L321.984 174.777
L322.058 180.836
L322.505 277.189
L322.579 262.26
L322.951 79.9209
L323.026 81.695
L323.174 122.729
L323.695 298.801
L323.918 318.857
L324.067 324.652
L324.142 322.601
L324.29 301.658
L324.96 149.076
L325.109 140.724
L325.183 141.138
L325.406 148.35
L325.481 147.497
L325.555 147.866
L325.704 149.652
L325.853 166.39
L326.522 287.062
L326.597 286.221
L326.671 287.258
L326.746 286.025
L326.82 279.378
L327.043 245.21
L327.192 233.287
L327.266 233.506
L327.415 237.618
L327.564 230.994
L327.638 230.902
L328.159 170.468
L328.234 178.716
L328.382 185.052
L328.531 180.882
L328.606 183.612
L329.052 237.227
L329.126 235.717
L329.35 219.877
L329.647 227.953
L329.796 229.381
L329.87 226.663
L330.168 178.187
L330.391 213.991
L330.614 262.444
L331.135 169.431
L331.284 165.065
L331.358 164.72
L331.73 224.278
L332.028 276.994
L332.102 277.846
L332.326 226.571
L332.4 235.406
L332.623 299.227
L332.698 299.481
L332.846 265.969
L333.144 190.801
L333.367 157.577
L333.665 184.753
L333.739 183.486
L333.888 172.841
L334.037 203.772
L334.111 218.311
L334.186 218.184
L334.483 186.78
L334.632 187.011
L334.781 172.622
L334.855 162.024
L334.93 165.987
L335.153 195.651
L335.302 216.26
L335.674 306.865
L335.748 311.772
L335.897 286.048
L336.194 227.262
L336.492 192.748
L336.566 192.967
L336.79 213.219
L336.864 210.638
L336.938 206.56
L337.013 207.632
L337.236 220.223
L337.385 241.051
L337.534 219.29
L337.831 168.348
L337.906 164.766
L337.98 165.192
L338.129 182.357
L338.278 203.208
L338.352 200.904
L338.426 193.439
L338.575 208.139
L338.798 223.679
L339.022 231.132
L339.17 241.662
L339.394 248.366
L339.617 261.465
L339.691 260.37
L340.138 218.91
L340.212 217.182
L340.361 221.813
L340.956 170.779
L341.03 166.217
L341.179 177.68
L341.328 189.131
L341.402 188.969
L341.477 186.516
L341.998 251.258
L342.072 250.187
L342.295 215.004
L342.37 215.131
L342.593 237.503
L342.816 224.854
L342.965 203.565
L343.039 204.233
L343.709 237.906
L343.783 233.667
L343.932 216.053
L344.155 225.822
L344.304 221.122
L344.453 240.153
L344.602 218.449
L344.676 219.693
L344.75 217.965
L344.899 193.428
L344.974 193.485
L345.048 199.061
L345.271 162.001
L345.346 167.127
L345.643 217.792
L345.718 234.75
L345.792 232.78
L345.941 216.444
L346.09 222.147
L346.164 219.232
L346.387 198.473
L346.982 254.034
L347.057 251.753
L347.206 240.314
L347.28 241.639
L347.503 225.948
L347.578 227.4
L347.95 220.281
L348.173 191.239
L348.322 189.591
L348.47 208.3
L348.619 228.725
L348.768 214.866
L348.917 233.252
L348.991 228.748
L349.14 204.095
L349.289 209.705
L349.512 196.261
L349.586 199.717
L349.661 198.588
L349.81 183.013
L350.033 215.246
L350.182 220.108
L350.479 198.093
L350.702 224.359
L350.851 252.813
L350.926 251.028
L351 248.24
L351.149 251.799
L351.372 237.503
L351.446 239.208
L351.595 237.111
L351.67 238.425
L351.744 236.869
L351.967 185.214
L352.116 163.487
L352.19 164.616
L352.86 226.421
L353.083 204.567
L353.158 206.169
L353.381 221.859
L353.455 219.601
L353.678 187.875
L353.753 178.613
L353.827 186.043
L354.497 335.803
L355.018 246.926
L355.687 58.4592
L355.836 92.639
L356.134 207.378
L356.357 235.925
L356.654 307.66
L356.729 307.257
L356.952 291.198
L357.026 291.532
L357.398 246.857
L357.473 255.843
L357.622 276.602
L357.77 242.975
L358.142 110.783
L358.217 115.932
L358.366 153.557
L358.589 216.145
L358.738 221.294
L358.812 219.348
L358.961 210.696
L359.11 221.502
L359.333 232.365
L359.482 209.371
L359.705 169.12
L359.928 223.714
L360.151 267.628
L360.3 269.736
L360.449 246.212
L360.672 218.714
L360.821 204.636
L360.97 195.006
L361.044 196.814
L361.193 184.603
L361.342 166.021
L361.565 211.56
L361.639 205.973
L361.862 255.808
L361.937 251.281
L362.309 208.058
L362.383 212.977
L362.606 260.808
L362.681 260.37
L362.755 247.86
L362.83 250.958
L362.904 248.793
L363.053 208.104
L363.127 214.152
L363.202 227.688
L363.276 227.181
L363.499 181.608
L363.574 184.281
L363.722 170.572
L363.797 172.035
L364.094 193.75
L364.243 218.956
L364.466 211.157
L364.615 222.193
L364.838 201.653
L364.913 204.878
L364.987 205.685
L365.136 198.658
L365.21 198.761
L365.285 199.648
L365.434 219.382
L365.806 295.679
L365.88 294.585
L365.954 292.119
L366.029 294.262
L366.103 287.707
L366.55 187.495
L366.922 149.559
L366.996 154.041
L367.219 173.026
L367.294 169.524
L367.368 173.198
L367.814 235.533
L368.038 222.953
L368.112 224.197
L368.186 228.022
L368.261 224.336
L368.335 224.555
L368.558 248.931
L368.633 243.044
L368.782 235.867
L368.93 243.298
L369.154 213.023
L369.451 228.333
L369.526 233.333
L369.674 218.748
L369.823 186.262
L369.898 187.333
L370.121 207.758
L370.27 219.106
L370.567 183.762
L370.716 201.549
L371.014 250.198
L371.088 241.5
L371.311 201.192
L371.386 204.406
L371.758 238.459
L371.832 237.826
L372.278 200.167
L372.353 201.918
L372.502 192.759
L372.576 197.39
L372.799 248.274
L372.874 242.18
L373.022 212.217
L373.246 240.59
L373.32 239.081
L373.543 227.469
L373.915 191.826
L374.064 185.836
L374.213 177.242
L374.436 209.717
L374.659 255.06
L374.882 207.056
L375.254 252.698
L375.329 248.724
L375.924 175.341
L375.998 175.41
L376.147 194.361
L376.37 228.955
L376.594 206.71
L376.742 195.674
L377.04 240.314
L377.114 238.597
L377.263 235.153
L377.338 236.167
L377.412 239.047
L377.561 255.209
L377.71 244.761
L377.858 219.06
L378.156 156.068
L378.23 162.151
L378.602 225.038
L378.751 230.268
L378.9 226.133
L379.049 228.84
L379.272 244.68
L379.421 242.468
L379.57 202.321
L379.793 146.921
L379.942 191.941
L380.09 229.186
L380.239 235.153
L380.314 233.31
L380.611 210.915
L380.686 214.866
L380.983 236.293
L381.206 206.549
L381.281 210.996
L381.355 209.59
L381.504 211.583
L381.578 210.385
L381.95 245.924
L382.025 241.927
L382.546 174.638
L382.62 175.479
L382.694 178.843
L382.843 204.544
L382.992 220.949
L383.066 215.223
L383.513 239.381
L383.662 249.069
L383.736 244.945
L384.034 197.736
L384.108 206.065
L384.182 225.637
L384.257 224.439
L384.48 208.645
L384.629 204.199
L384.778 224.474
L384.852 217.067
L384.926 201.607
L385.001 204.74
L385.15 216.433
L385.298 212.516
L385.447 214.371
L385.596 211.79
L385.819 246.5
L385.894 246.085
L386.042 237.019
L386.563 174.915
L386.638 179.845
L386.935 210.42
L387.01 219.198
L387.084 218.092
L387.382 197.598
L387.679 235.372
L387.754 234.139
L387.828 235.153
L387.977 242.33
L388.051 236.305
L388.2 242.134
L388.944 196.526
L389.167 205.547
L389.242 202.736
L389.39 210.604
L389.539 222.769
L389.614 221.387
L389.762 207.056
L389.911 233.828
L389.986 231.374
L390.432 190.847
L390.506 191.204
L390.581 193.669
L390.878 222.827
L390.953 222.884
L391.25 253.769
L391.325 252.905
L391.92 186.112
L391.994 198.969
L392.069 198.911
L392.143 191.803
L392.218 193.439
L392.366 204.878
L392.59 171.816
L392.738 185.317
L393.259 261.027
L393.334 254.725
L393.482 246.339
L393.706 227.031
L393.78 224.647
L393.929 206.053
L394.078 217.735
L394.152 217.55
L394.45 202.897
L394.524 206.388
L394.673 222.999
L394.747 222.596
L394.896 217.954
L395.045 225.591
L395.119 216.41
L395.194 217.838
L395.268 224.612
L395.342 222.101
L395.417 218.76
L395.491 220.88
L395.64 245.613
L395.789 215.362
L396.161 125.563
L396.31 157.969
L396.979 278.699
L397.054 289.838
L397.128 286.117
L397.5 214.06
L397.946 241.443
L398.095 229.024
L398.318 181.262
L398.467 162.243
L398.765 191.78
L398.839 189.925
L398.914 187.356
L399.062 193.186
L399.137 189.73
L399.211 192.333
L399.658 234.266
L399.732 231.755
L400.104 272.374
L400.178 271.856
L400.55 207.263
L400.699 205.063
L400.848 207.851
L400.922 203.749
L401.22 149.248
L401.294 153.43
L401.443 181.539
L401.592 215.673
L401.666 215.523
L401.741 215.442
L401.964 235.291
L402.187 286.947
L402.336 278.307
L402.485 284.562
L402.708 264.702
L403.08 186.792
L403.154 181.193
L403.303 186.861
L403.675 163.579
L403.75 162.9
L404.122 186.631
L404.494 216.594
L404.568 218.541
L404.642 216.168
L404.791 199.222
L404.94 207.459
L405.535 286.82
L406.056 234.554
L406.205 220.523
L406.502 190.11
L406.577 185.479
L406.8 196.066
L407.023 186.17
L407.172 190.052
L407.321 194.683
L407.47 205.662
L407.544 203.346
L407.618 206.56
L407.842 243.47
L407.99 257.294
L408.288 238.171
L408.734 196.469
L408.809 197.068
L408.883 197.851
L409.032 191.388
L409.255 206.917
L409.553 181.838
L409.627 182.253
L409.702 185.122
L410.222 259.633
L410.371 258.516
L410.446 264.748
L410.594 232.296
L410.818 195.04
L410.966 187.806
L411.19 211.698
L411.264 214.958
L411.413 248.355
L411.487 246.489
L411.562 244
L411.71 256.142
L412.082 199.188
L412.306 157.692
L412.454 147.371
L412.975 230.315
L413.05 231.536
L413.198 222.562
L413.645 286.071
L413.942 205.754
L414.091 161.552
L414.166 163.879
L414.24 170.652
L414.463 153.741
L414.538 155.803
L414.612 165.157
L415.133 301.819
L415.282 312.717
L415.505 288.997
L416.249 128.052
L416.323 125.759
L416.77 178.14
L417.216 195.006
L417.365 217.216
L417.588 248.493
L417.662 249.369
L417.96 282.892
L418.034 276.245
L418.109 273.342
L418.183 279.113
L418.258 275.196
L418.853 147.647
L419.225 205.892
L419.448 222.423
L419.671 244.242
L419.82 260.082
L419.894 259.875
L420.043 244.668
L420.266 212.044
L420.341 213.611
L420.49 228.898
L420.564 228.322
L420.713 223.31
L420.787 223.23
L421.234 208.104
L421.457 222.228
L421.531 220.43
L421.68 208.162
L421.978 174.189
L422.126 185.214
L422.573 248.539
L422.647 243.793
L423.094 181.481
L423.168 186.32
L423.391 225.891
L423.54 211.917
L423.614 213.334
L423.763 222.665
L423.838 221.686
L424.061 200.628
L424.135 202.206
L424.433 240.59
L424.507 239.254
L424.582 238.459
L424.656 238.932
L424.805 243.136
L425.028 233.045
L425.251 208.012
L425.549 226.098
L425.772 209.832
L425.995 225.338
L426.07 222.907
L426.144 225.684
L426.218 225.338
L426.367 192.621
L426.516 168.291
L426.59 168.763
L426.739 167.876
L426.888 178.705
L427.111 208.945
L427.334 189.914
L427.409 195.789
L427.855 277.835
L427.93 280.853
L428.004 278.192
L428.525 192.356
L428.748 222.873
L429.269 182.115
L429.343 184.027
L429.418 180.491
L429.492 185.732
L429.641 208.588
L429.864 190.202
L429.938 193.266
L430.236 260.946
L430.31 258.804
L430.385 259.564
L430.459 259.184
L430.682 233.759
L430.906 198.381
L431.278 210.742
L431.426 202.206
L431.501 204.625
L431.575 212.09
L431.798 185.099
L431.873 185.628
L432.17 217.366
L432.245 215.062
L432.319 213.68
L432.468 235.349
L432.617 218.507
L432.691 221.778
L432.766 223.506
L432.989 196.181
L433.138 212.539
L433.435 248.574
L433.733 259.08
L433.807 266.315
L433.882 264.598
L434.105 234.588
L435.146 130.701
L435.221 131.542
L435.37 152.105
L435.593 227.723
L435.89 307.706
L436.039 319.813
L436.114 315.263
L436.337 269.586
L436.709 174.362
L437.006 151.794
L437.081 148.96
L437.155 150.896
L437.378 177.253
L437.75 210.915
L437.974 235.015
L438.197 265.082
L438.42 292.811
L439.462 162.853
L439.536 164.789
L440.057 219.762
L440.206 192.863
L440.28 178.705
L440.354 181.124
L440.875 246.016
L440.95 249.196
L441.024 244.899
L441.247 217.977
L441.396 230.268
L441.47 229.704
L441.545 230.487
L441.619 232.711
L441.694 232.665
L441.768 232.814
L441.842 231.616
L442.14 210.811
L442.438 176.62
L442.586 202.229
L442.81 228.921
L442.884 229.727
L443.033 242.848
L443.107 243.793
L443.33 207.609
L443.628 169.823
L443.777 189.2
L444 220.419
L444.149 222.596
L444.298 207.24
L444.372 209.774
L444.744 253.251
L444.818 251.696
L445.042 237.077
L445.19 249.76
L445.265 247.076
L445.488 219.359
L445.637 243.655
L446.232 168.994
L446.306 171.367
L446.381 167.15
L446.455 168.418
L446.976 226.19
L447.348 267.409
L447.422 269.989
L447.497 268.112
L447.646 273.86
L447.943 193.358
L448.092 196.503
L448.166 195.605
L448.315 178.475
L448.464 152.013
L448.538 154.49
L449.059 221.686
L449.506 300.564
L449.654 292.523
L449.878 245.774
L449.878 245.774" style="fill:none;stroke:#808080;stroke-linecap:square;"/>
   </g>
  </g>
 </g>
 <defs>
  <clipPath id="p7ff5b81e1d">
   <rect height="345.6" width="446.4" x="72.0" y="43.2"/>
  </clipPath>
 </defs>
</svg>
