<?xml version="1.0" encoding="utf-8" standalone="no"?>
<!DOCTYPE svg PUBLIC "-//W3C//DTD SVG 1.1//EN"
  "http://www.w3.org/Graphics/SVG/1.1/DTD/svg11.dtd">
<!-- Created with matplotlib (http://matplotlib.org/) -->
<svg height="432pt" version="1.1" viewBox="0 0 576 432" width="576pt" xmlns="http://www.w3.org/2000/svg" xmlns:xlink="http://www.w3.org/1999/xlink">
 <defs>
  <style type="text/css">
*{stroke-linecap:butt;stroke-linejoin:round;}
  </style>
 </defs>
 <g id="figure_1">
  <g id="patch_1">
   <path d="
M0 432
L576 432
L576 0
L0 0
z
" style="fill:#ffffff;"/>
  </g>
  <g id="axes_1">
   <g id="line2d_1">
    <path clip-path="url(#p7ff5b81e1d)" d="
M72 248.165
L72.2232 139.949
L72.2976 148.654
L72.5208 214.339
L72.744 168.331
L72.8184 176.215
L72.9672 223.541
L73.1904 271.601
L73.3392 249.72
L73.6368 201.747
L73.7856 224.729
L74.0088 303.267
L74.0832 295.62
L74.3064 251.923
L74.3808 258.295
L74.4552 256.589
L74.5296 252.075
L74.6784 198.744
L74.9016 72.6217
L74.976 80.0521
L75.1992 172.759
L75.4968 245.271
L75.6456 211.099
L75.7944 170.643
L75.8688 174.703
L76.092 224.232
L76.1664 219.912
L76.2408 222.85
L76.3152 232.138
L76.6128 327.567
L76.6872 320.892
L77.0592 177.857
L77.1336 177.922
L77.58 219.891
L77.8776 142.217
L77.952 156.041
L78.1752 227.623
L78.324 216.996
L78.3984 195.699
L78.4728 197.448
L78.6216 257.907
L78.7704 301.927
L79.068 224.491
L79.1424 232.678
L79.3656 265.553
L79.9608 181.313
L80.0352 183.711
L80.2584 255.336
L80.556 136.45
L80.6304 150.598
L80.8536 219.783
L80.928 220.431
L81.1512 178.505
L81.3744 250.714
L81.4488 248.316
L81.5232 243.24
L81.8952 176.086
L82.044 158.59
L82.1928 216.931
L82.3416 304.347
L82.416 303.72
L82.6392 204.339
L82.7136 209.393
L82.9368 247.863
L83.0856 204.619
L83.2344 173.364
L83.532 243.154
L83.6064 239.892
L83.6808 231.187
L83.7552 233.369
L83.8296 232.635
L83.9784 206.045
L84.2016 133.663
L84.276 143.859
L84.4992 236.047
L84.7224 201.898
L84.8712 250.152
L85.0944 308.623
L85.392 178.505
L85.4664 180.449
L85.764 216.91
L85.8384 217.212
L86.0616 243.867
L86.2848 162.867
L86.3592 163.277
L86.6568 208.162
L86.8056 166.344
L86.88 162.499
L87.252 266.028
L87.4752 189.543
L87.5496 192.653
L87.624 192.459
L87.9216 247.193
L88.1448 273.934
L88.2192 267.497
L88.4424 206.693
L88.6656 233.261
L88.8144 187.663
L88.9632 118.327
L89.0376 121.222
L89.4096 276.936
L89.6328 229.157
L89.7072 230.734
L89.7816 239.158
L89.856 236.415
L90.1536 201.833
L90.3024 236.911
L90.3768 224.815
L90.5256 186.432
L90.6 193.603
L90.8232 257.194
L91.1208 150.209
L91.1952 174.747
L91.4184 242.549
L91.4928 238.056
L91.716 192.027
L91.9392 244.169
L92.0136 242.095
L92.2368 218.767
L92.3112 225.399
L92.3856 220.971
L92.6832 149.755
L92.9808 280.349
L93.0552 272.379
L93.2784 213.907
L93.5016 231.663
L93.6504 202.351
L93.7992 161.571
L93.8736 170.686
L94.1712 271.925
L94.32 245.465
L94.8408 121.956
L95.2128 252.787
L95.3616 223.865
L95.6592 275.921
L95.7336 262.335
L95.9568 215.873
L96.1056 235.983
L96.18 247.819
L96.3288 213.065
L96.4776 184.445
L96.6264 212.633
L96.7008 230.734
L96.7752 225.939
L96.9984 146.775
L97.0728 158.611
L97.296 239.719
L97.3704 232.008
L97.5936 158.503
L97.8168 238.51
L97.8912 235.875
L98.1144 188.29
L98.1888 197.513
L98.412 261.492
L98.5608 266.115
L98.7096 281.278
L98.8584 313.98
L98.9328 304.757
L99.2304 156.106
L99.3048 164.875
L99.528 229.611
L99.7512 144.766
L99.8256 154.378
L99.9744 203.626
L100.049 197.383
L100.272 120.984
L100.346 127.939
L100.942 289.723
L101.016 291.991
L101.165 267.043
L101.388 185.849
L101.462 186.54
L101.76 257.021
L101.909 247.387
L101.983 245.011
L102.206 288.535
L102.355 260.261
L102.653 172.565
L102.876 147.228
L103.099 192.545
L103.248 185.957
L103.397 182.717
L103.62 152.391
L103.918 249.699
L104.066 231.187
L104.215 253.219
L104.438 286.203
L104.513 281.472
L105.034 195.331
L105.108 185.115
L105.182 191.184
L105.48 237.451
L105.554 232.915
L105.852 125.218
L105.926 134.009
L106.15 198.442
L106.298 181.68
L106.373 189.111
L106.67 311.064
L107.117 244.255
L107.34 190.147
L107.489 196.476
L107.786 237.862
L107.861 230.863
L108.084 146.083
L108.307 198.377
L108.382 195.763
L108.605 157.207
L108.754 213.627
L108.977 301.776
L109.051 303.223
L109.2 266.352
L109.423 179.369
L109.572 173.191
L109.646 178.699
L109.721 174.163
L109.795 182.328
L110.093 274.063
L110.167 264.97
L110.242 236.199
L110.316 237.905
L110.465 257.799
L110.614 215.311
L110.837 97.6129
L111.283 244.126
L111.358 236.458
L111.432 234.751
L111.506 236.004
L111.581 244.774
L111.804 216.607
L111.878 218.055
L112.102 236.112
L112.176 245.767
L112.325 229.092
L112.474 199.155
L112.548 204.187
L112.771 255.12
L112.994 171.312
L113.366 267.886
L113.664 211.402
L113.813 190.666
L113.962 170.275
L114.036 171.831
L114.11 177.943
L114.334 164.184
L114.557 147.401
L114.706 193.387
L114.929 282.531
L115.003 277.563
L115.152 241.771
L115.226 244.839
L115.45 270.629
L115.524 267.562
L115.822 224.729
L115.896 220.906
L116.194 168.029
L116.268 169.087
L116.491 184.467
L116.64 172.176
L116.714 173.861
L116.863 210.257
L117.086 270.759
L117.235 251.837
L117.458 205.311
L117.682 251.146
L117.756 248.122
L117.83 239.763
L118.054 193.107
L118.277 231.187
L118.351 229.179
L118.426 222.353
L118.5 228.531
L118.574 227.451
L118.649 221.964
L118.872 171.291
L119.021 201.574
L119.17 238.92
L119.244 235.119
L119.467 189.413
L119.69 232.743
L119.839 216.802
L120.062 180.924
L120.137 181.356
L120.434 244.947
L120.509 248.964
L120.658 268.404
L120.806 235.788
L121.03 184.855
L121.104 195.18
L121.178 194.489
L121.253 189.435
L121.699 259.419
L121.774 257.172
L122.294 166.992
L122.369 164.703
L122.592 212.417
L122.741 251.88
L122.815 247.236
L123.262 153.103
L123.782 279.226
L123.857 277.303
L123.931 277.93
L124.006 278.945
L124.08 281.796
L124.154 275.683
L124.526 195.439
L124.824 149.928
L124.898 155.263
L124.973 154.378
L125.047 152.866
L125.196 170.427
L125.642 239.676
L125.717 237.257
L125.866 227.559
L126.163 261.017
L126.238 263.523
L126.312 262.075
L126.907 209.566
L126.982 210.97
L127.056 212.849
L127.428 178.591
L127.726 201.444
L127.8 198.571
L127.874 199.241
L128.098 213.454
L128.321 255.963
L128.395 248.467
L128.767 171.593
L128.842 168.007
L129.437 222.461
L129.734 272.897
L129.809 272.487
L129.958 266.719
L130.181 283.719
L130.255 279.399
L130.478 219.847
L130.702 116.103
L130.776 118.09
L131.148 197.578
L131.371 156.365
L131.446 161.074
L131.966 282.509
L132.041 285.403
L132.19 304.347
L132.338 283.999
L132.562 232.635
L132.859 153.989
L133.231 207.384
L133.38 180.427
L133.529 153.557
L133.603 156.797
L133.975 225.463
L134.124 228.768
L134.198 223.455
L134.273 226.781
L134.57 258.771
L134.645 260.153
L134.719 253.889
L135.017 196.411
L135.091 199.025
L135.24 179.563
L135.314 181.853
L135.389 194.835
L135.463 194.403
L135.538 188.959
L135.835 258.771
L135.984 308.105
L136.058 303.634
L136.579 218.551
L136.728 211.683
L136.951 192.61
L137.472 114.396
L137.546 120.79
L137.695 146.235
L138.142 297.564
L138.29 276.461
L138.514 242.203
L138.588 237.516
L138.811 210.171
L138.886 211.812
L139.034 203.626
L139.183 233.823
L139.332 265.445
L139.406 265.229
L139.481 253.371
L139.778 157.056
L140.002 165.113
L140.522 278.405
L140.671 254.127
L140.969 188.16
L141.192 171.485
L141.266 174.531
L141.415 206.909
L141.638 252.226
L141.713 254.127
L141.787 250.843
L142.01 267.735
L142.159 238.92
L142.457 181.097
L142.531 172.09
L142.903 203.799
L142.978 204.209
L143.052 202.546
L143.35 227.58
L143.498 212.482
L143.796 146.991
L143.87 151.138
L144.019 203.453
L144.242 276.634
L144.317 279.075
L144.391 266.439
L144.466 271.795
L144.54 273.329
L144.614 285.274
L144.689 279.766
L144.912 199.608
L145.135 147.163
L145.21 150.49
L145.582 211.769
L145.656 206.542
L145.805 184.553
L145.879 188.981
L146.251 258.943
L146.623 235.27
L146.698 236.155
L146.921 264.106
L146.995 258.339
L147.293 189.089
L147.59 221.64
L147.739 210.84
L147.962 164.811
L148.186 195.612
L148.409 221.489
L148.706 199.327
L148.781 202.611
L149.004 226.867
L149.078 226.392
L149.302 177.339
L149.748 246.372
L149.897 244.104
L149.971 241.599
L150.269 176.647
L150.343 186.735
L150.641 263.523
L150.715 265.812
L150.864 283.438
L150.938 279.42
L151.087 265.553
L151.236 218.379
L151.459 139.085
L151.534 139.128
L151.757 191.854
L151.98 250.39
L152.054 245.767
L152.352 194.316
L152.873 250.649
L152.947 250.411
L153.245 201.79
L153.617 121.265
L153.691 124.397
L154.138 271.299
L154.212 258.555
L154.435 236.501
L154.584 251.556
L154.733 282.811
L154.807 280.09
L155.03 265.661
L155.105 264.365
L155.402 209.35
L155.626 151.203
L155.7 148.071
L155.774 152.218
L156.072 203.95
L156.146 203.388
L156.221 199.781
L156.295 200.235
L156.593 219.869
L156.742 239.763
L156.89 231.555
L157.188 193.949
L157.411 231.727
L157.56 226.781
L157.783 209.328
L157.858 208.227
L158.006 218.638
L158.23 264.3
L158.304 259.505
L158.676 185.935
L159.122 264.408
L159.197 263.739
L159.42 236.803
L159.792 165.804
L159.866 173.148
L159.941 171.917
L160.09 162.24
L160.759 216.456
L160.908 213.497
L161.057 217.903
L161.206 237.019
L161.28 236.436
L161.503 214.447
L161.726 234.168
L161.875 216.91
L162.024 232.181
L162.173 223.455
L162.545 263.155
L162.694 245.875
L162.991 189.456
L163.066 193.128
L163.14 189.672
L163.289 168.936
L163.363 172.025
L163.735 206.823
L163.81 205.008
L163.958 193.063
L164.033 194.943
L164.107 192.07
L164.182 192.178
L164.554 273.588
L164.628 277.152
L164.702 273.351
L165 226.565
L165.074 227.602
L165.298 209.89
L165.595 167.511
L165.893 203.626
L166.042 232.375
L166.116 229.675
L166.339 206.369
L166.488 193.495
L166.711 223.627
L166.786 222.591
L166.86 224.923
L167.232 266.59
L167.381 252.096
L167.902 190.536
L167.976 189.089
L168.05 190.191
L168.348 211.855
L168.422 210.754
L168.497 200.58
L168.571 205.289
L168.72 219.545
L168.943 190.515
L169.018 192.221
L169.166 211.834
L169.39 256.719
L169.464 259.073
L169.538 257.431
L169.985 176.712
L170.134 165.934
L170.282 192.804
L170.654 290.674
L170.729 288.903
L170.878 250.995
L171.175 163.018
L171.77 241.685
L171.845 240.778
L171.919 234.06
L172.217 156.106
L172.291 160.015
L172.44 186.886
L172.812 297.823
L172.886 294.994
L173.184 225.031
L173.705 129.991
L173.928 190.903
L174.151 244.882
L174.3 223.519
L174.672 179.628
L175.193 291.84
L175.342 315.363
L175.416 303.677
L175.714 205.656
L175.862 199.392
L175.937 194.705
L176.011 196.195
L176.086 201.444
L176.16 199.651
L176.234 196.26
L176.309 184.639
L176.458 211.726
L176.606 240.065
L176.755 212.957
L177.053 127.097
L177.127 127.961
L177.276 161.851
L177.499 211.899
L177.946 266.136
L178.02 261.946
L178.243 226.327
L178.838 243.694
L179.062 219.027
L179.136 225.96
L179.359 261.903
L179.731 199.954
L179.806 200.235
L179.954 209.825
L180.029 206.952
L180.326 147.703
L180.401 156.235
L180.55 181.054
L180.624 177.317
L180.698 177.425
L180.773 177.295
L180.922 164.249
L180.996 166.582
L181.368 273.804
L181.591 212.827
L181.666 217.903
L181.963 288.255
L182.261 236.782
L182.41 252.571
L182.484 263.047
L182.558 257.907
L182.93 137.94
L183.005 145.867
L183.302 240.281
L183.377 232.786
L183.674 199.327
L183.898 218.098
L184.121 193.949
L184.27 228.66
L184.493 311.799
L184.567 302.467
L184.939 123.231
L185.014 141.504
L185.237 194.273
L185.386 185.741
L185.534 223.433
L185.758 315.751
L185.832 302.057
L186.204 119.969
L186.278 118.587
L186.576 174.833
L186.65 175.287
L186.725 184.164
L186.874 247.258
L187.097 349.383
L187.469 210.711
L187.618 211.791
L187.841 244.277
L187.99 241.728
L188.064 242.031
L188.213 255.099
L188.287 253.565
L188.436 207.924
L188.659 110.487
L188.808 159.13
L188.957 196.822
L189.18 162.305
L189.254 169.476
L189.552 283.632
L189.626 278.945
L189.85 223.001
L189.998 242.117
L190.147 264.279
L190.296 207.233
L190.445 140.489
L190.519 150.922
L190.817 291.559
L190.891 284.539
L191.114 211.92
L191.189 216.37
L191.412 243.521
L191.486 237.43
L191.784 174.379
L191.858 174.747
L192.007 188.808
L192.305 131.417
L192.9 267.065
L193.049 276.634
L193.198 270.802
L193.346 239.698
L193.495 209.911
L193.57 207.255
L193.718 196.217
L193.793 198.701
L193.867 198.226
L194.09 171.96
L194.165 176.626
L194.314 196.822
L194.388 195.85
L194.462 196.649
L194.686 213.043
L194.909 254.213
L195.132 274.344
L195.281 258.533
L195.43 263.458
L195.504 258.684
L195.876 126.039
L195.95 129.948
L196.174 184.078
L196.62 281.451
L196.918 235.443
L197.29 162.456
L197.364 156.387
L197.438 156.927
L197.513 159.432
L197.81 198.377
L198.257 267.108
L198.331 269.117
L198.406 268.167
L198.629 253.565
L198.703 259.246
L198.852 280.716
L198.926 276.159
L199.075 228.379
L199.447 92.2129
L199.522 89.1241
L199.67 166.215
L199.894 269.376
L200.042 308.235
L200.117 305.038
L200.414 213.972
L200.638 165.588
L200.712 160.728
L200.786 161.743
L201.084 194.835
L201.382 240.821
L201.456 243.867
L201.605 234.06
L201.977 189.262
L202.051 191.271
L202.498 265.855
L202.572 265.186
L202.721 242.311
L202.944 213.108
L203.018 210.063
L203.539 245.681
L203.688 219.999
L204.06 143.535
L204.134 141.979
L204.209 142.368
L204.283 143.427
L204.432 166.344
L204.804 244.839
L205.027 297.975
L205.102 299.53
L205.25 282.552
L205.771 193.884
L205.994 165.847
L206.143 174.315
L206.366 155.695
L206.441 159.022
L206.962 323.765
L207.036 321.411
L207.408 221.554
L207.631 179.391
L207.706 182.803
L207.78 180.19
L208.003 149.086
L208.078 151.548
L208.226 166.625
L208.45 199.608
L208.598 200.991
L208.822 209.22
L208.97 227.494
L209.119 222.223
L209.268 236.134
L209.566 255.617
L209.789 243.521
L209.938 224.794
L210.161 175.395
L210.235 180.103
L210.384 207.967
L210.458 207.643
L210.682 228.228
L210.905 258.533
L210.979 254.213
L211.054 256.287
L211.202 261.687
L211.5 215.506
L211.946 138.804
L212.021 134.203
L212.095 138.329
L212.839 288.622
L212.988 276.699
L213.881 154.702
L213.955 153.859
L214.104 169.109
L214.476 223.239
L214.774 271.018
L214.922 288.211
L215.071 282.25
L215.22 260.196
L215.592 168.785
L215.666 167.813
L215.815 191.875
L216.038 256.654
L216.113 254.602
L216.41 191.098
L216.782 122.971
L216.931 145.479
L217.452 276.396
L217.75 236.782
L217.824 239.849
L217.898 241.253
L217.973 236.76
L218.047 237.192
L218.122 241.318
L218.345 227.451
L218.419 229.762
L218.642 247.344
L218.717 245.897
L219.312 158.827
L219.461 174.725
L219.684 226.5
L219.982 272.659
L220.056 275.727
L220.279 221.424
L220.502 151.505
L220.577 156.257
L220.726 174.401
L220.8 175.179
L220.949 196.757
L221.172 251.211
L221.246 247.063
L221.47 224.837
L221.618 187.901
L221.916 202.611
L222.139 251.686
L222.288 261.298
L222.437 276.677
L222.586 259.397
L222.66 264.516
L222.734 263.868
L222.883 230.734
L223.181 159.735
L223.404 165.588
L223.478 165.459
L223.553 164.076
L223.627 168.202
L223.85 201.509
L223.925 198.204
L223.999 198.874
L224.222 211.639
L224.297 215.484
L224.743 267.454
L224.818 267.648
L225.19 213.821
L225.413 207.363
L225.487 210.106
L225.562 207.514
L225.859 185.525
L225.934 184.726
L226.008 185.201
L226.529 237.927
L226.603 234.924
L226.752 252.377
L226.901 274.625
L227.05 257.842
L227.496 170.232
L227.57 170.383
L228.017 220.603
L228.091 219.005
L228.24 223.735
L228.389 213.173
L228.761 169.973
L228.835 175.308
L229.356 277.8
L229.43 275.511
L229.579 260.931
L230.026 200.191
L230.174 186.324
L230.323 192.588
L230.398 197.362
L230.77 270.715
L230.844 267.864
L231.365 171.161
L231.439 175.891
L231.811 228.12
L231.886 230.669
L231.96 223.433
L232.258 153.125
L232.332 142.995
L232.406 143.578
L232.555 175.33
L233.076 287.585
L233.225 298.32
L233.299 295.512
L233.448 266.547
L233.82 177.943
L233.894 176.561
L234.043 193.776
L234.192 228.487
L234.341 257.907
L234.49 250.498
L234.713 235.745
L235.159 82.8169
L235.234 102.322
L235.68 266.827
L235.978 322.059
L236.052 320.007
L236.201 273.523
L236.424 219.07
L236.498 220.279
L236.647 212.352
L236.87 158.676
L236.945 135.759
L237.019 139.042
L237.242 201.531
L237.54 148.135
L237.614 155.739
L237.838 234.319
L237.912 228.66
L238.061 213.065
L238.21 250.174
L238.433 298.795
L238.507 297.327
L238.805 180.514
L238.879 190.536
L239.177 237.516
L239.326 225.766
L239.4 227.731
L239.623 309.855
L239.772 228.595
L239.995 91.9969
L240.07 101.35
L240.293 167.316
L240.367 174.228
L240.516 168.871
L240.665 211.402
L240.888 303.072
L240.962 300.372
L241.26 208.356
L241.483 247.063
L241.558 238.38
L241.781 167.338
L242.078 280.911
L242.153 274.344
L242.376 189.024
L242.45 190.212
L242.674 245.789
L242.748 245.551
L242.822 241.685
L243.269 191.4
L243.418 170.664
L243.641 95.5825
L244.013 278.167
L244.087 262.875
L244.236 239.633
L244.459 301.258
L244.682 236.652
L244.906 162.111
L244.98 161.139
L245.278 246.286
L245.501 166.215
L245.575 173.753
L245.724 195.828
L245.798 194.295
L245.873 190.45
L246.096 154.637
L246.245 210.387
L246.542 305.707
L246.617 301.301
L246.84 264.711
L246.989 259.419
L247.138 247.344
L247.286 191.681
L247.435 136.709
L247.51 139.56
L247.807 226.759
L247.956 202.719
L248.03 189.435
L248.105 190.752
L248.328 220.517
L248.402 218.184
L248.7 169.563
L249.072 265.337
L249.146 264.106
L249.37 191.076
L249.593 251.859
L249.816 235.097
L250.039 186.756
L250.114 186.13
L250.188 191.854
L250.486 267.216
L250.709 216.953
L250.783 222.958
L250.932 226.198
L251.006 225.053
L251.081 227.364
L251.304 156.754
L251.378 168.699
L251.602 225.075
L251.676 226.932
L251.75 220.495
L252.048 171.528
L252.271 229.308
L252.42 257.475
L252.494 254.191
L252.643 238.035
L252.718 237.408
L253.09 209.847
L253.238 170.491
L253.313 172.673
L253.685 271.536
L253.759 268.253
L254.131 187.923
L254.206 184.704
L254.354 203.323
L254.503 222.807
L254.652 203.021
L254.726 204.619
L254.95 254.321
L255.024 253.954
L255.322 203.28
L255.47 218.767
L255.619 240.216
L255.842 194.057
L255.917 195.396
L256.066 187.145
L256.289 210.862
L256.363 205.116
L256.586 182.479
L256.661 181.788
L256.735 188.182
L256.958 239.223
L257.182 195.418
L257.405 215.787
L257.628 244.083
L257.851 234.06
L257.926 229.611
L258 230.151
L258.149 249.159
L258.372 281.71
L258.521 271.579
L258.744 208.183
L259.042 127.745
L259.116 130.769
L259.637 243.651
L260.009 195.18
L260.232 219.135
L260.306 217.817
L260.381 222.115
L260.678 279.744
L260.753 273.415
L260.902 237.43
L261.199 152.175
L261.497 177.879
L262.018 255.142
L262.092 256.351
L262.241 227.991
L262.464 175.459
L262.613 205.419
L262.762 239.439
L262.836 238.704
L263.059 220.171
L263.134 224.664
L263.357 249.072
L263.431 247.949
L263.729 183.019
L263.803 185.201
L263.952 203.691
L264.026 199.932
L264.175 184.251
L264.25 184.985
L264.398 177.965
L264.622 258.684
L264.696 253.306
L264.845 240.756
L265.068 205.462
L265.217 232.959
L265.366 249.85
L265.514 239.979
L265.738 200.213
L266.035 246.437
L266.11 246.178
L266.333 204.641
L266.482 185.309
L266.705 198.226
L266.854 168.677
L267.002 141.936
L267.226 200.537
L267.449 267.648
L267.672 251.427
L267.821 234.427
L267.895 234.73
L268.044 247.107
L268.118 243.823
L268.267 217.471
L268.342 220.323
L268.49 223.152
L268.788 197.535
L269.011 169.131
L269.086 166.69
L269.458 227.623
L269.532 231.922
L269.606 230.993
L269.681 227.818
L269.755 233.045
L269.904 255.855
L270.127 218.962
L270.35 168.245
L270.425 170.815
L270.574 195.007
L270.722 216.003
L270.871 199.176
L270.946 200.062
L271.169 240.864
L271.318 269.614
L271.392 268.793
L271.69 257.215
L271.838 258.49
L271.987 251.189
L272.285 202.632
L272.508 181.119
L272.582 180.989
L272.731 153.903
L272.954 111.027
L273.103 146.688
L273.326 202.546
L273.55 253.392
L273.773 304.627
L273.847 304.087
L274.07 253.284
L274.368 193.992
L274.442 194.338
L274.74 203.475
L274.814 200.472
L274.889 202.935
L275.186 260.52
L275.484 205.267
L275.633 217.731
L275.707 217.191
L275.856 205.527
L275.93 207.881
L276.005 205.98
L276.079 194.23
L276.154 194.705
L276.228 196.779
L276.451 188.679
L276.6 179.175
L276.749 163.061
L276.823 168.742
L277.046 223.217
L277.121 221.554
L277.195 219.675
L277.567 287.779
L277.642 281.796
L278.162 220.755
L278.237 220.474
L278.386 236.544
L278.683 174.617
L278.906 223.627
L278.981 213.454
L279.204 128.739
L279.427 183.559
L279.502 176.842
L279.576 163.731
L279.65 167.705
L279.799 202.611
L280.022 255.747
L280.097 258.771
L280.32 286.267
L280.394 275.899
L280.543 224.88
L280.618 231.555
L280.766 266.698
L280.841 258.079
L281.064 179.412
L281.138 182.847
L281.287 210.235
L281.436 205.656
L281.51 207.319
L281.734 218.983
L281.808 211.294
L281.957 174.142
L282.031 177.468
L282.106 189.953
L282.18 185.698
L282.329 154.767
L282.403 157.553
L282.478 168.483
L282.701 262.054
L282.775 261.859
L282.85 253.587
L282.998 269.355
L283.073 285.641
L283.147 284.647
L283.37 232.656
L283.519 233.002
L283.594 224.988
L283.817 173.688
L284.04 229.891
L284.114 221.532
L284.189 209.307
L284.263 210.883
L284.338 213.864
L284.486 225.615
L284.635 186.799
L284.784 161.333
L285.007 231.706
L285.23 206.499
L285.454 236.89
L285.677 204.252
L285.751 208.421
L285.9 223.692
L286.049 194.489
L286.123 198.399
L286.421 247.668
L286.644 226.349
L286.867 246.415
L287.09 197.491
L287.165 200.904
L287.314 213.972
L287.537 190.493
L287.686 198.636
L287.76 192.307
L287.909 166.323
L287.983 174.466
L288.206 213.324
L288.355 198.463
L288.653 245.033
L288.727 235.507
L288.802 226.846
L288.876 229.848
L289.174 282.336
L289.62 205.008
L289.769 161.83
L290.066 212.352
L290.141 209.782
L290.29 199.5
L290.364 199.738
L290.513 207.125
L290.587 206.218
L290.736 193.582
L291.331 239.741
L291.406 237.948
L291.629 188.938
L291.703 192.934
L291.852 202.848
L292.001 194.683
L292.075 194.899
L292.373 228.617
L292.522 212.892
L292.596 213.972
L292.819 251.837
L292.894 248.727
L293.042 235.464
L293.191 246.415
L293.489 197.967
L293.638 210.214
L293.786 225.615
L293.935 206.693
L294.084 182.307
L294.233 196.174
L294.307 195.202
L294.382 194.619
L294.977 254.947
L295.051 249.936
L295.423 184.121
L295.498 184.747
L295.572 187.469
L295.721 181.27
L296.018 197.427
L296.316 243.91
L296.39 242.203
L296.465 237.43
L296.539 237.711
L296.614 237.43
L296.688 240.389
L296.986 231.684
L297.209 255.25
L297.283 253.63
L297.73 208.356
L297.953 179.758
L298.102 176.28
L298.176 179.391
L298.399 198.247
L298.548 185.352
L299.069 218.508
L299.218 244.126
L299.292 240.864
L299.59 214.059
L299.738 225.787
L299.887 224.837
L299.962 225.226
L300.036 223.498
L300.11 226.003
L300.334 253.263
L300.408 251.902
L300.78 191.919
L300.929 166.215
L301.003 165.437
L301.152 174.595
L301.226 172.09
L301.375 186.281
L301.673 227.731
L301.97 238.661
L302.417 257.755
L302.491 258.166
L302.714 245.897
L302.863 238.272
L302.938 239.287
L303.012 231.879
L303.235 191.443
L303.384 194.619
L303.458 190.342
L303.607 198.183
L303.682 194.403
L303.83 171.55
L303.905 172.155
L303.979 173.062
L304.202 160.75
L304.277 153.168
L304.351 156.711
L304.723 233.758
L304.946 268.361
L305.17 284.323
L305.244 284.129
L305.467 276.591
L305.839 201.315
L305.914 204.684
L305.988 208.464
L306.137 195.785
L306.286 185.892
L306.434 197.837
L306.658 223.023
L306.881 188.117
L306.955 190.407
L307.03 192.675
L307.104 191.746
L307.178 191.163
L307.327 199.543
L307.625 224.405
L307.699 227.883
L307.774 223.563
L307.922 206.909
L307.997 207.989
L308.071 206.131
L308.22 192.912
L308.369 174.531
L308.443 177.123
L308.592 199.198
L309.113 321.497
L309.187 320.914
L309.336 297.305
L309.782 136.083
L309.857 132.994
L309.931 135.046
L310.154 152.736
L310.378 190.212
L310.452 188.938
L310.526 183.149
L310.601 185.071
L310.973 241.21
L311.047 238.445
L311.122 238.834
L311.27 240.562
L311.419 236.091
L311.568 224.167
L311.717 207.017
L311.866 215.981
L311.94 215.808
L312.014 212.655
L312.089 212.676
L312.386 231.684
L312.684 245.638
L312.833 233.045
L312.907 237.97
L312.982 236.436
L313.354 175.287
L313.502 181.356
L313.651 187.75
L313.726 188.743
L314.023 223.023
L314.098 220.344
L314.172 220.474
L314.395 227.926
L314.618 208.637
L314.767 220.107
L314.99 236.155
L315.065 236.177
L315.139 239.439
L315.288 258.576
L315.437 246.394
L315.586 224.297
L315.734 191.249
L315.809 193.625
L315.958 206.347
L316.032 206.412
L316.33 255.963
L316.627 188.981
L316.702 166.755
L316.776 166.906
L316.85 172.608
L316.999 166.107
L317.297 219.351
L317.371 220.128
L317.594 233.974
L317.966 177.36
L318.041 182.393
L318.413 238.38
L318.71 287.974
L319.306 185.849
L319.529 153.665
L319.752 191.011
L319.901 188.311
L320.273 241.555
L320.422 247.992
L320.496 241.793
L320.719 205.656
L320.794 201.984
L320.942 215.398
L321.017 213.367
L321.091 206.283
L321.24 240.627
L321.389 258.814
L321.463 258.879
L321.612 256.848
L321.686 258.339
L321.761 258.252
L321.835 250.217
L322.058 200.947
L322.133 199.63
L322.207 201.725
L322.43 172.587
L322.579 185.741
L322.802 175.243
L322.951 191.638
L323.174 217.882
L323.546 201.876
L323.621 206.455
L323.844 235.723
L324.067 220.884
L324.29 229.697
L324.588 219.178
L324.662 221.359
L324.811 218.638
L324.96 222.439
L325.034 221.532
L325.109 219.804
L325.183 222.396
L325.258 220.603
L325.406 205.548
L325.555 225.766
L325.704 238.704
L325.853 235.227
L326.076 254.278
L326.225 217.342
L326.374 183.149
L326.522 204.49
L326.597 202.675
L326.746 179.866
L326.82 180.557
L326.894 181.81
L326.969 180.816
L327.043 184.121
L327.192 210.624
L327.266 208.356
L327.49 175.805
L328.01 271.839
L328.234 299.227
L328.308 294
L328.903 191.94
L329.201 169.131
L329.275 171.312
L329.35 170.923
L329.498 162.197
L329.573 163.342
L329.945 191.055
L330.242 272.875
L330.391 280.371
L330.689 263.803
L330.912 230.842
L331.21 167.662
L331.433 213.13
L331.582 230.431
L331.73 231.036
L331.805 229.071
L331.954 201.66
L332.177 173.818
L332.251 175.33
L332.4 165.891
L332.474 167.23
L332.698 203.777
L333.218 280.435
L333.293 284.259
L333.516 266.741
L334.037 196.087
L334.186 192.653
L334.26 193.344
L334.483 209.458
L334.558 210.408
L334.781 215.938
L335.004 221.748
L335.153 202.762
L335.525 142.735
L335.674 159.043
L336.194 275.316
L336.343 291.991
L336.418 291.646
L336.79 222.115
L337.013 176.561
L337.087 181.248
L337.236 194.057
L337.31 190.839
L337.385 192.588
L337.608 210.581
L337.98 217.839
L338.054 217.623
L338.352 215.808
L338.501 207.557
L338.575 199.047
L338.65 199.327
L338.798 203.431
L338.947 194.403
L339.17 234.946
L339.319 221.489
L339.468 232.505
L339.617 225.507
L339.989 246.199
L340.063 245.53
L340.51 200.818
L340.584 198.615
L340.733 203.086
L340.807 202.935
L340.956 199.759
L341.105 206.326
L341.254 202.697
L341.328 203.41
L341.402 203.259
L341.551 193.582
L341.774 183.041
L341.923 192.912
L342.221 224.038
L342.444 253.975
L342.518 257.626
L342.593 257.259
L342.742 238.618
L342.965 197.405
L343.039 200.256
L343.411 235.594
L343.56 253.651
L343.634 253.587
L343.783 239.417
L344.23 161.808
L344.304 163.731
L344.527 196.908
L344.75 224.686
L344.899 240.216
L345.048 262.702
L345.197 252.787
L345.346 236.652
L345.718 177.036
L345.866 174.358
L345.941 174.12
L346.09 172.565
L346.238 176.323
L346.462 209.652
L346.759 268.987
L347.057 325.817
L347.131 327.48
L347.206 320.871
L347.726 175.395
L347.801 177.187
L347.875 179.088
L347.95 178.354
L348.024 178.98
L348.173 184.575
L348.47 169.239
L348.619 162.629
L348.694 161.571
L349.363 201.941
L349.81 276.742
L349.884 273.091
L350.256 256.243
L350.628 220.755
L350.851 226.371
L351 224.383
L351.149 227.364
L351.223 225.658
L351.446 205.462
L351.818 152.175
L351.967 159.907
L352.339 235.227
L352.562 272.465
L352.637 274.366
L352.711 270.154
L353.009 226.932
L353.083 226.716
L353.158 224.599
L353.678 183.603
L353.753 181.939
L353.827 184.445
L354.05 207.017
L354.199 208.831
L354.348 206.045
L354.571 211.963
L354.794 182.307
L354.869 184.963
L355.39 266.827
L355.538 267.691
L355.687 251.427
L356.059 190.126
L356.282 175.503
L356.357 181.097
L356.654 234.492
L356.878 272.919
L356.952 270.931
L357.175 243.607
L357.547 150.987
L357.696 162.327
L358.068 233.088
L358.142 234.946
L358.366 207.233
L358.44 209.782
L358.663 231.101
L359.184 166.063
L359.258 169.174
L359.63 250.649
L359.854 305.686
L359.928 309.379
L360.002 307.414
L360.151 289.14
L360.374 228.423
L360.598 177.468
L360.746 168.18
L360.821 173.105
L361.044 209.89
L361.193 214.059
L361.342 196.692
L361.565 156.473
L361.639 160.815
L361.714 156.732
L361.937 132.238
L362.234 170.275
L362.904 321.713
L363.053 308.407
L363.499 254.71
L363.574 251.427
L363.797 215.527
L364.318 138.07
L364.466 133.707
L364.541 134.052
L364.69 150.123
L365.285 274.625
L365.359 274.755
L365.582 262.075
L366.178 193.539
L366.326 165.955
L366.401 168.396
L366.847 244.99
L367.294 174.876
L367.442 170.362
L367.591 178.375
L367.74 201.228
L367.963 234.622
L368.186 246.027
L368.261 245.595
L368.484 235.119
L368.558 235.723
L368.707 238.402
L368.782 235.162
L368.93 220.819
L369.005 221.77
L369.154 229.373
L369.302 216.499
L369.526 194.424
L369.6 199.003
L369.972 270.759
L370.195 236.652
L370.493 161.765
L370.567 160.771
L370.716 166.452
L370.79 165.977
L370.939 183.819
L371.088 211.207
L371.162 210.106
L371.534 179.023
L371.609 184.035
L371.906 232.181
L372.055 246.934
L372.204 258.231
L372.278 257.885
L372.427 255.423
L372.502 259.095
L372.799 291.365
L372.948 274.431
L373.469 172.025
L373.766 133.923
L373.841 130.963
L373.99 143.34
L374.138 156.322
L374.287 136.752
L374.362 137.551
L374.659 201.552
L375.106 321.972
L375.254 336.595
L375.626 294.281
L375.998 182.004
L376.296 134.787
L376.37 130.488
L376.445 132.929
L376.817 190.601
L376.966 171.982
L377.04 174.725
L377.486 257.021
L377.71 285.857
L377.784 287.153
L377.858 285.749
L378.007 273.48
L378.528 189.802
L378.602 188.657
L378.826 206.002
L378.974 199.327
L379.123 202.027
L379.198 201.228
L379.272 202.092
L379.346 205.03
L379.495 199.068
L379.57 200.947
L379.867 250.282
L379.942 248.791
L380.165 234.449
L380.239 233.52
L380.388 219.567
L380.611 206.585
L380.686 201.185
L380.834 215.463
L380.909 221.424
L380.983 220.539
L381.355 177.123
L381.43 181.356
L381.504 187.555
L381.578 184.186
L381.95 151.44
L382.099 184.791
L382.546 349.275
L382.62 350.808
L382.769 329.986
L383.587 125.067
L383.736 115.649
L383.959 133.08
L384.331 196.455
L384.629 251.448
L384.703 250.109
L384.852 265.855
L385.001 287.283
L385.224 282.487
L385.298 286.699
L385.373 284.842
L385.819 225.291
L386.117 138.631
L386.34 103.143
L386.489 122.907
L386.935 217.817
L387.158 263.004
L387.233 261.341
L387.456 234.514
L387.53 235.745
L387.679 242.635
L387.828 240.238
L388.051 247.236
L388.126 246.739
L388.2 244.515
L388.274 249.591
L388.498 281.537
L388.646 253.09
L389.018 100.745
L389.093 94.2433
L389.167 98.4121
L389.316 138.286
L389.614 235.767
L389.837 258.555
L390.06 278.859
L390.134 278.254
L390.358 272.508
L390.655 243.067
L391.176 143.47
L391.25 144.442
L391.474 160.879
L391.771 192.135
L391.92 217.731
L392.292 294.605
L392.441 296.376
L392.59 289.356
L392.887 249.418
L393.408 142.735
L393.557 132
L393.631 133.123
L393.854 164.249
L394.152 212.201
L394.226 211.143
L394.301 211.661
L394.375 212.223
L394.45 215.225
L395.045 299.832
L395.194 295.62
L395.268 295.555
L395.714 159.151
L395.863 153.363
L395.938 155.998
L396.235 208.205
L396.31 206.779
L396.458 191.573
L396.607 198.096
L396.83 182.479
L396.905 184.445
L396.979 186.411
L397.128 204.663
L397.5 283.632
L397.574 283.179
L397.723 262.162
L397.946 239.46
L398.021 243.046
L398.318 236.695
L398.542 194.878
L398.616 195.958
L398.765 178.807
L398.914 160.404
L398.988 162.435
L399.36 199.543
L399.434 199.392
L399.509 198.658
L399.583 200.451
L399.806 246.437
L399.955 278.319
L400.03 274.323
L400.402 197.535
L400.625 165.61
L400.699 166.841
L401.071 226.759
L401.146 218.616
L401.22 209.371
L401.294 209.631
L401.518 219.243
L401.741 209.803
L401.964 222.763
L402.187 273.999
L402.41 304.347
L402.485 303.915
L402.931 220.927
L403.526 93.6169
L403.675 101.155
L403.973 147.358
L404.494 312.252
L404.717 336.876
L404.791 333.507
L405.089 282.531
L405.461 214.037
L406.205 167.446
L406.502 110.465
L406.577 114.31
L406.874 191.573
L407.098 251.275
L407.172 251.491
L407.246 254.839
L407.693 295.21
L407.99 269.074
L408.065 263.069
L408.66 133.231
L408.809 142.951
L409.032 182.76
L409.33 265.013
L409.404 264.538
L409.702 238.467
L409.776 235.378
L409.85 236.587
L409.925 236.825
L410.148 227.235
L410.222 228.617
L410.446 248.057
L410.52 246.394
L410.818 213.972
L411.338 127.507
L411.413 127.788
L411.636 139.517
L411.785 185.525
L412.008 249.461
L412.157 267.324
L412.454 295.21
L412.529 294.778
L412.678 291.084
L412.826 269.225
L413.198 211.553
L413.496 191.983
L413.719 183.883
L413.794 184.013
L413.942 185.525
L414.017 185.374
L414.091 186.497
L414.314 181.896
L414.463 192.415
L414.761 231.727
L414.835 229.632
L415.058 202.783
L415.133 203.583
L415.654 239.007
L415.877 235.011
L416.026 239.007
L416.174 231.382
L416.398 204.274
L416.844 254.775
L417.067 223.303
L417.514 156.927
L417.588 162.283
L417.737 175.827
L417.886 168.504
L418.034 192.264
L418.258 235.594
L418.332 235.399
L418.481 254.667
L418.555 263.134
L418.63 262.054
L418.778 256.675
L418.853 258.533
L418.927 257.194
L419.002 258.727
L419.225 273.675
L419.448 246.826
L419.894 124.397
L420.043 157.056
L420.266 197.319
L420.564 217.709
L420.638 212.827
L420.713 211.618
L420.936 227.623
L421.085 220.539
L421.382 230.129
L421.606 250.087
L422.126 185.158
L422.201 185.763
L422.35 208.723
L422.573 246.912
L422.647 252.442
L422.796 291.235
L422.87 290.004
L423.094 224.535
L423.242 191.724
L423.391 193.819
L423.614 183.127
L423.763 189.089
L423.986 165.696
L424.061 166.884
L424.656 218.508
L425.177 265.92
L425.251 266.957
L425.4 259.678
L425.474 262.14
L425.549 261.471
L425.698 243.283
L425.772 244.882
L425.846 249.893
L425.921 247.927
L426.218 218.249
L426.442 207.125
L426.59 197.923
L426.739 178.224
L427.111 109.86
L427.186 110.919
L427.334 124.332
L427.558 186.735
L428.004 297.629
L428.153 287.52
L428.376 297.067
L428.599 318.343
L428.748 296.916
L429.269 150.663
L429.343 154.702
L429.566 170.124
L429.641 168.483
L429.79 171.939
L430.087 126.73
L430.162 127.637
L430.236 127.119
L430.31 132.843
L430.459 174.336
L430.757 299.767
L430.831 307.155
L430.906 304.131
L431.278 262.097
L431.65 215.873
L431.798 212.914
L432.096 247.409
L432.17 243.348
L432.394 213.67
L432.617 175.503
L432.691 175.373
L432.914 185.05
L433.063 191.379
L433.212 182.285
L433.286 184.229
L433.658 227.926
L433.882 220.992
L434.03 224.599
L434.254 192.027
L434.328 193.668
L434.849 225.161
L434.998 221.986
L435.37 240.367
L435.518 247.971
L435.593 247.863
L435.89 214.858
L435.965 217.255
L436.262 243.478
L436.337 236.566
L436.783 133.059
L436.858 136.126
L437.527 266.439
L437.676 278.945
L437.75 274.452
L438.048 237.387
L438.122 233.477
L438.42 196.519
L438.494 197.967
L438.643 206.347
L438.866 168.547
L438.941 172.695
L439.015 180.687
L439.09 180.039
L439.164 182.371
L439.685 263.22
L439.759 267.756
L440.28 236.091
L440.429 219.523
L440.652 193.02
L440.726 196.217
L440.801 195.612
L440.95 173.299
L441.098 159.886
L441.247 158.676
L441.322 158.201
L441.47 167.64
L441.768 206.823
L441.917 230.151
L442.066 219.091
L442.14 224.211
L442.512 283.351
L442.586 282.142
L442.958 257.151
L443.256 230.323
L443.33 230.259
L443.479 212.892
L443.777 163.45
L444 181.421
L444.372 227.17
L444.446 229.092
L444.521 226.543
L444.744 204.706
L444.818 204.943
L445.19 179.196
L445.265 180.298
L445.414 199.327
L445.562 221.467
L445.637 221.856
L445.711 221.143
L445.86 227.667
L446.158 263.976
L446.678 233.779
L446.827 247.927
L446.902 254.235
L446.976 252.355
L447.125 230.323
L447.571 156.797
L447.794 130.639
L447.869 130.553
L448.018 150.036
L448.39 210.516
L449.059 278.297
L449.282 287.499
L449.357 293.223
L449.431 291.862
L449.58 270.931
L449.729 275.554
L449.878 240.648
L449.878 240.648" style="fill:none;stroke:#808080;stroke-linecap:square;"/>
   </g>
  </g>
 </g>
 <defs>
  <clipPath id="p7ff5b81e1d">
   <rect height="345.6" width="446.4" x="72.0" y="43.2"/>
  </clipPath>
 </defs>
</svg>
