<?xml version="1.0" encoding="utf-8" standalone="no"?>
<!DOCTYPE svg PUBLIC "-//W3C//DTD SVG 1.1//EN"
  "http://www.w3.org/Graphics/SVG/1.1/DTD/svg11.dtd">
<!-- Created with matplotlib (http://matplotlib.org/) -->
<svg height="432pt" version="1.1" viewBox="0 0 576 432" width="576pt" xmlns="http://www.w3.org/2000/svg" xmlns:xlink="http://www.w3.org/1999/xlink">
 <defs>
  <style type="text/css">
*{stroke-linecap:butt;stroke-linejoin:round;}
  </style>
 </defs>
 <g id="figure_1">
  <g id="patch_1">
   <path d="
M0 432
L576 432
L576 0
L0 0
z
" style="fill:#ffffff;"/>
  </g>
  <g id="axes_1">
   <g id="line2d_1">
    <path clip-path="url(#p7ff5b81e1d)" d="
M72 180.708
L72.4464 252.753
L72.5952 261.121
L72.744 250.623
L73.116 219.489
L73.2648 217.722
L73.3392 217.756
L73.488 219.001
L73.5624 218.836
L73.7112 214.257
L74.0832 201.116
L74.1576 202.222
L74.4552 219.238
L74.6784 225.934
L74.8272 220.279
L75.1248 199.846
L75.1992 201.63
L75.72 236
L75.9432 210.849
L76.0176 222.383
L76.2408 279.118
L76.464 234.898
L76.9104 97.574
L76.9848 108.283
L77.6544 304.675
L77.7288 296.549
L78.0264 248.104
L78.1008 253.768
L78.324 328.15
L78.6216 228.794
L78.9192 115.515
L79.068 109.929
L79.2168 129.322
L79.5888 205.012
L79.7376 197.176
L79.812 202.459
L80.184 262.084
L80.556 274.327
L80.7792 263.233
L80.8536 252.96
L81.1512 173.118
L81.4488 150.887
L81.5232 155.237
L81.7464 196.338
L82.2672 292.432
L82.3416 291.015
L82.4904 267.951
L82.8624 181.814
L83.16 167.787
L83.2344 167.441
L83.532 175.006
L83.6808 188.186
L84.1272 247.91
L84.2016 248.459
L84.3504 242.808
L84.8712 204.624
L84.9456 204.71
L85.02 203.868
L85.0944 204.68
L85.2432 215.752
L85.5408 239.754
L85.764 251.396
L85.9128 258.153
L85.9872 257.228
L86.2848 232.911
L86.4336 214.413
L86.8056 160.78
L86.88 159.722
L87.0288 166.724
L87.5496 217.186
L87.624 218.785
L87.7728 233.062
L88.0704 260.805
L88.2192 248.053
L88.74 163.286
L88.8144 163.761
L88.9632 177.235
L89.7072 273.433
L89.7816 275.441
L89.9304 264.399
L90.4512 198.087
L90.5256 198.545
L90.6 200.053
L90.972 224.859
L91.1208 220.94
L91.344 205.177
L91.4184 207.743
L91.4928 209.415
L91.6416 195.923
L91.716 196.433
L91.7904 198.99
L91.8648 198.969
L92.0136 196.416
L92.2368 203.997
L92.3112 203.41
L92.6088 190.705
L92.832 195.958
L93.2784 250.865
L93.3528 250.035
L94.1712 214.84
L94.2456 213.989
L94.32 214.024
L94.3944 214.702
L94.8408 246.031
L95.1384 228.626
L95.3616 178.535
L95.5848 132.285
L95.6592 130.713
L95.7336 135.167
L96.18 218.672
L96.552 275.057
L96.7752 296.795
L96.8496 291.641
L97.1472 214.21
L97.2216 219.45
L97.3704 230.699
L97.5936 186.7
L97.8912 138.083
L97.9656 132.765
L98.04 133.214
L98.1888 152.766
L98.784 299.201
L98.8584 294.281
L99.0816 233.766
L99.3048 179.568
L99.3792 180.924
L99.6024 241.776
L99.6768 240.013
L100.049 172.021
L100.123 173.425
L100.495 194.601
L100.57 191.88
L100.644 189.409
L100.718 190.493
L100.867 206.753
L101.016 240.238
L101.314 309.172
L101.462 288.095
L101.983 165.096
L102.132 152.844
L102.355 157.886
L102.727 203.885
L103.248 268.767
L103.397 276.422
L103.471 276.387
L103.546 273.234
L104.662 155.229
L104.736 154.131
L104.81 154.512
L104.959 158.616
L105.182 176.66
L105.778 246.584
L106.001 256.213
L106.373 260.861
L106.447 258.827
L106.968 225.602
L107.042 225.701
L107.117 225.852
L107.34 223.757
L107.712 207.034
L107.786 207.432
L107.861 208.131
L108.01 205.652
L108.158 198.113
L108.456 173.718
L108.754 170.128
L108.902 169.895
L109.051 174.414
L109.274 190.489
L110.167 286.66
L110.242 287.3
L110.39 280.457
L110.688 244.981
L111.134 185.343
L111.432 173.991
L111.506 173.139
L111.73 174.237
L111.878 172.949
L111.953 173.256
L112.102 179.226
L112.25 193.651
L112.846 261.414
L112.994 264.853
L113.069 264.08
L113.218 252.995
L113.813 197.608
L113.887 196.463
L113.962 196.796
L114.557 208.352
L114.854 218.849
L114.929 219.389
L115.078 217.458
L115.152 217.653
L115.375 219.964
L115.673 216.992
L115.896 212.192
L115.97 212.378
L116.045 211.968
L116.194 209.739
L116.342 210.52
L116.491 213.398
L116.789 221.195
L116.863 220.932
L117.012 218.703
L117.235 208.784
L117.31 209.518
L117.756 232.479
L117.83 231.745
L117.979 228.34
L118.426 199.31
L118.5 200.23
L118.798 210.3
L119.244 247.815
L119.69 222.284
L119.765 222.038
L119.839 220.284
L120.211 193.089
L120.286 194.891
L120.36 197.53
L120.434 195.146
L120.732 156.922
L120.881 189.931
L121.104 278.293
L121.178 268.996
L121.55 151.587
L121.625 143.794
L121.774 186.238
L121.997 252.092
L122.146 260.386
L122.443 294.272
L122.592 269.424
L122.741 251.992
L122.89 275.13
L123.038 230.375
L123.262 159.16
L123.336 163.869
L123.559 218.223
L123.634 217.834
L124.006 168.003
L124.08 170.504
L124.675 218.309
L124.75 220.158
L124.898 212.702
L125.047 231.321
L125.122 227.848
L125.345 197.768
L125.94 248.014
L126.163 252.869
L126.386 234.531
L126.684 219.86
L126.907 210.326
L127.205 193.642
L127.354 186.847
L127.428 186.89
L127.651 201.047
L127.874 174.379
L127.949 177.542
L128.246 237.741
L128.544 270.577
L128.767 277.338
L128.916 261.047
L129.288 141.18
L129.362 136.121
L129.437 136.592
L129.586 149.055
L129.883 209.851
L130.33 311.613
L130.404 311.725
L130.553 297.426
L131.371 167.424
L131.52 161.32
L131.594 161.467
L131.892 165.195
L132.115 163.091
L132.264 169.035
L132.487 192.467
L133.157 277.791
L133.38 289.814
L133.454 290.389
L133.529 289.792
L133.603 288.276
L133.752 277.269
L134.05 224.496
L134.496 144.325
L134.645 140.307
L134.794 147.401
L135.984 256.338
L136.058 258.282
L136.133 257.634
L136.282 250.398
L137.026 203.276
L137.174 200.749
L137.323 202.433
L137.472 206.961
L137.621 202.714
L137.77 205.984
L137.844 205.125
L137.918 204.131
L138.067 207.021
L138.216 200.973
L138.514 257.919
L138.588 247.806
L138.886 195.124
L139.034 203.535
L139.481 245.845
L139.555 247.055
L139.704 218.357
L139.927 165.502
L140.076 189.715
L140.15 204.17
L140.225 203.25
L140.522 236.116
L140.597 234.661
L140.746 230.583
L140.969 241.931
L141.043 246.363
L141.266 233.874
L141.564 202.347
L141.713 195.012
L141.787 197.958
L141.936 214.473
L142.085 177.861
L142.159 178.367
L142.457 215.329
L142.68 184.959
L142.829 188.674
L142.903 185.616
L143.126 203.185
L143.35 297.149
L143.647 230.008
L143.722 223.649
L143.87 245.759
L143.945 245.011
L144.094 222.029
L144.242 199.297
L144.614 228.181
L144.838 259.073
L145.433 144.411
L145.73 166.776
L145.954 223.463
L146.102 282.232
L146.326 238.475
L146.4 239.633
L146.474 237.408
L146.623 256.438
L146.698 251.854
L146.921 188.147
L146.995 189.076
L147.218 243.59
L147.442 220.115
L147.516 225.705
L147.665 242.679
L147.814 225.805
L148.186 135.819
L148.334 164.085
L148.632 263.799
L148.706 255.859
L149.004 215.437
L149.153 249.923
L149.302 279.921
L149.822 196.839
L149.897 198.705
L149.971 197.409
L150.194 209.739
L150.418 162.357
L150.641 231.671
L150.715 224.452
L150.864 188.601
L150.938 193.996
L151.013 197.249
L151.236 222.638
L151.459 208.62
L151.534 207.198
L151.831 260.792
L151.906 258.749
L152.129 282.954
L152.278 265.501
L152.724 126.751
L152.798 141.962
L153.022 193.262
L153.096 193.197
L153.17 188.069
L153.468 225.679
L153.542 221.623
L153.691 214.957
L153.766 217.653
L153.84 214.599
L153.914 216.936
L154.138 248.411
L154.212 245.353
L154.286 241.08
L154.435 258.101
L154.733 232.66
L155.105 201.224
L155.254 198.001
L155.477 178.22
L155.774 214.076
L155.849 214.046
L156.146 167.476
L156.295 189.525
L156.742 305.776
L156.816 303.279
L157.188 198.856
L157.262 203.271
L157.337 200.649
L157.486 181.671
L157.634 193.737
L157.858 206.092
L158.006 196.679
L158.23 202.719
L158.453 214.439
L158.602 227.481
L158.75 182.704
L159.048 223.385
L159.122 223.303
L159.197 219.234
L159.42 230.28
L159.643 277.619
L159.792 246.666
L159.866 251.262
L160.015 213.877
L160.313 125.684
L160.536 177.943
L160.834 282.729
L160.908 288.099
L160.982 281.247
L161.28 205.773
L161.354 209.246
L161.578 248.921
L161.652 239.089
L162.024 174.28
L162.098 173.775
L162.47 194.333
L162.694 257.237
L162.917 267.48
L163.214 218.163
L163.438 171.131
L163.586 177.909
L163.81 191.875
L163.958 186.89
L164.107 213.264
L164.405 261.674
L164.628 276.876
L164.851 221.739
L164.926 224.141
L165 217.173
L165.298 167.351
L165.372 160.858
L165.446 160.979
L165.744 206.416
L165.893 258.114
L165.967 255.021
L166.19 236.639
L166.265 239.771
L166.339 237.028
L166.786 193.551
L166.86 203.686
L167.083 257.073
L167.158 261.056
L167.232 256.995
L167.455 181.594
L167.604 225.018
L167.902 165.26
L167.976 167.472
L168.125 211.886
L168.348 191.426
L168.571 141.318
L168.794 225.049
L168.869 229.952
L169.092 265.177
L169.315 280.301
L169.538 238.972
L169.613 215.355
L169.687 219.351
L169.762 242.035
L169.91 213.475
L169.985 213.678
L170.134 252.191
L170.208 248.359
L170.506 206.956
L170.878 118.954
L171.398 238.868
L171.473 238.203
L171.622 249.608
L171.696 245.547
L171.77 217.696
L171.845 220.599
L171.994 236.639
L172.068 234.661
L172.217 188.899
L172.291 191.754
L172.366 203.755
L172.589 261.337
L172.663 259.367
L172.812 239.758
L173.035 215.985
L173.184 200.934
L173.333 179.892
L173.407 184.778
L173.482 181.032
L173.556 186.095
L173.854 243.741
L173.928 245.046
L174.002 239.883
L174.226 200.355
L174.3 199.284
L174.97 243.223
L175.193 222.487
L175.565 171.718
L175.639 167.67
L175.714 168.133
L175.788 168.051
L175.862 171.433
L176.383 254.096
L176.458 254.023
L176.755 217.337
L176.83 218.383
L177.276 241.309
L177.35 241.715
L177.574 239.996
L177.722 212.702
L177.946 169.878
L178.094 165.035
L178.318 200.723
L178.392 211.596
L178.466 209.734
L178.541 209.855
L178.69 233.563
L178.913 292.181
L178.987 285.395
L179.359 188.895
L179.508 203.509
L179.582 202.9
L179.954 168.141
L180.029 168.331
L180.178 192.662
L180.401 227.368
L180.55 234.358
L180.773 250.567
L180.847 251.293
L180.996 260.192
L181.07 253.807
L181.442 191.776
L181.814 164.435
L181.889 170.418
L182.261 285.537
L182.335 280.664
L182.484 228.457
L182.707 166.456
L182.856 186.117
L183.228 236.466
L183.6 202.943
L183.674 204.533
L183.749 205.483
L183.898 201.556
L184.344 240.981
L184.418 238.639
L184.567 214.227
L184.716 190.182
L184.865 217.402
L184.939 233.594
L185.014 229.567
L185.237 174.837
L185.683 263.963
L185.758 260.071
L186.278 183.987
L186.576 140.472
L187.171 295.797
L187.32 271.972
L187.692 187.754
L187.766 189.957
L187.915 204.218
L188.064 197.612
L188.213 205.76
L188.287 205.384
L188.362 204.667
L188.51 205.708
L188.585 207.825
L188.882 236.514
L188.957 235.827
L189.18 227.55
L189.478 217.316
L189.626 230.755
L189.775 241.292
L189.924 222.305
L190.147 192.973
L190.222 197.107
L190.296 194.558
L190.594 165.117
L190.668 169.105
L191.338 264.918
L191.635 240.83
L191.71 242.277
L191.858 245.59
L192.156 232.436
L192.454 207.877
L192.528 209.631
L192.602 210.183
L192.751 190.679
L192.9 172.872
L193.049 185.78
L193.123 180.259
L193.346 153.941
L193.421 154.879
L193.867 218.396
L194.165 289.862
L194.314 321.35
L194.388 320.892
L194.537 285.084
L194.909 181.546
L194.983 180.198
L195.206 191.055
L195.281 191.314
L195.355 192.804
L195.578 231.827
L195.727 248.938
L195.876 204.701
L196.025 162.43
L196.099 163.45
L196.471 224.439
L196.546 224.34
L196.769 216.473
L197.141 163.389
L197.215 167.968
L197.81 277.48
L197.959 249.668
L198.034 235.443
L198.108 242.609
L198.257 263.574
L198.406 247.158
L198.48 244.48
L198.703 185.568
L198.778 188.691
L198.926 214.646
L199.298 185.879
L199.447 171.291
L199.596 184.302
L199.819 224.496
L199.894 219.368
L200.191 175.287
L200.34 191.469
L200.712 252.407
L200.786 252.563
L200.861 254.183
L201.01 271.769
L201.084 271.264
L201.382 224.941
L201.456 226.565
L201.605 243.892
L201.679 241.171
L202.126 137.573
L202.2 139.171
L202.349 149.811
L202.721 229.917
L202.87 256.187
L203.167 236.177
L203.242 239.331
L203.539 278.344
L203.614 275.675
L203.837 251.331
L204.134 200.26
L204.358 172.522
L204.432 169.316
L204.506 169.796
L204.655 191.163
L204.804 151.539
L204.953 117.796
L205.027 124.44
L205.25 264.62
L205.399 317.976
L205.771 212.862
L205.846 227.779
L205.994 263.078
L206.143 212.892
L206.292 186.519
L206.366 183.996
L206.515 204.347
L206.813 261.501
L206.887 256.278
L207.482 177.291
L207.631 182.937
L208.078 205.704
L208.226 200.178
L208.375 193.755
L208.524 196.969
L208.673 210.879
L208.97 240.553
L209.119 254.736
L209.268 265.229
L209.342 265.644
L209.491 261.851
L209.714 246.916
L210.384 179.101
L210.533 165.277
L210.756 138.51
L210.83 142.787
L211.054 213.419
L211.351 295.56
L211.426 294.579
L211.798 232.686
L211.872 233.753
L211.946 234.419
L212.095 226.137
L212.467 190.769
L212.616 186.557
L212.765 171.265
L212.914 157.497
L213.062 184.553
L213.434 264.119
L213.509 262.611
L213.732 238.972
L214.104 201.742
L214.253 203.803
L214.327 204.987
L214.402 204.697
L214.55 200.736
L214.774 185.231
L214.848 185.603
L214.997 198.057
L215.518 264.49
L215.592 266.944
L215.666 265.454
L216.187 219.649
L216.41 183.425
L216.485 183.581
L216.708 196.93
L216.782 196.264
L217.006 177.887
L217.229 163.005
L217.303 161.713
L217.378 165.463
L217.601 219.536
L217.898 280.167
L218.047 248.96
L218.27 190.964
L218.345 192.765
L218.568 246.251
L218.791 284.185
L218.866 281.736
L219.014 260.792
L219.461 141.647
L219.535 141.867
L219.684 166.171
L220.056 229.753
L220.279 241.201
L220.354 240.843
L220.502 231.382
L220.874 184.22
L221.023 208.3
L221.246 249.673
L221.47 240.091
L221.767 263.086
L221.842 259.095
L222.065 216.741
L222.437 145.323
L222.511 141.599
L222.586 142.899
L222.734 163.882
L223.181 246.973
L223.255 250.696
L223.33 249.906
L223.553 233.274
L223.85 201.444
L223.999 185.158
L224.074 186.83
L224.297 223.938
L224.594 261.941
L224.743 264.819
L224.892 256.671
L225.19 213.704
L225.487 156.585
L225.562 159.972
L225.785 207.445
L226.082 254.494
L226.157 254.887
L226.306 248.251
L226.975 183.404
L227.05 183.633
L227.198 176.427
L227.347 166.279
L227.422 170.271
L227.719 242.285
L227.794 239.27
L228.017 215.713
L228.389 229.243
L228.538 249.271
L228.612 263.795
L228.686 263.298
L228.984 175.049
L229.058 181.827
L229.356 231.987
L229.728 250.208
L229.951 298.657
L230.026 295.594
L230.621 117.096
L230.695 120.263
L231.216 240.795
L231.365 266.987
L231.439 262.857
L231.886 175.144
L232.034 192.411
L232.555 287.65
L232.63 286.228
L233.448 176.453
L233.597 171.424
L233.671 173.654
L233.82 190.886
L234.118 229.68
L234.266 201.824
L234.49 112.707
L234.564 116.88
L234.936 261.06
L235.085 276.167
L235.159 270.983
L235.382 235.214
L235.68 299.655
L235.754 292.54
L235.978 275.804
L236.201 197.833
L236.424 126.535
L236.498 130.384
L236.722 165.77
L236.796 163.186
L237.019 125.421
L237.094 131.439
L237.317 210.983
L237.614 291.011
L237.689 291.762
L237.838 282.185
L238.433 207.989
L238.507 211.445
L238.582 213.696
L238.656 212.672
L238.954 195.042
L239.028 197.046
L239.4 222.586
L239.474 221.567
L239.549 222.733
L239.623 222.569
L239.772 203.475
L239.995 165.191
L240.07 166.029
L240.293 189.707
L240.516 109.424
L240.59 133.179
L241.037 344.747
L241.111 345.253
L241.334 311.241
L241.781 211.328
L242.078 159.514
L242.227 151.561
L242.45 192.532
L242.525 184.371
L242.599 181.745
L242.748 201.764
L242.897 217.057
L243.12 198.856
L243.194 201.656
L243.492 222.858
L243.566 222.521
L243.641 221.368
L243.864 205.665
L243.938 209.708
L244.31 239.78
L244.385 239.663
L244.906 215.463
L244.98 214.836
L245.129 211.004
L245.203 211.009
L245.352 213.549
L245.426 213.264
L245.501 212.711
L245.575 213.514
L246.096 227.749
L246.542 220.595
L247.063 186.756
L247.138 191.046
L247.51 216.331
L247.584 218.94
L247.807 243.391
L247.882 242.592
L247.956 239.568
L248.254 187.465
L248.328 188.575
L248.551 212.832
L248.849 235.205
L248.923 233.136
L249.221 213.683
L249.518 202.96
L249.593 205.997
L249.742 219.104
L249.965 243.236
L250.783 195.007
L251.081 176.276
L251.155 180.324
L251.304 192.826
L251.378 192.605
L251.453 193.824
L251.602 225.805
L251.899 313.043
L251.974 309.898
L252.122 271.705
L252.494 179.369
L252.569 179.827
L252.792 155.332
L252.866 157.873
L253.387 229.071
L253.462 230.907
L253.536 228.224
L253.685 235.378
L253.759 235.227
L254.057 212.862
L254.28 243.495
L254.354 235.71
L254.578 183.546
L254.875 194.113
L254.95 201.297
L255.098 229.684
L255.247 219.61
L255.322 224.811
L255.619 261.708
L255.694 265.263
L255.842 246.942
L256.14 206.408
L256.214 202.982
L256.438 208.201
L256.512 205.311
L256.81 141.724
L256.958 166.672
L257.182 215.186
L257.33 226.828
L257.405 224.517
L257.479 220.119
L258 262.14
L258.149 298.346
L258.446 221.584
L258.67 212.598
L258.744 214.581
L258.967 202.909
L259.265 166.292
L259.339 169.619
L259.562 190.078
L259.711 159.259
L259.786 164.806
L260.009 209.397
L260.306 270.43
L260.381 265.963
L260.455 258.641
L260.53 261.233
L260.604 260.589
L260.678 261.177
L260.753 259.626
L260.827 260.395
L260.902 257.233
L261.125 210.05
L261.199 214.313
L261.274 221.826
L261.497 163.83
L261.571 173.498
L261.72 166.923
L261.869 208.546
L262.018 176.068
L262.315 225.666
L262.538 317.186
L262.91 193.409
L263.059 185.75
L263.208 192.679
L263.357 186.54
L263.58 203.5
L263.803 191.785
L263.878 194.39
L264.398 255.116
L264.473 252.519
L264.696 234.682
L264.845 223.709
L265.068 191.227
L265.44 230.552
L265.514 228.12
L265.738 218.15
L265.961 241.538
L266.184 269.147
L266.333 244.471
L266.63 167.709
L266.705 160.305
L266.779 160.966
L267.151 193.698
L267.374 179.615
L267.821 239.823
L268.044 277.688
L268.118 279.157
L268.862 164.206
L268.937 179.373
L269.16 311.168
L269.234 310.874
L269.755 158.797
L269.83 156.628
L270.053 173.857
L270.574 256.567
L270.648 258.386
L270.871 284.44
L271.094 200.511
L271.318 137.318
L271.615 229.775
L271.69 224.016
L271.764 213.281
L272.136 247.215
L272.285 239.529
L272.434 247.694
L272.731 183.568
L272.88 163.489
L272.954 170.988
L273.252 241.447
L273.326 246.536
L273.475 232.146
L273.624 242.013
L273.698 250.455
L273.773 249.794
L273.922 214.491
L274.145 167.074
L274.442 131.382
L274.517 138.597
L275.112 315.414
L275.707 217.013
L276.005 131.257
L276.302 194.13
L276.451 172.768
L276.526 176.233
L276.749 212.218
L277.046 177.84
L277.121 180.911
L277.418 272.983
L277.567 266.866
L277.642 268.4
L277.716 273.579
L277.79 268.534
L277.939 249.932
L278.088 267.601
L278.311 222.461
L278.46 206.283
L278.609 182.89
L278.683 184.423
L278.758 185.132
L278.832 184.907
L279.055 193.88
L279.204 179.494
L279.65 240.531
L279.725 242.653
L279.948 217.791
L280.022 219.601
L280.097 208.512
L280.246 155.911
L280.543 240.095
L280.618 237.088
L280.841 195.612
L280.915 201.444
L281.138 240.359
L281.213 239.883
L281.362 237.101
L281.436 236.955
L282.031 205.177
L282.329 222.984
L282.403 221.156
L282.701 192.644
L282.85 205.924
L283.073 238.043
L283.147 236.739
L283.668 180.501
L283.742 180.963
L283.817 182.708
L284.635 269.756
L284.784 252.39
L285.156 211.03
L285.305 197.293
L285.454 183.412
L285.528 183.931
L285.602 183.045
L285.677 185.603
L285.974 237.719
L286.049 230.47
L286.272 188.441
L286.421 210.244
L286.644 273.307
L286.718 269.946
L287.165 173.295
L287.239 174.988
L287.388 188.177
L287.611 222.31
L287.686 224.651
L287.76 224.02
L287.834 222.953
L287.983 215.264
L288.206 203.708
L288.355 202.827
L288.504 193.958
L288.578 194.701
L288.727 207.691
L289.174 273.631
L289.248 272.638
L289.694 181.555
L289.769 189.655
L289.992 210.369
L290.066 213.631
L290.29 245.335
L290.364 242.938
L290.736 181.792
L291.182 208.84
L291.331 227.196
L291.406 221.381
L291.629 189.53
L291.703 192.402
L292.001 248.921
L292.224 275.377
L292.373 250.921
L292.67 202.187
L292.819 185.456
L292.894 192.575
L293.191 277.217
L293.34 249.5
L293.712 162.676
L293.935 143.396
L294.01 144.615
L294.605 233.581
L294.754 244.623
L294.828 244.294
L295.498 185.205
L295.572 191.016
L295.87 259.626
L295.944 258.049
L296.018 258.675
L296.167 271.571
L296.316 283.053
L296.688 228.781
L297.209 96.0577
L297.283 103.717
L297.73 232.168
L297.878 254.762
L298.027 269.363
L298.102 264.866
L298.176 265.562
L298.25 264.438
L298.474 230.323
L298.771 170.31
L298.846 172.288
L299.069 199.599
L299.366 241.305
L299.441 241.914
L299.515 241.024
L299.738 230.894
L299.813 232.492
L299.887 232.38
L300.036 234.579
L300.11 232.246
L300.334 197.902
L300.631 158.784
L300.78 190.869
L301.078 259.017
L301.152 261.138
L301.301 249.56
L301.822 183.78
L301.896 188.113
L302.119 243.568
L302.194 236.868
L302.342 198.532
L302.566 226.928
L302.64 223.912
L303.235 165.178
L303.682 224.258
L303.979 291.33
L304.054 298.653
L304.128 294.151
L304.5 214.858
L304.798 156.715
L304.872 156.257
L305.095 194.822
L305.467 248.225
L305.542 248.07
L305.69 244.009
L305.839 234.462
L306.211 153.915
L306.36 180.471
L306.732 250.048
L306.806 255.401
L306.881 253.919
L307.03 235.378
L307.402 182.691
L307.476 182.285
L307.625 192.752
L308.294 259.725
L308.369 259.09
L308.592 243.352
L308.964 190.273
L309.038 186.998
L309.113 188.355
L309.634 220.616
L309.708 219.234
L309.857 214.283
L310.303 189.223
L310.378 189.473
L310.452 190.074
L310.601 197.249
L311.122 236.518
L311.27 231.585
L311.568 207.25
L311.642 208.313
L312.386 245.137
L312.535 240.514
L313.949 168.137
L314.098 174.708
L314.321 210.201
L314.544 236.35
L315.065 251.055
L315.214 247.331
L315.734 219.044
L316.106 185.486
L316.181 187.529
L316.627 213.164
L316.702 214.992
L317.074 236.358
L317.594 218.327
L317.818 204.356
L318.041 196.312
L318.19 198.558
L318.264 197.945
L318.413 195.997
L318.487 197.284
L318.859 213.562
L318.934 212.737
L319.008 212.447
L319.082 213.108
L319.231 218.823
L319.752 250.467
L319.826 249.578
L320.05 238.648
L320.645 187.041
L320.794 183.862
L320.868 183.101
L320.942 183.201
L321.091 186.32
L321.166 187.491
L321.389 202.196
L321.612 234.315
L321.91 273.895
L321.984 277.191
L322.058 275.459
L322.282 250.355
L322.802 181.144
L323.026 174.6
L323.1 176.155
L323.621 200.105
L323.77 205.099
L324.439 242.29
L324.662 253.414
L324.737 250.355
L325.183 193.806
L325.258 197.923
L325.778 253.5
L325.927 237.322
L326.225 193.919
L326.448 212.041
L326.597 192.402
L326.82 157.475
L327.043 206.239
L327.192 222.275
L327.341 208.875
L327.415 209.656
L327.564 222.724
L327.638 220.171
L327.787 208.887
L327.936 230.129
L328.159 276.115
L328.234 269.087
L328.531 164.474
L328.606 174.729
L328.754 242.575
L328.829 242.415
L329.126 261.315
L329.201 258.252
L329.573 182.721
L329.647 182.492
L329.796 163.212
L330.019 192.584
L330.168 206.507
L330.317 192.286
L330.466 203.634
L330.614 200.446
L330.689 200.468
L330.912 223.446
L331.061 244.795
L331.284 263.397
L331.433 248.994
L331.507 239.819
L331.73 171.835
L331.954 267.592
L332.028 257.475
L332.251 179.581
L332.474 196.394
L332.549 197.042
L332.623 197.025
L333.07 231.036
L333.367 268.97
L333.516 256.654
L334.186 138.571
L334.409 194.26
L334.558 180.531
L334.93 287.421
L335.004 278.971
L335.227 244.268
L335.302 246.104
L335.525 259.721
L335.599 254.559
L336.343 80.9766
L336.418 98.9996
L336.715 217.882
L336.79 229.671
L337.013 301.642
L337.087 304.632
L337.162 312.766
L337.236 306.869
L337.608 229.978
L337.906 274.815
L338.278 135.089
L338.352 135.447
L338.426 147.997
L338.575 127.995
L339.17 247.871
L339.245 240.83
L339.394 201.06
L339.468 203.012
L339.691 271.264
L339.766 261.587
L340.212 212.46
L340.361 197.219
L340.435 188.735
L340.51 192.355
L340.807 226.712
L341.03 271.255
L341.105 296.994
L341.626 180.332
L341.7 172.669
L341.774 173.468
L341.923 186.929
L341.998 186.259
L342.072 186.553
L342.37 220.521
L342.518 235.533
L342.667 227.459
L342.816 231.472
L343.114 226.271
L343.337 205.82
L343.411 209
L343.56 222.893
L343.709 200.308
L343.858 221.943
L343.932 212.62
L344.081 164.266
L344.155 170.452
L344.378 230.112
L344.453 222.845
L344.825 264.119
L344.974 259.008
L345.122 271.912
L345.494 175.71
L345.718 146.874
L345.866 142.515
L346.015 172.055
L346.09 158.966
L346.164 171.74
L346.313 233.183
L346.387 231.965
L346.536 197.405
L346.759 324.098
L346.908 298.942
L346.982 298.579
L347.206 256.801
L347.503 195.979
L347.726 169.908
L347.801 166.469
L348.024 136.782
L348.322 194.619
L348.47 213.812
L348.619 193.906
L349.066 266.75
L349.214 263.108
L349.438 315.924
L349.512 314.14
L349.735 190.731
L349.81 203.824
L350.033 152.835
L350.107 156.05
L350.479 205.138
L350.628 202.122
L350.777 181.252
L350.851 182.363
L350.926 191.625
L351 182.89
L351.074 186.277
L351.223 218.482
L351.446 271.432
L351.521 266.909
L351.595 267.393
L351.67 274.046
L352.116 214.469
L352.19 202.226
L352.339 230.513
L352.562 198.118
L352.637 201.664
L352.711 200.338
L353.009 165.977
L353.158 125.412
L353.306 142.614
L353.678 264.875
L353.753 240.972
L353.827 246.519
L353.902 238.596
L354.05 280.271
L354.125 272.331
L354.199 269.186
L354.274 273.286
L354.348 268.698
L354.571 237.754
L354.646 233.416
L355.092 138.014
L355.315 169.23
L355.39 172.496
L355.538 212.853
L355.687 260.356
L355.762 260.084
L355.91 247.495
L355.985 254.114
L356.208 163.251
L356.282 176.591
L356.357 181.961
L356.431 196.874
L356.506 245.348
L356.58 239.106
L356.729 161.225
L356.803 169.632
L357.101 260.706
L357.175 271.778
L357.25 264.024
L357.398 235.023
L357.473 245.167
L357.622 312.58
L357.696 304.688
L358.068 142.757
L358.142 143.798
L358.217 150.879
L358.366 208.676
L358.514 166.21
L358.663 228.306
L358.886 173.036
L359.035 216.318
L359.11 213.601
L359.184 200.934
L359.258 206.689
L359.482 251.677
L359.556 251.137
L359.63 253.509
L359.705 250.403
L360.002 175.662
L360.449 268.577
L360.523 304.519
L360.895 151.665
L361.044 180.786
L361.118 194.597
L361.416 303.275
L361.49 321.76
L361.565 315.583
L362.011 105.678
L362.234 263.993
L362.309 252.148
L362.532 145.902
L362.606 171.731
L362.755 293.693
L363.053 174.6
L363.127 181.205
L363.276 152.019
L363.35 162.076
L363.574 255.107
L363.722 217.826
L363.946 324.806
L364.466 124.799
L364.838 252.602
L364.987 349.188
L365.136 264.382
L365.359 186.726
L365.434 175.127
L365.508 176.207
L365.731 205.959
L365.806 205.652
L365.954 208.728
L366.029 204.356
L366.178 186.959
L366.326 245.439
L366.55 201.366
L366.698 223.567
L366.773 199.928
L366.996 270.854
L367.294 148.122
L367.368 152.943
L367.517 228.263
L367.591 225.109
L367.666 221.999
L367.814 258.334
L367.889 281.26
L368.335 176.323
L368.484 180.293
L368.633 188.177
L368.856 252.308
L368.93 247.806
L369.154 218.551
L369.228 220.672
L369.377 236.548
L369.451 237.814
L369.6 234.579
L369.823 201.703
L369.898 207.881
L370.046 232.168
L370.642 128.808
L370.716 152.896
L370.939 273.631
L371.014 277.269
L371.162 309.211
L371.311 330.776
L371.758 183.628
L371.832 177.373
L372.204 100.313
L372.725 260.719
L372.874 282.353
L373.097 312.079
L373.246 278.064
L373.32 285.304
L373.394 272.331
L373.618 218.659
L373.766 200.26
L373.841 201.224
L373.915 195.301
L374.138 156.322
L374.213 157.899
L374.51 209.665
L374.585 185.369
L374.659 186.32
L374.734 196.506
L374.808 193.469
L375.031 152.092
L375.552 307.064
L375.626 303.923
L375.701 309.803
L375.85 271.929
L376.37 140.912
L376.668 197.103
L376.817 189.18
L376.891 197.262
L377.114 249.124
L377.263 232.652
L377.486 173.213
L377.561 187.223
L377.784 240.009
L378.007 232.177
L378.082 225.675
L378.156 203.794
L378.305 252.364
L378.379 230.112
L378.677 144.329
L378.826 208.339
L378.9 196.277
L378.974 171.843
L379.049 172.215
L379.346 293.719
L379.421 289.624
L379.495 279.053
L379.57 284.354
L379.793 243.737
L379.867 258.351
L380.016 220.189
L380.165 154.119
L380.239 156.326
L380.537 237.067
L380.611 223.079
L380.834 145.366
L381.132 194.562
L381.355 240.864
L381.504 242.182
L381.578 241.806
L381.876 233.801
L382.174 249.815
L382.248 244.657
L382.62 175.541
L382.694 179.136
L383.141 229.455
L383.215 226.746
L383.364 236.976
L383.736 171.848
L383.959 149.894
L384.034 144.342
L384.182 180.242
L384.48 297.659
L384.629 315.483
L384.778 310.736
L385.298 204.442
L385.522 139.659
L385.596 144.338
L385.745 166.327
L385.894 145.828
L386.563 237.417
L387.084 215.618
L387.158 211.557
L387.233 212.858
L387.307 214.486
L387.456 235.779
L387.53 235.451
L387.605 230.539
L387.828 261.306
L388.274 218.396
L388.349 220.128
L388.423 215.277
L388.646 146.04
L388.944 166.046
L389.093 196.839
L389.539 295.063
L389.614 295.616
L389.762 279.878
L390.06 195.465
L390.283 94.8092
L390.358 99.0558
L390.73 208.309
L390.804 201.293
L390.953 206.753
L391.325 291.862
L391.548 357.534
L391.622 349.024
L392.292 82.4929
L392.366 88.3551
L392.59 161.463
L392.887 264.015
L392.962 271.1
L393.11 240.531
L393.259 222.474
L393.334 224.258
L393.408 224.094
L393.854 194.165
L394.078 171.649
L394.152 173.295
L394.375 212.335
L394.673 258.974
L394.747 263.047
L394.822 258.421
L395.119 221.044
L395.194 221.316
L395.64 248.372
L395.714 244.156
L396.086 174.552
L396.161 175.572
L396.31 192.627
L396.682 244.692
L396.756 243.098
L397.426 193.854
L397.649 202.239
L397.798 194.07
L397.872 195.854
L398.021 198.995
L398.17 186.207
L398.244 178.552
L398.318 178.678
L398.467 211.514
L398.765 280.716
L398.914 267.013
L399.658 170.578
L399.806 187.456
L399.955 201.647
L400.104 195.958
L400.178 197.098
L400.402 234.6
L400.55 251.582
L400.699 230.958
L400.922 195.02
L400.997 196.649
L401.369 244.152
L401.443 240.225
L401.592 234.937
L401.741 238.579
L401.815 235.231
L402.187 194.463
L402.336 179.918
L402.485 169.783
L402.634 181.136
L402.931 204.468
L403.08 220.223
L403.378 261.043
L403.526 263.263
L403.601 260.378
L404.27 168.664
L404.419 137.223
L404.494 148.891
L404.717 212.11
L404.866 236.453
L405.163 296.519
L405.238 293.78
L405.386 269.964
L405.758 173.515
L405.833 169.688
L405.907 170.068
L406.13 178.635
L406.354 211.289
L406.651 188.117
L406.726 188.065
L407.023 200.861
L407.321 258.062
L407.395 258.567
L407.47 257.379
L407.544 252.204
L407.618 254.826
L407.916 296.951
L408.065 241.599
L408.362 134.022
L408.437 138.459
L408.586 178.773
L408.883 270.365
L408.958 273.532
L409.106 247.037
L409.478 167.117
L409.702 152.023
L409.925 180.432
L409.999 178.959
L410.148 167.044
L410.222 172.535
L410.446 250.714
L410.52 243.378
L410.594 236.773
L410.743 261.587
L410.966 295.866
L411.041 297.244
L411.338 262.468
L411.636 183.011
L411.859 129.823
L411.934 125.002
L412.008 129.901
L412.231 201.66
L412.529 283.878
L413.347 168.871
L413.422 168.4
L413.719 194.532
L413.942 239.801
L414.017 239.279
L414.24 260.049
L414.389 259.457
L414.463 257.915
L414.761 233.395
L414.835 245.076
L414.91 237.425
L415.356 75.8228
L416.249 337.675
L416.323 321.203
L416.621 243.581
L416.695 249.802
L416.77 268.918
L416.844 268.313
L417.216 119.446
L417.29 114.53
L417.365 119.325
L417.588 177.796
L417.811 302.83
L417.886 302.355
L418.332 191.327
L418.63 215.324
L418.778 225.338
L418.853 222.025
L419.076 195.301
L419.15 198.368
L419.448 242.143
L419.522 240.328
L419.969 219.908
L420.043 221.731
L420.118 221.325
L420.341 195.586
L420.49 184.721
L420.638 209.635
L420.713 201.293
L420.787 188.916
L421.01 256.295
L421.68 186.544
L421.754 189.253
L421.903 255.63
L422.126 190.147
L422.201 202.58
L422.275 201.124
L422.424 171.105
L422.722 292.298
L422.796 287.248
L423.168 207.207
L423.317 135.573
L423.391 138.329
L423.466 142.394
L423.763 245.085
L423.838 240.048
L424.21 147.863
L424.656 241.897
L424.73 276.202
L424.805 274.694
L424.879 253.306
L424.954 255.219
L425.028 259.583
L425.102 255.207
L425.326 210.715
L425.623 278.992
L425.698 279.511
L425.772 282.677
L425.921 258.887
L426.367 125.922
L426.442 129.322
L426.739 186.281
L426.888 187.802
L427.037 197.357
L427.334 233.762
L427.483 228.785
L427.632 236.319
L427.855 244.376
L428.004 233.844
L428.302 213.415
L428.45 211.173
L428.599 215.648
L428.748 219.471
L428.822 219.208
L428.897 219.808
L429.046 225.554
L429.269 245.487
L429.418 257.595
L429.492 256.719
L429.641 239.011
L430.162 155.648
L430.236 155.281
L430.31 158.339
L430.534 192.243
L430.831 220.893
L430.906 224.323
L430.98 222.763
L431.129 219.476
L431.203 220.392
L431.278 222.776
L431.426 240.449
L431.65 268.888
L431.724 264.456
L432.17 179.978
L432.468 191.931
L432.766 232.66
L432.989 264.175
L433.063 264.045
L433.212 252.934
L433.435 233.719
L433.51 234.959
L433.658 242.89
L433.733 242.38
L433.882 229.36
L434.328 157.043
L434.402 154.278
L434.477 155.592
L434.551 158.071
L434.626 158.037
L434.7 156.533
L434.774 157.916
L434.923 173.632
L435.444 276.478
L435.518 274.923
L435.965 218.344
L436.039 225.23
L436.188 259.025
L436.262 248.359
L436.56 130.713
L436.709 192.459
L436.932 277.027
L437.006 271.778
L437.23 190.683
L437.453 233.054
L437.75 171.502
L438.122 246.839
L438.197 243.292
L438.494 178.894
L438.569 186.747
L439.015 294.912
L439.685 174.142
L439.982 187.754
L440.131 205.125
L440.206 201.798
L440.429 179.516
L440.503 182.497
L440.875 238.566
L440.95 236.099
L441.247 217.653
L441.545 243.828
L441.694 255.379
L442.363 183.931
L442.438 183.348
L442.884 221.333
L443.107 235.611
L443.479 223.58
L443.554 225.554
L443.777 245.547
L443.851 244.018
L444.298 186.35
L444.372 186.156
L444.446 189.374
L444.744 225.299
L444.818 224.975
L444.893 224.833
L445.042 220.59
L445.637 185.08
L445.711 187.24
L445.786 187.175
L446.902 268.503
L446.976 268.175
L447.125 258.555
L447.497 207.527
L447.794 182.047
L447.869 182.229
L448.241 192.765
L448.538 188.778
L448.687 195.768
L449.059 227.217
L449.134 228.919
L449.282 226.167
L449.357 223.377
L449.729 196.467
L449.803 195.781
L449.878 196.053" style="fill:none;stroke:#808080;stroke-linecap:square;"/>
   </g>
  </g>
 </g>
 <defs>
  <clipPath id="p7ff5b81e1d">
   <rect height="345.6" width="446.4" x="72.0" y="43.2"/>
  </clipPath>
 </defs>
</svg>
