<?xml version="1.0" encoding="utf-8" standalone="no"?>
<!DOCTYPE svg PUBLIC "-//W3C//DTD SVG 1.1//EN"
  "http://www.w3.org/Graphics/SVG/1.1/DTD/svg11.dtd">
<!-- Created with matplotlib (http://matplotlib.org/) -->
<svg height="432pt" version="1.1" viewBox="0 0 576 432" width="576pt" xmlns="http://www.w3.org/2000/svg" xmlns:xlink="http://www.w3.org/1999/xlink">
 <defs>
  <style type="text/css">
*{stroke-linecap:butt;stroke-linejoin:round;}
  </style>
 </defs>
 <g id="figure_1">
  <g id="patch_1">
   <path d="
M0 432
L576 432
L576 0
L0 0
z
" style="fill:#ffffff;"/>
  </g>
  <g id="axes_1">
   <g id="line2d_1">
    <path clip-path="url(#p7ff5b81e1d)" d="
M72 209.912
L72.0744 206.427
L72.2232 203.254
L72.744 229.686
L72.8184 230.182
L73.3392 209.705
L73.4136 209.267
L73.488 209.48
L73.5624 209.382
L73.7112 204.388
L73.86 207.516
L74.232 219.215
L74.3808 221.951
L74.7528 236.103
L75.6456 205.051
L75.8688 207.499
L76.092 203.444
L76.1664 203.899
L76.3152 208.53
L76.6128 220.522
L76.7616 222.486
L76.9104 222.354
L77.0592 227.486
L77.208 224.952
L77.4312 220.159
L77.5056 218.886
L77.8032 198.219
L77.8776 199.538
L78.3984 218.518
L78.4728 217.786
L78.5472 218.495
L78.7704 223.431
L78.8448 223.748
L78.9192 222.815
L79.2168 211.888
L79.44 205.022
L79.6632 211.346
L80.0352 228.897
L80.184 229.629
L80.2584 228.834
L80.3328 229.992
L80.4072 228.701
L80.7048 215.995
L80.7792 216.196
L80.928 218.978
L81.2256 214.549
L81.5232 192.281
L81.5976 190.582
L82.1184 218.961
L82.3416 229.162
L82.4904 231.288
L82.8624 227.624
L83.0856 223.627
L83.16 222.803
L83.6064 208.783
L83.7552 201.572
L83.8296 202.983
L84.0528 211.79
L84.4992 225.971
L84.5736 225.769
L84.8712 214.491
L85.1688 201.48
L85.392 196.491
L85.4664 197.292
L85.8384 220.804
L86.0616 227.446
L86.136 228.638
L86.2848 222.717
L86.3592 223.857
L86.508 227.192
L86.5824 227.112
L86.6568 226.795
L87.1032 213.656
L87.252 211.675
L87.4008 217.118
L87.624 223.264
L87.6984 223.638
L87.7728 222.866
L87.9216 217.728
L88.1448 208
L88.2192 207.119
L88.2936 207.983
L88.6656 216.553
L88.74 217.348
L88.8144 216.329
L89.0376 203.121
L89.1864 207.816
L89.3352 213.374
L89.484 208.466
L89.6328 214.175
L89.7816 211.128
L89.9304 218.927
L90.3024 244.19
L90.3768 241.915
L90.8976 196.226
L90.972 196.503
L91.344 206.796
L91.4184 205.944
L91.6416 208.046
L92.3112 226.72
L92.5344 242.076
L92.6088 241.972
L92.7576 231.08
L92.9808 215.528
L93.204 210.609
L93.5016 197.171
L93.576 199.118
L93.6504 199.711
L93.7992 204.665
L94.1712 228.177
L94.2456 227.572
L94.3944 224.617
L94.4688 225.216
L94.6176 219.094
L94.692 219.272
L94.7664 218.817
L94.9896 205.131
L95.064 206.594
L95.1384 207.844
L95.2128 206.79
L95.2872 207.159
L95.6592 216.732
L95.7336 216.646
L95.808 215.442
L95.9568 220.464
L96.1056 213.823
L96.2544 219.226
L96.4032 214.774
L96.4776 214.837
L96.552 215.016
L96.6264 213.639
L96.7008 213.673
L96.9984 221.04
L97.1472 225.291
L97.296 222.613
L97.4448 224.364
L97.5192 224.22
L97.5936 226.184
L97.668 225.516
L97.9656 209.889
L98.1144 204.861
L98.2632 203.064
L98.412 207.867
L98.7096 223.143
L98.8584 214.399
L99.0816 198.277
L99.2304 202.119
L99.3792 207.384
L99.8256 232.825
L100.049 239.38
L100.123 239.288
L100.272 240.901
L100.57 218.587
L100.793 202.966
L101.016 196.584
L101.239 195.547
L101.314 197.712
L101.686 226.645
L101.76 226.201
L101.983 218.063
L102.132 209.976
L102.206 210.834
L102.355 208.34
L102.504 210.903
L102.578 209.78
L102.653 206.41
L102.727 206.427
L102.876 210.77
L102.95 208.207
L103.174 216.214
L103.248 216.191
L103.322 217.072
L103.694 228.292
L103.769 229.508
L103.918 235.354
L103.992 235.147
L104.29 219.203
L104.438 224.554
L104.513 224.473
L104.736 219.9
L104.959 206.145
L105.182 193.444
L105.703 213.679
L106.001 217.17
L106.15 219.796
L106.298 217.561
L106.373 217.579
L106.522 221.449
L106.894 212.326
L107.042 221.173
L107.266 230.55
L107.34 229.836
L107.489 223.298
L107.861 198.807
L107.935 197.816
L108.084 200.31
L108.158 199.164
L108.233 199.515
L108.754 225.666
L108.902 228.978
L109.2 217.936
L109.274 218.794
L109.572 239.029
L109.646 238.102
L109.944 221.15
L110.093 205.471
L110.167 205.483
L110.242 208.415
L110.316 208.15
L110.39 206.629
L110.539 208.95
L110.688 205.684
L110.837 202.931
L110.986 205.264
L111.209 211.26
L111.506 224.013
L111.655 226.173
L112.325 207.533
L112.474 211.237
L112.92 230.712
L113.069 224.721
L113.515 198.916
L113.59 200.12
L114.036 219.065
L114.259 232.941
L114.334 234.98
L114.408 233.499
L114.78 209.676
L114.854 209.613
L115.078 213.276
L115.152 215.056
L115.45 205.817
L115.524 206.393
L115.598 206.243
L115.673 206.335
L116.045 221.461
L116.119 222.06
L116.342 218.218
L116.417 219.082
L116.566 222.757
L116.938 217.728
L117.012 217.654
L117.161 223.73
L117.31 228.667
L117.458 224.37
L117.756 213.126
L117.979 221.899
L118.128 220.781
L118.277 211.035
L118.5 191.065
L118.574 191.423
L119.021 214.082
L119.095 214.584
L119.318 217.193
L119.467 217.775
L119.69 209.503
L119.765 209.878
L119.914 214.566
L120.137 206.882
L120.211 209.647
L120.434 233.361
L120.509 232.324
L120.583 229.663
L120.658 230.383
L120.732 230.665
L120.955 222.619
L121.253 231.656
L121.327 230.976
L121.55 220.148
L121.774 211.859
L121.848 210.909
L122.071 202.626
L122.22 207.43
L122.294 207.36
L122.443 202.274
L122.592 197.344
L122.815 206.41
L122.964 219.969
L123.038 218.904
L123.113 215.177
L123.187 216.484
L123.336 223.224
L123.41 222.63
L123.559 218.264
L123.857 232.244
L123.931 230.988
L124.154 222.423
L124.229 222.486
L124.526 210.361
L124.601 211.41
L124.75 222.601
L124.973 213.034
L125.196 197.05
L125.27 198.997
L125.345 201.842
L125.419 199.734
L125.494 200.644
L125.791 214.088
L125.866 214.831
L126.014 225.965
L126.089 223.535
L126.238 218.639
L126.312 218.235
L126.61 225.026
L126.758 231.547
L126.833 229.012
L126.907 233.891
L126.982 233.183
L127.205 218.95
L127.354 212.867
L127.428 214.215
L127.502 218.575
L127.651 210.212
L127.8 217.256
L127.874 215.701
L128.023 218.65
L128.172 213.593
L128.246 214.249
L128.693 193.807
L129.288 223.212
L129.362 222.498
L129.437 220.822
L129.586 225.268
L130.032 243.332
L130.106 242.404
L130.33 220.522
L130.478 208.15
L130.627 209.532
L130.925 207.205
L131.148 195.264
L131.446 212.683
L131.52 212.706
L131.818 223.811
L132.041 217.561
L132.115 216.962
L132.338 203.49
L132.413 205.051
L132.934 218.702
L133.231 229.594
L133.752 210.373
L133.826 211.508
L134.198 236.921
L134.347 240.722
L134.422 239.933
L134.868 199.953
L134.942 200.495
L135.166 213.264
L135.314 209.924
L135.612 196.226
L135.761 203.334
L135.835 202.482
L136.133 212.262
L136.207 210.713
L136.43 202.925
L136.505 204.665
L137.026 235.366
L137.174 226.783
L137.323 217.412
L137.621 225.597
L137.695 225.994
L137.993 222.688
L138.142 228.707
L138.216 228.373
L138.439 219.635
L138.737 206.203
L138.811 207.245
L138.886 206.859
L139.258 200.04
L139.406 206.456
L139.481 205.932
L139.63 214.284
L139.853 230.372
L139.927 229.312
L140.225 214.745
L140.299 214.584
L140.448 218.592
L140.597 213.956
L140.671 215.067
L140.82 220.891
L141.043 225.481
L141.118 225.481
L141.415 205.074
L141.49 209.423
L141.713 233.949
L141.787 234.553
L142.01 205.915
L142.308 175.83
L142.382 175.899
L142.457 177.12
L142.531 180.674
L143.201 260.882
L143.424 267.19
L143.647 260.329
L143.722 262.438
L143.796 262.098
L143.945 251.119
L144.466 131.524
L144.54 134.514
L144.689 148.246
L145.21 226.15
L145.433 241.368
L145.582 235.896
L145.954 259.811
L146.028 258.112
L146.549 213.973
L146.846 223.719
L147.07 239.363
L147.144 237.019
L147.442 193.07
L147.665 161.229
L147.739 161.188
L147.888 167.075
L148.855 254.633
L148.93 253.262
L149.376 225.729
L149.45 227.883
L149.599 231.472
L149.674 230.101
L149.971 211.6
L150.269 194.815
L150.343 196.221
L150.641 208.386
L150.79 210.31
L150.864 210.511
L150.938 209.768
L151.162 215.603
L151.31 212.533
L151.459 219.307
L151.757 243.193
L151.906 247.243
L152.054 245.601
L152.501 203.951
L152.724 170.704
L152.798 168.192
L153.022 173.083
L153.096 173.163
L153.17 172.57
L153.319 186.256
L153.691 240.002
L153.914 241.339
L154.435 228.079
L154.807 235.89
L155.179 224.376
L155.328 218.477
L155.402 218.379
L155.849 199.072
L155.923 199.302
L156.072 198.237
L156.146 198.479
L156.295 195.08
L156.444 199.25
L156.667 209.273
L156.742 207.072
L156.816 207.723
L157.262 234.784
L157.337 234.548
L157.56 230.429
L158.006 209.613
L158.527 220.873
L158.602 219.445
L158.825 209.981
L158.899 209.993
L158.974 210.966
L159.122 220.05
L159.346 240.786
L159.42 239.559
L159.569 228.327
L159.941 182.276
L160.015 180.444
L160.164 191.889
L160.462 222.279
L160.536 222.112
L160.685 218.011
L160.982 231.541
L161.28 209.411
L161.354 209.544
L161.578 215.188
L161.726 210.148
L161.801 210.845
L162.247 225.764
L162.322 223.212
L162.545 215.125
L162.917 242.468
L163.066 234.6
L163.289 228.793
L163.438 222.601
L163.661 204.325
L163.884 175.41
L163.958 174.016
L164.033 174.235
L164.182 184.902
L164.479 211.283
L164.926 226.311
L165.074 227.215
L165.149 225.873
L165.521 189.723
L165.595 189.787
L165.744 225.193
L165.967 312.273
L166.042 310.816
L166.19 274.43
L166.637 124.347
L166.711 126.997
L166.934 159.057
L167.306 241.984
L167.604 321.218
L167.678 320.256
L167.902 262.472
L168.274 149.156
L168.422 141.46
L168.646 161.453
L169.092 223.811
L169.39 248.36
L169.538 248.475
L169.613 248.36
L169.687 247.45
L169.836 240.371
L170.208 183.837
L170.282 187.2
L170.58 225.764
L170.729 219.589
L171.25 184.626
L171.398 190.864
L171.547 212.775
L171.919 269.856
L171.994 274.102
L172.068 273.37
L172.366 235.354
L172.812 162.306
L172.886 164.483
L173.035 182.431
L173.258 214.814
L173.407 217.556
L173.556 216.749
L173.705 220.943
L173.928 228.465
L174.002 227.803
L174.226 211.352
L174.3 211.778
L174.598 219.779
L174.672 218.886
L174.97 199.32
L175.416 254.996
L175.49 253.147
L175.565 252.15
L175.788 237.128
L176.532 151.339
L176.606 150.93
L176.681 154.61
L176.904 195.086
L177.276 266.009
L177.499 275.991
L177.648 268.607
L178.169 210.77
L178.392 166.24
L178.466 167.565
L178.69 197.43
L178.987 234.513
L179.285 224.934
L179.657 201.324
L179.731 201.192
L179.806 201.531
L180.103 206.341
L180.178 206.07
L180.401 197.252
L180.475 199.723
L180.624 213.673
L180.922 246.528
L180.996 246.471
L181.219 233.972
L181.74 190.703
L181.963 201.41
L182.41 230.101
L182.633 222.561
L182.856 212.049
L182.93 213.472
L183.005 212.959
L183.302 206.191
L183.674 220.182
L183.823 218.385
L183.972 214.728
L184.046 214.86
L184.195 222.112
L184.344 243.689
L184.642 279.597
L184.79 267.426
L185.46 158.625
L185.683 137.849
L185.758 139.093
L185.981 158.919
L186.13 175.98
L186.576 245.797
L186.799 255.468
L187.171 281.958
L187.246 281.872
L187.394 273.03
L187.766 234.968
L188.287 172.893
L188.436 169.897
L188.585 175.145
L188.957 198.928
L189.254 193.283
L189.329 193.992
L189.478 205.661
L189.998 258.377
L190.073 255.399
L190.817 182.172
L190.966 177.794
L191.114 186.636
L191.635 243.447
L192.007 309.094
L192.082 309.526
L192.23 297.695
L192.454 255.474
L192.9 152.122
L193.123 134.162
L193.198 132.025
L193.272 132.181
L193.346 131.305
L193.495 144.035
L193.867 200.207
L193.942 201.174
L194.165 191.181
L194.314 218.155
L194.537 262.553
L194.686 260.566
L194.76 263.423
L195.132 308.097
L195.281 288.582
L196.322 128.921
L196.397 129.295
L196.471 130.649
L196.546 135.222
L196.694 170.162
L196.918 237.531
L196.992 232.278
L197.215 197.309
L197.736 254.235
L197.81 256.205
L198.48 206.704
L198.554 211.381
L198.926 268.393
L199.001 267.714
L199.15 240.861
L199.522 166.539
L199.67 161.741
L199.819 174.546
L200.34 254.523
L200.489 240.256
L201.01 155.411
L201.158 172.973
L201.605 245.094
L201.754 225.977
L201.902 212.867
L202.051 226.582
L202.498 291.399
L202.646 282.765
L202.795 257.507
L203.167 175.531
L203.316 167
L203.39 166.367
L203.465 164.155
L203.688 140.902
L203.911 118.466
L204.06 139.248
L204.878 336.258
L205.027 354.966
L205.176 337.94
L205.399 272.333
L205.846 123.472
L205.92 123.91
L206.143 157.871
L206.441 204.025
L206.664 208.075
L206.887 222.613
L207.036 227.538
L207.185 214.134
L207.482 170.001
L207.631 187.656
L208.152 256.643
L208.375 274.511
L208.45 273.226
L208.598 257.645
L209.194 156.384
L209.268 159.074
L209.491 197.603
L209.863 255.94
L209.938 259.114
L210.012 257.582
L210.31 245.584
L210.905 173.906
L210.979 175.646
L211.054 175.312
L211.426 134.779
L211.5 137.388
L211.723 193.623
L212.095 317.716
L212.244 331.316
L212.393 317.411
L212.616 275.012
L213.211 148.597
L213.286 147.013
L213.434 149.645
L213.583 159.207
L214.104 217.913
L214.178 216.974
L214.476 194.274
L214.55 196.428
L214.699 225.867
L214.997 286.751
L215.071 283.865
L215.741 215.315
L216.038 197.108
L216.485 166.758
L216.559 169.252
L216.782 203.778
L217.08 243.003
L217.154 241.846
L217.452 222.544
L217.526 222.55
L217.75 228.776
L217.824 227.722
L217.973 219.888
L218.345 194.896
L218.419 197.142
L218.568 218.921
L218.717 238.234
L218.94 240.452
L219.238 255.024
L219.386 244.559
L220.056 160.756
L220.13 159.518
L220.279 164.23
L220.502 210.678
L220.726 242.399
L220.8 241.707
L220.949 230.596
L221.246 206.796
L221.47 215.943
L221.767 227.561
L222.065 232.232
L222.362 226.282
L222.437 226.61
L222.586 224.9
L222.958 232.612
L223.032 229.957
L223.478 193.98
L223.702 186.901
L223.776 189.055
L224.148 223.483
L224.222 224.082
L224.371 219.894
L224.594 214.739
L224.743 213.126
L224.818 213.599
L224.892 213.351
L225.041 207.303
L225.413 213.316
L225.636 221.818
L225.71 221.352
L226.157 234.755
L226.38 242.727
L226.529 239.686
L227.273 183.157
L227.422 169.823
L227.496 169.874
L227.57 170.093
L227.719 177.748
L228.166 229.398
L228.389 244.587
L228.835 264.655
L228.91 263.768
L228.984 262.127
L229.133 241.897
L229.728 153.677
L229.802 156.914
L230.026 191.722
L230.398 249.777
L230.621 253.993
L230.695 252.398
L231.067 229.329
L231.514 190.127
L231.588 189.044
L231.662 189.528
L231.737 188.969
L231.811 189.579
L232.034 202.165
L232.481 245.676
L232.63 242.174
L232.853 227.209
L233.225 181.573
L233.448 158.988
L233.522 160.105
L233.671 179.851
L234.118 255.71
L234.192 259.736
L234.266 255.917
L234.564 226.824
L234.936 255.272
L235.01 254.489
L235.308 234.294
L235.829 193.485
L236.052 192.494
L236.275 188.237
L236.35 187.028
L236.498 180.075
L236.573 181.095
L237.019 166.303
L237.168 181.947
L237.763 270.306
L237.912 268.221
L238.061 265.272
L238.135 265.709
L238.284 260.468
L239.102 201.37
L239.549 135.833
L239.623 139.652
L239.846 186.596
L240.293 303.149
L240.367 305.545
L240.442 301.865
L240.59 273.364
L241.111 152.128
L241.26 146.137
L241.334 148.079
L241.706 198.3
L242.078 243.971
L242.227 248.965
L242.376 243.349
L242.674 215.603
L242.971 188.26
L243.12 197.275
L243.641 236.621
L243.938 254.362
L244.013 256.05
L244.087 254.875
L244.31 236.639
L244.682 204.768
L244.906 195.483
L245.054 190.795
L245.501 158.4
L245.575 160.284
L245.798 189.695
L246.394 284.303
L246.542 289.861
L246.617 289.993
L246.766 278.629
L247.51 167.605
L247.733 162.732
L247.807 162.098
L247.956 168.457
L248.179 183.514
L248.477 219.399
L248.774 246.143
L248.849 245.497
L249.37 218.126
L249.667 206.819
L249.742 206.9
L249.89 215.327
L250.337 246.131
L250.486 237.986
L251.081 195.155
L251.304 186.302
L251.378 188.802
L251.899 242.496
L251.974 242.381
L252.346 225.862
L252.42 223.932
L252.494 224.721
L252.569 223.598
L252.792 208.726
L252.941 200.276
L253.015 200.016
L253.164 204.446
L253.462 217.129
L253.685 220.511
L253.759 221.087
L253.908 214.169
L254.503 192.984
L254.578 193.675
L254.95 208.921
L255.024 208.881
L255.173 204.008
L255.396 197.367
L255.545 211.427
L255.842 275.904
L256.066 324.139
L256.14 317.4
L256.363 231.167
L256.661 150.544
L256.81 138.753
L256.884 140.959
L257.107 180.79
L257.479 250.451
L257.554 250.56
L257.777 228.056
L258.149 184.522
L258.223 184.833
L258.372 197.211
L258.818 259.362
L258.893 257.052
L259.116 226.777
L259.414 182.852
L259.488 180.479
L259.562 180.876
L259.711 191.676
L260.158 234.461
L260.232 231.599
L260.604 193.462
L260.678 195.743
L260.902 219.716
L261.274 255.958
L261.422 259.529
L261.571 265.842
L261.72 253.302
L262.464 138.137
L262.538 144
L263.059 277.033
L263.134 271.464
L263.357 194.21
L263.58 131.997
L263.878 185.242
L264.175 278.946
L264.25 279.585
L264.622 220.079
L264.696 225.551
L264.994 264.108
L265.068 260.905
L265.366 241.874
L265.514 254.765
L265.738 282.027
L265.812 278.905
L265.961 240.388
L266.258 118.691
L266.333 123.731
L266.705 210.96
L266.779 205.494
L267.077 161.747
L267.151 162.11
L267.3 152.145
L267.449 140.429
L267.523 142.86
L267.672 174.482
L268.118 327.059
L268.267 292.269
L268.565 156.448
L268.639 155.734
L269.309 273.814
L269.383 273.595
L269.681 232.491
L269.904 266.107
L270.127 310.528
L270.202 308.086
L270.35 256.585
L270.648 149.795
L270.946 133.033
L271.02 132.803
L271.169 146.604
L271.392 157.917
L271.466 160.008
L271.615 174.713
L272.285 276.008
L272.359 275.76
L272.434 274.309
L272.657 256.413
L273.252 197.183
L273.326 196.802
L273.401 194.827
L273.624 200.207
L273.847 211.283
L273.996 202.776
L274.368 159.731
L274.442 161.776
L274.591 197.269
L275.038 340.175
L275.112 339.028
L275.261 310.401
L275.93 109.728
L276.005 101.042
L276.079 101.428
L276.228 113.979
L276.526 155.906
L276.6 154.789
L276.749 182.328
L277.195 359.81
L277.27 355.202
L277.418 304.272
L277.716 200.103
L277.79 191.544
L277.865 193.11
L278.311 236.76
L278.386 236.569
L278.609 220.096
L279.13 175.951
L279.204 177.472
L279.353 193.945
L279.576 226.898
L279.65 224.232
L280.097 184.724
L280.171 181.124
L280.469 146.46
L280.618 168.884
L281.213 332.053
L281.287 332.157
L281.51 249.449
L281.734 195.161
L281.808 196.111
L281.957 218.869
L282.254 274.349
L282.329 272.339
L282.478 255.007
L283.147 118.587
L283.296 139.496
L283.668 203.991
L284.04 223.967
L284.189 222.699
L284.263 223.465
L284.858 244.138
L285.082 236.656
L285.305 227.348
L285.751 222.803
L285.974 206.75
L286.272 187.892
L286.346 188.606
L286.718 214.457
L287.239 266.948
L287.314 264.275
L287.537 236.045
L287.983 158.752
L288.281 99.4354
L288.355 115.765
L288.876 336.091
L288.95 332.208
L289.248 266.867
L289.694 176.821
L289.918 148.943
L289.992 145.694
L290.066 147.975
L290.215 171.326
L290.513 223.823
L290.662 231.017
L290.81 227.711
L291.331 211.416
L291.778 203.622
L291.852 203.57
L292.298 227.48
L292.447 235.458
L293.042 226.685
L293.414 215.626
L293.489 216.012
L293.712 221.933
L293.786 221.599
L294.084 211.767
L294.158 212.147
L294.307 218.068
L294.605 230.418
L294.754 223.051
L295.051 202.856
L295.274 194.308
L295.349 193.156
L295.423 193.496
L295.572 194.7
L295.721 204.498
L296.093 234.686
L296.167 233.563
L296.762 184.908
L296.837 185.115
L297.209 215.39
L297.73 270.79
L297.953 279.182
L298.027 274.251
L298.325 198.559
L298.622 140.717
L298.697 141.524
L298.771 143.764
L298.92 161.108
L299.292 237.462
L299.59 292.712
L299.664 293.876
L299.813 278.721
L300.334 176.429
L300.408 177.063
L300.631 189.781
L300.854 201.203
L300.929 201.359
L301.003 200.708
L301.078 201.036
L301.152 200.46
L301.375 188.122
L301.45 191.716
L301.598 221.899
L301.896 301.715
L301.97 295.448
L302.342 148.603
L302.491 183.693
L302.714 249.241
L302.789 249.334
L302.938 220.067
L303.235 165.168
L303.384 169.673
L303.756 214.958
L304.277 313.776
L304.351 307.924
L304.574 258.256
L304.946 172.495
L305.095 160.969
L305.318 137.457
L305.467 175.375
L305.69 224.808
L305.988 190.184
L306.062 190.685
L306.955 274.303
L307.104 261.124
L307.699 184.931
L307.774 183.186
L307.848 183.71
L307.997 190.011
L308.741 238.603
L308.815 238.655
L308.89 239.985
L308.964 238.557
L309.41 198.836
L309.559 180.542
L309.857 127.861
L309.931 125.119
L310.006 126.473
L310.154 155.682
L310.378 261.971
L310.601 365.628
L310.675 365.703
L310.824 318.834
L311.122 205.143
L311.196 201.543
L311.494 230.015
L311.568 225.078
L311.94 187.696
L312.089 185.472
L312.238 187.189
L312.312 186.728
L312.461 176.585
L312.684 161.816
L312.758 164.506
L313.13 207.66
L313.651 253.584
L313.726 256.413
L313.874 247.899
L314.544 184.159
L314.618 186.659
L314.842 226.403
L315.139 276.728
L315.214 272.322
L315.511 192.891
L315.586 193.012
L315.883 227.976
L316.33 198.438
L316.404 198.144
L316.478 198.283
L316.627 198.012
L316.776 206.727
L317.297 278.831
L317.371 274.585
L317.52 233.01
L317.892 113.081
L318.041 145.452
L318.264 199.452
L318.413 178.514
L318.487 181.567
L318.71 222.711
L318.785 217.896
L318.859 215.586
L319.008 267.115
L319.157 313.224
L319.306 295.074
L319.454 336.753
L319.529 326.656
L319.901 134.427
L319.975 136.916
L320.124 133.742
L320.273 183.151
L320.57 296.888
L320.719 289.919
L320.942 307.665
L321.091 268.296
L321.314 156.315
L321.463 93.923
L321.612 120.834
L321.761 89.269
L321.835 91.8149
L321.984 116.577
L322.133 92.2814
L322.282 185.507
L322.505 370.213
L322.579 368.105
L322.877 291.117
L323.174 193.882
L323.323 214.123
L323.472 172.328
L323.695 225.66
L323.77 225.568
L324.067 209.693
L324.216 195.72
L324.514 204.244
L324.588 204.267
L324.737 194.844
L324.811 199.913
L325.183 267.887
L325.258 265.283
L325.63 196.152
L325.704 194.493
L325.853 247.364
L326.002 142.722
L326.076 154.829
L326.299 284.66
L326.82 124.814
L326.894 140.141
L327.266 235.953
L327.415 227.152
L327.564 237.451
L327.638 229.07
L327.713 232.428
L327.936 318.096
L328.234 236.8
L328.457 189.729
L328.754 142.941
L328.829 150.717
L328.978 119.791
L329.052 126.444
L329.498 290.074
L329.722 320.591
L329.796 316.858
L330.317 189.003
L330.54 146.143
L330.614 142.457
L330.689 144.841
L330.986 179.269
L331.358 254.846
L331.433 253.544
L331.507 250.226
L331.656 222.78
L331.879 152.208
L332.102 94.7698
L332.251 143.355
L332.623 325.227
L332.698 330.296
L332.846 320.141
L333.59 224.433
L333.888 191.693
L334.111 180.11
L334.409 161.943
L334.558 168.423
L334.781 176.107
L334.93 179.217
L335.153 191.561
L335.674 230.74
L335.822 230.153
L335.897 229.675
L336.269 235.003
L336.715 248.694
L336.79 247.202
L336.938 232.981
L337.385 178.647
L337.459 176.838
L337.534 178.635
L337.682 195.472
L338.054 244.875
L338.203 249.8
L338.501 247.663
L338.575 244.023
L339.022 179.338
L339.096 180.11
L339.319 188.088
L339.617 199.556
L339.84 193.007
L339.989 203.409
L340.286 232.52
L340.51 237.111
L340.807 253.694
L340.882 253.112
L341.03 244.276
L341.402 218.569
L341.626 214.117
L341.849 217.158
L341.998 210.338
L342.444 168.429
L342.518 169.632
L342.742 184.355
L342.89 206.422
L343.188 271.896
L343.262 264.517
L343.709 143.16
L343.783 148.983
L344.006 212.205
L344.304 281.463
L344.378 283.721
L345.197 243.994
L345.42 213.996
L345.718 176.504
L346.015 164.149
L346.09 162.928
L346.164 163.475
L346.313 167.375
L346.61 187.022
L346.834 211.289
L347.131 249.823
L347.206 252.479
L347.28 251.805
L347.354 239.415
L347.652 99.5506
L348.322 350.053
L348.47 331.569
L348.842 236.333
L349.214 141.622
L349.438 123.984
L349.512 123.097
L349.661 129.854
L349.958 171.539
L350.405 241.702
L350.479 244.086
L350.554 244.046
L350.851 238.827
L351 237.503
L351.372 243.026
L351.595 244.063
L351.67 242.687
L352.339 206.975
L352.86 162.628
L352.934 163.815
L353.083 177
L353.753 250.025
L353.976 260.162
L354.05 260.116
L354.125 259.903
L354.348 256.516
L354.497 245.405
L354.72 216.11
L355.018 177.38
L355.166 172.806
L355.241 173.359
L355.39 183.531
L355.687 210.166
L355.762 207.977
L355.985 189.516
L356.134 202.205
L356.282 239.899
L356.58 311.997
L356.654 312.123
L356.803 279.291
L357.25 109.239
L357.398 100.282
L357.547 129.37
L357.994 257.386
L358.068 255.474
L358.291 241.598
L358.514 238.286
L358.812 219.577
L358.886 223.068
L359.333 304.618
L359.407 303.61
L359.63 263.284
L359.854 204.129
L360.226 94.3147
L360.3 92.1432
L360.374 98.2834
L360.672 197.476
L360.895 258.446
L360.97 261.539
L361.416 212.994
L362.011 236.731
L362.086 233.597
L362.234 230.665
L362.309 231.403
L362.458 238.056
L362.532 237.289
L362.681 222.048
L362.978 186.584
L363.053 187.586
L363.871 234.369
L364.094 242.26
L364.169 241.298
L364.318 223.316
L364.615 157.439
L364.764 181.631
L365.062 233.966
L365.136 235.204
L365.285 253.227
L365.508 267.852
L365.657 252.26
L365.954 187.391
L366.252 125.592
L366.326 126.755
L366.475 157.243
L366.996 308.708
L367.145 319.577
L367.294 313.229
L367.442 282.909
L367.814 167.248
L368.112 126.484
L368.186 126.513
L368.335 138.338
L369.451 269.223
L369.526 269.252
L369.972 254.811
L370.418 228.361
L370.865 201.531
L371.014 199.584
L371.088 199.682
L371.311 208.213
L371.386 205.385
L371.758 171.983
L371.832 173.906
L372.204 206.249
L372.65 258.083
L372.799 262.875
L372.948 256.297
L373.171 233.759
L373.543 175.266
L373.692 182.063
L373.766 180.795
L373.841 179.494
L373.915 182.875
L374.287 247.663
L374.362 239.904
L374.659 205.673
L374.734 204.44
L374.882 210.217
L375.254 246.857
L375.329 243.764
L376.222 171.775
L376.445 155.175
L376.594 181.849
L376.742 204.936
L376.891 201.618
L377.04 243.205
L377.263 305.926
L377.486 280.979
L378.23 173.803
L378.305 174.511
L378.528 205.154
L378.602 204.688
L378.826 161.787
L378.9 162.214
L379.198 248.637
L379.272 237.353
L379.495 185.496
L379.57 191.158
L379.867 243.741
L379.942 241.275
L380.09 231.852
L380.165 233.01
L380.314 238.067
L380.462 237.468
L380.611 256.695
L380.686 266.671
L380.76 254.31
L380.983 116.047
L381.058 121.727
L381.578 301.076
L381.653 290.932
L381.876 242.485
L381.95 247.583
L382.025 245.428
L382.322 222.768
L382.397 222.682
L382.471 221.616
L382.62 209.175
L382.843 191.924
L383.066 214.002
L383.215 190.075
L383.513 136.294
L383.81 221.893
L383.885 211.341
L384.034 194.216
L384.108 194.038
L384.182 196.44
L384.852 298.144
L384.926 297.453
L385.075 275.778
L385.447 200.713
L385.894 165.019
L385.968 166.021
L386.191 181.769
L386.414 171.752
L386.563 191.106
L386.935 251.632
L387.233 270.755
L387.307 268.411
L387.456 247.767
L387.754 212.735
L388.126 186.313
L388.274 188.116
L388.646 202.326
L388.795 209.958
L389.018 235.717
L389.242 262.109
L389.316 258.239
L389.837 181.21
L389.911 181.809
L390.134 198.726
L390.432 222.561
L390.655 227.555
L390.878 230.447
L391.027 228.753
L391.25 223.085
L391.399 241.598
L391.548 273.577
L391.771 182.817
L391.846 182.99
L392.069 212.953
L392.292 276.786
L392.366 275.271
L392.515 231.927
L392.813 116.093
L392.962 107.344
L393.11 126.335
L393.706 305.373
L393.854 369.349
L393.929 367.2
L394.152 270.288
L394.524 90.6053
L394.598 90.997
L394.97 189.873
L395.342 352.749
L395.417 352.472
L395.491 347.196
L395.64 296.243
L395.938 147.284
L396.012 141.282
L396.086 142.889
L396.161 143.724
L396.235 142.486
L396.31 143.085
L396.458 166.107
L396.682 204.936
L396.905 175.444
L397.128 217.942
L397.426 255.099
L397.798 273.814
L397.872 275.76
L397.946 273.768
L398.17 248.02
L398.616 175.992
L398.765 166.948
L399.062 141.19
L399.137 147.261
L399.732 247.905
L399.955 260.865
L400.03 262.276
L400.178 256.689
L400.699 211.899
L400.774 212.354
L401.22 245.63
L401.294 239.91
L401.666 164.109
L401.815 180.421
L402.187 246.183
L402.262 244.253
L402.485 217.988
L402.782 179.643
L402.857 178.935
L403.229 198.438
L403.526 242.698
L404.122 182.074
L404.196 183.22
L404.345 220.096
L404.642 285.224
L404.717 281.394
L404.94 209.774
L405.014 215.171
L405.312 290.771
L405.386 285.213
L405.758 197.09
L405.833 194.262
L405.982 150.797
L406.205 94.6258
L406.279 99.6485
L406.428 144.398
L406.726 249.84
L406.8 248.297
L406.874 248.366
L407.023 261.205
L407.098 267.38
L407.172 266.677
L407.246 266.274
L407.395 278.617
L407.47 277.967
L407.544 274.39
L407.693 281.722
L407.767 276.544
L407.99 218.08
L408.437 122.642
L408.586 101.682
L408.66 104.786
L408.809 139.646
L409.032 193.842
L409.181 220.159
L409.553 303.253
L409.702 291.33
L409.925 261.85
L410.371 180.911
L410.52 176.752
L410.669 188.71
L411.041 234.358
L411.19 241.339
L411.338 232.785
L411.636 211.093
L411.934 202.971
L412.231 225.925
L412.306 219.186
L412.529 174.454
L412.603 177.633
L412.901 257.167
L412.975 255.215
L413.347 199.584
L413.57 208.668
L414.017 239.386
L414.091 238.735
L414.463 215.413
L414.538 216.398
L414.612 217.492
L414.761 213.201
L414.835 214.762
L414.91 214.975
L415.058 190.34
L415.207 166.424
L415.356 200.397
L415.579 279.746
L415.654 272.719
L416.026 168.423
L416.174 154.812
L416.249 155.889
L416.398 171.499
L417.142 285.915
L417.216 287.154
L417.439 274.614
L417.886 209.002
L418.183 168.1
L418.332 173.244
L418.481 171.142
L418.555 177.097
L418.778 217.59
L419.15 166.971
L419.225 171.245
L420.043 272.397
L420.192 278.612
L420.341 267.645
L420.638 232.566
L420.862 271.118
L420.936 251.252
L421.234 65.4226
L421.308 74.2642
L421.829 292.522
L421.903 285.829
L422.126 269.989
L422.424 178.296
L422.498 180.271
L422.796 201.779
L422.945 204.043
L423.019 207.337
L423.168 234.254
L423.317 249.95
L423.763 183.024
L423.838 179.874
L423.912 182.253
L424.21 221.121
L424.284 220.309
L424.507 193.352
L424.656 180.703
L424.73 182.967
L424.879 227.008
L425.102 350.963
L425.177 330.302
L425.474 143.206
L425.549 133.944
L425.623 139.767
L426.218 269.649
L426.367 265.225
L426.59 272.448
L426.739 261.839
L426.888 231.42
L427.186 159.097
L427.26 162.588
L427.334 172.599
L427.409 172.029
L427.632 138.563
L427.706 149.046
L428.078 262.248
L428.227 254.829
L428.525 219.307
L428.897 164.143
L429.046 181.821
L429.418 266.51
L429.492 261.631
L429.864 224.865
L429.938 226.253
L430.162 233.499
L430.236 233.234
L430.385 235.734
L430.534 241.2
L430.608 240.544
L430.757 231.207
L430.98 207.574
L431.129 213.668
L431.426 175.047
L431.501 175.68
L431.65 180.421
L431.947 152.64
L432.096 185.346
L432.319 239.052
L432.468 218.984
L432.542 209.135
L432.617 209.181
L432.691 210.315
L432.914 189.574
L433.063 228.569
L433.361 335.889
L433.435 341.73
L433.584 323.995
L433.807 280.23
L434.105 181.233
L434.477 97.5058
L434.551 99.0494
L434.849 153.147
L435.221 209.607
L435.667 265.588
L435.816 269.678
L436.039 286.889
L436.188 270.191
L436.709 168.82
L436.858 193.894
L437.081 233.044
L437.23 211.312
L437.453 182.535
L437.527 181.072
L437.825 193.012
L438.122 260.687
L438.197 257.133
L438.42 247.058
L438.569 257.83
L438.643 255.819
L438.792 191.964
L438.941 121.813
L439.015 125.401
L439.462 260.462
L439.61 248.752
L439.759 254.293
L439.834 244.392
L439.982 189.493
L440.057 190.115
L440.206 217.014
L440.354 188.485
L440.578 113.812
L440.652 120.626
L441.247 309.549
L441.47 312.907
L441.619 285.639
L442.14 139.709
L442.289 149.34
L442.586 177.299
L442.884 224.099
L443.033 213.558
L443.256 198.744
L443.33 197.419
L443.405 197.482
L443.554 208.616
L443.777 228.482
L443.926 227.544
L444.223 234.432
L444.298 235.884
L444.372 234.79
L444.446 240.233
L444.818 311.064
L444.893 303.956
L445.339 131.87
L445.414 136.536
L445.711 205.247
L445.934 269.972
L446.009 257.467
L446.306 96.6533
L446.455 180.323
L446.753 369.528
L446.827 357.328
L447.199 161.448
L447.274 162.018
L447.571 198.162
L447.646 190.138
L447.72 192.713
L447.869 210.615
L448.092 201.865
L448.315 163.798
L448.39 174.615
L448.538 234.582
L448.687 227.146
L448.836 254.88
L448.985 236.42
L449.208 168.014
L449.282 173.014
L449.803 283.663
L449.878 276.158" style="fill:none;stroke:#808080;stroke-linecap:square;"/>
   </g>
  </g>
 </g>
 <defs>
  <clipPath id="p7ff5b81e1d">
   <rect height="345.6" width="446.4" x="72.0" y="43.2"/>
  </clipPath>
 </defs>
</svg>
