<?xml version="1.0" encoding="utf-8" standalone="no"?>
<!DOCTYPE svg PUBLIC "-//W3C//DTD SVG 1.1//EN"
  "http://www.w3.org/Graphics/SVG/1.1/DTD/svg11.dtd">
<!-- Created with matplotlib (http://matplotlib.org/) -->
<svg height="432pt" version="1.1" viewBox="0 0 576 432" width="576pt" xmlns="http://www.w3.org/2000/svg" xmlns:xlink="http://www.w3.org/1999/xlink">
 <defs>
  <style type="text/css">
*{stroke-linecap:butt;stroke-linejoin:round;}
  </style>
 </defs>
 <g id="figure_1">
  <g id="patch_1">
   <path d="
M0 432
L576 432
L576 0
L0 0
z
" style="fill:#ffffff;"/>
  </g>
  <g id="axes_1">
   <g id="line2d_1">
    <path clip-path="url(#p7ff5b81e1d)" d="
M72 211.318
L72.4464 221.064
L72.5208 220.252
L72.5952 218.703
L72.6696 219.112
L72.8184 220.943
L72.8928 220.414
L73.0416 221.577
L73.116 221.278
L73.3392 212.073
L73.488 213.058
L73.7112 220.091
L73.86 226.554
L74.1576 212.689
L74.232 210.558
L74.4552 200.374
L74.5296 199.701
L74.604 201.544
L74.976 225.678
L75.0504 225.137
L75.5712 211.048
L75.6456 211.261
L75.8688 216.952
L76.0176 225.396
L76.1664 222.372
L76.6128 209.268
L76.6872 209.072
L76.836 211.209
L76.9104 209.896
L77.0592 213.922
L77.3568 221.825
L77.58 214.377
L77.952 229.048
L78.0264 228.282
L78.696 208.156
L78.9192 205.374
L78.9936 205.017
L79.812 218.484
L79.9608 214.78
L80.1096 224.134
L80.3328 233.829
L81.1512 201.532
L81.2256 201.227
L81.3744 202.805
L81.4488 201.878
L81.5976 203.416
L82.1928 230.43
L82.2672 230.718
L82.6392 217.009
L82.8624 221.767
L82.9368 221.208
L83.16 216.001
L83.3088 219.694
L83.3832 219.348
L83.532 220.126
L83.6064 218.282
L83.8296 209.239
L83.9784 215.322
L84.0528 214.452
L84.2016 207.258
L84.276 208.11
L84.4248 211.082
L84.5736 208.266
L84.7224 210.696
L84.7968 210.241
L84.8712 211.18
L85.3176 231
L85.392 231.133
L85.4664 230.868
L85.6152 224.371
L85.8384 212.574
L85.9128 212.793
L85.9872 212.05
L86.136 208.888
L86.3592 218.357
L86.4336 217.977
L86.7312 203.531
L86.8056 203.957
L86.9544 208.225
L87.1032 211.416
L87.1776 210.731
L87.4752 219.071
L87.7728 222.769
L88.1448 214.671
L88.2192 215.316
L88.5912 229.63
L88.74 234.405
L88.8144 234.364
L88.9632 228.719
L89.1864 215.42
L89.3352 206.831
L89.4096 206.48
L89.484 206.549
L89.856 190.542
L89.9304 192.858
L90.228 205.518
L90.3024 206.595
L90.7488 225.788
L90.8976 225.92
L90.972 225.926
L91.1208 223.697
L91.344 230.367
L91.4928 226.358
L91.5672 227.222
L92.1624 213.369
L92.3856 204.625
L92.46 205.944
L92.5344 205.852
L92.6088 204.614
L92.6832 205.985
L92.832 211.468
L92.9064 210.466
L93.0552 214.198
L93.2784 219.578
L93.4272 221.669
L93.7992 214.838
L93.8736 214.884
L94.0968 218.484
L94.1712 218.565
L94.32 217.447
L94.5432 210.956
L94.6176 211.791
L94.7664 216.18
L94.8408 215.633
L94.9152 214.423
L95.5104 225.252
L95.6592 218.173
L95.9568 206.342
L96.1056 208.22
L96.18 207.286
L96.2544 208.093
L96.3288 207.454
L96.552 213.876
L96.8496 224.883
L96.9984 223.91
L97.1472 227.884
L97.296 221.064
L97.5936 206.895
L97.668 205.501
L97.9656 215.938
L98.04 214.913
L98.1144 214.193
L98.3376 220.062
L98.412 218.985
L98.6352 208.485
L98.784 210.074
L98.9328 215.224
L99.0816 219.434
L99.2304 218
L99.3048 218.346
L99.3792 218.323
L99.9 203.301
L99.9744 205.121
L100.495 237.526
L100.57 238.241
L100.644 236.801
L100.718 237.331
L100.793 237.273
L101.314 201.135
L101.388 200.841
L101.76 219.791
L101.834 220.062
L102.058 211.249
L102.355 200.225
L102.653 205.288
L102.802 211.198
L102.95 208.018
L103.025 208.554
L103.248 215.512
L103.322 216.151
L103.546 228.598
L103.769 245.233
L103.843 244.283
L104.141 221.191
L104.364 202.195
L104.959 221.882
L105.108 213.571
L105.182 213.864
L105.257 215.811
L105.629 209.343
L105.778 204.654
L106.001 208.669
L106.075 208.709
L106.15 209.014
L106.522 204.286
L106.67 210.719
L107.042 232.579
L107.117 231.916
L107.638 220.35
L107.861 216.451
L108.01 227.17
L108.158 232.124
L108.382 228.38
L108.53 221.295
L108.754 209.654
L109.051 201.503
L109.349 192.685
L109.498 197.356
L109.572 196.636
L109.721 197.984
L109.795 197.206
L109.87 198.502
L110.093 209.752
L110.167 211.209
L110.316 221.957
L110.539 243.891
L110.614 245.671
L110.688 243.966
L110.837 248.926
L111.06 242.555
L111.209 232.187
L111.506 214.319
L111.878 193.658
L112.027 190.611
L112.102 190.68
L112.399 201.889
L112.474 202.39
L112.622 207.966
L112.92 222.136
L112.994 222.165
L113.441 232.198
L113.515 232.083
L113.738 225.482
L113.887 227.873
L114.036 223.875
L114.334 211.848
L114.557 203.076
L114.854 195.513
L115.003 198.284
L115.078 197.926
L115.375 213.98
L115.598 229.151
L115.896 236.772
L115.97 238.131
L116.045 237.791
L116.119 237.492
L116.194 237.751
L116.268 235.781
L116.714 211.969
L117.012 198.428
L117.235 195.369
L117.384 198.779
L117.607 206.618
L117.83 224.572
L117.905 225.655
L118.054 232.078
L118.128 231.525
L118.426 213.968
L118.5 214.924
L118.574 214.688
L118.649 214.492
L119.318 200.265
L119.393 201.411
L119.69 215.725
L119.988 233.028
L120.211 237.682
L120.286 237.273
L120.658 220.592
L120.732 222.182
L120.881 224.895
L121.104 217.234
L121.402 203.6
L121.699 195.502
L121.774 195.864
L122.071 204.101
L122.443 232.152
L122.518 233.581
L122.592 233.518
L122.741 230.81
L123.038 218.576
L123.262 203.139
L123.336 205.063
L123.857 214.527
L123.931 215.425
L124.08 221.761
L124.229 219.578
L124.452 220.517
L124.526 218.783
L124.675 220.892
L124.973 215.109
L125.196 209.994
L125.419 201.089
L125.717 207.35
L126.014 214.164
L126.386 239.571
L126.461 238.874
L126.758 225.799
L127.13 199.885
L127.205 200.046
L128.023 226.87
L128.098 225.695
L128.172 226.168
L128.246 225.528
L128.916 206.837
L129.214 197.673
L129.362 200.415
L129.511 207.5
L129.586 207.494
L129.66 208.64
L130.181 232.216
L130.255 232.7
L130.404 232.089
L130.553 226.842
L130.925 204.602
L131.074 205.132
L131.222 208.502
L131.446 219.037
L131.594 217.954
L131.669 219.469
L131.743 218.893
L131.818 217.568
L131.892 218.046
L132.19 220.719
L132.338 217.113
L132.413 217.879
L132.562 222.049
L132.859 213.599
L133.008 210.616
L133.157 214.227
L133.231 211.048
L133.306 212.05
L133.38 216.33
L133.454 214.429
L133.603 207.24
L133.678 207.989
L133.901 213.576
L133.975 214.7
L134.05 213.853
L134.124 214.198
L134.496 223.121
L134.942 213.905
L135.017 213.876
L135.166 217.868
L135.24 216.22
L135.314 216.802
L135.463 218.582
L135.612 213.519
L135.761 207.799
L135.835 207.321
L135.984 209.965
L136.43 229.048
L136.505 228.789
L136.579 227.446
L136.877 213.853
L137.1 207.298
L137.249 215.126
L137.323 214.826
L137.398 214.792
L137.695 219.123
L137.844 213.991
L138.067 222.17
L138.142 219.774
L138.365 211.284
L138.439 212.995
L138.662 208.127
L138.737 208.738
L138.886 214.291
L138.96 212.43
L139.258 219.74
L139.332 219.002
L139.481 210.391
L139.555 211.146
L139.778 220.028
L139.853 219.987
L139.927 219.613
L140.076 222.867
L140.374 228.305
L140.448 226.928
L140.597 215.61
L140.746 217.752
L141.043 208.732
L141.192 203.047
L141.341 205.841
L141.415 205.714
L141.49 203.162
L141.564 204.856
L141.862 222.614
L141.936 223.967
L142.159 220.281
L142.308 215.558
L142.68 225.69
L142.754 223.875
L143.126 204.954
L143.201 203.998
L144.019 229.468
L144.094 229.209
L144.838 203.041
L144.912 203.773
L145.284 206.181
L145.358 205.576
L145.805 230.678
L145.879 228.143
L146.028 234.687
L146.102 232.867
L146.474 215.938
L146.698 202.811
L146.846 203.807
L147.07 200.144
L147.59 214.377
L148.037 233.558
L148.111 234.163
L148.483 223.155
L148.558 223.08
L148.706 227.066
L149.227 202.2
L149.302 202.828
L149.376 202.869
L149.525 207.615
L149.599 207.39
L149.674 207.073
L149.971 214.504
L150.046 215.955
L150.12 215.258
L150.269 214.008
L150.566 209.769
L150.641 209.614
L151.087 227.418
L151.236 219.935
L151.31 219.227
L151.534 211.831
L151.831 222.602
L151.906 225.477
L152.054 220.69
L152.203 226.398
L152.426 216.07
L152.501 215.61
L152.724 210.046
L152.947 200.455
L153.022 200.783
L153.245 205.749
L153.84 234.174
L153.914 235.862
L153.989 233.408
L154.212 220.92
L154.286 219.803
L154.51 210.437
L154.584 210.627
L154.733 212.609
L154.807 212.131
L154.882 210.057
L155.105 199.159
L155.328 200.438
L155.477 204.769
L155.774 216.399
L155.923 221.686
L156.146 235.47
L156.37 238.056
L156.444 236.023
L156.89 208.905
L156.965 208.796
L157.039 209.694
L157.337 204.614
L157.486 209.93
L157.709 216.497
L157.932 218.035
L158.081 216.796
L158.23 215.339
L158.378 216.307
L158.453 214.913
L158.602 219.647
L158.676 218.254
L158.974 205.236
L159.122 213.784
L159.197 210.431
L159.271 207.131
L159.643 224.002
L159.792 233.742
L160.164 224.728
L160.238 224.371
L160.61 213.006
L160.759 205.42
L160.834 206.353
L160.982 204.481
L161.057 205.409
L161.28 212.321
L161.354 212.229
L161.429 212.672
L161.95 224.924
L162.024 224.14
L162.47 207.344
L162.545 207.897
L162.768 216.22
L162.917 208.738
L163.066 212.321
L163.14 212.119
L163.214 212.874
L163.438 221.324
L163.512 221.335
L163.735 225.966
L163.884 231.087
L164.33 210.132
L164.405 210.385
L164.554 216.37
L164.702 207.609
L164.777 207.937
L164.851 209.314
L165 204.228
L165.074 204.579
L165.372 211.462
L165.446 212.793
L165.67 220.65
L165.744 220.321
L165.893 222.579
L166.414 211.555
L166.488 211.618
L166.711 220.258
L166.786 218.697
L167.083 211.681
L167.158 212.257
L167.306 215.984
L167.381 216.572
L167.53 227.21
L167.604 226.796
L167.827 223.253
L167.976 224.209
L168.348 212.211
L168.422 213.3
L168.497 215.471
L168.571 214.417
L168.869 206.607
L169.018 203.254
L169.241 207.523
L169.315 206.607
L169.39 207.972
L169.464 207.684
L169.538 207.58
L169.91 234.716
L169.985 234.79
L170.729 200.207
L170.878 199.021
L170.952 199.459
L171.101 195.778
L171.547 228.437
L171.696 227.873
L171.77 228.149
L171.919 236.501
L172.142 249.507
L172.217 248.897
L172.812 195.53
L173.035 176.741
L173.11 177.208
L173.333 190.433
L173.556 204.487
L173.63 206.434
L173.854 223.276
L173.928 224.97
L174.002 224.895
L174.151 223.27
L174.226 223.322
L174.374 225.263
L174.672 234.18
L174.746 234.001
L174.821 232.711
L174.895 234.917
L175.044 242.52
L175.118 241.466
L175.342 225.799
L175.937 172.485
L176.011 173.51
L176.234 197.685
L176.606 244.185
L176.681 245.095
L176.83 235.257
L177.127 205.852
L177.202 204.51
L177.797 233.535
L177.871 233.276
L177.946 231.772
L178.094 220.615
L178.466 179.466
L178.615 172.801
L178.764 178.193
L179.136 224.244
L179.434 255.532
L179.731 273.285
L179.806 272.599
L179.88 270.894
L180.698 197.454
L180.847 195.985
L181.07 179.31
L181.442 131.969
L181.517 133.029
L181.74 153.909
L181.963 194.926
L182.41 301.641
L182.484 301.278
L182.633 290.639
L182.93 267.692
L183.154 264.979
L183.228 266.954
L183.302 266.499
L183.377 260.647
L183.6 195.985
L183.898 108.716
L183.972 106.999
L184.121 128.11
L184.716 246.316
L185.162 275.433
L185.237 274.644
L185.46 247.543
L185.832 174.063
L185.906 171.707
L186.055 179.857
L186.502 223.749
L186.65 205.749
L186.874 173.55
L186.948 175.324
L187.097 212.136
L187.394 278.446
L187.618 206.555
L187.766 181.222
L187.915 217.28
L188.138 268.982
L188.213 275.26
L188.287 272.835
L188.436 249.669
L188.882 149.231
L188.957 151.449
L189.254 187.374
L189.626 234.56
L189.775 242.025
L189.924 234.969
L189.998 235.459
L190.073 236.207
L190.147 235.24
L190.445 218.53
L190.519 218.605
L190.668 231.121
L191.04 269.823
L191.114 265.215
L191.635 164.674
L191.784 159.939
L191.933 167.715
L192.677 223.253
L192.826 222.464
L193.123 227.821
L193.272 232.757
L193.421 228.08
L193.495 228.535
L193.57 229.255
L193.793 240.268
L193.867 251.61
L194.016 200.639
L194.165 138.512
L194.239 151.823
L194.686 356.879
L194.834 326.426
L195.43 82.2599
L195.504 83.3313
L195.653 112.788
L196.248 261.534
L196.322 258.067
L196.62 195.605
L196.769 211.941
L196.992 233.276
L197.066 234.37
L197.29 260.365
L197.513 275.502
L197.662 266.182
L197.959 227.314
L198.48 153.217
L198.554 150.291
L198.629 151.242
L198.778 172.813
L199.224 243.212
L199.298 243.753
L199.596 264.431
L199.67 272.213
L199.745 271.418
L200.489 96.5562
L200.563 97.7255
L200.712 139.088
L201.158 326.95
L201.307 344.386
L201.456 330.262
L201.754 251.143
L202.274 122.108
L202.349 120.501
L202.498 134.146
L203.316 264.08
L203.465 270.727
L203.614 276.003
L203.688 273.515
L203.762 265.532
L204.134 154.018
L204.209 156.207
L204.432 172.974
L204.506 171.119
L204.655 165.78
L204.804 180.428
L205.176 229.704
L205.474 261.995
L205.548 262.11
L205.771 226.525
L205.994 206.371
L206.143 204.827
L206.218 205.864
L206.366 217.597
L206.887 279.327
L206.962 277.766
L207.11 253.833
L207.631 133.985
L207.706 135.724
L207.854 153.477
L208.301 230.517
L208.45 234.842
L208.673 230.321
L208.97 203.98
L209.045 205.305
L209.194 214.308
L209.64 264.115
L209.863 258.309
L210.012 248.407
L210.533 168.188
L210.607 170.1
L210.979 189.753
L211.5 221.859
L211.798 233.846
L211.872 233.471
L212.021 236.098
L212.095 234.814
L212.616 203.79
L212.839 200.236
L212.914 202.068
L213.211 221.11
L213.286 220.39
L213.509 211.929
L213.658 215.258
L213.732 216.047
L214.03 235.666
L214.253 239.928
L214.402 229.416
L214.625 207.713
L214.699 208.191
L214.774 210.132
L214.997 233.95
L215.071 230.643
L215.443 203.358
L215.592 206.526
L215.666 208.438
L215.741 207.857
L215.964 189.972
L216.038 190.185
L216.336 202.661
L216.782 223.818
L216.857 223.662
L217.08 209.919
L217.154 211.63
L217.229 213.818
L217.303 213.53
L217.378 213.34
L217.973 241.737
L218.122 235.476
L218.568 211.399
L218.642 211.301
L218.717 211.405
L218.791 213.669
L219.014 207.413
L219.386 221.951
L219.461 220.932
L219.61 216.537
L220.056 199.401
L220.13 198.785
L220.354 188.29
L220.428 185.398
L220.502 185.496
L220.949 215.587
L221.246 245.959
L221.395 249.502
L221.544 247.376
L221.767 245.671
L221.842 245.907
L221.916 248.28
L221.99 246.714
L222.139 236.133
L222.734 186.591
L223.032 179.189
L223.106 179.258
L223.255 190.041
L223.776 243.586
L223.925 239.606
L224.669 205.812
L224.966 189.246
L225.041 189.926
L225.562 218.461
L225.934 243.753
L226.082 244.83
L226.157 244.692
L226.306 250.417
L226.454 257.157
L226.603 242.924
L226.901 180.67
L227.273 118.824
L227.347 118.179
L227.422 121.537
L227.57 150.199
L228.091 342.877
L228.166 341.022
L228.463 264.535
L228.761 215.996
L229.058 174.846
L229.133 176.136
L229.282 185.652
L229.579 113.479
L229.877 168.741
L230.398 286.014
L230.472 283.451
L230.77 239.64
L231.142 193.019
L231.365 187.196
L231.514 197.212
L231.811 236.421
L232.109 278.117
L232.183 274.586
L233.15 156.207
L233.225 156.431
L233.374 164.403
L233.671 201.734
L234.192 277.19
L234.341 281.158
L234.415 280.951
L234.49 279.891
L234.638 266.079
L235.382 151.685
L235.531 140.845
L235.68 149.11
L235.978 186.769
L236.424 242.065
L236.945 261.713
L237.019 261.212
L237.317 252.168
L237.614 262.606
L237.689 259.098
L237.912 214.982
L238.284 140.822
L238.358 135.966
L238.507 150.343
L239.102 218.317
L239.177 221.468
L239.251 220.621
L239.549 209.314
L239.698 223.691
L240.218 289.643
L240.293 293.214
L240.442 282.328
L240.962 201.912
L241.483 128.588
L241.706 143.915
L241.855 157.612
L242.525 277.547
L242.674 271.793
L244.087 173.544
L244.162 174.051
L244.236 175.802
L244.385 189.448
L244.608 212.511
L245.054 238.379
L245.278 247.589
L245.352 248.298
L245.65 261.43
L245.798 251.397
L246.319 191.971
L246.394 191.205
L246.766 195.922
L246.84 197.414
L247.138 215.091
L247.361 208.934
L247.733 189.292
L247.807 189.281
L247.882 189.056
L248.179 214.216
L248.551 254.19
L248.774 261.292
L248.849 265.641
L248.923 264.478
L249.146 239.352
L249.593 179.097
L249.667 176.92
L249.816 190.318
L250.039 205.795
L250.262 208.22
L250.56 199.487
L250.858 191.758
L251.006 206.365
L251.602 279.978
L251.676 280.784
L251.825 259.351
L252.197 178.596
L252.271 179.08
L252.494 189.085
L252.866 223.674
L252.941 223.576
L253.015 220.719
L253.238 198.952
L253.313 199.539
L253.61 225.54
L253.834 248.252
L253.908 247.411
L254.057 230.54
L254.354 188.422
L254.503 203.07
L254.726 215.016
L254.801 214.469
L255.47 192.345
L255.545 192.731
L255.842 199.464
L255.991 208.807
L256.512 265.14
L256.735 278.572
L256.81 276.412
L256.884 274.442
L256.958 275.911
L257.033 274.88
L257.182 257.191
L257.702 139.393
L257.777 140.373
L257.926 144.975
L258.074 170.52
L258.372 227.055
L258.446 230.401
L258.521 229.434
L258.67 216.577
L258.893 193.964
L259.042 191.717
L259.19 196.809
L259.414 233.719
L259.711 266.252
L259.786 265.848
L260.306 235.902
L260.53 213.288
L260.827 166.016
L260.902 165.786
L261.05 171.35
L261.571 213.49
L261.794 199.873
L261.869 201.106
L262.092 218.806
L262.687 293.479
L262.762 296.215
L262.91 282.316
L263.134 228.547
L263.431 153.834
L263.878 132.372
L263.952 134.722
L264.101 153.58
L264.845 289.781
L264.919 288.053
L265.068 290.075
L265.142 288.399
L265.291 269.817
L265.886 152.371
L265.961 151.052
L266.035 151.668
L266.11 153.056
L266.482 194.459
L267.077 276.188
L267.151 275.525
L267.3 261.246
L267.895 189.091
L267.97 190.07
L268.267 200.236
L268.342 198.122
L268.49 200.334
L268.565 199.62
L268.639 200.133
L268.714 202.563
L269.16 239.306
L269.234 240.648
L269.309 239.998
L269.681 204.211
L269.904 183.244
L269.978 182.363
L270.053 186.032
L270.499 235.833
L270.574 232.872
L270.797 215.627
L270.871 214.423
L271.169 224.912
L271.243 223.219
L271.541 216.22
L271.838 209.677
L271.913 211.013
L272.21 224.595
L272.359 217.384
L272.508 210.76
L272.88 224.117
L272.954 221.07
L273.326 156.408
L273.401 157.998
L273.624 214.861
L274.07 311.197
L274.145 311.151
L274.294 291.498
L274.889 145.269
L274.963 142.982
L275.038 143.857
L275.261 150.89
L275.484 176.58
L275.856 231.841
L275.93 232.515
L276.005 232.175
L276.154 225.603
L276.377 250.481
L276.749 277.852
L276.898 279.223
L277.121 263.135
L277.418 206.497
L277.79 142.118
L277.939 135.862
L278.014 138.581
L278.162 160.492
L278.683 256.241
L278.832 264.322
L278.981 249.53
L279.427 191.873
L279.576 199.47
L280.097 241.224
L280.171 240.32
L280.32 233.477
L280.469 224.998
L280.618 227.521
L280.692 226.75
L280.766 227.487
L280.915 225.085
L281.064 215.005
L281.362 197.759
L281.51 194.638
L281.659 192.259
L281.808 194.378
L281.882 193.797
L282.031 190.179
L282.106 191.095
L282.478 216.773
L282.775 244.352
L282.85 247.117
L282.924 246.005
L283.445 213.53
L283.742 231.738
L283.817 230.885
L284.412 185.237
L284.486 187.294
L285.156 226.508
L285.23 226.502
L285.677 236.916
L285.9 233.201
L286.049 234.036
L286.123 233.811
L286.198 231.375
L286.57 192.708
L286.793 179.69
L286.867 180.451
L287.09 190.922
L287.537 224.998
L287.611 224.808
L287.909 228.921
L288.206 247.992
L288.281 247.422
L288.653 216.382
L288.876 191.625
L288.95 190.162
L289.174 177.116
L289.322 179.742
L289.62 203.525
L289.992 253.171
L290.215 259.265
L290.513 246.23
L291.108 190.11
L291.331 185.842
L291.406 186.666
L291.852 219.682
L292.001 217.793
L292.075 218.686
L292.15 218.265
L292.224 218.017
L292.447 232.389
L292.522 231.029
L292.745 220.517
L292.819 220.114
L292.968 212.096
L293.117 205.029
L293.712 228.155
L294.01 216.387
L294.084 216.808
L294.233 218.893
L294.307 218.795
L294.53 223.184
L294.679 220.506
L294.902 208.248
L294.977 210.017
L295.126 204.85
L295.274 201.411
L295.349 202.051
L295.87 220.5
L296.093 227.153
L296.167 228.057
L296.316 225.776
L296.614 216.353
L297.134 203.767
L297.209 204.602
L297.283 205.633
L297.953 234.214
L298.027 233.299
L298.325 225.949
L298.92 201.014
L299.069 204.026
L299.887 231.294
L300.036 228.403
L300.11 229.169
L300.557 209.711
L300.631 207.655
L300.706 208.698
L300.78 208.202
L300.854 206.008
L301.003 198.497
L301.301 215.662
L301.375 214.878
L301.45 210.155
L301.896 224.555
L301.97 223.985
L302.268 216.318
L302.417 220.707
L302.566 223.489
L302.64 223.823
L302.789 226.133
L303.31 207.523
L303.384 207.574
L303.756 217.113
L303.905 211.814
L303.979 211.906
L304.351 219.964
L304.426 220.529
L304.574 214.314
L304.723 208.381
L304.946 221.381
L305.095 217.24
L305.17 217.418
L305.318 222.689
L305.467 213.738
L305.616 207.24
L305.988 224.255
L306.062 225.517
L306.286 216.86
L306.36 218.081
L306.658 209.953
L306.732 209.395
L306.881 214.354
L306.955 213.594
L307.03 213.726
L307.104 215.253
L307.178 220.465
L307.253 220.149
L307.476 210.287
L307.55 210.662
L307.699 207.534
L307.848 214.907
L307.997 222.211
L308.071 222.049
L308.22 217.574
L308.294 218.714
L308.518 205.501
L308.592 207.626
L308.815 217.482
L308.964 223.265
L309.113 214.988
L309.187 215.535
L309.336 217.516
L309.634 230.96
L309.708 229.462
L309.857 222.522
L309.931 222.62
L310.08 216.036
L310.229 208.15
L310.303 208.3
L310.601 218.409
L310.675 221.116
L310.898 214.901
L310.973 216.658
L311.122 213.438
L311.196 213.893
L311.27 214.78
L311.419 212.09
L311.494 213.415
L311.568 213.018
L311.642 212.609
L311.717 213.53
L311.94 204.095
L312.014 205.265
L312.089 204.643
L312.163 202.339
L312.238 203.007
L312.312 204.17
L312.386 203.439
L312.535 210.397
L312.758 219.573
L312.907 221.11
L312.982 221.249
L313.13 223.962
L313.205 222.683
L313.279 223.368
L313.502 232.97
L313.577 234.278
L313.726 229.002
L313.949 232.849
L314.023 232.02
L314.246 214.636
L314.693 186.136
L314.767 187.121
L314.99 198.566
L315.362 233.996
L315.511 238.477
L315.586 237.561
L315.883 223.414
L316.255 206.359
L316.33 206.371
L316.478 204.424
L316.776 212.868
L317.074 238.707
L317.148 239.854
L317.222 237.797
L317.966 167.882
L318.041 169.697
L318.19 183.982
L318.71 247.503
L318.934 263.498
L319.008 260.728
L319.082 260.739
L319.157 259.91
L320.198 181.188
L320.496 190.542
L320.942 218
L321.091 218.76
L321.389 240.954
L321.463 238.99
L321.761 232.838
L322.43 209.775
L322.579 208.433
L322.654 210.19
L322.802 217.505
L322.877 217.418
L323.1 215.575
L323.398 218.069
L323.472 216.479
L323.77 201.21
L323.844 201.359
L323.993 197.679
L324.067 195.559
L324.142 196.21
L324.29 202.696
L324.662 227.556
L324.737 226.951
L325.034 235.361
L325.109 234.704
L325.332 224.981
L325.555 206.768
L325.63 206.808
L325.853 209.59
L326.15 201.567
L326.225 202.304
L326.522 222.735
L326.671 221.306
L327.043 232.648
L327.118 230.908
L327.341 216.814
L327.49 206.353
L327.564 208.231
L327.713 205.386
L327.862 213.237
L327.936 210.616
L328.01 210.973
L328.159 218.207
L328.234 217.614
L328.308 218.916
L328.382 218.887
L328.531 215.155
L328.606 215.23
L328.754 221.83
L328.903 229.871
L329.052 224.278
L329.35 211.462
L329.573 207.615
L329.796 203.911
L330.763 225.154
L330.838 224.889
L330.912 225.724
L330.986 225.24
L331.284 219.192
L331.433 222.971
L331.582 217.885
L332.102 203.704
L332.177 203.531
L332.251 203.738
L332.326 203.652
L332.4 205.224
L332.549 218.38
L332.772 232.36
L332.921 239.358
L333.293 229.157
L333.59 205.098
L333.814 198.197
L333.888 198.716
L333.962 198.289
L334.186 194.01
L334.781 234.07
L334.93 236.824
L335.302 222.078
L335.525 212.626
L335.748 206.739
L335.822 208.462
L336.046 218.156
L336.343 212.424
L336.418 212.977
L336.566 216.877
L336.715 222.078
L336.79 222.009
L336.938 220.655
L337.013 220.69
L337.236 214.481
L337.534 207.085
L337.682 202.84
L337.757 202.828
L337.906 200.927
L337.98 202.033
L338.352 220.955
L338.426 221.134
L338.501 223.605
L338.724 234.923
L338.798 232.723
L338.947 235.919
L339.17 220.137
L339.245 220.195
L339.468 207.068
L339.542 207.425
L339.617 208.6
L339.766 203.675
L339.84 204.332
L339.989 207.114
L340.138 213.208
L340.212 212.643
L340.361 218.524
L340.435 224.336
L340.51 221.98
L340.658 215.719
L340.733 215.794
L340.807 213.283
L340.882 213.329
L341.179 225.05
L341.254 223.432
L341.551 212.39
L341.7 208.715
L341.849 209.158
L341.998 208.191
L342.295 214.406
L342.518 219.043
L342.593 218.19
L342.742 214.596
L342.89 219.97
L343.114 212.378
L343.188 212.995
L343.337 217.459
L343.56 226.318
L343.634 225.73
L343.858 216.946
L343.932 218.668
L344.081 228.241
L344.825 202.88
L344.974 205.904
L345.122 198.992
L345.197 199.793
L345.42 212.983
L345.718 230.862
L345.792 229.203
L346.015 221.859
L346.09 222.245
L346.387 211.226
L346.462 211.86
L346.834 225.713
L346.908 225.142
L347.057 221.105
L347.131 221.854
L347.206 219.901
L347.429 208.548
L347.503 209.844
L347.578 209.423
L347.652 206.895
L347.726 208.174
L347.875 216.635
L347.95 215.719
L348.247 206.071
L348.322 207.027
L348.545 213.473
L348.991 228.172
L349.066 226.623
L349.438 213.075
L349.586 216.335
L349.735 212.885
L349.958 219.198
L350.033 218.611
L350.182 213.467
L350.256 211.007
L350.33 211.618
L350.405 212.257
L350.479 211.509
L350.628 214.89
L350.926 229.56
L351 228.829
L351.521 206.918
L351.595 206.469
L351.67 206.803
L351.744 208.214
L351.893 201.935
L352.339 226.312
L352.414 224.595
L352.637 218.305
L352.786 215.483
L352.86 215.558
L353.306 222.032
L353.381 221.289
L353.604 213.571
L353.902 212.257
L354.05 205.27
L354.125 205.633
L354.274 208.329
L354.571 223.328
L354.72 220.598
L354.869 219.429
L355.092 225.056
L355.687 214.849
L355.836 208.991
L355.985 212.165
L356.134 203.45
L356.282 214.164
L356.357 218.461
L356.431 218.196
L356.729 207.286
L357.175 221.606
L357.696 215.155
L357.77 216.848
L358.068 212.908
L358.217 214.711
L358.291 214.066
L358.44 215.235
L358.738 226.842
L358.812 226.076
L359.258 210.708
L359.333 211.509
L359.482 215.742
L359.556 215.535
L359.63 215.293
L359.854 207.442
L360.002 210.616
L360.3 217.597
L360.449 216.07
L360.598 216.698
L360.672 216.704
L360.895 224.895
L360.97 223.512
L361.118 217.85
L361.193 218.282
L361.416 214.44
L361.565 218.115
L361.937 207.131
L362.458 217.798
L362.606 215.84
L362.83 221.744
L362.904 221.41
L363.053 216.572
L363.127 217.597
L363.276 213.876
L363.425 204.792
L363.648 214.342
L363.871 223.576
L363.946 223.253
L364.169 216.975
L364.392 218.87
L364.615 211.877
L364.69 212.234
L365.21 218.933
L365.285 221.992
L365.434 214.55
L365.582 202.604
L365.731 209.464
L366.103 230.885
L366.55 221.099
L366.698 216.266
L366.922 205.697
L367.145 204.072
L367.368 209.366
L367.442 208.894
L367.517 207.166
L367.591 207.384
L368.038 217.603
L368.261 225.275
L368.41 221.139
L368.558 225.477
L368.633 225.062
L368.707 223.461
L368.782 223.737
L368.856 226.369
L368.93 225.01
L369.079 217.614
L369.154 217.764
L369.228 217.015
L369.526 208.479
L369.6 206.71
L369.823 211.797
L369.898 212.718
L370.121 219.279
L370.195 218.265
L370.27 218.495
L370.418 219.578
L370.642 218.092
L370.716 218.179
L371.014 211.814
L371.088 212.972
L371.162 212.678
L371.311 209.959
L371.758 215.748
L371.906 216.191
L372.055 219.169
L372.204 217.199
L372.278 215.598
L372.353 216.019
L372.502 220.494
L373.022 208.888
L373.394 217.994
L373.469 217.153
L373.543 217.706
L373.915 230.027
L373.99 229.894
L374.585 209.867
L374.734 207.609
L374.882 200.265
L374.957 200.317
L375.329 219.02
L375.478 212.995
L375.552 213.709
L375.924 226.68
L375.998 226.565
L376.222 220.408
L376.594 208.732
L376.891 204.597
L376.966 205.881
L377.338 222.268
L377.561 216.589
L377.858 226.116
L377.933 225.822
L378.007 224.676
L378.082 224.849
L378.23 229.14
L378.677 207.903
L378.826 210.794
L378.974 216.658
L379.346 211.146
L379.495 209.677
L379.644 207.707
L379.793 207.223
L379.942 211.307
L380.09 216.929
L380.239 216.024
L380.462 218.743
L380.611 214.095
L380.686 214.757
L381.058 231.023
L381.206 229.75
L381.281 231.646
L381.355 230.453
L381.727 203.779
L381.802 202.932
L382.099 206.267
L382.397 221.064
L382.471 221.047
L382.694 211.445
L383.066 219.613
L383.29 228.472
L383.587 221.036
L383.885 204.107
L383.959 204.337
L384.108 210.282
L384.257 218.444
L384.331 217.205
L384.629 206.543
L384.703 206.889
L385.001 219.999
L385.224 228.679
L385.298 228.933
L385.447 232.803
L385.596 226.582
L385.894 207.955
L385.968 206.722
L386.117 209.867
L386.191 209.153
L386.266 209.493
L386.489 213.311
L386.638 210.961
L386.935 218.052
L387.158 216.531
L387.233 217.608
L387.307 217.505
L387.382 217.355
L387.53 214.93
L387.754 208.922
L387.828 208.68
L387.977 213.006
L388.126 218.357
L388.2 217.81
L388.349 215.978
L388.423 217.534
L388.646 225.995
L388.721 226.277
L389.018 231.818
L389.093 231.15
L389.242 219.573
L389.465 205.962
L389.539 205.812
L389.614 205.115
L389.688 205.829
L389.837 203.71
L389.911 204.314
L390.06 210.719
L390.209 214.976
L390.358 210.489
L390.506 211.653
L390.655 204.712
L390.878 215.264
L391.027 216.266
L391.102 215.817
L391.176 216.289
L391.548 231.219
L391.697 230.113
L391.846 230.724
L392.292 208.456
L392.366 204.579
L392.441 204.637
L392.738 220.442
L392.813 222.084
L393.036 212.614
L393.259 195.012
L393.334 196.17
L393.482 197.12
L393.78 218.622
L394.003 234.658
L394.226 230.574
L394.524 217.58
L394.673 213.334
L394.822 214.141
L394.97 220.788
L395.045 220.598
L395.194 216.433
L395.268 217.597
L395.342 216.059
L395.64 204.867
L395.789 203.542
L395.938 208.588
L396.086 216.111
L396.235 230.177
L396.31 230.096
L396.607 219.613
L396.756 218.328
L396.83 218.449
L397.054 222.769
L397.574 205.789
L397.649 206.204
L397.872 213.202
L398.021 211.503
L398.17 215.235
L398.244 214.573
L398.318 214.072
L398.467 215.587
L398.542 215.552
L398.616 215.08
L398.765 216.67
L398.988 218.835
L399.211 213.899
L399.583 225.379
L399.881 217.775
L400.253 224.647
L400.327 223.622
L400.774 200.225
L400.848 200.374
L400.922 200.645
L401.071 205.789
L401.294 215.95
L401.443 224.774
L401.666 223.547
L401.741 223.875
L402.038 229.261
L402.113 229.215
L402.336 214.245
L402.559 196.705
L402.931 206.555
L403.378 229.889
L403.452 231.179
L403.601 227.539
L403.898 214.59
L403.973 214.757
L404.047 215.293
L404.494 194.131
L404.568 196.999
L404.791 204.556
L404.94 213.513
L405.163 225.079
L405.238 225.16
L405.61 238.333
L405.758 247.952
L405.982 242.572
L406.651 187.011
L406.8 192.846
L407.321 216.238
L407.544 209.349
L407.693 211.848
L407.842 218.282
L407.99 227.769
L408.065 226.698
L408.214 221.802
L408.288 221.807
L408.362 221.393
L408.437 220.12
L408.511 220.293
L408.734 223.921
L408.809 223.846
L408.883 224.348
L409.032 225.678
L409.181 222.257
L409.702 193.382
L409.776 194.983
L409.999 211.664
L410.074 212.269
L410.148 212.223
L410.446 226.358
L410.818 214.734
L410.892 216.111
L411.115 225.269
L411.264 226.565
L411.487 236.075
L411.636 238.949
L411.71 241.512
L411.785 240.084
L412.157 203.422
L412.454 179.99
L412.529 179.126
L412.603 180.278
L412.975 203.214
L413.198 216.808
L413.57 232.481
L413.645 232.475
L413.868 225.891
L414.017 227.4
L414.314 223.587
L414.91 194.038
L414.984 193.733
L415.058 195.617
L415.207 209.251
L415.579 264.339
L415.654 264.063
L415.728 261.01
L416.472 188.227
L416.621 185.295
L416.77 195.242
L417.142 221.312
L417.216 220.316
L417.588 204.948
L417.662 205.489
L417.96 200.801
L418.034 200.138
L418.109 200.374
L418.183 200.49
L418.258 200.87
L418.332 201.855
L418.555 218.438
L418.853 240.919
L419.002 248.62
L419.076 248.712
L419.225 250.049
L419.374 241.449
L419.969 199.562
L420.118 204.418
L420.266 207.54
L420.341 207.286
L420.564 208.479
L420.713 213.07
L420.787 212.747
L420.936 205.086
L421.234 219.653
L421.382 228.103
L421.531 224.497
L421.68 218.979
L421.978 199.856
L422.201 202.367
L422.87 234.358
L423.094 248.54
L423.168 247.497
L423.689 213.859
L424.061 180.825
L424.135 182.063
L424.73 215.448
L424.805 216.698
L424.954 215.794
L425.102 217.378
L425.251 215.88
L425.326 216.272
L425.474 218.812
L425.772 228.115
L425.921 228.875
L426.144 229.624
L426.367 233.754
L426.516 229.768
L426.59 230.39
L426.814 227.118
L427.111 202.517
L427.334 184.938
L427.558 194.626
L427.632 191.475
L427.706 191.308
L427.93 203.6
L428.227 226.467
L428.302 225.834
L428.525 217.66
L428.599 218.749
L428.971 229.745
L429.046 230.384
L429.12 230.303
L429.194 230.021
L429.343 232.74
L429.418 231.778
L429.641 217.574
L429.79 205.99
L429.864 206.008
L430.31 226.98
L430.385 227.066
L430.608 213.473
L430.98 191.268
L431.129 195.496
L431.575 214.273
L431.65 213.934
L431.724 215.408
L432.096 229.411
L432.245 228.276
L432.319 228.639
L432.542 232.7
L432.766 223.432
L432.989 209.596
L433.212 194.131
L433.361 203.174
L433.956 231.093
L434.03 232.861
L434.179 226.75
L434.551 203.698
L434.626 203.819
L434.774 204.28
L434.849 204.677
L434.998 205.87
L435.072 206.181
L435.146 206.048
L435.37 214.694
L435.593 220.984
L435.742 224.221
L435.816 223.967
L435.965 219.158
L436.039 219.406
L436.188 223.063
L436.337 221.013
L436.411 219.394
L436.634 207.759
L437.006 218.979
L437.081 219.187
L437.155 218.985
L437.304 219.809
L437.378 219.429
L437.527 216.52
L437.676 214.584
L437.75 214.625
L437.825 215.045
L437.899 216.226
L437.974 215.84
L438.197 211.462
L438.346 212.459
L438.494 211.163
L438.718 219.74
L438.792 219.233
L438.941 217.758
L439.015 218.426
L439.164 224.555
L439.238 224.359
L439.387 225.983
L439.685 213.576
L439.908 202.915
L440.057 200.092
L440.131 196.953
L440.206 198.405
L440.578 220.35
L440.652 219.037
L440.801 215.425
L440.875 215.564
L441.322 228.236
L441.619 231.766
L441.842 216.387
L441.991 210.731
L442.066 211.439
L442.14 210.662
L442.289 214.757
L442.363 216.658
L442.438 215.95
L442.661 208.87
L442.735 209.452
L442.81 209.072
L443.107 211.301
L443.182 210.334
L443.256 210.656
L443.33 212.2
L443.405 212.131
L443.554 207.644
L443.628 209.032
L443.851 216.232
L444 218.588
L444.149 214.366
L444.223 214.838
L444.893 228.524
L444.967 230.332
L445.116 228.126
L445.19 230.522
L445.265 228.933
L445.786 202.229
L445.934 199.654
L446.083 192.259
L446.232 200.098
L446.902 238.293
L446.976 236.881
L447.497 215.218
L447.72 206.008
L447.794 206.503
L447.869 206.037
L447.943 206.302
L448.166 212.758
L448.241 212.05
L448.613 216.739
L448.687 219.071
L448.762 218.904
L448.91 217.47
L449.059 223.374
L449.134 222.815
L449.357 218.04
L449.58 207.638
L449.803 201.624
L449.878 203.629" style="fill:none;stroke:#808080;stroke-linecap:square;"/>
   </g>
  </g>
 </g>
 <defs>
  <clipPath id="p7ff5b81e1d">
   <rect height="345.6" width="446.4" x="72.0" y="43.2"/>
  </clipPath>
 </defs>
</svg>
