<?xml version="1.0" encoding="utf-8" standalone="no"?>
<!DOCTYPE svg PUBLIC "-//W3C//DTD SVG 1.1//EN"
  "http://www.w3.org/Graphics/SVG/1.1/DTD/svg11.dtd">
<!-- Created with matplotlib (http://matplotlib.org/) -->
<svg height="432pt" version="1.1" viewBox="0 0 576 432" width="576pt" xmlns="http://www.w3.org/2000/svg" xmlns:xlink="http://www.w3.org/1999/xlink">
 <defs>
  <style type="text/css">
*{stroke-linecap:butt;stroke-linejoin:round;}
  </style>
 </defs>
 <g id="figure_1">
  <g id="patch_1">
   <path d="
M0 432
L576 432
L576 0
L0 0
z
" style="fill:#ffffff;"/>
  </g>
  <g id="axes_1">
   <g id="line2d_1">
    <path clip-path="url(#p7ff5b81e1d)" d="
M72 202.571
L72.2976 216.079
L72.5208 221.89
L72.5952 222.484
L72.6696 220.629
L72.744 221.395
L72.9672 233.278
L73.0416 231.216
L73.1904 233.606
L73.5624 219.655
L73.7856 213.665
L73.86 215.111
L74.1576 228.578
L74.3064 231.544
L74.3808 232.351
L74.4552 228.998
L74.604 215.094
L74.6784 215.249
L74.9016 208.504
L74.976 210.365
L75.0504 210.768
L75.348 205.348
L75.5712 198.608
L75.6456 198.971
L75.9432 207.341
L76.092 215.468
L76.1664 215.099
L76.3152 205.497
L76.464 214.633
L76.6128 226.665
L76.7616 221.499
L76.9104 231.659
L76.9848 227.213
L77.1336 219.598
L77.208 218.59
L77.4312 201.961
L77.58 200.308
L77.6544 201.725
L77.952 219.356
L78.1752 245.483
L78.2496 250.114
L78.324 249.659
L78.5472 237.846
L78.6216 236.653
L78.7704 239.326
L78.9192 223.008
L79.2912 184.301
L79.3656 182.008
L79.5888 167.424
L79.812 195.4
L80.1096 233.531
L80.3328 250.247
L80.556 243.03
L80.8536 224.598
L80.928 225.007
L81.0024 226.596
L81.0768 225.882
L81.4488 185.971
L81.5232 188.384
L81.8208 204.449
L81.9696 218.515
L82.2672 209.95
L82.416 198.637
L82.4904 199.922
L82.6392 207.335
L82.7136 206.534
L82.788 208.089
L83.16 235.91
L83.4576 270.637
L83.532 269.405
L83.9784 222.518
L84.276 185.211
L84.4248 182.82
L84.5736 197.37
L84.7968 229.338
L84.8712 227.8
L85.3176 180.009
L85.5408 190.544
L86.0616 239.752
L86.2848 233.422
L86.3592 232.955
L86.7312 218.48
L86.88 208.47
L86.9544 208.596
L87.1032 210.687
L87.252 208.832
L87.3264 209.293
L87.4752 208.164
L87.624 204.795
L87.6984 206.695
L87.9216 225.813
L88.1448 214.425
L88.4424 232.443
L88.5168 233.618
L88.8144 225.26
L89.0376 216.459
L89.1864 219.586
L89.2608 219.713
L89.3352 221.038
L89.484 214.679
L90.0048 186.749
L90.4512 208.251
L90.5256 208.769
L90.6 207.087
L91.1208 231.008
L91.344 249.078
L91.4928 254.751
L91.5672 253.985
L91.7904 230.934
L92.0136 208.93
L92.2368 202.105
L92.3112 201.068
L92.46 194.386
L92.6088 197.623
L92.6832 195.786
L92.7576 196.575
L92.832 200.636
L92.9808 194.887
L93.0552 198.292
L93.3528 229.718
L93.4272 232.569
L93.5016 232.23
L93.576 231.504
L93.7248 232.794
L93.7992 232.731
L93.948 231.181
L94.1712 217.19
L94.2456 219.592
L94.32 219.379
L94.692 195.74
L94.7664 196.264
L95.2872 217.075
L95.436 215.946
L95.5848 209.241
L95.6592 210.37
L95.7336 212.11
L95.808 211.672
L95.9568 204.916
L96.0312 206.454
L96.6264 242.321
L96.7752 235.599
L97.0728 214.408
L97.2216 223.952
L97.3704 234.286
L97.7424 200.509
L97.8168 200.832
L97.9656 203.055
L98.04 202.22
L98.2632 190.781
L98.3376 194.381
L98.6352 221.597
L98.7096 223.232
L98.8584 220.617
L99.0072 229.568
L99.2304 220.053
L99.4536 208.089
L99.528 206.926
L99.6768 201.863
L99.7512 203.654
L100.123 228.313
L100.421 215.537
L100.57 223.284
L100.718 230.179
L101.016 238.007
L101.314 254.665
L101.462 239.383
L102.058 149.936
L102.206 142.777
L102.355 160.299
L102.95 261.266
L103.099 254.993
L103.546 219.828
L103.62 219.909
L103.843 210.48
L103.992 211.931
L104.29 227.616
L104.662 240.91
L104.736 240.668
L104.885 233.416
L105.182 202.64
L105.257 203.067
L105.703 218.884
L105.778 217.317
L106.15 191.42
L106.373 188.033
L106.447 189.922
L106.968 228.295
L107.191 214.725
L107.414 228.013
L107.563 225.686
L107.712 227.299
L107.786 225.951
L108.01 215.577
L108.084 216.896
L108.307 231.308
L108.605 219.166
L108.679 219.799
L108.754 219.604
L108.902 218.296
L108.977 218.659
L109.126 219.725
L109.2 218.959
L109.274 219.874
L109.423 204.726
L109.721 182.025
L109.944 190.32
L110.242 204.772
L110.614 247.793
L110.762 254.884
L110.837 254.146
L110.986 246.376
L111.655 183.045
L111.804 193.563
L112.176 241.181
L112.25 238.445
L112.474 224.333
L112.622 229.689
L112.846 215.796
L112.92 215.762
L113.218 227.414
L113.366 230.254
L113.441 229.188
L113.515 227.132
L114.185 168.991
L114.259 171.68
L114.78 208.521
L115.152 249.757
L115.375 256.358
L115.747 209.869
L115.896 215.531
L116.194 224.54
L116.566 256.283
L116.714 248.749
L117.682 146.509
L117.979 170.073
L118.426 244.464
L118.649 260.056
L119.542 207.122
L119.616 210.664
L120.286 243.922
L120.434 238.537
L120.658 216.608
L120.881 202.208
L121.03 206.407
L121.104 206.327
L121.253 197.623
L121.402 191.552
L121.476 191.149
L121.848 180.914
L121.922 182.503
L122.518 237.794
L122.592 235.225
L122.666 234.678
L122.741 232.788
L123.038 216.902
L123.113 217.271
L123.262 212.997
L123.41 216.868
L123.559 211.735
L123.708 224.903
L123.931 239.585
L124.154 247.09
L124.303 245.247
L124.452 250.857
L124.601 240.391
L124.973 198.712
L125.122 188.085
L125.196 187.722
L125.345 184.917
L125.419 184.882
L125.568 185.447
L125.717 195.763
L126.014 191.282
L126.089 191.408
L126.758 222.155
L126.833 221.378
L126.907 221.706
L126.982 222.835
L127.13 229.407
L127.428 255.817
L127.577 252.004
L127.651 251.301
L127.874 242.793
L128.395 190.527
L128.47 193.085
L128.693 209.581
L128.842 205.751
L128.99 201.725
L129.065 204.178
L129.139 202.018
L129.288 192.486
L129.362 191.431
L129.437 188.022
L129.734 200.054
L129.809 202.301
L129.958 192.797
L130.032 200.44
L130.106 198.873
L130.181 194.473
L130.33 265.407
L130.404 259.86
L130.702 229.015
L130.776 238.75
L130.925 216.004
L130.999 220.07
L131.222 264.848
L131.297 259.659
L131.52 202.9
L131.594 206.626
L131.669 213.803
L131.743 212.79
L131.892 214.126
L131.966 212.006
L132.041 213.59
L132.115 221.084
L132.636 196.961
L132.71 200.083
L133.008 190.412
L133.082 191.103
L133.157 189.623
L133.306 179.37
L133.529 195.435
L133.752 229.655
L133.975 242.897
L134.05 248
L134.124 247.879
L134.198 246.002
L134.347 253.887
L134.422 253.098
L134.794 220.358
L135.017 191.719
L135.091 193.632
L135.166 195.291
L135.463 177.014
L135.612 183.725
L135.761 209.961
L135.91 236.607
L136.058 232.996
L136.207 230.144
L136.282 232.051
L136.356 230.116
L136.579 210.416
L136.728 214.742
L136.951 231.872
L137.026 229.718
L137.1 230.173
L137.174 229.62
L137.323 227.305
L137.472 230.876
L137.621 221.286
L137.844 201.252
L137.918 201.696
L138.067 205.803
L138.142 205.474
L138.365 200.786
L138.439 202.301
L138.588 208.902
L138.737 206.177
L138.811 208.112
L138.886 207.847
L138.96 203.983
L139.109 219.172
L139.183 218.371
L139.332 212.571
L139.63 220.831
L139.778 225.104
L139.853 222.812
L140.002 216.585
L140.076 218.55
L140.299 231.135
L140.374 229.741
L140.448 230.271
L140.522 233.531
L140.597 232.276
L140.894 215.773
L141.266 195.826
L141.564 210.589
L141.638 209.668
L142.159 220.652
L142.308 218.417
L142.382 213.775
L142.457 215.514
L142.68 233.917
L142.754 234.459
L142.978 229.021
L143.126 221.32
L143.275 207.248
L143.35 207.358
L143.498 201.92
L143.722 188.828
L144.242 226.038
L144.317 225.116
L144.614 208.786
L144.689 207.64
L144.763 209.034
L144.986 220.894
L145.061 220.082
L145.135 221.061
L145.433 231.826
L145.656 220.191
L145.73 220.485
L145.879 210.762
L146.102 221.366
L146.177 220.445
L146.326 214.771
L146.474 221.395
L146.549 220.105
L146.623 217.749
L146.698 217.933
L147.218 233.911
L147.516 210.503
L147.59 212.311
L147.665 214.039
L148.111 188.592
L148.186 187.008
L148.26 187.664
L148.409 197.595
L148.632 215.082
L148.706 212.381
L148.855 228.958
L148.93 227.714
L149.004 220.969
L149.078 221.095
L149.302 235.513
L149.376 237.938
L149.674 222.219
L149.822 216.217
L149.897 216.413
L150.046 219.016
L150.12 217.709
L150.343 207.076
L150.418 207.617
L150.566 212.755
L150.715 202.767
L150.79 203.81
L151.013 211.396
L151.162 213.561
L151.31 207.853
L151.385 208.078
L151.682 222.628
L151.831 226.723
L151.98 220.381
L152.129 214.754
L152.352 222.265
L152.426 221.211
L152.501 221.527
L152.724 230.53
L152.798 230.974
L153.096 215.94
L153.245 219.638
L153.394 224.079
L153.989 200.302
L154.138 189.594
L154.212 190.521
L154.584 211.424
L154.658 208.625
L154.733 205.48
L154.807 206.229
L155.328 233.024
L155.402 232.224
L155.849 237.431
L156.37 202.629
L156.593 207.104
L156.667 207.07
L156.89 203.447
L157.039 213.101
L157.262 225.755
L157.337 227.017
L157.411 225.859
L157.709 212.254
L157.783 213.031
L157.858 215.238
L157.932 213.429
L158.155 196.846
L158.23 197.739
L158.378 206.258
L158.602 217.207
L158.825 211.315
L159.048 221.879
L159.197 219.379
L159.42 229.972
L159.494 229.747
L159.718 226.838
L159.866 231.838
L159.941 230.162
L160.313 214.495
L160.387 214.518
L160.462 214.512
L160.61 207.807
L160.685 209.65
L160.834 214.961
L160.908 214.351
L160.982 212.588
L161.057 212.916
L161.131 212.386
L161.354 202.969
L161.578 194.277
L162.024 209.236
L162.098 210.261
L162.173 209.817
L162.396 223.365
L162.47 223.319
L162.545 220.157
L163.14 232.074
L163.289 228.071
L163.438 233.71
L163.512 231.849
L164.033 199.121
L164.107 200.008
L164.405 220.399
L164.479 219.506
L164.554 217.783
L164.702 228.952
L164.777 228.1
L164.926 217.144
L165 217.553
L165.074 215.888
L165.223 210.336
L165.298 210.244
L165.372 209.437
L165.67 201.759
L165.893 190.418
L166.042 183.776
L166.414 215.687
L166.711 258.639
L166.786 262.521
L166.86 261.295
L166.934 261.168
L167.009 258.916
L167.604 198.332
L167.902 180.948
L167.976 182.503
L168.274 212.594
L168.422 223.722
L168.497 223.399
L168.72 219.275
L168.869 224.644
L169.39 210.624
L169.538 210.739
L169.613 211.465
L169.836 216.119
L170.208 211.822
L170.357 213.59
L170.506 220.191
L170.654 218.319
L170.803 220.45
L170.952 214.155
L171.175 225.888
L171.398 219.506
L171.547 212.974
L171.622 214.276
L171.77 227.138
L172.068 222.789
L172.217 209.898
L172.291 213.366
L172.366 212.139
L172.589 201.967
L172.663 202.013
L172.738 200.722
L172.886 204.397
L172.961 204.236
L173.11 199.668
L173.258 201.045
L173.407 211.828
L173.63 228.526
L173.854 233.071
L174.002 231.314
L174.077 234.637
L174.151 234.441
L174.598 213.389
L174.746 219.984
L174.821 219.823
L174.895 217.974
L175.044 222.754
L175.416 199.714
L175.49 203.188
L175.639 211.81
L175.937 201.575
L176.16 196.103
L176.532 221.804
L176.755 234.516
L176.83 234.09
L176.978 229.229
L177.053 229.989
L177.276 238.6
L177.425 231.746
L177.648 214.322
L177.797 216.476
L178.094 193.407
L178.243 180.534
L178.392 185.885
L179.062 232.443
L179.285 238.145
L179.359 241.567
L179.434 241.1
L179.657 237.051
L180.103 208.049
L180.178 207.807
L180.401 215.215
L180.55 220.26
L181.07 201.408
L181.145 201.575
L181.294 203.349
L181.368 202.508
L181.517 197.618
L181.591 200.653
L181.889 232.028
L182.261 220.56
L182.335 220.456
L182.558 214.109
L182.633 214.558
L182.782 202.652
L182.856 204.564
L183.005 214.235
L183.079 212.663
L183.154 215.001
L183.302 225.721
L183.526 210.365
L183.6 210.451
L183.674 210.808
L183.749 212.386
L183.823 217.375
L183.898 216.879
L183.972 209.852
L184.046 210.405
L184.716 252.551
L184.79 251.042
L184.939 247.856
L185.162 220.888
L185.311 200.365
L185.46 180.603
L185.534 182.446
L185.683 188.166
L185.906 177.475
L185.981 177.222
L186.204 193.396
L186.576 228.67
L186.725 215.215
L186.799 216.067
L187.097 232.224
L187.171 232.016
L187.543 219.926
L187.618 220.335
L187.692 219.73
L187.766 220.727
L188.064 234.568
L188.213 230.139
L188.362 231.769
L188.436 229.407
L188.51 229.522
L188.585 232.362
L188.659 229.327
L188.882 210.474
L189.031 202.848
L189.106 205.175
L189.18 209.345
L189.254 207.312
L189.478 192.687
L189.701 189.467
L189.775 190.147
L190.222 215.767
L190.519 234.752
L190.817 245.103
L190.966 237.5
L191.561 196.235
L191.635 197.088
L191.784 194.801
L191.858 196.224
L192.007 193.77
L192.305 216.038
L192.602 241.111
L192.751 249.412
L192.826 246.163
L193.346 196.281
L193.495 193.465
L193.793 200.826
L194.165 230.093
L194.239 234.603
L194.314 232.443
L194.686 213.112
L194.76 212.784
L194.909 207.773
L194.983 209.431
L195.058 213.089
L195.281 203.579
L195.355 203.695
L195.578 214.333
L196.025 257.268
L196.099 252.724
L196.397 208.406
L196.694 184.422
L196.918 175.966
L197.513 226.654
L197.587 225.738
L197.662 226.677
L197.81 230.052
L197.959 226.66
L198.034 226.994
L198.182 221.165
L198.257 221.671
L198.406 228.583
L198.48 227.961
L198.554 225.79
L198.703 232.397
L198.852 224.096
L199.001 234.574
L199.075 230.887
L199.447 197.359
L199.67 190.072
L199.745 191.028
L199.894 193.217
L200.042 201.454
L200.489 229.039
L200.712 233.019
L201.01 206.972
L201.158 207.404
L201.307 201.333
L201.605 216.372
L201.828 231.936
L201.977 241.555
L202.051 241.152
L202.2 243.611
L202.349 230.738
L202.498 218.538
L202.572 220.07
L202.944 203.562
L203.093 189.012
L203.242 186.109
L203.316 179.249
L203.39 179.641
L203.539 199.853
L203.986 267.619
L204.134 263.973
L204.209 265.891
L204.283 262.072
L204.878 165.442
L205.102 150.057
L205.176 151.572
L205.399 170.085
L205.994 279.513
L206.218 277.313
L206.366 263.023
L206.813 208.959
L206.962 201.523
L207.11 206.575
L207.334 197.111
L207.482 183.2
L207.557 183.632
L207.854 194.611
L208.003 208.216
L208.078 207.295
L208.152 208.602
L208.375 217.611
L208.524 219.465
L208.673 214.034
L208.896 207.053
L209.342 231.417
L209.491 224.131
L209.566 225.519
L209.789 245.074
L209.863 244.216
L210.086 228.203
L210.384 200.215
L210.607 210.342
L210.756 203.988
L210.905 206.909
L211.054 202.635
L211.202 195.619
L211.351 202.871
L211.5 196.034
L211.946 231.798
L212.021 232.535
L212.095 234.752
L212.318 253.772
L212.839 197.266
L212.914 198.234
L212.988 198.511
L213.137 194.732
L213.211 195.913
L213.36 206.402
L213.583 199.876
L213.732 202.22
L213.806 202.721
L214.253 239.487
L214.327 239.153
L214.476 235.04
L214.55 236.141
L214.625 232.051
L214.848 207.997
L214.997 212.139
L215.146 206.166
L215.22 207.041
L215.294 206.632
L215.443 201.442
L215.666 214.166
L215.741 213.285
L215.964 207.047
L216.113 202.427
L216.187 204.847
L216.41 227.967
L216.559 223.716
L216.708 229.822
L217.08 221.13
L217.154 222.029
L217.229 222.559
L217.378 218.239
L217.452 219.304
L217.601 223.855
L217.75 220.629
L217.898 227.46
L217.973 225.738
L218.122 210.601
L218.196 212.928
L218.27 214.287
L218.494 183.563
L219.014 208.959
L219.089 208.274
L219.163 211.966
L219.461 242.955
L219.535 245.287
L219.907 236.832
L220.056 224.937
L220.428 194.692
L220.502 191.984
L220.577 194.582
L220.726 189.467
L220.874 194.916
L221.172 213.003
L221.395 227.875
L221.47 227.167
L221.618 232.057
L221.693 230.985
L221.99 218.647
L222.065 212.703
L222.139 212.726
L222.288 209.334
L222.511 223.302
L222.586 221.988
L222.734 218.089
L222.883 225.588
L223.181 203.89
L223.255 207.018
L223.33 210.699
L223.478 199.755
L223.702 207.813
L223.85 204.351
L224.074 199.795
L224.371 225.162
L224.594 243.318
L224.818 233.543
L224.892 233.428
L225.041 219.776
L225.19 211.263
L225.264 211.447
L225.338 210.704
L225.487 203.666
L225.562 204.345
L226.082 231.527
L226.38 204.109
L226.454 202.272
L226.603 195.36
L226.752 200.532
L226.901 194.611
L227.05 203.648
L227.273 233.819
L227.347 231.51
L227.422 227.956
L227.496 229.384
L227.57 232.471
L227.645 231.423
L227.719 231.031
L227.868 238.554
L227.942 237.149
L228.24 208.262
L228.314 208.556
L228.463 215.808
L228.538 215.416
L228.686 205.595
L228.761 205.607
L228.91 214.615
L229.058 208.406
L229.133 208.93
L229.207 210.169
L229.43 194.686
L229.505 200.544
L229.654 210.658
L229.728 207.801
L229.951 220.733
L230.1 221.913
L230.398 239.752
L230.472 238.744
L230.918 222.127
L230.993 222.599
L231.067 224.816
L231.811 196.673
L231.96 203.66
L232.034 201.88
L232.109 201.817
L232.704 221.931
L232.778 218.774
L232.853 220.087
L233.002 226.602
L233.299 222.668
L233.448 223.808
L233.522 224.05
L233.671 221.176
L233.746 221.741
L233.82 221.303
L233.969 218.797
L234.043 218.342
L234.118 218.624
L234.266 222.063
L234.49 213.25
L234.638 199.507
L234.713 200.187
L234.787 206.148
L234.862 204.052
L235.01 194.404
L235.159 199.15
L235.234 200.653
L235.382 216.286
L235.606 238.784
L235.903 245.95
L236.052 230.807
L236.35 201.972
L236.498 198.032
L236.647 195.665
L236.796 203.216
L236.87 201.788
L236.945 199.76
L237.391 218.717
L237.763 237.823
L237.838 238.6
L237.912 237.327
L238.061 228.814
L238.135 229.528
L238.21 229.269
L238.284 226.815
L238.433 217.743
L238.507 217.853
L238.656 213.031
L238.73 214.068
L238.879 220.646
L238.954 219.154
L239.4 186.645
L239.474 186.991
L239.772 204.501
L239.921 203.263
L240.442 230.306
L240.516 231.337
L240.665 228.405
L240.739 228.434
L240.814 228.059
L241.111 219.817
L241.186 220.393
L241.334 224.321
L241.409 229.609
L241.483 226.245
L241.632 212.761
L241.706 213.233
L241.93 211.707
L242.004 211.828
L242.078 211.528
L242.302 203.764
L242.45 214.863
L242.599 224.327
L242.674 222.841
L242.822 214.523
L242.897 216.954
L242.971 214.189
L243.046 215.364
L243.12 216.223
L243.269 214.316
L243.418 216.142
L243.566 212.335
L243.79 226.095
L243.864 224.834
L244.087 211.119
L244.162 209.322
L244.236 209.748
L244.385 216.551
L244.757 230.801
L244.831 233.255
L244.906 230.824
L245.278 185.441
L245.352 184.289
L245.65 210.503
L245.798 222.478
L245.873 221.787
L245.947 220.854
L246.17 228.146
L246.245 228.653
L246.468 234.464
L246.766 221.032
L246.84 221.654
L246.914 221.17
L247.138 214.662
L247.212 217
L247.286 216.839
L247.51 208.406
L247.733 196.759
L247.807 192.572
L247.882 194.525
L248.179 200.008
L248.626 241.728
L248.774 246.48
L248.923 243.139
L249.072 248.248
L249.221 235.91
L249.593 206.638
L249.667 207.387
L249.742 210.716
L249.89 201.823
L250.262 176.922
L250.337 177.026
L250.634 199.444
L250.783 209.84
L251.006 228.411
L251.23 235.686
L251.453 225.703
L251.676 231.607
L252.346 206.494
L252.494 214.431
L252.718 233.024
L252.866 232.379
L253.015 230.116
L253.09 230.496
L253.164 231.394
L253.238 231.003
L253.387 216.96
L253.61 198.401
L253.685 198.66
L254.206 216.931
L254.28 218.02
L254.429 215.531
L254.652 207.058
L254.726 208.948
L254.801 208.303
L254.875 206.966
L255.098 216.148
L255.247 203.487
L255.322 204.438
L255.396 209.817
L255.47 209.627
L255.545 205.094
L255.619 206.845
L255.768 213.412
L255.917 208.124
L256.214 222.858
L256.438 227.783
L256.512 227.023
L256.661 222.564
L256.884 233.721
L256.958 232.627
L257.182 226.02
L257.256 228.618
L257.33 228.422
L257.405 227.921
L257.554 221.885
L257.628 217.087
L257.702 217.432
L257.777 217.282
L258 201.16
L258.074 201.333
L258.149 204.628
L258.298 215.526
L258.446 211.119
L258.67 173.685
L258.744 175.442
L259.339 278.027
L259.562 250.074
L259.711 217.328
L260.009 116.678
L260.083 111.483
L260.232 144.102
L260.604 247.067
L260.827 262.896
L260.976 255.051
L261.199 242.125
L261.422 223.641
L261.497 222.818
L261.869 259.209
L261.943 257.718
L262.092 234.487
L262.315 205.745
L262.762 146.999
L262.91 165.967
L263.282 217.115
L263.357 214.356
L263.431 215.479
L263.729 353.057
L263.803 348.991
L263.952 289.346
L264.324 73.2363
L264.398 67.8795
L264.473 78.0286
L265.142 288.303
L265.217 291.552
L265.291 290.325
L265.514 260.983
L265.738 238.404
L265.886 226.233
L266.258 190.527
L266.407 189.629
L266.482 190.164
L266.63 195.031
L267.002 221.62
L267.3 237.235
L267.374 234.557
L267.821 199.231
L267.97 191.696
L268.044 191.731
L268.565 216.067
L268.714 212.058
L268.788 213.677
L269.086 231.487
L269.234 230.513
L269.383 232.817
L269.681 210.272
L269.83 211.684
L269.904 211.712
L270.053 206.494
L270.127 207.001
L270.202 207.709
L270.425 227.685
L270.499 226.135
L270.574 226.326
L270.648 227.316
L270.797 233.566
L270.871 233.382
L271.392 207.583
L271.466 208.93
L271.615 220.076
L271.69 219.805
L271.913 195.999
L272.21 234.66
L272.88 187.687
L272.954 189.364
L273.103 195.924
L273.252 184.203
L273.326 186.438
L273.55 205.469
L273.624 205.44
L273.773 225.698
L273.996 246.82
L274.07 247.672
L274.294 259.094
L274.368 258.518
L275.261 199.945
L275.41 195.394
L275.484 195.728
L275.558 196.592
L275.782 192.808
L275.856 193.01
L275.93 193.252
L276.005 195.279
L276.302 214.253
L276.526 207.83
L276.6 208.971
L276.898 213.308
L277.046 221.493
L277.195 218.469
L277.27 218.48
L277.493 230.26
L277.716 238.255
L277.865 233.399
L278.162 223.019
L278.237 221.556
L278.311 222.461
L278.386 225.496
L278.46 224.148
L278.758 206.033
L278.832 203.833
L279.055 213.452
L279.278 199.657
L279.427 208.164
L279.65 223.031
L279.725 223.797
L279.874 220.675
L279.948 221.913
L280.097 227.287
L280.171 224.298
L280.394 203.545
L280.543 212.53
L280.766 191.817
L280.99 196.183
L281.064 196.086
L281.882 247.234
L281.957 245.875
L282.106 237.552
L282.18 237.028
L282.329 229.868
L282.403 231.106
L282.626 253.484
L282.775 239.66
L282.924 203.032
L283.147 143.721
L283.222 147.154
L283.891 233.618
L284.263 256.594
L284.338 257.09
L284.412 252.954
L284.71 199.403
L284.784 199.639
L284.858 202.364
L284.933 202.208
L285.23 195.078
L285.305 196.667
L285.602 215.946
L285.677 215.491
L285.826 220.6
L285.9 224.488
L285.974 223.411
L286.049 221.314
L286.123 221.735
L286.421 241.186
L286.57 251.75
L286.867 228.077
L287.165 193.816
L287.239 192.319
L287.388 199.069
L287.611 194.006
L287.76 203.101
L287.909 213.256
L288.058 207.542
L288.132 208.026
L288.355 217.847
L288.578 199.259
L288.727 187.947
L288.876 189.721
L288.95 189.871
L289.099 206.166
L289.397 257.51
L289.471 258.207
L289.769 269.618
L289.843 268.132
L289.992 251.566
L290.364 199.881
L290.587 184.404
L290.662 185.533
L290.736 184.375
L290.959 176.023
L291.182 168.933
L291.331 184.975
L291.554 215.094
L291.778 237.863
L291.852 237.823
L292.001 234.505
L292.075 237.051
L292.373 258.622
L292.447 259.129
L292.968 214.921
L293.117 206.742
L293.414 189.94
L293.638 181.83
L293.712 180.747
L293.786 182.296
L294.01 202.64
L294.307 232.448
L294.382 234.119
L294.456 234.067
L294.53 233.474
L294.605 235.622
L294.679 235.559
L294.977 219.638
L295.349 201.212
L295.498 180.367
L295.572 181.207
L295.646 181.519
L295.795 193.292
L296.167 254.976
L296.39 263.846
L296.465 262.049
L296.614 244.026
L296.986 148.053
L297.06 150.052
L297.283 204.057
L297.655 296.361
L297.73 293.551
L298.027 251.537
L298.474 143.215
L298.622 141.579
L298.771 149.971
L299.143 193.517
L299.664 257.862
L299.813 263.466
L299.887 261.525
L300.11 268.8
L300.259 258.996
L300.631 215.272
L300.929 181.501
L301.078 174.877
L301.226 182.901
L301.673 213.187
L301.747 213.008
L301.822 210.889
L302.045 244.717
L302.119 244.7
L302.491 215.629
L302.566 211.989
L302.714 216.107
L303.235 193.891
L303.607 218.861
L303.682 219.823
L303.905 216.741
L304.202 224.793
L304.277 224.189
L304.351 223.509
L304.426 221.263
L304.649 209.46
L304.798 214.754
L304.946 211.476
L305.244 224.356
L305.318 224.022
L305.542 204.259
L305.616 205.083
L305.765 213.936
L305.839 213.222
L305.914 215.272
L306.211 234.764
L306.36 229.257
L306.583 216.931
L306.732 224.805
L306.881 235.484
L306.955 234.102
L307.104 216.718
L307.178 217.375
L307.327 221.499
L307.402 220.076
L307.476 221.602
L307.625 210.854
L307.848 172.999
L308.071 175.828
L308.22 181.945
L308.964 263.575
L309.113 249.97
L309.782 175.24
L309.857 173.852
L310.378 234.274
L310.526 241.325
L310.601 241.146
L311.047 219.235
L311.345 189.594
L311.419 186.973
L311.717 209.76
L311.791 209.84
L312.014 219.339
L312.089 217.968
L312.312 234.868
L312.386 234.309
L312.758 214.541
L312.982 208.481
L313.13 207.22
L313.205 208.47
L313.502 225.824
L313.577 225.94
L314.246 205.549
L314.544 168.852
L314.693 183.442
L315.288 294.576
L315.362 294.224
L315.511 275.833
L315.958 185.942
L316.032 184.75
L316.181 174.301
L316.33 162.102
L316.627 183.097
L316.925 159.55
L317.074 163.236
L317.222 188.143
L317.743 314.027
L317.892 316.631
L318.115 286.293
L318.785 170.903
L319.008 163.144
L319.306 173.12
L319.603 161.318
L319.826 181.795
L320.422 270.246
L320.645 278.759
L320.794 269.157
L320.942 248.553
L321.24 206.609
L321.463 183.529
L321.538 191.789
L321.612 189.122
L321.686 157.309
L321.835 246.209
L321.91 243.784
L321.984 221.061
L322.058 229.35
L322.207 207.623
L322.356 226.527
L322.505 193.321
L322.728 233.485
L322.802 225.197
L322.877 210.382
L323.026 230.726
L323.1 222.144
L323.174 215.969
L323.249 199.11
L323.398 136.637
L323.472 136.061
L323.546 139.874
L324.067 307.714
L324.365 254.048
L324.514 229.551
L324.662 242.171
L325.183 149.107
L325.258 142.736
L325.332 145.743
L325.927 246.267
L326.002 254.331
L326.076 251.399
L326.448 235.046
L326.746 190.585
L326.894 182.083
L327.043 179.335
L327.713 254.93
L327.787 254.878
L327.936 247.828
L328.234 224.407
L328.606 203.487
L328.68 205.382
L328.754 203.309
L329.052 186.887
L329.126 183.776
L329.35 193.534
L329.722 222.921
L329.796 226.256
L329.87 225.778
L330.019 228.693
L330.242 236.377
L330.466 242.275
L330.986 204.017
L331.358 162.77
L332.102 250.69
L332.177 250.414
L332.326 243.997
L332.474 245.201
L332.549 239.257
L332.623 239.493
L332.772 246.439
L332.846 245.276
L333.218 222.409
L333.665 155.397
L333.739 159.175
L334.186 206.189
L334.483 235.334
L334.706 248.887
L334.855 262.585
L334.93 262.406
L335.227 241.659
L335.525 206.799
L335.897 160.65
L336.046 147.794
L336.12 149.257
L336.343 161.577
L336.864 289.766
L337.013 303.469
L337.31 269.992
L337.757 185.568
L337.906 171.583
L337.98 171.421
L338.054 174.347
L338.352 199.945
L338.501 194.703
L338.947 213.037
L339.022 211.303
L339.245 203.032
L339.319 201.811
L339.394 201.995
L339.468 203.988
L339.989 236.699
L340.286 224.88
L340.361 227.639
L340.435 226.032
L340.51 220.249
L340.584 220.911
L340.882 233.134
L341.03 237.097
L341.105 236.285
L341.254 232.875
L341.477 226.078
L341.7 208.147
L341.998 194.358
L342.072 194.749
L342.146 195.728
L342.37 206.045
L342.444 205.307
L342.593 201.333
L342.667 202.928
L342.816 195.832
L342.89 196.345
L342.965 199.703
L343.114 196.368
L343.56 235.144
L343.858 248.818
L343.932 247.851
L344.304 214.339
L344.527 202.888
L344.602 204.697
L344.825 215.422
L344.899 215.249
L345.048 211.983
L345.122 213.642
L345.197 212.87
L345.271 212.386
L345.494 225.007
L345.569 224.759
L345.866 234.879
L346.09 230.052
L346.685 166.681
L346.759 168.046
L346.982 188.69
L347.28 234.631
L347.578 265.044
L347.726 254.135
L348.247 195.371
L348.322 192.031
L348.396 192.192
L348.545 193.805
L348.694 192.088
L348.842 198.85
L349.14 216.332
L349.214 216.637
L349.884 236.383
L350.033 240.38
L350.107 243.905
L350.256 226.493
L350.33 219.811
L350.405 220.416
L350.554 222.167
L350.702 214.103
L351.223 186.962
L351.298 189.899
L351.521 210.313
L351.67 208.994
L351.893 213.256
L352.19 236.843
L352.414 240.288
L352.488 239.17
L352.562 236.221
L352.86 207.865
L353.009 209.863
L353.083 209.587
L353.158 208.907
L353.232 210.526
L353.306 209.42
L353.53 196.068
L353.604 195.417
L353.753 198.706
L353.827 196.973
L353.902 197.41
L354.274 218.285
L354.571 245.408
L354.646 245.264
L354.72 244.268
L355.836 206.759
L355.985 205.313
L356.357 193.77
L356.58 199.069
L356.654 198.557
L356.729 199.046
L356.878 196.512
L357.026 203.176
L357.547 243.018
L357.622 242.459
L357.77 238.704
L358.068 225.231
L358.142 225.237
L358.291 227.253
L358.366 227.23
L358.589 219.483
L358.663 218.538
L358.886 210.699
L359.035 213.285
L359.333 203.021
L359.407 205.198
L359.482 204.864
L359.556 200.371
L359.63 202.589
L359.705 207.364
L359.854 203.7
L360.151 210.906
L360.226 210.319
L360.374 206.344
L360.672 215.324
L360.746 216.413
L360.821 215.802
L360.97 208.026
L361.118 218.665
L361.267 227.253
L361.342 224.932
L361.416 225.583
L361.639 231.567
L361.714 230.755
L361.862 226.527
L361.937 226.948
L362.086 231.55
L362.606 216.361
L362.755 219.373
L362.904 214.65
L363.276 192.883
L363.648 208.17
L363.797 220.98
L363.946 219.73
L364.094 222.455
L364.243 218.832
L364.466 225.392
L364.541 224.108
L364.913 200.509
L364.987 201.131
L365.508 229.257
L365.657 225.819
L365.731 227.696
L365.88 217.501
L365.954 217.697
L366.178 234.937
L366.475 212.841
L366.624 192.762
L366.698 193.079
L366.773 198.775
L366.847 197.595
L366.922 194.795
L367.591 226.539
L367.666 227.662
L367.963 206.384
L368.038 208.199
L368.186 217.34
L368.41 199.778
L368.558 209.299
L368.782 228.797
L368.856 228.681
L368.93 231.227
L369.005 230.191
L369.154 222.403
L369.228 222.098
L369.377 216.194
L369.6 229.113
L369.674 228.964
L369.749 229.171
L369.898 222.777
L370.121 211.718
L370.195 211.263
L370.642 205.186
L370.716 206.972
L370.939 224.338
L371.237 209.172
L371.386 216.729
L371.534 213.152
L371.683 207.127
L371.758 206.949
L371.906 202.278
L371.981 203.199
L372.055 201.926
L372.278 179.526
L372.427 196.068
L372.725 232.224
L372.799 235.052
L373.022 250.011
L373.171 248.588
L373.32 239.735
L373.692 204.461
L373.766 204.714
L373.841 207.404
L374.213 239.003
L374.287 237.373
L374.51 227.662
L374.659 231.463
L375.031 195.757
L375.18 184.75
L375.254 185.476
L375.329 185.286
L375.478 180.055
L376.073 214.967
L376.37 233.232
L376.668 214.915
L376.891 209.656
L376.966 209.42
L377.04 209.806
L377.189 223.572
L377.338 236.354
L377.412 236.06
L377.635 233.071
L377.71 233.105
L378.082 222.495
L378.305 226.135
L378.379 225.94
L378.454 225.323
L378.602 222.357
L378.826 212.519
L378.9 215.428
L378.974 215.266
L379.123 203.078
L379.272 194.335
L379.346 195.135
L379.495 199.519
L379.57 199.196
L379.644 199.812
L379.793 198.194
L379.942 206.88
L380.165 216.539
L380.314 220.831
L380.462 226.464
L380.537 226.078
L380.611 226.303
L380.834 234.597
L381.132 221.856
L381.355 209.023
L381.504 203.643
L381.727 188.828
L382.025 202.099
L382.471 237.252
L382.694 241.901
L382.769 238.882
L382.992 222.311
L383.066 222.006
L383.29 228.255
L383.438 215.975
L383.513 216.044
L383.587 216.856
L383.81 197.698
L383.885 200.25
L383.959 203.568
L384.182 193.908
L384.257 196.374
L384.406 205.376
L384.554 208.567
L384.703 214.996
L384.778 214.909
L384.926 213.878
L385.001 214.915
L385.075 212.945
L385.15 213.561
L385.447 230.738
L385.522 229.119
L385.596 232.771
L385.67 232.155
L385.819 226.383
L385.894 226.913
L385.968 226.654
L386.042 226.556
L386.34 217.974
L386.489 207.225
L386.563 206.857
L386.712 198.084
L386.861 182.757
L386.935 183.702
L387.01 183.655
L387.084 185.677
L387.679 239.021
L387.902 246.169
L388.051 246.739
L388.2 238.635
L388.274 240.449
L388.349 238.554
L388.87 197.024
L389.018 199.565
L389.242 196.039
L389.39 188.148
L389.465 188.793
L389.837 211.315
L389.911 212.893
L389.986 212.507
L390.06 209.455
L390.134 210.077
L390.655 234.833
L390.878 246.388
L390.953 246.439
L391.102 238.053
L391.399 214.443
L391.548 210.866
L391.846 193.413
L391.92 193.799
L392.069 201.604
L392.143 201.581
L392.218 202.047
L392.59 212.519
L392.664 212.375
L393.036 227.155
L393.259 222.783
L393.334 223.336
L393.408 224.333
L393.557 221.792
L393.631 222.674
L393.854 216.729
L394.152 234.251
L394.226 236.912
L394.375 225.433
L394.598 204.103
L394.673 203.43
L394.97 192.589
L395.045 192.036
L395.119 193.367
L395.268 205.947
L395.491 221.464
L395.566 219.028
L395.64 219.961
L395.714 226.032
L395.789 224.258
L395.938 216.724
L396.012 217.006
L396.161 219.316
L396.384 232.414
L396.458 231.677
L396.682 218.48
L396.756 220.928
L396.83 219.091
L397.128 203.355
L397.277 199.012
L397.426 207.871
L397.649 219.851
L397.723 218.596
L397.872 224.978
L398.244 217.501
L398.393 219.045
L398.467 218.215
L398.616 205.993
L398.69 206.125
L398.988 215.099
L399.062 214.506
L399.211 209.42
L399.509 223.169
L399.658 219.056
L399.732 219.805
L399.955 232.408
L400.104 237.264
L400.253 220.744
L400.476 208.925
L400.699 212.916
L400.774 210.468
L400.922 194.899
L400.997 195.711
L401.146 201.5
L401.22 198.107
L401.294 198.228
L401.369 198.084
L401.443 201.92
L401.741 230.53
L401.815 231.636
L401.964 225.271
L402.038 226.832
L402.187 235.858
L402.262 235.092
L402.336 233.312
L402.857 202.22
L402.931 203.119
L403.08 210.117
L403.229 208.781
L403.378 203.948
L403.973 226.66
L404.122 233.191
L404.27 225.11
L404.494 215.186
L404.717 208.792
L404.791 208.13
L404.866 208.297
L405.163 217.34
L405.238 218.567
L405.461 206.471
L405.535 206.713
L405.833 220.214
L405.907 217.15
L406.13 197.658
L406.651 223.774
L406.8 240.478
L406.874 239.551
L407.098 229.044
L407.246 229.943
L407.321 229.079
L407.47 234.194
L407.544 233.71
L408.065 194.859
L408.139 197.03
L408.437 211.868
L408.809 195.711
L408.883 198.159
L409.106 218.383
L409.181 219.621
L409.33 217.288
L409.478 229.845
L409.702 245.506
L409.85 246.295
L409.925 243.565
L410.446 198.39
L410.594 193.632
L410.743 198.891
L411.041 184.024
L411.19 186.34
L411.859 254.912
L411.934 252.032
L412.008 250.086
L412.082 250.857
L412.231 255.823
L412.38 240.576
L412.678 206.31
L413.05 168.201
L413.124 167.199
L413.347 180.966
L413.942 249.36
L414.538 225.703
L414.686 227.714
L414.91 213.959
L415.133 204.593
L415.356 214.518
L415.43 213.93
L415.579 211.793
L415.654 212.548
L415.728 212.139
L415.877 208.418
L416.026 196.385
L416.174 206.01
L416.323 214.759
L416.472 211.522
L416.844 198.96
L416.918 201.488
L417.29 232.42
L417.365 231.371
L417.514 226.043
L417.662 226.671
L417.737 226.585
L417.886 221.435
L417.96 222.046
L418.183 229.718
L418.332 226.187
L418.406 226.498
L418.555 220.831
L418.853 199.075
L419.002 200.279
L419.299 213.838
L419.374 212.231
L419.448 212.536
L419.671 221.62
L419.746 220.842
L419.82 219.16
L419.894 219.967
L420.118 230.317
L420.713 202.208
L420.862 203.614
L421.01 201.759
L421.159 203.13
L421.234 201.932
L421.308 203.343
L421.754 228.29
L421.829 228.612
L422.201 223.117
L422.35 230.064
L422.498 244.268
L422.573 243.266
L422.87 218.446
L423.168 196.541
L423.242 197.917
L423.391 192.376
L423.763 199.853
L423.986 196.402
L424.135 198.994
L424.358 213.97
L424.433 213.469
L424.656 222.731
L424.954 247.822
L425.028 244.907
L425.4 231.199
L425.549 234.672
L425.846 227.12
L426.218 204.904
L426.293 203.13
L426.516 208.003
L426.814 187.924
L426.888 188.402
L427.037 192.468
L427.186 188.252
L427.334 195.504
L427.93 242.765
L428.078 249.129
L428.45 233.531
L428.748 217.207
L428.897 205.348
L428.971 199.57
L429.046 199.783
L429.194 202.969
L429.269 203.165
L429.715 216.908
L429.864 213.504
L430.013 217.104
L430.236 206.886
L430.31 209.299
L430.385 209.408
L430.682 203.378
L430.906 205.975
L431.129 222.063
L431.203 221.562
L431.352 214.523
L431.575 229.793
L431.65 228.802
L431.724 227.685
L431.873 231.55
L431.947 231.36
L432.096 229.609
L432.17 233.215
L432.245 232.339
L432.394 219.748
L432.468 220.387
L432.617 225.099
L432.766 218.855
L432.989 204.685
L433.063 204.61
L433.138 206.477
L433.286 203.395
L433.361 203.815
L433.435 205.158
L433.51 204.391
L433.584 204.772
L433.807 211.995
L434.03 204.651
L434.179 207.467
L434.328 205.457
L434.402 206.448
L434.774 223.63
L434.849 223.474
L434.998 224.154
L435.221 236.267
L435.295 234.712
L435.742 206.01
L435.816 206.621
L436.262 228.946
L436.337 231.21
L436.486 221.309
L436.634 214.598
L436.783 221.326
L436.858 219.851
L437.081 201.051
L437.155 201.177
L437.378 214.961
L437.453 211.344
L437.527 212.144
L437.676 213.786
L437.899 208.596
L438.122 220.56
L438.271 220.197
L438.643 218.325
L438.866 211.822
L439.015 214.932
L439.09 214.506
L439.164 214.287
L439.238 214.529
L439.313 213.521
L439.387 213.705
L439.462 213.354
L439.536 213.492
L439.759 224.2
L439.834 221.28
L439.908 218.008
L440.057 226.101
L440.206 215.877
L440.28 216.729
L440.429 220.871
L440.503 220.255
L440.578 220.635
L440.652 221.683
L440.801 215.024
L440.95 208.228
L441.098 215.906
L441.322 220.491
L441.396 220.272
L441.47 219.362
L441.694 213.325
L441.768 213.481
L441.842 215.261
L441.917 214.656
L442.214 203.222
L442.289 204.38
L442.661 219.99
L442.735 217.242
L442.81 218.665
L442.884 222.368
L442.958 221.908
L443.182 210.111
L443.479 221.758
L443.554 223.405
L443.702 217.179
L443.777 214.506
L443.851 215.485
L444.074 218.002
L444.223 213.942
L444.595 227.264
L445.116 214.189
L445.414 196.339
L445.711 194.375
L445.86 194.997
L445.934 197.744
L446.306 230.185
L446.604 242.58
L446.678 241.975
L446.976 225.127
L447.05 226.233
L447.125 230.162
L447.199 229.35
L447.348 227.754
L447.72 212.461
L448.092 186.196
L448.315 196.287
L448.836 216.274
L448.91 215.67
L449.059 212.288
L449.134 212.271
L449.208 211.972
L449.282 213.348
L449.654 236.066
L449.803 235.075
L449.878 233.698
L449.878 233.698" style="fill:none;stroke:#808080;stroke-linecap:square;"/>
   </g>
  </g>
 </g>
 <defs>
  <clipPath id="p7ff5b81e1d">
   <rect height="345.6" width="446.4" x="72.0" y="43.2"/>
  </clipPath>
 </defs>
</svg>
