<?xml version="1.0" encoding="utf-8" standalone="no"?>
<!DOCTYPE svg PUBLIC "-//W3C//DTD SVG 1.1//EN"
  "http://www.w3.org/Graphics/SVG/1.1/DTD/svg11.dtd">
<!-- Created with matplotlib (http://matplotlib.org/) -->
<svg height="432pt" version="1.1" viewBox="0 0 576 432" width="576pt" xmlns="http://www.w3.org/2000/svg" xmlns:xlink="http://www.w3.org/1999/xlink">
 <defs>
  <style type="text/css">
*{stroke-linecap:butt;stroke-linejoin:round;}
  </style>
 </defs>
 <g id="figure_1">
  <g id="patch_1">
   <path d="
M0 432
L576 432
L576 0
L0 0
z
" style="fill:#ffffff;"/>
  </g>
  <g id="axes_1">
   <g id="line2d_1">
    <path clip-path="url(#p7ff5b81e1d)" d="
M72 247.358
L72.0744 241.091
L72.2976 281.135
L72.372 277.333
L72.4464 271.608
L72.6696 299.82
L72.744 302.032
L72.8184 296.433
L73.0416 245.008
L73.116 254.397
L73.2648 203.905
L73.3392 177.8
L73.4136 179.747
L73.488 181.222
L73.5624 179.298
L73.6368 189.781
L73.7112 184.931
L73.7856 183.86
L74.0088 220.724
L74.5296 137.031
L74.604 152.272
L74.7528 179.747
L74.8272 176.602
L74.976 184.597
L75.1248 141.201
L75.2736 206.07
L75.4224 302.47
L75.4968 289.613
L75.72 215.828
L75.8688 197.373
L75.9432 203.375
L76.1664 256.033
L76.3896 196.785
L76.6872 222.06
L76.836 234.133
L76.9848 253.51
L77.1336 248.291
L77.208 250.86
L77.4312 277.598
L77.5056 274.453
L77.58 279.165
L77.6544 278.22
L77.8776 273.267
L78.1752 195.921
L78.2496 200.886
L78.3984 186.625
L78.4728 193.537
L78.6216 160.405
L78.7704 201.244
L78.8448 192.615
L78.9936 174.552
L79.068 173.089
L79.44 120.12
L79.7376 180.162
L79.9608 242.036
L80.184 271.527
L80.2584 267.242
L80.4816 208.628
L80.6304 228.995
L80.8536 269.396
L81.1512 214.503
L81.2256 215.77
L81.4488 250.307
L81.5976 230.055
L81.7464 255.848
L81.8952 197.476
L81.9696 210.701
L82.1928 264.039
L82.7136 166.845
L82.788 170.969
L83.2344 230.159
L83.3832 203.905
L83.6064 233.845
L83.8296 201.508
L83.904 206.14
L84.2016 122.539
L84.7968 248.533
L85.02 264.131
L85.2432 223.477
L85.3176 228.523
L85.4664 199.458
L85.5408 203.524
L85.764 236.092
L85.8384 259.961
L85.9128 248.844
L86.0616 219.94
L86.2104 256.044
L86.3592 209.93
L86.508 225.827
L86.5824 221.922
L86.6568 204.089
L86.88 233.096
L87.0288 265.629
L87.1776 214.123
L87.252 217.602
L87.3264 216.669
L87.5496 173.86
L87.9216 218.627
L88.0704 200.068
L88.368 241.402
L88.4424 232.255
L88.5912 174.932
L88.74 233.649
L88.8144 220.528
L88.8888 201.301
L89.0376 234.317
L89.1864 206.566
L89.2608 216.646
L89.3352 216.565
L89.4096 209.953
L89.484 211.98
L89.5584 218.846
L89.7072 195.668
L89.7816 199.239
L89.856 212.579
L90.0048 187.8
L90.1536 217.579
L90.3024 186.475
L90.4512 227.647
L90.5256 223.362
L90.6744 251.148
L90.8232 213.823
L90.8976 221.369
L90.972 233.177
L91.1208 181.994
L91.1952 191.244
L91.344 225.597
L91.4184 225.7
L91.716 292.079
L91.7904 280.559
L91.9392 214.376
L92.0136 216.415
L92.2368 171.372
L92.3856 216.888
L92.46 205.264
L92.6832 221.841
L92.832 193.156
L92.9064 197.119
L92.9808 195.242
L93.0552 204.976
L93.2784 249.236
L93.6504 182.466
L94.0224 264.339
L94.0968 253.786
L94.2456 209.112
L94.3944 160.889
L94.5432 212.683
L94.692 203.317
L94.7664 211.807
L94.8408 209.688
L94.9896 155.682
L95.064 163.896
L95.2128 184.194
L95.2872 179.367
L95.3616 184.908
L95.5104 176.326
L95.6592 207.821
L95.7336 204.273
L96.1056 258.855
L96.18 260.975
L96.3288 251.068
L96.4776 256.989
L96.552 262.38
L96.7752 293.715
L96.8496 289.014
L97.2216 206.335
L97.3704 172.052
L97.5192 193.226
L97.668 145.464
L97.8912 243.787
L98.04 228.223
L98.1888 197.569
L98.3376 142.204
L98.4864 194.931
L98.7096 246.966
L98.784 255.111
L98.8584 252.542
L98.9328 245.158
L99.2304 133.679
L99.528 225.528
L99.6024 220.113
L99.6768 220.701
L99.7512 217.913
L99.9 163.158
L100.049 176.694
L100.198 155.44
L100.272 158.631
L100.644 269.534
L100.718 252.876
L100.793 234.029
L100.867 238.891
L101.239 307.481
L101.314 308.322
L101.388 303.069
L101.537 307.677
L101.611 306.352
L101.909 258.717
L101.983 265.652
L102.058 269.096
L102.132 263.428
L102.355 159.242
L102.504 81.5738
L102.578 82.2304
L102.727 99.591
L103.025 178.952
L103.248 210.137
L103.322 204.365
L103.471 180.761
L103.694 261.885
L103.769 255.111
L103.992 164.184
L104.066 165.163
L104.29 205.08
L104.438 204.158
L104.662 227.394
L104.736 238.545
L104.81 236.195
L104.959 214.019
L105.034 224.767
L105.108 220.493
L105.182 220.067
L105.331 242.681
L105.48 212.095
L105.554 217.475
L105.926 311.697
L106.224 266.308
L106.373 314.036
L106.447 313.46
L106.819 153.124
L106.894 162.778
L106.968 178.906
L107.191 143.609
L107.266 146.719
L107.34 149.058
L107.414 148.309
L107.489 144.231
L107.563 147.445
L107.712 178.422
L107.786 204.711
L107.861 204.158
L108.01 190.012
L108.233 125.407
L108.307 134.992
L108.605 232.612
L109.126 289.786
L109.2 283.139
L109.274 265.18
L109.349 271.366
L109.423 269.419
L109.498 259.396
L109.721 168.676
L109.795 171.372
L110.167 226.53
L110.242 223.777
L110.39 192.58
L110.465 193.56
L110.837 233.914
L110.911 236.276
L110.986 232.566
L111.06 238.442
L111.432 299.475
L111.878 181.256
L112.176 144.657
L112.25 149.357
L112.325 144.657
L112.399 149.334
L112.771 229.18
L112.846 223.362
L112.994 182.431
L113.143 198.605
L113.366 258.751
L113.441 254.224
L113.59 214.768
L113.738 250.756
L113.813 248.337
L114.11 226.691
L114.259 272.829
L114.334 254.04
L114.482 177.282
L114.631 191.06
L114.706 188.917
L114.929 168.78
L115.078 196.843
L115.152 183.56
L115.226 187.869
L115.301 206.347
L115.375 204.642
L115.45 196.866
L115.524 197.949
L115.97 306.652
L116.045 293.956
L116.119 293.104
L116.342 246.563
L116.417 252.289
L116.491 247.865
L116.64 212.36
L116.714 214.48
L117.161 164.253
L117.384 175.082
L117.533 226.611
L117.682 201.589
L117.83 235.527
L117.979 219.491
L118.202 253.314
L118.426 195.956
L118.574 165.151
L118.723 215.033
L118.798 209.365
L118.946 187.742
L119.021 186.44
L119.17 144.796
L119.244 153.608
L119.393 186.844
L119.616 240.607
L119.839 192.408
L120.062 285.766
L120.137 283.347
L120.286 239.985
L120.36 240.826
L120.434 238.073
L120.509 240.147
L120.806 267.956
L121.03 231.38
L121.253 305.43
L121.327 284.257
L121.476 232.705
L121.625 157.237
L121.699 158.47
L122.071 212.211
L122.294 158.965
L122.369 159.875
L122.443 163.665
L122.666 211.704
L122.815 183.457
L123.262 242.335
L123.336 243.107
L123.559 138.771
L123.634 152.019
L123.931 304.301
L124.006 277.494
L124.229 120.039
L124.526 226.53
L124.601 239.409
L124.675 229.007
L124.824 159.806
L124.898 168.02
L125.196 373.871
L125.27 340.981
L125.494 227.428
L125.568 228.995
L125.866 337.64
L125.94 325.521
L126.238 140.717
L126.535 251.955
L126.833 106.088
L126.907 108.819
L127.13 220.804
L127.205 207.868
L127.428 91.9763
L127.502 95.4784
L127.651 175.185
L127.8 287.448
L127.874 285.374
L128.098 196.486
L128.172 189.263
L128.321 237.912
L128.47 315.51
L128.544 307.274
L128.842 117.735
L128.916 148.355
L129.214 316.328
L129.362 211.98
L129.511 148.724
L129.809 309.635
L129.883 286.745
L130.181 118.991
L130.33 223.65
L130.478 329.761
L130.553 321.432
L130.85 186.302
L131.148 266.896
L131.371 204.734
L131.52 166.303
L131.818 253.452
L132.19 109.636
L132.264 122.044
L132.562 243.51
L132.859 150.129
L133.231 279.66
L133.306 274.718
L133.454 216.611
L133.529 230.308
L133.603 249.063
L133.678 248.164
L133.901 206.969
L134.05 189.251
L134.124 190.276
L134.422 265.41
L134.496 260.86
L134.719 192.385
L134.942 233.465
L135.314 196.97
L135.686 298.611
L135.91 232.209
L135.984 244.225
L136.207 154.968
L136.579 225.47
L136.654 219.779
L136.877 190.714
L136.951 171.614
L137.174 226.588
L137.323 214.526
L137.398 213.996
L137.621 191.475
L137.77 208.847
L137.918 183.468
L138.067 226.472
L138.142 215.068
L138.216 207.683
L138.29 214.388
L138.365 214.33
L138.439 207.58
L138.514 207.729
L138.588 210.955
L138.662 199.619
L138.737 200.264
L138.96 215.275
L139.109 183.86
L139.183 190.553
L139.555 266.493
L139.704 250.998
L140.002 294.74
L140.076 280.49
L140.225 239.432
L140.374 280.202
L140.597 206.105
L140.746 225.804
L140.894 182.316
L140.969 182.639
L141.118 218.374
L141.192 214.998
L141.415 232.532
L141.862 93.1629
L142.01 168.354
L142.159 220.321
L142.308 199.193
L142.457 238.995
L142.606 203.582
L142.68 208.225
L142.754 229.11
L142.829 228.35
L142.978 161.465
L143.052 163.216
L143.275 273.37
L143.498 235.02
L143.573 244.939
L143.647 238.799
L143.87 165.946
L144.019 219.722
L144.094 252.139
L144.168 245.204
L144.317 217.683
L144.466 263.866
L144.54 262.334
L144.614 243.372
L144.689 244.755
L144.912 305.212
L144.986 305.891
L145.433 184.39
L145.507 129.197
L145.582 143.079
L145.73 200.552
L145.879 155.774
L146.102 217.049
L146.4 176.211
L146.549 149.185
L146.623 140.522
L146.846 191.44
L146.995 229.283
L147.07 226.184
L147.144 230.838
L147.367 185.404
L147.59 215.92
L147.739 255.48
L147.814 245.757
L147.962 182.938
L148.037 187.12
L148.186 232.497
L148.334 223.903
L148.409 206.669
L148.632 246.045
L148.706 227.521
L148.781 240.066
L148.93 346.326
L149.004 345.301
L149.525 159.484
L149.748 249.697
L149.822 236.967
L149.971 166.499
L150.046 175.612
L150.194 246.298
L150.269 242.692
L150.492 138.955
L150.641 181.913
L150.79 155.935
L150.864 161.845
L151.087 229.64
L151.162 194.067
L151.236 203.34
L151.385 255.837
L151.534 181.21
L151.608 181.786
L151.831 263.601
L151.906 260.733
L152.054 236.644
L152.129 245.181
L152.203 242.301
L152.352 196.912
L152.426 197.638
L152.501 197.546
L152.65 222.947
L152.724 222.728
L153.022 194.297
L153.096 206.047
L153.17 201.658
L153.394 155.014
L153.468 157.652
L153.691 181.049
L153.914 306.34
L153.989 292.09
L154.063 247.059
L154.138 252.346
L154.286 294.394
L154.51 238.465
L154.584 240.665
L154.658 259.258
L154.882 218.685
L154.956 227.981
L155.03 232.255
L155.105 229.018
L155.402 176.487
L155.626 231.46
L155.7 223.869
L155.774 212.164
L155.849 219.503
L155.923 216.185
L156.146 155.728
L156.221 159.898
L156.444 234.145
L156.667 205.114
L156.816 217.763
L157.337 79.0854
L157.486 136.109
L157.858 284.337
L158.081 262.668
L158.23 275.467
L158.304 271.78
L158.453 252.127
L158.527 251.494
L158.602 257.438
L158.676 252.45
L158.899 299.256
L159.048 259.788
L159.122 265.03
L159.197 258.279
L159.42 207.764
L159.569 239.766
L159.643 232.013
L159.792 181.095
L159.941 191.371
L160.313 170.946
L160.462 202.81
L160.834 127.216
L161.429 271.999
L161.503 267.668
L161.652 237.474
L161.726 241.137
L161.875 207.211
L161.95 187.8
L162.024 188.952
L162.098 196.474
L162.173 195.944
L162.247 194.908
L162.396 225.608
L162.47 258.429
L162.545 254.846
L162.694 238.902
L162.768 245.987
L162.991 218.189
L163.14 205.276
L163.214 209.25
L163.438 250.618
L163.586 242.957
L163.661 243.798
L163.735 240.089
L164.107 295.592
L164.256 259.949
L164.405 281.273
L164.702 105.662
L164.777 112.171
L165.446 222.291
L165.521 218.581
L165.744 197.822
L165.818 196.762
L166.042 220.793
L166.265 184.413
L166.414 226.541
L166.488 250.457
L166.562 249.455
L166.637 246.241
L166.786 260.618
L166.86 257.392
L166.934 240.538
L167.158 108.047
L167.232 128.287
L167.455 260.042
L167.678 242.174
L167.827 288.68
L167.902 283.565
L168.05 244.893
L168.125 244.478
L168.274 218.166
L168.348 219.871
L168.72 272.714
L168.869 215.033
L169.018 160.751
L169.092 165.785
L169.315 216.196
L169.39 218.431
L169.613 165.163
L169.687 170.773
L169.836 225.09
L169.91 222.44
L170.134 150.556
L170.208 158.297
L170.58 267.806
L170.803 243.476
L170.878 246.229
L171.026 267.172
L171.101 255.203
L171.324 167.294
L171.473 191.336
L171.622 160.371
L171.696 143.068
L171.77 145.037
L171.845 163.665
L171.919 162.421
L171.994 142.227
L172.068 146.823
L172.366 288.116
L172.589 247.807
L172.663 251.286
L172.886 286.48
L173.11 244.052
L173.184 247.946
L173.258 265.721
L173.333 264.984
L173.407 247.692
L173.556 178.019
L173.63 182.224
L173.779 209.204
L173.928 194.643
L174.077 180.081
L174.151 183.94
L174.3 177.846
L174.374 180.012
L174.449 182.662
L174.598 220.286
L174.746 263.187
L174.97 222.636
L175.044 211.162
L175.193 225.873
L175.267 224.41
L175.49 177.282
L175.639 203.133
L175.862 242.266
L176.532 140.764
L176.978 253.418
L177.202 325.602
L177.425 209.826
L177.648 261.171
L177.871 272.264
L178.094 250.63
L178.318 273.209
L178.764 162.87
L178.913 181.406
L179.136 158.781
L179.21 156.765
L179.359 164.829
L179.657 256.309
L180.029 158.101
L180.103 159.783
L180.698 265.041
L180.847 271.838
L180.922 269.43
L181.145 213.374
L181.219 215.747
L181.442 258.774
L181.591 225.919
L181.889 152.537
L181.963 159.921
L182.186 212.579
L182.335 176.706
L182.41 182.27
L182.633 274.741
L182.707 259.523
L182.93 158.343
L183.005 160.06
L183.526 320.568
L183.6 314.047
L183.674 287.966
L183.749 289.625
L183.823 299.774
L183.898 295.454
L184.27 98.3699
L184.567 222.993
L184.642 212.049
L184.79 138.701
L184.865 156.097
L185.088 270.836
L185.237 258.567
L185.46 194.009
L185.534 211.681
L185.609 227.417
L185.758 188.917
L185.906 127.02
L185.981 129.255
L186.13 162.444
L186.204 161.142
L186.278 165.29
L186.502 230.908
L186.65 224.214
L186.799 167.651
L186.874 183.146
L187.022 283.093
L187.097 277.875
L187.246 243.188
L187.32 246.748
L187.543 312.907
L187.841 256.563
L187.915 262.046
L187.99 275.951
L188.064 274.349
L188.213 260.595
L188.51 177.178
L188.585 180.173
L188.808 224.652
L188.882 218.823
L189.031 203.789
L189.254 87.783
L189.329 95.0176
L189.478 132.78
L189.552 134.07
L189.626 140.072
L189.924 248.752
L189.998 245.503
L190.073 239.628
L190.147 244.017
L190.222 242.819
L190.296 229.963
L190.37 238.419
L190.519 277.633
L190.817 191.555
L191.263 279.775
L191.412 237.451
L191.635 118.426
L191.71 124.025
L191.933 251.471
L192.23 169.656
L192.305 181.095
L192.528 223.627
L192.602 215.206
L192.751 230.884
L192.974 290.915
L193.346 215.632
L193.495 219.595
L193.644 229.571
L193.718 226.334
L194.016 172.363
L194.314 252.922
L194.388 239.179
L194.611 157.583
L194.909 274.499
L194.983 267.046
L195.206 229.156
L195.281 235.009
L195.355 233.764
L195.802 107.966
L195.876 105.674
L196.322 255.779
L196.397 285.19
L196.471 282.552
L196.546 283.715
L196.694 311.363
L196.843 243.004
L197.066 157.122
L197.29 242.001
L197.513 287.655
L197.662 319.612
L197.736 333.931
L197.885 273.301
L198.108 152.191
L198.182 156.765
L198.554 223.293
L198.629 219.837
L198.852 158.954
L198.926 166.81
L199.15 236.932
L199.373 92.7597
L199.447 112.966
L199.745 261.816
L200.266 195.61
L200.34 196.463
L200.563 225.988
L200.712 231.322
L200.935 269.246
L201.01 264.2
L201.307 207.614
L201.456 230.193
L201.605 272.633
L201.754 202.303
L201.902 144.738
L201.977 153.021
L202.126 241.126
L202.2 232.958
L202.349 187.8
L202.423 198.11
L202.646 293.519
L202.721 288.922
L203.018 247.3
L203.242 162.675
L203.316 170.819
L203.539 196.739
L203.762 131.801
L204.06 213.363
L204.134 210.966
L204.209 203.847
L204.506 295.823
L204.581 274.131
L204.73 210.621
L204.878 147.641
L205.176 245.953
L205.25 232.348
L205.399 154.945
L205.474 156.972
L205.622 179.667
L205.697 168.838
L205.771 170.831
L206.069 290.212
L206.143 280.202
L206.441 215.885
L206.59 257.945
L206.813 179.148
L206.887 188.548
L207.11 236.126
L207.259 222.06
L207.557 291.376
L207.631 281.584
L207.854 198.364
L207.929 187.88
L208.003 193.444
L208.152 234.076
L208.524 178.399
L208.598 179.091
L208.673 177.927
L208.896 151.857
L208.97 158.608
L209.194 260.514
L209.268 251.955
L209.938 161.004
L210.161 264.661
L210.31 260.502
L210.533 180.853
L210.607 192.362
L210.83 242.831
L210.905 241.978
L210.979 234.709
L211.128 201.186
L211.277 260.157
L211.426 191.912
L211.574 139.335
L211.798 270.375
L211.872 317.123
L211.946 314.934
L212.095 209.803
L212.17 218.051
L212.467 274.257
L212.765 203.548
L212.914 260.065
L212.988 238.925
L213.211 112.493
L213.286 114.705
L213.509 224.583
L213.658 207.695
L213.806 248.418
L214.178 158.078
L214.253 161.58
L214.476 211.047
L214.625 227.336
L214.699 216.196
L214.922 133.264
L214.997 135.718
L215.294 359.713
L215.369 327.157
L215.666 185.887
L216.113 249.697
L216.187 250.987
L216.336 232.129
L216.485 239.087
L216.782 198.202
L217.08 253.452
L217.154 260.065
L217.675 101.803
L217.75 99.6947
L218.047 204.331
L218.419 252.726
L218.568 213.57
L218.791 283.358
L218.866 275.962
L219.089 211.853
L219.163 223.396
L219.312 235.366
L219.61 202.718
L219.684 203.709
L219.758 205.471
L219.907 180.554
L219.982 182.5
L220.13 222.509
L220.354 149.818
L220.428 163.562
L220.651 221.968
L220.8 212.971
L220.949 164.195
L221.47 304.336
L221.544 301.871
L221.693 257.208
L221.767 269.511
L221.916 317.515
L222.065 253.498
L222.214 156.223
L222.437 195.875
L222.511 195.368
L222.66 205.759
L222.734 202.28
L222.883 191.29
L222.958 192.903
L223.106 260.445
L223.181 258.878
L223.478 153.724
L223.553 124.29
L223.627 128.414
L223.776 200.932
L223.85 190.968
L224.074 140.36
L224.222 210.114
L224.297 209.492
L224.52 181.176
L224.594 181.095
L224.818 262.933
L225.19 283.876
L225.413 218.8
L225.487 223.408
L225.71 309.624
L226.008 211.692
L226.157 269.557
L226.231 268.486
L226.454 195.046
L226.529 204.619
L226.603 223.373
L226.678 219.952
L226.975 127.757
L227.05 134.554
L227.124 145.913
L227.273 127.861
L227.347 136.271
L227.57 215.367
L227.645 213.662
L227.719 190.265
L227.794 191.336
L228.091 272.426
L228.389 178.987
L228.538 226.369
L228.686 312.688
L228.761 311.928
L229.282 217.233
L229.356 242.393
L229.43 239.939
L229.654 148.586
L230.026 225.343
L230.174 170.888
L230.398 79.7651
L230.546 136.559
L230.77 228.592
L230.844 232.163
L230.918 223.823
L230.993 235.896
L231.216 308.771
L231.439 248.337
L231.514 251.759
L231.662 304.566
L231.737 292.758
L231.96 232.659
L232.034 233.258
L232.183 211.865
L232.258 216.703
L232.406 237.739
L232.481 231.518
L232.704 187.627
L232.778 189.459
L233.076 158.435
L233.225 104.625
L233.299 107.793
L233.597 256.839
L233.671 253.694
L233.969 166.257
L234.043 171.637
L234.341 252.243
L234.415 247.992
L234.638 210.909
L234.713 189.908
L235.457 301.064
L235.903 215.528
L235.978 215.782
L236.052 231.126
L236.126 224.813
L236.498 132.55
L236.573 134.819
L236.722 175.404
L236.796 203.801
L236.87 201.485
L237.019 184.897
L237.094 186.774
L237.168 195.38
L237.317 229.652
L237.54 211.623
L237.689 221.415
L237.838 206.98
L237.912 211.727
L238.21 258.187
L238.284 258.152
L238.358 256.735
L238.433 257.599
L238.507 251.92
L238.656 214.019
L238.73 218.812
L238.805 220.309
L239.028 183.468
L239.177 218.005
L239.251 233.442
L239.326 227.29
L239.623 177.72
L239.698 184.966
L239.846 228.719
L239.921 223.673
L240.07 201.624
L240.144 218.431
L240.218 212.222
L240.293 215.943
L240.516 262.449
L240.739 229.226
L241.037 170.796
L241.111 151.996
L241.26 184.816
L241.409 227.198
L241.483 224.906
L241.632 247.45
L241.781 312.538
L241.855 297.816
L242.078 199.412
L242.153 208.086
L242.376 179.782
L242.45 181.706
L242.525 179.505
L242.599 166.983
L242.822 212.775
L242.897 236.287
L242.971 233.269
L243.269 149.668
L243.566 204.688
L243.79 264.615
L243.864 262.415
L244.013 242.819
L244.087 248.637
L244.162 246.909
L244.31 233.338
L244.385 234.364
L244.459 227.428
L244.682 180.554
L244.757 185.542
L244.98 240.93
L245.129 255.468
L245.426 206.566
L245.501 211.83
L245.724 205.494
L245.873 188.272
L246.022 212.764
L246.245 235.228
L246.319 242.335
L246.468 270.237
L247.063 133.564
L247.138 137.526
L247.435 196.129
L247.733 303.576
L247.807 298.783
L248.105 196.612
L248.179 202.361
L248.328 250.18
L248.402 246.425
L248.626 206.289
L248.7 221.116
L248.774 212.395
L248.998 161.465
L249.072 156.511
L249.221 126.064
L249.444 156.051
L249.593 222.175
L249.816 323.805
L249.89 324.369
L250.262 222.417
L250.411 300.707
L250.486 296.042
L250.709 163.757
L250.783 177.155
L251.081 276.435
L251.378 118.922
L251.453 136.075
L251.676 232.244
L251.75 226.91
L252.048 114.602
L252.122 116.629
L252.271 188.053
L252.494 294.498
L252.792 183.019
L252.866 201.831
L253.09 262.611
L253.238 234.191
L253.387 187.673
L253.462 195.944
L253.685 285.939
L253.759 280.167
L253.908 230.343
L254.131 156.074
L254.28 231.783
L254.429 287.482
L254.578 225.562
L254.801 116.848
L254.95 179.851
L255.098 243.441
L255.247 182.489
L255.396 117.62
L255.47 136.432
L255.694 325.475
L255.768 311.271
L256.14 175.416
L256.363 271.032
L256.512 249.132
L256.735 171.499
L256.81 184.931
L257.033 310.776
L257.107 294.532
L257.33 129.059
L257.405 132.4
L257.702 219.814
L257.777 206.992
L258 102.033
L258.074 123.518
L258.372 289.279
L258.446 276.308
L258.67 160.232
L258.893 345.439
L258.967 344.76
L259.265 160.232
L259.339 167.432
L259.488 211.174
L259.711 276.538
L259.934 199.539
L260.009 213.432
L260.232 301.064
L260.53 135.015
L260.902 251.932
L261.125 127.815
L261.199 89.7875
L261.274 90.5709
L261.497 183.998
L261.571 177.178
L261.794 141.766
L261.869 151.673
L262.166 351.51
L262.241 329.092
L262.464 268.843
L262.613 219.791
L262.687 236.287
L262.836 345.416
L262.91 336.131
L263.208 197.027
L263.282 213.236
L263.431 248.107
L263.58 176.844
L263.803 96.0083
L263.878 98.7731
L264.25 237.174
L264.473 188.572
L264.622 219.48
L264.77 235.469
L264.845 232.013
L265.068 177.973
L265.142 191.924
L265.366 275.329
L265.44 275.248
L265.663 174.989
L265.812 92.3334
L265.886 97.5866
L266.258 300.765
L266.482 254.086
L266.63 305.972
L266.928 259.638
L267.077 178.826
L267.226 207.464
L267.449 143.033
L267.672 95.1674
L267.746 69.3165
L267.821 74.0051
L267.97 178.756
L268.193 289.74
L268.267 287.517
L268.416 320.268
L268.565 292.39
L268.714 279.58
L269.16 168.895
L269.234 169.391
L269.458 250.215
L269.681 143.69
L269.755 148.355
L269.978 238.833
L270.053 233.085
L270.127 236.449
L270.276 275.801
L270.425 236.195
L270.648 202.269
L270.946 172.87
L271.02 169.84
L271.094 176.337
L271.243 254.512
L271.318 240.308
L271.466 117.816
L271.541 118.138
L271.913 229.675
L272.062 237.889
L272.136 237.174
L272.508 302.596
L272.582 302.573
L272.806 248.211
L272.954 212.591
L273.178 256.113
L273.252 254.42
L273.475 200.356
L273.847 97.9898
L273.922 106.687
L274.145 176.913
L274.294 150.072
L274.517 235.711
L274.591 235.193
L274.74 211.197
L275.038 295.846
L275.558 230.435
L275.707 203.029
L275.856 250.353
L276.079 178.031
L276.154 186.844
L276.377 265.283
L276.451 261.47
L276.674 215.655
L276.972 167.628
L277.418 241.195
L277.642 173.319
L277.716 175.22
L277.79 191.728
L277.939 169.437
L278.014 175.508
L278.162 173.757
L278.311 161.718
L278.46 223.765
L278.534 221.461
L278.609 203.329
L278.758 223.062
L278.981 299.74
L279.055 302.32
L279.13 309.22
L279.204 306.663
L279.278 297.758
L279.427 310.845
L279.502 298.334
L279.799 163.089
L279.874 167.64
L280.022 144.726
L280.32 183.802
L280.543 114.498
L280.841 182.593
L281.064 249.628
L281.213 244.374
L281.287 251.632
L281.436 278.612
L281.51 280.225
L281.659 300.627
L281.734 299.728
L281.957 238.799
L282.031 242.934
L282.106 265.364
L282.18 259.039
L282.552 157.594
L282.626 161.154
L282.775 137.837
L282.924 174.206
L283.296 236.483
L283.445 244.881
L283.594 220.897
L283.668 227.947
L283.817 197.649
L284.04 206.819
L284.263 248.383
L284.338 240.918
L284.635 145.706
L284.784 159.426
L284.858 145.579
L284.933 147.238
L285.305 298.599
L285.379 307.85
L285.602 289.325
L285.677 269.811
L285.751 278.635
L285.826 275.352
L285.9 266.735
L286.272 165.727
L286.346 164.771
L286.718 220.252
L286.793 219.215
L287.016 131.893
L287.239 216.945
L287.388 245.158
L287.462 241.183
L287.686 191.094
L287.983 238.303
L288.355 203.951
L288.43 210.701
L288.578 254.788
L288.653 248.222
L288.727 228.051
L288.876 241.84
L289.099 204.492
L289.174 214.134
L289.248 215.275
L289.471 141.558
L289.769 266.009
L289.992 242.047
L290.141 169.725
L290.29 187.811
L290.364 168.204
L290.587 219.1
L290.662 215.459
L290.736 215.528
L290.81 216.461
L290.959 188.56
L291.257 272.84
L291.406 262.081
L291.48 246.056
L291.629 123.507
L291.703 145.199
L291.852 245.907
L291.926 253.187
L292.075 289.706
L292.15 279.222
L292.447 181.832
L292.522 172.801
L292.596 174.563
L292.819 216.415
L292.968 191.048
L293.042 169.679
L293.117 172.444
L293.489 273.255
L293.563 273.773
L293.712 247.416
L293.786 259.915
L293.935 207.05
L294.158 144.22
L294.307 139.254
L294.382 143.92
L294.754 278.497
L295.274 199.585
L295.349 194.919
L295.646 252.646
L295.87 267.748
L296.018 281.423
L296.167 236.218
L296.316 201.232
L296.39 210.218
L296.465 207.349
L296.614 199.815
L296.762 229.756
L297.209 111.745
L297.358 156.592
L297.655 254.5
L297.73 230.032
L297.804 230.124
L297.953 260.986
L298.027 252.83
L298.102 253.302
L298.25 312.619
L298.622 153.32
L298.697 137.469
L298.771 150.567
L298.994 238.741
L299.069 236.172
L299.218 206.819
L299.366 167.905
L299.515 231.495
L299.59 228.212
L299.664 218.04
L299.738 219.411
L299.962 257.853
L300.036 255.86
L300.11 266.32
L300.259 311.11
L300.706 145.395
L300.78 146.95
L300.929 167.778
L301.003 161.649
L301.375 205.172
L301.524 234.536
L301.747 192.627
L301.822 192.742
L301.896 196.947
L302.268 287.839
L302.342 285.121
L302.64 234.732
L302.789 282.148
L303.086 195.196
L303.31 119.659
L303.533 82.3456
L303.682 115.443
L304.128 279.891
L304.202 272.022
L304.351 270.352
L304.5 307.066
L304.574 305.753
L304.798 272.956
L305.17 165.508
L305.244 165.739
L305.318 179.851
L305.467 129.923
L305.69 210.344
L305.765 210.195
L305.839 198.847
L305.914 201.174
L306.137 228.327
L306.286 227.29
L306.434 201.923
L306.806 283.254
L306.955 236.092
L307.104 256.989
L307.178 243.66
L307.253 206.266
L307.327 217.498
L307.402 237.313
L307.476 220.205
L307.625 171.464
L307.774 192.131
L308.071 102.471
L308.146 104.441
L308.22 98.5427
L308.294 113.68
L308.592 267.852
L308.666 268.808
L308.741 279.775
L308.89 324.508
L309.038 293.599
L309.113 304.636
L309.187 311.317
L309.41 235.953
L309.559 274.43
L309.634 250.699
L309.857 119.187
L309.931 145.901
L310.08 100.662
L310.452 235.101
L310.526 243.361
L310.601 240.273
L310.75 219.629
L310.898 232.129
L311.047 224.986
L311.196 259.581
L311.27 254.57
L311.642 210.275
L311.791 190.426
L311.94 207.13
L312.089 193.329
L312.238 210.321
L312.312 206.013
L312.386 208.939
L312.535 225.562
L312.758 202.534
L312.833 217.602
L312.982 276.55
L313.13 237.462
L313.354 194.884
L313.428 198.26
L313.651 263.475
L313.8 248.683
L313.874 246.148
L314.172 130.038
L314.246 132.077
L314.47 194.954
L314.544 194.458
L314.693 186.095
L314.842 243.245
L314.99 212.141
L315.139 264.65
L315.288 227.498
L315.362 240.757
L315.511 285.939
L315.586 283.139
L316.032 174.748
L316.181 203.49
L316.33 191.832
L316.478 248.36
L316.702 157.456
L316.85 251.574
L316.999 223.477
L317.074 234.294
L317.222 199.562
L317.297 200.817
L317.446 220.516
L317.594 237.958
L317.966 150.164
L318.115 135.222
L318.19 139.324
L318.487 212.913
L318.562 214.169
L318.636 198.652
L318.71 206.462
L319.082 306.801
L319.157 301.594
L319.306 278.301
L319.529 303.092
L319.603 300.465
L319.678 293.876
L319.752 277.391
L320.05 150.682
L320.124 155.498
L320.422 218.788
L320.57 195.207
L320.719 185.45
L320.942 156.431
L321.017 161.142
L321.389 228.984
L321.835 186.763
L321.91 193.398
L322.133 238.027
L322.207 238.2
L322.282 230.654
L322.43 253.821
L322.505 250.319
L322.728 195.679
L322.802 202.211
L323.249 262.495
L323.621 170.52
L323.695 171.58
L324.067 274.545
L324.29 163.539
L324.365 169.322
L324.439 189.332
L324.514 189.078
L324.588 184.839
L324.662 172.628
L324.96 207.211
L325.183 283.139
L325.258 277.172
L325.555 189.194
L325.63 192.223
L325.778 264.339
L325.853 288.554
L325.927 282.724
L326.076 260.998
L326.15 260.076
L326.746 110.788
L326.969 234.548
L327.118 190.438
L327.192 202.753
L327.266 199.827
L327.341 195.219
L327.564 219.894
L327.713 269.177
L327.862 235.504
L328.085 274.419
L328.308 240.446
L328.457 216.761
L328.606 175.254
L328.754 276.895
L328.829 269.396
L329.052 162.905
L329.201 144.968
L329.275 130.131
L329.35 137.653
L329.647 300.235
L329.722 270.041
L329.87 219.768
L330.094 292.943
L330.168 297.919
L330.242 294.233
L330.54 123.818
L330.763 256.125
L330.986 153.873
L331.21 87.3338
L331.284 95.7434
L331.73 247.45
L331.879 297.908
L331.954 296.802
L332.177 326.466
L332.4 253.636
L332.474 264.523
L332.921 200.218
L333.144 157.352
L333.218 151.754
L333.293 153.436
L333.442 169.978
L333.516 165.589
L333.59 167.467
L333.739 222.233
L333.888 279.176
L334.186 228.834
L334.334 185.035
L334.483 230.424
L334.706 205.782
L334.781 207.58
L334.855 213.57
L335.004 170.75
L335.078 173.872
L335.227 234.709
L335.302 228.592
L335.45 212.326
L335.525 221.715
L335.599 216.519
L335.674 203.317
L335.822 240.239
L335.897 266.62
L335.971 256.39
L336.12 195.806
L336.194 195.841
L336.343 217.878
L336.492 198.732
L336.566 231.149
L336.79 159.599
L336.864 162.628
L337.31 266.412
L337.385 263.716
L337.608 199.999
L337.757 229.79
L337.831 203.893
L337.98 256.781
L338.054 241.633
L338.278 169.022
L338.501 259.477
L338.575 255.745
L338.724 226.864
L338.873 289.395
L338.947 273.923
L339.245 164.921
L339.319 162.847
L339.542 225.977
L339.766 176.107
L339.989 195.207
L340.138 209.734
L340.212 207.234
L340.435 165.67
L340.51 170.681
L340.733 261.528
L340.956 201.048
L341.105 209.515
L341.254 243.038
L341.328 235.723
L341.402 236.034
L341.477 246.817
L341.551 245.48
L341.626 236.979
L341.7 241.863
L341.774 260.744
L341.998 178.998
L342.072 191.544
L342.295 245.78
L342.444 293.611
L342.742 180.438
L342.89 149.15
L343.486 235.181
L343.858 184.724
L343.932 194.355
L344.155 261.747
L344.23 258.602
L344.453 186.463
L344.75 265.11
L344.825 258.567
L344.974 228.189
L345.122 272.253
L345.197 271.492
L345.494 152.629
L345.569 154.196
L345.643 162.421
L345.792 200.529
L345.941 187.224
L346.09 129.347
L346.164 131.052
L346.462 218.189
L346.685 255.779
L346.759 250.676
L346.834 244.501
L346.908 245.112
L347.057 255.503
L347.131 232.912
L347.206 238.154
L347.429 297.724
L347.801 205.61
L347.875 209.284
L348.024 223.926
L348.098 233.269
L348.173 230.85
L348.322 211.519
L348.47 262.403
L348.768 180.588
L348.917 206.243
L349.289 162.49
L349.363 160.543
L349.438 154.161
L349.512 154.795
L349.661 167.72
L349.81 156.396
L349.958 228.822
L350.033 225.297
L350.182 205.955
L350.405 250.584
L350.479 252.243
L350.628 265.756
L350.777 236.714
L350.851 252.162
L350.926 249.524
L351 235.308
L351.074 241.955
L351.298 293.069
L351.595 215.724
L351.67 216.289
L351.818 204.008
L352.042 210.01
L352.116 225.332
L352.19 218.074
L352.265 195
L352.339 198.283
L352.414 203.409
L352.711 142.365
L352.786 136.04
L353.232 253.971
L353.381 224.94
L353.604 244.662
L353.678 243.257
L353.902 220.712
L353.976 211.888
L354.05 218.259
L354.125 214.296
L354.274 186.797
L354.348 185.288
L354.422 168.792
L354.497 169.667
L354.646 224.088
L354.794 267.748
L354.943 244.294
L355.092 279.902
L355.315 204.435
L355.39 219.284
L355.464 241.034
L355.613 200.909
L355.687 203.064
L355.762 206.347
L355.985 157.444
L356.059 162.099
L356.134 161.511
L356.357 190.012
L357.026 284.153
L357.101 275.524
L357.25 218.385
L357.324 221.208
L357.398 231.414
L357.473 230.251
L357.547 222.106
L357.696 253.798
L357.845 228.857
L357.994 254.04
L358.068 253.187
L358.291 156.177
L358.366 158.205
L358.44 151.615
L358.514 134.831
L358.589 141.904
L358.738 154.991
L358.886 139.635
L359.11 198.352
L359.184 196.808
L359.258 202.799
L359.407 269.799
L359.482 269.188
L359.556 254.581
L359.63 257.599
L359.779 282.782
L359.928 254.109
L360.077 281.665
L360.226 217.429
L360.3 227.843
L360.374 233.292
L360.598 178.434
L360.672 187.615
L360.746 210.759
L360.895 169.241
L360.97 154.876
L361.49 263.947
L361.714 226.841
L361.788 239.306
L361.862 231.702
L362.011 199.458
L362.086 200.287
L362.234 188.33
L362.383 165.52
L362.606 218.282
L362.681 210.771
L362.755 198.502
L362.904 230.769
L363.127 175.082
L363.276 226.23
L363.35 225.793
L363.425 230.977
L363.574 271.181
L363.648 264.822
L363.797 254.65
L363.946 211.208
L364.169 240.607
L364.318 214.883
L364.466 238.061
L364.615 216.669
L364.764 220.39
L364.838 216.588
L364.987 178.998
L365.062 163.377
L365.21 180.07
L365.359 146.904
L365.582 199.804
L365.954 286.1
L366.029 284.602
L366.178 249.558
L366.252 269.373
L366.401 223.385
L366.55 201.555
L366.698 214.71
L366.773 211.197
L366.922 180.738
L366.996 187.569
L367.07 178.457
L367.219 142.411
L367.368 207.856
L367.517 243.821
L367.74 267.852
L368.038 190.449
L368.186 199.804
L368.335 177.236
L368.41 180.749
L368.484 199.976
L368.558 199.216
L368.633 202.027
L368.856 241.276
L368.93 238.684
L369.079 221.576
L369.302 184.851
L369.377 182.42
L369.526 220.597
L369.6 219.364
L369.674 235.032
L369.749 230.02
L369.898 216.369
L370.121 251.425
L370.27 238.234
L370.493 261.677
L370.567 255.33
L370.642 256.632
L370.716 261.804
L370.79 259.857
L371.014 230.159
L371.088 233.073
L371.237 190.276
L371.386 146.742
L371.46 150.498
L371.534 148.758
L371.609 151.892
L371.758 163.988
L371.832 161.119
L371.981 209.423
L372.204 254.95
L372.353 214.929
L372.502 249.501
L372.65 204.077
L372.725 204.849
L372.799 210.748
L373.022 154.253
L373.097 174.632
L373.246 206.646
L373.32 214.664
L373.469 254.178
L373.543 253.107
L373.618 252.957
L373.692 242.347
L373.766 248.314
L373.915 287.851
L374.138 202.66
L374.213 203.905
L374.287 210.333
L374.362 210.114
L374.51 199.343
L374.659 162.893
L374.808 207.407
L375.031 266.942
L375.254 243.729
L375.403 248.452
L375.478 241.08
L375.775 117.366
L375.85 125.246
L376.222 234.306
L376.37 196.371
L376.445 197.5
L376.668 300.339
L376.742 293.715
L377.04 217.406
L377.114 220.897
L377.263 197.592
L377.486 145.153
L377.784 220.482
L378.007 179.955
L378.23 266.458
L378.305 263.359
L378.528 215.955
L378.826 242.381
L378.974 218.454
L379.123 190.023
L379.346 234.628
L379.495 216.703
L379.644 170.577
L379.718 174.045
L380.016 207.741
L380.09 208.121
L380.165 209.665
L380.537 298.622
L380.611 296.088
L380.834 206.07
L380.909 216.047
L381.355 159.91
L381.43 161.258
L381.578 180.473
L381.876 159.322
L381.95 164.034
L382.322 266.228
L382.471 219.422
L382.62 270.122
L382.694 268.025
L382.769 266.378
L382.843 272.737
L382.992 264.408
L383.141 277.126
L383.736 137.642
L383.885 152.042
L384.034 183.192
L384.257 221.692
L384.331 221.622
L384.406 224.848
L384.554 252.058
L384.703 272.944
L384.778 266.873
L384.926 207.384
L385.15 276.458
L385.298 269.223
L385.373 252.104
L385.596 143.252
L385.745 150.959
L385.968 168.365
L386.117 158.896
L386.266 178.676
L386.638 281.676
L386.861 198.997
L386.935 219.71
L387.158 273.532
L387.233 275.248
L387.382 242.266
L387.53 183.825
L387.605 195.103
L387.679 192.269
L387.754 183.756
L387.902 194.954
L388.274 176.234
L388.646 263.117
L388.795 233.327
L388.87 233.857
L389.018 242.358
L389.093 240.077
L389.242 211.059
L389.316 215.482
L389.465 231.564
L389.539 231.967
L389.614 230.435
L389.688 236.541
L389.762 229.26
L389.911 206.393
L389.986 232.97
L390.06 228.304
L390.283 194.055
L390.506 203.87
L390.581 202.349
L390.953 168.077
L391.176 197.235
L391.25 195.288
L391.325 182.236
L391.399 187.638
L391.697 247.208
L391.846 264.926
L391.92 262.346
L392.069 248.464
L392.664 173.492
L392.813 188.03
L392.887 188.168
L393.185 238.925
L393.334 256.943
L393.408 254.823
L393.557 240.135
L393.631 242.796
L393.706 241.598
L393.854 204.573
L393.929 206.842
L394.003 204.043
L394.078 190.553
L394.152 190.887
L394.301 223.304
L394.45 185.104
L394.673 203.651
L394.896 193.79
L395.342 238.119
L395.491 231.265
L395.566 232.67
L395.789 202.603
L395.863 207.545
L396.012 239.605
L396.086 234.018
L396.161 230.447
L396.235 234.767
L396.31 247.554
L396.458 213.305
L396.607 235.135
L396.83 191.843
L396.905 196.866
L396.979 200.218
L397.128 186.878
L397.351 214.63
L397.5 201.278
L397.574 204.481
L397.649 199.481
L397.798 171.119
L397.946 202.004
L398.17 248.314
L398.318 267.334
L398.393 264.016
L398.765 223.754
L398.839 219.146
L398.914 220.908
L398.988 220.839
L399.137 211.565
L399.286 247.761
L399.434 233.039
L399.509 238.419
L399.732 190.472
L399.881 196.244
L399.955 196.785
L400.03 194.136
L400.104 198.502
L400.178 195.956
L400.476 162.214
L400.55 164.253
L400.699 191.129
L400.774 217.406
L400.848 216.934
L400.922 203.202
L401.369 278.831
L401.741 226.864
L401.815 229.11
L402.038 241.287
L402.187 227.198
L402.708 160.232
L402.782 167.467
L403.006 240.135
L403.154 220.505
L403.303 243.96
L403.452 226.115
L403.526 233.465
L403.675 259.558
L403.973 216.484
L404.196 173.814
L404.27 184.263
L404.345 203.421
L404.419 201.197
L404.494 198.006
L404.642 206.842
L404.866 172.282
L404.94 161.039
L405.014 164.022
L405.238 204.239
L405.461 254.005
L405.758 312.688
L405.833 311.271
L406.13 220.643
L406.354 130.211
L406.428 133.736
L406.502 128.08
L406.577 133.794
L406.8 197.684
L406.874 180.001
L406.949 183.457
L407.246 209.907
L407.47 302.942
L407.544 300.511
L407.842 228.903
L407.916 231.092
L408.139 263.106
L408.362 241.068
L408.809 174.413
L408.883 177.028
L409.032 196.417
L409.255 133.425
L409.33 135.914
L409.702 235.93
L409.776 234.721
L409.85 229.203
L409.925 231.403
L409.999 235.838
L410.297 290.604
L410.446 256.586
L410.743 146.858
L410.818 134.842
L411.19 228.028
L411.264 230.32
L411.487 198.628
L411.562 200.333
L411.785 253.683
L412.082 221.484
L412.157 200.207
L412.231 202.004
L412.454 227.048
L412.752 250.192
L412.826 249.789
L413.05 183.722
L413.124 184.701
L413.198 183.917
L413.422 231.08
L413.496 227.175
L413.719 171.983
L413.868 192.58
L414.166 239.559
L414.389 189.562
L414.463 195.518
L414.612 224.214
L414.761 261.274
L414.835 259.926
L415.207 178.515
L415.282 179.448
L415.356 176.118
L415.43 161.119
L415.579 211.704
L415.728 247.254
L415.951 215.206
L416.026 214.054
L416.1 201.209
L416.174 210.102
L416.398 258.106
L416.695 213.651
L416.77 213.328
L416.993 252.22
L417.29 232.601
L417.365 231.219
L417.439 233.465
L417.662 185.726
L417.737 192.742
L417.811 195.772
L417.886 194.159
L418.034 184.228
L418.183 193.537
L418.332 216.266
L418.481 163.101
L418.555 169.241
L418.778 222.406
L419.002 189.148
L419.076 204.573
L419.299 294.579
L419.597 210.632
L419.671 214.86
L419.82 228.534
L419.969 168.296
L420.043 177.581
L420.266 278.312
L420.415 213.247
L420.564 165.128
L420.713 217.095
L420.787 215.943
L420.936 180.715
L421.01 185.576
L421.159 252.588
L421.234 247.969
L421.531 186.314
L421.68 223.777
L421.754 257.645
L421.829 256.804
L421.978 222.037
L422.201 284.234
L422.275 271.469
L422.573 143.367
L422.796 188.191
L422.945 176.856
L423.168 200.944
L423.317 238.119
L423.54 195.783
L423.689 234.94
L423.838 263.302
L424.135 199.7
L424.284 216.807
L424.433 233.142
L424.507 225.205
L424.656 192.189
L424.73 202.257
L424.805 229.721
L424.879 229.571
L425.028 192.799
L425.102 193.951
L425.326 241.932
L425.474 277.713
L425.549 269.223
L425.772 209.549
L425.921 223.443
L426.144 183.779
L426.218 184.332
L426.442 257.104
L426.516 255.272
L426.665 231.599
L426.888 172.985
L427.037 183.399
L427.186 153.136
L427.409 199.389
L427.706 243.868
L427.855 202.154
L427.93 203.133
L428.153 255.987
L428.227 255.94
L428.525 232.025
L428.599 238.349
L428.674 237.946
L428.748 233.223
L429.046 125.592
L429.343 216.565
L429.418 208.72
L429.492 207.66
L429.864 277.517
L429.938 274.995
L430.236 179.805
L430.534 243.222
L430.682 221.012
L430.831 246.333
L430.906 243.637
L430.98 234.928
L431.129 244.132
L431.278 214.987
L431.426 254.028
L431.575 213.558
L431.724 168.723
L431.873 167.26
L431.947 163.228
L432.17 240.988
L432.394 161.004
L432.617 219.272
L432.691 214.457
L432.914 157.306
L433.063 205.955
L433.212 261.171
L433.286 255.376
L433.51 207.43
L433.584 209.077
L433.733 241.402
L433.882 281.653
L433.956 279.453
L434.03 279.764
L434.105 287.367
L434.254 265.56
L434.626 124.912
L434.7 129.278
L434.923 183.422
L434.998 169.575
L435.518 293.634
L435.593 287.943
L435.89 227.071
L436.114 209.791
L436.262 160.002
L436.337 163.262
L436.56 191.14
L436.709 196.912
L436.858 174.713
L437.23 246.471
L437.304 243.073
L437.527 252.98
L437.676 275.64
L437.899 253.683
L438.122 163.089
L438.197 171.487
L438.271 182.236
L438.346 181.498
L438.494 174.851
L438.569 162.79
L438.643 171.142
L438.866 209.688
L438.941 210.379
L439.164 182.42
L439.238 188.203
L439.462 243.015
L439.536 237.416
L439.685 228.961
L439.834 258.279
L439.908 258.152
L440.057 283.807
L440.206 276.112
L440.429 165.981
L440.503 178.595
L440.578 194.159
L440.726 175.853
L440.875 189.908
L441.173 258.014
L441.247 258.106
L441.47 189.194
L441.545 190.265
L441.619 189.171
L441.842 228.258
L441.917 221.069
L441.991 200.195
L442.066 200.863
L442.363 260.94
L442.512 218.282
L442.661 158.343
L442.735 158.689
L442.958 198.467
L443.033 188.94
L443.182 174.966
L443.554 272.161
L443.628 264.408
L443.851 199.124
L443.926 206.428
L444 210.552
L444.149 238.154
L444.298 223.592
L444.372 212.349
L444.521 229.295
L444.595 232.163
L444.744 275.513
L444.893 229.375
L445.042 170.98
L445.265 205.402
L445.339 205.034
L445.488 187.823
L445.562 171.556
L446.009 268.693
L446.306 212.637
L446.381 211.082
L446.678 159.092
L446.753 154.518
L446.827 165.532
L447.199 276.354
L447.274 278.093
L447.497 230.493
L447.72 175.473
L447.794 173.112
L448.018 181.752
L448.39 240.838
L448.464 256.516
L448.613 219.652
L448.687 206.819
L448.762 210.471
L448.836 214.515
L449.059 255.929
L449.134 252.726
L449.208 241.483
L449.282 256.885
L449.357 255.71
L449.431 258.371
L449.58 280.651
L449.878 158.666
L449.878 158.666" style="fill:none;stroke:#808080;stroke-linecap:square;"/>
   </g>
  </g>
 </g>
 <defs>
  <clipPath id="p7ff5b81e1d">
   <rect height="345.6" width="446.4" x="72.0" y="43.2"/>
  </clipPath>
 </defs>
</svg>
