<?xml version="1.0" encoding="utf-8" standalone="no"?>
<!DOCTYPE svg PUBLIC "-//W3C//DTD SVG 1.1//EN"
  "http://www.w3.org/Graphics/SVG/1.1/DTD/svg11.dtd">
<!-- Created with matplotlib (http://matplotlib.org/) -->
<svg height="432pt" version="1.1" viewBox="0 0 576 432" width="576pt" xmlns="http://www.w3.org/2000/svg" xmlns:xlink="http://www.w3.org/1999/xlink">
 <defs>
  <style type="text/css">
*{stroke-linecap:butt;stroke-linejoin:round;}
  </style>
 </defs>
 <g id="figure_1">
  <g id="patch_1">
   <path d="
M0 432
L576 432
L576 0
L0 0
z
" style="fill:#ffffff;"/>
  </g>
  <g id="axes_1">
   <g id="line2d_1">
    <path clip-path="url(#p7ff5b81e1d)" d="
M72 249.673
L72.0744 244.778
L72.2232 218.331
L72.4464 245.901
L72.5952 227.023
L72.744 239.516
L72.9672 220.56
L73.1904 201.259
L73.5624 251.954
L73.7856 197.867
L73.86 203.388
L74.0088 239.663
L74.1576 187.283
L74.3808 215.074
L74.6784 157.259
L74.7528 149.371
L74.8272 160.46
L74.976 242.26
L75.0504 233.849
L75.1992 227.697
L75.4224 263.134
L75.4968 267.372
L75.5712 262.97
L75.6456 266.033
L75.72 264.477
L75.7944 257.794
L76.0176 201.63
L76.1664 182.838
L76.2408 171.848
L76.464 206.987
L76.5384 206.745
L76.836 168.979
L77.4312 280.777
L77.6544 218.504
L77.7288 181.283
L77.8032 188.333
L77.8776 187.162
L78.0264 163.532
L78.2496 182.428
L78.3984 146.248
L78.4728 157.795
L78.8448 257.047
L78.9192 252.939
L79.068 270.914
L79.2168 294.463
L79.2912 301.076
L79.3656 299.811
L79.7376 233.46
L79.812 236.276
L79.8864 244.143
L80.1096 192.727
L80.2584 140.226
L80.4072 74.4968
L80.4816 74.4968
L81.1512 291.032
L81.5232 243.175
L81.672 227.563
L81.7464 226.358
L81.8208 232.125
L82.044 219.878
L82.1928 198.921
L82.2672 197.025
L82.3416 199.103
L82.4904 189.633
L82.7136 235.97
L82.788 257.246
L82.8624 243.219
L82.9368 243.677
L83.0112 252.014
L83.16 228.168
L83.3088 209.596
L83.3832 219.904
L83.6064 187.78
L83.6808 190.627
L83.8296 209.03
L83.904 211.082
L83.9784 222.776
L84.276 177.062
L84.3504 180.704
L84.4992 194.688
L84.5736 195.876
L84.9456 258.399
L85.0944 250.865
L85.1688 261.181
L85.2432 253.764
L85.6896 155.7
L85.8384 178.769
L86.2104 247.625
L86.2848 260.805
L86.4336 251.746
L86.508 251.155
L86.5824 227.239
L86.7312 250.42
L86.88 226.958
L86.9544 241.616
L87.4008 184.156
L87.6984 214.318
L87.8472 206.931
L87.9216 207.458
L88.0704 204.775
L88.2192 206.356
L88.2936 211.933
L88.368 211.389
L88.4424 209.112
L88.6656 180.393
L88.8144 194.351
L89.3352 267.942
L89.484 254.334
L89.5584 255.228
L90.0792 172.95
L90.1536 180.769
L90.3024 210.866
L90.3768 205.194
L90.6 235.503
L90.6744 238.372
L90.7488 235.978
L91.0464 268.08
L91.6416 157.868
L91.8648 101.868
L91.9392 111.99
L92.3112 258.546
L92.5344 282.876
L92.6832 274.068
L92.7576 277.118
L92.832 268.996
L92.9808 276.668
L93.4272 143.824
L93.5016 147.414
L93.7992 215.186
L93.8736 210.711
L94.0224 182.911
L94.0968 186.955
L94.32 208.101
L94.3944 206.011
L94.5432 231.235
L94.6176 227.969
L94.8408 252.2
L95.1384 228.112
L95.2128 235.361
L95.2872 232.687
L95.3616 230.755
L95.5104 208.918
L95.8824 249.331
L95.9568 247.612
L96.4776 144.338
L96.8496 189.314
L97.2216 310.732
L97.296 309.453
L97.4448 274.867
L97.8912 172.219
L97.9656 172.315
L98.04 170.967
L98.2632 161.104
L98.3376 161.467
L98.4864 171.878
L99.0816 239.115
L99.3048 265.385
L99.4536 261.907
L99.9 236.864
L100.123 219.908
L100.198 220.655
L100.346 223.476
L100.495 212.192
L100.793 191.15
L100.867 189.465
L101.09 207.436
L101.239 180.281
L101.388 157.609
L101.909 248.087
L102.058 267.255
L102.132 262.715
L102.504 180.073
L102.727 203.336
L103.099 261.756
L103.174 256.421
L103.397 222.461
L103.694 214.944
L103.769 215.653
L103.918 219.091
L103.992 217.865
L104.215 201.25
L104.364 214.028
L104.587 228.483
L104.662 226.682
L104.959 173.943
L105.034 174.807
L105.108 181.723
L105.257 164.392
L105.331 176.928
L105.629 286.807
L105.703 282.194
L106.075 207.859
L106.298 179.131
L106.67 233.624
L106.745 232.855
L107.117 210.076
L107.191 212.408
L107.266 214.715
L107.34 212.702
L107.489 203.678
L107.563 203.332
L107.712 205.319
L107.861 201.535
L107.935 202.313
L108.084 198.053
L108.158 194.917
L108.53 207.7
L109.051 274.076
L109.2 260.322
L109.646 209.441
L109.944 171.019
L110.093 166.392
L110.316 170.759
L110.39 170.453
L110.837 207.514
L111.134 249.362
L111.209 251.228
L111.358 248.001
L111.432 245.897
L111.655 256.723
L111.804 238.203
L112.102 206.801
L112.325 197.422
L112.399 197.88
L112.548 214.426
L112.697 229.693
L112.771 229.356
L112.92 221.528
L113.143 208.499
L113.218 208.767
L113.441 211.687
L113.515 211.851
L113.738 214.452
L113.813 213.817
L114.036 206.46
L114.334 192.351
L114.408 194.027
L114.557 210.564
L114.78 232.505
L114.854 231.823
L115.152 223.861
L115.301 232.561
L115.598 203.086
L115.673 207.583
L115.896 218.828
L116.045 216.975
L116.491 236.657
L116.64 226.6
L116.863 207.942
L116.938 208.43
L117.012 208.754
L117.086 206.879
L117.31 178.315
L117.458 190.947
L117.905 238.251
L117.979 232.246
L118.128 198.152
L118.277 223.381
L118.351 232.155
L118.426 231.943
L118.723 233.987
L118.872 220.733
L118.946 205.799
L119.021 209.428
L119.095 222.172
L119.244 171.451
L119.318 175.775
L119.69 267.825
L119.765 291.931
L119.839 288.739
L120.36 178.877
L120.509 169.157
L120.583 169.364
L121.253 232.566
L121.402 247.111
L121.476 246.143
L121.848 223.338
L121.922 222.007
L122.146 236.186
L122.294 236.445
L122.369 235.127
L122.592 205.168
L122.815 172.224
L123.262 205.963
L123.559 225.42
L123.708 238.601
L123.857 224.552
L123.931 225.874
L124.08 224.954
L124.303 234.989
L124.378 235.279
L124.452 236.052
L124.526 238.812
L124.601 237.27
L125.047 199.181
L125.196 182.333
L125.27 183.097
L125.568 216.703
L125.642 211.346
L125.94 169.329
L126.014 171.96
L126.163 193.327
L126.535 265.735
L126.61 264.166
L126.907 243.521
L127.205 206.399
L127.279 206.529
L127.577 223.852
L127.651 219.329
L127.949 184.268
L128.098 195.336
L128.47 229.282
L128.544 230.971
L128.618 230.557
L128.916 220.746
L129.065 223.243
L129.288 217.51
L129.511 207.79
L129.586 207.099
L129.734 209.799
L129.809 209.734
L130.106 183.991
L130.181 186.808
L130.553 235.542
L130.627 232.985
L130.776 219.1
L130.85 220.146
L131.222 233.209
L131.297 233.754
L131.52 221.93
L131.669 225.589
L131.892 218.215
L132.115 198.23
L132.338 222.02
L132.859 191.115
L132.934 194.753
L133.157 234.635
L133.231 230.777
L133.38 208.87
L133.454 211.73
L133.603 244.999
L133.678 237.071
L133.901 199.289
L134.124 221.593
L134.347 168.902
L134.422 171.101
L135.166 248.58
L135.24 249.56
L135.389 265.601
L135.463 265.078
L135.686 224.072
L135.91 261.402
L136.133 208.888
L136.282 170.267
L136.43 192.705
L136.505 208.646
L136.654 179.261
L136.728 182.371
L136.951 199.232
L137.026 201.751
L137.249 245.526
L137.472 206.65
L137.546 207.125
L137.695 157.713
L137.77 158.408
L138.365 241.4
L138.439 239.512
L138.514 239.538
L138.588 242.769
L138.811 260.33
L138.96 274.534
L139.034 284.6
L139.109 284.453
L139.258 271.143
L139.481 200.623
L139.555 200.295
L139.63 208.689
L139.853 141.444
L139.927 150.46
L140.299 214.327
L140.374 213.147
L140.522 193.254
L140.597 194.07
L140.671 201.129
L140.746 198.571
L140.82 195.198
L140.894 196.096
L140.969 199.194
L141.043 195.167
L141.118 199.686
L141.415 280.099
L141.49 278.664
L141.638 268.836
L141.713 279.183
L141.787 274.629
L142.01 200.23
L142.159 231.17
L142.234 224.306
L142.457 177.14
L142.531 177.991
L142.68 163.212
L142.829 184.968
L142.903 182.631
L143.052 171.589
L143.573 223.74
L143.722 286.548
L144.094 225.511
L144.168 227.148
L144.242 226.915
L144.317 227.014
L144.391 229.14
L144.689 270.569
L144.763 266.745
L144.912 238.782
L145.21 169.705
L145.284 164.21
L145.507 188.411
L145.656 170.206
L145.805 185.97
L146.028 208.369
L146.177 212.676
L146.474 202.097
L146.698 211.311
L147.07 257.971
L147.144 260.062
L147.516 243.387
L147.665 212.387
L147.814 181.685
L147.888 183.845
L148.111 262.002
L148.186 259.185
L148.483 155.609
L148.558 164.776
L148.855 211.294
L148.93 204.067
L149.078 195.457
L149.45 268.879
L149.525 266.784
L149.674 253.522
L149.748 254.144
L149.822 251.28
L149.971 223.416
L150.269 140.511
L150.343 135.348
L150.566 162.491
L150.715 194.899
L151.013 279.161
L151.087 279.351
L151.162 274.098
L151.31 237.819
L151.459 264.197
L151.608 313.051
L151.757 252.256
L152.054 139.802
L152.129 126.821
L152.203 127.87
L152.352 147.405
L152.65 190.826
L152.947 265.19
L153.096 259.903
L153.245 270.314
L153.468 257.691
L153.542 258.952
L153.617 258.982
L153.691 257.462
L154.138 186.856
L154.361 167.359
L154.51 174.328
L154.733 190.774
L154.807 190.562
L155.03 196.17
L155.402 227.796
L155.626 249.107
L155.774 260.516
L155.849 253.785
L155.998 270.646
L156.295 208.831
L156.444 214.616
L156.593 205.596
L156.667 206.468
L156.89 231.097
L156.965 232.41
L157.262 195.547
L157.411 203.635
L157.634 182.035
L157.858 195.625
L158.23 221.027
L158.453 210.702
L158.899 225.36
L159.048 215.942
L159.122 218.94
L159.197 222.941
L159.271 222.63
L159.42 218.685
L159.569 207.034
L159.718 228.747
L159.866 248.312
L159.941 247.699
L160.09 241.733
L160.238 268.607
L160.536 176.937
L160.61 181.248
L160.685 180.756
L160.759 178.643
L161.429 236.57
L161.503 233.892
L161.801 210.391
L161.95 188.912
L162.024 193.625
L162.322 254.364
L162.396 258.209
L162.545 248.23
L162.842 171.127
L162.917 148.123
L162.991 157.639
L163.14 187.633
L163.289 192.718
L163.438 230.561
L163.586 210.08
L163.661 212.296
L163.735 224.932
L163.81 221.817
L163.884 221.217
L164.182 239.84
L164.256 260.706
L164.33 258.969
L164.554 227.196
L164.628 227.377
L164.851 211.89
L164.926 214.672
L165 213.588
L165.074 213.795
L165.149 216.525
L165.298 205.354
L165.521 212.391
L165.67 218.016
L165.818 239.037
L166.116 168.206
L166.19 174.613
L166.488 213.92
L166.562 209.998
L166.637 210.499
L166.86 223.887
L166.934 219.428
L167.009 220.4
L167.604 242.925
L167.678 243.033
L168.05 201.081
L168.125 200.507
L168.274 201.401
L168.72 217.16
L168.794 214.257
L168.943 219.558
L169.092 244.813
L169.166 242.553
L169.464 209.484
L169.687 256.719
L169.762 248.532
L170.134 184.791
L170.208 187.188
L170.506 212.689
L170.58 216.042
L170.729 208.758
L171.101 182.285
L171.175 183.706
L171.398 201.444
L171.696 224.008
L171.919 267.998
L171.994 266.249
L172.142 251.349
L172.514 154.512
L173.11 285.857
L173.258 245.901
L173.556 171.684
L173.705 190.757
L174.077 266.616
L174.226 232.043
L174.449 185.292
L174.672 173.766
L174.746 175.65
L175.193 230.721
L175.267 226.15
L175.49 193.975
L175.639 214.249
L175.937 256.442
L176.086 249.388
L176.309 226.66
L176.681 161.216
L176.755 164.806
L177.499 289.028
L177.574 288.138
L177.797 254.321
L178.094 198.818
L178.392 164.932
L178.466 166.53
L178.69 184.752
L178.764 188
L178.987 207.177
L179.062 206.598
L179.21 209.881
L179.508 273.247
L179.582 260.715
L179.88 210.702
L179.954 202.11
L180.029 204.313
L180.252 217.925
L180.326 218.232
L180.475 212.961
L180.55 216.534
L180.624 216.132
L180.773 198.105
L180.922 214.538
L180.996 209.333
L181.07 210.711
L181.517 226.811
L181.74 246.943
L181.963 236.086
L182.112 246.653
L182.186 241.638
L182.484 163.847
L182.558 168.003
L182.707 179.611
L182.782 172.993
L182.93 204.209
L183.005 202.179
L183.228 151.924
L183.302 160.154
L183.674 288.108
L183.749 280.604
L184.046 232.276
L184.195 238.035
L184.567 189.551
L184.642 188.644
L184.79 284.319
L184.865 274.215
L185.088 208.78
L185.162 207.903
L185.237 210.356
L185.386 136.882
L185.46 144.952
L185.758 200.515
L185.981 223.26
L186.055 228.043
L186.278 267.704
L186.502 238.709
L186.576 239.789
L186.65 251.509
L186.725 248.269
L186.948 216.037
L187.246 184.315
L187.32 161.216
L187.394 166.832
L187.543 199.038
L187.766 194.489
L187.841 198.07
L188.138 227.598
L188.287 223.312
L188.585 247.949
L188.659 245.145
L189.031 184.22
L189.106 187.072
L189.329 235.071
L189.478 222.09
L189.775 174.626
L189.998 168.509
L190.147 188.074
L190.594 283.287
L190.668 286.25
L190.966 274.647
L191.189 225.036
L191.412 186.523
L191.635 206.611
L191.71 201.963
L192.082 130.099
L192.156 130.29
L192.305 153.129
L192.826 263.851
L193.123 282.068
L193.198 282.587
L193.421 258.46
L193.867 205.639
L194.388 165.765
L194.537 172.185
L195.132 217.899
L195.355 225.256
L195.504 218.685
L195.727 266.689
L195.876 265.462
L196.025 261.479
L196.174 266.923
L196.322 254.835
L196.471 225.839
L196.769 156.538
L196.843 153.116
L197.29 192.143
L197.364 190.23
L197.438 191.495
L197.736 177.438
L197.885 188.959
L198.034 208.287
L198.406 287.209
L198.48 290.307
L198.554 288.125
L198.703 267.812
L199.001 223.053
L199.298 194.303
L199.447 184.043
L199.522 184.523
L199.894 199.241
L199.968 199.155
L200.042 198.537
L200.266 183.05
L200.34 183.581
L200.489 202.84
L200.786 264.68
L200.861 261.764
L201.01 234.855
L201.233 192.161
L201.382 205.583
L201.754 241.962
L202.126 219.727
L202.349 205.708
L202.572 219.718
L202.646 219.074
L203.242 174.25
L203.316 174.263
L203.465 187.62
L203.986 259.121
L204.06 256.084
L204.209 253.146
L204.283 253.479
L204.358 255.189
L204.506 244.575
L204.804 209.778
L205.102 196.075
L205.176 197.448
L205.399 230.107
L205.474 226.202
L205.771 165.485
L205.846 168.729
L206.069 194.118
L206.143 187.698
L206.292 163.951
L206.366 175.494
L206.664 287.598
L206.738 283.546
L206.887 323.07
L206.962 322.435
L207.11 272.832
L207.408 160.633
L207.557 208.443
L208.152 134.761
L208.226 137.232
L208.45 178.462
L208.822 263.065
L208.896 260.101
L208.97 289.564
L209.045 279.282
L209.268 242.558
L209.491 314.836
L209.566 312.041
L210.086 151.423
L210.235 151.881
L210.384 154.283
L210.533 145.215
L210.607 147.729
L210.756 167.718
L210.83 177.326
L211.128 253.647
L211.426 303.919
L211.5 299.832
L211.723 262.365
L212.021 197.846
L212.393 173.714
L212.467 173.295
L212.542 173.693
L212.616 174.846
L212.839 189.379
L213.36 238.985
L213.509 215.644
L213.806 170.28
L213.955 191.422
L214.55 288.95
L214.699 279.662
L214.997 228.345
L215.369 169.118
L215.518 165.493
L215.741 184.056
L215.964 201.081
L216.038 200.991
L216.113 201.595
L216.187 206.568
L216.41 236.147
L216.634 219.523
L216.782 226.492
L217.006 213.877
L217.08 217.346
L217.229 227.865
L217.303 227.749
L217.452 209.95
L217.675 172.349
L217.75 174.284
L218.047 228.151
L218.345 292.389
L218.419 294.277
L218.494 288.963
L219.089 173.628
L219.238 169.744
L219.386 179.767
L219.758 227.839
L220.056 205.363
L220.279 221.632
L220.502 214.011
L220.577 214.784
L220.726 211.151
L220.874 208.905
L221.023 214.439
L221.321 225.239
L221.395 224.483
L221.767 208.793
L221.842 210.037
L222.288 232.553
L222.362 231.261
L222.586 211.795
L222.809 192.26
L222.883 192.333
L223.032 208.24
L223.255 233.347
L223.404 245.837
L223.478 252.619
L223.553 252.235
L223.702 239.128
L224.074 195.751
L224.222 192.606
L224.297 192.644
L224.446 200.131
L224.743 231.995
L224.818 232.047
L224.966 222.241
L225.487 180.082
L225.562 180.263
L225.71 197.103
L226.008 269.018
L226.082 266.128
L226.529 201.03
L226.752 192.208
L226.901 215.605
L227.05 243.469
L227.124 242.087
L227.645 194.813
L227.868 188.847
L227.942 188.765
L228.017 190.238
L228.166 209.138
L228.463 258.3
L228.538 262.123
L228.612 260.296
L228.835 224.595
L228.984 204.568
L229.133 220.431
L229.282 237.007
L229.43 224.517
L229.728 189.815
L229.877 192.005
L229.951 187.348
L230.1 153.985
L230.174 157.825
L230.472 201.107
L230.621 223.856
L230.918 283.308
L230.993 278.371
L231.365 228.595
L231.588 216.642
L231.737 209.812
L232.034 195.31
L232.183 193.327
L232.332 199.816
L232.406 199.677
L232.63 191.815
L233.448 234.419
L233.597 250.329
L233.671 249.582
L233.969 225.2
L234.192 238.298
L234.266 237.979
L234.415 226.09
L234.787 193.206
L235.01 192.087
L235.234 182.955
L235.308 184.678
L235.68 194.334
L236.424 265.346
L237.242 216.616
L237.689 166.223
L237.763 167.109
L237.986 176.937
L238.433 206.002
L238.954 248.429
L239.102 253.042
L239.177 252.593
L239.4 236.618
L239.846 211.229
L239.995 214.767
L240.07 213.713
L240.367 203.38
L240.442 211.22
L240.59 245.69
L240.739 210.616
L240.888 181.153
L241.111 192.333
L241.186 188.571
L241.26 188.61
L241.558 216.197
L241.706 215.8
L241.781 215.091
L241.855 218.176
L242.078 248.139
L242.227 240.091
L242.376 246.83
L242.45 245.145
L242.897 199.639
L242.971 198.991
L243.194 235.058
L243.343 262.628
L243.492 212.806
L243.715 133.616
L243.938 187.517
L244.31 249.409
L244.385 250.541
L244.906 202.602
L244.98 202.412
L245.054 205.121
L245.501 266.966
L245.575 264.322
L245.724 234.16
L246.096 148.9
L246.17 144.144
L246.468 214.754
L246.542 210.97
L246.691 196.822
L246.766 198.71
L247.138 231.486
L247.51 284.604
L247.584 281.066
L247.882 237.011
L248.105 212.374
L248.551 133.979
L248.849 190.238
L248.923 188.156
L248.998 184.821
L249.072 187.296
L249.37 243.219
L249.593 322.854
L249.742 286.22
L250.188 133.698
L250.262 140.532
L250.783 263.557
L250.858 261.155
L251.081 248.982
L251.602 163.268
L251.676 166.832
L251.899 210.106
L252.122 250.515
L252.271 259.017
L252.42 249.928
L252.866 213.143
L253.164 201.289
L253.462 190.169
L253.834 174.375
L253.908 177.758
L254.28 236.423
L254.578 278.051
L254.875 284.691
L255.024 274.085
L255.322 193.815
L255.694 113.843
L255.768 114.932
L255.917 133.443
L256.586 284.967
L256.661 288.557
L256.735 288.436
L256.884 265.67
L257.107 227.606
L257.256 233.926
L257.33 231.835
L257.479 211.328
L257.777 171.973
L257.926 167.169
L258.074 172.569
L258.298 194.334
L258.818 257.19
L258.967 250.783
L259.414 217.968
L259.488 215.022
L259.562 216.037
L259.86 231.486
L259.934 231.226
L260.232 206.576
L260.381 202.809
L260.604 188.54
L260.902 165.662
L261.274 220.811
L261.422 215.247
L261.571 227.973
L261.646 212.05
L261.72 216.871
L261.794 242.212
L261.869 236.501
L261.943 230.207
L262.092 271.363
L262.166 265.315
L262.464 201.025
L262.538 205.432
L262.613 211.531
L262.687 209.998
L262.762 213.255
L262.91 232.172
L263.059 225.714
L263.134 225.127
L263.208 222.694
L263.357 230.138
L263.431 227.852
L263.654 174.22
L263.803 151.699
L264.547 247.448
L264.696 250.649
L264.845 241.573
L265.142 216.426
L265.291 218.107
L265.44 212.033
L265.812 185.309
L265.886 185.663
L266.11 210.948
L266.258 206.434
L266.63 232.401
L266.854 251.824
L267.077 227.969
L267.374 182.652
L267.449 185.011
L267.821 212.901
L267.97 224.669
L268.193 206.451
L268.342 198.174
L268.416 207.311
L268.714 319.117
L268.788 310.01
L269.234 168.288
L269.532 205.514
L269.606 202.01
L270.127 152.624
L270.425 206.339
L270.574 225.667
L270.946 299.586
L271.094 279.019
L271.466 204.905
L271.615 189.979
L271.838 150.697
L271.913 155.112
L272.136 183.702
L272.285 180.242
L272.434 202.3
L272.731 240.761
L272.806 240.113
L272.88 240.666
L273.029 245.586
L273.475 268.62
L273.55 269.813
L273.698 279.632
L273.773 268.53
L274.145 121.909
L274.219 122.367
L274.368 119.075
L274.442 124.22
L274.666 200.403
L274.963 267.743
L275.038 269.614
L275.186 260.434
L275.782 215.558
L275.856 213.506
L276.005 221.321
L276.079 225.675
L276.154 224.898
L276.6 173.943
L276.749 190.312
L277.121 258.123
L277.195 259.933
L277.344 252.891
L277.567 228.561
L278.088 143.025
L278.162 136.454
L278.237 136.554
L278.386 170.358
L278.832 298.96
L278.981 314.011
L279.204 295.171
L279.353 250.26
L279.576 175.455
L279.65 171.096
L279.948 180.596
L280.022 180.497
L280.246 187.076
L280.32 185.754
L280.618 161.648
L280.766 177.74
L281.064 297.966
L281.287 339.797
L281.436 291.063
L281.734 144.23
L281.957 138.666
L282.031 140.187
L282.254 168.867
L282.626 255.824
L282.701 253.552
L283.147 219.847
L283.222 220.284
L283.817 241.737
L284.04 262.823
L284.114 264.274
L284.263 242.368
L284.561 205.298
L284.71 176.47
L284.933 143.811
L285.082 165.143
L285.602 244.869
L285.677 245.845
L285.974 218.711
L286.123 224.193
L286.346 207.803
L286.421 211.255
L286.57 239.56
L286.644 237.745
L286.718 225.753
L286.867 248.256
L287.165 190.692
L287.239 181.106
L287.76 248.852
L288.058 186.324
L288.132 193.603
L288.206 191.573
L288.281 186.484
L288.43 201.846
L288.504 199.405
L288.578 203.401
L288.95 256.11
L289.099 267
L289.322 224.107
L289.62 137.314
L289.694 139.949
L289.769 135.811
L289.843 144.649
L290.215 292.86
L290.29 287.715
L290.736 195.617
L290.81 201.932
L291.034 225.468
L291.108 224.418
L291.257 201.159
L291.406 177.853
L291.629 205.483
L291.703 201.483
L291.852 190.035
L291.926 189.983
L292.001 198.787
L292.298 305.803
L292.373 298.182
L292.67 240.895
L292.968 180.717
L293.414 134.329
L293.489 141.068
L293.786 211.333
L293.861 209.458
L293.935 204.619
L294.01 204.978
L294.233 221.113
L294.53 312.762
L294.679 299.076
L295.2 187.435
L295.423 239.249
L295.498 234.903
L295.721 180.289
L296.093 186.298
L296.167 185.827
L296.688 212.866
L296.762 210.642
L297.06 221.511
L297.283 198.213
L297.358 200.494
L297.581 208.831
L297.804 196.999
L297.953 197.707
L298.027 199.453
L298.25 248.031
L298.399 251.798
L298.474 251.548
L298.548 249.211
L298.697 252.934
L298.846 235.529
L298.92 235.888
L298.994 234.082
L299.218 247.085
L299.292 243.97
L299.441 234.808
L299.59 207.423
L299.887 154.879
L299.962 154.836
L300.259 211.22
L300.557 258.365
L300.706 248.951
L301.226 200.403
L301.45 177.641
L301.524 176.911
L301.598 173.351
L301.673 174.138
L302.194 201.604
L302.491 250.148
L302.714 262.019
L302.789 262.304
L302.938 254.563
L303.533 206.252
L303.607 208.728
L303.756 212.931
L303.905 199.893
L304.128 165.644
L304.277 189.063
L304.872 281.243
L304.946 273.567
L305.318 172.626
L305.542 203.617
L305.616 195.314
L305.839 123.369
L305.914 129.335
L306.137 213.38
L306.434 318.65
L306.509 332.517
L306.583 325.795
L307.03 129.443
L307.625 279.852
L307.699 284.129
L308.071 192.744
L308.369 199.358
L308.592 204.317
L308.666 202.969
L308.815 194.506
L309.113 206.922
L309.41 233.188
L309.485 229.231
L309.634 201.807
L309.708 202.52
L309.782 205.185
L309.931 196.697
L310.08 205.743
L310.526 242.549
L310.675 253.284
L311.047 226.414
L311.196 211.994
L311.27 212.348
L311.568 243.391
L311.642 233.961
L311.94 150.239
L312.014 156.62
L312.163 203.419
L312.238 200.852
L312.684 268.763
L312.758 264.404
L313.205 136.372
L313.279 153.95
L313.577 238.393
L313.8 257.984
L313.949 249.427
L314.395 181.628
L314.544 153.631
L314.916 277.373
L315.065 266.815
L315.139 270.733
L315.288 237.728
L315.586 160.927
L315.66 161.527
L315.809 181.598
L315.883 180.229
L315.958 181.978
L316.032 179.404
L316.181 168.945
L316.255 176.349
L316.553 266.011
L316.627 264.019
L316.85 247.668
L316.999 251.634
L317.074 249.755
L317.222 225.066
L317.52 174.846
L317.594 175.265
L317.743 184.242
L317.818 184.117
L318.115 204.974
L318.19 209.471
L318.413 271.411
L318.562 301.431
L318.636 294.121
L319.306 152.745
L319.678 212.815
L319.826 200.909
L320.05 179.516
L320.124 181.257
L320.273 205.25
L320.719 307.95
L320.794 303.206
L321.538 141.997
L322.207 212.806
L322.282 212.62
L322.43 207.574
L322.505 205.967
L322.654 186.804
L323.1 280.099
L323.174 274.383
L323.472 226.548
L323.546 220.906
L323.918 248.459
L324.29 182.069
L324.365 183.81
L324.514 194.23
L324.588 195.012
L324.737 176.047
L324.811 178.894
L324.96 226.327
L325.034 225.908
L325.109 220.042
L325.332 254.52
L325.406 250.951
L325.555 211.618
L325.704 161.458
L325.778 165.074
L326.076 211.255
L326.225 197.103
L326.448 246.562
L326.522 249.154
L326.82 193.729
L326.894 198.775
L327.118 277.99
L327.192 277.714
L327.415 250.865
L327.638 180.605
L327.787 201.176
L328.085 227.9
L328.308 197.44
L328.457 178.98
L328.68 244.096
L329.052 162.551
L329.126 168.837
L329.424 258.559
L329.647 197.159
L329.722 198.8
L329.945 236.665
L330.094 222.383
L330.242 233.525
L330.391 244.363
L330.466 244.147
L330.54 239.611
L330.763 207.462
L330.838 209.635
L331.135 196.74
L331.358 204.909
L331.582 198.286
L331.656 198.848
L331.73 201.094
L331.879 184.644
L331.954 185.555
L332.177 211.868
L332.326 228.82
L332.549 253.725
L332.772 263.19
L332.921 267.899
L332.995 266.633
L333.516 182.199
L333.59 173.191
L333.665 175.922
L333.814 199.358
L333.962 235.391
L334.26 155.497
L334.334 167.351
L334.558 207.89
L334.706 182.186
L334.781 184.985
L335.078 235.149
L335.376 281.299
L335.45 277.455
L335.748 238.013
L335.897 241.603
L335.971 237.702
L336.418 178.838
L336.715 222.172
L336.864 229.243
L337.013 218.154
L337.31 224.98
L337.385 221.986
L337.831 173.611
L337.98 169.455
L338.129 186.657
L338.426 232.708
L338.65 256.071
L338.873 235.793
L339.096 205.35
L339.245 246.303
L339.319 239.966
L339.468 209.484
L339.542 210.97
L339.691 232.833
L339.766 225.524
L340.063 142.178
L340.584 274.759
L340.807 264.763
L341.179 201.786
L341.328 182.562
L341.402 183.102
L341.551 204.952
L341.774 234.086
L341.849 234.501
L341.998 220.474
L342.146 182.384
L342.221 185.892
L342.295 200.947
L342.37 198.982
L342.667 189.962
L342.89 220.431
L343.114 196.092
L343.486 231.192
L343.56 230.773
L343.709 214.149
L343.783 216.862
L344.006 250.174
L344.304 213.238
L344.527 240.523
L344.75 265.471
L344.825 263.41
L345.048 237.27
L345.494 157.376
L345.569 152.736
L345.643 154.015
L345.792 163.083
L346.09 190.005
L346.313 205.138
L346.61 255.099
L346.685 259.293
L346.759 257.656
L346.834 255.496
L347.057 269.186
L347.206 276.53
L347.28 273.459
L347.503 238.531
L347.875 164.78
L348.098 157.661
L348.247 153.276
L348.396 168.871
L348.768 203.604
L348.917 210.745
L349.14 240.095
L349.438 272.439
L349.735 267.99
L349.958 259.112
L350.182 234.289
L350.777 158.192
L350.851 158.339
L351 162.435
L351.372 206.058
L351.446 201.742
L351.744 177.568
L351.893 194.169
L352.414 276.975
L352.562 266.408
L352.637 260.745
L352.786 271.567
L353.009 290.752
L353.158 266.694
L353.604 169.93
L353.827 149.151
L353.902 151.28
L354.05 135.301
L354.199 166.768
L354.348 217.126
L354.571 183.935
L354.646 170.807
L354.72 172.958
L355.166 242.661
L355.241 238.16
L355.39 258.671
L355.613 303.772
L355.687 306.766
L355.762 303.422
L356.357 114.509
L356.506 124.41
L356.654 170.401
L356.878 246.39
L356.952 236.911
L357.026 205.699
L357.101 208.304
L357.175 229.814
L357.25 225.381
L357.473 239.987
L357.547 237.797
L357.77 225.191
L357.845 224.664
L357.919 240.946
L357.994 238.164
L358.068 233.546
L358.142 246.809
L358.514 206.646
L358.663 180.086
L358.812 228.47
L358.961 226.25
L359.035 206.248
L359.11 153.112
L359.333 206.779
L359.407 212.046
L359.482 203.647
L359.63 231.473
L359.705 228.31
L359.854 245.465
L360.002 231.416
L360.3 184.061
L360.449 164.923
L360.523 144.576
L360.97 320.011
L361.044 313.073
L361.193 264.244
L361.267 270.664
L361.714 117.606
L361.788 139.828
L362.086 203.315
L362.234 246.135
L362.309 244.493
L362.383 238.411
L362.681 269.337
L362.83 266.97
L362.904 263.639
L363.202 212.853
L363.425 156.685
L363.574 144.61
L363.722 165.1
L363.797 163.368
L364.169 260.728
L364.243 260.131
L364.318 243.819
L364.392 248.869
L364.466 259.064
L365.136 186.575
L365.285 209.924
L365.359 209.639
L365.434 204.835
L365.508 209.847
L365.582 205.583
L365.657 224.755
L365.731 209.587
L365.88 292.713
L365.954 287.887
L366.252 135.478
L366.326 143.863
L366.475 192.619
L366.55 188.359
L366.624 194.437
L366.922 353.953
L367.219 229.714
L367.666 126.449
L367.74 120.077
L368.038 180.138
L368.112 184.095
L368.707 288.531
L368.782 287.983
L369.005 275.031
L369.154 250.135
L369.228 252.727
L369.674 167.472
L369.823 136.268
L369.972 165.441
L370.046 162.145
L370.121 161
L370.195 155.821
L370.27 157.017
L370.418 175.231
L370.79 266.05
L370.865 272.577
L371.46 222.928
L371.534 220.949
L371.683 254.991
L371.758 242.903
L371.981 189.819
L372.13 197.202
L372.278 211.635
L372.353 215.333
L372.65 253.245
L372.725 255.729
L372.874 225.118
L373.32 146.105
L373.618 175.481
L374.287 263.717
L374.436 276.228
L374.585 263.16
L374.882 234.199
L375.254 183.555
L375.329 180.859
L375.403 181.365
L375.478 181.248
L375.775 158.344
L376.222 207.181
L376.594 259.708
L376.817 301.681
L376.891 300.558
L377.263 253.548
L377.635 195.128
L378.082 154.918
L378.23 149.151
L378.305 149.483
L378.454 165.839
L378.9 244.165
L378.974 242.877
L379.123 235.615
L379.198 237.404
L379.495 249.923
L379.57 249.478
L379.718 242.333
L379.867 222.595
L380.165 179.201
L380.239 176.375
L380.314 178.263
L380.462 195.077
L380.909 260.028
L381.058 263.333
L381.206 261.682
L381.281 263.881
L381.355 262.685
L381.504 248.385
L381.876 181.546
L382.174 136.182
L382.397 122.056
L382.471 123.974
L382.62 140.42
L382.843 195.47
L383.29 313.414
L383.364 321.722
L383.513 296.61
L383.885 224.245
L384.182 204.866
L384.257 204.304
L384.331 207.708
L384.703 262.037
L384.852 243.232
L385.298 165.511
L385.522 183.698
L385.596 180.739
L385.67 177.693
L385.745 184.817
L385.968 218.081
L386.117 195.401
L386.34 157.078
L386.414 156.728
L386.563 173.101
L387.01 272.806
L387.084 272.733
L387.233 275.057
L387.456 262.909
L387.53 264.78
L387.605 269.813
L387.679 267.389
L388.051 193.491
L388.274 161.597
L388.423 157.281
L388.572 171.662
L389.018 226.505
L389.167 230.825
L389.242 230.328
L389.39 232.609
L389.465 231.274
L390.06 198.628
L390.134 199.371
L390.283 198.688
L390.432 209.808
L390.655 224.327
L390.73 222.422
L390.878 204.399
L391.102 233.995
L391.325 292.29
L391.399 292.683
L391.622 251.431
L391.697 252.36
L391.994 117.217
L392.069 126.955
L392.292 185.361
L392.59 255.565
L392.664 252.511
L392.813 257.479
L393.11 217.541
L393.185 210.529
L393.259 213.363
L393.334 213.467
L393.706 197.755
L393.854 218.711
L394.226 171.831
L394.375 193.267
L394.45 186.303
L394.598 227.567
L394.673 211.756
L394.747 212.776
L394.822 269.886
L394.896 251.137
L395.045 284.302
L395.194 250.748
L395.268 252.675
L395.342 241.676
L395.417 246.558
L395.566 227.507
L395.789 206.019
L396.012 213.376
L396.161 199.116
L396.235 200.706
L396.384 216.396
L396.458 216.309
L396.533 213.571
L396.682 192.873
L396.905 150.542
L397.054 140.247
L397.351 202.058
L397.426 196.619
L397.946 271.234
L398.021 270.055
L398.244 254.477
L398.318 254.654
L398.467 261.065
L399.062 172.522
L399.211 179.991
L399.286 178.337
L399.36 180.92
L399.434 172.738
L399.509 173.58
L399.806 252.338
L399.881 253.055
L399.955 249.254
L400.03 250.083
L400.104 252.07
L400.402 225.226
L400.476 223.796
L400.55 224.811
L400.699 191.487
L400.922 155.855
L401.146 143.254
L401.443 227.935
L401.741 294.251
L401.815 287.036
L402.41 145.958
L402.634 197.669
L403.006 290.393
L403.08 294.467
L403.154 292.998
L403.378 285.36
L403.526 249.789
L403.75 188.791
L403.824 187.741
L403.898 175.913
L404.122 99.7083
L404.27 141.612
L404.717 283.779
L404.791 282.984
L404.866 280.66
L405.014 257.194
L405.461 141.634
L405.535 132.765
L405.61 136.804
L406.056 244.001
L406.205 255.276
L406.502 237.223
L406.651 217.104
L406.874 228.487
L407.098 217.692
L407.172 218.729
L407.395 225.567
L407.47 223.856
L407.693 236.104
L407.916 225.606
L408.139 208.179
L408.214 210.979
L408.511 191.564
L408.586 191.75
L408.66 192.264
L408.734 193.612
L408.958 214.741
L409.032 213.251
L409.33 193.223
L409.404 195.625
L409.627 217.446
L409.776 229.891
L409.85 227.636
L410.148 206.818
L410.446 212.305
L410.669 221.986
L411.19 261.993
L411.264 260.214
L411.487 224.768
L411.785 187.776
L412.008 180.885
L412.082 182.104
L412.231 197.275
L412.752 284.146
L412.901 267.203
L413.645 124.691
L413.719 123.222
L413.868 138.739
L414.538 264.754
L414.686 269.221
L415.207 234.186
L415.282 234.255
L415.356 234.592
L415.579 241.02
L415.877 253.63
L415.951 254.861
L416.026 251.228
L416.323 199.042
L416.546 161.89
L416.621 168.141
L416.695 165.977
L416.918 102.883
L417.067 78.3632
L417.216 103.151
L417.811 346.877
L417.96 357.608
L418.034 355.534
L418.183 333.589
L418.406 270.521
L418.927 125.862
L419.15 103.544
L419.299 122.22
L419.894 248.545
L419.969 248.29
L420.043 247.444
L420.415 233.417
L420.49 234.592
L420.713 243.512
L420.787 241.327
L421.085 223.563
L421.234 216.474
L421.457 203.725
L421.531 203.021
L422.052 215.562
L422.126 213.972
L422.573 181.503
L422.722 195.664
L423.242 278.124
L423.317 268.361
L423.54 228.544
L423.614 232.224
L423.838 172.526
L424.507 262.827
L424.582 250.61
L424.73 225.222
L424.805 223.39
L425.177 173.511
L425.549 216.923
L425.623 219.679
L425.698 210.201
L425.772 172.552
L425.846 182.475
L425.995 224.82
L426.07 219.403
L426.144 231.87
L426.218 269.994
L426.293 267.311
L426.516 170.491
L426.59 174.725
L427.037 248.982
L427.186 233.702
L427.26 237.935
L427.334 254.265
L427.409 247.889
L427.781 217.147
L428.004 197.807
L428.376 164.31
L428.45 167.813
L428.748 239.361
L428.822 239.188
L428.971 231.265
L429.046 221.1
L429.12 222.694
L429.194 223.964
L429.343 233.831
L429.492 219.251
L429.715 193.621
L430.013 211.687
L430.087 206.684
L430.162 207.708
L430.236 208.183
L430.31 206.097
L430.459 231.835
L430.608 249.547
L430.831 257.488
L430.98 223.424
L431.278 161.307
L431.65 248.731
L431.724 247.612
L432.096 213.946
L432.319 176.764
L432.617 210.274
L432.989 215.558
L433.063 217.821
L433.212 228.189
L433.584 205.38
L433.658 207.358
L434.03 255.621
L434.105 252.139
L434.477 189.871
L434.551 192.644
L434.774 221.394
L434.849 221.39
L435.221 194.502
L435.37 202.693
L435.518 211.544
L435.593 210.387
L435.667 210.348
L435.965 274.245
L436.114 311.911
L436.262 252.675
L436.486 160.607
L436.56 162.599
L436.634 157.281
L436.709 166.902
L436.858 206.378
L437.006 204.905
L437.23 165.93
L437.304 166.975
L437.378 167.489
L437.75 240.13
L437.899 246.878
L437.974 242.13
L438.122 249.167
L438.271 242.895
L438.569 217.061
L438.643 217.947
L438.941 227.762
L439.313 216.106
L439.462 205.747
L439.536 206.136
L440.057 220.206
L440.206 230.151
L440.429 245.547
L440.503 243.465
L440.652 220.517
L441.024 143.042
L441.098 139.474
L441.247 153.821
L441.917 269.299
L441.991 269.752
L442.066 269.54
L442.14 269.877
L442.214 269.411
L442.363 266.37
L442.586 240.532
L443.107 133.206
L443.182 136.139
L443.405 179.944
L443.851 249.439
L443.926 250.273
L444 256.269
L444.298 224.448
L444.521 244.839
L444.744 257.034
L444.818 256.511
L445.042 226.673
L445.265 195.059
L445.339 196.835
L445.414 195.884
L445.562 182.575
L445.711 167.277
L445.86 185.577
L446.083 225.161
L446.158 229.166
L446.381 215.268
L446.604 199.219
L446.678 198.921
L446.902 179.594
L446.976 180.229
L447.497 244.251
L447.72 316.171
L447.794 315.052
L448.018 289.464
L448.315 164.53
L448.613 104.175
L448.687 104.797
L448.762 115.908
L449.282 285.974
L449.506 336.259
L449.58 324.158
L449.803 263.743
L449.878 250.852
L449.878 250.852" style="fill:none;stroke:#808080;stroke-linecap:square;"/>
   </g>
  </g>
 </g>
 <defs>
  <clipPath id="p7ff5b81e1d">
   <rect height="345.6" width="446.4" x="72.0" y="43.2"/>
  </clipPath>
 </defs>
</svg>
