<?xml version="1.0" encoding="utf-8" standalone="no"?>
<!DOCTYPE svg PUBLIC "-//W3C//DTD SVG 1.1//EN"
  "http://www.w3.org/Graphics/SVG/1.1/DTD/svg11.dtd">
<!-- Created with matplotlib (http://matplotlib.org/) -->
<svg height="432pt" version="1.1" viewBox="0 0 576 432" width="576pt" xmlns="http://www.w3.org/2000/svg" xmlns:xlink="http://www.w3.org/1999/xlink">
 <defs>
  <style type="text/css">
*{stroke-linecap:butt;stroke-linejoin:round;}
  </style>
 </defs>
 <g id="figure_1">
  <g id="patch_1">
   <path d="
M0 432
L576 432
L576 0
L0 0
z
" style="fill:#ffffff;"/>
  </g>
  <g id="axes_1">
   <g id="line2d_1">
    <path clip-path="url(#p7ff5b81e1d)" d="
M72 127.33
L72.0744 112.518
L72.1488 107.137
L72.2976 142.388
L72.5208 206.867
L72.5952 204.547
L72.8928 149.547
L73.116 129.206
L73.2648 159.372
L73.5624 295.588
L74.0088 139.673
L74.0832 144.56
L74.232 178.133
L74.5296 312.473
L74.6784 244.291
L74.9016 156.311
L75.0504 155.521
L75.1992 170.727
L75.4224 232.738
L75.4968 229.381
L75.72 140.166
L75.7944 142.635
L75.9432 166.975
L76.1664 125.701
L76.2408 140.907
L76.464 272.383
L76.5384 263.496
L76.6872 162.877
L76.7616 163.47
L76.9104 184.058
L77.1336 126.145
L77.2824 190.278
L77.5056 301.66
L77.7288 148.115
L77.952 202.868
L78.1008 160.606
L78.1752 166.185
L78.324 237.626
L78.4728 322.149
L78.5472 296.476
L78.7704 155.175
L78.8448 158.138
L78.9192 150.09
L79.1424 76.6254
L79.2168 90.8937
L79.44 283.887
L79.5144 272.63
L79.6632 129.798
L79.7376 135.427
L79.8864 201.683
L79.9608 190.525
L80.0352 180.404
L80.1096 186.921
L80.2584 239.946
L80.4072 318.447
L80.4816 292.922
L80.7048 117.357
L80.928 169.839
L81.0768 143.82
L81.2256 192.105
L81.4488 290.058
L81.672 99.3856
L81.7464 117.653
L81.8952 176.306
L82.044 168.851
L82.416 273.568
L82.5648 183.218
L82.7136 124.565
L82.8624 153.349
L83.0112 116.024
L83.4576 271.544
L83.6808 196.845
L83.8296 257.572
L84.0528 112.025
L84.3504 225.579
L84.4248 251.894
L84.648 123.726
L84.7224 149.349
L84.7968 183.416
L84.8712 176.306
L85.02 119.184
L85.4664 277.863
L85.764 166.284
L85.9872 104.52
L86.4336 307.634
L86.6568 134.341
L86.7312 145.202
L86.8056 164.26
L86.9544 123.627
L87.0288 136.167
L87.4008 297.217
L87.624 137.797
L87.7728 159.816
L87.9216 109.655
L87.996 115.135
L88.2936 216.939
L88.4424 276.58
L88.5912 212.397
L88.6656 212.891
L88.74 226.073
L88.8144 222.814
L89.0376 175.269
L89.2608 198.622
L89.4096 259.744
L89.484 238.564
L89.6328 146.535
L89.7072 148.115
L89.856 174.578
L90.0048 155.027
L90.3768 210.224
L90.6 127.626
L90.6744 140.413
L90.7488 149.498
L90.8232 143.425
L90.8976 145.943
L91.1208 254.461
L91.344 341.849
L91.6416 174.183
L91.716 181.737
L91.9392 128.12
L92.0136 136.908
L92.1624 155.965
L92.3856 228.196
L92.5344 152.805
L92.6088 158.878
L92.7576 194.821
L92.9064 124.071
L92.9808 124.911
L93.3528 254.659
L93.4272 232.343
L93.576 180.75
L93.6504 194.722
L93.7248 190.328
L93.8736 155.175
L94.0224 207.657
L94.32 311.436
L94.8408 96.6208
L94.9152 102.644
L95.2872 255.399
L95.3616 242.76
L95.5104 180.009
L95.6592 203.164
L95.9568 161.149
L96.0312 157.348
L96.1056 161.791
L96.3288 281.764
L96.552 178.331
L96.6264 187.217
L96.7008 184.453
L96.8496 144.264
L96.924 144.758
L97.0728 163.963
L97.296 304.623
L97.3704 279.394
L97.5192 207.707
L97.5936 214.816
L97.668 203.559
L97.8912 123.183
L98.1888 205.88
L98.2632 246.957
L98.3376 239.798
L98.4864 188.55
L98.6352 201.041
L98.8584 103.088
L99.0072 136.167
L99.3048 294.205
L99.4536 179.269
L99.528 190.772
L99.6024 219.062
L99.6768 206.719
L99.9 124.269
L100.049 167.666
L100.272 285.763
L100.495 192.994
L100.644 256.782
L100.867 148.066
L101.09 160.063
L101.239 186.329
L101.462 127.182
L101.611 206.373
L101.76 135.97
L101.834 140.611
L102.206 305.413
L102.281 306.252
L102.504 188.896
L102.653 244.686
L102.876 124.516
L102.95 124.664
L103.025 126.984
L103.174 194.031
L103.248 227.949
L103.322 215.458
L103.471 145.745
L103.62 200.301
L103.694 187.217
L103.843 128.613
L104.29 324.766
L104.364 291.589
L104.513 208.941
L104.587 215.557
L104.662 210.866
L104.81 149.251
L104.885 150.485
L104.959 161.495
L105.034 156.755
L105.108 150.337
L105.257 197.585
L105.331 195.413
L105.554 103.385
L105.629 129.897
L105.703 128.07
L105.778 115.135
L105.852 135.575
L106.224 318.644
L106.298 314.694
L106.522 169.937
L106.596 196.302
L106.67 229.035
L106.745 221.037
L106.894 166.432
L107.117 176.01
L107.266 250.117
L107.34 249.573
L107.563 52.4334
L107.638 62.2089
L107.786 73.4162
L107.935 167.123
L108.233 324.371
L108.307 365.103
L108.382 351.822
L108.605 144.264
L108.679 149.103
L108.754 150.831
L108.902 123.479
L109.051 155.422
L109.2 142.289
L109.423 237.181
L109.572 164.062
L109.646 170.48
L109.721 189.538
L109.795 184.897
L109.944 164.507
L110.316 288.133
L110.39 326.692
L110.465 310.597
L110.688 199.461
L110.762 198.128
L110.986 133.995
L111.06 135.328
L111.209 102.99
L111.358 209.188
L111.432 259.053
L111.506 244.784
L111.655 131.526
L111.73 134.489
L111.804 140.364
L111.953 88.672
L112.027 95.584
L112.474 318.545
L112.622 275.592
L112.771 251.005
L112.846 250.512
L113.366 173.443
L113.515 200.35
L113.664 132.464
L113.813 96.0777
L113.887 108.816
L113.962 108.667
L114.036 98.645
L114.11 103.088
L114.557 311.189
L114.631 292.625
L114.854 198.128
L114.929 199.461
L115.078 132.81
L115.152 98.3982
L115.226 107.631
L115.673 247.006
L115.896 139.92
L115.97 148.016
L116.194 211.064
L116.417 260.583
L116.491 258.411
L116.714 302.993
L116.863 223.357
L117.086 116.666
L117.31 96.3246
L117.458 112.074
L117.607 144.857
L117.83 227.406
L117.979 185.588
L118.054 186.773
L118.202 209.533
L118.277 207.707
L118.5 241.625
L118.723 218.371
L118.798 221.333
L118.872 218.025
L119.318 143.672
L119.393 147.77
L119.839 253.276
L119.914 237.823
L120.137 162.433
L120.211 159.767
L120.509 199.215
L120.806 285.121
L120.881 280.085
L121.402 114.148
L121.55 97.7563
L121.774 110.099
L121.848 109.359
L121.997 133.649
L122.071 131.675
L122.22 125.306
L122.369 161.495
L122.815 322.347
L122.89 326.247
L122.964 325.26
L123.113 311.732
L123.336 252.635
L123.634 157.644
L123.931 115.876
L124.229 147.523
L124.303 147.078
L124.378 150.534
L124.601 193.488
L124.824 242.859
L125.196 194.722
L125.27 196.4
L125.419 218.272
L125.568 185.489
L125.866 117.406
L126.014 106.939
L126.163 141.993
L126.386 189.538
L126.535 192.648
L127.577 271.988
L127.651 271.445
L127.8 221.827
L128.023 137.945
L128.246 125.108
L128.693 220.691
L129.214 158.138
L129.288 159.668
L129.362 156.311
L129.586 117.752
L130.032 220.592
L130.181 213.977
L130.404 199.758
L130.627 226.566
L130.702 222.814
L130.85 195.314
L130.999 152.262
L131.074 155.274
L131.371 231.454
L131.446 231.355
L131.594 201.683
L131.669 202.226
L131.818 233.923
L131.892 230.022
L132.19 106.791
L132.338 157.989
L132.636 286.355
L132.785 252.338
L133.231 126.244
L133.38 159.076
L133.603 208.003
L133.678 202.226
L133.901 160.656
L133.975 163.272
L134.198 177.886
L134.347 131.773
L134.422 111.432
L134.496 121.998
L134.868 273.963
L135.017 261.571
L135.24 239.403
L135.761 128.268
L136.058 178.38
L136.356 226.665
L136.654 236.539
L136.802 212.051
L137.026 182.725
L137.1 188.945
L137.174 185.489
L137.398 148.708
L137.621 174.578
L137.695 173.245
L137.844 157.792
L137.918 160.409
L138.439 240.983
L138.514 247.944
L139.034 180.503
L139.183 162.532
L139.332 148.165
L139.406 148.313
L139.481 151.769
L139.63 148.757
L139.927 204.843
L140.002 204.399
L140.076 206.373
L140.374 237.626
L140.448 239.107
L140.746 201.436
L140.82 205.485
L140.894 211.508
L140.969 208.25
L141.192 141.154
L141.266 145.4
L141.564 180.453
L141.713 169.789
L142.01 202.572
L142.234 172.603
L142.308 181.441
L142.531 163.173
L142.68 181.688
L143.126 269.421
L143.275 254.363
L143.424 233.478
L143.722 157.644
L143.796 162.334
L144.019 168.061
L144.168 174.628
L144.391 153.151
L144.54 160.656
L144.689 151.374
L144.912 168.604
L145.284 215.507
L145.433 220.049
L145.582 208.2
L145.805 237.823
L145.879 234.268
L146.102 205.732
L146.177 202.671
L146.474 142.783
L146.549 144.264
L146.623 148.411
L146.772 145.548
L147.144 186.279
L147.442 225.184
L147.59 234.318
L147.665 233.281
L147.739 229.183
L147.814 231.652
L147.962 216.297
L148.111 194.969
L148.483 182.725
L148.706 224.987
L148.781 221.185
L149.078 134.489
L149.153 144.61
L149.302 181.441
L149.376 180.059
L149.525 165.296
L149.748 188.254
L149.822 188.155
L150.046 180.75
L150.12 182.132
L150.492 214.569
L150.566 214.273
L150.641 216.544
L150.79 231.158
L150.938 186.032
L151.087 156.261
L151.236 185.637
L151.31 198.672
L151.385 192.846
L151.534 171.073
L151.608 171.27
L151.831 203.806
L151.906 199.61
L152.054 169.839
L152.129 174.825
L152.352 260.978
L152.501 291.045
L152.873 142.586
L152.947 143.968
L153.17 160.952
L153.394 189.488
L153.468 188.304
L153.766 194.376
L153.84 194.277
L153.914 194.228
L154.063 187.612
L154.138 189.291
L154.212 199.659
L154.435 254.017
L154.658 172.11
L154.956 99.3362
L155.105 112.42
L155.551 243.55
L155.626 235.256
L155.849 209.089
L156.072 230.615
L156.295 196.203
L156.37 201.387
L156.593 281.319
L156.667 267.989
L157.039 135.772
L157.262 98.8919
L157.337 105.705
L157.709 220.395
L157.858 187.909
L158.006 157.348
L158.081 162.729
L158.378 216.593
L158.453 217.383
L158.676 240.242
L158.825 200.054
L158.974 172.702
L159.122 189.587
L159.197 185.341
L159.346 170.184
L159.494 184.749
L159.718 209.435
L159.866 184.798
L160.09 134.143
L160.536 247.253
L160.685 264.928
L160.834 249.672
L161.429 98.2994
L161.503 94.6953
L161.801 196.203
L161.875 186.279
L161.95 176.652
L162.024 179.12
L162.322 217.383
L162.47 229.825
L162.694 243.451
L162.842 229.479
L162.991 186.872
L163.14 133.748
L163.214 136.069
L163.438 204.794
L163.512 203.066
L163.661 185.884
L163.81 200.005
L163.958 211.163
L164.33 179.861
L164.702 209.533
L164.777 207.953
L164.926 195.512
L165.223 147.572
L165.446 182.132
L165.521 176.948
L165.595 172.208
L165.744 197.733
L165.967 238.811
L166.042 236.688
L166.265 196.302
L166.339 197.882
L166.562 172.011
L166.637 176.257
L166.86 226.566
L166.934 221.333
L167.232 121.8
L167.306 133.649
L167.455 166.086
L167.604 154.928
L167.753 193.438
L168.05 255.449
L168.125 262.854
L168.646 158.286
L168.72 164.013
L168.943 213.335
L169.018 212.002
L169.315 164.309
L169.538 214.668
L169.613 207.558
L169.91 174.43
L170.208 207.608
L170.506 142.586
L170.878 193.537
L171.25 247.796
L171.473 205.04
L171.622 223.555
L171.77 215.408
L171.919 224.443
L171.994 222.123
L172.217 159.174
L172.44 113.012
L172.514 105.261
L172.589 106.89
L173.11 250.956
L173.184 249.277
L173.482 144.758
L173.556 146.288
L174.002 216.544
L174.151 195.512
L174.3 175.763
L174.523 201.041
L174.598 196.746
L174.746 194.426
L174.895 221.876
L175.044 258.411
L175.118 255.103
L175.342 214.075
L175.565 187.909
L175.788 170.135
L175.862 171.024
L176.011 181.49
L176.086 180.157
L176.16 180.552
L176.383 207.361
L176.532 176.603
L176.83 128.416
L176.904 131.921
L177.127 158.928
L177.202 157.545
L177.276 159.076
L177.425 181.836
L177.648 250.166
L177.797 222.715
L178.02 186.378
L178.094 189.242
L178.392 238.119
L178.541 230.171
L178.69 229.232
L178.913 195.413
L179.062 160.902
L179.136 162.976
L179.285 193.043
L179.359 185.045
L179.582 140.907
L179.88 212.841
L180.103 159.767
L180.178 167.074
L180.401 209.978
L180.698 177.491
L180.773 171.567
L180.922 180.75
L180.996 174.578
L181.145 145.795
L181.219 147.621
L181.666 251.301
L181.814 270.606
L181.963 229.331
L182.112 190.575
L182.261 195.561
L182.558 173.443
L182.782 198.375
L182.856 190.13
L183.079 159.224
L183.302 182.379
L183.451 191.513
L183.674 170.777
L183.749 176.751
L183.823 174.331
L183.972 164.605
L184.195 161.84
L184.344 183.218
L184.493 209.188
L184.567 210.175
L184.716 224.74
L184.865 249.919
L184.939 247.697
L185.609 152.164
L185.832 76.7241
L185.981 112.173
L186.502 297.563
L186.576 305.264
L186.874 276.432
L187.394 149.251
L187.618 113.407
L187.692 114.839
L187.766 115.53
L187.915 105.705
L188.287 193.339
L188.362 191.957
L188.51 180.848
L188.585 181.194
L188.659 183.218
L189.031 224.394
L189.106 218.025
L189.329 142.043
L189.403 145.597
L190.073 293.86
L190.147 280.826
L190.594 190.229
L190.742 211.656
L190.817 207.213
L191.04 174.628
L191.189 197.388
L191.263 196.154
L191.486 123.578
L191.561 129.502
L191.784 170.826
L192.007 156.36
L192.156 163.568
L192.23 155.077
L192.454 72.5769
L192.602 122.936
L192.974 266.409
L193.198 296.378
L193.346 258.263
L193.57 163.075
L193.644 170.184
L193.867 221.876
L194.09 202.473
L194.239 205.337
L194.537 176.652
L194.611 184.354
L194.834 242.513
L195.281 161.051
L195.355 163.075
L195.43 162.532
L195.653 144.067
L195.727 144.215
L195.876 162.038
L196.099 191.908
L196.174 189.488
L196.322 197.733
L196.471 204.399
L196.694 183.416
L196.843 216.791
L196.992 251.943
L197.066 244.636
L197.29 197.289
L197.513 229.331
L197.81 100.472
L197.885 102.743
L198.108 131.181
L198.257 125.256
L198.406 181.54
L198.629 248.339
L198.703 243.501
L198.778 245.476
L199.075 278.703
L199.224 251.45
L199.447 207.41
L199.522 203.609
L199.67 169.296
L199.894 123.726
L199.968 123.578
L200.117 137.55
L200.489 189.044
L200.638 208.348
L200.861 185.391
L201.01 223.802
L201.158 256.584
L201.307 221.925
L201.605 117.702
L201.679 118.048
L202.349 228.344
L202.572 274.654
L202.646 275.888
L203.39 173.936
L203.539 158.681
L203.614 160.31
L203.911 100.472
L203.986 105.656
L204.283 144.807
L204.358 139.722
L204.432 151.275
L204.73 277.765
L205.027 226.418
L205.102 227.702
L205.25 233.923
L205.474 192.549
L205.548 193.389
L205.622 199.017
L205.697 195.808
L205.994 155.422
L206.292 214.421
L206.366 209.928
L206.664 169.888
L206.738 169.789
L206.887 165.346
L206.962 165.099
L207.036 162.779
L207.11 164.655
L207.259 185.341
L207.408 201.979
L207.557 181.836
L207.631 185.094
L207.854 214.865
L207.929 210.817
L208.226 165.198
L208.524 213.434
L208.598 216.1
L208.673 215.754
L209.045 198.277
L209.194 213.285
L209.342 234.515
L209.417 231.405
L209.789 144.511
L209.938 101.114
L210.012 105.705
L210.458 206.176
L210.533 206.324
L210.682 218.124
L210.756 214.372
L210.83 215.063
L211.054 207.065
L211.128 207.41
L211.351 238.613
L211.5 231.306
L211.574 227.949
L211.649 228.591
L211.723 229.776
L211.872 197.24
L212.244 92.2267
L212.318 98.5957
L212.616 150.337
L213.509 269.322
L213.732 218.618
L213.955 196.055
L214.253 150.238
L214.402 133.304
L214.476 135.476
L214.848 167.666
L215.369 262.854
L215.741 227.653
L215.964 168.95
L216.113 167.024
L216.336 149.053
L216.41 149.349
L216.485 152.213
L216.931 190.821
L217.006 192.155
L217.08 191.019
L217.229 185.687
L217.303 188.797
L217.526 215.952
L217.601 212.693
L218.196 157.397
L218.345 189.39
L218.568 246.414
L218.717 217.877
L218.866 181.54
L218.94 184.453
L219.014 180.108
L219.163 155.472
L219.386 171.172
L219.461 170.777
L219.535 172.011
L219.684 193.389
L219.833 208.99
L219.982 191.661
L220.13 176.553
L220.502 219.556
L220.651 214.421
L220.726 215.952
L220.949 257.967
L221.246 192.5
L221.321 189.883
L221.693 146.585
L221.767 150.238
L221.99 172.505
L222.139 176.109
L222.214 175.171
L222.288 172.505
L222.362 173.048
L222.66 216.347
L222.734 215.853
L222.958 200.943
L223.106 196.697
L223.33 170.48
L223.553 186.082
L223.85 208.694
L223.925 210.916
L224.074 229.924
L224.297 182.725
L224.52 163.223
L224.594 164.605
L224.669 158.533
L224.892 117.159
L225.041 151.472
L225.264 207.558
L225.413 214.767
L225.562 235.947
L225.71 249.228
L225.785 248.784
L225.859 245.426
L226.306 189.192
L226.454 164.112
L226.678 191.365
L226.901 163.371
L226.975 168.407
L227.273 242.168
L227.422 219.358
L227.719 155.225
L227.794 150.436
L228.017 164.901
L228.091 163.173
L228.24 151.472
L228.463 165.79
L228.538 164.309
L228.761 149.893
L228.91 173.986
L229.282 261.916
L229.43 269.223
L230.1 179.318
L230.398 113.259
L230.472 111.482
L231.067 202.078
L231.29 185.835
L231.365 191.661
L231.737 243.007
L231.886 245.821
L232.034 229.43
L232.406 175.862
L232.481 172.011
L232.63 179.12
L232.704 172.307
L232.927 118.196
L233.15 166.58
L233.374 235.108
L233.448 233.775
L233.671 220.049
L233.82 189.34
L233.969 156.953
L234.043 163.223
L234.266 219.901
L234.713 141.549
L234.787 143.721
L235.085 164.951
L235.457 227.751
L235.531 229.479
L235.754 255.992
L235.903 239.847
L236.201 193.883
L236.275 194.524
L236.424 213.088
L236.498 210.619
L236.945 134.587
L237.242 112.617
L237.317 114.789
L237.466 146.782
L237.763 273.222
L237.838 272.432
L237.912 272.087
L237.986 272.136
L238.135 250.907
L238.656 170.53
L238.954 129.601
L239.028 133.699
L239.251 150.436
L239.326 153.151
L239.995 234.614
L240.367 197.388
L240.442 199.116
L240.59 188.896
L240.888 145.992
L241.037 167.024
L241.334 255.597
L241.409 252.881
L241.632 245.229
L241.706 244.933
L242.227 143.376
L242.376 150.633
L242.525 143.178
L242.748 149.794
L243.12 190.525
L243.269 178.429
L243.715 275.493
L244.534 130.835
L244.608 142.339
L244.757 159.717
L244.831 156.113
L245.054 170.332
L245.278 143.227
L245.352 141.993
L245.501 181.441
L245.724 232.787
L245.873 224.345
L245.947 225.925
L246.096 255.498
L246.17 254.066
L246.394 207.558
L246.542 214.816
L246.914 126.589
L247.063 130.341
L247.212 111.877
L247.286 114.987
L247.807 232.837
L248.105 290.058
L248.477 235.157
L248.7 164.605
L248.923 121.553
L249.072 136.661
L249.146 136.315
L249.295 128.317
L249.444 154.287
L249.667 213.384
L249.816 221.679
L250.114 249.672
L250.262 214.767
L250.411 169.493
L250.486 175.467
L250.709 214.322
L250.932 182.478
L251.155 198.622
L251.304 175.813
L251.527 136.414
L251.825 187.514
L251.899 185.539
L252.122 176.899
L252.346 162.384
L252.42 163.914
L252.569 199.708
L252.718 241.477
L252.792 239.255
L252.941 205.04
L253.015 207.509
L253.238 263.743
L253.462 194.129
L253.536 198.968
L253.685 212.496
L254.131 130.539
L254.206 136.266
L254.354 147.424
L254.429 146.634
L254.578 161.347
L254.726 177.491
L255.173 165.543
L255.694 255.597
L255.768 253.968
L255.991 235.7
L256.14 249.327
L256.363 231.207
L256.512 200.4
L256.661 207.065
L256.735 198.918
L256.884 158.187
L257.033 178.429
L257.107 177.442
L257.405 117.505
L257.479 117.554
L257.628 142.536
L257.926 198.277
L258.149 221.185
L258.298 205.485
L258.521 162.877
L258.744 207.707
L258.818 205.88
L259.042 163.667
L259.116 170.085
L259.265 184.798
L259.414 169.542
L259.637 198.079
L259.786 218.914
L260.009 176.948
L260.083 178.972
L260.381 246.957
L260.53 239.205
L260.604 241.427
L260.827 275.197
L260.902 261.521
L261.199 139.475
L261.348 135.723
L261.497 124.318
L261.571 127.774
L262.018 192.5
L262.241 202.078
L262.39 220.938
L262.836 172.554
L262.91 176.405
L263.134 203.559
L263.208 199.363
L263.282 201.288
L263.431 210.175
L263.506 206.423
L263.58 213.335
L263.729 250.758
L263.878 210.126
L264.026 185.243
L264.175 179.96
L264.25 172.357
L264.473 89.3632
L264.547 99.7312
L264.77 188.55
L264.994 169.098
L265.217 189.538
L265.663 263.299
L265.886 277.37
L265.961 265.076
L266.333 114.246
L266.407 111.728
L266.63 116.962
L266.779 147.177
L267.151 249.672
L267.226 255.745
L267.3 251.301
L267.523 208.052
L267.598 208.348
L267.821 236.688
L267.895 233.429
L268.193 169.839
L268.267 169.987
L268.416 160.409
L268.565 150.732
L268.788 161.248
L268.862 158.681
L268.937 159.569
L269.086 163.322
L269.16 163.42
L269.309 169.987
L269.458 197.24
L269.755 263.99
L270.053 189.093
L270.202 198.523
L270.499 226.715
L270.574 228.739
L270.871 196.993
L271.169 97.3614
L271.243 104.273
L271.392 130.144
L271.541 120.22
L271.69 140.611
L272.062 262.608
L272.136 254.313
L272.508 223.999
L272.657 243.254
L272.731 238.86
L272.806 234.071
L272.88 235.355
L272.954 231.899
L273.103 243.797
L273.178 235.206
L273.624 77.1685
L273.698 86.944
L274.145 192.006
L274.219 188.847
L274.294 185.391
L274.442 214.668
L274.74 265.076
L275.038 203.214
L275.186 215.408
L275.484 161.84
L275.558 170.431
L275.782 190.723
L275.856 188.699
L276.005 210.521
L276.079 208.694
L276.302 142.092
L276.377 150.831
L276.674 209.188
L276.823 198.128
L276.972 188.254
L277.046 190.278
L277.344 160.656
L277.642 186.773
L277.716 186.329
L277.79 185.193
L277.939 209.78
L278.014 204.843
L278.162 171.419
L278.237 172.06
L278.683 277.32
L278.758 272.679
L278.981 226.961
L279.427 92.2267
L279.502 92.8686
L279.799 151.028
L280.097 193.438
L280.32 248.784
L280.469 278.258
L280.618 223.9
L280.766 167.913
L280.915 178.084
L281.287 216.791
L281.362 213.434
L281.585 196.647
L281.882 172.258
L281.957 169.049
L282.031 170.925
L282.254 205.534
L282.329 199.56
L282.626 144.659
L282.701 148.51
L282.998 229.776
L283.073 226.171
L283.296 176.899
L283.445 218.223
L283.594 185.489
L283.742 168.357
L283.817 167.024
L283.966 157.15
L284.04 159.372
L284.338 197.141
L284.561 169.789
L284.784 190.575
L285.23 298.254
L285.454 196.499
L285.602 141.598
L285.826 163.025
L285.9 157.545
L285.974 158.829
L286.272 209.928
L286.346 203.263
L286.495 168.506
L286.718 115.234
L286.793 112.321
L286.867 114.543
L287.016 146.634
L287.239 193.29
L287.314 202.177
L287.537 261.571
L287.611 257.769
L287.76 240.933
L287.834 243.402
L287.983 262.459
L288.132 244.538
L288.43 207.213
L288.653 194.524
L289.025 80.2789
L289.099 85.7097
L289.471 159.866
L289.694 252.338
L289.918 226.122
L289.992 229.43
L290.141 215.952
L290.29 206.423
L290.513 220.938
L290.736 205.83
L290.81 203.312
L290.959 207.361
L291.034 213.977
L291.182 241.082
L291.406 166.827
L291.629 111.333
L291.703 107.877
L291.852 138.389
L292.298 263.348
L292.373 261.176
L292.522 212.249
L292.745 147.227
L292.819 144.857
L292.894 132.613
L292.968 134.242
L293.191 207.953
L293.266 204.942
L293.34 199.363
L293.414 199.461
L293.489 201.041
L293.563 200.646
L293.712 238.07
L293.786 253.128
L293.861 248.932
L294.084 217.828
L294.456 167.617
L294.679 126.54
L294.754 125.602
L294.828 125.898
L295.349 209.632
L295.572 267.002
L295.795 219.901
L295.87 220.938
L295.944 222.666
L296.093 201.881
L296.39 149.991
L296.465 147.227
L296.688 178.084
L296.762 176.158
L296.911 166.926
L297.209 205.781
L297.283 198.375
L297.506 158.631
L297.655 168.16
L298.027 233.133
L298.25 270.655
L298.697 194.228
L298.846 177.343
L299.143 126.688
L299.218 130.292
L299.366 120.714
L299.515 165.543
L299.738 236.737
L299.887 230.319
L299.962 231.454
L300.185 261.028
L301.003 111.926
L301.078 112.765
L301.152 112.123
L301.673 208.052
L301.896 241.131
L301.97 237.379
L302.119 221.037
L302.194 222.617
L302.268 221.679
L302.566 188.254
L302.714 199.906
L302.863 210.274
L303.086 219.654
L303.161 217.285
L303.384 175.368
L303.458 176.899
L303.533 181.885
L303.607 179.022
L303.905 138.735
L304.054 155.175
L304.277 185.489
L304.723 214.224
L305.021 240.736
L305.17 220.197
L305.467 179.812
L305.616 172.406
L305.69 174.924
L305.988 193.191
L306.137 199.313
L306.36 178.627
L306.583 151.917
L306.658 153.793
L306.732 157.298
L306.881 149.596
L306.955 150.041
L307.178 197.783
L307.402 240.045
L307.625 203.954
L307.699 203.658
L307.848 184.304
L307.922 174.677
L307.997 180.602
L308.22 223.209
L308.369 230.812
L308.443 228.443
L308.666 204.349
L308.741 209.583
L308.815 201.634
L309.038 149.053
L309.41 217.926
L309.485 214.421
L309.782 164.852
L310.006 101.953
L310.378 188.501
L310.526 204.448
L310.675 224.098
L310.75 220.049
L310.898 192.698
L310.973 200.795
L311.196 257.769
L311.642 208.151
L312.312 144.857
L312.61 190.476
L312.833 220.592
L312.982 231.059
L313.056 221.975
L313.428 131.773
L314.023 196.795
L314.172 215.853
L314.246 215.013
L314.321 216.396
L314.693 268.532
L314.842 236.589
L315.214 147.523
L315.362 171.517
L315.511 187.365
L315.734 163.766
L315.809 165.938
L316.032 205.435
L316.255 182.576
L316.33 184.058
L316.478 188.452
L316.702 140.66
L316.776 141.944
L317.148 216.988
L317.222 219.753
L317.52 282.8
L317.669 247.154
L318.041 134.094
L318.264 118.887
L318.413 152.509
L318.562 184.354
L318.636 182.626
L318.859 163.223
L319.082 202.72
L319.157 199.906
L319.38 185.193
L319.529 202.769
L319.901 251.696
L319.975 259.398
L320.05 259.25
L320.719 158.829
L320.942 190.97
L321.24 152.361
L321.463 138.932
L321.612 119.332
L321.686 124.713
L321.984 180.602
L322.207 196.252
L322.43 275.197
L322.505 274.21
L322.728 228.788
L322.802 230.565
L323.026 260.534
L323.323 214.816
L323.398 215.162
L323.546 177.787
L323.77 132.958
L323.993 108.569
L324.439 178.577
L324.737 243.896
L325.034 198.079
L325.109 198.77
L325.406 161.051
L325.481 164.013
L325.63 196.203
L325.853 254.165
L326.299 159.816
L326.448 130.243
L326.522 132.662
L326.671 142.141
L326.746 142.487
L327.043 201.634
L327.341 241.723
L327.415 241.131
L327.638 273.124
L327.787 288.33
L327.936 278.16
L328.159 212.841
L328.531 93.3623
L328.606 99.6818
L328.754 125.059
L328.903 122.442
L329.424 176.01
L329.722 210.718
L329.87 231.01
L330.019 225.579
L330.094 233.972
L330.317 288.972
L330.614 188.847
L330.689 195.216
L330.838 212.644
L331.061 176.751
L331.135 183.712
L331.284 216.939
L331.582 124.071
L331.73 87.3883
L331.805 93.7573
L331.954 123.183
L332.028 122.096
L332.102 129.255
L332.326 309.115
L332.4 302.45
L332.623 171.813
L332.921 251.795
L332.995 248.586
L333.144 215.952
L333.293 255.103
L333.367 247.994
L333.665 122.146
L333.814 112.272
L333.962 128.86
L334.037 127.034
L334.111 116.814
L334.186 129.058
L334.409 258.312
L334.483 249.623
L334.632 195.018
L334.706 200.498
L334.855 247.056
L334.93 241.674
L335.078 186.576
L335.227 138.981
L335.45 265.372
L335.599 212.051
L335.748 171.419
L335.897 165.741
L335.971 167.963
L336.046 164.951
L336.194 125.947
L336.343 182.231
L336.492 228.887
L336.641 197.042
L336.715 202.226
L336.938 279.641
L337.013 266.113
L337.236 163.025
L337.31 166.037
L337.385 186.921
L337.459 184.008
L337.682 107.828
L337.757 114.987
L337.98 187.069
L338.203 147.868
L338.501 238.761
L338.65 202.868
L338.724 204.892
L338.873 236.243
L338.947 230.615
L339.17 124.812
L339.245 126.145
L339.468 173.69
L339.617 137.599
L339.766 202.868
L340.063 298.352
L340.286 242.415
L340.361 243.106
L340.435 233.083
L340.658 148.757
L340.733 159.224
L340.956 197.832
L341.03 199.067
L341.254 130.095
L341.328 135.081
L341.402 138.883
L341.477 133.403
L341.626 96.1271
L341.998 250.808
L342.072 243.205
L342.146 229.627
L342.221 237.477
L342.37 276.925
L342.444 263.2
L342.667 159.717
L342.816 177.886
L342.965 184.848
L343.039 181.342
L343.114 192.698
L343.337 286.602
L343.56 159.619
L343.634 161.396
L343.709 166.679
L344.006 123.528
L344.081 118.344
L344.304 169.493
L344.378 158.533
L344.527 123.38
L344.825 238.613
L344.899 236.638
L345.048 206.571
L345.122 215.557
L345.271 270.754
L345.346 257.868
L345.569 152.855
L345.792 219.408
L345.866 225.875
L345.941 218.272
L346.09 181.688
L346.313 226.369
L346.536 148.51
L346.61 167.123
L346.759 194.129
L346.834 193.191
L346.982 159.915
L347.057 136.859
L347.131 139.13
L347.28 181.293
L347.354 174.233
L347.503 131.675
L347.801 228.936
L347.875 222.962
L348.024 195.561
L348.247 269.618
L348.396 185.045
L348.47 136.908
L348.545 145.252
L348.694 179.614
L348.768 177.047
L348.842 179.269
L348.917 174.726
L348.991 181.441
L349.214 282.998
L349.289 273.914
L349.512 144.807
L349.661 163.025
L349.735 155.768
L349.81 159.816
L349.958 144.511
L350.182 253.424
L350.256 248.29
L350.479 107.532
L350.554 128.465
L350.777 168.111
L350.926 148.609
L351.074 192.105
L351.223 224.69
L351.446 174.183
L351.595 218.075
L351.744 213.631
L351.893 215.655
L352.116 292.872
L352.265 243.55
L352.414 205.584
L352.637 243.501
L352.711 240.193
L353.381 106.594
L353.53 92.3749
L353.604 93.6091
L353.753 130.638
L353.976 182.971
L354.199 212.101
L354.348 184.996
L354.422 168.802
L354.497 171.27
L354.794 248.685
L354.943 236.589
L355.018 236.737
L355.241 214.224
L355.315 215.112
L355.39 210.373
L355.538 189.044
L355.613 191.661
L355.687 193.29
L356.059 117.604
L356.134 114.592
L356.357 149.004
L356.803 289.614
L356.878 284.479
L356.952 275.345
L357.101 207.953
L357.25 132.711
L357.324 134.094
L357.473 174.776
L357.622 255.251
L357.696 253.424
L357.919 206.275
L357.994 209.681
L358.142 166.975
L358.291 121.06
L358.366 121.307
L358.738 198.128
L358.961 271.889
L359.035 262.657
L359.63 132.366
L359.705 131.823
L360.151 178.874
L360.226 181.194
L360.523 222.617
L360.598 220.395
L360.672 221.086
L360.821 226.616
L360.895 223.703
L361.342 153.25
L361.416 153.595
L361.788 174.677
L361.862 176.751
L362.086 161.248
L362.234 188.55
L362.532 236.638
L362.606 242.316
L362.904 308.375
L363.797 109.161
L363.946 99.435
L364.02 105.804
L364.318 157.298
L364.392 165.543
L364.764 250.561
L364.838 253.721
L365.359 169.789
L365.508 142.487
L365.657 145.054
L366.475 242.958
L366.55 237.774
L366.698 213.878
L366.847 231.158
L367.294 179.96
L367.666 169.098
L367.963 190.427
L368.038 198.77
L368.112 195.66
L368.261 171.122
L368.484 221.777
L368.558 212.594
L368.93 174.035
L369.079 163.667
L369.228 176.751
L369.451 200.4
L369.6 189.242
L369.674 191.661
L369.898 234.565
L370.046 230.22
L370.121 230.072
L370.642 176.208
L370.865 135.97
L371.088 114.444
L371.832 217.482
L371.906 214.816
L371.981 207.756
L372.055 212.101
L372.204 260.781
L372.278 251.351
L372.427 203.658
L372.65 232.738
L373.022 189.488
L373.097 191.513
L373.171 198.77
L373.246 198.523
L373.32 188.155
L373.543 130.539
L373.915 159.026
L374.138 174.134
L374.287 195.512
L374.436 246.809
L374.51 242.267
L374.659 188.106
L374.882 240.193
L375.031 202.72
L375.106 202.868
L375.18 204.004
L375.403 166.728
L375.478 169.246
L375.552 170.629
L375.775 146.338
L375.998 160.754
L376.073 158.335
L376.147 169.987
L376.37 231.8
L376.594 210.027
L376.742 214.075
L376.891 203.016
L376.966 208.25
L377.04 208.151
L377.189 197.24
L377.338 236.243
L377.486 264.237
L377.933 168.901
L378.156 80.0814
L378.751 190.427
L378.826 197.24
L378.974 225.036
L379.049 219.556
L379.272 169.542
L379.495 215.112
L379.57 208.447
L379.644 217.038
L379.793 267.15
L379.867 261.916
L380.016 206.522
L380.09 213.829
L380.165 219.654
L380.239 208.891
L380.611 106.1
L380.686 113.654
L380.834 173.196
L380.983 159.224
L381.206 205.633
L381.355 176.553
L381.504 203.411
L381.578 203.066
L381.802 166.679
L382.322 274.654
L382.397 272.383
L383.141 137.846
L383.215 132.81
L383.29 135.081
L383.587 152.114
L383.736 173.788
L383.959 138.438
L384.182 165.691
L384.257 168.95
L384.778 272.235
L384.852 262.756
L385.001 239.995
L385.15 223.555
L385.373 173.147
L385.447 174.331
L385.596 200.498
L385.67 192.549
L385.819 151.769
L385.894 168.456
L386.042 243.945
L386.117 227.998
L386.34 143.573
L386.638 179.96
L386.786 172.357
L386.861 174.134
L387.01 191.167
L387.084 188.205
L387.233 165.642
L387.456 197.733
L387.53 194.919
L387.605 191.414
L387.828 225.48
L387.977 197.289
L388.2 156.805
L388.274 161.149
L388.572 227.504
L388.795 216.445
L388.944 187.909
L389.018 188.501
L389.167 204.497
L389.242 202.967
L389.316 206.324
L389.465 240.292
L389.539 237.083
L389.837 157.792
L389.911 170.184
L390.06 205.139
L390.134 202.226
L390.432 132.316
L390.506 135.674
L390.581 147.375
L390.655 142.339
L390.73 126.244
L390.804 131.724
L391.027 248.339
L391.102 230.812
L391.25 172.06
L391.399 206.077
L391.474 203.609
L391.548 192.056
L391.622 194.475
L391.771 205.139
L391.846 200.005
L391.92 202.769
L392.218 225.283
L392.292 221.333
L392.441 193.833
L392.515 201.14
L392.664 243.056
L393.334 135.97
L393.482 112.173
L393.706 212.742
L393.78 194.821
L393.929 151.522
L394.078 175.911
L394.152 173.591
L394.301 181.688
L394.524 168.16
L394.673 190.871
L394.97 239.6
L395.119 224.987
L395.194 231.207
L395.342 277.123
L395.417 267.594
L395.64 156.41
L395.714 165.543
L395.938 226.715
L396.161 160.112
L396.31 200.103
L396.83 128.268
L396.905 127.725
L397.426 217.383
L397.649 283.59
L398.095 177.639
L398.17 176.948
L398.244 172.505
L398.467 133.995
L398.542 142.24
L398.616 151.917
L398.69 149.991
L398.765 148.411
L398.914 181.441
L399.137 220.79
L399.36 230.516
L399.509 226.517
L399.583 227.85
L399.881 247.204
L399.955 240.489
L400.253 154.188
L400.327 160.112
L400.402 170.678
L400.476 170.579
L400.625 145.301
L400.699 149.744
L400.848 170.135
L400.997 160.754
L401.22 213.631
L401.294 207.904
L401.518 184.946
L401.741 160.804
L401.89 181.935
L402.187 221.382
L402.336 230.417
L402.41 225.925
L402.708 158.533
L403.006 202.671
L403.303 197.733
L403.378 198.721
L403.452 195.561
L403.601 171.221
L403.824 204.892
L404.047 161.001
L404.122 175.368
L404.345 216.149
L404.568 227.307
L404.642 225.085
L404.94 202.374
L405.014 202.769
L405.089 197.339
L405.312 142.191
L405.535 179.713
L405.684 147.029
L405.758 159.125
L405.982 221.333
L406.205 125.059
L406.279 129.354
L406.502 204.448
L406.651 161.051
L406.8 204.201
L407.023 248.685
L407.172 227.011
L407.395 188.649
L407.544 197.882
L407.618 195.709
L407.767 176.158
L407.842 178.232
L407.99 202.325
L408.065 195.018
L408.362 129.453
L408.66 194.376
L408.734 183.663
L408.809 183.12
L409.106 262.114
L409.255 271.248
L409.776 194.277
L409.999 147.227
L410.148 166.58
L410.222 178.775
L410.297 177.541
L410.669 125.157
L410.818 157.002
L410.966 189.637
L411.19 171.172
L411.264 173.541
L411.636 208.101
L411.71 207.558
L411.859 204.448
L411.934 203.362
L412.008 205.88
L412.231 234.367
L412.454 199.412
L412.529 201.436
L412.678 209.336
L412.901 158.286
L413.124 218.321
L413.198 204.201
L413.347 151.769
L413.422 158.483
L413.57 193.685
L413.794 171.715
L414.017 226.023
L414.091 218.766
L414.538 155.373
L414.686 174.035
L414.984 203.609
L415.058 203.905
L415.133 202.226
L415.207 203.263
L415.43 264.879
L415.505 264.089
L415.802 186.971
L416.026 160.409
L416.1 165.247
L416.249 177.541
L416.398 145.054
L416.472 149.251
L416.621 167.518
L416.77 142.339
L416.918 182.774
L417.067 216.396
L417.142 213.335
L417.29 198.03
L417.439 235.009
L417.514 256.732
L417.588 254.56
L418.034 134.834
L418.109 141.055
L418.258 171.764
L418.406 145.597
L418.555 183.317
L418.778 250.265
L418.853 249.327
L419.076 211.113
L419.225 223.703
L419.522 192.599
L419.597 185.983
L419.746 146.585
L419.82 150.288
L419.969 193.932
L420.043 191.266
L420.192 169.542
L420.266 172.208
L420.49 212.298
L420.713 169.74
L420.862 203.461
L420.936 195.364
L421.085 157.249
L421.159 162.532
L421.457 217.235
L421.606 206.719
L421.754 217.778
L421.978 246.512
L422.052 238.613
L422.35 129.354
L422.647 177.837
L422.87 148.658
L423.019 179.861
L423.242 237.675
L423.317 230.664
L423.54 172.505
L423.614 175.664
L423.838 198.721
L424.135 181.984
L424.21 181.49
L424.284 188.254
L424.507 247.796
L424.582 239.205
L424.805 156.706
L424.954 207.756
L425.102 250.512
L425.474 150.732
L425.549 153.052
L425.772 204.004
L425.846 203.806
L426.07 144.067
L426.144 148.56
L426.293 158.878
L426.516 120.27
L427.186 287.491
L427.26 299.685
L427.334 295.291
L427.93 136.069
L428.004 117.554
L428.078 122.985
L428.302 181.589
L428.525 124.565
L428.599 126.589
L428.971 198.721
L429.194 209.829
L429.269 207.262
L429.343 207.509
L429.492 210.866
L429.566 210.718
L429.641 211.261
L429.864 232.491
L429.938 231.997
L430.087 227.949
L430.236 231.997
L430.31 223.802
L430.608 129.206
L430.682 131.773
L431.203 225.48
L431.278 219.457
L431.575 180.157
L431.724 191.068
L431.798 185.884
L432.022 148.066
L432.17 165.247
L432.319 188.452
L432.468 164.852
L432.542 167.716
L432.84 244.093
L432.989 210.669
L433.138 177.985
L433.212 179.022
L433.361 186.477
L433.51 174.677
L433.584 177.294
L433.658 178.775
L433.733 172.258
L433.807 174.134
L434.179 277.616
L434.254 275.79
L434.328 261.966
L434.7 87.2402
L434.774 99.1881
L435.295 205.83
L435.444 222.024
L435.667 270.606
L435.742 267.298
L436.262 153.892
L436.411 151.226
L436.56 156.163
L436.634 163.371
L437.006 247.796
L437.081 246.117
L437.23 218.618
L437.453 147.424
L437.602 172.554
L437.75 184.453
L437.899 166.481
L437.974 169.147
L438.271 229.232
L438.494 165.988
L438.569 173.788
L438.718 203.066
L438.866 163.47
L439.015 127.922
L439.09 140.759
L439.313 219.309
L439.536 148.658
L439.834 239.452
L439.908 229.529
L440.057 198.721
L440.131 201.831
L440.354 238.514
L440.503 210.866
L440.726 170.48
L440.801 170.579
L441.024 211.706
L441.098 210.274
L441.322 167.765
L441.545 231.01
L441.619 227.258
L441.991 130.193
L442.214 223.407
L442.289 211.459
L442.586 127.774
L442.735 172.653
L442.884 211.656
L443.107 184.996
L443.256 201.486
L443.479 250.857
L443.554 235.256
L443.777 135.92
L444.149 236.095
L444.223 233.182
L444.446 189.192
L444.521 193.784
L444.744 241.872
L444.818 238.416
L445.265 144.955
L445.339 149.596
L445.414 150.633
L445.488 147.671
L445.637 132.761
L445.711 135.279
L445.86 144.857
L446.009 141.006
L446.083 146.437
L446.53 243.353
L446.678 230.664
L446.902 245.525
L447.125 203.066
L447.348 222.814
L447.571 179.762
L447.646 187.069
L447.869 238.267
L448.018 190.575
L448.166 143.82
L448.241 144.412
L448.464 211.952
L448.762 123.035
L449.059 211.903
L449.134 210.866
L449.282 190.476
L449.357 192.599
L449.58 217.433
L449.654 218.469
L449.803 185.687
L449.878 158.928
L449.878 158.928" style="fill:none;stroke:#808080;stroke-linecap:square;"/>
   </g>
  </g>
 </g>
 <defs>
  <clipPath id="p7ff5b81e1d">
   <rect height="345.6" width="446.4" x="72.0" y="43.2"/>
  </clipPath>
 </defs>
</svg>
