<?xml version="1.0" encoding="utf-8" standalone="no"?>
<!DOCTYPE svg PUBLIC "-//W3C//DTD SVG 1.1//EN"
  "http://www.w3.org/Graphics/SVG/1.1/DTD/svg11.dtd">
<!-- Created with matplotlib (http://matplotlib.org/) -->
<svg height="432pt" version="1.1" viewBox="0 0 576 432" width="576pt" xmlns="http://www.w3.org/2000/svg" xmlns:xlink="http://www.w3.org/1999/xlink">
 <defs>
  <style type="text/css">
*{stroke-linecap:butt;stroke-linejoin:round;}
  </style>
 </defs>
 <g id="figure_1">
  <g id="patch_1">
   <path d="
M0 432
L576 432
L576 0
L0 0
z
" style="fill:#ffffff;"/>
  </g>
  <g id="axes_1">
   <g id="line2d_1">
    <path clip-path="url(#p7ff5b81e1d)" d="
M72 202.167
L72.1488 216.769
L72.2232 214.367
L72.4464 196.367
L72.5952 208.244
L73.1904 300.692
L73.3392 306.988
L73.488 292.029
L73.7856 205.479
L74.0088 154.117
L74.0832 150.967
L74.232 156.963
L74.5296 171.207
L74.7528 177.854
L74.8272 175.746
L75.1248 151.232
L75.2736 186.074
L75.6456 336.686
L75.72 327.205
L75.9432 260.28
L76.0176 261.156
L76.092 265.476
L76.1664 261.881
L76.9104 130.139
L76.9848 127.189
L77.1336 145.691
L77.3568 191.269
L77.7288 295.134
L77.8032 301.902
L77.8776 299.845
L78.1008 273.482
L78.5472 207.541
L78.7704 200.313
L78.8448 201.252
L79.068 208.67
L79.1424 208.434
L79.2168 206.677
L79.2912 207.328
L79.5888 218.053
L79.6632 216.256
L80.184 174.335
L80.556 191.655
L80.6304 190.642
L80.7792 191.949
L80.928 203.924
L81.3744 261.818
L81.5232 267.169
L81.672 261.386
L82.044 225.467
L82.1928 243.772
L82.416 272.578
L82.4904 268.574
L82.7136 227.627
L83.16 152.902
L83.2344 151.226
L83.3088 151.756
L83.904 176.34
L84.1272 147.58
L84.276 183.2
L84.7224 328.427
L84.9456 362.733
L85.0944 332.205
L85.392 240.575
L85.5408 214.517
L85.9128 118.82
L85.9872 119.506
L86.3592 156.375
L86.508 165.217
L86.6568 152.654
L87.1032 280.146
L87.1776 280.014
L87.3264 266.363
L87.6984 224.706
L87.8472 219.43
L87.996 228.185
L88.1448 234.147
L88.368 217.097
L88.9632 139.285
L89.112 168.644
L89.6328 328.248
L89.7072 333.058
L89.7816 331.232
L90.228 216.262
L90.5256 83.9607
L90.6 81.6739
L90.8232 133.191
L91.1208 210.157
L91.1952 198.199
L91.344 129.845
L91.4184 130.807
L91.716 346.098
L91.7904 325.593
L92.0136 269.029
L92.1624 293.688
L92.2368 293.613
L92.832 174.013
L93.0552 132.068
L93.1296 130.185
L93.2784 149.262
L93.7992 264.151
L94.0224 253.022
L94.2456 225.075
L94.6176 158.743
L94.7664 171.651
L95.2128 234.539
L95.5104 272.393
L95.5848 274.513
L95.7336 264.686
L96.1056 218.238
L96.4032 205.128
L96.4776 205.929
L96.6264 211.579
L96.7008 211.395
L96.8496 203.867
L97.2216 154.573
L97.3704 138.721
L97.4448 148.674
L97.8912 307.915
L98.04 283.689
L98.4864 183.712
L98.5608 184.294
L98.7096 192.963
L98.9328 226.112
L99.0816 239.371
L99.2304 228.825
L99.528 206.487
L99.7512 201.223
L99.8256 202.15
L99.9744 209.102
L100.049 209.097
L100.272 185.907
L100.346 189.017
L100.495 218.503
L100.718 258.604
L100.867 232.488
L101.09 185.25
L101.239 186.898
L101.388 200.785
L101.76 249.06
L102.132 222.558
L102.43 227.16
L102.578 239.412
L102.653 237.925
L102.876 202.605
L103.174 158.835
L103.248 160.978
L103.397 186.287
L103.694 257.077
L103.769 260.401
L103.918 253.65
L104.066 243.259
L104.662 164.347
L104.736 167.619
L105.331 245.667
L105.48 250.108
L105.554 250.137
L105.703 244.388
L105.852 240.201
L105.926 240.103
L106.001 238.761
L106.15 226.509
L106.596 176.04
L106.67 177.543
L106.819 191.316
L107.34 266.898
L107.414 266.743
L107.489 263.102
L107.638 238.576
L108.01 149.256
L108.084 151.232
L108.382 178.327
L108.456 176.357
L108.679 146.762
L108.754 153.202
L108.902 203.314
L109.274 358.235
L109.349 359.963
L109.498 331.399
L110.39 89.4903
L110.465 93.8851
L110.837 167.573
L111.506 305.467
L111.655 321.244
L111.73 320
L112.027 293.043
L112.176 239.688
L112.474 96.1085
L112.548 96.1949
L112.697 114.114
L112.771 113.262
L112.846 116.47
L112.994 140.391
L113.813 329.262
L113.962 320.259
L114.631 207.553
L115.078 53.9799
L115.152 56.3299
L115.375 96.385
L116.119 330.293
L116.194 332.58
L116.268 331.318
L116.491 306.965
L117.533 115.134
L117.607 117.847
L117.83 152.257
L118.426 263.569
L118.723 287.778
L118.872 284.103
L119.17 252.7
L119.914 150.46
L119.988 148.144
L120.732 209.097
L121.104 280.29
L121.178 277.888
L121.55 247.798
L121.774 234.93
L121.922 240.391
L121.997 234.446
L122.443 156.894
L122.592 155.817
L122.964 167.826
L123.038 174.502
L123.559 322.955
L123.634 318.018
L123.857 254.843
L124.154 183.344
L124.229 182.946
L124.452 190.48
L124.601 191.137
L124.75 194.103
L124.898 186.748
L125.047 175.856
L125.122 175.982
L125.27 182.301
L125.494 211.118
L125.642 226.843
L125.717 227.102
L125.866 222.719
L126.014 216.066
L126.163 231.803
L126.461 274.525
L126.61 261.743
L126.982 215.686
L127.056 214.24
L127.428 238.766
L127.502 238.559
L127.651 229.764
L127.874 199.466
L128.246 147.534
L128.47 153.714
L128.544 152.297
L128.618 152.666
L128.693 154.198
L128.99 189.161
L129.214 251.294
L129.511 328.473
L129.586 326.543
L129.883 277.623
L130.553 171.23
L130.776 157.631
L130.85 156.974
L130.925 157.234
L130.999 158.806
L131.222 180.804
L131.52 209.408
L131.594 210.295
L131.669 212.777
L132.19 255.171
L132.264 253.979
L132.562 220.64
L132.636 221.268
L132.859 240.725
L133.082 255.724
L133.231 236.86
L133.752 118.538
L133.826 120.617
L133.975 148.588
L134.496 331.693
L134.57 330.333
L134.719 313.618
L135.017 220.634
L135.314 154.002
L135.612 135.363
L135.686 134.142
L135.761 134.787
L135.91 152.09
L136.505 252.66
L136.728 268.304
L136.802 267.267
L136.951 260.597
L137.249 229.614
L137.323 230.126
L137.546 245.056
L137.993 186.368
L138.067 189.565
L138.514 222.178
L138.588 222.575
L138.737 217.005
L139.109 187.307
L139.183 187.957
L139.481 214.114
L139.555 212.005
L139.778 198.412
L139.853 200.169
L140.225 225.853
L140.299 225.029
L140.374 226.336
L140.671 246.698
L140.746 246.427
L140.82 245.753
L140.894 246.116
L141.118 258.494
L141.266 247.775
L141.936 164.756
L142.01 167.642
L143.126 252.274
L143.201 251.726
L143.275 251.427
L143.35 249.503
L143.424 240.788
L143.796 120.986
L143.945 159.232
L144.391 344.981
L144.614 310.651
L145.433 120.623
L145.582 109.823
L145.73 131.049
L146.102 224.701
L146.4 184.306
L146.474 187.577
L146.623 217.794
L146.995 321.595
L147.07 315.668
L147.516 225.104
L147.814 209.989
L147.888 209.667
L148.037 212.869
L148.111 211.297
L148.632 188.182
L148.781 188.263
L148.93 187.744
L149.004 186.846
L149.078 187.491
L149.302 194.777
L149.525 212.351
L149.897 235.454
L150.12 241.629
L150.418 219.413
L150.492 220.882
L150.79 233.876
L150.864 232.776
L150.938 232.154
L151.013 232.304
L151.087 233.801
L151.162 232.2
L151.534 197.197
L151.608 198.815
L151.906 209.915
L152.054 208.043
L152.129 208.791
L152.203 210.629
L152.724 244.014
L152.873 233.496
L153.617 166.035
L153.766 172.705
L153.914 189.277
L154.435 267.854
L154.584 255.563
L154.956 211.418
L155.03 207
L155.105 207.864
L155.328 217.247
L155.923 170.862
L155.998 175.435
L156.444 270.118
L156.816 245.517
L157.188 205.047
L157.337 177.797
L157.411 178.286
L157.634 210.157
L157.709 207.017
L157.932 179.819
L158.155 209.385
L158.304 186.011
L158.378 188.125
L158.602 237.419
L158.75 253.858
L158.899 246.018
L158.974 250.045
L159.197 277.906
L159.271 266.023
L159.494 179.905
L159.718 167.561
L159.792 169.047
L160.09 203.083
L160.164 203.273
L160.313 197.842
L160.759 230.478
L160.834 230.691
L160.908 230.437
L160.982 229.66
L161.206 218.894
L161.354 220.432
L161.652 211.764
L161.875 222.155
L162.024 238.933
L162.247 264.692
L162.396 246.997
L162.694 202.478
L163.289 166.548
L163.363 166.467
L163.512 185.821
L163.958 263.845
L164.033 267.232
L164.107 267.134
L164.33 245.339
L164.851 197.934
L164.926 199.097
L165 198.452
L165.149 185.435
L165.372 155.195
L165.446 158.524
L165.67 200.318
L165.967 250.799
L166.042 247.383
L166.116 247.481
L166.19 252.729
L166.488 314.971
L167.009 174.98
L167.083 174.727
L167.306 162.02
L167.53 185.095
L167.753 247.856
L167.827 245.373
L167.902 236.704
L167.976 239.423
L168.05 253.282
L168.125 249.538
L168.348 165.707
L168.422 200.497
L168.497 183.943
L168.646 148.023
L168.794 192.099
L169.166 312.644
L169.315 298.129
L169.464 255.637
L169.762 133.525
L169.91 115.837
L169.985 120.076
L170.654 289.886
L170.729 291.102
L171.026 250.569
L171.398 172.613
L171.622 156.969
L171.696 156.606
L171.845 182.284
L172.068 267.503
L172.142 260.027
L172.514 186.276
L172.663 195.129
L172.961 221.077
L173.035 219.171
L173.184 259.001
L173.407 326.497
L173.556 252.418
L173.854 134.459
L174.002 124.379
L174.151 143.663
L174.374 171.265
L174.598 208.158
L174.672 213.319
L175.044 299.339
L175.118 311.93
L175.193 309.96
L175.565 268.672
L176.011 153.553
L176.16 120.208
L176.234 123.382
L176.309 129.517
L176.383 129.131
L176.458 123.97
L176.606 155.753
L177.127 283.844
L177.202 298.717
L177.425 251.116
L177.499 260.96
L177.648 322.194
L177.797 271.696
L178.02 209.557
L178.094 227.005
L178.169 222.166
L178.466 159.987
L178.615 150.777
L178.764 163.944
L179.062 194.282
L179.285 174.249
L179.359 175.879
L179.806 245.154
L179.954 242.724
L180.103 253.472
L180.401 231.088
L180.624 269.525
L180.698 274.628
L180.847 264.715
L181.294 178.016
L181.368 185.314
L181.74 214.724
L181.814 214.684
L181.963 212.558
L182.633 152.361
L182.782 176.53
L183.079 260.839
L183.154 257.556
L183.526 223.197
L183.674 217.253
L183.749 218.802
L183.972 235.581
L184.121 246.692
L184.195 245.684
L184.567 219.943
L184.79 232.649
L184.865 231.065
L185.014 214.189
L185.311 179.911
L185.386 177.745
L185.46 177.78
L185.683 193.821
L186.13 232.885
L186.278 235.881
L186.799 227.851
L186.948 222.016
L187.171 227.091
L187.32 217.253
L187.618 191.304
L187.692 191.834
L188.362 215.496
L188.957 231.826
L189.031 231.037
L189.18 223.433
L189.478 208.221
L189.552 207.432
L189.626 207.939
L189.701 207.818
L189.924 203.291
L190.073 210.145
L190.296 220.893
L190.668 226.221
L190.742 225.317
L191.04 216.205
L191.486 221.97
L191.858 220.323
L192.082 212.772
L192.751 192.122
L192.826 193.429
L193.049 207.547
L193.57 253.777
L193.644 254.71
L193.718 253.362
L193.867 242.925
L194.388 197.773
L194.537 194.737
L195.058 200.134
L195.43 212.011
L195.578 214.131
L195.727 218.964
L196.099 232.609
L196.248 231.584
L196.397 227.701
L196.694 218.549
L196.769 218.462
L196.918 220.213
L196.992 220.133
L197.141 217.742
L197.885 197.64
L198.034 202.916
L198.331 213.071
L198.852 227.275
L198.926 227.863
L199.001 227.229
L199.298 220.726
L199.447 219.643
L199.968 212.605
L200.34 224.044
L200.563 234.193
L200.712 218.174
L201.01 183.707
L201.084 184.363
L201.828 232.92
L202.126 250.344
L202.2 249.693
L202.349 239.458
L203.018 182.491
L203.093 178.822
L203.167 179.294
L203.316 190.221
L203.837 235.886
L203.986 239.389
L204.134 233.467
L204.581 211.919
L204.655 210.542
L204.73 210.675
L205.027 218.065
L205.176 215.974
L205.325 213.647
L205.399 214.142
L205.548 215.87
L205.697 211.372
L205.846 206.626
L205.92 207.697
L206.292 224.418
L206.515 213.975
L206.813 204.944
L206.887 206.476
L207.408 236.762
L207.482 234.907
L208.152 200.514
L208.301 203.7
L208.747 218.244
L208.822 219.476
L208.896 219.338
L209.119 206.153
L209.268 199.31
L209.342 200.203
L209.491 211.297
L209.863 243.478
L209.938 244.135
L210.012 244.031
L210.161 236.687
L210.533 219.799
L211.054 204.575
L211.351 194.864
L211.426 195.123
L211.723 187.416
L211.872 194.011
L212.542 244.031
L212.616 242.28
L212.765 237.983
L212.914 238.663
L213.062 236.244
L213.211 229.389
L213.583 193.741
L213.658 194.103
L214.253 230.639
L214.327 232.667
L214.402 232.258
L214.55 226.158
L215.146 193.752
L215.294 199.38
L215.741 227.563
L215.815 227.258
L216.187 221.918
L216.336 217.316
L216.559 208.359
L216.708 215.997
L216.857 223.606
L216.931 223.197
L217.675 203.596
L217.898 206.171
L217.973 206.194
L218.047 208.106
L218.494 237.24
L218.568 236.238
L218.717 225.593
L219.014 198.694
L219.089 198.723
L219.238 200.336
L219.386 213.06
L219.61 228.652
L219.758 229.654
L219.833 228.773
L220.279 215.179
L220.354 215.156
L220.428 215.899
L220.651 223.813
L220.726 223.549
L220.874 221.141
L220.949 221.861
L221.098 224.937
L221.172 222.627
L221.544 182.249
L221.618 183.891
L221.916 208.987
L222.288 235.547
L222.362 237.177
L222.66 233.26
L222.883 221.377
L223.33 186.788
L223.404 190.192
L223.702 218.025
L223.999 243.34
L224.074 243.697
L224.148 242.418
L224.594 217.213
L224.818 208.054
L225.19 201.205
L225.264 201.223
L225.338 201.338
L225.487 204.414
L225.71 215.801
L225.785 215.012
L225.934 212.979
L226.082 216.026
L226.454 224.418
L226.529 225.213
L226.603 224.983
L226.901 219.856
L227.57 207.495
L227.719 203.538
L227.868 212.397
L228.017 223.007
L228.314 201.73
L228.389 204.926
L228.538 220.968
L228.761 251.559
L228.984 241.462
L229.133 227.275
L229.43 172.48
L229.505 175.136
L230.174 251.836
L230.323 226.93
L230.621 190.878
L230.695 194.299
L231.067 237.188
L231.142 241.981
L231.216 240.84
L231.514 210.519
L231.662 212.414
L231.886 196.724
L232.109 179.191
L232.258 200.629
L232.63 260.908
L232.853 243.04
L233.374 201.718
L233.448 203.106
L233.671 199.84
L233.746 199.881
L233.82 200.048
L234.415 212.092
L234.638 218.365
L235.01 204.719
L235.085 205.082
L235.234 209.339
L235.903 260.533
L235.978 261
L236.126 254.048
L236.35 202.484
L236.573 146.543
L236.647 148.012
L237.019 188.015
L237.168 194.725
L237.466 232.402
L237.763 276.581
L237.838 277.456
L237.986 267.474
L238.284 220.162
L238.656 170.626
L238.73 172.192
L239.028 191.667
L239.102 192.185
L239.177 191.903
L239.251 192.825
L239.474 209.966
L239.772 227.022
L239.995 238.346
L240.293 253.915
L240.442 247.654
L240.962 212.829
L241.334 193.493
L241.706 183.563
L241.781 184.018
L241.93 190.181
L242.376 232.344
L242.599 246.157
L242.674 246.036
L242.822 240.437
L243.269 214.275
L243.343 213.831
L243.641 214.978
L243.715 214.286
L243.938 209.782
L244.162 211.977
L244.608 204.731
L244.682 204.362
L244.757 204.391
L244.98 209.442
L245.203 216.343
L245.724 240.638
L245.798 239.982
L246.022 228.733
L246.617 194.461
L246.691 193.787
L246.766 194.184
L246.914 200.393
L247.286 221.982
L247.361 222.034
L247.584 218.094
L247.882 214.05
L248.03 215.824
L248.7 230.288
L248.849 228.277
L248.998 221.602
L249.37 203.918
L249.444 203.59
L249.593 204.984
L249.816 206.689
L249.965 211.366
L250.262 222.955
L250.411 224.712
L250.634 219.355
L251.304 204.742
L251.378 204.241
L251.602 205.577
L251.899 212.708
L252.048 216.613
L252.122 216.469
L252.197 216.389
L252.271 215.427
L252.346 215.761
L252.569 222.892
L252.866 233.928
L253.09 235.933
L253.462 246.629
L253.536 245.667
L253.908 202.455
L254.206 181.333
L254.28 181.933
L254.429 189.225
L254.875 218.635
L254.95 217.61
L255.247 202.427
L255.322 202.726
L255.545 206.125
L255.694 202.242
L255.842 196.183
L255.991 206.222
L256.289 229.527
L256.735 241.076
L256.81 239.913
L257.182 225.173
L257.256 225.081
L257.405 228.606
L257.702 249.267
L257.851 247.988
L257.926 245.46
L258.298 199.357
L258.595 163.57
L258.818 159.849
L259.042 160.966
L259.19 157.297
L259.339 169.704
L259.562 209.413
L260.009 302.345
L260.083 304.263
L260.232 294.166
L261.05 187.514
L261.199 181.996
L261.274 181.691
L261.422 182.595
L261.497 181.535
L261.72 175.159
L261.869 186.091
L262.39 263.195
L262.464 262.78
L262.613 257.008
L262.836 230.011
L263.134 193.712
L263.357 187.537
L263.431 187.756
L263.58 186.708
L263.654 186.915
L263.803 192.802
L264.175 231.388
L264.547 261.68
L264.622 261.968
L264.77 253.166
L265.589 170.891
L265.663 171.277
L265.812 175.527
L266.035 194.524
L266.407 226.584
L266.854 235.431
L267.002 236.595
L267.077 236.244
L267.226 235.362
L267.374 232.816
L267.821 218.226
L267.97 221.342
L268.267 229.942
L268.49 217.61
L269.086 175.159
L269.309 186.575
L270.127 252.723
L270.276 258.581
L270.499 239.619
L270.722 223.831
L270.871 218.491
L271.02 200.065
L271.318 156.162
L271.392 159.82
L271.987 252.982
L272.062 252.585
L272.508 247.879
L272.657 235.345
L273.178 170.77
L273.252 170.061
L273.55 202.519
L273.624 198.026
L273.773 190.359
L274.145 210.139
L274.219 210.007
L274.294 211.66
L274.517 230.224
L275.112 306.199
L275.261 277.232
L275.633 169.727
L276.228 115.554
L276.302 121.084
L276.526 177.273
L276.972 300.047
L277.27 342.193
L277.344 346.53
L277.493 324.262
L278.237 135.593
L278.46 126.988
L278.683 148.68
L278.981 176.363
L279.13 185.429
L279.278 205.111
L279.725 279.997
L279.874 288.544
L279.948 287.502
L280.097 278.868
L280.692 218.094
L281.064 170.453
L281.138 167.602
L281.213 168.322
L281.51 182.843
L282.254 231.872
L282.403 229.717
L282.701 223.439
L283.37 196.453
L283.445 195.687
L283.594 199.345
L283.966 234.089
L284.263 263.534
L284.486 268.436
L284.561 268.004
L284.71 258.5
L284.933 213.595
L285.23 154.607
L285.305 151.18
L285.379 151.572
L285.454 152.683
L285.751 167.999
L286.718 276.685
L287.09 248.737
L287.611 167.774
L287.686 172.002
L288.132 231.532
L288.206 232.649
L288.355 228.704
L288.727 208.077
L288.876 208.958
L288.95 205.883
L289.099 190.659
L289.174 191.154
L289.322 210.542
L289.62 249.947
L289.694 248.317
L289.918 223.693
L290.141 205.197
L290.215 204.84
L290.364 208.261
L290.438 207.887
L290.587 201.718
L290.81 192.681
L290.885 192.963
L291.108 211.85
L291.48 242.533
L291.554 238.444
L291.778 201.482
L291.852 203.538
L292.075 225.115
L292.15 225.109
L292.224 223.036
L292.298 223.197
L292.522 233.853
L292.67 225.069
L292.894 211.625
L293.191 201.925
L293.266 204.051
L293.638 226.613
L293.712 227.327
L293.861 231.1
L293.935 229.838
L294.158 215.352
L294.53 183.367
L294.605 183.401
L294.679 183.839
L294.828 194.057
L295.274 228.853
L295.423 235.092
L295.498 234.855
L295.944 225.824
L296.242 218.434
L296.39 219.897
L296.688 217.639
L296.762 216.913
L296.911 218.67
L297.06 222.143
L297.283 225.945
L297.358 224.672
L297.73 202.899
L297.878 195.365
L297.953 195.993
L298.25 209.373
L298.325 206.677
L298.474 200.088
L298.548 200.278
L298.92 220.893
L299.143 209.362
L299.218 212.207
L299.59 254.336
L299.664 254.261
L299.962 239.769
L300.631 176.109
L300.854 186.339
L301.152 170.125
L301.301 181.184
L302.045 289.961
L302.119 290.503
L302.268 280.296
L302.789 224.718
L303.384 137.051
L303.458 138.905
L303.682 148.525
L303.905 189.507
L304.202 229.159
L304.649 256.582
L305.021 255.286
L305.095 254.756
L305.244 248.541
L305.69 214.914
L306.137 165.649
L306.211 165.874
L306.36 173.615
L306.658 211.13
L307.03 260.896
L307.104 260.343
L307.402 236.773
L307.699 216.164
L307.848 211.879
L308.294 160.909
L308.369 163.305
L308.592 189.184
L309.187 278.775
L309.262 280.82
L309.336 279.046
L309.559 252.205
L310.006 192.819
L310.154 189.046
L310.229 188.361
L310.601 180.763
L310.75 183.695
L311.345 212.985
L311.568 220.357
L311.642 219.373
L311.866 204.074
L311.94 206.902
L312.089 224.821
L312.386 276.788
L312.535 264.456
L312.833 228.358
L312.907 227.817
L312.982 227.932
L313.056 229.66
L313.13 228.041
L313.577 201.655
L313.726 196.845
L313.949 179.796
L314.172 158.76
L314.246 158.322
L314.395 175.988
L314.842 262.302
L314.916 262.273
L315.139 252.372
L315.437 229.28
L316.106 181.564
L316.181 181.915
L316.627 203.02
L316.702 202.548
L316.776 204.771
L316.925 219.73
L317.222 266.04
L317.594 227.563
L318.041 175.723
L318.115 175.764
L318.19 176.507
L318.264 175.614
L318.338 177.578
L318.487 200.399
L318.859 306.51
L318.934 301.735
L319.082 287.404
L319.157 286.69
L319.231 291.136
L319.306 286.569
L319.529 215.168
L319.901 74.7389
L320.198 128.952
L320.868 300.583
L320.942 301.954
L321.017 301.936
L321.166 286.062
L321.612 211.095
L322.058 184.651
L322.356 174.283
L322.43 175.562
L322.654 189.288
L322.877 218.676
L323.249 251.006
L323.323 247.545
L323.695 200.745
L323.77 203.4
L324.142 236.347
L324.365 243.15
L324.439 241.831
L324.588 229.55
L324.886 182.123
L324.96 188.718
L325.258 276.99
L325.332 260.447
L325.555 222.379
L325.704 182.981
L325.927 102.882
L326.002 99.0519
L326.076 105.889
L327.118 339.566
L327.192 332.389
L327.564 194.484
L327.638 199.547
L327.936 252.003
L328.01 250.131
L328.234 228.07
L328.754 137.609
L328.903 145.748
L329.201 187.387
L329.573 261.179
L329.647 260.407
L329.945 231.929
L330.168 245.678
L330.317 223.669
L330.689 152.436
L330.763 153.622
L331.061 220.45
L331.135 215.248
L331.358 201.286
L331.433 203.066
L331.656 234.043
L331.954 312.517
L332.326 271.996
L332.549 224.378
L332.772 186.062
L332.846 185.296
L333.07 201.73
L333.144 199.12
L333.59 122.276
L333.739 137.978
L333.962 177.722
L334.334 245.845
L334.409 243.063
L334.483 245.373
L334.781 295.71
L334.855 292.427
L335.004 267.791
L335.376 201.004
L335.45 201.286
L335.822 224.43
L335.897 222.512
L336.12 206.222
L336.418 185.717
L336.566 197.928
L336.864 219.159
L336.938 219.044
L337.087 223.479
L337.236 230.605
L337.31 230.443
L337.385 230.449
L337.682 252.988
L337.831 230.495
L338.203 160.154
L338.278 158.409
L338.352 161.214
L338.65 211.067
L338.873 244.688
L338.947 244.129
L339.17 215.934
L339.394 200.094
L339.468 200.255
L339.542 202.3
L339.766 229.067
L339.914 244.82
L339.989 241.75
L340.286 201.252
L340.361 203.619
L340.584 242.326
L340.807 272.762
L340.956 276.61
L341.03 274.075
L341.179 248.996
L341.551 168.068
L341.774 151.572
L341.849 149.44
L341.923 151.03
L342.072 166.018
L342.518 222.667
L342.816 240.304
L342.89 240.074
L343.039 229.141
L343.188 219.142
L343.411 221.504
L343.634 211.706
L343.783 215.709
L344.155 232.592
L344.453 239.849
L344.75 227.943
L344.974 241.819
L345.048 237.534
L345.494 180.873
L345.643 177.129
L345.718 177.227
L345.792 177.941
L346.09 207.962
L346.387 232.494
L346.61 235.95
L346.685 236.912
L346.759 236.03
L346.982 223.779
L347.206 208.665
L347.726 198.32
L348.024 214.396
L348.247 226.405
L348.396 227.321
L348.47 226.918
L348.545 226.63
L348.694 228.969
L348.768 228.289
L349.14 216.613
L349.289 217.437
L349.438 214.811
L349.661 211.838
L349.735 211.476
L349.884 213.342
L350.182 206.476
L350.256 207.386
L350.926 233.859
L351 233.623
L351.149 218.082
L351.446 175.021
L351.521 177.301
L351.893 207.15
L352.116 212.864
L352.339 223.929
L352.488 228.059
L352.786 246.721
L353.009 239.648
L353.232 253.241
L353.53 284.772
L353.604 281.229
L353.827 254.146
L353.976 226.722
L354.497 98.8445
L354.571 95.3079
L354.646 97.6579
L355.241 188.585
L355.762 305.767
L355.836 311.031
L355.91 308.595
L356.357 265.844
L356.506 236.284
L356.58 238.605
L356.803 251.127
L356.952 239.769
L357.175 192.646
L357.547 116.85
L357.622 117.109
L357.77 135.386
L357.994 163.161
L358.068 160.027
L358.142 171.323
L358.44 375.578
L358.514 370.584
L359.184 161.496
L359.333 133.353
L359.407 136.106
L359.705 186.88
L360.077 261.397
L360.226 269.375
L360.3 268.765
L360.672 229.47
L360.97 195.515
L361.044 194.374
L361.118 195.388
L361.342 202.455
L361.416 203.049
L361.639 194.501
L361.714 196.966
L362.011 218.117
L362.086 217.84
L362.309 215.001
L362.383 218.105
L362.681 244.089
L362.755 243.979
L362.904 232.534
L363.127 215.358
L363.276 222.713
L363.499 236.14
L363.648 224.349
L363.871 210.116
L363.946 210.289
L364.02 207.593
L364.243 195.474
L364.318 196.661
L364.69 218.013
L364.913 222.085
L364.987 219.021
L365.136 183.459
L365.285 126.084
L365.359 129.805
L365.582 245.379
L365.657 217.973
L365.806 165.983
L365.88 166.605
L366.029 182.647
L366.624 357.088
L366.773 337.988
L367.666 88.776
L367.74 88.8624
L368.707 263.529
L369.005 283.902
L369.079 284.478
L369.154 283.631
L369.302 276.892
L369.6 241.623
L370.121 187.877
L370.195 185.607
L370.27 185.907
L370.344 185.763
L370.418 185.982
L370.567 190.573
L371.162 226.803
L371.237 230.386
L371.311 230.276
L371.386 229.637
L371.609 221.936
L371.981 195.722
L372.204 179.369
L372.353 175.844
L372.427 176.484
L372.576 184.847
L372.799 217.46
L373.097 252.061
L373.246 262.123
L373.469 279.196
L373.543 280.561
L373.618 279.881
L373.766 268.528
L373.99 238.167
L374.51 141.589
L374.659 134.66
L374.808 146.03
L375.478 241.082
L375.552 237.747
L375.775 215.819
L375.85 215.847
L375.998 232.955
L376.37 293.855
L376.445 296.165
L376.594 276.322
L376.966 211.885
L377.114 192.83
L377.338 163.673
L377.412 165.338
L377.635 184.409
L378.007 211.366
L378.082 210.116
L378.23 197.548
L378.528 170.211
L378.602 171.997
L378.826 196.24
L379.421 272.462
L379.495 273.079
L379.644 265.297
L379.942 246.853
L380.09 237.229
L380.314 210.036
L380.611 178.638
L380.686 177.486
L380.909 190.227
L381.058 179.179
L381.281 163.921
L381.43 184.663
L381.727 295.364
L381.876 330.051
L381.95 330.091
L382.099 297.455
L382.62 117.092
L382.694 120.813
L383.438 242.971
L383.81 217.115
L383.885 217.909
L384.257 225.357
L384.48 229.193
L384.629 223.957
L384.703 224.747
L384.926 235.385
L385.15 245.5
L385.298 237.396
L385.894 202.294
L386.191 186.356
L386.34 180.521
L386.414 180.717
L386.638 191.972
L386.786 195.198
L386.935 196.932
L387.382 215.502
L387.902 262.515
L387.977 262.872
L388.051 262.123
L388.2 255.943
L388.795 213.382
L389.242 199.207
L389.465 208.78
L389.539 208.394
L389.614 206.482
L389.911 212.259
L389.986 211.28
L390.06 206.654
L390.432 150.327
L390.506 152.614
L390.655 178.77
L391.027 253.823
L391.399 294.932
L391.548 261.824
L391.846 189.553
L391.92 185.314
L392.069 203.417
L392.366 246.704
L392.441 245.552
L392.664 224.96
L393.036 197.548
L393.185 185.389
L393.482 159.336
L393.631 180.349
L394.003 243.3
L394.078 246.853
L394.152 246.047
L394.301 234.343
L394.598 191.851
L394.673 197.035
L395.045 276.477
L395.119 274.68
L395.268 247.499
L395.714 141.912
L395.789 138.744
L395.863 142.609
L396.086 193.268
L396.458 267.031
L396.607 274.167
L396.756 270.637
L397.054 251.963
L397.5 188.476
L397.574 189.38
L397.946 209.811
L398.17 224.942
L398.244 225.916
L398.765 185.302
L399.062 158.651
L399.137 155.673
L399.286 162.775
L400.104 278.107
L400.178 279.605
L400.253 277.9
L400.476 256.381
L401.294 177.705
L401.369 175.671
L401.443 176.167
L401.592 194.558
L402.038 263.771
L402.113 266.236
L402.187 262.958
L402.485 219.684
L403.006 138.462
L403.08 134.245
L403.154 134.96
L403.229 137.886
L403.378 158.881
L404.047 304.315
L404.196 298.129
L404.419 268.793
L405.163 166.91
L405.386 156.387
L405.461 156.761
L405.61 168.327
L406.279 246.98
L406.726 234.556
L406.949 242.937
L407.023 241.474
L407.172 234.297
L407.47 208.313
L407.544 207.726
L407.618 209.483
L407.99 236.157
L408.214 196.286
L408.437 165.839
L408.586 170.701
L408.809 194.662
L409.255 244.555
L409.33 244.826
L409.404 243.628
L409.776 220.438
L409.85 219.649
L410.297 233.513
L410.52 249.111
L410.594 248.893
L410.743 239.602
L411.115 189.184
L411.413 160.436
L411.487 158.737
L411.562 159.797
L411.71 168.564
L412.603 243.962
L413.05 264.433
L413.124 263.713
L413.422 244.429
L414.24 168.541
L414.314 168.909
L414.463 178.021
L415.133 239.849
L415.207 240.506
L415.282 239.164
L415.43 226.947
L415.802 190.907
L415.877 192.594
L416.1 216.527
L416.398 258.016
L416.472 259.226
L416.621 250.707
L417.142 211.896
L417.216 212.27
L417.514 229.982
L417.588 224.055
L417.811 164.059
L418.034 111.436
L418.109 116.148
L418.332 192.479
L418.63 289.61
L418.778 303.492
L418.927 287.26
L419.299 228.94
L420.266 176.541
L420.415 178.926
L420.638 187.71
L420.862 212.04
L421.234 252.855
L421.308 253.385
L421.457 242.821
L421.903 168.771
L422.052 187.744
L422.498 276.126
L422.573 278.764
L422.722 260.701
L423.094 197.859
L423.54 174.658
L423.614 179.703
L423.763 218.18
L423.986 262.728
L424.73 180.153
L424.805 182.088
L425.102 204.638
L425.4 262.757
L425.474 262.1
L425.623 252.066
L425.846 216.988
L426.218 159.854
L426.293 158.011
L426.367 160.045
L426.814 213.083
L427.334 277.652
L427.409 277.877
L427.632 275.486
L427.855 238.035
L428.302 136.382
L428.376 138.185
L428.525 160.822
L428.971 257.164
L429.046 260.176
L429.194 251.652
L429.715 182.042
L429.79 180.441
L429.864 180.688
L430.087 193.925
L430.31 223.934
L430.608 277.364
L430.831 280.895
L430.906 280.751
L431.054 267.883
L431.352 204.656
L431.724 126.815
L431.873 119.045
L432.096 156.168
L432.617 268.534
L432.84 285.186
L432.914 283.717
L433.138 260.557
L433.361 218.267
L433.733 134.453
L433.882 168.062
L434.254 275.112
L434.328 277.307
L434.477 256.461
L434.774 195.854
L434.998 185.291
L435.072 185.665
L435.221 189.956
L435.444 204.581
L435.89 247.303
L435.965 247.17
L436.039 246.64
L436.114 246.928
L436.188 246.237
L436.337 238.749
L436.56 212.403
L436.858 182.365
L437.006 179.099
L437.081 178.638
L437.23 186.281
L437.453 196.845
L437.75 204.811
L437.899 220.617
L438.346 282.381
L438.42 282.663
L438.569 269.749
L439.238 168.304
L439.536 183.47
L439.61 182.543
L439.685 180.971
L439.759 182.837
L439.982 216.723
L440.28 262.503
L440.354 263.154
L440.503 244.717
L440.875 196.626
L440.95 193.988
L441.024 194.875
L441.173 206.672
L441.396 226.682
L441.47 228.686
L441.545 228.393
L441.694 219.77
L441.917 202.749
L442.214 218.843
L442.363 217.195
L442.512 215.68
L442.586 215.773
L442.661 217.328
L442.884 238.962
L443.033 233.669
L443.107 235.362
L443.182 238.864
L443.256 238.599
L443.405 214.528
L443.628 185.492
L443.926 208.094
L444 207.737
L444.446 152.77
L444.521 155.788
L444.67 189
L445.116 321.411
L445.19 322.926
L445.339 304.54
L446.009 156.254
L446.083 154.976
L446.232 169.024
L446.455 190.947
L446.53 191.736
L446.604 191.523
L446.753 185.596
L446.902 176.651
L447.05 182.341
L447.274 230.432
L447.646 309.839
L447.72 308.146
L447.869 269.053
L448.315 119.206
L448.39 118.814
L448.538 150.846
L448.985 327.735
L449.059 325.38
L449.208 286.667
L449.729 139.107
L449.878 132.512
L449.878 132.512" style="fill:none;stroke:#808080;stroke-linecap:square;"/>
   </g>
  </g>
 </g>
 <defs>
  <clipPath id="p7ff5b81e1d">
   <rect height="345.6" width="446.4" x="72.0" y="43.2"/>
  </clipPath>
 </defs>
</svg>
