<?xml version="1.0" encoding="utf-8" standalone="no"?>
<!DOCTYPE svg PUBLIC "-//W3C//DTD SVG 1.1//EN"
  "http://www.w3.org/Graphics/SVG/1.1/DTD/svg11.dtd">
<!-- Created with matplotlib (http://matplotlib.org/) -->
<svg height="432pt" version="1.1" viewBox="0 0 576 432" width="576pt" xmlns="http://www.w3.org/2000/svg" xmlns:xlink="http://www.w3.org/1999/xlink">
 <defs>
  <style type="text/css">
*{stroke-linecap:butt;stroke-linejoin:round;}
  </style>
 </defs>
 <g id="figure_1">
  <g id="patch_1">
   <path d="
M0 432
L576 432
L576 0
L0 0
z
" style="fill:#ffffff;"/>
  </g>
  <g id="axes_1">
   <g id="line2d_1">
    <path clip-path="url(#p7ff5b81e1d)" d="
M72 223.663
L72.2976 192.59
L72.6696 156.716
L72.744 153.913
L72.8184 154.021
L73.5624 196.015
L74.0088 222.019
L74.232 214.508
L74.7528 205.108
L74.976 211.267
L75.0504 209.309
L75.4968 181.953
L75.5712 181.538
L75.6456 181.822
L75.8688 189.456
L76.092 200.861
L76.1664 200.531
L76.3152 197.136
L76.5384 202.812
L76.6128 203.08
L76.6872 203.81
L77.0592 194.056
L77.2824 184.034
L77.3568 184.687
L77.58 191.967
L77.6544 196.637
L77.7288 196.33
L77.8032 196.099
L78.1752 207.773
L78.2496 208.472
L78.4728 197.336
L78.696 184.211
L78.7704 182.905
L78.9936 193.473
L79.2168 202.044
L79.2912 201.79
L79.5144 197.121
L79.5888 198.035
L79.8864 207.289
L79.9608 206.705
L80.3328 196.79
L80.4816 196.86
L80.556 199.601
L81.0024 186.991
L81.0768 188.435
L81.3 195.585
L81.5976 186.914
L82.416 210.83
L82.4904 209.885
L82.5648 208.526
L82.7136 210.591
L82.8624 208.395
L82.9368 209.309
L83.0112 207.512
L83.3088 188.903
L83.4576 186.975
L83.532 187.843
L83.6064 188.135
L83.7552 179.142
L84.1272 185.962
L84.276 187.375
L84.4992 196.107
L84.5736 195.293
L85.02 206.905
L85.2432 192.566
L85.3176 194.21
L85.6896 217.135
L85.764 216.766
L85.9872 211.045
L86.2104 190.186
L86.4336 164.227
L86.508 164.926
L86.7312 180.878
L86.9544 199.471
L87.1776 215.445
L87.252 215.514
L87.4008 212.565
L87.624 199.064
L87.6984 199.125
L87.8472 202.228
L87.9216 200.677
L88.0704 203.096
L88.2936 207.988
L88.4424 203.249
L88.74 184.687
L88.8888 173.827
L88.9632 175.171
L89.2608 190.501
L89.3352 191.56
L89.5584 182.114
L90.0792 198.319
L90.1536 198.595
L90.3768 213.149
L90.4512 211.874
L90.6 208.134
L90.8232 207.719
L91.0464 201.014
L91.1208 201.299
L91.1952 200.976
L91.4184 193.626
L91.716 203.802
L91.8648 193.826
L92.1624 174.019
L92.46 185.946
L92.9808 214.792
L93.1296 209.693
L93.2784 201.66
L93.3528 201.706
L93.6504 206.513
L93.7248 206.268
L94.1712 184.541
L94.32 178.666
L94.4688 184.272
L94.8408 206.621
L94.9152 206.521
L95.064 203.841
L95.6592 186.215
L95.7336 187.06
L95.8824 190.739
L96.2544 209.263
L96.3288 209.102
L96.4032 206.974
L96.7008 187.467
L96.7752 187.283
L97.2216 196.222
L97.4448 192.213
L97.668 195.9
L97.8168 198.311
L97.8912 198.933
L97.9656 198.296
L98.1144 205.146
L98.3376 216.052
L98.412 217.695
L98.4864 216.098
L99.0816 187.359
L99.2304 186.069
L99.3792 191.798
L99.4536 189.717
L99.6768 176.415
L99.8256 180.908
L100.049 183.519
L100.272 203.48
L100.421 211.674
L100.495 211.567
L100.867 203.672
L101.09 191.914
L101.314 180.57
L101.909 217.066
L102.058 227.91
L102.206 224.853
L102.355 213.525
L102.504 202.428
L102.578 202.52
L102.727 194.479
L103.025 179.695
L103.099 178.474
L103.248 180.87
L103.471 175.171
L103.694 185.155
L104.066 211.982
L104.215 207.327
L104.438 196.79
L104.587 194.003
L104.81 186.238
L104.885 187.206
L105.034 196.053
L105.257 215.514
L105.406 216.029
L105.48 215.714
L106.001 174.81
L106.15 180.678
L106.522 226.12
L106.596 223.647
L106.745 205.146
L107.042 160.149
L107.117 161.286
L107.266 169.503
L107.861 233.654
L108.084 224.308
L108.307 214.785
L108.382 213.41
L108.605 196.33
L108.977 149.159
L109.051 150.557
L109.274 168.835
L109.87 229.492
L109.944 232.049
L110.018 231.842
L110.39 215.645
L110.837 154.988
L111.06 148.337
L111.283 170.126
L111.506 217.212
L111.804 263.03
L111.878 265.112
L111.953 264.09
L112.176 251.656
L112.399 201.844
L112.697 137.224
L112.92 130.865
L112.994 131.795
L113.292 158.314
L113.738 214.685
L113.962 236.15
L114.036 236.826
L114.11 235.313
L114.408 215.722
L114.78 186.215
L114.854 186.722
L115.152 208.303
L115.45 229.192
L115.524 227.495
L115.673 212.872
L116.045 168.528
L116.268 161.132
L116.342 160.579
L116.417 161.486
L116.863 188.496
L117.161 198.365
L117.458 215.852
L117.533 216.62
L117.682 214.992
L117.905 207.627
L118.202 196.583
L118.277 195.055
L118.798 200.101
L119.021 208.518
L119.244 209.209
L119.318 209.355
L119.393 208.479
L119.542 210.062
L119.765 204.77
L119.988 183.512
L120.286 155.411
L120.36 153.398
L120.434 153.422
L120.509 153.698
L120.658 166.524
L121.104 217.434
L121.327 224.385
L121.476 214.554
L121.774 191.53
L121.922 185.87
L121.997 187.329
L122.146 196.322
L122.518 232.395
L122.592 232.479
L122.741 224.984
L123.41 187.697
L123.857 166.785
L123.931 167.822
L124.08 181.891
L124.378 241.235
L124.452 235.874
L124.675 139.068
L124.898 97.8106
L124.973 104.423
L125.196 177.076
L125.494 253.868
L125.791 296.876
L126.014 207.043
L126.312 130.973
L126.386 127.386
L126.535 145.818
L127.056 280.541
L127.13 280.426
L127.354 258.461
L127.577 219.285
L127.949 144.997
L128.172 128.2
L128.321 127.018
L128.395 125.512
L128.544 133.208
L129.065 235.843
L129.362 282.691
L129.437 284.573
L129.586 270.672
L130.627 104.63
L130.702 105.414
L130.85 104.408
L130.999 121.066
L131.297 203.103
L131.743 318.634
L131.818 323.18
L132.041 313.334
L132.19 288.682
L132.859 130.873
L133.306 106.635
L133.38 106.604
L133.529 118.155
L133.975 212.166
L134.273 257.332
L134.347 257.509
L134.422 256.042
L134.645 229.53
L134.868 208.94
L134.942 209.094
L135.091 218.74
L135.314 236.842
L135.389 236.258
L135.538 223.455
L135.984 168.782
L136.058 167.768
L136.282 180.348
L136.356 179.534
L136.43 179.749
L136.654 162.799
L136.877 150.672
L137.026 158.16
L137.323 183.074
L137.844 223.532
L137.993 219.247
L138.067 220.253
L138.365 234.069
L138.439 232.871
L138.662 224.915
L138.886 198.78
L139.258 166.255
L139.406 175.302
L139.778 206.245
L140.15 217.488
L140.225 217.526
L140.374 210.138
L140.969 170.003
L141.043 170.018
L141.341 180.801
L141.49 185.931
L141.638 185.294
L142.085 198.511
L142.382 204.309
L142.457 203.91
L142.606 202.266
L142.68 202.742
L142.829 204.639
L143.052 194.172
L143.35 172.015
L144.391 221.451
L144.54 220.122
L144.614 220.406
L144.763 223.125
L144.912 214.239
L145.21 198.465
L145.507 208.802
L145.582 208.287
L145.656 207.704
L145.954 193.887
L146.4 164.135
L146.549 170.11
L146.623 169.342
L146.772 166.032
L146.921 169.58
L147.144 192.751
L147.367 207.665
L147.442 208.287
L147.59 203.741
L147.814 194.218
L147.962 189.633
L148.186 206.959
L148.558 247.694
L148.781 251.587
L148.855 249.329
L149.004 233.501
L149.227 168.144
L149.525 92.0199
L149.599 90.8756
L149.748 118.255
L150.269 278.966
L150.343 277.469
L150.566 238.339
L150.938 160.103
L151.013 157.123
L151.087 157.968
L151.534 186.161
L151.608 187.183
L151.98 203.833
L152.054 202.213
L152.203 199.717
L152.426 201.998
L152.501 200.953
L152.798 212.527
L153.096 230.106
L153.17 230.452
L153.245 230.306
L153.394 228.017
L153.542 216.06
L154.138 133.807
L154.286 139.843
L154.584 180.67
L155.179 241.634
L155.402 246.833
L155.551 237.141
L155.923 204.117
L156.295 174.265
L156.593 151.302
L156.667 149.451
L156.816 154.013
L156.965 166.286
L157.56 233.34
L157.634 232.787
L158.081 201.214
L158.378 171.308
L158.602 180.102
L158.974 208.08
L159.122 210.33
L159.42 225.767
L159.494 225.537
L159.569 223.678
L160.015 184.756
L160.313 165.387
L160.387 165.717
L160.536 170.579
L160.834 193.934
L160.982 193.642
L161.057 192.574
L161.429 182.506
L161.578 188.657
L162.098 219.047
L162.322 225.137
L162.396 224.154
L162.545 212.742
L162.991 183.158
L163.066 183.059
L163.14 183.573
L163.289 187.813
L163.363 186.246
L163.512 176.961
L163.586 177.145
L163.735 187.72
L164.182 224.331
L164.33 221.159
L165 172.652
L165.074 173.267
L165.67 223.978
L165.744 219.946
L166.042 191.399
L166.116 190.324
L166.488 169.503
L166.562 170.241
L166.711 172.115
L166.786 168.72
L166.86 169.665
L167.232 202.988
L167.604 233.593
L167.678 235.398
L167.753 232.418
L168.05 208.095
L168.125 207.681
L168.646 190.17
L168.869 172.552
L169.092 182.644
L169.241 182.444
L169.39 179.864
L169.464 177.913
L169.538 178.719
L169.687 183.343
L169.762 183.635
L169.836 184.572
L169.91 184.387
L170.059 182.421
L170.134 184.656
L170.654 224.346
L170.729 226.581
L171.026 220.422
L171.77 190.516
L171.919 187.598
L171.994 187.997
L172.291 204.678
L172.44 208.31
L172.589 202.335
L172.812 196.284
L173.11 188.266
L173.184 187.743
L173.258 185.102
L173.407 191.1
L173.63 201.276
L173.705 202.128
L174.523 158.874
L174.598 163.774
L175.118 234.33
L175.267 233.624
L175.342 231.504
L176.011 178.351
L176.086 178.789
L176.16 177.798
L176.309 183.573
L176.681 203.165
L176.755 205.177
L176.83 205.054
L176.978 199.832
L177.276 188.373
L177.425 183.074
L177.499 183.719
L177.648 194.164
L178.02 230.483
L178.094 230.652
L178.169 229.745
L178.318 220.568
L178.838 167.153
L179.359 182.152
L180.178 225.429
L180.252 223.647
L180.55 205.73
L180.847 187.037
L180.922 187.782
L180.996 190.163
L181.219 203.234
L181.294 203.51
L181.442 211.129
L181.517 210.891
L181.74 181.523
L181.963 131.749
L182.186 92.473
L182.261 96.2669
L182.484 144.367
L183.005 331.39
L183.079 338.74
L183.154 338.256
L183.302 313.25
L183.6 205.146
L183.898 124.583
L184.046 108.494
L184.121 108.194
L184.27 123.393
L184.939 242.694
L185.014 238.454
L185.162 196.399
L185.534 70.4775
L185.683 113.201
L186.278 367.901
L186.353 361.427
L186.576 289.657
L187.097 143.522
L187.618 45.8247
L187.766 69.6711
L188.51 297.514
L188.585 296.846
L188.734 281.409
L189.626 146.863
L189.701 145.78
L189.775 148.583
L189.85 146.702
L189.998 130.842
L190.222 95.4145
L190.296 103.156
L190.445 176.085
L190.742 359.153
L190.817 363.738
L190.966 316.406
L191.263 186.246
L191.561 143.315
L191.784 131.925
L191.858 130.213
L191.933 131.057
L192.082 146.955
L192.826 258.699
L192.974 253.469
L193.123 240.152
L193.718 147.047
L193.867 154.62
L194.314 216.421
L194.388 211.943
L194.834 155.434
L194.909 156.524
L195.132 181.96
L195.578 241.281
L195.653 242.333
L195.802 224.239
L196.099 168.674
L196.174 170.179
L196.546 218.279
L196.843 244.03
L197.29 214.201
L197.959 138.077
L198.034 138.73
L198.108 140.995
L198.331 170.456
L198.778 221.198
L199.001 213.894
L199.596 233.04
L199.67 231.289
L199.745 228.086
L200.414 158.275
L200.563 153.206
L200.712 163.352
L201.382 232.549
L201.456 231.681
L201.679 218.678
L202.2 172.053
L202.349 168.605
L202.423 168.751
L202.795 191.599
L203.167 233.593
L203.242 236.097
L204.06 180.801
L204.283 162.077
L204.432 165.602
L205.176 206.306
L205.25 206.69
L205.325 206.053
L205.474 213.702
L205.622 207.673
L206.143 182.36
L206.218 183.043
L206.664 193.765
L206.738 192.359
L206.813 193.066
L207.259 219.416
L208.226 184.126
L208.301 184.049
L208.45 187.836
L208.747 199.432
L208.822 199.302
L208.896 200.477
L209.045 206.421
L209.342 198.196
L209.417 198.35
L209.714 192.92
L209.789 193.91
L209.938 199.732
L210.086 196.376
L210.83 171.677
L210.905 176.846
L211.351 244.268
L211.426 243.546
L211.723 212.012
L212.021 175.448
L212.17 186.407
L212.318 192.129
L212.393 191.184
L212.542 196.053
L212.616 191.514
L212.839 162.707
L213.062 158.022
L213.509 196.529
L213.806 227.841
L213.881 228.386
L214.253 215.461
L214.476 210.169
L214.625 211.352
L214.848 207.35
L215.071 199.724
L215.518 208.963
L215.741 203.772
L216.336 166.815
L216.485 168.981
L216.559 169.166
L216.708 176.723
L216.931 194.594
L217.08 187.313
L217.154 188.703
L217.526 201.23
L217.75 191.637
L217.973 193.004
L218.196 208.088
L218.642 236.865
L218.717 235.736
L219.014 214.746
L219.535 160.825
L219.907 155.818
L219.982 155.441
L220.056 157.73
L220.279 185.731
L220.726 237.733
L220.8 242.233
L220.949 226.873
L221.172 205.046
L221.321 219.807
L221.544 239.914
L221.618 239.299
L221.767 225.79
L222.511 135.512
L222.66 123.308
L222.734 124.253
L222.958 151.471
L223.553 254.997
L223.627 256.694
L223.702 255.105
L223.999 206.959
L224.148 185.224
L224.222 185.416
L224.52 195.178
L224.594 197.505
L224.669 197.228
L224.892 190.815
L224.966 191.553
L225.115 199.141
L225.338 212.934
L225.413 214.454
L225.487 219.024
L225.785 254.79
L225.934 230.721
L226.529 103.532
L226.678 119.883
L226.901 174.826
L227.198 230.03
L227.273 233.616
L227.347 230.222
L227.645 197.251
L227.719 198.296
L227.868 217.918
L228.24 281.462
L228.314 285.633
L228.389 284.949
L228.538 276.854
L228.761 218.947
L229.207 108.924
L229.282 105.967
L229.356 107.065
L229.579 127.709
L230.174 191.76
L230.398 200.861
L230.695 221.497
L230.844 235.521
L230.918 234.507
L231.588 203.28
L231.811 193.926
L231.96 192.067
L232.109 188.788
L232.406 198.565
L232.704 210.906
L232.853 201.084
L232.927 202.289
L233.076 207.734
L233.522 191.814
L233.746 196.092
L233.969 189.932
L234.043 192.121
L234.118 191.783
L234.341 188.496
L234.415 190.408
L234.787 180.686
L234.936 177.114
L235.308 192.805
L235.457 197.32
L235.606 200.869
L235.829 207.711
L236.052 192.474
L236.201 185.762
L236.275 186.76
L236.498 199.878
L236.796 228.501
L236.87 228.601
L237.391 201.206
L237.614 182.897
L237.986 169.68
L238.061 169.695
L238.433 189.203
L238.73 212.358
L238.954 220.998
L239.028 221.121
L239.177 218.056
L239.4 205.538
L239.846 182.951
L239.921 183.711
L240.144 193.511
L240.367 203.111
L240.59 191.822
L240.665 190.769
L240.888 183.312
L241.111 188.703
L241.186 188.604
L241.334 187.129
L241.558 190.186
L242.004 199.686
L242.227 209.009
L242.302 209.125
L242.45 210.814
L242.748 194.448
L242.897 197.351
L243.046 196.975
L243.12 197.543
L243.343 188.258
L243.864 212.888
L244.013 218.095
L244.087 217.841
L244.236 212.204
L244.831 175.448
L245.501 199.118
L246.022 224.316
L246.17 218.248
L246.542 176.385
L246.691 177.79
L246.766 177.26
L246.84 177.729
L246.989 182.467
L247.063 182.275
L247.212 187.26
L247.435 202.22
L247.584 208.134
L247.882 200.469
L248.254 175.356
L248.477 182.175
L248.923 203.226
L248.998 203.81
L249.295 212.995
L249.444 211.536
L249.593 208.564
L249.965 213.349
L250.039 212.957
L250.486 202.458
L250.709 190.693
L250.783 189.794
L250.858 187.175
L250.932 187.682
L251.378 206.667
L251.453 206.513
L251.527 204.97
L251.75 188.88
L252.048 155.449
L252.197 157.546
L252.42 170.279
L253.09 216.029
L253.313 228.355
L253.536 240.758
L253.685 237.794
L253.759 235.651
L253.982 210.63
L254.354 175.663
L254.429 173.674
L254.578 164.957
L254.801 170.586
L254.95 182.782
L255.024 189.095
L255.098 187.774
L255.173 186.86
L255.768 214.078
L255.842 214.024
L255.991 214.378
L256.214 206.375
L256.289 208.111
L256.512 217.496
L256.586 221.029
L256.661 220.291
L257.033 198.442
L257.702 156.724
L257.777 153.982
L258.149 173.712
L258.446 196.883
L258.67 214.293
L258.818 201.145
L259.042 180.655
L259.116 181.07
L259.19 187.114
L259.488 249.89
L259.562 248.892
L259.711 240.62
L259.786 242.755
L259.934 251.288
L260.009 248.27
L260.232 203.342
L260.53 138.085
L260.678 130.758
L261.05 182.03
L261.348 217.987
L261.571 224.346
L261.646 222.534
L261.794 206.467
L262.092 166.723
L262.166 166.6
L262.39 197.044
L262.687 232.794
L262.762 230.836
L263.208 180.532
L263.282 183.95
L263.654 228.555
L263.729 227.572
L263.878 216.751
L264.622 146.632
L264.696 145.98
L264.77 148.391
L265.663 214.977
L265.812 204.409
L265.886 205
L266.035 206.882
L266.184 220.13
L266.407 236.865
L266.705 249.03
L266.779 247.655
L266.928 235.613
L267.523 157.108
L267.746 151.517
L267.821 152.945
L268.565 187.567
L268.639 186.845
L268.788 189.264
L268.937 183.957
L269.086 196.099
L269.606 250.658
L269.681 251.587
L270.202 191.798
L270.648 136.502
L270.722 137.57
L270.946 151.44
L271.541 244.952
L271.764 238.554
L271.913 217.066
L272.285 154.658
L272.508 162.3
L272.657 181.377
L273.103 237.625
L273.178 240.014
L273.252 238.915
L273.401 229.108
L273.624 210.338
L273.773 204.778
L274.145 187.574
L274.294 191
L274.74 164.25
L274.963 160.925
L275.112 158.943
L275.856 219.869
L275.93 219.7
L276.154 211.843
L276.228 212.895
L276.6 200.177
L276.674 200.423
L276.972 206.275
L277.046 207.98
L277.121 207.397
L277.27 202.635
L277.344 203.449
L277.418 203.15
L277.493 202.52
L277.716 208.963
L277.865 205.715
L277.939 209.386
L278.088 198.518
L278.311 178.143
L278.386 177.921
L278.758 197.827
L278.832 197.628
L278.906 193.565
L278.981 194.824
L279.13 205.438
L279.204 204.839
L279.278 203.111
L279.427 204.693
L279.874 180.854
L279.948 178.904
L280.022 178.919
L280.171 182.774
L280.32 178.873
L280.543 197.366
L280.618 193.104
L280.692 189.963
L280.99 198.25
L281.064 198.38
L281.138 195.9
L281.287 198.311
L281.436 196.23
L281.585 199.486
L281.808 194.31
L281.882 195.147
L282.031 198.058
L282.106 200.638
L282.254 214.017
L282.403 210.507
L282.85 221.566
L283.147 209.47
L283.445 187.083
L283.668 178.297
L283.742 179.672
L284.338 190.462
L284.412 191
L284.71 200.646
L284.784 200.976
L285.082 194.033
L285.156 193.273
L285.602 180.724
L285.677 181.484
L285.751 177.752
L285.826 178.335
L286.049 191.76
L286.495 232.433
L286.57 232.034
L286.644 229.822
L286.867 208.718
L287.09 184.142
L287.239 180.225
L287.388 186.154
L287.462 185.608
L287.537 184.779
L288.058 207.228
L288.504 185.301
L288.653 185.747
L288.727 183.358
L288.802 184.464
L289.248 205.361
L289.546 216.021
L289.62 216.444
L289.694 215.699
L289.843 223.025
L289.918 221.666
L289.992 218.94
L290.438 180.716
L290.662 171.446
L290.81 166.67
L290.885 167.015
L291.034 172.107
L291.629 219.884
L291.778 215.791
L291.926 209.332
L292.224 182.69
L292.298 182.03
L292.373 182.198
L292.447 182.959
L292.745 194.033
L293.042 210.545
L293.117 209.8
L293.191 210.184
L293.34 214.347
L293.638 212.389
L294.01 199.094
L294.233 186.3
L294.382 190.132
L294.456 189.126
L294.605 192.497
L294.828 206.582
L294.902 204.401
L294.977 206.291
L295.2 201.575
L295.498 180.962
L295.646 177.468
L295.795 177.621
L295.944 174.373
L296.316 184.994
L297.06 234.96
L297.432 214.7
L297.878 169.457
L298.027 161.654
L298.25 173.405
L298.474 190.623
L298.697 202.896
L298.771 202.497
L298.846 203.126
L298.994 207.343
L299.143 216.728
L299.515 203.626
L299.813 178.497
L299.887 177.59
L299.962 178.589
L300.11 189.587
L300.408 214.685
L300.631 220.652
L300.706 219.838
L301.226 203.534
L301.301 204.102
L301.45 195.485
L301.673 167.015
L301.822 157.162
L301.896 158.106
L301.97 157.569
L302.045 160.718
L302.491 202.819
L302.714 209.232
L303.086 198.357
L303.235 200.63
L303.384 197.213
L303.682 215.484
L303.756 216.175
L304.054 203.564
L304.202 198.833
L304.277 199.102
L304.351 198.757
L304.5 194.97
L304.649 203.656
L305.244 180.831
L305.318 181.538
L305.914 205.292
L305.988 204.133
L306.137 193.895
L306.286 195.723
L306.36 195.746
L306.434 196.806
L306.732 191.307
L306.955 195.807
L307.03 194.072
L307.178 186.369
L307.253 187.16
L307.476 201.652
L307.774 229.899
L307.848 229.407
L308.518 171.654
L308.592 173.267
L308.666 177.283
L308.741 176.677
L308.815 176.515
L309.187 196.007
L309.262 194.31
L309.41 198.941
L309.634 210.822
L309.708 211.958
L309.782 210.899
L310.006 218.072
L310.378 198.703
L310.526 200.101
L310.898 192.712
L311.122 184.303
L311.27 180.117
L311.345 181.308
L311.717 198.887
L311.791 198.757
L312.386 179.557
L312.535 186.876
L312.833 216.328
L312.907 216.021
L313.651 188.78
L313.8 188.304
L313.949 192.935
L314.246 213.425
L314.321 211.751
L314.395 207.458
L314.47 209.324
L314.544 211.713
L314.767 201.514
L314.842 199.67
L314.916 194.126
L314.99 194.579
L315.139 202.09
L315.511 191.507
L315.809 184.802
L315.883 184.886
L316.032 192.712
L316.553 176.638
L316.627 179.034
L316.925 204.678
L316.999 205
L317.148 207.65
L317.52 197.789
L317.594 197.543
L317.892 206.974
L318.115 220.261
L318.19 220.253
L318.264 219.316
L318.636 198.465
L318.934 184.272
L319.008 184.933
L319.157 190.14
L319.306 187.229
L319.529 169.964
L319.603 169.688
L319.752 165.072
L320.422 221.105
L320.496 221.251
L320.645 216.574
L320.719 217.557
L320.794 216.628
L320.942 207.059
L321.017 203.764
L321.091 205.676
L321.166 205.576
L321.389 201.683
L321.538 193.296
L321.686 185.263
L322.133 202.197
L322.207 200.469
L322.356 196.668
L322.43 199.471
L322.505 198.165
L322.728 181.054
L322.802 181.661
L322.877 181.023
L323.026 183.289
L323.1 182.46
L323.174 182.874
L323.323 178.835
L323.398 180.478
L323.695 190.109
L323.918 199.855
L323.993 198.088
L324.142 202.758
L324.365 210.415
L324.588 216.659
L324.662 216.881
L324.737 217.511
L324.886 213.141
L325.034 218.924
L325.109 216.828
L325.406 203.05
L325.555 197.75
L325.704 202.589
L325.778 201.322
L326.002 205.676
L326.15 198.449
L326.299 183.857
L326.671 142.07
L326.746 145.634
L326.969 185.524
L327.266 228.77
L327.341 226.673
L327.638 209.117
L327.862 199.54
L328.01 202.282
L328.085 201.406
L328.308 203.603
L328.457 193.542
L328.68 178.942
L328.754 179.088
L329.126 188.127
L329.275 187.69
L329.35 188.988
L329.796 210.092
L329.945 204.086
L330.019 205.707
L330.466 243.877
L330.54 246.618
L330.614 243.9
L330.763 223.709
L331.135 168.474
L331.21 167.284
L331.358 171.692
L331.433 171.393
L331.507 172.591
L331.582 172.161
L331.656 169.15
L331.879 155.211
L332.028 162.676
L332.623 214.178
L332.921 209.424
L333.07 200.316
L333.144 200.392
L333.218 201.898
L333.516 219.47
L333.59 218.425
L333.962 196.775
L334.186 176.308
L334.26 176.738
L334.706 208.84
L334.855 219.969
L334.93 219.631
L335.004 217.311
L335.078 218.271
L335.153 217.388
L335.674 179.71
L335.897 167.307
L335.971 163.912
L336.418 184.418
L336.641 201.575
L336.79 213.018
L336.938 211.398
L337.013 211.505
L337.087 208.295
L337.162 208.341
L337.385 218.241
L337.608 215.775
L337.682 215.76
L337.831 206.759
L338.054 215
L338.129 210.584
L338.203 212.903
L338.278 211.69
L338.426 202.22
L338.873 139.037
L338.947 141.395
L339.245 160.418
L339.468 202.819
L339.691 244.207
L339.84 229.254
L340.212 173.996
L340.361 176.776
L340.435 181.354
L340.807 253.123
L340.882 248.945
L341.402 170.686
L341.477 171.178
L341.7 180.808
L342.072 211.298
L342.146 214.055
L342.221 213.011
L342.518 196.115
L342.742 177.068
L342.965 171.523
L343.039 171.677
L343.188 180.724
L343.634 205.807
L343.858 216.436
L343.932 215.775
L344.081 213.502
L344.23 206.782
L344.602 179.856
L344.899 174.588
L345.122 179.388
L345.494 212.972
L345.718 231.527
L345.941 235.805
L346.834 175.302
L346.982 167.338
L347.057 169.135
L347.652 197.797
L347.726 197.896
L347.801 200.246
L347.95 195.086
L348.024 196.675
L348.098 199.924
L348.322 189.579
L348.396 191.883
L348.47 190.892
L348.545 187.075
L348.619 187.935
L348.842 197.32
L348.991 204.447
L349.214 210.522
L349.363 209.032
L349.438 209.539
L349.958 196.061
L350.033 197.182
L350.107 197.535
L350.256 191.576
L350.405 196.775
L350.702 210.23
L350.777 208.303
L351.149 188.235
L351.223 189.226
L351.372 193.189
L351.595 192.083
L351.893 183.512
L351.967 184.042
L352.042 182.851
L352.414 199.686
L352.637 210.991
L352.86 201.567
L353.009 207.665
L353.232 198.734
L353.381 197.589
L353.53 200.078
L353.604 200.047
L353.976 187.836
L354.05 190.355
L354.199 184.748
L354.348 174.388
L354.794 205.415
L354.869 205.4
L354.943 204.847
L355.092 216.037
L355.166 215.007
L355.613 193.212
L355.91 187.144
L355.985 189.341
L356.431 225.114
L356.803 192.29
L356.952 180.586
L357.101 183.089
L357.175 182.705
L357.25 183.112
L357.398 186.653
L357.473 186.515
L357.622 184.825
L357.696 187.528
L357.845 177.391
L357.919 173.996
L358.663 219.869
L358.738 218.51
L359.184 190.431
L359.407 194.648
L359.556 190.823
L359.63 193.235
L359.705 192.651
L359.779 189.978
L360.226 214.362
L360.3 213.218
L360.523 202.719
L360.895 184.433
L360.97 185.416
L361.118 189.203
L361.267 193.081
L361.342 196.153
L361.416 195.47
L361.565 192.198
L361.714 201.176
L361.862 196.491
L361.937 197.551
L362.383 210.599
L362.606 201.813
L362.681 200.546
L363.053 171.692
L363.425 207.189
L363.499 207.327
L363.722 195.992
L363.797 199.256
L363.871 199.402
L364.169 191.944
L364.243 192.037
L364.318 191.645
L364.392 193.043
L364.541 199.01
L364.69 195.516
L364.913 197.42
L365.136 194.817
L365.21 193.457
L365.359 196.115
L365.434 194.817
L365.508 195.101
L365.806 211.382
L365.88 213.717
L365.954 213.633
L366.029 213.018
L366.103 213.287
L366.178 215.783
L366.326 202.643
L366.624 174.856
L366.698 174.373
L366.773 175.778
L367.219 193.25
L367.442 195.178
L367.591 190.117
L367.666 191.499
L367.963 210.96
L368.038 213.748
L368.112 212.834
L368.261 205.584
L368.41 210.599
L369.079 188.765
L369.154 189.617
L369.302 192.758
L369.377 192.966
L369.526 186.108
L369.6 186.307
L369.898 203.918
L370.121 190.178
L370.195 192.643
L370.418 182.844
L370.939 217.365
L371.014 218.218
L371.162 223.893
L371.534 192.198
L371.609 187.874
L371.981 201.475
L372.055 200.008
L372.278 177.352
L372.353 179.042
L372.427 177.36
L372.502 178.136
L372.65 188.742
L372.725 188.143
L372.799 185.831
L372.874 188.711
L373.097 200.892
L373.32 205.653
L373.543 201.168
L373.692 196.214
L373.766 196.79
L373.841 198.242
L373.99 192.912
L374.064 194.218
L374.138 198.419
L374.213 197.766
L374.362 198.204
L374.436 199.371
L374.51 198.841
L374.659 191.952
L374.882 211.052
L375.031 218.563
L375.106 218.149
L375.254 203.61
L375.329 204.048
L375.478 207.381
L375.85 185.109
L375.924 184.794
L375.998 185.969
L376.222 175.448
L376.37 183.573
L376.519 180.447
L376.966 202.958
L377.114 195.585
L377.189 196.606
L377.338 197.95
L377.561 219.032
L377.635 216.236
L378.007 199.448
L378.156 202.574
L378.454 190.14
L378.528 190.339
L378.826 202.243
L379.346 180.532
L379.421 183.758
L379.867 201.898
L379.942 198.403
L380.016 200.016
L380.165 204.447
L380.314 200.054
L380.686 216.92
L380.983 201.206
L381.281 185.977
L381.43 190.877
L381.578 187.298
L381.653 187.889
L381.876 175.732
L381.95 177.798
L382.174 189.756
L382.248 189.441
L382.471 196.806
L382.769 218.387
L382.843 217.442
L383.066 204.601
L383.141 206.175
L383.215 205.699
L383.513 192.359
L383.662 192.428
L383.736 193.112
L383.885 197.866
L384.108 185.401
L384.257 188.227
L384.48 196.852
L384.629 194.678
L384.703 196.437
L384.778 196.284
L384.852 195.324
L384.926 195.5
L385.001 195.777
L385.075 192.19
L385.15 193.511
L385.447 218.195
L385.522 217.396
L385.745 199.087
L386.042 181.868
L386.117 181.599
L386.191 183.919
L386.563 206.367
L386.935 172.952
L387.01 173.727
L387.158 181.407
L387.456 215.99
L387.53 214.577
L387.679 215.176
L387.828 211.029
L388.349 188.826
L388.423 190.485
L388.572 187.613
L388.646 186.038
L388.721 186.668
L388.795 187.129
L389.167 196.345
L389.39 206.168
L389.465 204.432
L389.539 205.231
L389.762 208.295
L389.911 208.042
L390.581 187.037
L390.804 189.479
L390.878 188.227
L390.953 188.903
L391.176 194.794
L391.25 194.425
L391.697 178.328
L391.846 184.84
L392.218 212.25
L392.292 210.399
L392.441 203.411
L392.515 203.434
L392.59 203.695
L392.887 210.991
L393.185 205.599
L393.259 205.745
L393.334 207.642
L393.929 182.222
L394.152 189.579
L394.301 187.229
L394.45 191.284
L394.747 206.175
L394.822 203.925
L394.97 197.075
L395.119 203.15
L395.342 198.472
L395.417 198.019
L395.64 185.232
L395.714 184.81
L395.938 191.468
L396.161 187.613
L396.31 178.259
L396.533 192.789
L396.83 214.316
L397.054 209.754
L397.128 210.138
L397.202 210.76
L397.5 197.689
L397.574 199.118
L397.649 200.008
L397.798 198.28
L398.021 205.4
L398.393 185.823
L398.69 196.36
L398.839 194.102
L398.914 193.926
L399.137 203.073
L399.286 198.004
L399.509 188.765
L399.658 195.654
L399.732 199.31
L399.806 198.687
L400.327 185.155
L400.402 185.608
L400.55 196.637
L400.699 204.424
L400.848 200.6
L400.997 206.659
L401.443 184.318
L401.592 190.593
L401.815 210.515
L402.187 189.541
L402.262 189.771
L402.559 199.225
L402.634 198.703
L402.708 196.399
L403.08 203.011
L403.378 184.234
L403.526 197.259
L403.675 203.057
L403.75 202.696
L403.898 205.638
L404.122 201.268
L404.27 204.455
L404.791 187.797
L404.866 188.68
L404.94 188.127
L405.014 188.657
L405.089 187.528
L405.163 187.682
L405.238 187.237
L405.684 201.422
L405.758 200.577
L405.982 192.167
L406.056 193.695
L406.13 193.672
L406.205 193.373
L406.428 190.8
L406.8 203.718
L406.874 202.812
L407.023 197.766
L407.098 198.242
L407.246 201.053
L407.321 200.339
L407.395 200.961
L407.544 205.976
L407.693 201.583
L407.767 201.806
L407.842 202.005
L408.511 188.757
L408.883 203.987
L409.032 205.315
L409.478 191.007
L409.702 196.921
L409.925 195.446
L410.222 187.935
L410.371 185.255
L410.446 185.47
L410.818 190.739
L411.19 210.33
L411.264 208.487
L411.413 203.173
L411.636 189.502
L411.785 187.59
L411.859 186.315
L412.008 191.03
L412.454 222.465
L412.529 222.426
L412.603 221.558
L412.826 208.756
L413.124 190.316
L413.347 177.506
L413.422 175.64
L413.496 177.951
L413.868 205.715
L413.942 208.157
L414.017 207.197
L414.463 185.002
L414.612 186.791
L414.91 197.213
L415.207 184.049
L415.282 184.111
L415.43 198.933
L415.654 216.574
L415.728 219.039
L415.951 204.885
L416.174 198.411
L416.249 197.075
L416.546 182.39
L416.695 185.332
L416.918 192.904
L416.993 192.006
L417.216 196.268
L417.365 189.08
L417.439 189.157
L417.588 196.022
L417.96 220.614
L418.034 224.577
L418.183 215.868
L418.481 197.082
L418.927 172.921
L419.002 173.144
L419.15 181.315
L419.374 200.485
L419.448 200.822
L419.522 200.124
L419.597 198.211
L419.746 200.807
L420.118 188.435
L420.192 189.748
L420.564 202.865
L420.787 208.541
L420.862 208.487
L421.085 202.781
L421.159 202.712
L421.382 192.551
L421.457 193.68
L421.531 194.625
L421.754 184.08
L421.829 185.255
L421.903 185.078
L421.978 184.249
L422.126 188.872
L422.647 220.921
L422.722 219.493
L423.094 197.036
L423.466 176.101
L423.54 177.652
L423.912 203.603
L424.061 198.288
L424.358 179.541
L424.433 180.286
L424.507 180.263
L424.656 179.303
L424.73 181.738
L425.028 207.496
L425.102 208.564
L425.177 207.473
L425.4 199.532
L425.623 196.844
L425.698 196.975
L425.846 202.789
L425.921 202.673
L425.995 203.388
L426.218 215.53
L426.293 214.938
L426.739 199.732
L427.111 190.846
L427.483 204.079
L427.632 199.801
L428.004 170.486
L428.078 167.338
L428.153 167.522
L428.302 173.274
L428.748 204.094
L428.971 210.069
L429.046 210.645
L429.269 207.665
L429.492 212.058
L429.715 208.848
L430.087 190.862
L430.236 186.407
L430.385 179.971
L430.459 182.06
L430.906 219.308
L430.98 219.124
L431.278 198.419
L431.501 182.352
L431.575 183.466
L431.65 188.98
L431.724 188.972
L431.798 186.515
L431.873 187.567
L432.096 192.843
L432.245 194.709
L432.542 183.911
L432.617 178.689
L432.691 179.411
L433.212 217.189
L433.286 215.868
L433.51 220.775
L433.658 213.971
L433.807 204.302
L433.956 207.105
L434.626 170.525
L434.7 171.93
L435.072 205.254
L435.221 208.541
L435.295 208.349
L435.37 210.038
L435.444 209.355
L435.89 195.032
L436.039 196.552
L436.262 187.997
L436.634 176.723
L436.709 176.2
L436.783 179.495
L436.858 179.249
L437.006 173.896
L437.23 184.464
L437.676 235.137
L437.75 235.728
L437.899 234.492
L437.974 234.929
L438.346 204.286
L438.569 186.323
L438.792 179.941
L439.015 169.803
L439.09 170.172
L439.238 167.883
L439.387 173.42
L439.462 171.039
L439.536 171.685
L439.834 195.861
L440.131 226.95
L440.206 227.541
L440.28 226.919
L440.429 221.543
L440.726 205.937
L440.875 200.147
L441.024 202.612
L441.173 208.487
L441.396 190.255
L441.619 168.014
L441.768 163.843
L442.289 194.333
L442.438 198.664
L442.586 194.801
L442.661 195.285
L442.81 199.271
L443.107 218.056
L443.182 217.734
L443.256 215.906
L443.628 195.708
L443.702 194.11
L443.851 198.096
L443.926 197.128
L444.223 189.195
L444.298 189.164
L444.446 199.041
L444.521 198.396
L444.595 197.428
L444.818 206.859
L444.967 201.099
L445.042 201.79
L445.116 203.779
L445.19 201.921
L445.339 194.763
L445.488 196.706
L445.711 185.209
L445.786 185.486
L445.86 185.317
L445.934 184.479
L446.009 185.048
L446.083 182.26
L446.306 191.13
L446.678 214.961
L446.827 218.341
L447.125 207.696
L447.348 188.419
L447.422 188.911
L447.571 182.521
L447.869 167.875
L448.018 159.12
L448.092 160.91
L448.464 188.135
L448.91 226.865
L448.985 226.911
L449.134 225.329
L449.357 220.514
L449.58 206.467
L449.729 202.143
L449.803 203.28
L449.878 207.988
L449.878 207.988" style="fill:none;stroke:#808080;stroke-linecap:square;"/>
   </g>
  </g>
 </g>
 <defs>
  <clipPath id="p7ff5b81e1d">
   <rect height="345.6" width="446.4" x="72.0" y="43.2"/>
  </clipPath>
 </defs>
</svg>
