<?xml version="1.0" encoding="utf-8" standalone="no"?>
<!DOCTYPE svg PUBLIC "-//W3C//DTD SVG 1.1//EN"
  "http://www.w3.org/Graphics/SVG/1.1/DTD/svg11.dtd">
<!-- Created with matplotlib (http://matplotlib.org/) -->
<svg height="432pt" version="1.1" viewBox="0 0 576 432" width="576pt" xmlns="http://www.w3.org/2000/svg" xmlns:xlink="http://www.w3.org/1999/xlink">
 <defs>
  <style type="text/css">
*{stroke-linecap:butt;stroke-linejoin:round;}
  </style>
 </defs>
 <g id="figure_1">
  <g id="patch_1">
   <path d="
M0 432
L576 432
L576 0
L0 0
z
" style="fill:#ffffff;"/>
  </g>
  <g id="axes_1">
   <g id="line2d_1">
    <path clip-path="url(#p7ff5b81e1d)" d="
M72 241.069
L72.0744 237.313
L72.2232 221.6
L72.4464 310.586
L72.5208 306.473
L72.5952 306.56
L72.6696 286.417
L72.8928 181.591
L72.9672 184.045
L73.116 206.831
L73.2648 232.054
L73.5624 123.864
L73.6368 128.334
L73.9344 202.16
L74.1576 168.568
L74.3064 194.637
L74.5296 238.598
L74.7528 199.188
L74.8272 202.264
L75.1248 247.088
L75.1992 256.154
L75.2736 252.733
L75.4968 191.907
L75.5712 198.093
L75.7944 227.193
L75.8688 231.179
L76.092 259.645
L76.1664 260.687
L76.3896 269.483
L76.5384 272.38
L76.6128 270.439
L76.836 228.765
L76.9104 231.409
L76.9848 229.802
L77.1336 210.379
L77.4312 124.993
L77.58 174.045
L77.6544 194.614
L77.7288 191.066
L77.952 172.433
L78.1008 154.617
L78.3984 245.924
L78.696 188.463
L78.7704 195.259
L78.8448 192.84
L79.068 234.865
L79.1424 227.521
L79.2168 224.509
L79.3656 236.443
L79.44 229.935
L79.5144 234.934
L79.812 275.611
L79.8864 271.677
L80.0352 255.561
L80.1096 257.105
L80.184 261.695
L80.3328 288.917
L80.4072 287.27
L80.7048 197.707
L80.7792 199.349
L80.928 206.249
L81.3 148.736
L81.3744 150.441
L81.4488 154.029
L81.5232 163.078
L81.7464 216.589
L81.8208 212.171
L82.044 165.567
L82.1184 173.17
L82.3416 237.279
L82.416 230.395
L82.5648 194.96
L82.6392 196.025
L82.8624 238.667
L82.9368 235.245
L83.2344 184.114
L83.3088 189.885
L83.6808 269.661
L83.7552 261.148
L83.904 233.183
L84.0528 277.76
L84.2016 345.59
L84.276 339.91
L84.648 157.572
L84.7224 168.377
L84.8712 222.74
L84.9456 221.807
L85.3176 125.097
L85.392 129.233
L85.5408 182.184
L85.6896 236.161
L85.9872 191.176
L86.136 226.329
L86.2104 219.417
L86.3592 189.926
L86.4336 190.312
L86.7312 234.94
L86.9544 221.646
L87.252 236.115
L87.3264 226.467
L87.4008 230.205
L87.5496 238.661
L87.624 235.435
L87.6984 227.256
L87.7728 228.057
L87.9216 250.878
L88.0704 288.946
L88.1448 284.188
L88.368 228.201
L88.4424 237.895
L88.5912 252.831
L88.9632 165.152
L89.112 180.329
L89.1864 192.137
L89.5584 154.058
L89.6328 155.838
L89.7816 149.64
L90.0792 228.281
L90.1536 230.562
L90.3768 182.599
L90.4512 190.813
L90.6744 257.404
L91.0464 193.693
L91.1208 201.572
L91.4928 272.196
L91.5672 269.08
L91.716 234.877
L92.0136 309.613
L92.1624 286.745
L92.832 167.456
L92.9808 146.466
L93.1296 127.983
L93.204 135.517
L93.4272 180.577
L93.6504 149.761
L93.948 263.965
L94.0224 257.778
L94.2456 191.043
L94.32 197.368
L94.5432 242.474
L94.8408 186.51
L94.9152 191.337
L95.1384 234.652
L95.2128 228.172
L95.3616 252.802
L95.5104 274.056
L95.808 289.487
L95.8824 288.802
L95.9568 276.648
L96.18 176.868
L96.2544 185.94
L96.552 231.83
L96.6264 226.421
L96.8496 160.849
L96.924 153.764
L96.9984 155.371
L97.2216 207.522
L97.4448 183.169
L97.5936 156.679
L97.7424 205.743
L97.8912 247.048
L98.1888 178.008
L98.4864 242.981
L98.5608 245.665
L99.0816 202.235
L99.156 207.689
L99.3792 249.323
L99.7512 284.873
L99.8256 283.537
L100.198 231.161
L100.421 225.857
L100.718 163.971
L100.793 170.837
L100.867 174.431
L100.942 169.817
L101.09 151.357
L101.239 159.294
L101.388 147.313
L101.611 208.248
L101.686 221.035
L101.76 219.065
L101.983 187.167
L102.058 188.261
L102.355 253.533
L102.43 246.161
L102.504 223.783
L102.578 227.389
L102.727 242.82
L102.876 216.998
L102.95 219.641
L103.099 252.612
L103.174 245.907
L103.322 256.903
L103.397 250.331
L103.471 251.621
L103.694 289.458
L103.843 271.608
L103.918 271.43
L104.066 234.283
L104.141 233.327
L104.215 233.65
L104.662 156.616
L104.736 157.071
L104.81 160.394
L104.959 171.137
L105.034 171.413
L105.257 144.468
L105.331 148.396
L105.48 182.311
L105.629 238.229
L105.703 236.553
L105.926 215.644
L106.001 213.185
L106.075 218.605
L106.224 263.124
L106.373 226.3
L106.596 182.057
L106.894 253.032
L106.968 243.615
L107.191 220.385
L107.34 270.37
L107.489 315.908
L107.563 314.895
L107.638 299.769
L107.861 218.369
L108.01 197.771
L108.233 247.526
L108.605 129.284
L108.679 130.39
L109.051 189.569
L109.2 170.088
L109.274 171.056
L109.349 176.954
L109.572 237.889
L109.646 239.882
L109.721 238.914
L110.093 210.08
L110.167 208.795
L110.465 232.625
L110.539 230.534
L110.688 207.626
L110.837 187.063
L110.986 202.31
L111.134 236.973
L111.358 306.871
L111.432 310.955
L111.506 302.655
L111.804 248.787
L112.102 202.12
L112.325 138.811
L112.399 143.598
L112.622 192.892
L112.697 185.156
L112.846 150.579
L112.92 146.829
L113.069 156.535
L113.441 240.366
L113.664 201.325
L113.738 205.299
L113.962 252.687
L114.482 195.939
L114.557 196.463
L114.706 220.615
L114.854 258.159
L115.078 241.42
L115.301 279.638
L115.45 307.856
L115.822 198.986
L115.896 201.14
L115.97 197.368
L116.045 200.783
L116.194 184.477
L116.417 154.179
L116.491 152.336
L116.566 146.253
L116.64 148.73
L116.789 173.222
L116.863 173.579
L116.938 171.067
L117.161 228.99
L117.235 261.206
L117.31 254.783
L117.533 190.179
L117.607 197.437
L117.83 269.886
L118.128 197.69
L118.277 218.633
L118.426 212.574
L118.5 196.475
L118.574 197.563
L118.798 235.516
L119.021 283.082
L119.095 282.31
L119.244 298.836
L119.542 201.388
L119.616 203.467
L119.839 249.409
L119.914 236.115
L120.286 134.739
L120.509 184.534
L120.583 176.701
L120.658 171.874
L120.732 173.694
L120.806 172.922
L120.881 179.212
L121.104 230.833
L121.327 207.079
L121.699 255.515
L121.848 238.926
L121.922 239.035
L121.997 247.065
L122.071 246.823
L122.294 216.059
L122.443 189.35
L122.518 192.598
L122.592 183.434
L122.815 229.975
L123.038 294.245
L123.113 283.67
L123.262 251.857
L123.41 263.901
L123.634 248.061
L123.931 171.73
L124.08 172.173
L124.154 170.319
L124.526 137.913
L124.675 153.897
L124.898 240.942
L124.973 238.448
L125.122 223
L125.196 223.633
L125.345 232.354
L125.419 233.131
L125.568 246.126
L125.791 219.071
L125.94 232.002
L126.238 161.909
L126.535 239.012
L126.684 246.95
L126.833 275.156
L126.907 309.457
L126.982 309.353
L127.577 207.298
L127.651 211.595
L127.8 193.439
L128.023 142.705
L128.098 144.583
L128.172 158.073
L128.47 117.897
L128.544 128.34
L128.767 208.012
L128.842 237.699
L128.916 237.089
L128.99 236.489
L129.065 236.841
L129.288 260.163
L129.362 262.749
L129.437 284.81
L129.809 152.042
L129.883 172.588
L130.181 261.494
L130.404 232.008
L130.478 234.082
L130.553 245.17
L130.702 288.416
L130.776 288.882
L130.925 283.577
L131.222 206.751
L131.297 204.723
L131.446 254.772
L131.52 252.946
L131.669 192.523
L131.892 96.1816
L131.966 98.1343
L132.115 146.518
L132.264 202.546
L132.487 176.107
L132.562 178.054
L132.71 223.19
L132.859 275.75
L132.934 273.866
L133.082 244.202
L133.306 184.35
L133.529 194.551
L133.826 240.856
L134.198 192.345
L134.273 200.161
L134.496 309.019
L134.719 282.097
L134.868 242.503
L134.942 248.165
L135.017 250.613
L135.24 243.2
L135.538 126.612
L135.612 130.926
L135.835 201.377
L135.91 192.984
L136.133 150.182
L136.207 147.106
L136.356 201.48
L136.505 247.071
L136.579 253.337
L136.654 253.332
L136.802 226.139
L136.877 228.708
L136.951 229.641
L137.1 219.601
L137.249 223.512
L137.398 193.324
L137.472 196.135
L137.621 240.798
L137.844 198.318
L138.067 241.558
L138.216 227.636
L138.29 228.593
L138.588 291.083
L138.662 289.695
L139.034 219.964
L139.109 224.215
L139.258 211.883
L139.406 177.968
L139.63 140.251
L139.778 113.951
L140.15 183.878
L140.374 242.802
L140.448 252.226
L140.671 229.439
L140.746 217.902
L140.82 220.529
L140.969 251.667
L141.043 248.349
L141.118 235.291
L141.192 237.146
L141.266 238.678
L141.415 218.23
L141.49 227.867
L141.564 218.731
L141.713 175.601
L141.787 176.286
L142.01 242.503
L142.085 275.755
L142.159 273.889
L142.308 257.79
L142.457 276.159
L142.606 232.504
L142.68 238.949
L142.903 206.284
L142.978 229.652
L143.275 186.723
L143.35 185.513
L143.424 163.51
L143.498 166.275
L143.647 185.94
L143.722 184.799
L143.796 177.311
L143.87 187.743
L144.019 173.521
L144.094 174.051
L144.242 210.777
L144.391 207.413
L144.466 211.854
L144.614 235.614
L144.689 228.806
L144.763 208.824
L144.838 217.568
L144.986 236.369
L145.061 228.247
L145.21 251.707
L145.433 213.979
L145.507 213.962
L145.582 212.729
L145.656 216.566
L145.73 212.655
L145.879 187.357
L145.954 192.028
L146.474 283.537
L146.623 261.885
L146.698 265.422
L146.772 266.067
L146.921 225.862
L146.995 231.11
L147.218 200.063
L147.293 204.948
L147.442 152.86
L147.516 153.119
L147.59 163.113
L147.665 160.429
L147.814 149.813
L148.111 196.227
L148.186 191.527
L148.26 195.081
L148.558 234.18
L148.706 223.38
L148.855 243.701
L149.004 237.497
L149.078 239.842
L149.153 250.711
L149.227 250.296
L149.674 190.45
L149.748 199.412
L149.822 198.001
L149.971 166.5
L150.418 294.977
L150.566 285.317
L150.715 293.801
L151.013 225.949
L151.236 139.076
L151.31 135.096
L151.459 150.504
L151.534 147.532
L151.608 147.659
L151.757 170.705
L151.906 157.428
L152.129 197.972
L152.65 258.792
L152.947 209.999
L153.022 211.094
L153.096 215.921
L153.245 244.893
L153.319 239.773
L153.542 207.125
L153.691 242.52
L153.84 298.905
L153.914 296.175
L154.063 256.978
L154.286 204.32
L154.361 204.187
L154.435 205.011
L154.658 258.763
L154.733 250.578
L155.03 159.092
L155.179 127.568
L155.328 156.978
L155.477 173.464
L155.551 168.884
L155.7 148.793
L155.849 178.313
L156.221 267.49
L156.295 263.659
L156.518 216.007
L156.593 215.01
L156.816 271.309
L156.89 267.035
L157.262 210.114
L157.337 209.798
L157.411 203.162
L157.709 256.108
L157.932 219.803
L158.23 266.13
L158.304 265.013
L158.602 190.496
L158.676 188.301
L158.825 192.829
L158.974 179.5
L159.122 145.7
L159.271 106.308
L159.494 165.964
L159.718 210.345
L159.866 225.056
L160.164 275.611
L160.238 272.409
L160.387 284.263
L160.908 187.864
L160.982 167.669
L161.057 168.74
L161.206 217.787
L161.28 198.589
L161.429 222.758
L161.503 217.844
L161.578 214.377
L161.652 226.79
L161.875 277.794
L161.95 283.117
L162.024 276.683
L162.247 242.059
L162.322 235.562
L162.396 240.7
L162.47 236.576
L162.694 186.959
L162.917 98.4568
L162.991 94.3096
L163.289 150.308
L163.661 261.119
L163.884 289.049
L164.033 281.821
L164.107 284.413
L164.479 190.444
L164.554 197.201
L164.628 216.571
L164.702 210.011
L164.926 173.97
L165.074 185.842
L165.223 259.8
L165.298 245.982
L165.372 224.923
L165.446 235.821
L165.595 278.561
L165.67 278.941
L165.967 226.882
L166.042 228.374
L166.116 225.989
L166.265 245.521
L166.488 201.762
L166.86 154.289
L167.232 180.145
L167.306 177.415
L167.381 173.636
L167.678 221.162
L167.827 250.406
L167.902 247.877
L168.05 255.878
L168.199 218.299
L168.348 229.831
L168.422 220.984
L168.571 231.213
L168.72 222.043
L168.869 240.786
L168.943 238.511
L169.166 206.146
L169.241 209.083
L169.538 281.36
L169.613 276.735
L169.836 243.494
L169.91 232.924
L170.059 242.388
L170.282 175.952
L170.431 185.018
L170.506 185.98
L170.58 181.677
L170.803 132.879
L170.878 135.062
L171.026 161.794
L171.175 201.181
L171.25 196.123
L171.324 187.794
L171.398 190.029
L171.622 247.272
L171.77 286.095
L171.845 283.635
L171.994 256.31
L172.217 190.697
L172.291 194.113
L172.514 208.991
L172.812 232.365
L173.035 217.228
L173.11 211.249
L173.258 247.462
L173.407 292.926
L173.63 248.009
L173.705 253.597
L173.779 257.997
L173.854 256.235
L174.151 210.679
L174.3 192.483
L174.672 96.6943
L174.895 133.443
L175.193 228.114
L175.342 215.154
L175.714 300.8
L175.937 194.004
L176.011 195.985
L176.16 226.507
L176.234 250.901
L176.309 244.127
L176.606 175.727
L176.681 182.708
L176.978 280.346
L177.053 287.489
L177.127 284.009
L177.276 249.726
L177.425 258.585
L177.648 231.547
L177.722 245.009
L177.871 205.938
L178.243 127.049
L178.318 129.641
L178.615 196.699
L178.69 190.127
L178.838 151.794
L179.359 229.929
L179.434 228.886
L179.582 212.989
L179.88 271.453
L179.954 271.942
L180.029 262.179
L180.103 235.199
L180.178 236.075
L180.252 245.026
L180.401 209.199
L180.624 256.793
L180.698 253.332
L180.996 208.133
L181.219 255.048
L181.294 254.478
L181.368 252.387
L181.591 212.465
L181.666 210.27
L181.74 213.323
L181.889 172.34
L182.038 194.09
L182.112 190.761
L182.41 128.824
L182.633 145.153
L182.782 216.767
L182.93 207.315
L183.228 237.474
L183.302 238.269
L183.526 265.416
L183.898 187.645
L184.046 224.088
L184.195 268.976
L184.418 245.464
L184.642 276.349
L184.865 254.743
L184.939 248.862
L185.088 205.806
L185.162 207.914
L185.237 222.205
L185.46 188.468
L185.609 195.824
L185.832 166.05
L185.906 168.683
L185.981 185.012
L186.055 180.865
L186.204 138.898
L186.278 141.645
L186.576 187.645
L186.799 265.606
L186.874 263.636
L186.948 256.626
L187.022 257.79
L187.097 255.307
L187.171 256.909
L187.32 246.76
L187.692 178.544
L188.287 251.454
L188.362 260.589
L188.51 226.755
L188.659 256.5
L188.734 253.199
L188.808 241.155
L189.031 271.119
L189.478 224.935
L189.552 227.734
L190.147 150.717
L190.296 172.6
L190.445 162.157
L190.594 126.727
L190.668 123.899
L190.742 127.078
L191.114 262.628
L191.189 252.975
L191.338 245.129
L191.412 252.174
L191.486 251.465
L191.635 235.337
L191.858 282.293
L191.933 292.045
L192.23 235.821
L192.305 228.765
L192.379 229.094
L192.528 304.515
L192.602 297.298
L192.974 187.288
L193.049 196.4
L193.495 160.383
L193.718 136.772
L193.867 134.987
L194.314 211.612
L194.388 214.941
L194.537 238.874
L194.611 234.548
L194.76 255.63
L194.834 250.711
L194.909 236.553
L194.983 242.192
L195.058 245.158
L195.132 241.178
L195.206 243.079
L195.281 249.772
L195.43 216.134
L195.504 220.097
L195.578 219.872
L195.653 216.168
L195.802 236.991
L195.876 227.32
L196.025 242.33
L196.099 230.465
L196.174 243.096
L196.248 289.988
L196.322 282.708
L196.62 156.276
L196.843 225.563
L196.918 214.745
L196.992 219.762
L197.066 220.673
L197.141 219.192
L197.364 181.067
L197.438 181.925
L197.587 204.32
L197.885 143.753
L197.959 154.265
L198.182 249.484
L198.257 243.096
L198.406 192.569
L198.48 201.451
L198.703 239.825
L198.852 259.72
L199.075 231.087
L199.298 240.683
L199.522 207.851
L199.67 186.199
L199.968 256.828
L200.042 255.169
L200.191 263.757
L200.563 218.403
L200.638 228.011
L200.712 223.017
L200.935 200.605
L201.084 180.243
L201.307 144.715
L201.382 149.819
L201.53 167.035
L201.605 167.341
L201.679 170.192
L201.977 214.987
L202.126 170.226
L202.2 170.946
L202.498 240.487
L202.572 239.56
L202.87 263.936
L203.093 210.281
L203.167 218.115
L203.39 296.653
L203.465 286.694
L203.837 188.912
L204.209 283.186
L204.283 274.598
L204.432 216.819
L204.655 247.289
L204.73 243.448
L205.25 114.297
L205.399 103.451
L205.474 114.032
L205.548 112.586
L205.622 117.367
L205.846 192.351
L205.994 239.588
L206.069 228.454
L206.218 174.523
L206.292 174.915
L206.515 278.601
L206.59 254.115
L206.738 246.639
L206.813 248.914
L207.036 285.409
L207.11 280.916
L207.185 283.088
L207.259 282.587
L207.408 251.12
L207.557 285.392
L207.706 265.819
L207.854 282.633
L208.003 241.144
L208.078 251.212
L208.152 248.689
L208.301 237.688
L208.375 244.83
L208.45 240.85
L208.598 184.886
L208.896 78.3487
L208.97 71.1026
L209.119 88.9874
L209.194 82.0351
L209.342 115.184
L209.64 200.144
L209.863 265.606
L209.938 264.702
L210.012 266.015
L210.235 300.667
L210.31 300.834
L210.384 302.24
L210.533 285.219
L210.756 258.873
L210.83 251.373
L211.054 210.005
L211.128 209.924
L211.277 180.531
L211.426 145.061
L211.872 278.843
L212.095 245.078
L212.17 250.544
L212.244 247.289
L212.616 171.09
L212.765 110.72
L213.062 141.818
L213.286 169.403
L213.509 226.029
L213.583 219.739
L213.658 221.479
L214.03 297.396
L214.104 298.79
L214.253 235.614
L214.327 253.055
L214.402 252.859
L214.55 173.573
L214.625 180.174
L214.848 233.627
L214.922 232.665
L215.146 195.588
L215.369 265.18
L215.443 261.661
L215.592 295.115
L215.815 230.148
L215.964 237.319
L216.113 234.289
L216.262 200.121
L216.634 98.6296
L216.708 102.431
L216.857 132.349
L217.006 176.655
L217.08 159.455
L217.154 162.059
L217.601 323.598
L217.973 220.5
L218.047 236.737
L218.27 180.278
L218.419 220.684
L218.568 277.668
L218.717 237.912
L218.791 238.131
L218.866 249.426
L218.94 238.102
L219.014 241.259
L219.163 280.473
L219.238 280.415
L219.535 194.758
L219.61 198.871
L219.684 198.416
L219.758 204.406
L219.907 247.215
L219.982 241.783
L220.354 114.746
L220.651 165.693
L220.8 133.414
L221.098 169.409
L221.172 164.127
L221.321 208.098
L221.47 235.793
L221.544 234.462
L221.842 301.698
L221.99 293.444
L222.139 298.916
L222.288 271.798
L222.586 211.618
L222.66 211.353
L222.883 262.818
L223.032 267.519
L223.106 266.724
L223.181 267.035
L223.404 188.445
L223.478 197.442
L223.776 144.923
L223.85 146.875
L223.999 181.481
L224.074 175.238
L224.297 147.446
L224.371 151.184
L224.446 143.598
L224.52 145.464
L224.669 174.541
L224.743 163.597
L224.892 211.37
L224.966 209.481
L225.041 213.012
L225.264 259.017
L225.338 240.072
L225.413 241.501
L225.562 283.912
L225.71 274.943
L225.859 281.763
L226.008 260.255
L226.082 263.504
L226.157 259.725
L226.38 231.329
L226.454 226.657
L226.603 179.944
L226.752 240.781
L226.826 220.235
L226.901 209.913
L227.05 260.411
L227.124 253.649
L227.347 236.34
L227.422 240.562
L227.496 254.582
L227.868 119.366
L227.942 119.59
L228.017 143.846
L228.091 137.665
L228.24 125.057
L228.314 137.97
L228.389 137.227
L228.463 121.313
L228.538 124.82
L229.058 253.562
L229.282 295.668
L229.356 294.942
L229.579 240.498
L229.728 257.012
L229.802 252.318
L229.877 245.671
L230.1 268.331
L230.249 228.535
L230.323 236.253
L230.472 257.871
L230.695 247.209
L230.918 210.017
L230.993 205.501
L231.067 212.856
L231.216 252.986
L231.29 245.924
L231.662 140.948
L231.811 148.097
L231.886 145.378
L231.96 144.917
L232.183 87.8815
L232.258 92.1151
L232.481 163.723
L232.704 238.857
L233.15 308.409
L233.225 305.068
L233.448 279.92
L233.597 289.908
L233.82 221.531
L233.894 225.223
L233.969 223.063
L234.043 217.395
L234.192 160.901
L234.564 261.972
L234.862 222.804
L234.936 224.14
L235.01 248.977
L235.085 240.199
L235.754 138.523
L235.829 137.498
L235.978 127.182
L236.275 183.734
L236.35 176.234
L236.424 165.244
L236.722 227.302
L236.945 295.495
L237.019 297.707
L237.094 295.973
L237.242 274.638
L237.391 236.086
L237.54 274.408
L237.614 270.646
L237.763 217.055
L237.838 187.097
L237.912 187.898
L238.284 257.289
L238.358 252.594
L238.582 240.285
L238.656 240.625
L238.805 270.013
L239.102 206.561
L239.4 123.271
L239.549 106.717
L239.846 131.969
L239.921 137.55
L240.59 277.409
L240.665 272.322
L240.739 277.691
L240.814 277.121
L241.037 243.517
L241.26 282.869
L241.334 271.649
L241.632 194.004
L241.855 268.423
L242.004 296.509
L242.078 286.388
L242.302 196.976
L242.45 191.734
L242.674 224.307
L242.748 221.214
L243.046 150.268
L243.194 161.892
L243.269 160.699
L243.566 107.702
L243.641 115.564
L243.938 192.616
L244.087 238.235
L244.162 237.676
L244.236 238.385
L244.534 320.966
L244.608 302.862
L244.682 281.193
L244.831 293.853
L245.278 180.197
L245.352 174.034
L245.426 175.353
L245.724 254.328
L245.873 290.357
L246.319 207.718
L246.394 203.974
L246.542 160.895
L246.617 164.046
L246.691 164.213
L246.84 153.972
L246.989 140.033
L247.138 168.026
L247.212 169.092
L247.286 171.833
L247.584 211.174
L247.658 211.042
L247.807 195.524
L247.882 197.235
L248.179 223.207
L248.402 268.337
L248.477 262.035
L248.551 264.258
L248.626 265.745
L248.849 288.986
L249.295 216.128
L249.667 246.149
L249.742 262.565
L249.965 245.106
L250.039 252.658
L250.262 228.679
L250.56 134.71
L251.006 115.167
L251.081 117.857
L251.23 154.306
L251.602 239.151
L251.75 233.085
L252.048 288.497
L252.197 252.79
L252.271 254.939
L252.346 272.351
L252.494 224.29
L252.569 233.258
L252.643 245.947
L252.718 238.891
L252.792 243.459
L252.866 256.05
L252.941 236.703
L253.015 243.165
L253.164 263.354
L253.238 246.178
L253.387 275.364
L253.462 270.122
L253.759 219.048
L253.834 233.644
L253.982 208.934
L254.429 139.894
L254.503 139.733
L254.578 140.309
L254.652 138.904
L254.801 122.574
L255.247 216.75
L255.47 194.28
L255.768 273.906
L255.842 268.135
L255.991 232.774
L256.066 239.819
L256.289 294.401
L256.438 276.424
L256.81 226.133
L256.884 222.043
L257.182 259.645
L257.479 204.798
L257.554 209.688
L257.702 249.951
L258 184.459
L258.223 134.618
L258.372 145.003
L258.446 152.244
L258.521 151.8
L258.595 143.972
L258.818 168.953
L258.893 173.389
L258.967 162.329
L259.042 165.78
L259.116 188.584
L259.19 178.383
L259.265 173.521
L259.934 302.925
L260.009 296.203
L260.158 304.169
L260.306 297.309
L260.902 184.886
L260.976 185.225
L261.125 220.736
L261.199 220.793
L261.274 231.173
L261.422 276.545
L261.571 246.489
L261.646 244.386
L261.943 144.427
L262.018 145.453
L262.241 136.991
L262.315 116.082
L262.39 118.421
L262.91 199.355
L263.134 244.231
L263.506 278.601
L263.654 233.558
L263.878 308.213
L263.952 299.187
L264.101 263.026
L264.175 222.424
L264.25 235.862
L264.398 270.099
L264.77 188.998
L264.845 192.546
L264.994 162.589
L265.217 251.788
L265.291 242.175
L265.366 238.759
L265.514 196.55
L265.663 154.438
L265.886 174.569
L266.035 149.807
L266.11 149.778
L266.184 113.617
L266.258 113.859
L266.407 172.761
L266.482 170.802
L266.63 205.023
L266.705 200.795
L266.854 216.641
L266.928 216.209
L267.077 267.668
L267.226 246.293
L267.374 283.917
L267.449 281.135
L267.523 262.899
L267.598 279.459
L267.672 279.321
L267.97 232.642
L268.044 234.024
L268.118 248.683
L268.193 245.302
L268.267 236.703
L268.416 284.804
L268.714 203.076
L268.788 195.11
L268.862 213.726
L268.937 209.17
L269.16 192.702
L269.234 200.409
L269.309 192.552
L269.458 154.179
L269.532 156.915
L269.681 116.376
L270.127 216.548
L270.276 183.129
L270.35 185.56
L270.499 152.889
L270.797 220.189
L270.871 233.8
L270.946 231.611
L271.02 239.709
L271.169 265.468
L271.243 268.025
L271.392 287.892
L271.466 286.262
L271.541 288.237
L271.615 285.271
L271.764 251.656
L271.838 262.421
L271.913 279.557
L272.062 246.984
L272.285 193.923
L272.582 285.329
L272.657 278.434
L272.88 194.136
L273.103 108.733
L273.252 134.37
L273.326 148.851
L273.475 122.983
L273.624 133.633
L273.698 127.625
L273.773 135.378
L274.07 216.145
L274.145 222.268
L274.368 281.567
L274.442 272.852
L274.74 215.892
L274.889 240.343
L274.963 237.555
L275.112 293.393
L275.186 280.271
L275.335 265.22
L275.41 270.929
L275.558 223.576
L275.707 284.153
L275.856 227.729
L275.93 233.368
L276.079 236.921
L276.302 221.105
L276.451 234.37
L276.526 233.143
L276.749 141.029
L276.823 145.827
L276.972 181.654
L277.046 178.02
L277.418 118.415
L277.567 138.402
L277.865 190.404
L278.088 238.529
L278.237 272.006
L278.311 276.406
L278.386 268.584
L278.534 218.939
L278.609 218.973
L278.683 227.164
L278.906 298.07
L279.278 219.434
L279.353 220.5
L279.576 294.447
L279.65 292.552
L279.874 227.901
L279.948 222.107
L280.097 185.375
L280.246 233.788
L280.32 227.227
L280.692 148.603
L280.841 168.763
L280.99 150.833
L281.138 172.012
L281.213 184.552
L281.287 183.279
L281.362 183.474
L281.659 166.246
L281.882 191.153
L281.957 185.064
L282.031 191.412
L282.254 282.224
L282.403 275.571
L282.478 291.67
L282.552 283.341
L282.701 250.469
L282.998 268.36
L283.073 263.078
L283.147 272.541
L283.222 272.242
L283.594 203.865
L283.817 236.726
L283.966 283.503
L284.114 229.727
L284.338 131.882
L284.486 140.58
L284.561 129.964
L284.635 133.616
L284.71 133.599
L284.933 154.225
L285.082 156.713
L285.23 213.041
L285.379 203.421
L285.528 230.511
L285.602 220.58
L285.677 213.634
L285.826 250.146
L285.9 243.903
L285.974 237.584
L286.049 213.467
L286.421 291.572
L286.495 285.087
L286.644 252.018
L286.793 285.334
L286.942 260.376
L287.016 270.174
L287.462 183.25
L287.76 235.332
L287.983 176.92
L288.058 177.985
L288.206 168.049
L288.281 178.06
L288.43 159.444
L288.504 163.781
L288.578 150.107
L288.727 102.443
L289.174 230.868
L289.248 230.033
L289.322 226.87
L289.397 218.276
L289.471 219.497
L289.769 248.816
L289.918 228.178
L290.215 299.469
L290.29 301.986
L290.438 232.757
L290.513 236.04
L290.736 257.231
L290.81 290.645
L290.885 280.012
L291.034 256.327
L291.257 174.662
L291.331 183.106
L291.48 201.895
L291.629 196.216
L291.703 198.312
L291.852 166.206
L292.001 151.063
L292.075 153.511
L292.15 150.003
L292.373 182.351
L292.447 181.101
L292.522 183.595
L292.745 203.813
L292.894 184.776
L292.968 202.984
L293.042 197.414
L293.117 189.2
L293.191 193.197
L293.34 231.202
L293.414 228.616
L293.489 233.275
L293.935 312.562
L294.01 310.937
L294.233 184.678
L294.307 190.087
L294.53 253.66
L294.679 193.451
L295.051 297.39
L295.126 287.673
L295.349 262.231
L295.646 122.349
L295.721 124.457
L295.795 142.411
L295.944 111.924
L296.018 127.625
L296.093 154.127
L296.167 148.868
L296.242 127.205
L296.316 138.46
L296.465 183.469
L296.539 188.071
L296.762 266.557
L296.837 259.011
L297.134 219.567
L297.283 224.941
L297.358 215.108
L297.432 220.05
L297.581 260.693
L297.655 255.06
L297.878 296.543
L298.102 284.712
L298.325 189.171
L298.474 223.167
L298.548 221.03
L298.697 197.033
L298.771 200.443
L298.994 249.052
L299.292 168.89
L299.515 203.323
L299.59 197.321
L299.738 151.771
L299.887 106.469
L300.706 258.124
L300.854 267.628
L301.003 247.468
L301.078 238.914
L301.301 286.625
L301.524 267.058
L301.598 240.02
L301.673 244.49
L301.747 260.647
L301.896 248.188
L301.97 258.118
L302.194 226.553
L302.268 241.46
L302.342 229.301
L302.566 170.342
L302.64 171.269
L302.789 197.575
L302.938 181.533
L303.012 181.061
L303.161 145.689
L303.533 227.124
L303.607 220.926
L303.905 154.876
L303.979 152.393
L304.649 242.843
L304.872 299.475
L304.946 284.274
L305.095 307.977
L305.244 289.948
L305.318 290.104
L305.542 223.702
L305.616 231.507
L305.765 214.751
L305.839 221.571
L305.914 232.959
L306.062 196.872
L306.211 227.527
L306.286 220.77
L306.434 254.61
L306.583 208.53
L306.658 210.161
L306.732 206.843
L306.881 151.679
L306.955 156.886
L307.03 160.354
L307.253 136.283
L307.327 136.784
L307.402 144.641
L307.476 136.548
L307.997 229.145
L308.071 229.497
L308.518 278.526
L308.741 242.238
L308.89 218.04
L309.262 292.01
L309.708 211.658
L309.857 237.313
L310.006 196.843
L310.08 210.293
L310.154 222.274
L310.303 160.371
L310.452 202.736
L310.526 198.468
L310.675 163.81
L310.75 163.81
L310.824 162.001
L310.973 141.945
L311.047 113.807
L311.122 115.564
L311.345 164.109
L311.642 222.36
L311.791 239.513
L311.866 233.725
L311.94 239.012
L312.163 278.9
L312.238 272.968
L312.386 222.36
L312.461 232.129
L312.61 299.423
L312.684 297.868
L312.907 216.387
L312.982 221.018
L313.354 319.238
L313.8 154.075
L313.874 159.974
L313.949 173.734
L314.023 170.008
L314.098 172.634
L314.172 187.506
L314.395 114.677
L314.618 174.892
L314.767 200.305
L314.916 180.272
L315.065 192.616
L315.139 189.839
L315.214 173.936
L315.437 223.708
L315.66 184.943
L315.883 222.671
L316.181 276.32
L316.255 282.569
L316.33 280.306
L316.404 272.426
L316.553 232.544
L316.627 234.134
L316.776 259.864
L316.925 291.59
L317.222 248.107
L317.371 296.705
L317.446 280.761
L317.669 226.905
L317.743 208.248
L317.966 95.9973
L318.487 168.631
L318.562 167.439
L318.636 156.84
L319.008 218.432
L319.082 219.555
L319.157 222.464
L319.529 257.047
L319.603 253.723
L319.901 195.536
L320.273 300.184
L320.422 294.798
L320.496 298.271
L320.57 297.004
L320.719 242.929
L320.794 246.518
L320.868 246.817
L320.942 275.254
L321.017 266.551
L321.538 134.393
L321.686 118.185
L321.761 118.542
L321.91 153.396
L322.058 177.455
L322.133 169.051
L322.207 169.144
L322.282 182.219
L322.43 154.024
L322.505 165.031
L322.802 232.538
L322.877 228.662
L322.951 224.566
L323.1 242.474
L323.174 236.334
L323.249 233.777
L323.323 241.282
L323.398 236.248
L323.77 285.513
L323.844 278.814
L323.993 232.198
L324.142 251.909
L324.29 228.552
L324.514 306.22
L324.588 284.355
L324.662 286.717
L324.737 296.036
L324.811 277.673
L325.034 178.941
L325.183 167.761
L325.258 169.305
L325.481 122.614
L325.63 111.019
L325.704 111.089
L325.927 168.648
L326.076 149.156
L326.299 207.989
L326.448 235.62
L326.522 239.888
L326.597 231.668
L326.671 244.611
L326.82 223.265
L326.894 228.633
L326.969 243.805
L327.043 232.913
L327.118 234.364
L327.266 264.673
L327.415 247.554
L327.49 259.207
L327.564 250.337
L327.638 252.249
L327.862 281.579
L327.936 278.054
L328.085 239.416
L328.159 254.893
L328.308 235.084
L328.382 241.074
L328.457 251.005
L328.606 230.119
L328.754 242.376
L329.201 155.896
L329.275 165.641
L329.498 132.809
L329.573 135.828
L329.647 135.989
L329.722 133.288
L329.796 139.802
L330.019 196.187
L330.168 188.324
L330.242 194.165
L330.466 235.937
L330.614 242.658
L330.763 279.252
L330.838 273.797
L331.284 213.432
L331.358 217.839
L331.656 290.57
L331.73 288.065
L331.879 256.54
L331.954 270.157
L332.102 241.069
L332.177 244.939
L332.251 247.935
L332.326 246.915
L332.921 149.116
L333.07 141.53
L333.293 163.476
L333.59 123.778
L333.665 130.546
L333.962 208.323
L334.111 250.434
L334.186 247.433
L334.558 286.648
L334.706 249.582
L334.855 220.77
L334.93 227.112
L335.004 258.625
L335.078 251.684
L335.153 247.336
L335.302 216.629
L335.748 306.278
L335.822 301.307
L336.12 215.921
L336.269 160.446
L336.343 165.267
L336.418 169.944
L336.492 166.603
L336.566 171.154
L336.641 162.088
L336.79 119.538
L336.938 125.759
L337.236 187.357
L337.31 166.73
L337.385 168.827
L337.534 154.934
L337.682 195.709
L337.757 194.027
L337.906 232.665
L337.98 229.416
L338.054 218.011
L338.129 221.214
L338.501 313.766
L338.575 316.824
L338.724 306.427
L339.096 219.526
L339.17 214.164
L339.319 219.889
L339.542 274.154
L339.617 233.944
L339.691 237.025
L339.766 254.754
L339.989 194.067
L340.063 205.593
L340.138 217.32
L340.361 157.877
L340.584 93.2844
L340.658 99.0098
L340.882 153.292
L341.477 231.72
L341.551 228.806
L341.626 223.017
L341.7 224.52
L341.923 255.319
L342.072 263.849
L342.146 254.633
L342.295 217.021
L342.444 260.935
L342.518 242.238
L342.593 247.082
L342.742 273.912
L342.816 270.514
L342.965 289.487
L343.337 228.351
L343.411 241.046
L343.486 234.18
L343.709 192.621
L343.783 187.599
L343.858 192.443
L344.304 133.351
L344.453 167.98
L344.527 156.932
L344.602 153.309
L344.676 166.563
L344.75 160.129
L344.825 142.619
L344.899 145.378
L345.122 202.373
L345.197 228.391
L345.271 217.954
L345.346 224.612
L345.569 263.93
L345.643 264.425
L345.792 269.287
L346.015 298.98
L346.09 287.408
L346.164 297.309
L346.238 283.491
L346.387 226.006
L346.462 227.849
L346.61 220.31
L346.908 258.723
L346.982 259.184
L347.057 258.809
L347.206 276.919
L347.652 157.842
L347.726 169.639
L347.801 158.925
L347.95 122.948
L348.024 139.554
L348.098 134.802
L348.173 128.052
L348.322 185.26
L348.396 181.787
L348.545 159.818
L348.619 164.841
L348.694 158.309
L348.768 165.745
L348.842 202.874
L348.917 202.131
L348.991 190.997
L349.14 244.784
L349.289 204.775
L349.438 235.89
L349.735 292.206
L349.884 285.127
L349.958 290.76
L350.033 280.646
L350.107 291.682
L350.256 261.793
L350.479 211.531
L350.628 237.325
L350.702 223.846
L350.777 226.882
L350.926 243.845
L351.074 233.402
L351.149 233.897
L351.223 234.485
L351.298 242.762
L351.372 234.283
L351.521 200.219
L351.595 203.197
L351.818 111.515
L351.967 118.507
L352.042 122.303
L352.19 145.833
L352.339 130.603
L352.488 187.587
L352.637 150.712
L353.083 260.687
L353.158 262.605
L353.306 298.3
L353.381 294.591
L353.678 245.239
L353.827 286.049
L353.976 270.566
L354.125 252.635
L354.199 238.984
L354.274 249.605
L354.422 220.442
L354.571 244.179
L355.018 199.804
L355.092 204.746
L355.241 181.879
L355.315 186.729
L355.464 155.187
L355.538 128.587
L355.613 139.433
L355.762 172.778
L355.836 172.116
L356.059 115.743
L356.506 224.969
L356.729 254.968
L356.803 248.09
L357.101 302.632
L357.175 297.787
L357.398 239.081
L357.473 243.62
L357.622 261.085
L357.696 252.969
L357.919 218.657
L358.217 264.973
L358.291 264.063
L358.514 248.488
L358.738 180.255
L358.812 177.161
L359.035 203.364
L359.11 200.801
L359.184 191.124
L359.407 126.859
L359.705 170.273
L359.779 173.458
L359.854 164.91
L359.928 167.081
L360.002 167.11
L360.077 165.774
L360.598 240.13
L360.746 248.822
L360.821 244.784
L361.044 295.172
L361.193 288.468
L361.416 252.669
L361.49 252.548
L361.565 267.697
L361.639 262.087
L361.788 224.509
L361.862 225.897
L362.086 254.253
L362.16 254.046
L362.458 230.689
L362.606 198.646
L362.681 205.345
L362.83 189.257
L363.202 126.191
L363.35 142.745
L363.499 177.576
L363.648 164.714
L364.169 209.602
L364.243 206.221
L364.541 261.551
L364.615 275.911
L364.69 269.552
L364.913 229.958
L365.359 285.841
L365.731 239.047
L365.954 220.937
L366.029 222.74
L366.103 236.852
L366.326 206.86
L366.401 209.775
L366.475 221.329
L366.996 119.043
L367.219 201.405
L367.591 154.853
L368.038 200.242
L368.261 273.382
L368.335 271.672
L368.41 254.887
L368.484 260.255
L368.707 302.925
L368.782 296.964
L369.005 260.169
L369.228 224.209
L369.302 234.329
L369.451 210.391
L369.674 234.214
L369.823 249.651
L369.972 229.969
L370.046 234.75
L370.121 232.457
L370.27 209.959
L370.344 204.257
L370.716 139.393
L370.865 183.613
L371.014 129.065
L371.162 151.777
L371.237 136.386
L371.311 139.353
L371.609 238.027
L371.683 239.035
L371.758 220.937
L371.832 221.502
L371.906 234.802
L371.981 232.481
L372.055 218.42
L372.13 219.1
L372.353 267.219
L372.427 264.362
L372.502 252.283
L372.576 255.06
L372.725 286.625
L372.799 285.72
L373.246 222.982
L373.32 230.971
L373.543 207.148
L373.841 245.947
L373.99 208.438
L374.064 209.158
L374.138 207.753
L374.213 208.6
L374.362 196.383
L374.585 153.338
L374.659 155.729
L374.734 170.146
L374.808 166.258
L374.882 140.954
L375.106 193.842
L375.254 171.309
L375.329 171.73
L375.403 149.992
L375.478 151.852
L375.701 207.857
L375.998 256.246
L376.147 287.489
L376.296 253.418
L376.37 256.367
L376.519 226.15
L376.668 249.081
L376.742 222.591
L376.817 233.696
L376.891 274.016
L376.966 254.276
L377.04 228.558
L377.189 284.626
L377.338 244.582
L377.486 275.56
L377.858 191.279
L377.933 203.755
L378.007 200.282
L378.156 184.563
L378.305 155.446
L378.379 162.727
L378.528 151.892
L378.602 154.571
L378.677 163.343
L378.751 156.057
L378.826 136.553
L378.9 138.402
L379.123 183.042
L379.421 172.876
L379.867 303.438
L379.942 301.468
L380.611 234.105
L380.76 183.647
L380.834 185.012
L381.132 267.202
L381.281 281.855
L381.355 278.486
L381.578 214.682
L381.727 174.161
L381.802 175.41
L381.95 207.004
L382.099 187.558
L382.248 110.587
L382.322 113.744
L382.62 182.933
L382.694 193.393
L382.843 161.287
L382.918 163.101
L383.066 183.855
L383.215 231.887
L383.364 225.183
L383.438 236.046
L383.736 211.802
L383.885 250.797
L384.034 298.767
L384.108 294.043
L384.257 255.037
L384.331 228.483
L384.48 274.171
L384.554 268.095
L384.852 197.074
L385.001 230.868
L385.15 220.068
L385.447 269.183
L385.745 182.173
L385.894 169.518
L385.968 188.664
L386.042 184.868
L386.117 185.525
L386.414 147.803
L386.489 151.097
L386.563 162.03
L386.712 132.798
L386.786 137.89
L387.158 220.834
L387.307 225.972
L387.53 277.57
L387.605 262.265
L387.754 244.047
L387.828 253.735
L388.051 216.589
L388.274 279.113
L388.349 278.273
L388.572 227.262
L388.721 262.035
L389.093 205.679
L389.242 262.726
L389.614 190.83
L389.762 176.361
L389.911 154.479
L389.986 147.158
L390.06 150.066
L390.209 190.628
L390.358 205.927
L390.581 173.855
L390.655 174.143
L390.878 142.463
L391.697 302.776
L391.846 267.985
L391.92 269.005
L391.994 257.225
L392.069 197.99
L392.143 211.883
L392.218 250.964
L392.292 239.035
L392.366 235.165
L392.515 263.585
L392.59 251.581
L392.813 268.78
L392.962 264.103
L393.11 211.664
L393.185 219.762
L393.259 218.023
L393.408 203.076
L393.482 208.484
L393.78 167.629
L393.854 135.471
L393.929 137.279
L394.003 165.797
L394.152 121.111
L394.524 205.529
L394.598 194.188
L394.673 195.663
L394.896 224.082
L394.97 237.071
L395.045 236.115
L395.194 205.351
L395.268 212.061
L395.342 204.228
L395.566 263.112
L395.64 255.82
L395.714 249.905
L395.789 255.901
L395.938 247.215
L396.086 254.979
L396.235 237.48
L396.384 267.017
L396.458 269.609
L396.682 236.824
L396.756 237.094
L396.83 240.372
L396.979 272.524
L397.202 216.738
L397.277 216.733
L397.351 215.742
L397.649 155.153
L397.798 130.448
L397.872 135.327
L397.946 133.961
L398.021 127.637
L398.244 161.379
L398.393 192.696
L398.542 160.002
L398.914 271.263
L398.988 262.772
L399.062 248.977
L399.211 279.413
L399.36 269.633
L399.434 269.356
L399.806 192.184
L399.881 207.413
L400.178 260.336
L400.253 261.736
L400.327 238.546
L400.402 249.282
L400.476 269.529
L400.55 265.18
L400.625 245.838
L400.774 278.221
L401.071 202.315
L401.146 198.531
L401.22 209.757
L401.294 202.356
L401.592 143.419
L401.666 142.815
L401.741 134.912
L401.815 135.108
L401.964 172.162
L402.038 172.116
L402.113 170.647
L402.262 180.819
L402.41 168.786
L402.708 211.215
L402.782 203.813
L403.229 270.692
L403.303 272.916
L403.378 268.106
L403.526 277.132
L403.824 228.385
L403.973 263.32
L404.196 194.061
L404.27 214.97
L404.568 276.17
L404.642 270.335
L405.014 200.207
L405.089 200.726
L405.535 163.009
L405.684 122.534
L406.056 175.514
L406.13 174.328
L406.279 162.111
L406.502 224.244
L406.726 266.021
L406.8 261.436
L407.023 233.736
L407.098 231.657
L407.172 234.491
L407.395 275.951
L407.693 179.967
L407.842 245.596
L407.916 243.355
L408.065 197.995
L408.139 209.936
L408.437 288.347
L408.511 269.558
L408.66 291.901
L408.734 288.738
L408.809 281.74
L409.032 212.539
L409.106 209.164
L409.553 83.8898
L409.627 96.2796
L409.999 172.358
L410.148 160.187
L410.371 217.689
L410.594 253.66
L410.669 256.281
L410.743 253.856
L410.818 262.145
L410.892 289.481
L410.966 277.535
L411.115 244.173
L411.264 262.801
L411.562 213.784
L411.636 201.653
L411.71 213.928
L411.785 247.583
L411.859 239.404
L412.008 219.544
L412.157 235.205
L412.231 239.899
L412.38 269.16
L412.454 254.766
L412.529 256.5
L412.603 263.389
L412.678 281.556
L412.752 279.845
L412.975 190.237
L413.05 193.117
L413.198 177.092
L413.347 138.927
L413.496 116.595
L413.794 170.595
L413.868 162.479
L413.942 144.128
L414.017 147.889
L414.166 170.572
L414.24 170.532
L414.612 252.802
L414.686 260.756
L414.761 258.585
L415.058 276.21
L415.133 271.303
L415.207 275.583
L415.282 273.227
L415.43 215.679
L415.505 222.337
L415.579 236.098
L415.728 207.338
L415.802 218.893
L415.951 193.658
L416.026 201.797
L416.1 235.476
L416.174 234.831
L416.249 229.687
L416.398 285.968
L416.472 272.76
L416.546 272.979
L416.621 275.744
L416.77 234.721
L416.844 239.617
L416.918 236.046
L417.067 258.504
L417.514 113.462
L417.662 120.863
L417.737 105.847
L418.481 251.126
L418.555 250.751
L418.778 229.508
L419.076 264.938
L419.15 266.211
L419.299 221.369
L419.374 231.812
L419.448 230.217
L419.597 191.826
L419.894 224.728
L420.043 261.534
L420.192 253.153
L420.341 300.161
L420.564 288.41
L421.159 142.941
L421.308 148.315
L421.382 137.199
L421.457 140.632
L421.531 142.325
L421.68 115.748
L421.829 149.94
L421.903 135.903
L422.052 171.2
L422.126 161.84
L422.573 263.009
L422.722 248.436
L422.87 274.753
L423.466 204.441
L423.614 243.246
L423.689 239.266
L423.763 244.196
L423.838 271.291
L423.912 259.898
L424.061 237.135
L424.135 241.086
L424.358 274.667
L424.507 239.997
L424.582 254.841
L424.656 254.38
L424.954 179.442
L425.028 168.545
L425.102 175.169
L425.474 96.5906
L425.549 108.139
L425.772 170.065
L425.846 167.865
L425.995 146.605
L426.367 254.011
L426.442 260.186
L426.516 245.93
L426.59 247.065
L426.739 272.645
L426.962 254.374
L427.037 249.668
L427.111 251.321
L427.186 261.689
L427.558 214.054
L427.632 218.559
L427.706 236.916
L427.781 229.808
L427.855 209.671
L427.93 214.601
L428.227 305.137
L428.525 231.421
L428.599 233.73
L428.822 213.098
L429.046 176.562
L429.12 162.065
L429.194 164.345
L429.269 161.857
L429.492 124.907
L429.641 151.599
L429.715 150.015
L429.864 165.457
L429.938 155.112
L430.013 163.839
L430.31 245.014
L430.459 239.45
L430.608 265.457
L430.757 248.165
L430.831 251.673
L430.906 250.769
L430.98 242.699
L431.054 246.742
L431.129 257.341
L431.203 251.483
L431.426 191.492
L431.501 196.907
L431.65 234.929
L431.798 205.576
L431.873 216.427
L432.17 296.365
L432.394 269.995
L432.468 271.24
L432.542 268.688
L432.617 262.289
L432.989 163.199
L433.212 133.604
L433.361 95.3464
L433.658 156.12
L433.733 150.101
L433.956 194.418
L434.03 189.77
L434.105 197.886
L434.254 239.801
L434.328 239.398
L434.477 278.745
L434.626 239.381
L434.774 265.779
L434.849 251.788
L434.923 252.001
L434.998 266.712
L435.072 258.251
L435.221 207.361
L435.518 242.123
L435.593 250.152
L435.742 240.579
L435.965 270.376
L436.114 249.553
L436.262 224.445
L436.486 266.585
L437.006 141.19
L437.081 144.744
L437.23 112.926
L437.527 174.379
L437.602 175.721
L437.75 171.24
L437.825 174.777
L437.899 188.307
L437.974 177.421
L438.122 200.311
L438.346 269.54
L438.42 265.295
L438.569 227.896
L438.718 254.605
L438.866 280.047
L438.941 271.17
L439.238 220.788
L439.313 214.515
L439.462 232.273
L439.536 222.942
L439.61 231.778
L439.685 255.29
L439.759 252.756
L439.982 236.006
L440.057 236.576
L440.131 242.906
L440.28 272.766
L440.652 224.877
L440.726 235.608
L441.024 200.299
L441.396 72.2488
L441.47 84.7365
L441.694 156.005
L441.768 185.099
L441.842 181.274
L441.917 166.367
L441.991 168.089
L442.289 244.404
L442.438 249.208
L442.586 230.879
L442.661 238.77
L442.81 265.86
L442.958 228.552
L443.033 229.007
L443.256 239.519
L443.33 245.464
L443.479 216.162
L443.702 251.465
L443.777 252.733
L443.926 247.001
L444 244.052
L444.223 279.062
L444.446 240.539
L444.595 250.613
L444.744 227.965
L445.116 153.724
L445.19 158.499
L445.339 119.527
L445.488 142.722
L445.562 127.441
L445.637 137.343
L445.711 165.538
L445.786 154.191
L445.86 151.668
L446.009 181.096
L446.083 181.919
L446.232 240.412
L446.306 222.792
L446.753 288.998
L446.827 259.99
L446.902 262.312
L446.976 267.115
L447.05 258.493
L447.199 229.203
L447.274 223.737
L447.348 190.732
L447.422 203.421
L447.72 266.695
L447.869 224.082
L448.241 266.562
L448.315 242.993
L448.39 245.51
L448.464 259.668
L448.538 253.447
L448.687 230.499
L448.985 175.698
L449.059 175.174
L449.357 82.9509
L449.729 193.992
L449.878 136.081
L449.878 136.081" style="fill:none;stroke:#808080;stroke-linecap:square;"/>
   </g>
  </g>
 </g>
 <defs>
  <clipPath id="p7ff5b81e1d">
   <rect height="345.6" width="446.4" x="72.0" y="43.2"/>
  </clipPath>
 </defs>
</svg>
