<?xml version="1.0" encoding="utf-8" standalone="no"?>
<!DOCTYPE svg PUBLIC "-//W3C//DTD SVG 1.1//EN"
  "http://www.w3.org/Graphics/SVG/1.1/DTD/svg11.dtd">
<!-- Created with matplotlib (http://matplotlib.org/) -->
<svg height="432pt" version="1.1" viewBox="0 0 576 432" width="576pt" xmlns="http://www.w3.org/2000/svg" xmlns:xlink="http://www.w3.org/1999/xlink">
 <defs>
  <style type="text/css">
*{stroke-linecap:butt;stroke-linejoin:round;}
  </style>
 </defs>
 <g id="figure_1">
  <g id="patch_1">
   <path d="
M0 432
L576 432
L576 0
L0 0
z
" style="fill:#ffffff;"/>
  </g>
  <g id="axes_1">
   <g id="line2d_1">
    <path clip-path="url(#p7ff5b81e1d)" d="
M72 191.704
L72.0744 226.333
L72.2232 249.489
L72.372 244.823
L72.5952 208.961
L72.6696 214.813
L72.9672 235.78
L73.1904 187.81
L73.4136 228.683
L73.6368 200.897
L73.7856 151.741
L73.86 164.459
L74.0832 241.16
L74.1576 253.636
L74.232 252.634
L74.4552 181.866
L74.5296 185.472
L74.6784 198.178
L74.9016 248.383
L75.0504 232.22
L75.4968 257.034
L75.72 173.998
L75.7944 174.989
L76.1664 233.28
L76.2408 228.948
L76.464 176.314
L76.5384 182.707
L76.7616 249.581
L76.836 246.701
L77.1336 185.242
L77.208 190.967
L77.4312 254.362
L77.5056 245.272
L77.7288 159.575
L78.0264 257.702
L78.1008 256.539
L78.324 182.016
L78.3984 183.894
L78.696 255.352
L79.068 198.34
L79.1424 204.676
L79.3656 259.799
L79.44 253.59
L79.7376 166.176
L80.0352 265.559
L80.1096 255.986
L80.4072 140.44
L80.7048 274.222
L81.0024 156.948
L81.0768 164.701
L81.3 241.044
L81.4488 217.486
L81.672 168.157
L81.7464 178.295
L81.9696 258.555
L82.1928 226.426
L82.3416 243.003
L82.4904 223.004
L82.7136 240.906
L82.8624 204.561
L83.0112 152.386
L83.0856 169.355
L83.3088 264.395
L83.4576 227.75
L83.6064 174.194
L83.7552 211.219
L83.904 256.781
L83.9784 255.053
L84.2016 189.458
L84.4248 244.938
L84.5736 210.781
L84.7968 183.444
L85.02 198.363
L85.2432 226.103
L85.392 210.678
L85.5408 216.852
L85.6896 201.6
L85.9872 286.975
L86.0616 267.322
L86.2848 166.66
L86.508 243.844
L86.5824 236.218
L86.8056 182.327
L86.88 180.691
L87.252 242.104
L87.4008 193.087
L87.4752 193.271
L87.6984 242.542
L87.8472 230.734
L87.996 212.106
L88.0704 212.383
L88.1448 217.705
L88.2936 208.95
L88.368 218.891
L88.5168 210.217
L88.6656 212.44
L88.8888 184.182
L89.112 261.02
L89.1864 258.958
L89.484 199.296
L89.5584 203.777
L89.7072 228.81
L89.7816 228.637
L90.0792 193.916
L90.3024 236.206
L90.5256 204.319
L90.6744 221.195
L90.8232 238.66
L91.0464 200.448
L91.1208 187.684
L91.1952 193.363
L91.344 209.549
L91.4928 199.895
L91.5672 203.236
L91.716 227.912
L91.7904 226.852
L91.9392 235.135
L92.1624 192.833
L92.5344 231.656
L92.6832 215.251
L92.7576 215.85
L92.832 224.755
L93.0552 212.532
L93.1296 216.541
L93.2784 236.218
L93.4272 227.151
L93.5016 236.229
L93.576 232.992
L93.7248 199.953
L94.0968 234.363
L94.3944 176.141
L94.692 219.076
L94.8408 224.962
L94.9896 209.629
L95.064 210.793
L95.1384 208.546
L95.2128 208.593
L95.3616 232.957
L95.436 245.007
L95.5104 242.634
L95.9568 192.384
L96.18 229.455
L96.4776 190.161
L96.552 198.708
L96.7008 217.233
L96.9984 206.242
L97.0728 207.821
L97.4448 244.823
L97.668 217.279
L97.7424 220.562
L97.8912 205.655
L98.1144 227.186
L98.5608 195.16
L98.8584 219.306
L99.0816 231.851
L99.156 234.075
L99.3048 254.396
L99.3792 252.15
L99.6768 185.38
L99.7512 183.375
L99.9744 196.819
L100.123 189.446
L100.495 235.492
L100.57 233.499
L100.718 225.009
L100.793 224.824
L100.867 225.861
L101.09 200.298
L101.165 205.92
L101.314 240.008
L101.537 223.868
L101.76 210.263
L101.909 225.193
L101.983 230.089
L102.206 217.901
L102.43 172.892
L102.653 221.921
L102.727 213.5
L102.802 206.312
L103.025 237.393
L103.248 217.14
L103.322 218.338
L103.397 221.345
L103.546 233.533
L103.769 194.676
L103.918 231.01
L103.992 225.538
L104.141 196.692
L104.215 199.618
L104.438 226.771
L104.513 227.128
L104.587 228.626
L104.662 227.796
L104.885 195.794
L105.108 217.981
L105.331 190.909
L105.554 220.297
L105.778 229.789
L105.852 235.584
L105.926 258.29
L106.001 257.357
L106.224 235.158
L106.298 232.692
L106.447 191.727
L106.67 217.889
L106.745 211.991
L106.968 200.091
L107.117 184.815
L107.266 202.141
L107.414 199.642
L107.563 205.989
L107.638 210.666
L107.786 228.614
L108.01 232.923
L108.084 241.378
L108.158 240.814
L108.233 240.975
L108.456 214.088
L108.53 213.938
L108.605 211.807
L108.754 197.073
L108.902 223.707
L108.977 219.871
L109.126 197.003
L109.274 209.664
L109.423 192.511
L109.572 227.808
L109.646 223.234
L109.721 224.513
L109.795 224.064
L109.87 230.216
L109.944 229.306
L110.018 219.226
L110.242 260.271
L110.465 199.803
L110.614 207.441
L110.762 190.898
L110.986 215.09
L111.06 224.893
L111.134 224.294
L111.283 201.784
L111.506 213.696
L111.581 212.936
L111.655 215.804
L111.73 212.083
L111.878 181.509
L111.953 192.753
L112.102 242.611
L112.176 238.153
L112.325 217.233
L112.548 242.542
L112.622 242.104
L112.697 242.657
L112.92 210.966
L113.143 225.331
L113.218 224.363
L113.441 200.621
L113.59 225.423
L113.738 202.303
L113.813 193.167
L114.036 206.185
L114.185 198.962
L114.259 203.743
L114.334 203.305
L114.408 204.261
L114.482 202.268
L114.557 197.13
L114.78 237.312
L114.854 230.861
L114.929 222.912
L115.003 224.202
L115.078 224.939
L115.45 206.507
L115.747 238.844
L115.822 236.01
L115.896 226.817
L116.045 192.269
L116.194 226.402
L116.268 247.749
L116.342 244.593
L116.566 196.301
L116.789 215.85
L116.863 212.878
L117.012 223.073
L117.161 220.642
L117.235 223.361
L117.31 232.324
L117.384 226.46
L117.533 205.517
L117.607 215.009
L117.682 212.106
L117.83 188.191
L118.054 198.996
L118.277 250.71
L118.5 186.612
L118.574 193.156
L118.798 238.579
L118.946 229.928
L119.021 227.866
L119.17 208.881
L119.318 221.564
L119.393 218.753
L119.467 201.047
L119.542 205.448
L119.765 232.646
L119.914 246.724
L120.062 189.723
L120.137 195.805
L120.286 235.538
L120.434 227.554
L120.509 233.28
L120.658 192.119
L120.732 193.098
L121.03 169.471
L121.104 172.374
L121.253 212.36
L121.402 246.793
L121.625 224.698
L121.774 233.096
L121.848 232.266
L121.922 228.937
L122.071 215.862
L122.146 219.433
L122.22 219.226
L122.294 217.532
L122.518 225.585
L122.741 215.85
L122.815 218.707
L122.964 249.742
L123.038 246.447
L123.187 200.598
L123.262 202.141
L123.41 228.948
L123.634 209.03
L123.708 200.183
L123.782 202.833
L124.006 232.831
L124.08 232.37
L124.303 187.004
L124.452 214.341
L124.526 214.226
L124.675 201.761
L124.75 198.006
L124.824 198.962
L124.898 204.641
L125.047 199.054
L125.196 204.319
L125.345 198.248
L125.568 225.757
L125.717 209.917
L125.791 211.138
L126.014 243.13
L126.089 237.784
L126.163 227.29
L126.238 228.211
L126.535 253.498
L126.61 244.339
L126.758 199.526
L126.982 238.752
L127.205 211.104
L127.279 212.21
L127.428 216.714
L127.577 202.21
L127.651 206.3
L127.8 223.983
L127.874 221.069
L127.949 213.5
L128.023 213.846
L128.098 213.938
L128.172 211.092
L128.395 183.56
L128.47 187.281
L128.544 185.91
L128.618 187.983
L128.767 185.265
L128.99 224.237
L129.065 218.016
L129.139 214.468
L129.511 260.824
L129.586 261.896
L129.809 228.718
L129.883 230.227
L129.958 239.812
L130.032 235.642
L130.255 191.059
L130.33 197.787
L130.404 218.961
L130.478 212.855
L130.627 190.333
L130.776 190.564
L130.85 192.614
L130.925 189.366
L131.148 221.161
L131.297 208.017
L131.52 222.509
L131.594 217.129
L131.669 217.244
L131.818 228.384
L131.966 225.366
L132.041 228.292
L132.115 226.656
L132.19 220.654
L132.264 221.656
L132.413 223.937
L132.487 224.548
L132.562 223.188
L132.785 206.289
L132.859 208.512
L133.008 222.797
L133.157 215.793
L133.231 217.878
L133.454 210.92
L133.603 219.686
L133.678 225.78
L133.826 216.553
L133.901 220.205
L134.198 212.774
L134.422 180.173
L134.719 243.279
L134.794 240.572
L135.017 204.826
L135.166 229.029
L135.24 228.292
L135.463 199.872
L135.686 237.646
L135.984 200.747
L136.058 204.618
L136.282 244.858
L136.356 233.902
L136.505 193.225
L136.579 197.602
L136.728 217.509
L136.951 180.438
L137.323 252.438
L137.398 245.272
L137.621 201.243
L137.77 224.456
L137.918 203.351
L137.993 209.641
L138.142 243.475
L138.216 240.987
L138.365 229.57
L138.588 206.346
L138.662 205.759
L138.886 216.334
L139.034 200.045
L139.109 202.441
L139.183 208.915
L139.406 188.951
L139.555 212.705
L139.778 196.07
L140.002 222.152
L140.15 218.177
L140.299 225.193
L140.448 252.438
L140.522 252.322
L140.82 209.698
L141.043 230.1
L141.192 209.963
L141.266 210.92
L141.415 241.862
L141.638 191.935
L141.713 196.45
L141.862 203.074
L141.936 201.992
L142.01 203.8
L142.085 201.75
L142.159 196.612
L142.382 215.873
L142.457 215.597
L142.68 203.178
L142.754 205.482
L142.978 243.809
L143.275 215.885
L143.35 217.037
L143.424 219.283
L143.573 208.086
L143.722 212.394
L143.796 205.609
L143.87 206.772
L144.242 239.674
L144.317 239.708
L144.614 212.233
L144.838 229.824
L144.912 227.128
L145.358 166.475
L145.433 169.908
L145.582 193.421
L145.656 185.057
L145.73 186.14
L146.028 241.263
L146.102 240.192
L146.251 227.151
L146.4 232.37
L146.474 229.306
L146.623 256.792
L146.772 210.885
L146.846 211.081
L146.921 224.052
L146.995 219.755
L147.144 197.003
L147.367 214.975
L147.442 214.26
L147.665 218.961
L147.814 200.863
L147.888 205.713
L148.037 236.367
L148.111 236.356
L148.26 224.905
L148.409 231.84
L148.632 209.18
L148.781 222.774
L148.855 220.435
L149.078 185.38
L149.153 189.55
L149.45 217.636
L149.525 217.44
L149.674 212.936
L149.822 225.469
L149.897 225.193
L150.046 209.526
L150.12 213.178
L150.269 233.142
L150.418 187.327
L150.492 191.992
L150.715 236.079
L151.013 189.193
L151.087 189.596
L151.385 245.376
L151.459 238.026
L151.534 240.111
L151.682 252.772
L151.906 198.893
L151.98 201.485
L152.129 215.77
L152.203 215.194
L152.278 220.792
L152.501 195.345
L152.575 203.627
L152.65 213.35
L152.724 208.086
L152.873 189.999
L153.022 223.741
L153.096 219.928
L153.245 194.895
L153.394 213.143
L153.468 208.765
L153.691 251.908
L153.84 211.15
L153.989 237.669
L154.212 220.47
L154.286 226.909
L154.435 216.265
L154.584 179.355
L155.03 235.4
L155.105 230.434
L155.254 200.079
L155.328 202.107
L155.402 201.704
L155.477 211.772
L155.551 208.742
L155.626 197.983
L155.7 202.475
L155.849 238.994
L156.072 183.329
L156.295 221.334
L156.37 220.861
L156.444 215.551
L156.667 241.931
L156.742 239.512
L156.89 253.221
L156.965 253.186
L157.188 241.69
L157.486 209.687
L157.634 215.654
L157.709 215.62
L157.858 191.647
L158.006 165.992
L158.155 180.749
L158.527 219.744
L158.602 215.09
L158.75 182.258
L158.899 249.811
L158.974 244.466
L159.048 234.455
L159.122 239.362
L159.197 244.385
L159.346 214.721
L159.42 215.954
L159.569 225.25
L159.643 226.126
L159.792 221.702
L159.941 225.25
L160.09 202.971
L160.238 216.979
L160.387 231.563
L160.462 231.644
L160.536 231.379
L160.759 224.594
L160.834 225.919
L161.057 212.786
L161.131 213.039
L161.206 214.756
L161.28 212.982
L161.578 182.004
L161.652 185.08
L161.726 185.587
L161.95 191.359
L162.173 229.306
L162.322 199.158
L162.694 252.829
L162.768 259.476
L163.438 192.303
L163.512 200.183
L163.586 208.316
L163.735 196.404
L163.81 200.344
L164.033 233.026
L164.107 228.292
L164.33 200.425
L164.479 207.268
L164.628 194.1
L164.702 196.969
L164.851 246.839
L164.926 246.562
L165.223 217.981
L165.298 215.988
L165.446 232.715
L165.818 205.747
L165.893 213.178
L165.967 211.473
L166.116 177.823
L166.19 187.972
L166.339 226.69
L166.488 190.034
L166.562 192.902
L166.711 211.438
L166.786 212.89
L166.86 217.912
L167.009 236.494
L167.158 217.774
L167.232 222.301
L167.306 222.221
L167.455 204.365
L167.827 234.374
L167.976 222.071
L168.125 231.31
L168.199 231.114
L168.348 226.633
L168.497 212.509
L168.571 212.59
L168.794 220.792
L168.943 203.351
L169.092 214.272
L169.166 209.871
L169.241 196.612
L169.315 203.109
L169.464 230.296
L169.687 185.391
L169.91 200.932
L170.059 204.226
L170.208 216.76
L170.357 199.123
L170.729 242.312
L170.803 239.524
L170.952 250.94
L171.398 218.362
L171.473 229.386
L171.547 225.009
L171.77 200.31
L171.845 196.255
L171.994 184.539
L172.44 219.087
L172.663 187.73
L172.738 192.418
L172.886 208.489
L173.035 198.754
L173.333 251.781
L173.407 249.442
L173.556 238.879
L173.63 238.291
L173.779 224.79
L173.928 199.642
L174.002 207.786
L174.151 223.2
L174.3 216.322
L174.449 221.794
L174.523 219.099
L174.672 238.326
L174.895 196.9
L174.97 206.196
L175.118 218.143
L175.267 206.358
L175.342 218.189
L175.416 217.302
L175.565 201.727
L175.714 211.438
L175.937 179.044
L176.234 235.734
L176.383 215.378
L176.458 216.76
L176.606 224.824
L176.681 224.064
L176.83 228.695
L176.978 259.995
L177.053 251.389
L177.276 193.455
L177.499 204.768
L177.648 218.511
L177.722 218.166
L177.871 201.681
L178.02 210.274
L178.094 210.678
L178.243 205.793
L178.318 206.323
L178.466 197.291
L178.615 202.095
L178.69 197.05
L178.764 200.252
L179.062 263.578
L179.21 235.872
L179.285 236.102
L179.359 235.503
L179.582 199.745
L179.806 222.946
L179.954 212.279
L180.029 215.781
L180.103 224.64
L180.178 222.705
L180.401 194.123
L180.55 208.397
L180.698 196.877
L180.922 217.037
L180.996 214.802
L181.219 193.87
L181.442 234.501
L181.517 229.075
L181.666 214.168
L181.814 235.434
L181.889 234.374
L182.038 217.786
L182.261 234.881
L182.484 208.5
L182.558 216.207
L182.707 229.732
L182.856 223.442
L182.93 223.258
L183.079 199.112
L183.154 202.095
L183.302 203.777
L183.451 201.623
L183.674 214.272
L183.823 204.895
L183.972 207.775
L184.046 196.681
L184.121 197.787
L184.27 242.715
L184.418 228.2
L184.567 241.229
L184.716 198.409
L184.79 198.501
L184.939 223.81
L185.014 226.46
L185.311 194.642
L185.609 235.411
L185.683 227.635
L185.906 208.477
L185.981 208.293
L186.055 207.13
L186.13 208.558
L186.204 208.5
L186.502 223.499
L186.725 212.671
L186.874 219.375
L187.022 244.143
L187.32 214.767
L187.469 205.713
L187.766 231.748
L187.841 230.607
L188.064 201.22
L188.138 202.337
L188.213 201.738
L188.287 198.478
L188.362 199.572
L188.51 203.27
L188.659 189.757
L188.734 193.363
L189.031 241.494
L189.106 246.251
L189.329 231.471
L189.403 230.884
L189.626 213.823
L189.998 228.142
L190.147 210.516
L190.222 211.346
L190.37 194.895
L190.445 186.797
L190.519 188.064
L190.668 193.248
L190.817 184.689
L190.891 185.714
L191.04 204.538
L191.189 248.544
L191.263 242.024
L191.338 243.199
L191.486 258.52
L191.635 236.529
L191.71 239.8
L191.784 234.57
L191.933 212.175
L192.082 220.792
L192.156 219.548
L192.23 216.645
L192.379 193.306
L192.454 194.676
L192.602 219.202
L192.677 215.942
L192.751 210.827
L192.9 221.576
L192.974 218.707
L193.346 196.738
L193.57 216.415
L193.644 213.512
L193.793 194.227
L193.942 214.111
L194.016 211.645
L194.09 198.812
L194.165 202.729
L194.314 253.21
L194.537 236.114
L194.611 236.621
L194.686 234.95
L194.76 230.054
L194.834 231.955
L194.909 228.902
L195.058 218.719
L195.206 235.066
L195.355 223.937
L195.578 188.41
L195.653 187.488
L195.727 191.22
L195.802 187.154
L195.876 187.914
L196.025 209.261
L196.099 223.258
L196.174 221.242
L196.397 205.021
L196.546 212.06
L196.769 228.925
L196.843 225.124
L196.992 205.252
L197.215 235.688
L197.29 232.059
L197.587 213.062
L197.736 207.083
L197.885 225.538
L197.959 224.502
L198.108 217.117
L198.257 238.717
L198.629 207.256
L198.703 193.179
L198.778 195.794
L198.926 215.793
L199.075 186.232
L199.15 190.518
L199.298 212.936
L199.447 193.317
L199.67 254.085
L199.745 253.774
L200.117 199.906
L200.191 204.33
L200.266 216.23
L200.34 216.138
L200.414 214.249
L200.489 216.472
L200.638 235.158
L200.712 229.974
L200.861 209.595
L201.307 235.549
L201.456 208.339
L201.53 211.922
L201.679 233.222
L201.902 205.828
L202.051 219.202
L202.349 186.739
L202.423 189.204
L202.572 182.131
L202.795 207.648
L202.87 201.116
L203.018 219.226
L203.167 237.658
L203.242 231.967
L203.316 232.047
L203.465 239.282
L203.762 217.762
L204.209 244.593
L204.804 184.907
L204.878 186.474
L205.027 196.52
L205.102 192.879
L205.176 198.236
L205.399 235.883
L205.548 223.258
L205.697 232.842
L205.846 205.148
L205.92 209.364
L206.069 213.016
L206.143 212.002
L206.218 212.325
L206.366 234.052
L206.515 219.26
L206.664 226.955
L206.887 207.752
L207.036 229.882
L207.11 223.546
L207.185 214.099
L207.334 221.875
L207.482 197.568
L207.78 229.755
L208.301 208.132
L208.375 207.798
L208.524 230.907
L208.598 230.285
L208.673 228.084
L208.747 230.849
L208.822 228.868
L208.896 219.398
L209.045 187.43
L209.194 206.842
L209.268 203.72
L209.342 199.78
L209.566 222.117
L209.64 223.419
L209.714 223.039
L209.789 223.868
L209.938 216.034
L210.086 225.884
L210.161 222.198
L210.384 191.946
L210.533 212.256
L210.682 239.593
L210.83 222.209
L210.905 223.315
L211.054 213.327
L211.128 215.862
L211.277 225.193
L211.351 223.2
L211.426 211.473
L211.5 212.659
L211.574 220.504
L211.798 198.443
L212.021 221.495
L212.095 234.927
L212.17 231.817
L212.393 209.122
L212.542 183.433
L212.765 226.218
L212.839 224.363
L212.988 226.99
L213.286 216.553
L213.36 210.39
L213.434 211.668
L213.583 223.43
L213.658 235.273
L213.732 232.093
L214.03 195.46
L214.178 214.387
L214.253 212.728
L214.402 199.008
L214.625 227.059
L214.848 198.858
L214.997 236.194
L215.071 233.441
L215.146 230.838
L215.294 244.731
L215.518 200.367
L215.592 206.507
L215.741 227.497
L215.89 212.095
L216.038 220.873
L216.41 203.708
L216.634 212.429
L216.931 195.068
L217.08 211.104
L217.154 224.444
L217.229 224.018
L217.303 226.806
L217.452 222.751
L217.675 245.549
L217.824 208.27
L217.898 208.881
L218.047 220.481
L218.122 218.408
L218.27 207.141
L218.494 216.299
L218.568 209.238
L218.642 209.341
L218.717 215.09
L218.791 229.801
L218.94 208.834
L219.163 223.891
L219.535 194.008
L219.61 197.291
L219.833 220.066
L219.907 220.93
L219.982 219.306
L220.13 207.844
L220.279 221.633
L220.354 238.902
L220.428 237.243
L220.651 222.14
L220.726 222.831
L220.8 223.822
L220.949 216.461
L221.098 209.514
L221.172 209.468
L221.321 236.01
L221.395 235.296
L221.693 191.301
L221.767 192.948
L222.065 211.104
L222.214 204.203
L222.362 224.467
L222.437 220.124
L222.586 193.513
L222.809 226.034
L222.958 221.875
L223.032 216.737
L223.181 199.066
L223.33 236.356
L223.404 258.762
L223.478 254.338
L223.627 230.561
L223.702 238.925
L223.776 247.956
L223.85 246.586
L224.148 178.237
L224.222 181.797
L224.446 234.754
L224.52 228.914
L224.743 168.526
L224.818 170.323
L224.966 234.04
L225.041 232.98
L225.264 212.797
L225.413 219.272
L225.785 199.377
L225.859 203.017
L226.082 234.939
L226.157 232.946
L226.231 233.361
L226.306 234.178
L226.38 231.391
L226.454 232.52
L226.529 234.086
L226.678 245.94
L226.901 194.123
L227.05 199.181
L227.124 199.158
L227.198 199.469
L227.347 210.966
L227.496 202.314
L227.719 220.239
L227.868 214.571
L228.017 198.386
L228.091 198.559
L228.389 214.664
L228.538 194.089
L228.612 199.768
L228.835 246.436
L228.91 241.436
L228.984 243.867
L229.058 246.194
L229.207 241.148
L229.282 244.984
L229.356 257.023
L229.43 255.179
L229.728 197.107
L229.877 203.881
L229.951 201.393
L230.1 180.196
L230.174 184.562
L230.323 221.149
L230.77 190.495
L230.844 190.955
L230.993 223.223
L231.067 223.154
L231.216 192.084
L231.514 229.225
L231.588 226.379
L231.737 213.466
L231.96 253.567
L232.034 247.91
L232.183 228.753
L232.258 230.25
L232.332 227.624
L232.481 207.464
L232.63 230.239
L232.704 229.985
L232.853 222.877
L233.002 238.637
L233.522 187.914
L233.671 205.551
L233.746 201.934
L233.894 196.116
L234.043 200.874
L234.192 221.357
L234.341 242.289
L234.713 209.353
L234.787 210.378
L234.862 213.869
L234.936 213.166
L235.085 211.115
L235.234 199.123
L235.382 222.555
L235.531 239.674
L235.754 213.823
L235.829 218.776
L235.903 217.44
L236.052 209.871
L236.201 215.159
L236.275 212.498
L236.35 214.283
L236.573 234.582
L236.647 225.423
L236.796 180.968
L236.945 216.357
L237.019 228.96
L237.094 223.165
L237.317 205.782
L237.391 191.693
L237.466 199.342
L237.614 234.593
L237.986 212.544
L238.061 215.689
L238.21 238.199
L238.284 231.771
L238.433 191.842
L238.656 238.522
L238.73 225.585
L238.805 211.979
L238.879 215.562
L238.954 226.195
L239.028 225.469
L239.177 221.748
L239.251 222.589
L239.549 178.007
L239.623 187.741
L239.772 203.835
L239.846 191.462
L239.921 197.522
L240.07 237.519
L240.144 234.593
L240.218 230.769
L240.367 244.305
L240.59 213.466
L240.739 222.463
L240.814 221.103
L240.888 216.68
L240.962 216.91
L241.111 227.197
L241.409 207.521
L241.483 208.523
L241.558 207.51
L241.632 208.166
L242.004 228.465
L242.153 222.244
L242.376 203.489
L242.45 202.925
L242.525 204.25
L242.599 203.812
L242.748 198.847
L242.822 198.743
L242.971 202.222
L243.194 241.459
L243.269 231.494
L243.641 205.033
L243.864 227.935
L244.013 234.34
L244.087 234.225
L244.236 221.553
L244.31 224.122
L244.385 225.93
L244.459 222.186
L244.534 222.774
L244.608 225.527
L244.757 238.994
L244.831 238.268
L245.352 193.041
L245.501 187.361
L245.575 186.347
L245.724 174.447
L245.947 204.296
L246.096 222.877
L246.17 217.797
L246.245 201.554
L246.319 210.436
L246.468 255.778
L246.617 234.674
L246.691 239.938
L246.766 249.949
L246.84 245.572
L246.989 224.893
L247.063 226.575
L247.286 204.342
L247.361 206.749
L247.584 218.442
L247.807 202.291
L247.882 203.65
L248.03 213.8
L248.105 208.431
L248.179 194.941
L248.254 195.425
L248.402 212.659
L248.477 207.659
L248.551 212.578
L248.7 229.536
L248.849 213.857
L248.923 217.624
L248.998 216.806
L249.072 216.668
L249.221 233.856
L249.295 231.229
L249.518 213.569
L249.593 215.124
L249.667 211.576
L249.89 191.992
L250.039 213.604
L250.188 236.747
L250.337 217.348
L250.411 208.017
L250.486 212.267
L250.709 229.743
L250.858 210.62
L250.932 211.115
L251.155 222.946
L251.23 227.186
L251.453 206.888
L251.602 231.425
L251.825 210.436
L251.974 215.804
L252.048 212.89
L252.122 213.684
L252.271 227.739
L252.346 224.098
L252.494 210.01
L252.569 211.507
L252.643 210.459
L252.792 193.467
L252.941 198.973
L253.164 218.696
L253.313 224.571
L253.462 213.857
L253.536 216.276
L253.61 222.981
L253.685 221.299
L253.759 211.841
L254.131 242.991
L254.354 214.249
L254.429 218.592
L254.503 221.023
L254.95 179.908
L255.024 185.403
L255.173 209.871
L255.322 203.121
L255.619 226.633
L255.694 229.547
L255.768 226.99
L255.917 216.898
L256.214 252.438
L256.512 221.944
L256.586 221.172
L256.735 230.688
L257.182 179.251
L257.405 194.031
L257.479 191.232
L257.628 206.196
L257.702 204.964
L257.777 200.218
L257.851 202.568
L258.074 230.481
L258.223 224.444
L258.298 221.933
L258.372 223.891
L258.521 230.146
L258.67 222.405
L258.818 228.799
L258.967 225.85
L259.116 231.379
L259.339 221.334
L259.414 226.817
L259.488 225.631
L259.711 203.616
L259.86 198.985
L259.934 199.457
L260.306 211.956
L260.455 205.609
L260.827 224.479
L260.976 212.175
L261.199 230.619
L261.422 217.186
L261.646 230.538
L261.72 228.822
L261.794 232.474
L261.869 232.036
L262.166 196.888
L262.241 198.893
L262.315 202.234
L262.464 196.001
L262.687 218.673
L262.762 215.631
L262.91 222.117
L262.985 220.781
L263.134 201.819
L263.208 203.846
L263.357 215.597
L263.431 213.35
L263.506 217.371
L263.58 230.089
L263.654 226.656
L263.729 219.387
L263.803 222.405
L263.952 235.008
L264.101 228.718
L264.175 227.67
L264.324 212.544
L264.547 231.552
L264.919 207.625
L265.068 182.995
L265.217 193.478
L265.291 188.974
L265.812 230.999
L266.035 214.963
L266.11 215.735
L266.407 213.419
L266.556 205.344
L266.779 216.461
L266.854 214.859
L267.077 241.24
L267.151 233.51
L267.226 227.543
L267.3 229.478
L267.374 226.817
L267.523 192.799
L267.598 194.469
L267.672 205.309
L267.821 193.778
L268.044 226.667
L268.193 214.306
L268.267 218.753
L268.342 216.553
L268.49 206.842
L268.788 237.738
L268.862 238.591
L268.937 236.114
L269.16 210.044
L269.234 215.044
L269.309 214.076
L269.383 211.83
L269.606 223.258
L269.755 212.509
L269.904 216.507
L270.127 193.617
L270.276 214.906
L270.35 212.175
L270.425 214.571
L270.574 228.165
L270.722 208.788
L271.02 223.868
L271.169 225.078
L271.69 179.458
L271.764 187.845
L271.987 225.919
L272.21 231.656
L272.285 228.637
L272.359 230.492
L272.508 238.257
L272.731 225.596
L272.806 225.803
L273.029 202.141
L273.252 219.421
L273.401 207.003
L273.475 210.067
L273.624 215.516
L273.773 207.994
L273.847 213.385
L273.922 212.751
L273.996 216.034
L274.145 233.384
L274.219 232.888
L274.442 211.726
L274.591 221.23
L274.74 208.063
L274.814 208.731
L274.963 218.085
L275.186 199.676
L275.335 218.811
L275.484 195.46
L275.558 197.487
L276.079 259.096
L276.228 229.478
L276.377 208.132
L276.451 216.392
L276.526 212.936
L276.674 196.831
L276.823 214.33
L276.898 210.148
L276.972 204.883
L277.121 213.189
L277.195 209.802
L277.344 200.724
L277.493 209.86
L277.642 198.397
L277.79 212.613
L277.939 206.45
L278.014 209.791
L278.311 237.001
L278.46 218.569
L278.534 221.161
L278.609 221.668
L278.683 218.857
L278.758 219.11
L279.055 238.786
L279.13 245.007
L279.353 225.331
L279.427 235.826
L279.502 235.446
L279.725 200.943
L279.799 198.801
L279.948 203.892
L280.097 203.386
L280.171 204.157
L280.246 203.581
L280.394 208.477
L280.469 207.21
L280.766 223.396
L280.841 220.251
L280.99 211.588
L281.064 214.491
L281.287 202.141
L281.436 216.173
L281.585 201.704
L281.734 193.847
L281.882 211.933
L282.031 236.966
L282.18 234.017
L282.329 242.335
L282.552 221.103
L282.775 231.794
L282.998 214.779
L283.147 218.546
L283.37 202.326
L283.742 229.835
L283.966 208.051
L284.114 228.407
L284.189 226.414
L284.486 195.402
L284.635 216.634
L284.71 232.139
L284.784 232.036
L284.933 211.784
L285.007 210.827
L285.305 187.937
L285.379 191.393
L285.454 189.435
L285.602 200.206
L285.751 214.376
L285.9 238.441
L286.049 222.935
L286.123 226.909
L286.346 256.182
L286.644 208.696
L286.718 210.77
L286.942 221.023
L287.09 222.9
L287.314 206.427
L287.388 207.924
L287.611 217.463
L287.76 210.067
L287.909 215.574
L287.983 212.578
L288.132 186.543
L288.206 190.091
L288.43 238.487
L288.653 220.147
L289.025 187.315
L289.174 214.306
L289.322 237.819
L289.397 233.879
L289.471 234.743
L289.546 240.503
L289.62 239.316
L289.918 217.371
L290.066 224.456
L290.141 224.34
L290.215 226.944
L290.29 224.306
L290.513 197.338
L290.662 199.803
L290.736 197.718
L290.885 212.037
L291.108 185.956
L291.257 201.899
L291.554 243.947
L291.926 212.21
L292.001 209.998
L292.447 232.404
L292.522 238.821
L292.745 197.994
L292.894 211.841
L293.042 196.543
L293.117 199.78
L293.414 229.858
L293.563 218.016
L293.712 239.432
L293.786 232.911
L293.935 200.724
L294.084 233.51
L294.158 223.96
L294.307 199.768
L294.456 218.88
L294.53 215.885
L294.679 196.658
L294.754 198.513
L294.902 219.963
L295.126 190.333
L295.349 257.126
L295.423 246.159
L295.572 219.583
L295.646 231.874
L295.721 229.467
L295.87 191.497
L295.944 200.863
L296.093 232.554
L296.242 204.641
L296.465 231.137
L296.688 190.541
L296.762 196.013
L296.911 209.41
L296.986 202.395
L297.06 203.766
L297.283 228.914
L297.432 228.361
L297.506 229.628
L297.655 244.385
L297.878 205.678
L298.027 214.122
L298.102 220.17
L298.176 217.417
L298.25 205.367
L298.325 206.795
L298.474 217.336
L298.622 191.048
L298.771 219.352
L298.846 217.313
L298.994 198.766
L299.218 241.01
L299.441 218.799
L299.515 217.751
L299.664 207.406
L299.813 215.758
L300.036 239.731
L300.11 235.63
L300.334 210.482
L300.557 190.633
L300.706 222.52
L300.78 217.463
L300.854 203.674
L300.929 208.454
L301.078 235.987
L301.301 215.47
L301.598 208.546
L301.747 218.673
L301.896 230.354
L302.045 219.26
L302.119 220.504
L302.194 225.907
L302.268 223.592
L302.491 195.909
L302.714 213.65
L302.863 226.23
L302.938 224.905
L303.086 210.885
L303.161 211.899
L303.31 226.725
L303.384 226.633
L303.458 228.994
L303.533 227.773
L303.682 218.281
L303.756 215.954
L303.979 186.198
L304.054 188.294
L304.277 216.484
L304.351 210.597
L304.5 196.37
L304.723 226.46
L304.872 249.039
L304.946 243.878
L305.095 225.527
L305.17 227.197
L305.318 217.29
L305.542 239.754
L305.616 231.575
L305.69 229.524
L305.765 232.808
L305.839 226.264
L306.062 189.043
L306.137 187.73
L306.36 214.399
L306.434 216.299
L306.509 215.562
L306.658 209.825
L306.806 220.297
L306.955 198.881
L307.104 215.505
L307.253 230.653
L307.327 231.126
L307.476 199.768
L307.55 203.501
L307.848 220.274
L307.922 218.615
L308.071 209.514
L308.294 226.84
L308.443 214.364
L308.518 217.912
L308.666 209.457
L308.741 210.528
L308.815 216.76
L308.89 214.249
L308.964 210.021
L309.41 236.033
L309.485 231.195
L309.708 203.846
L309.931 228.833
L310.006 226.126
L310.154 207.959
L310.229 209.157
L310.378 220.689
L310.526 209.434
L310.75 218.085
L310.898 215.735
L311.047 236.724
L311.122 236.079
L311.27 222.509
L311.419 236.517
L311.494 228.66
L311.642 196.75
L311.717 198.225
L311.791 203.478
L312.014 181.44
L312.089 181.878
L312.312 222.797
L312.386 222.417
L312.758 193.167
L312.833 193.905
L312.907 198.778
L313.056 228.833
L313.13 227.462
L313.205 217.083
L313.279 217.924
L313.428 238.959
L313.577 231.759
L313.651 233.775
L313.8 241.816
L314.023 229.974
L314.246 233.752
L314.618 207.245
L314.693 210.839
L314.842 199.307
L314.99 209.238
L315.139 188.317
L315.214 188.836
L315.437 235.618
L315.511 231.183
L315.66 221
L315.734 222.152
L315.809 221.898
L315.883 222.428
L316.255 198.893
L316.33 201.22
L316.404 199.826
L316.478 200.575
L316.702 217.751
L316.776 213.189
L316.85 212.682
L316.999 218.523
L317.148 207.648
L317.446 247.046
L317.52 241.125
L317.669 217.947
L317.743 218.788
L317.818 215.47
L318.115 192.695
L318.338 207.936
L318.487 208.938
L318.562 204.975
L318.636 208.397
L319.008 258.866
L319.082 257.541
L319.529 213.281
L319.826 193.882
L320.05 195.932
L320.124 191.808
L320.273 175.323
L320.645 234.685
L320.868 214.445
L321.091 248.026
L321.314 228.614
L321.389 233.073
L321.463 234.801
L321.612 220.861
L321.761 187.246
L321.835 188.363
L322.058 216.783
L322.282 191.059
L322.505 219.064
L322.579 219.375
L322.654 219.352
L322.728 219.433
L322.802 213.673
L322.877 220.447
L323.026 242.047
L323.249 194.158
L323.323 201.058
L323.472 226.46
L323.546 224.605
L323.695 207.636
L323.77 209.929
L323.993 232.289
L324.216 227.002
L324.29 229.617
L324.365 227.992
L324.588 198.155
L324.662 199.25
L324.886 206.83
L325.183 217.198
L325.332 225.089
L325.555 193.755
L325.704 208.558
L325.853 226.379
L326.002 210.298
L326.076 215.551
L326.225 245.652
L326.522 211.357
L326.597 216.76
L326.746 243.798
L326.82 239.973
L327.118 210.516
L327.49 195.84
L327.564 196.197
L327.713 208.673
L327.862 204.307
L328.085 226.391
L328.159 223.799
L328.382 193.789
L328.457 193.524
L328.531 195.736
L329.052 252.069
L329.35 233.13
L329.498 236.92
L329.573 235.238
L330.317 190.264
L330.391 193.398
L330.54 205.713
L330.614 204.918
L330.689 204.941
L330.763 208.212
L330.986 237.323
L331.433 214.099
L331.507 213.166
L331.582 218.857
L331.656 218.834
L331.805 212.555
L331.954 224.617
L332.028 222.658
L332.251 191.9
L332.326 196.957
L332.549 228.683
L332.623 224.997
L332.772 213.777
L332.921 227.808
L333.144 207.014
L333.218 208.996
L333.516 221.806
L333.59 221.46
L333.814 206.381
L334.037 225.504
L334.186 211.38
L334.334 219.871
L334.483 216.322
L334.558 217.405
L334.632 217.544
L334.706 218.615
L334.781 222.082
L334.93 235.561
L335.45 188.548
L335.525 190.794
L335.748 206.116
L335.822 223.085
L335.897 219.963
L336.046 204.088
L336.269 229.259
L336.343 226.138
L336.492 237.323
L336.566 234.87
L336.715 220.896
L336.79 224.018
L336.864 234.202
L336.938 230.653
L337.013 224.951
L337.162 243.36
L337.682 195.287
L337.757 196.001
L337.831 198.95
L338.129 238.395
L338.426 194.446
L338.501 196.796
L338.65 215.401
L338.798 207.475
L338.947 213.373
L339.096 209.86
L339.245 215.954
L339.319 213.707
L339.394 214.018
L339.617 223.649
L339.691 218.719
L339.84 195.46
L339.914 195.552
L340.286 225.435
L340.435 230.849
L340.733 208.938
L341.105 238.452
L341.328 221.38
L341.477 232.531
L341.774 216.242
L341.849 218.58
L341.998 221.633
L342.221 181.002
L342.295 184.193
L342.518 222.866
L342.593 222.059
L342.816 211.265
L342.89 213.235
L343.188 225.677
L343.262 221.76
L343.486 202.948
L343.634 214.134
L343.709 214.111
L343.783 207.89
L343.858 207.97
L344.23 233.314
L344.378 223.707
L344.527 211.023
L344.602 211.576
L344.676 216.369
L344.899 203.858
L345.048 191.255
L345.122 192.614
L345.494 229.87
L345.643 235.273
L345.941 208.719
L346.015 209.192
L346.09 212.498
L346.238 228.119
L346.313 230.227
L346.387 228.672
L346.685 211.035
L346.759 212.751
L347.057 235.089
L347.131 232.036
L347.28 211.012
L347.354 215.182
L347.503 219.698
L347.652 203.017
L347.726 206.127
L347.95 173.457
L348.098 192.476
L348.396 244.178
L348.47 244.374
L348.694 190.414
L348.917 221.91
L349.14 266.734
L349.214 259.119
L349.363 198.501
L349.512 157.144
L349.586 159.31
L349.884 266.63
L350.182 155.762
L350.256 158.308
L350.33 153.7
L350.702 308.724
L350.851 266.4
L351.074 183.11
L351.149 181.567
L351.223 192.004
L351.446 254.085
L351.595 217.094
L351.818 144.887
L351.893 153.331
L352.19 265.133
L352.265 261.216
L352.414 215.343
L352.637 154.898
L352.786 185.276
L353.009 243.671
L353.083 237.899
L353.381 175.991
L353.604 265.294
L353.753 294.474
L353.827 284.417
L354.125 181.256
L354.422 253.325
L354.869 154.138
L355.018 208.097
L355.241 292.378
L355.315 280.293
L355.613 143.62
L355.687 155.958
L355.91 255.963
L355.985 261.826
L356.357 135.763
L356.506 212.648
L356.729 324.138
L356.878 227.554
L357.026 120.603
L357.101 123.552
L357.398 304.174
L357.473 294.682
L357.77 112.216
L357.845 122.642
L358.142 352.696
L358.291 266.146
L358.514 109.647
L358.589 126.858
L358.886 307.768
L359.11 133.079
L359.184 86.2962
L359.258 89.7522
L359.556 297.089
L359.854 151.626
L359.928 162.144
L360.226 272.471
L360.3 269.579
L360.598 189.815
L360.672 204.042
L360.895 278.795
L361.044 222.324
L361.193 166.28
L361.342 207.279
L361.49 240.826
L361.862 179.827
L362.086 226.886
L362.16 216.15
L362.234 216.553
L362.458 175.841
L362.532 186.37
L362.755 260.663
L362.83 257.103
L362.978 215.7
L363.127 192.107
L363.35 269.257
L363.425 266.999
L363.722 156.338
L364.02 262.184
L364.318 176.452
L364.392 183.686
L364.541 233.706
L364.69 259.188
L364.987 159.483
L365.062 173.71
L365.359 245.56
L365.434 237.462
L365.582 190.679
L365.657 191.935
L365.731 201.45
L365.954 260.513
L366.178 199.434
L366.252 203.224
L366.401 228.407
L366.55 208.754
L366.773 168.814
L366.922 196.992
L367.145 257.633
L367.368 151.073
L367.442 158.308
L367.666 278.289
L367.74 271.284
L368.038 198.466
L368.112 208.097
L368.335 270.939
L368.41 259.085
L368.633 183.94
L368.856 219.076
L368.93 214.157
L369.154 194.895
L369.377 221.633
L369.674 184.331
L369.749 188.041
L370.046 251.597
L370.344 192.856
L370.493 227.255
L370.642 272.079
L370.716 265.041
L370.939 192.971
L371.162 250.594
L371.46 178.664
L371.534 182.246
L371.832 205.09
L371.906 203.109
L372.055 182.949
L372.13 191.336
L372.353 230.872
L372.502 202.452
L372.576 202.51
L372.874 254.984
L372.948 254.638
L373.246 233.729
L373.32 225.538
L373.394 225.792
L373.543 239.109
L373.618 236.264
L373.841 185.046
L373.99 160.243
L374.138 175.795
L374.436 253.832
L374.734 166.982
L374.808 174.205
L375.031 255.11
L375.106 252.484
L375.403 177.788
L375.478 180.53
L375.701 250.71
L375.775 254.016
L375.998 221.08
L376.147 214.779
L376.296 183.272
L376.37 184.02
L376.445 188.813
L376.742 269.015
L377.04 183.709
L377.114 196.6
L377.263 228.211
L377.338 224.352
L377.561 175.772
L377.858 266.112
L377.933 253.325
L378.082 214.629
L378.156 223.246
L378.23 226.621
L378.305 239.881
L378.379 236.667
L378.528 196.842
L378.677 164.241
L378.751 165.611
L378.974 270.789
L379.049 253.117
L379.346 132.872
L379.495 216.311
L379.644 272.194
L379.942 180.507
L380.016 184.619
L380.239 266.907
L380.537 202.66
L380.611 206.415
L380.76 234.075
L380.983 200.84
L381.206 226.875
L381.355 267.01
L381.43 259.016
L381.653 170.554
L381.727 174.816
L382.025 225.343
L382.174 210.712
L382.397 178.03
L382.694 238.095
L382.769 233.66
L382.843 233.741
L383.215 203.397
L383.29 204.561
L383.662 273.266
L383.81 243.798
L384.034 199.238
L384.108 200.045
L384.257 195.794
L384.406 213.892
L384.48 211.542
L384.554 190.932
L384.629 192.05
L384.703 184.562
L385.001 220.251
L385.075 217.947
L385.224 202.856
L385.373 207.222
L385.447 205.275
L385.67 178.583
L386.042 286.733
L386.117 276.549
L386.414 203.386
L386.489 196.669
L386.712 223.522
L386.786 222.555
L387.01 196.128
L387.307 238.349
L387.382 236.425
L387.679 196.992
L387.902 215.551
L387.977 213.281
L388.274 255.191
L388.349 254.546
L388.423 250.295
L388.795 158.469
L389.093 214.594
L389.167 215.988
L389.242 219.767
L389.316 214.318
L389.39 216.276
L389.465 215.147
L389.688 227.22
L389.762 229.018
L389.986 191.796
L390.06 193.686
L390.134 198.731
L390.358 232.911
L390.432 231.61
L390.655 269.637
L390.878 197.407
L390.953 199.665
L391.027 201.531
L391.325 241.114
L391.548 210.102
L391.622 221.771
L391.697 217.843
L391.771 221.138
L391.994 196.934
L392.069 203.224
L392.143 201.473
L392.218 202.314
L392.441 189.181
L392.515 190.967
L392.887 248.244
L392.962 247.38
L393.185 196.669
L393.259 202.268
L393.408 222.394
L393.557 239.581
L393.78 203.881
L393.929 220.596
L394.078 236.183
L394.152 233.522
L394.45 186.97
L394.747 235.423
L394.97 205.966
L395.045 212.36
L395.268 231.494
L395.566 206.738
L395.789 226.541
L395.863 222.44
L396.012 207.74
L396.161 215.919
L396.384 237.969
L396.458 234.893
L396.756 172.282
L397.054 242.496
L397.277 204.422
L397.351 210.839
L397.574 238.026
L397.649 236.92
L397.872 207.487
L398.17 225.297
L398.393 187.926
L398.467 191.105
L398.69 217.313
L398.839 213.062
L398.988 217.244
L399.137 204.987
L399.211 205.148
L399.583 235.411
L399.806 224.306
L399.881 223.476
L399.955 223.684
L400.104 225.193
L400.178 229.409
L400.253 229.179
L400.476 213.316
L400.55 214.71
L400.625 218.396
L400.774 236.252
L400.848 232.946
L401.146 175.864
L401.22 178.664
L401.443 195.828
L401.666 181.682
L401.89 232.37
L402.113 266.354
L402.41 210.977
L402.485 210.989
L402.559 210.424
L402.708 218.074
L402.857 224.386
L402.931 220.366
L403.154 188.306
L403.303 213.108
L403.526 236.402
L403.824 202.545
L403.898 203.316
L403.973 207.245
L404.27 247.565
L404.568 223.546
L404.717 236.033
L404.791 230.342
L405.089 175.035
L405.312 213.638
L405.461 197.787
L405.684 205.079
L405.907 227.681
L406.056 206.749
L406.205 218.246
L406.354 219.525
L406.428 218.534
L406.502 220.712
L406.577 219.26
L406.726 209.825
L406.8 212.89
L406.949 231.391
L407.172 211.138
L407.321 198.858
L407.544 235.066
L407.618 231.828
L407.693 228.522
L407.767 232.819
L407.916 248.095
L408.214 199.457
L408.288 201.75
L408.437 212.544
L408.511 210.205
L408.734 190.184
L409.032 220.447
L409.181 217.993
L409.255 224.87
L409.33 222.589
L409.478 212.786
L409.702 225.504
L409.776 219.767
L409.999 181.659
L410.297 258.52
L410.594 186.82
L410.892 228.614
L410.966 226.863
L411.115 210.113
L411.338 230.446
L411.413 230.907
L411.487 239.662
L411.562 233.015
L411.785 196.497
L411.934 216.461
L412.082 233.96
L412.157 229.974
L412.38 196.45
L412.603 214.399
L412.752 203.685
L412.826 188.617
L412.901 191.958
L413.198 246.321
L413.422 209.883
L413.496 223.096
L413.645 246.021
L413.794 213.903
L413.942 181.014
L414.389 236.678
L414.686 193.743
L414.835 218.143
L414.91 233.222
L414.984 231.068
L415.207 196.865
L415.282 197.384
L415.43 206.6
L415.654 226.368
L415.802 231.091
L416.026 215.378
L416.1 217.302
L416.174 220.608
L416.323 206.058
L416.398 207.821
L416.546 202.291
L416.621 197.096
L416.695 197.683
L416.77 203.662
L416.993 239.8
L417.29 205.931
L417.365 200.713
L417.662 241.874
L417.96 196.831
L418.034 205.505
L418.183 255.871
L418.258 252.253
L418.481 209.837
L418.63 175.104
L418.853 230.907
L418.927 229.19
L419.225 189.308
L419.299 192.925
L419.522 231.898
L419.746 193.651
L419.82 196.474
L419.969 219.802
L420.118 241.263
L420.415 210.92
L420.49 212.717
L420.787 234.098
L420.862 232.335
L421.159 182.742
L421.234 185.99
L421.382 230.066
L421.457 227.048
L421.829 200.598
L422.126 248.682
L422.498 190.875
L422.722 285.754
L422.796 271.342
L423.019 177.754
L423.094 179.09
L423.391 268.934
L423.466 254.258
L423.763 159.448
L423.912 215.458
L423.986 238.383
L424.284 186.509
L424.358 190.99
L424.507 234.317
L424.582 230.573
L424.656 234.95
L424.73 230.849
L424.954 174.47
L425.326 229.294
L425.4 220.792
L425.474 220.159
L425.698 231.287
L426.07 257.691
L426.144 251.862
L426.367 190.955
L426.442 188.813
L426.665 251.113
L426.962 173.883
L427.037 178.318
L427.334 258.935
L427.409 257.276
L427.558 178.606
L427.632 180.933
L427.706 178.882
L427.781 186.301
L427.93 261.469
L428.153 195.183
L428.227 198.259
L428.302 202.786
L428.45 236.69
L428.525 232.059
L428.599 233.614
L428.674 244.95
L428.897 170.807
L428.971 180.806
L429.12 192.476
L429.269 246.839
L429.566 207.694
L429.641 197.026
L429.864 226.057
L430.013 286.387
L430.236 194.146
L430.31 202.775
L430.385 198.778
L430.459 213.12
L430.608 260.386
L430.831 188.962
L430.98 167.27
L431.352 285.788
L431.575 154.045
L431.798 238.084
L431.873 287.067
L431.947 282.516
L432.17 164.194
L432.245 164.529
L432.617 265.997
L432.691 254.868
L432.84 140.567
L433.212 268.6
L433.51 205.114
L433.584 198.858
L433.658 208.892
L433.807 239.017
L433.882 238.625
L433.956 269.28
L434.03 263.243
L434.179 152.628
L434.328 198.639
L434.402 188.905
L434.551 275.697
L434.626 249.5
L434.774 178.779
L434.849 180.219
L434.923 174.574
L434.998 187.81
L435.221 286.744
L435.295 300.269
L435.518 127.48
L435.89 310.314
L436.114 167.109
L436.188 155.336
L436.262 170.473
L436.486 277.494
L436.56 288.518
L436.634 270.789
L436.783 95.3394
L436.858 113.771
L437.155 304.289
L437.23 297.492
L437.453 143.7
L437.527 142.03
L437.75 264.66
L437.825 260.767
L437.899 272.989
L437.974 258.486
L438.122 117.838
L438.494 306.236
L438.866 149.449
L439.015 264.741
L439.09 255.79
L439.164 247.795
L439.238 275.386
L439.313 244.904
L439.462 122.803
L439.759 273.588
L439.834 304.543
L440.057 174.459
L440.131 155.67
L440.354 281.261
L440.429 250.237
L440.578 259.949
L440.726 127.1
L440.875 213.972
L440.95 208.431
L441.098 319.023
L441.173 297.734
L441.396 138.839
L441.47 120.637
L441.619 274.36
L441.694 271.319
L441.768 240.111
L441.842 254.12
L441.917 238.51
L442.066 132.307
L442.214 209.814
L442.289 190.725
L442.438 291.249
L442.735 160.278
L442.81 173.099
L442.958 290.914
L443.107 239.316
L443.182 259.707
L443.33 150.301
L443.405 172.063
L443.479 212.97
L443.554 202.66
L443.628 199.204
L443.777 281.295
L444 178.882
L444.074 153.815
L444.223 283.219
L444.298 270.524
L444.372 221.898
L444.446 240.031
L444.521 256.32
L444.67 126.109
L444.893 198.824
L444.967 222.751
L445.042 294.071
L445.116 274.003
L445.339 171.36
L445.414 165.646
L445.562 309.934
L445.711 239.558
L445.786 241.793
L445.86 208.581
L445.934 123.828
L446.009 124.762
L446.306 270.824
L446.381 261.711
L446.53 188.029
L446.678 148.205
L446.827 301.547
L446.902 286.975
L447.05 236.171
L447.125 235.342
L447.274 166.637
L447.348 186.313
L447.646 284.049
L447.943 167.501
L448.018 173.56
L448.166 265.594
L448.315 189.953
L448.39 193.167
L448.464 189.78
L448.538 145.693
L448.613 151.085
L448.91 297.366
L448.985 272.148
L449.134 203.501
L449.282 193.006
L449.431 283.576
L449.878 169.056
L449.878 169.056" style="fill:none;stroke:#808080;stroke-linecap:square;"/>
   </g>
  </g>
 </g>
 <defs>
  <clipPath id="p7ff5b81e1d">
   <rect height="345.6" width="446.4" x="72.0" y="43.2"/>
  </clipPath>
 </defs>
</svg>
