<?xml version="1.0" encoding="utf-8" standalone="no"?>
<!DOCTYPE svg PUBLIC "-//W3C//DTD SVG 1.1//EN"
  "http://www.w3.org/Graphics/SVG/1.1/DTD/svg11.dtd">
<!-- Created with matplotlib (http://matplotlib.org/) -->
<svg height="432pt" version="1.1" viewBox="0 0 576 432" width="576pt" xmlns="http://www.w3.org/2000/svg" xmlns:xlink="http://www.w3.org/1999/xlink">
 <defs>
  <style type="text/css">
*{stroke-linecap:butt;stroke-linejoin:round;}
  </style>
 </defs>
 <g id="figure_1">
  <g id="patch_1">
   <path d="
M0 432
L576 432
L576 0
L0 0
z
" style="fill:#ffffff;"/>
  </g>
  <g id="axes_1">
   <g id="line2d_1">
    <path clip-path="url(#p7ff5b81e1d)" d="
M72 222.764
L72.0744 227.775
L72.4464 290.357
L72.5208 290.876
L72.5952 284.079
L72.8184 248.482
L72.8928 246.351
L72.9672 239.496
L73.2648 183.077
L73.3392 182.184
L73.6368 198.831
L73.86 206.204
L73.9344 203.612
L74.1576 167.64
L74.232 169.599
L74.4552 197.909
L74.5296 194.568
L74.6784 184.143
L75.0504 233.736
L75.2736 208.421
L75.348 211.848
L75.5712 228.149
L75.72 222.591
L75.7944 228.063
L75.9432 244.796
L76.1664 220.517
L76.3896 243.442
L76.464 236.904
L76.6128 199.32
L76.6872 201.365
L77.0592 272.616
L77.1336 268.383
L77.3568 222.274
L77.58 191.228
L77.8032 210.84
L77.952 208.248
L78.324 172.191
L78.3984 170.866
L78.6216 200.588
L78.696 199.119
L78.7704 201.567
L78.8448 197.996
L78.9192 199.637
L78.9936 203.727
L79.068 202.258
L79.2168 194.194
L79.5144 227.976
L79.5888 225.557
L79.812 241.8
L79.9608 220.488
L80.1096 180.658
L80.184 186.101
L80.4072 275.813
L80.6304 330.62
L80.7792 289.09
L81.1512 163.464
L81.2256 183.711
L81.3 189.471
L81.4488 174.437
L81.5232 175.733
L81.5976 175.676
L81.7464 138.12
L81.9696 225.96
L82.044 222.072
L82.3416 153.01
L82.788 266.626
L82.9368 282.495
L83.0856 269.938
L83.3832 194.194
L83.6064 220.69
L83.7552 238.056
L84.1272 210.84
L84.2016 216.312
L84.276 214.037
L84.4992 189.903
L84.5736 199.608
L84.648 193.445
L84.7224 194.54
L84.8712 202.892
L84.9456 213.576
L85.02 208.796
L85.0944 204.62
L85.2432 231.087
L85.5408 290.328
L85.8384 212.684
L86.0616 206.204
L86.136 200.703
L86.3592 170.06
L86.4336 168.879
L86.6568 185.468
L86.7312 183.855
L86.8056 180.629
L87.0288 210.898
L87.1032 209.141
L87.252 215.132
L87.624 257.468
L87.7728 243.269
L87.8472 244.796
L87.996 243.413
L88.2192 201.567
L88.2936 199.522
L88.368 202.085
L88.5912 188.866
L88.6656 180.744
L88.74 182.357
L88.8144 188.722
L89.0376 239.698
L89.112 237.912
L89.2608 227.314
L89.6328 271.551
L90.0792 176.223
L90.1536 179.304
L90.3768 191.112
L90.6 169.57
L90.7488 193.474
L90.972 237.192
L91.1208 215.535
L91.1952 216.831
L91.4184 241.368
L91.5672 239.237
L91.6416 239.669
L91.8648 212.741
L91.9392 214.124
L92.088 209.832
L92.1624 212.568
L92.46 251.42
L92.5344 248.626
L92.6832 233.132
L92.9064 205.541
L92.9808 209.516
L93.1296 218.501
L93.3528 185.612
L93.5016 175.532
L93.6504 158.108
L93.8736 184.805
L93.948 180.572
L94.0968 190.709
L94.3944 238.949
L94.5432 268.988
L94.692 255.192
L94.8408 286.556
L94.9152 301.071
L94.9896 298.968
L95.1384 296.664
L95.2128 287.823
L95.5104 196.844
L95.808 160.988
L95.8824 161.304
L96.0312 153.24
L96.1056 129.941
L96.18 132.879
L96.4032 182.933
L96.4776 178.7
L96.552 181.637
L96.7008 202.028
L96.7752 200.156
L96.8496 186.879
L96.924 186.994
L97.2216 234.831
L97.296 245.832
L97.4448 290.156
L97.5192 287.679
L97.5936 279.039
L97.7424 299.861
L97.8168 296.52
L98.3376 209.631
L99.0072 148.46
L99.6768 241.311
L99.9 206.204
L99.9744 206.463
L100.198 229.56
L100.346 248.943
L100.421 256.373
L100.644 208.306
L100.942 159.98
L101.314 190.94
L101.537 248.77
L101.686 264.293
L101.834 279.442
L101.909 283.128
L102.206 259.685
L102.281 260.952
L102.355 258.936
L102.653 228.38
L102.727 228.725
L103.174 175.186
L103.397 193.445
L103.546 167.698
L103.769 124.44
L103.843 127.868
L103.992 176.741
L104.215 238.834
L104.29 236.904
L104.513 248.252
L104.662 233.103
L104.736 235.81
L104.885 220.2
L105.034 212.108
L105.331 230.943
L105.406 228.783
L105.629 243.298
L105.778 233.996
L106.075 228.408
L106.224 223.541
L106.447 258.62
L106.596 277.224
L107.266 179.016
L107.414 169.368
L107.638 192.495
L107.786 176.799
L107.935 143.103
L108.382 190.882
L108.456 198.428
L108.605 229.906
L108.679 231.346
L108.828 238.2
L109.051 223.109
L109.2 260.434
L109.274 256.892
L109.349 247.301
L109.423 247.388
L109.498 245.746
L109.721 216.168
L109.795 218.962
L110.018 246.264
L110.093 242.52
L110.316 223.397
L110.39 217.061
L110.465 219.682
L110.688 229.128
L110.837 225.845
L110.911 225.989
L111.134 219.106
L111.283 210.178
L111.358 210.639
L111.432 210.552
L111.581 204.792
L111.655 207.413
L111.953 143.736
L112.176 186.447
L112.325 175.244
L112.622 212.165
L112.697 208.997
L112.92 225.442
L113.069 213.029
L113.143 219.192
L113.366 247.272
L113.441 248.396
L113.59 259.944
L113.813 241.34
L113.962 256.316
L114.036 254.76
L114.259 225.413
L114.482 237.855
L114.557 233.823
L114.631 236.904
L114.706 235.724
L114.929 207.442
L115.003 212.28
L115.078 208.968
L115.226 178.728
L115.301 181.004
L115.375 190.133
L115.45 189.989
L115.524 180.024
L115.673 197.074
L115.747 192.092
L115.896 166.287
L116.045 182.04
L116.119 176.54
L116.194 177.26
L116.64 224.549
L116.714 227.055
L116.938 238.575
L117.161 247.445
L117.31 251.477
L117.384 249
L117.458 250.21
L117.682 260.463
L117.756 256.431
L117.979 187.628
L118.054 189.788
L118.128 192.236
L118.202 185.295
L118.426 204.62
L118.649 179.909
L118.872 164.991
L118.946 165.999
L119.17 211.474
L119.467 284.396
L119.616 293.064
L120.36 202.546
L120.509 208.536
L120.732 190.623
L120.955 138.322
L121.178 162.86
L121.402 190.162
L121.476 191.084
L121.55 189.471
L121.625 195.029
L121.922 259.196
L121.997 262.853
L122.071 261.989
L122.294 228.898
L122.369 229.762
L122.592 266.28
L122.666 261.557
L122.741 262.68
L122.815 255.941
L122.964 226.882
L123.038 225.672
L123.262 193.704
L123.41 179.679
L123.485 187.08
L123.559 208.479
L123.634 207.039
L123.782 216.831
L123.857 214.959
L124.006 183.02
L124.08 193.244
L124.154 196.584
L124.378 227.688
L124.452 225.759
L124.526 228.725
L124.675 237.279
L125.27 190.594
L125.345 195.951
L125.419 197.333
L125.642 172.45
L125.94 215.794
L126.014 212.453
L126.163 223.282
L126.461 190.191
L126.61 219.74
L126.833 251.852
L126.982 261.01
L127.13 258.908
L127.205 264.524
L127.502 232.469
L127.577 233.391
L127.651 230.54
L127.8 252.284
L127.874 247.33
L128.098 195.836
L128.246 209.861
L128.47 176.511
L128.544 177.951
L128.618 189.788
L128.693 187.743
L128.842 161.506
L128.916 163.32
L129.065 178.7
L129.362 264.783
L129.437 260.751
L129.66 231.144
L130.33 160.037
L130.478 182.444
L130.85 255.567
L131.074 239.18
L131.148 240.216
L131.222 240.274
L131.446 231.605
L131.52 232.7
L131.743 248.54
L131.966 267.432
L132.264 241.656
L132.413 210.207
L132.487 210.956
L132.71 231.692
L132.785 231.605
L133.082 180.773
L133.306 123.173
L133.454 148.316
L133.529 148.229
L133.603 145.176
L133.678 146.818
L133.901 170.693
L134.273 245.285
L134.496 255.25
L134.794 237.308
L134.868 239.266
L135.017 264.84
L135.091 256.834
L135.314 243.356
L135.463 254.271
L135.538 256.661
L135.761 222.764
L135.91 247.33
L136.356 183.106
L136.654 207.5
L136.728 207.384
L137.174 159.288
L137.249 161.564
L137.398 177.778
L137.546 155.055
L137.993 257.266
L138.365 227.256
L138.514 227.66
L138.588 230.021
L138.737 249.461
L138.811 244.709
L139.034 276.13
L139.704 172.623
L139.778 181.378
L139.853 184.056
L140.002 202.719
L140.15 208.796
L140.225 205.023
L140.299 210.38
L140.374 207.471
L140.522 221.698
L140.894 182.703
L141.043 160.268
L141.118 164.789
L141.564 245.516
L141.713 228.869
L141.936 259.368
L142.085 236.674
L142.159 241.455
L142.234 241.196
L142.308 243.442
L142.531 208.277
L142.68 194.655
L142.829 173.919
L143.126 214.21
L143.424 276.36
L143.498 276.706
L143.87 246.84
L143.945 249.404
L144.094 235.695
L144.391 171.442
L144.54 158.972
L144.763 140.655
L144.912 146.242
L145.135 199.205
L145.21 202.546
L145.284 197.218
L145.358 203.756
L145.507 196.815
L146.028 262.018
L146.102 261.269
L146.177 251.333
L146.251 252.399
L146.4 255.826
L146.549 232.44
L146.623 232.613
L146.698 231.202
L146.772 227.343
L146.846 227.832
L146.921 230.856
L147.07 247.618
L147.218 239.295
L147.367 215.42
L147.665 230.856
L147.739 231.749
L147.888 206.146
L148.111 168.821
L148.26 178.786
L148.334 177.72
L148.632 157.33
L148.781 165.308
L149.078 234.543
L149.153 231.951
L149.227 231.144
L149.302 226.479
L149.748 269.564
L149.822 271.263
L149.897 277.023
L149.971 274.143
L150.046 275.727
L150.12 270.312
L150.343 186.792
L150.492 196.901
L150.715 180.428
L150.864 191.948
L150.938 188.29
L151.013 189.701
L151.906 260.405
L151.98 258.85
L152.054 259.512
L152.129 258.389
L152.575 166.085
L152.65 168.36
L152.724 166.402
L152.798 171.413
L153.096 206.232
L153.245 210.725
L153.319 209.055
L153.542 229.704
L153.617 228.38
L153.691 229.042
L153.766 230.77
L153.914 218.818
L153.989 213.317
L154.063 217.032
L154.286 249.951
L154.361 248.338
L154.435 246.783
L154.584 259.109
L154.658 256.69
L154.807 238.172
L154.956 222.591
L155.03 219.855
L155.254 181.752
L155.328 175.272
L155.551 204.677
L155.7 198.456
L155.923 212.885
L155.998 211.704
L156.221 186.504
L156.37 170.837
L156.593 201.365
L156.667 191.429
L156.742 192.581
L156.816 197.592
L157.188 300.437
L157.262 299.861
L157.709 202.517
L157.932 172.479
L158.081 161.938
L158.155 163.81
L158.23 164.271
L158.453 198.456
L158.676 245.976
L158.899 257.928
L158.974 256.604
L159.122 243.557
L159.346 223.772
L159.569 232.872
L159.643 231.807
L159.718 233.65
L159.866 227.343
L160.313 163.205
L160.387 165.25
L160.536 155.084
L160.759 179.823
L161.057 251.103
L161.131 247.733
L161.206 236.732
L161.28 241.455
L161.429 252.716
L161.652 246.38
L161.95 217.695
L162.098 219.567
L162.322 225.73
L162.619 216.082
L162.768 223.916
L162.917 235.637
L162.991 234.255
L163.066 229.388
L163.438 181.032
L163.512 182.703
L163.81 211.647
L163.884 208.594
L164.182 239.64
L164.256 240.159
L164.33 243.356
L164.554 232.93
L164.628 235.234
L164.777 248.05
L165.372 128.588
L165.521 147.509
L165.67 183.711
L165.818 226.018
L165.893 224.06
L165.967 212.655
L166.339 273.336
L166.488 301.589
L166.562 302.424
L166.934 222.994
L167.009 223.224
L167.083 229.848
L167.306 201.653
L167.455 181.551
L167.604 179.967
L167.678 183.682
L167.902 164.357
L167.976 166.805
L168.497 229.56
L168.646 253.061
L168.72 245.285
L168.943 257.871
L169.018 255.164
L169.241 212.108
L169.39 212.77
L169.538 225.327
L169.985 181.752
L170.059 181.349
L170.282 137.112
L170.357 137.4
L170.58 222.706
L170.952 314.434
L171.398 205.455
L171.473 213.72
L171.547 209.919
L171.77 193.532
L171.845 195.058
L171.919 190.968
L172.217 220.402
L172.291 219.164
L172.366 216.456
L172.44 216.6
L172.738 172.997
L172.812 180.255
L172.886 173.544
L173.11 200.3
L173.184 215.679
L173.258 208.824
L173.333 205.052
L173.63 169.08
L173.928 237.394
L174.002 241.138
L174.3 308.962
L174.374 303.663
L174.449 306.284
L174.895 208.652
L174.97 218.674
L175.267 179.967
L175.342 184.2
L175.49 156.495
L175.565 158.165
L175.714 182.098
L175.788 176.828
L176.16 201.912
L176.458 262.191
L176.532 252.514
L176.606 252.37
L176.681 250.671
L176.83 267.231
L176.978 254.098
L177.202 203.208
L177.276 198.946
L177.574 146.559
L177.648 151.397
L177.871 182.184
L178.541 279.874
L178.615 269.794
L178.69 245.544
L178.764 250.037
L178.913 266.741
L178.987 257.698
L179.21 214.066
L179.508 185.9
L179.582 186.447
L179.657 188.204
L179.88 209.919
L179.954 213.144
L180.029 207.932
L180.178 216.284
L180.252 216.802
L180.326 194.079
L180.401 200.271
L180.624 240.245
L180.698 232.93
L180.773 231.634
L181.07 212.568
L181.145 213.663
L181.294 223.138
L181.368 215.823
L181.517 180.082
L181.889 216.168
L182.038 240.476
L182.112 236.76
L182.261 223.08
L182.335 220.46
L182.41 228.034
L182.782 190.853
L182.93 198.082
L183.154 221.036
L183.228 218.616
L183.302 219.308
L183.526 244.335
L183.6 245.199
L183.823 208.162
L184.121 256.776
L184.195 254.3
L184.344 241.311
L184.493 250.296
L184.567 254.818
L184.716 230.799
L185.237 119.458
L185.534 169.426
L185.832 215.909
L185.981 194.885
L186.204 213.922
L186.278 217.407
L186.502 267.432
L186.725 294.764
L186.874 304.988
L187.022 289.032
L187.394 207.73
L187.618 188.693
L187.692 190.652
L187.766 189.096
L187.841 172.45
L187.915 173.199
L188.064 202.316
L188.213 220.805
L188.287 222.908
L188.659 207.586
L188.734 199.522
L188.808 199.925
L188.882 196.469
L188.957 197.218
L189.106 218.098
L189.18 212.712
L189.329 170.952
L189.403 172.536
L189.552 178.44
L189.626 177.692
L189.85 202.056
L189.924 200.616
L189.998 202.056
L190.147 217.695
L190.296 208.22
L190.519 232.152
L190.668 225.903
L190.742 226.853
L190.966 278.981
L191.04 276.188
L191.338 253.637
L191.412 260.232
L191.561 228.005
L191.71 205.714
L191.858 215.736
L191.933 235.148
L192.007 233.333
L192.454 201.48
L192.602 187.916
L192.677 182.069
L192.826 163.695
L192.9 170.808
L193.123 206.376
L193.272 191.429
L193.346 196.959
L193.421 194.684
L193.57 178.786
L193.718 196.152
L193.793 194.972
L193.867 193.762
L193.942 198.572
L194.314 257.756
L194.462 255.538
L194.537 251.477
L194.611 252.14
L194.686 249.576
L194.909 197.362
L195.132 191.026
L195.355 203.813
L195.653 250.383
L195.727 249.548
L195.802 241.311
L195.876 242.175
L196.025 270.946
L196.099 266.108
L196.248 242.693
L196.397 217.58
L196.471 221.064
L196.62 251.996
L196.694 249.576
L197.438 130.575
L197.736 150.821
L197.885 142.93
L198.331 199.234
L198.406 204.677
L198.778 312.389
L198.926 341.42
L199.075 320.165
L199.298 263.4
L199.447 279.125
L199.745 253.81
L200.414 127.378
L200.489 125.564
L200.638 151.541
L201.01 233.592
L201.084 236.847
L201.382 209.976
L201.605 243.5
L201.902 199.464
L201.977 200.588
L202.2 218.127
L202.498 177.836
L202.572 180.629
L202.646 174.437
L202.721 177
L202.87 170.146
L202.944 181.032
L203.167 246.38
L203.242 247.042
L203.39 251.592
L203.465 257.093
L203.539 250.152
L203.614 255.48
L203.837 304.124
L204.209 233.074
L204.283 235.263
L204.506 276.965
L204.804 151.772
L204.878 154.594
L204.953 149.525
L205.25 165.768
L205.325 149.9
L205.399 153.039
L205.474 157.244
L205.846 219.826
L205.92 219.48
L205.994 213.288
L206.143 188.434
L206.218 190.104
L206.441 225.701
L206.515 252.255
L206.59 248.856
L206.813 220.2
L206.887 244.306
L206.962 236.991
L207.11 209.688
L207.185 202.604
L207.482 260.031
L207.557 257.208
L207.631 258.044
L207.706 235.868
L207.78 240.13
L208.003 263.775
L208.226 225.932
L208.301 229.589
L208.598 180.917
L208.673 184.546
L208.747 191.343
L208.822 190.565
L208.896 193.388
L208.97 193.013
L209.194 168.677
L209.491 240.677
L209.566 237.682
L210.086 156.754
L210.235 185.18
L210.384 217.983
L210.458 218.04
L210.533 222.764
L210.682 192.351
L210.756 201.97
L210.83 188.261
L211.351 300.581
L211.426 294.274
L211.5 290.328
L211.574 290.559
L211.798 306.975
L212.021 246.639
L212.244 201.797
L212.467 186.85
L212.616 166.949
L212.765 132.994
L212.988 165.48
L213.062 160.728
L213.137 153.24
L213.211 157.791
L213.509 199.09
L213.583 197.535
L213.732 215.765
L213.955 246.236
L214.104 278.463
L214.178 282.869
L214.253 276.274
L214.848 160.93
L214.997 154.853
L215.071 162.629
L215.294 210.408
L215.369 218.53
L215.443 216.226
L215.592 222.879
L215.666 221.093
L215.741 216.14
L215.815 225.528
L216.038 307.637
L216.113 303
L216.336 296.405
L216.559 256.69
L216.931 189.96
L217.006 190.191
L217.08 189.5
L217.229 154.536
L217.378 157.013
L217.526 155.775
L217.601 166.316
L217.75 207.327
L217.898 196.066
L218.122 173.948
L218.27 179.996
L218.568 223.599
L218.642 201.797
L218.717 207.125
L218.94 258.85
L219.312 217.608
L219.535 246.351
L219.684 240.85
L219.758 231.49
L219.907 240.792
L219.982 232.786
L220.279 258.303
L220.577 199.81
L220.726 194.914
L220.8 201.135
L220.874 198.255
L221.098 174.034
L221.47 250.325
L221.544 247.848
L221.916 204.764
L222.065 182.069
L222.288 101.084
L222.362 103.906
L222.809 205.512
L222.883 205.599
L222.958 212.626
L223.33 328.056
L223.404 328.69
L223.85 276.936
L223.925 280.824
L223.999 276.447
L224.669 126.658
L224.818 75.0772
L224.892 78.6196
L225.19 171.413
L225.487 251.938
L225.636 259.541
L225.859 233.045
L226.157 257.439
L226.231 263.775
L226.306 261.413
L226.454 244.248
L226.678 195.778
L226.901 156.293
L226.975 161.938
L227.198 198.86
L227.422 271.292
L227.645 232.613
L227.868 244.162
L228.017 236.876
L228.091 242.78
L228.538 215.794
L228.612 213.692
L228.761 194.511
L228.91 184.316
L228.984 189.068
L229.207 235.407
L229.282 234.946
L229.43 205.685
L229.654 149.871
L229.802 134.952
L229.877 137.861
L230.249 223.628
L230.472 239.957
L230.546 232.988
L230.844 272.04
L230.918 266.972
L231.142 297.701
L231.216 297.125
L231.737 199.032
L232.034 113.324
L232.183 123.144
L232.63 176.021
L233.225 305.679
L233.299 309.077
L233.374 308.818
L234.192 161.016
L234.266 158.712
L234.564 178.786
L235.308 273.509
L235.382 274.431
L235.531 280.479
L235.606 276.879
L235.754 239.928
L236.052 180.658
L236.275 210.207
L236.35 208.594
L236.498 181.522
L236.647 150.562
L236.722 153.932
L236.945 184.431
L237.019 183.97
L237.242 166.287
L237.391 195.202
L237.614 230.54
L237.838 255.135
L237.986 246.351
L238.135 253.378
L238.21 252.312
L238.284 246.178
L238.358 250.988
L238.507 272.991
L238.582 267.26
L238.805 222.245
L238.879 225.183
L239.028 246.408
L239.177 241.311
L239.326 225.903
L239.623 143.045
L239.846 166.776
L239.921 165.768
L240.144 168.188
L240.293 175.042
L240.59 236.386
L240.739 240.591
L240.814 236.472
L240.888 239.295
L241.186 272.501
L241.26 270.37
L241.334 262.536
L241.632 167.007
L241.706 174.12
L242.004 219.653
L242.153 208.421
L242.227 210.236
L242.748 274.114
L242.822 273.279
L243.194 223.628
L243.343 198.111
L243.492 214.7
L243.566 210.38
L243.938 135.845
L244.013 132.677
L244.236 180.226
L244.31 176.799
L244.385 174.466
L244.459 167.756
L244.534 168.821
L244.682 192.466
L244.757 192.236
L244.831 194.684
L245.129 254.069
L245.203 254.069
L245.278 253.436
L245.352 255.48
L245.501 271.09
L245.65 289.292
L245.724 289.436
L245.798 284.223
L245.873 292.085
L245.947 291.336
L246.319 248.338
L246.542 190.911
L246.617 182.703
L246.766 144.485
L247.138 172.392
L247.361 150.735
L247.51 178.556
L247.584 196.181
L247.658 193.906
L247.807 207.125
L247.956 238.46
L248.03 236.501
L248.105 238.69
L248.179 233.506
L248.254 235.839
L248.328 237.423
L248.402 236.789
L248.477 233.679
L248.551 224.808
L248.626 227.573
L248.849 247.128
L248.923 246.149
L248.998 245.285
L249.221 231
L249.444 194.396
L249.518 186.85
L249.593 189.903
L250.114 243.01
L250.337 275.928
L250.411 272.184
L250.486 264.408
L250.783 193.33
L251.006 179.391
L251.081 175.042
L251.23 159.864
L251.304 159.893
L251.453 131.439
L251.527 134.78
L252.048 226.968
L252.122 219.855
L252.346 233.564
L252.569 254.184
L252.643 253.896
L252.792 263.372
L253.015 228.927
L253.09 230.194
L253.387 288.082
L253.61 225.212
L253.685 231.058
L254.057 286.354
L254.131 289.407
L254.206 281.516
L254.652 103.762
L254.726 99.4996
L254.95 117.068
L255.247 200.127
L255.396 225.989
L255.47 225.471
L255.619 233.794
L255.694 229.704
L255.991 156.956
L256.214 191.544
L256.512 272.386
L256.661 268.037
L256.735 251.967
L256.81 255.97
L257.033 287.996
L257.33 217.493
L257.554 276.62
L257.628 277.656
L257.926 229.416
L258 231.231
L258.149 239.324
L258.521 174.149
L258.595 156.581
L258.67 162.687
L258.893 172.536
L259.116 116.232
L259.19 120.754
L259.488 195.98
L259.711 177.26
L259.786 182.3
L260.232 277.08
L260.306 271.263
L260.53 252.6
L260.678 272.242
L260.753 269.304
L260.902 261.615
L260.976 261.557
L261.05 255.423
L261.274 280.364
L261.422 240.706
L261.571 222.591
L261.646 227.976
L261.72 227.199
L262.166 163.551
L262.241 165.336
L262.315 173.084
L262.39 171.759
L262.464 169.772
L262.613 174.178
L262.836 137.084
L262.91 142.872
L263.282 238.517
L263.506 200.53
L263.729 217.061
L263.803 213.202
L263.878 214.988
L263.952 222.821
L264.026 217.292
L264.25 252.37
L264.324 253.925
L264.398 250.412
L264.473 252.456
L264.622 235.81
L264.696 237.538
L264.919 284.943
L265.366 228.466
L265.44 234.773
L265.589 265.128
L265.663 258.735
L265.961 179.16
L266.035 186.245
L266.11 191.112
L266.184 190.392
L266.258 192.149
L266.407 211.071
L266.63 145.148
L266.705 150.072
L266.854 167.093
L267.002 124.21
L267.077 133.858
L267.226 167.525
L267.449 225.845
L267.672 167.554
L268.118 269.823
L268.267 218.847
L268.342 234.514
L268.565 326.616
L268.639 323.448
L268.788 292.805
L269.011 249.807
L269.16 271.061
L269.234 269.765
L269.383 215.247
L269.532 158.424
L269.83 200.184
L269.904 199.896
L270.127 150.504
L270.202 152.52
L270.425 213.98
L270.499 211.244
L270.722 166.69
L270.797 168.216
L271.02 210.207
L271.318 122.914
L271.541 168.447
L271.838 293.928
L271.987 268.412
L272.062 272.242
L272.21 306.456
L272.285 303.317
L272.582 234.312
L272.657 236.357
L272.88 250.095
L272.954 246.034
L273.029 249.029
L273.252 231.72
L273.326 230.712
L273.55 240.332
L273.624 245.256
L273.773 220.661
L274.07 161.679
L274.145 178.412
L274.219 174.581
L274.368 144.773
L274.442 117.212
L274.517 119.487
L274.591 124.642
L274.74 152.261
L274.889 146.444
L275.038 128.904
L275.261 186.476
L275.484 232.671
L275.558 235.061
L275.707 270.197
L276.005 366.879
L276.228 324.744
L276.526 246.552
L276.674 234.773
L276.749 239.64
L277.493 153.212
L277.567 157.272
L277.865 202.69
L278.014 189.154
L278.162 155.141
L278.237 155.228
L278.386 181.896
L278.46 178.181
L278.609 153.154
L279.055 230.424
L279.13 223.368
L279.278 213.231
L279.576 258.274
L279.65 259.08
L279.948 228.725
L280.171 253.09
L280.246 249.778
L280.394 256.488
L280.469 253.781
L280.543 242.319
L280.766 267.749
L280.915 251.88
L281.064 272.501
L281.138 268.325
L281.808 129.999
L281.957 134.031
L282.106 121.042
L282.254 144.082
L282.329 140.453
L282.403 145.032
L282.552 203.986
L282.626 203.237
L282.701 198.341
L282.775 199.032
L283.222 303.26
L283.296 302.828
L283.37 306.687
L283.519 320.741
L284.338 163.954
L284.412 163.752
L284.561 145.09
L284.858 166.488
L285.156 240.36
L285.379 213.548
L285.454 213.605
L285.751 246.984
L285.9 273.452
L286.049 248.712
L286.198 211.791
L286.346 229.33
L286.421 228.38
L286.718 183.653
L286.867 163.061
L286.942 163.637
L287.016 172.335
L287.09 163.004
L287.388 219.912
L287.462 203.237
L287.537 209.66
L287.611 211.071
L287.76 230.568
L287.834 213.087
L288.132 310.344
L288.281 296.405
L288.578 246.668
L288.653 240.677
L288.95 172.767
L289.025 190.565
L289.248 162.284
L289.322 165.884
L289.397 175.791
L289.471 171.298
L289.546 171.816
L289.62 161.448
L289.769 184.056
L290.141 243.586
L290.215 233.276
L290.29 233.189
L290.364 236.444
L290.513 248.597
L290.587 238.892
L290.662 244.709
L290.736 243.096
L291.108 205.656
L291.331 238.373
L291.778 179.016
L291.852 162.312
L291.926 167.957
L292.15 234.197
L292.224 232.21
L292.298 234.14
L292.373 220.834
L292.447 223.8
L292.745 241.368
L292.819 257.295
L292.968 216.226
L293.042 217.032
L293.191 232.988
L293.34 213.98
L293.414 216.543
L293.563 201.106
L293.638 186.562
L293.786 218.789
L293.861 211.416
L294.01 163.464
L294.084 169.368
L294.233 203.727
L294.307 205.08
L294.382 200.933
L294.605 227.141
L294.679 230.28
L294.754 218.616
L294.977 236.588
L295.051 231.951
L295.126 217.839
L295.2 224.78
L295.274 228.207
L295.423 247.935
L295.498 241.052
L295.646 250.815
L295.721 258.447
L296.018 187.397
L296.167 201.25
L296.242 191.516
L296.39 203.18
L296.614 151.311
L296.688 160.642
L296.762 160.296
L296.986 205.34
L297.283 241.916
L297.432 273.711
L297.581 247.301
L297.73 193.157
L298.25 276.447
L298.399 265.33
L298.474 259.196
L298.846 201.135
L299.143 138.956
L299.218 147.884
L299.292 149.784
L299.59 181.436
L299.738 169.397
L299.813 169.052
L299.962 208.767
L300.11 242.78
L300.259 235.349
L300.482 252.284
L300.631 271.032
L300.78 250.786
L301.078 195.231
L301.226 219.97
L301.524 163.205
L301.673 188.146
L301.97 258.072
L302.045 253.061
L302.342 322.786
L302.417 305.247
L302.64 242.952
L302.938 212.136
L303.161 168.101
L303.235 168.447
L303.533 121.618
L304.277 226.133
L304.351 218.76
L304.574 199.464
L304.798 227.919
L305.095 287.42
L305.393 319.157
L306.062 208.882
L306.137 215.16
L306.509 170.751
L306.732 112.719
L306.806 114.879
L306.881 114.274
L307.178 185.784
L307.402 245.919
L307.625 264.092
L307.699 262.68
L307.997 229.877
L308.071 231.893
L308.22 246.84
L308.294 244.133
L308.592 199.925
L308.666 213.231
L308.741 208.68
L308.89 185.813
L309.038 152.866
L309.113 147.538
L309.634 258.389
L309.708 252.226
L309.782 258.504
L309.857 243.471
L310.154 297.528
L310.452 252.485
L310.526 252.37
L310.601 237.596
L310.675 241.685
L310.824 212.252
L311.122 138.063
L311.345 163.119
L311.419 155.4
L311.568 124.124
L312.758 288.716
L312.833 285.202
L312.907 288.6
L312.982 283.733
L313.13 296.837
L313.279 285.116
L313.726 184.229
L313.8 199.954
L313.874 198.831
L313.949 207.413
L314.023 201.394
L314.098 202.978
L314.172 213.404
L314.246 207.442
L314.395 214.815
L314.544 218.156
L314.916 144.37
L314.99 152.866
L315.214 198.428
L315.288 190.882
L315.437 159.749
L315.511 156.639
L316.404 262.997
L316.553 271.608
L316.85 253.522
L317.074 270.428
L317.148 268.844
L317.371 245.804
L317.446 258.764
L317.52 253.637
L317.743 189.269
L317.818 197.276
L317.892 193.791
L317.966 193.272
L318.041 194.626
L318.19 211.877
L318.264 206.924
L318.338 211.071
L318.71 186.303
L318.785 175.272
L318.859 175.503
L318.934 180.312
L319.008 178.728
L319.231 165.452
L319.38 182.962
L319.529 218.789
L319.678 186.85
L319.752 189.442
L319.826 202.056
L319.901 197.448
L319.975 198.572
L320.05 210.956
L320.124 205.743
L320.198 206.607
L320.273 215.189
L320.496 261.125
L320.57 273.423
L320.645 265.618
L320.719 266.453
L320.794 266.712
L320.942 261.759
L321.017 249.72
L321.091 252.284
L321.389 220.46
L321.538 242.002
L321.686 251.391
L321.984 184.661
L322.133 189.788
L322.356 216.975
L322.579 232.124
L322.877 183.999
L322.951 186.418
L323.174 174.178
L323.323 187.167
L323.398 181.119
L323.621 203.669
L323.695 219.855
L323.77 217.004
L323.993 164.674
L324.29 212.914
L324.365 212.424
L324.439 209.026
L324.514 209.804
L324.737 225.989
L324.886 247.848
L325.109 283.82
L325.258 294.533
L325.332 293.9
L325.555 281.631
L326.002 232.498
L326.076 228.005
L326.15 213.807
L326.299 225.24
L326.374 223.599
L326.746 117.932
L326.894 108.284
L327.043 130.085
L327.49 222.332
L327.713 176.943
L327.787 177.634
L328.382 275.842
L328.457 275.554
L328.531 275.612
L328.68 289.781
L328.903 310.229
L328.978 314.002
L329.126 299.285
L329.498 194.799
L329.945 139.359
L330.019 140.108
L330.094 140.309
L330.466 213.72
L330.54 208.45
L330.689 212.021
L330.838 224.175
L331.135 201.02
L331.358 232.21
L331.656 187.685
L331.879 208.392
L331.954 207.816
L332.102 210.725
L332.177 207.932
L332.698 269.909
L332.846 289.58
L333.07 271.839
L333.144 275.986
L333.293 267.375
L333.516 202.748
L333.739 136.882
L333.888 131.064
L334.037 102.12
L334.111 108.773
L334.409 199.666
L334.632 249.893
L334.706 251.535
L335.078 281.4
L335.153 279.068
L335.302 262.277
L335.599 188.895
L335.822 209.544
L335.897 209.516
L335.971 197.679
L336.046 199.436
L336.194 204.706
L336.269 201.106
L336.343 203.007
L336.418 207.788
L336.492 207.096
L336.566 204.591
L336.938 246.668
L337.162 225.874
L337.236 226.133
L337.31 224.492
L337.534 246.754
L337.608 241.829
L337.831 212.136
L338.054 189.644
L338.203 188.924
L338.426 199.522
L338.575 186.706
L338.65 192.552
L338.873 229.791
L339.17 187.916
L339.617 241.052
L339.691 239.41
L339.84 232.7
L339.989 243.298
L340.063 240.274
L340.138 246.466
L340.286 283.676
L340.435 256.172
L340.733 168.245
L340.956 178.498
L341.179 149.554
L341.254 152.463
L341.477 179.448
L341.551 176.885
L341.626 178.728
L341.849 237.596
L341.923 236.933
L342.146 207.212
L342.295 247.128
L342.518 319.388
L342.593 318.725
L342.816 276.792
L342.89 278.434
L342.965 284.194
L343.188 214.584
L343.411 168.792
L343.486 168.908
L343.56 177.461
L343.634 176.712
L343.783 145.781
L343.858 149.41
L344.23 184.229
L344.304 181.724
L344.378 188.319
L344.602 218.876
L344.825 194.972
L345.271 234.168
L345.346 249.288
L345.42 246.524
L345.569 232.152
L345.643 230.367
L345.718 230.597
L345.792 231.346
L345.866 239.496
L346.015 282.812
L346.09 273.682
L346.313 212.799
L346.759 193.82
L346.834 193.935
L347.057 228.063
L347.28 255.135
L347.354 248.972
L347.503 225.356
L347.578 225.644
L347.726 244.508
L347.95 214.21
L348.024 213.116
L348.247 175.877
L348.396 196.7
L348.768 162.658
L348.842 168.188
L348.991 198.082
L349.066 197.708
L349.14 196.7
L349.214 188.434
L349.289 190.133
L349.363 198.572
L349.438 193.272
L349.512 194.568
L349.586 197.592
L349.661 196.901
L350.033 268.152
L350.107 291.25
L350.182 287.391
L350.405 282.005
L350.554 265.992
L350.777 299.746
L350.851 292.978
L351.298 168.274
L351.372 170.866
L351.446 168.044
L351.595 174.927
L351.818 160.7
L351.893 164.818
L351.967 162.946
L352.042 150.476
L352.637 208.68
L352.86 238.2
L353.158 184.056
L353.306 197.65
L353.604 254.271
L353.976 284.367
L354.05 276.188
L354.125 277.887
L354.199 280.565
L354.348 274.863
L354.794 206.78
L355.092 252.86
L355.166 242.463
L355.241 232.066
L355.39 192.063
L355.464 190.911
L355.687 164.559
L355.762 173.112
L355.985 157.272
L356.059 129.02
L356.134 137.804
L356.208 120.264
L356.282 121.589
L356.506 149.554
L356.58 150.504
L357.101 265.215
L357.175 257.208
L357.25 268.556
L357.324 258.965
L357.473 270.082
L357.547 263.746
L357.622 273.308
L357.696 267.346
L357.77 269.592
L357.994 278.463
L358.068 266.021
L358.142 273.452
L358.217 272.012
L358.291 264.84
L358.366 269.333
L358.663 206.549
L358.738 213.404
L358.886 192.898
L358.961 193.791
L359.035 189.125
L359.11 192.61
L359.333 167.237
L359.407 163.148
L359.482 163.292
L359.705 113.727
L359.779 121.532
L360.374 261.125
L360.449 231.519
L360.523 238.604
L360.672 220.085
L360.746 237.077
L360.821 224.261
L360.895 254.271
L360.97 250.037
L361.044 246.178
L361.118 260.722
L361.193 244.508
L361.267 268.152
L361.416 243.442
L361.49 256.488
L361.565 249.432
L361.639 269.938
L361.937 201.02
L362.011 209.256
L362.086 187.772
L362.16 194.28
L362.234 198.341
L362.309 192.581
L362.383 207.5
L362.458 189.154
L362.532 189.269
L362.606 188.29
L362.681 185.756
L362.904 248.482
L362.978 248.972
L363.202 219.077
L363.276 224.722
L363.425 215.276
L363.499 219.365
L363.574 199.781
L363.648 212.05
L363.797 175.964
L363.946 154.767
L364.02 166.488
L364.094 159.346
L364.169 162.399
L364.243 164.616
L364.466 206.376
L364.69 264.725
L364.764 261.816
L365.136 200.357
L365.359 220.546
L365.508 259.138
L365.582 252.946
L365.657 259.023
L365.731 243.327
L365.806 253.234
L365.88 227.804
L366.029 276.101
L366.103 249.202
L366.178 262.479
L366.252 254.53
L366.475 192.495
L366.624 222.85
L366.698 216.37
L366.773 220.258
L367.07 145.839
L367.219 122.05
L367.368 148.056
L367.442 150.821
L367.814 229.013
L367.889 233.391
L367.963 203.554
L368.038 229.733
L368.112 227.084
L368.261 243.557
L368.335 234.284
L368.41 252.485
L368.484 238.431
L368.633 257.64
L368.707 243.845
L368.782 254.991
L368.856 229.762
L368.93 243.327
L369.005 240.85
L369.079 242.808
L369.154 259.484
L369.228 230.626
L369.302 239.093
L369.526 226.594
L369.6 206.117
L369.674 226.738
L369.972 180.975
L370.046 207.384
L370.121 194.626
L370.195 198.456
L370.27 212.77
L370.344 199.781
L370.418 222.044
L370.493 211.992
L370.567 216.773
L370.642 206.751
L370.716 181.263
L370.79 201.538
L370.865 182.127
L370.939 182.876
L371.014 185.295
L371.088 174.725
L371.162 181.032
L371.237 150.648
L371.311 158.54
L371.683 217.752
L371.758 211.272
L372.204 290.933
L372.278 290.732
L372.427 293.237
L372.502 267.749
L372.576 285.72
L372.725 260.463
L372.799 264.408
L372.874 239.41
L372.948 248.568
L373.097 237.221
L373.171 245.17
L373.32 197.592
L373.469 171.212
L373.543 180.428
L373.618 160.296
L373.692 181.522
L373.766 171.327
L373.915 151.196
L373.99 118.335
L374.064 138.581
L374.138 125.103
L374.213 129.48
L374.659 231.058
L374.734 232.066
L374.808 260.434
L374.882 248.453
L375.031 256.258
L375.106 237.221
L375.329 274.719
L375.403 273.077
L375.478 264.639
L375.552 277.08
L375.626 265.704
L375.701 265.992
L375.924 296.693
L376.37 168.965
L376.445 174.956
L376.519 149.842
L376.594 157.301
L376.668 159.663
L376.742 158.54
L377.04 249.317
L377.263 209.602
L377.338 215.448
L377.486 191.285
L377.561 204.591
L377.635 183.336
L377.71 192.149
L378.007 138.869
L378.305 214.584
L378.379 212.972
L378.528 238.892
L378.751 222.562
L378.974 257.496
L379.049 251.564
L379.123 231.749
L379.198 239.928
L379.272 227.458
L379.346 231.144
L379.495 222.303
L379.57 255.941
L379.644 249.519
L379.793 267.375
L380.016 228.38
L380.09 248.367
L380.165 244.45
L380.239 234.485
L380.314 243.989
L380.537 209.084
L380.611 209.804
L380.686 224.29
L380.76 212.568
L380.834 226.335
L380.983 193.704
L381.058 197.103
L381.132 173.919
L381.206 188.117
L381.281 176.972
L381.355 187.224
L381.504 177.951
L381.578 190.076
L381.653 166.114
L381.727 168.764
L381.876 161.016
L382.025 172.508
L382.248 216.14
L382.322 240.36
L382.397 234.341
L382.546 203.9
L382.62 215.708
L382.843 236.933
L382.918 218.703
L383.215 251.852
L383.29 241.541
L383.438 260.376
L383.736 244.133
L383.885 232.095
L383.959 242.636
L384.034 236.616
L384.108 239.727
L384.331 217.925
L384.406 200.847
L384.48 203.151
L384.629 192.898
L384.703 196.066
L384.778 196.037
L384.926 240.245
L385.001 238.316
L385.298 170.117
L385.447 194.338
L385.522 182.328
L385.596 197.592
L385.819 163.493
L385.894 166.604
L386.042 209.976
L386.191 220.748
L386.266 212.079
L386.489 252.197
L386.638 236.156
L386.712 257.352
L386.861 242.348
L387.01 188.376
L387.084 198.802
L387.158 191.861
L387.605 284.568
L387.679 263.832
L387.754 270.687
L387.977 246.812
L388.051 223.656
L388.126 234.658
L388.2 228.696
L388.349 190.824
L388.423 151.887
L388.498 152.895
L388.572 150.188
L388.87 199.292
L389.093 157.215
L389.167 148.028
L389.465 235.954
L389.614 269.564
L389.688 258.015
L389.762 261.24
L389.837 258.36
L389.911 243.413
L389.986 250.095
L390.283 214.181
L390.506 267.98
L390.581 263.631
L390.953 200.962
L391.027 204.735
L391.102 223.397
L391.325 182.098
L391.399 186.792
L391.548 220.287
L391.622 224.78
L391.771 186.792
L391.846 187.714
L391.92 177.605
L391.994 185.612
L392.069 174.783
L392.143 188.376
L392.441 144.773
L392.664 175.244
L392.738 186.332
L392.813 180.773
L393.036 255.97
L393.185 265.906
L393.259 296.924
L393.334 283.733
L393.557 232.095
L393.78 284.885
L393.854 284.108
L393.929 274.892
L394.003 285.72
L394.301 221.727
L394.375 231.663
L394.45 211.704
L394.598 233.679
L394.673 231.116
L394.747 243.73
L395.045 156.495
L395.119 165.48
L395.194 164.76
L395.268 177.807
L395.566 97.1092
L395.64 120.207
L395.714 124.7
L395.863 177.029
L395.938 177.144
L396.012 185.324
L396.086 164.933
L396.31 237.912
L396.533 299.746
L396.756 207.557
L396.83 204.648
L396.979 248.511
L397.054 248.136
L397.277 293.064
L397.5 257.813
L397.574 254.127
L397.649 267.231
L397.723 263.026
L398.021 219.02
L398.17 179.65
L398.244 180.284
L398.318 184.287
L398.69 232.728
L398.765 229.359
L398.914 198.14
L399.286 173.429
L399.434 155.688
L399.509 154.479
L399.658 191.832
L399.806 225.356
L399.881 224.492
L400.178 269.765
L400.253 261.73
L400.476 198.629
L400.848 173.573
L401.443 283.157
L401.518 284.799
L401.815 254.242
L401.89 240.101
L402.113 154.162
L402.187 149.439
L402.336 174.005
L402.41 203.036
L402.485 200.703
L402.559 207.586
L402.634 206.06
L402.708 203.496
L402.931 248.165
L403.006 245.602
L403.229 195.864
L403.526 231.144
L403.601 217.637
L403.75 245.228
L403.824 240.62
L403.898 228.408
L404.047 180.6
L404.196 163.695
L404.27 166.316
L404.345 160.469
L404.568 209.919
L404.642 213.519
L404.717 201.74
L404.791 223.541
L404.866 219.538
L404.94 234.428
L405.014 234.284
L405.089 230.828
L405.163 239.439
L405.238 209.602
L405.312 214.556
L405.386 201.768
L405.461 213.72
L405.684 301.532
L405.758 297.788
L405.907 256.287
L406.056 209.199
L406.13 201.164
L406.205 203.237
L406.279 228.264
L406.354 224.434
L406.428 234.284
L406.577 218.588
L406.651 225.845
L406.874 173.832
L406.949 178.815
L407.098 125.592
L407.172 140.54
L407.246 141.173
L407.767 253.896
L407.842 248.684
L407.916 257.093
L408.139 212.367
L408.214 210.408
L408.437 268.296
L408.511 263.314
L408.586 265.416
L408.66 271.752
L408.734 260.463
L408.809 266.741
L408.958 243.73
L409.032 249.663
L409.106 239.64
L409.181 262.738
L409.478 187.887
L409.553 192.552
L409.627 169.484
L409.702 171.269
L409.776 165.308
L409.85 165.509
L409.925 173.631
L409.999 149.41
L410.074 156.092
L410.222 164.76
L410.297 176.77
L410.371 159.288
L410.446 167.756
L410.818 249.951
L410.892 237.768
L410.966 239.957
L411.041 255.394
L411.115 247.1
L411.19 272.904
L411.264 265.388
L411.338 267.087
L411.413 272.156
L411.487 260.261
L411.562 271.954
L411.636 252.543
L411.71 261.068
L411.785 254.53
L412.008 208.479
L412.082 218.04
L412.38 165.538
L412.454 174.956
L412.529 173.544
L412.678 177.548
L412.752 159.807
L413.05 188.578
L413.124 182.501
L413.273 218.213
L413.347 219.74
L413.422 227.199
L413.496 218.904
L413.57 228.092
L413.719 201.048
L413.794 207.384
L413.868 206.492
L413.942 241.541
L414.017 239.439
L414.091 252.197
L414.166 251.564
L414.24 238.056
L414.314 257.583
L414.389 245.17
L414.463 267.576
L414.538 263.141
L414.91 192.581
L415.058 226.997
L415.133 206.722
L415.207 229.215
L415.282 217.493
L415.43 232.786
L415.654 194.943
L415.728 202.546
L415.802 200.069
L416.026 152.088
L416.1 173.746
L416.174 172.652
L416.249 167.871
L416.323 182.962
L416.398 173.832
L416.546 214.469
L416.695 227.084
L416.77 209.89
L416.844 230.655
L416.918 215.132
L417.067 238.719
L417.142 228.984
L417.216 256.776
L417.29 237.25
L417.365 246.783
L417.514 281.026
L417.588 316.796
L417.886 213.346
L417.96 216.917
L418.183 176.856
L418.406 161.42
L418.853 232.671
L418.927 227.976
L419.076 257.871
L419.299 204.706
L419.374 214.556
L419.448 219.077
L419.894 159.519
L419.969 167.18
L420.043 154.22
L420.118 160.181
L420.341 188.837
L420.415 177.836
L420.713 240.476
L420.787 237.077
L420.862 263.631
L420.936 254.472
L421.308 218.559
L421.382 220.748
L421.457 224.434
L421.531 216.802
L421.754 270.946
L421.903 260.319
L421.978 271.868
L422.275 233.218
L422.35 250.181
L422.573 206.549
L422.647 200.818
L423.094 237.538
L423.168 235.608
L423.391 201.106
L423.689 144.226
L423.763 130.344
L423.986 158.972
L424.061 148.287
L424.135 148.431
L424.21 155.429
L424.284 143.564
L425.102 277.512
L425.177 266.799
L425.251 275.986
L425.326 273.855
L425.549 241.426
L425.623 255.135
L425.846 293.957
L425.921 275.9
L425.995 293.612
L426.07 287.909
L426.144 293.756
L426.665 155.458
L426.888 175.964
L427.037 170.895
L427.111 184.575
L427.186 168.764
L427.26 175.359
L427.558 140.655
L427.706 172.623
L427.93 203.064
L428.004 225.557
L428.078 212.568
L428.153 216.687
L428.227 226.652
L428.302 217.868
L428.376 231.317
L428.45 215.16
L428.525 223.887
L428.599 220.143
L428.674 203.871
L428.748 214.584
L428.822 202.892
L428.971 236.703
L429.046 235.868
L429.12 254.012
L429.194 238.517
L429.269 246.898
L429.418 219.02
L429.492 225.413
L429.566 209.199
L429.641 232.872
L429.715 224.088
L429.79 218.732
L429.864 227.544
L429.938 217.464
L430.162 265.301
L430.236 266.568
L430.31 263.372
L430.385 275.612
L430.459 271.148
L430.534 264.092
L430.831 203.727
L430.906 216.341
L431.575 121.215
L431.798 164.53
L432.022 217.983
L432.245 251.42
L432.319 233.218
L432.542 279.701
L432.617 287.506
L432.691 262.421
L432.766 277.944
L433.063 199.781
L433.138 206.837
L433.212 184.316
L433.286 186.245
L433.361 194.338
L433.435 188.751
L433.51 211.56
L433.584 195.576
L433.658 200.847
L433.733 202.517
L433.882 241.426
L433.956 206.492
L434.03 206.924
L434.179 202.287
L434.254 214.412
L434.328 191.112
L434.402 194.597
L434.477 181.58
L434.774 266.136
L434.849 238.949
L434.923 239.381
L434.998 228.322
L435.072 194.77
L435.146 197.189
L435.221 179.967
L435.295 185.64
L435.37 190.882
L435.444 182.386
L435.518 196.008
L435.593 172.767
L435.89 228.38
L435.965 213.893
L436.114 276.303
L436.188 270.6
L436.262 280.018
L436.337 259.858
L436.411 275.381
L436.486 271.493
L436.709 224.261
L436.783 232.354
L436.932 183.509
L437.006 192.495
L437.081 170.895
L437.155 195.836
L437.23 186.447
L437.304 191.976
L437.378 224.204
L437.453 211.416
L437.527 232.412
L437.602 216.399
L437.676 221.784
L437.75 228.984
L437.825 204.936
L437.899 229.82
L437.974 218.357
L438.048 211.762
L438.197 164.588
L438.346 167.928
L438.42 184.719
L438.494 182.789
L438.569 181.09
L438.643 207.24
L438.718 178.412
L438.792 187.253
L439.015 220.719
L439.09 219.106
L439.238 269.016
L439.313 255.221
L439.387 262.94
L439.61 218.616
L439.685 217.58
L439.759 247.042
L439.834 218.098
L439.908 229.532
L439.982 210.178
L440.057 220.748
L440.131 253.839
L440.206 241.599
L440.28 270.053
L440.726 197.247
L440.875 227.89
L440.95 218.242
L441.024 211.071
L441.098 184.517
L441.173 187.772
L441.247 190.479
L441.322 188.319
L441.396 203.18
L441.47 190.709
L441.768 216.946
L442.066 150.908
L442.512 246.783
L442.661 202.402
L442.735 192.38
L442.958 234.37
L443.033 280.479
L443.107 279.212
L443.33 238.085
L443.405 252.226
L443.702 197.42
L443.777 198.341
L443.926 135.096
L444 142.901
L444.074 147.394
L444.372 272.184
L444.446 264.351
L444.521 272.069
L444.67 226.536
L444.818 212.914
L445.042 259.023
L445.116 258.245
L445.339 209.602
L445.414 216.831
L445.637 181.032
L445.711 150.821
L446.009 218.271
L446.083 203.122
L446.158 227.487
L446.232 223.138
L446.381 246.812
L446.455 209.199
L446.53 209.516
L446.604 196.757
L446.678 201.999
L446.753 212.597
L446.827 197.16
L446.902 229.244
L446.976 219.912
L447.199 199.493
L447.274 232.988
L447.348 223.656
L447.497 232.268
L447.571 213.231
L447.646 244.853
L447.72 234.888
L447.794 234.082
L447.869 242.52
L448.166 212.943
L448.241 215.045
L448.315 193.589
L448.39 196.728
L448.464 186.562
L448.613 220.632
L448.687 223.311
L448.762 235.119
L448.836 207.989
L448.91 229.733
L448.985 225.816
L449.059 212.252
L449.134 222.533
L449.208 197.852
L449.282 205.944
L449.506 168.648
L449.58 127.292
L449.654 147.394
L449.729 150.591
L449.878 221.957
L449.878 221.957" style="fill:none;stroke:#808080;stroke-linecap:square;"/>
   </g>
  </g>
 </g>
 <defs>
  <clipPath id="p7ff5b81e1d">
   <rect height="345.6" width="446.4" x="72.0" y="43.2"/>
  </clipPath>
 </defs>
</svg>
