<?xml version="1.0" encoding="utf-8" standalone="no"?>
<!DOCTYPE svg PUBLIC "-//W3C//DTD SVG 1.1//EN"
  "http://www.w3.org/Graphics/SVG/1.1/DTD/svg11.dtd">
<!-- Created with matplotlib (http://matplotlib.org/) -->
<svg height="432pt" version="1.1" viewBox="0 0 576 432" width="576pt" xmlns="http://www.w3.org/2000/svg" xmlns:xlink="http://www.w3.org/1999/xlink">
 <defs>
  <style type="text/css">
*{stroke-linecap:butt;stroke-linejoin:round;}
  </style>
 </defs>
 <g id="figure_1">
  <g id="patch_1">
   <path d="
M0 432
L576 432
L576 0
L0 0
z
" style="fill:#ffffff;"/>
  </g>
  <g id="axes_1">
   <g id="line2d_1">
    <path clip-path="url(#p7ff5b81e1d)" d="
M72 207.637
L72.5952 263.705
L72.6696 261.424
L73.1904 219.463
L73.4136 194.931
L73.5624 186.694
L73.6368 187.535
L74.232 216.715
L74.3808 216.393
L74.5296 220.223
L74.604 219.641
L74.6784 219.849
L74.7528 219.831
L74.976 231.766
L75.0504 226.49
L75.2736 197.195
L75.4224 204.544
L75.5712 221.83
L75.7944 205.863
L75.9432 219.572
L76.1664 239.266
L76.3152 234.663
L76.3896 236.121
L76.464 236.213
L76.5384 244.519
L76.6128 243.856
L76.9848 183.993
L77.208 195.714
L77.3568 208.179
L77.5056 200.224
L77.8776 226.11
L78.0264 216.589
L78.2496 196.1
L78.4728 214.999
L78.696 245.93
L78.9936 222.193
L79.068 225.108
L79.1424 229.307
L79.5144 213.196
L79.5888 217.769
L79.7376 233.229
L80.0352 187.489
L80.1096 194.055
L80.2584 215.218
L80.6304 189.021
L80.928 225.839
L81.1512 202.793
L81.2256 204.527
L81.4488 215.114
L81.5976 206.37
L81.8208 224.929
L82.044 248.562
L82.3416 220.004
L82.416 224.629
L82.5648 235.89
L82.7136 220.35
L82.788 211.266
L82.8624 211.883
L83.0112 219.515
L83.16 233.661
L83.3088 218.489
L83.4576 190.657
L83.532 191.584
L83.6808 203.675
L83.9784 184.344
L84.1272 202.88
L84.3504 224.802
L84.4248 225.298
L84.5736 213.265
L84.7224 225.689
L84.7968 225.678
L85.02 211.675
L85.1688 216.946
L85.3176 229.981
L85.392 228.402
L85.6896 206.197
L85.9128 224.301
L85.9872 221.122
L86.136 211.929
L86.508 246.062
L86.6568 226.254
L86.8056 200.305
L86.88 203.853
L86.9544 215.926
L87.0288 215.102
L87.252 194.188
L87.624 212.701
L87.6984 209.314
L87.8472 196.066
L87.996 215.943
L88.1448 225.96
L88.2192 224.503
L88.4424 250.935
L88.8144 228.782
L88.9632 207.47
L89.112 205.178
L89.1864 205.771
L89.3352 214.117
L89.484 207.459
L89.9304 186.763
L90.0048 188.215
L90.1536 191.469
L90.228 193.053
L90.3768 213.444
L90.6 250.647
L90.6744 251.195
L90.7488 250.025
L90.8976 239.427
L91.1208 203.905
L91.344 164.144
L91.7904 227.607
L92.2368 283.168
L92.3112 286.958
L92.832 182.449
L92.9808 157.226
L93.1296 175.871
L93.2784 159.841
L93.3528 163.643
L93.8736 249.605
L94.0224 237.975
L94.1712 255.474
L94.32 220.246
L94.3944 198.439
L94.4688 203.26
L94.6176 238.281
L94.8408 203.317
L94.9152 212.752
L94.9896 217.188
L95.1384 195.979
L95.2128 200.184
L95.3616 227.78
L95.5104 217.504
L95.6592 231.38
L95.7336 231.081
L95.9568 211.934
L96.1056 225.914
L96.2544 212.58
L96.3288 205.961
L96.4032 206.912
L96.4776 209.135
L96.7008 190.196
L96.924 218.841
L97.0728 210.005
L97.296 229.658
L97.4448 218.443
L97.5192 220.453
L97.5936 223.898
L97.8168 216.456
L97.8912 217.752
L97.9656 218.507
L98.1888 200.345
L98.2632 205.789
L98.412 229.923
L98.4864 229.698
L98.5608 225.367
L98.6352 226.392
L98.7096 229.56
L98.784 227.291
L98.9328 207.793
L99.0072 209.665
L99.0816 215.776
L99.156 214.071
L99.3048 196.308
L99.3792 200.109
L99.528 219.031
L99.7512 200.628
L99.9744 232.175
L100.049 228.293
L100.198 220.574
L100.272 218.005
L100.346 218.518
L100.421 218.685
L100.495 218.391
L100.718 234.047
L100.942 203.773
L101.09 228.794
L101.165 223.264
L101.314 204.124
L101.462 214.359
L101.686 196.67
L101.909 208.841
L102.058 197.615
L102.132 202.01
L102.281 222.562
L102.355 222.003
L102.43 218.783
L102.504 220.177
L102.727 235.959
L102.876 230.614
L102.95 227.913
L103.099 231.357
L103.174 229.94
L103.322 221.173
L103.397 222.187
L103.471 220.955
L103.62 205.161
L103.694 206.002
L103.843 211.906
L104.066 191.556
L104.29 213.801
L104.438 203.68
L104.662 223.12
L104.736 220.321
L104.959 225.257
L105.108 220.874
L105.257 225.373
L105.331 222.337
L105.629 193.658
L106.15 228.466
L106.224 228.523
L106.373 223.322
L106.522 223.506
L106.67 231.075
L106.819 240.74
L106.968 226.928
L107.191 202.638
L107.266 202.799
L107.414 201.768
L107.489 201.371
L107.712 207.891
L107.861 202.096
L107.935 205.454
L108.158 228.425
L108.307 223.598
L108.456 228.535
L108.53 227.993
L108.679 224.157
L108.828 230.487
L108.902 227.786
L109.2 202.298
L109.274 203.012
L109.572 195.559
L109.646 196.083
L109.795 203.433
L110.018 229.687
L110.093 228.708
L110.316 214.953
L110.465 222.654
L110.539 222.089
L110.614 220.626
L110.762 221.767
L110.837 221.836
L110.911 223.933
L111.06 231.674
L111.358 219.342
L111.432 219.399
L111.506 221.352
L112.027 193.001
L112.325 217.55
L112.399 218.829
L112.474 218.052
L112.548 220.033
L112.697 227.158
L112.92 215.131
L113.069 221.099
L113.292 210.206
L113.515 222.7
L113.738 218.432
L113.962 213.691
L114.185 217.919
L114.408 208.064
L114.557 215.177
L114.706 206.094
L114.854 210.068
L115.003 207.148
L115.45 231.76
L115.673 212.557
L115.747 213.086
L116.045 224.105
L116.119 223.581
L116.491 208.144
L116.566 209.884
L116.863 220.396
L117.086 210.656
L117.31 219.1
L117.533 213.714
L117.682 215.863
L117.83 212.689
L117.905 212.712
L118.128 225.764
L118.351 216.715
L118.426 216.738
L118.649 208.012
L118.723 210.178
L118.946 205.086
L119.244 219.676
L119.318 216.421
L119.393 217.977
L119.616 233.114
L119.914 223.587
L120.434 198.243
L120.658 221.329
L120.732 220.649
L120.881 215.385
L121.03 219.14
L121.104 218.599
L121.178 215.995
L121.402 202.649
L121.699 224.025
L121.774 219.883
L121.848 220.442
L122.071 237.768
L122.369 217.936
L122.518 222.032
L122.666 213.904
L122.89 201.267
L123.038 205.489
L123.113 205.403
L123.262 202.033
L123.336 205.454
L123.559 227.527
L124.154 203.145
L124.229 203.323
L124.601 226.478
L124.675 225.303
L124.75 225.257
L124.973 230.182
L125.122 223.351
L125.27 217.902
L125.494 230.557
L125.791 204.976
L125.866 205.558
L126.014 210.996
L126.089 210.454
L126.312 201.348
L126.386 203.755
L126.61 217.251
L126.758 218.628
L126.907 217.712
L127.056 220.523
L127.13 219.624
L127.354 214.884
L127.428 215.143
L127.502 215.851
L127.577 215.051
L127.651 216.272
L127.949 227.446
L128.172 213.138
L128.246 216.076
L128.395 225.707
L128.767 200.714
L128.842 203.623
L128.99 209.383
L129.139 204.02
L129.214 205.961
L129.437 215.869
L129.586 217.879
L129.66 214.912
L129.734 216.208
L130.032 230.637
L130.181 223.558
L130.33 229.952
L130.404 229.842
L130.627 214.93
L130.776 207.747
L130.85 208.542
L131.297 200.466
L131.52 207.62
L131.892 230.372
L131.966 232.025
L132.115 223.714
L132.264 216.663
L132.338 216.779
L132.413 217.666
L132.487 217.591
L132.562 217.936
L132.636 219.325
L132.71 218.904
L133.008 209.256
L133.082 211.324
L133.38 216.704
L133.454 216.974
L133.529 216.75
L133.678 219.307
L133.752 219.048
L133.975 208.179
L134.05 209.567
L134.198 212.061
L134.347 208.231
L134.422 209.665
L134.719 224.324
L134.794 223.904
L134.868 222.654
L135.017 224.998
L135.166 228.581
L135.24 228.114
L135.389 222.539
L135.612 215.655
L135.686 214.809
L135.91 206.284
L136.133 214.768
L136.207 213.063
L136.356 211.001
L136.43 210.696
L136.579 206.647
L136.802 223.034
L137.026 202.937
L137.174 215.131
L137.249 211.583
L137.398 201.722
L137.621 220.73
L137.695 216.151
L137.844 229.209
L137.918 237.682
L137.993 235.291
L138.142 220.056
L138.216 222.32
L138.365 233.114
L138.588 207.885
L138.737 215.195
L138.811 206.077
L138.886 206.693
L139.109 237.958
L139.258 214.227
L139.332 214.613
L139.481 223.529
L139.704 190.415
L139.853 207.205
L139.927 205.166
L140.076 192.558
L140.299 219.088
L140.448 205.477
L140.522 210.35
L140.671 236.069
L140.894 208.905
L141.043 230.349
L141.118 226.83
L141.266 199.585
L141.49 223.109
L141.564 218.99
L141.638 214.624
L141.713 217.314
L141.862 236.201
L141.936 234.652
L142.085 215.494
L142.159 217.775
L142.308 232.515
L142.531 200.823
L142.68 217.631
L142.754 213.369
L142.903 186.723
L142.978 192.091
L143.126 218.846
L143.201 218.668
L143.275 216.537
L143.35 217.798
L143.573 237.947
L143.722 219.566
L143.796 223.27
L143.87 236.403
L143.945 236.196
L144.168 206.365
L144.391 217.579
L144.54 207.073
L144.763 225.407
L144.986 206.825
L145.21 219.048
L145.358 203.513
L145.433 204.009
L145.507 208.45
L145.656 198.75
L145.73 193.906
L145.954 214.066
L146.028 207.131
L146.102 200.253
L146.177 202.304
L146.4 237.325
L146.549 216.272
L146.623 218.593
L146.772 230.361
L146.995 204.435
L147.07 211.462
L147.218 222.377
L147.367 212.712
L147.59 237.497
L147.665 230.902
L147.814 222.181
L147.888 228.581
L147.962 225.499
L148.186 194.171
L148.409 215.627
L148.558 209.319
L148.781 232.411
L148.855 225.943
L149.004 215.016
L149.227 229.865
L149.376 212.073
L149.45 214.786
L149.599 221.099
L149.822 200.749
L149.971 206.929
L150.194 192.996
L150.492 214.745
L150.566 211.451
L150.641 213.288
L150.864 230.62
L151.013 221.254
L151.087 222.884
L151.162 227.423
L151.236 226.801
L151.459 200.466
L151.682 225.424
L151.757 224.606
L151.831 221.997
L151.906 222.959
L152.054 232.025
L152.278 219.198
L152.426 233.915
L152.501 233.281
L152.798 212.879
L153.022 198.128
L153.17 189.655
L153.319 194.712
L153.691 225.902
L153.766 225.649
L153.914 214.094
L153.989 214.169
L154.063 214.884
L154.138 213.225
L154.212 214.256
L154.51 228.903
L155.03 207.298
L155.328 219.111
L155.402 218.265
L155.477 218.455
L155.774 232.717
L155.849 230.349
L155.923 230.735
L155.998 231.853
L156.072 231.662
L156.667 204.325
L157.039 183.088
L157.188 196.008
L157.486 218.829
L157.709 228.696
L157.858 230.436
L157.932 231.357
L158.006 230.505
L158.453 215.563
L158.75 223.351
L158.974 228.431
L159.048 228.316
L159.122 228.903
L159.197 228.661
L159.346 222.55
L159.643 207.545
L160.015 197.275
L160.164 196.1
L160.238 197.604
L160.61 217.118
L160.759 216.393
L160.908 218.167
L161.057 221.456
L161.206 219.152
L161.28 220.356
L161.429 223.748
L161.503 223.679
L161.578 223.011
L161.875 225.856
L162.173 216.744
L162.396 205.99
L162.47 205.022
L162.619 200.242
L162.694 200.322
L162.917 210.852
L163.14 224.514
L163.289 234.859
L163.661 226.686
L163.735 226.277
L163.884 229.94
L164.405 199.349
L164.479 196.774
L164.554 196.803
L164.702 201.636
L165.298 230.666
L165.372 231.449
L165.446 230.821
L165.744 220.649
L165.818 221.358
L166.265 196.786
L166.339 197.54
L166.414 197.88
L167.009 223.61
L167.232 246.944
L167.306 246.598
L167.678 217.741
L167.902 199.113
L167.976 199.579
L168.199 210.506
L168.274 210.489
L168.422 208.127
L168.497 208.864
L168.794 217.389
L169.092 200.472
L169.166 203.508
L169.538 223.909
L169.613 224.382
L169.687 217.147
L169.762 217.337
L169.91 223.253
L169.985 221.732
L170.208 211.952
L170.654 234.894
L170.729 234.427
L170.803 233.022
L170.878 233.177
L171.026 234.761
L171.473 218.702
L171.994 184.805
L172.217 179.281
L172.366 176.539
L172.589 191.389
L173.11 239.646
L173.407 260.532
L173.482 261.073
L173.63 255.192
L174.002 218.236
L174.3 190.726
L174.523 183.1
L174.672 178.722
L174.895 204.665
L175.342 251.35
L175.49 250.82
L175.639 253.314
L175.788 240.302
L176.458 150.757
L176.532 151.449
L176.681 159.403
L176.83 175.41
L177.425 286.549
L177.648 299.89
L177.797 288.496
L178.094 234.773
L178.466 159.651
L178.541 155.089
L178.615 155.302
L178.69 154.156
L178.838 150.671
L178.913 151.385
L179.062 162.802
L179.657 235.159
L179.88 249.069
L180.029 254.075
L180.178 260.935
L180.252 260.618
L180.401 252.03
L180.475 247.163
L180.55 247.963
L180.624 247.191
L180.773 238.258
L181.219 206.964
L181.442 198.721
L181.666 189.678
L181.814 191.93
L182.112 196.555
L182.261 194.401
L182.41 197.604
L182.558 206.203
L182.93 231.991
L183.079 225.493
L183.228 217.199
L183.302 218.622
L183.377 218.305
L183.451 218.259
L183.674 224.883
L183.749 223.685
L183.898 221.179
L184.195 225.217
L184.27 225.39
L184.642 218.04
L184.79 220.718
L184.939 214.181
L185.162 204.527
L185.237 206.255
L185.46 215.632
L185.683 207.551
L185.758 209.677
L185.906 219.077
L185.981 219.025
L186.055 218.075
L186.353 205.506
L186.502 207.62
L186.65 220.05
L186.799 229.721
L186.874 230.413
L187.022 233.385
L187.171 226.277
L187.469 199.481
L187.543 201.157
L187.915 222.314
L187.99 221.669
L188.362 204.32
L188.436 204.717
L188.957 236.432
L189.031 237.636
L189.18 228.569
L189.478 208.133
L189.626 202.315
L189.701 202.782
L189.998 223.149
L190.222 237.659
L190.37 221.744
L190.817 171.436
L190.891 172.882
L191.04 189.995
L191.561 266.194
L191.635 267.732
L191.858 253.159
L192.23 186.181
L192.528 139.168
L192.602 139.756
L192.751 161.212
L193.272 273.687
L193.495 283.675
L193.644 270.335
L194.165 197.235
L194.314 190.208
L194.462 192.978
L194.537 195.282
L194.76 216.882
L194.909 198.064
L195.132 175.842
L195.802 228.564
L195.95 228.794
L196.248 220.419
L196.471 223.633
L196.546 223.46
L196.62 221.156
L196.843 229.721
L196.992 225.684
L197.29 202.73
L197.364 201.584
L197.438 202.379
L197.662 218.916
L197.959 243.442
L198.034 244.53
L198.182 237.901
L198.331 226.507
L198.629 196.682
L198.703 197.258
L198.926 205.512
L199.001 203.997
L199.224 198.681
L199.298 199.429
L199.447 198.041
L199.522 199.055
L200.191 227.941
L200.266 227.55
L200.414 228.12
L200.563 221.15
L200.786 208.121
L201.084 215.604
L201.158 216.041
L201.233 217.441
L201.382 216.295
L201.53 217.977
L201.754 228.155
L201.902 234.145
L201.977 233.12
L202.646 204.176
L202.87 189.684
L203.465 214.463
L203.688 217.159
L203.762 217.481
L203.986 227.008
L204.283 237.906
L204.358 237.359
L204.506 228.132
L204.804 206.641
L204.953 205.639
L205.102 206.077
L205.176 206.791
L205.325 206.048
L205.622 214.221
L205.697 215.172
L205.994 222.861
L206.143 216.997
L206.441 203.703
L206.664 217.804
L206.813 216.692
L206.887 218.075
L207.11 229.445
L207.185 227.319
L207.408 214.267
L207.482 215.177
L207.78 228.114
L208.078 212.787
L208.152 213.651
L208.301 216.018
L208.673 201.463
L208.822 210.379
L209.045 220.246
L209.119 221.778
L209.342 211.693
L209.491 216.807
L209.714 206.503
L209.789 207.874
L210.012 220.16
L210.086 218.893
L210.161 219.221
L210.384 230.176
L210.458 229.433
L210.607 224.635
L210.979 209.515
L211.202 206.75
L211.426 214.25
L211.574 217.199
L211.649 217.418
L211.798 214.67
L211.872 214.82
L212.021 216.698
L212.17 215.31
L212.244 216.07
L212.542 225.044
L212.616 224.745
L212.765 218.893
L212.839 219.924
L212.914 219.192
L213.137 210.408
L213.211 209.993
L213.36 214.463
L213.509 211.174
L213.583 212.13
L213.732 217.677
L213.806 216.79
L213.955 212.269
L214.104 214.359
L214.253 212.741
L214.476 220.367
L214.55 218.564
L214.699 225.724
L214.774 224.958
L215.369 197.609
L215.443 199.314
L216.113 229.151
L216.41 215.557
L216.559 212.706
L216.634 213.277
L217.154 233.223
L217.229 235.435
L217.303 235.412
L217.601 205.823
L217.675 206.952
L217.898 211.848
L217.973 212.251
L218.047 213.3
L218.122 212.873
L218.419 202.805
L218.494 202.788
L218.568 202.315
L218.717 198.427
L218.866 194.096
L219.014 201.088
L219.61 249.818
L219.684 250.348
L219.833 247.479
L219.982 235.026
L220.279 206.733
L220.354 207.177
L220.502 205.529
L220.577 206.353
L220.651 209.17
L220.8 204.93
L221.023 210.103
L221.321 206.002
L221.47 202.407
L221.544 203.185
L221.767 208.651
L221.842 209.446
L222.065 222.101
L222.214 228.552
L222.362 223.028
L222.437 223.869
L222.511 225.551
L222.586 225.09
L222.734 223.132
L222.809 224.186
L222.883 223.489
L223.032 218.985
L223.33 204.757
L223.776 223.938
L223.85 221.467
L224.148 209.475
L224.446 219.774
L224.52 224.163
L224.594 223.806
L224.743 220.419
L224.818 220.206
L225.041 204.36
L225.115 204.683
L225.264 209.7
L225.413 204.245
L225.859 233.615
L225.934 233.085
L226.157 210.627
L226.306 222.205
L226.38 221.542
L226.603 216.145
L226.752 212.914
L226.901 223.27
L226.975 220.822
L227.198 204.878
L227.422 212.148
L227.496 212.562
L227.57 214.037
L227.645 214.014
L227.719 212.977
L227.794 214.296
L227.942 221.467
L228.166 211.019
L228.314 221.456
L228.389 217.17
L228.612 195.444
L228.761 203.617
L229.058 227.544
L229.207 218.455
L229.282 218.599
L229.43 226.991
L229.505 226.599
L229.654 223.621
L229.728 224.272
L229.877 230.222
L230.1 221.778
L230.249 209.665
L230.323 203.536
L230.398 204.948
L230.546 214.158
L230.695 197.125
L230.77 197.437
L230.918 210.339
L230.993 208.041
L231.067 210.189
L231.29 229.307
L231.365 224.941
L231.514 235.188
L231.588 232.786
L231.737 213.639
L231.811 214.717
L231.886 218.242
L231.96 218.161
L232.183 203.623
L232.332 213.922
L232.406 212.182
L232.481 208.795
L232.63 215.235
L232.704 214.141
L232.853 203.07
L233.002 213.72
L233.15 221.266
L233.225 220.857
L233.374 231.104
L233.448 225.92
L233.597 206.952
L233.746 213.893
L233.894 204.619
L234.043 221.542
L234.118 219.411
L234.266 210.638
L234.415 218.841
L234.638 206.365
L234.862 223.979
L234.936 222.838
L235.01 221.709
L235.159 229.963
L235.234 229.462
L235.382 220.2
L235.457 225.972
L235.531 225.563
L235.754 208.599
L235.903 213.357
L236.052 207.102
L236.126 209.821
L236.275 221.617
L236.424 215.794
L236.573 222.107
L236.647 220.759
L236.796 213.639
L237.019 220.724
L237.168 217.487
L237.317 227.452
L237.391 225.401
L237.763 212.326
L237.912 197.765
L237.986 199.568
L238.061 199.746
L238.284 190.755
L238.507 214.682
L238.582 214.4
L238.805 222.878
L238.954 208.035
L239.028 208.409
L239.102 210.011
L239.177 208.836
L239.251 205.789
L239.326 206.555
L239.549 229.825
L239.698 228.615
L239.772 228.898
L239.846 229.272
L239.921 227.723
L240.07 219.607
L240.144 220.137
L240.218 222.752
L240.293 222.723
L240.367 220.845
L240.442 221.364
L240.665 244.807
L240.739 241.742
L241.409 194.925
L241.558 191.129
L241.706 197.097
L241.781 196.688
L241.93 194.309
L242.227 218.08
L242.302 215.085
L242.376 215.73
L242.674 231.662
L242.748 231.645
L243.046 223.742
L243.12 223.213
L243.194 223.737
L243.269 222.487
L243.492 198.128
L243.715 208.064
L243.79 208.438
L244.013 225.315
L244.162 223.045
L244.31 229.428
L244.385 227.976
L244.534 221.208
L244.682 227.844
L244.757 230.13
L245.129 207.885
L245.278 204.66
L245.426 207.879
L245.65 179.978
L245.724 186.648
L245.947 204.216
L246.096 217.32
L246.319 243.09
L246.468 238.845
L246.617 247.802
L246.691 244.968
L246.914 230.798
L246.989 228.915
L247.138 210.852
L247.212 211.226
L247.361 220.58
L247.584 198.496
L247.658 198.997
L247.733 199.326
L247.882 194.274
L248.105 197.362
L248.254 206.497
L248.477 225.217
L248.626 212.591
L248.7 214.06
L248.849 221.703
L248.923 220.621
L249.072 216.767
L249.295 225.874
L249.816 216.784
L249.89 217.994
L249.965 216.756
L250.114 207.672
L250.337 224.629
L250.411 223.287
L250.634 216.871
L250.783 222.481
L250.858 221.801
L251.081 210.172
L251.23 200.651
L251.304 202.281
L251.453 209.988
L251.527 206.992
L251.602 207.085
L251.974 225.061
L252.271 216.658
L252.346 216.208
L252.494 219.687
L252.569 217.827
L252.718 211.381
L252.941 227.106
L253.238 216.398
L253.387 221.185
L253.759 205.95
L253.834 206.157
L254.057 214.388
L254.131 213.236
L254.206 213.536
L254.429 228.558
L254.503 226.928
L254.801 209.665
L254.95 212.332
L255.024 212.05
L255.173 208.588
L255.247 209.239
L255.322 208.899
L255.47 214.596
L255.545 217.516
L255.768 211.439
L255.842 212.234
L256.14 223.789
L256.214 223.495
L256.438 228.782
L256.81 208.87
L256.884 210.443
L257.033 215.523
L257.182 210.615
L257.256 206.618
L257.33 207.326
L257.628 233.517
L257.702 231.668
L257.851 226.893
L257.926 227.659
L258 227.809
L258.074 227.596
L258.223 216.923
L258.595 176.182
L258.67 179.402
L258.967 203.513
L259.265 242.981
L259.339 244.887
L259.637 236.605
L259.934 211.042
L260.009 209.06
L260.083 210.587
L260.306 219.157
L260.53 217.573
L260.678 218.167
L260.976 202.206
L261.125 207.338
L261.646 226.392
L261.794 228.42
L261.869 226.743
L261.943 226.766
L262.166 223.685
L262.39 212.482
L262.613 198.825
L262.762 201.797
L262.836 201.676
L262.91 201.342
L262.985 200.27
L263.059 200.61
L263.357 213.945
L263.58 221.721
L264.026 230.983
L264.324 223.195
L264.845 166.482
L264.919 167.444
L265.068 188.825
L265.589 296.503
L265.812 285.927
L265.961 267.973
L266.407 164.466
L266.705 102.264
L266.779 96.2448
L266.928 115.662
L267.523 330.999
L267.598 327.745
L267.895 280.818
L268.639 127.827
L268.937 100.985
L269.011 99.9831
L269.086 107.581
L269.309 190.121
L269.755 368.883
L269.83 365.755
L270.053 313.385
L270.425 218.846
L271.169 128.178
L271.243 129.307
L271.392 143.771
L271.615 174.546
L271.69 176.263
L271.764 175.381
L271.838 176.459
L271.987 202.834
L272.434 383.893
L272.508 381.601
L272.657 333.067
L273.252 62.8195
L273.326 58.3613
L273.475 92.9155
L273.996 272.213
L274.07 272.99
L274.219 257.911
L274.591 200.512
L274.814 240.867
L275.112 300.155
L275.186 303.323
L275.261 300.085
L275.484 247.439
L276.005 92.5123
L276.154 118.991
L276.674 281.031
L276.749 278.555
L277.27 225.2
L277.567 213.962
L277.642 210.604
L277.865 174.132
L278.014 149.519
L278.088 153.879
L278.311 237.762
L278.534 312.147
L278.609 312.671
L278.758 283.151
L279.13 159.196
L279.278 152.647
L279.427 153.54
L279.502 151.587
L279.65 166.004
L280.171 243.874
L280.32 254.466
L280.394 251.534
L280.618 236.27
L280.915 247.917
L281.213 230.62
L281.362 222.752
L281.436 222.671
L281.585 213.3
L281.734 200.501
L281.808 201.445
L281.957 206.111
L282.106 206.992
L282.478 182.576
L282.552 185.358
L282.85 231.069
L282.998 254.386
L283.073 253.17
L283.817 180.542
L283.891 177.835
L283.966 182.017
L284.486 244.974
L284.561 242.261
L285.082 192.656
L285.156 192.857
L285.305 200.881
L285.379 201.152
L285.9 243.856
L285.974 246.408
L286.049 245.838
L286.272 235.815
L286.421 241.829
L286.57 225.09
L286.793 198.951
L286.867 199.032
L287.09 210.091
L287.165 208.254
L287.537 194.827
L287.686 200.207
L287.983 211.641
L288.058 210.005
L288.281 198.22
L288.43 199.032
L288.653 211.934
L288.876 231.691
L289.025 228.996
L289.248 241.022
L289.397 251.419
L289.471 249.184
L289.769 209.152
L289.918 211.883
L289.992 212.142
L290.215 194.557
L290.29 196.44
L290.438 201.394
L290.587 196.238
L291.034 215.667
L291.108 213.219
L291.182 213.887
L291.257 215.794
L291.629 263.302
L291.703 259.483
L291.852 247.831
L292.075 218.754
L292.224 223.339
L292.298 217.735
L292.596 146.783
L292.67 149.369
L292.894 209.757
L293.042 245.383
L293.117 241.535
L293.34 207.321
L293.414 210.673
L293.563 222.723
L293.638 222.608
L293.861 211.79
L294.158 227.913
L294.233 224.722
L294.754 206.503
L294.828 206.802
L294.977 209.389
L295.349 222.135
L295.498 218.933
L295.572 219.388
L295.646 218.334
L295.944 232.699
L296.093 231.829
L296.167 232.555
L296.39 239.496
L297.06 185.888
L297.209 194.62
L297.581 230.626
L297.655 228.385
L297.878 206.814
L298.176 218.046
L298.399 211.261
L298.474 213.38
L298.622 218.115
L298.92 238.793
L298.994 234.761
L299.292 186.135
L299.59 212.027
L299.813 202.765
L299.962 212.384
L300.259 245.25
L300.334 241.909
L300.557 203.438
L300.631 205.316
L300.929 233.321
L301.226 218.322
L301.301 219.261
L301.524 236.743
L301.598 230.591
L301.896 178.008
L302.268 224.992
L302.491 216.116
L302.566 218.305
L302.789 237.803
L302.863 237.394
L303.161 179.534
L303.235 184.16
L303.533 223.466
L303.83 198.779
L304.202 225.171
L304.426 199.366
L304.574 226.542
L304.798 267.697
L304.946 241.892
L305.244 186.423
L305.318 187.201
L305.467 197.759
L305.542 197.655
L305.69 193.266
L305.765 197.569
L306.211 272.224
L306.286 270.75
L306.732 238.344
L307.104 129.111
L307.327 149.525
L307.774 197.425
L307.997 242.722
L308.071 243.159
L308.294 233.989
L308.443 246.794
L308.592 263.043
L308.666 260.013
L308.89 217.55
L308.964 218.363
L309.187 266.257
L309.336 288.969
L309.485 257.444
L309.782 202.563
L310.006 170.716
L310.229 137.78
L310.378 162.07
L310.675 225.154
L310.898 208.841
L311.196 249.196
L311.27 247.065
L311.419 233.131
L311.494 234.398
L311.642 248.637
L311.791 266.562
L311.94 238.655
L312.163 182.95
L312.238 180.174
L312.312 180.733
L312.386 179.045
L312.535 154.185
L312.684 129.647
L312.758 138.552
L312.982 236.288
L313.205 294.942
L313.874 161.264
L313.949 165.428
L314.098 204.101
L314.395 292.701
L314.618 239.162
L314.842 207.816
L315.139 181.349
L315.288 197.039
L315.586 276.775
L315.66 273.008
L315.958 210.333
L316.032 212.245
L316.255 242.111
L316.33 235.383
L316.702 168.014
L316.925 196.647
L316.999 196.382
L317.222 184.442
L317.52 220.978
L317.818 169.95
L317.892 179.102
L318.19 261.505
L318.413 217.118
L318.487 223.011
L318.785 280.905
L318.859 273.451
L319.157 196.912
L319.231 202.505
L319.454 226.968
L319.826 174.955
L319.975 205.264
L320.124 224.088
L320.347 197.874
L320.496 225.102
L320.719 274.845
L320.794 264.31
L321.091 177.547
L321.389 206.157
L321.686 166.367
L321.835 204.354
L321.984 247.883
L322.058 247.335
L322.207 215.926
L322.282 219.503
L322.579 310.068
L322.654 306.848
L323.249 178.002
L323.546 135.879
L323.695 176.119
L323.918 257.479
L324.216 160.117
L324.29 174.765
L324.588 245.844
L324.737 217.706
L324.811 204.89
L324.886 206.653
L325.034 235.084
L325.332 298.219
L325.406 302.747
L325.555 292.154
L325.778 243.148
L326.225 112.943
L326.299 112.379
L326.671 164.795
L326.969 258.51
L327.043 276.389
L327.118 274.114
L327.415 167.116
L327.49 171.545
L327.787 276.844
L327.936 312.464
L328.234 286.129
L328.308 289.107
L328.382 292.505
L328.457 287.431
L328.68 230.194
L329.052 144.709
L329.275 155.486
L329.498 148.171
L329.647 163.815
L329.945 216.347
L330.019 212.643
L330.242 186.51
L330.391 209.342
L330.54 235.562
L330.763 211.917
L330.838 212.107
L330.986 250.342
L331.135 275.755
L331.21 275.145
L331.284 271.084
L331.582 230.436
L331.805 246.558
L331.879 240.585
L332.251 190.968
L332.549 207.252
L332.698 218.19
L332.995 189.384
L333.07 194.758
L333.293 239.525
L333.367 235.885
L333.665 173.941
L333.739 182.852
L334.037 238.707
L334.26 195.38
L334.334 200.53
L334.558 258.406
L334.632 253.913
L334.93 206.791
L335.004 207.476
L335.227 230.211
L335.376 227.181
L335.599 191.59
L335.897 231.075
L335.971 226.144
L336.12 201.906
L336.194 202.885
L336.492 225.413
L336.864 203.294
L336.938 202.488
L337.013 205.403
L337.236 227.245
L337.31 222.809
L337.534 188.572
L337.608 192.356
L337.98 231.219
L338.054 232.146
L338.278 221.778
L338.352 224.007
L338.575 255.975
L338.65 254.495
L338.947 209.694
L339.022 210.621
L339.245 203.893
L339.394 191.521
L339.468 194.228
L339.617 190.974
L339.84 207.799
L339.989 205.668
L340.138 197.523
L340.212 198.94
L340.51 231.444
L340.658 227.625
L340.733 225.545
L340.882 235.078
L340.956 234.491
L341.179 221.116
L341.254 222.602
L341.477 240.21
L341.551 235.539
L341.849 195.962
L341.923 199.297
L342.146 233.396
L342.221 229.312
L342.518 189.77
L342.742 240.02
L342.816 234.381
L343.114 182.944
L343.486 223.276
L343.56 218.754
L343.709 210.857
L343.783 214.215
L344.006 235.671
L344.23 214.06
L344.378 199.988
L344.527 207.758
L344.602 205.224
L344.676 206.687
L344.899 218.443
L345.048 221.79
L345.197 215.431
L345.271 218.374
L345.494 235.193
L345.569 231.467
L345.792 196.181
L345.866 196.377
L346.09 232.786
L346.164 230.873
L346.462 187.466
L346.536 188.797
L346.685 218.259
L346.908 254.103
L347.131 239.692
L347.206 244.288
L347.354 249.04
L347.503 227.124
L347.801 173.066
L347.875 170.658
L348.173 179.909
L348.842 248.718
L348.917 244.029
L348.991 240.464
L349.066 241.287
L349.14 241.99
L349.81 206.912
L349.884 195.709
L349.958 198.663
L350.107 213.968
L350.33 210.759
L350.479 199.643
L350.554 201.353
L350.851 224.042
L350.926 223.449
L351.223 207.54
L351.298 210.587
L351.521 235.994
L351.595 235.988
L351.744 218.391
L351.893 206.785
L352.042 213
L352.116 212.637
L352.19 214.596
L352.339 209.02
L352.488 223.38
L352.711 199.89
L352.786 203.41
L353.009 214.791
L353.158 204.625
L353.232 206.416
L353.306 207.724
L353.455 199.17
L353.827 251.454
L354.05 226.565
L354.274 254.397
L354.348 248.637
L354.571 200.553
L354.646 201.509
L354.794 191.135
L354.943 197.73
L355.018 193.911
L355.092 196.803
L355.166 196.331
L355.39 152.641
L355.613 234.45
L355.687 232.849
L355.836 176.453
L355.91 177.305
L356.282 261.989
L356.431 278.088
L356.58 238.517
L356.729 212.845
L356.952 275.68
L357.101 222.458
L357.25 173.728
L357.473 205.57
L357.696 199.049
L357.77 198.231
L357.919 203.093
L358.068 186.406
L358.217 232.786
L358.366 268.054
L358.589 190.432
L358.663 207.989
L358.812 242.48
L359.035 183.699
L359.258 204.481
L359.407 172.87
L359.482 185.692
L359.705 249.611
L359.928 185.122
L360.151 239.41
L360.3 205.639
L360.374 205.771
L360.523 232.509
L360.598 223.898
L360.746 189.712
L360.97 292.183
L361.044 279.286
L361.267 205.996
L361.416 242.117
L361.639 156.788
L361.714 160.878
L361.862 200.23
L362.086 139.284
L362.309 243.879
L362.383 238.206
L362.532 202.949
L362.606 214.1
L362.755 271.055
L362.83 262.404
L362.978 229.468
L363.127 270.036
L363.202 264.287
L363.35 184.972
L363.425 187.345
L363.574 256.638
L363.648 254.973
L363.871 193.641
L363.946 203.456
L364.02 216.001
L364.243 175.168
L364.318 187.725
L364.466 228.708
L364.541 221.41
L364.69 171.626
L364.764 179.719
L364.987 259.339
L365.21 218.293
L365.359 238.788
L365.582 182.011
L365.806 224.249
L366.029 157.952
L366.326 230.101
L366.475 201.278
L366.624 244.87
L366.698 240.521
L366.847 196.538
L367.07 247.381
L367.145 243.805
L367.368 198.352
L367.591 274.327
L367.814 217.268
L367.889 228.206
L367.963 244.444
L368.186 187.259
L368.335 232.094
L368.41 226.478
L368.633 160.054
L368.856 216.767
L368.93 214.331
L369.079 174.69
L369.154 186.32
L369.302 227.239
L369.451 195.714
L369.674 259.213
L369.749 249.04
L369.898 185.335
L370.046 244.732
L370.121 266.689
L370.195 262.352
L370.418 189.47
L370.567 232.573
L370.642 223.702
L370.79 182.616
L371.014 235.239
L371.162 161.748
L371.237 175.583
L371.386 261.044
L371.534 223.961
L371.683 186.251
L371.906 235.337
L372.055 195.68
L372.278 258.003
L372.427 163.268
L372.502 165.584
L372.65 273.209
L372.725 263.78
L372.874 205.426
L372.948 206.359
L373.097 219.624
L373.246 204.596
L373.32 209.746
L373.543 260.946
L373.766 154.83
L373.915 257.127
L373.99 252.237
L374.138 186.786
L374.213 192.552
L374.362 220.102
L374.585 189.81
L374.808 272.806
L375.031 167.744
L375.254 246.16
L375.403 179.869
L375.478 186.475
L375.626 228.195
L375.85 174.195
L376.073 243.712
L376.296 200.668
L376.519 251.845
L376.668 203.133
L376.742 213.824
L376.891 256.523
L377.114 209.348
L377.263 248.096
L377.338 235.579
L377.486 198.393
L377.71 251.2
L377.933 172.87
L378.156 214.774
L378.23 211.324
L378.379 181.913
L378.454 182.737
L378.528 185.444
L378.677 163.55
L378.751 175.157
L378.974 263.124
L379.198 174.062
L379.644 277.316
L379.718 265.019
L379.942 176.136
L380.09 230.729
L380.239 271.078
L380.314 261.384
L380.537 191.492
L380.611 192.454
L380.909 238.384
L380.983 231.997
L381.206 164.138
L381.578 217.349
L381.653 231.927
L381.727 228.742
L381.95 184.436
L382.248 253.199
L382.322 249.15
L382.471 254.293
L382.62 235.879
L382.769 220.54
L382.992 267.305
L383.066 253.199
L383.364 152.791
L383.513 142.359
L383.587 144.773
L383.81 180.629
L383.959 175.128
L384.108 221.594
L384.331 304.889
L384.406 308.881
L384.48 303.017
L384.778 229.278
L384.852 230.153
L384.926 234.658
L385.001 234.508
L385.373 139.468
L385.447 154.052
L385.745 204.792
L385.819 206.491
L385.968 228.742
L386.117 217.533
L386.34 250.688
L386.414 246.886
L386.489 236.749
L386.563 239.807
L386.638 242.71
L386.861 209.913
L386.935 212.873
L387.158 249.634
L387.456 187.357
L387.828 245.809
L387.902 236.219
L388.126 165.613
L388.2 177.236
L388.423 245.498
L388.646 181.522
L388.721 184.384
L388.944 213.72
L389.093 246.218
L389.167 242.848
L389.39 176.234
L389.614 225.217
L389.688 225.678
L389.837 223.022
L389.911 222.988
L390.06 202.592
L390.134 208.859
L390.358 230.067
L390.432 233.051
L390.581 195.53
L390.655 202.563
L390.73 212.401
L390.878 201.157
L391.027 211.75
L391.176 235.153
L391.25 232.521
L391.399 254.063
L391.474 246.713
L391.622 215.851
L391.697 222.971
L391.846 255.889
L391.92 245.348
L392.143 182.374
L392.366 213.092
L392.515 224.629
L392.664 197.195
L392.813 172.686
L393.11 236.368
L393.185 231.49
L393.334 186.804
L393.408 188.635
L393.631 241.645
L393.706 240.032
L393.929 200.685
L394.078 240.199
L394.152 237.975
L394.301 216.969
L394.45 235.55
L394.524 224.33
L394.673 171.73
L394.747 180.45
L394.896 212.171
L395.119 160.837
L395.342 232.855
L395.417 214.636
L395.491 213.495
L395.714 269.655
L395.863 248.234
L396.012 283.508
L396.086 269.321
L396.31 177.328
L396.458 242.555
L396.533 239.179
L396.756 177.651
L396.979 199.285
L397.202 258.527
L397.277 241.668
L397.426 167.536
L397.5 178.071
L397.649 243.781
L397.723 234.145
L397.872 189.649
L398.021 209.642
L398.095 206.871
L398.17 197.35
L398.393 241.714
L398.616 190.703
L398.765 246.494
L398.839 241.714
L398.988 187.656
L399.062 188.134
L399.211 227.02
L399.286 221.364
L399.36 217.764
L399.509 235.343
L399.732 181.527
L399.955 279.62
L400.253 180.214
L400.55 244.91
L400.625 256.724
L400.774 208.162
L400.922 173.233
L401.146 261.442
L401.369 180.433
L401.518 196.814
L401.592 177.939
L401.666 179.131
L401.815 213.161
L402.038 159.409
L402.113 175.088
L402.262 253.026
L402.336 245.815
L402.485 210.011
L402.857 272.311
L403.006 239.225
L403.154 209.711
L403.378 270.733
L403.452 264.713
L403.675 187.558
L404.047 234.364
L404.196 178.797
L404.27 150.256
L404.345 153.246
L404.568 251.356
L404.791 166.741
L404.866 177.017
L405.163 227.59
L405.238 231.714
L405.461 172.144
L405.535 180.606
L405.758 256.407
L405.982 199.424
L406.056 204.792
L406.205 227.55
L406.354 263.538
L406.428 256.16
L406.651 195.173
L406.8 230.09
L406.874 247.6
L406.949 243.718
L407.246 176.199
L407.321 175.007
L407.47 220.857
L407.544 245.907
L407.618 237.106
L407.767 189.735
L407.842 195.582
L408.139 259.973
L408.288 233.765
L408.437 199.418
L408.511 204.158
L408.734 250.48
L408.809 241.99
L409.106 195.599
L409.404 239.22
L409.553 201.457
L409.702 177.392
L409.85 204.867
L409.925 204.683
L410.074 190.185
L410.148 190.329
L410.222 194.476
L410.297 188.439
L410.371 194.372
L410.594 242.52
L410.669 235.597
L410.818 197.367
L410.892 200.864
L411.041 246.212
L411.115 244.484
L411.264 218.247
L411.338 218.616
L411.562 231.461
L411.636 231.599
L411.71 231.225
L411.785 233.511
L412.008 218.046
L412.157 239.652
L412.231 236.622
L412.529 201.353
L412.603 205.115
L412.752 226.836
L412.826 224.917
L413.05 180.565
L413.124 184.24
L413.347 230.459
L413.422 223.984
L413.645 169.397
L413.719 174.932
L414.017 239.243
L414.314 194.361
L414.463 228.517
L414.612 253.85
L414.835 206.578
L414.91 213.916
L415.058 238.281
L415.133 237.762
L415.43 206.036
L415.728 222.446
L416.026 212.315
L416.174 224.831
L416.249 232.319
L416.323 230.787
L416.546 193.767
L416.621 197.269
L416.77 213.749
L416.844 211.266
L417.142 186.412
L417.29 211.174
L417.439 253.291
L417.514 249.968
L417.811 200.109
L418.034 213.305
L418.109 222.838
L418.258 203.323
L418.332 192.345
L418.406 193.589
L418.63 216.905
L418.704 215.189
L419.002 255.071
L419.076 251.817
L419.374 231.726
L419.522 240.406
L419.671 213.317
L419.82 190.496
L420.118 208.715
L420.266 220.217
L420.415 193.295
L420.564 178.227
L420.936 214.941
L421.159 186.884
L421.531 240.406
L421.606 244.346
L421.68 241.403
L421.829 214.786
L421.903 215.569
L422.126 238.811
L422.275 238.062
L422.35 232.82
L422.573 193.312
L422.796 239.836
L423.019 203.98
L423.094 207.563
L423.168 205.771
L423.317 190.893
L423.54 240.193
L423.614 235.631
L423.838 207.269
L423.912 203.778
L423.986 205.362
L424.21 227.066
L424.284 222.907
L424.656 196.826
L424.73 202.01
L424.879 233.817
L425.028 212.672
L425.102 205.287
L425.177 207.43
L425.326 202.235
L425.4 202.903
L425.623 235.239
L425.698 233.477
L425.846 225.079
L425.995 231.997
L426.144 220.718
L426.218 223.512
L426.293 227.291
L426.367 225.355
L426.59 205.305
L426.888 200.017
L426.962 200.005
L427.111 196.336
L427.334 218.04
L427.558 196.141
L427.706 221.922
L427.781 221.162
L427.93 211.773
L428.004 219.607
L428.078 219.584
L428.227 204.158
L428.302 211.082
L428.525 247.767
L428.674 240.112
L428.822 242.007
L428.971 237.198
L429.046 239.721
L429.12 238.494
L429.343 207.902
L429.418 210.592
L429.492 212.937
L429.566 209.544
L429.79 192.903
L430.013 203.657
L430.162 214.734
L430.608 202.909
L430.682 205.045
L430.831 226.237
L430.906 222.302
L431.054 183.319
L431.129 183.757
L431.352 228.996
L431.426 226.951
L431.501 220.523
L431.575 221.329
L431.947 247.923
L432.245 212.885
L432.319 214.947
L432.394 212.453
L432.468 213.294
L432.617 226.369
L432.691 222.792
L432.914 202.77
L433.138 228.143
L433.286 213.789
L433.435 200.132
L433.658 209.636
L433.882 177.622
L433.956 180.853
L434.179 229.698
L434.254 227.671
L434.402 220.108
L434.551 229.272
L434.849 265.963
L434.998 243.793
L435.295 192.356
L435.37 195.012
L435.444 203.6
L435.518 203.064
L435.742 160.02
L435.89 190.617
L436.039 215.69
L436.188 212.712
L436.262 213.305
L436.411 221.058
L436.56 237.411
L436.634 235.314
L436.783 222.222
L436.858 226.064
L437.006 244.45
L437.081 243.712
L437.527 226.45
L437.676 229.848
L437.825 219.111
L438.122 175.001
L438.197 181.078
L438.42 215.874
L438.643 196.884
L439.015 228.201
L439.09 224.635
L439.313 203.605
L439.462 214.273
L439.536 213.294
L439.61 212.165
L439.685 214.434
L439.834 224.693
L439.908 224.209
L440.057 218.558
L440.206 229.381
L440.28 227.665
L440.503 218.357
L440.578 219.831
L440.652 223.869
L440.726 222.464
L440.95 189.361
L441.024 195.53
L441.247 224.676
L441.47 212.752
L441.545 213.351
L441.694 219.031
L441.842 233.494
L441.917 233.31
L442.14 202.24
L442.214 202.701
L442.661 229.053
L442.81 210.137
L442.884 201.826
L443.182 228.333
L443.256 222.763
L443.405 213.697
L443.479 214.567
L443.554 214.78
L443.777 192.414
L443.851 193.289
L444.074 220.937
L444.223 219.515
L444.521 212.009
L444.595 216.686
L444.818 236.593
L445.19 211.289
L445.265 211.923
L445.488 234.064
L445.562 230.937
L445.786 202.494
L446.009 218.795
L446.158 214.187
L446.381 202.569
L446.455 203.208
L446.53 201.86
L446.604 198.433
L446.678 201.215
L446.902 232.682
L446.976 231.628
L447.199 211.422
L447.274 213.778
L447.422 226.248
L447.497 225.874
L447.794 206.318
L448.241 223.518
L448.315 223.04
L448.538 210.869
L448.687 219.146
L448.836 235.211
L448.91 234.421
L449.208 205.558
L449.282 206.053
L449.357 207.528
L449.58 197.995
L449.729 215.143
L449.878 227.988
L449.878 227.988" style="fill:none;stroke:#808080;stroke-linecap:square;"/>
   </g>
  </g>
 </g>
 <defs>
  <clipPath id="p7ff5b81e1d">
   <rect height="345.6" width="446.4" x="72.0" y="43.2"/>
  </clipPath>
 </defs>
</svg>
