<?xml version="1.0" encoding="utf-8" standalone="no"?>
<!DOCTYPE svg PUBLIC "-//W3C//DTD SVG 1.1//EN"
  "http://www.w3.org/Graphics/SVG/1.1/DTD/svg11.dtd">
<!-- Created with matplotlib (http://matplotlib.org/) -->
<svg height="432pt" version="1.1" viewBox="0 0 576 432" width="576pt" xmlns="http://www.w3.org/2000/svg" xmlns:xlink="http://www.w3.org/1999/xlink">
 <defs>
  <style type="text/css">
*{stroke-linecap:butt;stroke-linejoin:round;}
  </style>
 </defs>
 <g id="figure_1">
  <g id="patch_1">
   <path d="
M0 432
L576 432
L576 0
L0 0
z
" style="fill:#ffffff;"/>
  </g>
  <g id="axes_1">
   <g id="line2d_1">
    <path clip-path="url(#p7ff5b81e1d)" d="
M72 200.666
L72.0744 209.371
L72.1488 211.228
L72.4464 156.602
L72.5208 164.464
L72.8928 221.812
L72.9672 221.467
L73.1904 173.796
L73.2648 179.498
L73.7112 336.379
L73.7856 325.104
L74.3064 209.414
L74.8272 114.482
L75.348 175.848
L75.4968 186.885
L76.0176 313.461
L76.092 310.329
L76.7616 198.506
L76.9104 169.562
L77.1336 155.738
L77.208 159.345
L77.3568 180.038
L77.5056 194.229
L77.6544 178.029
L77.7288 180.34
L78.0264 252.614
L78.1008 253.564
L78.2496 261.772
L78.324 256.2
L78.5472 231.036
L78.696 236.63
L78.7704 233.952
L78.8448 235.204
L78.9192 234.794
L79.068 218.875
L79.2912 182.911
L79.44 183.148
L79.5888 199.521
L79.6632 196.389
L79.8864 183.148
L79.9608 182.5
L80.0352 186.388
L80.4816 266.524
L80.556 273.933
L80.6304 270.715
L80.7792 223.303
L81.0024 158.719
L81.3 190.557
L81.5232 169.821
L81.672 208.982
L81.8952 275.964
L82.044 281.839
L82.1184 279.268
L82.4904 237.688
L82.5648 242.829
L82.6392 242.397
L82.788 221.618
L83.0856 161.484
L83.16 158.827
L83.3832 183.386
L83.6064 173.212
L83.6808 175.934
L83.8296 196.281
L84.1272 253.327
L84.276 257.798
L84.4248 252.16
L84.7224 227.752
L84.7968 229.092
L84.9456 233.368
L85.2432 220.236
L85.3176 219.674
L85.392 218.205
L85.6896 196.411
L85.764 196.454
L85.8384 196.67
L85.9128 195.331
L86.0616 181.528
L86.2104 172.046
L86.3592 199.262
L86.508 235.42
L86.5824 232.483
L86.8056 194.942
L86.88 193.408
L87.3264 262.744
L87.4752 249.482
L87.8472 197.793
L87.9216 202.221
L88.0704 211.444
L88.2936 195.957
L88.5912 225.571
L88.74 251.037
L89.2608 207.276
L89.3352 206.973
L89.484 198.355
L89.5584 201.206
L89.7816 224.167
L89.9304 210.019
L90.1536 189.78
L90.228 186.151
L90.3768 210.3
L90.6744 271.471
L90.7488 277.648
L90.8976 257.064
L91.1208 215.764
L91.2696 222.547
L91.4184 216.974
L91.5672 198.16
L91.7904 157.056
L91.8648 157.963
L92.1624 200.536
L92.3112 222.007
L92.6088 193.689
L92.6832 195.979
L92.7576 206.26
L92.832 202.567
L92.9064 204.619
L93.4272 286.634
L93.5016 284.128
L93.7248 257.452
L93.7992 261.859
L93.948 241.447
L94.5432 143.793
L94.7664 158.827
L95.2872 211.509
L95.3616 215.008
L95.5848 235.55
L95.808 224.253
L95.8824 224.556
L96.18 259.872
L96.3288 265.92
L96.4032 271.06
L96.4776 267.928
L96.7752 227.644
L96.924 222.201
L96.9984 223.54
L97.1472 230.431
L97.3704 203.107
L97.5936 170.404
L98.1888 217.125
L98.2632 214.576
L98.5608 166.192
L98.7096 195.676
L99.0072 253.413
L99.0816 249.72
L99.3048 227.666
L99.6024 249.871
L99.6768 252.225
L99.8256 239.74
L99.9744 214.684
L100.123 182.522
L100.198 186.302
L100.346 198.679
L100.421 197.944
L100.57 211.66
L100.644 212.049
L100.718 215.44
L101.09 179.368
L101.165 183.429
L101.537 241.728
L101.686 258.057
L101.76 257.841
L101.834 260.563
L102.132 243.78
L102.578 158.654
L102.727 185.654
L103.025 264.84
L103.322 212.632
L103.471 215.786
L103.546 221.726
L103.694 213.453
L103.843 216.348
L104.066 206.865
L104.29 165.717
L104.513 200.688
L104.587 197.491
L104.736 193.603
L104.959 209.5
L105.034 206.044
L105.108 210.753
L105.406 249.892
L105.48 259.245
L105.703 302.683
L105.778 296.98
L106.075 235.831
L106.15 235.809
L106.224 230.28
L106.67 142.972
L106.819 132.82
L106.968 108.067
L107.042 110.637
L107.34 199.759
L107.414 198.549
L107.563 218.227
L107.861 252.376
L108.01 260.973
L108.158 278.232
L108.233 274.149
L108.382 261.124
L108.605 271.492
L108.679 271.838
L108.754 270.132
L108.828 271.644
L108.902 264.926
L109.349 138.393
L109.498 166.97
L109.87 254.407
L109.944 257.841
L110.093 242.138
L110.39 191.119
L110.465 191.961
L110.539 197.988
L110.614 196.692
L110.837 160.166
L111.209 236.328
L111.283 237.019
L111.358 236.176
L111.804 186.712
L111.878 187.447
L112.176 233.498
L112.25 231.943
L112.474 197.167
L112.697 216.715
L112.771 222.223
L112.846 217.903
L112.92 219.847
L113.069 241.058
L113.143 237.926
L113.441 203.776
L113.515 206.131
L113.664 237.127
L113.887 288.081
L114.036 232.267
L114.185 183.472
L114.334 205.872
L114.408 205.332
L114.482 203.712
L114.557 206.282
L114.78 241.188
L114.929 213.799
L115.152 155.306
L115.45 231.986
L115.524 229.48
L115.747 185.395
L115.822 185.524
L116.045 204.036
L116.119 212.006
L116.268 202.156
L116.342 207.384
L116.566 232.807
L116.714 225.484
L116.863 248.056
L117.086 298.752
L117.161 290.673
L117.458 195.936
L117.533 199.046
L117.607 201.033
L117.682 198.722
L117.83 183.127
L117.905 188.116
L118.128 214.231
L118.277 180.254
L118.426 158.244
L118.723 225.355
L118.798 223.13
L118.946 206.973
L119.021 210.256
L119.244 244.816
L119.318 244.19
L119.542 212.978
L119.616 214.123
L119.765 231.511
L119.839 227.493
L120.062 180.772
L120.137 183.364
L120.434 224.534
L120.509 217.73
L120.583 220.365
L120.881 265.725
L120.955 261.276
L121.178 226.975
L121.327 240.172
L121.55 216.434
L121.774 173.947
L121.848 174.336
L122.071 204.208
L122.294 179.541
L122.369 179.563
L122.443 175.653
L122.592 197.62
L122.964 259.98
L123.038 265.358
L123.262 243.369
L123.41 219.717
L123.634 182.479
L123.782 191.529
L123.857 195.547
L124.006 186.129
L124.08 190.795
L124.303 208.204
L124.675 238.552
L124.824 257.992
L124.898 256.416
L125.196 228.12
L125.494 248.164
L125.568 240.237
L125.791 172.111
L125.866 170.923
L125.94 171.679
L126.61 228.206
L126.684 224.642
L126.758 228.444
L126.907 250.821
L126.982 249.18
L127.354 195.676
L127.428 193.171
L127.502 193.3
L127.577 200.277
L127.651 199.932
L127.874 184.315
L127.949 187.533
L128.172 247.408
L128.246 251.188
L128.47 286.029
L128.618 277.929
L128.693 277.195
L128.767 282.832
L129.065 235.118
L129.437 127.226
L129.66 75.062
L130.181 186.907
L130.776 324.11
L131.074 348
L131.222 328.041
L131.966 85.7972
L132.041 84.134
L132.19 96.7484
L132.338 121.848
L132.934 245.054
L133.082 254.256
L133.231 246.307
L133.306 246.955
L133.38 244.989
L133.454 247.884
L133.975 337.934
L134.05 331.173
L134.198 307.327
L134.422 207.06
L134.719 93.1628
L134.794 92.3204
L135.017 117.765
L135.314 149.236
L135.389 153.859
L135.538 191.594
L135.686 215.743
L135.761 219.652
L135.91 243.283
L136.058 238.682
L136.133 240.734
L136.505 276.093
L136.654 267.086
L136.802 269.98
L136.951 238.531
L137.026 241.749
L137.174 247.948
L138.142 171.938
L138.439 216.304
L138.514 215.246
L138.737 210.451
L139.109 174.098
L139.332 142.843
L139.704 221.704
L139.927 260.368
L140.076 268.706
L140.225 289.269
L140.299 287.887
L140.448 275.769
L140.522 278.858
L140.671 296.548
L140.746 291.991
L141.49 135.499
L141.638 124.677
L141.713 118.176
L141.787 121.632
L142.382 262.161
L142.68 247.905
L142.829 238.12
L142.903 237.602
L143.126 218.767
L143.573 244.32
L143.722 217.363
L144.019 156.991
L144.094 159.172
L144.242 184.12
L144.466 241.965
L144.689 219.134
L144.763 220.603
L145.061 266.006
L145.21 217.104
L145.433 154.55
L145.73 193.236
L145.805 199.284
L146.028 238.833
L146.251 219.285
L146.474 252.355
L146.549 247.732
L146.698 236.112
L146.995 184.077
L147.144 210.516
L147.293 244.557
L147.367 241.684
L147.665 200.148
L147.814 215.592
L147.962 246.976
L148.037 242.829
L148.334 152.952
L148.409 156.861
L148.855 243.175
L149.078 268.231
L149.153 266.978
L149.302 270.499
L149.599 242.872
L149.897 187.101
L150.269 161.268
L150.715 209.457
L150.938 277.216
L151.013 271.924
L151.31 164.875
L151.385 173.234
L151.608 223.821
L151.682 218.508
L151.906 189.283
L151.98 182.803
L152.054 185.654
L152.203 219.242
L152.426 265.768
L152.724 194.272
L152.798 198.031
L153.245 275.38
L153.394 256.934
L153.691 208.334
L153.84 221.856
L153.989 234.081
L154.138 196.843
L154.361 149.755
L154.733 240.885
L154.807 238.272
L155.03 219.89
L155.105 218.572
L155.328 235.593
L155.402 235.096
L155.551 200.342
L155.774 127.615
L155.849 136.492
L156.295 257.582
L156.37 262.183
L156.593 223.692
L156.667 224.664
L156.965 276.741
L157.039 263.025
L157.337 182.414
L157.486 196.368
L157.709 224.404
L157.783 226.694
L157.858 224.707
L158.006 236.155
L158.081 234.772
L158.23 242.57
L158.304 241.9
L158.676 173.709
L158.75 178.656
L158.899 196.281
L159.048 216.564
L159.122 216.304
L159.271 205.785
L159.569 126.88
L159.643 128.09
L159.792 186.259
L160.015 311.128
L160.09 308.018
L160.313 260.995
L160.536 268.944
L160.61 265.423
L161.131 202.524
L161.28 221.078
L161.354 217.86
L161.652 134.203
L161.726 136.924
L161.875 164.961
L162.098 226.089
L162.173 222.914
L162.247 223.843
L162.322 224.728
L162.545 208.615
L162.842 249.806
L162.917 250.843
L163.066 224.642
L163.289 175.761
L163.363 181.723
L163.735 265.077
L163.884 260.044
L164.182 239.784
L164.405 206.908
L164.777 139.862
L164.926 156.213
L165.149 191.011
L165.372 242.613
L165.446 243.542
L165.67 233.887
L165.744 237.04
L165.967 269.484
L166.042 264.127
L166.339 208.593
L166.488 212.568
L166.562 210.537
L166.711 216.715
L166.934 198.398
L167.232 208.464
L167.381 206.649
L167.455 204.727
L167.53 209.522
L167.753 238.812
L167.902 217.881
L168.05 205.548
L168.125 206.844
L168.422 235.226
L168.571 215.224
L168.794 185.589
L168.869 183.235
L169.464 242.095
L169.538 243.499
L169.762 225.592
L169.985 241.836
L170.059 238.639
L170.208 223.26
L170.431 177.338
L170.506 175.308
L170.654 191.961
L170.878 203.085
L171.175 177.77
L171.25 177.1
L171.324 180.038
L172.142 283.869
L172.291 278.253
L172.514 262.615
L172.961 178.31
L173.035 182.738
L173.11 190.255
L173.184 190.06
L173.258 187.188
L173.407 194.38
L173.482 193.344
L173.705 176.863
L173.779 176.517
L174.002 193.603
L174.151 202.567
L174.226 197.988
L174.3 199.24
L174.449 223.713
L174.672 210.278
L175.118 254.256
L175.342 223.972
L175.788 258.77
L175.862 259.332
L175.937 254.644
L176.383 183.516
L176.532 187.447
L176.681 199.154
L176.904 172.5
L176.978 174.897
L177.127 202.999
L177.35 262.399
L177.425 263.716
L177.574 237.451
L177.797 180.34
L177.871 187.036
L178.094 228.228
L178.243 222.568
L178.318 218.486
L178.392 218.724
L178.466 218.011
L178.69 209.349
L178.764 211.034
L179.062 231.943
L179.136 229.696
L179.285 180.794
L179.359 181.831
L179.508 207.448
L179.657 203.949
L180.103 245.076
L180.178 247.668
L180.326 242.03
L180.401 243.715
L180.55 253.586
L180.698 225.7
L180.922 157.833
L180.996 153.708
L181.07 154.161
L181.145 157.077
L181.591 252.506
L181.889 217.536
L182.186 246.501
L182.261 246.415
L182.41 224.512
L182.707 182.824
L182.782 182.306
L182.93 195.244
L183.079 210.278
L183.154 209.112
L183.377 189.326
L183.526 215.916
L183.749 250.324
L183.823 251.793
L183.972 239.092
L184.27 196.756
L184.344 197.944
L184.418 206.001
L184.642 260.757
L184.716 260.109
L184.939 232.008
L185.088 203.496
L185.162 205.375
L185.237 211.79
L185.46 192.76
L185.683 158.092
L185.906 131.2
L186.13 206.39
L186.427 283.891
L186.502 291.235
L186.948 248.942
L187.022 247.624
L187.246 215.484
L187.469 190.255
L187.618 186.108
L187.99 215.743
L188.138 201.573
L188.287 184.963
L188.436 211.444
L188.585 237.278
L188.659 231.446
L188.734 231.662
L188.808 233.325
L188.882 231.23
L189.031 209.716
L189.106 209.803
L189.254 214.468
L189.478 211.099
L189.552 210.796
L189.701 201.184
L189.998 161.268
L190.147 186.907
L190.594 268.814
L190.668 264.883
L190.817 241.922
L190.966 250
L191.04 247.149
L191.114 239.416
L191.189 240.626
L191.263 245.702
L191.338 241.62
L191.561 189.088
L191.71 190.017
L192.007 203.28
L192.305 176.452
L192.379 177.554
L192.454 180.427
L192.974 267.583
L193.346 209.997
L193.421 211.25
L193.644 221.877
L193.718 219.868
L193.867 222.568
L194.165 189.823
L194.239 191.097
L194.462 207.945
L194.537 205.224
L194.909 175.113
L194.983 183.796
L195.43 291.235
L195.578 245.356
L195.802 198.852
L195.95 222.655
L196.099 246.847
L196.174 246.177
L196.322 225.182
L196.546 164.832
L196.62 165.804
L196.843 210.019
L196.992 228.789
L197.29 144.117
L197.364 147.271
L197.736 256.092
L197.81 250.324
L198.108 208.852
L198.257 236.155
L198.48 296.808
L198.554 288.448
L198.852 195.201
L199.001 224.016
L199.15 250.756
L199.298 225.938
L199.596 142.065
L199.745 190.665
L199.968 256.459
L200.117 210.429
L200.266 157.812
L200.34 159
L200.786 275.791
L201.158 174.184
L201.456 219.393
L201.754 158.935
L201.828 172.737
L202.274 287.368
L202.646 232.31
L203.018 206.649
L203.167 173.904
L203.242 176.172
L203.614 259.31
L203.762 220.992
L203.986 171.614
L204.134 179.196
L204.283 177.057
L204.581 187.209
L204.73 213.712
L205.027 293.827
L205.102 288.967
L205.399 220.689
L205.697 233.304
L205.846 220.365
L206.069 189.391
L206.143 189.715
L206.292 201.854
L206.366 210.537
L206.441 208.464
L206.738 139.452
L206.813 142.432
L206.962 176.539
L207.259 255.552
L207.482 233.995
L207.854 274.603
L207.929 274.128
L208.003 266.006
L208.226 228.033
L208.301 228.271
L208.375 227.796
L208.673 216.153
L208.822 175.588
L209.045 142.908
L209.194 157.466
L209.491 188.937
L209.64 202.869
L210.012 295.792
L210.086 288.168
L210.384 219.523
L210.458 218.227
L210.607 214.188
L210.756 218.4
L210.979 170.404
L211.054 174.184
L211.351 230.323
L211.5 212.373
L211.723 188.548
L211.798 190.838
L211.872 199.629
L212.17 258.511
L212.318 263.911
L212.542 222.72
L212.69 238.034
L212.914 206.584
L213.211 145.305
L213.286 145.845
L213.658 239.654
L213.732 235.831
L214.03 204.316
L214.104 211.574
L214.253 238.855
L214.327 233.131
L214.402 233.736
L214.476 234.859
L214.774 202.718
L214.848 205.332
L215.071 229.999
L215.146 229.61
L215.369 202.783
L215.443 204.338
L215.741 233.908
L215.815 230.15
L216.113 183.364
L216.187 171.031
L216.262 178.504
L216.634 259.893
L216.708 259.807
L216.931 251.145
L217.006 249.72
L217.08 251.318
L217.154 250.713
L217.452 201.076
L217.675 171.117
L217.75 173.472
L217.898 186.237
L217.973 184.812
L218.196 169.087
L218.27 171.052
L218.419 192.739
L218.642 226.456
L218.866 239.827
L218.94 237.386
L219.089 228.465
L219.163 227.428
L219.312 236.22
L219.386 235.291
L219.61 202.545
L220.13 262.701
L220.279 266.049
L220.502 238.833
L220.874 195.482
L221.023 204.813
L221.544 169.087
L221.618 157.228
L221.693 160.274
L221.99 186.82
L222.511 261.319
L222.586 264.04
L222.734 260.174
L222.883 248.013
L223.404 185.719
L223.627 204.424
L223.776 198.225
L224.148 259.656
L224.222 258.727
L224.52 244.147
L224.892 225.312
L225.264 166.516
L225.562 144.204
L225.636 144.247
L225.859 194.532
L226.231 260.001
L226.306 257.992
L226.454 248.964
L226.826 272.724
L227.124 234.016
L227.273 217.233
L227.347 217.384
L227.496 231.316
L227.57 226.089
L228.017 126.362
L228.091 127.075
L228.612 213.712
L228.984 267.453
L229.133 277.519
L229.207 273.717
L229.728 207.988
L229.877 204.079
L229.951 204.122
L230.1 195.072
L230.398 218.076
L230.546 230.388
L230.695 219.004
L230.844 203.604
L230.918 205.224
L231.142 232.18
L231.29 248.251
L231.365 247.603
L231.737 199.262
L232.183 183.775
L232.258 187.231
L232.481 216.218
L232.704 229.804
L232.778 226.564
L232.927 232.051
L233.076 245.724
L233.15 244.428
L233.374 231.727
L233.522 229.74
L234.118 199.629
L234.192 199.068
L234.415 215.829
L234.638 196.519
L234.862 175.912
L234.936 177.446
L235.382 236.155
L235.531 242.268
L235.68 231.489
L235.903 239.503
L235.978 238.056
L236.052 238.228
L236.275 242.419
L236.647 226.068
L236.945 183.04
L237.019 181.183
L237.168 185.287
L237.317 175.524
L237.391 180.556
L237.763 241.836
L237.912 249.288
L238.135 215.073
L238.284 232.72
L238.358 231.489
L238.805 206.692
L238.954 209.155
L239.102 193.473
L239.251 199.435
L239.4 182.068
L239.549 209.328
L239.623 223.065
L239.698 218.637
L239.772 219.566
L239.921 255.055
L239.995 254.925
L240.144 243.996
L240.218 247.322
L240.293 241.447
L240.665 176.647
L240.814 179.455
L241.037 187.598
L241.26 220.927
L241.334 213.453
L241.409 215.03
L241.632 233.908
L241.93 250
L242.078 236.025
L242.302 261.621
L242.525 239.503
L242.599 236.22
L242.822 208.744
L242.897 210.04
L243.046 193.862
L243.12 198.571
L243.194 195.871
L243.343 161.851
L243.418 165.372
L243.715 187.468
L244.162 203.517
L244.459 237.883
L244.534 238.315
L244.608 238.293
L244.757 235.68
L244.831 235.68
L244.906 236.133
L244.98 237.688
L245.203 258.057
L245.278 257.409
L245.575 239.395
L245.724 232.72
L245.947 212.222
L246.022 208.593
L246.319 180.967
L246.468 188.592
L246.542 193.992
L246.617 192.76
L246.691 191.119
L246.766 197.642
L246.84 195.417
L246.989 182.328
L247.063 185.308
L247.435 218.076
L247.584 212.179
L247.658 213.064
L247.733 215.613
L248.03 239.352
L248.477 269.635
L249.37 186.54
L249.518 189.24
L249.593 189.132
L249.667 182.004
L249.816 197.62
L249.89 192.912
L250.039 189.909
L250.337 157.12
L250.486 167.035
L250.858 284.042
L251.006 310.956
L251.081 309.832
L251.23 292.552
L251.676 192.674
L251.825 181.269
L251.899 183.58
L251.974 182.868
L252.048 182.868
L252.197 196.065
L252.643 239.157
L252.718 236.047
L252.866 228.357
L253.313 188.851
L253.462 186.669
L253.536 186.712
L253.685 176.409
L253.759 177.468
L253.982 180.751
L254.131 197.404
L254.801 292.38
L255.024 301.02
L255.247 255.768
L255.694 171.031
L255.917 156.235
L256.066 169.886
L256.214 183.213
L256.289 182.198
L256.438 194.553
L256.512 202.977
L256.586 202.826
L256.661 199.651
L256.735 201.53
L257.256 266.74
L257.479 241.144
L257.628 213.064
L257.777 186.216
L258.074 197.944
L258.149 204.835
L258.223 202.459
L258.298 204.77
L258.595 244.363
L258.67 245.918
L258.818 232.353
L258.893 234.708
L258.967 239.632
L259.042 236.716
L259.19 227.428
L259.265 226.543
L259.637 199.197
L259.786 175.653
L260.158 185.049
L260.306 199.327
L260.455 212.287
L260.53 210.278
L260.976 245.767
L261.199 223.324
L261.274 223.864
L261.422 219.415
L261.571 222.093
L261.869 217.73
L262.092 209.025
L262.166 209.176
L262.315 216.888
L262.39 218.637
L262.613 238.596
L262.687 238.963
L262.836 233.952
L263.134 172.456
L263.208 175.459
L263.431 200.947
L263.506 198.614
L263.58 194.704
L263.729 211.056
L263.952 236.328
L264.026 236.911
L264.101 236.155
L264.25 230.085
L264.473 196.886
L264.547 197.772
L264.696 205.807
L264.845 221.877
L264.919 219.112
L265.142 245.832
L265.217 240.367
L265.44 221.661
L265.589 217.406
L265.738 225.722
L265.886 214.987
L265.961 215.656
L266.035 223.821
L266.11 223.324
L266.333 191.356
L266.407 181.55
L266.63 223.454
L266.779 195.806
L266.928 225.484
L267.002 219.868
L267.151 163.687
L267.226 166.041
L267.449 236.868
L267.598 222.417
L267.821 247.603
L268.044 221.791
L268.118 225.636
L268.267 205.072
L268.342 208.118
L268.49 228.552
L268.639 210.602
L268.714 215.57
L268.862 268.728
L268.937 265.444
L269.16 184.941
L269.383 233.26
L269.532 172.953
L269.606 175.221
L269.755 201.962
L269.904 179.628
L270.053 232.526
L270.127 255.336
L270.202 244.816
L270.35 207.513
L270.499 238.315
L270.574 229.092
L270.722 193.322
L270.797 195.849
L270.871 193.192
L271.094 155.371
L271.318 226.392
L271.466 213.777
L271.69 293.222
L271.838 261.578
L272.062 275.726
L272.136 275.856
L273.103 127.68
L273.326 159.496
L273.401 156.559
L273.475 162.65
L273.698 217.644
L273.773 202.869
L273.847 205.548
L274.07 283.718
L274.219 250.735
L274.294 253.392
L274.368 262.701
L274.591 186.194
L274.666 198.592
L274.74 219.307
L274.814 214.576
L274.963 187.598
L275.112 242.44
L275.186 240.82
L275.335 214.792
L275.484 264.775
L275.558 263.479
L275.707 250.605
L275.856 270.369
L276.228 188.203
L276.377 168.028
L276.451 170.577
L276.749 193.538
L276.823 193.776
L277.195 231.187
L277.27 233.196
L277.418 220.56
L277.493 221.272
L277.642 213.259
L277.716 215.073
L277.939 247.862
L278.014 245.767
L278.162 242.052
L278.237 240.95
L278.311 244.449
L278.534 204.856
L278.609 212.352
L278.683 207.729
L278.906 184.099
L279.055 178.332
L279.13 187.036
L279.204 186.756
L279.353 176.928
L279.502 170.599
L279.65 189.974
L279.948 216.369
L280.022 215.052
L280.097 214.706
L280.543 290.263
L280.618 289.788
L280.692 284.064
L281.213 169.994
L281.362 133.641
L281.585 169.303
L282.106 278.124
L282.254 299.918
L282.403 273.652
L282.85 200.256
L282.924 204.943
L283.073 192.069
L283.222 151.764
L283.296 156.17
L283.445 191.896
L283.594 174.703
L283.966 215.592
L284.114 253.975
L284.412 198.744
L284.486 201.012
L284.71 220.495
L284.933 240.993
L285.23 185.438
L285.528 207.535
L285.751 256.437
L285.826 254.493
L285.9 254.536
L285.974 255.897
L286.123 237.732
L286.198 225.441
L286.272 229.545
L286.346 231.014
L286.421 228.595
L286.644 197.836
L286.793 215.397
L286.942 227.58
L287.09 221.985
L287.239 233.131
L287.462 214.382
L287.537 217.255
L287.611 225.29
L287.686 220.819
L288.206 148.588
L288.802 220.905
L288.876 215.721
L288.95 214.468
L289.248 235.01
L289.769 288.816
L289.918 291.71
L289.992 284.733
L290.215 236.911
L290.513 169.519
L290.587 172.651
L290.662 179.152
L290.736 175.848
L290.885 156.213
L290.959 157.336
L291.703 224.577
L291.778 218.184
L291.852 223.648
L292.15 266.719
L292.224 269.527
L292.596 238.704
L292.819 222.439
L293.042 193.063
L293.191 170.188
L293.34 152.952
L293.489 177.208
L293.638 154.766
L293.712 158.222
L294.158 259.958
L294.382 312.705
L294.456 320.265
L294.53 319.833
L294.679 291.192
L294.977 234.103
L295.126 211.488
L295.2 217.233
L295.274 213.95
L295.498 146.58
L295.572 149.712
L295.646 152.26
L295.87 114.331
L296.018 141.482
L296.167 129.84
L296.539 234.535
L296.762 298.6
L296.837 301.732
L296.986 325.665
L297.06 323.959
L297.283 298.363
L297.358 288.751
L297.655 204.705
L297.953 148.761
L298.027 154.075
L298.102 161.635
L298.176 161.419
L298.25 160.252
L298.474 216.736
L298.622 189.304
L298.771 212.265
L298.92 192.825
L298.994 196.562
L299.292 237.04
L299.441 242.138
L299.59 225.83
L299.664 231.77
L299.813 257.733
L300.036 220.884
L300.185 226.327
L300.334 210.148
L300.408 211.444
L300.557 214.252
L300.854 157.099
L300.929 163.147
L301.003 165.76
L301.078 161.678
L301.152 165.544
L301.375 224.232
L301.45 222.504
L301.524 217.773
L301.747 225.074
L302.194 278.685
L302.342 285.792
L302.491 279.29
L302.566 285.446
L302.64 282.314
L302.938 203.042
L303.161 162.477
L303.31 179.109
L303.384 175.416
L303.533 166.473
L303.682 176.496
L303.83 188.829
L303.905 185.438
L303.979 186.691
L304.202 198.636
L304.351 179.692
L304.426 181.788
L304.574 217.86
L304.649 213.626
L304.723 206.282
L304.946 249.072
L305.021 234.988
L305.095 238.38
L305.318 280.564
L305.467 277.022
L305.542 280.456
L305.69 261.945
L306.434 158.74
L306.509 157.207
L306.732 137.4
L307.104 186.108
L307.327 247.214
L307.402 255.055
L307.625 324.693
L308.518 147.962
L308.666 177.619
L308.741 177.144
L308.815 168.374
L308.89 175.394
L309.038 206.196
L309.113 203.431
L309.262 174.746
L309.41 197.448
L309.559 177.835
L309.634 186.086
L309.782 232.548
L309.857 230.949
L309.931 235.248
L310.08 282.94
L310.154 277.411
L310.303 250.951
L310.452 272.032
L310.601 247.711
L310.675 239.503
L310.824 255.616
L310.898 242.7
L311.122 178.591
L311.196 176.582
L311.419 142.389
L311.568 187.792
L311.717 162.52
L311.94 236.047
L312.089 198.204
L312.312 247.279
L312.461 222.223
L312.61 248.121
L312.833 209.846
L312.982 259.137
L313.056 257.798
L313.205 226.694
L313.279 240.583
L313.354 235.096
L313.502 183.71
L313.651 219.458
L313.726 216.564
L313.874 186.561
L314.098 249.525
L314.246 203.712
L314.395 222.784
L314.47 219.134
L314.618 190.471
L314.767 202.264
L314.916 160.36
L315.437 238.336
L315.586 207.232
L315.66 212.222
L315.809 252.873
L315.883 248.359
L316.032 227.536
L316.106 236.608
L316.181 235.615
L316.33 210.732
L316.478 238.358
L316.553 231.748
L316.702 217.752
L316.776 221.078
L316.925 203.236
L317.074 195.828
L317.222 200.191
L317.52 211.488
L317.594 208.399
L317.669 198.636
L317.743 199.608
L317.892 222.201
L318.041 211.034
L318.264 231.122
L318.413 208.507
L318.636 246.804
L318.859 183.883
L318.934 186.064
L319.306 230.452
L319.529 210.58
L319.752 229.07
L319.901 236.112
L320.05 228.336
L320.198 237.969
L320.496 188.872
L320.719 231.705
L320.868 217.86
L321.017 227.58
L321.24 177.381
L321.463 239.33
L321.612 188.959
L321.686 200.083
L321.761 219.933
L321.835 216.11
L322.058 147.12
L322.356 234.492
L322.43 232.72
L322.505 233.498
L322.579 232.591
L322.654 233.412
L322.802 253.867
L322.877 252.247
L323.1 234.729
L323.249 221.078
L323.323 224.923
L323.472 248.942
L323.695 210.667
L323.77 214.036
L323.844 214.771
L324.216 177.468
L324.365 171.96
L324.514 181.572
L325.555 270.088
L325.704 254.558
L325.853 213.756
L325.927 214.317
L326.002 214.188
L326.225 193.257
L326.299 194.208
L326.448 184.272
L326.522 186.432
L326.671 198.29
L326.894 186.043
L327.192 236.565
L327.415 205.548
L327.49 206.347
L327.713 226.629
L327.862 245.227
L328.382 191.443
L328.531 184.704
L328.829 234.513
L328.978 231.014
L329.35 246.868
L329.424 243.499
L329.647 233.282
L329.796 208.118
L329.945 226.975
L330.019 223.044
L330.242 211.142
L330.466 160.857
L330.689 192.588
L330.912 169.497
L330.986 177.338
L331.284 248.985
L331.358 247.905
L331.433 249.504
L331.656 272.68
L331.879 200.472
L331.954 201.681
L332.177 252.83
L332.4 219.307
L332.474 224.944
L332.549 220.754
L332.698 185.136
L332.846 153.751
L332.995 197.448
L333.07 190.428
L333.218 132.518
L333.293 143.167
L333.516 250.951
L333.665 225.895
L333.739 211.293
L333.814 218.551
L333.962 285.252
L334.037 273.35
L334.186 222.828
L334.409 278.728
L334.483 265.099
L334.706 227.148
L334.855 252.463
L334.93 246.415
L335.153 125.001
L335.227 130.099
L335.45 200.709
L335.599 158.676
L335.674 167.445
L335.822 207.578
L336.046 159.777
L336.194 218.702
L336.343 260.973
L336.492 211.25
L336.566 188.095
L336.641 202.243
L336.864 271.514
L337.013 264.969
L337.236 300.912
L337.31 293.395
L337.534 190.104
L337.608 190.579
L337.757 219.458
L337.98 156.494
L338.203 199.91
L338.426 173.32
L338.65 206.865
L338.724 201.768
L338.873 173.947
L338.947 185.244
L339.17 249.374
L339.319 240.777
L339.542 246.48
L339.617 245.767
L339.914 207.232
L340.138 242.332
L340.286 222.784
L340.361 229.653
L340.51 241.447
L340.733 207.751
L340.807 210.148
L341.03 217.881
L341.328 187.252
L341.477 218.659
L341.551 214.425
L341.774 173.169
L342.072 211.401
L342.295 195.806
L342.37 203.366
L342.593 239.46
L342.667 236.112
L342.89 268.879
L342.965 264.062
L343.262 209.587
L343.337 208.723
L343.486 199.003
L343.56 199.197
L343.783 207.34
L344.006 199.262
L344.155 186.302
L344.23 192.156
L344.527 239.352
L344.602 240.777
L344.75 262.96
L344.825 262.399
L344.974 232.936
L345.122 217.233
L345.197 216.974
L345.271 218.356
L345.346 214.512
L345.569 197.21
L345.718 189.931
L345.792 190.946
L346.164 237.019
L346.238 227.342
L346.387 183.948
L346.462 188.203
L346.61 210.17
L346.685 208.55
L346.834 193.02
L346.982 180.189
L347.503 216.542
L347.726 233.196
L347.801 237.213
L347.95 227.709
L348.247 267.064
L348.322 264.883
L348.396 255.444
L348.47 255.638
L348.545 265.488
L348.619 263.198
L348.842 223.454
L348.917 224.793
L348.991 222.46
L349.512 155.284
L349.586 150.662
L349.884 197.728
L349.958 197.124
L350.107 191.335
L350.33 202.092
L350.405 203.431
L350.628 252.074
L350.851 298.687
L351 254.126
L351.149 227.061
L351.223 225.441
L351.298 226.262
L351.446 215.57
L351.67 189.672
L351.818 204.403
L351.967 191.076
L352.265 217.147
L352.488 226.068
L352.562 221.229
L352.786 239.438
L352.86 236.479
L353.009 221.985
L353.158 206.044
L353.306 215.635
L353.381 219.631
L353.53 216.434
L353.678 232.353
L353.753 229.999
L354.199 182.803
L354.274 185.049
L354.422 198.873
L354.497 197.016
L354.646 164.011
L354.943 197.253
L355.018 199.802
L355.241 238.12
L355.39 254.774
L355.464 250.26
L355.687 218.68
L355.762 225.7
L355.985 274.02
L356.059 273.22
L356.431 247.365
L356.803 208.723
L356.878 207.751
L357.026 188.16
L357.324 145.284
L357.77 181.399
L357.919 203.15
L357.994 205.44
L358.142 199.845
L358.366 216.412
L358.589 240.604
L358.738 231.014
L358.812 237.192
L359.11 301.257
L359.258 274.3
L359.407 258.381
L359.482 264.969
L359.556 263.436
L359.705 230.798
L359.928 189.78
L360.077 187.944
L360.3 176.15
L360.374 175.459
L360.672 162.866
L360.746 165.372
L361.267 210.213
L361.342 207.535
L361.416 208.809
L361.565 242.613
L361.714 270.24
L361.788 268.728
L362.011 249.892
L362.086 250.756
L362.234 229.113
L362.383 214.058
L362.458 217.039
L362.532 216.412
L362.606 212.589
L362.83 188.7
L362.978 198.787
L363.127 218.875
L363.276 202.912
L363.722 228.552
L363.871 216.52
L363.946 210.948
L364.02 213.259
L364.169 208.615
L364.541 233.822
L364.615 234.859
L364.764 214.684
L364.987 194.445
L365.21 210.494
L365.285 207.038
L365.434 189.693
L365.731 205.116
L365.88 201.184
L366.178 242.548
L366.326 236.565
L366.475 241.166
L366.55 239.352
L366.773 245.248
L366.996 233.757
L367.145 207.772
L367.294 217.449
L367.368 212.805
L367.666 228.94
L367.74 223.756
L367.814 226.413
L367.889 225.679
L367.963 219.717
L368.186 169.972
L368.261 172.651
L368.335 171.549
L368.558 159.604
L368.633 164.875
L368.707 163.968
L368.782 165.674
L369.005 194.251
L369.526 264.667
L369.674 268.684
L369.823 274.171
L369.972 285.446
L370.046 279.808
L370.27 234.643
L370.344 237.58
L370.418 234.513
L370.716 204.964
L370.865 196.195
L371.014 197.512
L371.311 164.27
L371.46 146.299
L371.609 153.772
L371.758 178.936
L371.906 199.651
L372.055 203.971
L372.278 221.942
L372.353 221.899
L372.427 220.387
L372.502 220.905
L372.576 225.096
L372.725 261.859
L372.874 300.609
L373.246 276.957
L373.692 189.024
L373.915 171.031
L373.99 165.048
L374.064 165.544
L374.213 167.856
L374.287 165.264
L374.808 241.684
L375.106 210.17
L375.254 208.096
L375.329 208.248
L375.403 209.738
L375.552 223.821
L375.701 233.066
L375.775 229.545
L375.85 230.474
L375.924 234.988
L375.998 233.649
L376.073 230.517
L376.519 190.881
L376.891 252.225
L376.966 248.553
L377.189 214.663
L377.338 191.832
L377.561 187.08
L377.71 178.051
L377.784 180.88
L378.379 263.76
L378.454 262.55
L378.677 239.611
L378.751 241.576
L378.826 239.287
L379.495 180.578
L379.57 179.952
L379.793 161.527
L380.388 233.001
L380.611 275.078
L381.132 218.097
L381.206 222.072
L381.43 238.574
L381.578 229.437
L381.95 196.8
L382.099 192.933
L382.248 185.503
L382.397 189.153
L382.62 184.12
L382.694 184.272
L382.992 205.612
L383.29 236.976
L383.513 275.661
L383.587 269.937
L384.034 197.469
L384.108 198.808
L384.257 197.62
L384.554 219.501
L384.703 225.614
L384.852 214.231
L385.001 193.236
L385.075 193.387
L385.298 199.867
L385.373 198.42
L385.67 223.303
L385.819 232.375
L385.894 232.245
L386.042 215.98
L386.117 219.004
L386.34 237.948
L386.414 236.112
L386.489 231.1
L386.638 247.387
L386.861 226.219
L386.935 236.457
L387.01 235.226
L387.456 177.23
L387.53 178.764
L387.679 175.135
L387.902 152.844
L388.051 179.412
L388.498 266.611
L388.572 277.8
L388.646 275.359
L388.944 230.172
L389.018 230.841
L389.093 230.452
L389.242 217.255
L389.465 233.239
L389.614 219.933
L389.986 182.868
L390.134 192.998
L390.209 191.983
L390.283 184.963
L390.358 186.648
L390.506 208.312
L390.581 207.967
L390.655 211.552
L390.878 230.02
L390.953 230.474
L391.027 229.2
L391.176 218.119
L391.399 238.12
L391.474 235.14
L391.622 219.004
L391.697 220.214
L391.771 223.303
L392.292 205.548
L392.366 205.85
L392.515 210.084
L392.738 203.452
L392.887 189.736
L392.962 191.464
L393.185 206.865
L393.334 201.444
L393.557 225.679
L393.854 265.79
L393.929 264.472
L394.375 225.873
L394.524 234.189
L394.598 229.005
L394.822 191.032
L394.896 190.212
L394.97 182.068
L395.045 182.371
L395.342 204.424
L395.417 206.282
L395.566 213.064
L395.64 211.812
L395.938 174.616
L396.012 176.344
L396.235 202.351
L396.533 230.409
L396.756 248.812
L396.979 282.444
L397.054 282.12
L397.202 270.499
L397.351 250.238
L397.574 198.463
L397.649 203.02
L397.723 198.182
L397.872 161.764
L398.095 195.352
L398.244 179.412
L398.393 201.832
L398.542 181.442
L398.616 181.593
L398.914 214.749
L398.988 219.48
L399.211 198.96
L399.658 255.66
L399.806 263.565
L400.03 248.229
L400.104 249.028
L400.327 226.802
L400.476 247.948
L400.699 206.952
L400.774 208.161
L400.848 205.612
L401.071 189.283
L401.22 181.528
L401.369 168.115
L401.89 225.744
L402.113 208.636
L402.187 211.423
L402.336 202.934
L402.41 206.433
L402.931 259.893
L403.006 254.32
L403.229 216.456
L403.303 218.313
L403.452 205.504
L403.526 205.742
L403.675 228.228
L403.75 226.327
L403.824 224.836
L403.973 213.561
L404.196 231.165
L404.345 239.136
L404.494 204.468
L404.568 189.693
L404.642 191.378
L404.717 195.374
L404.791 195.309
L404.866 193.862
L404.94 187.188
L405.014 189.196
L405.238 239.33
L405.312 238.898
L405.535 272.162
L405.61 269.613
L405.907 217.341
L406.056 213.388
L406.205 191.594
L406.577 132.475
L406.651 133.728
L407.172 212.46
L407.693 289.291
L407.842 291.321
L407.99 297.996
L408.139 270.758
L408.66 171.268
L408.809 184.488
L409.032 204.489
L409.106 203.625
L409.181 198.571
L409.478 151.785
L409.702 161.937
L409.925 191.313
L409.999 193.819
L410.222 230.733
L410.446 263.544
L410.892 286.807
L410.966 286.634
L411.115 264.343
L411.338 228.249
L411.487 207.902
L411.636 217.579
L411.785 186.799
L411.859 186.82
L412.157 153.967
L412.231 153.837
L412.454 161.592
L412.678 178.051
L413.273 238.768
L413.496 271.795
L413.57 270.434
L414.24 237.127
L414.463 198.139
L414.612 200.86
L414.761 191.702
L414.984 211.66
L415.058 209.198
L415.207 201.962
L415.356 185.265
L415.43 187.641
L415.728 219.048
L415.802 229.48
L415.877 229.264
L416.1 218.119
L416.174 219.523
L416.249 218.983
L416.398 209.781
L416.621 223
L416.695 222.568
L416.77 221.359
L416.993 202.005
L417.142 183.3
L417.216 189.542
L417.514 234.794
L417.662 248.337
L417.886 200.968
L417.96 203.344
L418.109 216.78
L418.258 205.699
L418.332 208.312
L418.778 256.092
L418.853 255.184
L419.15 208.939
L419.225 211.725
L419.299 211.639
L419.448 220.473
L419.522 217.384
L419.671 199.37
L419.746 199.478
L420.118 174.422
L420.266 180.772
L420.341 178.504
L420.415 181.658
L420.713 227.32
L420.787 234.513
L420.862 232.785
L421.01 232.051
L421.234 234.103
L421.308 238.315
L421.457 260.044
L421.531 257.863
L421.68 250.281
L421.754 248.856
L421.978 209.349
L422.052 209.932
L422.126 209.371
L422.275 188.548
L422.35 191.486
L422.498 219.674
L422.647 208.226
L422.722 212.46
L422.796 212.028
L422.87 212.848
L422.945 217.276
L423.019 215.743
L423.168 199.845
L423.242 200.126
L423.391 178.612
L423.466 181.334
L423.614 204.813
L423.689 198.29
L423.763 200.061
L423.912 219.415
L423.986 216.11
L424.21 244.946
L424.582 208.528
L424.656 209.068
L424.805 231.64
L424.954 244.579
L425.251 214.231
L425.4 211.66
L425.623 186.82
L425.698 189.24
L425.846 179.8
L426.07 207.016
L426.442 254.536
L426.516 259.872
L426.59 259.742
L427.111 203.647
L427.186 203.496
L427.26 206.088
L427.409 190.665
L427.483 191.853
L427.706 216.974
L427.855 197.988
L428.004 203.928
L428.153 182.414
L428.227 182.846
L428.376 196.044
L428.45 193.819
L428.525 196.281
L428.674 208.269
L428.748 206.541
L428.971 242.613
L429.12 238.531
L429.194 239.632
L429.343 241.101
L429.418 240.151
L429.566 253.197
L429.715 230.863
L429.79 235.55
L429.864 232.85
L430.013 199.543
L430.162 211.293
L430.31 206.412
L430.459 213.928
L430.682 171.096
L430.757 179.498
L431.054 228.962
L431.203 211.423
L431.352 225.83
L431.575 198.355
L431.873 230.949
L432.022 240.777
L432.245 220.56
L432.319 220.711
L432.468 226.348
L432.542 220.862
L432.617 221.834
L432.766 233.217
L432.989 201.703
L433.063 206.541
L433.212 222.072
L433.286 219.782
L433.51 172.867
L433.584 174.703
L433.658 182.803
L433.733 180.772
L433.807 182.155
L434.105 224.469
L434.179 223.044
L434.477 249.633
L434.551 247.646
L434.7 241.706
L434.849 251.728
L435.146 197.685
L435.221 198.117
L435.295 194.92
L435.37 200.018
L435.518 218.81
L435.593 211.358
L435.667 214.879
L435.742 223.303
L435.816 219.609
L435.965 197.361
L436.114 207.232
L436.188 206.649
L436.337 199.975
L436.56 234.124
L436.634 232.699
L436.709 230.128
L436.783 232.828
L436.858 231.165
L437.155 200.126
L437.378 213.129
L437.527 211.25
L437.676 195.957
L437.75 199.413
L438.122 242.743
L438.197 242.527
L438.346 228.638
L438.42 229.632
L438.494 226.716
L438.569 217.147
L438.643 217.579
L438.718 218.14
L438.941 189.888
L439.015 189.974
L439.313 180.405
L439.387 180.189
L439.536 203.323
L439.834 249.525
L440.057 271.903
L440.28 248.1
L440.429 239.503
L440.726 211.833
L440.801 209.306
L440.875 210.58
L441.024 217.622
L441.173 212.049
L441.322 219.566
L441.842 151.656
L441.917 148.718
L441.991 153.902
L442.512 243.844
L442.586 244.341
L442.81 237.3
L442.958 219.652
L443.033 223.022
L443.182 240.864
L443.405 259.267
L443.479 261.967
L443.554 258.554
L443.851 226.867
L443.926 227.968
L444 224.75
L444.223 180.276
L444.446 199.197
L444.67 175.113
L444.744 177.381
L444.967 196.13
L445.19 226.154
L445.414 235.896
L445.488 240.367
L445.637 230.712
L445.786 237.667
L446.306 173.234
L446.678 229.999
L446.827 238.768
L447.199 190.06
L447.794 227.666
L447.943 233.822
L448.241 251.383
L448.315 249.806
L448.687 213.842
L448.762 216.758
L448.985 243.132
L449.506 156.148
L449.58 156.278
L449.878 196.519
L449.878 196.519" style="fill:none;stroke:#808080;stroke-linecap:square;"/>
   </g>
  </g>
 </g>
 <defs>
  <clipPath id="p7ff5b81e1d">
   <rect height="345.6" width="446.4" x="72.0" y="43.2"/>
  </clipPath>
 </defs>
</svg>
