<?xml version="1.0" encoding="utf-8" standalone="no"?>
<!DOCTYPE svg PUBLIC "-//W3C//DTD SVG 1.1//EN"
  "http://www.w3.org/Graphics/SVG/1.1/DTD/svg11.dtd">
<!-- Created with matplotlib (http://matplotlib.org/) -->
<svg height="432pt" version="1.1" viewBox="0 0 576 432" width="576pt" xmlns="http://www.w3.org/2000/svg" xmlns:xlink="http://www.w3.org/1999/xlink">
 <defs>
  <style type="text/css">
*{stroke-linecap:butt;stroke-linejoin:round;}
  </style>
 </defs>
 <g id="figure_1">
  <g id="patch_1">
   <path d="
M0 432
L576 432
L576 0
L0 0
z
" style="fill:#ffffff;"/>
  </g>
  <g id="axes_1">
   <g id="line2d_1">
    <path clip-path="url(#p7ff5b81e1d)" d="
M72 262.441
L72.0744 265.388
L72.1488 266.234
L72.2976 259.897
L72.6696 219.423
L72.8928 202.873
L72.9672 204.061
L73.116 210.493
L73.1904 209.932
L73.5624 167.799
L73.6368 169.967
L73.86 206.26
L74.3064 273.872
L74.3808 273.077
L74.5296 251.503
L74.9016 161.051
L75.1248 180.845
L75.2736 167.125
L75.4224 204.717
L75.6456 242.418
L75.8688 257.417
L75.9432 256.134
L76.092 237.13
L76.3896 186.634
L76.464 189.779
L76.6128 231.48
L76.7616 265.815
L76.9848 233.169
L77.0592 239.411
L77.1336 247.49
L77.208 245.693
L77.3568 206.42
L77.58 99.7198
L77.6544 110.42
L77.8032 155.824
L78.1008 286.232
L78.5472 196.285
L78.6216 193.615
L78.7704 205.275
L79.068 228.659
L79.1424 228.97
L79.6632 237.532
L79.812 230.637
L79.9608 215.504
L80.184 182.158
L80.2584 184.15
L80.7792 239.472
L80.928 228.737
L81.3 176.616
L81.3744 180.132
L81.7464 245.585
L81.8952 266.826
L81.9696 266.191
L82.2672 240.491
L82.6392 165.479
L82.7136 168.386
L82.9368 213.185
L83.0112 208.821
L83.3088 114.568
L83.3832 115.198
L83.532 160.619
L83.9784 311.309
L84.0528 315.551
L84.1272 315.201
L84.276 296.051
L84.8712 187.831
L85.0944 205.184
L85.2432 195.36
L85.5408 172.287
L85.6152 177.791
L85.8384 219.855
L86.0616 209.66
L86.2104 228.655
L86.4336 257.905
L86.8056 165.721
L86.88 170.84
L87.1032 208.977
L87.252 203.015
L87.4008 197.144
L87.4752 198.903
L87.6984 230.521
L87.9216 255.633
L88.0704 253.719
L88.2192 256.32
L88.368 253.015
L88.5912 262.07
L88.74 235.087
L88.9632 193.153
L89.2608 168.637
L89.7072 195.624
L89.9304 207.206
L90.0048 206.618
L90.3024 219.086
L90.6 207.677
L90.6744 207.858
L90.7488 207.487
L90.8976 209.638
L91.0464 217.518
L91.1952 235.342
L91.4928 285.64
L91.5672 283.316
L91.716 262.58
L92.2368 170.391
L92.3112 167.358
L92.3856 169.086
L92.9808 220.593
L93.0552 217.587
L93.3528 170.78
L93.4272 174.866
L94.0968 269.479
L94.1712 268.355
L94.32 255.935
L94.4688 263.465
L94.6176 253.81
L95.064 165.241
L95.2872 74.4306
L95.6592 296.746
L95.7336 292.167
L95.8824 244.816
L96.18 148.817
L96.4032 225.726
L96.552 216.04
L96.7008 236.396
L96.9984 277.825
L97.1472 262.459
L97.5192 154.934
L97.668 150.48
L97.8168 169.773
L98.412 245.217
L98.6352 252.976
L98.7096 251.451
L99.2304 220.771
L99.3048 220.784
L99.3792 222.205
L99.4536 221.146
L99.6768 211.038
L100.049 192.073
L100.198 194.09
L100.272 193.883
L100.421 191.312
L100.57 184.448
L100.718 190.189
L100.867 205.573
L101.388 281.907
L101.462 282.598
L101.537 279.76
L101.76 246.76
L102.058 202.985
L102.206 188.029
L102.653 133.157
L102.727 132.18
L102.876 116.386
L103.025 168.594
L103.322 300.872
L103.397 301.386
L103.62 294.37
L103.694 294.923
L103.843 298.423
L103.992 282.728
L104.736 154.558
L104.885 149.616
L105.034 157.776
L105.703 224.572
L105.778 224.836
L106.447 214.736
L106.596 214.208
L106.745 221.587
L107.266 267.219
L107.34 265.534
L107.489 251.335
L108.01 170.46
L108.233 145.767
L108.456 180.914
L108.828 253.914
L109.126 301.036
L109.274 291.355
L109.423 257.724
L110.018 74.4306
L110.167 108.891
L110.837 342.007
L111.209 288.577
L111.581 193.615
L111.655 193.447
L111.804 188.388
L111.953 158.55
L112.176 113.686
L112.25 111.505
L112.399 125.977
L112.697 206.869
L112.994 285.316
L113.292 269.522
L113.366 272.706
L113.441 271.721
L113.738 241.092
L114.11 182.059
L114.259 186.284
L114.408 197.788
L114.482 194.79
L114.706 204.134
L114.78 203.78
L114.854 202.817
L114.929 207.785
L115.226 254.173
L115.673 210.152
L115.896 154.929
L115.97 159.694
L116.268 257.84
L116.64 172.084
L116.714 178.975
L117.31 276.715
L117.384 279.734
L117.533 253.78
L117.682 231.519
L117.756 236.037
L117.83 233.186
L118.202 170.313
L118.277 180.426
L118.351 195.222
L118.426 191.122
L118.574 159.206
L118.723 202.821
L118.872 231.812
L118.946 230.262
L119.244 180.495
L119.467 248.41
L119.542 245.684
L119.69 251.81
L119.988 219.228
L120.211 160.282
L120.286 161.764
L120.583 228.413
L120.881 271.539
L120.955 272.688
L121.03 269.522
L121.402 214.61
L121.774 117.98
L121.922 143.335
L122.592 313.244
L122.666 312.251
L122.89 275.198
L123.41 161.28
L124.154 207.69
L124.378 198.626
L124.675 176.845
L124.75 180.677
L124.973 213.569
L125.27 273.712
L125.345 270.813
L125.866 219.038
L125.94 225.829
L126.163 271.561
L126.238 267.906
L126.907 137.749
L126.982 137.732
L127.205 151.188
L127.502 240.055
L127.8 301.593
L127.874 304.712
L128.023 288.633
L128.395 229.074
L128.693 128.595
L128.767 127.934
L128.916 148.035
L129.437 240.422
L129.511 247.079
L129.586 246.716
L129.734 237.372
L129.958 247.762
L130.181 228.253
L130.404 202.095
L130.553 205.521
L130.925 180.137
L131.074 159.293
L131.148 171.082
L131.371 228.166
L131.669 262.355
L131.743 259.011
L131.818 256.959
L131.966 266.995
L132.115 237.273
L132.264 214.736
L132.487 209.901
L132.636 214.226
L132.859 199.801
L133.082 209.837
L133.306 195.766
L133.38 195.939
L133.454 194.514
L133.529 196.596
L133.752 220.615
L133.975 249.581
L134.422 166.667
L134.496 151.219
L134.57 153.798
L134.868 232.167
L134.942 234.327
L135.314 270.07
L135.761 201.197
L135.835 206.221
L136.133 259.072
L136.356 232.072
L136.802 131.532
L136.877 137.524
L137.174 212.368
L137.249 208.804
L137.323 209.331
L137.546 240.137
L137.621 238.686
L137.918 222.745
L138.216 266.537
L138.29 262.433
L138.514 205.923
L138.737 283.622
L138.811 267.185
L139.183 171
L139.481 133.619
L139.63 171.151
L139.853 218.641
L139.927 218.999
L140.002 221.552
L140.374 259.391
L140.522 254.708
L140.671 238.107
L140.82 219.164
L140.894 218.783
L141.043 208.018
L141.266 178.581
L141.341 180.871
L141.49 215.936
L141.564 213.556
L141.787 194.198
L141.936 213.694
L142.159 263.063
L142.234 265.409
L142.308 261.608
L142.903 183.964
L142.978 184.785
L143.052 187.282
L143.35 206.51
L143.424 206.895
L143.647 201.555
L143.722 208.489
L143.945 275.47
L144.019 274.097
L144.54 180.266
L144.614 182.323
L144.912 229.989
L145.061 229.458
L145.21 226.438
L145.358 223.155
L145.507 227.713
L145.656 218.239
L145.879 204.895
L145.954 205.18
L146.177 215.936
L146.251 213.88
L146.4 206.735
L146.474 208.662
L146.698 218.278
L146.995 210.174
L147.218 202.078
L147.367 214.26
L147.516 227.406
L147.59 227.419
L147.814 241.913
L147.962 229.445
L148.037 229.786
L148.186 215.094
L148.409 184.28
L148.483 186.154
L148.632 203.313
L148.706 202.1
L148.781 197.231
L149.004 229.605
L149.153 221.552
L149.45 246.6
L149.599 232.499
L149.971 185.213
L150.046 186.37
L150.12 185.286
L150.194 178.223
L150.269 182.927
L150.715 261.353
L150.79 258.536
L150.938 243.606
L151.162 213.111
L151.236 217.232
L151.385 230.149
L151.682 163.69
L151.831 170.149
L152.129 230.793
L152.278 236.266
L152.352 235.286
L152.426 234.292
L152.575 235.947
L152.65 234.24
L153.022 214.239
L153.096 213.254
L153.17 213.725
L153.245 212.792
L153.691 195.771
L153.766 195.058
L153.84 199.179
L154.212 239.537
L154.361 244.081
L154.51 241.822
L154.658 227.821
L154.882 201.335
L154.956 199.788
L155.179 205.495
L155.254 203.754
L155.477 184.34
L155.551 185.118
L155.774 223.496
L155.998 246.812
L156.444 225.142
L156.816 192.691
L156.89 193.606
L157.114 210.558
L157.337 221.332
L157.411 219.967
L157.486 220.369
L157.709 223.553
L157.858 221.609
L158.081 210.813
L158.155 211.746
L158.378 227.622
L158.453 227.017
L158.75 197.944
L158.899 207.042
L159.346 245.896
L159.42 245.075
L159.494 242.396
L159.718 211.051
L160.015 184.133
L160.09 182.426
L160.164 183.04
L160.759 204.873
L161.28 263.431
L161.354 261.638
L161.503 248.228
L162.024 185.537
L162.173 180.767
L162.247 182.979
L162.47 210.109
L162.842 249.321
L162.917 251.287
L163.066 247.861
L163.289 230.586
L163.81 183.385
L163.958 184.647
L164.107 188.353
L164.851 223.354
L165.223 239.329
L165.298 238.098
L165.446 226.918
L165.744 201.404
L165.818 205.534
L166.042 234.4
L166.116 232.854
L166.339 212.23
L166.562 210.027
L166.711 208.42
L167.009 229.566
L167.232 220.174
L167.53 198.682
L167.604 198.877
L167.753 204.35
L167.976 212.161
L168.125 208.692
L168.199 209.219
L168.72 230.132
L168.943 227.691
L169.687 196.345
L169.762 197.771
L170.431 231.929
L170.506 231.549
L170.654 227.929
L171.026 212.861
L171.324 223.129
L171.398 222.512
L171.473 220.65
L171.547 221.423
L171.696 230.948
L171.77 227.052
L171.994 192.591
L172.068 195.723
L172.217 201.184
L172.44 193.412
L172.663 209.102
L172.961 238.699
L173.035 238.452
L173.333 226.568
L173.63 217.353
L173.779 218.027
L173.928 216.744
L174.077 212.93
L174.151 213.31
L174.226 214.757
L174.3 214.144
L174.449 206.998
L174.821 179.13
L174.895 181.368
L175.118 227.086
L175.342 248.315
L175.416 249.144
L175.49 248.505
L175.639 241.295
L176.234 193.628
L176.309 195.166
L176.458 201.184
L176.532 201.058
L176.681 207.932
L177.053 234.417
L177.127 231.908
L177.425 207.05
L177.722 218.74
L177.871 235.044
L177.946 232.016
L178.541 164.325
L178.69 193.844
L178.987 261.763
L179.062 264.644
L179.136 263.789
L179.285 250.039
L179.731 203.266
L179.88 193.779
L179.954 194.082
L180.326 202.389
L180.55 217.613
L180.624 217.198
L180.773 213.042
L181.07 240.116
L181.442 203.931
L181.591 209.456
L181.814 218.809
L182.112 208.899
L182.484 215.284
L182.93 226.736
L183.005 226.499
L183.526 207.655
L183.6 207.033
L184.27 222.9
L184.344 222.918
L184.642 218.701
L184.716 218.762
L184.939 221.311
L185.162 216.887
L185.609 208.022
L185.683 208.472
L186.278 222.602
L186.353 222.291
L186.502 217.66
L186.725 209.962
L186.799 209.677
L187.097 204.458
L187.246 204.203
L187.32 204.886
L187.543 213.923
L187.915 230.283
L188.064 233.653
L188.213 230.223
L188.808 212.515
L189.031 211.206
L189.254 212.355
L189.329 212.407
L189.478 213.846
L189.85 210.45
L189.998 213.055
L190.222 217.842
L190.296 217.708
L190.445 214.628
L190.594 210.549
L190.891 217.937
L191.04 217.578
L191.189 220.028
L191.338 218.468
L191.412 217.855
L191.486 216.256
L191.561 216.74
L191.933 228.387
L192.082 222.905
L192.305 215.98
L192.454 213.517
L192.602 207.435
L192.826 191.619
L192.9 192.107
L193.049 195.3
L193.123 194.371
L193.198 194.574
L193.942 244.63
L194.388 224.823
L194.462 224.918
L194.611 227.497
L194.686 225.544
L195.058 202.54
L195.132 202.739
L195.206 202.419
L195.281 201.581
L195.43 197.905
L195.504 198.039
L195.578 198.86
L195.727 205.456
L195.95 213.876
L196.025 214.304
L196.099 214.243
L196.248 210.679
L196.397 216.675
L196.769 238.228
L196.843 237.394
L196.992 232.508
L197.662 198.682
L197.81 201.814
L198.257 222.576
L198.331 222.196
L198.703 217.25
L198.926 217.811
L199.15 214.325
L199.522 203.508
L199.596 205.219
L199.819 220.382
L200.117 232.892
L200.191 233.359
L200.34 230.75
L200.563 218.222
L200.786 207.577
L200.861 208.644
L201.084 215.967
L201.307 218.788
L201.382 218.498
L201.53 214.036
L201.977 201.14
L202.051 201.188
L202.349 208.273
L202.944 232.314
L203.018 231.627
L203.242 224.637
L203.614 209.629
L203.688 208.973
L203.762 209.53
L204.209 222.572
L204.358 218.304
L204.655 210.61
L204.73 210.174
L204.804 210.441
L205.102 215.816
L205.176 215.807
L205.25 215.215
L205.474 219.561
L205.622 223.574
L205.697 222.602
L206.143 210.074
L206.441 214.485
L206.515 215.34
L206.59 215.124
L206.738 212.904
L206.962 209.124
L207.11 210.692
L207.78 222.728
L207.854 222.956
L208.078 227.769
L208.152 227.557
L208.226 227.359
L208.301 228.801
L208.375 228.184
L208.747 210.394
L208.97 202.821
L209.119 200.22
L209.566 202.838
L209.64 202.76
L209.714 202.363
L209.863 209.331
L210.384 239.031
L210.458 240.116
L210.607 237.411
L210.83 227.596
L211.202 208.925
L211.5 192.544
L211.574 192.816
L211.723 195.715
L211.872 205.979
L212.244 236.279
L212.318 237.96
L212.393 237.727
L213.286 196.617
L213.434 191.455
L213.583 196.039
L213.955 226.244
L214.178 237.679
L214.253 238.245
L214.327 237.416
L214.625 219.742
L214.699 220.097
L214.848 224.944
L214.922 224.931
L215.071 214.131
L215.369 184.595
L215.518 191.066
L215.89 225.397
L215.964 227.315
L216.187 216.459
L216.262 218.658
L216.485 227.765
L216.559 228.045
L216.634 229.173
L216.708 227.929
L216.931 220.015
L217.006 220.118
L217.154 222.52
L217.229 221.898
L217.378 210.947
L217.675 190.099
L217.973 194.937
L218.122 202.087
L218.717 246.008
L218.791 245.714
L218.866 244.846
L219.089 232.508
L219.386 213.535
L219.684 204.501
L219.833 204.074
L219.907 204.061
L220.13 207.91
L220.354 210.848
L220.502 210.774
L220.651 214.442
L221.023 224.451
L221.098 225.32
L221.246 222.162
L221.544 209.145
L221.767 211.971
L221.99 205.154
L222.288 196.79
L222.437 205.88
L222.958 247.062
L223.106 249.615
L223.33 243.999
L223.553 221.509
L223.925 184.046
L224.074 182.323
L224.222 188.479
L224.594 207.789
L224.743 210.26
L224.818 210.178
L224.892 210.428
L224.966 211.094
L225.115 216.39
L225.562 247.11
L225.636 246.405
L225.859 235.243
L226.306 211.357
L226.529 214.463
L226.826 220.719
L227.422 194.997
L227.496 195.114
L227.645 195.101
L227.794 199.689
L228.389 231.908
L228.538 228.149
L228.761 222.9
L229.058 222.11
L229.282 221.177
L229.505 213.962
L229.654 214.005
L229.728 213.781
L230.1 210.217
L230.249 211.271
L230.398 210.221
L230.546 211.759
L230.77 219.375
L230.993 225.371
L231.514 213.919
L231.588 213.668
L231.662 213.729
L231.737 213.725
L231.886 212.377
L232.183 215.379
L232.258 214.615
L232.406 212.044
L232.481 211.971
L232.555 212.239
L232.853 216.2
L232.927 215.928
L233.076 214.031
L233.374 223.449
L233.597 231.372
L233.746 226.685
L234.192 207.776
L234.266 207.824
L234.564 212.226
L234.638 212.506
L234.936 205.992
L235.01 206.389
L235.382 214.571
L235.531 211.815
L235.606 212.394
L235.754 219.509
L236.052 233.869
L236.126 234.279
L236.275 231.117
L236.573 215.984
L236.796 202.946
L236.87 203.097
L237.094 207.361
L237.242 209.34
L237.763 221.712
L237.838 220.758
L238.135 213.703
L238.21 213.599
L238.582 216.999
L238.656 216.891
L238.805 215.358
L238.879 215.496
L239.028 213.677
L239.102 214.057
L239.177 212.109
L239.251 212.295
L239.623 223.164
L239.698 222.434
L240.367 210.856
L240.442 211.115
L240.665 217.556
L240.962 224.589
L241.037 225.25
L241.26 219.76
L241.409 221.38
L241.632 215.686
L241.706 214.329
L242.153 197.08
L242.227 197.404
L242.45 205.538
L242.897 229.182
L243.046 232.257
L243.194 229.942
L243.343 231.139
L243.418 230.396
L243.566 222.948
L243.715 218.196
L243.79 218.04
L244.013 213.193
L244.385 200.795
L244.459 202.445
L244.608 206.208
L244.757 203.495
L244.98 213.431
L245.203 220.503
L245.426 222.118
L245.501 222.071
L245.65 222.425
L245.873 217.245
L246.17 206.156
L246.319 207.919
L247.138 227.855
L247.286 230.352
L247.435 228.46
L248.105 202.195
L248.179 202.894
L248.477 213.781
L248.626 224.002
L248.774 222.68
L248.849 224.119
L248.923 223.259
L249.072 216.999
L249.221 219.388
L249.295 219.12
L249.816 199.166
L249.965 199.784
L250.114 198.497
L250.262 204.709
L250.932 234.487
L251.006 235.338
L251.155 231.471
L251.676 205.128
L251.75 208.584
L251.974 215.686
L252.271 228.534
L252.346 227.095
L252.494 219.812
L252.569 221.082
L252.643 221.012
L252.866 214.04
L253.015 215.513
L253.164 209.815
L253.387 199.633
L253.462 200.462
L253.536 202.877
L253.61 202.838
L253.685 201.875
L253.834 203.361
L253.982 198.553
L254.578 236.137
L254.652 236.137
L254.95 223.76
L255.173 213.163
L255.247 213.971
L255.545 217.211
L255.619 217.198
L255.768 212.213
L255.991 222.55
L256.289 205.076
L256.512 181.865
L256.661 172.935
L256.884 192.172
L257.33 256.38
L257.405 257.223
L257.554 263.966
L257.628 270.74
L258 242.401
L258.372 199.706
L258.67 183.178
L258.893 190.837
L258.967 189.965
L259.116 191.554
L259.488 152.843
L259.562 154.199
L259.786 203.473
L260.232 291.619
L260.455 300.6
L260.604 281.942
L261.199 164.74
L261.274 165.686
L261.497 212.23
L261.571 200.873
L261.72 176.11
L261.869 199.041
L262.018 232.193
L262.092 231.843
L262.315 222.46
L262.613 177.156
L262.762 196.064
L263.134 255.68
L263.282 264.848
L263.357 264.502
L263.506 245.183
L263.729 186.522
L263.952 123.787
L264.026 129.48
L264.622 283.665
L264.696 283.16
L264.77 279.803
L264.919 244.885
L265.068 221.643
L265.142 222.265
L265.291 209.984
L265.589 180.815
L265.812 164.827
L266.407 208.739
L266.482 209.456
L266.556 207.716
L266.63 209.163
L266.779 225.311
L267.151 274.3
L267.226 271.729
L267.449 242.288
L267.746 199.702
L267.97 213.077
L268.044 212.1
L268.416 174.469
L268.49 174.65
L268.639 184.491
L269.16 238.375
L269.234 237.416
L269.532 226.434
L269.606 225.354
L270.127 237.26
L270.202 236.802
L270.425 217.95
L270.871 155.876
L271.392 209.089
L271.69 223.678
L272.062 264.545
L272.136 265.794
L272.21 265.128
L272.508 250.833
L273.252 182.815
L273.475 174.974
L273.55 176.093
L273.773 196.704
L274.07 220.015
L274.145 221.622
L274.294 214.515
L274.666 193.464
L274.74 193.987
L274.889 202.92
L275.484 257.24
L275.558 257.663
L275.782 247.118
L276.079 222.749
L276.451 210.342
L276.6 200.51
L276.674 201.313
L277.046 217.388
L277.121 215.466
L277.195 214.23
L277.344 201.248
L277.493 186.314
L277.567 187.001
L277.79 210.748
L277.939 223.725
L278.088 206.605
L278.311 171.531
L278.386 170.144
L278.46 174.002
L278.906 251.736
L279.204 300.492
L279.278 298.764
L279.427 284.404
L280.32 130.569
L280.543 138.28
L280.618 143.672
L281.138 237.809
L281.287 243.839
L281.362 243.511
L281.51 248.686
L281.659 262.726
L281.808 296.669
L281.882 296.405
L282.031 264.26
L282.329 193.369
L282.85 131.58
L282.998 153.461
L283.222 210.286
L283.519 338.331
L283.594 326.261
L283.817 245.3
L283.891 249.067
L284.486 161.051
L284.561 160.71
L284.858 191.066
L285.007 225.324
L285.082 224.814
L285.528 179.147
L285.826 286.759
L285.9 277.319
L286.57 166.408
L286.718 178.361
L286.793 177.955
L286.867 179.489
L287.016 198.955
L287.314 275.241
L287.537 263.828
L287.686 276.956
L287.76 271.988
L287.909 228.979
L288.206 124.305
L288.281 125.579
L288.43 159.185
L288.802 281.436
L288.876 269.893
L289.025 250.026
L289.099 252.22
L289.248 276.559
L289.397 242.816
L289.843 116.183
L289.992 113.185
L290.141 149.845
L290.587 317.491
L290.736 310.856
L291.406 190.924
L291.703 128.876
L291.778 130.236
L292.224 197.071
L292.447 261.871
L292.522 261.858
L292.745 255.223
L292.819 253.866
L292.968 259.905
L293.042 259.059
L293.191 250.056
L293.712 185.597
L293.786 185.809
L294.233 222.931
L294.307 222.464
L294.53 186.694
L294.605 191.632
L294.679 190.794
L294.828 156.571
L294.902 158.861
L295.349 214.662
L295.646 305.468
L295.795 286.175
L296.167 229.89
L296.39 262.973
L296.539 224.408
L296.762 127.554
L296.986 169.095
L297.06 163.669
L297.283 212.709
L297.358 209.353
L297.506 212.446
L297.73 148.03
L297.804 153.292
L298.325 306.168
L298.474 255.646
L298.697 180.854
L298.846 199.996
L298.994 211.288
L299.143 197.849
L299.366 270.692
L299.441 268.848
L299.59 236.556
L299.887 157.258
L299.962 162.416
L300.482 255.944
L300.631 243.191
L301.226 158.964
L301.301 163.535
L301.524 218.852
L301.747 270.74
L301.896 263.102
L302.045 269.816
L302.194 254.842
L302.491 211.094
L302.714 120.236
L302.789 120.331
L303.161 236.081
L303.235 238.016
L303.458 205.167
L303.756 247.248
L303.83 242.729
L303.979 239.925
L304.202 207.439
L304.426 231.679
L304.5 229.316
L304.798 179.532
L305.021 204.234
L305.318 282.914
L305.467 235.014
L305.69 172.659
L305.765 170.974
L306.062 205.517
L306.137 205.132
L306.286 219.021
L306.509 237.061
L306.583 234.43
L306.806 210.96
L306.955 178.793
L307.03 179.48
L307.253 198.942
L307.625 251.87
L307.774 299.109
L307.848 294.275
L308.22 171.082
L308.294 164.079
L308.369 164.645
L308.443 173.562
L308.666 229.484
L308.815 217.824
L309.187 261.819
L309.262 257.573
L309.41 216.688
L309.634 149.361
L310.08 192.259
L310.378 248.768
L310.526 243.649
L310.601 244.889
L310.75 270.33
L310.824 266.93
L311.345 171.186
L311.419 179.096
L311.642 239.653
L312.089 179.934
L312.163 184.128
L312.238 183.619
L312.312 184.677
L312.61 206.644
L312.758 245.801
L312.907 283.968
L313.428 222.922
L313.651 187.61
L313.949 159.591
L314.098 144.786
L314.246 187.278
L314.544 279.298
L314.618 286.132
L314.693 283.48
L314.99 236.033
L315.065 236.798
L315.139 236.564
L315.288 230.767
L315.734 175.337
L315.809 177.644
L316.032 191.334
L316.33 216.606
L316.404 216.39
L316.478 218.079
L316.553 217.768
L316.627 217.28
L316.85 227.994
L316.925 227.531
L317.222 193.49
L317.297 195.244
L317.52 206.605
L317.594 205.098
L317.669 205.672
L318.041 270.818
L318.115 267.262
L318.19 260.744
L318.264 262.437
L318.338 266.813
L318.413 263.634
L318.785 187.39
L318.859 188.561
L318.934 192.168
L319.082 186.802
L319.231 189.852
L319.38 185.787
L319.454 185.921
L319.529 187.083
L319.678 183.524
L319.975 220.801
L320.273 255.663
L320.496 242.587
L320.942 212.131
L321.314 197.503
L321.612 176.296
L321.686 175.709
L321.761 178.279
L321.91 197.741
L322.282 284.331
L322.356 277.721
L322.505 261.785
L322.579 263.668
L322.654 263.508
L322.951 231.895
L323.323 148.959
L323.77 190.375
L323.844 190.919
L323.918 188.176
L324.067 178.443
L324.216 189.887
L324.439 238.478
L324.662 269.582
L324.737 271.811
L325.109 247.658
L325.63 183.096
L325.704 183.035
L325.927 174.659
L326.002 175.54
L326.15 185.813
L326.374 237.467
L326.597 267.422
L326.746 257.141
L327.266 209.124
L327.341 206.45
L327.415 206.463
L327.713 216.403
L327.787 215.919
L328.01 202.268
L328.234 187.2
L328.308 188.228
L328.531 196.89
L328.754 190.63
L328.829 188.915
L328.903 190.513
L329.052 210.208
L329.35 278.434
L329.424 278.058
L329.573 262.67
L329.945 192.729
L330.019 192.824
L330.614 219.526
L330.689 218.222
L330.763 214.792
L330.838 216.334
L331.061 225.069
L331.21 230.862
L331.284 228.711
L331.433 208.964
L331.656 184.651
L331.73 184.85
L331.954 194.406
L332.326 266.165
L332.4 260.42
L332.846 182.072
L333.07 198.168
L333.144 192.812
L333.218 184.219
L333.293 187.723
L333.59 269.625
L333.739 241.148
L333.888 223.579
L334.111 235.014
L334.26 211.841
L334.558 171.104
L334.632 171.242
L334.781 168.373
L334.855 171.695
L335.078 206.648
L335.153 205.24
L335.227 201.624
L335.376 235.472
L335.599 268.295
L335.748 274.935
L336.12 248.721
L336.269 214.649
L336.492 165.302
L336.566 167.012
L336.864 192.561
L337.087 203.72
L337.236 203.357
L337.385 192.682
L337.682 227.143
L337.757 223.393
L337.831 214.347
L337.906 224.788
L338.054 282.538
L338.129 274.161
L338.352 193.727
L338.426 198.436
L338.575 231.722
L338.724 198.609
L338.798 186.98
L338.947 196.397
L339.022 195.209
L339.17 181.441
L339.542 262.234
L339.691 312.035
L339.84 289.463
L340.063 223.432
L340.286 109.695
L340.584 150.497
L340.658 154.921
L341.03 253.883
L341.254 241.761
L341.328 242.193
L341.477 220.369
L341.7 185.485
L341.923 205.849
L341.998 196.06
L342.072 196.998
L342.444 301.568
L342.667 280.171
L343.188 139.032
L343.262 143.006
L343.56 190.932
L343.709 199.477
L343.783 205.806
L343.858 205.499
L343.932 203.918
L344.081 207.832
L344.23 222.853
L344.304 233.692
L344.378 232.244
L344.602 201.352
L344.676 201.456
L344.825 187.727
L344.899 187.904
L345.346 274.771
L345.42 278.913
L345.494 278.283
L345.643 259.357
L346.015 186.509
L346.164 176.011
L346.313 180.793
L346.387 180.452
L346.462 183.511
L346.982 268.217
L347.057 271.315
L347.206 250.838
L347.503 194.803
L347.652 190.937
L348.024 169.341
L348.098 172.806
L348.47 267.91
L348.545 262.765
L348.842 200.868
L348.991 210.744
L349.14 220.58
L349.512 196.082
L349.586 197.378
L349.81 206.445
L349.884 208.247
L350.256 230.413
L350.33 230.75
L350.405 228.331
L350.628 234.448
L350.777 232.422
L350.926 234.711
L351 234.379
L351.149 215.129
L351.372 185.463
L351.446 187.286
L351.967 244.159
L352.116 234.979
L352.488 194.449
L352.86 102.826
L353.083 204.942
L353.381 344.163
L353.455 348.677
L353.604 297.813
L353.902 184.046
L354.05 202.121
L354.199 218.282
L354.794 176.853
L354.869 178.102
L355.687 230.542
L355.762 231.99
L355.91 228.659
L356.134 237.295
L356.208 236.297
L356.431 220.749
L356.58 221.423
L356.654 219.751
L356.729 220.019
L356.878 225.466
L357.25 204.048
L357.398 208.415
L357.622 220.304
L357.77 222.797
L357.994 229.834
L358.142 228.585
L358.514 207.495
L359.035 182.53
L359.11 182.452
L360.077 254.752
L360.523 218.55
L360.821 211.064
L360.97 204.825
L361.044 204.722
L361.193 208.26
L361.49 220.226
L361.639 216.489
L361.714 217.518
L362.086 233.45
L362.16 234.167
L362.309 226.637
L362.606 192.293
L362.83 168.162
L362.904 167.09
L363.053 179.839
L363.797 283.411
L363.871 284.257
L363.946 281.873
L364.094 262.446
L364.764 128.953
L364.838 130.366
L364.987 154.104
L365.359 229.614
L365.582 252.186
L365.806 315.573
L365.954 264.472
L366.252 174.344
L366.401 183.428
L366.55 170.019
L366.624 174.516
L367.07 277.54
L367.145 276.421
L367.294 256.743
L367.591 209.526
L367.814 197.335
L368.038 193.451
L368.335 178.37
L368.41 175.691
L368.484 176.797
L368.707 185.338
L369.302 270.93
L369.451 261.361
L369.749 217.358
L370.046 181.294
L370.195 176.456
L370.27 177.303
L370.418 186.029
L370.642 199.4
L370.79 205.314
L371.162 224.784
L371.46 220.442
L371.534 221.475
L371.832 233.519
L371.906 234.409
L371.981 234.188
L372.055 233.13
L372.353 215.206
L372.427 215.876
L372.502 217.798
L372.65 211.85
L372.725 214.321
L373.171 238.832
L373.246 239.908
L373.32 238.465
L373.692 219.328
L374.138 177.126
L374.287 170.071
L374.362 170.827
L374.51 182.474
L374.659 199.33
L374.808 195.55
L374.882 197.607
L375.031 200.981
L375.329 248.617
L375.552 294.573
L375.626 296.124
L375.701 292.21
L375.924 238.824
L376.296 167.332
L376.37 167.514
L376.891 203.538
L377.412 271.328
L377.486 271.068
L377.635 266.969
L377.784 245.118
L378.379 140.168
L378.454 140.531
L378.528 142.79
L379.049 214.109
L379.421 257.953
L379.57 262.238
L379.793 250.872
L380.165 224.326
L380.314 226.896
L380.462 232.352
L380.686 221.293
L380.983 189.343
L381.058 186.872
L381.132 187.537
L381.355 193.904
L381.578 209.452
L381.876 223.103
L382.322 258.717
L382.62 237.921
L383.066 174.724
L383.141 173.268
L383.215 173.622
L383.513 177.225
L383.587 176.27
L383.662 176.681
L383.81 190.747
L384.257 266.839
L384.331 265.055
L385.15 198.488
L385.224 199.84
L385.596 233.333
L385.67 235.796
L385.968 220.688
L386.414 168.287
L386.489 167.237
L386.563 171.19
L386.712 195.27
L387.084 276.343
L387.158 284.918
L387.233 280.931
L387.902 171.41
L387.977 169.138
L388.126 188.085
L388.498 230.028
L388.572 230.624
L389.018 213.34
L389.167 217.535
L389.242 216.161
L389.316 208.523
L389.39 211.15
L389.688 240.548
L389.762 246.488
L389.837 244.893
L390.283 186.008
L390.432 172.698
L390.506 171.678
L390.581 177.717
L390.953 252.579
L391.102 246.531
L391.399 224.257
L391.548 205.556
L391.771 179.355
L391.846 178.828
L392.515 249.278
L392.813 226.378
L392.962 218.956
L393.036 220.019
L393.11 219.107
L393.334 207.819
L393.78 187.001
L393.854 187.977
L394.003 226.758
L394.152 265.729
L394.226 261.279
L394.45 230.084
L394.524 236.003
L394.598 232.365
L394.896 166.529
L394.97 168.213
L395.342 206.381
L395.566 166.701
L395.64 167.548
L395.789 202.385
L396.086 294.388
L396.235 269.543
L396.533 204.994
L396.682 206.843
L396.979 250.907
L397.054 247.758
L397.202 222.213
L397.426 166.183
L397.5 170.49
L397.872 220.118
L397.946 218.844
L398.095 230.659
L398.17 230.011
L398.318 213.18
L398.393 216.775
L398.542 230.745
L398.839 213.025
L398.914 215.824
L399.137 240.258
L399.286 231.882
L399.881 169.337
L399.955 168.624
L400.327 225.121
L400.402 224.188
L400.55 207.888
L400.922 239.377
L400.997 255.819
L401.071 255.572
L401.22 208.592
L401.294 214.619
L401.369 210.29
L401.443 211.254
L401.592 241.412
L401.666 237.744
L401.815 191.399
L402.113 263.18
L402.336 178.011
L402.41 175.173
L402.634 240.776
L402.782 238.15
L402.931 253.832
L403.006 252.79
L403.154 232.832
L403.452 167.527
L403.526 162.127
L403.675 175.566
L403.75 175.436
L403.824 166.079
L403.973 201.624
L404.122 226.088
L404.345 204.566
L404.419 209.292
L404.717 270.109
L405.089 200.246
L405.163 204.324
L405.312 228.922
L405.386 223.047
L405.61 204.277
L405.684 201.849
L405.982 217.868
L406.13 228.469
L406.279 218.049
L406.428 229.955
L406.502 227.713
L406.726 217.664
L406.874 217.47
L407.098 202.955
L407.172 204.54
L407.544 233.476
L407.618 230.568
L407.767 213.224
L407.842 213.703
L407.916 216.036
L407.99 214.278
L408.065 214.645
L408.214 229.691
L408.288 229.519
L408.511 195.766
L408.586 195.939
L408.66 208.342
L408.883 183.588
L408.958 185.986
L409.106 187.649
L409.404 232.167
L409.702 206.778
L409.85 195.019
L409.999 210.688
L410.222 250.108
L410.297 249.036
L410.52 214.334
L410.594 216.416
L410.892 261.214
L410.966 260.873
L411.115 235.489
L411.264 211.82
L411.413 226.304
L411.487 224.931
L411.785 167.285
L411.934 164.783
L412.082 186.643
L412.306 209.621
L412.38 209.344
L412.529 211.219
L412.678 221.509
L412.901 253.965
L412.975 251.888
L413.05 250.185
L413.198 232.953
L413.347 213.211
L413.496 218.131
L413.645 212.156
L413.794 217.379
L413.868 216.325
L414.24 199.888
L414.314 197.192
L414.389 197.378
L414.612 217.397
L414.686 217.155
L414.761 217.565
L414.91 211.716
L414.984 212.221
L415.058 214.196
L415.133 213.599
L415.207 213.128
L415.43 219.57
L415.505 218.036
L415.579 218.615
L415.728 220.844
L415.802 219.526
L416.026 209.366
L416.1 213.327
L416.174 212.161
L416.398 207.379
L416.77 231.985
L417.142 254.393
L417.216 249.473
L417.29 251.33
L417.365 251.058
L417.514 242.556
L417.737 217.159
L417.811 214.692
L418.332 178.962
L418.555 170.11
L418.63 170.132
L418.778 173.596
L418.853 173.026
L419.15 190.189
L419.448 226.736
L419.671 247.809
L419.82 244.397
L420.118 236.068
L420.192 234.115
L420.415 241.075
L420.49 241.826
L420.564 241.52
L420.638 240.776
L420.862 231.804
L420.936 229.285
L421.01 230.776
L421.159 238.392
L421.606 208.873
L421.754 196.829
L421.978 186.742
L422.201 193.46
L422.498 205.551
L422.647 208.208
L422.722 208.113
L422.796 206.307
L422.87 207.508
L422.945 211.102
L423.019 211.016
L423.094 211.379
L423.391 224.866
L423.54 224.067
L423.614 220.788
L423.986 169.635
L424.135 182.158
L424.656 265.707
L424.73 267.31
L424.954 284.542
L425.028 282.655
L425.251 254.13
L425.772 150.26
L425.846 153.266
L426.07 173.13
L426.293 202.743
L426.367 202.233
L426.665 208.895
L427.037 239.865
L427.111 245.062
L427.186 244.621
L427.409 234.353
L427.483 233.627
L427.632 239.04
L427.93 225.419
L428.004 226.607
L428.078 224.697
L428.227 209.871
L428.45 233.212
L428.599 222.749
L428.971 142.985
L429.046 149.426
L429.492 217.984
L429.79 256.709
L429.864 257.56
L429.938 256.475
L430.385 212.865
L430.459 211.712
L430.608 219.038
L431.054 256.182
L431.203 241.852
L431.724 167.959
L431.798 168.14
L432.468 217.5
L432.766 230.884
L433.138 271.859
L433.212 268.602
L434.179 149.283
L434.328 165.004
L434.923 257.192
L435.146 269.543
L435.221 269.6
L435.295 269.893
L435.518 259.439
L435.742 232.236
L436.411 154.653
L436.486 152.458
L436.858 177.488
L437.304 223.976
L437.527 231.73
L437.676 239.696
L437.974 260.238
L438.048 256.912
L438.197 261.171
L438.643 237.74
L439.015 198.402
L439.313 186.716
L439.462 172.43
L439.536 171.95
L439.61 172.045
L439.685 173.458
L439.982 189.896
L440.652 264.558
L440.726 263.547
L441.024 247.943
L441.694 190.124
L441.917 182.811
L442.14 189.926
L442.586 213.599
L442.661 212.126
L442.81 203.832
L442.884 204.709
L442.958 203.832
L443.182 198.294
L443.405 205.832
L443.554 215.003
L443.777 241.338
L443.851 238.245
L443.926 240.841
L444.074 248.743
L444.298 239.601
L444.446 244.306
L444.595 238.007
L444.744 239.519
L444.893 231.251
L445.042 239.364
L445.414 223.108
L446.381 158.96
L446.604 174.633
L447.125 244.332
L447.274 248.444
L447.497 239.943
L447.646 243.675
L448.018 234.672
L448.166 231.16
L448.39 228.136
L448.762 195.088
L448.985 163.362
L449.059 164.701
L449.431 197.823
L449.878 248.462
L449.878 248.462" style="fill:none;stroke:#808080;stroke-linecap:square;"/>
   </g>
  </g>
 </g>
 <defs>
  <clipPath id="p7ff5b81e1d">
   <rect height="345.6" width="446.4" x="72.0" y="43.2"/>
  </clipPath>
 </defs>
</svg>
