<?xml version="1.0" encoding="utf-8" standalone="no"?>
<!DOCTYPE svg PUBLIC "-//W3C//DTD SVG 1.1//EN"
  "http://www.w3.org/Graphics/SVG/1.1/DTD/svg11.dtd">
<!-- Created with matplotlib (http://matplotlib.org/) -->
<svg height="432pt" version="1.1" viewBox="0 0 576 432" width="576pt" xmlns="http://www.w3.org/2000/svg" xmlns:xlink="http://www.w3.org/1999/xlink">
 <defs>
  <style type="text/css">
*{stroke-linecap:butt;stroke-linejoin:round;}
  </style>
 </defs>
 <g id="figure_1">
  <g id="patch_1">
   <path d="
M0 432
L576 432
L576 0
L0 0
z
" style="fill:#ffffff;"/>
  </g>
  <g id="axes_1">
   <g id="line2d_1">
    <path clip-path="url(#p7ff5b81e1d)" d="
M72 197.495
L72.2232 208.715
L72.4464 200.271
L72.744 218.312
L72.9672 212.978
L73.3392 233.887
L73.4136 232.527
L73.488 232.343
L73.5624 233.495
L73.7856 241.559
L74.3808 183.498
L74.6784 213.865
L74.9016 204.557
L74.976 204.741
L75.2736 216.146
L75.348 216.768
L75.6456 225.339
L75.72 225.258
L75.7944 223.242
L75.9432 230.051
L76.0176 232.988
L76.3896 222.678
L76.464 223.012
L76.5384 224.014
L76.6872 231.041
L76.7616 228.622
L77.208 188.026
L77.3568 194.765
L77.6544 232.758
L77.7288 229.97
L77.8032 231.928
L77.8776 237.239
L77.952 237.158
L78.2496 218.669
L78.5472 192.887
L79.068 211.619
L79.2168 208.531
L79.5144 227.666
L79.6632 223.288
L79.8864 234.071
L80.1096 220.835
L80.184 224.267
L80.2584 222.724
L80.556 207.471
L80.7048 199.926
L80.7792 203.209
L80.928 219.994
L81.0768 207.46
L81.1512 202.022
L81.8952 240.545
L81.9696 239.485
L82.1184 229.832
L82.3416 205.524
L82.4904 193.267
L82.6392 196.527
L82.7136 195.825
L82.788 196.493
L82.8624 200.179
L82.9368 198.82
L83.0112 194.799
L83.0856 194.972
L83.3088 199.903
L83.3832 201.366
L83.6064 232.643
L83.6808 229.002
L83.7552 222.943
L83.8296 225.754
L83.9784 236.87
L84.3504 226.595
L84.4992 228.726
L84.5736 228.253
L84.7224 231.721
L84.9456 215.363
L85.02 215.651
L85.1688 222.205
L85.4664 204.119
L85.5408 204.626
L85.6896 218.991
L85.764 217.355
L85.9128 211.492
L86.136 230.108
L86.2104 226.767
L86.4336 204.557
L86.5824 212.817
L86.6568 211.066
L86.9544 198.152
L87.1032 205.939
L87.1776 202.875
L87.3264 184.189
L87.4008 184.996
L87.8472 220.489
L88.2192 239.773
L88.2936 238.368
L88.5168 228.461
L88.5912 228.634
L88.74 226.168
L88.8144 226.226
L88.8888 228.714
L89.0376 238.126
L89.5584 202.944
L89.7072 206.031
L89.9304 201.458
L90.0792 205.421
L90.1536 207.771
L90.3768 202.518
L90.4512 203.785
L90.6744 213.646
L90.7488 211.653
L90.8232 212.713
L91.0464 222.862
L91.1208 221.514
L91.2696 215.846
L91.4184 226.929
L91.6416 247.434
L91.716 241.732
L91.9392 218.001
L92.088 224.291
L92.2368 217.551
L92.46 200.513
L92.6832 207.782
L92.832 200.248
L92.9064 202.322
L93.0552 210.524
L93.204 198.947
L93.2784 200.744
L93.5016 219.371
L93.576 218.68
L93.6504 218.922
L93.7248 220.097
L93.8736 216.48
L93.948 217.897
L94.0224 217.056
L94.0968 217.505
L94.32 230.638
L94.8408 218.911
L94.9152 218.127
L95.064 223.841
L95.1384 220.742
L95.2872 207.16
L95.3616 207.84
L95.5848 198.947
L95.8824 215.443
L95.9568 216.203
L96.1056 213.185
L96.2544 218.968
L96.3288 218.819
L96.4776 209.384
L96.7008 223.081
L97.0728 241.329
L97.1472 239.531
L97.296 227.942
L97.4448 211.331
L97.5192 212.298
L97.5936 213.565
L97.7424 206.815
L97.8912 200.018
L97.9656 201.492
L98.1888 209.798
L98.412 197.956
L98.4864 198.751
L98.6352 208.37
L98.784 200.34
L98.8584 200.352
L99.156 235.707
L99.2304 232.216
L99.528 218.554
L99.6768 222.931
L99.9744 234.14
L100.049 233.057
L100.495 206.008
L100.793 191.862
L101.165 220.523
L101.314 227.988
L101.537 219.429
L101.686 222.632
L101.909 217.517
L102.058 218.577
L102.132 217.551
L102.281 213.45
L102.43 216.872
L102.653 209.28
L102.727 210.351
L102.876 217.021
L103.099 208.197
L103.174 209.499
L103.397 228.438
L103.471 228.622
L103.62 232.527
L103.769 220.166
L103.843 215.328
L103.918 216.768
L103.992 217.54
L104.215 209.499
L104.364 221.917
L104.438 220.362
L104.662 206.1
L104.885 203.739
L104.959 204.81
L105.257 212.771
L105.331 212.033
L105.406 213.012
L105.629 221.376
L105.852 207.633
L106.001 213.819
L106.224 201.216
L106.298 206.423
L106.522 238.379
L106.596 239.946
L106.67 239.025
L106.819 222.851
L107.042 206.446
L107.117 205.985
L107.266 206.538
L107.34 209.372
L107.563 227.009
L107.786 208.197
L107.861 209.487
L108.233 229.924
L108.307 233.679
L108.53 219.613
L108.679 236.363
L108.902 220.95
L108.977 221.468
L109.2 208.911
L109.423 229.152
L109.498 222.275
L109.721 205.628
L109.87 193.809
L110.018 182.634
L110.39 211.607
L110.539 206.769
L110.614 207.345
L110.762 213.485
L110.986 226.548
L111.134 214.499
L111.209 217.643
L111.358 234.036
L111.506 228.138
L111.581 228.495
L111.655 229.567
L111.878 212.701
L112.027 222.897
L112.25 232.205
L112.325 234.336
L112.399 234.198
L112.548 221.33
L112.846 196.677
L112.994 190.687
L113.143 198.071
L113.441 222.459
L113.813 213.22
L114.036 230.431
L114.11 229.728
L114.408 221.364
L114.631 211.595
L114.78 218.807
L114.854 218.208
L115.078 206.331
L115.152 207.172
L115.375 198.497
L115.45 198.762
L115.822 211.261
L115.97 207.402
L116.045 209.303
L116.342 238.541
L116.491 230.765
L116.566 233.311
L116.714 245.879
L116.789 243.667
L117.086 222.275
L117.384 215.213
L117.607 197.725
L117.682 197.334
L117.756 196.147
L117.979 187.127
L118.128 195.203
L118.277 207.61
L118.351 207.356
L118.426 208.093
L118.574 219.21
L118.798 235.592
L118.872 236.041
L118.946 235.188
L119.095 227.85
L119.17 228.449
L119.244 231.606
L119.318 230.477
L119.69 196.113
L119.914 205.121
L119.988 204.983
L120.36 224.717
L120.434 224.567
L120.583 221.779
L120.732 222.136
L120.955 225.823
L121.104 229.981
L121.327 219.325
L121.476 222.217
L121.774 192.161
L121.848 193.371
L122.071 202.921
L122.146 206.354
L122.443 233.172
L122.518 231.859
L122.666 238.932
L122.815 234.152
L122.89 234.739
L122.964 232.205
L123.262 200.882
L123.485 191.194
L123.559 191.459
L123.634 190.364
L123.782 195.283
L124.154 221.48
L124.303 228.334
L124.526 218.565
L124.601 220.547
L124.75 238.748
L124.824 237.907
L125.047 211.25
L125.122 212.92
L125.196 211.549
L125.494 188.463
L125.717 198.451
L126.312 266.488
L126.833 232.262
L127.056 192.691
L127.205 187.761
L127.354 183.406
L127.577 197.668
L127.726 195.007
L127.8 196.758
L128.023 216.768
L128.098 215.858
L128.246 211.734
L128.47 215.651
L128.544 215.063
L129.065 199.05
L129.139 199.787
L129.288 194.926
L129.362 196.838
L129.511 211.365
L129.586 210.57
L129.66 213.093
L130.181 260.959
L130.33 256.04
L130.478 260.682
L130.553 259.576
L130.85 222.551
L131.074 207.494
L131.148 210.893
L131.222 213.761
L131.297 212.137
L131.892 184.869
L131.966 184.282
L132.041 184.673
L132.338 195.433
L132.636 219.579
L132.71 221.399
L132.785 221.088
L132.859 220.95
L133.157 234.025
L133.306 226.537
L133.38 227.171
L133.529 230.857
L133.752 239.439
L133.826 238.644
L134.57 209.05
L134.719 208.289
L134.794 207.034
L134.942 201.043
L135.166 206.987
L135.24 204.948
L135.389 194.961
L135.463 196.493
L135.538 195.64
L135.835 172.508
L135.91 173.579
L136.207 210.236
L136.356 239.174
L136.654 291.429
L136.728 289.148
L136.951 265.071
L137.323 237.792
L137.398 234.67
L138.067 173.649
L138.142 175.273
L138.216 173.626
L138.365 161.034
L138.439 162.313
L138.588 171.621
L138.662 171.54
L138.737 171.61
L139.406 221.952
L139.704 251.72
L139.778 252.584
L140.002 261.995
L140.15 258.136
L140.225 258.251
L140.299 258.159
L140.597 244.301
L140.82 215.42
L140.894 215.167
L140.969 213.865
L141.192 207.414
L141.341 204.188
L141.415 206.711
L141.564 216.929
L141.713 214.752
L141.936 221.445
L142.234 207.206
L142.382 203.163
L142.68 183.763
L142.754 186.021
L142.829 185.848
L142.978 182.104
L143.201 199.845
L143.275 198.555
L143.87 218.196
L143.945 219.141
L144.019 222.367
L144.317 243.794
L144.466 244.093
L144.54 242.193
L144.689 250.556
L144.763 250.326
L145.061 227.77
L145.433 190.191
L145.507 192.415
L145.805 222.217
L145.954 207.494
L146.177 223.288
L146.251 222.39
L146.4 217.044
L146.474 220.639
L146.623 212.114
L146.698 207.978
L146.846 219.556
L146.995 236.421
L147.144 233.852
L147.218 235.787
L147.293 235.523
L147.739 181.54
L147.814 183.475
L148.186 203.739
L148.334 198.877
L148.409 199.119
L148.855 231.191
L149.153 257.572
L149.302 268.769
L149.376 266.246
L149.971 193.313
L150.343 161.956
L150.418 164.433
L151.236 244.024
L151.31 243.794
L151.534 238.679
L151.682 230.661
L151.757 231.732
L151.831 234.486
L152.129 221.272
L152.203 222.689
L152.278 222.39
L152.501 218.853
L152.575 218.657
L152.724 222.574
L152.873 226.848
L153.096 214.602
L153.17 214.383
L153.319 210.443
L153.84 192.991
L153.914 191.147
L153.989 191.931
L154.063 193.947
L154.435 215.316
L154.584 219.613
L154.733 217.597
L154.956 226.422
L155.03 225.085
L155.105 225.869
L155.254 232.101
L155.328 231.318
L155.7 218.404
L155.774 217.62
L156.072 206.515
L156.146 207.08
L156.518 217.183
L156.742 229.843
L156.89 219.429
L157.262 235.73
L157.486 212.805
L157.783 176.644
L157.932 178.522
L158.006 181.678
L158.453 230.742
L158.676 254.196
L158.75 251.581
L158.974 240.511
L159.494 205.225
L159.569 206.642
L159.643 210.616
L159.718 208.531
L159.866 197.921
L159.941 199.442
L160.09 206.757
L160.238 205.225
L160.462 212.229
L160.536 210.547
L160.834 201.596
L160.908 202.61
L161.206 226.583
L161.354 227.101
L161.503 228.611
L161.578 227.562
L161.726 215.766
L161.801 216.146
L161.875 216.699
L161.95 216.273
L162.173 223.438
L162.396 224.602
L162.619 234.589
L162.768 227.643
L162.842 230.765
L162.917 227.044
L163.14 201.884
L163.438 207.206
L163.586 211.331
L163.735 207.034
L163.884 213.093
L163.958 212.367
L164.107 208.658
L164.33 224.187
L164.405 221.975
L164.554 206.63
L164.628 207.425
L164.702 208.404
L164.851 204.246
L164.926 206.147
L165.446 243.967
L165.521 242.596
L165.818 224.406
L166.116 194.799
L166.414 183.556
L166.562 190.353
L166.786 213.116
L167.083 232.7
L167.306 243.955
L167.455 237.7
L167.53 239.071
L167.604 238.518
L168.422 206.504
L168.497 207.736
L168.646 213.588
L168.72 210.674
L169.018 187.461
L169.092 184.639
L169.166 185.56
L169.39 194.834
L169.687 231.156
L169.91 219.395
L169.985 223.3
L170.357 252.411
L170.506 240.28
L170.878 215.501
L171.026 214.245
L171.101 215.558
L171.175 215.224
L171.324 202.967
L171.547 187.876
L171.696 182.611
L171.919 172.554
L171.994 173.13
L172.142 191.251
L172.44 244.808
L172.589 242.377
L172.812 252.1
L172.886 250.844
L172.961 251.351
L173.035 253.206
L173.11 251.996
L173.184 247.688
L173.482 202.345
L173.779 213.542
L173.854 213.277
L174.077 202.172
L174.151 202.472
L174.374 208.416
L174.598 202.46
L174.672 202.909
L175.044 216.895
L175.342 235.223
L175.416 234.785
L175.714 218.335
L176.16 171.713
L176.234 172.911
L176.458 191.712
L176.606 214.66
L176.978 300.829
L177.053 297.385
L177.202 272.191
L177.722 150.251
L177.871 166.564
L178.466 262.088
L178.838 291.037
L178.987 276.384
L179.136 241.329
L179.657 91.7644
L179.731 86.9606
L179.806 89.5872
L180.029 117.131
L180.326 178.383
L180.922 386.008
L181.07 361.632
L181.74 164.191
L181.889 151.438
L182.261 175.354
L182.707 215.95
L182.782 213.162
L182.93 192.922
L183.228 146.749
L183.377 180.71
L183.749 324.042
L183.823 323.051
L183.972 292.846
L184.418 176.517
L184.493 181.448
L184.716 216.872
L184.79 220.224
L184.865 219.325
L185.014 209.948
L185.386 171.264
L185.46 166.955
L185.534 168.361
L185.609 169.144
L185.683 166.944
L185.758 168.764
L185.906 184.282
L186.204 258.321
L186.427 308.041
L186.502 314.872
L186.576 312.626
L186.65 311.324
L186.799 285.796
L187.32 133.905
L187.394 133.513
L187.543 129.043
L187.692 153.339
L188.287 282.766
L188.362 275.992
L188.734 232.02
L188.957 214.66
L189.18 196.285
L189.329 198.059
L189.701 210.916
L189.775 210.271
L189.85 211.342
L189.998 203.773
L190.147 192.196
L190.222 192.564
L190.296 193.509
L190.519 178.291
L190.594 182.876
L190.891 210.547
L190.966 206.1
L191.04 207.264
L191.114 210.605
L191.189 208.796
L191.263 211.86
L191.71 311.013
L191.784 310.068
L192.007 277.386
L192.602 149.042
L192.677 146.588
L192.826 175.089
L193.049 216.768
L193.123 216.203
L193.346 197.725
L193.793 213.865
L193.867 214.902
L193.942 213.635
L194.09 194.891
L194.165 198.278
L194.314 228.173
L194.388 228.011
L194.537 219.383
L194.611 222.044
L194.909 255.821
L194.983 251.743
L195.206 208.232
L195.281 210.236
L195.355 206.999
L195.504 162.117
L195.578 163.338
L195.802 198.278
L195.95 196.7
L196.025 202.575
L196.322 256.155
L196.546 221.652
L196.769 270.036
L196.843 260.072
L197.066 202.068
L197.215 204.142
L197.438 173.672
L197.513 180.008
L197.736 224.555
L197.885 226.548
L197.959 231.007
L198.257 294.77
L198.48 232.643
L198.554 239.048
L198.629 244.036
L199.298 124.228
L199.373 105.277
L199.447 107.72
L199.745 165.838
L199.819 165.573
L199.894 170.688
L200.191 243.126
L200.786 294.067
L201.679 198.566
L201.828 203.566
L202.051 186.666
L202.2 201.055
L202.274 199.269
L202.423 187.979
L202.498 192.069
L202.721 222.286
L202.87 201.492
L202.944 202.99
L203.093 205.547
L203.167 206.423
L203.316 216.319
L203.465 200.237
L203.539 203.117
L203.688 225.443
L203.762 223.231
L203.911 196.643
L203.986 197.633
L204.209 228.173
L204.432 211.964
L204.581 240.223
L204.804 208.243
L204.953 226.813
L205.027 224.602
L205.25 206.676
L205.474 200.317
L205.548 204.96
L205.697 220.109
L205.771 220.005
L205.92 247.457
L206.143 283.319
L206.218 283.031
L206.366 266.915
L206.515 275.105
L206.664 242.423
L207.259 104.264
L207.408 95.0937
L208.301 299.885
L208.45 293.123
L208.598 280.22
L209.417 177.969
L209.64 173.914
L209.714 172.98
L210.458 247.757
L210.533 246.916
L210.756 254.692
L211.128 226.548
L211.351 208.07
L211.426 206.123
L211.798 177.796
L211.872 175.538
L211.946 175.907
L212.095 172.174
L212.17 175.25
L212.839 248.782
L213.137 267.917
L213.732 204.084
L213.955 207.805
L214.03 215.627
L214.104 212.241
L214.402 182.358
L214.55 190.237
L214.625 189.419
L214.774 181.643
L214.997 204.015
L215.22 228.887
L215.294 229.981
L215.518 252.791
L215.592 250.268
L215.666 241.283
L215.741 242.319
L215.89 249.185
L216.485 208.047
L216.559 209.545
L216.634 208.808
L216.782 202.011
L216.857 204.522
L217.006 213.623
L217.378 199.753
L217.526 202.587
L217.601 202.506
L217.675 201.204
L217.824 203.543
L218.047 212.69
L218.122 209.994
L218.196 210.559
L218.568 226.468
L218.717 228.461
L218.866 223.127
L219.089 239.428
L219.163 239.071
L219.312 244.451
L219.386 243.563
L219.982 199.096
L220.056 199.246
L220.205 202.276
L220.279 204.591
L220.354 203.612
L220.428 202.552
L220.577 205.824
L220.651 204.96
L220.874 197.023
L221.023 202.84
L221.395 232.493
L221.544 227.217
L221.767 208.174
L221.842 207.69
L221.916 207.782
L222.139 198.728
L222.511 220.339
L222.734 252.71
L222.958 268.355
L223.032 267.375
L223.478 209.176
L223.776 173.13
L223.85 171.46
L223.925 172.266
L224.222 187.081
L225.041 244.739
L225.264 225.661
L225.338 225.915
L225.413 225.915
L225.487 225.178
L225.562 225.581
L225.636 226.894
L225.859 224.267
L226.306 203.75
L226.38 204.073
L226.454 204.2
L226.603 198.071
L226.678 198.313
L226.826 201.043
L226.901 201.043
L227.124 204.315
L227.645 224.705
L227.794 230.246
L228.017 223.38
L228.314 231.571
L228.835 223.807
L229.207 203.128
L229.282 206.469
L229.356 207.875
L229.505 195.053
L229.579 195.94
L229.877 212.264
L229.951 213.416
L230.026 212.713
L230.174 203.808
L230.249 205.409
L230.472 222.447
L230.546 223.012
L230.621 225.558
L230.77 238.552
L230.844 237.274
L231.216 213.393
L231.439 205.732
L231.514 206.273
L231.588 205.513
L231.737 201.251
L231.96 216.515
L232.034 216.077
L232.109 215.754
L232.258 220.132
L232.332 219.994
L232.406 219.452
L232.481 219.659
L232.555 221.641
L232.63 219.083
L232.778 208.969
L233.299 231.295
L233.374 230.684
L233.448 230.696
L233.522 231.514
L233.597 229.187
L233.746 220.259
L233.894 220.351
L234.043 225.972
L234.192 215.397
L234.564 194.776
L234.638 190.249
L234.713 190.387
L234.862 193.786
L235.01 191.435
L235.085 192.334
L235.457 216.365
L235.68 236.11
L235.903 242.746
L235.978 244.98
L236.424 231.26
L236.945 192.415
L237.094 189.661
L237.168 190.007
L237.391 207.667
L237.614 215.005
L237.838 230.039
L238.061 241.455
L238.21 229.428
L238.582 205.352
L238.73 194.926
L238.805 195.007
L239.549 240.061
L239.623 238.967
L239.846 228.253
L240.442 196.746
L240.516 193.763
L240.59 194.65
L240.739 197.242
L240.888 196.101
L240.962 197.368
L241.483 230.281
L241.706 248.92
L241.855 240.868
L242.302 216.699
L242.376 215.478
L242.45 216.123
L242.674 201.308
L242.748 202.667
L242.822 201.734
L242.971 194.696
L243.12 202.287
L243.715 247.688
L243.864 251.777
L244.013 241.859
L244.534 181.079
L244.682 174.098
L244.757 174.132
L244.906 184.65
L244.98 183.901
L245.054 179.927
L245.129 180.457
L245.724 211.907
L246.394 311.197
L246.468 308.79
L246.766 263.827
L247.361 140.241
L247.51 128.456
L247.584 129.216
L247.882 142.994
L249.072 296.164
L249.221 292.397
L249.444 273.596
L249.667 228.564
L249.89 200.444
L250.634 137.084
L250.709 138.904
L250.858 160.228
L251.453 295
L251.602 285.082
L251.825 250.579
L252.346 168.637
L252.569 159.525
L252.718 175.907
L253.238 249.692
L253.462 260.567
L253.536 261.846
L253.61 261.212
L253.759 253.505
L254.057 234.048
L254.206 222.309
L254.429 211.192
L254.95 177.001
L255.098 165.158
L255.247 176.69
L255.768 221.595
L255.917 225.247
L256.14 243.84
L256.214 243.563
L256.438 236.698
L256.512 236.064
L257.033 194.085
L257.107 194.603
L257.702 214.66
L257.851 231.848
L257.926 230.707
L258 230.246
L258.149 239.14
L258.298 234.578
L258.521 215.766
L258.744 196.124
L258.818 199.96
L258.967 231.341
L259.265 290.991
L259.339 302.385
L259.414 300.726
L259.562 274.852
L259.786 217.114
L260.083 139.331
L260.232 123.364
L260.306 123.779
L260.381 122.166
L260.53 111.429
L260.678 121.06
L261.05 180.238
L261.72 319.526
L261.794 322.89
L262.092 296.026
L262.613 193.624
L262.91 171.817
L262.985 170.596
L263.059 171.414
L263.208 178.867
L263.654 226.675
L264.026 254.139
L264.101 253.459
L264.25 241.352
L264.696 179.512
L264.77 179.766
L264.919 169.732
L265.068 162.278
L265.142 162.612
L265.217 163.741
L265.366 171.725
L265.589 203.036
L265.812 220.95
L266.035 237.78
L266.556 290.289
L266.705 295.68
L266.779 293.906
L266.928 270.9
L267.449 166.863
L267.598 159.456
L267.672 160.896
L267.821 159.076
L267.97 161.368
L268.118 164.214
L268.342 179.259
L268.714 226.111
L268.937 233.898
L269.011 234.912
L269.309 243.345
L269.532 234.808
L269.606 234.624
L269.83 239.889
L270.053 254.83
L270.202 252.157
L270.276 252.964
L270.425 237.458
L270.722 215.835
L271.392 173.441
L271.466 173.902
L271.615 175.734
L271.838 183.844
L272.434 229.924
L272.508 229.302
L272.582 227.85
L272.657 228.334
L272.731 230.661
L272.806 230.131
L273.029 219.107
L273.624 256.04
L273.773 252.307
L273.847 255.752
L273.922 255.429
L274.294 221.249
L274.74 139.031
L274.963 126.728
L275.112 139.872
L275.335 175.918
L275.93 331.3
L276.079 337.705
L276.228 318.328
L276.6 226.963
L277.046 101.983
L277.195 93.9878
L277.344 107.017
L277.567 152.037
L278.162 313.052
L278.237 315.034
L278.311 310.31
L278.609 230.661
L278.981 150.01
L279.13 145.079
L279.204 147.176
L279.353 174.063
L279.948 318.996
L280.022 316.681
L280.246 270.589
L280.766 145.793
L280.915 141.07
L280.99 139.803
L281.138 164.433
L281.585 260.314
L281.659 262.929
L281.734 260.371
L282.403 193.129
L282.478 193.094
L282.626 181.505
L282.701 184.627
L283.222 236.11
L283.296 236.64
L283.37 235.016
L283.519 219.89
L283.891 170.699
L284.04 159.007
L284.114 162.094
L284.263 187.645
L284.784 362.807
L284.858 356.771
L285.156 264
L285.677 90.4742
L285.826 77.5718
L285.974 84.7718
L286.123 122.074
L286.644 306.774
L286.718 311.9
L286.793 311.186
L286.942 295.496
L287.314 238.587
L287.611 207.414
L288.058 148.742
L288.132 150.885
L288.281 175.411
L288.727 285.473
L288.802 289.482
L288.876 286.902
L289.025 259.933
L289.471 104.483
L289.546 104.575
L289.694 145.931
L290.141 305.887
L290.215 311.796
L290.29 309.988
L290.438 298.756
L290.587 271.799
L290.959 189.316
L291.182 168.384
L291.331 167.025
L291.406 167.67
L291.48 171.229
L291.629 196.7
L291.852 229.912
L292.075 240.096
L292.15 237.631
L292.447 195.928
L292.596 182.081
L292.67 182.922
L292.819 199.811
L293.042 223.357
L293.191 227.965
L293.414 220.535
L293.489 222.286
L293.638 224.682
L294.01 211.699
L294.233 175.826
L294.382 157.094
L294.456 159.905
L294.605 182.219
L295.126 313.409
L295.2 312.188
L295.646 255.636
L296.242 124.424
L296.39 115.392
L296.539 127.546
L297.134 237.838
L297.209 239.843
L297.432 229.716
L297.506 231.076
L297.804 267.502
L297.953 270.958
L298.027 270.094
L298.697 199.235
L298.92 183.268
L299.218 155.378
L299.292 156.864
L299.366 159.709
L299.515 181.736
L299.962 285.07
L300.036 286.798
L300.185 271.914
L300.706 172.186
L300.78 169.674
L300.854 170.953
L300.929 170.515
L301.003 170.296
L301.078 172.543
L301.152 172.404
L301.301 175.066
L301.45 190.341
L301.747 234.013
L301.97 263.378
L302.119 272.26
L302.417 294.159
L302.566 281.487
L302.714 256.212
L303.161 173.13
L303.384 157.348
L303.458 157.14
L303.682 155.251
L303.83 161.829
L303.905 160.147
L303.979 160.055
L304.054 162.451
L305.021 274.817
L305.095 279.679
L305.17 278.031
L305.393 265.106
L305.467 264.553
L305.914 218.842
L306.137 202.368
L306.434 189.731
L306.509 190.906
L306.658 195.882
L306.732 194.765
L307.402 210.628
L307.55 213.151
L307.625 213.024
L307.699 213.969
L307.774 218.058
L307.848 217.747
L308.22 175.043
L308.294 174.075
L308.443 186.908
L308.89 239.647
L308.964 241.847
L309.187 261.581
L309.336 256.523
L309.485 260.625
L309.634 249.876
L310.303 188.613
L310.452 194.085
L310.526 192.023
L310.601 186.586
L310.675 186.885
L310.75 190.456
L310.824 190.295
L310.973 185.318
L311.122 195.813
L311.642 233.691
L311.791 229.233
L311.866 229.521
L312.014 234.036
L312.312 218.162
L312.386 219.452
L312.833 246.881
L312.907 245.338
L313.428 194.984
L313.651 189.707
L313.726 190.249
L313.874 200.248
L314.098 217.321
L314.172 215.19
L314.246 215.293
L314.47 221.157
L314.618 220.42
L314.767 215.858
L314.99 203.531
L315.065 203.762
L315.288 213.059
L315.511 232.228
L315.809 224.383
L315.883 224.567
L315.958 223.922
L316.032 224.106
L316.106 224.475
L316.776 190.191
L316.85 188.797
L316.999 197.748
L317.148 212.321
L317.371 247.319
L317.594 236.663
L317.669 239.969
L317.743 240.292
L317.818 236.444
L318.041 244.98
L318.115 244.174
L318.264 228.173
L318.636 164.145
L318.785 148.696
L319.008 178.545
L319.529 268.182
L319.826 250.545
L320.05 227.47
L320.496 202.794
L320.794 187.496
L320.868 185.837
L321.612 209.268
L322.058 236.11
L322.207 245.729
L322.43 237.158
L322.505 237.539
L322.654 233.979
L322.802 235.016
L323.026 226.283
L323.472 202.483
L323.546 200.018
L323.621 200.767
L323.695 200.951
L323.844 196.308
L324.067 203.197
L324.142 200.122
L324.216 201.043
L324.662 221.284
L324.737 222.205
L324.886 226.963
L324.96 224.152
L325.109 205.478
L325.183 207.034
L325.555 218.173
L325.704 215.892
L325.778 217.033
L325.927 224.728
L326.002 223.887
L326.225 214.222
L326.374 217.217
L326.522 211.423
L326.969 233.219
L327.118 231.018
L327.415 217.24
L327.564 212.448
L327.713 207.909
L327.787 208.531
L328.01 218.623
L328.085 218.842
L328.159 217.816
L328.308 209.291
L328.531 197.818
L328.68 193.981
L328.754 195.514
L328.903 199.476
L328.978 199.96
L329.201 215.109
L329.498 242.515
L329.573 245.326
L329.647 244.934
L329.945 225.869
L330.242 202.495
L330.317 202.391
L330.466 199.407
L330.54 199.995
L330.614 201.032
L330.763 210.409
L330.986 224.751
L331.135 220.351
L331.284 229.728
L331.433 222.309
L331.507 222.885
L331.656 230.868
L332.177 213.393
L332.4 202.575
L332.474 202.714
L332.549 205.075
L332.623 204.349
L332.921 195.226
L333.07 199.926
L333.293 190.03
L333.665 214.418
L334.26 277.363
L334.632 246.582
L335.302 150.989
L335.376 148.155
L335.525 154.721
L336.046 204.707
L336.418 246.582
L336.492 246.374
L336.566 245.499
L336.641 246.467
L337.087 278.066
L337.236 282.755
L337.31 282.616
L337.459 257.457
L337.906 136.024
L337.98 129.792
L338.054 130.126
L338.278 156.795
L338.65 220.65
L338.724 215.962
L338.947 181.459
L339.096 228.058
L339.394 354.996
L339.468 359.662
L339.617 333.339
L340.212 136.37
L340.435 122.753
L340.658 87.2947
L340.807 102.524
L341.03 160.32
L341.551 368.74
L341.626 367.749
L341.774 334.019
L342.221 193.451
L342.295 192.438
L342.667 224.095
L342.742 223.334
L342.816 216.134
L343.262 108.538
L343.411 133.72
L343.858 243.633
L343.932 241.72
L344.006 243.898
L344.378 267.721
L344.453 265.97
L344.602 245.038
L344.825 211.918
L344.899 214.856
L345.271 255.752
L345.42 233.956
L345.866 141.611
L345.941 143.455
L346.61 211.941
L346.908 247.757
L347.354 268.965
L347.429 269.714
L347.726 279.229
L347.875 259.945
L348.47 155.896
L348.545 153.327
L348.619 154.433
L348.768 161.668
L349.289 249.588
L349.363 247.112
L350.107 188.625
L350.182 189.661
L350.554 222.39
L350.628 220.408
L350.926 186.447
L351 186.862
L351.149 193.739
L351.818 256.097
L352.339 213.139
L352.414 216.365
L352.488 217.067
L353.009 185.007
L353.083 186.609
L353.306 240.338
L353.53 282.017
L353.604 279.391
L353.827 248.805
L354.348 167.313
L354.497 155.459
L354.571 156.737
L355.018 200.559
L355.092 204.753
L355.166 204.177
L355.39 200.421
L355.464 200.191
L355.538 202.449
L356.282 273.251
L356.431 263.378
L356.654 246.662
L356.729 247.572
L356.803 246.179
L357.101 206.296
L357.398 157.014
L357.473 156.104
L357.622 158.488
L357.696 157.901
L357.845 164.801
L358.068 194.396
L358.44 252.826
L358.589 256.224
L358.738 250.798
L359.63 186.689
L359.705 187.922
L359.928 229.878
L360.151 254.45
L360.226 250.637
L360.672 190.33
L360.746 190.571
L360.97 225.35
L361.118 245.464
L361.342 228.104
L361.49 213.323
L361.862 161.138
L361.937 160.124
L362.011 157.555
L362.086 158.696
L362.309 172.808
L362.383 174.801
L362.532 205.467
L362.904 336.91
L362.978 342.094
L363.127 311.773
L363.871 108.549
L363.946 109.77
L364.169 184.27
L364.318 214.959
L364.466 200.294
L364.541 201.619
L364.913 252.042
L364.987 252.63
L365.136 247.515
L365.21 247.93
L365.285 248.494
L365.582 207.345
L365.731 240.672
L365.88 260.613
L366.178 182.254
L366.326 187.265
L366.624 199.096
L366.698 196.113
L366.847 175.63
L366.922 179.743
L366.996 174.743
L367.145 138.743
L367.219 146.081
L367.368 226.836
L367.591 343.338
L367.666 340.55
L368.038 279.529
L368.558 116.959
L368.633 122.097
L368.856 78.4704
L369.005 132.66
L369.228 254.842
L369.302 252.434
L369.451 246.778
L369.6 283.907
L369.749 323.547
L369.823 322.268
L370.121 276.326
L370.195 272.571
L370.27 281.165
L370.344 268.815
L370.567 158.765
L370.642 148.143
L370.79 185.007
L370.865 184.95
L371.014 159.813
L371.162 111.533
L371.237 114.539
L371.534 158.2
L371.981 279.633
L372.204 239.877
L372.278 241.778
L372.576 293.445
L372.799 194.845
L372.874 194.938
L373.32 272.064
L373.394 269.299
L373.692 199.995
L373.841 119.528
L373.915 122.281
L373.99 133.686
L374.138 193.866
L374.436 139.676
L374.808 224.786
L375.031 278.63
L375.106 267.617
L375.18 264.472
L375.254 275.14
L375.329 253.402
L375.478 173.741
L375.626 203.336
L375.775 270.923
L375.924 241.513
L376.147 199.707
L376.37 232.032
L376.519 219.878
L376.742 252.998
L376.891 250.545
L377.114 166.218
L377.189 171.195
L377.412 254.853
L377.486 237.723
L377.71 169.939
L377.933 221.364
L378.007 216.031
L378.156 188.602
L378.454 234.463
L378.528 241.202
L378.751 142.187
L378.826 147.441
L379.049 259.092
L379.346 171.702
L379.57 230.431
L379.644 227.977
L379.793 206.239
L380.09 272.237
L380.165 256.374
L380.388 180.687
L380.537 244.312
L380.686 281.867
L380.909 211.25
L380.983 217.551
L381.206 263.251
L381.43 224.774
L381.504 226.802
L381.653 243.229
L381.727 232.7
L381.95 106.971
L382.025 116.267
L382.248 220.8
L382.322 206.918
L382.546 144.641
L382.843 250.729
L382.992 229.198
L383.215 281.718
L383.29 281.222
L383.513 208.669
L383.587 212.736
L383.81 289.332
L383.959 237.654
L384.108 143.121
L384.182 144.123
L384.406 186.102
L384.554 159.986
L384.629 160.458
L384.852 204.971
L385.075 133.363
L385.15 143.42
L385.447 336.495
L385.522 325.597
L385.67 287.005
L385.894 341.645
L386.042 288.584
L386.266 208.07
L386.414 201.631
L386.712 56.3059
L386.786 69.7728
L387.01 181.678
L387.233 156.461
L387.679 296.982
L387.754 292.328
L387.828 297.961
L387.977 329.917
L388.274 191.147
L388.349 194.108
L388.498 231.606
L388.572 214.464
L388.795 98.3078
L388.944 161.276
L389.242 279.679
L389.539 242.93
L389.762 128.467
L389.837 122.442
L390.06 190.94
L390.134 189.235
L390.283 164.202
L390.432 225.638
L390.73 336.196
L391.102 244.635
L391.325 128.271
L391.399 136.543
L391.548 195.306
L391.622 193.578
L391.846 136.001
L392.143 222.609
L392.292 227.827
L392.366 217.839
L392.441 218.542
L392.515 228.403
L392.59 221.111
L392.738 183.636
L392.813 188.429
L393.11 278.861
L393.185 276.591
L393.259 255.164
L393.334 259.576
L393.631 340.159
L393.706 332.913
L394.301 70.8787
L394.375 73.6896
L394.598 155.839
L394.673 147.602
L394.822 100.854
L395.342 262.721
L395.417 260.913
L395.566 276.925
L395.789 197.207
L395.863 204.81
L396.161 279.252
L396.31 251.593
L396.533 300.38
L396.607 297.811
L397.277 109.563
L397.351 121.786
L397.574 218.312
L397.649 216.86
L397.798 166.783
L398.095 253.586
L398.17 251.132
L398.318 265.014
L398.393 253.828
L398.467 257.18
L398.542 257.756
L398.765 136.255
L398.839 146.554
L399.062 257.779
L399.137 248.621
L399.286 181.655
L399.36 194.661
L399.583 261.65
L399.881 223.841
L399.955 228.184
L400.03 223.277
L400.253 110.565
L400.402 167.059
L400.55 248.92
L400.625 239.958
L400.774 175.711
L400.848 179.881
L401.146 277.352
L401.666 211.411
L401.741 200.755
L401.815 205.536
L402.038 233.265
L402.113 228.449
L402.336 187.991
L402.485 195.122
L402.559 194.12
L402.634 195.963
L402.931 231.26
L403.154 252.376
L403.303 245.395
L403.675 199.937
L403.973 186.332
L404.047 188.532
L404.196 211.503
L404.27 209.591
L404.419 201.446
L404.642 209.061
L404.717 208.785
L405.014 149.457
L405.089 147.279
L405.386 238.495
L405.461 231.848
L405.61 221.076
L405.982 301.509
L406.056 302.396
L406.205 296.982
L406.279 296.037
L406.577 175.284
L406.8 235.937
L406.874 226.019
L407.098 161.495
L407.395 213.393
L407.618 190.571
L407.693 198.451
L407.767 196.758
L407.99 139.146
L408.065 156.818
L408.288 266.546
L408.511 187.069
L408.586 207.31
L408.809 267.306
L409.106 236.479
L409.181 255.256
L409.404 116.774
L409.478 121.636
L409.702 236.018
L409.776 220.581
L409.925 179.339
L409.999 189.938
L410.297 294.493
L410.371 294.493
L410.52 305.472
L410.594 297.039
L410.669 301.59
L410.966 116.636
L411.19 185.019
L411.413 80.8665
L412.157 346.621
L412.231 320.747
L412.38 236.513
L412.454 233.921
L412.529 250.648
L412.678 323.443
L412.975 185.987
L413.198 248.045
L413.347 221.814
L413.496 189.535
L413.57 190.721
L413.645 209.683
L413.942 77.4336
L414.166 186.655
L414.24 175.123
L414.389 125
L414.612 219.579
L414.835 262.076
L414.984 273.101
L415.133 307.373
L415.207 302.696
L415.356 191.47
L415.43 192.023
L415.579 279.529
L415.654 315.345
L415.728 300.449
L415.877 206.676
L415.951 209.441
L416.1 267.813
L416.174 267.306
L416.398 221.134
L416.546 184.535
L416.621 191.032
L416.695 205.928
L416.918 73.344
L416.993 79.9449
L417.216 204.787
L417.439 130.356
L417.811 316.865
L417.886 330.632
L417.96 326.934
L418.109 309.239
L418.183 334.307
L418.258 313.87
L418.481 111.74
L418.555 120.058
L418.704 231.064
L418.778 219.21
L419.002 75.9014
L419.374 261.592
L419.82 324.584
L420.118 141.485
L420.192 158.292
L420.341 186.067
L420.49 134.319
L420.564 138.144
L420.936 259.645
L421.085 227.032
L421.234 201.147
L421.308 210.801
L421.382 197.564
L421.606 110.15
L421.754 168.799
L421.978 240.522
L422.052 234.071
L422.126 234.981
L422.498 308.997
L422.796 265.498
L422.87 268.447
L423.094 224.026
L423.242 176.494
L423.317 182.381
L423.391 189.938
L423.466 183.383
L423.689 83.1705
L423.763 104.771
L424.135 304.884
L424.21 290.035
L424.284 290.842
L424.433 318.363
L424.507 317.28
L424.73 218.784
L424.954 118.779
L425.028 119.896
L425.177 125.944
L425.326 88.1817
L425.4 96.9484
L425.623 207.437
L425.772 196.297
L425.846 191.32
L425.921 196.608
L426.144 268.666
L426.218 268.539
L426.293 268.539
L426.442 276.995
L426.665 248.92
L426.739 254.173
L426.814 249.231
L426.962 223.542
L427.111 264.518
L427.26 294.47
L427.483 269.437
L427.558 269.633
L427.632 266.385
L427.855 224.717
L428.376 102.351
L428.45 104.644
L428.748 142.326
L429.046 209.695
L429.269 248.943
L429.343 239.578
L429.418 238.172
L429.641 244.946
L429.715 242.987
L429.79 240.856
L429.938 256.881
L430.162 199.177
L430.236 200.294
L430.459 241.121
L430.608 229.659
L430.831 273.884
L430.906 266.177
L431.129 243.034
L431.278 250.095
L431.352 248.102
L431.501 216.146
L431.575 204.084
L431.724 220.639
L431.798 210.017
L432.022 125.576
L432.617 205.398
L432.691 206.17
L432.766 206.077
L432.914 209.649
L432.989 208.37
L433.138 210.985
L433.435 229.475
L433.584 248.413
L433.882 230.926
L434.105 206.918
L434.254 227.044
L434.328 224.855
L434.402 218.473
L434.477 218.634
L434.626 223.945
L434.7 225.431
L434.923 252.399
L435.221 212.333
L435.295 214.245
L435.37 213.519
L435.518 204.66
L435.593 205.156
L435.667 208.209
L435.742 207.563
L435.965 196.804
L436.337 204.511
L436.709 237.746
L437.006 199.649
L437.081 204.891
L437.155 205.64
L437.304 199.499
L437.527 212.667
L437.602 210.616
L437.676 211.907
L437.899 219.763
L438.122 209.522
L438.197 210.294
L438.643 243.483
L438.866 227.747
L439.015 221.457
L439.09 221.503
L439.238 212.575
L439.61 193.924
L439.834 199.569
L439.982 218.461
L440.206 238.621
L440.354 246.086
L440.429 245.257
L440.801 224.613
L441.322 175.757
L441.396 175.711
L441.47 176.218
L441.694 186.102
L441.768 182.646
L441.842 182.991
L442.066 213.588
L442.363 261.097
L442.586 283.169
L442.661 282.697
L442.735 279.944
L443.033 240.856
L443.33 183.429
L443.479 175.584
L443.702 165.654
L444.074 174.547
L444.223 184.811
L444.744 231.698
L444.893 238.333
L445.339 271.004
L445.414 272.018
L445.562 265.578
L445.786 235.557
L446.158 190.618
L446.232 192.714
L446.381 192.737
L446.604 211.204
L446.678 210.409
L446.902 198.532
L447.199 182.415
L447.348 180.745
L447.422 180.653
L447.571 177.347
L447.646 177.773
L447.869 185.272
L448.613 256.846
L448.836 288.929
L448.91 289.309
L449.134 277.409
L449.878 203.796
L449.878 203.796" style="fill:none;stroke:#808080;stroke-linecap:square;"/>
   </g>
  </g>
 </g>
 <defs>
  <clipPath id="p7ff5b81e1d">
   <rect height="345.6" width="446.4" x="72.0" y="43.2"/>
  </clipPath>
 </defs>
</svg>
