<?xml version="1.0" encoding="utf-8" standalone="no"?>
<!DOCTYPE svg PUBLIC "-//W3C//DTD SVG 1.1//EN"
  "http://www.w3.org/Graphics/SVG/1.1/DTD/svg11.dtd">
<!-- Created with matplotlib (http://matplotlib.org/) -->
<svg height="432pt" version="1.1" viewBox="0 0 576 432" width="576pt" xmlns="http://www.w3.org/2000/svg" xmlns:xlink="http://www.w3.org/1999/xlink">
 <defs>
  <style type="text/css">
*{stroke-linecap:butt;stroke-linejoin:round;}
  </style>
 </defs>
 <g id="figure_1">
  <g id="patch_1">
   <path d="
M0 432
L576 432
L576 0
L0 0
z
" style="fill:#ffffff;"/>
  </g>
  <g id="axes_1">
   <g id="line2d_1">
    <path clip-path="url(#p7ff5b81e1d)" d="
M72 198.289
L72.372 233.891
L72.4464 229.946
L72.5952 214.201
L72.6696 215.297
L72.9672 256.29
L73.116 212.745
L73.3392 160.233
L73.488 163.763
L73.6368 159.024
L73.7112 160.233
L73.9344 182.742
L74.0088 179.197
L74.232 150.754
L74.3064 150.897
L74.604 182.91
L74.6784 182.174
L74.7528 179.355
L74.8272 181.779
L75.1992 219.943
L75.4224 214.833
L75.5712 221.671
L75.7944 231.541
L75.8688 228.726
L76.092 194.26
L76.464 139.611
L76.5384 139.789
L76.6872 149.135
L77.5056 247.112
L77.58 245.789
L77.7288 226.633
L78.3984 94.5349
L78.4728 99.235
L78.696 156.57
L79.1424 288.54
L79.2168 289.513
L79.3656 276.868
L80.3328 75.0924
L80.4072 82.8437
L81.0768 269.078
L81.1512 269.724
L81.3 263.005
L81.5232 232.696
L82.044 143.492
L82.1184 142.484
L82.2672 150.409
L82.788 191.328
L82.8624 191.777
L82.9368 191.337
L83.2344 186.395
L83.3832 188.8
L83.7552 199.652
L83.904 197.124
L84.4992 183.764
L84.648 179.256
L84.7224 181.824
L85.3176 245.039
L85.392 243.39
L85.5408 233.861
L85.764 203.902
L86.2104 130.897
L86.2848 128.073
L86.3592 130.053
L86.5824 154.783
L86.88 180.179
L87.3264 189.456
L87.624 201.291
L87.6984 201.933
L87.8472 207.235
L88.2192 223.118
L88.2936 222.061
L88.5168 211.175
L88.9632 187.388
L89.112 183.162
L89.4096 197.124
L89.484 196.877
L89.7072 189.318
L89.856 178.002
L90.0792 157.864
L90.1536 157.814
L90.3024 167.101
L90.7488 196.768
L90.8976 197.736
L91.0464 197.835
L91.1952 196.99
L91.344 195.075
L91.4928 192.996
L91.6416 203.384
L91.8648 218.447
L91.9392 218.235
L92.088 212.626
L92.2368 197.02
L92.5344 152.062
L92.6088 150.601
L92.7576 158.036
L93.2784 204.194
L93.5016 195.238
L93.948 233.56
L94.0968 216.117
L94.3944 180.263
L94.4688 180.792
L94.6176 166.217
L94.8408 151.045
L94.9152 150.478
L94.9896 151.006
L95.1384 145.975
L95.2128 154.432
L95.5104 222.659
L95.7336 260.058
L95.8824 232.444
L96.18 187.254
L96.4032 173.149
L96.552 165.709
L96.6264 165.852
L96.7008 164.46
L96.9984 134.59
L97.0728 140.574
L97.5192 233.501
L97.7424 248.628
L97.8168 246.554
L98.04 207.561
L98.1144 210.336
L98.1888 210.02
L98.4864 148.29
L98.6352 120.702
L98.7096 125.224
L99.0816 209.501
L99.3048 212.621
L99.6024 199.138
L99.6768 200.402
L99.8256 210.286
L100.049 222.624
L100.123 221.691
L100.198 218.63
L100.346 194.285
L100.718 123.012
L100.867 130.704
L101.165 168.617
L101.611 232.903
L101.834 250.08
L101.909 248.426
L102.132 206.07
L102.355 173.569
L102.43 173.988
L102.876 205.635
L102.95 199.928
L103.248 126.863
L103.322 132.773
L103.769 209.388
L103.992 202.643
L104.215 196.492
L104.364 204.135
L104.736 238.255
L104.81 240.921
L104.885 238.408
L105.034 219.904
L105.48 147.081
L105.703 140.712
L105.852 145.185
L106.522 189.086
L106.67 178.767
L106.745 178.772
L106.819 184.776
L106.894 184.756
L106.968 187.807
L107.266 279.92
L107.712 190.375
L107.861 190.513
L108.084 154.551
L108.233 127.164
L108.307 130.462
L108.754 208.815
L108.828 208.331
L108.902 206.169
L108.977 206.183
L109.051 205.621
L109.2 202.145
L109.274 203.769
L109.646 220.965
L110.093 206.578
L110.539 164.015
L110.614 164.351
L110.762 169.101
L110.837 168.696
L111.06 161.843
L111.209 165.946
L111.358 167.698
L111.506 167.624
L111.73 164.548
L111.804 165.274
L112.027 184.238
L112.25 210.079
L112.548 229.205
L112.697 234.083
L112.771 233.723
L113.069 220.151
L113.738 178.733
L113.962 185.378
L114.11 182.036
L114.482 172.265
L114.631 171.811
L114.706 171.91
L114.78 172.596
L115.598 209.457
L115.747 207.033
L115.97 196.966
L116.417 166.904
L116.64 171.801
L117.012 196.462
L117.384 215.974
L117.458 216.102
L117.607 210.647
L118.128 185.26
L118.277 184.924
L118.574 181.666
L118.872 184.203
L119.021 186.548
L119.095 186.39
L119.17 186.578
L119.244 187.156
L119.318 187.017
L119.393 187.2
L119.542 189.372
L119.988 199.123
L120.062 199.281
L120.36 198.891
L120.509 197.38
L121.476 181.192
L121.625 182.298
L121.848 185.867
L122.146 195.712
L122.443 197.82
L122.592 198.259
L122.815 197.721
L122.964 199.533
L123.038 199.415
L123.187 196.141
L123.559 188.173
L123.931 181.666
L124.006 181.295
L124.08 181.843
L124.526 193.149
L124.898 195.011
L125.122 194.27
L125.27 191.594
L125.419 192.335
L126.163 186.864
L126.461 192.369
L126.684 195.366
L126.758 195.292
L126.833 195.025
L126.907 195.188
L127.279 197.583
L127.354 197.44
L127.8 186.884
L127.949 184.287
L128.098 182.574
L128.172 182.456
L128.246 182.056
L128.395 184.129
L128.618 191.155
L128.842 196.684
L128.916 197.534
L128.99 197.223
L129.288 192.942
L129.511 190.394
L129.586 191.007
L129.958 197.706
L130.032 197.963
L130.181 196.635
L130.33 193.065
L130.925 170.404
L130.999 172.088
L131.222 190.913
L131.669 224.643
L131.892 230.603
L132.041 224.456
L132.338 190.093
L132.636 158.965
L132.859 154.215
L132.934 155.138
L133.157 159.167
L133.231 159.404
L133.306 160.475
L133.38 160.278
L133.529 157.992
L133.678 162.514
L133.901 192.404
L134.347 273.432
L134.422 276.158
L134.496 274.889
L134.719 242.447
L135.314 128.182
L135.389 127.362
L135.538 132.896
L135.91 177.069
L136.207 204.031
L136.282 206.035
L136.356 205.764
L136.505 203.725
L136.654 205.675
L136.877 209.595
L136.951 208.978
L137.249 202.925
L137.323 202.831
L137.398 202.53
L137.546 199.123
L137.993 184.386
L138.067 184.904
L138.142 184.697
L138.216 184.751
L138.439 190.212
L138.514 190.187
L138.588 189.595
L138.662 189.753
L138.96 192.394
L139.109 193.342
L139.258 191.021
L139.778 176.398
L139.853 176.092
L140.002 177.326
L140.15 180.51
L140.522 196.986
L140.746 204.618
L140.894 205.364
L141.118 208.415
L141.192 207.526
L141.415 198.891
L141.787 181.572
L141.936 181.098
L142.01 181.167
L142.234 186.01
L142.754 203.69
L142.829 202.91
L143.126 190.133
L143.573 175.326
L143.647 175.272
L143.796 178.047
L145.21 211.93
L145.358 207.393
L145.73 184.914
L146.028 173.297
L146.177 171.436
L146.326 174.082
L146.474 177.03
L146.549 176.709
L146.772 174.028
L146.921 177.602
L147.144 189.98
L147.442 205.359
L147.665 207.521
L147.739 207.541
L147.962 212.765
L148.186 217.776
L148.558 201.572
L148.781 184.356
L149.004 167.333
L149.078 167.052
L149.227 171.628
L149.525 183.181
L149.897 187.891
L150.046 189.837
L150.194 183.512
L150.566 165.24
L150.641 166.36
L150.864 181.893
L151.459 239.761
L151.534 240.329
L151.682 234.987
L151.906 217.055
L152.575 153.114
L152.798 150.325
L153.022 156.856
L153.766 198.496
L153.914 198.901
L154.138 206.08
L154.361 213.229
L154.435 213.461
L154.658 217.682
L154.956 246.372
L155.03 245.819
L155.551 217.208
L155.7 175.074
L155.998 87.5488
L156.072 89.5582
L156.444 122.844
L156.518 122.553
L156.667 141.433
L157.337 277.184
L157.411 275.101
L157.634 236.823
L158.155 134.195
L158.304 155.869
L158.825 293.62
L158.974 260.971
L159.346 135.656
L159.643 110.339
L159.718 112.955
L159.792 111.499
L159.941 115.621
L160.09 143.003
L160.536 273.279
L160.61 277.402
L160.685 276.77
L160.834 261.193
L161.131 190.547
L161.429 136.52
L161.578 131.608
L161.652 131.089
L161.801 143.032
L162.247 201.607
L162.545 258.33
L162.619 260.907
L162.917 246.071
L163.14 184.796
L163.363 162.875
L163.512 130.991
L163.661 105.925
L164.107 142.193
L164.256 168.478
L164.702 249.754
L165 276.306
L165.149 283.43
L165.223 283.356
L165.372 277.278
L165.521 256.809
L165.818 157.019
L166.042 99.6942
L166.19 93.7252
L166.265 94.1004
L166.414 105.421
L166.711 186.163
L166.934 227.556
L167.009 226.515
L167.753 179.557
L167.976 155.583
L168.05 156.412
L168.274 171.658
L168.571 202.797
L168.943 245.671
L169.018 247.028
L169.092 244.91
L169.241 231.042
L169.836 153.297
L170.282 183.023
L170.729 226.169
L170.878 216.413
L171.25 176.541
L171.324 175.055
L171.547 180.002
L171.622 179.641
L171.77 173.421
L172.068 159.651
L172.142 159.982
L172.291 164.277
L172.663 196.828
L172.961 220.541
L173.258 230.257
L173.333 230.953
L173.407 230.212
L173.556 224.248
L173.779 196.324
L174.151 153.386
L174.226 152.675
L174.3 154.788
L175.118 205.813
L175.193 206.43
L175.342 202.421
L175.788 181.986
L175.862 182.544
L176.086 187.289
L176.532 210.923
L176.83 199.296
L177.202 180.683
L177.35 181.616
L177.574 184.756
L177.797 181.833
L178.02 179.113
L178.094 179.355
L178.318 185.462
L178.392 185.013
L178.466 184.149
L178.541 184.317
L179.21 199.558
L179.508 213.54
L179.582 213.441
L179.731 210.997
L179.954 200.674
L180.326 182.505
L180.55 178.116
L180.624 177.434
L180.698 177.894
L180.922 181.68
L180.996 181.527
L181.219 184.475
L181.294 183.942
L181.368 183.601
L181.517 186.632
L181.889 199.089
L182.335 204.209
L182.41 203.932
L182.633 195.193
L183.079 178.353
L183.228 181.532
L183.526 188.938
L184.344 204.056
L184.418 203.428
L184.716 191.955
L185.014 184.944
L185.162 183.966
L185.237 184.435
L185.311 183.951
L185.46 185.166
L185.683 188.533
L186.353 176.314
L186.502 181.29
L186.948 210.281
L187.097 212.562
L187.246 211.16
L187.32 211.377
L187.469 212.621
L187.543 212.068
L187.692 206.697
L188.138 185.013
L188.585 176.003
L188.734 174.724
L188.808 174.882
L188.882 174.729
L189.106 171.949
L189.329 178.876
L190.296 207.117
L190.37 206.228
L190.668 202.999
L190.817 201.937
L190.891 201.987
L191.04 203.162
L191.114 202.737
L191.263 201.118
L191.338 201.468
L191.412 201.123
L191.561 194.601
L191.933 165.452
L192.007 165.743
L192.156 169.259
L192.305 180.416
L192.677 219.622
L192.751 219.504
L192.9 208.247
L193.123 187.521
L193.198 187.19
L193.346 188.439
L193.421 187.259
L193.57 178.274
L193.793 168.765
L193.942 173.401
L194.09 184.406
L194.314 203.132
L194.462 195.899
L194.76 156.802
L194.834 157.108
L194.983 177.257
L195.281 225.73
L195.355 222.659
L195.653 188.864
L195.727 189.451
L195.876 199.247
L196.248 223.3
L196.471 231.832
L196.546 231.511
L196.694 215.204
L197.29 124.316
L197.364 121.082
L197.438 125.051
L197.587 157.187
L197.885 244.204
L197.959 244.17
L198.108 241.602
L198.182 235.085
L198.629 112.57
L198.703 115.019
L198.926 135.622
L199.224 203.715
L199.596 259.124
L199.745 272.035
L199.819 271.304
L200.117 236.043
L200.638 171.327
L200.786 160.322
L200.861 160.925
L200.935 162.593
L201.158 143.803
L201.382 132.738
L202.126 186.553
L202.2 183.769
L202.274 173.193
L202.349 177.504
L202.795 314.08
L202.944 298.928
L203.167 241.104
L203.762 82.6857
L203.911 91.3455
L204.06 71.9376
L204.358 176.857
L204.655 296.4
L204.73 304.986
L204.804 303.411
L205.102 238.216
L205.622 130.033
L205.697 128.221
L205.846 136.886
L205.994 191.866
L206.143 224.224
L206.366 179.646
L206.441 180.639
L206.813 192.666
L206.887 193.273
L207.036 180.579
L207.408 156.847
L207.78 220.526
L207.854 221.681
L207.929 220.857
L208.078 214.478
L208.301 218.521
L208.45 222.279
L208.524 221.02
L209.045 185.823
L209.194 174.793
L209.64 129.559
L209.714 128.606
L209.863 137.804
L210.161 200.254
L210.384 226.771
L210.458 227.344
L210.607 220.847
L210.756 235.239
L211.054 275.17
L211.202 257.885
L211.872 118.722
L211.946 117.433
L212.095 124.424
L212.393 151.722
L212.765 207.689
L212.988 239.252
L213.062 240.946
L213.211 229.773
L213.806 145.545
L213.881 150.843
L214.104 225.443
L214.327 286.348
L214.402 288.9
L214.476 284.59
L214.699 240.531
L215.22 124.419
L215.518 89.2126
L215.592 92.7229
L215.815 127.875
L216.113 222.673
L216.336 280.808
L216.41 280.892
L216.559 262.571
L217.006 183.004
L217.154 170.794
L217.452 134.032
L217.526 133.237
L217.675 149.554
L218.196 264.866
L218.27 259.579
L218.94 174.729
L219.014 175.4
L219.238 207.877
L219.312 197.459
L219.61 96.3616
L219.684 102.553
L219.833 141.862
L219.982 202.481
L220.205 121.314
L220.8 280.033
L221.023 255.797
L221.47 170.779
L221.618 155.568
L221.693 156.407
L221.767 154.852
L221.99 138.14
L222.065 139.305
L222.214 133.133
L222.288 137.666
L222.586 214.014
L222.809 249.339
L222.883 248.682
L223.181 226.786
L223.553 182.776
L223.627 184.84
L223.776 211.323
L223.999 242.743
L224.148 206.386
L224.446 96.1691
L224.892 193.214
L224.966 191.609
L225.19 169.614
L225.338 195.302
L225.562 233.698
L225.636 234.587
L225.785 223.913
L226.38 170.804
L226.529 189.698
L226.826 225.818
L226.901 225.932
L227.05 224.624
L227.198 212.794
L227.645 161.117
L227.719 162.277
L227.794 160.791
L227.942 147.461
L228.166 114.575
L228.24 117.364
L228.686 206.963
L228.761 205.576
L228.835 200.111
L228.91 206.48
L229.207 264.881
L229.282 264.368
L229.356 257.589
L229.579 199.439
L229.654 203.522
L229.951 224.89
L230.1 213.757
L230.695 152.408
L230.77 155.41
L230.993 179.34
L231.067 174.467
L231.365 115.932
L231.439 121.595
L231.811 183.552
L231.96 186.543
L232.034 185.546
L232.109 193.12
L232.406 261.139
L232.481 264.743
L232.555 258.295
L233.002 169.308
L233.225 178.703
L233.299 171.707
L233.374 173.401
L233.597 233.58
L233.969 184.82
L234.043 192.7
L234.266 232.434
L234.49 261.47
L234.638 231.97
L235.085 99.3683
L235.159 97.2306
L235.457 71.7993
L235.531 75.4824
L236.35 303.667
L236.424 305.889
L236.573 282.314
L236.945 212.518
L237.168 235.861
L237.242 229.289
L237.763 121.265
L237.838 122.696
L238.135 172.102
L238.358 143.595
L238.433 144.015
L238.656 156.042
L238.954 205.063
L239.102 188.425
L239.177 190.577
L239.474 222.19
L239.623 202.811
L239.698 205.68
L239.995 233.022
L240.07 231.723
L240.218 216.161
L240.442 190.631
L240.59 209.56
L240.665 208.084
L241.26 141.917
L241.409 143.936
L241.632 159.36
L242.153 231.595
L242.227 233.52
L242.302 232.923
L242.525 225.453
L242.674 208.168
L243.12 145.274
L243.194 147.975
L243.418 196.521
L243.715 247.468
L243.938 255.876
L244.013 254.182
L244.162 223.434
L244.608 90.5111
L244.757 75.0085
L244.831 79.9061
L245.054 159.982
L245.278 206.065
L245.501 172.636
L245.575 176.18
L245.724 219.4
L246.022 321.481
L246.096 321.515
L246.245 293.512
L246.84 145.733
L247.286 70.6243
L247.435 105.974
L247.733 199.35
L248.179 261.968
L248.254 261.499
L248.402 248.381
L248.626 226.312
L248.774 217.707
L248.998 176.151
L249.295 121.595
L249.37 122.148
L249.667 167.466
L249.965 211.293
L250.039 206.178
L250.337 159.058
L250.411 159.626
L251.006 279.456
L251.081 273.255
L251.602 127.243
L251.676 131.292
L251.899 159.606
L251.974 156.985
L252.048 149.233
L252.197 190.088
L252.42 235.772
L252.569 228.085
L252.792 269.29
L252.866 269.246
L253.164 185.102
L253.61 87.0057
L253.834 114.155
L253.982 150.097
L254.354 288.767
L254.503 306.714
L254.578 302.265
L254.726 269.715
L255.247 96.5887
L255.619 207.985
L255.694 205.028
L255.991 144.716
L256.066 148.216
L256.438 249.561
L256.586 227.759
L256.884 197.696
L257.033 192.266
L257.182 169.658
L257.405 137.972
L257.926 207.709
L258.074 194.018
L258.298 132.99
L258.372 136.377
L258.67 248.909
L258.893 343.554
L258.967 326.121
L259.339 123.629
L259.562 152.186
L259.711 146.242
L259.934 125.446
L260.009 131.104
L260.306 203.848
L260.381 197.232
L260.455 207.902
L260.604 251.432
L260.678 243.918
L260.976 133.642
L261.05 150.023
L261.274 318.158
L261.497 121.24
L261.571 122.055
L261.943 217.801
L262.092 237.598
L262.241 193.539
L262.315 198.63
L262.39 203.463
L262.464 200.19
L262.613 223.681
L262.762 203.34
L262.836 243.814
L263.134 121.511
L263.357 201.296
L263.506 152.744
L263.58 187.274
L263.654 184.633
L263.803 139.966
L263.952 204.608
L264.026 202.525
L264.101 196.126
L264.324 209.319
L264.398 209.279
L264.547 206.998
L264.622 208.691
L264.77 222.698
L264.845 221.967
L264.994 220.708
L265.217 206.465
L265.366 179.557
L265.738 115.853
L265.812 110.946
L266.407 246.11
L266.63 318.879
L266.779 284.546
L267.374 99.1659
L267.449 113.479
L267.672 213.846
L267.746 206.677
L267.895 167.807
L268.267 203.394
L268.342 216.981
L268.416 214.349
L268.639 200.387
L268.714 197.227
L268.937 163.798
L269.086 169.915
L269.309 107.998
L269.383 92.3625
L269.532 142.159
L269.83 251.013
L270.053 220.97
L270.127 221.819
L270.425 237.164
L270.499 236.409
L270.722 225.063
L270.797 226.085
L270.946 253.17
L271.094 227.028
L271.69 77.7831
L271.838 117.211
L272.21 262.566
L272.359 257.263
L272.508 266.165
L272.657 226.638
L273.029 109.796
L273.178 95.1273
L273.326 117.083
L273.773 217.524
L274.219 249.092
L274.294 247.981
L274.814 222.55
L275.261 181.004
L275.41 175.494
L275.93 145.792
L276.005 145.95
L276.154 150.438
L276.377 169.254
L276.674 196.887
L276.972 203.646
L277.195 210.523
L277.493 213.342
L277.642 209.891
L277.79 206.761
L278.014 219.978
L278.162 206.05
L278.386 188.212
L278.683 171.228
L278.981 142.588
L279.055 143.694
L279.204 164.692
L279.502 213.871
L279.576 214.275
L279.725 206.169
L279.948 192.078
L280.022 192.053
L280.171 204.446
L280.394 228.292
L280.469 230.257
L280.543 227.127
L281.138 146.928
L281.213 147.259
L281.51 193.678
L281.659 192.271
L281.808 196.704
L282.031 216.986
L282.106 214.182
L282.478 172.956
L282.552 174.067
L282.775 194.808
L283.073 223.967
L283.222 213.367
L283.668 158.288
L283.891 166.509
L284.189 190.039
L284.561 218.961
L284.635 218.65
L284.858 197.771
L285.23 169.328
L285.305 168.128
L285.379 168.824
L285.528 174.605
L285.9 193.821
L286.123 200.412
L286.198 199.652
L286.421 194.961
L286.57 202.945
L286.793 217.568
L286.867 216.685
L287.165 201.073
L287.686 166.849
L287.76 166.42
L287.909 171.821
L288.281 190.977
L288.578 186.361
L288.802 181.443
L288.876 182.579
L289.025 193.263
L289.322 218.181
L289.397 217.845
L289.546 212.676
L290.066 188.118
L290.141 186.005
L290.215 188.894
L290.438 219.869
L290.513 218.432
L290.662 200.679
L290.959 163.675
L291.257 121.822
L291.48 132.082
L291.629 177.025
L291.926 267.74
L292.224 243.242
L292.596 203.863
L292.968 77.2845
L293.117 134.476
L293.34 194.902
L293.935 328.081
L294.084 241.933
L294.307 137.054
L294.382 134.98
L294.456 135.686
L294.53 136.106
L294.679 156.16
L294.977 211.985
L295.274 173.934
L295.572 112.649
L295.646 113.489
L295.87 155.578
L296.539 305.82
L297.581 120.899
L297.73 114.57
L297.804 117.009
L298.25 162.825
L298.474 218.131
L298.548 217.613
L298.697 246.633
L298.92 182.668
L298.994 193.49
L299.292 319.664
L299.441 289.369
L299.887 133.81
L300.259 81.0614
L300.408 104.024
L301.152 289.483
L301.226 284.383
L301.375 264.595
L302.119 126.972
L302.194 125.738
L302.342 142.193
L302.64 190.666
L302.863 202.219
L303.161 238.112
L303.31 229.541
L303.682 188.099
L303.756 191.007
L303.905 195.598
L304.054 188.548
L304.277 175.692
L304.351 175.632
L304.649 185.492
L304.798 186.242
L304.946 189.323
L305.17 197.198
L305.244 197.341
L305.393 192.142
L306.062 155.884
L306.211 170.587
L306.509 216.793
L306.583 219.321
L306.658 218.709
L306.955 210.582
L307.03 211.461
L307.253 219
L307.402 206.954
L307.774 147.041
L307.848 147.831
L307.997 159.073
L308.518 217.41
L308.666 219.015
L308.741 218.837
L308.89 211.55
L309.187 193.559
L309.262 194.695
L309.485 203.399
L309.634 193.791
L309.857 177.094
L309.931 177.484
L310.006 177.01
L310.303 171.89
L310.675 183.092
L310.898 188.267
L311.27 210.39
L311.419 222.219
L311.494 220.57
L311.717 164.277
L311.866 137.276
L311.94 141.344
L312.312 183.665
L312.386 184.396
L312.535 196.813
L313.056 257.594
L313.205 261.203
L313.279 260.334
L313.428 215.796
L313.726 109.707
L313.949 131.405
L314.916 239.228
L314.99 239.445
L315.139 231.116
L315.362 197.593
L315.66 156.353
L315.809 176.802
L316.032 202.308
L316.33 179.478
L316.478 162.292
L316.553 166.198
L316.85 239.662
L316.999 219.766
L317.446 145.792
L317.594 159.305
L318.041 223.133
L318.115 226.179
L318.264 198.012
L318.413 166.336
L318.487 168.108
L318.785 219.454
L318.859 217.223
L319.306 182.688
L319.38 182.312
L319.603 177.839
L319.901 169.352
L319.975 169.639
L320.198 180.234
L320.57 219.756
L320.794 242.531
L320.868 243.933
L320.942 241.706
L321.166 215.505
L321.612 150.789
L321.91 142.647
L322.058 150.567
L322.877 213.194
L323.026 211.2
L323.174 208.114
L323.249 208.4
L323.546 212.982
L323.621 212.449
L323.77 207.368
L324.216 185.329
L324.29 184.623
L324.365 184.85
L324.514 185.754
L324.737 189.723
L324.811 189.728
L324.96 187.383
L325.406 169.135
L325.704 171.51
L325.853 180.964
L326.225 216.453
L326.374 210.227
L326.746 185.097
L326.82 185.586
L326.969 191.742
L327.266 203.7
L327.341 204.13
L327.49 202.54
L327.638 200.511
L327.862 204.001
L327.936 201.982
L328.159 180.703
L328.457 157.459
L328.531 157.538
L328.606 158.733
L328.829 171.115
L329.35 217.277
L329.498 212.513
L329.87 201.389
L329.945 199.76
L330.019 199.859
L330.317 206.47
L330.391 206.05
L330.689 191.165
L331.135 162.633
L331.507 178.644
L331.582 177.731
L331.73 173.154
L332.028 162.085
L332.102 163.235
L332.251 178.061
L332.698 247.497
L332.846 250.588
L333.07 245.671
L333.218 237.243
L333.442 198.61
L333.814 116.456
L333.888 114.812
L334.037 131.302
L334.558 220.605
L334.706 202.747
L334.93 175.879
L335.004 174.65
L335.153 183.739
L335.45 202.397
L335.525 202.762
L335.599 202.219
L335.674 202.253
L335.748 202.663
L335.897 204.406
L336.046 203.72
L336.343 201.898
L336.715 195.149
L336.79 195.82
L336.864 195.909
L337.087 186.218
L337.534 164.213
L337.608 163.161
L337.757 172.102
L338.129 210.434
L338.278 212.375
L338.352 211.609
L339.17 181.231
L339.468 187.876
L339.542 186.356
L339.691 184.406
L339.766 185.66
L340.138 203.305
L340.212 202.91
L340.361 195.416
L340.733 168.587
L340.807 166.859
L340.882 167.985
L341.105 188.059
L341.402 211.076
L341.477 211.501
L341.626 210.617
L341.7 210.824
L341.774 209.565
L342.146 195.351
L342.444 203.142
L342.518 203.517
L342.593 202.95
L342.742 196.857
L343.411 147.451
L343.486 146.992
L343.634 152.393
L343.932 189.906
L344.304 243.879
L344.527 256.058
L344.602 255.56
L344.75 232.849
L345.197 138.801
L345.271 135.987
L345.42 149.959
L345.718 180.989
L345.941 192.606
L346.164 209.916
L346.238 210.365
L346.462 218.936
L346.536 218.047
L346.685 196.102
L346.834 175.603
L347.057 200.555
L347.131 199.745
L347.28 184.1
L347.354 184.361
L347.503 190.113
L347.652 164.919
L347.801 136.594
L347.875 136.871
L348.024 159.093
L348.396 224.1
L348.619 233.639
L348.842 232.429
L348.991 232.721
L349.066 229.985
L349.289 199.503
L349.512 179.38
L350.107 154.21
L350.405 126.774
L350.554 136.767
L350.777 179.083
L351.074 240.951
L351.223 250.287
L351.298 249.482
L351.521 234.325
L351.967 205.788
L352.265 198.141
L352.637 167.55
L352.934 142.499
L353.009 139.453
L353.083 139.942
L353.232 153.312
L353.753 216.492
L353.976 225.809
L354.05 225.196
L354.199 219.504
L354.497 192.942
L354.794 164.998
L354.869 165.156
L355.092 184.712
L355.39 206.603
L355.613 201.854
L355.91 195.504
L356.431 176.245
L356.506 176.383
L356.654 180.555
L356.878 189.891
L356.952 189.017
L357.101 182.678
L357.175 182.831
L357.622 216.551
L357.696 215.816
L357.919 205.349
L358.44 173.016
L358.514 172.448
L358.886 176.329
L358.961 175.534
L359.035 175.706
L359.184 182.238
L359.705 218.344
L359.854 213.318
L360.449 180.747
L360.523 179.75
L360.598 179.957
L360.672 180.337
L360.821 186.129
L361.118 200.042
L361.193 199.558
L361.416 192.784
L361.639 186.588
L361.937 191.515
L362.011 190.701
L362.458 183.907
L362.755 173.218
L362.83 173.692
L363.276 196.289
L363.574 200.945
L363.871 208.4
L363.946 208.672
L364.094 210.405
L364.243 207.497
L364.615 189.244
L364.913 171.406
L365.062 163.61
L365.136 164.346
L365.359 176.319
L365.88 209.309
L366.103 212.419
L366.178 212.157
L366.326 209.205
L366.475 198.348
L366.922 153.381
L367.07 164.776
L367.517 212.217
L367.591 213.569
L367.666 213.239
L367.963 208.524
L368.112 212.029
L368.261 216.897
L368.335 216.532
L368.484 209.244
L368.707 182.174
L369.079 127.293
L369.154 128.048
L369.302 143.768
L369.749 213.505
L369.898 218.215
L370.195 210.271
L370.27 211.407
L370.716 222.377
L370.939 212.651
L371.237 192.231
L371.683 145.15
L371.758 145.195
L371.906 155.099
L372.353 196.136
L372.502 199.276
L372.576 199.494
L372.725 196.788
L373.022 186.998
L373.097 187.63
L373.32 203.448
L373.543 215.678
L373.692 213.332
L373.99 224.564
L374.138 211.718
L374.51 158.535
L374.585 157.839
L374.734 165.348
L375.106 188.252
L375.18 188.681
L375.254 188.415
L375.403 186.993
L375.478 186.874
L375.552 187.343
L375.924 204.051
L376.147 183.087
L376.445 161.088
L376.519 159.666
L376.668 171.342
L377.114 227.981
L377.189 226.944
L377.933 197.203
L378.156 192.503
L378.23 192.587
L378.379 194.877
L378.454 193.431
L378.602 181.631
L378.826 163.314
L378.9 161.7
L378.974 162.09
L379.123 165.368
L380.016 207.329
L380.239 220.402
L380.314 219.894
L380.537 209.323
L381.132 175.474
L381.43 170.434
L381.653 175.568
L382.025 185.61
L382.174 187.027
L382.322 191.579
L382.769 218.877
L382.843 218.857
L382.992 215.446
L383.364 195.05
L383.587 187.644
L384.108 178.748
L384.331 174.502
L384.48 173.184
L384.554 173.791
L384.703 177.815
L385.298 200.501
L385.596 204.209
L385.67 204.06
L385.819 199.069
L386.042 189.318
L386.117 189.358
L386.191 188.864
L386.414 176.867
L386.638 164.746
L386.712 163.926
L386.786 165.896
L386.935 178.703
L387.456 243.918
L387.605 233.525
L388.274 166.114
L388.423 161.231
L388.498 161.715
L388.795 172.221
L389.093 182.056
L389.316 180.836
L389.39 181.182
L389.911 192.187
L390.06 194.231
L390.209 200.377
L390.581 225.868
L390.655 226.574
L390.73 225.285
L391.102 197.667
L391.548 171.056
L391.771 166.518
L391.846 166.385
L391.92 166.474
L392.069 172.073
L392.59 197.272
L392.813 203.113
L392.887 202.811
L393.036 200.476
L393.408 189.15
L393.482 189.387
L394.152 196.645
L394.226 196.072
L394.375 194.729
L394.524 196.674
L394.598 196.492
L394.822 190.612
L395.342 168.868
L395.417 170.029
L395.566 178.965
L396.086 221.049
L396.235 216.892
L396.83 184.727
L397.054 182.14
L397.128 182.219
L397.202 182.485
L397.351 183.601
L397.426 183.502
L397.723 181.246
L398.095 185.645
L398.393 187.437
L398.765 197.514
L398.988 196.284
L399.434 202.209
L399.509 202.416
L399.583 201.666
L399.806 192.868
L400.104 186.183
L400.402 179.177
L400.476 179.014
L400.625 184.939
L400.922 198.955
L400.997 198.338
L401.146 191.407
L401.443 173.105
L401.518 173.401
L401.741 184.425
L402.038 195.188
L402.336 206.672
L402.634 218.837
L402.782 215.149
L403.154 194.784
L403.601 171.52
L403.675 171.303
L403.824 173.791
L404.345 192.868
L404.419 192.7
L404.568 188.612
L404.94 169.94
L405.014 171.515
L405.238 188.262
L405.61 217.109
L405.833 221.143
L405.907 220.911
L406.056 217.712
L406.279 209.462
L406.577 188.553
L407.023 149.856
L407.098 148.977
L407.246 153.751
L407.47 174.605
L407.842 214.784
L407.916 215.288
L408.139 206.899
L408.362 198.166
L408.437 197.775
L408.511 197.909
L408.66 197.879
L408.883 201.296
L408.958 200.807
L409.106 196.887
L409.627 177.918
L409.702 177.681
L409.925 178.294
L410.074 177.805
L410.297 174.665
L410.446 185.383
L410.818 228.425
L410.892 228.094
L411.934 167.461
L412.157 153.953
L412.231 153.702
L412.38 160.821
L413.05 206.386
L413.124 206.119
L413.422 198.358
L413.496 198.812
L413.794 201.819
L413.868 202.184
L413.942 202.081
L414.091 199.257
L414.314 194.033
L414.835 190.547
L415.133 185.921
L415.207 185.887
L415.356 184.43
L415.579 177.834
L415.877 170.908
L415.951 169.871
L416.1 173.174
L416.398 189.372
L416.695 200.841
L416.993 212.434
L417.588 243.597
L417.737 229.966
L418.034 161.418
L418.332 113.138
L418.406 110.753
L418.481 113.153
L418.63 129.006
L419.299 231.022
L419.448 233.777
L419.522 233.718
L419.671 230.282
L419.969 215.668
L420.564 177.657
L420.862 170.764
L421.01 168.35
L421.085 168.632
L421.234 172.181
L421.531 180.782
L421.68 181.68
L421.829 185.615
L422.126 203.038
L422.424 222.101
L422.498 221.069
L422.722 200.244
L423.094 168.868
L423.168 167.93
L423.242 169.259
L423.391 184.307
L423.763 230.119
L423.838 229.383
L423.986 217.889
L424.582 145.921
L424.73 158.708
L425.028 187.447
L425.177 175.731
L425.4 161.28
L425.549 174.043
L425.995 245.779
L426.144 239.302
L426.739 195.065
L426.962 186.613
L427.186 179.992
L427.632 164.208
L427.93 155.395
L428.004 155.469
L428.153 162.845
L428.45 192.004
L428.822 238.611
L428.897 240.971
L429.046 236.458
L429.269 212.844
L429.566 187.753
L429.641 187.467
L429.79 190.775
L429.938 194.828
L430.013 194.808
L430.31 183.808
L430.906 160.09
L430.98 159.922
L431.203 162.88
L431.278 163.299
L431.352 162.351
L431.426 162.638
L431.575 168.32
L431.873 194.927
L432.394 255.076
L432.468 255.101
L432.691 241.104
L433.212 195.559
L433.882 151.085
L434.03 150.285
L434.105 150.813
L434.254 154.941
L434.7 175.287
L434.774 174.536
L435.146 170.503
L435.295 177.504
L435.593 215.984
L435.89 251.185
L436.039 255.871
L436.114 254.671
L436.337 236.305
L437.453 146.049
L437.676 139.912
L437.825 147.259
L439.015 221.41
L439.09 222.066
L439.164 221.834
L439.313 217.519
L440.057 185.744
L440.131 185.758
L440.429 192.488
L440.578 191.92
L440.801 187.17
L441.247 177.583
L441.322 176.995
L441.47 182.125
L441.842 195.203
L441.917 195.341
L442.066 193.855
L442.289 190.799
L442.363 191.086
L442.661 195.361
L442.81 194.537
L442.884 193.238
L443.033 194.961
L443.33 200.53
L443.479 195.297
L443.926 173.406
L444 172.468
L444.149 175.03
L444.446 184.396
L445.116 207.689
L445.19 207.67
L445.339 207.887
L445.488 205.927
L445.86 197.336
L445.934 197.346
L446.232 201.513
L446.381 195.608
L446.902 160.036
L447.125 172.334
L447.571 198.383
L447.646 197.459
L448.018 188.963
L448.092 189.402
L448.39 196.265
L448.687 210.755
L448.762 210.173
L448.985 200.94
L449.208 190.873
L449.357 190.345
L449.506 190.533
L449.58 190.36
L449.729 186.529
L449.878 180.574
L449.878 180.574" style="fill:none;stroke:#808080;stroke-linecap:square;"/>
   </g>
  </g>
 </g>
 <defs>
  <clipPath id="p7ff5b81e1d">
   <rect height="345.6" width="446.4" x="72.0" y="43.2"/>
  </clipPath>
 </defs>
</svg>
