<?xml version="1.0" encoding="utf-8" standalone="no"?>
<!DOCTYPE svg PUBLIC "-//W3C//DTD SVG 1.1//EN"
  "http://www.w3.org/Graphics/SVG/1.1/DTD/svg11.dtd">
<!-- Created with matplotlib (http://matplotlib.org/) -->
<svg height="432pt" version="1.1" viewBox="0 0 576 432" width="576pt" xmlns="http://www.w3.org/2000/svg" xmlns:xlink="http://www.w3.org/1999/xlink">
 <defs>
  <style type="text/css">
*{stroke-linecap:butt;stroke-linejoin:round;}
  </style>
 </defs>
 <g id="figure_1">
  <g id="patch_1">
   <path d="
M0 432
L576 432
L576 0
L0 0
z
" style="fill:#ffffff;"/>
  </g>
  <g id="axes_1">
   <g id="line2d_1">
    <path clip-path="url(#p7ff5b81e1d)" d="
M72 309.83
L72.1488 293.644
L72.6696 187.441
L72.744 188.27
L72.8928 192.602
L72.9672 189.935
L73.1904 151.228
L73.4136 96.0471
L73.488 96.6922
L73.6368 129.167
L74.232 349.741
L74.3064 352.805
L74.3808 350.092
L74.5296 328.607
L74.8272 243.716
L75.2736 121.881
L75.348 115.988
L75.4224 116.144
L75.5712 127.658
L76.0176 194.163
L76.3152 222.22
L76.6872 236.194
L76.836 237.651
L77.58 260.219
L77.6544 259.464
L77.8776 243.952
L78.4728 186.946
L78.6216 190.246
L79.068 204.779
L79.2912 206.029
L79.3656 205.792
L79.5144 206.075
L79.5888 204.79
L79.9608 189.566
L80.0352 190.223
L80.184 196.709
L80.4816 212.203
L80.6304 216.471
L80.8536 235.174
L81.0768 252.592
L81.2256 255.398
L81.4488 249.373
L81.5232 250.3
L81.5976 250.288
L81.672 249.609
L81.9696 239.517
L82.1928 215.855
L82.5648 175.587
L82.8624 164.758
L83.0856 161.515
L83.16 162.327
L83.3088 173.761
L83.532 213.931
L83.904 283.691
L84.0528 290.585
L84.2016 282.043
L84.648 214.386
L85.02 174.608
L85.2432 167.725
L85.392 169.337
L85.5408 172.586
L85.6896 187.435
L86.2104 246.302
L86.4336 251.417
L86.6568 234.155
L87.1032 206.501
L87.1776 206.317
L87.4752 223.867
L87.7728 236.741
L87.8472 237.864
L87.9216 236.85
L88.1448 225.503
L88.5912 205.516
L88.74 203.69
L88.8888 199.347
L88.9632 199.474
L89.0376 198.673
L89.112 199.33
L89.3352 197.095
L89.4096 197.446
L89.7072 201.398
L89.7816 202.043
L89.9304 207.935
L90.3024 226.903
L90.6 233.106
L90.7488 235.848
L90.8232 235.318
L91.1952 226.868
L91.5672 209.554
L91.7904 207.814
L91.9392 209.156
L92.3856 216.103
L92.46 216.068
L92.6088 213.396
L92.9064 206.956
L92.9808 207.526
L93.5016 220.596
L93.6504 222.393
L93.8736 226.027
L93.948 225.843
L94.32 216.875
L94.5432 207.117
L94.692 206.414
L95.2872 215.7
L95.3616 215.999
L95.5848 220.394
L95.6592 220.463
L95.9568 222.289
L96.0312 222.145
L96.18 218.983
L96.2544 219.081
L96.4032 221.2
L96.4776 220.267
L97.0728 200.712
L97.1472 200.009
L97.2216 200.747
L97.5192 210.337
L98.04 222.998
L98.412 240.554
L98.4864 241.165
L98.5608 240.289
L99.0072 211.489
L99.3048 187.165
L99.3792 185.759
L99.4536 186.191
L99.6024 190.528
L100.049 213.182
L100.198 210.999
L100.272 208.459
L100.495 214.265
L100.718 224.973
L101.165 257.558
L101.239 257.506
L101.314 256.204
L101.462 246.061
L102.058 190.742
L102.132 188.512
L102.206 188.553
L102.281 188.979
L102.504 175.852
L102.578 176.883
L103.099 210.994
L103.174 212.434
L103.397 232.876
L103.694 255.703
L103.769 256.452
L103.918 250.421
L104.29 203.131
L104.587 177.695
L104.736 174.999
L104.81 175.155
L104.959 183.611
L105.182 219.271
L105.554 279.146
L105.629 282.228
L105.703 281.197
L105.926 258.128
L106.67 162.414
L106.819 168.612
L107.117 186.208
L107.34 192.205
L107.563 224.368
L107.861 258.139
L108.01 255.766
L108.158 243.998
L108.456 221.69
L108.679 225.054
L108.754 223.781
L108.977 209.087
L109.349 183.91
L109.423 185.212
L109.572 197.579
L110.093 267.614
L110.167 265.91
L110.39 228.014
L110.762 164.557
L110.837 163.37
L110.986 175.702
L111.581 259.47
L111.655 259.228
L111.804 248.428
L112.325 178.692
L112.399 180.391
L112.846 212.491
L113.069 228.107
L113.218 228.458
L113.366 227.035
L113.515 220.089
L113.813 205.637
L113.962 202.728
L114.11 211.593
L114.631 248.958
L114.706 249.355
L114.78 248.054
L115.45 194.774
L115.598 191.796
L115.673 193.201
L116.045 207.422
L116.268 211.092
L116.342 210.59
L116.64 205.959
L116.789 216.218
L117.235 247.552
L117.31 249.43
L117.384 247.956
L117.682 224.069
L117.979 200.862
L118.202 186.6
L118.277 186.744
L118.351 188.363
L118.5 201.766
L118.872 242.651
L119.021 244.442
L119.318 215.446
L119.616 190.01
L119.69 190.891
L120.658 228.458
L120.732 227.456
L120.955 212.284
L121.178 202.014
L121.253 200.597
L121.327 200.62
L121.402 201.04
L121.55 208.281
L121.699 224.391
L122.071 272.649
L122.146 272.326
L122.294 259.994
L122.815 191.11
L122.964 185.753
L123.038 185.765
L123.113 186.381
L123.187 186.295
L123.336 186.485
L123.41 187.211
L123.559 191.882
L123.857 204.076
L124.154 211.287
L124.229 211.46
L124.452 215.354
L124.824 208.321
L124.973 212.918
L125.122 221.742
L125.345 238.285
L125.494 242.052
L125.642 239.223
L125.866 227.732
L125.94 228.567
L126.014 228.475
L126.461 221.039
L126.758 231.494
L127.205 222.721
L127.726 187.625
L127.8 189.077
L128.023 199.537
L128.098 199.324
L128.47 190.235
L128.544 189.123
L128.693 194.808
L129.065 223.545
L129.362 244.862
L129.511 247.898
L129.734 241.447
L129.809 242.161
L129.958 238.619
L130.33 225.734
L130.404 225.388
L130.553 220.901
L130.925 201.645
L130.999 200.274
L131.297 204.324
L131.446 207.296
L131.52 206.823
L132.041 183.052
L132.19 194.192
L132.859 252.276
L132.934 252.736
L133.082 246.55
L133.752 196.617
L133.826 197.469
L133.975 211.737
L134.124 222.462
L134.57 185.552
L134.645 186.79
L135.166 234.915
L135.538 266.762
L135.612 265.431
L135.835 254.631
L136.356 200.879
L137.026 178.352
L137.174 181.837
L137.398 195.252
L137.621 212.18
L137.695 212.088
L137.918 203.99
L137.993 204.41
L138.067 204.635
L138.216 211.748
L138.662 243.06
L138.811 247.385
L138.886 247.115
L139.183 242.668
L139.481 229.656
L139.704 218.827
L139.853 219.374
L140.002 215.538
L140.448 189.975
L140.597 190.886
L140.746 195.545
L141.266 226.413
L141.341 226.258
L141.564 213.165
L141.638 213.177
L141.713 212.71
L141.787 213.165
L142.01 224.138
L142.234 221.327
L142.457 217.272
L142.903 230.232
L142.978 228.112
L143.35 207.376
L143.424 209.617
L143.722 217.266
L143.796 217.197
L144.242 196.386
L144.391 194.739
L144.466 195.672
L144.986 232.496
L145.061 231.845
L145.135 230.486
L145.656 205.648
L145.73 206.052
L145.805 205.309
L145.954 210.228
L146.4 227.191
L146.623 232.398
L146.698 233.36
L147.144 213.154
L147.516 225.215
L147.59 225.152
L147.665 223.798
L147.739 224.19
L147.814 225.924
L147.888 224.933
L148.186 212.63
L148.26 212.843
L148.334 212.802
L148.632 203.788
L149.004 189.008
L149.302 193.149
L150.12 241.458
L150.269 238.319
L151.534 203.753
L151.757 210.441
L152.129 227.721
L152.352 217.646
L152.724 197.521
L152.873 200.251
L153.17 211.368
L153.245 211.276
L153.468 215.245
L153.691 218.914
L153.914 214.023
L154.212 222.174
L154.435 232.19
L154.51 232.841
L154.658 230.854
L154.807 223.66
L155.179 199.618
L155.254 201.415
L155.849 238.711
L155.998 232.622
L156.295 218.274
L156.444 216.748
L156.518 216.437
L156.816 202.538
L157.337 181.059
L157.486 183.196
L157.634 189.365
L158.155 224.363
L158.602 289.059
L158.75 288.581
L158.899 276.859
L159.197 221.799
L159.494 165.749
L159.718 154.834
L159.941 151.286
L160.09 164.309
L160.387 202.29
L160.759 248.555
L160.908 258.6
L160.982 258.295
L161.28 236.764
L161.429 227.542
L161.578 238.002
L161.726 247.23
L161.801 245.479
L162.024 205.493
L162.322 167.298
L162.694 196.565
L162.917 224.702
L163.289 273.472
L163.438 277.66
L163.586 268.179
L163.81 239.736
L164.405 125.492
L164.479 129.259
L164.702 175.973
L165 225.313
L165.149 234.091
L165.223 233.158
L165.595 214.519
L165.67 215.809
L166.339 266.301
L166.414 265.155
L166.637 249.131
L167.083 196.859
L167.306 164.263
L167.381 164.608
L167.976 196.455
L168.646 274.1
L168.794 263.202
L169.018 218.804
L169.315 155.922
L169.39 155.116
L169.538 178.127
L169.836 225.215
L169.91 228.124
L170.059 221.534
L170.357 209.375
L170.431 208.033
L170.506 208.603
L170.654 211.76
L170.803 206.438
L170.952 201.622
L171.101 207.595
L171.25 220.002
L171.696 262.88
L171.994 278.357
L172.068 278.311
L172.217 264.251
L172.589 174.948
L172.812 129.207
L172.961 125.4
L173.11 137.669
L174.002 251.838
L174.077 251.285
L174.3 244.92
L174.374 245.807
L174.672 263.652
L174.746 261.952
L175.49 217.024
L176.16 161.659
L176.309 158.163
L176.383 158.307
L176.755 181.019
L177.425 263.462
L177.648 268.818
L177.871 256.809
L178.243 211.863
L178.318 209.496
L178.392 210.147
L178.466 210.959
L178.541 210.85
L178.69 211.069
L179.062 189.745
L179.136 189.186
L179.285 198.932
L179.657 235.756
L179.731 234.201
L180.103 205.792
L180.178 204.18
L180.326 209.519
L180.475 216.731
L180.624 225.687
L180.847 222.859
L181.294 206.023
L181.517 214.075
L181.74 222.203
L181.814 221.396
L181.963 223.487
L182.186 217.6
L182.41 211.967
L182.558 212.497
L182.707 214.386
L182.93 211.38
L183.228 202.492
L183.377 200.015
L183.526 207.25
L183.898 232.513
L184.121 236.326
L184.195 235.767
L184.344 230.739
L184.79 210.112
L184.865 210.516
L184.939 212.52
L185.014 212.48
L185.088 212.313
L185.162 211.397
L185.311 203.396
L185.46 194.791
L185.534 195.626
L186.204 238.169
L186.278 237.593
L186.502 226.695
L186.874 199.814
L187.097 188.881
L187.915 219.081
L188.51 237.392
L188.659 235.704
L188.734 235.986
L188.882 230.29
L189.775 194.353
L189.924 192.285
L190.073 186.911
L190.296 199.491
L190.742 232.784
L190.817 232.363
L190.891 230.647
L190.966 230.964
L191.114 232.461
L191.263 229.587
L191.338 229.604
L191.412 229.443
L191.486 229.817
L191.561 229.472
L192.007 213.879
L192.082 216.074
L192.379 224.184
L192.454 222.911
L192.751 209.565
L192.9 205.833
L193.049 206.414
L193.198 203.759
L193.57 188.023
L193.644 190.413
L194.314 238.406
L194.462 232.945
L194.537 233.406
L194.611 235.324
L194.76 225.008
L195.058 208.177
L195.206 204.479
L195.355 206.639
L195.43 206.19
L195.578 203.016
L195.727 209.519
L196.099 230.716
L196.397 224.726
L196.769 208.828
L196.918 206.126
L196.992 207.808
L197.141 214.392
L197.29 211.322
L197.364 211.668
L197.438 211.904
L197.513 211.858
L197.736 209.041
L197.81 209.001
L197.959 204.329
L198.034 207.469
L198.48 250.692
L198.629 233.429
L198.926 202.089
L199.075 199.255
L199.522 213.43
L199.596 213.73
L199.894 204.116
L199.968 204.865
L200.117 208.171
L200.414 253.295
L200.489 250.542
L200.786 203.414
L201.084 162.771
L201.679 262.085
L201.754 259.101
L202.126 208.972
L202.2 209.905
L202.423 206.391
L202.646 196.277
L202.721 196.68
L203.167 214.576
L203.242 214.3
L203.316 215.809
L203.539 226.43
L203.688 221.546
L203.986 208.678
L204.134 198.777
L204.209 199.842
L204.655 241.211
L204.73 238.884
L205.102 207.359
L205.176 208.782
L205.399 218.487
L205.622 211.069
L205.771 215.521
L205.92 210.579
L205.994 210.694
L206.069 212.105
L206.143 211.967
L206.292 208.626
L206.366 208.995
L206.515 217.042
L206.813 245.836
L206.887 244.459
L207.408 208.505
L207.706 153.693
L207.78 155.404
L208.598 248.1
L208.747 253.157
L208.822 254.073
L208.896 253.814
L209.045 245.801
L209.714 191.536
L209.789 193.028
L210.31 215.93
L210.458 217.433
L210.607 213.833
L210.756 204.744
L210.979 177.609
L211.054 181.03
L211.426 254.516
L211.5 248.86
L211.798 223.142
L212.021 213.062
L212.095 213.067
L212.318 222.525
L212.542 230.658
L212.616 230.681
L212.839 234.627
L212.988 226.488
L213.583 175.472
L213.658 173.392
L213.732 175.287
L213.881 200.038
L214.178 248.975
L214.327 234.961
L214.55 218.482
L214.774 214.271
L214.848 214.853
L214.997 212.606
L215.22 223.251
L215.443 218.741
L215.666 226.286
L215.741 225.682
L216.038 206.207
L216.187 198.011
L216.336 206.697
L216.708 231.263
L216.782 231.136
L217.229 213.159
L217.378 217.549
L217.601 225.924
L217.675 226.517
L217.75 224.501
L217.898 209.847
L218.196 175.391
L218.27 178.674
L218.642 239.195
L218.717 239.102
L219.238 194.295
L219.312 194.756
L219.461 206.535
L219.982 276.594
L220.056 274.924
L220.279 241.32
L220.8 143.285
L220.874 148.123
L221.395 240.992
L221.47 239.788
L221.767 222.894
L221.99 207.123
L222.065 206.564
L222.214 214.162
L222.362 219.979
L222.66 222.347
L222.734 222.306
L222.809 221.46
L223.181 208.212
L223.255 208.822
L223.404 218.499
L223.627 230.077
L223.999 222.398
L224.297 236.142
L224.371 233.054
L224.818 180.183
L224.892 181.762
L225.338 203.362
L225.413 202.999
L225.562 197.377
L225.636 201.069
L226.157 277.268
L226.231 274.78
L226.38 253.549
L226.826 170.564
L226.901 168.237
L227.05 187.297
L227.422 265.143
L227.496 263.703
L227.645 230.209
L227.942 150.992
L228.017 149.961
L228.166 165.766
L228.686 242.714
L228.761 240.986
L228.91 233.751
L229.058 239.99
L229.356 261.808
L229.505 246.539
L229.951 132.71
L230.026 141.401
L230.621 261.803
L230.918 240.519
L231.142 228.02
L231.29 226.269
L231.588 238.791
L231.662 237.783
L231.811 225.221
L232.406 168.422
L232.555 165.95
L232.63 168.686
L233.448 238.469
L233.671 245.865
L233.746 244.189
L234.266 217.589
L234.341 219.242
L234.787 251.417
L234.862 249.649
L235.159 226.736
L235.829 175.063
L235.978 170.305
L236.052 170.438
L236.126 170.27
L236.201 171.474
L236.424 189.14
L237.019 244.465
L237.242 250.525
L237.466 244.742
L237.614 246.93
L237.838 250.173
L237.912 250.012
L238.135 239.477
L238.358 216.592
L238.582 199.382
L239.177 185.736
L239.4 181.606
L239.474 182.522
L239.623 179.918
L239.698 181.14
L239.995 197.757
L240.665 256.653
L240.814 258.502
L240.962 254.113
L241.855 210.331
L242.004 211.454
L242.227 206.259
L242.599 193.61
L242.748 195.972
L242.897 202.066
L243.12 209.387
L243.269 212.964
L243.641 224.927
L243.715 224.743
L243.938 216.408
L244.087 219.547
L244.162 219.046
L244.236 219.254
L244.31 220.198
L244.385 219.95
L244.608 215.844
L244.757 216.466
L244.906 213.822
L245.054 218.292
L245.129 217.819
L245.203 216.172
L245.278 217.197
L245.724 231.027
L245.798 230.169
L246.245 211.766
L246.542 196.974
L246.617 195.102
L246.691 196.214
L246.989 211.587
L247.286 222.928
L247.435 219.76
L247.584 221.154
L247.807 209.991
L247.956 204.825
L248.477 220.377
L248.626 218.879
L248.7 219.104
L248.774 218.977
L249.295 228.153
L249.444 225.728
L249.742 230.094
L249.89 233.279
L249.965 233.031
L250.411 205.959
L250.783 183.904
L250.858 184.538
L251.155 194.416
L251.23 194.647
L251.527 212.935
L251.825 237.83
L251.974 243.641
L252.122 242.138
L252.494 229.679
L252.792 218.637
L252.941 215.124
L253.015 214.957
L253.536 206.006
L253.759 204.226
L253.834 204.548
L254.131 210.423
L254.354 217.877
L254.578 198.834
L254.726 211.368
L254.95 230.877
L255.098 233.256
L255.247 224.449
L255.545 206.818
L255.991 217.099
L256.14 215.786
L256.363 220.93
L256.586 229.489
L256.661 229.944
L256.735 229.385
L256.958 218.263
L257.405 196.697
L257.479 194.9
L257.628 205.239
L258 241.314
L258.074 240.744
L258.744 205.355
L259.042 196.404
L259.116 195.597
L259.265 198.224
L259.562 206.34
L259.711 210.711
L260.306 232.231
L260.381 231.269
L260.604 226.073
L260.902 220.809
L261.125 217.756
L261.348 214.265
L261.422 214.778
L261.794 222.923
L262.018 216.627
L262.166 220.636
L262.241 222.859
L262.315 222.197
L262.836 196.997
L262.985 200.096
L263.134 202.567
L263.208 202.411
L263.357 209.502
L263.729 227.634
L263.803 227.703
L263.878 226.753
L263.952 226.983
L264.101 227.565
L264.324 234.039
L264.547 228.47
L264.696 221.39
L264.919 209.703
L265.142 202.866
L265.217 203.039
L265.44 209.421
L265.514 209.064
L265.589 209.185
L265.886 220.198
L265.961 218.413
L266.11 212.244
L266.407 197.095
L266.556 199.261
L266.928 212.877
L267.449 250.242
L267.523 249.989
L267.598 248.036
L267.895 221.223
L268.118 204.041
L268.193 205.355
L268.49 217.629
L268.639 212.653
L268.937 201.962
L269.011 200.683
L269.086 201.04
L269.309 203.788
L269.532 204.842
L270.202 221.437
L270.425 228.619
L270.574 225.803
L271.094 214.536
L271.318 218.885
L271.541 226.304
L271.615 225.762
L271.69 225.878
L271.913 232.214
L272.062 223.36
L272.359 200.303
L272.434 198.062
L272.508 198.88
L272.954 210.763
L273.029 209.784
L273.103 208.845
L273.178 208.909
L273.475 216.08
L273.624 220.682
L273.698 218.574
L273.773 218.683
L273.996 220.832
L274.145 221.609
L274.219 221.408
L274.442 227.433
L274.517 226.638
L274.74 220.44
L274.814 220.803
L274.889 221.834
L274.963 220.918
L275.484 203.909
L275.633 207.641
L275.856 213.148
L275.93 213.194
L276.079 213.908
L276.154 212.704
L276.228 212.802
L276.526 224.777
L276.6 224.818
L276.972 218.05
L277.195 209.548
L277.27 210.124
L277.642 214.559
L277.716 214.622
L277.79 213.545
L277.865 213.874
L278.088 219.737
L278.386 217.67
L278.46 218.499
L278.534 218.096
L278.758 213.597
L278.906 211.057
L278.981 211.132
L279.427 228.573
L279.725 215.786
L279.799 215.878
L279.948 215.256
L280.246 209.116
L280.469 214.513
L280.543 213.753
L280.692 210.671
L280.766 211.466
L280.99 210.239
L281.51 220.987
L281.734 213.309
L281.808 214.012
L282.106 228.579
L282.254 237.104
L282.329 236.977
L282.478 229.155
L282.998 201.392
L283.147 199.364
L283.37 202.878
L283.668 211.627
L283.966 217.658
L284.04 220.141
L284.189 215.331
L284.263 215.74
L284.486 225.929
L284.561 226.298
L284.933 220.198
L285.082 218.534
L285.156 218.395
L285.602 212.272
L285.677 213.246
L285.751 212.941
L285.826 213.401
L285.974 216.414
L286.123 214.254
L286.421 219.173
L286.495 219.248
L286.57 217.756
L286.867 205.251
L287.09 200.724
L287.239 205.372
L287.686 233.861
L287.76 233.798
L287.909 229.184
L288.132 216.235
L288.281 216.074
L288.727 224.777
L289.471 204.099
L289.62 201.196
L289.694 202.498
L289.992 216.69
L290.066 217.462
L290.215 213.926
L290.29 214.582
L290.513 227.214
L290.662 223.706
L290.959 216.662
L291.108 215.371
L291.182 215.861
L291.257 215.774
L291.406 215.423
L291.554 211.61
L291.703 208.505
L291.778 208.995
L292.075 215.746
L292.373 226.92
L292.447 225.935
L292.67 220.457
L292.745 220.014
L293.117 215.429
L293.34 219.68
L293.489 215.901
L293.712 206.582
L293.861 207.411
L294.01 206.558
L294.084 206.916
L294.233 209.997
L294.456 217.629
L294.53 217.451
L294.679 215.227
L294.828 216.339
L294.902 216.103
L294.977 216.489
L295.126 220.584
L295.498 209.375
L295.646 212.808
L295.795 221.356
L296.018 236.822
L296.093 236.77
L296.39 227.438
L296.688 211.8
L296.986 206.887
L297.134 198.857
L297.432 212.071
L297.655 207.365
L297.804 209.519
L298.027 219.035
L298.399 208.926
L298.474 207.624
L298.846 223.406
L298.92 222.969
L298.994 221.961
L299.143 223.643
L299.292 220.325
L299.441 227.698
L299.887 220.221
L299.962 219.974
L300.11 216.385
L300.185 216.466
L300.259 216.604
L300.334 217.289
L300.482 220.751
L300.631 216.61
L300.929 207.486
L301.078 208.217
L301.226 203.298
L301.301 203.339
L301.896 221.661
L301.97 221.005
L302.119 215.671
L302.491 221.223
L302.566 221.414
L302.714 215.953
L302.863 209.755
L303.161 219.841
L303.384 231.638
L303.458 230.411
L304.054 202.135
L304.202 205.792
L304.277 205.487
L304.351 205.032
L304.798 220.889
L304.946 217.785
L305.021 218.205
L305.17 219.559
L305.393 227.318
L305.542 228.112
L305.616 227.496
L305.765 222.669
L305.988 213.332
L306.137 214.496
L306.583 203.183
L306.806 206.305
L307.03 218.856
L307.253 213.24
L307.327 214.064
L307.402 213.626
L307.848 224.449
L307.922 224.052
L308.146 219.202
L308.369 211.512
L308.443 210.504
L308.518 210.55
L308.592 211.264
L308.815 220.29
L308.89 219.19
L309.113 214.288
L309.336 210.688
L309.485 217.289
L309.559 217.209
L309.634 216.062
L309.708 216.114
L310.006 225.088
L310.303 220.4
L310.452 219.536
L310.601 220.561
L311.27 196.11
L311.345 196.467
L311.419 198.402
L311.791 228.752
L312.014 238.93
L312.163 235.439
L312.312 224.547
L312.61 204.773
L312.982 181.163
L313.056 180.27
L313.13 183.449
L313.354 221.926
L313.651 274.912
L313.726 278.823
L313.874 269.746
L314.098 234.143
L314.693 129.818
L314.842 148.861
L315.139 246.481
L315.437 319.777
L315.511 318.279
L315.66 295.821
L316.33 142.156
L316.478 154.534
L317.148 226.805
L317.371 232.847
L317.52 231.165
L317.669 228.677
L318.041 237.668
L318.115 237.288
L318.338 231.977
L318.413 233.222
L318.487 234.241
L318.562 233.498
L319.157 211.172
L319.529 164.292
L319.678 172.891
L320.273 235.145
L320.496 230.693
L320.794 227.076
L320.868 226.2
L321.017 229.656
L321.091 229.524
L322.133 207.757
L322.207 208.632
L322.43 213.868
L322.505 213.712
L322.579 213.263
L322.728 208.886
L322.877 206.294
L323.026 207.319
L323.323 213.188
L323.546 219.997
L323.621 218.453
L323.918 207.025
L324.067 206.213
L324.365 211.334
L324.514 211.656
L324.662 216.258
L325.258 252.264
L325.332 251.999
L325.63 239.506
L326.002 197.924
L326.299 179.204
L326.374 178.709
L326.597 196.225
L326.894 218.251
L327.043 220.538
L327.192 219.069
L327.415 222.974
L327.49 223.118
L327.638 225.152
L327.713 224.622
L327.862 217.341
L328.01 210.285
L328.085 210.061
L328.531 216.996
L328.68 220.29
L328.754 219.38
L329.201 207.244
L329.945 230.48
L330.242 217.848
L330.391 214.012
L330.54 216.541
L330.763 220.526
L330.838 220.555
L331.061 227.669
L331.135 227.485
L331.582 210.815
L332.028 188.345
L332.102 187.504
L332.177 188.656
L332.623 217.03
L332.921 232.029
L333.07 228.821
L333.144 229.201
L333.218 228.786
L333.293 229.328
L333.516 233.181
L333.665 236.078
L333.739 234.921
L333.888 234.091
L334.037 225.359
L334.409 203.097
L334.632 197.544
L334.706 198.062
L334.855 200.493
L334.93 200.597
L335.078 206.34
L335.302 213.793
L335.376 214.018
L335.45 213.856
L335.599 214.709
L335.822 210.13
L336.12 218.038
L336.418 239.396
L336.566 239.938
L336.641 238.532
L337.087 212.376
L337.162 212.497
L337.236 212.871
L337.385 210.458
L337.534 213.159
L337.98 185.056
L338.054 185.886
L338.278 197.774
L338.575 229.213
L338.873 244.436
L338.947 243.964
L339.17 230.739
L339.542 214.358
L339.691 215.423
L339.84 212.088
L339.914 212.676
L340.063 217.727
L340.212 216.178
L340.361 212.906
L340.584 203.581
L340.807 192.873
L340.956 196.824
L341.179 213.217
L341.551 237.259
L341.626 239.172
L341.7 238.411
L341.849 232.507
L341.923 233.602
L341.998 236.499
L342.072 235.739
L342.221 227.127
L342.667 176.837
L342.742 175.04
L342.816 175.8
L342.965 187.729
L343.486 265.725
L343.56 265.391
L343.634 262.396
L343.858 232.582
L344.304 164.309
L344.378 162.903
L344.75 183.588
L344.974 228.36
L345.197 268.709
L345.271 272.372
L345.42 266.192
L345.569 247.691
L345.941 196.035
L346.09 194.739
L346.238 194.151
L346.313 195.39
L346.536 215.054
L346.759 227.243
L346.908 224.898
L347.057 215.538
L347.28 199.508
L347.429 211.806
L347.652 227.283
L348.024 232.945
L348.098 231.447
L348.396 203.114
L348.619 223.044
L348.694 222.6
L348.768 220.279
L348.917 223.435
L348.991 220.642
L349.14 197.78
L349.363 168.491
L349.512 183.974
L349.81 233.452
L349.884 234.183
L349.958 233.446
L350.033 231.442
L350.33 207.578
L350.702 231.908
L350.926 269.717
L351 268.121
L351.446 197.066
L351.744 123.983
L351.818 128.176
L352.488 299.767
L352.562 302.042
L352.934 167.298
L353.009 174.176
L353.306 245.318
L353.455 221.99
L353.753 146.614
L354.125 203.35
L354.571 224.806
L354.943 265.604
L355.018 265.483
L355.092 265.708
L355.166 265.264
L355.315 256.129
L355.985 178.64
L356.059 178.841
L356.208 183.864
L356.803 224.345
L356.952 227.663
L357.026 227.41
L357.175 213.77
L357.398 199.923
L357.547 197.89
L357.696 204.041
L358.142 233.406
L358.514 249.735
L358.589 249.568
L358.812 238.544
L359.482 178.934
L359.63 184.388
L360.002 206.582
L360.077 205.614
L360.151 206.34
L360.895 242.777
L360.97 241.009
L361.416 217.86
L361.49 217.819
L361.862 241.067
L361.937 238.993
L362.606 179.383
L362.755 180.212
L362.904 187.009
L363.574 231.701
L363.648 231.626
L363.722 231.609
L364.02 236.009
L364.466 224.996
L364.987 200.188
L365.062 199.088
L365.21 201.058
L365.508 213.355
L365.954 233.671
L366.103 232.79
L366.252 227.139
L366.922 190.782
L367.145 195.148
L367.963 240.404
L368.038 240.37
L368.112 239.909
L368.261 238.123
L368.335 239.995
L368.41 239.707
L368.707 217.641
L369.005 196.628
L369.079 196.738
L369.228 198.091
L369.898 225.278
L370.121 215.296
L370.344 207.123
L370.716 213.269
L370.865 212.877
L370.939 213.321
L371.088 211.414
L371.609 222.278
L371.683 222.013
L371.758 222.162
L371.981 223.948
L372.13 220.791
L372.502 206.04
L372.576 207.071
L372.799 219.634
L373.022 229.719
L373.171 231.534
L373.469 224.155
L374.436 194.681
L374.659 189.975
L374.882 200.781
L375.552 256.509
L375.775 235.387
L376.073 210.47
L376.296 206.484
L376.668 215.861
L376.742 216.685
L376.891 214.461
L377.412 193.702
L378.082 220.446
L378.305 224.558
L378.379 226.707
L378.454 226.177
L378.528 224.927
L378.602 225.382
L378.677 225.918
L378.751 225.399
L378.826 225.722
L379.198 233.239
L379.346 223.003
L379.644 202.78
L379.867 199.445
L380.016 202.446
L380.462 222.663
L380.611 228.775
L380.686 228.573
L380.76 228.326
L380.834 229.437
L380.909 229.362
L380.983 227.951
L381.132 229.115
L381.206 225.693
L381.504 200.217
L381.578 200.13
L381.95 218.614
L382.025 216.42
L382.248 210.153
L382.322 209.905
L382.546 212.987
L382.843 206.397
L382.992 207.86
L383.141 213.505
L383.513 233.36
L383.587 235.71
L383.662 235.047
L383.885 223.464
L383.959 222.024
L384.257 200.793
L384.331 201.058
L384.554 214.893
L384.852 233.63
L384.926 232.116
L385.596 188.501
L385.67 189.129
L385.819 198.996
L386.414 244.937
L386.489 244.77
L386.712 233.492
L386.861 216.46
L387.158 172.05
L387.233 173.318
L387.456 201.363
L387.754 229.097
L387.828 229.23
L387.977 226.073
L388.126 231.373
L388.572 259.021
L388.646 258.243
L388.795 231.626
L389.018 163.589
L389.093 166.958
L389.39 215.89
L389.465 216.028
L389.762 195.563
L389.837 196.386
L390.06 211.092
L390.283 222.6
L390.432 217.318
L390.804 184.751
L390.953 202.025
L391.25 245.761
L391.325 241.355
L391.474 227.882
L391.771 271.704
L391.846 271.07
L391.994 251.406
L392.441 176.67
L392.59 171.25
L392.738 175.794
L392.813 175.506
L392.887 176.699
L393.185 205.314
L393.631 255.179
L393.706 253.796
L393.929 235.94
L394.375 199.848
L394.673 189.803
L394.896 198.811
L395.342 225.814
L395.566 232.334
L395.789 224.42
L395.938 221.166
L396.086 217.946
L396.161 218.32
L396.235 217.785
L396.458 207.872
L396.533 208.321
L396.83 219.933
L397.128 232.167
L397.649 205.383
L397.723 205.919
L397.872 209.536
L398.021 186.686
L398.616 243.371
L398.69 244.338
L398.839 234.241
L399.211 206.219
L399.286 205.752
L399.36 209.104
L399.583 191.669
L399.658 193.99
L399.881 213.666
L399.955 212.48
L400.178 207.774
L400.327 212.474
L400.625 223.303
L400.774 224.069
L400.848 223.942
L400.922 224.835
L400.997 221.92
L401.146 209.087
L401.369 217.117
L401.815 253.646
L401.89 252.391
L402.41 179.342
L402.485 180.466
L403.229 218.683
L403.526 260.979
L404.122 189.538
L404.196 187.332
L404.345 190.805
L404.642 230.497
L404.866 268.651
L404.94 267.217
L405.386 215.164
L405.758 161.239
L405.833 160.173
L405.907 162.402
L406.056 179.02
L406.502 256.4
L406.577 257.367
L406.651 256.256
L406.8 242.616
L407.246 190.361
L407.395 185.005
L407.47 184.526
L407.618 192.078
L407.99 251.204
L408.214 272.199
L408.288 270.454
L408.437 252.754
L408.958 151.493
L409.032 152.138
L409.181 161.101
L409.404 202.302
L409.85 272.689
L410.222 263.836
L410.446 231.661
L410.818 178.934
L410.966 167.494
L411.041 168.11
L411.19 175.518
L411.562 196.899
L411.859 211.742
L412.306 234.604
L412.454 235.986
L412.529 235.969
L412.678 231.81
L412.752 232.093
L413.05 237.403
L413.124 236.649
L413.273 231.401
L413.868 200.044
L414.017 204.871
L414.314 222.347
L414.538 209.905
L414.835 195.902
L414.984 200.764
L415.579 228.435
L415.877 234.293
L416.249 218.908
L416.546 199.606
L416.695 195.384
L416.77 195.211
L416.918 202.728
L417.29 226.05
L417.439 224.317
L417.514 224.754
L417.588 224.726
L417.662 223.833
L417.886 227.156
L418.183 222.036
L418.406 215.976
L418.853 201.881
L418.927 203.88
L419.299 218.781
L419.448 213.937
L419.746 208.477
L419.894 211.881
L420.415 230.151
L420.49 229.27
L421.01 205.003
L421.085 206.213
L421.234 215.026
L421.457 224.656
L421.606 226.471
L421.68 225.918
L421.829 221.074
L422.201 197.331
L422.275 197.677
L422.424 202.67
L422.945 231.879
L423.019 232.934
L423.094 232.634
L423.242 226.955
L423.317 227.162
L423.391 227.773
L423.466 226.782
L424.21 199.232
L424.284 199.422
L424.507 208.909
L424.879 224.835
L424.954 225.307
L425.4 218.804
L425.474 219.611
L425.846 227.634
L425.921 227.162
L426.07 222.951
L426.516 206.939
L426.814 202.889
L427.111 205.913
L427.26 208.494
L427.334 208.517
L427.483 211.639
L428.078 227.162
L428.153 227.634
L428.227 227.358
L428.376 231.01
L428.599 222.473
L429.046 199.767
L429.194 196.997
L429.269 197.245
L429.566 214.657
L430.013 240.237
L430.087 239.102
L430.31 226.724
L430.831 195.05
L430.906 196.242
L431.65 229.933
L431.724 229.132
L431.873 229.155
L432.096 226.828
L432.394 220.002
L432.468 219.847
L432.617 216.535
L432.989 203.051
L433.286 211.397
L433.435 210.74
L433.807 203.252
L433.882 203.586
L434.105 208.724
L434.998 233.982
L435.146 229.293
L435.518 217.825
L435.593 217.094
L435.667 217.255
L435.816 219.173
L435.965 215.366
L436.262 201.628
L436.337 202.711
L436.411 203.177
L436.56 206.996
L436.709 210.66
L436.783 208.978
L436.858 209.634
L437.602 231.695
L437.676 232.179
L437.825 227.997
L438.569 200.165
L438.718 198.846
L438.866 204.007
L439.09 210.498
L439.759 228.821
L439.982 226.039
L440.131 226.914
L440.206 226.615
L440.354 225.255
L440.801 209.847
L440.875 210.043
L440.95 209.83
L441.024 208.661
L441.098 209.168
L441.247 211.524
L441.396 209.922
L441.619 213.326
L441.768 215.815
L441.842 215.118
L442.214 202.924
L442.289 203.454
L442.363 205.631
L442.438 205.55
L442.512 205.107
L442.81 217.491
L443.256 241.021
L443.33 242.535
L443.405 242.219
L443.554 236.752
L444.149 196.19
L444.298 199.37
L444.818 222.796
L444.893 222.802
L444.967 222.6
L445.042 221.437
L445.637 197.78
L445.786 196.473
L445.86 197.642
L446.753 245.951
L446.827 245.116
L447.05 235.531
L447.348 209.058
L447.422 207.083
L447.497 207.417
L447.571 208.615
L447.646 207.492
L447.869 198.322
L447.943 198.471
L448.018 199.122
L448.241 196.162
L448.315 196.242
L448.762 210.902
L449.059 231.522
L449.134 231.119
L449.208 230.797
L449.431 232.887
L449.506 232.07
L449.729 223.262
L449.878 223.476
L449.878 223.476" style="fill:none;stroke:#808080;stroke-linecap:square;"/>
   </g>
  </g>
 </g>
 <defs>
  <clipPath id="p7ff5b81e1d">
   <rect height="345.6" width="446.4" x="72.0" y="43.2"/>
  </clipPath>
 </defs>
</svg>
