<?xml version="1.0" encoding="utf-8" standalone="no"?>
<!DOCTYPE svg PUBLIC "-//W3C//DTD SVG 1.1//EN"
  "http://www.w3.org/Graphics/SVG/1.1/DTD/svg11.dtd">
<!-- Created with matplotlib (http://matplotlib.org/) -->
<svg height="432pt" version="1.1" viewBox="0 0 576 432" width="576pt" xmlns="http://www.w3.org/2000/svg" xmlns:xlink="http://www.w3.org/1999/xlink">
 <defs>
  <style type="text/css">
*{stroke-linecap:butt;stroke-linejoin:round;}
  </style>
 </defs>
 <g id="figure_1">
  <g id="patch_1">
   <path d="
M0 432
L576 432
L576 0
L0 0
z
" style="fill:#ffffff;"/>
  </g>
  <g id="axes_1">
   <g id="line2d_1">
    <path clip-path="url(#p7ff5b81e1d)" d="
M72 218.274
L72.1488 211.474
L72.2976 218.291
L72.4464 210.247
L72.8184 247.909
L72.8928 248.816
L73.0416 233.524
L73.3392 254.985
L73.488 244.643
L74.0088 176.024
L74.3808 198.463
L74.4552 198.359
L74.5296 197.875
L74.7528 208.554
L74.976 194.315
L75.2736 214.023
L75.4224 200.035
L75.5712 209.142
L75.6456 205.262
L75.72 209.453
L75.9432 254.337
L76.1664 296.095
L76.2408 297.347
L76.3152 302.376
L76.3896 301.771
L76.464 299.395
L76.6128 275.367
L77.0592 163.229
L77.208 161.915
L77.3568 155.72
L77.5056 162.062
L77.58 160.93
L77.6544 163.177
L78.1008 202.428
L78.1752 209.375
L78.2496 207.362
L78.324 203.154
L78.3984 205.919
L78.5472 191.792
L78.6216 180.344
L78.696 182.997
L79.2168 259.616
L79.5144 291.196
L79.5888 291.921
L80.2584 215.319
L80.3328 215.846
L80.4816 209.936
L80.7048 195.775
L80.7792 200.795
L81.1512 157.371
L81.3 149.344
L81.4488 171.428
L81.8208 236.263
L81.8952 235.519
L82.1184 245.594
L82.1928 241.827
L82.2672 242.993
L82.416 250.415
L82.4904 249.525
L82.5648 249.983
L82.6392 252.765
L82.8624 230.353
L82.9368 231.459
L83.0112 228.97
L83.3832 205.202
L83.4576 203.707
L83.7552 166.261
L83.8296 165.259
L84.5736 259.85
L85.02 209.314
L85.392 161.682
L85.6896 173.839
L85.9128 192.561
L86.2848 254.916
L86.5824 275.644
L86.8056 266.796
L86.88 267.367
L86.9544 270.347
L87.3264 208.433
L87.5496 170.573
L87.624 168.352
L87.7728 183.438
L87.8472 179.351
L87.996 200.718
L88.2192 227.614
L88.2936 227.7
L88.6656 186.237
L88.8144 173.579
L88.8888 174.953
L89.0376 191.913
L89.4096 239.693
L89.484 244.6
L89.7816 224.486
L89.856 213.868
L89.9304 215.19
L90.3768 244.583
L90.5256 262.519
L90.7488 237.092
L90.8976 213.565
L91.1208 165.311
L91.1952 161.518
L91.2696 164.032
L91.6416 203.37
L91.9392 223.449
L92.0136 220.486
L92.088 222.611
L92.1624 228.815
L92.2368 227.242
L92.3112 227.89
L92.46 230.785
L92.5344 231.77
L92.6832 238.656
L92.832 236.133
L92.9808 242.578
L93.0552 240.98
L93.6504 179.403
L94.3944 238.708
L94.4688 238.034
L94.5432 238.362
L94.7664 219.518
L94.9152 212.71
L95.064 223.121
L95.2872 205.02
L95.436 193.399
L95.5104 195.188
L95.5848 193.745
L95.808 215.622
L95.9568 192.942
L96.18 204.891
L96.4776 228.271
L96.552 227.657
L96.924 262.191
L97.4448 205.789
L97.7424 199.024
L97.8168 201.651
L97.8912 200.553
L98.2632 162.607
L98.3376 165.872
L98.412 166.84
L98.5608 177.467
L99.0816 273.363
L99.2304 267.919
L99.3792 270.036
L99.4536 264.083
L99.8256 203.534
L99.9744 194.6
L100.644 240.643
L100.718 239.822
L100.942 227.484
L101.016 227.441
L101.09 226.154
L101.537 174.867
L101.611 175.428
L101.76 189.71
L101.834 187.524
L101.909 187.74
L101.983 188.164
L102.058 186.695
L102.281 173.182
L102.653 210.8
L102.95 265.319
L103.025 269.414
L103.099 269.354
L103.174 268.447
L103.248 269.527
L103.397 274.14
L103.471 274.037
L103.546 272.257
L103.992 240.833
L104.141 229.808
L104.438 174.098
L104.662 140.272
L104.736 142.104
L104.81 141.827
L105.034 173.156
L105.554 247.235
L105.852 232.495
L106.075 216.036
L106.447 205.936
L106.596 204.822
L106.745 195.318
L106.819 195.542
L107.266 233.999
L107.34 231.666
L107.414 225.126
L107.563 232.038
L107.638 227.502
L107.712 227.942
L108.01 242.846
L108.233 249.326
L108.307 249.032
L108.456 235.519
L108.53 235.347
L108.977 189.615
L109.126 188.967
L109.2 190.859
L109.423 220.52
L109.498 218.637
L109.646 226.681
L109.721 223.095
L110.093 186.462
L110.167 185.736
L110.39 171.056
L110.688 198.126
L110.986 211.155
L111.209 234.699
L111.283 234.068
L111.358 234.733
L111.432 234.388
L111.506 234.491
L111.655 237.507
L111.804 231.372
L111.878 234.077
L112.102 253.914
L112.176 251.624
L112.325 261.025
L112.548 242.241
L112.92 185.58
L113.069 179.593
L113.218 185.935
L113.441 208.286
L113.515 208.485
L113.59 208.364
L113.664 210.481
L113.813 219.855
L114.11 207.172
L114.259 206.757
L114.408 201.823
L114.854 232.936
L115.003 219.881
L115.078 223.916
L115.152 220.313
L115.301 209.686
L115.375 213.729
L115.45 212.312
L115.598 207.111
L115.97 234.275
L116.045 234.103
L116.491 189.192
L116.64 191.516
L116.863 199.689
L117.086 230.577
L117.235 246.959
L117.31 246.916
L117.533 235.303
L117.756 192.812
L117.905 205.781
L118.054 199.776
L118.128 201.936
L118.426 235.157
L118.5 243.399
L118.574 238.12
L118.798 212.477
L118.872 201.478
L118.946 204.571
L119.021 205.746
L119.095 203.724
L119.542 225.031
L119.616 222.983
L119.69 212.33
L119.765 212.788
L119.839 220.123
L119.914 218.136
L120.137 211.639
L120.211 213.055
L120.36 220.374
L120.583 202.359
L120.658 201.607
L120.732 202.333
L121.178 241.317
L121.253 237.679
L121.625 189.555
L121.848 197.391
L122.22 241.688
L122.294 245.058
L122.443 237.299
L122.666 209.608
L122.741 208.407
L122.964 186.669
L123.038 187.015
L123.113 189.831
L123.336 219.89
L123.41 221.523
L123.485 219.587
L123.559 219.769
L123.931 233.118
L124.154 225.635
L124.526 199.154
L124.601 197.106
L124.824 215.276
L124.973 210.749
L125.047 206.42
L125.196 213.505
L125.345 210.8
L125.568 184.759
L125.642 185.356
L125.717 187.576
L125.866 216.797
L126.163 265.82
L126.238 263.539
L126.312 267.686
L126.461 286.366
L127.428 158.217
L127.651 154.554
L128.023 199.197
L128.172 191.68
L128.544 219.622
L128.618 214.058
L128.693 217.229
L129.065 266.364
L129.139 266.701
L129.214 265.353
L129.437 246.276
L129.511 247.348
L129.586 245.559
L129.734 232.711
L129.809 238.518
L129.883 236.504
L130.181 208.934
L130.478 174.962
L130.553 172.257
L130.702 180.63
L130.85 187.991
L131.148 211.103
L131.222 209.435
L131.446 201.357
L131.52 202.938
L132.041 256.662
L132.115 269.95
L132.19 266.304
L132.413 248.367
L132.859 183.541
L133.008 182.081
L133.157 193.045
L133.231 192.25
L133.306 189.304
L133.38 189.684
L133.454 189.684
L133.529 192.976
L134.124 275.108
L134.273 270.961
L134.347 265.673
L134.794 178.089
L134.868 178.91
L135.017 187.533
L135.091 182.599
L135.166 183.714
L135.24 186.842
L135.314 184.621
L135.538 199.076
L135.612 196.199
L135.686 195.75
L135.835 196.259
L136.207 230.154
L136.505 278.84
L136.579 291.524
L136.802 265.094
L137.249 177.096
L137.323 175.955
L137.472 184.241
L137.695 214.654
L137.844 201.703
L137.918 203.249
L137.993 207.111
L138.142 199.223
L138.365 170.296
L138.439 173.035
L138.737 216.788
L138.96 259.53
L139.183 279.393
L139.258 274.892
L139.853 173.372
L140.002 188.311
L140.374 235.615
L140.597 243.347
L140.671 241.023
L141.043 189.235
L141.118 184.811
L141.564 227.381
L141.713 235.986
L141.862 220.927
L142.01 202.791
L142.085 199.318
L142.234 176.171
L142.457 198.074
L142.754 258.165
L142.829 263.764
L142.903 261.897
L143.126 222.395
L143.35 180.215
L143.945 241.896
L144.391 175.446
L144.466 175.411
L144.689 204.899
L144.912 251.132
L145.061 245.611
L145.135 246.285
L145.21 242.129
L145.507 209.772
L145.805 196.864
L146.028 227.389
L146.102 225.774
L146.326 209.634
L146.4 212.096
L146.549 225.774
L146.698 214.792
L146.772 215.872
L146.846 214.758
L147.07 190.764
L147.144 190.799
L147.218 191.697
L147.367 208.234
L147.59 233.852
L147.814 242.768
L147.888 240.064
L148.037 225.238
L148.111 225.039
L148.186 225.247
L148.483 215.933
L148.632 200.476
L148.706 200.657
L148.781 204.796
L148.855 204.744
L149.004 195.179
L149.153 197.624
L149.376 215.38
L149.45 213.824
L149.599 231.778
L149.748 248.056
L149.822 247.996
L149.971 231.96
L150.046 239.589
L150.12 235.779
L150.418 202.169
L150.715 178.478
L150.864 196.138
L150.938 195.888
L151.087 182.029
L151.385 243.252
L151.459 245.058
L151.534 250.216
L151.608 250.156
L151.682 243.624
L151.906 192.501
L151.98 194.419
L152.575 240.297
L152.65 233.411
L152.724 223.389
L152.798 228.158
L152.873 224.581
L153.022 207.439
L153.096 211.207
L153.245 230.353
L153.319 224.469
L153.468 232.893
L153.542 230.551
L153.691 220.227
L153.84 210.507
L153.989 214.835
L154.138 202.895
L154.212 203.733
L154.286 206.213
L154.435 190.306
L154.51 191.887
L154.584 192.682
L154.807 177.001
L155.254 239.062
L155.477 261.388
L155.551 265.88
L155.774 239.373
L155.998 205.936
L156.146 196.294
L156.295 214.524
L156.37 213.522
L156.593 231.225
L156.667 230.733
L156.742 233.8
L156.816 229.126
L157.188 177.519
L157.411 181.537
L157.783 219.173
L158.081 229.662
L158.304 222.032
L158.378 222.205
L158.453 222.741
L158.527 220.719
L158.602 213.531
L158.676 214.421
L158.899 230.266
L158.974 225.704
L159.122 230.249
L159.346 221.099
L159.494 219.708
L159.792 202.454
L159.866 196.38
L160.015 211.025
L160.09 209.98
L160.462 236.003
L160.61 227.735
L160.759 248.765
L160.982 217.859
L161.057 223.017
L161.131 225.869
L161.28 209.824
L161.354 214.066
L161.875 166.114
L161.95 169.13
L162.024 170.192
L162.173 183.61
L162.47 219.89
L162.619 244.842
L162.694 244.332
L162.917 255.893
L163.066 244.358
L163.14 247.503
L163.289 235.822
L163.661 180.621
L164.033 239.935
L164.256 254.415
L164.33 258.727
L164.405 252.463
L164.777 192.484
L164.926 183.161
L165.298 246.44
L165.372 243.935
L165.67 201.607
L165.893 151.789
L165.967 145.128
L166.042 147.849
L166.339 192.579
L166.711 263.66
L166.786 273.181
L166.86 271.263
L167.604 203.076
L167.678 202.964
L167.902 214.974
L168.274 251.408
L168.348 248.497
L168.571 210.213
L168.72 191.188
L169.092 209.798
L169.166 207.535
L169.538 155.098
L169.613 157.794
L170.059 237.766
L170.134 241.377
L170.282 263.66
L170.357 262.744
L170.729 213.332
L170.878 229.921
L171.026 223.778
L171.25 247.218
L171.324 246.691
L171.473 253.975
L171.919 201.504
L172.291 180.664
L172.366 178.591
L172.589 161.682
L172.886 199.145
L173.258 256.878
L173.333 253.733
L173.705 232.133
L173.779 244.419
L173.854 237.878
L174.002 204.485
L174.077 205.711
L174.226 190.419
L174.3 183.256
L174.374 186.151
L174.746 209.608
L175.118 260.48
L175.267 257.75
L175.342 257.932
L175.639 240.09
L176.011 171.048
L176.16 166.382
L176.458 194.903
L176.681 224.624
L176.755 227.191
L176.83 226.206
L177.202 210.619
L177.276 209.064
L177.35 210.36
L177.797 251.823
L178.243 237.826
L178.69 177.847
L178.838 180.673
L179.136 193.797
L179.21 192.268
L179.285 195.655
L179.582 229.014
L179.657 236.651
L179.731 234.319
L179.954 223.743
L180.103 233.204
L180.178 229.558
L180.252 222.024
L180.326 226.897
L180.475 244.479
L180.624 239.243
L180.698 244.263
L180.847 230.69
L180.996 218.663
L181.368 169.484
L182.038 225.143
L182.112 225.307
L182.484 194.488
L182.558 195.801
L182.633 203.016
L182.782 229.955
L182.856 232.159
L183.005 258.649
L183.079 256.644
L183.451 219.734
L183.526 221.022
L183.749 203.655
L183.972 214.351
L184.046 213.038
L184.195 205.573
L184.27 205.737
L184.642 195.309
L184.79 211.993
L185.014 244.332
L185.088 239.848
L185.237 231.26
L185.683 182.746
L185.758 181.865
L185.981 203.888
L186.427 249.421
L186.725 219.631
L186.799 219.993
L186.874 223.812
L187.022 209.919
L187.097 211.613
L187.394 217.168
L187.618 210.982
L187.692 207.094
L187.766 208.511
L187.841 215.129
L187.99 205.435
L188.064 207.189
L188.138 208.105
L188.287 196.553
L188.734 269.155
L188.808 267.237
L188.882 262.2
L189.478 141.456
L189.552 142.337
L189.626 145.793
L190.147 242.311
L190.296 274.235
L190.37 271.488
L190.891 228.651
L190.966 226.629
L191.04 226.888
L191.114 226.992
L191.263 224.797
L191.486 233.083
L191.784 239.831
L191.858 237.636
L192.454 181.848
L192.826 124.323
L192.974 137.274
L193.272 171.255
L193.644 242.017
L194.165 316.943
L194.388 309.02
L195.206 177.027
L195.43 163.229
L195.653 172.37
L195.802 188.699
L195.876 187.386
L196.099 198.376
L196.322 181.027
L196.397 185.96
L196.546 158.088
L196.62 162.123
L196.694 168.983
L196.769 166.814
L196.843 161.984
L197.066 174.659
L197.438 253.957
L197.885 333.523
L197.959 340.418
L198.034 337.255
L198.257 287.005
L198.703 164.905
L199.001 108.693
L199.298 124.288
L199.522 159.945
L200.117 292.293
L200.34 301.045
L200.414 302.808
L200.489 301.192
L200.638 289.226
L201.158 210.403
L201.382 180.776
L201.754 136.548
L201.977 123.968
L202.423 188.017
L202.87 287.653
L202.944 289.286
L203.167 268.023
L203.242 265.621
L203.465 253.638
L203.986 227.718
L204.283 189.658
L204.432 183.93
L204.506 184.5
L204.581 181.701
L204.804 195.991
L204.878 194.583
L205.027 196.605
L205.176 190.894
L205.325 179.118
L205.399 179.766
L205.622 201.357
L205.771 228.15
L205.994 263.746
L206.069 266.995
L206.218 285.882
L206.292 283.212
L206.441 290.081
L206.664 266.001
L207.185 142.13
L207.334 145.249
L207.631 198.895
L207.854 217.54
L207.929 217.738
L208.003 216.477
L208.078 219.052
L208.301 204.891
L208.375 210.247
L208.822 272.127
L209.045 243.736
L209.491 164.542
L209.566 164.611
L209.714 158.399
L209.863 179.083
L210.384 294.617
L210.533 281.372
L210.682 255.141
L211.054 173.83
L211.128 172.802
L211.574 210.135
L211.649 208.208
L211.946 227.337
L212.021 227.89
L212.318 192.095
L212.542 154.096
L212.616 149.975
L212.839 172.491
L212.988 226.776
L213.211 284.232
L213.36 311.128
L213.434 309.849
L213.509 311.353
L213.583 315.992
L213.658 310.973
L214.253 156.066
L214.625 69.1217
L214.699 70.7547
L214.774 77.5284
L214.922 124.902
L215.443 325.436
L215.592 346.068
L215.666 344.945
L217.08 116.694
L217.229 133.49
L217.452 191.939
L217.75 267.012
L217.824 268.447
L218.047 248.091
L218.345 186.081
L218.419 183.991
L218.494 191.939
L218.866 277.182
L219.089 289.183
L219.238 272.309
L219.684 195.827
L219.758 199.733
L219.833 199.43
L220.354 161.043
L220.577 133.688
L220.726 125.143
L220.874 168.914
L221.246 279.869
L221.395 303.594
L221.47 302.825
L221.618 283.264
L222.065 209.021
L222.288 199.56
L222.362 198.298
L222.586 185.122
L222.66 189.321
L222.883 211.457
L222.958 214.913
L223.106 205.539
L223.181 206.869
L223.33 212.839
L223.404 212.243
L223.702 246.389
L223.776 245.663
L223.85 237.515
L223.925 238.068
L223.999 237.152
L224.52 169.13
L224.594 176.456
L225.115 231.744
L225.264 235.208
L225.338 233.316
L225.413 233.722
L225.636 230.275
L225.785 224.253
L225.859 223.156
L226.008 210.628
L226.082 211.95
L226.157 211.673
L226.231 210.351
L226.38 222.369
L226.454 221.056
L226.529 220.304
L226.603 225.549
L226.826 204.994
L226.901 203.024
L226.975 203.966
L227.124 199.663
L227.198 197.331
L227.273 188.449
L227.347 196.337
L227.496 230.335
L227.57 231.882
L227.794 249.266
L227.868 247.883
L228.166 228.893
L228.389 203.456
L228.538 193.045
L228.612 194.652
L228.761 207.042
L228.835 206.29
L228.91 213.289
L228.984 212.874
L229.207 201.815
L229.356 198.376
L229.43 196.959
L229.654 188.838
L230.1 233.014
L230.174 231.295
L230.323 234.18
L230.546 252.514
L230.695 246.052
L230.77 253.119
L231.067 234.146
L231.365 201.245
L231.439 201.97
L231.514 201.677
L231.588 197.866
L231.811 205.21
L231.886 197.184
L231.96 197.383
L232.034 207.716
L232.183 193.088
L232.332 200.968
L232.406 192.795
L232.481 194.315
L232.555 199.594
L232.778 184.621
L233.225 238.181
L233.448 256.255
L233.522 258.424
L233.671 252.704
L233.82 241.412
L233.894 244.047
L234.266 222.706
L234.341 225.316
L234.564 204.234
L234.862 166.183
L234.936 166.676
L235.829 257.733
L235.903 256.333
L236.796 182.427
L236.87 182.677
L236.945 190.237
L237.019 187.127
L237.168 176.707
L237.317 184.172
L237.391 183.679
L237.466 183.731
L237.614 199.266
L238.135 291.628
L238.73 209.427
L238.954 203.638
L239.102 191.758
L239.177 194.868
L239.326 182.66
L239.4 176.335
L239.549 181.519
L239.698 172.231
L239.772 172.957
L239.995 209.479
L240.293 259.279
L240.442 254.095
L240.59 266.183
L240.665 263.418
L240.962 222.577
L241.334 179.912
L241.558 165.605
L241.706 183.645
L242.004 252.895
L242.153 270.304
L242.302 243.425
L242.525 206.93
L242.674 204.545
L242.748 205.098
L242.971 208.087
L243.269 181.079
L243.343 181.537
L243.641 211.561
L243.79 220.65
L243.864 221.479
L244.013 232.305
L244.087 228.53
L244.236 239.589
L244.385 226.759
L244.534 235.943
L244.608 235.519
L244.682 234.526
L244.757 235.174
L244.831 237.178
L245.054 232.383
L245.352 218.862
L245.724 164.283
L245.798 165.734
L246.022 191.706
L246.319 235.727
L246.468 246.993
L246.617 247.598
L247.063 208.692
L247.138 210.075
L247.286 227.89
L247.361 222.456
L247.435 223.328
L247.51 227.925
L247.584 227.208
L247.882 203.094
L247.956 201.936
L248.105 208.027
L248.254 204.606
L248.328 206.653
L248.477 196.432
L248.551 199.404
L248.849 223.484
L249.072 242.311
L249.593 201.331
L249.742 195.81
L250.262 230.335
L250.411 220.279
L250.486 222.931
L250.634 204.13
L250.709 197.4
L250.858 213.686
L250.932 211.95
L251.081 224.901
L251.155 221.445
L251.23 218.974
L251.304 226.586
L251.378 224.711
L251.453 219.751
L251.527 222.94
L251.676 206.964
L251.825 226.214
L251.974 222.309
L252.048 231.053
L252.197 217.695
L252.271 222.793
L252.42 210.031
L252.494 211.284
L252.569 211.25
L252.792 201.374
L253.015 216.123
L253.09 216.615
L253.238 220.374
L253.462 206.178
L253.536 205.288
L253.61 206.956
L253.685 214.688
L253.759 213.574
L253.834 207.016
L253.908 207.189
L254.429 221.635
L254.503 209.885
L254.578 210.006
L255.024 250.752
L255.098 246.812
L255.396 208.278
L255.545 202.022
L255.694 206.446
L255.917 194.981
L256.14 211.984
L256.289 217.609
L256.363 216.581
L256.438 214.663
L256.512 217.09
L256.586 224.901
L256.661 222.102
L256.81 217.816
L257.033 197.573
L257.107 191.844
L257.554 224.037
L257.926 265.759
L258.074 257.491
L258.521 190.185
L258.595 190.22
L258.893 172.543
L258.967 176.534
L259.19 208.934
L259.414 218.248
L259.488 218.023
L259.562 213.28
L259.637 215.138
L259.86 224.737
L259.934 222.741
L260.083 230.059
L260.232 245.827
L260.306 242.604
L260.381 239.779
L260.455 242.907
L260.604 220.365
L260.753 207.716
L260.827 207.189
L260.976 201.158
L261.199 236.53
L261.274 234.863
L261.497 196.925
L261.72 174.201
L261.943 191.162
L262.39 244.315
L262.613 233.705
L262.91 214.732
L263.134 223.13
L263.208 221.998
L263.357 219.354
L263.58 213.548
L263.654 217.427
L263.729 212.33
L263.878 195.24
L263.952 194.678
L264.026 196.735
L264.398 241.49
L264.547 227.113
L264.696 213.937
L264.77 214.87
L264.919 222.672
L265.068 239.39
L265.738 189.028
L265.886 169.743
L266.482 233.377
L266.556 229.921
L266.63 229.981
L266.705 228.944
L266.854 214.274
L266.928 217.548
L267.077 214.447
L267.449 258.45
L267.821 226.534
L267.97 233.541
L268.118 235.744
L268.267 208.597
L268.565 168.421
L268.639 167.73
L269.383 233.074
L269.532 206.558
L269.606 207.172
L269.681 208.744
L269.83 199.43
L270.053 222.067
L270.127 218.369
L270.499 231.727
L270.574 232.936
L270.648 232.85
L270.722 232.927
L270.946 221.056
L271.02 223.622
L271.094 218.049
L271.169 203.327
L271.243 203.707
L271.466 223.164
L271.764 233.532
L271.838 230.707
L271.987 242.665
L272.508 205.919
L272.582 209.34
L272.657 210.265
L272.88 196.164
L273.029 202.765
L273.475 162.805
L273.55 163.28
L273.773 191.542
L274.219 247.615
L274.294 246.38
L274.442 234.301
L274.591 227.666
L274.963 261.068
L275.112 264.178
L275.261 251.469
L275.335 255.78
L275.41 253.655
L275.707 220.486
L275.93 202.938
L276.005 202.022
L276.079 196.873
L276.154 198.566
L276.228 201.037
L276.526 179.878
L276.823 165.06
L276.898 169.328
L277.195 214.783
L277.344 225.627
L277.418 225.618
L277.642 242.941
L277.716 243.727
L277.79 246.095
L277.865 245.015
L277.939 240.064
L278.014 240.833
L278.088 242.794
L278.237 239.321
L278.46 219.985
L278.683 197.771
L278.758 195.888
L278.981 183.429
L279.055 182.297
L279.204 193.011
L279.427 221.635
L279.799 240.202
L280.022 228.011
L280.097 227.156
L280.246 217.704
L280.469 221.687
L280.543 219.7
L280.618 220.08
L280.692 219.942
L280.915 214.611
L280.99 214.386
L281.064 214.939
L281.287 228.944
L281.362 225.704
L281.659 210.783
L281.734 214.066
L282.18 163.79
L282.924 249.361
L283.073 244.064
L283.147 246.812
L283.445 220.961
L283.519 218.455
L283.742 228.936
L283.966 242.812
L284.412 208.459
L284.635 179.636
L284.784 174.417
L284.858 177.035
L285.007 168.646
L285.305 210.42
L285.379 228.573
L285.454 225.393
L285.602 235.502
L285.751 230.966
L285.826 231.355
L285.9 229.783
L285.974 231.562
L286.123 247.469
L286.272 235.735
L286.57 213.781
L286.644 214.075
L286.867 227.51
L287.016 231.07
L287.314 216.848
L287.462 225.091
L287.611 204.943
L287.76 218.896
L287.909 203.508
L287.983 208.416
L288.206 181.278
L288.355 160.628
L288.578 185.684
L288.802 234.923
L289.025 249.715
L289.099 258.657
L289.174 257.733
L289.546 229.333
L289.694 219.674
L289.843 228.4
L289.918 218.049
L289.992 218.559
L290.066 216.969
L290.364 185.736
L290.587 180.457
L290.736 184.172
L290.959 215.095
L291.108 212.217
L291.257 222.827
L291.331 221.566
L291.406 223.225
L291.554 212.166
L292.001 232.565
L292.075 234.154
L292.15 233.636
L292.224 232.444
L292.298 234.042
L292.373 239.796
L292.819 221.41
L292.894 219.587
L293.042 228.607
L293.117 236.962
L293.638 199.188
L293.861 170.296
L294.084 179.48
L294.456 219.933
L294.53 218.499
L294.679 214.222
L294.754 214.317
L294.977 200.985
L295.721 255.875
L295.944 248.359
L296.614 170.167
L296.688 173.018
L296.986 186.194
L297.358 228.02
L297.506 237.075
L297.581 234.414
L297.655 234.846
L297.73 237.455
L297.804 236.504
L297.878 235.476
L298.027 245.957
L298.176 235.174
L298.25 243.131
L298.548 215.691
L298.771 171.1
L298.846 166.235
L298.92 167.73
L298.994 169.942
L299.069 175.912
L299.218 199.059
L299.292 199.577
L299.441 209.746
L299.515 211.474
L299.887 239.131
L300.11 262.908
L300.259 262.701
L300.334 262.882
L300.408 261.128
L300.482 253.568
L300.78 195.447
L300.929 195.957
L301.003 187.127
L301.078 189.149
L301.226 201.15
L301.301 198.73
L301.524 179.791
L301.896 204.415
L302.045 199.136
L302.119 202.039
L302.194 199.776
L302.342 214.403
L302.714 246.069
L302.789 244.09
L302.863 244.972
L302.938 248.868
L303.086 240.297
L303.384 198.618
L303.458 200.623
L303.607 209.902
L303.83 226.663
L303.979 224.961
L304.128 232.876
L304.202 231.018
L304.277 233.964
L304.351 229.281
L304.5 210.645
L304.574 209.263
L304.649 203.491
L304.723 203.56
L304.946 222.482
L305.17 235.269
L305.244 234.077
L305.467 223.32
L305.69 203.024
L305.914 162.503
L305.988 162.65
L306.137 177.856
L306.732 257.275
L306.806 257.655
L306.881 259.038
L307.178 225.713
L307.55 172.525
L307.699 155.124
L308.518 250.665
L308.666 254.407
L308.741 253.136
L308.815 255.668
L309.187 219.423
L309.262 222.706
L309.336 233.437
L309.41 230.31
L309.559 232.85
L309.708 224.149
L309.782 224.642
L310.452 172.275
L310.601 177.035
L310.973 216.624
L311.196 235.45
L311.27 232.91
L311.345 232.495
L311.419 229.273
L311.642 215.596
L311.717 217.445
L311.866 212.537
L311.94 214.783
L312.014 215.673
L312.089 212.537
L312.163 213.125
L312.461 227.052
L312.535 233.273
L312.61 228.15
L312.684 228.754
L312.758 229.947
L312.833 226.154
L312.907 227.726
L312.982 229.29
L313.279 219.812
L313.354 221.41
L313.428 218.248
L313.502 204.631
L313.651 226.076
L313.726 220.883
L313.8 218.447
L313.874 222.871
L314.098 209.349
L314.321 197.21
L314.395 201.4
L314.544 218.326
L314.618 204.822
L314.693 207.301
L314.767 213.263
L314.916 196.173
L314.99 197.408
L315.214 207.647
L315.288 216.823
L315.362 216.157
L315.437 206.584
L315.511 209.703
L315.586 217.013
L315.734 206.964
L316.106 262.321
L316.181 259.4
L316.627 204.58
L316.776 186.375
L316.85 187.654
L317.669 225.609
L317.818 210.835
L317.966 223.207
L318.115 218.11
L318.19 220.425
L318.264 220.408
L318.338 220.607
L318.487 216.442
L318.636 223.838
L319.157 194.151
L319.306 208.813
L319.529 232.107
L319.678 224.054
L319.901 205.418
L320.05 194.566
L320.124 195.093
L320.198 192.691
L320.273 194.92
L320.645 239.926
L320.719 238.656
L320.868 223.069
L321.017 209.245
L321.24 220.019
L321.389 233.619
L321.463 231.744
L321.612 217.393
L321.761 221.186
L321.835 215.82
L321.91 219.985
L321.984 232.012
L322.058 229.394
L322.133 228.089
L322.282 237.118
L322.356 236.651
L322.43 240.954
L322.579 221.791
L322.654 222.499
L322.728 224.132
L323.1 174.487
L323.174 171.151
L323.472 192.44
L323.695 227.268
L323.844 237.541
L324.067 219.734
L324.216 195.81
L324.29 196.061
L324.365 197.599
L324.439 196.233
L324.514 197.728
L325.034 243.762
L325.109 242.293
L325.183 240.859
L325.481 205.323
L325.555 198.575
L326.002 227.389
L326.15 238.561
L326.225 236.902
L326.374 222.974
L326.82 187.429
L326.894 193.564
L327.192 239.425
L327.266 237.671
L327.713 194.825
L327.787 191.438
L327.862 192.432
L328.085 207.569
L328.382 246
L328.457 247.218
L328.68 218.101
L328.978 189.149
L329.052 188.025
L329.201 211.794
L329.498 234.647
L329.647 237.671
L329.722 239.33
L330.168 200.415
L330.242 202.705
L330.391 221.03
L330.838 196.415
L330.912 199.56
L330.986 201.193
L331.21 228.495
L331.284 227.597
L331.433 220.546
L331.582 227.432
L331.656 225.92
L331.73 225.877
L331.805 230.206
L331.879 228.893
L332.102 210.222
L332.251 192.345
L333.144 238.785
L333.218 236.997
L333.367 229.973
L333.516 235.407
L333.739 206.593
L333.814 194.937
L333.888 195.024
L334.037 190.445
L334.186 202.394
L334.26 202.869
L334.558 221.583
L334.706 234.828
L335.078 220.581
L335.376 234.111
L335.45 233.273
L335.897 198.566
L335.971 195.525
L336.12 203.128
L336.194 199.551
L336.269 193.227
L336.641 241.023
L337.162 209.453
L337.236 210.61
L337.31 213.6
L337.385 212.589
L337.534 217.738
L337.682 227.683
L337.757 227.363
L337.98 220.002
L338.129 210.377
L338.278 198.126
L338.352 198.799
L338.575 221.618
L338.65 221.471
L338.798 226.015
L338.947 219.561
L339.022 219.812
L339.17 227.087
L339.394 202.903
L339.542 204.701
L339.617 209.306
L339.691 207.612
L339.766 207.336
L339.914 211.535
L339.989 210.991
L340.212 205.841
L340.286 207.854
L340.584 226.543
L340.733 231.977
L340.882 220.788
L341.03 227.692
L341.328 197.538
L341.402 193.719
L341.774 214.835
L341.923 230.707
L341.998 227.147
L342.072 227.398
L342.146 233.23
L342.221 232.452
L342.295 230.379
L342.37 234.258
L342.444 233.023
L342.667 217.401
L342.742 213.703
L342.816 214.619
L342.89 218.741
L342.965 217.531
L343.114 203.586
L343.188 207.344
L343.337 227.199
L343.486 224.711
L343.783 202.333
L343.858 212.814
L343.932 208.036
L344.006 203.284
L344.081 205.444
L344.155 206.679
L344.378 194.6
L344.602 206.342
L345.271 246.199
L345.792 188.077
L346.09 226.914
L346.164 230.88
L346.387 250.951
L346.462 253.197
L346.982 191.239
L347.057 191.792
L347.206 190.488
L347.28 187.507
L347.503 199.879
L347.801 233.126
L347.875 231.415
L348.098 226.568
L348.173 226.568
L348.247 226.292
L348.322 223.441
L348.47 229.065
L348.768 200.147
L348.842 204.087
L349.066 208.813
L349.214 202.653
L349.512 226.992
L349.661 215.933
L349.81 224.547
L349.958 210.308
L350.107 214.438
L350.256 207.595
L350.554 228.34
L350.702 231.96
L350.851 218.326
L350.926 209.427
L351.074 214.628
L351.223 206.437
L351.446 219.345
L351.818 204.174
L351.893 204.917
L352.042 203.387
L352.19 231.511
L352.265 230.638
L352.339 226.491
L352.488 247.996
L352.562 244.626
L353.158 178.832
L353.306 182.911
L353.381 184.483
L353.902 251.797
L354.348 195.343
L354.497 205.314
L354.571 202.402
L354.646 203.327
L354.869 211.319
L355.018 238.535
L355.39 215.319
L355.464 223.579
L355.538 222.352
L355.613 220.711
L355.687 228.089
L355.762 227.45
L356.134 189.382
L356.208 190.859
L356.506 225.851
L356.58 226.854
L356.803 211.708
L356.878 211.258
L356.952 212.2
L357.175 234.457
L357.25 229.973
L357.473 220.659
L357.696 201.08
L357.77 200.441
L358.068 218.257
L358.142 215.993
L358.291 207.388
L358.44 220.978
L358.514 220.901
L358.663 226.491
L358.961 212.433
L359.11 219.328
L359.258 207.293
L359.333 212.451
L359.482 203.327
L359.928 248.428
L360.3 202.169
L360.523 173.467
L360.97 219.259
L361.193 238.388
L361.416 227.579
L361.714 204.061
L361.937 221.013
L362.086 209.349
L362.383 225.212
L362.458 227.165
L362.755 207.932
L362.83 202.921
L362.978 215.682
L363.276 208.796
L363.574 225.687
L363.648 224.624
L363.722 212.848
L363.797 215.06
L363.871 225.92
L363.946 220.788
L364.094 207.863
L364.169 208.122
L364.243 202.852
L364.318 205.254
L364.392 212.528
L364.466 208.226
L364.541 211.846
L364.69 249.404
L364.764 248.531
L365.21 215.898
L365.434 196.285
L365.508 191.68
L365.806 211.543
L365.88 218.162
L365.954 216.753
L366.029 213.617
L366.103 215.371
L366.178 215.095
L366.624 198.558
L367.145 233.316
L367.219 234.284
L367.294 233.774
L367.517 214.429
L367.591 217.099
L367.666 218.896
L367.814 209.582
L367.889 210.446
L368.038 203.508
L368.112 205.867
L368.41 235.943
L368.484 238.051
L369.154 207.941
L369.228 211.535
L369.302 210.481
L369.377 207.033
L369.451 207.431
L369.526 209.66
L369.6 209.142
L369.749 192.916
L369.898 202.368
L369.972 199.94
L370.344 214.896
L370.418 216.339
L370.493 216.183
L370.567 214.429
L370.642 216.529
L370.865 227.199
L371.014 232.02
L371.088 230.595
L371.162 232.271
L371.311 246.717
L372.204 187.706
L372.427 208.217
L372.502 206.679
L372.576 211.673
L372.65 211.639
L372.799 199.914
L373.022 210.973
L373.246 225.048
L373.618 235.433
L373.841 222.05
L373.99 227.64
L374.213 232.15
L374.362 222.637
L374.734 200.113
L374.808 198.056
L374.882 200.372
L375.031 213.341
L375.106 212.157
L375.254 217.229
L375.403 223.423
L375.552 234.154
L375.775 204.355
L375.998 213.773
L376.147 207.439
L376.37 223.648
L376.445 221.635
L376.519 224.253
L376.594 223.588
L376.817 207.431
L376.966 211.578
L377.04 209.833
L377.189 193.667
L377.263 193.978
L377.635 206.878
L377.858 230.845
L378.156 257.327
L378.379 239.744
L378.454 239.399
L378.528 234.154
L378.826 188.639
L378.9 188.423
L379.049 203.068
L379.123 202.541
L379.198 201.59
L379.346 196.311
L379.421 197.797
L379.942 222.905
L380.165 228.236
L380.239 235.951
L380.314 232.591
L380.388 230.595
L380.611 234.301
L380.686 234.569
L380.834 228.806
L380.983 199.223
L381.058 200.009
L381.132 204.044
L381.281 196.501
L381.355 196.691
L381.727 209.574
L381.95 221.151
L382.099 215.717
L382.248 219.656
L382.397 224.305
L382.546 222.836
L382.769 231.511
L382.843 228.175
L382.992 216.848
L383.066 222.508
L383.215 215.535
L383.513 232.876
L383.587 231.381
L383.736 215.794
L383.959 194.497
L384.034 186.617
L384.108 186.876
L384.182 189.71
L384.257 189.624
L384.331 189.961
L384.406 193.071
L384.629 223.778
L384.703 222.801
L384.852 214.706
L385.224 227.839
L385.298 238.103
L385.373 237.904
L385.522 225.074
L385.745 230.863
L386.191 198.411
L386.266 190.471
L387.01 239.623
L387.456 224.832
L387.754 184.397
L387.828 185.01
L388.051 204.554
L388.2 220.391
L388.274 226.378
L388.349 226.24
L388.423 222.646
L388.572 230.586
L388.721 220.935
L388.944 202.299
L389.093 210.662
L389.167 206.999
L389.242 210.498
L389.39 230.059
L389.465 229.091
L389.688 244.246
L389.837 231.035
L390.134 191.594
L390.209 194.825
L390.283 192.034
L390.358 184.647
L390.73 217.678
L390.804 217.479
L390.878 219.423
L391.027 200.441
L391.102 201.988
L391.176 200.527
L391.697 240.384
L391.771 246.475
L391.846 243.183
L391.92 233.239
L391.994 236.504
L392.069 237.083
L392.366 206.256
L392.441 196.864
L392.515 198.082
L392.664 211.639
L392.813 209.358
L392.962 218.585
L393.036 218.473
L393.11 221.488
L393.259 218.62
L393.408 228.201
L393.482 227.743
L393.557 222.577
L393.631 222.689
L393.706 224.521
L394.152 195.179
L394.226 196.855
L394.375 215.475
L394.45 214.265
L394.673 207.457
L394.747 207.5
L394.822 208.813
L394.896 206.714
L395.194 186.911
L395.268 190.341
L395.342 186.168
L395.714 246.795
L395.789 245.948
L395.863 234.88
L396.012 247.875
L396.086 241.265
L396.161 243.9
L396.235 248.989
L396.384 241.93
L396.905 197.149
L397.054 189.036
L397.202 201.841
L397.5 225.955
L397.723 214.93
L397.798 214.006
L398.021 198.635
L398.095 200.363
L398.17 201.469
L398.393 195.067
L398.467 198.169
L398.765 226.836
L398.914 231.908
L399.062 223.13
L399.286 212.935
L399.36 212.839
L399.509 215.215
L399.658 215.017
L399.806 201.668
L399.881 201.694
L400.104 230.863
L400.402 278.046
L400.476 276.015
L400.55 277.51
L400.625 275.013
L400.997 171.955
L401.294 116.668
L401.369 116.719
L401.592 141.836
L401.815 199.776
L402.187 307.387
L402.262 305.806
L402.485 287.342
L402.634 257.491
L403.006 168.127
L403.154 165.138
L403.229 166.849
L403.378 182.185
L403.75 255.469
L403.824 261.846
L404.345 230.932
L404.791 154.485
L404.866 158.684
L405.089 171.86
L405.535 219.691
L405.61 219.389
L405.684 218.922
L405.833 208.303
L406.205 244.514
L406.428 268.533
L406.577 273.138
L406.726 268.904
L406.949 237.559
L407.395 214.999
L407.544 223.709
L407.693 216.131
L407.767 215.777
L407.916 177.891
L408.288 69.6401
L408.437 117.713
L408.958 334.672
L409.106 341.869
L409.181 338.983
L409.776 197.607
L410.148 123.467
L410.222 118.396
L410.297 120.944
L410.446 142.855
L410.966 257.275
L411.19 270.641
L411.264 265.146
L411.562 204.104
L411.934 232.884
L412.231 260.48
L412.306 257.966
L412.529 223.017
L412.901 152.887
L413.198 141.369
L413.422 165.561
L413.868 237.723
L414.389 286.565
L414.463 286.591
L414.612 282.21
L414.686 283.316
L414.984 237.965
L415.207 195.197
L415.282 192.389
L415.43 177.467
L415.505 177.873
L415.579 178.444
L415.728 167.955
L415.802 169.13
L416.323 208.986
L416.546 194.454
L416.695 203.595
L416.77 202.515
L416.918 210.42
L417.365 245.775
L417.514 232.53
L417.737 219.06
L418.034 229.091
L418.109 228.78
L418.258 210.654
L418.332 216.114
L418.481 206.679
L418.778 189.814
L418.927 208.183
L419.225 242.518
L419.299 241.317
L419.522 223.925
L419.671 234.379
L419.82 208.424
L419.969 226.819
L420.043 220.745
L420.118 223.735
L420.266 235.234
L420.564 206.221
L420.862 191.568
L420.936 193.59
L421.159 215.44
L421.234 210.559
L421.308 211.906
L421.457 223.095
L421.606 208.113
L421.68 209.159
L421.829 202.014
L422.275 229.316
L422.722 197.581
L422.796 200.078
L422.87 199.715
L422.945 194.298
L423.019 194.773
L423.614 243.365
L423.689 250.398
L423.912 237.921
L423.986 238.086
L424.061 238.258
L424.433 221.678
L424.656 200.657
L424.73 204.07
L424.879 195.698
L424.954 200.562
L425.028 199.102
L425.102 194.151
L425.177 196.372
L425.326 202.247
L425.4 202.402
L425.549 215.475
L425.698 203.128
L425.772 208.001
L426.07 232.686
L426.218 231.614
L426.442 224.296
L426.59 227.769
L426.739 217.28
L426.888 221.186
L427.186 200.061
L427.409 182.288
L427.483 184.414
L427.632 187.758
L428.153 246.38
L428.227 243.235
L428.45 253.663
L428.525 253.517
L428.971 211.872
L429.046 203.5
L429.194 211.276
L429.269 207.319
L429.418 189.537
L429.566 195.335
L429.79 181.744
L430.236 222.551
L430.31 231.787
L430.385 227.64
L430.459 226.015
L430.608 234.828
L430.682 228.746
L430.757 231.148
L430.906 226.681
L431.054 208.977
L431.129 209.055
L431.203 213.004
L431.352 203.171
L431.724 232.703
L431.798 241.602
L431.873 240.349
L432.17 209.383
L432.319 186.159
L432.468 184.855
L432.989 241.758
L433.212 231.675
L433.51 219.034
L433.584 214.377
L433.733 219.034
L433.882 205.625
L433.956 209.772
L434.03 212.269
L434.254 195.395
L434.477 210.386
L434.551 209.297
L434.626 204.536
L434.7 207.249
L434.849 218.378
L434.923 219.017
L435.146 231.174
L435.295 221.773
L435.444 223.985
L435.667 216.84
L435.89 202.014
L435.965 203.128
L436.039 201.288
L436.188 215.017
L436.262 214.04
L436.486 228.59
L436.783 210.17
L437.081 188.12
L437.378 220.08
L437.527 250.493
L437.602 248.687
L437.676 250.009
L437.825 233.264
L437.899 234.854
L438.048 227.519
L438.197 235.822
L438.346 214.87
L438.494 225.523
L438.643 217.09
L438.792 223.804
L438.941 216.65
L439.164 226.206
L439.238 223
L439.685 164.421
L439.759 164.507
L439.982 173.009
L440.354 239.373
L440.429 234.63
L440.652 213.306
L440.801 208.062
L440.95 212.425
L441.47 273.518
L441.545 270.71
L441.619 271.687
L441.694 278.287
L441.842 256.368
L442.289 204.07
L442.661 171.998
L442.735 174.435
L443.033 135.771
L443.182 139.201
L443.256 140.125
L443.405 157.44
L443.777 280.525
L444 328.572
L444.074 335.087
L444.149 332.408
L444.67 208.934
L444.967 146.934
L445.042 140.194
L445.637 170.365
L445.86 196.544
L446.53 272.084
L446.604 269.639
L446.678 266.407
L446.827 273.561
L447.125 243.399
L447.348 209.116
L447.571 178.331
L447.869 189.511
L447.943 189.676
L448.241 201.184
L448.39 219.985
L448.464 219.605
L448.538 211.664
L448.613 212.088
L448.687 213.271
L448.762 218.015
L448.836 215.768
L448.91 220.132
L449.059 241.308
L449.134 237.731
L449.208 238.302
L449.282 243.581
L449.357 242.215
L449.506 220.728
L449.58 223.899
L449.729 203.845
L449.878 187.274
L449.878 187.274" style="fill:none;stroke:#808080;stroke-linecap:square;"/>
   </g>
  </g>
 </g>
 <defs>
  <clipPath id="p7ff5b81e1d">
   <rect height="345.6" width="446.4" x="72.0" y="43.2"/>
  </clipPath>
 </defs>
</svg>
