<?xml version="1.0" encoding="utf-8" standalone="no"?>
<!DOCTYPE svg PUBLIC "-//W3C//DTD SVG 1.1//EN"
  "http://www.w3.org/Graphics/SVG/1.1/DTD/svg11.dtd">
<!-- Created with matplotlib (http://matplotlib.org/) -->
<svg height="432pt" version="1.1" viewBox="0 0 576 432" width="576pt" xmlns="http://www.w3.org/2000/svg" xmlns:xlink="http://www.w3.org/1999/xlink">
 <defs>
  <style type="text/css">
*{stroke-linecap:butt;stroke-linejoin:round;}
  </style>
 </defs>
 <g id="figure_1">
  <g id="patch_1">
   <path d="
M0 432
L576 432
L576 0
L0 0
z
" style="fill:#ffffff;"/>
  </g>
  <g id="axes_1">
   <g id="line2d_1">
    <path clip-path="url(#p7ff5b81e1d)" d="
M72 205.124
L72.2976 43.6803
L72.372 47.316
L72.6696 115.89
L72.744 123.859
L72.8928 204.654
L73.1904 366.561
L73.2648 366.505
L73.4136 310.242
L73.7856 143.255
L74.0088 110.264
L74.3064 98.3749
L74.4552 87.3572
L74.5296 90.3708
L74.6784 120.977
L74.976 211.455
L75.1248 192.841
L75.1992 194.141
L75.5712 282.027
L75.6456 276.152
L75.8688 220.289
L76.2408 136.419
L76.5384 99.0523
L76.6128 98.9832
L76.7616 116.837
L77.5056 251.87
L77.58 251.773
L77.7288 243.161
L78.0264 199.021
L78.3984 150.429
L78.4728 150.609
L78.696 161.592
L79.068 183.925
L79.1424 183.095
L79.44 169.499
L79.7376 160.7
L79.812 160.852
L79.9608 167.384
L80.556 204.495
L80.6304 204.37
L80.7792 199.967
L81.0024 185.321
L81.3 159.601
L81.3744 157.348
L81.4488 158.205
L81.5976 168.746
L81.8952 196.532
L81.9696 196.643
L82.3416 176.301
L82.5648 167.343
L82.6392 167.744
L82.788 174.414
L83.0856 210.488
L83.2344 220.268
L83.3088 218.561
L83.6064 184.201
L83.9784 156.629
L84.2016 147.319
L84.276 147.982
L84.3504 151.307
L84.648 180.628
L84.7968 182.922
L84.9456 182.204
L85.02 182.383
L85.1688 190.678
L85.6152 238.149
L85.6896 238.232
L85.8384 223.365
L86.0616 155.53
L86.2848 101.838
L86.3592 101.568
L86.508 126.645
L86.88 218.035
L86.9544 217.496
L87.1032 198.578
L87.4008 153.401
L87.5496 173.598
L87.9216 240.147
L87.996 236.414
L88.2192 182.84
L88.4424 137.386
L88.5168 135.361
L88.74 144.409
L88.8144 143.932
L88.8888 144.72
L89.1864 156.615
L89.3352 165.49
L89.7072 203.5
L89.7816 202.774
L89.9304 192.938
L90.1536 177.262
L90.228 179.646
L90.7488 249.444
L90.8232 245.628
L91.0464 222.549
L91.6416 126.134
L91.7904 115.289
L91.8648 116.063
L92.1624 140.275
L92.9064 204.191
L93.3528 235.108
L93.4272 231.12
L94.0968 128.788
L94.1712 128.152
L94.32 144.844
L94.7664 229.724
L94.8408 231.472
L94.9896 226.316
L95.436 192.848
L95.808 150.042
L96.1056 134.214
L96.18 135.769
L96.4032 154.286
L96.924 218.962
L96.9984 216.591
L97.3704 181.941
L97.668 172.665
L97.7424 173.799
L97.9656 184.077
L98.1888 191.148
L98.2632 191.141
L98.412 189.206
L98.6352 186.455
L98.8584 187.339
L98.9328 186.641
L99.0816 179.39
L99.2304 176.149
L99.4536 183.517
L99.528 181.789
L99.8256 171.379
L100.495 186.385
L100.644 185.653
L100.718 186.226
L100.793 186.137
L100.942 182.584
L101.314 167.889
L101.462 176.688
L101.686 189.752
L101.76 189.185
L101.983 193.332
L102.058 192.039
L102.355 169.23
L102.43 170.716
L102.578 175.9
L102.653 175.319
L102.802 172.845
L103.099 184.692
L103.174 184.457
L103.248 184.201
L103.322 182.943
L103.397 183.019
L103.546 188.445
L103.769 196.097
L103.843 195.641
L103.992 188.929
L104.215 177.455
L104.513 172.271
L104.587 173.17
L104.885 180.648
L105.108 183.8
L105.182 182.86
L105.406 159.422
L105.629 145.494
L105.703 146.026
L105.852 156.532
L106.373 225.141
L106.522 229.938
L106.745 236.567
L106.894 224.65
L107.34 159.892
L107.712 124.392
L107.861 133.723
L108.158 151.929
L108.307 160.051
L108.902 206.306
L109.2 241.142
L109.274 243.078
L109.423 234.265
L110.242 138.368
L110.316 139.384
L111.209 207.847
L111.358 208.255
L111.432 207.681
L111.581 200.037
L111.953 146.095
L112.027 147.312
L112.102 148.736
L112.25 144.284
L112.325 144.471
L112.548 168.594
L112.994 209.713
L113.069 211.504
L113.143 208.919
L113.441 180.579
L113.515 180.745
L113.664 186.012
L113.738 185.148
L113.813 183.448
L113.887 184.803
L114.185 205.905
L114.259 203.873
L114.631 180.261
L115.003 170.799
L115.078 171.027
L115.226 174.124
L115.375 172.105
L115.598 173.225
L115.747 171.11
L116.045 162.657
L116.119 164.101
L116.194 164.101
L116.342 161.302
L116.491 169.237
L116.789 188.238
L116.863 187.982
L116.938 189.268
L117.235 206.437
L117.31 205.456
L117.533 196.975
L117.682 200.348
L117.756 199.719
L118.128 190.885
L118.202 190.692
L118.351 186.22
L118.946 158.883
L119.095 153.885
L119.17 154.383
L119.244 155.62
L119.318 155.261
L119.393 155.447
L119.616 169.009
L120.137 212.368
L120.286 206.962
L120.583 175.741
L120.732 164.944
L120.806 165.497
L121.327 196.249
L121.476 194.984
L121.625 190.242
L121.922 179.045
L122.071 170.287
L122.294 160.991
L122.369 160.97
L122.592 177.241
L123.038 203.562
L123.187 199.891
L123.336 187.277
L123.634 155.959
L123.708 157.41
L124.006 186.164
L124.229 198.744
L124.75 169.257
L124.824 169.548
L125.047 174.946
L125.196 170.294
L125.27 171.124
L125.494 181.823
L125.568 181.201
L125.642 179.805
L125.717 182.086
L126.089 211.338
L126.386 196.518
L126.758 155.351
L126.907 162.373
L127.205 182.37
L127.354 183.863
L127.577 173.128
L127.651 173.418
L127.874 182.605
L128.023 179.93
L128.172 176.66
L128.246 177.407
L128.47 185.01
L128.916 201.896
L129.139 187.028
L129.437 161.454
L129.511 160.922
L129.586 161.606
L129.734 168.373
L130.106 194.424
L130.181 195.378
L130.33 187.056
L130.553 175.865
L130.627 176.888
L130.925 188.01
L131.52 166.126
L131.594 167.17
L131.743 169.313
L132.264 199.435
L132.785 181.167
L133.082 188.473
L133.157 188.397
L133.678 161.965
L133.752 162.601
L134.198 191.127
L134.273 190.719
L134.57 181.893
L134.645 183.8
L134.868 191.01
L135.017 184.333
L135.314 169.292
L135.538 164.778
L135.612 164.419
L135.761 168.898
L136.133 209.25
L136.207 208.158
L136.505 184.125
L136.728 172.61
L136.802 171.649
L136.877 172.382
L137.1 183.496
L137.323 194.542
L137.398 193.864
L137.621 183.939
L137.918 164.937
L138.142 178.278
L138.29 181.913
L138.514 172.955
L138.737 166.016
L138.886 167.212
L139.034 175.665
L139.406 202.262
L139.555 194.445
L139.927 168.649
L140.076 173.446
L140.671 196.926
L140.746 195.993
L140.969 182.888
L141.118 178.202
L141.341 185.736
L141.638 196.173
L141.787 188.659
L142.159 163.673
L142.308 161.267
L142.382 161.053
L142.457 161.157
L142.754 175.471
L142.829 175.022
L142.903 174.573
L143.052 176.169
L143.126 175.879
L143.275 174.469
L143.35 174.469
L143.424 174.061
L143.498 175.492
L143.945 206.52
L144.019 205.836
L144.242 191.369
L144.614 162.857
L144.689 162.332
L144.912 186.482
L145.135 204.882
L145.21 202.518
L145.656 161.364
L145.73 163.092
L146.177 200.928
L146.251 200.147
L146.623 168.096
L146.772 160.078
L146.921 168.124
L147.293 191.639
L147.367 192.848
L147.442 192.731
L147.59 188.12
L147.888 177.296
L147.962 177.939
L148.186 184.872
L148.334 179.619
L148.632 156.823
L148.706 156.94
L149.302 192.668
L149.45 193.132
L149.822 188.659
L150.12 178.526
L150.269 187.726
L150.492 202.642
L150.641 195.247
L151.236 154.77
L151.31 155.765
L151.682 183.068
L151.831 182.542
L151.906 183.662
L151.98 182.964
L152.278 176.335
L152.352 176.404
L152.65 182.681
L152.724 181.485
L152.798 179.48
L152.873 181.616
L153.096 196.664
L153.17 196.456
L153.394 184.65
L153.617 176.487
L153.691 175.672
L153.766 176.252
L153.84 177.994
L153.914 176.964
L154.138 163.451
L154.212 164.053
L154.584 197.617
L154.807 214.704
L154.882 214.4
L155.03 203.596
L155.551 153.18
L155.626 151.715
L155.7 152.682
L155.849 160.203
L156.295 194.224
L156.518 209.561
L156.667 198.495
L156.89 178.554
L156.965 178.409
L157.114 186.468
L157.262 197.873
L157.337 196.546
L157.56 165.622
L157.709 150.892
L157.858 159.933
L158.081 184.395
L158.155 184.001
L158.304 179.964
L158.378 180.51
L158.527 186.537
L158.75 195.226
L158.825 193.353
L158.974 180.731
L159.197 156.83
L159.271 158.302
L159.718 201.64
L159.792 200.797
L160.015 193.857
L160.164 199.221
L160.238 201.737
L160.313 199.131
L160.536 166.873
L160.759 142.149
L160.834 141.036
L160.982 159.346
L161.354 226.669
L161.429 226.544
L161.652 204.474
L162.396 134.456
L162.47 136.902
L162.694 171.214
L162.991 206.382
L163.214 212.831
L163.289 213.128
L163.363 212.589
L163.512 203.811
L164.033 153.699
L164.182 169.617
L164.479 202.062
L164.554 199.656
L165 159.864
L165.149 154.328
L165.298 157.265
L165.446 164.543
L165.967 212.478
L166.042 210.363
L166.265 203.631
L166.414 203.804
L166.488 203.03
L166.637 191.251
L166.934 164.806
L167.158 159.671
L167.232 162.028
L167.53 192.489
L167.604 191.21
L168.125 153.429
L168.274 167.246
L168.497 185.694
L168.72 181.512
L168.869 191.68
L169.092 209.022
L169.166 208.677
L169.241 206.347
L169.538 185.805
L169.613 185.902
L169.836 191.611
L169.91 189.523
L170.282 167.682
L170.431 174.248
L170.58 179.017
L170.729 168.711
L170.952 153.657
L171.026 154.86
L171.25 176.439
L171.473 191.466
L171.547 192.019
L171.622 191.334
L171.845 196.905
L171.994 200.555
L172.068 198.71
L172.44 160.659
L172.589 171.345
L173.035 210.37
L173.184 203.652
L173.556 179.605
L173.854 150.643
L174.002 148.763
L174.077 148.383
L174.151 149.945
L174.3 160.859
L174.746 206.962
L174.895 210.501
L175.044 196.684
L175.342 170.847
L175.49 167.26
L175.639 162.995
L175.714 164.35
L175.937 184.146
L176.16 201.896
L176.309 204.979
L176.383 204.08
L176.681 190.201
L176.755 189.074
L176.904 177.427
L177.202 145.674
L177.276 145.238
L177.425 158.703
L177.946 209.465
L178.02 210.778
L178.094 210.418
L178.318 201.626
L178.615 174.041
L178.913 157.479
L178.987 157.12
L179.21 161.343
L179.285 161.06
L179.508 150.222
L179.582 151.618
L179.806 181.402
L180.103 221.616
L180.178 223.123
L180.252 221.657
L180.624 203.631
L180.698 203.036
L180.847 196.47
L181.517 152.475
L181.591 151.812
L181.666 152.759
L181.74 152.669
L181.889 151.203
L182.038 154.825
L182.261 174.808
L182.633 229.261
L182.707 224.823
L183.079 178.955
L183.228 175.99
L183.526 165.843
L183.6 166.223
L184.046 186.655
L184.27 194.106
L184.344 193.809
L184.493 188.1
L184.79 174.974
L184.939 184.844
L185.088 193.132
L185.237 179.93
L185.46 157.106
L185.609 169.686
L185.832 182.045
L185.906 182.48
L186.204 187.941
L186.278 187.173
L186.799 168.152
L186.874 168.94
L187.097 182.936
L187.469 214.552
L187.543 214.13
L187.766 181.913
L187.915 166.361
L187.99 166.983
L188.287 189.067
L188.362 186.849
L188.659 172.838
L188.734 172.61
L188.957 174.372
L189.031 173.909
L189.106 172.962
L189.18 173.149
L189.329 176.225
L189.552 172.513
L189.626 173.114
L189.775 171.912
L189.85 173.716
L190.147 187.312
L190.222 187.319
L190.445 179.231
L190.519 181.492
L190.742 198.032
L190.817 196.988
L191.114 181.367
L191.189 182.446
L191.486 190.215
L191.635 188.355
L191.858 184.63
L192.082 185.314
L192.305 188.1
L192.379 187.754
L192.454 185.95
L192.602 171.303
L192.826 145.515
L192.9 144.347
L193.049 155.274
L193.346 195.212
L193.421 194.763
L193.718 178.679
L194.016 189.841
L194.09 189.71
L194.165 190.173
L194.239 189.938
L194.388 189.579
L194.611 187.623
L194.76 189.8
L194.983 193.85
L195.132 191.21
L195.578 165.808
L195.653 166.327
L195.876 175.61
L196.174 163.707
L196.62 180.814
L197.141 210.833
L197.215 211.386
L197.364 209.409
L197.513 199.352
L197.885 161.419
L198.034 158.537
L198.257 167.834
L198.331 167.447
L198.629 162.304
L198.703 162.546
L198.926 177.607
L199.373 207.301
L199.596 211.628
L199.745 211.697
L199.819 211.483
L199.968 198.592
L200.414 144.969
L200.563 148.77
L200.638 150.63
L200.712 149.759
L200.861 146.082
L201.01 142.598
L201.158 155.641
L201.754 232.385
L201.828 234.59
L201.902 234.493
L202.051 225.348
L202.795 143.918
L202.87 144.906
L203.316 163.935
L203.465 167.606
L203.614 178.955
L203.911 202.159
L204.06 196.463
L204.283 182.625
L204.655 207.239
L204.73 205.214
L205.027 185.729
L205.697 135.783
L205.771 139.453
L206.292 207.246
L206.366 204.875
L207.036 180.911
L207.259 158.972
L207.408 169.79
L207.706 206.064
L207.929 202.477
L208.078 196.525
L208.152 197.534
L208.301 201.599
L208.375 201.004
L208.524 186.6
L208.822 153.305
L208.896 153.526
L209.194 176.404
L209.268 176.287
L209.491 168.096
L209.789 181.284
L209.863 180.877
L210.086 174.089
L210.235 165.587
L210.31 166.32
L210.607 188.915
L210.682 188.03
L210.905 182.038
L210.979 182.798
L211.351 193.678
L211.426 194.072
L211.798 202.615
L211.946 196.27
L212.244 181.443
L212.393 182.826
L212.467 182.307
L212.988 163.88
L213.062 165.732
L213.36 184.422
L213.658 161.896
L213.732 162.698
L214.253 189.475
L214.476 186.572
L214.625 192.33
L214.774 195.226
L214.922 183.358
L215.071 167.91
L215.146 168.677
L215.518 195.544
L215.815 184.823
L215.89 185.065
L216.113 194.984
L216.262 200.044
L216.41 189.427
L216.708 163.396
L216.782 163.23
L216.931 169.548
L217.006 169.147
L217.303 157.092
L217.378 157.155
L217.526 165.94
L217.898 189.696
L217.973 189.634
L218.122 192.33
L218.568 212.713
L218.642 213.004
L218.866 199.636
L219.089 176.888
L219.535 146.476
L219.61 145.639
L219.833 149.489
L220.056 170.93
L220.354 199.048
L220.428 200.7
L220.577 196.442
L220.651 194.555
L220.726 194.797
L221.023 200.742
L221.172 195.82
L221.47 168.076
L221.544 170.322
L221.916 188.577
L222.139 181.506
L222.288 179.121
L222.362 179.439
L222.586 183.503
L222.66 182.999
L222.809 178.533
L223.032 165.366
L223.106 165.186
L223.33 176.204
L223.478 181.63
L223.702 175.969
L223.776 176.287
L223.85 176.923
L224.222 188.77
L224.446 182.107
L224.669 165.933
L224.743 167.37
L224.892 183.13
L225.115 203.741
L225.636 186.634
L225.71 186.648
L225.859 190.761
L225.934 189.337
L226.008 190.056
L226.082 188.812
L226.306 173.695
L226.529 161.682
L226.603 161.011
L226.752 164.848
L227.05 181.789
L227.273 179.073
L227.422 182.425
L227.57 191.659
L227.645 191.203
L228.017 179.826
L228.24 190.823
L228.314 189.033
L228.686 169.423
L228.761 170.605
L229.058 185.051
L229.133 184.381
L229.877 164.073
L230.026 182.273
L230.323 220.849
L230.472 211.683
L230.77 180.296
L230.918 180.407
L231.067 182.114
L231.439 165.815
L231.662 159.567
L231.811 163.597
L232.406 189.758
L232.63 184.512
L232.704 184.505
L232.853 188.231
L233.076 193.159
L233.225 190.152
L233.299 190.968
L233.448 192.226
L233.522 190.498
L233.894 165.836
L233.969 166.818
L234.49 189.544
L235.01 174.96
L235.085 174.842
L235.234 179.46
L235.457 185.017
L235.606 180.476
L235.754 177.545
L236.052 190.54
L236.126 189.019
L236.35 183.531
L236.647 175.223
L236.796 182.646
L236.945 191.86
L237.019 190.318
L237.242 175.969
L237.317 177.075
L237.614 185.459
L237.763 187.118
L238.061 178.008
L238.135 178.478
L238.284 186.309
L238.433 196.276
L238.507 194.894
L238.656 179.784
L239.102 111.432
L239.251 139.501
L239.698 274.659
L239.846 264.284
L240.144 216.321
L240.739 92.866
L240.814 94.4282
L241.111 125.007
L241.334 163.859
L241.781 250.169
L241.855 255.035
L241.93 254.607
L242.078 242.863
L242.376 212.879
L242.525 205.87
L243.194 149.862
L243.343 145.238
L243.418 146.296
L243.492 146.095
L243.566 144.284
L243.641 144.409
L243.79 150.782
L244.236 202.884
L244.385 191.625
L244.608 173.571
L244.682 173.895
L244.98 181.229
L245.054 178.43
L245.352 143.151
L245.575 162.504
L246.17 238.778
L246.245 242.165
L246.319 241.605
L246.394 239.642
L246.617 220.932
L247.063 168.158
L247.51 132.748
L247.584 133.211
L247.882 151.756
L248.254 182.425
L248.626 193.173
L248.7 193.09
L248.849 198.972
L249.072 208.704
L249.221 200.03
L249.518 184.187
L249.742 186.13
L249.816 185.888
L250.039 190.27
L250.114 188.729
L250.337 172.983
L250.858 118.04
L250.932 122.249
L251.23 185.902
L251.453 211.061
L251.899 261.464
L251.974 258.471
L252.346 212.603
L253.015 98.9901
L253.238 68.598
L253.313 67.658
L253.387 70.5126
L253.61 110.948
L254.206 258.609
L254.28 258.581
L254.726 224.464
L254.95 212.305
L255.173 198.537
L255.322 194.41
L255.768 172.658
L255.991 161.164
L256.14 170.633
L256.289 183.151
L256.363 183.026
L256.735 153.464
L256.81 154.272
L257.033 157.5
L257.107 157.231
L257.182 157.452
L257.256 158.102
L257.479 169.092
L257.777 187.443
L257.926 188.438
L258 189.973
L258.149 203.285
L258.446 233.166
L258.595 213.404
L258.893 167.557
L259.19 155.033
L259.265 154.673
L259.414 155.364
L259.562 163.472
L259.934 205.698
L260.009 201.972
L260.455 152.088
L260.604 159.035
L261.05 194.051
L261.422 231.935
L261.571 223.959
L261.943 195.295
L262.092 187.996
L262.464 159.228
L262.91 138.264
L262.985 138.347
L263.134 150.187
L263.506 186.489
L263.654 187.014
L263.803 193.809
L264.101 211.365
L264.175 210.736
L264.547 186.033
L264.622 185.224
L264.77 187.636
L264.919 179.84
L265.291 143.69
L265.366 145.522
L265.738 179.985
L265.812 180.98
L266.035 195.696
L266.407 234.23
L266.482 234.32
L266.63 219.024
L266.928 177.856
L267.3 154.369
L267.523 146.434
L267.821 158.171
L268.118 174.428
L268.416 188.093
L268.49 187.996
L268.565 187.533
L268.862 172.084
L268.937 172.319
L269.234 182.038
L269.309 181.727
L269.383 181.996
L269.458 183.821
L269.755 201.557
L269.83 200.714
L270.127 188.286
L270.35 182.231
L270.425 182.798
L270.574 192.848
L270.797 214.766
L270.871 213.688
L271.094 192.862
L271.838 140.656
L271.913 141.492
L272.062 149.462
L272.657 194.666
L272.88 210.142
L272.954 209.817
L273.029 206.776
L273.624 148.909
L273.698 151.383
L273.996 182.48
L274.442 237.237
L274.517 235.398
L274.666 219.459
L275.186 126.749
L275.261 127.53
L275.41 148.895
L275.782 214.669
L275.93 219.604
L276.005 219.446
L276.154 211.752
L276.451 161.71
L276.749 127.15
L276.898 121.157
L277.121 143.98
L277.418 200.161
L277.716 248.027
L277.939 255.872
L278.088 240.361
L278.683 147.955
L278.758 147.664
L278.981 151.044
L279.278 164.675
L279.427 160.168
L279.725 148.639
L279.874 155.309
L280.171 187.478
L280.469 222.984
L280.543 223.731
L280.692 216.93
L281.585 153.339
L281.659 149.551
L281.734 150.07
L281.957 160.376
L282.18 189.772
L282.478 227.325
L282.552 227.311
L282.701 217.918
L283.296 155.682
L283.37 155.634
L283.594 165.573
L283.891 181.823
L283.966 181.45
L284.338 169.804
L284.486 174.345
L284.635 171.324
L284.784 177.891
L285.082 199.539
L285.23 195.323
L285.528 186.24
L285.826 178.464
L285.9 178.575
L285.974 178.962
L286.272 186.012
L286.346 185.874
L286.644 181.029
L286.793 180.199
L286.942 184.208
L287.016 183.337
L287.462 167.288
L287.611 174.047
L287.834 189.42
L287.983 185.127
L288.281 167.405
L288.355 170.156
L288.578 182.577
L288.876 206.154
L289.025 200.914
L289.471 169.603
L289.62 172.423
L289.843 181.872
L289.918 182.452
L290.364 194.97
L290.438 194.694
L290.513 193.643
L290.662 184.637
L290.959 162.643
L291.034 162.857
L291.182 166.251
L291.406 171.034
L291.48 172.326
L291.703 179.432
L291.852 179.384
L291.926 180.199
L292.001 179.791
L292.075 180.268
L292.298 192.793
L292.373 191.846
L292.745 175.354
L292.819 174.006
L292.894 174.027
L293.117 179.328
L293.489 206.458
L293.563 206.223
L294.01 192.309
L294.233 176.605
L294.456 159.726
L294.605 146.469
L294.679 146.441
L295.051 176.439
L295.274 192.316
L295.349 193.014
L295.423 192.641
L295.646 186.842
L295.721 186.973
L295.87 189.793
L296.167 197.673
L296.316 191.929
L296.688 166.721
L296.911 169.361
L297.209 180.4
L297.283 180.102
L297.581 172.333
L297.804 168.739
L297.878 169.43
L298.027 177.808
L298.474 211.752
L298.622 206.119
L298.846 187.823
L299.069 176.757
L299.218 180.365
L299.366 184.381
L299.441 183.42
L299.59 175.229
L299.813 164.073
L300.036 167.751
L300.259 184.54
L300.482 195.005
L300.557 192.385
L300.929 164.177
L301.003 165.414
L301.301 185.307
L301.375 185.404
L301.673 178.658
L301.822 181.381
L302.268 192.323
L302.417 194.452
L302.491 194.39
L302.789 181.001
L302.938 184.174
L303.012 183.932
L303.384 162.034
L303.458 162.933
L303.905 190.954
L304.054 184.879
L304.202 180.476
L304.277 179.833
L304.426 177.393
L304.798 184.554
L304.946 188.839
L305.021 186.703
L305.244 191.535
L305.318 191.037
L305.393 190.429
L305.542 187.892
L305.765 190.885
L305.839 189.233
L306.211 161.578
L306.286 162.684
L306.434 173.674
L306.658 190.968
L306.732 192.261
L306.806 189.828
L307.253 151.1
L307.327 149.365
L307.476 159.567
L307.997 215.202
L308.071 216.01
L308.146 215.865
L308.22 213.384
L308.518 189.517
L308.741 175.706
L309.038 157.092
L309.113 158.82
L309.559 185.501
L309.634 185.169
L309.708 184.844
L309.857 190.173
L310.006 194.403
L310.154 187.471
L310.452 172.485
L310.675 180.261
L310.75 179.536
L310.824 177.13
L310.898 177.497
L311.419 206.216
L311.494 205.912
L311.642 189.8
L312.089 134.753
L312.163 137.856
L312.312 160.161
L312.684 222.957
L312.758 221.581
L313.428 149.544
L313.726 165.117
L314.321 218.388
L314.395 216.895
L314.99 159.442
L315.065 162.249
L315.288 183.282
L315.511 206.658
L315.586 206.492
L315.883 194.078
L316.106 180.669
L316.181 181.796
L316.255 179.384
L316.553 154.452
L316.627 155.738
L317.074 173.425
L317.222 171.704
L317.446 178.824
L317.52 176.75
L317.594 174.531
L317.669 174.663
L317.818 180.407
L317.892 180.068
L317.966 177.427
L318.041 178.312
L318.264 187.415
L318.487 180.4
L318.562 182.342
L318.859 208.621
L319.082 229.108
L319.231 221.74
L319.38 204.813
L319.752 150.491
L320.124 162.843
L320.347 166.348
L320.422 166.244
L320.496 166.334
L321.389 196.546
L321.463 195.862
L321.761 179.342
L321.835 179.653
L322.207 189.807
L322.356 199.705
L322.43 198.668
L322.654 186.081
L322.802 177.669
L323.026 192.102
L323.1 188.12
L323.398 162.11
L323.546 165.014
L323.695 159.249
L323.77 160.044
L324.067 169.548
L324.142 169.527
L324.216 169.285
L324.29 171.117
L324.811 207.038
L324.96 209.762
L325.034 209.209
L325.332 189.579
L325.481 198.032
L325.555 196.968
L325.853 164.053
L326.002 167.274
L326.076 167.073
L326.374 147.664
L326.448 149.655
L326.894 181.9
L327.118 197.942
L327.192 196.657
L327.266 194.231
L327.341 195.523
L327.638 210.142
L327.713 209.354
L327.862 198.219
L328.234 153.457
L328.308 153.54
L328.382 154.148
L328.531 172.036
L328.829 211.545
L328.978 199.069
L329.35 160.078
L329.424 161.426
L329.722 184.084
L329.796 183.351
L330.019 170.681
L330.242 181.637
L330.317 179.225
L330.466 166.97
L330.54 167.675
L330.838 197.977
L330.912 197.797
L331.135 188.646
L331.21 189.219
L331.358 191.583
L331.507 189.212
L331.73 179.584
L332.102 152.178
L332.251 169.216
L332.474 205.151
L332.549 203.548
L332.995 176.757
L333.07 178.727
L333.367 200.493
L333.739 167.281
L333.814 170.633
L334.037 187.084
L334.483 168.622
L334.632 176.515
L334.855 206.935
L334.93 206.7
L335.078 187.948
L335.302 163.963
L335.376 163.465
L335.45 163.631
L335.674 167.232
L335.971 173.073
L336.418 194.555
L336.566 202.069
L336.79 198.011
L337.087 209.147
L337.236 197.562
L337.682 145.494
L337.757 145.349
L338.054 162.67
L338.426 184.837
L338.65 194.154
L338.947 211.123
L339.468 195.067
L339.691 169.492
L339.989 141.029
L340.063 141.174
L340.212 149.745
L340.956 221.139
L341.03 220.482
L341.328 196.968
L341.551 171.898
L341.849 157.431
L342.072 155.938
L342.593 182.238
L342.667 181.63
L342.742 183.531
L343.039 204.184
L343.114 203.569
L343.56 168.974
L343.634 171.407
L343.932 185.279
L344.081 181.782
L344.23 177.738
L344.453 197.984
L344.602 207.419
L344.676 205.131
L345.048 167.536
L345.122 167.467
L345.346 179.128
L345.494 185.86
L345.569 183.925
L345.866 157.714
L345.941 160.887
L346.238 187.166
L346.387 177.745
L346.61 161.502
L346.759 168.898
L347.057 199.152
L347.131 198.468
L347.28 191.037
L347.354 191.369
L347.726 205.393
L347.801 205.905
L347.95 195.986
L348.322 158.205
L348.619 182.459
L348.694 182.307
L348.991 164.136
L349.066 166.631
L349.363 185.756
L349.735 174.082
L349.958 163.845
L350.033 163.521
L350.479 192.212
L350.628 195.309
L350.851 200.603
L351 194.922
L351.149 189.454
L351.298 194.307
L351.446 186.019
L351.744 167.771
L352.042 176.584
L352.265 173.778
L352.414 178.243
L352.637 185.3
L352.711 185.017
L352.786 185.203
L352.934 184.118
L353.083 186.04
L353.604 166.645
L353.678 166.977
L353.753 168.476
L354.05 183.558
L354.274 177.186
L354.869 210.508
L354.943 217.082
L355.018 214.538
L355.315 170.585
L355.464 160.141
L355.538 160.403
L355.762 156.443
L355.91 160.749
L356.059 173.978
L356.208 184.837
L356.282 184.388
L356.431 179.619
L356.506 181.817
L356.729 200.002
L356.803 199.76
L357.026 191.811
L357.175 195.26
L357.25 197.521
L357.324 196.919
L357.994 166.016
L358.217 163.811
L358.291 164.606
L358.514 170.688
L358.738 169.327
L358.886 171.856
L359.035 181.402
L359.333 208.573
L359.482 209.015
L359.556 207.847
L359.779 202.034
L359.854 201.861
L359.928 200.977
L360.077 184.899
L360.449 135.9
L360.523 133.218
L360.598 136.633
L361.193 207.916
L361.342 215.374
L361.416 214.614
L362.086 191.908
L362.606 141.485
L362.681 143.649
L363.499 202.193
L363.574 200.126
L363.648 197.548
L363.722 198.627
L363.946 222.736
L364.02 218.844
L364.318 176.854
L364.392 177.974
L364.615 185.107
L364.838 171.76
L364.987 173.709
L365.359 166.617
L365.508 171.373
L365.731 183.109
L365.806 181.9
L365.954 174.103
L366.178 186.316
L366.252 185.653
L366.401 183.075
L366.55 190.83
L366.624 195.205
L366.698 193.719
L366.996 178.243
L367.219 183.925
L367.442 191.86
L367.591 182.992
L367.814 158.012
L367.889 159.574
L368.484 195.703
L368.856 174.089
L368.93 174.801
L369.005 173.522
L369.079 174.103
L369.228 184.768
L369.451 198.364
L369.898 178.803
L369.972 180.296
L370.27 202.179
L370.344 201.357
L370.716 171.462
L370.79 171.621
L370.865 173.515
L370.939 172.513
L371.311 143.586
L371.386 143.877
L371.758 172.216
L372.204 219.846
L372.278 220.78
L372.427 213.778
L372.65 201.661
L372.725 203.983
L372.874 187.339
L373.097 166.458
L373.171 167.253
L373.246 165.02
L373.394 155.226
L373.469 156.422
L373.841 182.363
L374.138 201.073
L374.213 200.928
L374.287 200.348
L374.436 187.616
L374.659 159.408
L374.808 166.251
L374.957 172.437
L375.18 163.362
L375.254 163.493
L376.073 198.281
L376.147 197.058
L376.445 175.686
L376.817 202.159
L376.891 201.73
L377.263 179.646
L377.561 157.403
L377.71 170.025
L378.007 198.004
L378.156 192.095
L378.602 168.082
L378.677 169.423
L378.974 197.244
L379.049 198.523
L379.123 197.251
L379.198 193.394
L379.495 162.954
L379.718 170.128
L379.867 165.09
L379.942 165.228
L380.165 176.612
L380.314 172.644
L380.388 172.81
L380.909 196.553
L381.058 195.606
L381.355 192.33
L381.653 177.835
L381.727 180.358
L382.025 200.88
L382.099 200.223
L382.248 191.846
L382.62 165.76
L382.843 170.647
L382.918 169.886
L382.992 169.105
L383.215 162.781
L383.438 173.66
L383.81 198.64
L383.885 195.129
L384.257 169.949
L384.406 176.646
L384.554 183.545
L384.629 183.496
L384.703 182.245
L384.778 182.694
L384.852 184.554
L385.224 204.661
L385.373 203.479
L385.596 192.544
L385.968 162.788
L386.266 169.783
L386.489 164.827
L386.712 167.564
L387.01 178.575
L387.158 176.328
L387.307 189.102
L387.53 206.7
L387.679 207.343
L387.828 206.776
L387.977 195.143
L388.349 153.782
L388.572 163.859
L388.646 162.055
L388.795 152.676
L388.87 153.719
L389.242 189.676
L389.539 215.506
L389.762 220.842
L390.283 195.952
L390.655 160.092
L390.73 159.38
L391.027 151.466
L391.25 154.307
L391.399 154.894
L391.548 151.756
L391.622 153.305
L391.771 167.191
L392.069 202.774
L392.143 203.14
L392.218 201.094
L392.366 190.194
L392.441 190.332
L392.738 216.259
L392.813 215.388
L392.962 202.871
L393.259 169.748
L393.334 170.322
L393.557 180.33
L393.929 158.102
L394.003 158.385
L394.152 171.193
L394.524 214.697
L394.598 215.775
L394.747 207.011
L395.342 151.846
L395.566 143.351
L395.64 143.725
L395.789 165.76
L396.161 231.417
L396.31 214.697
L396.83 132.133
L396.979 139.619
L397.202 172.389
L397.351 184.837
L397.426 185.494
L397.5 184.098
L397.649 178.139
L397.723 179.612
L397.946 213.771
L398.244 250.681
L398.318 250.563
L398.467 242.186
L398.765 207.405
L399.36 101.865
L399.434 103.946
L399.658 127.136
L399.955 152.102
L400.253 179.28
L400.625 217.814
L400.774 219.224
L401.071 216.529
L401.294 225.169
L401.369 224.761
L401.518 210.591
L401.89 157.03
L401.964 158.682
L402.336 187.878
L402.41 182.922
L402.782 131.705
L402.857 134.11
L403.006 153.263
L403.303 199.484
L403.378 199.518
L403.526 183.316
L403.75 163.127
L403.898 176.515
L404.27 219.432
L404.345 217.199
L404.642 185.293
L404.94 155.219
L405.014 153.719
L405.461 181.146
L405.758 204.149
L405.833 204.82
L406.056 200.749
L406.13 201.025
L406.279 199.242
L406.651 183.199
L407.023 154.798
L407.098 155.413
L407.321 167.799
L407.618 181.934
L407.767 176.999
L407.99 169.734
L408.139 170.806
L408.362 165.456
L409.33 211.718
L409.404 212.865
L409.478 211.476
L409.702 193.173
L409.925 177.58
L409.999 177.027
L410.371 164.502
L410.446 165.456
L410.818 181.526
L410.892 181.367
L411.041 180.787
L411.19 184.153
L411.264 183.835
L411.785 166.258
L411.859 166.963
L412.082 172.942
L412.231 173.584
L412.752 207.149
L412.826 206.133
L413.05 197.417
L413.719 165.186
L413.794 166.327
L414.017 172.72
L414.24 166.147
L414.314 168.062
L414.761 192.35
L414.91 186.448
L415.207 175.229
L415.282 175.146
L415.43 176.584
L415.877 195.143
L415.951 195.972
L416.026 195.578
L416.174 190.533
L416.472 172.651
L416.546 172.658
L416.844 175.997
L417.067 174.117
L417.29 177.345
L417.439 173.418
L417.588 181.347
L417.886 194.528
L417.96 195.544
L418.034 194.735
L418.183 187.471
L418.481 165.352
L418.555 165.774
L418.704 169.596
L419.076 185.003
L419.448 201.412
L419.597 197.61
L420.043 180.254
L420.341 172.817
L420.564 163.569
L420.713 162.028
L420.787 163.327
L421.382 189.952
L421.457 190.346
L421.754 195.979
L421.903 197.749
L421.978 197.403
L422.87 167.488
L423.094 158.06
L423.242 161.447
L423.763 193.27
L423.986 196.677
L424.061 197.5
L424.135 197.369
L425.028 170.923
L425.102 171.158
L425.251 174.282
L425.474 177.559
L425.698 173.73
L425.772 174.524
L426.218 201.695
L426.293 199.981
L426.962 172.036
L427.111 170.785
L427.855 188.749
L427.93 188.024
L428.153 182.791
L428.302 181.616
L428.599 175.492
L428.897 178.043
L429.046 181.872
L429.343 187.789
L429.938 171.075
L430.013 171.124
L430.087 172.064
L430.162 171.822
L430.236 171.988
L430.385 173.778
L430.534 182.701
L430.757 195.537
L430.906 195.482
L431.203 189.337
L431.426 183.918
L431.575 181.685
L431.65 181.955
L431.724 182.777
L432.022 176.287
L432.096 176.059
L432.542 182.936
L432.766 191.341
L432.84 190.028
L433.212 177.289
L433.51 167.405
L433.584 167.695
L433.807 177.379
L434.03 172.513
L434.105 173.356
L434.551 192.475
L434.7 186.185
L434.923 179.522
L435.37 171.165
L435.444 172.43
L435.667 188.659
L435.89 204.709
L435.965 204.094
L436.039 201.225
L436.411 173.785
L436.56 171.829
L436.932 184.879
L437.006 183.572
L437.23 179.155
L437.602 191.314
L437.75 181.858
L438.048 157.866
L438.122 160.217
L438.494 187.913
L438.643 189.696
L438.866 184.07
L438.941 184.747
L439.164 190.18
L439.313 188.342
L439.462 191.175
L439.536 190.733
L439.685 180.248
L439.908 160.846
L440.057 159.767
L440.131 160.355
L440.206 160.258
L440.429 154.811
L440.503 156.505
L440.652 174.317
L441.024 240.479
L441.098 239.663
L441.322 208.884
L441.619 171.697
L441.694 169.9
L441.768 170.135
L441.842 169.769
L442.066 157.555
L442.289 143.102
L442.363 144.692
L442.586 174.255
L442.81 193.878
L442.958 196.242
L443.256 205.449
L443.33 204.668
L443.479 195.254
L444 156.574
L444.074 157.148
L444.298 165.801
L444.446 181.243
L444.67 203.638
L444.744 203.569
L444.893 196.823
L445.19 179.204
L445.414 189.807
L445.488 186.849
L445.637 179.667
L445.711 179.937
L446.009 185.245
L446.232 195.537
L446.678 165.214
L446.753 165.815
L446.976 168.338
L447.125 161.951
L447.199 157.002
L447.274 159.283
L447.646 199.421
L447.72 198.122
L447.869 190.823
L447.943 191.839
L448.092 198.924
L448.166 198.675
L448.315 187.222
L448.613 156.228
L448.687 154.777
L448.836 170.73
L449.059 199.684
L449.134 199.995
L449.357 192.696
L449.506 199.608
L449.654 206.962
L449.803 195.537
L449.878 184.637
L449.878 184.637" style="fill:none;stroke:#808080;stroke-linecap:square;"/>
   </g>
  </g>
 </g>
 <defs>
  <clipPath id="p7ff5b81e1d">
   <rect height="345.6" width="446.4" x="72.0" y="43.2"/>
  </clipPath>
 </defs>
</svg>
