<?xml version="1.0" encoding="utf-8" standalone="no"?>
<!DOCTYPE svg PUBLIC "-//W3C//DTD SVG 1.1//EN"
  "http://www.w3.org/Graphics/SVG/1.1/DTD/svg11.dtd">
<!-- Created with matplotlib (http://matplotlib.org/) -->
<svg height="432pt" version="1.1" viewBox="0 0 576 432" width="576pt" xmlns="http://www.w3.org/2000/svg" xmlns:xlink="http://www.w3.org/1999/xlink">
 <defs>
  <style type="text/css">
*{stroke-linecap:butt;stroke-linejoin:round;}
  </style>
 </defs>
 <g id="figure_1">
  <g id="patch_1">
   <path d="
M0 432
L576 432
L576 0
L0 0
z
" style="fill:#ffffff;"/>
  </g>
  <g id="axes_1">
   <g id="line2d_1">
    <path clip-path="url(#p7ff5b81e1d)" d="
M72 201.538
L72.0744 199.702
L72.1488 199.659
L72.2232 199.162
L72.2976 200.134
L72.372 198.946
L72.6696 187.347
L72.8184 185.662
L73.1904 196.03
L73.6368 238.906
L73.7856 243.01
L73.9344 259.685
L74.0832 280.313
L74.232 274.568
L74.4552 223.829
L74.604 206.009
L74.7528 209.163
L75.1992 182.271
L75.6456 201.387
L75.8688 215.276
L76.0176 217.738
L76.2408 203.568
L76.3152 203.374
L76.464 210.156
L76.6872 229.359
L76.7616 226.313
L76.9104 208.882
L76.9848 209.249
L77.2824 246.164
L77.7288 207.737
L77.8032 209.487
L78.0264 228.754
L78.1752 225.665
L78.2496 226.076
L78.324 227.048
L78.5472 220.373
L78.696 211.085
L78.9192 174.754
L78.9936 178.793
L79.2912 216.096
L79.3656 219.423
L79.44 219.336
L79.6632 199.594
L80.1096 250.764
L80.184 247.697
L80.4816 229.337
L80.556 231.216
L80.6304 229.488
L80.8536 201.279
L81.0024 204.994
L81.1512 195.706
L81.3 183.156
L81.4488 195.512
L81.5232 201.084
L81.5976 198.536
L81.672 195.663
L81.7464 201.257
L81.9696 247.978
L82.4904 211.712
L82.5648 212.273
L82.7136 226.443
L82.788 224.024
L82.9368 211.992
L83.0856 222.598
L83.16 220.352
L83.2344 213.742
L83.3088 215.578
L83.3832 220.589
L83.4576 219.833
L83.6064 210.005
L83.6808 210.308
L83.7552 209.228
L83.904 211.733
L83.9784 204.994
L84.1272 174.624
L84.2016 180.78
L84.4248 222.425
L84.4992 223.138
L84.648 246.358
L84.7224 245.062
L84.9456 213.612
L85.3176 226.94
L85.392 223.527
L85.5408 207.348
L85.6152 209.984
L85.8384 234.953
L86.0616 222.166
L86.2848 201.452
L86.3592 203.828
L86.5824 225.514
L86.6568 220.632
L86.88 160.239
L86.9544 166.222
L87.4008 256.078
L87.4752 248.518
L87.624 208.58
L87.6984 209.098
L87.9216 234.435
L88.0704 231.044
L88.1448 233.312
L88.2192 232.664
L88.368 218.732
L88.5912 242.124
L88.74 199.918
L88.9632 143.369
L89.112 170.045
L89.4096 254.328
L89.484 250.786
L89.6328 213.332
L89.7072 213.828
L89.9304 243.442
L90.0792 239.187
L90.1536 242.924
L90.228 242.405
L90.4512 201.02
L90.5256 204.735
L90.7488 240.461
L91.0464 223.138
L91.1952 213.98
L91.2696 214.39
L91.344 212.748
L91.4928 186.807
L91.716 152.7
L91.9392 199.616
L92.1624 227.328
L92.2368 224.736
L92.46 200.436
L93.0552 250.592
L93.2784 235.688
L93.3528 237.437
L93.6504 227.415
L93.7992 213.72
L93.948 197.866
L94.1712 204.108
L94.32 193.568
L94.3944 195.101
L94.692 215.276
L94.8408 218.667
L94.9152 218.645
L95.064 206.744
L95.2872 189.053
L95.436 197.456
L95.8824 225.665
L96.0312 222.015
L96.4776 250.203
L96.7752 214.412
L96.8496 215.88
L97.0728 224.11
L97.1472 223.332
L97.3704 217.284
L97.5192 206.549
L97.9656 227.998
L98.412 202.964
L98.7096 187.8
L98.784 189.096
L98.9328 202.942
L99.0816 212.684
L99.4536 186.461
L99.528 189.118
L99.8256 240.353
L99.9 238.236
L100.123 219.704
L100.272 236.228
L100.495 259.75
L100.57 259.815
L100.718 267.072
L100.793 261.694
L101.016 226.745
L101.165 229.337
L101.314 201.905
L101.537 170.866
L101.611 174.171
L101.686 173.177
L101.834 170.261
L101.983 183.372
L102.206 205.534
L102.281 204.8
L102.355 206.679
L102.578 226.4
L102.727 224.196
L102.802 225.125
L103.397 262.86
L103.471 259.124
L103.843 187.368
L103.918 188.211
L104.215 236.487
L104.29 233.938
L104.587 192.639
L104.662 193.524
L104.736 190.673
L104.885 177.173
L105.406 229.38
L105.48 227.069
L105.703 211.539
L105.852 217.263
L106.075 233.463
L106.298 237.588
L106.373 237.632
L106.447 235.472
L106.745 197.78
L106.819 204.324
L107.117 218.213
L107.191 216.939
L107.563 193.589
L107.638 195.771
L107.935 242.038
L108.01 236.681
L108.233 221.302
L108.382 224.391
L108.605 241.023
L109.051 202.532
L109.126 202.769
L109.274 196.635
L109.646 178.167
L109.721 179.787
L110.018 222.814
L110.316 212.684
L110.39 215.276
L110.539 232.404
L110.762 270.42
L110.837 266.619
L111.283 195.274
L111.358 196.116
L111.804 215.189
L111.953 216.917
L112.027 218.775
L112.176 227.048
L112.399 215.859
L112.548 214.865
L112.697 212.662
L112.846 204.864
L113.218 180.068
L113.292 183.74
L113.59 258.13
L113.664 256.186
L113.738 254.264
L113.887 221.172
L114.036 180.111
L114.11 184.906
L114.482 239.878
L114.631 227.112
L114.854 216.032
L114.929 212.813
L115.152 197.931
L115.226 197.78
L115.375 194.756
L115.45 195.015
L115.598 203.655
L115.97 231.692
L116.342 248.129
L116.417 245.516
L116.714 203.309
L116.938 212.381
L117.012 211.906
L117.161 223.548
L117.235 218.062
L117.458 187.088
L117.533 191.408
L117.756 220.136
L117.83 219.38
L117.905 215.448
L117.979 216.636
L118.128 229.51
L118.574 190.673
L118.649 191.17
L119.318 255.279
L119.393 250.656
L119.467 250.764
L119.542 251.045
L119.616 246.185
L120.062 166.114
L120.434 185.576
L120.955 259.037
L121.402 225.017
L121.55 215.924
L121.699 223.937
L121.774 219.876
L121.997 194
L122.294 223.095
L122.369 219.531
L122.518 196.268
L122.666 209.876
L122.741 208.796
L122.815 207.176
L122.89 210.178
L123.113 240.526
L123.187 235.536
L123.262 225.903
L123.336 228.236
L123.485 245.926
L123.634 238.906
L123.782 223.786
L124.006 199.81
L124.154 206.506
L124.452 223.44
L124.601 207.089
L124.675 208.04
L124.824 228.063
L124.898 227.048
L125.122 206.808
L125.419 145.659
L125.642 173.588
L126.089 252.816
L126.163 254.631
L126.461 238.193
L126.61 234.629
L126.833 253.248
L127.205 229.899
L127.354 221.345
L127.651 200.868
L127.726 203.482
L127.874 208.796
L128.246 198.212
L128.321 198.298
L128.47 201.128
L128.544 200.76
L128.618 196.505
L128.767 212.727
L129.065 238.474
L129.586 189.118
L129.66 183.005
L129.734 184.604
L130.032 213.072
L130.255 254.436
L130.33 255.452
L130.404 253.421
L130.627 235.212
L130.925 199.464
L131.297 217.025
L131.371 218.494
L131.446 217.414
L131.594 209.228
L131.818 222.468
L132.041 213.958
L132.115 210.999
L132.338 224.153
L132.785 188.816
L132.859 189.053
L133.306 246.423
L133.529 240.504
L133.975 204.108
L134.124 195.339
L134.198 201.236
L134.422 247.114
L134.57 234.392
L134.794 217.479
L134.868 217.328
L135.017 212.36
L135.314 179.873
L135.389 180.046
L135.761 199.594
L135.984 174.624
L136.058 180.953
L136.43 279.665
L136.505 276.447
L136.802 213.764
L136.877 217.241
L137.174 265.949
L137.249 259.016
L137.472 215.708
L137.621 216.528
L137.918 187.239
L138.067 170.823
L138.142 174.668
L138.514 234.975
L138.588 230.828
L138.886 178.016
L139.332 255.689
L139.481 225.924
L139.63 198.795
L139.853 222.404
L140.076 236.854
L140.597 187.347
L140.894 175.834
L141.043 197.304
L141.341 271.846
L141.49 243.01
L141.638 213.807
L141.787 226.248
L142.01 243.442
L142.085 244.716
L142.159 242.967
L142.457 201.106
L142.68 218.71
L142.829 196.678
L143.052 170.996
L143.126 170.801
L143.275 203.676
L143.424 237.934
L143.722 216.831
L143.796 218.084
L143.87 216.334
L144.019 209.444
L144.168 219.574
L144.242 218.904
L144.391 213.245
L144.614 261.284
L144.689 259.167
L144.912 220.524
L145.135 182.206
L145.284 207.543
L145.433 234.694
L145.507 230.806
L145.805 191.904
L145.954 202.337
L146.177 219.833
L146.474 205.901
L146.772 241.736
L146.846 237.545
L147.144 190.09
L147.218 199.832
L147.516 252.86
L147.888 183.156
L147.962 191.861
L148.186 229.812
L148.26 228.322
L148.558 190.328
L148.93 224.218
L149.004 222.101
L149.227 194.475
L149.302 198.233
L149.599 251.412
L149.674 248.432
L149.897 215.772
L149.971 220.373
L150.194 252.989
L150.418 220.848
L150.641 188.362
L150.715 188.556
L150.864 194.648
L150.938 193.762
L151.013 195.015
L151.087 191.451
L151.236 174.97
L151.459 211.69
L151.608 234.543
L151.682 232.772
L151.906 196.052
L151.98 201.452
L152.278 250.959
L152.65 222.339
L152.724 222.382
L152.873 231.951
L152.947 231.346
L153.096 216.852
L153.245 196.224
L153.319 197.326
L153.542 239.446
L153.617 237.437
L153.766 217.544
L154.063 177.648
L154.212 193.416
L154.435 229.964
L154.658 196.829
L154.733 200.393
L154.956 230.482
L155.105 226.076
L155.179 228.884
L155.328 237.113
L155.551 201.149
L155.626 205.253
L155.7 204.908
L155.849 193.287
L155.923 196.138
L156.072 218.451
L156.295 250.894
L156.37 245.602
L156.667 198.449
L156.742 199.27
L156.816 197.78
L156.89 202.251
L157.114 234.629
L157.188 236.228
L157.337 226.011
L157.411 220.114
L157.56 239.23
L157.634 248.604
L157.709 247.546
L157.858 226.313
L158.155 169.7
L158.23 169.851
L158.527 195.879
L158.825 223.073
L158.974 245.991
L159.048 243.507
L159.346 200.307
L159.42 202.186
L159.866 240.008
L159.941 237.545
L160.313 207.543
L160.462 205.901
L160.536 207.305
L160.685 204.821
L160.834 221.28
L160.982 240.051
L161.206 220.352
L161.28 222.598
L161.429 231.26
L161.652 217.414
L161.726 216.939
L161.95 194.885
L162.024 196.7
L162.098 202.467
L162.396 256.791
L162.47 254.588
L162.842 196.073
L162.917 198.989
L162.991 201.43
L163.14 198.19
L163.438 207.629
L163.512 206.268
L164.033 177.951
L164.182 189.291
L164.405 222.36
L164.554 241.412
L164.628 242.34
L164.777 236.249
L165 220.481
L165.298 255.992
L165.372 252.406
L165.67 213.828
L165.818 225.341
L165.967 219.099
L166.19 233.679
L166.339 223.03
L166.562 196.332
L166.637 197.369
L166.711 198.341
L166.934 179.312
L167.009 181.839
L167.455 239.079
L167.753 211.064
L167.902 204.843
L168.274 219.034
L168.348 218.991
L168.497 214.131
L168.646 217.371
L168.794 208.817
L168.943 220.352
L169.092 234.78
L169.166 233.549
L169.39 208.666
L169.464 210.848
L169.613 213.591
L169.687 213.072
L169.836 228.538
L169.91 236.141
L169.985 233.29
L170.208 211.517
L170.282 211.452
L170.431 214.239
L170.506 211.301
L170.58 214.217
L170.729 224.283
L170.952 214.455
L171.101 226.594
L171.175 224.672
L171.324 203.482
L171.547 156.848
L171.622 162.701
L171.919 243.852
L171.994 241.714
L172.217 220.373
L172.589 247.352
L172.738 231.821
L172.961 184.301
L173.333 215.945
L173.407 212.943
L173.556 201.344
L173.705 214.476
L174.002 252.082
L174.3 214.52
L174.374 216.377
L174.598 228.776
L174.97 192.898
L175.044 196.764
L175.267 208.558
L175.416 210.826
L175.639 192.617
L175.788 212.511
L176.011 235.515
L176.16 232.318
L176.234 227.631
L176.383 207.154
L176.606 213.051
L176.904 187.973
L176.978 189.68
L177.202 228.344
L177.425 263.292
L177.499 257.525
L177.722 227.393
L177.871 240.116
L178.02 232.901
L178.169 236.422
L178.243 233.139
L178.541 166.352
L178.615 171.082
L178.69 175.359
L178.913 164.602
L178.987 164.796
L179.062 166.049
L179.21 185.338
L179.508 238.625
L179.657 233.009
L179.731 228.02
L179.806 228.538
L180.178 275.626
L180.252 270.161
L180.624 210.221
L180.847 234.348
L180.922 232.361
L181.145 197.801
L181.219 198.471
L181.442 217.803
L181.517 215.859
L181.889 178.188
L181.963 180.91
L182.186 211.863
L182.261 204.584
L182.41 190.004
L182.484 190.306
L182.633 197.996
L182.93 230.676
L183.079 230.18
L183.228 221.475
L183.302 221.95
L183.451 223.548
L183.6 231.238
L183.674 230.633
L184.046 216.809
L184.121 220.287
L184.344 250.592
L184.493 235.126
L184.567 236.832
L184.716 239.36
L184.939 226.508
L185.386 173.998
L185.46 176.072
L185.758 205.167
L185.832 204.497
L185.906 205.858
L186.055 224.477
L186.13 220.589
L186.353 192.812
L186.502 194.345
L186.65 191.948
L186.725 193.46
L187.32 252.147
L187.543 226.184
L187.841 249.036
L188.213 215.362
L188.287 213.98
L188.436 221.367
L188.585 233.787
L188.659 229.834
L189.031 181.191
L189.18 167.194
L189.329 184.323
L189.552 221.151
L189.626 221.885
L189.775 228.646
L189.924 226.011
L189.998 227.112
L190.147 234.068
L190.668 218.516
L190.891 238.496
L190.966 238.15
L191.189 220.373
L191.412 189.96
L191.635 187.908
L191.71 182.595
L191.784 182.768
L191.858 186.202
L192.156 216.658
L192.23 217.587
L192.379 232.642
L192.528 246.596
L193.049 217.824
L193.198 207.37
L193.421 204.238
L193.495 203.223
L193.57 204.346
L193.867 221.885
L194.09 230.698
L194.388 212.792
L194.537 226.853
L194.611 226.551
L195.206 185.921
L195.653 222.771
L195.802 231.368
L195.876 231.13
L195.95 229.164
L196.025 224.175
L196.099 225.428
L196.322 244.414
L196.471 233.096
L197.066 169.527
L197.141 175.402
L197.438 216.939
L197.81 255.128
L197.885 250.484
L198.182 218.58
L198.331 223.743
L198.554 204.562
L198.629 206.657
L198.703 210.092
L198.778 208.666
L198.926 200.242
L199.001 200.804
L199.15 213.699
L199.224 212.554
L199.447 200.566
L199.968 240.224
L200.266 210.264
L200.34 212.036
L200.638 233.7
L200.786 218.537
L200.935 210.653
L201.084 216.507
L201.233 210.372
L201.382 214.498
L201.456 212.727
L201.605 209.616
L201.679 206.528
L201.977 181.256
L202.349 198.536
L202.646 230.072
L202.795 240.526
L202.87 240.116
L203.018 238.798
L203.093 240.159
L203.242 251.088
L203.316 250.916
L203.465 254.825
L203.539 253.486
L203.614 248.367
L203.911 211.236
L204.134 192.358
L204.209 197.585
L204.432 215.146
L204.581 206.009
L204.804 181.256
L204.878 182.314
L205.176 207.5
L205.399 187.865
L205.474 193.827
L205.697 224.996
L205.846 221.216
L205.994 206.528
L206.069 206.765
L206.366 220.697
L206.664 240.094
L206.738 240.051
L207.036 229.92
L207.185 238.193
L207.334 247.87
L207.408 242.124
L207.631 204.929
L207.706 205.426
L207.929 223.311
L208.375 195.101
L208.673 216.55
L208.747 214.563
L209.045 204.108
L209.268 183.696
L209.491 190.068
L209.938 236.033
L210.012 236.638
L210.384 229.791
L210.533 225.082
L210.682 228.732
L210.83 221.561
L210.905 222.512
L210.979 223.484
L211.128 222.296
L211.277 211.496
L211.426 196.548
L211.5 197.067
L211.574 197.304
L211.649 197.218
L211.798 211.452
L212.021 239.597
L212.095 237.826
L212.244 224.412
L212.467 206.981
L212.542 207.716
L212.616 211.28
L212.69 210.545
L212.765 209.854
L212.839 212.36
L212.988 207.5
L213.062 205.102
L213.286 223.743
L213.36 222.814
L213.658 197.542
L213.732 198.989
L213.806 200.739
L214.03 221.712
L214.178 234.953
L214.402 226.4
L214.55 232.124
L214.625 237.394
L214.699 236.487
L214.848 211.193
L214.997 192.207
L215.369 227.264
L215.443 219.725
L215.666 192.596
L215.89 235.688
L215.964 231.454
L216.038 231.368
L216.113 235.126
L216.187 230.633
L216.336 208.731
L216.41 210.459
L216.485 206.938
L216.708 187.822
L217.154 225.968
L217.229 223.246
L217.452 198.104
L217.526 199.292
L217.973 252.644
L218.345 216.096
L218.419 216.615
L218.568 223.548
L218.642 228.452
L218.717 227.307
L218.94 205.016
L219.089 189.744
L219.386 210.308
L219.461 210.502
L219.61 211.344
L219.758 203.309
L219.833 205.059
L220.13 228.149
L220.205 224.672
L220.502 196.16
L220.577 196.592
L221.395 248.928
L221.47 247.416
L221.693 227.48
L221.916 206.117
L222.214 196.052
L222.437 217.587
L222.511 213.461
L222.734 195.879
L223.032 231.843
L223.181 243.766
L223.33 228.387
L223.404 230.288
L223.478 227.912
L223.627 216.053
L223.776 232.426
L223.85 230.698
L224.371 182.573
L224.594 191.019
L224.669 188.967
L224.743 189.204
L224.892 204.972
L225.115 225.536
L225.19 226.81
L225.264 225.665
L225.413 214.239
L225.487 208.126
L225.562 208.536
L225.71 220.395
L226.008 245.926
L226.157 253.788
L226.529 230.115
L226.975 188.859
L227.198 194.086
L227.422 211.906
L227.645 190.414
L227.868 213.202
L228.091 238.949
L228.166 238.69
L228.463 190.997
L228.538 196.052
L228.835 230.007
L229.058 248.864
L229.133 247.546
L229.505 224.952
L229.654 198.492
L229.728 201.862
L229.877 212.705
L230.026 208.99
L230.1 209.66
L230.174 209.336
L230.323 198.039
L230.398 200.285
L230.621 229.143
L230.844 222.339
L231.142 196.548
L231.216 197.24
L231.365 204.994
L231.588 228.257
L231.662 222.555
L231.811 205.469
L231.96 210.329
L232.034 208.86
L232.109 212.1
L232.332 229.51
L232.555 244.781
L232.704 230.46
L232.927 206.312
L233.299 218.408
L233.448 212.662
L233.671 222.814
L233.82 216.161
L233.969 225.298
L234.118 215.6
L234.192 219.12
L234.266 224.088
L234.341 222.36
L234.564 208.04
L234.862 169.894
L234.936 170.672
L235.308 226.097
L235.382 225.622
L235.531 212.338
L235.606 215.405
L235.978 264.977
L236.052 260.657
L236.275 240.332
L236.35 244.284
L236.424 239.943
L236.647 205.534
L236.722 207.176
L236.945 188.924
L237.168 214.606
L237.391 205.577
L237.466 206.895
L237.689 198.276
L237.763 201.516
L237.986 209.573
L238.21 196.397
L238.284 197.261
L238.507 205.059
L238.805 228.041
L238.954 225.19
L239.102 234.305
L239.326 260.074
L239.4 260.376
L239.549 254.976
L240.367 161.729
L240.442 164.883
L240.665 188.319
L240.739 187.584
L240.888 207.867
L241.334 267.656
L241.409 263.206
L241.483 261.521
L241.855 274.827
L242.078 246.056
L242.45 183.221
L242.525 186.029
L242.599 186.915
L242.822 177.238
L243.046 163.565
L243.418 193.373
L243.492 191.667
L243.566 192.423
L243.715 202.164
L243.864 215.47
L243.938 214.023
L244.013 209.033
L244.087 211.776
L244.459 251.412
L244.534 250.311
L244.757 231.432
L244.98 243.204
L245.203 237.848
L245.278 237.416
L245.426 243.42
L245.501 242.859
L245.947 199.853
L246.096 190.479
L246.17 188.319
L246.245 190.695
L246.542 211.992
L246.766 192.509
L246.84 195.274
L247.138 210.113
L247.212 206.29
L247.361 186.548
L247.435 190.608
L247.733 233.139
L247.956 248.907
L248.03 242.405
L248.179 230.331
L248.328 230.633
L248.402 230.633
L248.626 245.926
L248.774 233.312
L248.923 242.556
L249.444 134.124
L249.518 137.58
L249.89 168.987
L250.114 184.841
L250.56 300.099
L250.634 304.916
L250.783 291.912
L250.858 292.236
L250.932 291.351
L251.453 231.26
L251.75 190.349
L252.197 144.557
L252.271 145.335
L252.718 207.521
L252.792 206.009
L252.941 177.411
L253.015 184.733
L253.313 233.333
L253.462 248.496
L253.61 229.661
L253.908 191.667
L253.982 194.108
L254.057 197.78
L254.28 183.653
L254.429 197.477
L254.875 280.227
L254.95 279.536
L255.098 284.633
L255.173 280.918
L255.322 267.742
L255.396 265.992
L255.768 227.393
L256.289 200.328
L256.81 141.252
L256.884 144.492
L257.033 173.501
L257.182 194.95
L257.702 210.848
L257.926 238.69
L258 234.24
L258.372 195.965
L258.818 239.122
L258.893 238.539
L259.042 240.504
L259.19 237.308
L259.339 251.564
L259.86 202.942
L260.009 207.413
L260.232 193.373
L260.306 195.08
L260.455 214.455
L260.753 272.084
L260.976 245.3
L261.05 245.883
L261.274 253.054
L261.869 166.676
L261.943 166.892
L262.092 183.869
L262.39 147.106
L262.464 150.8
L262.91 225.039
L263.134 233.225
L263.208 233.981
L263.282 233.484
L263.357 232.059
L263.729 209.465
L263.803 210.675
L264.101 242.232
L264.175 235.666
L264.398 211.582
L264.547 220.395
L264.845 264.977
L265.068 234.068
L265.217 243.896
L265.44 259.059
L265.514 255.603
L265.663 230.482
L265.961 172.011
L266.11 164.991
L266.333 125.96
L266.482 110.537
L266.556 115.44
L266.779 192.617
L266.928 223.635
L267.002 224.628
L267.226 243.68
L267.523 295.044
L267.895 241.498
L267.97 244.047
L268.267 271.522
L268.49 258.13
L268.565 259.253
L268.639 261.608
L268.714 260.657
L268.862 247.114
L269.309 149.698
L269.383 154.709
L269.532 160.887
L269.681 140.561
L269.904 102.869
L270.127 155.53
L270.35 193.33
L270.425 193.546
L270.499 196.44
L270.648 229.035
L270.871 293.424
L270.946 290.379
L271.243 226.853
L271.318 231.627
L271.541 274.827
L271.615 274.308
L271.838 250.311
L271.987 237.956
L272.21 260.441
L272.285 259.793
L272.434 241.196
L272.582 225.752
L272.806 242.837
L272.88 242.168
L273.252 157.539
L273.326 157.582
L273.55 182.357
L273.624 179.679
L273.773 155.076
L273.922 124.145
L274.07 155.616
L274.294 199.594
L274.368 195.598
L274.591 168.944
L274.74 206.268
L275.112 292.992
L275.335 271.911
L275.558 299.926
L275.782 271.09
L276.079 212.64
L276.228 219.12
L276.302 215.88
L276.451 185.316
L276.674 146.134
L277.121 193.632
L277.27 192.466
L277.418 220.222
L277.642 261.154
L277.716 263.789
L277.79 259.34
L278.088 197.326
L278.162 196.505
L278.311 210.394
L278.386 209.249
L278.683 168.944
L278.758 169.181
L279.13 220.287
L279.204 219.228
L279.576 241.887
L279.725 255.646
L280.097 189.701
L280.394 273.682
L280.469 269.859
L280.841 207.521
L281.138 226.508
L281.287 212.964
L281.51 176.741
L281.659 203.568
L281.808 225.968
L282.254 197.175
L282.478 206.549
L282.626 191.105
L282.701 193.265
L283.147 235.212
L283.37 204.627
L283.445 208.99
L283.817 254.588
L284.189 182.616
L284.263 188.6
L284.561 231.692
L284.635 229.229
L284.784 213.461
L285.082 258.216
L285.156 255.495
L285.454 206.916
L285.677 228.279
L285.751 235.752
L285.826 231.735
L286.123 190.392
L286.198 191.192
L286.272 196.052
L286.495 177.692
L286.57 178.037
L286.644 177.648
L286.718 176.072
L286.793 179.506
L287.239 245.062
L287.314 246.293
L287.537 220.848
L287.611 228.43
L287.834 245.991
L287.909 242.276
L288.281 202.985
L288.355 201.43
L288.43 201.948
L288.578 211.906
L288.802 189.334
L288.876 195.944
L289.174 263.314
L289.248 267.958
L289.843 177.432
L290.141 207.176
L290.215 205.88
L290.364 203.46
L290.662 235.904
L290.736 234.737
L291.034 207.305
L291.406 257.892
L291.852 201.56
L292.075 212.9
L292.15 212.424
L292.447 192.38
L292.522 192.984
L292.67 209.876
L292.745 220.395
L292.819 218.148
L292.968 200.35
L293.042 201.02
L293.414 234.521
L293.638 200.609
L293.712 201.689
L294.084 230.72
L294.158 235.342
L294.233 232.858
L294.382 209.4
L294.53 224.304
L294.679 205.145
L294.754 207.176
L294.828 213.31
L295.051 197.996
L295.498 248.41
L295.572 242.276
L295.721 217.068
L295.795 217.198
L296.018 229.726
L296.167 234.262
L296.242 231.238
L296.39 208.774
L296.465 213.828
L296.539 221.95
L296.614 219.876
L296.837 184.496
L296.986 186.72
L297.134 182.228
L297.283 193.762
L297.506 216.96
L297.655 230.072
L297.804 218.408
L297.953 234.024
L298.25 263.422
L298.325 263.076
L298.474 240.569
L298.846 186.267
L298.92 184.733
L299.143 208.623
L299.515 183.696
L299.59 177.108
L299.664 180.024
L299.887 190.133
L300.036 196.916
L300.185 186.245
L300.334 231.692
L300.557 287.852
L300.631 286.836
L300.854 239.597
L301.078 251.888
L301.226 229.337
L301.45 193.892
L301.598 189.269
L301.896 210.848
L301.97 207.78
L302.194 179.463
L302.268 189.744
L302.491 253.421
L302.566 249.317
L302.714 216.464
L302.938 178.426
L303.235 226.205
L303.31 225.773
L303.458 197.607
L303.533 182.379
L303.607 185.338
L303.905 258.303
L303.979 251.952
L304.202 213.677
L304.5 236.897
L304.723 225.471
L304.872 196.894
L305.021 181.904
L305.318 240.332
L305.393 233.787
L305.69 159.094
L305.839 183.718
L306.062 238.042
L306.137 238.452
L306.36 190.695
L306.434 202.834
L306.732 284.028
L306.881 242.88
L307.03 196.764
L307.104 198.341
L307.476 235.752
L307.699 199.162
L307.774 199.184
L307.997 221.712
L308.146 237.351
L308.443 186.958
L308.518 194.604
L308.741 239.511
L308.815 239.144
L309.038 196.332
L309.187 174.689
L309.634 227.458
L309.857 202.056
L310.08 240.936
L310.154 238.064
L310.526 167.518
L310.898 262.364
L310.973 252.665
L311.196 227.35
L311.419 254.415
L311.494 248.777
L311.866 181.493
L312.238 219.898
L312.312 219.444
L312.535 192.38
L312.684 193.481
L312.758 198.903
L312.982 236.314
L313.279 203.806
L313.354 205.404
L313.502 201.279
L313.651 219.531
L313.874 245.148
L313.949 243.464
L314.172 217.976
L314.246 219.444
L314.321 224.693
L314.395 224.52
L314.47 223.98
L314.618 227.696
L314.767 220.157
L314.99 240.504
L315.139 242.254
L315.288 251.283
L315.437 238.928
L315.809 159.656
L315.958 139.654
L316.106 149.892
L316.181 149.46
L316.627 195.728
L316.999 273.617
L317.148 279.168
L317.52 252.082
L317.594 252.838
L317.669 255.149
L317.818 247.049
L318.115 210.653
L318.19 211.712
L318.264 215.664
L318.338 214.196
L318.71 149.136
L318.785 152.636
L319.082 183.502
L319.231 199.335
L319.306 198.622
L319.454 190.047
L319.529 196.052
L319.901 263.552
L319.975 266.079
L320.05 264.891
L320.198 243.788
L320.273 249.922
L320.347 266.835
L320.422 266.144
L320.942 226.14
L321.166 210.761
L321.389 180.5
L321.612 189.161
L321.835 186.31
L321.984 178.728
L322.356 196.808
L322.877 236.336
L322.951 236.076
L323.026 235.212
L323.174 229.272
L323.398 243.334
L323.546 240.699
L323.844 219.207
L323.993 237.696
L324.067 233.225
L324.29 219.617
L324.588 196.354
L324.662 195.836
L324.886 187.304
L325.034 174.452
L325.109 175.337
L325.332 207.737
L325.555 180.219
L326.076 258.54
L326.15 258.044
L326.448 231.627
L326.522 232.88
L326.746 275.626
L326.82 270.032
L327.118 226.508
L327.192 226.594
L327.341 244.803
L327.415 240.785
L327.638 196.635
L327.787 162.917
L327.936 176.547
L328.085 187.239
L328.234 187.865
L328.457 151.253
L328.531 157.452
L328.829 211.15
L328.978 199.032
L329.052 202.899
L329.498 273.747
L329.573 269.643
L329.87 225.449
L329.945 229.143
L330.168 250.721
L330.317 221.907
L330.54 187.541
L330.912 213.353
L330.986 213.029
L331.21 188.448
L331.507 247.935
L331.582 243.852
L332.102 175.899
L332.177 178.34
L332.4 210.394
L332.474 210.761
L332.772 274.87
L332.846 270.636
L333.218 231.627
L333.442 256.337
L333.739 221.626
L333.962 191.969
L334.037 195.792
L334.186 203.763
L334.409 169.268
L334.558 145.14
L334.632 146.782
L334.855 172.81
L335.004 190.176
L335.078 198.73
L335.153 198.708
L335.227 194.756
L335.302 199.162
L335.599 267.072
L335.674 262.925
L335.897 230.05
L336.12 273.833
L336.194 287.765
L336.269 287.679
L336.566 232.901
L336.715 238.906
L336.864 234.694
L336.938 238.172
L337.013 235.947
L337.236 206.463
L337.31 206.765
L337.459 190.479
L337.831 131.403
L338.203 187.368
L338.278 191.386
L338.352 189.68
L338.501 174.732
L338.575 181.018
L338.873 234.176
L338.947 231.713
L339.096 220.524
L339.319 276.9
L339.468 305.088
L339.542 299.472
L339.84 228.862
L339.914 229.186
L340.063 241.671
L340.138 239.878
L340.361 208.32
L340.51 186.159
L340.584 191.602
L340.807 234.91
L340.956 217.068
L341.179 190.781
L341.254 194.216
L341.402 211.388
L341.626 197.434
L341.849 159.094
L341.923 167.345
L342.221 214.93
L342.295 216.723
L342.518 208.234
L342.593 211.712
L342.965 260.96
L343.039 255.711
L343.262 199.832
L343.337 200.112
L343.634 241.347
L343.709 234.456
L343.932 182.249
L344.155 207.197
L344.23 203.504
L344.304 203.655
L344.453 211.344
L344.676 198.276
L344.974 235.558
L345.197 223.98
L345.569 248.95
L345.866 216.701
L346.015 203.914
L346.09 208.018
L346.238 224.78
L346.387 216.226
L346.61 189.442
L346.685 194.907
L346.834 220.676
L346.908 218.408
L347.131 202.078
L347.28 198.039
L347.429 206.96
L347.503 206.657
L347.801 183.092
L347.95 196.203
L348.173 223.656
L348.396 204.108
L348.545 217.306
L348.917 286.361
L349.363 252.881
L349.586 226.205
L349.661 224.542
L349.735 219.444
L350.182 135.053
L350.256 134.124
L350.405 183.826
L350.628 263.357
L350.702 270.809
L350.777 266.554
L350.926 236.681
L351.446 85.4379
L351.521 89.4771
L352.414 352.824
L352.488 351.744
L352.711 324.399
L353.158 232.188
L353.306 215.232
L353.678 148.834
L353.902 164.192
L354.05 159.116
L354.125 163.328
L354.199 162.507
L354.348 143.758
L354.422 147.3
L354.943 232.491
L355.018 232.556
L355.092 235.472
L355.315 259.318
L355.464 250.57
L355.613 254.134
L355.762 247.244
L355.836 248.388
L355.91 248
L356.059 235.601
L356.282 209.012
L356.654 235.234
L356.952 195.857
L357.026 197.585
L357.175 212.532
L357.25 211.992
L357.398 209.919
L357.547 195.706
L357.622 187.822
L357.696 190.824
L357.919 202.942
L357.994 201.322
L358.217 160.692
L358.44 193.956
L358.812 247.33
L358.886 243.809
L358.961 245.127
L359.184 276.252
L359.258 273.639
L360.002 196.246
L360.077 199.119
L360.3 217.63
L360.523 238.388
L360.598 232.21
L360.97 180.348
L361.118 183.934
L361.416 204.368
L361.49 199.918
L361.639 175.445
L361.714 178.685
L361.937 202.402
L362.011 206.981
L362.458 287.441
L362.532 280.248
L363.276 173.415
L363.425 199.27
L363.648 228.538
L363.722 231.972
L363.797 228.344
L364.02 202.424
L364.169 208.342
L364.318 195.792
L364.392 198.428
L364.541 187.757
L364.615 180.305
L364.69 185.187
L364.987 245.796
L365.359 214.865
L365.508 236.314
L365.657 251.628
L365.731 249.468
L365.88 237.351
L365.954 238.56
L366.103 246.79
L366.252 235.601
L366.55 186.288
L366.698 170.175
L366.773 171.19
L367.07 194.734
L367.219 189.788
L367.368 181.968
L367.442 183.848
L367.666 214.325
L367.74 213.764
L367.814 210.005
L367.889 210.61
L368.261 256.618
L368.335 256.51
L368.484 233.7
L368.707 213.288
L368.856 214.692
L369.005 209.768
L369.079 210.761
L369.228 217.5
L369.674 265.301
L369.749 259.793
L370.121 197.412
L370.195 196.808
L370.344 217.371
L370.567 173.631
L370.642 175.596
L370.865 187.412
L371.088 216.485
L371.46 180.737
L371.534 183.588
L371.832 233.312
L371.906 231.605
L372.13 214.196
L372.278 223.138
L372.502 247.373
L372.65 235.752
L372.874 251.909
L372.948 250.505
L373.097 260.42
L373.543 217.306
L373.692 225.212
L373.766 220.654
L374.064 159.461
L374.287 168.252
L375.031 241.152
L375.18 263.573
L375.329 244.457
L375.552 216.161
L375.924 237.416
L375.998 237.156
L376.073 235.947
L376.296 215.729
L376.445 240.526
L376.519 238.301
L377.04 158.921
L377.114 170.542
L377.263 203.352
L377.412 192.876
L377.561 202.575
L377.635 202.553
L377.71 200.22
L377.784 204.324
L378.007 224.693
L378.082 225.989
L378.305 269.211
L378.379 266.468
L378.528 254.76
L378.602 256.208
L378.751 240.267
L378.9 222.209
L378.974 223.095
L379.198 200.436
L379.346 223.851
L379.718 201.279
L379.942 178.772
L380.016 179.7
L380.09 180.392
L380.239 173.89
L380.462 205.016
L380.537 204.324
L380.611 207.802
L380.834 224.24
L380.909 227.393
L380.983 236.379
L381.058 235.472
L381.132 225.06
L381.206 229.316
L381.355 248.453
L381.727 239.878
L381.876 252.384
L382.099 213.526
L382.248 222.706
L382.471 209.897
L382.769 160.109
L382.918 173.069
L383.215 233.744
L383.29 228.97
L383.513 193.308
L383.885 235.688
L383.959 230.633
L384.182 211.733
L384.48 225.989
L384.629 250.548
L384.926 233.528
L385.001 237.264
L385.224 256.726
L385.373 237.61
L385.745 142.916
L385.819 149.072
L386.34 224.866
L386.489 237.675
L386.563 237.632
L386.712 229.661
L386.935 206.247
L387.01 210.416
L387.233 220.244
L387.382 238.15
L387.456 234.586
L387.679 193.87
L387.754 194
L387.828 195.749
L388.051 229.143
L388.2 213.008
L388.349 201.538
L388.572 210.61
L388.795 249.166
L388.87 248.129
L389.018 237.632
L389.167 224.888
L389.39 236.422
L389.762 211.128
L389.986 188.016
L390.283 215.189
L390.358 211.344
L390.581 170.477
L390.655 172.464
L390.878 213.029
L391.027 231.908
L391.102 226.875
L391.325 188.621
L391.399 192.639
L391.846 240.591
L391.92 239.727
L391.994 237.005
L392.069 238.863
L392.292 270.464
L392.813 202.402
L392.887 204.065
L393.11 218.17
L393.259 202.834
L393.408 171.125
L393.482 178.383
L393.631 189.507
L393.78 183.524
L393.929 176.46
L394.078 195.317
L394.152 192.876
L394.226 194.799
L394.524 251.024
L394.673 241.952
L394.747 242.513
L394.97 267.116
L395.045 262.86
L395.417 210.005
L395.491 212.403
L395.566 214.584
L395.64 214.282
L395.789 207.996
L396.31 165.272
L396.384 164.256
L396.458 167.95
L396.83 226.011
L397.054 278.261
L397.128 273.812
L397.351 235.99
L397.426 237.351
L397.574 245.408
L397.649 242.103
L398.021 187.8
L398.095 188.232
L398.244 200.89
L398.467 239.77
L398.542 233.074
L398.765 194.712
L399.137 232.88
L399.211 231.216
L399.434 176.244
L399.509 179.808
L399.658 199.68
L399.881 235.04
L400.03 192.855
L400.104 175.51
L400.178 176.784
L400.55 258.584
L400.625 257.828
L400.848 223.376
L400.922 226.032
L401.071 239.748
L401.369 223.764
L401.592 192.855
L401.741 208.428
L401.89 230.698
L402.187 179.657
L402.262 183.999
L402.559 224.499
L402.634 224.693
L402.857 191.213
L402.931 196.743
L403.303 255.538
L403.378 249.382
L403.675 175.488
L403.824 208.234
L403.973 247.222
L404.047 242.492
L404.27 215.124
L404.345 214.757
L404.419 215.211
L404.568 231.778
L404.642 231.454
L404.791 197.542
L404.866 202.856
L404.94 213.634
L405.014 210.286
L405.089 207.392
L405.312 232.383
L405.386 230.439
L405.461 230.612
L405.61 232.404
L405.758 210.005
L405.833 210.437
L405.982 225.104
L406.13 207.327
L406.205 209.789
L406.279 219.423
L406.354 219.099
L406.577 199.313
L406.651 201.063
L406.726 199.378
L406.874 202.661
L406.949 202.596
L407.098 200.22
L407.246 203.504
L407.395 189.917
L407.767 235.104
L407.916 229.272
L407.99 230.676
L408.214 268.001
L408.288 264.632
L408.809 176.439
L409.032 205.426
L409.106 203.46
L409.255 193.978
L409.404 179.808
L409.627 231.26
L409.702 228.84
L409.925 213.677
L410.074 208.148
L410.222 227.458
L410.446 257.396
L410.594 247.157
L410.818 225.082
L410.966 247.157
L411.041 241.628
L411.264 216.01
L411.562 163.868
L411.636 171.708
L411.785 200.393
L411.934 193.46
L412.008 194.799
L412.082 199.227
L412.157 195.317
L412.306 184.344
L412.529 232.707
L412.678 223.57
L413.05 249.728
L413.124 246.833
L413.347 226.184
L413.422 228.668
L413.645 252.449
L413.942 211.215
L414.091 189.96
L414.166 193.092
L414.24 201.214
L414.314 200.156
L414.686 158.273
L414.761 169.03
L414.984 244.047
L415.207 236.552
L415.579 203.007
L415.654 205.361
L415.728 206.657
L415.951 219.747
L416.1 214.541
L416.174 210.804
L416.249 211.15
L416.472 238.949
L416.844 221.993
L417.216 234.176
L417.365 236.12
L417.588 222.382
L417.811 198.039
L417.886 199.594
L418.332 181.86
L418.406 185.554
L418.555 199.68
L418.63 197.844
L418.704 198.903
L418.927 227.631
L419.076 229.316
L419.225 227.328
L419.299 230.309
L419.448 258.368
L419.522 253.724
L419.894 193.74
L419.969 190.565
L420.118 197.002
L420.341 219.164
L420.415 214.995
L420.49 213.936
L420.713 238.042
L420.787 237.869
L420.862 235.558
L421.531 181.32
L421.754 202.035
L421.829 200.544
L421.903 202.488
L422.275 247.049
L422.424 234.888
L422.647 216.96
L422.722 217.392
L422.87 238.172
L422.945 237.394
L423.019 237.459
L423.094 243.399
L423.168 243.334
L423.54 188.686
L423.614 184.863
L423.986 211.776
L424.061 211.712
L424.21 190.803
L424.284 178.296
L424.358 180.154
L424.73 235.925
L424.805 238.776
L424.879 238.496
L425.102 199.724
L425.251 204.476
L425.549 237.459
L425.623 236.12
L425.698 234.111
L425.846 244.695
L426.144 235.342
L426.218 235.709
L426.293 232.426
L426.665 184.539
L426.739 185.705
L426.962 204.627
L427.111 196.743
L427.483 204.324
L427.558 204.497
L427.632 209.033
L427.855 233.636
L428.153 215.643
L428.376 185.662
L428.45 188.038
L428.674 221.496
L428.897 245.148
L429.046 250.311
L429.12 248.712
L429.343 236.271
L429.418 233.528
L429.492 233.852
L429.79 250.095
L430.459 171.428
L430.608 165.012
L430.906 173.674
L430.98 170.499
L431.054 171.406
L432.096 285.432
L432.17 283.294
L432.319 270.572
L432.394 270.68
L432.468 263.487
L432.766 206.528
L433.138 192.056
L433.286 188.988
L433.361 189.96
L433.733 204.605
L433.956 179.506
L434.03 180.521
L434.254 186.591
L434.551 228.279
L434.7 231.497
L434.923 216.334
L434.998 217.889
L435.072 223.397
L435.146 220.049
L435.295 198.492
L435.37 202.143
L435.593 251.931
L435.742 275.972
L435.89 264.329
L435.965 266.295
L436.039 259.512
L436.262 212.619
L436.486 229.294
L436.56 224.542
L436.783 203.266
L436.932 187.628
L437.006 190.716
L437.155 203.093
L437.378 189.939
L437.602 148.748
L438.122 201.171
L438.197 206.484
L438.494 252.924
L438.569 250.397
L438.718 241.174
L438.792 242.448
L438.866 241.93
L438.941 238.474
L439.015 243.636
L439.238 272.796
L439.313 272.753
L439.387 267.288
L439.61 233.873
L439.834 266.9
L439.908 261.003
L440.354 151.383
L440.429 152.484
L440.726 183.567
L440.801 183.437
L441.024 149.59
L441.173 180.975
L441.396 222.965
L441.47 224.909
L441.619 217.803
L441.694 220.546
L442.066 278.088
L442.289 238.949
L442.363 245.71
L442.438 248.388
L442.586 232.059
L442.81 209.832
L443.033 213.116
L443.107 211.949
L443.256 205.858
L443.33 206.787
L443.405 208.86
L443.479 207.478
L443.628 191.364
L443.777 178.383
L444.074 219.466
L444.149 218.148
L444.298 207.413
L444.372 208.731
L444.67 233.83
L444.818 224.844
L444.893 225.795
L444.967 229.1
L445.116 212.597
L445.265 195.771
L445.339 197.866
L445.562 211.452
L445.786 195.792
L446.158 267.094
L446.232 262.536
L446.381 231.994
L446.455 234.737
L446.604 246.552
L446.753 235.299
L446.976 171.212
L447.125 141.036
L447.348 171.946
L447.571 199.119
L447.72 207.716
L447.869 221.453
L447.943 221.194
L448.018 222.641
L448.241 261.716
L448.464 223.829
L448.538 223.937
L448.91 256.726
L448.985 252.946
L449.134 236.962
L449.357 217.004
L449.431 215.232
L449.878 177.713
L449.878 177.713" style="fill:none;stroke:#808080;stroke-linecap:square;"/>
   </g>
  </g>
 </g>
 <defs>
  <clipPath id="p7ff5b81e1d">
   <rect height="345.6" width="446.4" x="72.0" y="43.2"/>
  </clipPath>
 </defs>
</svg>
