<?xml version="1.0" encoding="utf-8" standalone="no"?>
<!DOCTYPE svg PUBLIC "-//W3C//DTD SVG 1.1//EN"
  "http://www.w3.org/Graphics/SVG/1.1/DTD/svg11.dtd">
<!-- Created with matplotlib (http://matplotlib.org/) -->
<svg height="432pt" version="1.1" viewBox="0 0 576 432" width="576pt" xmlns="http://www.w3.org/2000/svg" xmlns:xlink="http://www.w3.org/1999/xlink">
 <defs>
  <style type="text/css">
*{stroke-linecap:butt;stroke-linejoin:round;}
  </style>
 </defs>
 <g id="figure_1">
  <g id="patch_1">
   <path d="
M0 432
L576 432
L576 0
L0 0
z
" style="fill:#ffffff;"/>
  </g>
  <g id="axes_1">
   <g id="line2d_1">
    <path clip-path="url(#p7ff5b81e1d)" d="
M72 199.667
L72.1488 190.958
L72.2976 172.261
L72.372 179.847
L72.6696 253.512
L73.116 226.641
L73.1904 225.933
L73.2648 220.179
L73.3392 220.351
L73.5624 247.93
L73.6368 245.597
L73.7856 222.753
L74.0088 184.72
L74.232 217.949
L74.3064 216.93
L74.3808 218.952
L74.604 212.489
L74.8272 189.04
L74.9016 194.155
L75.1992 225.103
L75.348 237.597
L75.4224 233.398
L75.5712 204.506
L75.6456 205.784
L75.72 206.165
L75.7944 203.365
L75.8688 203.832
L75.9432 206.476
L76.3152 241.796
L76.3896 241.848
L76.5384 245.649
L76.7616 222.062
L77.2824 191.148
L77.3568 190.163
L77.8032 220.904
L77.8776 217.189
L78.0264 195.537
L78.1008 200.652
L78.3984 254.497
L78.9192 186.69
L78.9936 184.236
L79.3656 270.187
L79.44 267.197
L79.5144 267.785
L79.5888 277.306
L79.6632 270.342
L79.8864 216.446
L80.184 189.057
L80.4816 152.959
L80.8536 191.718
L81.0768 223.306
L81.2256 205.145
L81.3 211.487
L81.4488 204.834
L81.7464 252.164
L81.8208 251.3
L81.9696 240.327
L82.044 241.329
L82.2672 246.634
L82.416 251.041
L82.5648 246.461
L82.7136 232.257
L83.16 152.769
L83.6064 269.271
L84.1272 214.165
L84.2016 218.399
L84.276 220.282
L84.4248 202.743
L84.5736 192.427
L84.648 194.017
L84.7224 192.963
L85.0944 138.479
L85.1688 142.799
L85.6152 268.476
L85.764 265.694
L85.9128 255.447
L85.9872 256.812
L86.0616 249.295
L86.2104 198.389
L86.2848 199.149
L86.508 228.559
L86.6568 228.283
L86.7312 235.471
L86.88 258.765
L87.0288 240.465
L87.1776 254.652
L87.252 252.717
L87.624 182.785
L87.996 136.785
L88.0704 142.401
L88.5168 216.965
L88.6656 208.411
L88.74 210.951
L89.1864 257.417
L89.2608 247.74
L89.3352 243.057
L89.484 248.241
L89.7816 276.442
L89.856 275.198
L90.1536 244.785
L90.3024 225.19
L90.4512 233.501
L90.6744 183.199
L90.8232 157.003
L90.8976 160.925
L91.0464 172.814
L91.1208 166.887
L91.1952 168.857
L91.8648 268.787
L91.9392 267.491
L92.1624 220.991
L92.46 175.389
L92.9064 207.132
L93.0552 205.37
L93.204 202.173
L93.3528 182.871
L93.4272 186.172
L93.7248 218.727
L94.0224 243.679
L94.0968 244.284
L94.1712 240.569
L94.32 222.442
L94.3944 226.14
L94.692 269.876
L94.7664 259.888
L95.064 183.649
L95.1384 177.618
L95.5848 223.324
L95.808 202.709
L96.1056 225.397
L96.3288 267.042
L96.4032 262.67
L96.7008 209.43
L96.7752 214.182
L97.4448 169.928
L97.5192 170.205
L97.5936 172.002
L98.1144 236.387
L98.3376 280.693
L98.4864 286.828
L98.6352 266.593
L99.0072 203.642
L99.0816 197.404
L99.2304 155.949
L99.3048 164.174
L99.6024 275.112
L99.6768 270.083
L100.198 144.164
L100.718 234.141
L101.016 180.193
L101.09 181.541
L101.462 222.045
L101.537 221.647
L101.611 219.66
L101.834 226.503
L102.206 285.998
L102.653 237.424
L102.95 200.479
L103.025 196.747
L103.248 172.97
L103.397 190.163
L103.471 183.614
L103.546 182.232
L103.62 185.809
L103.694 184.755
L103.769 183.666
L104.364 222.218
L104.513 210.519
L104.587 210.865
L104.662 219.004
L104.959 277.41
L105.108 283.683
L105.257 244.319
L105.554 165.85
L105.778 145.356
L105.852 145.166
L105.926 147.896
L106.298 216.17
L106.819 289.541
L107.414 217.155
L107.638 197.006
L107.712 194.414
L107.861 169.099
L108.01 126.521
L108.084 131.999
L108.382 200.134
L108.828 307.978
L108.902 298.664
L109.274 197.127
L109.349 197.939
L109.423 206.873
L109.572 248.742
L109.646 248.621
L110.242 156.225
L110.316 159.405
L110.39 171.881
L110.465 166.282
L110.539 160.113
L110.688 183.372
L110.837 217.448
L110.911 213.612
L111.06 258.022
L111.283 331.358
L111.358 340.085
L111.506 332.861
L111.878 150.16
L112.027 162.135
L112.102 159.992
L112.325 182.508
L112.399 183.873
L112.846 150.454
L112.92 159.509
L112.994 157.729
L113.069 155.154
L113.366 233.985
L113.441 234.365
L113.813 306.907
L114.854 190.924
L114.929 188.487
L115.078 197.421
L115.226 180.486
L115.375 156.917
L115.45 157.314
L116.119 279.363
L116.194 282.905
L116.268 278.723
L116.64 186.707
L116.714 182.508
L116.789 190.854
L116.938 219.677
L117.012 214.856
L117.161 178.344
L117.235 179.501
L117.31 184.651
L117.384 183.441
L117.458 185.256
L117.682 251.611
L117.756 244.699
L117.979 203.296
L118.128 187.347
L118.277 169.531
L118.351 175.544
L118.649 255.983
L118.723 254.79
L118.798 248.224
L119.021 282.663
L119.095 282.542
L119.467 210.173
L119.616 201.551
L119.765 192.116
L119.839 192.859
L120.137 171.103
L120.211 172.399
L120.658 270.256
L120.732 268.943
L120.806 263.189
L121.253 168.874
L121.402 185.93
L121.699 268.2
L121.774 265.66
L122.146 204.125
L122.369 216.844
L122.518 208.031
L122.666 171.864
L122.89 118.261
L123.485 324.861
L123.559 320.247
L124.08 174.559
L124.154 168.373
L124.303 195.935
L124.378 215.72
L124.452 214.182
L124.601 163.863
L124.675 165.28
L125.122 244.682
L125.196 238.219
L125.419 210.778
L125.494 212.351
L125.568 216.895
L125.642 216.394
L125.866 181.195
L125.94 186.811
L126.163 244.077
L126.312 234.659
L126.386 237.96
L126.535 230.495
L126.684 236.093
L126.758 236.042
L126.982 270.55
L127.056 264.519
L127.354 245.235
L127.651 158.765
L127.726 159.301
L127.8 158.247
L127.874 153.702
L127.949 154.757
L128.47 196.47
L128.767 232.793
L128.916 262.376
L129.214 248.621
L129.362 264.968
L129.511 280.814
L129.586 278.62
L129.66 284.374
L129.734 283.285
L130.181 190.008
L130.33 168.65
L130.478 154.497
L130.553 156.709
L130.627 156.364
L130.702 156.467
L130.776 159.612
L131.074 219.919
L131.148 214.856
L131.297 210.623
L131.446 215.513
L131.594 201.637
L131.743 222.373
L131.892 240.569
L132.115 232.482
L132.19 235.8
L132.264 245.667
L132.338 243.178
L132.487 221.112
L132.71 245.407
L132.934 187.986
L133.008 191.045
L133.231 223.22
L133.306 224.982
L133.454 238.703
L133.529 235.16
L133.752 186.88
L133.826 193.429
L134.05 231.065
L134.198 217.759
L134.347 225.846
L134.422 224.758
L134.57 201.724
L134.719 162.412
L134.794 167.613
L135.091 243.835
L135.166 238.91
L135.463 212.524
L135.538 215.392
L135.761 242.85
L135.984 207.426
L136.282 230.754
L136.579 208.376
L136.654 211.141
L136.877 236.301
L136.951 240.379
L137.026 234.746
L137.323 169.41
L137.398 165.937
L137.546 184.997
L137.621 178.413
L137.844 139.205
L138.216 215.72
L138.662 324.066
L138.811 327.885
L138.96 301.066
L139.183 257.693
L139.481 192.133
L139.63 167.336
L139.704 166.68
L139.927 136.111
L140.15 117.052
L140.225 119.972
L140.374 151.249
L140.746 244.06
L140.894 237.234
L140.969 240.534
L141.118 257.313
L141.341 234.659
L141.564 252.786
L141.862 288.625
L141.936 280.883
L142.382 186.258
L142.457 183.562
L142.606 188.936
L142.829 178.586
L142.903 181.558
L143.201 237.649
L143.275 233.83
L143.647 164.295
L143.945 228.006
L144.094 219.297
L144.242 193.982
L144.317 194.518
L144.54 247.723
L144.614 244.094
L144.912 183.752
L144.986 199.373
L145.21 286.102
L145.284 283.009
L145.582 184.409
L145.73 150.488
L146.028 187.329
L146.177 218.762
L146.474 321.457
L146.549 313.698
L147.144 144.613
L147.218 141.727
L147.59 164.105
L148.037 214.735
L148.334 260.165
L148.409 252.7
L148.706 279
L148.781 275.405
L148.93 250.868
L149.078 256.052
L149.302 194.777
L149.525 133.07
L149.599 133.26
L149.822 158.299
L150.046 197.006
L150.12 193.637
L150.194 191.304
L150.269 193.36
L150.418 222.961
L150.715 283.302
L150.79 279.518
L150.864 280.451
L150.938 283.596
L151.013 279.933
L151.31 239.567
L151.459 242.625
L151.757 193.827
L152.054 98.5101
L152.129 98.9594
L152.352 182.249
L152.575 285.894
L152.65 292.029
L152.724 288.97
L153.766 172.451
L153.84 174.853
L154.51 255.084
L154.658 285.29
L154.882 251.68
L154.956 253.235
L155.03 247.014
L155.105 248.207
L155.179 250.021
L155.477 209.379
L155.774 157.59
L156.146 116.948
L156.221 119.713
L156.37 154.653
L156.667 250.401
L156.816 276.632
L156.965 307.443
L157.039 305.645
L157.114 307.926
L157.188 305.525
L157.262 310.311
L157.337 305.265
L157.858 154.152
L158.006 140.259
L158.155 168.321
L158.378 225.345
L158.453 227.592
L158.602 224.844
L158.75 238.426
L158.825 237.424
L158.899 234.728
L159.048 204.678
L159.122 208.808
L159.271 225.138
L159.42 205.439
L159.569 217.345
L159.643 216.965
L159.866 189.247
L159.941 191.494
L160.015 193.36
L160.164 186.465
L160.238 178.655
L160.313 179.605
L160.387 182.007
L160.61 208.325
L160.982 284.564
L161.057 281.367
L161.206 269.789
L161.354 275.146
L161.429 271.829
L161.578 238.582
L161.801 189.697
L162.024 181.903
L162.098 181.523
L162.247 175.683
L162.545 136.785
L162.842 189.697
L163.289 300.22
L163.512 246.444
L163.586 249.814
L163.661 259.18
L163.735 254.358
L164.182 152.251
L164.256 163.12
L164.851 259.491
L165 223.997
L165.223 180.728
L165.298 181.005
L165.372 184.253
L165.67 248.224
L165.818 222.166
L165.893 225.449
L165.967 225.121
L166.042 220.766
L166.116 222.667
L166.265 245.822
L166.562 205.387
L166.637 205.18
L167.009 169.237
L167.381 261.011
L167.753 197.075
L167.976 233.83
L168.05 229.164
L168.348 162.325
L168.497 171.207
L168.571 171.103
L168.72 212.748
L168.943 258.661
L169.166 276.01
L169.241 262.013
L169.464 177.341
L169.538 174.197
L169.687 198.976
L169.985 270.74
L170.059 268.528
L170.282 239.549
L170.357 237.269
L170.58 262.342
L170.729 229.683
L170.952 196.436
L171.398 149.884
L171.547 161.306
L171.919 218.848
L172.068 214.718
L172.142 218.036
L172.217 215.392
L172.366 201.015
L172.738 266.42
L172.812 272.744
L173.333 207.53
L173.779 257.59
L173.854 254.168
L174.3 169.41
L174.672 173.212
L174.821 190.405
L175.193 241.917
L175.342 224.827
L175.416 225.898
L175.639 246.531
L176.234 169.842
L176.755 235.385
L176.904 241.813
L177.053 217.483
L177.127 218.364
L177.425 285.48
L177.648 247.032
L178.02 176.132
L178.169 200.911
L178.243 198.354
L178.466 184.876
L178.69 199.84
L178.764 198.579
L178.838 199.598
L179.136 216.342
L179.359 230.823
L179.434 227.194
L180.103 153.547
L180.252 178.862
L180.55 230.685
L180.624 231.756
L180.698 231.307
L180.847 268.269
L180.996 310.311
L181.07 306.855
L181.368 264.64
L181.591 231.998
L181.666 232.24
L181.74 231.653
L182.484 151.853
L182.558 151.853
L182.782 180.365
L183.005 202.173
L183.079 205.352
L183.451 244.716
L184.121 189.472
L184.195 190.336
L184.939 281.315
L185.014 277.306
L185.088 273.004
L185.311 232.205
L185.386 232.499
L185.534 251.611
L185.832 226.486
L186.13 183.614
L186.204 183.735
L186.278 182.595
L186.576 162.774
L186.799 118.883
L186.874 123.67
L187.246 220.109
L187.469 287.139
L187.543 296.556
L187.618 293.48
L187.766 266.143
L187.99 221.094
L188.362 190.613
L188.51 172.037
L188.882 244.647
L189.031 242.66
L189.18 228.11
L189.478 303.589
L189.626 331.652
L190.296 168.408
L190.668 112.991
L190.891 90.4749
L191.04 123.169
L191.263 161.997
L191.71 241.709
L191.858 264.882
L191.933 261.996
L192.23 313.301
L192.528 363.326
L193.049 233.415
L193.272 164.33
L193.346 158.904
L193.421 160.079
L193.495 159.025
L193.57 156.156
L193.644 158.662
L193.867 124.136
L193.942 133.485
L194.314 151.301
L194.909 263.223
L195.058 251.87
L195.206 268.718
L195.281 268.407
L195.43 259.491
L196.025 144.838
L196.248 163.397
L196.62 269.997
L196.769 256.449
L196.918 284.65
L197.29 229.873
L197.513 201.119
L197.587 205.784
L197.736 217.915
L197.81 213.007
L197.959 186.811
L198.034 189.921
L198.108 189.282
L198.331 217.587
L198.629 202.156
L198.778 218.52
L198.852 212.541
L198.926 215.392
L199.001 214.943
L199.075 208.359
L199.15 210.122
L199.224 217.448
L199.596 182.024
L199.745 187.157
L199.819 182.18
L199.968 198.371
L200.042 205.94
L200.117 200.41
L200.266 179.035
L200.34 178.689
L200.414 184.927
L200.638 246.496
L200.712 244.889
L200.935 253.823
L201.158 292.133
L201.233 285.653
L201.307 288.141
L201.382 291.804
L201.605 263.741
L201.754 247.792
L201.828 245.96
L202.349 177.307
L202.423 177.03
L202.572 148.397
L202.721 125.864
L203.093 162.671
L203.316 198.821
L203.39 197.801
L203.539 228.784
L203.762 280.849
L204.06 258.834
L204.358 218.883
L204.506 232.223
L204.655 244.042
L204.73 245.183
L204.953 265.297
L205.176 186.69
L205.399 132.673
L205.474 136.941
L205.846 221.63
L205.92 217.31
L206.143 184.219
L206.218 185.964
L206.59 245.753
L206.664 243.921
L206.813 223.963
L206.962 210.813
L207.11 239.601
L207.334 282.387
L207.408 276.995
L207.706 233.45
L207.78 236.543
L207.854 231.29
L208.226 165.695
L208.375 172.002
L208.524 168.477
L208.598 173.194
L208.896 215.392
L209.045 227.523
L209.194 220.49
L209.268 217.708
L209.491 244.06
L209.566 237.925
L209.714 224.291
L209.789 225.674
L209.863 224.844
L209.938 226.261
L210.161 243.247
L210.31 233.225
L210.458 242.401
L210.533 237.908
L210.905 176.996
L211.054 181.454
L211.202 166.662
L211.351 148.397
L211.574 184.081
L211.872 239.636
L211.946 246.289
L212.021 245.045
L212.095 243.04
L212.244 254.099
L212.393 265.711
L212.914 213.906
L212.988 216.757
L213.062 222.874
L213.137 222.045
L213.434 211.85
L213.732 231.791
L213.806 228.629
L214.178 166.317
L214.327 171.38
L214.476 169.738
L214.699 182.405
L214.774 178.758
L214.922 188.66
L215.443 283.302
L215.89 245.045
L215.964 249.606
L216.038 249.468
L216.187 226.486
L216.485 155.621
L216.559 153.34
L216.634 155.983
L216.857 203.21
L216.931 202.536
L217.154 160.355
L217.303 198.561
L217.601 267.82
L217.675 275.699
L217.75 273.401
L217.824 271.172
L217.973 282.076
L218.122 245.839
L218.345 164.451
L218.494 172.14
L218.568 168.045
L218.717 149.503
L218.791 153.858
L219.089 208.826
L219.163 207.564
L219.238 209.292
L219.386 228.957
L219.684 283.095
L219.758 279.017
L220.056 225.708
L220.205 236.301
L220.428 215.098
L220.726 269.444
L220.949 225.535
L221.321 122.927
L221.693 195.14
L221.842 235.765
L221.916 231.739
L222.214 194.863
L222.362 224.602
L222.734 303.105
L222.958 259.594
L223.255 161.686
L223.404 181.35
L223.702 239.204
L223.776 230.063
L224.074 146.669
L224.371 197.352
L224.446 197.784
L224.669 222.822
L224.743 222.511
L224.966 212.472
L225.115 234.867
L225.413 274.265
L225.934 199.391
L226.38 251.196
L226.454 243.869
L226.752 142.453
L226.826 144.475
L226.975 156.381
L227.347 259.681
L227.422 255.413
L227.496 253.166
L227.868 210.001
L227.942 212.178
L228.166 225.777
L228.24 226.97
L228.463 204.039
L228.612 214.545
L228.761 222.494
L228.835 219.332
L229.133 195.313
L229.207 195.848
L229.282 199.166
L229.43 192.341
L229.505 193.498
L229.654 221.146
L229.728 235.627
L229.802 235.091
L230.026 213.629
L230.398 240.828
L230.472 241.882
L230.621 209.724
L230.695 190.06
L230.77 190.699
L230.918 200.358
L230.993 197.594
L231.29 223.185
L231.439 237.977
L231.588 237.32
L231.886 224.447
L231.96 225.121
L232.109 238.772
L232.258 224.222
L232.406 194.051
L232.555 159.82
L232.778 190.008
L232.853 181.212
L233.076 204.367
L233.299 264.173
L233.374 261.581
L233.522 282.127
L233.969 180.383
L234.043 181.368
L234.192 190.319
L234.341 211.124
L234.49 224.188
L234.713 206.614
L234.787 203.071
L235.085 242.522
L235.159 250.056
L235.234 249.641
L235.457 211.055
L235.606 229.665
L235.68 224.792
L235.754 218.451
L235.829 223.445
L235.903 220.334
L236.275 147.862
L236.498 174.819
L236.722 204.125
L237.094 272.623
L237.168 271.206
L237.317 272.33
L237.689 218.831
L237.763 224.827
L237.912 216.567
L238.061 185.895
L238.21 157.539
L238.358 176.633
L238.507 206.044
L238.582 202.657
L238.656 205.18
L238.73 217.189
L238.805 215.513
L239.028 206.476
L239.177 221.354
L239.549 281.903
L239.623 282.87
L239.921 238.444
L239.995 239.238
L240.144 249.745
L240.442 175.078
L240.59 142.332
L240.665 144.821
L240.962 188.418
L241.111 175.32
L241.186 173.419
L241.409 200.428
L241.483 195.14
L241.558 196.643
L241.781 225.363
L241.93 228.369
L242.078 244.509
L242.376 279.967
L242.748 216.463
L243.046 172.14
L243.12 175.959
L243.566 248.017
L243.715 261.893
L243.938 213.699
L244.013 214.096
L244.087 221.06
L244.162 216.498
L244.31 190.371
L244.385 191.01
L244.534 211.694
L244.831 141.952
L245.352 260.579
L245.426 257.244
L245.65 228.525
L245.798 222.252
L246.022 174.525
L246.17 196.177
L246.394 261.651
L246.542 301.533
L246.617 293.999
L246.989 216.118
L247.138 191.77
L247.286 215.634
L247.435 234.815
L247.51 230.685
L247.807 164.883
L247.882 171.95
L248.105 209.811
L248.402 167.889
L248.774 191.321
L249.146 278.084
L249.221 292.063
L249.37 259.231
L249.518 228.283
L249.593 231.67
L249.816 258.264
L250.039 238.461
L250.709 109.051
L250.932 219.695
L251.155 280.762
L251.23 276.46
L251.527 233.692
L251.676 261.685
L251.825 288.746
L251.974 268.476
L252.197 200.065
L252.271 204.298
L252.346 203.884
L252.569 184.876
L252.643 182.232
L252.866 209.655
L252.941 208.169
L253.387 175.51
L253.462 179.363
L253.536 189.161
L253.759 235.126
L253.834 231.238
L254.057 186.621
L254.206 159.007
L254.354 172.227
L254.726 333.207
L254.801 317.828
L255.173 191.546
L255.247 193.567
L255.619 217.466
L255.694 214.044
L255.991 182.785
L256.066 185.498
L256.289 231.635
L256.363 230.408
L256.586 253.201
L256.735 218.952
L256.958 174.577
L257.107 205.197
L257.405 265.798
L258 139.982
L258.446 256.449
L258.521 249.365
L258.818 180.936
L259.116 254.255
L259.265 292.409
L259.339 294.742
L259.414 292.305
L259.637 192.997
L259.786 204.523
L259.86 205.871
L259.934 210.502
L260.083 225.898
L260.158 221.907
L260.381 191.356
L260.455 185.48
L260.604 152.199
L260.678 153.167
L260.827 185.152
L260.976 214.493
L261.05 214.925
L261.199 198.095
L261.274 200.393
L261.348 208.86
L261.571 178.655
L261.794 220.127
L261.869 221.509
L262.092 255.62
L262.166 252.216
L262.464 222.062
L262.613 249.278
L262.836 290.335
L262.91 290.059
L263.059 266.472
L263.282 224.326
L263.357 220.265
L263.654 185.342
L263.729 184.668
L263.952 190.854
L264.101 173.747
L264.473 132.379
L264.622 164.451
L264.845 217.258
L265.068 242.401
L265.142 238.997
L265.217 239.1
L265.44 269.669
L265.589 298.716
L265.663 294.085
L266.258 203.745
L266.482 183.718
L266.556 183.994
L266.705 193.74
L266.779 191.304
L266.928 160.493
L267.002 166.611
L267.151 183.649
L267.226 177.497
L267.3 179.553
L267.449 190.664
L267.523 189.247
L267.598 194.034
L267.821 238.565
L267.97 280.762
L268.044 274.904
L268.193 269.53
L268.267 271.984
L268.342 266.299
L268.714 196.401
L268.788 196.453
L268.937 191.114
L269.086 202.518
L269.383 237.718
L269.532 212.99
L269.755 158.714
L269.904 167.319
L270.202 239.377
L270.425 201.188
L270.574 223.254
L270.722 245.425
L270.797 244.094
L270.871 247.256
L271.02 274.386
L271.094 270.135
L271.318 233.778
L271.392 236.56
L271.466 238.305
L271.541 234.417
L272.136 151.836
L272.359 212.731
L272.434 211.072
L272.657 175.648
L273.029 235.869
L273.103 241.053
L273.326 215.029
L273.401 218.312
L273.475 223.289
L273.698 286.81
L273.773 283.32
L273.922 266.161
L274.294 137.805
L274.368 145.304
L274.517 171.449
L274.74 208.497
L275.186 230.823
L275.261 231.618
L275.41 224.153
L275.633 207.875
L275.856 236.577
L276.079 281.557
L276.154 277.583
L276.302 252.751
L276.6 210.329
L276.823 201.931
L277.046 167.717
L277.195 180.296
L277.344 198.354
L277.567 159.941
L277.865 193.688
L278.237 252.872
L278.311 250.47
L278.46 240.154
L278.683 268.165
L279.13 229.596
L279.427 147.309
L279.502 147.274
L279.576 149.624
L280.097 229.976
L280.246 240.137
L280.543 273.971
L280.766 247.878
L280.841 248.38
L280.915 250.712
L281.064 221.682
L281.287 179.605
L281.362 177.445
L281.659 128.871
L282.254 252.44
L282.329 250.695
L282.403 249.693
L282.478 250.108
L282.552 254.652
L282.775 287.173
L283.073 232.499
L283.147 231.946
L283.296 215.202
L283.594 176.097
L283.817 124.707
L284.04 162.619
L284.412 251.576
L284.486 246.98
L284.561 244.129
L284.635 247.153
L284.784 282.922
L284.933 309.758
L285.305 235.661
L285.974 110.399
L286.421 178.275
L286.495 179.052
L286.644 191.77
L286.867 246.116
L287.09 293.342
L287.165 292.668
L287.611 270.688
L288.43 171.967
L288.578 193.74
L288.653 192.652
L289.099 162.36
L289.248 177.86
L289.694 264.173
L289.769 262.031
L289.918 242.919
L289.992 245.546
L290.066 248.673
L290.141 243.178
L290.364 217.604
L290.587 214.044
L290.81 189.835
L290.959 207.426
L291.257 235.16
L291.703 160.027
L291.778 170.222
L292.373 255.067
L292.522 243.023
L292.67 274.818
L292.745 273.47
L292.819 267.699
L293.414 150.367
L293.563 135.921
L293.712 114.166
L293.935 204.592
L294.307 332.931
L294.382 331.254
L294.754 278.654
L294.977 217.276
L295.051 213.941
L295.2 216.913
L295.349 210.156
L295.87 119.557
L295.944 122.46
L296.093 136.889
L296.465 216.999
L296.614 214.649
L296.911 234.314
L297.283 296.746
L297.506 315.322
L297.655 291.735
L298.474 105.491
L298.548 112.334
L298.846 193.274
L298.994 179.692
L299.069 183.113
L299.218 214.217
L299.441 255.05
L299.738 294.189
L299.962 326.019
L300.706 108.844
L300.78 114.2
L300.854 113.094
L300.929 119.402
L301.226 223.203
L301.301 218.675
L301.375 213.906
L301.524 243.334
L301.673 272.243
L301.747 272.088
L301.822 270.308
L301.896 271.189
L301.97 268.77
L302.268 282.836
L302.417 291.372
L302.566 237.027
L302.863 128.508
L302.938 119.073
L303.012 120.542
L303.161 159.388
L303.384 202.173
L303.682 173.177
L303.756 171.086
L303.905 156.277
L303.979 156.657
L304.202 212.714
L304.426 273.971
L304.5 272.295
L304.872 312.419
L304.946 313.974
L305.021 309.965
L305.765 118.555
L305.914 126.296
L306.062 149.071
L306.36 200.168
L306.434 200.151
L306.509 206.545
L306.955 319.089
L307.03 313.491
L307.253 277.168
L307.699 160.753
L307.997 111.747
L308.071 114.079
L308.22 148.432
L308.518 220.058
L308.666 241.485
L308.89 280.157
L308.964 278.931
L309.113 285.065
L309.187 284.408
L309.262 279.881
L309.336 267.595
L309.41 268.148
L309.485 274.956
L309.559 271.016
L309.931 172.52
L310.154 147.015
L310.378 174.801
L310.526 153.979
L310.824 213.37
L311.047 188.608
L311.122 194.328
L311.642 304.073
L311.866 270.636
L312.089 214.718
L312.163 215.081
L312.312 211.158
L312.461 218.537
L312.535 215.582
L312.907 157.003
L313.354 234.677
L313.502 264.329
L313.726 214.096
L313.949 171.743
L314.098 189.403
L314.395 286.085
L314.47 269.599
L314.767 222.874
L314.842 222.926
L314.916 225.432
L315.065 215.997
L315.214 233.916
L315.288 229.026
L315.586 152.061
L315.66 156.934
L315.809 165.954
L315.958 158.99
L316.255 205.197
L316.404 218.554
L316.478 219.453
L316.627 232.603
L316.85 263.811
L317.074 297.507
L317.222 281.816
L317.594 178.966
L317.743 126.659
L317.818 130.582
L318.338 236.94
L318.413 235.126
L318.636 195.123
L318.71 202.605
L319.082 291.303
L319.157 286.24
L319.306 273.747
L319.678 184.876
L319.826 175.251
L320.124 205.11
L320.198 203.711
L320.422 167.129
L320.496 174.698
L320.794 185.135
L320.942 206.804
L321.166 257.573
L321.24 261.841
L321.389 282.559
L321.686 255.516
L321.984 196.522
L322.133 169.168
L322.579 212.524
L322.654 211.383
L322.802 194.984
L322.951 198.993
L323.249 189.749
L323.323 191.563
L323.546 223.099
L323.77 269.357
L323.844 269.962
L323.993 252.475
L324.365 175.683
L324.439 176.806
L324.737 207.461
L325.034 277.583
L325.109 275.112
L325.258 257.175
L325.481 222.252
L325.555 220.179
L325.778 190.716
L325.853 183.839
L325.927 185.705
L326.374 250.073
L326.522 228.197
L326.894 152.337
L326.969 156.053
L327.118 187.312
L327.415 267.629
L327.564 239.256
L327.862 181.955
L328.01 189.99
L328.159 200.151
L328.382 225.674
L328.754 197.611
L329.052 226.348
L329.275 254.583
L329.424 234.331
L329.573 208.791
L329.647 208.877
L329.796 209.862
L329.945 222.874
L330.094 245.252
L330.391 193.671
L330.466 195.917
L330.54 199.84
L330.614 196.609
L330.689 197.473
L330.838 237.873
L330.986 278.049
L331.061 276.805
L331.135 270.204
L331.507 192.6
L331.805 231.341
L331.879 220.628
L332.177 119.678
L332.251 121.458
L333.293 322.563
L333.367 325.431
L333.739 255.724
L334.111 157.59
L334.186 153.772
L334.26 157.107
L334.334 155.534
L334.409 152.89
L334.483 154.826
L334.855 216.239
L335.004 228.611
L335.078 226.261
L335.153 227.782
L335.302 233.813
L335.376 231.739
L335.45 232.067
L335.674 189.558
L335.748 188.176
L335.822 189.351
L336.046 221.768
L336.418 185.653
L336.492 180.884
L336.938 220.887
L337.087 211.729
L337.162 212.748
L337.236 214.165
L337.385 232.05
L337.831 300.461
L337.906 307.425
L338.054 291.51
L338.129 294.707
L338.203 294.102
L338.352 263.897
L338.65 139.17
L338.724 138.893
L338.798 136.146
L338.947 112.196
L339.022 119.402
L339.394 197.853
L339.766 245.442
L339.84 252.596
L339.914 251.438
L340.212 229.821
L340.435 234.797
L340.658 220.438
L340.733 223.877
L340.807 214.355
L341.03 164.053
L341.402 204.73
L341.477 207.893
L341.626 185.688
L341.7 185.964
L342.072 276.65
L342.146 274.421
L342.444 220.628
L342.742 242.038
L342.816 241.882
L342.965 228.058
L343.188 175.527
L343.262 176.65
L343.634 206.597
L343.858 229.665
L344.155 180.037
L344.304 215.91
L344.453 254.583
L344.527 251.887
L344.676 234.659
L344.899 180.331
L344.974 181.316
L345.122 206.355
L345.271 234.556
L345.346 235.212
L345.569 269.582
L346.015 205.024
L346.09 208.221
L346.387 226.209
L346.462 224.723
L346.834 174.076
L346.908 182.474
L347.206 216.239
L347.28 214.252
L347.503 201.758
L347.875 242.124
L348.173 208.255
L348.247 213.595
L348.396 198.89
L348.545 217.327
L348.619 212.385
L348.842 181.489
L349.066 145.909
L349.363 202.173
L349.661 299.321
L349.884 329.613
L350.033 335.315
L350.777 136.785
L350.851 136.163
L351 122.443
L351.074 124.015
L351.298 176.996
L351.521 202.588
L351.67 214.545
L351.744 211.193
L351.818 213.543
L352.116 271.103
L352.265 255.032
L352.488 236.871
L352.711 210.156
L352.786 214.735
L353.009 231.151
L353.232 212.921
L353.381 191.528
L353.455 192.254
L353.678 175.285
L353.976 222.822
L354.199 189.472
L354.348 170.792
L354.497 223.099
L354.72 286.568
L354.794 287.864
L355.166 234.97
L355.241 233.795
L355.39 202.173
L355.464 205.767
L355.613 227.592
L355.985 151.992
L356.059 153.374
L356.208 175.009
L356.58 229.009
L356.729 221.647
L357.175 283.976
L357.622 191.459
L357.696 192.669
L357.845 162.031
L357.919 164.52
L358.142 214.856
L358.217 225.432
L358.291 224.602
L358.589 168.753
L359.035 253.65
L359.11 262.67
L359.184 259.508
L359.63 229.268
L359.928 195.641
L360.077 200.963
L360.226 186.638
L360.598 196.591
L360.97 168.442
L361.118 197.732
L361.193 196.626
L361.267 190.958
L361.342 200.946
L361.639 301.274
L361.788 329.146
L361.862 326.33
L362.458 152.009
L362.606 63.2589
L362.681 69.2032
L363.127 240.673
L363.276 251.542
L363.425 232.81
L363.574 239.066
L363.648 237.58
L363.722 239.342
L363.797 239.066
L363.946 220.541
L364.243 231.739
L364.318 231.67
L364.466 205.992
L364.541 210.018
L364.764 238.357
L364.913 206.683
L365.136 171.19
L365.21 162.93
L365.285 163.708
L365.582 244.682
L365.657 240.776
L365.806 222.304
L365.88 236.145
L365.954 228.646
L366.103 203.417
L366.326 226.244
L366.401 239.895
L366.475 233.173
L366.624 215.824
L366.698 215.945
L366.773 210.243
L366.847 211.02
L367.07 238.012
L367.145 239.964
L367.219 236.284
L367.517 183.044
L367.591 180.054
L367.814 231.583
L367.889 228.819
L368.112 199.114
L368.186 209.102
L368.261 217.725
L368.41 173.021
L368.782 212.696
L368.856 202.311
L368.93 206.355
L369.079 264.709
L369.154 262.48
L369.228 262.463
L369.451 228.957
L369.526 235.817
L369.674 251.334
L369.749 252.44
L369.898 276.373
L370.046 231.773
L370.27 169.911
L370.344 178.413
L370.567 134.124
L370.865 172.348
L371.014 186.362
L371.162 267.906
L371.237 262.497
L371.311 249.727
L371.386 251.905
L371.534 264.364
L371.758 304.004
L371.832 296.712
L371.981 243.8
L372.204 156.83
L372.353 170.516
L372.502 195.295
L372.576 193.671
L372.725 176.823
L372.948 119.885
L373.543 290.042
L373.618 277.133
L373.692 279.846
L373.841 296.211
L373.915 288.832
L374.064 314.493
L374.138 303.814
L374.436 214.511
L374.734 174.179
L374.808 180.728
L374.882 175.009
L375.031 148.95
L375.329 221.717
L375.552 185.498
L375.701 217.172
L375.85 204.264
L375.924 206.856
L375.998 204.972
L376.147 224.395
L376.296 185.549
L376.37 188.021
L376.668 250.73
L376.742 252.129
L376.891 239.912
L377.04 250.488
L377.189 269.72
L377.263 266.213
L377.412 253.408
L377.858 136.319
L378.379 226.175
L378.677 209.275
L378.826 228.145
L378.974 212.852
L379.123 231.221
L379.198 230.84
L379.346 255.637
L379.495 232.568
L379.57 234.124
L379.793 256.104
L379.867 267.768
L380.016 249.883
L380.165 215.392
L380.314 183.251
L380.388 182.75
L380.537 159.318
L380.686 189.835
L380.76 183.562
L380.834 179
L380.909 182.923
L380.983 182.163
L381.058 180.728
L381.43 239.29
L381.504 235.247
L381.578 240.12
L381.653 258.713
L381.727 255.706
L381.802 239.256
L381.876 239.791
L381.95 247.654
L382.248 206.268
L382.322 192.755
L382.471 230.149
L382.546 222.511
L382.843 129.078
L383.29 270.792
L383.662 211.504
L383.81 218.606
L383.959 191.891
L384.108 202.467
L384.182 199.132
L384.331 229.527
L384.406 229.406
L384.48 222.079
L384.778 241.502
L384.852 256.536
L385.745 158.109
L385.819 158.575
L386.34 255.171
L386.414 261.305
L386.563 240.638
L386.712 263.223
L386.861 243.61
L386.935 259.802
L387.01 249.088
L387.158 198.717
L387.233 204.419
L387.307 202.709
L387.382 201.413
L387.456 209.292
L387.679 144.406
L388.051 217.621
L388.126 203.642
L388.2 204.264
L388.349 239.93
L388.423 237.459
L388.572 265.642
L388.721 244.422
L388.795 255.05
L388.944 217.708
L389.018 221.613
L389.093 220.628
L389.167 211.556
L389.316 222.01
L389.465 177.583
L389.539 179.813
L389.837 254.635
L390.283 193.723
L390.358 191.096
L390.506 176.27
L390.878 264.294
L390.953 263.966
L391.325 162.861
L391.399 178.62
L391.474 199.373
L391.548 198.319
L391.697 191.39
L391.771 190.492
L391.846 192.375
L391.994 203.054
L392.143 199.46
L392.218 200.341
L392.292 206.838
L392.59 289.281
L392.664 277.997
L392.813 244.336
L393.036 191.718
L393.11 199.08
L393.334 273.366
L393.408 261.167
L393.557 234.124
L393.706 187.191
L393.854 204.54
L393.929 203.037
L394.003 205.853
L394.152 220.127
L394.301 218.191
L394.524 182.595
L394.598 184.202
L394.673 180.556
L394.747 181.541
L395.045 211.781
L395.194 246.306
L395.342 218.952
L395.491 231.722
L395.64 256.086
L395.863 214.234
L395.938 215.116
L396.086 205.733
L396.235 219.798
L396.31 216.55
L396.533 201.326
L396.83 213.232
L396.979 227.644
L397.277 211.366
L397.351 213.284
L397.5 225.881
L397.872 176.201
L397.946 180.452
L398.17 221.354
L398.318 230.771
L398.393 228.145
L398.467 224.81
L398.69 235.558
L398.839 266.092
L399.062 226.52
L399.211 243.576
L399.286 243.489
L399.583 194.639
L399.658 196.367
L399.732 196.073
L399.806 196.781
L399.881 200.237
L400.104 252.872
L400.178 243.697
L400.55 194.328
L400.625 189.386
L400.774 156.744
L401.146 203.141
L401.443 242.245
L401.666 228.991
L401.741 229.821
L401.815 230.927
L401.89 234.573
L401.964 234.538
L402.113 228.508
L402.41 255.879
L402.485 252.734
L402.708 203.693
L402.782 208.238
L402.931 190.215
L403.154 207.996
L403.229 221.492
L403.303 216.17
L403.452 203.175
L403.526 204.074
L403.973 163.137
L404.27 241.433
L404.345 238.616
L404.419 233.519
L404.494 238.374
L404.717 271.258
L404.791 266.765
L405.238 207.841
L405.386 230.564
L405.535 258.592
L405.61 254.842
L405.982 181.16
L406.056 172.106
L406.13 178.741
L406.279 223.375
L406.354 223.203
L406.502 204.903
L406.726 151.992
L406.8 156.709
L407.098 251.213
L407.172 249.244
L407.47 235.834
L407.618 193.671
L407.693 196.09
L407.916 232.171
L407.99 232.136
L408.139 213.958
L408.288 231.359
L408.362 230.84
L408.511 217.051
L408.734 245.632
L408.809 235.506
L408.958 189.99
L409.032 192.047
L409.33 216.619
L409.478 209.085
L409.627 229.043
L409.702 228.404
L409.925 204.748
L410.148 219.971
L410.446 195.382
L410.52 196.747
L410.818 241.018
L410.892 241.796
L410.966 239.791
L411.19 199.391
L411.264 201.672
L411.413 203.365
L411.562 233.553
L411.71 256.795
L411.785 253.339
L411.934 289.057
L412.008 284.287
L412.454 134.539
L412.603 126.003
L412.678 122.08
L412.901 169.03
L413.57 292.167
L413.942 256.277
L414.314 199.685
L414.389 194.777
L414.612 236.042
L414.686 237.269
L414.835 209.517
L415.058 171.397
L415.43 195.935
L415.505 194.069
L415.728 182.577
L415.877 194.829
L416.026 209.914
L416.1 206.51
L416.174 207.253
L416.472 250.298
L416.546 244.82
L416.621 240.759
L416.77 257.054
L416.844 253.771
L417.29 199.581
L417.439 224.55
L417.737 191.114
L418.109 245.736
L418.183 243.075
L418.406 200.134
L418.555 177.549
L418.704 195.295
L418.853 192.306
L419.076 219.695
L419.299 260.303
L419.448 271.949
L419.597 240.033
L419.671 242.021
L419.746 253.356
L419.82 249.036
L420.192 148.017
L420.266 157.349
L420.713 256.605
L421.085 197.334
L421.159 196.902
L421.308 188.798
L421.457 223.911
L421.531 244.042
L421.606 238.063
L421.978 189.178
L422.201 212.454
L422.498 257.763
L422.573 262.186
L422.722 234.417
L423.019 167.336
L423.094 164.468
L423.317 192.479
L423.614 265.625
L423.689 263.465
L423.986 211.521
L424.21 220.611
L424.433 188.712
L424.582 171.708
L424.656 172.037
L425.177 249.244
L425.251 246.099
L425.326 237.32
L425.4 237.977
L425.474 242.988
L425.846 212.938
L425.995 195.33
L426.144 199.183
L426.218 198.458
L426.293 194.898
L426.367 195.416
L426.442 194.812
L426.888 288.953
L426.962 287.605
L427.111 263.88
L427.26 239.93
L427.334 245.373
L427.409 240.915
L427.706 143.404
L427.93 74.802
L428.078 116.015
L428.376 193.066
L428.897 309.724
L429.046 276.46
L429.269 181.022
L429.343 183.113
L429.715 254.704
L429.79 252.907
L429.864 248.12
L429.938 248.172
L430.087 259.836
L430.459 151.75
L430.534 161.185
L430.906 297.869
L430.98 286.707
L431.426 152.147
L431.65 123.912
L431.724 125.83
L431.873 145.823
L432.17 211.746
L432.394 197.939
L432.542 241.381
L432.691 268.856
L432.766 268.511
L433.138 250.972
L433.212 252.112
L433.361 271.949
L433.584 217.759
L433.658 218.451
L433.882 247.827
L434.254 210.951
L434.402 170.395
L434.477 176.166
L434.7 216.221
L434.774 214.787
L434.998 197.334
L435.295 146.704
L435.518 182.767
L435.667 178.897
L435.742 174.404
L435.816 176.944
L435.965 207.478
L436.337 304.09
L436.634 207.219
L436.709 208.013
L436.858 220.714
L437.006 198.095
L437.23 164.52
L437.304 167.993
L437.453 206.925
L437.676 281.592
L437.825 271.915
L437.899 274.179
L437.974 276.857
L438.494 210.415
L438.643 177.186
L438.718 177.048
L438.792 178.603
L438.866 178.205
L438.941 175.942
L439.238 202.588
L439.536 174.006
L439.61 176.201
L440.057 239.014
L440.131 233.882
L440.28 219.781
L440.429 241.9
L440.503 241.571
L440.801 201.413
L441.173 243.99
L441.247 242.66
L441.619 195.209
L442.066 244.924
L442.14 246.012
L442.214 243.731
L442.438 209.171
L442.586 192.375
L442.661 193.084
L442.81 202.829
L442.884 202.035
L442.958 200.047
L443.033 201.188
L443.107 200.566
L443.405 183.32
L443.479 186.569
L443.851 230.512
L443.926 227.885
L444.074 211.85
L444.223 226.78
L444.372 244.163
L444.521 238.046
L444.893 181.973
L444.967 183.942
L445.339 271.517
L445.414 272.831
L445.488 276.356
L445.562 266.005
L445.86 185.93
L446.158 193.775
L446.232 195.019
L446.604 233.052
L446.678 231.549
L446.976 184.824
L447.125 193.498
L447.199 191.788
L447.274 191.217
L447.422 197.3
L447.646 191.632
L448.018 247.205
L448.092 238.202
L448.39 187.9
L448.762 215.893
L448.985 190.457
L449.059 195.935
L449.431 256.743
L449.506 252.855
L449.729 208.826
L449.803 215.738
L449.878 237.286
L449.878 237.286" style="fill:none;stroke:#808080;stroke-linecap:square;"/>
   </g>
  </g>
 </g>
 <defs>
  <clipPath id="p7ff5b81e1d">
   <rect height="345.6" width="446.4" x="72.0" y="43.2"/>
  </clipPath>
 </defs>
</svg>
