<?xml version="1.0" encoding="utf-8" standalone="no"?>
<!DOCTYPE svg PUBLIC "-//W3C//DTD SVG 1.1//EN"
  "http://www.w3.org/Graphics/SVG/1.1/DTD/svg11.dtd">
<!-- Created with matplotlib (http://matplotlib.org/) -->
<svg height="432pt" version="1.1" viewBox="0 0 576 432" width="576pt" xmlns="http://www.w3.org/2000/svg" xmlns:xlink="http://www.w3.org/1999/xlink">
 <defs>
  <style type="text/css">
*{stroke-linecap:butt;stroke-linejoin:round;}
  </style>
 </defs>
 <g id="figure_1">
  <g id="patch_1">
   <path d="
M0 432
L576 432
L576 0
L0 0
z
" style="fill:#ffffff;"/>
  </g>
  <g id="axes_1">
   <g id="line2d_1">
    <path clip-path="url(#p7ff5b81e1d)" d="
M72 196.129
L72.0744 201.836
L72.2232 205.934
L72.2976 206.99
L72.744 196.904
L72.8184 198.666
L72.8928 198.37
L72.9672 197.19
L73.0416 198.874
L73.1904 204.043
L73.5624 185.479
L73.6368 183.648
L73.7112 184.763
L73.86 178.775
L74.0832 182.71
L74.3808 196.479
L74.4552 195.902
L74.5296 194.149
L74.604 194.317
L74.7528 196.445
L74.976 189.325
L75.1248 192.836
L75.1992 191.661
L75.4968 187.933
L75.72 179.742
L75.8688 185.706
L75.9432 184.971
L76.092 183.45
L76.3896 190.757
L76.7616 207.188
L76.836 207.588
L76.9848 201.491
L77.0592 205.149
L77.1336 202.606
L77.3568 190.574
L77.5056 185.262
L77.6544 187.257
L77.7288 186.304
L77.952 194.366
L78.1008 193.606
L78.1752 195.082
L78.324 191.424
L78.3984 189.745
L78.5472 191.448
L78.6216 191.666
L78.9936 184.211
L79.2912 172.159
L79.3656 174.702
L79.5888 184.561
L79.6632 184.991
L80.1096 203.446
L80.184 207.045
L80.2584 207.005
L80.3328 206.665
L80.4072 207.065
L80.4816 205.401
L80.7048 198.385
L80.7792 195.867
L80.928 186.037
L81.0024 186.427
L81.3 191.72
L81.3744 192.046
L81.5232 196.163
L81.5976 195.842
L81.8952 185.144
L82.044 176.632
L82.1184 179.051
L82.2672 170.614
L82.3416 172.139
L82.5648 182.453
L82.788 193.487
L83.0112 205.183
L83.0856 205.653
L83.7552 184.902
L83.904 189.419
L83.9784 186.141
L84.0528 186.921
L84.3504 210.407
L84.4248 207.795
L84.7224 198.104
L85.02 179.189
L85.2432 167.246
L85.3176 164.072
L85.4664 173.512
L85.6896 191.651
L85.8384 202.537
L85.9128 202.72
L86.0616 209.385
L86.136 207.696
L86.2104 207.825
L86.2848 210.674
L86.3592 210.506
L87.1032 169.355
L87.1776 171.576
L87.4008 182.186
L87.624 191.977
L87.9216 194.164
L87.996 195.186
L88.0704 197.802
L88.2192 193.379
L88.368 198.676
L88.4424 195.867
L88.5168 196.622
L88.5912 195.423
L88.6656 195.556
L88.74 195.645
L88.9632 192.821
L89.0376 192.307
L89.112 189.276
L89.2608 191.562
L89.4096 190.886
L89.5584 192.663
L89.7072 189.567
L89.7816 193.418
L89.856 192.09
L89.9304 192.085
L90.0792 198.597
L90.1536 198.538
L90.3024 193.828
L90.3768 194.006
L90.4512 195.033
L90.7488 187.054
L90.8976 183.356
L91.0464 185.771
L91.1208 185.331
L91.344 183.198
L91.4928 178.414
L91.5672 180.172
L91.6416 185.065
L91.716 184.497
L91.8648 185.879
L92.1624 195.823
L92.2368 195.497
L92.3112 197.96
L92.46 205.021
L92.6088 204.69
L92.7576 202.271
L92.832 203.115
L93.204 193.487
L93.3528 201.224
L93.4272 199.219
L93.6504 183.914
L93.7248 185.405
L93.8736 181.426
L93.948 178.681
L94.0224 179.022
L94.1712 183.677
L94.2456 183.08
L94.32 181.011
L94.6176 197.956
L94.692 195.61
L94.9896 189.617
L95.1384 183.974
L95.2128 187.015
L95.2872 185.692
L95.3616 185.608
L95.5104 189.266
L95.6592 192.248
L95.7336 192.821
L95.8824 196.988
L95.9568 196.228
L96.0312 196.855
L96.18 201.031
L96.3288 196.825
L96.4032 198.973
L96.4776 198.859
L96.8496 185.79
L96.924 186.314
L97.1472 193.438
L97.296 201.002
L97.668 190.831
L97.8912 182.305
L98.1144 190.52
L98.2632 179.644
L98.4864 191.567
L98.5608 189.992
L98.6352 190.895
L98.784 195.206
L99.0816 190.125
L99.3792 181.219
L99.4536 183.238
L99.528 183.944
L99.6024 181.747
L99.6768 184.127
L99.8256 193.068
L99.9 194.139
L100.123 208.042
L100.272 207.351
L100.346 208.156
L100.421 205.889
L100.644 191.147
L100.793 186.368
L100.867 186.383
L100.942 186.936
L101.165 198.207
L101.239 196.869
L101.388 193.369
L101.537 195.166
L101.611 194.736
L101.983 180.508
L102.206 183.83
L102.355 191.527
L102.504 193.275
L102.578 193.028
L102.653 191.888
L102.802 185.667
L102.876 186.279
L102.95 187.676
L103.174 174.776
L103.248 176.528
L103.843 211.464
L103.992 203.702
L104.066 204.137
L104.438 185.445
L104.513 185.292
L104.587 185.983
L104.736 179.14
L104.81 179.787
L105.331 200.627
L105.48 199.866
L105.629 202.132
L105.703 202.043
L105.926 198.143
L106.001 197.852
L106.15 200.794
L106.522 175.442
L106.894 189.562
L107.042 181.648
L107.191 190.11
L107.34 183.322
L107.414 185.366
L107.489 184.872
L107.563 181.401
L107.638 182.127
L107.712 185.544
L107.786 183.164
L107.861 184.364
L108.01 192.796
L108.084 187.78
L108.158 188.155
L108.382 197.901
L108.456 198.311
L108.679 212.614
L108.754 211.394
L108.902 214.016
L109.126 211.33
L109.795 171.241
L109.944 168.95
L110.167 179.471
L110.39 188.007
L110.762 185.346
L110.837 185.672
L110.911 187.173
L111.06 183.796
L111.804 204.394
L111.878 203.199
L111.953 205.07
L112.027 204.798
L112.399 196.114
L112.548 192.342
L112.846 201.668
L112.92 200.153
L113.069 194.391
L113.218 196.657
L113.292 194.44
L113.515 175.64
L113.59 175.788
L113.664 175.58
L113.738 175.704
L114.036 182.023
L114.185 178.523
L114.259 179.895
L114.78 198.035
L114.929 202.034
L115.003 200.873
L115.152 197.294
L115.226 197.333
L115.45 202.488
L115.524 202.473
L115.822 197.486
L115.896 198.03
L116.194 192.604
L116.342 198.123
L116.417 196.938
L116.64 184.462
L116.938 170.969
L117.086 167.242
L117.458 188.802
L117.83 212.416
L117.979 215.497
L118.277 203.613
L118.723 173.625
L118.946 171.275
L119.021 171.794
L119.095 171.251
L119.467 190.145
L119.69 204.517
L119.914 212.431
L120.062 207.775
L120.137 208.635
L120.806 183.371
L121.03 168.491
L121.104 169.71
L121.476 189.493
L121.699 191.063
L121.922 203.223
L121.997 203.283
L122.071 203.613
L122.294 195.709
L122.592 186.482
L122.666 186.304
L123.038 192.243
L123.262 195.196
L123.336 196.055
L123.782 208.516
L123.857 208.042
L124.006 200.088
L124.378 175.304
L124.75 161.742
L124.824 161.5
L124.973 159.5
L125.196 183.613
L125.642 224.345
L125.717 225.376
L126.014 213.878
L126.312 194.366
L126.386 195.082
L126.535 192.939
L126.684 196.948
L126.907 202.982
L127.056 214.88
L127.205 206.907
L127.428 160.606
L127.726 110.237
L127.8 111.289
L128.023 145.345
L128.618 249.509
L128.693 248.265
L128.99 231.652
L129.065 229.691
L129.66 188.555
L129.809 192.727
L129.958 185.474
L130.032 189.266
L130.255 180.132
L130.85 153.107
L130.925 155.802
L131.074 161.677
L131.818 220.676
L131.892 218.983
L132.041 221.397
L132.859 185.223
L132.934 184.744
L133.082 178.898
L133.157 179.589
L133.306 182.078
L133.38 181.954
L133.826 197.783
L133.975 203.357
L134.05 203.317
L134.198 201.614
L134.719 175.847
L134.794 175.556
L134.942 177.595
L135.017 176.015
L135.166 179.742
L135.24 179.575
L135.389 178.434
L135.761 192.07
L135.91 196.267
L136.505 207.815
L136.654 206.082
L136.728 207.909
L136.802 207.494
L136.877 208.679
L137.1 200.38
L137.546 181.806
L137.621 185.02
L137.695 184.443
L137.77 182.339
L137.993 186.388
L138.514 168.659
L138.588 170.465
L139.332 209.321
L139.406 208.585
L139.555 207.652
L139.927 198.528
L140.15 188.224
L140.522 178.414
L140.671 184.388
L140.969 175.965
L141.118 184.581
L141.564 201.999
L141.936 197.166
L142.457 208.511
L142.606 197.97
L142.68 196.662
L142.829 181.9
L142.978 173.921
L143.052 174.252
L143.201 179.545
L143.35 175.462
L143.424 176.415
L143.722 196.677
L143.945 208.649
L144.242 193.823
L144.317 192.352
L144.614 176.351
L144.689 177.619
L145.061 197.773
L145.358 205.84
L145.805 172.751
L145.879 172.105
L145.954 170.154
L146.474 201.288
L146.549 200.908
L146.772 205.495
L146.921 202.927
L146.995 203.332
L147.144 199.106
L147.218 199.145
L147.367 196.346
L147.516 198.153
L148.037 183.045
L148.334 169.068
L148.409 169.853
L148.558 176.913
L149.078 192.056
L149.153 190.905
L149.302 198.958
L149.376 194.233
L149.45 196.504
L149.971 207.025
L150.046 207.208
L150.12 207.109
L150.194 207.119
L150.269 206.131
L151.236 166.343
L151.385 176.558
L151.459 176.202
L151.534 174.795
L151.682 183.07
L151.906 190.229
L152.426 207.854
L152.501 205.322
L152.575 206.531
L152.65 206.393
L153.022 197.753
L153.096 198.513
L153.245 197.304
L153.542 189.809
L153.691 192.801
L154.063 180.226
L154.138 179.757
L154.286 176.02
L154.361 176.859
L154.584 183.48
L154.658 182.3
L154.733 181.683
L155.179 193.137
L155.328 193.937
L155.477 197.719
L155.774 191.384
L155.849 193.236
L156.072 208.501
L156.146 209.069
L156.37 201.762
L156.518 195.344
L156.742 182.433
L156.816 180.266
L156.965 172.435
L157.039 171.547
L157.188 177.54
L157.634 195.936
L157.709 194.564
L157.783 196.43
L158.155 214.633
L158.304 220.173
L158.378 220.745
L158.676 208.773
L159.048 186.146
L159.718 149.868
L159.866 149.621
L159.941 149.957
L160.015 151.754
L160.387 183.924
L160.834 231.735
L160.908 230.16
L161.131 212.293
L161.28 227.751
L161.578 255.379
L161.726 251.415
L161.875 240.884
L162.098 195.64
L162.545 89.8222
L162.619 88.0053
L162.768 103.113
L163.586 242.745
L163.735 234.362
L164.405 189.819
L164.628 183.302
L164.702 183.031
L165.298 191.004
L165.446 193.295
L165.595 184.487
L165.818 172.998
L165.893 172.786
L166.711 210.965
L166.786 210.185
L167.232 183.174
L167.306 183.717
L167.381 184.235
L167.976 199.565
L168.274 182.833
L168.72 164.64
L168.869 160.779
L169.018 169.789
L169.762 244.251
L169.836 243.861
L170.282 200.33
L170.729 142.383
L170.878 139.332
L170.952 141.43
L171.324 179.821
L171.696 207.168
L171.77 210.397
L171.845 210.135
L172.217 201.816
L172.291 201.757
L172.366 203.09
L172.44 201.555
L172.514 203.697
L172.589 203.633
L172.738 197.106
L172.886 200.325
L173.035 193.433
L173.184 194.722
L173.258 194.258
L173.407 187.642
L173.556 187.889
L173.63 188.052
L173.705 184.65
L173.779 184.734
L173.854 183.682
L174.002 186.195
L174.226 176.173
L174.3 177.57
L174.523 185.163
L174.598 182.71
L174.672 183.909
L174.746 185.203
L174.97 192.989
L175.193 199.377
L175.267 199.279
L175.416 192.722
L175.49 193.359
L175.565 195.299
L175.639 194.435
L175.714 196.03
L175.788 195.285
L175.937 196.307
L176.16 200.819
L176.458 194.959
L176.755 190.866
L176.978 202.083
L177.202 197.472
L177.35 189.829
L177.425 191.611
L177.574 186.674
L177.797 191.527
L178.02 183.658
L178.169 173.487
L178.541 182.892
L178.615 182.976
L178.987 187
L179.062 185.43
L179.21 173.556
L179.285 175.353
L179.657 194.929
L179.88 200.039
L179.954 197.254
L180.029 198.449
L180.178 202.735
L180.252 202.053
L180.401 208.353
L180.624 225.209
L180.773 221.669
L180.847 220.721
L181.219 190.604
L181.591 159.322
L181.666 159.52
L181.74 158.621
L181.889 153.427
L181.963 156.177
L182.633 228.161
L182.707 225.11
L182.93 202.058
L183.526 111.249
L183.6 121.578
L184.121 239.329
L184.418 274.506
L184.493 273.884
L184.642 256.984
L185.237 143.622
L185.386 149.142
L185.46 154.736
L185.534 154.331
L185.683 149.942
L185.758 151.971
L186.055 182.739
L186.353 207.425
L186.427 206.477
L186.874 182.433
L186.948 183.263
L187.097 191.829
L187.32 216.791
L187.543 238.435
L187.692 228.225
L187.99 190.945
L188.362 133.95
L188.436 132.79
L188.51 137.5
L189.18 242.977
L189.254 243.274
L189.478 237.221
L189.701 202.508
L190.222 120.551
L190.37 114.123
L190.445 115.451
L190.594 146.97
L190.891 214.283
L190.966 211.962
L191.114 202.295
L191.486 239.946
L191.561 239.827
L191.635 238.613
L191.858 221.807
L192.082 195.428
L192.379 149.586
L192.528 166.985
L192.826 214.628
L192.9 218.464
L192.974 217.793
L193.198 193.216
L193.421 171.591
L193.495 170.357
L193.57 170.88
L193.793 176.785
L193.942 181.841
L194.09 184.23
L194.314 193.833
L194.76 173.428
L194.834 174.287
L195.281 215.472
L195.355 214.994
L195.504 209.992
L196.025 168.51
L196.099 165.43
L196.174 168.604
L196.397 204.384
L196.694 238.006
L196.918 225.115
L197.215 168.219
L197.513 126.564
L197.587 128.944
L197.885 171.339
L198.257 233.592
L198.331 236.643
L198.554 222.715
L199.298 174.756
L199.67 163.825
L199.745 165.331
L199.894 181.085
L200.266 222.528
L200.34 222.286
L200.489 218.074
L200.786 194.49
L201.01 182.527
L201.084 181.712
L201.158 182.231
L201.233 182.033
L201.456 178.049
L201.679 172.707
L201.902 164.264
L201.977 162.803
L202.051 165.252
L202.2 184.359
L202.498 218.78
L202.646 225.268
L202.721 225.89
L202.795 225.292
L203.167 212.787
L203.39 178.829
L203.688 143.686
L203.762 142.906
L203.911 147.335
L204.06 167.567
L204.506 248.927
L204.581 249.899
L204.953 191.572
L205.027 191.606
L205.102 192.623
L205.548 161.904
L205.771 172.9
L205.994 161.273
L206.069 161.435
L206.218 166.422
L206.366 185.598
L206.59 216.885
L206.962 252.812
L207.11 247.47
L207.259 222.241
L207.631 89.2001
L207.706 92.4093
L208.152 208.778
L208.375 196.489
L208.45 197.501
L208.896 238.554
L208.97 241.077
L209.045 238.549
L209.194 220.884
L209.714 130.011
L209.789 132.138
L210.012 159.856
L210.31 201.723
L210.682 219.595
L210.756 219.175
L210.905 220.656
L210.979 217.857
L211.277 177.076
L211.5 148.91
L211.574 146.989
L211.649 147.725
L211.798 160.804
L212.021 204.532
L212.318 263.787
L212.393 260.43
L212.616 220.943
L213.062 135.101
L213.137 132.607
L213.211 135.836
L213.658 177.234
L213.806 191.044
L214.178 237.314
L214.253 237.996
L214.402 208.714
L214.625 158.31
L214.699 159.836
L215.071 227.499
L215.146 226.497
L215.592 185.702
L215.666 185.386
L215.815 187.054
L216.262 155.926
L216.485 151.645
L216.559 152.03
L216.634 156.148
L216.857 205.193
L217.154 264.79
L217.229 264.074
L217.452 233.562
L217.75 192.752
L218.122 155.447
L218.196 152.42
L218.27 152.43
L218.717 181.164
L218.791 179.772
L219.238 154.992
L219.386 164.388
L219.61 201.851
L219.982 276.244
L220.056 278.09
L220.205 266.36
L220.502 211.335
L220.874 152.899
L221.321 127.315
L221.395 128.426
L221.544 139.134
L222.065 192.228
L222.214 201.826
L222.734 248.309
L222.809 248.867
L222.883 247.233
L223.106 226.068
L223.553 170.199
L223.627 169.863
L223.702 170.061
L223.776 170.011
L224.074 160.275
L224.148 160.843
L224.222 159.238
L224.371 164.126
L224.892 190.678
L225.041 198.094
L225.338 225.283
L225.413 224.661
L225.562 216.766
L226.008 186.867
L226.082 185.573
L226.306 191.942
L226.38 191.814
L226.454 192.006
L226.752 181.865
L226.975 170.125
L227.05 168.476
L227.198 169.824
L227.273 168.782
L227.347 165.514
L227.496 178.395
L227.719 204.956
L227.942 229.242
L228.091 233.473
L228.166 231.671
L229.058 156.089
L229.282 172.969
L229.654 209.331
L229.728 211.172
L229.802 210.466
L229.951 204.216
L230.323 177.417
L230.546 171.789
L230.621 172.44
L231.216 200.617
L231.514 229.06
L231.588 229.884
L231.662 228.082
L231.96 200.276
L232.332 153.521
L232.481 157.984
L232.63 166.052
L233.076 198.321
L233.15 199.95
L233.448 195.704
L233.746 175.067
L233.82 177.126
L234.118 210.061
L234.415 229.998
L234.49 231.375
L234.638 223.426
L235.308 149.068
L235.382 152.01
L235.606 168.007
L236.201 204.828
L236.275 206.284
L236.722 197.136
L236.796 198.341
L237.019 205.939
L237.168 205.964
L237.317 201.165
L237.614 180.073
L237.763 179.377
L237.912 185.455
L238.21 194.781
L238.284 193.636
L238.433 188.15
L238.507 189.39
L238.73 212.263
L238.805 209.795
L239.326 155.042
L239.4 156.444
L239.698 181.288
L240.07 215.996
L240.218 213.651
L240.367 216.223
L240.516 209.973
L240.814 196.697
L240.888 194.973
L241.111 202.221
L241.186 201.545
L241.334 195.359
L241.632 166.698
L241.781 156.953
L241.855 158.078
L242.078 175.195
L242.302 188.496
L242.376 188.837
L242.525 199.822
L242.674 209.548
L242.822 204.892
L243.12 216.44
L243.194 215.191
L243.715 178.518
L243.864 175.156
L243.938 175.97
L244.013 178.548
L244.087 177.511
L244.162 176.973
L244.236 177.353
L244.31 176.681
L244.385 177.521
L244.534 184.418
L244.757 198.79
L245.054 208.541
L245.501 198.054
L246.096 163.307
L246.17 164.867
L246.394 179.412
L246.617 195.482
L246.84 199.096
L246.914 199.135
L246.989 200.162
L247.212 211.863
L247.361 220.232
L247.435 219.694
L247.584 209.074
L247.882 190.634
L248.03 184.294
L248.328 170.821
L248.402 171.236
L248.551 165.597
L248.7 172.574
L248.923 187.262
L248.998 187.583
L249.295 197.131
L249.518 207.065
L249.667 205.223
L249.742 206.235
L249.816 205.44
L249.89 208.082
L249.965 207.558
L250.262 189.35
L250.337 190.604
L250.486 186.758
L250.56 187.439
L250.709 195.324
L250.783 195.457
L250.858 194.662
L250.932 196.445
L251.304 184.857
L251.453 187.375
L251.602 181.54
L251.899 166.496
L252.197 179.027
L252.494 194.909
L252.569 196.173
L252.792 207.129
L252.941 204.018
L253.238 208.886
L253.462 199.244
L253.61 198.943
L253.982 193.107
L254.206 191.582
L254.354 190.007
L254.429 191.409
L254.503 190.871
L254.726 187.637
L254.801 187.118
L254.875 187.454
L254.95 190.026
L255.024 189.962
L255.322 175.338
L255.396 176.795
L255.47 178.785
L255.619 175.773
L255.768 180.123
L256.289 202.147
L256.363 202.463
L256.586 196.642
L256.735 192.051
L256.81 192.337
L256.958 196.514
L257.182 193.359
L257.256 193.808
L257.33 194.356
L257.554 188.639
L257.628 188.93
L257.777 190.579
L257.926 186.877
L258.372 197.19
L258.446 196.874
L258.595 200.656
L258.744 198.953
L259.339 185.316
L259.414 181.367
L259.488 182.522
L259.934 187.43
L260.158 197.516
L260.381 196.835
L260.53 193.265
L260.604 190.619
L260.753 177.012
L260.827 179.555
L261.05 183.845
L261.199 187.597
L261.274 187.262
L261.348 185.889
L261.422 186.906
L261.497 185.943
L261.646 196.168
L261.72 200.646
L261.794 200.464
L261.869 200.745
L262.018 203.001
L262.315 197.931
L262.39 199.55
L262.538 205.124
L262.762 196.884
L263.282 173.936
L263.506 169.838
L263.58 170.485
L263.803 180.108
L264.101 204.3
L264.324 216.786
L264.473 213.221
L264.547 213.996
L264.77 203.929
L265.217 172.036
L265.44 163.391
L265.514 160.981
L265.663 164.975
L265.886 175.862
L266.333 210.249
L266.705 216.603
L266.779 215.24
L267.3 183.342
L267.374 184.132
L267.449 185.627
L267.523 185.524
L267.598 184.828
L267.895 191.799
L268.044 190.091
L268.193 193.769
L268.49 177.387
L268.565 178.148
L268.639 177.995
L268.714 178.962
L268.862 184.887
L269.086 180.202
L269.458 192.89
L269.532 192.283
L269.606 191.893
L269.904 203.431
L269.978 202.231
L270.053 202.833
L270.202 209.632
L270.276 209.015
L270.35 207.415
L270.574 210.397
L271.02 191.355
L271.392 157.234
L271.615 142.635
L271.764 160.206
L272.21 213.547
L272.582 227.425
L272.657 225.046
L272.954 208.141
L273.029 207.721
L273.401 190.703
L273.624 171.724
L273.996 159.89
L274.07 159.949
L274.219 170.426
L274.666 202.853
L274.74 206.097
L274.814 205.628
L274.963 204.27
L275.261 191.942
L275.41 182.512
L275.633 168.16
L275.707 168.501
L275.856 180.355
L276.302 219.985
L276.451 223.643
L276.749 218.069
L276.972 205.549
L277.418 171.863
L277.716 160.078
L277.865 160.636
L278.014 168.792
L278.534 197.625
L278.683 199.96
L278.832 196.074
L278.981 188.916
L279.055 189.207
L279.13 188.97
L279.204 189.804
L279.576 208.625
L279.725 215.788
L279.874 211.523
L280.618 178.429
L280.692 178.948
L280.915 186.511
L280.99 186.62
L281.213 182.724
L281.287 182.966
L281.362 182.833
L281.436 182.418
L281.51 183.223
L281.659 190.723
L281.808 197.719
L281.957 198
L282.031 199.437
L282.106 199.308
L282.18 198.035
L282.254 199.95
L282.329 199.022
L282.478 196.03
L282.552 196.124
L282.85 186.551
L282.924 186.891
L283.37 178.528
L283.817 190.678
L284.114 200.982
L284.189 200.873
L284.263 200.291
L284.412 203.075
L284.486 202.197
L284.858 188.195
L284.933 187.568
L285.007 188.081
L285.379 201.328
L285.454 200.34
L285.677 191.108
L285.9 181.934
L285.974 182.828
L286.272 194.519
L286.346 194.169
L286.867 178.933
L286.942 178.997
L287.165 185.425
L287.462 197.96
L287.611 208.432
L287.686 207.854
L287.76 207.815
L287.834 209.099
L287.983 202.71
L288.504 182.843
L288.653 181.742
L288.727 181.796
L289.174 194.06
L289.248 194.203
L289.322 193.917
L289.471 190.135
L289.546 190.525
L289.62 190.525
L290.066 183.707
L290.215 186.965
L290.438 197.072
L290.513 203.209
L290.587 203.09
L290.736 198.706
L290.81 201.871
L290.885 199.782
L291.034 189.355
L291.257 190.441
L291.406 183.332
L291.554 189.162
L292.075 169.157
L292.15 168.056
L292.819 211.404
L293.117 233.616
L293.34 223.461
L293.786 182.507
L294.084 171.379
L294.158 168.357
L294.233 168.979
L294.307 169.587
L294.456 166.536
L294.53 167.617
L294.902 186.23
L295.349 195.013
L295.646 191.666
L296.093 205.04
L296.316 212.648
L296.39 211.567
L296.465 211.143
L296.614 204.705
L296.837 192.085
L297.06 184.285
L297.134 185.736
L297.358 179.11
L297.73 193.078
L298.027 197.516
L298.176 190.352
L298.399 171.922
L298.548 157.802
L298.622 158.231
L298.846 168.994
L299.59 222.37
L299.738 216.692
L299.887 206.201
L300.11 183.835
L300.259 180.557
L300.334 181.801
L300.557 196.287
L300.706 196.938
L300.929 204.453
L301.003 203.673
L301.301 186.309
L301.524 175.373
L301.747 180.621
L301.822 180.206
L301.896 181.307
L302.045 186.561
L302.119 186.027
L302.268 185.534
L302.417 180.947
L302.714 172.386
L302.789 174.262
L302.863 173.023
L302.938 175.842
L303.31 208.768
L303.384 208.862
L303.533 216.529
L303.607 215.892
L303.682 214.495
L303.756 215.25
L303.905 212.12
L304.054 215.092
L304.351 200.503
L304.426 200.044
L305.095 177.59
L305.318 166.659
L305.616 158.389
L306.062 183.006
L306.434 205.638
L306.509 206.665
L306.583 206.304
L306.732 208.175
L306.955 211.745
L307.253 217.916
L307.327 216.174
L307.922 174.993
L308.146 168.456
L308.369 176.059
L308.518 182.428
L308.592 182.196
L308.741 188.619
L309.038 205.203
L309.187 204.147
L309.485 195.097
L309.782 186.956
L309.857 187.933
L309.931 187.652
L310.08 186.595
L310.229 190.288
L310.303 189.977
L310.601 182.448
L310.675 181.673
L310.898 188.136
L311.047 183.835
L311.122 184.117
L311.196 185.326
L311.345 194.588
L311.494 190.886
L311.568 191.295
L311.791 200.276
L311.94 195.625
L312.163 189.251
L312.312 190.594
L312.386 189.883
L312.461 190.881
L312.758 203.534
L312.982 209.104
L313.205 197.452
L313.502 182.102
L313.577 182.418
L313.651 182.645
L313.726 182.487
L313.8 182.626
L313.874 183.203
L314.098 196.716
L314.246 187.494
L314.395 177.6
L314.47 177.94
L314.618 180.838
L314.842 176.968
L315.214 191.364
L315.511 219.501
L315.66 222.849
L315.734 222.967
L315.883 216.652
L316.33 173.926
L316.404 172.712
L316.627 162.532
L316.702 164.403
L316.776 166.521
L316.999 153.684
L317.074 159.219
L317.52 222.261
L317.669 241.22
L317.743 241.086
L317.966 236.218
L318.041 236.366
L318.19 220.42
L318.71 160.878
L318.785 157.975
L318.859 158.444
L319.008 166.575
L319.231 160.774
L319.306 159.841
L319.603 144.521
L320.496 235.409
L320.645 237.739
L320.719 235.27
L321.314 181.599
L321.389 182.107
L321.612 187.163
L321.686 186.649
L321.761 184.467
L321.984 166.318
L322.058 170.006
L322.282 189.409
L322.356 191.083
L322.43 190.866
L322.505 189.167
L322.877 199.98
L322.951 198.573
L323.398 167.651
L323.546 158.922
L323.844 179.481
L323.918 177.639
L323.993 178.987
L324.216 210.096
L324.439 234.614
L324.588 237.161
L324.662 233.774
L324.737 235.256
L324.811 234.964
L324.96 215.334
L325.109 195.556
L325.258 193.112
L325.406 186.215
L325.704 153.58
L325.927 160.241
L326.002 158.71
L326.076 159.179
L326.374 184.403
L326.448 180.676
L326.522 177.906
L326.597 180.251
L326.82 212.935
L326.894 212.204
L327.192 189.76
L327.415 206.813
L327.49 205.233
L327.713 197.052
L327.936 187.217
L328.085 183.095
L328.159 185.479
L328.382 212.486
L328.457 208.541
L328.68 187.059
L328.754 187.064
L328.978 200.123
L329.126 188.99
L329.35 198.133
L329.573 184.596
L329.647 185.307
L329.796 186.19
L329.945 175.487
L330.094 166.55
L330.391 191.019
L330.466 188.669
L330.54 189.646
L330.763 213.32
L330.838 213.053
L330.912 208.338
L330.986 210.313
L331.135 219.852
L331.21 216.662
L331.358 189.074
L331.582 151.892
L331.805 178.153
L331.879 176.41
L331.954 171.882
L332.177 182.942
L332.251 181.49
L332.326 177.239
L332.4 178.503
L332.698 222.231
L332.921 195.783
L333.218 216.154
L333.293 211.74
L333.442 199.787
L333.59 200.938
L333.814 173.877
L333.888 173.946
L334.037 187.257
L334.111 186.116
L334.26 178.444
L334.334 179.16
L334.632 204.127
L335.004 190.431
L335.153 174.637
L335.227 176.642
L335.45 196.968
L335.599 179.268
L335.674 170.925
L335.748 171.29
L336.046 196.78
L336.492 184.64
L336.566 186.25
L336.864 205.608
L337.013 192.199
L337.087 194.761
L337.31 213.656
L337.385 212.584
L337.682 194.416
L337.906 170.243
L338.054 178.646
L338.203 188.669
L338.426 168.861
L338.724 199.98
L339.17 183.677
L339.319 177.674
L339.617 196.099
L339.691 193.517
L339.766 189.498
L339.914 202.873
L340.138 218.351
L340.212 218.637
L340.286 219.778
L340.361 217.23
L340.658 180.809
L340.807 181.253
L340.956 177.002
L341.179 159.949
L341.328 171.038
L341.551 185.228
L341.774 191.251
L341.923 185.874
L341.998 188.624
L342.221 218.336
L342.295 216.104
L342.518 198.301
L342.742 213.952
L342.816 213.661
L343.114 188.333
L343.337 167.523
L343.634 184.324
L343.858 166.758
L344.006 177.481
L344.23 198.365
L344.304 197.921
L344.378 199.071
L344.453 202.814
L344.602 195.329
L344.676 197.052
L344.974 217.625
L345.122 203.288
L345.271 193.374
L345.494 195.808
L345.792 177.407
L346.015 164.561
L346.09 166.684
L346.387 193.828
L346.61 178.834
L346.685 179.895
L346.759 183.218
L346.982 200.982
L347.354 185.736
L347.429 189.395
L347.726 221.259
L348.098 190.387
L348.322 201.204
L348.396 199.091
L348.545 184.768
L348.768 167.582
L349.066 193.917
L349.14 191.774
L349.363 177.911
L349.512 184.734
L349.735 197.304
L349.884 188.101
L350.033 174.129
L350.107 174.336
L350.33 203.041
L350.479 212.392
L350.554 210.511
L350.851 182.67
L351 196.188
L351.149 207.114
L351.223 205.657
L351.372 200.083
L351.521 200.765
L351.893 219.012
L352.042 197.832
L352.265 165.834
L352.562 175.393
L352.711 167.202
L352.934 153.862
L353.083 165.607
L353.306 179.431
L353.381 183.233
L353.455 183.198
L353.604 167.918
L353.678 170.905
L354.274 235.093
L354.646 243.051
L354.72 241.126
L354.794 236.169
L355.241 165.775
L355.39 167.849
L355.464 167.395
L355.538 168.15
L355.687 175.329
L355.762 173.571
L355.836 171.374
L355.91 171.408
L355.985 174.154
L356.282 197.669
L356.357 198.563
L356.729 167.316
L356.803 166.98
L357.026 183.653
L357.175 192.589
L357.324 186.936
L357.398 187.77
L357.622 196.213
L357.845 213.113
L357.919 212.441
L357.994 212.801
L358.068 210.323
L358.291 192.441
L358.366 191.616
L358.514 189.064
L358.663 190.165
L358.886 180.646
L358.961 181.1
L359.035 182.724
L359.11 181.678
L359.854 206.995
L359.928 210.042
L360.077 206.438
L360.226 213.937
L360.821 181.09
L360.895 181.885
L361.044 189.335
L361.193 196.292
L361.267 195.354
L361.49 178.592
L361.788 164.141
L362.086 169.118
L362.16 168.663
L362.309 164.131
L362.383 164.042
L362.606 183.756
L362.904 213.789
L363.053 222.049
L363.202 218.835
L363.425 227.702
L363.499 225.939
L363.574 229.04
L363.648 229.005
L364.318 170.406
L364.466 165.627
L364.615 170.095
L364.69 166.624
L364.764 167.217
L364.913 173.299
L364.987 172.031
L365.062 172.416
L365.136 172.381
L365.21 173.299
L365.731 207.948
L366.103 182.527
L366.326 193.808
L366.401 199.165
L366.475 199.071
L366.55 195.546
L366.698 199.392
L366.922 193.695
L366.996 193.932
L367.145 198.592
L367.219 198.311
L367.294 197.644
L367.368 198.025
L367.74 194.119
L367.814 195.734
L368.261 186.363
L368.41 188.669
L368.633 177.743
L368.707 175.768
L368.856 183.322
L369.451 204.048
L369.526 204.779
L369.6 204.537
L369.674 203.174
L369.749 204.779
L369.823 204.142
L370.418 165.889
L371.311 209.459
L371.758 191.478
L372.055 180.241
L372.13 180.685
L372.502 191.631
L372.576 193.492
L372.65 192.13
L372.725 192.441
L372.874 192.554
L373.246 202.34
L373.469 197.111
L373.766 183.425
L373.841 183.49
L373.915 182.438
L373.99 183.203
L374.213 193.581
L374.287 195.788
L374.362 194.727
L374.436 195.763
L374.51 194.297
L374.734 183.593
L375.031 186.837
L375.254 200.439
L375.329 203.406
L375.403 202.848
L375.478 204.176
L375.552 203.362
L375.775 190.713
L376.147 169.863
L376.519 186.64
L376.742 206.398
L376.891 213.004
L377.04 208.106
L377.486 185.01
L377.635 179.989
L377.71 180.957
L377.858 178.567
L378.007 182.981
L378.23 193.843
L378.528 203.885
L378.602 203.865
L378.677 202.389
L378.974 187.745
L379.049 186.546
L379.198 190.145
L379.793 171.641
L380.611 206.507
L380.76 209.262
L381.058 200.473
L381.281 196.929
L381.504 188.619
L381.653 179.027
L381.727 180.982
L381.876 189.093
L382.025 185.682
L382.099 187.706
L382.248 185.213
L382.322 189.947
L382.471 183.411
L382.546 185.03
L382.694 195.62
L382.769 194.574
L382.843 195.413
L382.918 198.681
L382.992 198.405
L383.29 189.464
L383.364 190.728
L383.513 188.279
L383.885 179.579
L383.959 178.819
L384.034 181.752
L384.257 198.839
L384.406 197.96
L384.48 201.328
L384.554 200.503
L384.852 187.454
L384.926 190.876
L385.075 187.479
L385.373 200.681
L385.522 204.458
L385.596 203.406
L385.745 204.685
L386.117 190.412
L386.34 176.286
L386.563 166.545
L386.861 183.213
L387.084 194.835
L387.158 191.132
L387.233 192.381
L387.382 193.004
L387.53 197.941
L387.605 196.825
L387.754 202.794
L387.902 202.424
L388.423 188.121
L388.498 187.499
L388.572 190.491
L388.646 189.464
L388.721 188.679
L388.795 191.113
L388.87 198.123
L388.944 195.413
L389.018 190.723
L389.093 192.115
L389.316 196.42
L389.465 202.33
L389.837 185.721
L390.06 173.462
L390.209 181.91
L390.283 181.47
L390.358 179.342
L390.432 180.424
L390.506 184.285
L390.581 183.969
L390.655 181.855
L391.027 200.039
L391.102 197.788
L391.25 202.942
L391.474 189.133
L391.622 189.572
L391.697 189.158
L391.771 189.543
L391.846 189.434
L392.218 203.757
L392.515 195.902
L392.59 195.694
L392.738 197.072
L392.813 195.862
L393.036 185.706
L393.334 182.818
L393.482 190.881
L393.557 190.091
L393.631 189.987
L393.854 179.575
L394.078 190.663
L394.375 202.986
L394.45 201.925
L394.524 202.73
L394.598 201.772
L395.119 175.679
L395.268 185.01
L395.342 184.655
L395.417 181.564
L395.566 193.853
L395.714 181.258
L395.789 183.618
L395.938 195.082
L396.012 188.935
L396.235 203.317
L396.31 202.478
L396.384 198.997
L396.533 207.366
L396.607 207.267
L396.682 206.487
L396.756 207.588
L396.83 205.564
L396.905 208.921
L396.979 206.823
L397.426 165.518
L397.574 169.888
L397.649 169.853
L397.723 169.241
L397.798 169.972
L398.17 197.753
L398.244 197.363
L398.393 199.55
L398.542 194.781
L398.69 197.062
L398.765 195.531
L398.914 198.271
L399.062 193.478
L399.211 197.99
L399.286 197.496
L399.36 197.521
L399.509 203.13
L399.583 202.557
L399.732 197.625
L400.327 177.402
L400.55 182.522
L400.625 182.483
L400.699 180.409
L400.848 189.903
L401.146 202.532
L401.22 202.685
L401.294 204.739
L401.369 203.939
L401.815 188.155
L401.89 187.948
L401.964 193.779
L402.038 193.166
L402.113 187.43
L402.187 188.229
L402.262 192.258
L402.336 189.686
L402.559 176.583
L402.708 173.956
L402.782 174.312
L403.154 192.772
L403.303 192.618
L403.452 196.203
L403.526 194.425
L403.75 201.688
L403.824 201.066
L403.973 207.089
L404.122 200.093
L404.196 206.403
L404.27 203.989
L404.345 196.795
L404.494 205.361
L404.568 204.754
L405.014 184.235
L405.163 172.021
L405.238 172.06
L405.386 173.502
L405.758 191.745
L405.907 183.633
L406.13 196.657
L406.205 195.265
L406.354 201.199
L406.726 186.625
L406.874 187.617
L406.949 183.959
L407.098 186.136
L407.172 186.778
L407.321 193.478
L407.395 192.248
L407.47 188.763
L407.618 199.486
L407.693 206.21
L407.767 203.767
L407.842 199.535
L407.916 200.849
L407.99 202.043
L408.065 199.313
L408.139 200.651
L408.362 194.973
L408.586 178.849
L408.66 179.219
L409.106 186.062
L409.33 192.974
L409.478 190.318
L409.702 197.516
L409.776 196.153
L409.85 196.924
L409.999 195.709
L410.148 190.678
L410.371 199.985
L410.446 194.065
L410.52 196.326
L410.594 199.93
L410.669 199.185
L410.966 186.985
L411.041 185.499
L411.19 173.739
L411.562 194.258
L411.71 203.579
L411.859 198.869
L412.008 204.591
L412.529 174.869
L412.603 175.822
L412.752 180.355
L412.826 180.29
L412.901 181.238
L413.124 191.636
L413.198 193.285
L413.347 191.31
L413.422 193.245
L413.496 192.811
L413.645 188.057
L413.794 190.752
L413.868 189.533
L413.942 190.002
L414.24 206.117
L414.314 207.479
L414.463 204.65
L414.538 206.467
L414.835 197.432
L415.207 175.427
L415.282 175.645
L415.356 173.724
L415.43 174.445
L415.728 195.393
L415.877 195.393
L415.951 195.077
L416.472 186.008
L416.546 187.291
L416.621 189.943
L416.695 188.99
L416.77 188.516
L417.142 203.421
L417.216 203.534
L417.365 205.095
L417.662 185.43
L417.886 168.851
L417.96 171.112
L418.109 178.488
L418.183 178.898
L418.63 204.176
L418.704 205.035
L418.778 204.211
L418.853 204.265
L419.002 207.608
L419.374 195.097
L419.448 196.938
L419.82 180.908
L419.894 181.974
L420.043 174.934
L420.118 176.81
L420.192 178.646
L420.415 173.665
L420.862 192.648
L421.01 202.384
L421.085 201.387
L421.234 205.455
L421.308 205.149
L421.382 204.458
L421.606 208.274
L421.68 206.837
L421.754 209.03
L421.829 206.709
L422.126 188.264
L422.275 176.4
L422.35 176.983
L422.424 178.019
L422.573 176.044
L422.87 185.228
L423.019 193.127
L423.094 192.633
L423.168 195.699
L423.391 211.528
L423.466 212.55
L423.54 211.034
L423.986 178.449
L424.061 178.39
L424.21 173.655
L424.284 169.399
L424.358 170.505
L424.507 178.632
L424.582 178.261
L424.73 180.942
L424.954 198.573
L425.251 209.76
L425.326 206.235
L425.474 194.312
L425.549 195.487
L425.698 183.435
L425.772 183.658
L426.07 190.56
L426.218 195.423
L426.293 193.305
L426.367 193.991
L426.516 199.437
L426.665 197.536
L426.739 200.024
L427.111 181.105
L427.186 181.307
L427.26 180.206
L427.409 190.742
L427.483 187.824
L427.632 199.797
L427.706 198.913
L427.781 196.07
L427.93 200.301
L428.078 192.026
L428.153 195.102
L428.227 193.576
L428.376 186.63
L428.45 188.832
L428.599 187.114
L428.748 191.898
L428.897 188.772
L429.194 196.336
L429.269 196.292
L429.566 184.823
L429.641 184.635
L429.79 179.298
L429.864 178.962
L429.938 179.298
L430.013 180.972
L430.236 194.381
L430.385 188.619
L430.534 194.233
L430.608 191.868
L430.98 206.63
L431.054 203.293
L431.426 186.501
L431.575 197.042
L431.724 188.21
L431.873 197.309
L432.022 195.097
L432.096 195.902
L432.245 191.824
L432.319 198.089
L432.394 195.23
L432.468 186.472
L432.542 187.232
L432.617 192.283
L432.989 181.569
L433.063 180.977
L433.138 181.49
L433.212 180.863
L433.286 178.74
L433.361 179.031
L433.435 181.184
L433.51 180.868
L433.584 177.985
L433.658 178.849
L433.733 189.138
L433.807 188.891
L433.882 186.812
L434.03 201.584
L434.105 201.12
L434.179 199.609
L434.328 210.614
L434.477 206.196
L434.551 205.998
L434.626 209.331
L434.774 188.333
L434.849 189.088
L434.998 183.974
L435.146 187.736
L435.221 185.598
L435.295 186.842
L435.444 182.774
L435.816 197.491
L435.89 197.032
L436.039 193.374
L436.114 192.875
L436.188 191.552
L436.262 193.142
L436.337 191.799
L436.486 186.333
L436.56 187.178
L436.709 182.448
L437.006 200.212
L437.23 184.324
L437.304 186.19
L437.453 183.075
L437.527 184.057
L437.602 186.842
L437.676 186.477
L437.75 185.731
L437.825 186.408
L437.974 195.887
L438.122 190.357
L438.197 191.532
L438.42 199.387
L438.494 196.119
L438.643 202.68
L438.941 191.903
L439.015 193.423
L439.09 196.277
L439.238 189.079
L439.462 197.916
L439.61 195.566
L439.685 197.684
L439.759 194.801
L439.982 179.407
L440.131 178.36
L440.28 179.402
L440.503 171.339
L440.726 187.094
L441.024 214.727
L441.173 217.798
L441.322 214.016
L441.47 217.057
L441.545 206.319
L441.842 105.35
L441.991 146.496
L442.289 247.401
L442.363 253.326
L442.438 251.074
L442.958 189.557
L443.256 133.555
L443.33 138.507
L443.554 221.224
L443.702 269.791
L443.777 268.246
L444 182.463
L444.298 60.5598
L444.446 92.0785
L445.19 353.11
L445.265 353.11
L445.339 340.214
L445.711 70.2958
L445.786 77.6472
L446.455 234.782
L446.53 236.075
L446.678 224.631
L447.348 157.91
L447.422 155.57
L447.497 155.664
L447.571 155.536
L447.72 152.45
L447.794 153.383
L447.943 161.095
L448.166 194.075
L448.464 226.443
L448.538 227.499
L448.613 227.025
L448.687 225.554
L448.762 225.564
L448.836 225.653
L448.985 222.059
L449.134 213.868
L449.431 196.02
L449.58 199.748
L449.654 199.338
L449.803 183.233
L449.878 171.339
L449.878 171.339" style="fill:none;stroke:#808080;stroke-linecap:square;"/>
   </g>
  </g>
 </g>
 <defs>
  <clipPath id="p7ff5b81e1d">
   <rect height="345.6" width="446.4" x="72.0" y="43.2"/>
  </clipPath>
 </defs>
</svg>
