<?xml version="1.0" encoding="utf-8" standalone="no"?>
<!DOCTYPE svg PUBLIC "-//W3C//DTD SVG 1.1//EN"
  "http://www.w3.org/Graphics/SVG/1.1/DTD/svg11.dtd">
<!-- Created with matplotlib (http://matplotlib.org/) -->
<svg height="432pt" version="1.1" viewBox="0 0 576 432" width="576pt" xmlns="http://www.w3.org/2000/svg" xmlns:xlink="http://www.w3.org/1999/xlink">
 <defs>
  <style type="text/css">
*{stroke-linecap:butt;stroke-linejoin:round;}
  </style>
 </defs>
 <g id="figure_1">
  <g id="patch_1">
   <path d="
M0 432
L576 432
L576 0
L0 0
z
" style="fill:#ffffff;"/>
  </g>
  <g id="axes_1">
   <g id="line2d_1">
    <path clip-path="url(#p7ff5b81e1d)" d="
M72 257.555
L72.2976 295.058
L72.372 293.832
L72.5952 262.566
L72.8184 242.723
L73.4136 210.824
L73.7856 175.855
L73.86 176.904
L74.0088 187.56
L74.3064 210.392
L74.4552 211.798
L74.6784 210.864
L74.7528 212.016
L75.1248 224.412
L75.2736 219.948
L75.4224 205.358
L75.5712 191.016
L75.6456 192.041
L75.7944 200.9
L76.2408 258.943
L76.5384 245.067
L76.6128 238.818
L76.6872 239.791
L76.7616 240.298
L77.0592 212.777
L77.5056 150.77
L77.6544 142.672
L77.8776 162.584
L78.8448 299.574
L78.9192 297.414
L79.9608 172.059
L80.184 159.48
L80.3328 157.947
L80.4816 172.86
L80.928 240.465
L81.1512 254.928
L81.2256 253.293
L81.5232 214.488
L81.8952 184.731
L82.044 179.271
L82.2672 165.752
L82.416 193.291
L82.7136 259.853
L82.9368 267.572
L83.0112 269.893
L83.16 278.902
L83.2344 274.968
L83.3832 278.337
L83.532 264.156
L84.276 140.091
L84.3504 140.109
L84.4248 141.94
L84.5736 156.375
L84.8712 204.523
L85.2432 267.439
L85.392 273.643
L85.5408 260.297
L85.9872 207.771
L86.3592 180.976
L86.4336 181.074
L86.5824 180.302
L86.9544 202.95
L87.252 238.57
L87.4008 250.148
L87.5496 258.937
L87.624 257.135
L87.7728 239.941
L87.9216 227.926
L87.996 229.458
L88.1448 223.75
L88.2936 214.136
L88.6656 185.284
L88.74 183.954
L89.0376 189.097
L89.1864 196.758
L89.484 231.186
L89.5584 232.776
L89.7072 230.264
L89.7816 230.708
L89.9304 233.519
L90.1536 238.893
L90.228 239.117
L90.3768 243.092
L90.4512 241.588
L90.5256 238.852
L90.6744 242.4
L91.1208 204.022
L91.4928 185.238
L91.716 156.663
L91.7904 158.783
L91.8648 156.922
L91.9392 159.56
L92.6832 290.151
L92.7576 295.214
L92.9808 271.408
L93.2784 228.697
L93.7248 147.885
L93.7992 146.306
L93.8736 147.695
L94.0224 161.64
L94.8408 281.234
L95.064 269.363
L95.2128 249.255
L95.6592 167.129
L95.7336 165.021
L95.808 167.734
L96.1056 187.859
L96.18 188.585
L96.3288 182.283
L97.296 293.664
L97.3704 292.553
L97.5192 280.975
L97.8912 197.628
L98.1888 129.424
L98.3376 117.328
L98.412 120.715
L98.6352 157.089
L99.2304 249.768
L99.3048 248.679
L99.6024 274.213
L99.9 258.713
L100.644 179.951
L100.793 185.146
L101.537 240.851
L101.983 221.999
L102.058 223.94
L102.355 200.888
L102.727 167.866
L102.802 168.252
L102.95 165.493
L103.025 167.613
L103.174 182.064
L103.843 301.775
L103.918 302.863
L103.992 301.383
L104.066 297.662
L104.29 252.93
L104.587 185.855
L104.959 146.606
L105.034 150.655
L105.703 227.315
L105.852 245.373
L105.926 244.261
L106.001 245.741
L106.224 255.533
L106.447 248.823
L106.819 187.79
L106.968 176.374
L107.191 159.727
L107.638 205.79
L108.084 280.18
L108.158 285.831
L108.233 283.147
L108.53 271.99
L108.679 255.885
L109.274 133.254
L109.349 132.223
L109.572 169.462
L109.944 238.075
L110.018 243.472
L110.093 243.12
L110.242 245.067
L110.316 239.855
L110.465 249.946
L110.539 248.552
L110.614 245.378
L110.688 245.551
L110.986 258.557
L111.134 250.153
L111.581 197.847
L111.804 163.903
L111.878 159.779
L111.953 162.527
L112.027 161.277
L112.102 155.724
L112.176 157.913
L112.474 193.723
L112.771 230.448
L112.92 228.507
L113.069 226.203
L113.143 225.783
L113.218 225.835
L113.441 248.16
L113.59 253.73
L113.962 226.203
L114.036 226.411
L114.185 234.002
L114.259 233.582
L114.408 234.348
L114.482 233.058
L115.078 189.524
L115.152 189.604
L115.301 196.315
L115.747 223.404
L115.896 206.671
L116.119 174.98
L116.268 180.912
L116.342 178.839
L116.491 185.739
L116.566 185.123
L116.64 184.633
L117.533 300.265
L117.682 297.051
L117.756 290.704
L118.5 148.351
L118.723 131.906
L118.946 146.37
L119.914 285.266
L120.286 256.921
L120.806 183.049
L120.955 177.243
L121.104 168.304
L121.402 187.692
L122.071 277.548
L122.146 279.38
L122.294 259.283
L122.815 138.363
L122.964 142.257
L123.262 171.558
L123.336 171.506
L123.41 171.754
L123.931 263.044
L124.154 291.983
L124.378 315.299
L124.526 294.465
L125.27 143.242
L125.419 133.669
L125.494 133.819
L125.717 163.258
L126.312 262.44
L126.461 272.963
L126.535 271.039
L127.428 191.28
L127.651 168.701
L127.726 164.387
L127.8 164.433
L128.098 196.211
L128.544 248.604
L128.618 248.783
L128.693 250.153
L128.767 249.491
L128.916 244.393
L129.809 186.592
L129.958 191.344
L130.106 179.876
L130.255 184.38
L130.999 258.085
L131.148 258.431
L131.222 260.354
L131.371 252.29
L131.594 222.753
L131.818 188.337
L132.264 149.376
L132.338 155.211
L132.413 153.495
L132.487 152.464
L133.008 229.032
L133.752 297.696
L133.826 297.455
L133.975 284.028
L134.198 232.545
L134.719 115.462
L134.868 103.187
L134.942 103.919
L135.166 150.373
L135.761 284.23
L135.91 290.756
L136.43 229.124
L136.654 223.508
L136.951 210.479
L137.249 186.753
L137.472 172.998
L137.695 203.353
L138.067 263.476
L138.365 275.67
L138.588 257.964
L138.96 153.12
L139.258 105.842
L139.481 135.472
L139.63 165.487
L140.076 286.384
L140.299 302.771
L140.448 297.869
L140.597 283.089
L141.266 176.402
L141.415 170.654
L141.49 171.334
L141.564 174.939
L141.862 213.721
L142.234 185.083
L142.308 186.816
L142.382 190.008
L143.126 271.35
L143.201 269.305
L143.35 262.537
L143.498 236.496
L143.87 149.699
L143.945 151.876
L144.094 180.578
L144.391 256.438
L144.466 259.473
L144.689 241.381
L144.986 215.72
L145.284 206.015
L145.582 178.983
L145.656 176.299
L145.805 162.394
L145.879 162.976
L146.177 188.493
L147.07 317.822
L147.144 315.812
L147.293 285.831
L147.962 127.748
L148.037 128.502
L148.186 136.624
L148.632 205.888
L149.227 292.829
L149.302 292.507
L149.45 285.721
L149.674 257.832
L150.12 134.256
L150.194 131.065
L150.269 132.822
L150.418 149.129
L151.087 260.568
L151.385 289.869
L151.459 287.496
L151.682 263.355
L152.426 144.642
L152.575 137.24
L152.798 144.682
L153.245 210.456
L153.542 264.928
L153.84 300.058
L153.914 301.688
L154.212 277.001
L155.03 139.36
L155.105 138.985
L155.328 169.571
L156.146 283.314
L156.221 281.096
L156.444 255.746
L157.039 146.594
L157.114 146.473
L157.262 141.048
L157.56 175.204
L157.858 234.642
L158.155 294.782
L158.378 310.564
L158.453 308.681
L158.825 229.124
L159.197 143.864
L159.346 133.237
L159.42 133.145
L159.494 130.178
L159.569 133.018
L159.718 153.437
L160.462 310.599
L160.685 289.247
L160.982 229.7
L161.503 131.474
L161.578 127.31
L161.652 128.767
L161.726 129.585
L161.875 138.53
L162.098 178.384
L162.545 297.979
L162.694 312.454
L162.991 298.146
L163.289 238.501
L163.81 99.7022
L163.884 97.4904
L163.958 98.9534
L164.107 124.637
L164.777 331.744
L164.926 320.074
L165.149 263.384
L165.595 146.347
L165.818 127.137
L165.893 127.028
L165.967 123.744
L166.042 124.557
L166.265 167.371
L166.86 294.863
L167.009 301.803
L167.158 292.443
L167.455 238.248
L167.827 181.12
L167.976 174.611
L168.05 175.965
L168.422 194.587
L168.571 195.318
L169.018 221.843
L169.092 221.722
L169.166 222.598
L169.315 222.114
L169.538 228.703
L169.687 232.292
L169.762 232.142
L169.91 228.294
L170.58 189.385
L170.803 176.708
L171.026 197.3
L171.473 258.229
L171.622 265.93
L171.696 266.379
L171.994 241.744
L172.44 198.06
L172.812 166.818
L172.886 166.023
L172.961 166.991
L173.11 181.972
L173.928 283.78
L174.151 262.509
L174.746 144.722
L175.044 106.009
L175.193 117.489
L175.342 145.707
L176.011 336.755
L176.086 334.33
L176.234 314.164
L177.053 177.86
L177.35 134.815
L177.499 138.461
L177.946 196.908
L178.392 271.402
L178.541 278.066
L178.615 275.094
L179.136 203.676
L179.508 156.767
L179.582 154.37
L179.731 167.232
L180.401 262.681
L180.624 286.545
L180.698 288.262
L180.922 279.443
L181.145 247.602
L181.666 153.149
L181.889 145.932
L181.963 146.744
L182.261 178.119
L182.707 248.834
L182.856 253.454
L182.93 252.123
L183.154 234.118
L183.526 196.234
L183.6 198.872
L183.749 205.479
L183.823 206.383
L183.898 203.411
L183.972 204.327
L184.642 256.973
L184.939 279.927
L185.014 279.483
L185.162 264.427
L185.906 157.78
L186.278 131.561
L186.427 141.606
L186.576 161.68
L187.32 312.897
L187.394 310.034
L187.766 263.983
L188.436 146.975
L188.51 149.284
L189.031 198.745
L189.403 260.009
L189.552 268.672
L189.626 266.057
L190.147 214.545
L190.222 213.071
L190.519 195.059
L190.668 196.107
L190.742 193.878
L190.891 182.911
L191.114 184.253
L191.412 221.567
L191.71 265.193
L191.784 265.176
L191.858 261.708
L192.379 208.987
L192.454 208.163
L192.602 199.224
L193.123 163.114
L193.272 173.931
L193.495 215.697
L193.942 288.066
L194.016 293.883
L194.165 277.018
L194.909 171.587
L195.206 150.874
L195.355 153.777
L195.876 225.288
L196.174 267.503
L196.248 269.38
L196.322 266.639
L197.066 194.621
L197.141 189.316
L197.215 190.929
L197.29 191.315
L197.364 192.427
L197.513 202.201
L197.885 242.17
L198.108 259.778
L198.182 260.089
L198.331 257.365
L198.406 257.388
L198.703 239.152
L198.852 219.13
L199.373 134.216
L199.447 129.337
L199.522 129.591
L199.67 139.112
L200.191 227.643
L200.638 287.213
L200.786 296.873
L200.861 295.917
L201.01 286.205
L201.456 238.276
L202.051 148.68
L202.126 148.236
L202.274 155.551
L202.498 182.208
L202.944 232.24
L203.167 238.322
L203.242 236.525
L203.316 237.24
L203.39 238.536
L203.539 235.817
L203.614 238.789
L204.283 190.013
L204.506 203.06
L204.804 224.89
L204.953 235.909
L205.027 235.471
L205.102 236.22
L205.25 240.033
L205.325 239.509
L205.399 236.543
L205.548 227.131
L205.622 228.461
L206.218 186.379
L206.366 180.498
L206.441 182.94
L206.59 191.378
L206.664 191.73
L206.813 203.699
L207.334 263.05
L207.482 265.752
L207.706 254.975
L208.152 206.982
L208.598 138.939
L208.673 137.125
L208.822 148.996
L209.64 266.368
L209.714 266.627
L209.863 254.946
L210.012 244.491
L210.086 243.714
L210.384 229.193
L210.83 178.516
L210.905 177.67
L211.054 183.447
L211.649 245.736
L211.723 245.695
L211.872 243.887
L212.244 219.36
L212.318 218.514
L212.765 190.186
L213.137 161.265
L213.36 167.86
L214.104 280.722
L214.253 286.516
L214.327 285.024
L214.55 266.397
L215.592 131.762
L215.741 154.797
L216.262 258.73
L216.336 260.953
L216.485 253.166
L216.559 253.88
L216.634 254.802
L216.931 226.687
L217.154 198.849
L217.378 177.376
L217.452 176.201
L217.526 177.468
L217.824 220.161
L218.047 242.043
L218.122 241.882
L218.345 240.258
L218.568 226.44
L218.642 226.918
L218.791 238.962
L218.94 250.896
L219.014 249.059
L219.163 226.042
L219.461 171.714
L219.535 166.829
L219.684 175.481
L219.758 174.795
L219.833 172.975
L219.907 174.07
L220.13 207.984
L220.354 247.141
L220.428 248.685
L220.502 248.068
L220.651 239.751
L221.023 215.997
L221.098 215.559
L221.172 215.703
L221.47 243.864
L221.767 213.462
L222.139 162.786
L222.214 163.016
L222.437 179.824
L222.809 245.378
L222.883 244.935
L223.106 235.316
L223.255 245.666
L223.33 245.522
L223.404 240.425
L223.478 242.723
L223.776 281.597
L223.925 252.976
L224.148 227.269
L224.371 213.157
L224.966 137.039
L225.041 141.946
L225.264 170.164
L225.338 169.277
L225.413 170.568
L225.562 185.803
L226.082 268.655
L226.231 259.542
L226.38 264.928
L226.826 233.922
L227.05 200.548
L227.124 197.34
L227.273 202.893
L227.496 225.691
L227.794 286.384
L227.868 278.861
L228.166 204.609
L228.24 207.875
L228.314 206.585
L228.463 194.8
L228.686 119.805
L228.835 89.7835
L228.91 91.8398
L229.133 136.1
L229.654 280.324
L229.728 280.059
L229.877 285.203
L230.026 272.548
L230.249 251.87
L230.621 234.509
L230.844 242.216
L230.993 236.79
L231.365 191.759
L231.662 217.333
L231.811 201.769
L232.034 170.055
L232.183 180.538
L232.406 194.811
L232.481 196.136
L232.63 204.914
L232.927 236.064
L233.076 214.223
L233.374 168.459
L233.448 167.117
L233.597 190.532
L233.969 254.566
L234.043 258.84
L234.192 247.867
L234.49 206.493
L234.564 209.816
L235.01 270.636
L235.085 272.617
L235.159 271.068
L235.382 247.227
L235.754 190.307
L236.052 133.606
L236.126 132.154
L236.573 191.332
L236.945 241.755
L237.242 294.045
L237.391 279.881
L238.358 154.301
L238.433 152.372
L238.507 153.495
L239.177 228.836
L239.251 230.667
L239.474 227.453
L239.698 229.976
L239.772 230.137
L239.846 232.424
L240.293 261.23
L240.367 261.858
L240.59 249.301
L241.111 190.296
L241.186 189.288
L241.409 180.054
L241.558 189.42
L241.93 223.387
L242.078 210.916
L242.376 180.187
L242.45 180.895
L242.599 188.349
L242.674 189.437
L242.822 196.505
L242.897 193.458
L242.971 195.658
L243.418 240.828
L243.79 294.212
L244.013 287.87
L244.162 277.485
L244.534 217.016
L244.757 181.195
L245.203 144.745
L245.426 137.476
L245.501 137.499
L245.798 185.325
L246.319 277.606
L246.394 282.127
L246.84 247.464
L246.989 241.306
L247.063 242.884
L247.212 233.726
L247.882 170.084
L247.956 170.383
L248.03 167.647
L248.105 170.043
L248.774 266.708
L248.923 271.967
L249.072 251.478
L249.37 221.497
L249.444 223.133
L249.518 221.342
L250.039 175.17
L250.114 178.804
L250.188 182.381
L250.262 176.667
L250.337 177.289
L250.411 181.258
L250.56 174.392
L251.006 238.029
L251.081 231.871
L251.304 197.242
L251.378 200.335
L251.825 287.789
L251.974 274.409
L252.494 209.638
L252.569 212.431
L252.643 211.89
L252.941 193.769
L253.387 162.279
L253.61 168.575
L254.057 236.537
L254.429 252.066
L254.578 249.209
L254.726 260.942
L254.95 249.387
L255.322 210.456
L255.47 200.364
L255.768 175.21
L256.066 182.986
L256.214 190.958
L256.661 210.715
L256.735 206.222
L257.256 247.204
L257.554 274.973
L257.628 274.052
L258.149 231.975
L258.67 158.754
L258.744 157.556
L258.818 158.155
L258.893 157.717
L259.042 169.49
L259.116 164.07
L259.414 178.488
L259.711 212.414
L259.86 216.74
L259.934 228.116
L260.009 226.831
L260.083 222.897
L260.232 239.175
L260.306 236.681
L260.678 282.962
L260.753 280.964
L260.827 281.257
L260.902 281.782
L261.274 233.392
L261.348 234.619
L261.422 233.219
L261.497 222.822
L261.571 222.874
L261.646 220.731
L261.794 209.914
L261.869 206.245
L262.092 185.544
L262.464 145.932
L262.613 151.053
L262.687 141.301
L262.762 145.667
L263.134 197.075
L263.208 201.038
L263.506 234.112
L263.58 236.986
L264.026 288.624
L264.101 287.818
L264.25 297.04
L264.919 186.436
L265.291 140.42
L265.44 160.954
L266.184 262.157
L266.854 185.814
L267.002 176.961
L267.151 187.675
L267.226 181.425
L267.449 202.553
L267.598 218.704
L267.746 211.849
L268.193 257.457
L268.342 268.724
L268.49 262.704
L268.565 262.532
L269.16 173.332
L269.234 179.697
L269.383 161.305
L269.458 164.376
L269.532 167.376
L269.606 165.597
L269.755 177.122
L269.83 176.696
L270.425 240.114
L270.499 239.67
L270.574 241.277
L270.871 276.333
L270.946 283.521
L271.094 273.412
L271.169 275.958
L271.838 182.381
L271.913 180.803
L272.062 161.559
L272.136 166.046
L272.21 163.99
L272.285 165.435
L272.434 175.152
L272.508 178.914
L273.029 232.545
L273.103 236.756
L273.178 231.071
L273.252 232.142
L273.326 233.582
L273.475 225.869
L273.55 231.831
L273.624 231.664
L273.773 236.779
L274.07 218.439
L274.145 213.819
L274.294 223.392
L274.368 219.568
L274.442 219.965
L274.517 223.905
L274.591 220.052
L274.666 220.184
L275.186 256.098
L275.261 254.744
L276.377 141.664
L276.451 142.464
L276.823 165.147
L276.972 182.566
L277.344 285.935
L277.642 326.185
L277.79 322.43
L277.865 318.317
L278.162 247.861
L278.534 167.394
L278.683 156.945
L278.758 158.155
L278.906 154.123
L280.022 233.288
L280.097 228.346
L280.171 229.527
L280.543 216.175
L280.692 232.182
L280.766 231.687
L280.841 229.245
L280.915 232.539
L281.213 218.986
L281.287 212.016
L281.362 214.447
L281.734 233.34
L281.808 232.747
L281.882 233.231
L282.031 227.568
L282.18 234.504
L282.626 203.469
L282.701 202.184
L282.924 215.501
L282.998 215.363
L283.073 216.596
L283.668 175.74
L283.817 186.926
L283.966 203.244
L284.338 246.669
L284.412 248.172
L284.561 259.335
L284.635 257.008
L284.71 260.112
L284.784 256.731
L285.379 184.685
L285.454 181.154
L285.602 161.893
L286.049 184.351
L286.421 275.935
L286.57 287.755
L286.867 257.273
L287.239 218.399
L287.314 216.216
L287.462 196.943
L287.834 140.31
L287.983 142.274
L288.132 158.708
L288.43 227.39
L288.653 266.65
L288.802 271.828
L288.95 267.888
L289.322 238.933
L289.992 159.48
L290.141 157.792
L290.29 166.443
L290.587 208.284
L291.034 279.149
L291.257 290.923
L291.331 289.817
L291.554 271.558
L291.703 256.564
L292.373 135.495
L292.522 131.78
L292.596 134.205
L292.819 161.012
L293.34 222.897
L293.414 225.276
L294.084 281.897
L294.307 264.997
L295.126 177.203
L295.2 176.61
L295.498 189.915
L295.572 189.979
L295.646 190.831
L296.167 236.998
L296.242 235.494
L296.539 210.3
L296.762 182.969
L296.911 166.19
L297.06 169.536
L297.209 184.979
L297.73 255.545
L298.102 296.671
L298.176 293.739
L298.325 292.357
L298.474 261.99
L299.069 135.357
L299.292 125
L299.366 126.181
L299.515 138.911
L299.664 157.878
L300.036 258.978
L300.334 286.58
L300.482 288.682
L301.003 255.602
L301.598 164.22
L301.673 163.759
L302.045 127.932
L302.119 132.816
L302.194 135.08
L302.268 141.145
L302.863 284.95
L303.012 290.22
L303.235 280.457
L303.384 267.134
L303.979 171.017
L304.054 171.074
L304.202 188.038
L304.649 255.867
L304.798 269.945
L304.872 269.634
L305.318 225.103
L305.542 192.818
L305.988 124.205
L306.062 124.102
L306.137 129.729
L306.806 242.112
L307.327 286.153
L307.402 286.027
L307.476 287.576
L307.55 286.482
L307.774 264.052
L308.146 195.261
L308.443 151.738
L308.518 147.43
L308.666 155.58
L309.038 209.891
L309.336 254.911
L309.559 278.084
L309.634 276.747
L309.857 249.197
L310.154 186.736
L310.378 146.888
L310.526 136.261
L310.824 153.956
L311.047 196.2
L311.642 314.366
L311.717 313.755
L312.014 292.489
L312.461 194.051
L312.758 127.742
L312.982 117.443
L313.056 118.543
L313.354 152.533
L314.172 305.461
L314.246 305.979
L314.395 289.863
L315.139 165.931
L315.437 154.958
L315.66 181.483
L316.032 238.754
L316.33 260.47
L316.478 253.73
L316.776 222.914
L316.925 216.383
L317.446 170.245
L317.52 173.183
L318.19 274.317
L318.264 273.735
L318.413 264.922
L319.008 184.858
L319.306 143.743
L319.454 130.415
L319.529 135.466
L320.273 297.708
L320.422 279.984
L320.794 209.776
L320.942 192.398
L321.017 193.504
L321.389 216.118
L321.463 215.588
L321.761 198.912
L321.835 196.205
L321.91 196.92
L322.058 206.009
L322.282 225.714
L322.356 226.146
L322.43 227.851
L322.505 226.307
L322.802 197.432
L323.1 205.104
L323.323 230.673
L323.472 238.438
L323.621 234.728
L323.844 214.718
L324.216 188.579
L324.29 188.343
L324.365 191.563
L324.662 225.645
L324.737 224.136
L324.886 217.022
L324.96 217.31
L325.034 219.775
L325.406 259.081
L325.481 258.494
L325.778 250.424
L326.225 198.262
L326.522 161.467
L326.894 149.25
L326.969 148.754
L327.043 150.39
L327.341 195.768
L327.936 310.685
L328.01 307.454
L328.234 283.135
L328.68 202.248
L328.754 203.555
L328.978 222.684
L329.126 228.663
L329.722 171.864
L329.945 167.371
L330.168 173.58
L330.391 186.235
L330.54 183.222
L330.689 195.814
L331.135 254.836
L331.358 260.896
L331.805 247.734
L331.879 247.642
L331.954 249.128
L332.102 244.785
L332.177 242.665
L332.474 215.64
L332.698 188.216
L332.772 188.464
L332.921 187.007
L333.07 189.869
L333.218 184.812
L333.367 186.707
L333.739 180.976
L333.814 182.946
L334.334 232.153
L334.855 329.112
L334.93 326.456
L335.153 262.365
L335.897 79.98
L335.971 81.6849
L336.194 111.597
L336.864 319.02
L337.087 328.985
L337.236 321.042
L337.459 284.806
L337.757 211.193
L338.054 148.685
L338.129 144.889
L338.278 162.377
L338.65 203.204
L338.798 204.966
L339.468 228.438
L339.766 215.202
L339.84 211.838
L339.989 215.916
L340.286 200.41
L340.51 193.705
L340.733 187.83
L340.807 188.942
L341.03 217.834
L341.328 252.089
L341.477 257.849
L341.551 254.721
L341.849 228.312
L341.923 227.188
L342.072 242.867
L342.221 253.016
L342.295 250.902
L342.444 237.009
L342.89 169.963
L342.965 166.973
L343.039 167.918
L343.114 168.77
L343.411 184.852
L343.709 211.343
L344.155 272.905
L344.23 273.833
L344.378 261.339
L344.974 174.283
L345.048 173.004
L345.197 175.296
L345.271 175.078
L345.346 176.8
L346.238 267.739
L346.313 265.464
L346.462 270.204
L346.61 250.441
L346.908 202.029
L347.057 192.767
L347.429 151.721
L347.652 145.252
L347.801 160.528
L348.024 214.015
L348.396 284.207
L348.545 290.295
L349.066 269.703
L349.363 222.448
L349.81 131.901
L349.884 132.304
L349.958 134.447
L350.182 159.768
L350.405 208.203
L350.628 232.804
L350.702 233.242
L350.851 228.617
L350.926 228.651
L351.074 229.988
L351.223 228.565
L351.372 240.31
L351.446 239.434
L351.893 225.057
L351.967 224.752
L352.116 225.529
L352.265 225.063
L352.562 245.712
L352.637 244.797
L352.786 237.994
L353.009 222.056
L353.381 173.056
L353.604 160.182
L353.827 155.292
L353.902 153.846
L353.976 155.327
L354.125 172.946
L354.72 295.41
L354.794 302.235
L354.869 298.647
L355.092 274.587
L355.166 277.335
L355.241 275.872
L355.464 234.987
L355.836 182.479
L355.91 182.669
L356.059 180.279
L356.282 172.474
L356.431 174.997
L356.506 174.951
L356.654 183.919
L357.026 217.546
L357.101 214.591
L357.398 191.269
L357.473 193.717
L357.696 217.523
L357.994 284.558
L358.068 280.964
L358.514 187.473
L358.663 215.173
L358.886 244.054
L359.035 250.845
L359.184 245.718
L359.407 229.124
L359.556 248.616
L359.63 247.815
L360.002 205.709
L360.077 202.57
L360.151 207.547
L360.3 232.338
L360.374 224.251
L360.672 113.515
L360.746 117.673
L361.416 228.513
L361.788 283.901
L361.937 251.161
L362.309 162.532
L362.383 165.741
L362.532 202.265
L362.83 299.724
L362.904 299.511
L363.127 255.718
L363.425 200.347
L363.499 198.383
L363.648 205.75
L363.871 223.323
L363.946 220.991
L364.243 198.169
L364.466 171.299
L364.69 144.711
L364.764 147.43
L364.913 176.379
L365.21 265.74
L365.359 274.224
L365.508 267.871
L365.582 269.904
L365.657 269.34
L365.954 248.823
L366.252 202.207
L366.698 140.667
L367.07 174.484
L367.74 263.396
L367.963 286.361
L368.038 286.718
L368.112 285.808
L368.335 242.256
L368.558 209.269
L368.633 209.81
L368.707 209.511
L369.005 225.08
L369.079 228.173
L369.302 197.265
L369.6 169.185
L369.898 191.039
L370.195 222.886
L370.27 220.616
L370.418 210.335
L370.716 240.091
L370.865 214.597
L371.088 175.849
L371.237 180.216
L371.386 200.79
L371.832 261.743
L371.906 264.571
L372.055 251.167
L372.353 220.484
L372.502 217.575
L372.725 221.745
L372.799 222.367
L372.874 222.338
L373.32 195.053
L373.394 198.607
L373.766 242.671
L373.841 242.285
L373.915 240.926
L373.99 241.974
L374.064 239.618
L374.659 169.819
L374.882 130.87
L375.18 149.382
L375.478 254.548
L375.626 286.781
L375.701 287.328
L375.85 275.855
L375.924 277.456
L375.998 280.785
L376.222 265.106
L377.189 184.104
L377.561 139.999
L377.784 147.971
L378.007 170.671
L378.528 247.988
L378.751 265.953
L378.826 265.141
L379.272 244.802
L379.346 244.635
L379.495 250.591
L379.644 261.443
L379.718 260.568
L380.016 206.222
L380.314 146.053
L380.388 144.262
L380.462 145.546
L380.611 155.638
L381.132 231.762
L381.43 325.679
L381.504 322.833
L381.653 285.168
L382.025 179.328
L382.099 182.41
L382.322 225.495
L382.397 225.282
L382.546 193.331
L382.769 145.506
L382.843 146.664
L383.141 193.4
L383.513 237.038
L383.587 239.486
L383.662 238.576
L383.81 232.729
L383.885 233.046
L384.034 238.61
L384.182 230.448
L384.406 202.006
L384.778 150.039
L384.926 206.994
L385.224 363.798
L385.373 317.257
L385.67 221.883
L385.894 178.729
L386.266 119.136
L386.34 120.553
L386.489 155.067
L386.786 250.021
L386.861 255.481
L386.935 251.49
L387.456 184.927
L387.605 211.101
L387.902 255.712
L387.977 255.654
L388.126 240.511
L388.423 210.127
L388.572 204.275
L388.646 208.203
L388.944 267.295
L389.018 267.048
L389.167 255.643
L389.316 218.911
L389.614 140.644
L389.688 127.362
L389.762 135.057
L390.134 258.004
L390.283 274.587
L390.358 282.392
L390.432 280.912
L390.506 276.897
L390.655 237.81
L390.953 147.326
L391.102 136.111
L391.25 174.513
L391.474 222.667
L391.548 224.331
L391.622 221.008
L391.92 166.023
L392.069 173.62
L392.441 244.624
L392.887 335.257
L392.962 334.67
L393.11 286.332
L393.334 203.215
L393.408 207.178
L393.631 233.899
L393.706 227.28
L394.152 107.53
L394.226 113.544
L394.301 115.94
L394.375 111.049
L394.45 113.762
L394.896 244.532
L395.045 299.016
L395.119 284.644
L395.342 175.354
L395.417 200.64
L395.64 333.023
L396.086 244.992
L396.235 202.38
L396.31 204.793
L396.384 204.482
L396.533 128.237
L396.682 64.4856
L396.83 143.225
L397.128 305.858
L397.351 342.936
L397.5 300.697
L397.798 162.383
L397.872 164.571
L398.021 146.064
L398.17 122.212
L398.542 154.434
L398.616 160.862
L399.137 268.937
L399.36 288.78
L399.434 294.557
L399.583 271.391
L399.881 210.72
L400.104 198.636
L400.178 198.008
L400.327 202.616
L400.476 197.57
L400.699 180.676
L400.848 167.1
L400.922 170.17
L401.518 237.003
L401.592 239.659
L402.113 293.186
L402.187 289.442
L402.336 270.521
L402.782 138.162
L402.931 131.296
L403.154 157.17
L403.526 213.791
L404.196 262.284
L404.791 196.038
L405.014 189.345
L405.089 190.923
L405.163 198.239
L405.312 193.475
L405.833 262.347
L405.907 263.787
L406.577 210.588
L407.023 153.034
L407.098 151.634
L407.246 146.52
L407.99 239.4
L408.214 268.493
L408.362 274.236
L408.437 275.538
L408.511 279.201
L408.586 277.807
L408.734 279.092
L409.404 170.516
L409.478 171.708
L409.553 171.149
L410.148 212.114
L410.446 249.825
L410.743 224.291
L410.892 225.777
L411.115 205.081
L411.19 203.503
L411.338 219.165
L411.413 217.103
L411.71 198.636
L411.859 205.479
L412.008 199.512
L412.306 213.48
L412.38 214.28
L412.529 221.083
L412.603 218.6
L412.678 220.921
L412.826 231.577
L413.05 217.886
L413.124 219.372
L413.422 251.156
L413.496 254.744
L413.868 218.738
L413.942 220.472
L414.314 158.604
L414.389 158.696
L414.686 198.803
L414.835 200.594
L415.207 265.037
L415.282 261.443
L415.505 240.615
L415.579 241.11
L415.654 242.942
L415.877 236.116
L416.174 171.437
L416.323 143.075
L416.398 144.578
L416.472 149.647
L416.918 238.288
L416.993 238.691
L417.142 241.502
L417.216 242.706
L417.514 279.057
L417.588 281.424
L417.886 249.37
L418.109 202.363
L418.332 141.589
L418.406 142.165
L418.704 225.846
L418.778 218.105
L419.15 124.655
L419.225 126.394
L419.299 130.824
L419.448 171.345
L419.894 325.108
L419.969 332.568
L420.341 294.747
L421.01 148.973
L421.234 139.515
L421.308 139.602
L421.457 146.877
L421.754 185.918
L422.424 278.314
L422.573 280.238
L422.647 279.322
L422.796 268.263
L423.466 126.907
L423.54 129.389
L423.614 137.28
L424.284 299.753
L424.433 309.049
L424.582 304.989
L424.805 288.705
L425.102 217.056
L425.549 111.62
L425.623 111.7
L425.772 114.01
L425.921 130.576
L426.442 213.485
L426.888 272.986
L426.962 269.703
L427.558 211.821
L427.781 215.121
L427.93 222.229
L428.004 221.601
L428.153 204.304
L428.525 226.025
L428.674 275.152
L428.897 348.534
L429.343 222.672
L429.418 218.877
L429.641 150.016
L429.938 74.6001
L430.087 60.4536
L430.162 63.7022
L430.31 106.441
L430.831 289.471
L431.278 367.992
L431.65 270.325
L431.947 177.791
L432.022 181.846
L432.17 161.202
L432.468 113.492
L432.542 115.992
L432.766 145.984
L433.138 204.022
L433.51 314.406
L433.584 314.861
L433.658 317.206
L433.733 316.768
L433.956 288.596
L434.626 138.283
L434.774 127.886
L434.849 130.109
L435.146 160.522
L435.816 280.468
L435.89 279.95
L436.039 272.41
L436.337 257.987
L436.634 209.177
L436.932 161.438
L437.006 159.076
L437.23 139.279
L437.453 160.159
L438.048 286.873
L438.122 287.231
L438.197 298.169
L438.494 269.881
L439.015 158.068
L439.09 151.162
L439.164 158.16
L439.313 143.323
L439.462 158.137
L439.536 155.246
L440.354 284.155
L440.429 279.961
L440.726 240.05
L440.875 230.938
L441.173 184.144
L441.247 179.294
L441.322 183.291
L441.47 167.031
L441.619 180.342
L441.694 178.672
L442.066 240.258
L442.14 239.29
L442.289 263.154
L442.363 259.001
L442.438 261.829
L442.512 273.119
L442.586 268.62
L442.958 228.571
L443.033 222.552
L443.33 164.744
L443.405 158.552
L443.479 162.63
L443.628 144.705
L443.702 149.382
L443.777 150.724
L443.851 148.824
L444.223 203.762
L444.298 207.086
L444.967 289.287
L445.339 253.748
L445.414 250.706
L445.786 219.263
L445.86 216.037
L446.083 159.134
L446.306 108.394
L446.381 109.903
L446.455 107.835
L446.53 111.96
L446.827 194.437
L447.274 326.756
L447.348 330.632
L447.571 311.4
L447.943 236.208
L448.018 233.075
L448.613 102.283
L448.687 102.847
L448.836 108.342
L449.134 188.568
L449.431 281.954
L449.506 283.285
L449.58 279.357
L449.654 281.021
L449.729 281.131
L449.803 276.54
L449.878 278.429" style="fill:none;stroke:#808080;stroke-linecap:square;"/>
   </g>
  </g>
 </g>
 <defs>
  <clipPath id="p7ff5b81e1d">
   <rect height="345.6" width="446.4" x="72.0" y="43.2"/>
  </clipPath>
 </defs>
</svg>
