<?xml version="1.0" encoding="utf-8" standalone="no"?>
<!DOCTYPE svg PUBLIC "-//W3C//DTD SVG 1.1//EN"
  "http://www.w3.org/Graphics/SVG/1.1/DTD/svg11.dtd">
<!-- Created with matplotlib (http://matplotlib.org/) -->
<svg height="432pt" version="1.1" viewBox="0 0 576 432" width="576pt" xmlns="http://www.w3.org/2000/svg" xmlns:xlink="http://www.w3.org/1999/xlink">
 <defs>
  <style type="text/css">
*{stroke-linecap:butt;stroke-linejoin:round;}
  </style>
 </defs>
 <g id="figure_1">
  <g id="patch_1">
   <path d="
M0 432
L576 432
L576 0
L0 0
z
" style="fill:#ffffff;"/>
  </g>
  <g id="axes_1">
   <g id="line2d_1">
    <path clip-path="url(#p7ff5b81e1d)" d="
M72 210.237
L72.1488 211.878
L72.2976 212.944
L72.372 212.869
L72.4464 213.854
L72.5208 213.819
L72.8184 206.769
L72.9672 212.224
L73.0416 212.103
L73.2648 207.535
L73.4136 202.622
L73.488 202.893
L73.6368 210.317
L74.1576 241.07
L74.232 241.041
L74.3064 240.413
L74.4552 242.406
L74.5296 240.978
L74.6784 228.847
L74.976 204.442
L75.348 192.824
L75.4968 196.136
L75.9432 212.178
L76.092 215.686
L76.1664 215.599
L76.2408 216.492
L76.5384 225.097
L76.6128 225.426
L76.7616 222.874
L76.836 223.335
L76.9848 226.405
L77.0592 226.37
L77.1336 226.007
L77.208 226.221
L77.3568 227.384
L77.7288 219.239
L78.0264 210.507
L78.324 204.943
L78.3984 205.375
L78.5472 206.706
L78.696 204.903
L78.8448 207.143
L79.068 215.075
L79.3656 224.879
L79.5888 233.386
L79.6632 231.906
L79.9608 217.039
L80.1096 211.953
L80.4072 201.481
L80.4816 201.291
L80.6304 200.329
L80.7792 203.901
L81.3744 225.276
L81.7464 234.123
L81.8208 233.599
L81.8952 233.184
L81.9696 233.697
L82.1928 239.077
L82.3416 229.573
L82.9368 176.385
L83.0112 175.688
L83.16 183.591
L83.8296 230.374
L83.9784 231.376
L84.0528 231.289
L84.1272 230.892
L84.2016 231.405
L84.4992 238.017
L84.5736 237.62
L84.7224 233.674
L85.02 222.183
L85.764 202.006
L85.8384 199.172
L85.9128 199.206
L86.0616 202.541
L86.2104 201.136
L86.3592 203.146
L86.508 205.306
L86.6568 204.235
L86.7312 205.099
L87.1032 214.464
L87.1776 214.153
L87.4752 203.636
L87.624 208.526
L87.9216 237.729
L88.2192 262.658
L88.2936 263.753
L88.368 262.082
L88.9632 206.861
L89.2608 182.623
L89.4096 180.014
L89.6328 185.054
L89.856 196.908
L90.3024 219.015
L90.5256 220.766
L90.6744 220.979
L90.8232 219.954
L91.2696 212.569
L91.344 213.249
L91.4928 214.453
L91.5672 214.459
L91.716 217.264
L92.3112 247.158
L92.46 241.571
L93.204 193.446
L93.4272 189.829
L93.5016 190.601
L93.7248 203.065
L93.8736 208.486
L94.0224 209.136
L94.1712 205.698
L94.2456 203.503
L94.32 203.693
L94.5432 218.612
L95.1384 254.715
L95.2128 255.867
L95.2872 255.746
L95.436 248.051
L96.18 188.176
L96.552 142.459
L96.6264 145.316
L97.0728 207.547
L97.4448 269.674
L97.5192 272.514
L97.5936 271.788
L97.668 269.979
L98.2632 223.306
L98.4864 204.909
L98.5608 205.819
L98.6352 205.675
L99.0816 200.9
L99.3792 187.819
L99.6024 198.717
L100.421 252.25
L100.495 253.523
L100.57 252.993
L100.793 239.497
L101.686 166.53
L101.834 165.199
L101.983 171.328
L102.281 201.314
L102.802 263.58
L102.95 268.937
L103.099 263.194
L103.546 225.679
L103.918 196.159
L104.215 185.135
L104.29 185.814
L104.587 200.779
L105.182 233.933
L105.257 233.282
L105.406 231.33
L105.554 225.892
L106.001 195.191
L106.075 196.113
L106.373 207.305
L106.596 200.583
L106.67 200.519
L106.819 211.7
L107.191 243.005
L107.489 261.593
L107.563 261.374
L107.712 250.608
L108.828 158.356
L108.902 158.587
L109.051 170.527
L109.87 263.816
L109.944 263.142
L110.167 242.521
L110.539 209.851
L110.688 208.382
L110.762 208.163
L110.837 207.385
L110.986 211.452
L111.581 234.705
L111.73 226.929
L112.399 177.543
L112.474 177.698
L112.622 188.475
L113.218 259.559
L113.292 257.872
L113.515 241.099
L114.11 180.601
L114.185 179.853
L114.259 180.763
L114.557 193.89
L114.78 216.457
L115.152 255.735
L115.226 255.084
L115.673 218.779
L116.119 181.016
L116.194 181.183
L116.342 193.659
L116.789 249.445
L116.938 253.016
L117.086 248.126
L117.384 224.13
L117.756 187.012
L118.054 182.249
L118.202 185.515
L118.426 197.161
L118.946 246.795
L119.095 249.451
L119.393 241.11
L119.616 223.847
L119.914 207.339
L120.211 198.74
L120.434 193.44
L120.881 207.38
L120.955 207.138
L121.03 207.184
L121.104 207.662
L121.327 212.253
L122.071 240.096
L122.22 236.082
L122.964 200.214
L123.038 200.375
L123.187 203.169
L123.485 217.753
L123.559 216.872
L123.708 214.747
L124.303 227.2
L124.378 227.689
L124.452 227.206
L124.601 223.479
L124.824 215.899
L124.898 216.014
L124.973 215.11
L125.122 206.585
L125.419 191.58
L125.642 187.721
L125.717 188.303
L125.866 197.645
L126.61 251.576
L126.758 252.06
L126.907 250.274
L127.13 239.284
L127.8 179.248
L127.874 179.017
L127.949 179.346
L128.172 185.221
L128.693 218.105
L129.437 256.714
L129.586 254.111
L129.809 243.973
L130.032 223.951
L130.478 171.069
L130.627 167.388
L130.702 168.05
L130.925 179.709
L131.594 229.026
L131.669 229.066
L131.818 230.448
L132.19 244.088
L132.264 244.071
L132.413 240.039
L133.008 207.967
L133.157 209.05
L133.603 215.593
L133.678 215.755
L133.826 208.681
L134.05 198.567
L134.124 198.682
L134.198 199.54
L134.496 205.894
L134.57 206.256
L134.719 212.057
L135.24 242.487
L135.389 244.612
L135.612 236.093
L135.91 215.628
L136.282 177.174
L136.356 176.408
L136.505 181.696
L136.802 207.863
L137.249 237.216
L137.398 239.664
L137.546 235.817
L137.993 219.637
L138.29 216.578
L138.365 213.191
L138.737 172.439
L138.811 173.413
L139.034 192.081
L139.778 277.439
L139.853 274.23
L140.076 257.912
L140.82 185.336
L141.118 179.04
L141.341 175.976
L141.415 175.602
L141.936 184.881
L142.308 223.842
L142.606 242.706
L142.68 241.721
L142.903 237.044
L143.052 243.887
L143.647 282.525
L143.722 281.672
L143.87 271.523
L144.168 214.194
L144.54 151.847
L144.838 133.145
L144.912 132.465
L144.986 133.237
L145.135 140.736
L145.358 166.685
L146.028 261.103
L146.251 264.957
L146.474 265.976
L146.549 265.965
L146.623 265.504
L146.772 260.907
L147.144 234.175
L147.59 205.917
L147.888 198.175
L148.409 182.007
L148.632 186.281
L148.781 196.153
L149.153 227.471
L149.227 229.141
L149.302 229.008
L150.12 217.828
L150.194 217.667
L150.418 219.101
L150.492 219.654
L150.566 219.614
L150.79 214.747
L151.013 209.263
L151.162 212.143
L151.385 225.115
L151.682 238.023
L151.757 239.86
L151.831 239.814
L151.98 232.885
L152.426 190.906
L152.575 201.591
L152.947 238.708
L153.096 232.102
L153.691 189.76
L153.914 183.643
L153.989 183.107
L154.063 184.328
L154.286 198.676
L154.584 219.026
L154.956 247.043
L155.03 247.959
L155.179 243.731
L155.626 224.314
L155.7 225.103
L155.923 229.619
L156.072 226.998
L156.295 214.032
L156.518 207.8
L156.593 207.351
L156.667 207.426
L156.742 207.852
L156.816 207.691
L156.965 205.842
L157.188 197.824
L157.262 199.16
L157.709 231.629
L157.783 232.326
L157.858 231.335
L158.081 220.495
L158.527 191.724
L158.825 172.451
L158.899 171.143
L159.048 176.598
L159.271 202.668
L159.718 264.974
L159.792 267.687
L159.866 266.817
L160.164 250.574
L161.131 180.336
L161.206 180.63
L161.354 194.639
L161.801 258.091
L161.875 257.146
L162.024 242.585
L162.322 174.772
L162.545 136.342
L162.619 134.337
L162.694 138.807
L163.438 260.441
L163.81 279.61
L163.958 271.707
L164.33 225.829
L164.777 177.75
L165 156.962
L165.223 138.133
L165.298 138.974
L165.446 154.647
L166.265 292.109
L166.339 295.882
L166.414 294.989
L166.562 281.73
L167.083 213.128
L167.306 205.3
L167.455 201.556
L167.753 188.573
L168.125 166.57
L168.199 168.085
L168.348 178.447
L168.943 238.795
L169.092 219.574
L169.39 168.511
L169.464 172.543
L169.687 219.712
L170.059 304.603
L170.134 310.017
L170.208 307.575
L170.431 267.992
L170.952 173.949
L171.175 153.961
L171.25 154.595
L171.398 168.079
L171.845 251.069
L171.994 223.237
L172.291 137.603
L172.366 138.692
L172.514 175.06
L172.886 287.161
L172.961 291.378
L173.035 289.851
L173.184 272.306
L173.705 203.238
L173.928 198.78
L174.002 197.052
L174.077 197.156
L174.598 210.444
L174.746 214.165
L174.821 214.015
L175.267 204.045
L175.416 207.748
L176.086 229.924
L176.16 230.086
L176.309 225.028
L176.532 216.135
L176.606 215.904
L176.83 221.474
L176.904 221.371
L176.978 221.624
L177.202 225.293
L177.276 225.069
L178.094 201.136
L178.243 204.269
L178.913 226.762
L178.987 228.191
L179.062 228.064
L179.731 205.064
L179.806 206.13
L180.103 212.823
L180.178 212.172
L180.326 207.472
L180.55 202.668
L180.698 208.676
L181.07 222.407
L181.442 229.377
L181.666 225.881
L181.889 218.468
L182.186 221.682
L182.261 221.647
L182.41 222.004
L182.633 218.617
L182.707 218.727
L182.856 219.522
L182.93 219.061
L183.377 208.889
L183.526 207.034
L183.749 200.687
L183.972 194.95
L184.195 200.473
L184.567 221.123
L184.79 228.208
L184.865 228.559
L185.237 223.583
L185.311 223.669
L185.534 235.293
L185.758 245.954
L185.906 241.375
L186.055 224.925
L186.427 165.856
L186.502 167.083
L186.725 197.789
L187.171 259.352
L187.246 260.573
L187.394 251.069
L187.618 215.876
L187.99 160.067
L188.064 163.414
L188.734 235.114
L188.882 238.063
L189.626 225.201
L190.222 206.135
L190.296 206.182
L190.37 206.758
L190.445 206.199
L190.519 204.327
L190.594 204.943
L190.891 215.184
L191.114 217.212
L191.486 222.171
L191.635 220.046
L192.007 213.894
L192.305 211.792
L192.379 211.901
L192.528 211.504
L192.751 209.085
L192.974 212.621
L193.123 216.918
L193.421 231.531
L193.495 230.529
L193.718 221.474
L194.016 211.607
L194.09 210.974
L194.388 214.891
L194.462 214.102
L194.537 212.477
L194.686 216.118
L194.834 220.092
L194.909 218.71
L195.058 211.613
L195.132 211.705
L195.43 219.205
L195.578 216.993
L195.653 214.994
L195.727 215.317
L195.95 223.398
L196.248 215.605
L196.322 215.899
L196.397 215.219
L196.992 197.553
L197.066 198.561
L197.736 229.832
L197.81 229.953
L197.885 229.314
L198.108 221.572
L198.257 210.075
L198.406 197.046
L198.48 197.57
L198.703 204.027
L199.075 227.701
L199.373 255.574
L199.447 254.312
L199.745 236.802
L200.191 202.184
L200.563 180.872
L200.638 178.718
L200.786 180.907
L200.935 179.87
L201.01 180.446
L201.158 191.234
L201.679 241.346
L201.977 255.798
L202.051 257.849
L202.126 257.831
L202.274 250.015
L202.944 191.447
L203.093 185.728
L203.242 190.624
L203.614 210.548
L203.837 214.585
L204.209 226.353
L204.506 219.735
L204.804 230.685
L204.878 230.425
L205.176 225.334
L205.399 227.298
L205.474 225.91
L205.697 207.535
L205.92 193.072
L206.143 196.05
L206.218 195.767
L206.366 192.484
L206.441 192.623
L206.59 199.454
L206.887 214.505
L206.962 214.217
L207.036 214.528
L207.185 221.117
L207.482 235.915
L207.631 234.815
L207.854 236.888
L207.929 237.055
L208.078 235.765
L208.822 208.572
L209.045 193.291
L209.119 192.173
L209.268 194.823
L209.491 198.354
L209.566 198.935
L209.714 207.028
L209.938 218.934
L210.533 227.764
L210.607 228.254
L210.682 227.747
L210.83 225.155
L210.905 225.806
L210.979 225.495
L211.351 214.914
L211.574 209.039
L211.649 210.202
L211.723 210.075
L212.021 202.823
L212.095 202.973
L212.616 220.933
L212.914 232.781
L212.988 233.565
L213.137 229.867
L213.36 219.32
L213.583 210.669
L213.658 210.841
L213.806 204.805
L214.104 194.932
L214.327 201.159
L214.476 206.585
L214.922 236.059
L214.997 236.813
L215.071 236.116
L215.815 215.398
L215.89 215.138
L216.038 217.753
L216.113 216.907
L216.336 211.907
L216.931 206.015
L217.006 205.945
L217.154 207.299
L217.303 207.679
L217.378 208.105
L217.526 205.98
L217.75 201.527
L217.824 201.591
L218.27 221.543
L218.717 238.368
L218.791 238.109
L219.238 228.553
L219.535 206.429
L219.833 189.518
L219.907 188.619
L220.056 195.393
L220.354 226.088
L220.577 244.877
L220.651 245.609
L220.726 244.762
L220.949 228.167
L221.395 196.603
L221.544 193.775
L221.693 197.582
L222.362 219.781
L222.586 221.682
L222.883 213.796
L222.958 213.86
L223.032 214.522
L223.255 213.122
L223.33 213.664
L224.074 232.724
L224.222 231.86
L224.297 231.497
L224.52 222.943
L224.892 206.504
L225.041 203.238
L225.115 203.302
L225.19 204.171
L225.562 212.771
L225.71 210.611
L225.859 211.089
L225.934 210.663
L226.082 207.979
L226.306 213.929
L226.38 215.576
L226.454 214.943
L226.529 214.24
L226.752 216.227
L227.124 225.46
L227.198 225.224
L227.347 223.139
L227.496 225.714
L227.57 225.357
L227.719 221.365
L227.942 208.123
L228.091 201.216
L228.166 201.597
L228.389 206.043
L228.91 228.957
L228.984 227.782
L229.133 222.143
L229.43 204.333
L229.505 204.373
L229.654 207.23
L229.877 220.311
L230.1 238.484
L230.249 240.194
L230.398 237.366
L230.621 221.44
L231.142 186.534
L231.216 188.354
L231.811 212.258
L231.886 212.978
L233.002 243.092
L233.076 241.968
L233.225 233.853
L233.82 183.407
L234.118 184.823
L234.266 191.597
L234.936 234.4
L235.159 239.682
L235.531 234.29
L235.829 222.626
L236.498 207.126
L237.019 191.897
L237.242 197.115
L237.54 208.549
L238.21 253.454
L238.284 252.262
L238.805 209.735
L239.177 182.03
L239.251 181.725
L239.4 185.739
L239.846 216.383
L240.144 250.367
L240.293 235.195
L240.516 213.249
L240.59 213.393
L240.814 224.13
L240.888 223.542
L241.186 203.255
L241.409 230.627
L241.483 227.684
L241.706 194.178
L241.781 195.842
L242.078 237.81
L242.153 232.349
L242.45 187.703
L242.525 186.24
L242.822 204.315
L242.971 208.319
L243.12 206.775
L243.269 215.887
L243.566 261.103
L243.641 258.632
L244.013 222.575
L244.087 222.909
L244.162 224.303
L244.31 232.522
L244.385 229.55
L244.682 191.384
L244.757 193.556
L244.906 200.335
L245.054 188.717
L245.203 175.573
L245.352 191.004
L245.65 229.815
L245.724 228.548
L245.798 225.074
L245.873 226.336
L246.022 237.13
L246.245 260.084
L246.468 284.114
L246.542 281.661
L246.766 244.324
L247.361 86.4139
L247.51 95.2728
L247.733 171.898
L247.956 246.617
L248.03 244.497
L248.179 237.913
L248.328 266.967
L248.626 334.002
L248.7 328.766
L248.849 294.603
L249.221 199.967
L249.37 187.963
L249.742 107.565
L249.816 113.181
L250.039 167.221
L250.634 313.421
L250.709 309.994
L250.932 248.702
L251.23 178.764
L251.378 173.787
L251.453 173.833
L251.676 166.138
L251.825 192.242
L252.122 254.652
L252.197 259.456
L252.271 256.541
L252.42 230.857
L252.718 158.587
L253.09 228.484
L253.164 226.693
L253.238 224.85
L253.313 227.021
L253.61 249.289
L253.759 233.415
L254.057 199.212
L254.206 202.403
L254.28 202.224
L254.503 197.565
L254.652 205.035
L255.024 230.938
L255.098 230.483
L255.173 229.268
L255.322 221.538
L255.545 206.17
L255.694 209.488
L255.768 207.19
L255.991 181.264
L256.14 214.464
L256.438 289.817
L256.586 293.342
L256.661 291.153
L256.81 263.684
L257.33 110.024
L257.405 105.082
L257.479 109.051
L257.628 148.178
L258 253.131
L258.298 267.877
L258.595 249.572
L258.67 252.256
L258.744 255.925
L258.818 253.293
L258.967 229.291
L259.339 157.901
L259.488 177.059
L259.86 235.304
L259.934 235.794
L260.083 217.949
L260.381 176.477
L260.455 174.657
L260.53 175.821
L260.678 172.612
L260.753 178.079
L260.976 247.118
L261.274 319.44
L261.348 318.755
L261.497 296.061
L262.166 150.2
L262.241 150.983
L262.613 191.09
L262.687 193.521
L262.836 183.165
L263.059 151.784
L263.134 156.951
L263.654 299.793
L263.729 298.912
L264.175 250.349
L264.473 170.095
L264.696 139.775
L264.845 147.539
L265.366 210.012
L265.663 260.216
L265.961 283.613
L266.035 283.279
L266.184 270.596
L266.407 223.571
L266.705 163.592
L266.854 154.877
L267.002 171.109
L267.226 195.981
L267.374 208.912
L267.746 252.267
L267.97 273.706
L268.044 270.832
L268.342 232.015
L268.714 182.819
L269.086 145.886
L269.16 151.473
L269.904 258.805
L270.127 275.181
L270.202 273.735
L270.35 252.198
L270.871 153.236
L270.946 153.806
L271.02 155.246
L271.169 167.711
L271.392 225.622
L271.615 273.499
L271.69 271.414
L271.913 248.806
L272.136 229.821
L272.21 230.742
L272.359 228.922
L272.508 224.775
L272.731 207.863
L273.029 184.092
L273.252 188.896
L273.475 200.571
L273.922 243.91
L273.996 243.8
L274.07 242.02
L274.294 222.655
L274.666 177.623
L274.74 178.015
L274.889 185.705
L275.335 241.156
L275.558 261.282
L275.633 261.017
L275.782 254.767
L276.005 227.148
L276.377 180.354
L276.526 179.173
L276.749 186.431
L277.046 210.231
L277.418 254.456
L277.493 254.168
L277.716 232.309
L278.088 201.309
L278.162 200.738
L278.311 207.95
L278.609 237.101
L278.683 236.577
L278.832 229.446
L278.981 209.188
L279.278 162.613
L279.427 180.273
L279.799 239.745
L279.874 239.065
L280.022 229.907
L280.246 198.555
L280.32 201.746
L280.543 246.041
L280.766 287.939
L280.841 284.662
L280.99 248.356
L281.362 141.451
L281.436 141.042
L281.585 166.178
L281.957 247.636
L282.031 243.846
L282.403 196.539
L282.552 191.626
L282.626 193.832
L282.85 221.204
L283.073 250.775
L283.147 252.849
L283.222 250.983
L283.445 231.474
L283.742 205.968
L283.817 208.745
L284.189 248.155
L284.263 245.764
L284.486 204.436
L284.71 176.984
L284.858 172.722
L285.007 176.823
L285.156 189.103
L285.751 255.908
L285.9 248.46
L286.049 228.473
L286.421 165.712
L286.57 191.177
L287.016 293.33
L287.165 257.532
L287.537 123.744
L287.611 126.521
L287.834 181.592
L288.132 258.719
L288.281 265.648
L288.43 258.759
L288.653 245.678
L288.802 242.251
L289.025 225.339
L289.397 193.504
L289.694 184.063
L289.769 183.885
L290.066 194.673
L290.29 209.793
L290.587 231.791
L290.662 230.667
L291.034 217.206
L291.257 212.834
L291.406 218.105
L292.001 260.965
L292.075 258.027
L292.373 217.673
L292.819 152.694
L292.894 152.884
L293.042 164.537
L293.34 222.839
L293.563 255.815
L293.638 256.334
L293.786 250.925
L294.084 228.3
L294.53 187.525
L294.605 189.247
L294.828 208.612
L295.2 232.591
L295.423 239.198
L295.795 219.994
L295.87 221.071
L296.093 226.647
L296.167 225.921
L296.762 209.822
L296.837 209.131
L297.06 212.541
L297.134 212.437
L297.209 211.682
L297.283 209.77
L297.358 209.822
L297.506 211.031
L297.655 202.593
L297.878 190.175
L298.102 182.508
L298.176 183.205
L298.25 183.746
L298.325 185.901
L298.548 210.778
L298.846 240.517
L299.143 256.15
L299.218 256.167
L299.292 255.815
L299.441 251.904
L300.482 194.857
L300.631 189.414
L300.854 192.473
L301.078 199.967
L302.268 240.724
L302.417 236.427
L302.64 229.164
L302.789 230.587
L302.863 229.083
L303.458 197.254
L303.682 193.36
L303.83 192.484
L304.054 198.146
L304.426 207.489
L304.946 235.339
L305.17 241.352
L305.244 243.213
L305.318 242.458
L305.542 235.016
L305.914 210.836
L306.062 206.095
L306.211 207.408
L306.286 206.285
L306.509 195.762
L306.583 198.198
L306.806 204.171
L307.327 217.442
L307.402 216.717
L307.625 207.506
L307.699 208.18
L307.848 214.096
L308.146 233.421
L308.22 233.167
L308.294 233.593
L308.443 239.641
L308.518 239.474
L309.41 196.407
L309.485 193.821
L309.559 194.074
L309.857 203.1
L310.006 205.6
L310.303 211.907
L310.452 215.951
L311.122 240.344
L311.196 238.299
L311.419 231.854
L311.568 225.535
L312.014 194.431
L312.163 194.846
L312.461 188.51
L312.535 189.103
L312.758 199.984
L313.502 251.495
L313.577 251.156
L313.874 235.01
L314.098 215.755
L314.321 199.984
L314.395 199.097
L314.47 199.131
L314.842 211.44
L314.916 211.296
L315.214 206.251
L315.288 205.865
L315.586 199.367
L315.809 193.463
L316.032 199.805
L316.702 256.582
L316.776 258.649
L316.85 257.757
L317.074 238.789
L317.371 218.134
L317.669 203.699
L317.892 195.935
L318.115 194.541
L318.487 187.266
L318.562 187.963
L318.785 200.122
L319.231 236.347
L319.752 257.52
L319.826 256.224
L320.273 220.783
L320.868 161.035
L320.942 162.29
L321.091 172.249
L321.761 244.071
L321.835 246.294
L321.91 245.361
L322.356 232.845
L322.951 202.432
L323.026 203.123
L323.174 210.248
L323.621 250.781
L323.695 248.339
L323.918 218.128
L324.29 168.534
L324.365 167.497
L324.514 177.186
L325.109 228.075
L325.183 228.859
L325.258 228.784
L325.481 227.067
L325.778 225.19
L325.853 225.27
L326.076 226.031
L326.225 224.642
L326.299 223.859
L326.597 227.776
L326.746 230.454
L326.894 227.206
L327.638 195.232
L327.787 194.149
L327.862 194.327
L327.936 194.074
L328.085 192.317
L328.159 192.358
L328.308 200.036
L328.829 250.079
L328.978 241.341
L329.35 210.34
L329.498 205.306
L329.647 209.315
L330.094 228.081
L330.317 219.608
L330.838 189.282
L330.912 190.906
L331.433 235.062
L331.507 234.832
L331.656 217.258
L331.954 172.198
L332.102 189.034
L332.549 265.734
L332.623 265.02
L332.772 255.395
L333.293 206.153
L333.367 207.345
L333.516 209.568
L333.59 209.119
L333.739 205.093
L334.037 195.739
L334.111 195.981
L334.186 195.814
L334.26 196.257
L334.334 196.004
L334.409 196.775
L334.558 204.35
L334.93 235.212
L335.078 217.932
L335.227 201.268
L335.376 222.321
L335.525 240.972
L335.674 220.42
L335.897 178.032
L335.971 178.505
L336.194 224.285
L336.418 260.602
L336.492 260.124
L336.864 235.535
L337.162 213.52
L337.31 210.07
L337.385 210.087
L337.534 215.265
L337.608 217.851
L337.682 216.285
L337.831 192.836
L338.129 145.183
L338.203 146.22
L338.352 166.91
L338.798 253.454
L339.096 264.634
L339.17 266.16
L339.245 264.911
L339.468 250.62
L340.212 188.648
L340.361 185.273
L340.807 202.063
L341.03 206.527
L341.105 207.42
L341.477 203.63
L341.7 208.146
L341.923 230.189
L342.37 270.21
L342.518 273.597
L342.667 265.406
L342.965 220.472
L343.411 159.042
L343.56 153.604
L343.634 153.575
L343.783 162.071
L344.378 220.512
L344.676 251.484
L344.75 252.901
L344.825 252.348
L344.974 250.355
L345.42 234.573
L345.866 225.005
L346.387 204.546
L346.908 195.958
L347.057 199.511
L347.429 209.718
L347.578 213.485
L347.726 216.048
L348.247 209.983
L348.396 212.736
L348.545 215.507
L348.619 215.432
L348.694 216.158
L348.768 218.255
L349.14 239.543
L349.214 239.221
L349.512 227.136
L349.884 210.911
L349.958 211.003
L350.107 212.569
L350.479 218.312
L350.554 219.211
L350.628 218.807
L351.149 206.199
L351.446 208.434
L351.521 207.46
L351.67 203.947
L351.818 204.459
L351.967 207.23
L352.637 225.374
L352.711 224.913
L353.083 217.235
L353.158 217.298
L353.232 217.719
L353.306 218.986
L353.604 227.517
L353.678 228.254
L353.753 227.937
L353.902 229.152
L353.976 229.089
L354.05 227.436
L354.274 209.989
L354.571 193.354
L354.646 192.663
L354.72 192.934
L355.166 206.32
L355.91 247.141
L356.059 245.183
L356.208 239.359
L357.026 184.173
L357.101 183.965
L357.25 188.061
L357.696 213.975
L358.068 228.513
L358.142 228.421
L358.291 227.643
L358.44 230.31
L358.812 239.595
L358.886 239.209
L360.226 190.918
L360.3 190.635
L360.449 195.03
L360.672 209.505
L361.044 235.068
L361.267 241.991
L361.49 240.407
L361.565 240.108
L361.639 238.973
L361.862 226.998
L362.383 191.263
L362.532 185.348
L362.681 187.496
L362.83 190.969
L363.053 207.575
L363.425 232.355
L363.574 236.629
L363.648 236.306
L364.02 229.412
L364.169 224.458
L364.318 227.269
L364.392 227.217
L364.913 208.998
L365.21 196.839
L365.954 213.094
L366.401 233.605
L366.475 231.969
L366.624 224.654
L366.698 224.942
L366.847 227.206
L367.294 217.995
L367.442 215.755
L367.591 213.969
L367.814 217.828
L367.889 217.73
L367.963 217.419
L368.41 208.762
L368.707 195.37
L368.856 198.371
L369.302 213.105
L369.674 232.453
L369.898 235.056
L370.195 236.617
L370.27 235.068
L370.567 219.712
L370.79 215.674
L370.865 215.317
L371.014 210.133
L371.237 201.378
L371.386 197.668
L371.683 188.573
L372.055 204.131
L372.278 221.906
L372.502 238.559
L372.725 247.078
L372.799 245.759
L373.394 220.115
L373.692 195.871
L373.841 197.38
L374.064 189.005
L374.213 198.959
L374.287 202.754
L374.362 202.345
L374.436 202.737
L375.031 228.864
L375.18 231.41
L375.329 228.496
L375.403 228.928
L375.552 232.113
L375.701 226.895
L375.924 218.093
L376.073 212.5
L376.147 212.754
L376.296 211.815
L376.594 205.824
L376.742 201.205
L377.04 202.852
L377.189 202.726
L377.263 202.795
L377.486 212.783
L378.082 234.688
L378.156 233.668
L378.23 233.686
L378.379 236.324
L378.9 219.337
L379.123 207.431
L379.198 207.869
L379.346 210.807
L379.421 209.528
L379.644 198.688
L379.718 199.84
L379.793 200.923
L380.016 193.884
L380.76 224.948
L381.206 237.712
L381.281 239.255
L381.43 233.277
L382.099 201.625
L382.322 194.552
L382.397 195.837
L382.546 204.609
L382.769 216.676
L382.843 216.02
L382.918 217.039
L383.066 222.494
L383.141 222.39
L383.438 219.545
L383.587 221.221
L383.662 220.328
L383.81 216.838
L383.885 217.114
L384.182 222.684
L384.257 223.053
L384.629 215.219
L384.852 210.64
L384.926 210.513
L385.075 212.506
L385.15 212.016
L385.373 208.837
L385.522 216.63
L385.596 220.351
L385.67 218.802
L385.819 212.316
L385.894 212.558
L386.042 206.101
L386.191 199.051
L386.266 199.483
L386.414 206.015
L386.786 226.779
L387.084 237.931
L387.158 238.645
L387.233 237.885
L388.126 198.561
L388.274 194.235
L388.423 195.923
L388.572 194.201
L388.646 195.479
L389.688 240.96
L389.762 241.3
L390.134 231.065
L390.804 190.63
L390.878 190.48
L391.027 191.689
L391.102 191.263
L391.176 192.208
L391.399 210.214
L391.771 228.317
L392.069 235.926
L392.143 237.142
L392.218 236.819
L392.292 236.26
L392.366 236.387
L392.441 237.337
L392.59 228.041
L392.813 215.968
L392.962 214.263
L393.334 204.845
L393.408 204.477
L393.631 195.053
L393.706 196.557
L393.929 202.731
L394.003 201.355
L394.152 195.359
L394.301 210.432
L394.45 221.653
L394.524 221.434
L394.598 221.659
L394.747 227.632
L394.896 235.189
L394.97 234.043
L395.194 225.322
L395.268 225.374
L395.342 226.347
L395.491 230.898
L395.789 222.978
L395.938 224.176
L396.012 223.139
L396.161 218.998
L396.235 218.986
L396.31 219.643
L396.384 218.473
L396.533 207.311
L396.682 191.776
L396.756 192.559
L396.905 198.527
L396.979 198.348
L397.054 198.429
L397.351 204.632
L397.5 211.988
L397.574 211.579
L397.649 212.258
L398.17 230.736
L398.393 233.611
L398.542 230.143
L398.69 225.074
L398.839 225.973
L399.062 212.587
L399.211 206.187
L399.36 206.608
L399.583 202.512
L399.658 203.376
L400.03 214.77
L400.327 218.364
L400.402 217.978
L400.625 207.46
L400.699 207.696
L400.997 217.437
L401.369 230.408
L401.443 231.007
L401.666 226.399
L402.113 208.468
L402.187 208.964
L402.336 213.629
L402.41 213.497
L402.708 209.188
L402.931 204.212
L403.006 204.315
L403.08 204.805
L403.229 208.969
L403.601 220.933
L403.75 219.654
L404.27 230.598
L404.494 226.272
L404.717 221.59
L404.791 221.831
L405.089 217.085
L405.386 208.549
L405.535 213.191
L405.684 217.298
L405.758 215.634
L406.354 184.438
L406.502 187.911
L406.651 197.536
L407.098 232.534
L407.395 243.478
L407.47 243.011
L407.842 234.417
L407.99 228.864
L408.065 229.734
L408.139 229.279
L408.437 217.293
L408.809 205.807
L408.958 208.532
L409.181 205.001
L409.255 205.657
L409.404 206.343
L409.478 206.274
L409.702 205.116
L409.85 206.308
L410.52 218.064
L410.594 218.018
L410.743 215.173
L410.818 215.265
L411.264 223.369
L411.338 223.289
L411.413 223.208
L411.562 224.193
L411.636 223.346
L411.71 223.531
L411.785 223.335
L411.934 217.621
L412.082 213.157
L412.231 213.6
L412.306 212.944
L412.454 214.804
L412.678 218.174
L413.05 222.909
L413.57 207.863
L413.645 208.192
L413.719 209.321
L414.017 205.018
L414.166 206.464
L414.24 205.583
L414.314 206.026
L414.612 211.792
L415.282 239.336
L415.356 239.244
L415.505 236.779
L415.728 219.101
L416.026 193.924
L416.1 192.715
L416.174 193.458
L416.621 213.946
L416.918 225.564
L417.067 220.72
L417.216 215.945
L417.365 218.203
L417.514 217.264
L417.811 222.528
L417.886 222.315
L418.109 219.896
L418.183 220.161
L418.258 220.409
L418.332 220.04
L418.704 212.973
L419.002 200.485
L419.076 201.124
L419.448 215.927
L419.746 228.265
L419.82 228.536
L419.969 223.698
L420.415 209.494
L420.713 212.667
L420.787 212.304
L420.862 211.216
L420.936 211.429
L421.457 222.678
L421.606 223.801
L421.68 223.387
L422.35 210.075
L422.424 210.214
L422.498 211.078
L422.573 210.795
L422.647 211.152
L423.019 218.934
L423.094 220.15
L423.391 211.561
L423.986 222.874
L424.135 223.721
L424.284 222.05
L424.954 203.526
L425.028 203.561
L425.623 220.345
L425.698 219.493
L425.995 209.517
L426.07 210.214
L426.144 211.671
L426.367 220.489
L426.888 226.399
L427.186 219.435
L427.26 219.683
L427.334 219.654
L427.558 213.595
L427.632 211.636
L427.706 212.529
L427.855 218.036
L428.078 208.267
L428.302 202.484
L428.376 203.365
L428.748 219.038
L428.897 211.06
L429.12 193.895
L429.194 193.844
L429.492 214.332
L430.013 259.41
L430.162 254.831
L430.31 250.534
L431.129 177.284
L431.203 177.456
L431.426 179.668
L431.65 191.885
L432.468 259.346
L432.542 260.827
L432.617 259.899
L432.84 249.036
L433.51 198.647
L433.733 194.005
L433.882 197.507
L434.03 200.548
L434.105 200.525
L434.254 200.934
L434.477 199.546
L434.774 201.919
L434.923 205.686
L435.146 213.883
L435.667 244.618
L435.742 244.468
L435.89 239.734
L436.114 227.638
L436.262 227.908
L436.411 224.493
L437.081 203.117
L437.378 199.679
L437.453 199.5
L437.602 198.509
L437.75 200.98
L438.346 220.219
L438.643 227.678
L438.941 239.855
L439.015 236.934
L439.313 223.352
L439.387 223.888
L439.462 223.398
L439.982 199.143
L440.206 189.599
L440.652 200.174
L441.098 231.589
L441.247 236.854
L441.47 247.429
L442.066 223.191
L442.438 200.969
L442.586 197.161
L442.661 196.695
L443.033 187.375
L443.182 189.777
L443.405 201.078
L443.777 227.534
L443.851 227.154
L444.074 225.524
L444.149 225.719
L444.446 233
L444.521 232.637
L444.893 225.109
L444.967 224.372
L445.265 215.899
L445.562 208.797
L445.637 209.039
L445.86 209.154
L445.934 208.958
L446.083 204.54
L446.306 198.411
L446.455 207.034
L446.976 245.638
L447.05 246.968
L447.125 246.951
L447.274 239.941
L447.571 212.961
L447.943 170.786
L448.092 164.162
L448.241 174.427
L448.836 264.824
L448.91 263.269
L449.134 234.457
L449.431 196.274
L449.506 193.314
L449.58 194.051
L449.803 209.661
L449.878 215.236
L449.878 215.236" style="fill:none;stroke:#808080;stroke-linecap:square;"/>
   </g>
  </g>
 </g>
 <defs>
  <clipPath id="p7ff5b81e1d">
   <rect height="345.6" width="446.4" x="72.0" y="43.2"/>
  </clipPath>
 </defs>
</svg>
