<?xml version="1.0" encoding="utf-8" standalone="no"?>
<!DOCTYPE svg PUBLIC "-//W3C//DTD SVG 1.1//EN"
  "http://www.w3.org/Graphics/SVG/1.1/DTD/svg11.dtd">
<!-- Created with matplotlib (http://matplotlib.org/) -->
<svg height="432pt" version="1.1" viewBox="0 0 576 432" width="576pt" xmlns="http://www.w3.org/2000/svg" xmlns:xlink="http://www.w3.org/1999/xlink">
 <defs>
  <style type="text/css">
*{stroke-linecap:butt;stroke-linejoin:round;}
  </style>
 </defs>
 <g id="figure_1">
  <g id="patch_1">
   <path d="
M0 432
L576 432
L576 0
L0 0
z
" style="fill:#ffffff;"/>
  </g>
  <g id="axes_1">
   <g id="line2d_1">
    <path clip-path="url(#p7ff5b81e1d)" d="
M72 124.187
L72.0744 119.418
L72.2232 116.39
L72.372 133.297
L72.8184 226.098
L72.8928 226.084
L73.0416 222.863
L73.116 224.411
L73.2648 230.784
L73.3392 229.982
L73.488 218.494
L74.0088 171.465
L74.1576 163.364
L74.3808 146.706
L74.5296 143.389
L74.6784 147.135
L74.8272 164.304
L75.1248 195.934
L75.4224 184.128
L75.4968 184.985
L75.5712 185.607
L75.7944 175.363
L75.9432 166.613
L76.092 174.147
L76.5384 211.292
L76.6128 212.674
L76.7616 205.375
L77.58 156.065
L77.6544 153.079
L77.7288 155.25
L78.0264 184.736
L78.1008 184.584
L78.1752 184.239
L78.324 178.239
L78.4728 183.243
L78.9936 210.366
L79.068 209.205
L79.6632 172.654
L80.0352 145.269
L80.184 142.932
L80.556 158.056
L80.7048 162.77
L80.928 194.15
L81.3 247.732
L81.4488 250.58
L81.672 234.115
L81.8952 197.15
L82.2672 132.108
L82.416 123.523
L82.5648 129.509
L82.9368 169.419
L83.0856 175.115
L83.2344 173.774
L83.4576 167.857
L83.6064 176.732
L83.8296 190.141
L83.904 190.445
L84.1272 196.611
L84.3504 193.736
L84.4992 187.777
L84.7224 182.676
L84.7968 183.52
L84.9456 181.363
L85.02 182.262
L85.2432 187.086
L85.3176 187.681
L85.6896 194.109
L85.764 191.496
L85.8384 191.579
L85.9128 190.971
L85.9872 191.178
L86.0616 191.676
L86.2848 203.482
L86.9544 161.291
L87.1032 156.328
L87.5496 180.547
L87.9216 198.007
L88.0704 185.552
L88.368 160.088
L88.4424 156.95
L88.5168 157.406
L88.8144 173.497
L88.8888 173.179
L89.0376 165.783
L89.2608 152.83
L89.4096 171.548
L89.7072 209.274
L89.7816 211.582
L89.9304 206.039
L90.1536 193.501
L90.228 195.353
L90.3768 202.998
L90.5256 197.261
L90.6 198.242
L90.7488 202.5
L90.8976 195.021
L90.972 195.795
L91.0464 196.735
L91.1208 196.127
L91.2696 191.261
L91.4184 182.331
L91.4928 183.202
L91.5672 184.308
L91.716 175.046
L92.1624 131.707
L92.2368 131.915
L92.3856 146.54
L92.6832 175.944
L93.204 221.826
L93.2784 223.139
L93.5016 200.537
L93.948 159.065
L94.2456 168.922
L94.32 168.507
L94.3944 167.069
L94.4688 167.774
L94.5432 168.991
L94.6176 168.064
L94.692 169.087
L94.9152 181.114
L94.9896 180.644
L95.064 180.603
L95.2128 186.16
L95.5848 210.103
L95.7336 206.716
L95.8824 195.339
L96.1056 172.225
L96.3288 167.774
L96.4032 166.599
L96.4776 167.94
L96.6264 173.525
L96.8496 166.253
L97.296 191.164
L97.5192 194.772
L97.5936 193.238
L97.8168 178.667
L97.8912 178.474
L98.04 174.949
L98.1144 175.032
L98.1888 175.322
L98.3376 169.461
L98.412 169.779
L98.784 189.118
L98.8584 188.621
L99.156 175.543
L99.4536 196.874
L99.528 196.597
L99.7512 190.086
L99.9 191.372
L99.9744 190.819
L100.272 174.866
L100.644 152.858
L100.718 153.439
L100.867 161.857
L101.165 180.907
L101.388 186.796
L101.686 211.472
L101.834 208.002
L102.058 188.303
L102.281 173.138
L102.504 199.182
L102.578 198.629
L102.876 173.456
L103.322 145.02
L103.397 145.545
L103.769 189.409
L103.992 210.822
L104.066 210.891
L104.141 210.117
L104.29 201.104
L104.587 180.589
L104.662 184.197
L104.736 183.16
L104.959 168.963
L105.182 144.149
L105.257 145.435
L105.926 211.458
L106.001 212.025
L106.447 195.726
L106.968 165.88
L107.042 164.387
L107.489 179.746
L107.563 180.174
L107.638 179.677
L107.786 172.156
L108.01 160.309
L108.084 158.623
L108.158 159.729
L108.382 179.124
L108.605 198.021
L108.977 189.105
L109.051 189.063
L109.274 197.745
L109.498 186.381
L109.721 178.806
L110.018 171.507
L110.316 178.267
L110.39 176.967
L110.539 181.253
L111.06 201.781
L111.358 183.589
L111.432 183.879
L111.506 186.202
L111.581 184.764
L112.102 154.6
L112.176 154.973
L112.474 172.184
L112.548 170.719
L112.622 170.829
L112.697 172.267
L112.771 171.272
L112.92 173.4
L113.069 170.594
L113.143 172.004
L113.366 187.722
L113.738 221.563
L113.887 226.388
L114.036 215.619
L114.482 174.99
L114.706 164.235
L114.854 159.397
L114.929 160.876
L115.152 174.506
L115.226 172.101
L115.598 160.931
L115.747 166.323
L115.822 164.512
L115.896 165.203
L116.342 190.058
L116.417 185.289
L116.491 181.723
L116.863 202.113
L116.938 200.274
L117.384 191.012
L117.458 190.86
L117.607 188.87
L117.83 181.128
L118.054 171.396
L118.202 170.345
L118.351 175.35
L118.5 184.239
L118.574 183.63
L118.946 169.917
L119.095 174.7
L119.244 172.322
L119.318 171.963
L119.393 169.143
L119.467 169.792
L119.616 175.198
L120.062 200.689
L120.137 200.095
L120.36 193.639
L120.509 191.289
L120.955 165.521
L121.03 167.622
L121.178 172.391
L121.55 203.606
L121.625 201.643
L121.997 174.479
L122.146 170.193
L122.22 171.88
L122.443 161.512
L122.518 164.166
L122.89 181.598
L122.964 183.52
L123.113 180.423
L123.336 182.455
L123.41 184.515
L123.782 210.559
L123.857 209.495
L124.303 169.447
L124.675 163.696
L124.75 164
L124.898 170.235
L124.973 168.687
L125.047 167.746
L125.419 193.915
L125.494 195.394
L125.568 194.731
L125.717 191.123
L125.866 194.109
L125.94 193.238
L126.014 192.713
L126.089 193.597
L126.163 193.376
L126.461 180.672
L126.982 163.779
L127.056 163.157
L127.354 171.285
L127.726 196.929
L128.023 190.902
L128.098 190.501
L128.246 185.953
L128.321 182.4
L128.395 182.718
L128.47 183.063
L128.618 178.073
L128.767 175.308
L128.99 176.787
L129.139 179.511
L129.214 179.538
L129.288 181.391
L129.362 180.603
L129.511 172.087
L129.586 172.806
L129.809 188.496
L129.883 186.865
L130.106 171.811
L130.181 173.318
L130.33 178.709
L130.404 178.93
L130.627 200.095
L130.702 195.892
L130.776 190.888
L130.925 197.523
L131.222 176.967
L131.371 177.354
L131.594 165.687
L131.669 167.235
L131.892 184.045
L131.966 184.211
L132.041 184.791
L132.115 184.321
L132.19 185.372
L132.338 191.178
L132.487 178.861
L132.562 179.414
L132.71 188.386
L132.934 181.432
L133.008 182.58
L133.082 183.962
L133.157 179.635
L133.306 159.328
L133.38 160.752
L133.454 163.185
L133.603 159.065
L133.752 174.216
L133.826 174.188
L133.901 176.29
L134.198 194.026
L134.273 194.219
L134.496 191.151
L134.57 192.547
L134.794 212.052
L134.868 211.444
L135.314 172.848
L135.389 174.714
L135.538 165.148
L135.686 177.962
L135.761 175.972
L135.835 172.668
L135.91 176.4
L135.984 186.257
L136.058 185.51
L136.207 162.742
L136.282 164.982
L136.356 163.668
L136.505 153.065
L136.728 165.825
L136.877 175.115
L136.951 173.165
L137.026 174.05
L137.249 191.247
L137.323 191.773
L137.546 208.016
L137.695 201.228
L137.844 205.818
L137.918 203.965
L137.993 200.261
L138.142 206.094
L138.365 196.21
L138.886 151.572
L139.109 163.751
L139.183 164.678
L139.258 168.769
L139.332 168.7
L139.481 165.562
L139.704 172.295
L139.853 184.626
L139.927 183.561
L140.076 176.649
L140.225 180.451
L140.522 199.238
L140.671 215.343
L140.82 212.619
L140.894 215.232
L141.564 160.586
L141.713 153.784
L141.787 154.351
L141.862 152.374
L141.936 155.18
L142.308 192.989
L142.382 197.33
L142.457 196.542
L142.531 196.431
L142.829 210.753
L143.424 185.69
L143.573 187.75
L143.87 167.677
L144.168 123.095
L144.317 112.05
L144.391 110.902
L144.466 107.64
L144.614 127.781
L145.358 276.569
L145.582 260.948
L146.028 195.574
L146.623 116.971
L146.698 115.257
L147.293 162.134
L147.516 177.714
L148.037 226.761
L148.186 241.65
L148.26 238.636
L148.855 170.014
L148.93 170.898
L149.004 170.608
L149.302 159.95
L149.376 160.378
L149.525 164.111
L149.599 162.687
L150.194 180.658
L150.343 184.57
L150.418 183.782
L150.492 186.284
L150.566 186.063
L150.641 183.533
L151.013 198.643
L151.087 198.546
L151.385 184.073
L151.682 155.25
L151.831 167.594
L152.129 205.956
L152.203 203.385
L152.426 189.201
L152.501 187.985
L152.873 177.036
L153.17 174.728
L153.245 175.253
L153.319 177.562
L153.394 177.285
L153.84 155.001
L153.914 155.678
L154.435 202.403
L154.51 202.873
L154.584 205.624
L154.807 194.289
L154.956 208.292
L155.105 192.16
L155.402 168.092
L155.477 167.802
L155.7 177.893
L155.774 179.151
L155.923 192.726
L155.998 190.404
L156.37 167.138
L156.444 169.309
L156.593 177.727
L156.965 171.811
L157.114 179.649
L157.262 190.017
L157.337 190.404
L157.486 193.625
L157.858 161.802
L158.006 154.572
L158.527 192.602
L158.602 191.247
L158.676 191.151
L158.75 192.021
L158.825 191.026
L158.974 194.703
L159.122 196.611
L159.197 195.491
L159.346 202.21
L159.494 192.934
L159.569 195.27
L159.643 201.283
L159.941 187.777
L160.313 154.462
L160.685 173.359
L160.759 171.037
L160.834 172.447
L160.982 186.243
L161.131 179.428
L161.206 185.22
L161.28 184.529
L161.429 176.967
L161.578 185.082
L161.726 173.221
L161.801 174.658
L161.875 172.778
L161.95 167.664
L162.024 169.544
L162.247 180.492
L162.47 194.219
L162.694 210.781
L163.214 176.801
L163.363 183.312
L163.81 157.033
L164.033 171.534
L164.107 170.802
L164.256 176.027
L164.33 175.294
L164.479 173.47
L164.554 173.663
L164.628 175.018
L164.702 174.479
L165.074 194.703
L165.298 197.537
L165.372 201.588
L165.521 216.352
L165.595 215.965
L165.744 229.747
L165.818 223.347
L166.265 147.978
L166.711 110.211
L166.86 127.671
L167.083 169.502
L167.381 227.964
L167.53 238.097
L167.827 209.854
L168.05 194.302
L168.199 198.228
L168.348 195.339
L168.497 197.288
L168.646 182.704
L169.092 120.579
L169.166 122.431
L169.315 137.03
L169.836 221.024
L169.91 220.983
L170.208 201.56
L170.58 179.76
L170.654 178.64
L170.803 179.4
L170.952 172.654
L171.324 193.915
L171.398 202.362
L171.473 200.136
L171.696 169.046
L171.77 170.262
L171.845 174.893
L171.994 166.281
L172.142 159.01
L172.44 169.419
L172.589 163.986
L173.184 213.131
L173.258 214.955
L173.333 214.582
L173.556 193.224
L174.002 129.689
L174.077 132.26
L174.374 189.008
L174.672 243.502
L174.821 237.751
L174.97 218.453
L175.342 162.659
L175.639 134.14
L175.714 135.855
L175.788 136.007
L175.862 137.486
L176.458 187.031
L176.755 222.13
L176.904 230.203
L177.053 222.517
L177.499 176.442
L177.574 169.405
L177.648 169.917
L177.871 177.202
L177.946 177.271
L178.02 175.419
L178.169 162.314
L178.243 162.853
L178.392 171.175
L178.466 170.857
L178.615 174.078
L178.838 162.576
L178.987 165.687
L179.062 165.493
L179.21 176.621
L179.285 174.866
L179.359 173.635
L179.582 188.275
L179.954 170.47
L180.029 170.373
L180.847 219.255
L180.996 210.753
L181.145 211.9
L181.294 212.771
L181.368 214.969
L182.186 126.855
L182.261 128.79
L182.41 131.251
L183.005 177.617
L183.154 186.423
L183.451 217.513
L183.749 201.933
L183.823 203.191
L183.972 213.808
L184.121 200.274
L184.195 202.362
L184.27 200.841
L184.567 184.778
L185.014 158.125
L185.162 166.267
L185.237 165.659
L185.311 162.01
L185.386 164.387
L185.534 177.396
L185.609 175.903
L185.832 174.603
L186.278 201.27
L186.353 200.565
L186.725 164.567
L186.799 169.889
L186.874 169.336
L186.948 167.415
L187.022 167.899
L187.171 173.871
L187.246 167.594
L187.618 189.298
L187.692 186.202
L187.915 166.226
L187.99 166.737
L188.138 181.529
L188.213 178.322
L188.362 172.17
L188.882 215.66
L188.957 216.02
L189.18 204.753
L189.254 207.753
L189.775 191.247
L190.147 138.578
L190.222 142.296
L190.296 143.969
L190.445 136.877
L190.742 151.116
L190.817 152.734
L191.114 183.934
L191.189 181.958
L191.263 178.156
L191.412 186.907
L191.561 197.565
L191.71 192.215
L192.082 213.366
L192.23 217.955
L192.305 220.25
L192.454 213.02
L193.272 148.78
L193.421 134.237
L193.57 137.458
L193.718 135.08
L193.793 136.753
L194.09 167.041
L194.165 168.382
L194.239 167.318
L194.314 170.58
L194.611 197.302
L194.76 202.445
L194.983 215.329
L195.281 243.903
L195.504 224.245
L196.248 146.54
L196.471 130.118
L196.62 132.246
L196.843 147.992
L197.29 188.275
L197.364 192.823
L197.438 192.395
L197.513 191.8
L197.587 193.694
L197.662 193.597
L197.81 187.377
L197.885 187.114
L198.034 183.686
L198.108 184.501
L198.257 192.588
L198.406 182.828
L198.629 190.736
L198.703 190.459
L198.852 183.478
L198.926 186.132
L199.075 194.123
L199.298 184.474
L199.522 195.975
L199.596 194.095
L199.819 209.398
L199.968 196.763
L200.042 197.247
L200.117 199.251
L200.191 196.293
L200.638 155.982
L200.712 155.305
L200.935 145.739
L201.158 153.674
L201.233 153.148
L201.382 155.402
L201.902 181.57
L202.051 194.634
L202.126 194.178
L202.2 195.146
L202.423 207.394
L202.646 203.081
L202.87 217.776
L203.539 169.668
L203.614 170.014
L203.688 170.732
L203.837 167.401
L203.911 167.926
L204.283 189.893
L204.506 185.593
L204.73 170.083
L204.804 171.811
L204.878 171.59
L205.027 163.751
L205.176 155.277
L205.25 156.466
L205.92 193.805
L206.069 199.486
L206.143 199.348
L206.218 198.92
L206.292 200.039
L206.366 195.712
L206.515 178.529
L206.738 193.943
L206.887 190.058
L206.962 190.722
L207.036 190.598
L207.11 190.045
L207.334 181.529
L207.631 165.037
L207.706 165.078
L207.78 165.535
L208.003 186.174
L208.152 176.704
L208.301 186.492
L208.673 155.056
L208.747 157.89
L209.045 173.539
L209.342 202.002
L209.491 209.191
L209.64 204.684
L209.714 206.26
L209.863 204.214
L210.012 211.831
L210.086 210.034
L210.235 195.533
L210.31 197.261
L210.384 199.542
L210.458 196.348
L210.83 157.655
L210.905 154.24
L211.128 134.14
L211.277 142.421
L211.5 161.083
L211.649 166.24
L211.723 166.696
L211.872 173.58
L212.244 206.219
L212.467 209.91
L212.914 192.118
L212.988 194.648
L213.062 199.694
L213.137 198.201
L213.286 189.022
L213.36 190.169
L213.658 177.534
L213.732 178.391
L213.881 185.842
L213.955 185.524
L214.178 176.096
L214.253 177.382
L214.327 177.658
L214.774 143.969
L215.146 165.327
L215.369 178.958
L215.443 179.455
L215.815 191.164
L216.187 224.328
L216.262 223.443
L216.336 225.932
L216.41 222.821
L216.857 179.207
L216.931 175.46
L217.006 175.958
L217.08 174.7
L217.675 140.693
L218.047 168.479
L218.27 198.906
L218.345 204.449
L218.717 180.769
L218.791 182.69
L218.866 182.165
L219.089 170.815
L219.163 172.322
L219.312 169.944
L219.61 185.842
L220.056 217.126
L220.13 217.236
L220.205 220.029
L220.279 217.928
L220.8 163.71
L220.949 169.889
L221.098 168.839
L221.246 171.811
L221.693 152.443
L221.767 155.125
L222.214 185.358
L222.288 184.916
L222.362 185.649
L222.734 201.256
L223.255 170.774
L223.33 170.967
L223.478 174.797
L223.553 174.382
L223.627 175.059
L223.776 177.451
L223.85 177.244
L224.148 187.114
L224.371 177.603
L224.52 184.128
L224.818 201.145
L224.892 201.85
L225.041 211.223
L225.115 209.481
L225.636 166.544
L225.71 168.051
L225.934 177.52
L226.008 177.368
L226.082 178.64
L226.157 183.423
L226.231 182.234
L226.529 163.668
L226.752 152.844
L227.198 178.225
L227.347 166.765
L227.422 166.806
L228.017 221.632
L228.091 221.619
L228.686 171.313
L228.984 176.317
L229.058 174.672
L229.356 161.304
L229.579 145.697
L229.654 147.702
L230.1 173.359
L230.398 193.044
L230.546 215.135
L230.621 213.974
L230.695 209.979
L230.77 210.532
L230.993 215.412
L231.067 214.9
L231.216 205.5
L231.29 205.334
L232.183 154.918
L232.332 142.836
L232.481 130.09
L233.374 208.873
L233.522 204.601
L233.746 182.331
L233.82 183.796
L234.043 198.118
L234.118 197.827
L234.415 221.287
L234.49 218.384
L235.159 151.628
L235.234 150.204
L235.382 158.07
L235.606 185.414
L235.68 185.331
L235.829 183.063
L235.978 179.995
L236.052 180.299
L236.201 182.234
L236.35 177.852
L236.424 175.018
L236.498 175.529
L236.573 176.4
L236.796 162.41
L237.019 167.166
L237.094 166.281
L237.242 171.382
L237.391 179.276
L237.54 196.818
L237.689 216.103
L237.986 205.32
L238.284 178.529
L238.433 182.718
L238.73 177.202
L239.028 167.581
L239.102 168.189
L239.177 167.871
L239.251 169.723
L239.474 187.86
L239.549 185.275
L239.623 185.179
L239.921 199.376
L239.995 198.768
L240.367 179.787
L240.442 180.63
L240.665 176.207
L240.739 173.013
L240.962 179.442
L241.111 171.52
L241.186 172.668
L241.26 172.364
L241.409 164.221
L241.483 169.032
L241.558 166.889
L241.632 162.715
L241.706 164.208
L241.855 170.442
L241.93 169.986
L242.599 206.15
L242.674 204.09
L242.822 196.652
L242.971 200.565
L243.046 199.417
L243.194 200.399
L243.715 165.313
L243.79 165.106
L244.013 171.866
L244.162 181.64
L244.385 175.128
L244.534 165.742
L244.608 167.29
L244.831 176.787
L245.054 188.317
L245.203 197.109
L245.278 195.975
L245.426 188.704
L245.575 190.031
L245.724 180.575
L245.873 185.234
L246.17 169.35
L246.319 166.171
L246.766 188.427
L246.914 187.072
L247.138 196.307
L247.212 196.196
L247.361 198.27
L247.584 188.317
L247.658 188.717
L248.03 153.314
L248.477 188.966
L248.551 186.644
L248.7 191.33
L248.774 195.187
L249.072 180.7
L249.295 168.645
L249.444 179.773
L249.518 179.055
L249.816 160.447
L249.965 150.66
L250.114 170.636
L250.337 198.519
L250.56 209.149
L250.634 209.758
L250.709 207.325
L251.081 172.336
L251.155 175.875
L251.453 198.643
L251.527 199.473
L252.048 172.474
L252.197 163.254
L252.346 166.848
L252.42 164.498
L252.569 174.244
L252.643 173.718
L252.792 167.304
L252.941 172.792
L253.015 172.654
L253.313 158.581
L253.387 158.789
L253.834 205.458
L253.908 205.251
L254.206 192.616
L254.354 196.196
L254.578 179.663
L254.652 181.322
L254.726 180.935
L254.95 200.592
L255.024 198.92
L255.173 180.423
L255.322 183.921
L255.545 170.456
L255.619 172.198
L255.694 171.99
L255.768 169.074
L255.991 185.759
L256.066 182.372
L256.289 164.387
L256.661 181.28
L256.735 181.059
L256.884 178.46
L257.107 192.796
L257.182 188.427
L257.33 171.797
L257.777 197.067
L258 181.294
L258.074 186.381
L258.149 187.459
L258.298 180.575
L258.446 185.524
L258.67 176.069
L258.818 179.317
L258.893 179.193
L259.042 178.267
L259.116 178.847
L259.19 177.838
L259.414 163.89
L259.86 188.026
L260.083 181.667
L260.158 184.902
L260.232 183.879
L260.455 173.456
L260.827 192.45
L260.976 201.961
L261.199 190.667
L261.348 204.477
L261.422 202.389
L261.72 168.548
L261.869 179.58
L262.241 158.913
L262.464 176.317
L262.538 175.737
L262.762 170.788
L262.836 171.894
L262.985 167.221
L263.282 196.03
L263.506 209.039
L264.101 171.811
L264.25 167.94
L264.324 163.461
L264.473 175.128
L264.547 174.437
L264.622 171.797
L264.77 175.225
L264.845 172.986
L264.919 175.764
L265.142 195.381
L265.291 206.633
L265.514 186.077
L265.589 191.468
L265.663 196.984
L265.738 196.459
L266.11 163.24
L266.258 170.332
L266.482 167.442
L266.63 156.936
L266.779 165.645
L266.928 161.761
L267.077 188.068
L267.374 230.369
L267.449 231.171
L268.193 147.328
L268.714 183.796
L268.862 176.815
L269.011 181.543
L269.16 164.028
L269.234 164.664
L269.309 166.323
L269.383 165.355
L269.458 167.677
L269.681 195.657
L269.755 191.966
L269.83 193.196
L269.978 197.482
L270.202 182.801
L270.276 187.985
L270.35 194.344
L270.425 193.169
L270.946 165.258
L271.02 165.535
L271.243 180.271
L271.392 200.731
L271.838 175.294
L271.987 160.627
L272.062 162.673
L272.285 197.8
L272.359 195.878
L272.434 193.487
L272.582 196.404
L273.103 148.393
L273.178 150.218
L273.624 196.169
L273.698 195.878
L273.847 197.689
L273.922 199.39
L273.996 198.823
L274.145 195.934
L274.889 160.323
L275.186 182.607
L275.484 200.565
L275.558 200.717
L275.782 205.071
L275.93 189.754
L276.154 174.506
L276.228 173.732
L276.377 167.539
L276.451 167.857
L276.526 169.267
L276.823 148.186
L276.898 146.402
L276.972 148.393
L277.493 202.901
L277.567 204.062
L277.716 209.854
L277.79 210.2
L277.865 209.882
L278.014 201.035
L278.237 216.269
L278.981 139.186
L279.055 141.605
L279.353 149.914
L279.725 171.825
L279.874 181.239
L280.022 193.791
L280.097 193.252
L280.171 190.915
L280.246 191.98
L280.32 193.155
L280.469 202.804
L280.618 216.407
L280.692 215.854
L280.841 207.49
L280.99 214.223
L281.138 200.952
L281.51 161.235
L281.659 173.663
L281.808 168.147
L282.031 163.53
L282.18 169.267
L282.254 168.866
L282.478 154.918
L282.552 151.42
L282.626 152.264
L282.775 159.964
L283.37 218.702
L283.891 181.045
L284.114 163.585
L284.338 174.271
L284.412 173.013
L284.784 186.92
L284.858 189.187
L285.007 185.566
L285.156 188.939
L285.23 189.091
L285.379 195.989
L285.454 195.864
L285.602 189.561
L285.826 171.244
L285.9 176.331
L285.974 174.009
L286.198 156.024
L286.272 160.019
L286.495 181.266
L286.57 181.28
L286.718 184.944
L286.942 173.221
L287.016 173.359
L287.239 184.584
L287.611 168.092
L287.686 168.313
L287.983 188.026
L288.132 193.003
L288.206 193.542
L288.355 197.496
L288.504 204.56
L288.578 203.965
L288.802 190.086
L288.876 192.561
L288.95 193.929
L289.322 168.258
L289.397 169.032
L289.62 177.327
L289.769 177.893
L289.918 181.156
L290.066 174.907
L290.215 176.11
L290.364 161.94
L290.438 165.701
L290.662 190.57
L290.81 186.893
L290.885 188.04
L290.959 193.459
L291.034 192.326
L291.257 178.502
L291.48 166.931
L291.778 200.537
L292.522 155.982
L292.596 157.655
L293.117 183.451
L293.191 184.003
L293.414 173.414
L294.158 225.254
L294.233 223.692
L294.307 223.402
L294.382 224.577
L294.754 158.291
L294.902 134.071
L295.051 140.085
L295.2 150.729
L295.349 166.945
L295.423 166.696
L295.498 173.4
L295.721 212.55
L296.316 137.14
L296.39 138.578
L296.688 173.926
L296.986 185.87
L297.432 213.352
L297.506 213.988
L297.73 222.503
L297.804 222.241
L298.399 177.285
L298.622 158.056
L298.697 157.641
L298.846 153.287
L298.92 156.134
L299.143 169.101
L299.366 158.913
L299.59 170.539
L299.664 169.654
L299.738 167.152
L299.813 168.7
L300.036 178.267
L300.185 173.359
L300.334 183.81
L300.706 208.334
L300.78 209.868
L300.929 200.302
L301.152 185.483
L301.301 181.045
L301.45 176.898
L301.524 176.552
L301.598 177.299
L301.673 179.746
L301.896 168.41
L302.119 196.155
L302.342 194.15
L302.417 194.275
L302.566 183.589
L302.789 152.485
L302.938 159.521
L303.086 152.125
L303.384 174.976
L303.83 231.199
L303.905 228.821
L304.128 209.412
L304.202 206.44
L304.798 138.122
L304.872 138.329
L305.244 186.837
L305.318 186.146
L305.542 162.728
L305.616 166.157
L305.765 159.231
L305.914 167.76
L306.137 181.308
L306.211 183.202
L306.732 235.083
L306.881 214.707
L306.955 215.204
L307.03 213.2
L307.55 141.868
L307.625 142.034
L307.848 161.982
L308.071 184.474
L308.146 181.805
L308.369 172.723
L308.443 172.35
L308.592 177.119
L308.666 171.921
L308.741 173.926
L308.89 187.791
L308.964 185.151
L309.113 187.349
L309.634 145.476
L309.708 146.623
L309.857 158.388
L310.154 212.592
L310.526 275.104
L310.601 280.163
L310.898 243.889
L311.122 174.603
L311.494 81.0147
L311.568 78.789
L311.717 85.7149
L312.089 141.315
L312.833 232.858
L313.056 225.337
L313.13 228.558
L313.205 228.309
L313.651 172.599
L313.726 174.368
L313.949 192.685
L314.023 190.805
L314.172 174.935
L314.544 108.552
L314.618 106.161
L314.693 112.907
L315.362 256.04
L315.437 258.142
L315.66 244.401
L316.032 198.795
L316.181 167.871
L316.553 74.1995
L316.702 92.8342
L316.85 142.725
L317.074 212.84
L317.222 224.508
L317.446 193.431
L317.669 172.516
L318.115 190.611
L318.19 189.837
L318.338 177.119
L318.487 178.902
L318.562 177.548
L318.71 182.4
L318.785 182.096
L318.859 183.16
L319.306 207.504
L319.38 203.592
L319.454 204.408
L319.529 206.633
L319.603 202.763
L319.752 185.22
L319.826 186.105
L319.975 180.865
L320.05 182.483
L320.124 183.133
L320.347 170.345
L320.422 170.954
L320.57 163.046
L320.645 164.968
L320.794 176.718
L320.942 169.433
L321.017 170.815
L321.091 173.083
L321.314 157.641
L321.538 140.721
L321.686 166.24
L321.91 195.173
L321.984 196.473
L322.133 210.518
L322.207 216.49
L322.282 216.02
L322.356 216.365
L322.579 225.807
L322.654 224.535
L322.877 212.799
L323.323 97.41
L323.472 126.579
L323.993 249.087
L324.142 227.231
L324.514 158.194
L324.588 153.881
L324.662 154.558
L324.886 171.216
L324.96 171.797
L325.034 170.097
L325.183 160.42
L325.258 161.346
L325.778 178.944
L326.076 199.597
L326.15 200.012
L326.374 216.697
L326.894 172.53
L326.969 178.502
L327.043 179.594
L327.192 171.755
L327.266 171.202
L327.564 152.955
L327.638 152.153
L327.787 156.701
L327.862 154.641
L328.382 214.485
L328.457 212.218
L328.68 230.922
L329.498 126.095
L329.573 129.357
L329.796 166.723
L330.094 211.444
L330.242 219.269
L330.391 216.02
L330.54 189.754
L330.689 164.595
L331.21 199.97
L331.284 199.694
L331.433 200.247
L331.656 196.805
L331.805 184.598
L331.879 179.11
L332.028 185.953
L332.177 174.576
L332.4 145.835
L332.623 104.529
L332.698 110.695
L332.846 169.944
L333.07 274.841
L333.218 202.016
L333.516 68.3381
L333.59 83.6551
L334.037 310.244
L334.111 305.005
L334.632 150.992
L334.706 144.011
L334.781 147.425
L334.93 153.812
L335.004 154.793
L335.302 178.225
L335.376 176.041
L335.748 108.068
L335.822 120.69
L336.269 287.158
L336.418 280.91
L336.492 281.988
L336.79 210.573
L337.162 97.4238
L337.31 81.8994
L337.385 81.2912
L337.534 100.147
L338.129 210.269
L338.203 214.25
L338.278 213.103
L338.426 200.772
L338.724 222.89
L338.798 222.213
L339.022 206.44
L339.096 206.205
L339.17 202.998
L339.394 234.751
L339.468 228.614
L339.617 197.8
L339.914 110.861
L339.989 105.483
L340.138 135.232
L340.584 225.545
L340.658 230.107
L340.733 228.779
L341.254 154.061
L341.402 131.749
L341.551 150.453
L341.923 199.403
L341.998 197.537
L342.072 197.192
L342.146 194.579
L342.37 158.844
L342.518 147.633
L342.667 156.107
L343.411 215.771
L343.56 194.136
L343.709 207.242
L343.858 196.832
L343.932 198.878
L344.006 196.293
L344.378 160.24
L344.453 163.738
L344.676 186.409
L344.75 188.165
L344.825 192.671
L344.899 192.326
L345.122 174.963
L345.271 166.101
L345.346 158.885
L345.42 159.894
L345.866 207.891
L345.941 209.923
L346.09 220.914
L346.238 198.533
L346.685 108.4
L346.759 109.395
L347.503 219.02
L347.652 228.696
L348.098 179.967
L348.173 181.958
L348.247 181.944
L348.396 164.913
L348.47 168.272
L348.619 185.344
L348.917 167.926
L349.066 157.282
L349.14 158.277
L349.214 160.724
L349.363 179.594
L349.661 230.577
L349.884 218.149
L350.405 135.578
L350.554 151.531
L350.628 149.941
L350.702 146.623
L350.926 169.157
L351 164.221
L351.074 160.682
L351.149 161.387
L351.298 189.588
L351.521 233.853
L351.595 233.632
L351.744 241.594
L352.265 158.747
L352.414 151.462
L352.562 164.622
L352.711 161.111
L352.786 162.134
L352.934 158.996
L353.53 201.519
L353.678 185.731
L353.753 186.865
L353.827 184.764
L353.976 170.995
L354.274 182.566
L354.348 180.658
L354.422 185.054
L354.571 205.569
L354.646 205.265
L354.72 203.592
L354.869 187.003
L355.092 155.222
L355.166 152.761
L355.613 169.502
L355.687 168.078
L355.762 162.521
L355.836 164.926
L356.134 183.437
L356.431 193.597
L356.58 178.75
L356.654 179.234
L356.803 205.583
L357.026 269.574
L357.175 278.311
L357.324 243.682
L357.845 97.3685
L357.919 101.737
L358.217 172.295
L358.366 220.941
L358.589 193.584
L359.035 88.4797
L359.11 94.6037
L360.077 274.661
L360.3 303.194
L360.374 300.028
L360.449 300.277
L360.523 302.323
L360.598 294.706
L361.565 52.5373
L361.639 52.4405
L361.788 62.532
L362.086 100.451
L362.383 160.047
L362.606 212.37
L363.053 320.059
L363.127 327.483
L363.797 189.81
L364.094 111.358
L364.318 86.9037
L364.392 84.9684
L364.466 87.664
L365.285 190.86
L365.359 190.058
L365.508 172.198
L365.582 173.995
L365.806 208.417
L365.954 205.749
L366.029 206.385
L366.252 197.592
L366.401 186.851
L366.475 191.109
L366.55 189.257
L366.773 171.534
L366.847 172.709
L366.922 179.179
L367.294 261.404
L367.368 256.884
L367.517 232.83
L368.112 91.0509
L368.186 88.1617
L368.335 106.188
L368.856 193.293
L368.93 191.482
L369.154 207.408
L369.302 197.247
L369.451 211.79
L369.6 223.001
L369.749 193.888
L369.823 195.118
L369.898 202.486
L370.046 178.529
L370.121 183.893
L370.195 195.367
L370.27 193.915
L370.418 181.681
L370.642 195.519
L370.716 193.39
L371.162 159.535
L371.237 162.106
L371.386 172.46
L371.534 162.991
L371.609 164.982
L371.832 177.617
L371.906 177.603
L372.055 171.977
L372.204 189.16
L372.353 176.691
L372.427 179.317
L372.576 195.975
L372.725 186.796
L372.799 187.211
L372.874 183.948
L373.246 113.349
L373.32 121.948
L373.766 238.207
L373.915 258.1
L374.287 213.863
L374.51 179.068
L374.734 160.116
L374.882 151.448
L375.031 164.249
L375.18 156.48
L375.329 173.262
L375.403 171.52
L375.552 165.936
L375.626 168.604
L375.701 167.94
L375.775 169.931
L375.924 183.063
L376.073 164.678
L376.147 170.719
L376.222 170.304
L376.37 150.701
L377.04 220.9
L377.114 216.766
L377.263 199.058
L377.338 204.048
L377.412 203.233
L377.635 177.852
L377.71 179.594
L377.933 154.337
L378.156 167.746
L378.379 184.114
L378.528 174.313
L379.123 219.407
L379.272 203.122
L379.495 180.506
L379.942 142.2
L380.016 141.509
L380.239 155.913
L380.611 184.349
L380.686 184.266
L380.834 193.404
L381.132 207.684
L381.206 205.762
L381.504 186.754
L381.802 179.732
L381.95 190.515
L382.025 189.533
L382.099 185.372
L382.174 186.215
L382.248 187.28
L382.397 170.207
L382.471 173.442
L382.546 175.267
L382.694 148.172
L382.769 153.798
L382.918 166.198
L382.992 167.456
L383.141 175.474
L383.215 173.069
L383.438 193.473
L383.513 188.69
L383.587 188.275
L383.662 187.003
L383.736 182.193
L383.81 182.718
L383.885 188.883
L383.959 186.796
L384.034 181.004
L384.182 196.182
L384.257 195.201
L384.406 186.478
L384.48 187.473
L384.629 175.073
L384.703 175.253
L384.852 185.151
L385.001 179.953
L385.447 204.325
L385.67 186.782
L385.745 187.266
L386.042 177.216
L386.191 173.774
L386.414 180.243
L386.489 178.75
L386.563 174.838
L386.638 175.211
L386.712 174.341
L387.01 128.611
L387.158 123.703
L387.382 139.255
L387.754 203.938
L387.977 238.705
L388.051 237.641
L388.2 249.737
L388.274 248.313
L388.423 241.815
L388.498 241.041
L388.795 214.389
L389.018 167.691
L389.316 120.8
L389.39 118.367
L389.539 133.38
L389.614 132.246
L389.688 130.2
L389.911 146.084
L389.986 145.628
L390.804 197.897
L391.176 229.595
L391.325 225.448
L391.622 213.02
L392.143 157.475
L392.218 157.918
L392.441 164.691
L392.887 196.583
L392.962 194.62
L393.11 177.327
L393.185 167.014
L393.259 169.101
L393.706 193.418
L393.929 147.992
L394.152 115.298
L394.226 117.634
L394.375 135.841
L394.896 250.027
L395.194 241.912
L395.342 208.942
L395.714 134.431
L395.789 128.155
L396.086 156.107
L396.384 192.049
L396.458 195.284
L396.533 192.588
L396.756 170.539
L396.83 173.718
L397.128 205.928
L397.277 214.43
L397.723 190.307
L397.946 181.46
L398.17 177.091
L398.244 176.87
L398.318 174.755
L398.542 132.039
L398.69 102.387
L398.765 104.405
L399.137 158.581
L399.658 264.722
L400.03 242.908
L400.55 111.856
L400.625 116.045
L401.146 186.271
L401.22 189.727
L401.294 189.201
L401.518 182.787
L401.741 163.82
L401.815 168.728
L402.336 242.023
L402.41 241.719
L402.634 221.425
L402.782 203.592
L403.08 163.585
L403.303 149.637
L403.378 150.549
L403.452 154.821
L403.526 154.752
L403.601 149.084
L403.824 112.119
L403.898 111.967
L403.973 115.271
L404.122 140.181
L404.568 233.936
L405.163 191.538
L405.312 181.847
L405.461 190.072
L405.758 210.739
L405.833 208.79
L405.982 192.215
L406.354 121.243
L406.502 110.764
L406.577 110.93
L406.726 122.017
L406.949 164.208
L407.395 282.748
L407.47 285.347
L407.618 266.215
L408.214 137.292
L408.437 109.561
L408.511 110.944
L408.958 148.918
L409.702 228.047
L409.925 232.733
L410.074 209.26
L410.594 124.187
L410.669 124.878
L410.892 164.304
L411.413 256.566
L411.562 260.989
L411.636 257.326
L412.157 169.433
L412.529 115.312
L412.752 116.985
L412.826 120.773
L412.901 120.399
L412.975 121.104
L413.794 187.736
L413.942 191.938
L414.389 217.14
L414.538 217.029
L414.612 217.831
L414.686 217.623
L414.835 209.384
L414.984 218.315
L415.133 211.334
L415.207 213.352
L415.282 212.177
L416.026 133.864
L416.1 139.822
L416.174 138.08
L416.249 134.624
L416.472 155.747
L416.993 217.554
L417.439 195.657
L417.662 168.313
L417.737 166.668
L417.96 155.18
L418.258 166.945
L418.332 166.157
L418.406 162.397
L418.481 166.544
L418.63 181.64
L418.778 178.93
L419.15 195.629
L419.225 195.643
L419.374 197.537
L419.522 202.417
L419.597 201.104
L419.894 170.11
L420.118 186.036
L420.192 185.427
L420.415 195.699
L420.49 195.477
L420.638 189.257
L420.936 171.368
L421.308 176.262
L421.606 188.289
L421.68 190.363
L421.978 165.3
L422.126 165.396
L422.201 164.843
L422.275 165.175
L422.424 171.963
L422.498 169.972
L422.573 166.447
L422.647 168.493
L423.168 202.528
L423.317 198.92
L423.614 172.917
L423.689 164.152
L423.763 164.456
L424.135 196.196
L424.21 195.795
L424.358 202.265
L424.433 200.039
L424.805 168.548
L424.879 170.802
L425.177 193.584
L425.251 194.358
L425.326 193.957
L425.549 185.289
L425.772 193.349
L425.995 206.26
L426.144 190.68
L426.739 121.187
L426.962 135.523
L427.186 160.392
L427.334 172.668
L427.93 235.843
L428.004 234.198
L428.897 167.829
L429.046 178.432
L429.12 178.032
L429.343 164.816
L429.492 155.872
L429.566 156.051
L429.79 166.488
L430.162 196.321
L430.236 193.487
L430.682 155.512
L430.757 157.627
L431.054 184.57
L431.129 187.031
L431.352 208.417
L431.426 207.38
L431.724 185.358
L431.873 168.272
L431.947 167.871
L432.542 190.943
L432.691 195.574
L432.766 193.404
L433.138 168.783
L433.212 169.087
L433.361 162.908
L433.435 160.102
L433.584 169.004
L433.807 178.349
L433.956 175.626
L434.105 183.575
L434.179 181.861
L434.254 182.621
L434.402 196.556
L434.477 196.086
L435.072 178.114
L435.295 188.717
L435.37 185.455
L435.444 187.667
L435.518 186.976
L435.816 162.507
L436.262 195.27
L436.337 192.906
L436.411 189.215
L436.486 190.058
L436.634 198.505
L436.709 197.33
L437.006 176.055
L437.378 159.549
L437.453 159.798
L437.75 172.225
L437.974 186.644
L438.122 182.206
L438.197 182.801
L438.271 184.584
L438.346 183.907
L438.42 182.165
L438.494 182.621
L438.941 192.464
L439.015 191.828
L439.164 189.837
L439.238 190.045
L439.759 174.05
L439.982 163.572
L440.057 163.903
L440.28 179.677
L440.652 204.975
L440.801 202.597
L440.875 201.477
L441.247 172.281
L441.47 154.669
L441.694 168.811
L441.768 169.599
L441.991 187.432
L442.066 184.114
L442.214 178.253
L442.363 186.685
L442.438 191.413
L442.512 189.74
L442.661 178.101
L442.81 189.257
L443.182 180.23
L443.33 178.916
L443.479 171.714
L443.628 188.358
L443.702 188.109
L443.851 182.082
L443.926 185.994
L444 184.709
L444.223 172.737
L444.298 172.295
L444.744 204.269
L444.893 194.648
L444.967 195.768
L445.042 199.168
L445.116 199.155
L445.488 169.004
L445.86 155.498
L446.009 149.831
L446.083 151.434
L446.678 201.297
L447.05 190.058
L447.125 190.473
L447.199 189.699
L447.348 185.814
L447.497 195.394
L448.018 165.41
L448.241 177.562
L448.613 191.842
L448.762 182.013
L448.91 176.221
L448.985 175.502
L449.059 176.151
L449.208 178.723
L449.282 177.741
L449.431 171.437
L449.58 175.778
L449.729 171.244
L449.878 179.704
L449.878 179.704" style="fill:none;stroke:#808080;stroke-linecap:square;"/>
   </g>
  </g>
 </g>
 <defs>
  <clipPath id="p7ff5b81e1d">
   <rect height="345.6" width="446.4" x="72.0" y="43.2"/>
  </clipPath>
 </defs>
</svg>
