<?xml version="1.0" encoding="utf-8" standalone="no"?>
<!DOCTYPE svg PUBLIC "-//W3C//DTD SVG 1.1//EN"
  "http://www.w3.org/Graphics/SVG/1.1/DTD/svg11.dtd">
<!-- Created with matplotlib (http://matplotlib.org/) -->
<svg height="432pt" version="1.1" viewBox="0 0 576 432" width="576pt" xmlns="http://www.w3.org/2000/svg" xmlns:xlink="http://www.w3.org/1999/xlink">
 <defs>
  <style type="text/css">
*{stroke-linecap:butt;stroke-linejoin:round;}
  </style>
 </defs>
 <g id="figure_1">
  <g id="patch_1">
   <path d="
M0 432
L576 432
L576 0
L0 0
z
" style="fill:#ffffff;"/>
  </g>
  <g id="axes_1">
   <g id="line2d_1">
    <path clip-path="url(#p7ff5b81e1d)" d="
M72 274.726
L72.1488 255.945
L72.8928 85.0411
L72.9672 86.7642
L73.1904 122.015
L73.7856 245.449
L74.0832 296.879
L74.1576 299.57
L74.3064 285.588
L74.604 206.297
L75.0504 90.4868
L75.1992 75.9321
L75.2736 77.1269
L75.4224 98.5096
L75.72 200.096
L76.0176 280.799
L76.1664 291.162
L76.2408 290.88
L76.5384 265.874
L76.9104 203.71
L77.3568 58.6521
L77.4312 51.6611
L77.5056 53.3595
L77.6544 83.0613
L78.2496 252.154
L78.5472 297.195
L78.6216 300.676
L78.696 296.163
L79.7376 112.971
L79.8864 104.888
L80.0352 117.108
L80.6304 230.484
L80.7048 232.282
L81.0768 252.07
L81.1512 253.487
L81.3 245.325
L81.4488 230.272
L81.672 160.387
L81.8952 103.141
L81.9696 97.8678
L82.044 99.818
L82.2672 133.707
L82.4904 162.905
L82.6392 182.678
L83.16 309.8
L83.2344 310.437
L83.6064 202.723
L83.7552 190.316
L83.9784 159.557
L84.0528 160.52
L84.276 167.403
L84.3504 161.35
L84.648 120.89
L84.8712 138.007
L85.392 245.518
L85.6152 256.765
L85.6896 256.404
L85.8384 249.813
L86.0616 207.986
L86.508 103.215
L86.5824 104.202
L86.88 153.06
L87.4008 230.988
L87.4752 233.975
L87.7728 269.562
L87.8472 267.449
L88.0704 250.5
L88.2936 211.881
L88.8144 78.2723
L88.8888 79.6349
L89.112 141.004
L89.5584 256.449
L89.7072 261.455
L89.856 246.081
L89.9304 246.392
L90.0792 256.335
L90.1536 253.22
L90.3768 214.468
L91.0464 93.2615
L91.1208 92.7974
L91.1952 93.6515
L91.2696 99.0972
L91.5672 167.432
L91.8648 286.753
L91.9392 289.972
L92.088 274.519
L92.3112 228.1
L92.3856 228.9
L92.5344 239.83
L92.6088 234.306
L92.7576 194.863
L93.0552 110.191
L93.1296 109.84
L93.3528 128.611
L93.7248 178.477
L94.1712 256.271
L94.2456 260.246
L94.32 260.241
L94.3944 260.784
L94.5432 263.953
L94.6176 261.796
L94.7664 246.663
L95.1384 159.839
L95.5104 78.0797
L95.5848 74.5053
L95.6592 76.2876
L95.808 98.4948
L96.1056 177.089
L96.552 299.777
L96.6264 302.917
L96.8496 280.231
L97.296 194.453
L97.7424 112.581
L97.8912 102.79
L97.9656 104.834
L98.1144 118.461
L98.412 179.36
L98.8584 276.602
L99.0072 287.202
L99.156 273.023
L99.6024 171.081
L100.049 75.7297
L100.123 76.2629
L100.272 93.2615
L100.57 181.71
L100.942 302.577
L101.09 312.954
L101.165 311.671
L101.314 294.282
L101.611 220.003
L102.058 87.8701
L102.132 85.362
L102.206 85.8903
L102.281 87.2381
L102.43 108.843
L103.397 292.752
L103.471 292.766
L103.62 275.565
L103.992 193.49
L104.438 95.6461
L104.513 92.4123
L104.587 96.0213
L104.81 143.512
L105.182 231.6
L105.331 236.656
L105.629 230.978
L105.778 234.562
L105.852 233.121
L106.001 219.035
L106.522 131.756
L106.596 132.512
L106.968 183.67
L107.266 221.005
L107.563 196.877
L107.638 198.956
L108.01 231.398
L108.158 222.012
L108.828 134.906
L108.902 135.918
L109.051 149.135
L109.274 194.374
L109.646 272.45
L109.721 268.634
L109.944 229.206
L110.242 170.908
L110.614 143.191
L110.911 115.839
L110.986 116.397
L111.134 130.7
L112.027 303.885
L112.176 292.584
L112.548 160.495
L112.846 94.9845
L112.92 90.3683
L112.994 90.6547
L113.069 92.4024
L113.292 113.81
L113.515 156.259
L113.962 269.656
L114.11 273.487
L114.334 258.858
L114.706 215.767
L115.226 125.392
L115.301 123.225
L115.524 127.259
L115.673 145.166
L116.342 258.991
L116.417 259.539
L116.491 258.172
L116.64 251.028
L116.863 207.038
L117.31 108.967
L117.458 104.918
L117.533 108.409
L117.682 131.228
L118.351 264.704
L118.426 266.215
L118.5 264.111
L118.723 239.86
L119.616 126.321
L119.69 127.886
L119.914 149.762
L120.658 252.168
L120.732 250.732
L120.881 236.769
L121.253 174.621
L121.55 130.147
L121.699 126.187
L121.774 128.848
L121.997 163.858
L122.443 242.373
L122.518 244.052
L122.592 242.442
L122.815 222.945
L123.634 140.451
L123.708 141.196
L123.857 154.926
L124.601 240.314
L124.75 250.421
L124.824 249.848
L124.973 236.597
L125.791 124.879
L125.94 120.722
L126.014 123.916
L126.238 174.448
L126.684 286.709
L126.758 286.338
L126.982 248.925
L127.502 130.172
L127.651 125.086
L127.8 131.87
L128.098 156.417
L128.842 267.898
L128.99 262.151
L129.139 244.975
L130.032 86.6556
L130.106 87.6924
L130.255 101.195
L130.478 155.756
L130.999 301.797
L131.074 302.349
L131.297 274.805
L131.594 210.025
L132.115 105.116
L132.19 100.425
L132.264 100.771
L132.413 111.055
L132.636 146.321
L133.306 287.874
L133.38 288.772
L133.454 286.417
L133.678 259.801
L133.975 188.025
L134.422 62.6709
L134.496 61.0318
L134.645 81.2642
L135.389 274
L135.538 258.878
L135.91 207.28
L136.505 171.678
L136.579 172.675
L137.1 206.648
L137.249 209.274
L137.323 208.085
L137.398 208.929
L137.472 211.358
L137.546 209.028
L138.514 130.438
L138.662 145.18
L139.406 253.941
L139.555 244.773
L140.671 136.412
L140.746 137.73
L140.894 151.52
L141.638 270.727
L141.713 271.552
L141.862 255.772
L142.606 106.414
L142.68 101.951
L142.754 101.971
L142.903 120.386
L143.647 276.079
L143.796 265.262
L144.094 199.741
L144.54 110.097
L144.614 106.592
L144.689 107.194
L144.838 117.137
L145.061 151.949
L145.73 309.908
L145.879 315.211
L146.028 296.894
L146.326 210.928
L146.846 51.5574
L146.921 47.5682
L147.07 57.3536
L147.293 99.9315
L148.037 286.348
L148.111 287.113
L148.26 278.977
L148.483 244.358
L149.078 149.081
L149.153 147.452
L149.227 148.765
L149.376 157.953
L150.046 228.026
L150.12 225.824
L150.343 205.695
L151.013 126.735
L151.087 128.957
L151.31 156.506
L151.98 258.508
L152.054 259.609
L152.203 248.357
L153.17 117.972
L153.245 118.772
L153.394 132.196
L153.691 189.402
L154.212 305.919
L154.286 304.986
L154.435 286.649
L154.882 160.352
L155.179 97.9517
L155.328 91.8939
L155.477 103.975
L155.774 159.873
L156.146 220.265
L156.444 236.137
L156.518 237.693
L156.593 237.14
L156.742 226.495
L157.337 156.857
L157.411 158.303
L157.56 169.348
L158.378 254.119
L158.453 252.973
L158.602 239.727
L158.899 186.949
L159.42 96.5101
L159.569 112.22
L159.866 183.083
L160.09 212.883
L160.238 213.372
L160.685 225.75
L160.759 224.061
L160.982 200.249
L161.28 168.415
L161.354 165.057
L161.429 165.245
L161.578 175.613
L162.173 231.956
L162.322 235.51
L162.396 235.407
L162.768 214.162
L162.991 175.386
L163.363 104.869
L163.438 104.173
L163.586 119.448
L164.479 253.309
L164.554 253.151
L164.628 251.487
L164.777 238.241
L165.446 151.776
L165.521 151.189
L165.67 147.565
L165.744 148.345
L166.116 179.479
L166.562 241.736
L166.637 243.726
L166.711 242.462
L166.934 221.509
L167.232 179.494
L167.53 138.752
L167.604 138.293
L167.827 156.101
L168.422 214.656
L168.72 244.313
L168.794 243.005
L169.018 222.2
L169.613 126.676
L169.687 127.209
L169.836 136.106
L170.208 185.927
L170.803 278.883
L170.878 279.258
L171.026 267.903
L171.25 219.559
L171.696 126.775
L171.845 120.593
L171.919 122.687
L172.142 147.131
L172.44 173.757
L172.738 189.19
L173.779 214.918
L174.002 213.269
L174.3 217.105
L174.523 213.12
L174.598 213.007
L174.746 208.712
L174.97 189.165
L175.416 132.383
L175.49 132.798
L175.639 143.867
L176.234 227.764
L176.309 229.724
L176.606 221.321
L176.83 207.665
L177.202 166.129
L177.499 139.286
L177.574 138.555
L177.722 153.026
L178.243 235.96
L178.318 243.207
L178.392 240.141
L178.466 236.656
L178.541 238.221
L178.615 241.652
L178.69 241.134
L178.913 224.185
L179.21 182.851
L179.582 136.827
L179.657 133.677
L179.731 133.776
L179.954 147.234
L180.178 187.645
L180.401 211.254
L180.55 217.149
L180.624 216.038
L180.773 209.526
L180.996 213.545
L181.07 213.037
L181.517 198.2
L182.038 163.112
L182.112 160.747
L182.335 165.052
L182.484 180.407
L182.782 217.766
L182.856 221.978
L182.93 221.81
L183.154 201.528
L183.451 183.192
L183.674 173.757
L183.823 177.247
L184.046 183.162
L184.642 221.751
L184.716 220.037
L184.79 220.008
L184.865 219.47
L185.014 210.607
L185.162 201.454
L185.237 201.419
L185.386 191.412
L185.906 145.778
L185.981 143.166
L186.13 150.868
L186.502 200.768
L186.725 220.432
L186.799 220.097
L187.022 203.829
L187.469 169.94
L187.543 167.482
L187.692 173.204
L188.436 229.867
L188.51 230.03
L188.957 211.634
L189.254 192.034
L189.701 143.719
L189.924 138.13
L189.998 142.816
L190.37 192.518
L190.668 207.26
L190.742 207.512
L191.263 188.366
L191.635 181.878
L191.71 181.952
L191.858 201.464
L192.156 246.318
L192.23 251.359
L192.305 249.058
L192.751 204.362
L193.272 120.287
L193.346 120.505
L193.495 124.514
L193.718 139.503
L194.016 197.025
L194.239 227.019
L194.537 245.266
L194.686 248.426
L194.76 246.757
L195.058 214.562
L195.43 172.809
L195.578 164.05
L195.727 157.346
L195.802 158.935
L195.95 155.84
L196.025 157.923
L196.546 198.205
L196.769 194.438
L196.843 194.424
L197.066 188.376
L197.141 188.859
L197.29 194.606
L197.364 198.319
L197.438 197.85
L198.034 177.929
L198.182 193.204
L198.554 254.943
L198.703 247.601
L199.001 201.953
L199.596 110.774
L199.819 126.829
L200.042 169.363
L200.489 244.738
L200.786 257.979
L200.935 244.827
L201.456 173.742
L201.902 140.179
L201.977 139.676
L202.2 156.19
L202.423 181.207
L202.721 225.177
L202.795 228.707
L202.87 227.976
L203.167 212.854
L203.465 181.483
L203.539 181.819
L204.06 218.477
L204.134 217.001
L205.25 129.782
L205.325 132.393
L205.474 151.638
L205.994 248.317
L206.218 261.198
L206.292 262.502
L206.366 261.322
L206.59 235.436
L207.259 137.36
L207.408 130.863
L207.482 131.722
L207.631 146.607
L208.152 224.269
L208.226 223.567
L208.301 223.967
L208.375 223.059
L208.524 214.034
L209.194 140.465
L209.268 145.245
L209.566 174.991
L210.161 249.329
L210.31 256.804
L210.458 252.84
L210.756 222.511
L211.426 112.334
L211.5 115.809
L211.798 165.008
L212.095 197.07
L212.616 225.666
L212.69 225.192
L212.914 201.405
L213.211 176.047
L213.36 178.699
L213.658 186.801
L213.806 183.675
L213.881 185.858
L214.327 221.124
L214.402 220.852
L214.55 215.288
L214.922 194.562
L215.294 151.722
L215.369 153.835
L215.815 191.18
L215.89 189.99
L215.964 188.77
L216.187 175.643
L216.262 176.452
L216.634 194.611
L216.857 188.316
L217.006 207.813
L217.229 236.913
L217.303 236.098
L217.452 226.638
L217.75 196.798
L217.824 197.085
L218.047 188.178
L218.345 159.947
L218.568 143.334
L218.642 144.623
L219.163 170.952
L219.386 223.128
L219.61 263.272
L219.684 266.298
L219.758 262.61
L220.874 129.209
L221.023 141.448
L221.47 192.715
L221.767 217.737
L221.99 232.04
L222.065 232.341
L222.437 211.042
L222.734 181.182
L223.106 139.917
L223.181 142.445
L223.33 166.578
L223.702 236.369
L223.776 236.962
L223.925 235.308
L224.074 235.9
L224.148 235.51
L224.222 233.58
L224.371 211.99
L224.818 119.927
L224.892 120.633
L225.041 134.551
L225.338 163.329
L225.413 164.188
L225.562 173.683
L226.082 248.105
L226.157 246.935
L226.231 245.518
L226.454 238.394
L226.603 235.55
L226.752 215.1
L227.124 160.604
L227.198 161.824
L227.422 190.36
L227.496 198.813
L227.57 194.878
L227.868 153.411
L227.942 153.514
L228.166 167.625
L228.389 180.022
L228.612 167.556
L228.686 168.612
L228.835 181.286
L229.133 230.272
L229.207 229.527
L229.356 225.71
L229.43 226.569
L229.654 239.49
L229.728 238.917
L229.877 215.989
L230.174 159.251
L230.249 155.84
L230.323 159.158
L230.695 192.977
L230.844 182.801
L231.067 163.389
L231.365 182.777
L231.439 180.298
L231.737 141.334
L231.811 145.496
L232.183 230.015
L232.332 225.789
L232.481 220.087
L232.555 220.166
L232.927 255.377
L233.002 254.128
L233.15 234.577
L233.671 146.277
L233.82 150.74
L234.043 135.168
L234.118 136.733
L234.564 185.344
L234.638 182.051
L234.862 166.282
L235.01 194.725
L235.308 271.976
L235.382 271.882
L235.531 247.142
L235.829 196.132
L236.126 188.682
L236.424 131.791
L236.498 134.042
L236.945 205.103
L237.019 201.513
L237.242 179.997
L237.317 181.617
L237.689 226.248
L237.838 206.564
L238.061 181.004
L238.433 201.202
L238.507 197.509
L238.805 152.986
L239.177 192.607
L239.326 181.908
L239.549 168.731
L239.698 199.257
L239.995 258.537
L240.144 233.007
L240.442 168.316
L240.516 171.727
L240.814 207.092
L240.962 193.609
L241.26 161.379
L241.558 190.706
L241.632 189.003
L242.004 141.241
L242.078 143.211
L242.897 258.389
L243.12 281.065
L243.343 231.329
L243.566 184.11
L243.715 179.262
L243.79 180.837
L243.864 179.795
L244.013 166.203
L244.31 110.413
L244.385 109.357
L244.534 128.503
L244.831 188.613
L244.906 190.735
L245.129 183.883
L245.203 184.678
L245.352 196.665
L245.575 217.139
L245.65 216.127
L245.873 201.222
L245.947 201.73
L246.468 239.816
L246.542 238.952
L246.766 232.474
L246.989 238.325
L247.138 226.658
L247.435 141.715
L247.658 105.007
L247.733 104.192
L247.956 118.53
L248.328 145.427
L248.551 188.746
L248.849 247.68
L248.998 252.331
L249.221 247.113
L249.295 248.11
L249.37 248.505
L249.444 246.792
L249.593 230.82
L249.89 147.106
L250.039 120.253
L250.114 122.386
L250.709 198.131
L251.155 265.953
L251.304 252.321
L251.899 162.544
L252.197 105.965
L252.271 103.136
L252.346 104.533
L252.569 130.833
L253.462 296.44
L253.536 296.232
L253.685 273.556
L254.057 184.683
L254.354 163.956
L254.726 114.753
L254.875 130.339
L255.247 179.736
L255.322 180.525
L255.47 191.619
L255.917 247.7
L255.991 245.878
L256.214 210.084
L256.363 190.178
L256.438 192.814
L256.661 215.071
L256.735 214.147
L256.884 208.213
L257.107 184.752
L257.479 212.582
L257.628 196.033
L257.926 146.8
L258.074 150.123
L258.149 149.12
L258.223 150.424
L258.298 153.89
L258.372 152.947
L258.446 151.451
L258.521 152.231
L258.67 167.368
L259.042 224.471
L259.265 208.712
L259.488 195.026
L259.711 189.526
L259.934 185.349
L260.009 185.482
L260.158 184.49
L260.232 186.025
L260.381 205.651
L260.678 246.624
L260.753 251.472
L260.827 249.492
L261.199 204.91
L261.274 205.858
L261.348 204.698
L261.497 192.592
L261.943 132.349
L262.018 131.277
L262.092 132.146
L262.241 136.545
L262.39 135.109
L262.464 136.328
L262.613 148.271
L262.91 217.337
L263.134 256.424
L263.208 259.056
L263.282 257.239
L263.506 242.309
L263.803 255.022
L263.952 239.598
L264.696 109.653
L264.77 105.244
L264.845 106.848
L264.994 128.74
L265.44 232.331
L265.514 232.252
L266.333 182.797
L266.407 183.468
L266.482 186.317
L266.63 206.026
L266.854 234.207
L267.226 203.503
L267.523 214.162
L267.672 203.982
L267.895 148.977
L268.044 122.233
L268.118 127.841
L268.416 198.719
L268.49 197.766
L268.862 141.675
L268.937 141.734
L269.011 143.882
L269.16 169.526
L269.532 235.787
L269.904 272.751
L269.978 269.907
L270.202 232.425
L270.722 134.753
L270.797 134.264
L270.946 143.067
L271.392 188.459
L271.466 187.442
L271.69 176.181
L272.062 195.115
L272.434 220.862
L272.731 201.454
L273.029 180.387
L273.103 180.545
L273.401 189.536
L273.475 190.434
L273.55 189.783
L273.698 186.297
L273.922 199.608
L274.145 212.331
L274.219 212.054
L274.442 204.52
L274.814 226.51
L274.889 223.903
L275.186 185.788
L275.558 122.396
L275.782 112.329
L275.93 123.294
L276.079 144.534
L276.6 244.817
L276.749 251.739
L276.898 244.906
L277.121 233.269
L277.27 236.577
L277.344 236.216
L277.493 232.094
L277.567 229.724
L277.716 212.232
L278.162 157.212
L278.386 135.247
L278.534 133.242
L278.609 134.097
L279.278 179.326
L279.874 234.464
L280.097 230.795
L280.246 234.523
L280.32 230.356
L280.543 205.256
L280.618 204.421
L280.766 196.206
L281.064 162.041
L281.213 149.426
L281.436 171.234
L281.659 188.825
L281.882 180.624
L282.403 194.187
L282.552 199.094
L282.701 204.683
L282.775 204.239
L283.37 188.647
L283.519 201.864
L283.594 197.415
L283.817 164.954
L283.891 167.141
L283.966 172.384
L284.04 169.308
L284.189 155.588
L284.263 156.008
L284.412 175.011
L284.71 219.707
L285.082 231.408
L285.156 231.837
L285.305 213.234
L285.602 178.699
L285.9 209.245
L285.974 208.968
L286.644 172.453
L286.718 172.828
L286.942 198.966
L287.09 168.528
L287.314 103.669
L287.388 106.054
L288.058 242.279
L288.132 239.781
L288.504 212.612
L288.876 225.903
L289.025 223.054
L289.471 194.029
L289.769 156.501
L289.918 163.122
L290.066 126.355
L290.141 130.473
L290.438 190.938
L290.587 186.983
L290.662 188.099
L290.736 187.245
L290.885 176.808
L290.959 182.411
L291.182 218.043
L291.257 214.172
L291.554 169.387
L291.778 147.417
L291.852 153.855
L292.224 272.006
L292.67 214.014
L292.819 217.208
L292.968 205.616
L293.563 124.879
L293.638 129.638
L293.861 159.158
L294.01 162.49
L294.158 167.457
L294.456 202.377
L294.53 197.731
L294.754 166.657
L294.828 168.128
L295.795 250.929
L295.87 250.821
L296.018 221.183
L296.242 188.894
L296.316 186.588
L296.39 188.716
L296.688 215.327
L296.762 220.126
L296.837 217.87
L296.911 208.331
L297.283 60.6319
L297.581 220.388
L297.655 212.607
L297.878 156.427
L297.953 159.286
L298.25 238.596
L298.697 198.61
L298.771 197.776
L298.92 211.615
L299.069 165.294
L299.218 124.272
L299.292 130.557
L299.515 195.105
L299.59 195.441
L299.813 181.858
L300.11 192.103
L300.482 255.723
L301.078 199.257
L301.375 147.254
L301.524 139.281
L301.598 141.581
L301.97 207.393
L302.045 206.9
L302.119 204.411
L302.194 206.213
L302.268 205.774
L302.417 185.324
L302.566 161.113
L302.714 167.985
L302.938 161.31
L303.458 208.035
L303.533 208.425
L303.607 210.232
L303.756 230.554
L303.905 247.473
L303.979 241.465
L304.277 173.959
L304.351 177.578
L304.5 199.617
L304.798 165.926
L304.872 172.236
L304.946 174.937
L305.021 174.29
L305.095 174.769
L305.244 171.629
L305.393 174.581
L305.616 169.437
L305.914 199.672
L306.137 167.096
L306.509 230.396
L306.732 257.935
L306.881 238.705
L307.253 160.762
L307.625 173.831
L307.848 161.893
L308.443 208.717
L308.741 189.886
L308.815 190.138
L308.964 200.921
L309.485 160.5
L309.634 168.02
L310.08 259.905
L310.154 256.572
L310.601 175.682
L310.675 179.232
L310.75 177.968
L310.824 173.905
L311.122 133.598
L311.27 149.239
L311.568 218.709
L311.642 216.537
L311.94 185.724
L312.014 185.917
L312.163 197.401
L312.386 235.56
L312.461 234.286
L312.684 210.449
L312.982 154.803
L313.056 157.829
L313.354 202.886
L313.428 199.445
L313.726 161.838
L313.8 164.322
L314.023 213.511
L314.246 261.386
L314.321 254.247
L314.767 158.308
L314.842 157.094
L314.99 159.039
L315.065 160.945
L315.288 155.687
L315.66 180.407
L315.958 199.479
L316.032 198.971
L316.33 192.661
L316.553 202.871
L316.627 202.239
L316.776 200.694
L316.925 196.971
L317.222 185.29
L317.297 184.465
L317.446 196.028
L317.966 259.515
L318.19 246.446
L318.413 185.69
L318.785 81.4518
L318.859 84.2907
L319.008 111.815
L319.529 240.961
L319.752 212.064
L319.975 183.261
L320.05 184.752
L320.347 208.06
L320.422 207.803
L320.57 194.246
L320.794 163.759
L320.868 163.522
L321.017 178.496
L321.314 218.428
L321.761 184.984
L321.91 197.889
L322.133 217.603
L322.207 216.414
L322.43 194.606
L322.579 180.728
L322.654 181.138
L322.877 196.255
L322.951 198.062
L323.026 197.519
L323.323 172.201
L323.398 176.576
L323.695 201.015
L323.844 191.713
L324.067 175.213
L324.142 174.364
L324.216 174.714
L324.365 181.449
L324.588 196.393
L324.662 193.411
L325.109 137.429
L325.183 140.372
L325.406 201.523
L325.63 231.956
L325.778 221.054
L325.927 209.166
L326.002 210.242
L326.374 258.843
L326.448 254.81
L326.671 198.744
L326.894 148.854
L326.969 147.521
L327.118 171.969
L327.341 216.28
L327.415 217.529
L327.564 193.999
L327.862 137.261
L328.159 159.207
L328.234 157.963
L328.457 150.019
L328.531 147.787
L328.606 149.471
L328.754 183.448
L329.052 283.87
L329.201 255.15
L329.573 162.436
L329.647 165.507
L329.796 189.388
L329.945 213.52
L330.019 211.289
L330.391 159.394
L330.54 174.956
L330.838 209.783
L331.21 189.22
L331.284 192.913
L331.582 234.103
L331.656 230.973
L331.879 193.752
L332.102 166.504
L332.177 169.397
L332.4 193.871
L332.474 192.715
L332.921 141.803
L333.07 163.374
L333.367 238.868
L333.516 206.218
L333.739 152.443
L333.814 154.161
L334.186 218.028
L334.334 197.889
L334.558 155.425
L334.632 157.183
L334.855 206.026
L335.078 252.06
L335.153 250.776
L335.376 223.879
L335.674 184.283
L335.748 184.376
L335.822 184.781
L335.897 183.873
L336.12 175.583
L336.194 176.156
L336.492 201.484
L336.566 199.78
L336.864 191.362
L337.087 165.773
L337.236 154.181
L337.385 172.108
L337.608 200.684
L337.682 201.336
L337.757 203.666
L337.906 224.678
L337.98 215.673
L338.278 137.39
L338.501 144.252
L338.65 168.429
L338.947 235.367
L339.022 238.646
L339.319 229.28
L339.394 230.855
L339.468 230.573
L339.691 216.66
L340.063 175.667
L340.138 179.415
L340.361 214.611
L340.882 126.854
L340.956 130.808
L341.105 167.393
L341.328 221.76
L341.402 213.935
L341.626 170.705
L341.774 188.208
L341.998 214.71
L342.221 219.613
L342.37 225.616
L342.444 224.175
L342.593 210.099
L342.89 155.899
L342.965 159.093
L343.262 209.195
L343.337 208.44
L343.634 186.144
L343.709 186.055
L343.858 194.71
L344.006 204.841
L344.155 195.51
L344.527 146.267
L344.602 146.731
L344.899 172.058
L345.346 204.066
L345.643 218.709
L346.015 267.064
L346.164 243.069
L346.536 154.699
L346.61 152.631
L346.759 169.56
L346.982 189.037
L347.429 149.293
L347.503 149.96
L347.801 164.929
L348.024 152.823
L348.173 169.565
L348.47 213.293
L348.694 220.176
L348.768 219.746
L349.066 207.398
L349.14 209.023
L349.512 250.969
L349.586 249.527
L349.81 213.264
L349.958 196.458
L350.107 207.882
L350.256 225.7
L350.33 224.288
L350.479 197.781
L350.851 108.813
L351.298 161.567
L351.521 150.384
L351.595 150.735
L351.744 164.085
L352.042 200.931
L352.116 201.271
L352.19 201.029
L352.265 201.494
L352.711 223.044
L352.786 223.459
L352.934 212.775
L353.083 191.397
L353.158 192.414
L353.306 206.041
L353.381 203.824
L353.53 190.355
L353.604 191.466
L353.827 225.133
L353.902 222.832
L354.125 194.952
L354.274 203.631
L354.646 229.216
L354.794 197.322
L354.943 176.862
L355.092 188.677
L355.166 188.647
L355.39 151.821
L355.687 114.471
L355.762 117.384
L356.431 219.623
L356.58 229.971
L356.654 228.164
L356.803 231.383
L356.878 229.917
L357.026 202.076
L357.324 144.855
L357.398 146.573
L357.994 235.091
L358.142 217.598
L358.366 189.141
L358.44 189.644
L358.589 201.158
L358.812 220.516
L358.961 206.658
L359.258 177.494
L359.407 173.11
L359.482 173.238
L359.556 175.677
L359.928 202.506
L360.002 201.345
L360.226 184.08
L360.598 145.793
L360.672 146.676
L360.97 172.236
L361.193 176.763
L361.267 175.055
L361.342 170.691
L361.416 171.426
L361.565 189.871
L362.011 263.731
L362.234 275.575
L362.309 272.697
L362.458 251.388
L363.053 117.779
L363.202 126.222
L363.946 187.008
L364.169 197.949
L364.69 257.17
L364.764 256.878
L364.913 247.147
L365.359 167.343
L365.731 124.523
L365.806 122.554
L365.88 125.096
L367.07 276.469
L367.145 272.707
L367.368 224.427
L367.74 129.549
L367.889 120.45
L367.963 119.838
L368.038 121.848
L368.335 156.324
L369.005 265.197
L369.079 261.514
L369.302 227.359
L369.526 211.476
L369.674 197.746
L370.195 98.875
L370.27 104.217
L370.865 204.51
L371.088 211.072
L371.46 262.191
L371.534 259.268
L371.981 202.525
L372.13 209.852
L372.204 208.366
L372.427 165.378
L372.725 115.809
L372.799 114.871
L372.948 128.873
L373.915 263.657
L373.99 260.216
L374.138 234.405
L374.51 155.514
L374.585 155.336
L374.808 185.319
L374.957 194.769
L375.106 190.375
L375.18 191.476
L375.254 192.004
L375.626 151.475
L375.85 130.794
L375.924 133.208
L376.296 190.178
L376.817 267.034
L376.891 267.483
L377.04 255.106
L377.635 159.602
L377.933 177.311
L378.082 184.954
L378.23 182.416
L378.305 178.822
L378.602 144.075
L378.751 173.332
L379.049 243.686
L379.123 245.444
L379.272 229.541
L379.718 158.298
L379.942 142.055
L380.016 142.228
L380.09 143.818
L380.239 158.511
L380.611 225.305
L380.686 224.97
L380.983 181.493
L381.058 184.307
L381.206 218.477
L381.504 287.523
L381.653 237.895
L381.95 140.382
L382.248 106.192
L382.322 103.373
L382.471 113.321
L382.843 183.483
L383.215 277.521
L383.29 281.673
L383.364 281.426
L383.587 267.345
L384.034 228.149
L384.257 163.942
L384.48 116.91
L384.554 114.264
L384.629 117.35
L384.703 116.975
L384.778 116.372
L385.075 109.426
L385.15 112.398
L385.373 152.64
L385.745 244.689
L385.819 245.118
L385.968 242.21
L386.042 247.211
L386.34 298.997
L386.414 292.135
L386.563 250.825
L386.861 147.693
L386.935 142.465
L387.158 154.502
L387.233 152.907
L387.456 136.121
L387.902 157.351
L388.423 248.475
L388.721 257.777
L388.795 257.352
L388.944 236.908
L389.539 96.5595
L389.614 94.1205
L389.688 95.4536
L389.911 114.728
L390.209 172.799
L390.73 289.024
L390.878 296.919
L390.953 293.779
L391.399 236.74
L392.069 89.3858
L392.143 87.8207
L392.218 89.8943
L392.441 116.782
L392.887 218.62
L393.11 252.272
L393.259 260.537
L393.557 279.189
L393.631 279.347
L393.78 272.174
L394.003 233.249
L394.747 69.262
L394.822 71.617
L395.119 126.503
L395.863 302.917
L396.086 321.97
L396.161 319.225
L396.384 270.273
L396.979 74.1053
L397.128 64.0484
L397.202 65.6925
L397.351 79.5708
L397.574 136.052
L398.095 276.365
L398.318 298.824
L398.393 298.084
L398.616 283.485
L398.839 243.109
L399.658 70.679
L399.806 77.5762
L400.03 114.121
L400.848 307.148
L400.922 309.958
L400.997 308.526
L401.22 282.389
L401.443 223.034
L401.89 70.7678
L402.038 61.9304
L402.187 78.0551
L403.154 277.012
L403.229 278.814
L403.303 278.108
L403.378 277.037
L403.601 259.288
L403.824 233.57
L404.568 69.8495
L404.717 82.2911
L405.089 154.191
L405.758 328.566
L405.833 325.529
L406.056 286.778
L407.023 69.7508
L407.098 70.6987
L407.246 83.5501
L407.544 145.294
L408.139 276.775
L408.362 287.385
L408.586 277.229
L408.734 260.601
L409.106 158.481
L409.404 93.1627
L409.478 88.038
L409.553 88.5021
L409.702 101.408
L409.925 144.193
L410.371 232.844
L410.52 236.078
L410.743 230.45
L411.041 243.222
L411.264 255.649
L411.338 253.324
L411.487 230.973
L412.082 110.62
L412.157 108.843
L412.306 117.799
L412.678 163.64
L413.273 274.168
L413.347 275.412
L413.496 265.059
L413.719 217.939
L414.091 124.277
L414.24 120.253
L414.538 155.716
L414.91 200.007
L415.133 206.786
L415.43 212.948
L415.505 212.888
L415.579 212.227
L415.654 212.237
L415.802 212.019
L415.951 217.885
L416.398 253.082
L416.472 252.341
L416.621 238.912
L416.844 182.515
L417.29 60.3998
L417.365 53.3052
L417.439 53.4632
L417.588 72.5551
L417.886 175.455
L418.332 327.756
L418.481 340.045
L418.63 322.128
L419.448 105.989
L419.522 102.815
L419.597 103.55
L419.746 115.637
L420.266 195.52
L420.564 224.412
L420.713 218.245
L420.787 218.941
L421.01 228.44
L421.159 218.793
L421.382 191.432
L421.754 133.776
L421.903 150.759
L422.424 253.082
L422.498 252.376
L422.647 239.514
L423.391 151.846
L423.466 150.636
L423.614 158.738
L424.135 201.592
L424.358 207.063
L424.507 208.302
L424.582 206.618
L424.805 197.455
L424.879 196.428
L425.028 187.832
L425.326 166.03
L425.474 161.508
L425.549 161.547
L425.698 166.929
L426.442 223.173
L426.814 285.711
L426.888 280.824
L427.26 200.348
L427.632 98.3665
L427.855 84.3944
L427.93 82.9626
L428.004 87.2332
L428.153 124.854
L428.599 257.9
L428.822 286.175
L428.897 279.806
L429.343 140.031
L429.418 150.187
L429.566 172.345
L429.715 164.564
L429.79 169.081
L430.013 248.693
L430.087 242.975
L430.31 184.332
L430.385 187.497
L430.608 223.316
L430.682 221.765
L431.129 196.527
L431.278 200.328
L431.352 196.423
L431.65 155.232
L431.798 167.649
L431.873 166.331
L432.17 136.748
L432.245 137.819
L432.542 154.675
L432.766 191.832
L433.063 232.173
L433.361 247.236
L433.435 249.201
L433.584 238.789
L434.179 185.329
L434.402 181.098
L434.477 181.37
L434.551 181.078
L434.7 178.017
L434.774 178.195
L434.998 186.855
L435.072 183.828
L435.295 148.133
L435.444 128.251
L435.518 130.912
L435.89 199.371
L435.965 197.988
L436.114 207.013
L436.486 255.333
L436.56 255.308
L436.709 221.805
L436.932 182.959
L437.155 189.59
L437.304 177.924
L437.453 164.03
L437.527 164.519
L437.75 182.041
L437.825 180.866
L437.974 173.312
L438.569 192.696
L438.643 191.881
L438.866 184.683
L438.941 186.825
L439.238 207.64
L439.387 203.37
L439.462 204.184
L439.685 214.142
L439.759 211.427
L439.982 177.104
L440.206 148.325
L440.28 153.435
L440.726 226.392
L440.801 226.92
L440.95 220.393
L441.47 184.934
L441.768 175.06
L442.066 159.933
L442.14 159.987
L442.363 165.689
L442.586 178.531
L443.182 239.875
L443.256 239.228
L443.405 227.971
L443.851 183.147
L444 180.392
L444.074 179.607
L444.149 180.165
L444.298 182.787
L444.446 178.309
L444.967 142.475
L445.042 143.314
L445.265 141.621
L445.414 152.833
L445.488 162.228
L446.009 303.905
L446.083 307.336
L446.158 306.358
L446.306 289.246
L447.348 95.498
L447.422 95.1771
L447.571 103.847
L447.794 141.739
L448.241 217.569
L448.613 239.47
L448.762 241.993
L448.836 240.645
L449.059 225.715
L449.357 206.747
L449.431 206.125
L449.654 215.772
L449.729 219.82
L449.803 219.489
L449.878 212.78
L449.878 212.78" style="fill:none;stroke:#808080;stroke-linecap:square;"/>
   </g>
  </g>
 </g>
 <defs>
  <clipPath id="p7ff5b81e1d">
   <rect height="345.6" width="446.4" x="72.0" y="43.2"/>
  </clipPath>
 </defs>
</svg>
