<?xml version="1.0" encoding="utf-8" standalone="no"?>
<!DOCTYPE svg PUBLIC "-//W3C//DTD SVG 1.1//EN"
  "http://www.w3.org/Graphics/SVG/1.1/DTD/svg11.dtd">
<!-- Created with matplotlib (http://matplotlib.org/) -->
<svg height="432pt" version="1.1" viewBox="0 0 576 432" width="576pt" xmlns="http://www.w3.org/2000/svg" xmlns:xlink="http://www.w3.org/1999/xlink">
 <defs>
  <style type="text/css">
*{stroke-linecap:butt;stroke-linejoin:round;}
  </style>
 </defs>
 <g id="figure_1">
  <g id="patch_1">
   <path d="
M0 432
L576 432
L576 0
L0 0
z
" style="fill:#ffffff;"/>
  </g>
  <g id="axes_1">
   <g id="line2d_1">
    <path clip-path="url(#p7ff5b81e1d)" d="
M72 214.57
L72.0744 222.617
L72.2232 226.735
L72.5208 207.18
L72.5952 209.507
L72.8184 225.802
L72.9672 208.926
L73.1904 189.635
L73.3392 202.86
L73.7112 273.247
L73.7856 266.514
L74.0088 209.542
L74.3808 58.6702
L74.4552 72.2695
L75.1248 350.645
L75.1992 354.774
L75.2736 349.372
L76.1664 183.242
L76.2408 180.321
L76.5384 132.991
L76.6128 135.29
L76.9104 174.233
L77.208 234.154
L77.2824 238.238
L77.3568 237.15
L77.8032 205.481
L78.0264 137.202
L78.1008 139.316
L78.2496 200.274
L78.4728 374.18
L78.5472 369.491
L78.696 282.97
L78.7704 283.61
L78.8448 270.235
L79.1424 83.4958
L79.2168 90.4135
L79.5144 292.849
L79.5888 289.594
L79.812 226.246
L80.1096 272.309
L80.2584 228.423
L80.4816 169.13
L80.6304 188.19
L80.928 226.206
L81.0024 220.728
L81.3744 148.693
L81.4488 153.226
L81.5976 189.077
L81.8952 329.914
L81.9696 317.657
L82.1184 303.217
L82.2672 169.158
L82.416 56.1588
L82.5648 143.705
L82.788 253.64
L82.8624 254.942
L83.0856 231.142
L83.2344 244.954
L83.4576 207.359
L83.532 218.55
L83.7552 301.592
L83.8296 300.181
L83.9784 274.503
L84.1272 205.562
L84.3504 85.4714
L84.4248 87.4759
L84.648 163.116
L84.9456 238.831
L85.1688 224.714
L85.2432 227.064
L85.392 254.608
L85.6152 344.17
L85.6896 334.43
L85.9128 240.225
L86.2104 118.661
L86.2848 114.853
L86.3592 120.308
L87.0288 233.48
L87.1032 234.316
L87.1776 233.382
L87.3264 225.272
L87.5496 207.583
L87.6984 214.426
L87.9216 247.575
L88.1448 272.015
L88.368 252.661
L88.9632 174.821
L89.112 182.896
L89.484 226.309
L89.7072 245.219
L89.7816 247.299
L89.856 245.72
L90.0048 221.707
L90.228 192.054
L90.5256 217.283
L90.7488 190.194
L90.8976 177.447
L90.972 179.417
L91.716 241.688
L91.7904 239.632
L92.0136 229.322
L92.3856 239.609
L92.46 238.676
L92.832 214.95
L92.9808 218.43
L93.2784 230.393
L93.3528 229.892
L93.4272 227.674
L93.5016 227.743
L93.6504 231.292
L93.7248 228.602
L93.8736 206.714
L94.2456 140.174
L94.3944 152.927
L94.9896 250.749
L95.064 252.713
L95.2872 246.734
L95.3616 246.798
L95.5104 244.805
L95.5848 242.529
L95.6592 242.541
L95.7336 241.752
L95.9568 222.991
L96.0312 223.089
L96.2544 234.16
L96.4032 222.473
L96.6264 207.128
L97.0728 218.268
L97.1472 218.067
L97.2216 213.263
L97.5192 151.354
L97.5936 151.665
L97.7424 181.197
L98.04 251.619
L98.1888 257.505
L98.3376 251.924
L98.7096 214.219
L99.0816 172.81
L99.2304 197.855
L99.4536 231.626
L99.6024 232.997
L99.7512 235.082
L99.8256 228.043
L100.123 117.733
L100.198 127.404
L100.644 312.819
L101.537 196.662
L101.983 110.723
L102.058 113.995
L102.43 202.088
L102.727 250.801
L102.876 241.965
L102.95 237.449
L103.025 238.048
L103.248 269.267
L103.471 291.38
L103.62 272.061
L104.066 175.892
L104.141 172.517
L104.215 174.44
L104.513 200.026
L104.587 198.702
L104.81 187.36
L104.959 186.398
L105.108 184.025
L105.182 185.321
L105.331 200.654
L105.778 261.699
L105.852 263.07
L105.926 262.649
L106.075 259.164
L106.298 243.733
L106.596 224.345
L106.745 217.243
L107.34 159.303
L107.489 155.605
L107.563 157.938
L107.712 179.354
L108.158 262.419
L108.233 263.542
L108.307 261.952
L108.828 222.853
L108.977 208.908
L109.2 212.099
L109.423 202.048
L109.572 223.665
L109.721 244.234
L109.795 243.123
L110.167 185.672
L110.465 147.726
L110.688 174.348
L111.283 314.374
L111.432 292.837
L112.102 144.638
L112.176 138.717
L112.25 138.809
L112.325 140.785
L112.474 156.763
L113.218 294.865
L113.366 283.921
L113.738 213.626
L114.036 181.537
L114.185 177.28
L114.259 177.395
L114.482 181.64
L114.78 174.233
L114.929 183.587
L115.078 207.29
L115.45 277.066
L115.598 258.525
L116.045 189.889
L116.194 202.958
L116.714 273.512
L116.863 260.074
L117.086 209.162
L117.607 94.7738
L117.682 93.1034
L117.756 96.4558
L117.905 139.95
L118.277 353.104
L118.351 349.049
L118.649 310.474
L118.798 306.356
L118.872 298.165
L119.021 239.897
L119.393 67.627
L119.542 101.657
L119.988 283.921
L120.062 283.782
L120.211 262.707
L120.583 144.46
L120.658 150.093
L120.881 210.688
L120.955 205.965
L121.104 175.241
L121.178 177.77
L121.774 338.451
L121.922 316.511
L122.592 130.791
L122.666 131.35
L122.964 144.304
L123.187 189.123
L123.485 232.772
L123.782 286.046
L123.857 283.656
L124.675 165.507
L124.75 167.862
L124.973 203.713
L125.419 285.937
L125.494 289.243
L125.568 287.544
L125.791 253.6
L126.312 145.053
L126.386 143.745
L126.535 158.255
L126.758 174.279
L126.833 172.563
L126.907 172.868
L127.056 194.894
L127.428 280.943
L127.502 282.965
L127.577 282.769
L127.726 275.367
L128.098 228.976
L128.47 188.195
L128.693 174.677
L128.916 151.533
L128.99 152.132
L129.139 172.004
L129.66 297.595
L129.734 295.919
L130.032 241.147
L130.33 200.234
L130.404 199.041
L130.478 200.752
L130.553 199.704
L130.702 177.966
L130.999 120.584
L131.074 121.823
L131.297 173.692
L131.743 303.931
L131.818 304.95
L131.966 288.84
L132.487 211.708
L132.71 203.92
L132.785 203.73
L132.859 203.983
L133.008 207.255
L133.306 223.47
L133.38 223.625
L133.454 221.471
L133.901 195.971
L134.05 190.182
L134.273 181.583
L134.347 181.669
L134.496 187.688
L135.314 253.64
L135.389 254.441
L135.463 253.318
L135.612 243.998
L136.282 185.419
L136.356 185.281
L136.505 188.46
L136.877 214.732
L137.323 241.061
L137.472 245.386
L137.546 245.041
L137.77 232.346
L137.993 210.066
L138.216 195.758
L138.514 192.7
L138.588 193.333
L138.662 193.281
L138.737 193.114
L138.886 200.17
L139.258 225.451
L139.481 229.362
L139.555 229.057
L139.63 229.414
L139.778 235.779
L140.002 246.682
L140.076 245.029
L140.448 213.775
L140.82 186.623
L140.969 197.238
L141.266 221.839
L141.341 223.164
L141.415 222.657
L141.713 213.96
L141.862 207.843
L142.01 209.15
L142.085 208.897
L142.159 206.898
L142.457 172.194
L142.531 177.297
L142.68 203.085
L143.126 299.525
L143.201 297.762
L143.35 274.981
L143.945 146.159
L144.019 146.746
L144.168 158.577
L144.986 243.267
L145.284 259.544
L145.358 259.233
L145.656 244.914
L145.954 221.903
L146.326 187.216
L146.623 180.218
L146.846 188.65
L147.367 227.669
L147.814 253.329
L147.888 252.172
L148.483 204.577
L148.558 205.867
L148.781 220.1
L148.855 219.328
L149.004 211.742
L149.376 182.729
L149.45 181.998
L149.525 183.178
L149.674 194.174
L149.897 214.046
L149.971 213.85
L150.194 196.248
L150.418 176.531
L150.492 178.709
L150.715 222.726
L151.087 296.115
L151.236 298.833
L151.31 298.816
L151.459 282.809
L151.906 216.483
L152.501 141.078
L152.65 148.768
L153.691 256.221
L153.766 256.342
L153.989 241.107
L154.361 207.975
L154.51 203.598
L154.584 203.955
L154.807 217.646
L155.179 243.52
L155.254 244.655
L155.477 239.661
L155.626 235.998
L155.923 226.753
L155.998 226.897
L156.146 219.334
L156.518 183.846
L156.667 174.486
L156.816 174.947
L157.039 181.986
L157.337 200.539
L157.932 234.085
L158.081 238.814
L158.23 234.742
L158.378 231.798
L158.453 232.536
L158.527 232.363
L158.676 229.448
L158.75 229.253
L158.899 226.194
L159.271 218.245
L159.792 214.294
L159.866 214.409
L159.941 213.297
L160.238 201.95
L160.313 202.63
L160.685 212.727
L161.206 234.558
L161.578 227.669
L161.801 219.887
L162.173 194.992
L162.619 158.675
L162.768 172.488
L163.512 271.053
L163.661 274.584
L163.81 268.95
L164.107 240.796
L164.554 191.271
L164.851 176.526
L164.926 176.877
L165 177.05
L165.149 185.166
L165.521 209.07
L165.967 233.262
L166.19 234.661
L166.488 230.514
L167.083 204.922
L167.158 206.103
L167.381 217.295
L167.455 217.738
L167.53 217.013
L167.753 213.338
L167.976 211.287
L168.05 211.886
L168.274 213.349
L168.422 211.955
L168.497 212.18
L168.571 211.806
L168.72 213.885
L168.869 219.944
L169.39 239.839
L169.538 236.142
L169.687 224.777
L170.059 181.22
L170.134 179.757
L170.208 181.658
L170.506 207.733
L170.952 238.872
L171.101 246.458
L171.175 246.003
L171.25 245.381
L171.324 242.967
L172.366 155.139
L172.514 170.236
L173.11 277.815
L173.184 277.193
L173.333 266.566
L173.705 238.636
L173.779 236.908
L173.928 223.792
L174.374 173.214
L174.746 152.437
L174.895 167.177
L175.639 261.48
L175.862 280.43
L175.937 280.707
L176.086 271.658
L176.234 251.221
L176.681 184.906
L176.904 173.905
L176.978 174.187
L177.127 182.389
L177.722 229.512
L178.02 250.426
L178.094 249.989
L178.243 244.257
L178.615 212.865
L178.913 185.523
L178.987 182.867
L179.062 183.011
L179.359 194.491
L179.88 224.345
L180.178 239.275
L180.252 240.859
L180.326 240.341
L180.475 231.476
L181.294 166.014
L181.442 190.931
L181.889 290.026
L181.963 291.466
L182.038 289.468
L182.335 251.129
L182.782 173.127
L183.079 149.811
L183.228 146.844
L183.377 159.856
L184.046 250.225
L184.195 253.03
L184.344 249.614
L185.534 194.721
L185.609 196.455
L185.981 213.038
L186.13 219.858
L186.427 241.176
L186.502 239.701
L186.948 204.963
L187.097 206.046
L187.171 206.224
L187.246 205.66
L187.32 203.621
L187.394 203.793
L187.543 218.539
L187.841 252.483
L187.99 235.848
L188.51 166.492
L188.585 164.395
L188.659 165.046
L188.808 176.842
L189.552 252.195
L189.701 255.87
L189.924 248.18
L190.891 218.003
L190.966 217.998
L191.114 211.679
L191.561 182.372
L191.858 178.789
L191.933 178.853
L192.082 184.751
L192.602 226.108
L192.9 244.874
L193.049 242.581
L193.123 243.088
L193.198 243.906
L193.272 243.405
L193.495 238.278
L193.942 210.268
L194.016 210.481
L194.09 209.974
L194.314 212.572
L194.388 212.076
L194.611 209.214
L194.686 210.095
L194.76 210.083
L194.834 209.3
L195.206 198.477
L195.578 211.788
L195.802 217.882
L196.025 224.051
L196.248 227.853
L196.694 219.207
L196.843 220.25
L196.918 219.391
L196.992 220.094
L197.141 223.182
L197.438 215.371
L197.736 199.059
L197.81 198.344
L198.034 213.176
L198.331 230.416
L198.48 227.49
L198.629 218.124
L198.852 205.13
L199.001 208.586
L199.298 217.318
L199.373 216.84
L199.522 215.008
L199.596 215.538
L199.67 213.551
L199.894 203.615
L200.117 209.83
L200.414 222.289
L200.563 224.063
L200.861 219.898
L200.935 220.037
L201.01 220.543
L201.233 225.86
L201.456 222.726
L201.53 222.819
L201.679 224.08
L202.051 213.499
L202.274 205.182
L202.423 203.194
L202.498 202.042
L202.721 192.573
L202.795 193.201
L202.944 208.384
L203.316 255.812
L203.465 262.246
L203.539 262.217
L203.762 232.657
L204.358 157.921
L204.432 155.853
L204.506 157.771
L204.804 184.083
L205.399 248.75
L205.622 260.097
L205.697 260.005
L205.92 256.549
L206.218 240.174
L206.59 212.756
L206.962 195.476
L207.11 197.521
L207.185 196.622
L207.557 184.739
L207.631 182.476
L207.706 184.532
L208.226 226.338
L208.45 244.459
L208.524 244.05
L208.896 231.931
L209.045 230.261
L209.119 230.226
L209.268 221.805
L209.491 209.657
L209.714 204.801
L209.789 205.199
L210.161 215.394
L210.384 219.587
L210.458 218.262
L210.682 207.952
L210.756 207.29
L210.905 201.466
L211.054 197.434
L211.426 208.378
L211.798 232.513
L212.021 231.781
L212.17 230.053
L212.318 232.294
L212.393 232.138
L212.765 223.994
L212.914 219.368
L213.286 197.204
L213.36 194.86
L213.434 195.954
L214.03 222.248
L214.253 230.537
L214.327 229.471
L215.146 196.035
L215.294 202.273
L215.592 215.941
L215.741 223.55
L216.038 241.919
L216.113 240.686
L216.41 221.932
L216.708 192.429
L216.782 190.972
L216.857 191.646
L217.006 199.882
L217.452 233.78
L217.601 237.858
L217.75 234.494
L217.973 226.332
L218.196 202.687
L218.419 180.102
L218.494 179.987
L218.642 189.088
L219.014 232.484
L219.089 232.277
L219.238 232.783
L219.312 232.317
L219.535 225.63
L219.684 222.047
L219.758 222.22
L219.833 222.807
L219.907 222.312
L219.982 222.364
L220.13 225.393
L220.279 227.375
L220.354 227.058
L220.502 217.185
L220.8 195.568
L220.874 195.142
L220.949 195.487
L221.023 194.86
L221.246 191.634
L221.395 197.388
L222.065 234.903
L222.437 230.076
L222.734 225.48
L222.883 224.524
L223.181 210.423
L223.33 212.22
L223.478 213.28
L223.776 209.432
L223.85 210.239
L224.148 215.198
L224.222 215.129
L224.669 203.649
L224.743 205.135
L225.115 222.577
L225.264 219.057
L225.413 215.48
L225.487 215.48
L225.562 217.295
L225.785 242.996
L225.859 242.426
L226.678 192.728
L227.05 163.566
L227.273 180.189
L227.942 265.656
L228.091 258.266
L228.612 227.571
L228.686 225.912
L228.761 226.119
L228.835 226.188
L228.984 221.171
L229.728 183.535
L229.951 178.046
L230.1 182.481
L230.323 196.697
L230.695 228.832
L230.77 229.276
L230.993 226.09
L231.142 222.289
L231.216 222.45
L231.588 233.054
L231.811 246.222
L232.183 255.201
L232.258 254.752
L232.406 242.91
L232.63 212.41
L233.002 162.5
L233.225 150.387
L233.299 151.256
L233.448 161.313
L233.746 198.65
L233.969 257.632
L234.192 311.269
L234.266 314.518
L234.341 310.572
L234.564 270.69
L235.234 150.905
L235.382 146.142
L235.457 147.282
L235.68 165.426
L236.201 233.267
L236.35 228.774
L236.498 224.639
L236.573 225.572
L236.722 234.644
L237.094 273.702
L237.242 265.379
L237.614 234.586
L237.763 220.111
L238.135 176.618
L238.21 175.846
L238.284 176.877
L238.656 188.264
L238.73 188.869
L238.805 190.649
L238.954 209.98
L239.326 278.143
L239.474 257.926
L239.995 148.227
L240.07 149.822
L240.218 171.071
L240.59 233.803
L240.962 213.856
L241.037 214.57
L241.409 231.758
L241.632 225.244
L241.93 216.339
L242.078 208.407
L242.302 217.087
L242.599 260.374
L242.674 255.484
L242.822 238.123
L242.897 241.596
L243.046 257.402
L243.12 254.332
L243.566 175.287
L243.79 194.675
L244.013 223.199
L244.087 222.571
L244.236 198.932
L244.459 161.843
L244.534 160.23
L244.682 170.028
L245.129 209.876
L245.203 211.189
L245.352 206.719
L245.426 209.669
L245.65 247.143
L245.947 283.126
L246.022 283.425
L246.17 266.105
L246.468 225.722
L246.766 221.321
L246.84 221.713
L246.989 224.126
L247.212 235.26
L247.286 234.252
L247.51 213.487
L248.105 144.955
L248.254 155.496
L248.7 210.475
L248.849 225.762
L249.221 264.602
L249.295 265.523
L249.593 272.982
L249.816 258.381
L250.486 189.912
L250.634 189.365
L250.858 193.806
L250.932 192.918
L251.378 174.844
L251.453 177.038
L251.75 232.38
L251.974 255.904
L252.346 228.924
L252.494 208.828
L252.792 148.134
L252.866 151.187
L253.09 202.175
L253.462 281.467
L253.61 292.659
L253.685 291.397
L253.834 276.657
L254.131 210.475
L254.28 188.184
L254.354 188.155
L254.503 198.097
L254.875 230.762
L254.95 231.297
L255.098 219.011
L255.694 143.008
L255.768 145.254
L255.991 174.872
L256.661 256.601
L256.81 264.233
L256.958 259.383
L257.107 253.681
L257.182 254.585
L257.33 269.348
L257.554 294.364
L257.628 292.849
L257.777 271.301
L258.446 119.738
L258.521 121.99
L258.67 138.394
L259.339 250.91
L259.414 253.836
L259.488 253.139
L259.934 236.476
L260.306 244.586
L260.455 237.063
L261.05 177.701
L261.497 210.999
L261.571 209.674
L261.646 210.083
L261.72 212.577
L262.018 256.405
L262.39 134.385
L262.613 233.152
L262.836 284.416
L262.91 282.337
L263.506 226.488
L263.654 222.98
L263.878 195.591
L264.175 146.216
L264.25 146.885
L264.398 176.168
L264.77 265.034
L264.845 268.156
L265.068 248.906
L265.44 202.866
L265.738 172.782
L265.812 172.47
L265.886 173.19
L265.961 176.255
L266.184 210.4
L266.482 252.776
L266.63 257.43
L267.002 243.664
L267.374 199.784
L267.598 177.021
L267.672 177.816
L267.895 197.809
L268.193 225.054
L268.267 225.526
L268.342 224.247
L268.416 225.134
L268.639 236.124
L268.862 253.278
L268.937 248.134
L269.16 189.059
L269.383 158.128
L269.606 193.028
L269.904 229.575
L269.978 229.391
L270.127 224.512
L270.276 230.41
L270.797 273.622
L270.946 260.587
L271.243 159.793
L271.466 114.819
L271.541 112.451
L271.69 132.438
L272.359 262.591
L272.582 274.325
L272.657 274.958
L272.731 273.414
L273.029 251.711
L273.401 209.519
L273.475 210.481
L274.07 242.518
L274.145 248.209
L274.219 243.192
L274.591 101.329
L274.666 103.875
L275.186 222.675
L275.558 270.753
L275.707 247.091
L276.005 198.592
L276.079 197.803
L276.302 203.759
L276.526 199.969
L276.6 200.637
L276.749 213.39
L277.121 248.514
L277.418 260.449
L277.567 264.832
L277.642 262.148
L277.939 227.703
L278.534 123.441
L278.609 126.16
L278.758 147.881
L278.981 217.134
L279.204 272.406
L279.278 274.348
L279.427 248.842
L279.576 223.648
L279.65 224.466
L279.874 258.968
L280.097 288.045
L280.171 285.148
L280.766 183.783
L281.064 108.183
L281.138 109.779
L281.287 136.989
L281.808 265.823
L281.957 245.098
L282.254 194.664
L282.329 197.094
L282.998 257.413
L283.519 233.63
L283.817 205.74
L283.891 203.592
L283.966 204.318
L284.189 214.766
L284.263 214.737
L284.486 203.695
L284.858 168.968
L284.933 176.906
L285.305 238.607
L285.454 228.319
L285.9 180.494
L286.049 191.582
L286.421 241.078
L286.495 239.822
L286.718 233.48
L286.867 239.828
L286.942 245.179
L287.016 244.246
L287.611 195.747
L287.686 195.522
L287.76 196.939
L288.132 229.736
L288.206 226.28
L288.43 219.109
L288.578 236.896
L288.802 266.825
L288.95 239.978
L289.248 183.616
L289.322 183.852
L289.471 194.353
L289.843 228.556
L289.918 227.392
L290.587 169.418
L290.662 169.158
L290.736 172.246
L291.034 215.866
L291.48 290.913
L291.554 288.12
L291.778 257.033
L292.298 171.595
L292.447 165.587
L292.596 172.355
L293.34 247.863
L293.638 244.597
L293.935 232.259
L294.382 199.531
L294.679 179.492
L294.754 179.895
L294.902 183.461
L295.349 202.699
L295.721 245.83
L295.795 245.836
L296.018 233.406
L296.167 226.672
L296.242 227.116
L296.316 229.356
L296.39 228.233
L296.762 214.484
L296.837 216.402
L297.209 241.389
L297.283 239.615
L297.581 196.616
L297.878 159.234
L297.953 159.441
L298.102 167.724
L298.325 216.068
L298.622 288.529
L298.697 292.198
L298.771 290.118
L298.92 273.247
L299.738 141.159
L299.813 142.904
L300.408 216.984
L300.929 306.949
L301.003 307.422
L301.226 276.225
L302.045 160.063
L302.268 158.704
L302.417 166.929
L303.086 218.729
L303.384 236.199
L303.458 236.435
L303.533 237.351
L303.607 236.706
L303.83 231.804
L303.979 237.501
L304.351 268.593
L304.426 262.47
L304.574 195.205
L304.798 120.642
L305.021 187.619
L305.318 265.212
L305.467 274.198
L305.542 274.117
L305.69 261.808
L305.914 223.729
L306.211 172.839
L306.36 164.81
L306.434 165.478
L306.658 181.076
L307.03 222.392
L307.178 223.694
L307.253 224.351
L307.402 213.125
L307.625 192.492
L307.699 194.163
L307.848 205.21
L308.146 248.364
L308.518 311.333
L308.592 310.699
L308.964 225.854
L309.41 130.446
L309.559 126.195
L309.634 129.173
L310.303 211.35
L310.75 283.587
L310.824 282.348
L310.973 260.875
L311.122 238.088
L311.196 238.509
L311.494 261.359
L311.717 243.128
L311.94 206.478
L312.312 151.4
L312.386 150.824
L312.535 156.602
L312.907 187.654
L313.13 217.94
L313.428 254.821
L313.502 257.482
L313.651 250.755
L314.321 220.929
L314.395 220.849
L314.544 223.228
L314.618 222.554
L314.767 218.239
L315.214 197.901
L315.437 205.383
L315.734 220.451
L315.883 224.846
L315.958 224.04
L316.255 211.95
L316.33 210.711
L316.404 210.74
L316.553 211.512
L316.702 210.481
L316.85 211.944
L316.925 210.746
L317.148 200.838
L317.297 204.197
L317.446 212.439
L317.669 223.763
L317.743 223.907
L317.966 218.32
L318.041 219.42
L318.115 219.103
L318.338 212.623
L318.487 220.636
L318.785 248.998
L318.934 244.937
L319.157 234.517
L319.231 233.918
L319.306 235.715
L319.38 233.342
L320.124 157.454
L320.198 157.523
L320.719 209.248
L321.314 309.391
L321.538 288.604
L321.761 247.045
L322.207 143.82
L322.505 117.52
L322.579 119.052
L322.728 139.512
L323.472 288.028
L323.546 286.599
L323.844 264.573
L324.142 236.982
L324.662 126.719
L324.811 150.076
L325.332 284.076
L325.406 287.59
L325.481 286.945
L325.63 274.653
L326.597 163.784
L326.671 162.35
L326.746 162.586
L326.894 167.39
L327.118 198.425
L327.564 252.149
L327.638 250.547
L327.862 233.169
L328.085 213.919
L328.159 213.384
L328.234 214.167
L328.457 223.331
L328.754 239.707
L328.829 238.895
L329.052 227.45
L329.573 197.227
L329.647 198.212
L329.796 203.805
L330.094 221.407
L330.242 218.067
L330.317 218.89
L330.466 222.508
L330.986 194.186
L331.21 201.247
L331.805 229.673
L331.879 229.068
L332.4 199.617
L332.549 205.51
L332.772 233.665
L333.07 263.052
L333.144 265.172
L333.218 262.603
L333.442 231.539
L333.739 193.708
L333.888 191.444
L334.111 199.531
L334.186 198.339
L334.409 179.175
L334.558 168.225
L334.632 169.734
L334.781 180.166
L335.004 219.547
L335.302 268.288
L335.45 278.754
L335.525 278.207
L335.748 261.013
L335.971 229.552
L336.492 128.366
L336.566 131.292
L336.79 176.433
L337.385 294.012
L337.534 309.95
L337.608 307.324
L337.831 272.234
L338.203 173.605
L338.501 102.51
L338.575 103.27
L338.724 144.909
L338.947 221.69
L339.022 218.343
L339.245 192.337
L339.394 220.054
L339.766 310.768
L339.84 310.469
L339.989 285.66
L340.435 174.665
L340.584 163.301
L340.658 163.387
L340.882 176.289
L341.105 204.646
L341.402 233.319
L341.551 240.784
L341.626 240.473
L341.774 233.619
L342.072 209.922
L342.295 210.959
L342.518 223.763
L342.816 247.206
L342.89 246.515
L342.965 244.401
L343.114 228.855
L343.411 190.211
L343.634 180.788
L343.783 193.558
L344.155 232.933
L344.23 233.774
L344.304 232.847
L344.453 223.383
L344.899 184.745
L344.974 183.115
L345.122 189.877
L345.346 225.837
L345.569 256.083
L345.643 257.102
L345.718 255.783
L346.164 232.547
L346.313 226.488
L346.536 206.552
L347.131 156.763
L347.206 154.805
L347.354 164.182
L347.652 218.775
L347.95 270.465
L348.173 281.674
L348.322 277.251
L348.619 254.689
L349.14 201.23
L349.289 196.202
L349.735 172.154
L349.884 177.764
L350.777 236.775
L350.851 233.607
L351.298 180.978
L351.372 184.048
L351.595 212.808
L351.967 268.588
L352.116 273.875
L352.339 261.929
L352.488 252.033
L353.232 164.81
L353.306 168.248
L354.125 220.843
L354.497 225.745
L354.646 227.98
L355.018 219.461
L355.241 209.732
L355.538 202.538
L355.836 219.236
L356.134 233.751
L356.282 231.804
L356.431 232.801
L356.654 224.31
L356.952 212.6
L357.026 212.75
L357.175 215.273
L357.25 213.908
L357.547 199.203
L357.77 207.134
L357.919 207.226
L357.994 207.825
L358.291 214.749
L358.366 214.53
L358.589 211.615
L358.663 212.364
L358.812 215.74
L358.961 212.796
L359.035 211.35
L359.11 212.462
L359.482 229.638
L359.556 227.859
L359.63 228.872
L359.705 231.47
L359.779 231.326
L359.928 224.927
L360.002 225.67
L360.077 226.021
L360.3 216.327
L360.374 217.888
L360.598 208.517
L360.672 211.443
L360.746 212.664
L360.97 204.646
L361.044 205.308
L361.193 203.851
L361.342 201.8
L361.49 203.793
L361.639 205.199
L361.788 202.716
L361.862 203.69
L362.086 219.87
L362.458 243.013
L362.606 244.252
L362.755 241.493
L362.904 230.566
L363.202 209.07
L363.35 200.061
L363.425 200.833
L363.648 208.442
L363.722 208.015
L363.797 208.027
L364.094 214.881
L364.318 220.601
L364.764 215.446
L364.838 214.95
L365.062 208.782
L365.136 210.198
L365.21 208.735
L365.359 198.552
L365.434 199.681
L366.029 218.458
L366.326 225.992
L366.475 233.457
L366.55 232.236
L366.847 213.856
L367.07 206.028
L367.294 210.337
L367.442 209.035
L367.666 221.505
L367.889 237.472
L367.963 236.602
L368.633 204.582
L368.707 204.663
L369.079 213.044
L369.451 222.22
L369.526 221.598
L369.823 219.489
L369.898 219.461
L370.046 218.458
L370.195 208.776
L370.493 196.017
L370.567 196.415
L370.79 209.519
L370.865 209.323
L370.939 208.62
L371.088 216.448
L371.534 235.98
L371.609 236.015
L371.906 225.774
L372.427 210.498
L372.502 210.654
L372.799 218.712
L372.874 217.75
L373.246 198.604
L373.32 197.809
L373.469 205.187
L373.618 210.872
L373.692 210.97
L373.841 212.307
L374.064 211.155
L374.287 224.673
L374.659 246.112
L374.734 245.381
L374.957 222.732
L375.329 172.108
L375.403 170.846
L375.478 171.048
L375.998 227.674
L376.073 227.45
L376.147 223.066
L376.222 225.756
L376.37 256.227
L376.594 307.79
L376.668 301.051
L377.189 153.699
L377.263 159.597
L377.858 262.275
L377.933 261.163
L378.007 253.508
L378.23 160.916
L378.454 115.637
L378.528 121.431
L379.123 266.088
L379.198 269.797
L379.272 269.348
L379.421 254.764
L379.793 208.707
L380.09 187.953
L380.165 189.664
L380.314 214.593
L380.686 286.328
L380.76 283.339
L381.206 228.331
L381.653 156.245
L382.025 122.214
L382.174 133.827
L382.397 178.04
L382.843 287.158
L382.918 285.413
L383.29 235.566
L383.364 238.48
L383.736 271.566
L384.034 265.385
L384.257 237.265
L384.778 153.946
L384.926 159.119
L385.224 175.114
L385.596 163.139
L385.67 163.658
L385.819 174.383
L386.712 283.961
L386.786 286.161
L386.861 285.021
L387.01 272.959
L387.754 188.668
L387.977 183.714
L388.051 184.123
L388.274 195.384
L388.572 205.239
L388.721 207.105
L388.795 206.829
L388.944 205.337
L389.093 208.154
L389.614 230.71
L389.837 245.035
L389.911 244.805
L390.134 226.534
L390.432 207.192
L390.655 197.411
L390.73 198.172
L391.176 216.673
L391.325 211.172
L391.622 192.141
L391.697 192.677
L391.994 207.704
L392.59 261.774
L392.664 260.633
L393.557 185.782
L393.631 184.975
L393.929 195.568
L394.152 192.377
L394.301 194.986
L394.45 203.442
L394.747 225.687
L394.97 232.501
L395.119 229.535
L395.491 232.749
L395.566 233.417
L395.789 240.03
L396.086 233.999
L396.235 237.368
L396.384 241.17
L396.533 236.55
L396.682 219.685
L397.128 152.575
L397.202 149.759
L397.277 150.542
L397.426 158.462
L397.798 208.142
L398.095 243.457
L398.318 251.238
L398.393 251.607
L398.542 246.198
L398.839 228.538
L399.062 223.205
L399.137 224.161
L399.286 232.017
L399.583 249.418
L399.732 238.123
L400.402 172.747
L400.476 169.971
L400.55 171.756
L400.774 180.223
L400.997 187.878
L401.22 205.475
L401.666 239.742
L401.815 243.82
L401.89 243.733
L402.336 232.156
L402.708 223.781
L402.931 228.654
L403.08 222.594
L403.452 198.759
L403.526 199.473
L403.601 199.784
L403.75 197.97
L403.824 198.206
L403.898 198.31
L404.196 206.368
L404.27 204.548
L404.345 205.038
L404.568 208.897
L404.717 206.42
L404.791 207.388
L404.94 215.774
L405.163 225.791
L405.461 234.316
L405.61 239.494
L405.684 238.964
L405.833 233.469
L406.354 196.023
L406.577 200.113
L407.023 244.332
L407.098 243.929
L407.321 239.839
L407.618 216.632
L408.065 174.026
L408.288 168.968
L408.362 169.366
L408.511 177.591
L408.734 204.525
L409.032 245.455
L409.255 261.342
L409.33 261.313
L409.404 260.708
L409.553 262.568
L409.627 261.566
L409.776 252.667
L410.52 190.303
L410.594 190.062
L410.818 194.145
L410.966 190.044
L411.041 191.715
L411.264 200.827
L411.413 207.739
L411.562 210.579
L411.785 207.791
L411.934 207.209
L412.082 214.887
L412.454 236.556
L412.603 241.366
L413.422 207.342
L413.496 207.399
L413.942 217.185
L414.166 213.303
L414.24 213.557
L414.314 212.744
L414.761 198.817
L414.835 199.963
L415.356 227.323
L415.43 228.711
L415.505 227.939
L415.579 230.324
L415.728 240.565
L415.802 240.058
L416.026 227.68
L416.249 232.559
L416.323 231.274
L416.472 213.608
L416.695 186.49
L416.77 184.111
L417.142 214.962
L417.216 214.144
L417.662 193.8
L417.737 198.655
L418.183 281.202
L418.258 275.736
L419.002 122.67
L419.15 140.526
L420.118 310.895
L420.341 325.076
L420.415 321.326
L420.638 283.183
L421.234 152.656
L421.382 150.162
L421.68 157.425
L421.978 187.118
L422.35 215.918
L422.722 231.666
L422.796 232.277
L422.87 231.971
L422.945 231.937
L423.094 233.578
L423.168 233.112
L423.317 229.529
L423.689 207.653
L423.763 205.101
L423.838 206.057
L424.135 221.903
L424.433 230.128
L424.582 232.421
L424.656 231.142
L424.805 217.796
L425.102 196.282
L425.177 192.746
L425.251 192.849
L425.549 226.614
L425.921 256.192
L425.995 257.275
L426.07 256.019
L426.218 239.292
L426.59 171.002
L426.665 167.816
L426.888 178.91
L427.186 199.566
L427.26 201.76
L427.334 200.337
L427.409 201.841
L427.632 210.296
L427.706 209.455
L427.781 210.642
L428.004 241.302
L428.302 267.58
L428.376 267.631
L428.525 258.807
L428.897 214.115
L429.269 171.399
L429.418 167.909
L429.566 180.632
L430.087 247.247
L430.162 248.79
L430.534 233.538
L431.129 196.743
L431.203 197.382
L431.352 206.512
L431.575 224.057
L431.798 228.895
L431.947 221.517
L432.468 186.381
L432.617 194.232
L433.212 237.311
L433.658 225.877
L433.733 227.064
L433.807 227.231
L433.956 223.36
L434.328 211.062
L434.551 206.886
L434.626 207.198
L434.849 210.648
L435.072 205.038
L435.221 194.796
L435.295 195.775
L435.444 212.422
L435.816 272.326
L435.89 269.999
L436.709 171.146
L436.932 159.626
L437.081 173.502
L437.304 218.36
L437.527 259.562
L437.602 260.368
L437.825 244.292
L437.899 246.037
L438.197 269.083
L438.271 268.703
L438.42 256.705
L438.569 224.328
L439.015 85.7882
L439.164 127.306
L439.61 282.129
L439.685 284.629
L439.834 277.959
L440.057 260.892
L440.875 179.941
L440.95 183.144
L441.47 229.921
L441.694 226.908
L441.917 218.925
L442.214 204.404
L442.363 194.502
L442.438 195.165
L442.586 209.507
L442.81 228.389
L442.884 226.776
L443.182 205.936
L443.479 181.986
L443.554 182.118
L443.777 193.967
L443.926 209.928
L444.223 245.605
L444.446 250.179
L444.595 242.766
L444.967 219.236
L445.042 218.666
L445.19 226.591
L445.414 236.406
L445.488 236.683
L445.562 235.635
L445.711 227.841
L446.232 175.293
L446.381 175.483
L446.455 175.541
L446.53 176.606
L446.753 191.951
L446.902 218.654
L447.05 252.275
L447.125 247.558
L447.348 182.666
L447.422 188.034
L447.794 270.356
L447.943 278.524
L448.092 268.225
L448.464 222.917
L449.059 142.812
L449.134 146.038
L449.803 217.289
L449.878 231.781
L449.878 231.781" style="fill:none;stroke:#808080;stroke-linecap:square;"/>
   </g>
  </g>
 </g>
 <defs>
  <clipPath id="p7ff5b81e1d">
   <rect height="345.6" width="446.4" x="72.0" y="43.2"/>
  </clipPath>
 </defs>
</svg>
