<?xml version="1.0" encoding="utf-8" standalone="no"?>
<!DOCTYPE svg PUBLIC "-//W3C//DTD SVG 1.1//EN"
  "http://www.w3.org/Graphics/SVG/1.1/DTD/svg11.dtd">
<!-- Created with matplotlib (http://matplotlib.org/) -->
<svg height="432pt" version="1.1" viewBox="0 0 576 432" width="576pt" xmlns="http://www.w3.org/2000/svg" xmlns:xlink="http://www.w3.org/1999/xlink">
 <defs>
  <style type="text/css">
*{stroke-linecap:butt;stroke-linejoin:round;}
  </style>
 </defs>
 <g id="figure_1">
  <g id="patch_1">
   <path d="
M0 432
L576 432
L576 0
L0 0
z
" style="fill:#ffffff;"/>
  </g>
  <g id="axes_1">
   <g id="line2d_1">
    <path clip-path="url(#p7ff5b81e1d)" d="
M72 219.941
L72.2232 176.865
L72.2976 174.199
L72.372 175.275
L72.6696 217.157
L72.744 212.393
L72.9672 195.137
L73.116 204.587
L73.2648 213.335
L73.7112 197.961
L74.0088 169.035
L74.1576 179.906
L74.3064 192.377
L74.3808 189.257
L74.604 158.834
L74.6784 159.101
L74.976 180.795
L75.1992 170.195
L75.2736 170.491
L76.092 255.444
L76.1664 250.068
L76.9104 168.215
L77.208 150.752
L77.2824 151.873
L77.4312 153.453
L77.6544 131.744
L77.7288 136.627
L78.1008 227.742
L78.2496 217.394
L78.324 217.522
L78.4728 233.711
L78.696 258.575
L78.8448 252.265
L78.9936 241.887
L79.1424 216.387
L79.5144 137.832
L79.9608 102.028
L80.0352 105.479
L80.184 138.775
L80.556 246.597
L80.7048 248.231
L80.8536 245.807
L80.928 246.434
L81.0024 245.076
L81.2256 230.285
L81.4488 205.614
L81.8952 140.088
L82.044 157.857
L82.3416 220.573
L82.416 220.03
L82.7136 167.993
L82.788 170.595
L83.2344 209.04
L83.3088 208.428
L83.7552 199.872
L83.8296 199.398
L83.9784 190.916
L84.2016 172.446
L84.4248 165.929
L84.648 158.227
L84.7224 158.592
L84.8712 168.225
L85.2432 209.958
L85.392 202.103
L85.5408 195.759
L85.6152 196.85
L85.764 205.885
L85.9872 223.861
L86.0616 222.652
L86.2104 203.831
L86.508 161.505
L86.5824 158.973
L86.6568 163.53
L87.0288 225.654
L87.1032 225.101
L87.3264 197.986
L87.4008 198.277
L87.5496 206.147
L87.624 202.015
L87.9216 133.882
L87.996 138.957
L88.5168 249.224
L88.5912 244.83
L88.8888 192.753
L89.1864 154.342
L89.3352 157.714
L89.484 160.844
L89.5584 159.708
L89.7816 154.129
L89.9304 163.549
L90.3768 216.875
L90.8232 190.072
L90.8976 191.859
L91.1952 213.632
L91.716 252.61
L91.8648 234.797
L92.46 113.195
L92.6088 108.416
L92.6832 109.137
L92.832 116.479
L92.9808 145.539
L93.5016 302.767
L93.6504 280.905
L94.2456 131.147
L94.32 130.15
L94.3944 131.873
L94.5432 145.03
L95.064 212.723
L95.3616 217.986
L95.436 218.031
L95.5848 213.444
L96.18 157.111
L96.2544 158.089
L96.4032 182.972
L96.7752 253.82
L96.8496 245.54
L97.2216 91.3584
L97.296 97.4953
L97.5192 133.201
L97.7424 203.999
L98.04 352.992
L98.1144 335.485
L98.412 194.579
L98.7096 134.884
L98.8584 121.638
L98.9328 122.112
L99.156 141.623
L99.8256 220.252
L99.9 219.028
L100.198 204.646
L100.272 205.584
L100.346 207.204
L100.644 237.582
L100.793 202.612
L101.09 88.3221
L101.165 90.2278
L101.388 136.262
L101.983 294.838
L102.058 297.163
L102.132 297.005
L102.281 280.14
L103.025 112.154
L103.174 117.367
L103.322 127.168
L103.769 175.413
L103.992 212.501
L104.141 231.341
L104.364 206.216
L104.513 195.34
L104.662 179.225
L104.885 213.469
L104.959 213.548
L105.406 243.052
L105.703 188.729
L105.852 192.55
L105.926 191.913
L106.001 189.613
L106.075 190.082
L106.298 202.281
L106.522 173.053
L106.745 147.593
L106.819 149.562
L107.266 203.002
L107.34 198.697
L107.563 190.906
L107.935 156.371
L108.084 176.124
L108.456 235.266
L108.53 239.527
L108.605 239.206
L108.754 220.672
L109.126 172.797
L109.274 171.093
L109.349 171.098
L109.498 172.945
L110.167 194.476
L110.39 196.806
L110.688 200.069
L110.762 199.887
L110.986 197.956
L111.134 199.536
L111.358 197.339
L111.432 196.801
L111.581 199.437
L112.102 192.308
L112.325 177.6
L112.548 156.687
L112.622 156.272
L112.771 159.042
L113.143 183.249
L113.366 208.245
L113.515 256.738
L113.664 306.02
L113.738 287.205
L113.962 182.829
L114.185 163.806
L114.408 136.222
L114.482 135.087
L114.631 148.881
L115.078 207.554
L115.226 211.504
L115.375 209.193
L115.45 209.568
L115.524 209.514
L115.598 209.035
L115.747 202.538
L116.045 190.037
L116.342 178.479
L116.417 178.8
L116.64 184.073
L116.714 182.167
L117.012 168.437
L117.161 179.921
L117.607 237.315
L117.682 238.391
L117.756 236.54
L117.979 212.629
L118.426 170.244
L118.649 158.434
L118.872 164.907
L118.946 166.744
L119.244 188.931
L119.393 173.72
L119.616 152.169
L119.69 150.866
L119.839 158.943
L120.062 195.878
L120.509 275.756
L120.583 277.933
L120.658 277.513
L120.806 261.502
L121.625 124.911
L121.774 133.615
L122.294 170.012
L122.964 222.42
L123.41 259.621
L123.559 246.296
L123.782 198.968
L124.154 109.083
L124.229 106.891
L124.303 108.88
L124.452 125.528
L125.196 248.404
L125.27 248.853
L125.345 248.74
L125.494 247.738
L125.642 249.648
L125.791 245.822
L125.94 229.243
L126.684 85.6758
L126.758 91.2844
L126.982 150.54
L127.354 249.979
L127.428 253.45
L127.577 241.151
L128.321 143.84
L128.395 147.622
L128.544 178.953
L128.842 284.959
L129.362 212.141
L129.734 136.361
L129.958 120.181
L130.032 121.826
L130.181 132.1
L130.404 171.286
L130.776 227.875
L130.925 230.912
L130.999 230.285
L131.148 223.94
L131.52 202.197
L132.19 182.454
L132.264 181.797
L132.636 172.846
L132.785 181.348
L133.157 205.446
L133.231 205.515
L133.454 193.177
L133.826 171.375
L133.975 176.648
L134.198 185.199
L134.273 185.238
L134.347 185.12
L134.422 184.577
L134.496 185.347
L134.719 197.764
L135.24 237.606
L135.314 236.125
L135.538 211.563
L136.133 133.991
L136.282 140.271
L136.505 159.906
L137.1 229.791
L137.249 232.921
L137.323 232.042
L137.546 219.226
L138.216 160.222
L138.29 161.402
L138.514 171.868
L138.886 189.38
L139.258 207.905
L139.332 207.885
L139.406 207.515
L139.704 196.88
L139.853 200.301
L140.076 205.199
L140.225 204.913
L140.374 207.223
L140.522 197.423
L140.894 152.535
L141.043 162.216
L141.341 188.067
L141.415 187.628
L141.638 174.016
L141.713 175.848
L141.862 194.165
L142.159 230.058
L142.234 230.665
L142.382 222.02
L142.903 179.131
L142.978 181.901
L143.201 196.683
L143.275 195.473
L143.722 146.368
L143.796 148.851
L144.019 188.393
L144.317 223.007
L144.614 246.587
L144.763 234.15
L144.986 180.578
L145.284 113.502
L145.358 106.891
L145.433 108.095
L145.582 139.244
L145.954 271.357
L146.251 215.454
L146.326 217.507
L146.474 222.958
L146.549 222.716
L146.698 209.173
L147.144 151.325
L147.367 139.817
L147.442 142.695
L147.814 200.114
L147.888 199.59
L148.037 185.07
L148.186 157.082
L148.26 157.961
L148.93 252.64
L149.376 198.46
L149.748 160.849
L149.822 159.264
L149.897 161.555
L150.12 189.603
L150.343 206.947
L150.492 202.237
L150.715 178.287
L150.938 154.998
L151.013 153.65
L151.087 155.897
L151.31 181.328
L151.682 223.368
L151.757 222.563
L152.129 199.151
L152.203 200.415
L152.278 199.215
L152.501 192.19
L152.575 192.417
L152.724 194.179
L152.873 191.163
L153.022 187.179
L153.17 187.371
L153.542 185.796
L153.617 185.969
L153.766 187.025
L153.84 186.858
L154.138 172.55
L154.212 173.004
L154.361 183.619
L154.658 202.671
L154.807 199.59
L154.882 200.622
L155.105 210.798
L155.254 205.481
L155.402 190.417
L155.7 142.206
L155.849 159.54
L156.295 241.211
L156.444 247.54
L156.593 239.473
L156.816 200.672
L157.114 161.155
L157.262 155.823
L157.411 164.882
L157.709 184.957
L157.783 186.112
L157.932 177.724
L158.304 151.547
L158.676 162.424
L158.825 184.735
L159.271 274.931
L159.346 276.931
L159.42 275.578
L159.569 263.571
L159.866 212.17
L160.238 154.801
L160.536 138.019
L160.685 140.404
L160.834 143.208
L160.908 142.971
L161.057 148.851
L161.429 182.498
L161.875 227.441
L162.024 230.122
L162.173 226.473
L162.991 187.139
L163.066 186.601
L163.14 186.991
L163.289 190.585
L163.512 196.905
L163.586 196.964
L163.81 193.849
L164.033 187.687
L164.479 171.355
L164.554 170.916
L164.777 177.457
L165 187.218
L165.521 209.366
L165.67 206.517
L166.042 192.264
L166.19 190.881
L166.265 190.684
L166.414 189.376
L166.562 191.163
L166.637 191.197
L167.009 187.386
L167.232 183.174
L167.381 181.935
L167.455 182.459
L167.53 182.34
L167.678 179.373
L167.902 187.248
L168.274 202.953
L168.422 203.298
L168.571 201.684
L168.72 197.438
L168.794 197.729
L169.092 199.857
L169.166 200.242
L169.241 199.679
L169.464 190.654
L169.91 172.258
L169.985 172.703
L170.134 178.509
L170.58 206.947
L170.654 205.91
L171.25 165.445
L171.324 167.262
L171.622 197.147
L171.919 223.417
L171.994 224.108
L172.142 218.406
L172.44 198.963
L172.738 178.069
L172.812 175.759
L172.886 176.287
L173.184 183.693
L173.258 183.55
L173.482 182.078
L173.556 182.676
L173.928 195.784
L174.002 196.189
L174.598 173.053
L174.672 173.636
L174.746 175.561
L175.49 222.064
L175.639 223.516
L175.788 220.633
L176.011 199.877
L176.532 151.804
L176.606 152.11
L176.755 158.43
L177.499 212.432
L177.574 213.202
L177.871 206.897
L178.02 204.251
L178.094 203.807
L178.169 204.059
L178.318 199.102
L178.913 167.228
L179.21 143.697
L179.285 145.529
L179.434 162.33
L179.88 236.204
L179.954 238.574
L180.029 238.391
L180.178 228.907
L180.475 208.374
L181.145 175.497
L181.368 166.186
L181.517 164.626
L181.666 166.551
L181.814 172.091
L182.335 197.507
L182.41 197.245
L182.707 185.243
L182.782 186.724
L183.079 214.002
L183.154 208.739
L183.526 133.571
L183.6 134.825
L183.749 165.613
L184.121 264.134
L184.195 270.266
L184.27 269.856
L184.418 255.43
L185.088 146.882
L185.162 145.899
L185.311 147.04
L185.534 143.268
L185.683 148.802
L185.906 184.932
L186.353 263.882
L186.427 259.883
L186.65 216.604
L187.022 147.78
L187.097 149.163
L187.841 202.656
L188.138 199.571
L188.287 197.438
L188.362 197.305
L188.436 197.734
L188.51 197.023
L188.585 195.083
L188.734 182.069
L189.106 142.547
L189.254 156.618
L189.85 261.537
L189.998 247.772
L190.594 155.477
L190.668 154.124
L190.742 156.065
L191.04 174.065
L191.114 173.838
L191.189 172.639
L191.338 166.428
L191.412 166.892
L191.561 176.1
L192.156 225.56
L192.23 226.355
L192.379 222.909
L192.677 198.647
L193.346 160.395
L193.421 160.997
L193.495 159.901
L193.644 162.078
L193.867 175.487
L194.537 219.497
L194.686 216.885
L194.76 215.049
L194.983 220.405
L195.058 219.818
L195.281 206.606
L195.876 139.96
L196.025 147.272
L196.694 224.656
L196.843 213.938
L197.29 182.952
L197.438 181.896
L197.513 182.148
L197.662 185.604
L198.182 215.138
L198.257 213.118
L198.554 181.575
L198.852 160.933
L199.075 156.435
L199.224 159.56
L199.447 176.657
L199.968 234.6
L200.266 220.307
L200.34 220.366
L200.563 229.791
L200.638 226.059
L200.786 198.055
L201.158 119.125
L201.307 134.331
L201.754 220.238
L201.828 221.773
L202.126 206.345
L202.498 186.3
L202.721 172.747
L202.795 171.73
L202.87 174.026
L203.167 194.347
L203.465 184.266
L203.539 184.888
L203.911 211.583
L203.986 209.455
L204.358 185.056
L204.506 194.13
L204.655 199.27
L204.73 194.071
L205.102 135.032
L205.176 135.546
L205.325 171.029
L205.697 271.149
L205.771 274.625
L205.846 272.31
L206.218 214.155
L206.738 121.801
L206.813 123.534
L207.482 168.827
L207.929 234.254
L208.003 234.97
L208.152 227.046
L208.375 214.125
L208.45 216.1
L208.747 240.391
L208.822 236.896
L209.194 176.179
L209.491 147.918
L209.789 119.317
L209.938 134.795
L210.384 218.737
L210.458 218.771
L210.533 218.337
L210.607 219.28
L210.905 235.108
L210.979 232.403
L211.649 191.207
L212.021 151.33
L212.17 145.943
L212.244 146.872
L212.393 161.421
L212.914 235.671
L212.988 231.277
L213.583 145.726
L213.732 155.956
L214.476 239.601
L214.55 240.672
L214.699 229.83
L215.22 164.087
L215.369 179.022
L215.592 199.023
L215.666 198.588
L215.964 173.389
L216.187 152.658
L216.262 152.219
L216.336 152.604
L216.485 164.028
L217.006 248.853
L217.08 247.288
L217.229 235.474
L217.75 161.377
L217.898 152.046
L217.973 154.569
L218.196 209.435
L218.345 243.19
L218.419 238.688
L218.866 133.324
L218.94 135.413
L219.461 208.359
L219.535 205.066
L219.684 185.85
L220.13 281.68
L220.502 194.155
L220.651 205.086
L220.8 130.51
L220.874 94.9231
L220.949 95.1452
L221.395 206.616
L221.544 221.803
L221.842 258.984
L221.916 255.518
L222.214 152.056
L222.288 158.583
L222.437 188.512
L222.511 187.529
L222.809 102.566
L222.883 103.607
L223.181 177.576
L223.627 267.037
L223.776 247.15
L224.074 197.754
L224.148 195.71
L224.222 197.69
L224.446 222.499
L224.52 221.62
L225.041 129.157
L225.115 129.705
L225.264 149.567
L225.636 225.041
L225.71 223.516
L226.157 192.071
L226.306 195.152
L226.678 209.396
L227.05 182.31
L227.347 138.454
L227.422 139.456
L228.017 234.699
L228.091 232.102
L228.314 210.684
L228.463 210.477
L228.761 203.145
L228.91 184.231
L229.133 149.409
L229.207 148.995
L229.356 155.294
L229.579 184.73
L229.877 221.546
L229.951 223.012
L230.174 203.797
L230.398 187.549
L230.472 187.485
L230.695 198.771
L230.77 196.865
L231.142 162.3
L231.216 163.426
L231.365 165.169
L231.439 164.581
L231.588 175.616
L232.034 242.608
L232.109 242.01
L232.555 192.496
L232.63 192.98
L232.927 175.374
L233.002 170.639
L233.076 172.649
L233.225 177.408
L233.299 177.181
L233.448 181.407
L233.894 219.038
L233.969 216.12
L234.118 195.769
L234.415 142.211
L234.49 145.302
L234.936 191.745
L235.308 215.967
L235.382 215.33
L235.606 207.589
L235.754 212.506
L235.829 211.267
L235.978 203.249
L236.201 184.596
L236.35 188.808
L236.573 206.266
L236.722 187.667
L236.945 147.444
L237.019 148.027
L237.317 185.737
L237.689 220.02
L237.763 220.845
L237.912 213.4
L238.21 191.864
L238.433 195.043
L238.507 193.888
L238.879 172.5
L239.028 170.298
L239.102 166.788
L239.177 167.751
L239.326 173.053
L239.474 151.621
L239.772 288.449
L240.07 137.753
L240.144 152.762
L240.442 216.777
L240.665 226.152
L240.739 225.807
L240.814 221.635
L241.037 167.03
L241.26 132.253
L241.409 143.174
L241.558 176.677
L241.781 215.261
L241.93 208.487
L242.078 204.745
L242.153 204.76
L242.302 198.356
L242.45 190.398
L242.525 190.95
L242.674 195.409
L242.822 201.822
L242.971 196.11
L243.12 203.525
L243.194 202.8
L243.343 190.156
L243.641 168.546
L243.715 169.474
L243.79 167.677
L243.938 159.387
L244.013 160.153
L244.385 173.542
L244.682 260.214
L244.906 324.263
L244.98 318.403
L245.129 243.763
L245.426 58.6696
L245.501 49.3878
L245.575 56.0184
L246.245 268.671
L246.394 263.038
L246.617 227.999
L246.914 157.358
L246.989 161.984
L247.286 189.203
L247.361 181.521
L247.584 129.656
L247.733 120.172
L247.807 125.39
L248.254 256.486
L248.328 251.835
L248.551 185.964
L248.7 162.626
L248.849 187.954
L249.072 325.315
L249.146 325.231
L249.742 88.5887
L249.89 123.391
L250.188 192.511
L250.262 201.432
L250.486 188.22
L250.56 189.904
L250.709 203.743
L250.783 211.262
L250.858 210.541
L250.932 205.051
L251.006 206.878
L251.23 223.832
L251.453 252.966
L251.527 244.736
L251.899 117.994
L251.974 117.846
L252.42 165.149
L252.494 165.618
L252.569 169.597
L252.792 251.11
L252.866 241.729
L253.09 205.14
L253.387 235.128
L253.462 234.323
L253.536 231.874
L254.131 167.114
L254.206 170.308
L254.652 204.612
L254.875 245.54
L254.95 239.063
L255.247 153.073
L255.47 75.1597
L255.619 94.1183
L255.917 168.304
L255.991 165.702
L256.066 152.964
L256.14 154.105
L256.735 303.058
L256.958 269.515
L257.033 271.456
L257.107 271.288
L257.33 223.407
L257.702 139.476
L258.074 107.261
L258.149 111.606
L258.67 187.588
L258.744 186.764
L258.818 188.581
L259.042 203.086
L259.265 195.685
L259.414 209.899
L259.637 229.49
L259.711 229.45
L259.86 224.38
L260.083 195.641
L260.455 144.383
L260.604 151.261
L260.753 169.543
L261.05 295.761
L261.125 287.901
L261.422 152.174
L261.497 155.29
L261.646 164.339
L261.869 143.969
L262.092 179.417
L262.39 215.197
L262.464 212.249
L262.538 212.348
L262.687 221.941
L262.836 233.736
L262.91 231.114
L263.431 175.813
L263.654 163.441
L263.729 164.231
L263.878 190.941
L264.026 208.546
L264.101 210.985
L264.175 208.226
L264.547 146.304
L264.622 147.671
L265.44 202.622
L265.663 176.692
L265.812 224.281
L265.961 266.775
L266.11 238.772
L266.258 214.945
L266.407 239.083
L266.482 231.03
L266.705 185.534
L267.002 162.962
L267.151 141.742
L267.374 169.375
L267.523 145.884
L267.598 136.054
L267.97 171.646
L268.044 184.779
L268.118 184.132
L268.193 181.131
L268.416 201.032
L268.49 201.704
L268.565 209.603
L268.862 305.077
L268.937 298.111
L269.458 189.696
L269.606 229.766
L269.681 212.007
L269.904 94.928
L269.978 98.3494
L270.127 89.1022
L270.425 115.526
L270.648 147.296
L270.722 148.545
L270.946 192.239
L271.169 232.037
L271.243 230.196
L271.318 232.501
L271.615 274.349
L271.838 265.21
L271.913 267.328
L271.987 265.985
L272.136 234.323
L272.434 170.846
L272.657 140.088
L272.731 139.194
L272.88 149.765
L272.954 146.684
L273.103 139.752
L273.252 154.939
L273.401 168.585
L273.475 168.97
L273.55 171.212
L273.773 196.638
L273.922 204.296
L274.07 201.427
L274.294 205.105
L274.368 205.224
L274.517 204.542
L274.666 204.577
L274.814 234.155
L274.963 249.88
L275.186 187.899
L275.41 135.951
L275.707 176.954
L275.93 219.635
L276.005 217.794
L276.154 201.822
L276.377 179.175
L276.451 177.225
L276.6 164.137
L276.674 164.458
L276.823 189.163
L277.046 227.11
L277.121 226.784
L277.27 191.192
L277.493 147.049
L277.642 173.567
L277.939 247.259
L278.014 239.779
L278.311 144.734
L278.386 148.244
L278.758 235.444
L279.13 157.97
L279.278 179.166
L279.353 176.05
L279.502 168.832
L279.576 169.765
L279.725 152.347
L279.799 156.371
L280.469 272.818
L280.543 269.802
L281.064 166.418
L281.213 162.799
L281.362 170.096
L281.51 183.253
L281.808 137.18
L281.957 131.32
L282.106 142.611
L282.254 157.027
L282.478 215.118
L282.701 255.484
L282.85 244.02
L283.147 211.543
L283.668 183.648
L283.742 183.895
L283.817 184.646
L283.891 183.802
L284.189 169.069
L284.263 169.923
L284.412 176.465
L284.561 191.424
L284.784 177.038
L284.933 185.855
L285.305 206.774
L285.454 210.615
L285.677 222.39
L285.751 216.846
L285.974 167.149
L286.049 167.85
L286.272 191.311
L286.346 188.921
L286.421 183.727
L286.495 183.984
L286.793 210.605
L286.867 208.388
L287.165 192.066
L287.388 177.719
L287.462 180.464
L287.76 212.057
L287.834 208.27
L288.206 157.042
L288.355 164.596
L288.504 175.882
L288.876 223.274
L289.248 171.977
L289.471 214.713
L289.62 197.581
L289.843 175.966
L290.066 165.534
L290.215 172.639
L290.587 220.919
L290.662 221.033
L290.736 215.286
L290.81 217.009
L290.885 219.556
L291.034 212.481
L291.257 227.253
L291.331 224.859
L291.778 146.768
L291.852 155.235
L292.075 175.611
L292.298 173.379
L292.447 169.168
L292.522 177.166
L292.819 254.18
L292.894 250.478
L293.34 127.79
L293.489 152.332
L293.861 233.756
L293.935 234.437
L294.084 232.037
L294.233 187.386
L294.456 140.192
L294.53 143.825
L294.902 203.738
L295.274 223.906
L295.423 227.836
L295.572 219.369
L296.018 176.697
L296.242 172.224
L296.688 164.557
L296.762 165.302
L296.911 171.459
L297.581 242.529
L297.655 242.292
L297.804 213.474
L298.102 144.689
L298.176 142.28
L298.325 151.809
L299.292 236.708
L299.366 235.36
L299.664 207.737
L300.11 176.736
L300.408 168.531
L300.631 165.593
L300.706 165.924
L300.854 164.951
L300.929 165.307
L301.078 169.908
L301.896 203.945
L301.97 204.034
L302.119 203.328
L302.566 217.206
L302.64 215.824
L303.086 190.067
L303.161 190.496
L303.384 195.399
L303.607 190.136
L303.756 185.678
L303.83 186.25
L304.054 191.553
L304.128 190.995
L304.5 180.267
L304.723 182.661
L304.872 190.447
L304.946 189.524
L305.244 157.832
L305.616 165.149
L305.839 190.289
L306.286 237.621
L306.36 240.223
L306.434 239.729
L306.583 227.392
L307.104 176.154
L307.253 174.322
L307.402 179.541
L307.699 192.214
L307.774 192.244
L308.071 187.993
L308.146 188.057
L308.294 187.573
L308.369 187.756
L308.443 187.317
L308.666 185.13
L308.89 184.108
L309.038 183.969
L309.187 185.095
L309.857 203.965
L309.931 204.044
L310.08 201.472
L310.303 195.103
L310.601 184.902
L311.122 181.767
L311.419 186.66
L311.642 191.834
L311.866 193.064
L311.94 192.98
L312.014 192.659
L312.312 183.436
L312.386 184.364
L312.61 191.41
L313.13 201.264
L313.279 202.286
L313.428 201.728
L313.502 201.852
L313.8 197.941
L314.023 193.933
L314.098 194.15
L314.246 195.009
L314.395 190.748
L314.693 170.037
L314.767 169.721
L314.916 172.718
L315.511 199.857
L315.66 199.482
L315.734 198.633
L315.809 198.899
L315.883 198.312
L316.106 194.718
L316.255 193.71
L316.33 193.868
L316.404 193.631
L316.553 192.718
L316.627 192.703
L316.925 187.949
L317.222 185.194
L317.297 185.223
L317.446 186.63
L317.892 194.525
L317.966 194.925
L318.041 194.821
L318.413 190.264
L318.562 191.01
L318.785 197.512
L319.008 208.477
L319.082 208.24
L319.231 200.983
L319.603 179.314
L319.901 172.194
L319.975 172.816
L320.05 173.567
L320.273 183.545
L320.794 202.296
L320.868 201.457
L321.091 195.577
L321.166 195.315
L321.314 193.528
L321.389 194.313
L321.686 202.01
L321.761 202.938
L321.91 199.102
L322.356 178.109
L322.505 175.176
L322.579 176.574
L323.026 190.383
L323.1 189.548
L323.174 189.943
L323.398 196.984
L323.621 195.345
L323.77 195.71
L323.918 229.974
L323.993 224.888
L324.142 137.057
L324.365 279.627
L324.514 98.4679
L324.588 125.533
L324.737 253.129
L324.886 121.258
L324.96 129.133
L325.109 262.203
L325.258 124.067
L325.332 124.427
L325.481 271.742
L325.704 123.944
L325.853 267.921
L326.076 121.011
L326.225 271.747
L326.299 237.789
L326.448 122.211
L326.597 263.556
L326.671 243.092
L326.82 126.338
L326.969 246.054
L327.043 242.376
L327.192 130.698
L327.415 238.92
L327.564 138.192
L327.638 157.921
L327.787 237.453
L327.936 152.821
L328.01 164.236
L328.159 230.487
L328.308 160.222
L328.382 164.779
L328.531 223.165
L328.68 167.129
L328.754 167.302
L328.903 216.732
L329.126 169.005
L329.275 214.145
L329.498 172.491
L329.647 210.911
L329.722 202.276
L329.87 174.944
L330.019 208.344
L330.094 202.711
L330.242 176.84
L330.391 202.992
L330.466 199.196
L330.614 181.995
L330.763 203.279
L330.838 199.808
L330.986 184.142
L331.21 197.764
L331.358 183.826
L331.433 184.562
L331.582 192.476
L331.73 185.347
L331.805 186.24
L331.954 196.07
L332.028 194.416
L332.177 185.984
L332.4 191.405
L332.549 185.559
L332.623 186.655
L332.772 192.076
L332.921 190.486
L333.144 198.86
L333.218 198.361
L333.516 193.967
L333.665 189.548
L333.814 190.378
L333.888 188.995
L333.962 189.316
L334.037 189.573
L334.186 191.424
L334.334 196.08
L334.409 195.71
L334.483 194.841
L334.558 195.433
L334.632 194.268
L334.855 187.524
L334.93 188.576
L335.004 188.245
L335.153 187.025
L335.227 188.324
L335.302 187.909
L335.376 187.287
L335.45 187.554
L335.748 192.738
L335.822 193.069
L335.971 191.237
L336.194 188.408
L336.418 190.738
L336.492 192.071
L336.566 192.017
L336.641 192.343
L336.79 195.863
L336.938 198.726
L337.013 198.445
L337.31 191.918
L337.534 183.357
L337.608 183.644
L337.682 182.493
L337.757 182.562
L337.906 183.693
L338.054 189.079
L338.278 199.403
L338.575 205.505
L338.65 203.96
L339.245 183.056
L339.319 183.708
L339.394 184.004
L339.542 182.37
L339.691 186.576
L339.766 185.248
L339.914 182.641
L340.138 184.596
L340.286 183.772
L340.956 204.088
L341.477 191.247
L341.626 191.617
L341.849 183.569
L341.998 184.043
L342.146 186.389
L342.667 199.916
L342.742 199.408
L342.816 197.744
L342.89 198.129
L342.965 196.91
L343.188 188.926
L343.262 189.02
L343.486 186.092
L343.709 181.901
L343.932 179.669
L344.23 189.188
L344.378 194.105
L344.75 209.094
L344.825 210.398
L345.271 194.92
L345.643 178.8
L345.718 175.591
L345.792 176.386
L345.941 178.529
L346.015 177.057
L346.09 177.117
L346.536 190.323
L346.759 197.384
L346.834 196.431
L346.908 196.91
L347.131 203.876
L347.206 202.479
L347.28 202.701
L347.354 203.782
L347.503 198.09
L347.726 187.662
L348.024 182.863
L348.247 186.226
L348.545 198.144
L348.768 199.926
L348.842 198.959
L349.438 180.212
L349.512 180.113
L349.586 180.301
L349.735 179.793
L350.182 190.595
L350.628 205.88
L350.702 205.638
L350.851 200.079
L351.074 191.642
L351.149 192.066
L351.223 190.946
L351.446 185.174
L351.521 186.68
L351.595 185.781
L351.818 176.623
L351.967 181.343
L352.042 180.38
L352.116 181.121
L352.414 203.871
L352.488 202.306
L352.562 204.424
L352.711 213.029
L352.934 204.38
L353.009 206.502
L353.083 203.846
L353.306 180.558
L353.381 181.466
L353.455 180.918
L353.678 169.854
L353.827 178.43
L353.902 176.337
L353.976 173.982
L354.05 176.919
L354.199 191.968
L354.274 190.521
L354.422 185.544
L354.571 191.879
L354.72 189.711
L355.018 220.351
L355.092 217.167
L355.241 215.113
L355.39 192.664
L355.538 173.537
L355.687 180.306
L355.836 174.643
L355.985 190.714
L356.059 200.292
L356.134 199.62
L356.208 195.31
L356.282 196.115
L356.431 205.831
L356.654 189.232
L356.729 192.032
L356.803 193.799
L357.026 180.39
L357.25 188.798
L357.324 188.581
L357.398 189.143
L357.622 193.715
L357.845 187.248
L357.994 189.988
L358.068 189.524
L358.291 184.058
L358.44 185.381
L358.514 184.769
L358.589 185.243
L358.886 195.843
L358.961 195.675
L359.184 200.06
L359.258 199.092
L359.482 196.766
L359.556 195.582
L359.779 187.924
L359.928 192.392
L360.077 189.568
L360.151 189.968
L360.3 194.11
L360.523 189.548
L360.598 189.879
L360.672 190.664
L360.746 190.496
L361.044 188.008
L361.49 193.602
L361.714 188.378
L361.862 194.624
L361.937 193.31
L362.086 187.011
L362.234 198.47
L362.309 195.888
L362.532 173.201
L362.681 241.383
L362.83 117.491
L362.904 131.433
L363.053 297.035
L363.276 90.8104
L363.425 308.642
L363.499 255.296
L363.648 72.9528
L363.797 307.092
L363.871 268.177
L364.02 76.9716
L364.169 304.164
L364.243 279.449
L364.392 74.5573
L364.541 289.244
L364.615 285.877
L364.764 74.7548
L364.987 298.373
L365.136 74.3006
L365.21 120.67
L365.359 318.284
L365.508 70.2275
L365.582 100.408
L365.731 314.354
L365.88 88.2875
L365.954 101.04
L366.103 299.202
L366.252 103.849
L366.326 104.22
L366.475 296.052
L366.698 111.714
L366.847 274.24
L367.07 129.848
L367.219 257.212
L367.442 138.765
L367.591 244.553
L367.666 224.967
L367.814 148.18
L367.963 233.129
L368.186 158.212
L368.335 222.928
L368.41 210.028
L368.558 162.937
L368.782 215.755
L368.93 170.402
L369.005 177.679
L369.154 213.419
L369.302 175.191
L369.377 180.503
L369.526 206.764
L369.674 180.736
L369.749 184.068
L369.823 193.301
L369.898 192.99
L370.046 189.311
L370.121 190.244
L370.195 189.854
L370.27 188.62
L370.418 192.017
L370.567 186.581
L370.642 181.654
L370.716 184.271
L370.865 194.994
L371.014 184.567
L371.311 195.868
L371.46 193.083
L371.534 193.212
L371.683 206.157
L371.758 203.792
L371.906 187.81
L372.055 200.766
L372.13 199.141
L372.278 180.054
L372.427 195.991
L372.502 195.952
L372.65 179.906
L372.874 192.96
L372.948 188.309
L373.022 182.197
L373.097 183.727
L373.246 188.437
L373.394 185.974
L373.618 195.552
L373.692 194.629
L373.766 192.772
L373.841 194.021
L373.99 202.039
L374.138 197.443
L374.287 195.305
L374.362 196.376
L374.436 196.115
L374.659 189.376
L374.734 191.913
L374.808 191.607
L375.031 184.814
L375.254 189.489
L375.403 187.623
L375.552 191.474
L375.626 190.649
L375.775 185.095
L375.85 185.806
L375.998 192.185
L376.222 188.373
L376.445 192.57
L376.519 191.543
L376.594 191.716
L376.817 201.447
L376.891 200.198
L377.04 197.211
L377.114 197.596
L377.189 198.144
L377.263 198.109
L377.486 190.654
L377.561 187.722
L377.635 187.776
L377.784 191.953
L377.858 191.365
L377.933 190.664
L378.082 195.71
L378.305 184.646
L378.379 186.384
L378.454 187.539
L378.677 177.077
L378.826 180.982
L378.9 179.778
L378.974 176.574
L379.049 179.032
L379.272 197.453
L379.346 197.206
L379.421 195.458
L379.644 204.034
L379.793 197.522
L379.867 198.494
L379.942 201.235
L380.016 201.012
L380.165 189.953
L380.239 190.254
L380.388 194.076
L380.537 184.093
L380.611 185.174
L380.686 188.388
L380.76 187.682
L380.909 182.365
L381.132 193.039
L381.206 192.042
L381.281 191.227
L381.653 199.255
L381.727 199.21
L381.876 196.599
L382.025 199.171
L382.099 198.598
L382.322 188.714
L382.397 191.558
L382.471 190.96
L382.62 181.501
L382.694 182.543
L382.843 185.1
L382.992 181.056
L383.215 196.07
L383.364 190.565
L383.513 202.291
L383.587 200.459
L383.736 191.405
L383.885 198.968
L384.108 179.146
L384.182 185.821
L384.257 191.089
L384.48 177.99
L384.629 192.619
L384.852 176.519
L385.001 193.997
L385.075 192.886
L385.15 186.448
L385.224 190.003
L385.373 213.864
L385.447 211.612
L385.522 202.39
L385.596 203.091
L385.745 217.734
L385.968 195.507
L386.042 198.188
L386.117 200.884
L386.34 179.797
L386.414 181.372
L386.489 182.459
L386.638 174.273
L386.712 174.589
L386.861 183.653
L387.01 181.604
L387.084 182.829
L387.233 186.522
L387.382 182.414
L387.605 192.585
L387.754 186.942
L387.977 196.105
L388.051 195.458
L388.2 199.324
L388.349 202.281
L388.498 199.719
L388.721 195.448
L388.795 196.594
L388.87 195.172
L389.018 190.106
L389.167 193.898
L389.39 186.744
L389.539 193.069
L389.762 182.212
L389.911 195.443
L389.986 194.332
L390.134 185.949
L390.283 200.04
L390.358 198.529
L390.506 183.762
L390.655 199.215
L390.73 198.159
L390.878 180.385
L391.027 200.005
L391.102 199.082
L391.25 179.694
L391.399 200.445
L391.474 199.126
L391.622 178.371
L391.846 199.507
L391.994 184.083
L392.143 202.518
L392.218 201.264
L392.366 182.859
L392.515 197.675
L392.59 195.058
L392.738 181.683
L392.887 195.774
L392.962 193.128
L393.11 182.064
L393.259 201.323
L393.334 198.81
L393.482 183.93
L393.631 199.887
L393.854 178.563
L394.003 201.634
L394.078 198.415
L394.226 180.37
L394.375 203.856
L394.45 202.331
L394.598 185.1
L394.747 208.186
L394.822 204.236
L394.97 182.473
L395.119 200.687
L395.194 196.604
L395.342 178.39
L395.491 194.545
L395.566 192.856
L395.714 179.659
L395.938 199.107
L396.086 185.233
L396.31 199.679
L396.458 187.504
L396.607 191.755
L396.682 191.291
L396.905 186.507
L397.351 192.239
L397.5 190.541
L397.649 193.903
L397.798 197.468
L397.872 197.176
L398.095 190.244
L398.244 193.607
L398.318 192.757
L398.467 188.437
L398.69 197.013
L398.765 195.503
L398.914 191.025
L399.062 195.981
L399.286 184.206
L399.434 191.005
L399.658 184.374
L399.881 194.545
L400.03 185.559
L400.253 196.633
L400.402 188.112
L400.476 188.852
L400.625 198.203
L400.699 196.495
L400.922 186.492
L400.997 187.707
L401.146 196.09
L401.369 186.166
L401.518 213.434
L401.592 199.892
L401.741 147.227
L401.964 259.118
L402.187 97.2336
L402.41 305.176
L402.634 73.7822
L402.857 310.271
L403.08 77.7862
L403.303 303.275
L403.526 83.6022
L403.75 302.342
L403.973 80.8127
L404.196 305.843
L404.27 241.566
L404.419 85.1673
L404.642 300.812
L404.717 247.313
L404.866 94.2072
L405.089 290.468
L405.163 244.839
L405.312 103.543
L405.386 134.514
L405.535 276.793
L405.61 245.985
L405.758 115.002
L405.833 136.657
L405.982 259.69
L406.056 243.131
L406.205 129.157
L406.279 138.577
L406.428 252.067
L406.502 241.926
L406.651 137.106
L406.726 146.279
L406.874 240.505
L406.949 234.876
L407.098 143.964
L407.172 147.227
L407.321 230.724
L407.395 229.396
L407.544 154.648
L407.618 157.457
L407.842 227.283
L408.065 157.314
L408.288 228.246
L408.511 154.49
L408.734 226.676
L408.958 158.267
L409.181 222.178
L409.404 162.715
L409.627 214.644
L409.776 168.906
L409.85 169.439
L410.074 208.403
L410.222 182.459
L410.297 183.337
L410.52 201.472
L410.743 183.293
L410.966 193.503
L411.041 192.269
L411.264 185.806
L411.487 196.924
L411.71 187.712
L411.859 199.6
L411.934 199.245
L412.082 187.909
L412.306 200.321
L412.38 195.552
L412.529 183.673
L412.752 197.428
L412.975 183.263
L413.05 185.495
L413.198 190.047
L413.347 187.899
L413.496 189.079
L413.57 188.832
L413.645 187.154
L413.719 188.823
L413.868 194.757
L414.017 188.492
L414.091 189.469
L414.24 197.709
L414.463 189.85
L414.686 200.188
L414.835 190.437
L414.91 191.059
L415.058 199.921
L415.282 185.401
L415.356 187.889
L415.43 191.592
L415.654 179.551
L415.877 193.039
L416.026 182.231
L416.1 185.505
L416.249 198.549
L416.472 186.537
L416.695 201.082
L416.918 186.305
L417.142 198.203
L417.216 196.46
L417.365 185.609
L417.439 188.112
L417.588 202.034
L417.811 180.923
L417.886 187.667
L418.034 199.748
L418.258 184.473
L418.406 190.714
L418.481 190.442
L418.63 187.401
L418.704 187.445
L418.853 185.806
L419.076 196.016
L419.225 186.073
L419.299 188.457
L419.448 203.362
L419.671 183.525
L419.894 202.513
L420.043 184.907
L420.118 185.149
L420.266 200.445
L420.341 199.645
L420.49 186.132
L420.564 187.87
L420.713 199.136
L420.936 184.769
L421.01 188.398
L421.085 191.968
L421.159 189.993
L421.308 183.189
L421.457 188.882
L421.531 188.097
L421.606 185.633
L421.68 186.226
L421.829 194.352
L421.903 193.888
L421.978 191.365
L422.052 191.829
L422.201 198.351
L422.424 186.463
L422.573 196.184
L422.796 184.73
L422.945 197.912
L423.019 196.08
L423.168 185.164
L423.391 199.615
L423.54 185.273
L423.614 187.322
L423.763 199.057
L423.912 185.07
L423.986 185.697
L424.135 198.297
L424.284 187.025
L424.358 187.183
L424.507 197.384
L424.656 188.516
L424.73 189.326
L424.879 195.878
L425.028 185.135
L425.102 187.899
L425.251 197.423
L425.4 185.964
L425.474 188.487
L425.623 201.082
L425.846 182.118
L425.995 195.577
L426.218 182.681
L426.442 194.856
L426.665 188.625
L426.739 189.543
L426.888 193.661
L427.111 187.164
L427.334 194.594
L427.409 194.347
L427.483 194.54
L427.558 194.194
L427.706 189.795
L427.93 198.746
L428.078 184.512
L428.153 186.956
L428.302 203.748
L428.525 177.082
L428.599 186.132
L428.674 196.702
L428.748 195.577
L428.897 179.738
L429.12 197.166
L429.269 185.09
L429.343 187.662
L429.492 199.003
L429.641 191.113
L429.715 191.691
L429.864 194.431
L430.087 190.876
L430.236 192.017
L430.459 189.203
L430.608 191.992
L430.682 191.74
L430.831 189.005
L431.054 196.446
L431.203 189.805
L431.278 189.973
L431.426 197.527
L431.65 183.091
L431.798 194.767
L432.022 178.079
L432.096 183.866
L432.245 192.669
L432.394 179.901
L432.617 205.757
L432.691 199.383
L432.766 189.988
L432.84 190.21
L432.989 207.485
L433.212 184.72
L433.286 190.881
L433.361 198.149
L433.435 197.245
L433.584 187.129
L433.733 196.011
L433.882 187.381
L433.956 188.605
L434.105 197.305
L434.254 181.442
L434.328 182.839
L434.477 201.368
L434.7 177.21
L434.849 196.125
L434.923 194.293
L435.072 174.337
L435.146 178.455
L435.295 194.431
L435.444 183.718
L435.518 184.582
L435.667 199.734
L435.742 199.117
L435.89 194.12
L436.114 206.858
L436.262 202.824
L436.411 206.058
L436.56 195.147
L436.634 197.255
L436.709 197.497
L437.006 165.593
L437.081 169.573
L437.155 165.934
L437.304 142.428
L437.378 146.664
L437.602 199.23
L437.676 197.384
L437.75 202.701
L437.899 266.4
L437.974 251.243
L438.122 183.51
L438.271 262.337
L438.346 235.997
L438.494 135.862
L438.643 255.75
L438.866 106.945
L439.015 278.817
L439.09 241.132
L439.238 93.7628
L439.387 260.441
L439.462 228.947
L439.61 83.7651
L439.759 255.894
L439.834 244.795
L439.982 107.932
L440.206 259.192
L440.354 115.368
L440.578 262.139
L440.726 124.901
L440.95 252.586
L441.098 139.451
L441.173 158.247
L441.322 247.836
L441.47 148.205
L441.545 156.82
L441.694 245.116
L441.917 154.114
L442.066 240.5
L442.289 157.536
L442.438 229.041
L442.661 162.152
L442.81 216.747
L443.033 166.077
L443.182 210.808
L443.256 203.599
L443.405 168.348
L443.554 207.051
L443.628 205.155
L443.777 169.114
L444 202.326
L444.149 172.836
L444.372 202.884
L444.521 180.592
L444.744 195.898
L444.893 187.119
L445.19 209.45
L445.339 200.82
L445.414 207.411
L445.488 206.976
L445.711 191.247
L445.86 195.814
L446.083 173.749
L446.232 180.716
L446.455 172.718
L446.827 188.023
L446.902 190.709
L446.976 189.973
L447.05 190.091
L447.274 204.286
L447.497 191.918
L447.646 205.268
L447.72 203.066
L447.869 187.588
L447.943 188.072
L448.092 197.206
L448.166 196.426
L448.315 188.018
L448.464 194.105
L448.613 197.428
L448.762 198.055
L448.836 196.312
L448.91 197.872
L449.059 207.924
L449.134 205.964
L449.357 183.703
L449.431 187.075
L449.506 186.147
L449.729 165.791
L449.878 175.552
L449.878 175.552" style="fill:none;stroke:#808080;stroke-linecap:square;"/>
   </g>
  </g>
 </g>
 <defs>
  <clipPath id="p7ff5b81e1d">
   <rect height="345.6" width="446.4" x="72.0" y="43.2"/>
  </clipPath>
 </defs>
</svg>
