<?xml version="1.0" encoding="utf-8" standalone="no"?>
<!DOCTYPE svg PUBLIC "-//W3C//DTD SVG 1.1//EN"
  "http://www.w3.org/Graphics/SVG/1.1/DTD/svg11.dtd">
<!-- Created with matplotlib (http://matplotlib.org/) -->
<svg height="432pt" version="1.1" viewBox="0 0 576 432" width="576pt" xmlns="http://www.w3.org/2000/svg" xmlns:xlink="http://www.w3.org/1999/xlink">
 <defs>
  <style type="text/css">
*{stroke-linecap:butt;stroke-linejoin:round;}
  </style>
 </defs>
 <g id="figure_1">
  <g id="patch_1">
   <path d="
M0 432
L576 432
L576 0
L0 0
z
" style="fill:#ffffff;"/>
  </g>
  <g id="axes_1">
   <g id="line2d_1">
    <path clip-path="url(#p7ff5b81e1d)" d="
M72 146.343
L72.2232 229.218
L72.5208 327.368
L72.8184 345.106
L72.8928 339.326
L73.86 135.094
L73.9344 133.582
L74.232 207.808
L74.3064 204.49
L74.4552 178.389
L74.5296 181.534
L74.9016 229.685
L74.976 226.902
L75.2736 133.452
L75.4224 152.59
L75.9432 276.159
L76.2408 331.256
L76.3152 340.925
L76.464 307.764
L76.6872 252.503
L76.7616 249.868
L77.208 162.526
L77.3568 204.274
L77.4312 199.773
L77.7288 167.9
L77.8032 176.531
L77.952 209.087
L78.0264 209.493
L78.1008 222.418
L78.1752 216.197
L78.3984 136.122
L78.4728 134.048
L78.7704 177.266
L78.8448 177.914
L78.9192 177.741
L78.9936 182.415
L79.1424 225.468
L79.3656 293.741
L79.44 295.331
L79.5888 313.847
L79.6632 326.349
L79.7376 321.208
L79.9608 290.372
L80.3328 210.918
L80.4816 200.507
L80.6304 224.181
L80.7048 221.321
L81.0024 177.317
L81.0768 162.327
L81.1512 165.273
L81.3 188.524
L81.7464 154.007
L81.8952 108.405
L81.9696 112.604
L82.1184 141.729
L82.1928 137.962
L82.3416 155.441
L82.6392 227.032
L83.16 368.953
L83.3088 376.746
L83.3832 371.838
L84.276 114.859
L84.4248 181.05
L84.648 240.692
L84.7224 232.665
L85.0944 131.059
L85.2432 152.521
L85.3176 149.229
L85.4664 132.666
L85.6152 139.327
L85.6896 139.051
L85.9128 192.031
L85.9872 201.432
L86.2104 294.994
L86.4336 335.948
L86.5824 320.759
L86.6568 322.435
L87.5496 166.44
L87.624 171.174
L87.996 239.551
L88.0704 235.508
L88.1448 228.838
L88.368 253.436
L88.8888 115.74
L89.0376 127.231
L89.112 124.311
L89.1864 129.875
L89.7816 272.107
L89.856 295.469
L89.9304 292.653
L90.0048 279.33
L90.0792 288.817
L90.228 336.484
L90.5256 296.498
L90.972 198.183
L91.0464 196.032
L91.2696 173.153
L91.344 180.557
L91.5672 233.702
L91.6416 232.13
L91.7904 239.914
L92.1624 149.929
L92.3856 93.7082
L92.9808 180.082
L93.2784 294.303
L93.5016 349.357
L93.6504 329.658
L93.7248 331.446
L93.7992 331.671
L94.4688 175.494
L94.5432 177.197
L94.6176 176.488
L94.7664 166.759
L95.064 201.777
L95.1384 200.55
L95.2128 197.129
L95.436 168.686
L95.5104 167.278
L95.808 206.313
L95.8824 194.839
L96.0312 166.12
L96.18 192.265
L96.2544 188.446
L96.3288 181.473
L96.552 209.32
L96.6264 203.41
L96.7008 211.843
L96.9984 297.059
L97.1472 312.145
L97.2216 309.656
L97.3704 284.946
L97.5936 249.375
L97.8168 192.463
L97.9656 196.3
L98.04 191.781
L98.1144 192.109
L98.1888 190.58
L98.412 216.336
L98.4864 211.471
L98.5608 205.432
L98.6352 208.301
L98.7096 211.368
L98.8584 181.162
L99.0816 150.585
L99.2304 132.666
L99.3792 158.845
L99.4536 168.729
L99.528 161.532
L99.6024 161.895
L99.9 217.882
L100.123 238.385
L100.272 257.946
L100.57 330.004
L100.644 333.356
L100.793 316.551
L101.239 211.558
L101.462 175.33
L101.537 174.164
L101.834 215.143
L101.909 225.494
L102.355 185.94
L102.653 112.431
L102.802 84.0659
L103.174 182.355
L103.397 214.729
L103.918 373.065
L103.992 364.728
L104.438 202.676
L104.513 208.482
L104.587 215.187
L104.81 188.956
L105.108 147.432
L105.182 147.95
L105.257 163.182
L105.48 244.779
L105.778 170.699
L105.926 176.004
L106.001 168.677
L106.075 168.712
L106.15 175.296
L106.224 171.123
L106.447 147.311
L106.67 199.047
L106.819 184.705
L106.968 223.688
L107.266 316.37
L107.34 310.261
L107.638 342.877
L107.712 342.48
L107.786 338.168
L108.382 146.17
L108.456 143.665
L108.605 156.21
L108.902 196.213
L108.977 196.516
L109.051 197.647
L109.126 197.112
L109.2 193.682
L109.721 123.853
L109.795 133.314
L110.539 321.329
L110.614 319.229
L110.688 315.022
L110.837 297.275
L111.06 306.667
L111.283 286.095
L111.506 229.78
L111.655 222.289
L112.027 161.653
L112.102 162.975
L112.25 168.22
L112.474 190.735
L112.771 173.196
L112.846 178.847
L113.143 144.252
L113.292 140.502
L113.441 152.305
L114.408 330.107
L114.78 294.346
L115.078 257.592
L115.375 166.181
L115.524 160.34
L115.673 168.055
L115.822 197.405
L115.896 191.478
L116.268 131.128
L116.342 141.185
L116.566 154.81
L116.64 154.758
L116.789 137.332
L117.012 168.747
L117.086 169.351
L117.161 173.81
L117.31 231.404
L117.533 301.215
L117.682 294.631
L117.905 312.43
L118.128 367
L118.202 363.138
L118.649 195.729
L118.872 171.943
L119.095 136.502
L119.17 137.003
L119.542 187.945
L119.616 188.437
L119.69 187.357
L119.765 188.774
L119.988 171.434
L120.062 175.166
L120.36 130.316
L120.434 131.405
L120.583 150.508
L120.732 203.868
L121.03 283.97
L121.327 356.58
L121.402 351.984
L122.146 214.34
L122.369 155.432
L122.443 152.175
L122.518 153.065
L122.815 176.583
L122.89 175.65
L123.038 168.055
L123.262 186.338
L123.708 115.732
L124.824 335.481
L124.898 329.546
L125.047 341.693
L125.27 316.404
L125.419 277.723
L125.642 175.253
L125.717 170.086
L126.014 123.603
L126.089 122.825
L126.238 154.715
L126.386 185.448
L126.461 185.102
L126.61 192.723
L126.758 180.091
L126.833 182.277
L126.907 189.725
L126.982 186.821
L127.205 161.351
L127.279 164.876
L127.502 181.188
L127.577 184.212
L127.651 182.381
L127.8 218.781
L128.023 283.978
L128.321 326.116
L128.395 321.372
L128.47 326.288
L128.544 324.483
L128.767 285.836
L129.214 190.623
L129.511 145.384
L130.181 194.822
L130.255 194.364
L130.627 153.92
L130.702 154.534
L130.776 152.503
L130.85 153.264
L130.999 174.535
L131.669 334.341
L131.818 362.144
L131.892 354.489
L132.785 131.802
L132.859 131.845
L133.008 151.311
L133.306 216.241
L133.38 212.793
L133.975 147.198
L134.124 118.851
L134.198 128.432
L134.422 187.314
L134.57 214.988
L135.091 319.039
L135.166 317.251
L135.24 317.165
L135.389 337.659
L135.538 319.229
L135.761 273.55
L135.91 253.954
L136.356 163.493
L136.505 147.285
L136.579 147.846
L136.654 146.075
L136.728 147.803
L137.026 167.641
L137.174 168.712
L137.249 167.52
L137.323 158.888
L137.398 160.133
L137.621 168.608
L137.77 182.847
L137.844 179.063
L137.993 164.971
L138.142 181.05
L138.365 269.705
L138.588 319.687
L138.662 323.23
L138.886 350.238
L138.96 348.519
L139.034 349.772
L139.109 342.367
L139.63 189.301
L139.927 113.831
L140.15 150.663
L140.225 150.084
L140.299 150.611
L140.374 150.464
L140.448 150.689
L140.522 153.557
L140.82 179.045
L140.969 177.032
L141.266 145.937
L141.49 201.993
L141.787 277.757
L141.936 292.998
L142.234 351.759
L142.308 346.005
L142.754 247.932
L142.829 242.463
L143.35 137.789
L143.722 182.139
L143.945 173.853
L144.094 186.847
L144.168 184.817
L144.614 127.335
L145.21 250.706
L145.656 307.488
L145.73 311.911
L146.102 352.606
L146.251 344.536
L146.995 106.228
L147.07 103.437
L147.218 120.708
L147.367 137.548
L147.442 135.56
L147.516 136.874
L147.665 154.871
L147.888 131.664
L148.26 175.451
L148.409 198.641
L148.93 331.835
L149.153 353.496
L149.227 352.787
L149.599 290.121
L150.12 159.873
L150.343 125.78
L150.715 166.82
L150.79 165.472
L150.864 160.521
L150.938 162.534
L151.013 170.665
L151.087 169.101
L151.236 145.151
L151.31 147.423
L151.459 142.049
L151.534 142.706
L151.682 158.862
L151.906 221.425
L152.352 342.713
L152.501 358.87
L152.65 350.498
L152.873 295.573
L153.468 151.026
L153.617 119.455
L153.691 121.192
L153.914 170.336
L154.138 225.321
L154.212 223.153
L154.435 195.816
L154.584 207.696
L154.658 201.829
L154.956 133.832
L155.03 128.864
L155.179 154.015
L155.626 248.425
L155.774 263.277
L155.998 320.888
L156.072 314.253
L156.221 303.168
L156.295 307.652
L156.816 253.073
L157.039 200.378
L157.188 184.471
L157.486 139.768
L157.56 139.768
L157.634 139.975
L157.858 169.576
L157.932 167.165
L158.155 156.409
L158.453 164.599
L158.676 200.412
L158.75 191.323
L158.825 192.524
L159.048 230.453
L159.346 334.427
L159.494 313.605
L159.569 316.836
L159.718 308.818
L160.015 285.266
L160.536 165.126
L160.685 117.745
L161.131 166.811
L161.354 140.563
L161.429 143.172
L161.801 207.704
L161.875 210.322
L161.95 206.659
L162.173 172.963
L162.247 173.49
L162.768 276.41
L162.917 289.715
L162.991 299.608
L163.066 298.321
L163.14 296.204
L163.214 297.344
L163.289 291.512
L163.363 293.258
L163.438 298.718
L163.586 285.3
L163.81 256.944
L164.182 132.061
L164.479 166.742
L164.554 161.031
L164.702 123.801
L164.777 126.817
L165.074 206.633
L165.372 143.017
L165.521 148.659
L166.042 254.291
L166.488 326.582
L166.637 310.382
L166.711 310.762
L166.786 316.413
L167.083 267.692
L167.455 160.366
L167.53 161.238
L167.604 157.973
L167.827 128.916
L167.902 127.586
L167.976 134.161
L168.274 190.044
L168.348 192.921
L168.422 192.412
L168.571 182.873
L168.646 184.661
L168.943 218.556
L169.018 214.919
L169.166 190.364
L169.241 190.96
L169.464 205.855
L169.762 261.817
L169.836 262.352
L169.91 266.716
L170.134 294.027
L170.208 295.167
L170.357 305.138
L170.729 250.757
L170.952 199.358
L171.25 122.263
L171.324 128.026
L171.622 193.448
L171.845 166.673
L171.919 171.511
L172.142 186.882
L172.291 172.099
L172.514 137.383
L172.589 141.315
L173.258 312.343
L173.407 334.185
L173.63 315.903
L173.854 281.093
L174.002 250.922
L174.151 261.955
L174.3 220.146
L174.598 129.201
L174.672 121.218
L174.895 171.218
L175.044 154.456
L175.193 136.969
L175.267 139.388
L175.565 171.961
L175.639 172.419
L175.714 168.461
L175.862 172.514
L175.937 179.875
L176.309 262.335
L176.532 272.021
L176.606 269.04
L176.83 308.404
L177.127 270.897
L177.202 279.9
L177.276 275.157
L177.574 232.363
L177.722 227.576
L177.797 230.574
L177.871 225.209
L178.169 174.553
L178.318 151.812
L178.392 154.076
L178.541 172.108
L178.764 163.537
L178.913 125.512
L178.987 127.905
L179.21 159.234
L179.508 217.234
L179.657 232.458
L179.806 221.131
L180.029 231.248
L180.252 276.695
L180.326 273.956
L180.475 296.238
L180.698 322.469
L181.145 283.27
L181.666 110.962
L181.74 116.224
L181.814 119.922
L181.889 114.893
L182.112 155.821
L182.186 147.112
L182.261 148.52
L182.335 153.117
L182.707 198.658
L182.856 195.306
L183.079 170.552
L183.154 176.436
L183.228 183.918
L183.749 315.367
L183.823 330.297
L183.898 325.891
L184.121 304.973
L184.195 296.791
L184.27 299.409
L184.344 300.178
L184.418 299.245
L184.567 274.051
L185.014 142.749
L185.088 148.011
L185.311 174.095
L185.46 182.415
L185.683 117.304
L185.758 117.667
L186.13 186.796
L186.204 181.949
L186.278 184.739
L186.427 172.358
L186.502 177.611
L186.725 227.188
L186.799 227.049
L186.874 229.693
L187.246 282.838
L187.469 303.297
L187.766 344.018
L187.841 336.544
L188.51 159.986
L188.808 99.0909
L188.957 125.279
L189.18 181.447
L189.329 169.032
L189.552 145.254
L189.701 179.685
L189.924 211.808
L190.222 247.224
L190.37 280.151
L190.445 280.047
L190.519 272.582
L190.668 283.227
L190.817 273.93
L190.966 285.456
L191.04 282.043
L191.189 298.424
L191.263 295.202
L191.412 271.995
L191.486 281.291
L191.784 221.805
L192.156 92.8355
L192.23 101.873
L192.528 187.323
L192.602 182.251
L192.826 151.804
L193.049 200.905
L193.123 194.995
L193.272 183.08
L193.421 158.837
L193.57 190.951
L193.942 277.999
L194.016 275.597
L194.09 281.395
L194.388 320.923
L194.462 331.956
L194.537 327.93
L194.909 250.135
L195.43 152.253
L195.504 152.961
L195.578 158.292
L195.802 192.731
L195.95 173.118
L196.174 144.304
L196.322 171.019
L196.397 165.602
L196.62 153.938
L196.694 153.808
L197.141 224.198
L197.438 289.689
L197.587 302.572
L197.885 280.341
L198.108 288.428
L198.182 287.391
L198.554 246.144
L198.629 245.746
L198.703 241.461
L199.075 175.028
L199.373 111.446
L199.522 123.741
L199.819 146.697
L199.968 156.564
L200.414 230.583
L200.489 226.142
L200.861 261.514
L201.084 254.939
L201.158 257.065
L201.307 252.434
L201.382 255.207
L201.53 249.055
L201.902 325.805
L201.977 319.16
L202.2 248.364
L202.572 109.217
L202.646 96.4557
L202.721 97.8986
L203.093 155.951
L203.167 154.551
L203.316 174.89
L203.614 228.855
L203.688 228.121
L204.06 178.268
L204.134 190.442
L204.358 261.843
L204.878 288.618
L204.953 287.564
L205.027 288.739
L205.25 284.566
L205.474 304.732
L205.697 228.19
L206.069 116.362
L206.441 154.568
L206.59 141.876
L206.738 174.725
L206.887 204.067
L207.036 184.523
L207.259 144.183
L207.334 144.451
L208.226 301.414
L208.301 299.729
L208.598 325.45
L208.673 324.794
L208.822 287.175
L209.045 249.461
L209.268 212.016
L209.714 83.1847
L209.789 92.2999
L210.161 179.443
L210.235 178.648
L210.31 178.864
L210.384 189.206
L210.458 189.137
L210.533 185.716
L210.607 187.15
L210.905 227.939
L211.054 211.325
L211.202 224.794
L211.277 219.619
L211.351 221.684
L211.649 267.26
L211.723 270.949
L211.798 266.923
L211.946 275.952
L212.17 295.573
L212.765 236.942
L213.137 119.827
L213.211 113.978
L213.509 158.016
L213.583 160.521
L213.732 151.207
L214.178 207.92
L214.253 208.214
L214.476 171.416
L214.997 264.988
L215.071 267.605
L215.443 325.355
L215.666 269.964
L215.89 284.125
L215.964 281.291
L216.113 232.415
L216.336 166.051
L216.485 153.661
L216.634 157.454
L216.857 137.357
L217.006 125.702
L217.08 127.914
L217.378 184.316
L217.452 182.847
L217.675 167.762
L217.898 191.997
L218.196 262.94
L218.27 266.119
L218.419 278.44
L218.494 276.194
L218.642 264.538
L218.791 271.925
L218.866 271.105
L219.014 280.324
L219.089 284.479
L219.238 268.988
L219.461 244.891
L219.535 245.876
L219.758 259.968
L219.833 250.645
L220.279 109.519
L220.354 112.172
L220.502 135.75
L220.726 160.651
L220.874 138.61
L220.949 139.353
L221.693 294.035
L221.767 288.281
L221.99 241.677
L222.065 243.845
L222.139 242.541
L222.214 231.369
L222.288 233.089
L222.586 278.397
L222.66 281.118
L222.734 269.584
L222.809 273.852
L222.883 287.236
L222.958 285.326
L223.255 203.272
L223.478 120.656
L223.627 105.173
L223.702 109.243
L224.074 185.975
L224.148 182.372
L224.297 168.323
L224.743 220.872
L224.892 209.484
L225.041 222.194
L225.264 242.593
L225.338 243.75
L225.562 276.09
L225.71 275.157
L225.785 279.157
L225.859 278.889
L226.008 268.711
L226.157 285.3
L226.306 274.638
L226.38 277.075
L226.454 278.872
L226.603 252.632
L226.826 183.443
L226.901 186.493
L226.975 191.271
L227.496 119.196
L227.645 129.34
L227.868 165.221
L228.091 209.26
L228.166 207.946
L228.314 197.492
L228.389 196.049
L228.463 199.669
L228.612 212.888
L228.686 210.988
L228.761 214.426
L229.505 311.73
L229.579 313.277
L229.802 278.768
L230.026 252.736
L230.1 255.561
L230.174 254.136
L230.323 228.034
L230.844 90.3299
L230.918 100.214
L231.216 178.829
L231.365 183.296
L231.588 210.409
L231.811 254.213
L231.886 253.108
L232.034 221.191
L232.109 221.321
L232.183 224.423
L232.332 194.978
L233.002 294.45
L233.076 291.417
L233.15 285.629
L233.225 288.437
L233.374 290.363
L233.448 287.037
L233.522 289.11
L233.597 284.358
L233.894 172.911
L234.118 107.204
L234.192 98.512
L234.266 106.565
L234.564 194.286
L234.638 191.271
L234.862 157.428
L235.01 186.554
L235.234 225.529
L235.308 220.163
L235.457 176.782
L235.531 180.419
L235.754 213.597
L236.126 290.173
L236.275 296.662
L236.424 287.331
L236.498 279.183
L236.573 280.47
L236.796 297.128
L236.87 298.442
L236.945 303.073
L237.019 301.077
L237.838 103.921
L237.986 86.0445
L238.061 87.5047
L238.358 157.169
L238.582 221.934
L238.73 216.085
L238.879 232.13
L239.102 226.427
L239.251 233.78
L239.549 271.373
L239.698 273.792
L239.772 272.643
L239.846 278.829
L239.995 301.517
L240.07 296.299
L240.144 297.396
L240.218 299.159
L240.293 296.005
L240.516 251.57
L241.111 101.337
L241.409 136.727
L241.706 194.079
L241.781 199.427
L241.93 183.651
L242.004 186.398
L242.599 254.758
L242.674 252.658
L242.971 221.589
L243.12 193.699
L243.566 274.932
L243.641 272.694
L243.79 261.869
L244.087 299.798
L244.162 297.267
L244.31 245.694
L244.608 112.431
L244.682 104.612
L244.906 142.464
L245.054 164.893
L245.129 163.554
L245.203 159.13
L245.278 162.88
L245.426 194.986
L245.575 234.203
L245.65 232.639
L245.947 189.189
L246.17 207.912
L246.245 208.041
L246.319 203.255
L246.468 222.66
L246.766 294.13
L246.914 301.301
L246.989 296.187
L247.063 296.308
L247.138 296.567
L247.212 297.915
L247.435 322.832
L247.584 281.715
L247.882 167.062
L248.254 118.211
L248.328 118.712
L248.477 105.873
L249.221 223.844
L249.295 217.182
L249.444 206.331
L249.518 207.635
L249.816 273.247
L249.965 262.37
L250.039 256.106
L250.262 268.573
L250.486 303.306
L250.783 270.284
L251.006 252.425
L251.23 225.226
L251.825 115.723
L251.974 113.796
L252.122 146.291
L252.346 191.392
L252.494 176.851
L252.643 190.805
L253.015 252.589
L253.164 231.853
L253.536 247.362
L253.685 255.129
L253.908 290.182
L253.982 288.739
L254.057 288.938
L254.131 291.227
L254.28 274.474
L254.354 276.194
L254.429 280.738
L254.578 262.992
L254.801 219.403
L255.173 95.1165
L255.247 89.5264
L255.322 89.8807
L255.396 97.9677
L255.768 184.532
L255.842 188.938
L255.917 182.916
L255.991 186.77
L256.289 243.249
L256.363 244.329
L256.586 216.275
L257.33 270.059
L257.554 298.493
L257.628 300.023
L257.777 296.048
L257.926 273.913
L258.223 225.382
L258.818 106.72
L258.893 110.271
L259.265 167.753
L259.339 166.12
L259.414 167.511
L259.786 231.931
L260.083 200.861
L260.232 224.034
L260.455 294.104
L260.604 290.208
L261.05 276.781
L261.274 254.516
L261.348 259.086
L261.943 165.688
L262.241 121.978
L262.538 159.951
L262.762 217.476
L262.836 219.679
L262.91 219.152
L262.985 218.453
L263.134 203.393
L263.282 212.819
L263.878 271.407
L263.952 269.783
L264.175 228.734
L264.324 229.944
L264.398 230.721
L264.547 237.305
L264.622 233.305
L264.77 216.431
L264.919 240.269
L265.068 258.663
L265.142 256.356
L265.291 235.914
L265.589 137.573
L265.663 139.975
L265.886 165.671
L266.035 188.567
L266.11 186.701
L266.258 165.852
L266.705 233.59
L266.779 233.452
L266.854 230.436
L267.002 244.459
L267.077 238.238
L267.226 217.286
L267.3 220.967
L267.374 217.718
L267.449 221.926
L267.672 274.224
L267.895 258.3
L268.044 239.966
L268.193 265.333
L268.49 245.755
L268.714 212.871
L269.011 199.332
L269.458 121.244
L269.904 167.459
L270.202 258.145
L270.276 255.181
L270.425 224.941
L270.574 203.523
L270.722 268.884
L270.797 298.64
L270.871 297.448
L271.169 239.232
L271.243 243.543
L271.392 258.222
L271.541 254.231
L271.838 224.907
L271.913 221.667
L272.062 226.203
L272.21 193.587
L272.359 158.854
L272.434 160.616
L272.731 181.629
L273.029 159.77
L273.401 248.632
L273.624 178.493
L273.847 230.583
L273.996 300.679
L274.07 299.15
L274.368 252.39
L274.442 249.842
L274.517 243.388
L274.889 165.282
L274.963 167.001
L275.558 255.276
L275.707 259.804
L275.856 247.699
L276.154 174.017
L276.228 169.187
L276.377 177.093
L276.451 170.786
L276.526 176.635
L276.749 210.607
L276.972 201.138
L277.121 230.661
L277.195 227.11
L277.418 210.383
L277.642 164.219
L277.79 179.261
L278.088 239.897
L278.162 233.115
L278.311 241.746
L278.386 240.13
L278.534 270.232
L278.609 280.254
L278.683 279.053
L278.906 281.732
L279.055 271.684
L279.948 148.831
L280.097 155.139
L280.246 144.546
L280.469 157.601
L280.766 202.278
L280.841 202.987
L280.99 218.625
L281.362 289.663
L281.436 288.169
L281.734 232.233
L281.882 235.586
L282.106 221.606
L282.18 224.31
L282.329 226.159
L282.403 228.466
L282.552 248.554
L282.626 247.898
L282.924 197.863
L282.998 203.713
L283.073 207.678
L283.296 188.817
L283.519 144.52
L283.966 204.317
L284.114 181.862
L284.189 187.936
L284.486 269.429
L284.561 265.497
L284.858 229.218
L284.933 232.372
L285.082 217.96
L285.156 222.677
L285.305 212.759
L285.379 217.07
L285.602 252.805
L285.677 249.479
L285.9 212.621
L285.974 214.063
L286.198 260.745
L286.421 229.598
L286.644 195.245
L286.718 184.428
L286.793 186.899
L286.942 168.781
L287.165 155.45
L287.239 154.447
L287.388 159.303
L287.462 150.317
L287.611 180.756
L287.983 278.449
L288.355 215.999
L288.43 220.457
L288.504 223.93
L288.653 215.178
L288.727 219.55
L288.876 208.352
L288.95 214.824
L289.174 263.959
L289.322 267.243
L289.546 288.635
L289.62 286.579
L289.694 280.384
L290.29 146.516
L290.438 135.042
L290.736 161.264
L290.81 157.385
L290.885 158.655
L291.331 241.236
L291.406 231.464
L291.48 221.805
L291.554 223.792
L291.629 226.479
L291.778 259.095
L291.852 284.03
L291.926 280.427
L292.224 215.506
L292.373 250.662
L292.522 273.662
L292.67 243.431
L292.894 189.111
L293.191 227.17
L293.489 191.15
L293.563 195.677
L293.638 204.473
L293.712 202.373
L294.084 133.642
L294.158 144.892
L294.456 260.797
L294.53 259.691
L294.754 222.029
L295.051 283.719
L295.2 258.862
L295.498 160.867
L295.572 169.317
L295.87 230.54
L295.944 227.136
L296.167 206.408
L296.242 215.67
L296.465 286.233
L297.06 196.274
L297.134 203.765
L297.209 202.14
L297.432 163.252
L297.506 160.677
L297.581 170.138
L297.804 231.093
L298.027 175.529
L298.102 180.998
L298.325 229.52
L298.399 229.71
L298.697 197.552
L298.994 250.325
L299.069 253.289
L299.143 249.85
L299.366 221.045
L299.664 264.452
L299.738 273.749
L300.259 184.402
L300.408 202.676
L300.78 155.519
L300.929 161.99
L301.078 182.622
L301.152 180.221
L301.226 182.847
L301.598 258.767
L301.673 247.975
L301.97 227.499
L302.119 250.239
L302.194 247.768
L302.417 218.038
L302.566 202.866
L302.64 202.892
L302.714 208.015
L302.938 237.348
L303.012 238.67
L303.086 238.169
L303.31 201.924
L303.458 197.276
L303.682 237.469
L303.756 232.709
L303.83 228.976
L303.979 235.257
L304.128 216.327
L304.202 220.422
L304.277 217.805
L304.574 156.59
L304.649 157.886
L304.872 216.439
L304.946 239.37
L305.021 237.944
L305.244 200.775
L305.318 208.102
L305.542 268.072
L305.914 196.602
L305.988 199.591
L306.137 210.21
L306.434 200.827
L306.583 179.495
L306.658 190.476
L306.881 248.805
L307.03 276.289
L307.327 226.505
L307.402 222.919
L307.55 240.83
L307.699 216.768
L307.922 165.463
L308.071 171.822
L308.294 220.137
L308.518 185.629
L308.666 194.148
L308.89 248.667
L308.964 248.597
L309.038 242.394
L309.262 197.812
L309.559 226.617
L309.634 226.151
L309.782 196.291
L309.931 172.704
L310.378 282.656
L310.452 277.904
L310.601 249.168
L310.675 251.017
L310.824 248.433
L310.898 254.464
L311.122 209.761
L311.419 151.156
L311.494 155.795
L311.791 197.82
L311.866 204.119
L311.94 203.834
L312.089 194.459
L312.386 217.727
L312.535 238.031
L312.684 226.099
L312.833 231.741
L312.907 224.501
L313.056 181.456
L313.13 188.575
L313.502 242.42
L313.577 240.493
L313.8 213.286
L313.949 191.608
L314.098 225.477
L314.246 266.785
L314.544 242.161
L314.618 240.554
L314.767 250.714
L315.214 169.092
L315.362 191.383
L315.511 209.501
L315.734 177.732
L315.809 176.739
L315.883 184.757
L316.181 251.138
L316.404 196.334
L316.478 198.295
L316.627 219.524
L316.702 217.554
L316.776 217.485
L316.85 217.07
L316.999 200.006
L317.148 166.474
L317.297 194.537
L317.594 270.344
L317.818 237.728
L318.041 265.42
L318.115 265.584
L318.264 255.259
L318.338 249.012
L318.562 169.956
L318.636 175.434
L318.71 177.724
L318.859 193.483
L319.082 154.387
L319.38 249.496
L319.454 245.988
L319.678 181.974
L319.752 187.781
L320.05 237.754
L320.124 233.002
L320.347 155.199
L320.422 168.652
L320.719 269.385
L320.794 272.427
L321.017 235.326
L321.24 271.519
L321.389 262.836
L321.612 214.219
L321.761 185.845
L321.835 191.107
L321.984 174.605
L322.207 198.753
L322.579 181.085
L323.026 222.868
L323.249 189.785
L323.323 188.826
L323.398 191.064
L323.77 244.787
L323.918 254.507
L324.067 246.723
L324.216 210.167
L324.29 210.538
L324.514 238.325
L324.737 258.015
L324.886 233.659
L325.034 213.657
L325.109 216.578
L325.332 202.572
L325.481 165.844
L325.555 172.695
L325.63 172.375
L325.704 167.658
L325.927 223.023
L326.076 215.463
L326.15 214.271
L326.374 198.874
L326.448 206.486
L326.597 242.947
L326.894 222.859
L327.043 197.812
L327.118 200.516
L327.341 236.415
L327.638 191.349
L327.713 192.515
L328.085 253.367
L328.234 251.941
L328.457 219.723
L328.531 233.106
L328.68 241.323
L328.754 234.117
L329.052 160.608
L329.126 153.376
L329.201 159.528
L329.35 187.971
L329.424 182.26
L329.498 167.917
L329.573 171.295
L329.647 178.259
L329.945 280.203
L330.019 272.764
L330.168 239.284
L330.317 196.274
L330.54 218.141
L330.614 223.749
L330.838 169.032
L330.912 173.49
L331.358 271.442
L331.507 264.314
L331.582 269.489
L331.73 294.821
L331.805 285.395
L332.177 200.412
L332.549 157.601
L333.07 193.725
L333.144 189.172
L333.218 184.385
L333.59 229.866
L333.739 216.768
L333.962 236.078
L334.037 235.905
L334.26 225.529
L334.334 227.792
L334.483 218.167
L334.632 224.898
L334.706 223.369
L334.781 232.665
L334.855 228.224
L334.93 225.641
L335.078 234.16
L335.302 282.76
L335.45 238.938
L335.748 179.097
L335.971 202.901
L336.046 199.056
L336.194 162.958
L336.269 165.541
L336.418 188.057
L336.492 209.562
L336.566 208.067
L336.641 207.238
L336.715 208.24
L336.864 190.442
L337.013 210.91
L337.236 274.431
L337.31 271.77
L337.459 223.688
L337.608 180.117
L337.757 190.226
L337.906 217.528
L338.054 233.65
L338.203 217.744
L338.278 219.057
L338.575 240.597
L338.724 255.008
L338.798 251.889
L338.873 254.749
L339.022 277.179
L339.096 268.599
L339.394 194.459
L339.542 152.045
L339.617 155.165
L339.691 156.988
L339.766 148.045
L339.84 152.227
L339.989 160.107
L340.063 155.009
L340.51 257.687
L340.584 256.425
L340.882 221.321
L340.956 226.021
L341.179 234.704
L341.254 228.06
L341.402 192.749
L341.774 245.893
L341.849 244.865
L341.998 237.797
L342.146 246.291
L342.221 242.567
L342.444 211.489
L342.667 193.129
L342.816 206.279
L343.039 177.585
L343.114 175.546
L343.188 190.174
L343.337 239.413
L343.411 240.346
L343.634 203.756
L343.783 207.955
L343.858 205.285
L344.006 215.048
L344.23 184.134
L344.304 189.051
L344.453 209.009
L344.602 195.194
L344.75 210.426
L344.825 203.021
L345.122 232.734
L345.197 243.897
L345.271 240.381
L345.346 243.353
L345.569 270.172
L345.643 264.849
L345.866 252.624
L346.09 221.39
L346.238 235.041
L346.313 231.387
L346.462 210.063
L346.536 212.301
L346.61 207.851
L346.908 165.731
L347.131 218.055
L347.429 165.844
L347.503 171.684
L347.726 233.028
L347.801 229.494
L348.173 155.147
L348.247 166.854
L348.47 239.716
L348.619 228.414
L348.768 213.312
L349.214 277.395
L349.363 252.46
L349.438 253.833
L349.512 255.077
L349.586 251.535
L350.107 161.61
L350.256 196.075
L350.405 178.639
L350.479 179.78
L350.702 206.106
L351 258.145
L351.372 196.412
L351.446 189.655
L351.521 194.969
L351.67 180.367
L351.818 182.994
L351.893 186.752
L352.042 230.574
L352.116 230.419
L352.19 228.095
L352.339 241.219
L352.488 217.303
L352.562 219.135
L352.86 269.653
L353.009 236.009
L353.083 236.778
L353.306 203.376
L353.381 203.963
L353.455 213.968
L353.53 211.618
L353.678 198.269
L353.753 202.296
L353.902 204.706
L353.976 210.391
L354.125 195.211
L354.199 203.021
L354.274 199.773
L354.348 193.941
L354.497 208.119
L354.571 207.635
L354.72 210.063
L354.869 195.582
L355.018 172.531
L355.092 177.179
L355.538 251.76
L355.687 237.53
L355.762 240.614
L355.91 266.888
L355.985 268.539
L356.134 255.544
L356.431 210.547
L356.58 219.42
L356.729 217.813
L356.803 209.726
L356.878 211.877
L357.101 223.092
L357.473 165.109
L357.696 219.299
L357.845 211.912
L357.994 199.946
L358.142 214.115
L358.291 241.314
L358.366 238.463
L358.514 220.189
L358.663 183.046
L358.961 244.632
L359.035 237.685
L359.333 203.402
L359.556 212.361
L359.705 229.84
L359.779 229.676
L359.928 235.093
L360.151 267.173
L360.226 262.361
L360.598 187.919
L360.746 176.41
L360.97 187.245
L361.044 204.499
L361.118 202.425
L361.193 201.363
L361.342 218.72
L361.416 216.552
L361.49 222.211
L361.639 244.649
L361.788 228.751
L362.086 177.145
L362.16 178.017
L362.309 167.131
L362.681 233.045
L362.755 224.699
L362.904 248.718
L362.978 242.878
L363.053 240.009
L363.202 279.779
L363.276 277.973
L363.425 272.617
L363.648 228.812
L363.722 233.909
L363.797 237.106
L363.946 215.42
L364.02 220.077
L364.094 215.748
L364.318 186.459
L364.541 208.076
L364.764 167.675
L364.913 188.904
L364.987 185.612
L365.136 200.931
L365.21 198.434
L365.508 175.304
L365.582 176.065
L365.88 207.462
L366.103 242.783
L366.178 240.459
L366.326 255.164
L366.401 260.719
L366.55 255.639
L366.624 258.499
L366.698 248.191
L366.773 251.423
L366.847 258.369
L366.922 256.175
L367.07 247.336
L367.219 263.277
L367.442 240.588
L367.591 214.694
L367.666 222.487
L367.74 217.658
L368.038 161.394
L368.261 200.058
L368.484 136.563
L368.558 147.717
L368.93 247.111
L369.228 165.005
L369.526 253.125
L369.6 252.572
L369.823 211.109
L369.898 213.476
L370.27 255.077
L370.344 254.602
L370.493 249.591
L370.642 228.138
L370.79 240.657
L370.939 235.888
L371.014 245.012
L371.088 240.588
L371.162 232.363
L371.237 235.015
L371.386 255.354
L371.534 237.91
L371.758 186.865
L371.832 186.96
L372.055 211.109
L372.13 203.592
L372.427 149.315
L372.576 137.643
L372.65 136.364
L372.799 125.201
L372.874 129.27
L373.32 266.932
L373.394 264.677
L373.469 255.268
L373.618 277.498
L373.841 320.767
L373.915 314.814
L374.213 257.082
L374.362 259.086
L374.585 239.491
L374.808 195.755
L374.882 194.148
L375.031 211.86
L375.106 204.153
L375.478 118.626
L375.552 119.257
L375.775 187.711
L375.85 183.106
L376.073 158.301
L376.37 218.772
L376.519 247.647
L376.742 216.941
L376.891 261.575
L377.114 311.428
L377.71 225.477
L377.858 213.899
L377.933 214.979
L378.007 217.925
L378.156 252.874
L378.602 182.372
L378.751 209.285
L378.826 205.009
L379.123 153.566
L379.495 230.937
L379.57 222.574
L379.793 175.253
L379.942 213.027
L380.165 240.865
L380.239 252.321
L380.388 226.056
L380.462 233.365
L380.537 239.18
L380.686 214.539
L380.909 231.508
L381.058 238.973
L381.132 235.231
L381.206 238.981
L381.281 254.982
L381.355 254.516
L381.653 225.779
L381.802 211.471
L381.95 180.618
L382.099 202.011
L382.174 198.589
L382.397 157.359
L382.471 164.954
L382.769 236.311
L383.29 180.212
L383.587 237.037
L383.736 214.608
L383.959 247.509
L384.034 243.379
L384.257 238.039
L384.48 228.544
L384.554 227.939
L384.629 230.998
L384.778 251.077
L384.926 232.389
L385.075 245.418
L385.373 185.068
L385.447 191.582
L385.596 211.973
L385.894 167.615
L385.968 171.218
L386.34 233.175
L386.414 229.054
L386.638 195.081
L386.712 198.114
L386.935 207.704
L387.158 231.663
L387.307 215.221
L387.456 243.12
L387.53 239.923
L387.605 238.454
L387.679 234.445
L387.828 214.599
L388.126 229.996
L388.349 248.528
L388.498 235.007
L388.572 237.91
L388.646 245.53
L388.795 222.634
L389.093 171.01
L389.167 178.812
L389.316 218.012
L389.39 215.446
L389.688 166.958
L389.762 175.339
L389.986 228.725
L390.06 228.725
L390.358 202.443
L390.432 202.728
L390.581 231.637
L390.804 221.779
L390.878 210.875
L390.953 211.653
L391.325 246.256
L391.548 219.999
L391.697 238.091
L391.846 269.93
L391.994 251.423
L392.292 195.997
L392.366 195.634
L392.515 177.076
L392.664 186.45
L392.738 179.175
L392.887 150.473
L393.036 172.038
L393.259 236.113
L393.557 224.941
L393.706 175.71
L393.78 179.158
L394.078 243.025
L394.152 234.013
L394.301 223.205
L394.673 256.425
L394.896 234.108
L394.97 239.741
L395.119 253.997
L395.194 251.077
L395.417 208.067
L395.64 235.352
L395.714 234.316
L396.012 189.863
L396.086 185.439
L396.235 215.904
L396.533 183.443
L396.607 176.479
L396.682 180.532
L396.83 204.395
L396.905 204.378
L397.202 156.236
L397.277 161.42
L397.426 192.93
L397.649 239.223
L397.723 240.346
L397.798 236.813
L397.872 236.856
L397.946 242.541
L398.244 289.836
L398.542 216.362
L398.69 220.345
L398.765 220.82
L398.914 230.065
L399.062 220.224
L399.286 243.31
L399.509 177.024
L399.658 132.744
L400.03 217.286
L400.104 213.666
L400.178 201.648
L400.253 205.613
L400.55 257.047
L400.625 252.408
L400.848 223.792
L400.997 204.309
L401.071 202.961
L401.294 188.619
L401.443 203.937
L401.666 242.524
L401.741 239.543
L401.815 232.821
L401.89 233.348
L402.187 253.047
L402.559 215.904
L402.782 177.87
L402.931 164.85
L403.006 158.914
L403.08 166.535
L403.378 232.035
L403.601 204.024
L403.824 232.251
L403.973 251.786
L404.345 150.317
L404.419 153.134
L404.568 194.589
L404.791 267.415
L405.089 295.392
L405.238 293.543
L405.461 270.595
L405.758 222.358
L406.056 190.692
L406.205 167.96
L406.502 123.447
L406.577 124.156
L406.726 150.819
L407.023 207.644
L407.395 270.828
L407.767 185.128
L407.842 189.629
L408.139 236.83
L408.214 231.205
L408.288 228.725
L408.66 267.657
L408.809 236.355
L409.032 197.086
L409.106 199.807
L409.255 208.551
L409.404 201.043
L409.776 240.208
L410.222 184.731
L410.297 192.083
L410.594 231.231
L410.818 194.338
L410.892 198.149
L411.115 242.429
L411.19 236.173
L411.413 203.773
L411.487 201.691
L411.71 181.905
L411.859 199.09
L412.008 219.446
L412.082 219.792
L412.157 214.953
L412.38 189.992
L412.454 188.368
L412.529 195.012
L412.826 259.899
L412.975 255.121
L413.05 254.844
L413.124 250.049
L413.273 231.274
L413.347 230.272
L413.57 200.222
L413.645 207.48
L413.868 251.086
L414.017 219.947
L414.24 168.911
L414.463 224.803
L414.538 219.273
L414.835 144.917
L414.91 151.605
L415.282 251.863
L415.43 244.182
L415.654 273.161
L415.728 270.863
L415.877 238.998
L416.1 200.015
L416.174 200.473
L416.249 205.916
L416.323 205.38
L416.398 203.289
L416.472 206.771
L416.695 226.583
L416.77 224.742
L416.844 229.201
L416.918 226.997
L417.067 203.237
L417.216 227.533
L417.29 224.112
L417.365 223.101
L417.439 214.997
L417.662 177.024
L417.737 178.518
L417.96 230.479
L418.258 139.276
L418.63 245.193
L418.778 226.47
L418.927 217.554
L419.076 258.283
L419.225 294.398
L419.299 293.75
L419.671 177.801
L419.746 185.776
L419.969 224.077
L420.192 235.879
L420.266 235.102
L420.341 236.242
L420.49 249.902
L420.638 217.381
L420.787 179.875
L420.862 180.765
L420.936 184.29
L421.159 233.123
L421.234 221.572
L421.531 169.308
L421.903 221.053
L421.978 219.749
L422.275 188.852
L422.35 192.463
L422.647 252.762
L422.722 251.336
L422.796 252.598
L422.945 237.59
L423.168 218.167
L423.242 215.653
L423.317 218.565
L423.614 258.343
L423.689 256.088
L423.912 221.839
L424.135 177.413
L424.21 171.753
L424.358 186.536
L424.433 186.329
L424.656 137.643
L424.73 135.88
L425.177 285.006
L425.474 248.546
L425.549 251.405
L425.623 251.881
L425.698 251.837
L425.995 237.625
L426.144 224.881
L426.218 224.742
L426.442 197.647
L426.59 183.677
L426.665 184.679
L426.888 154.275
L427.26 172.229
L427.409 174.371
L427.558 164.599
L427.706 214.176
L428.078 310.253
L428.227 307.22
L428.376 327.049
L428.45 322.133
L428.599 277.706
L428.897 168.021
L428.971 169.084
L429.12 172.021
L429.269 166.293
L429.492 151.933
L429.566 157.912
L429.79 199.712
L429.864 195.254
L430.087 174.674
L430.162 176.151
L430.236 181.94
L430.459 235.931
L430.534 237.633
L430.98 272.237
L431.054 266.75
L431.278 232.7
L431.426 205.009
L431.724 248.606
L431.873 200.645
L432.022 167.381
L432.096 177.153
L432.319 239.43
L432.394 237.452
L432.542 225.719
L432.766 202.952
L432.989 216.889
L433.138 235.465
L433.51 173.766
L433.584 180.177
L433.807 188.93
L434.328 267.173
L434.7 206.65
L434.774 206.037
L434.923 221.554
L434.998 220.63
L435.146 202.166
L435.295 187.107
L435.37 188.688
L435.667 224.63
L435.742 221.649
L436.039 182.104
L436.262 211.264
L436.486 256.633
L436.932 215.575
L437.006 215.99
L437.081 220.094
L437.155 219.8
L437.304 204.032
L437.453 172.773
L437.527 175.253
L437.825 212.059
L438.048 263.631
L438.197 256.641
L438.271 260.555
L438.346 254.265
L438.569 214.66
L438.792 194.675
L439.015 231.672
L439.09 227.222
L439.462 195.099
L439.759 202.469
L440.131 179.754
L440.206 183.901
L440.429 212.258
L440.801 186.467
L440.95 203.497
L441.322 287.979
L441.396 298.718
L441.545 280.064
L441.768 249.116
L441.917 214.582
L441.991 217.442
L442.066 227.628
L442.14 227.525
L442.289 212.819
L442.363 215.368
L442.512 196.654
L442.735 174.561
L442.958 238.143
L443.33 117.339
L443.405 117.995
L443.851 211.549
L443.926 210.867
L444 202.572
L444.074 204.611
L444.223 224.302
L444.372 257.367
L444.446 256.624
L444.893 307.747
L444.967 306.779
L445.562 205.467
L445.86 156.262
L446.232 210.495
L446.306 207.316
L446.455 169.213
L446.53 173.317
L446.902 209.916
L446.976 209.795
L447.199 201.138
L447.348 192.947
L447.646 223.965
L447.869 249.427
L447.943 249.461
L448.092 237.314
L448.315 208.741
L448.762 256.909
L448.836 251.526
L449.059 215.731
L449.208 222.997
L449.282 221.874
L449.431 224.336
L449.803 189.137
L449.878 185.992
L449.878 185.992" style="fill:none;stroke:#808080;stroke-linecap:square;"/>
   </g>
  </g>
 </g>
 <defs>
  <clipPath id="p7ff5b81e1d">
   <rect height="345.6" width="446.4" x="72.0" y="43.2"/>
  </clipPath>
 </defs>
</svg>
