<?xml version="1.0" encoding="utf-8" standalone="no"?>
<!DOCTYPE svg PUBLIC "-//W3C//DTD SVG 1.1//EN"
  "http://www.w3.org/Graphics/SVG/1.1/DTD/svg11.dtd">
<!-- Created with matplotlib (http://matplotlib.org/) -->
<svg height="432pt" version="1.1" viewBox="0 0 576 432" width="576pt" xmlns="http://www.w3.org/2000/svg" xmlns:xlink="http://www.w3.org/1999/xlink">
 <defs>
  <style type="text/css">
*{stroke-linecap:butt;stroke-linejoin:round;}
  </style>
 </defs>
 <g id="figure_1">
  <g id="patch_1">
   <path d="
M0 432
L576 432
L576 0
L0 0
z
" style="fill:#ffffff;"/>
  </g>
  <g id="axes_1">
   <g id="line2d_1">
    <path clip-path="url(#p7ff5b81e1d)" d="
M72 169.14
L72.0744 169.891
L73.0416 194.745
L73.116 195.979
L73.1904 195.816
L73.2648 195.278
L73.3392 195.678
L73.5624 200.881
L74.0088 212.484
L74.0832 211.906
L74.3064 204.323
L74.9016 174.823
L75.1248 173.362
L75.1992 173.535
L75.2736 173.648
L75.4968 182.634
L75.9432 196.28
L76.0176 195.994
L76.092 196.097
L76.2408 197.208
L76.3152 197.055
L76.3896 196.7
L76.5384 197.825
L76.6128 197.262
L76.6872 197.638
L76.836 201.479
L76.9104 200.17
L77.2824 185.008
L77.4312 182.969
L77.952 191.367
L78.1752 197.707
L78.3984 195.989
L78.4728 196.428
L78.696 199.568
L78.8448 195.189
L78.9192 193.481
L78.9936 193.629
L79.068 193.041
L79.5144 183.513
L79.6632 182.584
L79.812 184.959
L80.2584 193.545
L80.4816 194.986
L80.6304 192.745
L80.7792 190.77
L80.8536 191.343
L80.928 191.19
L81.1512 188.642
L81.3 188.282
L81.5232 190.257
L81.7464 188.109
L81.8208 188.479
L81.9696 189.733
L82.044 189.082
L82.1184 189.368
L82.2672 192.918
L82.4904 198.907
L82.5648 198.67
L82.788 199.148
L82.9368 196.734
L83.3088 189.886
L83.6808 193.13
L83.8296 193.046
L83.904 193.273
L83.9784 192.755
L84.2016 187.373
L84.276 187.151
L84.4992 184.001
L84.648 187.043
L84.7968 184.544
L84.8712 184.969
L84.9456 185.29
L85.1688 189.817
L85.3176 191.308
L85.392 190.711
L85.6152 186.969
L86.3592 203.547
L86.4336 203.162
L86.5824 199.953
L86.7312 196.161
L86.8056 196.295
L86.9544 193.046
L87.1032 189.343
L87.252 188.81
L87.624 182.895
L88.0704 181.044
L88.2192 183.922
L88.5168 196.092
L88.6656 200.388
L88.8144 199.227
L88.8888 199.287
L89.0376 200.017
L89.2608 197.672
L89.7816 187.126
L90.0792 194.266
L90.1536 193.9
L90.3024 191.293
L90.5256 183.345
L90.6744 182.693
L90.7488 182.175
L90.8232 183.009
L91.344 200.97
L91.4928 197.618
L91.7904 190.316
L91.8648 189.97
L91.9392 190.113
L92.0136 190.425
L92.088 190.123
L92.6088 183.211
L92.7576 183.932
L93.5016 200.437
L93.6504 202.669
L93.8736 198.141
L93.948 198.867
L94.0968 199.534
L94.1712 199.371
L94.2456 198.314
L94.4688 193.268
L94.692 192.207
L94.7664 192.236
L94.9152 189.649
L95.2872 178.98
L95.3616 179.059
L95.436 179.558
L95.5848 177.563
L95.6592 178.111
L96.0312 188.464
L96.4032 190.903
L96.4776 190.913
L96.924 198.67
L97.0728 197.657
L97.1472 197.83
L97.3704 203.375
L97.7424 200.086
L97.9656 195.776
L98.3376 181.735
L98.4864 182.175
L98.5608 181.967
L98.784 184.312
L98.8584 184.465
L99.3792 189.383
L99.528 192.251
L99.6024 192.143
L99.6768 192.276
L99.8256 194.206
L100.123 198.921
L100.495 188.548
L100.644 190.958
L101.016 197.381
L101.09 197.529
L101.239 198.205
L101.314 197.411
L101.686 188.756
L101.909 186.327
L102.058 186.055
L102.281 179.044
L102.43 175.83
L102.504 176.319
L102.653 180.254
L102.95 188.39
L103.248 197.534
L103.694 213.654
L103.769 215.283
L103.843 214.888
L104.066 205.428
L104.438 179.242
L104.736 167.531
L104.81 168.41
L105.108 180.126
L105.629 204.382
L105.703 203.236
L106.001 188.232
L106.224 179.543
L106.298 179.39
L106.373 180.417
L106.596 191.53
L106.968 208.085
L107.042 207.64
L107.34 196.107
L107.414 196.221
L107.489 196.157
L107.563 195.579
L107.786 191.456
L107.861 191.629
L107.935 190.81
L108.084 184.673
L108.307 176.788
L108.456 175.737
L108.53 177.292
L108.754 195.455
L109.051 217.529
L109.126 214.656
L109.498 176.561
L109.646 176.22
L109.721 174.971
L109.944 178.886
L110.167 166.771
L110.39 158.901
L110.465 155.549
L110.539 155.751
L110.688 173.08
L111.209 256.222
L111.432 263.287
L111.506 262.067
L111.655 251.625
L111.878 209.033
L112.25 147.353
L112.474 132.453
L112.622 131.144
L112.771 135.874
L113.069 162.056
L113.664 242.477
L113.738 238.493
L114.185 157.089
L114.259 158.511
L114.482 182.742
L114.929 249.641
L115.003 247.977
L115.152 222.916
L115.45 167.659
L115.598 161.769
L115.747 169.279
L116.268 199.761
L116.491 203.385
L116.714 199.301
L117.384 183.295
L117.533 181.148
L117.905 173.5
L118.054 176.393
L118.128 176.235
L118.202 177.015
L118.426 185.631
L118.649 203.538
L118.872 218.477
L118.946 217.663
L119.095 206.371
L119.542 150.004
L119.616 151.441
L119.765 167.18
L120.434 263.963
L120.509 263.465
L120.658 252.02
L120.955 194.7
L121.402 125.348
L121.625 110.843
L121.699 110.714
L121.848 121.245
L122.89 248.515
L123.038 245.721
L123.187 240.946
L123.485 215.199
L124.006 172.216
L124.229 165.872
L124.303 165.675
L124.452 169.639
L124.898 184.934
L124.973 185.961
L125.047 185.823
L125.196 182.224
L125.419 175.208
L125.494 175.707
L125.94 193.742
L126.312 212.059
L126.461 213.387
L126.535 213.604
L126.684 210.484
L127.205 183.779
L127.502 169.792
L127.577 168.913
L127.651 169.303
L127.8 173.994
L128.172 189.032
L128.47 196.665
L128.693 213.496
L128.916 226.619
L129.065 219.415
L129.809 180.303
L130.181 153.421
L130.33 150.231
L130.404 151.238
L130.85 176.605
L131.52 240.482
L131.594 237.712
L131.966 189.215
L132.264 159.36
L132.338 159.661
L132.487 168.039
L132.934 198.788
L133.157 214.133
L133.529 245.168
L133.678 224.491
L134.198 98.5097
L134.347 120.194
L134.942 233.936
L135.24 255.743
L135.314 256.637
L135.389 255.368
L135.538 246.836
L135.761 212.893
L136.282 126.365
L136.356 124.39
L136.505 129.614
L136.728 152.122
L137.323 223.34
L137.398 224.204
L137.472 224.071
L137.621 222.501
L137.844 213.738
L138.365 195.011
L138.514 193.737
L138.662 195.011
L138.811 196.176
L139.258 190.908
L139.853 152.749
L139.927 153.09
L140.076 159.39
L140.374 192.004
L140.671 222.98
L140.746 224.713
L140.82 224.456
L140.969 223.469
L141.118 218.813
L141.862 171.061
L141.936 173.49
L142.308 208.065
L142.382 203.399
L142.829 155.697
L142.978 164.198
L143.573 219.855
L143.647 220.832
L143.87 212.523
L144.094 204.1
L144.242 199.993
L144.838 170.34
L144.912 170.167
L144.986 171.436
L145.358 189.195
L145.433 188.129
L145.73 178.111
L145.805 178.625
L146.102 187.447
L146.251 197.959
L146.474 219.025
L146.549 217.801
L147.07 189.141
L147.218 192.222
L147.367 194.162
L147.442 194.295
L147.59 193.841
L147.665 193.895
L147.814 194.389
L148.111 192.503
L148.781 181.054
L148.855 182.239
L149.227 196.428
L149.376 189.901
L149.599 174.28
L149.897 151.263
L150.046 158.6
L150.269 192.854
L150.715 266.975
L150.864 255.55
L151.459 168.8
L151.757 155.435
L151.831 154.788
L151.906 155.692
L152.203 170.715
L152.575 188.015
L152.65 187.507
L152.798 177.869
L152.947 167.551
L153.022 167.635
L153.319 189.304
L153.989 235.594
L154.063 235.101
L154.212 228.539
L154.51 203.923
L154.956 155.282
L155.03 155.055
L155.179 160.056
L155.774 198.472
L155.849 198.902
L155.923 198.556
L156.072 195.796
L156.667 175.292
L156.816 177.904
L156.965 183.35
L157.634 216.419
L157.783 215.431
L158.006 208.05
L158.602 173.949
L158.676 172.72
L158.75 172.908
L158.899 176.842
L159.346 191.901
L159.494 193.308
L159.718 196.25
L160.015 188.148
L160.09 189.131
L160.462 194.029
L160.685 197.04
L161.429 186.277
L161.578 189.891
L162.098 203.962
L162.173 204.125
L162.247 203.873
L162.396 198.507
L162.619 191.679
L163.066 185.315
L163.289 176.941
L163.363 177.529
L163.735 183.982
L163.884 183.048
L163.958 183.557
L164.033 184.342
L164.554 198.097
L164.777 190.666
L164.851 191.076
L165.149 202.772
L165.223 202.417
L165.521 199.509
L165.744 197.302
L165.893 196.561
L166.042 194.69
L166.414 184.189
L166.488 183.69
L166.637 185.566
L166.711 185.058
L166.934 182.999
L167.009 182.92
L167.158 181.464
L167.381 183.517
L167.827 201.099
L167.902 201.118
L168.05 198.66
L168.125 198.995
L168.199 198.393
L168.571 189.225
L168.646 189.393
L168.794 189.358
L168.869 189.245
L169.166 189.807
L169.39 191.071
L169.464 191.338
L169.687 188.469
L169.836 185.892
L169.91 186.026
L170.059 186.164
L170.134 187.749
L170.431 201.084
L170.58 196.512
L170.803 188.01
L170.878 188.667
L171.473 193.189
L171.696 190.652
L171.77 191.264
L171.994 195.826
L172.217 190.508
L172.44 194.503
L172.589 194.69
L172.738 193.797
L173.035 186.159
L173.258 190.908
L173.333 190.745
L173.63 183.853
L173.705 184.105
L174.002 194.468
L174.077 194.014
L174.598 184.668
L174.672 185.369
L175.193 199.267
L175.267 199.958
L175.342 199.306
L175.416 199.326
L175.565 200.067
L175.714 198.008
L176.011 188.262
L176.086 189.575
L176.234 191.57
L176.458 188.879
L176.532 189.383
L176.606 189.205
L176.681 188.568
L176.755 188.632
L176.904 190.089
L177.35 182.866
L177.425 183.103
L177.574 186.144
L178.02 202.417
L178.094 202.269
L178.243 199.168
L178.466 188.489
L178.615 183.261
L178.838 191.841
L178.913 191.432
L179.21 186.969
L179.359 187.521
L179.657 191.871
L180.029 186.554
L180.252 187.783
L180.55 188.85
L180.996 195.391
L181.145 195.525
L181.294 199.02
L181.517 205.68
L181.666 202.195
L181.74 202.372
L181.814 202.042
L181.963 196.942
L182.335 179.869
L182.41 181.182
L182.707 189.649
L183.302 179.587
L183.377 180.412
L183.674 190.178
L183.749 187.329
L183.972 162.653
L184.046 164.816
L184.27 209.304
L184.567 252.479
L184.642 251.482
L184.79 236.868
L185.386 136.027
L185.46 139.503
L185.609 163.492
L185.906 221.341
L186.13 200.57
L186.576 143.24
L186.65 146.365
L186.799 163.552
L187.32 256.163
L187.394 257.135
L187.543 252.277
L187.692 215.55
L188.064 80.267
L188.138 87.6036
L188.287 136.541
L188.659 300.898
L188.957 238.966
L189.031 241.529
L189.106 238.122
L189.552 138.343
L189.701 127.436
L189.775 129.327
L189.998 160.091
L190.073 157.242
L190.37 108.28
L190.519 135.05
L191.114 333.518
L191.189 331.163
L191.412 277.17
L191.71 180.935
L192.082 49.0198
L192.156 47.3609
L192.379 83.6144
L193.049 278.913
L193.123 278.844
L193.272 266.481
L194.239 143.27
L194.314 144.282
L194.537 163.665
L194.983 209.487
L195.206 217.342
L195.281 217.811
L195.355 217.786
L195.504 214.681
L195.802 200.264
L195.95 198.324
L196.099 188.766
L196.471 140.861
L196.546 141.542
L196.694 152.112
L197.29 233.076
L197.587 286.077
L197.662 280.404
L198.331 129.831
L198.406 134.521
L198.629 156.388
L198.703 158.896
L198.926 173.653
L199.224 143.788
L199.447 149.451
L199.596 170.237
L200.117 304.774
L200.191 298.958
L200.414 231.862
L200.712 148.256
L200.786 143.65
L200.935 152.473
L201.233 178.25
L201.307 177.776
L201.605 161.443
L201.754 178.013
L201.902 200.442
L202.051 183.853
L202.274 170.77
L202.498 187.911
L202.795 210.598
L203.018 204.179
L203.242 219.218
L203.539 200.017
L203.688 202.328
L203.762 201.118
L203.911 191.106
L204.134 175.085
L204.283 195.747
L204.358 195.678
L204.432 190.183
L204.581 196.729
L204.804 175.949
L205.027 128.468
L205.102 107.643
L205.176 109.006
L205.771 271.112
L205.994 353.079
L206.069 353.079
L206.59 79.9905
L206.664 81.2149
L206.887 115.76
L207.259 187.156
L207.408 202.98
L207.78 283.539
L207.854 277.743
L208.598 129.046
L208.673 122.707
L208.747 124.617
L209.268 175.06
L209.417 186.045
L209.789 218.112
L210.012 225.671
L210.086 225.651
L210.235 221.05
L210.607 195.441
L211.128 140.599
L211.277 186.188
L211.426 239.934
L211.5 236.567
L211.723 213.437
L211.872 205.004
L212.244 182.081
L212.318 183.266
L212.393 187.556
L212.616 162.89
L212.765 188.213
L212.839 187.304
L213.137 160.51
L213.286 153.588
L213.36 154.364
L213.509 195.855
L213.806 292.495
L213.881 293.083
L214.03 265
L214.253 226.278
L214.402 188.297
L214.848 50.5552
L215.071 76.2531
L215.294 156.891
L215.592 295.857
L215.666 289.128
L215.815 259.495
L215.89 261.914
L216.113 291.947
L216.187 283.574
L216.336 211.541
L216.559 113.978
L216.634 107.772
L216.708 108.596
L216.857 129.179
L217.452 248.219
L217.601 252.939
L217.973 234.054
L218.122 211.728
L218.494 123.546
L218.568 122.307
L218.642 123.23
L218.791 130.009
L219.089 152.818
L219.163 152.157
L219.312 149.165
L219.535 182.337
L219.907 249.996
L220.056 254.168
L220.205 244.101
L220.874 184.905
L220.949 184.86
L221.023 184.377
L221.098 182.194
L221.395 151.135
L221.47 151.619
L221.618 164.095
L221.916 196.655
L222.065 203.686
L222.288 192.483
L222.362 193.599
L222.586 211.842
L222.809 235.362
L222.883 237.949
L222.958 237.935
L223.032 234.883
L223.181 213.017
L223.404 147.955
L223.553 164.406
L223.925 104.355
L223.999 105.738
L224.148 123.186
L224.222 119.927
L224.297 125.259
L224.446 209.487
L224.669 293.28
L224.743 287.918
L225.19 202.876
L225.338 217.539
L225.413 214.799
L225.785 175.909
L225.859 174.241
L225.934 174.433
L226.008 176.497
L226.082 176.378
L226.231 161.424
L226.38 153.055
L226.529 190.074
L226.752 260.784
L226.826 255.254
L227.347 149.53
L227.422 150.152
L227.57 158.708
L227.942 189.304
L228.166 172.221
L228.24 173.579
L228.612 194.004
L228.761 204.811
L228.984 228.559
L229.058 228.564
L229.282 211.249
L229.579 189.625
L229.654 191.293
L229.951 206.12
L230.026 203.434
L230.398 162.49
L230.472 163.315
L230.621 168.918
L230.695 167.442
L230.918 155.746
L231.067 180.308
L231.365 257.56
L231.514 222.857
L231.737 182.007
L231.811 183.685
L231.886 181.409
L232.109 149.881
L232.183 152.68
L232.63 212
L232.704 208.03
L233.002 147.052
L233.076 154.976
L233.448 239.608
L233.522 239.431
L233.671 227.28
L233.894 203.128
L234.118 212.943
L234.192 211.768
L234.341 192.039
L234.638 156.867
L235.085 181.375
L235.382 199.173
L235.457 196.596
L235.68 158.634
L235.829 138.081
L235.903 144.519
L236.275 231.768
L236.647 185.162
L236.87 198.26
L236.945 195.855
L237.094 187.714
L237.168 190.37
L237.466 217.342
L237.54 216.651
L237.763 210.425
L238.507 183.33
L238.656 188.43
L238.954 205.577
L239.102 192.972
L239.4 164.332
L239.549 158.95
L239.698 163.162
L239.921 179.987
L240.293 210.42
L240.367 210.326
L240.516 200.047
L240.814 170.883
L240.888 169.822
L241.037 178.358
L241.26 190.247
L241.483 179.968
L241.632 195.416
L241.93 231.911
L242.004 231.61
L242.227 218.986
L242.822 177.311
L242.897 177.277
L243.046 180.412
L243.269 183.789
L243.343 183.685
L243.566 182.713
L243.715 184.041
L243.864 185.038
L243.938 184.989
L244.162 182.767
L244.31 183.266
L244.385 184.332
L244.906 199.746
L245.203 204.091
L245.278 204.303
L245.426 201.528
L245.724 187.467
L246.022 173.589
L246.245 170.745
L246.394 166.874
L246.468 167.521
L246.691 183.152
L247.138 218.112
L247.212 219.03
L247.286 218.986
L247.361 219.006
L247.51 217.204
L247.658 213.012
L248.03 197.287
L248.179 190.815
L248.551 157.627
L248.626 159.918
L249.146 230.252
L249.295 204.184
L249.667 122.84
L249.816 137.321
L250.262 194.735
L251.006 244.995
L251.155 234.37
L251.75 170.419
L251.825 168.469
L251.899 168.681
L252.048 170.414
L252.346 164.272
L252.42 164.924
L252.569 171.713
L253.015 199.139
L253.685 215.811
L253.759 215.234
L254.057 204.594
L254.354 181.75
L254.652 162.164
L254.801 161.557
L254.95 164.445
L255.098 169.59
L255.396 190.982
L255.619 204.994
L255.768 198.358
L255.991 187.665
L256.066 188.469
L256.214 194.74
L256.586 212.597
L256.735 216.883
L256.884 220.102
L256.958 220.24
L257.033 219.875
L257.182 212.785
L258.223 151.159
L258.372 156.037
L258.67 184.046
L258.893 197.08
L258.967 196.492
L259.19 192.246
L259.488 206.895
L259.711 217.939
L259.786 217.495
L260.083 210.139
L260.306 211.082
L260.381 210.726
L260.53 205.256
L261.125 173.085
L261.422 166.909
L261.571 170.557
L261.72 178.309
L262.241 220.911
L262.315 217.559
L262.538 178.511
L262.762 144.109
L262.836 142.544
L263.208 157.094
L263.357 176.912
L263.803 259.411
L263.878 261.979
L264.026 252.899
L264.324 226.071
L264.547 223.647
L264.696 206.248
L265.142 128.374
L265.217 127.97
L265.44 134.052
L265.738 147.881
L265.886 164.307
L266.407 253.146
L266.482 251.383
L266.705 224.614
L267.077 182.466
L267.374 176.803
L267.523 172.063
L267.821 155.707
L267.895 157.365
L268.044 174.566
L268.416 220.971
L268.565 222.002
L268.788 220.437
L268.862 220.773
L269.086 223.173
L269.16 222.694
L269.234 219.48
L269.383 196.793
L269.755 132.823
L269.83 133.934
L270.053 157.948
L270.425 202.402
L270.648 214.389
L270.722 214.582
L270.871 212.01
L271.243 199.366
L271.541 192.646
L271.69 191.55
L271.838 189.156
L272.136 179.839
L272.21 179.864
L273.029 188.104
L273.103 188.045
L273.178 188.524
L273.401 192.217
L273.698 195.475
L273.996 201.735
L274.07 201.647
L274.219 203.868
L274.368 205.137
L274.442 205.231
L274.591 203.775
L274.814 195.638
L275.41 174.744
L275.558 173.826
L275.633 174.255
L276.228 188.144
L276.6 195.564
L276.898 204.021
L276.972 204.091
L277.121 205.034
L277.195 204.935
L277.344 202.787
L277.418 203.231
L277.567 206.1
L277.642 206.051
L277.716 204.856
L278.386 177.543
L278.534 179.968
L279.278 194.843
L279.353 195.381
L279.427 195.164
L279.65 191.066
L279.799 181.335
L280.022 164.287
L280.097 163.828
L280.246 169.57
L280.915 220.511
L280.99 219.879
L282.254 166.771
L282.329 166.978
L282.478 172.236
L283.073 199.114
L283.147 198.487
L283.37 191.792
L283.445 192.335
L283.668 189.106
L283.742 190.286
L284.04 208.45
L284.338 246.209
L284.412 244.373
L284.561 204.742
L284.858 108.754
L284.933 113.909
L285.454 220.186
L285.528 221.094
L285.602 219.623
L285.751 205.799
L286.049 171.313
L286.123 172.182
L286.346 197.608
L286.57 210.139
L286.718 204.392
L287.09 185.729
L287.314 181.464
L287.537 172.419
L287.686 182.486
L287.909 199.751
L287.983 200.975
L288.058 200.393
L288.206 197.993
L288.281 198.393
L288.43 202.713
L288.504 202.629
L288.653 195.218
L288.876 183.759
L288.95 185.532
L289.248 224.999
L289.397 198.872
L289.694 136.689
L289.769 139.32
L290.513 225.221
L290.662 219.119
L291.108 191.935
L291.182 192.947
L291.406 206.747
L291.48 201.78
L291.852 135.519
L291.926 136.699
L292.224 177.405
L292.596 213.915
L292.745 216.122
L292.819 215.145
L292.894 216.132
L293.117 225.113
L293.191 222.58
L293.414 192.064
L293.638 177.074
L293.712 177.232
L293.861 179.193
L294.382 192.054
L294.456 192.059
L294.605 186.238
L294.754 180.629
L294.828 181.952
L295.126 197.964
L295.2 196.966
L295.349 188.336
L295.646 164.268
L295.795 178.427
L296.167 224.145
L296.242 223.814
L296.39 214.024
L296.762 188.963
L297.134 175.095
L297.209 175.119
L297.358 180.728
L297.73 199.81
L297.804 199.706
L297.953 194.878
L298.176 183.572
L298.25 185.527
L298.548 209.778
L298.771 193.644
L299.069 165.714
L299.143 165.813
L299.441 180.733
L299.515 180.664
L299.664 179.395
L299.887 172.754
L300.036 182.491
L300.482 230.899
L300.631 220.724
L301.078 188.109
L301.301 184.411
L301.375 184.451
L301.673 192.577
L301.747 191.762
L301.822 191.916
L302.119 194.69
L302.268 192.399
L302.491 183.409
L302.789 173.791
L302.863 173.752
L303.161 180.052
L303.458 192.962
L303.979 200.684
L304.202 205.103
L304.872 193.545
L304.946 193.816
L305.021 193.579
L305.244 187.778
L305.467 177.06
L305.542 177.81
L306.062 189.151
L306.137 188.519
L306.36 185.438
L306.434 185.576
L306.509 186.193
L306.806 196.334
L307.03 203.779
L307.178 203.222
L307.327 204.836
L307.402 204.569
L308.666 177.716
L308.741 177.386
L308.89 179.686
L309.336 187.334
L309.41 187.082
L309.485 187.502
L310.229 205.394
L310.303 204.959
L310.378 205.458
L310.601 208.81
L310.675 208.524
L311.27 181.202
L311.419 176.161
L311.494 176.26
L311.568 176.166
L311.791 168.726
L311.866 169.318
L312.089 172.868
L312.758 207.413
L312.982 207.862
L313.056 208.351
L313.13 207.867
L313.651 192.76
L314.395 178.077
L314.47 178.259
L314.618 183.28
L314.916 197.248
L315.065 196.818
L315.734 189.254
L315.809 189.585
L315.958 191.555
L316.032 191.511
L316.33 195.441
L316.478 192.705
L316.776 186.89
L316.85 187.107
L317.074 189.358
L317.297 193.436
L317.371 193.046
L317.594 190.331
L317.669 190.212
L317.818 188.242
L317.966 190.513
L318.041 190.425
L318.264 187.304
L318.413 191.145
L318.785 202.323
L318.859 202.975
L319.231 198.709
L319.529 189.091
L319.752 178.916
L319.975 176.739
L320.05 176.768
L320.422 181.577
L320.794 196.349
L321.091 203.829
L321.314 206.86
L321.389 205.967
L321.612 197.119
L321.91 185.937
L322.058 183.952
L322.133 184.584
L322.282 186.682
L322.356 186.258
L322.654 194.354
L322.728 193.436
L322.802 192.71
L323.026 194.685
L323.174 192.207
L323.472 178.857
L324.142 191.871
L324.29 190.336
L324.662 197.909
L324.886 205.132
L325.332 194.157
L325.63 184.011
L325.704 184.061
L326.002 187.882
L326.076 187.63
L326.15 187.605
L326.671 192.923
L326.746 191.797
L326.969 185.67
L327.266 190.79
L327.49 204.086
L327.713 212.079
L327.787 211.501
L327.936 202.14
L328.606 147.654
L328.68 150.103
L328.903 174.779
L329.275 218.512
L329.424 223.419
L329.573 220.931
L330.391 195.352
L330.689 184.544
L330.986 174.369
L331.21 175.899
L331.433 172.996
L331.507 173.525
L331.879 181.755
L332.698 212.306
L332.921 209.373
L333.59 183.478
L333.962 161.745
L334.037 161.36
L334.186 167.506
L334.855 214.019
L334.93 214.691
L335.004 214.646
L335.302 209.951
L335.599 195.159
L335.971 167.63
L336.046 168.716
L336.418 187.24
L336.492 186.914
L336.641 184.475
L336.715 184.712
L337.087 196.981
L337.162 195.653
L337.385 181.656
L337.534 173.772
L337.608 175.806
L337.757 193.436
L338.054 238.557
L338.129 236.765
L338.278 201.79
L338.575 92.5456
L338.65 93.5479
L338.873 156.857
L339.319 341.378
L339.468 298.168
L339.914 93.5775
L339.989 91.6273
L340.138 131.317
L340.435 209.961
L340.733 195.944
L340.807 197.81
L340.956 203.809
L341.03 203.7
L341.7 183.118
L341.998 156.842
L342.072 157.573
L342.295 173.707
L342.37 172.873
L342.518 150.221
L342.667 130.69
L342.816 155.628
L343.114 227.789
L343.411 245.098
L343.486 247.374
L343.783 293.808
L343.858 286.664
L344.378 125.595
L344.602 173.806
L344.825 216.552
L344.899 218.438
L344.974 214.518
L345.197 172.359
L345.42 144.44
L345.643 155.652
L345.718 153.519
L345.866 148.36
L346.015 160.584
L346.313 194.473
L346.536 209.906
L346.834 230.104
L346.908 230.401
L346.982 228.396
L347.206 203.478
L347.429 186.243
L347.652 195.589
L347.726 193.984
L348.098 162.386
L348.173 163.626
L348.322 179.281
L348.619 232.603
L348.694 229.665
L349.066 181.365
L349.363 203.75
L349.438 199.874
L349.81 166.415
L350.033 179.879
L350.107 179.183
L350.405 157.499
L350.479 158.56
L350.628 176.339
L351 263.874
L351.074 263.776
L351.223 239.292
L351.595 166.03
L351.744 180.027
L351.893 194.522
L351.967 188.45
L352.265 128.844
L352.339 132.329
L352.488 162.456
L352.786 246.501
L352.86 242.916
L353.232 160.584
L353.306 166.311
L353.678 215.698
L353.753 213.022
L354.125 174.438
L354.422 176.457
L354.571 185.033
L355.166 246.046
L355.241 241.302
L355.39 200.19
L355.613 131.924
L355.687 131.431
L355.985 169.649
L356.059 169.333
L356.282 154.754
L356.357 157.499
L356.58 196.122
L356.803 228.949
L356.952 232.405
L357.101 224.659
L357.398 203.631
L357.473 202.639
L357.622 205.952
L357.77 202.372
L358.142 180.244
L358.291 181.997
L358.44 183.982
L358.663 179.434
L358.812 177.287
L358.886 177.232
L358.961 176.956
L359.333 170.715
L359.705 160.886
L359.779 160.496
L359.854 161.473
L360.002 171.925
L360.598 259.154
L360.672 254.938
L361.342 188.464
L361.49 186.016
L361.639 189.284
L361.714 190.76
L361.788 190.469
L361.937 182.974
L362.383 153.11
L362.458 153.287
L362.606 161.597
L362.681 166.223
L362.755 166.134
L363.053 119.749
L363.127 125.111
L363.35 235.199
L363.499 289.503
L363.574 284.324
L363.871 184.011
L363.946 191.772
L364.243 243.677
L364.392 233.432
L364.466 233.511
L364.541 233.96
L364.615 229.591
L364.838 180.96
L365.062 135.79
L365.136 132.941
L365.285 141.917
L365.954 193.066
L366.103 199.178
L366.252 190.173
L366.624 155.524
L366.773 164.223
L367.591 242.457
L367.666 239.223
L368.112 206.218
L368.186 206.337
L368.335 213.915
L368.484 222.921
L368.633 214.518
L368.707 215.031
L368.782 210.835
L369.377 92.9752
L369.526 103.516
L369.674 137.508
L370.121 273.566
L370.195 274.934
L370.27 272.114
L370.493 241.415
L371.088 160.733
L371.162 158.916
L371.237 160.027
L371.534 177.998
L371.832 189.403
L371.981 185.389
L372.278 178.462
L372.353 178.407
L372.725 185.631
L372.948 190.76
L373.097 192.454
L373.246 197.198
L373.543 206.678
L374.064 223.365
L374.138 221.499
L374.287 205.394
L374.734 144.129
L374.808 144.958
L374.957 160.421
L375.626 257.619
L375.775 262.423
L375.924 225.666
L376.37 66.1517
L376.594 117.281
L377.114 273.931
L377.263 281.253
L377.412 272.87
L377.635 246.106
L378.23 139.523
L378.379 135.361
L378.528 140.49
L379.198 194.73
L379.346 196.986
L379.495 196.774
L379.644 198.378
L380.09 206.559
L380.165 206.712
L380.239 206.288
L380.983 190.405
L381.355 178.393
L381.43 178.649
L381.653 186.351
L381.95 196.586
L382.099 197.499
L382.174 197.648
L382.471 199.356
L382.546 199.069
L382.694 196.512
L383.438 178.082
L383.513 177.948
L383.736 179.839
L383.885 183.611
L384.108 194.014
L384.406 205.448
L384.48 205.147
L384.554 205.493
L384.629 205.073
L384.852 195.826
L385.373 165.724
L385.447 167.166
L385.67 181.646
L386.266 232.267
L386.34 230.776
L386.489 219.608
L387.084 161.315
L387.158 160.925
L387.307 168.099
L387.605 183.419
L387.977 167.022
L388.051 169.407
L388.2 177.761
L388.423 203.76
L388.721 238.557
L388.795 238.917
L388.944 226.535
L389.39 190.928
L389.762 184.668
L390.209 176.828
L390.581 157.217
L390.655 158.338
L390.878 177.731
L391.25 209.827
L391.325 210.8
L391.474 206.865
L391.846 194.29
L391.994 194.522
L392.292 190.948
L392.441 193.397
L392.887 206.658
L392.962 206.663
L393.11 201.735
L393.557 178.832
L393.631 177.919
L393.706 178.18
L393.78 178.768
L393.854 178.585
L393.929 178.324
L394.003 178.817
L394.301 188.938
L394.524 194.537
L394.598 194.848
L394.673 194.715
L394.822 193.91
L394.896 193.945
L395.045 196.561
L395.268 201.143
L395.491 203.261
L395.64 199.538
L396.012 181.562
L396.31 168.642
L396.458 167.062
L396.607 166.603
L396.756 173.347
L397.426 225.162
L397.574 219.218
L398.17 184.495
L398.244 183.962
L398.318 184.154
L398.542 186.05
L398.69 183.72
L398.988 178.659
L399.137 177.855
L399.286 180.017
L399.658 188.193
L400.03 201.212
L400.327 208.267
L400.402 206.47
L400.55 191.56
L400.774 166.154
L400.848 167.467
L400.997 179.928
L401.369 219.06
L401.518 208.218
L401.89 178.817
L402.038 177.539
L402.113 178.072
L402.262 183.399
L402.708 217.031
L402.782 217.006
L402.931 210.529
L403.75 158.121
L403.824 157.854
L403.973 161.942
L404.196 180.659
L404.642 227.221
L404.717 227.537
L404.866 222.185
L405.089 202.481
L405.312 182.772
L405.386 182.066
L405.535 184.322
L405.61 183.542
L405.907 167.487
L405.982 167.709
L406.13 182.698
L406.577 248.278
L406.651 246.377
L406.8 229.245
L407.172 146.193
L407.47 93.4788
L407.544 96.0708
L407.693 123.699
L408.139 231.299
L408.362 242.151
L408.437 241.865
L408.586 233.684
L408.66 234.819
L408.809 246.836
L409.032 183.567
L409.106 184.209
L409.255 200.106
L409.33 197.791
L409.478 180.491
L409.553 183.142
L409.776 222.249
L409.85 214.503
L410.148 121.023
L410.222 127.017
L410.669 204.298
L410.818 201.36
L411.115 209.092
L411.19 210.588
L411.338 207.448
L411.562 198.724
L411.934 182.303
L412.306 162.826
L412.38 164.016
L412.529 173.145
L413.05 223.469
L413.124 226.357
L413.198 226.347
L413.496 216.601
L413.719 202.111
L414.389 142.381
L414.463 140.856
L414.538 141.438
L414.761 156.037
L415.505 230.825
L415.579 230.736
L416.1 211.748
L417.142 157.449
L417.216 156.975
L417.29 158.076
L417.514 179.908
L417.737 198.516
L417.96 203.276
L418.258 215.747
L418.332 215.026
L418.481 204.056
L418.927 155.899
L419.076 165.013
L419.671 215.036
L419.894 219.065
L420.043 213.753
L420.49 179.518
L420.787 166.144
L420.862 166.82
L421.01 172.448
L421.234 192.567
L421.531 221.761
L421.606 223.069
L421.68 222.595
L421.903 206.608
L422.498 144.874
L422.573 145.008
L422.722 154.265
L423.466 237.54
L423.54 236.167
L424.879 157.854
L425.028 162.184
L425.846 204.703
L425.921 204.663
L426.293 202.906
L426.442 199.257
L426.962 171.5
L427.037 172.68
L427.26 186.164
L427.706 210.341
L427.93 217.959
L428.078 215.026
L428.376 195.836
L428.897 164.514
L428.971 164.297
L429.046 165.61
L429.418 187.354
L429.566 193.204
L429.715 192.701
L429.79 193.135
L430.087 200.343
L430.162 200.161
L430.31 195.075
L430.534 184.164
L430.608 184.327
L430.757 195.85
L431.129 233.185
L431.203 235.476
L431.352 228.534
L432.096 143.285
L432.319 124.143
L432.468 133.554
L433.435 225.404
L433.51 226.698
L433.584 225.794
L433.807 216.473
L434.254 190.341
L434.328 190.657
L434.626 203.33
L434.849 213.125
L434.923 213.417
L435.072 207.216
L435.295 185.892
L435.518 170.083
L435.593 170.967
L435.742 174.502
L435.816 174.408
L435.965 169.985
L436.262 158.669
L436.411 164.465
L437.006 203.819
L437.23 217.801
L437.378 214.538
L437.527 212.182
L437.602 211.857
L437.75 208.741
L437.899 198.487
L438.122 184.144
L438.271 196.078
L438.643 237.5
L438.792 218.65
L439.238 143.201
L439.313 143.428
L439.61 162.54
L439.908 181.222
L440.057 177.134
L440.206 172.197
L440.28 173.189
L440.429 181.543
L440.875 214.641
L440.95 215.135
L441.098 213.545
L441.173 213.713
L441.247 213.757
L441.322 213.644
L441.396 214.177
L441.545 218.571
L441.842 240.803
L441.917 239.223
L442.066 217.465
L442.512 129.021
L442.586 129.52
L442.81 156.521
L443.107 192.636
L443.33 196.976
L443.554 198.551
L443.702 197.055
L443.926 194.848
L444.149 195.391
L444.372 192.434
L444.67 186.183
L444.818 189.477
L445.042 198.156
L445.116 197.593
L445.414 181.187
L445.488 183.68
L445.786 204.451
L446.158 223.484
L446.306 206.757
L446.604 165.364
L446.678 166.173
L447.05 183.819
L447.199 178.575
L447.422 169.254
L447.72 177.025
L447.943 195.214
L448.538 255.669
L448.687 272.465
L448.762 266.807
L448.985 205.182
L449.282 137.997
L449.357 135.825
L449.431 137.918
L449.654 158.402
L449.729 155.998
L449.878 134.028
L449.878 134.028" style="fill:none;stroke:#808080;stroke-linecap:square;"/>
   </g>
  </g>
 </g>
 <defs>
  <clipPath id="p7ff5b81e1d">
   <rect height="345.6" width="446.4" x="72.0" y="43.2"/>
  </clipPath>
 </defs>
</svg>
