<?xml version="1.0" encoding="utf-8" standalone="no"?>
<!DOCTYPE svg PUBLIC "-//W3C//DTD SVG 1.1//EN"
  "http://www.w3.org/Graphics/SVG/1.1/DTD/svg11.dtd">
<!-- Created with matplotlib (http://matplotlib.org/) -->
<svg height="432pt" version="1.1" viewBox="0 0 576 432" width="576pt" xmlns="http://www.w3.org/2000/svg" xmlns:xlink="http://www.w3.org/1999/xlink">
 <defs>
  <style type="text/css">
*{stroke-linecap:butt;stroke-linejoin:round;}
  </style>
 </defs>
 <g id="figure_1">
  <g id="patch_1">
   <path d="
M0 432
L576 432
L576 0
L0 0
z
" style="fill:#ffffff;"/>
  </g>
  <g id="axes_1">
   <g id="line2d_1">
    <path clip-path="url(#p7ff5b81e1d)" d="
M72 230.986
L72.5952 200.581
L72.6696 198.531
L72.8184 206.871
L73.2648 239.081
L73.86 262.451
L73.9344 261.883
L74.0832 257.452
L74.4552 238.705
L74.6784 236.408
L74.9016 228.859
L74.976 229.051
L75.0504 229.665
L75.1248 229.228
L75.348 223.007
L75.7944 231.171
L75.8688 230.848
L76.092 220.611
L76.1664 220.733
L76.7616 242.967
L76.9104 244.495
L76.9848 244.918
L77.1336 248.097
L77.208 246.907
L77.5056 237.1
L77.6544 240.648
L77.8032 238.643
L77.952 233.559
L78.0264 234.534
L78.1008 234.373
L78.3984 223.237
L78.4728 223.375
L78.5472 225.288
L78.6216 224.397
L78.696 223.821
L79.1424 244.196
L79.2912 242.621
L79.6632 246.584
L79.7376 246.822
L79.812 246.746
L79.9608 249.126
L80.184 235.041
L80.4816 214.029
L80.556 212.815
L80.6304 213.752
L80.7048 216.164
L80.7792 214.551
L80.928 216.571
L81.0024 212.838
L81.0768 213.184
L81.5976 252.828
L81.7464 258.926
L81.8952 257.413
L82.044 261.729
L82.1928 257.137
L82.4904 240.333
L82.7136 232.461
L83.0112 217.093
L83.0856 218.076
L83.2344 222.968
L83.3088 222.561
L83.532 217.961
L83.6064 218.399
L83.9784 229.481
L84.1272 231.985
L84.2016 232.138
L84.5736 240.264
L84.648 239.995
L84.8712 236.831
L84.9456 238.328
L85.2432 253.489
L85.3176 252.859
L85.4664 249.011
L85.6152 251.899
L86.4336 226.647
L86.508 227.407
L86.5824 227.231
L86.88 213.676
L86.9544 214.697
L87.7728 241.83
L87.8472 242.33
L87.996 240.986
L88.0704 241.055
L88.2192 243.021
L88.4424 247.491
L88.5168 246.653
L88.74 238.236
L89.1864 199.383
L89.2608 202.793
L89.4096 220.641
L89.856 292.841
L89.9304 293.14
L90.0048 289.001
L90.1536 258.189
L90.6 118.828
L90.7488 141.345
L91.0464 249.257
L91.4184 377.382
L91.4928 383.48
L91.6416 367.759
L91.8648 311.788
L92.3112 93.9597
L92.3856 101.117
L92.9808 238.113
L93.0552 245.463
L93.1296 244.572
L93.4272 232.822
L93.576 241.792
L93.7992 260.101
L93.8736 261.714
L93.948 261.545
L94.0968 255.854
L94.4688 234.726
L94.6176 232.96
L94.692 232.929
L95.2128 238.735
L95.2872 238.397
L95.3616 236.9
L95.5104 239.357
L95.5848 238.536
L95.7336 238.075
L95.9568 235.325
L96.0312 235.51
L96.18 237.399
L96.552 261.253
L96.7752 282.189
L96.8496 280.269
L96.9984 256.453
L97.5192 137.912
L97.5936 137.16
L97.7424 160.422
L98.3376 328.253
L98.412 325.658
L98.6352 291.412
L99.3048 164.731
L99.3792 166.267
L99.528 183.693
L99.8256 226.478
L99.9744 230.065
L100.049 230.088
L100.272 225.441
L100.421 235.18
L101.016 311.711
L101.09 310.889
L101.165 308.585
L101.314 284.239
L101.834 180.045
L101.983 171.958
L102.058 172.18
L102.281 186.534
L102.727 217.976
L103.025 238.451
L103.397 270.269
L103.471 270.761
L103.769 261.837
L103.992 274.447
L104.066 273.618
L104.29 261.491
L104.513 231.539
L104.885 178.24
L105.034 172.772
L105.108 173.164
L105.257 187.694
L105.778 273.81
L105.926 280.008
L106.001 280.914
L106.15 285.307
L106.224 285.053
L106.373 276.529
L106.67 238.013
L106.968 207.854
L107.266 193.976
L107.34 192.74
L107.414 194.898
L107.638 222.162
L108.01 258.427
L108.084 257.344
L108.307 227.077
L108.605 202.409
L108.679 202.24
L108.754 202.601
L108.902 214.382
L109.349 265.754
L109.572 281.029
L110.018 259.709
L110.093 260.339
L110.242 264.371
L110.688 253.128
L110.986 223.928
L111.581 143.02
L111.655 142.029
L111.804 162.55
L112.102 261.66
L112.325 308.101
L112.399 308.124
L112.548 291.19
L112.92 232.998
L113.292 201.088
L114.185 262.666
L114.334 265.124
L114.408 265.684
L114.482 265.431
L114.557 265.247
L114.78 253.235
L115.078 233.398
L115.152 233.16
L115.375 242.606
L115.524 239.02
L115.747 231.247
L115.896 220.641
L116.194 182.879
L116.491 140.408
L116.64 159.086
L117.161 311.795
L117.31 320.297
L117.384 317.755
L117.607 283.517
L117.905 240.425
L118.5 191.48
L118.723 201.91
L119.095 223.468
L119.393 241.585
L119.69 254.341
L120.137 291.244
L120.211 289.101
L120.36 271.429
L120.732 224.128
L120.806 222.385
L120.881 222.922
L121.03 227.53
L121.178 224.458
L121.699 192.94
L121.922 182.51
L122.146 168.709
L122.22 172.442
L122.369 202.716
L122.741 291.82
L122.964 316.119
L123.038 312.026
L123.41 253.619
L123.485 254.026
L123.559 254.295
L123.782 234.112
L124.154 199.744
L124.229 201.057
L124.452 219.512
L124.824 248.328
L124.898 248.758
L125.122 243.075
L125.196 243.896
L125.494 257.375
L125.642 255.393
L125.866 252.022
L126.089 234.465
L126.535 180.744
L126.61 181.251
L126.982 209.682
L127.577 265.277
L127.8 273.679
L127.949 264.847
L128.47 204.152
L128.544 206.364
L128.767 232.046
L129.065 267.996
L129.139 267.75
L129.288 256.468
L129.511 239.511
L129.809 247.629
L129.883 246.815
L130.032 239.857
L130.702 195.912
L130.776 198.73
L130.925 218.191
L131.222 267.389
L131.297 269.217
L131.371 268.434
L131.594 262.19
L131.743 258.68
L131.818 260.792
L131.892 258.642
L132.264 219.213
L132.338 216.509
L132.71 166.113
L132.785 168.11
L133.008 217.516
L133.38 283.502
L133.454 285.837
L133.603 275.822
L134.05 238.244
L134.496 223.905
L134.719 237.829
L134.794 237.315
L135.091 213.96
L135.166 213.983
L136.058 261.499
L136.133 261.468
L136.654 238.436
L136.728 239.196
L136.802 239.465
L137.026 241.331
L137.1 240.156
L137.621 216.993
L137.844 223.944
L137.918 222.154
L138.142 210.749
L138.216 211.878
L138.29 211.633
L138.439 213.407
L138.514 213.138
L138.737 224.42
L139.109 255.002
L139.332 263.841
L139.406 263.073
L139.927 240.018
L140.002 242.806
L140.522 289.07
L140.597 290.061
L140.671 283.679
L140.894 211.126
L141.266 79.3447
L141.341 86.1491
L141.564 182.426
L141.862 317.071
L142.01 333.86
L142.085 331.579
L142.308 288.993
L142.606 228.244
L142.68 225.587
L142.754 226.54
L143.052 239.849
L143.126 239.803
L143.201 239.373
L143.722 221.947
L143.796 222.423
L143.87 222.431
L143.945 221.955
L144.019 222.193
L144.094 223.268
L144.242 220.649
L144.317 219.366
L144.391 219.558
L144.614 223.444
L144.838 228.751
L144.986 229.189
L145.21 237.837
L145.358 247.191
L145.73 279.724
L145.805 279.7
L145.954 267.796
L146.474 195.781
L146.549 197.386
L146.921 220.611
L147.293 262.958
L147.367 263.818
L147.888 240.302
L148.334 201.188
L148.409 202.532
L148.781 223.867
L149.004 247.921
L149.227 261.53
L149.302 262.874
L149.822 246.431
L150.343 225.065
L150.492 221.187
L150.566 221.302
L150.715 225.526
L150.864 221.724
L151.236 233.966
L151.459 245.824
L151.534 247.744
L151.608 246.861
L151.757 241.216
L151.906 244.303
L152.054 242.322
L152.129 243.22
L152.203 242.99
L152.501 230.195
L152.724 222.131
L152.873 220.695
L152.947 220.841
L153.17 229.934
L153.319 237.599
L153.394 237.13
L153.617 231.485
L154.063 246.561
L154.286 253.873
L154.361 254.111
L154.658 233.306
L154.956 212.608
L155.105 211.694
L155.179 212.308
L155.626 252.728
L155.923 238.804
L156.146 242.068
L156.295 246.845
L156.518 250.202
L156.667 245.548
L157.039 218.176
L157.262 198.492
L157.337 200.343
L158.304 274.355
L158.378 275.085
L158.453 272.535
L158.676 242.422
L159.122 195.236
L159.197 194.099
L159.271 194.522
L159.42 202.079
L160.015 261.007
L160.164 267.873
L160.387 275.131
L160.462 274.163
L160.61 262.397
L160.982 216.356
L161.28 205.42
L161.578 213.752
L161.726 218.476
L161.875 221.409
L162.024 219.597
L162.842 260.009
L162.917 259.564
L163.14 247.867
L163.438 226.547
L163.586 233.336
L163.958 260.255
L164.033 260.255
L164.182 252.329
L164.777 201.764
L164.851 201.917
L165 200.013
L165.074 201.802
L165.372 225.103
L165.967 280.138
L166.042 282.319
L166.19 275.814
L166.488 240.049
L166.934 190.19
L167.009 190.82
L167.158 199.045
L168.05 262.682
L168.125 263.227
L168.199 262.904
L168.274 261.107
L168.646 241.132
L168.794 246.208
L169.018 261.222
L169.092 260.685
L169.39 248.957
L169.613 220.58
L169.836 197.847
L170.059 193.792
L170.58 221.709
L171.026 264.394
L171.175 264.763
L171.324 267.712
L171.622 261.591
L172.291 217.032
L172.589 215.373
L172.663 215.373
L173.258 232.937
L173.407 231.086
L173.482 231.37
L173.705 243.389
L173.928 251.116
L174.002 253.642
L174.077 252.129
L174.226 244.695
L174.374 247.882
L174.449 247.36
L174.598 240.502
L174.97 220.065
L175.118 223.206
L175.416 230.295
L175.639 227.768
L175.937 237.944
L176.086 243.896
L176.16 243.42
L176.383 233.651
L176.458 234.511
L176.755 244.396
L176.83 243.128
L176.978 233.298
L177.053 233.321
L177.202 230.71
L177.276 231.754
L177.499 236.785
L177.722 229.619
L177.871 233.498
L178.02 236.639
L178.243 232.223
L178.466 220.134
L178.541 221.509
L178.69 230.172
L179.062 262.075
L179.136 262.912
L179.21 262.244
L179.657 225.58
L179.731 226.14
L179.806 226.601
L179.88 226.225
L179.954 226.516
L180.178 232.96
L180.773 219.52
L180.847 215.365
L180.922 215.803
L181.666 260.47
L181.74 259.579
L181.814 260.301
L182.112 244.772
L182.484 221.156
L182.633 228.183
L182.782 233.605
L182.856 233.574
L182.93 234.173
L183.005 233.298
L183.451 220.05
L183.6 220.25
L184.27 245.701
L184.344 246.884
L184.418 246.584
L184.493 245.356
L184.716 237.069
L184.79 238.083
L185.088 250.163
L185.162 249.572
L185.534 237.522
L185.609 237.791
L185.683 237.775
L185.758 238.052
L185.906 234.427
L186.278 218.199
L186.427 225.088
L186.576 229.972
L186.725 229.043
L186.948 222.438
L187.171 234.473
L187.469 249.027
L187.543 250.486
L187.841 241.485
L187.99 242.307
L188.138 245.586
L188.213 243.958
L188.659 221.624
L188.734 222.239
L189.031 231.731
L189.329 226.693
L189.626 235.249
L189.85 245.548
L189.924 246.108
L190.073 241.185
L190.222 240.717
L190.519 249.51
L190.742 239.78
L191.114 225.503
L191.263 224.028
L191.561 228.052
L191.71 226.908
L191.933 230.072
L192.23 241.446
L192.379 236.739
L192.528 237.537
L192.751 242.629
L192.9 248.558
L193.049 239.334
L193.123 239.534
L193.198 241.446
L193.272 241.431
L193.793 231.631
L194.016 222.915
L194.165 223.122
L194.314 225.58
L194.462 225.51
L194.686 235.295
L194.834 231.954
L194.909 232.146
L194.983 232.607
L195.058 232.207
L195.132 233.298
L195.43 243.405
L195.653 248.274
L195.802 243.674
L195.95 247.644
L196.099 245.233
L196.248 247.176
L196.322 246.124
L196.769 225.964
L196.843 224.343
L197.066 228.16
L197.141 227.139
L197.364 217.024
L197.438 215.588
L197.513 215.949
L197.587 216.479
L197.885 234.435
L198.034 234.15
L198.182 236.9
L198.331 234.442
L198.406 235.264
L198.778 249.226
L198.926 259.825
L199.001 259.226
L199.15 257.92
L199.224 258.819
L199.298 258.066
L199.819 236.746
L200.266 209.766
L200.414 208.668
L200.489 209.989
L200.563 209.352
L200.638 207.931
L200.712 208.108
L200.935 217.07
L201.605 252.575
L201.754 249.618
L201.902 253.757
L201.977 256.453
L202.2 249.964
L202.274 250.202
L202.349 250.455
L202.498 248.443
L202.721 238.812
L203.093 214.144
L203.316 219.044
L203.614 228.982
L203.762 232.415
L203.837 231.631
L203.986 229.535
L204.134 235.756
L204.358 243.174
L204.506 245.709
L204.581 244.979
L204.73 236.562
L204.804 236.938
L204.953 239.181
L205.474 235.041
L205.548 234.58
L205.697 238.636
L205.771 240.84
L205.994 233.044
L206.143 227.261
L206.218 227.553
L206.515 237.053
L206.962 230.164
L207.036 230.126
L207.11 231.232
L207.557 246.285
L207.78 236.593
L207.854 237.914
L208.003 239.803
L208.226 232.707
L208.598 218.529
L208.747 220.019
L208.896 216.74
L208.97 217.147
L209.268 232.707
L209.417 238.42
L209.714 250.647
L209.863 255.647
L210.012 263.98
L210.086 263.741
L210.161 264.148
L210.31 259.863
L210.607 241.423
L210.905 232.392
L211.351 212.861
L211.872 205.919
L212.021 211.133
L212.393 238.774
L212.69 262.866
L212.914 268.91
L212.988 269.171
L213.137 268.257
L213.211 267.244
L213.658 240.079
L214.253 201.626
L214.402 201.05
L214.55 197.855
L214.625 199.091
L215.443 254.694
L215.518 255.908
L215.592 255.378
L215.666 255.37
L215.741 255.946
L215.89 252.621
L215.964 253.619
L216.262 265.416
L216.336 265.385
L216.485 258.78
L216.857 226.025
L217.303 193.162
L217.378 192.018
L217.601 193.815
L217.824 210.811
L218.419 274.785
L218.568 277.519
L218.642 277.02
L218.866 269.041
L219.163 241.946
L219.61 209.605
L219.833 208.108
L220.502 226.801
L220.949 245.609
L221.098 247.491
L221.395 250.54
L221.47 250.87
L221.693 259.364
L221.916 250.962
L222.362 221.532
L222.66 225.695
L222.734 225.679
L222.809 226.394
L223.032 221.617
L223.106 222.83
L223.181 222.638
L223.33 220.941
L223.627 225.395
L223.925 239.119
L224.371 253.151
L224.594 259.602
L224.669 259.226
L224.743 257.428
L225.264 211.779
L225.338 212.846
L225.71 237.43
L225.785 236.431
L226.008 233.774
L226.082 233.49
L226.38 221.302
L226.975 247.821
L227.05 248.328
L227.124 248.12
L227.198 248.013
L227.273 249.073
L227.347 248.666
L227.57 239.788
L228.017 217.408
L228.091 218.445
L228.166 219.067
L228.314 225.211
L228.538 239.38
L228.686 240.924
L228.761 240.379
L228.984 230.556
L229.207 237.484
L229.282 237.96
L229.43 240.686
L229.654 232.837
L229.728 232.154
L229.802 232.323
L230.026 242.744
L230.1 242.522
L230.249 244.28
L230.323 243.804
L230.621 233.797
L230.77 238.175
L230.993 233.098
L231.067 232.991
L231.588 224.827
L231.737 226.363
L231.811 227.085
L231.96 224.059
L232.034 224.128
L232.183 227.868
L232.778 267.689
L232.927 281.482
L233.076 268.641
L233.522 191.204
L233.746 168.801
L233.894 187.471
L234.192 250.563
L234.266 250.263
L234.49 236.961
L234.564 237.061
L234.713 248.604
L235.159 287.104
L235.234 287.741
L235.308 284.047
L235.68 236.07
L235.978 203.016
L236.35 145.454
L236.498 169.293
L237.019 293.394
L237.168 298.01
L237.391 274.962
L237.912 194.452
L237.986 197.67
L238.656 274.332
L238.73 273.933
L238.879 260.009
L239.474 195.09
L239.549 195.75
L239.623 199.329
L239.921 234.604
L239.995 234.565
L240.367 220.349
L240.516 210.796
L240.739 196.28
L240.814 198.723
L240.962 225.288
L241.409 325.535
L241.483 330.657
L241.558 328.338
L241.855 269.394
L242.376 176.12
L242.599 159.485
L242.674 162.243
L242.897 197.74
L243.12 240.41
L243.194 244.872
L243.269 243.988
L243.418 245.54
L243.492 245.432
L243.566 244.895
L243.79 245.709
L244.385 263.304
L244.534 260.462
L244.831 249.71
L245.054 221.916
L245.426 188.201
L245.575 186.596
L245.65 188.178
L245.798 198.63
L246.096 258.296
L246.394 297.495
L246.468 297.088
L246.617 285.468
L247.212 208.023
L247.286 208.468
L247.435 215.473
L247.658 227.93
L247.733 228.337
L247.807 228.183
L248.03 225.656
L248.254 221.532
L248.551 225.357
L248.7 233.636
L248.923 249.242
L249.221 232.561
L249.37 225.695
L249.444 226.655
L249.965 251.645
L250.188 256.637
L250.411 272.074
L250.56 268.787
L250.709 255.416
L251.155 172.027
L251.23 175.583
L251.378 203.423
L251.602 247.03
L251.75 237.507
L251.974 215.465
L252.048 215.572
L252.42 256.1
L252.643 274.386
L252.718 273.088
L252.792 273.211
L252.866 272.696
L253.164 259.272
L253.313 242.514
L253.61 209.26
L253.759 203.945
L253.908 200.205
L254.057 203.438
L254.206 215.158
L254.578 256.269
L254.652 257.958
L254.726 256.852
L255.024 245.74
L255.396 199.444
L255.545 207.132
L256.438 273.772
L256.512 274.87
L256.958 242.706
L257.33 215.288
L257.405 217.124
L257.554 229.489
L257.628 227.891
L257.851 204.705
L258.074 192.125
L258.149 193.162
L258.521 225.495
L258.893 269.932
L259.042 274.831
L259.19 276.467
L259.265 274.939
L259.339 270.477
L259.414 270.976
L259.488 271.13
L259.637 263.657
L259.86 240.033
L260.232 201.964
L260.306 200.658
L260.455 204.006
L260.604 217.9
L260.827 240.133
L260.976 237.299
L261.274 221.478
L261.497 205.112
L261.646 214.313
L262.092 267.151
L262.166 267.75
L262.464 257.029
L262.538 253.612
L262.762 215.849
L263.059 148.703
L263.134 147.988
L263.282 169.546
L263.654 289.523
L263.878 327.132
L263.952 327.025
L264.622 279.493
L265.217 187.886
L265.366 176.765
L265.589 161.812
L265.663 159.946
L265.812 149.217
L266.035 159.908
L267.077 300.92
L267.226 305.306
L267.3 304.745
L267.374 304.922
L267.523 306.074
L267.821 285.96
L267.97 280.369
L268.267 229.988
L268.937 99.2282
L269.011 98.3143
L269.16 118.628
L269.904 351.631
L270.053 340.68
L270.425 261.307
L270.871 179.292
L271.094 172.564
L271.243 175.022
L271.764 239.841
L272.062 267.382
L272.136 266.621
L272.359 256.607
L272.731 239.373
L272.806 238.129
L273.029 244.311
L273.252 264.141
L273.326 261.322
L273.624 237.714
L273.773 242.299
L273.922 247.652
L273.996 247.199
L274.145 239.903
L274.368 209.398
L274.74 156.544
L274.814 157.681
L275.558 246.147
L275.782 264.786
L276.228 351.27
L276.302 343.583
L276.6 267.697
L276.972 184.937
L277.195 161.613
L277.27 160.829
L277.418 170.253
L277.716 206.794
L278.014 251.131
L278.162 232.952
L278.46 199.698
L278.534 200.435
L278.683 220.357
L279.13 323.945
L279.204 320.128
L279.427 267.282
L279.799 192.11
L279.948 185.498
L280.097 202.862
L280.469 252.79
L280.543 253.504
L280.692 247.675
L280.99 228.759
L281.213 193.853
L281.436 160.346
L281.51 170.138
L282.106 344.612
L282.18 342.285
L282.329 319.468
L282.775 201.81
L283.147 93.1226
L283.222 97.4925
L283.37 140.239
L283.742 256.515
L283.891 270.584
L283.966 270.331
L284.04 270.6
L284.114 270.423
L284.189 271.398
L284.784 295.759
L284.933 286.582
L285.677 182.518
L285.974 118.927
L286.049 123.72
L286.272 186.373
L286.644 298.209
L286.793 308.278
L286.942 297.172
L287.388 251.738
L287.537 250.063
L287.834 236.7
L288.355 186.181
L288.43 186.903
L288.802 210.127
L289.546 292.541
L289.694 277.949
L289.992 240.44
L290.141 237.722
L290.438 241.039
L290.513 240.748
L290.587 240.179
L290.736 236.792
L290.885 218.284
L291.182 166.19
L291.331 202.67
L291.629 267.904
L291.778 255.916
L292.224 198.692
L292.373 192.855
L292.522 204.92
L292.819 235.494
L293.042 238.228
L293.117 239.496
L293.266 258.995
L293.638 317.755
L293.712 316.334
L293.861 307.794
L294.084 272.696
L294.828 168.156
L294.977 164.554
L295.87 224.451
L296.39 318.822
L296.465 318.638
L296.539 312.778
L296.688 264.11
L296.911 172.227
L296.986 176.159
L297.209 235.955
L297.358 226.225
L297.432 233.521
L297.73 323.484
L297.804 322.217
L297.953 290.099
L298.25 214.19
L298.474 222.085
L298.548 217.669
L298.846 128.335
L298.994 139.272
L299.515 263.35
L299.738 276.943
L299.813 276.713
L299.962 270.461
L300.706 220.71
L300.78 221.801
L301.003 227.139
L301.078 227.346
L301.152 227.177
L301.226 228.49
L301.375 237.829
L301.598 207.432
L301.673 209.951
L302.045 262.344
L302.119 262.298
L302.194 260.278
L302.417 238.013
L302.566 226.463
L302.64 227.254
L302.938 215.165
L303.012 216.886
L303.161 226.148
L303.235 225.134
L303.384 219.328
L303.533 231.808
L303.905 259.026
L303.979 259.341
L304.054 258.273
L304.128 254.487
L304.426 221.286
L304.574 218.36
L304.723 219.827
L304.872 231.608
L305.17 264.433
L305.244 265.193
L305.467 256.138
L305.988 219.044
L306.062 218.652
L306.286 227.384
L306.36 228.46
L306.509 236.301
L306.658 230.272
L306.955 199.598
L307.03 204.006
L307.402 273.434
L307.476 265.876
L307.922 185.928
L307.997 183.962
L308.071 185.144
L308.294 218.307
L308.741 300.214
L308.89 306.074
L309.113 286.305
L309.857 201.249
L309.931 200.904
L310.154 204.682
L310.303 209.398
L310.452 213.507
L310.526 213.599
L310.675 210.273
L310.898 195.397
L310.973 196.15
L311.122 213.975
L311.345 243.589
L311.494 242.191
L311.568 242.729
L311.717 246.6
L311.866 255.332
L312.238 288.456
L312.386 295.99
L312.461 295.521
L312.61 281.236
L313.205 194.176
L313.502 185.467
L313.577 183.816
L313.726 193.277
L314.246 239.718
L314.618 258.22
L314.693 259.464
L314.767 259.026
L315.437 228.529
L315.809 241.162
L316.032 253.45
L316.255 249.994
L316.404 251.576
L316.627 255.009
L316.925 232.699
L317.074 218.414
L317.297 225.449
L317.446 216.732
L317.594 204.436
L317.669 205.143
L317.818 200.873
L318.413 236.109
L318.785 270.024
L318.859 271.775
L318.934 271.429
L319.008 272.351
L319.157 261.046
L319.901 209.789
L319.975 210.327
L320.05 211.779
L320.794 248.927
L320.868 248.581
L321.166 241.923
L321.463 226.493
L321.612 235.686
L321.761 244.411
L321.91 243.113
L321.984 241.784
L322.058 242.038
L322.207 245.256
L322.282 244.933
L322.43 242.66
L322.579 247.13
L322.877 224.965
L323.026 217.254
L323.174 223.122
L323.398 233.567
L323.472 231.785
L323.844 213.952
L324.067 196.618
L324.142 196.104
L324.216 199.928
L325.034 298.762
L325.109 299.315
L325.258 280.461
L325.778 215.357
L326.002 194.66
L326.225 175.767
L326.299 178.724
L326.522 207.516
L327.043 277.588
L327.266 286.275
L327.49 277.98
L327.713 253.635
L328.01 216.847
L328.234 200.812
L328.382 201.948
L328.68 193.623
L328.754 193.431
L328.903 197.402
L329.647 268.91
L329.87 264.371
L329.945 263.68
L330.094 257.928
L330.168 258.772
L330.242 258.496
L330.391 258.081
L330.54 250.125
L330.838 234.388
L331.135 223.798
L331.433 217.155
L331.582 224.573
L331.656 224.32
L332.028 215.25
L332.102 214.505
L332.326 224.466
L332.698 243.651
L332.921 251.599
L332.995 252.068
L333.144 249.772
L333.218 248.159
L333.516 231.862
L333.665 233.659
L333.739 232.845
L333.814 233.121
L333.888 235.41
L334.186 252.052
L334.26 253.581
L334.483 239.918
L334.93 211.64
L335.004 210.98
L335.227 215.288
L335.376 224.604
L335.971 264.632
L336.194 259.886
L336.418 240.724
L336.864 199.13
L336.938 200.412
L337.162 223.721
L337.534 253.65
L337.757 261.245
L337.906 256.86
L337.98 257.866
L338.054 258.035
L338.65 209.981
L338.798 203.884
L339.17 209.359
L339.766 242.314
L339.84 244.396
L340.063 264.663
L340.286 285.56
L340.361 288.41
L340.584 266.13
L341.105 207.432
L341.179 205.327
L341.254 205.873
L341.402 208.561
L341.477 207.585
L341.551 207.892
L341.626 208.799
L342.146 228.897
L342.518 244.856
L342.593 245.801
L342.816 252.652
L342.965 249.994
L343.114 246.868
L343.188 246.868
L343.337 248.259
L343.56 243.551
L343.709 245.955
L343.783 246.484
L343.858 248.381
L343.932 247.967
L344.155 232.253
L344.304 221.494
L344.378 221.816
L344.453 221.609
L344.75 212.746
L344.825 212.078
L345.122 217.5
L345.346 228.168
L345.792 257.183
L345.866 255.148
L345.941 255.34
L346.015 255.539
L346.164 257.044
L346.536 240.655
L346.834 225.964
L346.982 222.085
L347.057 223.506
L347.131 223.921
L347.28 226.624
L347.503 217.147
L347.578 217.708
L347.652 217.431
L347.801 213.637
L347.95 223.045
L348.098 237.238
L348.396 265.454
L348.47 265.108
L348.545 266.376
L348.619 265.938
L348.768 262.797
L349.214 247.782
L349.884 191.212
L349.958 192.855
L350.033 194.637
L350.554 236.477
L350.702 235.172
L351 244.096
L351.298 262.482
L351.372 266.084
L351.446 264.986
L352.414 223.944
L352.488 224.197
L352.711 229.036
L352.786 227.377
L352.934 220.219
L353.306 230.034
L353.381 229.32
L353.455 230.833
L353.678 241.677
L353.753 241.654
L353.827 240.54
L354.05 233.674
L354.422 240.963
L354.497 240.855
L354.72 233.267
L354.869 237.676
L354.943 237.053
L355.092 230.794
L355.166 232.492
L355.241 234.473
L355.464 231.094
L355.538 231.555
L355.836 240.586
L355.985 240.202
L356.059 241.201
L356.134 240.456
L356.506 231.032
L356.654 233.736
L356.729 232.952
L356.878 228.759
L356.952 231.816
L357.026 231.278
L357.101 228.536
L357.175 229.312
L357.622 245.732
L357.994 238.397
L358.291 226.409
L358.366 225.695
L358.514 231.754
L358.663 234.872
L358.738 235.402
L358.886 240.517
L358.961 239.419
L359.184 230.687
L359.407 240.463
L359.482 239.404
L359.63 233.605
L359.705 234.281
L359.928 232.622
L360.002 233.452
L360.077 236.14
L360.151 235.249
L360.3 238.797
L360.374 240.878
L360.449 240.847
L361.044 217.792
L361.565 246.346
L361.639 248.044
L361.714 247.391
L361.788 247.544
L361.937 244.403
L362.086 255.508
L362.309 241.477
L362.383 243.72
L362.458 246.346
L362.606 234.25
L362.83 223.137
L362.978 224.98
L363.053 224.389
L363.127 223.107
L363.202 223.16
L363.35 225.549
L363.425 224.742
L363.499 223.483
L363.797 230.764
L363.946 236.347
L364.02 236.193
L364.094 235.372
L364.243 243.251
L364.318 241.654
L364.466 236.001
L364.541 236.777
L364.764 241.677
L364.913 241.009
L365.062 244.065
L365.136 243.873
L365.359 233.359
L365.508 235.54
L365.657 230.103
L365.806 235.218
L365.954 239.096
L366.178 236.524
L366.401 231.017
L366.475 232.453
L366.624 234.258
L366.773 225.641
L366.847 225.864
L366.996 229.243
L367.145 226.847
L367.219 227.784
L367.442 241.5
L367.591 236.792
L368.038 247.498
L368.112 247.03
L368.186 244.557
L368.261 244.818
L368.335 244.864
L368.41 244.449
L368.633 239.119
L368.782 234.127
L368.856 230.94
L368.93 231.032
L369.079 230.326
L369.526 214.344
L369.674 222.792
L369.972 235.663
L370.121 234.089
L370.27 238.943
L370.344 238.49
L370.418 235.64
L370.939 258.158
L371.014 255.163
L371.386 240.709
L371.46 241.124
L371.534 238.92
L371.758 224.412
L371.832 225.019
L371.906 224.289
L371.981 222.369
L372.13 223.56
L372.204 223.544
L372.353 228.375
L372.427 227.807
L372.65 220.58
L372.725 220.987
L373.022 231.823
L373.171 242.084
L373.246 242.007
L373.32 240.786
L373.469 246.062
L373.543 245.617
L373.692 242.499
L373.766 242.337
L373.915 241.308
L374.064 247.214
L374.213 252.905
L374.436 240.087
L374.585 229.396
L374.734 231.939
L374.808 229.788
L374.882 230.211
L375.031 237.299
L375.106 236.116
L375.329 225.441
L375.552 219.566
L376.222 236.524
L376.37 239.788
L376.519 234.304
L376.594 234.55
L376.668 236.032
L376.817 231.739
L376.891 232.238
L377.189 245.363
L377.412 256.476
L377.486 254.932
L377.71 244.772
L377.784 244.672
L378.305 224.474
L378.677 219.205
L378.9 226.647
L379.123 239.68
L379.198 238.981
L379.272 237.276
L379.346 237.384
L379.495 241.638
L379.57 241.377
L379.793 237.023
L380.09 222.131
L380.388 241.539
L380.537 243.651
L380.611 243.366
L380.76 240.479
L380.834 239.104
L380.983 244.073
L381.058 243.812
L381.578 224.62
L381.653 226.171
L381.95 241.062
L382.025 240.771
L382.174 235.671
L382.322 228.89
L382.397 229.189
L382.546 233.375
L382.694 238.505
L383.215 228.099
L383.29 228.214
L383.587 233.951
L383.662 233.075
L383.736 232.906
L383.81 233.812
L383.959 237.468
L384.108 236.792
L384.182 235.287
L384.331 229.012
L384.406 230.034
L384.629 236.477
L384.778 235.84
L384.926 237.476
L385.075 240.079
L385.15 240.133
L385.447 241.938
L385.596 245.332
L385.819 240.64
L386.042 247.974
L386.266 231.985
L386.489 218.514
L386.563 218.045
L386.638 218.23
L386.712 217.861
L386.861 219.812
L387.233 235.395
L387.307 234.442
L387.382 234.45
L387.53 237
L387.754 244.833
L387.828 244.948
L388.051 254.257
L388.126 251.845
L388.274 250.516
L388.349 246.016
L388.721 201.702
L388.795 198.392
L388.87 198.822
L389.018 214.659
L389.465 275.653
L389.614 265.531
L390.134 216.978
L390.209 215.657
L390.283 216.686
L391.25 251.492
L391.325 250.148
L391.622 238.636
L391.994 218.698
L392.143 210.258
L392.218 210.365
L392.366 216.079
L392.664 233.267
L392.887 237.806
L393.482 250.516
L393.557 249.879
L393.854 243.505
L394.078 237.683
L394.152 238.374
L394.226 238.735
L394.375 235.779
L394.45 236.524
L394.598 227.645
L394.822 217.477
L394.896 217.523
L394.97 218.437
L395.268 228.221
L395.491 241.016
L395.566 240.609
L395.64 241.7
L395.789 249.065
L395.863 248.65
L396.086 240.64
L396.235 232.714
L396.384 238.413
L396.607 246.746
L396.682 245.824
L397.202 218.767
L397.5 225.541
L398.021 260.424
L398.095 259.203
L398.244 255.616
L398.839 208.422
L399.062 210.55
L399.36 222.976
L399.583 236.823
L399.732 234.081
L400.327 262.282
L400.922 237.084
L401.146 223.245
L401.22 222.477
L401.294 222.861
L401.369 224.55
L401.592 233.444
L401.666 232.607
L401.89 238.06
L401.964 237.791
L402.038 237.722
L402.262 240.778
L402.336 240.202
L402.708 228.529
L403.006 225.196
L403.08 225.357
L403.154 225.004
L403.378 221.939
L403.452 221.847
L403.601 215.78
L403.75 209.283
L403.898 219.167
L404.345 255.724
L404.717 269.985
L404.791 269.463
L405.163 240.978
L405.61 206.164
L405.684 205.926
L405.907 222.423
L406.279 254.863
L406.502 259.333
L406.577 259.003
L406.726 261.038
L406.8 260.093
L407.544 192.909
L407.618 192.041
L407.842 213.99
L408.139 238.835
L408.288 242.33
L408.511 235.502
L408.809 225.51
L408.958 233.882
L409.33 265.162
L409.404 264.502
L409.627 256.876
L409.776 254.909
L409.925 247.444
L410.148 229.466
L410.371 231.8
L410.446 230.564
L410.594 220.588
L410.892 201.71
L410.966 205.074
L411.338 236.301
L411.413 237.437
L411.71 249.541
L411.785 249.856
L411.859 249.572
L412.082 234.381
L412.157 235.579
L412.306 237.637
L412.38 237.622
L412.454 237.199
L412.826 229.98
L412.975 234.903
L413.124 240.602
L413.198 240.033
L413.273 238.351
L413.347 239.273
L413.645 253.435
L413.719 252.598
L414.166 215.91
L414.463 204.805
L414.538 205.85
L414.686 217.946
L414.984 252.06
L415.133 255.178
L415.356 250.947
L415.43 251.139
L415.505 251.553
L415.654 259.855
L415.802 265.416
L415.877 264.364
L416.174 243.681
L416.621 198.5
L416.77 197.778
L416.844 200.397
L417.216 234.58
L417.365 235.579
L417.514 233.513
L417.662 229.688
L417.96 238.728
L418.258 253.166
L418.332 253.243
L418.481 257.482
L418.555 256.829
L419.076 226.954
L419.15 227.284
L419.225 229.266
L419.299 229.112
L419.448 223.491
L419.671 230.833
L419.746 230.764
L419.969 239.596
L420.043 238.551
L420.564 219.781
L420.787 225.833
L421.308 259.617
L421.68 237.1
L421.903 225.971
L422.052 219.474
L422.201 221.985
L422.424 232.653
L422.647 247.345
L422.796 235.602
L422.87 238.536
L423.168 259.656
L423.317 246.868
L423.614 219.535
L423.912 206.341
L423.986 207.662
L424.21 226.117
L424.433 241.462
L424.656 243.059
L424.73 243.658
L424.805 243.059
L424.954 244.703
L425.326 223.421
L425.4 224.712
L425.995 256.76
L426.144 249.057
L426.367 233.421
L426.442 232.653
L426.739 239.035
L426.814 237.399
L426.962 233.513
L427.037 233.482
L427.111 233.72
L427.26 229.527
L427.409 237.437
L427.483 236.009
L427.632 227.123
L427.706 227.53
L427.781 229.281
L427.855 228.797
L428.153 213.929
L428.525 236.639
L428.599 238.021
L428.897 250.885
L428.971 255.209
L429.046 254.74
L429.194 250.547
L429.418 237.875
L429.566 244.449
L429.864 235.172
L430.31 219.697
L430.682 209.82
L430.831 213.829
L431.129 230.963
L431.352 254.134
L431.426 253.996
L431.575 258.68
L431.65 258.504
L431.873 254.349
L432.022 255.132
L432.245 243.144
L432.394 245.202
L432.542 242.529
L433.063 215.611
L433.584 230.226
L433.733 226.309
L433.807 226.716
L433.882 227.922
L433.956 226.924
L434.105 223.037
L434.254 224.627
L434.402 235.955
L434.551 246.915
L434.626 246.792
L434.923 252.521
L434.998 251.999
L435.444 237.545
L435.593 239.104
L435.667 239.096
L435.89 232.829
L435.965 233.544
L436.039 231.493
L436.262 216.778
L436.411 224.389
L436.56 230.019
L436.634 229.742
L436.858 238.397
L436.932 238.313
L437.006 238.92
L437.23 242.668
L437.304 243.282
L437.378 243.113
L437.453 242.153
L437.676 235.379
L437.825 236.854
L437.899 236.716
L437.974 236.101
L438.197 240.84
L438.494 229.711
L438.569 230.648
L438.718 234.619
L438.866 229.412
L439.015 222.73
L439.09 223.598
L439.685 247.383
L439.982 244.411
L440.131 233.644
L440.28 225.964
L440.726 233.498
L440.875 232.538
L441.098 236.846
L441.173 235.149
L441.322 232.538
L441.396 233.006
L441.545 231.969
L441.768 239.373
L441.842 239.273
L441.917 238.958
L442.14 246.569
L442.289 241.393
L442.735 219.904
L442.81 219.036
L443.107 222.316
L443.256 227.116
L443.554 241.324
L444 254.495
L444.372 249.08
L445.265 212.669
L445.339 212.332
L445.488 210.173
L445.637 220.941
L445.934 241.731
L446.158 247.391
L446.306 242.061
L446.678 231.386
L447.125 245.094
L447.199 244.204
L447.646 228.329
L447.72 227.93
L447.869 226.117
L447.943 226.478
L448.538 244.28
L448.613 243.543
L448.836 234.895
L448.985 236.984
L449.134 235.679
L449.357 241.446
L449.506 238.82
L449.729 230.533
L449.878 234.173
L449.878 234.173" style="fill:none;stroke:#808080;stroke-linecap:square;"/>
   </g>
  </g>
 </g>
 <defs>
  <clipPath id="p7ff5b81e1d">
   <rect height="345.6" width="446.4" x="72.0" y="43.2"/>
  </clipPath>
 </defs>
</svg>
