<?xml version="1.0" encoding="utf-8" standalone="no"?>
<!DOCTYPE svg PUBLIC "-//W3C//DTD SVG 1.1//EN"
  "http://www.w3.org/Graphics/SVG/1.1/DTD/svg11.dtd">
<!-- Created with matplotlib (http://matplotlib.org/) -->
<svg height="432pt" version="1.1" viewBox="0 0 576 432" width="576pt" xmlns="http://www.w3.org/2000/svg" xmlns:xlink="http://www.w3.org/1999/xlink">
 <defs>
  <style type="text/css">
*{stroke-linecap:butt;stroke-linejoin:round;}
  </style>
 </defs>
 <g id="figure_1">
  <g id="patch_1">
   <path d="
M0 432
L576 432
L576 0
L0 0
z
" style="fill:#ffffff;"/>
  </g>
  <g id="axes_1">
   <g id="line2d_1">
    <path clip-path="url(#p7ff5b81e1d)" d="
M72 224.996
L72.0744 224.454
L72.1488 226.217
L72.2232 224.247
L72.4464 212.462
L72.6696 207.9
L72.744 209.363
L73.0416 186.795
L73.116 188.581
L73.3392 198.88
L73.4136 198.845
L73.5624 194.018
L73.7112 204.479
L73.86 221.828
L73.9344 221.678
L74.1576 214.685
L74.3064 213.119
L74.3808 213.856
L74.5296 219.535
L74.9016 250.317
L75.1992 241.389
L75.7944 179.664
L76.1664 191.392
L76.3152 179.757
L76.3896 180.321
L76.5384 200.159
L76.836 236.135
L77.1336 240.386
L77.2824 245.616
L77.3568 245.651
L77.6544 239.269
L78.2496 215.215
L78.324 214.962
L78.5472 210.411
L78.6216 210.941
L78.8448 215.296
L78.9192 213.879
L79.1424 218.855
L79.2168 217.415
L79.44 198.292
L79.5144 200.47
L79.5888 200.435
L79.812 172.683
L79.8864 174.25
L80.0352 181.819
L80.1096 181.784
L80.184 180.793
L80.3328 173.812
L80.4816 182.038
L81.3 296.581
L81.3744 293.931
L81.8208 257.931
L82.416 159.297
L82.4904 157.984
L82.5648 159.366
L82.6392 159.055
L82.7136 158.882
L82.8624 169.112
L83.16 204.421
L83.4576 220.399
L83.6808 231.355
L83.7552 231.873
L83.8296 231.654
L84.1272 220.964
L84.4992 201.506
L84.5736 201.599
L84.7968 206.679
L84.9456 213.049
L85.0944 225.307
L85.392 257.689
L85.5408 265.039
L85.6152 262.401
L86.508 183.259
L86.8056 175.863
L86.88 178.512
L87.3264 209.847
L87.5496 223.245
L87.624 223.36
L87.8472 212.335
L87.9216 213.533
L88.0704 221.92
L88.2936 234.799
L88.5168 242.575
L88.6656 232.518
L88.8888 216.598
L88.9632 217.335
L89.112 214.42
L89.2608 207.278
L89.3352 200.009
L89.4096 203.522
L89.6328 216.978
L89.9304 210.273
L90.0792 219.558
L90.1536 218.637
L90.3024 212.485
L90.3768 213.072
L90.6 217.174
L90.7488 219.835
L91.0464 226.148
L91.4184 217.197
L91.6416 227.968
L91.8648 213.741
L91.9392 214.87
L92.088 217.703
L92.3856 191.645
L92.6088 206.195
L92.6832 206.149
L92.832 201.103
L93.0552 190.044
L93.1296 189.871
L93.204 187.003
L93.2784 187.199
L93.7248 220.146
L94.0968 271.225
L94.2456 267.286
L94.4688 272.677
L94.5432 270.35
L94.692 248.865
L95.1384 184.964
L95.2872 176.243
L95.5104 184.042
L95.5848 183.431
L95.6592 184.215
L95.808 190.816
L95.9568 202.555
L96.1056 200.654
L96.2544 204.916
L96.4032 200.711
L96.552 203.073
L96.7752 209.075
L96.924 204.248
L97.296 226.758
L97.668 261.364
L97.7424 261.756
L98.1144 249.81
L98.2632 247.356
L98.412 235.03
L99.156 149.574
L99.3048 160.668
L99.9744 260.12
L100.049 259.705
L100.198 248.761
L100.718 199.663
L100.793 199.744
L101.09 204.052
L101.537 247.437
L101.611 244.81
L102.355 194.191
L102.578 191.945
L102.653 191.484
L102.727 191.876
L103.397 209.801
L103.546 209.616
L103.694 220.019
L104.215 262.263
L104.29 262.067
L104.438 260.627
L104.587 250.19
L104.885 219.777
L105.257 175.241
L105.48 168.006
L105.554 169.7
L105.852 185.367
L105.926 186.588
L106.075 200.976
L106.298 216.425
L106.447 223.786
L106.522 223.579
L106.67 219.616
L106.894 233.037
L107.191 247.529
L107.34 242.932
L107.489 235.11
L107.712 217.715
L107.786 218.015
L107.861 219.385
L107.935 219.155
L108.01 217.623
L108.233 202.589
L108.53 221.747
L108.754 236.009
L108.902 229.88
L109.051 221.966
L109.498 181.531
L109.572 183.132
L109.646 183.397
L109.721 184.952
L109.795 184.457
L109.87 183.593
L109.944 184.941
L110.167 214.386
L110.614 265.074
L110.762 275.131
L110.837 271.41
L111.283 197.567
L111.506 163.963
L111.581 165.84
L112.102 207.117
L112.399 225.583
L112.474 225.111
L112.771 211.586
L112.846 211.667
L112.92 211.943
L113.218 217.151
L113.366 223.199
L113.441 222.093
L113.59 214.466
L113.738 216.31
L113.813 215.952
L114.036 225.203
L114.259 237.956
L114.408 236.573
L114.557 243.6
L114.78 259.337
L114.929 247.114
L115.375 206.31
L115.747 184.768
L115.97 159.942
L116.045 160.15
L116.417 179.918
L116.714 229.73
L116.938 254.452
L117.012 255.455
L117.086 254.256
L117.31 235.663
L117.533 223.199
L117.607 222.15
L117.682 218.683
L117.756 219.961
L117.905 227.392
L117.979 227.242
L118.277 204.052
L118.351 207.232
L118.574 221.828
L118.723 219.996
L118.872 214.386
L118.946 211.713
L119.318 222.139
L119.393 227.288
L119.839 207.923
L120.062 193.661
L120.434 203.568
L120.583 214.098
L120.881 235.295
L121.03 231.746
L121.327 221.724
L121.476 218.89
L121.625 227.392
L121.699 231.516
L121.774 231.113
L121.997 219.65
L122.071 219.328
L122.294 203.845
L122.369 207.75
L122.443 206.955
L122.592 202.071
L122.666 202.359
L122.741 201.633
L122.815 199.018
L122.89 200.135
L123.038 214.662
L123.113 213.349
L123.262 201.38
L123.336 202.128
L123.559 211.448
L123.857 226.85
L124.006 219.04
L124.154 225.56
L124.303 228.29
L124.378 228.717
L124.675 220.837
L124.898 225.975
L125.047 231.758
L125.122 230.963
L125.568 211.598
L125.791 202.382
L125.866 200.377
L126.089 214.524
L126.238 213.879
L126.386 211.344
L126.61 202.601
L126.758 207.531
L126.982 218.372
L127.056 218.625
L127.13 218.291
L127.279 214.927
L127.502 199.329
L127.874 213.257
L128.172 209.755
L128.246 212.877
L128.618 249.072
L128.693 252.356
L128.842 246.838
L129.139 230.94
L129.214 231.723
L129.288 230.802
L130.106 180.045
L130.255 177.453
L130.404 185.344
L130.702 210.308
L130.776 209.974
L130.925 206.483
L131.52 251.227
L131.594 252.551
L131.669 251.307
L131.892 234.534
L132.413 194.767
L132.487 195.205
L132.71 203.015
L132.785 201.806
L132.934 198.246
L133.008 198.776
L133.082 200.297
L133.454 218.936
L133.529 220.653
L133.752 235.479
L133.901 232.38
L134.05 234.765
L134.496 209.87
L134.57 211.149
L134.645 209.167
L134.868 195.113
L134.942 196.495
L135.091 211.517
L135.166 218.867
L135.24 218.498
L135.463 204.167
L135.538 206.518
L135.835 222.358
L135.91 223.636
L135.984 223.049
L136.133 215.515
L136.356 224.627
L136.505 231.401
L136.579 228.705
L136.654 229.546
L136.728 230.191
L136.802 229.915
L136.877 228.394
L137.249 209.524
L137.472 214.167
L137.546 213.81
L137.695 209.927
L137.844 204.352
L137.993 197.912
L138.142 202.105
L138.96 228.613
L139.109 222.438
L139.406 199.133
L140.002 229.857
L140.15 235.559
L140.225 235.248
L140.374 228.751
L140.448 229.154
L140.671 240.006
L140.746 239.465
L141.118 211.586
L141.341 196.092
L141.415 197.002
L141.49 200.182
L141.564 199.513
L141.713 196.438
L141.862 194.848
L142.01 200.331
L142.308 223.095
L142.606 218.118
L142.68 218.107
L143.126 197.993
L143.201 199.387
L143.424 208.799
L143.498 206.886
L143.573 207.739
L143.722 211.172
L144.094 233.255
L144.317 247.437
L144.391 245.225
L144.466 241.861
L144.54 243.566
L144.689 251.284
L145.582 179.446
L145.656 179.423
L146.102 209.029
L146.177 208.81
L146.251 207.105
L146.326 207.946
L146.623 213.787
L146.698 217.024
L146.772 216.482
L146.846 216.206
L146.995 225.998
L147.293 240.79
L147.516 233.993
L147.888 218.337
L148.111 207.543
L148.186 207.969
L148.483 197.094
L148.632 209.87
L149.153 242.875
L149.227 239.58
L149.599 212.704
L149.674 213.913
L149.748 216.068
L150.269 196.08
L150.418 199.41
L150.566 202.693
L150.79 200.758
L151.087 220.353
L151.162 219.593
L151.459 209.34
L151.534 209.11
L151.757 220.699
L151.831 220.157
L151.98 224.247
L152.426 247.321
L152.501 245.743
L152.65 234.926
L153.096 186.553
L153.17 187.417
L153.468 214.132
L153.766 221.171
L153.914 218.936
L153.989 218.948
L154.063 218.602
L154.138 217.462
L154.212 218.038
L154.361 221.724
L154.51 219.616
L154.658 222.841
L154.807 216.494
L155.03 200.619
L155.179 198.891
L155.477 190.263
L156.146 230.203
L156.37 246.665
L156.444 243.992
L156.518 244.706
L156.593 247.402
L156.667 246.204
L157.411 198.35
L157.486 199.133
L157.709 211.563
L157.932 213.764
L158.23 225.307
L158.453 215.215
L158.676 231.009
L158.75 229.65
L159.122 202.889
L159.494 192.555
L159.569 193.051
L159.718 198.603
L159.941 210.411
L160.015 209.236
L160.238 198.58
L160.313 199.318
L160.685 214.973
L160.982 252.505
L161.131 252.171
L161.354 242.794
L161.578 234.799
L161.652 233.739
L161.875 225.076
L161.95 225.883
L162.47 196.345
L162.545 199.836
L162.768 205.4
L163.214 178.858
L163.363 186.715
L163.735 219.097
L163.958 235.951
L164.033 238.428
L164.256 253.093
L164.405 246.227
L164.702 248.658
L164.851 238.267
L164.926 240.594
L165.074 232.115
L165.298 199.387
L165.595 142.443
L165.67 140.024
L165.744 141.211
L165.818 144.621
L165.967 173.87
L166.339 271.076
L166.488 276.778
L166.637 259.821
L166.934 234.695
L167.083 224.224
L167.455 195.85
L167.53 196.438
L167.604 195.954
L167.753 181.415
L167.827 182.118
L168.05 164.93
L168.125 167.096
L168.274 190.274
L168.646 275.211
L168.794 280.418
L168.943 266.491
L169.241 208.557
L169.39 186.438
L169.464 187.106
L169.613 195.931
L169.687 195.539
L169.762 193.834
L169.91 202.82
L170.208 218.256
L170.357 217.657
L170.58 225.168
L170.729 213.487
L170.878 199.122
L171.101 206.759
L171.398 222.265
L171.473 222.45
L171.547 223.579
L171.696 230.237
L171.77 230.226
L171.919 226.551
L171.994 226.666
L172.068 229.005
L172.142 227.968
L172.291 224.592
L172.514 230.975
L173.184 171.197
L174.3 252.321
L174.449 256.48
L174.523 256.503
L174.598 256.71
L174.821 244.073
L175.044 218.614
L175.49 158.687
L175.565 156.878
L176.309 215.169
L176.458 229.995
L176.606 243.992
L176.681 244.13
L176.978 258.093
L177.053 259.026
L177.127 256.71
L177.425 229.5
L177.722 191.979
L177.871 187.383
L178.02 196.679
L178.169 201.84
L178.243 203.131
L178.318 200.066
L178.466 182.567
L178.541 184.63
L178.987 234.235
L179.062 231.504
L179.136 232.15
L179.21 230.767
L179.285 226.758
L179.359 228.198
L179.508 233.198
L179.657 229.788
L179.954 241.458
L180.178 226.516
L180.401 215.215
L180.55 222.922
L180.698 213.28
L180.996 192.014
L181.145 194.975
L181.442 185.759
L181.666 196.023
L181.74 195.159
L182.112 221.436
L182.186 218.717
L182.261 219.789
L182.484 236.896
L182.782 224.869
L182.93 217.773
L183.228 228.924
L183.302 227.853
L183.377 224.397
L183.451 226.367
L183.6 231.977
L183.898 222.346
L183.972 221.148
L184.195 201.541
L184.27 203.914
L184.567 219.374
L184.642 217.623
L184.865 207.52
L185.014 216.056
L185.088 215.791
L185.237 207.808
L185.46 219.478
L185.609 219.65
L185.683 219.305
L185.906 200.078
L185.981 200.331
L186.055 203.039
L186.13 202.382
L186.278 191.553
L186.353 194.744
L186.725 230.214
L186.799 231.378
L186.948 224.385
L187.097 227.588
L187.171 227.357
L187.394 221.413
L187.469 221.563
L187.841 235.882
L187.99 238.774
L188.064 236.999
L188.436 195.942
L188.51 197.209
L188.585 196.265
L188.734 191.945
L188.808 192.025
L188.882 192.083
L189.031 202.831
L189.18 214.086
L189.403 203.027
L189.478 203.154
L190.222 238.831
L190.742 223.118
L190.817 222
L190.966 226.067
L191.04 227.553
L191.114 226.954
L191.412 209.421
L191.486 207.589
L191.561 209.063
L191.635 208.58
L191.71 208.764
L191.784 207.485
L192.007 190.39
L192.082 191.196
L192.826 224.316
L192.974 230.341
L193.049 228.601
L193.123 229.039
L193.198 232.311
L193.346 226.274
L193.644 209.743
L193.718 208.626
L193.793 210.815
L194.016 223.383
L194.314 208.303
L194.686 218.752
L194.834 213.925
L194.909 214.351
L195.132 218.74
L195.43 241.412
L195.504 241.861
L195.653 235.617
L195.727 236.228
L195.802 233.843
L195.95 214.916
L196.248 167.868
L196.322 167.684
L196.397 169.619
L196.546 166.105
L196.62 169.849
L197.066 231.458
L197.215 239.465
L197.29 238.555
L197.438 242.621
L197.736 268.472
L197.81 266.329
L197.959 259.982
L198.331 220.607
L198.629 172.43
L198.703 171.946
L198.926 190.309
L199.001 185.01
L199.15 174.584
L199.224 176.37
L199.373 185.067
L199.447 182.51
L199.522 183.074
L199.894 214.271
L200.191 240.029
L200.34 248.37
L200.414 247.92
L200.563 249.81
L200.712 255.95
L200.861 262.309
L201.01 252.978
L201.679 200.135
L202.051 181.035
L202.349 175.851
L202.423 178.593
L202.795 212.589
L203.167 231.389
L203.316 228.694
L203.614 243.531
L203.762 246.112
L204.06 229.028
L204.134 232.852
L204.209 231.712
L204.506 216.713
L204.581 216.436
L204.73 208.752
L205.027 192.728
L205.25 187.982
L205.325 188.132
L205.474 187.844
L205.548 188.592
L205.622 191.818
L205.92 215.204
L206.143 226.873
L206.292 230.352
L206.664 247.391
L206.813 241.227
L207.036 226.966
L207.11 227.461
L207.185 230.18
L207.259 228.014
L207.854 189.03
L208.003 193.247
L208.078 193.949
L208.375 201.529
L208.45 201.149
L208.598 215.33
L209.045 254.268
L209.119 252.321
L209.417 224.189
L209.938 177.787
L210.012 178.973
L210.235 194.249
L210.83 281.651
L210.905 280.499
L211.128 235.882
L211.5 138.711
L211.574 133.124
L211.649 135.612
L211.798 162.431
L212.244 264.694
L212.318 265.753
L212.393 262.205
L212.69 209.628
L212.914 178.075
L212.988 178.167
L213.137 194.145
L213.434 231.055
L213.583 237.898
L213.658 236.711
L213.955 227.507
L214.03 227.956
L214.104 228.152
L214.178 227.588
L214.327 234.085
L214.402 233.52
L214.55 227.426
L214.625 223.095
L214.774 228.014
L214.848 227.507
L215.22 221.828
L215.741 194.502
L216.038 158.951
L216.113 156.037
L216.187 156.959
L216.262 156.083
L216.41 168.859
L217.08 247.321
L217.303 261.295
L217.378 261.019
L217.601 256.664
L217.675 256.676
L217.824 261.445
L218.196 240.859
L218.419 225.088
L218.568 221.24
L218.717 207.243
L218.94 187.694
L219.312 177.395
L219.461 167.361
L219.61 177.453
L220.279 231.839
L220.428 238.313
L220.726 228.279
L220.874 218.13
L221.172 236.504
L221.246 235.64
L221.544 223.602
L221.618 225.307
L221.693 225.295
L221.842 218.879
L222.065 207.911
L222.139 207.577
L222.362 214.593
L222.511 218.199
L222.809 198.223
L222.883 199.479
L222.958 199.099
L223.181 173.375
L223.255 175.195
L223.478 198.707
L223.999 280.176
L224.074 285.602
L224.148 284.036
L224.297 264.048
L224.594 223.302
L225.041 175.068
L225.115 171.497
L225.562 186.265
L225.636 184.595
L225.785 178.708
L225.859 181.554
L226.082 195.09
L226.231 203.707
L226.901 259.291
L226.975 259.406
L227.198 251.757
L227.422 237.61
L227.496 238.774
L227.57 238.094
L227.719 225.456
L228.166 188.339
L228.314 189.572
L228.463 191.288
L228.612 201.794
L228.91 225.802
L228.984 225.779
L229.133 230.894
L229.282 235.479
L229.728 211.529
L230.026 197.152
L230.323 193.753
L230.398 193.915
L230.695 206.944
L231.29 242.471
L231.365 241.538
L231.886 215.227
L231.96 212.093
L232.034 214.87
L232.109 214.363
L232.258 202.589
L232.481 209.801
L232.555 209.179
L232.704 215.561
L232.778 213.798
L232.927 205.919
L233.002 199.686
L233.076 202.486
L233.299 211.909
L233.374 210.63
L233.448 211.517
L233.82 245.282
L233.894 245.225
L233.969 244.464
L234.043 244.568
L234.118 246.411
L234.266 240.167
L234.638 198.004
L234.787 194.18
L235.01 201.748
L235.159 200.389
L235.308 197.497
L235.531 192.129
L235.606 191.449
L235.754 194.848
L235.829 193.638
L235.978 186.749
L236.87 280.626
L237.168 260.316
L237.838 159.378
L237.912 155.864
L237.986 156.014
L238.21 166.463
L238.582 200.262
L238.879 240.824
L239.102 251.33
L239.177 250.95
L239.251 251.687
L239.326 250.432
L240.07 214.685
L240.218 218.775
L240.293 216.782
L240.59 203.568
L240.739 208.845
L240.814 207.75
L240.888 204.479
L240.962 206.898
L241.186 220.18
L241.781 245.916
L242.078 232.299
L242.822 148.572
L242.971 149.24
L243.046 145.784
L243.12 149.159
L243.492 203.822
L243.864 280.015
L243.938 279.727
L244.087 288.563
L244.162 296.12
L244.236 295.97
L244.459 273.138
L245.129 191.012
L245.352 182.326
L245.426 182.418
L245.65 177.003
L246.691 235.398
L246.766 234.534
L247.063 218.925
L247.658 183.696
L247.733 183.593
L247.882 190.747
L248.923 278.103
L249.072 266.134
L249.667 191.035
L249.89 170.253
L249.965 169.999
L250.188 166.025
L250.337 173.236
L251.304 245.674
L251.378 248.289
L251.453 247.229
L252.197 207.785
L252.271 208.937
L252.494 226.666
L252.941 198.096
L253.238 207.589
L253.313 208.464
L253.536 223.844
L253.61 221.528
L253.685 221.263
L253.759 222.876
L253.982 211.978
L254.057 213.648
L254.354 226.309
L254.503 226.424
L254.875 212.957
L255.173 199.871
L255.247 197.981
L255.396 204.398
L255.545 210.296
L255.619 209.789
L255.694 209.997
L255.991 228.509
L256.214 219.028
L256.289 219.201
L256.363 220.077
L256.512 224.696
L256.586 224.374
L256.735 221.563
L256.81 221.701
L256.884 221.321
L257.033 214.547
L257.107 214.962
L257.182 217.634
L257.33 226.493
L257.479 221.194
L257.628 213.303
L257.702 214.236
L257.777 216.851
L257.851 215.595
L258 211.92
L258.074 212.877
L258.223 221.067
L258.298 219.489
L258.67 204.513
L258.744 205.792
L259.116 195.124
L259.19 195.516
L259.414 204.041
L260.232 253.277
L260.306 253.439
L260.455 240.029
L260.827 200.043
L261.125 193.039
L261.199 194.03
L261.274 193.005
L261.348 193.316
L261.497 198.05
L261.794 215.699
L261.869 214.236
L262.018 224.512
L262.166 242.218
L262.241 241.665
L262.464 228.924
L262.538 228.555
L262.687 231.205
L262.762 230.41
L262.985 214.616
L263.208 205.262
L263.282 205.527
L263.506 211.563
L263.58 211.137
L263.654 209.847
L263.878 196.679
L263.952 197.417
L264.101 203.626
L264.175 204.317
L264.398 195.873
L264.473 199.456
L264.77 245.029
L264.845 244.948
L264.994 248.439
L265.44 222.15
L265.663 205.538
L265.961 199.26
L266.11 190.067
L266.258 194.882
L266.482 213.556
L266.779 236.55
L266.928 245.524
L267.002 243.347
L267.449 207.094
L267.523 203.741
L267.598 205.055
L267.672 206.598
L267.821 200.354
L267.895 200.4
L268.416 216.091
L268.49 215.63
L268.565 216.091
L268.788 219.178
L268.937 218.337
L269.086 219.351
L269.309 215.906
L269.458 218.406
L269.532 217.773
L269.681 221.632
L269.755 221.344
L269.904 212.278
L269.978 213.545
L270.276 223.003
L270.35 222.588
L270.499 224.397
L270.574 224.339
L270.871 214.489
L270.946 214.628
L271.02 214.247
L271.318 208.349
L271.615 215.964
L271.838 198.603
L271.913 200.953
L272.136 220.261
L272.285 224.339
L272.582 214.973
L272.88 223.959
L273.103 231.839
L273.252 228.947
L273.55 221.563
L273.996 200.389
L274.07 199.686
L274.517 208.211
L274.74 198.315
L275.112 215.192
L275.335 227.426
L275.484 225.445
L275.707 221.113
L275.856 228.302
L276.005 234.419
L276.079 233.382
L276.377 213.199
L276.6 219.167
L276.749 215.204
L276.898 210.377
L276.972 210.55
L277.27 218.936
L277.418 217.381
L277.493 215.273
L277.567 216.114
L277.642 215.376
L277.716 211.748
L277.79 212.37
L277.939 224.673
L278.014 221.528
L278.162 215.768
L278.311 220.871
L278.386 220.676
L278.758 203.707
L278.981 193.247
L279.204 208.695
L279.278 212.324
L279.353 211.621
L279.427 210.953
L279.874 224.339
L279.948 223.751
L280.171 224.546
L280.543 236.423
L280.915 221.551
L281.213 198.281
L281.436 191.668
L282.106 229.143
L282.403 218.118
L282.552 216.609
L282.701 213.833
L282.924 228.129
L283.073 233.474
L283.147 232.426
L283.222 235.513
L283.296 234.373
L283.594 220.814
L284.114 185.747
L284.263 181.876
L284.412 191.922
L284.858 233.762
L284.933 238.67
L285.007 237.771
L285.23 227.783
L285.379 229.638
L285.751 223.417
L286.123 204.144
L286.198 204.167
L286.421 208.522
L286.495 208.361
L286.57 205.124
L286.644 205.769
L287.09 228.59
L287.165 226.585
L287.388 218.994
L287.537 221.494
L287.611 221.597
L287.686 222.323
L287.834 226.781
L287.909 226.194
L288.504 204.421
L288.95 218.406
L289.174 208.833
L289.248 209.628
L289.546 202.232
L289.62 203.073
L289.843 217.6
L290.066 225.456
L290.141 225.226
L290.364 218.061
L290.587 218.775
L290.81 212.957
L290.885 212.969
L291.108 221.217
L291.182 220.537
L291.331 212.047
L291.406 213.199
L291.554 224.051
L291.778 243.013
L291.852 243.9
L292.001 232.357
L292.224 214.075
L292.373 209.732
L292.522 201.76
L292.596 203.004
L292.745 207.958
L293.191 195.101
L293.266 195.205
L293.414 200.285
L294.01 236.285
L294.084 236.619
L294.233 230.387
L294.754 199.79
L294.977 174.815
L295.2 189.168
L295.349 213.43
L295.646 267.735
L295.721 268.772
L295.795 268.53
L295.87 267.781
L295.944 268.311
L296.018 266.306
L296.167 243.796
L296.614 161.67
L296.762 157.247
L296.911 173.858
L297.283 245.686
L297.358 246.181
L297.506 244.591
L298.027 203.315
L298.176 192.613
L298.771 212.635
L298.92 208.441
L299.069 213.545
L299.59 233.394
L299.664 232.852
L299.813 230.445
L299.962 239.177
L300.185 253.565
L300.259 251.135
L301.152 159.332
L301.226 163.018
L301.45 187.487
L301.822 227.922
L302.268 271.963
L302.491 263.922
L302.863 232.069
L303.31 182.683
L303.607 151.59
L303.682 152.927
L303.83 163.133
L304.574 240.893
L304.649 240.444
L304.798 241.607
L304.872 241.008
L305.021 242.391
L305.095 239.545
L305.17 240.144
L305.393 243.969
L305.616 241.331
L306.137 207.312
L306.583 191.691
L306.658 192.705
L307.03 216.413
L307.178 222.841
L307.327 221.574
L307.476 217.3
L307.848 200.205
L308.071 210.388
L308.146 210.319
L308.294 204.041
L308.369 205.55
L308.666 218.475
L308.741 218.061
L309.038 230.491
L309.113 235.583
L309.187 235.087
L309.262 235.479
L309.41 240.571
L309.782 224.731
L310.08 204.041
L310.303 197.947
L310.378 194.099
L310.452 194.18
L310.601 201.264
L310.675 199.709
L310.75 201.138
L310.973 213.188
L311.196 218.579
L311.419 231.159
L311.568 236.02
L311.866 220.998
L312.089 210.457
L312.238 206.518
L312.535 212.381
L312.684 217.554
L312.758 216.517
L312.833 215.549
L312.907 217.151
L313.279 246.066
L313.354 245.812
L313.502 241.366
L313.651 224.777
L314.098 163.076
L314.246 163.03
L314.395 177.119
L315.065 297.779
L315.139 296.765
L315.288 280.142
L315.586 189.963
L315.958 55.3175
L316.032 60.1905
L316.181 92.8843
L316.478 261.572
L316.702 374.779
L316.85 385.043
L316.999 357.556
L317.669 142.213
L317.743 149.851
L318.115 206.783
L318.264 185.931
L318.562 134.552
L318.636 135.485
L318.785 152.558
L319.008 209.34
L319.454 379.433
L319.529 383.419
L319.603 379.271
L319.752 337.949
L320.422 59.9486
L320.496 59.2804
L320.645 76.4913
L321.686 285.36
L322.207 340.656
L322.282 341.244
L322.43 324.724
L322.802 217.3
L323.1 140.923
L323.249 136.407
L323.323 136.096
L323.398 134.218
L323.621 143.123
L323.844 153.318
L324.067 149.482
L324.216 144.943
L324.29 145.611
L324.439 159.355
L324.662 231.228
L324.96 320.554
L325.183 339.781
L325.258 335.772
L325.406 307.698
L325.927 185.609
L326.002 185.551
L326.225 209.236
L326.299 208.315
L326.448 198.661
L326.894 157.592
L326.969 156.97
L327.192 181.415
L327.787 268.368
L327.862 263.472
L328.308 196.242
L328.382 196.023
L328.754 209.513
L328.829 208.994
L328.903 207.312
L328.978 207.969
L329.275 229.189
L329.35 229.189
L329.424 228.313
L329.573 229.223
L329.722 235.041
L329.796 234.212
L330.094 213.28
L330.242 207.612
L330.54 240.467
L330.763 262.297
L330.912 241.216
L331.358 130.313
L331.433 128.205
L331.507 128.942
L331.73 159.274
L332.028 205.458
L332.102 210.907
L332.177 209.663
L332.251 210.757
L332.4 227.219
L332.846 314.264
L333.07 328.63
L333.144 325.519
L333.367 292.457
L334.186 107.549
L334.26 106.259
L334.334 106.432
L334.409 107.492
L334.483 110.268
L334.706 141.072
L335.674 322.294
L335.822 310.37
L336.715 189.744
L337.087 134.299
L337.31 148.1
L337.608 169.711
L338.129 235.571
L338.426 265.511
L338.798 246.123
L339.096 239.937
L339.245 240.283
L339.319 238.474
L339.617 216.137
L339.691 217.911
L339.766 220.514
L339.84 220.33
L339.914 220.238
L339.989 221.194
L340.063 220.457
L340.435 202.359
L340.956 136.499
L341.03 137.225
L341.179 164.85
L341.626 301.016
L341.7 306.235
L341.774 301.915
L341.923 265.005
L342.295 149.206
L342.37 149.263
L342.518 171.911
L343.039 288.194
L343.486 272.112
L344.75 113.597
L344.825 117.03
L345.42 221.759
L345.792 360.333
L345.866 358.766
L346.015 312.824
L346.462 140.646
L346.536 133.147
L346.61 133.515
L346.759 154.055
L347.354 282.55
L347.429 273.587
L347.875 201.794
L348.024 190.908
L348.173 200.147
L348.47 227.933
L348.545 225.318
L348.842 194.295
L349.066 215.734
L349.586 257.816
L349.735 251.78
L349.884 232.921
L350.405 147.339
L350.479 148.676
L350.926 192.97
L351.298 243.75
L351.521 254.637
L351.595 255.673
L351.67 253.634
L351.893 242.575
L351.967 240.974
L352.042 241.124
L352.116 241.135
L352.19 241.008
L352.265 240.329
L352.339 240.905
L352.488 249.234
L352.562 248.738
L352.786 231.896
L353.232 178.547
L353.455 172.775
L353.53 172.868
L353.604 173.732
L353.753 166.612
L353.827 163.214
L353.902 165.046
L354.199 204.006
L354.794 290.026
L354.943 277.078
L355.241 223.556
L355.613 167.188
L355.762 164.596
L355.836 165.817
L356.059 191.38
L356.431 252.344
L356.506 255.708
L356.878 240.317
L357.398 197.728
L357.696 185.401
L357.994 190.919
L358.44 213.487
L358.663 220.975
L358.961 242.886
L359.035 241.78
L359.258 235.364
L359.333 236.17
L359.556 241.101
L359.63 239.522
L359.779 228.901
L360.002 188.765
L360.3 126.788
L360.449 143.849
L360.672 203.384
L361.044 303.09
L361.118 308.089
L361.193 306.799
L361.342 299.68
L362.309 158.813
L362.532 145.415
L362.755 177.867
L363.053 211.598
L363.127 215.296
L363.202 215.273
L363.574 194.779
L363.648 196
L363.946 228.394
L364.02 226.885
L364.169 222.991
L364.615 245.709
L365.062 294.3
L365.21 280.557
L365.434 224.42
L365.731 154.896
L365.88 142.547
L365.954 143.711
L366.698 223.717
L366.922 244.603
L367.219 238.37
L367.591 225.664
L367.814 227.484
L367.963 223.993
L368.038 224.973
L368.261 232.818
L369.154 193.2
L369.377 196.61
L369.674 212.45
L369.749 210.158
L370.046 188.984
L370.121 191.046
L370.27 209.11
L370.642 261.791
L370.79 268.242
L370.939 263.323
L371.311 223.809
L371.534 210.653
L371.609 210.907
L371.758 207.082
L371.832 207.623
L372.055 201.334
L372.278 180.943
L372.353 182.21
L372.427 185.171
L372.576 181.047
L372.725 173.893
L373.097 202.151
L373.692 239.004
L373.766 238.601
L373.841 239.073
L373.99 248.508
L374.287 277.815
L374.362 276.962
L374.436 273.76
L375.106 178.777
L375.329 176.278
L375.403 176.439
L375.552 182.729
L375.626 182.049
L375.701 181.162
L375.775 182.948
L376.445 238.175
L376.519 237.472
L376.594 237.449
L376.817 243.992
L377.114 235.444
L377.412 211.46
L377.71 199.444
L377.784 199.479
L377.858 201.91
L378.23 230.813
L378.454 238.889
L378.528 238.416
L378.602 239.246
L378.751 232.461
L378.974 202.405
L379.198 181.323
L379.346 179.008
L379.421 179.169
L379.495 179.376
L379.644 174.895
L379.867 192.682
L380.537 259.233
L380.611 257.954
L380.834 244.384
L380.983 247.414
L381.058 247.137
L381.206 239.845
L381.876 175.264
L381.95 174.584
L382.099 178.455
L382.397 194.687
L382.769 239.131
L382.918 242.978
L382.992 241.838
L383.364 225.998
L383.438 226.816
L383.587 231.862
L383.736 229.719
L383.81 230.306
L383.885 229.247
L384.406 201.91
L384.48 200.7
L384.629 195.954
L384.852 207.75
L384.926 204.559
L385.075 210.112
L385.298 219.858
L385.522 216.125
L385.67 218.982
L385.819 218.026
L386.117 209.328
L386.266 206.172
L386.34 206.829
L386.414 208.96
L386.563 206.817
L386.786 212.496
L387.233 237.99
L387.456 243.554
L387.53 245.49
L387.605 243.474
L387.902 212.416
L388.2 183.927
L388.274 183.19
L388.349 184.319
L388.498 193.028
L388.87 219.466
L389.167 222.726
L389.242 222.611
L389.39 220.399
L389.539 222.968
L389.688 227.138
L389.837 231.758
L389.911 231.205
L390.506 206.345
L390.581 206.817
L390.804 216.978
L391.102 204.421
L391.176 204.951
L391.771 222.047
L391.92 225.767
L392.143 223.533
L392.292 226.297
L392.515 220.503
L392.664 222.473
L392.813 217.934
L393.11 205.642
L393.408 219.581
L393.482 219.247
L393.631 215.48
L393.854 208.672
L394.003 214.593
L394.152 220.1
L394.524 217.254
L394.822 204.536
L394.97 205.089
L395.045 205.285
L395.194 214.121
L395.417 224.385
L395.491 226.401
L395.566 225.468
L396.012 213.383
L396.161 216.874
L396.235 215.768
L396.31 217.001
L396.458 222.957
L396.682 209.824
L396.756 209.927
L396.905 207.888
L397.128 221.678
L397.277 216.517
L397.5 204.755
L397.574 202.739
L397.649 203.661
L397.798 207.508
L397.946 216.114
L398.318 242.564
L398.393 244.787
L398.542 235.801
L398.69 220.054
L398.839 203.015
L399.211 217.473
L399.286 216.747
L399.36 215.319
L399.658 220.676
L399.806 213.556
L400.03 204.156
L400.178 201.069
L400.402 207.946
L400.476 206.483
L400.699 195.286
L400.774 196.415
L401.22 225.18
L401.294 224.903
L401.592 228.095
L401.815 236.343
L402.038 232.299
L402.187 227.726
L402.262 227.449
L403.154 199.387
L403.303 204.352
L403.526 211.782
L403.675 209.421
L403.75 210.607
L404.122 232.749
L404.196 232.265
L404.27 229.558
L404.494 214.754
L404.568 215.549
L404.642 218.176
L404.866 209.409
L405.089 196.299
L405.163 198.073
L405.61 212.001
L405.833 215.227
L405.982 220.042
L406.13 225.583
L406.205 222.427
L406.279 223.256
L406.502 233.463
L406.651 227.012
L406.726 228.025
L406.8 226.643
L407.098 202.82
L407.172 203.776
L407.246 205.458
L407.395 202.601
L407.47 203.764
L407.916 221.92
L408.065 223.809
L408.214 218.406
L408.288 219.685
L408.511 235.283
L408.809 223.141
L408.883 222.818
L409.106 220.56
L409.33 208.418
L409.553 182.959
L409.776 187.083
L410.074 204.121
L410.222 201.564
L410.446 217.254
L410.669 231.47
L410.743 231.723
L410.818 231.343
L411.115 250.247
L411.19 249.879
L411.264 248.243
L411.413 239.776
L411.487 242.022
L411.562 241.619
L411.71 234.442
L412.082 193.327
L412.157 194.882
L412.38 208.499
L412.678 203.453
L412.975 195.631
L413.05 193.27
L413.198 181.496
L413.273 181.853
L413.496 195.873
L413.794 213.971
L413.868 213.314
L413.942 214.8
L414.463 256.583
L414.538 256.468
L414.761 246.48
L415.356 203.891
L415.43 205.976
L415.728 220.077
L415.951 206.806
L416.026 207.635
L416.249 214.512
L416.398 211.506
L416.546 207.37
L416.695 210.63
L416.77 209.755
L417.29 185.517
L417.439 193.788
L417.588 205.677
L417.662 205.746
L417.811 204.709
L417.886 206.276
L418.034 217.692
L418.63 290.038
L418.778 275.937
L419.671 142.029
L419.746 140.301
L419.82 141.81
L420.043 172.937
L420.415 232.864
L420.564 237.126
L420.638 237.483
L420.713 237.299
L420.787 237.426
L421.159 249.418
L421.234 249.107
L421.606 225.791
L421.754 218.187
L421.903 211.69
L422.126 210.02
L422.275 204.697
L422.424 197.163
L422.498 197.382
L422.647 199.721
L422.87 192.348
L423.019 197.44
L423.466 225.019
L423.54 224.777
L423.614 224.938
L423.763 234.983
L423.986 249.084
L424.135 244.269
L424.433 220.607
L424.73 212.738
L424.805 212.151
L425.028 221.286
L425.177 213.326
L425.549 174.768
L425.698 180.413
L426.07 207.946
L426.367 229.062
L426.59 246.031
L426.739 242.794
L426.814 243.416
L426.962 246.192
L427.037 248.75
L427.111 247.667
L427.334 226.171
L427.558 205.999
L427.706 203.05
L428.153 172.13
L428.227 173.824
L428.376 188.903
L428.822 243.024
L428.971 246.665
L429.046 244.257
L429.566 207.335
L429.641 206.886
L429.79 209.985
L430.013 221.183
L430.236 234.972
L430.608 212.704
L430.682 215.192
L430.831 220.848
L430.906 220.687
L431.352 199.352
L431.501 201.506
L431.724 212.013
L431.798 210.849
L431.873 208.994
L431.947 209.593
L432.022 210.607
L432.245 217.151
L432.691 230.352
L432.84 226.194
L433.138 208.787
L433.286 214.501
L433.51 222.98
L433.807 204.49
L433.882 205.124
L434.254 217.035
L434.328 217.542
L434.626 207.036
L434.774 211.748
L434.923 221.39
L435.146 240.697
L435.37 244.706
L435.444 243.439
L435.742 219.074
L436.114 185.609
L436.262 190.182
L436.783 217.957
L436.932 228.682
L437.081 225.825
L437.304 215.423
L437.602 235.41
L437.676 235.076
L437.825 224.639
L437.974 217.611
L438.048 218.729
L438.122 217.208
L438.569 192.521
L438.718 204.271
L438.941 220.134
L439.164 230.491
L439.238 229.385
L439.313 229.995
L439.536 221.517
L439.61 222.588
L439.834 215.699
L439.908 215.86
L439.982 216.978
L440.057 216.598
L440.28 209.098
L440.578 223.337
L440.652 223.36
L440.801 212.819
L441.024 193.742
L441.173 202.025
L441.396 210.538
L441.47 210.538
L441.619 208.084
L441.917 226.113
L441.991 224.685
L442.066 223.049
L442.214 225.848
L442.363 223.59
L442.438 224.731
L442.512 224.201
L442.735 216.551
L443.107 229.523
L443.628 213.821
L443.702 213.948
L443.851 216.644
L443.926 215.653
L444.223 200.838
L444.298 200.585
L444.446 203.661
L444.595 199.202
L444.67 201.564
L445.042 226.574
L445.116 227.196
L445.19 226.758
L445.265 227.046
L445.414 232.311
L445.488 232
L445.637 223.602
L446.009 193.235
L446.083 195.101
L446.455 220.249
L446.678 204.767
L446.753 206.402
L447.274 238.117
L447.348 239.188
L447.497 233.878
L447.794 221.183
L447.943 217.485
L448.39 195.263
L448.464 196.092
L448.538 195.435
L448.613 197.014
L449.208 229.166
L449.282 228.901
L449.58 211.275
L449.654 209.271
L449.729 209.824
L449.878 221.482
L449.878 221.482" style="fill:none;stroke:#808080;stroke-linecap:square;"/>
   </g>
  </g>
 </g>
 <defs>
  <clipPath id="p7ff5b81e1d">
   <rect height="345.6" width="446.4" x="72.0" y="43.2"/>
  </clipPath>
 </defs>
</svg>
